<svg width="16" height="16" viewBox="0 0 16 16" fill="none" xmlns="http://www.w3.org/2000/svg">
<path d="M8 1.5C5.79229 1.5 4 3.24102 4 5.38559V10.6144C4 12.759 5.79229 14.5 8 14.5C10.2077 14.5 12 12.759 12 10.6144V5.38559C12 3.24102 10.2077 1.5 8 1.5ZM7.607 5.53065C7.52391 5.46435 7.4705 5.36347 7.4705 5.25105V3.40244C7.4705 3.29002 7.52391 3.18914 7.607 3.12284C7.67228 3.07095 7.91098 3.03925 8 3.03925C8.08902 3.03925 8.32772 3.07095 8.393 3.12284C8.47609 3.18914 8.5295 3.29002 8.5295 3.40244V5.25105C8.5295 5.36347 8.47609 5.46435 8.393 5.53065C8.32772 5.58254 8.08902 5.61424 8 5.61424C7.91098 5.61424 7.67228 5.58254 7.607 5.53065ZM4.47478 5.38559C4.47478 4.47184 4.84273 3.60998 5.50742 2.9643C6.11573 2.37339 6.75537 2.02461 7.607 1.96984V2.61264C7.25388 2.71064 6.99572 3.02772 6.99572 3.40244V5.25105C6.99572 5.62577 7.25388 5.94284 7.607 6.04373V7.41774H4.47478V5.38559ZM11.5252 10.6144C11.5252 11.5282 11.1573 12.39 10.4926 13.0357C9.82789 13.6814 8.94065 14.0388 8 14.0388C7.05935 14.0388 6.17211 13.6814 5.50742 13.0357C4.84273 12.39 4.47478 11.5282 4.47478 10.6144V7.88182H11.5252V10.6144ZM11.5252 7.41774H8.393V6.04373C8.74612 5.94284 9.00428 5.62577 9.00428 5.25105V3.40244C9.00428 3.02772 8.74612 2.71064 8.393 2.60976V1.96984C9.24463 2.02461 9.88427 2.37339 10.4926 2.9643C11.1573 3.60998 11.5252 4.47184 11.5252 5.38559V7.41774Z" fill="#414244"/>
<path d="M10.508 13.0406C11.1727 12.3949 11.5407 11.5331 11.5407 10.6193V7.88672H4.49023V10.6193C4.49023 11.5331 4.85819 12.3949 5.52288 13.0406C6.18756 13.6863 7.0748 14.0437 8.01546 14.0437C8.95611 14.0437 9.84335 13.6863 10.508 13.0406Z" fill="url(#paint0_linear_4981_411)"/>
<path d="M8.41016 7.42446H11.5424V5.39231C11.5424 4.47856 11.1744 3.6167 10.5097 2.97102C9.90143 2.38011 9.26179 2.03133 8.41016 1.97656V2.61647C8.76327 2.71736 9.02143 3.03443 9.02143 3.40916V5.25777C9.02143 5.63249 8.76327 5.94956 8.41016 6.05045V7.42446Z" fill="url(#paint1_linear_4981_411)"/>
<path d="M7.48633 5.25673C7.48633 5.36914 7.53974 5.47003 7.62283 5.53633C7.68811 5.58821 7.92681 5.61992 8.01583 5.61992C8.10485 5.61992 8.34355 5.58821 8.40883 5.53633C8.49192 5.47003 8.54533 5.36914 8.54533 5.25673V3.40811C8.54533 3.2957 8.49192 3.19481 8.40883 3.12851C8.34355 3.07663 8.10485 3.04492 8.01583 3.04492C7.92681 3.04492 7.68811 3.07663 7.62283 3.12851C7.53974 3.19481 7.48633 3.2957 7.48633 3.40811V5.25673Z" fill="url(#paint2_linear_4981_411)"/>
<path d="M5.52287 2.97102C4.85819 3.6167 4.49023 4.47856 4.49023 5.39231V7.42446H7.62245V6.05045C7.26934 5.94956 7.01118 5.63249 7.01118 5.25777V3.40916C7.01118 3.03443 7.26934 2.71736 7.62245 2.61936V1.97656C6.77082 2.03133 6.13118 2.38011 5.52287 2.97102Z" fill="url(#paint3_linear_4981_411)"/>
<path d="M5.52287 2.97102C4.85819 3.6167 4.49023 4.47856 4.49023 5.39231V7.42446H7.62245V6.05045C7.26934 5.94956 7.01118 5.63249 7.01118 5.25777V3.40916C7.01118 3.03443 7.26934 2.71736 7.62245 2.61936V1.97656C6.77082 2.03133 6.13118 2.38011 5.52287 2.97102Z" fill="url(#paint4_linear_4981_411)"/>
<defs>
<linearGradient id="paint0_linear_4981_411" x1="4.82091" y1="7.91643" x2="9.29975" y2="13.9832" gradientUnits="userSpaceOnUse">
<stop stop-color="#E5E5E5"/>
<stop offset="1" stop-color="#C0C0C0"/>
</linearGradient>
<linearGradient id="paint1_linear_4981_411" x1="10.0234" y1="2.45188" x2="10.0234" y2="9.10636" gradientUnits="userSpaceOnUse">
<stop stop-color="#E5E5E5"/>
<stop offset="1" stop-color="#ADADAD"/>
</linearGradient>
<linearGradient id="paint2_linear_4981_411" x1="8.03176" y1="3.26959" x2="8.03176" y2="6.41489" gradientUnits="userSpaceOnUse">
<stop stop-color="#E5E5E5"/>
<stop offset="1" stop-color="#929292"/>
</linearGradient>
<linearGradient id="paint3_linear_4981_411" x1="6.19189" y1="1.72516" x2="6.42839" y2="7.74965" gradientUnits="userSpaceOnUse">
<stop stop-color="#A3CEFF"/>
<stop offset="1" stop-color="#449BFF"/>
</linearGradient>
<linearGradient id="paint4_linear_4981_411" x1="6.19189" y1="1.72516" x2="6.42839" y2="7.74965" gradientUnits="userSpaceOnUse">
<stop stop-color="#A3CEFF"/>
<stop offset="1" stop-color="#449BFF"/>
</linearGradient>
</defs>
</svg>
