<svg width="16" height="16" viewBox="0 0 16 16" fill="none" xmlns="http://www.w3.org/2000/svg">
<path d="M1.5 3.68959C1.5 2.48031 2.47553 1.5 3.67891 1.5H12.3211C13.5245 1.5 14.5 2.48031 14.5 3.68959V8.98724C14.5 10.1965 13.5245 11.1768 12.3211 11.1768H3.67891C2.47553 11.1768 1.5 10.1965 1.5 8.98724V3.68959Z" fill="url(#paint0_linear_4981_375)"/>
<path fill-rule="evenodd" clip-rule="evenodd" d="M12.3211 2.22986H3.67891C2.87666 2.22986 2.2263 2.88341 2.2263 3.68959V8.98724C2.2263 9.79343 2.87666 10.447 3.67891 10.447H12.3211C13.1233 10.447 13.7737 9.79343 13.7737 8.98724V3.68959C13.7737 2.88341 13.1233 2.22986 12.3211 2.22986ZM3.67891 1.5C2.47553 1.5 1.5 2.48031 1.5 3.68959V8.98724C1.5 10.1965 2.47553 11.1768 3.67891 11.1768H12.3211C13.5245 11.1768 14.5 10.1965 14.5 8.98724V3.68959C14.5 2.48031 13.5245 1.5 12.3211 1.5H3.67891Z" fill="#414244"/>
<path d="M4.44314 7.75378C3.79947 7.33518 3.57324 6.49917 3.917 5.80897C4.27869 5.08278 5.14741 4.77681 5.87788 5.10648L5.0934 5.36894C4.9628 5.41262 4.89217 5.55443 4.93566 5.68573C4.95741 5.75128 5.00357 5.80185 5.06059 5.83053C5.11761 5.85921 5.18556 5.86603 5.25089 5.84418L6.51093 5.42264C6.64152 5.37895 6.71213 5.23718 6.66862 5.10593L6.23816 3.80636C6.19474 3.67511 6.05359 3.60411 5.92301 3.64786C5.79238 3.69152 5.72175 3.83334 5.76527 3.96455L5.97763 4.60579C5.02812 4.24007 3.93569 4.65227 3.47124 5.58477C3.01362 6.50358 3.31503 7.61682 4.17232 8.17431C4.18025 8.17937 4.18824 8.18404 4.19645 8.18817C4.30856 8.24456 4.4473 8.20829 4.51701 8.10004C4.59179 7.98394 4.55871 7.82894 4.44314 7.75378Z" fill="#A4D0FF"/>
<path d="M12.7884 9.93274C12.6488 9.09086 12.0662 8.98441 11.7773 8.98441C11.7677 8.98441 11.758 8.98441 11.7484 8.98441C11.7484 8.98441 11.7484 8.98441 11.7436 8.98441C11.6665 8.98441 11.5847 8.94571 11.551 8.87797C11.3584 8.51993 11.0454 8.46187 10.8143 8.46187C10.7999 8.46187 10.7902 8.46187 10.7758 8.46187C10.7758 8.46187 10.771 8.46187 10.7662 8.46187C10.6699 8.46187 10.5832 8.37961 10.5832 8.28284V5.96524C10.5832 5.65558 10.3617 5.37012 10.0102 5.37012C9.68765 5.37012 9.42284 5.61688 9.42284 5.94105V8.26833C9.42284 8.38445 9.33617 8.4909 9.22062 8.4909C9.10988 8.4909 9.01839 8.39413 9.01839 8.27801V6.38135C9.01839 6.00879 8.7295 5.82009 8.44543 5.82009C8.15654 5.82009 7.87247 6.00395 7.87247 6.37651V9.2602C7.87247 9.50696 7.61728 9.65695 7.37654 9.65695C7.22728 9.65695 7.08284 9.59889 7.0058 9.47793L6.96728 9.41503C6.85173 9.2215 6.67839 9.13924 6.50987 9.13924C6.1295 9.13924 5.75395 9.54567 6.01395 9.98597C6.01395 9.99081 6.01876 9.99564 6.02358 10.0005L8.13728 13.8761C8.1758 13.9583 8.25765 14.0115 8.34913 14.0115H11.2621C11.3728 14.0115 11.4691 13.9341 11.4932 13.8228L11.7821 12.9471C11.7869 12.918 11.8014 12.889 11.8158 12.8648C12.6295 11.6214 12.9377 10.7456 12.798 9.93274H12.7884Z" fill="#EDEDED"/>
<path d="M10.0147 5.36952C10.3662 5.36952 10.5877 5.65983 10.5877 5.96465V8.28225C10.5877 8.38386 10.6695 8.46127 10.7706 8.46127C10.7706 8.46127 10.7755 8.46127 10.7803 8.46127C10.7899 8.46127 10.8044 8.46127 10.8188 8.46127C11.0499 8.46127 11.3629 8.51449 11.5555 8.87738C11.594 8.94511 11.671 8.98382 11.7481 8.98382C11.7481 8.98382 11.7481 8.98382 11.7529 8.98382C11.7625 8.98382 11.7721 8.98382 11.7818 8.98382C12.0707 8.98382 12.6532 9.09027 12.7929 9.93215C12.9277 10.7498 12.6244 11.6208 11.8107 12.8642C11.7962 12.8884 11.7818 12.9175 11.7769 12.9465L11.4881 13.8222C11.464 13.9335 11.3725 14.0109 11.2569 14.0109H8.34399C8.25251 14.0109 8.17065 13.9577 8.13213 13.8755L6.01843 9.99989C6.01843 9.99989 6.01361 9.99021 6.0088 9.98537C5.75361 9.54508 6.12435 9.13865 6.50472 9.13865C6.67324 9.13865 6.84658 9.2209 6.96213 9.41444L7.00065 9.47734C7.0825 9.60314 7.22695 9.65636 7.37139 9.65636C7.61213 9.65636 7.86732 9.50637 7.86732 9.25961V6.38075C7.86732 6.00819 8.15621 5.82433 8.44028 5.82433C8.72436 5.82433 9.01325 6.01303 9.01325 6.38559V8.28225C9.01325 8.39353 9.10473 8.49514 9.21547 8.49514C9.33102 8.49514 9.41769 8.38386 9.41769 8.27257V5.94046C9.41769 5.61628 9.6825 5.36952 10.0051 5.36952M10.0147 4.88568C9.58139 4.88568 9.20584 5.14212 9.03732 5.50984C8.8688 5.40339 8.66658 5.34049 8.4451 5.34049C7.84325 5.34049 7.39065 5.79047 7.39065 6.38075V9.17736C7.39065 9.17736 7.38584 9.17736 7.38102 9.17736L7.36658 9.15317C7.1788 8.84351 6.86102 8.65481 6.50472 8.65481C6.12435 8.65481 5.75843 8.8677 5.57065 9.20155C5.38769 9.52572 5.3925 9.89828 5.58991 10.2321L7.69398 14.1029C7.81435 14.3448 8.06473 14.4996 8.33435 14.4996H11.2473C11.5747 14.4996 11.8588 14.277 11.9406 13.9577L12.2247 13.1013C13.1058 11.7466 13.414 10.774 13.2599 9.8499C13.1058 8.91124 12.4655 8.54352 11.8829 8.49998C11.724 8.27741 11.4736 8.05968 11.0644 7.99678V5.96465C11.0644 5.35985 10.6021 4.88568 10.0099 4.88568H10.0147Z" fill="#414244"/>
<defs>
<linearGradient id="paint0_linear_4981_375" x1="8" y1="1.5" x2="8" y2="11.1768" gradientUnits="userSpaceOnUse">
<stop stop-color="#9C9C9C"/>
<stop offset="1" stop-color="#939393" stop-opacity="0.5"/>
</linearGradient>
</defs>
</svg>
