<svg width="16" height="16" viewBox="0 0 16 16" fill="none" xmlns="http://www.w3.org/2000/svg">
<path d="M3.76286 1.56319C3.72117 1.52163 3.66648 1.50085 3.61184 1.50085C3.55719 1.50085 3.50176 1.52163 3.4601 1.56319L2.56334 2.45566C2.47989 2.53871 2.47839 2.67342 2.56184 2.7565C2.64522 2.83962 2.77755 2.83962 2.86093 2.7565L3.38053 2.23304L3.38053 5.74429L2.86093 5.22083C2.77755 5.13771 2.64522 5.13771 2.56184 5.22083C2.4784 5.30391 2.47989 5.43863 2.56334 5.52168L3.4601 6.41414C3.50176 6.4557 3.55719 6.47648 3.61184 6.47648C3.66648 6.47648 3.72117 6.4557 3.76286 6.41414L4.68248 5.49817C4.76592 5.41508 4.76592 5.28037 4.68248 5.19732C4.5991 5.1142 4.45787 5.1142 4.37449 5.19732L3.80775 5.75586V4.71914C3.80775 4.71906 3.80775 4.71921 3.80775 4.71914L3.80775 2.22148L4.37449 2.78001C4.45787 2.86313 4.5991 2.86313 4.68248 2.78001C4.76593 2.69696 4.76593 2.56225 4.68248 2.47917L3.76286 1.56319Z" fill="#A4D0FF"/>
<path d="M9.69727 1.5C7.48955 1.5 5.69727 3.24102 5.69727 5.38559V10.6144C5.69727 12.759 7.48955 14.5 9.69727 14.5C11.905 14.5 13.6973 12.759 13.6973 10.6144V5.38559C13.6973 3.24102 11.905 1.5 9.69727 1.5ZM9.30426 5.53065C9.22118 5.46435 9.16776 5.36347 9.16776 5.25105V3.40244C9.16776 3.29002 9.22118 3.18914 9.30426 3.12284C9.36954 3.07095 9.60825 3.03925 9.69727 3.03925C9.78629 3.03925 10.025 3.07095 10.0903 3.12284C10.1734 3.18914 10.2268 3.29002 10.2268 3.40244V5.25105C10.2268 5.36347 10.1734 5.46435 10.0903 5.53065C10.025 5.58254 9.78629 5.61424 9.69727 5.61424C9.60825 5.61424 9.36954 5.58254 9.30426 5.53065ZM6.17204 5.38559C6.17204 4.47184 6.54 3.60998 7.20468 2.9643C7.81299 2.37339 8.45263 2.02461 9.30426 1.96984V2.61264C8.95115 2.71064 8.69299 3.02772 8.69299 3.40244V5.25105C8.69299 5.62577 8.95115 5.94284 9.30426 6.04373V7.41774H6.17204V5.38559ZM13.2225 10.6144C13.2225 11.5282 12.8545 12.39 12.1898 13.0357C11.5252 13.6814 10.6379 14.0388 9.69727 14.0388C8.75661 14.0388 7.86937 13.6814 7.20468 13.0357C6.54 12.39 6.17204 11.5282 6.17204 10.6144V7.88182H13.2225V10.6144ZM13.2225 7.41774H10.0903V6.04373C10.4434 5.94284 10.7015 5.62577 10.7015 5.25105V3.40244C10.7015 3.02772 10.4434 2.71064 10.0903 2.60976V1.96984C10.9419 2.02461 11.5815 2.37339 12.1898 2.9643C12.8545 3.60998 13.2225 4.47184 13.2225 5.38559V7.41774Z" fill="#414244"/>
<path d="M12.2037 13.0406C12.8684 12.3949 13.2364 11.5331 13.2364 10.6193V7.88672H6.18591V10.6193C6.18591 11.5331 6.55387 12.3949 7.21855 13.0406C7.88324 13.6863 8.77048 14.0437 9.71114 14.0437C10.6518 14.0437 11.539 13.6863 12.2037 13.0406Z" fill="url(#paint0_linear_4981_396)"/>
<path d="M10.1052 7.4225H13.2374V5.39035C13.2374 4.4766 12.8694 3.61474 12.2047 2.96907C11.5964 2.37816 10.9568 2.02938 10.1052 1.97461V2.61452C10.4583 2.71541 10.7164 3.03248 10.7164 3.4072V5.25581C10.7164 5.63054 10.4583 5.94761 10.1052 6.0485V7.4225Z" fill="url(#paint1_linear_4981_396)"/>
<path d="M9.18188 5.25673C9.18188 5.36914 9.2353 5.47003 9.31838 5.53633C9.38367 5.58821 9.62237 5.61992 9.71139 5.61992C9.80041 5.61992 10.0391 5.58821 10.1044 5.53633C10.1875 5.47003 10.2409 5.36914 10.2409 5.25673V3.40811C10.2409 3.2957 10.1875 3.19481 10.1044 3.12851C10.0391 3.07663 9.80041 3.04492 9.71139 3.04492C9.62237 3.04492 9.38367 3.07663 9.31838 3.12851C9.2353 3.19481 9.18188 3.2957 9.18188 3.40811V5.25673Z" fill="url(#paint2_linear_4981_396)"/>
<path d="M7.21855 2.96907C6.55387 3.61474 6.18591 4.4766 6.18591 5.39035V7.4225H9.31813V6.0485C8.96502 5.94761 8.70686 5.63054 8.70686 5.25581V3.4072C8.70686 3.03248 8.96502 2.71541 9.31813 2.6174V1.97461C8.4665 2.02938 7.82686 2.37816 7.21855 2.96907Z" fill="url(#paint3_linear_4981_396)"/>
<path d="M7.21855 2.96907C6.55387 3.61474 6.18591 4.4766 6.18591 5.39035V7.4225H9.31813V6.0485C8.96502 5.94761 8.70686 5.63054 8.70686 5.25581V3.4072C8.70686 3.03248 8.96502 2.71541 9.31813 2.6174V1.97461C8.4665 2.02938 7.82686 2.37816 7.21855 2.96907Z" fill="url(#paint4_linear_4981_396)"/>
<defs>
<linearGradient id="paint0_linear_4981_396" x1="6.51658" y1="7.91643" x2="10.9954" y2="13.9832" gradientUnits="userSpaceOnUse">
<stop stop-color="#E5E5E5"/>
<stop offset="1" stop-color="#C0C0C0"/>
</linearGradient>
<linearGradient id="paint1_linear_4981_396" x1="11.7184" y1="2.44993" x2="11.7184" y2="9.10441" gradientUnits="userSpaceOnUse">
<stop stop-color="#E5E5E5"/>
<stop offset="1" stop-color="#ADADAD"/>
</linearGradient>
<linearGradient id="paint2_linear_4981_396" x1="9.75721" y1="2.68843" x2="9.91326" y2="5.53179" gradientUnits="userSpaceOnUse">
<stop stop-color="#A3CEFF"/>
<stop offset="1" stop-color="#449BFF"/>
</linearGradient>
<linearGradient id="paint3_linear_4981_396" x1="7.79913" y1="2.44993" x2="7.79913" y2="9.81739" gradientUnits="userSpaceOnUse">
<stop stop-color="#E5E5E5"/>
<stop offset="1" stop-color="#ADADAD"/>
</linearGradient>
<linearGradient id="paint4_linear_4981_396" x1="7.79913" y1="2.44993" x2="7.79913" y2="9.81739" gradientUnits="userSpaceOnUse">
<stop stop-color="#E5E5E5"/>
<stop offset="1" stop-color="#ADADAD"/>
</linearGradient>
</defs>
</svg>
