<svg width="1000" height="1000" viewBox="0 0 1000 1000" fill="none" xmlns="http://www.w3.org/2000/svg">
<path fill-rule="evenodd" clip-rule="evenodd" d="M499.994 0C635.343 0 749.707 90.1189 786.375 213.619C909.873 250.293 1000 364.643 1000 499.994C1000 635.339 909.878 749.701 786.375 786.372C749.708 909.878 635.346 1000 499.994 1000C364.647 1000 250.29 909.875 213.617 786.373C90.1195 749.702 0 635.336 0 499.994C0.000158133 364.645 90.1249 250.294 213.617 213.619C250.291 90.1228 364.649 1.12897e-05 499.994 0Z" fill="black"/>
<path fill-rule="evenodd" clip-rule="evenodd" d="M499.994 66.667C618.271 66.667 715.975 155.322 730.233 269.757C844.673 284.026 933.333 381.722 933.333 499.995C933.333 618.266 844.675 715.973 730.233 730.233C715.975 844.678 618.272 933.334 499.994 933.334C381.725 933.334 284.023 844.677 269.755 730.233C155.323 715.972 66.666 618.265 66.666 499.995C66.6662 381.723 155.324 284.026 269.755 269.757C284.023 155.323 381.725 66.667 499.994 66.667Z" fill="#FEFEFE"/>
<path fill-rule="evenodd" clip-rule="evenodd" d="M285.057 714.931C172.542 707.894 83.334 614.277 83.334 499.994C83.334 385.712 172.542 292.105 285.057 285.057C292.103 172.539 385.716 83.333 499.995 83.333C614.285 83.333 707.898 172.539 714.933 285.057C827.459 292.105 916.667 385.712 916.667 499.994C916.667 614.277 827.459 707.894 714.933 714.931C707.898 827.46 614.285 916.666 499.995 916.666C385.716 916.666 292.103 827.46 285.057 714.931Z" fill="#A59E00"/>
</svg>
