<svg width="1000" height="1000" viewBox="0 0 1000 1000" fill="none" xmlns="http://www.w3.org/2000/svg">
<path fill-rule="evenodd" clip-rule="evenodd" d="M510.023 1000C420.211 1000 343.079 957.107 281.486 897.868C220.13 838.856 169.206 759.225 128.613 672.131C47.4647 498.025 -1.69858e-05 277.628 0 83.3333L7.28524e-06 0L1000 8.74228e-05V83.3334C1000 276.193 958.11 495.994 882.287 670.186C844.39 757.25 796.131 837.296 736.532 896.786C676.464 956.744 600.232 1000 510.023 1000Z" fill="black"/>
<path fill-rule="evenodd" clip-rule="evenodd" d="M510.023 933.333C442.71 933.333 381.273 901.345 327.699 849.819C274.173 798.337 227.488 726.463 189.038 643.968C112.146 478.994 66.666 268.248 66.666 83.3334L66.666 66.6667L933.333 66.6668V83.3335C933.333 267.961 892.977 478.588 821.159 643.579C785.253 726.068 741.106 798.026 689.435 849.602C637.669 901.273 577.415 933.333 510.023 933.333Z" fill="#FEFEFE"/>
<path fill-rule="evenodd" clip-rule="evenodd" d="M916.667 83.3336C916.667 448.472 756.778 916.667 510.024 916.667C263.269 916.667 83.334 448.472 83.334 83.3335L916.667 83.3336Z" fill="#4393FF"/>
</svg>
