<svg width="1000" height="1000" viewBox="0 0 1000 1000" fill="none" xmlns="http://www.w3.org/2000/svg">
<path fill-rule="evenodd" clip-rule="evenodd" d="M499.999 0C776.141 0 1000 223.858 1000 500C1000 776.142 776.141 1000 499.999 1000C223.857 1000 0.000123705 776.142 0 500C0 223.858 223.857 0.000206176 499.999 0Z" fill="black"/>
<path fill-rule="evenodd" clip-rule="evenodd" d="M499.999 66.6666C739.322 66.6666 933.333 260.677 933.333 500C933.333 739.323 739.322 933.333 499.999 933.333C260.675 933.333 66.6661 739.323 66.666 500C66.666 260.677 260.675 66.6668 499.999 66.6666ZM468.064 915.461C468.786 915.516 469.51 915.567 470.233 915.618C469.468 915.565 468.704 915.51 467.94 915.452L468.064 915.461Z" fill="#FEFEFE"/>
<path d="M500 916.667C730.119 916.667 916.667 730.118 916.667 500C916.667 269.881 730.119 83.3334 500 83.3334C269.882 83.3334 83.334 269.881 83.334 500C83.334 730.118 269.882 916.667 500 916.667Z" fill="#4393FF"/>
</svg>
