<svg width="1076" height="1000" viewBox="0 0 1076 1000" fill="none" xmlns="http://www.w3.org/2000/svg">
<path fill-rule="evenodd" clip-rule="evenodd" d="M509.594 130.728C526.592 127.347 543.779 135.911 551.284 151.611L574.541 200.262L574.836 200.892C574.867 200.96 574.896 201.029 574.927 201.097C580.809 201.709 585.62 202.88 588.866 203.849L654.089 216.173C659.425 216.664 666.395 218.213 673.318 222.616C682.051 228.17 687.486 236.175 690.097 244.422C691.314 248.146 691.973 252.115 691.973 256.228V259.257C691.973 261.057 691.842 262.851 691.589 264.626C690.922 269.457 689.522 273.25 688.547 275.486L686.457 280.432C679.799 296.193 663.43 305.561 646.469 303.317L608.935 298.351V371.246C618.027 383.137 631.257 395.429 650.803 406.017L652.447 406.896C686.982 425.089 738.53 436.479 787.261 443.114C789.589 433.234 795.817 424.558 804.736 419.22L853.913 389.791C856.125 387.999 858.375 386.418 860.632 385.026L851.794 358.607C849.94 353.31 849.044 347.74 849.234 342.152C849.051 336.372 850.017 330.74 852.002 325.544C853.412 321.854 855.184 318.774 856.951 316.293C857.834 315.054 858.72 313.956 859.569 312.994C859.995 312.512 860.414 312.062 860.821 311.642C861.025 311.432 861.227 311.23 861.425 311.034C861.524 310.936 861.622 310.839 861.72 310.745C861.769 310.698 861.818 310.652 861.866 310.605C861.89 310.582 861.914 310.559 861.938 310.536C861.95 310.525 861.968 310.508 861.975 310.502C861.993 310.485 861.72 310.745 861.72 310.745L862.011 310.468C867.006 305.747 873.188 302.47 879.897 300.985L892.815 298.126L893.625 297.956C910.623 294.576 927.808 303.14 935.312 318.839L958.568 367.488L958.863 368.119C958.894 368.187 958.924 368.255 958.954 368.323C960.316 368.465 961.598 368.634 962.789 368.818C966.584 369.404 969.779 370.182 972.192 370.875C972.42 370.94 972.642 371.006 972.857 371.07L1038.11 383.398C1043.45 383.89 1050.42 385.44 1057.34 389.844C1066.05 395.38 1071.47 403.348 1074.09 411.554C1075.33 415.305 1076 419.307 1076 423.455V426.483C1076 428.345 1075.86 430.2 1075.59 432.034C1075.16 435.042 1074.48 437.502 1073.9 439.244C1073.51 440.41 1073.12 441.431 1072.76 442.283C1072.73 442.342 1072.71 442.401 1072.68 442.459L1070.48 447.661C1063.82 463.42 1047.46 472.787 1030.5 470.544L992.962 465.578V541.22C992.961 564.767 977.451 580.497 963.706 588.439C963.701 588.442 963.696 588.445 963.69 588.448C949.705 596.52 933.764 599.463 919.894 599.463C906.024 599.463 890.081 596.52 876.096 588.446L876.091 588.443C868.651 584.146 860.745 577.648 855.026 568.815C830.802 571.109 795.555 575.599 758.462 584.212L797.212 704.225L797.396 704.809C797.574 705.395 797.738 705.985 797.889 706.579C803.475 728.655 798.308 747.378 789.238 760.704C785.072 766.825 780.498 771.231 776.864 774.185C775.023 775.683 773.338 776.876 771.937 777.792C771.233 778.252 770.59 778.649 770.023 778.985C769.74 779.153 769.474 779.308 769.228 779.447C769.104 779.517 768.986 779.583 768.872 779.645C768.815 779.677 768.759 779.707 768.705 779.737C768.678 779.752 768.651 779.767 768.625 779.781C768.612 779.788 768.593 779.799 768.586 779.803L768.625 779.781L768.546 779.824C768.116 780.057 767.682 780.281 767.243 780.497L610.484 857.651C599.834 863.856 588.249 868.025 575.963 868.548C562.511 869.12 550.855 865.195 541.731 859.11C525.418 848.229 519.802 832.328 519.065 830.251C518.796 829.493 518.551 828.726 518.331 827.952L515.812 819.104C507.926 817.431 500.14 814.686 492.929 810.653L492.068 810.164C479.994 803.193 466.706 790.431 463.507 771.313C463.286 770.181 463.113 769.037 462.996 767.883L442.929 779.469C421.944 792.184 399.32 786.577 384.548 778.049C369.791 769.529 358.571 756.435 351.126 743.54C351.114 743.518 351.101 743.497 351.089 743.475C341.925 747.376 330.485 750.557 318.16 748.874C299.32 746.301 286.998 733.841 281.595 720.555C277.293 709.978 277.661 700.059 278.004 695.598C278.214 692.865 278.567 690.538 278.876 688.84C279.034 687.973 279.188 687.222 279.323 686.61C279.391 686.303 279.454 686.028 279.512 685.787C279.54 685.666 279.568 685.554 279.594 685.45C279.606 685.398 279.619 685.348 279.631 685.301C279.637 685.277 279.642 685.253 279.647 685.23C279.65 685.219 279.655 685.202 279.656 685.196C279.661 685.181 279.665 685.164 279.665 685.164C279.931 684.114 280.242 683.076 280.597 682.053L311.126 593.991C306.226 588.991 302.105 583.539 298.996 577.531C271.618 572.451 240.086 568.506 203.799 566.216C198.662 580.53 187.578 590.607 177.455 596.456C177.45 596.459 177.446 596.462 177.441 596.465C163.456 604.537 147.515 607.479 133.645 607.479C119.775 607.479 103.833 604.537 89.8477 596.463C77.7539 589.481 64.4575 576.701 61.2744 557.558C60.8181 555.199 60.5811 552.784 60.5811 550.345V504.181C55.6016 505.477 51.2496 505.725 48.3379 505.71C41.8084 505.675 36.8134 504.33 35.0645 503.818C31.2946 502.715 27.7188 501.034 24.4639 498.836L16.7305 493.612C6.26956 486.546 5.78731e-05 474.747 0 462.123V459.845C0 446.481 7.02013 434.099 18.4873 427.237L67.6631 397.808C69.8755 396.016 72.1254 394.436 74.3828 393.044L65.5459 366.625C63.6926 361.329 62.7951 355.758 62.9854 350.169C62.8023 344.389 63.7673 338.759 65.752 333.562C67.1614 329.872 68.9337 326.792 70.7012 324.31C71.5836 323.071 72.4703 321.974 73.3203 321.012C73.746 320.53 74.1647 320.078 74.5723 319.658C74.776 319.448 74.9775 319.245 75.1758 319.05C75.275 318.952 75.374 318.856 75.4717 318.762C75.5205 318.714 75.5688 318.667 75.6172 318.621C75.6414 318.598 75.6663 318.575 75.6904 318.553C75.7024 318.541 75.7205 318.523 75.7266 318.517C75.7458 318.502 75.6904 318.553 75.6904 318.553L75.7627 318.483C80.757 313.764 86.9378 310.487 93.6465 309.002L106.564 306.141L107.373 305.971C124.372 302.59 141.558 311.154 149.063 326.854L172.319 375.506C172.451 375.782 172.579 376.06 172.704 376.339C174.066 376.481 175.348 376.65 176.539 376.834C180.335 377.419 183.53 378.197 185.943 378.89C186.171 378.956 186.393 379.021 186.608 379.086L251.86 391.414C257.204 391.905 264.181 393.457 271.109 397.868C279.815 403.41 285.238 411.385 287.854 419.597C289.085 423.341 289.751 427.334 289.751 431.472V434.499C289.751 434.867 289.743 435.234 289.732 435.601C296.172 434.334 302.703 432.939 309.28 431.4C373.516 416.369 432.441 390.008 462.803 347.516V328.936C457.796 330.239 453.423 330.482 450.508 330.464C443.978 330.422 438.988 329.073 437.256 328.564C433.498 327.462 429.933 325.784 426.688 323.593L418.954 318.37C408.492 311.304 402.222 299.503 402.222 286.879V284.6C402.222 271.237 409.242 258.855 420.709 251.993L469.886 222.563C472.098 220.771 474.348 219.191 476.605 217.799L467.787 191.435C465.928 186.144 465.017 180.556 465.207 174.933C465.023 169.15 465.989 163.516 467.975 158.317C469.384 154.627 471.157 151.548 472.924 149.066C473.806 147.827 474.692 146.73 475.542 145.767C475.968 145.286 476.387 144.835 476.794 144.415C476.998 144.205 477.199 144.002 477.397 143.806C477.497 143.709 477.596 143.613 477.693 143.518C477.742 143.471 477.791 143.425 477.839 143.379C477.863 143.356 477.887 143.332 477.911 143.309C477.923 143.298 477.941 143.281 477.947 143.275C477.965 143.258 477.839 143.379 477.839 143.379L477.983 143.241C482.978 138.522 489.158 135.244 495.867 133.759L508.784 130.898L509.594 130.728ZM690.659 658.285C690.392 659.317 690.117 660.226 689.861 660.995C689.474 662.16 689.078 663.178 688.718 664.03C688.686 664.105 688.652 664.178 688.621 664.251L686.458 669.375C679.801 685.136 663.431 694.505 646.469 692.262L608.935 687.296V754.015L704.631 704.449L690.659 658.285Z" fill="black"/>
<path fill-rule="evenodd" clip-rule="evenodd" d="M545.902 783.2L555.881 818.245C555.881 818.245 564.439 842.488 593.391 824.903L751.463 747.101C751.463 747.101 767.566 738.388 762.051 716.6L711.041 558.609L701.875 561.549L746.401 708.669C746.401 708.669 749.368 726.037 739.199 730.556L589.796 807.941C589.796 807.941 572.281 813.024 564.373 798.197L557.866 779.855L545.902 783.2Z" fill="#FF0000"/>
<path fill-rule="evenodd" clip-rule="evenodd" d="M545.902 783.2L555.881 818.245C555.881 818.245 564.439 842.488 593.391 824.903L751.463 747.101C751.463 747.101 767.566 738.388 762.051 716.6L711.041 558.609L701.875 561.549L746.401 708.669C746.401 708.669 749.368 726.037 739.199 730.556L589.796 807.941C589.796 807.941 572.281 813.024 564.373 798.197L557.866 779.855L545.902 783.2Z" fill="url(#paint0_linear_5315_11883)" fill-opacity="0.2"/>
<path fill-rule="evenodd" clip-rule="evenodd" d="M355.769 581.062L316.403 694.946C316.403 694.946 309.248 721.321 339.127 706.681L438.764 649.155L404.544 654.145L354.657 678.655C354.657 678.655 335.718 684.153 342.131 662.441L366.395 587.23L355.769 581.062Z" fill="#FF0000"/>
<path fill-rule="evenodd" clip-rule="evenodd" d="M355.769 581.062L316.403 694.946C316.403 694.946 309.248 721.321 339.127 706.681L438.764 649.155L404.544 654.145L354.657 678.655C354.657 678.655 335.718 684.153 342.131 662.441L366.395 587.23L355.769 581.062Z" fill="url(#paint1_linear_5315_11883)" fill-opacity="0.2"/>
<path fill-rule="evenodd" clip-rule="evenodd" d="M511.865 733.976L410.207 675.285L410.331 675.073C406.711 671.903 404.543 666.507 404.543 659.26C404.543 642.259 416.502 621.553 431.221 613.055C438.585 608.803 445.252 608.404 450.085 611.19L549.594 668.637C544.761 665.849 538.094 666.247 530.73 670.499C516.001 679.003 504.052 699.707 504.052 716.709C504.052 725.216 507.042 731.182 511.865 733.976Z" fill="#FF0000"/>
<path fill-rule="evenodd" clip-rule="evenodd" d="M511.865 733.976L410.207 675.285L410.331 675.073C406.711 671.903 404.543 666.507 404.543 659.26C404.543 642.259 416.502 621.553 431.221 613.055C438.585 608.803 445.252 608.404 450.085 611.19L549.594 668.637C544.761 665.849 538.094 666.247 530.73 670.499C516.001 679.003 504.052 699.707 504.052 716.709C504.052 725.216 507.042 731.182 511.865 733.976Z" fill="url(#paint2_linear_5315_11883)" fill-opacity="0.4"/>
<path fill-rule="evenodd" clip-rule="evenodd" d="M385.426 679.964L385.422 679.958L495.074 616.65L495.109 616.709C500.166 613.056 507.543 613.171 515.748 617.908C530.978 626.701 543.337 648.114 543.337 665.702C543.337 674.495 540.25 680.679 535.256 683.564L424.055 747.764C429.051 744.881 432.143 738.699 432.143 729.905C432.143 712.318 419.777 690.9 404.546 682.107C397.127 677.824 390.387 677.321 385.426 679.964Z" fill="#FF0000"/>
<path fill-rule="evenodd" clip-rule="evenodd" d="M385.426 679.964L385.422 679.958L495.074 616.65L495.109 616.709C500.166 613.056 507.543 613.171 515.748 617.908C530.978 626.701 543.337 648.114 543.337 665.702C543.337 674.495 540.25 680.679 535.256 683.564L424.055 747.764C429.051 744.881 432.143 738.699 432.143 729.905C432.143 712.318 419.777 690.9 404.546 682.107C397.127 677.824 390.387 677.321 385.426 679.964Z" fill="url(#paint3_linear_5315_11883)" fill-opacity="0.7"/>
<path fill-rule="evenodd" clip-rule="evenodd" d="M694.196 564.172C663.281 611.735 580.043 653.447 580.043 653.447C576.568 655.546 573.028 657.245 569.477 658.603C589.594 612.962 639.645 583.352 694.196 564.172Z" fill="#FF0000"/>
<path fill-rule="evenodd" clip-rule="evenodd" d="M694.196 564.172C663.281 611.735 580.043 653.447 580.043 653.447C576.568 655.546 573.028 657.245 569.477 658.603C589.594 612.962 639.645 583.352 694.196 564.172Z" fill="url(#paint4_linear_5315_11883)" fill-opacity="0.7"/>
<path fill-rule="evenodd" clip-rule="evenodd" d="M332.903 546.258C455.091 574.456 496.196 626.558 510.019 657.856C507.595 657.024 506.238 656.437 506.238 656.437L380.832 594.639C333.226 572.811 332.547 550.565 332.903 546.258Z" fill="#FF0000"/>
<path fill-rule="evenodd" clip-rule="evenodd" d="M332.903 546.258C455.091 574.456 496.196 626.558 510.019 657.856C507.595 657.024 506.238 656.437 506.238 656.437L380.832 594.639C333.226 572.811 332.547 550.565 332.903 546.258Z" fill="url(#paint5_linear_5315_11883)" fill-opacity="0.7"/>
<path d="M561.664 276.47C575.36 268.563 575.359 255.743 561.664 247.835C547.968 239.928 525.763 239.928 512.067 247.835C498.372 255.742 498.372 268.562 512.068 276.47C525.764 284.377 547.969 284.377 561.664 276.47Z" fill="#FF0000"/>
<path d="M561.664 276.47C575.36 268.563 575.359 255.743 561.664 247.835C547.968 239.928 525.763 239.928 512.067 247.835C498.372 255.742 498.372 268.562 512.068 276.47C525.764 284.377 547.969 284.377 561.664 276.47Z" fill="url(#paint6_linear_5315_11883)" fill-opacity="0.2"/>
<path fill-rule="evenodd" clip-rule="evenodd" d="M571.937 262.152V374.693C571.937 379.876 568.507 385.06 561.668 389.01C547.98 396.912 525.756 396.912 512.07 389.01C505.715 385.341 502.31 380.609 501.857 375.802L501.805 375.803V262.152C501.805 267.335 505.226 272.519 512.07 276.469C525.756 284.372 547.98 284.372 561.668 276.469C568.507 272.519 571.937 267.335 571.937 262.152Z" fill="#FF0000"/>
<path fill-rule="evenodd" clip-rule="evenodd" d="M571.937 262.152V374.693C571.937 379.876 568.507 385.06 561.668 389.01C547.98 396.912 525.756 396.912 512.07 389.01C505.715 385.341 502.31 380.609 501.857 375.802L501.805 375.803V262.152C501.805 267.335 505.226 272.519 512.07 276.469C525.756 284.372 547.98 284.372 561.668 276.469C568.507 272.519 571.937 267.335 571.937 262.152Z" fill="url(#paint7_linear_5315_11883)" fill-opacity="0.7"/>
<path fill-rule="evenodd" clip-rule="evenodd" d="M538.397 228.999L538.367 226.145C538.367 226.145 540.841 224.692 541.337 220.809C541.99 226.542 538.748 228.775 538.397 228.999Z" fill="#00FF00"/>
<path fill-rule="evenodd" clip-rule="evenodd" d="M538.397 228.999L538.367 226.145C538.367 226.145 540.841 224.692 541.337 220.809C541.99 226.542 538.748 228.775 538.397 228.999Z" fill="url(#paint8_linear_5315_11883)" fill-opacity="0.7"/>
<path fill-rule="evenodd" clip-rule="evenodd" d="M504.37 175.754C504.449 176.09 504.556 176.449 504.697 176.829L520.261 223.351C520.261 223.351 524.266 227.31 526.757 228.434L532.862 234.42V237.292L526.757 231.307C524.266 230.182 520.261 226.224 520.261 226.224L504.697 179.701C504.035 177.92 504.116 176.618 504.37 175.754Z" fill="#00FF00"/>
<path fill-rule="evenodd" clip-rule="evenodd" d="M504.37 175.754C504.449 176.09 504.556 176.449 504.697 176.829L520.261 223.351C520.261 223.351 524.266 227.31 526.757 228.434L532.862 234.42V237.292L526.757 231.307C524.266 230.182 520.261 226.224 520.261 226.224L504.697 179.701C504.035 177.92 504.116 176.618 504.37 175.754Z" fill="url(#paint9_linear_5315_11883)" fill-opacity="0.7"/>
<path fill-rule="evenodd" clip-rule="evenodd" d="M520.261 223.352C520.261 223.352 524.266 227.31 526.757 228.435L532.862 234.42L538.446 233.657L538.365 226.145C538.365 226.145 542.261 223.856 541.257 217.349L518.001 168.699L505.083 171.559C505.083 171.559 503.348 173.198 504.697 176.829L520.261 223.352Z" fill="#00FF00"/>
<path fill-rule="evenodd" clip-rule="evenodd" d="M520.261 223.352C520.261 223.352 524.266 227.31 526.757 228.435L532.862 234.42L538.446 233.657L538.365 226.145C538.365 226.145 542.261 223.856 541.257 217.349L518.001 168.699L505.083 171.559C505.083 171.559 503.348 173.198 504.697 176.829L520.261 223.352Z" fill="url(#paint10_linear_5315_11883)" fill-opacity="0.2"/>
<path fill-rule="evenodd" clip-rule="evenodd" d="M518.425 261.068C518.517 259.191 534.576 197.045 555.303 261.068C556.395 276.565 517.654 276.797 518.425 261.068Z" fill="#00FF00"/>
<path fill-rule="evenodd" clip-rule="evenodd" d="M518.425 261.068C518.517 259.191 534.576 197.045 555.303 261.068C556.395 276.565 517.654 276.797 518.425 261.068Z" fill="url(#paint11_linear_5315_11883)" fill-opacity="0.2"/>
<path fill-rule="evenodd" clip-rule="evenodd" d="M555.172 246.665V249.147L544.047 246.231V243.75L555.172 246.665Z" fill="#00FF00"/>
<path fill-rule="evenodd" clip-rule="evenodd" d="M555.172 246.665V249.147L544.047 246.231V243.75L555.172 246.665Z" fill="url(#paint12_linear_5315_11883)" fill-opacity="0.7"/>
<path fill-rule="evenodd" clip-rule="evenodd" d="M570.206 252.983V255.463C562.425 255.229 555.172 249.146 555.172 249.146V246.664C555.172 246.664 562.425 252.748 570.206 252.983Z" fill="#00FF00"/>
<path fill-rule="evenodd" clip-rule="evenodd" d="M570.206 252.983V255.463C562.425 255.229 555.172 249.146 555.172 249.146V246.664C555.172 246.664 562.425 252.748 570.206 252.983Z" fill="url(#paint13_linear_5315_11883)" fill-opacity="0.7"/>
<path fill-rule="evenodd" clip-rule="evenodd" d="M652.455 263.865V266.345L570.207 255.465V252.984L652.455 263.865Z" fill="#00FF00"/>
<path fill-rule="evenodd" clip-rule="evenodd" d="M652.455 263.865V266.345L570.207 255.465V252.984L652.455 263.865Z" fill="url(#paint14_linear_5315_11883)" fill-opacity="0.7"/>
<path fill-rule="evenodd" clip-rule="evenodd" d="M654.951 256.926L654.974 256.928V259.956L654.965 259.98C654.915 260.601 654.679 261.076 654.679 261.076L652.453 266.345V263.864L654.679 258.596C654.679 258.596 655.073 257.8 654.951 256.926Z" fill="#00FF00"/>
<path fill-rule="evenodd" clip-rule="evenodd" d="M654.951 256.926L654.974 256.928V259.956L654.965 259.98C654.915 260.601 654.679 261.076 654.679 261.076L652.453 266.345V263.864L654.679 258.596C654.679 258.596 655.073 257.8 654.951 256.926Z" fill="url(#paint15_linear_5315_11883)" fill-opacity="0.7"/>
<path fill-rule="evenodd" clip-rule="evenodd" d="M544.047 243.749L555.172 246.664C555.172 246.664 562.425 252.748 570.206 252.983L652.454 263.863L654.68 258.595C654.68 258.595 656.645 254.618 650.439 254.665L580.424 241.436C580.424 241.436 570.39 237.506 558.897 240.5L545.381 239.64L544.047 243.749Z" fill="#00FF00"/>
<path fill-rule="evenodd" clip-rule="evenodd" d="M544.047 243.749L555.172 246.664C555.172 246.664 562.425 252.748 570.206 252.983L652.454 263.863L654.68 258.595C654.68 258.595 656.645 254.618 650.439 254.665L580.424 241.436C580.424 241.436 570.39 237.506 558.897 240.5L545.381 239.64L544.047 243.749Z" fill="url(#paint16_linear_5315_11883)" fill-opacity="0.2"/>
<path fill-rule="evenodd" clip-rule="evenodd" d="M541.617 243.862L543.655 240.634L545.317 240.535L544.047 243.748L541.617 243.862Z" fill="#FF0000"/>
<path fill-rule="evenodd" clip-rule="evenodd" d="M541.617 243.862L543.655 240.634L545.317 240.535L544.047 243.748L541.617 243.862Z" fill="url(#paint17_linear_5315_11883)" fill-opacity="0.2"/>
<path fill-rule="evenodd" clip-rule="evenodd" d="M541.617 243.864L541.882 244.523L544.047 245.267V243.75L541.617 243.864Z" fill="#FF0000"/>
<path fill-rule="evenodd" clip-rule="evenodd" d="M541.617 243.864L541.882 244.523L544.047 245.267V243.75L541.617 243.864Z" fill="url(#paint18_linear_5315_11883)" fill-opacity="0.4"/>
<path fill-rule="evenodd" clip-rule="evenodd" d="M531.046 244.867L532.741 243.887L530.578 241.98L529.281 242.907L531.046 244.867Z" fill="#FF0000"/>
<path fill-rule="evenodd" clip-rule="evenodd" d="M531.046 244.867L532.741 243.887L530.578 241.98L529.281 242.907L531.046 244.867Z" fill="url(#paint19_linear_5315_11883)" fill-opacity="0.2"/>
<path fill-rule="evenodd" clip-rule="evenodd" d="M532.738 243.887V245.147L531.008 247.116V244.898L532.738 243.887Z" fill="#FF0000"/>
<path fill-rule="evenodd" clip-rule="evenodd" d="M532.738 243.887V245.147L531.008 247.116V244.898L532.738 243.887Z" fill="url(#paint20_linear_5315_11883)" fill-opacity="0.4"/>
<path fill-rule="evenodd" clip-rule="evenodd" d="M531.047 244.867V247.146L524.852 252.904V250.626L531.047 244.867Z" fill="#00FF00"/>
<path fill-rule="evenodd" clip-rule="evenodd" d="M531.047 244.867V247.146L524.852 252.904V250.626L531.047 244.867Z" fill="url(#paint21_linear_5315_11883)" fill-opacity="0.7"/>
<path fill-rule="evenodd" clip-rule="evenodd" d="M524.849 250.625V252.904C522.535 259.458 515.44 262.441 515.44 262.441L456.887 291.493V289.214L515.44 260.162C515.44 260.162 522.535 257.18 524.849 250.625Z" fill="#00FF00"/>
<path fill-rule="evenodd" clip-rule="evenodd" d="M524.849 250.625V252.904C522.535 259.458 515.44 262.441 515.44 262.441L456.887 291.493V289.214L515.44 260.162C515.44 260.162 522.535 257.18 524.849 250.625Z" fill="url(#paint22_linear_5315_11883)" fill-opacity="0.7"/>
<path fill-rule="evenodd" clip-rule="evenodd" d="M448.955 290.519V292.798L441.223 287.576V285.297L448.955 290.519Z" fill="#00FF00"/>
<path fill-rule="evenodd" clip-rule="evenodd" d="M448.955 290.519V292.798L441.223 287.576V285.297L448.955 290.519Z" fill="url(#paint23_linear_5315_11883)" fill-opacity="0.7"/>
<path fill-rule="evenodd" clip-rule="evenodd" d="M456.889 289.215V291.493C453.726 294.204 448.957 292.799 448.957 292.799V290.521C448.957 290.521 453.726 291.927 456.889 289.215Z" fill="#00FF00"/>
<path fill-rule="evenodd" clip-rule="evenodd" d="M456.889 289.215V291.493C453.726 294.204 448.957 292.799 448.957 292.799V290.521C448.957 290.521 453.726 291.927 456.889 289.215Z" fill="url(#paint24_linear_5315_11883)" fill-opacity="0.7"/>
<path fill-rule="evenodd" clip-rule="evenodd" d="M529.256 242.879L517.02 246.35C517.02 246.35 503.054 244.826 493.213 254.184L441.223 285.297L448.955 290.519C448.955 290.519 453.724 291.924 456.888 289.213L515.441 260.161C515.441 260.161 522.536 257.178 524.85 250.624L531.045 244.865L529.256 242.879Z" fill="#00FF00"/>
<path fill-rule="evenodd" clip-rule="evenodd" d="M529.256 242.879L517.02 246.35C517.02 246.35 503.054 244.826 493.213 254.184L441.223 285.297L448.955 290.519C448.955 290.519 453.724 291.924 456.888 289.213L515.441 260.161C515.441 260.161 522.536 257.178 524.85 250.624L531.045 244.865L529.256 242.879Z" fill="url(#paint25_linear_5315_11883)" fill-opacity="0.2"/>
<path fill-rule="evenodd" clip-rule="evenodd" d="M887.353 489.965V518.158L886.923 529.259C886.923 529.259 587.511 538.602 561.879 683.616V655.423C587.511 510.408 886.923 501.065 886.923 501.065L887.353 489.965Z" fill="#FF0000"/>
<path fill-rule="evenodd" clip-rule="evenodd" d="M887.353 489.965V518.158L886.923 529.259C886.923 529.259 587.511 538.602 561.879 683.616V655.423C587.511 510.408 886.923 501.065 886.923 501.065L887.353 489.965Z" fill="url(#paint26_linear_5315_11883)" fill-opacity="0.7"/>
<path fill-rule="evenodd" clip-rule="evenodd" d="M517.019 655.422V683.616C517.019 683.616 514.242 536.905 167.269 527.189L166.777 514.854L167.269 514.86V498.996C514.242 508.712 517.019 655.422 517.019 655.422Z" fill="#FF0000"/>
<path fill-rule="evenodd" clip-rule="evenodd" d="M517.019 655.422V683.616C517.019 683.616 514.242 536.905 167.269 527.189L166.777 514.854L167.269 514.86V498.996C514.242 508.712 517.019 655.422 517.019 655.422Z" fill="url(#paint27_linear_5315_11883)" fill-opacity="0.7"/>
<path fill-rule="evenodd" clip-rule="evenodd" d="M166.777 486.661C166.777 486.661 482.176 491.383 520.502 311.848C520.502 311.848 533.228 297.02 550.322 311.848C550.322 311.848 546.352 392.805 633.704 440.128C721.056 487.45 887.356 489.964 887.356 489.964L886.925 501.065C886.925 501.065 587.513 510.408 561.881 655.422H517.019C517.019 655.422 514.242 508.712 167.269 498.996L166.777 486.661Z" fill="#FF0000"/>
<path fill-rule="evenodd" clip-rule="evenodd" d="M166.777 486.661C166.777 486.661 482.176 491.383 520.502 311.848C520.502 311.848 533.228 297.02 550.322 311.848C550.322 311.848 546.352 392.805 633.704 440.128C721.056 487.45 887.356 489.964 887.356 489.964L886.925 501.065C886.925 501.065 587.513 510.408 561.881 655.422H517.019C517.019 655.422 514.242 508.712 167.269 498.996L166.777 486.661Z" fill="url(#paint28_linear_5315_11883)" fill-opacity="0.2"/>
<path d="M159.441 451.712C173.137 443.805 173.137 430.985 159.441 423.078C145.745 415.17 123.54 415.17 109.845 423.077C96.1493 430.985 96.1495 443.805 109.845 451.712C123.541 459.619 145.746 459.619 159.441 451.712Z" fill="#FF0000"/>
<path d="M159.441 451.712C173.137 443.805 173.137 430.985 159.441 423.078C145.745 415.17 123.54 415.17 109.845 423.077C96.1493 430.985 96.1495 443.805 109.845 451.712C123.541 459.619 145.746 459.619 159.441 451.712Z" fill="url(#paint29_linear_5315_11883)" fill-opacity="0.2"/>
<path fill-rule="evenodd" clip-rule="evenodd" d="M169.714 437.395V549.935C169.714 555.118 166.284 560.302 159.446 564.252C145.757 572.154 123.533 572.154 109.847 564.252C103.492 560.583 100.087 555.851 99.6339 551.044L99.582 551.045V437.395C99.582 442.577 103.003 447.761 109.847 451.712C123.533 459.614 145.757 459.614 159.446 451.712C166.284 447.761 169.714 442.577 169.714 437.395Z" fill="#FF0000"/>
<path fill-rule="evenodd" clip-rule="evenodd" d="M169.714 437.395V549.935C169.714 555.118 166.284 560.302 159.446 564.252C145.757 572.154 123.533 572.154 109.847 564.252C103.492 560.583 100.087 555.851 99.6339 551.044L99.582 551.045V437.395C99.582 442.577 103.003 447.761 109.847 451.712C123.533 459.614 145.757 459.614 159.446 451.712C166.284 447.761 169.714 442.577 169.714 437.395Z" fill="url(#paint30_linear_5315_11883)" fill-opacity="0.7"/>
<path fill-rule="evenodd" clip-rule="evenodd" d="M136.17 404.241L136.141 401.387C136.141 401.387 138.614 399.934 139.111 396.051C139.764 401.784 136.521 404.017 136.17 404.241Z" fill="#00FF00"/>
<path fill-rule="evenodd" clip-rule="evenodd" d="M136.17 404.241L136.141 401.387C136.141 401.387 138.614 399.934 139.111 396.051C139.764 401.784 136.521 404.017 136.17 404.241Z" fill="url(#paint31_linear_5315_11883)" fill-opacity="0.7"/>
<path fill-rule="evenodd" clip-rule="evenodd" d="M102.147 350.996C102.226 351.332 102.333 351.691 102.474 352.071L118.038 398.593C118.038 398.593 122.044 402.553 124.534 403.676L130.639 409.662V412.534L124.534 406.55C122.044 405.425 118.038 401.466 118.038 401.466L102.474 354.943C101.813 353.162 101.893 351.86 102.147 350.996Z" fill="#00FF00"/>
<path fill-rule="evenodd" clip-rule="evenodd" d="M102.147 350.996C102.226 351.332 102.333 351.691 102.474 352.071L118.038 398.593C118.038 398.593 122.044 402.553 124.534 403.676L130.639 409.662V412.534L124.534 406.55C122.044 405.425 118.038 401.466 118.038 401.466L102.474 354.943C101.813 353.162 101.893 351.86 102.147 350.996Z" fill="url(#paint32_linear_5315_11883)" fill-opacity="0.7"/>
<path fill-rule="evenodd" clip-rule="evenodd" d="M118.038 398.594C118.038 398.594 122.044 402.552 124.534 403.677L130.639 409.662L136.223 408.9L136.143 401.388C136.143 401.388 140.038 399.098 139.034 392.592L115.778 343.941L102.86 346.801C102.86 346.801 101.126 348.44 102.474 352.071L118.038 398.594Z" fill="#00FF00"/>
<path fill-rule="evenodd" clip-rule="evenodd" d="M118.038 398.594C118.038 398.594 122.044 402.552 124.534 403.677L130.639 409.662L136.223 408.9L136.143 401.388C136.143 401.388 140.038 399.098 139.034 392.592L115.778 343.941L102.86 346.801C102.86 346.801 101.126 348.44 102.474 352.071L118.038 398.594Z" fill="url(#paint33_linear_5315_11883)" fill-opacity="0.2"/>
<path fill-rule="evenodd" clip-rule="evenodd" d="M116.203 436.31C116.294 434.433 132.353 372.287 153.08 436.31C154.172 451.807 115.432 452.039 116.203 436.31Z" fill="#00FF00"/>
<path fill-rule="evenodd" clip-rule="evenodd" d="M116.203 436.31C116.294 434.433 132.353 372.287 153.08 436.31C154.172 451.807 115.432 452.039 116.203 436.31Z" fill="url(#paint34_linear_5315_11883)" fill-opacity="0.2"/>
<path fill-rule="evenodd" clip-rule="evenodd" d="M152.949 421.907V424.389L141.824 421.473V418.992L152.949 421.907Z" fill="#00FF00"/>
<path fill-rule="evenodd" clip-rule="evenodd" d="M152.949 421.907V424.389L141.824 421.473V418.992L152.949 421.907Z" fill="url(#paint35_linear_5315_11883)" fill-opacity="0.7"/>
<path fill-rule="evenodd" clip-rule="evenodd" d="M167.983 428.225V430.705C160.202 430.472 152.949 424.388 152.949 424.388V421.906C152.949 421.906 160.202 427.99 167.983 428.225Z" fill="#00FF00"/>
<path fill-rule="evenodd" clip-rule="evenodd" d="M167.983 428.225V430.705C160.202 430.472 152.949 424.388 152.949 424.388V421.906C152.949 421.906 160.202 427.99 167.983 428.225Z" fill="url(#paint36_linear_5315_11883)" fill-opacity="0.7"/>
<path fill-rule="evenodd" clip-rule="evenodd" d="M250.232 439.107V441.587L167.984 430.707V428.227L250.232 439.107Z" fill="#00FF00"/>
<path fill-rule="evenodd" clip-rule="evenodd" d="M250.232 439.107V441.587L167.984 430.707V428.227L250.232 439.107Z" fill="url(#paint37_linear_5315_11883)" fill-opacity="0.7"/>
<path fill-rule="evenodd" clip-rule="evenodd" d="M252.729 432.168L252.752 432.17V435.198L252.742 435.222C252.692 435.843 252.456 436.318 252.456 436.318L250.23 441.587V439.107L252.456 433.838C252.456 433.838 252.85 433.043 252.729 432.168Z" fill="#00FF00"/>
<path fill-rule="evenodd" clip-rule="evenodd" d="M252.729 432.168L252.752 432.17V435.198L252.742 435.222C252.692 435.843 252.456 436.318 252.456 436.318L250.23 441.587V439.107L252.456 433.838C252.456 433.838 252.85 433.043 252.729 432.168Z" fill="url(#paint38_linear_5315_11883)" fill-opacity="0.7"/>
<path fill-rule="evenodd" clip-rule="evenodd" d="M141.824 418.991L152.949 421.906C152.949 421.906 160.202 427.99 167.984 428.225L250.231 439.106L252.457 433.837C252.457 433.837 254.422 429.86 248.216 429.907L178.201 416.679C178.201 416.679 168.168 412.748 156.674 415.742L143.159 414.882L141.824 418.991Z" fill="#00FF00"/>
<path fill-rule="evenodd" clip-rule="evenodd" d="M141.824 418.991L152.949 421.906C152.949 421.906 160.202 427.99 167.984 428.225L250.231 439.106L252.457 433.837C252.457 433.837 254.422 429.86 248.216 429.907L178.201 416.679C178.201 416.679 168.168 412.748 156.674 415.742L143.159 414.882L141.824 418.991Z" fill="url(#paint39_linear_5315_11883)" fill-opacity="0.2"/>
<path fill-rule="evenodd" clip-rule="evenodd" d="M139.395 419.104L141.433 415.877L143.095 415.777L141.824 418.99L139.395 419.104Z" fill="#FF0000"/>
<path fill-rule="evenodd" clip-rule="evenodd" d="M139.395 419.104L141.433 415.877L143.095 415.777L141.824 418.99L139.395 419.104Z" fill="url(#paint40_linear_5315_11883)" fill-opacity="0.2"/>
<path fill-rule="evenodd" clip-rule="evenodd" d="M139.395 419.106L139.659 419.765L141.824 420.509V418.992L139.395 419.106Z" fill="#FF0000"/>
<path fill-rule="evenodd" clip-rule="evenodd" d="M139.395 419.106L139.659 419.765L141.824 420.509V418.992L139.395 419.106Z" fill="url(#paint41_linear_5315_11883)" fill-opacity="0.4"/>
<path fill-rule="evenodd" clip-rule="evenodd" d="M128.823 420.113L130.519 419.134L128.356 417.227L127.059 418.153L128.823 420.113Z" fill="#FF0000"/>
<path fill-rule="evenodd" clip-rule="evenodd" d="M128.823 420.113L130.519 419.134L128.356 417.227L127.059 418.153L128.823 420.113Z" fill="url(#paint42_linear_5315_11883)" fill-opacity="0.2"/>
<path fill-rule="evenodd" clip-rule="evenodd" d="M130.52 419.133V420.393L128.789 422.362V420.144L130.52 419.133Z" fill="#FF0000"/>
<path fill-rule="evenodd" clip-rule="evenodd" d="M130.52 419.133V420.393L128.789 422.362V420.144L130.52 419.133Z" fill="url(#paint43_linear_5315_11883)" fill-opacity="0.4"/>
<path fill-rule="evenodd" clip-rule="evenodd" d="M128.824 420.113V422.392L122.629 428.15V425.872L128.824 420.113Z" fill="#00FF00"/>
<path fill-rule="evenodd" clip-rule="evenodd" d="M128.824 420.113V422.392L122.629 428.15V425.872L128.824 420.113Z" fill="url(#paint44_linear_5315_11883)" fill-opacity="0.7"/>
<path fill-rule="evenodd" clip-rule="evenodd" d="M122.627 425.871V428.15C120.313 434.704 113.217 437.687 113.217 437.687L54.6641 466.739V464.46L113.217 435.408C113.217 435.408 120.313 432.426 122.627 425.871Z" fill="#00FF00"/>
<path fill-rule="evenodd" clip-rule="evenodd" d="M122.627 425.871V428.15C120.313 434.704 113.217 437.687 113.217 437.687L54.6641 466.739V464.46L113.217 435.408C113.217 435.408 120.313 432.426 122.627 425.871Z" fill="url(#paint45_linear_5315_11883)" fill-opacity="0.7"/>
<path fill-rule="evenodd" clip-rule="evenodd" d="M46.7326 465.765V468.044L39 462.822V460.543L46.7326 465.765Z" fill="#00FF00"/>
<path fill-rule="evenodd" clip-rule="evenodd" d="M46.7326 465.765V468.044L39 462.822V460.543L46.7326 465.765Z" fill="url(#paint46_linear_5315_11883)" fill-opacity="0.7"/>
<path fill-rule="evenodd" clip-rule="evenodd" d="M54.6628 464.461V466.74C51.4996 469.451 46.7305 468.045 46.7305 468.045V465.767C46.7305 465.767 51.4996 467.173 54.6628 464.461Z" fill="#00FF00"/>
<path fill-rule="evenodd" clip-rule="evenodd" d="M54.6628 464.461V466.74C51.4996 469.451 46.7305 468.045 46.7305 468.045V465.767C46.7305 465.767 51.4996 467.173 54.6628 464.461Z" fill="url(#paint47_linear_5315_11883)" fill-opacity="0.7"/>
<path fill-rule="evenodd" clip-rule="evenodd" d="M127.034 418.125L114.798 421.596C114.798 421.596 100.831 420.072 90.9899 429.43L39 460.543L46.7326 465.765C46.7326 465.765 51.5017 467.17 54.6649 464.459L113.218 435.407C113.218 435.407 120.313 432.425 122.627 425.87L128.823 420.111L127.034 418.125Z" fill="#00FF00"/>
<path fill-rule="evenodd" clip-rule="evenodd" d="M127.034 418.125L114.798 421.596C114.798 421.596 100.831 420.072 90.9899 429.43L39 460.543L46.7326 465.765C46.7326 465.765 51.5017 467.17 54.6649 464.459L113.218 435.407C113.218 435.407 120.313 432.425 122.627 425.87L128.823 420.111L127.034 418.125Z" fill="url(#paint48_linear_5315_11883)" fill-opacity="0.2"/>
<path d="M945.691 443.692C959.387 435.785 959.387 422.965 945.691 415.058C931.995 407.151 909.79 407.151 896.095 415.058C882.399 422.965 882.399 435.785 896.095 443.692C909.791 451.6 931.996 451.6 945.691 443.692Z" fill="#FF0000"/>
<path d="M945.691 443.692C959.387 435.785 959.387 422.965 945.691 415.058C931.995 407.151 909.79 407.151 896.095 415.058C882.399 422.965 882.399 435.785 896.095 443.692C909.791 451.6 931.996 451.6 945.691 443.692Z" fill="url(#paint49_linear_5315_11883)" fill-opacity="0.2"/>
<path fill-rule="evenodd" clip-rule="evenodd" d="M955.964 429.379V541.92C955.964 547.102 952.534 552.286 945.696 556.237C932.007 564.138 909.783 564.138 896.097 556.237C889.742 552.567 886.337 547.836 885.884 543.028L885.832 543.029V429.379C885.832 434.562 889.253 439.745 896.097 443.696C909.783 451.599 932.007 451.599 945.696 443.696C952.534 439.745 955.964 434.562 955.964 429.379Z" fill="#FF0000"/>
<path fill-rule="evenodd" clip-rule="evenodd" d="M955.964 429.379V541.92C955.964 547.102 952.534 552.286 945.696 556.237C932.007 564.138 909.783 564.138 896.097 556.237C889.742 552.567 886.337 547.836 885.884 543.028L885.832 543.029V429.379C885.832 434.562 889.253 439.745 896.097 443.696C909.783 451.599 932.007 451.599 945.696 443.696C952.534 439.745 955.964 434.562 955.964 429.379Z" fill="url(#paint50_linear_5315_11883)" fill-opacity="0.7"/>
<path fill-rule="evenodd" clip-rule="evenodd" d="M922.42 396.226L922.391 393.371C922.391 393.371 924.864 391.919 925.361 388.035C926.014 393.768 922.771 396.002 922.42 396.226Z" fill="#00FF00"/>
<path fill-rule="evenodd" clip-rule="evenodd" d="M922.42 396.226L922.391 393.371C922.391 393.371 924.864 391.919 925.361 388.035C926.014 393.768 922.771 396.002 922.42 396.226Z" fill="url(#paint51_linear_5315_11883)" fill-opacity="0.7"/>
<path fill-rule="evenodd" clip-rule="evenodd" d="M888.397 342.98C888.476 343.317 888.583 343.675 888.724 344.056L904.288 390.577C904.288 390.577 908.294 394.537 910.784 395.661L916.889 401.646V404.518L910.784 398.534C908.294 397.409 904.288 393.451 904.288 393.451L888.724 346.928C888.063 345.147 888.143 343.844 888.397 342.98Z" fill="#00FF00"/>
<path fill-rule="evenodd" clip-rule="evenodd" d="M888.397 342.98C888.476 343.317 888.583 343.675 888.724 344.056L904.288 390.577C904.288 390.577 908.294 394.537 910.784 395.661L916.889 401.646V404.518L910.784 398.534C908.294 397.409 904.288 393.451 904.288 393.451L888.724 346.928C888.063 345.147 888.143 343.844 888.397 342.98Z" fill="url(#paint52_linear_5315_11883)" fill-opacity="0.7"/>
<path fill-rule="evenodd" clip-rule="evenodd" d="M904.288 390.578C904.288 390.578 908.294 394.537 910.784 395.662L916.889 401.646L922.473 400.884L922.393 393.372C922.393 393.372 926.288 391.082 925.284 384.576L902.028 335.926L889.11 338.786C889.11 338.786 887.376 340.425 888.724 344.055L904.288 390.578Z" fill="#00FF00"/>
<path fill-rule="evenodd" clip-rule="evenodd" d="M904.288 390.578C904.288 390.578 908.294 394.537 910.784 395.662L916.889 401.646L922.473 400.884L922.393 393.372C922.393 393.372 926.288 391.082 925.284 384.576L902.028 335.926L889.11 338.786C889.11 338.786 887.376 340.425 888.724 344.055L904.288 390.578Z" fill="url(#paint53_linear_5315_11883)" fill-opacity="0.2"/>
<path fill-rule="evenodd" clip-rule="evenodd" d="M902.453 428.294C902.544 426.417 918.603 364.271 939.33 428.294C940.422 443.792 901.682 444.023 902.453 428.294Z" fill="#00FF00"/>
<path fill-rule="evenodd" clip-rule="evenodd" d="M902.453 428.294C902.544 426.417 918.603 364.271 939.33 428.294C940.422 443.792 901.682 444.023 902.453 428.294Z" fill="url(#paint54_linear_5315_11883)" fill-opacity="0.2"/>
<path fill-rule="evenodd" clip-rule="evenodd" d="M939.199 413.892V416.373L928.074 413.457V410.977L939.199 413.892Z" fill="#00FF00"/>
<path fill-rule="evenodd" clip-rule="evenodd" d="M939.199 413.892V416.373L928.074 413.457V410.977L939.199 413.892Z" fill="url(#paint55_linear_5315_11883)" fill-opacity="0.7"/>
<path fill-rule="evenodd" clip-rule="evenodd" d="M954.233 420.209V422.69C946.452 422.456 939.199 416.372 939.199 416.372V413.891C939.199 413.891 946.452 419.974 954.233 420.209Z" fill="#00FF00"/>
<path fill-rule="evenodd" clip-rule="evenodd" d="M954.233 420.209V422.69C946.452 422.456 939.199 416.372 939.199 416.372V413.891C939.199 413.891 946.452 419.974 954.233 420.209Z" fill="url(#paint56_linear_5315_11883)" fill-opacity="0.7"/>
<path fill-rule="evenodd" clip-rule="evenodd" d="M1036.48 431.091V433.572L954.234 422.691V420.211L1036.48 431.091Z" fill="#00FF00"/>
<path fill-rule="evenodd" clip-rule="evenodd" d="M1036.48 431.091V433.572L954.234 422.691V420.211L1036.48 431.091Z" fill="url(#paint57_linear_5315_11883)" fill-opacity="0.7"/>
<path fill-rule="evenodd" clip-rule="evenodd" d="M1038.98 424.152L1039 424.155V427.182L1038.99 427.206C1038.94 427.827 1038.71 428.303 1038.71 428.303L1036.48 433.571V431.091L1038.71 425.822C1038.71 425.822 1039.1 425.027 1038.98 424.152Z" fill="#00FF00"/>
<path fill-rule="evenodd" clip-rule="evenodd" d="M1038.98 424.152L1039 424.155V427.182L1038.99 427.206C1038.94 427.827 1038.71 428.303 1038.71 428.303L1036.48 433.571V431.091L1038.71 425.822C1038.71 425.822 1039.1 425.027 1038.98 424.152Z" fill="url(#paint58_linear_5315_11883)" fill-opacity="0.7"/>
<path fill-rule="evenodd" clip-rule="evenodd" d="M928.074 410.976L939.199 413.891C939.199 413.891 946.452 419.975 954.234 420.21L1036.48 431.09L1038.71 425.821C1038.71 425.821 1040.67 421.844 1034.47 421.892L964.451 408.663C964.451 408.663 954.418 404.732 942.924 407.727L929.409 406.866L928.074 410.976Z" fill="#00FF00"/>
<path fill-rule="evenodd" clip-rule="evenodd" d="M928.074 410.976L939.199 413.891C939.199 413.891 946.452 419.975 954.234 420.21L1036.48 431.09L1038.71 425.821C1038.71 425.821 1040.67 421.844 1034.47 421.892L964.451 408.663C964.451 408.663 954.418 404.732 942.924 407.727L929.409 406.866L928.074 410.976Z" fill="url(#paint59_linear_5315_11883)" fill-opacity="0.2"/>
<path fill-rule="evenodd" clip-rule="evenodd" d="M925.645 411.088L927.683 407.861L929.345 407.762L928.074 410.975L925.645 411.088Z" fill="#FF0000"/>
<path fill-rule="evenodd" clip-rule="evenodd" d="M925.645 411.088L927.683 407.861L929.345 407.762L928.074 410.975L925.645 411.088Z" fill="url(#paint60_linear_5315_11883)" fill-opacity="0.2"/>
<path fill-rule="evenodd" clip-rule="evenodd" d="M925.645 411.09L925.909 411.75L928.074 412.493V410.977L925.645 411.09Z" fill="#FF0000"/>
<path fill-rule="evenodd" clip-rule="evenodd" d="M925.645 411.09L925.909 411.75L928.074 412.493V410.977L925.645 411.09Z" fill="url(#paint61_linear_5315_11883)" fill-opacity="0.4"/>
<path fill-rule="evenodd" clip-rule="evenodd" d="M915.073 412.097L916.769 411.118L914.606 409.211L913.309 410.137L915.073 412.097Z" fill="#FF0000"/>
<path fill-rule="evenodd" clip-rule="evenodd" d="M915.073 412.097L916.769 411.118L914.606 409.211L913.309 410.137L915.073 412.097Z" fill="url(#paint62_linear_5315_11883)" fill-opacity="0.2"/>
<path fill-rule="evenodd" clip-rule="evenodd" d="M916.77 411.117V412.378L915.039 414.347V412.129L916.77 411.117Z" fill="#FF0000"/>
<path fill-rule="evenodd" clip-rule="evenodd" d="M916.77 411.117V412.378L915.039 414.347V412.129L916.77 411.117Z" fill="url(#paint63_linear_5315_11883)" fill-opacity="0.4"/>
<path fill-rule="evenodd" clip-rule="evenodd" d="M915.074 412.098V414.376L908.879 420.135V417.856L915.074 412.098Z" fill="#00FF00"/>
<path fill-rule="evenodd" clip-rule="evenodd" d="M915.074 412.098V414.376L908.879 420.135V417.856L915.074 412.098Z" fill="url(#paint64_linear_5315_11883)" fill-opacity="0.7"/>
<path fill-rule="evenodd" clip-rule="evenodd" d="M908.877 417.855V420.134C906.563 426.689 899.467 429.671 899.467 429.671L840.914 458.723V456.445L899.467 427.392C899.467 427.392 906.563 424.41 908.877 417.855Z" fill="#00FF00"/>
<path fill-rule="evenodd" clip-rule="evenodd" d="M908.877 417.855V420.134C906.563 426.689 899.467 429.671 899.467 429.671L840.914 458.723V456.445L899.467 427.392C899.467 427.392 906.563 424.41 908.877 417.855Z" fill="url(#paint65_linear_5315_11883)" fill-opacity="0.7"/>
<path fill-rule="evenodd" clip-rule="evenodd" d="M832.983 457.75V460.028L825.25 454.806V452.527L832.983 457.75Z" fill="#00FF00"/>
<path fill-rule="evenodd" clip-rule="evenodd" d="M832.983 457.75V460.028L825.25 454.806V452.527L832.983 457.75Z" fill="url(#paint66_linear_5315_11883)" fill-opacity="0.7"/>
<path fill-rule="evenodd" clip-rule="evenodd" d="M840.917 456.445V458.724C837.753 461.435 832.984 460.03 832.984 460.03V457.751C832.984 457.751 837.753 459.157 840.917 456.445Z" fill="#00FF00"/>
<path fill-rule="evenodd" clip-rule="evenodd" d="M840.917 456.445V458.724C837.753 461.435 832.984 460.03 832.984 460.03V457.751C832.984 457.751 837.753 459.157 840.917 456.445Z" fill="url(#paint67_linear_5315_11883)" fill-opacity="0.7"/>
<path fill-rule="evenodd" clip-rule="evenodd" d="M913.284 410.109L901.048 413.58C901.048 413.58 887.081 412.056 877.24 421.414L825.25 452.527L832.983 457.749C832.983 457.749 837.752 459.154 840.915 456.443L899.468 427.391C899.468 427.391 906.563 424.409 908.877 417.854L915.073 412.096L913.284 410.109Z" fill="#00FF00"/>
<path fill-rule="evenodd" clip-rule="evenodd" d="M913.284 410.109L901.048 413.58C901.048 413.58 887.081 412.056 877.24 421.414L825.25 452.527L832.983 457.749C832.983 457.749 837.752 459.154 840.915 456.443L899.468 427.391C899.468 427.391 906.563 424.409 908.877 417.854L915.073 412.096L913.284 410.109Z" fill="url(#paint68_linear_5315_11883)" fill-opacity="0.2"/>
<path d="M561.664 665.415C575.36 657.508 575.359 644.688 561.664 636.781C547.968 628.873 525.763 628.873 512.067 636.781C498.372 644.688 498.372 657.508 512.068 665.415C525.764 673.322 547.969 673.322 561.664 665.415Z" fill="#FF0000"/>
<path d="M561.664 665.415C575.36 657.508 575.359 644.688 561.664 636.781C547.968 628.873 525.763 628.873 512.067 636.781C498.372 644.688 498.372 657.508 512.068 665.415C525.764 673.322 547.969 673.322 561.664 665.415Z" fill="url(#paint69_linear_5315_11883)" fill-opacity="0.2"/>
<path fill-rule="evenodd" clip-rule="evenodd" d="M571.937 651.098V763.638C571.937 768.821 568.507 774.005 561.668 777.956C547.98 785.857 525.756 785.857 512.07 777.956C505.715 774.286 502.31 769.555 501.857 764.747L501.805 764.748V651.098C501.805 656.28 505.226 661.464 512.07 665.415C525.756 673.317 547.98 673.317 561.668 665.415C568.507 661.464 571.937 656.28 571.937 651.098Z" fill="#FF0000"/>
<path fill-rule="evenodd" clip-rule="evenodd" d="M571.937 651.098V763.638C571.937 768.821 568.507 774.005 561.668 777.956C547.98 785.857 525.756 785.857 512.07 777.956C505.715 774.286 502.31 769.555 501.857 764.747L501.805 764.748V651.098C501.805 656.28 505.226 661.464 512.07 665.415C525.756 673.317 547.98 673.317 561.668 665.415C568.507 661.464 571.937 656.28 571.937 651.098Z" fill="url(#paint70_linear_5315_11883)" fill-opacity="0.7"/>
<path fill-rule="evenodd" clip-rule="evenodd" d="M538.397 617.944L538.367 615.09C538.367 615.09 540.841 613.637 541.337 609.754C541.99 615.487 538.748 617.72 538.397 617.944Z" fill="#00FF00"/>
<path fill-rule="evenodd" clip-rule="evenodd" d="M538.397 617.944L538.367 615.09C538.367 615.09 540.841 613.637 541.337 609.754C541.99 615.487 538.748 617.72 538.397 617.944Z" fill="url(#paint71_linear_5315_11883)" fill-opacity="0.7"/>
<path fill-rule="evenodd" clip-rule="evenodd" d="M504.37 564.699C504.449 565.036 504.556 565.394 504.697 565.775L520.261 612.296C520.261 612.296 524.266 616.256 526.757 617.38L532.862 623.365V626.237L526.757 620.253C524.266 619.128 520.261 615.169 520.261 615.169L504.697 568.647C504.035 566.865 504.116 565.563 504.37 564.699Z" fill="#00FF00"/>
<path fill-rule="evenodd" clip-rule="evenodd" d="M504.37 564.699C504.449 565.036 504.556 565.394 504.697 565.775L520.261 612.296C520.261 612.296 524.266 616.256 526.757 617.38L532.862 623.365V626.237L526.757 620.253C524.266 619.128 520.261 615.169 520.261 615.169L504.697 568.647C504.035 566.865 504.116 565.563 504.37 564.699Z" fill="url(#paint72_linear_5315_11883)" fill-opacity="0.7"/>
<path fill-rule="evenodd" clip-rule="evenodd" d="M520.261 612.297C520.261 612.297 524.266 616.255 526.757 617.38L532.862 623.365L538.446 622.603L538.365 615.091C538.365 615.091 542.261 612.801 541.257 606.295L518.001 557.645L505.083 560.504C505.083 560.504 503.348 562.143 504.697 565.774L520.261 612.297Z" fill="#00FF00"/>
<path fill-rule="evenodd" clip-rule="evenodd" d="M520.261 612.297C520.261 612.297 524.266 616.255 526.757 617.38L532.862 623.365L538.446 622.603L538.365 615.091C538.365 615.091 542.261 612.801 541.257 606.295L518.001 557.645L505.083 560.504C505.083 560.504 503.348 562.143 504.697 565.774L520.261 612.297Z" fill="url(#paint73_linear_5315_11883)" fill-opacity="0.2"/>
<path fill-rule="evenodd" clip-rule="evenodd" d="M518.425 650.013C518.517 648.136 534.576 585.99 555.303 650.013C556.395 665.51 517.654 665.742 518.425 650.013Z" fill="#00FF00"/>
<path fill-rule="evenodd" clip-rule="evenodd" d="M518.425 650.013C518.517 648.136 534.576 585.99 555.303 650.013C556.395 665.51 517.654 665.742 518.425 650.013Z" fill="url(#paint74_linear_5315_11883)" fill-opacity="0.2"/>
<path fill-rule="evenodd" clip-rule="evenodd" d="M555.172 635.61V638.092L544.047 635.176V632.695L555.172 635.61Z" fill="#00FF00"/>
<path fill-rule="evenodd" clip-rule="evenodd" d="M555.172 635.61V638.092L544.047 635.176V632.695L555.172 635.61Z" fill="url(#paint75_linear_5315_11883)" fill-opacity="0.7"/>
<path fill-rule="evenodd" clip-rule="evenodd" d="M570.206 641.928V644.409C562.425 644.175 555.172 638.091 555.172 638.091V635.609C555.172 635.609 562.425 641.693 570.206 641.928Z" fill="#00FF00"/>
<path fill-rule="evenodd" clip-rule="evenodd" d="M570.206 641.928V644.409C562.425 644.175 555.172 638.091 555.172 638.091V635.609C555.172 635.609 562.425 641.693 570.206 641.928Z" fill="url(#paint76_linear_5315_11883)" fill-opacity="0.7"/>
<path fill-rule="evenodd" clip-rule="evenodd" d="M652.455 652.81V655.291L570.207 644.41V641.93L652.455 652.81Z" fill="#00FF00"/>
<path fill-rule="evenodd" clip-rule="evenodd" d="M652.455 652.81V655.291L570.207 644.41V641.93L652.455 652.81Z" fill="url(#paint77_linear_5315_11883)" fill-opacity="0.7"/>
<path fill-rule="evenodd" clip-rule="evenodd" d="M654.951 645.871L654.974 645.873V648.901L654.965 648.925C654.915 649.546 654.679 650.021 654.679 650.021L652.453 655.29V652.81L654.679 647.541C654.679 647.541 655.073 646.746 654.951 645.871Z" fill="#00FF00"/>
<path fill-rule="evenodd" clip-rule="evenodd" d="M654.951 645.871L654.974 645.873V648.901L654.965 648.925C654.915 649.546 654.679 650.021 654.679 650.021L652.453 655.29V652.81L654.679 647.541C654.679 647.541 655.073 646.746 654.951 645.871Z" fill="url(#paint78_linear_5315_11883)" fill-opacity="0.7"/>
<path fill-rule="evenodd" clip-rule="evenodd" d="M544.047 632.695L555.172 635.61C555.172 635.61 562.425 641.693 570.206 641.928L652.454 652.809L654.68 647.54C654.68 647.54 656.645 643.563 650.439 643.61L580.424 630.382C580.424 630.382 570.39 626.451 558.897 629.445L545.381 628.585L544.047 632.695Z" fill="#00FF00"/>
<path fill-rule="evenodd" clip-rule="evenodd" d="M544.047 632.695L555.172 635.61C555.172 635.61 562.425 641.693 570.206 641.928L652.454 652.809L654.68 647.54C654.68 647.54 656.645 643.563 650.439 643.61L580.424 630.382C580.424 630.382 570.39 626.451 558.897 629.445L545.381 628.585L544.047 632.695Z" fill="url(#paint79_linear_5315_11883)" fill-opacity="0.2"/>
<path fill-rule="evenodd" clip-rule="evenodd" d="M541.617 632.807L543.655 629.58L545.317 629.48L544.047 632.693L541.617 632.807Z" fill="#FF0000"/>
<path fill-rule="evenodd" clip-rule="evenodd" d="M541.617 632.807L543.655 629.58L545.317 629.48L544.047 632.693L541.617 632.807Z" fill="url(#paint80_linear_5315_11883)" fill-opacity="0.2"/>
<path fill-rule="evenodd" clip-rule="evenodd" d="M541.617 632.805L541.882 633.465L544.047 634.208V632.691L541.617 632.805Z" fill="#FF0000"/>
<path fill-rule="evenodd" clip-rule="evenodd" d="M541.617 632.805L541.882 633.465L544.047 634.208V632.691L541.617 632.805Z" fill="url(#paint81_linear_5315_11883)" fill-opacity="0.4"/>
<path fill-rule="evenodd" clip-rule="evenodd" d="M531.046 633.816L532.741 632.837L530.578 630.93L529.281 631.856L531.046 633.816Z" fill="#FF0000"/>
<path fill-rule="evenodd" clip-rule="evenodd" d="M531.046 633.816L532.741 632.837L530.578 630.93L529.281 631.856L531.046 633.816Z" fill="url(#paint82_linear_5315_11883)" fill-opacity="0.2"/>
<path fill-rule="evenodd" clip-rule="evenodd" d="M532.738 632.836V634.097L531.008 636.065V633.847L532.738 632.836Z" fill="#FF0000"/>
<path fill-rule="evenodd" clip-rule="evenodd" d="M532.738 632.836V634.097L531.008 636.065V633.847L532.738 632.836Z" fill="url(#paint83_linear_5315_11883)" fill-opacity="0.4"/>
<path fill-rule="evenodd" clip-rule="evenodd" d="M531.047 633.816V636.095L524.852 641.853V639.575L531.047 633.816Z" fill="#00FF00"/>
<path fill-rule="evenodd" clip-rule="evenodd" d="M531.047 633.816V636.095L524.852 641.853V639.575L531.047 633.816Z" fill="url(#paint84_linear_5315_11883)" fill-opacity="0.7"/>
<path fill-rule="evenodd" clip-rule="evenodd" d="M524.849 639.574V641.853C522.535 648.408 515.44 651.39 515.44 651.39L456.887 680.442V678.164L515.44 649.111C515.44 649.111 522.535 646.129 524.849 639.574Z" fill="#00FF00"/>
<path fill-rule="evenodd" clip-rule="evenodd" d="M524.849 639.574V641.853C522.535 648.408 515.44 651.39 515.44 651.39L456.887 680.442V678.164L515.44 649.111C515.44 649.111 522.535 646.129 524.849 639.574Z" fill="url(#paint85_linear_5315_11883)" fill-opacity="0.7"/>
<path fill-rule="evenodd" clip-rule="evenodd" d="M448.955 679.469V681.747L441.223 676.525V674.246L448.955 679.469Z" fill="#00FF00"/>
<path fill-rule="evenodd" clip-rule="evenodd" d="M448.955 679.469V681.747L441.223 676.525V674.246L448.955 679.469Z" fill="url(#paint86_linear_5315_11883)" fill-opacity="0.7"/>
<path fill-rule="evenodd" clip-rule="evenodd" d="M456.889 678.164V680.443C453.726 683.154 448.957 681.749 448.957 681.749V679.47C448.957 679.47 453.726 680.876 456.889 678.164Z" fill="#00FF00"/>
<path fill-rule="evenodd" clip-rule="evenodd" d="M456.889 678.164V680.443C453.726 683.154 448.957 681.749 448.957 681.749V679.47C448.957 679.47 453.726 680.876 456.889 678.164Z" fill="url(#paint87_linear_5315_11883)" fill-opacity="0.7"/>
<path fill-rule="evenodd" clip-rule="evenodd" d="M529.256 631.828L517.02 635.299C517.02 635.299 503.054 633.775 493.213 643.133L441.223 674.246L448.955 679.468C448.955 679.468 453.724 680.873 456.888 678.162L515.441 649.11C515.441 649.11 522.536 646.128 524.85 639.573L531.045 633.815L529.256 631.828Z" fill="#00FF00"/>
<path fill-rule="evenodd" clip-rule="evenodd" d="M529.256 631.828L517.02 635.299C517.02 635.299 503.054 633.775 493.213 643.133L441.223 674.246L448.955 679.468C448.955 679.468 453.724 680.873 456.888 678.162L515.441 649.11C515.441 649.11 522.536 646.128 524.85 639.573L531.045 633.815L529.256 631.828Z" fill="url(#paint88_linear_5315_11883)" fill-opacity="0.2"/>
<path d="M404.55 745.84C419.791 754.639 432.147 747.506 432.147 729.907C432.147 712.308 419.791 690.908 404.55 682.109C389.309 673.309 376.953 680.442 376.953 698.041C376.953 715.64 389.309 737.04 404.55 745.84Z" fill="#FF0000"/>
<path d="M404.55 745.84C419.791 754.639 432.147 747.506 432.147 729.907C432.147 712.308 419.791 690.908 404.55 682.109C389.309 673.309 376.953 680.442 376.953 698.041C376.953 715.64 389.309 737.04 404.55 745.84Z" fill="url(#paint89_linear_5315_11883)" fill-opacity="0.7"/>
<path d="M404.549 737.797C415.945 744.377 425.183 739.043 425.183 725.884C425.183 712.725 415.945 696.724 404.549 690.144C393.153 683.564 383.914 688.898 383.914 702.057C383.914 715.216 393.153 731.217 404.549 737.797Z" fill="#FF0000"/>
<path d="M404.549 737.797C415.945 744.377 425.183 739.043 425.183 725.884C425.183 712.725 415.945 696.724 404.549 690.144C393.153 683.564 383.914 688.898 383.914 702.057C383.914 715.216 393.153 731.217 404.549 737.797Z" fill="url(#paint90_linear_5315_11883)" fill-opacity="0.2"/>
<path d="M404.547 725.85C410.229 729.13 414.836 726.471 414.836 719.909C414.836 713.348 410.229 705.369 404.547 702.089C398.864 698.808 394.258 701.467 394.258 708.029C394.258 714.59 398.864 722.569 404.547 725.85Z" fill="#00FF00"/>
<path d="M404.547 725.85C410.229 729.13 414.836 726.471 414.836 719.909C414.836 713.348 410.229 705.369 404.547 702.089C398.864 698.808 394.258 701.467 394.258 708.029C394.258 714.59 398.864 722.569 404.547 725.85Z" fill="url(#paint91_linear_5315_11883)" fill-opacity="0.6"/>
<path opacity="0.2" fill-rule="evenodd" clip-rule="evenodd" d="M540.257 216.65C540.461 217.972 540.462 219.119 540.335 220.109C540.988 225.842 537.745 228.077 537.395 228.301L537.433 231.849C539.819 232.652 542.363 234.857 545.034 238.982L557.896 239.802C569.364 236.814 579.38 240.722 579.422 240.738L649.438 253.967C652.869 253.941 653.802 255.145 653.95 256.227L653.973 256.229V259.257L653.964 259.28C653.915 259.893 653.684 260.365 653.678 260.377L651.452 265.646L569.204 254.766C569.126 254.763 569.049 254.76 568.971 254.757C570.281 256.92 570.935 259.185 570.935 261.451V373.992C570.935 376.108 570.364 378.223 569.222 380.255C581.43 400.763 601.083 422.301 632.702 439.43C715.158 484.1 867.961 488.842 884.83 489.234V435.737L839.914 458.023C836.766 460.722 832.027 459.342 831.982 459.329L824.249 454.107V451.828L876.239 420.716C883.874 413.456 893.993 412.745 898.146 412.791C901.118 411.431 904.385 410.389 907.807 409.666C909.436 406.459 911.343 403.499 913.487 401.467L909.784 397.836C907.293 396.711 903.287 392.752 903.287 392.752L887.724 346.23C887.062 344.448 887.143 343.146 887.396 342.282C886.719 339.401 888.11 338.087 888.11 338.087L901.028 335.228L924.284 383.877C924.488 385.199 924.489 386.347 924.362 387.337C925.015 393.07 921.773 395.303 921.422 395.527L921.461 399.076C923.847 399.879 926.39 402.084 929.061 406.21L941.922 407.028C953.415 404.034 963.449 407.966 963.449 407.966L1033.46 421.193C1036.89 421.167 1037.83 422.371 1037.98 423.453L1038 423.455V426.483L1037.99 426.508C1037.94 427.129 1037.71 427.604 1037.71 427.604L1035.48 432.872L953.231 421.992C953.153 421.99 953.076 421.987 952.998 421.983C954.308 424.147 954.962 426.414 954.962 428.68V541.22C954.962 546.403 951.532 551.586 944.694 555.537C931.005 563.438 908.781 563.438 895.095 555.537C888.74 551.867 885.335 547.136 884.882 542.328L884.83 542.329V528.6C874.338 529.02 790.174 533.081 710.039 557.911C706.977 558.86 703.92 559.84 700.874 560.851C698.307 561.702 695.747 562.576 693.197 563.473C674.505 592.231 636.684 618.849 609.7 635.403L649.438 642.911C652.868 642.884 653.801 644.088 653.95 645.17L653.973 645.173V648.2L653.964 648.225C653.914 648.845 653.678 649.32 653.678 649.32L651.452 654.59L590.64 646.545C583.479 650.524 579.065 652.738 579.044 652.748C576.372 654.362 573.661 655.74 570.935 656.907V762.938C570.935 768.12 567.505 773.305 560.666 777.255C559.461 777.951 558.19 778.584 556.864 779.157L563.372 797.498C571.28 812.326 588.794 807.243 588.794 807.243L738.197 729.858C748.339 725.351 745.415 708.063 745.399 707.971L700.874 560.851C703.92 559.84 706.977 558.86 710.039 557.911L762.5 716C768.014 737.789 752 747.5 752 747.5L592 826C563.116 843.544 554.919 817.659 554.879 817.547L544.901 782.502C533.212 784.292 520.227 782.543 511.068 777.255C504.714 773.586 501.309 768.854 500.855 764.047L500.803 764.048V727.466L478.903 714.821L423.517 746.798C418.491 749.978 411.403 749.674 403.548 745.14C388.307 736.341 375.952 714.941 375.952 697.342C375.952 688.68 375.642 685.939 380.5 683L339.5 707C309.621 721.64 316.5 694.5 316.5 694.5L356 580.567V580.5C333 565 331.686 550.296 332 546.5C288.624 536.489 234.932 528.548 168.713 526.562V549.236C168.713 554.418 165.282 559.603 158.444 563.554C144.756 571.455 122.532 571.455 108.846 563.554C102.49 559.885 99.086 555.153 98.6318 550.345L98.5811 550.346V443.754L53.665 466.04C50.5188 468.736 45.7864 467.362 45.7334 467.347L38 462.123V459.845L89.9902 428.732C97.6239 421.474 107.74 420.763 111.895 420.809C114.867 419.449 118.135 418.406 121.559 417.683C123.188 414.476 125.095 411.515 127.238 409.483L123.535 405.853C121.052 404.731 117.064 400.795 117.038 400.77L101.475 354.246C100.813 352.465 100.895 351.163 101.147 350.3C100.47 347.418 101.861 346.104 101.861 346.104L114.779 343.243L138.035 391.895C138.239 393.216 138.24 394.364 138.113 395.354C138.766 401.086 135.524 403.319 135.173 403.543L135.212 407.093C137.597 407.896 140.141 410.102 142.811 414.227L155.673 415.045C167.166 412.05 177.2 415.981 177.2 415.981L247.215 429.21C250.647 429.183 251.58 430.389 251.728 431.471L251.751 431.473V434.499L251.741 434.524C251.693 435.138 251.462 435.608 251.456 435.62L249.23 440.89L166.982 430.009C166.904 430.007 166.827 430.003 166.749 429.999C168.058 432.163 168.713 434.429 168.713 436.695V485.974C197.354 485.913 427.31 481.563 500.803 358.809V268.511L455.887 290.795C452.733 293.498 447.984 292.11 447.955 292.102L440.222 286.879V284.601L492.212 253.488C499.848 246.227 509.967 245.517 514.119 245.564C517.092 244.204 520.358 243.162 523.781 242.438C525.409 239.232 527.316 236.271 529.46 234.239L525.756 230.609C523.266 229.484 519.26 225.525 519.26 225.525L503.697 179.002C503.035 177.221 503.115 175.92 503.369 175.056C502.692 172.175 504.083 170.86 504.083 170.86L517 168L540.257 216.65ZM343 662C336.587 683.712 353.658 677.957 353.658 677.957L404 654H404.5C406.272 640.377 414.065 624.876 424.819 616.107L379.832 593.938C374.44 591.467 370.755 589.956 366.5 587.5L343 662Z" fill="black"/>
<defs>
<linearGradient id="paint0_linear_5315_11883" x1="665.501" y1="792.499" x2="705.001" y2="562.999" gradientUnits="userSpaceOnUse">
<stop stop-color="#020202" stop-opacity="0.1"/>
<stop offset="1" stop-color="#020202" stop-opacity="0.2"/>
</linearGradient>
<linearGradient id="paint1_linear_5315_11883" x1="328.499" y1="710.999" x2="398.157" y2="579.124" gradientUnits="userSpaceOnUse">
<stop stop-color="#020202" stop-opacity="0.1"/>
<stop offset="1" stop-color="#020202" stop-opacity="0.2"/>
</linearGradient>
<linearGradient id="paint2_linear_5315_11883" x1="411.998" y1="660.502" x2="471.998" y2="629.502" gradientUnits="userSpaceOnUse">
<stop stop-color="#020202" stop-opacity="0.5"/>
<stop offset="1" stop-color="#020202" stop-opacity="0.4"/>
</linearGradient>
<linearGradient id="paint3_linear_5315_11883" x1="489" y1="647.501" x2="420.5" y2="689.001" gradientUnits="userSpaceOnUse">
<stop stop-color="#020202" stop-opacity="0.7"/>
<stop offset="1" stop-color="#020202" stop-opacity="0.6"/>
</linearGradient>
<linearGradient id="paint4_linear_5315_11883" x1="613.999" y1="597.501" x2="624.999" y2="628.501" gradientUnits="userSpaceOnUse">
<stop stop-color="#020202" stop-opacity="0.7"/>
<stop offset="1" stop-color="#020202" stop-opacity="0.6"/>
</linearGradient>
<linearGradient id="paint5_linear_5315_11883" x1="414" y1="576.002" x2="402.782" y2="606.701" gradientUnits="userSpaceOnUse">
<stop stop-color="#020202" stop-opacity="0.7"/>
<stop offset="1" stop-color="#020202" stop-opacity="0.6"/>
</linearGradient>
<linearGradient id="paint6_linear_5315_11883" x1="512.947" y1="248.348" x2="535.255" y2="286.987" gradientUnits="userSpaceOnUse">
<stop stop-color="#020202" stop-opacity="0"/>
<stop offset="1" stop-color="#020202" stop-opacity="0.1"/>
</linearGradient>
<linearGradient id="paint7_linear_5315_11883" x1="553.475" y1="383.275" x2="521.475" y2="283.775" gradientUnits="userSpaceOnUse">
<stop stop-color="#020202" stop-opacity="0.5"/>
<stop offset="1" stop-color="#020202" stop-opacity="0.4"/>
</linearGradient>
<linearGradient id="paint8_linear_5315_11883" x1="541.457" y1="219.109" x2="537.485" y2="235.612" gradientUnits="userSpaceOnUse">
<stop stop-color="#020202" stop-opacity="0.6"/>
<stop offset="1" stop-color="#020202" stop-opacity="0.7"/>
</linearGradient>
<linearGradient id="paint9_linear_5315_11883" x1="504.173" y1="176.631" x2="532.238" y2="176.896" gradientUnits="userSpaceOnUse">
<stop stop-color="#020202" stop-opacity="0.6"/>
<stop offset="1" stop-color="#020202" stop-opacity="0.7"/>
</linearGradient>
<linearGradient id="paint10_linear_5315_11883" x1="506.802" y1="172.542" x2="534.427" y2="229.806" gradientUnits="userSpaceOnUse">
<stop stop-color="#020202" stop-opacity="0"/>
<stop offset="1" stop-color="#020202" stop-opacity="0.1"/>
</linearGradient>
<linearGradient id="paint11_linear_5315_11883" x1="536.867" y1="232.915" x2="536.867" y2="269.425" gradientUnits="userSpaceOnUse">
<stop stop-color="#020202" stop-opacity="0"/>
<stop offset="1" stop-color="#020202" stop-opacity="0.1"/>
</linearGradient>
<linearGradient id="paint12_linear_5315_11883" x1="544.043" y1="243.827" x2="554.903" y2="249.059" gradientUnits="userSpaceOnUse">
<stop stop-color="#020202" stop-opacity="0.6"/>
<stop offset="1" stop-color="#020202" stop-opacity="0.7"/>
</linearGradient>
<linearGradient id="paint13_linear_5315_11883" x1="555.166" y1="246.79" x2="569.585" y2="255.354" gradientUnits="userSpaceOnUse">
<stop stop-color="#020202" stop-opacity="0.6"/>
<stop offset="1" stop-color="#020202" stop-opacity="0.7"/>
</linearGradient>
<linearGradient id="paint14_linear_5315_11883" x1="570.175" y1="253.175" x2="649.055" y2="266.18" gradientUnits="userSpaceOnUse">
<stop stop-color="#020202" stop-opacity="0.7"/>
<stop offset="1" stop-color="#020202" stop-opacity="0.6"/>
</linearGradient>
<linearGradient id="paint15_linear_5315_11883" x1="652.388" y1="265.867" x2="655.138" y2="258.838" gradientUnits="userSpaceOnUse">
<stop stop-color="#020202" stop-opacity="0.8"/>
<stop offset="1" stop-color="#020202" stop-opacity="0.7"/>
</linearGradient>
<linearGradient id="paint16_linear_5315_11883" x1="551.847" y1="240.807" x2="650.249" y2="263.727" gradientUnits="userSpaceOnUse">
<stop stop-color="#020202" stop-opacity="0"/>
<stop offset="1" stop-color="#020202" stop-opacity="0.1"/>
</linearGradient>
<linearGradient id="paint17_linear_5315_11883" x1="543.963" y1="242.022" x2="542.893" y2="242.022" gradientUnits="userSpaceOnUse">
<stop stop-color="#020202" stop-opacity="0"/>
<stop offset="1" stop-color="#020202" stop-opacity="0.1"/>
</linearGradient>
<linearGradient id="paint18_linear_5315_11883" x1="543.975" y1="244.273" x2="541.763" y2="244.169" gradientUnits="userSpaceOnUse">
<stop stop-color="#020202" stop-opacity="0.4"/>
<stop offset="1" stop-color="#020202" stop-opacity="0.3"/>
</linearGradient>
<linearGradient id="paint19_linear_5315_11883" x1="531.475" y1="243.271" x2="530.475" y2="243.271" gradientUnits="userSpaceOnUse">
<stop stop-color="#020202" stop-opacity="0"/>
<stop offset="1" stop-color="#020202" stop-opacity="0.1"/>
</linearGradient>
<linearGradient id="paint20_linear_5315_11883" x1="532.687" y1="245.001" x2="531.108" y2="244.976" gradientUnits="userSpaceOnUse">
<stop stop-color="#020202" stop-opacity="0.4"/>
<stop offset="1" stop-color="#020202" stop-opacity="0.3"/>
</linearGradient>
<linearGradient id="paint21_linear_5315_11883" x1="525.261" y1="251.807" x2="530.456" y2="246.612" gradientUnits="userSpaceOnUse">
<stop stop-color="#020202" stop-opacity="0.6"/>
<stop offset="1" stop-color="#020202" stop-opacity="0.7"/>
</linearGradient>
<linearGradient id="paint22_linear_5315_11883" x1="456.861" y1="251.208" x2="523.302" y2="253.44" gradientUnits="userSpaceOnUse">
<stop stop-color="#020202" stop-opacity="0.6"/>
<stop offset="1" stop-color="#020202" stop-opacity="0.7"/>
</linearGradient>
<linearGradient id="paint23_linear_5315_11883" x1="441.22" y1="285.404" x2="448.784" y2="285.561" gradientUnits="userSpaceOnUse">
<stop stop-color="#020202" stop-opacity="0.6"/>
<stop offset="1" stop-color="#020202" stop-opacity="0.7"/>
</linearGradient>
<linearGradient id="paint24_linear_5315_11883" x1="457.421" y1="290.509" x2="449.17" y2="292.037" gradientUnits="userSpaceOnUse">
<stop stop-color="#020202" stop-opacity="0.6"/>
<stop offset="1" stop-color="#020202" stop-opacity="0.7"/>
</linearGradient>
<linearGradient id="paint25_linear_5315_11883" x1="451.61" y1="284.504" x2="526.481" y2="246.304" gradientUnits="userSpaceOnUse">
<stop stop-color="#020202" stop-opacity="0"/>
<stop offset="1" stop-color="#020202" stop-opacity="0.1"/>
</linearGradient>
<linearGradient id="paint26_linear_5315_11883" x1="880.832" y1="641.014" x2="551.071" y2="544.27" gradientUnits="userSpaceOnUse">
<stop stop-color="#020202" stop-opacity="0.5"/>
<stop offset="1" stop-color="#020202" stop-opacity="0.4"/>
</linearGradient>
<linearGradient id="paint27_linear_5315_11883" x1="510.002" y1="643" x2="162.69" y2="527.99" gradientUnits="userSpaceOnUse">
<stop stop-color="#020202" stop-opacity="0.5"/>
<stop offset="1" stop-color="#020202" stop-opacity="0.4"/>
</linearGradient>
<linearGradient id="paint28_linear_5315_11883" x1="527.002" y1="311.5" x2="527.002" y2="626.5" gradientUnits="userSpaceOnUse">
<stop stop-color="#020202" stop-opacity="0"/>
<stop offset="1" stop-color="#020202" stop-opacity="0.1"/>
</linearGradient>
<linearGradient id="paint29_linear_5315_11883" x1="110.725" y1="423.59" x2="133.033" y2="462.229" gradientUnits="userSpaceOnUse">
<stop stop-color="#020202" stop-opacity="0"/>
<stop offset="1" stop-color="#020202" stop-opacity="0.1"/>
</linearGradient>
<linearGradient id="paint30_linear_5315_11883" x1="151.252" y1="558.517" x2="119.252" y2="459.017" gradientUnits="userSpaceOnUse">
<stop stop-color="#020202" stop-opacity="0.5"/>
<stop offset="1" stop-color="#020202" stop-opacity="0.4"/>
</linearGradient>
<linearGradient id="paint31_linear_5315_11883" x1="139.231" y1="394.351" x2="135.258" y2="410.854" gradientUnits="userSpaceOnUse">
<stop stop-color="#020202" stop-opacity="0.6"/>
<stop offset="1" stop-color="#020202" stop-opacity="0.7"/>
</linearGradient>
<linearGradient id="paint32_linear_5315_11883" x1="101.95" y1="351.874" x2="130.015" y2="352.138" gradientUnits="userSpaceOnUse">
<stop stop-color="#020202" stop-opacity="0.6"/>
<stop offset="1" stop-color="#020202" stop-opacity="0.7"/>
</linearGradient>
<linearGradient id="paint33_linear_5315_11883" x1="104.58" y1="347.784" x2="132.204" y2="405.048" gradientUnits="userSpaceOnUse">
<stop stop-color="#020202" stop-opacity="0"/>
<stop offset="1" stop-color="#020202" stop-opacity="0.1"/>
</linearGradient>
<linearGradient id="paint34_linear_5315_11883" x1="134.644" y1="408.157" x2="134.644" y2="444.668" gradientUnits="userSpaceOnUse">
<stop stop-color="#020202" stop-opacity="0"/>
<stop offset="1" stop-color="#020202" stop-opacity="0.1"/>
</linearGradient>
<linearGradient id="paint35_linear_5315_11883" x1="141.82" y1="419.069" x2="152.681" y2="424.301" gradientUnits="userSpaceOnUse">
<stop stop-color="#020202" stop-opacity="0.6"/>
<stop offset="1" stop-color="#020202" stop-opacity="0.7"/>
</linearGradient>
<linearGradient id="paint36_linear_5315_11883" x1="152.943" y1="422.032" x2="167.362" y2="430.596" gradientUnits="userSpaceOnUse">
<stop stop-color="#020202" stop-opacity="0.6"/>
<stop offset="1" stop-color="#020202" stop-opacity="0.7"/>
</linearGradient>
<linearGradient id="paint37_linear_5315_11883" x1="167.953" y1="428.417" x2="246.833" y2="441.422" gradientUnits="userSpaceOnUse">
<stop stop-color="#020202" stop-opacity="0.7"/>
<stop offset="1" stop-color="#020202" stop-opacity="0.6"/>
</linearGradient>
<linearGradient id="paint38_linear_5315_11883" x1="250.165" y1="441.109" x2="252.915" y2="434.08" gradientUnits="userSpaceOnUse">
<stop stop-color="#020202" stop-opacity="0.8"/>
<stop offset="1" stop-color="#020202" stop-opacity="0.7"/>
</linearGradient>
<linearGradient id="paint39_linear_5315_11883" x1="149.625" y1="416.049" x2="248.027" y2="438.969" gradientUnits="userSpaceOnUse">
<stop stop-color="#020202" stop-opacity="0"/>
<stop offset="1" stop-color="#020202" stop-opacity="0.1"/>
</linearGradient>
<linearGradient id="paint40_linear_5315_11883" x1="141.948" y1="416.064" x2="142.192" y2="418.727" gradientUnits="userSpaceOnUse">
<stop stop-color="#020202" stop-opacity="0"/>
<stop offset="1" stop-color="#020202" stop-opacity="0.1"/>
</linearGradient>
<linearGradient id="paint41_linear_5315_11883" x1="141.752" y1="419.515" x2="139.54" y2="419.411" gradientUnits="userSpaceOnUse">
<stop stop-color="#020202" stop-opacity="0.4"/>
<stop offset="1" stop-color="#020202" stop-opacity="0.3"/>
</linearGradient>
<linearGradient id="paint42_linear_5315_11883" x1="129.447" y1="417.475" x2="129.643" y2="419.789" gradientUnits="userSpaceOnUse">
<stop stop-color="#020202" stop-opacity="0"/>
<stop offset="1" stop-color="#020202" stop-opacity="0.1"/>
</linearGradient>
<linearGradient id="paint43_linear_5315_11883" x1="130.468" y1="420.247" x2="128.89" y2="420.222" gradientUnits="userSpaceOnUse">
<stop stop-color="#020202" stop-opacity="0.4"/>
<stop offset="1" stop-color="#020202" stop-opacity="0.3"/>
</linearGradient>
<linearGradient id="paint44_linear_5315_11883" x1="123.038" y1="427.053" x2="128.233" y2="421.858" gradientUnits="userSpaceOnUse">
<stop stop-color="#020202" stop-opacity="0.6"/>
<stop offset="1" stop-color="#020202" stop-opacity="0.7"/>
</linearGradient>
<linearGradient id="paint45_linear_5315_11883" x1="54.6379" y1="426.454" x2="121.079" y2="428.686" gradientUnits="userSpaceOnUse">
<stop stop-color="#020202" stop-opacity="0.6"/>
<stop offset="1" stop-color="#020202" stop-opacity="0.7"/>
</linearGradient>
<linearGradient id="paint46_linear_5315_11883" x1="38.997" y1="460.65" x2="46.5618" y2="460.807" gradientUnits="userSpaceOnUse">
<stop stop-color="#020202" stop-opacity="0.6"/>
<stop offset="1" stop-color="#020202" stop-opacity="0.7"/>
</linearGradient>
<linearGradient id="paint47_linear_5315_11883" x1="47.2543" y1="467.87" x2="48.9617" y2="463.421" gradientUnits="userSpaceOnUse">
<stop stop-color="#020202" stop-opacity="0.6"/>
<stop offset="1" stop-color="#020202" stop-opacity="0.7"/>
</linearGradient>
<linearGradient id="paint48_linear_5315_11883" x1="49.3876" y1="459.75" x2="124.259" y2="421.55" gradientUnits="userSpaceOnUse">
<stop stop-color="#020202" stop-opacity="0"/>
<stop offset="1" stop-color="#020202" stop-opacity="0.1"/>
</linearGradient>
<linearGradient id="paint49_linear_5315_11883" x1="896.975" y1="415.571" x2="919.283" y2="454.209" gradientUnits="userSpaceOnUse">
<stop stop-color="#020202" stop-opacity="0"/>
<stop offset="1" stop-color="#020202" stop-opacity="0.1"/>
</linearGradient>
<linearGradient id="paint50_linear_5315_11883" x1="937.502" y1="550.501" x2="905.502" y2="451.001" gradientUnits="userSpaceOnUse">
<stop stop-color="#020202" stop-opacity="0.5"/>
<stop offset="1" stop-color="#020202" stop-opacity="0.4"/>
</linearGradient>
<linearGradient id="paint51_linear_5315_11883" x1="925.481" y1="386.336" x2="921.508" y2="402.838" gradientUnits="userSpaceOnUse">
<stop stop-color="#020202" stop-opacity="0.6"/>
<stop offset="1" stop-color="#020202" stop-opacity="0.7"/>
</linearGradient>
<linearGradient id="paint52_linear_5315_11883" x1="888.2" y1="343.858" x2="916.265" y2="344.122" gradientUnits="userSpaceOnUse">
<stop stop-color="#020202" stop-opacity="0.6"/>
<stop offset="1" stop-color="#020202" stop-opacity="0.7"/>
</linearGradient>
<linearGradient id="paint53_linear_5315_11883" x1="890.83" y1="339.769" x2="918.454" y2="397.032" gradientUnits="userSpaceOnUse">
<stop stop-color="#020202" stop-opacity="0"/>
<stop offset="1" stop-color="#020202" stop-opacity="0.1"/>
</linearGradient>
<linearGradient id="paint54_linear_5315_11883" x1="920.894" y1="400.141" x2="920.894" y2="436.652" gradientUnits="userSpaceOnUse">
<stop stop-color="#020202" stop-opacity="0"/>
<stop offset="1" stop-color="#020202" stop-opacity="0.1"/>
</linearGradient>
<linearGradient id="paint55_linear_5315_11883" x1="928.07" y1="411.054" x2="938.931" y2="416.285" gradientUnits="userSpaceOnUse">
<stop stop-color="#020202" stop-opacity="0.6"/>
<stop offset="1" stop-color="#020202" stop-opacity="0.7"/>
</linearGradient>
<linearGradient id="paint56_linear_5315_11883" x1="939.193" y1="414.016" x2="953.612" y2="422.581" gradientUnits="userSpaceOnUse">
<stop stop-color="#020202" stop-opacity="0.6"/>
<stop offset="1" stop-color="#020202" stop-opacity="0.7"/>
</linearGradient>
<linearGradient id="paint57_linear_5315_11883" x1="954.203" y1="420.401" x2="1033.08" y2="433.406" gradientUnits="userSpaceOnUse">
<stop stop-color="#020202" stop-opacity="0.7"/>
<stop offset="1" stop-color="#020202" stop-opacity="0.6"/>
</linearGradient>
<linearGradient id="paint58_linear_5315_11883" x1="1036.42" y1="433.093" x2="1039.17" y2="426.065" gradientUnits="userSpaceOnUse">
<stop stop-color="#020202" stop-opacity="0.8"/>
<stop offset="1" stop-color="#020202" stop-opacity="0.7"/>
</linearGradient>
<linearGradient id="paint59_linear_5315_11883" x1="935.875" y1="408.033" x2="1034.28" y2="430.953" gradientUnits="userSpaceOnUse">
<stop stop-color="#020202" stop-opacity="0"/>
<stop offset="1" stop-color="#020202" stop-opacity="0.1"/>
</linearGradient>
<linearGradient id="paint60_linear_5315_11883" x1="928.198" y1="408.048" x2="928.442" y2="410.712" gradientUnits="userSpaceOnUse">
<stop stop-color="#020202" stop-opacity="0"/>
<stop offset="1" stop-color="#020202" stop-opacity="0.1"/>
</linearGradient>
<linearGradient id="paint61_linear_5315_11883" x1="928.002" y1="411.5" x2="925.79" y2="411.396" gradientUnits="userSpaceOnUse">
<stop stop-color="#020202" stop-opacity="0.4"/>
<stop offset="1" stop-color="#020202" stop-opacity="0.3"/>
</linearGradient>
<linearGradient id="paint62_linear_5315_11883" x1="915.502" y1="410.501" x2="914.502" y2="410.501" gradientUnits="userSpaceOnUse">
<stop stop-color="#020202" stop-opacity="0"/>
<stop offset="1" stop-color="#020202" stop-opacity="0.1"/>
</linearGradient>
<linearGradient id="paint63_linear_5315_11883" x1="916.718" y1="412.231" x2="915.14" y2="412.206" gradientUnits="userSpaceOnUse">
<stop stop-color="#020202" stop-opacity="0.4"/>
<stop offset="1" stop-color="#020202" stop-opacity="0.3"/>
</linearGradient>
<linearGradient id="paint64_linear_5315_11883" x1="909.288" y1="419.037" x2="914.483" y2="413.842" gradientUnits="userSpaceOnUse">
<stop stop-color="#020202" stop-opacity="0.6"/>
<stop offset="1" stop-color="#020202" stop-opacity="0.7"/>
</linearGradient>
<linearGradient id="paint65_linear_5315_11883" x1="840.888" y1="418.438" x2="907.329" y2="420.67" gradientUnits="userSpaceOnUse">
<stop stop-color="#020202" stop-opacity="0.6"/>
<stop offset="1" stop-color="#020202" stop-opacity="0.7"/>
</linearGradient>
<linearGradient id="paint66_linear_5315_11883" x1="825.247" y1="452.634" x2="832.812" y2="452.792" gradientUnits="userSpaceOnUse">
<stop stop-color="#020202" stop-opacity="0.6"/>
<stop offset="1" stop-color="#020202" stop-opacity="0.7"/>
</linearGradient>
<linearGradient id="paint67_linear_5315_11883" x1="841.449" y1="457.739" x2="833.197" y2="459.267" gradientUnits="userSpaceOnUse">
<stop stop-color="#020202" stop-opacity="0.6"/>
<stop offset="1" stop-color="#020202" stop-opacity="0.7"/>
</linearGradient>
<linearGradient id="paint68_linear_5315_11883" x1="835.638" y1="451.734" x2="910.509" y2="413.535" gradientUnits="userSpaceOnUse">
<stop stop-color="#020202" stop-opacity="0"/>
<stop offset="1" stop-color="#020202" stop-opacity="0.1"/>
</linearGradient>
<linearGradient id="paint69_linear_5315_11883" x1="512.947" y1="637.294" x2="535.255" y2="675.932" gradientUnits="userSpaceOnUse">
<stop stop-color="#020202" stop-opacity="0"/>
<stop offset="1" stop-color="#020202" stop-opacity="0.1"/>
</linearGradient>
<linearGradient id="paint70_linear_5315_11883" x1="553.475" y1="772.22" x2="521.475" y2="672.72" gradientUnits="userSpaceOnUse">
<stop stop-color="#020202" stop-opacity="0.5"/>
<stop offset="1" stop-color="#020202" stop-opacity="0.4"/>
</linearGradient>
<linearGradient id="paint71_linear_5315_11883" x1="541.457" y1="608.055" x2="537.485" y2="624.557" gradientUnits="userSpaceOnUse">
<stop stop-color="#020202" stop-opacity="0.6"/>
<stop offset="1" stop-color="#020202" stop-opacity="0.7"/>
</linearGradient>
<linearGradient id="paint72_linear_5315_11883" x1="504.173" y1="565.577" x2="532.238" y2="565.841" gradientUnits="userSpaceOnUse">
<stop stop-color="#020202" stop-opacity="0.6"/>
<stop offset="1" stop-color="#020202" stop-opacity="0.7"/>
</linearGradient>
<linearGradient id="paint73_linear_5315_11883" x1="506.802" y1="561.487" x2="534.427" y2="618.751" gradientUnits="userSpaceOnUse">
<stop stop-color="#020202" stop-opacity="0"/>
<stop offset="1" stop-color="#020202" stop-opacity="0.1"/>
</linearGradient>
<linearGradient id="paint74_linear_5315_11883" x1="536.867" y1="621.86" x2="536.867" y2="658.371" gradientUnits="userSpaceOnUse">
<stop stop-color="#020202" stop-opacity="0"/>
<stop offset="1" stop-color="#020202" stop-opacity="0.1"/>
</linearGradient>
<linearGradient id="paint75_linear_5315_11883" x1="544.043" y1="632.772" x2="554.903" y2="638.004" gradientUnits="userSpaceOnUse">
<stop stop-color="#020202" stop-opacity="0.6"/>
<stop offset="1" stop-color="#020202" stop-opacity="0.7"/>
</linearGradient>
<linearGradient id="paint76_linear_5315_11883" x1="555.166" y1="635.735" x2="569.585" y2="644.299" gradientUnits="userSpaceOnUse">
<stop stop-color="#020202" stop-opacity="0.6"/>
<stop offset="1" stop-color="#020202" stop-opacity="0.7"/>
</linearGradient>
<linearGradient id="paint77_linear_5315_11883" x1="570.175" y1="642.12" x2="649.055" y2="655.125" gradientUnits="userSpaceOnUse">
<stop stop-color="#020202" stop-opacity="0.7"/>
<stop offset="1" stop-color="#020202" stop-opacity="0.6"/>
</linearGradient>
<linearGradient id="paint78_linear_5315_11883" x1="652.388" y1="654.812" x2="655.138" y2="647.783" gradientUnits="userSpaceOnUse">
<stop stop-color="#020202" stop-opacity="0.8"/>
<stop offset="1" stop-color="#020202" stop-opacity="0.7"/>
</linearGradient>
<linearGradient id="paint79_linear_5315_11883" x1="551.847" y1="629.752" x2="650.249" y2="652.672" gradientUnits="userSpaceOnUse">
<stop stop-color="#020202" stop-opacity="0"/>
<stop offset="1" stop-color="#020202" stop-opacity="0.1"/>
</linearGradient>
<linearGradient id="paint80_linear_5315_11883" x1="544.171" y1="629.767" x2="544.414" y2="632.43" gradientUnits="userSpaceOnUse">
<stop stop-color="#020202" stop-opacity="0"/>
<stop offset="1" stop-color="#020202" stop-opacity="0.1"/>
</linearGradient>
<linearGradient id="paint81_linear_5315_11883" x1="543.975" y1="633.215" x2="541.763" y2="633.111" gradientUnits="userSpaceOnUse">
<stop stop-color="#020202" stop-opacity="0.4"/>
<stop offset="1" stop-color="#020202" stop-opacity="0.3"/>
</linearGradient>
<linearGradient id="paint82_linear_5315_11883" x1="531.669" y1="631.178" x2="531.865" y2="633.492" gradientUnits="userSpaceOnUse">
<stop stop-color="#020202" stop-opacity="0"/>
<stop offset="1" stop-color="#020202" stop-opacity="0.1"/>
</linearGradient>
<linearGradient id="paint83_linear_5315_11883" x1="532.687" y1="633.95" x2="531.112" y2="633.728" gradientUnits="userSpaceOnUse">
<stop stop-color="#020202" stop-opacity="0.4"/>
<stop offset="1" stop-color="#020202" stop-opacity="0.3"/>
</linearGradient>
<linearGradient id="paint84_linear_5315_11883" x1="525.261" y1="640.756" x2="530.456" y2="635.561" gradientUnits="userSpaceOnUse">
<stop stop-color="#020202" stop-opacity="0.6"/>
<stop offset="1" stop-color="#020202" stop-opacity="0.7"/>
</linearGradient>
<linearGradient id="paint85_linear_5315_11883" x1="456.861" y1="640.157" x2="523.302" y2="642.389" gradientUnits="userSpaceOnUse">
<stop stop-color="#020202" stop-opacity="0.6"/>
<stop offset="1" stop-color="#020202" stop-opacity="0.7"/>
</linearGradient>
<linearGradient id="paint86_linear_5315_11883" x1="441.22" y1="674.353" x2="448.784" y2="674.511" gradientUnits="userSpaceOnUse">
<stop stop-color="#020202" stop-opacity="0.6"/>
<stop offset="1" stop-color="#020202" stop-opacity="0.7"/>
</linearGradient>
<linearGradient id="paint87_linear_5315_11883" x1="457.421" y1="679.458" x2="449.17" y2="680.986" gradientUnits="userSpaceOnUse">
<stop stop-color="#020202" stop-opacity="0.6"/>
<stop offset="1" stop-color="#020202" stop-opacity="0.7"/>
</linearGradient>
<linearGradient id="paint88_linear_5315_11883" x1="451.61" y1="673.453" x2="526.481" y2="635.253" gradientUnits="userSpaceOnUse">
<stop stop-color="#020202" stop-opacity="0"/>
<stop offset="1" stop-color="#020202" stop-opacity="0.1"/>
</linearGradient>
<linearGradient id="paint89_linear_5315_11883" x1="400.501" y1="684.002" x2="414.001" y2="746.002" gradientUnits="userSpaceOnUse">
<stop stop-color="#020202" stop-opacity="0.7"/>
<stop offset="1" stop-color="#020202" stop-opacity="0.5"/>
</linearGradient>
<linearGradient id="paint90_linear_5315_11883" x1="392.502" y1="689" x2="415.002" y2="742" gradientUnits="userSpaceOnUse">
<stop stop-color="#020202" stop-opacity="0"/>
<stop offset="1" stop-color="#020202" stop-opacity="0.1"/>
</linearGradient>
<linearGradient id="paint91_linear_5315_11883" x1="398.501" y1="703.999" x2="411.001" y2="726.499" gradientUnits="userSpaceOnUse">
<stop stop-color="#020202" stop-opacity="0.9"/>
<stop offset="1" stop-color="#020202" stop-opacity="0.9"/>
</linearGradient>
</defs>
</svg>
