<svg width="16" height="16" viewBox="0 0 16 16" fill="none" xmlns="http://www.w3.org/2000/svg">
<path fill-rule="evenodd" clip-rule="evenodd" d="M2.8 8.65H6.05C6.76797 8.65 7.35 9.23203 7.35 9.95V13.2C7.35 13.918 6.76797 14.5 6.05 14.5H2.8C2.08203 14.5 1.5 13.918 1.5 13.2V9.95C1.5 9.23203 2.08203 8.65 2.8 8.65ZM2.8 9.95V13.2H6.05V9.95H2.8ZM2.8 1.5H6.05C6.76797 1.5 7.35 2.08203 7.35 2.8V6.05C7.35 6.76797 6.76797 7.35 6.05 7.35H2.8C2.08203 7.35 1.5 6.76797 1.5 6.05V2.8C1.5 2.08203 2.08203 1.5 2.8 1.5ZM2.8 2.8V6.05H6.05V2.8H2.8ZM9.95 1.5H13.2C13.918 1.5 14.5 2.08203 14.5 2.8V6.05C14.5 6.76797 13.918 7.35 13.2 7.35H9.95C9.23203 7.35 8.65 6.76797 8.65 6.05V2.8C8.65 2.08203 9.23203 1.5 9.95 1.5ZM9.95 2.8V6.05H13.2V2.8H9.95Z" fill="#F7F8FB" fill-opacity="0.64"/>
<path fill-rule="evenodd" clip-rule="evenodd" d="M2.8 8.65H6.05C6.76797 8.65 7.35 9.23203 7.35 9.95V13.2C7.35 13.918 6.76797 14.5 6.05 14.5H2.8C2.08203 14.5 1.5 13.918 1.5 13.2V9.95C1.5 9.23203 2.08203 8.65 2.8 8.65ZM2.8 9.95V13.2H6.05V9.95H2.8ZM2.8 1.5H6.05C6.76797 1.5 7.35 2.08203 7.35 2.8V6.05C7.35 6.76797 6.76797 7.35 6.05 7.35H2.8C2.08203 7.35 1.5 6.76797 1.5 6.05V2.8C1.5 2.08203 2.08203 1.5 2.8 1.5ZM2.8 2.8V6.05H6.05V2.8H2.8ZM9.95 1.5H13.2C13.918 1.5 14.5 2.08203 14.5 2.8V6.05C14.5 6.76797 13.918 7.35 13.2 7.35H9.95C9.23203 7.35 8.65 6.76797 8.65 6.05V2.8C8.65 2.08203 9.23203 1.5 9.95 1.5ZM9.95 2.8V6.05H13.2V2.8H9.95Z" fill="url(#paint0_linear_4978_211)" fill-opacity="0.08"/>
<path fill-rule="evenodd" clip-rule="evenodd" d="M9.93194 8.63194H13.1819C13.8999 8.63194 14.4819 9.21397 14.4819 9.93194V13.1819C14.4819 13.8999 13.8999 14.4819 13.1819 14.4819H9.93194C9.21397 14.4819 8.63194 13.8999 8.63194 13.1819V9.93194C8.63194 9.21397 9.21397 8.63194 9.93194 8.63194ZM9.93194 9.93194V13.1819H13.1819V9.93194H9.93194Z" fill="#F7F8FB" fill-opacity="0.64"/>
<path fill-rule="evenodd" clip-rule="evenodd" d="M9.93194 8.63194H13.1819C13.8999 8.63194 14.4819 9.21397 14.4819 9.93194V13.1819C14.4819 13.8999 13.8999 14.4819 13.1819 14.4819H9.93194C9.21397 14.4819 8.63194 13.8999 8.63194 13.1819V9.93194C8.63194 9.21397 9.21397 8.63194 9.93194 8.63194ZM9.93194 9.93194V13.1819H13.1819V9.93194H9.93194Z" fill="url(#paint1_linear_4978_211)" fill-opacity="0.08"/>
<defs>
<linearGradient id="paint0_linear_4978_211" x1="8" y1="1.5" x2="8" y2="14.5" gradientUnits="userSpaceOnUse">
<stop stop-opacity="0"/>
<stop offset="1"/>
</linearGradient>
<linearGradient id="paint1_linear_4978_211" x1="8" y1="1.5" x2="8" y2="14.5" gradientUnits="userSpaceOnUse">
<stop stop-opacity="0"/>
<stop offset="1"/>
</linearGradient>
</defs>
</svg>
