<svg width="16" height="16" viewBox="0 0 16 16" fill="none" xmlns="http://www.w3.org/2000/svg">
<path d="M7.99784 1.5C5.4111 1.5 3.35498 3.515 3.35498 6.05C3.35498 9.95 7.99784 14.5 7.99784 14.5C7.99784 14.5 12.6407 9.885 12.6407 6.05C12.6407 3.515 10.5846 1.5 7.99784 1.5ZM7.99784 7.675C7.06927 7.675 6.33967 6.96 6.33967 6.05C6.33967 5.14 7.06927 4.425 7.99784 4.425C8.92641 4.425 9.656 5.14 9.656 6.05C9.656 6.96 8.92641 7.675 7.99784 7.675Z" fill="#F7F8FB" fill-opacity="0.64"/>
<path d="M7.99784 1.5C5.4111 1.5 3.35498 3.515 3.35498 6.05C3.35498 9.95 7.99784 14.5 7.99784 14.5C7.99784 14.5 12.6407 9.885 12.6407 6.05C12.6407 3.515 10.5846 1.5 7.99784 1.5ZM7.99784 7.675C7.06927 7.675 6.33967 6.96 6.33967 6.05C6.33967 5.14 7.06927 4.425 7.99784 4.425C8.92641 4.425 9.656 5.14 9.656 6.05C9.656 6.96 8.92641 7.675 7.99784 7.675Z" fill="url(#paint0_linear_4978_147)" fill-opacity="0.08"/>
<defs>
<linearGradient id="paint0_linear_4978_147" x1="7.99784" y1="1.5" x2="7.99784" y2="14.5" gradientUnits="userSpaceOnUse">
<stop stop-opacity="0"/>
<stop offset="1"/>
</linearGradient>
</defs>
</svg>
