<svg width="16" height="16" viewBox="0 0 16 16" fill="none" xmlns="http://www.w3.org/2000/svg">
<path d="M7.13333 6.28655V8.00065H1.5V6.28655H7.13333ZM8.86667 6.28655V8.00065H14.5V6.28655H8.86667ZM2.36667 8.8577V12.7144C2.36667 13.4244 2.94872 14 3.66667 14H7.13333V8.8577H2.36667ZM8.86667 8.8577V14H12.3333C13.0513 14 13.6333 13.4244 13.6333 12.7144V8.8577H8.86667ZM10.6 2.0013C9.38381 1.96325 8.30359 2.76442 8 3.92966C7.69641 2.76442 6.61619 1.96325 5.4 2.0013C4.47189 1.97242 3.69587 2.69311 3.66667 3.61093C3.66554 3.64572 3.66554 3.6806 3.66667 3.7154C3.53173 4.52334 4.08457 5.28646 4.90158 5.4199C5.04059 5.44261 5.18212 5.44587 5.322 5.4295H10.6347C11.4622 5.5578 12.2383 4.99849 12.368 4.18018C12.3924 4.02617 12.3924 3.86941 12.368 3.7154C12.3682 2.7687 11.5923 2.00113 10.635 2.00096C10.6233 2.00096 10.6117 2.00104 10.6 2.0013ZM5.4 4.57245C4.96147 4.61213 4.57346 4.29271 4.53333 3.85913C4.52891 3.8113 4.52891 3.76322 4.53333 3.7154C4.49321 3.28173 4.81621 2.89803 5.25466 2.85835C5.30302 2.85398 5.35164 2.85398 5.4 2.85835C6.35732 2.85835 7.13333 3.62575 7.13333 4.57245H5.4ZM10.6 4.57245H8.86667C8.86667 3.62575 9.64268 2.85835 10.6 2.85835C11.0787 2.85835 11.4667 3.24205 11.4667 3.7154C11.5068 4.14907 11.1838 4.53277 10.7453 4.57245C10.697 4.57682 10.6484 4.57682 10.6 4.57245Z" fill="#F7F8FB" fill-opacity="0.64"/>
<path d="M7.13333 6.28655V8.00065H1.5V6.28655H7.13333ZM8.86667 6.28655V8.00065H14.5V6.28655H8.86667ZM2.36667 8.8577V12.7144C2.36667 13.4244 2.94872 14 3.66667 14H7.13333V8.8577H2.36667ZM8.86667 8.8577V14H12.3333C13.0513 14 13.6333 13.4244 13.6333 12.7144V8.8577H8.86667ZM10.6 2.0013C9.38381 1.96325 8.30359 2.76442 8 3.92966C7.69641 2.76442 6.61619 1.96325 5.4 2.0013C4.47189 1.97242 3.69587 2.69311 3.66667 3.61093C3.66554 3.64572 3.66554 3.6806 3.66667 3.7154C3.53173 4.52334 4.08457 5.28646 4.90158 5.4199C5.04059 5.44261 5.18212 5.44587 5.322 5.4295H10.6347C11.4622 5.5578 12.2383 4.99849 12.368 4.18018C12.3924 4.02617 12.3924 3.86941 12.368 3.7154C12.3682 2.7687 11.5923 2.00113 10.635 2.00096C10.6233 2.00096 10.6117 2.00104 10.6 2.0013ZM5.4 4.57245C4.96147 4.61213 4.57346 4.29271 4.53333 3.85913C4.52891 3.8113 4.52891 3.76322 4.53333 3.7154C4.49321 3.28173 4.81621 2.89803 5.25466 2.85835C5.30302 2.85398 5.35164 2.85398 5.4 2.85835C6.35732 2.85835 7.13333 3.62575 7.13333 4.57245H5.4ZM10.6 4.57245H8.86667C8.86667 3.62575 9.64268 2.85835 10.6 2.85835C11.0787 2.85835 11.4667 3.24205 11.4667 3.7154C11.5068 4.14907 11.1838 4.53277 10.7453 4.57245C10.697 4.57682 10.6484 4.57682 10.6 4.57245Z" fill="url(#paint0_linear_4978_329)" fill-opacity="0.08"/>
<defs>
<linearGradient id="paint0_linear_4978_329" x1="8" y1="2" x2="8" y2="14" gradientUnits="userSpaceOnUse">
<stop stop-opacity="0"/>
<stop offset="1"/>
</linearGradient>
</defs>
</svg>
