<svg width="16" height="16" viewBox="0 0 16 16" fill="none" xmlns="http://www.w3.org/2000/svg">
<path fill-rule="evenodd" clip-rule="evenodd" d="M7.04873 5.62195C6.6411 5.62195 6.24263 5.50108 5.90371 5.27461C5.56478 5.04815 5.30062 4.72627 5.14463 4.34968C4.98864 3.97308 4.94783 3.55869 5.02735 3.1589C5.10687 2.75911 5.30316 2.39188 5.5914 2.10365C5.87963 1.81541 6.24686 1.61913 6.64665 1.5396C7.04644 1.46008 7.46083 1.50089 7.83742 1.65688C8.21402 1.81287 8.5359 2.07703 8.76236 2.41596C8.89934 2.62097 8.99769 2.84776 9.05403 3.08518H14.026C14.1517 3.08518 14.2723 3.13513 14.3612 3.22402C14.4501 3.31292 14.5 3.43349 14.5 3.55922C14.5 3.68494 14.4501 3.80551 14.3612 3.89441C14.2723 3.98331 14.1517 4.03325 14.026 4.03325H9.05434C8.96692 4.40296 8.7783 4.74458 8.50531 5.01756C8.11895 5.40393 7.59512 5.62128 7.04873 5.62195ZM8.15209 3.67992C8.13296 3.85735 8.07125 4.02817 7.97145 4.17752C7.84951 4.36002 7.67619 4.50226 7.47341 4.58626C7.27063 4.67025 7.04749 4.69223 6.83222 4.64941C6.61695 4.60659 6.41921 4.50089 6.26401 4.34569C6.10881 4.19049 6.00311 3.99275 5.96029 3.77748C5.91747 3.56221 5.93945 3.33907 6.02344 3.13629C6.10744 2.93351 6.24968 2.76019 6.43218 2.63825C6.61468 2.51631 6.82924 2.45122 7.04873 2.45122C7.34295 2.45156 7.62502 2.56858 7.83307 2.77663C8.01238 2.95594 8.12407 3.19023 8.15173 3.4399C8.14168 3.47854 8.13646 3.51861 8.13646 3.55922C8.13646 3.60031 8.1418 3.64085 8.15209 3.67992Z" fill="#F7F8FB" fill-opacity="0.64"/>
<path fill-rule="evenodd" clip-rule="evenodd" d="M7.04873 5.62195C6.6411 5.62195 6.24263 5.50108 5.90371 5.27461C5.56478 5.04815 5.30062 4.72627 5.14463 4.34968C4.98864 3.97308 4.94783 3.55869 5.02735 3.1589C5.10687 2.75911 5.30316 2.39188 5.5914 2.10365C5.87963 1.81541 6.24686 1.61913 6.64665 1.5396C7.04644 1.46008 7.46083 1.50089 7.83742 1.65688C8.21402 1.81287 8.5359 2.07703 8.76236 2.41596C8.89934 2.62097 8.99769 2.84776 9.05403 3.08518H14.026C14.1517 3.08518 14.2723 3.13513 14.3612 3.22402C14.4501 3.31292 14.5 3.43349 14.5 3.55922C14.5 3.68494 14.4501 3.80551 14.3612 3.89441C14.2723 3.98331 14.1517 4.03325 14.026 4.03325H9.05434C8.96692 4.40296 8.7783 4.74458 8.50531 5.01756C8.11895 5.40393 7.59512 5.62128 7.04873 5.62195ZM8.15209 3.67992C8.13296 3.85735 8.07125 4.02817 7.97145 4.17752C7.84951 4.36002 7.67619 4.50226 7.47341 4.58626C7.27063 4.67025 7.04749 4.69223 6.83222 4.64941C6.61695 4.60659 6.41921 4.50089 6.26401 4.34569C6.10881 4.19049 6.00311 3.99275 5.96029 3.77748C5.91747 3.56221 5.93945 3.33907 6.02344 3.13629C6.10744 2.93351 6.24968 2.76019 6.43218 2.63825C6.61468 2.51631 6.82924 2.45122 7.04873 2.45122C7.34295 2.45156 7.62502 2.56858 7.83307 2.77663C8.01238 2.95594 8.12407 3.19023 8.15173 3.4399C8.14168 3.47854 8.13646 3.51861 8.13646 3.55922C8.13646 3.60031 8.1418 3.64085 8.15209 3.67992Z" fill="url(#paint0_linear_4978_113)" fill-opacity="0.08"/>
<path fill-rule="evenodd" clip-rule="evenodd" d="M10.8536 10.061C10.446 10.061 10.0475 9.9401 9.70859 9.71364C9.36966 9.48717 9.1055 9.16529 8.94951 8.7887C8.9049 8.681 8.86971 8.57021 8.84406 8.45756H1.97403C1.84831 8.45756 1.72774 8.40762 1.63884 8.31872C1.54994 8.22982 1.5 8.10925 1.5 7.98353C1.5 7.8578 1.54994 7.73723 1.63884 7.64833C1.72774 7.55944 1.84831 7.50949 1.97403 7.50949H8.85185C8.94138 7.14407 9.12943 6.80952 9.39627 6.54267C9.68451 6.25444 10.0517 6.05815 10.4515 5.97863C10.8513 5.8991 11.2657 5.93992 11.6423 6.09591C12.0189 6.2519 12.3408 6.51606 12.5672 6.85498C12.7014 7.05575 12.7985 7.27741 12.8554 7.50949H14.026C14.1517 7.50949 14.2723 7.55944 14.3612 7.64833C14.4501 7.73723 14.5 7.8578 14.5 7.98353C14.5 8.10925 14.4501 8.22982 14.3612 8.31872C14.2723 8.40762 14.1517 8.45756 14.026 8.45756H12.8626C12.7768 8.83292 12.5868 9.17998 12.3102 9.45659C11.9238 9.84295 11.4 10.0603 10.8536 10.061ZM11.9547 8.1383C11.9333 8.30878 11.8725 8.47263 11.7763 8.61655C11.6544 8.79905 11.4811 8.94129 11.2783 9.02528C11.0755 9.10927 10.8524 9.13125 10.6371 9.08843C10.4218 9.04561 10.2241 8.93992 10.0689 8.78472C9.91368 8.62951 9.80799 8.43177 9.76517 8.2165C9.72235 8.00123 9.74433 7.7781 9.82832 7.57531C9.91232 7.37253 10.0546 7.19921 10.2371 7.07727C10.4196 6.95533 10.6341 6.89024 10.8536 6.89024C11.1478 6.89058 11.4299 7.00761 11.6379 7.21565C11.8076 7.38529 11.9167 7.60415 11.9514 7.83868C11.9365 7.88507 11.9287 7.9339 11.9287 7.98352C11.9287 8.03671 11.9377 8.08897 11.9547 8.1383Z" fill="#F7F8FB" fill-opacity="0.64"/>
<path fill-rule="evenodd" clip-rule="evenodd" d="M10.8536 10.061C10.446 10.061 10.0475 9.9401 9.70859 9.71364C9.36966 9.48717 9.1055 9.16529 8.94951 8.7887C8.9049 8.681 8.86971 8.57021 8.84406 8.45756H1.97403C1.84831 8.45756 1.72774 8.40762 1.63884 8.31872C1.54994 8.22982 1.5 8.10925 1.5 7.98353C1.5 7.8578 1.54994 7.73723 1.63884 7.64833C1.72774 7.55944 1.84831 7.50949 1.97403 7.50949H8.85185C8.94138 7.14407 9.12943 6.80952 9.39627 6.54267C9.68451 6.25444 10.0517 6.05815 10.4515 5.97863C10.8513 5.8991 11.2657 5.93992 11.6423 6.09591C12.0189 6.2519 12.3408 6.51606 12.5672 6.85498C12.7014 7.05575 12.7985 7.27741 12.8554 7.50949H14.026C14.1517 7.50949 14.2723 7.55944 14.3612 7.64833C14.4501 7.73723 14.5 7.8578 14.5 7.98353C14.5 8.10925 14.4501 8.22982 14.3612 8.31872C14.2723 8.40762 14.1517 8.45756 14.026 8.45756H12.8626C12.7768 8.83292 12.5868 9.17998 12.3102 9.45659C11.9238 9.84295 11.4 10.0603 10.8536 10.061ZM11.9547 8.1383C11.9333 8.30878 11.8725 8.47263 11.7763 8.61655C11.6544 8.79905 11.4811 8.94129 11.2783 9.02528C11.0755 9.10927 10.8524 9.13125 10.6371 9.08843C10.4218 9.04561 10.2241 8.93992 10.0689 8.78472C9.91368 8.62951 9.80799 8.43177 9.76517 8.2165C9.72235 8.00123 9.74433 7.7781 9.82832 7.57531C9.91232 7.37253 10.0546 7.19921 10.2371 7.07727C10.4196 6.95533 10.6341 6.89024 10.8536 6.89024C11.1478 6.89058 11.4299 7.00761 11.6379 7.21565C11.8076 7.38529 11.9167 7.60415 11.9514 7.83868C11.9365 7.88507 11.9287 7.9339 11.9287 7.98352C11.9287 8.03671 11.9377 8.08897 11.9547 8.1383Z" fill="url(#paint1_linear_4978_113)" fill-opacity="0.08"/>
<path fill-rule="evenodd" clip-rule="evenodd" d="M5.90371 14.1527C6.24263 14.3791 6.6411 14.5 7.04873 14.5C7.59512 14.4993 8.11895 14.282 8.50531 13.8956C8.78553 13.6154 8.97685 13.2629 9.06107 12.8819H14.026C14.1517 12.8819 14.2723 12.8319 14.3612 12.743C14.4501 12.6541 14.5 12.5336 14.5 12.4078C14.5 12.2821 14.4501 12.1615 14.3612 12.0726C14.2723 11.9837 14.1517 11.9338 14.026 11.9338H9.04682C8.98948 11.7071 8.89367 11.4905 8.76236 11.294C8.5359 10.9551 8.21402 10.6909 7.83742 10.5349C7.46083 10.3789 7.04644 10.3381 6.64665 10.4176C6.24686 10.4972 5.87963 10.6935 5.5914 10.9817C5.30316 11.2699 5.10687 11.6372 5.02735 12.0369C4.94783 12.4367 4.98864 12.8511 5.14463 13.2277C5.30062 13.6043 5.56478 13.9262 5.90371 14.1527ZM8.14935 12.2981C8.11809 12.0559 8.00761 11.8292 7.83307 11.6547C7.62502 11.4466 7.34295 11.3296 7.04873 11.3293C6.82924 11.3293 6.61468 11.3944 6.43218 11.5163C6.24968 11.6382 6.10744 11.8116 6.02344 12.0143C5.93945 12.2171 5.91747 12.4403 5.96029 12.6555C6.00311 12.8708 6.10881 13.0685 6.26401 13.2237C6.41921 13.3789 6.61695 13.4846 6.83222 13.5275C7.04749 13.5703 7.27063 13.5483 7.47341 13.4643C7.67619 13.3803 7.84951 13.2381 7.97145 13.0556C8.0753 12.9002 8.13791 12.7215 8.15421 12.5363C8.14253 12.4949 8.13646 12.4517 8.13646 12.4078C8.13646 12.3706 8.14085 12.3337 8.14935 12.2981Z" fill="#F7F8FB" fill-opacity="0.64"/>
<path fill-rule="evenodd" clip-rule="evenodd" d="M5.90371 14.1527C6.24263 14.3791 6.6411 14.5 7.04873 14.5C7.59512 14.4993 8.11895 14.282 8.50531 13.8956C8.78553 13.6154 8.97685 13.2629 9.06107 12.8819H14.026C14.1517 12.8819 14.2723 12.8319 14.3612 12.743C14.4501 12.6541 14.5 12.5336 14.5 12.4078C14.5 12.2821 14.4501 12.1615 14.3612 12.0726C14.2723 11.9837 14.1517 11.9338 14.026 11.9338H9.04682C8.98948 11.7071 8.89367 11.4905 8.76236 11.294C8.5359 10.9551 8.21402 10.6909 7.83742 10.5349C7.46083 10.3789 7.04644 10.3381 6.64665 10.4176C6.24686 10.4972 5.87963 10.6935 5.5914 10.9817C5.30316 11.2699 5.10687 11.6372 5.02735 12.0369C4.94783 12.4367 4.98864 12.8511 5.14463 13.2277C5.30062 13.6043 5.56478 13.9262 5.90371 14.1527ZM8.14935 12.2981C8.11809 12.0559 8.00761 11.8292 7.83307 11.6547C7.62502 11.4466 7.34295 11.3296 7.04873 11.3293C6.82924 11.3293 6.61468 11.3944 6.43218 11.5163C6.24968 11.6382 6.10744 11.8116 6.02344 12.0143C5.93945 12.2171 5.91747 12.4403 5.96029 12.6555C6.00311 12.8708 6.10881 13.0685 6.26401 13.2237C6.41921 13.3789 6.61695 13.4846 6.83222 13.5275C7.04749 13.5703 7.27063 13.5483 7.47341 13.4643C7.67619 13.3803 7.84951 13.2381 7.97145 13.0556C8.0753 12.9002 8.13791 12.7215 8.15421 12.5363C8.14253 12.4949 8.13646 12.4517 8.13646 12.4078C8.13646 12.3706 8.14085 12.3337 8.14935 12.2981Z" fill="url(#paint2_linear_4978_113)" fill-opacity="0.08"/>
<path d="M1.97403 4.03325H3.87017C3.99589 4.03325 4.11646 3.98331 4.20536 3.89441C4.29426 3.80551 4.3442 3.68494 4.3442 3.55922C4.3442 3.43349 4.29426 3.31292 4.20536 3.22402C4.11646 3.13513 3.99589 3.08518 3.87017 3.08518H1.97403C1.84831 3.08518 1.72774 3.13513 1.63884 3.22402C1.54994 3.31292 1.5 3.43349 1.5 3.55922C1.5 3.68494 1.54994 3.80551 1.63884 3.89441C1.72774 3.98331 1.84831 4.03325 1.97403 4.03325Z" fill="#F7F8FB" fill-opacity="0.64"/>
<path d="M1.97403 4.03325H3.87017C3.99589 4.03325 4.11646 3.98331 4.20536 3.89441C4.29426 3.80551 4.3442 3.68494 4.3442 3.55922C4.3442 3.43349 4.29426 3.31292 4.20536 3.22402C4.11646 3.13513 3.99589 3.08518 3.87017 3.08518H1.97403C1.84831 3.08518 1.72774 3.13513 1.63884 3.22402C1.54994 3.31292 1.5 3.43349 1.5 3.55922C1.5 3.68494 1.54994 3.80551 1.63884 3.89441C1.72774 3.98331 1.84831 4.03325 1.97403 4.03325Z" fill="url(#paint3_linear_4978_113)" fill-opacity="0.08"/>
<path d="M1.97403 12.8819H3.87017C3.99589 12.8819 4.11646 12.8319 4.20536 12.743C4.29426 12.6541 4.3442 12.5336 4.3442 12.4078C4.3442 12.2821 4.29426 12.1615 4.20536 12.0726C4.11646 11.9837 3.99589 11.9338 3.87017 11.9338H1.97403C1.84831 11.9338 1.72774 11.9837 1.63884 12.0726C1.54994 12.1615 1.5 12.2821 1.5 12.4078C1.5 12.5336 1.54994 12.6541 1.63884 12.743C1.72774 12.8319 1.84831 12.8819 1.97403 12.8819Z" fill="#F7F8FB" fill-opacity="0.64"/>
<path d="M1.97403 12.8819H3.87017C3.99589 12.8819 4.11646 12.8319 4.20536 12.743C4.29426 12.6541 4.3442 12.5336 4.3442 12.4078C4.3442 12.2821 4.29426 12.1615 4.20536 12.0726C4.11646 11.9837 3.99589 11.9338 3.87017 11.9338H1.97403C1.84831 11.9338 1.72774 11.9837 1.63884 12.0726C1.54994 12.1615 1.5 12.2821 1.5 12.4078C1.5 12.5336 1.54994 12.6541 1.63884 12.743C1.72774 12.8319 1.84831 12.8819 1.97403 12.8819Z" fill="url(#paint4_linear_4978_113)" fill-opacity="0.08"/>
<defs>
<linearGradient id="paint0_linear_4978_113" x1="8" y1="1.5" x2="8" y2="14.5" gradientUnits="userSpaceOnUse">
<stop stop-opacity="0"/>
<stop offset="1"/>
</linearGradient>
<linearGradient id="paint1_linear_4978_113" x1="8" y1="1.5" x2="8" y2="14.5" gradientUnits="userSpaceOnUse">
<stop stop-opacity="0"/>
<stop offset="1"/>
</linearGradient>
<linearGradient id="paint2_linear_4978_113" x1="8" y1="1.5" x2="8" y2="14.5" gradientUnits="userSpaceOnUse">
<stop stop-opacity="0"/>
<stop offset="1"/>
</linearGradient>
<linearGradient id="paint3_linear_4978_113" x1="8" y1="1.5" x2="8" y2="14.5" gradientUnits="userSpaceOnUse">
<stop stop-opacity="0"/>
<stop offset="1"/>
</linearGradient>
<linearGradient id="paint4_linear_4978_113" x1="8" y1="1.5" x2="8" y2="14.5" gradientUnits="userSpaceOnUse">
<stop stop-opacity="0"/>
<stop offset="1"/>
</linearGradient>
</defs>
</svg>
