<svg width="16" height="16" viewBox="0 0 16 16" fill="none" xmlns="http://www.w3.org/2000/svg">
<path fill-rule="evenodd" clip-rule="evenodd" d="M13.8707 5.12576C14.1749 4.84687 14.1767 4.38946 13.8745 4.10852C13.5768 3.83184 13.0957 3.83034 12.796 4.10501L5.94874 10.3817L3.20402 7.86569C2.90437 7.59101 2.42322 7.59251 2.12556 7.86919C1.82332 8.15014 1.82511 8.60754 2.12936 8.88643L5.41141 11.895C5.70961 12.1683 6.18787 12.1683 6.48608 11.895L13.8707 5.12576Z" fill="#F7F8FB" fill-opacity="0.64"/>
<path fill-rule="evenodd" clip-rule="evenodd" d="M13.8707 5.12576C14.1749 4.84687 14.1767 4.38946 13.8745 4.10852C13.5768 3.83184 13.0957 3.83034 12.796 4.10501L5.94874 10.3817L3.20402 7.86569C2.90437 7.59101 2.42322 7.59251 2.12556 7.86919C1.82332 8.15014 1.82511 8.60754 2.12936 8.88643L5.41141 11.895C5.70961 12.1683 6.18787 12.1683 6.48608 11.895L13.8707 5.12576Z" fill="url(#paint0_linear_4978_109)" fill-opacity="0.08"/>
<defs>
<linearGradient id="paint0_linear_4978_109" x1="8.00002" y1="3.9" x2="8.00002" y2="12.1" gradientUnits="userSpaceOnUse">
<stop stop-opacity="0"/>
<stop offset="1"/>
</linearGradient>
</defs>
</svg>
