<svg width="16" height="16" viewBox="0 0 16 16" fill="none" xmlns="http://www.w3.org/2000/svg">
<path d="M12.8262 11.232L8 6.72731L3.17382 11.232C2.79096 11.5893 2.17359 11.5893 1.79073 11.232C1.40309 10.8702 1.40309 10.28 1.79073 9.91817L7.30845 4.76802C7.69131 4.41066 8.30869 4.41066 8.69155 4.76802L14.2093 9.91817C14.5969 10.28 14.5969 10.8702 14.2093 11.232C13.8264 11.5893 13.209 11.5893 12.8262 11.232Z" fill="#F7F8FB" fill-opacity="0.64"/>
<path d="M12.8262 11.232L8 6.72731L3.17382 11.232C2.79096 11.5893 2.17359 11.5893 1.79073 11.232C1.40309 10.8702 1.40309 10.28 1.79073 9.91817L7.30845 4.76802C7.69131 4.41066 8.30869 4.41066 8.69155 4.76802L14.2093 9.91817C14.5969 10.28 14.5969 10.8702 14.2093 11.232C13.8264 11.5893 13.209 11.5893 12.8262 11.232Z" fill="url(#paint0_linear_4978_87)" fill-opacity="0.08"/>
<defs>
<linearGradient id="paint0_linear_4978_87" x1="8" y1="4.5" x2="8" y2="11.5" gradientUnits="userSpaceOnUse">
<stop stop-opacity="0"/>
<stop offset="1"/>
</linearGradient>
</defs>
</svg>
