<svg width="16" height="16" viewBox="0 0 16 16" fill="none" xmlns="http://www.w3.org/2000/svg">
<path fill-rule="evenodd" clip-rule="evenodd" d="M8.49473 1.99457V14.0054C8.49473 14.2784 8.27305 14.5 7.99999 14.5C7.72693 14.5 7.50524 14.2784 7.50524 14.0054V1.99457C7.50524 1.72159 7.72693 1.5 7.99999 1.5C8.27305 1.5 8.49473 1.72159 8.49473 1.99457ZM10.4731 10.0751C10.4235 10.1552 10.3424 10.2108 10.2497 10.2283C10.1571 10.2457 10.0612 10.2234 9.98589 10.1667C9.98379 10.1662 9.98231 10.165 9.9807 10.1638C9.86814 10.0792 9.84019 9.92185 9.91663 9.80352C10.2615 9.26702 10.446 8.64118 10.446 8C10.446 7.37439 10.2704 6.76342 9.94198 6.23545C9.85318 6.09341 9.88781 5.90706 10.0216 5.80633C10.0213 5.80571 10.0213 5.80571 10.0213 5.80571C10.0869 5.75628 10.1703 5.7365 10.2513 5.75114C10.3322 5.76581 10.4033 5.81354 10.4476 5.88287C10.847 6.51458 11.0611 7.24837 11.0611 8C11.0611 8.73512 10.8563 9.4532 10.4731 10.0751ZM11.6298 11.0885C11.5562 11.2074 11.436 11.2898 11.2987 11.3156C11.1613 11.3414 11.0194 11.3082 10.9076 11.2243C10.9061 11.2246 10.9054 11.2241 10.9046 11.2235C10.7899 11.1372 10.7633 10.9759 10.8444 10.8574C11.4145 10.0155 11.7206 9.02053 11.7206 8C11.7206 6.9804 11.415 5.98624 10.8463 5.14463C10.7645 5.02498 10.7913 4.86222 10.9071 4.77512C10.9069 4.77479 10.9069 4.77479 10.9069 4.77479C11.0189 4.69057 11.1612 4.65733 11.2988 4.68319C11.4366 4.70908 11.5571 4.79168 11.6308 4.9108C12.2005 5.83691 12.5056 6.90574 12.5056 8C12.5056 9.09426 12.2005 10.1631 11.6298 11.0885ZM12.7164 12.2777C12.6469 12.3819 12.5375 12.4529 12.4141 12.474C12.2905 12.4951 12.1639 12.4644 12.0637 12.3891C12.0615 12.3885 12.0597 12.3872 12.058 12.3859C11.9045 12.2704 11.8691 12.0547 11.9777 11.8962C12.7562 10.7487 13.1743 9.39176 13.1743 8C13.1743 6.61027 12.7575 5.2553 11.9816 4.10853C11.8714 3.94739 11.9074 3.72806 12.0634 3.61072C12.0632 3.61024 12.0632 3.61021 12.0632 3.61021C12.1635 3.53478 12.2905 3.50401 12.4142 3.52512C12.5379 3.54626 12.6475 3.61742 12.7171 3.72184C13.5518 4.98897 14 6.47581 14 8C14 9.52419 13.5518 11.011 12.7164 12.2777ZM5.49015 5.98582C5.54703 5.88956 5.64226 5.82208 5.75196 5.80029C5.86165 5.7785 5.97544 5.80447 6.06482 5.87167C6.0669 5.87198 6.06837 5.87312 6.06984 5.87422C6.15517 5.9384 6.1753 6.05811 6.11563 6.14665C5.7501 6.69418 5.554 7.33892 5.554 8C5.554 8.65935 5.74907 9.30243 6.11249 9.84919C6.17355 9.94014 6.15281 10.063 6.06524 10.1288C6.06545 10.1291 6.06543 10.1291 6.06543 10.1291C5.97582 10.1965 5.86174 10.2225 5.75175 10.2007C5.64176 10.1789 5.5463 10.1112 5.48927 10.0147C5.13062 9.40654 4.93888 8.71127 4.93888 8C4.93888 7.28873 5.13062 6.59346 5.49015 5.98582ZM4.42588 4.82291C4.4876 4.72748 4.58623 4.66197 4.69815 4.64207C4.81009 4.62218 4.92525 4.64967 5.0161 4.71801C5.01742 4.71787 5.0182 4.71846 5.01898 4.71905C5.1751 4.83648 5.21314 5.05491 5.10588 5.21814C4.56766 6.04356 4.2794 7.00977 4.2794 8C4.2794 8.98933 4.56713 9.95466 5.1038 10.78C5.2116 10.9442 5.17328 11.164 5.01622 11.2821C5.01665 11.2827 5.01663 11.2827 5.01663 11.2827C4.92558 11.3512 4.81016 11.3788 4.69799 11.3588C4.58581 11.3389 4.48697 11.2732 4.42511 11.1776C3.81934 10.2316 3.4944 9.12933 3.4944 8C3.4944 6.87067 3.81934 5.76844 4.42588 4.82291ZM3.30309 3.69296C3.36804 3.59648 3.46977 3.53091 3.58449 3.51158C3.69921 3.49228 3.81681 3.52094 3.90979 3.59085C3.91224 3.59179 3.91425 3.59328 3.91627 3.59481C4.08374 3.72074 4.12287 3.9559 4.00521 4.12925C3.23765 5.27133 2.82565 6.6185 2.82565 8C2.82565 9.3791 3.23623 10.724 4.00071 11.8651C4.12029 12.0417 4.08033 12.281 3.90986 12.4092C3.91025 12.4097 3.91022 12.4097 3.91022 12.4097C3.8171 12.4798 3.69929 12.5085 3.58437 12.4892C3.46945 12.4698 3.36752 12.4041 3.30248 12.3075C2.4552 11.034 2 9.53598 2 8C2 6.46402 2.4552 4.96597 3.30309 3.69296Z" fill="#F7F8FB" fill-opacity="0.64"/>
<path fill-rule="evenodd" clip-rule="evenodd" d="M8.49473 1.99457V14.0054C8.49473 14.2784 8.27305 14.5 7.99999 14.5C7.72693 14.5 7.50524 14.2784 7.50524 14.0054V1.99457C7.50524 1.72159 7.72693 1.5 7.99999 1.5C8.27305 1.5 8.49473 1.72159 8.49473 1.99457ZM10.4731 10.0751C10.4235 10.1552 10.3424 10.2108 10.2497 10.2283C10.1571 10.2457 10.0612 10.2234 9.98589 10.1667C9.98379 10.1662 9.98231 10.165 9.9807 10.1638C9.86814 10.0792 9.84019 9.92185 9.91663 9.80352C10.2615 9.26702 10.446 8.64118 10.446 8C10.446 7.37439 10.2704 6.76342 9.94198 6.23545C9.85318 6.09341 9.88781 5.90706 10.0216 5.80633C10.0213 5.80571 10.0213 5.80571 10.0213 5.80571C10.0869 5.75628 10.1703 5.7365 10.2513 5.75114C10.3322 5.76581 10.4033 5.81354 10.4476 5.88287C10.847 6.51458 11.0611 7.24837 11.0611 8C11.0611 8.73512 10.8563 9.4532 10.4731 10.0751ZM11.6298 11.0885C11.5562 11.2074 11.436 11.2898 11.2987 11.3156C11.1613 11.3414 11.0194 11.3082 10.9076 11.2243C10.9061 11.2246 10.9054 11.2241 10.9046 11.2235C10.7899 11.1372 10.7633 10.9759 10.8444 10.8574C11.4145 10.0155 11.7206 9.02053 11.7206 8C11.7206 6.9804 11.415 5.98624 10.8463 5.14463C10.7645 5.02498 10.7913 4.86222 10.9071 4.77512C10.9069 4.77479 10.9069 4.77479 10.9069 4.77479C11.0189 4.69057 11.1612 4.65733 11.2988 4.68319C11.4366 4.70908 11.5571 4.79168 11.6308 4.9108C12.2005 5.83691 12.5056 6.90574 12.5056 8C12.5056 9.09426 12.2005 10.1631 11.6298 11.0885ZM12.7164 12.2777C12.6469 12.3819 12.5375 12.4529 12.4141 12.474C12.2905 12.4951 12.1639 12.4644 12.0637 12.3891C12.0615 12.3885 12.0597 12.3872 12.058 12.3859C11.9045 12.2704 11.8691 12.0547 11.9777 11.8962C12.7562 10.7487 13.1743 9.39176 13.1743 8C13.1743 6.61027 12.7575 5.2553 11.9816 4.10853C11.8714 3.94739 11.9074 3.72806 12.0634 3.61072C12.0632 3.61024 12.0632 3.61021 12.0632 3.61021C12.1635 3.53478 12.2905 3.50401 12.4142 3.52512C12.5379 3.54626 12.6475 3.61742 12.7171 3.72184C13.5518 4.98897 14 6.47581 14 8C14 9.52419 13.5518 11.011 12.7164 12.2777ZM5.49015 5.98582C5.54703 5.88956 5.64226 5.82208 5.75196 5.80029C5.86165 5.7785 5.97544 5.80447 6.06482 5.87167C6.0669 5.87198 6.06837 5.87312 6.06984 5.87422C6.15517 5.9384 6.1753 6.05811 6.11563 6.14665C5.7501 6.69418 5.554 7.33892 5.554 8C5.554 8.65935 5.74907 9.30243 6.11249 9.84919C6.17355 9.94014 6.15281 10.063 6.06524 10.1288C6.06545 10.1291 6.06543 10.1291 6.06543 10.1291C5.97582 10.1965 5.86174 10.2225 5.75175 10.2007C5.64176 10.1789 5.5463 10.1112 5.48927 10.0147C5.13062 9.40654 4.93888 8.71127 4.93888 8C4.93888 7.28873 5.13062 6.59346 5.49015 5.98582ZM4.42588 4.82291C4.4876 4.72748 4.58623 4.66197 4.69815 4.64207C4.81009 4.62218 4.92525 4.64967 5.0161 4.71801C5.01742 4.71787 5.0182 4.71846 5.01898 4.71905C5.1751 4.83648 5.21314 5.05491 5.10588 5.21814C4.56766 6.04356 4.2794 7.00977 4.2794 8C4.2794 8.98933 4.56713 9.95466 5.1038 10.78C5.2116 10.9442 5.17328 11.164 5.01622 11.2821C5.01665 11.2827 5.01663 11.2827 5.01663 11.2827C4.92558 11.3512 4.81016 11.3788 4.69799 11.3588C4.58581 11.3389 4.48697 11.2732 4.42511 11.1776C3.81934 10.2316 3.4944 9.12933 3.4944 8C3.4944 6.87067 3.81934 5.76844 4.42588 4.82291ZM3.30309 3.69296C3.36804 3.59648 3.46977 3.53091 3.58449 3.51158C3.69921 3.49228 3.81681 3.52094 3.90979 3.59085C3.91224 3.59179 3.91425 3.59328 3.91627 3.59481C4.08374 3.72074 4.12287 3.9559 4.00521 4.12925C3.23765 5.27133 2.82565 6.6185 2.82565 8C2.82565 9.3791 3.23623 10.724 4.00071 11.8651C4.12029 12.0417 4.08033 12.281 3.90986 12.4092C3.91025 12.4097 3.91022 12.4097 3.91022 12.4097C3.8171 12.4798 3.69929 12.5085 3.58437 12.4892C3.46945 12.4698 3.36752 12.4041 3.30248 12.3075C2.4552 11.034 2 9.53598 2 8C2 6.46402 2.4552 4.96597 3.30309 3.69296Z" fill="url(#paint0_linear_4978_621)" fill-opacity="0.08"/>
<defs>
<linearGradient id="paint0_linear_4978_621" x1="8" y1="1.5" x2="8" y2="14.5" gradientUnits="userSpaceOnUse">
<stop stop-opacity="0"/>
<stop offset="1"/>
</linearGradient>
</defs>
</svg>
