<svg width="16" height="16" viewBox="0 0 16 16" fill="none" xmlns="http://www.w3.org/2000/svg">
<path d="M6.08196 1.5L8.59023 2.87776L10.6639 2.27866V6.20949C10.3477 6.22489 10.0342 6.30899 9.74753 6.46178V3.54294L8.48552 3.90752L6.08196 2.58715L3.67809 3.90752L2.41644 3.54294V7.72934C2.41626 7.97252 2.47997 8.23359 2.60563 8.50688C2.73054 8.77961 2.91669 9.06061 3.14382 9.33147C3.59717 9.87392 4.21306 10.3721 4.7824 10.7275C5.16096 10.9648 5.52159 11.1397 5.78185 11.2272C5.9286 11.278 6.04601 11.2965 6.08198 11.295C6.1049 11.2953 6.16486 11.289 6.24325 11.2686C6.32218 11.2487 6.42043 11.2163 6.53051 11.172C6.63691 11.1295 6.75425 11.076 6.87883 11.0129L6.26159 12.1606C6.24548 12.1906 6.23007 12.2206 6.21537 12.2508C6.17118 12.2556 6.12684 12.2583 6.08198 12.2586C5.95453 12.2582 5.83338 12.2373 5.70576 12.2055C5.5787 12.1732 5.44624 12.1284 5.30698 12.0725C5.02886 11.9609 4.72316 11.805 4.40509 11.6119C3.76969 11.2251 3.08653 10.6923 2.534 10.0597C2.16655 9.63709 1.8551 9.16957 1.66915 8.6546C1.56354 8.36061 1.5 8.04947 1.5 7.72932V2.27866L3.57317 2.87795L6.08196 1.5Z" fill="#F7F8FB" fill-opacity="0.64"/>
<path d="M6.08196 1.5L8.59023 2.87776L10.6639 2.27866V6.20949C10.3477 6.22489 10.0342 6.30899 9.74753 6.46178V3.54294L8.48552 3.90752L6.08196 2.58715L3.67809 3.90752L2.41644 3.54294V7.72934C2.41626 7.97252 2.47997 8.23359 2.60563 8.50688C2.73054 8.77961 2.91669 9.06061 3.14382 9.33147C3.59717 9.87392 4.21306 10.3721 4.7824 10.7275C5.16096 10.9648 5.52159 11.1397 5.78185 11.2272C5.9286 11.278 6.04601 11.2965 6.08198 11.295C6.1049 11.2953 6.16486 11.289 6.24325 11.2686C6.32218 11.2487 6.42043 11.2163 6.53051 11.172C6.63691 11.1295 6.75425 11.076 6.87883 11.0129L6.26159 12.1606C6.24548 12.1906 6.23007 12.2206 6.21537 12.2508C6.17118 12.2556 6.12684 12.2583 6.08198 12.2586C5.95453 12.2582 5.83338 12.2373 5.70576 12.2055C5.5787 12.1732 5.44624 12.1284 5.30698 12.0725C5.02886 11.9609 4.72316 11.805 4.40509 11.6119C3.76969 11.2251 3.08653 10.6923 2.534 10.0597C2.16655 9.63709 1.8551 9.16957 1.66915 8.6546C1.56354 8.36061 1.5 8.04947 1.5 7.72932V2.27866L3.57317 2.87795L6.08196 1.5Z" fill="url(#paint0_linear_4978_449)" fill-opacity="0.08"/>
<path d="M8.83125 4.66017V7.38251L8.82461 7.39477L7.86528 9.17862C7.23218 9.75425 6.45513 10.2203 6.08208 10.2866C5.39427 10.1643 3.33291 8.68317 3.33291 7.6615V4.66017L3.9633 4.84236L6.08208 3.67878L8.20035 4.84236L8.83125 4.66017Z" fill="#F7F8FB" fill-opacity="0.64"/>
<path d="M8.83125 4.66017V7.38251L8.82461 7.39477L7.86528 9.17862C7.23218 9.75425 6.45513 10.2203 6.08208 10.2866C5.39427 10.1643 3.33291 8.68317 3.33291 7.6615V4.66017L3.9633 4.84236L6.08208 3.67878L8.20035 4.84236L8.83125 4.66017Z" fill="url(#paint1_linear_4978_449)" fill-opacity="0.08"/>
<path fill-rule="evenodd" clip-rule="evenodd" d="M9.75225 7.94652C10.1961 7.12128 11.3449 7.12128 11.7887 7.94652L14.3518 12.7123C14.7831 13.5144 14.2216 14.5 13.3335 14.5H8.20749C7.31932 14.5 6.75791 13.5144 7.18924 12.7123L9.75225 7.94652ZM11.0317 9.34408C10.9498 9.3043 10.8607 9.2837 10.7705 9.2837C10.6803 9.2837 10.5912 9.3043 10.5093 9.34408C10.4275 9.38386 10.3548 9.44185 10.2965 9.51404C10.2381 9.58623 10.1954 9.67089 10.1714 9.76212C10.1474 9.85336 10.1425 9.949 10.1572 10.0424L10.4385 11.8138C10.4655 11.9841 10.6059 12.109 10.7705 12.109C10.935 12.109 11.0755 11.9841 11.1025 11.8138L11.3838 10.0424C11.3985 9.949 11.3936 9.85336 11.3696 9.76212C11.3455 9.67089 11.3029 9.58623 11.2445 9.51404C11.1862 9.44185 11.1135 9.38386 11.0317 9.34408ZM11.2193 13.051C11.2193 12.7908 11.0184 12.58 10.7705 12.58C10.5226 12.58 10.3217 12.7908 10.3217 13.051C10.3217 13.3111 10.5226 13.5219 10.7705 13.5219C11.0184 13.5219 11.2193 13.3111 11.2193 13.051Z" fill="#F7F8FB" fill-opacity="0.64"/>
<path fill-rule="evenodd" clip-rule="evenodd" d="M9.75225 7.94652C10.1961 7.12128 11.3449 7.12128 11.7887 7.94652L14.3518 12.7123C14.7831 13.5144 14.2216 14.5 13.3335 14.5H8.20749C7.31932 14.5 6.75791 13.5144 7.18924 12.7123L9.75225 7.94652ZM11.0317 9.34408C10.9498 9.3043 10.8607 9.2837 10.7705 9.2837C10.6803 9.2837 10.5912 9.3043 10.5093 9.34408C10.4275 9.38386 10.3548 9.44185 10.2965 9.51404C10.2381 9.58623 10.1954 9.67089 10.1714 9.76212C10.1474 9.85336 10.1425 9.949 10.1572 10.0424L10.4385 11.8138C10.4655 11.9841 10.6059 12.109 10.7705 12.109C10.935 12.109 11.0755 11.9841 11.1025 11.8138L11.3838 10.0424C11.3985 9.949 11.3936 9.85336 11.3696 9.76212C11.3455 9.67089 11.3029 9.58623 11.2445 9.51404C11.1862 9.44185 11.1135 9.38386 11.0317 9.34408ZM11.2193 13.051C11.2193 12.7908 11.0184 12.58 10.7705 12.58C10.5226 12.58 10.3217 12.7908 10.3217 13.051C10.3217 13.3111 10.5226 13.5219 10.7705 13.5219C11.0184 13.5219 11.2193 13.3111 11.2193 13.051Z" fill="url(#paint2_linear_4978_449)" fill-opacity="0.08"/>
<defs>
<linearGradient id="paint0_linear_4978_449" x1="8" y1="1.5" x2="8" y2="14.5" gradientUnits="userSpaceOnUse">
<stop stop-opacity="0"/>
<stop offset="1"/>
</linearGradient>
<linearGradient id="paint1_linear_4978_449" x1="8" y1="1.5" x2="8" y2="14.5" gradientUnits="userSpaceOnUse">
<stop stop-opacity="0"/>
<stop offset="1"/>
</linearGradient>
<linearGradient id="paint2_linear_4978_449" x1="8" y1="1.5" x2="8" y2="14.5" gradientUnits="userSpaceOnUse">
<stop stop-opacity="0"/>
<stop offset="1"/>
</linearGradient>
</defs>
</svg>
