<svg width="16" height="16" viewBox="0 0 16 16" fill="none" xmlns="http://www.w3.org/2000/svg">
<path d="M11.9731 6.76223H11.9454V5.50571C11.9454 3.32065 10.1554 1.46359 7.97223 1.50054C5.8492 1.5375 4.12858 3.27446 4.12858 5.40408V5.52418C4.12858 5.70435 4.27659 5.85217 4.45698 5.85217H5.50693C5.68732 5.85217 5.83533 5.70435 5.83533 5.52418V5.48723C5.83533 4.31386 6.71877 3.28369 7.8936 3.20978C9.17019 3.13125 10.234 4.14293 10.234 5.39946V6.75761H6.99629V6.76223H4.0037C3.44866 6.78071 3 7.2288 3 7.78777V13.4698C3 14.038 3.46253 14.5 4.03145 14.5H11.9685C12.5374 14.5 13 14.038 13 13.4698V7.79239C13.0046 7.22418 12.5421 6.76223 11.9731 6.76223ZM8.61515 10.8875C8.53652 10.9429 8.51339 11.003 8.51339 11.0954C8.51802 11.5111 8.51802 11.9269 8.51339 12.3473C8.52264 12.5228 8.43476 12.6891 8.2775 12.7677C7.9121 12.9524 7.5467 12.6938 7.5467 12.3473C7.5467 12.3473 7.5467 12.3473 7.5467 12.3427C7.5467 11.9269 7.5467 11.5065 7.5467 11.0908C7.5467 11.0076 7.5282 10.9476 7.45419 10.8921C7.07492 10.6149 6.95003 10.1391 7.13967 9.71875C7.32468 9.31223 7.77334 9.07201 8.19425 9.15978C8.66603 9.25217 8.99443 9.6356 8.99905 10.1022C9.01293 10.4302 8.8788 10.6981 8.61515 10.8875Z" fill="#F7F8FB" fill-opacity="0.64"/>
<path d="M11.9731 6.76223H11.9454V5.50571C11.9454 3.32065 10.1554 1.46359 7.97223 1.50054C5.8492 1.5375 4.12858 3.27446 4.12858 5.40408V5.52418C4.12858 5.70435 4.27659 5.85217 4.45698 5.85217H5.50693C5.68732 5.85217 5.83533 5.70435 5.83533 5.52418V5.48723C5.83533 4.31386 6.71877 3.28369 7.8936 3.20978C9.17019 3.13125 10.234 4.14293 10.234 5.39946V6.75761H6.99629V6.76223H4.0037C3.44866 6.78071 3 7.2288 3 7.78777V13.4698C3 14.038 3.46253 14.5 4.03145 14.5H11.9685C12.5374 14.5 13 14.038 13 13.4698V7.79239C13.0046 7.22418 12.5421 6.76223 11.9731 6.76223ZM8.61515 10.8875C8.53652 10.9429 8.51339 11.003 8.51339 11.0954C8.51802 11.5111 8.51802 11.9269 8.51339 12.3473C8.52264 12.5228 8.43476 12.6891 8.2775 12.7677C7.9121 12.9524 7.5467 12.6938 7.5467 12.3473C7.5467 12.3473 7.5467 12.3473 7.5467 12.3427C7.5467 11.9269 7.5467 11.5065 7.5467 11.0908C7.5467 11.0076 7.5282 10.9476 7.45419 10.8921C7.07492 10.6149 6.95003 10.1391 7.13967 9.71875C7.32468 9.31223 7.77334 9.07201 8.19425 9.15978C8.66603 9.25217 8.99443 9.6356 8.99905 10.1022C9.01293 10.4302 8.8788 10.6981 8.61515 10.8875Z" fill="url(#paint0_linear_4978_173)" fill-opacity="0.08"/>
<defs>
<linearGradient id="paint0_linear_4978_173" x1="8" y1="1.5" x2="8" y2="14.5" gradientUnits="userSpaceOnUse">
<stop stop-opacity="0"/>
<stop offset="1"/>
</linearGradient>
</defs>
</svg>
