<svg width="16" height="16" viewBox="0 0 16 16" fill="none" xmlns="http://www.w3.org/2000/svg">
<path d="M13.2406 6.15004H12.9153V4.64371C12.9153 4.63425 12.9137 4.62486 12.9124 4.61526C12.9119 4.55551 12.892 4.49671 12.8493 4.45024L10.2368 1.58718C10.2361 1.58638 10.2353 1.58614 10.2347 1.5854C10.2192 1.56864 10.201 1.55477 10.1818 1.54282C10.1761 1.5391 10.1704 1.53604 10.1644 1.53289C10.1478 1.52423 10.1302 1.51695 10.112 1.51171C10.1071 1.51048 10.1027 1.50854 10.0978 1.50726C10.078 1.5028 10.0575 1.5 10.0368 1.5H3.61617C3.32298 1.5 3.08481 1.72878 3.08481 2.00981V6.14989H2.75951C2.34008 6.14989 2 6.47605 2 6.8785V10.6676C2 11.0699 2.34008 11.3964 2.75951 11.3964H3.08481V13.9902C3.08481 14.2713 3.32298 14.5 3.61617 14.5H12.3839C12.6768 14.5 12.9153 14.2713 12.9153 13.9902V11.3964H13.2406C13.6599 11.3964 14 11.07 14 10.6677V6.87865C14 6.47607 13.6599 6.15004 13.2406 6.15004ZM3.61617 2.00981H9.77109V4.61806C9.77109 4.7589 9.89016 4.87297 10.0368 4.87297H12.3839V6.15001H3.61617V2.00981ZM7.61629 8.92551C6.95694 8.70522 6.52735 8.35521 6.52735 7.80191C6.52735 7.15216 7.09232 6.65511 8.02826 6.65511C8.47574 6.65511 8.80542 6.74547 9.04071 6.84732L8.84078 7.54203C8.68187 7.46836 8.39935 7.36107 8.01066 7.36107C7.62224 7.36107 7.43388 7.53058 7.43388 7.72822C7.43388 7.97118 7.65746 8.0784 8.16984 8.26483C8.87024 8.51329 9.19992 8.86325 9.19992 9.39992C9.19992 10.0379 8.68783 10.5804 7.59869 10.5804C7.1455 10.5804 6.69792 10.4671 6.47431 10.3487L6.6567 9.63702C6.8982 9.75591 7.26897 9.87427 7.65175 9.87427C8.06375 9.87427 8.28164 9.71048 8.28164 9.46181C8.28152 9.22447 8.09303 9.08906 7.61629 8.92551ZM2.94192 8.67684C2.94192 7.37798 3.90757 6.65511 5.10814 6.65511C5.57329 6.65511 5.92647 6.74547 6.08552 6.82461L5.90284 7.50784C5.72046 7.43472 5.4671 7.36702 5.14931 7.36702C4.43703 7.36702 3.88384 7.77899 3.88384 8.626C3.88384 9.38847 4.35466 9.86841 5.15549 9.86841C5.42603 9.86841 5.72629 9.81203 5.90284 9.74422L6.03835 10.4163C5.87346 10.4955 5.50271 10.5804 5.01996 10.5804C3.64838 10.5804 2.94192 9.76115 2.94192 8.67684ZM12.3839 13.852H3.61617V11.3964H12.3839V13.852ZM11.7904 10.5236H10.7425L9.47105 6.71732H10.4543L10.9369 8.32709C11.0723 8.77867 11.1958 9.21352 11.2902 9.68798H11.3078C11.4078 9.23042 11.5313 8.77865 11.6667 8.34378L12.173 6.71732H13.127L11.7904 10.5236Z" fill="#F7F8FB" fill-opacity="0.64"/>
<path d="M13.2406 6.15004H12.9153V4.64371C12.9153 4.63425 12.9137 4.62486 12.9124 4.61526C12.9119 4.55551 12.892 4.49671 12.8493 4.45024L10.2368 1.58718C10.2361 1.58638 10.2353 1.58614 10.2347 1.5854C10.2192 1.56864 10.201 1.55477 10.1818 1.54282C10.1761 1.5391 10.1704 1.53604 10.1644 1.53289C10.1478 1.52423 10.1302 1.51695 10.112 1.51171C10.1071 1.51048 10.1027 1.50854 10.0978 1.50726C10.078 1.5028 10.0575 1.5 10.0368 1.5H3.61617C3.32298 1.5 3.08481 1.72878 3.08481 2.00981V6.14989H2.75951C2.34008 6.14989 2 6.47605 2 6.8785V10.6676C2 11.0699 2.34008 11.3964 2.75951 11.3964H3.08481V13.9902C3.08481 14.2713 3.32298 14.5 3.61617 14.5H12.3839C12.6768 14.5 12.9153 14.2713 12.9153 13.9902V11.3964H13.2406C13.6599 11.3964 14 11.07 14 10.6677V6.87865C14 6.47607 13.6599 6.15004 13.2406 6.15004ZM3.61617 2.00981H9.77109V4.61806C9.77109 4.7589 9.89016 4.87297 10.0368 4.87297H12.3839V6.15001H3.61617V2.00981ZM7.61629 8.92551C6.95694 8.70522 6.52735 8.35521 6.52735 7.80191C6.52735 7.15216 7.09232 6.65511 8.02826 6.65511C8.47574 6.65511 8.80542 6.74547 9.04071 6.84732L8.84078 7.54203C8.68187 7.46836 8.39935 7.36107 8.01066 7.36107C7.62224 7.36107 7.43388 7.53058 7.43388 7.72822C7.43388 7.97118 7.65746 8.0784 8.16984 8.26483C8.87024 8.51329 9.19992 8.86325 9.19992 9.39992C9.19992 10.0379 8.68783 10.5804 7.59869 10.5804C7.1455 10.5804 6.69792 10.4671 6.47431 10.3487L6.6567 9.63702C6.8982 9.75591 7.26897 9.87427 7.65175 9.87427C8.06375 9.87427 8.28164 9.71048 8.28164 9.46181C8.28152 9.22447 8.09303 9.08906 7.61629 8.92551ZM2.94192 8.67684C2.94192 7.37798 3.90757 6.65511 5.10814 6.65511C5.57329 6.65511 5.92647 6.74547 6.08552 6.82461L5.90284 7.50784C5.72046 7.43472 5.4671 7.36702 5.14931 7.36702C4.43703 7.36702 3.88384 7.77899 3.88384 8.626C3.88384 9.38847 4.35466 9.86841 5.15549 9.86841C5.42603 9.86841 5.72629 9.81203 5.90284 9.74422L6.03835 10.4163C5.87346 10.4955 5.50271 10.5804 5.01996 10.5804C3.64838 10.5804 2.94192 9.76115 2.94192 8.67684ZM12.3839 13.852H3.61617V11.3964H12.3839V13.852ZM11.7904 10.5236H10.7425L9.47105 6.71732H10.4543L10.9369 8.32709C11.0723 8.77867 11.1958 9.21352 11.2902 9.68798H11.3078C11.4078 9.23042 11.5313 8.77865 11.6667 8.34378L12.173 6.71732H13.127L11.7904 10.5236Z" fill="url(#paint0_linear_4978_61)" fill-opacity="0.08"/>
<defs>
<linearGradient id="paint0_linear_4978_61" x1="8" y1="1.5" x2="8" y2="14.5" gradientUnits="userSpaceOnUse">
<stop stop-opacity="0"/>
<stop offset="1"/>
</linearGradient>
</defs>
</svg>
