<svg width="16" height="16" viewBox="0 0 16 16" fill="none" xmlns="http://www.w3.org/2000/svg">
<path d="M10.25 4.10289C9.56591 3.70793 8.78992 3.5 8 3.5V8L11.8971 10.25C12.2921 9.56591 12.5 8.78992 12.5 8C12.5 7.21009 12.2921 6.43409 11.8971 5.75C11.5022 5.06591 10.9341 4.49784 10.25 4.10289Z" fill="#F7F8FB" fill-opacity="0.64"/>
<path d="M10.25 4.10289C9.56591 3.70793 8.78992 3.5 8 3.5V8L11.8971 10.25C12.2921 9.56591 12.5 8.78992 12.5 8C12.5 7.21009 12.2921 6.43409 11.8971 5.75C11.5022 5.06591 10.9341 4.49784 10.25 4.10289Z" fill="url(#paint0_linear_4978_681)" fill-opacity="0.08"/>
<path fill-rule="evenodd" clip-rule="evenodd" d="M14.5 8C14.5 11.5899 11.5899 14.5 8 14.5C4.41015 14.5 1.5 11.5899 1.5 8C1.5 4.41015 4.41015 1.5 8 1.5C11.5899 1.5 14.5 4.41015 14.5 8ZM13.05 8C13.05 10.789 10.789 13.05 8 13.05C5.21096 13.05 2.95 10.789 2.95 8C2.95 5.21096 5.21096 2.95 8 2.95C10.789 2.95 13.05 5.21096 13.05 8Z" fill="#F7F8FB" fill-opacity="0.64"/>
<path fill-rule="evenodd" clip-rule="evenodd" d="M14.5 8C14.5 11.5899 11.5899 14.5 8 14.5C4.41015 14.5 1.5 11.5899 1.5 8C1.5 4.41015 4.41015 1.5 8 1.5C11.5899 1.5 14.5 4.41015 14.5 8ZM13.05 8C13.05 10.789 10.789 13.05 8 13.05C5.21096 13.05 2.95 10.789 2.95 8C2.95 5.21096 5.21096 2.95 8 2.95C10.789 2.95 13.05 5.21096 13.05 8Z" fill="url(#paint1_linear_4978_681)" fill-opacity="0.08"/>
<defs>
<linearGradient id="paint0_linear_4978_681" x1="8" y1="1.5" x2="8" y2="14.5" gradientUnits="userSpaceOnUse">
<stop stop-opacity="0"/>
<stop offset="1"/>
</linearGradient>
<linearGradient id="paint1_linear_4978_681" x1="8" y1="1.5" x2="8" y2="14.5" gradientUnits="userSpaceOnUse">
<stop stop-opacity="0"/>
<stop offset="1"/>
</linearGradient>
</defs>
</svg>
