<svg width="16" height="16" viewBox="0 0 16 16" fill="none" xmlns="http://www.w3.org/2000/svg">
<path fill-rule="evenodd" clip-rule="evenodd" d="M6.15953 4.02347C6.46389 4.36841 6.44333 4.90617 6.1136 5.22459L3.4624 7.78479L6.1579 10.8216C6.46324 11.1656 6.44419 11.7034 6.11537 12.0229C5.78654 12.3423 5.27244 12.3224 4.96711 11.9784L1.71711 8.31684C1.57019 8.15132 1.49229 7.93144 1.5006 7.70574C1.50891 7.48004 1.60275 7.26707 1.7614 7.11387L5.0114 3.97542C5.34113 3.65701 5.85516 3.67852 6.15953 4.02347ZM9.84047 4.02347C10.1448 3.67852 10.6589 3.65701 10.9886 3.97542L14.2386 7.11387C14.3972 7.26707 14.4911 7.48004 14.4994 7.70574C14.5077 7.93144 14.4298 8.15132 14.2829 8.31684L11.0329 11.9784C10.7276 12.3224 10.2135 12.3423 9.88463 12.0229C9.55581 11.7034 9.53676 11.1656 9.8421 10.8216L12.5376 7.78479L9.8864 5.22459C9.55667 4.90617 9.53611 4.36841 9.84047 4.02347Z" fill="#F7F8FB" fill-opacity="0.64"/>
<path fill-rule="evenodd" clip-rule="evenodd" d="M6.15953 4.02347C6.46389 4.36841 6.44333 4.90617 6.1136 5.22459L3.4624 7.78479L6.1579 10.8216C6.46324 11.1656 6.44419 11.7034 6.11537 12.0229C5.78654 12.3423 5.27244 12.3224 4.96711 11.9784L1.71711 8.31684C1.57019 8.15132 1.49229 7.93144 1.5006 7.70574C1.50891 7.48004 1.60275 7.26707 1.7614 7.11387L5.0114 3.97542C5.34113 3.65701 5.85516 3.67852 6.15953 4.02347ZM9.84047 4.02347C10.1448 3.67852 10.6589 3.65701 10.9886 3.97542L14.2386 7.11387C14.3972 7.26707 14.4911 7.48004 14.4994 7.70574C14.5077 7.93144 14.4298 8.15132 14.2829 8.31684L11.0329 11.9784C10.7276 12.3224 10.2135 12.3423 9.88463 12.0229C9.55581 11.7034 9.53676 11.1656 9.8421 10.8216L12.5376 7.78479L9.8864 5.22459C9.55667 4.90617 9.53611 4.36841 9.84047 4.02347Z" fill="url(#paint0_linear_4978_545)" fill-opacity="0.08"/>
<defs>
<linearGradient id="paint0_linear_4978_545" x1="8" y1="3.75" x2="8" y2="12.25" gradientUnits="userSpaceOnUse">
<stop stop-opacity="0"/>
<stop offset="1"/>
</linearGradient>
</defs>
</svg>
