<svg width="16" height="16" viewBox="0 0 16 16" fill="none" xmlns="http://www.w3.org/2000/svg">
<path d="M8.65313 6.81517C8.94752 6.52046 9.4854 6.47856 9.78 6.87772C9.92927 7.08017 10.054 7.30109 10.1507 7.53453C10.3071 7.91216 10.3881 8.31708 10.3881 8.7258C10.388 9.13454 10.3071 9.53944 10.1507 9.91707C9.99426 10.2947 9.76458 10.6381 9.47552 10.9271L6.81517 13.5884C6.52609 13.8773 6.18181 14.1063 5.8042 14.2627C5.42652 14.419 5.02169 14.5001 4.61294 14.5C3.7873 14.4998 2.99533 14.1714 2.41162 13.5875C1.82799 13.0036 1.49995 12.2117 1.5 11.3861C1.50015 10.5605 1.8287 9.76856 2.41254 9.18483L3.57345 8.02392C3.88091 7.71656 4.37906 7.71657 4.68653 8.02392C4.99412 8.33151 4.99427 8.83046 4.68653 9.13791L3.52562 10.2979C3.23723 10.5864 3.07498 10.9773 3.07487 11.3852C3.07487 11.7933 3.23711 12.1849 3.52562 12.4735C3.8142 12.762 4.20574 12.9242 4.61386 12.9242C5.0219 12.9242 5.41356 12.762 5.70209 12.4735L8.36336 9.81404C8.50619 9.67118 8.61905 9.50117 8.69636 9.31453C8.77368 9.12786 8.81411 8.92785 8.81411 8.7258C8.8141 8.52374 8.77369 8.32374 8.69636 8.13706C8.66125 8.0523 8.61877 7.97104 8.56942 7.89421C8.37811 7.5966 8.3356 7.13308 8.65313 6.81517Z" fill="#F7F8FB" fill-opacity="0.64"/>
<path d="M8.65313 6.81517C8.94752 6.52046 9.4854 6.47856 9.78 6.87772C9.92927 7.08017 10.054 7.30109 10.1507 7.53453C10.3071 7.91216 10.3881 8.31708 10.3881 8.7258C10.388 9.13454 10.3071 9.53944 10.1507 9.91707C9.99426 10.2947 9.76458 10.6381 9.47552 10.9271L6.81517 13.5884C6.52609 13.8773 6.18181 14.1063 5.8042 14.2627C5.42652 14.419 5.02169 14.5001 4.61294 14.5C3.7873 14.4998 2.99533 14.1714 2.41162 13.5875C1.82799 13.0036 1.49995 12.2117 1.5 11.3861C1.50015 10.5605 1.8287 9.76856 2.41254 9.18483L3.57345 8.02392C3.88091 7.71656 4.37906 7.71657 4.68653 8.02392C4.99412 8.33151 4.99427 8.83046 4.68653 9.13791L3.52562 10.2979C3.23723 10.5864 3.07498 10.9773 3.07487 11.3852C3.07487 11.7933 3.23711 12.1849 3.52562 12.4735C3.8142 12.762 4.20574 12.9242 4.61386 12.9242C5.0219 12.9242 5.41356 12.762 5.70209 12.4735L8.36336 9.81404C8.50619 9.67118 8.61905 9.50117 8.69636 9.31453C8.77368 9.12786 8.81411 8.92785 8.81411 8.7258C8.8141 8.52374 8.77369 8.32374 8.69636 8.13706C8.66125 8.0523 8.61877 7.97104 8.56942 7.89421C8.37811 7.5966 8.3356 7.13308 8.65313 6.81517Z" fill="url(#paint0_linear_4978_263)" fill-opacity="0.08"/>
<path d="M11.3871 1.5C12.2127 1.50019 13.0047 1.82862 13.5884 2.41254C14.172 2.99641 14.5001 3.78832 14.5 4.61386C14.4999 5.43946 14.1713 6.23144 13.5875 6.81517L12.4265 7.97608C12.1191 8.28344 11.6209 8.28343 11.3135 7.97608C11.0059 7.66849 11.0057 7.16954 11.3135 6.86209L12.4744 5.70209C12.7628 5.41363 12.925 5.02267 12.9251 4.61477C12.9251 4.20671 12.7629 3.81511 12.4744 3.52654C12.1858 3.23795 11.7943 3.07579 11.3861 3.07579C10.9781 3.07584 10.5864 3.238 10.2979 3.52654L7.63664 6.18596C7.49381 6.32882 7.38095 6.49883 7.30364 6.68547C7.22632 6.87214 7.18589 7.07215 7.18589 7.2742C7.1859 7.47626 7.22631 7.67626 7.30364 7.86294C7.33875 7.9477 7.38123 8.02896 7.43058 8.10579C7.62189 8.4034 7.6644 8.86692 7.34687 9.18483C7.05248 9.47954 6.5146 9.52144 6.22 9.12228C6.07073 8.91983 5.94598 8.69891 5.84928 8.46547C5.69291 8.08784 5.61194 7.68292 5.61194 7.2742C5.61198 6.86546 5.69285 6.46056 5.84928 6.08293C6.00574 5.70528 6.23542 5.36193 6.52448 5.07288L9.18483 2.41162C9.76876 1.82808 10.5615 1.49985 11.3871 1.5Z" fill="#F7F8FB" fill-opacity="0.64"/>
<path d="M11.3871 1.5C12.2127 1.50019 13.0047 1.82862 13.5884 2.41254C14.172 2.99641 14.5001 3.78832 14.5 4.61386C14.4999 5.43946 14.1713 6.23144 13.5875 6.81517L12.4265 7.97608C12.1191 8.28344 11.6209 8.28343 11.3135 7.97608C11.0059 7.66849 11.0057 7.16954 11.3135 6.86209L12.4744 5.70209C12.7628 5.41363 12.925 5.02267 12.9251 4.61477C12.9251 4.20671 12.7629 3.81511 12.4744 3.52654C12.1858 3.23795 11.7943 3.07579 11.3861 3.07579C10.9781 3.07584 10.5864 3.238 10.2979 3.52654L7.63664 6.18596C7.49381 6.32882 7.38095 6.49883 7.30364 6.68547C7.22632 6.87214 7.18589 7.07215 7.18589 7.2742C7.1859 7.47626 7.22631 7.67626 7.30364 7.86294C7.33875 7.9477 7.38123 8.02896 7.43058 8.10579C7.62189 8.4034 7.6644 8.86692 7.34687 9.18483C7.05248 9.47954 6.5146 9.52144 6.22 9.12228C6.07073 8.91983 5.94598 8.69891 5.84928 8.46547C5.69291 8.08784 5.61194 7.68292 5.61194 7.2742C5.61198 6.86546 5.69285 6.46056 5.84928 6.08293C6.00574 5.70528 6.23542 5.36193 6.52448 5.07288L9.18483 2.41162C9.76876 1.82808 10.5615 1.49985 11.3871 1.5Z" fill="url(#paint1_linear_4978_263)" fill-opacity="0.08"/>
<defs>
<linearGradient id="paint0_linear_4978_263" x1="8" y1="1.5" x2="8" y2="14.5" gradientUnits="userSpaceOnUse">
<stop stop-opacity="0"/>
<stop offset="1"/>
</linearGradient>
<linearGradient id="paint1_linear_4978_263" x1="8" y1="1.5" x2="8" y2="14.5" gradientUnits="userSpaceOnUse">
<stop stop-opacity="0"/>
<stop offset="1"/>
</linearGradient>
</defs>
</svg>
