<svg width="16" height="16" viewBox="0 0 16 16" fill="none" xmlns="http://www.w3.org/2000/svg">
<path d="M8.00012 1.5C7.63641 1.5 7.30517 1.71158 7.15051 2.04299L5.68024 5.1937L2.29682 5.71281C1.94935 5.76644 1.66073 6.01154 1.54869 6.3463C1.43666 6.68232 1.5215 7.05186 1.76668 7.30408L4.24528 9.85984L3.67008 13.4035C3.61203 13.7605 3.76182 14.1187 4.05531 14.3278C4.21646 14.4422 4.40603 14.5 4.596 14.5C4.75229 14.5 4.90857 14.461 5.05024 14.3823L7.99972 12.7432L10.9492 14.3823C11.0909 14.4606 11.2476 14.5 11.403 14.5C11.593 14.5 11.7822 14.4422 11.9441 14.3278C12.2372 14.1192 12.387 13.7609 12.3285 13.4035L11.7533 9.85984L14.2336 7.30408C14.4792 7.05228 14.5632 6.6819 14.4511 6.3463C14.3391 6.0107 14.0501 5.76602 13.703 5.71281L10.3204 5.1937L8.84933 2.04299C8.69589 1.71158 8.36465 1.5 8.00012 1.5Z" fill="#F7F8FB" fill-opacity="0.64"/>
<path d="M8.00012 1.5C7.63641 1.5 7.30517 1.71158 7.15051 2.04299L5.68024 5.1937L2.29682 5.71281C1.94935 5.76644 1.66073 6.01154 1.54869 6.3463C1.43666 6.68232 1.5215 7.05186 1.76668 7.30408L4.24528 9.85984L3.67008 13.4035C3.61203 13.7605 3.76182 14.1187 4.05531 14.3278C4.21646 14.4422 4.40603 14.5 4.596 14.5C4.75229 14.5 4.90857 14.461 5.05024 14.3823L7.99972 12.7432L10.9492 14.3823C11.0909 14.4606 11.2476 14.5 11.403 14.5C11.593 14.5 11.7822 14.4422 11.9441 14.3278C12.2372 14.1192 12.387 13.7609 12.3285 13.4035L11.7533 9.85984L14.2336 7.30408C14.4792 7.05228 14.5632 6.6819 14.4511 6.3463C14.3391 6.0107 14.0501 5.76602 13.703 5.71281L10.3204 5.1937L8.84933 2.04299C8.69589 1.71158 8.36465 1.5 8.00012 1.5Z" fill="url(#paint0_linear_4978_385)" fill-opacity="0.08"/>
<defs>
<linearGradient id="paint0_linear_4978_385" x1="8" y1="1.5" x2="8" y2="14.5" gradientUnits="userSpaceOnUse">
<stop stop-opacity="0"/>
<stop offset="1"/>
</linearGradient>
</defs>
</svg>
