<svg width="16" height="16" viewBox="0 0 16 16" fill="none" xmlns="http://www.w3.org/2000/svg">
<path d="M14.3636 7.37813H13.0591C12.9138 6.25344 12.4012 5.20859 11.6011 4.40668C10.801 3.60477 9.7585 3.09091 8.63636 2.94533V1.63781C8.63636 1.46865 8.56932 1.30642 8.44998 1.18681C8.33064 1.0672 8.16877 1 8 1C7.83123 1 7.66936 1.0672 7.55002 1.18681C7.43068 1.30642 7.36364 1.46865 7.36364 1.63781V2.91344C6.23678 3.06056 5.19071 3.57904 4.39006 4.38729C3.5894 5.19554 3.07961 6.24768 2.94091 7.37813H1.63636C1.46759 7.37813 1.30573 7.44533 1.18639 7.56494C1.06705 7.68456 1 7.84679 1 8.01595C1 8.1851 1.06705 8.34733 1.18639 8.46695C1.30573 8.58656 1.46759 8.65376 1.63636 8.65376H2.94091C3.08616 9.77845 3.59885 10.8233 4.39894 11.6252C5.19903 12.4271 6.2415 12.941 7.36364 13.0866V14.3622C7.36364 14.5313 7.43068 14.6936 7.55002 14.8132C7.66936 14.9328 7.83123 15 8 15C8.16877 15 8.33064 14.9328 8.44998 14.8132C8.56932 14.6936 8.63636 14.5313 8.63636 14.3622V13.1185C9.76322 12.9713 10.8093 12.4528 11.6099 11.6446C12.4106 10.8363 12.9204 9.78421 13.0591 8.65376H14.3636C14.5324 8.65376 14.6943 8.58656 14.8136 8.46695C14.933 8.34733 15 8.1851 15 8.01595C15 7.84679 14.933 7.68456 14.8136 7.56494C14.6943 7.44533 14.5324 7.37813 14.3636 7.37813ZM8 11.8428C7.24483 11.8428 6.50663 11.6184 5.87873 11.1979C5.25083 10.7774 4.76145 10.1797 4.47246 9.48043C4.18347 8.78116 4.10786 8.0117 4.25518 7.26936C4.40251 6.52702 4.76616 5.84513 5.30014 5.30993C5.83412 4.77473 6.51445 4.41026 7.25511 4.2626C7.99576 4.11494 8.76347 4.19072 9.46115 4.48037C10.1588 4.77002 10.7552 5.26052 11.1747 5.88984C11.5942 6.51917 11.8182 7.25906 11.8182 8.01595C11.8182 9.0309 11.4159 10.0043 10.6999 10.722C9.98381 11.4396 9.01264 11.8428 8 11.8428Z" fill="#F7F8FB" fill-opacity="0.64"/>
<path d="M14.3636 7.37813H13.0591C12.9138 6.25344 12.4012 5.20859 11.6011 4.40668C10.801 3.60477 9.7585 3.09091 8.63636 2.94533V1.63781C8.63636 1.46865 8.56932 1.30642 8.44998 1.18681C8.33064 1.0672 8.16877 1 8 1C7.83123 1 7.66936 1.0672 7.55002 1.18681C7.43068 1.30642 7.36364 1.46865 7.36364 1.63781V2.91344C6.23678 3.06056 5.19071 3.57904 4.39006 4.38729C3.5894 5.19554 3.07961 6.24768 2.94091 7.37813H1.63636C1.46759 7.37813 1.30573 7.44533 1.18639 7.56494C1.06705 7.68456 1 7.84679 1 8.01595C1 8.1851 1.06705 8.34733 1.18639 8.46695C1.30573 8.58656 1.46759 8.65376 1.63636 8.65376H2.94091C3.08616 9.77845 3.59885 10.8233 4.39894 11.6252C5.19903 12.4271 6.2415 12.941 7.36364 13.0866V14.3622C7.36364 14.5313 7.43068 14.6936 7.55002 14.8132C7.66936 14.9328 7.83123 15 8 15C8.16877 15 8.33064 14.9328 8.44998 14.8132C8.56932 14.6936 8.63636 14.5313 8.63636 14.3622V13.1185C9.76322 12.9713 10.8093 12.4528 11.6099 11.6446C12.4106 10.8363 12.9204 9.78421 13.0591 8.65376H14.3636C14.5324 8.65376 14.6943 8.58656 14.8136 8.46695C14.933 8.34733 15 8.1851 15 8.01595C15 7.84679 14.933 7.68456 14.8136 7.56494C14.6943 7.44533 14.5324 7.37813 14.3636 7.37813ZM8 11.8428C7.24483 11.8428 6.50663 11.6184 5.87873 11.1979C5.25083 10.7774 4.76145 10.1797 4.47246 9.48043C4.18347 8.78116 4.10786 8.0117 4.25518 7.26936C4.40251 6.52702 4.76616 5.84513 5.30014 5.30993C5.83412 4.77473 6.51445 4.41026 7.25511 4.2626C7.99576 4.11494 8.76347 4.19072 9.46115 4.48037C10.1588 4.77002 10.7552 5.26052 11.1747 5.88984C11.5942 6.51917 11.8182 7.25906 11.8182 8.01595C11.8182 9.0309 11.4159 10.0043 10.6999 10.722C9.98381 11.4396 9.01264 11.8428 8 11.8428Z" fill="url(#paint0_linear_4978_599)" fill-opacity="0.08"/>
<path d="M8 10.2483C9.23009 10.2483 10.2273 9.24884 10.2273 8.01595C10.2273 6.78305 9.23009 5.7836 8 5.7836C6.76991 5.7836 5.77273 6.78305 5.77273 8.01595C5.77273 9.24884 6.76991 10.2483 8 10.2483Z" fill="#F7F8FB" fill-opacity="0.64"/>
<path d="M8 10.2483C9.23009 10.2483 10.2273 9.24884 10.2273 8.01595C10.2273 6.78305 9.23009 5.7836 8 5.7836C6.76991 5.7836 5.77273 6.78305 5.77273 8.01595C5.77273 9.24884 6.76991 10.2483 8 10.2483Z" fill="url(#paint1_linear_4978_599)" fill-opacity="0.08"/>
<defs>
<linearGradient id="paint0_linear_4978_599" x1="8" y1="1" x2="8" y2="15" gradientUnits="userSpaceOnUse">
<stop stop-opacity="0"/>
<stop offset="1"/>
</linearGradient>
<linearGradient id="paint1_linear_4978_599" x1="8" y1="1" x2="8" y2="15" gradientUnits="userSpaceOnUse">
<stop stop-opacity="0"/>
<stop offset="1"/>
</linearGradient>
</defs>
</svg>
