<svg width="16" height="16" viewBox="0 0 16 16" fill="none" xmlns="http://www.w3.org/2000/svg">
<path d="M13.7961 14.5018H3.23539C2.80795 14.5018 2.52534 14.5018 2.23655 14.3543C1.98132 14.2236 1.77731 14.0204 1.6466 13.7643C1.5 13.4764 1.5 13.1938 1.5 12.7655V2.20476C1.5 1.81529 1.81529 1.5 2.20476 1.5C2.59423 1.5 2.90951 1.81529 2.90951 2.20476V12.7655C2.90951 12.8838 2.90951 13.0057 2.91304 13.087C2.99429 13.0905 3.11617 13.0905 3.23451 13.0905H13.7952C14.1847 13.0905 14.5 13.4058 14.5 13.7952C14.5 14.1847 14.1847 14.5 13.7952 14.5L13.7961 14.5018ZM4.78091 10.638C4.60781 10.638 4.43471 10.5753 4.29871 10.4472C4.01433 10.1814 4.0002 9.73451 4.26603 9.45102L6.79008 6.7574C6.91814 6.62052 7.02853 6.50306 7.21223 6.41916C7.37385 6.34497 7.55401 6.31406 7.73152 6.32996C7.93288 6.34851 8.07683 6.42269 8.24198 6.50836L10.2123 7.53105L12.6374 4.94253C12.9033 4.65815 13.3501 4.64402 13.6336 4.90985C13.9171 5.17568 13.9321 5.62255 13.6663 5.90605L11.1423 8.59966C11.0142 8.73655 10.9038 8.85401 10.7201 8.93791C10.5576 9.01209 10.3783 9.043 10.2008 9.02711C9.99857 9.00856 9.8555 8.93438 9.68947 8.84871L7.71916 7.82602L5.29402 10.4145C5.15537 10.5629 4.96726 10.6371 4.77914 10.6371L4.78091 10.638Z" fill="#F7F8FB" fill-opacity="0.64"/>
<path d="M13.7961 14.5018H3.23539C2.80795 14.5018 2.52534 14.5018 2.23655 14.3543C1.98132 14.2236 1.77731 14.0204 1.6466 13.7643C1.5 13.4764 1.5 13.1938 1.5 12.7655V2.20476C1.5 1.81529 1.81529 1.5 2.20476 1.5C2.59423 1.5 2.90951 1.81529 2.90951 2.20476V12.7655C2.90951 12.8838 2.90951 13.0057 2.91304 13.087C2.99429 13.0905 3.11617 13.0905 3.23451 13.0905H13.7952C14.1847 13.0905 14.5 13.4058 14.5 13.7952C14.5 14.1847 14.1847 14.5 13.7952 14.5L13.7961 14.5018ZM4.78091 10.638C4.60781 10.638 4.43471 10.5753 4.29871 10.4472C4.01433 10.1814 4.0002 9.73451 4.26603 9.45102L6.79008 6.7574C6.91814 6.62052 7.02853 6.50306 7.21223 6.41916C7.37385 6.34497 7.55401 6.31406 7.73152 6.32996C7.93288 6.34851 8.07683 6.42269 8.24198 6.50836L10.2123 7.53105L12.6374 4.94253C12.9033 4.65815 13.3501 4.64402 13.6336 4.90985C13.9171 5.17568 13.9321 5.62255 13.6663 5.90605L11.1423 8.59966C11.0142 8.73655 10.9038 8.85401 10.7201 8.93791C10.5576 9.01209 10.3783 9.043 10.2008 9.02711C9.99857 9.00856 9.8555 8.93438 9.68947 8.84871L7.71916 7.82602L5.29402 10.4145C5.15537 10.5629 4.96726 10.6371 4.77914 10.6371L4.78091 10.638Z" fill="url(#paint0_linear_4978_623)" fill-opacity="0.08"/>
<path fill-rule="evenodd" clip-rule="evenodd" d="M3.23604 3.83015H2.90656V3.34718H3.23604V3.83015ZM5.61376 3.83015L4.4249 3.83015V3.34718H5.61376V3.83015ZM7.99147 3.83015L6.80261 3.83015V3.34718L7.99147 3.34718V3.83015ZM10.3692 3.83015H9.18033V3.34718L10.3692 3.34718V3.83015ZM12.7469 3.83015H11.5581V3.34718H12.7469V3.83015ZM14.4695 3.83015H13.9358V3.34718H14.4695V3.83015Z" fill="#F7F8FB" fill-opacity="0.64"/>
<path fill-rule="evenodd" clip-rule="evenodd" d="M3.23604 3.83015H2.90656V3.34718H3.23604V3.83015ZM5.61376 3.83015L4.4249 3.83015V3.34718H5.61376V3.83015ZM7.99147 3.83015L6.80261 3.83015V3.34718L7.99147 3.34718V3.83015ZM10.3692 3.83015H9.18033V3.34718L10.3692 3.34718V3.83015ZM12.7469 3.83015H11.5581V3.34718H12.7469V3.83015ZM14.4695 3.83015H13.9358V3.34718H14.4695V3.83015Z" fill="url(#paint1_linear_4978_623)" fill-opacity="0.08"/>
<defs>
<linearGradient id="paint0_linear_4978_623" x1="8" y1="1.5" x2="8" y2="14.5018" gradientUnits="userSpaceOnUse">
<stop stop-opacity="0"/>
<stop offset="1"/>
</linearGradient>
<linearGradient id="paint1_linear_4978_623" x1="8.68804" y1="3.34718" x2="8.68804" y2="3.83015" gradientUnits="userSpaceOnUse">
<stop stop-opacity="0"/>
<stop offset="1"/>
</linearGradient>
</defs>
</svg>
