<svg width="16" height="16" viewBox="0 0 16 16" fill="none" xmlns="http://www.w3.org/2000/svg">
<path d="M9.98895 5.03005L7.21684 8L9.98895 10.97C10.2089 11.2056 10.2089 11.5855 9.98895 11.8211C9.76629 12.0596 9.4031 12.0596 9.18045 11.8211L6.01112 8.42557C5.79121 8.18996 5.79121 7.81004 6.01112 7.57443L9.18045 4.17891C9.4031 3.94036 9.76629 3.94036 9.98895 4.17891C10.2089 4.41452 10.2089 4.79444 9.98895 5.03005Z" fill="#F7F8FB" fill-opacity="0.64"/>
<path d="M9.98895 5.03005L7.21684 8L9.98895 10.97C10.2089 11.2056 10.2089 11.5855 9.98895 11.8211C9.76629 12.0596 9.4031 12.0596 9.18045 11.8211L6.01112 8.42557C5.79121 8.18996 5.79121 7.81004 6.01112 7.57443L9.18045 4.17891C9.4031 3.94036 9.76629 3.94036 9.98895 4.17891C10.2089 4.41452 10.2089 4.79444 9.98895 5.03005Z" fill="url(#paint0_linear_6710_1077)" fill-opacity="0.08"/>
<defs>
<linearGradient id="paint0_linear_6710_1077" x1="8.00004" y1="4" x2="8.00004" y2="12" gradientUnits="userSpaceOnUse">
<stop stop-opacity="0"/>
<stop offset="1"/>
</linearGradient>
</defs>
</svg>
