<svg width="16" height="16" viewBox="0 0 16 16" fill="none" xmlns="http://www.w3.org/2000/svg">
<path d="M4.57275 6.41338L2.52165 8.46454C1.86414 9.13093 1.49688 10.0303 1.50002 10.9665C1.50316 11.9027 1.87643 12.7996 2.53839 13.4616C3.20035 14.1236 4.09726 14.4968 5.0334 14.5C5.96955 14.5031 6.86894 14.1359 7.53532 13.4783L8.21859 12.795C8.31098 12.7059 8.38469 12.5992 8.43541 12.4813C8.48614 12.3633 8.51288 12.2365 8.51405 12.1081C8.51523 11.9797 8.49082 11.8524 8.44226 11.7335C8.3937 11.6147 8.32196 11.5067 8.23122 11.4158C8.14048 11.325 8.03256 11.2532 7.91375 11.2045C7.79495 11.1558 7.66764 11.1313 7.53926 11.1323C7.41087 11.1334 7.28398 11.16 7.166 11.2106C7.04801 11.2613 6.94128 11.3349 6.85204 11.4272L6.16813 12.1111C6.01875 12.2618 5.84106 12.3816 5.64528 12.4635C5.4495 12.5454 5.23947 12.5878 5.02725 12.5883C4.81503 12.5888 4.60481 12.5473 4.40864 12.4664C4.21248 12.3854 4.03424 12.2665 3.88416 12.1164C3.73408 11.9664 3.61511 11.7882 3.53408 11.592C3.45306 11.3959 3.41157 11.1857 3.41201 10.9734C3.41244 10.7612 3.45479 10.5512 3.53662 10.3554C3.61844 10.1596 3.73814 9.98183 3.88884 9.8324L5.93994 7.78125C6.16169 7.55932 6.44339 7.40696 6.75049 7.34283C7.05759 7.27871 7.37672 7.30562 7.66875 7.42026C7.76735 7.45915 7.86473 7.50107 7.96075 7.54596L8.25984 7.68584C8.65949 7.86634 8.96761 7.94369 9.35888 7.55305C9.92096 6.99095 9.77464 6.47204 9.08944 5.99954C8.40687 5.52985 7.58135 5.31407 6.75626 5.38967C5.93116 5.46526 5.15861 5.82747 4.57275 6.41338ZM10.5694 10.9102C10.3291 10.9102 10.0973 10.9997 9.91941 11.1613C9.74148 11.3229 9.63012 11.545 9.60705 11.7843L9.60253 11.8771V13.1663C9.60266 13.4147 9.69831 13.6534 9.86966 13.8331C10.041 14.0128 10.2749 14.1197 10.523 14.1317C10.771 14.1436 11.0141 14.0596 11.2019 13.8972C11.3897 13.7348 11.5078 13.5063 11.5318 13.2592L11.5363 13.1663V11.8771C11.5363 11.6207 11.4345 11.3747 11.2531 11.1934C11.0718 11.0121 10.8259 10.9102 10.5694 10.9102ZM12.5032 9.62097C12.2549 9.62109 12.0162 9.71674 11.8365 9.8881C11.6567 10.0595 11.5499 10.2934 11.5379 10.5414C11.526 10.7894 11.6099 11.0326 11.7724 11.2204C11.9348 11.4082 12.1632 11.5263 12.4104 11.5503L12.5032 11.5548H13.1478C13.3962 11.5548 13.635 11.4593 13.8149 11.288C13.9947 11.1167 14.1017 10.8828 14.1137 10.6347C14.1258 10.3866 14.0419 10.1434 13.8794 9.95552C13.717 9.76763 13.4885 9.64945 13.2413 9.62548L13.1478 9.62097H12.5032ZM8.44677 2.53926L7.7635 3.22255C7.58212 3.40386 7.48018 3.64979 7.48012 3.90626C7.48006 4.16272 7.58188 4.40871 7.76318 4.5901C7.85295 4.67991 7.95953 4.75117 8.07684 4.79979C8.19415 4.84841 8.31988 4.87345 8.44687 4.87348C8.70333 4.87355 8.9493 4.77172 9.13069 4.59042L9.81396 3.90713C9.9633 3.75635 10.1409 3.63655 10.3367 3.55462C10.5325 3.47268 10.7425 3.43022 10.9547 3.42967C11.1669 3.42911 11.3771 3.47048 11.5733 3.5514C11.7695 3.63231 11.9478 3.75118 12.0979 3.90118C12.248 4.05118 12.367 4.22935 12.4481 4.42547C12.5292 4.62159 12.5708 4.8318 12.5704 5.04402C12.57 5.25624 12.5277 5.46629 12.446 5.66213C12.3642 5.85796 12.2445 6.03572 12.0939 6.18519L10.0428 8.23634C9.8211 8.45814 9.53951 8.61043 9.23254 8.67455C8.92558 8.73867 8.60657 8.71183 8.31463 8.59733C8.21107 8.55607 8.11352 8.51396 8.02199 8.47098L7.72354 8.33175C7.32389 8.15061 7.01577 8.07261 6.6245 8.46389C6.06241 9.02599 6.20809 9.54555 6.89394 10.0181C7.57658 10.4877 8.40214 10.7033 9.22724 10.6276C10.0523 10.5519 10.8249 10.1896 11.4106 9.60357L13.4617 7.55241C14.1266 6.88745 14.5001 5.98562 14.5 5.04529C14.4999 4.10496 14.1263 3.20317 13.4614 2.5383C12.7965 1.87343 11.8947 1.49994 10.9543 1.5C10.014 1.50006 9.11227 1.87366 8.44742 2.53862L8.44677 2.53926ZM2.83428 4.46407C2.57784 4.46407 2.33191 4.56595 2.15058 4.74728C1.96925 4.92861 1.86738 5.17455 1.86738 5.43099C1.86738 5.68743 1.96925 5.93337 2.15058 6.11471C2.33191 6.29604 2.57784 6.39791 2.83428 6.39791H3.47887C3.73531 6.39791 3.98124 6.29604 4.16257 6.11471C4.3439 5.93337 4.44577 5.68743 4.44577 5.43099C4.44577 5.17455 4.3439 4.92861 4.16257 4.74728C3.98124 4.56595 3.73531 4.46407 3.47887 4.46407H2.83428ZM5.41266 1.88563C5.1723 1.88564 4.94056 1.97518 4.76264 2.13678C4.58471 2.29838 4.47335 2.52047 4.45028 2.75972L4.44577 2.85254V4.14177C4.44589 4.39008 4.54154 4.62883 4.71289 4.80855C4.88425 4.98826 5.11817 5.09516 5.3662 5.10709C5.61422 5.11902 5.85732 5.03508 6.04514 4.87265C6.23295 4.71021 6.35108 4.48175 6.37504 4.23459L6.37955 4.14177V2.85254C6.37955 2.5961 6.27769 2.35016 6.09636 2.16883C5.91503 1.9875 5.6691 1.88563 5.41266 1.88563Z" fill="#F7F8FB" fill-opacity="0.64"/>
<path d="M4.57275 6.41338L2.52165 8.46454C1.86414 9.13093 1.49688 10.0303 1.50002 10.9665C1.50316 11.9027 1.87643 12.7996 2.53839 13.4616C3.20035 14.1236 4.09726 14.4968 5.0334 14.5C5.96955 14.5031 6.86894 14.1359 7.53532 13.4783L8.21859 12.795C8.31098 12.7059 8.38469 12.5992 8.43541 12.4813C8.48614 12.3633 8.51288 12.2365 8.51405 12.1081C8.51523 11.9797 8.49082 11.8524 8.44226 11.7335C8.3937 11.6147 8.32196 11.5067 8.23122 11.4158C8.14048 11.325 8.03256 11.2532 7.91375 11.2045C7.79495 11.1558 7.66764 11.1313 7.53926 11.1323C7.41087 11.1334 7.28398 11.16 7.166 11.2106C7.04801 11.2613 6.94128 11.3349 6.85204 11.4272L6.16813 12.1111C6.01875 12.2618 5.84106 12.3816 5.64528 12.4635C5.4495 12.5454 5.23947 12.5878 5.02725 12.5883C4.81503 12.5888 4.60481 12.5473 4.40864 12.4664C4.21248 12.3854 4.03424 12.2665 3.88416 12.1164C3.73408 11.9664 3.61511 11.7882 3.53408 11.592C3.45306 11.3959 3.41157 11.1857 3.41201 10.9734C3.41244 10.7612 3.45479 10.5512 3.53662 10.3554C3.61844 10.1596 3.73814 9.98183 3.88884 9.8324L5.93994 7.78125C6.16169 7.55932 6.44339 7.40696 6.75049 7.34283C7.05759 7.27871 7.37672 7.30562 7.66875 7.42026C7.76735 7.45915 7.86473 7.50107 7.96075 7.54596L8.25984 7.68584C8.65949 7.86634 8.96761 7.94369 9.35888 7.55305C9.92096 6.99095 9.77464 6.47204 9.08944 5.99954C8.40687 5.52985 7.58135 5.31407 6.75626 5.38967C5.93116 5.46526 5.15861 5.82747 4.57275 6.41338ZM10.5694 10.9102C10.3291 10.9102 10.0973 10.9997 9.91941 11.1613C9.74148 11.3229 9.63012 11.545 9.60705 11.7843L9.60253 11.8771V13.1663C9.60266 13.4147 9.69831 13.6534 9.86966 13.8331C10.041 14.0128 10.2749 14.1197 10.523 14.1317C10.771 14.1436 11.0141 14.0596 11.2019 13.8972C11.3897 13.7348 11.5078 13.5063 11.5318 13.2592L11.5363 13.1663V11.8771C11.5363 11.6207 11.4345 11.3747 11.2531 11.1934C11.0718 11.0121 10.8259 10.9102 10.5694 10.9102ZM12.5032 9.62097C12.2549 9.62109 12.0162 9.71674 11.8365 9.8881C11.6567 10.0595 11.5499 10.2934 11.5379 10.5414C11.526 10.7894 11.6099 11.0326 11.7724 11.2204C11.9348 11.4082 12.1632 11.5263 12.4104 11.5503L12.5032 11.5548H13.1478C13.3962 11.5548 13.635 11.4593 13.8149 11.288C13.9947 11.1167 14.1017 10.8828 14.1137 10.6347C14.1258 10.3866 14.0419 10.1434 13.8794 9.95552C13.717 9.76763 13.4885 9.64945 13.2413 9.62548L13.1478 9.62097H12.5032ZM8.44677 2.53926L7.7635 3.22255C7.58212 3.40386 7.48018 3.64979 7.48012 3.90626C7.48006 4.16272 7.58188 4.40871 7.76318 4.5901C7.85295 4.67991 7.95953 4.75117 8.07684 4.79979C8.19415 4.84841 8.31988 4.87345 8.44687 4.87348C8.70333 4.87355 8.9493 4.77172 9.13069 4.59042L9.81396 3.90713C9.9633 3.75635 10.1409 3.63655 10.3367 3.55462C10.5325 3.47268 10.7425 3.43022 10.9547 3.42967C11.1669 3.42911 11.3771 3.47048 11.5733 3.5514C11.7695 3.63231 11.9478 3.75118 12.0979 3.90118C12.248 4.05118 12.367 4.22935 12.4481 4.42547C12.5292 4.62159 12.5708 4.8318 12.5704 5.04402C12.57 5.25624 12.5277 5.46629 12.446 5.66213C12.3642 5.85796 12.2445 6.03572 12.0939 6.18519L10.0428 8.23634C9.8211 8.45814 9.53951 8.61043 9.23254 8.67455C8.92558 8.73867 8.60657 8.71183 8.31463 8.59733C8.21107 8.55607 8.11352 8.51396 8.02199 8.47098L7.72354 8.33175C7.32389 8.15061 7.01577 8.07261 6.6245 8.46389C6.06241 9.02599 6.20809 9.54555 6.89394 10.0181C7.57658 10.4877 8.40214 10.7033 9.22724 10.6276C10.0523 10.5519 10.8249 10.1896 11.4106 9.60357L13.4617 7.55241C14.1266 6.88745 14.5001 5.98562 14.5 5.04529C14.4999 4.10496 14.1263 3.20317 13.4614 2.5383C12.7965 1.87343 11.8947 1.49994 10.9543 1.5C10.014 1.50006 9.11227 1.87366 8.44742 2.53862L8.44677 2.53926ZM2.83428 4.46407C2.57784 4.46407 2.33191 4.56595 2.15058 4.74728C1.96925 4.92861 1.86738 5.17455 1.86738 5.43099C1.86738 5.68743 1.96925 5.93337 2.15058 6.11471C2.33191 6.29604 2.57784 6.39791 2.83428 6.39791H3.47887C3.73531 6.39791 3.98124 6.29604 4.16257 6.11471C4.3439 5.93337 4.44577 5.68743 4.44577 5.43099C4.44577 5.17455 4.3439 4.92861 4.16257 4.74728C3.98124 4.56595 3.73531 4.46407 3.47887 4.46407H2.83428ZM5.41266 1.88563C5.1723 1.88564 4.94056 1.97518 4.76264 2.13678C4.58471 2.29838 4.47335 2.52047 4.45028 2.75972L4.44577 2.85254V4.14177C4.44589 4.39008 4.54154 4.62883 4.71289 4.80855C4.88425 4.98826 5.11817 5.09516 5.3662 5.10709C5.61422 5.11902 5.85732 5.03508 6.04514 4.87265C6.23295 4.71021 6.35108 4.48175 6.37504 4.23459L6.37955 4.14177V2.85254C6.37955 2.5961 6.27769 2.35016 6.09636 2.16883C5.91503 1.9875 5.6691 1.88563 5.41266 1.88563Z" fill="url(#paint0_linear_6135_23)" fill-opacity="0.08"/>
<defs>
<linearGradient id="paint0_linear_6135_23" x1="8" y1="1.5" x2="8" y2="14.5" gradientUnits="userSpaceOnUse">
<stop stop-opacity="0"/>
<stop offset="1"/>
</linearGradient>
</defs>
</svg>
