<svg width="16" height="16" viewBox="0 0 16 16" fill="none" xmlns="http://www.w3.org/2000/svg">
<path d="M4.1333 2.61189C4.39561 2.41185 4.76214 2.50749 4.93164 2.79499C5.10104 3.08254 5.01073 3.45656 4.75244 3.66217C4.18925 4.11056 3.71766 4.67267 3.36719 5.31596C2.91995 6.13691 2.68531 7.06275 2.68604 8.0044C2.68644 8.51231 2.75597 9.0154 2.88965 9.49999H1.66504C1.55628 9.0117 1.5004 8.51044 1.5 8.00538C1.49911 6.85364 1.78596 5.72099 2.33301 4.71685C2.78338 3.89021 3.3978 3.17323 4.1333 2.61189ZM5.33154 4.74077C5.58089 4.52371 5.94919 4.61405 6.12207 4.89946C6.29481 5.18487 6.20512 5.55721 5.96826 5.78861C5.75025 6.00162 5.56437 6.24866 5.41748 6.52151C5.17451 6.97286 5.04646 7.4804 5.0459 7.99659C5.04534 8.51277 5.17209 9.02075 5.41406 9.47265C5.41898 9.48183 5.42419 9.49087 5.4292 9.49999H4.12842C3.95378 9.0204 3.86321 8.51081 3.86377 7.99513C3.86456 7.2724 4.04316 6.56164 4.3833 5.92972C4.62756 5.47599 4.94952 5.0734 5.33154 4.74077ZM9.88477 4.90386C10.0583 4.61883 10.4269 4.52945 10.6758 4.74712C11.057 5.0806 11.3779 5.4838 11.6211 5.93802C11.9599 6.57076 12.137 7.28211 12.1362 8.00489C12.1357 8.51738 12.0448 9.02347 11.8711 9.49999H10.5703C10.5743 9.49277 10.5786 9.48576 10.5825 9.47851C10.8255 9.02716 10.9535 8.51961 10.9541 8.00343C10.9546 7.48724 10.8279 6.97927 10.5859 6.52737C10.4396 6.25415 10.2538 6.00702 10.0361 5.79349C9.79985 5.56154 9.71139 5.18885 9.88477 4.90386ZM11.0605 2.78962C11.2296 2.50191 11.5959 2.40587 11.8584 2.60554C12.5947 3.16561 13.21 3.88128 13.6616 4.70708C14.2103 5.71036 14.4991 6.84276 14.5 7.99464C14.5004 8.50331 14.4444 9.0082 14.335 9.49999H13.1104C13.2449 9.01262 13.3144 8.50653 13.314 7.99561C13.3133 7.05396 13.0774 6.12835 12.6289 5.30815C12.2774 4.66544 11.8046 4.10425 11.2407 3.6568C10.982 3.45158 10.8915 3.07747 11.0605 2.78962ZM8 6.74661C8.67137 6.74661 9.21582 7.30768 9.21582 8.00001C9.21582 8.69229 8.67137 9.25341 8 9.25341C7.32865 9.25339 6.78467 8.69228 6.78467 8.00001C6.78467 7.30769 7.32865 6.74663 8 6.74661Z" fill="#F7F8FB" fill-opacity="0.64"/>
<path d="M4.1333 2.61189C4.39561 2.41185 4.76214 2.50749 4.93164 2.79499C5.10104 3.08254 5.01073 3.45656 4.75244 3.66217C4.18925 4.11056 3.71766 4.67267 3.36719 5.31596C2.91995 6.13691 2.68531 7.06275 2.68604 8.0044C2.68644 8.51231 2.75597 9.0154 2.88965 9.49999H1.66504C1.55628 9.0117 1.5004 8.51044 1.5 8.00538C1.49911 6.85364 1.78596 5.72099 2.33301 4.71685C2.78338 3.89021 3.3978 3.17323 4.1333 2.61189ZM5.33154 4.74077C5.58089 4.52371 5.94919 4.61405 6.12207 4.89946C6.29481 5.18487 6.20512 5.55721 5.96826 5.78861C5.75025 6.00162 5.56437 6.24866 5.41748 6.52151C5.17451 6.97286 5.04646 7.4804 5.0459 7.99659C5.04534 8.51277 5.17209 9.02075 5.41406 9.47265C5.41898 9.48183 5.42419 9.49087 5.4292 9.49999H4.12842C3.95378 9.0204 3.86321 8.51081 3.86377 7.99513C3.86456 7.2724 4.04316 6.56164 4.3833 5.92972C4.62756 5.47599 4.94952 5.0734 5.33154 4.74077ZM9.88477 4.90386C10.0583 4.61883 10.4269 4.52945 10.6758 4.74712C11.057 5.0806 11.3779 5.4838 11.6211 5.93802C11.9599 6.57076 12.137 7.28211 12.1362 8.00489C12.1357 8.51738 12.0448 9.02347 11.8711 9.49999H10.5703C10.5743 9.49277 10.5786 9.48576 10.5825 9.47851C10.8255 9.02716 10.9535 8.51961 10.9541 8.00343C10.9546 7.48724 10.8279 6.97927 10.5859 6.52737C10.4396 6.25415 10.2538 6.00702 10.0361 5.79349C9.79985 5.56154 9.71139 5.18885 9.88477 4.90386ZM11.0605 2.78962C11.2296 2.50191 11.5959 2.40587 11.8584 2.60554C12.5947 3.16561 13.21 3.88128 13.6616 4.70708C14.2103 5.71036 14.4991 6.84276 14.5 7.99464C14.5004 8.50331 14.4444 9.0082 14.335 9.49999H13.1104C13.2449 9.01262 13.3144 8.50653 13.314 7.99561C13.3133 7.05396 13.0774 6.12835 12.6289 5.30815C12.2774 4.66544 11.8046 4.10425 11.2407 3.6568C10.982 3.45158 10.8915 3.07747 11.0605 2.78962ZM8 6.74661C8.67137 6.74661 9.21582 7.30768 9.21582 8.00001C9.21582 8.69229 8.67137 9.25341 8 9.25341C7.32865 9.25339 6.78467 8.69228 6.78467 8.00001C6.78467 7.30769 7.32865 6.74663 8 6.74661Z" fill="url(#paint0_linear_6287_41)" fill-opacity="0.08"/>
<path d="M11.0123 14.9997V10.8H13.9343V11.5571H11.9114V12.5213H13.8634V13.2666H11.9114V14.2425H13.9817V14.9997H11.0123Z" fill="#D35477"/>
<path d="M8.04232 14.9997L6.52808 10.8H7.45673L8.57467 13.9882L9.6926 10.8H10.6213L9.1011 14.9997H8.04232Z" fill="#D35477"/>
<path d="M5.23022 14.9997V10.8H6.1293V14.9997H5.23022Z" fill="#D35477"/>
<path d="M1.93774 14.9997V10.8H2.83682V14.7571L2.33996 14.2425H4.77103V14.9997H1.93774Z" fill="#D35477"/>
<defs>
<linearGradient id="paint0_linear_6287_41" x1="8" y1="2.50002" x2="8" y2="9.49999" gradientUnits="userSpaceOnUse">
<stop stop-opacity="0"/>
<stop offset="1"/>
</linearGradient>
</defs>
</svg>
