<svg width="16" height="16" viewBox="0 0 16 16" fill="none" xmlns="http://www.w3.org/2000/svg">
<path fill-rule="evenodd" clip-rule="evenodd" d="M1.5 7.16131C1.5 4.03466 4.03464 1.50002 7.16129 1.50002H8.83871C11.9653 1.50002 14.5 4.03466 14.5 7.16131V8.83873C14.5 11.9654 11.9653 14.5 8.83871 14.5H7.16129C4.03464 14.5 1.5 11.9654 1.5 8.83873V7.16131ZM7.16129 2.75808C4.72945 2.75808 2.75806 4.72947 2.75806 7.16131V8.83873C2.75806 11.2706 4.72946 13.242 7.16129 13.242H8.83871C11.2705 13.242 13.2419 11.2706 13.2419 8.83873V7.16131C13.2419 4.72947 11.2705 2.75808 8.83871 2.75808H7.16129Z" fill="#F7F8FB" fill-opacity="0.64"/>
<path fill-rule="evenodd" clip-rule="evenodd" d="M1.5 7.16131C1.5 4.03466 4.03464 1.50002 7.16129 1.50002H8.83871C11.9653 1.50002 14.5 4.03466 14.5 7.16131V8.83873C14.5 11.9654 11.9653 14.5 8.83871 14.5H7.16129C4.03464 14.5 1.5 11.9654 1.5 8.83873V7.16131ZM7.16129 2.75808C4.72945 2.75808 2.75806 4.72947 2.75806 7.16131V8.83873C2.75806 11.2706 4.72946 13.242 7.16129 13.242H8.83871C11.2705 13.242 13.2419 11.2706 13.2419 8.83873V7.16131C13.2419 4.72947 11.2705 2.75808 8.83871 2.75808H7.16129Z" fill="url(#paint0_linear_4978_549)" fill-opacity="0.08"/>
<path d="M7.37042 11.3532C7.37042 11.7006 7.65206 11.9822 7.99945 11.9822C8.34684 11.9822 8.62848 11.7006 8.62848 11.3532H7.37042ZM7.99945 7.15965H8.62848C8.62848 6.81225 8.34684 6.53061 7.99945 6.53061V7.15965ZM7.16074 6.53061C6.81335 6.53061 6.53171 6.81225 6.53171 7.15965C6.53171 7.50704 6.81335 7.78868 7.16074 7.78868V6.53061ZM7.99945 11.9822C8.34684 11.9822 8.62848 11.7006 8.62848 11.3532C8.62848 11.0058 8.34684 10.7242 7.99945 10.7242V11.9822ZM7.16074 10.7242C6.81335 10.7242 6.53171 11.0058 6.53171 11.3532C6.53171 11.7006 6.81335 11.9822 7.16074 11.9822V10.7242ZM7.99945 10.7242C7.65206 10.7242 7.37042 11.0058 7.37042 11.3532C7.37042 11.7006 7.65206 11.9822 7.99945 11.9822V10.7242ZM8.83816 11.9822C9.18555 11.9822 9.46719 11.7006 9.46719 11.3532C9.46719 11.0058 9.18555 10.7242 8.83816 10.7242V11.9822ZM8.62848 4.64352C8.62848 4.29612 8.34684 4.01449 7.99945 4.01449C7.65206 4.01449 7.37042 4.29612 7.37042 4.64352H8.62848ZM7.37042 5.48223C7.37042 5.82963 7.65206 6.11126 7.99945 6.11126C8.34684 6.11126 8.62848 5.82963 8.62848 5.48223H7.37042ZM8.62848 11.3532V7.15965H7.37042V11.3532H8.62848ZM7.99945 6.53061H7.16074V7.78868H7.99945V6.53061ZM7.99945 10.7242H7.16074V11.9822H7.99945V10.7242ZM7.99945 11.9822H8.83816V10.7242H7.99945V11.9822ZM7.37042 4.64352V5.48223H8.62848V4.64352H7.37042Z" fill="#F7F8FB" fill-opacity="0.64"/>
<path d="M7.37042 11.3532C7.37042 11.7006 7.65206 11.9822 7.99945 11.9822C8.34684 11.9822 8.62848 11.7006 8.62848 11.3532H7.37042ZM7.99945 7.15965H8.62848C8.62848 6.81225 8.34684 6.53061 7.99945 6.53061V7.15965ZM7.16074 6.53061C6.81335 6.53061 6.53171 6.81225 6.53171 7.15965C6.53171 7.50704 6.81335 7.78868 7.16074 7.78868V6.53061ZM7.99945 11.9822C8.34684 11.9822 8.62848 11.7006 8.62848 11.3532C8.62848 11.0058 8.34684 10.7242 7.99945 10.7242V11.9822ZM7.16074 10.7242C6.81335 10.7242 6.53171 11.0058 6.53171 11.3532C6.53171 11.7006 6.81335 11.9822 7.16074 11.9822V10.7242ZM7.99945 10.7242C7.65206 10.7242 7.37042 11.0058 7.37042 11.3532C7.37042 11.7006 7.65206 11.9822 7.99945 11.9822V10.7242ZM8.83816 11.9822C9.18555 11.9822 9.46719 11.7006 9.46719 11.3532C9.46719 11.0058 9.18555 10.7242 8.83816 10.7242V11.9822ZM8.62848 4.64352C8.62848 4.29612 8.34684 4.01449 7.99945 4.01449C7.65206 4.01449 7.37042 4.29612 7.37042 4.64352H8.62848ZM7.37042 5.48223C7.37042 5.82963 7.65206 6.11126 7.99945 6.11126C8.34684 6.11126 8.62848 5.82963 8.62848 5.48223H7.37042ZM8.62848 11.3532V7.15965H7.37042V11.3532H8.62848ZM7.99945 6.53061H7.16074V7.78868H7.99945V6.53061ZM7.99945 10.7242H7.16074V11.9822H7.99945V10.7242ZM7.99945 11.9822H8.83816V10.7242H7.99945V11.9822ZM7.37042 4.64352V5.48223H8.62848V4.64352H7.37042Z" fill="url(#paint1_linear_4978_549)" fill-opacity="0.08"/>
<defs>
<linearGradient id="paint0_linear_4978_549" x1="8" y1="1.50002" x2="8" y2="14.5" gradientUnits="userSpaceOnUse">
<stop stop-opacity="0"/>
<stop offset="1"/>
</linearGradient>
<linearGradient id="paint1_linear_4978_549" x1="8" y1="1.50002" x2="8" y2="14.5" gradientUnits="userSpaceOnUse">
<stop stop-opacity="0"/>
<stop offset="1"/>
</linearGradient>
</defs>
</svg>
