<svg width="16" height="16" viewBox="0 0 16 16" fill="none" xmlns="http://www.w3.org/2000/svg">
<path fill-rule="evenodd" clip-rule="evenodd" d="M12.8155 1.56314L13.1457 1.59579L13.4601 1.69133L13.7499 1.8462L14.0066 2.05652L14.2169 2.31314L14.3718 2.60302L14.4672 2.91752L14.5 3.24761V12.7524L14.4672 13.0825L14.3718 13.397L14.2169 13.6869L14.0066 13.9435L13.7499 14.1538L13.4601 14.3087L13.1457 14.4042L12.8155 14.4369H3.18454L2.85435 14.4042L2.53995 14.3087L2.24994 14.1538L1.9934 13.9435L1.78305 13.6869L1.62821 13.397L1.53264 13.0825L1.5 12.7524V3.24761L1.53264 2.91752L1.62821 2.60302L1.78305 2.31314L1.9934 2.05652L2.24994 1.8462L2.53995 1.69133L2.85435 1.59579L3.18454 1.56314H12.8155ZM12.8155 2.82528H3.18454C3.07247 2.82528 2.96512 2.86975 2.88593 2.94896C2.80662 3.02816 2.7622 3.13563 2.7622 3.24761V12.7524C2.7622 12.8644 2.80662 12.9719 2.88593 13.0511C2.96512 13.1303 3.07247 13.1747 3.18454 13.1747H12.8155C12.9274 13.1747 13.0349 13.1303 13.1141 13.0511C13.1934 12.9719 13.2378 12.8644 13.2378 12.7524V3.24761C13.2378 3.13563 13.1934 3.02816 13.1141 2.94896C13.0349 2.86975 12.9274 2.82528 12.8155 2.82528ZM6.10677 4.75053C6.85529 4.75053 7.463 5.35833 7.463 6.10686C7.463 6.85527 6.85529 7.46306 6.10677 7.46306C5.35824 7.46306 4.75053 6.85527 4.75053 6.10686C4.75053 5.35833 5.35824 4.75053 6.10677 4.75053ZM9.89323 4.75053C10.6418 4.75053 11.2495 5.35833 11.2495 6.10686C11.2495 6.85527 10.6418 7.46306 9.89323 7.46306C9.14471 7.46306 8.537 6.85527 8.537 6.10686C8.537 5.35833 9.14471 4.75053 9.89323 4.75053ZM6.10677 8.53694C6.85529 8.53694 7.463 9.14474 7.463 9.89315C7.463 10.6417 6.85529 11.2495 6.10677 11.2495C5.35824 11.2495 4.75053 10.6417 4.75053 9.89315C4.75053 9.14474 5.35824 8.53694 6.10677 8.53694Z" fill="#F7F8FB" fill-opacity="0.64"/>
<path fill-rule="evenodd" clip-rule="evenodd" d="M12.8155 1.56314L13.1457 1.59579L13.4601 1.69133L13.7499 1.8462L14.0066 2.05652L14.2169 2.31314L14.3718 2.60302L14.4672 2.91752L14.5 3.24761V12.7524L14.4672 13.0825L14.3718 13.397L14.2169 13.6869L14.0066 13.9435L13.7499 14.1538L13.4601 14.3087L13.1457 14.4042L12.8155 14.4369H3.18454L2.85435 14.4042L2.53995 14.3087L2.24994 14.1538L1.9934 13.9435L1.78305 13.6869L1.62821 13.397L1.53264 13.0825L1.5 12.7524V3.24761L1.53264 2.91752L1.62821 2.60302L1.78305 2.31314L1.9934 2.05652L2.24994 1.8462L2.53995 1.69133L2.85435 1.59579L3.18454 1.56314H12.8155ZM12.8155 2.82528H3.18454C3.07247 2.82528 2.96512 2.86975 2.88593 2.94896C2.80662 3.02816 2.7622 3.13563 2.7622 3.24761V12.7524C2.7622 12.8644 2.80662 12.9719 2.88593 13.0511C2.96512 13.1303 3.07247 13.1747 3.18454 13.1747H12.8155C12.9274 13.1747 13.0349 13.1303 13.1141 13.0511C13.1934 12.9719 13.2378 12.8644 13.2378 12.7524V3.24761C13.2378 3.13563 13.1934 3.02816 13.1141 2.94896C13.0349 2.86975 12.9274 2.82528 12.8155 2.82528ZM6.10677 4.75053C6.85529 4.75053 7.463 5.35833 7.463 6.10686C7.463 6.85527 6.85529 7.46306 6.10677 7.46306C5.35824 7.46306 4.75053 6.85527 4.75053 6.10686C4.75053 5.35833 5.35824 4.75053 6.10677 4.75053ZM9.89323 4.75053C10.6418 4.75053 11.2495 5.35833 11.2495 6.10686C11.2495 6.85527 10.6418 7.46306 9.89323 7.46306C9.14471 7.46306 8.537 6.85527 8.537 6.10686C8.537 5.35833 9.14471 4.75053 9.89323 4.75053ZM6.10677 8.53694C6.85529 8.53694 7.463 9.14474 7.463 9.89315C7.463 10.6417 6.85529 11.2495 6.10677 11.2495C5.35824 11.2495 4.75053 10.6417 4.75053 9.89315C4.75053 9.14474 5.35824 8.53694 6.10677 8.53694Z" fill="url(#paint0_linear_5684_46)" fill-opacity="0.08"/>
<defs>
<linearGradient id="paint0_linear_5684_46" x1="8" y1="1.56314" x2="8" y2="14.4369" gradientUnits="userSpaceOnUse">
<stop stop-opacity="0"/>
<stop offset="1"/>
</linearGradient>
</defs>
</svg>
