<svg width="16" height="16" viewBox="0 0 16 16" fill="none" xmlns="http://www.w3.org/2000/svg">
<path d="M14.3823 2.50748C14.2075 2.1041 13.8825 1.78468 13.4762 1.617C13.2831 1.53951 13.077 1.49979 12.869 1.5H12.817C12.1095 1.50248 11.4102 1.65304 10.7643 1.94199C10.3587 2.11619 9.98431 2.35538 9.65606 2.65047L9.48055 2.83247L9.43505 2.87147L6.33192 5.97059L5.02865 5.7041C4.66216 5.6329 4.28378 5.65299 3.92689 5.76259C3.57235 5.87545 3.24883 6.06902 2.98178 6.32808L1.76301 7.5429C1.64208 7.65889 1.55837 7.80821 1.52251 7.97189C1.48221 8.13633 1.49651 8.30923 1.56151 8.46588C1.62586 8.62057 1.73441 8.75382 1.87351 8.84872C2.01196 8.94231 2.17577 8.99236 2.34347 8.99171H3.95289C3.91909 9.16071 3.90175 9.33187 3.90089 9.5052C3.89956 10.0288 4.05633 10.5405 4.35069 10.9735L3.15143 12.163C3.08316 12.2311 3.03669 12.3181 3.0179 12.4127C2.99912 12.5073 3.00887 12.6054 3.04592 12.6944C3.08297 12.7835 3.14565 12.8596 3.226 12.913C3.30636 12.9664 3.40076 12.9947 3.49723 12.9943C3.56134 12.995 3.62491 12.9827 3.68413 12.9581C3.74334 12.9335 3.79695 12.8972 3.84174 12.8513L5.04165 11.6618C5.47424 11.9612 5.98852 12.12 6.51457 12.1168C6.6879 12.1168 6.85951 12.0995 7.02937 12.0648V13.6508C7.03073 13.8165 7.08007 13.9783 7.17143 14.1166C7.26279 14.255 7.39226 14.3638 7.54418 14.4301C7.64948 14.475 7.76258 14.4964 7.87699 14.4951C7.92899 14.5016 7.98099 14.5016 8.03299 14.4951C8.1972 14.4622 8.34868 14.3833 8.46979 14.2676L9.70156 13.0327C9.96936 12.7727 10.1644 12.4483 10.269 12.0908C10.3773 11.7347 10.3951 11.3572 10.321 10.9924L10.0604 9.69304L13.1368 6.62642L13.2733 6.49643L13.4099 6.35993C13.6848 6.02878 13.9049 5.65573 14.0618 5.25496C14.3555 4.60394 14.5045 3.89698 14.4986 3.18281C14.5082 2.95172 14.4683 2.72126 14.3816 2.50683M5.33545 10.6609C5.21907 10.542 5.11836 10.4088 5.0358 10.2644L7.64233 7.66575C7.71074 7.59771 7.79772 7.55141 7.89236 7.53266C7.987 7.51391 8.08506 7.52354 8.17424 7.56035C8.26342 7.59716 8.33973 7.6595 8.39359 7.73955C8.44744 7.81959 8.47644 7.91376 8.47694 8.01024C8.47694 8.13893 8.42494 8.26308 8.33394 8.35473L5.72676 10.9534C5.58177 10.877 5.44972 10.7783 5.33545 10.6609ZM13.5347 3.15031C13.5379 3.73003 13.4181 4.30383 13.183 4.83377C13.0751 5.08816 12.9325 5.32637 12.7592 5.5416C11.8778 4.90173 11.0977 4.13285 10.4452 3.26081C10.6636 3.08531 10.9047 2.94101 11.1621 2.83182C11.6864 2.59492 12.2554 2.47303 12.8307 2.47433C12.92 2.47866 13.0068 2.49599 13.0913 2.52633C13.1754 2.55926 13.2493 2.60692 13.313 2.66932C13.378 2.72912 13.4294 2.80257 13.4625 2.88382C13.4967 2.96701 13.5143 3.05368 13.5152 3.14381L13.5347 3.15031Z" fill="#F7F8FB" fill-opacity="0.64"/>
<path d="M14.3823 2.50748C14.2075 2.1041 13.8825 1.78468 13.4762 1.617C13.2831 1.53951 13.077 1.49979 12.869 1.5H12.817C12.1095 1.50248 11.4102 1.65304 10.7643 1.94199C10.3587 2.11619 9.98431 2.35538 9.65606 2.65047L9.48055 2.83247L9.43505 2.87147L6.33192 5.97059L5.02865 5.7041C4.66216 5.6329 4.28378 5.65299 3.92689 5.76259C3.57235 5.87545 3.24883 6.06902 2.98178 6.32808L1.76301 7.5429C1.64208 7.65889 1.55837 7.80821 1.52251 7.97189C1.48221 8.13633 1.49651 8.30923 1.56151 8.46588C1.62586 8.62057 1.73441 8.75382 1.87351 8.84872C2.01196 8.94231 2.17577 8.99236 2.34347 8.99171H3.95289C3.91909 9.16071 3.90175 9.33187 3.90089 9.5052C3.89956 10.0288 4.05633 10.5405 4.35069 10.9735L3.15143 12.163C3.08316 12.2311 3.03669 12.3181 3.0179 12.4127C2.99912 12.5073 3.00887 12.6054 3.04592 12.6944C3.08297 12.7835 3.14565 12.8596 3.226 12.913C3.30636 12.9664 3.40076 12.9947 3.49723 12.9943C3.56134 12.995 3.62491 12.9827 3.68413 12.9581C3.74334 12.9335 3.79695 12.8972 3.84174 12.8513L5.04165 11.6618C5.47424 11.9612 5.98852 12.12 6.51457 12.1168C6.6879 12.1168 6.85951 12.0995 7.02937 12.0648V13.6508C7.03073 13.8165 7.08007 13.9783 7.17143 14.1166C7.26279 14.255 7.39226 14.3638 7.54418 14.4301C7.64948 14.475 7.76258 14.4964 7.87699 14.4951C7.92899 14.5016 7.98099 14.5016 8.03299 14.4951C8.1972 14.4622 8.34868 14.3833 8.46979 14.2676L9.70156 13.0327C9.96936 12.7727 10.1644 12.4483 10.269 12.0908C10.3773 11.7347 10.3951 11.3572 10.321 10.9924L10.0604 9.69304L13.1368 6.62642L13.2733 6.49643L13.4099 6.35993C13.6848 6.02878 13.9049 5.65573 14.0618 5.25496C14.3555 4.60394 14.5045 3.89698 14.4986 3.18281C14.5082 2.95172 14.4683 2.72126 14.3816 2.50683M5.33545 10.6609C5.21907 10.542 5.11836 10.4088 5.0358 10.2644L7.64233 7.66575C7.71074 7.59771 7.79772 7.55141 7.89236 7.53266C7.987 7.51391 8.08506 7.52354 8.17424 7.56035C8.26342 7.59716 8.33973 7.6595 8.39359 7.73955C8.44744 7.81959 8.47644 7.91376 8.47694 8.01024C8.47694 8.13893 8.42494 8.26308 8.33394 8.35473L5.72676 10.9534C5.58177 10.877 5.44972 10.7783 5.33545 10.6609ZM13.5347 3.15031C13.5379 3.73003 13.4181 4.30383 13.183 4.83377C13.0751 5.08816 12.9325 5.32637 12.7592 5.5416C11.8778 4.90173 11.0977 4.13285 10.4452 3.26081C10.6636 3.08531 10.9047 2.94101 11.1621 2.83182C11.6864 2.59492 12.2554 2.47303 12.8307 2.47433C12.92 2.47866 13.0068 2.49599 13.0913 2.52633C13.1754 2.55926 13.2493 2.60692 13.313 2.66932C13.378 2.72912 13.4294 2.80257 13.4625 2.88382C13.4967 2.96701 13.5143 3.05368 13.5152 3.14381L13.5347 3.15031Z" fill="url(#paint0_linear_4978_635)" fill-opacity="0.08"/>
<defs>
<linearGradient id="paint0_linear_4978_635" x1="8" y1="1.5" x2="8" y2="14.5" gradientUnits="userSpaceOnUse">
<stop stop-opacity="0"/>
<stop offset="1"/>
</linearGradient>
</defs>
</svg>
