<svg width="16" height="16" viewBox="0 0 16 16" fill="none" xmlns="http://www.w3.org/2000/svg">
<path d="M8.26973 12.0121C8.09578 12.0121 7.95459 11.8617 7.95456 11.6764V8.15106C7.95457 7.96585 8.09577 7.81537 8.26973 7.81537H12.7009C12.8749 7.81537 13.0164 7.96585 13.0164 8.15106V11.6764C13.0163 11.8617 12.8749 12.0121 12.7009 12.0121H8.26973Z" fill="#F7F8FB" fill-opacity="0.64"/>
<path d="M8.26973 12.0121C8.09578 12.0121 7.95459 11.8617 7.95456 11.6764V8.15106C7.95457 7.96585 8.09577 7.81537 8.26973 7.81537H12.7009C12.8749 7.81537 13.0164 7.96585 13.0164 8.15106V11.6764C13.0163 11.8617 12.8749 12.0121 12.7009 12.0121H8.26973Z" fill="url(#paint0_linear_4978_409)" fill-opacity="0.08"/>
<path fill-rule="evenodd" clip-rule="evenodd" d="M3.07004 13.5C2.20296 13.5 1.5 12.7965 1.5 11.9287V4.07159C1.50004 3.20382 2.20298 2.50004 3.07004 2.5H12.93C13.7971 2.5 14.5 3.20379 14.5 4.07159V11.9287C14.5 12.7965 13.7971 13.5 12.93 13.5H3.07004ZM13.0085 12.7145C13.3992 12.7144 13.7166 12.3765 13.7166 11.9603V4.04277C13.7165 3.62663 13.3992 3.28892 13.0085 3.28887H12.9985C12.9759 3.28676 12.953 3.28607 12.93 3.28607H3.07004C3.04704 3.28608 3.02427 3.28677 3.00176 3.28887H2.99309C2.60236 3.28887 2.28507 3.6266 2.28502 4.04277V11.9603C2.28502 12.3765 2.60233 12.7145 2.99309 12.7145H13.0085Z" fill="#F7F8FB" fill-opacity="0.64"/>
<path fill-rule="evenodd" clip-rule="evenodd" d="M3.07004 13.5C2.20296 13.5 1.5 12.7965 1.5 11.9287V4.07159C1.50004 3.20382 2.20298 2.50004 3.07004 2.5H12.93C13.7971 2.5 14.5 3.20379 14.5 4.07159V11.9287C14.5 12.7965 13.7971 13.5 12.93 13.5H3.07004ZM13.0085 12.7145C13.3992 12.7144 13.7166 12.3765 13.7166 11.9603V4.04277C13.7165 3.62663 13.3992 3.28892 13.0085 3.28887H12.9985C12.9759 3.28676 12.953 3.28607 12.93 3.28607H3.07004C3.04704 3.28608 3.02427 3.28677 3.00176 3.28887H2.99309C2.60236 3.28887 2.28507 3.6266 2.28502 4.04277V11.9603C2.28502 12.3765 2.60233 12.7145 2.99309 12.7145H13.0085Z" fill="url(#paint1_linear_4978_409)" fill-opacity="0.08"/>
<defs>
<linearGradient id="paint0_linear_4978_409" x1="8" y1="13.5" x2="8" y2="2.5" gradientUnits="userSpaceOnUse">
<stop stop-opacity="0"/>
<stop offset="1"/>
</linearGradient>
<linearGradient id="paint1_linear_4978_409" x1="8" y1="13.5" x2="8" y2="2.5" gradientUnits="userSpaceOnUse">
<stop stop-opacity="0"/>
<stop offset="1"/>
</linearGradient>
</defs>
</svg>
