<svg width="16" height="16" viewBox="0 0 16 16" fill="none" xmlns="http://www.w3.org/2000/svg">
<path d="M8 14.5C6.82093 14.5 5.72752 14.2027 4.71977 13.6081C3.74225 13.0337 2.96628 12.2578 2.39186 11.2802C1.79729 10.2725 1.5 9.17907 1.5 8C1.5 6.82093 1.79729 5.72752 2.39186 4.71977C2.96628 3.74225 3.74225 2.96628 4.71977 2.39186C5.72752 1.79729 6.82093 1.5 8 1.5C9.17907 1.5 10.2725 1.79729 11.2802 2.39186C12.2578 2.96628 13.0337 3.74225 13.6081 4.71977C14.2027 5.72752 14.5 6.82093 14.5 8C14.5 9.17907 14.2027 10.2725 13.6081 11.2802C13.0337 12.2578 12.2578 13.0337 11.2802 13.6081C10.2725 14.2027 9.17907 14.5 8 14.5ZM5.27907 11.9302C5.67209 12.2124 6.10291 12.4266 6.57151 12.5727C7.04012 12.7188 7.51628 12.7919 8 12.7919C8.86667 12.7919 9.67287 12.5702 10.4186 12.1267C11.1341 11.7035 11.7035 11.1341 12.1267 10.4186C12.5702 9.67287 12.7919 8.86667 12.7919 8C12.7919 7.51628 12.7188 7.04012 12.5727 6.57151C12.4266 6.10291 12.2124 5.67209 11.9302 5.27907L5.27907 11.9302ZM8 3.20814C7.13333 3.20814 6.32713 3.42984 5.5814 3.87326C4.86589 4.29651 4.29651 4.86589 3.87326 5.5814C3.42984 6.32713 3.20814 7.13333 3.20814 8C3.20814 8.48372 3.2812 8.95988 3.42733 9.42849C3.57345 9.89709 3.7876 10.3279 4.06977 10.7209L10.7209 4.06977C10.3279 3.7876 9.89709 3.57345 9.42849 3.42733C8.95988 3.2812 8.48372 3.20814 8 3.20814Z" fill="#F7F8FB" fill-opacity="0.64"/>
<path d="M8 14.5C6.82093 14.5 5.72752 14.2027 4.71977 13.6081C3.74225 13.0337 2.96628 12.2578 2.39186 11.2802C1.79729 10.2725 1.5 9.17907 1.5 8C1.5 6.82093 1.79729 5.72752 2.39186 4.71977C2.96628 3.74225 3.74225 2.96628 4.71977 2.39186C5.72752 1.79729 6.82093 1.5 8 1.5C9.17907 1.5 10.2725 1.79729 11.2802 2.39186C12.2578 2.96628 13.0337 3.74225 13.6081 4.71977C14.2027 5.72752 14.5 6.82093 14.5 8C14.5 9.17907 14.2027 10.2725 13.6081 11.2802C13.0337 12.2578 12.2578 13.0337 11.2802 13.6081C10.2725 14.2027 9.17907 14.5 8 14.5ZM5.27907 11.9302C5.67209 12.2124 6.10291 12.4266 6.57151 12.5727C7.04012 12.7188 7.51628 12.7919 8 12.7919C8.86667 12.7919 9.67287 12.5702 10.4186 12.1267C11.1341 11.7035 11.7035 11.1341 12.1267 10.4186C12.5702 9.67287 12.7919 8.86667 12.7919 8C12.7919 7.51628 12.7188 7.04012 12.5727 6.57151C12.4266 6.10291 12.2124 5.67209 11.9302 5.27907L5.27907 11.9302ZM8 3.20814C7.13333 3.20814 6.32713 3.42984 5.5814 3.87326C4.86589 4.29651 4.29651 4.86589 3.87326 5.5814C3.42984 6.32713 3.20814 7.13333 3.20814 8C3.20814 8.48372 3.2812 8.95988 3.42733 9.42849C3.57345 9.89709 3.7876 10.3279 4.06977 10.7209L10.7209 4.06977C10.3279 3.7876 9.89709 3.57345 9.42849 3.42733C8.95988 3.2812 8.48372 3.20814 8 3.20814Z" fill="url(#paint0_linear_4978_297)" fill-opacity="0.08"/>
<defs>
<linearGradient id="paint0_linear_4978_297" x1="8" y1="1.5" x2="8" y2="14.5" gradientUnits="userSpaceOnUse">
<stop stop-opacity="0"/>
<stop offset="1"/>
</linearGradient>
</defs>
</svg>
