<svg width="16" height="16" viewBox="0 0 16 16" fill="none" xmlns="http://www.w3.org/2000/svg">
<path d="M8.92147 6.66478L8.92147 1.89739C8.92147 1.67792 8.75171 1.5 8.5423 1.5H7.4048C7.19539 1.5 7.02564 1.67792 7.02564 1.89739L7.02563 6.66478H5.18587L6.65573 9.33303L6.65444 9.33314L7.00995 9.9785L7.01124 9.9784L7.23032 10.3761L7.22903 10.3762L7.60018 11.05L7.60148 11.0499L8.00045 11.7741L10.815 6.66478H8.92147Z" fill="#F7F8FB" fill-opacity="0.64"/>
<path d="M8.92147 6.66478L8.92147 1.89739C8.92147 1.67792 8.75171 1.5 8.5423 1.5H7.4048C7.19539 1.5 7.02564 1.67792 7.02564 1.89739L7.02563 6.66478H5.18587L6.65573 9.33303L6.65444 9.33314L7.00995 9.9785L7.01124 9.9784L7.23032 10.3761L7.22903 10.3762L7.60018 11.05L7.60148 11.0499L8.00045 11.7741L10.815 6.66478H8.92147Z" fill="url(#paint0_linear_4978_301)" fill-opacity="0.08"/>
<path d="M12.9292 11.8886C12.9292 11.0049 11.4426 10.2586 9.40462 10.0195L9.76018 9.374C12.4948 9.68236 14.5 10.6914 14.5 11.8886C14.5 13.3308 11.5898 14.5 8 14.5C4.41019 14.5 1.5 13.3308 1.5 11.8886C1.5 10.6915 3.50487 9.68252 6.23916 9.37407L6.59473 10.0195C4.55707 10.2588 3.07083 11.005 3.07083 11.8886C3.07083 12.9653 5.2777 13.8379 8 13.8379C10.7223 13.8379 12.9292 12.9653 12.9292 11.8886Z" fill="#F7F8FB" fill-opacity="0.64"/>
<path d="M12.9292 11.8886C12.9292 11.0049 11.4426 10.2586 9.40462 10.0195L9.76018 9.374C12.4948 9.68236 14.5 10.6914 14.5 11.8886C14.5 13.3308 11.5898 14.5 8 14.5C4.41019 14.5 1.5 13.3308 1.5 11.8886C1.5 10.6915 3.50487 9.68252 6.23916 9.37407L6.59473 10.0195C4.55707 10.2588 3.07083 11.005 3.07083 11.8886C3.07083 12.9653 5.2777 13.8379 8 13.8379C10.7223 13.8379 12.9292 12.9653 12.9292 11.8886Z" fill="url(#paint1_linear_4978_301)" fill-opacity="0.08"/>
<path d="M7.99919 12.5691L7.99965 12.5699L8.00011 12.5691C9.07966 12.5635 9.95037 12.2225 9.95037 11.8027C9.95037 11.4947 9.48152 11.2291 8.80535 11.1073L9.18477 10.4185C10.7594 10.6169 11.9 11.2002 11.9 11.8886C11.9 12.7403 10.154 13.4311 8 13.4311C5.84603 13.4311 4.1 12.7403 4.1 11.8886C4.1 11.2003 5.24024 10.6171 6.81457 10.4186L7.18934 11.0989C6.48739 11.2166 5.9962 11.4874 5.9962 11.8027C5.9962 12.226 6.88137 12.5691 7.97328 12.5691L7.99919 12.5691Z" fill="#F7F8FB" fill-opacity="0.64"/>
<path d="M7.99919 12.5691L7.99965 12.5699L8.00011 12.5691C9.07966 12.5635 9.95037 12.2225 9.95037 11.8027C9.95037 11.4947 9.48152 11.2291 8.80535 11.1073L9.18477 10.4185C10.7594 10.6169 11.9 11.2002 11.9 11.8886C11.9 12.7403 10.154 13.4311 8 13.4311C5.84603 13.4311 4.1 12.7403 4.1 11.8886C4.1 11.2003 5.24024 10.6171 6.81457 10.4186L7.18934 11.0989C6.48739 11.2166 5.9962 11.4874 5.9962 11.8027C5.9962 12.226 6.88137 12.5691 7.97328 12.5691L7.99919 12.5691Z" fill="url(#paint2_linear_4978_301)" fill-opacity="0.08"/>
<defs>
<linearGradient id="paint0_linear_4978_301" x1="8" y1="1.5" x2="8" y2="14.5" gradientUnits="userSpaceOnUse">
<stop stop-opacity="0"/>
<stop offset="1"/>
</linearGradient>
<linearGradient id="paint1_linear_4978_301" x1="8" y1="1.5" x2="8" y2="14.5" gradientUnits="userSpaceOnUse">
<stop stop-opacity="0"/>
<stop offset="1"/>
</linearGradient>
<linearGradient id="paint2_linear_4978_301" x1="8" y1="1.5" x2="8" y2="14.5" gradientUnits="userSpaceOnUse">
<stop stop-opacity="0"/>
<stop offset="1"/>
</linearGradient>
</defs>
</svg>
