<svg width="16" height="16" viewBox="0 0 16 16" fill="none" xmlns="http://www.w3.org/2000/svg">
<path fill-rule="evenodd" clip-rule="evenodd" d="M12.8423 1.56003L13.1672 1.59218L13.4767 1.68614L13.7621 1.83837L14.0147 2.04526L14.2216 2.29758L14.374 2.58272L14.468 2.89194L14.5 3.21666V12.7734L14.468 13.0981L14.374 13.4073L14.2216 13.6925L14.0147 13.9448L13.7621 14.1517L13.4767 14.3039L13.1672 14.3979L12.8423 14.43H3.15794L2.83293 14.3979L2.52348 14.3039L2.23811 14.1517L1.98561 13.9448L1.77855 13.6925L1.62623 13.4073L1.53217 13.0981L1.5 12.7734V3.21666L1.53217 2.89194L1.62623 2.58272L1.77855 2.29758L1.98561 2.04526L2.23811 1.83837L2.52348 1.68614L2.83293 1.59218L3.15789 1.56003H12.8423ZM12.8423 2.8172H3.15789C3.05189 2.8172 2.95022 2.8593 2.87525 2.93422C2.80024 3.0091 2.75815 3.11072 2.75815 3.21666V12.7734C2.75815 12.8793 2.80024 12.981 2.87525 13.0558C2.95022 13.1308 3.05189 13.1729 3.15789 13.1729H12.8423C12.9481 13.1729 13.0501 13.1308 13.1249 13.0558C13.1997 12.981 13.242 12.8793 13.242 12.7734V3.21666C13.242 3.11072 13.1997 3.0091 13.1249 2.93422C13.0501 2.8593 12.9481 2.8172 12.8423 2.8172Z" fill="#F7F8FB" fill-opacity="0.64"/>
<path fill-rule="evenodd" clip-rule="evenodd" d="M12.8423 1.56003L13.1672 1.59218L13.4767 1.68614L13.7621 1.83837L14.0147 2.04526L14.2216 2.29758L14.374 2.58272L14.468 2.89194L14.5 3.21666V12.7734L14.468 13.0981L14.374 13.4073L14.2216 13.6925L14.0147 13.9448L13.7621 14.1517L13.4767 14.3039L13.1672 14.3979L12.8423 14.43H3.15794L2.83293 14.3979L2.52348 14.3039L2.23811 14.1517L1.98561 13.9448L1.77855 13.6925L1.62623 13.4073L1.53217 13.0981L1.5 12.7734V3.21666L1.53217 2.89194L1.62623 2.58272L1.77855 2.29758L1.98561 2.04526L2.23811 1.83837L2.52348 1.68614L2.83293 1.59218L3.15789 1.56003H12.8423ZM12.8423 2.8172H3.15789C3.05189 2.8172 2.95022 2.8593 2.87525 2.93422C2.80024 3.0091 2.75815 3.11072 2.75815 3.21666V12.7734C2.75815 12.8793 2.80024 12.981 2.87525 13.0558C2.95022 13.1308 3.05189 13.1729 3.15789 13.1729H12.8423C12.9481 13.1729 13.0501 13.1308 13.1249 13.0558C13.1997 12.981 13.242 12.8793 13.242 12.7734V3.21666C13.242 3.11072 13.1997 3.0091 13.1249 2.93422C13.0501 2.8593 12.9481 2.8172 12.8423 2.8172Z" fill="url(#paint0_linear_5700_37)" fill-opacity="0.08"/>
<defs>
<linearGradient id="paint0_linear_5700_37" x1="8" y1="1.56003" x2="8" y2="14.43" gradientUnits="userSpaceOnUse">
<stop stop-opacity="0"/>
<stop offset="1"/>
</linearGradient>
</defs>
</svg>
