<svg width="16" height="16" viewBox="0 0 16 16" fill="none" xmlns="http://www.w3.org/2000/svg">
<path d="M10.1063 7.20024C10.1392 7.01898 10.3823 6.85037 10.571 6.80711L12.8596 6.81211C13.0106 6.83742 13.2437 7.01809 13.2827 7.15551C13.3109 7.25467 13.3176 7.8423 13.268 7.90409L11.0312 9.65609C10.9135 9.70552 10.6449 9.65167 10.5032 9.66903C10.4511 9.67551 10.4613 9.70876 10.4437 9.71847C10.4178 9.73318 10.3743 9.72612 10.3673 9.73318C10.3554 9.74436 10.3532 9.88708 10.3609 9.91385C10.3756 9.96358 10.5899 9.96976 10.5067 10.1993C10.4236 10.4288 10.0772 10.224 9.91282 10.1769C9.7302 9.94593 10.0743 9.90267 10.01 9.67109H3.85103C3.84751 9.67109 3.8667 9.71964 3.828 9.72994C3.76756 9.74642 3.67673 9.69463 3.72278 9.82675C3.73334 9.85677 3.83792 9.87766 3.86702 9.93474C3.94314 10.0845 3.76916 10.2811 3.58462 10.1934C3.38666 10.0995 3.51139 9.98536 3.48612 9.87472C3.48196 9.85588 3.37674 9.68257 3.36619 9.67698C3.30415 9.64402 2.8241 9.68581 2.68914 9.66815C2.37252 9.62695 2.3124 9.38272 2.31975 9.12996C2.33542 8.59 2.47039 8.17069 3.04477 7.95176C3.08539 7.93617 3.20436 7.9191 3.2098 7.91322C3.22579 7.89644 3.20692 7.70018 3.21588 7.64074C3.23858 7.49008 3.35276 7.3403 3.52354 7.30852C3.69432 7.27674 4.28438 7.28439 4.47499 7.30058C4.82871 7.33089 4.91186 7.56188 4.87284 7.85731H10.1066C10.1322 7.65692 10.0718 7.3915 10.1063 7.20024ZM3.14903 8.23866C2.866 8.21306 2.70353 8.48172 2.67027 8.70653H3.14903V8.23866ZM3.59614 8.23778H3.37195L3.37227 8.47348H3.59646L3.59614 8.23778ZM5.82973 8.23866C5.46002 8.21542 5.39734 8.22101 5.44531 8.57647C5.46898 8.75184 5.67654 8.65474 5.82973 8.67739V8.23866ZM6.7233 8.23866C6.35359 8.21542 6.29091 8.22101 6.33888 8.57647C6.36254 8.75184 6.5701 8.65474 6.7233 8.67739V8.23866ZM7.5852 8.23866C7.21549 8.21542 7.15281 8.22101 7.20078 8.57647C7.22445 8.75184 7.43201 8.65474 7.5852 8.67739V8.23866ZM8.09562 8.23837C8.11417 8.32811 8.06396 8.58941 8.1097 8.64973C8.14072 8.69093 8.45894 8.73713 8.48036 8.57617C8.52738 8.21983 8.46629 8.21571 8.09562 8.23837ZM9.30869 8.67739C9.29014 8.58765 9.34035 8.32635 9.29461 8.26603C9.26359 8.22483 8.94538 8.17863 8.92395 8.33959C8.87693 8.69593 8.93802 8.70005 9.30869 8.67739ZM3.76436 10.0227C3.76436 9.97447 3.72182 9.93563 3.66937 9.93563C3.61692 9.93563 3.57439 9.97476 3.57439 10.0227C3.57439 10.0707 3.61692 10.1098 3.66937 10.1098C3.72182 10.1098 3.76436 10.0707 3.76436 10.0227ZM10.138 9.96417C9.96367 9.94475 9.92209 10.0427 10.0583 10.139L10.138 9.96417ZM10.406 10.1095C10.406 10.0627 10.3644 10.0248 10.3132 10.0248C10.2621 10.0248 10.2205 10.0627 10.2205 10.1095C10.2205 10.1563 10.2621 10.1943 10.3132 10.1943C10.3644 10.1943 10.406 10.1563 10.406 10.1095Z" fill="#F7F8FB" fill-opacity="0.64"/>
<path d="M10.1063 7.20024C10.1392 7.01898 10.3823 6.85037 10.571 6.80711L12.8596 6.81211C13.0106 6.83742 13.2437 7.01809 13.2827 7.15551C13.3109 7.25467 13.3176 7.8423 13.268 7.90409L11.0312 9.65609C10.9135 9.70552 10.6449 9.65167 10.5032 9.66903C10.4511 9.67551 10.4613 9.70876 10.4437 9.71847C10.4178 9.73318 10.3743 9.72612 10.3673 9.73318C10.3554 9.74436 10.3532 9.88708 10.3609 9.91385C10.3756 9.96358 10.5899 9.96976 10.5067 10.1993C10.4236 10.4288 10.0772 10.224 9.91282 10.1769C9.7302 9.94593 10.0743 9.90267 10.01 9.67109H3.85103C3.84751 9.67109 3.8667 9.71964 3.828 9.72994C3.76756 9.74642 3.67673 9.69463 3.72278 9.82675C3.73334 9.85677 3.83792 9.87766 3.86702 9.93474C3.94314 10.0845 3.76916 10.2811 3.58462 10.1934C3.38666 10.0995 3.51139 9.98536 3.48612 9.87472C3.48196 9.85588 3.37674 9.68257 3.36619 9.67698C3.30415 9.64402 2.8241 9.68581 2.68914 9.66815C2.37252 9.62695 2.3124 9.38272 2.31975 9.12996C2.33542 8.59 2.47039 8.17069 3.04477 7.95176C3.08539 7.93617 3.20436 7.9191 3.2098 7.91322C3.22579 7.89644 3.20692 7.70018 3.21588 7.64074C3.23858 7.49008 3.35276 7.3403 3.52354 7.30852C3.69432 7.27674 4.28438 7.28439 4.47499 7.30058C4.82871 7.33089 4.91186 7.56188 4.87284 7.85731H10.1066C10.1322 7.65692 10.0718 7.3915 10.1063 7.20024ZM3.14903 8.23866C2.866 8.21306 2.70353 8.48172 2.67027 8.70653H3.14903V8.23866ZM3.59614 8.23778H3.37195L3.37227 8.47348H3.59646L3.59614 8.23778ZM5.82973 8.23866C5.46002 8.21542 5.39734 8.22101 5.44531 8.57647C5.46898 8.75184 5.67654 8.65474 5.82973 8.67739V8.23866ZM6.7233 8.23866C6.35359 8.21542 6.29091 8.22101 6.33888 8.57647C6.36254 8.75184 6.5701 8.65474 6.7233 8.67739V8.23866ZM7.5852 8.23866C7.21549 8.21542 7.15281 8.22101 7.20078 8.57647C7.22445 8.75184 7.43201 8.65474 7.5852 8.67739V8.23866ZM8.09562 8.23837C8.11417 8.32811 8.06396 8.58941 8.1097 8.64973C8.14072 8.69093 8.45894 8.73713 8.48036 8.57617C8.52738 8.21983 8.46629 8.21571 8.09562 8.23837ZM9.30869 8.67739C9.29014 8.58765 9.34035 8.32635 9.29461 8.26603C9.26359 8.22483 8.94538 8.17863 8.92395 8.33959C8.87693 8.69593 8.93802 8.70005 9.30869 8.67739ZM3.76436 10.0227C3.76436 9.97447 3.72182 9.93563 3.66937 9.93563C3.61692 9.93563 3.57439 9.97476 3.57439 10.0227C3.57439 10.0707 3.61692 10.1098 3.66937 10.1098C3.72182 10.1098 3.76436 10.0707 3.76436 10.0227ZM10.138 9.96417C9.96367 9.94475 9.92209 10.0427 10.0583 10.139L10.138 9.96417ZM10.406 10.1095C10.406 10.0627 10.3644 10.0248 10.3132 10.0248C10.2621 10.0248 10.2205 10.0627 10.2205 10.1095C10.2205 10.1563 10.2621 10.1943 10.3132 10.1943C10.3644 10.1943 10.406 10.1563 10.406 10.1095Z" fill="url(#paint0_linear_4978_655)" fill-opacity="0.08"/>
<path d="M3.69144 7.21495L3.78707 7.069L0.5 6.89304V6.77651L3.7231 6.98131C3.76596 6.63527 4.06755 6.38368 4.3138 6.77592L5.74978 5.69395C5.76737 5.69336 5.78911 5.76222 5.78783 5.7681C5.77024 5.85138 4.52488 6.70942 4.36305 6.85037L4.32979 6.9513L7.7611 6.71649L7.84009 6.79005L4.23385 7.06871L4.32947 7.21466L3.69144 7.21495Z" fill="#F7F8FB" fill-opacity="0.64"/>
<path d="M3.69144 7.21495L3.78707 7.069L0.5 6.89304V6.77651L3.7231 6.98131C3.76596 6.63527 4.06755 6.38368 4.3138 6.77592L5.74978 5.69395C5.76737 5.69336 5.78911 5.76222 5.78783 5.7681C5.77024 5.85138 4.52488 6.70942 4.36305 6.85037L4.32979 6.9513L7.7611 6.71649L7.84009 6.79005L4.23385 7.06871L4.32947 7.21466L3.69144 7.21495Z" fill="url(#paint1_linear_4978_655)" fill-opacity="0.08"/>
<path d="M12.0223 6.22007L15.5 5.98673V6.07412C15.4172 6.06294 15.3398 6.09737 15.2601 6.10326C14.0829 6.18947 12.6149 6.36514 11.463 6.33719C10.5368 6.31482 9.45036 6.24214 8.52514 6.16063C8.43015 6.1524 8.29391 6.14651 8.20756 6.13209C8.1468 6.12209 8.13496 6.12738 8.16023 6.06L11.3347 6.22213C11.4396 6.21272 11.4096 6.09855 11.4457 6.02881C11.6584 5.61832 11.9827 5.88021 12.0223 6.22007Z" fill="#F7F8FB" fill-opacity="0.64"/>
<path d="M12.0223 6.22007L15.5 5.98673V6.07412C15.4172 6.06294 15.3398 6.09737 15.2601 6.10326C14.0829 6.18947 12.6149 6.36514 11.463 6.33719C10.5368 6.31482 9.45036 6.24214 8.52514 6.16063C8.43015 6.1524 8.29391 6.14651 8.20756 6.13209C8.1468 6.12209 8.13496 6.12738 8.16023 6.06L11.3347 6.22213C11.4396 6.21272 11.4096 6.09855 11.4457 6.02881C11.6584 5.61832 11.9827 5.88021 12.0223 6.22007Z" fill="url(#paint2_linear_4978_655)" fill-opacity="0.08"/>
<path d="M12.4362 6.71795H10.9682C11.0034 6.5823 11.0785 6.53816 11.2119 6.48785C11.5429 6.36308 12.3002 6.34101 12.4362 6.71795Z" fill="#F7F8FB" fill-opacity="0.64"/>
<path d="M12.4362 6.71795H10.9682C11.0034 6.5823 11.0785 6.53816 11.2119 6.48785C11.5429 6.36308 12.3002 6.34101 12.4362 6.71795Z" fill="url(#paint3_linear_4978_655)" fill-opacity="0.08"/>
<defs>
<linearGradient id="paint0_linear_4978_655" x1="8" y1="5.69395" x2="8" y2="10.3061" gradientUnits="userSpaceOnUse">
<stop stop-opacity="0"/>
<stop offset="1"/>
</linearGradient>
<linearGradient id="paint1_linear_4978_655" x1="8" y1="5.69395" x2="8" y2="10.3061" gradientUnits="userSpaceOnUse">
<stop stop-opacity="0"/>
<stop offset="1"/>
</linearGradient>
<linearGradient id="paint2_linear_4978_655" x1="8" y1="5.69395" x2="8" y2="10.3061" gradientUnits="userSpaceOnUse">
<stop stop-opacity="0"/>
<stop offset="1"/>
</linearGradient>
<linearGradient id="paint3_linear_4978_655" x1="8" y1="5.69395" x2="8" y2="10.3061" gradientUnits="userSpaceOnUse">
<stop stop-opacity="0"/>
<stop offset="1"/>
</linearGradient>
</defs>
</svg>
