<svg width="16" height="16" viewBox="0 0 16 16" fill="none" xmlns="http://www.w3.org/2000/svg">
<path fill-rule="evenodd" clip-rule="evenodd" d="M1.5 4.37576C1.5 3.98413 1.83579 3.66666 2.25 3.66666H13.75C14.1642 3.66666 14.5 3.98413 14.5 4.37576C14.5 4.76738 14.1642 5.08485 13.75 5.08485H2.25C1.83579 5.08485 1.5 4.76738 1.5 4.37576ZM3.41667 8C3.41667 7.60838 3.75245 7.29091 4.16667 7.29091H11.8333C12.2475 7.29091 12.5833 7.60838 12.5833 8C12.5833 8.39162 12.2475 8.70909 11.8333 8.70909H4.16667C3.75245 8.70909 3.41667 8.39162 3.41667 8ZM5.71667 11.6242C5.71667 11.2326 6.05245 10.9151 6.46667 10.9151H9.53333C9.94755 10.9151 10.2833 11.2326 10.2833 11.6242C10.2833 12.0159 9.94755 12.3333 9.53333 12.3333H6.46667C6.05245 12.3333 5.71667 12.0159 5.71667 11.6242Z" fill="#F7F8FB" fill-opacity="0.64"/>
<path fill-rule="evenodd" clip-rule="evenodd" d="M1.5 4.37576C1.5 3.98413 1.83579 3.66666 2.25 3.66666H13.75C14.1642 3.66666 14.5 3.98413 14.5 4.37576C14.5 4.76738 14.1642 5.08485 13.75 5.08485H2.25C1.83579 5.08485 1.5 4.76738 1.5 4.37576ZM3.41667 8C3.41667 7.60838 3.75245 7.29091 4.16667 7.29091H11.8333C12.2475 7.29091 12.5833 7.60838 12.5833 8C12.5833 8.39162 12.2475 8.70909 11.8333 8.70909H4.16667C3.75245 8.70909 3.41667 8.39162 3.41667 8ZM5.71667 11.6242C5.71667 11.2326 6.05245 10.9151 6.46667 10.9151H9.53333C9.94755 10.9151 10.2833 11.2326 10.2833 11.6242C10.2833 12.0159 9.94755 12.3333 9.53333 12.3333H6.46667C6.05245 12.3333 5.71667 12.0159 5.71667 11.6242Z" fill="url(#paint0_linear_4978_137)" fill-opacity="0.08"/>
<defs>
<linearGradient id="paint0_linear_4978_137" x1="8" y1="3.66666" x2="8" y2="12.3333" gradientUnits="userSpaceOnUse">
<stop stop-opacity="0"/>
<stop offset="1"/>
</linearGradient>
</defs>
</svg>
