<svg width="16" height="16" viewBox="0 0 16 16" fill="none" xmlns="http://www.w3.org/2000/svg">
<path d="M4.06338 9.36957C3.86114 9.36957 3.69718 9.54476 3.69718 9.76087C3.69718 9.97698 3.86114 10.1522 4.06338 10.1522H9.00704C9.20929 10.1522 9.37324 9.97698 9.37324 9.76087C9.37324 9.54476 9.20929 9.36957 9.00704 9.36957H4.06338Z" fill="#F7F8FB" fill-opacity="0.64"/>
<path d="M4.06338 9.36957C3.86114 9.36957 3.69718 9.54476 3.69718 9.76087C3.69718 9.97698 3.86114 10.1522 4.06338 10.1522H9.00704C9.20929 10.1522 9.37324 9.97698 9.37324 9.76087C9.37324 9.54476 9.20929 9.36957 9.00704 9.36957H4.06338Z" fill="url(#paint0_linear_4978_421)" fill-opacity="0.08"/>
<path fill-rule="evenodd" clip-rule="evenodd" d="M1.5 5.26087C1.5 4.28837 2.23778 3.5 3.14789 3.5H9.73944C10.6495 3.5 11.3873 4.28837 11.3873 5.26087V6.73116L13.6917 4.9682C14.0457 4.69739 14.5 5.01621 14.5 5.53543V10.0733C14.5 10.5925 14.0457 10.9113 13.6917 10.6405L11.3873 8.87754V10.7391C11.3873 11.7116 10.6495 12.5 9.73944 12.5H3.14789C2.23778 12.5 1.5 11.7116 1.5 10.7391V5.26087ZM3.14789 4.67391C2.84452 4.67391 2.59859 4.9367 2.59859 5.26087V10.7391C2.59859 11.0633 2.84452 11.3261 3.14789 11.3261H9.73944C10.0428 11.3261 10.2887 11.0633 10.2887 10.7391V5.26087C10.2887 4.9367 10.0428 4.67391 9.73944 4.67391H3.14789ZM12.0216 7.80435L13.4375 8.88763V6.72106L12.0216 7.80435Z" fill="#F7F8FB" fill-opacity="0.64"/>
<path fill-rule="evenodd" clip-rule="evenodd" d="M1.5 5.26087C1.5 4.28837 2.23778 3.5 3.14789 3.5H9.73944C10.6495 3.5 11.3873 4.28837 11.3873 5.26087V6.73116L13.6917 4.9682C14.0457 4.69739 14.5 5.01621 14.5 5.53543V10.0733C14.5 10.5925 14.0457 10.9113 13.6917 10.6405L11.3873 8.87754V10.7391C11.3873 11.7116 10.6495 12.5 9.73944 12.5H3.14789C2.23778 12.5 1.5 11.7116 1.5 10.7391V5.26087ZM3.14789 4.67391C2.84452 4.67391 2.59859 4.9367 2.59859 5.26087V10.7391C2.59859 11.0633 2.84452 11.3261 3.14789 11.3261H9.73944C10.0428 11.3261 10.2887 11.0633 10.2887 10.7391V5.26087C10.2887 4.9367 10.0428 4.67391 9.73944 4.67391H3.14789ZM12.0216 7.80435L13.4375 8.88763V6.72106L12.0216 7.80435Z" fill="url(#paint1_linear_4978_421)" fill-opacity="0.08"/>
<defs>
<linearGradient id="paint0_linear_4978_421" x1="8" y1="3.5" x2="8" y2="12.5" gradientUnits="userSpaceOnUse">
<stop stop-opacity="0"/>
<stop offset="1"/>
</linearGradient>
<linearGradient id="paint1_linear_4978_421" x1="8" y1="3.5" x2="8" y2="12.5" gradientUnits="userSpaceOnUse">
<stop stop-opacity="0"/>
<stop offset="1"/>
</linearGradient>
</defs>
</svg>
