<svg width="16" height="16" viewBox="0 0 16 16" fill="none" xmlns="http://www.w3.org/2000/svg">
<path d="M10.1106 8.81229C10.3053 8.81236 10.4918 8.88812 10.6295 9.02176C10.7673 9.15547 10.8445 9.33653 10.8445 9.52561C10.8445 9.71468 10.7673 9.89575 10.6295 10.0295L9.67896 10.9459H13.7684C13.9625 10.9459 14.1486 11.0206 14.2858 11.1538C14.4229 11.2869 14.5 11.4677 14.5 11.656C14.4999 11.8442 14.4228 12.0244 14.2858 12.1575C14.1486 12.2907 13.9625 12.3662 13.7684 12.3662H9.67896L10.6295 13.2818C10.698 13.3478 10.7527 13.4263 10.7898 13.5127C10.8269 13.5992 10.8461 13.692 10.8461 13.7857C10.8461 13.8794 10.8269 13.9729 10.7898 14.0594C10.7527 14.1458 10.698 14.2244 10.6295 14.2903C10.5615 14.3568 10.4805 14.4098 10.3915 14.4458C10.3025 14.4818 10.207 14.4998 10.1106 14.4998C10.014 14.4998 9.91805 14.4819 9.82892 14.4458C9.73981 14.4098 9.65887 14.3568 9.59088 14.2903L7.39618 12.1599C7.32792 12.0937 7.27515 12.0139 7.24225 11.9258C7.16911 11.753 7.1692 11.5591 7.24225 11.3863C7.27991 11.3005 7.33211 11.2208 7.39618 11.1514L9.59088 9.02176C9.72865 8.88806 9.91577 8.81229 10.1106 8.81229Z" fill="#F7F8FB" fill-opacity="0.64"/>
<path d="M10.1106 8.81229C10.3053 8.81236 10.4918 8.88812 10.6295 9.02176C10.7673 9.15547 10.8445 9.33653 10.8445 9.52561C10.8445 9.71468 10.7673 9.89575 10.6295 10.0295L9.67896 10.9459H13.7684C13.9625 10.9459 14.1486 11.0206 14.2858 11.1538C14.4229 11.2869 14.5 11.4677 14.5 11.656C14.4999 11.8442 14.4228 12.0244 14.2858 12.1575C14.1486 12.2907 13.9625 12.3662 13.7684 12.3662H9.67896L10.6295 13.2818C10.698 13.3478 10.7527 13.4263 10.7898 13.5127C10.8269 13.5992 10.8461 13.692 10.8461 13.7857C10.8461 13.8794 10.8269 13.9729 10.7898 14.0594C10.7527 14.1458 10.698 14.2244 10.6295 14.2903C10.5615 14.3568 10.4805 14.4098 10.3915 14.4458C10.3025 14.4818 10.207 14.4998 10.1106 14.4998C10.014 14.4998 9.91805 14.4819 9.82892 14.4458C9.73981 14.4098 9.65887 14.3568 9.59088 14.2903L7.39618 12.1599C7.32792 12.0937 7.27515 12.0139 7.24225 11.9258C7.16911 11.753 7.1692 11.5591 7.24225 11.3863C7.27991 11.3005 7.33211 11.2208 7.39618 11.1514L9.59088 9.02176C9.72865 8.88806 9.91577 8.81229 10.1106 8.81229Z" fill="url(#paint0_linear_4978_695)" fill-opacity="0.08"/>
<path d="M6.32263 10.5484C6.24693 10.6573 6.18042 10.7728 6.12665 10.8951L6.12347 10.9031L6.1203 10.9102C5.92531 11.3708 5.92087 11.8875 6.10284 12.3519H6.10046C6.10295 12.3586 6.10611 12.3653 6.10919 12.3717L1.76105 10.1223C1.60139 10.0396 1.5 9.86628 1.5 9.67637C1.50003 9.48646 1.60137 9.31307 1.76105 9.23044L2.76794 8.70994L6.32263 10.5484Z" fill="#F7F8FB" fill-opacity="0.64"/>
<path d="M6.32263 10.5484C6.24693 10.6573 6.18042 10.7728 6.12665 10.8951L6.12347 10.9031L6.1203 10.9102C5.92531 11.3708 5.92087 11.8875 6.10284 12.3519H6.10046C6.10295 12.3586 6.10611 12.3653 6.10919 12.3717L1.76105 10.1223C1.60139 10.0396 1.5 9.86628 1.5 9.67637C1.50003 9.48646 1.60137 9.31307 1.76105 9.23044L2.76794 8.70994L6.32263 10.5484Z" fill="url(#paint1_linear_4978_695)" fill-opacity="0.08"/>
<path d="M12.614 6.74058C12.7736 6.82314 12.8749 6.99666 12.875 7.1865C12.875 7.37649 12.7737 7.5506 12.614 7.63321L11.5245 8.19578C11.5091 8.17967 11.4946 8.16218 11.4785 8.14658L11.3349 8.01963C10.9866 7.74259 10.5536 7.59361 10.1106 7.59354L9.92096 7.60227C9.48244 7.64451 9.06462 7.83344 8.74188 8.14658L6.65985 10.1667L1.76105 7.63321C1.60127 7.5506 1.5 7.37649 1.5 7.1865C1.50014 6.99666 1.60138 6.82314 1.76105 6.74058L2.76794 6.22007L6.77649 8.29416C6.90584 8.36171 7.04722 8.39493 7.18671 8.39493C7.32619 8.39493 7.46757 8.3617 7.59692 8.29416L7.59851 8.29337L11.6071 6.22007L12.614 6.74058Z" fill="#F7F8FB" fill-opacity="0.64"/>
<path d="M12.614 6.74058C12.7736 6.82314 12.8749 6.99666 12.875 7.1865C12.875 7.37649 12.7737 7.5506 12.614 7.63321L11.5245 8.19578C11.5091 8.17967 11.4946 8.16218 11.4785 8.14658L11.3349 8.01963C10.9866 7.74259 10.5536 7.59361 10.1106 7.59354L9.92096 7.60227C9.48244 7.64451 9.06462 7.83344 8.74188 8.14658L6.65985 10.1667L1.76105 7.63321C1.60127 7.5506 1.5 7.37649 1.5 7.1865C1.50014 6.99666 1.60138 6.82314 1.76105 6.74058L2.76794 6.22007L6.77649 8.29416C6.90584 8.36171 7.04722 8.39493 7.18671 8.39493C7.32619 8.39493 7.46757 8.3617 7.59692 8.29416L7.59851 8.29337L11.6071 6.22007L12.614 6.74058Z" fill="url(#paint2_linear_4978_695)" fill-opacity="0.08"/>
<path d="M12.614 9.23044C12.7736 9.31307 12.875 9.48646 12.875 9.67637C12.875 9.69317 12.8734 9.70986 12.8718 9.72635H12.053L12.0538 9.72001L12.0633 9.52561L12.0538 9.33042C12.0382 9.17833 12.0032 9.0304 11.953 8.88846L12.614 9.23044Z" fill="#F7F8FB" fill-opacity="0.64"/>
<path d="M12.614 9.23044C12.7736 9.31307 12.875 9.48646 12.875 9.67637C12.875 9.69317 12.8734 9.70986 12.8718 9.72635H12.053L12.0538 9.72001L12.0633 9.52561L12.0538 9.33042C12.0382 9.17833 12.0032 9.0304 11.953 8.88846L12.614 9.23044Z" fill="url(#paint3_linear_4978_695)" fill-opacity="0.08"/>
<path d="M6.98676 1.54978C7.11275 1.48369 7.26066 1.48369 7.38666 1.54978L12.614 4.25309C12.7736 4.33575 12.875 4.50911 12.875 4.69901C12.8749 4.8889 12.7736 5.06232 12.614 5.14493L7.38666 7.84824C7.32366 7.88129 7.25431 7.89744 7.18671 7.89744C7.11911 7.89743 7.04975 7.88128 6.98676 7.84824L1.76105 5.14493C1.60137 5.06232 1.50005 4.8889 1.5 4.69901C1.5 4.50911 1.6014 4.33575 1.76105 4.25309L6.98676 1.54978Z" fill="#F7F8FB" fill-opacity="0.64"/>
<path d="M6.98676 1.54978C7.11275 1.48369 7.26066 1.48369 7.38666 1.54978L12.614 4.25309C12.7736 4.33575 12.875 4.50911 12.875 4.69901C12.8749 4.8889 12.7736 5.06232 12.614 5.14493L7.38666 7.84824C7.32366 7.88129 7.25431 7.89744 7.18671 7.89744C7.11911 7.89743 7.04975 7.88128 6.98676 7.84824L1.76105 5.14493C1.60137 5.06232 1.50005 4.8889 1.5 4.69901C1.5 4.50911 1.6014 4.33575 1.76105 4.25309L6.98676 1.54978Z" fill="url(#paint4_linear_4978_695)" fill-opacity="0.08"/>
<defs>
<linearGradient id="paint0_linear_4978_695" x1="8" y1="1.50021" x2="8" y2="14.4998" gradientUnits="userSpaceOnUse">
<stop stop-opacity="0"/>
<stop offset="1"/>
</linearGradient>
<linearGradient id="paint1_linear_4978_695" x1="8" y1="1.50021" x2="8" y2="14.4998" gradientUnits="userSpaceOnUse">
<stop stop-opacity="0"/>
<stop offset="1"/>
</linearGradient>
<linearGradient id="paint2_linear_4978_695" x1="8" y1="1.50021" x2="8" y2="14.4998" gradientUnits="userSpaceOnUse">
<stop stop-opacity="0"/>
<stop offset="1"/>
</linearGradient>
<linearGradient id="paint3_linear_4978_695" x1="8" y1="1.50021" x2="8" y2="14.4998" gradientUnits="userSpaceOnUse">
<stop stop-opacity="0"/>
<stop offset="1"/>
</linearGradient>
<linearGradient id="paint4_linear_4978_695" x1="8" y1="1.50021" x2="8" y2="14.4998" gradientUnits="userSpaceOnUse">
<stop stop-opacity="0"/>
<stop offset="1"/>
</linearGradient>
</defs>
</svg>
