<svg width="16" height="16" viewBox="0 0 16 16" fill="none" xmlns="http://www.w3.org/2000/svg">
<path fill-rule="evenodd" clip-rule="evenodd" d="M1.5 4.1C1.5 2.66406 2.66406 1.5 4.1 1.5C5.53594 1.5 6.7 2.66406 6.7 4.1V5.4H9.3V4.1C9.3 2.66407 10.464 1.5 11.9 1.5C13.336 1.5 14.5 2.66407 14.5 4.1C14.5 5.53593 13.336 6.7 11.9 6.7H10.6V9.3H11.9C13.336 9.3 14.5 10.464 14.5 11.9C14.5 13.336 13.336 14.5 11.9 14.5C10.464 14.5 9.3 13.336 9.3 11.9V10.6H6.7V11.9C6.7 13.336 5.53593 14.5 4.1 14.5C2.66407 14.5 1.5 13.336 1.5 11.9C1.5 10.464 2.66407 9.3 4.1 9.3H5.4V6.7H4.1C2.66406 6.7 1.5 5.53594 1.5 4.1ZM5.4 5.4V4.1C5.4 3.38203 4.81797 2.8 4.1 2.8C3.38203 2.8 2.8 3.38203 2.8 4.1C2.8 4.81797 3.38203 5.4 4.1 5.4H5.4ZM6.7 6.7V9.3H9.3V6.7H6.7ZM5.4 10.6H4.1C3.38203 10.6 2.8 11.182 2.8 11.9C2.8 12.618 3.38203 13.2 4.1 13.2C4.81797 13.2 5.4 12.618 5.4 11.9V10.6ZM10.6 10.6V11.9C10.6 12.618 11.182 13.2 11.9 13.2C12.618 13.2 13.2 12.618 13.2 11.9C13.2 11.182 12.618 10.6 11.9 10.6H10.6ZM10.6 5.4H11.9C12.618 5.4 13.2 4.81797 13.2 4.1C13.2 3.38203 12.618 2.8 11.9 2.8C11.182 2.8 10.6 3.38203 10.6 4.1V5.4Z" fill="#F7F8FB" fill-opacity="0.64"/>
<path fill-rule="evenodd" clip-rule="evenodd" d="M1.5 4.1C1.5 2.66406 2.66406 1.5 4.1 1.5C5.53594 1.5 6.7 2.66406 6.7 4.1V5.4H9.3V4.1C9.3 2.66407 10.464 1.5 11.9 1.5C13.336 1.5 14.5 2.66407 14.5 4.1C14.5 5.53593 13.336 6.7 11.9 6.7H10.6V9.3H11.9C13.336 9.3 14.5 10.464 14.5 11.9C14.5 13.336 13.336 14.5 11.9 14.5C10.464 14.5 9.3 13.336 9.3 11.9V10.6H6.7V11.9C6.7 13.336 5.53593 14.5 4.1 14.5C2.66407 14.5 1.5 13.336 1.5 11.9C1.5 10.464 2.66407 9.3 4.1 9.3H5.4V6.7H4.1C2.66406 6.7 1.5 5.53594 1.5 4.1ZM5.4 5.4V4.1C5.4 3.38203 4.81797 2.8 4.1 2.8C3.38203 2.8 2.8 3.38203 2.8 4.1C2.8 4.81797 3.38203 5.4 4.1 5.4H5.4ZM6.7 6.7V9.3H9.3V6.7H6.7ZM5.4 10.6H4.1C3.38203 10.6 2.8 11.182 2.8 11.9C2.8 12.618 3.38203 13.2 4.1 13.2C4.81797 13.2 5.4 12.618 5.4 11.9V10.6ZM10.6 10.6V11.9C10.6 12.618 11.182 13.2 11.9 13.2C12.618 13.2 13.2 12.618 13.2 11.9C13.2 11.182 12.618 10.6 11.9 10.6H10.6ZM10.6 5.4H11.9C12.618 5.4 13.2 4.81797 13.2 4.1C13.2 3.38203 12.618 2.8 11.9 2.8C11.182 2.8 10.6 3.38203 10.6 4.1V5.4Z" fill="url(#paint0_linear_4978_651)" fill-opacity="0.08"/>
<defs>
<linearGradient id="paint0_linear_4978_651" x1="8" y1="1.5" x2="8" y2="14.5" gradientUnits="userSpaceOnUse">
<stop stop-opacity="0"/>
<stop offset="1"/>
</linearGradient>
</defs>
</svg>
