<svg width="16" height="16" viewBox="0 0 16 16" fill="none" xmlns="http://www.w3.org/2000/svg">
<path d="M6.375 3.125C6.375 4.02246 7.10254 4.75 8 4.75C8.89746 4.75 9.625 4.02246 9.625 3.125C9.625 2.22754 8.89746 1.5 8 1.5C7.10254 1.5 6.375 2.22754 6.375 3.125Z" fill="#F7F8FB" fill-opacity="0.64"/>
<path d="M6.375 3.125C6.375 4.02246 7.10254 4.75 8 4.75C8.89746 4.75 9.625 4.02246 9.625 3.125C9.625 2.22754 8.89746 1.5 8 1.5C7.10254 1.5 6.375 2.22754 6.375 3.125Z" fill="url(#paint0_linear_4978_189)" fill-opacity="0.08"/>
<path d="M6.375 8C6.375 8.89746 7.10254 9.625 8 9.625C8.89746 9.625 9.625 8.89746 9.625 8C9.625 7.10254 8.89746 6.375 8 6.375C7.10254 6.375 6.375 7.10254 6.375 8Z" fill="#F7F8FB" fill-opacity="0.64"/>
<path d="M6.375 8C6.375 8.89746 7.10254 9.625 8 9.625C8.89746 9.625 9.625 8.89746 9.625 8C9.625 7.10254 8.89746 6.375 8 6.375C7.10254 6.375 6.375 7.10254 6.375 8Z" fill="url(#paint1_linear_4978_189)" fill-opacity="0.08"/>
<path d="M6.37503 12.875C6.37503 13.7725 7.10254 14.5 8.00003 14.5C8.89752 14.5 9.62503 13.7725 9.62503 12.875C9.62503 11.9775 8.89752 11.25 8.00003 11.25C7.10254 11.25 6.37503 11.9775 6.37503 12.875Z" fill="#F7F8FB" fill-opacity="0.64"/>
<path d="M6.37503 12.875C6.37503 13.7725 7.10254 14.5 8.00003 14.5C8.89752 14.5 9.62503 13.7725 9.62503 12.875C9.62503 11.9775 8.89752 11.25 8.00003 11.25C7.10254 11.25 6.37503 11.9775 6.37503 12.875Z" fill="url(#paint2_linear_4978_189)" fill-opacity="0.08"/>
<defs>
<linearGradient id="paint0_linear_4978_189" x1="8.00002" y1="1.5" x2="8.00002" y2="14.5" gradientUnits="userSpaceOnUse">
<stop stop-opacity="0"/>
<stop offset="1"/>
</linearGradient>
<linearGradient id="paint1_linear_4978_189" x1="8.00002" y1="1.5" x2="8.00002" y2="14.5" gradientUnits="userSpaceOnUse">
<stop stop-opacity="0"/>
<stop offset="1"/>
</linearGradient>
<linearGradient id="paint2_linear_4978_189" x1="8.00002" y1="1.5" x2="8.00002" y2="14.5" gradientUnits="userSpaceOnUse">
<stop stop-opacity="0"/>
<stop offset="1"/>
</linearGradient>
</defs>
</svg>
