<svg width="16" height="16" viewBox="0 0 16 16" fill="none" xmlns="http://www.w3.org/2000/svg">
<path fill-rule="evenodd" clip-rule="evenodd" d="M11.5558 11.8224L9.36027 6.06702V11.3715H6.74019V3.16853H8.92359C9.16313 3.16853 9.36027 3.3641 9.36027 3.60179V5.59045L10.9061 4.99254C10.9556 4.97388 11.0082 4.96431 11.0612 4.96431C11.2422 4.96431 11.4052 5.07595 11.4694 5.24384L13.6708 11.003L11.5558 11.8224ZM14.1449 12.2433L14.5 13.1725L12.3865 14L12.029 13.063L14.1449 12.2433ZM1.5 11.3715V1.43549C1.53394 1.17014 1.77749 0.976855 2.04586 1.00224H5.32096C5.58932 0.976855 5.83287 1.17014 5.86681 1.43549V11.3715H1.5ZM9.36027 12.698V14H6.74019V12.698H9.36027ZM5.86681 12.698V14H1.5V12.698H5.86681Z" fill="#F7F8FB" fill-opacity="0.64"/>
<path fill-rule="evenodd" clip-rule="evenodd" d="M11.5558 11.8224L9.36027 6.06702V11.3715H6.74019V3.16853H8.92359C9.16313 3.16853 9.36027 3.3641 9.36027 3.60179V5.59045L10.9061 4.99254C10.9556 4.97388 11.0082 4.96431 11.0612 4.96431C11.2422 4.96431 11.4052 5.07595 11.4694 5.24384L13.6708 11.003L11.5558 11.8224ZM14.1449 12.2433L14.5 13.1725L12.3865 14L12.029 13.063L14.1449 12.2433ZM1.5 11.3715V1.43549C1.53394 1.17014 1.77749 0.976855 2.04586 1.00224H5.32096C5.58932 0.976855 5.83287 1.17014 5.86681 1.43549V11.3715H1.5ZM9.36027 12.698V14H6.74019V12.698H9.36027ZM5.86681 12.698V14H1.5V12.698H5.86681Z" fill="url(#paint0_linear_5924_1053)" fill-opacity="0.08"/>
<defs>
<linearGradient id="paint0_linear_5924_1053" x1="8" y1="1" x2="8" y2="14" gradientUnits="userSpaceOnUse">
<stop stop-opacity="0"/>
<stop offset="1"/>
</linearGradient>
</defs>
</svg>
