<svg width="16" height="16" viewBox="0 0 16 16" fill="none" xmlns="http://www.w3.org/2000/svg">
<path fill-rule="evenodd" clip-rule="evenodd" d="M7.99951 5.85736C6.92253 5.85736 6.04951 6.81671 6.04951 8.00021C6.04951 9.18371 6.92253 10.1431 7.99951 10.1431C9.0765 10.1431 9.94951 9.18371 9.94951 8.00021C9.94951 6.81671 9.0765 5.85736 7.99951 5.85736ZM7.34951 8.00021C7.34951 7.60571 7.64052 7.28593 7.99951 7.28593C8.35851 7.28593 8.64951 7.60571 8.64951 8.00021C8.64951 8.39471 8.35851 8.7145 7.99951 8.7145C7.64052 8.7145 7.34951 8.39471 7.34951 8.00021Z" fill="#F7F8FB" fill-opacity="0.64"/>
<path fill-rule="evenodd" clip-rule="evenodd" d="M7.99951 5.85736C6.92253 5.85736 6.04951 6.81671 6.04951 8.00021C6.04951 9.18371 6.92253 10.1431 7.99951 10.1431C9.0765 10.1431 9.94951 9.18371 9.94951 8.00021C9.94951 6.81671 9.0765 5.85736 7.99951 5.85736ZM7.34951 8.00021C7.34951 7.60571 7.64052 7.28593 7.99951 7.28593C8.35851 7.28593 8.64951 7.60571 8.64951 8.00021C8.64951 8.39471 8.35851 8.7145 7.99951 8.7145C7.64052 8.7145 7.34951 8.39471 7.34951 8.00021Z" fill="url(#paint0_linear_4978_183)" fill-opacity="0.08"/>
<path fill-rule="evenodd" clip-rule="evenodd" d="M14.3895 7.48621C12.9023 4.53704 10.4779 3 8 3C5.52205 3 3.09767 4.53704 1.61052 7.48621C1.46514 7.77457 1.46335 8.13007 1.60419 8.41971C3.06769 11.4295 5.50582 13 8 13C10.4942 13 12.9323 11.4295 14.3958 8.41971C14.5367 8.13007 14.5348 7.77457 14.3895 7.48621ZM8 11.5714C6.08963 11.5714 4.12634 10.4089 2.85963 7.96336C4.1446 5.56867 6.09758 4.42857 8 4.42857C9.90242 4.42857 11.8554 5.56867 13.1404 7.96336C11.8737 10.4089 9.91035 11.5714 8 11.5714Z" fill="#F7F8FB" fill-opacity="0.64"/>
<path fill-rule="evenodd" clip-rule="evenodd" d="M14.3895 7.48621C12.9023 4.53704 10.4779 3 8 3C5.52205 3 3.09767 4.53704 1.61052 7.48621C1.46514 7.77457 1.46335 8.13007 1.60419 8.41971C3.06769 11.4295 5.50582 13 8 13C10.4942 13 12.9323 11.4295 14.3958 8.41971C14.5367 8.13007 14.5348 7.77457 14.3895 7.48621ZM8 11.5714C6.08963 11.5714 4.12634 10.4089 2.85963 7.96336C4.1446 5.56867 6.09758 4.42857 8 4.42857C9.90242 4.42857 11.8554 5.56867 13.1404 7.96336C11.8737 10.4089 9.91035 11.5714 8 11.5714Z" fill="url(#paint1_linear_4978_183)" fill-opacity="0.08"/>
<defs>
<linearGradient id="paint0_linear_4978_183" x1="8" y1="3" x2="8" y2="13" gradientUnits="userSpaceOnUse">
<stop stop-opacity="0"/>
<stop offset="1"/>
</linearGradient>
<linearGradient id="paint1_linear_4978_183" x1="8" y1="3" x2="8" y2="13" gradientUnits="userSpaceOnUse">
<stop stop-opacity="0"/>
<stop offset="1"/>
</linearGradient>
</defs>
</svg>
