<svg width="16" height="16" viewBox="0 0 16 16" fill="none" xmlns="http://www.w3.org/2000/svg">
<path d="M10.97 9.98891L8 7.21681L5.03004 9.98891C4.79444 10.2088 4.41452 10.2088 4.17891 9.98891C3.94036 9.76626 3.94036 9.40307 4.17891 9.18041L7.57443 6.01109C7.81004 5.79118 8.18996 5.79118 8.42557 6.01109L11.8211 9.18041C12.0596 9.40307 12.0596 9.76626 11.8211 9.98891C11.5855 10.2088 11.2056 10.2088 10.97 9.98891Z" fill="#F7F8FB" fill-opacity="0.64"/>
<path d="M10.97 9.98891L8 7.21681L5.03004 9.98891C4.79444 10.2088 4.41452 10.2088 4.17891 9.98891C3.94036 9.76626 3.94036 9.40307 4.17891 9.18041L7.57443 6.01109C7.81004 5.79118 8.18996 5.79118 8.42557 6.01109L11.8211 9.18041C12.0596 9.40307 12.0596 9.76626 11.8211 9.98891C11.5855 10.2088 11.2056 10.2088 10.97 9.98891Z" fill="url(#paint0_linear_6710_1079)" fill-opacity="0.08"/>
<defs>
<linearGradient id="paint0_linear_6710_1079" x1="8" y1="5.84615" x2="8" y2="10.1538" gradientUnits="userSpaceOnUse">
<stop stop-opacity="0"/>
<stop offset="1"/>
</linearGradient>
</defs>
</svg>
