<svg width="16" height="16" viewBox="0 0 16 16" fill="none" xmlns="http://www.w3.org/2000/svg">
<path d="M13.2 13.2C13.5575 13.2 13.8634 13.0728 14.1178 12.8185C14.3722 12.5641 14.4996 12.2579 14.5 11.9V4.1C14.5 3.7425 14.3726 3.43657 14.1178 3.1822C13.863 2.92784 13.5571 2.80044 13.2 2.8H2.8C2.4425 2.8 2.13635 2.9274 1.88155 3.1822C1.62675 3.437 1.49957 3.74294 1.5 4.1V11.9C1.5 12.2575 1.62718 12.5637 1.88155 12.8185C2.13592 13.0733 2.44207 13.2004 2.8 13.2H13.2ZM7.35 6.7H2.8V4.1H7.35V6.7Z" fill="#F7F8FB" fill-opacity="0.64"/>
<path d="M13.2 13.2C13.5575 13.2 13.8634 13.0728 14.1178 12.8185C14.3722 12.5641 14.4996 12.2579 14.5 11.9V4.1C14.5 3.7425 14.3726 3.43657 14.1178 3.1822C13.863 2.92784 13.5571 2.80044 13.2 2.8H2.8C2.4425 2.8 2.13635 2.9274 1.88155 3.1822C1.62675 3.437 1.49957 3.74294 1.5 4.1V11.9C1.5 12.2575 1.62718 12.5637 1.88155 12.8185C2.13592 13.0733 2.44207 13.2004 2.8 13.2H13.2ZM7.35 6.7H2.8V4.1H7.35V6.7Z" fill="url(#paint0_linear_4978_685)" fill-opacity="0.08"/>
<defs>
<linearGradient id="paint0_linear_4978_685" x1="8" y1="2.8" x2="8" y2="13.2" gradientUnits="userSpaceOnUse">
<stop stop-opacity="0"/>
<stop offset="1"/>
</linearGradient>
</defs>
</svg>
