<svg width="16" height="16" viewBox="0 0 16 16" fill="none" xmlns="http://www.w3.org/2000/svg">
<path d="M8.04642 1.5L8.09491 1.50178C8.33532 1.5197 8.54784 1.67003 8.64386 1.89406C8.74623 2.13303 8.69646 2.41014 8.51716 2.5984L3.99179 7.35H8.32495C8.68394 7.35 8.97495 7.64101 8.97495 8C8.97495 8.35898 8.68394 8.65 8.32495 8.65H2.47495C2.21493 8.65 1.97994 8.49493 1.87751 8.25594C1.77514 8.01696 1.82491 7.73987 2.00421 7.5516L6.52958 2.8H2.47495C2.11597 2.8 1.82495 2.50899 1.82495 2.15C1.82495 1.79101 2.11597 1.5 2.47495 1.5H8.04642Z" fill="#F7F8FB" fill-opacity="0.64"/>
<path d="M8.04642 1.5L8.09491 1.50178C8.33532 1.5197 8.54784 1.67003 8.64386 1.89406C8.74623 2.13303 8.69646 2.41014 8.51716 2.5984L3.99179 7.35H8.32495C8.68394 7.35 8.97495 7.64101 8.97495 8C8.97495 8.35898 8.68394 8.65 8.32495 8.65H2.47495C2.21493 8.65 1.97994 8.49493 1.87751 8.25594C1.77514 8.01696 1.82491 7.73987 2.00421 7.5516L6.52958 2.8H2.47495C2.11597 2.8 1.82495 2.50899 1.82495 2.15C1.82495 1.79101 2.11597 1.5 2.47495 1.5H8.04642Z" fill="url(#paint0_linear_4978_711)" fill-opacity="0.08"/>
<path d="M13.5249 4.425L13.5722 4.42678C13.8071 4.44383 14.0161 4.58711 14.1155 4.80332C14.2216 5.03392 14.1837 5.30528 14.0185 5.49801L11.0382 8.975H13.5249C13.8839 8.975 14.1749 9.26602 14.1749 9.625C14.1749 9.98398 13.8839 10.275 13.5249 10.275H9.62495C9.37112 10.275 9.14044 10.1273 9.03436 9.89668C8.9283 9.66608 8.96618 9.39472 9.13135 9.20199L12.1117 5.725H9.62495C9.26596 5.725 8.97495 5.43398 8.97495 5.075C8.97495 4.71601 9.26596 4.425 9.62495 4.425H13.5249Z" fill="#F7F8FB" fill-opacity="0.64"/>
<path d="M13.5249 4.425L13.5722 4.42678C13.8071 4.44383 14.0161 4.58711 14.1155 4.80332C14.2216 5.03392 14.1837 5.30528 14.0185 5.49801L11.0382 8.975H13.5249C13.8839 8.975 14.1749 9.26602 14.1749 9.625C14.1749 9.98398 13.8839 10.275 13.5249 10.275H9.62495C9.37112 10.275 9.14044 10.1273 9.03436 9.89668C8.9283 9.66608 8.96618 9.39472 9.13135 9.20199L12.1117 5.725H9.62495C9.26596 5.725 8.97495 5.43398 8.97495 5.075C8.97495 4.71601 9.26596 4.425 9.62495 4.425H13.5249Z" fill="url(#paint1_linear_4978_711)" fill-opacity="0.08"/>
<path d="M8.01544 9.95L8.06317 9.95178C8.30095 9.96923 8.51183 10.1162 8.60958 10.3364C8.71377 10.5713 8.66975 10.8457 8.49735 11.0362L6.53974 13.2H8.32495C8.68394 13.2 8.97495 13.491 8.97495 13.85C8.97495 14.209 8.68394 14.5 8.32495 14.5H5.07495C4.81795 14.5 4.58506 14.3485 4.48081 14.1136C4.37662 13.8787 4.42064 13.6043 4.59304 13.4138L6.55065 11.25H5.07495C4.71597 11.25 4.42495 10.959 4.42495 10.6C4.42495 10.241 4.71597 9.95 5.07495 9.95H8.01544Z" fill="#F7F8FB" fill-opacity="0.64"/>
<path d="M8.01544 9.95L8.06317 9.95178C8.30095 9.96923 8.51183 10.1162 8.60958 10.3364C8.71377 10.5713 8.66975 10.8457 8.49735 11.0362L6.53974 13.2H8.32495C8.68394 13.2 8.97495 13.491 8.97495 13.85C8.97495 14.209 8.68394 14.5 8.32495 14.5H5.07495C4.81795 14.5 4.58506 14.3485 4.48081 14.1136C4.37662 13.8787 4.42064 13.6043 4.59304 13.4138L6.55065 11.25H5.07495C4.71597 11.25 4.42495 10.959 4.42495 10.6C4.42495 10.241 4.71597 9.95 5.07495 9.95H8.01544Z" fill="url(#paint2_linear_4978_711)" fill-opacity="0.08"/>
<defs>
<linearGradient id="paint0_linear_4978_711" x1="7.99998" y1="1.5" x2="7.99998" y2="14.5" gradientUnits="userSpaceOnUse">
<stop stop-opacity="0"/>
<stop offset="1"/>
</linearGradient>
<linearGradient id="paint1_linear_4978_711" x1="7.99998" y1="1.5" x2="7.99998" y2="14.5" gradientUnits="userSpaceOnUse">
<stop stop-opacity="0"/>
<stop offset="1"/>
</linearGradient>
<linearGradient id="paint2_linear_4978_711" x1="7.99998" y1="1.5" x2="7.99998" y2="14.5" gradientUnits="userSpaceOnUse">
<stop stop-opacity="0"/>
<stop offset="1"/>
</linearGradient>
</defs>
</svg>
