<svg width="16" height="16" viewBox="0 0 16 16" fill="none" xmlns="http://www.w3.org/2000/svg">
<path d="M1.5 5.39999V2.79999C1.5 2.6276 1.56848 2.46227 1.69038 2.34037C1.81228 2.21848 1.97761 2.14999 2.15 2.14999H6.05C6.22239 2.14999 6.38772 2.21848 6.50962 2.34037C6.63152 2.46227 6.7 2.6276 6.7 2.79999C6.7 2.97238 6.63152 3.13771 6.50962 3.25961C6.38772 3.38151 6.22239 3.44999 6.05 3.44999H2.8V5.39999C2.8 5.57238 2.73152 5.73771 2.60962 5.85961C2.48772 5.98151 2.32239 6.04999 2.15 6.04999C1.97761 6.04999 1.81228 5.98151 1.69038 5.85961C1.56848 5.73771 1.5 5.57238 1.5 5.39999ZM13.85 2.14999H9.95C9.77761 2.14999 9.61228 2.21848 9.49038 2.34037C9.36848 2.46227 9.3 2.6276 9.3 2.79999C9.3 2.97238 9.36848 3.13771 9.49038 3.25961C9.61228 3.38151 9.77761 3.44999 9.95 3.44999H13.2V5.39999C13.2 5.57238 13.2685 5.73771 13.3904 5.85961C13.5123 5.98151 13.6776 6.04999 13.85 6.04999C14.0224 6.04999 14.1877 5.98151 14.3096 5.85961C14.4315 5.73771 14.5 5.57238 14.5 5.39999V2.79999C14.5 2.6276 14.4315 2.46227 14.3096 2.34037C14.1877 2.21848 14.0224 2.14999 13.85 2.14999ZM2.15 13.85H6.05C6.22239 13.85 6.38772 13.7815 6.50962 13.6596C6.63152 13.5377 6.7 13.3724 6.7 13.2C6.7 13.0276 6.63152 12.8623 6.50962 12.7404C6.38772 12.6185 6.22239 12.55 6.05 12.55H2.8V10.6C2.8 10.4276 2.73152 10.2623 2.60962 10.1404C2.48772 10.0185 2.32239 9.94999 2.15 9.94999C1.97761 9.94999 1.81228 10.0185 1.69038 10.1404C1.56848 10.2623 1.5 10.4276 1.5 10.6V13.2C1.5 13.3724 1.56848 13.5377 1.69038 13.6596C1.81228 13.7815 1.97761 13.85 2.15 13.85ZM13.85 9.94999C13.6776 9.94999 13.5123 10.0185 13.3904 10.1404C13.2685 10.2623 13.2 10.4276 13.2 10.6V12.55H9.95C9.77761 12.55 9.61228 12.6185 9.49038 12.7404C9.36848 12.8623 9.3 13.0276 9.3 13.2C9.3 13.3724 9.36848 13.5377 9.49038 13.6596C9.61228 13.7815 9.77761 13.85 9.95 13.85H13.85C14.0224 13.85 14.1877 13.7815 14.3096 13.6596C14.4315 13.5377 14.5 13.3724 14.5 13.2V10.6C14.5 10.4276 14.4315 10.2623 14.3096 10.1404C14.1877 10.0185 14.0224 9.94999 13.85 9.94999ZM4.1 6.04999V9.94999C4.1 10.1224 4.16848 10.2877 4.29038 10.4096C4.41228 10.5315 4.57761 10.6 4.75 10.6H11.25C11.4224 10.6 11.5877 10.5315 11.7096 10.4096C11.8315 10.2877 11.9 10.1224 11.9 9.94999V6.04999C11.9 5.8776 11.8315 5.71227 11.7096 5.59037C11.5877 5.46848 11.4224 5.39999 11.25 5.39999H4.75C4.57761 5.39999 4.41228 5.46848 4.29038 5.59037C4.16848 5.71227 4.1 5.8776 4.1 6.04999Z" fill="#F7F8FB" fill-opacity="0.64"/>
<path d="M1.5 5.39999V2.79999C1.5 2.6276 1.56848 2.46227 1.69038 2.34037C1.81228 2.21848 1.97761 2.14999 2.15 2.14999H6.05C6.22239 2.14999 6.38772 2.21848 6.50962 2.34037C6.63152 2.46227 6.7 2.6276 6.7 2.79999C6.7 2.97238 6.63152 3.13771 6.50962 3.25961C6.38772 3.38151 6.22239 3.44999 6.05 3.44999H2.8V5.39999C2.8 5.57238 2.73152 5.73771 2.60962 5.85961C2.48772 5.98151 2.32239 6.04999 2.15 6.04999C1.97761 6.04999 1.81228 5.98151 1.69038 5.85961C1.56848 5.73771 1.5 5.57238 1.5 5.39999ZM13.85 2.14999H9.95C9.77761 2.14999 9.61228 2.21848 9.49038 2.34037C9.36848 2.46227 9.3 2.6276 9.3 2.79999C9.3 2.97238 9.36848 3.13771 9.49038 3.25961C9.61228 3.38151 9.77761 3.44999 9.95 3.44999H13.2V5.39999C13.2 5.57238 13.2685 5.73771 13.3904 5.85961C13.5123 5.98151 13.6776 6.04999 13.85 6.04999C14.0224 6.04999 14.1877 5.98151 14.3096 5.85961C14.4315 5.73771 14.5 5.57238 14.5 5.39999V2.79999C14.5 2.6276 14.4315 2.46227 14.3096 2.34037C14.1877 2.21848 14.0224 2.14999 13.85 2.14999ZM2.15 13.85H6.05C6.22239 13.85 6.38772 13.7815 6.50962 13.6596C6.63152 13.5377 6.7 13.3724 6.7 13.2C6.7 13.0276 6.63152 12.8623 6.50962 12.7404C6.38772 12.6185 6.22239 12.55 6.05 12.55H2.8V10.6C2.8 10.4276 2.73152 10.2623 2.60962 10.1404C2.48772 10.0185 2.32239 9.94999 2.15 9.94999C1.97761 9.94999 1.81228 10.0185 1.69038 10.1404C1.56848 10.2623 1.5 10.4276 1.5 10.6V13.2C1.5 13.3724 1.56848 13.5377 1.69038 13.6596C1.81228 13.7815 1.97761 13.85 2.15 13.85ZM13.85 9.94999C13.6776 9.94999 13.5123 10.0185 13.3904 10.1404C13.2685 10.2623 13.2 10.4276 13.2 10.6V12.55H9.95C9.77761 12.55 9.61228 12.6185 9.49038 12.7404C9.36848 12.8623 9.3 13.0276 9.3 13.2C9.3 13.3724 9.36848 13.5377 9.49038 13.6596C9.61228 13.7815 9.77761 13.85 9.95 13.85H13.85C14.0224 13.85 14.1877 13.7815 14.3096 13.6596C14.4315 13.5377 14.5 13.3724 14.5 13.2V10.6C14.5 10.4276 14.4315 10.2623 14.3096 10.1404C14.1877 10.0185 14.0224 9.94999 13.85 9.94999ZM4.1 6.04999V9.94999C4.1 10.1224 4.16848 10.2877 4.29038 10.4096C4.41228 10.5315 4.57761 10.6 4.75 10.6H11.25C11.4224 10.6 11.5877 10.5315 11.7096 10.4096C11.8315 10.2877 11.9 10.1224 11.9 9.94999V6.04999C11.9 5.8776 11.8315 5.71227 11.7096 5.59037C11.5877 5.46848 11.4224 5.39999 11.25 5.39999H4.75C4.57761 5.39999 4.41228 5.46848 4.29038 5.59037C4.16848 5.71227 4.1 5.8776 4.1 6.04999Z" fill="url(#paint0_linear_5319_134)" fill-opacity="0.08"/>
<defs>
<linearGradient id="paint0_linear_5319_134" x1="8" y1="2.14999" x2="8" y2="13.85" gradientUnits="userSpaceOnUse">
<stop stop-opacity="0"/>
<stop offset="1"/>
</linearGradient>
</defs>
</svg>
