<svg width="16" height="16" viewBox="0 0 16 16" fill="none" xmlns="http://www.w3.org/2000/svg">
<path d="M7.73027 3.98795C7.90422 3.98795 8.04541 4.13833 8.04544 4.32364V7.84894C8.04543 8.03415 7.90423 8.18463 7.73027 8.18463H3.29906C3.1251 8.18463 2.98364 8.03415 2.98364 7.84894V4.32364C2.98367 4.13833 3.12511 3.98795 3.29906 3.98795H7.73027Z" fill="#F7F8FB" fill-opacity="0.64"/>
<path d="M7.73027 3.98795C7.90422 3.98795 8.04541 4.13833 8.04544 4.32364V7.84894C8.04543 8.03415 7.90423 8.18463 7.73027 8.18463H3.29906C3.1251 8.18463 2.98364 8.03415 2.98364 7.84894V4.32364C2.98367 4.13833 3.12511 3.98795 3.29906 3.98795H7.73027Z" fill="url(#paint0_linear_4978_397)" fill-opacity="0.08"/>
<path fill-rule="evenodd" clip-rule="evenodd" d="M12.93 2.5C13.797 2.50004 14.5 3.2035 14.5 4.07131V11.9284C14.5 12.7962 13.797 13.5 12.93 13.5H3.07004C2.20295 13.5 1.50004 12.7962 1.5 11.9284V4.07131C1.5 3.20347 2.20292 2.5 3.07004 2.5H12.93ZM2.99151 3.28551C2.60079 3.28556 2.28345 3.62352 2.28345 4.0397V11.9572C2.28349 12.3734 2.60082 12.7111 2.99151 12.7111H3.00149C3.02407 12.7132 3.04697 12.7139 3.07004 12.7139H12.93C12.953 12.7139 12.9757 12.7132 12.9982 12.7111H13.0069C13.3976 12.7111 13.7149 12.3734 13.715 11.9572V4.0397C13.715 3.62349 13.3977 3.28551 13.0069 3.28551H2.99151Z" fill="#F7F8FB" fill-opacity="0.64"/>
<path fill-rule="evenodd" clip-rule="evenodd" d="M12.93 2.5C13.797 2.50004 14.5 3.2035 14.5 4.07131V11.9284C14.5 12.7962 13.797 13.5 12.93 13.5H3.07004C2.20295 13.5 1.50004 12.7962 1.5 11.9284V4.07131C1.5 3.20347 2.20292 2.5 3.07004 2.5H12.93ZM2.99151 3.28551C2.60079 3.28556 2.28345 3.62352 2.28345 4.0397V11.9572C2.28349 12.3734 2.60082 12.7111 2.99151 12.7111H3.00149C3.02407 12.7132 3.04697 12.7139 3.07004 12.7139H12.93C12.953 12.7139 12.9757 12.7132 12.9982 12.7111H13.0069C13.3976 12.7111 13.7149 12.3734 13.715 11.9572V4.0397C13.715 3.62349 13.3977 3.28551 13.0069 3.28551H2.99151Z" fill="url(#paint1_linear_4978_397)" fill-opacity="0.08"/>
<defs>
<linearGradient id="paint0_linear_4978_397" x1="8" y1="2.5" x2="8" y2="13.5" gradientUnits="userSpaceOnUse">
<stop stop-opacity="0"/>
<stop offset="1"/>
</linearGradient>
<linearGradient id="paint1_linear_4978_397" x1="8" y1="2.5" x2="8" y2="13.5" gradientUnits="userSpaceOnUse">
<stop stop-opacity="0"/>
<stop offset="1"/>
</linearGradient>
</defs>
</svg>
