<svg width="16" height="16" viewBox="0 0 16 16" fill="none" xmlns="http://www.w3.org/2000/svg">
<path fill-rule="evenodd" clip-rule="evenodd" d="M8.45541 2.97727C8.45541 2.48775 8.76682 2.09091 9.15096 2.09091H13.8045C14.1886 2.09091 14.5 2.48775 14.5 2.97727C14.5 3.4668 14.1886 3.86364 13.8045 3.86364H9.15096C8.76682 3.86364 8.45541 3.4668 8.45541 2.97727Z" fill="#F7F8FB" fill-opacity="0.64"/>
<path fill-rule="evenodd" clip-rule="evenodd" d="M8.45541 2.97727C8.45541 2.48775 8.76682 2.09091 9.15096 2.09091H13.8045C14.1886 2.09091 14.5 2.48775 14.5 2.97727C14.5 3.4668 14.1886 3.86364 13.8045 3.86364H9.15096C8.76682 3.86364 8.45541 3.4668 8.45541 2.97727Z" fill="url(#paint0_linear_4978_127)" fill-opacity="0.08"/>
<path fill-rule="evenodd" clip-rule="evenodd" d="M8.45541 5.93182C8.45541 5.44229 8.75199 5.04545 9.11783 5.04545H11.5191C11.885 5.04545 12.1815 5.44229 12.1815 5.93182C12.1815 6.42134 11.885 6.81818 11.5191 6.81818H9.11783C8.75199 6.81818 8.45541 6.42134 8.45541 5.93182Z" fill="#F7F8FB" fill-opacity="0.64"/>
<path fill-rule="evenodd" clip-rule="evenodd" d="M8.45541 5.93182C8.45541 5.44229 8.75199 5.04545 9.11783 5.04545H11.5191C11.885 5.04545 12.1815 5.44229 12.1815 5.93182C12.1815 6.42134 11.885 6.81818 11.5191 6.81818H9.11783C8.75199 6.81818 8.45541 6.42134 8.45541 5.93182Z" fill="url(#paint1_linear_4978_127)" fill-opacity="0.08"/>
<path fill-rule="evenodd" clip-rule="evenodd" d="M8.45541 10.0682C8.45541 9.57866 8.76682 9.18182 9.15096 9.18182H13.8045C14.1886 9.18182 14.5 9.57866 14.5 10.0682C14.5 10.5577 14.1886 10.9545 13.8045 10.9545H9.15096C8.76682 10.9545 8.45541 10.5577 8.45541 10.0682Z" fill="#F7F8FB" fill-opacity="0.64"/>
<path fill-rule="evenodd" clip-rule="evenodd" d="M8.45541 10.0682C8.45541 9.57866 8.76682 9.18182 9.15096 9.18182H13.8045C14.1886 9.18182 14.5 9.57866 14.5 10.0682C14.5 10.5577 14.1886 10.9545 13.8045 10.9545H9.15096C8.76682 10.9545 8.45541 10.5577 8.45541 10.0682Z" fill="url(#paint2_linear_4978_127)" fill-opacity="0.08"/>
<path fill-rule="evenodd" clip-rule="evenodd" d="M8.45541 13.0227C8.45541 12.5332 8.75199 12.1364 9.11783 12.1364H11.5191C11.885 12.1364 12.1815 12.5332 12.1815 13.0227C12.1815 13.5123 11.885 13.9091 11.5191 13.9091H9.11783C8.75199 13.9091 8.45541 13.5123 8.45541 13.0227Z" fill="#F7F8FB" fill-opacity="0.64"/>
<path fill-rule="evenodd" clip-rule="evenodd" d="M8.45541 13.0227C8.45541 12.5332 8.75199 12.1364 9.11783 12.1364H11.5191C11.885 12.1364 12.1815 12.5332 12.1815 13.0227C12.1815 13.5123 11.885 13.9091 11.5191 13.9091H9.11783C8.75199 13.9091 8.45541 13.5123 8.45541 13.0227Z" fill="url(#paint3_linear_4978_127)" fill-opacity="0.08"/>
<path fill-rule="evenodd" clip-rule="evenodd" d="M1.5 2.97727C1.5 2.1614 2.14876 1.5 2.94904 1.5L5.84713 1.5C6.64742 1.5 7.29618 2.1614 7.29618 2.97727V5.93182C7.29618 6.74769 6.64742 7.40909 5.84713 7.40909H2.94904C2.14876 7.40909 1.5 6.74769 1.5 5.93182L1.5 2.97727ZM5.84713 2.97727H2.94904V5.93182H5.84713V2.97727Z" fill="#F7F8FB" fill-opacity="0.64"/>
<path fill-rule="evenodd" clip-rule="evenodd" d="M1.5 2.97727C1.5 2.1614 2.14876 1.5 2.94904 1.5L5.84713 1.5C6.64742 1.5 7.29618 2.1614 7.29618 2.97727V5.93182C7.29618 6.74769 6.64742 7.40909 5.84713 7.40909H2.94904C2.14876 7.40909 1.5 6.74769 1.5 5.93182L1.5 2.97727ZM5.84713 2.97727H2.94904V5.93182H5.84713V2.97727Z" fill="url(#paint4_linear_4978_127)" fill-opacity="0.08"/>
<path fill-rule="evenodd" clip-rule="evenodd" d="M1.5 10.0682C1.5 9.25231 2.14876 8.59091 2.94904 8.59091H5.84713C6.64742 8.59091 7.29618 9.25231 7.29618 10.0682V13.0227C7.29618 13.8386 6.64742 14.5 5.84713 14.5H2.94904C2.14876 14.5 1.5 13.8386 1.5 13.0227L1.5 10.0682ZM5.84713 10.0682H2.94904V13.0227H5.84713V10.0682Z" fill="#F7F8FB" fill-opacity="0.64"/>
<path fill-rule="evenodd" clip-rule="evenodd" d="M1.5 10.0682C1.5 9.25231 2.14876 8.59091 2.94904 8.59091H5.84713C6.64742 8.59091 7.29618 9.25231 7.29618 10.0682V13.0227C7.29618 13.8386 6.64742 14.5 5.84713 14.5H2.94904C2.14876 14.5 1.5 13.8386 1.5 13.0227L1.5 10.0682ZM5.84713 10.0682H2.94904V13.0227H5.84713V10.0682Z" fill="url(#paint5_linear_4978_127)" fill-opacity="0.08"/>
<defs>
<linearGradient id="paint0_linear_4978_127" x1="8" y1="1.5" x2="8" y2="14.5" gradientUnits="userSpaceOnUse">
<stop stop-opacity="0"/>
<stop offset="1"/>
</linearGradient>
<linearGradient id="paint1_linear_4978_127" x1="8" y1="1.5" x2="8" y2="14.5" gradientUnits="userSpaceOnUse">
<stop stop-opacity="0"/>
<stop offset="1"/>
</linearGradient>
<linearGradient id="paint2_linear_4978_127" x1="8" y1="1.5" x2="8" y2="14.5" gradientUnits="userSpaceOnUse">
<stop stop-opacity="0"/>
<stop offset="1"/>
</linearGradient>
<linearGradient id="paint3_linear_4978_127" x1="8" y1="1.5" x2="8" y2="14.5" gradientUnits="userSpaceOnUse">
<stop stop-opacity="0"/>
<stop offset="1"/>
</linearGradient>
<linearGradient id="paint4_linear_4978_127" x1="8" y1="1.5" x2="8" y2="14.5" gradientUnits="userSpaceOnUse">
<stop stop-opacity="0"/>
<stop offset="1"/>
</linearGradient>
<linearGradient id="paint5_linear_4978_127" x1="8" y1="1.5" x2="8" y2="14.5" gradientUnits="userSpaceOnUse">
<stop stop-opacity="0"/>
<stop offset="1"/>
</linearGradient>
</defs>
</svg>
