<svg width="16" height="16" viewBox="0 0 16 16" fill="none" xmlns="http://www.w3.org/2000/svg">
<path d="M12.6602 3.9863C12.8777 3.98631 13.0544 4.17443 13.0544 4.40621V7.76487C13.0544 7.99647 12.8776 8.18449 12.6602 8.18449H3.37812C3.16055 8.18445 2.98396 7.99645 2.9839 7.76487V4.40621C2.9839 4.17445 3.16051 3.98635 3.37812 3.9863H12.6602Z" fill="#F7F8FB" fill-opacity="0.64"/>
<path d="M12.6602 3.9863C12.8777 3.98631 13.0544 4.17443 13.0544 4.40621V7.76487C13.0544 7.99647 12.8776 8.18449 12.6602 8.18449H3.37812C3.16055 8.18445 2.98396 7.99645 2.9839 7.76487V4.40621C2.9839 4.17445 3.16051 3.98635 3.37812 3.9863H12.6602Z" fill="url(#paint0_linear_6027_1503)" fill-opacity="0.08"/>
<path fill-rule="evenodd" clip-rule="evenodd" d="M12.93 2.5C13.797 2.50004 14.5 3.20352 14.5 4.07135V11.9284C14.5 12.7962 13.797 13.5 12.93 13.5H3.07004C2.20292 13.5 1.5 12.7962 1.5 11.9284V4.07135C1.5 3.20349 2.20292 2.5 3.07004 2.5H12.93ZM2.99151 3.28553C2.60082 3.28558 2.2835 3.62331 2.28345 4.03946V11.9572C2.28345 12.3734 2.60079 12.7113 2.99151 12.7114H3.00149C3.02407 12.7135 3.04697 12.7142 3.07004 12.7142H12.93C12.953 12.7142 12.9757 12.7135 12.9982 12.7114H13.0069C13.3977 12.7114 13.715 12.3734 13.715 11.9572V4.03946C13.7149 3.62328 13.3976 3.28553 13.0069 3.28553H2.99151Z" fill="#F7F8FB" fill-opacity="0.64"/>
<path fill-rule="evenodd" clip-rule="evenodd" d="M12.93 2.5C13.797 2.50004 14.5 3.20352 14.5 4.07135V11.9284C14.5 12.7962 13.797 13.5 12.93 13.5H3.07004C2.20292 13.5 1.5 12.7962 1.5 11.9284V4.07135C1.5 3.20349 2.20292 2.5 3.07004 2.5H12.93ZM2.99151 3.28553C2.60082 3.28558 2.2835 3.62331 2.28345 4.03946V11.9572C2.28345 12.3734 2.60079 12.7113 2.99151 12.7114H3.00149C3.02407 12.7135 3.04697 12.7142 3.07004 12.7142H12.93C12.953 12.7142 12.9757 12.7135 12.9982 12.7114H13.0069C13.3977 12.7114 13.715 12.3734 13.715 11.9572V4.03946C13.7149 3.62328 13.3976 3.28553 13.0069 3.28553H2.99151Z" fill="url(#paint1_linear_6027_1503)" fill-opacity="0.08"/>
<defs>
<linearGradient id="paint0_linear_6027_1503" x1="8" y1="2.5" x2="8" y2="13.5" gradientUnits="userSpaceOnUse">
<stop stop-opacity="0"/>
<stop offset="1"/>
</linearGradient>
<linearGradient id="paint1_linear_6027_1503" x1="8" y1="2.5" x2="8" y2="13.5" gradientUnits="userSpaceOnUse">
<stop stop-opacity="0"/>
<stop offset="1"/>
</linearGradient>
</defs>
</svg>
