<svg width="16" height="16" viewBox="0 0 16 16" fill="none" xmlns="http://www.w3.org/2000/svg">
<path d="M14.5 7.07211L9.2387 1.5V4.84327C9.2387 4.84327 -0.477175 4.15604 1.8641 14.2973C1.87463 14.3544 1.90356 14.4058 1.94595 14.4428C1.98834 14.4798 2.04156 14.5 2.09648 14.5C2.1514 14.5 2.20461 14.4798 2.24701 14.4428C2.2894 14.4058 2.31833 14.3544 2.32885 14.2973C2.63576 12.4399 3.99493 8.72517 9.2387 8.93877V12.6535L14.5 7.07211Z" fill="#F7F8FB" fill-opacity="0.64"/>
<path d="M14.5 7.07211L9.2387 1.5V4.84327C9.2387 4.84327 -0.477175 4.15604 1.8641 14.2973C1.87463 14.3544 1.90356 14.4058 1.94595 14.4428C1.98834 14.4798 2.04156 14.5 2.09648 14.5C2.1514 14.5 2.20461 14.4798 2.24701 14.4428C2.2894 14.4058 2.31833 14.3544 2.32885 14.2973C2.63576 12.4399 3.99493 8.72517 9.2387 8.93877V12.6535L14.5 7.07211Z" fill="url(#paint0_linear_4978_241)" fill-opacity="0.08"/>
<defs>
<linearGradient id="paint0_linear_4978_241" x1="8" y1="1.5" x2="8" y2="14.5" gradientUnits="userSpaceOnUse">
<stop stop-opacity="0"/>
<stop offset="1"/>
</linearGradient>
</defs>
</svg>
