<svg width="16" height="16" viewBox="0 0 16 16" fill="none" xmlns="http://www.w3.org/2000/svg">
<path d="M5.375 7.07579C5.375 5.62678 6.551 4.45078 8 4.45078C9.449 4.45078 10.625 5.62678 10.625 7.07579C10.618 8.49679 9.505 9.64479 8.091 9.69379H7.965C6.488 9.65179 5.375 8.49679 5.375 7.07579Z" fill="#F7F8FB" fill-opacity="0.64"/>
<path d="M5.375 7.07579C5.375 5.62678 6.551 4.45078 8 4.45078C9.449 4.45078 10.625 5.62678 10.625 7.07579C10.618 8.49679 9.505 9.64479 8.091 9.69379H7.965C6.488 9.65179 5.375 8.49679 5.375 7.07579Z" fill="url(#paint0_linear_4978_365)" fill-opacity="0.08"/>
<path fill-rule="evenodd" clip-rule="evenodd" d="M8 1C11.857 1 15 4.143 15 8C15 10.03 14.125 11.857 12.732 13.138C12.736 13.142 12.7377 13.1437 12.7385 13.1458C12.739 13.1473 12.739 13.149 12.739 13.152C12.669 13.215 12.592 13.278 12.515 13.341C12.4864 13.3601 12.461 13.3824 12.4345 13.4057C12.4221 13.4167 12.4094 13.4278 12.396 13.439C12.27 13.544 12.137 13.642 11.997 13.74C11.9823 13.7505 11.9683 13.761 11.9545 13.7713C11.9222 13.7953 11.8913 13.8184 11.857 13.838C11.7637 13.8987 11.6703 13.9531 11.577 14.0075C11.5303 14.0348 11.4837 14.062 11.437 14.09C11.4183 14.1007 11.3997 14.1123 11.3806 14.1243C11.3497 14.1436 11.3177 14.1637 11.283 14.181C11.136 14.258 10.989 14.328 10.842 14.391C10.786 14.419 10.73 14.447 10.674 14.468C10.576 14.51 10.4718 14.5458 10.3676 14.5816C10.3154 14.5994 10.2633 14.6173 10.212 14.636C10.156 14.65 10.1 14.671 10.044 14.692C9.92527 14.7333 9.79894 14.7632 9.67341 14.7929C9.62871 14.8034 9.58411 14.814 9.54 14.825C9.51019 14.8287 9.48236 14.8364 9.45546 14.8439C9.43183 14.8504 9.40892 14.8567 9.386 14.86C9.19 14.902 8.994 14.93 8.791 14.951C8.763 14.958 8.735 14.965 8.707 14.965C8.476 14.986 8.238 15 8 15C7.762 15 7.524 14.986 7.286 14.965C7.258 14.958 7.23 14.951 7.202 14.951C6.999 14.93 6.803 14.902 6.607 14.86C6.551 14.853 6.502 14.839 6.453 14.825C6.28503 14.783 6.11697 14.741 5.949 14.692C5.89301 14.678 5.83702 14.657 5.78103 14.636C5.62703 14.587 5.473 14.531 5.319 14.468C5.26301 14.447 5.20702 14.419 5.15103 14.391C4.99703 14.328 4.85 14.258 4.71 14.181C4.6855 14.167 4.65926 14.1513 4.63302 14.1355C4.60676 14.1198 4.5805 14.104 4.556 14.09C4.409 14.013 4.269 13.929 4.136 13.838C4.11149 13.8205 4.08874 13.8047 4.06598 13.789C4.04324 13.7732 4.02049 13.7575 3.996 13.74C3.96559 13.7176 3.93482 13.6952 3.90394 13.6727C3.79972 13.5968 3.69419 13.52 3.597 13.439C3.56839 13.4199 3.54303 13.3976 3.5165 13.3743C3.50408 13.3633 3.49139 13.3522 3.478 13.341C3.44867 13.3146 3.41689 13.2894 3.38471 13.264C3.34008 13.2286 3.29467 13.1927 3.254 13.152C3.261 13.145 3.261 13.145 3.261 13.138C1.875 11.857 1 10.03 1 8C1 4.143 4.143 1 8 1ZM4.542 11.479C6.453 10.205 9.561 10.205 11.458 11.479C11.766 11.682 12.025 11.92 12.228 12.179C13.292 11.101 13.95 9.624 13.95 8C13.95 4.717 11.283 2.05 8 2.05C4.717 2.05 2.05 4.717 2.05 8C2.05 9.624 2.708 11.101 3.772 12.179C3.982 11.92 4.234 11.682 4.542 11.479Z" fill="#F7F8FB" fill-opacity="0.64"/>
<path fill-rule="evenodd" clip-rule="evenodd" d="M8 1C11.857 1 15 4.143 15 8C15 10.03 14.125 11.857 12.732 13.138C12.736 13.142 12.7377 13.1437 12.7385 13.1458C12.739 13.1473 12.739 13.149 12.739 13.152C12.669 13.215 12.592 13.278 12.515 13.341C12.4864 13.3601 12.461 13.3824 12.4345 13.4057C12.4221 13.4167 12.4094 13.4278 12.396 13.439C12.27 13.544 12.137 13.642 11.997 13.74C11.9823 13.7505 11.9683 13.761 11.9545 13.7713C11.9222 13.7953 11.8913 13.8184 11.857 13.838C11.7637 13.8987 11.6703 13.9531 11.577 14.0075C11.5303 14.0348 11.4837 14.062 11.437 14.09C11.4183 14.1007 11.3997 14.1123 11.3806 14.1243C11.3497 14.1436 11.3177 14.1637 11.283 14.181C11.136 14.258 10.989 14.328 10.842 14.391C10.786 14.419 10.73 14.447 10.674 14.468C10.576 14.51 10.4718 14.5458 10.3676 14.5816C10.3154 14.5994 10.2633 14.6173 10.212 14.636C10.156 14.65 10.1 14.671 10.044 14.692C9.92527 14.7333 9.79894 14.7632 9.67341 14.7929C9.62871 14.8034 9.58411 14.814 9.54 14.825C9.51019 14.8287 9.48236 14.8364 9.45546 14.8439C9.43183 14.8504 9.40892 14.8567 9.386 14.86C9.19 14.902 8.994 14.93 8.791 14.951C8.763 14.958 8.735 14.965 8.707 14.965C8.476 14.986 8.238 15 8 15C7.762 15 7.524 14.986 7.286 14.965C7.258 14.958 7.23 14.951 7.202 14.951C6.999 14.93 6.803 14.902 6.607 14.86C6.551 14.853 6.502 14.839 6.453 14.825C6.28503 14.783 6.11697 14.741 5.949 14.692C5.89301 14.678 5.83702 14.657 5.78103 14.636C5.62703 14.587 5.473 14.531 5.319 14.468C5.26301 14.447 5.20702 14.419 5.15103 14.391C4.99703 14.328 4.85 14.258 4.71 14.181C4.6855 14.167 4.65926 14.1513 4.63302 14.1355C4.60676 14.1198 4.5805 14.104 4.556 14.09C4.409 14.013 4.269 13.929 4.136 13.838C4.11149 13.8205 4.08874 13.8047 4.06598 13.789C4.04324 13.7732 4.02049 13.7575 3.996 13.74C3.96559 13.7176 3.93482 13.6952 3.90394 13.6727C3.79972 13.5968 3.69419 13.52 3.597 13.439C3.56839 13.4199 3.54303 13.3976 3.5165 13.3743C3.50408 13.3633 3.49139 13.3522 3.478 13.341C3.44867 13.3146 3.41689 13.2894 3.38471 13.264C3.34008 13.2286 3.29467 13.1927 3.254 13.152C3.261 13.145 3.261 13.145 3.261 13.138C1.875 11.857 1 10.03 1 8C1 4.143 4.143 1 8 1ZM4.542 11.479C6.453 10.205 9.561 10.205 11.458 11.479C11.766 11.682 12.025 11.92 12.228 12.179C13.292 11.101 13.95 9.624 13.95 8C13.95 4.717 11.283 2.05 8 2.05C4.717 2.05 2.05 4.717 2.05 8C2.05 9.624 2.708 11.101 3.772 12.179C3.982 11.92 4.234 11.682 4.542 11.479Z" fill="url(#paint1_linear_4978_365)" fill-opacity="0.08"/>
<defs>
<linearGradient id="paint0_linear_4978_365" x1="8" y1="1" x2="8" y2="15" gradientUnits="userSpaceOnUse">
<stop stop-opacity="0"/>
<stop offset="1"/>
</linearGradient>
<linearGradient id="paint1_linear_4978_365" x1="8" y1="1" x2="8" y2="15" gradientUnits="userSpaceOnUse">
<stop stop-opacity="0"/>
<stop offset="1"/>
</linearGradient>
</defs>
</svg>
