<svg width="16" height="16" viewBox="0 0 16 16" fill="none" xmlns="http://www.w3.org/2000/svg">
<path d="M5.45378 7.08008C5.45378 7.6103 5.02642 8.04016 4.49924 8.04016C3.97205 8.04016 3.54469 7.6103 3.54469 7.08008C3.54469 6.54985 3.97205 6.12001 4.49924 6.12001C5.02642 6.12001 5.45378 6.54985 5.45378 7.08008Z" fill="#F7F8FB" fill-opacity="0.64"/>
<path d="M5.45378 7.08008C5.45378 7.6103 5.02642 8.04016 4.49924 8.04016C3.97205 8.04016 3.54469 7.6103 3.54469 7.08008C3.54469 6.54985 3.97205 6.12001 4.49924 6.12001C5.02642 6.12001 5.45378 6.54985 5.45378 7.08008Z" fill="url(#paint0_linear_4978_571)" fill-opacity="0.08"/>
<path d="M7.04507 5.47958C7.57224 5.47958 7.99962 5.04974 7.99962 4.5195C7.99962 3.98927 7.57224 3.55943 7.04507 3.55943C6.51789 3.55943 6.09053 3.98927 6.09053 4.5195C6.09053 5.04974 6.51789 5.47958 7.04507 5.47958Z" fill="#F7F8FB" fill-opacity="0.64"/>
<path d="M7.04507 5.47958C7.57224 5.47958 7.99962 5.04974 7.99962 4.5195C7.99962 3.98927 7.57224 3.55943 7.04507 3.55943C6.51789 3.55943 6.09053 3.98927 6.09053 4.5195C6.09053 5.04974 6.51789 5.47958 7.04507 5.47958Z" fill="url(#paint1_linear_4978_571)" fill-opacity="0.08"/>
<path d="M11.1811 4.5195C11.1811 5.04974 10.7537 5.47958 10.2265 5.47958C9.69935 5.47958 9.27196 5.04974 9.27196 4.5195C9.27196 3.98927 9.69935 3.55943 10.2265 3.55943C10.7537 3.55943 11.1811 3.98927 11.1811 4.5195Z" fill="#F7F8FB" fill-opacity="0.64"/>
<path d="M11.1811 4.5195C11.1811 5.04974 10.7537 5.47958 10.2265 5.47958C9.69935 5.47958 9.27196 5.04974 9.27196 4.5195C9.27196 3.98927 9.69935 3.55943 10.2265 3.55943C10.7537 3.55943 11.1811 3.98927 11.1811 4.5195Z" fill="url(#paint2_linear_4978_571)" fill-opacity="0.08"/>
<path d="M5.13598 11.24C5.66316 11.24 6.09053 10.8102 6.09053 10.2799C6.09053 9.74973 5.66316 9.31987 5.13598 9.31987C4.6088 9.31987 4.18144 9.74973 4.18144 10.2799C4.18144 10.8102 4.6088 11.24 5.13598 11.24Z" fill="#F7F8FB" fill-opacity="0.64"/>
<path d="M5.13598 11.24C5.66316 11.24 6.09053 10.8102 6.09053 10.2799C6.09053 9.74973 5.66316 9.31987 5.13598 9.31987C4.6088 9.31987 4.18144 9.74973 4.18144 10.2799C4.18144 10.8102 4.6088 11.24 5.13598 11.24Z" fill="url(#paint3_linear_4978_571)" fill-opacity="0.08"/>
<path fill-rule="evenodd" clip-rule="evenodd" d="M1 8.04054C1 4.15216 4.13401 1 8 1C11.7999 1 15 3.78371 15 7.40049V7.40984C15 7.74804 15.0001 8.32588 14.798 8.99978C14.2683 10.7656 12.3402 11.2385 10.8603 10.8583C10.5525 10.7792 10.2427 10.6935 9.94524 10.6076C9.43258 10.4594 8.96581 10.9142 9.06025 11.389L9.26235 12.4055L9.33528 12.8453C9.52428 13.986 8.63757 15.146 7.37414 14.9849C5.23194 14.7118 3.6217 13.8654 2.55015 12.6059C1.48187 11.3502 1 9.74391 1 8.04054ZM8 2.2801C4.83692 2.2801 2.27273 4.85914 2.27273 8.04054C2.27273 9.50331 2.68428 10.7947 3.51717 11.7737C4.34679 12.7488 5.64545 13.4742 7.53425 13.715C7.83117 13.7529 8.14942 13.4755 8.07986 13.0557L8.01037 12.6363L7.81221 11.64C7.52063 10.1735 8.91783 8.97866 10.2968 9.37728C10.5848 9.46056 10.8821 9.54267 11.1753 9.61801C12.3118 9.91 13.3292 9.46459 13.5794 8.63003C13.7254 8.14359 13.7273 7.72429 13.7273 7.40049C13.7273 4.61678 11.2292 2.2801 8 2.2801Z" fill="#F7F8FB" fill-opacity="0.64"/>
<path fill-rule="evenodd" clip-rule="evenodd" d="M1 8.04054C1 4.15216 4.13401 1 8 1C11.7999 1 15 3.78371 15 7.40049V7.40984C15 7.74804 15.0001 8.32588 14.798 8.99978C14.2683 10.7656 12.3402 11.2385 10.8603 10.8583C10.5525 10.7792 10.2427 10.6935 9.94524 10.6076C9.43258 10.4594 8.96581 10.9142 9.06025 11.389L9.26235 12.4055L9.33528 12.8453C9.52428 13.986 8.63757 15.146 7.37414 14.9849C5.23194 14.7118 3.6217 13.8654 2.55015 12.6059C1.48187 11.3502 1 9.74391 1 8.04054ZM8 2.2801C4.83692 2.2801 2.27273 4.85914 2.27273 8.04054C2.27273 9.50331 2.68428 10.7947 3.51717 11.7737C4.34679 12.7488 5.64545 13.4742 7.53425 13.715C7.83117 13.7529 8.14942 13.4755 8.07986 13.0557L8.01037 12.6363L7.81221 11.64C7.52063 10.1735 8.91783 8.97866 10.2968 9.37728C10.5848 9.46056 10.8821 9.54267 11.1753 9.61801C12.3118 9.91 13.3292 9.46459 13.5794 8.63003C13.7254 8.14359 13.7273 7.72429 13.7273 7.40049C13.7273 4.61678 11.2292 2.2801 8 2.2801Z" fill="url(#paint4_linear_4978_571)" fill-opacity="0.08"/>
<defs>
<linearGradient id="paint0_linear_4978_571" x1="8" y1="1" x2="8" y2="15" gradientUnits="userSpaceOnUse">
<stop stop-opacity="0"/>
<stop offset="1"/>
</linearGradient>
<linearGradient id="paint1_linear_4978_571" x1="8" y1="1" x2="8" y2="15" gradientUnits="userSpaceOnUse">
<stop stop-opacity="0"/>
<stop offset="1"/>
</linearGradient>
<linearGradient id="paint2_linear_4978_571" x1="8" y1="1" x2="8" y2="15" gradientUnits="userSpaceOnUse">
<stop stop-opacity="0"/>
<stop offset="1"/>
</linearGradient>
<linearGradient id="paint3_linear_4978_571" x1="8" y1="1" x2="8" y2="15" gradientUnits="userSpaceOnUse">
<stop stop-opacity="0"/>
<stop offset="1"/>
</linearGradient>
<linearGradient id="paint4_linear_4978_571" x1="8" y1="1" x2="8" y2="15" gradientUnits="userSpaceOnUse">
<stop stop-opacity="0"/>
<stop offset="1"/>
</linearGradient>
</defs>
</svg>
