<svg width="16" height="16" viewBox="0 0 16 16" fill="none" xmlns="http://www.w3.org/2000/svg">
<path d="M4.03589 13.4681C4.60915 13.947 5.28804 14.2836 6.01694 14.4503C6.08669 14.473 6.13362 14.382 6.08669 14.3365C4.52545 12.8513 5.38332 11.2439 6.01694 10.5191C6.46869 10.0017 7.11209 9.14957 7.06515 8.00688C7.06515 7.89248 7.18249 7.80083 7.27505 7.86973C8.16095 8.32668 8.76654 9.33222 8.92951 10.1545C9.18635 9.90357 9.27956 9.51487 9.27956 9.17232C9.27956 9.05792 9.41907 8.96627 9.53575 9.05792C10.3747 9.81192 11.8193 12.3709 9.48882 14.3814C9.44253 14.4275 9.48882 14.5192 9.53575 14.4964C10.2424 14.3117 10.9069 13.9935 11.4933 13.5591C15.2918 10.6342 12.8212 5.4472 11.213 3.73382C11.0038 3.52777 10.6309 3.66492 10.6309 3.96197C10.6074 4.57946 10.421 5.26455 9.93209 5.7215C9.55922 4.16801 8.31675 2.40328 6.54561 1.53489C6.31289 1.42049 6.03323 1.60313 6.0567 1.85468C6.10233 3.98017 4.71189 5.33345 3.50005 7.09299C2.42772 8.66923 1.72891 11.5715 4.03589 13.4681Z" fill="#F7F8FB" fill-opacity="0.64"/>
<path d="M4.03589 13.4681C4.60915 13.947 5.28804 14.2836 6.01694 14.4503C6.08669 14.473 6.13362 14.382 6.08669 14.3365C4.52545 12.8513 5.38332 11.2439 6.01694 10.5191C6.46869 10.0017 7.11209 9.14957 7.06515 8.00688C7.06515 7.89248 7.18249 7.80083 7.27505 7.86973C8.16095 8.32668 8.76654 9.33222 8.92951 10.1545C9.18635 9.90357 9.27956 9.51487 9.27956 9.17232C9.27956 9.05792 9.41907 8.96627 9.53575 9.05792C10.3747 9.81192 11.8193 12.3709 9.48882 14.3814C9.44253 14.4275 9.48882 14.5192 9.53575 14.4964C10.2424 14.3117 10.9069 13.9935 11.4933 13.5591C15.2918 10.6342 12.8212 5.4472 11.213 3.73382C11.0038 3.52777 10.6309 3.66492 10.6309 3.96197C10.6074 4.57946 10.421 5.26455 9.93209 5.7215C9.55922 4.16801 8.31675 2.40328 6.54561 1.53489C6.31289 1.42049 6.03323 1.60313 6.0567 1.85468C6.10233 3.98017 4.71189 5.33345 3.50005 7.09299C2.42772 8.66923 1.72891 11.5715 4.03589 13.4681Z" fill="url(#paint0_linear_4978_531)" fill-opacity="0.08"/>
<defs>
<linearGradient id="paint0_linear_4978_531" x1="8" y1="1.5" x2="8" y2="14.5" gradientUnits="userSpaceOnUse">
<stop stop-opacity="0"/>
<stop offset="1"/>
</linearGradient>
</defs>
</svg>
