<svg width="16" height="16" viewBox="0 0 16 16" fill="none" xmlns="http://www.w3.org/2000/svg">
<path d="M8.65 4.75H7.35V7.35H4.75V8.65H7.35V11.25H8.65V8.65H11.25V7.35H8.65V4.75ZM8 1.5C4.412 1.5 1.5 4.412 1.5 8C1.5 11.588 4.412 14.5 8 14.5C11.588 14.5 14.5 11.588 14.5 8C14.5 4.412 11.588 1.5 8 1.5ZM8 13.2C5.1335 13.2 2.8 10.8665 2.8 8C2.8 5.1335 5.1335 2.8 8 2.8C10.8665 2.8 13.2 5.1335 13.2 8C13.2 10.8665 10.8665 13.2 8 13.2Z" fill="#F7F8FB" fill-opacity="0.64"/>
<path d="M8.65 4.75H7.35V7.35H4.75V8.65H7.35V11.25H8.65V8.65H11.25V7.35H8.65V4.75ZM8 1.5C4.412 1.5 1.5 4.412 1.5 8C1.5 11.588 4.412 14.5 8 14.5C11.588 14.5 14.5 11.588 14.5 8C14.5 4.412 11.588 1.5 8 1.5ZM8 13.2C5.1335 13.2 2.8 10.8665 2.8 8C2.8 5.1335 5.1335 2.8 8 2.8C10.8665 2.8 13.2 5.1335 13.2 8C13.2 10.8665 10.8665 13.2 8 13.2Z" fill="url(#paint0_linear_4978_117)" fill-opacity="0.08"/>
<defs>
<linearGradient id="paint0_linear_4978_117" x1="8" y1="1.5" x2="8" y2="14.5" gradientUnits="userSpaceOnUse">
<stop stop-opacity="0"/>
<stop offset="1"/>
</linearGradient>
</defs>
</svg>
