<svg width="16" height="16" viewBox="0 0 16 16" fill="none" xmlns="http://www.w3.org/2000/svg">
<path fill-rule="evenodd" clip-rule="evenodd" d="M4.75889 7.68059C4.75889 6.06769 6.06643 4.76016 7.67936 4.76016C9.29227 4.76016 10.5998 6.06769 10.5998 7.68059C10.5998 8.25175 10.4359 8.78455 10.1525 9.23461L10.977 10.0591C11.2308 10.3129 11.2308 10.7245 10.977 10.9783C10.7232 11.2322 10.3116 11.2322 10.0578 10.9783L9.23325 10.1538C8.78325 10.4372 8.25045 10.6011 7.67936 10.6011C6.06643 10.6011 4.75889 9.29357 4.75889 7.68059ZM7.67936 6.06016C6.78437 6.06016 6.05889 6.78567 6.05889 7.68059C6.05889 8.57558 6.78437 9.30111 7.67936 9.30111C8.57434 9.30111 9.29981 8.57558 9.29981 7.68059C9.29981 6.78567 8.57434 6.06016 7.67936 6.06016Z" fill="#F7F8FB" fill-opacity="0.64"/>
<path fill-rule="evenodd" clip-rule="evenodd" d="M4.75889 7.68059C4.75889 6.06769 6.06643 4.76016 7.67936 4.76016C9.29227 4.76016 10.5998 6.06769 10.5998 7.68059C10.5998 8.25175 10.4359 8.78455 10.1525 9.23461L10.977 10.0591C11.2308 10.3129 11.2308 10.7245 10.977 10.9783C10.7232 11.2322 10.3116 11.2322 10.0578 10.9783L9.23325 10.1538C8.78325 10.4372 8.25045 10.6011 7.67936 10.6011C6.06643 10.6011 4.75889 9.29357 4.75889 7.68059ZM7.67936 6.06016C6.78437 6.06016 6.05889 6.78567 6.05889 7.68059C6.05889 8.57558 6.78437 9.30111 7.67936 9.30111C8.57434 9.30111 9.29981 8.57558 9.29981 7.68059C9.29981 6.78567 8.57434 6.06016 7.67936 6.06016Z" fill="url(#paint0_linear_4978_361)" fill-opacity="0.08"/>
<path fill-rule="evenodd" clip-rule="evenodd" d="M4.38889 1.5C2.7934 1.5 1.5 2.7934 1.5 4.38889V11.6111C1.5 13.2066 2.79341 14.5 4.38889 14.5H11.6111C13.2066 14.5 14.5 13.2066 14.5 11.6111V4.38889C14.5 2.79341 13.2066 1.5 11.6111 1.5H4.38889ZM2.8 4.38889C2.8 3.51137 3.51137 2.8 4.38889 2.8H11.6111C12.4886 2.8 13.2 3.51136 13.2 4.38889V11.6111C13.2 12.4887 12.4887 13.2 11.6111 13.2H4.38889C3.51136 13.2 2.8 12.4886 2.8 11.6111V4.38889Z" fill="#F7F8FB" fill-opacity="0.64"/>
<path fill-rule="evenodd" clip-rule="evenodd" d="M4.38889 1.5C2.7934 1.5 1.5 2.7934 1.5 4.38889V11.6111C1.5 13.2066 2.79341 14.5 4.38889 14.5H11.6111C13.2066 14.5 14.5 13.2066 14.5 11.6111V4.38889C14.5 2.79341 13.2066 1.5 11.6111 1.5H4.38889ZM2.8 4.38889C2.8 3.51137 3.51137 2.8 4.38889 2.8H11.6111C12.4886 2.8 13.2 3.51136 13.2 4.38889V11.6111C13.2 12.4887 12.4887 13.2 11.6111 13.2H4.38889C3.51136 13.2 2.8 12.4886 2.8 11.6111V4.38889Z" fill="url(#paint1_linear_4978_361)" fill-opacity="0.08"/>
<defs>
<linearGradient id="paint0_linear_4978_361" x1="8" y1="1.5" x2="8" y2="14.5" gradientUnits="userSpaceOnUse">
<stop stop-opacity="0"/>
<stop offset="1"/>
</linearGradient>
<linearGradient id="paint1_linear_4978_361" x1="8" y1="1.5" x2="8" y2="14.5" gradientUnits="userSpaceOnUse">
<stop stop-opacity="0"/>
<stop offset="1"/>
</linearGradient>
</defs>
</svg>
