<svg width="16" height="16" viewBox="0 0 16 16" fill="none" xmlns="http://www.w3.org/2000/svg">
<path d="M7.99087 9.37207C8.24443 9.36823 8.49886 9.44814 8.6922 9.61354C8.74314 9.65683 8.78646 9.70423 8.82358 9.75381L12.7164 13.0856C12.9053 13.2469 12.9999 13.4587 12.9996 13.6706C13 13.8826 12.9053 14.0953 12.7164 14.2574C12.338 14.5809 11.7248 14.5808 11.3466 14.2574L7.99087 11.3864L4.65377 14.2423C4.27514 14.566 3.66224 14.5657 3.28396 14.2423C2.90568 13.9184 2.90604 13.3942 3.28396 13.0705L7.15992 9.75292C7.19694 9.70369 7.23916 9.65652 7.28953 9.61354C7.48278 9.44816 7.73774 9.36817 7.99087 9.37207Z" fill="#F7F8FB" fill-opacity="0.64"/>
<path d="M7.99087 9.37207C8.24443 9.36823 8.49886 9.44814 8.6922 9.61354C8.74314 9.65683 8.78646 9.70423 8.82358 9.75381L12.7164 13.0856C12.9053 13.2469 12.9999 13.4587 12.9996 13.6706C13 13.8826 12.9053 14.0953 12.7164 14.2574C12.338 14.5809 11.7248 14.5808 11.3466 14.2574L7.99087 11.3864L4.65377 14.2423C4.27514 14.566 3.66224 14.5657 3.28396 14.2423C2.90568 13.9184 2.90604 13.3942 3.28396 13.0705L7.15992 9.75292C7.19694 9.70369 7.23916 9.65652 7.28953 9.61354C7.48278 9.44816 7.73774 9.36817 7.99087 9.37207Z" fill="url(#paint0_linear_4978_95)" fill-opacity="0.08"/>
<path d="M11.3466 1.74265C11.7248 1.41918 12.338 1.41905 12.7164 1.74265C12.9052 1.90466 12.9999 2.11671 12.9996 2.32857C13 2.54061 12.9055 2.75304 12.7164 2.9145L8.82358 6.24626C8.78646 6.29584 8.74314 6.34324 8.6922 6.38653C8.49887 6.55188 8.2444 6.63184 7.99087 6.628C7.73774 6.6319 7.48278 6.55191 7.28953 6.38653C7.23899 6.34341 7.19703 6.29566 7.15992 6.24626L3.28396 2.92959C2.90604 2.60586 2.90568 2.08073 3.28396 1.75686C3.66221 1.4338 4.27524 1.43337 4.65377 1.75686L7.99087 4.61367L11.3466 1.74265Z" fill="#F7F8FB" fill-opacity="0.64"/>
<path d="M11.3466 1.74265C11.7248 1.41918 12.338 1.41905 12.7164 1.74265C12.9052 1.90466 12.9999 2.11671 12.9996 2.32857C13 2.54061 12.9055 2.75304 12.7164 2.9145L8.82358 6.24626C8.78646 6.29584 8.74314 6.34324 8.6922 6.38653C8.49887 6.55188 8.2444 6.63184 7.99087 6.628C7.73774 6.6319 7.48278 6.55191 7.28953 6.38653C7.23899 6.34341 7.19703 6.29566 7.15992 6.24626L3.28396 2.92959C2.90604 2.60586 2.90568 2.08073 3.28396 1.75686C3.66221 1.4338 4.27524 1.43337 4.65377 1.75686L7.99087 4.61367L11.3466 1.74265Z" fill="url(#paint1_linear_4978_95)" fill-opacity="0.08"/>
<defs>
<linearGradient id="paint0_linear_4978_95" x1="8" y1="1.5" x2="8" y2="14.5" gradientUnits="userSpaceOnUse">
<stop stop-opacity="0"/>
<stop offset="1"/>
</linearGradient>
<linearGradient id="paint1_linear_4978_95" x1="8" y1="1.5" x2="8" y2="14.5" gradientUnits="userSpaceOnUse">
<stop stop-opacity="0"/>
<stop offset="1"/>
</linearGradient>
</defs>
</svg>
