<svg width="16" height="16" viewBox="0 0 16 16" fill="none" xmlns="http://www.w3.org/2000/svg">
<path d="M12.4908 5.34165H3.50917C3.37462 5.34165 3.25688 5.39027 3.15596 5.48753C3.05505 5.58479 3.00459 5.69825 3.00459 5.82793L3.64373 14.0137C3.65494 14.1542 3.72222 14.2704 3.84557 14.3622C3.96891 14.4541 4.13711 14.5 4.35015 14.5H11.6498C11.8517 14.5 12.0143 14.4541 12.1376 14.3622C12.261 14.2704 12.3338 14.1542 12.3563 14.0137L12.9954 5.82793C12.9954 5.69825 12.945 5.58479 12.844 5.48753C12.7431 5.39027 12.6254 5.34165 12.4908 5.34165ZM5.37615 13.5274C5.26402 13.5274 5.1631 13.4788 5.07339 13.3815C4.98369 13.2843 4.93884 13.1708 4.93884 13.0411L4.50153 6.78429C4.50153 6.65461 4.55199 6.54385 4.65291 6.45199C4.75382 6.36014 4.87156 6.31421 5.00612 6.31421C5.14067 6.31421 5.25841 6.36014 5.35933 6.45199C5.46024 6.54385 5.5107 6.65461 5.5107 6.78429L5.81346 13.0411C5.81346 13.1708 5.77141 13.2843 5.68731 13.3815C5.60321 13.4788 5.49949 13.5274 5.37615 13.5274ZM8.43731 13.0249C8.43731 13.1654 8.39526 13.2843 8.31116 13.3815C8.22706 13.4788 8.12334 13.5274 8 13.5274C7.87666 13.5274 7.77294 13.4788 7.68884 13.3815C7.60474 13.2843 7.56269 13.1654 7.56269 13.0249L7.49541 6.78429C7.49541 6.65461 7.54587 6.54385 7.64679 6.45199C7.74771 6.36014 7.86544 6.31421 8 6.31421C8.13456 6.31421 8.25229 6.36014 8.35321 6.45199C8.45413 6.54385 8.50459 6.65461 8.50459 6.78429L8.43731 13.0249ZM11.0612 13.0411C11.0612 13.1708 11.0163 13.2843 10.9266 13.3815C10.8369 13.4788 10.736 13.5274 10.6239 13.5274C10.5005 13.5274 10.3968 13.4788 10.3127 13.3815C10.2286 13.2843 10.1865 13.1708 10.1865 13.0411L10.4893 6.78429C10.4893 6.65461 10.5398 6.54385 10.6407 6.45199C10.7416 6.36014 10.8593 6.31421 10.9939 6.31421C11.1284 6.31421 11.2462 6.36014 11.3471 6.45199C11.448 6.54385 11.4985 6.65461 11.4985 6.78429L11.0612 13.0411ZM12.7599 3.23441L9.74924 2.74813C9.61468 2.72652 9.53058 2.64547 9.49694 2.50499L9.36239 1.97007C9.31753 1.75395 9.23904 1.61347 9.12691 1.54863C9.05963 1.51621 8.93629 1.5 8.75688 1.5H7.24312C7.06371 1.5 6.93476 1.51621 6.85627 1.54863C6.74414 1.61347 6.67125 1.75395 6.63761 1.97007L6.50306 2.50499C6.48063 2.64547 6.39653 2.72652 6.25076 2.74813L3.24006 3.23441C3.02701 3.26683 2.85041 3.34518 2.71024 3.46945C2.57008 3.59372 2.5 3.74771 2.5 3.93142V4.38529C2.5 4.48254 2.53644 4.56359 2.60933 4.62843C2.68221 4.69327 2.76911 4.72569 2.87003 4.72569H13.13C13.2309 4.72569 13.3178 4.69327 13.3907 4.62843C13.4636 4.56359 13.5 4.48254 13.5 4.38529V3.93142C13.5 3.74771 13.4299 3.59372 13.2898 3.46945C13.1496 3.34518 12.973 3.26683 12.7599 3.23441Z" fill="#F7F8FB" fill-opacity="0.64"/>
<path d="M12.4908 5.34165H3.50917C3.37462 5.34165 3.25688 5.39027 3.15596 5.48753C3.05505 5.58479 3.00459 5.69825 3.00459 5.82793L3.64373 14.0137C3.65494 14.1542 3.72222 14.2704 3.84557 14.3622C3.96891 14.4541 4.13711 14.5 4.35015 14.5H11.6498C11.8517 14.5 12.0143 14.4541 12.1376 14.3622C12.261 14.2704 12.3338 14.1542 12.3563 14.0137L12.9954 5.82793C12.9954 5.69825 12.945 5.58479 12.844 5.48753C12.7431 5.39027 12.6254 5.34165 12.4908 5.34165ZM5.37615 13.5274C5.26402 13.5274 5.1631 13.4788 5.07339 13.3815C4.98369 13.2843 4.93884 13.1708 4.93884 13.0411L4.50153 6.78429C4.50153 6.65461 4.55199 6.54385 4.65291 6.45199C4.75382 6.36014 4.87156 6.31421 5.00612 6.31421C5.14067 6.31421 5.25841 6.36014 5.35933 6.45199C5.46024 6.54385 5.5107 6.65461 5.5107 6.78429L5.81346 13.0411C5.81346 13.1708 5.77141 13.2843 5.68731 13.3815C5.60321 13.4788 5.49949 13.5274 5.37615 13.5274ZM8.43731 13.0249C8.43731 13.1654 8.39526 13.2843 8.31116 13.3815C8.22706 13.4788 8.12334 13.5274 8 13.5274C7.87666 13.5274 7.77294 13.4788 7.68884 13.3815C7.60474 13.2843 7.56269 13.1654 7.56269 13.0249L7.49541 6.78429C7.49541 6.65461 7.54587 6.54385 7.64679 6.45199C7.74771 6.36014 7.86544 6.31421 8 6.31421C8.13456 6.31421 8.25229 6.36014 8.35321 6.45199C8.45413 6.54385 8.50459 6.65461 8.50459 6.78429L8.43731 13.0249ZM11.0612 13.0411C11.0612 13.1708 11.0163 13.2843 10.9266 13.3815C10.8369 13.4788 10.736 13.5274 10.6239 13.5274C10.5005 13.5274 10.3968 13.4788 10.3127 13.3815C10.2286 13.2843 10.1865 13.1708 10.1865 13.0411L10.4893 6.78429C10.4893 6.65461 10.5398 6.54385 10.6407 6.45199C10.7416 6.36014 10.8593 6.31421 10.9939 6.31421C11.1284 6.31421 11.2462 6.36014 11.3471 6.45199C11.448 6.54385 11.4985 6.65461 11.4985 6.78429L11.0612 13.0411ZM12.7599 3.23441L9.74924 2.74813C9.61468 2.72652 9.53058 2.64547 9.49694 2.50499L9.36239 1.97007C9.31753 1.75395 9.23904 1.61347 9.12691 1.54863C9.05963 1.51621 8.93629 1.5 8.75688 1.5H7.24312C7.06371 1.5 6.93476 1.51621 6.85627 1.54863C6.74414 1.61347 6.67125 1.75395 6.63761 1.97007L6.50306 2.50499C6.48063 2.64547 6.39653 2.72652 6.25076 2.74813L3.24006 3.23441C3.02701 3.26683 2.85041 3.34518 2.71024 3.46945C2.57008 3.59372 2.5 3.74771 2.5 3.93142V4.38529C2.5 4.48254 2.53644 4.56359 2.60933 4.62843C2.68221 4.69327 2.76911 4.72569 2.87003 4.72569H13.13C13.2309 4.72569 13.3178 4.69327 13.3907 4.62843C13.4636 4.56359 13.5 4.48254 13.5 4.38529V3.93142C13.5 3.74771 13.4299 3.59372 13.2898 3.46945C13.1496 3.34518 12.973 3.26683 12.7599 3.23441Z" fill="url(#paint0_linear_4978_253)" fill-opacity="0.08"/>
<defs>
<linearGradient id="paint0_linear_4978_253" x1="8" y1="1.5" x2="8" y2="14.5" gradientUnits="userSpaceOnUse">
<stop stop-opacity="0"/>
<stop offset="1"/>
</linearGradient>
</defs>
</svg>
