<svg width="16" height="16" viewBox="0 0 16 16" fill="none" xmlns="http://www.w3.org/2000/svg">
<path d="M8.46949 12.1086L13.035 9.74777L13.0668 9.74781L14.2015 10.3345C14.3841 10.4289 14.5 10.6272 14.5 10.8443C14.5 11.0615 14.3841 11.2598 14.2015 11.3542L8.22741 14.4434C8.15541 14.4811 8.07639 14.5 7.99912 14.5C7.92186 14.5 7.84283 14.4811 7.77084 14.4434L1.79853 11.3542C1.6159 11.2598 1.5 11.0615 1.5 10.8443C1.5 10.6272 1.6159 10.4289 1.79853 10.3345L2.94863 9.73963L7.53039 12.1095C7.67825 12.1867 7.83969 12.2252 7.99912 12.2252C8.15856 12.2252 8.32 12.1867 8.46785 12.1095L8.46949 12.1086Z" fill="#F7F8FB" fill-opacity="0.64"/>
<path d="M8.46949 12.1086L13.035 9.74777L13.0668 9.74781L14.2015 10.3345C14.3841 10.4289 14.5 10.6272 14.5 10.8443C14.5 11.0615 14.3841 11.2598 14.2015 11.3542L8.22741 14.4434C8.15541 14.4811 8.07639 14.5 7.99912 14.5C7.92186 14.5 7.84283 14.4811 7.77084 14.4434L1.79853 11.3542C1.6159 11.2598 1.5 11.0615 1.5 10.8443C1.5 10.6272 1.6159 10.4289 1.79853 10.3345L2.94863 9.73963L7.53039 12.1095C7.67825 12.1867 7.83969 12.2252 7.99912 12.2252C8.15856 12.2252 8.32 12.1867 8.46785 12.1095L8.46949 12.1086Z" fill="url(#paint0_linear_4978_163)" fill-opacity="0.08"/>
<path d="M14.2015 5.66548L12.4384 6.57751L8.22741 8.75466C8.15541 8.79242 8.07639 8.81131 7.99912 8.81131C7.92186 8.81131 7.84283 8.79242 7.77084 8.75466L3.5616 6.57751L1.79853 5.66548C1.6159 5.57107 1.5 5.3728 1.5 5.15565C1.5 4.9385 1.6159 4.74024 1.79853 4.64583L7.77084 1.55665C7.91483 1.48112 8.08341 1.48112 8.22741 1.55665L14.2015 4.64583C14.3841 4.74024 14.5 4.9385 14.5 5.15565C14.5 5.3728 14.3841 5.57107 14.2015 5.66548Z" fill="#F7F8FB" fill-opacity="0.64"/>
<path d="M14.2015 5.66548L12.4384 6.57751L8.22741 8.75466C8.15541 8.79242 8.07639 8.81131 7.99912 8.81131C7.92186 8.81131 7.84283 8.79242 7.77084 8.75466L3.5616 6.57751L1.79853 5.66548C1.6159 5.57107 1.5 5.3728 1.5 5.15565C1.5 4.9385 1.6159 4.74024 1.79853 4.64583L7.77084 1.55665C7.91483 1.48112 8.08341 1.48112 8.22741 1.55665L14.2015 4.64583C14.3841 4.74024 14.5 4.9385 14.5 5.15565C14.5 5.3728 14.3841 5.57107 14.2015 5.66548Z" fill="url(#paint1_linear_4978_163)" fill-opacity="0.08"/>
<path d="M8.46949 9.26339L13.0509 6.89431L14.2015 7.48929C14.3841 7.5837 14.5 7.78196 14.5 7.99911C14.5 8.21626 14.3841 8.41453 14.2015 8.50894L8.22741 11.5981C8.15541 11.6359 8.07639 11.6548 7.99912 11.6548C7.92186 11.6548 7.84283 11.6359 7.77084 11.5981L1.79853 8.50894C1.6159 8.41453 1.5 8.21626 1.5 7.99911C1.5 7.78196 1.6159 7.5837 1.79853 7.48929L2.94863 6.8944L7.53039 9.26425C7.67825 9.34147 7.83969 9.38 7.99912 9.38C8.15856 9.38 8.32 9.34147 8.46785 9.26425L8.46949 9.26339Z" fill="#F7F8FB" fill-opacity="0.64"/>
<path d="M8.46949 9.26339L13.0509 6.89431L14.2015 7.48929C14.3841 7.5837 14.5 7.78196 14.5 7.99911C14.5 8.21626 14.3841 8.41453 14.2015 8.50894L8.22741 11.5981C8.15541 11.6359 8.07639 11.6548 7.99912 11.6548C7.92186 11.6548 7.84283 11.6359 7.77084 11.5981L1.79853 8.50894C1.6159 8.41453 1.5 8.21626 1.5 7.99911C1.5 7.78196 1.6159 7.5837 1.79853 7.48929L2.94863 6.8944L7.53039 9.26425C7.67825 9.34147 7.83969 9.38 7.99912 9.38C8.15856 9.38 8.32 9.34147 8.46785 9.26425L8.46949 9.26339Z" fill="url(#paint2_linear_4978_163)" fill-opacity="0.08"/>
<defs>
<linearGradient id="paint0_linear_4978_163" x1="8" y1="1.5" x2="8" y2="14.5" gradientUnits="userSpaceOnUse">
<stop stop-opacity="0"/>
<stop offset="1"/>
</linearGradient>
<linearGradient id="paint1_linear_4978_163" x1="8" y1="1.5" x2="8" y2="14.5" gradientUnits="userSpaceOnUse">
<stop stop-opacity="0"/>
<stop offset="1"/>
</linearGradient>
<linearGradient id="paint2_linear_4978_163" x1="8" y1="1.5" x2="8" y2="14.5" gradientUnits="userSpaceOnUse">
<stop stop-opacity="0"/>
<stop offset="1"/>
</linearGradient>
</defs>
</svg>
