<svg width="16" height="16" viewBox="0 0 16 16" fill="none" xmlns="http://www.w3.org/2000/svg">
<path d="M5.38852 3.96673C5.38852 4.50084 4.95554 4.93382 4.42142 4.93382C3.88731 4.93382 3.45433 4.50084 3.45433 3.96673C3.45433 3.43261 3.88731 2.99963 4.42142 2.99963C4.95554 2.99963 5.38852 3.43261 5.38852 3.96673Z" fill="#F7F8FB" fill-opacity="0.64"/>
<path d="M5.38852 3.96673C5.38852 4.50084 4.95554 4.93382 4.42142 4.93382C3.88731 4.93382 3.45433 4.50084 3.45433 3.96673C3.45433 3.43261 3.88731 2.99963 4.42142 2.99963C4.95554 2.99963 5.38852 3.43261 5.38852 3.96673Z" fill="url(#paint0_linear_4978_589)" fill-opacity="0.08"/>
<path fill-rule="evenodd" clip-rule="evenodd" d="M2.70441 1.5C2.03923 1.5 1.5 2.03924 1.5 2.70442V11.6706C1.5 12.3357 2.03924 12.875 2.70442 12.875H8.00694L9.066 11.8159L7.40807 10.158L10.158 7.40807L11.8159 9.066L12.875 8.00694V2.70441C12.875 2.03923 12.3357 1.5 11.6706 1.5H2.70441ZM11.6706 2.14235H2.70441C2.394 2.14235 2.14235 2.394 2.14235 2.70442V10.0637L5.29166 6.23957L6.47655 7.66144L2.59938 12.2228C2.63341 12.2293 2.66852 12.2326 2.70442 12.2326H3.71356L10.2682 3.86979L12.2326 6.27073V2.70441C12.2326 2.394 11.981 2.14235 11.6706 2.14235Z" fill="#F7F8FB" fill-opacity="0.64"/>
<path fill-rule="evenodd" clip-rule="evenodd" d="M2.70441 1.5C2.03923 1.5 1.5 2.03924 1.5 2.70442V11.6706C1.5 12.3357 2.03924 12.875 2.70442 12.875H8.00694L9.066 11.8159L7.40807 10.158L10.158 7.40807L11.8159 9.066L12.875 8.00694V2.70441C12.875 2.03923 12.3357 1.5 11.6706 1.5H2.70441ZM11.6706 2.14235H2.70441C2.394 2.14235 2.14235 2.394 2.14235 2.70442V10.0637L5.29166 6.23957L6.47655 7.66144L2.59938 12.2228C2.63341 12.2293 2.66852 12.2326 2.70442 12.2326H3.71356L10.2682 3.86979L12.2326 6.27073V2.70441C12.2326 2.394 11.981 2.14235 11.6706 2.14235Z" fill="url(#paint1_linear_4978_589)" fill-opacity="0.08"/>
<path d="M14.5 10.1578L13.4737 9.13145L11.8157 10.7894L10.1578 9.13145L9.13145 10.1578L10.7894 11.8157L9.13146 13.4737L10.1578 14.5L11.8157 12.8421L13.4737 14.5L14.5 13.4737L12.8421 11.8157L14.5 10.1578Z" fill="#F7F8FB" fill-opacity="0.64"/>
<path d="M14.5 10.1578L13.4737 9.13145L11.8157 10.7894L10.1578 9.13145L9.13145 10.1578L10.7894 11.8157L9.13146 13.4737L10.1578 14.5L11.8157 12.8421L13.4737 14.5L14.5 13.4737L12.8421 11.8157L14.5 10.1578Z" fill="url(#paint2_linear_4978_589)" fill-opacity="0.08"/>
<defs>
<linearGradient id="paint0_linear_4978_589" x1="8" y1="1.5" x2="8" y2="14.5" gradientUnits="userSpaceOnUse">
<stop stop-opacity="0"/>
<stop offset="1"/>
</linearGradient>
<linearGradient id="paint1_linear_4978_589" x1="8" y1="1.5" x2="8" y2="14.5" gradientUnits="userSpaceOnUse">
<stop stop-opacity="0"/>
<stop offset="1"/>
</linearGradient>
<linearGradient id="paint2_linear_4978_589" x1="8" y1="1.5" x2="8" y2="14.5" gradientUnits="userSpaceOnUse">
<stop stop-opacity="0"/>
<stop offset="1"/>
</linearGradient>
</defs>
</svg>
