<svg width="16" height="16" viewBox="0 0 16 16" fill="none" xmlns="http://www.w3.org/2000/svg">
<path d="M11.7551 9.98406C11.8823 9.86029 12.0527 9.7918 12.2296 9.79335C12.4065 9.7949 12.5757 9.86636 12.7008 9.99233C12.8259 10.1183 12.8968 10.2887 12.8984 10.4669C12.8999 10.645 12.8319 10.8167 12.709 10.9448L10.5623 13.1069C9.67659 13.9989 8.47534 14.5 7.22278 14.5C5.97022 14.5 4.76896 13.9989 3.88327 13.1069C2.99758 12.2148 2.5 11.005 2.5 9.74353C2.5 8.48203 2.99758 7.2722 3.88327 6.38019L7.70043 2.53716C8.0116 2.21268 8.38382 1.95387 8.79537 1.77582C9.20692 1.59777 9.64955 1.50405 10.0974 1.50013C10.5453 1.49621 10.9895 1.58217 11.4041 1.75299C11.8186 1.92381 12.1953 2.17607 12.512 2.49505C12.8287 2.81403 13.0792 3.19335 13.2488 3.61086C13.4184 4.02838 13.5038 4.47574 13.4999 4.92683C13.496 5.37792 13.4029 5.82372 13.2261 6.2382C13.0493 6.65269 12.7924 7.02756 12.4702 7.34095L8.65438 11.1853C8.27479 11.5676 7.75994 11.7824 7.22311 11.7824C6.68629 11.7824 6.17144 11.5676 5.79185 11.1853C5.41225 10.803 5.199 10.2845 5.199 9.74387C5.199 9.20321 5.41225 8.68469 5.79185 8.30239L8.89253 5.17958C8.95517 5.11645 9.02954 5.06637 9.1114 5.03219C9.19325 4.99801 9.28099 4.9804 9.36961 4.98036C9.45822 4.98033 9.54597 4.99788 9.62785 5.032C9.70973 5.06613 9.78414 5.11616 9.84682 5.17924C9.9095 5.24233 9.95923 5.31723 9.99317 5.39967C10.0271 5.48211 10.0446 5.57048 10.0446 5.65972C10.0447 5.74897 10.0272 5.83735 9.99336 5.91981C9.95947 6.00228 9.9098 6.07721 9.84716 6.14034L6.7458 9.26315C6.68316 9.32628 6.63349 9.40121 6.5996 9.48368C6.56572 9.56614 6.5483 9.65452 6.54833 9.74377C6.54836 9.83301 6.56585 9.92138 6.59979 10.0038C6.63373 10.0863 6.68346 10.1612 6.74614 10.2242C6.80882 10.2873 6.88323 10.3374 6.96511 10.3715C7.04699 10.4056 7.13474 10.4232 7.22335 10.4231C7.31197 10.4231 7.39971 10.4055 7.48156 10.3713C7.56342 10.3371 7.63779 10.287 7.70043 10.2239L11.5162 6.38019C11.7095 6.19216 11.8637 5.96723 11.9698 5.71854C12.0759 5.46985 12.1317 5.20237 12.134 4.93172C12.1364 4.66106 12.0852 4.39265 11.9834 4.14214C11.8816 3.89163 11.7314 3.66404 11.5413 3.47265C11.3513 3.28126 11.1253 3.12991 10.8766 3.02741C10.6278 2.92492 10.3613 2.87335 10.0926 2.8757C9.82386 2.87805 9.55827 2.93428 9.31134 3.04111C9.06441 3.14794 8.84108 3.30323 8.65438 3.49792L4.8379 7.34163C4.51816 7.65563 4.26352 8.03044 4.08874 8.44433C3.91396 8.85821 3.82251 9.30293 3.81972 9.75269C3.81692 10.2024 3.90282 10.6483 4.07244 11.0643C4.24206 11.4804 4.49202 11.8584 4.80782 12.1764C5.12362 12.4944 5.49897 12.7461 5.91211 12.9169C6.32524 13.0876 6.76793 13.1741 7.2145 13.1712C7.66107 13.1683 8.10263 13.0762 8.51356 12.9001C8.92448 12.724 9.2966 12.4675 9.60833 12.1454L11.7551 9.98406Z" fill="#F7F8FB" fill-opacity="0.64"/>
<path d="M11.7551 9.98406C11.8823 9.86029 12.0527 9.7918 12.2296 9.79335C12.4065 9.7949 12.5757 9.86636 12.7008 9.99233C12.8259 10.1183 12.8968 10.2887 12.8984 10.4669C12.8999 10.645 12.8319 10.8167 12.709 10.9448L10.5623 13.1069C9.67659 13.9989 8.47534 14.5 7.22278 14.5C5.97022 14.5 4.76896 13.9989 3.88327 13.1069C2.99758 12.2148 2.5 11.005 2.5 9.74353C2.5 8.48203 2.99758 7.2722 3.88327 6.38019L7.70043 2.53716C8.0116 2.21268 8.38382 1.95387 8.79537 1.77582C9.20692 1.59777 9.64955 1.50405 10.0974 1.50013C10.5453 1.49621 10.9895 1.58217 11.4041 1.75299C11.8186 1.92381 12.1953 2.17607 12.512 2.49505C12.8287 2.81403 13.0792 3.19335 13.2488 3.61086C13.4184 4.02838 13.5038 4.47574 13.4999 4.92683C13.496 5.37792 13.4029 5.82372 13.2261 6.2382C13.0493 6.65269 12.7924 7.02756 12.4702 7.34095L8.65438 11.1853C8.27479 11.5676 7.75994 11.7824 7.22311 11.7824C6.68629 11.7824 6.17144 11.5676 5.79185 11.1853C5.41225 10.803 5.199 10.2845 5.199 9.74387C5.199 9.20321 5.41225 8.68469 5.79185 8.30239L8.89253 5.17958C8.95517 5.11645 9.02954 5.06637 9.1114 5.03219C9.19325 4.99801 9.28099 4.9804 9.36961 4.98036C9.45822 4.98033 9.54597 4.99788 9.62785 5.032C9.70973 5.06613 9.78414 5.11616 9.84682 5.17924C9.9095 5.24233 9.95923 5.31723 9.99317 5.39967C10.0271 5.48211 10.0446 5.57048 10.0446 5.65972C10.0447 5.74897 10.0272 5.83735 9.99336 5.91981C9.95947 6.00228 9.9098 6.07721 9.84716 6.14034L6.7458 9.26315C6.68316 9.32628 6.63349 9.40121 6.5996 9.48368C6.56572 9.56614 6.5483 9.65452 6.54833 9.74377C6.54836 9.83301 6.56585 9.92138 6.59979 10.0038C6.63373 10.0863 6.68346 10.1612 6.74614 10.2242C6.80882 10.2873 6.88323 10.3374 6.96511 10.3715C7.04699 10.4056 7.13474 10.4232 7.22335 10.4231C7.31197 10.4231 7.39971 10.4055 7.48156 10.3713C7.56342 10.3371 7.63779 10.287 7.70043 10.2239L11.5162 6.38019C11.7095 6.19216 11.8637 5.96723 11.9698 5.71854C12.0759 5.46985 12.1317 5.20237 12.134 4.93172C12.1364 4.66106 12.0852 4.39265 11.9834 4.14214C11.8816 3.89163 11.7314 3.66404 11.5413 3.47265C11.3513 3.28126 11.1253 3.12991 10.8766 3.02741C10.6278 2.92492 10.3613 2.87335 10.0926 2.8757C9.82386 2.87805 9.55827 2.93428 9.31134 3.04111C9.06441 3.14794 8.84108 3.30323 8.65438 3.49792L4.8379 7.34163C4.51816 7.65563 4.26352 8.03044 4.08874 8.44433C3.91396 8.85821 3.82251 9.30293 3.81972 9.75269C3.81692 10.2024 3.90282 10.6483 4.07244 11.0643C4.24206 11.4804 4.49202 11.8584 4.80782 12.1764C5.12362 12.4944 5.49897 12.7461 5.91211 12.9169C6.32524 13.0876 6.76793 13.1741 7.2145 13.1712C7.66107 13.1683 8.10263 13.0762 8.51356 12.9001C8.92448 12.724 9.2966 12.4675 9.60833 12.1454L11.7551 9.98406Z" fill="url(#paint0_linear_4978_437)" fill-opacity="0.08"/>
<defs>
<linearGradient id="paint0_linear_4978_437" x1="8" y1="1.5" x2="8" y2="14.5" gradientUnits="userSpaceOnUse">
<stop stop-opacity="0"/>
<stop offset="1"/>
</linearGradient>
</defs>
</svg>
