<svg width="16" height="16" viewBox="0 0 16 16" fill="none" xmlns="http://www.w3.org/2000/svg">
<path d="M7.33333 13.2H4C3.82319 13.2 3.65362 13.1315 3.5286 13.0096C3.40357 12.8877 3.33333 12.7224 3.33333 12.55V3.45C3.33333 3.27761 3.40357 3.11228 3.5286 2.99038C3.65362 2.86848 3.82319 2.8 4 2.8H7.33333V4.75C7.33333 5.26717 7.54405 5.76316 7.91912 6.12886C8.29419 6.49455 8.8029 6.7 9.33333 6.7H11.3333V8C11.3333 8.17239 11.4036 8.33772 11.5286 8.45962C11.6536 8.58152 11.8232 8.65 12 8.65C12.1768 8.65 12.3464 8.58152 12.4714 8.45962C12.5964 8.33772 12.6667 8.17239 12.6667 8V6.011C12.6598 5.95128 12.6464 5.89245 12.6267 5.8355V5.777C12.5933 5.70893 12.5507 5.64554 12.5 5.5885L8.5 1.6885C8.4415 1.6391 8.37648 1.59757 8.30667 1.565C8.28678 1.56206 8.26655 1.56206 8.24667 1.565L8.04 1.5H4C3.46957 1.5 2.96086 1.70545 2.58579 2.07114C2.21071 2.43684 2 2.93283 2 3.45V12.55C2 13.0672 2.21071 13.5632 2.58579 13.9289C2.96086 14.2946 3.46957 14.5 4 14.5H7.33333C7.51014 14.5 7.67971 14.4315 7.80474 14.3096C7.92976 14.1877 8 14.0224 8 13.85C8 13.6776 7.92976 13.5123 7.80474 13.3904C7.67971 13.2685 7.51014 13.2 7.33333 13.2ZM8.66667 3.7165L10.3933 5.4H9.33333C9.15652 5.4 8.98695 5.33152 8.86193 5.20962C8.7369 5.08772 8.66667 4.92239 8.66667 4.75V3.7165ZM13.3333 9.95H9.60667L10.4733 9.1115C10.5989 8.9891 10.6694 8.8231 10.6694 8.65C10.6694 8.4769 10.5989 8.3109 10.4733 8.1885C10.3478 8.0661 10.1775 7.99734 10 7.99734C9.82247 7.99734 9.6522 8.0661 9.52667 8.1885L7.52667 10.1385C7.46828 10.2021 7.42099 10.2745 7.38667 10.353C7.31999 10.5112 7.31999 10.6887 7.38667 10.847C7.41664 10.9276 7.46444 11.0009 7.52667 11.0615L9.52667 13.0115C9.58864 13.0724 9.66238 13.1208 9.74362 13.1538C9.82486 13.1868 9.91199 13.2038 10 13.2038C10.088 13.2038 10.1751 13.1868 10.2564 13.1538C10.3376 13.1208 10.4114 13.0724 10.4733 13.0115C10.5358 12.9511 10.5854 12.8792 10.6193 12.8C10.6531 12.7208 10.6705 12.6358 10.6705 12.55C10.6705 12.4642 10.6531 12.3792 10.6193 12.3C10.5854 12.2208 10.5358 12.1489 10.4733 12.0885L9.60667 11.25H13.3333C13.5101 11.25 13.6797 11.1815 13.8047 11.0596C13.9298 10.9377 14 10.7724 14 10.6C14 10.4276 13.9298 10.2623 13.8047 10.1404C13.6797 10.0185 13.5101 9.95 13.3333 9.95Z" fill="#F7F8FB" fill-opacity="0.64"/>
<path d="M7.33333 13.2H4C3.82319 13.2 3.65362 13.1315 3.5286 13.0096C3.40357 12.8877 3.33333 12.7224 3.33333 12.55V3.45C3.33333 3.27761 3.40357 3.11228 3.5286 2.99038C3.65362 2.86848 3.82319 2.8 4 2.8H7.33333V4.75C7.33333 5.26717 7.54405 5.76316 7.91912 6.12886C8.29419 6.49455 8.8029 6.7 9.33333 6.7H11.3333V8C11.3333 8.17239 11.4036 8.33772 11.5286 8.45962C11.6536 8.58152 11.8232 8.65 12 8.65C12.1768 8.65 12.3464 8.58152 12.4714 8.45962C12.5964 8.33772 12.6667 8.17239 12.6667 8V6.011C12.6598 5.95128 12.6464 5.89245 12.6267 5.8355V5.777C12.5933 5.70893 12.5507 5.64554 12.5 5.5885L8.5 1.6885C8.4415 1.6391 8.37648 1.59757 8.30667 1.565C8.28678 1.56206 8.26655 1.56206 8.24667 1.565L8.04 1.5H4C3.46957 1.5 2.96086 1.70545 2.58579 2.07114C2.21071 2.43684 2 2.93283 2 3.45V12.55C2 13.0672 2.21071 13.5632 2.58579 13.9289C2.96086 14.2946 3.46957 14.5 4 14.5H7.33333C7.51014 14.5 7.67971 14.4315 7.80474 14.3096C7.92976 14.1877 8 14.0224 8 13.85C8 13.6776 7.92976 13.5123 7.80474 13.3904C7.67971 13.2685 7.51014 13.2 7.33333 13.2ZM8.66667 3.7165L10.3933 5.4H9.33333C9.15652 5.4 8.98695 5.33152 8.86193 5.20962C8.7369 5.08772 8.66667 4.92239 8.66667 4.75V3.7165ZM13.3333 9.95H9.60667L10.4733 9.1115C10.5989 8.9891 10.6694 8.8231 10.6694 8.65C10.6694 8.4769 10.5989 8.3109 10.4733 8.1885C10.3478 8.0661 10.1775 7.99734 10 7.99734C9.82247 7.99734 9.6522 8.0661 9.52667 8.1885L7.52667 10.1385C7.46828 10.2021 7.42099 10.2745 7.38667 10.353C7.31999 10.5112 7.31999 10.6887 7.38667 10.847C7.41664 10.9276 7.46444 11.0009 7.52667 11.0615L9.52667 13.0115C9.58864 13.0724 9.66238 13.1208 9.74362 13.1538C9.82486 13.1868 9.91199 13.2038 10 13.2038C10.088 13.2038 10.1751 13.1868 10.2564 13.1538C10.3376 13.1208 10.4114 13.0724 10.4733 13.0115C10.5358 12.9511 10.5854 12.8792 10.6193 12.8C10.6531 12.7208 10.6705 12.6358 10.6705 12.55C10.6705 12.4642 10.6531 12.3792 10.6193 12.3C10.5854 12.2208 10.5358 12.1489 10.4733 12.0885L9.60667 11.25H13.3333C13.5101 11.25 13.6797 11.1815 13.8047 11.0596C13.9298 10.9377 14 10.7724 14 10.6C14 10.4276 13.9298 10.2623 13.8047 10.1404C13.6797 10.0185 13.5101 9.95 13.3333 9.95Z" fill="url(#paint0_linear_4978_255)" fill-opacity="0.08"/>
<defs>
<linearGradient id="paint0_linear_4978_255" x1="8" y1="1.5" x2="8" y2="14.5" gradientUnits="userSpaceOnUse">
<stop stop-opacity="0"/>
<stop offset="1"/>
</linearGradient>
</defs>
</svg>
