<svg width="16" height="16" viewBox="0 0 16 16" fill="none" xmlns="http://www.w3.org/2000/svg">
<path fill-rule="evenodd" clip-rule="evenodd" d="M12.8155 1.56314L13.1457 1.59579L13.4601 1.69133L13.7501 1.84608L14.0066 2.05652L14.2169 2.31314L14.3718 2.60302L14.4674 2.9174L14.5 3.24761V12.7523L14.4674 13.0825L14.3718 13.397L14.2169 13.6869L14.0066 13.9435L13.7501 14.1538L13.4601 14.3086L13.1457 14.4042L12.8155 14.4369H3.18454L2.85435 14.4042L2.53995 14.3086L2.25006 14.1538L1.9934 13.9435L1.78306 13.6869L1.62833 13.397L1.53276 13.0825L1.5 12.7523V3.24761L1.53276 2.9174L1.62833 2.60302L1.78306 2.31314L1.9934 2.05652L2.25006 1.84608L2.53995 1.69133L2.85435 1.59579L3.18454 1.56314H12.8155ZM12.8155 2.82528H3.18454C3.0726 2.82528 2.96512 2.86975 2.88593 2.94896C2.80674 3.02816 2.7622 3.13563 2.7622 3.24761V12.7523C2.7622 12.8644 2.80674 12.9717 2.88593 13.0509C2.96512 13.1303 3.0726 13.1747 3.18454 13.1747H12.8155C12.9275 13.1747 13.0349 13.1303 13.1142 13.0509C13.1934 12.9717 13.2378 12.8644 13.2378 12.7523V3.24761C13.2378 3.13563 13.1934 3.02816 13.1142 2.94896C13.0349 2.86975 12.9275 2.82528 12.8155 2.82528ZM5.4287 9.81455C6.17723 9.81455 6.78494 10.4222 6.78494 11.1708C6.78494 11.9193 6.17723 12.527 5.4287 12.527C4.68018 12.527 4.07247 11.9193 4.07247 11.1708C4.07247 10.4222 4.68018 9.81455 5.4287 9.81455ZM10.5713 3.47292C11.3198 3.47292 11.9275 4.08059 11.9275 4.82912C11.9275 5.57766 11.3198 6.18533 10.5713 6.18533C9.82277 6.18533 9.21506 5.57766 9.21506 4.82912C9.21506 4.08059 9.82277 3.47292 10.5713 3.47292ZM10.5713 9.81455C11.3198 9.81455 11.9275 10.4222 11.9275 11.1708C11.9275 11.9193 11.3198 12.527 10.5713 12.527C9.82277 12.527 9.21506 11.9193 9.21506 11.1708C9.21506 10.4222 9.82277 9.81455 10.5713 9.81455ZM10.5713 6.62826C11.3198 6.62826 11.9275 7.23593 11.9275 7.98447C11.9275 8.733 11.3198 9.34068 10.5713 9.34068C9.82277 9.34068 9.21506 8.733 9.21506 7.98447C9.21506 7.23593 9.82277 6.62826 10.5713 6.62826ZM5.4287 3.47292C6.17723 3.47292 6.78494 4.08059 6.78494 4.82912C6.78494 5.57766 6.17723 6.18533 5.4287 6.18533C4.68018 6.18533 4.07247 5.57766 4.07247 4.82912C4.07247 4.08059 4.68018 3.47292 5.4287 3.47292ZM5.4287 6.62826C6.17723 6.62826 6.78494 7.23593 6.78494 7.98447C6.78494 8.733 6.17723 9.34068 5.4287 9.34068C4.68018 9.34068 4.07247 8.733 4.07247 7.98447C4.07247 7.23593 4.68018 6.62826 5.4287 6.62826Z" fill="#F7F8FB" fill-opacity="0.64"/>
<path fill-rule="evenodd" clip-rule="evenodd" d="M12.8155 1.56314L13.1457 1.59579L13.4601 1.69133L13.7501 1.84608L14.0066 2.05652L14.2169 2.31314L14.3718 2.60302L14.4674 2.9174L14.5 3.24761V12.7523L14.4674 13.0825L14.3718 13.397L14.2169 13.6869L14.0066 13.9435L13.7501 14.1538L13.4601 14.3086L13.1457 14.4042L12.8155 14.4369H3.18454L2.85435 14.4042L2.53995 14.3086L2.25006 14.1538L1.9934 13.9435L1.78306 13.6869L1.62833 13.397L1.53276 13.0825L1.5 12.7523V3.24761L1.53276 2.9174L1.62833 2.60302L1.78306 2.31314L1.9934 2.05652L2.25006 1.84608L2.53995 1.69133L2.85435 1.59579L3.18454 1.56314H12.8155ZM12.8155 2.82528H3.18454C3.0726 2.82528 2.96512 2.86975 2.88593 2.94896C2.80674 3.02816 2.7622 3.13563 2.7622 3.24761V12.7523C2.7622 12.8644 2.80674 12.9717 2.88593 13.0509C2.96512 13.1303 3.0726 13.1747 3.18454 13.1747H12.8155C12.9275 13.1747 13.0349 13.1303 13.1142 13.0509C13.1934 12.9717 13.2378 12.8644 13.2378 12.7523V3.24761C13.2378 3.13563 13.1934 3.02816 13.1142 2.94896C13.0349 2.86975 12.9275 2.82528 12.8155 2.82528ZM5.4287 9.81455C6.17723 9.81455 6.78494 10.4222 6.78494 11.1708C6.78494 11.9193 6.17723 12.527 5.4287 12.527C4.68018 12.527 4.07247 11.9193 4.07247 11.1708C4.07247 10.4222 4.68018 9.81455 5.4287 9.81455ZM10.5713 3.47292C11.3198 3.47292 11.9275 4.08059 11.9275 4.82912C11.9275 5.57766 11.3198 6.18533 10.5713 6.18533C9.82277 6.18533 9.21506 5.57766 9.21506 4.82912C9.21506 4.08059 9.82277 3.47292 10.5713 3.47292ZM10.5713 9.81455C11.3198 9.81455 11.9275 10.4222 11.9275 11.1708C11.9275 11.9193 11.3198 12.527 10.5713 12.527C9.82277 12.527 9.21506 11.9193 9.21506 11.1708C9.21506 10.4222 9.82277 9.81455 10.5713 9.81455ZM10.5713 6.62826C11.3198 6.62826 11.9275 7.23593 11.9275 7.98447C11.9275 8.733 11.3198 9.34068 10.5713 9.34068C9.82277 9.34068 9.21506 8.733 9.21506 7.98447C9.21506 7.23593 9.82277 6.62826 10.5713 6.62826ZM5.4287 3.47292C6.17723 3.47292 6.78494 4.08059 6.78494 4.82912C6.78494 5.57766 6.17723 6.18533 5.4287 6.18533C4.68018 6.18533 4.07247 5.57766 4.07247 4.82912C4.07247 4.08059 4.68018 3.47292 5.4287 3.47292ZM5.4287 6.62826C6.17723 6.62826 6.78494 7.23593 6.78494 7.98447C6.78494 8.733 6.17723 9.34068 5.4287 9.34068C4.68018 9.34068 4.07247 8.733 4.07247 7.98447C4.07247 7.23593 4.68018 6.62826 5.4287 6.62826Z" fill="url(#paint0_linear_5684_49)" fill-opacity="0.08"/>
<defs>
<linearGradient id="paint0_linear_5684_49" x1="8" y1="1.56314" x2="8" y2="14.4369" gradientUnits="userSpaceOnUse">
<stop stop-opacity="0"/>
<stop offset="1"/>
</linearGradient>
</defs>
</svg>
