<svg width="16" height="16" viewBox="0 0 16 16" fill="none" xmlns="http://www.w3.org/2000/svg">
<path d="M2.94307 1.74136C3.32489 1.35956 3.96512 1.44421 4.23465 1.91204L6.14287 5.22663C6.32799 5.54814 6.27466 5.95409 6.01245 6.2165L5.35914 6.8698C5.10771 7.12144 5.08502 7.52179 5.30806 7.79897C5.7199 8.31083 6.17822 8.82239 6.67837 9.32254C7.17851 9.82268 7.6901 10.281 8.20194 10.6929C8.4792 10.916 8.88009 10.8934 9.13171 10.6418L9.78441 9.98906C10.0468 9.72668 10.4527 9.67287 10.7743 9.85804L14.0889 11.7663C14.5567 12.0358 14.6414 12.676 14.2596 13.0578L13.9837 13.3349L13.9825 13.3343L13.2757 14.0417C13.2405 14.0769 13.2031 14.1093 13.1645 14.1403C13.1609 14.1431 13.1573 14.1458 13.1537 14.1487C13.0743 14.2112 12.988 14.2648 12.8953 14.3104C12.8902 14.3128 12.8853 14.3157 12.8802 14.3182C12.8371 14.3387 12.7926 14.357 12.7468 14.3741C12.739 14.377 12.7313 14.3803 12.7234 14.3831C12.6957 14.3929 12.6672 14.4009 12.6386 14.4095C12.607 14.419 12.5752 14.4286 12.5425 14.4366C12.5178 14.4426 12.4926 14.4471 12.4673 14.4522C12.432 14.4594 12.3963 14.4665 12.3598 14.472C12.3348 14.4758 12.3095 14.4787 12.284 14.4816C12.2488 14.4858 12.2132 14.4898 12.177 14.4925C12.1459 14.4947 12.1145 14.4961 12.0827 14.4973C12.0457 14.4987 12.0082 14.4991 11.9703 14.4991C11.9441 14.499 11.9176 14.4992 11.891 14.4985C11.8498 14.4974 11.8081 14.4952 11.7659 14.4925C11.7324 14.4903 11.6986 14.4878 11.6644 14.4846C11.6324 14.4817 11.6002 14.4777 11.5676 14.4738C11.5264 14.4689 11.4847 14.4639 11.4426 14.4576C11.4108 14.4528 11.3787 14.4476 11.3464 14.442C11.3038 14.4346 11.2607 14.4267 11.2172 14.4179C11.1725 14.4089 11.1275 14.399 11.082 14.3885C11.0535 14.3819 11.0248 14.3758 10.9961 14.3686C10.9281 14.3519 10.8595 14.3333 10.7899 14.3134C10.7793 14.3103 10.7687 14.3074 10.758 14.3043C10.6971 14.2865 10.6357 14.2668 10.5735 14.2466C10.5479 14.2383 10.5218 14.2307 10.496 14.222C10.4664 14.212 10.437 14.2007 10.4071 14.1901C8.8724 13.6493 7.01608 12.4249 5.29604 10.7049C2.17119 7.58002 0.677311 4.00731 1.95921 2.72522L2.666 2.01782L2.94307 1.74136Z" fill="#F7F8FB" fill-opacity="0.64"/>
<path d="M2.94307 1.74136C3.32489 1.35956 3.96512 1.44421 4.23465 1.91204L6.14287 5.22663C6.32799 5.54814 6.27466 5.95409 6.01245 6.2165L5.35914 6.8698C5.10771 7.12144 5.08502 7.52179 5.30806 7.79897C5.7199 8.31083 6.17822 8.82239 6.67837 9.32254C7.17851 9.82268 7.6901 10.281 8.20194 10.6929C8.4792 10.916 8.88009 10.8934 9.13171 10.6418L9.78441 9.98906C10.0468 9.72668 10.4527 9.67287 10.7743 9.85804L14.0889 11.7663C14.5567 12.0358 14.6414 12.676 14.2596 13.0578L13.9837 13.3349L13.9825 13.3343L13.2757 14.0417C13.2405 14.0769 13.2031 14.1093 13.1645 14.1403C13.1609 14.1431 13.1573 14.1458 13.1537 14.1487C13.0743 14.2112 12.988 14.2648 12.8953 14.3104C12.8902 14.3128 12.8853 14.3157 12.8802 14.3182C12.8371 14.3387 12.7926 14.357 12.7468 14.3741C12.739 14.377 12.7313 14.3803 12.7234 14.3831C12.6957 14.3929 12.6672 14.4009 12.6386 14.4095C12.607 14.419 12.5752 14.4286 12.5425 14.4366C12.5178 14.4426 12.4926 14.4471 12.4673 14.4522C12.432 14.4594 12.3963 14.4665 12.3598 14.472C12.3348 14.4758 12.3095 14.4787 12.284 14.4816C12.2488 14.4858 12.2132 14.4898 12.177 14.4925C12.1459 14.4947 12.1145 14.4961 12.0827 14.4973C12.0457 14.4987 12.0082 14.4991 11.9703 14.4991C11.9441 14.499 11.9176 14.4992 11.891 14.4985C11.8498 14.4974 11.8081 14.4952 11.7659 14.4925C11.7324 14.4903 11.6986 14.4878 11.6644 14.4846C11.6324 14.4817 11.6002 14.4777 11.5676 14.4738C11.5264 14.4689 11.4847 14.4639 11.4426 14.4576C11.4108 14.4528 11.3787 14.4476 11.3464 14.442C11.3038 14.4346 11.2607 14.4267 11.2172 14.4179C11.1725 14.4089 11.1275 14.399 11.082 14.3885C11.0535 14.3819 11.0248 14.3758 10.9961 14.3686C10.9281 14.3519 10.8595 14.3333 10.7899 14.3134C10.7793 14.3103 10.7687 14.3074 10.758 14.3043C10.6971 14.2865 10.6357 14.2668 10.5735 14.2466C10.5479 14.2383 10.5218 14.2307 10.496 14.222C10.4664 14.212 10.437 14.2007 10.4071 14.1901C8.8724 13.6493 7.01608 12.4249 5.29604 10.7049C2.17119 7.58002 0.677311 4.00731 1.95921 2.72522L2.666 2.01782L2.94307 1.74136Z" fill="url(#paint0_linear_6556_1055)" fill-opacity="0.08"/>
<defs>
<linearGradient id="paint0_linear_6556_1055" x1="8" y1="1.50093" x2="8" y2="14.4991" gradientUnits="userSpaceOnUse">
<stop stop-opacity="0"/>
<stop offset="1"/>
</linearGradient>
</defs>
</svg>
