<svg width="16" height="16" viewBox="0 0 16 16" fill="none" xmlns="http://www.w3.org/2000/svg">
<path d="M12.1948 5.67857C11.2254 5.67857 10.3627 6.29751 10.0421 7.22591H5.95044C5.74816 6.64687 5.32765 6.17271 4.78105 5.90733C4.23445 5.64194 3.60634 5.60698 3.03435 5.8101C2.75006 5.91106 2.48818 6.06781 2.2637 6.27141C2.03922 6.475 1.85654 6.72144 1.72609 6.99663C1.59564 7.27183 1.51999 7.57038 1.50345 7.87522C1.48692 8.18007 1.52984 8.48523 1.62974 8.77325C1.83476 9.3538 2.25811 9.82855 2.80734 10.0938C3.35656 10.3591 3.98705 10.3933 4.5611 10.1891C5.20997 9.95697 5.70616 9.43087 5.95044 8.77325H10.0498C10.4696 9.98017 11.7826 10.6146 12.9582 10.1891C13.2434 10.0891 13.5062 9.9331 13.7317 9.72989C13.9572 9.52669 14.1408 9.28033 14.272 9.00498C14.4033 8.72963 14.4795 8.43071 14.4964 8.1254C14.5133 7.82009 14.4705 7.51441 14.3705 7.22591C14.0422 6.29751 13.172 5.67857 12.1948 5.67857ZM12.1948 9.16009C11.8912 9.16009 11.5999 9.03782 11.3852 8.82018C11.1704 8.60254 11.0498 8.30737 11.0498 7.99958C11.0498 7.6918 11.1704 7.39662 11.3852 7.17898C11.5999 6.96134 11.8912 6.83908 12.1948 6.83908C12.4985 6.83908 12.7898 6.96134 13.0045 7.17898C13.2193 7.39662 13.3399 7.6918 13.3399 7.99958C13.3399 8.30737 13.2193 8.60254 13.0045 8.82018C12.7898 9.03782 12.4985 9.16009 12.1948 9.16009Z" fill="#F7F8FB" fill-opacity="0.64"/>
<path d="M12.1948 5.67857C11.2254 5.67857 10.3627 6.29751 10.0421 7.22591H5.95044C5.74816 6.64687 5.32765 6.17271 4.78105 5.90733C4.23445 5.64194 3.60634 5.60698 3.03435 5.8101C2.75006 5.91106 2.48818 6.06781 2.2637 6.27141C2.03922 6.475 1.85654 6.72144 1.72609 6.99663C1.59564 7.27183 1.51999 7.57038 1.50345 7.87522C1.48692 8.18007 1.52984 8.48523 1.62974 8.77325C1.83476 9.3538 2.25811 9.82855 2.80734 10.0938C3.35656 10.3591 3.98705 10.3933 4.5611 10.1891C5.20997 9.95697 5.70616 9.43087 5.95044 8.77325H10.0498C10.4696 9.98017 11.7826 10.6146 12.9582 10.1891C13.2434 10.0891 13.5062 9.9331 13.7317 9.72989C13.9572 9.52669 14.1408 9.28033 14.272 9.00498C14.4033 8.72963 14.4795 8.43071 14.4964 8.1254C14.5133 7.82009 14.4705 7.51441 14.3705 7.22591C14.0422 6.29751 13.172 5.67857 12.1948 5.67857ZM12.1948 9.16009C11.8912 9.16009 11.5999 9.03782 11.3852 8.82018C11.1704 8.60254 11.0498 8.30737 11.0498 7.99958C11.0498 7.6918 11.1704 7.39662 11.3852 7.17898C11.5999 6.96134 11.8912 6.83908 12.1948 6.83908C12.4985 6.83908 12.7898 6.96134 13.0045 7.17898C13.2193 7.39662 13.3399 7.6918 13.3399 7.99958C13.3399 8.30737 13.2193 8.60254 13.0045 8.82018C12.7898 9.03782 12.4985 9.16009 12.1948 9.16009Z" fill="url(#paint0_linear_4978_691)" fill-opacity="0.08"/>
<defs>
<linearGradient id="paint0_linear_4978_691" x1="8" y1="5.67857" x2="8" y2="10.3214" gradientUnits="userSpaceOnUse">
<stop stop-opacity="0"/>
<stop offset="1"/>
</linearGradient>
</defs>
</svg>
