<svg width="16" height="16" viewBox="0 0 16 16" fill="none" xmlns="http://www.w3.org/2000/svg">
<path d="M10.6639 2.31109C10.711 2.27926 10.7516 2.23804 10.7832 2.18982C10.8149 2.1416 10.837 2.08734 10.8484 2.03018C10.8597 1.97302 10.86 1.9141 10.8492 1.85682C10.8385 1.79954 10.8169 1.74505 10.7857 1.6965C10.7545 1.64794 10.7143 1.60629 10.6675 1.57395C10.6207 1.54161 10.5682 1.51923 10.513 1.5081C10.4578 1.49697 10.4011 1.49731 10.346 1.50911C10.2909 1.52091 10.2387 1.54392 10.1922 1.57682L8.53984 2.72058C8.23886 2.59603 7.91777 2.53213 7.59375 2.53231C7.2593 2.53231 6.94016 2.59879 6.64766 2.72058L4.99526 1.57682C4.90144 1.51344 4.78732 1.49102 4.67767 1.51443C4.56802 1.53785 4.47169 1.6052 4.40959 1.70188C4.3475 1.79855 4.32465 1.91675 4.346 2.03081C4.36735 2.14486 4.43118 2.24558 4.52363 2.31109L5.86142 3.23657C5.45889 3.62286 5.18697 4.13348 5.08596 4.69275C5.33823 4.62568 5.59761 4.59168 5.85802 4.59155H9.33004C9.59722 4.59233 9.85439 4.62607 10.1015 4.69275C10.0005 4.13348 9.72861 3.62286 9.32608 3.23657L10.6639 2.31109Z" fill="#F7F8FB" fill-opacity="0.64"/>
<path d="M10.6639 2.31109C10.711 2.27926 10.7516 2.23804 10.7832 2.18982C10.8149 2.1416 10.837 2.08734 10.8484 2.03018C10.8597 1.97302 10.86 1.9141 10.8492 1.85682C10.8385 1.79954 10.8169 1.74505 10.7857 1.6965C10.7545 1.64794 10.7143 1.60629 10.6675 1.57395C10.6207 1.54161 10.5682 1.51923 10.513 1.5081C10.4578 1.49697 10.4011 1.49731 10.346 1.50911C10.2909 1.52091 10.2387 1.54392 10.1922 1.57682L8.53984 2.72058C8.23886 2.59603 7.91777 2.53213 7.59375 2.53231C7.2593 2.53231 6.94016 2.59879 6.64766 2.72058L4.99526 1.57682C4.90144 1.51344 4.78732 1.49102 4.67767 1.51443C4.56802 1.53785 4.47169 1.6052 4.40959 1.70188C4.3475 1.79855 4.32465 1.91675 4.346 2.03081C4.36735 2.14486 4.43118 2.24558 4.52363 2.31109L5.86142 3.23657C5.45889 3.62286 5.18697 4.13348 5.08596 4.69275C5.33823 4.62568 5.59761 4.59168 5.85802 4.59155H9.33004C9.59722 4.59233 9.85439 4.62607 10.1015 4.69275C10.0005 4.13348 9.72861 3.62286 9.32608 3.23657L10.6639 2.31109Z" fill="url(#paint0_linear_4978_683)" fill-opacity="0.08"/>
<path d="M1.5 9.0042C1.5 8.88717 1.54479 8.77493 1.62452 8.69218C1.70425 8.60943 1.81239 8.56294 1.92515 8.56294H3.62573V7.79102C3.62573 7.29915 3.77311 6.84318 4.0248 6.4684L2.61728 5.88357C2.51493 5.8384 2.4337 5.7534 2.39103 5.64679C2.34835 5.54018 2.34763 5.42046 2.38902 5.31331C2.4304 5.20615 2.5106 5.1201 2.6124 5.0736C2.71421 5.02711 2.82951 5.02387 2.93359 5.06459L4.71126 5.80238C5.05744 5.58626 5.45405 5.47271 5.85802 5.47408H9.32948C9.37714 5.47408 9.42446 5.47563 9.47138 5.47868C9.04857 5.80459 8.8125 6.32967 8.8125 6.82639V8.76736C8.43024 8.76736 8.04797 8.90469 7.74293 9.17935C7.69567 9.16097 7.64519 9.15129 7.59375 9.15129C7.48099 9.15129 7.37286 9.19778 7.29313 9.28054C7.2134 9.36329 7.1686 9.47553 7.1686 9.59256V10.618C7.04716 10.5887 6.91787 10.5729 6.78125 10.5729C5.76618 10.5729 5.15625 11.4446 5.15625 12.2431V12.8429C4.94484 12.6721 4.74918 12.4784 4.57295 12.2637L2.93416 12.9438C2.88231 12.9654 2.82688 12.9761 2.77103 12.9754C2.71518 12.9748 2.66 12.9627 2.60866 12.9399C2.55731 12.9171 2.51079 12.884 2.47176 12.8425C2.43273 12.801 2.40195 12.752 2.38118 12.6982C2.36042 12.6444 2.35006 12.5868 2.35072 12.5289C2.35137 12.4709 2.36302 12.4136 2.38499 12.3603C2.40697 12.307 2.43884 12.2588 2.4788 12.2183C2.51875 12.1777 2.566 12.1458 2.61785 12.1242L4.08488 11.5153C3.7834 10.9227 3.62578 10.2627 3.62573 9.59256V9.44547H1.92515C1.81239 9.44547 1.70425 9.39898 1.62452 9.31623C1.54479 9.23347 1.5 9.12123 1.5 9.0042Z" fill="#F7F8FB" fill-opacity="0.64"/>
<path d="M1.5 9.0042C1.5 8.88717 1.54479 8.77493 1.62452 8.69218C1.70425 8.60943 1.81239 8.56294 1.92515 8.56294H3.62573V7.79102C3.62573 7.29915 3.77311 6.84318 4.0248 6.4684L2.61728 5.88357C2.51493 5.8384 2.4337 5.7534 2.39103 5.64679C2.34835 5.54018 2.34763 5.42046 2.38902 5.31331C2.4304 5.20615 2.5106 5.1201 2.6124 5.0736C2.71421 5.02711 2.82951 5.02387 2.93359 5.06459L4.71126 5.80238C5.05744 5.58626 5.45405 5.47271 5.85802 5.47408H9.32948C9.37714 5.47408 9.42446 5.47563 9.47138 5.47868C9.04857 5.80459 8.8125 6.32967 8.8125 6.82639V8.76736C8.43024 8.76736 8.04797 8.90469 7.74293 9.17935C7.69567 9.16097 7.64519 9.15129 7.59375 9.15129C7.48099 9.15129 7.37286 9.19778 7.29313 9.28054C7.2134 9.36329 7.1686 9.47553 7.1686 9.59256V10.618C7.04716 10.5887 6.91787 10.5729 6.78125 10.5729C5.76618 10.5729 5.15625 11.4446 5.15625 12.2431V12.8429C4.94484 12.6721 4.74918 12.4784 4.57295 12.2637L2.93416 12.9438C2.88231 12.9654 2.82688 12.9761 2.77103 12.9754C2.71518 12.9748 2.66 12.9627 2.60866 12.9399C2.55731 12.9171 2.51079 12.884 2.47176 12.8425C2.43273 12.801 2.40195 12.752 2.38118 12.6982C2.36042 12.6444 2.35006 12.5868 2.35072 12.5289C2.35137 12.4709 2.36302 12.4136 2.38499 12.3603C2.40697 12.307 2.43884 12.2588 2.4788 12.2183C2.51875 12.1777 2.566 12.1458 2.61785 12.1242L4.08488 11.5153C3.7834 10.9227 3.62578 10.2627 3.62573 9.59256V9.44547H1.92515C1.81239 9.44547 1.70425 9.39898 1.62452 9.31623C1.54479 9.23347 1.5 9.12123 1.5 9.0042Z" fill="url(#paint1_linear_4978_683)" fill-opacity="0.08"/>
<path d="M11.3505 5.43952C11.6076 5.62096 11.8011 5.87422 11.921 6.15332L12.5702 5.88357C12.6232 5.86286 12.6716 5.83139 12.7127 5.79101C12.7537 5.75063 12.7866 5.70214 12.8094 5.6484C12.8322 5.59465 12.8444 5.53672 12.8454 5.47801C12.8463 5.4193 12.8359 5.36098 12.8149 5.30648C12.7938 5.25198 12.7625 5.20238 12.7228 5.1606C12.683 5.11882 12.6356 5.0857 12.5834 5.06317C12.5311 5.04064 12.4751 5.02916 12.4185 5.02941C12.3619 5.02965 12.306 5.04161 12.2539 5.06459L11.3505 5.43952Z" fill="#F7F8FB" fill-opacity="0.64"/>
<path d="M11.3505 5.43952C11.6076 5.62096 11.8011 5.87422 11.921 6.15332L12.5702 5.88357C12.6232 5.86286 12.6716 5.83139 12.7127 5.79101C12.7537 5.75063 12.7866 5.70214 12.8094 5.6484C12.8322 5.59465 12.8444 5.53672 12.8454 5.47801C12.8463 5.4193 12.8359 5.36098 12.8149 5.30648C12.7938 5.25198 12.7625 5.20238 12.7228 5.1606C12.683 5.11882 12.6356 5.0857 12.5834 5.06317C12.5311 5.04064 12.4751 5.02916 12.4185 5.02941C12.3619 5.02965 12.306 5.04161 12.2539 5.06459L11.3505 5.43952Z" fill="url(#paint2_linear_4978_683)" fill-opacity="0.08"/>
<path d="M12.0625 8.76736V8.56294H13.2624C13.3751 8.56294 13.4832 8.60943 13.563 8.69218C13.6427 8.77493 13.6875 8.88717 13.6875 9.0042C13.6875 9.12123 13.6427 9.23347 13.563 9.31623C13.5071 9.37425 13.4372 9.41444 13.3616 9.43329C13.3287 9.38849 13.2934 9.345 13.2557 9.30302C12.9343 8.94591 12.4984 8.76736 12.0625 8.76736Z" fill="#F7F8FB" fill-opacity="0.64"/>
<path d="M12.0625 8.76736V8.56294H13.2624C13.3751 8.56294 13.4832 8.60943 13.563 8.69218C13.6427 8.77493 13.6875 8.88717 13.6875 9.0042C13.6875 9.12123 13.6427 9.23347 13.563 9.31623C13.5071 9.37425 13.4372 9.41444 13.3616 9.43329C13.3287 9.38849 13.2934 9.345 13.2557 9.30302C12.9343 8.94591 12.4984 8.76736 12.0625 8.76736Z" fill="url(#paint3_linear_4978_683)" fill-opacity="0.08"/>
<path d="M10.4375 6.375C10.6619 6.375 10.8438 6.57709 10.8438 6.82639V11.1533L11.7752 10.1183C11.9339 9.94204 12.1911 9.94204 12.3498 10.1183C12.5084 10.2946 12.5084 10.5804 12.3498 10.7567L10.7248 12.5622C10.5661 12.7385 10.3089 12.7385 10.1502 12.5622L8.52524 10.7567C8.36659 10.5804 8.36659 10.2946 8.52524 10.1183C8.68389 9.94204 8.94111 9.94204 9.09976 10.1183L10.0312 11.1533V6.82639C10.0312 6.57709 10.2131 6.375 10.4375 6.375Z" fill="#F7F8FB" fill-opacity="0.64"/>
<path d="M10.4375 6.375C10.6619 6.375 10.8438 6.57709 10.8438 6.82639V11.1533L11.7752 10.1183C11.9339 9.94204 12.1911 9.94204 12.3498 10.1183C12.5084 10.2946 12.5084 10.5804 12.3498 10.7567L10.7248 12.5622C10.5661 12.7385 10.3089 12.7385 10.1502 12.5622L8.52524 10.7567C8.36659 10.5804 8.36659 10.2946 8.52524 10.1183C8.68389 9.94204 8.94111 9.94204 9.09976 10.1183L10.0312 11.1533V6.82639C10.0312 6.57709 10.2131 6.375 10.4375 6.375Z" fill="url(#paint4_linear_4978_683)" fill-opacity="0.08"/>
<path d="M6.78125 11.7917C7.00562 11.7917 7.1875 11.9938 7.1875 12.2431V13.1458C7.1875 13.3951 7.36938 13.5972 7.59375 13.5972H13.2813C13.5056 13.5972 13.6875 13.3951 13.6875 13.1458V12.2431C13.6875 11.9938 13.8694 11.7917 14.0938 11.7917C14.3181 11.7917 14.5 11.9938 14.5 12.2431V13.1458C14.5 13.8937 13.9544 14.5 13.2813 14.5H7.59375C6.92066 14.5 6.375 13.8937 6.375 13.1458V12.2431C6.375 11.9938 6.55688 11.7917 6.78125 11.7917Z" fill="#F7F8FB" fill-opacity="0.64"/>
<path d="M6.78125 11.7917C7.00562 11.7917 7.1875 11.9938 7.1875 12.2431V13.1458C7.1875 13.3951 7.36938 13.5972 7.59375 13.5972H13.2813C13.5056 13.5972 13.6875 13.3951 13.6875 13.1458V12.2431C13.6875 11.9938 13.8694 11.7917 14.0938 11.7917C14.3181 11.7917 14.5 11.9938 14.5 12.2431V13.1458C14.5 13.8937 13.9544 14.5 13.2813 14.5H7.59375C6.92066 14.5 6.375 13.8937 6.375 13.1458V12.2431C6.375 11.9938 6.55688 11.7917 6.78125 11.7917Z" fill="url(#paint5_linear_4978_683)" fill-opacity="0.08"/>
<defs>
<linearGradient id="paint0_linear_4978_683" x1="8" y1="1.5" x2="8" y2="14.5" gradientUnits="userSpaceOnUse">
<stop stop-opacity="0"/>
<stop offset="1"/>
</linearGradient>
<linearGradient id="paint1_linear_4978_683" x1="8" y1="1.5" x2="8" y2="14.5" gradientUnits="userSpaceOnUse">
<stop stop-opacity="0"/>
<stop offset="1"/>
</linearGradient>
<linearGradient id="paint2_linear_4978_683" x1="8" y1="1.5" x2="8" y2="14.5" gradientUnits="userSpaceOnUse">
<stop stop-opacity="0"/>
<stop offset="1"/>
</linearGradient>
<linearGradient id="paint3_linear_4978_683" x1="8" y1="1.5" x2="8" y2="14.5" gradientUnits="userSpaceOnUse">
<stop stop-opacity="0"/>
<stop offset="1"/>
</linearGradient>
<linearGradient id="paint4_linear_4978_683" x1="8" y1="1.5" x2="8" y2="14.5" gradientUnits="userSpaceOnUse">
<stop stop-opacity="0"/>
<stop offset="1"/>
</linearGradient>
<linearGradient id="paint5_linear_4978_683" x1="8" y1="1.5" x2="8" y2="14.5" gradientUnits="userSpaceOnUse">
<stop stop-opacity="0"/>
<stop offset="1"/>
</linearGradient>
</defs>
</svg>
