<svg width="16" height="16" viewBox="0 0 16 16" fill="none" xmlns="http://www.w3.org/2000/svg">
<path fill-rule="evenodd" clip-rule="evenodd" d="M10.3782 13.2671C10.0961 13.5491 10.0961 14.0064 10.3782 14.2885C10.6602 14.5705 11.1175 14.5705 11.3996 14.2885L14.2885 11.3996C14.5705 11.1175 14.5705 10.6602 14.2885 10.3782L11.3996 7.48931C11.1175 7.20728 10.6602 7.20728 10.3782 7.48931C10.0962 7.77133 10.0962 8.22865 10.3782 8.51067L12.0342 10.1667L5.1111 10.1667C4.71221 10.1667 4.38887 10.49 4.38887 10.8889C4.38887 11.2878 4.71221 11.6111 5.1111 11.6111L12.0342 11.6111L10.3782 13.2671ZM1.71152 5.62178L4.60041 8.51067C4.88244 8.7927 5.33975 8.7927 5.62178 8.51067C5.90381 8.22865 5.90381 7.77133 5.62178 7.48931L3.9658 5.83332L10.8889 5.83332C11.2878 5.83332 11.6111 5.50998 11.6111 5.1111C11.6111 4.71221 11.2878 4.38887 10.8889 4.38887L3.9658 4.38887L5.62178 2.73289C5.90381 2.45086 5.90381 1.99355 5.62178 1.71152C5.33975 1.42949 4.88244 1.42949 4.60041 1.71152L1.71152 4.60041C1.42949 4.88244 1.42949 5.33975 1.71152 5.62178Z" fill="#F7F8FB" fill-opacity="0.64"/>
<path fill-rule="evenodd" clip-rule="evenodd" d="M10.3782 13.2671C10.0961 13.5491 10.0961 14.0064 10.3782 14.2885C10.6602 14.5705 11.1175 14.5705 11.3996 14.2885L14.2885 11.3996C14.5705 11.1175 14.5705 10.6602 14.2885 10.3782L11.3996 7.48931C11.1175 7.20728 10.6602 7.20728 10.3782 7.48931C10.0962 7.77133 10.0962 8.22865 10.3782 8.51067L12.0342 10.1667L5.1111 10.1667C4.71221 10.1667 4.38887 10.49 4.38887 10.8889C4.38887 11.2878 4.71221 11.6111 5.1111 11.6111L12.0342 11.6111L10.3782 13.2671ZM1.71152 5.62178L4.60041 8.51067C4.88244 8.7927 5.33975 8.7927 5.62178 8.51067C5.90381 8.22865 5.90381 7.77133 5.62178 7.48931L3.9658 5.83332L10.8889 5.83332C11.2878 5.83332 11.6111 5.50998 11.6111 5.1111C11.6111 4.71221 11.2878 4.38887 10.8889 4.38887L3.9658 4.38887L5.62178 2.73289C5.90381 2.45086 5.90381 1.99355 5.62178 1.71152C5.33975 1.42949 4.88244 1.42949 4.60041 1.71152L1.71152 4.60041C1.42949 4.88244 1.42949 5.33975 1.71152 5.62178Z" fill="url(#paint0_linear_4978_231)" fill-opacity="0.08"/>
<defs>
<linearGradient id="paint0_linear_4978_231" x1="8" y1="1.5" x2="8" y2="14.5" gradientUnits="userSpaceOnUse">
<stop stop-opacity="0"/>
<stop offset="1"/>
</linearGradient>
</defs>
</svg>
