<svg width="128" height="128" viewBox="0 0 128 128" fill="none" xmlns="http://www.w3.org/2000/svg">
<path d="M13.416 42.1584C11.807 38.6312 7.8298 37.0335 4.11624 38.6835C0.398137 40.3357 -0.970017 44.4583 0.709493 47.9878L16.3023 81.8735C18.7546 87.1847 21.3386 89.9688 26.1885 89.9688C31.3702 89.9688 33.6293 86.937 36.0792 81.8735C36.0792 81.8735 49.6789 52.2605 49.8153 51.9423C49.9539 51.6286 50.3903 50.6718 51.7743 50.6809C52.9448 50.6878 53.9288 51.6218 53.9288 52.8764V81.8303C53.9288 86.2938 56.4038 89.9551 61.1673 89.9551C65.9263 89.9551 68.499 86.2938 68.499 81.8303V58.1262C68.499 53.5559 71.7739 50.59 76.2374 50.59C80.701 50.59 83.6714 53.6627 83.6714 58.1262V81.8303C83.6714 86.2938 86.1554 89.9551 90.9099 89.9551C95.6689 89.9551 98.2552 86.2938 98.2552 81.8303V58.1262C98.2552 53.5559 101.516 50.59 105.982 50.59C110.439 50.59 113.421 53.6627 113.421 58.1262V81.8303C113.421 86.2938 115.903 89.9551 120.662 89.9551C125.418 89.9551 128 86.2938 128 81.8303V54.8536C128 44.9424 120.03 37.9994 110.439 37.9994C100.86 37.9994 94.8598 44.6265 94.8598 44.6265C91.6712 40.4925 87.2759 38.0085 79.8374 38.0085C71.9875 38.0085 65.1172 44.6265 65.1172 44.6265C61.9264 40.4925 56.4947 38.0085 51.9971 38.0085C45.0404 38.0085 39.5155 41.0675 36.1451 48.7742L26.1885 72.2509L13.416 42.1584Z" fill="url(#paint0_linear_5027_56240)"/>
<defs>
<linearGradient id="paint0_linear_5027_56240" x1="64" y1="89.9688" x2="64" y2="37.9994" gradientUnits="userSpaceOnUse">
<stop stop-color="#727074"/>
<stop offset="1" stop-color="#B8B8B8"/>
</linearGradient>
</defs>
</svg>
