<svg width="128" height="128" viewBox="0 0 128 128" fill="none" xmlns="http://www.w3.org/2000/svg">
<path d="M18.6853 62.4335L17.4544 61.6575C16.8909 61.3024 16.2696 61.0351 15.5893 60.8562C14.9029 60.6756 14.1505 60.5855 13.3305 60.5855C12.926 60.5855 12.5508 60.6316 12.205 60.7237H12.2106C12.137 60.7436 12.0734 60.764 12.0197 60.7843C12.023 60.7867 12.0265 60.7896 12.03 60.7925C12.2443 60.9632 12.5705 61.1584 13.0074 61.3801C13.7848 61.7653 14.381 62.0664 14.7938 62.2829C15.251 62.5231 15.5681 62.7026 15.747 62.8233C16.3031 63.1823 16.733 63.56 17.0421 63.9535C17.3929 64.4004 17.5931 64.8694 17.6494 65.3577V65.3633C17.7405 66.1921 17.4957 66.9282 16.9127 67.5781C16.3957 68.1543 15.6061 68.6512 14.5422 69.0738L14.545 69.0709C13.6478 69.4296 12.657 69.6984 11.5743 69.8769C10.4976 70.0543 9.33763 70.1431 8.09622 70.1431C6.37046 70.1429 4.81429 70.0016 3.42792 69.7186C2.51601 69.5304 1.8171 69.3281 1.33255 69.109C0.65903 68.8047 0.29155 68.4126 0.232628 67.9291L0.237086 67.969C0.213053 67.8488 0.213634 67.737 0.232628 67.6223V67.6193C0.245808 67.5395 0.267322 67.4697 0.294844 67.3988L1.14299 64.7735L1.44632 63.8343L2.23555 64.4223C2.86604 64.8919 3.50467 65.2416 4.14777 65.4738C4.78523 65.704 5.42716 65.8174 6.07045 65.8174C6.24663 65.8172 6.34567 65.9434 6.34121 65.893L6.34683 65.9149C6.32745 65.7531 6.25748 65.5908 6.13499 65.4278C5.98284 65.2251 5.75433 65.0212 5.44654 64.8144L5.45759 64.8225C5.25912 64.695 4.97537 64.5093 4.60401 64.2634C4.33441 64.0847 3.93902 63.8209 3.39362 63.4548L3.37986 63.449C2.8926 63.108 2.52046 62.7276 2.26288 62.3004C1.99076 61.849 1.8547 61.3609 1.8547 60.8291C1.8547 59.9135 2.21849 59.1231 2.94783 58.4601C3.60003 57.867 4.55226 57.3879 5.80608 57.0244C6.64512 56.7804 7.54444 56.599 8.50035 56.4798C9.4584 56.3602 10.4806 56.3005 11.5631 56.3005C12.7231 56.3005 13.824 56.3831 14.864 56.5496C15.9003 56.7155 16.864 56.9649 17.7532 57.2993L18.161 57.4526L18.2068 57.8883L18.5332 60.988L18.6853 62.4335ZM16.9917 59.8375L16.8485 58.4765C16.1597 58.2461 15.4239 58.0687 14.6428 57.9437C13.6953 57.7918 12.668 57.7168 11.5631 57.7168C10.536 57.7166 9.57099 57.773 8.67187 57.885C7.7741 57.9968 6.94863 58.162 6.19894 58.3798C5.15871 58.6812 4.39274 59.0572 3.89947 59.5055C3.48005 59.8868 3.27092 60.3285 3.27092 60.8291C3.27092 61.0993 3.33876 61.3452 3.47443 61.5703C3.62483 61.8195 3.86439 62.0575 4.19291 62.2876L4.17915 62.282C4.57977 62.551 4.98873 62.8233 5.38393 63.085C5.74249 63.3224 6.02121 63.5048 6.22103 63.6333L6.23208 63.6414C6.67205 63.9374 7.01452 64.2502 7.26339 64.5814C7.54191 64.9518 7.70316 65.3404 7.75181 65.7492L7.75743 65.7713C7.84349 66.746 7.28103 67.2336 6.07043 67.2336C5.26415 67.2336 4.46329 67.0927 3.67193 66.8071C3.17691 66.6282 2.68558 66.3921 2.19871 66.0981L1.65369 67.7847C1.68877 67.7858 1.77173 67.7562 1.91341 67.8201C2.30919 67.9988 2.90867 68.1704 3.70991 68.3357C4.98796 68.5964 6.45012 68.727 8.09622 68.727C9.276 68.727 10.3602 68.6456 11.3473 68.4828C12.3267 68.3214 13.2179 68.0804 14.0193 67.7599L14.022 67.7568C14.875 67.4182 15.4859 67.0447 15.8561 66.632C16.16 66.293 16.2891 65.9209 16.2443 65.5125V65.518C16.2184 65.2931 16.1147 65.0629 15.9302 64.8276C15.7146 64.5531 15.3976 64.2793 14.9744 64.007L14.958 63.9957C14.8363 63.9128 14.5641 63.7608 14.141 63.5387C13.6673 63.2902 13.0816 62.9935 12.3788 62.6454L12.3734 62.6423C11.8462 62.3752 11.4386 62.1287 11.1504 61.8988C10.7477 61.5776 10.5242 61.2431 10.4798 60.8876V60.8845C10.4306 60.4735 10.5689 60.1205 10.8913 59.8294L10.8886 59.8292C11.1122 59.6272 11.4303 59.4691 11.84 59.3572H11.8454C12.3155 59.232 12.8107 59.1692 13.3305 59.1692C14.2641 59.1691 15.1365 59.2762 15.949 59.4898C16.3093 59.5844 16.657 59.7005 16.9917 59.8375Z" fill="#FF0000"/>
<path d="M34.0322 61.6517C33.8144 62.221 33.5671 62.7592 33.2938 63.2655C33.0133 63.7849 32.7065 64.2679 32.3776 64.7139L32.372 64.7247C31.8948 65.3535 31.3981 65.8343 30.8817 66.1654C30.3229 66.5234 29.7479 66.7036 29.1565 66.7036C28.032 66.7034 27.4697 66.019 27.4697 64.6497C27.4697 63.8062 27.7258 62.8567 28.2376 61.8328V61.8355C28.6449 61.0129 29.1488 60.3911 29.7527 59.9674V59.9647C30.3803 59.5246 31.1002 59.3056 31.9165 59.3056H34.9296L34.5625 60.2652L34.0322 61.6517ZM32.7102 61.1486L32.8734 60.7214H31.9165C31.4006 60.7214 30.9511 60.8561 30.5658 61.1263V61.1236C30.157 61.41 29.8041 61.8556 29.5044 62.4605V62.4633C29.0922 63.2883 28.8858 64.0248 28.8858 64.6497C28.8858 65.0746 28.9761 65.2876 29.1565 65.2876C29.4744 65.2876 29.795 65.1833 30.1183 64.9761C30.4873 64.7395 30.8625 64.3693 31.2434 63.8675L31.238 63.8785C31.5289 63.4841 31.8004 63.0565 32.0491 62.596C32.2908 62.1479 32.5123 61.6657 32.7102 61.1486ZM29.6597 57.744C28.4636 57.744 27.3467 57.8822 26.3068 58.1545C25.2701 58.4258 24.302 58.8319 23.4009 59.3686L23.4065 59.3657C22.374 59.994 21.6021 60.7255 21.0939 61.5589C20.5975 62.3728 20.3479 63.2996 20.3479 64.3369C20.3479 64.4383 20.3512 64.5511 20.3597 64.6819C20.368 64.8094 20.3791 64.9244 20.394 65.0232L20.3967 65.0535C20.4609 65.6725 20.6305 66.2133 20.9066 66.6722C21.1759 67.1196 21.5538 67.4983 22.0416 67.8045V67.8016C22.4911 68.0832 22.9943 68.2962 23.5552 68.4383C24.1343 68.585 24.7809 68.6593 25.4994 68.6593C26.7972 68.6593 27.958 68.4081 28.9796 67.9076C29.9993 67.408 30.8904 66.6554 31.6514 65.6512L32.8905 66.2844L32.209 68.4825H38.7661L42.0389 58.0138C40.6343 57.9322 39.0339 57.8698 37.2392 57.826C35.0178 57.7715 32.4906 57.7442 29.6597 57.744ZM29.6597 56.3281C32.5127 56.3281 35.0509 56.3553 37.2725 56.4097C39.5245 56.4648 41.4446 56.5464 43.0303 56.6543L43.9263 56.7154L43.6582 57.5724L39.9602 69.4008L39.8046 69.8985H30.2915L30.5755 68.9829L30.7201 68.5164C30.3629 68.7676 29.9892 68.989 29.5992 69.1799C28.3818 69.776 27.0146 70.0755 25.4994 70.0755C24.6681 70.0753 23.9074 69.9863 23.2121 69.8104C22.4985 69.6293 21.8593 69.3595 21.2893 69.0023V68.9994C20.612 68.574 20.0812 68.0387 19.6951 67.3969C19.3113 66.7591 19.0774 66.0245 18.9915 65.1975L18.9942 65.2279C18.9683 65.0546 18.9522 64.9044 18.9435 64.7705C18.9351 64.6397 18.9316 64.4937 18.9316 64.3369C18.9316 63.0385 19.2516 61.8665 19.8879 60.8232C20.5151 59.7946 21.4439 58.9061 22.6708 58.1599L22.6762 58.1568C23.6922 57.5519 24.7838 57.0943 25.9529 56.7881C27.1189 56.4824 28.3541 56.3281 29.6597 56.3281Z" fill="#FF0000"/>
<path d="M118.063 61.6571L118.066 61.6515C117.845 62.2277 117.597 62.772 117.321 63.2846C117.044 63.8004 116.739 64.2795 116.405 64.722V64.7245C115.929 65.3521 115.432 65.8327 114.918 66.1642C114.361 66.5227 113.789 66.7034 113.203 66.7034C112.062 66.7032 111.503 66.0188 111.503 64.6495C111.503 63.806 111.759 62.8565 112.271 61.8325V61.8352C112.679 61.0098 113.183 60.387 113.786 59.9645L113.786 59.9672C114.416 59.5253 115.136 59.3053 115.949 59.3053H118.985L118.606 60.2703L118.063 61.6571ZM116.743 61.1483L116.746 61.1429L116.911 60.7212H115.95C115.431 60.7212 114.981 60.8551 114.599 61.1233L114.599 61.126C114.189 61.4139 113.836 61.8583 113.538 62.4603L113.538 62.463C113.125 63.2881 112.919 64.0246 112.919 64.6495C112.919 65.0743 113.012 65.2873 113.203 65.2873C113.514 65.2873 113.832 65.1827 114.155 64.9747C114.521 64.7386 114.896 64.3686 115.276 63.8672V63.8697C115.568 63.4831 115.834 63.0648 116.077 62.6153C116.321 62.1628 116.542 61.6736 116.743 61.1483ZM113.693 57.7437C112.501 57.7437 111.388 57.8808 110.353 58.1511C109.314 58.4227 108.346 58.8295 107.448 59.3683L107.45 59.3681C106.415 59.9945 105.645 60.7231 105.14 61.5521C104.642 62.3671 104.394 63.2962 104.394 64.3367C104.394 64.5853 104.406 64.821 104.43 65.0561L104.43 65.0532C104.494 65.6684 104.664 66.2082 104.943 66.6689C105.216 67.1185 105.595 67.4975 106.085 67.8016L106.091 67.8041C106.532 68.0845 107.036 68.2968 107.599 68.4392C108.177 68.5852 108.822 68.659 109.532 68.659C110.83 68.659 111.99 68.408 113.013 67.9082C114.036 67.4075 114.932 66.6538 115.701 65.6482L116.937 66.2871L116.247 68.4823H122.799L126.072 58.0135C124.667 57.9319 123.067 57.8695 121.272 57.8257C119.051 57.7712 116.524 57.7439 113.693 57.7437ZM113.693 56.3279C116.546 56.3279 119.084 56.355 121.305 56.4095C123.558 56.4645 125.478 56.5461 127.063 56.6541L127.959 56.7151L127.691 57.5722L123.993 69.4006L123.837 69.8983H114.32L114.608 68.9802L114.754 68.5185C114.396 68.7689 114.022 68.9899 113.633 69.1804C112.414 69.776 111.047 70.0753 109.532 70.0753C108.71 70.0751 107.95 69.9865 107.256 69.8111C106.542 69.6304 105.9 69.3593 105.333 68.9992L105.339 69.0021C104.652 68.5755 104.117 68.0419 103.731 67.4046C103.345 66.7674 103.111 66.0303 103.025 65.1972L103.025 65.1943C102.994 64.8858 102.978 64.6045 102.978 64.3367C102.978 63.0358 103.296 61.8616 103.934 60.8161C104.56 59.7889 105.488 58.9018 106.72 58.1568L106.723 58.1566C107.735 57.5497 108.827 57.0911 109.999 56.7847C111.16 56.4812 112.391 56.3279 113.693 56.3279Z" fill="#FF0000"/>
<path d="M95.8636 47.5367L91.1306 36.9021L82.0066 47.7755L84.2892 47.7354L85.2443 47.7182L84.9809 48.6369L79.2846 68.4822H86.1008L86.3613 67.8071L86.7481 66.8029L87.5147 67.5582C87.9037 67.942 88.4489 68.2333 89.1486 68.4333C89.8981 68.6475 90.8158 68.7541 91.9002 68.7541C93.0881 68.7541 94.1989 68.6128 95.2345 68.3287C96.2629 68.0465 97.2171 67.6237 98.0987 67.0593V67.0564C100.056 65.8082 101.035 64.1313 101.035 62.0255C101.035 61.776 101.023 61.5276 101 61.2925V61.2952C100.882 60.1367 100.333 59.2684 99.3533 58.6914C98.2817 58.0601 96.6949 57.7438 94.5922 57.7438C93.4595 57.7436 92.0873 57.9406 90.4755 58.3336L89.3368 58.6114L89.6234 57.4762L91.9619 48.2174L92.0915 47.7042L92.6177 47.681L95.8636 47.5367ZM97.575 47.911L97.9976 48.8607L96.961 48.9067L93.2044 49.0735L91.2761 56.7078C92.5313 56.4541 93.6368 56.3278 94.5922 56.3278C96.9457 56.3278 98.7699 56.7106 100.067 57.4744C101.459 58.2943 102.238 59.5207 102.405 61.1513V61.1541C102.436 61.4624 102.452 61.758 102.452 62.0255C102.452 64.6503 101.255 66.726 98.8622 68.2513V68.2484C97.8543 68.8938 96.7689 69.3757 95.6051 69.6951C94.4484 70.0124 93.2139 70.1703 91.9002 70.1703C90.6869 70.1701 89.6401 70.0455 88.7613 69.7941C88.2271 69.6414 87.7531 69.441 87.3398 69.1927L87.2425 69.4447L87.0677 69.8982H77.4062L77.665 68.9965L83.3563 49.1683L80.4775 49.2193L78.9264 49.2468L79.9241 48.0577L90.7737 35.1285L91.5005 34.2617L91.9601 35.2942L97.575 47.911ZM93.7035 63.1987V63.2014C93.2153 64.4835 92.6491 65.4557 92.007 66.1203C91.2891 66.8638 90.4821 67.2336 89.5889 67.2336C88.999 67.2336 88.4941 67.1498 88.0593 66.9826L87.9791 66.9438C87.9132 66.9087 87.8019 66.855 87.6913 66.8014C87.5916 66.7529 87.491 66.7045 87.3536 66.6312L86.8123 66.3424L87.0218 65.7681L87.3344 64.9116L87.3317 64.9145C87.6818 63.941 88.0271 63.1277 88.3677 62.4724C88.729 61.778 89.0914 61.2498 89.4554 60.8858L89.4498 60.894C89.7932 60.5416 90.203 60.2836 90.6811 60.1148C91.136 59.9541 91.6455 59.8762 92.2129 59.8762L94.9635 59.876L94.6007 60.8333L93.7035 63.1987ZM92.3811 62.6982V62.7009L92.9156 61.2923H92.2129C91.8016 61.2923 91.4478 61.3434 91.1513 61.4481C90.8784 61.5442 90.6489 61.6871 90.4623 61.8788L90.4567 61.8871C90.1942 62.1493 89.9165 62.5618 89.6234 63.1252C89.3129 63.7229 88.9931 64.4775 88.6648 65.3902L88.6621 65.3929L88.5652 65.6582C88.5725 65.6617 88.5795 65.6658 88.5867 65.6697C88.8547 65.7679 89.1852 65.8173 89.5889 65.8173C90.0861 65.8172 90.553 65.5927 90.9893 65.1411C91.4959 64.6164 91.9605 63.803 92.3811 62.6982Z" fill="#FF0000"/>
<path d="M76.7172 60.262C76.6313 59.4268 76.277 58.8051 75.6556 58.3965C74.9664 57.9432 73.9401 57.7168 72.5795 57.7168C70.7156 57.7166 69.1007 57.8059 67.7356 57.9872C66.3936 58.1655 65.2822 58.4329 64.4021 58.7927L64.0439 58.939L63.7245 58.7097C63.277 58.3884 62.6709 58.1455 61.9088 57.979C61.105 57.8032 60.1383 57.7168 59.011 57.7168C55.3103 57.7166 51.2579 57.8178 46.8664 58.0199L43.5908 68.4823H50.3805L50.6549 67.7583C51.3583 65.8895 52.0249 64.3781 52.6559 63.2244C53.3205 62.0093 53.9603 61.1714 54.5773 60.7107H54.58C54.9647 60.4262 55.4126 60.2105 55.9233 60.0678C56.4077 59.9321 56.9432 59.8628 57.5291 59.8628H58.5885L58.1819 60.8415C58.0067 61.2637 57.8598 61.642 57.7377 61.9795C57.6033 62.35 57.4936 62.6853 57.4047 62.986L57.402 62.9999L55.6677 68.4822H62.5622L62.8366 67.7583L62.8394 67.7475C63.2596 66.6904 63.6265 65.7806 63.9478 65.0055C64.2577 64.2585 64.4967 63.7067 64.6669 63.3526L64.6698 63.3497C64.9758 62.7158 65.2772 62.189 65.5757 61.7674C65.8984 61.3117 66.2304 60.9594 66.574 60.708L66.5715 60.7107C66.9549 60.4269 67.3941 60.2122 67.8926 60.0705C68.375 59.9331 68.9117 59.8627 69.5069 59.8627H70.5508L70.1626 60.8336C69.9874 61.2708 69.8337 61.6686 69.7034 62.0265C69.5749 62.3801 69.467 62.6995 69.3825 62.9859L69.3798 62.9999L63.8462 80.3205L63.6854 80.8238L63.1603 80.8157L60.0534 80.7655L64.7543 91.3393L73.348 80.9469L71.4835 80.9243L70.5274 80.9128L70.8196 80.0005L76.4074 62.5574V62.5547C76.5514 62.1163 76.6478 61.7067 76.6976 61.3241C76.7462 60.951 76.7522 60.5973 76.7172 60.262ZM78.1223 60.1182C78.1685 60.5576 78.1607 61.02 78.0971 61.5067C78.0349 61.9839 77.9204 62.4785 77.7518 62.9917L77.752 62.989L72.4562 79.5196L74.8449 79.5489L76.3249 79.5671L75.3813 80.7077L65.1167 93.1207L64.3891 94L63.9245 92.9548L58.3094 80.3245L57.8602 79.3136L58.9678 79.3312L62.6576 79.3909L68.03 62.5739L68.0273 62.5874C68.1192 62.2762 68.236 61.929 68.3758 61.5453C68.3944 61.4947 68.4128 61.4433 68.432 61.3916C68.3801 61.4036 68.3295 61.4171 68.2797 61.4313C67.9422 61.5272 67.654 61.666 67.4121 61.8447L67.4096 61.8472C67.1956 62.0038 66.9702 62.2498 66.732 62.5861C66.47 62.9561 66.207 63.4152 65.942 63.9639L65.9447 63.961C65.7751 64.3138 65.5453 64.8431 65.2534 65.5476C64.9733 66.2236 64.6058 67.1358 64.156 68.2675L64.1589 68.2564L63.7104 69.4393L63.5359 69.8983H53.7351L54.0264 68.9772L56.0522 62.5738L56.0493 62.5874C56.1447 62.2647 56.2637 61.9025 56.41 61.498C56.4228 61.4625 56.4358 61.4264 56.449 61.3904C56.3982 61.402 56.3484 61.4148 56.2995 61.4286C55.9592 61.5237 55.6663 61.6633 55.4209 61.8447L55.4237 61.8445C54.9666 62.186 54.4575 62.871 53.895 63.8992C53.2992 64.9884 52.6604 66.4409 51.9772 68.2564L51.5285 69.4393L51.3542 69.8983H41.666L41.9536 68.9801L45.6651 57.1247L45.8137 56.6504L46.307 56.6267C50.8885 56.4093 55.1279 56.3005 59.011 56.3005C60.2358 56.3005 61.302 56.3978 62.2075 56.5959C62.9921 56.7674 63.6623 57.0173 64.2174 57.3479C65.1373 57.0134 66.2492 56.7609 67.553 56.5876C69.002 56.3951 70.6774 56.3005 72.5795 56.3005C74.2246 56.3005 75.5104 56.6046 76.4355 57.2127C77.4275 57.8645 77.9904 58.8332 78.1223 60.1182Z" fill="#FF0000"/>
<path d="M17.3674 60.2716C16.1167 59.483 14.6212 59.0889 12.8809 59.0889C12.4187 59.0887 11.97 59.157 11.5622 59.2657C10.9639 59.4289 10.6784 59.6735 10.7193 60.027C10.76 60.3532 11.2631 60.7476 12.2283 61.2234C13.7103 61.971 14.5939 62.4335 14.9067 62.6238C15.8855 63.2762 16.4158 63.9425 16.4838 64.6631C16.6197 65.8865 15.7361 66.8793 13.819 67.6406C12.1196 68.3201 10.0531 68.6465 7.6331 68.6465C5.96083 68.6463 4.43819 68.5106 3.1057 68.2387C1.39273 67.8988 0.522677 67.5045 0.468213 67.0558C0.454646 66.988 0.468213 66.92 0.495348 66.8519L1.35183 64.2143C2.7386 65.2341 4.16627 65.7507 5.60731 65.7507C6.31436 65.7507 6.64056 65.5196 6.58629 65.0574C6.51826 64.4862 6.12403 63.9425 5.38985 63.4396C4.99543 63.2081 4.31571 62.7461 3.33692 62.0935C2.50757 61.5225 2.09958 60.8428 2.09958 60.0541C2.09958 58.6265 3.24176 57.5934 5.53929 56.9137C7.12996 56.4514 8.99256 56.2202 11.1 56.2202C13.3568 56.2202 15.3417 56.5466 17.0413 57.1721L17.3674 60.2716Z" fill="white"/>
<path d="M17.8812 61.0958L17.1425 60.6302C15.962 59.8858 14.5417 59.5138 12.8818 59.5138C12.6717 59.5136 12.4707 59.528 12.2808 59.5534C12.0715 59.5813 11.8668 59.6235 11.6708 59.6757H11.6741C11.4386 59.7398 11.2745 59.8113 11.1842 59.892C11.1526 59.9203 11.1382 59.9491 11.1417 59.979V59.9755C11.1473 60.0218 11.2309 60.1085 11.3919 60.2356C11.6235 60.4186 11.9653 60.6209 12.4167 60.8434L12.4201 60.845C13.1956 61.2361 13.7885 61.5394 14.2027 61.7559C14.6498 61.9899 14.9574 62.1579 15.1284 62.262L15.1433 62.2701C15.6678 62.62 16.0775 62.9805 16.3713 63.3574C16.6853 63.7608 16.8644 64.1806 16.9061 64.6233V64.6167C16.9881 65.3547 16.7663 66.019 16.2391 66.6089C15.7519 67.154 14.9981 67.6296 13.9759 68.0356L13.9775 68.0339C13.0993 68.3851 12.1273 68.645 11.0634 68.8167C10.0044 68.9875 8.86066 69.0714 7.634 69.0714C5.93808 69.0714 4.38695 68.9322 3.02209 68.6537L3.02539 68.6553C2.13925 68.4795 1.46302 68.2859 0.993201 68.0748C0.421435 67.8178 0.108806 67.5032 0.0514355 67.1324C0.0233318 66.9844 0.0454271 66.8477 0.0942694 66.7171L0.949592 64.0835L1.13081 63.5249L1.60334 63.8724C2.2631 64.3575 2.9312 64.7227 3.60413 64.9655C4.26816 65.2053 4.93741 65.3261 5.60822 65.3261C5.99702 65.3259 6.18289 65.2524 6.16564 65.1055V65.1072C6.14025 64.8933 6.05032 64.6806 5.89526 64.4707C5.72509 64.2407 5.47836 64.0137 5.15313 63.7908C4.82093 63.5939 4.32087 63.2599 3.63592 62.802C3.46904 62.6901 3.29112 62.5715 3.10214 62.4453L3.0971 62.4418C2.63155 62.1213 2.28132 61.7656 2.04467 61.3747C1.79813 60.9667 1.67583 60.5267 1.67583 60.0542C1.67583 59.2157 2.00765 58.4963 2.67342 57.8898C3.29363 57.3246 4.20904 56.8657 5.42079 56.5071L5.42234 56.5069C6.24375 56.2685 7.12814 56.0902 8.07243 55.9726C9.01884 55.8545 10.0294 55.7954 11.1008 55.7954C12.2393 55.7952 13.3164 55.8784 14.3295 56.0406C15.3571 56.2051 16.3107 56.4509 17.1881 56.7738L17.4358 56.8649L17.4635 57.1287L17.7899 60.2284L17.8812 61.0958ZM16.8617 59.5063L16.6487 57.482C15.8864 57.219 15.0687 57.0167 14.1967 56.8771C13.2385 56.7236 12.206 56.6451 11.1008 56.6451C10.0625 56.6451 9.08628 56.7021 8.17533 56.8155C7.26593 56.9287 6.42573 57.0973 5.65801 57.3202L5.65975 57.32C4.57398 57.6413 3.76925 58.0391 3.24419 58.5172C2.76469 58.9543 2.52532 59.4652 2.52532 60.0542C2.52532 60.3701 2.60711 60.6643 2.77167 60.9365C2.94591 61.2247 3.21396 61.4939 3.57679 61.7441C3.7646 61.8689 3.94136 61.9875 4.10727 62.0982C4.79979 62.561 5.30061 62.8962 5.60471 63.0745L5.62972 63.0894C6.03383 63.3664 6.34859 63.6594 6.57555 63.9662C6.82209 64.2996 6.96571 64.6475 7.00854 65.0076V65.0094C7.10002 65.7866 6.63331 66.1756 5.6082 66.1756C4.83894 66.1756 4.07452 66.0383 3.31862 65.7654C2.73329 65.5542 2.15319 65.2611 1.58007 64.8874L0.899572 66.9832L0.890657 67.0067C0.899378 67.0726 1.04804 67.171 1.33838 67.3015C1.74559 67.4844 2.36116 67.6583 3.18799 67.8222L3.19128 67.824C4.49103 68.0891 5.98537 68.2219 7.63399 68.2219C8.82714 68.2217 9.92686 68.1424 10.9308 67.9804C11.93 67.8189 12.8411 67.5757 13.6623 67.2472L13.6639 67.2454C14.5586 66.8904 15.2051 66.4888 15.6052 66.0414C15.9647 65.6389 16.1171 65.195 16.0632 64.7097V64.7027C16.037 64.4252 15.9168 64.1515 15.7042 63.8786C15.4711 63.579 15.1262 63.2801 14.6719 62.9774L14.6869 62.9855C14.5452 62.8994 14.2543 62.7411 13.811 62.5093C13.3356 62.2608 12.7465 61.9592 12.0418 61.6036C12.0407 61.6028 12.0395 61.6024 12.0383 61.6018L12.0418 61.6036C12.0407 61.6028 12.0395 61.6024 12.0383 61.6018C11.5265 61.3493 11.1349 61.1169 10.8642 60.9027C10.5221 60.6325 10.3337 60.3587 10.2986 60.0784V60.0749C10.2614 59.7518 10.3694 59.4813 10.6198 59.258C10.8115 59.0872 11.0894 58.9547 11.4518 58.8558H11.4551C11.6807 58.7955 11.9197 58.7469 12.168 58.7137C12.4058 58.6818 12.6454 58.6641 12.8818 58.6641C14.3769 58.6641 15.7036 58.945 16.8617 59.5063Z" fill="#FCE016"/>
<path d="M32.9074 60.6114C32.4858 61.7261 31.9693 62.6917 31.3438 63.5072C30.4874 64.6494 29.6035 65.2204 28.7064 65.2204C28.04 65.2202 27.7138 64.7717 27.7138 63.8608C27.7138 63.1264 27.9448 62.2972 28.4071 61.3729C29.1141 59.9452 30.1203 59.2384 31.4526 59.2384L33.451 59.2382L32.9074 60.6114ZM29.1957 56.2607C26.6941 56.2607 24.4916 56.8319 22.5883 57.9875C20.3179 59.3605 19.1895 61.2097 19.1895 63.5481C19.1895 63.8065 19.203 64.0784 19.2302 64.3502C19.3798 65.7912 20.0324 66.8791 21.2151 67.6131C22.2212 68.2657 23.4992 68.5785 25.0354 68.5785C27.8497 68.5785 30.0929 67.4908 31.7652 65.302L30.7864 68.4016H38.8214L42.5194 56.5736C39.3243 56.3697 34.8787 56.2609 29.1957 56.2607Z" fill="#0000FF"/>
<path d="M33.303 60.7673L33.3048 60.7609C33.0871 61.3366 32.8448 61.874 32.5762 62.3725C32.3056 62.8747 32.0079 63.3389 31.6816 63.7647L31.6833 63.7614C31.2251 64.3722 30.7545 64.8338 30.2737 65.1463C29.7614 65.4789 29.2385 65.6454 28.7072 65.6454C28.2296 65.6452 27.8672 65.4754 27.6176 65.1329C27.3984 64.8321 27.2898 64.409 27.2898 63.8609C27.2898 63.0602 27.536 62.1679 28.0281 61.1838V61.1852C28.4138 60.4064 28.8873 59.8197 29.4522 59.4236V59.4218C30.0314 59.0156 30.6971 58.8136 31.4534 58.8136H34.077L33.8469 59.3943L33.303 60.7673ZM32.5115 60.4623L32.5132 60.4557L32.827 59.6631H31.4534C30.8774 59.6631 30.3739 59.8147 29.9401 60.1188V60.1173C29.4924 60.4312 29.1092 60.9119 28.788 61.5604V61.562C28.3558 62.4268 28.1395 63.1932 28.1395 63.8609C28.1395 64.2237 28.1942 64.4803 28.3046 64.6317C28.3845 64.7412 28.5184 64.7957 28.7072 64.7957C29.0743 64.7957 29.4429 64.6757 29.8122 64.4359C30.2103 64.1774 30.6088 63.7831 31.0061 63.2534L31.0078 63.2499C31.3067 62.86 31.5802 62.4338 31.8294 61.9709C32.0808 61.5038 32.3078 61.0011 32.5115 60.4623ZM29.1966 56.6857C27.9784 56.6857 26.8376 56.8237 25.7747 57.1008C24.7178 57.3763 23.7295 57.7928 22.8099 58.351L22.8081 58.3508C21.7317 59.0018 20.9294 59.7602 20.3999 60.6266C19.8762 61.4839 19.6152 62.4574 19.6152 63.5482C19.6152 63.801 19.6276 64.0591 19.6526 64.3088V64.307C19.7204 64.9621 19.9018 65.5353 20.1995 66.0262C20.4949 66.5137 20.9075 66.9226 21.44 67.2531L21.4467 67.2581C21.9086 67.5576 22.437 67.7804 23.0302 67.9291C23.6319 68.0797 24.3013 68.1537 25.0363 68.1537C26.3798 68.1536 27.5828 67.8962 28.6454 67.3794C29.7057 66.8637 30.6337 66.0859 31.4292 65.0447L32.1711 65.4298L31.3666 67.9768H38.5107L41.9534 56.9656C40.453 56.8781 38.7096 56.8109 36.7251 56.7644C34.5175 56.7126 32.0073 56.6859 29.1966 56.6857ZM29.1966 55.8362C32.0207 55.8362 34.5375 55.8629 36.7451 55.9147C39.0079 55.9676 40.9422 56.0465 42.5468 56.1488L43.0866 56.1831L42.9252 56.6996L39.2271 68.5278L39.1339 68.8267H30.2078L30.3824 68.2739L30.7974 66.9596C30.2477 67.4372 29.6529 67.832 29.0137 68.1427C27.8329 68.7168 26.507 69.0035 25.0363 69.0035C24.2353 69.0035 23.4972 68.9209 22.8245 68.7523C22.143 68.5815 21.5294 68.3214 20.9853 67.9685L20.9919 67.9733C20.3416 67.5698 19.8363 67.0678 19.4726 66.4677C19.1109 65.8712 18.8911 65.1796 18.8095 64.3935V64.3917C18.7802 64.0979 18.7655 63.812 18.7655 63.5482C18.7655 62.3006 19.0684 61.1802 19.6765 60.1851C20.2788 59.1995 21.1762 58.3463 22.3701 57.6242H22.3684C23.352 57.0268 24.4169 56.5799 25.5623 56.281C26.7018 55.9839 27.9133 55.8362 29.1966 55.8362Z" fill="#FCE016"/>
<path d="M116.943 60.6116C116.521 61.7263 116.004 62.6919 115.393 63.5075C114.523 64.6497 113.639 65.2207 112.742 65.2207C112.075 65.2205 111.749 64.772 111.749 63.861C111.749 63.1266 111.98 62.2975 112.442 61.3732C113.149 59.9455 114.169 59.2386 115.488 59.2386L117.486 59.2384L116.943 60.6116ZM113.231 56.261C110.73 56.261 108.527 56.8322 106.624 57.9877C104.353 59.3607 103.225 61.21 103.225 63.5484C103.225 63.8067 103.238 64.0787 103.266 64.3504C103.415 65.7915 104.081 66.8794 105.25 67.6133C106.257 68.2659 107.534 68.5788 109.071 68.5788C111.885 68.5788 114.128 67.491 115.801 65.3023L114.822 68.4018H122.87L126.555 56.5738C123.36 56.3699 118.914 56.2612 113.231 56.261Z" fill="#0000FF"/>
<path d="M117.337 60.7673L117.338 60.7609C116.903 61.9122 116.367 62.9125 115.73 63.7614L115.729 63.7645C114.774 65.0183 113.777 65.6454 112.741 65.6454C112.263 65.6452 111.901 65.4754 111.651 65.1329C111.432 64.8321 111.323 64.409 111.323 63.8609C111.324 63.0602 111.569 62.1679 112.061 61.1838L112.062 61.1852C112.448 60.406 112.924 59.8194 113.488 59.424C114.069 59.0164 114.736 58.8136 115.487 58.8136H118.11L117.88 59.3943L117.337 60.7673ZM116.545 60.4623L116.547 60.4557L116.861 59.6631H115.487C114.916 59.6631 114.412 59.8155 113.976 60.1211C113.526 60.4361 113.141 60.9154 112.822 61.5604L112.822 61.562C112.389 62.4268 112.173 63.1932 112.173 63.8609C112.173 64.2237 112.228 64.4803 112.338 64.6317C112.418 64.7412 112.552 64.7957 112.741 64.7957C113.498 64.7957 114.27 64.2805 115.055 63.2501L115.053 63.2532C115.64 62.4708 116.137 61.5405 116.545 60.4623ZM113.23 56.6857C112.012 56.6857 110.871 56.8237 109.808 57.1008C108.751 57.3763 107.763 57.7928 106.843 58.351L106.842 58.3508C105.765 59.0018 104.963 59.7602 104.433 60.6266C103.91 61.4839 103.649 62.4574 103.649 63.5482C103.649 63.801 103.661 64.0591 103.686 64.3088L103.686 64.307C103.754 64.9627 103.938 65.5349 104.235 66.0237C104.532 66.5121 104.946 66.9226 105.475 67.2548L105.48 67.2581C105.942 67.5576 106.471 67.7804 107.064 67.9291C107.665 68.0797 108.335 68.1537 109.07 68.1537C110.413 68.1536 111.616 67.8962 112.679 67.3794C113.74 66.8637 114.667 66.0859 115.463 65.0447L116.204 65.4298L115.4 67.9768H122.557L125.987 56.9656C124.487 56.8781 122.743 56.8109 120.759 56.7644C118.551 56.7126 116.041 56.6859 113.23 56.6857ZM113.23 55.8362C116.054 55.8362 118.571 55.8629 120.779 55.9147C123.041 55.9676 124.976 56.0465 126.58 56.1488L127.12 56.1831L126.959 56.6996L123.274 68.5278L123.181 68.8267H114.241L114.416 68.2739L114.831 66.9593C114.281 67.437 113.686 67.8318 113.047 68.1427C111.867 68.7168 110.541 69.0035 109.07 69.0035C108.269 69.0035 107.531 68.9209 106.858 68.7523C106.177 68.5815 105.563 68.3214 105.019 67.9685L105.024 67.9718C104.382 67.5688 103.877 67.0664 103.511 66.465C103.148 65.8673 102.924 65.1769 102.843 64.3935V64.3917C102.814 64.0979 102.799 63.812 102.799 63.5482C102.799 62.3006 103.102 61.1802 103.71 60.1851C104.312 59.1995 105.21 58.3463 106.403 57.6242H106.402C107.386 57.0268 108.45 56.5799 109.596 56.281C110.735 55.9839 111.947 55.8362 113.23 55.8362Z" fill="#FCE016"/>
<path d="M96.4679 47.4103L90.8667 34.7935L80.0173 47.7365L83.8375 47.6684L77.8828 68.4016H86.1219L86.557 67.2868C87.5084 68.2248 89.1398 68.6873 91.4511 68.6873C93.9391 68.6873 96.1279 68.0892 98.0177 66.8792C100.193 65.4788 101.294 63.6025 101.294 61.2505C101.294 60.9919 101.281 60.7204 101.253 60.4485C100.954 57.6612 98.5886 56.261 94.143 56.261C92.9466 56.2608 91.5191 56.4649 89.8469 56.8591L92.1853 47.6004L96.4679 47.4103ZM92.5795 62.1748C91.6686 64.5541 90.5266 65.7505 89.1263 65.7505C88.6235 65.7505 88.2017 65.6827 87.8482 65.5331C87.6445 65.4379 87.4404 65.3292 87.223 65.234L87.5356 64.3775C88.2155 62.4874 88.8679 61.2233 89.4934 60.5979C90.0236 60.0678 90.7714 59.7958 91.7637 59.7958H93.4771L92.5795 62.1748Z" fill="white"/>
<path d="M95.8266 47.013L90.754 35.5872L80.9399 47.2952L83.8304 47.2438L84.4033 47.2334L84.2453 47.7848L78.4457 67.9768H85.8316L86.1612 67.1327L86.3948 66.5333L86.8532 66.985C87.2771 67.4027 87.8624 67.7175 88.6096 67.9307C89.3866 68.1522 90.3334 68.2625 91.4504 68.2625C92.6565 68.2625 93.7888 68.1179 94.8469 67.827C95.9004 67.5374 96.881 67.1031 97.788 66.5224C98.8205 65.8576 99.5944 65.0852 100.107 64.2045C100.614 63.3341 100.869 62.3495 100.869 61.2505C100.869 60.9978 100.856 60.7396 100.831 60.49L100.831 60.4931C100.697 59.2395 100.099 58.2991 99.036 57.6732C97.9191 57.0156 96.2885 56.6859 94.1423 56.6859C93.5593 56.6857 92.9226 56.7351 92.2307 56.8321C91.5322 56.9299 90.7695 57.0774 89.9423 57.2724L89.2639 57.4323L89.4346 56.7561L91.7729 47.4976L91.851 47.1898L92.1663 47.1756L95.8266 47.013ZM96.8554 47.2394L97.1075 47.8075L96.4856 47.8352L92.5185 48.0112L90.4266 56.2936C91.0191 56.1675 91.5815 56.0671 92.1145 55.9924C92.8536 55.8887 93.529 55.8362 94.1423 55.8362C96.4386 55.8362 98.2121 56.2056 99.4642 56.9431C100.773 57.7137 101.51 58.8683 101.674 60.4035L101.674 60.407C101.704 60.7009 101.718 60.9869 101.718 61.2505C101.718 62.4999 101.424 63.6262 100.84 64.6296C100.259 65.6291 99.3926 66.4978 98.246 67.2358C97.2635 67.8652 96.2043 68.335 95.0691 68.6468C93.9384 68.9577 92.7321 69.1122 91.4503 69.1122C90.2564 69.112 89.2317 68.9911 88.3771 68.7472C87.7373 68.5643 87.1904 68.3119 86.7371 67.9892L86.5161 68.5561L86.4105 68.8267H77.3184L77.4739 68.2858L83.2702 48.1036L80.0232 48.1612L79.093 48.178L79.6913 47.4644L90.5403 34.5214L90.9776 34L91.254 34.6225L96.8554 47.2394ZM92.9753 62.3245V62.3261C92.4997 63.5684 91.956 64.5102 91.341 65.1488C90.6826 65.8324 89.9453 66.1755 89.1255 66.1755C88.8543 66.1755 88.5998 66.1563 88.3607 66.1162C88.1176 66.0755 87.8924 66.0117 87.6833 65.9231L87.6686 65.9163C87.5577 65.8648 87.486 65.8295 87.4139 65.7939C87.2933 65.7342 87.1704 65.6739 87.0528 65.6223L86.6878 65.4626L86.8239 65.0897L87.1365 64.233L87.1348 64.2346C87.48 63.2756 87.8207 62.4701 88.1574 61.8196C88.5051 61.1478 88.8501 60.6398 89.1922 60.2976C89.5015 59.9884 89.8738 59.7547 90.3134 59.5981C90.7371 59.4475 91.2191 59.3711 91.763 59.3711H94.0894L93.8729 59.9452L92.9753 62.3245ZM92.1822 62.0239V62.0256L92.8631 60.2206H91.763C91.3147 60.2206 90.9263 60.2803 90.5956 60.3979C90.2808 60.5102 90.0139 60.6774 89.793 60.8984C89.51 61.1814 89.2158 61.6186 88.9107 62.2078C88.5948 62.8182 88.2694 63.5898 87.9347 64.5203L87.9331 64.522L87.7529 65.0159C87.7651 65.0217 87.7769 65.0279 87.7887 65.0339C87.8771 65.0773 87.9645 65.1205 88.0186 65.1459C88.0186 65.1457 88.0188 65.1461 88.019 65.1461C88.1614 65.2054 88.3215 65.2498 88.5 65.2799C88.6857 65.3111 88.8939 65.326 89.1255 65.326C89.7062 65.3258 90.2399 65.0705 90.7303 64.5614C91.2643 64.0072 91.7471 63.1606 92.1822 62.0239Z" fill="#FCE016"/>
<path d="M76.9706 59.4151C76.7396 57.2942 75.1216 56.2202 72.117 56.2202C68.3509 56.2202 65.5367 56.6009 63.6876 57.3624C62.6139 56.6009 60.9007 56.2202 58.5485 56.2202C54.6877 56.2202 50.4729 56.3289 45.8777 56.5466L42.166 68.4017H50.4049L50.8535 67.2326C52.2403 63.5481 53.4639 61.305 54.5516 60.5028C55.1633 60.0268 56.0062 59.796 57.0666 59.796C56.7133 60.6796 56.4413 61.4138 56.2646 61.9983L54.2388 68.4017H62.5867L63.049 67.2326C63.9053 65.0438 64.5034 63.589 64.8434 62.8821C65.4145 61.6991 65.9853 60.9108 66.5292 60.5028C67.1546 60.0268 67.9838 59.796 69.0444 59.796C68.691 60.6796 68.4189 61.4138 68.2422 61.9983L62.7224 79.3191L58.4943 79.2647L64.1094 91.8811L74.374 79.4823L71.0429 79.4414L76.6306 61.9981C76.9299 61.0466 77.0386 60.1766 76.9706 59.4151Z" fill="white"/>
<path d="M76.5471 59.4518L76.5502 59.4599C76.4495 58.5323 76.0484 57.8367 75.3482 57.3758C74.6099 56.8897 73.5333 56.6451 72.1182 56.6451C68.4058 56.6451 65.6451 57.0147 63.8499 57.7539L63.6342 57.8425L63.4435 57.7076C62.4443 56.9992 60.813 56.6451 58.5497 56.6451C54.7848 56.6451 50.6747 56.7494 46.1946 56.9575L42.7446 67.9769H50.1146L50.4582 67.0816V67.0834C51.1589 65.2211 51.8198 63.721 52.4443 62.5829C53.0891 61.4068 53.7072 60.5997 54.3022 60.1609L54.2921 60.1677C54.6406 59.8966 55.0538 59.6956 55.5293 59.5626C55.9886 59.4341 56.5023 59.3711 57.0678 59.3711H57.6942L57.4613 59.9533C57.2855 60.3929 57.1306 60.7934 56.9988 61.1537C56.8713 61.5023 56.762 61.8245 56.6724 62.1212L56.6709 62.1259L54.8197 67.9769H62.299L62.6552 67.0768V67.0783C63.0762 66.0024 63.4408 65.0897 63.7493 64.3406C64.0567 63.5948 64.2942 63.0471 64.4612 62.6996L64.463 62.6978C64.7553 62.0923 65.0497 61.5838 65.3425 61.1702C65.6528 60.7323 65.9657 60.3974 66.2765 60.1642L66.2734 60.166C66.6295 59.895 67.0406 59.6944 67.5104 59.5626C67.968 59.4341 68.4785 59.3711 69.0456 59.3711H69.672L69.4389 59.9534C69.2631 60.3929 69.1082 60.7934 68.9766 61.1537C68.8491 61.5024 68.7398 61.8245 68.65 62.1212L68.6483 62.1259L63.1287 79.4467L63.0328 79.7477L62.7186 79.7438L59.1518 79.6978L64.2192 91.0845L73.4816 79.8959L71.0392 79.8661L70.4657 79.8593L70.6409 79.3119L76.2287 61.8688L76.2272 61.8721C76.3691 61.4207 76.4654 60.9928 76.5183 60.5916C76.5704 60.1954 76.5793 59.8146 76.5471 59.4518ZM77.3934 59.3704L77.3967 59.3787C77.4329 59.7834 77.4205 60.2257 77.3579 60.7011C77.2982 61.1562 77.1914 61.6322 77.0367 62.1245L77.0354 62.1278L71.6228 79.0236L74.3803 79.0573L75.2685 79.0683L74.702 79.7527L64.4376 92.1517L64.0015 92.6783L63.7237 92.0538L58.1088 79.4374L57.839 78.8311L58.5003 78.8397L62.4149 78.8902L67.8385 61.8704L67.837 61.8755C67.924 61.5879 68.0391 61.2502 68.18 60.8649C68.2511 60.6703 68.3277 60.4666 68.4103 60.253C68.1697 60.279 67.9461 60.3213 67.7393 60.3792C67.3731 60.4819 67.0568 60.635 66.7876 60.8397L66.7843 60.8413C66.5452 61.0209 66.2936 61.2938 66.0329 61.6615C65.7681 62.0352 65.4981 62.5029 65.2262 63.0663L65.228 63.0646C65.0553 63.4237 64.8235 63.9571 64.5327 64.6626C64.2432 65.3648 63.8803 66.2742 63.4448 67.3871L63.445 67.3885L62.9828 68.558L62.8766 68.8268H53.6603L53.8351 68.274L55.8609 61.8704L55.8592 61.8755C55.9462 61.5878 56.0615 61.2502 56.2022 60.8649C56.2734 60.6703 56.3503 60.4664 56.4327 60.2528C56.1894 60.2786 55.9634 60.3211 55.7549 60.3792C55.3911 60.4808 55.0765 60.6335 54.8133 60.8382L54.8034 60.8446C54.3108 61.2078 53.7731 61.9235 53.1878 62.9911C52.5817 64.0961 51.9373 65.5598 51.2513 67.3821V67.3834L50.8026 68.5529L50.6976 68.8268H41.5898L41.7623 68.2756L45.4738 56.4205L45.5631 56.1356L45.8589 56.1218C50.4541 55.9043 54.6755 55.7954 58.5498 55.7954C60.8568 55.7952 62.5866 56.1592 63.7395 56.8868C65.6408 56.159 68.4376 55.7954 72.1182 55.7954C73.7043 55.7952 74.9371 56.0867 75.8163 56.6655C76.7375 57.2715 77.2631 58.1747 77.3934 59.3704Z" fill="#FCE016"/>
</svg>
