<svg width="128" height="128" viewBox="0 0 128 128" fill="none" xmlns="http://www.w3.org/2000/svg">
<path d="M119.469 51.1565H79.2793C78.3105 51.1562 77.3815 50.7712 76.6965 50.0862C76.0114 49.4013 75.6263 48.4723 75.6258 47.5036V5.61783C75.6258 2.51607 73.1107 0 70.0104 0H55.6635C52.5613 0 50.0476 2.51607 50.0476 5.61783V47.2499C50.0476 49.4099 48.3014 51.1655 46.1414 51.175L32.9707 51.2378C30.7923 51.2496 29.0225 49.4822 29.0267 47.3057L29.1085 5.62728C29.1155 2.5208 26.5995 0 23.493 0H9.15793C6.05523 0 3.54199 2.51607 3.54199 5.61783V122.904C3.54199 125.659 5.7742 127.891 8.52738 127.891H119.469C122.225 127.891 124.457 125.659 124.457 122.904V56.1443C124.457 53.3887 122.225 51.1565 119.469 51.1565ZM100.623 95.1928C100.623 98.8037 97.6952 101.732 94.0843 101.732H82.7461C79.1347 101.732 76.2073 98.8037 76.2073 95.1928V83.8546C76.2073 80.2432 79.1347 77.3158 82.7461 77.3158H94.0843C97.6952 77.3158 100.623 80.2432 100.623 83.8546V95.1928Z" fill="url(#paint0_linear_5027_58034)"/>
<defs>
<linearGradient id="paint0_linear_5027_58034" x1="63.9996" y1="0" x2="63.9996" y2="127.891" gradientUnits="userSpaceOnUse">
<stop stop-color="#FF8D41"/>
<stop offset="1" stop-color="#FF6600"/>
</linearGradient>
</defs>
</svg>
