<svg width="128" height="128" viewBox="0 0 128 128" fill="none" xmlns="http://www.w3.org/2000/svg">
<path d="M117.946 99.4089H103.914V69.8247H108.636V95.7658H117.946V99.4054V99.4089ZM82.6598 93.4868C81.4647 91.5579 80.8665 88.464 80.8665 84.1962C80.8665 76.7464 83.1262 73.0189 87.6422 73.0189C90.004 73.0189 91.7375 73.9105 92.8445 75.6922C94.0382 77.6211 94.6361 80.6904 94.6361 84.8984C94.6361 92.4079 92.3764 96.1653 87.8604 96.1653C85.5004 96.1653 83.7651 95.2748 82.6598 93.4903V93.4868ZM100.233 100.122L94.8086 97.4395C95.2915 97.0425 95.7501 96.614 96.1653 96.118C98.469 93.4042 99.62 89.3863 99.62 84.0661C99.62 74.2774 95.7869 69.3813 88.1225 69.3813C84.3633 69.3813 81.433 70.6226 79.3352 73.1089C77.0315 75.8262 75.8805 79.83 75.8805 85.1185C75.8805 90.3191 76.8998 94.1346 78.9392 96.558C80.7977 98.7491 83.6083 99.8455 87.3727 99.8455C88.7766 99.8455 90.0654 99.6722 91.2358 99.3255L98.2983 103.447L100.224 100.121L100.233 100.122ZM73.8249 91.207C73.8249 93.7166 72.9055 95.7757 71.0724 97.3878C69.2385 98.9925 66.7729 99.7971 63.6878 99.7971C60.8015 99.7971 58.005 98.8712 55.2947 97.034L56.5624 94.4927C58.8943 95.6615 61.0044 96.2451 62.8981 96.2451C64.6756 96.2451 66.0659 95.8486 67.0726 95.0651C68.0767 94.2759 68.6784 93.1749 68.6784 91.7793C68.6784 90.0225 67.4565 88.5217 65.2148 87.2616C63.1452 86.1227 59.0094 83.7453 59.0094 83.7453C56.769 82.1061 55.6444 80.3469 55.6444 77.45C55.6444 75.053 56.4823 73.1154 58.1558 71.6423C59.8332 70.1654 61.9977 69.4266 64.6482 69.4266C67.3883 69.4266 69.8786 70.1596 72.1225 71.6212L70.983 74.1608C69.0629 73.3447 67.171 72.9351 65.3037 72.9351C63.7893 72.9351 62.6216 73.2998 61.8085 74.0332C60.9903 74.7602 60.4845 75.6959 60.4845 76.8367C60.4845 78.5889 61.733 80.1084 64.0378 81.3931C66.1339 82.5325 70.3718 84.957 70.3718 84.957C72.6772 86.5932 73.8265 88.3378 73.8265 91.2117" fill="url(#paint0_linear_5027_39785)"/>
<path d="M41.9639 90.2031C42.8377 93.0678 43.2024 95.0686 43.0566 96.209C45.1843 90.5106 46.6718 84.3019 47.5166 77.5898H52.1943L51.8105 79.6025C49.8497 89.5104 47.3262 96.7963 44.2393 101.433C41.6733 105.255 38.8623 107.167 35.8018 107.167C34.9859 107.167 33.98 106.92 32.7852 106.431V103.793C33.3684 103.879 34.0537 103.924 34.8398 103.924C36.2675 103.924 37.4176 103.528 38.2939 102.738C39.3422 101.776 39.8671 100.695 39.8672 99.4971C39.8672 98.6784 39.4584 96.9974 38.6436 94.4561L33.2227 77.5801H38.0742L41.9639 90.2031ZM15.4307 91.5635H15.4746L22.6445 69.8281H28.502C29.7844 80.6093 30.5411 90.4718 30.7734 99.4121H25.8379C25.6642 91.0543 25.1824 83.1943 24.3955 75.8291H24.3516L16.832 99.4121H13.0713L5.59668 75.8291H5.55273C4.99819 82.9004 4.64928 90.7587 4.50391 99.4121H0C0.290918 88.8914 1.01889 79.0324 2.18359 69.8281H8.30469L15.4307 91.5635ZM78.7031 20C80.7816 20.0317 83.3055 21.4226 84.5762 22.2266C85.0744 22.5481 85.6466 23.2282 86.2178 23.4795C87.1099 23.5146 87.9999 23.5837 88.8926 23.6211C90.5663 24.0144 92.1347 24.3362 93.4541 25.0879C99.5856 28.6992 103.577 32.3793 107.252 38.458C108.036 39.7462 108.429 41.1392 109.07 42.5322C109.961 44.6087 110.96 46.7891 111.993 48.7529C112.456 49.6839 112.814 50.7197 113.456 51.5059C113.707 51.8652 114.419 51.9707 114.845 52.1855C116.022 52.7943 117.448 53.2574 118.555 53.9727C120.623 55.2626 122.622 56.7979 124.438 58.3701C125.115 58.9767 125.576 59.8366 126.221 60.4785V60.8027C125.648 60.9784 125.077 61.1577 124.506 61.3018C123.258 61.6223 122.153 61.5503 120.942 61.8711C120.194 62.0879 119.265 62.3747 118.48 62.4473C118.514 62.4809 118.55 62.5166 118.553 62.5195C119.014 63.8377 121.511 64.9116 122.653 65.7002C124.04 66.7016 125.326 67.9155 126.36 69.3096C126.718 69.6655 127.075 69.989 127.431 70.3438C127.679 70.7033 127.749 71.1675 128 71.4883V71.5977C127.499 71.4208 127.251 70.9548 126.86 70.6689C126.074 70.1313 125.293 69.488 124.506 68.9883C123.153 68.131 121.584 67.633 120.194 66.7715C119.409 66.2711 118.66 65.7012 117.911 65.1289C117.232 64.627 116.485 63.6631 116.059 62.9482C115.807 62.5534 115.772 62.0882 115.485 61.8027C115.559 61.1236 116.413 61.1233 116.948 60.9092C118.801 60.1223 121.011 59.8359 123.862 59.9072C123.754 59.1914 121.974 58.2991 121.405 57.8701C120.263 57.0467 119.053 56.1869 117.841 55.4375C117.198 55.045 116.092 54.759 115.381 54.4385C114.418 54.045 112.278 53.6507 111.745 52.9014C110.675 51.5058 109.96 49.7916 109.212 48.1113C108.464 46.3972 107.536 44.6096 106.787 42.8545C106.396 41.998 106.216 41.2469 105.787 40.4258C103.186 35.3871 99.3351 31.1664 94.666 28.1992C93.1314 27.2345 91.4205 26.3415 89.5322 25.7344C88.4622 25.4113 87.1775 25.5901 86.0371 25.3418H85.2861C84.6456 25.1615 84.1108 24.4822 83.6113 24.124C82.5079 23.3752 81.4021 22.8716 80.082 22.3369C79.6187 22.1221 78.2997 21.6236 77.8389 22.0166C77.5532 22.0884 77.408 22.1959 77.3379 22.4824C77.0541 22.9101 77.3038 23.5543 77.4805 23.9482C78.0164 25.0915 78.7636 25.7708 79.4424 26.7363C80.0463 27.5933 80.7974 28.5574 81.2256 29.4883C82.1495 31.4893 82.5794 33.707 83.4355 35.708C83.7532 36.4604 84.2554 37.3171 84.7178 37.9961C85.1094 38.5345 85.8215 38.9244 86.0371 39.6064C86.4669 40.3227 85.3948 42.6813 85.1465 43.4307C84.218 46.3609 84.3973 50.4372 85.4668 52.9785C85.8955 53.9768 86.2883 55.1566 87.4277 55.4424C87.4993 55.3712 87.4276 55.4075 87.5693 55.3701C87.8208 53.4044 87.8915 51.5097 88.5693 49.9707C88.9609 49.0094 89.7431 48.3295 90.2793 47.5439C90.6365 47.7579 90.6374 48.4031 90.8506 48.8301C91.3145 49.9371 91.8126 51.1518 92.3848 52.2627C93.5585 54.5504 94.8793 56.7677 96.376 58.7686C96.8767 59.4829 97.588 60.2701 98.2295 60.9141C98.5151 61.163 98.8349 61.3071 99.0498 61.6279H99.1201V61.7363C98.0506 61.3416 97.3726 60.2348 96.5195 59.5889C94.9145 58.3746 92.9906 56.5516 91.8838 54.8018C91.4206 53.797 90.9198 52.8343 90.4209 51.835V51.7627C90.2076 52.0483 90.2785 52.3316 90.1719 52.7637C89.7087 54.5499 90.0652 56.5881 88.4609 57.2305C86.6414 57.9816 85.2848 56.0156 84.7158 55.1221C82.8966 52.1549 82.3988 47.1494 83.6816 43.1104C83.9664 42.2146 84.0054 41.1419 84.5029 40.4277C84.3953 39.7829 83.8982 39.6063 83.6104 39.2109C83.1113 38.5349 82.6838 37.7478 82.293 36.9971C81.5433 35.5294 81.0093 33.7776 80.4395 32.2051C80.1889 31.5625 80.1169 30.9175 79.8672 30.3096C79.4415 29.3814 78.6563 28.45 78.0508 27.6289C77.2296 26.448 74.84 24.1617 75.8027 21.8369C76.3642 20.4557 77.4526 19.9843 78.7002 20.0029L78.7031 20ZM87.4961 28.8398C87.7819 29.1262 88.2457 29.3054 88.459 29.6621C88.6388 29.9134 88.6721 30.1621 88.8877 30.4141C88.8876 31.2727 88.6384 31.8444 88.1357 32.2002C88.1357 32.2002 88.1014 32.2373 88.0664 32.2725C87.7815 31.6997 87.5323 31.1297 87.2451 30.5576C86.8917 30.058 86.3914 29.6614 86.1035 29.0908H86.0342V29.0195C86.357 28.9399 86.6778 28.8782 87.0732 28.8525L87.4961 28.8398Z" fill="url(#paint1_linear_5027_39785)"/>
<defs>
<linearGradient id="paint0_linear_5027_39785" x1="86.6205" y1="69.3813" x2="86.6205" y2="103.447" gradientUnits="userSpaceOnUse">
<stop stop-color="#FFB95E"/>
<stop offset="1" stop-color="#F29111"/>
</linearGradient>
<linearGradient id="paint1_linear_5027_39785" x1="64" y1="20" x2="64" y2="107.167" gradientUnits="userSpaceOnUse">
<stop stop-color="#00D1FF"/>
<stop offset="1" stop-color="#00758F"/>
</linearGradient>
</defs>
</svg>
