<svg width="128" height="128" viewBox="0 0 128 128" fill="none" xmlns="http://www.w3.org/2000/svg">
<path d="M113.817 62.1927L84.886 33.2608C84.7653 33.1387 84.6026 33.0723 84.4339 33.0723C84.4208 33.0723 84.4086 33.0723 84.3973 33.0723C84.2146 33.0827 84.0446 33.1713 83.9307 33.3155L71.6003 48.9617C71.3969 49.2171 71.4204 49.5802 71.6501 49.8107L84.9362 63.0946C85.4118 63.5739 85.6741 64.2068 85.6741 64.8872C85.6709 65.5559 85.4073 66.1825 84.9367 66.6505L81.0987 70.4907C80.883 70.7072 80.8496 71.0463 81.0164 71.2977C81.9753 72.7282 83.5387 75.09 83.6875 75.3491C84.1685 76.3125 84.3281 78.7693 82.9112 79.8476L52.6863 103.063C52.5299 103.183 52.4376 103.37 52.4376 103.569C52.4376 106.146 52.434 126.831 52.4363 127.041C52.4363 127.488 52.4363 127.754 52.7898 127.934C52.8789 127.98 52.9761 128 53.0778 128C53.3419 128 53.4477 127.898 53.7022 127.645L54.2058 127.134C54.6485 126.697 113.815 67.5578 113.815 67.5578C115.281 66.0736 115.277 63.6693 113.817 62.1927Z" fill="url(#paint0_linear_5027_58093)"/>
<path d="M75.3731 0.285282L75.3631 0.27217C75.3554 0.264937 75.3496 0.255442 75.345 0.249565L75.3283 0.228316C75.2135 0.090422 75.0448 0.00768587 74.8649 0C74.8541 0 74.8459 0 74.836 0C74.6664 0 74.5019 0.064652 74.3821 0.187174L14.1108 60.4656C13.3938 61.1727 13 62.1276 13 63.148C13 64.1661 13.3965 65.1156 14.1154 65.8218L43.0368 94.7473C43.1566 94.8698 43.3203 94.9354 43.4889 94.9354C43.5016 94.9354 43.5142 94.9354 43.5269 94.9354C43.7091 94.925 43.8787 94.8373 43.9903 94.6903L56.3302 79.0442C56.5318 78.7901 56.5083 78.4293 56.28 78.1956L42.9803 64.9112C42.5092 64.4437 42.2542 63.8176 42.252 63.148C42.2497 62.4716 42.5092 61.8409 42.9803 61.3712L46.8291 57.517C47.0475 57.2963 47.0791 56.9518 46.8992 56.6982L44.2752 52.924C43.215 51.4203 43.5441 49.2845 45.008 48.1615L75.2429 24.9646C75.4011 24.8434 75.4947 24.6576 75.4947 24.456L75.5006 0.670931C75.501 0.532133 75.4572 0.396501 75.3731 0.285282Z" fill="url(#paint1_linear_5027_58093)"/>
<path d="M80.6976 74.9634L47.2184 53.2169L62.006 74.4751C62.3225 74.9634 62.2913 75.7948 61.94 76.2632L35.4522 109.879C34.9852 110.489 34.5937 111.149 34.9255 111.83C35.1023 112.186 35.5359 112.472 35.9554 112.501C36.4785 112.498 36.8795 112.272 37.4298 111.851L79.9973 79.173C81.2993 78.1793 81.2641 75.7713 80.6976 74.9634Z" fill="#F5CD21"/>
<path d="M92.9883 16.1819C92.7857 15.77 92.3427 15.4943 91.8802 15.4943C91.4656 15.4943 91.0786 15.6728 90.4836 16.1272L47.898 48.8306C46.5485 49.8628 46.2428 51.8312 47.218 53.217L80.6972 74.9634C80.2112 74.2518 66.048 53.7202 65.9046 53.5122C65.5836 53.0583 65.6112 52.1739 65.9611 51.73L92.4485 18.1029L92.4661 18.0794C92.8974 17.5283 93.3278 16.8804 92.9883 16.1819Z" fill="#FDDD75"/>
<defs>
<linearGradient id="paint0_linear_5027_58093" x1="83.6745" y1="33.0723" x2="83.6745" y2="128" gradientUnits="userSpaceOnUse">
<stop stop-color="#9EC2FF"/>
<stop offset="1" stop-color="#5E8CDA"/>
</linearGradient>
<linearGradient id="paint1_linear_5027_58093" x1="44.2503" y1="0" x2="44.2503" y2="94.9354" gradientUnits="userSpaceOnUse">
<stop stop-color="#1D68E6"/>
<stop offset="1" stop-color="#093071"/>
</linearGradient>
</defs>
</svg>
