<svg width="128" height="128" viewBox="0 0 128 128" fill="none" xmlns="http://www.w3.org/2000/svg">
<path d="M111.328 56.9375C126.003 55.7082 128 56.707 127.923 56.707V123.396H38.7227C42.5642 112.179 49.3256 99.4247 61.0039 88.0537C41.0279 100.5 29.8106 113.101 23.4336 123.396H17.5947C26.1229 108.107 44.8693 87.5165 86.2041 69.5381C56.7012 78.2968 21.4358 93.6625 0 119.708V112.409C20.2833 90.2051 49.7867 76.1448 76.3701 67.4629C50.7855 72.2264 21.9736 79.2187 0 89.1299V83.9814C34.8812 68.769 94.8864 58.3205 111.328 56.9375ZM86.9727 4C82.9006 13.527 76.6771 23.7458 67.0732 33.1191C83.1308 23.0543 93.5797 12.9124 100.341 4H106.564C96.6533 18.3673 77.7526 36.0381 41.7959 51.6348C70.3769 43.1834 104.259 28.509 125.849 4H128V8.76367C107.717 30.9677 78.2133 45.0281 51.6299 53.71C77.2145 48.9464 106.026 41.8773 128 32.043V36.499C93.042 52.4798 30.5783 63.928 13.1377 64.9268C-1.2149 65.771 0.0741079 64.9285 0.15332 64.9268V4H86.9727Z" fill="url(#paint0_linear_5027_63026)"/>
<defs>
<linearGradient id="paint0_linear_5027_63026" x1="64" y1="4" x2="64" y2="123.396" gradientUnits="userSpaceOnUse">
<stop stop-color="#FF9A59"/>
<stop offset="1" stop-color="#D35E13"/>
</linearGradient>
</defs>
</svg>
