<svg width="128" height="128" viewBox="0 0 128 128" fill="none" xmlns="http://www.w3.org/2000/svg">
<path d="M14.3796 66.6201C14.3796 70.5304 14.0667 71.804 13.2623 72.7425C12.367 73.5487 11.2048 73.9945 10 73.9938L10.3128 76.2283C12.1806 76.2535 13.993 75.5937 15.4074 74.3737C16.1685 73.4456 16.7348 72.3737 17.0726 71.222C17.4105 70.0703 17.5129 68.8624 17.3738 67.6703V52.8781H14.3796V66.5307V66.6201Z" fill="white"/>
<path d="M36.7094 64.8576C36.7094 66.5335 36.7094 68.0306 36.8435 69.3266H34.1845L34.0057 66.6675C33.4495 67.6084 32.6542 68.3851 31.7005 68.9189C30.7467 69.4526 29.6687 69.7244 28.5759 69.7064C25.984 69.7064 22.9004 68.2987 22.9004 62.5561V53.0149H25.8946V61.9528C25.8946 65.0587 26.8554 67.1368 29.5591 67.1368C30.1154 67.1428 30.6672 67.0376 31.1823 66.8275C31.6974 66.6174 32.1653 66.3065 32.5587 65.9132C32.952 65.5198 33.2629 65.0519 33.473 64.5368C33.6831 64.0217 33.7882 63.4699 33.7823 62.9136V52.9032H36.7764V64.7682L36.7094 64.8576Z" fill="white"/>
<path d="M42.385 58.3307C42.385 56.2526 42.385 54.5545 42.251 53.0127H44.9324L45.0664 55.8057C45.6638 54.7966 46.5238 53.9686 47.5548 53.4098C48.5858 52.851 49.7491 52.5825 50.9207 52.6328C54.8981 52.6328 57.8923 55.9622 57.8923 60.9227C57.8923 66.777 54.2948 69.6818 50.4068 69.6818C49.4117 69.7262 48.4219 69.513 47.5333 69.0629C46.6447 68.6127 45.8874 67.9408 45.3345 67.1122V76.0501H42.385V58.3977V58.3307ZM45.3345 62.6879C45.3427 63.0934 45.3875 63.4972 45.4686 63.8945C45.7221 64.8867 46.2993 65.766 47.1087 66.3933C47.9181 67.0206 48.9135 67.36 49.9376 67.358C53.0882 67.358 54.9428 64.7883 54.9428 61.0568C54.9428 57.7944 53.1999 55.0013 50.0493 55.0013C48.8025 55.1034 47.6357 55.6568 46.7677 56.5577C45.8998 57.4586 45.3902 58.6451 45.3345 59.8948V62.6879Z" fill="white"/>
<path d="M63.2269 52.9976L66.8244 62.6281C67.2043 63.7007 67.6065 64.9967 67.8746 65.9575C68.1875 64.9743 68.5226 63.723 68.9248 62.5611L72.1872 52.9976H75.3378L70.8688 64.6168C68.6344 70.203 67.2713 73.0855 65.2156 74.8284C64.1802 75.7741 62.9178 76.4361 61.5511 76.75L60.8137 74.2474C61.7694 73.9334 62.6566 73.4405 63.4281 72.795C64.5181 71.9066 65.3832 70.7736 65.953 69.488C66.0749 69.2653 66.1581 69.0235 66.1988 68.7729C66.1734 68.5033 66.1055 68.2393 65.9977 67.9909L59.9199 52.9529H63.1822L63.2269 52.9976Z" fill="white"/>
<path d="M83.2866 48.3101V53.0024H87.5768V55.2369H83.2866V64.0407C83.2866 66.0518 83.8676 67.2137 85.5211 67.2137C86.1083 67.2233 86.6943 67.1557 87.264 67.0126L87.398 69.247C86.5438 69.543 85.6425 69.6793 84.739 69.6493C84.1407 69.6867 83.5413 69.5943 82.982 69.3783C82.4228 69.1623 81.9169 68.8279 81.499 68.398C80.5889 67.1806 80.1737 65.6636 80.3371 64.1525V55.2146H77.7898V52.9801H80.3818V49.0027L83.2866 48.3101Z" fill="white"/>
<path d="M93.0924 61.6848C93.0317 62.4426 93.1364 63.2046 93.399 63.918C93.6617 64.6314 94.0761 65.2792 94.6136 65.8168C95.1512 66.3544 95.7991 66.7688 96.5125 67.0314C97.2259 67.2941 97.9878 67.3987 98.7456 67.3381C100.278 67.3724 101.801 67.083 103.215 66.489L103.728 68.7234C101.994 69.4379 100.129 69.7804 98.254 69.7289C97.1609 69.8038 96.0645 69.6413 95.0401 69.2526C94.0157 68.8639 93.0875 68.2583 92.3191 67.4772C91.5508 66.6961 90.9605 65.758 90.5887 64.7274C90.2169 63.6967 90.0724 62.5978 90.1652 61.5061C90.1652 56.5903 93.0924 52.7023 97.8742 52.7023C103.237 52.7023 104.578 57.3946 104.578 60.3888C104.606 60.8502 104.606 61.3129 104.578 61.7742H93.0254L93.0924 61.6848ZM101.852 59.4504C101.938 58.853 101.895 58.244 101.726 57.6646C101.557 57.0852 101.266 56.5487 100.872 56.0913C100.478 55.6339 99.9907 55.2663 99.4428 55.0132C98.8948 54.76 98.299 54.6273 97.6954 54.6239C96.4677 54.7128 95.3174 55.2569 94.4701 56.1498C93.6227 57.0426 93.1394 58.2197 93.1147 59.4504H101.852Z" fill="white"/>
<path d="M109.121 58.0789C109.121 56.1572 109.121 54.5037 108.987 52.9843H111.668V56.1796H111.802C112.083 55.1934 112.665 54.3193 113.466 53.6786C114.267 53.0379 115.247 52.6625 116.271 52.6044C116.553 52.5674 116.838 52.5674 117.12 52.6044V55.3975C116.779 55.3579 116.434 55.3579 116.092 55.3975C115.078 55.4368 114.113 55.844 113.376 56.543C112.64 57.2421 112.184 58.1851 112.092 59.1961C112.009 59.6533 111.964 60.1167 111.958 60.5815V69.2736H109.009V58.1012L109.121 58.0789Z" fill="white"/>
<path d="M107.808 8.11692C107.9 9.61806 107.543 11.1125 106.782 12.4099C106.022 13.7074 104.892 14.749 103.538 15.4022C102.183 16.0554 100.664 16.2906 99.1757 16.0777C97.6869 15.8649 96.2952 15.2137 95.1778 14.2071C94.0604 13.2005 93.2679 11.884 92.9013 10.4255C92.5347 8.9669 92.6106 7.4322 93.1193 6.01692C93.628 4.60164 94.5465 3.36981 95.7578 2.47837C96.969 1.58693 98.4182 1.07622 99.9208 1.01131C100.906 0.957099 101.892 1.09817 102.822 1.42641C103.753 1.75464 104.609 2.26357 105.342 2.92392C106.075 3.58427 106.67 4.38301 107.094 5.27422C107.517 6.16543 107.76 7.13153 107.808 8.11692Z" fill="#767677"/>
<path d="M63.6247 95.6258C43.5147 95.6258 25.8399 88.4084 16.7009 77.75C20.2469 87.3385 26.6451 95.6105 35.0345 101.453C43.4238 107.295 53.4018 110.427 63.6247 110.427C73.8479 110.427 83.8256 107.295 92.2152 101.453C100.604 95.6105 107.003 87.3385 110.549 77.75C101.432 88.4084 83.8244 95.6258 63.6247 95.6258Z" fill="#F37726"/>
<path d="M63.6247 26.3169C83.735 26.3169 101.41 33.5342 110.549 44.1926C107.003 34.6042 100.604 26.3321 92.2152 20.49C83.8256 14.6478 73.8479 11.5159 63.6247 11.5159C53.4018 11.5159 43.4238 14.6478 35.0345 20.49C26.6451 26.3321 20.2469 34.6042 16.7009 44.1926C25.8399 33.5119 43.4253 26.3169 63.6247 26.3169Z" fill="#F37726"/>
<path d="M35.9406 116.367C36.0585 118.258 35.6109 120.141 34.6548 121.777C33.6987 123.412 32.2773 124.726 30.5719 125.551C28.8664 126.376 26.9539 126.674 25.0783 126.408C23.2026 126.142 21.4485 125.324 20.0396 124.057C18.6307 122.791 17.6306 121.134 17.1669 119.297C16.7032 117.46 16.7968 115.527 17.4358 113.743C18.0748 111.96 19.2303 110.407 20.755 109.283C22.2797 108.158 24.1046 107.513 25.9972 107.43C27.237 107.363 28.4778 107.542 29.6485 107.955C30.8193 108.368 31.8972 109.008 32.8206 109.838C33.744 110.668 34.4948 111.672 35.0301 112.793C35.5655 113.913 35.8748 115.128 35.9406 116.367Z" fill="#9E9E9E"/>
<path d="M18.9865 23.888C17.9029 23.9179 16.8346 23.6268 15.916 23.0512C14.9974 22.4756 14.2695 21.6412 13.8239 20.6531C13.3782 19.6649 13.2347 18.567 13.4114 17.4975C13.588 16.428 14.077 15.4345 14.8167 14.6422C15.5565 13.8498 16.514 13.2938 17.5689 13.0442C18.6238 12.7946 19.729 12.8624 20.7454 13.2393C21.7618 13.6161 22.6441 14.285 23.2814 15.1619C23.9186 16.0389 24.2824 17.0846 24.3269 18.1678C24.3692 19.6323 23.8322 21.0545 22.8323 22.1254C21.8324 23.1964 20.4505 23.8298 18.9865 23.888Z" fill="#616262"/>
</svg>
