<svg width="128" height="128" viewBox="0 0 128 128" fill="none" xmlns="http://www.w3.org/2000/svg">
<path d="M115.447 111.585C101.662 121.759 80.985 127.995 64.2465 127.995C40.2875 127.995 18.9541 118.477 2.54379 103.708C1.23097 102.395 2.54379 101.082 3.85661 101.739C21.5797 111.913 41.6003 117.821 63.9183 117.821C79.0157 117.821 98.0517 114.539 113.477 107.974C115.775 107.318 117.744 109.944 115.447 111.585ZM120.37 104.692C118.729 102.395 108.882 103.708 104.616 104.036C103.303 104.036 102.975 103.051 104.288 102.067C111.836 96.4872 124.636 98.1283 125.949 100.098C127.262 102.067 125.621 114.867 118.4 120.774C117.416 121.759 116.103 121.103 116.759 120.118C118.4 116.18 122.011 106.99 120.37 104.692Z" fill="#FFB300"/>
<path d="M106.586 81.395C103.304 77.1284 100.022 73.5181 100.022 65.313V38.0719C100.022 26.5847 100.022 16.4103 91.8172 8.53335C85.2531 2.29744 74.4223 0 65.8889 0C47.8376 0 32.0837 7.22053 28.1453 27.5693C27.8171 29.8667 29.4581 30.8513 30.7709 31.1796L47.5094 33.1488C49.1504 33.1488 50.135 31.5078 50.4632 29.8667C51.7761 22.9744 57.3556 19.6923 63.9197 19.6923C67.53 19.6923 74.4223 21.6616 74.4223 29.5385V39.3847C63.9197 39.3847 52.7607 39.3847 43.5709 43.3232C32.7401 47.918 25.1914 57.436 25.1914 71.5489C25.1914 89.6002 36.3504 98.4617 50.7915 98.4617C62.9351 98.4617 70.1556 95.5079 79.6736 85.9899C82.6274 90.5848 83.9402 93.2104 89.5197 98.1335C90.8326 98.7899 92.4736 98.7899 93.4582 97.8053C96.7403 94.8515 102.976 89.272 106.586 86.3181C108.227 85.0053 107.899 83.0361 106.586 81.395ZM74.0941 56.1232C74.0941 62.6873 73.7659 78.7694 57.6838 78.7694C47.8376 78.7694 47.8376 68.9232 47.8376 68.9232C47.8376 54.154 61.6222 52.5129 74.0941 52.5129V56.1232Z" fill="white"/>
</svg>
