<svg width="128" height="128" viewBox="0 0 128 128" fill="none" xmlns="http://www.w3.org/2000/svg">
<path d="M48.7871 83.1504C52.9374 83.1505 56.6464 85.0083 59.1855 87.9395C61.3807 86.4243 64.0175 85.5459 66.8975 85.5459C74.4141 85.546 80.5145 91.6511 80.5146 99.1758C80.5146 100.739 80.2722 102.205 79.7842 103.621C81.4432 105.869 82.4688 108.703 82.4688 111.731C82.4686 119.254 76.3662 125.361 68.8496 125.361C65.5296 125.361 62.5035 124.189 60.1611 122.235C57.6715 125.704 53.62 128 49.0312 128C43.7594 128 39.1707 124.971 36.8779 120.574C35.95 120.769 35.0219 120.867 34.0459 120.867C26.5292 120.867 20.3789 114.759 20.3789 107.236C20.3792 99.7134 26.4813 93.6066 34.0459 93.6064C34.5338 93.5569 35.0219 93.5568 35.5098 93.6543C36.9258 87.6463 42.3439 83.1504 48.7871 83.1504ZM57.2305 66.2959C58.9873 69.2767 59.8682 72.6962 59.8682 76.165C59.8681 79.1937 59.4776 82.0276 58.2568 84.5684C55.6696 82.0772 51.8609 81.002 48.0049 81.002C41.1715 81.0021 35.3137 85.2517 33.8018 91.6035C33.2644 91.5539 32.9232 91.5059 32.3857 91.5059C31.0676 91.5539 29.7989 91.7501 28.5303 92.0908C23.6488 88.4765 20.4278 82.7121 20.4277 76.165C20.4277 72.6963 21.3537 69.2767 23.0625 66.2959H57.2305ZM70.46 5.51562L102.756 24.1836H109.51V28.1885H77.293V87.6465C76.2194 86.4242 74.8515 85.546 73.29 84.7637V28.1885H70.46V84.2256C69.3368 83.688 66.6033 83.7373 66.4561 83.7373V28.1885H56.9385V37.1797H56.9395V47.585H46.5918V38.2529H46.5908V28.1885H18.0361V24.1836H33.8682L66.4082 5.375L66.4561 5.45703V0H70.46V5.51562ZM33.6562 64.7334H23.3086V54.3271H33.6562V64.7334ZM45.3213 64.7334H34.9746V54.3271H45.3213V64.7334ZM56.9395 64.7334H46.5918V54.3271H56.9395V64.7334ZM33.6562 53.1543H23.3086V42.749H33.6562V53.1543ZM45.3213 53.1543H34.9746V42.749H45.3213V53.1543ZM48.543 37.1797H54.9863V28.1885H48.543V37.1797ZM41.8691 24.1836H66.4561V9.9707L41.8691 24.1836ZM70.46 24.1836H94.7529L70.46 10.1416V24.1836Z" fill="url(#paint0_linear_5027_57377)"/>
<defs>
<linearGradient id="paint0_linear_5027_57377" x1="63.7729" y1="0" x2="63.7729" y2="128" gradientUnits="userSpaceOnUse">
<stop stop-color="#3ACDFF"/>
<stop offset="1" stop-color="#13BEF9"/>
</linearGradient>
</defs>
</svg>
