<svg width="128" height="128" viewBox="0 0 128 128" fill="none" xmlns="http://www.w3.org/2000/svg">
<path d="M3.15624 127.557C3.01183 127.205 2.95781 98.5226 3.03553 63.6611L3.17709 0.276547L26.0513 0V31.6412C26.0513 58.8353 26.165 63.3846 26.8617 63.8957C27.5231 64.4048 27.953 64.2402 29.2042 62.991C30.0475 62.1526 44.8578 47.6561 62.11 30.7365L93.4724 0.0153477H121.638L117.752 3.7213C79.9959 39.7074 65.0587 54.3267 65.3343 55.3491C65.476 55.851 78.7833 72.3198 94.8779 91.8974C110.973 111.475 124.146 127.628 124.146 127.781C124.146 127.935 117.917 127.956 110.256 127.881L96.3661 127.744L73.4919 99.7837C60.8697 84.3976 50.1767 71.414 49.6255 70.9028C48.705 70.0491 48.2532 70.3814 40.0901 77.9057C35.3665 82.2558 30.279 87.1579 28.7908 88.7936L26.0899 91.7584V128H14.7906C6.24724 128 3.43619 127.844 3.21572 127.361L3.15624 127.557Z" fill="url(#paint0_linear_5027_55968)"/>
<defs>
<linearGradient id="paint0_linear_5027_55968" x1="97" y1="2.86393e-06" x2="97" y2="128" gradientUnits="userSpaceOnUse">
<stop stop-color="#798F95"/>
<stop offset="1" stop-color="#607074"/>
</linearGradient>
</defs>
</svg>
