<svg width="128" height="128" viewBox="0 0 128 128" fill="none" xmlns="http://www.w3.org/2000/svg">
<path d="M0.000244141 104C0.000244141 117.255 10.7454 128 24.0002 128H104C117.255 128 128 117.255 128 104V24C128 10.7452 117.255 0 104 0H24.0002C10.7454 0 0.000244141 10.7452 0.000244141 24V104Z" fill="#EF4035"/>
<path d="M27.5974 45.045V51.2116H19.5233V82.361H12.0741V51.2116H4V45.045H27.5974Z" fill="white"/>
<path d="M29.9248 45H37.0657V51.1048H29.9248V45ZM29.9248 54.5212H37.0657V82.357H29.9248V54.5212Z" fill="white"/>
<path d="M55.2775 54.5211H62.4184L55.4337 82.3611H47.1541L39.9639 54.5211H47.4131L51.3967 74.4432H51.5036L55.2775 54.5211Z" fill="white"/>
<path d="M64.124 68.4411C64.124 78.1143 66.5084 83.2367 75.0923 83.0846C83.2692 83.0846 86.0647 77.9622 86.0647 68.4411C86.0647 58.7637 83.6844 53.6413 75.0923 53.7975C66.9195 53.7975 64.124 58.9199 64.124 68.4411ZM71.2649 68.4411C71.2649 62.7514 71.5773 58.6609 75.0923 58.6609C77.9906 58.6609 78.9238 61.5057 78.9238 68.4411C78.9238 75.3764 77.9906 78.2212 75.0923 78.2212C71.5773 78.2212 71.2649 74.1349 71.2649 68.4411Z" fill="white"/>
<path d="M90.1514 82.3601H97.2922V45.0482H90.1514V82.3601Z" fill="white"/>
<path d="M102.565 45H109.706V51.1048H102.565V45ZM102.565 54.5212H109.706V82.357H102.565V54.5212Z" fill="white"/>
<path d="M117.967 75.6964H118.904C119.443 75.6964 120.051 75.8074 120.051 76.4693C120.051 77.2298 119.517 77.3162 118.892 77.3162H117.967V75.6964ZM116.914 80.5516H117.967V78.1137H118.6L120.068 80.5516H121.149L119.624 78.0767C120.553 77.9904 121.104 77.5217 121.104 76.5556C121.104 75.3634 120.372 74.8948 119.015 74.8948H116.914V80.5516ZM118.838 82.7386C121.589 82.7386 123.829 80.494 123.829 77.7437C123.829 74.9893 121.589 72.7488 118.838 72.7488C116.084 72.7488 113.844 74.9893 113.844 77.7437C113.844 80.494 116.084 82.7386 118.838 82.7386ZM118.838 81.7684C116.75 81.7684 115.06 80.0829 115.06 77.7437C115.06 75.4045 116.75 73.719 118.838 73.719C120.923 73.719 122.612 75.4045 122.612 77.7437C122.612 80.0829 120.923 81.7684 118.838 81.7684Z" fill="white"/>
</svg>
