<svg width="128" height="128" viewBox="0 0 128 128" fill="none" xmlns="http://www.w3.org/2000/svg">
<rect width="128" height="128" rx="24" fill="url(#paint0_linear_5027_61703)"/>
<path d="M23.0948 96.6598C14.5382 94.9211 7.45176 88.8408 6.19876 82.1628C5.20235 76.8515 7.59216 74.6814 14.4379 74.6814C19.1561 74.6814 20.2447 75.0934 23.5329 78.1238L27.2682 81.5662L31.485 77.4482C35.3665 73.6577 35.9092 73.4247 38.3099 74.5185C39.7444 75.1721 41.3343 75.4496 41.8431 75.1351C43.6058 74.0457 42.8625 66.0711 40.7477 63.3821C39.0243 61.1912 38.1787 60.8982 34.9977 61.3898C32.9465 61.7068 29.4682 62.8732 27.2682 63.9817C24.8142 65.2182 20.4633 66.1803 16.0112 66.4711L8.75376 66.945L5.28876 63.271C1.00076 58.7244 -0.892943 52.984 0.400657 48.454C2.11516 42.4501 8.80586 44.1859 10.5977 51.0994C11.1077 53.0678 12.0053 54.1506 13.0826 54.0974C14.0101 54.0516 17.0075 53.9391 19.7434 53.8474C24.1267 53.7006 24.8934 53.3411 26.1962 50.8216C27.0093 49.2491 29.0459 47.3945 30.7219 46.7003C33.0063 45.7541 33.7779 44.7801 33.8045 42.8094C33.9138 34.6985 44.6575 28.0184 50.5865 32.3754C52.9484 34.111 53.6283 34.1928 56.2694 33.059C61.6835 30.7346 67.3404 31.3258 71.0034 34.5988C73.8379 37.1315 74.2692 38.1548 74.2692 42.3488C74.2692 46.1271 73.6454 47.9962 71.4089 50.9199C68.3761 54.8844 68.4728 55.0666 74.0915 55.9749C76.3715 56.3434 77.0899 55.9678 77.8308 54.0191C78.9575 51.0557 88.1848 41.6811 89.9748 41.6811C90.6902 41.6811 92.5409 40.3406 94.0873 38.7022C101.478 30.8715 117.69 33.5044 124.524 43.6454C127.735 48.4096 128.202 51.0654 126.743 56.2735C123.617 67.4395 111.974 71.3705 97.2735 66.2232C93.4256 64.876 89.9768 64.0904 89.6095 64.4776C89.2421 64.8647 88.7904 66.5314 88.6056 68.1814C88.2894 71.0041 88.4946 71.2 92.0754 71.4952C96.3823 71.8501 97.576 73.616 95.9387 77.2096C95.2504 78.7201 95.2017 79.8306 95.8072 80.2048C97.2949 81.1242 96.9448 85.9861 95.2128 88.459C92.2439 92.6978 82.9788 90.924 76.5198 84.8802C73.809 82.3439 73.7698 82.3385 73.7698 84.4944C73.7698 85.6973 73.3101 86.6815 72.7484 86.6815C72.1866 86.6815 71.2183 87.7979 70.5966 89.1623C69.3377 91.9253 66.0936 93.4053 64.5906 91.9023C64.0472 91.3589 60.8318 91.1477 57.3535 91.4269C49.4963 92.0576 44.1585 89.8564 42.2045 85.1796C41.4789 83.4431 40.19 81.4453 39.3403 80.74C37.2987 79.0456 34.7698 80.1025 34.7698 82.6501C34.7698 83.7674 34.3198 84.6815 33.7698 84.6815C32.253 84.6815 32.5692 87.1684 34.5198 90.5813C37.8065 96.3319 33.2954 98.7324 23.0958 96.6599L23.0948 96.6598ZM70.3508 73.5478C70.5788 71.1464 71.3791 68.7274 72.1291 68.1722C72.9952 67.5311 73.3187 65.9768 73.0157 63.9124C72.4685 60.1843 69.918 59.0711 64.0903 60.0168C59.2379 60.8042 59.0134 61.2726 61.9692 64.442C65.3186 68.0335 66.3851 70.2694 67.2565 75.527C68.138 80.846 69.756 79.8114 70.3508 73.5478ZM116.019 61.9758C113.657 61.521 112.866 59.6926 115.019 59.6662C115.924 59.6551 115.889 59.4101 114.891 58.778C112.719 57.4026 114.572 55.6701 118.078 55.7975C119.833 55.8613 120.506 56.1145 119.574 56.3602C117.47 56.9149 118.34 59.6756 120.626 59.6969C122.052 59.7101 122.071 59.8401 120.769 60.6815C119.826 61.2905 119.72 61.6566 120.484 61.6662C122.542 61.6922 123.994 57.6983 123.291 53.9478C122.24 48.348 118.038 39.6818 116.373 39.6818C114.501 39.6818 104.769 41.7414 104.769 42.1375C104.769 42.297 105.656 44.4328 106.74 46.8837C107.824 49.3346 109.011 53.8918 109.378 57.0107L110.044 62.6817L114.157 62.5456C116.448 62.4697 117.272 62.2172 116.019 61.9758ZM112.175 53.5298C111.31 52.1304 114.423 49.6815 117.067 49.6815C118.359 49.6815 118.795 50.1698 118.407 51.1815C118.09 52.0065 118.267 52.6815 118.8 52.6815C119.333 52.6815 119.769 53.1315 119.769 53.6815C119.769 55.0746 113.047 54.9403 112.175 53.5298ZM111.769 48.8983C111.769 47.7798 116.696 46.2758 117.553 47.1328C118.35 47.9292 117.616 48.4307 114.517 49.2086C112.892 49.6165 111.769 49.4897 111.769 48.8983ZM110.769 45.6815C110.769 45.1315 111.637 44.6815 112.699 44.6815C113.917 44.6815 114.776 43.851 115.026 42.4315C115.42 40.1904 115.426 40.1914 116.471 42.6815C117.376 44.8399 117.229 45.2704 115.394 45.8318C112.147 46.8254 110.769 46.7807 110.769 45.6815ZM33.4197 55.2135C33.1099 54.4061 33.2867 53.4796 33.8127 53.1545C34.3387 52.8294 34.7976 53.3775 34.8324 54.3725C34.8835 55.8293 35.0719 55.7435 35.8002 53.9315C36.2976 52.694 36.3493 50.7211 35.9151 49.5472C35.1398 47.4514 35.0862 47.4628 32.9473 50.1821C30.3791 53.447 30.0948 56.6816 32.376 56.6816C33.378 56.6816 33.7709 56.1289 33.4197 55.2135ZM28.307 53.7429C27.988 53.2267 28.2989 52.4392 28.998 51.9929C29.6971 51.5466 30.944 50.3203 31.769 49.2677C33.1831 47.4635 33.1415 47.4219 31.0419 48.5406C27.8897 50.2202 25.5548 54.6814 27.828 54.6814C28.4105 54.6814 28.626 54.2591 28.307 53.7429Z" fill="#F2E69E"/>
<path d="M23.4984 96.6662C17.537 95.6357 13.2954 93.189 9.64941 88.6776C3.50421 81.0736 5.5015 74.6776 14.0192 74.6856C18.5461 74.6896 23.8986 77.315 25.8942 80.5101C27.0074 82.2926 27.249 82.2052 30.0598 79.0039C34.3977 74.0633 36.4056 73.2135 39.2843 75.0997C41.9804 76.8662 42.3372 76.5555 43.218 71.6743C43.6683 69.1792 43.2987 67.1825 41.9239 64.6819C40.0853 61.3379 39.7869 61.1974 35.2268 61.5301C32.6018 61.7216 28.7559 62.7634 26.6804 63.8453C21.8076 66.3851 12.7724 67.3401 8.87841 65.727C5.37451 64.2756 1.07141 58.4408 0.165905 53.913C-0.199565 52.0857 0.0604053 49.3942 0.767195 47.6878C3.0516 42.1727 9.0015 44.5909 10.4042 51.6045C11.0327 54.7472 11.2253 54.869 14.6661 54.2999C16.6481 53.9721 19.9084 53.6989 21.9113 53.6928C24.9684 53.6836 25.6548 53.276 26.1876 51.1531C26.58 49.5896 28.1482 47.9921 30.296 46.9679C33.0119 45.6728 33.7697 44.714 33.7697 42.5733C33.7697 39.3654 37.7602 34.2552 41.9618 32.0823C45.3916 30.3087 50.2903 31.0027 51.6637 33.4568C52.4916 34.9362 52.9198 34.9177 56.6351 33.2424C64.9527 29.4917 73.3931 33.3049 74.4231 41.2791C74.8387 44.4949 74.3639 46.0252 71.7253 49.9753C69.9641 52.6118 68.6911 54.9106 68.8963 55.0838C69.1015 55.257 70.9775 55.6624 73.0652 55.9848C76.4482 56.5071 76.9643 56.2992 77.8109 54.0726C78.8301 51.392 87.1676 42.6816 88.7139 42.6816C89.2272 42.6816 91.727 40.8816 94.2689 38.6816C98.6798 34.864 99.1956 34.6829 105.58 34.7098C113.894 34.7448 120.102 37.6324 123.958 43.2585C127.511 48.442 128.05 50.9228 126.708 55.9085C123.948 66.1565 111.578 71.3785 100.269 67.0695C93.3425 64.4306 89.6716 63.7461 89.2856 65.0217C87.3815 71.323 87.5157 71.6813 91.7805 71.6813C96.3147 71.6813 97.8914 73.653 95.9031 76.8368C95.0374 78.223 95.013 79.2704 95.8118 80.763C97.2435 83.4381 96.0899 88.4387 93.7525 89.6896C89.2968 92.0742 79.7665 89.0367 75.7715 83.9591C73.8923 81.5701 73.7676 81.541 73.7676 83.4908C73.7676 84.6344 72.2407 87.2367 70.3746 89.2737C67.7647 92.1225 66.553 92.7906 65.1246 92.1679C64.1033 91.7226 59.7443 91.3185 55.438 91.2698C47.8659 91.1842 47.5205 91.0745 44.938 87.9343C36.5496 77.7343 36.8884 78.0136 35.3319 80.0284C34.5471 81.0444 34.1249 82.4488 34.3938 83.1494C34.6627 83.85 34.1641 84.6989 33.2859 85.0359C31.882 85.5746 31.9656 86.1309 33.9784 89.6426C37.8458 96.3898 34.5759 98.5808 23.4964 96.6658L23.4984 96.6662ZM33.7694 94.132C33.7694 93.2797 33.0578 91.2062 32.188 89.5243C31.2519 87.7141 30.8616 85.4502 31.2316 83.9761C31.6806 82.1874 31.4922 81.6103 30.563 81.9275C29.8515 82.1704 29.318 83.5644 29.3774 85.0254C29.5027 88.1062 28.1861 88.5701 27.2941 85.7595C26.2335 82.4178 19.0351 76.6739 16.0161 76.7607C14.5052 76.8042 13.8474 77.072 14.5543 77.3558C15.2612 77.6397 17.3809 80.9324 19.2646 84.673C21.1483 88.4136 23.8931 92.4208 25.3641 93.5779C28.5593 96.0912 33.7694 96.4347 33.7694 94.132ZM18.6014 86.6277C14.0949 78.8114 10.2269 75.3477 8.6996 77.7608C7.2828 79.9993 7.5906 81.7005 10.2263 86.198C12.5973 90.2437 17.4467 93.6118 20.9693 93.659C22.3399 93.6774 21.8816 92.3171 18.6014 86.6277ZM94.0204 87.3524C94.4442 86.7085 94.6737 84.8317 94.5304 83.1817C94.3138 80.6866 93.8744 80.2248 91.9201 80.4376C90.6277 80.5784 88.4295 81.5908 87.0352 82.6876C85.6409 83.7844 83.5708 84.6817 82.435 84.6817C79.9863 84.6817 80.9568 85.8648 85.2699 88.1377C88.4097 89.7923 92.6659 89.4104 94.0204 87.3524ZM66.7694 85.1817C66.7694 84.3567 66.5925 83.6817 66.3764 83.6817C66.1602 83.6817 65.7244 84.3567 65.4078 85.1817C65.0912 86.0067 65.268 86.6817 65.8008 86.6817C66.3335 86.6817 66.7694 86.0067 66.7694 85.1817ZM78.2324 79.2261C77.4276 76.5519 76.7691 73.2791 76.7691 71.9532C76.7691 70.0253 76.3186 69.6066 74.5191 69.8621C72.6814 70.1231 72.2098 70.9146 71.9453 74.1817C71.7672 76.3817 70.8851 78.9967 69.9851 79.9927C68.5676 81.5615 68.544 81.9264 69.8089 82.7211C70.9243 83.4218 71.4804 82.9352 72.1638 80.6601C72.9817 77.9375 74.7691 76.4876 74.7691 78.5469C74.7691 79.6317 78.8721 84.9121 79.3464 84.4378C79.5386 84.2457 79.0372 81.9004 78.2324 79.2261ZM72.7691 72.6503C72.7691 72.1176 73.4441 71.6817 74.2691 71.6817C76.1898 71.6817 76.1898 72.3063 74.2691 73.0433C73.4441 73.3599 72.7691 73.1831 72.7691 72.6503ZM86.5851 81.3821C87.9973 80.2501 91.1297 74.666 90.5929 74.2372C90.4148 74.095 88.8026 73.4838 87.0101 72.879C83.8418 71.81 83.7837 71.8407 84.9238 73.9805C85.9602 75.9257 85.9145 76.0315 84.5309 74.8906C83.6699 74.1806 82.6605 72.385 82.2879 70.9006C81.6478 68.3501 80.1963 66.7312 78.5191 66.6969C77.4007 66.6741 77.5968 69.029 79.3582 76.7729C80.816 83.1824 81.1257 83.7048 83.1082 83.0979C84.2967 82.7341 85.8613 81.9622 86.5851 81.3821ZM70.7691 72.3969C70.7691 69.3218 71.1976 68.3823 72.7902 67.9659C74.1455 67.6115 74.5065 67.0659 73.886 66.3095C73.3771 65.6892 72.8051 64.0566 72.6149 62.6816C72.2862 60.3054 71.959 60.1864 66.0049 60.2791C62.5596 60.3328 59.5162 60.6011 59.2419 60.8755C58.9676 61.1498 60.306 63.0314 62.2162 65.0569C64.3375 67.3061 65.9334 70.1878 66.3165 72.4606C66.6615 74.5072 67.1864 77.0533 67.4831 78.1186C68.0093 80.0081 68.0562 80.0095 69.3958 78.1774C70.1511 77.1445 70.7691 74.5433 70.7691 72.3969ZM94.7691 74.4433C94.7691 72.6786 92.457 74.293 91.5769 76.6723C90.7082 79.0207 90.7271 79.0297 92.7314 77.2158C93.8522 76.2015 94.7691 74.9539 94.7691 74.4433ZM115.769 65.1283C119.221 63.7464 119.188 63.7355 113.367 64.3386C107.581 64.9381 107.477 64.9052 108.067 62.6501C108.777 59.9361 106.656 50.1651 104.356 45.5551C102.364 41.5624 103.167 40.5687 109.565 39.1068L114.269 38.0321L109.835 36.7687C104.887 35.3588 101.01 35.8223 97.2739 38.2707C94.0124 40.4077 94.0991 41.6529 97.5196 41.7992C99.2218 41.872 98.436 42.2248 95.4569 42.7252C92.8099 43.1699 89.4349 44.3467 87.9569 45.3405L85.2696 47.1473L92.2696 48.2478L88.2696 48.9402C83.6446 49.7408 79.7696 52.1561 79.7696 54.2383C79.7696 55.0529 80.7154 55.6816 81.9409 55.6816C84.4299 55.6816 87.7696 58.3488 87.7696 60.3366C87.7696 62.0269 89.9411 62.0792 91.7168 60.4316C92.8165 59.4112 92.9509 59.5031 92.4482 60.9316C92.0011 62.2023 92.3554 62.6816 93.742 62.6816C94.7923 62.6816 95.9297 62.2316 96.2696 61.6816C97.3303 59.9653 98.6068 60.5882 98.0887 62.5692C97.1184 66.2795 108.704 67.9565 115.769 65.1283ZM116.019 61.9759C113.658 61.5211 112.866 59.6927 115.019 59.6663C115.855 59.6561 115.772 59.3248 114.769 58.6663C113.436 57.791 113.436 57.5722 114.769 56.6969C115.594 56.1553 117.169 55.7409 118.269 55.7759C119.369 55.8109 119.732 56.058 119.075 56.3252C117.404 57.0052 118.633 59.6784 120.626 59.697C122.052 59.7103 122.071 59.8402 120.769 60.6817C119.944 61.2148 119.742 61.6579 120.319 61.6663C122.201 61.6938 123.769 59.3415 123.769 56.4921C123.769 52.8971 118.885 40.6631 117.19 40.0131C115.982 39.5496 104.769 41.4568 104.769 42.1257C104.769 42.2918 105.713 44.5615 106.866 47.1694C108.024 49.7875 109.032 54.3194 109.116 57.2884L109.269 62.6656L113.769 62.5376C116.244 62.4672 117.257 62.2143 116.019 61.9759ZM112.769 52.7886C112.769 50.893 114.597 49.6816 117.458 49.6816C118.403 49.6816 118.764 50.2523 118.407 51.1816C118.091 52.0066 118.268 52.6816 118.8 52.6816C119.333 52.6816 119.769 53.1316 119.769 53.6816C119.769 54.2316 118.194 54.6816 116.269 54.6816C113.502 54.6816 112.769 54.2854 112.769 52.7886ZM111.769 48.9066C111.769 47.9138 116.901 46.4942 117.686 47.2699C118.35 47.9266 117.464 48.4692 114.517 49.2087C112.903 49.6138 111.769 49.4891 111.769 48.9066ZM110.769 45.6816C110.769 45.1316 111.638 44.6816 112.7 44.6816C113.917 44.6816 114.776 43.8511 115.026 42.4316C115.421 40.1905 115.426 40.1915 116.471 42.6816C117.377 44.84 117.23 45.2705 115.395 45.8319C112.147 46.8256 110.769 46.7808 110.769 45.6816ZM33.8391 54.4316C33.9059 52.2941 33.9501 52.2816 34.7245 54.1816C35.4789 56.0326 35.5922 55.9821 36.2444 53.5041C36.6321 52.0314 36.5275 50.0729 36.012 49.1518C35.1829 47.6702 34.8266 47.7927 32.9218 50.2142C31.7376 51.7196 30.7688 53.7906 30.7688 54.8165C30.7688 57.5225 33.7542 57.1483 33.8391 54.4316ZM28.3068 53.7431C27.9878 53.2269 28.2987 52.4394 28.9978 51.9931C29.6969 51.5468 30.9438 50.3205 31.7688 49.2679C33.1829 47.4637 33.1413 47.4221 31.0417 48.5408C27.8895 50.2204 25.5546 54.6816 27.8278 54.6816C28.4103 54.6816 28.6258 54.2593 28.3068 53.7431ZM123.746 46.3881C122.556 44.6246 121.817 43.9223 122.104 44.8276C122.391 45.7328 123.22 48.4329 123.947 50.8276C125.154 54.8057 125.296 54.9405 125.589 52.3881C125.78 50.7285 125.031 48.293 123.746 46.3881Z" fill="#ABADAA"/>
<path d="M25.3909 96.5801C14.5119 94.992 6.76891 88.2153 6.76891 80.2831C6.76891 76.0005 8.04081 75.2113 14.9707 75.1942C19.0413 75.1841 20.1824 75.6766 23.4707 78.8633L27.2689 82.544L31.2689 78.5591C35.2098 74.6331 36.5782 74.29 40.9458 76.1328C42.327 76.7155 42.743 76.0382 43.305 72.2907C43.8408 68.7178 43.5714 67.037 42.0502 64.4618C40.3498 61.5833 39.6172 61.192 36.0548 61.2604C33.8227 61.3032 29.6674 62.3402 26.8208 63.5649C20.5144 66.2778 13.2058 67.2285 9.55281 65.8112C5.03301 64.058 0.769409 57.1864 0.769409 51.6552C0.769409 45.8583 2.59701 43.8276 6.29691 45.5134C7.98771 46.2838 9.12461 47.9837 9.90651 50.9104L11.0479 55.1828L16.1587 54.8967C23.8685 54.4651 25.3244 53.9551 26.5547 51.2549C27.1752 49.8932 28.9992 48.0983 30.6082 47.2662C32.7576 46.1547 33.7201 44.7593 34.2367 42.0059C35.2467 36.6221 40.7247 31.6829 45.6857 31.6829C48.1036 31.6829 50.0682 32.3555 51.1538 33.5551C52.8089 35.3839 52.934 35.3825 56.5588 33.492C63.3661 29.9418 71.8548 32.709 73.6048 39.0492C74.9334 43.8611 74.0597 46.9836 70.0856 51.6262C66.6369 55.6553 66.63 55.6826 69.0664 55.6826C70.4155 55.6826 72.9256 55.9638 74.6443 56.3076C77.165 56.8117 77.7693 56.6035 77.7693 55.2307C77.7693 54.2946 79.0627 52.2353 80.6436 50.6545C82.2245 49.0736 83.7931 47.0629 84.1295 46.1863C84.4659 45.3096 86.4276 43.8877 88.4888 43.0265C90.55 42.1653 92.8337 40.608 93.5636 39.5659C98.4181 32.6351 113.37 33.1344 121.109 40.4857C126.753 45.8474 128.228 52.2567 125.383 59.0657C122.378 66.2564 110.409 70.3647 101.735 67.1824C95.8717 65.0316 89.6215 63.4971 89.0505 64.0683C88.8 64.3188 88.2318 66.1344 87.7878 68.103L86.9806 71.6822H91.3079C94.7907 71.6822 95.762 72.0818 96.2852 73.7302C96.6427 74.8566 96.3818 76.4449 95.7055 77.2598C94.7749 78.3811 94.7483 79.3393 95.5961 81.2C97.5112 85.4031 94.3036 90.6978 89.865 90.6603C86.266 90.6298 79.741 87.4578 76.875 84.345C74.4193 81.6784 72.7704 81.6537 72.7704 84.2835C72.7704 85.0992 72.3202 86.3102 71.77 86.9745C71.2198 87.6388 69.9279 89.2846 68.8991 90.6319C67.1368 92.9398 66.8906 92.9911 64.6443 91.5192C62.8859 90.367 61.6051 90.2049 59.7652 90.9017C56.5748 92.1098 49.1042 91.1309 46.0022 89.0982C44.683 88.2338 42.967 86.0029 42.1889 84.1405C40.4418 79.959 37.2942 78.0029 35.1613 79.773C34.3464 80.4493 33.9065 81.5936 34.1837 82.3159C34.4608 83.0382 33.9444 84.0452 33.036 84.5535C31.539 85.3912 31.6132 85.9145 33.8276 90.1411C36.2292 94.7251 36.2378 94.8288 34.3296 96.2433C33.262 97.0347 32.137 97.6273 31.8296 97.5603C31.5222 97.4932 28.6256 97.0522 25.3927 96.5803L25.3909 96.5801ZM33.769 94.1324C33.769 93.28 33.0574 91.2066 32.1876 89.5247C31.2515 87.7145 30.8612 85.4506 31.2312 83.9765C31.6802 82.1878 31.4918 81.6107 30.5626 81.9279C29.8511 82.1707 29.3176 83.5648 29.377 85.0258C29.4364 86.4868 29.0989 87.6821 28.627 87.6821C28.1551 87.6821 27.769 87.222 27.769 86.6598C27.769 86.0975 25.9117 83.6225 23.6416 81.1598C20.4884 77.739 18.7951 76.6821 16.4673 76.6821H13.4203L15.4843 78.9321C16.6195 80.1696 18.708 83.5002 20.1255 86.3334C21.5429 89.1666 23.9033 92.4291 25.3707 93.5834C28.5605 96.0925 33.769 96.433 33.769 94.1324ZM18.601 86.6281C14.0945 78.8118 10.2265 75.3481 8.69921 77.7612C7.28241 79.9997 7.59021 81.7009 10.2259 86.1984C12.5969 90.2441 17.4463 93.6122 20.9689 93.6594C22.3395 93.6777 21.8812 92.3175 18.601 86.6281ZM59.124 89.0993C60.0232 88.7542 60.3936 87.8676 60.0322 86.9257C59.5844 85.7587 59.854 85.5007 61.0444 85.9575C62.2415 86.4169 62.5047 86.1571 62.0481 84.967C61.6672 83.9744 61.8344 83.6045 62.483 84.0053C63.0644 84.3646 64.0794 83.3469 64.7469 81.7354C66.0033 78.7022 65.4518 73.9154 63.4006 70.0494C61.5164 66.4982 55.3816 60.2593 52.4896 58.9534C48.1977 57.0155 49.1058 55.46 54.0924 56.2078C58.8988 56.9285 64.6954 55.0388 68.4244 51.5355C73.8113 46.4748 73.9945 37.8845 68.7732 35.1845C60.1517 30.7261 49.9102 37.0745 48.1192 47.9865C47.7062 50.5039 47.0617 51.6248 46.2143 51.2996C44.1504 50.5076 43.682 53.5066 45.6513 54.9045C47.9054 56.5046 49.7681 59.9455 49.7681 62.5091C49.7681 64.7508 47.0619 66.1648 45.3914 64.796C43.5484 63.2859 43.8785 83.871 45.7334 86.125C48.2549 89.189 54.9909 90.6853 59.124 89.0993ZM53.4778 53.0573C53.0879 52.6674 52.769 51.0142 52.769 49.3835C52.769 45.2413 60.307 37.6815 64.437 37.6815C67.8942 37.6815 69.7932 39.2855 69.7052 42.1315C69.6454 44.0655 69.5906 44.0542 68.7374 41.9315C66.526 36.4298 55.6784 41.7918 55.2744 48.5864C55.1113 51.3273 55.3773 51.7556 56.9821 51.3359C58.153 51.0297 58.7349 51.2886 58.4975 52.0101C58.0513 53.3661 54.5228 54.1024 53.4778 53.0573ZM68.7688 88.6223C68.7688 88.0398 68.3188 87.8414 67.7688 88.1813C66.4874 88.9732 66.4874 89.6813 67.7688 89.6813C68.3188 89.6813 68.7688 89.2047 68.7688 88.6223ZM94.0198 87.352C94.4436 86.7081 94.6731 84.8313 94.5298 83.1813C94.3132 80.6862 93.8739 80.2244 91.9195 80.4372C90.6271 80.5779 88.4289 81.5904 87.0346 82.6872C85.6403 83.784 83.5702 84.6813 82.4344 84.6813C79.9857 84.6813 80.9562 85.8644 85.2693 88.1373C88.4091 89.7919 92.6653 89.4099 94.0198 87.352ZM67.3888 86.2292C68.2049 84.1025 66.7578 82.0906 65.6591 83.8246C64.4799 85.6856 64.5529 87.6814 65.8002 87.6814C66.3674 87.6814 67.0823 87.0278 67.3888 86.2292ZM78.2318 79.2257C77.427 76.5515 76.7685 73.2787 76.7685 71.9528C76.7685 70.0249 76.318 69.6062 74.5185 69.8617C72.6808 70.1227 72.2092 70.9142 71.9447 74.1813C71.7666 76.3813 70.8845 78.9963 69.9845 79.9923C68.567 81.5611 68.5434 81.926 69.8083 82.7207C70.9238 83.4214 71.4798 82.9347 72.1632 80.6597C72.9811 77.9371 74.7685 76.4872 74.7685 78.5465C74.7685 79.6313 78.8716 84.9117 79.3458 84.4374C79.538 84.2452 79.0366 81.9 78.2318 79.2257ZM72.7685 72.6499C72.7685 72.1171 73.4435 71.6812 74.2685 71.6812C76.1892 71.6812 76.1892 72.3058 74.2685 73.0428C73.4435 73.3594 72.7685 73.1826 72.7685 72.6499ZM86.5845 81.3817C87.9967 80.2497 91.1291 74.6656 90.5923 74.2368C90.4142 74.0945 88.802 73.4833 87.0095 72.8786C83.8412 71.8096 83.7831 71.8403 84.9232 73.9801C85.9596 75.9253 85.9139 76.0311 84.5303 74.8902C83.6693 74.1801 82.6599 72.3846 82.2873 70.9002C81.6472 68.3497 80.1957 66.7308 78.5185 66.6965C77.4001 66.6736 77.5962 69.0286 79.3576 76.7725C80.8154 83.182 81.1251 83.7044 83.1076 83.0975C84.2961 82.7336 85.8607 81.9618 86.5845 81.3817ZM33.7685 79.1813C34.4532 78.3563 34.7884 77.6813 34.5134 77.6813C34.2384 77.6813 33.4532 78.3563 32.7685 79.1813C32.0838 80.0063 31.7486 80.6813 32.0236 80.6813C32.2986 80.6813 33.0838 80.0063 33.7685 79.1813ZM69.3765 78.9313C70.1071 77.9688 70.7193 75.7556 70.7367 74.0131C70.779 69.7968 71.6724 67.6813 73.4107 67.6813C74.5317 67.6813 74.6074 67.2486 73.7625 65.67C73.1704 64.5638 72.8171 62.8763 72.9773 61.92C73.2232 60.4518 72.335 60.1411 67.2685 59.9227C58.7794 59.5568 57.4359 60.7069 61.4687 64.8877C65.1733 68.7281 66.7685 72.4481 66.7685 77.2467C66.7685 81.0887 67.4196 81.5091 69.3765 78.9313ZM41.7685 79.3037C41.7685 79.096 40.981 78.3085 40.0185 77.5537C38.4324 76.3098 38.3971 76.3452 39.6409 77.9313C40.9473 79.597 41.7685 80.1268 41.7685 79.3037ZM94.7685 74.4429C94.7685 72.6782 92.4564 74.2926 91.5763 76.6719C90.7076 79.0203 90.7265 79.0293 92.7308 77.2154C93.8516 76.2011 94.7685 74.9535 94.7685 74.4429ZM86.7685 68.4824C86.7685 67.888 85.981 66.8039 85.0185 66.0732C83.3518 64.808 83.3518 64.7432 85.0185 64.713C87.2013 64.6733 87.3288 61.8334 85.1847 61.0106C83.9076 60.5205 83.8592 60.2361 84.9347 59.542C86.9863 58.2179 83.8592 56.4905 80.7685 57.2405C79.3935 57.5742 76.4685 57.845 74.2685 57.8423C70.9601 57.8383 70.7008 57.9651 72.7685 58.5758C74.8139 59.18 75.2092 59.8462 74.9426 62.2402C74.7633 63.8495 74.9315 64.8513 75.3164 64.4665C76.2665 63.5164 83.728 67.412 84.422 69.2206C85.0246 70.791 86.7685 70.2424 86.7685 68.4824ZM115.769 65.1278C119.22 63.7459 119.187 63.735 113.367 64.3381C107.58 64.9376 107.477 64.9047 108.067 62.6496C108.776 59.9356 106.655 50.1646 104.355 45.5546C102.364 41.5619 103.166 40.5682 109.565 39.1063L114.269 38.0316L109.834 36.7682C104.886 35.3583 101.01 35.8218 97.2733 38.2702C94.0118 40.4072 94.0985 41.6524 97.519 41.7987C99.2212 41.8715 98.4354 42.2243 95.4563 42.7247C92.8093 43.1694 89.4343 44.3462 87.9563 45.34L85.269 47.1468L92.269 48.2473L88.269 48.9397C83.644 49.7403 79.769 52.1556 79.769 54.2378C79.769 55.0524 80.7149 55.6811 81.9403 55.6811C84.4293 55.6811 87.769 58.3483 87.769 60.3361C87.769 62.0264 89.9405 62.0787 91.7162 60.4311C92.8159 59.4107 92.9503 59.5026 92.4476 60.9311C92.0005 62.2018 92.3548 62.6811 93.7414 62.6811C94.7917 62.6811 95.9291 62.2311 96.269 61.6811C97.3297 59.9648 98.6062 60.5877 98.0881 62.5687C97.1179 66.279 108.704 67.956 115.769 65.1278ZM24.7685 62.5134C27.2435 61.3453 31.0464 60.1177 33.2195 59.7854C36.3728 59.3032 37.8446 58.2969 40.5095 54.8011C44.2931 49.8377 44.2782 48.319 40.4414 47.8648C37.9847 47.574 37.7685 47.8368 37.7685 51.1148C37.7685 57.0289 31.916 60.9737 28.7685 57.1812C27.8839 56.1152 25.5432 55.6812 20.6794 55.6812C14.1982 55.6812 13.6506 55.8658 10.3554 59.1613C7.26714 62.2496 7.06634 62.7528 8.57214 63.6309C11.5328 65.3575 19.9765 64.7748 24.7685 62.5134ZM42.7685 60.6812C42.1798 59.5812 41.1942 58.6812 40.5783 58.6812C39.9624 58.6812 40.273 59.5812 41.2685 60.6812C42.264 61.7812 43.2496 62.6812 43.4587 62.6812C43.6678 62.6812 43.3572 61.7812 42.7685 60.6812ZM121.546 61.1245C124.399 59.1258 124.44 54.955 121.679 47.6815C118.37 38.9654 118.041 38.7862 108.936 40.7389L104.005 41.7963L105.927 45.7744C108.107 50.2854 110.184 60.2004 109.262 61.6914C108.229 63.3619 119.065 62.8619 121.546 61.1245ZM115.068 60.3419C115.418 59.4285 115.269 58.6812 114.737 58.6812C114.204 58.6812 113.768 58.2312 113.768 57.6812C113.768 56.0376 116.305 56.5449 118.768 58.6812C120.036 59.7812 120.668 60.6873 120.171 60.6949C119.674 60.7024 118.18 60.9998 116.849 61.3557C114.875 61.8839 114.548 61.6978 115.068 60.3419ZM117.039 56.077C117.371 55.7447 118.234 55.7092 118.956 55.9981C119.753 56.3173 119.516 56.5543 118.351 56.6023C117.297 56.6457 116.707 56.4093 117.039 56.077ZM112.768 53.2164C112.768 51.7695 115.664 49.6812 117.671 49.6812C118.24 49.6812 118.446 50.3562 118.13 51.1812C117.813 52.0062 118.079 52.6812 118.72 52.6812C119.361 52.6812 119.608 53.1312 119.268 53.6812C118.27 55.2961 112.768 54.9028 112.768 53.2164ZM116.768 52.6813C116.768 52.1313 116.318 51.6813 115.768 51.6813C115.218 51.6813 114.768 52.1313 114.768 52.6813C114.768 53.2313 115.218 53.6813 115.768 53.6813C116.318 53.6813 116.768 53.2313 116.768 52.6813ZM111.768 48.7004C111.768 48.1399 113.193 47.6813 114.935 47.6813C118.576 47.6813 118.444 48.1178 114.518 49.0597C112.886 49.4513 111.768 49.3053 111.768 48.7004ZM110.768 45.7883C110.768 45.1794 111.941 44.6813 113.375 44.6813C115.32 44.6813 115.831 44.2873 115.386 43.1294C115.045 42.2394 115.213 41.8381 115.779 42.1884C117.278 43.1142 116.962 45.6813 115.35 45.6813C114.57 45.6813 113.22 45.9544 112.35 46.2883C111.48 46.6221 110.768 46.3971 110.768 45.7883ZM34.545 56.1243C36.7861 54.5545 37.6816 49.364 35.9012 48.2636C34.2323 47.2322 29.1464 54.867 30.2803 56.7017C31.1135 58.0498 31.9596 57.9351 34.545 56.1243ZM68.498 56.988C67.525 56.7344 66.175 56.7511 65.498 57.025C64.821 57.2989 65.617 57.5064 67.267 57.486C68.917 57.4656 69.4709 57.2415 68.498 56.988ZM29.275 53.6939C28.9395 53.151 29.5832 51.7213 30.7054 50.5167C33.5249 47.4903 32.3316 46.8019 29.263 49.6847C26.4404 52.3363 26.0007 54.681 28.326 54.681C29.1834 54.681 29.6105 54.2367 29.275 53.6939ZM123.744 46.3874C122.554 44.6239 121.815 43.9216 122.102 44.8269C122.389 45.7321 123.219 48.4322 123.945 50.8269C125.153 54.805 125.294 54.9398 125.587 52.3874C125.778 50.7278 125.03 48.2923 123.744 46.3874ZM49.628 39.4201C51.5337 37.5144 50.9064 34.7015 48.3122 33.5195C43.3799 31.2722 35.7672 36.9135 35.7672 42.8158C35.7672 45.3082 36.1431 45.6809 38.6564 45.6809C40.2455 45.6809 42.5987 46.5336 43.8859 47.5759L46.2262 49.4709L47.3576 45.015C47.9799 42.5643 49.0015 40.0466 49.628 39.4201Z" fill="#A79C6C"/>
<path d="M21.0137 95.7047C14.1481 94.0756 6.76865 86.6022 6.76865 81.2777C6.76865 76.972 7.81185 75.798 12.2256 75.1361C17.0474 74.413 20.7677 75.885 24.6666 80.0586L27.0643 82.6253L31.1666 78.6053C35.2066 74.6463 36.5936 74.2967 40.9579 76.1369C42.3075 76.706 42.7818 76.1303 43.318 73.2721C45.4098 62.1221 38.0211 57.5341 27.098 63.2011C21.4548 66.1289 13.444 67.3203 9.55195 65.8107C5.03215 64.0575 0.768555 57.1859 0.768555 51.6547C0.768555 46.4359 2.47985 44.1385 5.62405 45.1364C7.54615 45.7464 10.7707 51.2 10.7663 53.8334C10.7646 54.8677 12.3852 55.1053 17.7147 54.8522C24.4404 54.5328 24.7311 54.4108 26.6954 51.0815C28.0664 48.7578 29.7148 47.443 31.773 47.0313C34.1323 46.5594 34.6918 46.0161 34.2504 44.6254C33.33 41.7256 36.3819 35.8883 39.9583 33.7074C44.2156 31.1118 48.9317 31.0996 51.2653 33.6782C52.3808 34.9108 53.4923 35.3433 54.1703 34.8085C54.7743 34.3321 56.9267 33.4085 58.9534 32.756C66.172 30.4319 73.3034 34.2394 73.7984 40.6817C74.1577 45.3627 73.7696 46.5276 70.3642 50.9887L66.9595 55.4491L71.8969 56.1041C77.4857 56.8455 78.7689 56.3864 78.7689 53.6455C78.7689 52.5906 79.8764 51.0019 81.2299 50.1151C82.5834 49.2283 83.95 47.6863 84.2667 46.6885C84.5833 45.6908 86.5036 44.0862 88.5338 43.1228C90.5641 42.1594 93.0296 40.3485 94.0127 39.0987C97.8412 34.2315 108.709 33.3884 116.404 37.3617C122.035 40.2694 126.769 46.8636 126.769 51.7987C126.769 57.4525 123.709 62.7847 118.92 65.4757C114.05 68.2131 103.67 68.6984 99.1355 66.4009C97.5588 65.602 94.5943 64.6454 92.5478 64.275C89.0689 63.6453 88.787 63.7829 88.2143 66.3914C87.8773 67.9258 87.4284 69.7438 87.2166 70.4313C86.9547 71.2813 88.062 71.6813 90.6777 71.6813C95.4862 71.6813 97.74 73.8965 95.9111 76.825C95.2305 77.9147 94.9416 79.7907 95.269 80.9938C95.7883 82.902 95.7242 82.9579 94.7668 81.4312C93.3375 79.152 91.6243 79.2203 88.4959 81.6812C84.9923 84.4371 84.3506 84.1903 87.3142 81.2267C88.6642 79.8767 89.7756 78.1892 89.7841 77.4767C89.7953 76.5314 90.0492 76.576 90.7231 77.6415C91.5136 78.8912 91.9439 78.8328 93.7078 77.2365C94.8414 76.2106 95.7688 74.991 95.7688 74.5263C95.7688 73.4813 92.0932 73.3992 91.516 74.4313C91.2853 74.8438 91.2337 74.6188 91.4013 73.9313C91.6712 72.8242 88.872 72.2441 84.0493 72.4076C83.3785 72.4303 82.5304 71.4887 82.1645 70.3151C81.5119 68.2222 80.0055 66.727 78.5188 66.6966C78.1063 66.6881 77.7402 68.1438 77.7054 69.9313C77.6464 72.9541 77.5768 73.0188 76.7101 70.857C75.1063 66.8567 72.3495 68.5037 71.7354 73.8292C71.4421 76.373 70.6158 79.1607 69.8993 80.024C68.3676 81.8695 69.3542 84.0544 71.3699 83.2808C73.1225 82.6083 73.2191 85.2146 71.5188 87.2951C67.0885 92.7159 66.9024 92.8149 64.3219 91.1241C62.3683 89.8441 61.4763 89.7674 59.686 90.7256C56.9114 92.2105 49.658 91.31 46.214 89.0531C44.8169 88.1377 43.0584 85.9158 42.3062 84.1155C39.8955 78.3458 33.7692 77.3447 33.7692 82.7204C33.7692 83.7072 33.2067 84.7061 32.5192 84.9402C31.599 85.2535 31.8401 86.5003 33.4332 89.6659C34.6234 92.031 35.3628 94.577 35.0762 95.3237C34.4997 96.826 26.6373 97.0392 21.0137 95.7047ZM34.0597 95.058C34.4028 94.7149 33.7876 92.6781 32.6926 90.5317C31.5975 88.3853 30.8294 85.6286 30.9854 84.4055C31.4166 81.0255 29.3478 80.8729 28.7211 84.2385L28.173 87.1818L26.4861 84.0106C24.5641 80.3974 20.4001 77.1292 16.4581 76.1398C13.8015 75.4731 12.6615 76.8792 14.7915 78.1955C15.3538 78.5431 17.13 81.4345 18.7385 84.621C20.3471 87.8075 23.0715 91.5997 24.7928 93.0482C27.6805 95.478 32.5776 96.5401 34.0597 95.058ZM21.9657 91.9318C20.8988 90.4193 18.8437 86.8355 17.399 83.9677C13.499 76.2267 7.76935 74.1649 7.76935 80.5025C7.76935 84.7082 11.6399 89.8556 16.7394 92.4315C22.9012 95.5444 24.4122 95.4001 21.9657 91.9318ZM69.7017 85.7407C69.6565 84.7015 69.2722 84.9319 68.5489 86.4319C67.952 87.6694 66.7715 88.6819 65.9255 88.6819C64.6962 88.6819 64.7595 88.4096 66.2407 87.3265C67.5442 86.3733 67.8623 85.4089 67.312 84.0765C66.604 82.3616 66.4178 82.4427 65.3495 84.9318C64.4316 87.0706 63.9026 87.4151 62.9693 86.4818C61.4576 84.9701 61.4175 83.6037 62.8944 83.9318C63.5131 84.0693 64.4816 82.8514 65.0466 81.2253C66.6614 76.5774 64.4219 69.9593 59.5462 64.9713L55.4308 60.7609L58.1588 59.7237C63.0607 57.86 68.4968 57.4365 72.1288 58.6353C75.3772 59.7074 75.641 60.0736 75.1028 62.7647C74.6261 65.1481 74.8089 65.6038 76.0505 65.1273C77.9625 64.3936 83.3326 67.0808 84.6524 69.4317C85.5749 71.0748 85.6794 71.066 86.3646 69.2871C86.8523 68.0209 86.5352 66.9836 85.4086 66.1598C83.8708 65.0354 83.9175 64.8762 85.9399 64.3473C88.1068 63.7807 88.1152 63.7213 86.3083 61.7246C84.903 60.1718 84.7965 59.674 85.8644 59.6499C86.84 59.6278 86.6762 59.1694 85.3283 58.1499C83.1364 56.492 79.6427 56.223 78.2194 57.6025C77.6401 58.1639 75.2301 58.1141 72.0438 57.4748C67.8433 56.632 65.5052 56.7562 60.1248 58.1076C53.5819 59.7511 53.3862 59.7433 51.4018 57.7589L49.3718 55.7289L54.3204 56.2741C66.9994 57.671 77.9184 43.7401 70.1964 36.0181C67.9123 33.734 67.0133 33.4964 62.1743 33.8977C57.9331 34.2494 56.0744 34.9725 53.7928 37.1584C50.255 40.5478 47.7688 45.5133 47.7688 49.1894C47.7688 51.1575 47.3685 51.7417 46.3008 51.3319C43.4496 50.2378 43.652 52.7842 46.6913 56.2458C50.0705 60.0944 50.5709 62.7706 48.2687 64.6812C46.3842 66.2452 44.5036 64.8697 42.755 60.648C42.0791 59.0162 41.1307 57.6812 40.6474 57.6812C39.3278 57.6812 39.5337 58.2479 42.357 62.3868C44.7985 65.966 44.9071 66.6459 44.2719 74.3758C43.4442 84.4478 44.0377 86.4778 48.333 88.2728C54.1239 90.6924 61.172 89.8971 60.042 86.9516C59.6317 85.8824 60.6803 86.2296 63.3551 88.0486C66.9766 90.5114 67.3618 90.5827 68.5185 89.0046C69.206 88.0666 69.7389 86.598 69.7017 85.7407ZM54.0197 53.0197C51.5855 52.0375 52.7008 47.1225 56.3163 42.8987C61.7784 36.5174 69.8993 36.0052 69.6993 42.0546C69.6332 44.0545 69.5837 44.0666 68.8746 42.2568C67.216 38.0234 61.8274 38.7526 57.0626 43.8553C54.3479 46.7628 54.4779 52.3752 57.2482 51.8653C58.2659 51.678 58.7002 51.9846 58.3105 52.6153C57.6207 53.7315 56.1313 53.8718 54.0197 53.0197ZM39.4827 78.1627L42.2699 79.9226L40.1374 77.6974C37.6442 75.0958 34.9403 75.5518 32.8859 78.9204C31.5276 81.1476 31.5459 81.1457 34.1012 78.7922C36.6341 76.4593 36.7615 76.4444 39.4827 78.1627ZM69.4347 79.4315C69.8653 78.744 70.4544 76.1684 70.7437 73.708C71.1375 70.3584 71.8416 68.9501 73.5462 68.1025C75.572 67.0952 75.6506 66.8275 74.2592 65.6729C73.3993 64.9593 72.8248 63.4547 72.9826 62.3296C73.3595 59.643 68.4968 58.5555 62.1546 59.9081L57.5642 60.8872L61.1072 64.5344C65.1564 68.7027 66.7693 72.3237 66.7693 77.2464C66.7693 80.7188 67.9976 81.7256 69.4347 79.4315ZM116.27 65.1275C119.24 63.6786 119.218 63.6686 114.048 64.1222C111.175 64.3742 108.561 64.1531 108.239 63.6308C107.894 63.0728 110.058 62.6812 113.488 62.6812C119.564 62.6812 123.77 60.8171 123.77 58.1245C123.77 57.3307 124.22 56.6812 124.77 56.6812C126.518 56.6812 125.84 49.3072 123.781 45.9312C121.453 42.1123 120.783 41.8287 121.419 44.9312C121.672 46.1687 121.161 45.6207 120.282 43.7135C117.872 38.4849 117.949 38.4984 106.011 41.2107L103.751 41.724L105.638 45.4526C107.567 49.267 110.159 59.6266 109.378 60.4066C109.14 60.645 108.403 58.2168 107.742 55.0107C107.08 51.8046 105.69 47.5102 104.653 45.4676C102.865 41.9483 102.858 41.7056 104.518 40.8337C105.482 40.3277 108.295 39.5682 110.77 39.1459L115.27 38.3782L112.27 37.0749C106.447 34.5453 100.088 35.4826 95.4102 39.5599C93.6238 41.117 93.6635 41.2065 96.4102 41.8131L99.2706 42.4448L96.0545 42.5631C92.5789 42.6909 85.7705 45.54 85.7705 46.8666C85.7705 47.3147 87.008 47.7266 88.5205 47.7818C90.8631 47.8674 90.7062 48.015 87.4608 48.7786C79.212 50.7193 76.9878 54.4486 83.0205 56.2246C84.8211 56.7547 86.7107 58.1848 87.2576 59.4314C87.8005 60.6689 89.0115 61.6814 89.9486 61.6814C90.8857 61.6814 91.9199 62.1142 92.2469 62.6432C92.6212 63.2488 93.7505 63.2593 95.2965 62.6715C97.0306 62.0122 97.681 62.0729 97.5111 62.878C96.7812 66.3364 110.436 67.9737 116.27 65.1275ZM115.085 60.303C115.375 59.5451 115.166 58.4771 114.618 57.9298C113.958 57.2697 114.529 56.7073 116.314 56.2593C117.795 55.8878 119.253 55.8308 119.554 56.1326C119.856 56.4343 119.284 56.6812 118.283 56.6812C116.647 56.6812 116.682 56.8707 118.631 58.5608L120.798 60.4404L118.534 61.0471C115.141 61.9563 114.503 61.8188 115.085 60.303ZM113.176 53.5294C112.784 52.896 113.294 51.771 114.308 51.0294C116.705 49.2767 117.77 49.3233 117.77 51.1811C117.77 52.0061 118.246 52.6811 118.829 52.6811C119.411 52.6811 119.61 53.1311 119.27 53.6811C118.422 55.053 114.05 54.9441 113.176 53.5294ZM116.77 52.6811C116.77 52.1311 116.32 51.6811 115.77 51.6811C115.22 51.6811 114.77 52.1311 114.77 52.6811C114.77 53.2311 115.22 53.6811 115.77 53.6811C116.32 53.6811 116.77 53.2311 116.77 52.6811ZM111.77 48.5079C111.77 48.0532 113.12 47.6811 114.77 47.6811C118.626 47.6811 118.626 48.3284 114.77 48.8944C113.12 49.1366 111.77 48.9627 111.77 48.5079ZM110.77 45.5079C110.77 45.0532 111.943 44.6811 113.377 44.6811C115.322 44.6811 115.833 44.2872 115.388 43.1292C115.047 42.2393 115.214 41.8379 115.781 42.1883C117.788 43.4284 116.681 45.4672 113.77 45.8945C112.12 46.1366 110.77 45.9627 110.77 45.5079ZM23.7698 63.1619C25.6948 62.4647 28.6198 61.4091 30.2698 60.8163C31.9198 60.2235 34.4701 59.5014 35.9372 59.2117C37.6276 58.8779 39.4434 57.3107 40.8946 54.9332C42.1541 52.8698 43.5601 51.0253 44.0189 50.8343C45.5927 50.1793 42.5255 47.6815 40.1473 47.6815C38.0968 47.6815 37.7697 48.1629 37.7697 51.1815C37.7697 57.0318 31.8955 60.9479 28.7697 57.1815C27.9082 56.1435 25.6374 55.6857 21.3973 55.6952C13.9658 55.7118 10.7693 56.4776 10.7693 58.2415C10.7693 58.9712 9.7873 60.2559 8.58715 61.0966C6.40845 62.6226 6.41045 62.6274 9.83715 64.1126C13.4518 65.6793 17.6019 65.396 23.7698 63.1619ZM34.9408 56.0265C36.8607 54.289 37.4383 49.2128 35.8291 48.2183C35.3119 47.8987 33.9064 48.6596 32.7057 49.9093L30.5227 52.1815L31.6813 49.9315C33.1539 47.0716 31.5197 46.9313 28.7695 49.6815C26.4241 52.0269 26.142 54.6815 28.2381 54.6815C29.1971 54.6815 29.4851 54.104 29.0682 53.0175C28.6226 51.8564 28.8039 51.5847 29.6677 52.1187C30.3487 52.5396 30.6487 53.554 30.3344 54.373C29.0625 57.6874 31.9574 58.7265 34.9408 56.0265ZM49.1018 40.9815C51.384 36.6009 51.1974 34.8341 48.3141 33.5204C43.2521 31.214 35.7691 36.9382 35.7691 43.1167C35.7691 46.0698 36.0045 46.2818 39.2834 46.2818C41.2872 46.2818 43.5437 47.0283 44.5334 48.0185C46.1813 49.6674 46.2986 49.6142 46.8518 46.9685C47.1723 45.4358 48.1848 42.7417 49.1018 40.9815ZM83.0178 88.4315C78.0782 85.6978 72.7688 81.1984 72.7688 79.7461C72.7688 77.9903 73.6781 78.5087 76.7649 82.0243C83.2402 89.3993 92.6239 91.6832 94.7489 86.4016C95.4056 84.7695 95.659 84.63 95.7056 85.8749C95.7832 87.948 92.0856 90.6816 89.2038 90.6816C88.0377 90.6816 85.2539 89.669 83.0178 88.4315ZM79.2178 81.2136C78.4208 79.3063 77.8044 76.7188 77.8478 75.4636C77.9373 72.8751 78.2173 73.4536 79.7348 79.362C80.3771 81.8632 81.5035 83.7247 82.5387 83.996C84.1197 84.4104 84.1135 84.4596 82.4678 84.5656C81.3023 84.6406 80.1555 83.4578 79.2178 81.2136ZM73.5022 72.5574C74.1805 71.874 74.9874 71.5668 75.2953 71.8747C75.6031 72.1826 75.0481 72.7417 74.062 73.1173C72.6368 73.6599 72.5219 73.5451 73.5022 72.5574Z" fill="#5C5D57"/>
<path d="M21.8411 95.5932C19.4055 95.1154 16.9305 94.2364 16.3411 93.6399C15.571 92.8605 16.0616 92.8544 18.0845 93.6182C21.9272 95.0691 24.0773 94.9892 23.1171 93.4311C22.6726 92.7098 23.4054 92.8734 24.8498 93.8177C26.2265 94.7178 28.234 95.6781 29.3111 95.9517C32.8034 96.8388 26.6965 96.5457 21.8411 95.5932ZM32.0401 96.0769C32.3724 95.7446 33.2349 95.7091 33.9568 95.998C34.7545 96.3172 34.5176 96.5542 33.3526 96.6021C32.2984 96.6456 31.7078 96.4092 32.0401 96.0769ZM11.2691 89.6811C9.68828 88.0311 8.61988 86.6811 8.89488 86.6811C9.16988 86.6811 10.6883 88.0311 12.2691 89.6811C13.8499 91.3311 14.9183 92.6811 14.6433 92.6811C14.3683 92.6811 12.8499 91.3311 11.2691 89.6811ZM64.3401 90.7953C64.039 90.3081 60.7966 90.15 57.1348 90.444C49.8827 91.0261 44.3558 89.1051 43.2488 85.6174C42.2516 82.4756 38.6776 78.6811 36.7155 78.6811C35.4693 78.6811 34.5685 79.6318 34.1194 81.4212C33.4228 84.1966 30.769 87.6741 30.769 85.8115C30.769 85.2546 31.2408 84.5075 31.8176 84.151C33.2697 83.2535 30.9073 80.499 29.4057 81.3387C28.7805 81.6883 28.8877 81.3459 29.644 80.5777C30.798 79.4055 31.0988 79.4003 31.5154 80.5451C31.8652 81.5064 32.685 81.065 34.2913 79.0505C36.4784 76.3077 36.6491 76.2625 38.4986 77.9363C41.1487 80.3346 42.4948 80.1405 40.2689 77.681C38.0412 75.2194 36.0597 75.1478 33.3476 77.431C31.271 79.1792 31.2708 79.1787 33.1738 76.931C35.3764 74.3294 37.9859 74.0327 39.7688 76.181C41.4125 78.1615 42.5246 78.0769 43.0535 75.931C43.2908 74.9685 43.4715 76.5662 43.4551 79.4815C43.4324 83.5265 43.9133 85.2699 45.4851 86.8417C47.7365 89.0931 54.942 90.3563 59.2971 89.2631C61.6239 88.6791 61.7826 88.3927 60.6066 86.9003C59.8706 85.9662 60.7654 86.4347 62.5951 87.9415C66.3664 91.0471 66.8735 91.1723 68.6276 89.431C69.6373 88.4288 69.7548 88.5278 69.2206 89.931C68.5257 91.7565 65.2874 92.3298 64.3389 90.7952L64.3401 90.7953ZM88.0401 90.0769C88.3724 89.7446 89.2349 89.7091 89.9568 89.998C90.7545 90.3172 90.5176 90.5542 89.3526 90.6021C88.2984 90.6456 87.7078 90.4092 88.0401 90.0769ZM63.4461 86.8767C61.6393 84.8802 61.1814 83.1999 62.7 84.1384C63.9942 84.9383 65.0828 82.8851 65.8589 78.1811L66.5188 74.1811L66.6439 78.0861L66.7691 81.9911L71.2691 78.1811L69.4069 80.3839C67.5662 82.5612 67.5748 82.5942 70.1569 83.2423C73.0136 83.9593 73.6488 86.1296 71.2691 87.0427C70.2156 87.447 69.7647 86.958 69.7544 85.3997C69.7399 83.2153 69.7206 83.2185 68.5044 85.6021C66.8794 88.787 65.4915 89.1367 63.4461 86.8767ZM67.2746 86.6722C67.6175 86.1173 67.5949 84.7078 67.2243 83.5401C66.6946 81.8712 66.3631 81.7126 65.6751 82.799C64.5095 84.6395 64.5313 87.6811 65.7101 87.6811C66.2276 87.6811 66.9317 87.2271 67.2746 86.6722ZM80.2686 86.812C77.1171 84.8563 72.3399 79.7765 73.0161 79.1003C73.2336 78.8828 75.7404 80.9495 78.5868 83.693C81.4331 86.4365 83.651 88.6795 83.5153 88.6775C83.3796 88.6754 81.9186 87.8359 80.2686 86.812ZM27.1046 84.8478C26.1984 83.3968 26.2525 83.0145 27.364 83.0145C28.1364 83.0145 28.7684 83.8395 28.7684 84.8478C28.7684 85.8561 28.6517 86.6811 28.509 86.6811C28.3663 86.6811 27.7343 85.8561 27.1046 84.8478ZM6.89958 81.1311C6.66355 75.6625 10.8169 73.9011 14.4449 77.9311C17.8707 81.7365 18.3255 83.3894 14.9737 79.8528C11.0161 75.6771 8.48721 75.967 7.64961 80.6924C7.03407 84.1652 7.03062 84.1673 6.89958 81.1311ZM88.4166 79.9698C89.3767 78.436 90.2744 77.0177 90.4114 76.8181C90.5483 76.6184 90.5926 77.3551 90.5097 78.4551C90.4269 79.5551 89.5292 80.9734 88.5149 81.6068C86.7372 82.717 86.7337 82.658 88.4166 79.9698ZM24.2176 80.6C23.8501 80.0055 22.1361 78.6571 20.4086 77.6037C18.6811 76.5503 17.8231 75.6868 18.5019 75.6848C19.7816 75.6809 26.7995 81.5999 25.5767 81.6517C25.1966 81.6679 24.585 81.1946 24.2176 80.6ZM93.5386 80.3042C91.9329 79.0848 91.9986 78.819 94.4582 76.586L97.1071 74.1811L95.466 76.6129C94.2525 78.4111 94.1099 79.3882 94.9188 80.3629C96.2956 82.0219 95.771 81.9995 93.5386 80.3042ZM70.8466 73.9901C70.8032 71.6851 71.1236 69.5791 71.5586 69.3102C71.9937 69.0413 72.1861 70.4773 71.9862 72.5012C71.4395 78.0354 70.9352 78.6943 70.8466 73.9901ZM77.8466 76.2644C77.8032 75.2102 78.0395 74.6196 78.3718 74.9519C78.7041 75.2842 78.7396 76.1467 78.4508 76.8686C78.1315 77.6663 77.8946 77.4293 77.8466 76.2644ZM43.7676 70.0854C43.7676 66.379 41.1303 60.7624 39.302 60.5751C38.7331 60.5168 37.1426 60.4492 35.7676 60.4248C33.4975 60.3846 33.4731 60.3424 35.5021 59.9659C36.7311 59.7378 39.1699 57.5554 40.9216 55.1161C44.4975 50.1367 44.7833 49.9049 44.0934 52.5431C43.8059 53.6424 44.2325 54.6454 45.1347 54.9917C47.1404 55.7613 50.0621 61.4712 49.3713 63.2713C48.3571 65.9142 45.1914 64.7931 43.469 61.181C42.551 59.256 41.3427 57.681 40.7838 57.681C39.3223 57.681 39.4794 58.1675 42.2676 62.2761C43.8664 64.632 44.7676 67.3517 44.7676 69.8205C44.7676 71.9437 44.5426 73.681 44.2676 73.681C43.9926 73.681 43.7676 72.063 43.7676 70.0854ZM64.3746 71.2525C64.0265 69.8655 61.8568 66.9196 59.5531 64.7059C57.2494 62.4922 55.6433 60.6811 55.9841 60.6811C56.3249 60.6811 57.4281 60.4136 58.4355 60.0867C59.8777 59.6188 59.9642 59.7076 58.8422 60.504C57.6751 61.3324 57.9684 61.9795 60.4625 64.0781C63.4341 66.5786 66.5495 72.2322 65.522 73.2598C65.239 73.5428 64.7227 72.6395 64.3746 71.2525ZM89.7676 72.8953C86.2643 72.4786 82.7841 70.5805 81.655 68.4707C80.3617 66.0542 81.2554 66.2149 83.6996 68.8385C85.4923 70.7628 85.7788 70.8154 86.3504 69.3258C86.7029 68.4072 86.4358 66.9864 85.757 66.1684C84.7508 64.956 84.8225 64.6811 86.1451 64.6811C88.2272 64.6811 88.1946 63.8268 86.0175 61.3379C85.055 60.2376 84.83 59.6662 85.5175 60.0682C87.1335 61.0131 87.1335 59.4753 85.5175 57.7344C84.5127 56.6519 84.5249 56.5336 85.5792 57.1315C86.3006 57.5406 87.3123 58.9837 87.8273 60.3384C88.3423 61.6931 89.1835 62.542 89.6965 62.2249C90.2095 61.9078 90.8803 62.0546 91.1871 62.551C91.4939 63.0475 90.85 63.6877 89.7562 63.9737C88.6026 64.2754 87.7674 65.3386 87.7674 66.5056C87.7674 67.6121 87.4943 69.2292 87.1604 70.0992C86.6685 71.381 87.321 71.681 90.6014 71.681C92.8278 71.681 94.8679 72.0346 95.135 72.4668C95.638 73.2807 94.0645 73.4064 89.7676 72.8953ZM76.7286 68.6811C76.62 67.8561 76.5956 66.8102 76.6744 66.3568C76.7532 65.9034 76.3876 65.7982 75.8619 66.1231C75.3363 66.4479 74.6619 66.3184 74.3633 65.8352C73.8933 65.0747 75.2831 64.9992 79.2681 65.5688C79.8707 65.6549 79.8309 66.0037 79.1681 66.4464C78.563 66.8505 77.8111 67.8561 77.497 68.6811C76.9894 70.0144 76.904 70.0144 76.7286 68.6811ZM108.768 66.7453C112.893 66.3966 116.943 65.7081 117.768 65.2152C120.519 63.5711 123.733 60.1959 123.75 58.9311C123.76 58.2436 124.233 57.6811 124.803 57.6811C126.215 57.6811 124.576 60.5983 121.609 63.3645C118.153 66.5871 114.374 67.6991 107.452 67.5302L101.267 67.3792L108.768 66.7453ZM13.5176 66.0188C14.2051 65.7414 15.3301 65.7414 16.0176 66.0188C16.7051 66.2962 16.1426 66.5232 14.7676 66.5232C13.3926 66.5232 12.8301 66.2962 13.5176 66.0188ZM7.53698 64.6118C4.69698 62.9569 0.767578 55.2964 0.767578 51.4148C0.767578 48.1342 2.77598 44.6812 4.68398 44.6812C6.19918 44.6812 8.87908 48.5013 9.86248 52.0629C10.412 54.053 11.3081 55.6812 11.854 55.6812C12.8529 55.6812 11.7772 57.247 8.48738 60.5817C6.62888 62.4655 7.25358 63.667 10.7676 64.968C12.1009 65.4616 12.1009 65.5287 10.7676 65.5718C9.94258 65.5985 8.48878 65.1664 7.53698 64.6118ZM5.58098 52.5078C5.2224 48.8769 3.23298 47.6391 2.32978 50.4849C1.52911 53.0076 2.61373 55.6808 4.43798 55.6808C5.47298 55.6808 5.80368 54.7627 5.58098 52.5078ZM22.268 63.8008C30.9401 60.6534 31.3925 60.5796 26.268 63.1485C23.518 64.5271 20.368 65.6461 19.268 65.6352C18.168 65.6243 19.518 64.7989 22.268 63.8008ZM92.851 64.3162C93.0802 64.1157 94.27 63.4303 95.4952 62.7931C97.3674 61.8193 97.6295 61.8775 97.1382 63.1576C96.8167 63.9954 95.6269 64.6807 94.494 64.6807C93.3612 64.6807 92.6218 64.5167 92.851 64.3162ZM114.018 62.9914C114.98 62.7399 116.555 62.7399 117.518 62.9914C118.48 63.2429 117.693 63.4487 115.768 63.4487C113.843 63.4487 113.055 63.2429 114.018 62.9914ZM73.768 60.7397C73.768 60.1572 74.218 59.6807 74.768 59.6807C76.0494 59.6807 76.0494 60.3888 74.768 61.1807C74.218 61.5206 73.768 61.3222 73.768 60.7397ZM115.147 60.1356C115.403 59.4695 115.107 58.4195 114.49 57.8025C113.661 56.9734 113.663 56.6806 114.497 56.6806C115.117 56.6806 116.228 57.2833 116.965 58.0199C117.701 58.7566 118.971 59.5854 119.786 59.8618C120.601 60.1383 119.786 60.5855 117.975 60.8557C115.656 61.2016 114.82 60.9887 115.147 60.1356ZM51.374 57.798C49.7252 55.9761 49.8151 55.9317 54.1595 56.4213C56.6286 56.6996 59.7923 56.6403 61.19 56.2896C64.6354 55.4248 70.7634 49.8963 72.374 46.1996C73.0974 44.5394 73.7069 43.8811 73.7284 44.7367C73.7758 46.6198 69.3983 52.7319 66.9975 54.1349C65.5405 54.9863 65.8198 55.2462 68.7676 55.7818L72.2676 56.4177L68.2676 56.5612C66.0676 56.6401 61.7926 57.369 58.7676 58.181C55.7426 58.993 53.2248 59.6626 53.1726 59.6691C53.1203 59.6756 52.3111 58.8335 51.374 57.798ZM61.0386 59.0765C61.3709 58.7442 62.2334 58.7087 62.9553 58.9976C63.753 59.3168 63.5161 59.5538 62.3511 59.6018C61.2969 59.6452 60.7063 59.4088 61.0386 59.0765ZM70.0386 59.0765C70.3709 58.7442 71.2334 58.7087 71.9553 58.9976C72.753 59.3168 72.5161 59.5538 71.3511 59.6018C70.2969 59.6452 69.7063 59.4088 70.0386 59.0765ZM29.6406 56.9307C28.3711 55.3119 28.4181 55.2907 30.2681 56.6478C31.3681 57.4546 32.4556 58.2422 32.6848 58.3978C32.914 58.5534 32.6316 58.6807 32.0573 58.6807C31.483 58.6807 30.3955 57.8932 29.6406 56.9307ZM34.079 55.3797C34.0201 54.1702 34.1895 53.746 34.4554 54.437C34.7213 55.1279 35.3505 55.4389 35.8535 55.1279C37.2271 54.279 36.9534 55.2821 35.4771 56.5073C34.4916 57.3252 34.1607 57.0583 34.079 55.3797ZM76.268 56.6233C81.3336 55.5755 85.4266 55.6225 81.268 56.6807C79.618 57.1006 76.918 57.4456 75.268 57.4474C72.7457 57.4502 72.9049 57.319 76.268 56.6233ZM107.847 55.264C107.804 54.2098 108.04 53.6192 108.372 53.9515C108.704 54.2838 108.74 55.1463 108.451 55.8682C108.132 56.666 107.895 56.429 107.847 55.264ZM19.518 54.9403C24.0242 54.6843 25.768 54.1965 25.768 53.192C25.768 52.4257 26.1055 51.5901 26.518 51.3352C26.9305 51.0803 27.268 51.9537 27.268 53.2762C27.268 55.6049 27.0473 55.6746 20.268 55.488L13.268 55.2953L19.518 54.9403ZM126.018 52.1807C126.007 49.9807 126.203 48.963 126.453 49.919C126.703 50.8751 126.712 52.6751 126.473 53.919C126.234 55.1629 126.029 54.3807 126.018 52.1807ZM113.432 54.014C112.192 52.7738 112.756 51.6199 115.015 50.773C116.704 50.1401 117.421 50.3351 117.89 51.5552C118.234 52.4492 118.32 53.5181 118.081 53.9306C117.543 54.86 114.336 54.9176 113.432 54.014ZM116.765 52.6807C116.765 52.1307 116.342 51.6807 115.824 51.6807C115.307 51.6807 114.605 52.1307 114.265 52.6807C113.925 53.2307 114.349 53.6807 115.206 53.6807C116.064 53.6807 116.765 53.2307 116.765 52.6807ZM36.7653 50.7397C36.7653 48.1037 35.0296 47.2232 33.0295 48.8446C31.8543 49.7973 31.5968 49.822 32.1323 48.9307C33.0497 47.4037 32.3172 47.3505 29.4495 48.7359C27.3395 49.7552 27.3313 49.7382 29.2064 48.2359C30.274 47.3805 31.9615 46.6807 32.9564 46.6807C33.9512 46.6807 34.7653 46.2129 34.7653 45.6413C34.7653 45.012 35.2785 45.0813 36.066 45.8169C37.3224 46.9906 38.3298 52.6807 37.2812 52.6807C36.9974 52.6807 36.7653 51.8073 36.7653 50.7397ZM53.2903 51.3001C51.829 48.0248 58.3691 38.6811 62.1228 38.6811C62.721 38.6811 62.0978 39.446 60.7379 40.3809C57.1995 42.8135 55.3487 45.6621 54.6973 49.6785C54.2261 52.5835 53.9862 52.8598 53.2903 51.3001ZM45.7654 50.6324C45.7654 50.0559 44.3029 48.9485 42.5154 48.1715C40.7279 47.3945 39.9528 46.7413 40.7929 46.7198C41.633 46.6983 43.2888 47.359 44.4724 48.188C46.4734 49.5896 46.6549 49.5369 47.0587 47.438C47.3745 45.7967 47.5302 46.0677 47.6292 48.4307C47.7041 50.2182 47.3154 51.6807 46.7654 51.6807C46.2154 51.6807 45.7654 51.209 45.7654 50.6324ZM84.0504 47.2355C86.5915 44.7303 89.2786 42.6806 90.0217 42.6806C90.7648 42.6806 92.8993 41.1056 94.7651 39.1806C96.6309 37.2556 98.5537 35.6806 99.038 35.6806C99.5223 35.6806 98.515 36.8616 96.7996 38.305C95.0842 39.7484 93.9384 41.1872 94.2535 41.5022C94.5685 41.8173 92.9001 42.7817 90.5457 43.6455C88.1354 44.5298 85.8461 46.1628 85.3061 47.383C84.7786 48.5748 83.2408 50.054 81.8887 50.6701C80.1338 51.4697 80.7524 50.4869 84.0504 47.2355ZM106.844 50.264C106.801 49.2098 107.037 48.6192 107.37 48.9515C107.702 49.2838 107.737 50.1463 107.449 50.8682C107.129 51.666 106.892 51.429 106.844 50.264ZM87.5154 48.0184C88.2029 47.741 89.3279 47.741 90.0154 48.0184C90.7029 48.2958 90.1404 48.5228 88.7654 48.5228C87.3904 48.5228 86.8279 48.2958 87.5154 48.0184ZM113.515 48.0184C114.203 47.741 115.328 47.741 116.015 48.0184C116.703 48.2958 116.14 48.5228 114.765 48.5228C113.39 48.5228 112.828 48.2958 113.515 48.0184ZM105.224 46.6142C104.862 46.0276 104.78 45.3332 105.042 45.0711C105.304 44.809 105.785 45.2889 106.111 46.1376C106.787 47.8997 106.21 48.2097 105.224 46.6142ZM113.592 44.965C115.142 44.6695 115.73 44.0305 115.353 43.0492C115.036 42.222 115.222 41.8446 115.777 42.1878C117.901 43.5003 116.757 45.6803 114.016 45.5445C111.546 45.4222 111.503 45.3632 113.592 44.965ZM122.533 43.6808C121.846 42.5808 120.91 41.6808 120.453 41.6808C119.997 41.6808 118.947 41.0054 118.122 40.1799C117.198 39.2564 115.591 38.8776 113.943 39.1953C111.734 39.6211 111.616 39.5521 113.265 38.8012C115.182 37.9288 115.161 37.8475 112.765 36.8492C111.39 36.2763 110.85 35.7791 111.565 35.7442C114.638 35.5943 122.078 40.5285 123.893 43.9196C125.19 46.3434 124.074 46.1473 122.533 43.6808ZM47.7694 44.2989C47.7673 43.8138 48.6523 41.9823 49.7359 40.229C51.5299 37.3262 51.5696 36.846 50.1792 34.861C49.214 33.483 47.5975 32.6809 45.7857 32.6809C42.6276 32.6809 37.0789 36.7763 35.7347 40.0993C35.1159 41.629 34.8758 41.7477 34.8292 40.5472C34.7943 39.6487 36.5671 37.2862 38.7687 35.2972C43.3962 31.1166 47.637 30.552 50.7827 33.6978C52.6555 35.5706 53.0093 35.6063 55.733 34.1978C57.3464 33.3635 60.8603 32.6809 63.5418 32.6809C67.565 32.6809 68.8409 33.1506 70.8415 35.3687L73.2658 38.0565L70.3809 35.8687C66.0771 32.6048 58.9159 32.8421 54.7019 36.3882C52.9323 37.8773 50.6494 40.4648 49.6289 42.1382C48.6084 43.8116 47.7715 44.7839 47.7694 44.2989ZM68.3944 41.1568C68.0727 40.3185 66.7871 39.2221 65.5374 38.7202C63.9265 38.0732 63.7538 37.7891 64.9438 37.7442C66.7287 37.6768 69.7652 40.2011 69.7652 41.7522C69.7652 43.1708 69.0476 42.8591 68.3944 41.1568ZM72.9231 40.6808C72.9231 39.3058 73.15 38.7433 73.4275 39.4308C73.7049 40.1183 73.7049 41.2433 73.4275 41.9308C73.1501 42.6183 72.9231 42.0558 72.9231 40.6808ZM107.036 40.0766C107.368 39.7443 108.231 39.7088 108.953 39.9977C109.751 40.3169 109.514 40.5538 108.349 40.6018C107.294 40.6452 106.704 40.4089 107.036 40.0766ZM103.004 34.9937C103.96 34.7434 105.76 34.7343 107.004 34.9735C108.247 35.2127 107.465 35.4175 105.265 35.4286C103.065 35.4397 102.047 35.244 103.004 34.9937Z" fill="#CC000D"/>
<path d="M21.8411 95.5932C19.4055 95.1154 16.9305 94.2364 16.3411 93.6399C15.571 92.8605 16.0616 92.8544 18.0845 93.6182C21.9272 95.0691 24.0773 94.9892 23.1171 93.4311C22.6726 92.7098 23.4054 92.8733 24.8498 93.8177C26.2265 94.7178 28.234 95.6781 29.3111 95.9517C32.8034 96.8388 26.6965 96.5457 21.8411 95.5932ZM32.0401 96.0769C32.3724 95.7446 33.2349 95.7091 33.9568 95.998C34.7545 96.3172 34.5176 96.5541 33.3526 96.6021C32.2984 96.6455 31.7078 96.4092 32.0401 96.0769ZM11.2691 89.6811C9.68828 88.0311 8.61988 86.6811 8.89488 86.6811C9.16988 86.6811 10.6883 88.0311 12.2691 89.6811C13.8499 91.3311 14.9183 92.6811 14.6433 92.6811C14.3683 92.6811 12.8499 91.3311 11.2691 89.6811ZM64.3401 90.7953C64.039 90.3081 60.7966 90.15 57.1348 90.444C49.8827 91.0261 44.3558 89.1051 43.2488 85.6174C42.2516 82.4756 38.6776 78.6811 36.7155 78.6811C35.4693 78.6811 34.5685 79.6318 34.1194 81.4212C33.4228 84.1965 30.769 87.674 30.769 85.8115C30.769 85.2546 31.2408 84.5075 31.8176 84.151C33.2697 83.2535 30.9073 80.499 29.4057 81.3387C28.7805 81.6883 28.8877 81.3459 29.644 80.5776C30.798 79.4054 31.0988 79.4002 31.5154 80.5451C31.8652 81.5064 32.685 81.065 34.2913 79.0505C36.4784 76.3077 36.6491 76.2625 38.4986 77.9363C41.1487 80.3346 42.4948 80.1405 40.2689 77.681C38.0412 75.2193 36.0597 75.1478 33.3476 77.431C31.271 79.1791 31.2708 79.1786 33.1738 76.931C35.3764 74.3293 37.9859 74.0326 39.7688 76.181C41.4125 78.1614 42.5246 78.0769 43.0535 75.931C43.2908 74.9684 43.4715 76.5662 43.4551 79.4815C43.4324 83.5265 43.9133 85.2699 45.4851 86.8417C47.7365 89.0931 54.942 90.3563 59.2971 89.2631C61.6239 88.6791 61.7826 88.3926 60.6066 86.9003C59.8706 85.9662 60.7654 86.4347 62.5951 87.9415C66.3664 91.0471 66.8735 91.1722 68.6276 89.431C69.6373 88.4287 69.7548 88.5278 69.2206 89.931C68.5257 91.7565 65.2874 92.3298 64.3389 90.7952L64.3401 90.7953ZM88.0401 90.0769C88.3724 89.7446 89.2349 89.7091 89.9568 89.998C90.7545 90.3172 90.5176 90.5541 89.3526 90.6021C88.2984 90.6455 87.7078 90.4092 88.0401 90.0769ZM63.4461 86.8767C61.6393 84.8802 61.1814 83.1999 62.7 84.1384C63.9942 84.9383 65.0828 82.8851 65.8589 78.1811L66.5188 74.1811L66.6439 78.0861L66.7691 81.9911L71.2691 78.1811L69.4069 80.3839C67.5662 82.5612 67.5748 82.5942 70.1569 83.2423C73.0136 83.9593 73.6488 86.1296 71.2691 87.0427C70.2156 87.447 69.7647 86.958 69.7544 85.3997C69.7399 83.2153 69.7206 83.2185 68.5044 85.6021C66.8794 88.787 65.4915 89.1367 63.4461 86.8767ZM67.2746 86.6722C67.6175 86.1173 67.5949 84.7078 67.2243 83.5401C66.6946 81.8712 66.3631 81.7126 65.6751 82.799C64.5095 84.6395 64.5313 87.6811 65.7101 87.6811C66.2276 87.6811 66.9317 87.227 67.2746 86.6722ZM80.2686 86.812C77.1171 84.8563 72.3399 79.7765 73.0161 79.1003C73.2336 78.8828 75.7404 80.9495 78.5868 83.693C81.4331 86.4365 83.651 88.6795 83.5153 88.6775C83.3796 88.6754 81.9186 87.8359 80.2686 86.812ZM27.1046 84.8478C26.1984 83.3968 26.2525 83.0145 27.364 83.0145C28.1364 83.0145 28.7684 83.8395 28.7684 84.8478C28.7684 85.8561 28.6517 86.6811 28.509 86.6811C28.3663 86.6811 27.7343 85.8561 27.1046 84.8478ZM6.89958 81.1311C6.66355 75.6625 10.8169 73.9011 14.4449 77.9311C17.8707 81.7365 18.3255 83.3894 14.9737 79.8528C11.0161 75.6771 8.48721 75.967 7.64961 80.6924C7.03407 84.1652 7.03062 84.1672 6.89958 81.1311ZM88.4166 79.9698C89.3767 78.436 90.2744 77.0177 90.4114 76.8181C90.5483 76.6184 90.5926 77.3551 90.5097 78.4551C90.4269 79.5551 89.5292 80.9734 88.5149 81.6068C86.7372 82.717 86.7337 82.658 88.4166 79.9698ZM24.2176 80.6C23.8501 80.0054 22.1361 78.6571 20.4086 77.6037C18.6811 76.5503 17.8231 75.6868 18.5019 75.6848C19.7816 75.6809 26.7995 81.5999 25.5767 81.6517C25.1966 81.6678 24.585 81.1946 24.2176 80.6ZM93.5386 80.3042C91.9329 79.0848 91.9986 78.819 94.4582 76.586L97.1071 74.1811L95.466 76.6129C94.2525 78.411 94.1099 79.3881 94.9188 80.3629C96.2956 82.0219 95.771 81.9995 93.5386 80.3042ZM70.8466 73.9901C70.8032 71.6851 71.1236 69.5791 71.5586 69.3102C71.9937 69.0413 72.1861 70.4773 71.9862 72.5012C71.4395 78.0354 70.9352 78.6943 70.8466 73.9901ZM77.8466 76.2644C77.8032 75.2102 78.0395 74.6196 78.3718 74.9519C78.7041 75.2841 78.7396 76.1467 78.4508 76.8686C78.1315 77.6663 77.8946 77.4293 77.8466 76.2644ZM43.7676 70.0854C43.7676 66.379 41.1303 60.7624 39.302 60.5751C38.7331 60.5168 37.1426 60.4492 35.7676 60.4248C33.4975 60.3846 33.4731 60.3424 35.5021 59.9658C36.7311 59.7378 39.1699 57.5553 40.9216 55.116C44.279 50.4409 45.077 49.7111 44.1283 52.1833C43.8112 53.0096 44.3973 54.4721 45.4308 55.4333C46.4643 56.3946 46.8728 56.8435 46.3387 56.431C44.8059 55.2473 43.5792 55.5565 44.3552 56.931C44.9197 57.931 44.7915 57.931 43.7142 56.931C41.8046 55.1586 40.2694 55.3759 41.7865 57.2039C42.8433 58.4772 42.7814 58.6236 41.4089 58.0969C39.1884 57.2448 39.3339 57.9533 42.2675 62.2761C43.8663 64.632 44.7675 67.3517 44.7675 69.8205C44.7675 71.9437 44.5425 73.681 44.2675 73.681C43.9925 73.681 43.7676 72.063 43.7676 70.0854ZM64.3746 71.2525C64.0265 69.8655 61.8568 66.9196 59.5531 64.7059C57.2494 62.4922 55.6433 60.6811 55.9841 60.6811C56.3249 60.6811 57.4281 60.4136 58.4355 60.0867C59.8777 59.6188 59.9642 59.7075 58.8422 60.504C57.6751 61.3324 57.9684 61.9795 60.4625 64.0781C63.4341 66.5786 66.5495 72.2322 65.522 73.2598C65.239 73.5427 64.7227 72.6395 64.3746 71.2525ZM89.7676 72.8953C86.2643 72.4786 82.7841 70.5805 81.655 68.4707C80.3617 66.0542 81.2554 66.2149 83.6996 68.8385C85.4923 70.7628 85.7788 70.8154 86.3504 69.3257C86.7029 68.4072 86.4358 66.9863 85.757 66.1683C84.7508 64.9559 84.8225 64.681 86.1451 64.681C88.2272 64.681 88.1946 63.8268 86.0175 61.3378C85.055 60.2375 84.83 59.6661 85.5175 60.0681C87.1335 61.0131 87.1335 59.4753 85.5175 57.7343C84.5127 56.6518 84.5249 56.5335 85.5792 57.1315C86.3006 57.5406 87.3123 58.9837 87.8273 60.3384C88.3423 61.6931 89.1835 62.542 89.6965 62.2249C90.2095 61.9078 90.8803 62.0546 91.1871 62.551C91.4939 63.0475 90.85 63.6877 89.7562 63.9737C88.6026 64.2754 87.7674 65.3386 87.7674 66.5056C87.7674 67.6121 87.4943 69.2292 87.1604 70.0992C86.6685 71.381 87.321 71.681 90.6014 71.681C92.8278 71.681 94.8679 72.0346 95.135 72.4667C95.638 73.2807 94.0645 73.4063 89.7676 72.8953ZM76.7286 68.6811C76.62 67.8561 76.5956 66.8102 76.6744 66.3568C76.7532 65.9034 76.3876 65.7982 75.8619 66.1231C75.3363 66.4479 74.6619 66.3184 74.3633 65.8352C73.8933 65.0747 75.2831 64.9992 79.2681 65.5688C79.8707 65.6549 79.8309 66.0037 79.1681 66.4464C78.563 66.8505 77.8111 67.8561 77.497 68.6811C76.9894 70.0144 76.904 70.0144 76.7286 68.6811ZM108.768 66.7453C112.893 66.3966 116.943 65.7081 117.768 65.2152C120.519 63.5711 123.733 60.1959 123.75 58.9311C123.76 58.2436 124.233 57.6811 124.803 57.6811C126.215 57.6811 124.576 60.5983 121.609 63.3645C118.153 66.5871 114.374 67.6991 107.452 67.5302L101.267 67.3792L108.768 66.7453ZM13.5176 66.0188C14.2051 65.7413 15.3301 65.7413 16.0176 66.0188C16.7051 66.2962 16.1426 66.5231 14.7676 66.5231C13.3926 66.5231 12.8301 66.2962 13.5176 66.0188ZM7.53698 64.6118C4.69698 62.9569 0.767578 55.2964 0.767578 51.4148C0.767578 48.1342 2.77598 44.6812 4.68398 44.6812C6.19918 44.6812 8.87908 48.5013 9.86248 52.0629C10.412 54.053 11.3081 55.6812 11.854 55.6812C12.8529 55.6812 11.7772 57.247 8.48738 60.5817C6.62888 62.4655 7.25358 63.667 10.7676 64.968C12.1009 65.4616 12.1009 65.5287 10.7676 65.5718C9.94258 65.5985 8.48878 65.1664 7.53698 64.6118ZM5.58098 52.5078C5.2224 48.8769 3.23298 47.6391 2.32978 50.4849C1.52911 53.0076 2.61373 55.6808 4.43798 55.6808C5.47298 55.6808 5.80368 54.7627 5.58098 52.5078ZM22.268 63.8008C30.9401 60.6534 31.3925 60.5796 26.268 63.1485C23.518 64.5271 20.368 65.6461 19.268 65.6352C18.168 65.6243 19.518 64.7989 22.268 63.8008ZM43.95 62.1808C43.3235 60.8058 42.9745 59.6808 43.1745 59.6808C43.3744 59.6808 44.2752 60.8058 45.1761 62.1808C46.077 63.5558 46.426 64.6808 45.9516 64.6808C45.4772 64.6808 44.5765 63.5558 43.95 62.1808ZM48.4993 62.6006C48.8529 61.2484 49.3062 60.7951 49.5559 61.544C49.7964 62.2654 49.5177 63.3312 48.9366 63.9123C48.1945 64.6544 48.0643 64.2639 48.4993 62.6006ZM92.8513 64.3162C93.0805 64.1157 94.2703 63.4303 95.4955 62.7931C97.3677 61.8193 97.6298 61.8775 97.1385 63.1576C96.817 63.9954 95.6272 64.6807 94.4943 64.6807C93.3615 64.6807 92.6221 64.5167 92.8513 64.3162ZM114.018 62.9914C114.981 62.7399 116.556 62.7399 117.518 62.9914C118.481 63.2429 117.693 63.4487 115.768 63.4487C113.843 63.4487 113.056 63.2429 114.018 62.9914ZM73.7683 60.7397C73.7683 60.1572 74.2183 59.6807 74.7683 59.6807C76.0497 59.6807 76.0497 60.3888 74.7683 61.1807C74.2183 61.5206 73.7683 61.3222 73.7683 60.7397ZM115.147 60.1356C115.403 59.4695 114.993 58.3051 114.376 57.6881C113.547 56.859 113.434 56.4518 114.268 56.4518C114.889 56.4518 116.228 57.2834 116.965 58.02C117.701 58.7567 118.971 59.5855 119.786 59.8619C120.601 60.1384 119.786 60.5856 117.975 60.8558C115.656 61.2017 114.82 60.9887 115.147 60.1356ZM51.3743 57.798C49.7255 55.9761 49.8154 55.9317 54.1598 56.4213C56.6289 56.6996 59.7926 56.6403 61.1903 56.2896C64.6357 55.4248 70.7637 49.8963 72.3743 46.1996C73.0977 44.5394 73.7072 43.8811 73.7287 44.7367C73.7761 46.6198 69.3986 52.7319 66.9978 54.1349C65.5408 54.9863 65.8201 55.2462 68.7679 55.7818L72.2679 56.4177L68.2679 56.5612C66.0679 56.6401 61.7929 57.369 58.7679 58.181C55.7429 58.993 53.2251 59.6626 53.1729 59.6691C53.1206 59.6756 52.3114 58.8335 51.3743 57.798ZM61.0389 59.0765C61.3712 58.7443 62.2337 58.7087 62.9556 58.9976C63.7533 59.3168 63.5164 59.5538 62.3514 59.6018C61.2972 59.6452 60.7066 59.4088 61.0389 59.0765ZM70.0389 59.0765C70.3712 58.7443 71.2337 58.7087 71.9556 58.9976C72.7533 59.3168 72.5164 59.5538 71.3514 59.6018C70.2972 59.6452 69.7066 59.4088 70.0389 59.0765ZM29.6409 56.9307C28.3714 55.3119 28.4184 55.2907 30.2684 56.6478C31.3684 57.4546 32.4559 58.2422 32.6851 58.3978C32.9143 58.5534 32.6319 58.6807 32.0576 58.6807C31.4833 58.6807 30.3958 57.8932 29.6409 56.9307ZM34.0793 55.3797C34.0204 54.1702 34.1898 53.746 34.4557 54.437C34.7216 55.1279 35.3508 55.4389 35.8538 55.1279C37.2274 54.279 36.9537 55.2821 35.4774 56.5073C34.4919 57.3252 34.161 57.0583 34.0793 55.3797ZM76.2683 56.6233C81.3339 55.5755 85.4269 55.6225 81.2683 56.6807C79.6183 57.1006 76.9183 57.4456 75.2683 57.4474C72.746 57.4502 72.9052 57.319 76.2683 56.6233ZM107.847 55.264C107.804 54.2098 108.04 53.6192 108.372 53.9515C108.705 54.2838 108.74 55.1463 108.451 55.8682C108.132 56.666 107.895 56.429 107.847 55.264ZM19.5183 54.9403C24.0245 54.6843 25.7683 54.1965 25.7683 53.192C25.7683 52.4257 26.1058 51.5901 26.5183 51.3352C26.9308 51.0803 27.2683 51.9537 27.2683 53.2762C27.2683 55.6049 27.0476 55.6746 20.2683 55.488L13.2683 55.2953L19.5183 54.9403ZM126.018 52.1807C126.007 49.9807 126.203 48.963 126.453 49.919C126.703 50.8751 126.713 52.6751 126.473 53.919C126.234 55.1629 126.029 54.3807 126.018 52.1807ZM113.432 54.014C112.192 52.7738 112.756 51.6199 115.016 50.773C116.704 50.1401 117.421 50.3351 117.89 51.5552C118.234 52.4492 118.32 53.5181 118.081 53.9306C117.544 54.86 114.336 54.9176 113.432 54.014ZM116.766 52.6807C116.766 52.1307 116.342 51.6807 115.825 51.6807C115.307 51.6807 114.605 52.1307 114.266 52.6807C113.926 53.2307 114.349 53.6807 115.207 53.6807C116.064 53.6807 116.766 53.2307 116.766 52.6807ZM36.7656 50.7397C36.7656 48.1037 35.0299 47.2232 33.0298 48.8446C31.8546 49.7973 31.5971 49.822 32.1326 48.9307C33.05 47.4037 32.3175 47.3505 29.4498 48.7359C27.3398 49.7552 27.3316 49.7382 29.2067 48.2359C30.2743 47.3805 31.9618 46.6807 32.9567 46.6807C33.9515 46.6807 34.7656 46.2129 34.7656 45.6413C34.7656 45.012 35.2789 45.0813 36.0663 45.8169C37.3227 46.9906 38.3301 52.6807 37.2815 52.6807C36.9977 52.6807 36.7656 51.8073 36.7656 50.7397ZM53.2906 51.3001C51.8293 48.0248 58.3694 38.6811 62.1231 38.6811C62.7213 38.6811 62.0981 39.446 60.7382 40.3809C57.1998 42.8135 55.349 45.6621 54.6976 49.6785C54.2264 52.5835 53.9865 52.8598 53.2906 51.3001ZM45.7657 50.6324C45.7657 50.0559 44.3032 48.9485 42.5157 48.1715C40.7282 47.3945 39.9531 46.7413 40.7932 46.7198C41.6333 46.6983 43.2891 47.359 44.4727 48.188C46.4737 49.5896 46.6552 49.5369 47.059 47.438C47.3748 45.7967 47.5305 46.0677 47.6295 48.4307C47.7044 50.2182 47.3157 51.6807 46.7657 51.6807C46.2157 51.6807 45.7657 51.209 45.7657 50.6324ZM84.0507 47.2355C86.5918 44.7303 89.2789 42.6806 90.022 42.6806C90.7651 42.6806 92.8996 41.1056 94.7654 39.1806C96.6312 37.2556 98.554 35.6806 99.0383 35.6806C99.5226 35.6806 98.5153 36.8616 96.7999 38.305C95.0845 39.7484 93.9387 41.1872 94.2538 41.5022C94.5688 41.8173 92.9004 42.7817 90.546 43.6455C88.1357 44.5298 85.8464 46.1628 85.3064 47.383C84.7789 48.5748 83.2411 50.054 81.889 50.6701C80.1341 51.4697 80.7527 50.4869 84.0507 47.2355ZM106.845 50.264C106.801 49.2098 107.038 48.6192 107.37 48.9515C107.702 49.2838 107.738 50.1463 107.449 50.8682C107.13 51.666 106.893 51.429 106.845 50.264ZM87.5157 48.0184C88.2032 47.741 89.3282 47.741 90.0157 48.0184C90.7032 48.2958 90.1407 48.5228 88.7657 48.5228C87.3907 48.5228 86.8282 48.2958 87.5157 48.0184ZM113.516 48.0184C114.203 47.741 115.328 47.741 116.016 48.0184C116.703 48.2958 116.141 48.5228 114.766 48.5228C113.391 48.5228 112.828 48.2958 113.516 48.0184ZM105.225 46.6142C104.862 46.0276 104.78 45.3332 105.042 45.0711C105.304 44.809 105.785 45.2889 106.111 46.1376C106.787 47.8997 106.211 48.2097 105.225 46.6142ZM113.592 44.965C115.143 44.6695 115.73 44.0305 115.354 43.0492C115.036 42.222 115.222 41.8446 115.777 42.1878C117.901 43.5003 116.757 45.6803 114.016 45.5445C111.546 45.4222 111.503 45.3632 113.592 44.965ZM122.534 43.6808C121.847 42.5808 120.911 41.6808 120.454 41.6808C119.997 41.6808 118.947 41.0054 118.122 40.1799C117.198 39.2564 115.591 38.8776 113.943 39.1953C111.735 39.6211 111.616 39.5521 113.266 38.8012C115.182 37.9288 115.162 37.8475 112.766 36.8492C111.391 36.2763 110.851 35.7791 111.565 35.7442C114.638 35.5943 122.078 40.5285 123.893 43.9196C125.191 46.3434 124.074 46.1473 122.534 43.6808ZM47.7697 44.2989C47.7676 43.8138 48.6526 41.9823 49.7362 40.229C51.5302 37.3262 51.5699 36.846 50.1795 34.861C49.2143 33.483 47.5978 32.6809 45.786 32.6809C42.6279 32.6809 37.0792 36.7763 35.735 40.0993C35.1162 41.629 34.8761 41.7477 34.8295 40.5472C34.7946 39.6487 36.5674 37.2862 38.769 35.2972C43.3965 31.1166 47.6373 30.552 50.783 33.6978C52.6558 35.5706 53.0096 35.6063 55.7333 34.1978C57.3467 33.3635 60.8606 32.6809 63.5421 32.6809C67.5653 32.6809 68.8412 33.1506 70.8418 35.3687L73.2661 38.0565L70.3812 35.8687C66.0774 32.6048 58.9162 32.8421 54.7022 36.3882C52.9326 37.8773 50.6497 40.4648 49.6292 42.1382C48.6087 43.8116 47.7718 44.7839 47.7697 44.2989ZM68.3947 41.1568C68.073 40.3185 66.7874 39.2221 65.5377 38.7202C63.9268 38.0732 63.7541 37.7891 64.9441 37.7442C66.729 37.6768 69.7655 40.2011 69.7655 41.7522C69.7655 43.1708 69.0479 42.8591 68.3947 41.1568ZM72.9234 40.6808C72.9234 39.3058 73.1504 38.7433 73.4278 39.4308C73.7052 40.1183 73.7052 41.2433 73.4278 41.9308C73.1504 42.6183 72.9234 42.0558 72.9234 40.6808ZM107.036 40.0766C107.369 39.7443 108.231 39.7088 108.953 39.9977C109.751 40.3169 109.514 40.5538 108.349 40.6018C107.295 40.6452 106.704 40.4089 107.036 40.0766ZM103.004 34.9937C103.96 34.7434 105.76 34.7343 107.004 34.9735C108.248 35.2127 107.466 35.4175 105.266 35.4286C103.066 35.4397 102.048 35.244 103.004 34.9937Z" fill="#2D2F2B"/>
<path d="M22.0192 94.992C22.9817 94.7405 24.5567 94.7405 25.5192 94.992C26.4817 95.2435 25.6942 95.4493 23.7692 95.4493C21.8442 95.4493 21.0567 95.2435 22.0192 94.992ZM62.7692 90.098C61.3942 89.335 60.6618 88.7042 61.1416 88.696C61.6214 88.6879 61.4136 87.8938 60.6798 86.9313C59.9459 85.9688 60.6784 86.3627 62.3074 87.8065C63.9364 89.2504 65.9442 90.6774 66.7692 90.9776C68.1025 91.4628 68.1025 91.5213 66.7692 91.5044C65.9442 91.4939 64.1442 90.861 62.7692 90.098ZM50.0402 90.0771C50.3725 89.7449 51.235 89.7093 51.9569 89.9982C52.7546 90.3174 52.5176 90.5544 51.3527 90.6024C50.2985 90.6458 49.7079 90.4094 50.0402 90.0771ZM45.1744 87.4313L43.2694 85.1813L45.7694 87.1706C47.1444 88.2647 48.4569 89.2772 48.6861 89.4206C48.9152 89.564 48.6475 89.6813 48.0911 89.6813C47.5346 89.6813 46.2222 88.6688 45.1744 87.4313ZM27.3334 84.9744C26.7907 83.5492 26.9055 83.4343 27.8932 84.4146C28.5766 85.093 28.8838 85.8998 28.5759 86.2077C28.2681 86.5156 27.7089 85.9606 27.3334 84.9744ZM32.1485 83.3018C32.2746 82.4424 32.6571 81.4599 32.9984 81.1185C33.3397 80.7772 33.5158 81.2012 33.3896 82.0607C33.2635 82.9201 32.881 83.9026 32.5397 84.244C32.1984 84.5853 32.0223 84.1613 32.1485 83.3018ZM67.4265 83.2322C67.0555 82.2656 67.351 81.9675 68.3137 82.337C69.1076 82.6416 69.5081 83.2937 69.2038 83.7861C68.4374 85.0262 68.0711 84.9121 67.4265 83.2322ZM41.7835 80.5979C41.7919 79.2687 42.2413 77.5062 42.7821 76.6812C43.4739 75.6259 43.575 76.2188 43.1231 78.6812C42.3317 82.994 41.7631 83.8075 41.7835 80.5979ZM65.8475 78.2646C65.804 77.2104 66.0404 76.6198 66.3727 76.9521C66.705 77.2844 66.7405 78.1469 66.4516 78.8688C66.1324 79.6665 65.8955 79.4295 65.8475 78.2646ZM9.51847 76.019C10.206 75.7416 11.331 75.7416 12.0185 76.019C12.706 76.2964 12.1435 76.5234 10.7685 76.5234C9.39347 76.5234 8.83097 76.2964 9.51847 76.019ZM82.3325 68.9744C81.7898 67.5492 81.9046 67.4343 82.8923 68.4146C83.5757 69.0929 83.8829 69.8998 83.5751 70.2077C83.2672 70.5156 82.708 69.9606 82.3325 68.9744ZM76.8472 68.2646C76.8037 67.2104 77.0401 66.6198 77.3724 66.9521C77.7047 67.2844 77.7402 68.1469 77.4513 68.8688C77.1321 69.6665 76.8952 69.4295 76.8472 68.2646ZM86.8472 66.2646C86.8037 65.2104 87.0401 64.6198 87.3724 64.9521C87.7047 65.2844 87.7402 66.1469 87.4513 66.8688C87.1321 67.6665 86.8952 67.4295 86.8472 66.2646ZM114.039 63.0771C114.371 62.7448 115.234 62.7093 115.956 62.9981C116.754 63.3174 116.517 63.5543 115.352 63.6023C114.298 63.6457 113.707 63.4094 114.039 63.0771ZM3.95917 59.9509C1.41367 56.376 1.19427 55.2474 3.19406 56.0148C5.13986 56.7615 6.99206 54.2945 6.59396 51.4863C6.08726 47.9119 2.44896 48.4229 1.64536 52.1813L1.00385 55.1813L0.885536 52.3656C0.586026 45.2377 5.74754 43.2235 8.40474 49.4313C9.28758 51.4938 10.3235 53.8273 10.7069 54.6169C11.5581 56.37 9.71083 60.6628 8.10064 60.6735C7.45897 60.6778 6.75784 61.2096 6.54264 61.8553C6.32741 62.501 5.16477 61.644 3.95917 59.9509ZM120.769 62.2883C120.769 62.0721 121.468 61.6273 122.321 61.2997C123.211 60.9582 123.612 61.1259 123.262 61.6928C122.675 62.643 120.769 63.0982 120.769 62.2883ZM116.094 60.0233C116.456 59.6614 115.85 58.7633 115.167 57.8877C114.285 57.2368 114.544 56.5946 116.019 57.5537C118.025 59.1265 121.29 60.6813 119.578 60.6813C118.936 60.6813 115.732 60.3852 116.094 60.0233ZM39.0119 58.1694C40.4679 56.5801 40.9617 56.4899 42.0119 57.6209C43.0243 58.7111 43.0171 58.8321 41.9752 58.2419C41.2636 57.8389 39.9136 58.0857 38.9752 58.7904C37.439 59.944 37.4427 59.8821 39.0119 58.1694ZM57.3459 57.714C57.938 57.1168 60.863 56.4303 63.8459 56.1885L69.2693 55.7488L64.4192 56.6465C61.7517 57.1402 58.8267 57.8267 57.9192 58.172C56.7362 58.6221 56.5739 58.4925 57.3459 57.714ZM42.5079 56.2812C40.9357 55.088 40.9114 54.8081 42.2808 53.6716C43.5819 52.5918 43.7096 52.6725 43.1219 54.204C42.6981 55.3083 42.8187 55.7687 43.4323 55.3894C43.9841 55.0483 44.4356 55.4245 44.4356 56.2253C44.4356 57.0261 44.3981 57.667 44.3523 57.6495C44.3065 57.632 43.4764 57.0163 42.5079 56.2812ZM113.228 53.6148C112.865 53.0282 112.839 52.2782 113.169 51.9481C113.499 51.618 113.769 51.9254 113.769 52.6312C113.769 53.4225 114.536 53.7138 115.77 53.3912C116.871 53.1033 117.52 53.2758 117.211 53.7745C116.445 55.0144 114.033 54.9177 113.228 53.6148ZM53.4659 51.2882C53.0567 50.247 52.9575 49.1595 53.2454 48.8715C54.1575 47.9594 54.96 49.454 54.5778 51.353C54.2276 53.0933 54.174 53.0902 53.4659 51.2882ZM46.9639 49.1813C46.9435 47.5313 47.1509 46.7352 47.4249 47.4123C47.6988 48.0893 47.7155 49.4393 47.4619 50.4123C47.2084 51.3852 46.9842 50.8313 46.9639 49.1813ZM32.7689 47.6947C32.7689 46.5198 35.6173 45.627 36.2256 46.6113C36.512 47.0747 35.8514 47.688 34.7576 47.974C33.6637 48.26 32.7689 48.1343 32.7689 47.6947ZM114.04 48.0771C114.372 47.7448 115.235 47.7093 115.957 47.9982C116.754 48.3174 116.517 48.5544 115.352 48.6024C114.298 48.6458 113.708 48.4094 114.04 48.0771ZM112.769 45.2979C112.769 45.0871 113.669 44.6792 114.769 44.3916C115.869 44.1039 116.769 44.2764 116.769 44.7749C116.769 45.2734 115.869 45.6813 114.769 45.6813C113.669 45.6813 112.769 45.5088 112.769 45.2979ZM92.7691 41.7403C92.7691 41.2228 93.2139 40.5244 93.7576 40.1884C94.3245 39.8381 94.4921 40.2395 94.1506 41.1294C93.4858 42.8618 92.7691 43.1788 92.7691 41.7403ZM114.276 37.6927C113.926 37.1259 114.327 36.9582 115.217 37.2997C116.949 37.9645 117.266 38.6813 115.828 38.6813C115.31 38.6813 114.612 38.2364 114.276 37.6927ZM51.3331 35.9744C50.7904 34.5492 50.9052 34.4343 51.8929 35.4146C52.5763 36.093 52.8835 36.8998 52.5756 37.2077C52.2678 37.5156 51.7086 36.9606 51.3331 35.9744Z" fill="#060705"/>
<defs>
<linearGradient id="paint0_linear_5027_61703" x1="64" y1="0" x2="64" y2="128" gradientUnits="userSpaceOnUse">
<stop stop-color="white"/>
<stop offset="1" stop-color="#EEEEEE"/>
</linearGradient>
</defs>
</svg>
