<svg width="128" height="128" viewBox="0 0 128 128" fill="none" xmlns="http://www.w3.org/2000/svg">
<path d="M79.1797 96.8409L53.7997 84.6409C51.2997 83.4409 50.2197 80.4009 51.4397 77.8809L63.6397 52.5009C64.8397 50.0009 67.8797 48.9209 70.3997 50.1409C73.8397 51.8008 75.3282 52.5009 75.3282 52.5009V31.3262L79.1597 31.3262V54.3009C79.1597 54.3009 90.6397 59.1409 95.7797 62.3209C96.5197 62.7809 97.8197 63.6809 98.3597 65.2009C98.7797 66.4209 98.7597 67.8209 98.1597 69.0609L85.9597 94.4409C84.7197 96.9809 81.6797 98.0609 79.1797 96.8409Z" fill="white"/>
<path d="M18.646 29.4648C21.946 28.7448 24.4868 29.045 26.4468 29.165C29.5238 29.4446 57.7148 30.8606 57.8062 30.8652C57.8062 30.8652 69.8458 31.3846 75.646 31.3046C75.646 31.3046 75.6665 45.8655 75.6665 53.1455C76.7664 53.6654 77.8869 54.2046 78.9868 54.7246V31.2851C81.6067 31.2651 84.2469 31.2055 86.9067 31.1455C99.0468 30.8655 122.487 29.5449 122.487 29.5449C122.512 29.5445 123.596 29.5342 124.407 30.3447C124.807 30.7447 126.506 31.9653 126.726 38.8652C126.726 61.6651 115.686 85.0849 115.686 85.0849C114.886 86.8648 113.967 88.7447 112.867 90.6845C109.267 96.9845 106.686 99.7451 106.686 99.7451C106.662 99.7741 104.172 102.733 101.386 104.425C98.1262 106.505 95.7261 106.485 95.7261 106.485C95.6245 106.485 70.5214 106.505 57.9468 106.505C52.9468 105.885 47.8061 100.725 42.8062 94.1054C39.1062 88.7854 36.686 83.0048 36.686 83.0048C36.5906 83.006 16.9439 83.2376 7.80615 72.0449C2.84629 66.3849 1.8063 59.8849 1.46631 57.5449C1.18623 55.6245 -1.11358 42.8645 7.88623 34.8447C11.946 30.945 16.9057 29.8249 18.646 29.4648ZM71.2065 52.6455C71.2065 52.6455 69.226 51.6649 67.606 52.0849C67.1664 52.1849 66.8267 52.3247 66.7065 52.3847C65.2265 53.0447 64.2661 54.9853 64.2661 54.9853L53.4067 77.3652C53.4033 77.3721 52.4275 79.3681 52.8667 80.9853C53.2469 82.9651 55.4263 84.1054 55.4263 84.1054L78.0063 95.1054C78.9681 95.4901 79.0603 95.5234 79.0659 95.5254C79.0659 95.5254 79.9665 95.8446 81.1265 95.7646C83.8264 95.5845 85.0464 92.6845 85.0464 92.6845C85.0958 92.5854 94.789 73.1386 96.0464 70.0654C96.3064 69.4254 96.7867 68.1049 96.4067 66.625C95.8667 64.525 93.3462 63.3847 93.3462 63.3847L78.2104 56.0429C77.3088 57.9022 76.408 59.7456 75.5063 61.6064C75.7263 61.8464 76.0666 62.2462 76.2866 62.8662C76.5066 63.4662 76.5063 64.2861 76.5063 64.2861C76.5063 64.2861 79.9072 65.7461 82.3472 67.3261C82.3805 67.3437 84.3709 68.4051 84.8667 70.666C85.4666 72.8657 84.5068 74.5854 84.3267 74.9257C84.3267 74.9257 82.6265 78.9258 81.6265 81.0058C81.2465 81.7858 80.8863 82.5256 80.5063 83.2656C81.6463 84.5256 81.727 86.4261 80.7271 87.7861C79.7071 89.1861 77.787 89.6456 76.2271 88.8457C74.6671 88.0457 73.9268 86.2059 74.4468 84.5859C74.9268 83.0859 76.3668 82.0459 77.9868 82.0859C77.9984 82.0622 81.2073 75.483 81.6665 73.9658C81.6712 73.9542 82.425 72.0829 82.0464 70.9863C81.7864 70.5063 81.4269 70.1457 81.1069 69.8857C80.9069 69.7257 80.7264 69.6058 80.5464 69.5058C79.7265 69.0259 78.8266 68.5258 77.8667 68.0459C76.9468 67.5859 76.0669 67.1861 75.2271 66.8261C75.2271 66.8261 74.6269 67.3658 73.8071 67.5459C73.3072 67.6858 72.8669 67.6655 72.5669 67.6455L67.7671 77.4658C68.987 78.7058 69.1464 80.6659 68.1265 82.0859C67.0864 83.5258 65.1264 83.966 63.5864 83.166C62.1666 82.4259 61.3871 80.7659 61.7671 79.166C62.1471 77.566 63.5871 76.4262 65.2271 76.4062C66.867 73.0462 68.507 69.6861 70.147 66.3261C69.227 65.1861 69.0871 63.6262 69.7671 62.3662C70.4071 61.1862 71.6468 60.4663 72.9868 60.4863C73.9034 58.6149 74.8371 56.7245 75.7554 54.8515L71.2065 52.6455ZM25.4868 38.6054C25.4868 38.6054 22.0466 38.4847 19.2866 39.2246C13.299 40.7165 11.6045 45.1766 11.5864 45.2246C11.5864 45.2246 8.56674 50.6248 11.8667 59.4648C13.7754 64.7136 17.5613 67.3933 17.606 67.4248C17.606 67.4248 19.8068 69.465 24.9868 71.165C28.3668 72.3649 33.5864 72.9853 33.5864 72.9853C33.5864 72.9853 30.0665 63.2853 28.6265 57.4453C26.9127 50.5106 25.4971 38.6915 25.4868 38.6054Z" fill="url(#paint0_linear_5027_60110)"/>
<defs>
<linearGradient id="paint0_linear_5027_60110" x1="63.8637" y1="29" x2="63.8637" y2="106.505" gradientUnits="userSpaceOnUse">
<stop stop-color="#9CEA4D"/>
<stop offset="1" stop-color="#609926"/>
</linearGradient>
</defs>
</svg>
