<svg width="128" height="128" viewBox="0 0 128 128" fill="none" xmlns="http://www.w3.org/2000/svg">
<path d="M44.385 1.66125C45.9196 0.22286 48.0294 -0.256458 49.9475 0.127075L60.7864 3.00403L97.3323 12.7882L108.171 15.6661C109.13 15.9539 109.994 16.529 110.761 17.2003C111.528 17.9676 112.007 18.8311 112.295 19.7902C112.679 21.133 113.926 26.0249 115.173 30.629L124.956 67.174C126.203 71.7776 127.546 76.6694 127.834 78.0128C128.314 80.0271 127.738 82.1375 126.299 83.5763L118.338 91.5382L91.6731 118.203C88.316 121.752 84.8623 125.301 83.7112 126.164C82.1765 127.507 80.0661 128.083 78.1477 127.699L67.3088 124.821L30.7639 115.038L19.925 112.16C18.966 111.873 18.1025 111.393 17.3352 110.626C16.568 109.955 16.0888 108.995 15.801 108.036C15.4174 106.693 14.17 101.801 12.9231 97.1974L3.13892 60.6515L0.261963 49.8126L0.640869 49.6857L0.16626 49.8126C-0.313188 47.7985 0.261903 45.6888 1.70044 44.2501L9.66138 36.2882L36.4231 9.62317L44.385 1.66125ZM95.9192 109.831C84.9516 117.456 71.8561 120.689 59.0715 119.533L68.0764 121.944L78.9153 124.821C79.8745 125.013 80.9302 124.726 81.6975 124.055L89.6584 116.093L95.9192 109.831ZM19.928 93.6583C21.8295 96.4988 24.0341 99.197 26.5432 101.706C36.0331 111.24 48.24 116.386 60.6838 117.164L53.6887 113.119L26.5432 97.4845L19.928 93.6583ZM101.552 97.4845L74.4075 113.119L67.4192 117.159C79.9057 116.361 92.1817 111.173 101.744 101.61C104.243 99.1004 106.437 96.4021 108.33 93.5636L101.552 97.4845ZM88.6028 101.418L61.7454 108.611L54.1008 110.637L54.7434 111.009L62.801 115.612C63.1847 115.804 63.5687 115.901 63.9524 115.901C64.336 115.9 64.8159 115.804 65.1995 115.612L73.1604 111.009L90.7268 100.855L88.6028 101.418ZM15.801 96.4298C17.048 101.034 18.3902 105.926 18.678 107.269C18.8698 107.748 19.1578 108.132 19.4456 108.516C19.8292 108.899 20.2131 109.187 20.6926 109.283L31.5315 112.16L40.6135 114.592C34.8299 111.913 29.4067 108.193 24.6252 103.433C19.7903 98.5978 16.0297 93.0954 13.342 87.2218L15.801 96.4298ZM51.2903 108.132C51.8393 108.589 52.5628 108.782 53.2112 108.716L53.2092 108.708L61.1702 106.598L69.3059 104.418C59.3351 105.684 48.9924 103.302 40.427 97.2687L51.2903 108.132ZM18.5823 88.755C18.6737 89.578 19.0292 90.224 19.7268 90.7814L19.7336 90.7697L27.6946 95.3741L46.1038 106.015L43.9045 103.816L24.1458 83.8644L18.5823 78.3009V88.755ZM31.3137 85.3116C32.7243 87.442 34.3633 89.4656 36.2317 91.3458C43.2546 98.3686 52.2864 102.195 61.4973 102.803L56.47 99.8849L36.4221 88.2784L31.3137 85.3116ZM91.8635 88.2784L71.8167 99.8849L66.7961 102.798C75.9511 102.175 84.9376 98.3683 91.9602 91.3458C93.7807 89.5254 95.3806 87.5673 96.7668 85.5089L91.8635 88.2784ZM64.2395 24.7794C63.9518 24.7794 63.6639 24.8759 63.3762 24.9718L57.429 28.4249L37.3821 39.9347L31.4348 43.3878C30.9552 43.7715 30.5715 44.3475 30.5715 44.923V81.756C30.6675 82.3314 30.9553 82.9065 31.4348 83.2902L37.2854 86.7433L57.3333 98.3497L63.2795 101.803C63.5672 101.995 63.8552 101.994 64.1428 101.994C64.4305 101.994 64.7184 101.995 65.0061 101.803L70.9534 98.3497L91.0002 86.7433L96.9475 83.2902C97.427 82.9066 97.8107 82.4272 97.8108 81.756V44.923C97.7149 44.3475 97.4271 43.7715 96.9475 43.3878L91.0002 39.9347L71.0491 28.4249L65.1028 24.9718C64.8152 24.8759 64.5271 24.7795 64.2395 24.7794ZM101.447 81.0284C99.4728 85.2136 96.76 89.1359 93.303 92.5929C89.3826 96.5365 84.8647 99.5173 80.0422 101.542L88.0276 99.4034L95.9885 97.2931C96.3721 97.1972 96.6599 97.0055 96.9475 96.7179C97.2352 96.4302 97.4277 96.1425 97.5237 95.7589L99.634 87.797L101.447 81.0284ZM119.624 58.0138C121.002 71.0943 117.754 84.5788 109.909 95.8419L116.42 89.3322L124.381 81.3702C125.052 80.603 125.245 79.5481 125.149 78.589C124.765 77.2461 123.518 72.3542 122.271 67.7501L119.624 58.0138ZM108.938 61.4191L101.744 88.2765C100.938 91.0982 100.134 94.1919 99.7834 95.6193L100.209 95.3741L108.171 90.7697C108.842 90.29 109.322 89.5225 109.514 88.6593V59.1925C109.323 59.9275 109.128 60.6802 108.938 61.4191ZM21.4592 66.7911C20.5961 70.1479 19.6377 73.7924 19.3499 74.7521C19.2539 75.5194 19.4455 76.1912 19.925 76.7667L30.3059 87.1476C24.9576 79.5544 22.4688 70.5541 22.8401 61.6505L21.4592 66.7911ZM3.81079 46.3595C3.1765 47.0844 2.8845 48.0665 3.01587 48.9816L3.13892 48.9493C3.52258 50.2922 4.76993 55.1842 6.01685 59.7882L8.54028 69.2394C7.30932 56.1089 10.7149 42.6164 18.7581 31.4113L3.81079 46.3595ZM27.7903 32.3546L19.8293 36.9591C19.1579 37.4387 18.6782 38.2062 18.5823 39.0695V68.5197C18.8035 67.6703 19.0316 66.7896 19.2532 65.9279L26.4475 39.0704L28.3069 32.0558L27.7903 32.3546ZM99.3528 41.8585C104 49.4654 105.962 58.2561 105.24 66.8644L106.827 60.9396C107.787 57.5825 108.746 53.9378 108.938 52.9786C109.034 52.2113 108.842 51.5395 108.363 50.964L102.608 45.1134L99.3528 41.8585ZM109.514 48.8546V38.9738C109.418 38.1105 108.938 37.3428 108.267 36.9591L100.305 32.3546L83.0266 22.3673L109.514 48.8546ZM40.26 28.423L32.2981 30.5333C31.9146 30.6293 31.6268 30.8218 31.3391 31.1095C31.0515 31.3972 30.8598 31.6849 30.7639 32.0685C30.4761 33.0279 29.5168 36.6725 28.6536 40.0294L27.5559 44.1105C29.44 40.5365 31.8846 37.1822 34.8889 34.1779C37.5504 31.5164 40.4875 29.2961 43.6077 27.5138L40.26 28.423ZM71.8167 26.9855L91.8635 38.4962L96.3918 41.1251C95.0688 39.2212 93.5601 37.4077 91.8645 35.712C85.0257 28.8733 76.2819 25.1038 67.3313 24.381L71.8167 26.9855ZM60.5696 24.4132C51.687 25.2166 43.0208 29.0196 36.2317 35.8087C34.6432 37.4072 33.2217 39.1096 31.9641 40.8927L36.4221 38.3048L56.47 26.7941L60.5696 24.4132ZM86.5374 12.8517C92.7111 15.5655 98.4995 19.4464 103.567 24.4913C108.47 29.3727 112.268 34.9341 114.966 40.8712L112.391 31.3966C111.144 26.7926 109.802 21.9008 109.514 20.5577C109.322 20.0781 109.034 19.6943 108.746 19.3107C108.363 18.927 107.979 18.639 107.499 18.5431L96.6604 15.5695L86.5374 12.8517ZM60.0491 11.1779C47.7773 12.1045 35.7774 17.2807 26.4475 26.6974C24.1384 29.0173 22.088 31.4985 20.2961 34.1046L26.6399 30.4366L53.7844 14.8019L60.0491 11.1779ZM74.4075 14.7062L101.456 30.3409L107.828 33.9816C106.002 31.3475 103.91 28.8427 101.552 26.506C92.2716 17.2683 80.4363 12.1679 68.3411 11.1974L74.4075 14.7062ZM75.0784 19.0236L67.1174 21.1339L63.5637 22.0978C71.2115 22 78.8799 24.0093 85.6194 28.1261L82.9436 25.4503L77.093 19.5988C76.5175 19.1192 75.7498 18.9276 75.0784 19.0236ZM64.0481 11.8282C63.6644 11.8282 63.1845 11.9245 62.8967 12.1163L54.8401 16.7198L37.635 26.6642L39.6838 26.1212L66.5413 18.9279L73.7639 17.0128L73.2561 16.7198L65.2952 12.1163C64.9115 11.9245 64.5276 11.8283 64.0481 11.8282ZM49.2766 2.90833C48.3174 2.71649 47.2617 3.00447 46.4944 3.6759L31.6956 18.4738C43.0862 10.3109 56.852 6.98608 70.2014 8.4679L60.2112 5.78625L49.2766 2.90833Z" fill="url(#paint0_linear_5027_57815)"/>
<defs>
<linearGradient id="paint0_linear_5027_57815" x1="64" y1="0.00012207" x2="64" y2="127.816" gradientUnits="userSpaceOnUse">
<stop stop-color="#03EBFF"/>
<stop offset="1" stop-color="#00A6B4"/>
</linearGradient>
</defs>
</svg>
