<svg width="128" height="128" viewBox="0 0 128 128" fill="none" xmlns="http://www.w3.org/2000/svg">
<path d="M61.1729 56.5244C62.5965 56.4842 64.1415 57.3381 64.1416 59.209V73.5674C64.1416 74.0552 64.5079 74.5029 65.0771 74.5029H67.9648C68.4944 74.5029 68.8604 74.0148 68.8604 73.5674V59.21C68.8604 57.7452 70.0805 56.5254 71.585 56.5254H89.4414C90.9458 56.5254 92.1249 57.7046 92.125 59.25V68.2383C92.125 69.6627 91.0273 70.9229 89.4414 70.9229H84.8447L86.1465 72.4277L87.123 73.5674C87.2037 73.6495 87.2855 73.7708 87.4482 73.8926C87.6115 74.0564 88.1808 74.5029 88.8311 74.5029H95.9492C96.5182 74.5027 96.8838 74.0147 96.8838 73.5674V59.21C96.8838 57.6234 98.1436 56.5254 99.6084 56.5254H117.424C118.196 56.5255 118.846 56.8503 119.334 57.3379C119.822 57.8263 120.147 58.477 120.147 59.209C120.147 59.5718 120.075 59.9317 119.936 60.2666C119.796 60.6014 119.591 60.9053 119.334 61.1611C118.846 61.6488 118.196 61.9336 117.464 61.9336H103.188C102.944 61.9337 102.7 62.056 102.538 62.2188C102.375 62.3816 102.294 62.5856 102.294 62.8291V77.1865C102.294 77.9588 101.968 78.6509 101.48 79.1387C100.993 79.6265 100.341 79.9111 99.6094 79.9111H86.7158C86.3102 79.9128 85.9087 79.8297 85.5371 79.667C85.1711 79.4638 84.8448 79.2211 84.6006 78.9365L76.9961 69.9473C76.8326 69.703 76.6693 69.4184 76.5879 69.1338C76.4668 68.8492 76.4258 68.5232 76.4258 68.1982C76.4258 67.4663 76.7115 66.8152 77.1992 66.3281C77.687 65.841 78.3783 65.5146 79.1104 65.5146H85.8223C86.3914 65.5146 86.7577 65.0665 86.7578 64.6191V62.8701C86.7578 62.3817 86.3915 61.9346 85.8223 61.9346H75.2051C74.6778 61.9348 74.2706 62.3825 74.2705 62.8701V77.1885C74.2705 78.6114 73.132 79.9129 71.5859 79.9131H61.418C61.0623 79.9124 60.7098 79.8408 60.3818 79.7031C60.054 79.5655 59.7564 79.3645 59.5068 79.1113C59.2572 78.858 59.0596 78.5575 58.9268 78.2275C58.7939 77.8976 58.7279 77.5442 58.7324 77.1885V66.4102C58.7324 66.3287 58.7325 66.2468 58.6914 66.2051C58.6501 66.1254 58.5292 66.084 58.4883 66.084C58.366 66.084 58.2444 66.0838 58.1631 66.165L58.04 66.2871L55.5596 72.3066L53.0791 78.2861L52.957 78.5293C52.6724 79.0171 52.3468 79.2626 51.9404 79.5068C51.4117 79.8317 50.8425 79.9131 50.2324 79.9131C49.6627 79.9131 49.0932 79.7919 48.5645 79.4658C48.1984 79.2626 47.7098 78.8564 47.3438 78.1641L47.2627 78.001L45.0254 72.4287L42.585 66.2871L42.4219 66.125C42.3408 66.0835 42.3 66.084 42.2188 66.084C42.0973 66.0841 42.097 66.125 42.0156 66.125L41.8535 66.2871L39.4951 72.0225L37.2168 77.4727C37.2168 77.5944 37.0951 77.7979 37.0137 78.042L36.8916 78.2861C36.8506 78.3662 36.85 78.4075 36.7686 78.5293C36.5653 78.8953 36.0773 79.3427 35.6709 79.5459C35.1824 79.8305 34.6539 79.9121 34.084 79.9121C33.4745 79.9121 32.9865 79.7904 32.498 79.5059C32.0098 79.2617 31.6039 78.8551 31.3193 78.3662C31.2379 78.2855 31.1556 78.1628 31.1152 78.041C31.0339 77.92 30.9934 77.7564 30.9531 77.5938L24.1201 60.6328C24.0791 60.5112 24.039 60.4298 23.998 60.3076C23.9577 60.2262 23.9163 60.1042 23.876 59.9414C23.876 59.86 23.836 59.697 23.7949 59.5752C23.7546 59.4527 23.7539 59.3308 23.7539 59.209C23.754 58.4771 24.038 57.7856 24.5264 57.2979C25.0148 56.8101 25.6655 56.5255 26.3975 56.5254C26.8852 56.5254 27.4149 56.6881 27.8213 56.9316C28.2225 57.176 28.5474 57.5282 28.7578 57.9482L29.001 58.5586L31.3193 64.375L33.7188 70.2314C33.7591 70.3128 33.7998 70.3528 33.8408 70.3945C33.9221 70.4348 34.0027 70.4346 34.084 70.4346C34.1653 70.4346 34.2468 70.4348 34.3281 70.3535L34.4502 70.2314L36.8906 64.375L39.3711 58.3545C39.6153 57.8264 40.0223 57.3794 40.5107 57.0537C41.0142 56.7103 41.6093 56.5261 42.2188 56.5254C42.8274 56.5317 43.4217 56.7154 43.9277 57.0537C44.416 57.3786 44.8222 57.8265 45.0664 58.3545L47.4258 64.293L49.8652 70.2314C49.9063 70.3129 49.9472 70.3528 49.9883 70.3945C50.1091 70.4348 50.1501 70.4346 50.2314 70.4346C50.3128 70.4346 50.4342 70.4348 50.5156 70.3535C50.5567 70.3535 50.5976 70.3129 50.6387 70.2314L55.1934 59.25C55.5594 58.4769 55.9669 57.7847 56.5361 57.2969C57.1054 56.8091 57.9192 56.5244 59.0986 56.5244H61.1729ZM18.9141 56.5244C19.2666 56.5241 19.6156 56.5938 19.9414 56.7285C20.2671 56.8632 20.5632 57.0604 20.8125 57.3096C21.0619 57.5589 21.2597 57.8558 21.3945 58.1816C21.5293 58.5074 21.599 58.8564 21.5986 59.209V68.8486C21.5986 70.353 20.4191 71.5731 18.9141 71.5732H6.3457C5.85789 71.5732 5.41016 72.021 5.41016 72.5088V73.5674C5.41032 74.0551 5.81695 74.502 6.3457 74.502V74.5029H25.583C27.0478 74.5029 28.2676 75.7231 28.2676 77.2275C28.2679 77.58 28.1991 77.9292 28.0645 78.2549C27.9297 78.5808 27.7318 78.8776 27.4824 79.127C27.2332 79.3761 26.937 79.5732 26.6113 79.708C26.2854 79.8428 25.9357 79.9125 25.583 79.9121H2.72461C1.22038 79.9119 8.5679e-05 78.6921 0 77.2275V68.8887C4.21939e-05 67.3843 1.17948 66.1641 2.68457 66.1641H15.2949C15.7826 66.1639 16.1895 65.7973 16.1895 65.2686V62.8691C16.1893 62.3406 15.7415 61.9338 15.2539 61.9336H6.34668C6.10245 61.9336 5.57335 61.8528 5.37012 62.4219C5.08483 63.6417 4.02779 64.1708 2.68555 64.1709C1.22146 64.1709 0.00102769 63.3573 0.000976562 61.9336V59.209C0.00106701 57.7443 1.22054 56.5245 2.72559 56.5244H18.9141ZM117.425 74.5029C118.147 74.503 118.84 74.7901 119.351 75.3008C119.862 75.8117 120.148 76.505 120.148 77.2275C120.148 78.6921 118.929 79.9119 117.425 79.9121H107.134C106.781 79.9125 106.432 79.8427 106.106 79.708C105.781 79.5732 105.484 79.3763 105.234 79.127C104.985 78.8776 104.787 78.5808 104.652 78.2549C104.518 77.9292 104.449 77.58 104.449 77.2275C104.449 75.7231 105.629 74.5029 107.134 74.5029H117.425ZM107.134 65.5137C108.638 65.5137 109.858 66.7338 109.858 68.2383C109.858 69.703 108.638 70.9229 107.134 70.9229C105.629 70.9228 104.449 69.7027 104.449 68.1982C104.449 66.7335 105.629 65.5137 107.134 65.5137ZM124.135 57.1758H123.037V59.9814H122.631V57.1758H121.532V56.8096H124.135V57.1758ZM125.884 58.3936C126.047 58.7595 126.128 59.1256 126.209 59.4512H126.251C126.343 59.0889 126.464 58.7349 126.616 58.3936L127.227 56.8076H127.797L128 59.9805H127.592L127.511 58.5986C127.465 58.1254 127.438 57.6502 127.431 57.1748C127.308 57.5408 127.146 57.9481 126.983 58.3955L126.372 59.9814H126.048L125.479 58.4355C125.316 57.9882 125.193 57.5818 125.07 57.1748C125.07 57.5819 125.03 58.151 124.989 58.6387L124.907 59.9805H124.501L124.745 56.8076H125.314L125.884 58.3936ZM60.1152 49C60.6305 49.004 61.1355 49.1441 61.5791 49.4062C61.9531 49.6574 62.2599 49.9965 62.4727 50.3936C62.6854 50.7907 62.7979 51.2341 62.7998 51.6846C62.7998 53.1486 61.5793 54.369 60.1152 54.3691C58.6107 54.3698 57.3896 53.1487 57.3896 51.6846C57.3897 50.1794 58.6108 49 60.1152 49Z" fill="url(#paint0_linear_5027_38948)"/>
<defs>
<linearGradient id="paint0_linear_5027_38948" x1="64" y1="49" x2="64" y2="79.9131" gradientUnits="userSpaceOnUse">
<stop stop-color="#FF5161"/>
<stop offset="1" stop-color="#CC2131"/>
</linearGradient>
</defs>
</svg>
