<svg width="128" height="128" viewBox="0 0 128 128" fill="none" xmlns="http://www.w3.org/2000/svg">
<path d="M69.9039 9.55517L66.4979 23.083C71.3226 13.5285 78.9853 6.33894 87.784 0C81.3509 7.47359 75.4858 14.9479 71.8906 22.4215C77.9456 13.9067 86.0814 9.17695 95.2576 6.05493C83.0536 16.9345 73.3666 28.6089 65.9872 40.3398L60.1221 37.7858C61.1618 28.4198 64.7003 18.827 69.9039 9.55517Z" fill="#ABCD03"/>
<path d="M54.2407 35.2991L65.4043 39.9305C65.4043 42.7692 65.1736 51.4273 66.9486 53.9813C85.5151 77.8928 82.3914 125.824 63.1876 127.053C33.944 127.053 22.7911 107.187 22.7911 88.9284C22.7911 72.2779 42.7521 61.2092 54.6729 51.3707C57.7 48.7218 57.1743 42.8676 54.2407 35.2991Z" fill="#FFFCDB"/>
<path d="M65.4082 39.7634L69.4314 41.8158C69.0532 44.464 69.6206 50.3305 72.2688 51.8434C84.0004 59.1279 95.0684 67.0746 99.4207 75.0213C114.936 103.025 88.5411 128.946 65.7414 126.486C78.1346 117.309 81.7297 98.4832 77.0941 77.9535C75.2024 69.9119 72.2688 62.6274 67.0652 54.3967C64.811 50.3565 65.598 45.3459 65.4082 39.7634Z" fill="#7D4698"/>
<path d="M63.4705 39.0725L71.7954 40.2078C69.3356 48.3437 76.6208 54.0197 78.9857 55.3448C84.2835 58.2777 89.3922 61.3049 93.4605 64.9942C101.124 71.9947 105.475 81.8338 105.475 92.2403C105.475 102.552 100.745 112.485 92.7982 119.108C85.3246 125.352 75.013 128.001 64.9848 128.001C58.7407 128.001 53.1589 127.717 47.1047 125.73C33.2928 121.094 22.9805 109.269 22.1292 95.0777C21.3721 84.0089 23.8319 75.5891 32.4415 66.7911C36.8873 62.1555 45.8751 56.8577 52.025 52.6003C55.0528 50.5188 58.269 44.6529 52.1192 33.5849L53.3494 32.6387L62.463 38.7428L54.7688 35.5716C55.431 36.5178 57.2285 40.7752 57.6075 42.0047C58.4588 45.505 58.0806 48.9117 57.3235 50.4246C53.445 57.4257 46.8227 59.3175 41.9981 63.2908C33.4833 70.2913 24.2122 75.8731 25.2526 95.0777C25.7257 104.538 33.1051 116.08 44.1731 121.472C50.4172 124.5 57.6075 125.73 64.8919 126.108C71.4193 126.392 83.9074 122.513 90.7187 116.837C98.0032 110.783 102.071 101.606 102.071 92.2403C102.071 82.7794 98.2872 73.7922 91.1918 67.4533C87.1236 63.764 80.4071 59.3175 76.2447 56.9519C72.0822 54.587 66.8786 47.9648 68.5813 41.6265L63.4705 39.0725Z" fill="black"/>
<path d="M60.9164 53.0745C60.0651 57.4267 59.1189 65.2785 55.3346 68.2114C53.7262 69.3461 52.1177 70.4821 50.415 71.6168C43.6037 76.253 36.7916 80.6039 33.6703 91.7676C33.0081 94.1331 33.5761 96.6871 34.1441 99.052C35.8468 105.863 40.6715 113.243 44.4557 117.595C44.4557 117.784 45.2128 118.257 45.2128 118.446C48.3348 122.136 49.2811 123.177 61.1062 125.825L60.8222 127.15C53.7269 125.258 47.8617 123.556 44.1717 119.298C44.1717 119.203 43.5095 118.541 43.5095 118.541C39.5361 113.999 34.7107 106.431 32.9139 99.336C32.2516 96.4973 31.6843 94.3222 32.4407 91.3886C35.657 79.8475 42.6581 75.3061 49.7535 70.4814C51.362 69.441 53.2537 68.4941 54.7673 67.2645C57.6995 65.0894 59.3073 58.4665 60.9164 53.0745Z" fill="black"/>
<path d="M63.9418 71.0488C64.0367 75.9684 63.5565 78.4363 64.7861 81.9373C65.5425 84.0182 68.0986 86.8565 68.8557 89.6003C69.8962 93.2904 71.0294 97.3579 70.9338 99.8177C70.9338 102.656 70.7563 107.952 69.5268 113.629C68.5891 118.319 66.4281 122.344 62.7945 124.625C59.0725 123.859 54.7022 122.55 52.1226 120.339C47.1088 115.988 42.668 108.711 42.1 102.372C41.6276 97.1692 46.4452 89.4957 53.1616 85.6173C58.8377 82.3061 60.1579 78.5325 61.3875 72.4775C59.6848 77.7753 58.0857 82.2164 52.5988 85.0544C44.6521 89.2169 40.5745 96.2044 40.9527 102.827C41.52 111.341 44.9299 117.11 51.6463 121.746C54.4843 123.733 59.7865 125.832 63.0976 126.4V125.967C65.6086 125.497 68.8596 121.373 70.4792 115.793C71.8986 110.779 72.4581 104.362 72.3625 100.294C72.2676 97.9291 71.2244 92.8072 69.3319 88.1716C68.2915 85.6176 66.6931 83.0638 65.652 81.2662C64.518 79.4673 64.5099 75.5895 63.9418 71.0488Z" fill="black"/>
<path d="M63.3787 89.5994C63.4729 92.9105 64.8029 97.153 65.3702 101.505C65.844 104.722 65.6383 107.953 65.5434 110.792C65.4499 114.077 64.3553 119.965 62.8592 122.828C61.4483 122.181 60.8968 121.443 59.9801 120.252C58.8455 118.643 58.0747 117.035 57.3175 115.143C56.7502 113.724 56.0869 112.099 55.8022 110.207C55.424 107.369 55.53 102.929 58.7462 98.3881C61.206 94.793 61.7697 94.5195 62.621 90.357C61.485 94.0464 60.6382 94.4225 57.9886 97.5439C55.0564 100.95 54.5684 105.967 54.5684 110.034C54.5684 111.738 55.2476 113.627 55.9105 115.424C56.6669 117.317 57.3161 119.201 58.3566 120.62C59.9207 122.92 61.9226 124.228 62.9025 124.473C62.9087 124.474 62.9177 124.471 62.9241 124.473C62.9451 124.478 62.969 124.49 62.989 124.494V124.386C64.8245 122.34 65.9291 120.307 66.301 118.26C66.7741 115.8 66.8829 113.335 67.1669 110.402C67.4502 107.942 67.2446 104.629 66.5824 101.224C65.6368 96.9665 64.0409 92.6258 63.3787 89.5994Z" fill="black"/>
<path d="M63.66 49.1003C63.7549 54.0192 64.1331 63.1969 65.4575 66.7913C65.8358 68.0209 69.336 73.4136 71.7951 79.9409C73.4985 84.4823 73.8767 88.6448 74.1607 89.8743C75.296 95.267 73.8767 104.349 71.9842 112.958C71.0387 117.594 67.8218 123.364 64.1324 125.635L63.376 126.96C65.4576 126.865 70.5655 121.851 72.3631 115.607C75.3909 105.011 76.6205 100.092 75.2018 88.3608C75.0127 87.2247 74.5396 83.347 72.742 79.1838C70.0931 72.8449 66.3089 66.7906 65.8365 65.5604C64.9844 63.5744 63.8491 54.9655 63.66 49.1003Z" fill="black"/>
<path d="M65.4342 42.373C65.1536 47.4285 65.0785 49.2902 66.024 52.9796C67.0645 57.0478 72.363 62.9129 74.5387 69.6301C78.7012 82.4964 77.6608 99.336 74.633 112.486C73.4983 117.121 68.1049 123.838 62.7129 126.013L66.6862 126.96C68.862 126.865 74.4432 121.662 76.6196 115.702C80.1192 106.336 80.7821 95.1729 79.3627 83.4419C79.2678 82.3066 77.3754 72.1841 75.5785 67.9267C73.0238 61.5885 68.4824 55.9118 68.01 54.6829C67.1594 52.6013 65.2901 48.2798 65.4342 42.373Z" fill="black"/>
<path d="M62.808 38.8149H62.4268V126.109H62.808V38.8149Z" fill="black"/>
</svg>
