<svg width="128" height="128" viewBox="0 0 128 128" fill="none" xmlns="http://www.w3.org/2000/svg">
<path d="M59.9434 107.412C61.0701 107.412 62.744 107.702 64.2891 108.249C64.3452 108.249 64.3967 108.256 64.4443 108.266C64.4282 108.254 64.418 108.249 64.418 108.249C67.5084 107.122 71.1459 108.668 72.4014 111.888C73.7855 115.107 72.2406 118.906 68.8926 120.161C65.6734 121.545 61.8748 120 60.6191 116.652C60.2006 115.944 60.0713 115.107 60.0713 114.27C60.0713 113.561 60.3294 113.014 60.6191 112.306C60.3295 112.177 60.2005 112.016 59.7822 111.888C57.9794 111.212 56.0155 111.212 54.0518 111.759C53.5046 111.888 52.9568 111.598 52.667 111.051C52.3773 110.471 52.5387 109.795 53.0859 109.505C55.1784 108.121 57.4324 107.412 59.9434 107.412ZM64.4443 108.266C64.4936 108.302 64.6179 108.378 64.8359 108.378C64.7353 108.378 64.615 108.3 64.4443 108.266ZM60.2012 86.0039C65.674 86.0039 71.2756 87.5489 76.1689 90.3496C77.5853 89.9312 79.0983 89.9314 80.5146 90.4785H80.5469C82.0921 91.1867 83.3484 92.4421 84.0566 93.9873C84.6039 95.6612 84.6038 97.3357 84.0566 98.8809C83.3484 100.555 82.0921 101.681 80.5469 102.39C77.1988 103.774 73.5288 102.1 72.1445 98.8809C71.8549 98.1727 71.7266 97.3359 71.7266 96.499V96.0801C68.2175 93.2793 65.416 91.3157 60.6514 90.6074C55.1787 90.0281 48.6113 91.1544 43.1387 93.9551C42.5914 94.2448 41.8834 94.0843 41.4648 93.5371C41.4648 93.2475 41.336 93.1186 41.3359 92.8291C41.3359 92.4108 41.5933 91.9923 41.8828 91.8633L42.0117 91.7344C47.3236 88.2575 54.181 86.0039 60.2012 86.0039ZM60.9092 65.9473C70.4384 65.9473 79.6783 68.6193 87.791 73.5127C90.7205 72.9335 93.8109 74.4786 95.0664 77.2793C96.3219 80.6273 94.7766 84.426 91.4287 85.6816C89.8835 86.3899 88.2092 86.3899 86.5352 85.6816C85.0221 84.9734 83.7338 83.7181 83.1865 82.1729C82.8968 81.4646 82.7686 80.6271 82.7686 79.79C75.7828 74.607 70.3098 71.1302 61.3604 70.4219C51.9599 69.7136 41.4645 72.225 32.6436 77.2793C32.0963 77.6977 31.3882 77.4076 30.9697 76.8604C30.8412 76.6993 30.8408 76.4098 30.8408 76.1523C30.8409 75.8948 30.9695 75.4762 31.3877 75.1865H31.5166C40.1765 69.2952 51.38 65.9473 60.9092 65.9473ZM61.9082 46.793C74.9142 46.793 87.5017 50.4308 98.5762 57.1592C99.9605 56.7407 101.345 56.7408 102.762 57.2881H102.793C104.338 57.9963 105.594 59.1228 106.303 60.7969C106.882 62.3421 106.882 64.1452 106.174 65.6904C105.627 67.2357 104.37 68.491 102.825 69.1992C101.151 69.7786 99.4777 69.7784 97.9326 69.0703C96.2586 68.4908 94.9701 67.2356 94.4229 65.5615C94.1332 64.8533 94.0049 64.1769 94.0049 63.4688C85.86 57.7062 76.3625 52.2659 62.4873 51.5576C49.3205 50.8494 34.7696 54.4871 22.7295 61.6338C22.1823 62.0523 21.4732 61.8919 21.0547 61.3447C20.7649 60.6365 20.9263 59.9273 21.4736 59.5088L22.4395 58.9619C34.0612 50.9781 47.7755 46.793 61.9082 46.793ZM61.875 28.0244C78.6798 28.0244 95.0664 32.7885 109.199 41.6094V41.5771C112.29 40.7403 115.509 42.2863 116.765 45.2158C118.149 48.435 116.474 52.2339 113.255 53.6182C111.71 54.1652 109.907 54.1652 108.362 53.6182C106.817 52.9099 105.561 51.6537 104.853 50.1084C104.563 49.4004 104.563 48.7246 104.435 48.0166C90.012 37.9401 77.3917 33.3362 62.4219 32.6279C45.0699 31.9198 27.8465 36.4268 12.7158 45.7949C12.1686 46.0845 11.4604 45.9232 11.042 45.376C10.9134 45.0865 10.9131 44.9576 10.9131 44.668C10.9131 44.2495 11.0423 43.8309 11.332 43.7021L11.4609 43.5732C26.5916 33.497 43.9436 28.0244 61.875 28.0244ZM61.457 8C82.318 8.00005 102.632 13.8916 120.145 25.0947C123.203 24.3865 126.293 25.9318 127.549 28.8613L127.581 28.8291C127.871 29.5373 128 30.374 128 31.2109C128 32.048 127.871 32.8856 127.581 33.7227C126.873 35.2677 125.617 36.5233 124.072 37.2314C122.398 37.8109 120.724 37.8108 119.179 37.1025C117.505 36.5552 116.378 35.2999 115.67 33.7549C115.38 33.0466 115.252 32.2092 115.252 31.501C97.1916 19.0422 80.8047 13.1829 62.0361 12.4746C40.7565 11.7664 19.8953 17.3681 1.80273 28.6035C1.25545 29.022 0.547417 28.8608 0.128906 28.3135C0.000262714 28.0239 0 27.8951 0 27.6055C3.40916e-05 27.187 0.129245 26.7682 0.418945 26.4785H0.546875C18.6072 14.4383 40.5959 8 61.457 8Z" fill="url(#paint0_linear_5027_56200)"/>
<defs>
<linearGradient id="paint0_linear_5027_56200" x1="64" y1="8" x2="64" y2="120.668" gradientUnits="userSpaceOnUse">
<stop stop-color="#1D9DFF"/>
<stop offset="1" stop-color="#0668B3"/>
</linearGradient>
</defs>
</svg>
