<svg width="128" height="128" viewBox="0 0 128 128" fill="none" xmlns="http://www.w3.org/2000/svg">
<path d="M80.9225 39.4577L78.7499 41.1768C77.5571 42.1309 75.9246 43.3229 75.1227 43.8217C74.3208 44.3204 73.756 44.9716 73.857 45.2763C73.9579 45.581 76.4519 46.4744 79.4111 47.26C84.3683 48.5759 94.0358 52.6794 93.4855 53.2297C93.3552 53.36 90.4399 52.6501 87.0056 51.6617C76.0625 48.5123 70.5952 47.8723 58.0068 48.2234C48.6452 48.4846 45.8101 48.7787 41.0231 50.037C29.2617 53.1288 17.5702 59.4923 10.7964 66.4917C8.96766 68.3814 6.69858 70.4255 5.75229 71.0257C3.73071 71.5064 3.08059 71.1209 2.38956 70.7613C2.11359 70.5907 1.92844 70.3667 1.82281 70.0812C1.59219 70.9149 1.33913 71.6544 1.06714 72.2537C1.37219 72.189 1.68911 72.1687 2.01172 72.1592C3.04053 72.129 4.08628 72.345 4.69435 72.6126L7.33919 74.5585C18.4831 82.791 24.4955 85.6763 30.746 85.7802C34.022 85.8346 35.1538 85.5701 37.5282 84.1744C38.8988 83.3687 40.2481 82.3306 40.7775 81.6996C40.8532 81.6094 40.9075 81.5256 40.9476 81.454C41.2969 80.8297 41.6248 80.6445 41.8355 80.755C46.8566 79.4651 55.7116 80.8709 69.6441 85.7802C69.6556 85.7844 69.6704 85.7759 69.6819 85.7802C72.4634 85.8649 76.6595 87.0838 82.2827 89.4452C83.1048 89.7904 83.3406 89.5935 83.3406 88.5573C83.3406 85.3997 87.0273 81.2501 90.255 80.3205V80.3016C95.8122 77.1295 102.634 76.4142 108.693 76.2588L108.429 76.1643L111.111 75.9754C115.113 75.6897 118.624 77.2976 121.54 80.755C122.917 82.388 124.263 83.721 124.543 83.721C125.385 83.721 125.127 80.0166 123.863 73.9917C122.919 69.4896 122.757 67.0411 123.051 62.2033C123.281 58.4203 123.194 55.952 122.824 55.7234C122.496 55.5205 120.069 55.8743 117.44 56.498C110.229 58.2092 106.917 58.6031 106.917 57.7638C106.917 57.7207 106.955 57.6597 107.012 57.5937C103.437 58.8283 98.2589 56.959 95.9981 54.7978C93.5886 52.4944 94.7876 49.1978 93.6177 46.7688C93.6147 47.5288 93.4779 47.5196 92.5598 46.731C91.9779 46.2313 90.1733 45.4544 88.5358 45.0118C86.51 44.4643 84.8193 43.459 83.2461 41.838L80.9225 39.4577Z" fill="#F2F2F2"/>
<path d="M49.8642 68.4589C49.6452 64.0534 49.3049 59.4287 49.1078 58.1818C48.9038 56.8911 48.9988 55.9148 49.3284 55.9148C49.9145 55.9148 51.4943 59.1911 52.2432 61.9601C52.4681 62.7914 53.0701 63.9476 53.581 64.5294C54.4185 65.4831 54.4114 65.6963 53.5095 66.6929C52.9593 67.3009 52.5075 68.7292 52.5057 69.8667C52.5014 72.4013 51.4216 76.469 50.7527 76.469C50.483 76.469 50.0832 72.8645 49.8642 68.4589ZM57.693 73.3335C57.5565 72.8968 57.3021 69.0508 57.1277 64.7867C56.8602 58.2446 56.9408 57.1418 57.6437 57.7252C58.1018 58.1054 58.6569 59.2818 58.8771 60.3394C59.0974 61.3971 59.6871 62.9079 60.1876 63.6967C60.8679 64.7691 60.9396 65.4556 60.4719 66.4172C60.1279 67.1245 59.676 68.9891 59.4677 70.5607C59.091 73.4036 58.1666 74.848 57.693 73.3335ZM65.0694 65.4615C64.9122 61.3745 64.8931 57.9025 65.0268 57.7459C65.4139 57.2926 66.3563 59.0359 67.1416 61.6579C67.5399 62.9879 68.1227 64.2526 68.4367 64.4684C68.7642 64.6935 68.7925 65.338 68.503 65.9798C68.2255 66.5952 67.7098 68.3008 67.357 69.7701C66.1458 74.8146 65.3731 73.3592 65.0694 65.4615ZM73.0191 68.7612C72.9948 66.8493 72.7699 63.8438 72.5192 62.0823C72.2686 60.3207 72.2576 58.7595 72.4949 58.6129C73.1441 58.2116 74.1223 59.6272 74.6016 61.6613C74.8362 62.6569 75.6062 63.9373 76.3127 64.5067L77.5972 65.5418L76.237 66.5057C75.4826 67.0403 74.8768 68.1053 74.8768 68.8971C74.8768 70.7171 74.2971 72.2372 73.6031 72.2372C73.3062 72.2372 73.0434 70.673 73.0191 68.7612ZM80.311 67.3002C80.3074 65.1944 80.1289 62.4091 79.9144 61.1105C79.3929 57.953 80.4409 58.6345 82.3991 62.7262C83.6758 65.3938 83.7735 65.9857 83.0679 66.7768C82.6134 67.2863 82.1487 68.362 82.0352 69.1672C81.9218 69.9724 81.4889 70.7432 81.0733 70.8801C80.5226 71.0614 80.3159 70.0907 80.311 67.3002ZM86.9675 64.8533C86.9675 59.7814 87.0528 59.3682 87.9207 60.2361C89.2284 61.5438 89.676 65.5963 88.8044 68.2373C87.601 71.8836 86.9675 70.7165 86.9675 64.8533ZM93.2907 65.8841C92.1578 64.996 92.1853 64.9626 93.9197 65.1203C94.9172 65.2109 95.6857 65.5504 95.6275 65.8745C95.4508 66.8591 94.5392 66.8628 93.2907 65.8841Z" fill="#FEBC5B"/>
<path d="M80.5986 35.9999C79.5898 35.9997 78.4107 36.4216 76.8202 37.19C75.4328 37.8604 72.3214 39.1087 69.9058 39.9671C67.4903 40.8255 64.4159 42.1294 63.0859 42.8764C61.1356 43.9719 59.6305 44.2566 55.3025 44.3311C39.0186 44.6114 21.9936 50.1905 9.9624 59.1989C3.7485 63.8516 0.136661 69.37 2.38681 70.7606C3.07785 71.1203 3.72797 71.5058 5.74954 71.0251C6.69583 70.4249 8.96491 68.3807 10.7936 66.4911C17.5675 59.4916 29.259 53.1282 41.0204 50.0364C45.8073 48.778 48.6425 48.4839 58.0041 48.2228C70.5925 47.8717 76.0598 48.5117 87.0029 51.6611C90.4371 52.6495 93.3524 53.3594 93.4827 53.2291C94.0331 52.6788 84.3656 48.5753 79.4084 47.2593C76.4492 46.4738 73.9551 45.5804 73.8542 45.2757C73.7533 44.971 74.3181 44.3198 75.12 43.821C75.9218 43.3223 77.5544 42.1303 78.7472 41.1762L80.9197 39.457L83.2434 41.8374C84.8165 43.4584 86.5073 44.4637 88.5331 45.0112C90.1705 45.4537 91.9752 46.2306 92.557 46.7304C93.4852 47.5275 93.615 47.5346 93.615 46.7492C93.615 45.5902 91.4771 43.738 88.6842 42.4797C87.4679 41.9317 85.9717 40.7555 85.3593 39.8726C83.4827 37.1674 82.2799 36.0002 80.5986 35.9999ZM125.126 49.2618C122.979 49.2618 106.915 56.7608 106.915 57.7631C106.915 58.6025 110.227 58.2085 117.437 56.4974C120.066 55.8736 122.493 55.5199 122.822 55.7228C123.191 55.9514 123.278 58.4197 123.048 62.2027C122.754 67.0405 122.916 69.4889 123.861 73.9911C125.124 80.0159 125.382 83.7203 124.541 83.7203C124.26 83.7203 122.914 82.3874 121.537 80.7543C118.622 77.2969 115.111 75.6891 111.109 75.9747L108.426 76.1637L112.412 77.5428C116.801 79.0602 118.178 80.2808 122.085 86.1385C123.526 88.2997 124.989 90.2771 125.334 90.5214C126.248 91.1682 126.637 91.0898 127.469 90.0869C127.824 89.6586 127.985 88.4599 127.979 85.874C127.979 85.8625 127.979 85.8478 127.979 85.8362C128.037 84.024 127.974 81.65 127.79 78.6763C127.738 77.8315 127.701 77.2743 127.658 76.5226C127.263 67.0755 127.298 65.2234 127.752 58.9344C128.308 51.2338 127.772 49.2618 125.126 49.2618ZM27.0216 60.8236C25.4387 60.7608 23.7335 61.6545 22.5821 63.4117C21.5337 65.0118 21.9012 66.3922 24.0178 68.8148C25.3041 70.287 28.1724 69.7252 29.9876 67.6624C31.6511 65.772 31.6625 65.2119 30.1388 62.7128C29.3962 61.4948 28.2528 60.8724 27.0216 60.8236ZM25.208 63.8085C25.89 63.6953 27.3017 64.6108 27.5884 65.4709C27.9466 66.5456 25.3199 66.3424 24.9058 65.2631C24.7088 64.7501 24.7392 64.1451 24.9624 63.9218C25.0243 63.8599 25.1106 63.8246 25.208 63.8085ZM2.00898 72.1586C1.66604 72.1687 1.33048 72.198 1.00772 72.272C0.966246 72.3074 0.933299 72.3479 0.894367 72.3853C0.205493 72.6508 -0.0932257 73.2769 0.0253478 74.2556C0.0259524 74.261 0.0247433 74.2688 0.0253478 74.2744C0.0249912 74.2807 0.0256622 74.2871 0.0253478 74.2933C-0.0129797 75.0578 0.246511 75.8504 0.837692 76.5037C3.77309 79.7472 18.7871 87.4518 24.2823 88.5377C27.9274 89.258 29.6918 89.2507 33.1048 88.5188C36.5491 87.7801 40.7328 85.0014 41.7383 82.7946C42.5223 81.0739 41.8207 79.8883 40.9448 81.4533C40.6244 82.026 39.0919 83.2529 37.5254 84.1737C35.151 85.5695 34.0193 85.834 30.7433 85.7795C24.4927 85.6756 18.4803 82.7903 7.33645 74.5578L4.6916 72.612C4.08353 72.3443 3.03778 72.1283 2.00898 72.1586ZM91.5558 80.112C88.116 80.055 83.3379 84.9615 83.3379 88.5566C83.3379 89.5929 83.102 89.7898 82.2799 89.4445C74.0653 85.995 68.8745 84.9803 66.732 86.3841C64.9775 87.5337 64.7106 89.543 66.2597 89.9924C66.8416 90.1612 70.0381 90.6181 73.363 91.0126C76.688 91.407 79.8164 91.9603 80.3152 92.2405C80.9587 92.6021 81.848 92.7624 82.7333 92.7317C82.7794 92.7329 82.8201 92.7316 82.8656 92.7317C82.8783 92.7311 82.8906 92.7323 82.9034 92.7317C83.6651 92.7287 84.3314 92.5786 84.7925 92.2594C84.8056 92.2531 84.8174 92.247 84.8303 92.2406C84.8373 92.2357 84.8423 92.2268 84.8492 92.2217C85.0091 92.1402 85.1699 92.0579 85.3026 91.9572C86.0341 91.4019 86.3605 90.3027 86.3605 88.4244C86.3605 85.5454 87.2792 84.1407 90.8945 81.4723C92.3816 80.3747 92.5036 80.1277 91.5558 80.112Z" fill="black"/>
<path d="M27.737 82.9392L25.6211 82.3003L29.3864 81.5879C34.3719 80.6446 35.5959 79.4908 35.5959 75.7346C35.5959 72.541 36.2188 72.0666 37.6775 74.1492C39.7815 77.153 38.3282 81.2989 34.6295 82.8443C32.3064 83.815 30.7097 83.837 27.737 82.9392ZM110.835 69.9318C111.112 68.2954 110.938 66.7885 110.296 65.2518C109.12 62.4372 109.113 62.5285 110.505 62.5285C112.209 62.5285 114.915 65.9902 114.457 67.5848C113.965 69.2984 112.191 71.7576 111.212 72.084C110.614 72.2834 110.524 71.7728 110.835 69.9318ZM89.0973 55.1913C77.1483 51.3333 56.0083 51.2228 41.7587 54.9438C38.8485 55.7038 38.1953 55.7144 37.4937 55.0128C36.2956 53.8148 38.4655 52.5563 44.4007 51.0071C56.0161 48.7841 84.4127 47.891 94.2358 56.1476C94.2358 56.6798 92.9881 56.4476 89.0973 55.1913Z" fill="#71A0FE"/>
</svg>
