<svg width="128" height="128" viewBox="0 0 128 128" fill="none" xmlns="http://www.w3.org/2000/svg">
<path d="M80.662 68.2106C81.7743 74.7675 82.5295 81.38 82.9243 88.0188C83.0337 92.1532 81.827 96.2154 79.4783 99.6196C78.9258 101.593 77.2686 99.6196 76.0848 99.6196C73.1649 99.6196 72.0864 96.4629 70.508 94.5163C68.9297 92.5697 70.0608 90.8072 71.1131 89.2552C72.2442 88.4397 72.6914 86.6246 74.3223 86.6246C75.9533 86.6246 75.7429 84.3886 75.5061 83.2048C76.5846 81.5476 75.927 79.1012 76.9792 77.2861C78.8732 76.4443 78.3208 73.4981 78.9784 71.8408C79.5046 70.657 78.9785 68.3948 80.4779 67.895C80.4779 67.895 80.662 67.895 80.6357 68.158M78.8206 0.605031C76.3479 0.315668 74.4802 1.99923 72.402 2.94624C70.677 3.52035 68.9204 3.99463 67.1409 4.36674C65.8519 6.99731 62.8794 8.54935 61.2747 11.0221C59.6326 15.9357 56.5761 20.2551 52.4886 23.4384C46.6488 26.4635 43.7025 33.0399 41.7822 39.2218C41.1246 40.616 41.2298 42.6678 40.5196 43.8516C38.2047 44.5092 39.441 41.4841 39.178 40.0372C38.836 37.8802 40.73 36.486 40.8615 34.3815C41.645 32.8864 41.9742 31.1948 41.8085 29.515C41.5455 25.7533 42.6766 21.1761 40.0197 18.0983C38.4414 17.1776 38.9412 15.231 38.3625 13.7316C36.7935 11.5897 34.7957 9.79792 32.4963 8.47043C30.6023 8.28629 28.8661 5.83986 26.9195 6.971C25.7095 8.39151 23.4735 8.3652 22.7632 10.2592C22.316 12.6267 19.6592 11.9954 17.923 12.5741C15.7133 13.4422 12.8723 12.5741 11.0572 14.3366C9.24211 16.0991 6.26956 18.677 7.16396 21.6496C9.24211 25.7269 14.6085 23.6751 17.5284 26.1478C16.6061 28.8838 15.5437 31.5706 14.3454 34.1974C13.868 37.7642 13.7974 41.3737 14.135 44.9564C14.6874 48.534 13.7667 53.1375 16.7655 55.6628C18.4754 56.2941 18.3702 58.2934 19.0278 59.7665C19.6855 61.2396 20.9481 59.2404 21.4742 60.6609C23 61.5027 21.6321 63.2915 22.4739 64.3437C23.8776 64.6214 25.168 65.3078 26.183 66.3166C27.7999 67.4426 29.3061 68.7198 30.6812 70.1309C31.7335 72.288 33.0751 68.0265 34.2325 69.6311C34.3722 69.9758 34.5833 70.2869 34.852 70.544C35.1207 70.8011 35.4409 70.9983 35.7914 71.1226C36.1419 71.2469 36.5147 71.2954 36.8854 71.2651C37.256 71.2347 37.616 71.1261 37.9416 70.9464C40.0833 70.5854 42.1054 69.7097 43.8341 68.3948C44.9652 72.4195 44.0971 76.7863 44.5969 80.9426C45.2962 83.9775 45.7362 87.0664 45.9122 90.1758C46.7009 93.2397 47.1595 96.3792 47.2801 99.5407C48.1353 106.11 47.0182 112.785 44.0708 118.718C43.899 119.626 43.4588 120.463 42.8071 121.119C42.1554 121.776 41.322 122.222 40.4143 122.4C39.099 123.005 36.3633 124.084 37.284 125.978C40.3354 128.608 45.1757 128.319 48.6743 126.977C50.9892 125.846 48.99 123.032 50.1737 121.322C51.7258 115.324 50.9629 108.905 52.8043 102.908C54.229 99.884 54.7671 96.5183 54.3563 93.201C54.7246 91.1755 53.8828 88.729 55.1981 87.0718C55.2184 85.0336 55.9752 83.0715 57.3289 81.5476C57.7576 78.4531 57.9773 75.3332 57.9865 72.2091C59.8392 71.63 61.7901 71.4331 63.7212 71.6304C63.7212 73.3665 62.4848 75.3658 62.8531 77.3124C63.2406 79.4992 62.8199 81.7524 61.6693 83.652C60.8538 87.0718 60.3014 91.2807 62.4322 94.1743C65.9571 98.0413 70.5606 100.777 73.9015 104.907C74.1692 105.123 74.3878 105.393 74.5429 105.7C74.698 106.007 74.786 106.343 74.8009 106.686C74.8158 107.03 74.7574 107.373 74.6295 107.692C74.5017 108.011 74.3073 108.299 74.0593 108.537C73.7574 109.635 73.1923 110.642 72.413 111.472C71.6337 112.301 70.6638 112.929 69.5873 113.299C68.1931 113.851 65.9571 115.929 67.5881 117.376C70.8707 118.116 74.2974 117.887 77.4527 116.718C79.6098 115.929 78.8206 113.325 79.6624 111.694C80.8241 113.272 81.8956 114.914 82.8717 116.613C84.2133 118.612 86.5282 116.955 88.1328 116.324C88.322 113.399 87.7319 110.476 86.423 107.853C85.6864 106.117 82.8191 106.064 82.9506 103.934C84.3711 98.6726 87.8961 94.5689 90.6845 90.1232C92.9994 87.9136 91.2632 84.6254 91.3947 81.837C90.657 74.6706 92.3928 67.4675 96.3139 61.4238C97.126 64.7809 98.172 68.0772 99.4443 71.2884C100.361 75.0533 102.025 78.5957 104.337 81.7054C105.416 85.4408 105.126 89.5971 105.837 93.4641C106.853 100.15 106.477 106.975 104.732 113.509C104.916 115.903 102.654 117.665 102.864 120.006C103.495 122.164 106.021 120.427 107.336 121.348C108.485 121.705 109.724 121.635 110.826 121.152C111.927 120.669 112.818 119.804 113.334 118.718C112.785 116.89 112.415 115.013 112.229 113.114C110.424 107.582 110.026 101.688 111.071 95.9631C111.282 92.859 113.15 89.071 110.729 86.4141C110.072 83.5731 111.203 80.4954 110.519 77.5754C108.897 70.0939 108.709 62.3725 109.967 54.821C110.387 53.7688 109.967 51.8222 111.098 51.2435C112.217 52.9148 112.719 54.9239 112.518 56.9255C113.54 60.0279 113.668 63.3555 112.886 66.5271C110.966 68.9735 112.15 72.288 112.387 75.0501C112.702 76.9967 114.728 75.6025 115.017 74.3924C116.785 71.1 118.213 67.6361 119.279 64.0543C120.489 62.4234 119.279 60.5031 119.279 58.7932C121.146 58.5564 120.436 56.452 119.437 55.5313C118.437 52.1642 118.674 48.2709 116.411 45.4036C112.834 41.7048 109.869 37.4603 107.625 32.8295C105.232 25.2798 98.392 20.2554 96.0771 12.6267C95.6474 10.4364 94.7747 8.35696 93.5127 6.51591C92.2506 4.67487 90.6258 3.11103 88.7379 1.92031C87.0385 1.14002 85.2791 0.497835 83.4767 0C81.9431 0.320015 80.3859 0.513573 78.8206 0.578725" fill="url(#paint0_linear_5027_57478)"/>
<defs>
<linearGradient id="paint0_linear_5027_57478" x1="63.7213" y1="0" x2="63.7213" y2="127.979" gradientUnits="userSpaceOnUse">
<stop stop-color="#46BBFF"/>
<stop offset="1" stop-color="#007CC4"/>
</linearGradient>
</defs>
</svg>
