<svg width="129" height="128" viewBox="0 0 129 128" fill="none" xmlns="http://www.w3.org/2000/svg">
<path d="M64.28 127.97C99.4863 127.97 128.027 99.4297 128.027 64.2233C128.027 29.017 99.4863 0.476562 64.28 0.476562C29.0736 0.476562 0.533203 29.017 0.533203 64.2233C0.533203 99.4297 29.0736 127.97 64.28 127.97Z" fill="url(#paint0_radial_5027_60210)"/>
<path d="M19.3536 35.6892C34.5314 11.4047 67.3154 4.11934 91.5999 19.9043C116.492 35.6892 123.777 67.8661 107.992 92.1506C92.8141 116.435 60.0301 123.72 35.7456 107.936C11.4611 92.7577 4.17576 60.5808 19.3536 35.6892Z" fill="white"/>
<path d="M19.9604 35.6891C35.1382 12.0117 67.3152 4.72635 91.5996 19.9041C115.884 35.082 123.169 67.2588 107.992 91.5433C92.8139 115.221 60.6369 122.506 36.3524 107.328C12.6751 91.5433 4.78261 59.9736 19.9604 35.6891Z" fill="#FEFEFE"/>
<path d="M20.5679 35.6896C35.1386 12.0122 67.3156 5.33401 90.993 20.5118C115.277 35.6896 122.563 67.2593 107.385 90.9367C92.8143 114.614 61.2445 121.292 36.96 106.114C13.2826 90.9367 5.99725 59.367 20.5679 35.6896Z" fill="#FDFDFD"/>
<path d="M21.1754 35.6897C35.746 12.6195 67.3159 5.94108 90.9932 21.1189C114.671 36.2967 121.956 67.2595 107.385 90.3298C92.8146 113.4 61.8519 120.078 38.1745 104.9C14.4971 89.7227 6.60467 58.76 21.1754 35.6897Z" fill="#FCFCFC"/>
<path d="M21.7817 35.6902C35.7453 13.227 66.708 6.54868 90.3854 21.7265C114.063 36.9043 121.348 67.26 106.777 89.7231C92.8138 112.186 61.8511 118.257 38.1737 103.687C15.1035 89.1159 7.81811 58.7604 21.7817 35.6902Z" fill="#FBFBFB"/>
<path d="M22.9965 35.6886C36.9601 13.8326 67.3157 7.15423 90.993 21.7249C114.063 36.2956 121.349 66.6512 107.385 89.1144C93.4215 110.97 63.0659 117.042 39.9956 102.471C16.3182 87.9002 9.0329 58.1518 22.9965 35.6886Z" fill="#FAFAFA"/>
<path d="M23.603 36.2964C36.9595 14.4404 67.3151 8.36934 90.3854 22.94C113.456 37.5107 120.741 67.2592 106.777 89.1152C93.4209 110.971 63.6724 116.435 40.6022 101.865C17.5319 86.6868 9.63945 57.5453 23.603 36.2964Z" fill="#F9F9F9"/>
<path d="M24.2102 36.2962C37.5666 15.0473 67.3151 8.97629 90.3854 23.547C113.456 38.1177 120.134 67.2589 106.777 88.5079C93.4209 109.757 64.2796 115.221 41.2093 100.65C18.1391 86.0794 10.8537 56.938 24.2102 36.2962Z" fill="#F8F8F8"/>
<path d="M24.8179 36.2967C37.5672 15.6549 67.3157 9.58375 89.7789 24.1544C112.242 38.118 119.527 67.2594 106.171 87.9012C92.8145 108.543 64.2802 114.007 41.817 99.4365C19.3539 84.8658 11.4614 56.9385 24.8179 36.2967Z" fill="#F7F7F7"/>
<path d="M25.4244 36.2953C38.1737 16.2606 67.3151 10.1895 89.7783 24.1531C112.241 38.1167 118.92 66.6511 106.17 87.2929C93.4209 107.328 64.8866 112.184 43.0306 98.2208C20.5675 84.2573 12.675 56.33 25.4244 36.2953Z" fill="#F6F6F6"/>
<path d="M26.0319 36.2972C38.7813 16.8696 67.3156 10.7985 89.1716 24.7621C111.028 38.7256 118.313 66.6529 105.564 86.6876C92.8143 106.722 64.8871 110.972 43.0311 97.0084C21.175 83.0448 13.8897 55.7247 26.0319 36.2972Z" fill="#F5F5F5"/>
<path d="M26.6387 36.2966C38.7809 16.8691 67.3152 11.4051 88.5641 25.3687C110.42 39.3323 117.098 66.6523 104.956 86.0799C92.8139 105.508 65.4939 109.757 43.6378 96.4009C22.3889 81.8302 14.4965 55.1171 26.6387 36.2966Z" fill="#F4F4F4"/>
<path d="M27.2463 36.2964C39.3885 17.4759 67.3157 12.012 88.5646 25.3684C109.814 38.7249 117.099 66.0449 104.957 84.8654C92.8144 103.686 66.1014 107.936 44.8525 94.5792C23.6036 81.2227 15.7111 55.1169 27.2463 36.2964Z" fill="#F3F3F3"/>
<path d="M27.8528 36.2959C39.3879 18.0825 66.708 12.6186 87.9569 25.9751C109.206 39.3316 115.884 66.0444 104.349 84.8649C92.8138 103.078 66.1008 107.328 44.8519 93.9715C24.2101 80.008 16.3176 54.5093 27.8528 36.2959Z" fill="#F2F2F2"/>
<path d="M29.0676 36.2961C40.6027 18.6898 67.3156 13.226 88.5645 26.5824C109.206 39.9389 116.492 66.0447 104.957 84.2581C93.4214 101.864 67.3156 106.114 46.6738 92.7576C25.4249 79.4011 17.5324 53.9023 29.0676 36.2961Z" fill="#F1F1F1"/>
<path d="M29.6746 36.296C40.6026 18.6897 67.3155 13.8328 87.9574 27.1893C108.599 39.9386 115.277 66.6517 104.349 83.6508C93.4213 100.65 67.9226 104.293 47.2808 91.5432C26.0319 78.1867 18.7466 53.2951 29.6746 36.296Z" fill="#F0F0F0"/>
<path d="M30.2814 36.2954C41.2094 19.2963 67.3152 14.4394 87.957 27.1887C108.599 39.9381 115.277 66.0439 104.349 82.436C93.421 99.4351 68.5294 102.471 47.8876 89.7214C27.2458 76.972 19.3534 53.2945 30.2814 36.2954Z" fill="#EFEFEF"/>
<path d="M30.8888 36.2956C41.2097 19.9036 67.3155 15.0467 87.3502 27.7961C107.385 40.5454 114.063 66.0441 103.742 82.4362C93.4214 98.8282 68.5298 101.864 48.4951 89.1144C28.4604 76.3651 20.5679 52.6876 30.8888 36.2956Z" fill="#EEEEEE"/>
<path d="M31.4959 36.2966C41.8168 20.5117 67.3155 15.6549 87.3502 28.4042C107.385 41.1536 114.063 66.0451 103.742 81.83C93.4213 97.6149 69.1368 100.65 49.7093 87.9011C29.0675 75.1518 21.175 52.0815 31.4959 36.2966Z" fill="#EDEDED"/>
<path d="M32.1033 36.2961C41.8171 20.5112 67.3158 16.2615 86.7434 29.0109C106.171 41.1531 112.849 66.0448 103.135 81.2226C93.4216 97.0075 69.7442 99.4359 49.7095 86.6865C30.282 74.5443 22.3895 51.4739 32.1033 36.2961Z" fill="#ECECEC"/>
<path d="M32.7097 36.297C42.4235 21.1192 67.3151 16.8695 86.1355 29.0117C105.563 41.154 112.241 65.4384 102.528 80.0091C92.8138 95.1869 69.7435 97.6153 50.3159 84.8659C31.4955 73.3308 23.603 51.4748 32.7097 36.297Z" fill="#EBEBEB"/>
<path d="M33.3173 36.2965C42.424 21.7259 66.7084 17.4762 86.136 29.6185C104.956 41.7607 111.635 65.438 102.528 80.0087C93.4214 94.5794 70.3511 96.4008 51.5306 84.2586C32.103 72.1163 24.2106 50.8672 33.3173 36.2965Z" fill="#EAEAEA"/>
<path d="M33.9245 36.2953C43.0312 22.3317 66.7086 18.0819 85.529 30.2242C104.35 42.3664 111.028 65.4367 101.921 79.4003C92.8144 93.3639 70.3512 95.1853 51.5308 83.6502C33.3174 71.5079 25.4249 50.2589 33.9245 36.2953Z" fill="#E9E9E9"/>
<path d="M34.5312 36.297C43.0307 22.9405 66.7081 18.6908 85.5286 30.833C104.349 42.3681 110.42 65.4384 101.921 78.7948C93.4211 92.1513 71.565 93.9727 52.7445 82.4375C34.5312 70.2953 26.0316 49.6534 34.5312 36.297Z" fill="#E8E8E8"/>
<path d="M35.7453 36.2965C44.2448 22.94 67.3151 19.2974 85.5285 30.8325C103.742 42.3676 110.42 64.8309 101.92 77.5802C93.4209 90.9367 72.172 92.1509 53.9586 80.6158C35.1381 69.6878 27.2457 49.653 35.7453 36.2965Z" fill="#E7E7E7"/>
<path d="M36.3525 36.2964C44.2449 23.547 67.3152 19.9044 85.5285 31.4395C103.742 42.9747 109.813 64.8307 101.921 77.5801C94.0281 90.3295 72.7792 91.5436 54.5658 80.0085C36.3525 68.4734 27.8529 49.0457 36.3525 36.2964Z" fill="#E6E6E6"/>
<path d="M36.9599 36.2956C44.8523 24.1533 67.3155 20.5108 84.9217 32.0459C102.528 42.9739 109.206 64.8299 101.314 76.9721C93.4213 89.1144 72.7795 89.7214 55.1732 78.7934C37.567 67.2583 29.0674 48.4378 36.9599 36.2956Z" fill="#E6E6E6"/>
<path d="M37.5671 36.2961C44.8525 24.761 67.3156 21.1185 84.9219 32.6536C102.528 43.5816 108.599 64.8305 101.314 76.3656C94.0285 87.9007 73.9938 88.5079 56.3876 77.5799C38.1742 66.6519 30.2818 47.8313 37.5671 36.2961Z" fill="#E5E5E5"/>
<path d="M38.1741 36.2961C45.4594 24.7609 67.3155 21.7255 84.3146 32.6535C101.314 43.5816 107.385 64.2232 100.707 75.7583C93.4213 87.2935 73.9937 87.2935 56.3875 76.3655C39.3883 65.4375 30.8887 47.8312 38.1741 36.2961Z" fill="#E4E4E4"/>
<path d="M38.7816 36.2964C45.4598 25.3684 67.3158 22.94 84.315 33.2609C101.314 44.1889 107.385 64.2237 100.707 75.1518C94.0288 86.0798 74.6012 86.0798 57.602 75.1518C39.9958 64.8308 32.1033 47.2244 38.7816 36.2964Z" fill="#E3E3E3"/>
<path d="M39.3881 36.2954C46.0663 25.9745 66.7081 23.5461 83.7073 33.867C100.706 44.1879 106.17 64.2227 100.099 74.5436C93.4211 84.8645 74.6006 84.8645 58.2085 73.9365C41.2094 63.6155 32.7098 46.6163 39.3881 36.2954Z" fill="#E2E2E2"/>
<path d="M39.9952 36.2964C46.0663 26.5826 66.7081 24.1542 83.1002 34.4752C99.4922 44.7961 105.563 64.2236 99.4922 73.9374C93.4211 83.6512 74.6006 83.6512 58.2086 72.7231C42.4237 63.0093 33.9241 46.0102 39.9952 36.2964Z" fill="#E1E1E1"/>
<path d="M40.6024 36.2956C46.6735 27.1889 66.7082 24.7605 83.1002 34.4743C99.4922 44.7952 104.956 63.6157 99.4922 73.3295C93.4211 82.4361 75.8149 81.8291 59.4229 72.1153C43.0308 61.7944 35.1384 46.0094 40.6024 36.2956Z" fill="#E0E0E0"/>
<path d="M41.8169 36.2963C47.2809 27.1896 67.3156 25.3684 83.1005 35.0822C98.8854 45.4031 104.957 63.6163 99.4925 72.723C94.0285 81.8297 76.4223 80.6156 60.6374 70.9018C44.2454 60.5808 35.7458 45.403 41.8169 36.2963Z" fill="#DFDFDF"/>
<path d="M42.4241 36.2965C47.8881 27.7969 67.3156 25.9757 83.1006 35.6895C98.8855 45.4033 104.349 63.6167 99.4926 72.1162C94.0286 80.6158 77.0294 79.4014 61.2445 69.6876C45.4596 59.9739 36.9601 44.796 42.4241 36.2965Z" fill="#DEDEDE"/>
<path d="M43.0315 36.2957C47.8884 28.4032 67.316 26.5819 82.4938 36.2957C97.6716 46.0095 103.743 63.6158 98.8858 71.5083C94.0289 79.4008 77.0298 78.1865 61.852 68.4727C46.067 58.759 37.5675 44.1882 43.0315 36.2957Z" fill="#DDDDDD"/>
<path d="M43.638 36.2967C48.4949 29.0114 67.3154 27.19 82.4932 36.2967C97.671 46.0105 103.135 63.0097 98.8852 70.9022C94.0283 78.1875 78.2434 76.9733 63.0656 67.2595C47.2807 58.1528 38.7811 44.1892 43.638 36.2967Z" fill="#DCDCDC"/>
<path d="M44.245 36.2967C48.4948 29.0114 67.3153 27.7972 81.886 36.9039C96.4566 46.0105 102.528 63.0097 98.278 70.295C94.0282 77.5804 78.2433 75.152 63.0655 66.0453C48.4948 56.9387 39.9952 43.5821 44.245 36.2967Z" fill="#DBDBDB"/>
<path d="M44.8521 36.2966C49.1019 29.6183 67.3153 28.4042 81.886 37.5109C96.4567 46.6175 101.921 63.0095 98.278 69.6877C94.0282 76.366 78.8504 73.9376 64.2797 64.8309C49.1019 55.7242 40.6024 42.9748 44.8521 36.2966Z" fill="#DADADA"/>
<path d="M45.4599 36.2969C49.1025 30.2258 66.7088 29.0117 81.2795 38.1184C95.8502 47.225 101.314 63.01 97.0644 69.0811C93.4217 75.1522 78.2439 72.7236 64.2803 63.617C50.3168 55.1174 41.8172 42.368 45.4599 36.2969Z" fill="#D9D9D9"/>
<path d="M64.28 127.97C99.4863 127.97 128.027 99.4297 128.027 64.2233C128.027 29.017 99.4863 0.476562 64.28 0.476562C29.0736 0.476562 0.533203 29.017 0.533203 64.2233C0.533203 99.4297 29.0736 127.97 64.28 127.97Z" fill="#D40E2A"/>
<path d="M124.991 64.2229C124.991 30.8318 97.6707 3.51172 64.2796 3.51172C30.8884 3.51172 3.56836 30.8318 3.56836 64.2229C3.56836 97.6141 30.8884 124.934 64.2796 124.934C97.6707 124.934 124.991 97.6141 124.991 64.2229Z" fill="url(#paint1_linear_5027_60210)"/>
<path d="M97.0637 84.8659C85.5285 109.15 66.101 124.935 51.5303 126.757C43.6378 125.543 35.1382 121.293 28.46 117.043H29.0671C42.4236 117.043 63.0654 93.9727 75.8148 64.8313C59.4227 52.0819 38.1738 42.3681 18.1391 42.3681C7.8182 42.3681 2.96129 46.0109 1.74707 47.2251C2.96129 41.7611 5.38974 36.9042 7.81819 32.0473C10.2466 27.7975 13.2822 23.5476 15.7106 21.1192C18.1391 19.2978 24.2102 16.8695 33.924 16.8695C53.3516 16.8695 70.9579 23.5476 84.9214 33.2614C85.5285 27.7974 86.1356 22.9405 86.1356 18.0836C86.1356 5.94135 82.493 3.51305 81.2787 2.29883C85.5285 3.51305 89.7783 5.33431 93.421 7.15565C96.4565 8.97699 99.4921 10.7983 103.135 13.2268C104.349 15.0481 107.992 19.298 107.992 35.69C107.992 41.7611 107.385 47.8322 106.777 53.2962C115.884 65.4384 121.348 78.1878 121.348 87.2945C121.348 89.1159 120.741 91.5442 120.741 92.1513C117.705 98.8296 112.849 104.294 107.992 109.15C107.992 108.543 108.599 107.936 108.599 106.115C108.599 101.865 104.349 93.3655 97.0637 84.8659Z" fill="url(#paint2_radial_5027_60210)"/>
<path opacity="0.8" d="M111.635 106.722C112.242 106.115 112.242 103.687 112.242 103.687C112.242 82.4378 71.5656 35.0831 21.7824 35.0831C10.8544 35.0831 5.39034 38.7257 4.17612 39.9399C4.17612 40.547 3.56903 41.7612 2.96191 42.3683C4.17614 41.1541 9.64014 37.5115 19.961 37.5115C67.9229 37.5115 109.814 84.2592 109.814 105.508C109.814 106.115 109.814 107.329 109.207 108.544C111.028 107.937 111.028 107.329 111.635 106.722ZM10.8544 28.4048C12.6757 26.5835 18.7468 23.548 29.0677 23.548C78.8509 23.548 118.313 69.0813 118.313 95.1872C118.313 95.7943 118.313 97.6156 117.706 98.8299C118.313 98.2228 118.92 97.0084 118.92 97.0084C119.527 95.7942 119.527 93.973 119.527 92.7588C119.527 66.6529 80.6722 21.7266 30.8891 21.7266C19.3539 21.7266 14.497 24.1551 12.6757 25.9764C12.6757 25.9764 11.4615 27.1906 10.8544 28.4048ZM8.42591 32.6547C8.42591 32.6547 7.21169 35.0831 6.60458 35.6903C7.8188 34.476 13.2828 30.8332 23.6037 30.8332C77.0296 30.8332 114.063 79.4022 114.063 100.651C114.063 101.865 114.063 103.08 113.456 104.294C114.063 103.687 114.671 102.473 115.278 102.473C115.885 101.258 115.885 99.4369 115.885 98.2227C115.885 78.188 79.458 28.4048 26.0322 28.4048C15.1042 28.4048 10.2472 30.8334 8.42591 32.6547Z" fill="url(#paint3_linear_5027_60210)"/>
<path opacity="0.8" d="M89.1717 4.72602C90.3859 5.94024 92.8144 12.0114 92.8144 20.511C92.8144 67.8657 60.0303 115.22 35.1387 120.684C34.5316 120.077 33.9245 120.077 33.3174 119.47C52.1379 117.042 90.993 71.5083 90.993 19.2967C90.993 11.4042 88.5646 5.33306 86.7432 3.51172C87.3504 4.11883 87.9575 4.72602 89.1717 4.72602ZM97.6713 9.58284C98.8855 10.19 102.528 16.8681 102.528 27.1891C102.528 78.7936 72.7797 119.47 44.2454 124.934C45.4596 125.541 46.0667 125.541 46.6738 125.541C77.6365 121.291 104.957 75.7582 104.957 29.6176C104.957 18.6896 101.314 12.0114 100.1 10.7971C98.8855 10.7971 98.2784 10.19 97.6713 9.58284ZM92.2072 6.54728C92.8143 7.15439 96.457 13.8326 96.457 24.7606C96.457 73.3296 63.673 117.649 38.1743 122.506C38.7814 123.113 39.3885 123.113 40.6027 123.72C69.7441 118.256 98.8855 72.1155 98.8855 25.9749C98.8855 16.8683 95.8499 8.9758 94.6357 7.76158C93.4215 7.15447 92.8143 6.54728 92.2072 6.54728Z" fill="url(#paint4_linear_5027_60210)"/>
<defs>
<radialGradient id="paint0_radial_5027_60210" cx="0" cy="0" r="1" gradientUnits="userSpaceOnUse" gradientTransform="translate(63.9997 64.0123) scale(388.551)">
<stop offset="0.8407" stop-color="white"/>
<stop offset="1" stop-color="#B2B2B2"/>
</radialGradient>
<linearGradient id="paint1_linear_5027_60210" x1="29.1146" y1="113.938" x2="452.364" y2="-490.488" gradientUnits="userSpaceOnUse">
<stop stop-color="#DC5245"/>
<stop offset="0.0475" stop-color="#DA473E"/>
<stop offset="0.1773" stop-color="#D6252F"/>
<stop offset="0.2527" stop-color="#D40E2A"/>
<stop offset="0.4187" stop-color="#D5162B"/>
<stop offset="0.5306" stop-color="#D62730"/>
<stop offset="0.6267" stop-color="#D83A37"/>
<stop offset="0.7138" stop-color="#DC5144"/>
<stop offset="0.7948" stop-color="#E16C59"/>
<stop offset="0.8714" stop-color="#E78B76"/>
<stop offset="0.9431" stop-color="#EFAE9B"/>
<stop offset="1" stop-color="#F6CEC0"/>
</linearGradient>
<radialGradient id="paint2_radial_5027_60210" cx="0" cy="0" r="1" gradientUnits="userSpaceOnUse" gradientTransform="translate(92.7848 59.3607) scale(554.986 554.986)">
<stop stop-color="white"/>
<stop offset="0.178" stop-color="#FCFCFC"/>
<stop offset="0.3187" stop-color="#F2F2F2"/>
<stop offset="0.5651" stop-color="#E3E3E3"/>
<stop offset="0.7967" stop-color="#D1D1D1"/>
<stop offset="1" stop-color="#BFBFBF"/>
</radialGradient>
<linearGradient id="paint3_linear_5027_60210" x1="8.67608" y1="31.3348" x2="711.274" y2="358.962" gradientUnits="userSpaceOnUse">
<stop stop-color="#595959"/>
<stop offset="0.0511" stop-color="#727272"/>
<stop offset="0.1402" stop-color="#989898"/>
<stop offset="0.2335" stop-color="#B7B7B7"/>
<stop offset="0.3305" stop-color="#CFCFCF"/>
<stop offset="0.4329" stop-color="#E0E0E0"/>
<stop offset="0.5443" stop-color="#EAEAEA"/>
<stop offset="0.6813" stop-color="#EDEDED"/>
<stop offset="0.7624" stop-color="#EAEAEA"/>
<stop offset="0.8206" stop-color="#E1E1E1"/>
<stop offset="0.8717" stop-color="#D1D1D1"/>
<stop offset="0.9187" stop-color="#BBBBBB"/>
<stop offset="0.9624" stop-color="#9F9F9F"/>
<stop offset="1" stop-color="#808080"/>
</linearGradient>
<linearGradient id="paint4_linear_5027_60210" x1="50.1094" y1="128.168" x2="378.597" y2="-576.278" gradientUnits="userSpaceOnUse">
<stop stop-color="#595959"/>
<stop offset="0.0453" stop-color="#6C6C6C"/>
<stop offset="0.1571" stop-color="#939393"/>
<stop offset="0.2727" stop-color="#B4B4B4"/>
<stop offset="0.3913" stop-color="#CDCDCD"/>
<stop offset="0.514" stop-color="#DFDFDF"/>
<stop offset="0.6436" stop-color="#EAEAEA"/>
<stop offset="0.7912" stop-color="#EDEDED"/>
<stop offset="0.8279" stop-color="#E9E9E9"/>
<stop offset="0.869" stop-color="#DBDBDB"/>
<stop offset="0.9121" stop-color="#C5C5C5"/>
<stop offset="0.9563" stop-color="#A6A6A6"/>
<stop offset="1" stop-color="#808080"/>
</linearGradient>
</defs>
</svg>
