<svg width="128" height="128" viewBox="0 0 128 128" fill="none" xmlns="http://www.w3.org/2000/svg">
<path d="M124.2 48.7817V47.8017H124.876C125.204 47.8017 125.637 47.8575 125.637 48.2591C125.637 48.7398 125.254 48.7817 124.823 48.7817H124.2ZM125.662 50.7834H126.335L125.397 49.2205C125.879 49.1988 126.287 48.9398 126.287 48.3088C126.287 47.594 125.837 47.304 124.972 47.304H123.604V50.7834H124.2V49.2809H124.749L125.662 50.7834ZM121.882 49.0468C121.882 50.726 123.252 52.0952 124.931 52.0952C126.62 52.0952 127.978 50.726 127.978 49.0468C127.978 47.3629 126.62 46 124.931 46C123.252 46 121.882 47.3629 121.882 49.0468ZM122.53 49.0468C122.53 47.6777 123.569 46.5954 124.931 46.5954C126.277 46.5954 127.33 47.6777 127.33 49.0468C127.33 50.419 126.277 51.4967 124.931 51.4967C123.569 51.4967 122.53 50.419 122.53 49.0468ZM0 80.9367H128V82.3942H0V80.9367ZM74.6088 70.6024C79.7876 72.0894 79.3348 76.6107 79.3348 76.6107H85.5432L87.7434 71.9653H98.9135L101.066 76.5968H112.533V59.7998H118.411C120.436 59.7998 122.449 61.7907 122.085 65.7508V76.7224H127.953V64.7383C127.953 57.7097 124.119 54.0178 119.145 53.9899H106.482V73.5779L97.6529 54.1295H93.6153L85.078 72.7855C85.078 70.2597 81.8653 68.5278 81.8653 68.5278C84.709 68.6037 88.0612 55.1544 78.0122 54.1295H61.8634V70.3233H60.1919C59.0941 70.1729 57.8258 67.9138 57.8211 66.5679V51.813H118.497V46.1675H19.8779L22.7464 51.813H51.7678V67.7758C51.774 72.2956 56.776 76.4991 61.6478 76.6076H67.9787V70.5993H74.6088M34.9011 54.3962H29.3548V73.3267H29.1672L17.7893 46.1706H14.4851L0.355073 76.6107H2.19091L4.94311 71.0551H21.6424L24.038 76.6107H41.8335C46.0711 76.544 50.6576 71.0753 50.6576 65.4205C50.6576 60.8619 47.2216 54.314 41.8444 54.4008H34.8669M67.9384 59.913H76.6384C80.169 60.0324 80.3132 65.4856 76.7299 65.4996H67.9384V59.913ZM93.3842 59.0106L96.428 66.6004H90.0304L93.3842 59.0106ZM35.422 60.0122L40.421 59.9998C41.894 60.0432 44.2368 62.2155 44.2958 65.6205C44.5346 68.6518 42.2506 70.7078 40.6287 70.6598H35.422V60.0122ZM13.8215 51.5463L19.2515 65.2453L7.30613 65.2236L13.8215 51.5463Z" fill="url(#paint0_linear_5027_39297)"/>
<defs>
<linearGradient id="paint0_linear_5027_39297" x1="64" y1="46" x2="64" y2="82.3942" gradientUnits="userSpaceOnUse">
<stop stop-color="#00CFFF"/>
<stop offset="1" stop-color="#006C85"/>
</linearGradient>
</defs>
</svg>
