<svg width="128" height="128" viewBox="0 0 128 128" fill="none" xmlns="http://www.w3.org/2000/svg">
<path d="M4.6416 96.8943C3.3178 99.0531 1.83106 101.558 0.568357 103.554C-0.561863 105.464 0.0448839 107.927 1.93289 109.094L28.409 125.387C29.3384 125.96 30.4592 126.137 31.52 125.877C32.5807 125.616 33.4924 124.941 34.0504 124.002C35.1095 122.23 36.474 119.928 37.9608 117.464C48.4494 100.153 58.9991 102.271 78.0211 111.354L104.273 123.839C105.267 124.312 106.411 124.363 107.443 123.979C108.475 123.595 109.308 122.81 109.752 121.802L122.358 93.2894C123.249 91.253 122.343 88.8786 120.322 87.9535C114.782 85.3466 103.764 80.1532 93.8457 75.3672C58.1641 58.0355 27.8387 59.1556 4.6416 96.8943Z" fill="url(#paint0_linear_5027_60451)"/>
<path d="M123.358 32.1872C124.682 30.0284 126.169 27.5234 127.432 25.5275C128.562 23.6175 127.955 21.1543 126.067 19.9878L99.591 3.69486C98.654 3.0638 97.4971 2.85018 96.3966 3.10504C95.296 3.35989 94.3508 4.06034 93.7866 5.03903C92.7276 6.8109 91.363 9.11228 89.8763 11.5766C79.3877 28.8879 68.838 26.7698 49.8159 17.6865L23.6453 5.26306C22.651 4.78982 21.5075 4.73929 20.4754 5.12298C19.4433 5.50667 18.6105 6.29189 18.1668 7.29969L5.56007 35.8124C4.66939 37.8488 5.57568 40.2233 7.5967 41.1484C13.1363 43.7552 24.1544 48.9486 34.0728 53.7347C69.8359 71.046 100.161 69.8851 123.358 32.1872Z" fill="url(#paint1_linear_5027_60451)"/>
<defs>
<linearGradient id="paint0_linear_5027_60451" x1="61.3504" y1="64.5854" x2="61.3504" y2="125.994" gradientUnits="userSpaceOnUse">
<stop stop-color="#5EA3FF"/>
<stop offset="1" stop-color="#2684FF"/>
</linearGradient>
<linearGradient id="paint1_linear_5027_60451" x1="66.6089" y1="3" x2="66.6089" y2="64.4892" gradientUnits="userSpaceOnUse">
<stop stop-color="#2B80FF"/>
<stop offset="1" stop-color="#0052CC"/>
</linearGradient>
</defs>
</svg>
