<svg width="129" height="128" viewBox="0 0 129 128" fill="none" xmlns="http://www.w3.org/2000/svg">
<path d="M123.441 90.4943C125.835 90.2088 127.373 89.6951 128.001 88.9536L103.892 91.9179H103.778H103.721L6.02605 103.774C6.02605 103.774 6.02605 103.774 5.96887 103.774C6.08323 108.904 8.30597 112.837 12.8086 115.744C14.0069 116.54 15.2596 117.168 16.4005 117.568C17.4252 116.369 18.6809 115.402 20.1049 114.603C20.1619 114.603 20.1619 114.603 20.1619 114.603C32.9304 106.853 51.9088 105.655 76.9877 110.899L77.2725 111.013C80.0096 111.583 82.6886 112.266 85.2533 113.008C86.0495 113.122 86.6774 112.951 87.1911 112.494C88.1014 111.809 89.2427 111.299 90.7807 110.899V110.842C94.7726 103.66 100.3 98.3583 107.139 94.94C111.87 92.5457 117.286 91.0633 123.441 90.4943Z" stroke="black" stroke-opacity="0.85" stroke-width="0.464752" stroke-linejoin="round"/>
<path d="M33.4407 23.7514C33.3838 23.6942 33.3266 23.6375 33.2149 23.6375C33.1006 23.6375 33.0436 23.6375 32.9869 23.6942C32.9295 23.7514 32.8728 23.8657 32.8156 23.9794L28.256 98.0172C28.256 98.0172 28.256 98.0172 28.256 98.0744C28.3132 98.0172 28.3699 98.0172 28.3699 98.0172C28.3699 98.0172 28.4273 97.9609 28.484 97.9609C28.6558 97.9609 28.7672 97.9609 28.9381 98.0172L33.5549 23.9794C33.5549 23.9222 33.4981 23.8085 33.4407 23.7514Z" stroke="black" stroke-opacity="0.85" stroke-width="0.464752" stroke-linejoin="round"/>
<path d="M71.9157 5.45595C71.8585 5.39855 71.8013 5.28442 71.6877 5.28442C71.5733 5.28442 71.5161 5.39855 71.4024 5.39855C71.3453 5.45595 71.2879 5.56964 71.2879 5.68377L66.4435 93.4015C66.4435 93.4015 66.5002 93.4015 66.5574 93.4015C66.6715 93.4015 66.7854 93.4015 66.8998 93.4015C66.9565 93.4015 66.9565 93.4015 67.0139 93.3437C67.0139 93.3437 67.0139 93.3437 67.0139 93.2888C67.0711 93.2888 67.1283 93.2888 67.1283 93.2888L71.859 7.96369C71.859 7.84956 71.859 7.84956 71.859 7.84956C71.859 7.84956 71.859 7.84956 71.859 7.79238C71.859 7.79238 71.859 7.79238 71.9161 7.79238C71.859 7.73543 71.859 7.73543 71.859 7.73543C71.859 7.73543 71.859 7.73543 71.9161 7.73543C71.859 7.67803 71.859 7.67803 71.859 7.67803C71.859 7.6213 71.859 7.6213 71.9161 7.5639C71.859 7.5639 71.859 7.5639 71.859 7.5065C71.859 7.5065 71.859 7.5065 71.859 7.45022C71.859 7.45022 71.859 7.45022 71.9161 7.45022C71.859 7.45022 71.859 7.45022 71.859 7.39282C71.859 7.39282 71.859 7.39282 71.9161 7.39282L71.9731 5.68354C71.9726 5.56964 71.9726 5.51291 71.9157 5.45595Z" stroke="black" stroke-opacity="0.85" stroke-width="0.464752" stroke-linejoin="round"/>
<path d="M82.9171 58.8043L82.6319 58.2908L70.3195 36.5735C76.2486 48.8861 78.4142 67.41 76.8171 92.2037L100.186 89.3529L82.9171 58.8043Z" stroke="black" stroke-opacity="0.85" stroke-width="0.464752" stroke-linejoin="round"/>
<path d="M64.8505 92.6588L70.4344 7.10522C62.2851 38.3411 49.3451 67.4662 31.5057 94.5394L64.8505 92.6588Z" stroke="black" stroke-opacity="0.85" stroke-width="0.464752" stroke-linejoin="round"/>
<path d="M26.9445 96.4765L31.8462 24.2058L5.96887 98.6427L26.9445 96.4765Z" stroke="black" stroke-opacity="0.85" stroke-width="0.464752" stroke-linejoin="round"/>
<path d="M72.0849 7.61987L72.03 7.6766V7.734V7.79096V7.84813V7.96226L71.973 8.01966H72.03V8.07639V8.13357L78.0143 18.0493L77.3861 17.1391C81.6035 29.5056 83.3724 42.7882 82.6878 56.8079C82.6878 56.864 82.6878 56.864 82.6878 56.864L82.7446 56.9212C82.802 57.0355 82.9161 57.0922 82.9726 57.2064C82.9726 57.2064 82.9726 57.2635 83.0298 57.3207L88.5574 67.068C88.6141 67.1252 88.6141 67.1821 88.6141 67.2965H88.6715C88.7857 67.3526 88.7857 67.41 88.8996 67.4674C97.3347 74.8775 106.91 79.8915 117.456 82.5133L120.02 86.6738C120.133 86.6738 120.247 86.6738 120.304 86.7875C120.361 86.7308 120.361 86.6738 120.418 86.6738L72.0849 7.61987Z" stroke="black" stroke-opacity="0.85" stroke-width="0.464752" stroke-linejoin="round"/>
<path d="M123.36 90.1273C125.754 89.8419 127.291 89.3282 127.92 88.5867L103.811 91.5509H103.697H103.64L5.94487 103.407C5.94487 103.407 5.94487 103.407 5.8877 103.407C6.00205 108.538 8.2248 112.47 12.7275 115.377C13.9257 116.173 15.1785 116.801 16.3193 117.201C17.344 116.002 18.5997 115.035 20.0237 114.236C20.0807 114.236 20.0807 114.236 20.0807 114.236C32.8492 106.486 51.8276 105.288 76.9065 110.532L77.1913 110.646C79.9284 111.216 82.6075 111.899 85.1721 112.641C85.9684 112.755 86.5962 112.584 87.1099 112.127C88.0203 111.442 89.1616 110.932 90.6995 110.532V110.475C94.6914 103.293 100.219 97.9913 107.058 94.573C111.789 92.1788 117.205 90.6964 123.36 90.1273Z" fill="url(#paint0_linear_5027_57409)"/>
<path d="M33.3596 23.3839C33.3026 23.3268 33.2454 23.27 33.1338 23.27C33.0194 23.27 32.9625 23.27 32.9057 23.3267C32.8483 23.3839 32.7916 23.4983 32.7344 23.612L28.1748 97.6498C28.1748 97.6498 28.1748 97.6498 28.1748 97.7069C28.232 97.6498 28.2887 97.6498 28.2887 97.6498C28.2887 97.6498 28.3461 97.5935 28.4028 97.5935C28.5746 97.5935 28.686 97.5935 28.8569 97.6498L33.4737 23.612C33.4737 23.5548 33.417 23.4411 33.3596 23.3839Z" fill="url(#paint1_linear_5027_57409)"/>
<path d="M71.8345 5.08901C71.7773 5.03161 71.7202 4.91748 71.6065 4.91748C71.4921 4.91748 71.435 5.03161 71.3213 5.03161C71.2641 5.08901 71.2067 5.20269 71.2067 5.31682L66.3623 93.0346C66.3623 93.0346 66.419 93.0346 66.4762 93.0346C66.5903 93.0346 66.7042 93.0346 66.8186 93.0346C66.8753 93.0346 66.8753 93.0346 66.9327 92.9768C66.9327 92.9768 66.9327 92.9768 66.9327 92.9218C66.9899 92.9218 67.0471 92.9218 67.0471 92.9218L71.7778 7.59675C71.7778 7.48262 71.7778 7.48262 71.7778 7.48262C71.7778 7.48262 71.7778 7.48262 71.7778 7.42544C71.7778 7.42544 71.7778 7.42544 71.835 7.42544C71.7778 7.36849 71.7778 7.36849 71.7778 7.36849C71.7778 7.36849 71.7778 7.36849 71.835 7.36849C71.7778 7.31109 71.7778 7.31109 71.7778 7.31109C71.7778 7.25436 71.7778 7.25435 71.835 7.19695C71.7778 7.19695 71.7778 7.19695 71.7778 7.13955C71.7778 7.13955 71.7778 7.13955 71.7778 7.08327C71.7778 7.08327 71.7778 7.08327 71.835 7.08327C71.7778 7.08327 71.7778 7.08327 71.7778 7.02587C71.7778 7.02587 71.7778 7.02587 71.835 7.02587L71.8919 5.3166C71.8915 5.20269 71.8915 5.14596 71.8345 5.08901Z" fill="url(#paint2_linear_5027_57409)"/>
<path fill-rule="evenodd" clip-rule="evenodd" d="M28.9621 121.592C32.9065 119.249 36.296 118.15 39.1288 118.324L39.1318 118.324L39.1318 118.324C40.5096 118.439 41.8345 118.727 43.0431 119.189C43.1122 119.215 43.1468 119.292 43.1204 119.362C43.094 119.431 43.0166 119.465 42.9474 119.439C41.7653 118.987 40.4659 118.704 39.111 118.591C36.3564 118.423 33.0232 119.492 29.0989 121.823C25.1384 124.177 20.3784 125.148 14.714 124.635C14.6403 124.628 14.5859 124.563 14.5926 124.489C14.5993 124.415 14.6644 124.361 14.7381 124.368C20.3572 124.877 25.0586 123.913 28.962 121.592L28.9621 121.592Z" fill="white"/>
<path fill-rule="evenodd" clip-rule="evenodd" d="M28.0124 118.8C28.0444 118.866 28.0161 118.946 27.9493 118.978C24.7218 120.521 21.9142 121.426 19.543 121.699C17.1712 121.972 15.2269 121.614 13.739 120.622L13.7385 120.621C10.8391 118.67 6.34247 119.151 0.191281 122.057C0.124363 122.089 0.0444862 122.06 0.0128723 121.993C-0.0187416 121.927 0.00987868 121.847 0.0767974 121.815C6.23542 118.906 10.8584 118.36 13.8879 120.399C15.3073 121.346 17.182 121.701 19.5124 121.433C21.8435 121.164 24.6213 120.272 27.8337 118.737C27.9005 118.705 27.9805 118.733 28.0124 118.8Z" fill="white"/>
<path fill-rule="evenodd" clip-rule="evenodd" d="M19.4359 117.378C31.4535 109.079 51.0533 107.78 78.1903 113.368C78.2628 113.383 78.3095 113.454 78.2946 113.526C78.2796 113.599 78.2088 113.646 78.1363 113.631C51.0126 108.046 31.5098 109.366 19.5882 117.599C19.5273 117.641 19.4439 117.626 19.4018 117.565C19.3597 117.504 19.375 117.421 19.4359 117.378Z" fill="white"/>
<path fill-rule="evenodd" clip-rule="evenodd" d="M81.2289 118.399C85.1723 116.057 88.563 114.959 91.397 115.191L91.3972 115.191C92.7757 115.306 94.1003 115.593 95.309 116.052C95.3782 116.079 95.4129 116.156 95.3867 116.225C95.3604 116.294 95.283 116.329 95.2138 116.303C94.0309 115.853 92.7311 115.571 91.375 115.458C88.6228 115.233 85.2907 116.298 81.3664 118.629C77.4042 121.041 72.643 121.957 66.9816 121.499C66.9078 121.493 66.8529 121.428 66.8588 121.354C66.8648 121.28 66.9295 121.225 67.0032 121.231C72.6236 121.687 77.325 120.776 81.2276 118.4L81.2289 118.399L81.2289 118.399Z" fill="white"/>
<path d="M82.8359 58.441L82.5507 57.9275L70.2383 36.2102C76.1675 48.5229 78.333 67.0468 76.7359 91.8405L100.105 88.9897L82.8359 58.441Z" fill="url(#paint3_linear_5027_57409)"/>
<path d="M64.7676 92.2955L70.3515 6.74194C62.2022 37.9778 49.2622 67.1029 31.4229 94.1761L64.7676 92.2955Z" fill="url(#paint4_linear_5027_57409)"/>
<path d="M26.8633 96.1127L31.7651 23.842L5.8877 98.279L26.8633 96.1127Z" fill="url(#paint5_linear_5027_57409)"/>
<path d="M72.0038 7.25659L71.9488 7.31332V7.37072V7.42767V7.48485V7.59898L71.8918 7.65638H71.9488V7.71311V7.77029L77.9331 17.686L77.3049 16.7758C81.5223 29.1423 83.2912 42.425 82.6067 56.4446C82.6067 56.5007 82.6067 56.5007 82.6067 56.5007L82.6634 56.5579C82.7208 56.6722 82.8349 56.729 82.8914 56.8431C82.8914 56.8431 82.8914 56.9003 82.9486 56.9574L88.4762 66.7047C88.533 66.7619 88.5329 66.8189 88.5329 66.9332H88.5904C88.7045 66.9893 88.7045 67.0467 88.8184 67.1041C97.2535 74.5143 106.829 79.5282 117.375 82.15L119.939 86.3105C120.052 86.3105 120.166 86.3105 120.223 86.4242C120.28 86.3675 120.28 86.3105 120.337 86.3105L72.0038 7.25659Z" fill="url(#paint6_linear_5027_57409)"/>
<path d="M53.1854 9.81299C54.1296 9.66568 55.0561 9.88062 55.9432 10.4429C56.0351 10.5014 56.0621 10.6233 56.0038 10.7153C55.986 10.7434 55.9605 10.7624 55.9335 10.7778C55.9731 10.8404 55.9767 10.922 55.9344 10.9888C55.8761 11.0808 55.7541 11.1085 55.662 11.0503C54.846 10.5332 54.0153 10.3462 53.1766 10.4771C52.3342 10.6086 51.4635 11.0637 50.578 11.8638C50.4993 11.9348 50.3788 11.9308 50.3046 11.855C49.5243 11.0579 48.7334 10.6074 47.9432 10.4771C47.1559 10.3473 46.3432 10.5318 45.5067 11.0513C45.414 11.1086 45.2918 11.0795 45.2343 10.9868C45.1771 10.8942 45.2062 10.7728 45.2987 10.7153C45.3001 10.7145 45.3012 10.7133 45.3026 10.7124C45.2464 10.6199 45.2759 10.4991 45.368 10.4419C46.2694 9.88216 47.1777 9.66571 48.077 9.81396C48.9253 9.95387 49.7434 10.4139 50.5233 11.1724C51.4016 10.4122 52.2929 9.95228 53.1854 9.81299ZM49.3387 4.09033C50.2583 3.87225 51.1721 4.05295 52.078 4.59619C52.1714 4.6524 52.2014 4.77319 52.1454 4.8667C52.1271 4.89725 52.1002 4.91781 52.0712 4.93408C52.1097 4.99512 52.1147 5.07397 52.0751 5.14014C52.0189 5.23375 51.8972 5.26463 51.8036 5.2085C50.97 4.70871 50.1614 4.5583 49.3593 4.74854C48.551 4.94032 47.7226 5.48356 46.869 6.42334C46.8314 6.46471 46.7784 6.48896 46.7225 6.48877C46.6666 6.4885 46.6133 6.46403 46.576 6.42236C45.74 5.4838 44.9113 4.94027 44.0985 4.74854C43.2913 4.55819 42.4737 4.70888 41.6405 5.2085C41.5469 5.26437 41.4261 5.23364 41.37 5.14014C41.314 5.04662 41.344 4.92583 41.4374 4.86963C41.4384 4.86899 41.4392 4.86733 41.4403 4.8667L41.4227 4.83057C41.3924 4.74405 41.4261 4.64535 41.5077 4.59619C42.4139 4.05279 43.3361 3.87258 44.2596 4.09033C45.1263 4.29478 45.9722 4.84402 46.7948 5.7251C47.631 4.84439 48.4761 4.29494 49.3387 4.09033Z" fill="white"/>
<defs>
<linearGradient id="paint0_linear_5027_57409" x1="127.92" y1="117.201" x2="-236.57" y2="-284.653" gradientUnits="userSpaceOnUse">
<stop stop-color="#666699"/>
<stop offset="1" stop-color="white"/>
</linearGradient>
<linearGradient id="paint1_linear_5027_57409" x1="127.919" y1="117.201" x2="-236.571" y2="-284.652" gradientUnits="userSpaceOnUse">
<stop stop-color="#666699"/>
<stop offset="1" stop-color="white"/>
</linearGradient>
<linearGradient id="paint2_linear_5027_57409" x1="127.919" y1="117.202" x2="-236.571" y2="-284.651" gradientUnits="userSpaceOnUse">
<stop stop-color="#666699"/>
<stop offset="1" stop-color="white"/>
</linearGradient>
<linearGradient id="paint3_linear_5027_57409" x1="120.338" y1="98.2807" x2="-41.2492" y2="-105.086" gradientUnits="userSpaceOnUse">
<stop stop-color="#FF9900"/>
<stop offset="1" stop-color="white"/>
</linearGradient>
<linearGradient id="paint4_linear_5027_57409" x1="120.338" y1="98.2794" x2="-41.2498" y2="-105.087" gradientUnits="userSpaceOnUse">
<stop stop-color="#FF9900"/>
<stop offset="1" stop-color="white"/>
</linearGradient>
<linearGradient id="paint5_linear_5027_57409" x1="120.338" y1="98.279" x2="-41.2496" y2="-105.087" gradientUnits="userSpaceOnUse">
<stop stop-color="#FF9900"/>
<stop offset="1" stop-color="white"/>
</linearGradient>
<linearGradient id="paint6_linear_5027_57409" x1="120.337" y1="98.2803" x2="-41.2502" y2="-105.086" gradientUnits="userSpaceOnUse">
<stop stop-color="#FF9900"/>
<stop offset="1" stop-color="white"/>
</linearGradient>
</defs>
</svg>
