<svg width="128" height="128" viewBox="0 0 128 128" fill="none" xmlns="http://www.w3.org/2000/svg">
<path d="M127.961 128H0V0.0246582H127.961V128Z" fill="#ED1C24"/>
<path d="M63.92 0L124.574 16.9555L123.85 17.5865L33.9736 9.49735e-05H63.9228" fill="white"/>
<path d="M18.2957 0.0180664L114.276 25.935L113.632 26.4965L9.25056 8.06486L2.04004 0.0182971H18.2995" fill="white"/>
<path d="M103.864 35.0021L103.172 35.6052L23.1327 23.4712L10.676 9.65259L103.864 35.0024" fill="white"/>
<path d="M93.552 43.9919C93.4377 44.1887 93.0868 44.4517 92.8317 44.6196L37.0008 38.8448L24.584 25.0696L93.5524 43.9924" fill="white"/>
<path d="M82.6626 53.4716L81.9903 54.0574L50.835 54.2097L38.498 40.5227L82.6309 53.4993L82.6634 53.4715" fill="white"/>
<path d="M52.1251 55.6274L72.9922 61.9019L64.4713 69.3244L52.125 55.6278" fill="white"/>
<path d="M4.83681 6.95034H4.47355V5.60659H4.46631L3.98402 6.95034H3.76946L3.28718 5.60659H3.27994V6.95034H2.91741V5.28491H3.50282L3.87801 6.27011L4.25285 5.28491H4.83862V6.95034H4.83681ZM2.71374 5.60659H2.20649V6.95034H1.80669V5.60659H1.2998V5.28494H2.71369V5.60659" fill="white"/>
<path d="M4.12988 96.7672L22.5235 117.029V97.9965H25.5783V124.82L7.18464 104.556V123.76H4.12988V96.7659" fill="white"/>
<path d="M30.7669 116.278C30.8012 119.011 32.6463 121.574 35.5851 121.574C37.9423 121.574 39.2069 120.378 40.3685 118.465L42.9656 119.934C41.462 122.702 38.66 124.307 35.5506 124.307C30.6642 124.307 27.6914 120.617 27.6914 115.902C27.6914 110.981 30.3226 107.291 35.4822 107.291C40.5732 107.291 42.9655 111.05 42.9655 115.799V116.278L30.7669 116.278ZM39.8903 113.954C39.5145 111.562 37.9423 109.956 35.4825 109.956C33.0907 109.956 31.3138 111.665 30.938 113.954H39.8905" fill="white"/>
<path d="M60.9062 116.45L68.1841 97.4512L75.4625 116.45L82.6725 97.9979H86.1577L75.4625 124.787L68.1841 105.892L60.9062 124.787L50.2109 97.9979H53.6962L60.9062 116.45Z" fill="white"/>
<path d="M98.0483 123.762H94.9729V121.267H94.9046C93.6743 123.078 91.761 124.308 89.4713 124.308C84.5852 124.308 81.8174 120.242 81.8174 115.663C81.8174 111.29 84.7218 107.292 89.369 107.292C91.7265 107.292 93.6402 108.521 94.9046 110.435H94.9729V107.77H98.0483V123.762ZM95.1439 115.766C95.1439 112.656 93.2645 110.025 89.9499 110.025C86.7719 110.025 84.8928 112.793 84.8928 115.766C84.8928 118.772 86.7036 121.575 89.9499 121.575C93.2985 121.575 95.1439 118.909 95.1439 115.766Z" fill="white"/>
<path d="M103.574 110.368H103.677C104.429 108.488 106.001 107.292 108.051 107.292C108.939 107.292 109.827 107.6 110.579 108.078L109.178 110.88C108.631 110.402 108.016 110.231 107.299 110.231C103.984 110.231 103.574 113.306 103.574 115.903V123.762H100.499V107.77H103.574V110.367" fill="white"/>
<path d="M113.117 116.278C113.151 119.011 114.996 121.574 117.935 121.574C120.293 121.574 121.557 120.378 122.719 118.465L125.316 119.934C123.812 122.702 121.01 124.307 117.901 124.307C113.015 124.307 110.042 120.617 110.042 115.902C110.042 110.981 112.673 107.291 117.833 107.291C122.924 107.291 125.316 111.05 125.316 115.799V116.278L113.117 116.278ZM122.241 113.954C121.864 111.562 120.293 109.956 117.833 109.956C115.441 109.956 113.664 111.665 113.288 113.954H122.241" fill="white"/>
<path d="M48.9264 123.761H45.8604V110.68H44.1914V107.818H45.8604V102.785H48.9264V107.818H51.9241V110.68H48.9264V123.761Z" fill="white"/>
<path d="M122.076 105.757C122.076 104.893 122.761 104.2 123.625 104.2C124.486 104.2 125.174 104.893 125.174 105.757C125.174 106.614 124.486 107.306 123.625 107.306C122.761 107.306 122.076 106.614 122.076 105.757ZM124.806 105.757C124.806 105.061 124.29 104.568 123.625 104.568C122.948 104.568 122.444 105.061 122.444 105.757C122.444 106.446 122.948 106.939 123.625 106.939C124.29 106.939 124.806 106.446 124.806 105.757ZM124.368 106.544H123.977L123.617 105.863H123.367V106.544H123.007V104.932H123.789C124.161 104.932 124.415 104.999 124.415 105.425C124.415 105.722 124.262 105.843 123.977 105.863L124.368 106.544ZM123.797 105.621C123.977 105.621 124.079 105.581 124.079 105.378C124.079 105.214 123.872 105.214 123.715 105.214H123.367V105.621H123.797" fill="white"/>
</svg>
