<svg width="128" height="128" viewBox="0 0 128 128" fill="none" xmlns="http://www.w3.org/2000/svg">
<path d="M117.996 70.7194L120.755 61.7187V0.0743408C88.5164 0.0743408 85.159 12.4378 85.159 24.2409V91.9379C85.159 95.4436 84.8183 99.1637 84.1095 102.807C101.204 99.6939 112.356 89.13 117.996 70.7194Z" fill="url(#paint0_linear_5027_60862)"/>
<path d="M35.4745 14.1493H28.3504V7.11312H35.4745V14.1493ZM42.5904 24.782H35.4745V17.7402H42.5904V24.782ZM35.4333 33.637H28.3916V26.598H35.4333V33.637ZM28.3147 44.1926H21.2757V37.1537H28.3147V44.1926ZM14.1159 7.11312H7V-3.8147e-06H14.1159V7.11312Z" fill="#39A2E1"/>
<path d="M21.24 51.2254H28.3476V66.9051H35.4745V40.6725H42.5904V91.9398C42.5904 116.266 63.8831 128 63.8831 128C28.1169 128 7 106.323 7 77.4745V19.465H14.1159V58.2644H21.24V51.2254Z" fill="#39A2E1"/>
<path d="M68.8744 106.605C59.3792 106.173 52.0738 103.764 46.4141 100.277C50.2467 116.913 64.5802 125.084 65.2725 125.471L69.4981 127.801C101.83 125.642 120.754 104.769 120.754 77.4763V71.5611C113.07 96.6343 95.1839 107.789 68.8744 106.605Z" fill="url(#paint1_linear_5027_60862)"/>
<defs>
<linearGradient id="paint0_linear_5027_60862" x1="102.432" y1="102.807" x2="102.432" y2="0.0743408" gradientUnits="userSpaceOnUse">
<stop stop-color="#0D0D0D"/>
<stop offset="1" stop-color="#494949"/>
</linearGradient>
<linearGradient id="paint1_linear_5027_60862" x1="46.4141" y1="99.6812" x2="120.752" y2="99.6812" gradientUnits="userSpaceOnUse">
<stop stop-color="#656263"/>
<stop offset="1" stop-color="#A7A5A6"/>
</linearGradient>
</defs>
</svg>
