<svg width="128" height="128" viewBox="0 0 128 128" fill="none" xmlns="http://www.w3.org/2000/svg">
<path d="M20.3733 11.2741V76.6227C20.3733 85.9629 29.6143 98.8644 39.0664 105.213L64.8044 122.498L90.277 105.213C99.6985 98.8189 108.97 85.9628 108.97 76.6227V11.2741C79.6964 2.61562 50.1454 3.22212 20.3733 11.2741Z" fill="#265AB1"/>
<path opacity="0.3" d="M26.9883 21.2903V76.3296C26.9883 84.1965 37.7889 95.4649 42.7328 100.41V44.7083L57.2863 57.8072V81.093H71.3109V57.8072L85.8643 44.7083V100.41C90.8086 95.4656 101.609 84.1965 101.609 76.3296V21.2903H86.6577L64.2986 42.5916L41.9385 21.2903H26.9883Z" fill="black"/>
<path d="M26.9883 18.6851V73.7244C26.9883 81.5913 37.7889 92.8596 42.7328 97.8046V42.103L57.2863 55.202V78.4877H71.3109V55.202L85.8643 42.103V97.8046C90.8086 92.8603 101.609 81.5913 101.609 73.7244V18.6851H86.6577L64.2986 39.9863L41.9385 18.6851H26.9883Z" fill="white"/>
<path opacity="0.2" d="M64.4855 5.00206C49.7175 5.07787 34.8857 7.24226 20.001 11.2682V13.8791C49.7731 5.8271 79.3233 5.22059 108.597 13.8791V11.2682C93.96 6.93909 79.2554 4.92634 64.4855 5.00206Z" fill="white"/>
<path opacity="0.3" d="M20 74.0035V76.6144C20 85.9547 29.2408 98.8557 38.693 105.204L64.4303 122.489L89.9025 105.204C99.3239 98.8102 108.596 85.9547 108.596 76.6144V74.0035C108.596 83.3438 99.3239 96.1993 89.9025 102.593L64.4303 119.878L38.693 102.593C29.241 96.2448 20 83.3438 20 74.0035Z" fill="black"/>
<path opacity="0.2" d="M64.4857 5.0079C64.4677 5.008 64.4497 5.00831 64.4316 5.00841V122.498L89.9032 105.212C99.3248 98.8184 108.596 85.9634 108.596 76.6232V11.2746C93.96 6.94541 79.2543 4.93211 64.4857 5.0079Z" fill="black"/>
</svg>
