<svg width="128" height="128" viewBox="0 0 128 128" fill="none" xmlns="http://www.w3.org/2000/svg">
<path d="M32.027 42.1012H56.241L52.4984 56.4688C51.9701 58.3513 50.8411 60.0095 49.2832 61.1911C47.7237 62.3941 45.8018 63.0318 43.8326 62.9996H32.6549C30.1949 62.9577 27.794 63.7551 25.8479 65.2602C23.8591 66.8036 22.4157 68.9423 21.7285 71.364C21.2347 73.1492 21.1744 75.0265 21.5527 76.8397C21.9305 78.4815 22.6399 80.0285 23.6375 81.3862C24.6576 82.733 25.9835 83.8179 27.5057 84.5511C29.106 85.3422 30.8698 85.7466 32.6549 85.7316H39.4369C40.6818 85.7073 41.8614 86.2878 42.6018 87.2889C43.3931 88.2583 43.6476 89.5591 43.2799 90.7553L39.0098 106.63H31.4744C26.5374 106.679 21.6639 105.515 17.2825 103.239C13.0928 101.118 9.42203 98.0988 6.53192 94.3974C3.67849 90.6972 1.68737 86.4063 0.704487 81.8383C-0.348646 76.9977 -0.219413 71.9743 1.08126 67.1943L1.50827 65.4612C2.4124 62.0865 3.8725 58.8862 5.82861 55.9916C7.75242 53.1846 10.1093 50.7004 12.8115 48.6319C15.5127 46.5592 18.5329 44.9388 21.7536 43.8343C25.0546 42.6764 28.5287 42.0903 32.027 42.1012ZM44.2596 106.73L65.3087 27.6331C65.837 25.7169 66.9853 24.0298 68.574 22.8355C70.132 21.6088 72.0672 20.9608 74.0498 21.0018H96.4302C101.33 20.9715 106.165 22.1263 110.522 24.3677C119.101 28.7267 125.263 36.7153 127.301 46.1201C128.361 50.9541 128.214 55.975 126.874 60.7389L126.447 62.3465C125.545 65.7257 124.094 68.9333 122.151 71.8412C120.275 74.7127 117.941 77.258 115.244 79.3767C109.729 83.6249 102.964 85.9298 96.0032 85.9326H76.6119L80.3796 71.2384C80.9012 69.3593 82.0211 67.7015 83.5697 66.5161C85.1373 65.3076 87.0661 64.6617 89.0454 64.6825H95.4506C100.593 64.6712 105.068 61.1599 106.302 56.1674C106.789 54.4575 106.841 52.6529 106.452 50.9177C106.086 49.2722 105.375 47.7229 104.368 46.3713C103.314 45.0536 101.985 43.982 100.474 43.2315C98.9196 42.4323 97.1986 42.0107 95.4506 42.0007H83.3687L67.8205 100.175C67.2807 102.052 66.1539 103.706 64.6054 104.897C63.0839 106.102 61.1958 106.749 59.2552 106.73H44.2596Z" fill="url(#paint0_linear_5027_56176)"/>
<defs>
<linearGradient id="paint0_linear_5027_56176" x1="64" y1="21" x2="64" y2="106.731" gradientUnits="userSpaceOnUse">
<stop stop-color="#FF9364"/>
<stop offset="1" stop-color="#F26C32"/>
</linearGradient>
</defs>
</svg>
