<svg width="128" height="128" viewBox="0 0 128 128" fill="none" xmlns="http://www.w3.org/2000/svg">
<path d="M72.5786 87.7134L61.4269 25.5694C60.6956 21.1828 59.2331 16.7962 56.4909 12.5923C52.8346 6.74346 46.9845 2.72237 40.4031 1.07739C14.4433 -5.13701 -4.75228 20.8172 6.58228 43.8471L33.639 101.787C34.3702 103.615 35.4671 105.443 36.7468 107.088C38.9406 110.012 41.8657 112.205 45.3391 113.302C62.8894 118.785 76.9662 103.249 72.5786 87.7134Z" fill="url(#paint0_linear_5027_56437)"/>
<path d="M123.218 48.5994C120.659 44.5783 117.003 41.4711 112.798 39.6434L46.6188 3.27085C44.7906 2.35697 42.7797 1.44309 40.5859 0.894756C12.2495 -5.6852 -8.04303 25.3868 10.0557 49.5133C12.7979 53.1688 16.637 56.0933 21.0246 57.7382L87.7522 87.7136C89.2148 88.6275 90.6773 89.1758 92.3226 89.7241C117.917 97.7663 137.295 70.7154 123.218 48.5994Z" fill="url(#paint1_linear_5027_56437)"/>
<path d="M123.218 48.5994C119.928 43.4817 114.809 39.8261 108.776 38.3639C102.377 36.9017 96.3444 37.4501 91.2256 39.6434L20.8417 66.146C20.8417 66.146 20.476 66.3287 19.7448 66.8771C1.64604 74.0053 -7.31191 97.5835 7.31332 117.141C10.604 121.527 15.1744 124.817 20.2932 126.279C29.9824 129.204 38.7576 128.107 45.8874 124.269H46.0702L114.809 87.5308C114.809 87.5308 114.809 87.5308 114.992 87.348C127.057 80.4025 132.725 63.4043 123.218 48.5994Z" fill="url(#paint2_linear_5027_56437)"/>
<path d="M91.9568 23.5591C94.1506 18.6242 93.9678 12.5925 90.3115 7.10923C88.3005 3.81926 85.0098 1.62594 81.3535 0.712058C73.1268 -1.29848 66.1799 2.53982 62.8892 8.38867L6.39922 76.9299C6.39922 76.9299 6.39922 76.9299 6.39922 77.1126C-1.64465 87.7137 -2.92436 103.432 7.3133 117.141C10.604 121.527 15.1744 124.817 20.2932 126.28C39.4888 132.311 55.5766 121.71 60.6954 106.54L91.9568 23.5591Z" fill="url(#paint3_linear_5027_56437)"/>
<path d="M103.474 24.6555H24.498V103.615H103.474V24.6555Z" fill="black"/>
<path d="M61.6093 88.8096H31.9932V93.7445H61.6093V88.8096Z" fill="white"/>
<path d="M41.8652 41.6537H31.9932V35.0737H59.0498V41.6537H48.995V67.7907H41.8652V41.6537Z" fill="white"/>
<path d="M59.416 51.5236C59.416 42.202 66.363 34.5254 76.4178 34.5254C82.6336 34.5254 86.2899 36.5359 89.3977 39.6431L84.8274 44.9437C82.2679 42.5676 79.7085 41.2881 76.4178 41.2881C70.9334 41.2881 66.9114 45.8575 66.9114 51.5236V51.3408C66.9114 57.0069 70.7506 61.5763 76.4178 61.5763C80.0742 61.5763 82.4508 60.1141 85.0102 57.738L89.5806 62.3074C86.2899 65.9629 82.4508 68.1563 76.235 68.1563C66.5458 68.339 59.416 60.8452 59.416 51.5236Z" fill="white"/>
<defs>
<linearGradient id="paint0_linear_5027_56437" x1="3.2437" y1="57.323" x2="73.4309" y2="57.323" gradientUnits="userSpaceOnUse">
<stop stop-color="#905CFB"/>
<stop offset="0.0677254" stop-color="#776CF9"/>
<stop offset="0.1729" stop-color="#5681F7"/>
<stop offset="0.2865" stop-color="#3B92F5"/>
<stop offset="0.4097" stop-color="#269FF4"/>
<stop offset="0.5474" stop-color="#17A9F3"/>
<stop offset="0.7111" stop-color="#0FAEF2"/>
<stop offset="0.9677" stop-color="#0CB0F2"/>
</linearGradient>
<linearGradient id="paint1_linear_5027_56437" x1="9.71072" y1="17.8365" x2="126.549" y2="80.3618" gradientUnits="userSpaceOnUse">
<stop stop-color="#905CFB"/>
<stop offset="0.0677254" stop-color="#776CF9"/>
<stop offset="0.1729" stop-color="#5681F7"/>
<stop offset="0.2865" stop-color="#3B92F5"/>
<stop offset="0.4097" stop-color="#269FF4"/>
<stop offset="0.5474" stop-color="#17A9F3"/>
<stop offset="0.7111" stop-color="#0FAEF2"/>
<stop offset="0.9677" stop-color="#0CB0F2"/>
</linearGradient>
<linearGradient id="paint2_linear_5027_56437" x1="-35.2527" y1="129.606" x2="102.335" y2="60.797" gradientUnits="userSpaceOnUse">
<stop stop-color="#3BEA62"/>
<stop offset="0.117" stop-color="#31DE80"/>
<stop offset="0.3025" stop-color="#24CEA8"/>
<stop offset="0.4844" stop-color="#1AC1C9"/>
<stop offset="0.6592" stop-color="#12B7DF"/>
<stop offset="0.8238" stop-color="#0EB2ED"/>
<stop offset="0.9677" stop-color="#0CB0F2"/>
</linearGradient>
<linearGradient id="paint3_linear_5027_56437" x1="71.1961" y1="10.8567" x2="9.93653" y2="141.843" gradientUnits="userSpaceOnUse">
<stop stop-color="#3BEA62"/>
<stop offset="0.0939775" stop-color="#2FDB87"/>
<stop offset="0.196" stop-color="#24CEA8"/>
<stop offset="0.3063" stop-color="#1BC3C3"/>
<stop offset="0.4259" stop-color="#14BAD8"/>
<stop offset="0.5596" stop-color="#10B5E7"/>
<stop offset="0.7185" stop-color="#0DB1EF"/>
<stop offset="0.9677" stop-color="#0CB0F2"/>
</linearGradient>
</defs>
</svg>
