<svg width="128" height="128" viewBox="0 0 128 128" fill="none" xmlns="http://www.w3.org/2000/svg">
<path d="M0 92.8661H127.986V30H0V92.8661Z" fill="#FAD111"/>
<path d="M119.362 41.5408C112.991 39.0744 104.997 37.3762 96.3204 37.3762C87.3096 37.3762 79.0424 38.9627 72.5723 41.5779L72.7457 41.9498L119.139 41.9126L119.362 41.5408Z" fill="#1E4CA1"/>
<path d="M128 53.8618C117.601 51.5564 104.971 50.0194 91.3494 50.0194C89.2175 50.0194 87.1103 50.0566 85.0406 50.1184C84.4457 49.4987 83.8011 48.9533 83.107 48.4947L120.959 48.4693L121.207 48.0726C113.213 45.4449 103.198 43.6477 92.3147 43.6477C81.1472 43.6477 70.8845 45.2838 62.8033 48.0105L63.0511 48.5187L79.8457 48.5068C80.6266 49.077 81.3207 49.6595 81.9652 50.2421C70.5497 50.7626 60.1012 52.2128 51.4496 54.3572L51.7469 54.9273L85.5966 54.9019C85.8691 55.4596 86.1047 56.0049 86.2907 56.5503C85.6957 56.5503 85.1132 56.5384 84.5182 56.5384C66.4718 56.5384 49.888 58.2737 36.8112 61.1863L37.0837 61.7193L87.0468 61.6938C87.0213 62.3259 86.9599 62.9457 86.8733 63.553C83.7004 63.4414 80.4901 63.3919 77.2303 63.3919C56.6801 63.3919 37.7786 65.2263 22.867 68.3002L23.1644 68.8951L85.4355 68.8696C85.2002 69.5265 84.9521 70.1463 84.7042 70.7412C66.9179 70.7412 50.5571 72.4393 37.5683 75.2652L37.903 75.9221L82.9328 75.8966C81.8545 81.6725 83.8996 88.3285 87.0603 92.7782H0.0372314V97.7235H127.999V92.7782H96.5912C94.732 91.0429 92.4266 88.5764 90.6913 85.6389C92.5133 84.2383 96.145 79.9993 99.2437 75.8966L127.998 75.8847V74.732C120.376 73.2447 111.749 72.0672 102.466 71.3854C103.098 70.431 103.631 69.5758 104.015 68.8693L127.998 68.8574V67.8906C116.955 65.8083 103.977 64.259 89.9223 63.6641C89.8968 63.0072 89.8604 62.3503 89.7859 61.6933L127.998 61.6815V60.5783C116.719 58.3597 103.258 56.8352 88.6936 56.5748C88.5077 56.0047 88.3094 55.4469 88.0862 54.9016L127.997 54.8897L128 53.8618ZM89.7002 68.8717H100.992C100.669 69.5905 100.26 70.3838 99.777 71.2142C96.3932 71.0036 92.9228 70.8548 89.3779 70.7928C89.5019 70.1607 89.6133 69.5162 89.7002 68.8717ZM88.2252 75.8993H96.418C94.3233 78.3038 91.7204 80.473 88.8449 81.5141C88.2872 79.7417 88.0269 77.8576 88.2252 75.8993Z" fill="#1E4CA1"/>
</svg>
