<svg width="128" height="128" viewBox="0 0 128 128" fill="none" xmlns="http://www.w3.org/2000/svg">
<path d="M51.8145 76.5166C52.2603 76.5246 52.2047 76.9226 52.21 77.0732C52.2997 80.6197 46.1047 95.297 44.2773 97.1006C39.7909 101.529 35.1568 108.023 33.4668 111.593C31.4653 115.809 31.8081 112.889 32.5078 110.795C36.8992 97.6472 41.307 97.9111 42.8281 92.667C44.225 87.8505 46.2267 80.3008 46.7549 78.79C47.2434 77.3958 49.0549 76.4585 51.8145 76.5166ZM43.8525 20.749C44.5892 20.868 44.2246 23.1629 43.9922 24.9453L44.0264 25.9492C42.7303 26.3297 42.7092 28.2829 43.3691 27.2773C43.847 26.7334 44.0267 26.654 44.6074 26.5537C44.6074 26.5537 45.0457 26.5878 45.418 26.1895C46.7832 24.9351 47.3701 25.7246 47.3701 25.7246C46.8816 26.7756 45.6006 29.1709 45.6006 29.1709C44.7556 30.6177 43.6411 30.982 42.5137 32.2705C40.0765 35.0562 38.2329 39.9042 38.4307 41.1748C38.4307 41.1748 38.4363 41.5048 38.7422 41.5605C39.3311 41.6767 40.8425 41.2409 45.9707 40.0605C49.219 39.313 56.8262 36.0762 59.3057 37.8955C60.8106 38.9994 58.3101 42.635 56.7178 44.832C53.8527 48.7824 52.4244 51.7035 51.4395 54.624C50.539 57.2858 50.1509 62.0095 51.6084 64.4707C64.4447 60.0821 78.7967 61.8676 79.9375 68.5723C81.012 77.2178 63.5837 83.8251 62.9473 100.411C62.9735 101.494 61.8376 101.633 61.6211 100.73C59.4557 88.9741 73.5309 74.4023 74.875 72.1709C75.5586 71.0963 74.7402 70.4785 74.7402 70.4785C70.4622 66.7344 61.6052 72.325 54.6709 73.1172C31.2414 75.7812 45.0929 50.2263 46.3057 46C34.4597 50.1617 31.5655 48.5478 30.9951 45.3262C30.1422 40.3988 35.4016 34.1617 37.7969 31.7822C38.3038 31.2648 38.7982 30.6812 38.7324 30.2666C38.3284 27.6048 38.5128 26.2389 38.8086 25.3252C38.823 25.2886 39.9729 22.3804 41.2139 22.1777C41.6918 21.5862 42.3792 21.0507 42.9707 21.1299C42.9707 21.1299 43.4063 20.6804 43.8525 20.749ZM58.9033 19.5449C58.9033 19.5449 59.8195 19.6106 59.5977 19.7559C58.7473 20.3157 55.6768 22.1116 56.6006 25.4385C57.0759 27.1654 58.7105 28.6023 58.3252 30.5879C57.9845 32.3545 57.9555 33.2158 58.04 34.1797C58.1614 35.5633 56.7512 35.5925 56.3789 35.6611C52.9515 36.3001 52.3809 36.8174 49.3604 37.5752C47.3512 38.0795 47.931 37.5649 48.2822 37.3271C49.7979 36.3765 51.8234 35.724 53.3945 34.916C56.3094 33.4137 56.1285 32.3842 56.0176 31.7715C55.8776 30.9978 55.0932 30.2158 54.2852 29.582C51.1824 27.1447 52.2758 23.3952 53.4219 21.9561C54.6392 20.4272 57.0628 19.3997 58.9033 19.5449Z" fill="url(#paint0_linear_5027_62042)"/>
<path d="M40.9429 72.2887C40.7844 72.1224 40.3091 71.2615 39.0865 74.4118C38.1226 77.2902 37.51 81.5364 37.51 81.5364C37.1403 84.7263 36.76 87.7235 36.2557 90.5438C35.9573 92.1916 35.0357 93.6888 34.2883 94.6765C29.1733 101.442 29.2156 115.01 26.0705 118.448C26.0705 118.448 25.0459 119.515 25.0011 120.822C24.9614 121.902 26.0388 126.13 27.5282 127.376C27.5282 127.376 28.5977 128.353 30.9532 127.862C32.5798 127.524 30.2032 126.156 29.8942 124.622C29.5589 123.132 29.2975 118.749 29.374 117.941C29.374 117.941 30.6046 105.722 34.5973 100.135C36.2266 97.4043 39.5486 95.1623 40.6049 91.1353C44.1407 77.6572 45.4743 75.0535 44.3784 74.6548C43.067 74.1399 41.8915 73.3303 40.9429 72.2887ZM86.0141 20.0243C85.61 24.4501 80.8093 31.036 78.5753 32.7682C74.5641 35.8737 71.5484 33.8483 65.8551 35.1158C64.2839 35.467 63.864 33.1036 64.6905 31.7252C65.488 30.4022 66.4836 30.0061 67.7088 29.375C68.2423 29.1003 68.8496 28.6593 68.7889 28.052C68.7572 27.7166 68.6093 27.508 68.3479 27.2941C68.1762 27.1515 68.0733 26.9535 68.4403 26.391C68.6621 26.0451 67.9016 25.7968 67.9016 25.7968C67.5689 25.6199 68.0917 25.0918 68.0099 24.9518C67.8277 24.6349 67.4738 24.796 67.3339 24.4871C67.1411 24.0566 67.6745 23.8903 67.6983 23.3965C67.722 22.966 65.8973 22.6201 65.4114 22.2161C64.2152 21.2364 62.776 20.2963 60.8774 19.9187C60.7559 19.8949 58.8467 22.0365 59.9056 24.3471C59.8898 24.3181 58.8942 24.2072 58.6143 24.9149C58.2182 25.9104 59.1636 27.0195 60.0984 27.5793C60.8563 28.0361 61.5825 28.5379 61.4451 30.1302C61.3422 31.3132 59.9558 33.1644 60.983 35.3376C62.3879 38.1209 65.4458 40.8197 58.5774 48.108C55.9182 50.9282 53.3831 55.0926 54.8698 59.8405C55.0758 60.4875 55.3161 60.366 55.4878 60.3317C55.8205 60.2578 56.4014 60.0993 57.4207 59.8802C58.2446 59.7059 59.4065 52.5338 67.5742 46.8616C74.5535 42.0186 71.9471 44.2394 80.5267 39.2749C87.2552 35.3825 90.2101 26.2642 90.4002 20.4917C90.6934 11.5266 88.1213 16.5888 86.0246 16.6838C85.1162 16.7287 84.7175 16.2006 84.7175 16.2006C84.7175 16.2006 95.0003 10.1323 100.818 8.05673C100.881 7.82435 100.799 7.36751 100.556 6.89747C100.308 6.41158 99.9754 6.06565 99.7456 5.99963C95.7608 8.66937 89.9196 11.4104 89.9196 11.4104C89.9196 11.4104 96.9175 5.08332 102.473 2.2525C102.513 1.96731 102.352 1.43653 101.995 0.924239C101.621 0.38554 101.169 0.0422509 100.889 0C97.7466 3.15562 88.0527 10.6736 88.0527 10.6736C87.0519 10.4967 85.9797 10.7581 85.544 11.0803C85.2324 11.3074 85.1532 11.5926 85.0687 11.9227C85.0687 11.9227 84.7518 12.031 84.4376 12.3426C84.1867 12.7202 84.2052 12.9869 84.3135 13.7844C83.8804 14.096 83.8778 14.0801 83.45 14.3864C82.7185 13.0687 81.5249 13.89 81.5249 13.89L81.9659 15.4005C78.3123 18.0102 74.6283 20.5771 70.9146 23.1007C70.9146 23.1007 69.795 23.5972 69.6577 23.6526C69.6243 23.8121 69.6261 23.977 69.6631 24.1357C69.7 24.2944 69.7712 24.4432 69.8716 24.5716C70.0343 24.8157 70.2833 24.9893 70.5687 25.0575L71.5854 24.1596C71.5854 24.1596 76.3782 21.0991 82.663 17.3889C82.663 17.3889 83.3285 19.9953 86.0141 20.0243ZM70.9542 73.2024C69.8716 75.3123 64.2311 80.5171 60.5473 90.5279L60.2859 91.1485C60.0218 91.7875 59.4461 91.2937 59.5306 90.7471C60.8668 79.8754 66.0162 75.8774 67.2652 74.3696C67.2652 74.3696 68.1789 73.5298 66.4281 72.8327C66.4281 72.8327 64.8463 72.3046 67.8541 71.9375C67.8514 71.9375 71.8178 71.478 70.9542 73.2024Z" fill="url(#paint1_linear_5027_62042)"/>
<defs>
<linearGradient id="paint0_linear_5027_62042" x1="55.4437" y1="19.5312" x2="55.4437" y2="113.746" gradientUnits="userSpaceOnUse">
<stop stop-color="#FF564B"/>
<stop offset="1" stop-color="#CF4037"/>
</linearGradient>
<linearGradient id="paint1_linear_5027_62042" x1="63.7397" y1="0" x2="63.7397" y2="128" gradientUnits="userSpaceOnUse">
<stop stop-color="#3883F3"/>
<stop offset="1" stop-color="#255398"/>
</linearGradient>
</defs>
</svg>
