<svg width="128" height="128" viewBox="0 0 128 128" fill="none" xmlns="http://www.w3.org/2000/svg">
<path d="M112.769 0H14.698C11.8671 0.00470719 9.15313 1.1294 7.1487 3.12845C5.14428 5.12751 4.0123 7.83849 4 10.6694V117.334C4.01325 120.164 5.14564 122.875 7.14996 124.873C9.15428 126.871 11.8678 127.995 14.698 128H112.769C115.599 127.995 118.312 126.871 120.317 124.873C122.321 122.875 123.453 120.164 123.467 117.334V112.353C123.287 105.955 123.108 92.623 123.108 86.577C123.108 83.2009 120.614 80.3553 117.403 80.3553C113.837 80.3553 111.518 82.4877 109.733 84.2653C104.386 89.0678 96.365 89.9566 89.4122 88.7094C86.201 87.9998 83.169 87.111 80.671 85.5125C73.005 81.0685 68.0125 72.7107 68.0125 63.8226C68.0125 54.9345 73.005 46.7559 80.671 42.1327C83.3482 40.5342 86.3766 39.6454 89.4086 38.9358C96.1822 37.6886 104.389 38.5774 109.737 43.3799C111.697 45.1575 114.016 47.2864 117.406 47.2864C120.614 47.2864 123.108 44.4443 123.108 41.0682C123.108 35.2013 123.287 21.6899 123.467 15.289V10.6658C123.452 7.83615 122.32 5.127 120.315 3.12949C118.311 1.13199 115.598 0.00828037 112.769 0.0035841V0Z" fill="url(#paint0_linear_5027_60463)"/>
<defs>
<linearGradient id="paint0_linear_5027_60463" x1="63.7333" y1="0" x2="63.7333" y2="128" gradientUnits="userSpaceOnUse">
<stop stop-color="#FF9989"/>
<stop offset="1" stop-color="#F46A54"/>
</linearGradient>
</defs>
</svg>
