<svg width="128" height="128" viewBox="0 0 128 128" fill="none" xmlns="http://www.w3.org/2000/svg">
<path fill-rule="evenodd" clip-rule="evenodd" d="M0 67.3129V53.8317H2.95917V56.1332C3.72682 54.4886 4.82294 53.6125 6.79596 53.5025V56.9001H6.13829C4.60372 56.9001 3.17912 58.7632 3.17912 59.0924V67.3129H0ZM10.9605 58.8731C11.0705 57.0101 12.0566 55.914 13.5912 55.914C15.1258 55.914 16.1119 57.0101 16.1119 58.8731H10.9605ZM19.0718 61.0654V59.75C19.0718 56.4617 17.0988 53.5025 13.5912 53.5025C9.97436 53.5025 7.78211 56.2424 7.78211 60.517C7.78211 64.7922 9.97435 67.5314 13.4819 67.5314C16.1126 67.5314 17.8664 66.6552 19.0718 64.7915L16.7703 63.3661C16.0027 64.2438 15.2357 64.9007 13.8111 64.9007C12.2766 64.9007 11.0712 63.8039 10.9612 61.0639H19.0718V61.0654ZM28.1693 63.6953C27.5116 64.3538 26.197 65.1207 25.2101 65.1207C24.3332 65.1207 23.6763 64.573 23.6763 63.5861C23.6763 61.7223 25.9778 61.2846 28.17 60.8462L28.1693 63.6953ZM31.5669 67.3129C31.4576 66.656 31.3477 65.9968 31.3477 65.3399V58.9824C31.3477 54.9271 29.8131 53.6117 26.1962 53.5025C24.2232 53.5025 21.921 54.5986 21.1541 56.0232L23.2364 57.5571C23.784 56.6802 24.6609 55.9132 26.1955 55.9132C27.2916 55.9132 28.1678 56.4609 28.1678 57.5571V58.6532C22.9064 59.3109 20.3857 60.8454 20.3857 63.9138C20.3857 65.7776 21.5911 67.5314 24.1125 67.5314C25.7563 67.5314 26.9624 66.9837 28.2778 66.1061L28.497 67.3122L31.5669 67.3129ZM33.9784 48.5696H37.1567V67.3129H33.9784V48.5696Z" fill="#C23C40"/>
<path fill-rule="evenodd" clip-rule="evenodd" d="M39.8965 67.4223V53.9411H42.8557V55.3664C44.0618 54.2703 45.0479 53.7226 46.9109 53.7226C48.3363 53.7226 49.6509 54.3802 50.1993 55.6956C51.2954 54.4895 52.6108 53.7226 54.9123 53.7226C56.2276 53.7226 58.2006 54.4895 58.2006 57.6679V67.423H55.0223V57.9964C55.0223 56.9002 54.5838 56.3525 53.3784 56.2426C52.5015 56.2426 51.4061 57.0102 50.6385 57.6672V67.4223H47.4601V57.9964C47.4601 56.9002 47.0216 56.3525 45.8163 56.2426C45.0486 56.2426 43.9525 57.0102 43.1856 57.6672V67.4223H39.8965ZM63.2421 58.9825C63.2421 57.1195 64.2282 56.0233 65.8735 56.0233C67.4066 56.0233 68.3942 57.1195 68.3942 58.9825H63.2421ZM71.3534 61.1747V59.8594C71.3534 56.681 69.3804 53.6119 65.8742 53.7218C62.2567 53.7218 60.0644 56.3525 60.0644 60.627C60.0644 65.0115 62.2567 67.6415 65.765 67.6415C68.2857 67.6415 70.1495 66.8746 71.3541 64.9016L69.0526 63.4762C68.2857 64.4631 67.5181 65.1208 66.0942 65.1208C64.5596 65.1208 63.2435 64.0254 63.2435 61.1747H71.3534ZM81.8754 63.9147C81.2185 64.4638 80.7801 65.1208 79.464 65.1208C77.491 65.1208 76.3956 63.5862 76.3956 60.627C76.3956 57.7771 77.491 56.2426 79.464 56.2426C80.4509 56.2426 81.2178 56.7903 81.8754 57.4479V63.9147ZM85.1645 48.6797H81.8754V55.1464C81.2185 54.3788 79.6832 53.7211 78.5878 53.7211C75.0802 53.7211 73.2164 57.0095 73.2164 60.2978C73.2164 64.4631 74.9702 67.6415 78.5878 67.6415C80.0117 67.6415 81.1085 67.0938 82.2039 65.997L82.4231 67.4223H85.1645V48.6797ZM87.466 53.9411H90.7537V67.423H87.466V53.9411ZM87.466 48.4604H90.7537V51.4196H87.466V48.4604ZM100.399 63.9147C99.7419 64.4638 98.5351 65.34 97.4404 65.34C96.5628 65.34 95.9058 64.6831 95.9058 63.6955C95.9058 61.8317 98.3173 61.394 100.4 60.9555V63.9147H100.399ZM103.907 67.4223C103.688 66.8746 103.688 66.1062 103.688 65.4493V59.0918C103.688 55.0365 102.153 53.7211 98.4258 53.7211C96.562 53.6119 94.2605 54.7073 93.4944 56.1326L95.4674 57.6664C96.1243 56.8995 97.0019 56.0226 98.4258 56.0226C99.6319 56.0226 100.399 56.6796 100.399 57.6664V58.7625C95.2481 59.4202 92.726 61.0648 92.726 64.1339C92.726 65.9962 93.9321 67.6401 96.3435 67.6401C98.0973 67.6401 99.3034 67.0924 100.618 66.2162L100.837 67.4208H103.907V67.4223Z" fill="white"/>
<path fill-rule="evenodd" clip-rule="evenodd" d="M105.222 80.137C104.017 80.9054 102.153 81.5623 100.509 82.11C95.6867 83.8638 89.8769 85.0699 84.0678 83.5354C81.4379 82.6577 79.0264 81.0146 77.8203 77.7255C77.3818 76.191 77.3818 75.5333 77.3818 75.5333L83.6294 71.6965C83.6294 71.6965 84.7262 74.2172 86.2593 74.9856C87.4654 75.5333 89.11 76.081 90.8638 76.081C92.5069 76.081 94.1514 76.081 96.5622 75.5333C98.8637 74.8764 102.372 73.5603 102.372 73.5603L105.222 80.137ZM97.112 48.2417L98.3167 50.1054C98.3167 50.1054 101.824 48.1324 105.661 47.2555C108.729 46.5986 111.909 46.0501 115.196 47.5847L120.787 44.0771C120.787 44.0771 115.415 41.4471 106.1 44.4063C98.2074 46.8171 97.112 48.2417 97.112 48.2417ZM114.101 74.7671C115.306 73.9987 116.841 72.6848 118.156 71.478C121.991 67.8604 125.938 63.1475 127.691 57.0099C128.239 54.16 128.239 51.0908 126.157 48.3502C125.171 47.1448 124.624 46.8163 124.624 46.8163L118.376 50.5432C118.376 50.5432 119.909 52.9546 119.691 54.5984C119.472 56.0238 119.143 57.8868 118.267 59.4214C117.389 61.0652 116.513 62.4905 114.869 64.3543C113.115 66.2181 110.266 68.7388 110.266 68.7388L114.101 74.7671Z" fill="#D5D6D7"/>
<path fill-rule="evenodd" clip-rule="evenodd" d="M108.401 55.5849L108.949 54.051H109.936V56.5717H109.277V54.8179L108.62 56.5717H108.182L107.525 54.8179V56.5717H106.866V54.051H107.853L108.401 55.5849ZM106.318 54.4887H105.551V56.571H104.893V54.4887H104.126V54.0503H106.318V54.4887Z" fill="white"/>
</svg>
