<svg width="128" height="128" viewBox="0 0 128 128" fill="none" xmlns="http://www.w3.org/2000/svg">
<path d="M58.6143 14.7715C89.8864 14.7715 115.229 40.1136 115.229 71.3857C115.228 102.658 89.8864 128 58.6143 128C27.3421 128 2.00003 102.658 2 71.3857C2 40.1136 27.3421 14.7715 58.6143 14.7715ZM58.6143 32.8223C37.3363 32.8223 20.2148 50.1078 20.2148 71.3857C20.2149 92.6636 37.3363 109.949 58.6143 109.949C79.8922 109.949 97.1777 92.6637 97.1777 71.3857C97.1777 50.1078 79.8922 32.8223 58.6143 32.8223ZM114.079 11.8154V15.7539H110.141V11.8154H114.079ZM125.895 7.87695V11.8154H121.956V7.87695H125.895ZM125.895 0V3.93848H121.956V0H125.895Z" fill="url(#paint0_linear_5027_58000)"/>
<path d="M102.268 23.6249V27.5624H106.206V23.6249H110.145V31.5009H106.206V35.4393H102.268V39.3778H98.3301V43.3163H94.3916V39.3778H90.4531V43.3163H94.3916V47.2548H90.4531V51.1932H86.5146V55.1317H82.5742V59.0702C71.6265 69.4982 69.2998 78.178 67.5039 86.5741C66.3964 91.6941 66.3945 94.6482 60.585 95.3358C59.5003 95.3358 56.6679 94.3836 55.4971 92.2177C54.0247 89.4938 49.654 79.0358 46.1436 72.6903C43.149 67.2774 38.8296 62.8625 34.9854 58.0848C33.5184 56.2617 32.7747 54.716 34 52.9979C35.2253 51.2799 36.12 51.5494 37.9385 52.0135C47.5389 56.3094 53.0849 62.796 57.7314 72.1942C61.8268 61.8063 64.4174 56.1643 74.6973 43.3163H78.6377V39.3778H82.5762V35.4393H86.5146V31.5009H90.4531V27.5624H94.3916V23.6249H102.268ZM90.4531 35.4393H94.3916V31.5009H90.4531V35.4393ZM106.206 19.6864V23.6249H102.268V19.6864H106.206ZM114.083 19.6864V23.6249H110.145V19.6864H114.083ZM102.268 15.7479V19.6864H98.3301V15.7479H102.268ZM110.145 11.8094V19.6864H106.206V11.8094H110.145ZM118.021 15.7479V19.6864H114.083V15.7479H118.021ZM118.021 7.87097V11.8094H110.145V7.87097H118.021ZM121.96 3.9325V7.87097H118.021V3.9325H121.96Z" fill="white"/>
<defs>
<linearGradient id="paint0_linear_5027_58000" x1="63.9472" y1="0" x2="63.9472" y2="128" gradientUnits="userSpaceOnUse">
<stop stop-color="#FFCA50"/>
<stop offset="1" stop-color="#FDB511"/>
</linearGradient>
</defs>
</svg>
