<svg width="128" height="128" viewBox="0 0 128 128" fill="none" xmlns="http://www.w3.org/2000/svg">
<path d="M0.00012207 104C0.00012207 117.255 10.7453 128 24.0001 128H104C117.255 128 128 117.255 128 104V24C128 10.7452 117.255 0 104 0H24.0001C10.7453 0 0.00012207 10.7452 0.00012207 24V104Z" fill="#EF4035"/>
<path d="M27.5974 45.0451V51.2117H19.5233V82.3611H12.0741V51.2117H4V45.0451H27.5974Z" fill="white"/>
<path d="M29.9247 45H37.0656V51.1048H29.9247V45ZM29.9247 54.5212H37.0656V82.357H29.9247V54.5212Z" fill="white"/>
<path d="M55.2775 54.5208H62.4184L55.4337 82.3608H47.1541L39.9639 54.5208H47.4131L51.3967 74.443H51.5036L55.2775 54.5208Z" fill="white"/>
<path d="M64.1241 68.4411C64.1241 78.1143 66.5086 83.2367 75.0924 83.0846C83.2693 83.0846 86.0648 77.9622 86.0648 68.4411C86.0648 58.7637 83.6845 53.6413 75.0924 53.7975C66.9197 53.7975 64.1241 58.9199 64.1241 68.4411ZM71.265 68.4411C71.265 62.7514 71.5775 58.6609 75.0924 58.6609C77.9907 58.6609 78.9239 61.5057 78.9239 68.4411C78.9239 75.3764 77.9907 78.2212 75.0924 78.2212C71.5775 78.2212 71.265 74.1349 71.265 68.4411Z" fill="white"/>
<path d="M90.1515 82.36H97.2923V45.0481H90.1515V82.36Z" fill="white"/>
<path d="M102.566 45H109.706V51.1048H102.566V45ZM102.566 54.5212H109.706V82.357H102.566V54.5212Z" fill="white"/>
<path d="M117.967 75.6965H118.904C119.443 75.6965 120.051 75.8075 120.051 76.4694C120.051 77.23 119.517 77.3163 118.892 77.3163H117.967V75.6965ZM116.914 80.5517H117.967V78.1138H118.6L120.068 80.5517H121.149L119.624 78.0768C120.553 77.9905 121.104 77.5219 121.104 76.5558C121.104 75.3636 120.372 74.8949 119.015 74.8949H116.914V80.5517ZM118.838 82.7388C121.589 82.7388 123.829 80.4941 123.829 77.7438C123.829 74.9894 121.589 72.7489 118.838 72.7489C116.084 72.7489 113.844 74.9894 113.844 77.7438C113.844 80.4941 116.084 82.7388 118.838 82.7388ZM118.838 81.7686C116.75 81.7686 115.06 80.083 115.06 77.7438C115.06 75.4047 116.75 73.7191 118.838 73.7191C120.923 73.7191 122.612 75.4047 122.612 77.7438C122.612 80.083 120.923 81.7686 118.838 81.7686Z" fill="white"/>
</svg>
