<svg width="128" height="128" viewBox="0 0 128 128" fill="none" xmlns="http://www.w3.org/2000/svg">
<g style="mix-blend-mode:multiply" opacity="0.2">
<path d="M38.2446 99.9624C36.754 99.9784 35.3098 100.483 34.1334 101.398C32.9569 102.313 32.1131 103.589 31.7312 105.03C31.3494 106.471 31.4506 107.998 32.0194 109.375C32.5881 110.753 33.593 111.907 34.8801 112.659L58.9183 126.286C60.8983 127.411 63.1371 128.002 65.4146 128C66.6399 127.999 67.8587 127.821 69.033 127.471L105.196 117.166C107.894 116.391 110.266 114.76 111.957 112.52C113.648 110.28 114.565 107.551 114.57 104.745V99.9624H38.2446Z" fill="white"/>
</g>
<g style="mix-blend-mode:multiply" opacity="0.12">
<path d="M38.2446 99.9624C36.754 99.9784 35.3098 100.483 34.1334 101.398C32.9569 102.313 32.1131 103.589 31.7312 105.03C31.3494 106.471 31.4506 107.998 32.0194 109.375C32.5881 110.753 33.593 111.907 34.8801 112.659L58.9183 126.286C60.8983 127.411 63.1371 128.002 65.4146 128C66.6399 127.999 67.8587 127.821 69.033 127.471L105.196 117.166C107.894 116.391 110.266 114.76 111.957 112.52C113.648 110.28 114.565 107.551 114.57 104.745V99.9624H38.2446Z" fill="white"/>
</g>
<path d="M68.8845 0.508301L78.5972 22.7268V99.9624L69.0326 127.471L105.196 117.166C107.893 116.391 110.266 114.76 111.957 112.52C113.647 110.28 114.564 107.551 114.57 104.745V23.2346C114.571 20.4208 113.654 17.6834 111.959 15.4379C110.263 13.1924 107.881 11.5613 105.175 10.7923L68.8845 0.508301Z" fill="url(#paint0_linear_5027_57690)"/>
<path d="M23.0301 99.1368L33.6103 93.4234C35.0613 92.626 36.2709 91.4527 37.1124 90.0268C37.9538 88.6008 38.396 86.9747 38.3925 85.319V43.7387C38.3945 41.8447 38.978 39.997 40.0641 38.4454C41.1503 36.8937 42.6867 35.7131 44.4656 35.0629L78.5974 22.7264V13.3523C78.5934 10.4469 77.6434 7.62185 75.891 5.30441C74.1386 2.98697 71.6792 1.30326 68.8847 0.507952C67.6947 0.166221 66.4621 -0.00476985 65.224 0.000101203C62.8951 0.00542783 60.6069 0.610282 58.5796 1.75642L19.5174 24.0384C17.538 25.1663 15.8924 26.798 14.7477 28.7677C13.603 30.7375 13 32.9752 13 35.2534V93.1483C12.9971 94.3267 13.3007 95.4856 13.8811 96.5111C14.4615 97.5366 15.2987 98.3935 16.3105 98.9976C17.3222 99.6016 18.4737 99.9321 19.6518 99.9565C20.83 99.9809 21.9942 99.6984 23.0301 99.1368Z" fill="url(#paint1_linear_5027_57690)"/>
<path d="M78.5975 99.9624H38.2446C36.754 99.9784 35.3098 100.483 34.1334 101.398C32.9569 102.313 32.1131 103.589 31.7312 105.03C31.3494 106.471 31.4506 107.998 32.0194 109.375C32.5881 110.753 33.593 111.907 34.8801 112.659L58.9183 126.286C60.8983 127.411 63.1371 128.002 65.4146 128C66.6399 127.999 67.8587 127.821 69.033 127.471C71.7934 126.687 74.2217 125.022 75.9484 122.73C77.675 120.438 78.6053 117.644 78.5975 114.775V99.9624Z" fill="url(#paint2_linear_5027_57690)"/>
<path d="M23.0301 99.1368L33.6103 93.4234C35.0613 92.626 36.2709 91.4527 37.1124 90.0268C37.9538 88.6008 38.396 86.9747 38.3925 85.319V43.7387C38.3945 41.8447 38.978 39.997 40.0641 38.4454C41.1503 36.8937 42.6867 35.7131 44.4656 35.0629L78.5974 22.7264V13.3523C78.5934 10.4469 77.6434 7.62185 75.891 5.30441C74.1386 2.98697 71.6792 1.30326 68.8847 0.507952C67.6947 0.166221 66.4621 -0.00476985 65.224 0.000101203C62.8951 0.00542783 60.6069 0.610282 58.5796 1.75642L19.5174 24.0384C17.538 25.1663 15.8924 26.798 14.7477 28.7677C13.603 30.7375 13 32.9752 13 35.2534V93.1483C12.9971 94.3267 13.3007 95.4856 13.8811 96.5111C14.4615 97.5366 15.2987 98.3935 16.3105 98.9976C17.3222 99.6016 18.4737 99.9321 19.6518 99.9565C20.83 99.9809 21.9942 99.6984 23.0301 99.1368Z" fill="url(#paint3_linear_5027_57690)"/>
<path d="M78.5975 99.9624H38.2446C36.754 99.9784 35.3098 100.483 34.1334 101.398C32.9569 102.313 32.1131 103.589 31.7312 105.03C31.3494 106.471 31.4506 107.998 32.0194 109.375C32.5881 110.753 33.593 111.907 34.8801 112.659L58.9183 126.286C60.8983 127.411 63.1371 128.002 65.4146 128C66.6399 127.999 67.8587 127.821 69.033 127.471C71.7934 126.687 74.2217 125.022 75.9484 122.73C77.675 120.438 78.6053 117.644 78.5975 114.775V99.9624Z" fill="url(#paint4_linear_5027_57690)"/>
<defs>
<linearGradient id="paint0_linear_5027_57690" x1="91.7166" y1="-6.72857" x2="91.7166" y2="118.584" gradientUnits="userSpaceOnUse">
<stop stop-color="#FFB900"/>
<stop offset="0.17" stop-color="#EF8400"/>
<stop offset="0.31" stop-color="#E25C01"/>
<stop offset="0.43" stop-color="#DB4401"/>
<stop offset="0.5" stop-color="#D83B01"/>
</linearGradient>
<linearGradient id="paint1_linear_5027_57690" x1="69.1175" y1="-2.30639" x2="2.75837" y2="92.4501" gradientUnits="userSpaceOnUse">
<stop stop-color="#800600"/>
<stop offset="0.6" stop-color="#C72127"/>
<stop offset="0.73" stop-color="#C13959"/>
<stop offset="0.85" stop-color="#BC4B81"/>
<stop offset="0.94" stop-color="#B95799"/>
<stop offset="1" stop-color="#B85BA2"/>
</linearGradient>
<linearGradient id="paint2_linear_5027_57690" x1="35.2186" y1="113.992" x2="121.849" y2="113.992" gradientUnits="userSpaceOnUse">
<stop stop-color="#F32B44"/>
<stop offset="0.6" stop-color="#A4070A"/>
</linearGradient>
<linearGradient id="paint3_linear_5027_57690" x1="70.4718" y1="-4.23199" x2="56.4212" y2="15.8281" gradientUnits="userSpaceOnUse">
<stop stop-opacity="0.4"/>
<stop offset="1" stop-opacity="0"/>
</linearGradient>
<linearGradient id="paint4_linear_5027_57690" x1="94.087" y1="115.939" x2="55.2999" y2="112.553" gradientUnits="userSpaceOnUse">
<stop stop-opacity="0.4"/>
<stop offset="1" stop-opacity="0"/>
</linearGradient>
</defs>
</svg>
