<svg width="128" height="128" viewBox="0 0 128 128" fill="none" xmlns="http://www.w3.org/2000/svg">
<path d="M0 22.9851L1.54031 29.3518L44.0015 31.3028L0 22.9851Z" fill="#F47920"/>
<path d="M43.1287 20.3667L16.4299 26.0658L11.8604 20.3667H43.1287Z" fill="#AA6CAD"/>
<path d="M10.9873 14L11.8601 20.3666H43.1284L10.9873 14Z" fill="#1B9CB6"/>
<path d="M43.1287 20.3667L44.0015 31.3029L59.8667 30.7381L43.1287 20.3667Z" fill="#1B9CB6"/>
<path d="M59.8671 30.738L44.002 31.3028L64.7961 39.1584L59.8671 30.738Z" fill="#38BCAB"/>
<path d="M59.8154 30.7381L64.7958 39.1585L69.8274 33.716L59.8154 30.7381Z" fill="#DDE21E"/>
<path d="M43.1284 20.3667L44.0012 31.3029L16.4297 26.0658L43.1284 20.3667Z" fill="#1A77A7"/>
<path d="M1.54004 29.3518L44.0013 31.3029L11.8601 40.6988L1.54004 29.3518Z" fill="#42BA86"/>
<path d="M44.0015 31.3028L11.8604 40.596L41.0749 52.7645L44.0015 31.3028Z" fill="#2E98D4"/>
<path d="M44.0018 31.3027L64.796 39.1583L41.0752 52.7644L44.0018 31.3027Z" fill="#CE5F90"/>
<path d="M64.796 39.1072L41.0752 52.7646L46.3122 60.4148L64.796 39.1072Z" fill="#1DA4A8"/>
<path d="M64.7957 39.1071L46.0039 60.6201L69.8274 51.7377L64.7957 39.1071Z" fill="#1D7CC1"/>
<path d="M62.8447 54.4074L46.004 60.62L37.3269 85.0083L62.8447 54.4074Z" fill="#61C199"/>
<path d="M62.8448 54.4074L37.0703 85.265L53.9624 78.7443L62.8448 54.4074Z" fill="#F8CE37"/>
<path d="M86.1031 45.3196L62.8444 54.4074L53.9619 78.7443L73.4725 65.7544L86.1031 45.3196Z" fill="#F9DB36"/>
<path d="M73.5246 65.7031L53.8086 78.7958L64.8988 76.3313L73.5246 65.7031Z" fill="#E19E4A"/>
<path d="M79.5315 23.858L64.7959 39.107L82.6122 38.953L79.5315 23.858Z" fill="#1DAB4B"/>
<path d="M79.5312 23.8579L95.2938 32.0216L82.6119 38.9529L79.5312 23.8579Z" fill="#7BC254"/>
<path d="M64.7959 39.1585L82.6122 38.9531L69.7762 51.6863L64.7959 39.1585Z" fill="#198A4D"/>
<path d="M82.6123 38.9531L69.7764 51.6863L86.1037 45.3197L82.6123 38.9531Z" fill="#814D51"/>
<path d="M82.6123 38.9531L86.1037 45.3197L99.8124 39.1071L82.6123 38.9531Z" fill="#8A6D3B"/>
<path d="M79.5312 23.858L95.2938 32.0217L94.6776 20.2126L79.5312 23.858Z" fill="#5EBB52"/>
<path d="M82.6123 38.953L99.6584 39.1071L99.7611 29.5572L82.6123 38.953Z" fill="#11A65E"/>
<path d="M99.7605 29.5571L99.6064 39.1071L106.692 32.8431L99.7605 29.5571Z" fill="#45B649"/>
<path d="M94.678 20.2126L106.692 32.8432L95.0374 27.3494L94.678 20.2126Z" fill="#A9D03E"/>
<path d="M95.0371 27.3494L95.2938 32.0216L99.7607 29.5571L95.0371 27.3494Z" fill="#3E3C3B"/>
<path d="M102.738 28.6843L119.579 32.4838L106.692 32.8432L102.738 28.6843Z" fill="#7D4A4D"/>
<path d="M102.738 28.6843L123.173 30.3787L119.579 32.4838L102.738 28.6843Z" fill="#0C8CBA"/>
<path d="M123.174 30.3787L128 33.6647L119.58 32.4838" fill="#806148"/>
<path d="M54.1681 78.6418L58.8917 81.6198L51.0361 82.9034L54.1681 78.6418Z" fill="#413F3D"/>
<path d="M54.1673 78.6418L37.2239 101.49L23.1557 114.531L14.7354 112.015L54.1673 78.6418Z" fill="#F47920"/>
<path d="M51.1384 82.7493L30.0361 99.8981L37.3783 101.284L51.1384 82.7493Z" fill="#D77F28"/>
<path d="M54.1677 78.6418L22.2833 105.751L21.5645 97.4849L54.1677 78.6418Z" fill="#1B9CB6"/>
<path d="M24.3887 89.8348V95.8933L54.168 78.6418L24.3887 89.8348Z" fill="#205883"/>
</svg>
