<svg width="128" height="128" viewBox="0 0 128 128" fill="none" xmlns="http://www.w3.org/2000/svg">
<path d="M64.0156 0C81.0901 1.30363e-05 97.1839 6.63314 109.275 18.7246C112.888 22.3295 116.072 26.3631 118.642 30.5908L119.295 31.5947L120.533 33.8682L120.525 33.876C125.532 43.0166 128 53.3177 128 63.9844C128 99.3868 99.2935 128 64.0156 128C46.91 128 30.8161 121.367 18.7246 109.275C6.63312 97.1761 0 81.0588 0 63.9844C1.43506e-05 46.9099 6.63314 30.8161 18.7246 18.7246C30.8239 6.63312 46.9412 0 64.0156 0ZM63.9922 2.56152C47.6029 2.56153 32.1634 8.93033 20.5547 20.5391C8.94593 32.1478 2.57715 47.5874 2.57715 64.0078C2.57716 80.4282 8.94593 95.8678 20.5547 107.477C32.1634 119.085 47.6107 125.454 63.9922 125.454L64 125.446C97.8764 125.446 125.446 97.9387 125.446 64C125.446 53.4347 122.815 43.3285 117.84 34.3203L109.905 43.1338H99.2705L105.639 32.0781H116.531C113.993 27.9516 110.941 24.0505 107.461 20.5391C95.8522 8.93031 80.3815 2.56152 63.9922 2.56152ZM25.0791 44.9551C46.2489 44.9551 45.0117 64.1709 45.0117 64.1709C45.0174 64.2558 46.2961 83.7441 25.0791 83.7441C3.85772 83.744 5.24352 64.2472 5.24902 64.1709C5.24902 64.1709 3.91734 44.9552 25.0791 44.9551ZM65.8223 44.9551C85.2379 44.9551 83.8083 58.7562 83.7998 58.8369H72.5811V58.8447C72.5831 58.7838 72.8077 51.5664 65.8145 51.8223C58.9555 52.0874 59.4072 64.1787 59.4072 64.1787C59.4059 64.2448 59.1681 76.473 65.8145 76.9238C72.8373 77.4377 72.5811 69.9629 72.5811 69.9629H83.6055C83.6055 69.9629 84.3215 83.7441 65.8223 83.7441C46.0332 83.7439 47.3178 64.252 47.3232 64.1709C47.3232 64.1709 46.3501 44.9553 65.8223 44.9551ZM104.798 44.9551C125.703 44.9551 122.775 66.4131 122.775 66.4131H97.877C97.8763 66.4479 97.6938 76.8147 104.798 76.916C111.281 76.916 111.3 69.9015 111.3 69.8623H122.324C122.327 69.9175 122.934 83.7441 104.798 83.7441C84.5587 83.7439 85.6788 64.253 85.6836 64.1709C85.6836 64.1709 83.8931 44.9553 104.798 44.9551ZM25.0791 51.8457C21.6301 51.8459 19.7461 54.7734 19.7461 54.7734C19.723 54.802 17.083 58.0859 17.083 64.2021C17.0831 70.3174 19.7224 73.9557 19.7461 73.9883C19.7461 73.9883 21.5056 76.9471 25.0791 76.9473C28.6528 76.9473 30.4443 73.9883 30.4443 73.9883C30.48 73.9428 33.1063 70.5662 33.1064 64.2021C33.1064 57.839 30.4809 54.8152 30.4443 54.7734C30.4443 54.7734 28.5282 51.8457 25.0791 51.8457ZM104.798 51.5498C97.8002 51.5501 97.8375 59.9454 97.8379 60.0049H111.821C111.826 59.9436 112.509 51.5498 104.798 51.5498Z" fill="url(#paint0_linear_5027_60188)"/>
<defs>
<linearGradient id="paint0_linear_5027_60188" x1="64" y1="0" x2="64" y2="128" gradientUnits="userSpaceOnUse">
<stop stop-color="#FF4D62"/>
<stop offset="1" stop-color="#ED1B34"/>
</linearGradient>
</defs>
</svg>
