<svg width="128" height="128" viewBox="0 0 128 128" fill="none" xmlns="http://www.w3.org/2000/svg">
<path d="M86.498 0.603991C84.5008 1.77734 81.1555 5.14761 77.1611 10.0158V10.3153L80.6562 16.7813L80.831 16.9061C83.4024 13.2362 85.9987 9.91591 88.645 7.09487C88.8447 6.87019 88.9446 6.77033 88.9446 6.77033C88.8447 6.87019 88.7449 6.99501 88.645 7.09487C87.7962 8.04354 85.1998 11.0393 81.3053 17.0309L81.7547 17.1308C81.7547 17.1308 90.8669 16.232 95.2607 15.4831L95.5104 15.2584C96.9084 7.41942 94.1373 3.82447 94.1373 3.82447C94.1373 3.82447 90.6422 -1.81761 86.498 0.603991Z" fill="url(#paint0_linear_5027_63042)"/>
<path d="M70.0466 34.7559C71.17 32.6838 72.2934 30.6367 73.4168 28.6645C74.5902 26.6174 75.7885 24.6202 77.0118 22.6979C77.0867 22.598 77.1616 22.4732 77.2115 22.3484C78.4098 20.451 79.6081 18.6536 80.8314 16.906L77.1616 9.99072C76.887 10.3153 76.6123 10.6648 76.3377 11.0143C75.2892 12.3374 74.1907 13.7355 73.0673 15.2334C71.7941 16.931 70.4959 18.7284 69.1728 20.6258C67.9495 22.3733 66.7013 24.2207 65.478 26.0931C64.4295 27.7158 63.356 29.3635 62.3074 31.0861C62.2575 31.161 62.2325 31.2109 62.1826 31.2858V31.5604L66.7512 40.6227L66.9509 40.6976C67.9745 38.7004 68.998 36.7032 70.0466 34.7559Z" fill="url(#paint1_linear_5027_63042)"/>
<path d="M50.1491 79.1187C50.973 76.9717 51.8467 74.7998 52.7205 72.6028C53.5693 70.5058 54.4181 68.3838 55.3169 66.2617C56.1906 64.1397 57.1143 62.0177 58.038 59.8707C58.9867 57.6988 59.9354 55.5268 60.909 53.3798C61.8826 51.2578 62.8563 49.1358 63.8549 47.0388C64.2044 46.2898 64.5789 45.5159 64.9533 44.7669C65.5775 43.4688 66.2265 42.1706 66.8507 40.8974C66.8756 40.8225 66.9256 40.7726 66.9505 40.6977L62.1822 31.2859C62.1073 31.4107 62.0324 31.5355 61.9575 31.6604C60.8591 33.4828 59.7357 35.3302 58.6622 37.2275C57.5637 39.1498 56.4902 41.0971 55.4417 43.0693C54.543 44.742 53.6942 46.4146 52.8453 48.1122C52.6706 48.4618 52.5208 48.7863 52.346 49.1358C51.2975 51.2828 50.3738 53.3299 49.525 55.3271C48.5763 57.574 47.7275 59.7209 46.9786 61.7681C46.4793 63.1162 46.0549 64.3894 45.6305 65.6376C45.3059 66.6861 44.9814 67.7596 44.6818 68.8082C43.9578 71.3047 43.3587 73.7762 42.8594 76.2727L42.9343 76.5723L47.5029 85.6595L47.6526 85.7344C48.2768 84.0368 48.9259 82.3392 49.5999 80.5916C49.7747 80.0923 49.9744 79.618 50.1491 79.1187Z" fill="url(#paint2_linear_5027_63042)"/>
<path d="M42.8098 76.5973C42.2107 79.618 41.7863 82.6388 41.5616 85.6346C41.5616 85.7344 41.5366 85.8343 41.5366 85.9591C40.0387 83.5625 36.0443 81.2407 36.0443 81.2407C38.9153 85.3849 41.0872 89.5041 41.4118 93.5484C39.8889 93.873 37.7919 93.3986 35.3453 92.5249C37.8668 94.8466 39.7641 95.4957 40.513 95.6705C38.1913 95.8202 35.7697 97.418 33.3231 99.2404C36.8931 97.7925 39.7641 97.2183 41.8362 97.6676C38.5658 106.93 35.2954 117.165 32 128C32.9986 127.7 33.5978 127.026 33.9473 126.103C34.5215 124.13 38.416 111.249 44.4825 94.2974C44.6572 93.823 44.832 93.3237 45.0067 92.8494C45.0567 92.7246 45.1066 92.5748 45.1565 92.45C45.8056 90.6775 46.4547 88.855 47.1537 87.0076C47.3035 86.5832 47.4783 86.1588 47.628 85.7344V85.7094L42.8597 76.2727C42.8597 76.3975 42.8348 76.4974 42.8098 76.5973Z" fill="url(#paint3_linear_5027_63042)"/>
<path d="M81.3057 17.056C80.2322 18.7036 79.0589 20.576 77.7857 22.698C77.7108 22.7979 77.6608 22.9227 77.5859 23.0226C76.4875 24.87 75.3391 26.8672 74.1158 29.0891C73.0673 30.9864 71.9688 33.0335 70.8204 35.2554C69.8218 37.1777 68.7983 39.1998 67.7498 41.3718L67.9744 41.4717L79.5831 40.2234L79.8577 40.0237C83.3778 38.401 84.9506 36.928 86.4735 34.806C86.8729 34.2318 87.2973 33.6077 87.6967 32.9836C88.945 31.0363 90.1683 28.9143 91.2418 26.7923C92.2903 24.7452 93.214 22.698 93.938 20.8756C94.3873 19.7022 94.7618 18.6287 95.0115 17.6801C95.2361 16.8313 95.4109 16.0324 95.5357 15.2834C90.8423 16.1073 85.0754 16.8812 81.3057 17.056Z" fill="url(#paint4_linear_5027_63042)"/>
<path d="M67.3004 42.3453C66.901 43.1941 66.4766 44.0679 66.0521 44.9417C65.6028 45.8903 65.1284 46.8889 64.6791 47.8875C64.4544 48.3868 64.2047 48.9111 63.9801 49.4104C63.2561 50.9582 62.5571 52.556 61.8081 54.2037C60.9094 56.2258 59.9857 58.3478 59.062 60.5198C58.1632 62.6168 57.2645 64.7638 56.3658 67.0107C55.492 69.1327 54.6182 71.3296 53.7444 73.5764C52.9456 75.5986 52.1467 77.6457 51.3478 79.7927C51.2979 79.8926 51.2729 79.9924 51.223 80.0923C50.4241 82.2143 49.6449 84.373 48.8211 86.5949C48.7961 86.6448 48.7515 86.7747 48.7266 86.8247L48.899 86.8629L52.3714 86.4894L52.5674 86.4084C52.4925 86.3834 52.4463 86.2836 52.3714 86.2586C56.9649 85.6844 63.0813 82.2393 67.0507 77.9952C68.8732 76.048 70.5209 73.7262 72.0687 71.03C73.2171 69.0079 74.2656 66.786 75.2892 64.3144C76.1879 62.1675 77.0367 59.8208 77.8606 57.2993C76.812 57.8485 75.5888 58.2729 74.2656 58.5475C74.0409 58.5975 73.7913 58.6474 73.5416 58.6973C73.292 58.7473 73.0423 58.7722 72.8176 58.8222C77.1116 57.1745 79.8078 53.979 81.7801 50.0844C80.6566 50.8583 78.8092 51.8569 76.6123 52.3562C76.3127 52.4311 76.0132 52.4811 75.6886 52.531C75.6137 52.531 75.5388 52.556 75.4639 52.556C76.9618 51.9318 78.2101 51.2328 79.3085 50.409C79.5332 50.2342 79.7579 50.0595 79.9826 49.8598C80.3071 49.5602 80.6317 49.2606 80.9312 48.961C81.131 48.7613 81.3057 48.5616 81.5054 48.3369C81.9298 47.8376 82.3293 47.2884 82.7038 46.6892C82.8286 46.5145 82.9284 46.3147 83.0533 46.14C83.2031 45.8654 83.3279 45.5908 83.4527 45.3161C84.0519 44.1178 84.5262 43.0443 84.9007 42.0957C85.1004 41.6213 85.2502 41.1969 85.4 40.7725C85.4499 40.6227 85.4998 40.448 85.5747 40.2982C85.7245 39.8488 85.8493 39.4494 85.9492 39.0749C86.099 38.5506 86.1739 38.1262 86.2238 37.8267C86.074 37.9515 85.9242 38.0513 85.7245 38.1762C84.4263 38.9501 82.2045 39.6491 80.407 39.9736C80.1573 40.0236 79.9826 40.0485 79.7829 40.0985C79.7995 40.0818 75.7957 40.5052 67.7714 41.3685C67.7214 41.4184 67.4252 42.0457 67.3004 42.3453Z" fill="url(#paint5_linear_5027_63042)"/>
<path d="M48.3524 87.7567C47.7283 89.4792 47.0792 91.2517 46.4551 93.0492C46.4551 93.0742 46.4301 93.0992 46.4301 93.1241C46.3303 93.3738 46.2554 93.6234 46.1555 93.898C45.7311 95.1213 45.3566 96.1948 44.5078 98.6913C45.9058 99.3404 47.0293 101.013 48.1028 102.935C48.0029 100.963 47.1791 99.0907 45.6063 97.6677C52.5216 97.9673 58.4882 96.2198 61.5589 91.1769C61.8335 90.7275 62.0831 90.2531 62.3078 89.7539C60.9098 91.5264 59.1622 92.2753 55.9168 92.1006C60.735 89.9536 63.1316 87.8815 65.2786 84.4613C65.7779 83.6374 66.2772 82.7637 66.7765 81.79C62.5575 86.109 57.6893 87.3323 52.5715 86.4086L48.7269 86.833C48.6021 87.1076 48.4772 87.4321 48.3524 87.7567Z" fill="url(#paint6_linear_5027_63042)"/>
<defs>
<linearGradient id="paint0_linear_5027_63042" x1="80.2281" y1="10.9475" x2="106.706" y2="2.13448" gradientUnits="userSpaceOnUse">
<stop stop-color="#F69923"/>
<stop offset="0.3123" stop-color="#F79A23"/>
<stop offset="0.8383" stop-color="#E97826"/>
</linearGradient>
<linearGradient id="paint1_linear_5027_63042" x1="21.5933" y1="131.182" x2="112.034" y2="59.6442" gradientUnits="userSpaceOnUse">
<stop offset="0.3233" stop-color="#9E2064"/>
<stop offset="0.6302" stop-color="#C92037"/>
<stop offset="0.7514" stop-color="#CD2335"/>
<stop offset="1" stop-color="#E97826"/>
</linearGradient>
<linearGradient id="paint2_linear_5027_63042" x1="23.5759" y1="124.076" x2="111.65" y2="87.0991" gradientUnits="userSpaceOnUse">
<stop offset="0.3233" stop-color="#9E2064"/>
<stop offset="0.6302" stop-color="#C92037"/>
<stop offset="0.7514" stop-color="#CD2335"/>
<stop offset="1" stop-color="#E97826"/>
</linearGradient>
<linearGradient id="paint3_linear_5027_63042" x1="29.1376" y1="116.289" x2="68.3126" y2="108.62" gradientUnits="userSpaceOnUse">
<stop stop-color="#282662"/>
<stop offset="0.0954839" stop-color="#662E8D"/>
<stop offset="0.7882" stop-color="#9F2064"/>
<stop offset="0.9487" stop-color="#CD2032"/>
</linearGradient>
<linearGradient id="paint4_linear_5027_63042" x1="31.6884" y1="136.722" x2="81.0165" y2="17.6318" gradientUnits="userSpaceOnUse">
<stop offset="0.3233" stop-color="#9E2064"/>
<stop offset="0.6302" stop-color="#C92037"/>
<stop offset="0.7514" stop-color="#CD2335"/>
<stop offset="1" stop-color="#E97826"/>
</linearGradient>
<linearGradient id="paint5_linear_5027_63042" x1="35.6474" y1="129.871" x2="113.897" y2="31.6488" gradientUnits="userSpaceOnUse">
<stop offset="0.3233" stop-color="#9E2064"/>
<stop offset="0.6302" stop-color="#C92037"/>
<stop offset="0.7514" stop-color="#CD2335"/>
<stop offset="1" stop-color="#E97826"/>
</linearGradient>
<linearGradient id="paint6_linear_5027_63042" x1="39.9162" y1="122.508" x2="69.6865" y2="51.6993" gradientUnits="userSpaceOnUse">
<stop stop-color="#282662"/>
<stop offset="0.0954839" stop-color="#662E8D"/>
<stop offset="0.7882" stop-color="#9F2064"/>
<stop offset="0.9487" stop-color="#CD2032"/>
</linearGradient>
</defs>
</svg>
