<svg width="128" height="128" viewBox="0 0 128 128" fill="none" xmlns="http://www.w3.org/2000/svg">
<rect width="128" height="128" rx="24" fill="url(#paint0_linear_5027_62021)"/>
<path d="M50.1863 91.3613C50.1863 91.3613 46.3196 93.61 52.9381 94.3709C60.9563 95.2856 65.0543 95.1544 73.8904 93.4821C73.8904 93.4821 76.2135 94.9387 79.4578 96.2003C59.6497 104.69 34.628 95.7086 50.1863 91.3613Z" fill="#5382A1"/>
<path d="M47.7662 80.2832C47.7662 80.2832 43.4293 83.4935 50.0528 84.1786C58.618 85.0622 65.3822 85.1345 77.0869 82.8807C77.0869 82.8807 78.7058 84.5219 81.2514 85.4195C57.3021 92.4226 30.627 85.9717 47.7662 80.2832Z" fill="#5382A1"/>
<path d="M68.17 61.4905C73.0508 67.1098 66.8877 72.1664 66.8877 72.1664C66.8877 72.1664 79.2807 65.7688 73.5891 57.7574C68.2734 50.2863 64.1969 46.5742 86.2652 33.7754C86.2652 33.7754 51.6253 42.4268 68.17 61.4905Z" fill="#E76F00"/>
<path d="M94.3683 99.555C94.3683 99.555 97.2298 101.913 91.2169 103.737C79.7834 107.2 43.6293 108.246 33.5858 103.875C29.9755 102.304 36.7459 100.124 38.8757 99.6671C41.0968 99.1855 42.366 99.2752 42.366 99.2752C38.3509 96.4468 16.4141 104.829 31.2232 107.23C71.6098 113.779 104.844 104.28 94.3683 99.555Z" fill="#5382A1"/>
<path d="M52.045 68.8055C52.045 68.8055 33.6548 73.1735 45.5326 74.7597C50.5478 75.4312 60.5454 75.2793 69.8579 74.499C77.4687 73.857 85.1108 72.492 85.1108 72.492C85.1108 72.492 82.4271 73.6413 80.4856 74.967C61.8106 79.8785 25.7339 77.5936 36.1199 72.5697C44.9034 68.3239 52.045 68.8055 52.045 68.8055Z" fill="#5382A1"/>
<path d="M85.0349 87.2459C104.019 77.3811 95.2414 67.9011 89.1149 69.1782C87.6132 69.4908 86.9437 69.7616 86.9437 69.7616C86.9437 69.7616 87.5011 68.8883 88.5659 68.5103C100.686 64.2492 110.007 81.0779 84.6533 87.7431C84.6533 87.7433 84.947 87.4807 85.0349 87.2459Z" fill="#5382A1"/>
<path d="M73.5902 13.1094C73.5902 13.1094 84.1038 23.6266 63.6184 39.799C47.1912 52.7721 59.8725 60.169 63.6116 68.6203C54.0228 59.9688 46.9859 52.3529 51.7068 45.2647C58.636 34.8599 77.8322 29.8153 73.5902 13.1094Z" fill="#E76F00"/>
<path d="M53.9108 113.976C72.1331 115.143 100.115 113.329 100.778 104.707C100.778 104.707 99.5043 107.976 85.7185 110.571C70.1654 113.498 50.9828 113.157 39.6055 111.281C39.6057 111.281 41.9346 113.208 53.9108 113.976Z" fill="#5382A1"/>
<defs>
<linearGradient id="paint0_linear_5027_62021" x1="64" y1="0" x2="64" y2="128" gradientUnits="userSpaceOnUse">
<stop stop-color="white"/>
<stop offset="1" stop-color="#EEEEEE"/>
</linearGradient>
</defs>
</svg>
