<svg width="128" height="128" viewBox="0 0 128 128" fill="none" xmlns="http://www.w3.org/2000/svg">
<path d="M116.05 63.1467L101.18 59.6947L98.525 58.6326L30.282 59.1636V92.0903L116.05 92.3558V63.1467Z" fill="white"/>
<path d="M88.1691 89.1696C88.5963 88.0387 88.7469 86.822 88.6083 85.621C88.4698 84.42 88.046 83.2696 87.3725 82.2657C86.6806 81.4362 85.832 80.7512 84.8751 80.25C83.9183 79.7488 82.872 79.4412 81.7962 79.3448L35.5927 78.8137C35.3272 78.8137 35.0616 78.5481 34.7961 78.5481C34.7343 78.5018 34.6841 78.4416 34.6495 78.3725C34.6149 78.3034 34.597 78.2271 34.597 78.1498C34.597 78.0725 34.6149 77.9963 34.6495 77.9272C34.6841 77.858 34.7343 77.7979 34.7961 77.7515C35.0616 77.2205 35.3272 76.9549 35.8582 76.9549L82.3273 76.4238C85.2774 76.0964 88.087 74.9891 90.4672 73.2156C92.8473 71.4422 94.7121 69.0666 95.8697 66.3334L98.525 59.4295C98.525 59.1639 98.7906 58.8984 98.525 58.6328C97.0814 52.2027 93.5781 46.4195 88.5476 42.1621C83.5171 37.9047 77.2343 35.4059 70.6539 35.0453C64.0735 34.6848 57.5553 36.4822 52.0897 40.1644C46.6241 43.8467 42.5099 49.2124 40.3724 55.4464C37.5974 53.4645 34.2126 52.5243 30.813 52.791C27.6932 53.1389 24.7844 54.5376 22.5647 56.7574C20.3449 58.9771 18.9462 61.8859 18.5983 65.0057C18.4215 66.6027 18.5112 68.2179 18.8639 69.7854C13.8158 69.925 9.02145 72.0285 5.50053 75.6486C1.97961 79.2687 0.010023 84.1197 0.0107272 89.1696C-0.032849 90.1508 0.0564689 91.1333 0.27626 92.0905C0.288454 92.2978 0.376302 92.4934 0.523135 92.6403C0.669968 92.7871 0.865585 92.875 1.07288 92.8871H86.3103C86.8414 92.8871 87.3725 92.6216 87.3725 92.0905L88.1691 89.1696Z" fill="url(#paint0_linear_5027_60476)"/>
<path d="M102.774 59.4293H101.446C101.181 59.4293 100.915 59.6949 100.65 59.9604L98.7909 66.3333C98.3637 67.4642 98.2131 68.6809 98.3516 69.8819C98.4902 71.0829 98.914 72.2333 99.5875 73.2373C100.279 74.0668 101.128 74.7517 102.085 75.2529C103.042 75.7541 104.088 76.0617 105.164 76.1582L114.989 76.6892C115.254 76.6892 115.52 76.9548 115.785 76.9548C115.847 77.0012 115.897 77.0613 115.932 77.1304C115.966 77.1996 115.984 77.2758 115.984 77.3531C115.984 77.4304 115.966 77.5066 115.932 77.5757C115.897 77.6449 115.847 77.705 115.785 77.7514C115.52 78.2825 115.254 78.548 114.723 78.548L104.633 79.0791C101.683 79.4065 98.873 80.5138 96.4928 82.2873C94.1126 84.0608 92.2479 86.4363 91.0903 89.1695L90.5592 91.5593C90.2937 91.8249 90.5593 92.3559 91.0903 92.3559H126.141C126.249 92.3714 126.36 92.3614 126.463 92.3269C126.567 92.2923 126.661 92.2341 126.739 92.1568C126.816 92.0795 126.874 91.9853 126.909 91.8816C126.943 91.7779 126.953 91.6675 126.938 91.5593C127.57 89.3095 127.927 86.9912 128 84.6554C127.958 77.978 125.287 71.5861 120.565 66.8644C115.843 62.1427 109.451 59.4714 102.774 59.4293Z" fill="url(#paint1_linear_5027_60476)"/>
<defs>
<linearGradient id="paint0_linear_5027_60476" x1="49.3215" y1="35" x2="49.3215" y2="92.8871" gradientUnits="userSpaceOnUse">
<stop stop-color="#FFA253"/>
<stop offset="1" stop-color="#F48120"/>
</linearGradient>
<linearGradient id="paint1_linear_5027_60476" x1="109.228" y1="59.4293" x2="109.228" y2="92.363" gradientUnits="userSpaceOnUse">
<stop stop-color="#FFC067"/>
<stop offset="1" stop-color="#FAAD3F"/>
</linearGradient>
</defs>
</svg>
