<svg width="128" height="128" viewBox="0 0 128 128" fill="none" xmlns="http://www.w3.org/2000/svg">
<path fill-rule="evenodd" clip-rule="evenodd" d="M77.6795 36.6801C73.0804 37.7497 68.3734 38.2866 63.6515 38.2801C58.8315 38.2801 54.1235 37.7361 49.6035 36.6801C53.3689 30.7071 58.1188 25.4149 63.6515 21.0281C69.1746 25.4205 73.9143 30.7119 77.6795 36.6801ZM120.12 2.29612C114.323 0.760777 108.352 -0.0110825 102.356 0.000120209C88.5753 -0.0187891 75.0994 4.05319 63.6355 11.7001C52.1738 4.04857 38.6965 -0.0238469 24.9155 0.000120209C18.7755 0.000120209 12.8075 0.784121 7.14749 2.29612C4.78341 2.907 2.45571 3.65085 0.175481 4.52412C0.140715 4.53811 0.10911 4.55894 0.0825407 4.58536C0.0559712 4.61179 0.0349773 4.64328 0.0208026 4.67797C0.00662797 4.71267 -0.000438886 4.74985 2.10948e-05 4.78732C0.000481076 4.82479 0.00845861 4.86179 0.0234805 4.89612C1.01548 7.04812 2.11948 9.13212 3.30748 11.1481C3.37148 11.2601 3.50748 11.3081 3.62748 11.2641C10.4469 8.78155 17.6503 7.51961 24.9075 7.53612C36.7275 7.53612 47.7835 10.8401 57.2275 16.5361C51.2225 21.6191 46.1164 27.6772 42.1235 34.4561C40.0245 37.9783 38.2505 41.6843 36.8235 45.5281C33.9232 53.3221 32.4412 61.5721 32.4475 69.8882C32.4475 89.6802 40.7275 107.576 53.9955 120.312C55.0275 121.328 56.0995 122.284 57.2275 123.22C58.1075 123.98 58.9875 124.692 59.9075 125.38C61.0635 126.3 62.2675 127.144 63.4795 127.952C63.5249 127.983 63.5785 128 63.6335 128C63.6885 128 63.7422 127.983 63.7875 127.952C64.9955 127.124 66.1875 126.28 67.3435 125.38C68.2795 124.692 69.1595 123.98 70.0395 123.22C71.1475 122.284 72.2595 121.308 73.2915 120.312C86.5395 107.576 94.8235 89.6602 94.8235 69.8922C94.8311 59.9937 92.7255 50.2076 88.6475 41.1881C88.231 40.2557 87.7962 39.3316 87.3435 38.4161C86.6479 37.0756 85.9143 35.755 85.1435 34.4561C81.1446 27.6815 76.0393 21.6243 70.0395 16.5361C79.7876 10.6415 90.9638 7.5289 102.356 7.53612C109.613 7.51961 116.816 8.78155 123.636 11.2641C123.76 11.3041 123.896 11.2561 123.96 11.1441C125.15 9.11553 126.245 7.03187 127.24 4.90012C127.255 4.86558 127.264 4.82822 127.265 4.79031C127.265 4.75239 127.258 4.71471 127.244 4.67955C127.23 4.64439 127.209 4.61248 127.182 4.58576C127.155 4.55904 127.123 4.53807 127.088 4.52412C124.808 3.66812 122.488 2.90012 120.12 2.29612Z" fill="url(#paint0_linear_5027_60465)"/>
<path fill-rule="evenodd" clip-rule="evenodd" d="M87.2876 69.8962C87.2876 86.4322 80.8196 101.476 70.2676 112.648C68.3692 106.587 67.4035 100.272 67.4036 93.9202C67.4036 77.3842 73.8716 62.3122 84.4236 51.1682C86.2796 57.0842 87.2876 63.3762 87.2876 69.8962Z" fill="#348540"/>
<path fill-rule="evenodd" clip-rule="evenodd" d="M59.8635 93.92C59.8635 100.428 58.8635 106.72 56.9995 112.648C46.0574 101.105 39.9649 85.8011 39.9795 69.896C39.9795 63.376 40.9995 57.084 42.8675 51.168C53.8072 62.7108 59.8921 78.0167 59.8635 93.92Z" fill="#7DBC42"/>
<defs>
<linearGradient id="paint0_linear_5027_60465" x1="63.6323" y1="0" x2="63.6323" y2="128" gradientUnits="userSpaceOnUse">
<stop stop-color="#2D59B6"/>
<stop offset="1" stop-color="#22448B"/>
</linearGradient>
</defs>
</svg>
