<svg width="128" height="128" viewBox="0 0 128 128" fill="none" xmlns="http://www.w3.org/2000/svg">
<path d="M105.494 55.6186C105.132 55.256 104.492 55.256 104.129 55.6186C103.958 55.8106 103.852 56.0453 103.852 56.3013C103.852 56.5573 103.958 56.792 104.129 56.9626C104.3 57.1546 104.556 57.2613 104.812 57.2613C105.068 57.2613 105.324 57.1546 105.494 56.984C105.665 56.8133 105.772 56.5573 105.772 56.3013C105.772 56.0453 105.686 55.8106 105.494 55.6186ZM91.2652 72.8346C91.6278 73.1973 92.2678 73.1973 92.6305 72.8346C92.8012 72.6426 92.9078 72.408 92.9078 72.152C92.9078 71.896 92.8012 71.6613 92.6305 71.4906C92.4598 71.2986 92.2038 71.192 91.9478 71.192C91.6918 71.192 91.4358 71.2986 91.2652 71.4693C91.0945 71.64 90.9878 71.896 90.9878 72.152C90.9665 72.3866 91.0732 72.6426 91.2652 72.8346ZM31.3612 56.7066C31.7238 57.048 32.3638 57.048 32.7265 56.6853C32.8972 56.4933 33.0038 56.2586 33.0038 56.0026C33.0043 55.8774 32.9778 55.7536 32.9263 55.6395C32.8748 55.5254 32.7994 55.4237 32.7052 55.3413C32.5345 55.1493 32.2785 55.064 32.0225 55.064C31.7665 55.064 31.5318 55.1706 31.3398 55.3626C31.1692 55.5333 31.0625 55.7893 31.0625 56.0453C31.0625 56.28 31.1692 56.536 31.3612 56.7066Z" fill="#33AD37"/>
<path d="M34.4111 56.2373C34.6032 55.7681 35.1362 55.5551 35.6055 55.7471C38.8266 57.0697 41.0453 60.1625 41.2588 63.6396C41.4081 66.0716 40.5969 68.3978 38.9756 70.2324C37.3543 72.0455 35.1359 73.1329 32.7041 73.2822H32.2988C30.0162 73.3249 27.8403 72.5145 26.1123 70.9785C24.2991 69.3573 23.2109 67.1389 23.0615 64.707C22.8269 61.0164 24.8536 57.5813 28.1816 55.96C28.6296 55.7468 29.1842 55.9388 29.3975 56.3867C29.6107 56.8347 29.44 57.3892 28.9707 57.6025C26.3042 58.9038 24.6832 61.6344 24.875 64.5996C24.9817 66.5409 25.856 68.3333 27.3066 69.6133C28.7573 70.9146 30.6562 71.5549 32.5762 71.4482C34.5175 71.3415 36.3099 70.4663 37.5898 69.0156C38.8908 67.5651 39.5304 65.6881 39.4238 63.7471C39.2532 60.9737 37.4827 58.477 34.9014 57.4316C34.4321 57.2396 34.2192 56.7066 34.4111 56.2373ZM55.168 55C57.984 55 59.7763 55.9177 61.4189 57.2617C61.6109 57.4324 61.8242 57.7098 61.8242 58.0723C61.8241 58.5842 61.3545 59.0537 60.8213 59.0537C60.544 59.0537 60.331 58.925 60.1816 58.8184C58.8376 57.6237 57.3013 56.8135 55.168 56.8135C51.3067 56.8135 48.4053 59.9495 48.4053 63.9814V64.0244C48.4055 68.0775 51.3281 71.2344 55.168 71.2344C57.3438 71.2344 58.8583 70.488 60.3516 69.1016C60.5009 68.9522 60.736 68.8242 60.9707 68.8242C61.4614 68.8242 61.9307 69.272 61.9307 69.7627C61.9293 69.8958 61.8998 70.0272 61.8447 70.1484C61.7896 70.2696 61.7098 70.3782 61.6104 70.4668C59.8824 72.0453 57.9835 73.0479 55.125 73.0479C50.0479 73.0903 46.336 69.1226 46.3359 64.1094V64.0449C46.3361 59.0958 50.0268 55 55.168 55ZM92.2451 55.3838C92.6931 55.3838 92.9707 55.6186 93.248 55.96L103.851 69.4854V59.874L103.829 59.7363C103.829 59.4749 103.941 59.2306 104.124 59.0537C104.301 58.8718 104.549 58.7549 104.832 58.7549C105.365 58.7549 105.771 59.2029 105.771 59.7148V72.0879C105.771 72.6211 105.387 73.0047 104.875 73.0049H104.768C104.341 73.0047 104.043 72.7493 103.744 72.4082L92.9062 58.5625V68.6963C92.9061 69.208 92.4801 69.6775 91.9258 69.6777C91.4139 69.6777 90.9865 69.2295 90.9863 68.6963V56.3652C90.9864 55.8533 91.4346 55.3839 91.9678 55.3838H92.2451ZM1.21582 55.2344C1.64244 55.2344 1.94179 55.469 2.13379 55.7676L8.38379 65.1543L14.6133 55.7676C14.8052 55.4478 15.1465 55.2345 15.5303 55.2344H15.7656C16.2988 55.2345 16.747 55.6827 16.7471 56.2158V71.917C16.7471 72.4716 16.2988 72.9198 15.7656 72.9199C15.211 72.9199 14.7627 72.4503 14.7627 71.917V58.8828L9.17285 67.0957C8.93829 67.4155 8.70419 67.5868 8.3418 67.5869C8.00046 67.5869 7.72295 67.4157 7.48828 67.0957L1.91992 58.9043V71.9385C1.91992 72.4931 1.49314 72.9199 0.938477 72.9199C0.405237 72.9198 0 72.4931 0 71.9385V56.2158H0.0214844C0.021585 55.6826 0.469656 55.2344 1.00293 55.2344H1.21582ZM76.459 55.1064C77.0562 55.1065 77.4615 55.4269 77.6748 55.9814L84.7578 71.4482C84.8217 71.6187 84.8857 71.7893 84.8857 71.9385C84.8857 72.4505 84.4583 72.877 83.9463 72.877C83.4773 72.8768 83.1365 72.5574 82.9658 72.1523L81.1523 68.1416H71.5732L69.7383 72.2158C69.5676 72.6425 69.2478 72.8984 68.7998 72.8984C68.5628 72.8967 68.3356 72.8024 68.168 72.6348C68.0004 72.4672 67.906 72.24 67.9043 72.0029C67.9043 71.8749 67.9254 71.6822 68.0107 71.4902L75.0938 55.9814C75.3497 55.427 75.7119 55.1066 76.3516 55.1064H76.459ZM119.573 55.1064C120.171 55.1064 120.576 55.4268 120.789 55.9814L127.872 71.4482C127.936 71.6188 128 71.7893 128 71.9385C128 72.4504 127.573 72.8768 127.062 72.877C126.592 72.877 126.251 72.5575 126.08 72.1523L124.267 68.1416H114.688L112.875 72.2158C112.704 72.6424 112.384 72.8983 111.915 72.8984C111.678 72.8968 111.451 72.8022 111.283 72.6348C111.116 72.4672 111.02 72.24 111.019 72.0029C111.019 71.8749 111.04 71.6822 111.125 71.4902L118.208 55.9814C118.464 55.4268 118.827 55.1064 119.467 55.1064H119.573ZM72.3418 66.3711H80.3838L76.3516 57.4316L72.3418 66.3711ZM115.456 66.3711H123.499L119.467 57.4316L115.456 66.3711Z" fill="url(#paint0_linear_5027_39826)"/>
<defs>
<linearGradient id="paint0_linear_5027_39826" x1="64" y1="55" x2="64" y2="73.2838" gradientUnits="userSpaceOnUse">
<stop stop-color="#06AAFF"/>
<stop offset="1" stop-color="#0075B2"/>
</linearGradient>
</defs>
</svg>
