<svg width="16" height="16" viewBox="0 0 16 16" fill="none" xmlns="http://www.w3.org/2000/svg">
<path d="M1.99279 3.96787C1.99279 3.96787 1.60825 3.3697 1.53347 3.20948C1.43734 3.00652 1.54416 2.95312 1.90733 2.95312C2.14233 2.95312 4.34275 2.95312 4.34275 2.95312H6.34022C6.34022 2.95312 6.32953 2.23745 6.34022 2.19472C6.3509 2.15199 9.71562 2.18404 9.7263 2.19472C9.73698 2.2054 9.73698 2.95312 9.73698 2.95312H14.3408C14.4476 2.95312 14.5544 3.04925 14.4689 3.23084C14.3728 3.41243 14.1165 3.7756 14.1165 3.7756L14.0844 13.1327L13.3474 13.5493L2.58028 13.5066L2.01415 13.1755L1.99279 3.96787Z" fill="url(#paint0_linear_5001_15055)"/>
<path d="M4.84482 13.2614V3.73115L7.84108 3.19873L11.147 3.76309V13.2614L8.04144 13.4531L4.84482 13.2614Z" fill="url(#paint1_linear_5001_15055)"/>
<path d="M4.31067 2.94226H11.7131L11.7024 3.74338L4.31067 3.71134V2.94226Z" fill="url(#paint2_linear_5001_15055)"/>
<path d="M1.99243 13.1646L6.26509 13.1326C6.26509 13.1326 6.26509 9.83192 6.26509 9.70374C6.26509 9.60761 6.28645 9.53284 6.41463 9.52216C6.54281 9.51147 9.38413 9.51147 9.49095 9.51147C9.59776 9.51147 9.67253 9.57556 9.67253 9.72511V13.1326C9.67253 13.1326 14.0734 13.0898 14.0627 13.1219C14.0627 13.1539 14.0734 13.6132 14.0734 13.6773C14.0734 13.7414 14.052 13.8269 13.8811 13.8269H2.13129C2.05652 13.8269 1.99243 13.7521 1.99243 13.6666C1.99243 13.5812 1.99243 13.1646 1.99243 13.1646Z" fill="url(#paint3_linear_5001_15055)"/>
<path d="M5.84954 13.1647C5.83886 13.154 5.80681 9.46888 5.86022 9.40479C5.91363 9.3407 10.0902 9.38343 10.1222 9.41547C10.1542 9.44752 10.1436 13.1327 10.1329 13.1647C10.1222 13.1968 5.84954 13.1647 5.84954 13.1647Z" fill="#E1E1E1"/>
<path d="M6.30862 9.89618H7.81474V12.8657H6.30862V9.89618Z" fill="#536F7B"/>
<path d="M8.19876 9.88531H9.73692V12.8548H8.19876V9.88531Z" fill="#536F7B"/>
<path d="M2.74114 5.92412C2.78438 5.97857 4.3426 5.97216 4.39064 5.94814C4.43869 5.92412 4.41467 4.35789 4.37783 4.29863C4.341 4.23938 2.77637 4.27461 2.73953 4.31144C2.7027 4.34828 2.69309 5.86326 2.74114 5.92412Z" fill="#6CA4AB"/>
<path d="M2.74114 8.59453C2.78438 8.64898 4.3426 8.64257 4.39064 8.61855C4.43869 8.59453 4.41467 7.0283 4.37783 6.96904C4.341 6.90979 2.77637 6.94502 2.73953 6.98185C2.7027 7.01869 2.69309 8.53367 2.74114 8.59453Z" fill="#6CA4AB"/>
<path d="M2.74114 11.5854C2.78438 11.6398 4.3426 11.6334 4.39064 11.6094C4.43869 11.5854 4.41467 10.0191 4.37783 9.95989C4.341 9.90063 2.77637 9.93586 2.73953 9.9727C2.7027 10.0095 2.69309 11.5245 2.74114 11.5854Z" fill="#6CA4AB"/>
<g clip-path="url(#clip0_5001_15055)">
<path d="M5.73743 6.20348C5.78796 6.2671 7.60886 6.25962 7.665 6.23155C7.72114 6.20348 7.69307 4.37322 7.65003 4.30398C7.60699 4.23474 5.7786 4.27591 5.73556 4.31895C5.69252 4.36199 5.68129 6.13236 5.73743 6.20348Z" fill="#6CA4AB"/>
<path d="M5.7374 9.31227C5.78793 9.3759 7.60883 9.36841 7.66497 9.34034C7.72111 9.31227 7.69304 7.48202 7.65 7.41277C7.60696 7.34353 5.77857 7.3847 5.73553 7.42775C5.69249 7.47079 5.68126 9.24116 5.7374 9.31227Z" fill="#6CA4AB"/>
</g>
<g clip-path="url(#clip1_5001_15055)">
<path d="M8.72822 6.20348C8.77874 6.2671 10.5996 6.25962 10.6558 6.23155C10.7119 6.20348 10.6839 4.37322 10.6408 4.30398C10.5978 4.23474 8.76939 4.27591 8.72634 4.31895C8.6833 4.36199 8.67207 6.13236 8.72822 6.20348Z" fill="#6CA4AB"/>
<path d="M8.72803 9.31227C8.77856 9.3759 10.5995 9.36841 10.6556 9.34034C10.7117 9.31227 10.6837 7.48202 10.6406 7.41277C10.5976 7.34353 8.7692 7.3847 8.72616 7.42775C8.68312 7.47079 8.67189 9.24116 8.72803 9.31227Z" fill="#6CA4AB"/>
</g>
<path d="M11.7139 5.92412C11.7572 5.97857 13.3154 5.97216 13.3634 5.94814C13.4115 5.92412 13.3874 4.35789 13.3506 4.29863C13.3138 4.23938 11.7491 4.27461 11.7123 4.31144C11.6755 4.34828 11.6659 5.86326 11.7139 5.92412Z" fill="#6CA4AB"/>
<path d="M11.7139 8.59453C11.7572 8.64898 13.3154 8.64257 13.3634 8.61855C13.4115 8.59453 13.3874 7.0283 13.3506 6.96904C13.3138 6.90979 11.7491 6.94502 11.7123 6.98185C11.6755 7.01869 11.6659 8.53367 11.7139 8.59453Z" fill="#6CA4AB"/>
<path d="M11.7139 11.5854C11.7572 11.6398 13.3154 11.6334 13.3634 11.6094C13.4115 11.5854 13.3874 10.0191 13.3506 9.95989C13.3138 9.90063 11.7491 9.93586 11.7123 9.9727C11.6755 10.0095 11.6659 11.5245 11.7139 11.5854Z" fill="#6CA4AB"/>
<defs>
<linearGradient id="paint0_linear_5001_15055" x1="7.99065" y1="2.16563" x2="7.99065" y2="13.5386" gradientUnits="userSpaceOnUse">
<stop stop-color="#EAE8E8"/>
<stop offset="1" stop-color="#C8C8C8"/>
</linearGradient>
<linearGradient id="paint1_linear_5001_15055" x1="7.9959" y1="3.19767" x2="7.9959" y2="13.452" gradientUnits="userSpaceOnUse">
<stop stop-color="#F5F5F5"/>
<stop offset="1" stop-color="#F0EEEE"/>
</linearGradient>
<linearGradient id="paint2_linear_5001_15055" x1="8.00919" y1="2.93906" x2="8.00919" y2="3.74338" gradientUnits="userSpaceOnUse">
<stop stop-color="#C4C4C4"/>
<stop offset="1" stop-color="#9A9A9A"/>
</linearGradient>
<linearGradient id="paint3_linear_5001_15055" x1="8.03077" y1="9.51254" x2="8.03077" y2="13.8269" gradientUnits="userSpaceOnUse">
<stop offset="0.2457" stop-color="#D2D2D2"/>
<stop offset="1" stop-color="#9A9A9A"/>
</linearGradient>
<clipPath id="clip0_5001_15055">
<rect width="1.70906" height="4.3594" fill="white" transform="translate(5.69922 4.26691)"/>
</clipPath>
<clipPath id="clip1_5001_15055">
<rect width="1.70906" height="4.3594" fill="white" transform="translate(8.69 4.26691)"/>
</clipPath>
</defs>
</svg>
