<svg width="16" height="16" viewBox="0 0 16 16" fill="none" xmlns="http://www.w3.org/2000/svg">
<path d="M7.99997 14.5C11.5898 14.5 14.4999 11.5898 14.4999 8C14.4999 4.41017 11.5898 1.50003 7.99997 1.50003C4.41014 1.50003 1.5 4.41017 1.5 8C1.5 11.5898 4.41014 14.5 7.99997 14.5Z" fill="#BFBFBF"/>
<path d="M2.42416 8.86973C2.55315 8.87562 2.66504 8.71677 2.79446 8.31702C2.87713 8.06679 3.11512 7.90127 3.37845 7.91077C3.37845 7.91077 3.61306 8.21546 3.67055 9.42121C3.73148 10.7135 4.1873 10.254 4.30288 10.7744C4.50885 11.7019 4.88179 11.8478 5.23259 12.1691C5.58339 12.4905 5.92322 11.7322 6.1623 10.7744C6.40138 9.8167 6.67418 10.1998 7.09201 9.84473C7.50984 9.48967 7.42595 9.15898 8.02172 8.91502C8.61749 8.67107 8.47428 8.93229 8.48667 8.45007C8.4948 8.13441 8.54538 7.82342 8.64328 7.75212C8.91324 7.55529 8.8716 7.51081 8.95163 7.0552C9.03166 6.59958 7.8517 6.10883 8.02192 5.66053C8.13773 5.36145 8.13773 5.0299 8.02192 4.73082C8.02192 4.73082 7.49379 4.4759 7.09221 5.66053C6.87243 6.30688 6.70322 5.37128 6.62725 5.19557C6.55128 5.01987 6.62725 4.26587 6.62725 4.26587C5.97298 4.0278 6.29839 4.50393 5.69754 4.26587C5.0967 4.0278 4.91063 4.04121 5.23259 3.33616C5.23259 3.33616 5.40748 2.59698 4.9279 2.27078C2.84273 3.38899 1.53023 5.55234 1.50159 7.91826C1.7624 8.31519 2.1654 8.85815 2.42416 8.86973Z" fill="#666666"/>
<path d="M12.3601 3.17938C12.4349 3.44731 12.5543 3.87001 12.6715 4.26611C12.8622 4.909 12.6831 5.34268 12.6715 5.66078C12.6599 5.97887 13.1503 7.09139 13.1365 7.05544C13.3049 7.17171 13.4297 7.34104 13.4907 7.53644C13.5147 7.93092 14.0731 8.05584 14.4889 8.36926C14.4958 8.24739 14.5 8.12348 14.5 7.99937C14.5019 6.16209 13.7242 4.41025 12.3601 3.17938Z" fill="#666666"/>
<path d="M8.95214 3.33602C9.82863 3.48248 10.3102 3.84262 10.7638 3.88792C11.166 3.92857 10.774 3.3149 10.423 2.85766C10.2295 2.57194 10.1505 2.2239 10.2018 1.88265C9.59367 1.66391 8.95623 1.53744 8.31067 1.50748C8.53655 1.78515 8.86297 2.10528 8.90746 2.25579C8.97205 2.47456 8.32956 3.23202 8.95214 3.33602Z" fill="#666666"/>
<path d="M14.166 10.0564C13.9206 9.75824 13.3614 9.13606 13.1366 9.38002C12.8335 9.70847 13.1163 10.7712 12.6716 10.7747C12.227 10.7781 11.5676 11.2216 11.2213 11.9268C10.8849 12.6114 9.74294 12.344 9.8244 14.2384C11.8685 13.6384 13.4899 12.0766 14.166 10.0564Z" fill="#666666"/>
</svg>
