<svg width="16" height="16" viewBox="0 0 16 16" fill="none" xmlns="http://www.w3.org/2000/svg">
<path d="M10.009 7.4091C10.009 8.33092 9.27629 9.06362 8.3545 9.06362C7.43271 9.06362 6.69998 8.33089 6.69998 7.4091C6.69998 6.48731 7.43271 5.75458 8.3545 5.75458C9.27629 5.75458 10.009 6.48728 10.009 7.4091Z" fill="url(#paint0_linear_5001_15076)"/>
<path d="M8.3545 9.06362C8.42542 9.06362 8.49631 9.06362 8.54359 9.03999C7.90541 8.94544 7.40905 8.26 7.40905 7.4091C7.40905 6.5582 7.90541 5.87275 8.54359 5.77821C8.49633 5.75458 8.42542 5.75458 8.3545 5.75458C7.43268 5.75458 6.69998 6.48731 6.69998 7.4091C6.69998 8.33089 7.43271 9.06362 8.3545 9.06362Z" fill="white" fill-opacity="0.2"/>
<path d="M14.2633 2.91855C14.2633 3.58037 13.7433 4.10035 13.0815 4.10035C12.4196 4.10035 11.8997 3.58037 11.8997 2.91855C11.8997 2.25674 12.4196 1.73676 13.0815 1.73676C13.7433 1.73676 14.2633 2.25674 14.2633 2.91855Z" fill="url(#paint1_linear_5001_15076)"/>
<path d="M9.53672 13.0819C9.53672 13.7437 9.01674 14.2637 8.35492 14.2637C7.69311 14.2637 7.17313 13.7437 7.17313 13.0819C7.17313 12.4201 7.69311 11.9001 8.35492 11.9001C9.01671 11.9001 9.53672 12.4201 9.53672 13.0819Z" fill="url(#paint2_linear_5001_15076)"/>
<path d="M4.0997 12.6089C4.0997 13.2707 3.57972 13.7907 2.91791 13.7907C2.25609 13.7907 1.73608 13.2707 1.73608 12.6089C1.73608 11.9471 2.25607 11.4271 2.91788 11.4271C3.57969 11.4271 4.0997 11.9471 4.0997 12.6089Z" fill="url(#paint3_linear_5001_15076)"/>
<path d="M5.28222 3.62753C5.28222 4.02934 4.97496 4.3366 4.57315 4.3366C4.17134 4.3366 3.86407 4.02934 3.86407 3.62753C3.86407 3.22572 4.17134 2.91846 4.57315 2.91846C4.97496 2.91846 5.28222 3.22569 5.28222 3.62753Z" fill="url(#paint4_linear_5001_15076)"/>
<path d="M2.91834 13.7906C2.98925 13.7906 3.06014 13.7906 3.13106 13.767C2.72925 13.6725 2.44561 13.1997 2.44561 12.6088C2.44561 12.0179 2.72925 11.5452 3.13106 11.4507C3.06014 11.427 2.98925 11.427 2.91834 11.427C2.25652 11.427 1.73654 11.947 1.73654 12.6088C1.73654 13.2706 2.25652 13.7906 2.91834 13.7906Z" fill="white" fill-opacity="0.2"/>
<path d="M8.37888 14.2634C8.44979 14.2634 8.52068 14.2634 8.5916 14.2398C8.21342 14.1453 7.90616 13.6489 7.90616 13.0816C7.90616 12.5144 8.18979 12.018 8.5916 11.9235C8.52068 11.8998 8.44979 11.8998 8.37888 11.8998C7.71707 11.8998 7.19708 12.4198 7.19708 13.0816C7.19708 13.7435 7.74072 14.2634 8.37888 14.2634Z" fill="white" fill-opacity="0.2"/>
<path d="M13.1054 4.0998C13.1763 4.0998 13.2472 4.0998 13.3181 4.07617C12.94 3.98163 12.6327 3.48527 12.6327 2.918C12.6327 2.35073 12.9163 1.85438 13.3181 1.75984C13.2472 1.73621 13.1763 1.73621 13.1054 1.73621C12.4436 1.73621 11.9236 2.25619 11.9236 2.918C11.9236 3.57982 12.4672 4.0998 13.1054 4.0998Z" fill="white" fill-opacity="0.2"/>
<path d="M12.8459 11.1911C12.8459 11.5929 12.5386 11.9001 12.1368 11.9001C11.735 11.9001 11.4277 11.5929 11.4277 11.1911C11.4277 10.7893 11.735 10.482 12.1368 10.482C12.5386 10.482 12.8459 10.7893 12.8459 11.1911Z" fill="url(#paint5_linear_5001_15076)"/>
<path d="M8.35434 9.29983C7.31434 9.29983 6.46344 8.44892 6.46344 7.40893C6.46344 6.36894 7.31434 5.51804 8.35434 5.51804C9.39433 5.51804 10.2452 6.36894 10.2452 7.40893C10.2452 8.44892 9.39433 9.29983 8.35434 9.29983ZM8.35434 5.99076C7.57435 5.99076 6.93616 6.62894 6.93616 7.40893C6.93616 8.18892 7.57435 8.8271 8.35434 8.8271C9.13432 8.8271 9.77251 8.18892 9.77251 7.40893C9.77251 6.62894 9.13432 5.99076 8.35434 5.99076Z" fill="#676D75"/>
<path d="M13.0816 4.33634C12.3016 4.33634 11.6635 3.69816 11.6635 2.91817C11.6635 2.13818 12.3016 1.5 13.0816 1.5C13.8616 1.5 14.4998 2.13818 14.4998 2.91817C14.4998 3.69816 13.8616 4.33634 13.0816 4.33634ZM13.0816 1.97272C12.5616 1.97272 12.1362 2.39816 12.1362 2.91817C12.1362 3.43818 12.5616 3.86362 13.0816 3.86362C13.6016 3.86362 14.0271 3.43818 14.0271 2.91817C14.0271 2.39816 13.6016 1.97272 13.0816 1.97272Z" fill="#676D75"/>
<path d="M8.35463 14.5C7.57465 14.5 6.93646 13.8618 6.93646 13.0818C6.93646 12.3018 7.57465 11.6636 8.35463 11.6636C9.13462 11.6636 9.77281 12.3018 9.77281 13.0818C9.77281 13.8618 9.13462 14.5 8.35463 14.5ZM8.35463 12.1364C7.83465 12.1364 7.40919 12.5618 7.40919 13.0818C7.40919 13.6018 7.83462 14.0273 8.35463 14.0273C8.87464 14.0273 9.30008 13.6018 9.30008 13.0818C9.30008 12.5618 8.87464 12.1364 8.35463 12.1364Z" fill="#676D75"/>
<path d="M2.91814 14.0271C2.13815 14.0271 1.49997 13.389 1.49997 12.609C1.49997 11.829 2.13815 11.1908 2.91814 11.1908C3.69813 11.1908 4.33631 11.829 4.33631 12.609C4.33631 13.389 3.69813 14.0271 2.91814 14.0271ZM2.91814 11.6635C2.39816 11.6635 1.97269 12.089 1.97269 12.609C1.97269 13.129 2.39813 13.5544 2.91814 13.5544C3.43815 13.5544 3.86359 13.129 3.86359 12.609C3.86359 12.089 3.43812 11.6635 2.91814 11.6635Z" fill="#676D75"/>
<path d="M4.57255 4.57281C4.05257 4.57281 3.62711 4.14737 3.62711 3.62736C3.62711 3.10735 4.05254 2.68192 4.57255 2.68192C5.09256 2.68192 5.518 3.10735 5.518 3.62736C5.518 4.14737 5.09254 4.57281 4.57255 4.57281ZM4.57255 3.15467C4.31255 3.15467 4.09983 3.36738 4.09983 3.62739C4.09983 3.88739 4.31255 4.10011 4.57255 4.10011C4.83256 4.10011 5.04528 3.88739 5.04528 3.62739C5.04528 3.36738 4.83256 3.15467 4.57255 3.15467Z" fill="#676D75"/>
<path d="M12.1366 12.1363C11.6166 12.1363 11.1912 11.7109 11.1912 11.1909C11.1912 10.6709 11.6166 10.2454 12.1366 10.2454C12.6566 10.2454 13.0821 10.6709 13.0821 11.1909C13.0821 11.7109 12.6566 12.1363 12.1366 12.1363ZM12.1366 10.7181C11.8766 10.7181 11.6639 10.9309 11.6639 11.1909C11.6639 11.4509 11.8766 11.6636 12.1366 11.6636C12.3966 11.6636 12.6093 11.4509 12.6093 11.1909C12.6093 10.9309 12.3966 10.7181 12.1366 10.7181Z" fill="#676D75"/>
<path d="M8.38437 11.9234C8.25113 11.9234 8.16229 11.8346 8.16229 11.7014V9.03643C8.16229 8.90319 8.25113 8.81436 8.38437 8.81436C8.51761 8.81436 8.60644 8.90319 8.60644 9.03643V11.7013C8.60647 11.8346 8.51763 11.9234 8.38437 11.9234Z" fill="#676D75"/>
<path d="M9.53654 6.46371C9.46562 6.46371 9.41837 6.44008 9.37108 6.39279C9.27653 6.29825 9.27653 6.15644 9.37108 6.0619L11.971 3.46193C12.0656 3.36739 12.2074 3.36739 12.3019 3.46193C12.3965 3.55648 12.3965 3.69828 12.3019 3.79282L9.70197 6.39279C9.65471 6.44008 9.60743 6.46371 9.53654 6.46371Z" fill="#676D75"/>
<path d="M3.8826 11.9976C3.81181 11.9976 3.76463 11.9749 3.71742 11.9295C3.62304 11.8389 3.62304 11.7029 3.71742 11.6122L7.0208 8.43834C7.11519 8.34766 7.25675 8.34766 7.35113 8.43834C7.44551 8.52902 7.44551 8.66503 7.35113 8.75571L4.04775 11.9295C4.00057 11.9749 3.95337 11.9976 3.8826 11.9976Z" fill="#676D75"/>
<path d="M7.1734 6.46352C7.10248 6.46352 7.05522 6.43989 7.00794 6.3926L4.88069 4.26536C4.78615 4.17081 4.78615 4.02901 4.88069 3.93446C4.97524 3.83992 5.11704 3.83992 5.21159 3.93446L7.33883 6.06171C7.43338 6.15625 7.43338 6.29806 7.33883 6.3926C7.29157 6.43989 7.24431 6.46352 7.1734 6.46352Z" fill="#676D75"/>
<path d="M11.4259 10.6651C11.3613 10.6651 11.3183 10.6443 11.2752 10.6025L9.33707 8.72497C9.25093 8.64152 9.25093 8.51636 9.33707 8.43292C9.4232 8.34947 9.5524 8.34947 9.63854 8.43292L11.5767 10.3105C11.6628 10.3939 11.6628 10.5191 11.5767 10.6025C11.5336 10.6442 11.4905 10.6651 11.4259 10.6651Z" fill="#676D75"/>
<defs>
<linearGradient id="paint0_linear_5001_15076" x1="8.3545" y1="5.75458" x2="8.3545" y2="9.06362" gradientUnits="userSpaceOnUse">
<stop stop-color="white"/>
<stop offset="1" stop-color="#808080"/>
</linearGradient>
<linearGradient id="paint1_linear_5001_15076" x1="13.0815" y1="1.73676" x2="13.0815" y2="4.10035" gradientUnits="userSpaceOnUse">
<stop stop-color="white"/>
<stop offset="1" stop-color="#808080"/>
</linearGradient>
<linearGradient id="paint2_linear_5001_15076" x1="8.35492" y1="11.9001" x2="8.35492" y2="14.2637" gradientUnits="userSpaceOnUse">
<stop stop-color="white"/>
<stop offset="1" stop-color="#808080"/>
</linearGradient>
<linearGradient id="paint3_linear_5001_15076" x1="2.91789" y1="11.4271" x2="2.91789" y2="13.7907" gradientUnits="userSpaceOnUse">
<stop stop-color="white"/>
<stop offset="1" stop-color="#808080"/>
</linearGradient>
<linearGradient id="paint4_linear_5001_15076" x1="4.57315" y1="2.91846" x2="4.57315" y2="4.3366" gradientUnits="userSpaceOnUse">
<stop stop-color="white"/>
<stop offset="1" stop-color="#808080"/>
</linearGradient>
<linearGradient id="paint5_linear_5001_15076" x1="12.1368" y1="10.482" x2="12.1368" y2="11.9001" gradientUnits="userSpaceOnUse">
<stop stop-color="white"/>
<stop offset="1" stop-color="#808080"/>
</linearGradient>
</defs>
</svg>
