<svg width="16" height="16" viewBox="0 0 16 16" fill="none" xmlns="http://www.w3.org/2000/svg">
<path d="M4.4688 10.5666C4.58878 10.5666 4.70385 10.6143 4.7887 10.6991C4.87354 10.7839 4.9212 10.899 4.9212 11.019C4.9212 11.139 4.87354 11.2541 4.7887 11.3389C4.70385 11.4237 4.58878 11.4714 4.4688 11.4714H1.95265C1.83266 11.4714 1.71759 11.4237 1.63275 11.3389C1.54791 11.2541 1.50024 11.139 1.50024 11.019C1.50024 10.899 1.54791 10.7839 1.63275 10.6991C1.71759 10.6143 1.83266 10.5666 1.95265 10.5666H4.4688Z" fill="#DCE2E9"/>
<path d="M4.4688 9.05707C4.58878 9.05707 4.70385 9.10473 4.7887 9.18957C4.87354 9.27442 4.9212 9.38949 4.9212 9.50947C4.9212 9.62946 4.87354 9.74453 4.7887 9.82938C4.70385 9.91422 4.58878 9.96188 4.4688 9.96188H1.95265C1.83266 9.96188 1.71759 9.91422 1.63275 9.82938C1.54791 9.74453 1.50024 9.62946 1.50024 9.50947C1.50024 9.38949 1.54791 9.27442 1.63275 9.18957C1.71759 9.10473 1.83266 9.05707 1.95265 9.05707H4.4688Z" fill="#DCE2E9"/>
<path d="M4.4688 7.54703C4.52829 7.54703 4.58719 7.55876 4.64214 7.58156C4.69709 7.60435 4.74701 7.63776 4.78903 7.67987C4.83105 7.72198 4.86436 7.77196 4.88704 7.82696C4.90972 7.88196 4.92133 7.94089 4.9212 8.00038C4.9212 8.12036 4.87354 8.23544 4.7887 8.32028C4.70385 8.40512 4.58878 8.45279 4.4688 8.45279H1.95265C1.83267 8.45279 1.71759 8.40512 1.63275 8.32028C1.54791 8.23544 1.50025 8.12036 1.50025 8.00038C1.50012 7.94089 1.51173 7.88196 1.53441 7.82696C1.55709 7.77196 1.5904 7.72198 1.63242 7.67987C1.67444 7.63776 1.72436 7.60435 1.77931 7.58156C1.83426 7.55876 1.89316 7.54703 1.95265 7.54703H4.4688Z" fill="#DCE2E9"/>
<path d="M4.4688 6.03802C4.58878 6.03802 4.70385 6.08569 4.7887 6.17053C4.87354 6.25537 4.9212 6.37045 4.9212 6.49043C4.9212 6.61042 4.87354 6.72549 4.7887 6.81033C4.70385 6.89518 4.58878 6.94284 4.4688 6.94284H1.95265C1.83266 6.94284 1.71759 6.89518 1.63275 6.81033C1.54791 6.72549 1.50024 6.61042 1.50024 6.49043C1.50024 6.37045 1.54791 6.25537 1.63275 6.17053C1.71759 6.08569 1.83266 6.03802 1.95265 6.03802H4.4688Z" fill="#DCE2E9"/>
<path d="M4.4688 4.52777C4.58869 4.52807 4.70358 4.57583 4.78836 4.66061C4.87314 4.74539 4.9209 4.86028 4.9212 4.98018C4.9212 5.10016 4.87354 5.21524 4.7887 5.30008C4.70385 5.38492 4.58878 5.43259 4.4688 5.43259H1.95265C1.83266 5.43259 1.71759 5.38492 1.63275 5.30008C1.54791 5.21524 1.50024 5.10016 1.50024 4.98018C1.50054 4.86028 1.54831 4.74539 1.63308 4.66061C1.71786 4.57583 1.83276 4.52807 1.95265 4.52777H4.4688Z" fill="#DCE2E9"/>
<g style="mix-blend-mode:multiply">
<path d="M2.46637 11.4721H4.46884C4.58883 11.4721 4.7039 11.4245 4.78874 11.3396C4.87358 11.2548 4.92125 11.1397 4.92125 11.0197C4.92125 10.8997 4.87358 10.7847 4.78874 10.6998C4.7039 10.615 4.58883 10.5673 4.46884 10.5673H2.46637V11.4721Z" fill="#DCE2E9"/>
<path d="M2.46637 9.96295H4.46884C4.58898 9.96295 4.70419 9.91523 4.78914 9.83028C4.87409 9.74533 4.92181 9.63012 4.92181 9.50998C4.92181 9.38984 4.87409 9.27463 4.78914 9.18968C4.70419 9.10473 4.58898 9.05701 4.46884 9.05701H2.46637V9.96295Z" fill="#DCE2E9"/>
<path d="M2.46637 8.45272H4.46884C4.58895 8.45272 4.70414 8.40501 4.78908 8.32008C4.87401 8.23515 4.92172 8.11996 4.92172 7.99985C4.92172 7.87974 4.87401 7.76454 4.78908 7.67961C4.70414 7.59468 4.58895 7.54697 4.46884 7.54697H2.46637V8.45272Z" fill="#DCE2E9"/>
<path d="M2.46637 6.94357H4.46884C4.58883 6.94357 4.7039 6.89591 4.78874 6.81106C4.87358 6.72622 4.92125 6.61115 4.92125 6.49117C4.92125 6.37118 4.87358 6.25611 4.78874 6.17126C4.7039 6.08642 4.58883 6.03876 4.46884 6.03876H2.46637V6.94357Z" fill="#DCE2E9"/>
<path d="M2.46625 5.43347H4.46872C4.58883 5.43347 4.70402 5.38575 4.78895 5.30082C4.87388 5.21589 4.9216 5.1007 4.9216 4.98059C4.9216 4.86048 4.87388 4.74529 4.78895 4.66035C4.70402 4.57542 4.58883 4.52771 4.46872 4.52771H2.46625V5.43347Z" fill="#DCE2E9"/>
</g>
<path d="M11.5314 5.43335C11.4114 5.43335 11.2963 5.38568 11.2115 5.30084C11.1266 5.216 11.079 5.10093 11.079 4.98094C11.079 4.92153 11.0907 4.8627 11.1134 4.80781C11.1362 4.75292 11.1695 4.70305 11.2115 4.66104C11.2535 4.61903 11.3034 4.58571 11.3583 4.56297C11.4131 4.54024 11.472 4.52853 11.5314 4.52853H14.0473C14.1067 4.52853 14.1656 4.54024 14.2205 4.56297C14.2754 4.58571 14.3252 4.61903 14.3672 4.66104C14.4092 4.70305 14.4426 4.75292 14.4653 4.80781C14.488 4.8627 14.4997 4.92153 14.4997 4.98094C14.4997 5.10093 14.4521 5.216 14.3672 5.30084C14.2824 5.38568 14.1673 5.43335 14.0473 5.43335H11.5314Z" fill="#DCE2E9"/>
<path d="M11.5312 6.94281C11.4718 6.94281 11.413 6.93111 11.3581 6.90837C11.3032 6.88564 11.2533 6.85231 11.2113 6.8103C11.1693 6.76829 11.136 6.71842 11.1132 6.66353C11.0905 6.60864 11.0788 6.54981 11.0788 6.4904C11.0788 6.37041 11.1265 6.25534 11.2113 6.1705C11.2961 6.08566 11.4112 6.03799 11.5312 6.03799H14.0472C14.1671 6.03799 14.2822 6.08566 14.3671 6.1705C14.4519 6.25534 14.4996 6.37041 14.4996 6.4904C14.4996 6.54981 14.4879 6.60864 14.4651 6.66353C14.4424 6.71842 14.4091 6.76829 14.3671 6.8103C14.325 6.85231 14.2752 6.88564 14.2203 6.90837C14.1654 6.93111 14.1066 6.94281 14.0472 6.94281H11.5312Z" fill="#DCE2E9"/>
<path d="M11.5312 8.45261C11.4112 8.45261 11.2961 8.40494 11.2113 8.3201C11.1265 8.23526 11.0788 8.12019 11.0788 8.0002C11.0788 7.88021 11.1265 7.76514 11.2113 7.6803C11.2961 7.59546 11.4112 7.54779 11.5312 7.54779H14.0472C14.1671 7.54779 14.2822 7.59546 14.3671 7.6803C14.4519 7.76514 14.4996 7.88021 14.4996 8.0002C14.4996 8.12019 14.4519 8.23526 14.3671 8.3201C14.2822 8.40494 14.1671 8.45261 14.0472 8.45261H11.5312Z" fill="#DCE2E9"/>
<path d="M11.5312 9.96185C11.4112 9.96185 11.2961 9.91419 11.2113 9.82935C11.1265 9.7445 11.0788 9.62943 11.0788 9.50945C11.0788 9.38946 11.1265 9.27439 11.2113 9.18954C11.2961 9.1047 11.4112 9.05704 11.5312 9.05704H14.0472C14.167 9.05734 14.2819 9.1051 14.3667 9.18987C14.4515 9.27465 14.4993 9.38955 14.4996 9.50945C14.4996 9.62943 14.4519 9.7445 14.3671 9.82935C14.2822 9.91419 14.1671 9.96185 14.0472 9.96185H11.5312Z" fill="#DCE2E9"/>
<path d="M11.5312 11.4722C11.4718 11.4722 11.413 11.4605 11.3581 11.4377C11.3032 11.415 11.2533 11.3817 11.2113 11.3397C11.1693 11.2976 11.136 11.2478 11.1132 11.1929C11.0905 11.138 11.0788 11.0792 11.0788 11.0198C11.0788 10.8998 11.1265 10.7847 11.2113 10.6999C11.2961 10.615 11.4112 10.5674 11.5312 10.5674H14.0472C14.1671 10.5674 14.2822 10.615 14.3671 10.6999C14.4519 10.7847 14.4996 10.8998 14.4996 11.0198C14.4993 11.1397 14.4515 11.2546 14.3667 11.3393C14.2819 11.4241 14.167 11.4719 14.0472 11.4722H11.5312Z" fill="#DCE2E9"/>
<g style="mix-blend-mode:multiply">
<path d="M13.5341 4.52771H11.5309C11.4108 4.52771 11.2956 4.57542 11.2106 4.66035C11.1257 4.74529 11.078 4.86048 11.078 4.98059C11.078 5.1007 11.1257 5.21589 11.2106 5.30082C11.2956 5.38575 11.4108 5.43347 11.5309 5.43347H13.5333L13.5341 4.52771Z" fill="#DCE2E9"/>
<path d="M13.5345 6.03717H11.5313C11.4112 6.03717 11.296 6.08488 11.2111 6.16982C11.1261 6.25475 11.0784 6.36994 11.0784 6.49005C11.0784 6.61016 11.1261 6.72535 11.2111 6.81028C11.296 6.89521 11.4112 6.94293 11.5313 6.94293H13.5338L13.5345 6.03717Z" fill="#DCE2E9"/>
<path d="M13.5345 7.54697H11.5313C11.4112 7.54697 11.296 7.59468 11.2111 7.67961C11.1261 7.76454 11.0784 7.87974 11.0784 7.99985C11.0784 8.11996 11.1261 8.23515 11.2111 8.32008C11.296 8.40501 11.4112 8.45272 11.5313 8.45272H13.5338L13.5345 7.54697Z" fill="#DCE2E9"/>
<path d="M13.5344 9.05621H11.5312C11.4112 9.05621 11.2961 9.10388 11.2113 9.18872C11.1265 9.27356 11.0788 9.38863 11.0788 9.50862C11.0788 9.62861 11.1265 9.74368 11.2113 9.82852C11.2961 9.91336 11.4112 9.96103 11.5312 9.96103H13.5337L13.5344 9.05621Z" fill="#DCE2E9"/>
<path d="M13.5344 10.5665H11.5312C11.4112 10.5665 11.2961 10.6142 11.2113 10.699C11.1265 10.7839 11.0788 10.8989 11.0788 11.0189C11.0788 11.1389 11.1265 11.254 11.2113 11.3388C11.2961 11.4237 11.4112 11.4713 11.5312 11.4713H13.5337L13.5344 10.5665Z" fill="#DCE2E9"/>
</g>
<path d="M5.4338 4.46866C5.4338 4.58865 5.38614 4.70372 5.3013 4.78857C5.21646 4.87341 5.10138 4.92107 4.9814 4.92107C4.86141 4.92107 4.74634 4.87341 4.6615 4.78857C4.57666 4.70372 4.52899 4.58865 4.52899 4.46866V1.95271C4.52899 1.83273 4.57666 1.71765 4.6615 1.63281C4.74634 1.54797 4.86141 1.50031 4.9814 1.50031C5.10138 1.50031 5.21646 1.54797 5.3013 1.63281C5.38614 1.71765 5.4338 1.83273 5.4338 1.95271V4.46866Z" fill="#DCE2E9"/>
<path d="M6.94363 4.46836C6.94363 4.58835 6.89597 4.70342 6.81112 4.78826C6.72628 4.8731 6.61121 4.92077 6.49122 4.92077C6.37124 4.92077 6.25617 4.8731 6.17133 4.78826C6.08648 4.70342 6.03882 4.58835 6.03882 4.46836V1.95241C6.03882 1.83242 6.08648 1.71735 6.17133 1.63251C6.25617 1.54766 6.37124 1.5 6.49122 1.5C6.61121 1.5 6.72628 1.54766 6.81112 1.63251C6.89597 1.71735 6.94363 1.83242 6.94363 1.95241V4.46836Z" fill="#DCE2E9"/>
<path d="M8.45331 4.46836C8.45331 4.52787 8.44157 4.58679 8.41876 4.64175C8.39596 4.69671 8.36253 4.74664 8.3204 4.78866C8.27827 4.83069 8.22827 4.86399 8.17325 4.88666C8.11823 4.90933 8.05928 4.92092 7.99977 4.92077C7.87978 4.92077 7.76471 4.87311 7.67987 4.78826C7.59503 4.70342 7.54736 4.58835 7.54736 4.46836V1.95241C7.54736 1.83242 7.59503 1.71735 7.67987 1.63251C7.76471 1.54767 7.87978 1.5 7.99977 1.5C8.05928 1.49985 8.11823 1.51145 8.17325 1.53411C8.22827 1.55678 8.27827 1.59008 8.3204 1.63211C8.36253 1.67413 8.39596 1.72406 8.41876 1.77902C8.44157 1.83398 8.45331 1.8929 8.45331 1.95241V4.46836Z" fill="#DCE2E9"/>
<path d="M9.96238 4.46836C9.96238 4.58835 9.91471 4.70342 9.82987 4.78826C9.74503 4.8731 9.62995 4.92077 9.50997 4.92077C9.38998 4.92077 9.27491 4.8731 9.19006 4.78826C9.10522 4.70342 9.05756 4.58835 9.05756 4.46836V1.95241C9.05756 1.83242 9.10522 1.71735 9.19006 1.63251C9.27491 1.54766 9.38998 1.5 9.50997 1.5C9.62995 1.5 9.74503 1.54766 9.82987 1.63251C9.91471 1.71735 9.96238 1.83242 9.96238 1.95241V4.46836Z" fill="#DCE2E9"/>
<path d="M11.4729 4.46836C11.4729 4.58835 11.4252 4.70342 11.3404 4.78826C11.2555 4.8731 11.1404 4.92077 11.0205 4.92077C10.9005 4.92077 10.7854 4.8731 10.7006 4.78826C10.6157 4.70342 10.5681 4.58835 10.5681 4.46836V1.95241C10.5681 1.83242 10.6157 1.71735 10.7006 1.63251C10.7854 1.54766 10.9005 1.5 11.0205 1.5C11.1404 1.5 11.2555 1.54766 11.3404 1.63251C11.4252 1.71735 11.4729 1.83242 11.4729 1.95241V4.46836Z" fill="#DCE2E9"/>
<g style="mix-blend-mode:multiply">
<path d="M4.52814 2.46597V4.46844C4.52814 4.58843 4.5758 4.7035 4.66064 4.78834C4.74549 4.87319 4.86056 4.92085 4.98054 4.92085C5.10053 4.92085 5.2156 4.87319 5.30044 4.78834C5.38529 4.7035 5.43295 4.58843 5.43295 4.46844V2.46597H4.52814Z" fill="#DCE2E9"/>
<path d="M6.0376 2.46613V4.4686C6.0376 4.58858 6.08526 4.70365 6.1701 4.7885C6.25495 4.87334 6.37002 4.921 6.49 4.921C6.60999 4.921 6.72506 4.87334 6.8099 4.7885C6.89475 4.70365 6.94241 4.58858 6.94241 4.4686V2.46613H6.0376Z" fill="#DCE2E9"/>
<path d="M7.54736 2.46613V4.4686C7.54736 4.58858 7.59503 4.70365 7.67987 4.7885C7.76471 4.87334 7.87978 4.921 7.99977 4.921C8.11976 4.921 8.23483 4.87334 8.31967 4.7885C8.40451 4.70365 8.45218 4.58858 8.45218 4.4686V2.46613H7.54736Z" fill="#DCE2E9"/>
<path d="M9.05627 2.46613V4.4686C9.05627 4.58858 9.10394 4.70365 9.18878 4.7885C9.27362 4.87334 9.3887 4.921 9.50868 4.921C9.62867 4.921 9.74374 4.87334 9.82859 4.7885C9.91343 4.70365 9.96109 4.58858 9.96109 4.4686V2.46613H9.05627Z" fill="#DCE2E9"/>
<path d="M10.5665 2.46613V4.4686C10.5665 4.58858 10.6141 4.70365 10.699 4.7885C10.7838 4.87334 10.8989 4.921 11.0189 4.921C11.1389 4.921 11.2539 4.87334 11.3388 4.7885C11.4236 4.70365 11.4713 4.58858 11.4713 4.4686V2.46613H10.5665Z" fill="#DCE2E9"/>
</g>
<path d="M10.5665 11.5313C10.5665 11.4113 10.6141 11.2962 10.699 11.2114C10.7838 11.1266 10.8989 11.0789 11.0189 11.0789C11.1389 11.0789 11.2539 11.1266 11.3388 11.2114C11.4236 11.2962 11.4713 11.4113 11.4713 11.5313V14.0474C11.4713 14.1068 11.4596 14.1657 11.4369 14.2206C11.4141 14.2755 11.3808 14.3253 11.3388 14.3673C11.2968 14.4093 11.2469 14.4427 11.192 14.4654C11.1371 14.4881 11.0783 14.4998 11.0189 14.4998C10.9595 14.4998 10.9006 14.4881 10.8457 14.4654C10.7909 14.4427 10.741 14.4093 10.699 14.3673C10.657 14.3253 10.6236 14.2755 10.6009 14.2206C10.5782 14.1657 10.5665 14.1068 10.5665 14.0474V11.5313Z" fill="#DCE2E9"/>
<path d="M9.05707 11.5313C9.05707 11.4113 9.10473 11.2962 9.18957 11.2114C9.27442 11.1266 9.38949 11.0789 9.50948 11.0789C9.62947 11.0789 9.74454 11.1266 9.82938 11.2114C9.91422 11.2962 9.96189 11.4113 9.96189 11.5313V14.0474C9.96189 14.1068 9.95018 14.1657 9.92745 14.2206C9.90471 14.2755 9.87139 14.3253 9.82938 14.3673C9.78737 14.4093 9.7375 14.4427 9.68261 14.4654C9.62772 14.4881 9.56889 14.4998 9.50948 14.4998C9.45007 14.4998 9.39124 14.4881 9.33635 14.4654C9.28146 14.4427 9.23158 14.4093 9.18957 14.3673C9.14756 14.3253 9.11424 14.2755 9.09151 14.2206C9.06877 14.1657 9.05707 14.1068 9.05707 14.0474V11.5313Z" fill="#DCE2E9"/>
<path d="M7.54736 11.5313C7.54736 11.4113 7.59503 11.2962 7.67987 11.2114C7.76471 11.1266 7.87978 11.0789 7.99977 11.0789C8.11976 11.0789 8.23483 11.1266 8.31967 11.2114C8.40451 11.2962 8.45218 11.4113 8.45218 11.5313V14.0474C8.45218 14.1068 8.44048 14.1657 8.41774 14.2206C8.39501 14.2755 8.36168 14.3253 8.31967 14.3673C8.27766 14.4093 8.22778 14.4427 8.1729 14.4654C8.11801 14.4881 8.05918 14.4998 7.99977 14.4998C7.94036 14.4998 7.88153 14.4881 7.82664 14.4654C7.77175 14.4427 7.72188 14.4093 7.67987 14.3673C7.63786 14.3253 7.60453 14.2755 7.5818 14.2206C7.55906 14.1657 7.54736 14.1068 7.54736 14.0474V11.5313Z" fill="#DCE2E9"/>
<path d="M6.03839 11.5313C6.03839 11.4113 6.08606 11.2962 6.1709 11.2114C6.25574 11.1266 6.37081 11.0789 6.4908 11.0789C6.61069 11.0792 6.72559 11.1269 6.81037 11.2117C6.89515 11.2965 6.94291 11.4114 6.9432 11.5313V14.0474C6.94291 14.1673 6.89515 14.2822 6.81037 14.367C6.72559 14.4518 6.61069 14.4995 6.4908 14.4998C6.43139 14.4998 6.37256 14.4881 6.31767 14.4654C6.26278 14.4427 6.21291 14.4093 6.1709 14.3673C6.12889 14.3253 6.09556 14.2755 6.07283 14.2206C6.05009 14.1657 6.03839 14.1068 6.03839 14.0474V11.5313Z" fill="#DCE2E9"/>
<path d="M4.52814 11.5314C4.52814 11.4114 4.5758 11.2963 4.66064 11.2115C4.74549 11.1266 4.86056 11.079 4.98054 11.079C5.10053 11.079 5.2156 11.1266 5.30044 11.2115C5.38529 11.2963 5.43295 11.4114 5.43295 11.5314V14.0475C5.43295 14.1069 5.42125 14.1658 5.39851 14.2207C5.37578 14.2755 5.34245 14.3254 5.30044 14.3674C5.25843 14.4094 5.20856 14.4428 5.15367 14.4655C5.09878 14.4882 5.03995 14.4999 4.98054 14.4999C4.92113 14.4999 4.86231 14.4882 4.80742 14.4655C4.75253 14.4428 4.70265 14.4094 4.66064 14.3674C4.61863 14.3254 4.58531 14.2755 4.56257 14.2207C4.53984 14.1658 4.52814 14.1069 4.52814 14.0475V11.5314Z" fill="#DCE2E9"/>
<g style="mix-blend-mode:multiply">
<path d="M11.4726 13.5337V11.5312C11.4726 11.4112 11.425 11.2961 11.3401 11.2113C11.2553 11.1265 11.1402 11.0788 11.0202 11.0788C10.9002 11.0788 10.7852 11.1265 10.7003 11.2113C10.6155 11.2961 10.5678 11.4112 10.5678 11.5312V13.5337H11.4726Z" fill="#DCE2E9"/>
<path d="M9.96329 13.5337V11.5312C9.96329 11.4112 9.91563 11.2961 9.83078 11.2113C9.74594 11.1265 9.63087 11.0788 9.51088 11.0788C9.3909 11.0788 9.27582 11.1265 9.19098 11.2113C9.10614 11.2961 9.05847 11.4112 9.05847 11.5312V13.5337H9.96329Z" fill="#DCE2E9"/>
<path d="M8.45395 13.5337V11.5312C8.45395 11.4112 8.40629 11.2961 8.32145 11.2113C8.2366 11.1265 8.12153 11.0788 8.00155 11.0788C7.88156 11.0788 7.76649 11.1265 7.68165 11.2113C7.5968 11.2961 7.54913 11.4112 7.54913 11.5312V13.5337H8.45395Z" fill="#DCE2E9"/>
<path d="M6.94418 13.5337V11.5312C6.94418 11.4112 6.89652 11.2961 6.81167 11.2113C6.72683 11.1265 6.61176 11.0788 6.49177 11.0788C6.37179 11.0788 6.25672 11.1265 6.17187 11.2113C6.08703 11.2961 6.03937 11.4112 6.03937 11.5312V13.5337H6.94418Z" fill="#DCE2E9"/>
<path d="M5.43393 13.5338V11.5313C5.43393 11.4113 5.38626 11.2962 5.30142 11.2114C5.21658 11.1266 5.10151 11.0789 4.98152 11.0789C4.86153 11.0789 4.74646 11.1266 4.66162 11.2114C4.57678 11.2962 4.52911 11.4113 4.52911 11.5313V13.5338H5.43393Z" fill="#DCE2E9"/>
</g>
<path d="M4.2382 2.80481H11.7583C12.1393 2.80481 12.5047 2.95614 12.774 3.22552C13.0434 3.4949 13.1947 3.86025 13.1947 4.2412V11.7608C13.1947 12.1417 13.0434 12.5071 12.774 12.7765C12.5047 13.0458 12.1393 13.1972 11.7583 13.1972H4.23839C3.85749 13.1972 3.49218 13.0459 3.22284 12.7765C2.9535 12.5072 2.80219 12.1419 2.80219 11.761V4.24083C2.80219 3.85997 2.95348 3.49471 3.22278 3.22541C3.49209 2.9561 3.85735 2.80481 4.2382 2.80481Z" fill="url(#paint0_linear_5001_14925)"/>
<g style="mix-blend-mode:screen">
<path d="M4.94614 3.7525H11.0504C11.3678 3.7525 11.6722 3.87857 11.8966 4.10298C12.121 4.32739 12.2471 4.63176 12.2471 4.94912V11.0529C12.2471 11.3703 12.1209 11.6748 11.8965 11.8993C11.672 12.1237 11.3675 12.2498 11.0501 12.2498H4.94614C4.62872 12.2498 4.32431 12.1238 4.09987 11.8993C3.87542 11.6749 3.74933 11.3705 3.74933 11.053V4.94931C3.74933 4.6319 3.87542 4.32748 4.09987 4.10304C4.32431 3.87859 4.62872 3.7525 4.94614 3.7525Z" fill="#DCE2E9"/>
</g>
<path d="M4.94642 3.99164H11.0503C11.3043 3.99164 11.5478 4.09251 11.7273 4.27206C11.9069 4.45161 12.0078 4.69513 12.0078 4.94905V11.0532C12.0078 11.3071 11.9069 11.5506 11.7273 11.7301C11.5478 11.9097 11.3043 12.0106 11.0503 12.0106H4.94661C4.82084 12.0106 4.6963 11.9858 4.58011 11.9377C4.46392 11.8895 4.35834 11.819 4.26942 11.73C4.1805 11.6411 4.10996 11.5355 4.06185 11.4193C4.01374 11.3031 3.98899 11.1786 3.98901 11.0528V4.94905C3.98901 4.69513 4.08988 4.45161 4.26943 4.27206C4.44898 4.09251 4.6925 3.99164 4.94642 3.99164Z" fill="url(#paint1_linear_5001_14925)"/>
<path d="M9.67406 5.84686H6.32285C6.05842 5.84686 5.84406 6.06123 5.84406 6.32566V9.67668C5.84406 9.94112 6.05842 10.1555 6.32285 10.1555H9.67406C9.9385 10.1555 10.1529 9.94112 10.1529 9.67668V6.32566C10.1529 6.06123 9.9385 5.84686 9.67406 5.84686Z" fill="#DCE2E9"/>
<path d="M6.60255 6.20578H9.39523C9.50101 6.20578 9.60247 6.2478 9.67727 6.32261C9.75208 6.39741 9.7941 6.49887 9.7941 6.60465V9.39733C9.7941 9.50316 9.75206 9.60467 9.67722 9.67951C9.60238 9.75434 9.50088 9.79639 9.39504 9.79639H6.60218C6.49644 9.79639 6.39503 9.75438 6.32026 9.67962C6.2455 9.60485 6.20349 9.50344 6.20349 9.3977V6.60484C6.20349 6.499 6.24554 6.3975 6.32037 6.32266C6.39521 6.24782 6.49671 6.20578 6.60255 6.20578Z" fill="url(#paint2_linear_5001_14925)"/>
<defs>
<linearGradient id="paint0_linear_5001_14925" x1="7.99846" y1="2.80481" x2="7.99846" y2="13.1972" gradientUnits="userSpaceOnUse">
<stop stop-color="#CACFD5"/>
<stop offset="1" stop-color="#9CA1A7"/>
</linearGradient>
<linearGradient id="paint1_linear_5001_14925" x1="7.99838" y1="3.99164" x2="7.99838" y2="12.0106" gradientUnits="userSpaceOnUse">
<stop stop-color="#BCBFC4"/>
<stop offset="0.446785" stop-color="#A7ACB4"/>
<stop offset="1" stop-color="#8C93A1"/>
</linearGradient>
<linearGradient id="paint2_linear_5001_14925" x1="7.9988" y1="6.20578" x2="7.9988" y2="9.79639" gradientUnits="userSpaceOnUse">
<stop stop-color="#F9E11A"/>
<stop offset="0.390625" stop-color="#FFD12F"/>
<stop offset="1" stop-color="#FFC52F"/>
</linearGradient>
</defs>
</svg>
