<svg width="16" height="16" viewBox="0 0 16 16" fill="none" xmlns="http://www.w3.org/2000/svg">
<path d="M14.0818 7.86637L7.93196 1.81583C7.65616 1.53961 7.29401 1.50314 6.93228 1.50314H2.70843C1.93131 1.50314 1.5 1.93446 1.5 2.71157V6.93751C1.5 7.29841 1.5373 7.65972 1.81269 7.93511L7.9131 14.085C8.04133 14.2154 8.19425 14.319 8.36293 14.3897C8.53162 14.4604 8.7127 14.4969 8.89561 14.4969C9.07852 14.4969 9.25959 14.4604 9.42828 14.3897C9.59697 14.319 9.74988 14.2154 9.87811 14.085L14.0944 9.85652C14.6435 9.30659 14.6309 8.41546 14.0818 7.86637ZM4.19141 4.19455C4.13314 4.25284 4.06397 4.29909 3.98783 4.33065C3.91169 4.3622 3.83009 4.37846 3.74767 4.37848C3.66525 4.3785 3.58364 4.36228 3.50748 4.33076C3.43133 4.29924 3.36213 4.25302 3.30384 4.19476C3.24555 4.1365 3.19931 4.06732 3.16775 3.99118C3.13619 3.91505 3.11994 3.83344 3.11992 3.75102C3.1199 3.6686 3.13611 3.58699 3.16763 3.51084C3.19916 3.43468 3.24537 3.36549 3.30363 3.3072C3.3619 3.2489 3.43107 3.20266 3.50721 3.1711C3.58335 3.13954 3.66495 3.12329 3.74737 3.12327C3.82979 3.12325 3.9114 3.13946 3.98756 3.17099C4.06371 3.20251 4.13291 3.24872 4.1912 3.30699C4.24949 3.36525 4.29574 3.43443 4.32729 3.51056C4.35885 3.5867 4.3751 3.66831 4.37512 3.75072C4.37514 3.83314 4.35893 3.91476 4.32741 3.99091C4.29588 4.06706 4.24967 4.13626 4.19141 4.19455Z" fill="#FFD983"/>
<path d="M4.83326 2.66504C4.69078 2.5224 4.52158 2.40924 4.33534 2.33203C4.1491 2.25483 3.94946 2.21509 3.74785 2.21509C3.54624 2.21509 3.34661 2.25483 3.16036 2.33203C2.97412 2.40924 2.80492 2.5224 2.66245 2.66504C2.37452 2.95297 2.21277 3.34348 2.21277 3.75066C2.21277 4.15785 2.37452 4.54835 2.66245 4.83628C2.95037 5.1242 3.34088 5.28595 3.74806 5.28595C4.15525 5.28595 4.54576 5.1242 4.83368 4.83628C5.12142 4.54823 5.28302 4.15772 5.28294 3.75057C5.28286 3.34343 5.12112 2.95298 4.83326 2.66504ZM4.19195 4.19497C4.13403 4.25518 4.06468 4.30323 3.98796 4.33631C3.91124 4.36939 3.8287 4.38684 3.74516 4.38764C3.66161 4.38844 3.57875 4.37257 3.50141 4.34096C3.42408 4.30934 3.35383 4.26263 3.29476 4.20354C3.2357 4.14445 3.18902 4.07417 3.15744 3.99682C3.12587 3.91947 3.11003 3.8366 3.11087 3.75306C3.11171 3.66951 3.1292 3.58698 3.16232 3.51028C3.19544 3.43358 3.24352 3.36425 3.30376 3.30635C3.42236 3.19236 3.58095 3.12942 3.74545 3.13107C3.90995 3.13272 4.06725 3.19882 4.18355 3.31517C4.29985 3.43153 4.36587 3.58885 4.36744 3.75335C4.36901 3.91786 4.306 4.07641 4.19195 4.19497Z" fill="#D99E82"/>
</svg>
