<svg width="128" height="128" viewBox="0 0 128 128" fill="none" xmlns="http://www.w3.org/2000/svg">
<path d="M59.5277 39.3574L59.8427 39.0298L60.1703 38.7149L60.4853 38.3998H60.8002L61.1278 38.0723H61.4427L61.7703 37.7574H62.0852L62.4002 37.4298H65.2852L65.6002 37.7574H66.2427V38.0723H66.8852L67.2002 38.3998H67.5277L67.8427 38.7149L68.1703 39.0298L68.4853 39.6723V39.9998H68.8002L69.1277 40.3149V40.6298L69.4427 40.9574V41.2722L69.7703 41.5998V42.5573H70.0853V44.1573L69.7703 44.4724V45.1149L69.4427 45.4297V46.0724H69.1277V46.4H68.8002V46.7148H68.4853V47.0297L67.5277 47.9999L67.2002 48.3148H66.8852V48.6299H66.5703L66.2427 48.9573H65.6002V49.2724H62.0852V48.9573H61.4427V48.6299H61.1278L60.8002 48.3148H60.4853L58.8853 46.4L58.5703 46.0724V45.4297H58.2427V44.8L57.9277 44.4724V42.2298L58.2427 41.9149V41.2722H58.5703V40.6298L58.8853 40.3149V39.9998L59.5277 39.3574Z" fill="#008FFE"/>
<path d="M61.1275 24.0001H61.4423V23.6725H61.7699L62.0849 23.3574V23.0298H62.7274V22.715H65.2849V23.0298H65.9274V23.3574H66.2424L66.57 23.6725H66.8848V24.0001H67.1998V24.6298H67.5274V25.2725H67.8424V25.9149L68.1699 26.23V27.2H67.8424V28.1576H67.5274V28.8H67.1998V29.1149H66.8848V29.43V29.7576H66.57L66.2424 30.0724H65.9274V30.4H65.2849H62.7274H62.0849V30.0724L61.7699 29.7576H61.4423V29.43H61.1275V29.1149H60.7999V28.8H60.4849V28.4725V27.5149H60.1699V25.6001H60.4849V24.9574V24.6298L60.7999 24.315V24.0001H61.1275Z" fill="#008FFE"/>
<path d="M62.0849 11.1991H62.7275V10.8715H63.3699V10.5566H65.2849V10.8715H65.9275V11.1991H66.2424H66.57V11.514H66.8849V11.8291V12.1566V12.7991H67.1999V13.7566L66.8849 14.0715V14.3991V14.7141V15.029H66.57V15.3566H66.2424V15.6715H65.9275L65.5999 15.9991H65.2849H63.3699H63.0424L62.7275 15.6715H62.3999V15.3566H62.0849V15.029V14.7141L61.77 14.3991V14.0715H61.4424V12.7991H61.77V12.1566L62.0849 11.8291V11.514V11.1991Z" fill="#008FFE"/>
<path d="M63.37 0.314884V0H63.685H65.5999H65.9275V0.314884H66.2425V0.629767H66.5701V1.27241H66.8849V2.22975H66.5701V2.8724H66.2425V3.19997H65.9275H65.5999V3.51485H63.685V3.19997H63.37H63.0424V2.55732H62.7275V0.957339H63.0424V0.314884H63.37Z" fill="#008FFE"/>
<path d="M68.4853 88.0005L67.5277 88.9578H67.2002L66.8852 89.2729V89.6005H66.5703H66.2427H65.6002L65.2852 89.9154H62.4002L62.0852 89.6005H61.4427H61.1278L60.8002 89.2729H60.4853V88.9578L58.8853 87.3578V87.0303L58.5703 86.7154V86.4003H58.2427V85.4303L57.9277 85.1154V83.2003L58.2427 82.8728V81.9154H58.5703V81.6004L58.8853 81.2728V80.9579L60.4853 79.0304H60.8002L61.1278 78.7153H61.4427V78.4004H62.0852H65.6002H66.2427L66.5703 78.7153H66.8852V79.0304H67.2002L67.5277 79.3579L68.4853 80.3155V80.6303H68.8002V80.9579L69.1277 81.2728V81.6004H69.4427V81.9154L69.7703 82.2303V83.2003H70.0853V84.8003H69.7703V86.0729L69.4427 86.4003L69.1277 86.7154V87.0303L68.8002 87.3578V87.6729H68.4853V88.0005Z" fill="#008FFE"/>
<path d="M66.8853 103.672H66.5704V104H66.2428H65.6003V104.315H65.2853L64.9704 104.63H62.4003V104.315H62.0853L61.7703 104H61.4428H61.1279V103.672H60.8003V103.357H60.4853V103.029V102.715V102.4H60.1703V101.757H59.8428V99.8294H60.1703V99.1997H60.4853V98.8721V98.5572V98.2296H60.8003V97.9148H61.1279V97.5995H61.4428H61.7703H62.0853V97.2723H62.4003L62.7279 96.957H64.9704V97.2723H65.6003V97.5995H65.9278H66.2428H66.5704V97.9148H66.8853V98.2296V98.5572V98.8721H67.2002V99.1997H67.5278V100.157L67.8428 100.472V101.115L67.5278 101.43V102.4H67.2002V102.715L66.8853 103.029V103.357V103.672Z" fill="#008FFE"/>
<path d="M65.6003 116.158V116.472H65.2853V116.8H64.6429H62.4003H62.0853L61.1279 115.83V115.515H60.8003V115.2H60.4854V113.6L60.8003 113.272V112.63H61.1279V112.315H61.4428V112H61.7704H62.0853V111.672H62.4003V111.357H64.3279V111.672H64.9704L65.2853 112H65.6003V112.315L65.9279 112.63V112.958H66.2428V113.915H66.5704V114.23L66.2428 114.557V115.2L65.9279 115.515V115.83H65.6003V116.158Z" fill="#008FFE"/>
<path d="M64.6429 127.03L64.3279 127.358H64.0003V127.673H63.3704V128H63.0428V127.673H62.0854V127.358L61.4428 126.715V126.4H61.1279V125.115L61.4428 124.8L62.0854 124.158V123.83H64.0003V124.158H64.3279L64.9705 124.8L65.2853 125.115V126.4H64.9705V126.715L64.6429 127.03Z" fill="#008FFE"/>
<path d="M39.6845 67.8295L39.0419 67.1997L38.3995 66.5571V66.2295L38.0845 65.9146V65.5997V64.3146L37.7695 63.9996V63.0295L38.0845 62.7146V61.7571V61.4295V60.7996H38.3995L38.7271 60.472V60.1571H39.0419V59.8296L39.6845 59.1996L39.9995 58.872H40.327V58.5571H40.6419L40.9695 58.2296H41.2845V57.9147H41.927V57.5996H45.442L45.7696 57.9147H46.0845V58.2296H46.3994L46.727 58.5571H47.042L47.6845 59.1996H47.9995V59.5147L48.9695 60.472V60.7996H49.2845V61.4295V62.072L49.5995 62.3996V64.9571H49.2845V65.5997V66.2295L48.9695 66.5571V66.8721H48.642V67.1997L47.9995 67.5146V67.8295H47.6845V68.1571L47.3695 68.4721H47.042V68.7997H46.3994H46.0845V69.1146H45.442L45.127 69.4295H42.242L41.927 69.1146H41.2845V68.7997H40.9695H40.6419L40.327 68.4721H39.9995L39.6845 67.8295Z" fill="#008FFE"/>
<path d="M24.328 66.2305H24.0004V65.9156L23.6855 65.6007H23.3705V64.958V64.0005H23.043V62.7156H23.3705V62.0729V61.4305L23.6855 61.1156V60.8005H24.0004H24.328V60.473H24.643V60.1581H24.9705V59.8305H25.6005V59.5156H28.4855V59.8305H28.8005L29.128 60.1581H29.4429V60.473H29.7705V60.8005H30.0855V61.1156H30.4004V61.7581L30.728 62.0729V62.4005H31.043V64.3156H30.728V64.958L30.4004 65.2731V65.6007H30.0855V65.9156V66.2305H29.7705V66.558H29.4429L29.128 66.8731H28.8005V67.2007H28.4855H28.1705H25.928H24.9705V66.8731L24.328 66.2305Z" fill="#008FFE"/>
<path d="M11.8427 65.2726H11.5277V64.9575H11.2002V64.315H10.8852V64L10.5703 63.6724V62.4H10.8852V61.7575H11.2002V61.4299H11.5277V61.1151L11.8427 60.8H12.1703H12.4853V60.4724H14.7277L15.0427 60.8H15.3703H15.6852L16.0002 61.4299V61.7575H16.3278V62.4H16.6427V64H16.3278V64.315H16.0002V64.9575H15.6852V65.2726V65.6001H15.3703H14.7277L14.4002 65.915H12.8002L12.4853 65.6001H12.1703H11.8427V65.2726Z" fill="#008FFE"/>
<path d="M0.970122 64.0008H0.642551H0.327571V63.3583H0V62.4008H0.327571V61.7583H0.642551V61.4307H0.970122V61.1159H1.2851V60.8008H2.88509V61.1159H3.52754V61.4307H3.84252V62.0732H4.17009V63.6732H3.84252V64.0008H3.52754V64.3158H2.88509V64.6307H2.24254V64.9583L1.92756 64.6307H1.2851V64.3158H0.970122V64.0008Z" fill="#008FFE"/>
<path d="M88.643 59.1996L89.2854 60.1571V60.472H89.6004V60.7996H89.928V61.4295H90.2429V62.3996H90.5705V64.6295L90.2429 64.9571V65.5997H89.928V66.2295L89.2854 66.8721V67.1997L88.0004 68.4721H87.6854V68.7997H87.3705H86.728V69.1146H86.0854V69.4295H82.8855V69.1146H82.2429V68.7997H81.6005H81.2855V68.4721H80.9705L80.6429 68.1571L79.6855 67.1997L79.3705 66.5571V66.2295L79.0429 65.9146V65.5997H78.728V64.3146H78.4004V62.7146L78.728 62.3996V61.7571L79.0429 61.4295V60.7996H79.3705L79.6855 60.472V60.1571V59.8296L81.2855 58.5571L81.6005 58.2296H81.9279L82.2429 57.9147H82.8855V57.5996H86.0854L86.4004 57.9147H86.728L87.043 58.2296H87.3705L87.6854 58.5571L88.0004 58.872L88.328 59.1996H88.643Z" fill="#008FFE"/>
<path d="M103.685 60.7999H104V61.1149H104.328V61.4298H104.643V62.0723H104.97V62.3998L105.285 62.7149V64.6298L104.97 64.9574V65.6H104.643L104.328 65.9149V66.2298H104V66.5573H103.685V66.8724V67.2H103.043H102.4L102.085 67.5149H100.17V67.2H99.2001H98.8851V66.8724L98.5703 66.5573H98.2427V65.9149H97.9277V65.6H97.6001V65.2724H97.2852V63.9998V63.3574V62.3998H97.6001V61.7574L98.2427 61.1149V60.7999H98.5703H98.8851V60.4723H99.2001V60.1574H99.8427V59.8298H102.4L102.728 60.1574H103.043L103.37 60.4723H103.685V60.7999Z" fill="#008FFE"/>
<path d="M116.485 62.0726V61.7577L116.8 62.4001H117.127V63.0301H117.442V64.6301L117.127 64.9577V65.6003H116.8L116.485 66.2301H116.17V66.5576H115.527V66.8727H113.6L113.285 66.5576L112.97 66.2301H112.642V65.9152H112.327V65.6003H112V65.2727H111.685V62.7152H112V62.4001H112.327V62.0726H112.642V61.7577H112.97L113.285 61.4301V61.1152H115.527L115.842 61.4301H116.17V61.7577H116.485V62.0726Z" fill="#008FFE"/>
<path d="M127.685 62.7155V63.0304V63.6728H128V65.273H127.685V65.6006L127.37 65.9154H127.042V66.2303H125.442L125.127 65.9154H124.8V65.6006H124.485V64.9579H124.17V64.0004H124.485V63.3579V62.7155H124.8L125.127 62.4004H125.77H126.4H126.727H127.37V62.7155H127.685Z" fill="#008FFE"/>
<path d="M43.8428 49.5994V47.9994L44.1703 47.6718V47.0291L44.4852 46.7143V46.3994V46.0718L44.8002 45.7567L45.1278 45.4292L46.0853 44.4718H46.4002L46.7278 44.1567H47.0427V43.8292H47.6853V43.5143H48.3278L48.6427 43.1992H50.8853V43.5143H51.8427V43.8292H52.4853V44.1567L52.8002 44.4718H53.1278L54.0852 45.1143V45.4292L54.4002 45.7567V46.0718H54.7278V46.3994H55.0428V46.7143L55.3703 47.0291V47.6718L55.6852 47.9994V50.8718L55.3703 51.1993V51.5142L55.0428 51.8293V52.1569L54.7278 52.4718L54.4002 52.7993L54.0852 53.1142V53.4293L53.1278 54.3993H52.8002H52.4853V54.7142H51.8427V55.0293H50.8853L50.5703 55.3568H48.6427V55.0293H47.6853V54.7142H47.0427V54.3993H46.7278H46.4002H46.0853L44.4852 52.7993V52.4718V52.1569V51.8293L44.1703 51.5142V51.1993L43.8428 50.8718V49.5994Z" fill="#008FFE"/>
<path d="M33.9277 37.4297V36.7997H34.2427V35.8297H34.5703V35.1997H34.8853L35.5277 34.2297H35.8427V33.9146H36.1703L36.4853 33.5997H36.8002H37.1277H38.7278H39.0427H39.6852V33.9146H40.0002V34.2297H40.6427V34.5573H40.9702V34.8721L41.2852 35.1997V35.8297H41.6002V36.4721L41.9278 36.7997V38.3997H41.6002V39.0296H41.2852V39.6721V39.9997H40.9702L40.6427 40.3147L40.3278 40.6296H40.0002V40.9572H39.6852V41.2721H38.4002V41.5997H37.4427V41.2721H36.4853V40.9572H36.1703L35.8427 40.6296H35.5277V40.3147H35.2001V39.9997H34.8853V39.6721L34.5703 39.3572V39.0296L34.2427 38.7148V38.3997L33.9277 38.0721V37.4297Z" fill="#008FFE"/>
<path d="M25.9271 27.8296H25.5996L25.9271 27.5145V26.8721L26.2421 26.557V26.2296H26.5696V25.9146V25.5997H26.8846H27.1996V25.2721H27.842V24.957H29.7696V25.2721H30.0846V25.5997H30.3996H30.7271L31.0421 25.9146V26.2296H31.3696V26.8721H31.6846V28.7996H31.3696V29.1145L31.0421 29.4296V29.7572H30.7271V30.0721H30.3996V30.3996H30.0846H27.5272H26.8846V30.0721H26.5696V29.7572V29.4296L26.2421 29.1145V28.7996H25.9271V27.8296Z" fill="#008FFE"/>
<path d="M18.5703 19.1996V18.872H18.8853V18.2296H19.2003V17.9147H19.5278V17.5996H19.8428H21.7704H22.0853V17.9147H22.4002V18.5571H22.7278V20.1571H22.4002V20.7996H22.0853H21.7704V21.1147H21.1278L20.8003 21.4295H20.4853V21.1147H19.8428V20.7996H19.5278H19.2003V20.4722H18.8853V19.8296H18.5703V19.1996Z" fill="#008FFE"/>
<path d="M84.4851 78.0721V79.9997H84.1701V80.3148L83.8426 80.6296V80.9572L83.5277 81.2721V81.5997L82.8851 82.2296L82.5702 82.5572L81.9276 83.1997H81.6001L81.2852 83.5147H80.6426V83.8296H79.6852V84.1572H77.4426L77.1277 83.8296H76.4851V83.5147H75.8426L75.2001 83.1997H74.8851L74.5701 82.5572L74.2427 82.2296L73.9277 81.9147L73.6001 81.5997H73.2851V80.9572V80.3148H72.9701V79.9997L72.6426 79.6721V76.7997L72.9701 76.4721V75.8297H73.2851V75.1997L73.6001 74.8722V74.5573L73.9277 74.2297L74.2427 73.9146L74.8851 73.2722H75.2001L75.5277 72.9573H75.8426L76.1702 72.6297H76.4851V72.3146H77.4426L77.7702 71.9998H79.6852V72.3146H80.3276L80.6426 72.6297H81.2852V72.9573L81.6001 73.2722H81.9276L83.5277 74.8722V75.1997H83.8426V75.5146L84.1701 75.8297V76.4721H84.4851V78.0721Z" fill="#008FFE"/>
<path d="M94.085 89.9148V90.8722V91.515L93.77 91.8299V92.1574L93.4424 92.4723L92.485 93.1148V93.4297H92.17L91.8424 93.7572H91.1999V94.0721H89.2849V93.7572H88.6425L88.3275 93.4297H87.9999V93.1148H87.6849V92.7999H87.3701L87.0425 92.4723V92.1574H86.7275V91.8299L86.3999 91.515V90.8722H86.085V89.2724H86.3999V88.3148H86.7275V87.9999H87.0425V87.6724H87.3701V87.3573H87.6849V87.0297V86.7148H87.9999V86.3998H88.6425H88.97H89.5999L89.9275 86.0724H90.57L90.885 86.3998H91.5275H91.8424H92.485V86.7148V87.0297H92.8V87.3573H93.1275V87.6724H93.4424V87.9999H93.77V88.3148H94.085V89.2724V89.9148Z" fill="#008FFE"/>
<path d="M102.085 99.5147H102.4L102.085 99.8296V100.8V101.115L101.443 101.757V102.072H100.8V102.4H100.485H98.5701H97.9276V102.072H97.6V101.757H97.285V101.43V101.115H96.9701V100.8H96.6426V98.8722H96.9701V98.2298H97.285V97.9149V97.5996H97.6L97.9276 97.2724H98.2426L98.5701 96.9572H100.485V97.2724H101.128V97.5996H101.443H101.77V97.9149H102.085V98.5573V99.5147Z" fill="#008FFE"/>
<path d="M109.443 108.157V108.799H109.128V109.114H108.8V109.429L108.485 109.757V110.072H106.57V109.757H106.243L105.6 109.114V108.799H105.285V107.199H105.6L106.243 106.557H106.57V106.229H107.2V105.914L107.528 106.229H108.485V106.557L108.8 106.872V107.199H109.128L109.443 107.514V108.157Z" fill="#008FFE"/>
<path d="M49.9278 83.8299H48.6427L48.3278 83.515H47.6853V83.1999H47.0427L46.4002 82.8723H46.0853V82.5574L45.7703 82.2299L44.8002 81.5999V81.2723H44.4852V80.9575V80.6299V79.9999H44.1703V79.6724L43.8428 79.3575V76.4724L44.1703 76.1575V75.5149H44.4852V75.2L44.8002 74.5575V74.2299L46.0853 72.9575H46.4002L46.7278 72.63H47.0427L47.3703 72.3149H47.6853V72H48.6427H48.9703H50.8853H51.5278L51.8427 72.3149H52.4853V72.63L52.8002 72.9575H53.1278L54.0852 73.6V73.9149L54.7278 74.5575V74.8724L55.0428 75.2L55.3703 75.5149V76.1575H55.6852V79.6724H55.3703V79.9999L55.0428 80.315V80.6299L54.7278 80.9575V81.2723L54.0852 81.5999V81.915L53.7704 82.2299L53.4428 82.5574L53.1278 82.8723H52.8002L52.4853 83.1999H51.8427V83.515H50.8853V83.8299H49.9278Z" fill="#008FFE"/>
<path d="M38.0852 93.4302H36.4853V93.1153H36.1703L35.8427 92.8004H35.5277H35.2001L34.8853 92.4728V92.1579V91.8304H34.5703V91.5155L34.2427 91.2002L33.9277 90.8727V88.3153L34.2427 88.0004L34.5703 87.6729V87.3578H34.8853V87.0302L35.2001 86.4003H35.5277H35.8427L36.1703 86.0729H36.4853V85.7578H39.0427V86.0729H39.6852V86.4003H40.0002H40.3278L40.6427 86.7153L40.9702 87.0302V87.3578H41.2852V87.6729V88.0004L41.6002 88.3153V90.8727L41.2852 91.2002V91.5155V91.8304H40.9702V92.1579L40.3278 92.8004H40.0002H39.6852V93.1153H39.0427V93.4302H38.0852Z" fill="#008FFE"/>
<path d="M28.4851 101.757L28.1701 102.072L27.8426 101.757H27.5277L27.2001 101.43H26.5702V101.115L25.9276 100.8V100.473H25.6001V100.157L25.2852 99.8297V97.5998H25.6001V97.2726H25.9276V96.9573H26.2426V96.6298H26.5702V96.3149L26.8851 96H27.5277H27.8426H28.4851H29.4426V96.3149H30.0851V96.6298V96.9573H30.4001V97.2726L30.7277 97.5998L31.0426 97.9151V99.5149L30.7277 99.8297V100.473H30.4001V100.8H30.0851V101.115H29.7701L29.4426 101.43H28.8001V101.757H28.4851Z" fill="#008FFE"/>
<path d="M19.8431 108.799H18.5706V108.471V108.156H18.243V107.829H17.9282V107.199H17.6006V106.229H17.9282V105.599H18.243L18.5706 105.271V104.956H19.5281V104.629H19.8431L20.1706 104.956H20.8006V105.271H21.1281V105.599H21.4431V105.914H21.7707V107.514H21.4431V108.156H21.1281V108.471H20.4856V108.799H19.8431Z" fill="#008FFE"/>
<path d="M78.4001 43.1992H79.6852H80.6426V43.5143H81.2852V43.8292H81.6001V44.1567H81.9276L82.5702 44.7994H82.8851V45.1143L83.2001 45.4292L83.5277 45.7567V46.0718L83.8426 46.3994L84.1701 46.7143V47.3567H84.4851V48.3143V48.6293V49.5994V50.8718H84.1701V51.1993L83.8426 51.5142V51.8293L83.5277 52.1569V52.4718L82.8851 52.7993V53.1142V53.4293H82.5702L81.9276 54.0717H81.6001V54.3993H81.2852H80.6426V54.7142H79.6852V55.0293H77.7702L77.4426 54.7142H76.4851V54.3993H76.1702H75.8426H75.5277L75.2001 54.0717H74.8851V53.7569L74.2427 53.1142L73.9277 52.7993H73.6001V52.4718L73.2851 52.1569V51.8293V51.1993H72.9701V50.5569L72.6426 50.2293V47.9994L72.9701 47.6718V46.7143H73.2851V46.3994V45.7567H73.6001V45.4292H73.9277V45.1143L74.2427 44.7994L74.8851 44.4718V44.1567H75.2001L75.5277 43.8292H75.8426L76.1702 43.5143H76.4851V43.1992H77.1277H77.4426H78.4001Z" fill="#008FFE"/>
<path d="M90.2429 33.5996H91.5279H91.8429H92.4854V33.9145L92.8004 34.2296H93.1279V34.5571H93.4429V34.872H93.7705V35.1996H94.0854V35.8296V36.7996H94.4004V37.7571L94.0854 38.072V38.7146V39.3571H93.7705V39.9996H93.4429H93.1279V40.3146H92.8004V40.6295H92.4854V40.9571H91.8429L91.5279 41.272H89.2854V40.9571H88.6429L88.3279 40.6295H88.0004V40.3146H87.6854V39.9996H87.3705V39.672L87.0429 39.3571V39.0295H86.728V38.3996H86.4004V36.472H86.728V35.5147H87.0429V35.1996H87.3705V34.872H87.6854V34.5571V34.2296H88.0004L88.3279 33.9145H88.6429V33.5996H89.2854H90.2429Z" fill="#008FFE"/>
<path d="M100.17 25.2721V24.957L100.485 25.2721L100.8 25.5997H101.443H102.085V25.9146V26.2296H102.4V26.8721H102.728V27.1997L103.043 27.5145V28.7996H102.728V29.4296H102.4V30.0721H102.085V30.3996H101.77H101.443V30.7145H100.485V31.0296H99.5277V30.7145H98.8851V30.3996H98.5703H98.2427H97.9277V30.0721L97.6001 29.7572V29.4296H97.2852V28.7996V27.5145V26.8721H97.6001V26.557L97.9277 26.2296V25.9146H98.2427V25.5997H98.8851H99.2001L99.5277 25.2721H100.17Z" fill="#008FFE"/>
<path d="M108.485 18.2305H109.443V18.558H109.77L110.085 18.8729V19.2005H110.4V20.8005H110.085V21.4304V21.758H109.77L109.443 22.0731H108.8V22.4007H108.17V22.0731H107.528V21.758H106.885V21.4304V21.1156V20.8005H106.57V19.5156H106.885V19.2005V18.8729H107.2V18.558H107.528V18.2305H108.485Z" fill="#008FFE"/>
</svg>
