<svg width="128" height="128" viewBox="0 0 128 128" fill="none" xmlns="http://www.w3.org/2000/svg">
<path d="M63.9957 35.7643C62.0001 30.7821 57.1388 25.4013 48.0346 26.1404C36.4369 27.4012 32.8225 38.5157 34.5753 45.1465C29.9562 42.0187 22.1018 40.6432 15.246 46.5157C6.39429 55.3891 11.1287 67.3889 15.995 70.2674C10.632 69.7707 2.15633 73.3946 0.281189 82.8739C-1.71356 94.6433 7.25863 101.505 15.995 101.505H112.873C122.976 101.505 128.581 92.7648 127.952 84.5224C126.961 73.7651 117.117 69.6378 111.748 70.522C116.234 68.0192 122.226 56.2617 113.115 47.0187C105.883 40.1399 96.6638 42.6427 93.4222 45.643C95.1699 39.8967 92.3045 28.0182 80.5748 26.1392C79.7639 26.0487 78.9833 26 78.2392 26C69.2853 26.0011 65.2593 32.5464 63.9957 35.7643Z" fill="white"/>
<path d="M16.8563 48.3858C11.7414 53.016 9.8798 63.5072 19.1002 69.6401L55.8838 94.8763L38.0484 54.0159C34.3112 44.3737 24.0872 42.2711 16.8563 48.3858Z" fill="#F37021"/>
<path d="M48.5236 28.5248C42.5445 28.6464 33.5663 35.7667 37.5619 46.6393L56.0081 90.143L62.49 44.3853C63.99 33.0155 55.3857 27.7672 48.5236 28.5248Z" fill="#CC004C"/>
<path d="M65.3678 42.6368H68.8557C68.8557 42.6368 70.7184 42.6368 70.9718 43.5154C69.5993 44.6363 65.8632 44.7767 66.359 50.7643L72.2227 90.1334L90.5431 46.5153C94.2904 36.7763 86.4247 28.6427 79.4473 28.394C79.1216 28.3705 78.7944 28.3516 78.4561 28.3516C72.1934 28.3516 65.0169 32.903 65.3678 42.6368Z" fill="#6460AA"/>
<path d="M89.8048 54.3858L72.4766 94.756L109.249 69.3867C117.726 63.3742 116.359 53.7618 111.614 49.0106C109.625 46.7744 105.972 45.0469 102.103 45.0469C97.5324 45.046 92.6407 47.4706 89.8048 54.3858Z" fill="#0089D0"/>
<path d="M105.132 75.1364L70.5977 99.2582H113.119C121.843 99.2582 127.449 90.263 124.957 82.0089C123.287 76.8208 118.349 72.7481 112.617 72.7422C110.205 72.7431 107.646 73.47 105.132 75.1364Z" fill="#0DB14B"/>
<path d="M15.8692 99.2542H57.7631L23.2205 75.1324C15.2404 70.005 6.26712 73.0052 3.02777 81.5136C0.281979 91.2537 7.13778 99.2542 15.8692 99.2542Z" fill="#FCB711"/>
</svg>
