<svg width="128" height="128" viewBox="0 0 128 128" fill="none" xmlns="http://www.w3.org/2000/svg">
<path d="M76.1371 95.3732C83.8385 95.3732 89.1028 91.1813 89.1028 83.9672C89.1028 76.7532 83.8385 73.0488 76.1371 73.0488H36.655V95.3732H76.1371ZM36.655 51.4067H73.2125C81.1089 51.4067 84.4235 47.1173 84.4235 41.9505C84.4235 36.9787 81.0114 32.6893 73.2125 32.6893H36.655V51.4067ZM0 9H91.15C117.861 9 122.443 25.4753 122.443 36.1013C122.443 46.4349 116.789 55.4037 108.893 58.3283V58.6207C120.494 61.2528 128 70.6116 128 86.2094C128 99.2727 121.858 119.062 88.0305 119.062H0V9Z" fill="url(#paint0_linear_5027_18774)"/>
<defs>
<linearGradient id="paint0_linear_5027_18774" x1="64" y1="9" x2="64" y2="119.062" gradientUnits="userSpaceOnUse">
<stop stop-color="white"/>
<stop offset="1" stop-color="#CFCFCF"/>
</linearGradient>
</defs>
</svg>
