<svg width="128" height="128" viewBox="0 0 128 128" fill="none" xmlns="http://www.w3.org/2000/svg">
<path fill-rule="evenodd" clip-rule="evenodd" d="M100 128H28C12.5 128 0 115.5 0 100V28C0 12.5 12.5 0 28 0H100C115.5 0 128 12.5 128 28V100C128 115.5 115.5 128 100 128Z" fill="url(#paint0_linear_5027_25362)"/>
<path d="M55.1001 53.8C54.9001 53.9 50.0001 56.6 50.0001 62.7C50.2001 69.6 56.2001 72 56.3001 72C56.2001 72.1 55.4001 75.3 53.0001 78.6C51.1001 81.4 49.1001 84.3 45.9001 84.3C42.9001 84.3 41.8001 82.4 38.4001 82.4C34.7001 82.4 33.6001 84.3 30.8001 84.3C27.7001 84.3 25.4001 81.3 23.5001 78.5C20.9001 74.8 18.8001 69 18.7001 63.4C18.6001 60.5 19.2001 57.6 20.6001 55.1C22.6001 51.7 26.2001 49.3 30.2001 49.3C33.2001 49.2 35.9001 51.4 37.8001 51.4C39.6001 51.4 42.7001 49.2 46.5001 49.2C48.0001 49.1 52.4001 49.7 55.1001 53.8ZM37.4001 48.6C36.9001 45.9 38.4001 43.2 39.8001 41.5C41.6001 39.4 44.4001 38 46.8001 38C47.0001 40.7 46.1001 43.4 44.3001 45.3C42.7001 47.4 39.9001 48.9 37.4001 48.6ZM73.1001 84C74.6001 84 76.0001 83.9 76.8001 83.7V78.5C76.4001 78.6 75.3001 78.7 74.6001 78.7C71.9001 78.7 70.7001 77.4 70.7001 74.7V56.9H76.8001V51.7H70.7001V44.1H64.1001V51.7H59.4001V56.9H64.1001V75.4C64.1001 81.5 66.6001 84 73.1001 84ZM98.9001 83.8L110.5 51.6H103.6L95.5001 77.4H95.4001L87.3001 51.6H80.3001L91.9001 83.8H98.9001Z" fill="white"/>
<defs>
<linearGradient id="paint0_linear_5027_25362" x1="64" y1="0" x2="64" y2="128" gradientUnits="userSpaceOnUse">
<stop stop-color="#3D3D3D"/>
<stop offset="1"/>
</linearGradient>
</defs>
</svg>
