<svg width="128" height="128" viewBox="0 0 128 128" fill="none" xmlns="http://www.w3.org/2000/svg">
<path d="M10.9385 75.1416H7.54785V73.3496H7.4834C6.30088 74.8532 5.43681 75.4618 3.64648 75.4619C1.40756 75.4619 0 73.7978 0 70.6641V63.0791C0 59.9453 1.40756 58.2812 3.64648 58.2812C5.21313 58.2814 5.94929 58.9214 7.35547 60.0723V53.3838H10.9385V75.1416ZM19.1357 58.2812C22.4615 58.2813 24.3485 59.8167 24.3486 62.9512V73.3193C24.3487 73.8623 24.4758 74.5662 24.5723 75.1416H21.1504C21.1188 74.6626 20.9905 74.2137 20.958 73.7979C19.6149 74.8858 18.496 75.4609 16.7686 75.4609C14.3386 75.4609 13.1231 73.7981 13.123 71.5918C13.123 67.8176 15.6177 65.7381 20.7666 63.7881V63.4307C20.7666 61.992 20.1912 61.2247 19.0078 61.2246C17.3769 61.2246 17.025 62.183 16.9609 63.6543H13.3789C13.5711 60.1687 15.7774 58.2812 19.1357 58.2812ZM33.8525 61.543H31.4531V70.791C31.4531 71.6868 31.8373 72.1992 32.6689 72.1992H33.8525V75.2695C33.3726 75.3976 32.9563 75.4609 32.0615 75.4609C29.3744 75.4609 27.8713 74.2138 27.8711 71.5918V61.543H25.8877V58.6006H33.8525V61.543ZM41.2266 58.2812C44.5523 58.2812 46.4393 59.8167 46.4395 62.9512V73.3193C46.4395 73.8623 46.5675 74.5662 46.6631 75.1416H43.2412C43.2097 74.6626 43.0814 74.2137 43.0498 73.7979C41.7057 74.8858 40.5859 75.4609 38.8594 75.4609C36.4287 75.4607 35.214 73.798 35.2139 71.5918C35.2139 67.8177 37.7078 65.7381 42.8574 63.7881V63.4307C42.8574 61.9919 42.2821 61.2246 41.0977 61.2246C39.4669 61.2247 39.1157 62.1831 39.0508 63.6543H35.4697C35.6609 60.1688 37.8684 58.2814 41.2266 58.2812ZM5.30859 61.2246C4.34978 61.2246 3.58209 61.7356 3.58203 64.0068V69.7363C3.58206 72.0076 4.34976 72.5195 5.30859 72.5195C6.01222 72.5195 6.65281 72.1345 7.35547 71.623V62.1201C6.65281 61.6077 6.01222 61.2246 5.30859 61.2246ZM20.7666 66.4102C17.5048 68.2648 16.7051 69.4492 16.7051 70.9512C16.7051 72.0715 17.2803 72.5186 18.3682 72.5186C19.3594 72.5185 20.1587 71.783 20.7666 70.9199V66.4102ZM42.8574 66.4102C39.5949 68.2647 38.7959 69.4493 38.7959 70.9512C38.7959 72.0714 39.3713 72.5185 40.458 72.5186C41.4501 72.5186 42.2494 71.783 42.8574 70.9199V66.4102ZM29.6172 57.0254L27.5859 52H31.6484L29.6172 57.0254Z" fill="url(#paint0_linear_5027_25907)"/>
<path d="M60.7988 75.1416H57.4092V73.3496H57.3447C56.1613 74.8533 55.2981 75.4618 53.5068 75.4619C51.2679 75.4619 49.8613 73.7978 49.8613 70.6641V63.0791C49.8613 59.9453 51.2679 58.2812 53.5068 58.2812C55.0735 58.2813 55.8097 58.9213 57.2168 60.0723V53.3838H60.7988V75.1416ZM68.627 58.2822C72.7193 58.2824 74.1904 60.9046 74.1904 64.6787V69.0654C74.1903 72.8393 72.7192 75.4617 68.627 75.4619C64.5335 75.4619 63.0616 72.8395 63.0615 69.0654V64.6787C63.0615 60.9045 64.5334 58.2822 68.627 58.2822ZM102.492 58.2812C105.819 58.2814 107.706 59.8168 107.706 62.9512V73.3193C107.706 73.8623 107.833 74.5662 107.93 75.1416H104.507C104.474 74.6626 104.347 74.2137 104.314 73.7979C102.971 74.8856 101.852 75.4609 100.126 75.4609C97.695 75.4609 96.4796 73.7981 96.4795 71.5918C96.4795 67.8176 98.9751 65.7381 104.124 63.7881V63.4307C104.124 61.9919 103.548 61.2246 102.363 61.2246C100.733 61.2247 100.38 62.1831 100.316 63.6543H96.7344C96.9265 60.1687 99.1338 58.2812 102.492 58.2812ZM90.9395 58.2812C93.1791 58.2814 94.2979 59.6557 94.2979 61.8945V75.1406H90.7158V62.4707C90.7157 61.6067 90.14 61.2237 89.4365 61.2236C88.6698 61.2236 87.9652 61.7035 87.166 62.3105V75.1406L83.584 75.1416V62.4717C83.584 61.6075 83.0405 61.2236 82.3369 61.2236C81.5694 61.2237 80.8658 61.7036 80.0342 62.3105V75.1406H76.4521V58.6006H79.8418V60.3271C81.3455 59.0481 82.1127 58.2812 83.8086 58.2812C85.599 58.2813 86.1758 58.9201 86.9424 60.3271C88.6696 58.6649 89.6289 58.2812 90.9395 58.2812ZM114.102 75.1416H110.52V58.6006H114.102V75.1416ZM124.991 58.2812C126.878 58.2814 127.997 59.656 127.997 61.8945V75.1416H124.415V62.4717C124.415 61.6077 123.904 61.2238 123.137 61.2236C122.369 61.2236 121.665 61.7035 120.833 62.3105V75.1406L117.251 75.1416V58.6006H120.642V60.3281C122.145 59.0491 122.913 58.2812 124.991 58.2812ZM55.1699 61.2246C54.2102 61.2246 53.4424 61.7356 53.4424 64.0068V69.7363C53.4424 72.0076 54.2101 72.5195 55.1699 72.5195C55.8736 72.5195 56.5132 72.1345 57.2168 71.623V62.1201C56.5132 61.6077 55.8736 61.2246 55.1699 61.2246ZM68.626 61.2246C67.3471 61.2248 66.6426 62.0565 66.6426 64.0391V69.7051C66.6427 71.6873 67.3472 72.5194 68.626 72.5195C69.9041 72.5195 70.6093 71.6875 70.6094 69.7051V64.0391C70.6094 62.0563 69.9042 61.2246 68.626 61.2246ZM104.123 66.4102C100.86 68.2647 100.061 69.4493 100.061 70.9512C100.061 72.0714 100.637 72.5185 101.724 72.5186C102.716 72.5186 103.515 71.783 104.123 70.9199V66.4102ZM112.29 57.0254L110.259 52H114.32L112.29 57.0254Z" fill="url(#paint1_linear_5027_25907)"/>
<defs>
<linearGradient id="paint0_linear_5027_25907" x1="23.3315" y1="52" x2="23.3315" y2="75.4619" gradientUnits="userSpaceOnUse">
<stop stop-color="#FF5A73"/>
<stop offset="1" stop-color="#E31937"/>
</linearGradient>
<linearGradient id="paint1_linear_5027_25907" x1="88.9292" y1="52" x2="88.9292" y2="75.4619" gradientUnits="userSpaceOnUse">
<stop stop-color="#9F9DA4"/>
<stop offset="1" stop-color="#717074"/>
</linearGradient>
</defs>
</svg>
