<svg width="128" height="128" viewBox="0 0 128 128" fill="none" xmlns="http://www.w3.org/2000/svg">
<path d="M95.8515 70.228C93.6279 70.228 91.4298 70.0795 90.6278 69.1884L97.273 54.2683C97.7738 55.3165 103.401 68.119 104.415 70.228H95.8515ZM104.13 40.0315H91.2813L69.2619 81.2993V40.0485L64.3692 40.0188C55.1142 39.9297 47.1195 39.866 44.0345 47.1351C44.0345 47.1351 35.2547 68.7216 34.8728 70.9876C34.4485 68.7216 25.2062 47.1351 25.2062 47.1351C23.3051 42.5606 18.4379 40.0315 11.5125 40.0315H0V87.5117H14.1986C14.1986 87.5117 14.1562 64.0241 14.135 55.639C17.899 63.761 27.8626 87.5117 27.8626 87.5117H41.7345C41.7345 87.5117 51.2569 63.5573 55.0548 55.6135V87.5117H81.8523L86.3588 78.2524C87.4961 79.0672 91.6123 79.8862 93.8146 79.8862H108.124C108.705 80.964 112.219 87.5117 112.219 87.5117H128" fill="url(#paint0_linear_5027_19296)"/>
<defs>
<linearGradient id="paint0_linear_5027_19296" x1="64" y1="40" x2="64" y2="87.5117" gradientUnits="userSpaceOnUse">
<stop stop-color="#FF1356"/>
<stop offset="1" stop-color="#AB0534"/>
</linearGradient>
</defs>
</svg>
