<svg width="128" height="128" viewBox="0 0 128 128" fill="none" xmlns="http://www.w3.org/2000/svg">
<path d="M41.0003 0C40.4003 0 39.7003 0.3 38.9003 0.9C37.0003 0.2 35.1003 -0.1 33.4003 1.4C30.8003 1.1 30.0003 1.8 29.3003 2.6C28.7003 2.6 25.0003 2 23.3003 4.5C19.1003 4 17.8003 7 19.3003 9.8C18.4003 11.1 17.5003 12.5 19.6003 15C18.9003 16.4 19.3003 18 21.0003 19.9C20.6003 21.9 21.4003 23.3 23.0003 24.4C22.7003 27.1 25.5003 28.7 26.4003 29.3C26.7003 30.9 27.4003 32.4 30.6003 33.2C31.1003 35.6 33.1003 36 34.9003 36.5C28.7003 40.1 23.4003 44.8 23.5003 56.4L22.6003 58C15.4003 62.4 9.1003 76.3 19.0003 87.5C19.7003 91 20.7003 93.6 21.7003 96.4C23.2003 107.7 32.6003 113 35.2003 113.6C38.9003 116.4 42.8003 119 48.1003 120.9C53.1003 126 58.5003 128 63.9003 128C64.0003 128 64.1003 128 64.1003 128C69.5003 128 74.9003 126 79.9003 120.9C85.2003 119 89.1003 116.4 92.8003 113.6C95.3003 113 104.8 107.7 106.3 96.4C107.3 93.6 108.4 91.1 109 87.5C119 76.2 112.6 62.4 105.5 58.1L104.6 56.5C104.6 44.9 99.3003 40.2 93.2003 36.6C95.1003 36.1 97.0003 35.7 97.5003 33.3C100.7 32.5 101.4 31 101.7 29.4C102.5 28.8 105.4 27.2 105.1 24.5C106.7 23.4 107.6 22 107.1 20C108.8 18.1 109.2 16.6 108.5 15.1C110.5 12.5 109.6 11.2 108.8 9.9C110.3 7.1 109 4.1 104.7 4.6C103 2.1 99.3003 2.6 98.7003 2.7C98.1003 1.9 97.2003 1.2 94.6003 1.5C92.9003 0 91.0003 0.2 89.1003 1C86.8003 -0.8 85.3003 0.6 83.5003 1.2C80.7003 0.3 80.1003 1.5 78.7003 2C75.7003 1.4 74.7003 2.8 73.3003 4.2H71.6003C67.0003 6.9 64.7003 12.4 63.9003 15.2C63.1003 12.4 60.8003 6.9 56.2003 4.2H54.5003C53.0003 2.7 52.1003 1.3 49.1003 2C47.7003 1.5 47.1003 0.2 44.3003 1.2C43.3003 0.7 42.3003 0 41.0003 0Z" fill="black"/>
<path d="M31.9002 11.9C44.1002 18.1 51.1002 23.2 55.0002 27.5C53.0002 35.4 42.7002 35.8 38.9002 35.6C39.7002 35.2 40.3002 34.8 40.5002 34.1C39.6002 33.4 36.2002 34 33.8002 32.7C34.7002 32.5 35.1002 32.3 35.5002 31.7C33.3002 31 30.9002 30.4 29.5002 29.2C30.3002 29.2 31.0002 29.4 32.0002 28.7C30.0002 27.6 27.9002 26.8 26.2002 25.1C27.2002 25.1 28.3002 25.1 28.7002 24.7C26.9002 23.6 25.3002 22.3 24.1002 20.9C25.5002 21.1 26.1002 20.9 26.5002 20.7C25.1002 19.3 23.4002 18.1 22.6002 16.4C23.7002 16.8 24.6002 16.9 25.3002 16.4C24.8002 15.3 22.8002 14.7 21.7002 12.3C22.8002 12.4 24.0002 12.5 24.3002 12.3C23.7002 10.2 22.9002 8.99998 22.0002 7.69998C24.4002 7.69998 28.0002 7.69998 27.9002 7.49998L26.4002 5.99998C28.7002 5.39998 31.2002 6.09998 32.9002 6.59998C33.7002 5.99998 32.9002 5.19998 31.9002 4.39998C33.9002 4.69998 35.7002 5.09998 37.3002 5.79998C38.2002 4.99998 36.7002 4.19998 36.0002 3.39998C39.1002 3.99998 40.4002 4.79998 41.7002 5.59998C42.6002 4.69998 41.8002 3.89998 41.1002 3.09998C43.4002 3.99998 44.6002 5.09998 45.9002 6.19998C46.3002 5.59998 47.0002 5.19998 46.2002 3.79998C47.9002 4.79998 49.1002 5.89998 50.0002 7.09998C51.0002 6.39998 50.6002 5.59998 50.6002 4.69998C52.3002 6.09998 53.4002 7.59998 54.7002 8.99998C55.0002 8.79998 55.2002 8.09998 55.4002 7.09998C59.5002 11.1 65.3002 21.1 56.9002 25C49.9002 19.4 41.4002 15.1 31.9002 11.9ZM96.4002 11.9C84.2002 18.2 77.2002 23.2 73.3002 27.5C75.3002 35.4 85.6002 35.8 89.4002 35.6C88.6002 35.2 88.0002 34.8 87.8002 34.1C88.7002 33.4 92.1002 34 94.5002 32.7C93.6002 32.5 93.2002 32.3 92.8002 31.7C95.0002 31 97.4002 30.4 98.8002 29.2C98.0002 29.2 97.3002 29.4 96.3002 28.7C98.3002 27.6 100.4 26.8 102.1 25.1C101.1 25.1 100 25.1 99.6002 24.7C101.4 23.6 103 22.3 104.2 20.9C102.8 21.1 102.2 20.9 101.8 20.7C103.2 19.3 104.9 18.1 105.7 16.4C104.6 16.8 103.7 16.9 103 16.4C103.5 15.3 105.5 14.7 106.6 12.3C105.5 12.4 104.3 12.5 104 12.3C104.5 10.2 105.4 8.99998 106.3 7.69998C103.9 7.69998 100.3 7.69998 100.4 7.49998L101.9 5.99998C99.6002 5.39998 97.1002 6.09998 95.4002 6.59998C94.6002 5.99998 95.4002 5.19998 96.4002 4.39998C94.4002 4.69998 92.6002 5.09998 91.0002 5.79998C90.1002 4.99998 91.6002 4.19998 92.3002 3.39998C89.2002 3.99998 87.9002 4.79998 86.6002 5.59998C85.7002 4.69998 86.5002 3.89998 87.2002 3.09998C84.9002 3.99998 83.7002 5.09998 82.4002 6.19998C82.0002 5.59998 81.3002 5.19998 82.1002 3.79998C80.4002 4.79998 79.2002 5.89998 78.3002 7.09998C77.3002 6.39998 77.7002 5.59998 77.7002 4.69998C76.0002 6.09998 74.9002 7.59998 73.6002 8.99998C73.3002 8.79998 73.1002 8.09998 72.9002 7.09998C68.8002 11.1 63.0002 21.1 71.4002 25C78.4002 19.4 86.9002 15.1 96.4002 11.9Z" fill="url(#paint0_radial_5027_17204)"/>
<path d="M78.9002 92.8C78.9002 100.2 72.4002 106.2 64.3002 106.2C56.2002 106.2 49.7002 100.2 49.7002 92.8C49.7002 85.4 56.2002 79.4 64.3002 79.4C72.4002 79.4 78.9002 85.4 78.9002 92.8ZM55.9002 54.4C61.9002 58.4 63.0002 67.3 58.3002 74.4C53.6002 81.5 44.9002 84 38.9002 80.1C32.9002 76.1 31.8002 67.2 36.5002 60.1C41.2002 53 49.8002 50.5 55.9002 54.4ZM72.2002 53.7C66.2002 57.7 65.1002 66.6 69.8002 73.7C74.5002 80.8 83.2002 83.3 89.2002 79.4C95.2002 75.4 96.3002 66.5 91.6002 59.4C86.9002 52.3 78.2002 49.8 72.2002 53.7ZM25.7002 60.9C32.2002 59.2 27.9002 87.8 22.6002 85.5C16.8002 80.8 14.9002 67.1 25.7002 60.9ZM101 60.5C94.5002 58.8 98.8002 87.4 104.1 85.1C109.9 80.4 111.8 66.7 101 60.5ZM78.9002 39.2C90.1002 37.3 99.5002 44 99.1002 56.2C98.7002 60.8 74.7002 39.9 78.9002 39.2ZM47.8002 38.8C36.6002 36.9 27.2002 43.6 27.6002 55.8C28.0002 60.4 51.9002 39.5 47.8002 38.8ZM64.0002 36C57.3002 35.8 50.9002 41 50.8002 44C50.8002 47.6 56.1002 51.3 64.0002 51.4C72.1002 51.5 77.2002 48.4 77.2002 44.7C77.3002 40.4 69.9002 35.9 64.0002 36ZM64.4002 110.4C70.2002 110.1 78.1002 112.3 78.1002 115.1C78.2002 117.9 71.0002 124.1 64.0002 124C56.8002 124.3 49.7002 118.1 49.8002 115.9C49.6002 112.8 58.6002 110.3 64.4002 110.4ZM42.8002 93.6C47.0002 98.6 48.9002 107.4 45.4002 110C42.1002 112 34.1002 111.2 28.5002 103C24.7002 96.2 25.2002 89.2 27.9002 87.2C31.8002 84.8 38.0002 88.1 42.8002 93.6ZM85.1002 92C80.6002 97.3 78.1002 106.9 81.4002 110C84.5002 112.4 93.0002 112.1 99.2002 103.4C103.7 97.6 102.2 87.9 99.6002 85.3C95.8002 82.4 90.3002 86.2 85.1002 92Z" fill="url(#paint1_radial_5027_17204)"/>
<defs>
<radialGradient id="paint0_radial_5027_17204" cx="0" cy="0" r="1" gradientUnits="userSpaceOnUse" gradientTransform="translate(64.1375 19.4475) scale(32.1118 32.1118)">
<stop stop-color="#ACCB7E"/>
<stop offset="1" stop-color="#75A928"/>
</radialGradient>
<radialGradient id="paint1_radial_5027_17204" cx="0" cy="0" r="1" gradientUnits="userSpaceOnUse" gradientTransform="translate(63.357 79.9899) scale(44.7299 44.7299)">
<stop stop-color="#D7708E"/>
<stop offset="1" stop-color="#BC1142"/>
</radialGradient>
</defs>
</svg>
