<svg width="128" height="128" viewBox="0 0 128 128" fill="none" xmlns="http://www.w3.org/2000/svg">
<path d="M94.4697 53.5654C102.339 47.7781 111.842 49.3416 115.698 49.8076L115.417 58.4492C115.325 59.2035 114.666 59.3903 114.384 58.3604C113.673 55.7423 112.691 53.6607 111.097 52.7227C110.249 52.2258 103.267 50.3663 99.54 56.8555C95.9595 63.097 96.0328 69.9365 98.5098 74.9824C102.274 82.6459 109.475 81.6771 112.504 80.1475C113.88 79.4548 115.324 73.9513 115.604 73.5723C115.885 73.1984 116.449 73.106 116.449 73.4795C116.449 73.8534 116.355 81.5527 116.354 81.9316C116.354 82.3087 115.886 82.5914 115.512 82.7783C114.57 83.2475 101.701 86.4412 94.6592 81.8398C84.0799 74.9269 86.3091 59.5709 94.4697 53.5654ZM29.7266 50.0928V58.7314C29.8214 59.2951 29.0862 59.1971 28.9756 58.6396C28.6936 57.2296 26.2565 53.8479 25.7842 53.5654H13.5703V64.0869H23.8066C24.5608 63.8049 25.7596 61.7413 26.5352 59.6689C26.8141 58.9218 27.3867 59.39 27.3779 59.5801C27.1911 62.9583 27.2371 69.1509 27.2861 71.6924C27.3008 72.6397 26.8141 72.9154 26.5352 72.0693C26.2561 71.2261 24.8423 68.3137 23.9043 67.5596H13.5703V79.583H26.8135C27.5645 79.022 29.5057 74.777 29.7266 73.667C29.8217 73.198 30.5723 73.1981 30.5723 73.5723V83.5293L9.81543 83.2471C5.59116 83.2471 4.55468 83.247 0.517578 83.624C-0.144539 83.6853 -0.129519 82.7139 0.327148 82.4961C4.92852 80.338 5.49607 81.5546 5.49609 74.9824V57.042C5.49607 52.1586 4.09163 52.3488 0.327148 50.9355C-0.0652486 50.7884 0.143575 50.0921 0.517578 49.9971L29.7266 50.0928ZM50.4834 50.0928L60.9092 71.5059L71.7129 50.374H80.9189C81.67 50.374 84.5837 50.0922 85.0508 49.9971C85.5228 49.9022 85.6152 50.843 85.2383 51.0303C84.8612 51.2174 80.352 53.0967 79.8857 53.7559L82.6074 79.8652C82.9844 80.7112 87.5726 82.649 88.334 82.7783C88.901 82.8732 88.7269 83.5475 88.4297 83.5293C85.5235 83.3422 72.3847 83.3422 69.5518 83.5293C69.2697 83.5465 68.0831 83.0842 69.3643 82.6826C70.8664 82.2166 73.8742 81.1809 74.5303 80.0527L72.6504 57.3242L59.6895 83.5293H57.5312L45.6953 57.8887L43.6289 79.8652C44.475 81.5544 48.4206 82.3091 48.8896 82.4961C49.3552 82.6834 49.3552 83.3815 48.9814 83.3418C46.1642 83.0598 35.6395 83.2467 34.5205 83.4365C33.9534 83.5282 32.933 82.8142 34.2354 82.4004C37.9141 81.2385 39.1228 82.3086 39.9658 73.7617L42.2217 54.9756C42.5004 51.8768 38.5649 51.4997 36.7744 50.8438C36.5077 50.7457 36.2071 49.8076 36.8662 49.8076L50.4834 50.0928ZM118.049 45.3965C121.988 41.7334 125.467 43.0476 126.685 44.2676C127.908 45.4877 128.711 48.164 125.845 51.0303C124.431 52.4404 121.52 54.6943 121.52 54.6943H126.029C126.498 54.5984 127.322 52.9903 127.626 52.5332C127.816 52.2543 128 52.3456 128 52.7227V57.5117C126.685 57.4168 118.892 57.416 117.672 57.416V55.8223C119.735 54.2251 121.71 51.972 123.212 50.0928C124.714 48.2135 124.468 43.2045 119.174 46.1475C118.328 46.6161 117.764 46.1472 118.049 45.3965Z" fill="url(#paint0_linear_5027_25980)"/>
<defs>
<linearGradient id="paint0_linear_5027_25980" x1="64" y1="43" x2="64" y2="84.2935" gradientUnits="userSpaceOnUse">
<stop stop-color="#0081FF"/>
<stop offset="1" stop-color="#00478C"/>
</linearGradient>
</defs>
</svg>
