<svg width="128" height="128" viewBox="0 0 128 128" fill="none" xmlns="http://www.w3.org/2000/svg">
<path d="M119.703 89.2648H14.7731V71.8609H104.424C108.269 71.7597 112.519 68.8253 112.721 64.2719C112.519 59.7186 108.168 56.7842 104.424 56.683H104.221H14.7731V39.1779H119.602C123.447 39.0767 127.696 36.1423 127.899 31.5889C127.696 27.0356 123.345 24.1012 119.602 24H7.38656C3.23794 24 0 27.4403 0 31.5889V96.8538C0 101.002 3.23794 104.443 7.38656 104.443C7.69012 104.443 8.49961 104.443 8.70198 104.443H119.703C123.548 104.342 127.798 101.407 128 96.8538C127.798 92.3004 123.447 89.366 119.703 89.2648Z" fill="url(#paint0_linear_5027_19178)"/>
<defs>
<linearGradient id="paint0_linear_5027_19178" x1="64" y1="24" x2="64" y2="104.443" gradientUnits="userSpaceOnUse">
<stop stop-color="white"/>
<stop offset="1" stop-color="#CFCFCF"/>
</linearGradient>
</defs>
</svg>
