<svg width="128" height="128" viewBox="0 0 128 128" fill="none" xmlns="http://www.w3.org/2000/svg">
<path d="M33.6963 124.415H0C0.00184738 124.406 0.110143 123.887 6.50391 93.3389C11.6532 68.315 28.0957 54.3126 48.4219 53.4092C48.4198 53.4189 48.2478 54.2464 33.6963 124.415ZM96.4805 3.62891C120.33 3.62891 131.17 23.7745 127.195 43.0166C122.949 62.7104 107.321 73.1901 100.365 77.165C100.372 77.1774 100.79 77.9358 126.383 124.412C126.383 124.412 126.382 124.412 86.543 124.412C86.5406 124.408 86.2427 123.852 48.4209 53.4961H77.0576C82.6585 53.4961 88.3499 49.16 89.1631 43.4688C90.4278 37.7776 86.9952 32.9895 81.3945 32.9893C81.3945 32.9893 81.3937 32.9893 53.208 32.9893C53.208 32.9893 53.208 32.989 59.2607 3.62891H96.4805ZM28.7275 3C37.5807 3 44.7178 10.1371 44.7178 18.8096C44.7176 27.5723 37.5806 34.6182 28.7275 34.6182C19.8745 34.6181 12.7375 27.4819 12.7373 18.8096C12.7373 10.0468 19.8744 3.00009 28.7275 3Z" fill="url(#paint0_linear_5027_17196)"/>
<defs>
<linearGradient id="paint0_linear_5027_17196" x1="63.9998" y1="3" x2="63.9998" y2="124.415" gradientUnits="userSpaceOnUse">
<stop stop-color="#96FF0A"/>
<stop offset="1" stop-color="#64A70B"/>
</linearGradient>
</defs>
</svg>
