<svg width="16" height="16" viewBox="0 0 16 16" fill="none" xmlns="http://www.w3.org/2000/svg">
<path fill-rule="evenodd" clip-rule="evenodd" d="M2.50019 5.82389C2.51044 4.44955 3.09328 3.13403 4.12308 2.16086L3.41181 1.5C2.80603 2.0661 2.32521 2.73964 1.99707 3.48177C1.66894 4.2239 1.5 5.01992 1.5 5.82389C1.5 6.62787 1.66894 7.42389 1.99707 8.16601C2.32521 8.90814 2.80603 9.58169 3.41181 10.1478L4.12308 9.48693C3.09328 8.51376 2.51044 7.19823 2.50019 5.82389ZM3.56208 5.82389C3.5595 6.38064 3.67516 6.93225 3.90227 7.44623C4.12937 7.9602 4.46332 8.42615 4.88444 8.81663L5.59571 8.14633C5.26645 7.84777 5.00711 7.4876 4.83435 7.08896C4.65664 6.68988 4.56511 6.26141 4.56511 5.82861C4.56511 5.39581 4.65664 4.96735 4.83435 4.56826C5.00453 4.16557 5.26412 3.80184 5.59571 3.50145L4.88444 2.83115C4.46512 3.22291 4.13236 3.6891 3.90539 4.20278C3.67841 4.71647 3.56173 5.26745 3.56208 5.82389ZM11.2258 8.85439L10.5145 8.1841C10.8451 7.88199 11.1055 7.51946 11.2758 7.11728C11.4536 6.71821 11.5452 6.28974 11.5452 5.85694C11.5452 5.42413 11.4536 4.99566 11.2758 4.59659C11.1057 4.1939 10.8461 3.83016 10.5145 3.52977L11.2258 2.86892C11.6446 3.26097 11.977 3.72724 12.2038 4.24086C12.4307 4.75449 12.5474 5.30532 12.5474 5.86166C12.5474 6.41799 12.4307 6.96883 12.2038 7.48245C11.977 7.99607 11.6446 8.46234 11.2258 8.85439ZM12.5882 1.5L11.8769 2.1703C12.3912 2.64734 12.7997 3.21605 13.0785 3.8433C13.3573 4.47056 13.5009 5.14383 13.5009 5.82389C13.5009 6.50396 13.3573 7.17722 13.0785 7.80448C12.7997 8.43174 12.3912 9.00045 11.8769 9.47749L12.5882 10.1478C13.194 9.58169 13.6748 8.90814 14.0029 8.16601C14.3311 7.42389 14.5 6.62787 14.5 5.82389C14.5 5.01992 14.3311 4.2239 14.0029 3.48177C13.6748 2.73964 13.194 2.0661 12.5882 1.5ZM9.50769 5.68228C9.54184 6.00815 9.45511 6.3351 9.26225 6.60748C9.17909 6.68727 9.08858 6.75993 8.99177 6.82462L12.4379 14.1224L11.5163 14.5L10.7449 12.8667H5.195L4.42362 14.5L3.50198 14.1224L6.94812 6.82462C6.74033 6.62612 6.59841 6.37487 6.5397 6.10158C6.48099 5.82829 6.50803 5.5448 6.61753 5.28577C6.73471 5.02515 6.92959 4.80215 7.17853 4.64379C7.39436 4.50813 7.64378 4.42745 7.90251 4.40958C8.16124 4.39171 8.42048 4.43727 8.65498 4.54183C8.88949 4.64639 9.09127 4.80638 9.2407 5.00623C9.39013 5.20608 9.48211 5.43899 9.50769 5.68228ZM7.90984 5.36129C7.81487 5.38238 7.72809 5.42817 7.65939 5.49346C7.60556 5.5534 7.56777 5.62462 7.5492 5.70116C7.51924 5.79024 7.51924 5.88587 7.5492 5.97495C7.58927 6.05991 7.65138 6.13544 7.72952 6.19208C7.81391 6.24099 7.91094 6.26712 8.01002 6.26761C8.14206 6.26519 8.26798 6.21468 8.36137 6.12668C8.45475 6.03867 8.50835 5.92001 8.51091 5.79557C8.51039 5.7022 8.48267 5.61076 8.43077 5.53123C8.3706 5.45699 8.29129 5.39849 8.20036 5.36129C8.10583 5.33306 8.00436 5.33306 7.90984 5.36129ZM8.14025 7.29666H7.86977L6.99821 9.12818H9.00179L8.14025 7.29666ZM10.3442 11.9604L9.45259 10.0723H6.56744L5.67585 11.9604H10.3442Z" fill="#F7F8FB" fill-opacity="0.64"/>
<path fill-rule="evenodd" clip-rule="evenodd" d="M2.50019 5.82389C2.51044 4.44955 3.09328 3.13403 4.12308 2.16086L3.41181 1.5C2.80603 2.0661 2.32521 2.73964 1.99707 3.48177C1.66894 4.2239 1.5 5.01992 1.5 5.82389C1.5 6.62787 1.66894 7.42389 1.99707 8.16601C2.32521 8.90814 2.80603 9.58169 3.41181 10.1478L4.12308 9.48693C3.09328 8.51376 2.51044 7.19823 2.50019 5.82389ZM3.56208 5.82389C3.5595 6.38064 3.67516 6.93225 3.90227 7.44623C4.12937 7.9602 4.46332 8.42615 4.88444 8.81663L5.59571 8.14633C5.26645 7.84777 5.00711 7.4876 4.83435 7.08896C4.65664 6.68988 4.56511 6.26141 4.56511 5.82861C4.56511 5.39581 4.65664 4.96735 4.83435 4.56826C5.00453 4.16557 5.26412 3.80184 5.59571 3.50145L4.88444 2.83115C4.46512 3.22291 4.13236 3.6891 3.90539 4.20278C3.67841 4.71647 3.56173 5.26745 3.56208 5.82389ZM11.2258 8.85439L10.5145 8.1841C10.8451 7.88199 11.1055 7.51946 11.2758 7.11728C11.4536 6.71821 11.5452 6.28974 11.5452 5.85694C11.5452 5.42413 11.4536 4.99566 11.2758 4.59659C11.1057 4.1939 10.8461 3.83016 10.5145 3.52977L11.2258 2.86892C11.6446 3.26097 11.977 3.72724 12.2038 4.24086C12.4307 4.75449 12.5474 5.30532 12.5474 5.86166C12.5474 6.41799 12.4307 6.96883 12.2038 7.48245C11.977 7.99607 11.6446 8.46234 11.2258 8.85439ZM12.5882 1.5L11.8769 2.1703C12.3912 2.64734 12.7997 3.21605 13.0785 3.8433C13.3573 4.47056 13.5009 5.14383 13.5009 5.82389C13.5009 6.50396 13.3573 7.17722 13.0785 7.80448C12.7997 8.43174 12.3912 9.00045 11.8769 9.47749L12.5882 10.1478C13.194 9.58169 13.6748 8.90814 14.0029 8.16601C14.3311 7.42389 14.5 6.62787 14.5 5.82389C14.5 5.01992 14.3311 4.2239 14.0029 3.48177C13.6748 2.73964 13.194 2.0661 12.5882 1.5ZM9.50769 5.68228C9.54184 6.00815 9.45511 6.3351 9.26225 6.60748C9.17909 6.68727 9.08858 6.75993 8.99177 6.82462L12.4379 14.1224L11.5163 14.5L10.7449 12.8667H5.195L4.42362 14.5L3.50198 14.1224L6.94812 6.82462C6.74033 6.62612 6.59841 6.37487 6.5397 6.10158C6.48099 5.82829 6.50803 5.5448 6.61753 5.28577C6.73471 5.02515 6.92959 4.80215 7.17853 4.64379C7.39436 4.50813 7.64378 4.42745 7.90251 4.40958C8.16124 4.39171 8.42048 4.43727 8.65498 4.54183C8.88949 4.64639 9.09127 4.80638 9.2407 5.00623C9.39013 5.20608 9.48211 5.43899 9.50769 5.68228ZM7.90984 5.36129C7.81487 5.38238 7.72809 5.42817 7.65939 5.49346C7.60556 5.5534 7.56777 5.62462 7.5492 5.70116C7.51924 5.79024 7.51924 5.88587 7.5492 5.97495C7.58927 6.05991 7.65138 6.13544 7.72952 6.19208C7.81391 6.24099 7.91094 6.26712 8.01002 6.26761C8.14206 6.26519 8.26798 6.21468 8.36137 6.12668C8.45475 6.03867 8.50835 5.92001 8.51091 5.79557C8.51039 5.7022 8.48267 5.61076 8.43077 5.53123C8.3706 5.45699 8.29129 5.39849 8.20036 5.36129C8.10583 5.33306 8.00436 5.33306 7.90984 5.36129ZM8.14025 7.29666H7.86977L6.99821 9.12818H9.00179L8.14025 7.29666ZM10.3442 11.9604L9.45259 10.0723H6.56744L5.67585 11.9604H10.3442Z" fill="url(#paint0_linear_4988_545)" fill-opacity="0.08"/>
<defs>
<linearGradient id="paint0_linear_4988_545" x1="8" y1="1.5" x2="8" y2="14.5" gradientUnits="userSpaceOnUse">
<stop stop-opacity="0"/>
<stop offset="1"/>
</linearGradient>
</defs>
</svg>
