<svg width="18" height="16" viewBox="0 0 18 16" fill="none" xmlns="http://www.w3.org/2000/svg">
<path fill-rule="evenodd" clip-rule="evenodd" d="M5.46997 3.09091C5.46997 2.48793 5.95451 2 6.5533 2H10.8866C11.4854 2 11.97 2.48793 11.97 3.09091V4.72727H14.1366C14.7354 4.72727 15.22 5.2152 15.22 5.81818V12.9091C15.22 13.0881 15.1777 13.2585 15.1015 13.4077C15.038 13.5312 14.9534 13.6399 14.8518 13.7294C14.7418 13.8253 14.6127 13.902 14.4709 13.9467C14.3652 13.9808 14.253 14 14.1366 14H3.3033C2.70451 14 2.21997 13.5121 2.21997 12.9091V5.81818C2.21997 5.56889 2.30249 5.34091 2.44214 5.15767C2.48869 5.09375 2.54159 5.03622 2.60083 4.98509C2.64315 4.95099 2.68547 4.91903 2.73202 4.89134C2.89917 4.78693 3.09383 4.72727 3.3033 4.72727H5.46997V3.09091ZM11.97 6.90909V8H13.0533V6.90909H11.97ZM11.97 9.09091V10.1818H13.0533V9.09091H11.97ZM11.97 11.2727V12.3636H13.0533V11.2727H11.97ZM5.46997 12.3636V11.2727H4.38664V12.3636H5.46997ZM5.46997 10.1818V9.09091H4.38664V10.1818H5.46997ZM5.46997 8V6.90909H4.38664V8H5.46997ZM9.8033 3.63636H7.63664V4.72727H9.8033V3.63636ZM7.63664 5.81818H9.8033V6.90909H7.63664V5.81818ZM9.8033 8H7.63664V9.09091H9.8033V8Z" fill="#F7F8FB" fill-opacity="0.64"/>
<path fill-rule="evenodd" clip-rule="evenodd" d="M5.46997 3.09091C5.46997 2.48793 5.95451 2 6.5533 2H10.8866C11.4854 2 11.97 2.48793 11.97 3.09091V4.72727H14.1366C14.7354 4.72727 15.22 5.2152 15.22 5.81818V12.9091C15.22 13.0881 15.1777 13.2585 15.1015 13.4077C15.038 13.5312 14.9534 13.6399 14.8518 13.7294C14.7418 13.8253 14.6127 13.902 14.4709 13.9467C14.3652 13.9808 14.253 14 14.1366 14H3.3033C2.70451 14 2.21997 13.5121 2.21997 12.9091V5.81818C2.21997 5.56889 2.30249 5.34091 2.44214 5.15767C2.48869 5.09375 2.54159 5.03622 2.60083 4.98509C2.64315 4.95099 2.68547 4.91903 2.73202 4.89134C2.89917 4.78693 3.09383 4.72727 3.3033 4.72727H5.46997V3.09091ZM11.97 6.90909V8H13.0533V6.90909H11.97ZM11.97 9.09091V10.1818H13.0533V9.09091H11.97ZM11.97 11.2727V12.3636H13.0533V11.2727H11.97ZM5.46997 12.3636V11.2727H4.38664V12.3636H5.46997ZM5.46997 10.1818V9.09091H4.38664V10.1818H5.46997ZM5.46997 8V6.90909H4.38664V8H5.46997ZM9.8033 3.63636H7.63664V4.72727H9.8033V3.63636ZM7.63664 5.81818H9.8033V6.90909H7.63664V5.81818ZM9.8033 8H7.63664V9.09091H9.8033V8Z" fill="url(#paint0_linear_4988_551)" fill-opacity="0.08"/>
<defs>
<linearGradient id="paint0_linear_4988_551" x1="8.71997" y1="2" x2="8.71997" y2="14" gradientUnits="userSpaceOnUse">
<stop stop-opacity="0"/>
<stop offset="1"/>
</linearGradient>
</defs>
</svg>
