<svg width="16" height="16" viewBox="0 0 16 16" fill="none" xmlns="http://www.w3.org/2000/svg">
<path d="M8.10888 8.10931C7.24912 8.9693 7.24912 10.3639 8.10888 11.2243L11.2241 8.10931C10.3639 7.24889 8.9693 7.24889 8.10888 8.10931Z" fill="#F7F8FB" fill-opacity="0.64"/>
<path d="M8.10888 8.10931C7.24912 8.9693 7.24912 10.3639 8.10888 11.2243L11.2241 8.10931C10.3639 7.24889 8.9693 7.24889 8.10888 8.10931Z" fill="url(#paint0_linear_4988_547)" fill-opacity="0.08"/>
<path d="M4.93948 2.91733L2.9171 4.93971L6.62601 8.64863L8.64883 6.62579L4.93948 2.91733Z" fill="#F7F8FB" fill-opacity="0.64"/>
<path d="M4.93948 2.91733L2.9171 4.93971L6.62601 8.64863L8.64883 6.62579L4.93948 2.91733Z" fill="url(#paint1_linear_4988_547)" fill-opacity="0.08"/>
<path d="M11.9938 3.22822L10.2654 1.5L7.16485 4.60076L8.89307 6.32919L11.9938 3.22822ZM9.79475 4.7884L9.39204 4.38592L10.0508 3.72717L10.4533 4.12942L9.79475 4.7884ZM11.3542 3.22822L10.737 3.84549L10.3347 3.44304L10.9518 2.82597L11.3542 3.22822ZM10.2654 2.14027L10.6676 2.5423L10.0508 3.15959L9.64854 2.75711L10.2654 2.14027ZM9.36464 3.04124L9.76666 3.44306L9.10836 4.10202L8.70588 3.69977L9.36464 3.04124ZM7.80489 4.60076L8.42196 3.9837L8.82421 4.38595L8.20689 5.00279L7.80489 4.60076ZM9.10791 4.66962L9.51039 5.07208L8.89332 5.68914L8.49127 5.28712L9.10791 4.66962Z" fill="#F7F8FB" fill-opacity="0.64"/>
<path d="M11.9938 3.22822L10.2654 1.5L7.16485 4.60076L8.89307 6.32919L11.9938 3.22822ZM9.79475 4.7884L9.39204 4.38592L10.0508 3.72717L10.4533 4.12942L9.79475 4.7884ZM11.3542 3.22822L10.737 3.84549L10.3347 3.44304L10.9518 2.82597L11.3542 3.22822ZM10.2654 2.14027L10.6676 2.5423L10.0508 3.15959L9.64854 2.75711L10.2654 2.14027ZM9.36464 3.04124L9.76666 3.44306L9.10836 4.10202L8.70588 3.69977L9.36464 3.04124ZM7.80489 4.60076L8.42196 3.9837L8.82421 4.38595L8.20689 5.00279L7.80489 4.60076ZM9.10791 4.66962L9.51039 5.07208L8.89332 5.68914L8.49127 5.28712L9.10791 4.66962Z" fill="url(#paint2_linear_4988_547)" fill-opacity="0.08"/>
<path d="M1.5 10.2654L3.22843 11.9936L6.32919 8.89287L4.60122 7.1651L1.5 10.2654ZM3.69997 8.70568L4.10222 9.10793L3.44349 9.76689L3.04124 9.36441L3.69997 8.70568ZM2.14025 10.2654L2.75708 9.64854L3.15934 10.0506L2.5425 10.6679L2.14025 10.2654ZM3.22843 11.3538L2.82597 10.9518L3.44349 10.3345L3.84552 10.7365L3.22843 11.3538ZM4.12965 10.453L3.72717 10.0506L4.3859 9.39161L4.78815 9.79409L4.12965 10.453ZM5.68914 8.8933L5.07254 9.51016L4.67005 9.10791L5.28692 8.49107L5.68914 8.8933ZM4.3859 8.82398L3.98342 8.42219L4.60119 7.80466L5.00322 8.20692L4.3859 8.82398Z" fill="#F7F8FB" fill-opacity="0.64"/>
<path d="M1.5 10.2654L3.22843 11.9936L6.32919 8.89287L4.60122 7.1651L1.5 10.2654ZM3.69997 8.70568L4.10222 9.10793L3.44349 9.76689L3.04124 9.36441L3.69997 8.70568ZM2.14025 10.2654L2.75708 9.64854L3.15934 10.0506L2.5425 10.6679L2.14025 10.2654ZM3.22843 11.3538L2.82597 10.9518L3.44349 10.3345L3.84552 10.7365L3.22843 11.3538ZM4.12965 10.453L3.72717 10.0506L4.3859 9.39161L4.78815 9.79409L4.12965 10.453ZM5.68914 8.8933L5.07254 9.51016L4.67005 9.10791L5.28692 8.49107L5.68914 8.8933ZM4.3859 8.82398L3.98342 8.42219L4.60119 7.80466L5.00322 8.20692L4.3859 8.82398Z" fill="url(#paint3_linear_4988_547)" fill-opacity="0.08"/>
<path d="M10.7276 10.0956C10.5533 9.92176 10.2703 9.92155 10.0965 10.0956C9.92153 10.2699 9.92153 10.5531 10.096 10.7274C10.2708 10.9019 10.5533 10.9019 10.7276 10.7274C10.9021 10.5531 10.9021 10.2705 10.7276 10.0956Z" fill="#F7F8FB" fill-opacity="0.64"/>
<path d="M10.7276 10.0956C10.5533 9.92176 10.2703 9.92155 10.0965 10.0956C9.92153 10.2699 9.92153 10.5531 10.096 10.7274C10.2708 10.9019 10.5533 10.9019 10.7276 10.7274C10.9021 10.5531 10.9021 10.2705 10.7276 10.0956Z" fill="url(#paint4_linear_4988_547)" fill-opacity="0.08"/>
<path d="M14.0351 11.1142C13.9008 11.8153 13.5645 12.4825 13.0236 13.0232C12.4825 13.5643 11.8153 13.9008 11.1149 14.0358L11.2043 14.5005C11.9936 14.3487 12.7488 13.9674 13.3583 13.3579C13.9678 12.7484 14.3487 11.993 14.5 11.2034L14.0351 11.1142Z" fill="#F7F8FB" fill-opacity="0.64"/>
<path d="M14.0351 11.1142C13.9008 11.8153 13.5645 12.4825 13.0236 13.0232C12.4825 13.5643 11.8153 13.9008 11.1149 14.0358L11.2043 14.5005C11.9936 14.3487 12.7488 13.9674 13.3583 13.3579C13.9678 12.7484 14.3487 11.993 14.5 11.2034L14.0351 11.1142Z" fill="url(#paint5_linear_4988_547)" fill-opacity="0.08"/>
<path d="M13.3432 10.9527L12.8774 10.8678C12.789 11.3525 12.5603 11.8136 12.1873 12.1866C11.814 12.5597 11.3525 12.7887 10.8682 12.8779L10.9536 13.3432C11.5276 13.2385 12.0787 12.9643 12.522 12.5211C12.9648 12.0783 13.2387 11.527 13.3432 10.9527Z" fill="#F7F8FB" fill-opacity="0.64"/>
<path d="M13.3432 10.9527L12.8774 10.8678C12.789 11.3525 12.5603 11.8136 12.1873 12.1866C11.814 12.5597 11.3525 12.7887 10.8682 12.8779L10.9536 13.3432C11.5276 13.2385 12.0787 12.9643 12.522 12.5211C12.9648 12.0783 13.2387 11.527 13.3432 10.9527Z" fill="url(#paint6_linear_4988_547)" fill-opacity="0.08"/>
<path d="M11.6854 11.6847C11.9628 11.4073 12.1295 11.059 12.1868 10.699L11.7197 10.6242C11.6765 10.8916 11.5548 11.1457 11.3505 11.35C11.1457 11.5544 10.8918 11.6765 10.6246 11.7195L10.7 12.1866C11.0594 12.1291 11.4079 11.9622 11.6854 11.6847Z" fill="#F7F8FB" fill-opacity="0.64"/>
<path d="M11.6854 11.6847C11.9628 11.4073 12.1295 11.059 12.1868 10.699L11.7197 10.6242C11.6765 10.8916 11.5548 11.1457 11.3505 11.35C11.1457 11.5544 10.8918 11.6765 10.6246 11.7195L10.7 12.1866C11.0594 12.1291 11.4079 11.9622 11.6854 11.6847Z" fill="url(#paint7_linear_4988_547)" fill-opacity="0.08"/>
<defs>
<linearGradient id="paint0_linear_4988_547" x1="8" y1="1.5" x2="8" y2="14.5005" gradientUnits="userSpaceOnUse">
<stop stop-opacity="0"/>
<stop offset="1"/>
</linearGradient>
<linearGradient id="paint1_linear_4988_547" x1="8" y1="1.5" x2="8" y2="14.5005" gradientUnits="userSpaceOnUse">
<stop stop-opacity="0"/>
<stop offset="1"/>
</linearGradient>
<linearGradient id="paint2_linear_4988_547" x1="8" y1="1.5" x2="8" y2="14.5005" gradientUnits="userSpaceOnUse">
<stop stop-opacity="0"/>
<stop offset="1"/>
</linearGradient>
<linearGradient id="paint3_linear_4988_547" x1="8" y1="1.5" x2="8" y2="14.5005" gradientUnits="userSpaceOnUse">
<stop stop-opacity="0"/>
<stop offset="1"/>
</linearGradient>
<linearGradient id="paint4_linear_4988_547" x1="8" y1="1.5" x2="8" y2="14.5005" gradientUnits="userSpaceOnUse">
<stop stop-opacity="0"/>
<stop offset="1"/>
</linearGradient>
<linearGradient id="paint5_linear_4988_547" x1="8" y1="1.5" x2="8" y2="14.5005" gradientUnits="userSpaceOnUse">
<stop stop-opacity="0"/>
<stop offset="1"/>
</linearGradient>
<linearGradient id="paint6_linear_4988_547" x1="8" y1="1.5" x2="8" y2="14.5005" gradientUnits="userSpaceOnUse">
<stop stop-opacity="0"/>
<stop offset="1"/>
</linearGradient>
<linearGradient id="paint7_linear_4988_547" x1="8" y1="1.5" x2="8" y2="14.5005" gradientUnits="userSpaceOnUse">
<stop stop-opacity="0"/>
<stop offset="1"/>
</linearGradient>
</defs>
</svg>
