<svg width="16" height="16" viewBox="0 0 16 16" fill="none" xmlns="http://www.w3.org/2000/svg">
<path fill-rule="evenodd" clip-rule="evenodd" d="M7.81031 1.54346C7.92972 1.48551 8.07028 1.48551 8.18969 1.54346L13.7655 4.24938C13.9092 4.31912 14 4.46167 14 4.6176C14 6.43839 13.4994 8.61774 12.5296 10.4782C11.563 12.3327 10.0937 13.9359 8.11652 14.4842C8.04037 14.5053 7.95963 14.5053 7.88347 14.4842C5.90625 13.9359 4.43701 12.3327 3.47038 10.4782C2.50064 8.61774 2 6.43839 2 4.6176C2 4.46167 2.09077 4.31912 2.23447 4.24938L7.81031 1.54346ZM2.85174 4.87038C2.89568 6.51144 3.36279 8.44786 4.22734 10.1065C5.11834 11.8159 6.39664 13.1677 8 13.6585C9.60336 13.1677 10.8817 11.8159 11.7727 10.1065C12.6372 8.44786 13.1043 6.51144 13.1483 4.87038L8 2.37196L2.85174 4.87038ZM6.30611 6.35594C6.47176 6.19516 6.74032 6.19516 6.90596 6.35594L8 7.41779L9.09403 6.35594C9.25968 6.19516 9.52824 6.19516 9.69389 6.35594C9.85953 6.51671 9.85953 6.77737 9.69389 6.93814L8.59985 8L9.69389 9.06186C9.85953 9.22263 9.85953 9.48329 9.69389 9.64406C9.52824 9.80484 9.25968 9.80484 9.09403 9.64406L8 8.58221L6.90596 9.64406C6.74032 9.80484 6.47176 9.80484 6.30611 9.64406C6.14047 9.48329 6.14047 9.22263 6.30611 9.06186L7.40015 8L6.30611 6.93814C6.14047 6.77737 6.14047 6.51671 6.30611 6.35594Z" fill="#8B7FFF"/>
</svg>
