<svg width="16" height="16" viewBox="0 0 16 16" fill="none" xmlns="http://www.w3.org/2000/svg">
<path d="M10.5476 7.74597C10.6815 7.88884 10.6815 8.11116 10.5476 8.25404L8.27097 10.6824C8.12423 10.8389 7.87577 10.8389 7.72903 10.6824L5.45245 8.25404C5.3185 8.11116 5.3185 7.88884 5.45245 7.74597L7.72903 5.31761C7.87577 5.16108 8.12423 5.16108 8.27097 5.31761L10.5476 7.74597Z" fill="#F7F8FB" fill-opacity="0.64"/>
<path d="M10.5476 7.74597C10.6815 7.88884 10.6815 8.11116 10.5476 8.25404L8.27097 10.6824C8.12423 10.8389 7.87577 10.8389 7.72903 10.6824L5.45245 8.25404C5.3185 8.11116 5.3185 7.88884 5.45245 7.74597L7.72903 5.31761C7.87577 5.16108 8.12423 5.16108 8.27097 5.31761L10.5476 7.74597Z" fill="url(#paint0_linear_4979_291)" fill-opacity="0.08"/>
<path d="M8.92858 14.5H7.07143V11.7953L7.32262 12.0634L7.35762 12.0989C7.72792 12.4543 8.32199 12.4425 8.67739 12.0634L8.92858 11.7953V14.5Z" fill="#F7F8FB" fill-opacity="0.64"/>
<path d="M8.92858 14.5H7.07143V11.7953L7.32262 12.0634L7.35762 12.0989C7.72792 12.4543 8.32199 12.4425 8.67739 12.0634L8.92858 11.7953V14.5Z" fill="url(#paint1_linear_4979_291)" fill-opacity="0.08"/>
<path d="M8.92858 4.20449L8.67739 3.93662L8.64239 3.90107C8.28401 3.55706 7.716 3.55706 7.35762 3.90107L7.32262 3.93662L7.07143 4.20449V1.5H8.92858V4.20449Z" fill="#F7F8FB" fill-opacity="0.64"/>
<path d="M8.92858 4.20449L8.67739 3.93662L8.64239 3.90107C8.28401 3.55706 7.716 3.55706 7.35762 3.90107L7.32262 3.93662L7.07143 4.20449V1.5H8.92858V4.20449Z" fill="url(#paint2_linear_4979_291)" fill-opacity="0.08"/>
<defs>
<linearGradient id="paint0_linear_4979_291" x1="10.648" y1="8" x2="5.35199" y2="8" gradientUnits="userSpaceOnUse">
<stop stop-opacity="0"/>
<stop offset="1"/>
</linearGradient>
<linearGradient id="paint1_linear_4979_291" x1="10.648" y1="8" x2="5.35199" y2="8" gradientUnits="userSpaceOnUse">
<stop stop-opacity="0"/>
<stop offset="1"/>
</linearGradient>
<linearGradient id="paint2_linear_4979_291" x1="10.648" y1="8" x2="5.35199" y2="8" gradientUnits="userSpaceOnUse">
<stop stop-opacity="0"/>
<stop offset="1"/>
</linearGradient>
</defs>
</svg>
