<svg width="16" height="16" viewBox="0 0 16 16" fill="none" xmlns="http://www.w3.org/2000/svg">
<path fill-rule="evenodd" clip-rule="evenodd" d="M12.0759 7.63016C12.3946 7.62939 12.7102 7.69176 13.0047 7.81365C13.2991 7.93553 13.5664 8.11452 13.7913 8.34029C14.0538 8.60459 14.2523 8.92558 14.3716 9.27852C14.4908 9.63146 14.5276 10.0075 14.4791 10.3769C14.4283 10.746 14.2936 11.0986 14.0853 11.4076C13.8771 11.7166 13.6009 11.9738 13.2778 12.1595C12.984 12.327 12.6585 12.4314 12.3221 12.466C11.9858 12.5006 11.6459 12.4646 11.3242 12.3604L11.0503 12.6339C10.964 12.7241 10.8445 12.7744 10.7209 12.7744H10.4306V13.0131C10.428 13.1432 10.3765 13.2643 10.2889 13.357L10.2856 13.3605C10.189 13.4601 10.0566 13.5129 9.92351 13.5129H9.68826V13.811C9.68695 13.8653 9.67613 13.9191 9.65605 13.9697C9.6331 14.0275 9.59861 14.0801 9.55475 14.1243L9.27354 14.4055C9.21321 14.4659 9.13126 14.4999 9.04589 14.5H7.95235C7.77459 14.5 7.63032 14.3557 7.63032 14.178V13.0796C7.63041 12.9943 7.66441 12.9124 7.72481 12.8521L9.76943 10.8079C9.66524 10.4859 9.62921 10.1457 9.66366 9.80896C9.6981 9.47227 9.80224 9.14642 9.96947 8.85217C10.1827 8.48178 10.4896 8.17392 10.8593 7.95945C11.229 7.74499 11.6485 7.63141 12.0759 7.63016ZM12.2469 8.91825C12.12 8.91775 11.9941 8.9424 11.8768 8.99082C11.7595 9.03924 11.6529 9.1105 11.5633 9.20036H11.5642C11.4287 9.33515 11.3364 9.50718 11.299 9.69458C11.2617 9.88198 11.2808 10.0763 11.3542 10.2528L11.3546 10.2535C11.4216 10.4149 11.5312 10.5551 11.6716 10.6591C11.812 10.7631 11.978 10.827 12.1519 10.844C12.3257 10.8611 12.501 10.8306 12.6589 10.7559C12.8169 10.6812 12.9515 10.565 13.0486 10.4197C13.1457 10.2744 13.2014 10.1056 13.2101 9.93106C13.2187 9.75655 13.1798 9.58292 13.0975 9.4288C13.0152 9.27469 12.8926 9.14581 12.7428 9.0559C12.593 8.96599 12.4216 8.9184 12.2469 8.91825Z" fill="#F7F8FB" fill-opacity="0.64"/>
<path fill-rule="evenodd" clip-rule="evenodd" d="M12.0759 7.63016C12.3946 7.62939 12.7102 7.69176 13.0047 7.81365C13.2991 7.93553 13.5664 8.11452 13.7913 8.34029C14.0538 8.60459 14.2523 8.92558 14.3716 9.27852C14.4908 9.63146 14.5276 10.0075 14.4791 10.3769C14.4283 10.746 14.2936 11.0986 14.0853 11.4076C13.8771 11.7166 13.6009 11.9738 13.2778 12.1595C12.984 12.327 12.6585 12.4314 12.3221 12.466C11.9858 12.5006 11.6459 12.4646 11.3242 12.3604L11.0503 12.6339C10.964 12.7241 10.8445 12.7744 10.7209 12.7744H10.4306V13.0131C10.428 13.1432 10.3765 13.2643 10.2889 13.357L10.2856 13.3605C10.189 13.4601 10.0566 13.5129 9.92351 13.5129H9.68826V13.811C9.68695 13.8653 9.67613 13.9191 9.65605 13.9697C9.6331 14.0275 9.59861 14.0801 9.55475 14.1243L9.27354 14.4055C9.21321 14.4659 9.13126 14.4999 9.04589 14.5H7.95235C7.77459 14.5 7.63032 14.3557 7.63032 14.178V13.0796C7.63041 12.9943 7.66441 12.9124 7.72481 12.8521L9.76943 10.8079C9.66524 10.4859 9.62921 10.1457 9.66366 9.80896C9.6981 9.47227 9.80224 9.14642 9.96947 8.85217C10.1827 8.48178 10.4896 8.17392 10.8593 7.95945C11.229 7.74499 11.6485 7.63141 12.0759 7.63016ZM12.2469 8.91825C12.12 8.91775 11.9941 8.9424 11.8768 8.99082C11.7595 9.03924 11.6529 9.1105 11.5633 9.20036H11.5642C11.4287 9.33515 11.3364 9.50718 11.299 9.69458C11.2617 9.88198 11.2808 10.0763 11.3542 10.2528L11.3546 10.2535C11.4216 10.4149 11.5312 10.5551 11.6716 10.6591C11.812 10.7631 11.978 10.827 12.1519 10.844C12.3257 10.8611 12.501 10.8306 12.6589 10.7559C12.8169 10.6812 12.9515 10.565 13.0486 10.4197C13.1457 10.2744 13.2014 10.1056 13.2101 9.93106C13.2187 9.75655 13.1798 9.58292 13.0975 9.4288C13.0152 9.27469 12.8926 9.14581 12.7428 9.0559C12.593 8.96599 12.4216 8.9184 12.2469 8.91825Z" fill="url(#paint0_linear_4979_340)" fill-opacity="0.08"/>
<path d="M3.6588 8.21082C3.98069 8.18444 4.30853 8.22649 4.57787 8.32884C5.44947 8.66104 6.30698 9.0392 7.36069 9.0392C8.1422 9.0392 8.6691 8.83098 9.24481 8.58799C9.06092 8.94405 8.94503 9.33182 8.90417 9.73118C8.87556 10.0108 8.8841 10.2924 8.92876 10.5685L7.18528 12.312C6.99452 12.5025 6.88205 12.7569 6.86848 13.0251L6.86699 13.0788V13.2276H2.80308C2.45752 13.2276 2.12611 13.1505 1.88177 13.0134C1.63744 12.8763 1.50015 12.6905 1.50012 12.4966C1.50658 11.8307 2.09001 8.98838 2.83836 8.47146C3.04427 8.33017 3.33691 8.2372 3.6588 8.21082Z" fill="#F7F8FB" fill-opacity="0.64"/>
<path d="M3.6588 8.21082C3.98069 8.18444 4.30853 8.22649 4.57787 8.32884C5.44947 8.66104 6.30698 9.0392 7.36069 9.0392C8.1422 9.0392 8.6691 8.83098 9.24481 8.58799C9.06092 8.94405 8.94503 9.33182 8.90417 9.73118C8.87556 10.0108 8.8841 10.2924 8.92876 10.5685L7.18528 12.312C6.99452 12.5025 6.88205 12.7569 6.86848 13.0251L6.86699 13.0788V13.2276H2.80308C2.45752 13.2276 2.12611 13.1505 1.88177 13.0134C1.63744 12.8763 1.50015 12.6905 1.50012 12.4966C1.50658 11.8307 2.09001 8.98838 2.83836 8.47146C3.04427 8.33017 3.33691 8.2372 3.6588 8.21082Z" fill="url(#paint1_linear_4979_340)" fill-opacity="0.08"/>
<path d="M6.08159 1.75517C6.69386 1.50156 7.36766 1.43506 8.01764 1.56435C8.66761 1.69364 9.26469 2.01283 9.7333 2.48144C10.2019 2.95004 10.5211 3.54713 10.6504 4.1971C10.7796 4.84702 10.7131 5.52067 10.4596 6.13289C10.206 6.74516 9.77646 7.26868 9.22543 7.63686C8.67442 8.00501 8.02661 8.20138 7.36392 8.20138C6.47527 8.20138 5.62293 7.84855 4.99455 7.22018C4.36618 6.59181 4.01313 5.73946 4.01311 4.85081C4.01311 4.1881 4.20969 3.54008 4.57787 2.98905C4.94604 2.43809 5.46939 2.00877 6.08159 1.75517Z" fill="#F7F8FB" fill-opacity="0.64"/>
<path d="M6.08159 1.75517C6.69386 1.50156 7.36766 1.43506 8.01764 1.56435C8.66761 1.69364 9.26469 2.01283 9.7333 2.48144C10.2019 2.95004 10.5211 3.54713 10.6504 4.1971C10.7796 4.84702 10.7131 5.52067 10.4596 6.13289C10.206 6.74516 9.77646 7.26868 9.22543 7.63686C8.67442 8.00501 8.02661 8.20138 7.36392 8.20138C6.47527 8.20138 5.62293 7.84855 4.99455 7.22018C4.36618 6.59181 4.01313 5.73946 4.01311 4.85081C4.01311 4.1881 4.20969 3.54008 4.57787 2.98905C4.94604 2.43809 5.46939 2.00877 6.08159 1.75517Z" fill="url(#paint2_linear_4979_340)" fill-opacity="0.08"/>
<defs>
<linearGradient id="paint0_linear_4979_340" x1="7.36392" y1="1.49999" x2="7.36392" y2="13.2276" gradientUnits="userSpaceOnUse">
<stop stop-opacity="0"/>
<stop offset="1"/>
</linearGradient>
<linearGradient id="paint1_linear_4979_340" x1="7.36392" y1="1.49999" x2="7.36392" y2="13.2276" gradientUnits="userSpaceOnUse">
<stop stop-opacity="0"/>
<stop offset="1"/>
</linearGradient>
<linearGradient id="paint2_linear_4979_340" x1="7.36392" y1="1.49999" x2="7.36392" y2="13.2276" gradientUnits="userSpaceOnUse">
<stop stop-opacity="0"/>
<stop offset="1"/>
</linearGradient>
</defs>
</svg>
