<svg width="16" height="16" viewBox="0 0 16 16" fill="none" xmlns="http://www.w3.org/2000/svg">
<path d="M12.6846 3.74835L11.3643 5.06867L12.0371 5.74152C12.2758 5.98019 12.2758 6.36613 12.0371 6.60227L11.5953 7.04406C11.8949 7.70676 12.0625 8.44309 12.0625 9.2175C12.0625 12.1349 9.69863 14.4987 6.78125 14.4987C3.86387 14.4987 1.5 12.1374 1.5 9.22003C1.5 6.30266 3.86387 3.93878 6.78125 3.93878C7.55566 3.93878 8.29199 4.10636 8.95469 4.40597L9.39648 3.96417C9.63516 3.72551 10.0211 3.72551 10.2572 3.96417L10.9301 4.63702L12.2504 3.31671L12.6846 3.74835ZM14.1953 3.02472H13.5859C13.4184 3.02472 13.2812 3.16184 13.2812 3.32941C13.2812 3.49699 13.4184 3.63409 13.5859 3.63409H14.1953C14.3629 3.63409 14.5 3.49699 14.5 3.32941C14.5 3.16184 14.3629 3.02472 14.1953 3.02472ZM12.6719 1.50128C12.5043 1.50128 12.3672 1.6384 12.3672 1.80597V2.41534C12.3672 2.58293 12.5043 2.72003 12.6719 2.72003C12.8395 2.72003 12.9766 2.58293 12.9766 2.41534V1.80597C12.9766 1.6384 12.8395 1.50128 12.6719 1.50128ZM13.5326 2.89777L13.9643 2.46613C14.0836 2.34679 14.0836 2.15383 13.9643 2.03449C13.8449 1.91515 13.652 1.91515 13.5326 2.03449L13.101 2.46613C12.9816 2.58546 12.9816 2.77843 13.101 2.89777C13.2229 3.0171 13.4158 3.0171 13.5326 2.89777ZM11.8111 2.89777C11.9305 3.0171 12.1234 3.0171 12.2428 2.89777C12.3621 2.77843 12.3621 2.58546 12.2428 2.46613L11.8111 2.03449C11.6918 1.91515 11.4988 1.91515 11.3795 2.03449C11.2602 2.15383 11.2602 2.34679 11.3795 2.46613L11.8111 2.89777ZM13.5326 3.76105C13.4133 3.64171 13.2203 3.64171 13.101 3.76105C12.9816 3.88039 12.9816 4.07335 13.101 4.19269L13.5326 4.62434C13.652 4.74367 13.8449 4.74367 13.9643 4.62434C14.0836 4.505 14.0836 4.31202 13.9643 4.19269L13.5326 3.76105ZM4.34375 8.40753C4.34375 7.51125 5.07246 6.78253 5.96875 6.78253C6.19219 6.78253 6.375 6.59972 6.375 6.37628C6.375 6.15284 6.19219 5.97003 5.96875 5.97003C4.62559 5.97003 3.53125 7.06437 3.53125 8.40753C3.53125 8.63097 3.71406 8.81378 3.9375 8.81378C4.16094 8.81378 4.34375 8.63097 4.34375 8.40753Z" fill="#F7F8FB" fill-opacity="0.64"/>
<path d="M12.6846 3.74835L11.3643 5.06867L12.0371 5.74152C12.2758 5.98019 12.2758 6.36613 12.0371 6.60227L11.5953 7.04406C11.8949 7.70676 12.0625 8.44309 12.0625 9.2175C12.0625 12.1349 9.69863 14.4987 6.78125 14.4987C3.86387 14.4987 1.5 12.1374 1.5 9.22003C1.5 6.30266 3.86387 3.93878 6.78125 3.93878C7.55566 3.93878 8.29199 4.10636 8.95469 4.40597L9.39648 3.96417C9.63516 3.72551 10.0211 3.72551 10.2572 3.96417L10.9301 4.63702L12.2504 3.31671L12.6846 3.74835ZM14.1953 3.02472H13.5859C13.4184 3.02472 13.2812 3.16184 13.2812 3.32941C13.2812 3.49699 13.4184 3.63409 13.5859 3.63409H14.1953C14.3629 3.63409 14.5 3.49699 14.5 3.32941C14.5 3.16184 14.3629 3.02472 14.1953 3.02472ZM12.6719 1.50128C12.5043 1.50128 12.3672 1.6384 12.3672 1.80597V2.41534C12.3672 2.58293 12.5043 2.72003 12.6719 2.72003C12.8395 2.72003 12.9766 2.58293 12.9766 2.41534V1.80597C12.9766 1.6384 12.8395 1.50128 12.6719 1.50128ZM13.5326 2.89777L13.9643 2.46613C14.0836 2.34679 14.0836 2.15383 13.9643 2.03449C13.8449 1.91515 13.652 1.91515 13.5326 2.03449L13.101 2.46613C12.9816 2.58546 12.9816 2.77843 13.101 2.89777C13.2229 3.0171 13.4158 3.0171 13.5326 2.89777ZM11.8111 2.89777C11.9305 3.0171 12.1234 3.0171 12.2428 2.89777C12.3621 2.77843 12.3621 2.58546 12.2428 2.46613L11.8111 2.03449C11.6918 1.91515 11.4988 1.91515 11.3795 2.03449C11.2602 2.15383 11.2602 2.34679 11.3795 2.46613L11.8111 2.89777ZM13.5326 3.76105C13.4133 3.64171 13.2203 3.64171 13.101 3.76105C12.9816 3.88039 12.9816 4.07335 13.101 4.19269L13.5326 4.62434C13.652 4.74367 13.8449 4.74367 13.9643 4.62434C14.0836 4.505 14.0836 4.31202 13.9643 4.19269L13.5326 3.76105ZM4.34375 8.40753C4.34375 7.51125 5.07246 6.78253 5.96875 6.78253C6.19219 6.78253 6.375 6.59972 6.375 6.37628C6.375 6.15284 6.19219 5.97003 5.96875 5.97003C4.62559 5.97003 3.53125 7.06437 3.53125 8.40753C3.53125 8.63097 3.71406 8.81378 3.9375 8.81378C4.16094 8.81378 4.34375 8.63097 4.34375 8.40753Z" fill="url(#paint0_linear_4979_338)" fill-opacity="0.08"/>
<defs>
<linearGradient id="paint0_linear_4979_338" x1="8" y1="1.50128" x2="8" y2="14.4987" gradientUnits="userSpaceOnUse">
<stop stop-opacity="0"/>
<stop offset="1"/>
</linearGradient>
</defs>
</svg>
