<svg width="16" height="16" viewBox="0 0 16 16" fill="none" xmlns="http://www.w3.org/2000/svg">
<path d="M2.34791 2.35488C2.89147 1.80803 3.62966 1.5 4.40032 1.5H11.5997C12.3703 1.5 13.1085 1.80803 13.6521 2.35488C14.1955 2.90158 14.5 3.64211 14.5 4.41336V9.04876C14.4965 9.40626 14.4126 9.83045 14.2798 10.1622C14.1405 10.4914 13.9013 10.8516 13.6521 11.1072C13.3978 11.358 13.0389 11.5992 12.711 11.7397C12.3803 11.8736 11.9564 11.9585 11.5997 11.9621H10.9003V13.1699H10.898C10.8975 13.3792 10.8445 13.6449 10.7654 13.8147C10.6582 14.0041 10.425 14.2398 10.2362 14.3498L10.2362 14.3498C10.2357 14.3501 10.2352 14.3503 10.2347 14.3506C10.2343 14.3508 10.234 14.3511 10.2336 14.3512L10.2335 14.3511C10.0703 14.4307 9.80612 14.4955 9.62555 14.5H9.62304C9.26029 14.4966 8.91439 14.3498 8.65961 14.093L6.51014 11.9621H4.40032C3.62966 11.9621 2.89147 11.6541 2.34791 11.1072C2.09877 10.8516 1.85953 10.4914 1.72017 10.1622C1.5874 9.83045 1.50352 9.40626 1.5 9.04876V4.41336C1.5 3.64211 1.80449 2.90158 2.34791 2.35488ZM4.40032 2.98102C4.02533 2.98102 3.66481 3.13083 3.39829 3.39896C3.13162 3.66724 2.98102 4.03204 2.98102 4.41336V9.04876C2.97749 9.26194 3.00534 9.40285 3.08965 9.59834C3.16737 9.79641 3.24632 9.91531 3.39829 10.0631C3.66481 10.3313 4.02533 10.4811 4.40032 10.4811H6.81499C7.01026 10.4811 7.19764 10.5582 7.33632 10.6957L9.4193 12.7607V11.2216C9.4193 10.8126 9.75084 10.4811 10.1598 10.4811H11.5997C11.8103 10.4847 11.948 10.4571 12.1413 10.3727C12.3375 10.2948 12.4549 10.2159 12.6017 10.0631C12.7536 9.91531 12.8327 9.79641 12.9104 9.59834C12.9947 9.40285 13.0225 9.26194 13.019 9.04876V4.41336C13.019 4.03204 12.8684 3.66723 12.6017 3.39896C12.3352 3.13083 11.9747 2.98102 11.5997 2.98102H4.40032Z" fill="#F7F8FB" fill-opacity="0.64"/>
<path d="M2.34791 2.35488C2.89147 1.80803 3.62966 1.5 4.40032 1.5H11.5997C12.3703 1.5 13.1085 1.80803 13.6521 2.35488C14.1955 2.90158 14.5 3.64211 14.5 4.41336V9.04876C14.4965 9.40626 14.4126 9.83045 14.2798 10.1622C14.1405 10.4914 13.9013 10.8516 13.6521 11.1072C13.3978 11.358 13.0389 11.5992 12.711 11.7397C12.3803 11.8736 11.9564 11.9585 11.5997 11.9621H10.9003V13.1699H10.898C10.8975 13.3792 10.8445 13.6449 10.7654 13.8147C10.6582 14.0041 10.425 14.2398 10.2362 14.3498L10.2362 14.3498C10.2357 14.3501 10.2352 14.3503 10.2347 14.3506C10.2343 14.3508 10.234 14.3511 10.2336 14.3512L10.2335 14.3511C10.0703 14.4307 9.80612 14.4955 9.62555 14.5H9.62304C9.26029 14.4966 8.91439 14.3498 8.65961 14.093L6.51014 11.9621H4.40032C3.62966 11.9621 2.89147 11.6541 2.34791 11.1072C2.09877 10.8516 1.85953 10.4914 1.72017 10.1622C1.5874 9.83045 1.50352 9.40626 1.5 9.04876V4.41336C1.5 3.64211 1.80449 2.90158 2.34791 2.35488ZM4.40032 2.98102C4.02533 2.98102 3.66481 3.13083 3.39829 3.39896C3.13162 3.66724 2.98102 4.03204 2.98102 4.41336V9.04876C2.97749 9.26194 3.00534 9.40285 3.08965 9.59834C3.16737 9.79641 3.24632 9.91531 3.39829 10.0631C3.66481 10.3313 4.02533 10.4811 4.40032 10.4811H6.81499C7.01026 10.4811 7.19764 10.5582 7.33632 10.6957L9.4193 12.7607V11.2216C9.4193 10.8126 9.75084 10.4811 10.1598 10.4811H11.5997C11.8103 10.4847 11.948 10.4571 12.1413 10.3727C12.3375 10.2948 12.4549 10.2159 12.6017 10.0631C12.7536 9.91531 12.8327 9.79641 12.9104 9.59834C12.9947 9.40285 13.0225 9.26194 13.019 9.04876V4.41336C13.019 4.03204 12.8684 3.66723 12.6017 3.39896C12.3352 3.13083 11.9747 2.98102 11.5997 2.98102H4.40032Z" fill="url(#paint0_linear_4979_127)" fill-opacity="0.08"/>
<defs>
<linearGradient id="paint0_linear_4979_127" x1="8" y1="1.5" x2="8" y2="14.5" gradientUnits="userSpaceOnUse">
<stop stop-opacity="0"/>
<stop offset="1"/>
</linearGradient>
</defs>
</svg>
