<svg width="16" height="16" viewBox="0 0 16 16" fill="none" xmlns="http://www.w3.org/2000/svg">
<path d="M5.26805 11.9796H7.0884L6.91449 11.6929L6.9095 11.6842C6.67838 11.2805 6.76394 10.7496 7.16592 10.4472L7.16888 10.4449L7.51266 10.1888L7.16591 9.93042C6.81245 9.66452 6.66957 9.17844 6.87566 8.75646C6.67994 8.83326 6.46644 8.87553 6.24305 8.87553C5.30217 8.87553 4.5368 8.12577 4.5368 7.2041C4.5368 6.28243 5.30217 5.53267 6.24305 5.53267C7.17599 5.53267 7.93638 6.26984 7.94914 7.18083C8.21123 7.01813 8.54189 6.98517 8.83376 7.09399L8.83707 7.09523L9.29382 7.27001L9.35902 6.83675C9.4311 6.32773 9.88184 6.01022 10.3375 6.01022H10.8128L10.8938 5.94814C10.9864 5.87651 11.0108 5.74757 10.9523 5.64251L9.9773 3.99018C9.9188 3.88512 9.78717 3.84692 9.67992 3.88512L8.46605 4.36267C8.21255 4.17165 7.93955 4.01406 7.64217 3.89467L7.45692 2.62916C7.4423 2.51455 7.33992 2.42859 7.21805 2.42859H5.26805C5.14617 2.42859 5.0438 2.51455 5.02917 2.62916L4.84392 3.89467C4.54655 4.01406 4.27355 4.17643 4.02005 4.36267L2.80617 3.88512C2.69405 3.84214 2.5673 3.88512 2.5088 3.99018L1.5338 5.64251C1.47042 5.74757 1.49967 5.87651 1.5923 5.94814L2.62092 6.7361C2.60142 6.88892 2.5868 7.04651 2.5868 7.2041C2.5868 7.36169 2.60142 7.51928 2.62092 7.6721L1.5923 8.46006C1.49967 8.53169 1.4753 8.66063 1.5338 8.76569L2.5088 10.418C2.5673 10.5231 2.69892 10.5613 2.80617 10.5231L4.02005 10.0455C4.27355 10.2365 4.54655 10.3941 4.84392 10.5135L5.02917 11.779C5.0438 11.8937 5.14617 11.9796 5.26805 11.9796Z" fill="#F7F8FB" fill-opacity="0.64"/>
<path d="M5.26805 11.9796H7.0884L6.91449 11.6929L6.9095 11.6842C6.67838 11.2805 6.76394 10.7496 7.16592 10.4472L7.16888 10.4449L7.51266 10.1888L7.16591 9.93042C6.81245 9.66452 6.66957 9.17844 6.87566 8.75646C6.67994 8.83326 6.46644 8.87553 6.24305 8.87553C5.30217 8.87553 4.5368 8.12577 4.5368 7.2041C4.5368 6.28243 5.30217 5.53267 6.24305 5.53267C7.17599 5.53267 7.93638 6.26984 7.94914 7.18083C8.21123 7.01813 8.54189 6.98517 8.83376 7.09399L8.83707 7.09523L9.29382 7.27001L9.35902 6.83675C9.4311 6.32773 9.88184 6.01022 10.3375 6.01022H10.8128L10.8938 5.94814C10.9864 5.87651 11.0108 5.74757 10.9523 5.64251L9.9773 3.99018C9.9188 3.88512 9.78717 3.84692 9.67992 3.88512L8.46605 4.36267C8.21255 4.17165 7.93955 4.01406 7.64217 3.89467L7.45692 2.62916C7.4423 2.51455 7.33992 2.42859 7.21805 2.42859H5.26805C5.14617 2.42859 5.0438 2.51455 5.02917 2.62916L4.84392 3.89467C4.54655 4.01406 4.27355 4.17643 4.02005 4.36267L2.80617 3.88512C2.69405 3.84214 2.5673 3.88512 2.5088 3.99018L1.5338 5.64251C1.47042 5.74757 1.49967 5.87651 1.5923 5.94814L2.62092 6.7361C2.60142 6.88892 2.5868 7.04651 2.5868 7.2041C2.5868 7.36169 2.60142 7.51928 2.62092 7.6721L1.5923 8.46006C1.49967 8.53169 1.4753 8.66063 1.5338 8.76569L2.5088 10.418C2.5673 10.5231 2.69892 10.5613 2.80617 10.5231L4.02005 10.0455C4.27355 10.2365 4.54655 10.3941 4.84392 10.5135L5.02917 11.779C5.0438 11.8937 5.14617 11.9796 5.26805 11.9796Z" fill="url(#paint0_linear_4979_185)" fill-opacity="0.08"/>
<path fill-rule="evenodd" clip-rule="evenodd" d="M13.7102 10.1888C13.7102 10.3038 13.6995 10.412 13.6853 10.5203L14.4344 11.0784C14.5018 11.1292 14.5196 11.2205 14.477 11.2949L13.767 12.4653C13.7244 12.5397 13.6321 12.5702 13.5504 12.5397L12.6665 12.2015C12.4819 12.3334 12.2831 12.4484 12.0665 12.533L11.9316 13.4294C11.921 13.5106 11.8464 13.5714 11.7577 13.5714H10.3377C10.2489 13.5714 10.1744 13.5106 10.1637 13.4294L10.0288 12.533C9.81226 12.4484 9.61346 12.3368 9.42886 12.2015L8.54491 12.5397C8.46681 12.5668 8.37096 12.5397 8.32836 12.4653L7.61836 11.2949C7.57576 11.2205 7.59351 11.1292 7.66096 11.0784L8.41001 10.5203C8.39581 10.412 8.38516 10.3004 8.38516 10.1888C8.38516 10.0772 8.39581 9.96554 8.41001 9.85729L7.66096 9.29916C7.59351 9.24842 7.57221 9.15708 7.61836 9.08267L8.32836 7.91227C8.37096 7.83785 8.46326 7.80741 8.54491 7.83785L9.42886 8.17611C9.61346 8.04419 9.81226 7.92918 10.0288 7.84461L10.1637 6.94821C10.1744 6.86703 10.2489 6.80614 10.3377 6.80614H11.7577C11.8464 6.80614 11.921 6.86703 11.9316 6.94821L12.0665 7.84461C12.2831 7.92918 12.4819 8.04081 12.6665 8.17611L13.5504 7.83785C13.6285 7.81079 13.7244 7.83785 13.767 7.91227L14.477 9.08267C14.5196 9.15708 14.5018 9.24842 14.4344 9.29916L13.6853 9.85729C13.6995 9.96554 13.7102 10.0738 13.7102 10.1888ZM9.80516 10.1888C9.80516 10.8416 10.3625 11.3727 11.0477 11.3727C11.7328 11.3727 12.2902 10.8416 12.2902 10.1888C12.2902 9.53594 11.7328 9.00486 11.0477 9.00486C10.3625 9.00486 9.80516 9.53594 9.80516 10.1888Z" fill="#F7F8FB" fill-opacity="0.64"/>
<path fill-rule="evenodd" clip-rule="evenodd" d="M13.7102 10.1888C13.7102 10.3038 13.6995 10.412 13.6853 10.5203L14.4344 11.0784C14.5018 11.1292 14.5196 11.2205 14.477 11.2949L13.767 12.4653C13.7244 12.5397 13.6321 12.5702 13.5504 12.5397L12.6665 12.2015C12.4819 12.3334 12.2831 12.4484 12.0665 12.533L11.9316 13.4294C11.921 13.5106 11.8464 13.5714 11.7577 13.5714H10.3377C10.2489 13.5714 10.1744 13.5106 10.1637 13.4294L10.0288 12.533C9.81226 12.4484 9.61346 12.3368 9.42886 12.2015L8.54491 12.5397C8.46681 12.5668 8.37096 12.5397 8.32836 12.4653L7.61836 11.2949C7.57576 11.2205 7.59351 11.1292 7.66096 11.0784L8.41001 10.5203C8.39581 10.412 8.38516 10.3004 8.38516 10.1888C8.38516 10.0772 8.39581 9.96554 8.41001 9.85729L7.66096 9.29916C7.59351 9.24842 7.57221 9.15708 7.61836 9.08267L8.32836 7.91227C8.37096 7.83785 8.46326 7.80741 8.54491 7.83785L9.42886 8.17611C9.61346 8.04419 9.81226 7.92918 10.0288 7.84461L10.1637 6.94821C10.1744 6.86703 10.2489 6.80614 10.3377 6.80614H11.7577C11.8464 6.80614 11.921 6.86703 11.9316 6.94821L12.0665 7.84461C12.2831 7.92918 12.4819 8.04081 12.6665 8.17611L13.5504 7.83785C13.6285 7.81079 13.7244 7.83785 13.767 7.91227L14.477 9.08267C14.5196 9.15708 14.5018 9.24842 14.4344 9.29916L13.6853 9.85729C13.6995 9.96554 13.7102 10.0738 13.7102 10.1888ZM9.80516 10.1888C9.80516 10.8416 10.3625 11.3727 11.0477 11.3727C11.7328 11.3727 12.2902 10.8416 12.2902 10.1888C12.2902 9.53594 11.7328 9.00486 11.0477 9.00486C10.3625 9.00486 9.80516 9.53594 9.80516 10.1888Z" fill="url(#paint1_linear_4979_185)" fill-opacity="0.08"/>
<defs>
<linearGradient id="paint0_linear_4979_185" x1="8" y1="2.42859" x2="8" y2="13.5714" gradientUnits="userSpaceOnUse">
<stop stop-opacity="0"/>
<stop offset="1"/>
</linearGradient>
<linearGradient id="paint1_linear_4979_185" x1="8" y1="2.42859" x2="8" y2="13.5714" gradientUnits="userSpaceOnUse">
<stop stop-opacity="0"/>
<stop offset="1"/>
</linearGradient>
</defs>
</svg>
