<svg width="16" height="16" viewBox="0 0 16 16" fill="none" xmlns="http://www.w3.org/2000/svg">
<path d="M13.7785 14.5H3.66667C2.47283 14.5 1.5 13.6244 1.5 12.5498V4.23027C1.5 3.42484 1.5 2.98215 1.73617 2.56481C1.94417 2.19622 2.2735 1.89979 2.683 1.71257C3.14667 1.5 3.6385 1.5 4.53333 1.5H11.4667C12.3615 1.5 12.8533 1.5 13.317 1.71257C13.7265 1.90174 14.0558 2.19622 14.2638 2.56481C14.5 2.98215 14.5 3.42484 14.5 4.23027V11.251C14.5 11.6098 14.1772 11.9004 13.7785 11.9004V13.2012C14.1772 13.2012 14.5 13.4917 14.5 13.8506C14.5 14.2094 14.1772 14.5 13.7785 14.5ZM2.94517 12.5498C2.94517 12.9086 3.27017 13.1992 3.66667 13.1992H12.3333V11.9004H3.66667C3.268 11.9004 2.94517 12.1929 2.94517 12.5498ZM4.53333 2.79883C3.90717 2.79883 3.49333 2.79883 3.3395 2.86904C3.203 2.93144 3.0925 3.0309 3.02317 3.15377C2.94517 3.29223 2.94517 3.66472 2.94517 4.22832V10.7108C3.1705 10.6386 3.41533 10.5996 3.66667 10.5996H13.0548V4.23027C13.0548 3.66667 13.0548 3.29418 12.9768 3.15572C12.9075 3.03285 12.797 2.93339 12.6605 2.87099C12.5067 2.80078 12.0928 2.80078 11.4667 2.80078H4.53333V2.79883ZM10.1667 8H5.83333C5.43467 8 5.11183 7.70942 5.11183 7.35058C5.11183 6.99175 5.43467 6.70117 5.83333 6.70117H10.1667C10.5653 6.70117 10.8882 6.99175 10.8882 7.35058C10.8882 7.70942 10.5653 8 10.1667 8ZM10.1667 5.40039H5.83333C5.43467 5.40039 5.11183 5.10981 5.11183 4.75098C5.11183 4.39214 5.43467 4.10156 5.83333 4.10156H10.1667C10.5653 4.10156 10.8882 4.39214 10.8882 4.75098C10.8882 5.10786 10.5653 5.40039 10.1667 5.40039Z" fill="#F7F8FB" fill-opacity="0.64"/>
<path d="M13.7785 14.5H3.66667C2.47283 14.5 1.5 13.6244 1.5 12.5498V4.23027C1.5 3.42484 1.5 2.98215 1.73617 2.56481C1.94417 2.19622 2.2735 1.89979 2.683 1.71257C3.14667 1.5 3.6385 1.5 4.53333 1.5H11.4667C12.3615 1.5 12.8533 1.5 13.317 1.71257C13.7265 1.90174 14.0558 2.19622 14.2638 2.56481C14.5 2.98215 14.5 3.42484 14.5 4.23027V11.251C14.5 11.6098 14.1772 11.9004 13.7785 11.9004V13.2012C14.1772 13.2012 14.5 13.4917 14.5 13.8506C14.5 14.2094 14.1772 14.5 13.7785 14.5ZM2.94517 12.5498C2.94517 12.9086 3.27017 13.1992 3.66667 13.1992H12.3333V11.9004H3.66667C3.268 11.9004 2.94517 12.1929 2.94517 12.5498ZM4.53333 2.79883C3.90717 2.79883 3.49333 2.79883 3.3395 2.86904C3.203 2.93144 3.0925 3.0309 3.02317 3.15377C2.94517 3.29223 2.94517 3.66472 2.94517 4.22832V10.7108C3.1705 10.6386 3.41533 10.5996 3.66667 10.5996H13.0548V4.23027C13.0548 3.66667 13.0548 3.29418 12.9768 3.15572C12.9075 3.03285 12.797 2.93339 12.6605 2.87099C12.5067 2.80078 12.0928 2.80078 11.4667 2.80078H4.53333V2.79883ZM10.1667 8H5.83333C5.43467 8 5.11183 7.70942 5.11183 7.35058C5.11183 6.99175 5.43467 6.70117 5.83333 6.70117H10.1667C10.5653 6.70117 10.8882 6.99175 10.8882 7.35058C10.8882 7.70942 10.5653 8 10.1667 8ZM10.1667 5.40039H5.83333C5.43467 5.40039 5.11183 5.10981 5.11183 4.75098C5.11183 4.39214 5.43467 4.10156 5.83333 4.10156H10.1667C10.5653 4.10156 10.8882 4.39214 10.8882 4.75098C10.8882 5.10786 10.5653 5.40039 10.1667 5.40039Z" fill="url(#paint0_linear_4979_137)" fill-opacity="0.08"/>
<defs>
<linearGradient id="paint0_linear_4979_137" x1="8" y1="1.5" x2="8" y2="14.5" gradientUnits="userSpaceOnUse">
<stop stop-opacity="0"/>
<stop offset="1"/>
</linearGradient>
</defs>
</svg>
