<svg width="16" height="16" viewBox="0 0 16 16" fill="none" xmlns="http://www.w3.org/2000/svg">
<path d="M7.56388 9.03207C7.56388 7.71617 6.41204 6.64562 4.9962 6.64562C3.58038 6.64562 2.42857 7.71617 2.42857 9.03207C2.42857 9.41769 2.52757 9.78218 2.70309 10.1048L4.9962 14.5L7.28971 10.1042C7.46497 9.78163 7.56388 9.41739 7.56388 9.03207ZM4.9962 10.3527C4.21271 10.3527 3.57526 9.76026 3.57526 9.03207C3.57526 8.30387 4.21271 7.71141 4.9962 7.71141C5.77971 7.71141 6.41713 8.30387 6.41713 9.03207C6.41713 9.76026 5.77971 10.3527 4.9962 10.3527Z" fill="#F7F8FB" fill-opacity="0.64"/>
<path d="M7.56388 9.03207C7.56388 7.71617 6.41204 6.64562 4.9962 6.64562C3.58038 6.64562 2.42857 7.71617 2.42857 9.03207C2.42857 9.41769 2.52757 9.78218 2.70309 10.1048L4.9962 14.5L7.28971 10.1042C7.46497 9.78163 7.56388 9.41739 7.56388 9.03207ZM4.9962 10.3527C4.21271 10.3527 3.57526 9.76026 3.57526 9.03207C3.57526 8.30387 4.21271 7.71141 4.9962 7.71141C5.77971 7.71141 6.41713 8.30387 6.41713 9.03207C6.41713 9.76026 5.77971 10.3527 4.9962 10.3527Z" fill="url(#paint0_linear_4979_89)" fill-opacity="0.08"/>
<path d="M12.2712 1.5C11.5543 1.5 10.971 2.04209 10.971 2.70842C10.971 2.90369 11.0212 3.08824 11.1101 3.25167L12.2712 5.47727L13.4326 3.25132C13.5213 3.088 13.5714 2.90355 13.5714 2.70844C13.5714 2.04209 12.9881 1.5 12.2712 1.5ZM12.2712 3.37717C11.8745 3.37717 11.5517 3.07718 11.5517 2.70842C11.5517 2.33968 11.8745 2.03966 12.2712 2.03966C12.6679 2.03966 12.9907 2.33968 12.9907 2.70842C12.9907 3.07718 12.6679 3.37717 12.2712 3.37717Z" fill="#F7F8FB" fill-opacity="0.64"/>
<path d="M12.2712 1.5C11.5543 1.5 10.971 2.04209 10.971 2.70842C10.971 2.90369 11.0212 3.08824 11.1101 3.25167L12.2712 5.47727L13.4326 3.25132C13.5213 3.088 13.5714 2.90355 13.5714 2.70844C13.5714 2.04209 12.9881 1.5 12.2712 1.5ZM12.2712 3.37717C11.8745 3.37717 11.5517 3.07718 11.5517 2.70842C11.5517 2.33968 11.8745 2.03966 12.2712 2.03966C12.6679 2.03966 12.9907 2.33968 12.9907 2.70842C12.9907 3.07718 12.6679 3.37717 12.2712 3.37717Z" fill="url(#paint1_linear_4979_89)" fill-opacity="0.08"/>
<path d="M11.1392 9.33941C11.0865 9.10884 11.0179 8.88289 10.9316 8.66105C10.816 8.36382 10.6772 8.07335 10.571 7.77273C10.3724 7.21081 10.715 6.74186 10.7794 6.65662C10.8922 6.50737 11.0241 6.37039 11.1633 6.24211C11.4313 5.99517 11.7269 5.77441 12.0361 5.57111C11.9978 5.51594 11.9606 5.46019 11.9253 5.4034C11.4806 5.56545 9.19346 6.30839 9.24923 7.94969C9.26041 8.27871 9.39718 8.59185 9.48148 8.91078C9.52208 9.06447 9.5573 9.21951 9.57884 9.37658C9.58813 9.4473 9.59383 9.51842 9.60006 9.58949L9.59983 9.58828C9.60003 9.59033 9.60571 9.81352 9.59505 9.91021C9.56167 10.2129 9.51358 10.5187 9.37628 10.7964C9.24859 11.0546 9.05593 11.2791 8.81762 11.4566C8.27285 11.8622 7.55104 12.0244 6.86996 12.0896C6.83754 12.0927 6.80511 12.0954 6.77268 12.0981L5.55661 14.4288C6.15663 14.3941 6.7551 14.3178 7.339 14.1842C8.02614 14.027 8.69578 13.7896 9.2958 13.4376C9.8953 13.086 10.4108 12.6104 10.7541 12.0313C11.1131 11.4255 11.2569 10.7317 11.2263 10.0442C11.2159 9.8093 11.1919 9.56991 11.1392 9.33941Z" fill="#F7F8FB" fill-opacity="0.64"/>
<path d="M11.1392 9.33941C11.0865 9.10884 11.0179 8.88289 10.9316 8.66105C10.816 8.36382 10.6772 8.07335 10.571 7.77273C10.3724 7.21081 10.715 6.74186 10.7794 6.65662C10.8922 6.50737 11.0241 6.37039 11.1633 6.24211C11.4313 5.99517 11.7269 5.77441 12.0361 5.57111C11.9978 5.51594 11.9606 5.46019 11.9253 5.4034C11.4806 5.56545 9.19346 6.30839 9.24923 7.94969C9.26041 8.27871 9.39718 8.59185 9.48148 8.91078C9.52208 9.06447 9.5573 9.21951 9.57884 9.37658C9.58813 9.4473 9.59383 9.51842 9.60006 9.58949L9.59983 9.58828C9.60003 9.59033 9.60571 9.81352 9.59505 9.91021C9.56167 10.2129 9.51358 10.5187 9.37628 10.7964C9.24859 11.0546 9.05593 11.2791 8.81762 11.4566C8.27285 11.8622 7.55104 12.0244 6.86996 12.0896C6.83754 12.0927 6.80511 12.0954 6.77268 12.0981L5.55661 14.4288C6.15663 14.3941 6.7551 14.3178 7.339 14.1842C8.02614 14.027 8.69578 13.7896 9.2958 13.4376C9.8953 13.086 10.4108 12.6104 10.7541 12.0313C11.1131 11.4255 11.2569 10.7317 11.2263 10.0442C11.2159 9.8093 11.1919 9.56991 11.1392 9.33941Z" fill="url(#paint2_linear_4979_89)" fill-opacity="0.08"/>
<defs>
<linearGradient id="paint0_linear_4979_89" x1="8" y1="1.5" x2="8" y2="14.5" gradientUnits="userSpaceOnUse">
<stop stop-opacity="0"/>
<stop offset="1"/>
</linearGradient>
<linearGradient id="paint1_linear_4979_89" x1="8" y1="1.5" x2="8" y2="14.5" gradientUnits="userSpaceOnUse">
<stop stop-opacity="0"/>
<stop offset="1"/>
</linearGradient>
<linearGradient id="paint2_linear_4979_89" x1="8" y1="1.5" x2="8" y2="14.5" gradientUnits="userSpaceOnUse">
<stop stop-opacity="0"/>
<stop offset="1"/>
</linearGradient>
</defs>
</svg>
