<svg width="16" height="16" viewBox="0 0 16 16" fill="none" xmlns="http://www.w3.org/2000/svg">
<path d="M14.4713 9.82348C14.4558 9.71478 14.4339 9.60832 14.4071 9.50427L14.4257 9.50185C14.4257 9.50185 13.3523 6.65607 13.1288 5.65124C12.9417 4.89076 12.395 4.29423 11.7003 4.02075C11.6826 3.9574 11.668 3.9003 11.657 3.85155C11.5056 3.23519 10.9087 2.82185 10.2668 2.91273C9.62505 3.00363 9.16627 3.56654 9.19188 4.20072C9.19704 4.2827 9.20372 4.38815 9.21131 4.508C8.7329 4.96404 8.45114 5.61401 8.47927 6.30972C8.48046 6.32914 8.48171 6.34897 8.4829 6.36961H7.51699C7.51818 6.34897 7.5194 6.32914 7.52075 6.30972C7.54878 5.61399 7.2672 4.96404 6.78858 4.508C6.79618 4.38818 6.80288 4.2827 6.80803 4.20072C6.83363 3.56654 6.37494 3.00363 5.73307 2.91273C5.09129 2.82183 4.49428 3.23519 4.34288 3.85155C4.33196 3.90032 4.31729 3.9574 4.29956 4.02075C3.60487 4.29421 3.05824 4.89076 2.87108 5.65124C2.64762 6.65607 1.57421 9.50185 1.57421 9.50185L1.59282 9.50427C1.56601 9.60832 1.54414 9.71478 1.52876 9.82348C1.30621 11.3944 2.39956 12.8486 3.97053 13.0711C5.5415 13.2935 6.99557 12.2003 7.21802 10.6293C7.2334 10.5204 7.24188 10.4123 7.24503 10.3048L7.26364 10.3077C7.26364 10.3077 7.26859 10.2308 7.2773 10.0978H8.72259C8.7313 10.2308 8.73625 10.3077 8.73625 10.3077L8.75489 10.3048C8.75803 10.4123 8.76652 10.5204 8.7819 10.6293C9.00438 12.2003 10.4584 13.2935 12.0294 13.0711C13.6006 12.8486 14.6937 11.3944 14.4713 9.82348ZM6.2699 10.4951C6.12142 11.5422 5.15216 12.2713 4.10474 12.123C3.05743 11.9746 2.32861 11.005 2.477 9.9579C2.62528 8.91058 3.59464 8.18167 4.64196 8.33003C5.68935 8.47843 6.41816 9.4476 6.2699 10.4951ZM11.8952 12.123C10.8478 12.2713 9.8785 11.5422 9.73001 10.4951C9.58176 9.4476 10.3105 8.47843 11.358 8.33003C12.4054 8.18167 13.3746 8.91056 13.5229 9.9579C13.6713 11.005 12.9425 11.9746 11.8952 12.123Z" fill="#F7F8FB" fill-opacity="0.64"/>
<path d="M14.4713 9.82348C14.4558 9.71478 14.4339 9.60832 14.4071 9.50427L14.4257 9.50185C14.4257 9.50185 13.3523 6.65607 13.1288 5.65124C12.9417 4.89076 12.395 4.29423 11.7003 4.02075C11.6826 3.9574 11.668 3.9003 11.657 3.85155C11.5056 3.23519 10.9087 2.82185 10.2668 2.91273C9.62505 3.00363 9.16627 3.56654 9.19188 4.20072C9.19704 4.2827 9.20372 4.38815 9.21131 4.508C8.7329 4.96404 8.45114 5.61401 8.47927 6.30972C8.48046 6.32914 8.48171 6.34897 8.4829 6.36961H7.51699C7.51818 6.34897 7.5194 6.32914 7.52075 6.30972C7.54878 5.61399 7.2672 4.96404 6.78858 4.508C6.79618 4.38818 6.80288 4.2827 6.80803 4.20072C6.83363 3.56654 6.37494 3.00363 5.73307 2.91273C5.09129 2.82183 4.49428 3.23519 4.34288 3.85155C4.33196 3.90032 4.31729 3.9574 4.29956 4.02075C3.60487 4.29421 3.05824 4.89076 2.87108 5.65124C2.64762 6.65607 1.57421 9.50185 1.57421 9.50185L1.59282 9.50427C1.56601 9.60832 1.54414 9.71478 1.52876 9.82348C1.30621 11.3944 2.39956 12.8486 3.97053 13.0711C5.5415 13.2935 6.99557 12.2003 7.21802 10.6293C7.2334 10.5204 7.24188 10.4123 7.24503 10.3048L7.26364 10.3077C7.26364 10.3077 7.26859 10.2308 7.2773 10.0978H8.72259C8.7313 10.2308 8.73625 10.3077 8.73625 10.3077L8.75489 10.3048C8.75803 10.4123 8.76652 10.5204 8.7819 10.6293C9.00438 12.2003 10.4584 13.2935 12.0294 13.0711C13.6006 12.8486 14.6937 11.3944 14.4713 9.82348ZM6.2699 10.4951C6.12142 11.5422 5.15216 12.2713 4.10474 12.123C3.05743 11.9746 2.32861 11.005 2.477 9.9579C2.62528 8.91058 3.59464 8.18167 4.64196 8.33003C5.68935 8.47843 6.41816 9.4476 6.2699 10.4951ZM11.8952 12.123C10.8478 12.2713 9.8785 11.5422 9.73001 10.4951C9.58176 9.4476 10.3105 8.47843 11.358 8.33003C12.4054 8.18167 13.3746 8.91056 13.5229 9.9579C13.6713 11.005 12.9425 11.9746 11.8952 12.123Z" fill="url(#paint0_linear_4979_324)" fill-opacity="0.08"/>
<defs>
<linearGradient id="paint0_linear_4979_324" x1="8" y1="2.90021" x2="8" y2="13.0998" gradientUnits="userSpaceOnUse">
<stop stop-opacity="0"/>
<stop offset="1"/>
</linearGradient>
</defs>
</svg>
