<svg width="16" height="16" viewBox="0 0 16 16" fill="none" xmlns="http://www.w3.org/2000/svg">
<path d="M8.61013 6.57449C8.71226 6.30637 9.14493 6.30637 9.24706 6.57449L9.84592 8.14831C9.97774 8.49428 10.1998 8.80862 10.4946 9.06642C10.7894 9.32423 11.1487 9.5184 11.5441 9.63357L13.3416 10.1576C13.648 10.247 13.648 10.6256 13.3416 10.715L11.5432 11.2391C11.1478 11.3544 10.7886 11.5488 10.494 11.8067C10.1994 12.0647 9.97752 12.3791 9.84592 12.7251L9.24706 14.2982C9.22504 14.3569 9.18239 14.408 9.1252 14.4442C9.06802 14.4805 8.99921 14.5 8.92859 14.5C8.85798 14.5 8.78917 14.4805 8.73198 14.4442C8.67479 14.408 8.63215 14.3569 8.61013 14.2982L8.01126 12.7243C7.87954 12.3785 7.65759 12.0642 7.363 11.8064C7.0684 11.5486 6.70926 11.3543 6.31402 11.2391L4.51557 10.715C4.44847 10.6957 4.39005 10.6584 4.34863 10.6084C4.30721 10.5583 4.28491 10.4981 4.28491 10.4363C4.28491 10.3745 4.30721 10.3143 4.34863 10.2643C4.39005 10.2142 4.44847 10.1769 4.51557 10.1576L6.31402 9.63357C6.70926 9.5183 7.0684 9.32407 7.363 9.06627C7.65759 8.80847 7.87954 8.49419 8.01126 8.14831L8.61013 6.57449ZM5.02344 2.43154C5.03675 2.39635 5.0624 2.36573 5.09674 2.34403C5.13107 2.32233 5.17235 2.31065 5.2147 2.31065C5.25706 2.31065 5.29834 2.32233 5.33267 2.34403C5.36701 2.36573 5.39266 2.39635 5.40597 2.43154L5.76529 3.37567C5.92591 3.79654 6.30287 4.12642 6.78382 4.26698L7.86271 4.58142C7.90292 4.59307 7.9379 4.61552 7.9627 4.64556C7.9875 4.67561 8.00085 4.71173 8.00085 4.7488C8.00085 4.78586 7.9875 4.82198 7.9627 4.85203C7.9379 4.88208 7.90292 4.90452 7.86271 4.91617L6.78382 5.23061C6.54662 5.29977 6.33109 5.41632 6.15429 5.57103C5.9775 5.72574 5.84432 5.91435 5.76529 6.12193L5.40597 7.06606C5.39266 7.10124 5.36701 7.13186 5.33267 7.15356C5.29834 7.17527 5.25706 7.18695 5.2147 7.18695C5.17235 7.18695 5.13107 7.17527 5.09674 7.15356C5.0624 7.13186 5.03675 7.10124 5.02344 7.06606L4.66412 6.12193C4.58509 5.91435 4.45191 5.72574 4.27512 5.57103C4.09832 5.41632 3.88279 5.29977 3.64559 5.23061L2.5667 4.91617C2.52649 4.90452 2.49151 4.88208 2.46671 4.85203C2.44191 4.82198 2.42856 4.78586 2.42856 4.7488C2.42856 4.71173 2.44191 4.67561 2.46671 4.64556C2.49151 4.61552 2.52649 4.59307 2.5667 4.58142L3.64559 4.26698C3.88279 4.19782 4.09832 4.08127 4.27512 3.92656C4.45191 3.77186 4.58509 3.58324 4.66412 3.37567L5.02344 2.43154ZM11.5868 1.57922C11.596 1.55609 11.6131 1.53603 11.6359 1.52183C11.6587 1.50763 11.686 1.5 11.714 1.5C11.742 1.5 11.7693 1.50763 11.7921 1.52183C11.8149 1.53603 11.832 1.55609 11.8412 1.57922L12.0808 2.2081C12.1875 2.48923 12.4391 2.70941 12.7604 2.80285L13.479 3.01248C13.5055 3.0205 13.5284 3.03553 13.5446 3.05548C13.5608 3.07543 13.5696 3.0993 13.5696 3.12379C13.5696 3.14828 13.5608 3.17215 13.5446 3.1921C13.5284 3.21205 13.5055 3.22708 13.479 3.2351L12.7604 3.44473C12.6021 3.49082 12.4582 3.56857 12.3402 3.67181C12.2223 3.77505 12.1334 3.90094 12.0808 4.03948L11.8412 4.66836C11.832 4.69149 11.8149 4.71156 11.7921 4.72575C11.7693 4.73995 11.742 4.74758 11.714 4.74758C11.686 4.74758 11.6587 4.73995 11.6359 4.72575C11.6131 4.71156 11.596 4.69149 11.5868 4.66836L11.3473 4.03948C11.2946 3.90094 11.2057 3.77505 11.0878 3.67181C10.9698 3.56857 10.8259 3.49082 10.6676 3.44473L9.94991 3.2351C9.92347 3.22708 9.90055 3.21205 9.88433 3.1921C9.8681 3.17215 9.85938 3.14828 9.85938 3.12379C9.85938 3.0993 9.8681 3.07543 9.88433 3.05548C9.90055 3.03553 9.92347 3.0205 9.94991 3.01248L10.6685 2.80285C10.9898 2.70941 11.2414 2.48923 11.3482 2.2081L11.5868 1.58003V1.57922Z" fill="#F7F8FB" fill-opacity="0.64"/>
<path d="M8.61013 6.57449C8.71226 6.30637 9.14493 6.30637 9.24706 6.57449L9.84592 8.14831C9.97774 8.49428 10.1998 8.80862 10.4946 9.06642C10.7894 9.32423 11.1487 9.5184 11.5441 9.63357L13.3416 10.1576C13.648 10.247 13.648 10.6256 13.3416 10.715L11.5432 11.2391C11.1478 11.3544 10.7886 11.5488 10.494 11.8067C10.1994 12.0647 9.97752 12.3791 9.84592 12.7251L9.24706 14.2982C9.22504 14.3569 9.18239 14.408 9.1252 14.4442C9.06802 14.4805 8.99921 14.5 8.92859 14.5C8.85798 14.5 8.78917 14.4805 8.73198 14.4442C8.67479 14.408 8.63215 14.3569 8.61013 14.2982L8.01126 12.7243C7.87954 12.3785 7.65759 12.0642 7.363 11.8064C7.0684 11.5486 6.70926 11.3543 6.31402 11.2391L4.51557 10.715C4.44847 10.6957 4.39005 10.6584 4.34863 10.6084C4.30721 10.5583 4.28491 10.4981 4.28491 10.4363C4.28491 10.3745 4.30721 10.3143 4.34863 10.2643C4.39005 10.2142 4.44847 10.1769 4.51557 10.1576L6.31402 9.63357C6.70926 9.5183 7.0684 9.32407 7.363 9.06627C7.65759 8.80847 7.87954 8.49419 8.01126 8.14831L8.61013 6.57449ZM5.02344 2.43154C5.03675 2.39635 5.0624 2.36573 5.09674 2.34403C5.13107 2.32233 5.17235 2.31065 5.2147 2.31065C5.25706 2.31065 5.29834 2.32233 5.33267 2.34403C5.36701 2.36573 5.39266 2.39635 5.40597 2.43154L5.76529 3.37567C5.92591 3.79654 6.30287 4.12642 6.78382 4.26698L7.86271 4.58142C7.90292 4.59307 7.9379 4.61552 7.9627 4.64556C7.9875 4.67561 8.00085 4.71173 8.00085 4.7488C8.00085 4.78586 7.9875 4.82198 7.9627 4.85203C7.9379 4.88208 7.90292 4.90452 7.86271 4.91617L6.78382 5.23061C6.54662 5.29977 6.33109 5.41632 6.15429 5.57103C5.9775 5.72574 5.84432 5.91435 5.76529 6.12193L5.40597 7.06606C5.39266 7.10124 5.36701 7.13186 5.33267 7.15356C5.29834 7.17527 5.25706 7.18695 5.2147 7.18695C5.17235 7.18695 5.13107 7.17527 5.09674 7.15356C5.0624 7.13186 5.03675 7.10124 5.02344 7.06606L4.66412 6.12193C4.58509 5.91435 4.45191 5.72574 4.27512 5.57103C4.09832 5.41632 3.88279 5.29977 3.64559 5.23061L2.5667 4.91617C2.52649 4.90452 2.49151 4.88208 2.46671 4.85203C2.44191 4.82198 2.42856 4.78586 2.42856 4.7488C2.42856 4.71173 2.44191 4.67561 2.46671 4.64556C2.49151 4.61552 2.52649 4.59307 2.5667 4.58142L3.64559 4.26698C3.88279 4.19782 4.09832 4.08127 4.27512 3.92656C4.45191 3.77186 4.58509 3.58324 4.66412 3.37567L5.02344 2.43154ZM11.5868 1.57922C11.596 1.55609 11.6131 1.53603 11.6359 1.52183C11.6587 1.50763 11.686 1.5 11.714 1.5C11.742 1.5 11.7693 1.50763 11.7921 1.52183C11.8149 1.53603 11.832 1.55609 11.8412 1.57922L12.0808 2.2081C12.1875 2.48923 12.4391 2.70941 12.7604 2.80285L13.479 3.01248C13.5055 3.0205 13.5284 3.03553 13.5446 3.05548C13.5608 3.07543 13.5696 3.0993 13.5696 3.12379C13.5696 3.14828 13.5608 3.17215 13.5446 3.1921C13.5284 3.21205 13.5055 3.22708 13.479 3.2351L12.7604 3.44473C12.6021 3.49082 12.4582 3.56857 12.3402 3.67181C12.2223 3.77505 12.1334 3.90094 12.0808 4.03948L11.8412 4.66836C11.832 4.69149 11.8149 4.71156 11.7921 4.72575C11.7693 4.73995 11.742 4.74758 11.714 4.74758C11.686 4.74758 11.6587 4.73995 11.6359 4.72575C11.6131 4.71156 11.596 4.69149 11.5868 4.66836L11.3473 4.03948C11.2946 3.90094 11.2057 3.77505 11.0878 3.67181C10.9698 3.56857 10.8259 3.49082 10.6676 3.44473L9.94991 3.2351C9.92347 3.22708 9.90055 3.21205 9.88433 3.1921C9.8681 3.17215 9.85938 3.14828 9.85938 3.12379C9.85938 3.0993 9.8681 3.07543 9.88433 3.05548C9.90055 3.03553 9.92347 3.0205 9.94991 3.01248L10.6685 2.80285C10.9898 2.70941 11.2414 2.48923 11.3482 2.2081L11.5868 1.58003V1.57922Z" fill="url(#paint0_linear_4979_79)" fill-opacity="0.08"/>
<defs>
<linearGradient id="paint0_linear_4979_79" x1="7.99999" y1="2.92825" x2="7.99999" y2="13.0717" gradientUnits="userSpaceOnUse">
<stop stop-opacity="0"/>
<stop offset="1"/>
</linearGradient>
</defs>
</svg>
