<svg width="16" height="16" viewBox="0 0 16 16" fill="none" xmlns="http://www.w3.org/2000/svg">
<path d="M5.49058 6.84474C5.75452 6.57995 6.18301 6.57953 6.4478 6.84347L8.00016 8.39711L9.55125 6.84474C9.81604 6.57995 10.245 6.57995 10.5097 6.84474C10.7745 7.10953 10.7745 7.53844 10.5097 7.80323L8.95696 9.35433L10.5093 10.9054C10.7741 11.1702 10.7741 11.5991 10.5093 11.8639C10.2445 12.1287 9.81562 12.1287 9.55083 11.8639L8.00016 10.3111L6.44907 11.8635C6.18428 12.1283 5.75537 12.1283 5.49058 11.8635C5.22579 11.5987 5.22579 11.1698 5.49058 10.905L7.04294 9.3539L5.49058 7.80281C5.22579 7.53887 5.22536 7.11038 5.48931 6.84559L5.49058 6.84474Z" fill="#F7F8FB" fill-opacity="0.64"/>
<path d="M5.49058 6.84474C5.75452 6.57995 6.18301 6.57953 6.4478 6.84347L8.00016 8.39711L9.55125 6.84474C9.81604 6.57995 10.245 6.57995 10.5097 6.84474C10.7745 7.10953 10.7745 7.53844 10.5097 7.80323L8.95696 9.35433L10.5093 10.9054C10.7741 11.1702 10.7741 11.5991 10.5093 11.8639C10.2445 12.1287 9.81562 12.1287 9.55083 11.8639L8.00016 10.3111L6.44907 11.8635C6.18428 12.1283 5.75537 12.1283 5.49058 11.8635C5.22579 11.5987 5.22579 11.1698 5.49058 10.905L7.04294 9.3539L5.49058 7.80281C5.22579 7.53887 5.22536 7.11038 5.48931 6.84559L5.49058 6.84474Z" fill="url(#paint0_linear_4979_81)" fill-opacity="0.08"/>
<path d="M4.34375 1.5C4.5682 1.5 4.75 1.6818 4.75 1.90625V2.3125H11.25V1.90625C11.25 1.6818 11.4318 1.5 11.6562 1.5C11.8807 1.5 12.0625 1.6818 12.0625 1.90625V2.3125H12.875C13.7726 2.3125 14.5 3.03994 14.5 3.9375V12.875C14.5 13.7726 13.7726 14.5 12.875 14.5H3.125C2.22744 14.5 1.5 13.7726 1.5 12.875V3.9375C1.5 3.03994 2.22744 2.3125 3.125 2.3125H3.9375V1.90625C3.9375 1.6818 4.1193 1.5 4.34375 1.5ZM2.3125 4.75V12.875C2.3125 13.3237 2.67635 13.6875 3.125 13.6875H12.875C13.3237 13.6875 13.6875 13.3237 13.6875 12.875V4.75H2.3125Z" fill="#F7F8FB" fill-opacity="0.64"/>
<path d="M4.34375 1.5C4.5682 1.5 4.75 1.6818 4.75 1.90625V2.3125H11.25V1.90625C11.25 1.6818 11.4318 1.5 11.6562 1.5C11.8807 1.5 12.0625 1.6818 12.0625 1.90625V2.3125H12.875C13.7726 2.3125 14.5 3.03994 14.5 3.9375V12.875C14.5 13.7726 13.7726 14.5 12.875 14.5H3.125C2.22744 14.5 1.5 13.7726 1.5 12.875V3.9375C1.5 3.03994 2.22744 2.3125 3.125 2.3125H3.9375V1.90625C3.9375 1.6818 4.1193 1.5 4.34375 1.5ZM2.3125 4.75V12.875C2.3125 13.3237 2.67635 13.6875 3.125 13.6875H12.875C13.3237 13.6875 13.6875 13.3237 13.6875 12.875V4.75H2.3125Z" fill="url(#paint1_linear_4979_81)" fill-opacity="0.08"/>
<defs>
<linearGradient id="paint0_linear_4979_81" x1="8" y1="1.5" x2="8" y2="14.5" gradientUnits="userSpaceOnUse">
<stop stop-opacity="0"/>
<stop offset="1"/>
</linearGradient>
<linearGradient id="paint1_linear_4979_81" x1="8" y1="1.5" x2="8" y2="14.5" gradientUnits="userSpaceOnUse">
<stop stop-opacity="0"/>
<stop offset="1"/>
</linearGradient>
</defs>
</svg>
