<svg width="16" height="16" viewBox="0 0 16 16" fill="none" xmlns="http://www.w3.org/2000/svg">
<path d="M11.2257 11.1729H8.49238V11.8724H11.2257V11.1729Z" fill="#F7F8FB" fill-opacity="0.64"/>
<path d="M11.2257 11.1729H8.49238V11.8724H11.2257V11.1729Z" fill="url(#paint0_linear_4979_153)" fill-opacity="0.08"/>
<path fill-rule="evenodd" clip-rule="evenodd" d="M14.2893 9.06491L13.208 3.04473C13.1285 2.86278 12.9912 2.70681 12.8137 2.59696C12.6362 2.48712 12.4267 2.42847 12.2124 2.42859H3.78742C3.34865 2.42859 2.95431 2.67225 2.79185 3.04473L1.71055 9.06491C1.51068 9.52221 1.45161 10.0208 1.53976 10.5066L1.94938 12.7522C1.99097 12.9811 2.12007 13.1891 2.3137 13.3391C2.50733 13.4891 2.75291 13.5714 3.00675 13.5714H12.9924C13.5165 13.5714 13.9637 13.225 14.0497 12.7522L14.4594 10.5066C14.5488 10.0209 14.49 9.52203 14.2893 9.06491ZM13.4099 12.3521C13.3857 12.486 13.3102 12.6077 13.1968 12.6955C13.0835 12.7832 12.9398 12.8313 12.7913 12.8311H3.20855C3.06003 12.8313 2.91628 12.7832 2.80297 12.6955C2.68966 12.6077 2.61416 12.486 2.58995 12.3521L2.33655 11.4893C2.32139 11.4072 2.32603 11.323 2.35015 11.2426C2.37427 11.1623 2.41729 11.0878 2.47619 11.0242C2.5351 10.9606 2.60847 10.9096 2.6912 10.8746C2.77392 10.8397 2.864 10.8216 2.95514 10.8218H13.0454C13.4328 10.8218 13.7278 11.1397 13.664 11.4893L13.4099 12.3521ZM7.90655 5.81711C7.93968 5.84396 7.97527 5.86896 8.01086 5.89304C8.33809 6.11535 8.7628 6.23836 9.2031 6.23836C9.6434 6.23836 10.0681 6.11535 10.3953 5.89304C10.4323 5.86917 10.4675 5.84381 10.5009 5.81709C10.534 5.79025 10.5672 5.76338 10.5978 5.73468C10.8103 5.53612 10.9439 5.29625 10.9833 5.04279C11.0226 4.78933 10.9662 4.53264 10.8203 4.30239C10.6745 4.07214 10.4453 3.87773 10.1592 3.74163C9.87317 3.60554 9.5419 3.53332 9.20372 3.53332C8.86554 3.53332 8.53426 3.60554 8.24818 3.74163C7.96211 3.87773 7.73291 4.07214 7.5871 4.30239C7.44128 4.53264 7.38479 4.78933 7.42417 5.04279C7.46354 5.29625 7.59717 5.53612 7.8096 5.73468C7.84028 5.76154 7.87341 5.79025 7.90655 5.81711ZM12.0828 8.48396C12.1198 8.48436 12.1565 8.47878 12.1903 8.4676C12.2242 8.45642 12.2545 8.4399 12.2792 8.41914C12.2992 8.40229 12.3142 8.38244 12.3233 8.36089C12.3324 8.33935 12.3354 8.31659 12.332 8.29412C12.2671 7.91345 12.0817 7.0551 11.7914 6.73996C11.5011 6.42482 11.1144 6.16709 10.6642 5.98859C10.4726 6.13363 10.245 6.24871 9.99443 6.32723C9.74383 6.40576 9.47514 6.44618 9.20379 6.44618C8.93244 6.44618 8.66376 6.40576 8.41315 6.32723C8.16255 6.24871 7.93495 6.13363 7.74341 5.98859C7.29315 6.16709 6.90651 6.42482 6.6162 6.73996C6.3259 7.0551 6.14047 7.91345 6.07562 8.29412C6.07185 8.31703 6.0746 8.34028 6.0837 8.36232C6.0928 8.38436 6.10804 8.40468 6.12839 8.42192C6.15342 8.44217 6.18387 8.45817 6.21773 8.46887C6.25158 8.47957 6.28806 8.48471 6.32474 8.48396H12.0828ZM6.31491 4.34343C6.47 4.34343 6.62337 4.36079 6.76987 4.39442C6.69203 4.62942 6.67 4.87593 6.70816 5.12153C6.73905 5.32042 6.80827 5.5116 6.91083 5.68955C6.58041 5.87686 6.28748 6.10506 6.04546 6.36778C6.00038 6.41672 5.95723 6.46668 5.91609 6.51757C5.6911 6.4726 5.48166 6.38979 5.30557 6.27412C5.27545 6.25442 5.24534 6.23396 5.2173 6.21199C5.18927 6.19002 5.16123 6.16653 5.13527 6.14455C4.95552 5.98209 4.84245 5.78583 4.80913 5.57846C4.77582 5.37108 4.82361 5.16106 4.947 4.97267C5.07038 4.78429 5.26431 4.62522 5.50638 4.51387C5.74844 4.40252 6.02875 4.34343 6.31491 4.34343ZM5.37494 8.48398C5.35049 8.39505 5.34523 7.80746 5.36036 7.71565L5.36082 7.71285C5.42365 7.34402 5.5742 6.99098 5.80071 6.67012C5.74837 6.65834 5.69673 6.64475 5.64597 6.62937C5.43392 6.56512 5.24133 6.47096 5.07926 6.35229C4.69827 6.49834 4.37112 6.70921 4.12547 6.96705C3.87983 7.22489 3.72293 8.01719 3.66805 8.32865C3.66486 8.34739 3.66719 8.36642 3.67489 8.38445C3.68259 8.40248 3.69549 8.41911 3.71271 8.43321C3.73389 8.44978 3.75966 8.46288 3.7883 8.47163C3.81694 8.48038 3.84781 8.48459 3.87885 8.48398H5.37494Z" fill="#F7F8FB" fill-opacity="0.64"/>
<path fill-rule="evenodd" clip-rule="evenodd" d="M14.2893 9.06491L13.208 3.04473C13.1285 2.86278 12.9912 2.70681 12.8137 2.59696C12.6362 2.48712 12.4267 2.42847 12.2124 2.42859H3.78742C3.34865 2.42859 2.95431 2.67225 2.79185 3.04473L1.71055 9.06491C1.51068 9.52221 1.45161 10.0208 1.53976 10.5066L1.94938 12.7522C1.99097 12.9811 2.12007 13.1891 2.3137 13.3391C2.50733 13.4891 2.75291 13.5714 3.00675 13.5714H12.9924C13.5165 13.5714 13.9637 13.225 14.0497 12.7522L14.4594 10.5066C14.5488 10.0209 14.49 9.52203 14.2893 9.06491ZM13.4099 12.3521C13.3857 12.486 13.3102 12.6077 13.1968 12.6955C13.0835 12.7832 12.9398 12.8313 12.7913 12.8311H3.20855C3.06003 12.8313 2.91628 12.7832 2.80297 12.6955C2.68966 12.6077 2.61416 12.486 2.58995 12.3521L2.33655 11.4893C2.32139 11.4072 2.32603 11.323 2.35015 11.2426C2.37427 11.1623 2.41729 11.0878 2.47619 11.0242C2.5351 10.9606 2.60847 10.9096 2.6912 10.8746C2.77392 10.8397 2.864 10.8216 2.95514 10.8218H13.0454C13.4328 10.8218 13.7278 11.1397 13.664 11.4893L13.4099 12.3521ZM7.90655 5.81711C7.93968 5.84396 7.97527 5.86896 8.01086 5.89304C8.33809 6.11535 8.7628 6.23836 9.2031 6.23836C9.6434 6.23836 10.0681 6.11535 10.3953 5.89304C10.4323 5.86917 10.4675 5.84381 10.5009 5.81709C10.534 5.79025 10.5672 5.76338 10.5978 5.73468C10.8103 5.53612 10.9439 5.29625 10.9833 5.04279C11.0226 4.78933 10.9662 4.53264 10.8203 4.30239C10.6745 4.07214 10.4453 3.87773 10.1592 3.74163C9.87317 3.60554 9.5419 3.53332 9.20372 3.53332C8.86554 3.53332 8.53426 3.60554 8.24818 3.74163C7.96211 3.87773 7.73291 4.07214 7.5871 4.30239C7.44128 4.53264 7.38479 4.78933 7.42417 5.04279C7.46354 5.29625 7.59717 5.53612 7.8096 5.73468C7.84028 5.76154 7.87341 5.79025 7.90655 5.81711ZM12.0828 8.48396C12.1198 8.48436 12.1565 8.47878 12.1903 8.4676C12.2242 8.45642 12.2545 8.4399 12.2792 8.41914C12.2992 8.40229 12.3142 8.38244 12.3233 8.36089C12.3324 8.33935 12.3354 8.31659 12.332 8.29412C12.2671 7.91345 12.0817 7.0551 11.7914 6.73996C11.5011 6.42482 11.1144 6.16709 10.6642 5.98859C10.4726 6.13363 10.245 6.24871 9.99443 6.32723C9.74383 6.40576 9.47514 6.44618 9.20379 6.44618C8.93244 6.44618 8.66376 6.40576 8.41315 6.32723C8.16255 6.24871 7.93495 6.13363 7.74341 5.98859C7.29315 6.16709 6.90651 6.42482 6.6162 6.73996C6.3259 7.0551 6.14047 7.91345 6.07562 8.29412C6.07185 8.31703 6.0746 8.34028 6.0837 8.36232C6.0928 8.38436 6.10804 8.40468 6.12839 8.42192C6.15342 8.44217 6.18387 8.45817 6.21773 8.46887C6.25158 8.47957 6.28806 8.48471 6.32474 8.48396H12.0828ZM6.31491 4.34343C6.47 4.34343 6.62337 4.36079 6.76987 4.39442C6.69203 4.62942 6.67 4.87593 6.70816 5.12153C6.73905 5.32042 6.80827 5.5116 6.91083 5.68955C6.58041 5.87686 6.28748 6.10506 6.04546 6.36778C6.00038 6.41672 5.95723 6.46668 5.91609 6.51757C5.6911 6.4726 5.48166 6.38979 5.30557 6.27412C5.27545 6.25442 5.24534 6.23396 5.2173 6.21199C5.18927 6.19002 5.16123 6.16653 5.13527 6.14455C4.95552 5.98209 4.84245 5.78583 4.80913 5.57846C4.77582 5.37108 4.82361 5.16106 4.947 4.97267C5.07038 4.78429 5.26431 4.62522 5.50638 4.51387C5.74844 4.40252 6.02875 4.34343 6.31491 4.34343ZM5.37494 8.48398C5.35049 8.39505 5.34523 7.80746 5.36036 7.71565L5.36082 7.71285C5.42365 7.34402 5.5742 6.99098 5.80071 6.67012C5.74837 6.65834 5.69673 6.64475 5.64597 6.62937C5.43392 6.56512 5.24133 6.47096 5.07926 6.35229C4.69827 6.49834 4.37112 6.70921 4.12547 6.96705C3.87983 7.22489 3.72293 8.01719 3.66805 8.32865C3.66486 8.34739 3.66719 8.36642 3.67489 8.38445C3.68259 8.40248 3.69549 8.41911 3.71271 8.43321C3.73389 8.44978 3.75966 8.46288 3.7883 8.47163C3.81694 8.48038 3.84781 8.48459 3.87885 8.48398H5.37494Z" fill="url(#paint1_linear_4979_153)" fill-opacity="0.08"/>
<defs>
<linearGradient id="paint0_linear_4979_153" x1="8" y1="3.41873" x2="8" y2="13.5714" gradientUnits="userSpaceOnUse">
<stop stop-opacity="0"/>
<stop offset="1"/>
</linearGradient>
<linearGradient id="paint1_linear_4979_153" x1="8" y1="3.41873" x2="8" y2="13.5714" gradientUnits="userSpaceOnUse">
<stop stop-opacity="0"/>
<stop offset="1"/>
</linearGradient>
</defs>
</svg>
