<svg width="16" height="16" viewBox="0 0 16 16" fill="none" xmlns="http://www.w3.org/2000/svg">
<path d="M10.0951 7.7834C10.6885 7.7834 11.1695 7.29822 11.1695 6.70006V2.58335C11.1695 1.98518 10.6885 1.5 10.0951 1.5H6.01248C5.41927 1.5 4.9381 1.98518 4.9381 2.58335V6.70006C4.9381 7.29822 5.41927 7.7834 6.01248 7.7834H10.0951ZM5.58273 6.70006V2.58335C5.58273 2.34437 5.77544 2.15001 6.01248 2.15001H10.0951C10.3322 2.15001 10.5249 2.34437 10.5249 2.58335V6.70006C10.5249 6.93907 10.3322 7.13339 10.0951 7.13339H6.01248C5.77544 7.13339 5.58273 6.93907 5.58273 6.70006Z" fill="#F7F8FB" fill-opacity="0.64"/>
<path d="M10.0951 7.7834C10.6885 7.7834 11.1695 7.29822 11.1695 6.70006V2.58335C11.1695 1.98518 10.6885 1.5 10.0951 1.5H6.01248C5.41927 1.5 4.9381 1.98518 4.9381 2.58335V6.70006C4.9381 7.29822 5.41927 7.7834 6.01248 7.7834H10.0951ZM5.58273 6.70006V2.58335C5.58273 2.34437 5.77544 2.15001 6.01248 2.15001H10.0951C10.3322 2.15001 10.5249 2.34437 10.5249 2.58335V6.70006C10.5249 6.93907 10.3322 7.13339 10.0951 7.13339H6.01248C5.77544 7.13339 5.58273 6.93907 5.58273 6.70006Z" fill="url(#paint0_linear_4979_69)" fill-opacity="0.08"/>
<path d="M1.5 9.29994V13.4167C1.5 14.0148 1.98116 14.5 2.57438 14.5H6.65702C7.25035 14.5 7.73139 14.0148 7.73139 13.4167V9.29994C7.73139 8.70178 7.25035 8.2166 6.65702 8.2166H2.57438C1.98084 8.2166 1.5 8.70178 1.5 9.29994ZM7.08677 9.29994V13.4167C7.08677 13.6558 6.89405 13.85 6.65702 13.85H2.57438C2.33738 13.85 2.14463 13.6558 2.14463 13.4167V9.29994C2.14463 9.06084 2.33738 8.86657 2.57438 8.86657H6.65702C6.89405 8.86661 7.08677 9.06088 7.08677 9.29994Z" fill="#F7F8FB" fill-opacity="0.64"/>
<path d="M1.5 9.29994V13.4167C1.5 14.0148 1.98116 14.5 2.57438 14.5H6.65702C7.25035 14.5 7.73139 14.0148 7.73139 13.4167V9.29994C7.73139 8.70178 7.25035 8.2166 6.65702 8.2166H2.57438C1.98084 8.2166 1.5 8.70178 1.5 9.29994ZM7.08677 9.29994V13.4167C7.08677 13.6558 6.89405 13.85 6.65702 13.85H2.57438C2.33738 13.85 2.14463 13.6558 2.14463 13.4167V9.29994C2.14463 9.06084 2.33738 8.86657 2.57438 8.86657H6.65702C6.89405 8.86661 7.08677 9.06088 7.08677 9.29994Z" fill="url(#paint1_linear_4979_69)" fill-opacity="0.08"/>
<path d="M14.5 9.29994C14.5 8.70178 14.019 8.2166 13.4256 8.2166H9.34299C8.74981 8.2166 8.26861 8.70178 8.26861 9.29994V13.4167C8.26861 14.0148 8.74981 14.5 9.34299 14.5H13.4256C14.019 14.5 14.5 14.0148 14.5 13.4167V9.29994ZM13.8554 13.4167C13.8554 13.6558 13.6627 13.85 13.4256 13.85H9.34299C9.10587 13.85 8.91323 13.6558 8.91323 13.4167V9.29994C8.91323 9.06084 9.10587 8.86657 9.34299 8.86657H13.4256C13.6627 8.86657 13.8554 9.06084 13.8554 9.29994V13.4167Z" fill="#F7F8FB" fill-opacity="0.64"/>
<path d="M14.5 9.29994C14.5 8.70178 14.019 8.2166 13.4256 8.2166H9.34299C8.74981 8.2166 8.26861 8.70178 8.26861 9.29994V13.4167C8.26861 14.0148 8.74981 14.5 9.34299 14.5H13.4256C14.019 14.5 14.5 14.0148 14.5 13.4167V9.29994ZM13.8554 13.4167C13.8554 13.6558 13.6627 13.85 13.4256 13.85H9.34299C9.10587 13.85 8.91323 13.6558 8.91323 13.4167V9.29994C8.91323 9.06084 9.10587 8.86657 9.34299 8.86657H13.4256C13.6627 8.86657 13.8554 9.06084 13.8554 9.29994V13.4167Z" fill="url(#paint2_linear_4979_69)" fill-opacity="0.08"/>
<path d="M6.31035 6.55449C6.35631 6.57744 6.40533 6.58843 6.45368 6.58843C6.57202 6.58843 6.68618 6.52243 6.74241 6.40792L7.03484 5.81537H9.07238L9.36469 6.40792C9.42115 6.52207 9.53508 6.58843 9.65342 6.58843C9.70192 6.58843 9.75079 6.57744 9.79695 6.55449C9.95643 6.47448 10.0213 6.27932 9.94195 6.1187L8.34216 2.87585C8.34089 2.8732 8.33902 2.87108 8.33774 2.86843C8.33229 2.85808 8.326 2.84877 8.31928 2.83922C8.31383 2.83095 8.30877 2.82229 8.30229 2.81466C8.29576 2.80692 8.2884 2.79994 8.28152 2.79275C8.27356 2.78481 8.266 2.77658 8.2572 2.76936C8.25028 2.76374 8.24272 2.75897 8.23536 2.75399C8.22529 2.74681 8.21499 2.73991 8.20388 2.73381C8.20138 2.73253 8.19971 2.73084 8.19716 2.72964C8.19131 2.72671 8.18498 2.72543 8.17893 2.72278C8.16803 2.718 8.15677 2.71347 8.14567 2.70998C8.13592 2.70713 8.12605 2.70524 8.11638 2.703C8.10588 2.70087 8.09533 2.69894 8.08483 2.69782C8.07452 2.69678 8.06413 2.69678 8.05367 2.69678C8.04336 2.69678 8.03282 2.69678 8.02251 2.69782C8.01201 2.69894 8.00142 2.70087 7.99092 2.703C7.98105 2.705 7.97142 2.70693 7.96195 2.70978C7.95053 2.71327 7.93931 2.7178 7.92797 2.72278C7.9222 2.72539 7.91591 2.72671 7.91014 2.72944C7.90771 2.7306 7.90604 2.73229 7.90373 2.73357C7.89227 2.73971 7.88181 2.74701 7.87122 2.75424C7.86418 2.75921 7.85686 2.7635 7.85025 2.76892C7.84122 2.77634 7.83326 2.78481 7.82507 2.79316C7.81814 2.80014 7.81134 2.80672 7.80505 2.81442C7.79864 2.82245 7.79331 2.83115 7.7877 2.83962C7.78141 2.84889 7.77501 2.85824 7.76968 2.86839C7.76832 2.87104 7.76641 2.87316 7.76518 2.87581L6.16535 6.11866C6.08593 6.27928 6.15087 6.47448 6.31035 6.55449ZM8.05359 3.75027L8.7515 5.1654H7.35544L8.05359 3.75027Z" fill="#F7F8FB" fill-opacity="0.64"/>
<path d="M6.31035 6.55449C6.35631 6.57744 6.40533 6.58843 6.45368 6.58843C6.57202 6.58843 6.68618 6.52243 6.74241 6.40792L7.03484 5.81537H9.07238L9.36469 6.40792C9.42115 6.52207 9.53508 6.58843 9.65342 6.58843C9.70192 6.58843 9.75079 6.57744 9.79695 6.55449C9.95643 6.47448 10.0213 6.27932 9.94195 6.1187L8.34216 2.87585C8.34089 2.8732 8.33902 2.87108 8.33774 2.86843C8.33229 2.85808 8.326 2.84877 8.31928 2.83922C8.31383 2.83095 8.30877 2.82229 8.30229 2.81466C8.29576 2.80692 8.2884 2.79994 8.28152 2.79275C8.27356 2.78481 8.266 2.77658 8.2572 2.76936C8.25028 2.76374 8.24272 2.75897 8.23536 2.75399C8.22529 2.74681 8.21499 2.73991 8.20388 2.73381C8.20138 2.73253 8.19971 2.73084 8.19716 2.72964C8.19131 2.72671 8.18498 2.72543 8.17893 2.72278C8.16803 2.718 8.15677 2.71347 8.14567 2.70998C8.13592 2.70713 8.12605 2.70524 8.11638 2.703C8.10588 2.70087 8.09533 2.69894 8.08483 2.69782C8.07452 2.69678 8.06413 2.69678 8.05367 2.69678C8.04336 2.69678 8.03282 2.69678 8.02251 2.69782C8.01201 2.69894 8.00142 2.70087 7.99092 2.703C7.98105 2.705 7.97142 2.70693 7.96195 2.70978C7.95053 2.71327 7.93931 2.7178 7.92797 2.72278C7.9222 2.72539 7.91591 2.72671 7.91014 2.72944C7.90771 2.7306 7.90604 2.73229 7.90373 2.73357C7.89227 2.73971 7.88181 2.74701 7.87122 2.75424C7.86418 2.75921 7.85686 2.7635 7.85025 2.76892C7.84122 2.77634 7.83326 2.78481 7.82507 2.79316C7.81814 2.80014 7.81134 2.80672 7.80505 2.81442C7.79864 2.82245 7.79331 2.83115 7.7877 2.83962C7.78141 2.84889 7.77501 2.85824 7.76968 2.86839C7.76832 2.87104 7.76641 2.87316 7.76518 2.87581L6.16535 6.11866C6.08593 6.27928 6.15087 6.47448 6.31035 6.55449ZM8.05359 3.75027L8.7515 5.1654H7.35544L8.05359 3.75027Z" fill="url(#paint3_linear_4979_69)" fill-opacity="0.08"/>
<path d="M3.84569 13.3874H4.66262C5.35758 13.3874 5.9229 12.8174 5.9229 12.1165C5.9229 11.6308 5.65085 11.2084 5.25265 10.9943C5.37971 10.8208 5.45726 10.6083 5.45726 10.3762C5.45726 9.79879 4.99142 9.32906 4.41878 9.32906H3.84569C3.60639 9.32906 3.40548 9.48879 3.3362 9.70715C3.31877 9.74715 3.30851 9.79157 3.30851 9.83815V12.8643C3.30851 12.8902 3.31221 12.9151 3.31794 12.939C3.36222 13.1932 3.58144 13.3874 3.84569 13.3874ZM5.27828 12.1165C5.27828 12.4589 5.00212 12.7374 4.66262 12.7374H3.95313V11.4958H4.66262C5.00212 11.4958 5.27828 11.7742 5.27828 12.1165ZM4.81267 10.3762C4.81267 10.5952 4.63608 10.7734 4.41882 10.7734H3.95313V9.97883H4.41878C4.63608 9.97907 4.81267 10.1572 4.81267 10.3762Z" fill="#F7F8FB" fill-opacity="0.64"/>
<path d="M3.84569 13.3874H4.66262C5.35758 13.3874 5.9229 12.8174 5.9229 12.1165C5.9229 11.6308 5.65085 11.2084 5.25265 10.9943C5.37971 10.8208 5.45726 10.6083 5.45726 10.3762C5.45726 9.79879 4.99142 9.32906 4.41878 9.32906H3.84569C3.60639 9.32906 3.40548 9.48879 3.3362 9.70715C3.31877 9.74715 3.30851 9.79157 3.30851 9.83815V12.8643C3.30851 12.8902 3.31221 12.9151 3.31794 12.939C3.36222 13.1932 3.58144 13.3874 3.84569 13.3874ZM5.27828 12.1165C5.27828 12.4589 5.00212 12.7374 4.66262 12.7374H3.95313V11.4958H4.66262C5.00212 11.4958 5.27828 11.7742 5.27828 12.1165ZM4.81267 10.3762C4.81267 10.5952 4.63608 10.7734 4.41882 10.7734H3.95313V9.97883H4.41878C4.63608 9.97907 4.81267 10.1572 4.81267 10.3762Z" fill="url(#paint4_linear_4979_69)" fill-opacity="0.08"/>
<path d="M12.5117 12.2961C12.2738 12.5221 11.9628 12.6464 11.6359 12.6464C10.9316 12.6464 10.3587 12.0684 10.3587 11.3583C10.3587 10.6482 10.9316 10.0702 11.6359 10.0702C11.9487 10.0702 12.2494 10.1854 12.4834 10.3945C12.6166 10.5137 12.8206 10.5016 12.9385 10.3672C13.0567 10.2331 13.0443 10.0274 12.9112 9.90847C12.5593 9.59362 12.1067 9.42057 11.636 9.42057C10.5763 9.42057 9.71411 10.2898 9.71411 11.3585C9.71411 12.4273 10.5763 13.2965 11.636 13.2965C12.1279 13.2965 12.596 13.1094 12.954 12.7692C13.0835 12.646 13.0896 12.4404 12.9675 12.3096C12.8453 12.1793 12.6414 12.1729 12.5117 12.2961Z" fill="#F7F8FB" fill-opacity="0.64"/>
<path d="M12.5117 12.2961C12.2738 12.5221 11.9628 12.6464 11.6359 12.6464C10.9316 12.6464 10.3587 12.0684 10.3587 11.3583C10.3587 10.6482 10.9316 10.0702 11.6359 10.0702C11.9487 10.0702 12.2494 10.1854 12.4834 10.3945C12.6166 10.5137 12.8206 10.5016 12.9385 10.3672C13.0567 10.2331 13.0443 10.0274 12.9112 9.90847C12.5593 9.59362 12.1067 9.42057 11.636 9.42057C10.5763 9.42057 9.71411 10.2898 9.71411 11.3585C9.71411 12.4273 10.5763 13.2965 11.636 13.2965C12.1279 13.2965 12.596 13.1094 12.954 12.7692C13.0835 12.646 13.0896 12.4404 12.9675 12.3096C12.8453 12.1793 12.6414 12.1729 12.5117 12.2961Z" fill="url(#paint5_linear_4979_69)" fill-opacity="0.08"/>
<defs>
<linearGradient id="paint0_linear_4979_69" x1="8" y1="1.5" x2="8" y2="14.5" gradientUnits="userSpaceOnUse">
<stop stop-opacity="0"/>
<stop offset="1"/>
</linearGradient>
<linearGradient id="paint1_linear_4979_69" x1="8" y1="1.5" x2="8" y2="14.5" gradientUnits="userSpaceOnUse">
<stop stop-opacity="0"/>
<stop offset="1"/>
</linearGradient>
<linearGradient id="paint2_linear_4979_69" x1="8" y1="1.5" x2="8" y2="14.5" gradientUnits="userSpaceOnUse">
<stop stop-opacity="0"/>
<stop offset="1"/>
</linearGradient>
<linearGradient id="paint3_linear_4979_69" x1="8" y1="1.5" x2="8" y2="14.5" gradientUnits="userSpaceOnUse">
<stop stop-opacity="0"/>
<stop offset="1"/>
</linearGradient>
<linearGradient id="paint4_linear_4979_69" x1="8" y1="1.5" x2="8" y2="14.5" gradientUnits="userSpaceOnUse">
<stop stop-opacity="0"/>
<stop offset="1"/>
</linearGradient>
<linearGradient id="paint5_linear_4979_69" x1="8" y1="1.5" x2="8" y2="14.5" gradientUnits="userSpaceOnUse">
<stop stop-opacity="0"/>
<stop offset="1"/>
</linearGradient>
</defs>
</svg>
