<svg width="16" height="16" viewBox="0 0 16 16" fill="none" xmlns="http://www.w3.org/2000/svg">
<path fill-rule="evenodd" clip-rule="evenodd" d="M13.7778 3C14.1767 3 14.5 3.3731 14.5 3.83333V4.86778C14.5 5.53857 14.5 6.09219 14.4681 6.54318C14.4349 7.01161 14.3637 7.44219 14.1851 7.84665C13.9082 8.47388 13.4662 8.98379 12.9226 9.30335C12.5721 9.50942 12.199 9.59156 11.793 9.62984C11.4021 9.66669 10.9223 9.66668 10.3409 9.66667H3.96582L5.6218 11.5774C5.90384 11.9028 5.90384 12.4305 5.6218 12.7559C5.33975 13.0814 4.88247 13.0814 4.60042 12.7559L1.71153 9.42259C1.57609 9.26631 1.5 9.05435 1.5 8.83333C1.5 8.61232 1.57609 8.40036 1.71153 8.24408L4.60042 4.91074C4.88247 4.58531 5.33975 4.58531 5.6218 4.91074C5.90384 5.23618 5.90384 5.76382 5.6218 6.08926L3.96582 8H10.3111C10.9298 8 11.3503 7.99935 11.6754 7.96871C11.992 7.93886 12.1539 7.88475 12.2669 7.81832L12.2669 7.81831C12.5387 7.65855 12.7596 7.40363 12.8981 7.09004L12.8981 7.09002C12.9557 6.95965 13.0026 6.77279 13.0284 6.40746C13.055 6.03239 13.0556 5.54715 13.0556 4.83333V3.83333C13.0556 3.3731 13.3789 3 13.7778 3Z" fill="#F7F8FB" fill-opacity="0.64"/>
<path fill-rule="evenodd" clip-rule="evenodd" d="M13.7778 3C14.1767 3 14.5 3.3731 14.5 3.83333V4.86778C14.5 5.53857 14.5 6.09219 14.4681 6.54318C14.4349 7.01161 14.3637 7.44219 14.1851 7.84665C13.9082 8.47388 13.4662 8.98379 12.9226 9.30335C12.5721 9.50942 12.199 9.59156 11.793 9.62984C11.4021 9.66669 10.9223 9.66668 10.3409 9.66667H3.96582L5.6218 11.5774C5.90384 11.9028 5.90384 12.4305 5.6218 12.7559C5.33975 13.0814 4.88247 13.0814 4.60042 12.7559L1.71153 9.42259C1.57609 9.26631 1.5 9.05435 1.5 8.83333C1.5 8.61232 1.57609 8.40036 1.71153 8.24408L4.60042 4.91074C4.88247 4.58531 5.33975 4.58531 5.6218 4.91074C5.90384 5.23618 5.90384 5.76382 5.6218 6.08926L3.96582 8H10.3111C10.9298 8 11.3503 7.99935 11.6754 7.96871C11.992 7.93886 12.1539 7.88475 12.2669 7.81832L12.2669 7.81831C12.5387 7.65855 12.7596 7.40363 12.8981 7.09004L12.8981 7.09002C12.9557 6.95965 13.0026 6.77279 13.0284 6.40746C13.055 6.03239 13.0556 5.54715 13.0556 4.83333V3.83333C13.0556 3.3731 13.3789 3 13.7778 3Z" fill="url(#paint0_linear_4979_195)" fill-opacity="0.08"/>
<defs>
<linearGradient id="paint0_linear_4979_195" x1="8" y1="4.09865" x2="8" y2="11.9013" gradientUnits="userSpaceOnUse">
<stop stop-opacity="0"/>
<stop offset="1"/>
</linearGradient>
</defs>
</svg>
