<svg width="16" height="16" viewBox="0 0 16 16" fill="none" xmlns="http://www.w3.org/2000/svg">
<path d="M8.12699 5.89064C8.05009 5.83785 7.94991 5.83785 7.87301 5.89064L7.52461 6.12978C7.41941 6.202 7.39098 6.34836 7.46112 6.45668C7.53125 6.56501 7.6734 6.59428 7.7786 6.52206L8 6.37009L8.2214 6.52206C8.3266 6.59428 8.46875 6.56501 8.53888 6.45668C8.60902 6.34836 8.58059 6.202 8.47539 6.12978L8.12699 5.89064Z" fill="#F7F8FB" fill-opacity="0.64"/>
<path d="M8.12699 5.89064C8.05009 5.83785 7.94991 5.83785 7.87301 5.89064L7.52461 6.12978C7.41941 6.202 7.39098 6.34836 7.46112 6.45668C7.53125 6.56501 7.6734 6.59428 7.7786 6.52206L8 6.37009L8.2214 6.52206C8.3266 6.59428 8.46875 6.56501 8.53888 6.45668C8.60902 6.34836 8.58059 6.202 8.47539 6.12978L8.12699 5.89064Z" fill="url(#paint0_linear_4979_167)" fill-opacity="0.08"/>
<path d="M7.08182 7.00035C7.18703 6.92814 7.21545 6.78178 7.14532 6.67346C7.07518 6.56513 6.93304 6.53586 6.82783 6.60808L6.13104 7.08637C6.02584 7.15859 5.99741 7.30494 6.06755 7.41327C6.13768 7.52159 6.27983 7.55086 6.38503 7.47865L7.08182 7.00035Z" fill="#F7F8FB" fill-opacity="0.64"/>
<path d="M7.08182 7.00035C7.18703 6.92814 7.21545 6.78178 7.14532 6.67346C7.07518 6.56513 6.93304 6.53586 6.82783 6.60808L6.13104 7.08637C6.02584 7.15859 5.99741 7.30494 6.06755 7.41327C6.13768 7.52159 6.27983 7.55086 6.38503 7.47865L7.08182 7.00035Z" fill="url(#paint1_linear_4979_167)" fill-opacity="0.08"/>
<path d="M9.17217 6.60808C9.06697 6.53586 8.92482 6.56513 8.85468 6.67346C8.78455 6.78178 8.81297 6.92814 8.91818 7.00035L9.61497 7.47865C9.72017 7.55086 9.86232 7.52159 9.93245 7.41327C10.0026 7.30494 9.97416 7.15859 9.86895 7.08637L9.17217 6.60808Z" fill="#F7F8FB" fill-opacity="0.64"/>
<path d="M9.17217 6.60808C9.06697 6.53586 8.92482 6.56513 8.85468 6.67346C8.78455 6.78178 8.81297 6.92814 8.91818 7.00035L9.61497 7.47865C9.72017 7.55086 9.86232 7.52159 9.93245 7.41327C10.0026 7.30494 9.97416 7.15859 9.86895 7.08637L9.17217 6.60808Z" fill="url(#paint2_linear_4979_167)" fill-opacity="0.08"/>
<path d="M5.68825 7.95694C5.79346 7.88472 5.82189 7.73837 5.75175 7.63004C5.68161 7.52172 5.53947 7.49245 5.43426 7.56466L5.08587 7.80381C5.02218 7.84753 4.98392 7.92113 4.98392 7.99995C4.98392 8.07876 5.02218 8.15237 5.08587 8.19609L5.43426 8.43523C5.53947 8.50745 5.68161 8.47818 5.75175 8.36985C5.82189 8.26153 5.79346 8.11517 5.68825 8.04295L5.6256 7.99995L5.68825 7.95694Z" fill="#F7F8FB" fill-opacity="0.64"/>
<path d="M5.68825 7.95694C5.79346 7.88472 5.82189 7.73837 5.75175 7.63004C5.68161 7.52172 5.53947 7.49245 5.43426 7.56466L5.08587 7.80381C5.02218 7.84753 4.98392 7.92113 4.98392 7.99995C4.98392 8.07876 5.02218 8.15237 5.08587 8.19609L5.43426 8.43523C5.53947 8.50745 5.68161 8.47818 5.75175 8.36985C5.82189 8.26153 5.79346 8.11517 5.68825 8.04295L5.6256 7.99995L5.68825 7.95694Z" fill="url(#paint3_linear_4979_167)" fill-opacity="0.08"/>
<path d="M10.5657 7.56466C10.4605 7.49245 10.3184 7.52172 10.2483 7.63004C10.1781 7.73837 10.2065 7.88472 10.3117 7.95694L10.3744 7.99995L10.3117 8.04295C10.2065 8.11517 10.1781 8.26153 10.2483 8.36985C10.3184 8.47818 10.4605 8.50745 10.5657 8.43523L10.9141 8.19609C10.9778 8.15237 11.0161 8.07876 11.0161 7.99995C11.0161 7.92113 10.9778 7.84753 10.9141 7.80381L10.5657 7.56466Z" fill="#F7F8FB" fill-opacity="0.64"/>
<path d="M10.5657 7.56466C10.4605 7.49245 10.3184 7.52172 10.2483 7.63004C10.1781 7.73837 10.2065 7.88472 10.3117 7.95694L10.3744 7.99995L10.3117 8.04295C10.2065 8.11517 10.1781 8.26153 10.2483 8.36985C10.3184 8.47818 10.4605 8.50745 10.5657 8.43523L10.9141 8.19609C10.9778 8.15237 11.0161 8.07876 11.0161 7.99995C11.0161 7.92113 10.9778 7.84753 10.9141 7.80381L10.5657 7.56466Z" fill="url(#paint4_linear_4979_167)" fill-opacity="0.08"/>
<path d="M6.38503 8.52125C6.27983 8.44903 6.13768 8.4783 6.06755 8.58663C5.99741 8.69495 6.02584 8.84131 6.13104 8.91353L6.82783 9.39182C6.93304 9.46404 7.07518 9.43476 7.14532 9.32644C7.21545 9.21811 7.18703 9.07176 7.08182 8.99954L6.38503 8.52125Z" fill="#F7F8FB" fill-opacity="0.64"/>
<path d="M6.38503 8.52125C6.27983 8.44903 6.13768 8.4783 6.06755 8.58663C5.99741 8.69495 6.02584 8.84131 6.13104 8.91353L6.82783 9.39182C6.93304 9.46404 7.07518 9.43476 7.14532 9.32644C7.21545 9.21811 7.18703 9.07176 7.08182 8.99954L6.38503 8.52125Z" fill="url(#paint5_linear_4979_167)" fill-opacity="0.08"/>
<path d="M9.86895 8.91353C9.97416 8.84131 10.0026 8.69495 9.93245 8.58663C9.86232 8.4783 9.72017 8.44903 9.61497 8.52125L8.91818 8.99954C8.81297 9.07176 8.78455 9.21811 8.85468 9.32644C8.92482 9.43476 9.06697 9.46404 9.17217 9.39182L9.86895 8.91353Z" fill="#F7F8FB" fill-opacity="0.64"/>
<path d="M9.86895 8.91353C9.97416 8.84131 10.0026 8.69495 9.93245 8.58663C9.86232 8.4783 9.72017 8.44903 9.61497 8.52125L8.91818 8.99954C8.81297 9.07176 8.78455 9.21811 8.85468 9.32644C8.92482 9.43476 9.06697 9.46404 9.17217 9.39182L9.86895 8.91353Z" fill="url(#paint6_linear_4979_167)" fill-opacity="0.08"/>
<path d="M7.7786 9.47783C7.6734 9.40562 7.53125 9.43489 7.46112 9.54321C7.39098 9.65154 7.41941 9.7979 7.52461 9.87011L7.87301 10.1093C7.94991 10.162 8.05009 10.162 8.12699 10.1093L8.47539 9.87011C8.58059 9.7979 8.60902 9.65154 8.53888 9.54321C8.46875 9.43489 8.3266 9.40562 8.2214 9.47783L8 9.62981L7.7786 9.47783Z" fill="#F7F8FB" fill-opacity="0.64"/>
<path d="M7.7786 9.47783C7.6734 9.40562 7.53125 9.43489 7.46112 9.54321C7.39098 9.65154 7.41941 9.7979 7.52461 9.87011L7.87301 10.1093C7.94991 10.162 8.05009 10.162 8.12699 10.1093L8.47539 9.87011C8.58059 9.7979 8.60902 9.65154 8.53888 9.54321C8.46875 9.43489 8.3266 9.40562 8.2214 9.47783L8 9.62981L7.7786 9.47783Z" fill="url(#paint7_linear_4979_167)" fill-opacity="0.08"/>
<path fill-rule="evenodd" clip-rule="evenodd" d="M8.29264 3.44835C8.11543 3.32671 7.88457 3.32671 7.70736 3.44835L1.73492 7.548C1.58816 7.64875 1.5 7.81835 1.5 7.99997C1.5 8.1816 1.58816 8.3512 1.73492 8.45195L7.70736 12.5516C7.88457 12.6732 8.11543 12.6732 8.29264 12.5516L14.2651 8.45195C14.4118 8.3512 14.5 8.1816 14.5 7.99997C14.5 7.81835 14.4118 7.64875 14.2651 7.548L8.29264 3.44835ZM8 12.0027L2.43698 7.99997L8 3.99723L13.563 7.99997L8 12.0027Z" fill="#F7F8FB" fill-opacity="0.64"/>
<path fill-rule="evenodd" clip-rule="evenodd" d="M8.29264 3.44835C8.11543 3.32671 7.88457 3.32671 7.70736 3.44835L1.73492 7.548C1.58816 7.64875 1.5 7.81835 1.5 7.99997C1.5 8.1816 1.58816 8.3512 1.73492 8.45195L7.70736 12.5516C7.88457 12.6732 8.11543 12.6732 8.29264 12.5516L14.2651 8.45195C14.4118 8.3512 14.5 8.1816 14.5 7.99997C14.5 7.81835 14.4118 7.64875 14.2651 7.548L8.29264 3.44835ZM8 12.0027L2.43698 7.99997L8 3.99723L13.563 7.99997L8 12.0027Z" fill="url(#paint8_linear_4979_167)" fill-opacity="0.08"/>
<defs>
<linearGradient id="paint0_linear_4979_167" x1="8" y1="3.35712" x2="8" y2="12.6428" gradientUnits="userSpaceOnUse">
<stop stop-opacity="0"/>
<stop offset="1"/>
</linearGradient>
<linearGradient id="paint1_linear_4979_167" x1="8" y1="3.35712" x2="8" y2="12.6428" gradientUnits="userSpaceOnUse">
<stop stop-opacity="0"/>
<stop offset="1"/>
</linearGradient>
<linearGradient id="paint2_linear_4979_167" x1="8" y1="3.35712" x2="8" y2="12.6428" gradientUnits="userSpaceOnUse">
<stop stop-opacity="0"/>
<stop offset="1"/>
</linearGradient>
<linearGradient id="paint3_linear_4979_167" x1="8" y1="3.35712" x2="8" y2="12.6428" gradientUnits="userSpaceOnUse">
<stop stop-opacity="0"/>
<stop offset="1"/>
</linearGradient>
<linearGradient id="paint4_linear_4979_167" x1="8" y1="3.35712" x2="8" y2="12.6428" gradientUnits="userSpaceOnUse">
<stop stop-opacity="0"/>
<stop offset="1"/>
</linearGradient>
<linearGradient id="paint5_linear_4979_167" x1="8" y1="3.35712" x2="8" y2="12.6428" gradientUnits="userSpaceOnUse">
<stop stop-opacity="0"/>
<stop offset="1"/>
</linearGradient>
<linearGradient id="paint6_linear_4979_167" x1="8" y1="3.35712" x2="8" y2="12.6428" gradientUnits="userSpaceOnUse">
<stop stop-opacity="0"/>
<stop offset="1"/>
</linearGradient>
<linearGradient id="paint7_linear_4979_167" x1="8" y1="3.35712" x2="8" y2="12.6428" gradientUnits="userSpaceOnUse">
<stop stop-opacity="0"/>
<stop offset="1"/>
</linearGradient>
<linearGradient id="paint8_linear_4979_167" x1="8" y1="3.35712" x2="8" y2="12.6428" gradientUnits="userSpaceOnUse">
<stop stop-opacity="0"/>
<stop offset="1"/>
</linearGradient>
</defs>
</svg>
