<svg width="16" height="16" viewBox="0 0 16 16" fill="none" xmlns="http://www.w3.org/2000/svg">
<path fill-rule="evenodd" clip-rule="evenodd" d="M1.5 3.959C1.5 3.62661 1.77982 3.35715 2.125 3.35715H13.875C14.2202 3.35715 14.5 3.62661 14.5 3.959C14.5 4.29139 14.2202 4.56085 13.875 4.56085H2.125C1.77982 4.56085 1.5 4.29139 1.5 3.959ZM1.5 8C1.5 7.66761 1.77982 7.39815 2.125 7.39815H13.875C14.2202 7.39815 14.5 7.66761 14.5 8C14.5 8.3324 14.2202 8.60186 13.875 8.60186H2.125C1.77982 8.60186 1.5 8.3324 1.5 8ZM1.5 12.041C1.5 11.7086 1.77982 11.4392 2.125 11.4392H13.875C14.2202 11.4392 14.5 11.7086 14.5 12.041C14.5 12.3734 14.2202 12.6429 13.875 12.6429H2.125C1.77982 12.6429 1.5 12.3734 1.5 12.041Z" fill="#F7F8FB" fill-opacity="0.64"/>
<path fill-rule="evenodd" clip-rule="evenodd" d="M1.5 3.959C1.5 3.62661 1.77982 3.35715 2.125 3.35715H13.875C14.2202 3.35715 14.5 3.62661 14.5 3.959C14.5 4.29139 14.2202 4.56085 13.875 4.56085H2.125C1.77982 4.56085 1.5 4.29139 1.5 3.959ZM1.5 8C1.5 7.66761 1.77982 7.39815 2.125 7.39815H13.875C14.2202 7.39815 14.5 7.66761 14.5 8C14.5 8.3324 14.2202 8.60186 13.875 8.60186H2.125C1.77982 8.60186 1.5 8.3324 1.5 8ZM1.5 12.041C1.5 11.7086 1.77982 11.4392 2.125 11.4392H13.875C14.2202 11.4392 14.5 11.7086 14.5 12.041C14.5 12.3734 14.2202 12.6429 13.875 12.6429H2.125C1.77982 12.6429 1.5 12.3734 1.5 12.041Z" fill="url(#paint0_linear_4979_113)" fill-opacity="0.08"/>
<defs>
<linearGradient id="paint0_linear_4979_113" x1="8" y1="3.35715" x2="8" y2="12.6429" gradientUnits="userSpaceOnUse">
<stop stop-opacity="0"/>
<stop offset="1"/>
</linearGradient>
</defs>
</svg>
