<svg width="16" height="16" viewBox="0 0 16 16" fill="none" xmlns="http://www.w3.org/2000/svg">
<path fill-rule="evenodd" clip-rule="evenodd" d="M8.56282 14.262C8.25199 14.5793 7.74804 14.5793 7.43722 14.262L2.66171 9.38702C2.35088 9.06972 2.35088 8.55528 2.66171 8.23798C2.97253 7.92067 3.47648 7.92067 3.78731 8.23798L7.2041 11.726L7.2041 2.3125C7.2041 1.86377 7.56044 1.5 8.00002 1.5C8.43959 1.5 8.79594 1.86377 8.79594 2.3125L8.79594 11.726L12.2127 8.23797C12.5236 7.92067 13.0275 7.92067 13.3383 8.23797C13.6492 8.55528 13.6492 9.06972 13.3383 9.38702L8.56282 14.262Z" fill="#F7F8FB" fill-opacity="0.64"/>
<path fill-rule="evenodd" clip-rule="evenodd" d="M8.56282 14.262C8.25199 14.5793 7.74804 14.5793 7.43722 14.262L2.66171 9.38702C2.35088 9.06972 2.35088 8.55528 2.66171 8.23798C2.97253 7.92067 3.47648 7.92067 3.78731 8.23798L7.2041 11.726L7.2041 2.3125C7.2041 1.86377 7.56044 1.5 8.00002 1.5C8.43959 1.5 8.79594 1.86377 8.79594 2.3125L8.79594 11.726L12.2127 8.23797C12.5236 7.92067 13.0275 7.92067 13.3383 8.23797C13.6492 8.55528 13.6492 9.06972 13.3383 9.38702L8.56282 14.262Z" fill="url(#paint0_linear_4979_212)" fill-opacity="0.08"/>
<defs>
<linearGradient id="paint0_linear_4979_212" x1="8.00002" y1="14.5" x2="8.00002" y2="1.5" gradientUnits="userSpaceOnUse">
<stop stop-opacity="0"/>
<stop offset="1"/>
</linearGradient>
</defs>
</svg>
