<svg width="16" height="16" viewBox="0 0 16 16" fill="none" xmlns="http://www.w3.org/2000/svg">
<path d="M12.6002 2.23827C12.6094 2.39398 12.5736 2.54901 12.4973 2.68359C12.421 2.81818 12.3077 2.92623 12.1718 2.99399C12.036 3.06175 11.8837 3.08615 11.7343 3.06408C11.585 3.04201 11.4454 2.97447 11.3333 2.87006C11.2213 2.76565 11.1418 2.6291 11.105 2.4778C11.0682 2.32651 11.0758 2.16731 11.1268 2.0205C11.1778 1.87368 11.2699 1.74589 11.3914 1.65341C11.5129 1.56093 11.6582 1.50793 11.8089 1.50118C11.9078 1.49554 12.0067 1.51016 12.1 1.5442C12.1933 1.57824 12.2792 1.63103 12.3528 1.69954C12.4263 1.76804 12.486 1.8509 12.5285 1.94336C12.5709 2.03581 12.5953 2.13604 12.6002 2.23827Z" fill="#F7F8FB" fill-opacity="0.64"/>
<path d="M12.6002 2.23827C12.6094 2.39398 12.5736 2.54901 12.4973 2.68359C12.421 2.81818 12.3077 2.92623 12.1718 2.99399C12.036 3.06175 11.8837 3.08615 11.7343 3.06408C11.585 3.04201 11.4454 2.97447 11.3333 2.87006C11.2213 2.76565 11.1418 2.6291 11.105 2.4778C11.0682 2.32651 11.0758 2.16731 11.1268 2.0205C11.1778 1.87368 11.2699 1.74589 11.3914 1.65341C11.5129 1.56093 11.6582 1.50793 11.8089 1.50118C11.9078 1.49554 12.0067 1.51016 12.1 1.5442C12.1933 1.57824 12.2792 1.63103 12.3528 1.69954C12.4263 1.76804 12.486 1.8509 12.5285 1.94336C12.5709 2.03581 12.5953 2.13604 12.6002 2.23827Z" fill="url(#paint0_linear_4979_109)" fill-opacity="0.08"/>
<path d="M8.16856 11.3155C6.15155 11.3155 4.37874 10.567 3.46217 9.46121C3.81783 10.4558 4.45957 11.3139 5.30101 11.9199C6.14246 12.526 7.14322 12.8508 8.16859 12.8508C9.19395 12.8508 10.1947 12.526 11.0362 11.9199C11.8776 11.3139 12.5193 10.4558 12.875 9.46121C11.9606 10.5669 10.1946 11.3155 8.16856 11.3155Z" fill="#F7F8FB" fill-opacity="0.64"/>
<path d="M8.16856 11.3155C6.15155 11.3155 4.37874 10.567 3.46217 9.46121C3.81783 10.4558 4.45957 11.3139 5.30101 11.9199C6.14246 12.526 7.14322 12.8508 8.16859 12.8508C9.19395 12.8508 10.1947 12.526 11.0362 11.9199C11.8776 11.3139 12.5193 10.4558 12.875 9.46121C11.9606 10.5669 10.1946 11.3155 8.16856 11.3155Z" fill="url(#paint1_linear_4979_109)" fill-opacity="0.08"/>
<path d="M8.16856 4.12619C10.1856 4.12619 11.9584 4.87477 12.875 5.98048C12.5193 4.98584 11.8776 4.12777 11.0362 3.52175C10.1947 2.91573 9.19395 2.59085 8.16859 2.59085C7.14322 2.59085 6.14246 2.91573 5.30101 3.52175C4.45957 4.12777 3.81783 4.98584 3.46217 5.98048C4.37879 4.87254 6.14261 4.12619 8.16856 4.12619Z" fill="#F7F8FB" fill-opacity="0.64"/>
<path d="M8.16856 4.12619C10.1856 4.12619 11.9584 4.87477 12.875 5.98048C12.5193 4.98584 11.8776 4.12777 11.0362 3.52175C10.1947 2.91573 9.19395 2.59085 8.16859 2.59085C7.14322 2.59085 6.14246 2.91573 5.30101 3.52175C4.45957 4.12777 3.81783 4.98584 3.46217 5.98048C4.37879 4.87254 6.14261 4.12619 8.16856 4.12619Z" fill="url(#paint2_linear_4979_109)" fill-opacity="0.08"/>
<path d="M5.39232 13.4678C5.40476 13.7108 5.32936 13.9499 5.18078 14.1387C5.03221 14.3274 4.82107 14.4522 4.58845 14.4888C4.35582 14.5255 4.11833 14.4713 3.92218 14.3369C3.72602 14.2025 3.58522 13.9974 3.52715 13.7616C3.46908 13.5257 3.49791 13.276 3.60802 13.0609C3.71812 12.8458 3.90164 12.6808 4.12288 12.5979C4.34412 12.515 4.58726 12.5202 4.80501 12.6124C5.02276 12.7047 5.19956 12.8774 5.30101 13.097C5.3545 13.2132 5.38551 13.3392 5.39232 13.4678Z" fill="#F7F8FB" fill-opacity="0.64"/>
<path d="M5.39232 13.4678C5.40476 13.7108 5.32936 13.9499 5.18078 14.1387C5.03221 14.3274 4.82107 14.4522 4.58845 14.4888C4.35582 14.5255 4.11833 14.4713 3.92218 14.3369C3.72602 14.2025 3.58522 13.9974 3.52715 13.7616C3.46908 13.5257 3.49791 13.276 3.60802 13.0609C3.71812 12.8458 3.90164 12.6808 4.12288 12.5979C4.34412 12.515 4.58726 12.5202 4.80501 12.6124C5.02276 12.7047 5.19956 12.8774 5.30101 13.097C5.3545 13.2132 5.38551 13.3392 5.39232 13.4678Z" fill="url(#paint3_linear_4979_109)" fill-opacity="0.08"/>
<path d="M3.69139 3.87405C3.58272 3.87712 3.47559 3.8469 3.38348 3.78718C3.29137 3.72747 3.21839 3.64092 3.17371 3.53842C3.12903 3.43592 3.11465 3.32205 3.13238 3.21112C3.1501 3.10019 3.19914 2.99716 3.27333 2.91498C3.34752 2.8328 3.44355 2.77513 3.54933 2.74924C3.65512 2.72335 3.76595 2.73038 3.86789 2.76945C3.96982 2.80853 4.05831 2.87789 4.12223 2.96884C4.18615 3.05978 4.22265 3.16824 4.22713 3.28058C4.23138 3.43253 4.1775 3.58008 4.07719 3.69119C3.97689 3.8023 3.83825 3.86801 3.69139 3.87405Z" fill="#F7F8FB" fill-opacity="0.64"/>
<path d="M3.69139 3.87405C3.58272 3.87712 3.47559 3.8469 3.38348 3.78718C3.29137 3.72747 3.21839 3.64092 3.17371 3.53842C3.12903 3.43592 3.11465 3.32205 3.13238 3.21112C3.1501 3.10019 3.19914 2.99716 3.27333 2.91498C3.34752 2.8328 3.44355 2.77513 3.54933 2.74924C3.65512 2.72335 3.76595 2.73038 3.86789 2.76945C3.96982 2.80853 4.05831 2.87789 4.12223 2.96884C4.18615 3.05978 4.22265 3.16824 4.22713 3.28058C4.23138 3.43253 4.1775 3.58008 4.07719 3.69119C3.97689 3.8023 3.83825 3.86801 3.69139 3.87405Z" fill="url(#paint4_linear_4979_109)" fill-opacity="0.08"/>
<defs>
<linearGradient id="paint0_linear_4979_109" x1="8" y1="1.5" x2="8" y2="14.5" gradientUnits="userSpaceOnUse">
<stop stop-opacity="0"/>
<stop offset="1"/>
</linearGradient>
<linearGradient id="paint1_linear_4979_109" x1="8" y1="1.5" x2="8" y2="14.5" gradientUnits="userSpaceOnUse">
<stop stop-opacity="0"/>
<stop offset="1"/>
</linearGradient>
<linearGradient id="paint2_linear_4979_109" x1="8" y1="1.5" x2="8" y2="14.5" gradientUnits="userSpaceOnUse">
<stop stop-opacity="0"/>
<stop offset="1"/>
</linearGradient>
<linearGradient id="paint3_linear_4979_109" x1="8" y1="1.5" x2="8" y2="14.5" gradientUnits="userSpaceOnUse">
<stop stop-opacity="0"/>
<stop offset="1"/>
</linearGradient>
<linearGradient id="paint4_linear_4979_109" x1="8" y1="1.5" x2="8" y2="14.5" gradientUnits="userSpaceOnUse">
<stop stop-opacity="0"/>
<stop offset="1"/>
</linearGradient>
</defs>
</svg>
