<svg width="16" height="16" viewBox="0 0 16 16" fill="none" xmlns="http://www.w3.org/2000/svg">
<path d="M9.20366 11.5844C8.79843 12.074 8.30749 12.5594 7.73403 13.0406C7.85782 13.0236 7.98161 13.0035 8.10223 12.9803C8.4334 12.9137 8.75082 12.8164 9.05871 12.6831C9.2153 12.6154 9.36766 12.5425 9.51367 12.4632L9.52531 12.497C9.58139 12.6567 9.65545 12.7889 9.74327 12.8946C9.58244 12.9813 9.41739 13.0617 9.2481 13.1336C8.90741 13.2806 8.55614 13.3874 8.19428 13.4614C7.83349 13.5355 7.45894 13.5714 7.07381 13.5714C6.68868 13.5714 6.31836 13.5344 5.95333 13.4614C5.59571 13.3916 5.25079 13.2848 4.91327 13.141C4.91009 13.141 4.90375 13.1378 4.89951 13.1347C4.56517 12.9908 4.24776 12.8174 3.94939 12.6197C3.65207 12.423 3.37804 12.1956 3.12622 11.945C2.87229 11.6944 2.64798 11.4205 2.45119 11.1222C2.25016 10.8251 2.07981 10.5068 1.93592 10.1726C1.78885 9.8321 1.68198 9.48101 1.60792 9.11935C1.53703 8.75874 1.5 8.38439 1.5 8.00052C1.5 7.61664 1.53703 7.24546 1.61004 6.88063C1.67987 6.52319 1.78779 6.17845 1.93063 5.8411C1.93063 5.83793 1.9338 5.83159 1.93697 5.82736C2.08087 5.49002 2.25439 5.17594 2.45224 4.87772C2.64904 4.58057 2.87652 4.30667 3.12728 4.05499C3.37804 3.80119 3.65207 3.577 3.95044 3.38031C4.24776 3.17938 4.56623 3.00912 4.90057 2.86531C5.24126 2.71831 5.59254 2.61151 5.95439 2.53748C6.31519 2.46557 6.68974 2.42856 7.07487 2.42856C7.46 2.42856 7.83031 2.46557 8.19534 2.53854C8.55296 2.60833 8.89789 2.71514 9.2354 2.85896C9.23858 2.85896 9.24493 2.86213 9.24916 2.86531C9.5835 3.00912 9.90092 3.18255 10.1993 3.38031C10.4966 3.577 10.7706 3.80436 11.0225 4.05499C11.2764 4.30562 11.5007 4.57951 11.6975 4.87772C11.8985 5.17488 12.0689 5.49319 12.2128 5.82736C12.3598 6.16787 12.4667 6.51896 12.5408 6.88063C12.545 6.90177 12.5492 6.92293 12.5534 6.94408L12.0128 6.75373C11.9504 6.5031 11.8689 6.25987 11.7652 6.02194C11.6816 5.82524 11.5874 5.63806 11.4848 5.45723H9.85013C9.97815 5.67613 10.0903 5.89398 10.1866 6.11182L9.5306 5.88129C9.45336 5.74064 9.36978 5.59894 9.27878 5.45723H8.32336C8.21121 5.42234 8.09059 5.41388 7.97315 5.43185C7.93612 5.4382 7.89909 5.44666 7.86205 5.45723H7.31822V7.75623H7.85465L8.02605 8.24374H7.31822V10.5427H8.83652L9.00792 11.0302H7.31822V12.7497C8.00701 12.185 8.57201 11.614 9.01216 11.0429L9.20366 11.5844ZM13.3819 12.2421C13.3004 12.3151 13.1745 12.3162 13.1005 12.2421L11.6213 10.7722L10.9198 12.1671C10.7082 12.5879 10.3315 12.7783 10.1538 12.2749L8.02605 6.23555C7.98267 6.11182 8.03452 6.06212 8.15725 6.10548L14.1987 8.23105C14.7023 8.40871 14.5108 8.78518 14.0908 8.99668L12.6952 9.6978L14.1659 11.1751C14.2389 11.2491 14.2389 11.376 14.1659 11.4564L13.3819 12.2421ZM6.41887 13.0406C5.62957 12.3786 4.99791 11.7102 4.5292 11.0324H2.98762C3.13469 11.2333 3.29869 11.4205 3.47538 11.5971C3.70603 11.8276 3.95362 12.0317 4.22448 12.2125C4.49217 12.3934 4.78313 12.5499 5.09737 12.6842C5.1016 12.6863 5.10478 12.6863 5.10795 12.6895C5.41267 12.8164 5.72691 12.9168 6.05385 12.9803C6.17447 13.0035 6.29826 13.0236 6.42205 13.0406H6.41887ZM2.66703 10.5438H4.21919C3.7875 9.78874 3.55368 9.01994 3.52722 8.2448H1.99517C2.00892 8.51234 2.03855 8.76932 2.08933 9.02312C2.15599 9.35411 2.25333 9.67136 2.38665 9.97909C2.47023 10.1758 2.56334 10.363 2.66703 10.5438ZM1.99517 7.75623H3.53675C3.59388 6.99378 3.84781 6.22921 4.2996 5.45723H2.66703C2.56334 5.63806 2.47023 5.82524 2.38665 6.02194C2.38347 6.02511 2.38347 6.02828 2.3803 6.03145C2.25333 6.33601 2.15282 6.65009 2.08933 6.97686C2.03855 7.23171 2.00469 7.48869 1.99517 7.75623ZM2.98444 4.96867H4.61278C5.07833 4.30033 5.68988 3.62882 6.45273 2.95308C6.31519 2.97 6.18187 2.99009 6.05173 3.01653C5.72056 3.08315 5.40315 3.18044 5.09525 3.31368C4.78419 3.44693 4.49322 3.6045 4.22236 3.78533C3.9515 3.96616 3.70392 4.1692 3.47326 4.40079C3.29657 4.57845 3.13257 4.76457 2.9855 4.9655V4.96867H2.98444ZM7.697 2.95308C8.46303 3.62776 9.07458 4.30033 9.53589 4.96867H11.1642C11.0172 4.76774 10.8532 4.58057 10.6765 4.40396C10.4458 4.17343 10.1982 3.96933 9.92737 3.7885C9.65968 3.60767 9.36872 3.45116 9.05448 3.31686C9.0513 3.31368 9.04813 3.31368 9.04495 3.31051C8.74024 3.18361 8.426 3.08315 8.09906 3.0197C7.96574 2.99326 7.83137 2.97317 7.69806 2.95625V2.95308H7.697ZM7.31822 3.27033V4.96867H8.93703C8.51276 4.40714 7.97421 3.84243 7.31822 3.27033ZM6.83046 12.7497V11.0313H5.12805C5.56609 11.6066 6.13532 12.1819 6.83046 12.7497ZM6.83046 10.5438V8.24374H4.01498C4.04461 9.01571 4.30595 9.78134 4.78736 10.5427H6.83046V10.5438ZM6.83046 7.75623V5.45723H4.87095C4.36943 6.23555 4.08799 7.00118 4.02451 7.75623H6.83046ZM6.83046 4.96867V3.27033C6.17552 3.84138 5.63698 4.40714 5.21164 4.96867H6.83046Z" fill="#F7F8FB" fill-opacity="0.64"/>
<path d="M9.20366 11.5844C8.79843 12.074 8.30749 12.5594 7.73403 13.0406C7.85782 13.0236 7.98161 13.0035 8.10223 12.9803C8.4334 12.9137 8.75082 12.8164 9.05871 12.6831C9.2153 12.6154 9.36766 12.5425 9.51367 12.4632L9.52531 12.497C9.58139 12.6567 9.65545 12.7889 9.74327 12.8946C9.58244 12.9813 9.41739 13.0617 9.2481 13.1336C8.90741 13.2806 8.55614 13.3874 8.19428 13.4614C7.83349 13.5355 7.45894 13.5714 7.07381 13.5714C6.68868 13.5714 6.31836 13.5344 5.95333 13.4614C5.59571 13.3916 5.25079 13.2848 4.91327 13.141C4.91009 13.141 4.90375 13.1378 4.89951 13.1347C4.56517 12.9908 4.24776 12.8174 3.94939 12.6197C3.65207 12.423 3.37804 12.1956 3.12622 11.945C2.87229 11.6944 2.64798 11.4205 2.45119 11.1222C2.25016 10.8251 2.07981 10.5068 1.93592 10.1726C1.78885 9.8321 1.68198 9.48101 1.60792 9.11935C1.53703 8.75874 1.5 8.38439 1.5 8.00052C1.5 7.61664 1.53703 7.24546 1.61004 6.88063C1.67987 6.52319 1.78779 6.17845 1.93063 5.8411C1.93063 5.83793 1.9338 5.83159 1.93697 5.82736C2.08087 5.49002 2.25439 5.17594 2.45224 4.87772C2.64904 4.58057 2.87652 4.30667 3.12728 4.05499C3.37804 3.80119 3.65207 3.577 3.95044 3.38031C4.24776 3.17938 4.56623 3.00912 4.90057 2.86531C5.24126 2.71831 5.59254 2.61151 5.95439 2.53748C6.31519 2.46557 6.68974 2.42856 7.07487 2.42856C7.46 2.42856 7.83031 2.46557 8.19534 2.53854C8.55296 2.60833 8.89789 2.71514 9.2354 2.85896C9.23858 2.85896 9.24493 2.86213 9.24916 2.86531C9.5835 3.00912 9.90092 3.18255 10.1993 3.38031C10.4966 3.577 10.7706 3.80436 11.0225 4.05499C11.2764 4.30562 11.5007 4.57951 11.6975 4.87772C11.8985 5.17488 12.0689 5.49319 12.2128 5.82736C12.3598 6.16787 12.4667 6.51896 12.5408 6.88063C12.545 6.90177 12.5492 6.92293 12.5534 6.94408L12.0128 6.75373C11.9504 6.5031 11.8689 6.25987 11.7652 6.02194C11.6816 5.82524 11.5874 5.63806 11.4848 5.45723H9.85013C9.97815 5.67613 10.0903 5.89398 10.1866 6.11182L9.5306 5.88129C9.45336 5.74064 9.36978 5.59894 9.27878 5.45723H8.32336C8.21121 5.42234 8.09059 5.41388 7.97315 5.43185C7.93612 5.4382 7.89909 5.44666 7.86205 5.45723H7.31822V7.75623H7.85465L8.02605 8.24374H7.31822V10.5427H8.83652L9.00792 11.0302H7.31822V12.7497C8.00701 12.185 8.57201 11.614 9.01216 11.0429L9.20366 11.5844ZM13.3819 12.2421C13.3004 12.3151 13.1745 12.3162 13.1005 12.2421L11.6213 10.7722L10.9198 12.1671C10.7082 12.5879 10.3315 12.7783 10.1538 12.2749L8.02605 6.23555C7.98267 6.11182 8.03452 6.06212 8.15725 6.10548L14.1987 8.23105C14.7023 8.40871 14.5108 8.78518 14.0908 8.99668L12.6952 9.6978L14.1659 11.1751C14.2389 11.2491 14.2389 11.376 14.1659 11.4564L13.3819 12.2421ZM6.41887 13.0406C5.62957 12.3786 4.99791 11.7102 4.5292 11.0324H2.98762C3.13469 11.2333 3.29869 11.4205 3.47538 11.5971C3.70603 11.8276 3.95362 12.0317 4.22448 12.2125C4.49217 12.3934 4.78313 12.5499 5.09737 12.6842C5.1016 12.6863 5.10478 12.6863 5.10795 12.6895C5.41267 12.8164 5.72691 12.9168 6.05385 12.9803C6.17447 13.0035 6.29826 13.0236 6.42205 13.0406H6.41887ZM2.66703 10.5438H4.21919C3.7875 9.78874 3.55368 9.01994 3.52722 8.2448H1.99517C2.00892 8.51234 2.03855 8.76932 2.08933 9.02312C2.15599 9.35411 2.25333 9.67136 2.38665 9.97909C2.47023 10.1758 2.56334 10.363 2.66703 10.5438ZM1.99517 7.75623H3.53675C3.59388 6.99378 3.84781 6.22921 4.2996 5.45723H2.66703C2.56334 5.63806 2.47023 5.82524 2.38665 6.02194C2.38347 6.02511 2.38347 6.02828 2.3803 6.03145C2.25333 6.33601 2.15282 6.65009 2.08933 6.97686C2.03855 7.23171 2.00469 7.48869 1.99517 7.75623ZM2.98444 4.96867H4.61278C5.07833 4.30033 5.68988 3.62882 6.45273 2.95308C6.31519 2.97 6.18187 2.99009 6.05173 3.01653C5.72056 3.08315 5.40315 3.18044 5.09525 3.31368C4.78419 3.44693 4.49322 3.6045 4.22236 3.78533C3.9515 3.96616 3.70392 4.1692 3.47326 4.40079C3.29657 4.57845 3.13257 4.76457 2.9855 4.9655V4.96867H2.98444ZM7.697 2.95308C8.46303 3.62776 9.07458 4.30033 9.53589 4.96867H11.1642C11.0172 4.76774 10.8532 4.58057 10.6765 4.40396C10.4458 4.17343 10.1982 3.96933 9.92737 3.7885C9.65968 3.60767 9.36872 3.45116 9.05448 3.31686C9.0513 3.31368 9.04813 3.31368 9.04495 3.31051C8.74024 3.18361 8.426 3.08315 8.09906 3.0197C7.96574 2.99326 7.83137 2.97317 7.69806 2.95625V2.95308H7.697ZM7.31822 3.27033V4.96867H8.93703C8.51276 4.40714 7.97421 3.84243 7.31822 3.27033ZM6.83046 12.7497V11.0313H5.12805C5.56609 11.6066 6.13532 12.1819 6.83046 12.7497ZM6.83046 10.5438V8.24374H4.01498C4.04461 9.01571 4.30595 9.78134 4.78736 10.5427H6.83046V10.5438ZM6.83046 7.75623V5.45723H4.87095C4.36943 6.23555 4.08799 7.00118 4.02451 7.75623H6.83046ZM6.83046 4.96867V3.27033C6.17552 3.84138 5.63698 4.40714 5.21164 4.96867H6.83046Z" fill="url(#paint0_linear_4979_77)" fill-opacity="0.08"/>
<defs>
<linearGradient id="paint0_linear_4979_77" x1="8" y1="2.42856" x2="8" y2="13.5714" gradientUnits="userSpaceOnUse">
<stop stop-opacity="0"/>
<stop offset="1"/>
</linearGradient>
</defs>
</svg>
