<svg width="128" height="128" viewBox="0 0 128 128" fill="none" xmlns="http://www.w3.org/2000/svg">
<g clip-path="url(#clip0_5027_115242)">
<path d="M0 24C0 10.7452 10.7452 0 24 0H104C117.255 0 128 10.7452 128 24V104C128 117.255 117.255 128 104 128H24C10.7452 128 0 117.255 0 104V24Z" fill="url(#paint0_linear_5027_115242)"/>
<path d="M39.2056 88.6134C28.5397 91.2995 18.2933 92.7798 9 93.1534C19.8652 94.2109 32.6664 93.5182 46.6227 90.5953V86.5625C44.192 87.2936 41.7189 87.9804 39.2048 88.6134" fill="#E11A22"/>
<path d="M118.88 40.263C117.322 28.1955 100.655 21.5829 77.5583 22.0204L76.875 22.0598C93.013 23.9155 103.926 30.0785 105.173 39.7313C106.53 50.2354 96.1117 62.4471 79.0463 72.5962V80.1796C104 69.0868 120.571 53.3482 118.882 40.2639" fill="#E11A22"/>
<path d="M46.6232 90.5958V106.93H79.0446V80.1797C71.0792 83.7202 62.2673 86.7918 52.9132 89.1479C50.7923 89.6817 48.6954 90.1629 46.623 90.597" fill="black"/>
<path d="M79.0459 55.4543H46.6245V86.5646C58.8279 82.8934 69.8905 78.0417 79.0459 72.5967V55.4531" fill="black"/>
<path d="M46.623 86.5617V90.5945C48.6954 90.1604 50.7923 89.6791 52.9132 89.1454C62.2676 86.7894 71.0801 83.7179 79.0446 80.1772V72.5938C69.8884 78.0388 58.8264 82.8904 46.6232 86.5616" fill="white"/>
</g>
<defs>
<linearGradient id="paint0_linear_5027_115242" x1="64" y1="0" x2="64" y2="128" gradientUnits="userSpaceOnUse">
<stop stop-color="white"/>
<stop offset="1" stop-color="#EEEEEE"/>
</linearGradient>
<clipPath id="clip0_5027_115242">
<rect width="128" height="128" fill="white"/>
</clipPath>
</defs>
</svg>
