<svg width="128" height="128" viewBox="0 0 128 128" fill="none" xmlns="http://www.w3.org/2000/svg">
<g clip-path="url(#clip0_5027_121245)">
<path d="M57.5858 127.737C47.7309 126.793 37.754 123.254 29.1837 117.662C22.0022 112.978 20.3815 111.05 20.3815 107.206C20.3815 99.4852 28.8715 85.9591 43.3982 70.5433C51.6458 61.7857 63.1363 51.5263 64.3779 51.8029C66.7955 52.3426 86.1099 71.1827 93.342 80.0533C104.776 94.0744 110.031 105.559 107.36 110.678C105.331 114.569 92.7339 122.176 83.4811 125.098C75.8535 127.507 65.8365 128.527 57.5858 127.737ZM10.6812 99.1789C4.71291 90.0227 1.69754 81.0094 0.243388 67.9725C-0.238357 63.668 -0.0688543 61.2073 1.33326 52.3694C3.07735 41.3665 9.34747 28.6241 16.8859 20.7883C20.0945 17.4577 20.38 17.3685 24.2934 18.6918C29.0365 20.2977 34.1068 23.8007 41.9723 30.9139L46.5667 35.0682L44.0539 38.146C32.4147 52.4348 20.1302 72.7008 15.5061 85.235C12.9933 92.0449 11.9822 98.8845 13.0676 101.732C13.7962 103.656 13.1271 102.939 10.6738 99.1833L10.6812 99.1789ZM115.435 100.736C116.026 97.857 115.279 92.5727 113.532 87.2408C109.748 75.6953 97.0963 54.2175 85.4795 39.6135L81.8218 35.0161L85.7798 31.3837C90.9452 26.6406 94.5315 23.8007 98.4033 21.3875C101.456 19.4843 105.82 17.7997 107.696 17.7997C108.852 17.7997 112.924 22.0373 116.21 26.6466C121.301 33.7835 125.045 42.452 126.942 51.4624C128.169 57.2909 128.271 69.7508 127.14 75.5645C126.203 80.3343 124.241 86.5167 122.337 90.7112C120.895 93.8529 117.342 99.9565 115.78 101.943C114.977 102.964 114.977 102.963 115.423 100.759L115.435 100.736ZM58.6415 15.62C53.2799 12.899 45.0099 9.97732 40.4423 9.18928C38.8424 8.91421 36.111 8.75809 34.3759 8.8473C30.6052 9.03762 30.7732 8.84136 36.8188 5.98509C41.8444 3.61056 46.0374 2.21439 51.7321 1.01895C58.133 -0.326659 70.1692 -0.341528 76.469 0.986243C83.2715 2.42107 91.2842 5.40223 95.7983 8.18267L97.1424 9.0064L94.0646 8.85176C87.9447 8.54249 79.0265 11.0152 69.451 15.672C66.5635 17.0786 64.0537 18.1997 63.8693 18.17C63.6865 18.1343 61.3328 16.9879 58.6356 15.62H58.6415Z" fill="#107C10"/>
</g>
<defs>
<clipPath id="clip0_5027_121245">
<rect width="128" height="128" fill="white"/>
</clipPath>
</defs>
</svg>
