<svg width="128" height="128" viewBox="0 0 128 128" fill="none" xmlns="http://www.w3.org/2000/svg">
<path d="M126.621 59.9447C125.294 56.5972 122.062 54.1154 118.483 53.6537C117.098 46.67 114.501 39.9749 110.634 34.0301C109.422 32.5872 111.096 31.1443 111.615 29.8168C113.981 25.0264 111.673 18.793 106.998 16.3112C103.131 14.2334 98.1093 14.8683 94.8195 17.8118C91.4142 15.8495 88.0667 13.7717 84.3728 12.4442C81.2562 11.1744 77.9086 10.4241 74.6765 9.50066C74.2725 6.15311 72.3679 3.03643 69.4243 1.42037C65.6728 -0.88828 60.536 -0.311117 57.3039 2.63242C55.2261 4.30619 54.0718 6.90343 53.7255 9.55838C49.9162 10.7704 45.9915 11.5207 42.4708 13.3099C39.7004 14.4643 37.1609 16.0226 34.5636 17.5232C33.5248 18.2735 32.6013 17.0615 31.7355 16.5998C29.4269 14.9837 26.3679 14.926 23.713 15.3877C19.7883 16.4266 16.6139 19.9473 16.0944 23.9875C15.4595 27.2196 16.787 30.4517 18.8071 32.9335C14.8247 39.2246 11.8234 46.1505 10.4382 53.4805C7.61012 54.0577 4.89745 55.3851 3.10824 57.7515C0.857304 60.4642 0.568723 64.3312 1.49218 67.5633C2.76194 71.488 6.51351 74.2584 10.5536 74.6624C12.0543 81.2998 14.5938 87.764 18.3454 93.5357C19.442 94.8631 17.8836 96.0752 17.2487 97.1718C14.3629 101.847 16.1521 108.484 20.8272 111.255C24.3479 113.563 29.2537 113.332 32.6013 110.793C33.3516 110.216 34.3328 109.408 35.2562 110.158C40.8547 113.794 47.2612 115.93 53.6678 117.719C53.7255 124.183 60.5937 129.435 66.8271 127.646C71.2712 126.492 74.5611 122.278 74.7919 117.719C81.7179 116.218 88.413 113.506 94.4732 109.812C97.359 112.409 101.515 113.794 105.266 112.409C110.576 110.908 113.924 104.733 112.192 99.4804C111.788 97.7489 110.518 96.4215 109.768 94.8631C113.75 88.7452 116.925 82.0501 118.195 74.8933C120.042 74.3161 122.004 73.7967 123.505 72.5269C127.083 69.5834 128.584 64.158 126.621 59.9447ZM107.863 69.2948C109.479 72.1806 112.481 74.0853 115.713 74.4893C114.385 81.2421 111.73 87.8217 107.517 93.3048C102.149 89.7841 94.0692 92.5545 92.1646 98.7301C90.8371 101.731 91.876 104.906 92.6263 107.849C87.3164 111.601 80.9676 113.736 74.6765 115.179C73.4067 111.139 70.1746 107.503 65.7305 107.041C60.536 105.945 55.1684 109.812 53.8986 114.891C47.3767 114.14 41.3165 111.081 35.718 107.792C36.4106 105.31 37.5649 102.655 36.6992 100.058C35.5448 94.286 28.9074 90.419 23.3667 92.3813C22.3855 92.5545 20.9426 93.5356 20.3654 92.2659C16.9024 86.8983 14.3629 80.8958 13.2086 74.6047C16.9602 73.9121 20.3654 71.2571 21.462 67.5633C23.713 61.7339 19.442 54.5771 13.2086 53.8268C13.2086 50.9987 14.1898 48.286 15.1132 45.6311C16.6139 41.8218 18.2876 38.0125 20.654 34.665C23.4821 35.9347 26.6565 36.7428 29.6578 35.6462C33.8133 34.3764 36.8146 30.3363 36.9877 26.0075C37.1032 23.8143 36.2374 21.7942 35.3717 19.8319C40.797 16.138 47.0304 13.3677 53.61 12.2133C54.4758 16.5998 58.1119 20.3513 62.6138 20.9285C68.1546 21.9097 73.5799 17.6387 74.5611 12.2133C80.9676 13.1945 87.0855 15.7917 92.4531 19.2547C92.7417 19.2547 93.3189 19.197 93.6075 19.197C91.5874 21.7365 91.1257 25.1418 91.7605 28.2585C92.9726 32.9335 97.6476 36.3965 102.438 36.0502C104.285 36.1079 105.901 35.069 107.633 34.665C108.614 34.7804 108.96 35.9925 109.479 36.6851C112.365 41.9372 114.963 47.5357 115.655 53.5382C111.557 54.1731 107.806 57.0589 106.767 61.1568C106.363 63.8694 106.363 66.8707 107.863 69.2948Z" fill="#8EC545"/>
<path d="M63.1898 40.6083C67.5762 41.3008 71.905 37.2607 71.5009 32.8743C71.3855 28.3724 66.5373 24.8517 62.2086 26.1214C59.8422 26.7563 57.7645 28.5455 57.0719 30.9696C55.5135 35.1252 58.7456 40.1465 63.1898 40.6083ZM40.2764 34.8943C37.7946 35.6446 35.6591 37.6647 35.0242 40.262C33.7545 44.533 37.3329 49.4389 41.777 49.4389C46.8561 50.016 51.1271 44.129 49.0493 39.5116C47.895 35.9332 43.8548 33.9709 40.2764 34.8943ZM83.5059 48.9771C88.0078 50.7663 93.6063 46.9571 93.4332 42.0512C93.5486 37.3761 88.7004 33.5669 84.1985 34.8366C82.0053 35.3561 80.1584 37.0298 79.2927 39.1076C77.388 42.8015 79.639 47.6496 83.5059 48.9771ZM40.3918 59.8278C38.2563 56.3648 33.1196 55.2682 29.8875 57.8077C26.2513 60.1741 25.8473 65.9457 28.9063 68.947C30.176 70.3899 32.0807 70.7939 33.8122 71.4288C35.4859 70.9671 37.3906 70.7939 38.7181 69.5819C41.6616 67.3886 42.5273 62.8868 40.3918 59.8278ZM91.644 56.8265C88.8159 57.75 86.7381 60.5204 86.6226 63.4639C86.334 67.6195 90.1433 71.4865 94.2989 71.1979C98.9162 71.1402 102.668 66.0612 101.109 61.6747C100.186 57.8077 95.4532 55.3259 91.644 56.8265ZM83.9677 78.5856C80.6201 79.5668 78.196 83.0298 78.6578 86.5505C79.0041 90.302 82.5825 93.4187 86.334 93.1301C90.9514 93.0724 94.6452 87.9934 93.0869 83.6069C92.048 79.8554 87.6615 77.4313 83.9677 78.5856ZM40.7381 78.4702C38.2563 78.9896 36.1208 80.7788 35.1974 83.2029C33.5236 87.2431 36.4094 92.2644 40.6804 93.0147C45.644 94.2845 50.7808 89.09 49.3379 84.1264C48.6453 80.2594 44.4897 77.6621 40.7381 78.4702ZM63.3052 87.3008C60.5926 87.4162 58.2262 89.3786 57.245 91.8027C55.8021 95.0348 57.245 99.2481 60.3617 100.922C64.1133 103.288 69.5386 101.326 70.9815 97.1703C73.1747 92.3798 68.5574 86.3196 63.3052 87.3008Z" fill="#8EC545"/>
</svg>
