<svg width="128" height="128" viewBox="0 0 128 128" fill="none" xmlns="http://www.w3.org/2000/svg">
<path d="M103.36 0H11.52C5.12 0 0 5.12 0 11.52V116.48C0 122.88 5.12 128 11.52 128H103.36C109.76 128 114.88 122.88 114.88 116.48V11.52C114.88 5.12 109.76 0 103.36 0ZM108.48 116.48C108.48 119.36 106.24 121.6 103.36 121.6H11.52C8.64 121.6 6.4 119.36 6.4 116.48V11.52C6.4 8.64 8.64 6.4 11.52 6.4H103.36C106.24 6.4 108.48 8.64 108.48 11.52V116.48ZM28.8 108.8L43.2 96L28.8 83.2V108.8ZM80.64 56.96C78.08 54.4 73.28 51.2 65.28 51.2C56.64 51.2 47.68 53.44 41.28 55.68V19.2H28.48V74.56L37.44 70.4C37.44 70.4 52.16 63.68 64.96 63.68C71.36 63.68 72.96 67.2 72.96 70.4V108.8H85.76V70.4C86.08 69.44 86.08 62.4 80.64 56.96ZM63.68 40H76.48C82.24 33.28 85.12 26.56 86.08 19.2H73.28C72 26.56 68.8 33.28 63.68 40Z" fill="white"/>
</svg>
