<svg width="128" height="128" viewBox="0 0 128 128" fill="none" xmlns="http://www.w3.org/2000/svg">
<ellipse cx="65.9899" cy="66.3888" rx="53.3827" ry="47.4513" fill="white"/>
<path d="M105.608 27.8818C114.786 37.4825 122.795 47.8173 125.999 61.0558C126.808 64.399 127.178 67.8546 127.746 71.2352C123.263 70.2396 118.66 69.8967 114.079 70.2173C118.986 73.9368 123.409 78.2565 127.242 83.0754C126.697 87.0682 125.451 90.9333 123.562 94.4924C118.204 89.7671 112.225 86.4561 104.88 86.14C108.48 90.6082 110.382 95.7836 111.871 101.141C112.45 103.241 112.943 105.368 113.479 107.485C104.515 115.023 93.961 118.88 82.5976 120.921C74.1772 122.386 65.6079 122.804 57.0849 122.164C47.9093 121.628 38.8878 119.562 30.3935 116.051C30.4846 114.037 30.5381 112.017 30.6721 109.997C31.1328 103.032 32.3276 96.2336 36.1797 89.9546C26.4557 92.2744 19.7534 98.1731 14.7976 106.349C12.3438 103.638 9.89186 100.929 7.44166 98.2213C7.61621 97.9706 7.772 97.7074 7.90777 97.4337C10.3268 91.667 13.5895 86.2918 17.5889 81.4843C19.0301 79.7377 20.5516 78.0554 22.2446 76.1267C14.4869 76.9518 7.45774 79.0412 1.06616 83.0915C0.808993 81.7253 0.557187 80.3645 0.289308 79.0037C0.215266 78.7766 0.118332 78.5576 0 78.3501V77.2786L0.21966 76.7428V76.207V75.6713L0.251805 74.9427V72.5585V71.7549V70.962L0.0267874 70.4262V69.1029C0.310739 67.4956 0.562544 65.8884 0.883999 64.2811C2.44554 56.3098 5.53864 48.7172 9.99186 41.924C11.5991 39.4273 14.1226 37.4504 14.5565 34.2573C14.7226 33.909 14.9208 33.5715 15.0548 33.2126C16.1263 30.2445 17.1228 27.2335 18.3068 24.3029C20.0748 19.9419 22.0571 15.6612 24.9663 11.9162C25.2364 11.5219 25.6011 11.2015 26.0269 10.9844C26.4527 10.7673 26.9262 10.6603 27.404 10.6733C33.0444 10.6665 38.6502 11.5544 44.0124 13.3038C44.3658 13.3683 44.7262 13.3845 45.0839 13.352C45.3374 13.3891 45.5822 13.4707 45.8072 13.5931C46.9966 14.5254 48.2288 14.4504 49.6057 14.011C50.8699 13.653 52.1569 13.3809 53.4578 13.1967C58.1843 12.3451 62.9975 12.077 67.7893 12.3984C68.7322 12.4627 69.5091 12.4466 70.1788 11.7394C70.5538 11.6483 70.9396 11.5841 71.3092 11.4662C73.6451 10.7108 75.9596 9.85892 78.3276 9.22136C79.5354 8.80101 80.8533 8.8238 82.0458 9.28565C89.7018 12.5323 96.088 17.4506 101.579 23.6171C102.817 25.1173 104.237 26.4674 105.608 27.8818ZM46.6269 84.1845C53.1578 83.6487 59.6833 83.1612 66.2142 82.6361C73.7898 82.02 81.3707 81.4467 88.941 80.7503C93.5484 80.3917 98.0872 79.4187 102.437 77.8572C107.334 76.0249 111.427 73.2068 113.688 68.2671C115.456 64.3507 115.477 60.2308 114.759 56.1108C113.039 46.5529 108.137 38.8166 100.556 32.8911C88.6142 23.5582 74.9363 20.0329 60.0048 22.2081C47.8538 23.9654 37.5458 29.5212 29.7184 39.1273C22.7536 47.6191 19.7159 57.3323 21.1463 68.2564C22.0571 75.082 25.8556 79.7645 32.3972 82.0843C37.0208 83.713 41.7944 84.0023 46.6269 84.1845ZM45.9572 91.4279C45.459 91.8137 44.7464 92.1565 44.3928 92.7191C44.2107 93.0084 44.5214 93.8924 44.875 94.171C46.118 95.1621 46.4126 96.5497 46.7823 97.9213C47.6497 101.158 49.1683 104.185 51.2451 106.815C51.6791 107.377 52.0166 107.538 52.6488 107.152C55.5687 105.358 58.1832 103.247 59.9458 100.241C60.0588 99.9664 60.2605 99.7374 60.5188 99.5907C60.7771 99.4441 61.0772 99.3883 61.3709 99.4321C68.0545 99.7783 74.7532 99.1667 81.2636 97.6159C81.5843 97.4953 81.9347 97.4785 82.2654 97.5679C82.5962 97.6573 82.8904 97.8484 83.1066 98.1142C85.3246 100.482 88.1052 101.923 91.143 102.963C92.3163 103.359 92.8949 103.054 93.1788 101.945C93.8539 99.266 94.62 96.6194 95.1504 93.9085C95.4558 92.3333 94.9147 90.6939 95.9058 89.0866C96.4094 88.2937 95.9326 87.2115 94.8343 86.9008C93.8325 86.6168 93.2271 87.1472 92.7984 88.0794C92.4485 88.8241 91.9044 89.4607 91.2233 89.9224C89.6992 90.9669 88.0707 91.8503 86.364 92.5583C76.5457 96.194 65.9441 97.1843 55.6223 95.43C52.5095 94.9264 49.3914 94.1817 47.0127 91.8029C46.8626 91.6636 46.4876 91.6315 45.9572 91.4279Z" fill="#F39F1F"/>
<path d="M70.1038 11.7647C70.6541 11.1358 71.2466 10.5451 71.8771 9.99675C74.063 8.31447 76.3935 6.89471 79.1098 6.24645C79.2116 6.21966 79.2813 6.08572 79.367 6H80.6903C83.0476 7.07151 85.5121 8.00373 87.7516 9.2949C95.145 13.581 100.663 19.7314 105.26 26.8034C105.423 27.1436 105.54 27.5039 105.608 27.875C104.237 26.4606 102.817 25.0997 101.504 23.6318C96.013 17.4652 89.6267 12.5469 81.9708 9.30026C80.7783 8.83841 79.4604 8.81562 78.2526 9.23597C75.8846 9.88424 73.5701 10.7254 71.2342 11.4808C70.8645 11.6094 70.4788 11.6737 70.1038 11.7647Z" fill="#A74925"/>
<path d="M14.7871 106.386C19.7429 98.2107 26.4452 92.312 36.1692 89.9922C32.3171 96.2713 31.1223 103.059 30.6616 110.035C30.5276 112.055 30.4741 114.074 30.383 116.089C25.1031 113.957 20.1813 111.028 15.789 107.404C15.4377 107.082 15.1033 106.743 14.7871 106.386Z" fill="#A74925"/>
<path d="M1.05566 83.1211C7.44724 79.0654 14.4496 76.976 22.2341 76.1562C20.5411 78.0957 19.0196 79.778 17.5784 81.5138C13.5804 86.3164 10.3177 91.6861 7.89728 97.4472C7.76151 97.7209 7.60572 97.9841 7.43117 98.2348C4.20577 93.7352 2.02745 88.5713 1.05566 83.1211Z" fill="#A74925"/>
<path d="M113.468 107.516C112.932 105.373 112.45 103.273 111.861 101.173C110.371 95.8155 108.469 90.6401 104.869 86.1719C112.214 86.4719 118.193 89.7989 123.551 94.5243C121.772 97.2942 120.133 100.171 118.161 102.791C116.849 104.554 115.054 105.957 113.468 107.516Z" fill="#A74925"/>
<path d="M127.226 83.1073C123.393 78.2883 118.97 73.9686 114.063 70.2491C118.644 69.9286 123.247 70.2714 127.73 71.2671C128.216 75.2146 128.046 79.2153 127.226 83.1073Z" fill="#A74925"/>
<path d="M46.6269 84.1877C41.8051 84.0055 37.0208 83.7162 32.4293 82.0875C25.877 79.7677 22.0785 75.0851 21.1463 68.2596C19.6944 57.3355 22.7536 47.6062 29.6541 39.1305C37.4815 29.5244 47.7895 23.9686 59.9404 22.2113C74.872 20.0683 88.5499 23.5614 100.492 32.8943C108.073 38.8198 112.975 46.5561 114.695 56.114C115.429 60.2286 115.407 64.3539 113.623 68.2703C111.389 73.21 107.296 76.0281 102.372 77.8604C98.0229 79.4219 93.4841 80.3949 88.8767 80.7535C81.3064 81.4499 73.7255 82.0232 66.1499 82.6393C59.6833 83.1644 53.1578 83.668 46.6269 84.1877ZM45.9625 81.5089C51.1058 81.166 56.2491 80.8767 61.3816 80.4641C70.5913 79.7302 79.8009 78.9747 89.0053 78.1122C93.603 77.7439 98.1319 76.7693 102.474 75.2137C110.409 72.2564 114.1 66.5345 113.189 58.7017C112.182 50.001 108.341 42.7308 101.965 36.8107C93.5378 28.9993 83.4387 24.9758 72.0646 23.9257C61.8156 22.9774 52.1398 24.9329 43.3266 30.1834C29.6434 38.3429 21.8963 50.0439 22.7214 66.497C23.0375 72.8457 26.6164 77.6514 32.6651 79.7141C36.9779 81.166 41.4515 81.3749 45.9625 81.4928V81.5089Z" fill="#A74925"/>
<path d="M45.9571 91.4301C46.4929 91.6337 46.8411 91.6658 47.0286 91.8587C49.4074 94.2375 52.5255 94.9821 55.6382 95.4858C65.9608 97.2444 76.5644 96.2578 86.3853 92.6248C88.092 91.9168 89.7205 91.0334 91.2446 89.9889C91.9257 89.5272 92.4698 88.8905 92.8197 88.1459C93.2698 87.2137 93.8538 86.6833 94.8556 86.9672C95.9271 87.278 96.4254 88.3602 95.9271 89.1531C94.936 90.7229 95.4771 92.3677 95.1717 93.9749C94.636 96.6537 93.8752 99.3325 93.2001 102.011C92.9162 103.12 92.3376 103.426 91.1643 103.029C88.1104 101.99 85.3299 100.549 83.1279 98.1806C82.9117 97.9148 82.6175 97.7238 82.2867 97.6343C81.956 97.5449 81.6056 97.5617 81.2849 97.6824C74.7745 99.2331 68.0758 99.8447 61.3922 99.4986C61.0985 99.4547 60.7985 99.5106 60.5401 99.6572C60.2818 99.8039 60.0801 100.033 59.9671 100.308C58.2045 103.313 55.59 105.424 52.6701 107.219C52.0379 107.605 51.7004 107.444 51.2664 106.881C49.1896 104.251 47.671 101.225 46.8036 97.9877C46.4339 96.5948 46.1393 95.2072 44.8963 94.2374C44.5427 93.9589 44.232 93.0749 44.4141 92.7855C44.7463 92.1587 45.4588 91.8158 45.9571 91.4301ZM58.7295 99.4986L47.9662 96.8519C48.7277 100.081 50.191 103.103 52.2522 105.703C54.9257 104.047 57.1973 102.118 58.7295 99.4986ZM93.693 92.6891L84.1298 97.1466C86.2163 99.3017 88.8708 100.821 91.7857 101.529C93.0019 98.6521 93.8323 95.6947 93.693 92.6891Z" fill="#A74925"/>
<path d="M14.5244 34.2843C14.6423 32.9877 14.653 31.6644 14.8994 30.3893C16.4667 22.5247 19.3851 14.9912 23.5251 8.12327C23.9162 7.45893 24.2645 6.91782 25.2342 7.05176C31.5776 8.02683 37.7655 9.52695 43.5732 12.3504C44.0796 12.6487 44.5599 12.9892 45.009 13.3683C44.6513 13.4008 44.2908 13.3846 43.9375 13.3201C38.5752 11.5706 32.9694 10.6828 27.329 10.6895C26.8512 10.6766 26.3778 10.7836 25.9519 11.0007C25.5261 11.2178 25.1615 11.5382 24.8913 11.9325C21.9554 15.6828 19.9998 19.9689 18.2319 24.3192C17.0478 27.2498 16.0888 30.2607 14.9798 33.2288C14.8887 33.5985 14.7173 33.936 14.5244 34.2843Z" fill="#A74925"/>
<path d="M55.7134 49.499C56.0938 47.0399 56.4152 43.6057 57.1974 40.2197C57.9796 36.8337 59.5172 35.9658 63.0318 36.5819C69.0912 37.6534 74.3684 40.5197 79.367 43.9325C81.0693 45.1023 82.6473 46.4433 84.0763 47.9346C86.1604 50.1098 86.2569 51.6849 84.2853 53.9565C82.5671 55.9519 80.6618 57.7783 78.5956 59.4105C74.3684 62.7376 69.7931 65.5235 64.5587 67.0558C63.9674 67.2235 63.3662 67.3541 62.7586 67.4469C60.8513 67.7522 59.4422 67.2915 58.7243 65.4914C57.7168 62.979 56.9455 60.3783 56.4206 57.7229C55.9705 55.3763 55.9705 52.9279 55.7134 49.499Z" fill="#A74925"/>
</svg>
