<svg width="128" height="128" viewBox="0 0 128 128" fill="none" xmlns="http://www.w3.org/2000/svg">
<path d="M127.832 63.922C127.832 99.2229 99.214 127.836 63.9179 127.836C28.617 127.836 0.00390625 99.2229 0.00390625 63.922C0.00390625 28.6211 28.617 0.00328064 63.9179 0.00328064C99.214 0.00328064 127.832 28.6211 127.832 63.922Z" fill="white"/>
<path d="M11.6466 76.2927L11.7321 76.0742L11.9839 75.3903L12.2309 74.7728L12.3401 74.4878C13.5323 71.5476 15.0333 68.522 16.8525 65.4583C17.09 64.9501 17.3369 64.4514 17.5839 63.9479L9.92718 63.9669L11.7844 59.863C18.1112 58.1388 28.6511 54.6144 38.7113 44.8582L39.0105 44.8392H44.3066L37.4573 59.5163L48.458 59.483L46.4393 63.8529L35.4576 63.8909C35.4576 63.8909 30.304 74.1886 28.5561 81.5556C27.2024 89.7776 28.5323 95.9144 35.8994 98.2133C40.4497 99.624 46.1258 99.301 52.2436 97.5673C66.4789 93.1357 81.6974 83.3463 92.831 70.3934C111.161 49.0999 111.517 27.3123 93.6433 21.7502C82.1724 18.1878 65.9991 22.1492 51.0324 31.0694C69.6945 19.0333 90.2139 13.381 104.373 17.7889C107.028 18.6153 109.327 19.7553 111.284 21.1612C99.5853 8.26541 82.6949 0.171677 63.914 0.171677C28.6226 0.171677 0 28.7895 0 64.0856C0 77.1192 3.90912 89.2361 10.6017 99.3438C8.06999 93.0977 8.42623 85.0847 11.6466 76.2927Z" fill="#D71920"/>
<path d="M118.111 30.1769C122.386 41.7903 117.038 59.1225 102.275 76.2789C80.1122 102.052 45.1011 117.636 24.0878 111.095C21.4801 110.283 19.2144 109.167 17.2812 107.785C28.9421 120.229 45.5191 128 63.9153 128C99.2209 128 127.839 99.3869 127.839 64.086C127.839 51.6224 124.262 40.0043 118.111 30.1769Z" fill="#D71920"/>
</svg>
