<svg width="128" height="128" viewBox="0 0 128 128" fill="none" xmlns="http://www.w3.org/2000/svg">
<rect width="128" height="128" rx="24" fill="url(#paint0_linear_5027_123248)"/>
<path d="M22.4108 76.7063C22.4108 78.8969 21.0882 79.8888 18.2364 79.8888C15.3226 79.8888 14 78.8349 14 76.7063V50.6059C14 48.2707 15.1159 47.2788 17.6371 47.2788C19.9723 47.2788 20.7576 47.7954 21.2742 49.8C21.3982 50.1926 21.6049 50.3993 21.7909 50.3993C21.9975 50.3993 22.1215 50.3166 22.5762 49.8826C24.2294 48.2914 27.0192 47.2994 29.871 47.2994C31.5863 47.2994 32.4542 48.2087 32.4542 50.0273C32.4542 54.2017 31.6689 55.7309 29.6024 55.7309C24.56 55.7309 22.1835 58.4588 22.3902 63.9351V76.7063H22.4108ZM35.5954 41.3271C35.5954 39.0746 36.9386 38 39.7905 38C42.7249 38 44.0269 39.0746 44.0269 41.3271V46.0802C44.0269 47.0721 44.3575 47.4028 45.3495 47.4028H47.602C49.8545 47.4028 50.9291 48.6634 50.9291 51.3705C50.9291 54.0157 49.8545 55.297 47.602 55.297H45.3495C44.4402 55.297 44.0269 55.6896 44.0269 56.6195V66.5596C44.0269 71.0647 45.4941 73.2552 48.4699 73.2552C49.1932 73.2552 49.9372 73.1726 51.9211 72.9866C52.1277 72.9039 52.3137 72.9039 52.5824 72.9039C54.0496 72.9039 54.6902 73.6272 54.6902 75.3631C54.6902 78.6076 51.8384 80.4055 46.796 80.4055C39.3771 80.4055 35.5954 75.5697 35.5954 66.0843V41.3271ZM73.0618 51.9905C74.405 48.1467 75.397 47.2374 78.1042 47.2374C80.6253 47.2374 81.9479 48.2294 81.9479 50.0893C81.9479 50.5646 81.8653 50.7506 81.6173 51.5565L72.7931 75.3424C71.4499 78.9795 70.4166 79.9095 67.7508 79.9095C65.1056 79.9095 64.031 79.0002 62.7084 75.3424L53.9049 51.5359C53.6363 50.8746 53.5743 50.5439 53.5743 50.0686C53.5743 48.2087 54.9175 47.2168 57.4181 47.2168C60.1459 47.2168 61.0552 48.1261 62.3778 51.9698L66.8208 64.7617C67.0275 65.2784 67.2961 65.547 67.7301 65.547C68.1228 65.547 68.4534 65.2784 68.5981 64.7617L73.0618 51.9905ZM91.5573 70.6927C90.7721 70.6927 90.4414 71.0233 90.4414 71.6846C90.4414 78.2563 94.7605 82.3067 101.849 82.3067C104.37 82.3067 106.085 81.914 109.206 80.6534C110.28 80.2608 110.714 80.1368 111.189 80.1368C112.305 80.1368 113.132 81.1287 113.132 82.658C113.132 86.6258 107.697 89.6842 100.485 89.6842C88.6849 89.6842 82.0512 82.1207 82.0512 68.6675C82.0512 55.3383 88.4162 47.3201 98.9349 47.3201C107.945 47.3201 114 54.0984 114 64.1624C114 69.2048 112.677 70.734 108.255 70.734H91.5573V70.6927ZM104.804 63.9971C105.589 63.9971 105.878 63.6665 105.878 62.7985C105.878 56.7022 103.233 53.3957 98.4596 53.3957C93.7479 53.3957 90.5654 57.3635 90.5654 63.0672C90.5654 63.6665 90.9581 63.9764 91.64 63.9764C91.64 63.9971 104.804 63.9971 104.804 63.9971Z" fill="white"/>
<defs>
<linearGradient id="paint0_linear_5027_123248" x1="24.453" y1="146.632" x2="147.735" y2="82.9152" gradientUnits="userSpaceOnUse">
<stop stop-color="#F5A717"/>
<stop offset="1" stop-color="#E6511F"/>
</linearGradient>
</defs>
</svg>
