<svg width="128" height="128" viewBox="0 0 128 128" fill="none" xmlns="http://www.w3.org/2000/svg">
<g clip-path="url(#clip0_5027_123286)">
<path d="M99.4658 99.5098C70.0658 128.91 30.3658 136.91 10.7658 117.21C-8.83418 97.5098 -0.934181 57.9098 28.4658 28.5098C57.8658 -0.890152 97.5658 -8.89015 117.166 10.8098C136.766 30.5098 128.866 70.1098 99.4658 99.5098Z" fill="url(#paint0_linear_5027_123286)"/>
<path d="M72.5658 82.0156C73.3658 84.0156 73.1658 86.7156 72.7658 88.2156C72.0658 91.0156 70.1658 93.8156 64.5658 93.8156C59.2658 93.8156 56.0658 90.8156 56.0658 86.2156V78.1156H33.4658V84.6156C33.4658 103.316 48.2658 109.016 64.0658 109.016C79.2658 109.016 91.7658 103.816 93.7658 89.8156C94.7658 82.5156 94.0658 77.8156 93.6658 76.0156C90.0658 58.4156 58.1658 53.1156 55.8658 43.3156C55.4658 41.6156 55.5658 39.8156 55.7658 38.9156C56.3658 36.2156 58.1658 33.3156 63.4658 33.3156C68.3658 33.3156 71.2658 36.3156 71.2658 40.9156C71.2658 42.4156 71.2658 46.1156 71.2658 46.1156H92.2658V40.2156C92.1658 21.9156 75.8658 19.0156 63.9658 19.0156C48.9658 19.0156 36.7658 23.9156 34.5658 37.6156C33.9658 41.4156 33.8658 44.7156 34.7658 49.0156C38.3658 66.1156 68.2658 71.1156 72.5658 82.0156Z" fill="white"/>
</g>
<defs>
<linearGradient id="paint0_linear_5027_123286" x1="63.9658" y1="128.01" x2="63.9658" y2="0.00984192" gradientUnits="userSpaceOnUse">
<stop stop-color="#0A2E55"/>
<stop offset="0.48" stop-color="#034EA2"/>
<stop offset="0.5" stop-color="#6895C7"/>
<stop offset="1" stop-color="#034EA2"/>
</linearGradient>
<clipPath id="clip0_5027_123286">
<rect width="128" height="128" fill="white"/>
</clipPath>
</defs>
</svg>
