<svg width="128" height="128" viewBox="0 0 128 128" fill="none" xmlns="http://www.w3.org/2000/svg">
<path d="M64.101 127.999C97.8461 127.999 125.202 100.643 125.202 66.8978C125.202 33.1527 97.8461 5.79688 64.101 5.79688C30.3558 5.79688 3 33.1527 3 66.8978C3 100.643 30.3558 127.999 64.101 127.999Z" fill="url(#paint0_linear_5027_117211)"/>
<path d="M73.4091 72.0991C71.8751 69.9411 70.419 67.9131 68.963 65.911C63.3729 58.1629 57.7568 50.4148 52.1408 42.6927C48.5787 37.7786 45.0426 32.8645 41.4286 28.0024C40.3366 26.5464 40.2066 25.0124 40.7006 23.3484C41.7146 19.8903 44.1326 17.4983 46.9927 15.5222C52.2188 11.9082 58.1208 10.0622 64.3089 8.97014C69.691 8.03413 75.0211 6.89011 79.7272 3.92606C81.0012 3.12005 82.0672 2.02803 83.2373 1.06602C83.5493 0.806014 83.8353 0.520008 84.4333 0C84.8233 1.89803 85.2133 3.48406 85.4733 5.07008C86.2533 9.75016 85.9673 14.3002 83.8613 18.6163C81.0012 24.4404 76.3211 28.0804 70.185 29.9525C66.441 31.1485 62.5669 31.4345 58.6409 31.4085C58.3549 31.4085 58.0688 31.4865 57.5748 31.5385C58.5369 33.2285 59.3949 34.8146 60.3309 36.3486C64.1009 42.5107 67.871 48.6728 71.6151 54.8609L83.9393 75.2972C85.0053 77.0652 86.1233 78.8333 87.1633 80.6273C89.5813 84.7873 91.3494 89.1294 91.0114 94.1215C90.6734 99.0096 88.9053 103.274 85.8633 107.018C80.8972 113.128 74.4491 116.664 66.753 118.042C59.4989 119.316 52.5828 118.51 46.1607 114.844C38.9325 110.736 34.3045 103.274 35.3965 94.3815C36.0985 88.5314 39.0105 83.6953 43.3006 79.7173C47.8767 75.5052 53.3108 72.9312 59.3689 71.7611C63.8409 70.8771 68.313 70.9291 72.7331 72.1251C72.8631 72.1511 73.0191 72.0991 73.4091 72.0991Z" fill="#0DAF52"/>
<defs>
<linearGradient id="paint0_linear_5027_117211" x1="64.101" y1="127.999" x2="64.101" y2="5.79688" gradientUnits="userSpaceOnUse">
<stop stop-color="#FBBE0A"/>
<stop offset="1" stop-color="#FEDA24"/>
</linearGradient>
</defs>
</svg>
