<svg width="128" height="128" viewBox="0 0 128 128" fill="none" xmlns="http://www.w3.org/2000/svg">
<path d="M3.32674 36.129C2.63444 36.3888 2.06576 36.9588 1.81851 37.6629C1.72785 37.9312 1.71137 42.399 1.70312 64.4865V91H12.6646V69.4573C12.6646 45.7603 12.6234 47.5709 13.1591 47.2859C13.3734 47.1769 18.9448 47.1602 64.0928 47.1602C109.241 47.1602 114.812 47.1769 115.026 47.2859C115.562 47.5709 115.521 45.7603 115.521 69.4573V91H126.482L126.466 64.3608L126.441 37.73L126.252 37.3779C126.021 36.9253 125.584 36.481 125.139 36.2463L124.793 36.0535L64.2164 36.0368C13.3734 36.02 3.59047 36.0368 3.32674 36.129Z" fill="#F7E0D3"/>
<path d="M106.704 51.1901C104.693 51.5673 103.242 53.3443 103.242 55.4232C103.242 56.5799 103.654 57.569 104.47 58.4073C105.327 59.2874 106.217 59.6562 107.454 59.6562C109.827 59.6562 111.649 57.787 111.649 55.3561C111.649 53.5706 110.429 51.8774 108.764 51.3493C108.154 51.1565 107.239 51.0811 106.704 51.1901ZM108.253 51.8187C108.954 51.9864 109.366 52.2211 109.901 52.724C110.66 53.4533 111.072 54.4089 111.072 55.4232C111.072 57.6193 109.053 59.3964 106.934 59.0611C105.855 58.8935 104.701 58.072 104.231 57.1499C103.514 55.7165 103.745 54.0568 104.825 52.9001C105.36 52.3301 105.838 52.0283 106.539 51.8439C107.206 51.6678 107.594 51.6595 108.253 51.8187Z" fill="#F7E0D3"/>
<path d="M104.723 54.4576C104.723 54.7007 104.731 54.7091 105.135 54.7091H105.547V56.8047H106.124V54.7091H106.495C106.849 54.7091 106.865 54.7007 106.865 54.4576V54.2062H104.723V54.4576Z" fill="#F7E0D3"/>
<path d="M107.277 55.5054V56.8047H107.764L107.788 55.9413L107.813 55.0863L108.102 55.9497C108.382 56.7963 108.39 56.8131 108.629 56.7879C108.852 56.7628 108.884 56.7041 109.165 55.9245L109.461 55.0863L109.486 55.9413L109.511 56.8047H109.997V54.2062H109.206L108.934 55.0444C108.786 55.5054 108.654 55.8826 108.637 55.8826C108.621 55.8826 108.489 55.5054 108.341 55.0444L108.069 54.2062H107.277V55.5054Z" fill="#F7E0D3"/>
<path d="M34.941 67.4588C33.9602 67.6013 32.8064 67.9534 31.9904 68.3557C30.1113 69.2862 28.941 70.7028 28.3888 72.6978C28.2075 73.3516 28.1993 73.4271 28.1993 79.2277C28.1993 85.9252 28.1828 85.7743 28.8998 87.2747C30.202 90.0325 33.3421 91.4827 37.636 91.3151C39.1525 91.2564 40.1085 91.0971 41.1964 90.7199C43.6689 89.8649 45.3173 88.0711 45.7953 85.7156C45.9436 85.0115 45.9601 84.5672 45.9601 81.5244V78.1212L45.7706 77.9452C45.581 77.7607 45.5645 77.7607 41.7898 77.7607H37.9904L37.8173 77.9535C37.6442 78.138 37.636 78.2218 37.636 79.8312C37.636 81.4071 37.6442 81.5244 37.8091 81.734L37.9739 81.9519H40.7843L40.7514 83.2764C40.7266 84.4415 40.7019 84.6427 40.5288 85.0283C40.0178 86.1934 38.8475 86.6964 36.8118 86.6209C35.0234 86.5622 34.1827 86.1431 33.6635 85.0786L33.3915 84.5086L33.3668 79.5294C33.3421 74.7347 33.3503 74.5252 33.5069 73.9887C33.8201 72.9409 34.5948 72.329 35.897 72.0943C37.0261 71.8931 38.1552 71.9685 39.103 72.329C39.7129 72.5553 40.4629 73.3013 40.6112 73.8294C40.6689 74.0306 40.7843 74.2821 40.8832 74.391C41.0481 74.5754 41.0481 74.5754 43.3475 74.5587L45.6552 74.5335L45.82 74.3072C45.9684 74.0977 45.9766 74.0474 45.8777 73.3935C45.4244 70.225 43.0096 68.0456 39.3585 67.5007C38.3942 67.3582 35.8228 67.3331 34.941 67.4588Z" fill="#F7E0D3"/>
<path d="M54.9292 67.5412C51.7479 68.1028 49.6545 69.8045 48.8303 72.4784L48.6408 73.1071V79.3101C48.6408 86.2758 48.616 85.9322 49.2589 87.2733C50.2479 89.3186 52.1682 90.6179 54.9786 91.146C56.0336 91.3472 58.8852 91.3472 59.9484 91.146C62.7341 90.6263 64.6544 89.3186 65.6516 87.2733C66.3027 85.9405 66.278 86.2758 66.278 79.352C66.278 72.3779 66.311 72.7467 65.6104 71.3217C64.6132 69.2931 62.6846 68.019 59.9072 67.5245C58.6297 67.3065 56.1984 67.3065 54.9292 67.5412ZM59.1489 72.2186C60.1791 72.5455 60.7973 73.1323 61.0692 74.0292C61.1434 74.2807 61.1681 75.6554 61.1681 79.352C61.1681 84.9849 61.1846 84.8508 60.5335 85.5969C59.9072 86.3177 58.9594 86.6447 57.4594 86.6447C55.572 86.6447 54.4017 86.0579 53.9319 84.8844C53.7506 84.4317 53.7506 84.373 53.7259 79.6873C53.7094 76.502 53.7341 74.7752 53.7918 74.398C54.0061 73.1071 54.855 72.3443 56.3715 72.0593C57.0473 71.942 58.5308 72.0174 59.1489 72.2186Z" fill="#F7E0D3"/>
<path d="M73.7862 67.8479C73.6296 68.0323 67.3906 89.9941 67.3906 90.3797C67.3906 90.5725 67.4566 90.7066 67.6049 90.824C67.811 90.9916 67.9263 91 69.9456 91C71.9071 91 72.0884 90.9916 72.2615 90.8407C72.4181 90.715 72.5499 90.3462 72.8714 89.1894L73.2917 87.689H79.7037L80.0993 89.1559C80.4207 90.321 80.5444 90.6647 80.7092 90.8072C80.9152 91 80.9565 91 83.0416 91C85.0691 91 85.1845 90.9916 85.3905 90.824C85.5388 90.7066 85.6048 90.5725 85.6048 90.3881C85.6048 90.0025 79.3658 68.0323 79.201 67.8479C79.0774 67.7054 78.8796 67.697 76.4977 67.697C74.1076 67.697 73.918 67.7054 73.7862 67.8479ZM77.5279 79.6838C78.0719 81.6872 78.5169 83.3553 78.5169 83.3888C78.5169 83.4307 77.6103 83.4559 76.4977 83.4559C75.2944 83.4559 74.4785 83.4223 74.4785 83.3804C74.4785 83.3301 74.9235 81.6704 75.4675 79.6838C76.0114 77.6972 76.4565 76.0458 76.4565 76.0207C76.4565 75.8111 76.6543 76.4817 77.5279 79.6838Z" fill="#F7E0D3"/>
<path d="M87.9192 67.9149L87.7461 68.1413V90.5893L87.9521 90.7904L88.1499 91H93.7955C97.7598 91 99.4988 90.9749 99.6389 90.9078C99.985 90.7485 100.026 90.5222 100.026 88.6026V86.792L99.5482 86.3059H92.9384V77.2194C92.9384 68.158 92.9384 68.1413 92.7653 67.9149L92.6005 67.697H88.084L87.9192 67.9149Z" fill="#F7E0D3"/>
</svg>
