<svg width="128" height="128" viewBox="0 0 128 128" fill="none" xmlns="http://www.w3.org/2000/svg">
<path d="M120.145 61.2702C124.985 34.5915 108.811 10.7261 83.4861 2.80144C38.5038 -11.2689 6.63945 30.1319 7.00308 71.8594C7.30611 105.577 14.4847 127.995 14.4895 128C14.1721 127.002 22.9871 122.333 24.0046 121.809C24.8707 121.368 25.751 120.945 26.6362 120.536C27.5214 120.128 28.4113 119.739 29.314 119.368C30.2135 118.993 31.1226 118.642 32.0349 118.304C32.9488 117.966 33.8706 117.649 34.7941 117.345C42.3746 114.807 50.2246 113.212 58.0093 111.464C82.3506 105.882 108.494 95.3261 117.807 69.9491C118.833 67.1294 119.614 64.2255 120.14 61.2702H120.145Z" fill="#FF5C28"/>
</svg>
