<svg width="128" height="128" viewBox="0 0 128 128" fill="none" xmlns="http://www.w3.org/2000/svg">
<rect width="128" height="128" rx="24" fill="#04B0B9"/>
<path d="M68.4898 29.9592C68.4898 33.2245 65.7959 35.9184 62.5306 35.9184C59.2653 35.9184 56.5714 33.2245 56.5714 29.9592C56.5714 26.6939 59.2653 24 62.5306 24C65.7959 24 68.4898 26.6939 68.4898 29.9592ZM62.5306 40.8163C59.0204 40.8163 56.3265 43.5102 56.3265 47.0204C56.3265 50.5306 59.0204 53.2245 62.5306 53.2245C66.0408 53.2245 68.7347 50.5306 68.7347 47.0204C68.7347 43.5102 66.0408 40.8163 62.5306 40.8163ZM62.5306 57.6327C59.0204 57.6327 56 60.6531 56 64.1633C56 67.6735 59.0204 70.6939 62.5306 70.6939C66.0408 70.6939 69.0612 67.6735 69.0612 64.1633C69.0612 60.6531 66.0408 57.6327 62.5306 57.6327ZM62.5306 74.6939C59.0204 74.6939 56.3265 77.3878 56.3265 80.898C56.3265 84.4082 59.0204 87.102 62.5306 87.102C66.0408 87.102 68.7347 84.4082 68.7347 80.898C68.8163 77.7143 66.0408 74.6939 62.5306 74.6939ZM62.5306 92.0816C59.2653 92.0816 56.5714 94.7755 56.5714 98.0408C56.5714 101.306 59.2653 104 62.5306 104C65.7959 104 68.4898 101.306 68.4898 98.0408C68.4898 94.7755 65.7959 92.0816 62.5306 92.0816ZM79.102 40C75.2653 40 72.0816 43.2653 72.0816 47.0204C72.0816 50.7755 75.3469 54.0408 79.102 54.0408C82.8571 54.0408 86.1224 50.7755 86.1224 47.0204C86.1224 43.2653 82.8571 40 79.102 40ZM79.102 56.8163C75.0204 56.8163 71.7551 60.0816 71.7551 64.1633C71.7551 68.2449 75.0204 71.5102 79.102 71.5102C83.1837 71.5102 86.449 68.2449 86.449 64.1633C86.449 60.0816 83.1837 56.8163 79.102 56.8163ZM79.102 73.8776C75.2653 73.8776 72.0816 77.1429 72.0816 80.898C72.0816 84.6531 75.3469 87.9184 79.102 87.9184C82.8571 87.9184 86.1224 84.6531 86.1224 80.898C86.1224 77.1429 82.8571 73.8776 79.102 73.8776ZM96.1633 56C91.8367 56 88 59.5102 88 64.1633C88 68.4898 91.5102 72.3265 96.1633 72.3265C100.816 72.3265 104.327 68.8163 104.327 64.1633C104.082 59.5102 100.49 56 96.1633 56ZM45.7143 41.6327C42.6939 41.6327 40.3265 44.0816 40.3265 47.0204C40.3265 49.9592 42.7755 52.4082 45.7143 52.4082C48.6531 52.4082 51.102 49.9592 51.102 47.0204C51.102 44.0816 48.7347 41.6327 45.7143 41.6327ZM45.7143 58.449C42.449 58.449 40 60.898 40 64.1633C40 67.4286 42.449 69.8776 45.7143 69.8776C48.9796 69.8776 51.4286 67.4286 51.4286 64.1633C51.4286 60.898 48.9796 58.449 45.7143 58.449ZM45.7143 75.5102C42.6939 75.5102 40.3265 77.9592 40.3265 80.898C40.3265 83.8367 42.7755 86.2857 45.7143 86.2857C48.6531 86.2857 51.102 83.8367 51.102 80.898C51.102 77.9592 48.7347 75.5102 45.7143 75.5102ZM28.898 59.2653C26.2041 59.2653 24 61.4694 24 64.1633C24 66.8571 26.2041 69.0612 28.898 69.0612C31.5918 69.0612 33.7959 66.8571 33.7959 64.1633C33.7959 61.4694 31.5918 59.2653 28.898 59.2653Z" fill="white"/>
</svg>
