<svg width="128" height="128" viewBox="0 0 128 128" fill="none" xmlns="http://www.w3.org/2000/svg">
<path d="M128 119.702C128 122.952 99.3664 125.583 64 125.583C28.6336 125.583 0 122.952 0 119.702C0 116.452 28.6336 113.82 64 113.82C99.289 113.82 128 116.452 128 119.702Z" fill="#E6E6E6"/>
<path d="M31.2646 50.2844V49.8974V40.7656H40.3191H87.5258H96.6576V49.8974V50.2844C96.6576 67.9289 81.8765 82.0135 63.9224 82.0909V79.0728V76.0546C78.7036 76.0546 90.544 64.4464 90.544 50.3618V49.9748V46.9567H87.5258H40.3191H37.3009V49.9748V50.3618C37.3009 64.4464 49.2187 76.0546 63.9224 76.0546V79.0728V82.0909C45.9684 82.0909 31.2646 67.9289 31.2646 50.2844Z" fill="#83BC45"/>
<path d="M70.1135 60.8125H57.7314V125.586H70.1135V60.8125Z" fill="#83BC45"/>
<path d="M85.4364 23.5852C85.4364 12.2092 75.8403 3 63.9999 3C52.1595 3 42.5634 12.2092 42.5634 23.5852C42.5634 33.4909 42.5634 29.0798 42.5634 31.0145H85.4364V23.5852Z" fill="#6A856A"/>
<path d="M42.4858 49.1242C42.4858 60.5002 52.082 69.7094 63.9224 69.7094C75.7627 69.7094 85.3589 60.5002 85.3589 49.1242C85.3589 39.2185 85.3589 36.2003 85.3589 34.2656H42.4858V49.1242Z" fill="#6A856A"/>
<path d="M112.832 111.964C97.9735 126.822 72.358 125.197 72.358 125.197C72.358 125.197 70.7329 99.5044 85.5914 84.7232C100.45 69.8647 126.065 71.4899 126.065 71.4899C126.065 71.4899 127.691 97.1053 112.832 111.964Z" fill="#83BC45"/>
<path d="M15.0904 111.964C29.9489 126.822 55.5644 125.197 55.5644 125.197C55.5644 125.197 57.1896 99.5044 42.331 84.7232C27.5499 69.8647 1.85704 71.4899 1.85704 71.4899C1.85704 71.4899 0.231894 97.1053 15.0904 111.964Z" fill="#83BC45"/>
</svg>
