<svg width="128" height="129" viewBox="0 0 128 129" fill="none" xmlns="http://www.w3.org/2000/svg">
<path d="M74.93 8.95473L3.05859 80.5926L3.77406 81.3063C6.96111 84.4859 12.0344 84.4859 15.2215 81.3063L87.0929 9.66851L86.3774 8.95473C83.1904 5.77515 78.052 5.77515 74.93 8.95473ZM110.443 12.1343L38.6366 83.837L37.9211 83.1232C34.7341 79.9437 34.7341 74.8823 37.9211 71.7027L109.727 0L110.443 0.713783C113.63 3.89336 113.63 9.01962 110.443 12.1343ZM91.0604 57.2973L19.189 129L18.4736 128.286C15.2865 125.107 15.2865 120.045 18.4736 116.866L90.345 45.163L91.0604 45.8768C94.2475 49.0563 94.2475 54.1177 91.0604 57.2973ZM125.858 48.3426L54.0515 120.045C50.8645 123.225 45.7912 123.225 42.6041 120.045L41.8887 119.331L113.695 47.6288C116.882 44.4492 121.955 44.4492 125.142 47.6288L125.858 48.3426Z" fill="#C6B478"/>
</svg>
