<svg width="128" height="128" viewBox="0 0 128 128" fill="none" xmlns="http://www.w3.org/2000/svg">
<path fill-rule="evenodd" clip-rule="evenodd" d="M0 95.3204H64.6909L128 32H0V95.3204" fill="url(#paint0_linear_5027_123298)"/>
<path fill-rule="evenodd" clip-rule="evenodd" d="M75.962 44.6691H63.3204L63.3626 74.4016L52.3548 44.6579H41.4397L32.043 69.4978C31.0439 63.177 24.5093 60.9959 19.3677 59.3623C15.9723 58.2718 12.3686 56.6676 12.4052 54.8947C12.4334 53.4397 14.333 52.0903 18.1083 52.2915C20.6411 52.428 22.8784 52.632 27.3291 54.7821L31.7053 47.1555C27.6471 45.0899 22.0356 43.7855 17.4343 43.7812H17.4061C12.0408 43.7812 7.57318 45.519 4.80397 48.3825C2.87341 50.3806 1.83214 52.9219 1.78992 55.7319C1.71957 59.5987 3.13654 62.3397 6.114 64.5306C8.62993 66.374 11.848 67.57 14.6834 68.448C18.18 69.5315 21.0365 70.4743 21.0013 72.4809C20.9732 73.2126 20.6974 73.8964 20.1711 74.448C19.2987 75.3486 17.9619 75.6863 16.1116 75.7229C12.5417 75.7988 9.89634 75.2374 5.68061 72.7454L1.78711 80.4705C5.99862 82.8654 10.469 84.0671 15.5487 84.0671L16.6913 84.0586C21.1125 83.9784 24.7006 82.9189 27.5515 80.6253C27.7147 80.4944 27.861 80.3621 28.013 80.2284L27.5346 82.6937L38.2005 82.66L40.1142 77.7604C42.1264 78.447 44.4144 78.827 46.8431 78.827C49.2098 78.827 51.4359 78.4667 53.4101 77.8195L54.744 82.66L73.8809 82.6782L73.9273 71.5085H77.9995C87.8423 71.5085 93.6607 66.4992 93.6607 58.0987C93.6575 48.7428 88.0013 44.6677 75.962 44.6677L75.962 44.6691ZM46.843 70.0845C45.3726 70.0845 43.9936 69.8284 42.8074 69.3782L46.798 56.7774H46.8754L50.8013 69.4133C49.6193 69.8355 48.2727 70.0845 46.8416 70.0845H46.843ZM76.7021 62.8449H73.9245V52.6897H76.7035C80.4042 52.6897 83.3592 53.9224 83.3592 57.7019C83.356 61.6137 80.4042 62.8449 76.7035 62.8449" fill="white"/>
<defs>
<linearGradient id="paint0_linear_5027_123298" x1="64" y1="32" x2="64" y2="95.3218" gradientUnits="userSpaceOnUse">
<stop stop-color="#00AEEF"/>
<stop offset="0.212" stop-color="#0097DC"/>
<stop offset="0.519" stop-color="#007CC5"/>
<stop offset="0.792" stop-color="#006CB8"/>
<stop offset="1" stop-color="#0066B3"/>
</linearGradient>
</defs>
</svg>
