<svg width="128" height="128" viewBox="0 0 128 128" fill="none" xmlns="http://www.w3.org/2000/svg">
<g clip-path="url(#clip0_5027_115165)">
<path d="M0 24C0 10.7452 10.7452 0 24 0H104C117.255 0 128 10.7452 128 24V104C128 117.255 117.255 128 104 128H24C10.7452 128 0 117.255 0 104V24Z" fill="url(#paint0_linear_5027_115165)"/>
<path fill-rule="evenodd" clip-rule="evenodd" d="M59.1173 73.3611V64.8359H58.0416V73.3611H42.6929V68.5835H41.6171V73.3611H23.0753V68.5071H21.9995V74.4369H115.982V69.2336H114.906V73.3611H105.14V69.1572H104.064V73.3611H95.0446V68.7556H93.9689V73.3611H76.0198V68.8512H74.944V73.3611H59.1173Z" fill="#9281A8"/>
<path d="M47.375 69.7483C49.1915 68.9452 50.1284 66.9949 50.1284 65.3314C50.1284 64.3754 49.8224 62.081 46.9161 61.2397C48.484 60.5513 49.3062 59.0599 49.3062 57.5685C49.3062 56.058 48.484 54.8917 47.4897 54.1842C46.3999 53.4003 45.0423 53.3047 42.7096 53.3047H35.9219V70.2454H41.6962C45.2909 70.2454 46.3808 70.1689 47.375 69.7483ZM41.3138 56.1536C43.7804 56.1536 44.1819 56.1536 44.679 56.2875C45.5586 56.5169 45.9601 57.32 45.9601 58.0848C45.9601 59.8821 44.201 60.0351 43.0538 60.0351H39.3444V56.1536H41.3138ZM39.3253 62.9031H42.0978C44.4878 62.9031 46.5911 62.9031 46.5911 65.2167C46.5911 65.733 46.4381 66.7272 45.1953 67.1861C44.679 67.3773 43.2259 67.3773 42.4993 67.3773H39.3253V62.9031Z" fill="url(#paint1_linear_5027_115165)"/>
<path d="M110.319 66.8844L107.069 66.3299C106.897 66.9036 106.514 68.0317 105.004 68.0317C103.149 68.0317 102.384 66.4829 102.327 65.0298H110.472C110.549 61.416 109.268 57.6875 104.64 57.6875C100.797 57.6875 99.0381 60.8615 99.0381 64.1885C99.0381 65.2018 99.2293 66.4064 99.7647 67.5919C100.87 69.9628 103.09 70.4294 104.378 70.5173H105.495C109.126 70.2783 110.063 67.6148 110.319 66.8844ZM104.87 60.1732C105.367 60.1732 107.222 60.3644 107.279 63.0412H102.422C102.403 61.4351 103.321 60.1732 104.87 60.1732Z" fill="url(#paint2_linear_5027_115165)"/>
<path d="M119 70.0614V69.8874L118.732 67.549L118.637 67.5681C118.235 67.7402 117.853 67.8549 117.432 67.8549C116.534 67.8549 116.534 67.2813 116.534 65.5414V60.5892H118.732V58.0079H116.534V53.6484L113.245 55.5414V57.9888H111.753V60.57H113.245V65.9238C113.245 67.7976 113.302 68.5241 113.704 69.289C114.092 70.0347 115.008 70.4018 115.872 70.5127H117.145C117.654 70.4611 118.344 70.3387 119 70.0614Z" fill="url(#paint3_linear_5027_115165)"/>
<path d="M55.5966 66.4057H62.3653L63.8375 70.2489H67.5851L60.7974 53.2891H57.1454L50.5488 70.2489H54.2008L55.5966 66.4057ZM58.9236 57.247L61.2754 63.5376H56.6291L58.9236 57.247Z" fill="url(#paint4_linear_5027_115165)"/>
<path d="M96.6099 70.2071V62.578C96.5907 61.3734 96.629 59.557 95.3288 58.5627C94.3154 57.7597 93.0535 57.6641 92.5181 57.6641C91.2179 57.6832 89.6883 58.123 88.4837 59.7673H88.4454V57.97H85.4053V70.2262H88.6557V64.6621C88.6557 63.6679 88.6749 62.3103 89.019 61.6029C89.4206 60.7042 90.3384 60.1497 91.3709 60.1497C93.3594 60.1497 93.3594 61.9279 93.3594 63.9356V70.2071H96.6099Z" fill="url(#paint5_linear_5027_115165)"/>
<path d="M82.5945 65.065L79.2866 64.0134C78.866 65.8681 77.8144 67.5889 75.539 67.5889C74.0285 67.5889 72.8813 66.8814 72.2694 65.9254C71.562 64.8356 71.3708 63.2486 71.3708 61.6616C71.3708 60.5717 71.3708 55.9254 75.5773 55.9254C77.3364 55.9254 78.7322 56.9197 79.1528 58.7744L82.5371 57.9713C82.2121 56.7858 81.7723 55.7916 80.931 54.9312C79.3918 53.4073 77.518 53.0707 76.3784 53H75.1719C70.0572 53.3002 67.8335 57.3556 67.8335 61.9101C67.8335 66.9694 70.7169 70.2524 74.9979 70.5143H76.1643C81.1853 70.2237 82.2446 66.3346 82.5945 65.065Z" fill="url(#paint6_linear_5027_115165)"/>
<path d="M18.4897 68.4111H26.5872C26.8778 68.3575 27.1379 68.1816 27.2794 67.9139L31.1417 61.2218C31.3329 60.8967 31.3329 60.5143 31.1417 60.2084L27.2794 53.5162C27.0881 53.1912 26.7631 53 26.3998 53H18.6943C18.331 53 17.9868 53.1912 17.8147 53.5162L15.635 57.3021H16.7631L18.5604 54.1663C18.5987 54.109 18.656 54.0516 18.7134 54.0134C18.7708 53.9751 18.8472 53.956 18.9237 53.956H26.2277C26.3042 53.956 26.3807 53.9751 26.4381 54.0134C26.4954 54.0516 26.5528 54.0899 26.591 54.1663L30.243 60.4952C30.2813 60.5526 30.3004 60.6291 30.3004 60.7055C30.3004 60.782 30.2813 60.8394 30.243 60.9159L26.591 67.2447C26.5528 67.3021 26.5145 67.3595 26.4381 67.3977C26.3807 67.4359 26.3042 67.4551 26.2277 67.4551H18.9046C18.8281 67.4551 18.7708 67.4359 18.6943 67.3977C18.6369 67.3595 18.5795 67.3212 18.5413 67.2447L16.6866 64.0516H15.5776L17.7956 67.9139C17.9543 68.1816 18.2029 68.3575 18.4897 68.4111Z" fill="url(#paint7_linear_5027_115165)"/>
<path d="M10.0134 58.0859H11.1032L12.0593 63.2485H11.1032L10.9694 62.4072H10.0899L9.95602 63.2485H9L10.0134 58.0859ZM10.5679 59.4052L10.2237 61.6232H10.8738" fill="#004C93"/>
<path d="M12.1934 61.4296H13.1494V62.0223C13.1494 62.3282 13.1494 62.615 13.6083 62.615C14.0863 62.615 14.0863 62.3091 14.0863 61.8502C14.0863 61.4869 14.0098 61.3339 13.7612 61.1619L12.8626 60.55C12.3846 60.225 12.2507 59.8617 12.2507 59.3454C12.2507 58.9439 12.289 58.5615 12.614 58.2747C12.8052 58.1217 13.1494 57.9688 13.6465 57.9688C14.201 57.9688 14.9658 58.1982 14.9658 59.0777V59.594H14.0289V59.2116C14.0289 58.963 14.0289 58.6762 13.6083 58.6762C13.3597 58.6762 13.1685 58.7718 13.1685 59.1925C13.1685 59.6322 13.2641 59.7278 13.4744 59.8617L14.4113 60.4926C14.6025 60.6265 14.7937 60.7986 14.9085 60.9898C15.0423 61.2192 15.0423 61.3913 15.0423 61.7928C15.0423 62.2517 15.0423 62.5385 14.8702 62.8062C14.5834 63.2651 13.9907 63.3225 13.6465 63.3225C12.8435 63.3225 12.2125 63.0165 12.2125 62.137V61.4296H12.1934Z" fill="#004C93"/>
<path d="M15.4053 58.0859H16.3613V60.1318H17.2217V58.0859H18.1777V63.2485H17.2217V60.8966H16.3613V63.2485H15.4053V58.0859Z" fill="#004C93"/>
<path d="M18.6943 58.0859H20.5873C21.5242 58.0859 21.5242 58.7169 21.5242 59.1758V59.7303C21.5242 60.3804 21.3138 60.5142 20.8549 60.6098C21.0844 60.6672 21.5624 60.801 21.5624 61.5085V62.5601C21.5624 62.8278 21.5815 63.0955 21.7918 63.2485H20.7402C20.6255 63.0573 20.6064 62.8278 20.6064 62.6748V61.5659C20.6064 61.2217 20.6064 60.9731 20.1092 60.9731H19.6504V63.2485H18.6943V58.0859ZM19.6504 60.2465H20.1475C20.5873 60.2465 20.5873 60.0171 20.5873 59.7494V59.2523C20.5873 58.8316 20.3578 58.8316 20.1475 58.8316H19.6504V60.2465Z" fill="#004C93"/>
<path d="M22.6901 58.0859H23.78L24.736 63.2485H23.78L23.6462 62.4072H22.7666L22.6328 63.2485H21.6768L22.6901 58.0859ZM22.8813 61.6232H23.5314L23.2255 59.4052L22.8813 61.6232Z" fill="#004C93"/>
<path d="M24.9463 58.0859H27.4511V58.8699H25.9023V60.0936H27.3555V60.8775H25.9023V62.4645H27.5084V63.2485H24.9463V58.0859Z" fill="#004C93"/>
</g>
<defs>
<linearGradient id="paint0_linear_5027_115165" x1="64" y1="0" x2="64" y2="128" gradientUnits="userSpaceOnUse">
<stop stop-color="white"/>
<stop offset="1" stop-color="#EEEEEE"/>
</linearGradient>
<linearGradient id="paint1_linear_5027_115165" x1="35.9218" y1="61.7754" x2="119" y2="61.7754" gradientUnits="userSpaceOnUse">
<stop stop-color="#0071B9"/>
<stop offset="0.2796" stop-color="#008CC7"/>
<stop offset="0.5323" stop-color="#00A0D1"/>
<stop offset="0.5807" stop-color="#06A1C9"/>
<stop offset="0.6553" stop-color="#17A5B3"/>
<stop offset="0.747" stop-color="#32AA90"/>
<stop offset="0.8522" stop-color="#58B25E"/>
<stop offset="0.9674" stop-color="#88BB20"/>
<stop offset="1" stop-color="#97BE0D"/>
</linearGradient>
<linearGradient id="paint2_linear_5027_115165" x1="35.9214" y1="64.1026" x2="119" y2="64.1026" gradientUnits="userSpaceOnUse">
<stop stop-color="#0071B9"/>
<stop offset="0.2796" stop-color="#008CC7"/>
<stop offset="0.5323" stop-color="#00A0D1"/>
<stop offset="0.5807" stop-color="#06A1C9"/>
<stop offset="0.6553" stop-color="#17A5B3"/>
<stop offset="0.747" stop-color="#32AA90"/>
<stop offset="0.8522" stop-color="#58B25E"/>
<stop offset="0.9674" stop-color="#88BB20"/>
<stop offset="1" stop-color="#97BE0D"/>
</linearGradient>
<linearGradient id="paint3_linear_5027_115165" x1="35.9217" y1="62.0812" x2="119" y2="62.0812" gradientUnits="userSpaceOnUse">
<stop stop-color="#0071B9"/>
<stop offset="0.2796" stop-color="#008CC7"/>
<stop offset="0.5323" stop-color="#00A0D1"/>
<stop offset="0.5807" stop-color="#06A1C9"/>
<stop offset="0.6553" stop-color="#17A5B3"/>
<stop offset="0.747" stop-color="#32AA90"/>
<stop offset="0.8522" stop-color="#58B25E"/>
<stop offset="0.9674" stop-color="#88BB20"/>
<stop offset="1" stop-color="#97BE0D"/>
</linearGradient>
<linearGradient id="paint4_linear_5027_115165" x1="35.9216" y1="61.7695" x2="119" y2="61.7695" gradientUnits="userSpaceOnUse">
<stop stop-color="#0071B9"/>
<stop offset="0.2796" stop-color="#008CC7"/>
<stop offset="0.5323" stop-color="#00A0D1"/>
<stop offset="0.5807" stop-color="#06A1C9"/>
<stop offset="0.6553" stop-color="#17A5B3"/>
<stop offset="0.747" stop-color="#32AA90"/>
<stop offset="0.8522" stop-color="#58B25E"/>
<stop offset="0.9674" stop-color="#88BB20"/>
<stop offset="1" stop-color="#97BE0D"/>
</linearGradient>
<linearGradient id="paint5_linear_5027_115165" x1="35.9215" y1="63.9452" x2="119" y2="63.9452" gradientUnits="userSpaceOnUse">
<stop stop-color="#0071B9"/>
<stop offset="0.2796" stop-color="#008CC7"/>
<stop offset="0.5323" stop-color="#00A0D1"/>
<stop offset="0.5807" stop-color="#06A1C9"/>
<stop offset="0.6553" stop-color="#17A5B3"/>
<stop offset="0.747" stop-color="#32AA90"/>
<stop offset="0.8522" stop-color="#58B25E"/>
<stop offset="0.9674" stop-color="#88BB20"/>
<stop offset="1" stop-color="#97BE0D"/>
</linearGradient>
<linearGradient id="paint6_linear_5027_115165" x1="35.9214" y1="61.7571" x2="119" y2="61.7571" gradientUnits="userSpaceOnUse">
<stop stop-color="#0071B9"/>
<stop offset="0.2796" stop-color="#008CC7"/>
<stop offset="0.5323" stop-color="#00A0D1"/>
<stop offset="0.5807" stop-color="#06A1C9"/>
<stop offset="0.6553" stop-color="#17A5B3"/>
<stop offset="0.747" stop-color="#32AA90"/>
<stop offset="0.8522" stop-color="#58B25E"/>
<stop offset="0.9674" stop-color="#88BB20"/>
<stop offset="1" stop-color="#97BE0D"/>
</linearGradient>
<linearGradient id="paint7_linear_5027_115165" x1="13.8133" y1="60.7056" x2="31.3018" y2="60.7056" gradientUnits="userSpaceOnUse">
<stop stop-color="#0071B9"/>
<stop offset="0.3764" stop-color="#0090C9"/>
<stop offset="0.6319" stop-color="#00A0D1"/>
<stop offset="0.6927" stop-color="#03A1CE"/>
<stop offset="0.7458" stop-color="#0BA2C3"/>
<stop offset="0.7961" stop-color="#19A5B1"/>
<stop offset="0.8447" stop-color="#2CA998"/>
<stop offset="0.892" stop-color="#45AE77"/>
<stop offset="0.9384" stop-color="#64B44F"/>
<stop offset="0.9832" stop-color="#88BB20"/>
<stop offset="1" stop-color="#97BE0D"/>
</linearGradient>
<clipPath id="clip0_5027_115165">
<rect width="128" height="128" fill="white"/>
</clipPath>
</defs>
</svg>
