<svg width="128" height="128" viewBox="0 0 128 128" fill="none" xmlns="http://www.w3.org/2000/svg">
<path d="M63.9957 35.7643C62.0001 30.7821 57.1388 25.4013 48.0346 26.1404C36.4369 27.4012 32.8225 38.5157 34.5753 45.1465C29.9562 42.0187 22.1018 40.6432 15.246 46.5157C6.39429 55.3891 11.1287 67.3889 15.995 70.2674C10.632 69.7707 2.15633 73.3946 0.281189 82.8739C-1.71356 94.6433 7.25863 101.505 15.995 101.505H112.873C122.976 101.505 128.581 92.7648 127.952 84.5224C126.961 73.7651 117.117 69.6378 111.748 70.522C116.234 68.0192 122.226 56.2617 113.115 47.0187C105.883 40.1399 96.6638 42.6427 93.4222 45.643C95.1699 39.8967 92.3045 28.0182 80.5748 26.1392C79.7639 26.0487 78.9833 26 78.2392 26C69.2853 26.0011 65.2593 32.5464 63.9957 35.7643Z" fill="white"/>
<path d="M16.8598 48.3858C11.7448 53.016 9.88322 63.5072 19.1036 69.6401L55.8872 94.8763L38.0518 54.0159C34.3146 44.3737 24.0906 42.2711 16.8598 48.3858Z" fill="#F37021"/>
<path d="M48.5231 28.5248C42.5441 28.6464 33.5658 35.7667 37.5614 46.6393L56.0076 90.143L62.4895 44.3853C63.9896 33.0155 55.3852 27.7672 48.5231 28.5248Z" fill="#CC004C"/>
<path d="M65.3683 42.6368H68.8562C68.8562 42.6368 70.7189 42.6368 70.9723 43.5154C69.5998 44.6363 65.8637 44.7767 66.3595 50.7643L72.2232 90.1334L90.5436 46.5153C94.2909 36.7763 86.4252 28.6427 79.4478 28.394C79.1221 28.3705 78.7949 28.3516 78.4566 28.3516C72.1939 28.3516 65.0174 32.903 65.3683 42.6368Z" fill="#6460AA"/>
<path d="M89.8058 54.3858L72.4775 94.756L109.25 69.3867C117.727 63.3742 116.36 53.7618 111.615 49.0106C109.626 46.7744 105.973 45.0469 102.104 45.0469C97.5334 45.046 92.6417 47.4706 89.8058 54.3858Z" fill="#0089D0"/>
<path d="M105.133 75.1286L70.5991 99.2504H113.12C121.844 99.2504 127.45 90.2551 124.958 82.0011C123.289 76.813 118.35 72.7402 112.619 72.7344C110.206 72.7353 107.647 73.4622 105.133 75.1286Z" fill="#0DB14B"/>
<path d="M15.8682 99.2542H57.7622L23.2196 75.1324C15.2395 70.005 6.26614 73.0052 3.0268 81.5136C0.281003 91.2537 7.1368 99.2542 15.8682 99.2542Z" fill="#FCB711"/>
</svg>
