<svg width="128" height="128" viewBox="0 0 128 128" fill="none" xmlns="http://www.w3.org/2000/svg">
<g clip-path="url(#clip0_5027_123860)">
<rect width="128" height="128" rx="24" fill="#094AB1"/>
<path d="M43.8752 97.0407C36.9691 95.3151 33.1216 89.8256 33.1094 81.6803C33.1055 79.0761 33.294 77.8284 33.944 76.1534C35.5374 72.0477 39.756 68.9502 45.3072 67.81C48.0695 67.2427 48.9205 66.6335 48.9205 65.2236C48.9205 64.7812 49.2492 63.4637 49.651 62.2958C51.4764 56.9902 54.8561 52.5673 58.4676 50.758C62.2472 48.8644 64.1555 48.4374 68.7277 48.4619C75.2212 48.4968 78.4608 49.9054 82.9918 54.6639L85.4838 57.2809L87.7162 56.5084C98.5208 52.7692 109.292 59.1342 110.16 69.7713L110.398 72.6812L112.525 73.4435C118.602 75.6206 121.458 80.1921 120.94 86.9124C120.601 91.3071 118.546 94.8159 115.291 96.5577L113.761 97.3766L79.7525 97.4421C53.6186 97.4925 45.3111 97.3995 43.8752 97.0407Z" fill="white"/>
<path d="M18.5037 92.4041C14.4719 91.4459 10.1999 87.8849 8.19669 83.8126C7.06034 81.5026 7 81.1628 7 77.0761C7 73.189 7.09697 72.5654 8.00159 70.6354C9.90862 66.5666 13.5624 63.6267 18.1469 62.4723C19.1145 62.2287 20.0236 61.8398 20.1673 61.6082C20.3109 61.3765 20.4705 60.1146 20.5219 58.8039C20.841 50.6635 26.1821 43.4909 33.64 41.1874C37.6692 39.9429 42.7312 40.249 47.1136 42.0022C48.5036 42.5583 48.3471 42.6775 51.286 38.8239C53.024 36.5449 56.5359 33.7106 59.4106 32.2667C62.513 30.7085 65.7397 29.9906 69.5983 30.0001C80.3829 30.0266 89.6774 36.7722 93.1143 47.0672C94.2124 50.3565 94.1577 51.2778 92.8624 51.3049C92.2972 51.3168 90.6776 51.628 89.2633 51.9967L86.6919 52.6669L84.3456 50.3206C77.7301 43.705 66.9334 42.2751 57.7552 46.7989C54.0884 48.6062 51.1419 51.2008 48.9162 54.5821C47.3295 56.9928 45.3064 61.4899 45.3064 62.6064C45.3064 63.3985 44.665 63.7943 41.9259 64.6926C33.4454 67.4738 28.4955 73.8967 28.4989 82.1154C28.5 85.1067 29.2705 88.7669 30.34 90.8633C30.7431 91.6536 30.9681 92.4051 30.8398 92.5333C30.5119 92.8612 19.9622 92.7507 18.5037 92.4041Z" fill="white"/>
</g>
<defs>
<clipPath id="clip0_5027_123860">
<rect width="128" height="128" fill="white"/>
</clipPath>
</defs>
</svg>
