<svg width="128" height="128" viewBox="0 0 128 128" fill="none" xmlns="http://www.w3.org/2000/svg">
<rect width="128" height="128" rx="24" fill="url(#paint0_linear_5027_113302)"/>
<path d="M47.2113 97.1719C43.894 97.1719 41.2979 99.768 41.2979 103.085C41.2979 106.403 43.894 108.999 47.2113 108.999C50.5286 108.999 53.1247 106.403 53.1247 103.085C53.1247 99.9122 50.5286 97.1719 47.2113 97.1719Z" fill="#FAB800"/>
<path d="M30.9134 97.1719C27.5961 97.1719 25 99.768 25 103.085C25 106.403 27.5961 108.999 30.9134 108.999C34.2307 108.999 36.8269 106.403 36.8269 103.085C36.8269 99.9122 34.2307 97.1719 30.9134 97.1719Z" fill="#E52833"/>
<path d="M63.6537 97.1719C60.3364 97.1719 57.7402 99.768 57.7402 103.085C57.7402 106.403 60.3364 108.999 63.6537 108.999C66.971 108.999 69.5671 106.403 69.5671 103.085C69.5671 99.9122 66.971 97.1719 63.6537 97.1719Z" fill="#02A447"/>
<path d="M96.3939 97.1719C93.0766 97.1719 90.4805 99.768 90.4805 103.085C90.4805 106.403 93.0766 108.999 96.3939 108.999C99.7112 108.999 102.307 106.403 102.307 103.085C102.307 99.9122 99.7112 97.1719 96.3939 97.1719Z" fill="#1CA7DF"/>
<path d="M80.0961 97.1719C76.7788 97.1719 74.1826 99.768 74.1826 103.085C74.1826 106.403 76.7788 108.999 80.0961 108.999C83.4134 108.999 86.0095 106.403 86.0095 103.085C85.8653 99.9122 83.2691 97.1719 80.0961 97.1719Z" fill="#A73D8E"/>
<path d="M83.5576 51.5961C83.5576 39.048 74.0384 29.673 61.6346 29.673C49.0865 29.673 39.7116 39.1922 39.7116 51.5961C39.7116 64.1441 49.2308 73.5191 61.6346 73.5191C74.0384 73.5191 83.5576 63.9999 83.5576 51.5961ZM28.3174 51.5961C28.3174 32.9903 43.1731 19 61.6346 19C80.0961 19 94.9518 32.8461 94.9518 51.4518V79.721C94.9518 83.0383 92.6441 85.3459 89.1826 85.3459C85.5768 85.3459 82.8364 82.894 83.4134 79.721L85.1441 68.7595H83.5576C80.0961 77.269 73.0288 84.1921 60.9134 84.1921C42.8846 84.0479 28.3174 70.0575 28.3174 51.5961Z" fill="#5F5D5B"/>
<defs>
<linearGradient id="paint0_linear_5027_113302" x1="64" y1="0" x2="64" y2="128" gradientUnits="userSpaceOnUse">
<stop stop-color="#FAFAFA"/>
<stop offset="1" stop-color="#E4E4E3"/>
</linearGradient>
</defs>
</svg>
