<svg width="128" height="128" viewBox="0 0 128 128" fill="none" xmlns="http://www.w3.org/2000/svg">
<path d="M67.8452 99.8084C63.4102 91.0794 58.2075 82.2626 48.0588 82.2626C46.1188 82.2626 44.1811 82.584 42.4029 83.3956L38.9553 76.4957C43.1567 72.8908 49.9457 70.0328 58.6723 70.0328C72.2478 70.0328 79.2148 76.572 84.7459 84.9194C88.0293 77.7929 89.5901 68.1691 89.5901 56.2399C89.5901 26.4505 80.2739 11.1546 58.5128 11.1546C37.0684 11.1546 27.803 26.4505 27.803 56.2399C27.803 85.8721 37.0684 101.011 58.5128 101.011C61.9211 101.011 65.008 100.636 67.8452 99.8084ZM73.1612 110.204C68.4603 111.465 63.4657 112.161 58.5128 112.161C29.9581 112.161 2 89.3752 2 56.2399C2 22.7901 29.9581 0 58.5128 0C87.5461 0 115.236 22.6259 115.236 56.2399C115.236 74.9372 106.512 90.1314 93.8309 99.9517C97.9283 106.091 102.146 110.168 108.019 110.168C114.429 110.168 117.014 105.215 117.446 101.33H125.794C126.282 106.502 123.694 128 100.365 128C86.235 128 78.7639 119.81 73.1612 110.204Z" fill="url(#paint0_linear_5027_123077)"/>
<defs>
<linearGradient id="paint0_linear_5027_123077" x1="63.9226" y1="0" x2="63.9226" y2="128" gradientUnits="userSpaceOnUse">
<stop stop-color="#F43A35"/>
<stop offset="1" stop-color="#B92B27"/>
</linearGradient>
</defs>
</svg>
