<svg width="128" height="128" viewBox="0 0 128 128" fill="none" xmlns="http://www.w3.org/2000/svg">
<path d="M0 24C0 10.7452 10.7452 0 24 0H104C117.255 0 128 10.7452 128 24V104C128 117.255 117.255 128 104 128H24C10.7452 128 0 117.255 0 104V24Z" fill="#FF5722"/>
<path d="M42.052 102.162C36.0817 101.397 30.2369 97.0202 27.4507 91.2289C25.6405 87.4664 25.7594 89.5959 25.7594 60.9322C25.7594 36.6589 25.7806 35.3044 26.1836 33.8008C27.9801 27.098 33.3444 21.7693 40.2295 19.848C42.0186 19.3488 42.2053 19.3432 57.4127 19.337C72.6355 19.3308 72.8069 19.3357 74.7885 19.8406C80.1308 21.2019 84.9926 25.1666 87.4712 30.1833C89.2167 33.7163 89.23 33.8117 89.3826 43.862L89.5182 52.7928L90.1064 54.0363C91.2356 56.4239 92.6935 57.3504 95.9992 57.7816C98.4815 58.1053 99.5348 58.528 100.605 59.6298C102.25 61.3235 102.18 60.6647 102.18 74.3848C102.18 86.6791 102.178 86.7109 101.65 88.3948C100.555 91.8812 98.8115 94.6211 96.043 97.2066C93.0199 100.03 89.7158 101.618 85.7054 102.176C83.5509 102.476 44.4001 102.463 42.052 102.162V102.162ZM79.57 82.7804C80.9174 82.1662 81.8942 81.2462 82.5737 79.9513C83.0944 78.9592 83.1813 78.519 83.1817 76.8719C83.1821 74.6512 82.8159 73.7482 81.2669 72.152C79.3975 70.2258 80.348 70.3257 63.8443 70.3201L49.249 70.315L48.0842 70.8954C45.9638 71.9521 44.6402 73.9811 44.4632 76.4458C44.2658 79.1963 45.5005 81.4471 47.8486 82.6172L49.0229 83.2024L63.8443 83.1973C77.6997 83.1928 78.7246 83.1655 79.57 82.7801V82.7804ZM70.3001 50.5573C72.7352 49.4041 73.9083 47.5214 73.9083 44.7664C73.9083 42.0256 72.7064 40.0944 70.3001 38.9689L69.1697 38.4402L59.3183 38.4379C47.9706 38.4354 47.9851 38.4334 46.1929 40.2734C44.9433 41.5562 44.4123 42.9312 44.4123 44.8836C44.4123 47.4219 46.1093 49.9379 48.3605 50.7372C49.0975 50.9989 51.1896 51.0644 59.2215 51.077L69.1697 51.0926L70.3001 50.5573V50.5573V50.5573Z" fill="white"/>
</svg>
