<svg width="128" height="128" viewBox="0 0 128 128" fill="none" xmlns="http://www.w3.org/2000/svg">
<path d="M70.0166 60.0312C78.7206 64.0632 87.8727 67.2633 95.4247 73.2153C105.025 80.7033 104.833 91.6472 95.1047 98.9432C85.3767 106.239 74.8807 109.823 63.6167 112.511C50.8807 115.583 38.8487 115.903 25.4727 113.663C30.5927 111.359 34.8167 106.943 41.2167 107.967C48.7687 109.119 56.3847 109.951 64.0647 109.439C70.4007 109.055 76.7366 108.223 81.7286 103.871C84.8646 101.119 87.2966 97.8552 86.7847 93.2472C86.724 93.0141 86.7214 92.7697 86.7772 92.5354C86.833 92.301 86.9454 92.084 87.1047 91.9032C92.6727 84.1592 90.3686 76.8632 82.7527 69.9512C79.4389 67.0696 75.8357 64.5387 72.0006 62.3992C71.2966 61.6952 69.9526 61.4392 70.0166 60.0312Z" fill="#B6CF87"/>
<path d="M56.4481 66.0472C48.5761 62.5272 40.3201 59.7752 33.3441 54.4632C28.9921 51.1992 25.4721 47.2312 25.6001 41.2792C25.7281 35.3272 28.0961 31.8712 32.1281 28.7352C40.8321 22.1432 50.8161 18.1752 61.2481 15.3592C74.6989 11.6965 88.788 11.0194 102.528 13.3752C96.8321 16.3832 91.7121 20.4792 84.2881 18.9432C75.1361 17.1512 65.7921 16.7672 56.5121 18.5592C47.2321 20.3512 42.4321 25.1512 41.0241 32.1912C40.9601 32.7672 40.6401 33.3432 41.2801 33.7912C41.9201 34.2392 41.1521 34.7512 40.8961 35.1992C35.2001 43.2632 37.8241 50.3032 45.2481 57.0872C48.5121 60.0952 52.2241 62.3992 55.9361 64.7032C56.1532 64.8436 56.32 65.0497 56.4121 65.2914C56.5041 65.5331 56.5167 65.7978 56.4481 66.0472Z" fill="#B6CF87"/>
<path d="M104.448 29.6329C111.424 30.9769 118.4 32.6409 125.056 35.2649C126.089 35.6978 127.075 36.2339 128 36.8649C122.432 37.9529 117.248 41.1529 111.168 38.4649C103.488 35.0089 95.5521 32.2569 87.1681 30.9769C83.3921 30.4009 79.5521 30.1449 75.8401 30.9129C63.2321 33.4729 58.5601 46.7849 66.6241 56.8329C67.2001 57.4729 67.6481 58.1769 68.1601 58.8169C65.9841 59.4569 64.7681 57.5369 63.1041 56.8329C61.1201 55.0409 59.0081 53.3769 57.2801 51.3929C53.2481 46.7849 51.7761 41.6009 53.1841 35.5849C53.3984 35.2123 53.7075 34.9031 54.0801 34.6889C59.7761 31.2969 66.1761 30.2729 72.5121 29.0569C80.2561 27.5849 88.0641 27.7129 95.8721 28.0969C98.6881 28.2249 101.824 27.8409 104.448 29.6329Z" fill="#ECE981"/>
<path d="M23.552 97.4735C15.415 96.2902 7.48596 93.9632 0 90.5615C6.08 89.0255 11.776 86.4015 18.432 89.3455C28.032 93.6335 38.016 96.9615 48.832 96.4495C55.552 96.1295 61.056 93.5055 63.872 87.2335C66.688 80.9615 65.152 74.8815 60.8 69.5695C60.4437 69.126 60.1227 68.6552 59.84 68.1615C61.376 67.5215 62.208 68.8655 63.296 69.3775C67.328 72.6415 71.616 75.6495 73.792 80.6415C75.2643 83.8668 75.6462 87.4838 74.88 90.9455C74.6978 91.3182 74.4356 91.646 74.112 91.9055C68.224 95.7455 61.504 96.8335 54.784 98.0495C46.976 99.5215 39.04 99.1375 31.168 99.1375C29.376 99.0735 27.648 98.4975 25.92 98.4975C25.0386 98.4295 24.2052 98.0691 23.552 97.4735Z" fill="#ECE981"/>
<path d="M87.2322 92.4145L86.7842 93.2465C82.6242 97.7265 77.0562 99.7105 71.4882 101.63C51.7122 108.222 31.8082 108.606 11.7122 102.974L10.2402 102.398C14.0688 100.713 18.0286 99.3431 22.0802 98.3025L23.5522 97.4705C23.9061 97.4004 24.2705 97.404 24.6229 97.4811C24.9753 97.5582 25.308 97.7071 25.6002 97.9185C25.7922 97.9825 25.8562 98.1105 25.7922 98.1745C31.1682 99.0065 36.3522 100.734 41.7282 101.694C47.1042 102.654 54.2722 103.294 60.5442 102.27C66.8162 101.246 70.4002 98.5585 72.8322 93.3105C73.2162 92.6065 73.7282 92.0305 74.1122 91.3905L74.6242 90.8145C75.2002 89.6625 76.3522 89.0225 77.1202 88.0625C78.5921 86.4844 79.7055 84.6069 80.3842 82.5585C80.6402 81.5985 80.8322 80.5745 81.8562 80.0625C85.6322 82.3025 88.4482 88.7025 87.2322 92.4145Z" fill="#689B69"/>
<path d="M53.9516 35.2626L53.4396 35.7746C52.8636 36.3506 52.6716 37.2466 51.9676 37.7586C49.0236 40.0626 47.8076 43.4546 46.5276 46.7826C46.449 46.8705 46.3476 46.9349 46.2346 46.9688C46.1217 47.0027 46.0016 47.0047 45.8876 46.9746C42.4956 44.4146 41.0876 40.8306 40.3196 36.8626C40.2306 36.4893 40.2245 36.1009 40.302 35.7249C40.3794 35.3489 40.5383 34.9945 40.7676 34.6866C40.9139 34.3747 41.0851 34.075 41.2796 33.7906C44.2236 30.5906 48.0636 28.6706 52.0956 27.0706C73.0876 19.092 94.4209 18.0893 116.096 24.0626L117.824 24.7026C113.482 26.5674 108.985 28.0451 104.384 29.1186C101.952 29.2466 99.7116 28.5426 97.4076 27.9026C89.0236 25.6626 80.5756 23.9346 71.8076 24.3186C69.0287 24.3458 66.2767 24.8658 63.6796 25.8546C60.0956 27.2626 57.2796 29.5026 55.5516 33.0226C55.1368 33.8473 54.5971 34.6029 53.9516 35.2626Z" fill="#689B69"/>
<path d="M62.8482 69.6965L59.8402 68.1605L56.4482 66.0485L55.8722 65.2165C51.8975 62.2697 48.7821 58.3147 46.8482 53.7605C45.9522 51.5845 44.9282 49.2805 46.3362 46.8485C46.4779 46.7793 46.6355 46.7489 46.7928 46.7601C46.9501 46.7713 47.1017 46.8239 47.2322 46.9125C51.9042 50.6245 57.2162 53.1205 62.4642 55.7445C62.8482 55.9365 63.1682 56.2565 63.4882 56.4485L68.1602 58.8165L70.0162 60.0325L72.1282 61.8885C75.9682 64.8325 79.1682 68.3525 81.0242 72.8965C81.6939 74.3544 82.126 75.91 82.3042 77.5045C82.3042 78.4005 82.4322 79.4245 81.4082 79.9365C81.1107 79.9665 80.8102 79.9367 80.5244 79.8488C80.2386 79.7608 79.9733 79.6166 79.7442 79.4245C74.5602 75.4565 68.4162 73.0245 62.8482 69.6965Z" fill="#4B8F41"/>
<path d="M81.2159 79.7466C82.3679 77.5066 81.4079 75.5226 80.5759 73.5386C79.1777 70.0164 76.9879 66.8631 74.1759 64.3226C73.4079 63.6186 72.4479 63.0426 72.1279 61.8906C78.3999 65.4106 84.3519 69.3146 88.3199 75.5226C92.2879 81.7306 91.5839 87.6826 87.2959 92.4186C87.2259 90.1228 86.6972 87.8642 85.741 85.7758C84.7847 83.6875 83.4203 81.8116 81.7279 80.2586C81.2159 80.3866 81.0879 80.1946 81.2159 79.7466Z" fill="#4D904C"/>
<path d="M46.3353 46.8475C45.8873 52.6075 48.8313 56.9595 52.2233 61.1195C53.3753 62.5275 55.0393 63.4875 55.8713 65.2155C49.6633 61.6315 43.7113 57.7915 39.6793 51.5835C35.6473 45.3755 36.4153 39.4875 40.7673 34.6875C40.8153 36.9873 41.3341 39.2528 42.2918 41.3443C43.2494 43.4357 44.6256 45.3087 46.3353 46.8475Z" fill="#4D904C"/>
<path d="M63.4879 56.4454C57.2426 54.2967 51.4333 51.0452 46.3359 46.8454C46.9759 42.0454 49.6639 38.5254 53.4399 35.7734C52.1599 44.0934 55.7439 50.2374 62.1439 55.0374C62.6559 55.4214 63.2959 55.7414 63.4879 56.4454Z" fill="#629549"/>
<path d="M81.2157 79.7433L81.7277 80.2553C80.5757 84.6073 78.7837 88.5113 74.6237 90.8153C75.7757 82.1753 71.3597 76.2873 64.9597 71.4233C64.1917 70.9113 63.5517 70.2713 62.8477 69.6953C69.4373 72.1095 75.6286 75.4964 81.2157 79.7433Z" fill="#629549"/>
</svg>
