<svg width="128" height="128" viewBox="0 0 128 128" fill="none" xmlns="http://www.w3.org/2000/svg">
<path d="M98.6519 61.5249H66.1216V31.116H93.3481C96.5304 40.3094 98.2983 50.5635 98.6519 61.5249ZM29.7017 31.116H6.01105L0 37.1271V61.5249H24.7514C24.7514 50.5635 26.5193 40.3094 29.7017 31.116ZM24.7514 66.1216H0V90.8729L5.65746 96.5304H29.7017C26.5193 87.337 24.7514 77.0829 24.7514 66.1216ZM66.1216 101.127V128H71.4254C79.9116 121.282 86.6298 112.442 91.5801 101.127H66.1216ZM49.1492 0H36.7735L10.6077 26.5193H31.4696C35.7127 15.9116 41.7238 7.07182 49.1492 0ZM97.5912 96.5304H121.635L127.646 90.5193V65.768H102.895C102.541 77.0829 100.773 87.337 97.5912 96.5304ZM117.039 26.5193L90.5193 0H78.4972C85.9227 7.07182 91.9337 15.9116 96.1768 26.5193H117.039ZM98.6519 66.1216H66.1216V96.5304H92.9945C96.5304 87.337 98.2983 77.0829 98.6519 66.1216ZM121.635 31.116H97.9448C101.127 40.3094 102.895 50.5635 102.895 61.5249H127.646V37.1271L121.635 31.116ZM34.2983 96.5304H61.5249V66.1216H28.9945C29.3481 77.0829 31.116 87.337 34.2983 96.5304ZM36.0663 26.5193H61.5249V0H55.8674C47.3812 6.36464 40.663 15.558 36.0663 26.5193ZM71.779 0H66.1216V26.5193H91.5801C86.9834 15.558 80.2652 6.36464 71.779 0ZM10.2541 101.127L37.1271 128H49.5028C42.0773 120.928 35.7127 111.735 31.4696 101.127H10.2541ZM56.221 128H61.5249V101.127H36.0663C41.0166 112.088 47.7348 121.282 56.221 128ZM78.1436 128H90.5193L117.392 101.127H96.1768C91.9337 111.735 85.5691 120.928 78.1436 128ZM28.9945 61.5249H61.5249V31.116H34.2983C31.116 40.3094 29.3481 50.5635 28.9945 61.5249Z" fill="url(#paint0_linear_5027_113154)"/>
<defs>
<linearGradient id="paint0_linear_5027_113154" x1="63.8232" y1="0" x2="63.8232" y2="128" gradientUnits="userSpaceOnUse">
<stop stop-color="#009BFF"/>
<stop offset="1" stop-color="#0071BA"/>
</linearGradient>
</defs>
</svg>
