<svg width="128" height="128" viewBox="0 0 128 128" fill="none" xmlns="http://www.w3.org/2000/svg">
<path d="M42.6722 4H80.5469L41.2283 120.498C40.4007 122.954 38.0991 124.606 35.506 124.606H6.03046C2.70031 124.606 0 121.906 0 118.575C0 117.919 0.107209 117.269 0.314925 116.646L36.95 8.11076C37.7775 5.65503 40.0791 4 42.6722 4Z" fill="url(#paint0_linear_5027_115183)"/>
<path d="M97.7103 82.1406H37.6503C36.1159 82.1373 34.8696 83.3836 34.8662 84.918C34.8662 85.6919 35.1845 86.429 35.7507 86.955L74.3456 122.977C75.468 124.026 76.9488 124.608 78.4865 124.608H112.495L97.7103 82.1406Z" fill="#0078D4"/>
<path d="M42.6726 4.00004C40.0494 3.98999 37.7276 5.68857 36.937 8.18786L0.362218 116.552C-0.760117 119.681 0.868107 123.132 3.99725 124.254C4.6539 124.489 5.3474 124.609 6.0476 124.609H36.287C38.5786 124.201 40.4748 122.589 41.2487 120.391L48.5423 98.8961L74.5938 123.195C75.686 124.1 77.0563 124.599 78.4734 124.609H112.358L97.4962 82.1414L54.174 82.1515L80.6846 4.00004H42.6726Z" fill="url(#paint1_linear_5027_115183)"/>
<path d="M91.0499 8.10406C90.2224 5.65168 87.9241 4 85.3343 4H43.1211C45.7075 4 48.0091 5.65168 48.8333 8.10071L85.4683 116.646C86.5337 119.802 84.8385 123.222 81.6825 124.288C81.0627 124.502 80.4128 124.609 79.7561 124.609H121.969C125.3 124.609 128 121.909 128 118.575C128 117.919 127.893 117.269 127.682 116.649L91.0499 8.10406Z" fill="url(#paint2_linear_5027_115183)"/>
<defs>
<linearGradient id="paint0_linear_5027_115183" x1="56.4776" y1="12.9393" x2="17.1435" y2="129.141" gradientUnits="userSpaceOnUse">
<stop stop-color="#114A8B"/>
<stop offset="1" stop-color="#0669BC"/>
</linearGradient>
<linearGradient id="paint1_linear_5027_115183" x1="68.764" y1="67.0879" x2="59.6659" y2="70.1659" gradientUnits="userSpaceOnUse">
<stop stop-opacity="0.3"/>
<stop offset="0.071" stop-opacity="0.2"/>
<stop offset="0.321" stop-opacity="0.1"/>
<stop offset="0.623" stop-opacity="0.05"/>
<stop offset="1" stop-opacity="0"/>
</linearGradient>
<linearGradient id="paint2_linear_5027_115183" x1="64.0418" y1="9.44249" x2="107.218" y2="124.477" gradientUnits="userSpaceOnUse">
<stop stop-color="#3CCBF4"/>
<stop offset="1" stop-color="#2892DF"/>
</linearGradient>
</defs>
</svg>
