<svg width="128" height="128" viewBox="0 0 128 128" fill="none" xmlns="http://www.w3.org/2000/svg">
<g clip-path="url(#clip0_5027_123933)">
<rect width="128" height="128" rx="24" fill="url(#paint0_linear_5027_123933)"/>
<path d="M59.2879 15.7757C42.9485 15.7757 32.1671 29.4534 32.1671 43.0653C32.1671 55.4752 40.3109 62.5105 40.3109 62.5105C39.8755 62.8966 31.8277 66.7357 31.5565 74.2276C31.3046 81.1774 40.278 84.7646 40.278 84.7646C31.9701 87.8014 27.7312 94.1734 28.0132 101.389C28.287 108.339 35.6339 120.054 59.0194 120.054C84.288 120.054 95.4607 109.47 95.4607 96.7567C95.4607 82.0056 79.0999 79.1928 69.4494 78.7463C52.266 77.9522 41.9726 79.68 39.9148 73.5024C39.0057 70.7777 41.7248 67.8149 45.1203 66.3143C45.1203 66.3143 50.8242 70.3505 59.4526 70.3505C74.5214 70.3505 86.7391 58.135 86.7391 43.0656C86.7391 36.1459 84.2363 29.8286 80.0247 25.0167C81.2214 22.7713 82.4891 20.3342 85.1371 20.3233C86.1858 20.3178 86.9333 21.0709 87.9822 21.8184C89.1788 22.7166 90.5261 23.4669 92.9193 23.4669C97.558 23.4669 101 19.8744 101 15.2355C101 10.5967 97.4074 7.13292 92.9193 7.00417C82.6424 6.71118 76.8454 21.9389 76.8454 21.9389C72.1464 18.0888 66.0784 15.7805 59.3045 15.7805M47.2258 86.9461C51.5084 87.7731 61.9825 87.795 68.072 88.0359C74.1648 88.2769 85.3781 89.3969 85.7019 97.6091C85.984 104.824 75.5182 110.066 60.4517 110.066C46.0126 110.066 37.1595 105.257 38.3011 97.453C39.3225 90.4868 47.2252 86.9461 47.2252 86.9461L47.2258 86.9461ZM59.4523 61.6467C49.189 61.6467 40.8694 53.3277 40.8694 43.0639C40.8694 32.8007 49.1884 24.4811 59.4523 24.4811C69.7161 24.4811 78.0351 32.8001 78.0351 43.0639C78.0351 53.3271 69.7161 61.6467 59.4523 61.6467Z" fill="#231F20"/>
<path d="M67.8207 33.9453C64.8442 33.9453 62.4316 36.3577 62.4316 39.3316C62.4316 42.3081 64.844 44.7206 67.8207 44.7206C70.7945 44.7206 73.2069 42.3082 73.2069 39.3316C73.2069 36.3577 70.7945 33.9453 67.8207 33.9453Z" fill="#231F20"/>
</g>
<defs>
<linearGradient id="paint0_linear_5027_123933" x1="64" y1="0" x2="64" y2="128" gradientUnits="userSpaceOnUse">
<stop stop-color="white"/>
<stop offset="1" stop-color="#EEEEEE"/>
</linearGradient>
<clipPath id="clip0_5027_123933">
<rect width="128" height="128" fill="white"/>
</clipPath>
</defs>
</svg>
