<svg width="128" height="128" viewBox="0 0 128 128" fill="none" xmlns="http://www.w3.org/2000/svg">
<path d="M74.454 67.6297C72.3331 67.6592 74.8553 68.7226 77.6243 69.1487C78.3891 68.5515 79.0831 67.9472 79.7016 67.3594C77.9772 67.7819 76.2221 67.7914 74.454 67.6297Z" fill="#A80030"/>
<path d="M85.8388 64.7893C87.1017 63.046 88.0223 61.1375 88.3469 59.1641C88.0636 60.571 87.3 61.7855 86.5812 63.0672C82.6167 65.5635 86.2082 61.5848 86.5789 60.0729C82.3157 65.4384 85.9934 63.2903 85.8388 64.7893Z" fill="#A80030"/>
<path d="M90.0398 53.853C90.2959 50.0336 89.288 51.241 88.9492 52.6987C89.3446 52.904 89.6574 55.3909 90.0398 53.853Z" fill="#A80030"/>
<path d="M66.4141 1.65625C67.5459 1.85926 68.8596 2.01505 68.6755 2.28534C69.9136 2.01387 70.1945 1.76366 66.4141 1.65625Z" fill="#A80030"/>
<path d="M68.6752 2.28125L67.875 2.44649L68.6198 2.38039L68.6752 2.28125Z" fill="#A80030"/>
<path d="M103.97 55.3049C104.096 58.7347 102.967 60.3989 101.948 63.3449L100.115 64.2608C98.6149 67.1737 100.26 66.1103 99.1862 68.4272C96.8445 70.5092 92.0797 74.9423 90.5548 75.3472C89.4418 75.3224 91.309 74.0335 91.5533 73.5284C88.4185 75.6812 89.0382 76.76 84.2439 78.0677L84.1034 77.7561C72.2794 83.3188 55.8546 72.295 56.0706 57.2535C55.9443 58.2083 55.7118 57.9699 55.4498 58.3559C54.8396 50.6168 59.0237 42.8435 66.0806 39.6697C72.9828 36.2528 81.0748 37.655 86.019 42.2628C83.3032 38.7054 77.8975 34.9344 71.491 35.2873C65.2154 35.3865 59.3447 39.3746 57.3854 43.7039C54.1704 45.7281 53.7974 51.5067 52.3964 52.5643C50.5115 66.4172 55.942 72.4024 65.1281 79.4427C66.5739 80.4176 65.5353 80.5652 65.7312 81.3076C62.679 79.8783 59.8841 77.7207 57.5861 75.0792C58.8053 76.8638 60.1213 78.5988 61.8221 79.9621C58.9446 78.9872 55.1004 72.989 53.978 72.7447C58.9387 81.6263 74.1041 88.3208 82.045 84.9995C78.3708 85.1352 73.7028 85.075 69.5742 83.5489C67.8404 82.6566 65.4822 80.8083 65.9035 80.4625C76.7408 84.5108 87.9358 83.5289 97.3131 76.0117C99.6984 74.1539 102.304 70.9931 103.058 70.9495C101.923 72.655 103.251 71.7697 102.38 73.2758C104.757 69.4422 101.347 71.7155 104.837 66.6556L106.126 68.4307C105.647 65.2487 110.078 61.3845 109.628 56.3518C110.644 54.8127 110.762 58.0077 109.684 61.5485C111.18 57.6206 110.078 56.9891 110.463 53.7481C110.878 54.8375 111.423 55.9953 111.703 57.1449C110.728 53.3491 112.704 50.7525 113.193 48.5466C112.711 48.333 111.688 50.2249 111.454 45.7411C111.488 43.7936 111.996 44.7201 112.192 44.2409C111.809 44.0214 110.806 42.5283 110.196 39.665C110.638 38.9922 111.378 41.4094 111.98 41.5086C111.593 39.2318 110.926 37.4956 110.899 35.7488C109.141 32.0734 110.277 36.2386 108.85 34.1708C106.978 28.3319 110.404 32.8158 110.635 30.1626C113.472 34.2735 115.09 40.6446 115.833 43.2837C115.266 40.0663 114.35 36.9492 113.233 33.9335C114.094 34.2959 111.845 27.3134 114.353 31.9377C111.674 22.08 102.886 12.8691 94.8026 8.54693C95.7917 9.4522 97.0405 10.5888 96.5919 10.767C92.5719 8.37343 93.2789 8.18694 92.7029 7.17544C89.4277 5.84291 89.2128 7.28285 87.0435 7.1778C80.8706 3.90371 79.6809 4.25189 74.0002 2.20057L74.2587 3.40799C70.169 2.04595 69.4939 3.92495 65.0738 3.41271C64.8047 3.20262 66.4901 2.65261 67.8769 2.45079C63.923 2.97247 64.1083 1.6718 60.2394 2.59478C61.193 1.92556 62.201 1.48296 63.2184 0.914062C59.9939 1.10999 55.5206 2.79071 56.9015 1.26224C51.6422 3.60864 42.3015 6.9028 37.0599 11.8175L36.8946 10.7163C34.4928 13.5997 26.4208 19.3276 25.7776 23.062L25.1355 23.2119C23.8856 25.3281 23.0771 27.7265 22.0857 29.9041C20.451 32.6895 19.6897 30.9758 19.9222 31.4125C16.7071 37.9311 15.1102 43.4088 13.7305 47.901C14.7136 49.3704 13.7541 56.7472 14.1259 62.6509C12.5112 91.8085 34.5895 120.119 58.7227 126.655C62.26 127.92 67.5205 127.872 71.9949 128.002C66.7155 126.492 66.0333 127.202 60.8909 125.409C57.1813 123.662 56.368 121.667 53.7407 119.387L54.7806 121.225C49.6275 119.401 51.7838 118.968 47.5915 117.64L48.7021 116.19C47.032 116.063 44.2784 113.375 43.5254 111.886L41.6984 111.958C39.503 109.25 38.3334 107.297 38.4184 105.785L37.8282 106.837C37.159 105.689 29.7516 96.6783 33.5946 98.7757C32.8805 98.123 31.9315 97.7135 30.9023 95.8439L31.6849 94.9492C29.8354 92.5698 28.2809 89.52 28.399 88.5037C29.3857 89.8363 30.0702 90.0853 30.7477 90.3131C26.0774 78.7251 25.8153 89.6746 22.278 78.5174L23.0263 78.4572C22.4527 77.5932 22.1045 76.6549 21.6431 75.7343L21.9688 72.4885C18.6062 68.6007 21.0281 55.9576 21.5132 49.0234C21.8496 46.2037 24.3199 43.2023 26.1989 38.4953L25.0541 38.2982C27.2423 34.4812 37.5485 22.9688 42.3215 23.5613C44.6337 20.6566 41.8624 23.5506 41.4104 22.8189C46.4891 17.5631 48.086 19.1057 51.5136 18.1603C55.2102 15.9662 48.341 19.016 50.0937 17.3235C56.4837 15.6912 54.6224 13.6127 62.9587 12.7841C63.838 13.2846 60.918 13.5572 60.1851 14.2064C65.5093 11.6015 77.0336 12.194 84.5189 15.6522C93.2046 19.7112 102.963 31.7099 103.348 42.9993L103.786 43.1173C103.564 47.6047 104.473 52.7944 102.898 57.5616L103.97 55.3049Z" fill="#A80030"/>
<path d="M51.3052 70.5391L51.0078 72.0262C52.4017 73.9194 53.5076 75.9707 55.2875 77.4508C54.0069 74.9509 53.0556 73.9182 51.3052 70.5391Z" fill="#A80030"/>
<path d="M54.6005 70.4088C53.8628 69.5933 53.4261 68.6113 52.9375 67.6328C53.4049 69.3525 54.3621 70.8302 55.2532 72.3327L54.6005 70.4088Z" fill="#A80030"/>
<path d="M112.909 57.7344L112.598 58.5157C112.027 62.5735 110.793 66.5888 108.902 70.3114C110.991 66.3835 112.343 62.0872 112.909 57.7344Z" fill="#A80030"/>
<path d="M66.8307 0.63381C68.2648 0.108586 70.3562 0.345822 71.8776 0C69.8947 0.166419 67.9213 0.265563 65.9727 0.516962L66.8307 0.63381Z" fill="#A80030"/>
<path d="M16.4862 27.4062C16.8167 30.4655 14.1847 31.6529 17.0693 29.6358C18.6154 26.1528 16.465 28.6739 16.4862 27.4062Z" fill="#A80030"/>
<path d="M13.0969 41.5621C13.7614 39.5226 13.8818 38.2975 14.1356 37.1172C12.299 39.4648 13.2905 39.9652 13.0969 41.5621Z" fill="#A80030"/>
</svg>
