<svg width="128" height="128" viewBox="0 0 128 128" fill="none" xmlns="http://www.w3.org/2000/svg">
<path d="M-0.000244141 24C-0.000244141 10.7452 10.7449 0 23.9998 0H104C117.255 0 128 10.7452 128 24V104C128 117.255 117.255 128 104 128H23.9998C10.7449 128 -0.000244141 117.255 -0.000244141 104V24Z" fill="#FFD02F"/>
<path d="M87.2216 17.0625H73.5575L85.6875 35.8663L60.0426 17.0625H46.3785L58.5082 41.6999L32.8637 17.0625H19.2L31.1307 48.8646L19.2 110.929H32.8637L58.5082 44.3819L46.3785 110.929H60.0426L85.6875 38.5482L73.5575 110.929H87.2216L113.065 31.423L87.2216 17.0625Z" fill="#050038"/>
</svg>
