<svg width="128" height="128" viewBox="0 0 128 128" fill="none" xmlns="http://www.w3.org/2000/svg">
<ellipse cx="56.5" cy="80" rx="46.5" ry="30" fill="white"/>
<path fill-rule="evenodd" clip-rule="evenodd" d="M127.999 33.4475C127.951 31.7365 126.64 30.2276 123.257 30.6358C117.753 31.3009 111.543 34.9838 107.322 38.2215C103.84 40.8889 101.147 42.7714 98.3346 41.6749C94.324 40.0814 100.462 29.9613 102.022 27.4691C104.444 23.5883 105.638 18.1624 99.4967 19.2589C93.588 20.3041 88.5929 25.2951 83.0728 30.8242C80.6038 33.3009 77.6241 37.6601 74.2964 38.2215C67.2781 39.4068 70.9378 29.764 72.3388 26.0346C74.4991 20.2523 75.6093 15.6374 72.2643 15.11C64.7341 13.9133 57.8278 22.7403 53.4757 29.0101C51.0336 32.5238 46.2542 42.9586 41.1339 39.9128C38.8837 38.5731 41.4331 31.4797 40.3282 28.2837C39.1381 24.8064 34.5739 27.6472 32.0757 31.5542C29.869 34.988 28.6187 38.0338 27.0818 41.7721C26.2481 43.7732 24.3828 50.3851 21.1391 49.3959C18.3806 48.5526 19.1678 43.7643 19.2619 41.7393C19.3042 40.6612 19.4067 38.9283 18.6332 38.2918C17.2131 37.119 14.1679 39.5904 11.9236 43.9615C8.95228 49.7242 6.43624 57.5018 6.11861 58.1168C-14.4703 98.2255 21.135 112.412 50.1951 113.135C82.2259 113.936 133.022 96.7106 120.695 59.1042C119.791 56.3319 118.516 54.0578 118.01 52.3898C117.063 49.2695 120.212 45.9519 123.688 41.5992C125.675 39.1118 128.055 35.8562 127.999 33.4475ZM99.2488 78.6967C97.7113 94.66 74.9442 107.442 50.2743 106.818C27.3994 106.241 12.1626 94.2 14.6971 80.2414C17.1607 66.663 35.839 54.9398 57.8278 53.652C81.4381 52.2551 100.748 63.234 99.2488 78.6967Z" fill="#DE2126"/>
<path fill-rule="evenodd" clip-rule="evenodd" d="M53.6808 64.3365C43.2323 64.908 33.8237 73.1927 32.3422 83.0316C30.835 93.0594 38.0363 101.386 48.7989 101.427C59.9363 101.466 70.2448 92.6744 71.4211 82.0113C72.5874 71.5616 64.4868 63.7412 53.6808 64.3365ZM52.331 86.6072C51.9055 90.3187 48.6809 93.3931 45.1726 93.458C41.6989 93.5087 39.2913 90.585 39.7598 86.9582C40.2156 83.3516 43.3211 80.3433 46.7375 80.2074C50.213 80.0525 52.7302 82.9052 52.331 86.6072ZM56.1217 80.919C55.987 82.1132 54.9555 83.1079 53.8125 83.1251C52.707 83.1442 51.9192 82.2074 52.0741 81.0358C52.2195 79.8642 53.2171 78.8988 54.319 78.8523C55.4424 78.801 56.2576 79.7289 56.1217 80.919Z" fill="#231815"/>
</svg>
