<svg width="128" height="128" viewBox="0 0 128 128" fill="none" xmlns="http://www.w3.org/2000/svg">
<g clip-path="url(#clip0_5027_74947)">
<path d="M0 16C0 7.16344 7.16344 0 16 0H112C120.837 0 128 7.16344 128 16V112C128 120.837 120.837 128 112 128H16C7.16344 128 0 120.837 0 112V16Z" fill="url(#paint0_linear_5027_74947)"/>
<g clip-path="url(#clip1_5027_74947)">
<path d="M25.2374 88.0573L23.2348 89.1299C21.6716 90.0085 20.2566 90.1078 19.5229 90.1078C15.4207 90.1078 12.8305 87.9592 12.8305 82.7285L12.8807 76.82L13.029 69.298H9.70508V64.8044L13.0279 64.9025L13.2219 56.1094H19.1806L18.9866 64.9025L24.4569 64.8044V69.298H18.9843L18.8394 76.5278L18.7892 83.024C18.7892 84.6215 19.3255 85.612 20.7918 85.612C21.8188 85.612 22.6974 85.0277 23.5281 84.4401L25.2363 88.0573H25.2374Z" fill="url(#paint1_linear_5027_74947)"/>
<path d="M27.5424 69.1058C32.9169 64.7127 35.6521 64.125 38.2891 64.125C41.9406 64.125 45.3227 66.4231 45.3227 71.2077C45.3227 72.0863 45.3227 72.6226 45.2748 73.2616L45.0785 80.3432C45.0306 81.4637 44.9815 82.3971 44.9815 83.4184C44.9815 84.7842 45.6662 85.7633 46.2995 85.7633C46.5939 85.7633 47.0332 85.6149 48.059 85.1277L49.474 88.1059C46.8837 89.8153 45.4802 90.1119 44.3448 90.1119C42.2452 90.1119 40.5336 88.891 40.0954 86.837C38.3382 88.891 36.1382 90.1119 33.7944 90.1119C29.399 90.1119 26.4185 87.3277 26.4185 82.9345C26.4185 78.975 28.9596 75.5552 39.607 73.7991V72.1879C39.607 69.4516 38.4363 68.913 36.7749 68.913C35.5539 68.913 34.0888 69.4036 30.3769 72.2826L27.5413 69.1081L27.5424 69.1058ZM39.558 77.6068C33.8902 78.8769 32.0839 80.2462 32.0839 82.7326C32.0839 84.5423 33.3528 85.6161 35.2105 85.6161C36.4314 85.6161 38.0426 84.8379 39.461 83.3339L39.558 77.6171V77.6068Z" fill="url(#paint2_linear_5027_74947)"/>
<path d="M52.0574 52.7969H58.0138L57.724 89.4301H51.7642L52.0586 52.7969H52.0574Z" fill="url(#paint3_linear_5027_74947)"/>
<path d="M63.3427 52.7969H69.2992L69.0059 76.2917H69.104L79.5563 63.3496L83.8068 66.9132L75.21 76.5861L83.8068 87.5747L78.923 90.9488L69.1052 77.37H69.0071V89.4335H63.0483L63.3427 52.7992V52.7969Z" fill="url(#paint4_linear_5027_74947)"/>
<path d="M87.2323 75.678C87.141 75.4132 87.2551 75.1074 87.4993 74.9853C87.497 74.9785 88.6769 74.3543 90.1295 73.1071C91.4417 71.9843 92.9479 70.3742 93.9589 68.3443C85.0585 66.8837 78.2622 61.1007 78.2349 53.9267C78.2782 45.606 87.3783 39.1429 98.3783 39.1406C109.382 39.1429 118.478 45.606 118.523 53.9256C118.496 61.2285 111.422 67.1108 102.265 68.423C100.53 71.0087 96.5823 74.4867 87.8724 76.05C87.8382 76.0545 87.8039 76.0591 87.772 76.0591C87.5347 76.0591 87.3156 75.9073 87.2334 75.678H87.2323ZM84.8737 44.3371C81.439 46.8361 79.3737 50.2251 79.3737 53.9267C79.3463 60.472 85.9463 66.1249 94.8718 67.3276C94.9587 67.3383 95.0419 67.3693 95.1146 67.418C95.1873 67.4668 95.2476 67.5319 95.2906 67.6083C95.3784 67.7623 95.3898 67.9506 95.3214 68.1138C94.1232 70.9265 92.0784 73.0056 90.4604 74.3189C97.1882 72.5788 100.133 69.6382 101.447 67.5889C101.535 67.4462 101.675 67.3527 101.851 67.3298C110.793 66.1374 117.408 60.4788 117.378 53.9267C117.381 50.2251 115.315 46.8349 111.883 44.3371C108.455 41.845 103.672 40.2828 98.3772 40.2863H98.3658C93.0769 40.2863 88.3015 41.8495 84.8737 44.3371Z" fill="url(#paint5_linear_5027_74947)"/>
<path d="M99.3654 41.6875C106.22 43.5851 111.144 48.72 111.144 54.7791C111.144 58.9714 108.777 62.721 105.053 65.269C111.278 63.1386 115.516 58.944 115.516 54.1127C115.516 47.9212 108.553 42.7818 99.3643 41.6886L99.3654 41.6875Z" fill="#A7A6A6"/>
</g>
</g>
<defs>
<linearGradient id="paint0_linear_5027_74947" x1="64" y1="0" x2="64" y2="128" gradientUnits="userSpaceOnUse">
<stop stop-color="white"/>
<stop offset="1" stop-color="#EEEEEE"/>
</linearGradient>
<linearGradient id="paint1_linear_5027_74947" x1="17.4439" y1="71.6566" x2="17.4439" y2="87.6317" gradientUnits="userSpaceOnUse">
<stop stop-color="#0C80C4"/>
<stop offset="1" stop-color="#0A659B"/>
</linearGradient>
<linearGradient id="paint2_linear_5027_74947" x1="37.9833" y1="71.7714" x2="37.9833" y2="90.8274" gradientUnits="userSpaceOnUse">
<stop stop-color="#ED1A3B"/>
<stop offset="1" stop-color="#D82037"/>
</linearGradient>
<linearGradient id="paint3_linear_5027_74947" x1="54.8713" y1="65.7276" x2="54.8713" y2="89.1197" gradientUnits="userSpaceOnUse">
<stop stop-color="#FEE000"/>
<stop offset="1" stop-color="#F9B118"/>
</linearGradient>
<linearGradient id="paint4_linear_5027_74947" x1="73.3568" y1="72.8023" x2="73.3568" y2="85.3541" gradientUnits="userSpaceOnUse">
<stop stop-color="#14AE4B"/>
<stop offset="1" stop-color="#119948"/>
</linearGradient>
<linearGradient id="paint5_linear_5027_74947" x1="98.3464" y1="38.2323" x2="98.3464" y2="71.3236" gradientUnits="userSpaceOnUse">
<stop stop-color="#808080"/>
<stop offset="1" stop-color="#1A1A1A"/>
</linearGradient>
<clipPath id="clip0_5027_74947">
<rect width="128" height="128" fill="white"/>
</clipPath>
<clipPath id="clip1_5027_74947">
<rect width="110" height="52.9461" fill="white" transform="translate(9 38)"/>
</clipPath>
</defs>
</svg>
