<svg width="128" height="128" viewBox="0 0 128 128" fill="none" xmlns="http://www.w3.org/2000/svg">
<g clip-path="url(#clip0_5027_114839)">
<path d="M50.6253 30C45.4872 30 41.1046 31.0579 36.8732 33.1736C25.8413 38.614 19.4941 50.2504 19.4941 64.7581C19.4941 79.2659 25.6902 90.6 36.7221 95.7382C39.7446 97.0983 42.767 97.8539 47.3007 98.4584C49.5675 98.6095 51.6832 98.7606 53.9501 98.4584C58.4837 97.8539 61.5062 97.0983 64.5286 95.7382C75.5605 90.4489 81.7565 79.2659 81.7565 64.7581C81.7565 50.2504 75.4094 38.614 64.3775 33.1736C59.9949 31.0579 55.6124 30 50.6253 30ZM55.0079 40.2763C61.6573 42.0898 66.3421 47.9835 68.3067 56.7486C69.6668 62.7935 69.2134 69.8963 67.3999 75.4878C64.5286 84.1018 58.3326 89.0888 50.6253 88.9377C43.0692 89.0888 36.7221 84.1018 33.8508 75.4878C32.0373 69.8963 31.584 62.9446 32.9441 56.7486C34.7575 47.9835 39.5934 42.0898 46.2428 40.2763C49.1141 39.6718 52.1366 39.6718 55.0079 40.2763Z" fill="white"/>
<path d="M6.64937 30C3.02244 30 0 33.0224 0 36.6494C0 40.2763 3.02244 43.2988 6.64937 43.2988C10.2763 43.2988 13.2988 40.2763 13.2988 36.6494C13.2988 33.0224 10.2763 30 6.64937 30ZM0.453394 50.0993V98.6095H12.8454V50.0993H0.453394Z" fill="white"/>
<path d="M99.589 98.6055C94.2997 97.6988 89.1616 96.9432 84.9302 94.5252C84.9302 94.5252 87.4992 84.7023 87.6504 84.5512C94.602 86.9691 104.425 90.1427 110.923 87.1203C114.55 85.3068 116.212 81.9821 115.759 78.204C115.155 73.8215 112.132 71.4035 103.972 68.3811C94.9043 64.9053 89.4639 60.825 87.3481 55.3846C86.2903 52.6644 85.988 49.3397 86.4414 46.3172C87.8015 38.0055 94.2997 32.2629 104.123 30.4494C106.994 29.996 113.19 29.996 116.212 30.4494C120.595 31.205 125.582 32.8674 125.582 33.4718C125.582 33.7741 123.013 42.6903 122.862 42.9926C118.479 41.3302 113.795 40.1212 109.563 39.9701C103.82 39.819 97.4733 43.2948 98.5312 49.3397C99.2868 53.1177 101.705 54.9312 110.621 58.5581C117.27 61.2783 120.293 63.0918 123.013 65.812C126.791 69.5901 128 73.9726 128 78.3552C128 81.9821 127.698 83.6444 126.338 86.5158C123.164 93.3163 116.817 97.2454 107.145 98.3033C105.332 98.6055 101.1 98.7567 99.589 98.6055Z" fill="white"/>
</g>
<defs>
<clipPath id="clip0_5027_114839">
<rect width="128" height="128" fill="white"/>
</clipPath>
</defs>
</svg>
