<svg width="128" height="128" viewBox="0 0 128 128" fill="none" xmlns="http://www.w3.org/2000/svg">
<path d="M43.1601 64C43.1601 79.3576 55.8028 92.321 71.8019 92.321C79.3203 92.321 84.7615 89.4381 91.1611 84.7988C94.5213 82.4008 97.7211 79.6783 103.483 79.6783C108.283 79.6783 112.12 81.4386 114.843 83.5196C119.001 86.7194 121.242 91.1984 121.242 96.8C121.242 102.718 118.68 106.72 115.962 109.76C107.481 119.359 90.0423 128 70.5227 128C34.5229 128 7 98.2395 7 64C7 29.7605 34.6795 0 70.5227 0C89.8819 0 106.843 8.641 115.32 18.2404C118.043 21.2799 120.601 25.2815 120.601 31.2C120.601 36.6374 118.363 41.2806 114.201 44.4804C110.841 47.0387 107 48.3179 102.842 48.3179C97.0834 48.3179 93.8836 45.5992 90.5196 43.2012C84.7615 39.0392 79.4806 35.679 71.4811 35.679C55.8028 35.679 43.1601 48.6386 43.1601 64Z" fill="url(#paint0_linear_5027_114628)"/>
<defs>
<linearGradient id="paint0_linear_5027_114628" x1="64.1212" y1="0" x2="64.1212" y2="128" gradientUnits="userSpaceOnUse">
<stop stop-color="#FF5C5E"/>
<stop offset="1" stop-color="#FF3033"/>
</linearGradient>
</defs>
</svg>
