<svg width="128" height="128" viewBox="0 0 128 128" fill="none" xmlns="http://www.w3.org/2000/svg">
<path d="M57.8362 127.209C55.6865 127.008 50.0306 126.028 47.9326 125.493C29.7949 120.862 14.4346 108.442 6.30602 91.8341C1.84984 82.7297 -0.00730606 74.5877 2.15935e-05 64.1877C0.00726873 53.7751 1.89303 45.4699 6.27706 36.5412C9.56063 29.8537 13.3374 24.6149 18.6992 19.3104C28.7288 9.38807 41.4329 3.24568 55.8231 1.36129C60.5277 0.745229 70.4865 0.945678 74.8804 1.74488C84.0182 3.40696 92.2223 6.67141 99.5743 11.5707C114.849 21.7494 124.756 37.3163 127.339 55.1959C127.892 59.0238 128.212 66.99 127.839 67.6555C127.636 68.0185 127.531 67.6382 127.398 66.0647C126.738 58.264 123.364 48.8316 118.708 41.7752C104.558 20.3277 78.1571 11.2284 53.7134 19.3741C34.8466 25.6614 20.6668 41.6128 16.775 60.9275C14.8507 70.478 15.4281 79.8395 18.5117 89.0814C23.9498 105.38 36.965 118.401 53.4707 124.056C57.3633 125.389 62.3624 126.5 65.659 126.765C69.6062 127.082 68.6114 127.383 63.7413 127.345C61.084 127.325 58.4267 127.264 57.8362 127.209Z" fill="#F78B24"/>
<path d="M71.3911 119.327C50.988 117.841 34.083 102.628 30.555 82.578C29.9129 78.9285 29.7891 72.1064 30.3042 68.749C33.363 48.8109 48.6997 33.6847 68.707 30.8731C72.7622 30.3033 79.9885 30.503 83.8723 31.2923C87.2506 31.9789 90.9957 33.1977 93.9378 34.5679L96.2193 35.6305L94.072 36.6446C86.3231 40.304 81.5404 48.8636 82.6631 57.0632C83.7874 65.2744 89.4657 71.7193 97.6173 74.0362C100.552 74.8703 105.04 74.87 107.976 74.0356C111.772 72.9567 114.749 71.1922 117.458 68.4153C118.373 67.4778 119.18 66.807 119.252 66.9247C119.324 67.0423 119.533 68.3348 119.717 69.7969C120.17 73.4041 119.904 80.267 119.178 83.6935C116.869 94.6061 111.049 103.766 102.124 110.534C93.6776 116.939 82.5035 120.136 71.3911 119.327V119.327Z" fill="#F78B24"/>
</svg>
