<svg width="128" height="128" viewBox="0 0 128 128" fill="none" xmlns="http://www.w3.org/2000/svg">
<g clip-path="url(#clip0_5027_121561)">
<path d="M64 0C28.5536 0 0 28.5536 0 64C0 99.4464 28.5536 128 64 128C99.4432 128 128 99.4464 128 64C128 28.5536 99.4432 0 64 0Z" fill="#8BC34A"/>
<path d="M88.7872 95.7295C87.8528 95.7295 86.9152 95.2655 85.9808 94.7951C77.0944 89.6527 66.336 86.8463 54.6464 86.8463C48.096 86.8463 41.5488 87.7775 35.4688 89.1823C34.5344 89.1823 33.1296 89.6495 32.6624 89.6495C30.3232 89.6495 28.9216 87.7743 28.9216 85.9055C28.9216 83.5695 30.3232 82.1615 32.1952 81.7007C39.6768 79.8255 47.1616 78.8943 55.1104 78.8943C68.208 78.8943 80.368 82.1615 90.656 88.2511C92.0576 89.1823 92.9952 90.1199 92.9952 92.4559C92.528 94.3311 90.656 95.7295 88.7872 95.7295ZM95.3344 79.8255C93.9328 79.8255 92.9984 79.3647 92.0608 78.8943C82.2432 72.8143 68.6752 69.0671 53.2448 69.0671C45.76 69.0671 38.7456 70.0047 33.6 71.4127C32.1952 71.8735 31.728 71.8735 30.7936 71.8735C27.9872 71.8735 26.1152 69.5375 26.1152 67.1983C26.1152 64.3919 27.52 62.9871 29.856 62.0559C36.8704 60.1871 43.888 58.7823 53.7088 58.7823C69.6128 58.7823 85.0464 62.5263 97.2064 70.0047C99.0752 70.9359 100.013 72.8111 100.013 74.6799C100.013 77.4895 98.1408 79.8255 95.3344 79.8255ZM102.819 61.1247C101.418 61.1247 100.947 60.6575 99.5456 60.1935C88.32 53.6431 71.4848 49.8991 55.1136 49.8991C46.6944 49.8991 38.2752 50.8367 30.7936 52.7055C29.856 52.7055 28.9216 53.1727 27.52 53.1727C24.2464 53.6399 21.9072 50.8367 21.9072 47.5599C21.9072 44.2863 23.7792 42.4175 26.1152 41.9471C35.0016 39.1407 44.3552 38.2031 55.1136 38.2031C72.8864 38.2031 91.5936 41.9471 105.626 49.8959C107.494 50.8335 108.896 52.7023 108.896 55.5087C108.432 58.7823 106.09 61.1247 102.819 61.1247Z" fill="white"/>
</g>
<defs>
<clipPath id="clip0_5027_121561">
<rect width="128" height="128" fill="white"/>
</clipPath>
</defs>
</svg>
