<svg width="128" height="128" viewBox="0 0 128 128" fill="none" xmlns="http://www.w3.org/2000/svg">
<g clip-path="url(#clip0_5027_118182)">
<path d="M128 110.222C128 120.043 120.043 128 110.222 128H17.7778C7.96089 128 0 120.043 0 110.222V17.7778C0 7.95733 7.96089 0 17.7778 0H110.222C120.043 0 128 7.95733 128 17.7778V110.222Z" fill="#1976D2"/>
<path d="M106.443 42.8107C106.606 42.2738 106.685 41.776 106.663 41.3316C106.61 40.0445 105.725 39.1094 103.641 39.1094H94.3326C91.9824 39.1094 90.8979 40.5316 90.2651 41.9574C90.2651 41.9574 84.4624 53.9005 77.7744 61.776C75.6055 64.0552 74.5033 63.9983 73.3299 63.9983C72.7006 63.9983 71.1113 63.2374 71.1113 61.1503V42.7147C71.1113 40.2472 70.4962 39.1094 68.5086 39.1094H51.9788C50.5317 39.1094 49.7779 40.2472 49.7779 41.3885C49.7779 43.76 52.9708 44.3289 53.3335 50.9743V63.856C53.3335 66.9849 52.7895 67.5538 51.6162 67.5538C48.4517 67.5538 42.2224 56.8872 38.0517 42.9067C37.1486 40.1547 36.2455 39.1094 33.8953 39.1094H24.4979C21.7851 39.1094 21.3335 40.4392 21.3335 41.8614C21.3335 44.4249 23.4668 58.2845 35.1113 74.2205C43.5557 85.776 54.6811 92.4427 64.5299 92.4427C70.4962 92.4427 71.1077 90.9245 71.1077 88.5529V77.9858C71.1113 75.1378 71.7619 74.6649 73.6606 74.6649C75.0153 74.6649 77.7779 75.5538 83.1113 81.776C89.2624 88.9512 90.3788 92.4427 93.9059 92.4427H103.214C105.376 92.4427 106.617 91.536 106.667 89.776C106.677 89.328 106.613 88.8267 106.468 88.2685C105.778 86.2205 102.613 81.2143 98.6668 76.4427C96.4802 73.8009 94.3219 71.184 93.3299 69.7618C92.6651 68.8338 92.4126 68.1796 92.4446 67.5538C92.4766 66.896 92.8179 66.2703 93.3299 65.3956C93.2375 65.3956 105.27 48.5032 106.443 42.8107Z" fill="white"/>
</g>
<defs>
<clipPath id="clip0_5027_118182">
<rect width="128" height="128" fill="white"/>
</clipPath>
</defs>
</svg>
