<svg width="128" height="128" viewBox="0 0 128 128" fill="none" xmlns="http://www.w3.org/2000/svg">
<rect width="128" height="128" rx="24" fill="#0C225A"/>
<path d="M78.2445 66.1843C78.7628 65.4767 78.9308 64.7299 78.2053 64.1511C77.4834 63.565 76.8438 63.8511 76.222 64.4369C74.614 65.9304 72.9811 67.3991 71.3408 68.8644C71.0551 69.0789 70.7547 69.2932 70.4403 69.4791L70.1865 69.3075C70.3758 68.8072 70.5797 68.3142 70.7404 67.8102C71.0261 66.8885 71.5693 65.9378 71.5088 65.0303C71.2076 59.9914 70.2786 55.0098 68.7432 50.201C68.6411 49.965 68.619 49.7021 68.6803 49.4524C68.7416 49.2028 68.883 48.98 69.0828 48.8182C70.6336 47.2674 72.1488 45.6807 73.678 44.1049C74.307 43.4616 74.6999 42.7757 73.9461 42.0073C73.1923 41.2389 72.4844 41.6251 71.7879 42.1823C70.4585 43.2514 69.1172 44.3056 67.7642 45.3447C67.3851 45.5796 66.9912 45.7897 66.585 45.9737C66.6888 45.359 66.7673 44.9911 66.8065 44.6265C66.8637 44.0118 67.1425 43.2793 66.9067 42.797C65.7953 40.4172 64.5302 38.1054 63.2688 35.7862C63.2545 35.7649 63.2476 35.7326 63.2332 35.711C62.9259 35.1428 62.2077 34.9283 61.6322 35.2286C61.3315 35.3399 61.0809 35.5557 60.926 35.8365C60.7712 36.1173 60.7226 36.4444 60.789 36.7581C61.0391 38.8808 61.3894 40.996 61.5145 43.1186C61.9022 48.4087 61.6731 53.7258 60.8319 58.9629C60.5032 60.7246 60.1886 62.4683 61.3465 64.0763C61.4716 64.3334 61.5431 64.6122 61.5644 64.8909L61.3249 65.0446C60.9749 64.8378 60.6393 64.6074 60.3206 64.355C58.1624 62.4111 56.0112 60.4638 53.8816 58.4875C52.8274 57.5049 51.8771 56.3792 50.7764 55.4358C50.5575 55.2829 50.3072 55.181 50.0437 55.1377C49.7803 55.0944 49.5104 55.1108 49.2542 55.1857C48.9039 55.3108 48.6574 55.9684 48.5822 56.4291C48.6185 56.8125 48.7806 57.1731 49.0433 57.4547C51.6196 60.9458 54.1959 64.4442 56.8082 67.9137C57.0295 68.1523 57.183 68.4459 57.2527 68.7638C57.3224 69.0817 57.3059 69.4126 57.2047 69.7219C56.5008 72.1732 55.7324 74.6318 55.2358 77.1329C53.7422 84.7156 52.3521 92.3195 50.9763 99.9308C50.6689 101.596 50.5798 103.311 50.3902 105.041H77.5762C77.5313 104.88 77.4825 104.72 77.4299 104.562C75.6073 98.8304 74.5535 92.9412 73.7708 87.0025C73.2741 83.222 73.031 79.3986 72.6667 75.5891C72.5131 74.4029 72.8776 73.2021 73.6637 72.2803C75.257 70.3224 76.715 68.2141 78.2445 66.1843ZM58.1481 19.6559C74.0924 16.3327 89.8721 25.9485 93.9494 41.4641C97.4621 54.696 90.9622 68.8431 78.3912 75.1963C77.6657 75.4963 77.212 76.2112 77.2549 76.9829C76.7726 85.5159 78.8952 93.6561 81.0461 101.796C81.6751 104.19 82.4432 106.556 83.1757 109H45.7198C47.1991 97.7869 48.6248 86.631 51.0834 75.6606C49.4967 74.66 47.878 73.7669 46.3951 72.6805C39.5236 67.6635 35.4607 60.9458 34.2815 52.6163C32.1163 37.3296 42.6681 22.8326 58.1481 19.6559Z" fill="white"/>
</svg>
