<svg width="128" height="128" viewBox="0 0 128 128" fill="none" xmlns="http://www.w3.org/2000/svg">
<path d="M54.0048 17.3103C31.0812 19.6391 11.419 29.0562 3.60585 41.3715C-8.96809 61.1892 12.5579 83.3356 49.2963 88.4582C52.4009 88.8722 56.4368 89.234 58.1961 89.234C61.8702 89.234 63.0601 89.5449 63.0601 90.5793C63.0601 92.8049 58.5579 102.688 54.9361 108.276C53.9526 109.827 53.3322 111.225 53.4876 111.38C54.4189 112.364 91.1572 91.5106 107.664 80.6437C116.616 74.7453 123.187 68.2775 125.982 62.6377C127.948 58.6527 128 58.2909 128 53.3238C128 48.3566 127.896 47.8903 126.085 44.0621C120.236 31.799 103.316 22.0711 81.6879 18.397C74.2365 17.1027 60.9899 16.6377 54.0048 17.3103ZM84.2753 32.264C96.0211 34.282 106.266 38.4733 111.337 43.3372C114.804 46.7005 115.734 48.5121 116.15 52.3925C116.875 59.3267 111.803 64.9665 97.1601 73.2968C88.3634 78.3672 72.3753 85.2491 71.5472 84.4223C71.3918 84.2669 71.8581 82.6107 72.5816 80.7482C74.5473 75.832 74.5996 75.8842 70.0465 76.1951C61.4052 76.7646 44.64 74.3835 36.4128 71.4866C27.3575 68.2788 20.1647 63.2071 17.9914 58.4463C15.7148 53.4792 17.371 47.3731 22.0795 43.1296C29.1168 36.8171 40.9659 32.8335 58.1452 31.0728C63.0078 30.5569 78.531 31.2805 84.2753 32.264Z" fill="#08A1FF"/>
<path d="M81.8941 37.5418C81.0138 37.8004 79.6685 38.5763 78.8926 39.3012C77.1333 40.9573 76.5129 40.9573 76.5129 39.3012V37.9559L70.1992 38.1113L63.8867 38.2667L63.4727 39.8184C62.2828 44.1651 55.8149 68.899 55.8149 69.2085C55.8149 69.4162 58.8164 69.5703 62.5414 69.5703H69.2157L70.0437 66.5689C74.1306 51.9247 74.9599 49.8559 77.5983 47.5793C79.0468 46.3894 79.6685 46.234 81.996 46.3894L84.7388 46.5449L87.3785 42.7153C88.8792 40.6451 89.8614 38.7826 89.6028 38.524C88.9301 37.9036 85.7745 36.9711 84.5847 37.0233C83.9643 37.0246 82.7744 37.2832 81.8941 37.5418Z" fill="#08A1FF"/>
</svg>
