<svg width="128" height="128" viewBox="0 0 128 128" fill="none" xmlns="http://www.w3.org/2000/svg">
<rect width="128" height="128" rx="24" fill="#F6C700"/>
<path d="M14 44.6094H24.354V84.4666H14V44.6094Z" fill="black"/>
<path d="M43.9166 62.9642C43.0271 56.8898 42.5325 53.5133 42.4349 52.8394C42.0015 49.5877 41.5885 46.7581 41.1937 44.3438C40.2974 44.3438 35.8249 44.3438 27.7695 44.3438V84.201H36.8392L36.871 57.8836L40.6877 84.201H47.1479L50.7671 57.2982L50.8012 84.201H59.8414V44.3438H46.3151L43.9166 62.9642Z" fill="black"/>
<path d="M76.9355 52.6351C77.049 53.1434 77.108 54.2961 77.108 56.0978C77.108 57.6431 77.108 70.0053 77.108 71.5506C77.108 74.2032 76.9355 75.8279 76.5929 76.4269C76.248 77.026 75.3312 77.3232 73.8449 77.3232C73.8449 74.7069 73.8449 53.7765 73.8449 51.1602C74.9727 51.1602 75.7419 51.2805 76.1504 51.5165C76.5588 51.7547 76.822 52.1269 76.9355 52.6351ZM81.6122 83.7948C82.8443 83.5248 83.879 83.0482 84.7186 82.3698C85.5559 81.689 86.1436 80.7474 86.4794 79.5424C86.8175 78.3398 87.0172 75.9504 87.0172 72.3765C87.0172 70.9788 87.0172 59.7806 87.0172 58.3806C87.0172 54.6093 86.8697 52.0815 86.6406 50.7971C86.4091 49.5106 85.835 48.342 84.916 47.2936C83.9948 46.2453 82.6514 45.4919 80.886 45.0336C79.1184 44.5752 76.2366 44.3438 71.2241 44.3438C70.709 44.3438 68.1358 44.3438 63.5 44.3438V84.201H76.0437C78.9346 84.1102 80.7907 83.9763 81.6122 83.7948Z" fill="black"/>
<path d="M103.722 77.8418C103.531 78.3478 102.696 78.6042 102.066 78.6042C101.448 78.6042 101.038 78.3591 100.829 77.8667C100.62 77.3766 100.518 76.2579 100.518 74.5061C100.518 73.4533 100.518 65.0257 100.518 63.9729C100.518 62.1576 100.609 61.0253 100.793 60.5737C100.974 60.1267 101.374 59.8998 101.991 59.8998C102.622 59.8998 103.468 60.1562 103.686 60.6713C103.901 61.1864 104.01 62.2869 104.01 63.9729C104.01 64.6536 104.01 68.0573 104.01 74.1862C103.944 76.2851 103.849 77.5037 103.722 77.8418ZM90.543 83.8572H99.8645C100.253 82.3346 100.466 81.4882 100.509 81.3181C101.353 82.3392 102.281 83.1061 103.3 83.6144C104.314 84.125 105.832 84.3791 107.008 84.3791C108.644 84.3791 110.055 83.9502 111.246 83.0903C112.436 82.2325 113.193 81.216 113.516 80.0474C113.838 78.8765 113.999 77.0975 113.999 74.7058C113.999 73.5871 113.999 64.6423 113.999 63.5236C113.999 61.1183 113.944 59.5481 113.838 58.8106C113.731 58.0731 113.414 57.322 112.885 56.5528C112.356 55.7836 111.587 55.1868 110.579 54.7602C109.572 54.3336 108.383 54.1203 107.012 54.1203C105.821 54.1203 104.296 54.3586 103.28 54.8283C102.265 55.298 101.344 56.0105 100.518 56.9658C100.518 56.1013 100.518 51.7808 100.518 44H90.543V83.8572Z" fill="black"/>
</svg>
