<svg width="128" height="128" viewBox="0 0 128 128" fill="none" xmlns="http://www.w3.org/2000/svg">
<rect width="128" height="128" rx="24" fill="#6694C0"/>
<path d="M55.4698 44.4885C54.9905 40.5908 52.9532 30.6579 54.8107 28.7091C55.6496 27.8289 64.6375 28.2061 67.993 28.0175C73.206 27.8289 76.9809 27.326 80.5162 27.326C84.0514 27.326 92.0207 30.155 91.3616 23.9312C91.0021 21.2908 89.5041 21.2908 86.4482 21.1022C77.64 20.4107 64.1582 23.4283 53.3127 24.1198C43.0066 24.8114 33.5393 27.6403 25.7498 28.7091C21.2559 29.4006 20.1174 27.2631 18.5595 29.7778C17.3611 31.7266 18.3797 34.367 18.919 35.1214C21.7951 37.7618 34.7976 31.7266 39.711 30.8465C41.9281 30.4693 48.5192 29.4006 49.1783 29.9664C49.8374 30.6579 51.2156 47.3804 51.5751 50.3351C52.414 57.9419 53.9719 66.1145 54.4512 70.7037C55.2901 77.619 55.1103 93.3985 60.2035 92.3297C64.4578 91.4496 60.563 77.9334 59.844 74.79C57.3273 63.977 56.7881 56.1816 55.4698 44.4885Z" fill="white"/>
<path d="M86.971 47.1212C83.4837 46.8446 76.5989 49.6799 75.9039 48.9506C72.9378 45.3861 81.8299 35.5978 75.9039 31.939C70.4991 28.5568 71.9791 42.2742 71.9791 45.1095C71.9791 56.2682 71.7155 66.0502 71.9791 71.4442C72.4165 83.3322 70.2355 72.5443 68.4918 73.2736C66.5744 74.0971 71.9791 83.1499 72.5004 92.4792C73.1955 100.526 75.7241 103.085 76.4252 107.479C77.6475 114.52 80.3499 115.803 80.6075 108.026C81.0449 96.4146 77.6415 102.356 77.1202 89.1913C76.8566 82.6972 76.6828 84.5266 81.5662 84.5266C102.22 85.0736 112.335 48.1333 86.971 47.1275V47.1212ZM98.5654 69.7091C96.3843 74.9207 81.5722 84.7089 76.4252 80.3146C75.9039 79.8557 74.9451 56.3563 76.4252 54.5268C77.8213 52.4208 85.491 52.4208 88.7146 52.9741C95.0781 53.433 102.484 60.1974 98.5654 69.7091Z" fill="white"/>
</svg>
