<svg width="128" height="128" viewBox="0 0 128 128" fill="none" xmlns="http://www.w3.org/2000/svg">
<path d="M0 24C0 10.7452 10.7452 0 24 0H104C117.255 0 128 10.7452 128 24V104C128 117.255 117.255 128 104 128H24C10.7452 128 0 117.255 0 104V24Z" fill="#56A0D3"/>
<path d="M31.5351 67.1295C31.5351 47.3404 47.6533 31.4489 67.3528 31.4489C82.9841 31.4489 96.1714 41.3407 101.051 55.2894C96.9846 38.746 82.0061 26.4182 64.0967 26.4182C43.0949 26.4182 26 43.284 26 64.3721C26 84.4847 41.6294 100.867 61.4916 102.164C44.5597 99.4067 31.5351 84.8093 31.5351 67.1295Z" fill="white"/>
<path d="M95.352 20.5774C86.077 14.0905 64.5845 28.2029 47.49 52.0429C30.2323 76.0509 23.8829 100.867 33.1625 107.355C42.4425 114.005 63.9328 99.8935 81.0274 75.8883C98.1214 51.8841 104.633 27.2285 95.352 20.5774ZM77.1201 72.9689C61.491 94.8655 42.4425 108.004 34.628 102.489C26.8134 96.9742 33.1625 74.7529 48.9548 52.8585C64.5845 30.9619 83.467 17.6597 91.286 23.3364C99.0994 28.8489 92.7476 51.0739 77.1201 72.9689Z" fill="white"/>
<path d="M64.2593 26.2574C43.0949 26.2574 26 43.2875 26 64.3756C26 85.4615 43.0949 102.492 64.2593 102.492C85.4238 102.492 102.518 85.4615 102.518 64.3756C102.518 43.2875 85.4238 26.2574 64.2593 26.2574ZM66.2132 100.546C47.1648 100.546 31.861 85.1369 31.861 66.3222C31.861 47.3439 47.1648 32.0984 66.2132 32.0984C85.0996 32.0984 100.567 47.3439 100.567 66.3222C100.567 85.1369 85.0996 100.546 66.2132 100.546Z" fill="white"/>
</svg>
