<svg width="128" height="128" viewBox="0 0 128 128" fill="none" xmlns="http://www.w3.org/2000/svg">
<g clip-path="url(#clip0_5027_114876)">
<rect width="128" height="128" rx="24" fill="url(#paint0_linear_5027_114876)"/>
<path fill-rule="evenodd" clip-rule="evenodd" d="M47.0169 32.7285H60.2371C72.3132 32.7285 77.6525 36.5422 77.6525 44.2965C77.6525 51.0338 72.3132 55.61 61.6356 55.61H47.0169V32.7285ZM47.0169 69.3388H62.3979C75.3643 69.3388 81.4659 72.644 81.4659 82.0505C81.4659 93.8728 70.0251 95.271 61.7627 95.271H47.0169V69.3388ZM31 109H63.4152C80.4491 109 97.4828 102.898 97.4828 83.3221C97.4828 71.7543 89.3471 62.8558 78.0339 61.5847V61.3302C87.3135 58.5336 93.6696 51.7963 93.6696 41.627C93.6696 25.2287 79.6861 19 66.0845 19H31V109Z" fill="white"/>
</g>
<defs>
<linearGradient id="paint0_linear_5027_114876" x1="64" y1="0" x2="64" y2="128" gradientUnits="userSpaceOnUse">
<stop stop-color="#484848"/>
<stop offset="1"/>
</linearGradient>
<clipPath id="clip0_5027_114876">
<rect width="128" height="128" fill="white"/>
</clipPath>
</defs>
</svg>
