<svg width="128" height="128" viewBox="0 0 128 128" fill="none" xmlns="http://www.w3.org/2000/svg">
<path d="M59.6221 32H48.4533C43.4295 32 41.0213 33.2871 38.1565 36.3596L15.8605 59.1538V33.9929C15.8605 33.038 15.2792 32.1661 14.1167 32.1661H1.82686C0.581274 32.1246 0 32.9134 0 33.9929V94.1133C0 94.9021 0.664313 95.5249 1.41167 95.5249H14.4073C15.1962 95.5249 15.8605 94.9021 15.8605 94.1133V68.4127L38.8208 92.9922C40.8137 94.9852 43.9277 95.8986 47.789 95.8986H58.9993C62.6945 95.8986 61.3244 93.7811 61.3244 93.7811L32.5513 64.0116L61.4074 34.1175C61.4489 34.1175 63.3173 32 59.6221 32ZM125.721 32H114.552C109.487 32 107.12 33.2871 104.214 36.4011L81.9596 59.1953V33.9929C81.9596 33.038 81.3783 32.1661 80.2158 32.1661H67.926C66.7219 32.1661 66.0991 32.9134 66.0991 33.9929V94.1133C66.0991 94.9021 66.7635 95.5249 67.5108 95.5249H80.5064C81.2953 95.5249 81.9596 94.9021 81.9596 94.1133V68.4127L104.92 92.9922C106.913 94.9852 110.027 95.8986 113.888 95.8986H125.098C128.794 95.8986 127.424 93.7811 127.424 93.7811L98.6505 63.9701L127.507 34.076C127.507 34.1175 129.416 32 125.721 32Z" fill="url(#paint0_linear_5027_121819)"/>
<defs>
<linearGradient id="paint0_linear_5027_121819" x1="64" y1="32" x2="64" y2="95.8986" gradientUnits="userSpaceOnUse">
<stop stop-color="#54E2FF"/>
<stop offset="1" stop-color="#09CEF6"/>
</linearGradient>
</defs>
</svg>
