<svg width="128" height="128" viewBox="0 0 128 128" fill="none" xmlns="http://www.w3.org/2000/svg">
<g clip-path="url(#clip0_5027_117305)">
<path d="M72.0247 0C68.7714 0.00558034 65.5926 0.975408 62.8903 2.78693C60.188 4.59844 58.0833 7.17035 56.8421 10.1776C55.601 13.1849 55.2792 16.4926 55.9173 19.6828C56.5554 22.8729 58.1248 25.8024 60.4272 28.1008C62.7297 30.3993 65.6618 31.9637 68.853 32.5964C72.0442 33.229 75.3514 32.9015 78.3566 31.6552C81.3618 30.4089 83.93 28.2998 85.7369 25.5944C87.5438 22.8889 88.5082 19.7086 88.5082 16.4553C88.5082 12.0911 86.7745 7.9056 83.6885 4.81964C80.6026 1.73368 76.4171 0 72.0529 0H72.0247Z" fill="url(#paint0_linear_5027_117305)"/>
<path d="M65.0236 43.3281C61.4846 43.3242 58.0508 44.5318 55.2934 46.7501C52.5359 48.9684 50.6209 52.0637 49.8667 55.5214L39 128.004H58.927C62.4456 128.007 65.8605 126.812 68.6101 124.617C71.3596 122.421 73.2801 119.355 74.0556 115.923L84.64 43.3281H65.0236ZM72.3339 113.609C71.5665 117.054 69.6517 120.137 66.9032 122.353C64.1546 124.568 60.7353 125.784 57.2053 125.802H42.6975C57.7977 115.601 69.5739 101.195 76.5677 84.3675L72.3339 113.609Z" fill="url(#paint1_linear_5027_117305)"/>
</g>
<defs>
<linearGradient id="paint0_linear_5027_117305" x1="72.0529" y1="0" x2="72.0529" y2="32.9105" gradientUnits="userSpaceOnUse">
<stop stop-color="#0096FF"/>
<stop offset="1" stop-color="#036EB9"/>
</linearGradient>
<linearGradient id="paint1_linear_5027_117305" x1="61.82" y1="43.3281" x2="61.82" y2="128.004" gradientUnits="userSpaceOnUse">
<stop stop-color="#0096FF"/>
<stop offset="1" stop-color="#036EB9"/>
</linearGradient>
<clipPath id="clip0_5027_117305">
<rect width="128" height="128" fill="white"/>
</clipPath>
</defs>
</svg>
