<svg width="128" height="128" viewBox="0 0 128 128" fill="none" xmlns="http://www.w3.org/2000/svg">
<g clip-path="url(#clip0_5027_119496)">
<path d="M128 67.6363C126.247 101.418 98.2108 128 63.9999 128C28.6618 128 0 99.3454 0 63.9999C0 28.6545 28.6618 0 63.9999 0H117.818C123.396 0 128 4.60363 128 10.1818V67.6363Z" fill="#1A73E8"/>
<path opacity="0.2" d="M117.818 0H63.9999C28.6545 0 0 28.64 0 63.9636V63.949C0.196363 28.7927 28.7782 0.727272 63.9999 0.727272H117.818C123.404 0.727272 128 5.3309 128 10.9091V10.1818C128 4.60363 123.404 0 117.818 0Z" fill="white"/>
<path d="M128 67.6371V66.1825C126.247 99.9716 98.2181 127.273 63.9999 127.273C28.7782 127.273 0.203636 98.4589 0.00727289 63.2734C0.00727289 63.3971 0 63.8771 0 64.0007C0 99.3534 28.6545 128.066 63.9999 128.001C98.7563 127.935 126.451 101.368 128 66.9098" fill="#1A237E" fill-opacity="0.2"/>
<path d="M90.1818 76.3608C90.1818 82.5281 85.3818 86.5353 79.2727 86.5426H42.9091C36.8073 86.5499 32.0073 82.5717 32 76.4117V79.9971C32.0073 86.1644 36.8073 90.9135 42.9091 90.9062H79.2727C85.3745 90.899 90.189 86.1644 90.1818 79.9971V76.3608ZM107.636 79.2699C107.614 81.0662 105.229 82.0481 104 80.7244L90.1818 66.9062V70.5426L104 84.3608C105.454 85.7499 107.636 84.8771 107.636 82.9062V79.2699Z" fill="#185ABC"/>
<path d="M104 44.3639L90.1816 58.182V66.9166L104 80.7275C105.287 82.0947 107.636 81.1493 107.636 79.2729V45.8184C107.636 43.9857 105.316 43.0693 104 44.3639Z" fill="#F1F3F4"/>
<path d="M79.2727 37.8125H42.9091C36.8073 37.8198 31.9927 42.7143 32 48.7216V76.3579C32.0073 82.3652 36.8073 87.2743 42.9091 87.267H79.2727C85.3745 87.2597 90.189 82.3652 90.1818 76.3579V48.7216C90.1745 42.7143 85.3745 37.8052 79.2727 37.8125Z" fill="white"/>
<path d="M90.1816 67.7825L90.1889 66.9098L93.0907 69.8189V55.2734L90.1816 58.1825V67.7825Z" fill="#BDC1C6"/>
</g>
<defs>
<clipPath id="clip0_5027_119496">
<rect width="128" height="128" fill="white"/>
</clipPath>
</defs>
</svg>
