<svg width="128" height="128" viewBox="0 0 128 128" fill="none" xmlns="http://www.w3.org/2000/svg">
<path d="M50.9328 9.75063C61.2796 8.98555 72.9656 9.4043 84.8879 9.4043C95.5723 9.4043 109.681 7.8661 117.111 10.7904C123.728 13.395 128.958 19.0274 127.852 28.8073C127.297 33.7145 123.989 38.9186 122.308 43.0131C116.743 56.5658 110.308 72.0553 104.984 84.9372C96.7846 104.774 78.184 120.419 50.2397 118.546C35.0885 117.53 23.0411 110.044 14.8985 101.568C6.3393 92.6586 0 80.4634 0 64.1485C0 48.4978 6.52838 35.7376 14.8985 26.7282C23.0923 17.909 34.947 10.9326 50.9328 9.75063ZM114.685 22.9167C115.62 13.1752 100.287 12.2763 100.479 22.5704H105.677C104.896 18.071 109.208 18.1657 109.834 21.1843C111.162 27.5843 98.0123 32.8097 100.133 40.5873C105.115 40.572 110.164 40.489 114.685 40.9337C115.227 40.1393 115.227 37.5706 114.685 36.7759H105.677C108.239 32.9135 114.121 28.8007 114.685 22.9167ZM22.8674 32.9647C16.3873 39.5846 11.3353 47.6632 10.394 59.2973C8.62356 81.1777 19.8964 95.0833 31.8761 102.261C44.2899 109.699 61.6822 110.823 75.5326 103.301C88.2605 96.3889 96.0726 85.3318 98.4004 71.4244C101.251 54.3887 93.3849 38.8571 84.8876 31.2324C77.149 24.2885 65.6846 18.3822 49.2 20.145C37.3907 21.4074 28.9054 26.7962 22.8674 32.9647Z" fill="#FF6000"/>
<path d="M39.8452 31.5781H55.7834C61.384 47.9212 68.2005 63.049 73.8007 79.3928C76.797 78.6936 79.5018 77.7025 82.116 76.621C83.7738 79.1207 84.0228 83.0298 85.5811 85.6297C80.0563 88.3049 73.4302 89.8797 66.8711 91.5199C63.6371 81.5871 59.5557 72.5024 56.1301 62.7615C49.9627 71.1466 44.8046 80.5404 38.8058 89.0941H27.0254C26.9168 87.4491 28.2238 85.7047 29.1045 84.2433C35.9104 72.9482 43.7506 60.2231 50.5866 48.5557C49.9875 45.6896 48.5792 43.6332 47.8145 40.9331H39.8455V31.5781H39.8452Z" fill="#FF6000"/>
</svg>
