<svg width="128" height="128" viewBox="0 0 128 128" fill="none" xmlns="http://www.w3.org/2000/svg">
<path d="M39.1119 53.7881L63.9839 28.9162L88.8558 53.7881L103.314 39.3301L63.9839 0L24.6538 39.3301L39.1119 53.7881Z" fill="#F3BA2F"/>
<path d="M14.4413 49.5665L0 64.0078L14.4413 78.4491L28.8827 64.0078L14.4413 49.5665Z" fill="#F3BA2F"/>
<path d="M39.1119 74.2109L63.9839 99.0829L88.8558 74.2109L103.314 88.669L63.9839 127.999L24.6538 88.669L39.1119 74.2109Z" fill="#F3BA2F"/>
<path d="M113.519 49.5665L99.0776 64.0078L113.519 78.4491L127.96 64.0078L113.519 49.5665Z" fill="#F3BA2F"/>
<path d="M78.6443 64.0041L63.984 49.3438L53.1657 60.162L51.8514 61.3753L49.3237 64.0041L63.984 78.6644L78.6443 64.0041Z" fill="#F3BA2F"/>
</svg>
