<svg width="128" height="128" viewBox="0 0 128 128" fill="none" xmlns="http://www.w3.org/2000/svg">
<path d="M117.034 107.053C117.034 107.053 67.1638 125.007 54.8625 127.999C54.8625 127.001 53.2002 60.5079 53.2002 60.5079C53.2002 60.5079 53.5327 60.5079 55.8599 59.843C60.182 58.5131 108.057 47.5417 116.369 45.5469C117.034 48.5391 117.034 107.053 117.034 107.053ZM82.7898 72.1443L82.1249 71.8118V68.1547C81.7924 63.8326 78.8002 61.1728 74.8106 61.5053C70.821 61.8378 67.4963 65.4949 67.4963 70.1495C67.4963 76.7988 67.4963 83.4482 67.8288 89.7651C68.1612 94.7521 67.8288 99.7391 68.1612 105.059C68.1612 110.711 71.4859 113.703 76.1405 113.038C79.7976 112.705 82.7898 109.381 82.7898 105.391V98.7417C82.7898 96.0819 82.7898 95.7495 85.4496 97.4118C89.7716 99.7391 93.7612 102.399 98.0833 104.394C103.403 107.053 109.055 102.399 108.39 96.7469C108.057 93.4222 105.398 92.4248 103.07 91.0949L94.0937 86.1079C92.0989 85.1105 92.0989 83.7806 93.7612 82.4508C95.756 80.1235 98.0833 77.7962 100.078 75.469C102.073 73.1417 104.4 70.8144 106.063 68.4871C109.055 64.1651 107.06 59.178 102.073 57.8482C98.4158 56.8508 95.756 58.5131 93.4288 61.1729C89.4392 64.4975 86.1145 68.4871 82.7898 72.1443Z" fill="#FDF09F"/>
<path d="M30.9246 82.121C30.9246 82.121 34.9142 81.4561 35.5791 80.4586C39.9012 75.4716 44.2233 70.8171 48.5453 65.8301C49.5427 64.8327 51.5375 61.1755 52.8674 60.1781C54.1973 59.1807 53.8648 60.1781 53.8648 61.508C53.8648 62.5054 54.5297 120.022 54.8622 127.337C53.8648 128.002 22.6129 103.399 22.6129 103.399C22.6129 103.399 20.6181 77.134 20.6181 76.469C20.9505 75.1392 22.9453 77.4664 23.9427 77.7989C26.27 79.1288 28.5973 80.7911 30.9246 82.121ZM32.9194 51.534C29.5947 49.5392 25.9375 48.5418 22.6129 47.2119C21.6155 46.8794 20.2856 46.8794 19.9531 45.2171C27.2674 43.8872 34.2492 42.5573 41.5635 41.5599C47.5479 40.5625 53.1999 39.2327 59.1843 38.5677C59.1843 41.8924 59.8492 45.2171 62.8414 46.547C67.496 48.5418 71.8181 47.8768 75.8077 45.2171C79.1323 42.8898 80.7947 39.2327 80.4622 34.9106L82.7895 34.5781C82.7895 38.2353 82.7895 50.2041 82.457 53.1963C76.4726 54.8586 54.8622 59.8457 54.5297 59.8457C47.8804 56.8534 39.5687 54.1937 32.9194 51.534Z" fill="#FCB22D"/>
<path d="M80.1298 35.2416C80.7947 39.5636 79.1324 43.2208 75.4752 45.5481C71.4856 48.5403 66.8311 49.2052 62.509 46.8779C59.1843 45.2156 58.5194 42.2234 58.8519 38.8987C60.5142 33.5792 64.5038 30.2545 70.1558 29.2571C71.8181 28.9247 70.8207 28.2597 70.1558 27.5948C67.1635 24.6026 64.5038 21.6104 61.5116 18.2857C60.1817 16.9558 59.1843 15.9584 58.1869 14.6286C56.1921 12.3013 56.1921 9.97403 58.5194 7.97922C59.5168 6.98182 60.8467 6.31688 62.1765 5.65195C65.5012 4.32208 69.1584 2.99221 71.8181 0C72.483 1.99481 72.483 3.65714 72.483 5.31948C72.483 10.639 71.1532 12.3013 66.1661 13.2987C63.8389 13.9636 64.1713 14.6286 65.1687 16.2909C69.4908 21.2779 73.4804 26.5974 77.8025 31.9169C78.7999 32.9143 79.4648 33.9117 80.1298 35.2416Z" fill="#0994CD"/>
<path d="M82.457 53.1963C82.457 46.547 82.7895 39.2327 82.7895 34.5781C86.1142 34.9106 109.054 42.5573 117.034 44.8846C117.034 45.882 88.7739 51.8664 82.457 53.1963Z" fill="#FA7A33"/>
<path d="M37.9063 28.9269C38.5713 23.9398 39.2362 19.2853 39.9011 14.6308C40.2336 10.9736 41.896 9.97621 45.5531 10.9736C46.883 11.3061 47.8804 11.6385 49.2102 12.3035C51.205 13.6334 53.5323 14.2983 55.8596 14.6308C51.205 20.2827 50.2076 20.6152 43.5583 17.2905L40.8985 29.5918C40.5661 30.9217 40.2336 32.584 39.9011 33.9139C38.9037 37.9035 36.244 39.8983 31.9219 39.5658C27.5998 39.2334 23.9427 36.2411 23.2778 32.9165C22.6128 29.2593 24.9401 26.2671 28.5972 25.6022C31.9219 24.9372 34.9141 25.9347 37.9063 28.9269Z" fill="#0994CD"/>
<path d="M117.034 57.8525V45.2188C119.693 49.2084 122.686 53.5304 125.013 57.8525H117.034Z" fill="#FCB22D"/>
<path d="M82.7895 72.1442C86.1142 68.1546 89.7714 64.4975 93.096 60.5079C95.4233 57.8481 98.0831 56.1858 101.74 57.1832C106.727 58.5131 108.722 63.5001 105.73 67.8222C104.067 70.4819 101.74 72.4767 99.7454 74.804C97.7506 77.1312 95.7558 79.4585 93.4285 81.4533C92.0986 83.1157 92.0986 84.1131 93.761 85.1105L102.738 90.0975C105.065 91.4274 107.725 92.7572 108.057 95.7494C108.722 101.734 103.07 106.056 97.7506 103.396C93.4285 101.401 89.1064 98.7416 85.1168 96.4144C82.4571 95.0845 82.4571 95.0845 82.4571 97.7442V104.394C82.1246 108.383 79.4649 111.708 75.8077 112.04C70.8207 112.705 67.8285 109.713 67.8285 104.061C67.8285 99.0741 67.8285 94.0871 67.496 89.1001C67.1636 82.4507 67.1636 75.8014 67.1636 69.4845C67.1636 64.8299 70.4883 61.1728 74.4779 60.8403C78.7999 60.5079 81.7921 63.1676 81.7921 67.4897V71.1468L82.7895 72.1442Z" fill="#FA7A33"/>
<path d="M32.9196 82.125C32.2547 82.7899 31.5897 82.7899 30.9248 82.125H32.9196Z" fill="#FAEF8B"/>
<path d="M19.2883 45.2188L2 66.1642L33.5844 83.785L54.8623 59.8473L19.2883 45.2188Z" fill="#FAEF8B"/>
</svg>
