<svg width="128" height="128" viewBox="0 0 128 128" fill="none" xmlns="http://www.w3.org/2000/svg">
<g clip-path="url(#clip0_5027_119518)">
<path d="M63.8216 126.532C52.6724 126.532 42.4377 122.801 35.8487 117.227C32.5021 118.227 28.2214 119.835 25.5208 121.831C23.2088 123.537 23.4969 125.277 23.9137 125.979C25.7427 129.066 55.2908 127.95 63.8216 126.989V126.532Z" fill="#FAAB07"/>
<path d="M63.8223 126.532C74.9727 126.532 85.2062 122.801 91.7964 117.227C95.1418 118.227 99.4225 119.835 102.124 121.831C104.435 123.537 104.147 125.277 103.73 125.979C101.901 129.066 72.353 127.95 63.8223 126.989V126.532Z" fill="#FAAB07"/>
<path d="M108.276 68.1348C109.089 67.9007 109.833 68.6074 110.133 69.3981C111.54 73.1094 112.897 76.8918 113.92 80.1836C119.363 97.6985 117.599 104.947 116.257 105.11C111.265 105.714 102.565 104.268 99.9125 108.54C93.8544 118.298 82.2562 126.863 64.1953 126.986C64.0683 126.985 63.5675 126.985 63.4414 126.986C45.3808 126.863 33.7829 118.297 27.725 108.54C25.0727 104.268 16.3731 105.713 11.3809 105.11C10.0385 104.947 8.27398 97.6987 13.7168 80.1836C14.7193 76.9574 16.0438 73.2602 17.4204 69.6204C17.7678 68.7021 18.6544 67.9318 19.5977 68.2041C33.7061 72.2764 50.7483 74.8666 63.751 74.7109H63.8867C76.9617 74.8691 94.1201 72.2475 108.276 68.1348ZM63.8184 0C92.3564 0.00122578 103.961 24.7023 103.961 49.2832C103.961 49.9308 103.947 50.8477 103.931 51.6823C103.906 52.9982 103.325 54.304 102.056 54.6514C97.0554 56.0182 82.2991 59.582 63.8867 59.707H63.751C44.8731 59.5783 29.8395 55.8365 25.2227 54.5518C24.1715 54.2588 23.7373 53.1375 23.715 52.0465C23.6962 51.1251 23.6777 50.0266 23.6777 49.2832C23.6778 24.7023 35.2817 0.00132295 63.8184 0Z" fill="url(#paint0_linear_5027_119518)"/>
<path d="M53.6641 36.3199C49.7928 36.4952 46.4855 32.0845 46.2771 26.4787C46.0674 20.8691 49.0328 16.1802 52.9041 16.0049C56.7717 15.8321 60.0778 20.2403 60.2874 25.8486C60.4995 31.4581 57.5329 36.147 53.6641 36.3199Z" fill="white"/>
<path d="M81.3597 26.4787C81.1525 32.0845 77.8451 36.4952 73.9739 36.3199C70.1051 36.1458 67.1385 31.4581 67.3505 25.8486C67.5602 20.2403 70.8663 15.8321 74.7339 16.0049C78.6052 16.1802 81.5705 20.8691 81.3597 26.4787Z" fill="white"/>
<path d="M88.2402 44.2352C87.2056 41.9441 76.787 39.3906 63.8885 39.3906H63.75C50.8515 39.3906 40.4329 41.9441 39.3983 44.2352C39.3517 44.3345 39.3223 44.4448 39.3223 44.5613C39.3223 44.7268 39.3787 44.8751 39.4645 45.0026C40.3373 46.2726 51.9057 52.5527 63.75 52.5527H63.8885C75.7328 52.5527 87.3012 46.2738 88.1728 45.0026C88.2598 44.8763 88.315 44.7256 88.315 44.5601C88.315 44.4436 88.2868 44.3345 88.2402 44.2352Z" fill="#FAAB07"/>
<path d="M58.4225 26.5547C58.599 28.7698 57.3842 30.7373 55.7121 30.9519C54.0376 31.1676 52.5383 29.547 52.3606 27.3307C52.1853 25.1143 53.3989 23.1468 55.0673 22.9335C56.7455 22.7165 58.2472 24.3396 58.4225 26.5547Z" fill="black"/>
<path d="M69.0595 27.2924C69.4015 26.6795 71.7319 23.4567 76.5556 24.6299C77.8232 24.9388 78.4091 25.3924 78.5329 25.5701C78.7156 25.8337 78.7659 26.2088 78.5808 26.7138C78.2142 27.7154 77.4566 27.6884 77.0374 27.4923C76.7665 27.366 73.4064 25.1263 70.3111 28.468C70.0978 28.6973 69.7166 28.7757 69.3562 28.5036C68.9945 28.2302 68.8462 27.6774 69.0595 27.2924Z" fill="black"/>
<path d="M63.8872 73.9031H63.7511C54.8587 74.0109 44.0773 72.8329 33.6354 70.7747C32.7418 75.9502 32.2024 82.4559 32.6657 90.2144C33.8364 109.823 45.4821 122.149 63.4569 122.328H64.1875C82.1635 122.149 93.808 109.823 94.9799 90.2144C95.4433 82.4547 94.9027 75.9502 94.009 70.7734C83.5659 72.8329 72.782 74.0109 63.8872 73.9031Z" fill="white"/>
<path d="M38.5566 72.2656V91.5631C38.5566 91.5631 47.3963 93.3455 56.2532 92.1111V74.3116C50.6424 73.9941 44.5915 73.2868 38.5566 72.2656Z" fill="#EB1923"/>
<path d="M103.884 53.7422C103.884 53.7422 86.6889 59.1703 63.8867 59.3248H63.7506C40.9852 59.1715 23.8121 53.7606 23.7532 53.7422L17.9941 68.1166C32.3992 72.4599 50.2514 75.2585 63.7506 75.0955H63.8867C77.3859 75.2585 95.2368 72.4599 109.643 68.1166L103.884 53.7422Z" fill="#EB1923"/>
</g>
<defs>
<linearGradient id="paint0_linear_5027_119518" x1="63.8188" y1="0" x2="63.8188" y2="126.986" gradientUnits="userSpaceOnUse">
<stop stop-color="#484848"/>
<stop offset="1"/>
</linearGradient>
<clipPath id="clip0_5027_119518">
<rect width="128" height="128" fill="white"/>
</clipPath>
</defs>
</svg>
