<svg width="128" height="128" viewBox="0 0 128 128" fill="none" xmlns="http://www.w3.org/2000/svg">
<path d="M97.6542 116.786C100.927 115.439 103.704 114.276 103.827 114.201C103.95 114.126 103.928 113.749 103.778 113.362C103.629 112.975 103.052 111.373 102.497 109.801C97.6729 96.146 90.2891 85.3458 78.3665 74.5058C76.7472 73.0336 75.8784 71.8593 75.2768 70.3297C74.9204 69.4236 74.9403 69.12 75.4286 68.0218C75.7487 67.3019 76.4565 66.4654 77.072 66.0797C78.3299 65.2912 79.0024 65.2663 89.0429 65.6375C98.6953 65.9944 104.897 65.2501 111.734 62.9141C112.76 62.5633 113.689 62.2209 113.797 62.1532C113.905 62.0855 113.82 61.2026 113.608 60.1911C113.396 59.1797 112.918 56.923 112.547 55.1763C112.176 53.4296 111.792 51.6098 111.693 51.1323C111.594 50.6548 111.397 50.3367 111.255 50.4254C110.633 50.8157 101.949 51.5167 97.8108 51.5108C85.0471 51.4925 75.9498 48.7257 68.4587 42.5837C67.2128 41.5621 66.0454 40.7263 65.8645 40.7263C65.2609 40.7263 61.3368 44.9853 59.8661 47.2367C57.7128 50.533 55.5556 55.0379 54.3152 58.8285C53.9437 59.9639 53.5221 61.1786 53.3785 61.528C53.0906 62.228 52.5023 64.1068 51.4467 67.6975C50.6584 70.3789 50.088 71.4736 47.9595 74.3901C40.3355 84.8364 30.3418 91.231 17.6495 93.7844C15.8425 94.1479 14.3298 94.4803 14.2877 94.5229C14.2456 94.5656 14.4181 95.591 14.671 96.8017C14.9239 98.0123 15.1332 99.4589 15.1362 100.016C15.1392 100.574 15.2826 101.118 15.4548 101.226C15.627 101.334 15.7678 101.807 15.7677 102.277C15.7675 103.002 16.6927 108.377 16.8575 108.608C16.888 108.651 18.5224 108.473 20.4896 108.213C37.1592 106.006 46.1658 101.728 57.5722 90.5988C61.2355 87.0247 61.7388 87.0812 68.219 91.7957C77.7018 98.6946 85.2383 107.349 89.5092 116.243C90.3684 118.033 91.2139 119.438 91.388 119.366C91.5621 119.294 94.3819 118.133 97.6542 116.786ZM85.8798 38.8955C88.8846 37.9908 90.7768 36.8151 93.0185 34.4601C94.6941 32.6999 96.1136 30.4433 96.452 29.0021C96.5579 28.5509 96.7927 27.9917 96.9736 27.7594C97.1546 27.5271 97.3615 25.7407 97.4333 23.7896C97.5511 20.5887 97.4844 20.0126 96.7508 17.8926C95.687 14.8188 94.4004 12.8333 92.1097 10.731C88.1279 7.07654 82.5164 5.6013 77.5502 6.90331C70.3537 8.79005 65.5207 14.6137 65.0308 21.9888C64.271 33.4281 75.0386 42.1597 85.8798 38.8955Z" fill="#FFCC00"/>
<path d="M87.642 127.348C87.1543 126.917 86.5295 125.72 86.0701 124.334C84.6764 120.131 82.2659 115.545 79.3505 111.549C76.2643 107.319 70.2632 101.527 65.2157 97.9085C62.0431 95.6337 62.6283 95.6493 60.4486 97.7814C55.3 102.818 49.0457 107.025 42.6981 109.723C42.0953 109.979 41.1793 110.367 40.6626 110.585C39.8527 110.927 37.9789 111.562 34.0867 112.813C29.8626 114.172 18.7476 115.934 14.1312 115.977C11.5023 116.002 11.593 116.22 9.50107 104.879C9.13053 102.87 8.41621 99.0997 7.91369 96.4999C7.41116 93.9001 7 91.3169 7 90.7593C7 89.5511 8.09014 88.3677 9.21217 88.358C10.1511 88.3499 16.3441 87.3115 19.5256 86.6288C21.669 86.1688 23.6822 85.5522 25.3187 84.8546C25.6632 84.7078 26.72 84.2656 27.6673 83.8721C32.4716 81.8762 37.676 77.5629 41.4263 72.469C44.08 68.8646 44.7596 67.5202 45.6567 64.1008C48.7301 52.3863 52.5455 45.0026 58.8157 38.6352L61.9703 35.4319L60.681 32.6716C58.8568 28.7662 58.2176 24.7761 58.7155 20.4017C60.0432 8.73734 69.6772 0.00135877 81.2144 1.57557e-07C96.8754 -0.00180865 107.803 15.571 102.744 30.6812C100.874 36.2678 95.9384 41.7316 90.6579 44.0612C89.4561 44.5913 89.374 44.6896 89.9512 44.9061C91.1791 45.3668 97.3181 45.8444 99.3666 45.6387C102.168 45.3572 108.28 44.3752 112.059 43.5992C115.866 42.8172 115.745 42.8196 116.589 43.5132C117.331 44.1225 117.605 45.0879 119.129 52.4777C119.652 55.0104 120.493 58.97 120.998 61.2767C122.083 66.2265 121.989 66.8103 119.97 67.681C115.671 69.5341 104.387 72.2221 98.4371 72.8102C96.8009 72.9719 93.6656 73.1079 91.4697 73.1124C89.2738 73.1169 87.4772 73.218 87.4772 73.3371C87.4772 73.4562 88.5693 74.7079 89.904 76.1187C100.141 86.9388 105.902 97.0402 110.991 113.092C112.666 118.375 112.62 118.527 108.919 120.015C107.546 120.567 106.07 121.161 105.639 121.335C105.209 121.51 103.518 122.171 101.882 122.805C100.245 123.439 98.625 124.092 98.2805 124.257C97.9361 124.422 96.527 124.973 95.1491 125.482C93.7713 125.99 91.8162 126.779 90.8045 127.234C88.5782 128.237 88.646 128.234 87.642 127.348ZM97.6543 116.787C100.927 115.44 103.704 114.277 103.827 114.202C103.95 114.127 103.928 113.75 103.778 113.363C103.629 112.976 103.052 111.374 102.497 109.801C97.6729 96.1468 90.2891 85.3466 78.3665 74.5066C76.7472 73.0344 75.8784 71.8601 75.2768 70.3305C74.9204 69.4244 74.9404 69.1208 75.4287 68.0226C75.7488 67.3027 76.4565 66.4662 77.072 66.0805C78.3299 65.292 79.0024 65.2672 89.0429 65.6384C98.6954 65.9952 104.897 65.2509 111.734 62.9149C112.76 62.5641 113.689 62.2217 113.797 62.154C113.905 62.0863 113.82 61.2034 113.608 60.1919C113.396 59.1805 112.918 56.9238 112.547 55.1771C112.176 53.4304 111.792 51.6106 111.693 51.1331C111.594 50.6556 111.397 50.3375 111.255 50.4262C110.633 50.8165 101.949 51.5175 97.8108 51.5116C85.0471 51.4933 75.9498 48.7265 68.4588 42.5845C67.2128 41.5629 66.0454 40.7271 65.8646 40.7271C65.2609 40.7271 61.3369 44.9861 59.8661 47.2375C57.7129 50.5338 55.5556 55.0387 54.3152 58.8293C53.9437 59.9647 53.5222 61.1795 53.3785 61.5288C53.0906 62.2288 52.5023 64.1076 51.4467 67.6983C50.6585 70.3797 50.0881 71.4744 47.9595 74.3909C40.3355 84.8372 30.3418 91.2318 17.6495 93.7852C15.8426 94.1488 14.3298 94.4811 14.2877 94.5237C14.2457 94.5664 14.4181 95.5918 14.671 96.8025C14.9239 98.0131 15.1332 99.4597 15.1362 100.017C15.1392 100.574 15.2826 101.119 15.4548 101.227C15.627 101.335 15.7678 101.808 15.7677 102.278C15.7675 103.003 16.6927 108.378 16.8575 108.609C16.888 108.652 18.5225 108.474 20.4896 108.213C37.1592 106.007 46.1659 101.729 57.5722 90.5997C61.2355 87.0255 61.7388 87.082 68.219 91.7965C77.7018 98.6954 85.2384 107.35 89.5092 116.244C90.3684 118.033 91.2139 119.439 91.388 119.367C91.5621 119.295 94.3819 118.134 97.6543 116.787ZM85.8798 38.8963C88.8846 37.9916 90.7768 36.8159 93.0186 34.4609C94.6941 32.7007 96.1137 30.4441 96.452 29.0029C96.5579 28.5517 96.7927 27.9925 96.9737 27.7602C97.1546 27.5279 97.3615 25.7415 97.4333 23.7904C97.5511 20.5896 97.4845 20.0134 96.7508 17.8934C95.6871 14.8196 94.4004 12.8341 92.1097 10.7318C88.1279 7.07735 82.5165 5.60211 77.5502 6.90412C70.3537 8.79086 65.5207 14.6145 65.0308 21.9896C64.271 33.4289 75.0386 42.1605 85.8798 38.8963Z" fill="black"/>
</svg>
