<svg width="128" height="128" viewBox="0 0 128 128" fill="none" xmlns="http://www.w3.org/2000/svg">
<path d="M121.959 0V3.93846H125.897V0H121.959ZM121.959 7.87692V11.8154H125.897V7.87692H121.959ZM110.143 11.8154V15.7538H114.082V11.8154H110.143Z" fill="#FDB511"/>
<path d="M58.6154 14.7656C27.3426 14.7656 2 40.1083 2 71.381C2 102.654 27.3426 127.996 58.6154 127.996C89.8881 127.996 115.231 102.654 115.231 71.381C115.231 40.1083 89.8881 14.7656 58.6154 14.7656ZM58.6154 32.8169C79.8937 32.8169 97.1795 50.1027 97.1795 71.381C97.1795 92.6594 79.8937 109.945 58.6154 109.945C37.337 109.945 20.2154 92.6594 20.2154 71.381C20.2154 50.1027 37.337 32.8169 58.6154 32.8169Z" fill="#FDB511"/>
<path d="M74.6988 43.3125C64.4188 56.1608 61.8281 61.8024 57.7327 72.1905C53.086 62.7921 47.5405 56.3059 37.9399 52.0099C36.1212 51.5457 35.2268 51.2764 34.0014 52.9946C32.776 54.7127 33.519 56.2585 34.986 58.0817C38.8303 62.8595 43.1504 67.2738 46.145 72.6869C49.6557 79.0328 54.0267 89.4917 55.4988 92.2151C56.6697 94.381 59.5014 95.333 60.586 95.333C66.3961 94.6455 66.3981 91.6917 67.5056 86.5715C69.3016 78.1751 71.6277 69.4947 82.5758 59.0663V43.3125H74.6988Z" fill="white"/>
<path d="M118.02 3.9375V7.87596H121.958V3.9375H118.02ZM118.02 7.87596H110.143V11.8144H118.02V7.87596ZM110.143 11.8144H106.204V19.6913H110.143V11.8144ZM110.143 19.6913V23.6298H114.081V19.6913H110.143ZM114.081 19.6913H118.02V15.7529H114.081V19.6913ZM110.143 23.6298H106.204V27.5683H102.266V23.6298H94.3891V27.5683H90.4506V31.5067H94.3891V35.4452H90.4506V31.5067H86.5122V35.4452H82.5737V39.3837H78.6353V55.1375H86.5122V51.199H90.4506V47.2606H94.3891V43.3221H90.4506V39.3837H94.3891V43.3221H98.3276V39.3837H102.266V35.4452H106.204V31.5067H110.143V23.6298ZM102.266 23.6298H106.204V19.6913H102.266V23.6298ZM102.266 19.6913V15.7529H98.3276V19.6913H102.266Z" fill="white"/>
</svg>
