<svg width="128" height="128" viewBox="0 0 128 128" fill="none" xmlns="http://www.w3.org/2000/svg">
<rect x="128" y="128" width="128" height="128" rx="24" transform="rotate(-180 128 128)" fill="url(#paint0_linear_5027_81886)"/>
<path d="M87.1552 46.7045C83.224 46.7045 80.0369 44.1598 80.0369 39.7496C80.0369 35.3392 83.224 32.7945 87.1552 32.7945C91.0864 32.7945 94.2735 35.219 94.2735 39.7496C94.2735 44.28 91.0864 46.7045 87.1552 46.7045ZM109.043 39.1276C109.043 27.173 99.2884 20.7761 87.2556 20.7761C75.2226 20.7761 65.468 27.4905 65.468 39.1276C65.468 50.2096 72.8735 58.0682 85.4661 57.3678L73.2625 77.4014H89.4477L106.688 49.3868C106.688 49.3868 109.043 45.7761 109.043 39.1276ZM39.5695 32.7945C43.501 32.7945 46.6878 35.219 46.6878 39.7496C46.6878 44.28 43.501 46.7045 39.5695 46.7045C35.6383 46.7045 32.4512 44.1598 32.4512 39.7496C32.4512 35.3392 35.6383 32.7945 39.5695 32.7945ZM37.8804 57.3678L25.6768 77.4014H41.8622L59.1019 49.3868C59.1019 49.3868 61.4576 45.7761 61.4576 39.1276C61.4576 27.173 51.703 20.7761 39.6699 20.7761C27.6369 20.7761 17.8823 27.4905 17.8823 39.1276C17.8823 50.2096 25.2878 58.0682 37.8804 57.3678ZM96.6966 94.0682C96.6966 93.4979 97.3412 91.9818 99.7255 91.9818C102.11 91.9818 102.614 93.5408 102.614 94.0682H107.704C107.704 88.1992 102.064 87.2135 99.6567 87.2135C97.2496 87.2135 91.6072 88.1992 91.6072 94.0682C91.6072 103.204 103.17 98.7678 103.17 102.35C103.17 103.169 102.11 104.436 99.7255 104.436C97.3412 104.436 96.4301 102.877 96.4301 102.35H91.3406C91.3406 108.219 97.1005 109.273 99.7255 109.273C101.72 109.273 108.259 108.219 108.259 102.35C108.259 93.5064 96.6966 98.3895 96.6966 94.0682ZM42.3398 101.473L44.6548 95.8704L46.9695 101.473H42.3398ZM43.3522 87.4542L33.9299 107.938V108.843H39.2944L40.4265 106.104H48.8829L50.0149 108.843H55.3794V107.938L45.9572 87.4542H43.3522ZM78.5538 92.4143H81.0873V103.883H78.5538V108.843H88.9852V103.883H86.4518V92.4143H88.9852V87.4542H78.5538V92.4143ZM34.4969 87.4542H18.5536V92.4143H23.843V108.843H29.2075V92.4143H34.4969V87.4542ZM75.4936 88.4688V87.4542H70.0031L66.4887 92.907L62.9362 87.4542H57.5888V88.4688L63.4391 97.6388L56.8014 107.938V108.843H62.495L66.5412 102.501L70.5874 108.843H76.2809V107.938L69.6075 97.6946L75.4936 88.4688Z" fill="#1D1D1D"/>
<defs>
<linearGradient id="paint0_linear_5027_81886" x1="192" y1="261.227" x2="192" y2="122.296" gradientUnits="userSpaceOnUse">
<stop stop-color="#FCEA00"/>
<stop offset="0.987942" stop-color="#F6CD00"/>
<stop offset="1" stop-color="#F6CD00"/>
</linearGradient>
</defs>
</svg>
