<svg width="128" height="128" viewBox="0 0 128 128" fill="none" xmlns="http://www.w3.org/2000/svg">
<path d="M54.6544 16.0003C52.9443 16.1515 48.3229 17.2034 48.3229 17.2034H48.321C37.9046 19.8958 35.4426 29.3485 35.4426 29.3485C34.934 30.938 34.7029 32.567 34.6349 34.1017V36.1906C34.7732 39.4178 35.4909 41.8277 35.4909 41.8277C38.9703 57.256 56.0781 82.6071 59.7549 87.9326C60.0157 88.1913 60.2247 88.0979 60.2247 88.0979C60.6215 87.9883 60.5904 87.6076 60.5904 87.6076L60.598 87.6095C66.2611 31.0044 54.6545 16.0003 54.6545 16.0003L54.6544 16.0003ZM73.3668 16.0003C73.3668 16.0003 61.7094 31.0124 67.3769 87.6504H67.3844C67.4283 88.0099 67.6834 88.0848 67.6834 88.0848C68.0627 88.2318 68.2571 87.8674 68.2571 87.8674L68.259 87.8711C72.0301 82.4096 89.0404 57.1966 92.5044 41.8274C92.5044 41.8274 94.3826 34.3886 92.5695 29.3482C92.5695 29.3482 89.9944 19.7491 79.5648 17.2125C79.5648 17.2125 76.5592 16.4495 73.367 16L73.3668 16.0003ZM19.5972 32.9932C19.5972 32.9932 9.67226 42.4133 9.17897 52.4H9.18292V53.9132C9.19046 54.0271 9.19621 54.1425 9.2034 54.2585C9.63093 62.3115 15.689 67.0775 15.689 67.0775C25.4499 76.5907 49.0846 88.6014 54.5768 91.3266C54.6537 91.3554 54.9374 91.4481 55.1041 91.2375C55.1041 91.2375 55.1908 91.1718 55.2303 91.0536V90.8028C55.2264 90.7884 55.2188 90.774 55.2116 90.7582H55.2136C40.1732 57.9018 19.5974 32.9929 19.5974 32.9929L19.5972 32.9932ZM108.4 32.9932C108.4 32.9932 87.8861 57.8239 72.8524 90.6137L72.8582 90.6118C72.8582 90.6118 72.6807 90.992 72.9677 91.2375C72.9677 91.2375 73.0534 91.3022 73.172 91.3284H73.3799C73.4173 91.3177 73.4574 91.3033 73.4969 91.2764V91.2799C79.1382 88.4801 102.59 76.5483 112.305 67.0791C112.305 67.0791 118.457 62.1386 118.779 54.2063C119.49 43.1891 108.4 32.9929 108.4 32.9929L108.4 32.9932ZM126.863 65.6126C126.863 65.6126 93.4197 83.5602 76.1277 95.2241L76.1296 95.2259L76.1336 95.2295C76.1336 95.2295 75.8198 95.435 75.9293 95.8033C75.9293 95.8033 76.0934 96.1004 76.3323 96.1004V96.1024C82.526 96.1131 105.963 96.1394 106.551 96.0298C106.551 96.0298 109.581 95.9087 113.326 94.4701C113.326 94.4701 121.663 91.8197 125.993 82.3548C125.993 82.3548 127.971 78.3972 128 72.8371V72.6014C127.986 70.4572 127.684 68.0835 126.864 65.6126H126.863ZM1.12438 65.6963C-1.91849 75.1163 2.17798 82.7067 2.1846 82.719C6.45363 91.7391 14.6025 94.4722 14.6025 94.4722C18.3648 96.0179 22.1279 96.1247 22.1279 96.1247C22.7155 96.2322 45.5284 96.1355 51.6409 96.1067C51.8996 96.1048 52.042 95.8448 52.042 95.8448C52.06 95.816 52.0758 95.7873 52.0829 95.7611V95.5254C52.0322 95.3676 51.8972 95.2563 51.8972 95.2563L51.9012 95.2544C34.6179 83.5943 1.12466 65.6968 1.12466 65.6968L1.12438 65.6963ZM50.9428 99.0027L11.6002 100.382C15.8667 107.988 23.0521 113.899 30.5371 112.083C35.7026 110.792 47.4046 102.63 51.2677 99.8716L51.2548 99.8608C51.5552 99.591 51.4479 99.3744 51.4479 99.3744C51.3491 99.0212 50.9429 99.0215 50.9429 99.0215L50.9428 99.0027ZM77.0004 99.0314L76.9965 99.0458C76.9965 99.0458 76.6511 99.0896 76.5545 99.3483C76.5545 99.3483 76.4706 99.7019 76.7031 99.8775L76.6991 99.881C80.4658 102.582 91.8843 110.565 97.3852 112.115C97.3852 112.115 98.2185 112.399 99.6151 112.449H100.454C104.14 112.32 110.56 110.427 116.395 100.403L77.0004 99.0314Z" fill="#CF0A2C"/>
</svg>
