<svg width="128" height="128" viewBox="0 0 128 128" fill="none" xmlns="http://www.w3.org/2000/svg">
<path d="M77.3303 78.3407L103.751 53.0739C98.2629 31.6743 76.4661 18.7755 55.0664 24.2636C45.4295 26.735 37.0594 32.709 31.5898 41.0193C31.9988 41.009 77.3303 78.3407 77.3303 78.3407Z" fill="#0364B8"/>
<path d="M48.809 45.775L48.8077 45.7793C43.7593 42.6525 37.937 40.9998 31.9986 41.0078C31.8614 41.0078 31.7265 41.0165 31.5896 41.0182C13.9258 41.237 -0.216206 55.7337 0.00250296 73.3974C0.0817851 79.8049 2.08384 86.0407 5.74909 91.2968L45.3315 86.3393L75.6785 61.8694L48.809 45.775Z" fill="#0078D4"/>
<path d="M103.752 53.0734C103.171 53.0347 102.587 53.0078 101.997 53.0078C98.4524 53.0043 94.9449 53.7283 91.6914 55.1349L91.6907 55.1322L75.6797 61.8699L93.3306 83.6732L124.886 91.344C131.696 78.7021 126.968 62.9335 114.326 56.1238C111.059 54.3642 107.454 53.3242 103.752 53.0736V53.0734H103.752Z" fill="#1490DF"/>
<path d="M5.75 91.3025C11.7266 99.8954 21.5326 105.016 31.9996 105.011H101.997C111.558 105.014 120.35 99.7666 124.886 91.3494L75.6794 61.875L5.75 91.3025Z" fill="#28A8EA"/>
</svg>
