<svg width="128" height="128" viewBox="0 0 128 128" fill="none" xmlns="http://www.w3.org/2000/svg">
<path d="M109.532 68.7999C105.637 68.7999 101.784 68.7999 97.8882 68.7999C96.2187 68.7999 94.6348 68.329 93.2649 67.3444C90.3967 65.3324 90.3967 61.7365 93.2649 59.7245C94.6776 58.7399 96.2615 58.269 97.9738 58.269C105.722 58.269 113.428 58.2262 121.176 58.269C123.316 58.269 125.286 58.954 126.784 60.5807C128.453 62.4215 128.411 64.9043 126.613 66.6595C125.114 68.115 123.274 68.7571 121.219 68.7571C117.323 68.8427 113.428 68.7999 109.532 68.7999Z" fill="#029345"/>
<path d="M105.722 109.858C104.01 109.772 102.212 108.702 100.671 107.161C95.3628 101.896 90.0545 96.5874 84.7463 91.2792C83.3764 89.9093 82.4774 88.2826 82.3062 86.3134C82.0065 83.1456 84.4466 80.9195 87.6144 81.476C89.498 81.8185 91.0819 82.6747 92.409 84.0017C97.7172 89.2672 102.983 94.5326 108.291 99.7981C109.661 101.168 110.603 102.752 110.859 104.721C111.202 107.675 109.233 109.944 105.722 109.858Z" fill="#F4A720"/>
<path d="M82.3062 40.7152C82.349 39.1313 83.2051 37.3762 84.6178 35.9635C86.8867 33.609 89.2411 31.3402 91.5956 28.9857C94.6778 25.9035 97.76 22.8641 100.842 19.7819C102.084 18.5404 103.539 17.7271 105.294 17.3846C109.061 16.6569 111.673 19.3538 110.774 23.1209C110.346 24.8333 109.404 26.246 108.162 27.4446C102.897 32.71 97.6316 37.9755 92.3233 43.1981C90.9535 44.568 89.3267 45.467 87.3576 45.6382C84.4466 45.9807 82.3062 44.0543 82.3062 40.7152Z" fill="#02A786"/>
<path d="M17.5796 68.8393C14.2833 68.8393 10.9871 68.8393 7.6908 68.8393C5.89284 68.8393 4.09488 68.6253 2.51097 67.5979C0.841436 66.5705 -0.185968 65.115 0.0280744 63.103C0.199308 61.3478 1.26952 60.192 2.6822 59.3786C3.96646 58.6509 5.33633 58.2656 6.79182 58.2656C14.3689 58.2656 21.9032 58.2656 29.4803 58.2656C31.4923 58.2656 33.3331 58.8649 34.8314 60.2776C36.8862 62.2468 36.7578 65.1578 34.5745 66.9986C32.8622 68.4541 30.7646 68.8393 28.6242 68.8393C24.9426 68.8393 21.2611 68.8393 17.5796 68.8393Z" fill="#B0CC40"/>
<path d="M22.9734 17.2976C24.386 17.3404 26.184 18.1109 27.5967 19.5236C31.1926 23.0767 34.7457 26.6298 38.3416 30.2257C40.054 31.9381 41.8091 33.6504 43.5215 35.3628C44.8913 36.7326 45.7903 38.3594 46.0043 40.3286C46.304 43.1111 44.3348 45.3371 41.5095 45.3371C39.4546 45.3371 37.6995 44.481 36.244 43.0683C30.8501 37.76 25.5419 32.409 20.1908 27.0579C18.8209 25.688 17.922 24.0185 17.7935 22.0921C17.6651 19.1811 19.4631 17.2548 22.9734 17.2976Z" fill="#FBD205"/>
<path d="M22.8451 109.897C19.2492 109.897 17.28 107.329 17.9649 104.161C18.3074 102.577 19.078 101.207 20.2338 100.094C24.6859 95.6418 29.138 91.1898 33.59 86.7377C34.4462 85.8815 35.2596 85.0253 36.1586 84.212C37.4856 82.9705 39.0267 82.1572 40.8675 81.9003C44.2494 81.4722 46.6038 83.9123 45.9617 87.2942C45.662 88.9637 44.8487 90.4192 43.65 91.6179C38.3846 96.8833 33.1192 102.149 27.8109 107.371C26.3126 108.912 24.5575 109.811 22.8451 109.897Z" fill="#02AACD"/>
<path d="M60.5594 34.8523C59.2323 33.3968 58.7186 31.5988 58.7186 29.7153C58.6758 22.0097 58.6758 14.347 58.7186 6.64147C58.7186 4.45823 59.4036 2.44623 61.1159 0.947936C61.2443 0.905127 61.3728 0.905127 61.5012 0.81951C62.4858 0.00614845 63.6416 -0.122277 64.8402 0.0917655C65.3968 0.177382 65.8248 0.648276 66.4242 0.605468V0.648276L66.467 0.605468C66.5526 0.947936 66.7238 1.16198 67.1091 1.16198C67.0663 1.33321 67.1519 1.46164 67.2803 1.59006C68.5218 3.04555 69.0783 4.8007 69.0783 6.64147C69.1211 14.3898 69.1211 22.0953 69.0783 29.8437C69.0783 31.0423 68.7786 32.1981 68.2221 33.2684C68.0509 33.568 67.794 33.8677 67.8797 34.253L67.8368 34.2958C67.1947 34.681 66.681 35.1947 66.2957 35.8369L66.2529 35.7941L66.2957 35.8369C66.0389 35.7941 65.8677 35.9225 65.6964 36.0081C64.5834 36.4362 63.4704 36.4362 62.3574 36.0509C61.8865 35.8797 61.6296 35.4088 61.1159 35.366L61.0731 35.3232C61.0731 35.1947 61.0303 35.1091 60.9019 35.1519C60.9019 35.0663 60.8591 35.0235 60.7734 35.0235C60.7306 34.8951 60.645 34.8523 60.5594 34.8523Z" fill="#D82128"/>
<path d="M60.3025 125.307C59.1467 123.894 58.7186 122.182 58.7186 120.427C58.6758 112.978 58.6758 105.486 58.7186 98.0378C58.7186 96.2398 59.1895 94.5275 60.3454 93.072C60.431 93.072 60.4738 93.0292 60.4738 92.9008V92.858C60.5594 92.858 60.6022 92.858 60.5594 92.7724C60.5594 92.7295 60.6022 92.7295 60.6022 92.7295C60.645 92.7295 60.6878 92.7295 60.6878 92.7295L60.645 92.6867C60.645 92.6439 60.645 92.6439 60.6878 92.6439C60.8591 92.6867 60.8591 92.6011 60.8591 92.4727C61.1587 92.4727 61.33 92.3015 61.544 92.1302C62.7426 91.2741 64.0269 91.1884 65.3968 91.6593C65.8248 91.7878 66.1245 92.2587 66.6382 92.173C66.5954 92.4299 66.7666 92.6011 66.9379 92.7295C68.3934 94.0994 68.9499 95.8546 68.9499 97.7381C68.9927 105.401 68.9927 113.064 68.9499 120.726C68.9499 122.31 68.479 123.809 67.5372 125.093C67.4516 125.221 67.366 125.35 67.4516 125.521C67.2803 125.478 67.2803 125.606 67.2803 125.735C66.8951 125.735 66.5954 125.821 66.681 126.291C66.467 126.249 66.2957 126.291 66.2957 126.548C66.1245 126.463 65.9961 126.505 65.8677 126.591C65.2683 126.976 64.5834 126.976 63.8985 127.019C63.0851 127.062 62.4002 126.72 61.6724 126.505V126.463V126.505C61.6724 126.163 61.4584 126.206 61.2015 126.163C61.2015 126.035 61.1587 125.949 60.9875 125.992H60.9447C60.9875 125.821 60.8591 125.821 60.7734 125.821C60.7734 125.692 60.7734 125.606 60.6022 125.606V125.564C60.645 125.478 60.6022 125.435 60.5166 125.435C60.4738 125.35 60.431 125.307 60.3025 125.307Z" fill="#1A4D98"/>
<path d="M63.9837 71.5834C59.1892 71.5834 55.3364 67.7306 55.3364 62.9361C55.3364 58.0987 59.1892 54.2031 64.0266 54.2031C68.8211 54.2031 72.6739 58.0559 72.6739 62.8504C72.6739 67.7306 68.8211 71.5834 63.9837 71.5834Z" fill="#58595B"/>
</svg>
