<svg width="128" height="128" viewBox="0 0 128 128" fill="none" xmlns="http://www.w3.org/2000/svg">
<path d="M128 22.575C103.2 32.875 91.2998 27.075 80.4998 19.875L68.2998 62.275C78.9998 69.575 91.9998 75.575 115.8 64.875L128 22.575Z" fill="url(#paint0_linear_5027_122749)"/>
<path d="M47.4 107.869C36.6 100.569 24.9 94.6692 0 104.969L12.2 62.4692C37 52.1692 49 57.9692 59.8 65.2692L47.4 107.869Z" fill="url(#paint1_linear_5027_122749)"/>
<path d="M61.7999 57.5707C55.2999 53.1707 48.2999 49.1707 38.4 49.0707C31.9 48.9707 24.1 50.8707 14.2 54.9707L26.4 12.5707C51.2999 2.27073 63.2 8.07073 73.9 15.3707L61.7999 57.5707Z" fill="url(#paint2_linear_5027_122749)"/>
<path d="M66.2 69.375C77 76.575 88.9 82.375 113.7 72.175L101.5 114.475C76.7 124.775 64.7 118.975 54 111.675L66.2 69.375Z" fill="url(#paint3_linear_5027_122749)"/>
<defs>
<linearGradient id="paint0_linear_5027_122749" x1="73.2748" y1="67.25" x2="122.975" y2="17.55" gradientUnits="userSpaceOnUse">
<stop stop-color="#B4DB43"/>
<stop offset="1" stop-color="#91C300"/>
</linearGradient>
<linearGradient id="paint1_linear_5027_122749" x1="5" y1="109.969" x2="54.75" y2="60.2192" gradientUnits="userSpaceOnUse">
<stop stop-color="#00B4F1"/>
<stop offset="1" stop-color="#3BC7F7"/>
</linearGradient>
<linearGradient id="paint2_linear_5027_122749" x1="23.925" y1="15.0457" x2="64.1249" y2="55.2457" gradientUnits="userSpaceOnUse">
<stop stop-color="#F84900"/>
<stop offset="1" stop-color="#FB8A5B"/>
</linearGradient>
<linearGradient id="paint3_linear_5027_122749" x1="63.75" y1="71.825" x2="103.95" y2="112.025" gradientUnits="userSpaceOnUse">
<stop stop-color="#FFD038"/>
<stop offset="1" stop-color="#FFC300"/>
</linearGradient>
</defs>
</svg>
