<svg width="128" height="128" viewBox="0 0 128 128" fill="none" xmlns="http://www.w3.org/2000/svg">
<g clip-path="url(#clip0_5027_112487)">
<path d="M35.1445 57.5943C15.7236 57.5943 0.00562607 73.3271 0 92.7261C0.00537034 112.132 15.7233 127.865 35.1445 127.865C54.5486 127.865 70.2453 112.132 70.2543 92.7261C70.2543 82.8158 70.2525 87.0194 70.2525 82.6996H57.7038C57.7038 82.6996 57.7038 82.8234 57.7038 92.7261C57.6928 98.9769 55.1828 104.575 51.0916 108.676C46.9897 112.771 41.3959 115.29 35.145 115.29C28.8865 115.29 23.3001 112.77 19.1872 108.676C15.0945 104.575 12.5842 98.9769 12.5753 92.7261C12.5842 86.4822 15.0947 80.8847 19.1872 76.7826C23.3001 72.6873 28.8868 70.176 35.145 70.1689C46.6887 70.1689 80.8512 70.1689 92.8608 70.1689C112.275 70.1689 127.995 54.545 128 35.1389C127.995 15.7254 112.275 0.00716045 92.8608 0C73.4527 0.00716045 57.7291 15.7254 57.7219 35.1389C57.7219 44.9981 57.713 45.0635 57.713 45.0635H70.2545C70.2545 45.0635 70.2545 44.9981 70.2545 35.1389C70.2655 28.895 72.8121 23.2976 76.914 19.1882C81.0121 15.1009 86.6062 12.5817 92.8606 12.5817C99.1117 12.5817 104.717 15.1009 108.818 19.1956C112.905 23.2976 115.419 28.895 115.419 35.1389C115.419 41.3971 112.906 46.9877 108.814 51.0822C104.717 55.1769 99.1119 57.5872 92.8601 57.5946L35.1445 57.5943Z" fill="white"/>
</g>
<defs>
<clipPath id="clip0_5027_112487">
<rect width="128" height="128" fill="white"/>
</clipPath>
</defs>
</svg>
