<svg width="128" height="128" viewBox="0 0 128 128" fill="none" xmlns="http://www.w3.org/2000/svg">
<path d="M0.045166 8L0 120.892H128V8H0.045166Z" fill="#E41018"/>
<path d="M64.9709 35.1875L77.527 44.582L88.7733 96.6356L64.9032 120.89C64.9032 120.89 11.8107 120.89 1.91942 120.89C1.91942 120.89 -0.971191 111.156 10.6816 97.8325C64.9709 35.6392 64.9709 35.1875 64.9709 35.1875Z" fill="#AB1923"/>
<path d="M47.8541 40.2084L23.1483 37.25C23.1483 37.25 23.058 37.1823 0.0460209 65.2754L0.0234375 120.875C8.4017 120.875 27.5069 120.875 27.5069 120.875C52.0319 96.485 57.0905 91.4039 57.0905 91.4039L47.8541 40.2084Z" fill="#C31A1D"/>
<path d="M41.3054 28.9375C63.6399 28.9375 62.3075 46.9587 62.3075 46.9587V78.7554C62.3075 78.7554 62.7817 96.6637 41.2828 96.6637C19.7838 96.6637 20.5517 78.7554 20.5517 78.7554V47.049C20.5517 47.049 18.9708 28.9375 41.3054 28.9375ZM34.4176 47.0264L34.3498 78.7554C34.3498 78.7554 33.9885 84.1302 41.3054 84.1302C48.6222 84.1302 48.4867 78.7554 48.4867 78.7554V47.0264C48.4867 47.0264 48.5996 41.1774 41.3731 41.2C34.1466 41.2226 34.4176 47.0264 34.4176 47.0264ZM88.7972 28.9375V96.6185H74.8184L74.7507 44.6552H64.8593V35.0801L88.7972 28.9375ZM95.7528 56.2177V57.4597C96.5658 56.4661 97.5368 55.9918 98.6434 55.9918C101.466 55.9918 102.866 57.6404 102.866 61.0052V72.8387H99.0725V61.0052C99.0725 60.4407 98.9144 60.0116 98.6208 59.718C98.3272 59.4244 97.9659 59.2664 97.4691 59.2664C96.9948 59.2664 96.5884 59.4244 96.3174 59.718C96.0464 60.0116 95.8883 60.4633 95.8883 61.0052V72.8387H92.0944V56.1951L95.7528 56.2177ZM107.993 67.3285C107.993 69.0222 108.557 69.8803 109.709 69.8803C110.816 69.8803 111.403 69.1803 111.403 67.7801V67.622H115.039V67.8027C115.039 69.5416 114.587 70.874 113.661 71.7547C112.758 72.658 111.425 73.0871 109.686 73.0871C107.948 73.0871 106.593 72.5677 105.622 71.5741C104.65 70.5804 104.176 68.8867 104.176 66.5606V62.4957C104.176 60.2374 104.628 58.5889 105.531 57.5275C106.435 56.4661 107.789 55.9693 109.574 55.9693C111.358 55.9693 112.713 56.5112 113.706 57.5726C114.677 58.6566 115.152 60.2826 115.152 62.5183V65.838H107.97L107.993 67.3285ZM107.993 61.9311V63.1732H111.358V61.9311C111.358 61.0052 111.2 60.3052 110.929 59.8761C110.658 59.447 110.206 59.2438 109.664 59.2438C109.122 59.2438 108.693 59.447 108.422 59.8761C108.151 60.3052 107.993 61.0052 107.993 61.9311ZM120.594 67.4414C120.594 68.8641 121.475 69.5416 122.943 69.5416H123.101L122.649 72.8161C120.684 72.8161 119.646 72.387 118.607 71.5741C117.59 70.7611 117.545 69.4738 117.545 67.6898V58.7695H115.806V56.2177H117.545V51.0236H120.594V56.2177H122.604V58.7695H120.594V67.4414Z" fill="white"/>
</svg>
