<svg width="128" height="128" viewBox="0 0 128 128" fill="none" xmlns="http://www.w3.org/2000/svg">
<path d="M104.7 74.7016C97.9001 74.7016 93.0001 79.9016 93.0001 86.2016C93.0001 92.6016 97.9001 97.7016 104.7 97.7016C111.5 97.7016 116.5 92.5016 116.5 86.2016C116.5 79.9016 111.6 74.7016 104.7 74.7016ZM104.7 92.1016C101.4 92.1016 98.9001 89.5016 98.9001 86.2016C98.9001 83.0016 101.4 80.4016 104.7 80.4016C108 80.4016 110.5 83.0016 110.5 86.2016C110.5 89.4016 108.1 92.1016 104.7 92.1016ZM64.7001 90.3016C64.7001 95.9016 59.8001 97.8016 55.5001 97.8016C52.5001 97.8016 49.7001 97.3016 49.4001 97.2016V92.0016C49.9001 92.1016 52.2001 92.8016 54.7001 92.8016C57.5001 92.8016 58.8001 92.0016 58.8001 90.7016C58.8001 89.6016 57.7001 88.9016 56.3001 88.5016C56.0001 88.4016 55.4001 88.2016 55.1001 88.1016C52.0001 87.1016 49.4001 85.3016 49.4001 81.6016C49.4001 77.4016 52.5001 74.6016 57.7001 74.6016C60.4001 74.6016 63.0001 75.3016 63.2001 75.3016V80.0016C63.1001 80.0016 60.8001 79.3016 58.8001 79.3016C56.5001 79.3016 55.3001 80.1016 55.3001 81.1016C55.3001 82.5016 56.9001 82.9016 57.9001 83.2016L59.4001 83.7016C63.0001 85.1016 64.7001 87.6016 64.7001 90.3016ZM36.2001 75.1016H41.8001V97.3016H36.2001V75.1016ZM23.4001 74.7016C26.0001 74.7016 28.0001 75.3016 28.5001 75.5016V81.5016C28.3001 81.4016 26.5001 80.3016 23.8001 80.3016C20.2001 80.3016 17.6001 82.8016 17.6001 86.2016C17.6001 89.5016 20.0001 92.1016 23.8001 92.1016C26.4001 92.1016 28.3001 91.1016 28.5001 90.9016V96.9016C27.8001 97.1016 25.9001 97.7016 23.4001 97.7016C17.1001 97.7016 11.6001 93.3016 11.6001 86.2016C11.5001 79.6016 16.5001 74.7016 23.4001 74.7016ZM82.0001 74.7016C84.6001 74.7016 86.6001 75.3016 87.1001 75.5016V81.5016C86.9001 81.4016 85.1001 80.3016 82.4001 80.3016C78.8001 80.3016 76.2001 82.8016 76.2001 86.2016C76.2001 89.5016 78.6001 92.1016 82.4001 92.1016C85.0001 92.1016 86.9001 91.1016 87.1001 90.9016V96.9016C86.4001 97.1016 84.5001 97.7016 82.0001 97.7016C75.7001 97.7016 70.2001 93.3016 70.2001 86.2016C70.1001 79.6016 75.1001 74.7016 82.0001 74.7016Z" fill="url(#paint0_linear_5027_116814)"/>
<path d="M5.6 51.2031V57.0031C5.6 58.5031 4.3 59.8031 2.8 59.8031C1.3 59.8031 0 58.6031 0 57.0031V51.2031C0 49.7031 1.3 48.4031 2.8 48.4031C4.3 48.4031 5.6 49.7031 5.6 51.2031ZM18.1 59.8031C19.6 59.8031 20.9 58.6031 20.9 57.0031V43.5031C20.9 42.0031 19.6 40.7031 18.1 40.7031C16.6 40.7031 15.3 41.9031 15.3 43.5031V57.0031C15.3 58.6031 16.6 59.8031 18.1 59.8031ZM33.4 30.3031C32.2 30.3031 31.3 31.0031 30.8 32.0031C30.7 32.3031 30.6 32.7031 30.6 33.1031V62.6031C30.6 63.0031 30.7 63.4031 30.8 63.7031C31.2 64.7031 32.2 65.4031 33.4 65.4031C34.6 65.4031 35.5 64.7031 36 63.7031C36.1 63.4031 36.2 63.0031 36.2 62.6031V33.0031C36.2 32.6031 36.1 32.3031 36 31.9031C35.5 31.0031 34.5 30.3031 33.4 30.3031ZM51.5 57.0031V43.5031C51.5 42.0031 50.2 40.7031 48.7 40.7031C47.2 40.7031 45.9 41.9031 45.9 43.5031V57.0031C45.9 58.5031 47.2 59.8031 48.7 59.8031C50.2 59.8031 51.5 58.6031 51.5 57.0031ZM64 48.4031C62.4 48.4031 61.2 49.6031 61.2 51.2031V57.0031C61.2 58.5031 62.5 59.8031 64 59.8031C65.5 59.8031 66.8 58.6031 66.8 57.0031V51.2031C66.8 49.7031 65.5 48.4031 64 48.4031ZM109.9 59.8031C111.4 59.8031 112.7 58.6031 112.7 57.0031V43.5031C112.7 42.0031 111.4 40.7031 109.9 40.7031C108.4 40.7031 107.1 41.9031 107.1 43.5031V57.0031C107.1 58.6031 108.4 59.8031 109.9 59.8031ZM125.2 48.4031C123.7 48.4031 122.4 49.6031 122.4 51.2031V57.0031C122.4 58.5031 123.7 59.8031 125.2 59.8031C126.7 59.8031 128 58.6031 128 57.0031V51.2031C128 49.7031 126.7 48.4031 125.2 48.4031ZM94.6 65.4031C95.6 65.4031 96.4 64.9031 96.9 64.2031C97.2 63.8031 97.4 63.2031 97.4 62.6031V33.0031C97.4 32.4031 97.2 31.9031 96.9 31.4031C96.4 30.7031 95.5 30.2031 94.6 30.2031C93.6 30.2031 92.8 30.7031 92.3 31.4031C92 31.8031 91.8 32.4031 91.8 33.0031V62.5031C91.8 63.1031 92 63.6031 92.3 64.1031C92.8 64.9031 93.6 65.4031 94.6 65.4031ZM79.3 59.8031C80.8 59.8031 82.1 58.6031 82.1 57.0031V43.5031C82.1 42.0031 80.8 40.7031 79.3 40.7031C77.8 40.7031 76.5 41.9031 76.5 43.5031V57.0031C76.5 58.6031 77.8 59.8031 79.3 59.8031Z" fill="url(#paint1_linear_5027_116814)"/>
<defs>
<linearGradient id="paint0_linear_5027_116814" x1="64.0019" y1="97.7334" x2="64.0019" y2="74.6952" gradientUnits="userSpaceOnUse">
<stop stop-color="#98162A"/>
<stop offset="0.48" stop-color="#E50A2B"/>
<stop offset="0.5" stop-color="#EF6C80"/>
<stop offset="1" stop-color="#E50A2B"/>
</linearGradient>
<linearGradient id="paint1_linear_5027_116814" x1="64" y1="65.367" x2="64" y2="30.2713" gradientUnits="userSpaceOnUse">
<stop stop-color="#0D6A7F"/>
<stop offset="0.48" stop-color="#00A6CC"/>
<stop offset="0.5" stop-color="#66CAE0"/>
<stop offset="1" stop-color="#00A6CC"/>
</linearGradient>
</defs>
</svg>
