<svg width="128" height="128" viewBox="0 0 128 128" fill="none" xmlns="http://www.w3.org/2000/svg">
<path d="M127.037 36.9531H117.138C116.588 36.9531 116.176 37.3673 116.176 37.9196V89.6934C116.176 90.2456 116.588 90.6598 117.138 90.6598H127.037C127.587 90.6598 128 90.2456 128 89.6934V37.9196C128 37.3673 127.587 36.9531 127.037 36.9531Z" fill="#6B9D34"/>
<path d="M51.0062 83.0712V44.6896C51.0062 42.8947 50.5937 41.376 49.6313 40.1335C48.6689 38.8909 47.4315 37.9244 45.9192 37.2341C42.6195 35.9915 39.0449 35.3012 35.0578 35.4393C33.2705 35.4393 31.3457 35.5774 29.5583 35.8535C27.6335 36.1296 25.9837 36.6819 24.4713 37.3722C22.959 38.0625 21.7216 39.0289 20.7592 40.2715C19.6593 41.376 19.1094 42.8947 19.1094 44.8276V83.2093C19.2469 86.6609 21.0342 89.0079 24.4713 90.3886C25.9837 91.0789 27.6335 91.4931 29.5583 91.9073C31.3457 92.3215 33.2705 92.4595 35.0578 92.4595C36.4326 92.4595 37.8075 92.3215 39.0449 92.1834C39.1824 93.7021 39.5948 94.9447 40.4198 95.9111C41.2447 96.8776 43.032 97.4298 45.7817 97.5679H50.8687C51.4186 97.5679 51.8311 97.1537 51.8311 96.6014V92.5976C51.8311 92.0453 51.4186 91.6311 50.8687 91.6311H46.6066C45.5067 91.6311 44.8193 91.4931 44.8193 91.0789C46.6066 90.3886 48.119 89.4221 49.2189 88.1796C50.4562 86.5228 51.0062 84.866 51.0062 83.0712ZM39.0449 82.2428C39.0449 83.0712 38.9074 84.1757 38.22 84.866C37.3951 85.6944 36.1577 85.6944 35.0578 85.6944C33.6829 85.6944 32.7205 85.5564 32.1706 85.0041C31.4831 84.5899 31.0707 83.6235 31.0707 82.3809V45.3799C31.0707 43.9992 31.4831 43.1709 32.1706 42.6186C32.858 42.2044 33.8204 41.9283 35.0578 41.9283C36.0202 41.9283 37.1201 41.9283 37.945 42.4805C38.9074 43.0328 38.9074 44.2754 38.9074 45.2418V82.2428H39.0449Z" fill="#6B9D34"/>
<path d="M1.10096 48.9672H11C11.5499 48.9672 11.9624 48.553 11.9624 48.0008V38.0602C11.9624 37.5079 11.5499 37.0938 11 37.0938H1.10096C0.551014 37.0938 0.138555 37.5079 0.138555 38.0602V48.0008C0.00106899 48.553 0.551014 48.9672 1.10096 48.9672Z" fill="#6B9D34"/>
<path d="M59.5327 36.9531C58.9828 36.9531 58.5703 37.3673 58.5703 37.9196V89.6934C58.5703 90.2456 58.9828 90.6598 59.5327 90.6598H69.4317C69.9817 90.6598 70.3941 90.2456 70.3941 89.6934V37.9196C70.3941 37.3673 69.9817 36.9531 69.4317 36.9531H59.5327Z" fill="#6B9D34"/>
<path d="M1.10096 90.8033H11C11.5499 90.8033 11.9624 90.3891 11.9624 89.8368V54.2164C11.9624 53.6642 11.5499 53.25 11 53.25H1.10096C0.551014 53.25 0.138555 53.6642 0.138555 54.2164V89.8368C0.00106899 90.3891 0.551014 90.8033 1.10096 90.8033Z" fill="#6B9D34"/>
<path d="M109.853 36.9531C109.715 36.9531 109.715 36.9531 109.853 36.9531H99.6788C99.2664 36.9531 98.9914 37.2293 98.7164 37.5054C98.7164 37.5054 93.4919 53.9349 92.942 56.6962C92.3921 53.9349 87.1676 37.5054 87.1676 37.5054C87.0301 37.0912 86.6176 36.9531 86.2052 36.9531H76.1687C75.6187 36.9531 75.3438 37.3673 75.3438 37.9196C75.3438 38.0576 75.3438 38.1957 75.3438 38.1957L87.0301 70.9167V89.6934C87.0301 90.2456 87.4425 90.6598 87.9925 90.6598H92.2546H93.7669H98.029C98.5789 90.6598 98.9914 90.2456 98.9914 89.6934V71.0548L110.678 38.3338C110.678 38.1957 110.678 38.0576 110.678 38.0576C110.678 37.3673 110.265 36.9531 109.853 36.9531Z" fill="#6B9D34"/>
<path d="M13.4729 28.1199C14.9852 25.6347 18.0099 24.8063 20.7597 24.3922C31.6211 22.7354 41.3826 21.907 51.5566 21.6309C55.6812 21.4928 63.9303 21.4928 63.9303 21.4928H64.0678C68.1924 21.4928 72.1795 21.4928 76.3041 21.6309C86.4781 21.907 96.2396 22.7354 107.101 24.3922C109.851 24.8063 112.738 25.6347 114.388 28.1199C115.35 29.6386 115.763 31.9857 115.763 32.814H127.724C127.724 30.3289 127.174 26.0489 125.799 22.8735C124.837 20.8025 123.187 18.7316 121.262 17.489C114.388 12.7948 78.3664 11.1381 72.042 11C69.5673 11 66.955 11 64.0678 11H63.9303C63.9303 11 58.2934 11 55.8187 11C49.4943 11.2761 13.4729 12.9329 6.59857 17.627C4.81125 18.8696 3.02393 20.9406 2.06153 23.0115C0.686664 26.187 0.136719 30.467 0.136719 32.9521H12.098C12.098 31.9857 12.5105 29.6386 13.4729 28.1199Z" fill="#6B9D34"/>
<path d="M114.251 99.7723C112.739 102.257 109.714 103.086 106.964 103.5C96.1029 105.157 86.3414 105.985 76.1674 106.261C72.0428 106.399 68.0557 106.399 63.9311 106.399H63.7936C63.7936 106.399 55.5445 106.399 51.4199 106.261C41.2459 105.985 31.4844 105.157 20.6229 103.5C17.8732 103.086 14.986 102.257 13.3362 99.7723C12.3738 98.2536 11.9613 95.9065 11.9613 95.0781H0C0 97.5633 0.549945 101.843 1.92481 105.019C2.88721 107.09 4.53705 109.161 6.46185 110.403C13.3362 115.097 49.3576 116.754 55.6819 116.892C58.1567 116.892 63.7936 116.892 63.7936 116.892H63.9311C66.8183 116.892 69.4306 116.892 71.9053 116.892C78.2297 116.754 114.251 115.097 121.125 110.403C123.05 109.161 124.7 107.09 125.662 105.019C127.037 101.843 127.587 97.5633 127.587 95.0781H115.626C115.626 95.9065 115.351 98.2536 114.251 99.7723Z" fill="#6B9D34"/>
</svg>
