<svg width="128" height="128" viewBox="0 0 128 128" fill="none" xmlns="http://www.w3.org/2000/svg">
<g clip-path="url(#clip0_5027_122441)">
<path d="M64 0C28.6538 0 0 28.6538 0 64C0 99.3463 28.6538 128 64 128C99.3463 128 128 99.3463 128 64C128 28.6538 99.3463 0 64 0Z" fill="#FF0F50"/>
<path d="M99.5535 75.7448L99.1823 75.9056V76.0863H85.0088C80.3265 76.0806 76.5325 72.2863 76.527 67.6043V58.0988C76.527 57.8352 76.4751 57.5741 76.3742 57.3305C76.2733 57.0869 76.1254 56.8656 75.9389 56.6792C75.7525 56.4928 75.5312 56.3449 75.2876 56.2441C75.044 56.1432 74.7829 56.0913 74.5193 56.0913C73.9869 56.0913 73.4762 56.3028 73.0998 56.6793C72.7233 57.0558 72.5118 57.5664 72.5118 58.0988V81.3558C72.5118 86.0408 68.7143 89.8376 64.0298 89.8376C59.3455 89.8376 55.548 86.0406 55.548 81.3558V46.6458C55.548 46.1134 55.3365 45.6028 54.96 45.2263C54.5836 44.8498 54.0729 44.6383 53.5405 44.6383C53.0081 44.6383 52.4975 44.8498 52.121 45.2263C51.7445 45.6028 51.533 46.1134 51.533 46.6458V67.6146C51.5218 72.2926 47.7293 76.0806 43.051 76.0863H28.7978L28.4365 75.7348V69.9833L28.7978 69.6321H43.001C43.2647 69.6321 43.5257 69.5802 43.7693 69.4793C44.0129 69.3785 44.2343 69.2306 44.4207 69.0442C44.6071 68.8577 44.755 68.6364 44.8559 68.3929C44.9568 68.1493 45.0088 67.8882 45.0088 67.6246V46.6458C45.0088 41.9613 48.8063 38.1641 53.4905 38.1641C58.175 38.1641 61.9725 41.9616 61.9725 46.6458V81.3661C61.9725 81.8985 62.184 82.4091 62.5605 82.7856C62.937 83.1621 63.4476 83.3736 63.98 83.3736C64.5124 83.3736 65.0231 83.1621 65.3995 82.7856C65.776 82.4091 65.9875 81.8985 65.9875 81.3661V58.0986C65.9875 53.4143 69.785 49.6171 74.4698 49.6171C79.154 49.6171 82.9513 53.4143 82.9513 58.0988V67.6146C82.9514 68.1469 83.163 68.6575 83.5394 69.0339C83.9159 69.4104 84.4264 69.6219 84.9588 69.6221H99.1323V69.7828L99.5035 69.9636L99.5535 75.7448Z" fill="white"/>
</g>
<defs>
<clipPath id="clip0_5027_122441">
<rect width="128" height="128" fill="white"/>
</clipPath>
</defs>
</svg>
