<svg width="128" height="128" viewBox="0 0 128 128" fill="none" xmlns="http://www.w3.org/2000/svg">
<path d="M128 64C128 80.9739 121.257 97.2525 109.255 109.255C97.2525 121.257 80.9739 128 64 128C47.0261 128 30.7475 121.257 18.7452 109.255C6.74284 97.2525 0 80.9739 0 64C0 47.0261 6.74284 30.7475 18.7452 18.7452C30.7475 6.74284 47.0261 0 64 0C80.9739 0 97.2525 6.74284 109.255 18.7452C121.257 30.7475 128 47.0261 128 64Z" fill="#ED1213"/>
<path d="M41.7383 30.558V70.2157C42.2824 80.7366 47.8973 88.7721 57.5741 90.42H79.6896C95.9962 89.5948 106.356 62.4344 79.6896 55.4721H60.4409C48.8261 55.3781 47.6694 41.6453 60.4409 41.411H80.2356C97.322 42.198 107.714 53.6577 109.518 65.5742C110.162 69.3434 110.531 77.171 109.518 81.8195C107.057 90.6935 99.8054 103.178 81.1912 105.164H59.8948C42.7568 104.473 29.0165 93.8331 28.6328 79.2257V30.6263C28.6328 18.1805 41.8696 18.3832 41.7383 30.558V30.558Z" fill="white"/>
</svg>
