<svg width="128" height="128" viewBox="0 0 128 128" fill="none" xmlns="http://www.w3.org/2000/svg">
<rect width="128" height="128" rx="24" fill="url(#paint0_linear_5027_80348)"/>
<path d="M33.7889 64.3438H30.2525L26.4767 69.8452L25.1058 71.8766C25.0172 71.9995 24.9303 72.1146 24.8443 72.2241L24.2295 73.1203H25.9886L27.1811 71.3823L27.6187 70.7372H31.7584L31.9395 71.6072L32.2549 73.1204H35.5931L33.7889 64.3438ZM31.4558 69.3738H28.525L30.7745 66.0142L31.4558 69.3738Z" fill="#111D42"/>
<path d="M91.5519 64.3438H88.0153L84.2397 69.8453L82.8688 71.8767C82.7801 71.9996 82.6933 72.1148 82.6073 72.2242L81.9927 73.1204H83.7514L84.9441 71.3824L85.3816 70.7373H89.5215L89.7025 71.6073L90.0176 73.1206H93.3558L91.5519 64.3438ZM89.2188 69.3738H86.2877L88.5375 66.0142L89.2188 69.3738Z" fill="#7E827F"/>
<path d="M24.5208 65.0335C24.238 64.6558 23.8542 64.4339 23.3699 64.3693C23.2197 64.3522 22.9368 64.3438 22.521 64.3438H16.2594L16.0013 65.3457C15.9912 65.3991 15.9798 65.4508 15.9663 65.5011L14.6796 70.4809L14 73.1203H17.3543L18.3497 69.3541H19.2108L19.937 73.1203H23.2535L22.5466 69.3541C22.6407 69.3614 22.7138 69.3643 22.7652 69.3643C23.5542 69.3643 24.0429 69.0915 24.2313 68.546C24.2616 68.46 24.315 68.2791 24.3923 68.0039L24.7781 66.5091C24.8294 66.3117 24.8554 66.1185 24.8554 65.9291C24.8554 65.6287 24.7438 65.33 24.5208 65.0335ZM21.4269 66.419L21.1998 67.2986C21.1391 67.5358 21.0396 67.6946 20.9012 67.7764C20.7898 67.8285 20.6143 67.8539 20.3742 67.8539H18.7419L19.2689 65.7853H20.9527C21.2992 65.7853 21.4723 65.8949 21.4723 66.115C21.4724 66.1967 21.4572 66.2981 21.4269 66.419Z" fill="#111D42"/>
<path d="M104.436 65.0335C104.153 64.6558 103.77 64.4339 103.285 64.3693C103.135 64.3522 102.852 64.3438 102.436 64.3438H96.1747L95.9168 65.3457C95.9066 65.3991 95.8951 65.4508 95.8817 65.5011L94.5948 70.4809L93.9155 73.1203H97.2696L98.2651 69.3541H99.1263L99.8524 73.1203H103.169L102.462 69.3541C102.556 69.3614 102.629 69.3643 102.68 69.3643C103.469 69.3643 103.958 69.0915 104.147 68.546C104.177 68.46 104.231 68.2791 104.307 68.0039L104.694 66.5091C104.745 66.3117 104.771 66.1185 104.771 65.9291C104.771 65.6287 104.659 65.33 104.436 65.0335ZM101.343 66.419L101.115 67.2986C101.055 67.5358 100.955 67.6946 100.817 67.7764C100.705 67.8285 100.53 67.8539 100.29 67.8539H98.6576L99.1843 65.7853H100.868C101.215 65.7853 101.388 65.8949 101.388 66.115C101.388 66.1967 101.372 66.2981 101.343 66.419Z" fill="#7E827F"/>
<path d="M38.3818 65.3532C38.3716 65.4066 38.36 65.4583 38.3467 65.5086C38.3603 65.4576 38.3719 65.405 38.3825 65.3516L38.3818 65.3532Z" fill="#71B220"/>
<path d="M47.1582 65.1216C46.9352 64.7356 46.5795 64.4937 46.091 64.3954C45.9109 64.3609 45.6281 64.3438 45.2425 64.3438H38.6402L38.3828 65.3442C38.3724 65.3977 38.3608 65.4501 38.347 65.5013L37.0601 70.481L36.3809 73.1204H39.735L40.4676 70.3483L40.5593 70.0019H44.1305C44.4733 70.0019 44.7068 69.9993 44.8309 69.9954C44.9048 69.9896 44.9726 69.9776 45.0422 69.9669C45.4223 69.9111 45.7463 69.795 46.0069 69.6112C46.4224 69.2945 46.7118 68.7875 46.8745 68.0902L47.2801 66.535C47.3487 66.2659 47.3831 66.0641 47.3831 65.9312C47.3834 65.6481 47.3083 65.3786 47.1582 65.1216ZM43.9226 66.4872L43.5936 67.749C43.512 68.0792 43.4109 68.2921 43.2908 68.3863C43.1532 68.5021 42.8933 68.5602 42.511 68.5602H40.9362L41.6496 65.7851H43.3335C43.362 65.7851 43.3875 65.7867 43.4137 65.7885C43.5973 65.7958 43.7238 65.8177 43.7866 65.8556C43.9028 65.9333 43.9611 66.0536 43.9611 66.2166C43.9611 66.2979 43.9483 66.3881 43.9226 66.4872Z" fill="#111D42"/>
<path d="M52.0161 65.3442L52.2734 64.3438H48.8966L48.6391 65.3442C48.6288 65.3977 48.617 65.4501 48.6034 65.5013L47.3164 70.481L46.6372 73.1204H49.9911L50.7238 70.3483L50.8155 70.0019H50.8164L51.7774 66.284L51.9056 65.7855H51.9064L51.9798 65.5013C51.994 65.4501 52.0057 65.3977 52.0161 65.3442Z" fill="#111D42"/>
<path d="M61.9163 65.0447C61.6288 64.6462 61.1974 64.4192 60.6228 64.3635C60.4554 64.3504 60.1743 64.3438 59.7798 64.3438H53.5504L53.293 65.3442C53.2828 65.3977 53.2711 65.4501 53.2574 65.5013L53.184 65.7855H53.1837L53.0804 66.1852L53.055 66.284L52.7404 67.5014L51.6755 71.6217C51.634 71.778 51.5927 71.9195 51.5516 72.0495L51.2686 73.1204H58.2695C58.5781 73.1204 58.9277 73.1007 59.3179 73.0623C59.5409 73.0367 59.7528 72.9574 59.9547 72.8244C60.3446 72.567 60.6257 72.244 60.7973 71.8539C60.8916 71.6348 60.99 71.316 61.0932 70.8957L62.1542 66.7935C62.2147 66.5664 62.2447 66.3097 62.2447 66.022C62.2444 65.6702 62.1348 65.3447 61.9163 65.0447ZM58.8427 66.539L57.7815 70.6481C57.7172 70.8842 57.6678 71.0604 57.6335 71.1766C57.5391 71.447 57.3956 71.6036 57.2025 71.6462C57.0996 71.668 56.9347 71.6786 56.7073 71.6786H55.0427L56.5595 65.7855H58.2627C58.5116 65.7855 58.6685 65.8068 58.7327 65.8496C58.8441 65.9313 58.9003 66.0429 58.9003 66.1844C58.9005 66.266 58.8812 66.3842 58.8427 66.539Z" fill="#111D42"/>
<path d="M79.221 64.3438L78.9632 65.3442C78.9531 65.3977 78.9413 65.4501 78.9277 65.5013L78.3298 67.8151H75.9271L76.3228 66.284L76.4512 65.7855H76.4517L76.5252 65.5013C76.539 65.4503 76.5508 65.3977 76.5612 65.3442L76.8186 64.3438H73.4417L73.1842 65.3442C73.174 65.3977 73.162 65.4501 73.1484 65.5013L71.8619 70.481L71.1826 73.1204H74.5366L75.2692 70.3483L75.3607 70.0019H75.3618L75.5529 69.2626H77.9559L77.6408 70.481L76.9616 73.1204H80.3157L81.0485 70.3483L81.1401 70.0019H81.141L82.1024 66.284L82.2305 65.7855H82.2313L82.3045 65.5013C82.3184 65.4503 82.3301 65.3977 82.3404 65.3442L82.598 64.3438H79.221Z" fill="#7E827F"/>
<path d="M67.1072 65.8237C67.1888 65.7982 67.3236 65.7853 67.5119 65.7853H70.5901H71.986L72.1394 64.3438H65.9629C65.3889 64.3438 64.9159 64.4339 64.5432 64.6142C64.1706 64.7939 63.8753 65.0751 63.6567 65.4561C63.5751 65.6103 63.4961 65.8439 63.4189 66.1569L62.892 68.1825C62.7723 68.6451 62.7121 68.9925 62.7121 69.2239C62.7121 69.6658 62.8962 69.9917 63.2646 70.2017C63.517 70.3427 63.8813 70.4133 64.3565 70.4133H66.4773L66.8432 70.4038C67.1682 70.4038 67.3311 70.5069 67.3311 70.7145C67.3311 70.7916 67.3074 70.924 67.2602 71.1091C67.2004 71.3597 67.1214 71.5218 67.023 71.5945C66.9457 71.6502 66.7704 71.6787 66.4964 71.6787H64.9339H63.6302H62.01L61.811 73.1204H67.6021C68.2105 73.1204 68.6471 73.1007 68.9132 73.0623C69.1829 73.02 69.4423 72.912 69.6909 72.7391C69.9392 72.5659 70.1169 72.3685 70.2242 72.1462C70.3183 71.9796 70.4271 71.6645 70.5513 71.2016L71.1282 68.9726C71.2051 68.6724 71.2436 68.4431 71.2436 68.2848C71.2436 67.9297 71.1065 67.6276 70.833 67.3794C70.6361 67.1991 70.3048 67.109 69.8388 67.109H67.1713C66.8202 67.109 66.6444 67.0011 66.6444 66.7845C66.6444 66.7157 66.6812 66.5533 66.7539 66.2978C66.8306 66.0295 66.9486 65.8718 67.1072 65.8237Z" fill="#7E827F"/>
<path d="M106.505 64.3438L106.249 65.3389L106.247 65.3458C106.237 65.3993 106.225 65.4509 106.212 65.5013L104.925 70.481L104.903 70.5664L104.246 73.1203H111.732L112.304 71.6786H107.998L108.552 69.5186L108.59 69.3738H110.645V69.375H112.7L112.706 69.3541L113.073 67.9323H108.961L109.484 65.9027L109.514 65.7853H113.822L113.986 64.4576L114 64.3438H106.505Z" fill="#7E827F"/>
<path d="M74.0993 43.674C69.9871 40.3064 46.7467 21.9437 38.4385 30.044L28.5302 40.3929C30.1594 38.9949 37.7898 35.2331 61.2808 56.4302L55.8877 61.7971H79.8254V37.9757L74.0993 43.674ZM28.1685 40.7708L28.5302 40.3929C28.2768 40.6105 28.1685 40.7708 28.1685 40.7708Z" fill="#111D42"/>
<path d="M43.1339 66.5391H42.2317L41.9043 67.8125H42.5108C42.6535 67.8125 42.7433 67.8023 42.7974 67.7929C42.8151 67.7474 42.8395 67.6744 42.8671 67.5629L43.1339 66.5391Z" fill="#83857C"/>
<path d="M33.8315 63.601H34.401L34.5244 64.2008L34.6353 64.7403C35.3401 65.7204 36.116 66.7503 36.9706 67.8343C37.2936 66.5842 37.6184 65.3266 37.6212 65.3165C37.6296 65.2851 37.6374 65.2502 37.6448 65.2121C37.6448 65.2121 37.6498 65.1854 37.6505 65.1828L37.6563 65.1616L37.913 64.1642L38.058 63.6009H38.64H44.4754C35.1701 50.9164 35.0846 41.2755 35.0846 41.2755C35.0846 41.2755 35.0922 41.0354 35.1056 40.9088C28.6591 39.596 27.6803 43.5299 27.6803 43.5299C27.2773 45.3693 27.2281 47.0224 27.38 48.4834C27.5738 50.3485 27.7249 54.763 33.8315 63.601Z" fill="#7E827F"/>
<path d="M53.6392 73.8721H51.2684H50.5696H50.2935H49.9914H46.6375H45.6689L45.9105 72.934C45.9105 72.934 46.5898 70.2954 46.59 70.2946C46.59 70.2946 46.6137 70.2023 46.654 70.0469C46.5923 70.1045 46.5286 70.1589 46.4623 70.2093L46.4514 70.2177L46.4404 70.2255C46.089 70.4738 45.6554 70.6371 45.152 70.7111L45.1098 70.7177C45.0499 70.7264 44.9752 70.7384 44.8907 70.7451L44.8742 70.7462L44.8577 70.7467C44.7247 70.7514 44.4869 70.7538 44.1305 70.7538H41.1375L40.7217 72.327C41.2615 72.9437 41.8214 73.5726 42.4072 74.2187C57.0712 90.3734 89.6393 100.049 89.6393 100.049C89.6393 100.049 76.8676 94.1688 56.3351 76.3134C55.3947 75.4955 54.498 74.6814 53.6392 73.8721Z" fill="#7E827F"/>
<path d="M65.2354 78.5836L65.832 75.7344H67.941L67.842 76.2111H66.3197L66.1779 76.8574H67.6571L67.558 77.3348H66.0733L65.9044 78.1061H67.5606L67.4591 78.5835H65.2354V78.5836Z" fill="black"/>
<path d="M70.2159 77.9528H69.0883L68.7423 78.5836H68.1401L69.7509 75.7344H70.4036L70.8641 78.5836H70.3087L70.2159 77.9528ZM70.1427 77.4755L69.9768 76.3341L69.3503 77.4755H70.1427Z" fill="black"/>
<path d="M71.771 77.6608L72.3288 77.6315C72.3366 77.8089 72.367 77.9286 72.42 77.9909C72.5056 78.0924 72.6638 78.1428 72.8947 78.1428C73.0866 78.1428 73.2253 78.1083 73.311 78.0395C73.3963 77.9707 73.4394 77.8884 73.4394 77.7911C73.4394 77.7069 73.4039 77.6358 73.3345 77.5771C73.2849 77.5343 73.1501 77.4652 72.9292 77.3696C72.7083 77.2735 72.5468 77.1935 72.4449 77.1297C72.3434 77.0656 72.2636 76.9827 72.2053 76.8799C72.147 76.7778 72.1177 76.6582 72.1177 76.5206C72.1177 76.2809 72.2043 76.0824 72.3777 75.9239C72.5511 75.7662 72.8023 75.6875 73.1308 75.6875C73.4648 75.6875 73.7231 75.7655 73.9064 75.9221C74.0897 76.0793 74.1902 76.2874 74.2082 76.5482L73.6478 76.5732C73.6335 76.4372 73.5842 76.3326 73.5004 76.26C73.4161 76.187 73.2921 76.1509 73.1279 76.1509C72.9664 76.1509 72.8508 76.1794 72.7815 76.2362C72.7126 76.2936 72.6779 76.3656 72.6779 76.4521C72.6779 76.5338 72.7095 76.6009 72.773 76.6541C72.8363 76.7087 72.9765 76.783 73.1939 76.8779C73.5208 77.0189 73.7291 77.1333 73.8181 77.2217C73.9512 77.3515 74.0179 77.5175 74.0179 77.721C74.0179 77.9725 73.9183 78.1872 73.7195 78.3654C73.5205 78.5432 73.244 78.6321 72.8894 78.6321C72.6446 78.6321 72.4326 78.5913 72.2532 78.5087C72.0738 78.427 71.9473 78.3125 71.8737 78.1661C71.8003 78.0201 71.7658 77.8517 71.771 77.6608Z" fill="black"/>
<path d="M76.2263 78.5836H75.6407L75.8729 77.4753L75.0879 75.7344H75.7113L76.0651 76.5407C76.1489 76.734 76.2053 76.8736 76.2339 76.9593C76.2817 76.8751 76.3379 76.785 76.401 76.6908L76.6719 76.3126L77.0746 75.7344H77.7545L76.4473 77.5286L76.2263 78.5836Z" fill="black"/>
<path d="M79.3965 78.5836L79.993 75.7344H81.9824L81.8808 76.2111H80.4791L80.3361 76.8942H81.7114L81.6121 77.3717H80.2362L79.9825 78.5835H79.3965V78.5836Z" fill="black"/>
<path d="M82.2686 78.5836L82.8654 75.7344H83.451L82.8545 78.5836H82.2686Z" fill="black"/>
<path d="M83.8765 78.5836L84.4733 75.7344H85.0589L84.5622 78.1061H86.0087L85.9098 78.5835H83.8765V78.5836Z" fill="black"/>
<path d="M86.7515 78.5836L87.3481 75.7344H89.4571L89.3582 76.2111H87.8358L87.6941 76.8574H89.1732L89.0743 77.3348H87.5895L87.4203 78.1061H89.0766L88.9749 78.5835H86.7515V78.5836Z" fill="black"/>
<path d="M91.8261 77.3113H90.7255L90.459 78.5836H89.873L90.4697 75.7344H91.0555L90.8254 76.8344H91.926L92.1564 75.7344H92.7422L92.1457 78.5836H91.5599L91.8261 77.3113Z" fill="black"/>
<path d="M93.3809 77.4673C93.3809 77.2989 93.406 77.1214 93.4565 76.9349C93.5225 76.6846 93.6234 76.4675 93.7588 76.2838C93.8941 76.1002 94.065 75.9542 94.2709 75.8475C94.4769 75.7408 94.7113 75.6875 94.9744 75.6875C95.3269 75.6875 95.6119 75.7966 95.8289 76.0151C96.0458 76.2345 96.1543 76.5244 96.1543 76.8863C96.1543 77.1867 96.0834 77.4773 95.9427 77.7586C95.8012 78.0403 95.6093 78.2566 95.3671 78.4079C95.1247 78.5597 94.8507 78.6355 94.545 78.6355C94.2793 78.6355 94.0564 78.5751 93.8763 78.4546C93.6961 78.3345 93.5685 78.1849 93.4934 78.0063C93.4181 77.8282 93.3809 77.6486 93.3809 77.4673ZM93.9595 77.4555C93.9595 77.6512 94.0191 77.8148 94.1383 77.9469C94.2578 78.0792 94.4147 78.1449 94.6095 78.1449C94.7675 78.1449 94.9197 78.0928 95.0654 77.9883C95.2112 77.8847 95.3323 77.7264 95.4273 77.5147C95.5224 77.3029 95.5703 77.0965 95.5703 76.8957C95.5703 76.6721 95.5101 76.4959 95.3894 76.3685C95.2688 76.2411 95.1153 76.177 94.9283 76.177C94.6415 76.177 94.4084 76.3102 94.229 76.5772C94.0494 76.8439 93.9595 77.137 93.9595 77.4555Z" fill="black"/>
<path d="M96.8419 77.6608L97.3995 77.6315C97.4074 77.8089 97.4377 77.9286 97.491 77.9909C97.5763 78.0924 97.7347 78.1428 97.9654 78.1428C98.1573 78.1428 98.296 78.1083 98.3817 78.0395C98.467 77.9707 98.5099 77.8884 98.5099 77.7911C98.5099 77.7069 98.4749 77.6358 98.4052 77.5771C98.3558 77.5343 98.2206 77.4652 97.9997 77.3696C97.779 77.2735 97.6178 77.1935 97.5159 77.1297C97.4142 77.0656 97.3344 76.9827 97.276 76.8799C97.2178 76.7778 97.1885 76.6582 97.1885 76.5206C97.1885 76.2809 97.2753 76.0824 97.4484 75.9239C97.6218 75.7662 97.8729 75.6875 98.2016 75.6875C98.5357 75.6875 98.7941 75.7655 98.9769 75.9221C99.1602 76.0793 99.261 76.2874 99.2792 76.5482L98.7185 76.5732C98.7042 76.4372 98.6552 76.3326 98.5711 76.26C98.4869 76.187 98.3629 76.1509 98.1987 76.1509C98.0371 76.1509 97.9217 76.1794 97.8525 76.2362C97.7832 76.2936 97.7488 76.3656 97.7488 76.4521C97.7488 76.5338 97.7802 76.6009 97.8436 76.6541C97.9073 76.7087 98.0473 76.783 98.2643 76.8779C98.5915 77.0189 98.8001 77.1333 98.8888 77.2217C99.0219 77.3515 99.0884 77.5175 99.0884 77.721C99.0884 77.9725 98.9892 78.1872 98.7904 78.3654C98.5914 78.5432 98.315 78.6321 97.9602 78.6321C97.7151 78.6321 97.5036 78.5913 97.3237 78.5087C97.1446 78.427 97.018 78.3125 96.9442 78.1661C96.8704 78.0197 96.8365 77.8517 96.8419 77.6608Z" fill="black"/>
<path d="M101.103 78.5835H100.517L101.014 76.2111H100.18L100.279 75.7344H102.523L102.424 76.2111H101.6L101.103 78.5835Z" fill="black"/>
<path d="M102.731 78.5836L103.328 75.7344H103.914L103.317 78.5836H102.731Z" fill="black"/>
<path d="M106.595 78.5836H106.052L105.283 76.6678L104.882 78.5836H104.339L104.936 75.7344H105.479L106.25 77.6424L106.648 75.7344H107.191L106.595 78.5836Z" fill="black"/>
<path d="M109.242 77.0638H110.514L110.258 78.2848C110.108 78.3823 109.924 78.4644 109.706 78.532C109.488 78.5991 109.265 78.6328 109.039 78.6328C108.687 78.6328 108.416 78.5533 108.229 78.3938C107.973 78.1762 107.844 77.8606 107.844 77.4475C107.844 77.1705 107.899 76.9048 108.009 76.6509C108.142 76.345 108.329 76.1085 108.573 75.9393C108.816 75.7717 109.102 75.6875 109.431 75.6875C109.76 75.6875 110.024 75.7634 110.223 75.9163C110.422 76.0691 110.553 76.2914 110.618 76.5844L110.073 76.646C110.025 76.4861 109.948 76.3651 109.841 76.284C109.734 76.2021 109.6 76.1619 109.438 76.1619C109.249 76.1619 109.076 76.211 108.917 76.3093C108.76 76.4077 108.636 76.5596 108.547 76.7654C108.457 76.9717 108.413 77.1959 108.413 77.4394C108.413 77.6789 108.467 77.8564 108.576 77.9707C108.685 78.0852 108.844 78.1428 109.054 78.1428C109.179 78.1428 109.308 78.125 109.44 78.0894C109.573 78.0537 109.687 78.0118 109.783 77.9626L109.871 77.5405H109.142L109.242 77.0638Z" fill="black"/>
<defs>
<linearGradient id="paint0_linear_5027_80348" x1="64" y1="0" x2="64" y2="128" gradientUnits="userSpaceOnUse">
<stop stop-color="#FAFAFA"/>
<stop offset="1" stop-color="#E4E4E3"/>
</linearGradient>
</defs>
</svg>
