<svg width="128" height="128" viewBox="0 0 128 128" fill="none" xmlns="http://www.w3.org/2000/svg">
<path d="M58.6026 4.48438V20.8689C50.6135 21.9619 43.3014 25.1111 37.1767 29.7701L25.5972 18.1907L16.7747 27.0131L28.3542 38.5926C23.7065 44.7202 20.6153 52.0317 19.5318 60.0185H3.14722V72.4645H19.5318C20.6217 80.4314 23.7164 87.776 28.3542 93.8904L16.7747 105.47L25.5972 114.292L37.1767 102.713C43.3014 107.372 50.6135 110.521 58.6026 111.614V127.999H71.1273V111.614C79.1037 110.523 86.4344 107.36 92.5533 102.713L104.133 114.292L112.955 105.47L101.376 93.8904C106.014 87.776 109.108 80.4314 110.198 72.4645H126.662V60.0185H110.198C109.11 52.0398 106.02 44.7136 101.376 38.5926L112.955 27.0131L104.133 18.1907L92.5533 29.7701C86.4278 25.1119 79.1161 21.9609 71.1273 20.8689V4.48438H58.6026Z" fill="black"/>
<path d="M57.4554 0V16.3845C49.4663 17.4776 42.1542 20.6267 36.0294 25.2858L24.45 13.7063L15.6275 22.5288L27.207 34.1082C22.5592 40.2358 19.4681 47.5474 18.3845 55.5342H2V67.9801H18.3845C19.4745 75.947 22.5692 83.2916 27.207 89.4061L15.6275 100.986L24.45 109.808L36.0294 98.2285C42.1542 102.888 49.4663 106.037 57.4554 107.13V123.514H69.9801V107.13C77.9564 106.038 85.2872 102.875 91.4061 98.2285L102.986 109.808L111.808 100.986L100.229 89.4061C104.866 83.2916 107.961 75.947 109.051 67.9801H125.514V55.5342H109.051C107.963 47.5555 104.873 40.2292 100.229 34.1082L111.808 22.5288L102.986 13.7063L91.4061 25.2858C85.2806 20.6275 77.9689 17.4765 69.9801 16.3845V0H57.4554Z" fill="#D5302A"/>
<path d="M101.941 61.7615C101.942 71.8863 97.9207 81.5968 90.7628 88.7576C83.6048 95.9183 73.8959 99.9431 63.7711 99.9468C53.6462 99.9505 43.9344 95.9329 36.7712 88.7773C29.608 81.6218 25.5799 71.9143 25.5728 61.7894C25.5656 51.6646 29.58 41.9514 36.733 34.7857C43.8861 27.6201 53.5923 23.5887 63.7171 23.5781C73.842 23.5676 83.5566 27.5786 90.7246 34.7292C97.8927 41.8799 101.927 51.5847 101.941 61.7095" fill="#F8C129"/>
<path d="M47.0149 71.9219C57.9526 83.0702 70.3962 82.8683 80.4996 71.9219" stroke="#370000" stroke-width="3.09067"/>
<path d="M79.8739 52.3807C79.8739 53.4906 79.4332 54.555 78.6485 55.3399C77.8639 56.1249 76.7997 56.5661 75.6899 56.5665C74.58 56.5669 73.5154 56.1265 72.7302 55.3422C71.945 54.5578 71.5035 53.4937 71.5027 52.3839C71.5019 51.2741 71.9419 50.2093 72.726 49.4239C73.5101 48.6384 74.574 48.1965 75.6839 48.1953C76.7937 48.1941 77.8586 48.6338 78.6443 49.4176C79.43 50.2014 79.8723 51.2652 79.8739 52.3751" fill="#370000"/>
<path d="M56.0116 52.3807C56.0116 53.4906 55.5709 54.555 54.7862 55.3399C54.0016 56.1249 52.9374 56.5661 51.8276 56.5665C50.7177 56.5669 49.6531 56.1265 48.8679 55.3422C48.0827 54.5578 47.6412 53.4937 47.6404 52.3839C47.6396 51.2741 48.0796 50.2093 48.8637 49.4239C49.6478 48.6384 50.7117 48.1965 51.8215 48.1953C52.9314 48.1941 53.9963 48.6338 54.782 49.4176C55.5677 50.2014 56.01 51.2652 56.0116 52.3751" fill="#370000"/>
</svg>
