<svg width="128" height="128" viewBox="0 0 128 128" fill="none" xmlns="http://www.w3.org/2000/svg">
<path opacity="0.6" d="M25.0048 48.887C24.9162 48.9761 24.8739 49.1013 24.8901 49.2259C24.9064 49.3505 24.9794 49.4606 25.0879 49.5241L32.5298 54.2514C32.7702 54.4058 33.0871 54.3628 33.2777 54.1498L38.4112 48.3792C38.6037 48.1706 38.6037 47.8492 38.4112 47.6405L32.4744 41.2882C32.3902 41.1896 32.267 41.1328 32.1374 41.1328C32.0077 41.1328 31.8846 41.1896 31.8004 41.2882L25.0048 48.887Z" fill="url(#paint0_linear_5027_119194)"/>
<path opacity="0.6" d="M103.126 48.887C103.213 48.9774 103.254 49.1035 103.236 49.2283C103.218 49.353 103.143 49.4623 103.033 49.5241L95.5914 54.2514C95.351 54.4058 95.0341 54.3628 94.8436 54.1498L89.7192 48.3792C89.5311 48.1689 89.5311 47.8508 89.7192 47.6405L95.6653 41.2882C95.7495 41.1896 95.8726 41.1328 96.0023 41.1328C96.132 41.1328 96.2551 41.1896 96.3393 41.2882L103.126 48.887Z" fill="url(#paint1_linear_5027_119194)"/>
<path d="M127.64 38.8496C127.123 38.1941 126.219 38.1479 125.064 38.9327L96.5527 58.2391C96.1983 58.4533 95.7941 58.5711 95.3801 58.5807C94.8496 58.5721 94.3526 58.3202 94.032 57.8974L66.4344 26.1541C65.8424 25.4662 64.9955 25.0494 64.0892 25C63.2154 25.0284 62.3997 25.4447 61.864 26.1357L34.4787 57.7589C34.085 58.179 33.5479 58.436 32.9738 58.4791C32.5933 58.4674 32.2245 58.3455 31.9119 58.1283L2.92934 38.8958C2.47359 38.5956 1.94976 38.4146 1.40589 38.3695C0.981574 38.3607 0.57791 38.5523 0.316383 38.8865C-0.0410642 39.5015 -0.0988424 40.2458 0.159421 40.9086L12.0054 82.6051C12.5013 84.4016 14.1305 85.6499 15.9941 85.6613H112.397C114.259 85.6554 115.875 84.3722 116.302 82.559L127.908 40.8439C128.093 40.1704 127.996 39.4506 127.64 38.8496Z" fill="url(#paint2_linear_5027_119194)"/>
<path d="M112.102 92.7667H15.9489C15.2449 92.7461 14.5635 93.0167 14.0655 93.5147C13.5675 94.0128 13.2969 94.6941 13.3175 95.3981V100.846C13.297 101.55 13.5673 102.233 14.065 102.732C14.5628 103.232 15.244 103.504 15.9489 103.486H112.102C112.807 103.504 113.488 103.232 113.986 102.732C114.484 102.233 114.754 101.55 114.734 100.846V95.3981C114.754 94.6941 114.484 94.0128 113.986 93.5147C113.488 93.0167 112.806 92.7461 112.102 92.7667Z" fill="url(#paint3_linear_5027_119194)"/>
<defs>
<linearGradient id="paint0_linear_5027_119194" x1="24.8756" y1="47.7421" x2="38.559" y2="47.7421" gradientUnits="userSpaceOnUse">
<stop stop-color="#F0735B"/>
<stop offset="1" stop-color="#ED0057"/>
</linearGradient>
<linearGradient id="paint1_linear_5027_119194" x1="103.246" y1="47.7421" x2="89.5715" y2="47.7421" gradientUnits="userSpaceOnUse">
<stop stop-color="#F0735B"/>
<stop offset="1" stop-color="#ED0057"/>
</linearGradient>
<linearGradient id="paint2_linear_5027_119194" x1="43.8503" y1="50.3351" x2="70.6313" y2="79.1591" gradientUnits="userSpaceOnUse">
<stop stop-color="#F0735B"/>
<stop offset="1" stop-color="#ED0057"/>
</linearGradient>
<linearGradient id="paint3_linear_5027_119194" x1="13.3175" y1="98.1219" x2="114.734" y2="98.1219" gradientUnits="userSpaceOnUse">
<stop stop-color="#F0735B"/>
<stop offset="1" stop-color="#ED0057"/>
</linearGradient>
</defs>
</svg>
