<svg width="129" height="130" viewBox="0 0 129 130" fill="none" xmlns="http://www.w3.org/2000/svg">
<path d="M65.1339 0.742188C48.089 0.742188 31.7422 7.51326 19.6896 19.5658C7.63701 31.6184 0.865936 47.9652 0.865936 65.0102C0.600419 78.4581 4.84237 91.6081 12.9162 102.366C12.9703 102.631 12.9703 102.904 12.9162 103.169C13.0395 103.561 13.0395 103.982 12.9162 104.374L3.27599 113.613C2.05717 114.852 1.21283 116.411 0.839987 118.109C0.467144 119.807 0.580933 121.575 1.16828 123.211C1.75562 124.848 2.79268 126.285 4.16028 127.358C5.52788 128.431 7.17053 129.097 8.89943 129.278C10.2364 129.362 11.5755 129.153 12.8239 128.668C14.0724 128.182 15.2003 127.431 16.1296 126.466L25.3681 117.63C25.6038 117.339 25.9334 117.141 26.3 117.067C26.6666 116.994 27.0473 117.051 27.3765 117.228C38.2422 125.091 51.3198 129.31 64.7322 129.278C81.7771 129.278 98.1239 122.507 110.177 110.454C122.229 98.4019 129 82.0551 129 65.0102C129 47.9652 122.229 31.6184 110.177 19.5658C98.1239 7.51326 81.7771 0.742188 64.7322 0.742188L65.1339 0.742188ZM65.1339 113.211C52.4464 112.905 40.3632 107.729 31.3893 98.7548C22.4153 89.7808 17.2388 77.6976 16.9329 65.0102C16.9329 55.4769 19.7599 46.1577 25.0563 38.2311C30.3526 30.3045 37.8806 24.1265 46.6882 20.4783C55.4958 16.83 65.1874 15.8755 74.5374 17.7353C83.8875 19.5952 92.4761 24.1859 99.2171 30.9269C105.958 37.6679 110.549 46.2565 112.409 55.6066C114.269 64.9567 113.314 74.6483 109.666 83.4559C106.018 92.2634 99.8395 99.7914 91.9129 105.088C83.9863 110.384 74.6671 113.211 65.1339 113.211Z" fill="#19B91C"/>
<path d="M92.0462 49.7526L65.134 31.2756C64.9131 31.078 64.6271 30.9688 64.3307 30.9688C64.0343 30.9688 63.7483 31.078 63.5273 31.2756L37.0168 49.351C36.8715 49.514 36.7609 49.7049 36.6918 49.9121C36.6228 50.1193 36.5967 50.3384 36.6151 50.556V85.9034C36.6151 86.436 36.8267 86.9469 37.2034 87.3235C37.58 87.7001 38.0908 87.9118 38.6235 87.9118H53.0838C53.6164 87.9118 54.1273 87.7001 54.5039 87.3235C54.8806 86.9469 55.0922 86.436 55.0922 85.9034V65.8196C55.1861 65.3592 55.4385 64.9462 55.8054 64.6526C56.1724 64.3591 56.6307 64.2035 57.1005 64.2129H71.5608C72.0307 64.2035 72.489 64.3591 72.8559 64.6526C73.2229 64.9462 73.4753 65.3592 73.5692 65.8196V85.9034C73.5692 86.436 73.7808 86.9469 74.1574 87.3235C74.5341 87.7001 75.0449 87.9118 75.5776 87.9118H90.4395C90.9722 87.9118 91.483 87.7001 91.8597 87.3235C92.2363 86.9469 92.4479 86.436 92.4479 85.9034V50.556C92.6043 50.1695 92.6043 49.7374 92.4479 49.351L92.0462 49.7526Z" fill="#19B91C"/>
</svg>
