<svg width="128" height="128" viewBox="0 0 128 128" fill="none" xmlns="http://www.w3.org/2000/svg">
<path d="M30.9616 105.687C31.2412 105.944 32.3452 105.576 32.6442 105.79C32.9081 105.98 32.6401 107.014 32.5246 107.035C7.85007 111.405 18.3052 84.8784 10.4065 66.9361C9.48105 67.3575 8.47343 67.5676 7.45671 67.5513C3.33899 67.5509 0.00146484 64.219 0.00146484 59.3992C0.00146484 59.0423 0.00295982 58.8397 0.00295982 58.8397C0.0384654 58.5865 0.159932 58.5433 0.220478 58.2996C0.479874 57.2639 0.958129 56.2958 1.62305 55.4604C2.28798 54.625 3.12414 53.9418 4.07527 53.4567C7.96313 51.5835 12.2649 53.1975 16.0001 58.7773C22.7561 68.8689 22.057 97.5233 30.9616 105.687V105.687ZM127.891 57.2091C127.902 57.2745 128 57.1418 128 57.4959C128 61.6332 125.781 65.5146 120.934 65.5146C120.156 65.5129 119.386 65.3684 118.66 65.0881C111.414 84.6448 124.44 114.093 94.8134 106.395C62.997 98.1265 46.1375 104.677 46.1375 104.677C46.1375 104.677 45.7742 103.892 46.1375 103.555C46.4963 103.223 47.796 102.998 48.2902 102.672C52.9938 99.5747 63.6898 96.9445 77.368 97.322C95.0653 97.9574 105.256 105.82 107.949 88.5727C108.067 87.9485 108.174 87.3084 108.268 86.6522C104.686 92.234 97.4683 94.213 94.4332 88.8464C93.695 87.5428 93.1228 85.8617 92.7257 83.9536C90.8757 87.896 87.7119 92.349 82.9224 92.0817C79.8831 91.913 78.8884 89.7903 78.9994 85.2348C79.0768 82.0561 79.2315 76.0108 79.3507 72.9508C79.6867 64.3651 74.6233 66.7679 73.847 72.7661C73.5364 75.1693 73.2957 88.1042 73.8444 92.2109C65.8038 93.4827 64.1508 91.0454 64.0598 86.0105C59.5203 98.1272 51.9262 97.7283 49.757 89.6619C48.4612 95.0663 44.9824 100.363 41.55 100.363C36.0081 100.363 30.5387 91.6775 21.5111 68.609C21.4115 68.0953 21.4115 67.5672 21.5111 67.0535C21.5298 66.9581 22.0058 68.0674 22.1011 68.0463C44.8789 62.997 66.9727 50.5121 67.6081 39.2428C66.6035 39.8194 65.4981 40.1989 64.3513 40.3611C59.3603 41.0624 54.7283 37.4833 54.0463 32.49C53.9322 31.6501 53.9024 30.8008 53.9573 29.9549C53.9741 29.7673 54.0601 29.8372 54.0601 29.8372C54.3572 27.9079 55.265 26.1247 56.6503 24.7494C58.0356 23.3741 59.8254 22.4792 61.7568 22.196C66.6401 21.5364 71.3227 25.5218 72.8252 32.0681C73.0416 33.0549 73.1809 34.0571 73.2419 35.0655C73.2419 46.85 64.1693 62.0647 34.7538 73.7222C40.1443 83.3132 43.887 90.4201 46.9334 89.1966C48.6894 88.4908 49.1313 85.1415 48.6784 72.338L57.7497 67.1714C56.862 81.981 59.5777 87.1001 62.0543 85.3379C64.0388 83.9261 65.1993 79.5266 65.1556 72.6007C65.0476 67.0428 64.6417 63.9841 64.6417 63.9841C70.4493 58.257 73.2481 58.7629 73.2845 65.9814C77.7302 50.8149 88.7175 54.2275 88.0474 68.0127C87.3787 81.7903 88.1152 84.435 89.2972 84.435C90.9005 84.435 93.1168 81.5478 92.9528 78.5287C92.6586 70.8684 93.7354 61.9812 98.3178 58.076C104.727 52.6156 110.072 57.6919 112.068 60.712C112.151 60.493 112.242 60.2797 112.33 60.0645C116.681 50.2668 122.271 50.5097 125.572 53.1274C126.788 54.1835 127.606 55.6236 127.891 57.2087L127.891 57.2091ZM110.652 65.9397C110.138 64.2298 106.94 60.726 103.828 63.7832C100.285 67.2646 99.8986 77.9215 101.298 81.2393C102.61 84.3512 107.502 83.8642 108.941 80.0969C109.316 75.347 109.628 70.6322 110.652 65.9399V65.9397Z" fill="#EB8D00"/>
<path d="M32.6444 105.787C32.6618 105.842 32.6403 105.889 32.5248 105.91C7.85025 110.279 17.8488 83.8851 10.6287 65.7106C8.85894 66.5458 6.83163 66.6511 4.98489 66.0037C3.13816 65.3563 1.62035 64.0082 0.759493 62.2508C-0.101361 60.4934 -0.236107 58.4679 0.384378 56.6119C1.00486 54.756 2.33074 53.2187 4.07545 52.3324C7.96331 50.4588 12.2651 52.0727 16.0003 57.6527C23.155 68.3413 21.9488 99.8498 32.6444 105.787V105.787ZM128 57.3249C128.003 58.4597 127.731 59.5785 127.209 60.586C126.687 61.5935 125.929 62.46 125 63.1118C124.071 63.7636 122.998 64.1814 121.873 64.3298C120.748 64.4782 119.603 64.3527 118.537 63.9641C111.855 83.1595 124.44 112.969 94.8138 105.27C62.9976 97.002 46.1378 103.552 46.1378 103.552C48.6008 99.6979 60.7955 95.7401 77.3684 96.1977C95.0657 96.832 105.257 104.696 107.949 87.4484C108.068 86.8243 108.174 86.1838 108.269 85.527C104.686 91.11 97.4687 93.0882 94.4335 87.7222C93.6954 86.4178 93.1232 84.7375 92.7261 82.8286C90.876 86.7716 87.7123 91.2247 82.9228 90.9567C79.8835 90.7882 78.889 88.6661 78.9998 84.1098C79.0771 80.932 79.2319 74.8865 79.3511 71.8267C79.6871 63.2409 74.6236 65.6437 73.8474 71.6417C73.5368 74.0441 73.5629 87.1782 73.7109 91.0857C65.6706 92.3575 64.3162 90.1005 64.1399 84.5272C59.6005 96.6432 51.9269 96.6029 49.7575 88.5375C48.4618 93.9418 44.983 99.2374 41.5505 99.2374C36.0086 99.2374 30.5393 90.1194 21.5117 67.0502C44.4964 62.0903 66.9677 49.3797 67.6088 38.0132C66.4444 38.6793 65.1473 39.0803 63.8101 39.1877C62.4728 39.2951 61.1284 39.1062 59.8725 38.6345C58.6167 38.1628 57.4803 37.4198 56.5445 36.4586C55.6087 35.4974 54.8964 34.3416 54.4584 33.0736C54.0205 31.8056 53.8676 30.4565 54.0107 29.1227C54.1538 27.7888 54.5894 26.5029 55.2865 25.3567C55.9835 24.2104 56.9248 23.2321 58.0432 22.4913C59.1617 21.7505 60.4298 21.2656 61.7571 21.071C66.6405 20.4114 71.3231 24.3968 72.8255 30.9438C73.102 32.2993 73.2416 33.6791 73.2423 35.0625C73.2426 35.4898 73.2299 35.9171 73.204 36.3444C72.4148 45.9448 64.1698 60.9397 34.754 72.5979C40.1445 82.1882 43.8872 89.2949 46.9337 88.0724C48.6896 87.3666 48.7172 83.9883 48.2642 71.1848C51.4659 68.9944 54.8818 67.1351 58.4594 65.6354C58.4594 80.6663 59.5778 85.9753 62.0545 84.2138C64.039 82.802 64.1463 78.4025 64.1026 71.4767C63.9947 65.918 63.7539 62.7834 63.7539 62.7834C69.5611 57.0563 73.5179 57.1505 73.5549 64.3692C78.0006 49.2027 89.1206 53.1035 88.4504 66.8888C87.7814 80.6663 88.1154 83.3101 89.2974 83.3101C90.9007 83.3101 92.2559 80.423 92.0916 77.4046H92.0935C91.7994 69.7444 93.7354 60.8566 98.3182 56.9511C104.727 51.4911 110.072 56.5681 112.068 59.5879C112.151 59.3689 112.242 59.1549 112.33 58.9395C116.681 49.1418 122.271 49.3851 125.572 52.0028C126.334 52.6642 126.945 53.4817 127.364 54.3999C127.783 55.3181 128 56.3156 128 57.3249H128ZM110.653 64.4652C110.138 62.7554 106.94 59.601 103.829 62.6582C100.286 66.1396 99.899 76.7973 101.298 80.115C102.611 83.2264 107.502 82.7392 108.942 78.9727C109.316 74.2228 109.629 69.1576 110.653 64.4654V64.4652Z" fill="url(#paint0_linear_5027_121809)"/>
<path d="M92.4585 77.1351C92.2323 69.9676 94.0207 61.106 98.5606 57.237C100.374 55.6925 102.23 54.9086 104.077 54.9086C107.358 54.9086 110.196 57.4328 111.757 59.7949L112.16 60.4052L112.676 59.0827C115.705 52.2638 119.089 50.831 121.394 50.831C123.127 50.831 124.496 51.6282 125.339 52.2968C126.517 53.3214 127.299 54.726 127.549 56.2668C127.799 57.8075 127.501 59.3872 126.708 60.7317C125.915 62.0761 124.677 63.1005 123.207 63.627C121.738 64.1534 120.13 64.1488 118.664 63.6138L118.308 63.4849L118.184 63.8418C117.298 66.3873 116.676 69.3306 116.285 72.8314C114.138 73.3715 111.92 73.8816 109.683 74.3513C109.953 71.1576 110.311 67.782 111.017 64.5461L111.038 64.4514L111.01 64.3587C110.598 62.9878 108.79 61.0043 106.599 61.0043C105.525 61.0043 104.505 61.4715 103.567 62.3928C100.711 65.1996 99.9989 71.9774 100.207 76.0796C97.6823 76.4743 95.0791 76.8284 92.4583 77.1349L92.4585 77.1351ZM35.3792 74.4774L34.2184 72.4093L34.6161 72.2516C67.513 59.2139 72.3002 42.7763 72.8309 36.3229C72.9391 34.5495 72.8149 32.7696 72.4613 31.0284C71.136 25.2541 67.2577 21.375 62.8103 21.375C62.4761 21.3751 62.1423 21.3976 61.8111 21.4423C59.625 21.7627 57.6411 22.8984 56.2577 24.6212C54.8744 26.344 54.1941 28.5265 54.3534 30.7302C54.5128 32.9339 55.5 34.9958 57.1169 36.5016C58.7337 38.0075 60.8604 38.8459 63.0699 38.8484C63.4811 38.8482 63.8919 38.8194 64.2991 38.7625C65.3993 38.607 66.4596 38.2426 67.4229 37.6889L68.0201 37.348L67.9814 38.035C67.3025 50.0663 43.6814 62.5507 22.0189 67.3234C23.0569 69.968 24.0492 72.4306 24.9733 74.6529C28.7488 75.4106 32.6476 76.0682 36.5762 76.6085C36.1866 75.9173 35.7876 75.2069 35.3791 74.4772L35.3792 74.4774ZM15.6893 57.8617C13.1054 54.0019 10.1772 51.9616 7.22086 51.9616C6.18839 51.9688 5.17098 52.2099 4.24511 52.6669C2.58318 53.5059 1.3189 54.9661 0.726348 56.731C0.1338 58.4959 0.260736 60.4232 1.07964 62.0951C1.89854 63.7671 3.34342 65.0489 5.10104 65.6627C6.85865 66.2765 8.78737 66.1728 10.4691 65.3741L10.8288 65.2046L10.9759 65.5741C11.7556 67.5742 12.3628 69.6373 12.7909 71.7408C15.3941 72.4708 18.0766 73.1499 20.776 73.7609C19.5602 67.583 18.0897 61.448 15.6893 57.8619V57.8617ZM58.086 66.1965C54.7852 67.6269 51.6247 69.3613 48.6453 71.3772C48.7238 73.6071 48.8013 75.9227 48.8452 77.927C52.0669 78.1797 55.3304 78.3643 58.5581 78.4768C58.251 75.5424 58.0965 71.5136 58.086 66.1965ZM73.2475 78.5185C73.2718 75.9023 73.3312 72.7143 73.4766 71.5949C73.8926 68.38 75.5759 65.8607 77.3088 65.8607C77.5473 65.8634 77.7827 65.9153 78.0003 66.0132C78.2178 66.111 78.4129 66.2527 78.5731 66.4294C79.429 67.32 79.8274 69.1914 79.7233 71.8421C79.6691 73.2362 79.6022 75.3919 79.5241 78.2528C82.2332 78.0995 84.992 77.8914 87.736 77.6324C87.731 75.184 87.8397 71.7478 88.0761 66.8717C88.291 62.4563 87.2696 58.7234 85.2746 56.6283C84.2686 55.5725 83.0803 55.0151 81.8372 55.0151C78.6115 55.0151 75.6492 58.5518 73.9126 64.4755C73.9126 64.4755 73.7066 64.8206 73.4654 64.7754C73.2243 64.7292 73.1808 64.3725 73.1808 64.3725C73.1683 61.9566 72.6887 59.0762 70.473 59.0762C68.9104 59.0762 66.7219 60.4082 64.1386 62.931C64.1896 63.6654 64.383 66.6908 64.4761 71.4759C64.4918 73.957 64.4933 76.5405 64.3408 78.6046C65.0883 78.6121 65.8375 78.616 66.5885 78.6164C68.7543 78.6164 70.9931 78.5835 73.2467 78.5187L73.2475 78.5185Z" fill="url(#paint1_linear_5027_121809)"/>
<defs>
<linearGradient id="paint0_linear_5027_121809" x1="64.0009" y1="79.4598" x2="64.0009" y2="100.924" gradientUnits="userSpaceOnUse">
<stop stop-color="#FFC400"/>
<stop offset="1" stop-color="#FFA400"/>
</linearGradient>
<linearGradient id="paint1_linear_5027_121809" x1="64.0007" y1="38.3428" x2="64.0007" y2="72.9505" gradientUnits="userSpaceOnUse">
<stop stop-color="#FFD400" stop-opacity="0"/>
<stop offset="1" stop-color="#FFD400"/>
</linearGradient>
</defs>
</svg>
