<svg width="128" height="128" viewBox="0 0 128 128" fill="none" xmlns="http://www.w3.org/2000/svg">
<path d="M0 24C0 10.7452 10.7452 0 24 0H104C117.255 0 128 10.7452 128 24V104C128 117.255 117.255 128 104 128H24C10.7452 128 0 117.255 0 104V24Z" fill="#DA2128"/>
<path fill-rule="evenodd" clip-rule="evenodd" d="M10 118H118V10H10V118Z" fill="#DA2128"/>
<path fill-rule="evenodd" clip-rule="evenodd" d="M112.759 28.285C112.524 31.0978 110.882 38.4026 109.212 44.1386C108.646 46.0818 107.544 47.057 105.563 47.057C103.372 47.057 101.912 45.6978 101.996 43.1978C102.065 41.2186 102.329 39.2426 102.329 35.793C102.329 32.7738 98.6796 28.8074 92.2132 28.8074C86.2683 28.8074 82.0955 31.9354 82.0955 37.2538C82.0955 41.8434 84.0667 44.2378 86.7891 47.3722C90.9627 52.1706 93.0491 54.4626 98.0532 59.9906C102.762 65.1906 107.336 72.1914 107.336 82.9338C107.336 96.2842 95.9676 107.652 77.6108 107.652C67.7036 107.652 60.7147 104.107 57.2731 102.439C55.7611 101.706 54.9052 100.647 55.1884 98.3706C55.3964 96.701 57.482 88.0434 59.5684 81.4738C60.4764 78.6138 61.5492 77.0938 64.158 77.0938C66.034 77.0938 67.1819 78.2426 67.1819 80.8474C67.1819 82.429 66.9252 84.5322 66.7628 87.6282C66.6028 90.7626 66.0347 98.5778 78.6548 98.5778C84.3899 98.5778 88.354 94.8242 88.354 89.9218C88.354 86.1682 87.6916 82.3578 83.1404 77.5122C80.0347 74.2173 76.9746 70.8796 73.9611 67.5002C66.9747 59.6762 64.1587 54.0458 64.1587 45.0778C64.1587 29.1186 76.7788 20.3594 92.7364 20.3594C101.08 20.3594 105.875 22.2362 109.213 23.5914C111.893 24.6794 112.968 25.7818 112.76 28.285M59.1244 23.7898C59.1244 25.7722 58.19 26.721 56.3084 27.4418C54.6444 28.0778 53.7036 28.6922 53.0772 31.6138C50.994 41.3058 48.1732 58.4194 43.7948 91.5818C43.6972 92.3138 43.586 93.4586 43.586 94.085C43.586 97.5274 43.5996 98.2226 45.6716 99.1946C47.1492 99.8906 47.6524 100.864 47.6524 102.43C47.6524 104.723 45.7756 105.661 43.0636 105.661C40.0396 105.661 35.1036 105.11 30.4444 105.115C26.3708 105.121 23.0388 105.661 20.0148 105.661C16.1548 105.661 15.2188 104.514 15.2188 102.324C15.2188 100.656 16.0628 99.7426 17.4084 99.0906C19.5052 98.0746 20.9715 97.637 21.8908 92.9386C25.8532 72.7106 30.3595 36.933 30.6531 33.6986C31.0875 28.9114 30.5468 28.2786 28.9844 27.4418C27.6244 26.7146 26.794 25.6674 26.794 23.9994C26.794 21.8098 28.3579 20.4538 32.9475 20.4538C35.4508 20.4538 38.6836 20.9754 43.3764 20.9754C48.0692 20.9754 50.4684 20.4538 52.7628 20.4538C58.2908 20.4538 59.1244 21.6018 59.1244 23.7898Z" fill="white"/>
</svg>
