<svg width="128" height="128" viewBox="0 0 128 128" fill="none" xmlns="http://www.w3.org/2000/svg">
<path d="M64 128C99.3462 128 128 99.3462 128 64C128 28.6538 99.3462 0 64 0C28.6538 0 0 28.6538 0 64C0 99.3462 28.6538 128 64 128Z" fill="url(#paint0_radial_5027_114257)"/>
<path fill-rule="evenodd" clip-rule="evenodd" d="M56.505 21.3281C52.6216 21.3281 48.8518 21.7906 45.2422 22.6779L52.1817 38.1387C53.5946 37.9422 55.0425 37.8323 56.505 37.8323C73.3089 37.8323 86.9314 51.3507 86.9314 68.0197C86.9314 77.3383 82.678 85.6656 75.9949 91.2065L82.9257 106.661C95.3858 98.262 103.566 84.0961 103.566 68.0197C103.566 42.2344 82.4945 21.3281 56.505 21.3281Z" fill="white"/>
<path fill-rule="evenodd" clip-rule="evenodd" d="M49.2921 71.5332L37.4156 45.2109C30.715 50.7377 26.4534 59.0438 26.4534 68.3272C26.4534 84.9595 40.1146 98.4464 56.9654 98.4464C58.4288 98.4464 59.8834 98.3426 61.2913 98.1466L49.4586 71.8993C49.3973 71.7725 49.3447 71.6543 49.2921 71.5332Z" fill="white"/>
<defs>
<radialGradient id="paint0_radial_5027_114257" cx="0" cy="0" r="1" gradientUnits="userSpaceOnUse" gradientTransform="translate(64 64) scale(67.3919)">
<stop stop-color="#193872"/>
<stop offset="0.0068906" stop-color="#0D4888"/>
<stop offset="1" stop-color="#1F3066"/>
</radialGradient>
</defs>
</svg>
