<svg width="128" height="128" viewBox="0 0 128 128" fill="none" xmlns="http://www.w3.org/2000/svg">
<path d="M22.4001 57.7969H22.3934C19.2143 57.7969 16.6372 60.374 16.6372 63.5531V75.0722C16.6372 78.2512 19.2143 80.8284 22.3934 80.8284H22.4001C25.5792 80.8284 28.1563 78.2512 28.1563 75.0722V63.5531C28.1563 60.374 25.5792 57.7969 22.4001 57.7969Z" fill="#6CCEF5"/>
<path d="M5.76303 69.3093C8.9421 69.3093 11.5192 66.7321 11.5192 63.5531C11.5192 60.374 8.9421 57.7969 5.76303 57.7969C2.58397 57.7969 0.00683594 60.374 0.00683594 63.5531C0.00683594 66.7321 2.58397 69.3093 5.76303 69.3093Z" fill="#6CCEF5"/>
<path d="M39.0306 57.7969C37.5051 57.8004 36.043 58.408 34.9643 59.4867C33.8856 60.5655 33.278 62.0275 33.2744 63.5531V92.3475C33.2744 93.8741 33.8809 95.3383 34.9604 96.4178C36.0399 97.4972 37.504 98.1037 39.0306 98.1037C40.5573 98.1037 42.0214 97.4972 43.1009 96.4178C44.1804 95.3383 44.7868 93.8741 44.7868 92.3475V63.5531C44.7833 62.0275 44.1757 60.5655 43.0969 59.4867C42.0182 58.408 40.5562 57.8004 39.0306 57.7969Z" fill="#6CCEF5"/>
<path d="M55.6677 57.7969C54.1415 57.8004 52.6788 58.4078 51.599 59.4863C50.5192 60.5649 49.9101 62.0269 49.9048 63.5531V75.0722C49.9558 76.5657 50.5849 77.981 51.6595 79.0194C52.7341 80.0579 54.17 80.6384 55.6643 80.6384C57.1587 80.6384 58.5946 80.0579 59.6692 79.0194C60.7437 77.981 61.3729 76.5657 61.4239 75.0722V63.5531C61.4186 62.0281 60.8104 60.567 59.7321 59.4887C58.6537 58.4103 57.1927 57.8022 55.6677 57.7969Z" fill="#6CCEF5"/>
<path d="M22.4001 57.7969H22.3934C19.2143 57.7969 16.6372 60.374 16.6372 63.5531V75.0722C16.6372 78.2512 19.2143 80.8284 22.3934 80.8284H22.4001C25.5792 80.8284 28.1563 78.2512 28.1563 75.0722V63.5531C28.1563 60.374 25.5792 57.7969 22.4001 57.7969Z" fill="url(#paint0_linear_5027_117224)"/>
<path d="M5.7562 69.3093C8.93526 69.3093 11.5124 66.7321 11.5124 63.5531C11.5124 60.374 8.93526 57.7969 5.7562 57.7969C2.57714 57.7969 0 60.374 0 63.5531C0 66.7321 2.57714 69.3093 5.7562 69.3093Z" fill="url(#paint1_linear_5027_117224)"/>
<path d="M39.0305 57.7969C37.5043 57.8004 36.0416 58.4078 34.9618 59.4863C33.882 60.5649 33.2729 62.0269 33.2676 63.5531V92.3475C33.3186 93.841 33.9477 95.2563 35.0223 96.2948C36.0968 97.3332 37.5328 97.9137 39.0271 97.9137C40.5215 97.9137 41.9574 97.3332 43.032 96.2948C44.1065 95.2563 44.7357 93.841 44.7867 92.3475V63.5531C44.7814 62.0281 44.1732 60.567 43.0949 59.4887C42.0165 58.4103 40.5555 57.8022 39.0305 57.7969Z" fill="url(#paint2_linear_5027_117224)"/>
<path d="M55.661 57.7969C54.136 57.8022 52.675 58.4103 51.5966 59.4887C50.5183 60.567 49.9101 62.0281 49.9048 63.5531V75.0722C49.9558 76.5657 50.5849 77.981 51.6595 79.0194C52.7341 80.0579 54.17 80.6384 55.6643 80.6384C57.1587 80.6384 58.5946 80.0579 59.6692 79.0194C60.7437 77.981 61.3729 76.5657 61.4239 75.0722V63.5531C61.4186 62.0269 60.8095 60.5649 59.7297 59.4863C58.6499 58.4078 57.1872 57.8004 55.661 57.7969Z" fill="url(#paint3_linear_5027_117224)"/>
<path d="M72.2987 46.2734C70.7737 46.2787 69.3126 46.8869 68.2343 47.9653C67.156 49.0436 66.5478 50.5046 66.5425 52.0296V63.5488C66.5935 65.0422 67.2226 66.4575 68.2972 67.496C69.3718 68.5345 70.8077 69.115 72.302 69.115C73.7964 69.115 75.2323 68.5345 76.3069 67.496C77.3814 66.4575 78.0106 65.0422 78.0616 63.5488V52.0296C78.0563 50.5035 77.4472 49.0414 76.3674 47.9629C75.2876 46.8844 73.8248 46.277 72.2987 46.2734Z" fill="#64C3A4"/>
<path d="M88.9424 29H88.9356C85.7566 29 83.1794 31.5771 83.1794 34.7562V63.5506C83.1794 66.7297 85.7566 69.3068 88.9356 69.3068H88.9424C92.1214 69.3068 94.6986 66.7297 94.6986 63.5506V34.7562C94.6986 31.5771 92.1214 29 88.9424 29Z" fill="#64C3A4"/>
<path d="M105.573 46.2734C104.048 46.277 102.585 46.8846 101.507 47.9633C100.428 49.042 99.8204 50.5041 99.8169 52.0296V63.5488C99.8169 65.0754 100.423 66.5395 101.503 67.619C102.582 68.6985 104.046 69.305 105.573 69.305C107.1 69.305 108.564 68.6985 109.643 67.619C110.723 66.5395 111.329 65.0754 111.329 63.5488V52.0296C111.324 50.5046 110.716 49.0436 109.637 47.9653C108.559 46.8869 107.098 46.2787 105.573 46.2734Z" fill="#64C3A4"/>
<path d="M122.244 57.7969C121.106 57.7969 119.993 58.1345 119.046 58.767C118.099 59.3995 117.362 60.2985 116.926 61.3503C116.49 62.4021 116.376 63.5595 116.598 64.6761C116.821 65.7926 117.369 66.8183 118.174 67.6233C118.979 68.4283 120.004 68.9766 121.121 69.1987C122.238 69.4208 123.395 69.3068 124.447 68.8711C125.499 68.4354 126.398 67.6976 127.03 66.751C127.663 65.8044 128 64.6915 128 63.5531C127.995 62.0281 127.387 60.567 126.308 59.4887C125.23 58.4103 123.769 57.8022 122.244 57.7969Z" fill="#64C3A4"/>
<path d="M72.2987 46.2734C70.7737 46.2787 69.3126 46.8869 68.2343 47.9653C67.156 49.0436 66.5478 50.5046 66.5425 52.0296V63.5488C66.5935 65.0422 67.2226 66.4575 68.2972 67.496C69.3718 68.5345 70.8077 69.115 72.302 69.115C73.7964 69.115 75.2323 68.5345 76.3069 67.496C77.3814 66.4575 78.0106 65.0422 78.0616 63.5488V52.0296C78.0563 50.5035 77.4472 49.0414 76.3674 47.9629C75.2876 46.8844 73.8248 46.277 72.2987 46.2734Z" fill="url(#paint4_linear_5027_117224)"/>
<path d="M88.9424 29H88.9356C85.7566 29 83.1794 31.5771 83.1794 34.7562V63.5506C83.1794 66.7297 85.7566 69.3068 88.9356 69.3068H88.9424C92.1214 69.3068 94.6986 66.7297 94.6986 63.5506V34.7562C94.6986 31.5771 92.1214 29 88.9424 29Z" fill="url(#paint5_linear_5027_117224)"/>
<path d="M105.573 46.2734C104.047 46.277 102.584 46.8844 101.504 47.9629C100.424 49.0414 99.8154 50.5035 99.8101 52.0296V63.5488C99.8611 65.0422 100.49 66.4575 101.565 67.496C102.639 68.5345 104.075 69.115 105.57 69.115C107.064 69.115 108.5 68.5345 109.574 67.496C110.649 66.4575 111.278 65.0422 111.329 63.5488V52.0296C111.324 50.5046 110.716 49.0436 109.637 47.9653C108.559 46.8869 107.098 46.2787 105.573 46.2734Z" fill="url(#paint6_linear_5027_117224)"/>
<path d="M122.204 57.7969C121.065 57.7982 119.953 58.1369 119.007 58.7702C118.062 59.4035 117.325 60.303 116.89 61.3549C116.456 62.4068 116.343 63.564 116.566 64.6802C116.788 65.7963 117.337 66.8213 118.142 67.6257C118.948 68.43 119.973 68.9776 121.09 69.1992C122.206 69.4207 123.363 69.3063 124.415 68.8705C125.466 68.4346 126.365 67.6968 126.997 66.7503C127.629 65.8039 127.967 64.6913 127.967 63.5531C127.961 62.0269 127.352 60.5649 126.272 59.4863C125.192 58.4078 123.73 57.8004 122.204 57.7969Z" fill="url(#paint7_linear_5027_117224)"/>
<defs>
<linearGradient id="paint0_linear_5027_117224" x1="22.3934" y1="80.8284" x2="22.3934" y2="57.7969" gradientUnits="userSpaceOnUse">
<stop stop-color="#5061AC"/>
<stop offset="0.75" stop-color="#6CCEF5" stop-opacity="0"/>
</linearGradient>
<linearGradient id="paint1_linear_5027_117224" x1="5.7562" y1="69.3093" x2="5.7562" y2="57.7969" gradientUnits="userSpaceOnUse">
<stop stop-color="#5061AC"/>
<stop offset="0.75" stop-color="#6CCEF5" stop-opacity="0"/>
</linearGradient>
<linearGradient id="paint2_linear_5027_117224" x1="39.0305" y1="98.1037" x2="39.0305" y2="57.7969" gradientUnits="userSpaceOnUse">
<stop stop-color="#5061AC"/>
<stop offset="0.75" stop-color="#6CCEF5" stop-opacity="0"/>
</linearGradient>
<linearGradient id="paint3_linear_5027_117224" x1="55.661" y1="80.8284" x2="55.661" y2="57.7969" gradientUnits="userSpaceOnUse">
<stop stop-color="#5061AC"/>
<stop offset="0.75" stop-color="#6CCEF5" stop-opacity="0"/>
</linearGradient>
<linearGradient id="paint4_linear_5027_117224" x1="72.2987" y1="69.305" x2="72.2987" y2="46.2734" gradientUnits="userSpaceOnUse">
<stop stop-color="#40B981"/>
<stop offset="1" stop-color="#77C7A0" stop-opacity="0"/>
</linearGradient>
<linearGradient id="paint5_linear_5027_117224" x1="88.9356" y1="69.3068" x2="88.9356" y2="29" gradientUnits="userSpaceOnUse">
<stop stop-color="#40B981"/>
<stop offset="1" stop-color="#77C7A0" stop-opacity="0"/>
</linearGradient>
<linearGradient id="paint6_linear_5027_117224" x1="105.573" y1="69.305" x2="105.573" y2="46.2734" gradientUnits="userSpaceOnUse">
<stop stop-color="#40B981"/>
<stop offset="1" stop-color="#77C7A0" stop-opacity="0"/>
</linearGradient>
<linearGradient id="paint7_linear_5027_117224" x1="122.204" y1="69.3093" x2="122.204" y2="57.7969" gradientUnits="userSpaceOnUse">
<stop stop-color="#40B981"/>
<stop offset="1" stop-color="#77C7A0" stop-opacity="0"/>
</linearGradient>
</defs>
</svg>
