<svg width="128" height="128" viewBox="0 0 128 128" fill="none" xmlns="http://www.w3.org/2000/svg">
<path d="M65.4865 72.4418C85.2147 72.4418 101.207 56.449 101.207 36.7209C101.207 16.9928 85.2147 1 65.4865 1C45.7584 1 29.7656 16.9928 29.7656 36.7209C29.7656 56.449 45.7584 72.4418 65.4865 72.4418Z" fill="#036C70"/>
<path d="M95.2559 102.207C113.34 102.207 128 87.5471 128 69.4629C128 51.3788 113.34 36.7188 95.2559 36.7188C77.1718 36.7188 62.5117 51.3788 62.5117 69.4629C62.5117 87.5471 77.1718 102.207 95.2559 102.207Z" fill="#1A9BA1"/>
<path d="M69.9546 126.026C83.9287 126.026 95.2569 114.698 95.2569 100.724C95.2569 86.7501 83.9287 75.4219 69.9546 75.4219C55.9806 75.4219 44.6523 86.7501 44.6523 100.724C44.6523 114.698 55.9806 126.026 69.9546 126.026Z" fill="#37C6D0"/>
<path opacity="0.1" d="M71.4414 33.2365V96.7602C71.4266 98.9675 70.089 100.95 68.0479 101.791C67.398 102.066 66.6996 102.207 65.9939 102.208H44.6804C44.6507 101.702 44.6507 101.225 44.6507 100.719C44.6408 100.222 44.6607 99.7253 44.7103 99.2308C45.2551 89.7156 51.117 81.3201 59.8619 77.5304V71.9936C40.3997 68.9095 27.1225 50.6321 30.2067 31.1698C30.2281 31.035 30.2502 30.9003 30.2731 30.7658C30.4212 29.7619 30.63 28.7678 30.8982 27.7891H65.994C68.9977 27.8005 71.43 30.2327 71.4414 33.2365Z" fill="black"/>
<path opacity="0.2" d="M63.0179 30.7656H30.2737C26.9659 50.1928 40.0332 68.6231 59.4603 71.9309C60.0485 72.0311 60.6392 72.1164 61.2318 72.187C52.0039 76.5628 45.2794 88.9907 44.7079 99.2307C44.6584 99.7252 44.6384 100.222 44.6483 100.719C44.6483 101.225 44.6483 101.701 44.6781 102.207C44.7318 103.208 44.8612 104.203 45.065 105.184H63.0148C65.2221 105.169 67.2051 103.832 68.0455 101.791C68.3204 101.141 68.4621 100.442 68.4622 99.7367V36.2131C68.4509 33.2105 66.0205 30.7787 63.0179 30.7656Z" fill="black"/>
<path opacity="0.2" d="M63.0176 30.7656H30.2734C26.9663 50.1946 40.0356 68.6258 59.4646 71.9329C59.862 72.0005 60.2606 72.0614 60.66 72.1156C51.7298 76.8069 45.2703 89.2051 44.7106 99.2307H63.0176C66.0167 99.2081 68.4424 96.7824 68.4651 93.7833V36.2131C68.4536 33.2093 66.0214 30.7771 63.0176 30.7656Z" fill="black"/>
<path opacity="0.2" d="M60.0398 30.7656H30.2724C27.1497 49.1068 38.6424 66.7695 56.6762 71.3446C49.8477 79.1463 45.6595 88.9064 44.7097 99.2307H60.0399C63.0437 99.2193 65.4759 96.7871 65.4874 93.7833V36.2131C65.4857 33.2052 63.0477 30.7673 60.0398 30.7656Z" fill="black"/>
<path d="M5.45637 30.7656H60.032C63.0454 30.7656 65.4883 33.2085 65.4883 36.222V90.7976C65.4883 93.8111 63.0454 96.254 60.032 96.254H5.45637C2.4429 96.254 0 93.8111 0 90.7976V36.222C0 33.2085 2.4429 30.7656 5.45637 30.7656Z" fill="url(#paint0_linear_5027_122247)"/>
<path d="M24.3697 62.8443C23.091 61.9961 22.0229 60.8669 21.2471 59.543C20.4953 58.159 20.1206 56.6018 20.1605 55.0273C20.0936 52.8955 20.813 50.8136 22.1817 49.178C23.6201 47.5403 25.4792 46.3276 27.5577 45.6714C29.9265 44.8917 32.4077 44.5075 34.9013 44.5343C38.1806 44.4144 41.4554 44.873 44.5757 45.8887V52.7352C43.2199 51.9139 41.7432 51.3112 40.1999 50.9492C38.5253 50.5385 36.8071 50.3326 35.0829 50.336C33.2647 50.2692 31.4582 50.6516 29.823 51.4493C28.5605 51.9938 27.7419 53.2358 27.7393 54.6106C27.7341 55.4446 28.0545 56.2476 28.6323 56.8491C29.3147 57.5582 30.122 58.1354 31.0137 58.5518C32.0059 59.046 33.4943 59.7029 35.4788 60.5225C35.6973 60.5915 35.9103 60.6771 36.1158 60.7785C38.069 61.5418 39.9532 62.471 41.7479 63.5558C43.1069 64.3937 44.2475 65.5425 45.0759 66.9076C45.9251 68.4549 46.3367 70.2044 46.2666 71.9681C46.3635 74.1567 45.6939 76.3105 44.3733 78.0585C43.0571 79.6654 41.2972 80.8497 39.3129 81.4638C36.9789 82.1954 34.5429 82.5491 32.0972 82.5116C29.903 82.5216 27.7119 82.3424 25.5484 81.9758C23.7216 81.6769 21.9389 81.153 20.2409 80.416V73.1974C21.864 74.3566 23.6774 75.223 25.599 75.7574C27.5142 76.3542 29.5051 76.673 31.5109 76.704C33.3673 76.8216 35.2204 76.4284 36.869 75.5669C38.0239 74.9152 38.7263 73.6808 38.6967 72.355C38.7044 71.4325 38.3395 70.546 37.6847 69.8962C36.8703 69.0968 35.9274 68.4397 34.8955 67.9524C33.7048 67.357 31.9515 66.5722 29.6356 65.5978C27.7932 64.8571 26.0292 63.9347 24.3697 62.8443Z" fill="white"/>
<defs>
<linearGradient id="paint0_linear_5027_122247" x1="11.3767" y1="26.5022" x2="54.1117" y2="100.517" gradientUnits="userSpaceOnUse">
<stop stop-color="#058F92"/>
<stop offset="0.5" stop-color="#038489"/>
<stop offset="1" stop-color="#026D71"/>
</linearGradient>
</defs>
</svg>
