<svg width="128" height="128" viewBox="0 0 128 128" fill="none" xmlns="http://www.w3.org/2000/svg">
<g clip-path="url(#clip0_5027_121721)">
<path d="M60.7789 88.3518C60.5229 85.6425 60.3735 82.8905 60.3735 80.0745C60.3735 77.3011 60.5229 74.5918 60.7575 71.9251C61.1842 65.3545 65.9842 59.9785 72.2989 58.6985C83.3709 56.3731 96.3629 54.8585 110.358 54.4531V54.4745C119.083 54.4745 126.272 61.0238 127.296 69.4718H127.339C127.766 72.9065 128 76.4478 128 80.0958C128 83.7225 127.766 87.2638 127.339 90.6771H127.296C126.272 99.1251 119.083 105.674 110.358 105.674V105.696C96.6615 105.29 83.9469 103.84 73.0242 101.6C66.4109 100.597 61.2695 95.1145 60.7789 88.3518Z" fill="#6BE005"/>
<path d="M74.9653 59.824C75.264 56.816 75.4133 53.7227 75.4133 50.5867C75.4133 47.4933 75.264 44.464 74.9653 41.4987C74.496 34.16 69.12 28.1653 62.1013 26.7573C49.7493 24.1547 35.2853 22.4693 19.6693 22V22.0213C9.94133 22.0213 1.92 29.3173 0.768 38.7467H0.725333C0.256 42.5653 0 46.5333 0 50.5867C0 54.6187 0.256 58.5653 0.725333 62.384H0.768C1.89867 71.8133 9.92 79.1093 19.648 79.1093V79.1307C34.9227 78.6827 49.1093 77.0613 61.2693 74.5653C68.672 73.4773 74.4107 67.376 74.9653 59.824Z" fill="#FF8E00"/>
<path d="M61.2906 74.5652C68.6719 73.4772 74.4319 67.3759 74.9653 59.8239C75.0293 59.2692 75.0719 58.6932 75.1146 58.1172C74.1759 58.3092 73.2373 58.4799 72.2986 58.6719C65.9839 59.9305 61.1626 65.3279 60.7573 71.8985C60.6719 72.8159 60.6079 73.7545 60.5439 74.6932C60.7786 74.6505 61.0346 74.6079 61.2906 74.5652Z" fill="#48C606"/>
<path d="M36.8854 50.7945C36.9067 51.0505 36.9067 51.3919 36.9067 51.8185C36.9067 52.2239 36.9067 52.5652 36.8854 52.8425C36.8427 53.6959 36.6507 54.4852 36.3094 55.2105C35.9467 55.9572 35.4774 56.5972 34.8587 57.1519C34.24 57.7065 33.4934 58.1332 32.6187 58.4532C31.744 58.7732 30.784 58.9225 29.696 58.9225C28.6294 58.9225 27.648 58.7732 26.7734 58.4532C25.8987 58.1332 25.152 57.7065 24.5334 57.1519C23.9147 56.5972 23.424 55.9572 23.0827 55.2105C22.72 54.4639 22.528 53.6745 22.5067 52.8425C22.4854 52.5865 22.4854 52.2452 22.4854 51.8185C22.4854 51.4132 22.4854 51.0719 22.5067 50.7945C22.528 49.9412 22.6987 49.1519 23.0614 48.4265C23.4027 47.6799 23.8934 47.0399 24.5334 46.4852C25.152 45.9305 25.8987 45.4825 26.7734 45.1625C27.648 44.8425 28.608 44.6719 29.696 44.6719C30.7627 44.6719 31.744 44.8425 32.6187 45.1625C33.4934 45.4825 34.24 45.9305 34.8587 46.4852C35.4774 47.0399 35.968 47.6799 36.3094 48.4265C36.6507 49.1732 36.8427 49.9412 36.8854 50.7945ZM27.264 52.6932C27.3067 53.3545 27.5627 53.8879 27.9894 54.2719C28.416 54.6559 28.992 54.8479 29.696 54.8479C30.4 54.8479 30.976 54.6559 31.4027 54.2719C31.8294 53.8879 32.0854 53.3759 32.128 52.6932C32.1707 52.4372 32.1707 52.1385 32.1707 51.7972C32.1707 51.4559 32.1494 51.1572 32.128 50.9012C32.0854 50.2399 31.8294 49.7065 31.4027 49.3225C30.976 48.9385 30.4 48.7465 29.696 48.7465C28.992 48.7465 28.416 48.9385 27.9894 49.3225C27.5627 49.7065 27.3067 50.2185 27.264 50.9012C27.2214 51.1572 27.2214 51.4559 27.2214 51.7972C27.2214 52.1385 27.2214 52.4372 27.264 52.6932Z" fill="white"/>
<path d="M43.2428 44.9375H39.9148C39.7228 44.9375 39.5521 45.0015 39.4028 45.1508C39.2535 45.3002 39.1895 45.4495 39.1895 45.6628V57.9722C39.1895 58.1642 39.2535 58.3348 39.4028 58.4842C39.5521 58.6335 39.7015 58.6975 39.9148 58.6975H43.2428C43.4348 58.6975 43.6055 58.6335 43.7548 58.4842C43.9041 58.3348 43.9681 58.1855 43.9681 57.9722V45.6628C43.9681 45.4708 43.9041 45.3002 43.7548 45.1508C43.6055 45.0228 43.4348 44.9375 43.2428 44.9375Z" fill="white"/>
<path d="M60.9278 57.9625C60.9278 58.1545 60.8638 58.3252 60.7145 58.4745C60.5652 58.6239 60.4158 58.6879 60.2025 58.6879H56.8745C56.6825 58.6879 56.5118 58.6239 56.3625 58.4745C56.2132 58.3252 56.1492 58.1759 56.1492 57.9625V51.2852C56.1492 50.5385 55.9572 49.9199 55.5945 49.4719C55.2318 49.0239 54.6345 48.7892 53.8452 48.7892C53.0558 48.7892 52.4798 49.0239 52.1172 49.4719C51.7545 49.9199 51.5838 50.5385 51.5838 51.2852V57.9625C51.5838 58.1545 51.5198 58.3252 51.3705 58.4745C51.2212 58.6239 51.0718 58.6879 50.8585 58.6879H47.5305C47.3385 58.6879 47.1678 58.6239 47.0185 58.4745C46.8692 58.3252 46.8052 58.1759 46.8052 57.9625V45.6532C46.8052 45.4612 46.8692 45.2905 47.0185 45.1412C47.1678 44.9919 47.3172 44.9279 47.5305 44.9279H50.7305C50.9225 44.9279 51.0932 44.9919 51.2425 45.1412C51.3918 45.2905 51.4558 45.4399 51.4558 45.6532V46.2505C51.6052 46.0799 51.7758 45.8879 51.9892 45.6959C52.2025 45.5039 52.4585 45.3332 52.7572 45.1839C53.0558 45.0345 53.3972 44.9065 53.8025 44.8212C54.2078 44.7145 54.6558 44.6719 55.1892 44.6719C56.0425 44.6719 56.8105 44.7999 57.5145 45.0345C58.2185 45.2692 58.8158 45.6319 59.3278 46.1225C59.8398 46.6132 60.2238 47.2319 60.5012 47.9999C60.7785 48.7465 60.9278 49.6639 60.9278 50.6879V57.9625Z" fill="white"/>
<path d="M44.0746 40.496C44.0319 39.856 43.7973 39.3654 43.3493 39.0454C42.9226 38.7254 42.3253 38.5547 41.5573 38.5547C40.8106 38.5547 40.2133 38.7254 39.7653 39.0454C39.3386 39.3654 39.0826 39.856 39.0399 40.496C39.0186 40.7734 39.0186 41.0294 39.0399 41.3067C39.1253 42.5867 39.9573 43.248 41.5573 43.248C43.1359 43.248 43.9893 42.608 44.0746 41.3067C44.0959 41.0294 44.0959 40.752 44.0746 40.496Z" fill="white"/>
<path d="M20.3734 40.496C20.3308 39.856 20.0961 39.3654 19.6481 39.0454C19.2214 38.7254 18.6241 38.5547 17.8561 38.5547C17.1094 38.5547 16.5121 38.7254 16.0641 39.0454C15.6374 39.3654 15.3814 39.856 15.3388 40.496C15.3174 40.7734 15.3174 41.0294 15.3388 41.3067C15.4241 42.5867 16.2561 43.248 17.8561 43.248C19.4348 43.248 20.2881 42.608 20.3734 41.3067V40.496Z" fill="white"/>
<path d="M19.5414 44.9375H16.1281C15.7654 44.9375 15.5094 45.2362 15.5094 45.5988V56.6922C15.5094 57.9082 14.6988 57.9508 14.4428 57.9508C14.2081 57.9508 13.8668 57.9295 13.4401 57.6308C13.1628 57.4388 13.0348 57.3535 12.7361 57.3535C12.6721 57.3535 12.3734 57.3748 12.2028 57.6522L10.7094 59.7428C10.5814 59.9348 10.4961 60.1482 10.4961 60.3188C10.4961 60.5108 10.6028 60.7242 10.7734 60.8948C11.7334 61.9615 13.6748 62.3882 15.0614 62.3882C17.6428 62.3882 20.2241 60.8948 20.2241 56.9268V45.6202C20.1814 45.2362 19.8828 44.9375 19.5414 44.9375Z" fill="white"/>
<path d="M97.3442 86.251C97.3442 86.443 97.2802 86.6137 97.1309 86.763C96.9815 86.9123 96.8109 86.9763 96.6189 86.9763H93.3975C93.2055 86.9763 93.0349 86.9123 92.8855 86.763C92.7362 86.6137 92.6722 86.443 92.6722 86.251V79.467C92.6722 78.5923 92.5015 77.9523 92.1815 77.5897C91.8615 77.227 91.3709 77.035 90.7309 77.035C90.1122 77.035 89.6429 77.227 89.3015 77.5897C88.9815 77.9523 88.8109 78.5923 88.8109 79.467V86.251C88.8109 86.443 88.7469 86.6137 88.5975 86.763C88.4482 86.9123 88.2775 86.9763 88.0855 86.9763H84.8642C84.6722 86.9763 84.5015 86.9123 84.3522 86.763C84.2029 86.6137 84.1389 86.443 84.1389 86.251V79.467C84.1389 78.5923 83.9682 77.9523 83.6482 77.5897C83.3282 77.227 82.8375 77.035 82.1975 77.035C81.5789 77.035 81.1095 77.227 80.7682 77.5897C80.4482 77.9523 80.2775 78.5497 80.2775 79.403V86.2723C80.2775 86.4643 80.2135 86.635 80.0642 86.7843C79.9149 86.9337 79.7442 86.9977 79.5522 86.9977H76.2029C76.0109 86.9977 75.8402 86.9337 75.6909 86.7843C75.5415 86.635 75.4775 86.4643 75.4775 86.2723V73.899C75.4775 73.707 75.5415 73.5363 75.6909 73.387C75.8402 73.2377 76.0109 73.1737 76.2029 73.1737H79.4242C79.6162 73.1737 79.7869 73.2377 79.9362 73.387C80.0855 73.5363 80.1495 73.707 80.1495 73.899V74.5177C80.5335 74.027 81.0029 73.643 81.5789 73.3443C82.1335 73.067 82.7949 72.9177 83.5202 72.9177C84.4162 72.9177 85.2482 73.0883 85.9735 73.4297C86.6989 73.771 87.2962 74.283 87.7655 74.987C88.2775 74.3043 88.8962 73.7923 89.6429 73.451C90.3682 73.0883 91.1789 72.9177 92.0109 72.9177C92.7789 72.9177 93.4829 73.0457 94.1229 73.2803C94.7629 73.515 95.3175 73.8777 95.7869 74.3897C96.2562 74.8803 96.6189 75.5203 96.8749 76.267C97.1309 77.035 97.2589 77.931 97.2589 78.9763V86.251H97.3442ZM104.32 81.387C104.32 81.7923 104.491 82.3257 104.64 82.5817C104.79 82.8377 104.982 83.051 105.216 83.2217C105.451 83.371 105.707 83.499 105.984 83.563C106.262 83.627 106.539 83.6483 106.816 83.6483C107.35 83.6483 107.776 83.6057 108.075 83.499C108.374 83.3923 108.331 83.4137 108.608 83.243C108.822 83.115 108.8 83.0937 108.886 83.051C108.971 83.0083 109.12 82.987 109.334 82.987H113.088C113.472 82.987 113.664 83.179 113.664 83.563C113.664 83.7763 113.622 83.7977 113.366 84.2243C113.11 84.651 112.683 85.099 112.128 85.547C111.574 85.995 110.848 86.4003 109.974 86.7203C109.099 87.0617 108.032 87.2323 106.816 87.2323C105.664 87.2323 104.64 87.0617 103.744 86.7417C102.848 86.4217 102.102 85.931 101.483 85.3123C100.864 84.6937 100.416 83.947 100.096 83.051C99.7975 82.1763 99.6269 81.1737 99.6269 80.043C99.6269 79.019 99.7762 78.059 100.096 77.1843C100.416 76.3097 100.864 75.563 101.483 74.923C102.102 74.283 102.848 73.7923 103.744 73.4297C104.64 73.067 105.664 72.875 106.816 72.875C108.118 72.875 109.206 73.0883 110.123 73.515C111.04 73.9417 111.787 74.5177 112.342 75.2003C112.918 75.883 113.323 76.6723 113.579 77.5257C113.835 78.379 113.963 79.2323 113.963 80.0857V80.6403C113.963 80.8323 113.899 81.003 113.75 81.1523C113.6 81.3017 113.43 81.3657 113.238 81.3657H104.32V81.387ZM106.816 76.4803C106.07 76.4803 105.515 76.6937 105.11 77.1417C104.726 77.5897 104.406 78.0803 104.342 78.8483H109.227C109.163 78.0803 108.907 77.5897 108.502 77.1417C108.118 76.6937 107.563 76.4803 106.816 76.4803Z" fill="white"/>
<path d="M115.179 73.2031C115.2 73.2031 115.2 73.2031 115.221 73.2245C115.243 73.2458 115.243 73.2458 115.243 73.2671V73.4165C115.243 73.4378 115.243 73.4378 115.221 73.4591C115.2 73.4805 115.2 73.4805 115.179 73.4805H114.773V74.6965C114.773 74.7178 114.773 74.7178 114.752 74.7391C114.731 74.7605 114.731 74.7605 114.709 74.7605H114.539C114.517 74.7605 114.517 74.7605 114.496 74.7391C114.475 74.7178 114.475 74.7178 114.475 74.6965V73.4805H114.069C114.048 73.4805 114.048 73.4805 114.027 73.4591C114.005 73.4378 114.005 73.4378 114.005 73.4165V73.2671C114.005 73.2458 114.005 73.2458 114.027 73.2245C114.048 73.2031 114.048 73.2031 114.069 73.2031H115.179ZM116.288 73.9925L116.715 73.2671C116.715 73.2671 116.736 73.2458 116.736 73.2245C116.757 73.2031 116.779 73.2031 116.8 73.2031H116.949C116.971 73.2031 116.971 73.2031 116.992 73.2245C117.013 73.2458 117.013 73.2458 117.013 73.2671V74.6965C117.013 74.7178 117.013 74.7178 116.992 74.7391C116.971 74.7605 116.971 74.7605 116.949 74.7605H116.779C116.757 74.7605 116.757 74.7605 116.736 74.7391C116.715 74.7178 116.715 74.7178 116.715 74.6965V73.8218L116.416 74.3125C116.416 74.3338 116.395 74.3338 116.395 74.3551C116.373 74.3765 116.373 74.3765 116.352 74.3765H116.245C116.224 74.3765 116.203 74.3765 116.203 74.3551C116.181 74.3338 116.181 74.3338 116.181 74.3125L115.883 73.8218V74.6965C115.883 74.7178 115.883 74.7178 115.861 74.7391C115.84 74.7605 115.84 74.7605 115.819 74.7605H115.627C115.605 74.7605 115.605 74.7605 115.584 74.7391C115.563 74.7178 115.563 74.7178 115.563 74.6965V73.2671C115.563 73.2458 115.563 73.2458 115.584 73.2245C115.605 73.2031 115.605 73.2031 115.627 73.2031H115.776C115.797 73.2031 115.819 73.2031 115.84 73.2245C115.861 73.2458 115.861 73.2458 115.861 73.2671L116.288 73.9925Z" fill="white"/>
</g>
<defs>
<clipPath id="clip0_5027_121721">
<rect width="128" height="128" fill="white"/>
</clipPath>
</defs>
</svg>
