<svg width="128" height="128" viewBox="0 0 128 128" fill="none" xmlns="http://www.w3.org/2000/svg">
<path fill-rule="evenodd" clip-rule="evenodd" d="M77.0275 42.2344L71.2 52.7037L65.3711 63.2629H77.0275H88.6853L82.8564 52.7037L77.0275 42.2344Z" fill="#E675C6"/>
<path fill-rule="evenodd" clip-rule="evenodd" d="M91.8857 64.6406L103.925 85.6691H128L115.961 64.6406H91.8857Z" fill="#E675C6"/>
<path fill-rule="evenodd" clip-rule="evenodd" d="M24.2965 62.9648H12.4324L18.3637 52.4354L24.2965 42L30.2293 52.4354L36.1607 62.9648H24.2965Z" fill="#E675C6"/>
<path fill-rule="evenodd" clip-rule="evenodd" d="M77.16 64.7188H89.0242L83.0929 75.1542L77.16 85.5896L71.2287 75.1542L65.2959 64.7188H77.16Z" fill="#F0A4D8"/>
<path fill-rule="evenodd" clip-rule="evenodd" d="M39.1484 64.7188H62.8767L74.7408 85.5896H51.0126L39.1484 64.7188Z" fill="#E675C6"/>
<path fill-rule="evenodd" clip-rule="evenodd" d="M35.5939 64.7188H11.8641L0 85.5896H23.7298L35.5939 64.7188Z" fill="#F0A4D8"/>
<path fill-rule="evenodd" clip-rule="evenodd" d="M79.5791 42H103.309L115.173 62.9648H91.4432L79.5791 42Z" fill="#D83BB3"/>
<path fill-rule="evenodd" clip-rule="evenodd" d="M26.7158 42H50.4441L62.3097 62.9648H38.58L26.7158 42Z" fill="#D83BB3"/>
</svg>
