<svg width="128" height="128" viewBox="0 0 128 128" fill="none" xmlns="http://www.w3.org/2000/svg">
<rect width="128" height="128" rx="24" fill="#ED2438"/>
<path d="M35.8439 61.3902C27.1856 67.4595 17.1449 76.3567 15.395 78.0942H17.104C19.9446 78.0942 20.8136 77.6529 23.1825 76.1741C23.6375 75.8899 25.2739 74.8704 25.8291 74.5061C36.0556 67.8282 42.3761 65.4843 51.0828 66.2887C58.4717 66.9711 66.2143 70.2873 74.8141 74.2856C83.3047 78.235 85.8145 79.1568 92.8558 76.4267C106.066 71.3029 117.549 64.4499 119 63.4815C119 63.4815 108.825 61.0905 95.2564 58.9913C78.5673 56.412 61.1799 54.7783 42.857 58.0928C40.1414 58.726 38.5486 59.4515 35.8439 61.3902Z" fill="white"/>
<path d="M29.8594 55.2202C26.313 58.5387 15.977 69.8268 9 78.0952H12.9675C13.5285 77.5356 14.1691 76.9064 14.7772 76.3031C23.8187 67.3566 34.746 57.4945 51.2341 49.0246C51.2341 49.0246 44.6852 48.6743 37.3992 50.6187C34.1547 51.482 32.4444 52.5674 29.8594 55.2202Z" fill="white"/>
</svg>
