<svg width="128" height="128" viewBox="0 0 128 128" fill="none" xmlns="http://www.w3.org/2000/svg">
<path d="M35 0H92.5198V128H35V0Z" fill="url(#paint0_linear_5027_113066)"/>
<path d="M54.3003 71.9945C54.29 62.526 58.2047 58.3009 62.3831 58.3009C66.5666 58.3009 70.4865 62.6396 70.471 71.9945C70.4555 82.3682 66.5666 85.4245 62.3831 85.4245C58.303 85.4245 54.3054 81.0134 54.3003 71.9945L43.1614 70.6603C43.12 88.2527 52.418 95.0947 61.4108 95.0588C65.1083 95.0433 68.723 93.7195 70.5382 91.2373C70.6158 91.139 70.8537 90.5805 70.8537 90.5702C70.8537 90.5702 70.6727 91.2476 70.6727 91.7958C70.6623 91.8578 70.6675 92.0543 70.6778 94.3452L81.915 94.3245L81.9201 29.8125L70.7812 29.8228L70.776 52.7997C70.7915 52.929 71.0397 53.6788 71.0346 53.6788C71.0346 53.6788 70.745 53.0221 70.626 52.8876C68.3609 50.2916 65.072 48.9058 60.9868 48.9058C52.6144 48.9058 43.1982 56.368 43.1606 70.6607L54.2995 71.9949" fill="white"/>
<defs>
<linearGradient id="paint0_linear_5027_113066" x1="63.7599" y1="0" x2="63.7599" y2="128" gradientUnits="userSpaceOnUse">
<stop stop-color="#A80C30"/>
<stop offset="0.0001" stop-color="#E11242"/>
<stop offset="1" stop-color="#A80C30"/>
</linearGradient>
</defs>
</svg>
