<svg width="128" height="128" viewBox="0 0 128 128" fill="none" xmlns="http://www.w3.org/2000/svg">
<path fill-rule="evenodd" clip-rule="evenodd" d="M102.888 27V82.9923H89.6019V29.8002L102.888 27ZM65.0612 88.2985C68.729 88.2985 71.7042 91.2476 71.7042 94.8856C71.7042 98.5236 68.729 101.473 65.0612 101.473C61.3935 101.473 58.4183 98.5236 58.4183 94.8856C58.4183 91.2476 61.3916 88.2985 65.0612 88.2985ZM65.0612 42.9018C76.3718 42.9018 85.5599 51.9949 85.5599 63.2291C85.5599 74.4652 76.3718 83.5602 65.0612 83.5602C53.7321 83.5602 44.5626 74.4652 44.5626 63.2291C44.5626 51.9949 53.7507 42.9018 65.0612 42.9018ZM65.0612 69.8162C68.7327 69.8162 71.7042 66.8708 71.7042 63.2291C71.7042 59.5893 68.7327 56.642 65.0612 56.642C61.3897 56.642 58.4183 59.5893 58.4183 63.2291C58.4183 66.8708 61.3897 69.8162 65.0612 69.8162ZM23.2671 69.8162C25.5572 69.8162 27.419 67.9693 27.419 65.7016C27.4131 64.6054 26.9727 63.5562 26.1944 62.7842C25.4161 62.0122 24.3634 61.5803 23.2671 61.5833H13.3046V69.8162H23.2671ZM13.3046 40.1761V48.409H20.6848C22.973 48.409 24.8367 46.5603 24.8367 44.2907C24.8298 43.1951 24.3889 42.1469 23.6107 41.3757C22.8325 40.6045 21.7804 40.1731 20.6848 40.1761H13.3046ZM35.5012 53.3857C38.7109 56.5322 40.7049 60.8888 40.6863 65.6997C40.6863 75.2509 32.8816 82.9923 23.2485 82.9923H0V27H20.6662C30.2974 27 38.1021 34.7396 38.1021 44.2907C38.1021 47.6234 37.1619 50.7512 35.5012 53.3857ZM127.981 56.8263H121.357V67.165C121.357 70.2929 122.372 72.5978 125.029 72.5978C126.745 72.5978 128 72.2143 128 72.2143V81.9125C128 81.9125 125.25 83.5583 121.523 83.5583H121.357C121.189 83.5583 121.044 83.5397 120.877 83.5397H120.748C120.674 83.5397 120.581 83.5211 120.508 83.5211C113.091 83.1375 108.052 78.5091 108.052 70.4753V36.3854L121.338 33.5871V43.6502H127.981V56.8263Z" fill="#34D186"/>
</svg>
