<svg width="128" height="128" viewBox="0 0 128 128" fill="none" xmlns="http://www.w3.org/2000/svg">
<g clip-path="url(#clip0_5027_117547)">
<path d="M121.355 25C136.039 25.3213 128.024 36.4108 80.7607 68.9443C80.7607 68.9443 131.236 25.8255 99.6504 37.3125C69.1205 48.4019 52.4482 102.09 52.4482 102.09C52.4482 102.09 56.4403 83.8115 57.1592 70.8867C57.4192 66.2216 57.1594 62.627 51.7754 62.9941C33.3912 64.2169 0.059476 101.06 0 101.126C0.0470593 101.064 21.6304 72.5776 51.9131 52.165C71.9502 38.6591 93.6851 28.5486 109.807 26.04C113.172 25.4741 116.583 25.1224 119.994 25H121.355ZM71.2314 25.2891C72.241 25.2891 72.8069 25.8249 72.6387 27.1709C72.2715 30.0611 71.0015 28.6083 62.1152 35.5215C56.0735 40.2019 36.7401 55.6204 32.3809 60.7139C32.7479 60.2703 51.1327 38.5203 60.1113 31.3311C63.2927 28.7921 68.677 25.2892 71.2314 25.2891Z" fill="url(#paint0_linear_5027_117547)"/>
</g>
<defs>
<linearGradient id="paint0_linear_5027_117547" x1="64" y1="25" x2="64" y2="102" gradientUnits="userSpaceOnUse">
<stop stop-color="#00A0E9"/>
<stop offset="1" stop-color="#0068B7"/>
</linearGradient>
<clipPath id="clip0_5027_117547">
<rect width="128" height="128" fill="white"/>
</clipPath>
</defs>
</svg>
