<svg width="128" height="128" viewBox="0 0 128 128" fill="none" xmlns="http://www.w3.org/2000/svg">
<g clip-path="url(#clip0_5027_113228)">
<path d="M64 0C28.7147 0 0 28.7147 0 64C0 99.2853 28.7147 128 64 128C99.2853 128 128 99.2853 128 64C128 28.7147 99.2853 0 64 0ZM118.144 64C118.144 93.8667 93.8667 118.144 64 118.144C34.1333 118.144 9.856 93.8667 9.856 64C9.856 34.1333 34.1333 9.856 64 9.856C93.8667 9.856 118.144 34.1333 118.144 64Z" fill="url(#paint0_linear_5027_113228)"/>
<path d="M90.4094 57.7266C90.3667 57.7266 90.3667 57.7266 90.4094 57.7266C89.3427 57.7266 88.4041 58.1106 87.6361 58.8359C86.9061 59.558 86.4919 60.5398 86.4841 61.5666L86.4414 66.3452C86.4414 68.4786 88.1481 70.2279 90.3241 70.2706C92.4574 70.2706 94.2067 68.5212 94.2067 66.3879L94.2494 61.6092C94.2494 59.4759 92.5427 57.7266 90.4094 57.7266Z" fill="url(#paint1_linear_5027_113228)"/>
<path d="M76.4156 44.5863C76.373 44.5863 76.373 44.5863 76.4156 44.5863C74.2823 44.5863 72.533 46.3357 72.4903 48.469L72.3623 79.5303C72.3623 81.6637 74.069 83.413 76.245 83.4557C76.7508 83.4597 77.2524 83.3638 77.721 83.1734C78.1896 82.9831 78.616 82.702 78.9756 82.3463C79.701 81.621 80.1276 80.6397 80.1276 79.6157L80.2556 48.5543C80.2567 47.5215 79.8594 46.5281 79.1463 45.781C78.803 45.3983 78.3816 45.0936 77.9105 44.8875C77.4395 44.6814 76.9297 44.5787 76.4156 44.5863Z" fill="url(#paint2_linear_5027_113228)"/>
<path d="M62.4211 31.7813C62.3784 31.7813 62.3784 31.7813 62.4211 31.7813C60.2877 31.7813 58.5384 33.5306 58.4957 35.664L58.2397 92.2826C58.2397 93.3066 58.6237 94.288 59.3491 95.056C60.0744 95.7813 61.0557 96.208 62.0797 96.208C64.2131 96.208 65.9624 94.4586 65.9624 92.3253L66.2184 35.7066C66.238 35.1967 66.1541 34.6881 65.9719 34.2114C65.7896 33.7347 65.5127 33.2999 65.1579 32.9331C64.8031 32.5664 64.3777 32.2752 63.9073 32.0773C63.437 31.8793 62.9314 31.7786 62.4211 31.7813Z" fill="url(#paint3_linear_5027_113228)"/>
<path d="M50.0902 31.3598C49.4056 30.8897 48.6186 30.5901 47.7947 30.4862C46.9708 30.3823 46.134 30.477 45.3542 30.7624C43.0075 31.6158 40.9168 32.9384 39.1248 34.6451C37.4651 36.2637 36.1517 38.2027 35.2642 40.3443C34.3767 42.486 33.9338 44.7857 33.9622 47.1038C34.0048 51.7971 35.8822 56.2344 39.2528 59.5198L43.3915 63.5304C43.5195 63.6584 43.5622 63.7864 43.5622 63.9571C43.5622 64.1278 43.4768 64.2558 43.3915 64.3838L39.3382 68.2664C35.7968 71.6371 33.7915 76.3305 33.7915 81.1945C33.7915 85.8878 35.5835 90.1971 38.9115 93.3544C40.7035 95.0611 42.7942 96.3838 45.1408 97.2371C45.9093 97.5332 46.7383 97.6374 47.5562 97.5408C48.374 97.4441 49.1559 97.1495 49.8342 96.6824C51.1995 95.7438 52.0102 94.2078 52.0102 92.5438L52.2662 35.5838C52.2235 33.8345 51.4555 32.3411 50.0902 31.3598Z" fill="url(#paint4_linear_5027_113228)"/>
</g>
<defs>
<linearGradient id="paint0_linear_5027_113228" x1="64" y1="128" x2="64" y2="0" gradientUnits="userSpaceOnUse">
<stop stop-color="#E13F8C"/>
<stop offset="0.503" stop-color="#9D2AD5"/>
<stop offset="1" stop-color="#27AAE1"/>
</linearGradient>
<linearGradient id="paint1_linear_5027_113228" x1="90.3582" y1="127.973" x2="90.3582" y2="-0.0142261" gradientUnits="userSpaceOnUse">
<stop stop-color="#E13F8C"/>
<stop offset="0.503" stop-color="#9D2AD5"/>
<stop offset="1" stop-color="#27AAE1"/>
</linearGradient>
<linearGradient id="paint2_linear_5027_113228" x1="76.309" y1="127.974" x2="76.309" y2="-0.0131333" gradientUnits="userSpaceOnUse">
<stop stop-color="#E13F8C"/>
<stop offset="0.503" stop-color="#9D2AD5"/>
<stop offset="1" stop-color="#27AAE1"/>
</linearGradient>
<linearGradient id="paint3_linear_5027_113228" x1="62.2547" y1="127.969" x2="62.2547" y2="-0.0181688" gradientUnits="userSpaceOnUse">
<stop stop-color="#E13F8C"/>
<stop offset="0.503" stop-color="#9D2AD5"/>
<stop offset="1" stop-color="#27AAE1"/>
</linearGradient>
<linearGradient id="paint4_linear_5027_113228" x1="42.9819" y1="127.974" x2="42.9819" y2="-0.0130102" gradientUnits="userSpaceOnUse">
<stop stop-color="#E13F8C"/>
<stop offset="0.503" stop-color="#9D2AD5"/>
<stop offset="1" stop-color="#27AAE1"/>
</linearGradient>
<clipPath id="clip0_5027_113228">
<rect width="128" height="128" fill="white"/>
</clipPath>
</defs>
</svg>
