<svg width="128" height="128" viewBox="0 0 128 128" fill="none" xmlns="http://www.w3.org/2000/svg">
<path d="M128 39.9922L112.762 48.3731L97.5234 62.8493V112.526H118.857C123.907 112.526 128 108.433 128 103.383V39.9922Z" fill="#4CAF50"/>
<path d="M0 39.9922L11.0141 45.2036L30.4762 62.8493V112.526H9.14286C4.09295 112.526 0 108.433 0 103.383V39.9922Z" fill="#1E88E5"/>
<path d="M97.5239 24.75L64.0001 49.8929L30.4763 24.75L27.4287 42.4262L30.4763 62.8452L64.0001 87.9881L97.5239 62.8452L100.572 42.4262L97.5239 24.75Z" fill="#E53935"/>
<path d="M0 28.0987V39.9905L30.4762 62.8476V24.7524L20.9554 17.6179C18.688 15.9173 15.933 15 13.0987 15C5.86362 15 0 20.8636 0 28.0987Z" fill="#C62828"/>
<path d="M128 28.0987V39.9905L97.5234 62.8476V24.7524L107.044 17.6179C109.312 15.9173 112.067 15 114.901 15C122.136 15 128 20.8636 128 28.0987Z" fill="#FBC02D"/>
</svg>
