<svg width="128" height="128" viewBox="0 0 128 128" fill="none" xmlns="http://www.w3.org/2000/svg">
<g clip-path="url(#clip0_5027_122469)">
<rect width="128" height="128" rx="24" fill="url(#paint0_linear_5027_122469)"/>
<path d="M24.3596 20.0054C22.2177 19.9735 20.3501 20.7825 19.3862 23.1538C17.7332 27.1452 21.8349 31.0701 23.2447 33.0976C24.2844 34.5074 25.632 36.1058 26.3629 37.6993C26.7919 38.7432 26.9158 39.85 27.3461 40.9535C28.3244 43.6535 29.2406 46.6611 30.5277 49.181C31.1988 50.47 31.9324 51.8212 32.7893 52.9821C33.2836 53.6613 34.1375 53.9641 34.3221 55.0721C33.468 56.2982 33.4012 58.1389 32.9123 59.6768C30.7099 66.6112 31.565 75.2043 34.6883 80.2986C35.6652 81.8326 37.9939 85.2085 41.1181 83.9184C43.8725 82.8155 43.26 79.3166 44.0553 76.2498C44.2384 75.508 44.1159 75.0215 44.4822 74.5311V74.655C45.3388 76.3709 46.1985 78.024 46.9937 79.7493C48.8939 82.7535 52.1967 85.8829 54.9524 87.9677C56.4172 89.0766 57.5817 90.9763 59.4181 91.654V91.4682H59.2976C58.9287 90.9174 58.379 90.6705 57.8887 90.243C56.7873 89.1374 55.5666 87.7862 54.707 86.5598C52.1372 83.1243 49.8696 79.3172 47.8542 75.3892C46.872 73.4821 46.0166 71.3978 45.2201 69.4973C44.8539 68.7643 44.8536 67.6563 44.2402 67.2889C43.3196 68.6377 41.9765 69.8049 41.3042 71.4556C40.1403 74.0979 40.0186 77.3505 39.5868 80.7255C39.3435 80.7896 39.4665 80.7261 39.3435 80.8483C37.3871 80.3576 36.7136 78.3323 35.9776 76.6182C34.1414 72.2551 33.8326 65.2573 35.4267 60.2265C35.8531 58.9399 37.695 54.8905 36.9571 53.6608C36.587 52.4896 35.3636 51.8207 34.6913 50.8961C33.8976 49.7304 33.0361 48.2598 32.4907 46.9681C31.0208 43.5327 30.282 39.7256 28.6957 36.2901C27.9606 34.6918 26.6719 33.036 25.6349 31.5645C24.4696 29.9069 23.186 28.7412 22.266 26.7785C21.9626 26.1019 21.5339 24.9958 22.0216 24.2615C22.1419 23.7696 22.3905 23.5853 22.8809 23.4621C23.6722 22.7867 25.9386 23.6443 26.7333 24.0129C28.9997 24.9308 30.8969 25.7941 32.7914 27.0797C33.6492 27.6946 34.5678 28.8615 35.6679 29.1709H36.9563C38.9142 29.5972 41.1199 29.2897 42.957 29.8444C46.199 30.8868 49.1359 32.4211 51.7707 34.0775C59.7867 39.1718 66.3978 46.4173 70.8636 55.0679C71.5999 56.4777 71.9087 57.767 72.581 59.2376C73.8666 62.2509 75.4605 65.3199 76.7446 68.2628C78.0291 71.1477 79.2552 74.0913 81.0926 76.4873C82.0081 77.7739 85.6822 78.4492 87.335 79.1248C88.5566 79.6753 90.4562 80.1669 91.5591 80.841C93.64 82.1276 95.7166 83.603 97.6776 85.0167C98.6545 85.7534 101.714 87.2862 101.899 88.5156L101.9 88.5168C97.0019 88.3939 93.2069 88.8839 90.0253 90.2354C89.107 90.6031 87.6395 90.6028 87.5138 91.7691C88.0069 92.2592 88.0664 93.0572 88.4979 93.7352C89.2303 94.9625 90.5129 96.6171 91.6795 97.4788C92.9652 98.4614 94.2502 99.4398 95.5984 100.299C97.9839 101.778 100.678 102.634 103.001 104.106C104.352 104.964 105.694 106.068 107.044 106.991C107.715 107.482 108.139 108.281 109 108.585V108.398C108.569 107.847 108.449 107.05 108.023 106.433C107.412 105.823 106.798 105.268 106.185 104.657C104.409 102.263 102.202 100.179 99.8213 98.4595C97.8609 97.1055 93.5728 95.2627 92.7812 92.9996C92.7812 92.9996 92.7164 92.9351 92.6562 92.8747C94.0032 92.7501 95.5986 92.2583 96.8833 91.886C98.9615 91.3352 100.86 91.4591 103.002 90.9086C103.983 90.6613 104.962 90.3532 105.946 90.0517V89.4954C104.838 88.3932 104.046 86.9172 102.885 85.8757C99.7667 83.1763 96.3343 80.5397 92.784 78.3249C90.8838 77.097 88.4361 76.3032 86.4147 75.2581C85.6835 74.8892 84.4607 74.7076 84.0304 74.0903C82.9279 72.7406 82.313 70.963 81.519 69.3647C79.7456 65.9927 78.0291 62.249 76.5002 58.6836C75.3989 56.2918 74.7254 53.9006 73.379 51.6889C67.0701 41.2526 60.2174 34.9346 49.6904 28.7345C47.4252 27.444 44.7322 26.8929 41.8587 26.2176C40.3259 26.1533 38.7979 26.0335 37.266 25.9732C36.2852 25.5417 35.3036 24.3742 34.4482 23.8222C32.2666 22.442 27.9338 20.0544 24.3654 20L24.3596 20.0054ZM39.4611 35.1764C38.4226 35.1764 37.6899 35.3026 36.9508 35.4849V35.6076H37.0703C37.5646 36.5872 38.423 37.2679 39.0297 38.1257C39.5228 39.108 39.9516 40.0861 40.4408 41.0696C40.5009 41.0093 40.5591 40.9457 40.5591 40.9457C41.4224 40.3348 41.8508 39.3534 41.8508 37.8789C41.4807 37.4462 41.423 37.0199 41.1142 36.5884C40.748 35.976 39.9515 35.669 39.4608 35.1774L39.4611 35.1764Z" fill="#00758F"/>
</g>
<defs>
<linearGradient id="paint0_linear_5027_122469" x1="64" y1="0" x2="64" y2="128" gradientUnits="userSpaceOnUse">
<stop stop-color="#FAFAFA"/>
<stop offset="1" stop-color="#E4E4E3"/>
</linearGradient>
<clipPath id="clip0_5027_122469">
<rect width="128" height="128" fill="white"/>
</clipPath>
</defs>
</svg>
