<svg width="128" height="128" viewBox="0 0 128 128" fill="none" xmlns="http://www.w3.org/2000/svg">
<path d="M65.7301 22.9126L62.5464 22.5115L61.1804 19.6069L59.8185 22.5115L56.6321 22.9126L58.9771 25.1047L58.374 28.2533L61.1804 26.7106L63.991 28.2533L63.3865 25.1047L65.7301 22.9126ZM73.8912 7.5805L77.1254 4.55391L72.7285 3.99852L70.8506 0L68.9727 3.99852L64.5842 4.55391L67.8142 7.5805L66.9783 11.9226L70.8506 9.79084L74.7257 11.9226L73.8912 7.5805ZM96.3971 19.6686L101.074 15.2774L94.7113 14.478L91.982 8.68006L89.2556 14.478L82.8925 15.2774L87.574 19.6686L86.3692 25.9659L91.9834 22.8733L97.6074 25.9659L96.3971 19.6686Z" fill="#FAB200"/>
<path d="M48.9043 72.2298C47.7346 70.3365 49.4485 67.7517 49.5116 66.2776C50.8103 68.056 50.1175 70.9339 49.3475 71.3757C50.318 70.8582 51.0136 70.2088 51.5129 69.5104C51.074 70.2677 50.4891 71.1471 48.9043 72.2298ZM48.2746 70.746C47.6953 70.3126 43.9493 67.014 46.4696 64.9621C47.039 66.1725 48.2746 66.9929 48.7318 67.2327C48.1974 66.5694 47.8272 65.8555 47.8636 64.9677C48.4779 65.2328 48.9478 65.5932 49.3012 66.0196C49.3489 66.8541 48.1203 69.1471 48.2718 70.6717C48.2718 70.7011 48.2746 70.7278 48.283 70.7586C48.283 70.7558 48.2746 70.753 48.2746 70.746ZM42.5145 50.4855C42.2116 50.184 41.9255 49.888 41.6295 49.6061C42.9423 47.6497 44.579 46.7843 44.694 46.7086C43.0727 47.7296 42.6309 49.8221 42.5145 50.4855ZM43.544 51.5318C43.2929 51.2737 43.0391 51.0114 42.7908 50.7604C43.004 48.8025 43.8791 47.5936 44.3826 47.2247C43.4135 49.1896 43.5524 51.3775 43.544 51.5318ZM40.0952 58.9875C40.2453 58.8472 40.4108 58.7084 40.5706 58.5877C41.3687 58.8206 42.0755 58.8837 42.5426 58.8556C42.2593 58.9215 41.0419 59.1179 40.0952 58.9875ZM42.2887 62.0042C42.2887 62.0042 42.2887 62.0042 42.2887 62.0014V62.0042ZM83.5712 36.2628C83.3833 36.2249 83.2052 36.4086 83.2052 36.4086L82.8377 36.7396L82.5095 36.9991L81.7424 37.6933L81.6442 37.6064C81.9934 37.3665 82.4086 36.706 82.4086 36.706L82.9668 36.1786C83.2529 36.0075 83.6189 35.6204 83.6189 35.6204C83.8742 35.2053 83.4212 35.0061 82.863 35.3932C82.633 35.5503 82.2305 35.7943 82.2305 35.7943L81.1379 36.748L81.8644 35.8504C81.8644 35.8504 82.5951 35.1155 83.1154 34.6359C83.6287 34.1759 83.0144 33.9318 82.6344 34.1717C82.4366 34.2979 81.6681 34.8392 81.6681 34.8392C81.3988 35.0356 80.9177 35.5335 80.9177 35.5335L80.2403 36.3329L80.173 36.2768C80.323 36.0608 80.6933 35.2712 80.6933 35.2712L81.3286 34.4059C81.6989 33.9234 81.8111 33.8505 81.95 33.6275C82.2683 32.9431 81.5587 33.1338 81.5587 33.1338C81.4184 33.1478 81.1225 33.3863 81.1225 33.3863C80.4212 33.9473 79.1646 35.9725 79.1646 35.9725L78.4844 36.9051L78.4535 35.7102C78.2964 34.1085 77.5461 34.3526 77.5461 34.3526C77.3371 34.2516 77.5798 35.1913 77.5798 35.1913L77.5363 36.1436L77.3469 36.9121C77.0286 37.9921 77.4016 40.086 77.26 40.417C77.1422 42.229 72.894 47.2177 72.0525 48.3944C71.4971 49.177 70.5154 51.4659 70.5042 51.4827C69.9291 52.1924 68.9516 52.4448 68.1999 52.9609C66.479 54.1446 65.0092 55.5191 63.5408 56.9721C62.8676 57.6354 61.9027 57.6481 61.0485 58.0352C60.7961 58.1446 60.4679 58.3507 60.1257 58.5934C59.6895 57.5246 59.7919 56.2694 61.531 55.7687C64.2532 54.9903 63.2378 53.7421 63.1425 53.4967C63.0162 53.2078 62.8451 53.0465 63.0316 52.7954C63.1635 52.6131 63.2336 52.5682 63.1719 52.3663C63.0317 51.8866 62.4132 52.1727 62.4132 52.1727C62.7063 52.0058 63.0176 51.6005 62.8816 51.3747C62.8185 51.2695 62.4103 51.3915 62.2981 51.0437C62.2378 50.8502 62.6782 50.6159 62.5169 50.1699C62.3332 49.6636 61.2701 49.9049 60.7961 49.0423C60.8592 49.0087 60.9335 48.961 60.9714 48.9119C60.9714 48.9021 60.963 48.8923 60.9574 48.8923C60.9349 48.9161 60.9083 48.9259 60.8662 48.9329C60.9433 48.8839 61.0022 48.825 61.0373 48.752C61.0401 48.7478 61.0233 48.7366 61.0191 48.7408C60.9419 48.8179 60.8311 48.8586 60.7161 48.8909C60.5689 48.6006 60.5899 48.163 60.51 47.954C60.5282 47.94 60.5913 47.8614 60.559 47.738C60.559 47.7352 60.5436 47.7352 60.5436 47.7352C60.538 47.7562 60.5296 47.7731 60.5156 47.7843C60.5128 47.731 60.4777 47.6861 60.4525 47.6539L60.4454 47.6581C60.4412 47.6749 60.4384 47.6987 60.4384 47.7128C60.1004 46.7324 59.2309 45.5277 58.0023 44.7142C57.977 44.4113 57.8733 43.9597 57.036 43.5263C51.4596 40.626 46.9787 44.6581 46.2283 44.8629C45.363 45.0985 42.8946 45.1125 43.5215 41.3805C43.5299 41.351 43.4879 41.3356 43.4836 41.3763C42.7375 44.5067 44.5902 45.4463 44.6533 45.4898C44.5664 45.5179 44.4836 45.5347 44.3953 45.5459C43.9871 45.6427 41.5678 46.1602 40.7025 43.1757C40.6913 43.1238 40.6492 43.1308 40.659 43.1827C41.443 46.0284 43.4219 45.8895 43.5538 45.8895C43.2859 45.9723 41.9928 46.3523 40.7922 47.7352C40.7782 47.7605 40.7979 47.7843 40.8203 47.7633C42.8525 46.0256 44.2143 46.0522 45.3055 45.9232C44.9226 46.1644 42.9072 47.1139 41.4192 49.4C40.4907 48.4982 39.5188 47.6469 38.3449 46.8446C37.2523 46.1013 35.4291 44.8727 34.1093 43.675C34.0042 43.4338 34.0392 43.2318 34.0785 42.9906C34.1164 42.7115 34.1164 41.5909 33.7265 40.4843C33.6535 40.2655 33.6297 40.0271 33.596 39.7887C33.5413 39.3118 33.6535 38.7256 33.467 38.274C33.4263 38.159 33.3141 37.7817 33.2258 37.6989C33.0589 37.5461 32.7798 37.5657 32.6087 37.6919C32.4123 37.8448 32.4263 38.3118 32.4376 38.539C32.4516 38.9177 32.5708 39.4086 32.6087 39.7648C32.6381 39.9668 32.5357 40.2501 32.46 40.4422C32.3478 40.6933 32.0813 40.5853 31.8906 40.4969C31.4334 40.2809 30.9453 39.9387 30.5778 39.5755C30.2188 39.2192 29.8051 38.9037 29.5162 38.4731C29.3381 38.201 29.1291 37.971 28.9636 37.6849C28.8416 37.4689 28.6677 37.2866 28.5176 37.0706C28.0604 36.4142 27.6382 36.6555 27.7308 36.9893C27.7771 37.1618 27.8809 37.3834 27.944 37.5447C28.1333 37.9977 28.2722 38.4591 28.5583 38.8672C28.7083 39.072 28.8416 39.2894 28.9888 39.5025C29.0926 39.6526 29.3072 39.8546 29.3521 40.0285C29.2034 39.999 28.756 39.6063 28.655 39.5278C28.4419 39.3595 28.2567 39.1631 28.0744 38.9584C27.7126 38.5278 27.3212 37.9668 26.7939 37.7298C26.5821 37.633 26.3157 37.5208 26.1768 37.7635C26.1207 37.8728 26.1488 37.9275 26.2217 38.0313C26.3059 38.166 26.8121 38.8279 26.9271 39.0523C27.0674 39.3006 27.2203 39.5194 27.4236 39.7326C27.7574 40.1028 28.1599 40.431 28.4923 40.8125C28.2792 40.7073 28.0618 40.56 27.8738 40.424C27.6522 40.2655 27.5078 40.079 27.3297 39.8756C27.0674 39.5685 26.6523 39.1253 26.2049 39.1491C25.9524 39.1631 25.9524 39.4983 26.1011 39.6484C26.2652 39.8195 26.4349 40.0229 26.5891 40.2052C26.9692 40.6877 27.31 41.1561 27.836 41.5011C28.0772 41.6582 28.3353 41.7648 28.5765 41.9134C28.6466 41.9555 28.7995 42.0284 28.8275 42.1098C28.8626 42.2388 28.7055 42.2739 28.6116 42.2627C28.3886 42.2276 28.1193 42.1014 27.9215 41.9836C27.7294 41.8756 27.5723 41.7115 27.3788 41.5895C26.9566 41.3034 26.7631 41.4913 26.7967 41.6442C26.8107 41.7451 26.8739 41.8545 26.9412 41.9485C26.9959 42.0299 27.5681 42.5249 27.8696 42.7101C28.2455 42.9232 28.6578 43.0733 29.0449 43.2584C29.9846 43.6848 30.9383 44.142 31.6998 44.8475C32.0799 45.1967 34.1248 47.7997 34.5792 48.3313C36.4052 50.4701 39.3589 52.6706 39.9942 53.1054C39.9031 53.658 39.868 54.2204 39.9031 54.7814C39.9031 54.8304 39.9339 54.8304 39.9339 54.7814C39.9409 54.2386 39.9998 53.7056 40.1092 53.1783C40.6015 53.5233 41.0784 53.8936 41.5005 54.334C41.6408 54.4868 41.7796 54.6439 41.9241 54.808C41.9086 55.1095 39.6099 57.3073 37.7096 55.1825C37.6955 55.1671 37.6689 55.1867 37.6815 55.2035C38.5272 56.6285 40.1429 56.3283 40.3911 56.2834C40.2242 56.376 37.7474 57.7631 35.9396 55.1166C35.9116 55.0759 35.8765 55.0955 35.9045 55.139C36.9185 56.9328 38.6717 57.9272 40.22 58.4643C40.0461 58.6116 39.8848 58.7729 39.7235 58.937C39.7235 58.937 37.9494 58.6957 36.9831 57.5513C36.9578 57.5331 36.9312 57.5555 36.9494 57.5723C37.9339 58.8949 39.5118 59.1782 39.5118 59.1782C39.4977 59.1978 38.7853 59.8879 38.4781 61.2357C38.4683 61.2609 38.509 61.2707 38.516 61.2427C39.0405 59.864 39.753 59.2988 39.8119 59.2455C39.8119 59.2455 41.2326 59.4825 42.2172 59.2609C39.7937 61.1557 40.3981 63.1809 40.7235 64.0771C40.7305 64.1024 40.7684 64.0883 40.7684 64.0631C40.5566 62.8976 40.1289 61.1319 42.8217 59.2175C42.7277 59.411 41.9283 60.4741 41.861 62.6718C41.8301 63.7111 41.1625 66.3239 39.854 65.9565C39.8245 65.9565 39.8245 65.9943 39.8456 66.0013C41.1905 66.4726 41.903 63.9761 41.9689 63.7433C42.0461 64.6493 41.8189 64.7265 41.997 66.1346C42.1975 67.805 39.9031 69.4192 39.4024 67.286C39.3883 67.2524 39.3505 67.2552 39.3505 67.2902C39.767 69.6577 42.3771 67.9775 42.248 66.4417C42.2929 67.3772 43.1498 71.8035 46.5902 74.1779C46.628 74.2032 46.6505 74.1779 46.6126 74.1485C42.7473 70.8245 42.5776 66.272 42.5622 66.136C42.9465 68.1009 43.4247 69.5328 45.2858 71.8638C44.6281 70.2902 44.3083 69.0476 44.1751 68.0476C44.1891 68.07 44.5495 69.1443 45.0853 69.746C45.0965 69.7558 45.126 69.7418 45.1232 69.7208C44.8328 69.1822 43.7641 67.1794 44.5229 64.9411C44.6197 67.9789 47.3503 70.321 48.2577 70.7811C48.276 70.7853 48.2872 70.7783 48.2872 70.76C48.2788 71.2411 48.729 72.1218 48.8244 72.2929C48.7009 72.3673 47.8847 72.8582 46.9043 73.3224C46.8693 73.3392 46.8819 73.3715 46.9254 73.3603C47.6056 73.112 48.2802 72.8189 48.9267 72.4486C48.9927 72.5496 49.067 72.659 49.1343 72.7502C49.1497 72.7754 49.1764 72.7502 49.1694 72.7277C49.1063 72.6211 49.0544 72.5159 48.9913 72.4066C51.8089 70.9059 52.475 68.2145 52.5732 67.826C52.9856 70.7769 51.2324 72.7726 50.7696 73.1835C50.75 73.2158 50.7696 73.2438 50.7977 73.2214C53.5199 71.0405 52.8958 67.5834 52.8495 67.2748C53.4554 68.3561 53.5522 68.9354 53.5802 69.4823C53.7064 71.896 53.4133 74.3041 52.7149 76.6126C51.8173 79.5789 49.7963 82.1595 49.2325 85.2282C48.9941 86.4989 49.1553 87.7036 49.6182 88.8971C50.0347 89.9785 50.5845 90.9812 50.5803 92.1678C50.5649 94.1859 48.8384 95.0906 47.2984 95.8731C48.3728 95.8479 49.4302 97.2027 50.1231 97.8661C50.9702 98.6768 52.081 99.5337 53.2492 99.7721C54.1917 99.953 54.9729 99.8352 55.8256 99.5912C56.4427 100.522 57.1734 101.566 57.6587 102.21C57.2674 102.043 56.8803 101.891 56.4932 101.802C54.0725 101.204 46.2087 100.848 45.3041 99.1606C44.715 98.1003 44.4934 97.4299 43.3728 97.1074C42.1793 96.7764 41.0657 97.7637 40.2074 98.4566C39.2888 99.1985 38.0153 99.7819 36.8667 100.018C35.7867 100.236 34.8653 100.469 34.272 101.377C34.1528 101.349 34.0238 101.349 33.941 101.349C33.7138 101.357 33.5736 101.507 33.4558 101.674C33.3744 101.78 33.2833 101.945 33.2833 102.088C33.1935 102.222 33.0855 102.416 33.1248 102.578C33.1528 102.705 33.2454 102.748 33.3296 102.806C33.2875 102.872 33.2524 102.932 33.2356 102.992C33.0715 103.493 32.8892 104.015 33.4978 104.168C33.9691 104.283 34.4782 103.765 34.7938 103.486C35.1276 103.187 35.4642 103.281 35.9256 103.305C36.8891 103.371 38.9367 103.302 39.9045 103.17C43.0012 102.773 49.865 105.294 50.9702 105.562C52.2212 105.88 53.4288 106.254 54.6223 106.663C54.2604 106.893 53.9042 107.134 53.583 107.41C51.684 109.054 46.7669 115.365 44.8328 115.135C43.6 114.988 42.9086 114.776 41.9942 115.532C41.0138 116.316 41.1877 117.817 41.2635 118.929C41.3448 120.113 41.0938 121.526 40.6085 122.622C40.1611 123.636 39.8161 124.53 40.2284 125.553C40.1415 125.638 40.0559 125.748 40.0181 125.816C39.8862 126.011 39.9227 126.216 39.9984 126.414C40.0391 126.537 40.1275 126.715 40.2453 126.794C40.2972 126.941 40.4024 127.147 40.5608 127.211C40.6871 127.262 40.7726 127.208 40.868 127.173C40.9058 127.255 40.9423 127.313 40.976 127.368C41.2943 127.787 41.6183 128.244 42.1078 127.833C42.4738 127.508 42.3378 126.793 42.2999 126.362C42.241 125.905 42.5117 125.686 42.8132 125.313C43.4303 124.565 44.565 122.81 45.0264 121.941C46.499 119.15 52.6223 114.935 53.4989 114.181C56.1412 111.919 58.9855 110.111 61.9363 108.33C63.0541 107.654 64.0597 107.226 64.7497 106.117C65.0681 105.594 65.4033 105.125 65.6431 104.583C65.8647 104.095 66.1971 103.47 66.1256 102.922C66.0597 102.454 66.1003 101.873 66.0597 101.344C66.4327 101.396 66.796 101.402 67.1213 101.361C67.9488 101.26 72.657 100.318 73.7467 99.7202C76.354 98.3177 74.3709 96.6235 77.1001 94.3655C75.8926 94.3935 69.4439 95.207 68.8226 86.0248C68.5295 81.7135 69.9923 72.0391 64.9278 62.7966C65.3051 62.3703 65.6109 61.864 65.9783 61.5961C69.3429 58.9748 69.9572 58.5387 74.0132 53.2639C74.7439 52.2765 78.2235 45.8643 79.4563 42.7044C79.5994 42.4085 79.9191 42.3005 80.2726 41.9892C80.626 41.6736 81.7662 39.842 81.7662 39.842L82.2557 38.7845L82.8279 37.9893C83.3258 37.4647 83.7424 36.7677 83.7424 36.7677C83.9163 36.3553 83.5712 36.2628 83.5712 36.2628Z" fill="#FAB200"/>
</svg>
