<svg width="128" height="128" viewBox="0 0 128 128" fill="none" xmlns="http://www.w3.org/2000/svg">
<path d="M41.5081 28.9269C41.5081 34.7781 37.4073 41.2043 23.3795 41.2043H5.85114L11.1022 19H28.0554C38.5825 19 41.5081 24.8261 41.5081 28.9269ZM73.0642 19H56.1109L51.435 41.2043H68.9634C82.416 41.2043 86.4918 34.7781 86.4918 28.9269C86.5168 24.8261 83.5912 19 73.0642 19ZM22.2043 51.7314H5.25102L0 73.9357H17.5284C31.5561 73.9357 35.6569 68.0845 35.6569 61.6583C35.6569 57.5825 32.7313 51.7314 22.2043 51.7314ZM67.238 51.7314H50.2848L45.6088 73.9357H63.1372C76.5899 73.9357 80.6657 68.0845 80.6657 61.6583C80.6657 57.5825 77.7401 51.7314 67.238 51.7314ZM114.572 38.2787H97.6189L92.943 60.4831H110.471C123.924 60.4831 128 54.6319 128 48.2057C128.025 44.1299 125.099 38.2787 114.572 38.2787ZM107.571 72.7604H90.6176L85.9417 94.9647H103.47C117.498 94.9647 120.998 89.1136 120.998 82.6874C120.998 78.6116 118.098 72.7604 107.571 72.7604ZM60.2117 86.213H43.2584L38.5825 108.417H56.1109C70.1386 108.417 73.6393 101.991 73.6393 96.14C73.6643 92.0642 70.7387 86.213 60.2117 86.213Z" fill="white"/>
</svg>
