<svg width="128" height="128" viewBox="0 0 128 128" fill="none" xmlns="http://www.w3.org/2000/svg">
<path d="M104.699 74.4984C97.8991 74.4984 92.9991 79.6984 92.9991 85.9984C92.9991 92.3984 97.8991 97.4984 104.699 97.4984C111.499 97.4984 116.499 92.2984 116.499 85.9984C116.499 79.6984 111.599 74.4984 104.699 74.4984ZM104.699 91.8984C101.399 91.8984 98.8991 89.2984 98.8991 85.9984C98.8991 82.7984 101.399 80.1984 104.699 80.1984C107.999 80.1984 110.499 82.7984 110.499 85.9984C110.499 89.1984 108.099 91.8984 104.699 91.8984ZM64.6991 90.0984C64.6991 95.6984 59.7991 97.5984 55.4991 97.5984C52.4991 97.5984 49.6991 97.0984 49.3991 96.9984V91.7984C49.8991 91.8984 52.1991 92.5984 54.6991 92.5984C57.4991 92.5984 58.7991 91.7984 58.7991 90.4984C58.7991 89.3984 57.6991 88.6984 56.2991 88.2984C55.9991 88.1984 55.3991 87.9984 55.0991 87.8984C51.9991 86.8984 49.3991 85.0984 49.3991 81.3984C49.3991 77.1984 52.4991 74.3984 57.6991 74.3984C60.3991 74.3984 62.9991 75.0984 63.1991 75.0984V79.7984C63.0991 79.7984 60.7991 79.0984 58.7991 79.0984C56.4991 79.0984 55.2991 79.8984 55.2991 80.8984C55.2991 82.2984 56.8991 82.6984 57.8991 82.9984L59.3991 83.4984C62.9991 84.8984 64.6991 87.3984 64.6991 90.0984ZM36.1991 74.8984H41.7991V97.0984H36.1991V74.8984ZM23.3991 74.4984C25.9991 74.4984 27.9991 75.0984 28.4991 75.2984V81.2984C28.2991 81.1984 26.4991 80.0984 23.7991 80.0984C20.1991 80.0984 17.5991 82.5984 17.5991 85.9984C17.5991 89.2984 19.9991 91.8984 23.7991 91.8984C26.3991 91.8984 28.2991 90.8984 28.4991 90.6984V96.6984C27.7991 96.8984 25.8991 97.4984 23.3991 97.4984C17.0991 97.4984 11.5991 93.0984 11.5991 85.9984C11.4991 79.3984 16.4991 74.4984 23.3991 74.4984ZM81.9991 74.4984C84.5991 74.4984 86.5991 75.0984 87.0991 75.2984V81.2984C86.8991 81.1984 85.0991 80.0984 82.3991 80.0984C78.7991 80.0984 76.1991 82.5984 76.1991 85.9984C76.1991 89.2984 78.5991 91.8984 82.3991 91.8984C84.9991 91.8984 86.8991 90.8984 87.0991 90.6984V96.6984C86.3991 96.8984 84.4991 97.4984 81.9991 97.4984C75.6991 97.4984 70.1991 93.0984 70.1991 85.9984C70.0991 79.3984 75.0991 74.4984 81.9991 74.4984Z" fill="url(#paint0_linear_5027_121751)"/>
<path d="M5.6 51V56.8C5.6 58.3 4.3 59.6 2.8 59.6C1.3 59.6 0 58.4 0 56.8V51C0 49.5 1.3 48.2 2.8 48.2C4.3 48.2 5.6 49.5 5.6 51ZM18.1 59.6C19.6 59.6 20.9 58.4 20.9 56.8V43.3C20.9 41.8 19.6 40.5 18.1 40.5C16.6 40.5 15.3 41.7 15.3 43.3V56.8C15.3 58.4 16.6 59.6 18.1 59.6ZM33.4 30.1C32.2 30.1 31.3 30.8 30.8 31.8C30.7 32.1 30.6 32.5 30.6 32.9V62.4C30.6 62.8 30.7 63.2 30.8 63.5C31.2 64.5 32.2 65.2 33.4 65.2C34.6 65.2 35.5 64.5 36 63.5C36.1 63.2 36.2 62.8 36.2 62.4V32.8C36.2 32.4 36.1 32.1 36 31.7C35.5 30.8 34.5 30.1 33.4 30.1ZM51.5 56.8V43.3C51.5 41.8 50.2 40.5 48.7 40.5C47.2 40.5 45.9 41.7 45.9 43.3V56.8C45.9 58.3 47.2 59.6 48.7 59.6C50.2 59.6 51.5 58.4 51.5 56.8ZM64 48.2C62.4 48.2 61.2 49.4 61.2 51V56.8C61.2 58.3 62.5 59.6 64 59.6C65.5 59.6 66.8 58.4 66.8 56.8V51C66.8 49.5 65.5 48.2 64 48.2ZM109.9 59.6C111.4 59.6 112.7 58.4 112.7 56.8V43.3C112.7 41.8 111.4 40.5 109.9 40.5C108.4 40.5 107.1 41.7 107.1 43.3V56.8C107.1 58.4 108.4 59.6 109.9 59.6ZM125.2 48.2C123.7 48.2 122.4 49.4 122.4 51V56.8C122.4 58.3 123.7 59.6 125.2 59.6C126.7 59.6 128 58.4 128 56.8V51C128 49.5 126.7 48.2 125.2 48.2ZM94.6 65.2C95.6 65.2 96.4 64.7 96.9 64C97.2 63.6 97.4 63 97.4 62.4V32.8C97.4 32.2 97.2 31.7 96.9 31.2C96.4 30.5 95.5 30 94.6 30C93.6 30 92.8 30.5 92.3 31.2C92 31.6 91.8 32.2 91.8 32.8V62.3C91.8 62.9 92 63.4 92.3 63.9C92.8 64.7 93.6 65.2 94.6 65.2ZM79.3 59.6C80.8 59.6 82.1 58.4 82.1 56.8V43.3C82.1 41.8 80.8 40.5 79.3 40.5C77.8 40.5 76.5 41.7 76.5 43.3V56.8C76.5 58.4 77.8 59.6 79.3 59.6Z" fill="url(#paint1_linear_5027_121751)"/>
<defs>
<linearGradient id="paint0_linear_5027_121751" x1="64.0009" y1="97.5302" x2="64.0009" y2="74.492" gradientUnits="userSpaceOnUse">
<stop stop-color="#98162A"/>
<stop offset="0.48" stop-color="#E50A2B"/>
<stop offset="0.5" stop-color="#EF6C80"/>
<stop offset="1" stop-color="#E50A2B"/>
</linearGradient>
<linearGradient id="paint1_linear_5027_121751" x1="64" y1="65.1639" x2="64" y2="30.0682" gradientUnits="userSpaceOnUse">
<stop stop-color="#0D6A7F"/>
<stop offset="0.48" stop-color="#00A6CC"/>
<stop offset="0.5" stop-color="#66CAE0"/>
<stop offset="1" stop-color="#00A6CC"/>
</linearGradient>
</defs>
</svg>
