<svg width="128" height="128" viewBox="0 0 128 128" fill="none" xmlns="http://www.w3.org/2000/svg">
<rect x="10" y="10" width="107" height="107" fill="white"/>
<path d="M112 0H16C11.7565 0 7.68687 1.68571 4.68629 4.68629C1.68571 7.68687 0 11.7565 0 16L0 112C0 116.243 1.68571 120.313 4.68629 123.314C7.68687 126.314 11.7565 128 16 128H112C116.229 127.979 120.278 126.283 123.261 123.285C126.244 120.287 127.919 116.229 127.919 112V16C127.919 11.7706 126.244 7.71317 123.261 4.71491C120.278 1.71665 116.229 0.0214692 112 0ZM55.6751 96.9543C55.6537 98.9758 54.8357 100.907 53.3986 102.329C51.9616 103.751 50.0216 104.548 48 104.548H24.3655C22.3369 104.559 20.3865 103.766 18.9407 102.343C17.4948 100.92 16.6712 98.9828 16.6497 96.9543V24.3249C16.6497 23.3135 16.8496 22.3122 17.2378 21.3783C17.6261 20.4445 18.1951 19.5966 18.9121 18.8833C19.6291 18.1701 20.48 17.6056 21.4159 17.2223C22.3517 16.839 23.3542 16.6444 24.3655 16.6497H48C50.0356 16.6497 51.9878 17.4584 53.4271 18.8977C54.8665 20.3371 55.6751 22.2893 55.6751 24.3249V96.9543ZM111.371 64.9543C111.371 66.9899 110.562 68.9421 109.123 70.3814C107.683 71.8208 105.731 72.6294 103.695 72.6294H80C77.9644 72.6294 76.0122 71.8208 74.5729 70.3814C73.1335 68.9421 72.3249 66.9899 72.3249 64.9543V24.3452C72.3222 23.3356 72.5188 22.3353 72.9033 21.4018C73.2878 20.4683 73.8527 19.6198 74.5657 18.9049C75.2786 18.1901 76.1256 17.6229 77.0582 17.2359C77.9907 16.8489 78.9904 16.6497 80 16.6497H103.695C105.731 16.6497 107.683 17.4584 109.123 18.8977C110.562 20.3371 111.371 22.2893 111.371 24.3249V64.9543Z" fill="url(#paint0_linear_5027_123659)"/>
<defs>
<linearGradient id="paint0_linear_5027_123659" x1="64" y1="128.02" x2="64" y2="0.000412051" gradientUnits="userSpaceOnUse">
<stop offset="0.18" stop-color="#0052CC"/>
<stop offset="1" stop-color="#2684FF"/>
</linearGradient>
</defs>
</svg>
