<svg width="128" height="128" viewBox="0 0 128 128" fill="none" xmlns="http://www.w3.org/2000/svg">
<g clip-path="url(#clip0_5027_123241)">
<path d="M0 16C0 7.16344 7.16344 0 16 0H112C120.837 0 128 7.16344 128 16V112C128 120.837 120.837 128 112 128H16C7.16344 128 0 120.837 0 112V16Z" fill="#040301"/>
<path d="M5 16C5 9.92487 9.92487 5 16 5H112C118.075 5 123 9.92487 123 16V112C123 118.075 118.075 123 112 123H16C9.92487 123 5 118.075 5 112V16Z" fill="#FFAB00"/>
<path d="M96.6918 78.5631H85.1666L83.1707 66.0078L75.7662 78.4344H64.1123L71.1948 85.9032L65.4 98.4585L78.1485 90.8609L88.1284 98.5873L86.2612 85.9032" fill="white"/>
<path d="M104.74 76.0543H87.2917L84.5231 58.67L74.3501 75.9255H72.4185C71.2596 73.9296 70.8089 71.0322 70.8089 69.2294C70.8089 66.2676 71.002 63.3702 71.002 59.5714C71.002 54.5493 69.5211 51.9095 65.5936 50.9437V50.8149C73.8994 49.6559 77.6982 44.1187 77.6982 36.3924C77.6982 25.3823 70.3582 23 60.7646 23H34.9457L24 74.7666H37.7143L41.7062 55.9014H50.8491C55.7425 55.9014 57.7384 58.2837 57.7384 62.8551C57.7384 66.332 57.3521 69.1006 57.3521 71.7404C57.3521 72.7062 57.5453 75.0241 58.2535 75.9255L68.169 86.4205L59.6056 104.771L77.8914 93.8893L91.5413 104.384L89.0302 87.0644L104.74 76.0543ZM54.9698 46.2435H44.0241L46.664 33.7525H56.837C60.4427 33.7525 64.2415 34.7183 64.2415 39.0966C64.2415 44.6982 59.9276 46.2435 54.9698 46.2435ZM78.1489 90.8632L65.4004 98.4608L71.2596 85.9698L64.1771 78.501H75.831L83.171 66.0744L85.167 78.6298H96.7565L86.326 85.9054L88.1932 98.6539L78.1489 90.8632Z" fill="#040301"/>
</g>
<defs>
<clipPath id="clip0_5027_123241">
<rect width="128" height="128" fill="white"/>
</clipPath>
</defs>
</svg>
