<svg width="128" height="128" viewBox="0 0 128 128" fill="none" xmlns="http://www.w3.org/2000/svg">
<rect width="128" height="128" rx="24" fill="#DB0F16"/>
<path d="M101.613 73.7739L101.406 73.5347L94.3388 80.2665C95.1782 81.2243 95.6143 82.4699 95.5556 83.7422C95.497 85.0145 94.9481 86.2146 94.0241 87.0912C93.1001 87.9678 91.8727 88.4526 90.5991 88.4442C89.3255 88.4358 88.1046 87.9348 87.1923 87.0461C86.9637 86.8442 86.7504 86.6256 86.5542 86.3921L67.5711 66.3562L93.4615 41.7739C77.286 26.5396 51.8902 25.8218 36.0337 41.1837C28.2339 48.6104 23.5862 58.7506 23.0518 69.5074C22.5173 80.2642 26.137 90.815 33.1624 98.9783L60.3927 73.1358L80.3967 94.2246C81.8251 95.5528 83.5017 96.586 85.3303 97.2649C87.1589 97.9438 89.1035 98.255 91.0527 98.1807C94.5854 98.0713 97.9535 96.6627 100.512 94.2246C102.003 92.8482 103.196 91.1816 104.019 89.3272C104.842 87.4728 105.277 85.4697 105.298 83.4409C105.327 79.8866 104.037 76.4477 101.677 73.7899M77.2222 44.1827L36.4166 82.8986C22.6818 58.6194 51.4276 29.5227 77.2062 44.1827" fill="white"/>
</svg>
