<svg width="128" height="128" viewBox="0 0 128 128" fill="none" xmlns="http://www.w3.org/2000/svg">
<path d="M0.704102 73.4976C2.7259 87.0467 9.05373 99.5857 18.7521 109.261L40.5761 87.424C40.5764 76.1899 43.5337 65.1538 49.1509 55.4249C54.768 45.696 62.8471 37.617 72.5761 32L0.704102 73.4976Z" fill="#9B65C3"/>
<path d="M40.5761 87.4264C29.3408 87.4449 18.3006 84.4906 8.5761 78.8632C5.82347 77.272 3.1923 75.4794 0.704102 73.5C2.7259 87.0491 9.05373 99.5881 18.7521 109.263L40.5761 87.4264Z" fill="#9B65C3"/>
<path d="M40.576 87.4219L18.752 109.246C28.4271 118.944 40.966 125.272 54.5152 127.294L96 55.4219C90.3829 65.1509 82.304 73.2299 72.575 78.8471C62.8461 84.4643 51.81 87.4216 40.576 87.4219Z" fill="#BE63C5"/>
<path d="M49.152 119.422C43.5246 109.697 40.5702 98.6572 40.5888 87.4219L18.752 109.246C28.4271 118.944 40.966 125.272 54.5152 127.294C52.5358 124.806 50.7432 122.175 49.152 119.422Z" fill="#BF63C6"/>
<path d="M121.958 3.5L72.576 32.0056C62.8468 37.6228 51.8104 40.58 40.5761 40.58C29.3417 40.58 18.3053 37.6228 8.57605 32.0056C2.94421 41.7288 -0.0145842 52.7691 5.40525e-05 64.0056C0.000445418 67.1845 0.235753 70.359 0.704054 73.5032C3.1927 75.4781 5.82386 77.2664 8.57605 78.8536C18.3005 84.481 29.3407 87.4353 40.5761 87.4168L123.302 4.7032C122.877 4.27724 122.429 3.87554 121.958 3.5Z" fill="#3278B1"/>
<path d="M8.5761 78.848C18.3006 84.4754 29.3408 87.4297 40.5761 87.4112C40.5786 76.1793 43.537 65.1459 49.1541 55.4194C54.7711 45.6929 62.849 37.616 72.5761 32L0.704102 73.4976C3.19272 75.4725 5.82388 77.2609 8.5761 78.848Z" fill="#3278B2"/>
<path d="M8.58883 32C2.95252 41.722 -0.0107202 52.7623 2.91415e-05 64C0.00032714 67.1789 0.235635 70.3534 0.704029 73.4976L72.576 32C62.8483 37.6148 51.8143 40.5707 40.5824 40.5707C29.3506 40.5707 18.3165 37.6148 8.58883 32Z" fill="#45A4EC"/>
<path d="M123.302 4.69761C122.312 3.69964 121.193 2.83866 119.974 2.13761C117.551 0.734126 114.8 -0.00335641 112 1.14837e-05H64.0001C52.7682 0.00254336 41.7347 2.96095 32.0082 8.57799C22.2818 14.195 14.2048 22.2729 8.58887 32C18.3181 37.6172 29.3545 40.5744 40.5889 40.5744C51.8232 40.5744 62.8596 37.6172 72.5889 32C62.8599 37.617 54.7808 45.696 49.1636 55.4249C43.5465 65.1538 40.5892 76.1899 40.5889 87.424C51.8208 87.4215 62.8542 84.4631 72.5807 78.846C82.3072 73.229 90.3841 65.1511 96.0001 55.424L124.506 6.04161C124.13 5.57136 123.728 5.12265 123.302 4.69761Z" fill="#19BB7D"/>
<path d="M72.5761 32.0044L121.958 3.49875C121.333 3.02475 120.675 2.59695 119.987 2.21875L8.58887 32.0044C18.3166 37.6191 29.3506 40.575 40.5825 40.575C51.8143 40.575 62.8484 37.6191 72.5761 32.0044Z" fill="#08C7FB"/>
<path d="M112 0H64.0001C52.7682 0.00253188 41.7347 2.96093 32.0082 8.57798C22.2818 14.195 14.2048 22.2729 8.58887 32L119.949 2.1504C117.535 0.746795 114.793 0.00503071 112 0V0Z" fill="#59F2F6"/>
<path d="M96.0003 55.4295L124.506 6.04712C124.13 5.57687 123.729 5.12816 123.303 4.70312L40.5763 87.4295C40.5577 98.6648 43.5121 109.705 49.1395 119.43C50.7306 122.182 52.5232 124.813 54.5027 127.302C57.6468 127.77 60.8214 128.005 64.0003 128.006C75.2379 128.016 86.2783 125.053 96.0003 119.417C90.3855 109.689 87.4296 98.655 87.4296 87.4231C87.4296 76.1913 90.3855 65.1572 96.0003 55.4295Z" fill="#DA3757"/>
<path d="M40.5763 87.4219C40.5577 98.6572 43.5121 109.697 49.1395 119.422C50.7307 122.175 52.5233 124.806 54.5027 127.294L96.0003 55.4219C90.3832 65.1509 82.3043 73.2299 72.5753 78.8471C62.8464 84.4643 51.8103 87.4216 40.5763 87.4219Z" fill="#D33C4E"/>
<path d="M96 55.4219L54.5024 127.294C57.6466 127.762 60.8211 127.998 64 127.998C75.2377 128.009 86.2781 125.045 96 119.409C90.3852 109.681 87.4294 98.6473 87.4294 87.4155C87.4294 76.1836 90.3852 65.1496 96 55.4219Z" fill="#EE5A24"/>
<path d="M125.85 8.0312C124.865 6.29333 123.563 4.75619 122.01 3.5L72.5762 32.0056C62.8472 37.6226 54.7681 45.7016 49.151 55.4305C43.5338 65.1594 40.5765 76.1955 40.5762 87.4296C51.8102 87.4293 62.8463 84.472 72.5752 78.8548C82.3042 73.2377 90.3831 65.1586 96.0002 55.4296C90.383 65.1588 87.4258 76.1953 87.4258 87.4296C87.4258 98.6639 90.383 109.7 96.0002 119.43C105.729 113.813 113.808 105.734 119.425 96.0047C125.043 86.2758 128 75.2397 128 64.0056V16.0056C128 13.2043 127.258 10.453 125.85 8.0312Z" fill="#8BDF55"/>
<path d="M121.959 3.5L72.5762 32.0056C62.8472 37.6226 54.7681 45.7016 49.151 55.4305C43.5338 65.1594 40.5765 76.1955 40.5762 87.4296L123.303 4.7032C122.877 4.27728 122.429 3.87558 121.959 3.5Z" fill="#25C16F"/>
<path d="M40.5762 87.4295C51.8102 87.4293 62.8463 84.4719 72.5752 78.8548C82.3042 73.2376 90.3831 65.1585 96.0002 55.4295L124.506 6.04712C124.13 5.57698 123.728 5.12827 123.303 4.70312L40.5762 87.4295Z" fill="#8BDF55"/>
<path d="M124.506 6.04688L96.0002 55.4293C90.383 65.1585 87.4258 76.1949 87.4258 87.4293C87.4258 98.6636 90.383 109.7 96.0002 119.429L125.85 8.06928C125.453 7.36235 125.004 6.68631 124.506 6.04688Z" fill="#FFBB00"/>
<path d="M96 119.409C105.727 113.793 113.805 105.716 119.422 95.9897C125.039 86.2632 127.997 75.2297 128 63.9978V15.9978C127.999 13.1965 127.258 10.4452 125.85 8.02344L96 119.409Z" fill="#FFA800"/>
</svg>
