<svg width="128" height="128" viewBox="0 0 128 128" fill="none" xmlns="http://www.w3.org/2000/svg">
<g clip-path="url(#clip0_5027_123726)">
<path d="M0 16C0 7.16344 7.16344 0 16 0H112C120.837 0 128 7.16344 128 16V112C128 120.837 120.837 128 112 128H16C7.16344 128 0 120.837 0 112V16Z" fill="url(#paint0_linear_5027_123726)"/>
<path d="M15.1545 68.8203C15.1851 70.7279 16.7859 71.4976 18.5091 71.4976C19.7705 71.4976 21.3708 71.0052 21.3708 69.4657C21.3708 68.143 19.555 67.6805 16.4159 67.0039C13.8922 66.4496 11.3693 65.5574 11.3693 62.7569C11.3693 58.695 14.8777 57.6484 18.2935 57.6484C21.7713 57.6484 24.9717 58.8174 25.3103 62.7257H21.156C21.0329 61.0337 19.74 60.572 18.1711 60.572C17.1858 60.572 15.7393 60.7562 15.7393 62.049C15.7393 63.6186 18.2018 63.8335 20.6939 64.419C23.2484 65.0032 25.7414 65.9266 25.7414 68.8815C25.7414 73.0666 22.11 74.4205 18.4785 74.4205C14.7859 74.4205 11.1857 73.0359 11 68.8196H15.1545V68.8203Z" fill="#666666"/>
<path d="M34.7891 57.6484C39.8059 57.6484 43.0367 60.9724 43.0367 66.0498C43.0367 71.0971 39.8059 74.4205 34.7891 74.4205C29.8035 74.4205 26.572 71.0971 26.572 66.0498C26.572 60.9724 29.8035 57.6484 34.7891 57.6484ZM34.7891 71.1277C37.7739 71.1277 38.6662 68.5734 38.6662 66.0498C38.6662 63.4955 37.7739 60.9412 34.7891 60.9412C31.8343 60.9412 30.9421 63.4955 30.9421 66.0498C30.9421 68.5741 31.8343 71.1277 34.7891 71.1277Z" fill="#666666"/>
<path d="M59.0161 73.9886H54.8617V71.7724H54.7691C53.6607 73.5575 51.7531 74.4198 49.9068 74.4198C45.26 74.4198 44.0903 71.8036 44.0903 67.8641V58.0781H48.4609V67.0643C48.4609 69.6806 49.2302 70.9726 51.2614 70.9726C53.6307 70.9726 54.6467 69.6499 54.6467 66.4176V58.0781H59.0161V73.9886Z" fill="#666666"/>
<path d="M60.3403 58.0795H64.494V61.0337H64.5557C65.3556 59.0337 67.5101 57.6484 69.6339 57.6484C69.9419 57.6484 70.3111 57.7102 70.588 57.8022V61.8647C70.1874 61.7716 69.5413 61.7103 69.019 61.7103C65.8184 61.7103 64.7102 64.0185 64.7102 66.8188V73.9893H60.3403V58.0795Z" fill="#666666"/>
<path d="M81.3593 63.6876C81.082 61.903 79.943 60.949 78.1285 60.949C75.3274 60.949 74.404 63.78 74.404 66.1194C74.404 68.3963 75.2969 71.1355 78.0354 71.1355C80.0667 71.1355 81.2363 69.8433 81.5131 67.9046H85.7295C85.1752 72.1203 82.2518 74.429 78.0667 74.429C73.2655 74.429 70.0347 71.0437 70.0347 66.2738C70.0347 61.3189 72.9888 57.6562 78.1585 57.6562C81.9137 57.6562 85.3602 59.6256 85.6371 63.6876H81.3593Z" fill="#666666"/>
<path d="M90.5604 67.1035C90.6835 69.8733 92.0382 71.1355 94.4686 71.1355C96.2232 71.1355 97.6391 70.0583 97.9152 69.0735H101.762C100.531 72.8282 97.9152 74.4283 94.3152 74.4283C89.2989 74.4283 86.1904 70.9812 86.1904 66.0577C86.1904 61.2877 89.4832 57.6562 94.3152 57.6562C99.7317 57.6562 102.347 62.2112 102.04 67.1041H90.5604V67.1035ZM97.6697 64.3337C97.2692 62.1181 96.3149 60.949 94.1913 60.949C91.4221 60.949 90.6216 63.1034 90.5604 64.3337H97.6697Z" fill="#666666"/>
<path d="M117.061 46.4457C116.061 46.0359 115.138 45.9879 114.015 46.0021L94.9925 46.1065C91.0669 45.9069 87.1973 46.8683 83.8525 48.7938L83.8559 48.7978C83.2577 49.1238 82.8506 49.7595 82.8506 50.4885C82.8506 51.551 83.7128 52.4127 84.7747 52.4127C85.3289 52.4127 85.8265 52.1771 86.1779 51.8025C90.3603 49.5609 95.4722 49.1298 100.194 51.0687C108.58 54.5111 112.602 64.1355 109.158 72.5209C108.235 74.7697 106.864 76.7012 105.194 78.2634L105.208 78.284C104.637 78.6174 104.251 79.2362 104.251 79.9462C104.251 81.0087 105.114 81.8696 106.176 81.8696C106.86 81.8696 107.46 81.511 107.801 80.9714C109.836 79.0585 111.504 76.6939 112.632 73.946C112.71 73.7584 120.504 54.7739 120.524 54.7233C121.855 51.4832 120.301 47.7758 117.061 46.4457Z" fill="#F79A10"/>
</g>
<defs>
<linearGradient id="paint0_linear_5027_123726" x1="64" y1="0" x2="64" y2="128" gradientUnits="userSpaceOnUse">
<stop stop-color="white"/>
<stop offset="1" stop-color="#EEEEEE"/>
</linearGradient>
<clipPath id="clip0_5027_123726">
<rect width="128" height="128" fill="white"/>
</clipPath>
</defs>
</svg>
