<svg width="128" height="128" viewBox="0 0 128 128" fill="none" xmlns="http://www.w3.org/2000/svg">
<rect width="128" height="128" rx="24" fill="url(#paint0_linear_5027_117665)"/>
<path d="M64.9002 86.7969H62.7002V102.597H64.9002V86.7969Z" fill="#4C20A0"/>
<path d="M64.9 25H62.7V40.8H64.9V25Z" fill="#4C20A0"/>
<path d="M69.333 80.3916L67.208 80.9609L71.297 96.2222L73.422 95.6528L69.333 80.3916Z" fill="#4C20A0"/>
<path d="M56.2334 31.4931L54.1084 32.0625L58.1974 47.3237L60.3224 46.7544L56.2334 31.4931Z" fill="#4C20A0"/>
<path d="M76.228 83.2281L74.3228 84.3281L82.2228 98.0109L84.128 96.9109L76.228 83.2281Z" fill="#4C20A0"/>
<path d="M45.2958 29.6344L43.3906 30.7344L51.2906 44.4172L53.1958 43.3172L45.2958 29.6344Z" fill="#4C20A0"/>
<path d="M76.8964 75.3194L75.3408 76.875L86.513 88.0472L88.0686 86.4916L76.8964 75.3194Z" fill="#4C20A0"/>
<path d="M41.0947 39.5303L39.5391 41.0859L50.7112 52.2581L52.2669 50.7025L41.0947 39.5303Z" fill="#4C20A0"/>
<path d="M84.2841 74.4229L83.1841 76.3281L96.8669 84.2281L97.9669 82.3229L84.2841 74.4229Z" fill="#4C20A0"/>
<path d="M30.7748 43.4854L29.6748 45.3906L43.3576 53.2906L44.4576 51.3854L30.7748 43.4854Z" fill="#4C20A0"/>
<path d="M80.9365 67.2813L80.3672 69.4062L95.6284 73.4953L96.1978 71.3703L80.9365 67.2813Z" fill="#4C20A0"/>
<path d="M32.0425 54.1875L31.4731 56.3125L46.7344 60.4015L47.3037 58.2766L32.0425 54.1875Z" fill="#4C20A0"/>
<path d="M102.6 62.7031H86.7998V64.9031H102.6V62.7031Z" fill="#4C20A0"/>
<path d="M40.8 62.7031H25V64.9031H40.8V62.7031Z" fill="#4C20A0"/>
<path d="M95.6313 54.0828L80.3701 58.1719L80.9395 60.2969L96.2007 56.2078L95.6313 54.0828Z" fill="#4C20A0"/>
<path d="M46.7319 67.1766L31.4707 71.2656L32.0401 73.3906L47.3013 69.3016L46.7319 67.1766Z" fill="#4C20A0"/>
<path d="M96.8664 43.3813L83.1836 51.2812L84.2836 53.1864L97.9664 45.2864L96.8664 43.3813Z" fill="#4C20A0"/>
<path d="M43.2717 74.3109L29.5889 82.2109L30.6889 84.1161L44.3717 76.2161L43.2717 74.3109Z" fill="#4C20A0"/>
<path d="M86.5086 39.5231L75.3364 50.6953L76.892 52.2509L88.0642 41.0788L86.5086 39.5231Z" fill="#4C20A0"/>
<path d="M50.7147 75.3278L39.5425 86.5L41.0981 88.0556L52.2703 76.8834L50.7147 75.3278Z" fill="#4C20A0"/>
<path d="M82.2506 29.575L74.3506 43.2578L76.2558 44.3578L84.1558 30.675L82.2506 29.575Z" fill="#4C20A0"/>
<path d="M51.3131 83.0828L43.4131 96.7656L45.3183 97.8656L53.2183 84.1828L51.3131 83.0828Z" fill="#4C20A0"/>
<path d="M71.2961 31.3638L67.207 46.625L69.332 47.1944L73.4211 31.9331L71.2961 31.3638Z" fill="#4C20A0"/>
<path d="M58.1974 80.2544L54.1084 95.5156L56.2334 96.085L60.3224 80.8238L58.1974 80.2544Z" fill="#4C20A0"/>
<path d="M63.8002 46.3016C64.6838 46.3016 65.4002 45.5852 65.4002 44.7016C65.4002 43.8179 64.6838 43.1016 63.8002 43.1016C62.9165 43.1016 62.2002 43.8179 62.2002 44.7016C62.2002 45.5852 62.9165 46.3016 63.8002 46.3016Z" fill="#00B8D6"/>
<path d="M63.8002 84.4031C64.6838 84.4031 65.4002 83.6868 65.4002 82.8031C65.4002 81.9195 64.6838 81.2031 63.8002 81.2031C62.9165 81.2031 62.2002 81.9195 62.2002 82.8031C62.2002 83.6868 62.9165 84.4031 63.8002 84.4031Z" fill="#00B8D6"/>
<path d="M54.2001 29.4969C55.0838 29.4969 55.8001 28.7805 55.8001 27.8969C55.8001 27.0132 55.0838 26.2969 54.2001 26.2969C53.3164 26.2969 52.6001 27.0132 52.6001 27.8969C52.6001 28.7805 53.3164 29.4969 54.2001 29.4969Z" fill="#00B8D6"/>
<path d="M73.3998 101.302C74.2835 101.302 74.9998 100.585 74.9998 99.7016C74.9998 98.8179 74.2835 98.1016 73.3998 98.1016C72.5162 98.1016 71.7998 98.8179 71.7998 99.7016C71.7998 100.585 72.5162 101.302 73.3998 101.302Z" fill="#00B8D6"/>
<path d="M54.3002 48.9031C55.1838 48.9031 55.9002 48.1868 55.9002 47.3031C55.9002 46.4195 55.1838 45.7031 54.3002 45.7031C53.4165 45.7031 52.7002 46.4195 52.7002 47.3031C52.7002 48.1868 53.4165 48.9031 54.3002 48.9031Z" fill="#00B8D6"/>
<path d="M73.3002 81.9031C74.1838 81.9031 74.9002 81.1868 74.9002 80.3031C74.9002 79.4195 74.1838 78.7031 73.3002 78.7031C72.4165 78.7031 71.7002 79.4195 71.7002 80.3031C71.7002 81.1868 72.4165 81.9031 73.3002 81.9031Z" fill="#00B8D6"/>
<path d="M37.4999 39.0984C38.3836 39.0984 39.0999 38.3821 39.0999 37.4984C39.0999 36.6148 38.3836 35.8984 37.4999 35.8984C36.6162 35.8984 35.8999 36.6148 35.8999 37.4984C35.8999 38.3821 36.6162 39.0984 37.4999 39.0984Z" fill="#00B8D6"/>
<path d="M90.1 91.7C90.9837 91.7 91.7 90.9837 91.7 90.1C91.7 89.2163 90.9837 88.5 90.1 88.5C89.2163 88.5 88.5 89.2163 88.5 90.1C88.5 90.9837 89.2163 91.7 90.1 91.7Z" fill="#00B8D6"/>
<path d="M47.3002 55.9031C48.1838 55.9031 48.9002 55.1868 48.9002 54.3031C48.9002 53.4195 48.1838 52.7031 47.3002 52.7031C46.4165 52.7031 45.7002 53.4195 45.7002 54.3031C45.7002 55.1868 46.4165 55.9031 47.3002 55.9031Z" fill="#00B8D6"/>
<path d="M80.3002 74.9031C81.1838 74.9031 81.9002 74.1868 81.9002 73.3031C81.9002 72.4195 81.1838 71.7031 80.3002 71.7031C79.4165 71.7031 78.7002 72.4195 78.7002 73.3031C78.7002 74.1868 79.4165 74.9031 80.3002 74.9031Z" fill="#00B8D6"/>
<path d="M27.8998 55.8016C28.7835 55.8016 29.4998 55.0852 29.4998 54.2016C29.4998 53.3179 28.7835 52.6016 27.8998 52.6016C27.0161 52.6016 26.2998 53.3179 26.2998 54.2016C26.2998 55.0852 27.0161 55.8016 27.8998 55.8016Z" fill="#00B8D6"/>
<path d="M99.7001 74.9969C100.584 74.9969 101.3 74.2805 101.3 73.3969C101.3 72.5132 100.584 71.7969 99.7001 71.7969C98.8164 71.7969 98.1001 72.5132 98.1001 73.3969C98.1001 74.2805 98.8164 74.9969 99.7001 74.9969Z" fill="#00B8D6"/>
<path d="M44.7001 65.4031C45.5838 65.4031 46.3001 64.6868 46.3001 63.8031C46.3001 62.9195 45.5838 62.2031 44.7001 62.2031C43.8164 62.2031 43.1001 62.9195 43.1001 63.8031C43.1001 64.6868 43.8164 65.4031 44.7001 65.4031Z" fill="#00B8D6"/>
<path d="M82.8002 65.4031C83.6838 65.4031 84.4002 64.6868 84.4002 63.8031C84.4002 62.9195 83.6838 62.2031 82.8002 62.2031C81.9165 62.2031 81.2002 62.9195 81.2002 63.8031C81.2002 64.6868 81.9165 65.4031 82.8002 65.4031Z" fill="#00B8D6"/>
<path d="M27.8998 74.9969C28.7835 74.9969 29.4998 74.2805 29.4998 73.3969C29.4998 72.5132 28.7835 71.7969 27.8998 71.7969C27.0161 71.7969 26.2998 72.5132 26.2998 73.3969C26.2998 74.2805 27.0161 74.9969 27.8998 74.9969Z" fill="#00B8D6"/>
<path d="M99.7001 55.8016C100.584 55.8016 101.3 55.0852 101.3 54.2016C101.3 53.3179 100.584 52.6016 99.7001 52.6016C98.8164 52.6016 98.1001 53.3179 98.1001 54.2016C98.1001 55.0852 98.8164 55.8016 99.7001 55.8016Z" fill="#00B8D6"/>
<path d="M47.3002 74.9031C48.1838 74.9031 48.9002 74.1868 48.9002 73.3031C48.9002 72.4195 48.1838 71.7031 47.3002 71.7031C46.4165 71.7031 45.7002 72.4195 45.7002 73.3031C45.7002 74.1868 46.4165 74.9031 47.3002 74.9031Z" fill="#00B8D6"/>
<path d="M80.3002 55.9031C81.1838 55.9031 81.9002 55.1868 81.9002 54.3031C81.9002 53.4195 81.1838 52.7031 80.3002 52.7031C79.4165 52.7031 78.7002 53.4195 78.7002 54.3031C78.7002 55.1868 79.4165 55.9031 80.3002 55.9031Z" fill="#00B8D6"/>
<path d="M37.4999 91.7C38.3836 91.7 39.0999 90.9837 39.0999 90.1C39.0999 89.2163 38.3836 88.5 37.4999 88.5C36.6162 88.5 35.8999 89.2163 35.8999 90.1C35.8999 90.9837 36.6162 91.7 37.4999 91.7Z" fill="#00B8D6"/>
<path d="M90.1 39.0984C90.9837 39.0984 91.7 38.3821 91.7 37.4984C91.7 36.6148 90.9837 35.8984 90.1 35.8984C89.2163 35.8984 88.5 36.6148 88.5 37.4984C88.5 38.3821 89.2163 39.0984 90.1 39.0984Z" fill="#00B8D6"/>
<path d="M54.3002 81.9031C55.1838 81.9031 55.9002 81.1868 55.9002 80.3031C55.9002 79.4195 55.1838 78.7031 54.3002 78.7031C53.4165 78.7031 52.7002 79.4195 52.7002 80.3031C52.7002 81.1868 53.4165 81.9031 54.3002 81.9031Z" fill="#00B8D6"/>
<path d="M73.3002 48.9031C74.1838 48.9031 74.9002 48.1868 74.9002 47.3031C74.9002 46.4195 74.1838 45.7031 73.3002 45.7031C72.4165 45.7031 71.7002 46.4195 71.7002 47.3031C71.7002 48.1868 72.4165 48.9031 73.3002 48.9031Z" fill="#00B8D6"/>
<path d="M54.2001 101.302C55.0838 101.302 55.8001 100.585 55.8001 99.7016C55.8001 98.8179 55.0838 98.1016 54.2001 98.1016C53.3164 98.1016 52.6001 98.8179 52.6001 99.7016C52.6001 100.585 53.3164 101.302 54.2001 101.302Z" fill="#00B8D6"/>
<path d="M73.3998 29.4969C74.2835 29.4969 74.9998 28.7805 74.9998 27.8969C74.9998 27.0132 74.2835 26.2969 73.3998 26.2969C72.5162 26.2969 71.7998 27.0132 71.7998 27.8969C71.7998 28.7805 72.5162 29.4969 73.3998 29.4969Z" fill="#00B8D6"/>
<defs>
<linearGradient id="paint0_linear_5027_117665" x1="64" y1="0" x2="64" y2="128" gradientUnits="userSpaceOnUse">
<stop stop-color="#FAFAFA"/>
<stop offset="1" stop-color="#E4E4E3"/>
</linearGradient>
</defs>
</svg>
