<svg width="128" height="128" viewBox="0 0 128 128" fill="none" xmlns="http://www.w3.org/2000/svg">
<path fill-rule="evenodd" clip-rule="evenodd" d="M88.4647 22C69.5668 28.5285 60.2051 43.7075 58.0043 63.615C55.9623 82.09 45.3264 90.613 35.5339 93.9293L39.536 105.231C58.4338 98.7027 67.7956 83.5233 69.9963 63.6162C72.0383 45.1412 82.6742 36.6181 92.4664 33.3018L88.4647 22ZM78.4007 63.615C78.4007 49.0757 89.5037 38.9308 103.2 38.9308C116.897 38.9308 128 49.0757 128 63.615V86.429H115.498V63.615C115.498 55.4945 109.992 50.609 103.2 50.609C96.4083 50.609 90.9024 55.4945 90.9024 63.615L90.8697 86.429H78.4007V63.615ZM24.7995 50.609C18.0075 50.609 12.5016 55.4945 12.5016 63.615C12.5016 71.5092 18.0075 76.706 24.7995 76.706C31.5917 76.706 37.0979 71.5092 37.0979 63.615C37.0979 55.4945 31.5917 50.609 24.7995 50.609ZM49.5993 63.615C49.5993 78.1546 38.496 88.2991 24.7995 88.2991C11.1032 88.2991 0 78.1546 0 63.615C0 49.0757 11.1032 38.9308 24.7995 38.9308C38.496 38.9308 49.5993 49.0757 49.5993 63.615Z" fill="#FF0000"/>
</svg>
