<svg width="128" height="128" viewBox="0 0 128 128" fill="none" xmlns="http://www.w3.org/2000/svg">
<rect width="128" height="128" rx="24" fill="#F54343"/>
<path d="M94.9756 37.8969C87.0534 32.268 76.1673 31.162 68.0768 34.602C63.2549 36.6486 57.7132 41.5053 55.2282 47.8715C54.3884 49.9908 53.783 52.1957 53.4226 54.4467C52.9436 57.5645 52.9117 60.2003 51.8202 62.4589C51.0301 64.0209 49.8118 65.3258 48.3076 66.2211C48.714 66.3343 49.1407 66.4446 49.6575 66.5114C50.9058 66.6518 52.1697 66.4967 53.3471 66.0585C57.1732 64.5867 58.3634 61.9624 60.2213 59.074C62.6773 55.2682 66.3263 52.5133 71.2468 52.7746C74.263 52.9429 75.7551 53.9241 76.7624 54.3857C80.754 56.7894 82.2955 61.3499 82.7542 63.7216C82.7658 63.7797 83.0328 65.327 83.117 65.8902C83.7121 70.5581 83.0822 74.6455 81.802 78.5964C76.9482 93.6106 61.2606 103.913 44.6527 99.7387C37.6508 97.9737 31.7026 93.7964 26.6631 88.5478C26.5702 88.4433 25.9199 87.7059 25.8793 87.6798C25.8822 87.7466 26.4395 88.5159 26.5324 88.6871C27.8533 90.6466 29.0812 92.252 30.6634 94.0141C34.1237 97.8518 38.4259 101.353 43.1345 103.147C44.2057 103.611 45.1956 103.922 46.3452 104.27C47.1464 104.546 47.8779 104.735 48.6327 104.929C48.653 104.929 48.6066 104.906 48.6356 104.906C49.4252 105.074 50.0871 105.22 51.0625 105.33C53.2107 105.661 55.086 105.678 57.1965 105.649C61.0806 105.611 64.7413 104.561 68.039 103.411C68.0332 103.388 68.0564 103.423 68.0564 103.399C70.9293 102.224 73.6607 100.729 76.1993 98.9433C87.2828 91.1111 92.2439 77.4091 91.254 64.7174C91.0491 62.2572 90.585 59.8255 89.8693 57.4628C89.9361 57.5412 90.0667 57.6312 90.1306 57.7125C90.9289 58.7808 91.7011 59.9333 92.212 61.0132C92.9261 62.5198 93.6519 64.2906 93.9683 65.7247C94.8856 69.2431 94.8798 71.49 94.8653 71.2839C95.1092 77.0375 94.5924 82.2919 92.7229 87.0499C90.4267 92.8471 86.1187 98.3395 80.8672 102.151C76.1151 105.6 70.9681 107.847 64.3174 108.996C64.3697 109.02 65.2696 108.976 65.3073 109.002C69.4586 108.871 73.4211 108.395 77.163 107.092C77.2037 107.08 77.1456 107.092 77.1863 107.08C80.5771 105.974 83.7727 104.341 86.6557 102.241C90.5648 99.3361 93.8196 95.6421 96.2094 91.3985C100.581 83.575 102.277 73.5975 100.683 64.0352C100.036 60.1655 98.8163 56.8416 97.3648 53.4916C96.6507 51.9182 95.6172 49.8861 94.8827 48.7278C94.9727 48.7046 95.2863 48.9543 95.4227 49.0617C95.9046 49.5058 96.2065 49.7148 96.6768 50.1532C99.3185 52.9139 101.168 55.6021 102.846 59.2975C103.429 60.5951 103.833 61.7854 104.274 63.2601C104.753 65.0482 105.072 66.8756 105.226 68.7205C105.571 71.76 105.368 73.9691 105.168 76.1899C104.881 78.8715 104.345 81.5206 103.568 84.1034C103.383 84.7855 102.927 86.3299 102.401 87.3315C103.037 86.4925 103.104 86.3444 103.412 85.8684C104.439 84.2253 106.225 80.1379 107.113 77.2175C107.589 75.6441 107.969 74.2855 108.263 72.6308C108.553 71.1561 108.721 69.8846 108.846 68.6218C109.943 57.4425 104.773 44.8437 94.9756 37.8969Z" fill="white"/>
<path d="M61.3535 68.007C62.9124 67.8154 64.062 67.2203 64.9184 66.3291C66.2741 64.8951 66.8082 63.551 68.878 61.8266C69.6154 61.2518 70.5443 60.7961 71.2991 60.5871C70.2882 59.9873 69.1485 59.638 67.9752 59.5681C65.2261 59.4288 63.5888 60.3751 62.1373 62.323C60.4101 64.6512 59.0399 66.4278 56.6885 66.9968C57.002 67.2726 57.5419 67.5368 57.9861 67.6993C59.073 68.0448 60.222 68.1498 61.3535 68.007Z" fill="white"/>
<path d="M33.0177 90.1147C40.937 95.7435 51.8231 96.8438 59.9195 93.4066C64.7355 91.363 70.2802 86.5034 72.7564 80.1372C73.5779 78.0471 74.2079 75.8727 74.5649 73.562C75.0468 70.4442 75.0759 67.8112 76.1703 65.5498C76.838 64.1796 77.9904 62.8268 79.6858 61.7846C79.2765 61.6743 78.8526 61.5582 78.3359 61.4943C77.0818 61.3463 75.7232 61.535 74.6462 61.9559C70.8201 63.4248 69.6328 66.052 67.7691 68.9317C65.3132 72.7375 61.6671 75.4866 56.7523 75.2312C53.7304 75.0657 52.2382 74.0845 51.2367 73.62C47.2422 71.2222 45.6979 66.6645 45.2363 64.287C45.1079 63.5648 44.9888 62.8409 44.8792 62.1156C44.2812 57.4476 44.9054 53.3631 46.1914 49.4035C51.0422 34.3952 66.7327 24.0984 83.3319 28.2699C90.3397 30.032 96.2878 34.2094 101.327 39.4579C101.417 39.5624 102.065 40.3056 102.111 40.3317C102.105 40.2621 101.551 39.487 101.452 39.3186C100.208 37.4454 98.8284 35.666 97.3242 33.9946C93.8668 30.1626 89.5558 26.6617 84.8501 24.8618C83.8023 24.4261 82.7292 24.0539 81.6366 23.7471C80.8854 23.4939 80.123 23.2749 79.3519 23.091C79.3345 23.091 79.381 23.1113 79.3519 23.1113C78.5594 22.9488 77.8946 22.7978 76.9251 22.6817C74.7711 22.3595 72.9044 22.3392 70.7911 22.3595C66.9127 22.3972 63.255 23.4481 59.9601 24.5977C59.9601 24.6151 59.9369 24.5948 59.9369 24.6122C57.0627 25.7863 54.3301 27.2811 51.7912 29.0682C40.7048 36.9004 35.7523 50.5995 36.7335 63.2884C36.9193 65.6891 37.4215 68.1741 38.1182 70.5458C38.0515 70.4616 37.9266 70.3774 37.857 70.2932C37.0615 69.2278 36.2894 68.0696 35.7813 66.9897C35.0585 65.483 34.3328 63.7151 34.0163 62.2781C33.1077 58.7598 33.1077 56.5129 33.128 56.7219C32.8871 50.9624 33.3893 45.7138 35.2704 40.9588C37.5638 35.1528 41.8718 29.6691 47.1232 25.8576C51.8754 22.4088 57.0281 20.1532 63.673 19.0037C63.6237 18.9891 62.7237 19.024 62.6831 19.0037C58.5348 19.1343 54.5722 19.6046 50.8303 20.908C50.7897 20.9254 50.8448 20.908 50.8042 20.9196C47.579 21.9647 44.1332 23.689 41.3405 25.7676C37.4302 28.6723 34.1751 32.3675 31.7869 36.613C27.4121 44.4278 25.7139 54.4053 27.3134 63.9706C27.9607 67.8344 29.1742 71.1612 30.6228 74.5083C31.3369 76.0846 32.3733 78.1138 33.1077 79.275C33.0264 79.2982 32.71 79.0486 32.5736 78.9441C32.0917 78.5028 31.7898 78.2909 31.3108 77.8467C28.672 75.086 26.8228 72.3979 25.1478 68.7024C24.5672 67.4077 24.1608 66.2146 23.7253 64.734C23.2437 62.9481 22.9231 61.1226 22.7673 59.2794C22.419 56.2429 22.6251 54.0308 22.8283 51.813C23.0634 49.3251 23.6208 46.6573 24.4249 43.8995C24.6194 43.2144 25.0636 41.6729 25.589 40.6743C24.9533 41.5103 24.8894 41.6526 24.5846 42.1345C23.554 43.7805 21.7716 47.8562 20.8804 50.7853C20.4009 52.2872 20.0179 53.8183 19.7337 55.3691C19.4376 56.8467 19.2693 58.1153 19.1444 59.3839C18.05 70.5661 23.2231 83.165 33.0177 90.1147Z" fill="white"/>
</svg>
