<svg width="128" height="128" viewBox="0 0 128 128" fill="none" xmlns="http://www.w3.org/2000/svg">
<path d="M13.0256 117.702L52.2446 66.4104L11.896 10.0353L37.8419 10.0706L70.0008 54.4082L21.9214 117.702H13.0256ZM89.8044 117.737L57.8574 73.3293L106.36 10H115.009L75.6136 61.5036L115.75 117.737H89.8044Z" fill="white"/>
<path d="M62.694 35.5596C64.7061 32.559 68.448 33.0532 68.7304 33.0532C74.6962 33.0532 80.4149 33.7239 85.7806 34.9595L87.0514 33.2297C79.8854 31.3941 72.1193 30.5469 64.0001 30.5469C60.8584 30.5469 57.5401 30.794 54.5396 31.0764C59.9052 38.0659 64.3531 43.9611 69.4364 50.7035C66.5771 44.5259 60.6819 38.5954 62.694 35.5596Z" fill="url(#paint0_linear_5027_123888)"/>
<path d="M96.3001 36.1875L95.1351 37.8466C111.656 44.3066 122.846 56.6972 122.846 70.8527C122.846 91.7154 98.5946 108.66 68.7303 108.66C38.866 108.66 14.6145 91.7154 14.6145 70.8527C14.6145 59.4859 21.8158 49.284 33.1826 42.3651L29.6878 37.0347C11.861 44.589 0 57.8621 0 73.006C0 96.5162 28.6641 115.579 64 115.579C99.3359 115.579 128 96.5162 128 72.9707C128 57.2973 115.256 43.5653 96.3001 36.1875Z" fill="url(#paint1_linear_5027_123888)"/>
<defs>
<linearGradient id="paint0_linear_5027_123888" x1="7.85546" y1="34.3704" x2="127.328" y2="46.4945" gradientUnits="userSpaceOnUse">
<stop stop-color="#E54C18"/>
<stop offset="1" stop-color="#FEC350"/>
</linearGradient>
<linearGradient id="paint1_linear_5027_123888" x1="4.39637" y1="68.4484" x2="123.869" y2="80.5724" gradientUnits="userSpaceOnUse">
<stop stop-color="#E54C18"/>
<stop offset="1" stop-color="#FEC350"/>
</linearGradient>
</defs>
</svg>
