<svg width="128" height="128" viewBox="0 0 128 128" fill="none" xmlns="http://www.w3.org/2000/svg">
<path d="M103.94 0C103.94 0 96.9261 14.6142 90.4092 18.7056C84.0185 22.7178 75.6696 22.7399 68.124 22.683C54.2064 22.578 27.1372 14.7242 27.1372 14.7242V52.5292L57.7789 51.9326L59.7676 48.9496V36.214H71.7076V47.3586C71.7076 47.3586 50.8993 53.8068 41.4637 58.897C36.8887 61.365 30.1592 65.8364 27.4619 71.0481H67.706L70.064 71.178L70.8926 71.0481H103.714L103.94 0Z" fill="#FFEB9C"/>
<path d="M27.458 70.0391C25.9733 71.9134 24.9206 73.9259 24.6454 76.0091C23.0233 88.288 25.0723 103.453 24.2477 115.405C23.8397 121.319 37.7747 126.947 37.7747 126.947C37.7747 126.947 56.8437 129.549 65.6322 126.55C68.7707 125.479 71.8665 122.557 73.591 120.58C76.0981 122.583 79.3927 124.734 82.7429 125.754C89.0991 127.69 101.846 125.754 101.846 125.754L102.025 70.0391H27.458ZM68.0957 73.1032C68.6937 73.1501 69.0748 73.4798 69.1104 74.2193C69.6001 84.3927 69.1104 101.679 69.1104 101.679C69.1104 101.679 65.9481 105.896 63.6436 106.054C61.8619 106.176 59.0656 103.27 59.0656 103.27L58.8667 77.9978C58.8667 77.9978 65.5045 72.9 68.0957 73.1032Z" fill="url(#paint0_linear_5027_113488)"/>
<defs>
<linearGradient id="paint0_linear_5027_113488" x1="126.713" y1="87.0853" x2="126.713" y2="141.206" gradientUnits="userSpaceOnUse">
<stop stop-color="#FFA800"/>
<stop offset="1" stop-color="#FFC600"/>
</linearGradient>
</defs>
</svg>
