<svg width="128" height="128" viewBox="0 0 128 128" fill="none" xmlns="http://www.w3.org/2000/svg">
<path d="M64.9568 0C30.2349 0 1 28.1499 1 62.8841V128L64.9445 127.938C99.6664 127.938 127.829 98.7034 127.829 63.9815C127.829 29.2596 99.6418 0 64.9568 0Z" fill="black"/>
<path d="M65.5725 24.3438C51.8391 24.3519 39.1228 31.5848 32.0965 43.3847C25.0701 55.1845 24.7702 69.8108 31.3068 81.8889L24.2539 104.576L49.5802 98.8553C64.083 105.389 81.1012 102.455 92.578 91.4406C104.055 80.4264 107.687 63.5433 101.754 48.784C95.8222 34.0248 81.5162 24.3515 65.6095 24.3438H65.5725Z" fill="#FFF9AE"/>
<path d="M96.0496 87.4274C84.9787 101.393 65.8432 106.068 49.5802 98.7788L24.2539 104.574L50.0364 101.528C67.1284 111.541 89.0125 107.136 100.899 91.2897C112.786 75.4439 110.892 53.2014 96.4967 39.5938C107.305 53.7642 107.121 73.4615 96.0496 87.4274Z" fill="#00AEEF"/>
<path d="M93.8692 80.0319C84.3173 95.077 65.7752 101.724 48.8404 96.1736L24.2539 104.583L49.5802 98.8493C67.6175 106.997 88.8975 100.327 99.0577 83.3422C109.218 66.357 105.03 44.4531 89.3205 32.4141C101.548 45.3786 103.421 64.9868 93.8692 80.0319Z" fill="#00A94F"/>
<path d="M33.6372 82.7456C26.5785 65.7308 32.3956 46.0975 47.5838 35.6743C62.772 25.251 83.1837 26.8841 96.5213 39.5898C84.1687 23.3791 61.4127 19.4222 44.313 30.5116C27.2134 41.601 21.5443 63.992 31.3068 81.8825L24.2539 104.57L33.6372 82.7456Z" fill="#F15D22"/>
<path d="M31.3077 81.8783C22.5492 65.7005 26.2952 45.6013 40.2936 33.6647C54.292 21.7282 74.7306 21.2049 89.3214 32.4095C75.325 17.6718 52.3531 16.1636 36.55 28.9448C20.7468 41.726 17.4182 64.5054 28.9033 81.2742L24.2672 104.578L31.3077 81.8783Z" fill="#D0232B"/>
</svg>
