<svg width="128" height="128" viewBox="0 0 128 128" fill="none" xmlns="http://www.w3.org/2000/svg">
<path d="M0 24C0 10.7452 10.7452 0 24 0H104C117.255 0 128 10.7452 128 24V104C128 117.255 117.255 128 104 128H24C10.7452 128 0 117.255 0 104V24Z" fill="#FEDB00"/>
<path d="M53.103 40.0547C52.1171 40.0547 51.6945 40.4772 50.8495 41.8857C44.9338 50.9 28.4546 76.1118 25.7785 80.3372C23.5249 83.8584 22.6799 86.6754 23.3841 89.4923C23.9475 92.0276 26.0602 93.8586 29.1589 94.5629C30.004 94.5629 30.7082 94.422 31.2716 93.7178C35.497 88.5064 59.582 56.2522 63.9483 50.1957C64.5117 49.3507 64.3709 49.069 63.9483 48.3647C63.1032 46.6745 60.0046 43.2942 57.4693 41.604C55.7791 40.4772 54.2298 40.0547 53.103 40.0547H52.8213Z" fill="black"/>
<path d="M107.889 92.3963C102.959 81.6918 78.7332 31.6908 73.381 20.1413C70.7049 14.2256 67.8879 6.7607 65.3527 0H35.2112C35.6337 10.1411 35.7746 15.3524 34.0844 20.1413C31.2675 28.5921 21.8306 37.4656 15.3516 44.3671C13.0981 46.7615 22.2532 53.0997 31.8308 45.6347C35.352 42.9586 40.8451 37.4656 45.2114 34.0852C47.1833 32.5359 49.8594 31.6908 52.5355 32.1133C56.1975 32.6767 58.7328 34.3669 61.2681 37.4656C63.9442 40.5642 66.3386 44.7897 69.7189 50.4236C76.0571 60.8463 83.2403 72.6776 90.8461 84.7905C94.7899 90.9878 100.001 93.5231 107.044 93.3822C107.748 93.3822 107.889 92.9597 107.607 92.5371L107.889 92.3963Z" fill="black"/>
<path d="M11.5471 104.867C11.5471 111.205 16.7585 116.417 22.9558 116.417H104.648C110.986 116.417 116.197 111.205 116.197 105.008H11.5471V104.867Z" fill="black"/>
</svg>
