<svg width="128" height="128" viewBox="0 0 128 128" fill="none" xmlns="http://www.w3.org/2000/svg">
<path d="M0 24C0 10.7452 10.7452 0 24 0H104C117.255 0 128 10.7452 128 24V104C128 117.255 117.255 128 104 128H24C10.7452 128 0 117.255 0 104V24Z" fill="#FFD100"/>
<path d="M42.0286 73.961C46.1663 78.9474 53.8578 82.1311 62.1868 82.7674L59.3218 87.7539C51.6302 86.8525 42.7712 83.2449 37.8373 76.8786C33.2747 83.2449 24.5745 87.1176 13.6992 87.9137L15.3968 82.555C22.7707 82.4487 30.4108 78.6298 33.6997 73.961H14.3892V69.3458H34.9723V64.9957H15.5556V60.4331H34.9723V56.8792H15.5556V52.3166H34.9723V48.6039H14.3892V43.9877H22.7181L22.2406 40.0625H28.0233C28.2357 41.3351 28.3945 42.6614 28.607 43.9877H47.1213C47.3863 42.6614 47.5451 41.3351 47.6514 40.0625H53.5402C53.43 41.3764 53.2704 42.6858 53.0616 43.9877H61.3917V48.6039H40.6487V52.3166H60.0654V56.8792H40.6487V60.4331H60.0654V64.9957H40.6487V69.3458H61.3906V73.961H42.0286ZM113.694 43.9426V87.3944H71.0941C69.1841 87.3944 68.1239 86.3332 68.1239 84.4768V41.025H110.67C112.58 41.025 113.694 42.0863 113.694 43.9437V43.9426ZM108.124 82.673V45.7464H73.6941V82.673H108.124ZM76.5065 56.773V52.3166H95.0208V48.2852H100.484V52.3166H105.683V56.773H100.484V69.3458C100.484 73.6434 99.9536 76.8249 98.7872 80.1149H92.8458C94.6485 76.2948 95.0208 73.5897 95.0208 69.5046V56.773H90.0333C89.2908 64.9957 86.107 75.181 82.7656 80.1149H76.7179C79.9542 75.5523 83.668 66.6407 84.5694 56.773H76.5065Z" fill="black"/>
</svg>
