<svg width="128" height="128" viewBox="0 0 128 128" fill="none" xmlns="http://www.w3.org/2000/svg">
<path d="M64.8166 1.11539e-07H63.3576C58.3437 -0.000383146 53.3787 0.98692 48.7463 2.9055C44.114 4.82409 39.9049 7.63633 36.3595 11.1817C32.8141 14.7271 30.0018 18.9362 28.0832 23.5686C26.1647 28.201 25.1774 33.166 25.1777 38.1799V48.4223C25.1777 48.8291 25.2579 49.2319 25.4137 49.6077C25.5695 49.9835 25.7978 50.325 26.0856 50.6126C26.3734 50.9001 26.7151 51.1281 27.091 51.2835C27.467 51.4389 27.8699 51.5187 28.2767 51.5183H36.5144C36.9212 51.5187 37.3241 51.4389 37.7001 51.2835C38.0761 51.1281 38.4177 50.9001 38.7055 50.6126C38.9933 50.325 39.2216 49.9835 39.3774 49.6077C39.5332 49.2319 39.6133 48.8291 39.6133 48.4223V37.5467C39.6133 31.2067 42.1319 25.1264 46.6149 20.6434C51.0979 16.1604 57.1782 13.6419 63.5181 13.6419H64.6853C71.0253 13.6419 77.1055 16.1604 81.5885 20.6434C86.0715 25.1264 88.5901 31.2067 88.5901 37.5467V48.4223C88.5901 48.8291 88.6702 49.2319 88.826 49.6077C88.9818 49.9835 89.2101 50.325 89.4979 50.6126C89.7857 50.9001 90.1273 51.1281 90.5033 51.2835C90.8793 51.4389 91.2822 51.5187 91.689 51.5183H99.9267C100.742 51.5099 101.522 51.18 102.095 50.6003C102.669 50.0206 102.991 49.2378 102.991 48.4223V38.1799C102.991 33.1665 102.004 28.2019 100.086 23.57C98.1675 18.938 95.3558 14.7292 91.811 11.1839C88.2662 7.63854 84.0578 4.82612 79.4261 2.90719C74.7944 0.988269 69.8301 0.000383302 64.8166 1.11539e-07Z" fill="url(#paint0_linear_5027_123016)"/>
<path d="M25.5216 122.392C26.2604 124.061 27.468 125.48 28.9978 126.475C30.5275 127.471 32.3134 128.001 34.1386 128.001H44.8479C46.5864 128.001 48.291 127.52 49.7732 126.612C51.2554 125.703 52.4574 124.402 53.2461 122.853H72.8905C73.6782 124.402 74.8792 125.703 76.3604 126.611C77.8415 127.52 79.5452 128 81.2828 128.001H91.995C93.7687 127.999 95.5059 127.498 97.0071 126.553C98.5082 125.608 99.7123 124.259 100.481 122.661C103.487 122.157 106.217 120.605 108.186 118.28C110.156 115.954 111.238 113.006 111.24 109.958V61.0137C111.241 58.779 110.657 56.5829 109.547 54.6435V54.5822C109.546 52.1898 108.595 49.8956 106.903 48.2041C105.211 46.5127 102.917 45.5625 100.525 45.5625H83.1883C80.8382 45.5606 78.5808 46.4793 76.8999 48.1217H50.4097C48.7301 46.4792 46.4735 45.5604 44.1243 45.5625H26.7881C24.4085 45.5632 22.1256 46.5042 20.4367 48.1805C18.7478 49.8569 17.7897 52.1327 17.7713 54.5122C16.6114 56.4825 15.9998 58.7273 16 61.0137V109.958C16.0012 112.789 16.9343 115.54 18.6552 117.788C20.3762 120.035 22.7892 121.653 25.5216 122.392Z" fill="url(#paint1_linear_5027_123016)"/>
<path d="M57.2672 30.7366C57.2672 29.8802 57.0132 29.0429 56.5374 28.3308C56.0616 27.6187 55.3853 27.0636 54.594 26.7359C53.8027 26.4081 52.932 26.3224 52.092 26.4895C51.252 26.6566 50.4804 27.069 49.8748 27.6746C49.2691 28.2802 48.8567 29.0519 48.6897 29.8919C48.5226 30.7319 48.6083 31.6025 48.9361 32.3938C49.2638 33.1851 49.8189 33.8614 50.531 34.3373C51.2431 34.8131 52.0803 35.067 52.9368 35.067C53.5056 35.0674 54.0689 34.9557 54.5945 34.7382C55.12 34.5207 55.5975 34.2018 55.9997 33.7996C56.4019 33.3974 56.7209 32.9198 56.9384 32.3942C57.1559 31.8687 57.2676 31.3054 57.2672 30.7366ZM74.3116 26.4091C73.4549 26.4086 72.6173 26.6622 71.9047 27.1378C71.1921 27.6134 70.6366 28.2897 70.3085 29.0811C69.9804 29.8725 69.8944 30.7434 70.0614 31.5837C70.2284 32.424 70.6409 33.1958 71.2466 33.8016C71.8524 34.4074 72.6243 34.8199 73.4646 34.9869C74.3049 35.1539 75.1758 35.0679 75.9672 34.7398C76.7586 34.4117 77.4349 33.8562 77.9105 33.1436C78.3861 32.431 78.6397 31.5933 78.6391 30.7366C78.6383 29.5891 78.1821 28.4889 77.3708 27.6775C76.5594 26.8661 75.4591 26.4099 74.3116 26.4091ZM69.6427 37.8946C67.9912 39.3836 65.8464 40.2076 63.6228 40.2076C61.3991 40.2076 59.2544 39.3836 57.6028 37.8946C57.3818 37.7081 57.0973 37.6139 56.8086 37.6318C56.5199 37.6497 56.2493 37.7784 56.053 37.9908C55.8567 38.2033 55.7499 38.4832 55.7549 38.7724C55.7598 39.0616 55.8762 39.3377 56.0796 39.5433C58.1219 41.4657 60.8209 42.5361 63.6257 42.5361C66.4304 42.5361 69.1295 41.4657 71.1718 39.5433C71.2801 39.4429 71.3675 39.3222 71.4291 39.188C71.4907 39.0538 71.5252 38.9088 71.5308 38.7613C71.5363 38.6137 71.5128 38.4666 71.4614 38.3281C71.4101 38.1897 71.332 38.0627 71.2316 37.9545C71.1312 37.8462 71.0105 37.7588 70.8763 37.6972C70.7421 37.6356 70.5971 37.6011 70.4495 37.5955C70.302 37.59 70.1548 37.6135 70.0164 37.6648C69.878 37.7161 69.751 37.7942 69.6427 37.8946Z" fill="#56B14E"/>
<path d="M61.9683 60.236C59.1295 60.5575 56.4467 61.702 54.2499 63.5286C52.0531 65.3552 50.4383 67.7842 49.6042 70.5167C48.7701 73.2492 48.753 76.1659 49.5551 78.908C50.3572 81.65 51.9435 84.0977 54.1187 85.9499L51.7347 102.093C51.6154 102.912 51.6739 103.748 51.9061 104.543C52.1383 105.338 52.5388 106.074 53.0804 106.701C53.6221 107.327 54.2923 107.83 55.0454 108.175C55.7985 108.52 56.617 108.699 57.4453 108.699H69.7975C70.6263 108.699 71.4452 108.52 72.1987 108.175C72.9522 107.83 73.6225 107.326 74.164 106.699C74.7056 106.071 75.1057 105.335 75.3371 104.539C75.5686 103.743 75.6259 102.907 75.5052 102.087L73.1241 85.9528C75.4057 84.009 77.0362 81.4121 77.7957 78.5126C78.5552 75.613 78.4071 72.5503 77.3715 69.7376C76.3358 66.9248 74.4624 64.4973 72.004 62.7826C69.5455 61.0679 66.6202 60.1486 63.6229 60.1484C63.0701 60.1481 62.5177 60.1783 61.9683 60.2389" fill="url(#paint2_linear_5027_123016)"/>
<path d="M61.9683 60.236C59.1295 60.5575 56.4467 61.702 54.2499 63.5286C52.0531 65.3552 50.4383 67.7842 49.6042 70.5167C48.7701 73.2492 48.753 76.1659 49.5551 78.908C50.3572 81.65 51.9435 84.0977 54.1187 85.9499L51.7347 102.093C51.6154 102.912 51.6739 103.748 51.9061 104.543C52.1383 105.338 52.5388 106.074 53.0804 106.701C53.6221 107.327 54.2923 107.83 55.0454 108.175C55.7985 108.52 56.617 108.699 57.4453 108.699H69.7975C70.6263 108.699 71.4452 108.52 72.1987 108.175C72.9522 107.83 73.6225 107.326 74.164 106.699C74.7056 106.071 75.1057 105.335 75.3371 104.539C75.5686 103.743 75.6259 102.907 75.5052 102.087L73.1241 85.9528C75.4057 84.009 77.0362 81.4121 77.7957 78.5126C78.5552 75.613 78.4071 72.5503 77.3715 69.7376C76.3358 66.9248 74.4624 64.4973 72.004 62.7826C69.5455 61.0679 66.6202 60.1486 63.6229 60.1484C63.0701 60.1481 62.5177 60.1783 61.9683 60.2389" fill="url(#paint3_linear_5027_123016)"/>
<path d="M74.1485 74.798C74.1487 72.9811 73.6788 71.195 72.7845 69.6134C71.8902 68.0318 70.6019 66.7085 69.0449 65.7721C67.4878 64.8356 65.715 64.318 63.8987 64.2694C62.0824 64.2208 60.2845 64.643 58.6796 65.4949C57.0747 66.3468 55.7176 67.5994 54.7401 69.1309C53.7625 70.6625 53.1978 72.4209 53.1009 74.2352C53.004 76.0496 53.3782 77.8581 54.1871 79.4851C54.9959 81.1121 56.2119 82.5022 57.7169 83.5201C57.9701 83.6912 58.1695 83.9307 58.292 84.2106C58.4144 84.4906 58.4548 84.7996 58.4085 85.1017L55.8172 102.686C55.7825 102.92 55.7984 103.158 55.8641 103.385C55.9298 103.612 56.0436 103.823 56.1978 104.002C56.3521 104.181 56.5431 104.325 56.7579 104.424C56.9727 104.522 57.2062 104.574 57.4426 104.574H69.8093C70.0458 104.573 70.2794 104.522 70.4944 104.424C70.7093 104.325 70.9004 104.181 71.0549 104.002C71.2093 103.823 71.3235 103.613 71.3895 103.386C71.4555 103.159 71.4719 102.92 71.4376 102.686L68.8435 85.1017C68.7985 84.7968 68.8407 84.4854 68.9652 84.2035C69.0896 83.9216 69.2912 83.6806 69.5467 83.5084C70.9704 82.5446 72.1359 81.2462 72.9408 79.727C73.7456 78.2079 74.1654 76.5143 74.1631 74.7951" fill="#FEFEFE"/>
<defs>
<linearGradient id="paint0_linear_5027_123016" x1="63.8508" y1="1.75162" x2="63.9872" y2="51.2097" gradientUnits="userSpaceOnUse">
<stop stop-color="#56B14E"/>
<stop offset="0.539" stop-color="#4A9E41"/>
<stop offset="1" stop-color="#357C2A"/>
</linearGradient>
<linearGradient id="paint1_linear_5027_123016" x1="63.6198" y1="125.445" x2="63.6198" y2="46.4693" gradientUnits="userSpaceOnUse">
<stop stop-color="#4A9E41"/>
<stop offset="1" stop-color="#56B14E"/>
</linearGradient>
<linearGradient id="paint2_linear_5027_123016" x1="64.1181" y1="101.805" x2="62.4319" y2="68.8939" gradientUnits="userSpaceOnUse">
<stop stop-color="#56B14E"/>
<stop offset="0.3" stop-color="#4A9E41"/>
<stop offset="0.355" stop-color="#45973C"/>
<stop offset="0.523" stop-color="#3C8732"/>
<stop offset="0.717" stop-color="#367E2B"/>
<stop offset="1" stop-color="#357C2A"/>
</linearGradient>
<linearGradient id="paint3_linear_5027_123016" x1="64.1181" y1="101.805" x2="62.4319" y2="68.8939" gradientUnits="userSpaceOnUse">
<stop stop-color="#56B14E" stop-opacity="0.153"/>
<stop offset="1" stop-color="#9BF893" stop-opacity="0.263"/>
</linearGradient>
</defs>
</svg>
