<svg width="128" height="128" viewBox="0 0 128 128" fill="none" xmlns="http://www.w3.org/2000/svg">
<rect width="128" height="128" rx="24" fill="#4848AD"/>
<path d="M52.4664 24V54.5723H53.1774L53.4618 53.8614C54.8553 50.6477 56.9883 48.1166 59.8606 46.2112C62.9321 44.192 66.7999 43.1966 71.4355 43.1966C75.6729 43.1966 79.3985 44.1066 82.5553 45.8983C85.712 47.7185 88.1863 50.3064 89.9495 53.6623C91.6843 56.9613 92.5375 60.9143 92.5659 65.4931V65.749V103.943H75.6161V68.7636V68.0242C75.5308 64.6683 74.5638 62.0519 72.7721 60.118C70.8382 58.0704 68.1649 57.0466 64.7238 57.0466C62.4202 57.0466 60.3726 57.53 58.6093 58.497C56.8461 59.4639 55.481 60.8575 54.4856 62.706C53.5187 64.4977 53.0068 66.6306 52.9499 69.1049V69.3324V104H36V24H52.4664Z" fill="white"/>
</svg>
