<svg width="128" height="128" viewBox="0 0 128 128" fill="none" xmlns="http://www.w3.org/2000/svg">
<path d="M64.002 0C28.6549 4.70665e-06 0 28.6549 0 64.002C-1.88266e-05 99.3491 28.6549 128 64.002 128C99.3491 128 128.004 99.3491 128.004 64.002C128.004 28.6549 99.3491 0 64.002 0ZM64.002 26.6585C65.034 26.6585 66.0573 26.6891 67.0781 26.7344C67.0793 26.7344 67.0805 26.7343 67.0817 26.7344C67.0974 26.7351 67.113 26.7373 67.1288 26.738C67.4593 26.7532 67.7899 26.7726 68.1192 26.7922C68.8528 26.8358 69.5824 26.8919 70.3097 26.9585C70.4518 26.9715 70.5938 26.9832 70.7362 26.9946C71.8647 27.1051 72.9862 27.2384 74.0979 27.4031C74.4235 27.4513 74.7461 27.5092 75.0702 27.5621C75.7529 27.6735 76.4332 27.7922 77.1089 27.9236C77.133 27.9283 77.1571 27.9333 77.1812 27.938C78.445 28.1852 79.6992 28.4609 80.9369 28.7767C81.1708 28.8365 81.4015 28.9025 81.6345 28.9646C82.3663 29.1597 83.0923 29.3678 83.8142 29.5864C84.1415 29.6854 84.4688 29.7862 84.7938 29.89C85.5403 30.1284 86.2819 30.3788 87.0169 30.6419C87.0179 30.6423 87.0193 30.6415 87.0205 30.6419C87.0276 30.6444 87.035 30.6465 87.0422 30.6491C87.2334 30.7172 87.4266 30.7814 87.6169 30.8515C87.6215 30.8533 87.6266 30.8535 87.6314 30.8551C88.4603 31.1609 89.2794 31.4872 90.093 31.8239C90.5214 32.0012 90.9449 32.184 91.369 32.3697C91.818 32.5664 92.2623 32.771 92.7064 32.977C93.1644 33.1895 93.6239 33.4017 94.0764 33.624C94.7917 33.9752 95.5009 34.3369 96.2018 34.712C96.2956 34.7623 96.3866 34.8168 96.4801 34.8674C96.8309 35.0605 97.1799 35.2562 97.5284 35.453C97.8782 35.6506 98.2271 35.8497 98.5731 36.053C98.5846 36.0599 98.5976 36.0643 98.6092 36.0712C98.7874 36.1762 98.9634 36.2863 99.1406 36.3928C99.4426 36.574 99.7461 36.7531 100.044 36.9386C100.248 37.0657 100.449 37.1963 100.652 37.3255C100.71 37.3632 100.77 37.3998 100.829 37.4375C101.668 37.9758 102.491 38.534 103.305 39.1075C103.339 39.1316 103.376 39.1521 103.409 39.1762C103.685 39.3713 103.961 39.5664 104.233 39.7653C104.719 40.1197 105.196 40.4795 105.672 40.8461C106.416 41.4192 107.148 42.0077 107.867 42.6102C108.394 43.0502 108.915 43.498 109.428 43.9548C109.92 44.3934 110.402 44.8435 110.881 45.2959C111.699 46.0678 112.495 46.8632 113.274 47.6744C113.366 47.7703 113.457 47.8671 113.548 47.9635C114.07 48.513 114.582 49.0707 115.085 49.6371C115.206 49.7737 115.326 49.9116 115.446 50.0492C115.966 50.6435 116.477 51.2444 116.976 51.8566C117.028 51.9216 117.085 51.9829 117.138 52.0482C117.733 52.7834 118.312 53.5294 118.877 54.2893C118.88 54.2928 118.882 54.2967 118.884 54.3001C119.397 54.9914 119.897 55.6965 120.384 56.4075C120.533 56.6253 120.678 56.8458 120.825 57.0654C121.169 57.5785 121.504 58.0969 121.834 58.6197C121.996 58.8756 122.156 59.1314 122.314 59.3896C122.61 59.8734 122.897 60.362 123.182 60.8536C123.352 61.1483 123.525 61.4417 123.691 61.7392C124.108 62.4857 124.517 63.2386 124.907 64.002C113.603 86.1599 90.5829 101.342 64.002 101.342C37.4209 101.342 14.4011 86.1604 3.09781 64.002C3.56448 63.087 4.0593 62.1888 4.56538 61.2982C4.70232 61.0572 4.84129 60.8181 4.98107 60.5789C6.01036 58.8176 7.11455 57.106 8.29214 55.4496C8.46426 55.2075 8.6375 54.9664 8.81266 54.7266C9.40617 53.9144 10.0102 53.1111 10.6381 52.3265C11.1196 51.7247 11.6117 51.1329 12.1129 50.548C12.7758 49.7745 13.4625 49.021 14.1588 48.278C14.2638 48.1661 14.3675 48.0531 14.4733 47.9418C15.3536 47.0149 16.2573 46.1109 17.188 45.2344C17.6379 44.8107 18.0894 44.388 18.5506 43.9765C18.5589 43.9692 18.5676 43.9621 18.5759 43.9548C19.8109 42.8541 21.0875 41.8018 22.4003 40.7919C22.849 40.4467 23.302 40.1068 23.7594 39.7726C24.0413 39.5668 24.3275 39.367 24.6125 39.1653C24.6295 39.1534 24.6462 39.1411 24.6632 39.1292C24.6724 39.1227 24.6828 39.1177 24.6921 39.1111C25.418 38.5992 26.1541 38.1022 26.9007 37.6183C26.913 37.6102 26.9244 37.6009 26.9368 37.593C26.9705 37.5712 27.0044 37.5496 27.038 37.5279C27.3599 37.3202 27.6813 37.1121 28.0068 36.9098C28.4471 36.6361 28.8936 36.3675 29.3406 36.1037C29.355 36.0952 29.3696 36.0869 29.3839 36.0784C29.7571 35.8585 30.1341 35.6443 30.5118 35.4314C30.9384 35.1907 31.3626 34.9473 31.7949 34.7157C31.8012 34.7123 31.8069 34.7081 31.8131 34.7048C32.522 34.3252 33.2401 33.9609 33.9638 33.6059C34.3854 33.3991 34.8132 33.2006 35.2398 33.0023C35.2603 32.9927 35.2807 32.9829 35.3013 32.9734C35.7354 32.7719 36.1706 32.573 36.6097 32.3805C36.6241 32.3743 36.6387 32.3687 36.6531 32.3625C37.0713 32.1795 37.4886 31.9986 37.911 31.8239C37.916 31.8219 37.9205 31.8187 37.9255 31.8166C38.734 31.4823 39.5487 31.1589 40.3727 30.8551C40.3773 30.8535 40.3825 30.8533 40.3871 30.8515C40.5846 30.7788 40.7853 30.7128 40.9835 30.6419C41.7197 30.3783 42.4627 30.1287 43.2102 29.89C43.5342 29.7866 43.86 29.6851 44.1862 29.5864C44.8862 29.3744 45.5914 29.1762 46.3008 28.9864C46.3494 28.9732 46.3967 28.9558 46.4453 28.9429C46.6168 28.8974 46.7873 28.8508 46.9587 28.8056C47.9204 28.5585 48.8909 28.3354 49.8685 28.1297C49.8771 28.1278 49.8852 28.1242 49.8938 28.1224C50.0603 28.0874 50.2285 28.057 50.3963 28.0248C51.2351 27.8551 52.0804 27.7007 52.9301 27.5621C52.9423 27.5602 52.9541 27.5569 52.9663 27.5549C53.0638 27.539 53.1617 27.5239 53.2591 27.5079C54.4155 27.3251 55.5795 27.1656 56.7545 27.0416C56.763 27.0408 56.7713 27.0389 56.7798 27.038C56.9191 27.0233 57.0593 27.0133 57.1991 27.0018C58.0896 26.9138 58.9846 26.8458 59.8848 26.7922C60.2297 26.7717 60.5759 26.7498 60.9223 26.7344C61.9443 26.689 62.9688 26.6585 64.002 26.6585ZM64.002 30.472C45.4852 30.472 30.4756 45.4852 30.4756 64.002C30.4756 82.5187 45.4852 97.5284 64.002 97.5284C82.5187 97.5284 97.5284 82.5188 97.5284 64.002C97.5284 45.4852 82.5188 30.472 64.002 30.472Z" fill="white"/>
</svg>
