<svg width="128" height="128" viewBox="0 0 128 128" fill="none" xmlns="http://www.w3.org/2000/svg">
<path d="M123.077 40.9692C123.077 40.8989 123.077 40.8989 123.077 40.8286C123.077 40.7582 123.007 40.7582 122.936 40.6879C122.866 40.6879 122.796 40.6176 122.796 40.6176C122.725 40.6176 122.655 40.6176 122.585 40.6176H122.374V41.3209H122.514C122.655 41.3209 122.725 41.3209 122.796 41.3209C122.866 41.3209 122.936 41.2505 123.007 41.2505C123.077 41.2505 123.077 41.1802 123.077 41.1099C123.077 41.1099 123.077 41.0396 123.077 40.9692ZM124.202 42.7978H123.358L122.585 41.8835H122.374V42.7978H121.741V40.2659H122.725C122.936 40.2659 123.077 40.2659 123.147 40.2659C123.288 40.2659 123.358 40.3363 123.499 40.4066C123.64 40.4769 123.71 40.5473 123.78 40.6176C123.851 40.6879 123.851 40.8286 123.851 40.9692C123.851 41.1802 123.78 41.3209 123.71 41.4615C123.64 41.6022 123.499 41.6725 123.288 41.7429L124.202 42.7978ZM124.765 41.6022C124.765 41.0396 124.554 40.5473 124.202 40.1956C123.78 39.7736 123.358 39.5626 122.796 39.5626C122.233 39.5626 121.741 39.7736 121.389 40.1956C120.967 40.6176 120.826 41.0396 120.826 41.6022C120.826 42.1648 121.037 42.6571 121.389 43.0088C121.811 43.4308 122.233 43.6418 122.796 43.6418C123.358 43.6418 123.851 43.4308 124.202 43.0088C124.554 42.5868 124.765 42.1648 124.765 41.6022ZM125.327 41.6022C125.327 42.3055 125.046 42.9385 124.554 43.4308C124.062 43.9231 123.429 44.2044 122.725 44.2044C122.022 44.2044 121.389 43.9231 120.897 43.4308C120.404 42.9385 120.123 42.3055 120.123 41.6022C120.123 40.8989 120.404 40.2659 120.897 39.7736C121.389 39.2813 122.022 39 122.725 39C123.429 39 124.062 39.2813 124.554 39.7736C125.116 40.2659 125.327 40.8989 125.327 41.6022Z" fill="#0094A1"/>
<path d="M17.6527 41.6016C11.3231 41.6016 5.90769 44.9071 3.02418 49.5488C0.562638 53.9093 0 60.9422 0 65.584C0 70.2257 0.562638 77.329 3.02418 81.6191C5.83736 86.2609 11.2527 89.5664 17.6527 89.5664H110.347C116.677 89.5664 122.092 86.2609 124.976 81.6191C127.437 77.329 128 70.2257 128 65.584C128 60.9422 127.437 53.8389 124.976 49.5488C122.163 44.9071 116.747 41.6016 110.347 41.6016H17.6527Z" fill="#0094A1"/>
<path d="M79.3318 62.9808H87.1384V62.7698C87.1384 59.1829 85.7318 58.972 83.1296 58.972C79.9648 58.9016 79.4021 59.8862 79.3318 62.9808ZM24.545 59.1126C27.0769 59.1126 28.4835 59.3939 28.4835 62.8401V62.9808H20.8175C20.8879 60.0269 21.5208 59.1126 24.545 59.1126ZM13.7142 65.7236C13.7142 74.0928 15.8241 77.117 24.6857 77.117C27.9912 77.117 30.6637 76.8357 32.6329 75.7808C34.4615 74.7258 35.5868 72.8972 35.5868 69.5917H28.6241C28.5538 71.983 26.9362 72.2643 24.6857 72.2643C21.4505 72.2643 20.8175 70.928 20.8175 66.9192V66.7786H35.5868V65.7236C35.5868 56.5808 33.1252 54.2599 24.6857 54.2599C15.6835 54.2599 13.7142 57.0731 13.7142 65.7236ZM40.2988 61.5742C40.2988 66.0753 41.8461 68.1148 51.2703 68.1148C52.1142 68.1148 53.4505 68.0445 54.2241 68.3961C54.9274 68.7478 55.2791 69.3808 55.2791 70.506C55.2791 72.4753 54.5758 72.6862 51.2 72.6862C49.3714 72.6862 47.4725 72.6159 47.3318 70.1544H40.2988C40.3692 75.0775 42.6901 76.695 47.0505 77.0467C48.3868 77.117 49.7934 77.117 51.2703 77.117C57.2483 77.117 62.2417 76.1324 62.2417 69.6621C62.2417 63.4731 59.0065 63.0511 51.2703 62.8401C47.4021 62.7698 47.1912 61.9258 47.1912 60.6599C47.1912 59.1829 47.3318 58.6906 51.2703 58.6906C52.6769 58.6906 54.1538 58.8313 54.4351 60.5895H61.1164V59.6753C61.1164 54.3302 55.4901 54.2599 51.2703 54.2599C44.8703 54.2599 40.2988 54.4005 40.2988 61.5742ZM98.5318 54.2599H115.974V59.3939H110.769V76.906H103.666V59.3939H98.4615V54.2599H98.5318ZM72.3692 65.5829C72.3692 56.9324 74.2681 54.1895 83.2703 54.1895C91.6395 54.1895 94.1011 56.4401 94.1011 65.5829V66.5676H79.3318V66.7786C79.3318 70.7873 79.9648 72.1939 83.2703 72.1939C85.4505 72.1939 87.1384 71.983 87.2791 69.5214H94.1011C94.0307 72.6862 92.9758 74.5148 91.1472 75.5698C89.2483 76.6247 86.5758 76.906 83.2703 76.906C74.4791 76.906 72.3692 73.9522 72.3692 65.5829ZM8.58017 81.1258C4.99335 77.2577 4.21973 71.2797 4.21973 65.5829C4.21973 59.8862 4.99335 53.9082 8.58017 50.0401C10.8307 47.6489 15.1912 45.8203 18.8483 45.8203H66.6021V85.3456H18.8483C15.1208 85.3456 10.8307 83.517 8.58017 81.1258Z" fill="white"/>
</svg>
