<svg width="128" height="128" viewBox="0 0 128 128" fill="none" xmlns="http://www.w3.org/2000/svg">
<path d="M64.0077 108.351C55.2369 108.354 46.6621 105.756 39.368 100.885C32.0738 96.0143 26.3879 89.09 23.0293 80.9877C19.6707 72.8854 18.7904 63.9691 20.4996 55.3664C22.2088 46.7637 26.4309 38.8611 32.6317 32.6581C38.8325 26.4551 46.7336 22.2303 55.3357 20.5181C63.9378 18.8058 72.8545 19.6831 80.9579 23.0388C89.0614 26.3946 95.9878 32.0781 100.861 39.3706C105.734 46.6631 108.335 55.2369 108.335 64.0077C108.323 75.7617 103.649 87.031 95.3393 95.3438C87.0294 103.657 75.7617 108.334 64.0077 108.351ZM128 63.7911L113.41 50.578L119.289 31.8569L100.058 27.6794L95.8182 8.47868L77.0971 14.4973L63.8221 0L50.609 14.5746L31.8569 8.64885L27.7104 27.8496L8.50961 32.1044L14.4973 50.8565L0 64.1315L14.5592 77.3292L8.64886 96.0812L27.8651 100.228L32.1199 119.428L50.8411 113.425L64.1315 127.923L77.3291 113.348L96.0812 119.274L100.228 100.058L119.429 95.7873L113.518 77.0661L128 63.7911Z" fill="#F05514"/>
<path d="M36.0189 36.0027C41.5498 30.4726 48.5963 26.7068 56.2674 25.1813C63.9385 23.6559 71.8897 24.4394 79.1156 27.4327C86.3414 30.4261 92.5173 35.4949 96.8625 41.9981C101.208 48.5014 103.527 56.1471 103.527 63.9684C103.527 71.7897 101.208 79.4354 96.8625 85.9386C92.5173 92.4419 86.3414 97.5106 79.1156 100.504C71.8897 103.497 63.9385 104.281 56.2674 102.755C48.5963 101.23 41.5498 97.4641 36.0189 91.934C28.6126 84.5114 24.4531 74.454 24.4531 63.9684C24.4531 53.4827 28.6126 43.4253 36.0189 36.0027Z" fill="#F05514"/>
</svg>
