<svg width="128" height="128" viewBox="0 0 128 128" fill="none" xmlns="http://www.w3.org/2000/svg">
<path d="M114.931 99.4531L101.828 97.8396L103.249 86.2186L116.361 87.8242L114.931 99.4531Z" fill="#7B0099"/>
<path d="M105.698 27.0039L105.789 78.9027L115.396 80.0781L128 29.8223L105.698 27.0039Z" fill="#7B0099"/>
<path d="M76.3027 55.8136C75.2608 55.9231 70.9197 56.8902 69.4637 57.2027C67.8982 57.6195 53.6272 68.6393 52.6868 71.3509C52.4785 72.2912 52.3769 73.7285 52.3769 75.0802L52.2754 77.2655C52.2754 78.831 52.7055 81.3422 52.9139 82.7046C53.8489 82.9077 60.6372 82.7287 61.8901 82.937L61.7378 85.7314C60.5169 85.6459 51.8934 85.6726 46.9726 85.6726C44.4667 85.6726 36.4336 85.9398 33.9625 85.865L34.43 83.2069C35.7844 83.1 41.3865 83.4473 42.6207 82.149C43.2325 81.4998 43.0401 80.8106 43.0401 77.0625V75.2886C43.0401 74.4498 43.0401 72.895 42.8318 71.439C42.3082 69.8762 29.7389 54.184 26.5091 51.6835C25.5794 51.3709 19.6995 50.7858 18.2435 50.4706L18.1714 48.0716C18.8927 47.703 25.4271 48.1598 31.7665 47.9247C35.9367 47.7697 45.4418 47.9247 46.6146 48.0636L46.3154 50.1794C45.0598 50.492 39.0463 50.6069 37.4808 51.0236C41.5414 57.0611 47.9717 64.8405 50.0474 67.8592C51.1935 66.1949 61.2676 59.2704 61.5829 56.8768C60.0147 56.5642 54.84 55.8136 54.0092 55.8136L53.515 53.0886C54.9309 52.8642 62.3923 53.0886 66.0976 53.0886C69.2981 53.0886 76.1344 53.0887 78.0765 53.2489L76.3027 55.8136ZM48.1854 28.6179C19.809 28.6179 0 43.4713 0 64.7256C0 85.9879 19.809 100.836 48.1854 100.836C76.5538 100.836 96.3681 85.9879 96.3681 64.7256C96.3681 43.4713 76.5538 28.6179 48.1854 28.6179Z" fill="#7B0099"/>
<path d="M76.3027 55.8104C75.2608 55.9199 70.9197 56.887 69.4637 57.1995C67.8982 57.6163 53.6272 68.6361 52.6869 71.3477C52.4785 72.288 52.377 73.7253 52.377 75.077L52.2754 77.2623C52.2754 78.8278 52.7056 81.339 52.9139 82.7014C53.8489 82.9045 60.6372 82.7255 61.8901 82.9338L61.7378 85.7282C60.5169 85.6427 51.8934 85.6694 46.9726 85.6694C44.4667 85.6694 36.4336 85.9366 33.9625 85.8618L34.43 83.2037C35.7844 83.0968 41.3865 83.4441 42.6207 82.1458C43.2325 81.4966 43.0402 80.8074 43.0402 77.0593V75.2854C43.0402 74.4466 43.0402 72.8918 42.8318 71.4358C42.3082 69.873 29.7389 54.1808 26.5091 51.6803C25.5794 51.3677 19.6995 50.7826 18.2435 50.4674L18.1714 48.0684C18.8927 47.6998 25.4271 48.1566 31.7665 47.9215C35.9367 47.7665 45.4418 47.9215 46.6146 48.0604L46.3154 50.1762C45.0598 50.4888 39.0463 50.6036 37.4808 51.0204C41.5415 57.0579 47.9717 64.8373 50.0474 67.856C51.1935 66.1917 61.2676 59.2672 61.5829 56.8736C60.0147 56.561 54.8401 55.8104 54.0092 55.8104L53.515 53.0854C54.9309 52.861 62.3923 53.0854 66.0977 53.0854C69.2981 53.0854 76.1344 53.0855 78.0766 53.2457L76.3027 55.8104Z" fill="white"/>
</svg>
