<svg width="128" height="128" viewBox="0 0 128 128" fill="none" xmlns="http://www.w3.org/2000/svg">
<path d="M41.2446 28.6294C41.2446 24.3796 38.6422 19 27.7049 19C23.2163 19 10.8635 19 10.8635 19L6.07568 41.1504C6.07568 41.1504 15.1772 41.1504 23.6332 41.1504C37.341 41.1504 41.2446 34.6613 41.2446 28.6294Z" fill="white"/>
<path d="M86.611 28.6294C86.611 24.3796 84.0153 19 73.0814 19C68.5894 19 56.2366 19 56.2366 19L51.4521 41.147C51.4521 41.147 60.5503 41.147 68.9996 41.147C82.7141 41.1504 86.611 34.6613 86.611 28.6294Z" fill="white"/>
<path d="M35.1689 61.9632C35.1689 57.7133 32.5665 52.3203 21.6292 52.3203C17.1406 52.3203 4.78781 52.3203 4.78781 52.3203L0 74.4841C0 74.4841 9.10155 74.4841 17.5508 74.4841C31.262 74.4841 35.1689 67.9782 35.1689 61.9632Z" fill="white"/>
<path d="M80.5356 61.9632C80.5356 57.7133 77.9299 52.3203 67.0026 52.3203C62.5073 52.3203 50.1612 52.3203 50.1612 52.3203L45.3667 74.4841C45.3667 74.4841 54.4682 74.4841 62.9243 74.4841C76.6388 74.4841 80.5356 67.9782 80.5356 61.9632Z" fill="white"/>
<path d="M128 48.4476C128 44.1943 125.394 38.8047 114.467 38.8047C109.972 38.8047 97.6256 38.8047 97.6256 38.8047L92.8311 60.9651C92.8311 60.9651 101.939 60.9651 110.382 60.9651C124.096 60.9651 128 54.476 128 48.4476Z" fill="white"/>
<path d="M121.457 83.1529C121.457 78.8996 118.858 73.5234 107.924 73.5234C103.436 73.5234 91.0827 73.5234 91.0827 73.5234L86.2949 95.6738C86.2949 95.6738 95.3897 95.6738 103.846 95.6738C117.557 95.6738 121.457 89.1679 121.457 83.1529Z" fill="white"/>
<path d="M74.0162 96.6753C74.0162 92.4053 71.4205 87.0156 60.4933 87.0156C55.9946 87.0156 43.6418 87.0156 43.6418 87.0156L38.854 109.176C38.854 109.176 47.9556 109.176 56.4048 109.176C70.1194 109.179 74.0162 102.69 74.0162 96.6753Z" fill="white"/>
</svg>
