<svg width="128" height="128" viewBox="0 0 128 128" fill="none" xmlns="http://www.w3.org/2000/svg">
<path d="M128 63.9913C128 99.3372 99.3417 128 63.9981 128C28.6513 128 0 99.3372 0 63.9913C0 60.6526 0.253867 57.3749 0.749867 54.1775H14.4169V91.9981H27.3818V54.1777H41.9059V91.9983H54.2916V63.8022H54.5577L71.05 88.4971C72.691 91.1014 74.2027 91.9979 77.3553 91.9979H85.8692V54.1777H100.441V91.9983H113.193V54.1777H127.245C127.741 57.3749 128 60.6526 128 63.9913ZM41.4569 44.8892H54.003C57.1616 44.8892 58.7379 45.7777 60.3142 48.3849L73.2704 68.5677H73.7188V44.8892H125.071C116.948 18.8779 92.6709 0 63.9806 0C35.2932 0 11.0106 18.8779 2.88661 44.8892H41.4569Z" fill="white"/>
</svg>
