<svg width="128" height="128" viewBox="0 0 128 128" fill="none" xmlns="http://www.w3.org/2000/svg">
<rect width="128" height="128" rx="24" fill="url(#paint0_linear_5027_117332)"/>
<path d="M84.5126 44.0486L97.1758 37.4004C97.1758 37.4004 98.1255 36.7672 97.4924 35.8175C96.8592 34.8678 90.2111 18.0891 64.2516 19.0388C38.2921 19.9886 31.0108 39.2999 31.0108 48.7972V76.023C31.0108 76.023 29.4279 107.048 64.5682 108.947C64.5682 108.947 89.2613 110.847 97.809 91.852C97.809 91.852 98.4421 90.9022 97.1758 90.2691L83.5629 83.3043C83.5629 83.3043 82.6132 82.6712 81.98 83.9375C81.3469 85.2038 77.8645 93.1183 66.1511 93.1183C54.4377 93.1183 48.4227 84.5707 48.4227 76.6562V50.6967C48.4227 50.6967 48.4227 34.2346 66.1511 34.2346C77.2313 34.2346 80.7137 41.1994 81.98 43.732C82.2966 44.0486 82.6132 45.3149 84.5126 44.0486Z" fill="white"/>
<defs>
<linearGradient id="paint0_linear_5027_117332" x1="64" y1="0" x2="64" y2="128" gradientUnits="userSpaceOnUse">
<stop stop-color="#C97036"/>
<stop offset="1" stop-color="#935227"/>
</linearGradient>
</defs>
</svg>
