<svg width="129" height="128" viewBox="0 0 129 128" fill="none" xmlns="http://www.w3.org/2000/svg">
<path d="M42.4999 104.501H89.4999C111.8 103.901 129.5 85.3008 128.9 63.0008C128.3 41.5008 111 24.1008 89.4999 23.6008H42.4999C20.1999 23.0008 1.59992 40.6008 0.999922 63.0008C0.399922 85.4008 18.0999 103.901 40.3999 104.501C41.0999 104.501 41.7999 104.501 42.4999 104.501ZM88.4999 90.2008H43.5999C29.0999 89.7008 17.7999 77.6008 18.2999 63.2008C18.6999 49.4008 29.7999 38.3008 43.5999 37.9008H88.4999C103 37.4008 115.1 48.8008 115.5 63.2008C116 77.7008 104.6 89.8008 90.1999 90.2008C89.5999 90.2008 89.0999 90.2008 88.4999 90.2008Z" fill="url(#paint0_linear_5027_122729)"/>
<defs>
<linearGradient id="paint0_linear_5027_122729" x1="64.9999" y1="104.479" x2="64.9999" y2="23.5224" gradientUnits="userSpaceOnUse">
<stop stop-color="#7A2014"/>
<stop offset="0.48" stop-color="#C74634"/>
<stop offset="0.5" stop-color="#DD9085"/>
<stop offset="1" stop-color="#C74634"/>
</linearGradient>
</defs>
</svg>
