<svg width="128" height="128" viewBox="0 0 128 128" fill="none" xmlns="http://www.w3.org/2000/svg">
<path d="M113.317 63.7289C114.806 62.6633 116.191 61.4142 117.42 59.8938C123.857 51.92 124.777 40.7425 119.634 31.8637C114.491 22.9857 104.371 18.1786 94.256 19.772C92.3247 20.0747 90.5531 20.6471 88.8868 21.4C88.7102 19.5807 88.3068 17.7576 87.6031 15.9369C83.9248 6.37046 74.7038 -0.0153376 64.4417 2.76674e-05C54.1873 0.0115516 44.964 6.37046 41.2818 15.9369C40.5804 17.7576 40.1786 19.5792 39.9996 21.3984C38.3356 20.6448 36.5633 20.0724 34.6351 19.7697C24.5182 18.1771 14.3998 22.9834 9.25654 31.8637C4.11399 40.741 5.0328 51.9184 11.4713 59.8922C12.6998 61.4134 14.0841 62.6626 15.5714 63.7282C14.0841 64.793 12.6998 66.0429 11.4713 67.5641C5.0328 75.5363 4.11322 86.7123 9.25731 95.5918C14.3952 104.471 24.5129 109.277 34.6358 107.684C36.5633 107.382 38.3349 106.809 39.9989 106.056C40.1779 107.877 40.5797 109.699 41.2818 111.523C44.964 121.089 54.1873 127.481 64.4394 127.468C74.7038 127.453 83.9248 121.089 87.6031 111.523C88.3053 109.699 88.7078 107.877 88.8868 106.056C90.5531 106.81 92.3247 107.382 94.256 107.684C104.371 109.277 114.513 104.485 119.634 95.5918C124.753 86.7 123.857 75.5363 117.42 67.5641C116.191 66.0437 114.806 64.7937 113.317 63.7289Z" fill="white"/>
<path d="M11.5157 67.5158C12.7288 66.0246 14.087 64.7838 15.5505 63.7344C15.5543 63.7359 15.5582 63.739 15.5613 63.7413C14.0955 64.7923 12.7303 66.023 11.5157 67.5158Z" fill="#BFCFD6"/>
<path d="M11.5001 67.5299C11.5033 67.5252 11.5081 67.5196 11.5113 67.5156C11.5081 67.5196 11.5041 67.5252 11.5001 67.5299Z" fill="#BFCFD6"/>
<path d="M11.4845 67.5473C11.4875 67.5443 11.489 67.5413 11.492 67.5391C11.489 67.5413 11.4875 67.5443 11.4845 67.5473Z" fill="#BFCFD6"/>
<path d="M34.6837 107.675C36.5928 107.37 38.349 106.801 39.9991 106.055C39.9991 106.059 39.9999 106.064 40.0006 106.069C38.3513 106.814 36.5912 107.371 34.6837 107.675Z" fill="#BFCFD6"/>
<path d="M30.7769 107.985C22.0152 107.985 13.7406 103.338 9.25799 95.5904C7.03242 91.7483 5.94153 87.4775 5.94153 83.2221C5.94153 77.6399 7.81755 72.0854 11.4713 67.5626C11.4759 67.5557 11.4812 67.5496 11.4859 67.5434C11.4889 67.5403 11.4905 67.5373 11.4928 67.5342C11.4966 67.5311 11.4981 67.5288 11.5005 67.525C11.5051 67.5204 11.5081 67.5158 11.512 67.5112C11.5135 67.5096 11.5135 67.5088 11.515 67.5081C12.7296 66.0153 14.0948 64.7846 15.5613 63.7344C20.7154 67.4259 27.1962 68.7726 33.3981 70.4359C34.393 70.7025 35.3871 70.9691 36.3819 71.2365C29.517 78.0986 22.6513 84.9607 15.7849 91.8228C25.1581 89.306 34.5313 86.7922 43.9045 84.2769C43.6387 85.2711 43.3721 86.2644 43.1063 87.2586C41.45 93.4638 39.3765 99.7467 39.9972 106.056C38.3471 106.803 36.5909 107.372 34.6818 107.676C34.6788 107.676 34.6742 107.677 34.6711 107.677C34.6665 107.678 34.6634 107.679 34.6588 107.68C34.6511 107.681 34.6427 107.682 34.6358 107.683C33.3451 107.886 32.056 107.985 30.7769 107.985Z" fill="#BFCFD6"/>
<path d="M41.2416 111.415C40.5671 109.633 40.1753 107.851 40.0001 106.072C40.0001 106.071 40.0009 106.071 40.0009 106.07C40.1776 107.85 40.5671 109.633 41.2416 111.415Z" fill="#BFCFD6"/>
<path d="M41.2488 111.44C41.2472 111.434 41.2447 111.428 41.2423 111.422C41.2447 111.428 41.2472 111.434 41.2488 111.44Z" fill="#BFCFD6"/>
<path d="M41.2566 111.454C41.255 111.448 41.2526 111.442 41.2501 111.438C41.2526 111.443 41.255 111.448 41.2566 111.454Z" fill="#BFCFD6"/>
<path d="M41.2666 111.483C41.265 111.478 41.2634 111.474 41.2618 111.469C41.2634 111.474 41.2642 111.478 41.2666 111.483Z" fill="#BFCFD6"/>
<path d="M87.6173 111.48C88.3095 109.676 88.7067 107.873 88.8841 106.07C88.8857 106.071 88.8857 106.071 88.8857 106.072C88.709 107.873 88.3095 109.676 87.6173 111.48Z" fill="#BFCFD6"/>
<path d="M41.2739 111.504C41.2722 111.5 41.2705 111.496 41.2697 111.492C41.2705 111.496 41.2722 111.5 41.2739 111.504Z" fill="#BFCFD6"/>
<path d="M87.6095 111.504C87.6135 111.497 87.616 111.491 87.6176 111.484C87.616 111.491 87.6135 111.497 87.6095 111.504Z" fill="#BFCFD6"/>
<path d="M64.4084 127.465C54.1679 127.465 44.9598 121.076 41.2823 111.52C41.2792 111.513 41.2762 111.506 41.2739 111.498C41.2723 111.495 41.2708 111.491 41.27 111.487C41.2685 111.483 41.2669 111.48 41.2654 111.476C41.2631 111.471 41.2623 111.468 41.2608 111.463C41.2593 111.46 41.2577 111.457 41.2569 111.454C41.2554 111.449 41.2531 111.444 41.2508 111.439C41.25 111.437 41.25 111.435 41.2485 111.433C41.247 111.427 41.2447 111.421 41.2424 111.416C41.2416 111.414 41.2416 111.414 41.2408 111.412C40.5663 109.629 40.1768 107.847 40.0001 106.067C45.778 103.453 50.1846 98.5137 54.7363 93.9709C55.4623 93.2434 56.1898 92.5166 56.9174 91.7891C59.4272 101.165 61.9362 110.541 64.4422 119.919C66.9512 110.541 69.461 101.165 71.9724 91.7891C72.6999 92.5166 73.4274 93.2449 74.1549 93.9717C78.7006 98.5144 83.1072 103.453 88.8858 106.067C88.7083 107.87 88.3112 109.673 87.619 111.477C87.619 111.479 87.619 111.479 87.619 111.48C87.6174 111.487 87.6151 111.493 87.6113 111.499C87.609 111.507 87.6051 111.513 87.6036 111.52C83.9253 121.087 74.7042 127.451 64.4399 127.465H64.4084Z" fill="#BFCFD6"/>
<path d="M39.9978 106.071C39.997 106.066 39.9962 106.06 39.9962 106.056C39.9962 106.055 39.997 106.055 39.9978 106.055C39.9986 106.06 39.9986 106.065 39.9986 106.069C39.9986 106.07 39.9978 106.07 39.9978 106.071Z" fill="#9DB4BE"/>
<path d="M39.9978 106.068C39.9978 106.064 39.9978 106.059 39.997 106.054C39.9963 106.055 39.9955 106.055 39.9955 106.056C39.3748 99.7466 41.4482 93.4638 43.1045 87.2585C43.3703 86.2644 43.6369 85.271 43.9027 84.2769C47.3244 83.3588 50.7454 82.4407 54.1655 81.5234C55.082 84.9453 55.9985 88.3679 56.915 91.7897C56.1875 92.5173 55.46 93.244 54.734 93.9716C50.1823 98.5143 45.7757 103.453 39.9978 106.068Z" fill="#9DB4BE"/>
<path d="M117.313 67.4412C116.113 65.9823 114.769 64.7761 113.328 63.7428C113.332 63.7398 113.336 63.7374 113.34 63.7344C114.779 64.7677 116.115 65.9831 117.313 67.4412Z" fill="#BFCFD6"/>
<path d="M117.322 67.4504C117.322 67.4479 117.32 67.447 117.32 67.4453C117.32 67.447 117.322 67.4479 117.322 67.4504Z" fill="#BFCFD6"/>
<path d="M98.1187 107.987C96.838 107.987 95.5459 107.888 94.256 107.684C92.3285 107.382 90.5508 106.822 88.8868 106.071C88.8868 106.066 88.8891 106.061 88.8891 106.057C90.5531 106.811 92.327 107.381 94.256 107.684C95.5459 107.888 96.838 107.987 98.1187 107.987C106.878 107.988 115.166 103.35 119.634 95.5916C121.849 91.7449 122.938 87.4734 122.938 83.2188C122.938 87.4734 121.849 91.7449 119.634 95.5916C115.166 103.35 106.878 107.988 98.1187 107.987Z" fill="#BFCFD6"/>
<path d="M98.1197 107.985C96.839 107.985 95.5469 107.886 94.257 107.682C92.328 107.379 90.5541 106.809 88.8901 106.055C89.5116 99.7459 87.4366 93.4631 85.7765 87.2578C85.5114 86.2629 85.2456 85.268 84.9806 84.2739C94.3553 86.7892 103.731 89.3037 113.106 91.8213C106.24 84.9592 99.3765 78.0978 92.5108 71.2357C93.5041 70.9699 94.499 70.7033 95.4923 70.4359C101.695 68.7734 108.175 67.4266 113.33 63.7344C114.771 64.7677 116.115 65.9739 117.315 67.4328C117.316 67.4359 117.319 67.4382 117.322 67.4412C117.322 67.4428 117.324 67.4435 117.324 67.4459C117.355 67.4843 117.389 67.5234 117.421 67.5619C121.073 72.0854 122.941 77.6368 122.939 83.2167C122.939 87.4714 121.85 91.7429 119.635 95.5896C115.167 103.348 106.879 107.986 98.1197 107.985Z" fill="#BFCFD6"/>
<path d="M88.8885 106.071C88.8885 106.07 88.8885 106.07 88.8868 106.069C88.8885 106.065 88.8885 106.06 88.8885 106.055C88.8885 106.055 88.8909 106.055 88.8909 106.056C88.8909 106.061 88.8885 106.066 88.8885 106.071Z" fill="#9DB4BE"/>
<path d="M88.8862 106.069C83.1075 103.455 78.701 98.5166 74.1553 93.9747C73.4278 93.2464 72.7003 92.5188 71.9728 91.7913C72.8893 88.3687 73.8058 84.9468 74.7223 81.5234C78.1417 82.4407 81.5603 83.358 84.9805 84.2761C85.2455 85.2703 85.5113 86.2652 85.7787 87.2601C87.4365 93.4653 89.5115 99.7482 88.89 106.057C88.89 106.056 88.8877 106.056 88.8877 106.056C88.8877 106.061 88.8877 106.066 88.8862 106.069Z" fill="#9DB4BE"/>
<path d="M15.7853 91.8285C22.6517 84.9664 29.5174 78.1043 36.3823 71.2422C39.8071 72.161 43.2334 73.0791 46.6582 73.9979C45.7409 77.4267 44.8229 80.8547 43.9049 84.2827C34.5309 86.798 25.1585 89.3125 15.7853 91.8285Z" fill="#9DB4BE"/>
<path d="M43.9064 84.2769C44.8244 80.8489 45.7424 77.4202 46.6597 73.9922C48.6333 74.5215 50.6061 75.0509 52.5789 75.5802C53.109 77.5615 53.6399 79.5413 54.1692 81.5235C50.749 82.4408 47.3281 83.3588 43.9064 84.2769Z" fill="#88A2AE"/>
<path d="M88.8923 21.3961C88.8907 21.3923 88.8907 21.3885 88.8907 21.3838C90.5325 20.6409 92.2894 20.0839 94.1892 19.7812C92.2848 20.0863 90.5371 20.6525 88.8923 21.3961Z" fill="#BFCFD6"/>
<path d="M117.32 60.0208C117.323 60.0193 117.324 60.0171 117.324 60.0156C117.324 60.0171 117.323 60.0193 117.32 60.0208Z" fill="#BFCFD6"/>
<path d="M113.34 63.7295C113.336 63.7272 113.332 63.7249 113.328 63.7219C114.769 62.6885 116.115 61.4824 117.313 60.0234C116.115 61.4816 114.779 62.6978 113.34 63.7295Z" fill="#BFCFD6"/>
<path d="M113.33 63.7207C108.175 60.0292 101.695 58.6847 95.4923 57.0191C94.4967 56.7525 93.5041 56.4852 92.5085 56.2186C99.3742 49.3557 106.238 42.4943 113.106 35.6322C103.731 38.1483 94.3538 40.6636 84.9806 43.1789C85.2456 42.1847 85.5114 41.1906 85.7788 40.1965C87.4366 33.9897 89.5116 27.7061 88.8917 21.3986C90.5364 20.6549 92.2842 20.0887 94.1886 19.7814C94.1886 19.7814 94.1902 19.7814 94.1925 19.7814C94.1963 19.7814 94.2017 19.7799 94.2101 19.7799C94.214 19.7776 94.2178 19.7776 94.224 19.7776C94.2255 19.7761 94.2293 19.7761 94.2316 19.7761C94.2393 19.7738 94.247 19.7738 94.257 19.7722C95.5453 19.5694 96.8336 19.4688 98.1135 19.4688C106.871 19.4688 115.147 24.1167 119.635 31.8639C121.86 35.7044 122.949 39.976 122.949 44.2322C122.949 49.8143 121.073 55.3697 117.421 59.8939C117.389 59.9331 117.358 59.9715 117.324 60.01C117.324 60.0115 117.322 60.0138 117.32 60.0153C117.319 60.0176 117.316 60.0199 117.315 60.0222C116.117 61.4812 114.771 62.6874 113.33 63.7207Z" fill="#BFCFD6"/>
<path d="M92.508 56.2192C89.0825 55.3003 85.6561 54.3807 82.2306 53.4619C83.1471 50.0347 84.0636 46.6074 84.9801 43.1795C94.3533 40.6642 103.73 38.1489 113.105 35.6328C106.239 42.4949 99.3737 49.3563 92.508 56.2192Z" fill="#9DB4BE"/>
<path d="M113.328 63.7351C113.324 63.7328 113.32 63.7297 113.317 63.7273C113.32 63.7242 113.324 63.7219 113.328 63.7188C113.332 63.7219 113.336 63.7242 113.34 63.7266C113.336 63.7297 113.332 63.732 113.328 63.7351Z" fill="#9DB4BE"/>
<path d="M92.5111 71.2383C90.0051 68.7345 87.4999 66.2315 84.9962 63.727C87.4999 61.2247 90.0051 58.721 92.5088 56.2188C93.5044 56.4853 94.4969 56.7519 95.4926 57.0193C101.695 58.6849 108.175 60.0293 113.33 63.7208C113.326 63.7239 113.322 63.7262 113.319 63.7293C113.322 63.7316 113.326 63.7347 113.33 63.737C108.175 67.4292 101.695 68.776 95.4926 70.4385C94.4992 70.7059 93.5044 70.9725 92.5111 71.2383Z" fill="#9DB4BE"/>
<path d="M84.9952 63.7265C83.5455 62.2783 82.0943 60.8286 80.6447 59.3804C81.174 57.4075 81.701 55.4338 82.2303 53.4609C85.6558 54.3798 89.0821 55.2994 92.5077 56.2182C90.004 58.7205 87.4988 61.2242 84.9952 63.7265Z" fill="#88A2AE"/>
<path d="M113.103 91.8278C103.729 89.3102 94.3532 86.7957 84.9785 84.2804C84.062 80.8531 83.1455 77.4267 82.2267 74.0002C85.6545 73.0806 89.0808 72.1618 92.5087 71.2422C99.3744 78.1043 106.238 84.9657 113.103 91.8278Z" fill="#9DB4BE"/>
<path d="M84.981 84.2809C81.5608 83.3628 78.1422 82.4455 74.7228 81.5282C75.2536 79.5484 75.7822 77.5678 76.3138 75.588C78.2858 75.0587 80.2564 74.5301 82.2292 74C83.148 77.4272 84.0645 80.8537 84.981 84.2809Z" fill="#88A2AE"/>
<path d="M82.228 73.9952C81.701 72.0215 81.1717 70.0478 80.6447 68.0742C82.0943 66.6252 83.544 65.1763 84.9952 63.7266C87.4988 66.2311 90.004 68.7341 92.51 71.2379C89.0821 72.1575 85.6558 73.0763 82.228 73.9952Z" fill="#88A2AE"/>
<path d="M80.6429 68.0765C80.2557 66.6275 79.8685 65.1809 79.4806 63.7319C79.8685 62.2815 80.2557 60.8325 80.6429 59.3828C82.0926 60.831 83.5438 62.2807 84.9934 63.7289C83.5422 65.1786 82.0926 66.6275 80.6429 68.0765Z" fill="#7C96A2"/>
<path d="M76.3126 75.5871C76.59 74.5507 76.8673 73.5151 77.1446 72.4795C77.2545 72.0685 77.3643 71.6575 77.4727 71.2464C77.7715 70.9484 78.0703 70.6503 78.3692 70.3514C79.129 69.5939 79.8857 68.8364 80.6447 68.0781C81.1717 70.0518 81.701 72.0262 82.228 73.9999C80.2552 74.5292 78.2847 75.0578 76.3126 75.5871Z" fill="#7C96A2"/>
<path d="M77.4728 71.2472C78.1434 68.7427 78.8118 66.2389 79.4825 63.7344C79.8704 65.1833 80.2553 66.63 80.6448 68.0789C79.8858 68.8372 79.1291 69.5947 78.3693 70.3522C78.0705 70.651 77.7716 70.9491 77.4728 71.2472Z" fill="#738E9A"/>
<path d="M34.634 19.7699C33.3457 19.5671 32.0558 19.4688 30.7775 19.4688C32.0566 19.4688 33.3449 19.5671 34.634 19.7699Z" fill="#BFCFD6"/>
<path d="M34.7258 19.7861C34.7201 19.7837 34.7136 19.7837 34.7072 19.7812C34.7128 19.7837 34.7201 19.7837 34.7258 19.7861Z" fill="#BFCFD6"/>
<path d="M39.9983 21.3915C38.3612 20.6502 36.6196 20.0855 34.7267 19.7812C36.6173 20.0855 38.3643 20.6386 39.9998 21.3777C39.9991 21.3838 39.9991 21.3877 39.9983 21.3915Z" fill="#BFCFD6"/>
<path d="M11.4964 59.9284C11.4925 59.9236 11.4893 59.9188 11.4845 59.9141C11.4893 59.9188 11.4925 59.9236 11.4964 59.9284Z" fill="#BFCFD6"/>
<path d="M15.5495 63.7287C14.0791 62.6739 12.7178 61.4286 11.5001 59.9297C12.7185 61.4293 14.0883 62.6655 15.5602 63.7203C15.5572 63.7234 15.5533 63.7257 15.5495 63.7287Z" fill="#BFCFD6"/>
<path d="M15.5606 63.7199C14.0886 62.6651 12.7189 61.4289 11.5005 59.9293C11.4997 59.9277 11.4981 59.9262 11.4974 59.9254C11.4935 59.9208 11.4905 59.9162 11.4859 59.9116C11.4812 59.9055 11.4766 59.8993 11.4713 59.8924C7.81832 55.3689 5.94153 49.8128 5.94153 44.2314C5.94153 39.9752 7.03165 35.7044 9.25645 31.8639C13.7437 24.1167 22.0168 19.4688 30.7731 19.4688H30.7785C32.0568 19.4688 33.3467 19.5671 34.635 19.7699C34.6434 19.7722 34.6511 19.7738 34.6596 19.7738C34.6611 19.7738 34.6619 19.7761 34.6634 19.7761C34.6696 19.7761 34.6765 19.7776 34.6834 19.7776C34.6872 19.7799 34.6895 19.7799 34.6926 19.7799C34.6972 19.7799 34.7011 19.7814 34.7057 19.7814C34.7118 19.7837 34.7172 19.7837 34.7233 19.786C34.7249 19.786 34.7249 19.786 34.7256 19.786C36.6186 20.0903 38.3601 20.6549 39.9972 21.3963C39.3758 27.7038 41.45 33.9897 43.1071 40.1965C43.3736 41.1906 43.6394 42.1847 43.9052 43.1781C34.5313 40.6636 25.1565 38.149 15.7841 35.6322C22.6506 42.4943 29.517 49.3565 36.382 56.2186C35.3871 56.4852 34.3922 56.7525 33.3974 57.0191C27.1931 58.6839 20.7146 60.0284 15.5606 63.7199Z" fill="#BFCFD6"/>
<path d="M15.5618 63.7351C15.5587 63.732 15.5548 63.7297 15.5509 63.7273C15.5548 63.7242 15.5587 63.7219 15.5618 63.7188C15.5657 63.7219 15.5689 63.7242 15.5728 63.7273C15.5689 63.7297 15.5657 63.732 15.5618 63.7351Z" fill="#9DB4BE"/>
<path d="M36.384 71.2383C35.3892 70.9709 34.3951 70.7043 33.4002 70.4377C27.1975 68.7745 20.7175 67.4285 15.5626 63.7362C15.5665 63.7331 15.5695 63.7308 15.5734 63.7285C15.5695 63.7254 15.5665 63.7231 15.5626 63.7201C20.7167 60.0286 27.1952 58.6841 33.3994 57.0193C34.3943 56.7519 35.3892 56.4853 36.384 56.2188C38.8892 58.7225 41.3929 61.2247 43.8981 63.7285C41.3937 66.2315 38.8884 68.7345 36.384 71.2383Z" fill="#9DB4BE"/>
<path d="M36.3831 56.2176C29.5174 49.3555 22.6517 42.4934 15.7853 35.6328C25.1577 38.1481 34.5324 40.6626 43.9064 43.1771C44.8237 46.6059 45.7417 50.0324 46.659 53.4603C43.2334 54.3792 39.8079 55.2988 36.3831 56.2176Z" fill="#9DB4BE"/>
<path d="M43.897 63.728C41.3918 61.2242 38.8881 58.722 36.3829 56.2182C39.8077 55.2994 43.2333 54.3798 46.6588 53.4609C47.1873 55.4354 47.7159 57.409 48.2437 59.3827C46.7948 60.8316 45.3459 62.2798 43.897 63.728Z" fill="#88A2AE"/>
<path d="M46.6588 74.0007C43.2348 73.0818 39.8077 72.163 36.3829 71.2449C38.8874 68.7411 41.3926 66.2381 43.897 63.7344C45.3459 65.1833 46.7948 66.6323 48.2437 68.0797C47.7151 70.0533 47.1873 72.027 46.6588 74.0007Z" fill="#88A2AE"/>
<path d="M52.5756 75.5871C50.6028 75.0578 48.63 74.5285 46.6564 73.9991C47.1849 72.0255 47.7127 70.0518 48.2412 68.0781C49.0002 68.8364 49.7585 69.5947 50.5175 70.3529C50.8171 70.6526 51.116 70.9514 51.4156 71.251C51.5254 71.6605 51.6353 72.0716 51.7444 72.481C52.0209 73.5167 52.299 74.5523 52.5756 75.5871Z" fill="#7C96A2"/>
<path d="M48.2413 68.0719C46.7924 66.6245 45.3435 65.1755 43.8947 63.7266C45.3435 62.2792 46.7924 60.8302 48.2413 59.3828C48.6285 60.8302 49.0165 62.2792 49.4036 63.7266C49.0165 65.1755 48.6285 66.6237 48.2413 68.0719Z" fill="#7C96A2"/>
<path d="M51.4166 71.2518C51.117 70.953 50.8182 70.6541 50.5186 70.3545C49.7596 69.5962 49.0013 68.8379 48.2423 68.0797C48.6295 66.6315 49.0175 65.1833 49.4046 63.7344C50.0761 66.2404 50.746 68.7465 51.4166 71.2518Z" fill="#738E9A"/>
<path d="M64.4429 119.921C61.937 110.543 59.4279 101.168 56.9181 91.7915C59.4256 89.2831 61.9354 86.774 64.4445 84.2656C66.9543 86.774 69.4633 89.2831 71.9731 91.7915C69.4618 101.168 66.952 110.543 64.4429 119.921Z" fill="#77919F"/>
<path d="M56.9176 91.7901C56.0011 88.3683 55.0846 84.9457 54.1681 81.5238C56.1486 80.9922 58.1291 80.4613 60.1073 79.9297C61.5531 81.3748 62.9981 82.8191 64.444 84.2642C61.9349 86.7726 59.4251 89.2817 56.9176 91.7901Z" fill="#647F8D"/>
<path d="M71.9702 91.7917C69.4604 89.2833 66.9513 86.7741 64.4415 84.2658C65.8873 82.8199 67.3324 81.3748 68.7782 79.9297C70.7587 80.4606 72.7392 80.9922 74.7197 81.5238C73.8032 84.9472 72.8867 88.369 71.9702 91.7917Z" fill="#647F8D"/>
<path d="M64.4423 84.2648C62.9964 82.8197 61.5514 81.3754 60.1056 79.9303C61.1419 79.6522 62.179 79.3749 63.2154 79.0967C63.6241 78.9861 64.0351 78.8755 64.4461 78.7656C64.8556 78.8755 65.2643 78.9853 65.6737 79.0952C66.7101 79.3733 67.7441 79.6507 68.7789 79.9288C67.3331 81.3739 65.8881 82.8197 64.4423 84.2648Z" fill="#567582"/>
<path d="M54.1685 81.5214C53.6392 79.5393 53.1083 77.5602 52.5782 75.5781C54.0271 75.9669 55.4745 76.3548 56.9218 76.7428C57.9835 77.8045 59.046 78.8663 60.1077 79.9273C58.1272 80.4589 56.149 80.9898 54.1685 81.5214Z" fill="#567582"/>
<path d="M60.1079 79.9266C59.0462 78.8657 57.9837 77.8039 56.922 76.7422C59.4318 77.416 61.9393 78.089 64.4484 78.7619C64.0374 78.8718 63.6264 78.9824 63.2177 79.0931C62.1813 79.3712 61.1442 79.6485 60.1079 79.9266Z" fill="#4E6D7B"/>
<path d="M40.0017 21.3852C40.0009 21.3852 40.0009 21.3852 40.0001 21.3829C40.1799 19.5698 40.5832 17.7544 41.2831 15.9375C40.5832 17.7544 40.1814 19.5698 40.0017 21.3852Z" fill="#97AEB9"/>
<path d="M88.8879 21.3887C88.7089 19.5818 88.3102 17.7725 87.6134 15.9609C88.3102 17.7725 88.7112 19.5795 88.8902 21.3887C88.8879 21.3887 88.8879 21.3887 88.8879 21.3887Z" fill="#97AEB9"/>
<path d="M71.9719 35.6689C69.4621 26.2915 66.9507 16.9164 64.4394 7.54049C61.9357 16.9164 59.4266 26.2915 56.9168 35.6673C56.1893 34.939 55.4618 34.2138 54.7358 33.4863C50.1887 28.9427 45.7813 23.9982 40.0004 21.3846C40.1801 19.5692 40.5819 17.7538 41.2818 15.9368C44.9639 6.37043 54.1888 0.0115239 64.4417 0C64.4532 0 64.4647 0 64.477 0C74.7252 0 83.9294 6.38042 87.6031 15.9368C87.6069 15.9445 87.6085 15.9522 87.6123 15.9583C88.3091 17.7699 88.7078 19.5792 88.8868 21.3861C83.1066 24.0021 78.7 28.9451 74.1544 33.4878C73.4269 34.2153 72.6994 34.9413 71.9719 35.6689Z" fill="#97AEB9"/>
<path d="M64.4468 43.1872C61.937 40.6804 59.4279 38.172 56.9181 35.6659C59.4279 26.29 61.9354 16.9149 64.4406 7.53906C66.952 16.9149 69.4633 26.29 71.9731 35.6674C69.4656 38.1743 66.9558 40.6804 64.4468 43.1872Z" fill="#77919F"/>
<path d="M88.8868 21.3971C88.8868 21.3916 88.8868 21.3876 88.8868 21.3828C88.8868 21.3828 88.8868 21.3828 88.8892 21.3828C88.8892 21.3876 88.8892 21.3916 88.8908 21.3955C88.8892 21.3955 88.8892 21.3971 88.8868 21.3971Z" fill="#78929F"/>
<path d="M74.72 45.9288C73.8058 42.5085 72.8893 39.0866 71.9728 35.6656C72.7003 34.938 73.4278 34.212 74.1553 33.4845C78.701 28.9417 83.1075 23.9987 88.8877 21.3828C88.8877 21.3874 88.8877 21.3928 88.8877 21.3966C88.89 21.3966 88.89 21.3966 88.8916 21.3951C89.5131 27.7025 87.4365 33.9862 85.7787 40.1929C85.5113 41.1871 85.2455 42.1812 84.9805 43.1753C81.5603 44.0934 78.1401 45.0107 74.72 45.9288Z" fill="#77919F"/>
<path d="M82.23 53.4621C80.2549 52.9328 78.2828 52.4034 76.31 51.8741C75.7792 49.8935 75.2498 47.9137 74.719 45.9331C78.1392 45.0151 81.5593 44.0978 84.9795 43.1797C84.063 46.6077 83.1465 50.0349 82.23 53.4621Z" fill="#647F8D"/>
<path d="M68.7859 47.5285C67.3378 46.0826 65.8928 44.6375 64.4454 43.1924C66.9545 40.6848 69.4643 38.1787 71.9718 35.6719C72.8883 39.0929 73.8048 42.5148 74.719 45.9351C72.7408 46.466 70.7618 46.9976 68.7859 47.5285Z" fill="#647F8D"/>
<path d="M76.3093 51.8707C74.862 51.4827 73.4185 51.0955 71.9711 50.7075C70.9087 49.6458 69.847 48.5848 68.7853 47.5231C70.7612 46.9922 72.7401 46.4606 74.7183 45.9297C75.2492 47.9103 75.7785 49.8901 76.3093 51.8707Z" fill="#567582"/>
<path d="M80.6431 59.3825C79.8864 58.6242 79.1274 57.8667 78.3699 57.1092C78.0687 56.8088 77.7684 56.5076 77.4672 56.2072C77.3589 55.7985 77.249 55.3906 77.1407 54.9819C76.8634 53.9462 76.586 52.9106 76.3087 51.875C78.2815 52.4043 80.2559 52.9337 82.2287 53.463C81.6994 55.4359 81.1724 57.4096 80.6431 59.3825Z" fill="#567582"/>
<path d="M77.4695 56.2063C75.6388 54.374 73.8058 52.5425 71.9728 50.7109C73.4201 51.0989 74.8636 51.4861 76.311 51.8741C76.5883 52.9097 76.8656 53.9461 77.143 54.9809C77.2513 55.3897 77.3612 55.7976 77.4695 56.2063Z" fill="#4E6D7B"/>
<path d="M39.9986 21.3998C39.9978 21.3974 39.997 21.3974 39.9962 21.3974C39.997 21.3934 39.997 21.3893 39.9978 21.3828C39.9986 21.3852 39.9986 21.3852 39.9995 21.3852C39.9986 21.3893 39.9986 21.3934 39.9986 21.3998Z" fill="#78929F"/>
<path d="M54.1681 45.9303C50.7464 45.0123 47.3247 44.0942 43.9037 43.1761C43.6379 42.1827 43.3721 41.1886 43.1055 40.1945C41.4484 33.9877 39.3742 27.7018 39.9957 21.3943C39.9965 21.3943 39.9973 21.3943 39.998 21.3966C39.998 21.3905 39.998 21.3867 39.9988 21.3828C45.7797 23.9964 50.1871 28.941 54.7319 33.4845C55.4602 34.212 56.1877 34.9373 56.9153 35.6656C56.0011 39.0866 55.0823 42.5093 54.1681 45.9303Z" fill="#77919F"/>
<path d="M60.1035 47.5222C58.1245 46.9913 56.1463 46.4605 54.1681 45.9288C55.0846 42.507 55.9988 39.0851 56.9153 35.6641C59.4251 38.1709 61.9341 40.6785 64.444 43.1861C62.9981 44.6312 61.5508 46.0771 60.1035 47.5222Z" fill="#647F8D"/>
<path d="M74.7229 81.5261C72.7424 80.9945 70.7619 80.4636 68.7814 79.932C69.8415 78.8718 70.9017 77.8131 71.9611 76.7529C73.413 76.3642 74.8642 75.9747 76.3139 75.5859C75.7823 77.5657 75.2537 79.5463 74.7229 81.5261Z" fill="#567582"/>
<path d="M68.7783 79.9291C67.7435 79.651 66.7094 79.3736 65.6731 79.0955C65.2636 78.9856 64.8549 78.8758 64.4454 78.7659C66.9514 78.0937 69.4551 77.4215 71.958 76.75C70.8986 77.8102 69.8384 78.8689 68.7783 79.9291Z" fill="#4E6D7B"/>
<path d="M46.6589 53.4629C45.7417 50.0349 44.8236 46.6084 43.9064 43.1797C47.3273 44.0978 50.749 45.0158 54.1707 45.9339C53.6391 47.9145 53.1106 49.8943 52.5797 51.8749C50.6061 52.4042 48.6318 52.9335 46.6589 53.4629Z" fill="#647F8D"/>
<path d="M48.2412 59.3848C47.7127 57.4111 47.1849 55.4374 46.6564 53.463C48.6292 52.9337 50.6035 52.4043 52.5771 51.875C52.2998 52.9106 52.0217 53.9462 51.7444 54.9826C51.6353 55.3921 51.5254 55.8024 51.4156 56.2126C51.116 56.5115 50.8171 56.8111 50.5175 57.1099C49.7585 57.869 49.0002 58.6265 48.2412 59.3848Z" fill="#567582"/>
<path d="M52.5782 51.8707C53.1091 49.8901 53.6376 47.9103 54.1693 45.9297C56.1475 46.4613 58.1256 46.9922 60.1046 47.5238C59.0422 48.584 57.982 49.645 56.9203 50.706C55.4729 51.0939 54.0256 51.4819 52.5782 51.8707Z" fill="#567582"/>
<path d="M51.4181 56.2132C51.5279 55.803 51.6378 55.3927 51.7469 54.9832C52.0242 53.9476 52.3023 52.9112 52.5797 51.8756C54.027 51.4869 55.4744 51.0989 56.9217 50.7109C55.0872 52.5448 53.2519 54.3794 51.4181 56.2132Z" fill="#4E6D7B"/>
<path d="M56.9217 76.7437C55.4744 76.3557 54.027 75.9678 52.5781 75.579C52.3016 74.5442 52.0242 73.5086 51.7469 72.4729C51.6378 72.0635 51.5279 71.6524 51.4181 71.2422C53.2519 73.0768 55.0872 74.9106 56.9217 76.7437Z" fill="#4E6D7B"/>
<path d="M64.4438 48.689C64.0351 48.5784 63.6256 48.4685 63.2146 48.3587C62.1783 48.0806 61.1419 47.8025 60.1056 47.5243C61.5529 46.0785 63.0003 44.6326 64.4461 43.1875C65.8935 44.6326 67.3385 46.0777 68.7866 47.5236C67.748 47.8017 66.7116 48.0806 65.6753 48.3587C65.2643 48.4685 64.8548 48.5792 64.4438 48.689Z" fill="#567582"/>
<path d="M71.9702 50.7079C69.4604 50.0349 66.9513 49.3611 64.4415 48.6889C64.8525 48.5783 65.262 48.4684 65.673 48.3585C66.7093 48.0804 67.7457 47.8015 68.7843 47.5234C69.846 48.5852 70.9077 49.6461 71.9702 50.7079Z" fill="#4E6D7B"/>
<path d="M49.4046 63.7284C49.0175 62.2802 48.6295 60.832 48.2423 59.3831C49.0013 58.6248 49.7596 57.8673 50.5186 57.1083C50.8182 56.8094 51.117 56.5106 51.4166 56.2109C50.746 58.717 50.0753 61.2223 49.4046 63.7284Z" fill="#4E6D7B"/>
<path d="M79.4824 63.7275C78.8117 61.2199 78.1395 58.7107 77.4689 56.2031C77.77 56.5035 78.0704 56.8047 78.3715 57.1051C79.129 57.8626 79.888 58.6201 80.6447 59.3784C80.2576 60.8281 79.8704 62.2778 79.4824 63.7275Z" fill="#4E6D7B"/>
<path d="M56.922 50.7063C57.9837 49.6454 59.0462 48.5844 60.1063 47.5234C61.1427 47.8023 62.179 48.0804 63.2154 48.3585C63.6264 48.4684 64.0358 48.5783 64.4445 48.6881C61.9393 49.3611 59.4295 50.0334 56.922 50.7063Z" fill="#4E6D7B"/>
<path d="M71.9611 76.7499C73.7979 74.9145 75.637 73.0783 77.4739 71.2422C77.3656 71.6532 77.2557 72.0642 77.1459 72.4752C76.8685 73.5109 76.5912 74.5465 76.3139 75.5821C74.8619 75.9716 73.413 76.3611 71.9611 76.7499Z" fill="#4E6D7B"/>
<path d="M64.4484 78.7627C61.9393 78.0897 59.4318 77.4167 56.922 76.7429C55.0874 74.9098 53.2521 73.076 51.4184 71.2421C50.7477 68.7361 50.0778 66.2308 49.4064 63.7247C50.0778 61.2186 50.7477 58.7133 51.4184 56.2073C53.2521 54.3734 55.0874 52.5388 56.922 50.705C59.4295 50.032 61.9393 49.3597 64.4445 48.6875C66.9543 49.3597 69.4634 50.0327 71.9732 50.7065C73.8062 52.538 75.6392 54.3696 77.4699 56.2019C78.1406 58.7095 78.8128 61.2186 79.4834 63.7262C78.8128 66.2308 78.1444 68.7345 77.4737 71.2391C75.6369 73.0752 73.7977 74.9114 71.9609 76.7467C69.458 77.419 66.9543 78.0904 64.4484 78.7627Z" fill="#476775"/>
</svg>
