<svg width="129" height="128" viewBox="0 0 129 128" fill="none" xmlns="http://www.w3.org/2000/svg">
<path d="M0 24C0 10.7452 10.7452 0 24 0H104C117.255 0 128 10.7452 128 24V65.558C128 67.8697 127.338 70.133 126.092 72.08L125.631 72.7995C123.236 76.5413 123.367 81.3654 125.961 84.9722C127.287 86.8162 128 89.0301 128 91.3013V104C128 117.255 117.255 128 104 128H24C10.7452 128 0 117.255 0 104V64.6482C0 63.4961 0.416367 62.3827 1.17239 61.5133L1.26766 61.4038C2.80287 59.6383 2.77379 57.0032 1.19999 55.272C0.427845 54.4227 0 53.316 0 52.1681V24Z" fill="#016FD0"/>
<path d="M24.8477 89.1897V69.0938H46.1255L48.4084 72.0698L50.7667 69.0938H128V87.8037C128 87.8037 125.98 89.1696 123.644 89.1897H80.8786L78.3047 86.0218V89.1897H69.8704V83.7821C69.8704 83.7821 68.7183 84.5369 66.2274 84.5369H63.3566V89.1897H50.5862L48.3066 86.1498L45.992 89.1897H24.8477Z" fill="white"/>
<path d="M0 53.952L4.79823 42.7656H13.0963L15.8193 49.0318V42.7656H26.1346L27.7556 47.2946L29.3271 42.7656H75.6319V45.0425C75.6319 45.0425 78.0661 42.7656 82.0665 42.7656L97.0907 42.8181L99.7667 49.0023V42.7656H108.399L110.775 46.3179V42.7656H119.486V62.8615H110.775L108.498 59.2977V62.8615H95.8153L94.5398 59.6937H91.1303L89.8756 62.8615H81.2746C77.8323 62.8615 75.6319 60.6311 75.6319 60.6311V62.8615H62.6636L60.0897 59.6937V62.8615H11.867L10.5924 59.6937H7.19373L5.92818 62.8615H0V53.952Z" fill="white"/>
<path d="M6.49521 45.2422L0.0234375 60.2894H4.2369L5.43102 57.2762H12.373L13.5609 60.2894H17.8672L11.4016 45.2422H6.49521ZM8.88964 48.7441L11.0056 54.0094H6.76744L8.88964 48.7441Z" fill="#016FD0"/>
<path d="M18.3125 60.2894V45.2422L24.3001 45.2644L27.7826 54.9659L31.1818 45.2422H37.1215V60.2894H33.3597V49.202L29.3721 60.2894H26.073L22.0743 49.202V60.2894H18.3125Z" fill="#016FD0"/>
<path d="M39.6953 60.2894V45.2422H51.9706V48.608H43.4967V51.1819H51.7727V54.3497H43.4967V57.0226H51.9706V60.2894H39.6953Z" fill="#016FD0"/>
<path d="M54.1484 45.2422V60.2894H57.9102V54.9437H59.4941L64.0046 60.2894H68.6016L63.6519 54.7457C65.6833 54.5743 67.7788 52.8307 67.7788 50.1239C67.7788 46.9574 65.2934 45.2422 62.5197 45.2422H54.1484ZM57.9102 48.608H62.2103C63.2418 48.608 63.9922 49.4149 63.9922 50.1919C63.9922 51.1916 63.02 51.7758 62.266 51.7758H57.9102V48.608Z" fill="#016FD0"/>
<path d="M73.1574 60.2894H69.3164V45.2422H73.1574V60.2894Z" fill="#016FD0"/>
<path d="M82.2644 60.2894H81.4353C77.4238 60.2894 74.9883 57.129 74.9883 52.8276C74.9883 48.4201 77.3966 45.2422 82.4624 45.2422H86.6201V48.806H82.3104C80.2539 48.806 78.7996 50.4108 78.7996 52.8648C78.7996 55.7788 80.4626 57.0028 82.8584 57.0028H83.8483L82.2644 60.2894Z" fill="#016FD0"/>
<path d="M90.4483 45.2422L83.9766 60.2894H88.19L89.3841 57.2762H96.3261L97.5141 60.2894H101.82L95.3548 45.2422H90.4483ZM92.8428 48.7441L94.9588 54.0094H90.7206L92.8428 48.7441Z" fill="#016FD0"/>
<path d="M102.262 60.2894V45.2422H107.044L113.151 54.6962V45.2422H116.913V60.2894H112.285L106.024 50.5879V60.2894H102.262Z" fill="#016FD0"/>
<path d="M27.4219 86.6253V71.5781H39.6972V74.944H31.2233V77.5178H39.4992V80.6856H31.2233V83.3585H39.6972V86.6253H27.4219Z" fill="#016FD0"/>
<path d="M87.5703 86.6253V71.5781H99.8456V74.944H91.3717V77.5178H99.6081V80.6856H91.3717V83.3585H99.8456V86.6253H87.5703Z" fill="#016FD0"/>
<path d="M40.1736 86.6253L46.1504 79.1945L40.0312 71.5781H44.7706L48.4149 76.2866L52.0715 71.5781H56.6252L50.5865 79.1017L56.5743 86.6253H51.8357L48.2973 81.9911L44.8449 86.6253H40.1736Z" fill="#016FD0"/>
<path d="M57.0195 71.5781V86.6253H60.8803V81.8736H64.8401C68.1906 81.8736 70.7303 80.096 70.7303 76.6392C70.7303 73.7756 68.7384 71.5781 65.3289 71.5781H57.0195ZM60.8803 74.9811H65.0505C66.1329 74.9811 66.9066 75.6445 66.9066 76.7135C66.9066 77.7177 66.1368 78.4459 65.0381 78.4459H60.8803V74.9811Z" fill="#016FD0"/>
<path d="M72.3672 71.5781V86.6253H76.129V81.2796H77.7129L82.2233 86.6253H86.8204L81.8707 81.0816C83.9021 80.9102 85.9975 79.1667 85.9975 76.4598C85.9975 73.2934 83.5122 71.5781 80.7384 71.5781H72.3672ZM76.129 74.944H80.4291C81.4606 74.944 82.211 75.7508 82.211 76.5279C82.211 77.5275 81.2387 78.1118 80.4847 78.1118H76.129V74.944Z" fill="#016FD0"/>
<path d="M101.587 86.6253V83.3585H109.116C110.23 83.3585 110.712 82.7565 110.712 82.0963C110.712 81.4637 110.231 80.8242 109.116 80.8242H105.714C102.756 80.8242 101.109 79.0225 101.109 76.3175C101.109 73.9048 102.618 71.5781 107.012 71.5781H114.338L112.754 74.9637H106.418C105.207 74.9637 104.834 75.5993 104.834 76.2061C104.834 76.8299 105.295 77.5178 106.22 77.5178H109.784C113.08 77.5178 114.511 79.3877 114.511 81.8364C114.511 84.4691 112.917 86.6253 109.604 86.6253H101.587Z" fill="#016FD0"/>
<path d="M115.396 86.6253V83.3585H122.924C124.038 83.3585 124.52 82.7565 124.52 82.0963C124.52 81.4637 124.04 80.8242 122.924 80.8242H119.522C116.565 80.8242 114.918 79.0225 114.918 76.3175C114.918 73.9048 116.426 71.5781 120.821 71.5781H128.146L126.562 74.9637H120.227C119.015 74.9637 118.643 75.5993 118.643 76.2061C118.643 76.8299 119.103 77.5178 120.029 77.5178H123.592C126.889 77.5178 128.319 79.3877 128.319 81.8364C128.319 84.4691 126.725 86.6253 123.413 86.6253H115.396Z" fill="#016FD0"/>
</svg>
