<svg width="128" height="128" viewBox="0 0 128 128" fill="none" xmlns="http://www.w3.org/2000/svg">
<path d="M105.169 47.4495H97.9053V54.7053H105.169C106.893 54.7053 108.28 56.1094 108.28 57.8233C108.28 59.5491 106.893 60.9359 105.169 60.9359H97.9053V68.198H105.169C110.901 68.198 115.544 63.5505 115.544 57.8233C115.544 52.0946 110.901 47.4495 105.169 47.4495ZM63.7744 85.8442C72.4691 85.8442 79.9626 80.7522 83.4631 73.3829H92.722V85.8442H97.9053V73.3829H105.169C113.769 73.3829 120.736 66.4157 120.736 57.8233C120.736 49.2288 113.769 42.259 105.169 42.259H92.722V60.9359H85.3351C83.8286 50.3808 74.7494 42.259 63.7744 42.259H38.2308L12.8222 85.8442H18.8835L26.1456 73.3829H52.257V85.8442H63.7744ZM128 57.8233C128 70.4281 117.777 80.645 105.169 80.645V93.0938H85.4613V83.3825C80.1298 89.3429 72.3965 93.0938 63.7744 93.0938H44.9935V80.645H30.3148L23.0527 93.0938H0L33.8852 34.9969H63.7744C72.3965 34.9969 80.1298 38.758 85.4613 44.7191V34.9969H105.169C117.777 34.9969 128 45.2219 128 57.8233ZM44.9935 47.4495V60.9359H33.4077L29.1761 68.198H52.257V47.4495H44.9935ZM80.3788 64.0453C80.3788 73.2143 72.9418 80.645 63.7744 80.645H57.4434V73.3829H63.7744C68.9357 73.3829 73.1181 69.2082 73.1181 64.0453C73.1181 58.8934 68.9357 54.7053 63.7744 54.7053H57.4434V47.4495H63.7744C72.9418 47.4495 80.3788 54.8802 80.3788 64.0453Z" fill="#EE2722"/>
<path d="M105.169 47.4495H97.9053V54.7053H105.169C106.893 54.7053 108.28 56.1094 108.28 57.8233C108.28 59.5491 106.893 60.9359 105.169 60.9359H97.9053V68.198H105.169C110.901 68.198 115.544 63.5505 115.544 57.8233C115.544 52.0946 110.901 47.4495 105.169 47.4495ZM63.7744 85.8442C72.4691 85.8442 79.9626 80.7522 83.4631 73.3829H92.722V85.8442H97.9053V73.3829H105.169C113.769 73.3829 120.736 66.4157 120.736 57.8233C120.736 49.2288 113.769 42.259 105.169 42.259H92.722V60.9359H85.3351C83.8286 50.3808 74.7494 42.259 63.7744 42.259H38.2308L12.8222 85.8442H18.8835L26.1456 73.3829H52.257V85.8442H63.7744ZM128 57.8233C128 70.4281 117.777 80.645 105.169 80.645V93.0938H85.4613V83.3825C80.1298 89.3429 72.3965 93.0938 63.7744 93.0938H44.9935V80.645H30.3148L23.0527 93.0938H0L33.8852 34.9969H63.7744C72.3965 34.9969 80.1298 38.758 85.4613 44.7191V34.9969H105.169C117.777 34.9969 128 45.2219 128 57.8233ZM44.9935 47.4495V60.9359H33.4077L29.1761 68.198H52.257V47.4495H44.9935ZM80.3788 64.0453C80.3788 73.2143 72.9418 80.645 63.7744 80.645H57.4434V73.3829H63.7744C68.9357 73.3829 73.1181 69.2082 73.1181 64.0453C73.1181 58.8934 68.9357 54.7053 63.7744 54.7053H57.4434V47.4495H63.7744C72.9418 47.4495 80.3788 54.8802 80.3788 64.0453Z" fill="#EE2722"/>
<path d="M105.169 47.4495H97.9053V54.7053H105.169C106.893 54.7053 108.28 56.1094 108.28 57.8233C108.28 59.5491 106.893 60.9359 105.169 60.9359H97.9053V68.198H105.169C110.901 68.198 115.544 63.5505 115.544 57.8233C115.544 52.0946 110.901 47.4495 105.169 47.4495ZM63.7744 85.8442C72.4691 85.8442 79.9626 80.7522 83.4631 73.3829H92.722V85.8442H97.9053V73.3829H105.169C113.769 73.3829 120.736 66.4157 120.736 57.8233C120.736 49.2288 113.769 42.259 105.169 42.259H92.722V60.9359H85.3351C83.8286 50.3808 74.7494 42.259 63.7744 42.259H38.2308L12.8222 85.8442H18.8835L26.1456 73.3829H52.257V85.8442H63.7744ZM128 57.8233C128 70.4281 117.777 80.645 105.169 80.645V93.0938H85.4613V83.3825C80.1298 89.3429 72.3965 93.0938 63.7744 93.0938H44.9935V80.645H30.3148L23.0527 93.0938H0L33.8852 34.9969H63.7744C72.3965 34.9969 80.1298 38.758 85.4613 44.7191V34.9969H105.169C117.777 34.9969 128 45.2219 128 57.8233ZM44.9935 47.4495V60.9359H33.4077L29.1761 68.198H52.257V47.4495H44.9935ZM80.3788 64.0453C80.3788 73.2143 72.9418 80.645 63.7744 80.645H57.4434V73.3829H63.7744C68.9357 73.3829 73.1181 69.2082 73.1181 64.0453C73.1181 58.8934 68.9357 54.7053 63.7744 54.7053H57.4434V47.4495H63.7744C72.9418 47.4495 80.3788 54.8802 80.3788 64.0453Z" fill="#EE2722"/>
</svg>
