<svg width="128" height="128" viewBox="0 0 128 128" fill="none" xmlns="http://www.w3.org/2000/svg">
<path d="M37.0099 24.955C44.9537 15.6331 54.089 7.62591 64.9107 2.87161C78.1117 -2.9467 82.7418 6.06114 83.8688 12.6922C85.5581 22.8282 86.9958 32.9626 88.8726 42.9099C88.9988 43.3473 89.1217 43.5968 89.5592 43.7214C100.132 46.2273 109.767 47.4138 119.838 49.2922C129.285 51.1053 132.161 59.0516 119.589 73.7528C113.208 81.2588 104.073 85.2628 95.3158 87.8286C94.6272 88.079 94.4401 88.2036 94.501 88.9522C94.9409 97.7126 96.2532 107.286 97.1301 116.043C98.3179 128.493 87.8719 130.995 72.2938 122.738C63.7847 118.23 56.1529 112.665 48.8335 106.473C48.0203 105.783 47.6462 105.783 46.8322 106.473C41.4521 110.849 36.1337 114.729 28.7519 119.671C20.681 125.051 14.3632 119.987 11.3611 109.913C6.66892 94.271 10.173 80.8838 13.5508 68.7465C13.8629 67.56 13.9266 66.873 13.1759 65.869C3.41566 51.9189 0.725634 42.9099 0.0378166 30.5863C-0.587096 18.6993 6.66892 13.8837 11.7369 16.6358C21.81 22.2658 28.0024 24.4559 35.1335 25.6449C36.0717 25.8311 36.3837 25.6437 37.0099 24.955Z" fill="#FBC32F"/>
<path d="M24.5592 60.5496C27.0001 60.5496 29.2531 59.861 31.756 57.8596C32.6301 57.1101 29.94 60.4234 28.5648 61.1745C29.94 71.373 33.8191 82.8213 42.7648 85.6988C53.3374 89.1391 67.4153 81.9456 74.9846 76.2515C74.7342 74.1255 76.0462 70.9343 75.9832 71.935C75.8587 74.9387 76.5473 77.5042 78.3004 79.3164C79.1749 80.3188 76.2361 78.3157 75.4837 77.2542C65.9747 84.8248 52.7129 92.8932 40.9522 88.8883C31.6302 85.6988 29.1914 73.6864 27.4392 61.4895C26.3743 61.4895 23.8089 60.6117 24.5592 60.5496Z" fill="#010101"/>
<path d="M60.2817 42.2173C59.593 36.5873 57.5925 31.7076 52.4616 30.8323C45.768 29.6433 37.5096 40.4042 36.6347 52.2887C36.0086 59.9855 37.6979 65.865 42.7647 66.8041C48.2076 67.8031 51.3988 64.2403 54.2134 60.6725C53.9014 65.9279 55.2778 72.6224 61.1574 73.8105C67.5397 75.1249 72.9806 68.9929 75.4832 60.6104C78.3623 50.851 77.36 40.4046 70.3552 38.0887C67.1644 37.0247 62.9717 39.0286 60.2817 42.2173Z" fill="#EBF5FA"/>
<path d="M48.5213 43.5366C47.8947 46.2871 47.5197 50.5423 49.8969 50.8543C52.0866 51.1672 54.0888 48.1022 54.8391 45.8509C56.4651 40.9066 55.9656 37.405 54.1504 36.9668C52.3994 36.4664 49.7086 38.719 48.5213 43.5366ZM66.9756 50.7918C66.5373 53.6089 66.4745 57.8612 68.9157 58.0495C71.1042 58.1741 72.8564 54.9829 73.4213 52.6074C74.672 47.6006 73.8579 44.1615 72.044 43.787C70.2297 43.47 67.7272 45.9105 66.9756 50.7918Z" fill="#010101"/>
<path d="M53.4001 38.7188C53.6221 38.7178 53.8422 38.7608 54.0475 38.8453C54.2528 38.9298 54.4393 39.0541 54.5963 39.2111C54.7533 39.3681 54.8776 39.5546 54.9621 39.7599C55.0466 39.9652 55.0896 40.1853 55.0886 40.4073C55.0897 40.6293 55.0468 40.8494 54.9623 41.0547C54.8779 41.2601 54.7535 41.4467 54.5965 41.6037C54.4395 41.7607 54.2529 41.885 54.0476 41.9695C53.8422 42.0539 53.6222 42.0969 53.4001 42.0958C52.5248 42.0958 51.7725 41.3471 51.7725 40.4073C51.7729 39.4682 52.5248 38.7188 53.4001 38.7188ZM71.6054 45.8502C71.8274 45.8493 72.0474 45.8924 72.2527 45.9769C72.458 46.0615 72.6445 46.1858 72.8015 46.3428C72.9586 46.4997 73.083 46.6862 73.1676 46.8915C73.2523 47.0967 73.2955 47.3167 73.2947 47.5387C73.2947 48.414 72.5431 49.1676 71.6054 49.1676C70.6672 49.1676 69.916 48.4144 69.916 47.5387C69.9153 47.3167 69.9585 47.0968 70.0432 46.8915C70.1278 46.6863 70.2523 46.4998 70.4093 46.3429C70.5663 46.1859 70.7528 46.0616 70.9581 45.9771C71.1634 45.8925 71.3833 45.8494 71.6054 45.8502Z" fill="#EBF5FA"/>
</svg>
