<svg width="128" height="128" viewBox="0 0 128 128" fill="none" xmlns="http://www.w3.org/2000/svg">
<path fill-rule="evenodd" clip-rule="evenodd" d="M71.8322 45.8839C64.5695 45.8839 60.7639 48.393 57.8226 51.859L57.6463 26.6797H46.4104C43.156 26.6797 40.5234 29.3211 40.5234 32.571V91.9034H57.6463V68.2013C57.6463 61.0267 61.5444 59.5539 64.4813 59.5539C69.4951 59.5539 70.1036 63.1831 70.1036 68.3733L69.9934 86.012C69.9934 89.2664 72.6304 91.9034 75.8803 91.9034H87.2309V61.1149C87.2309 50.8183 79.8799 45.8839 71.8322 45.8839Z" fill="#E82C2E"/>
<path fill-rule="evenodd" clip-rule="evenodd" d="M123.998 110.984C120.113 107.099 113.798 107.099 109.909 110.984C106.015 114.882 106.015 121.188 109.909 125.082C113.802 128.976 120.113 128.976 123.998 125.082C127.891 121.188 127.891 114.882 123.998 110.984Z" fill="#E82C2E"/>
<path fill-rule="evenodd" clip-rule="evenodd" d="M112.807 102.87L109.521 99.5763C129.043 75.5964 127.627 40.2395 105.279 17.8956C81.4272 -5.9652 42.7454 -5.9652 18.889 17.8956C-4.963 41.7476 -4.963 80.425 18.889 104.277C30.8172 116.201 46.4495 122.171 62.0775 122.171V109.538C49.6819 109.538 37.2818 104.802 27.823 95.3474C8.90106 76.421 8.90106 45.7428 27.823 26.8208C46.745 7.90326 77.4232 7.90326 96.3496 26.8208C115.272 45.7428 115.272 76.421 96.3496 95.3474L91.8826 99.8144L99.7142 107.637C102.007 109.939 105.738 109.939 108.035 107.637L112.807 102.87Z" fill="#E82C2E"/>
</svg>
