<svg width="128" height="128" viewBox="0 0 128 128" fill="none" xmlns="http://www.w3.org/2000/svg">
<path d="M29.2193 64.3021C30.6712 69.2047 32.4861 74.1073 35.0269 78.6467C36.1158 80.6441 37.2047 82.6414 39.2011 83.9125C39.564 84.094 39.927 84.2756 40.29 84.4572C43.1938 85.0019 44.8272 82.6414 45.9161 80.6441C47.368 77.1941 48.6384 73.7442 49.7273 70.1126C49.9088 69.3863 50.0903 68.8416 50.2718 68.1153C50.6347 66.8442 50.9977 65.5732 51.1792 64.3021L64.0647 29.8025C66.787 26.171 70.2353 23.2657 74.228 21.2684C78.0392 19.0895 82.3949 18 86.932 18C93.284 18 99.6361 20.1789 104.718 24.1736C113.248 30.5288 118.148 43.2392 118.148 43.2392C118.874 44.8734 119.237 46.6892 119.237 48.5049C119.237 50.1391 118.874 51.7733 118.329 53.4075C117.603 54.8601 116.696 56.3128 115.607 57.5838C114.518 58.6733 113.066 59.7627 111.433 60.3075C109.981 60.8522 108.166 61.2153 106.533 61.2153C104.718 61.2153 102.903 60.8522 101.269 59.9443C99.6361 59.218 98.1842 57.9469 96.9138 56.6759C96.9138 56.6759 96.9138 56.4943 96.7323 56.4943C96.0063 55.4049 95.2804 54.1338 94.7359 52.8628C94.01 51.2286 93.284 49.776 92.3766 48.3234C91.8321 47.5971 91.4692 46.8708 90.9247 46.1444C90.5617 45.4181 90.0173 44.8734 89.2913 44.3287C88.0209 43.4208 86.569 43.0576 85.2986 43.7839L85.1171 43.9655C83.6653 44.8734 82.7578 46.8708 82.0319 48.5049C80.0355 52.8628 78.9466 57.2206 77.6762 61.9416C77.4947 62.8495 77.3132 63.7574 77.1317 64.6653L71.6872 82.0967L64.2462 98.6202C61.5239 102.07 58.0757 104.975 54.083 106.791C50.0903 108.789 45.7346 109.696 41.3789 109.878C23.0488 110.241 14.5189 93.7176 14.5189 93.7176C4.17419 76.6494 1.08892 54.1338 0.362973 46.8708C0 45.2366 0 44.3287 0 44.3287C0 42.1497 0.544459 39.7892 1.81486 37.9735C2.90378 35.9761 4.53716 34.3419 6.53351 33.2525C8.71135 32.163 10.8892 31.7999 13.2485 31.7999C15.4263 31.7999 17.4227 32.5262 19.4191 33.6156C20.8709 34.5235 22.1413 35.613 23.0488 36.884C24.6822 39.2445 25.2266 42.3313 25.4081 45.2366C26.134 51.7733 27.4045 58.1285 29.2193 64.3021Z" fill="url(#paint0_linear_5027_116524)"/>
<path d="M29.2193 64.3021C30.6712 69.2047 32.4861 74.1073 35.0269 78.6467C36.1158 80.6441 37.2047 82.6414 39.2011 83.9125C39.564 84.094 39.927 84.2756 40.29 84.4572C43.1938 85.0019 44.8272 82.6414 45.9161 80.6441C47.368 77.1941 48.6384 73.7442 49.7273 70.1126C49.9088 69.3863 50.0903 68.8416 50.2718 68.1153C50.6347 66.8442 50.9977 65.5732 51.1792 64.3021L64.0647 29.8025C66.787 26.171 70.2353 23.2657 74.228 21.2684C78.0392 19.0895 82.3949 18 86.932 18C93.284 18 99.6361 20.1789 104.718 24.1736C113.248 30.5288 118.148 43.2392 118.148 43.2392C118.874 44.8734 119.237 46.6892 119.237 48.5049C119.237 50.1391 118.874 51.7733 118.329 53.4075C117.603 54.8601 116.696 56.3128 115.607 57.5838C114.518 58.6733 113.066 59.7627 111.433 60.3075C109.981 60.8522 108.166 61.2153 106.533 61.2153C104.718 61.2153 102.903 60.8522 101.269 59.9443C99.6361 59.218 98.1842 57.9469 96.9138 56.6759C96.9138 56.6759 96.9138 56.4943 96.7323 56.4943C96.0063 55.4049 95.2804 54.1338 94.7359 52.8628C94.01 51.2286 93.284 49.776 92.3766 48.3234C91.8321 47.5971 91.4692 46.8708 90.9247 46.1444C90.5617 45.4181 90.0173 44.8734 89.2913 44.3287C88.0209 43.4208 86.569 43.0576 85.2986 43.7839L85.1171 43.9655C83.6653 44.8734 82.7578 46.8708 82.0319 48.5049C80.0355 52.8628 78.9466 57.2206 77.6762 61.9416C77.4947 62.8495 77.3132 63.7574 77.1317 64.6653L71.6872 82.0967L64.2462 98.6202C61.5239 102.07 58.0757 104.975 54.083 106.791C50.0903 108.789 45.7346 109.696 41.3789 109.878C23.0488 110.241 14.5189 93.7176 14.5189 93.7176C4.17419 76.6494 1.08892 54.1338 0.362973 46.8708C0 45.2366 0 44.3287 0 44.3287C0 42.1497 0.544459 39.7892 1.81486 37.9735C2.90378 35.9761 4.53716 34.3419 6.53351 33.2525C8.71135 32.163 10.8892 31.7999 13.2485 31.7999C15.4263 31.7999 17.4227 32.5262 19.4191 33.6156C20.8709 34.5235 22.1413 35.613 23.0488 36.884C24.6822 39.2445 25.2266 42.3313 25.4081 45.2366C26.134 51.7733 27.4045 58.1285 29.2193 64.3021Z" fill="url(#paint1_radial_5027_116524)"/>
<path d="M29.2193 64.3021C30.6712 69.2047 32.4861 74.1073 35.0269 78.6467C36.1158 80.6441 37.2047 82.6414 39.2011 83.9125C39.564 84.094 39.927 84.2756 40.29 84.4572C43.1938 85.0019 44.8272 82.6414 45.9161 80.6441C47.368 77.1941 48.6384 73.7442 49.7273 70.1126C49.9088 69.3863 50.0903 68.8416 50.2718 68.1153C50.6347 66.8442 50.9977 65.5732 51.1792 64.3021L64.0647 29.8025C66.787 26.171 70.2353 23.2657 74.228 21.2684C78.0392 19.0895 82.3949 18 86.932 18C93.284 18 99.6361 20.1789 104.718 24.1736C113.248 30.5288 118.148 43.2392 118.148 43.2392C118.874 44.8734 119.237 46.6892 119.237 48.5049C119.237 50.1391 118.874 51.7733 118.329 53.4075C117.603 54.8601 116.696 56.3128 115.607 57.5838C114.518 58.6733 113.066 59.7627 111.433 60.3075C109.981 60.8522 108.166 61.2153 106.533 61.2153C104.718 61.2153 102.903 60.8522 101.269 59.9443C99.6361 59.218 98.1842 57.9469 96.9138 56.6759C96.9138 56.6759 96.9138 56.4943 96.7323 56.4943C96.0063 55.4049 95.2804 54.1338 94.7359 52.8628C94.01 51.2286 93.284 49.776 92.3766 48.3234C91.8321 47.5971 91.4692 46.8708 90.9247 46.1444C90.5617 45.4181 90.0173 44.8734 89.2913 44.3287C88.0209 43.4208 86.569 43.0576 85.2986 43.7839L85.1171 43.9655C83.6653 44.8734 82.7578 46.8708 82.0319 48.5049C80.0355 52.8628 78.9466 57.2206 77.6762 61.9416C77.4947 62.8495 77.3132 63.7574 77.1317 64.6653L71.6872 82.0967L64.2462 98.6202C61.5239 102.07 58.0757 104.975 54.083 106.791C50.0903 108.789 45.7346 109.696 41.3789 109.878C23.0488 110.241 14.5189 93.7176 14.5189 93.7176C4.17419 76.6494 1.08892 54.1338 0.362973 46.8708C0 45.2366 0 44.3287 0 44.3287C0 42.1497 0.544459 39.7892 1.81486 37.9735C2.90378 35.9761 4.53716 34.3419 6.53351 33.2525C8.71135 32.163 10.8892 31.7999 13.2485 31.7999C15.4263 31.7999 17.4227 32.5262 19.4191 33.6156C20.8709 34.5235 22.1413 35.613 23.0488 36.884C24.6822 39.2445 25.2266 42.3313 25.4081 45.2366C26.134 51.7733 27.4045 58.1285 29.2193 64.3021Z" fill="url(#paint2_radial_5027_116524)"/>
<path d="M29.2193 64.3021C30.6712 69.2047 32.4861 74.1073 35.0269 78.6467C36.1158 80.6441 37.2047 82.6414 39.2011 83.9125C39.564 84.094 39.927 84.2756 40.29 84.4572C43.1938 85.0019 44.8272 82.6414 45.9161 80.6441C47.368 77.1941 48.6384 73.7442 49.7273 70.1126C49.9088 69.3863 50.0903 68.8416 50.2718 68.1153C50.6347 66.8442 50.9977 65.5732 51.1792 64.3021L64.0647 29.8025C66.787 26.171 70.2353 23.2657 74.228 21.2684C78.0392 19.0895 82.3949 18 86.932 18C93.284 18 99.6361 20.1789 104.718 24.1736C113.248 30.5288 118.148 43.2392 118.148 43.2392C118.874 44.8734 119.237 46.6892 119.237 48.5049C119.237 50.1391 118.874 51.7733 118.329 53.4075C117.603 54.8601 116.696 56.3128 115.607 57.5838C114.518 58.6733 113.066 59.7627 111.433 60.3075C109.981 60.8522 108.166 61.2153 106.533 61.2153C104.718 61.2153 102.903 60.8522 101.269 59.9443C99.6361 59.218 98.1842 57.9469 96.9138 56.6759C96.9138 56.6759 96.9138 56.4943 96.7323 56.4943C96.0063 55.4049 95.2804 54.1338 94.7359 52.8628C94.01 51.2286 93.284 49.776 92.3766 48.3234C91.8321 47.5971 91.4692 46.8708 90.9247 46.1444C90.5617 45.4181 90.0173 44.8734 89.2913 44.3287C88.0209 43.4208 86.569 43.0576 85.2986 43.7839L85.1171 43.9655C83.6653 44.8734 82.7578 46.8708 82.0319 48.5049C80.0355 52.8628 78.9466 57.2206 77.6762 61.9416C77.4947 62.8495 77.3132 63.7574 77.1317 64.6653L71.6872 82.0967L64.2462 98.6202C61.5239 102.07 58.0757 104.975 54.083 106.791C50.0903 108.789 45.7346 109.696 41.3789 109.878C23.0488 110.241 14.5189 93.7176 14.5189 93.7176C4.17419 76.6494 1.08892 54.1338 0.362973 46.8708C0 45.2366 0 44.3287 0 44.3287C0 42.1497 0.544459 39.7892 1.81486 37.9735C2.90378 35.9761 4.53716 34.3419 6.53351 33.2525C8.71135 32.163 10.8892 31.7999 13.2485 31.7999C15.4263 31.7999 17.4227 32.5262 19.4191 33.6156C20.8709 34.5235 22.1413 35.613 23.0488 36.884C24.6822 39.2445 25.2266 42.3313 25.4081 45.2366C26.134 51.7733 27.4045 58.1285 29.2193 64.3021Z" fill="url(#paint3_radial_5027_116524)"/>
<path d="M29.2193 64.3021C30.6712 69.2047 32.4861 74.1073 35.0269 78.6467C36.1158 80.6441 37.2047 82.6414 39.2011 83.9125C39.564 84.094 39.927 84.2756 40.29 84.4572C43.1938 85.0019 44.8272 82.6414 45.9161 80.6441C47.368 77.1941 48.6384 73.7442 49.7273 70.1126C49.9088 69.3863 50.0903 68.8416 50.2718 68.1153C50.6347 66.8442 50.9977 65.5732 51.1792 64.3021L64.0647 29.8025C66.787 26.171 70.2353 23.2657 74.228 21.2684C78.0392 19.0895 82.3949 18 86.932 18C93.284 18 99.6361 20.1789 104.718 24.1736C113.248 30.5288 118.148 43.2392 118.148 43.2392C118.874 44.8734 119.237 46.6892 119.237 48.5049C119.237 50.1391 118.874 51.7733 118.329 53.4075C117.603 54.8601 116.696 56.3128 115.607 57.5838C114.518 58.6733 113.066 59.7627 111.433 60.3075C109.981 60.8522 108.166 61.2153 106.533 61.2153C104.718 61.2153 102.903 60.8522 101.269 59.9443C99.6361 59.218 98.1842 57.9469 96.9138 56.6759C96.9138 56.6759 96.9138 56.4943 96.7323 56.4943C96.0063 55.4049 95.2804 54.1338 94.7359 52.8628C94.01 51.2286 93.284 49.776 92.3766 48.3234C91.8321 47.5971 91.4692 46.8708 90.9247 46.1444C90.5617 45.4181 90.0173 44.8734 89.2913 44.3287C88.0209 43.4208 86.569 43.0576 85.2986 43.7839L85.1171 43.9655C83.6653 44.8734 82.7578 46.8708 82.0319 48.5049C80.0355 52.8628 78.9466 57.2206 77.6762 61.9416C77.4947 62.8495 77.3132 63.7574 77.1317 64.6653L71.6872 82.0967L64.2462 98.6202C61.5239 102.07 58.0757 104.975 54.083 106.791C50.0903 108.789 45.7346 109.696 41.3789 109.878C23.0488 110.241 14.5189 93.7176 14.5189 93.7176C4.17419 76.6494 1.08892 54.1338 0.362973 46.8708C0 45.2366 0 44.3287 0 44.3287C0 42.1497 0.544459 39.7892 1.81486 37.9735C2.90378 35.9761 4.53716 34.3419 6.53351 33.2525C8.71135 32.163 10.8892 31.7999 13.2485 31.7999C15.4263 31.7999 17.4227 32.5262 19.4191 33.6156C20.8709 34.5235 22.1413 35.613 23.0488 36.884C24.6822 39.2445 25.2266 42.3313 25.4081 45.2366C26.134 51.7733 27.4045 58.1285 29.2193 64.3021Z" fill="url(#paint4_radial_5027_116524)"/>
<path d="M29.2193 64.3021C30.6712 69.2047 32.4861 74.1073 35.0269 78.6467C36.1158 80.6441 37.2047 82.6414 39.2011 83.9125C39.564 84.094 39.927 84.2756 40.29 84.4572C43.1938 85.0019 44.8272 82.6414 45.9161 80.6441C47.368 77.1941 48.6384 73.7442 49.7273 70.1126C49.9088 69.3863 50.0903 68.8416 50.2718 68.1153C50.6347 66.8442 50.9977 65.5732 51.1792 64.3021L64.0647 29.8025C66.787 26.171 70.2353 23.2657 74.228 21.2684C78.0392 19.0895 82.3949 18 86.932 18C93.284 18 99.6361 20.1789 104.718 24.1736C113.248 30.5288 118.148 43.2392 118.148 43.2392C118.874 44.8734 119.237 46.6892 119.237 48.5049C119.237 50.1391 118.874 51.7733 118.329 53.4075C117.603 54.8601 116.696 56.3128 115.607 57.5838C114.518 58.6733 113.066 59.7627 111.433 60.3075C109.981 60.8522 108.166 61.2153 106.533 61.2153C104.718 61.2153 102.903 60.8522 101.269 59.9443C99.6361 59.218 98.1842 57.9469 96.9138 56.6759C96.9138 56.6759 96.9138 56.4943 96.7323 56.4943C96.0063 55.4049 95.2804 54.1338 94.7359 52.8628C94.01 51.2286 93.284 49.776 92.3766 48.3234C91.8321 47.5971 91.4692 46.8708 90.9247 46.1444C90.5617 45.4181 90.0173 44.8734 89.2913 44.3287C88.0209 43.4208 86.569 43.0576 85.2986 43.7839L85.1171 43.9655C83.6653 44.8734 82.7578 46.8708 82.0319 48.5049C80.0355 52.8628 78.9466 57.2206 77.6762 61.9416C77.4947 62.8495 77.3132 63.7574 77.1317 64.6653L71.6872 82.0967L64.2462 98.6202C61.5239 102.07 58.0757 104.975 54.083 106.791C50.0903 108.789 45.7346 109.696 41.3789 109.878C23.0488 110.241 14.5189 93.7176 14.5189 93.7176C4.17419 76.6494 1.08892 54.1338 0.362973 46.8708C0 45.2366 0 44.3287 0 44.3287C0 42.1497 0.544459 39.7892 1.81486 37.9735C2.90378 35.9761 4.53716 34.3419 6.53351 33.2525C8.71135 32.163 10.8892 31.7999 13.2485 31.7999C15.4263 31.7999 17.4227 32.5262 19.4191 33.6156C20.8709 34.5235 22.1413 35.613 23.0488 36.884C24.6822 39.2445 25.2266 42.3313 25.4081 45.2366C26.134 51.7733 27.4045 58.1285 29.2193 64.3021Z" fill="url(#paint5_radial_5027_116524)"/>
<path d="M29.2193 64.3021C30.6712 69.2047 32.4861 74.1073 35.0269 78.6467C36.1158 80.6441 37.2047 82.6414 39.2011 83.9125C39.564 84.094 39.927 84.2756 40.29 84.4572C43.1938 85.0019 44.8272 82.6414 45.9161 80.6441C47.368 77.1941 48.6384 73.7442 49.7273 70.1126C49.9088 69.3863 50.0903 68.8416 50.2718 68.1153C50.6347 66.8442 50.9977 65.5732 51.1792 64.3021L64.0647 29.8025C66.787 26.171 70.2353 23.2657 74.228 21.2684C78.0392 19.0895 82.3949 18 86.932 18C93.284 18 99.6361 20.1789 104.718 24.1736C113.248 30.5288 118.148 43.2392 118.148 43.2392C118.874 44.8734 119.237 46.6892 119.237 48.5049C119.237 50.1391 118.874 51.7733 118.329 53.4075C117.603 54.8601 116.696 56.3128 115.607 57.5838C114.518 58.6733 113.066 59.7627 111.433 60.3075C109.981 60.8522 108.166 61.2153 106.533 61.2153C104.718 61.2153 102.903 60.8522 101.269 59.9443C99.6361 59.218 98.1842 57.9469 96.9138 56.6759C96.9138 56.6759 96.9138 56.4943 96.7323 56.4943C96.0063 55.4049 95.2804 54.1338 94.7359 52.8628C94.01 51.2286 93.284 49.776 92.3766 48.3234C91.8321 47.5971 91.4692 46.8708 90.9247 46.1444C90.5617 45.4181 90.0173 44.8734 89.2913 44.3287C88.0209 43.4208 86.569 43.0576 85.2986 43.7839L85.1171 43.9655C83.6653 44.8734 82.7578 46.8708 82.0319 48.5049C80.0355 52.8628 78.9466 57.2206 77.6762 61.9416C77.4947 62.8495 77.3132 63.7574 77.1317 64.6653L71.6872 82.0967L64.2462 98.6202C61.5239 102.07 58.0757 104.975 54.083 106.791C50.0903 108.789 45.7346 109.696 41.3789 109.878C23.0488 110.241 14.5189 93.7176 14.5189 93.7176C4.17419 76.6494 1.08892 54.1338 0.362973 46.8708C0 45.2366 0 44.3287 0 44.3287C0 42.1497 0.544459 39.7892 1.81486 37.9735C2.90378 35.9761 4.53716 34.3419 6.53351 33.2525C8.71135 32.163 10.8892 31.7999 13.2485 31.7999C15.4263 31.7999 17.4227 32.5262 19.4191 33.6156C20.8709 34.5235 22.1413 35.613 23.0488 36.884C24.6822 39.2445 25.2266 42.3313 25.4081 45.2366C26.134 51.7733 27.4045 58.1285 29.2193 64.3021Z" fill="url(#paint6_radial_5027_116524)"/>
<path d="M29.2193 64.3021C30.6712 69.2047 32.4861 74.1073 35.0269 78.6467C36.1158 80.6441 37.2047 82.6414 39.2011 83.9125C39.564 84.094 39.927 84.2756 40.29 84.4572C43.1938 85.0019 44.8272 82.6414 45.9161 80.6441C47.368 77.1941 48.6384 73.7442 49.7273 70.1126C49.9088 69.3863 50.0903 68.8416 50.2718 68.1153C50.6347 66.8442 50.9977 65.5732 51.1792 64.3021L64.0647 29.8025C66.787 26.171 70.2353 23.2657 74.228 21.2684C78.0392 19.0895 82.3949 18 86.932 18C93.284 18 99.6361 20.1789 104.718 24.1736C113.248 30.5288 118.148 43.2392 118.148 43.2392C118.874 44.8734 119.237 46.6892 119.237 48.5049C119.237 50.1391 118.874 51.7733 118.329 53.4075C117.603 54.8601 116.696 56.3128 115.607 57.5838C114.518 58.6733 113.066 59.7627 111.433 60.3075C109.981 60.8522 108.166 61.2153 106.533 61.2153C104.718 61.2153 102.903 60.8522 101.269 59.9443C99.6361 59.218 98.1842 57.9469 96.9138 56.6759C96.9138 56.6759 96.9138 56.4943 96.7323 56.4943C96.0063 55.4049 95.2804 54.1338 94.7359 52.8628C94.01 51.2286 93.284 49.776 92.3766 48.3234C91.8321 47.5971 91.4692 46.8708 90.9247 46.1444C90.5617 45.4181 90.0173 44.8734 89.2913 44.3287C88.0209 43.4208 86.569 43.0576 85.2986 43.7839L85.1171 43.9655C83.6653 44.8734 82.7578 46.8708 82.0319 48.5049C80.0355 52.8628 78.9466 57.2206 77.6762 61.9416C77.4947 62.8495 77.3132 63.7574 77.1317 64.6653L71.6872 82.0967L64.2462 98.6202C61.5239 102.07 58.0757 104.975 54.083 106.791C50.0903 108.789 45.7346 109.696 41.3789 109.878C23.0488 110.241 14.5189 93.7176 14.5189 93.7176C4.17419 76.6494 1.08892 54.1338 0.362973 46.8708C0 45.2366 0 44.3287 0 44.3287C0 42.1497 0.544459 39.7892 1.81486 37.9735C2.90378 35.9761 4.53716 34.3419 6.53351 33.2525C8.71135 32.163 10.8892 31.7999 13.2485 31.7999C15.4263 31.7999 17.4227 32.5262 19.4191 33.6156C20.8709 34.5235 22.1413 35.613 23.0488 36.884C24.6822 39.2445 25.2266 42.3313 25.4081 45.2366C26.134 51.7733 27.4045 58.1285 29.2193 64.3021Z" fill="url(#paint7_radial_5027_116524)"/>
<path d="M29.2193 64.3021C30.6712 69.2047 32.4861 74.1073 35.0269 78.6467C36.1158 80.6441 37.2047 82.6414 39.2011 83.9125C39.564 84.094 39.927 84.2756 40.29 84.4572C43.1938 85.0019 44.8272 82.6414 45.9161 80.6441C47.368 77.1941 48.6384 73.7442 49.7273 70.1126C49.9088 69.3863 50.0903 68.8416 50.2718 68.1153C50.6347 66.8442 50.9977 65.5732 51.1792 64.3021L64.0647 29.8025C66.787 26.171 70.2353 23.2657 74.228 21.2684C78.0392 19.0895 82.3949 18 86.932 18C93.284 18 99.6361 20.1789 104.718 24.1736C113.248 30.5288 118.148 43.2392 118.148 43.2392C118.874 44.8734 119.237 46.6892 119.237 48.5049C119.237 50.1391 118.874 51.7733 118.329 53.4075C117.603 54.8601 116.696 56.3128 115.607 57.5838C114.518 58.6733 113.066 59.7627 111.433 60.3075C109.981 60.8522 108.166 61.2153 106.533 61.2153C104.718 61.2153 102.903 60.8522 101.269 59.9443C99.6361 59.218 98.1842 57.9469 96.9138 56.6759C96.9138 56.6759 96.9138 56.4943 96.7323 56.4943C96.0063 55.4049 95.2804 54.1338 94.7359 52.8628C94.01 51.2286 93.284 49.776 92.3766 48.3234C91.8321 47.5971 91.4692 46.8708 90.9247 46.1444C90.5617 45.4181 90.0173 44.8734 89.2913 44.3287C88.0209 43.4208 86.569 43.0576 85.2986 43.7839L85.1171 43.9655C83.6653 44.8734 82.7578 46.8708 82.0319 48.5049C80.0355 52.8628 78.9466 57.2206 77.6762 61.9416C77.4947 62.8495 77.3132 63.7574 77.1317 64.6653L71.6872 82.0967L64.2462 98.6202C61.5239 102.07 58.0757 104.975 54.083 106.791C50.0903 108.789 45.7346 109.696 41.3789 109.878C23.0488 110.241 14.5189 93.7176 14.5189 93.7176C4.17419 76.6494 1.08892 54.1338 0.362973 46.8708C0 45.2366 0 44.3287 0 44.3287C0 42.1497 0.544459 39.7892 1.81486 37.9735C2.90378 35.9761 4.53716 34.3419 6.53351 33.2525C8.71135 32.163 10.8892 31.7999 13.2485 31.7999C15.4263 31.7999 17.4227 32.5262 19.4191 33.6156C20.8709 34.5235 22.1413 35.613 23.0488 36.884C24.6822 39.2445 25.2266 42.3313 25.4081 45.2366C26.134 51.7733 27.4045 58.1285 29.2193 64.3021Z" fill="url(#paint8_radial_5027_116524)"/>
<path d="M29.2193 64.3021C30.6712 69.2047 32.4861 74.1073 35.0269 78.6467C36.1158 80.6441 37.2047 82.6414 39.2011 83.9125C39.564 84.094 39.927 84.2756 40.29 84.4572C43.1938 85.0019 44.8272 82.6414 45.9161 80.6441C47.368 77.1941 48.6384 73.7442 49.7273 70.1126C49.9088 69.3863 50.0903 68.8416 50.2718 68.1153C50.6347 66.8442 50.9977 65.5732 51.1792 64.3021L64.0647 29.8025C66.787 26.171 70.2353 23.2657 74.228 21.2684C78.0392 19.0895 82.3949 18 86.932 18C93.284 18 99.6361 20.1789 104.718 24.1736C113.248 30.5288 118.148 43.2392 118.148 43.2392C118.874 44.8734 119.237 46.6892 119.237 48.5049C119.237 50.1391 118.874 51.7733 118.329 53.4075C117.603 54.8601 116.696 56.3128 115.607 57.5838C114.518 58.6733 113.066 59.7627 111.433 60.3075C109.981 60.8522 108.166 61.2153 106.533 61.2153C104.718 61.2153 102.903 60.8522 101.269 59.9443C99.6361 59.218 98.1842 57.9469 96.9138 56.6759C96.9138 56.6759 96.9138 56.4943 96.7323 56.4943C96.0063 55.4049 95.2804 54.1338 94.7359 52.8628C94.01 51.2286 93.284 49.776 92.3766 48.3234C91.8321 47.5971 91.4692 46.8708 90.9247 46.1444C90.5617 45.4181 90.0173 44.8734 89.2913 44.3287C88.0209 43.4208 86.569 43.0576 85.2986 43.7839L85.1171 43.9655C83.6653 44.8734 82.7578 46.8708 82.0319 48.5049C80.0355 52.8628 78.9466 57.2206 77.6762 61.9416C77.4947 62.8495 77.3132 63.7574 77.1317 64.6653L71.6872 82.0967L64.2462 98.6202C61.5239 102.07 58.0757 104.975 54.083 106.791C50.0903 108.789 45.7346 109.696 41.3789 109.878C23.0488 110.241 14.5189 93.7176 14.5189 93.7176C4.17419 76.6494 1.08892 54.1338 0.362973 46.8708C0 45.2366 0 44.3287 0 44.3287C0 42.1497 0.544459 39.7892 1.81486 37.9735C2.90378 35.9761 4.53716 34.3419 6.53351 33.2525C8.71135 32.163 10.8892 31.7999 13.2485 31.7999C15.4263 31.7999 17.4227 32.5262 19.4191 33.6156C20.8709 34.5235 22.1413 35.613 23.0488 36.884C24.6822 39.2445 25.2266 42.3313 25.4081 45.2366C26.134 51.7733 27.4045 58.1285 29.2193 64.3021Z" fill="url(#paint9_radial_5027_116524)"/>
<path d="M29.2193 64.3021C30.6712 69.2047 32.4861 74.1073 35.0269 78.6467C36.1158 80.6441 37.2047 82.6414 39.2011 83.9125C39.564 84.094 39.927 84.2756 40.29 84.4572C43.1938 85.0019 44.8272 82.6414 45.9161 80.6441C47.368 77.1941 48.6384 73.7442 49.7273 70.1126C49.9088 69.3863 50.0903 68.8416 50.2718 68.1153C50.6347 66.8442 50.9977 65.5732 51.1792 64.3021L64.0647 29.8025C66.787 26.171 70.2353 23.2657 74.228 21.2684C78.0392 19.0895 82.3949 18 86.932 18C93.284 18 99.6361 20.1789 104.718 24.1736C113.248 30.5288 118.148 43.2392 118.148 43.2392C118.874 44.8734 119.237 46.6892 119.237 48.5049C119.237 50.1391 118.874 51.7733 118.329 53.4075C117.603 54.8601 116.696 56.3128 115.607 57.5838C114.518 58.6733 113.066 59.7627 111.433 60.3075C109.981 60.8522 108.166 61.2153 106.533 61.2153C104.718 61.2153 102.903 60.8522 101.269 59.9443C99.6361 59.218 98.1842 57.9469 96.9138 56.6759C96.9138 56.6759 96.9138 56.4943 96.7323 56.4943C96.0063 55.4049 95.2804 54.1338 94.7359 52.8628C94.01 51.2286 93.284 49.776 92.3766 48.3234C91.8321 47.5971 91.4692 46.8708 90.9247 46.1444C90.5617 45.4181 90.0173 44.8734 89.2913 44.3287C88.0209 43.4208 86.569 43.0576 85.2986 43.7839L85.1171 43.9655C83.6653 44.8734 82.7578 46.8708 82.0319 48.5049C80.0355 52.8628 78.9466 57.2206 77.6762 61.9416C77.4947 62.8495 77.3132 63.7574 77.1317 64.6653L71.6872 82.0967L64.2462 98.6202C61.5239 102.07 58.0757 104.975 54.083 106.791C50.0903 108.789 45.7346 109.696 41.3789 109.878C23.0488 110.241 14.5189 93.7176 14.5189 93.7176C4.17419 76.6494 1.08892 54.1338 0.362973 46.8708C0 45.2366 0 44.3287 0 44.3287C0 42.1497 0.544459 39.7892 1.81486 37.9735C2.90378 35.9761 4.53716 34.3419 6.53351 33.2525C8.71135 32.163 10.8892 31.7999 13.2485 31.7999C15.4263 31.7999 17.4227 32.5262 19.4191 33.6156C20.8709 34.5235 22.1413 35.613 23.0488 36.884C24.6822 39.2445 25.2266 42.3313 25.4081 45.2366C26.134 51.7733 27.4045 58.1285 29.2193 64.3021Z" fill="url(#paint10_radial_5027_116524)"/>
<path d="M29.2193 64.3021C30.6712 69.2047 32.4861 74.1073 35.0269 78.6467C36.1158 80.6441 37.2047 82.6414 39.2011 83.9125C39.564 84.094 39.927 84.2756 40.29 84.4572C43.1938 85.0019 44.8272 82.6414 45.9161 80.6441C47.368 77.1941 48.6384 73.7442 49.7273 70.1126C49.9088 69.3863 50.0903 68.8416 50.2718 68.1153C50.6347 66.8442 50.9977 65.5732 51.1792 64.3021L64.0647 29.8025C66.787 26.171 70.2353 23.2657 74.228 21.2684C78.0392 19.0895 82.3949 18 86.932 18C93.284 18 99.6361 20.1789 104.718 24.1736C113.248 30.5288 118.148 43.2392 118.148 43.2392C118.874 44.8734 119.237 46.6892 119.237 48.5049C119.237 50.1391 118.874 51.7733 118.329 53.4075C117.603 54.8601 116.696 56.3128 115.607 57.5838C114.518 58.6733 113.066 59.7627 111.433 60.3075C109.981 60.8522 108.166 61.2153 106.533 61.2153C104.718 61.2153 102.903 60.8522 101.269 59.9443C99.6361 59.218 98.1842 57.9469 96.9138 56.6759C96.9138 56.6759 96.9138 56.4943 96.7323 56.4943C96.0063 55.4049 95.2804 54.1338 94.7359 52.8628C94.01 51.2286 93.284 49.776 92.3766 48.3234C91.8321 47.5971 91.4692 46.8708 90.9247 46.1444C90.5617 45.4181 90.0173 44.8734 89.2913 44.3287C88.0209 43.4208 86.569 43.0576 85.2986 43.7839L85.1171 43.9655C83.6653 44.8734 82.7578 46.8708 82.0319 48.5049C80.0355 52.8628 78.9466 57.2206 77.6762 61.9416C77.4947 62.8495 77.3132 63.7574 77.1317 64.6653L71.6872 82.0967L64.2462 98.6202C61.5239 102.07 58.0757 104.975 54.083 106.791C50.0903 108.789 45.7346 109.696 41.3789 109.878C23.0488 110.241 14.5189 93.7176 14.5189 93.7176C4.17419 76.6494 1.08892 54.1338 0.362973 46.8708C0 45.2366 0 44.3287 0 44.3287C0 42.1497 0.544459 39.7892 1.81486 37.9735C2.90378 35.9761 4.53716 34.3419 6.53351 33.2525C8.71135 32.163 10.8892 31.7999 13.2485 31.7999C15.4263 31.7999 17.4227 32.5262 19.4191 33.6156C20.8709 34.5235 22.1413 35.613 23.0488 36.884C24.6822 39.2445 25.2266 42.3313 25.4081 45.2366C26.134 51.7733 27.4045 58.1285 29.2193 64.3021Z" fill="url(#paint11_radial_5027_116524)"/>
<path d="M29.2193 64.3021C30.6712 69.2047 32.4861 74.1073 35.0269 78.6467C36.1158 80.6441 37.2047 82.6414 39.2011 83.9125C39.564 84.094 39.927 84.2756 40.29 84.4572C43.1938 85.0019 44.8272 82.6414 45.9161 80.6441C47.368 77.1941 48.6384 73.7442 49.7273 70.1126C49.9088 69.3863 50.0903 68.8416 50.2718 68.1153C50.6347 66.8442 50.9977 65.5732 51.1792 64.3021L64.0647 29.8025C66.787 26.171 70.2353 23.2657 74.228 21.2684C78.0392 19.0895 82.3949 18 86.932 18C93.284 18 99.6361 20.1789 104.718 24.1736C113.248 30.5288 118.148 43.2392 118.148 43.2392C118.874 44.8734 119.237 46.6892 119.237 48.5049C119.237 50.1391 118.874 51.7733 118.329 53.4075C117.603 54.8601 116.696 56.3128 115.607 57.5838C114.518 58.6733 113.066 59.7627 111.433 60.3075C109.981 60.8522 108.166 61.2153 106.533 61.2153C104.718 61.2153 102.903 60.8522 101.269 59.9443C99.6361 59.218 98.1842 57.9469 96.9138 56.6759C96.9138 56.6759 96.9138 56.4943 96.7323 56.4943C96.0063 55.4049 95.2804 54.1338 94.7359 52.8628C94.01 51.2286 93.284 49.776 92.3766 48.3234C91.8321 47.5971 91.4692 46.8708 90.9247 46.1444C90.5617 45.4181 90.0173 44.8734 89.2913 44.3287C88.0209 43.4208 86.569 43.0576 85.2986 43.7839L85.1171 43.9655C83.6653 44.8734 82.7578 46.8708 82.0319 48.5049C80.0355 52.8628 78.9466 57.2206 77.6762 61.9416C77.4947 62.8495 77.3132 63.7574 77.1317 64.6653L71.6872 82.0967L64.2462 98.6202C61.5239 102.07 58.0757 104.975 54.083 106.791C50.0903 108.789 45.7346 109.696 41.3789 109.878C23.0488 110.241 14.5189 93.7176 14.5189 93.7176C4.17419 76.6494 1.08892 54.1338 0.362973 46.8708C0 45.2366 0 44.3287 0 44.3287C0 42.1497 0.544459 39.7892 1.81486 37.9735C2.90378 35.9761 4.53716 34.3419 6.53351 33.2525C8.71135 32.163 10.8892 31.7999 13.2485 31.7999C15.4263 31.7999 17.4227 32.5262 19.4191 33.6156C20.8709 34.5235 22.1413 35.613 23.0488 36.884C24.6822 39.2445 25.2266 42.3313 25.4081 45.2366C26.134 51.7733 27.4045 58.1285 29.2193 64.3021Z" fill="url(#paint12_radial_5027_116524)"/>
<path d="M29.2193 64.3021C30.6712 69.2047 32.4861 74.1073 35.0269 78.6467C36.1158 80.6441 37.2047 82.6414 39.2011 83.9125C39.564 84.094 39.927 84.2756 40.29 84.4572C43.1938 85.0019 44.8272 82.6414 45.9161 80.6441C47.368 77.1941 48.6384 73.7442 49.7273 70.1126C49.9088 69.3863 50.0903 68.8416 50.2718 68.1153C50.6347 66.8442 50.9977 65.5732 51.1792 64.3021L64.0647 29.8025C66.787 26.171 70.2353 23.2657 74.228 21.2684C78.0392 19.0895 82.3949 18 86.932 18C93.284 18 99.6361 20.1789 104.718 24.1736C113.248 30.5288 118.148 43.2392 118.148 43.2392C118.874 44.8734 119.237 46.6892 119.237 48.5049C119.237 50.1391 118.874 51.7733 118.329 53.4075C117.603 54.8601 116.696 56.3128 115.607 57.5838C114.518 58.6733 113.066 59.7627 111.433 60.3075C109.981 60.8522 108.166 61.2153 106.533 61.2153C104.718 61.2153 102.903 60.8522 101.269 59.9443C99.6361 59.218 98.1842 57.9469 96.9138 56.6759C96.9138 56.6759 96.9138 56.4943 96.7323 56.4943C96.0063 55.4049 95.2804 54.1338 94.7359 52.8628C94.01 51.2286 93.284 49.776 92.3766 48.3234C91.8321 47.5971 91.4692 46.8708 90.9247 46.1444C90.5617 45.4181 90.0173 44.8734 89.2913 44.3287C88.0209 43.4208 86.569 43.0576 85.2986 43.7839L85.1171 43.9655C83.6653 44.8734 82.7578 46.8708 82.0319 48.5049C80.0355 52.8628 78.9466 57.2206 77.6762 61.9416C77.4947 62.8495 77.3132 63.7574 77.1317 64.6653L71.6872 82.0967L64.2462 98.6202C61.5239 102.07 58.0757 104.975 54.083 106.791C50.0903 108.789 45.7346 109.696 41.3789 109.878C23.0488 110.241 14.5189 93.7176 14.5189 93.7176C4.17419 76.6494 1.08892 54.1338 0.362973 46.8708C0 45.2366 0 44.3287 0 44.3287C0 42.1497 0.544459 39.7892 1.81486 37.9735C2.90378 35.9761 4.53716 34.3419 6.53351 33.2525C8.71135 32.163 10.8892 31.7999 13.2485 31.7999C15.4263 31.7999 17.4227 32.5262 19.4191 33.6156C20.8709 34.5235 22.1413 35.613 23.0488 36.884C24.6822 39.2445 25.2266 42.3313 25.4081 45.2366C26.134 51.7733 27.4045 58.1285 29.2193 64.3021Z" fill="url(#paint13_radial_5027_116524)"/>
<path d="M29.2193 64.3021C30.6712 69.2047 32.4861 74.1073 35.0269 78.6467C36.1158 80.6441 37.2047 82.6414 39.2011 83.9125C39.564 84.094 39.927 84.2756 40.29 84.4572C43.1938 85.0019 44.8272 82.6414 45.9161 80.6441C47.368 77.1941 48.6384 73.7442 49.7273 70.1126C49.9088 69.3863 50.0903 68.8416 50.2718 68.1153C50.6347 66.8442 50.9977 65.5732 51.1792 64.3021L64.0647 29.8025C66.787 26.171 70.2353 23.2657 74.228 21.2684C78.0392 19.0895 82.3949 18 86.932 18C93.284 18 99.6361 20.1789 104.718 24.1736C113.248 30.5288 118.148 43.2392 118.148 43.2392C118.874 44.8734 119.237 46.6892 119.237 48.5049C119.237 50.1391 118.874 51.7733 118.329 53.4075C117.603 54.8601 116.696 56.3128 115.607 57.5838C114.518 58.6733 113.066 59.7627 111.433 60.3075C109.981 60.8522 108.166 61.2153 106.533 61.2153C104.718 61.2153 102.903 60.8522 101.269 59.9443C99.6361 59.218 98.1842 57.9469 96.9138 56.6759C96.9138 56.6759 96.9138 56.4943 96.7323 56.4943C96.0063 55.4049 95.2804 54.1338 94.7359 52.8628C94.01 51.2286 93.284 49.776 92.3766 48.3234C91.8321 47.5971 91.4692 46.8708 90.9247 46.1444C90.5617 45.4181 90.0173 44.8734 89.2913 44.3287C88.0209 43.4208 86.569 43.0576 85.2986 43.7839L85.1171 43.9655C83.6653 44.8734 82.7578 46.8708 82.0319 48.5049C80.0355 52.8628 78.9466 57.2206 77.6762 61.9416C77.4947 62.8495 77.3132 63.7574 77.1317 64.6653L71.6872 82.0967L64.2462 98.6202C61.5239 102.07 58.0757 104.975 54.083 106.791C50.0903 108.789 45.7346 109.696 41.3789 109.878C23.0488 110.241 14.5189 93.7176 14.5189 93.7176C4.17419 76.6494 1.08892 54.1338 0.362973 46.8708C0 45.2366 0 44.3287 0 44.3287C0 42.1497 0.544459 39.7892 1.81486 37.9735C2.90378 35.9761 4.53716 34.3419 6.53351 33.2525C8.71135 32.163 10.8892 31.7999 13.2485 31.7999C15.4263 31.7999 17.4227 32.5262 19.4191 33.6156C20.8709 34.5235 22.1413 35.613 23.0488 36.884C24.6822 39.2445 25.2266 42.3313 25.4081 45.2366C26.134 51.7733 27.4045 58.1285 29.2193 64.3021Z" fill="url(#paint14_radial_5027_116524)"/>
<path d="M29.2193 64.3021C30.6712 69.2047 32.4861 74.1073 35.0269 78.6467C36.1158 80.6441 37.2047 82.6414 39.2011 83.9125C39.564 84.094 39.927 84.2756 40.29 84.4572C43.1938 85.0019 44.8272 82.6414 45.9161 80.6441C47.368 77.1941 48.6384 73.7442 49.7273 70.1126C49.9088 69.3863 50.0903 68.8416 50.2718 68.1153C50.6347 66.8442 50.9977 65.5732 51.1792 64.3021L64.0647 29.8025C66.787 26.171 70.2353 23.2657 74.228 21.2684C78.0392 19.0895 82.3949 18 86.932 18C93.284 18 99.6361 20.1789 104.718 24.1736C113.248 30.5288 118.148 43.2392 118.148 43.2392C118.874 44.8734 119.237 46.6892 119.237 48.5049C119.237 50.1391 118.874 51.7733 118.329 53.4075C117.603 54.8601 116.696 56.3128 115.607 57.5838C114.518 58.6733 113.066 59.7627 111.433 60.3075C109.981 60.8522 108.166 61.2153 106.533 61.2153C104.718 61.2153 102.903 60.8522 101.269 59.9443C99.6361 59.218 98.1842 57.9469 96.9138 56.6759C96.9138 56.6759 96.9138 56.4943 96.7323 56.4943C96.0063 55.4049 95.2804 54.1338 94.7359 52.8628C94.01 51.2286 93.284 49.776 92.3766 48.3234C91.8321 47.5971 91.4692 46.8708 90.9247 46.1444C90.5617 45.4181 90.0173 44.8734 89.2913 44.3287C88.0209 43.4208 86.569 43.0576 85.2986 43.7839L85.1171 43.9655C83.6653 44.8734 82.7578 46.8708 82.0319 48.5049C80.0355 52.8628 78.9466 57.2206 77.6762 61.9416C77.4947 62.8495 77.3132 63.7574 77.1317 64.6653L71.6872 82.0967L64.2462 98.6202C61.5239 102.07 58.0757 104.975 54.083 106.791C50.0903 108.789 45.7346 109.696 41.3789 109.878C23.0488 110.241 14.5189 93.7176 14.5189 93.7176C4.17419 76.6494 1.08892 54.1338 0.362973 46.8708C0 45.2366 0 44.3287 0 44.3287C0 42.1497 0.544459 39.7892 1.81486 37.9735C2.90378 35.9761 4.53716 34.3419 6.53351 33.2525C8.71135 32.163 10.8892 31.7999 13.2485 31.7999C15.4263 31.7999 17.4227 32.5262 19.4191 33.6156C20.8709 34.5235 22.1413 35.613 23.0488 36.884C24.6822 39.2445 25.2266 42.3313 25.4081 45.2366C26.134 51.7733 27.4045 58.1285 29.2193 64.3021Z" fill="url(#paint15_radial_5027_116524)"/>
<path d="M29.2193 64.3021C30.6712 69.2047 32.4861 74.1073 35.0269 78.6467C36.1158 80.6441 37.2047 82.6414 39.2011 83.9125C39.564 84.094 39.927 84.2756 40.29 84.4572C43.1938 85.0019 44.8272 82.6414 45.9161 80.6441C47.368 77.1941 48.6384 73.7442 49.7273 70.1126C49.9088 69.3863 50.0903 68.8416 50.2718 68.1153C50.6347 66.8442 50.9977 65.5732 51.1792 64.3021L64.0647 29.8025C66.787 26.171 70.2353 23.2657 74.228 21.2684C78.0392 19.0895 82.3949 18 86.932 18C93.284 18 99.6361 20.1789 104.718 24.1736C113.248 30.5288 118.148 43.2392 118.148 43.2392C118.874 44.8734 119.237 46.6892 119.237 48.5049C119.237 50.1391 118.874 51.7733 118.329 53.4075C117.603 54.8601 116.696 56.3128 115.607 57.5838C114.518 58.6733 113.066 59.7627 111.433 60.3075C109.981 60.8522 108.166 61.2153 106.533 61.2153C104.718 61.2153 102.903 60.8522 101.269 59.9443C99.6361 59.218 98.1842 57.9469 96.9138 56.6759C96.9138 56.6759 96.9138 56.4943 96.7323 56.4943C96.0063 55.4049 95.2804 54.1338 94.7359 52.8628C94.01 51.2286 93.284 49.776 92.3766 48.3234C91.8321 47.5971 91.4692 46.8708 90.9247 46.1444C90.5617 45.4181 90.0173 44.8734 89.2913 44.3287C88.0209 43.4208 86.569 43.0576 85.2986 43.7839L85.1171 43.9655C83.6653 44.8734 82.7578 46.8708 82.0319 48.5049C80.0355 52.8628 78.9466 57.2206 77.6762 61.9416C77.4947 62.8495 77.3132 63.7574 77.1317 64.6653L71.6872 82.0967L64.2462 98.6202C61.5239 102.07 58.0757 104.975 54.083 106.791C50.0903 108.789 45.7346 109.696 41.3789 109.878C23.0488 110.241 14.5189 93.7176 14.5189 93.7176C4.17419 76.6494 1.08892 54.1338 0.362973 46.8708C0 45.2366 0 44.3287 0 44.3287C0 42.1497 0.544459 39.7892 1.81486 37.9735C2.90378 35.9761 4.53716 34.3419 6.53351 33.2525C8.71135 32.163 10.8892 31.7999 13.2485 31.7999C15.4263 31.7999 17.4227 32.5262 19.4191 33.6156C20.8709 34.5235 22.1413 35.613 23.0488 36.884C24.6822 39.2445 25.2266 42.3313 25.4081 45.2366C26.134 51.7733 27.4045 58.1285 29.2193 64.3021Z" fill="url(#paint16_linear_5027_116524)"/>
<path d="M29.2193 64.3021C30.6712 69.2047 32.4861 74.1073 35.0269 78.6467C36.1158 80.6441 37.2047 82.6414 39.2011 83.9125C39.564 84.094 39.927 84.2756 40.29 84.4572C43.1938 85.0019 44.8272 82.6414 45.9161 80.6441C47.368 77.1941 48.6384 73.7442 49.7273 70.1126C49.9088 69.3863 50.0903 68.8416 50.2718 68.1153C50.6347 66.8442 50.9977 65.5732 51.1792 64.3021L64.0647 29.8025C66.787 26.171 70.2353 23.2657 74.228 21.2684C78.0392 19.0895 82.3949 18 86.932 18C93.284 18 99.6361 20.1789 104.718 24.1736C113.248 30.5288 118.148 43.2392 118.148 43.2392C118.874 44.8734 119.237 46.6892 119.237 48.5049C119.237 50.1391 118.874 51.7733 118.329 53.4075C117.603 54.8601 116.696 56.3128 115.607 57.5838C114.518 58.6733 113.066 59.7627 111.433 60.3075C109.981 60.8522 108.166 61.2153 106.533 61.2153C104.718 61.2153 102.903 60.8522 101.269 59.9443C99.6361 59.218 98.1842 57.9469 96.9138 56.6759C96.9138 56.6759 96.9138 56.4943 96.7323 56.4943C96.0063 55.4049 95.2804 54.1338 94.7359 52.8628C94.01 51.2286 93.284 49.776 92.3766 48.3234C91.8321 47.5971 91.4692 46.8708 90.9247 46.1444C90.5617 45.4181 90.0173 44.8734 89.2913 44.3287C88.0209 43.4208 86.569 43.0576 85.2986 43.7839L85.1171 43.9655C83.6653 44.8734 82.7578 46.8708 82.0319 48.5049C80.0355 52.8628 78.9466 57.2206 77.6762 61.9416C77.4947 62.8495 77.3132 63.7574 77.1317 64.6653L71.6872 82.0967L64.2462 98.6202C61.5239 102.07 58.0757 104.975 54.083 106.791C50.0903 108.789 45.7346 109.696 41.3789 109.878C23.0488 110.241 14.5189 93.7176 14.5189 93.7176C4.17419 76.6494 1.08892 54.1338 0.362973 46.8708C0 45.2366 0 44.3287 0 44.3287C0 42.1497 0.544459 39.7892 1.81486 37.9735C2.90378 35.9761 4.53716 34.3419 6.53351 33.2525C8.71135 32.163 10.8892 31.7999 13.2485 31.7999C15.4263 31.7999 17.4227 32.5262 19.4191 33.6156C20.8709 34.5235 22.1413 35.613 23.0488 36.884C24.6822 39.2445 25.2266 42.3313 25.4081 45.2366C26.134 51.7733 27.4045 58.1285 29.2193 64.3021Z" fill="url(#paint17_linear_5027_116524)"/>
<path d="M29.2193 64.3021C30.6712 69.2047 32.4861 74.1073 35.0269 78.6467C36.1158 80.6441 37.2047 82.6414 39.2011 83.9125C39.564 84.094 39.927 84.2756 40.29 84.4572C43.1938 85.0019 44.8272 82.6414 45.9161 80.6441C47.368 77.1941 48.6384 73.7442 49.7273 70.1126C49.9088 69.3863 50.0903 68.8416 50.2718 68.1153C50.6347 66.8442 50.9977 65.5732 51.1792 64.3021L64.0647 29.8025C66.787 26.171 70.2353 23.2657 74.228 21.2684C78.0392 19.0895 82.3949 18 86.932 18C93.284 18 99.6361 20.1789 104.718 24.1736C113.248 30.5288 118.148 43.2392 118.148 43.2392C118.874 44.8734 119.237 46.6892 119.237 48.5049C119.237 50.1391 118.874 51.7733 118.329 53.4075C117.603 54.8601 116.696 56.3128 115.607 57.5838C114.518 58.6733 113.066 59.7627 111.433 60.3075C109.981 60.8522 108.166 61.2153 106.533 61.2153C104.718 61.2153 102.903 60.8522 101.269 59.9443C99.6361 59.218 98.1842 57.9469 96.9138 56.6759C96.9138 56.6759 96.9138 56.4943 96.7323 56.4943C96.0063 55.4049 95.2804 54.1338 94.7359 52.8628C94.01 51.2286 93.284 49.776 92.3766 48.3234C91.8321 47.5971 91.4692 46.8708 90.9247 46.1444C90.5617 45.4181 90.0173 44.8734 89.2913 44.3287C88.0209 43.4208 86.569 43.0576 85.2986 43.7839L85.1171 43.9655C83.6653 44.8734 82.7578 46.8708 82.0319 48.5049C80.0355 52.8628 78.9466 57.2206 77.6762 61.9416C77.4947 62.8495 77.3132 63.7574 77.1317 64.6653L71.6872 82.0967L64.2462 98.6202C61.5239 102.07 58.0757 104.975 54.083 106.791C50.0903 108.789 45.7346 109.696 41.3789 109.878C23.0488 110.241 14.5189 93.7176 14.5189 93.7176C4.17419 76.6494 1.08892 54.1338 0.362973 46.8708C0 45.2366 0 44.3287 0 44.3287C0 42.1497 0.544459 39.7892 1.81486 37.9735C2.90378 35.9761 4.53716 34.3419 6.53351 33.2525C8.71135 32.163 10.8892 31.7999 13.2485 31.7999C15.4263 31.7999 17.4227 32.5262 19.4191 33.6156C20.8709 34.5235 22.1413 35.613 23.0488 36.884C24.6822 39.2445 25.2266 42.3313 25.4081 45.2366C26.134 51.7733 27.4045 58.1285 29.2193 64.3021Z" fill="url(#paint18_linear_5027_116524)"/>
<path d="M29.2193 64.3021C30.6712 69.2047 32.4861 74.1073 35.0269 78.6467C36.1158 80.6441 37.2047 82.6414 39.2011 83.9125C39.564 84.094 39.927 84.2756 40.29 84.4572C43.1938 85.0019 44.8272 82.6414 45.9161 80.6441C47.368 77.1941 48.6384 73.7442 49.7273 70.1126C49.9088 69.3863 50.0903 68.8416 50.2718 68.1153C50.6347 66.8442 50.9977 65.5732 51.1792 64.3021L64.0647 29.8025C66.787 26.171 70.2353 23.2657 74.228 21.2684C78.0392 19.0895 82.3949 18 86.932 18C93.284 18 99.6361 20.1789 104.718 24.1736C113.248 30.5288 118.148 43.2392 118.148 43.2392C118.874 44.8734 119.237 46.6892 119.237 48.5049C119.237 50.1391 118.874 51.7733 118.329 53.4075C117.603 54.8601 116.696 56.3128 115.607 57.5838C114.518 58.6733 113.066 59.7627 111.433 60.3075C109.981 60.8522 108.166 61.2153 106.533 61.2153C104.718 61.2153 102.903 60.8522 101.269 59.9443C99.6361 59.218 98.1842 57.9469 96.9138 56.6759C96.9138 56.6759 96.9138 56.4943 96.7323 56.4943C96.0063 55.4049 95.2804 54.1338 94.7359 52.8628C94.01 51.2286 93.284 49.776 92.3766 48.3234C91.8321 47.5971 91.4692 46.8708 90.9247 46.1444C90.5617 45.4181 90.0173 44.8734 89.2913 44.3287C88.0209 43.4208 86.569 43.0576 85.2986 43.7839L85.1171 43.9655C83.6653 44.8734 82.7578 46.8708 82.0319 48.5049C80.0355 52.8628 78.9466 57.2206 77.6762 61.9416C77.4947 62.8495 77.3132 63.7574 77.1317 64.6653L71.6872 82.0967L64.2462 98.6202C61.5239 102.07 58.0757 104.975 54.083 106.791C50.0903 108.789 45.7346 109.696 41.3789 109.878C23.0488 110.241 14.5189 93.7176 14.5189 93.7176C4.17419 76.6494 1.08892 54.1338 0.362973 46.8708C0 45.2366 0 44.3287 0 44.3287C0 42.1497 0.544459 39.7892 1.81486 37.9735C2.90378 35.9761 4.53716 34.3419 6.53351 33.2525C8.71135 32.163 10.8892 31.7999 13.2485 31.7999C15.4263 31.7999 17.4227 32.5262 19.4191 33.6156C20.8709 34.5235 22.1413 35.613 23.0488 36.884C24.6822 39.2445 25.2266 42.3313 25.4081 45.2366C26.134 51.7733 27.4045 58.1285 29.2193 64.3021Z" fill="url(#paint19_linear_5027_116524)"/>
<path d="M55.7676 51.4982L63.9279 29.4695C66.648 25.8284 70.0934 22.9155 74.0829 20.9129C78.0724 19.0923 82.4245 18 86.958 18C93.3049 18 99.6518 20.1847 104.729 24.1899C113.252 30.5618 118.148 43.3057 118.148 43.3057C118.874 44.9442 119.237 46.7648 119.237 48.5853C119.237 50.2238 118.874 51.8623 118.33 53.5008C117.604 54.9573 116.698 56.4137 115.61 57.6881C114.522 58.7804 113.071 59.8728 111.439 60.4189C109.988 60.9651 108.175 61.3292 106.543 61.3292C104.729 61.3292 102.916 60.9651 101.284 60.0548C99.6518 59.3266 98.2011 58.0522 96.9317 56.7778C96.9317 56.7778 96.9317 56.5958 96.7504 56.5958C96.025 55.5034 95.2997 54.2291 94.7556 52.9547C94.0303 51.3162 93.3049 49.8597 92.3982 48.4033C91.8542 47.6751 91.4915 46.9468 90.9475 46.2186C90.5848 45.4904 90.0408 44.9442 89.3154 44.3981C88.0461 43.4878 86.5953 43.1237 85.326 43.8519L85.1446 44.0339C83.6939 44.9442 82.7872 46.9468 82.0618 48.5853C80.0671 52.9547 78.9791 57.324 77.7097 62.0574C77.5284 62.9677 77.347 63.878 77.1657 64.7883L71.7255 82.2656L55.7676 51.4982Z" fill="url(#paint20_linear_5027_116524)"/>
<path d="M115.384 31.8545C114.293 31.8545 113.202 32.0362 112.293 32.2178C114.656 35.6689 116.656 39.3017 118.293 43.1161C119.02 44.7508 119.383 46.5672 119.383 48.3836C119.383 50.0183 119.02 51.6531 118.474 53.2878C117.747 54.7409 116.838 56.194 115.747 57.4655C114.656 58.737 113.202 59.6452 111.566 60.1901C110.111 60.735 108.293 61.0983 106.657 61.0983C104.475 61.0983 102.111 60.5533 100.293 59.2819L99.0207 64.1861C96.6572 72.1782 95.0209 75.0844 95.0209 75.0844C94.1118 77.264 93.021 79.2621 91.7483 81.2601C90.8392 82.5316 89.7484 83.803 88.2939 84.3479C87.7485 84.5296 87.2031 84.5296 86.6576 84.5296C86.1122 84.5296 85.5668 84.3479 85.0213 83.9847C84.1123 83.2581 83.2032 82.1683 82.6578 81.0784C81.9306 79.807 81.3851 78.5355 80.8397 77.2641C79.7488 74.5395 77.9307 67.8189 77.9307 67.8189L76.1127 60.735L74.2945 53.6511L73.0219 48.9285C69.7493 36.7588 65.0223 30.7647 65.0223 30.7647C61.3861 25.4972 56.1136 21.6828 50.1138 19.5032C43.2051 16.9602 35.9327 18.4133 35.9327 18.4133C24.4787 20.593 18.4789 28.4034 15.9336 32.2178C17.2063 32.5811 18.2971 32.9444 19.388 33.6709C20.8425 34.5791 22.1151 35.6689 23.0242 36.9404C24.6605 39.3017 25.2059 42.3895 25.3877 45.2958C26.1149 51.6531 27.3876 57.8288 29.0239 64.0045C32.8419 51.1082 37.569 45.1141 37.569 45.1141C38.1144 44.3876 38.6598 43.8427 39.3871 43.4794C39.7507 43.2977 40.1143 43.1161 40.6597 43.1161C41.387 43.1161 42.296 43.2977 42.8415 43.661C43.0233 43.661 43.0233 43.8427 43.2051 43.8427C43.7505 44.3876 44.2959 44.9325 44.8414 45.659C45.7504 47.4754 46.6595 49.1102 47.3867 51.1082C48.8412 55.1042 50.1138 60.1901 50.1138 60.1901L53.75 74.7211C56.4772 84.7112 58.6589 89.4338 58.6589 89.4338C64.295 102.33 72.8401 105.963 72.8401 105.963C77.0217 108.143 81.7487 109.414 86.4758 109.596C91.0211 109.777 95.5663 108.869 99.5661 106.871C103.93 104.691 107.929 101.422 111.02 97.6075C113.02 95.2462 116.111 89.4338 116.111 89.4338C119.565 82.7132 122.111 75.6293 123.929 68.3638C125.201 63.8228 126.11 59.2819 126.838 54.5593C127.201 52.198 127.565 50.0183 127.747 47.6571C128.11 45.4774 128.11 43.2977 127.565 41.1181C127.383 40.7548 127.383 40.3915 127.201 40.0283C126.11 37.3037 124.11 35.124 121.565 33.6709C119.747 32.3995 117.565 31.8545 115.384 31.8545Z" fill="url(#paint21_linear_5027_116524)"/>
<path d="M115.384 31.8545C114.293 31.8545 113.202 32.0362 112.293 32.2178C114.656 35.6689 116.656 39.3017 118.293 43.1161C119.02 44.7508 119.383 46.5672 119.383 48.3836C119.383 50.0183 119.02 51.6531 118.474 53.2878C117.747 54.7409 116.838 56.194 115.747 57.4655C114.656 58.737 113.202 59.6452 111.566 60.1901C110.111 60.735 108.293 61.0983 106.657 61.0983C104.475 61.0983 102.111 60.5533 100.293 59.2819L99.0207 64.1861C96.6572 72.1782 95.0209 75.0844 95.0209 75.0844C94.1118 77.264 93.021 79.2621 91.7483 81.2601C90.8392 82.5316 89.7484 83.803 88.2939 84.3479C87.7485 84.5296 87.2031 84.5296 86.6576 84.5296C86.1122 84.5296 85.5668 84.3479 85.0213 83.9847C84.1123 83.2581 83.2032 82.1683 82.6578 81.0784C81.9306 79.807 81.3851 78.5355 80.8397 77.2641C79.7488 74.5395 77.9307 67.8189 77.9307 67.8189L76.1127 60.735L74.2945 53.6511L73.0219 48.9285C69.7493 36.7588 65.0223 30.7647 65.0223 30.7647C61.3861 25.4972 56.1136 21.6828 50.1138 19.5032C43.2051 16.9602 35.9327 18.4133 35.9327 18.4133C24.4787 20.593 18.4789 28.4034 15.9336 32.2178C17.2063 32.5811 18.2971 32.9444 19.388 33.6709C20.8425 34.5791 22.1151 35.6689 23.0242 36.9404C24.6605 39.3017 25.2059 42.3895 25.3877 45.2958C26.1149 51.6531 27.3876 57.8288 29.0239 64.0045C32.8419 51.1082 37.569 45.1141 37.569 45.1141C38.1144 44.3876 38.6598 43.8427 39.3871 43.4794C39.7507 43.2977 40.1143 43.1161 40.6597 43.1161C41.387 43.1161 42.296 43.2977 42.8415 43.661C43.0233 43.661 43.0233 43.8427 43.2051 43.8427C43.7505 44.3876 44.2959 44.9325 44.8414 45.659C45.7504 47.4754 46.6595 49.1102 47.3867 51.1082C48.8412 55.1042 50.1138 60.1901 50.1138 60.1901L53.75 74.7211C56.4772 84.7112 58.6589 89.4338 58.6589 89.4338C64.295 102.33 72.8401 105.963 72.8401 105.963C77.0217 108.143 81.7487 109.414 86.4758 109.596C91.0211 109.777 95.5663 108.869 99.5661 106.871C103.93 104.691 107.929 101.422 111.02 97.6075C113.02 95.2462 116.111 89.4338 116.111 89.4338C119.565 82.7132 122.111 75.6293 123.929 68.3638C125.201 63.8228 126.11 59.2819 126.838 54.5593C127.201 52.198 127.565 50.0183 127.747 47.6571C128.11 45.4774 128.11 43.2977 127.565 41.1181C127.383 40.7548 127.383 40.3915 127.201 40.0283C126.11 37.3037 124.11 35.124 121.565 33.6709C119.747 32.3995 117.565 31.8545 115.384 31.8545Z" fill="url(#paint22_radial_5027_116524)"/>
<path d="M115.384 31.8545C114.293 31.8545 113.202 32.0362 112.293 32.2178C114.656 35.6689 116.656 39.3017 118.293 43.1161C119.02 44.7508 119.383 46.5672 119.383 48.3836C119.383 50.0183 119.02 51.6531 118.474 53.2878C117.747 54.7409 116.838 56.194 115.747 57.4655C114.656 58.737 113.202 59.6452 111.566 60.1901C110.111 60.735 108.293 61.0983 106.657 61.0983C104.475 61.0983 102.111 60.5533 100.293 59.2819L99.0207 64.1861C96.6572 72.1782 95.0209 75.0844 95.0209 75.0844C94.1118 77.264 93.021 79.2621 91.7483 81.2601C90.8392 82.5316 89.7484 83.803 88.2939 84.3479C87.7485 84.5296 87.2031 84.5296 86.6576 84.5296C86.1122 84.5296 85.5668 84.3479 85.0213 83.9847C84.1123 83.2581 83.2032 82.1683 82.6578 81.0784C81.9306 79.807 81.3851 78.5355 80.8397 77.2641C79.7488 74.5395 77.9307 67.8189 77.9307 67.8189L76.1127 60.735L74.2945 53.6511L73.0219 48.9285C69.7493 36.7588 65.0223 30.7647 65.0223 30.7647C61.3861 25.4972 56.1136 21.6828 50.1138 19.5032C43.2051 16.9602 35.9327 18.4133 35.9327 18.4133C24.4787 20.593 18.4789 28.4034 15.9336 32.2178C17.2063 32.5811 18.2971 32.9444 19.388 33.6709C20.8425 34.5791 22.1151 35.6689 23.0242 36.9404C24.6605 39.3017 25.2059 42.3895 25.3877 45.2958C26.1149 51.6531 27.3876 57.8288 29.0239 64.0045C32.8419 51.1082 37.569 45.1141 37.569 45.1141C38.1144 44.3876 38.6598 43.8427 39.3871 43.4794C39.7507 43.2977 40.1143 43.1161 40.6597 43.1161C41.387 43.1161 42.296 43.2977 42.8415 43.661C43.0233 43.661 43.0233 43.8427 43.2051 43.8427C43.7505 44.3876 44.2959 44.9325 44.8414 45.659C45.7504 47.4754 46.6595 49.1102 47.3867 51.1082C48.8412 55.1042 50.1138 60.1901 50.1138 60.1901L53.75 74.7211C56.4772 84.7112 58.6589 89.4338 58.6589 89.4338C64.295 102.33 72.8401 105.963 72.8401 105.963C77.0217 108.143 81.7487 109.414 86.4758 109.596C91.0211 109.777 95.5663 108.869 99.5661 106.871C103.93 104.691 107.929 101.422 111.02 97.6075C113.02 95.2462 116.111 89.4338 116.111 89.4338C119.565 82.7132 122.111 75.6293 123.929 68.3638C125.201 63.8228 126.11 59.2819 126.838 54.5593C127.201 52.198 127.565 50.0183 127.747 47.6571C128.11 45.4774 128.11 43.2977 127.565 41.1181C127.383 40.7548 127.383 40.3915 127.201 40.0283C126.11 37.3037 124.11 35.124 121.565 33.6709C119.747 32.3995 117.565 31.8545 115.384 31.8545Z" fill="url(#paint23_radial_5027_116524)"/>
<path d="M115.384 31.8545C114.293 31.8545 113.202 32.0362 112.293 32.2178C114.656 35.6689 116.656 39.3017 118.293 43.1161C119.02 44.7508 119.383 46.5672 119.383 48.3836C119.383 50.0183 119.02 51.6531 118.474 53.2878C117.747 54.7409 116.838 56.194 115.747 57.4655C114.656 58.737 113.202 59.6452 111.566 60.1901C110.111 60.735 108.293 61.0983 106.657 61.0983C104.475 61.0983 102.111 60.5533 100.293 59.2819L99.0207 64.1861C96.6572 72.1782 95.0209 75.0844 95.0209 75.0844C94.1118 77.264 93.021 79.2621 91.7483 81.2601C90.8392 82.5316 89.7484 83.803 88.2939 84.3479C87.7485 84.5296 87.2031 84.5296 86.6576 84.5296C86.1122 84.5296 85.5668 84.3479 85.0213 83.9847C84.1123 83.2581 83.2032 82.1683 82.6578 81.0784C81.9306 79.807 81.3851 78.5355 80.8397 77.2641C79.7488 74.5395 77.9307 67.8189 77.9307 67.8189L76.1127 60.735L74.2945 53.6511L73.0219 48.9285C69.7493 36.7588 65.0223 30.7647 65.0223 30.7647C61.3861 25.4972 56.1136 21.6828 50.1138 19.5032C43.2051 16.9602 35.9327 18.4133 35.9327 18.4133C24.4787 20.593 18.4789 28.4034 15.9336 32.2178C17.2063 32.5811 18.2971 32.9444 19.388 33.6709C20.8425 34.5791 22.1151 35.6689 23.0242 36.9404C24.6605 39.3017 25.2059 42.3895 25.3877 45.2958C26.1149 51.6531 27.3876 57.8288 29.0239 64.0045C32.8419 51.1082 37.569 45.1141 37.569 45.1141C38.1144 44.3876 38.6598 43.8427 39.3871 43.4794C39.7507 43.2977 40.1143 43.1161 40.6597 43.1161C41.387 43.1161 42.296 43.2977 42.8415 43.661C43.0233 43.661 43.0233 43.8427 43.2051 43.8427C43.7505 44.3876 44.2959 44.9325 44.8414 45.659C45.7504 47.4754 46.6595 49.1102 47.3867 51.1082C48.8412 55.1042 50.1138 60.1901 50.1138 60.1901L53.75 74.7211C56.4772 84.7112 58.6589 89.4338 58.6589 89.4338C64.295 102.33 72.8401 105.963 72.8401 105.963C77.0217 108.143 81.7487 109.414 86.4758 109.596C91.0211 109.777 95.5663 108.869 99.5661 106.871C103.93 104.691 107.929 101.422 111.02 97.6075C113.02 95.2462 116.111 89.4338 116.111 89.4338C119.565 82.7132 122.111 75.6293 123.929 68.3638C125.201 63.8228 126.11 59.2819 126.838 54.5593C127.201 52.198 127.565 50.0183 127.747 47.6571C128.11 45.4774 128.11 43.2977 127.565 41.1181C127.383 40.7548 127.383 40.3915 127.201 40.0283C126.11 37.3037 124.11 35.124 121.565 33.6709C119.747 32.3995 117.565 31.8545 115.384 31.8545Z" fill="url(#paint24_radial_5027_116524)"/>
<path d="M115.384 31.8545C114.293 31.8545 113.202 32.0362 112.293 32.2178C114.656 35.6689 116.656 39.3017 118.293 43.1161C119.02 44.7508 119.383 46.5672 119.383 48.3836C119.383 50.0183 119.02 51.6531 118.474 53.2878C117.747 54.7409 116.838 56.194 115.747 57.4655C114.656 58.737 113.202 59.6452 111.566 60.1901C110.111 60.735 108.293 61.0983 106.657 61.0983C104.475 61.0983 102.111 60.5533 100.293 59.2819L99.0207 64.1861C96.6572 72.1782 95.0209 75.0844 95.0209 75.0844C94.1118 77.264 93.021 79.2621 91.7483 81.2601C90.8392 82.5316 89.7484 83.803 88.2939 84.3479C87.7485 84.5296 87.2031 84.5296 86.6576 84.5296C86.1122 84.5296 85.5668 84.3479 85.0213 83.9847C84.1123 83.2581 83.2032 82.1683 82.6578 81.0784C81.9306 79.807 81.3851 78.5355 80.8397 77.2641C79.7488 74.5395 77.9307 67.8189 77.9307 67.8189L76.1127 60.735L74.2945 53.6511L73.0219 48.9285C69.7493 36.7588 65.0223 30.7647 65.0223 30.7647C61.3861 25.4972 56.1136 21.6828 50.1138 19.5032C43.2051 16.9602 35.9327 18.4133 35.9327 18.4133C24.4787 20.593 18.4789 28.4034 15.9336 32.2178C17.2063 32.5811 18.2971 32.9444 19.388 33.6709C20.8425 34.5791 22.1151 35.6689 23.0242 36.9404C24.6605 39.3017 25.2059 42.3895 25.3877 45.2958C26.1149 51.6531 27.3876 57.8288 29.0239 64.0045C32.8419 51.1082 37.569 45.1141 37.569 45.1141C38.1144 44.3876 38.6598 43.8427 39.3871 43.4794C39.7507 43.2977 40.1143 43.1161 40.6597 43.1161C41.387 43.1161 42.296 43.2977 42.8415 43.661C43.0233 43.661 43.0233 43.8427 43.2051 43.8427C43.7505 44.3876 44.2959 44.9325 44.8414 45.659C45.7504 47.4754 46.6595 49.1102 47.3867 51.1082C48.8412 55.1042 50.1138 60.1901 50.1138 60.1901L53.75 74.7211C56.4772 84.7112 58.6589 89.4338 58.6589 89.4338C64.295 102.33 72.8401 105.963 72.8401 105.963C77.0217 108.143 81.7487 109.414 86.4758 109.596C91.0211 109.777 95.5663 108.869 99.5661 106.871C103.93 104.691 107.929 101.422 111.02 97.6075C113.02 95.2462 116.111 89.4338 116.111 89.4338C119.565 82.7132 122.111 75.6293 123.929 68.3638C125.201 63.8228 126.11 59.2819 126.838 54.5593C127.201 52.198 127.565 50.0183 127.747 47.6571C128.11 45.4774 128.11 43.2977 127.565 41.1181C127.383 40.7548 127.383 40.3915 127.201 40.0283C126.11 37.3037 124.11 35.124 121.565 33.6709C119.747 32.3995 117.565 31.8545 115.384 31.8545Z" fill="url(#paint25_radial_5027_116524)"/>
<path d="M115.384 31.8545C114.293 31.8545 113.202 32.0362 112.293 32.2178C114.656 35.6689 116.656 39.3017 118.293 43.1161C119.02 44.7508 119.383 46.5672 119.383 48.3836C119.383 50.0183 119.02 51.6531 118.474 53.2878C117.747 54.7409 116.838 56.194 115.747 57.4655C114.656 58.737 113.202 59.6452 111.566 60.1901C110.111 60.735 108.293 61.0983 106.657 61.0983C104.475 61.0983 102.111 60.5533 100.293 59.2819L99.0207 64.1861C96.6572 72.1782 95.0209 75.0844 95.0209 75.0844C94.1118 77.264 93.021 79.2621 91.7483 81.2601C90.8392 82.5316 89.7484 83.803 88.2939 84.3479C87.7485 84.5296 87.2031 84.5296 86.6576 84.5296C86.1122 84.5296 85.5668 84.3479 85.0213 83.9847C84.1123 83.2581 83.2032 82.1683 82.6578 81.0784C81.9306 79.807 81.3851 78.5355 80.8397 77.2641C79.7488 74.5395 77.9307 67.8189 77.9307 67.8189L76.1127 60.735L74.2945 53.6511L73.0219 48.9285C69.7493 36.7588 65.0223 30.7647 65.0223 30.7647C61.3861 25.4972 56.1136 21.6828 50.1138 19.5032C43.2051 16.9602 35.9327 18.4133 35.9327 18.4133C24.4787 20.593 18.4789 28.4034 15.9336 32.2178C17.2063 32.5811 18.2971 32.9444 19.388 33.6709C20.8425 34.5791 22.1151 35.6689 23.0242 36.9404C24.6605 39.3017 25.2059 42.3895 25.3877 45.2958C26.1149 51.6531 27.3876 57.8288 29.0239 64.0045C32.8419 51.1082 37.569 45.1141 37.569 45.1141C38.1144 44.3876 38.6598 43.8427 39.3871 43.4794C39.7507 43.2977 40.1143 43.1161 40.6597 43.1161C41.387 43.1161 42.296 43.2977 42.8415 43.661C43.0233 43.661 43.0233 43.8427 43.2051 43.8427C43.7505 44.3876 44.2959 44.9325 44.8414 45.659C45.7504 47.4754 46.6595 49.1102 47.3867 51.1082C48.8412 55.1042 50.1138 60.1901 50.1138 60.1901L53.75 74.7211C56.4772 84.7112 58.6589 89.4338 58.6589 89.4338C64.295 102.33 72.8401 105.963 72.8401 105.963C77.0217 108.143 81.7487 109.414 86.4758 109.596C91.0211 109.777 95.5663 108.869 99.5661 106.871C103.93 104.691 107.929 101.422 111.02 97.6075C113.02 95.2462 116.111 89.4338 116.111 89.4338C119.565 82.7132 122.111 75.6293 123.929 68.3638C125.201 63.8228 126.11 59.2819 126.838 54.5593C127.201 52.198 127.565 50.0183 127.747 47.6571C128.11 45.4774 128.11 43.2977 127.565 41.1181C127.383 40.7548 127.383 40.3915 127.201 40.0283C126.11 37.3037 124.11 35.124 121.565 33.6709C119.747 32.3995 117.565 31.8545 115.384 31.8545Z" fill="url(#paint26_radial_5027_116524)"/>
<path d="M115.384 31.8545C114.293 31.8545 113.202 32.0362 112.293 32.2178C114.656 35.6689 116.656 39.3017 118.293 43.1161C119.02 44.7508 119.383 46.5672 119.383 48.3836C119.383 50.0183 119.02 51.6531 118.474 53.2878C117.747 54.7409 116.838 56.194 115.747 57.4655C114.656 58.737 113.202 59.6452 111.566 60.1901C110.111 60.735 108.293 61.0983 106.657 61.0983C104.475 61.0983 102.111 60.5533 100.293 59.2819L99.0207 64.1861C96.6572 72.1782 95.0209 75.0844 95.0209 75.0844C94.1118 77.264 93.021 79.2621 91.7483 81.2601C90.8392 82.5316 89.7484 83.803 88.2939 84.3479C87.7485 84.5296 87.2031 84.5296 86.6576 84.5296C86.1122 84.5296 85.5668 84.3479 85.0213 83.9847C84.1123 83.2581 83.2032 82.1683 82.6578 81.0784C81.9306 79.807 81.3851 78.5355 80.8397 77.2641C79.7488 74.5395 77.9307 67.8189 77.9307 67.8189L76.1127 60.735L74.2945 53.6511L73.0219 48.9285C69.7493 36.7588 65.0223 30.7647 65.0223 30.7647C61.3861 25.4972 56.1136 21.6828 50.1138 19.5032C43.2051 16.9602 35.9327 18.4133 35.9327 18.4133C24.4787 20.593 18.4789 28.4034 15.9336 32.2178C17.2063 32.5811 18.2971 32.9444 19.388 33.6709C20.8425 34.5791 22.1151 35.6689 23.0242 36.9404C24.6605 39.3017 25.2059 42.3895 25.3877 45.2958C26.1149 51.6531 27.3876 57.8288 29.0239 64.0045C32.8419 51.1082 37.569 45.1141 37.569 45.1141C38.1144 44.3876 38.6598 43.8427 39.3871 43.4794C39.7507 43.2977 40.1143 43.1161 40.6597 43.1161C41.387 43.1161 42.296 43.2977 42.8415 43.661C43.0233 43.661 43.0233 43.8427 43.2051 43.8427C43.7505 44.3876 44.2959 44.9325 44.8414 45.659C45.7504 47.4754 46.6595 49.1102 47.3867 51.1082C48.8412 55.1042 50.1138 60.1901 50.1138 60.1901L53.75 74.7211C56.4772 84.7112 58.6589 89.4338 58.6589 89.4338C64.295 102.33 72.8401 105.963 72.8401 105.963C77.0217 108.143 81.7487 109.414 86.4758 109.596C91.0211 109.777 95.5663 108.869 99.5661 106.871C103.93 104.691 107.929 101.422 111.02 97.6075C113.02 95.2462 116.111 89.4338 116.111 89.4338C119.565 82.7132 122.111 75.6293 123.929 68.3638C125.201 63.8228 126.11 59.2819 126.838 54.5593C127.201 52.198 127.565 50.0183 127.747 47.6571C128.11 45.4774 128.11 43.2977 127.565 41.1181C127.383 40.7548 127.383 40.3915 127.201 40.0283C126.11 37.3037 124.11 35.124 121.565 33.6709C119.747 32.3995 117.565 31.8545 115.384 31.8545Z" fill="url(#paint27_radial_5027_116524)"/>
<path d="M115.384 31.8545C114.293 31.8545 113.202 32.0362 112.293 32.2178C114.656 35.6689 116.656 39.3017 118.293 43.1161C119.02 44.7508 119.383 46.5672 119.383 48.3836C119.383 50.0183 119.02 51.6531 118.474 53.2878C117.747 54.7409 116.838 56.194 115.747 57.4655C114.656 58.737 113.202 59.6452 111.566 60.1901C110.111 60.735 108.293 61.0983 106.657 61.0983C104.475 61.0983 102.111 60.5533 100.293 59.2819L99.0207 64.1861C96.6572 72.1782 95.0209 75.0844 95.0209 75.0844C94.1118 77.264 93.021 79.2621 91.7483 81.2601C90.8392 82.5316 89.7484 83.803 88.2939 84.3479C87.7485 84.5296 87.2031 84.5296 86.6576 84.5296C86.1122 84.5296 85.5668 84.3479 85.0213 83.9847C84.1123 83.2581 83.2032 82.1683 82.6578 81.0784C81.9306 79.807 81.3851 78.5355 80.8397 77.2641C79.7488 74.5395 77.9307 67.8189 77.9307 67.8189L76.1127 60.735L74.2945 53.6511L73.0219 48.9285C69.7493 36.7588 65.0223 30.7647 65.0223 30.7647C61.3861 25.4972 56.1136 21.6828 50.1138 19.5032C43.2051 16.9602 35.9327 18.4133 35.9327 18.4133C24.4787 20.593 18.4789 28.4034 15.9336 32.2178C17.2063 32.5811 18.2971 32.9444 19.388 33.6709C20.8425 34.5791 22.1151 35.6689 23.0242 36.9404C24.6605 39.3017 25.2059 42.3895 25.3877 45.2958C26.1149 51.6531 27.3876 57.8288 29.0239 64.0045C32.8419 51.1082 37.569 45.1141 37.569 45.1141C38.1144 44.3876 38.6598 43.8427 39.3871 43.4794C39.7507 43.2977 40.1143 43.1161 40.6597 43.1161C41.387 43.1161 42.296 43.2977 42.8415 43.661C43.0233 43.661 43.0233 43.8427 43.2051 43.8427C43.7505 44.3876 44.2959 44.9325 44.8414 45.659C45.7504 47.4754 46.6595 49.1102 47.3867 51.1082C48.8412 55.1042 50.1138 60.1901 50.1138 60.1901L53.75 74.7211C56.4772 84.7112 58.6589 89.4338 58.6589 89.4338C64.295 102.33 72.8401 105.963 72.8401 105.963C77.0217 108.143 81.7487 109.414 86.4758 109.596C91.0211 109.777 95.5663 108.869 99.5661 106.871C103.93 104.691 107.929 101.422 111.02 97.6075C113.02 95.2462 116.111 89.4338 116.111 89.4338C119.565 82.7132 122.111 75.6293 123.929 68.3638C125.201 63.8228 126.11 59.2819 126.838 54.5593C127.201 52.198 127.565 50.0183 127.747 47.6571C128.11 45.4774 128.11 43.2977 127.565 41.1181C127.383 40.7548 127.383 40.3915 127.201 40.0283C126.11 37.3037 124.11 35.124 121.565 33.6709C119.747 32.3995 117.565 31.8545 115.384 31.8545Z" fill="url(#paint28_radial_5027_116524)"/>
<path d="M115.384 31.8545C114.293 31.8545 113.202 32.0362 112.293 32.2178C114.656 35.6689 116.656 39.3017 118.293 43.1161C119.02 44.7508 119.383 46.5672 119.383 48.3836C119.383 50.0183 119.02 51.6531 118.474 53.2878C117.747 54.7409 116.838 56.194 115.747 57.4655C114.656 58.737 113.202 59.6452 111.566 60.1901C110.111 60.735 108.293 61.0983 106.657 61.0983C104.475 61.0983 102.111 60.5533 100.293 59.2819L99.0207 64.1861C96.6572 72.1782 95.0209 75.0844 95.0209 75.0844C94.1118 77.264 93.021 79.2621 91.7483 81.2601C90.8392 82.5316 89.7484 83.803 88.2939 84.3479C87.7485 84.5296 87.2031 84.5296 86.6576 84.5296C86.1122 84.5296 85.5668 84.3479 85.0213 83.9847C84.1123 83.2581 83.2032 82.1683 82.6578 81.0784C81.9306 79.807 81.3851 78.5355 80.8397 77.2641C79.7488 74.5395 77.9307 67.8189 77.9307 67.8189L76.1127 60.735L74.2945 53.6511L73.0219 48.9285C69.7493 36.7588 65.0223 30.7647 65.0223 30.7647C61.3861 25.4972 56.1136 21.6828 50.1138 19.5032C43.2051 16.9602 35.9327 18.4133 35.9327 18.4133C24.4787 20.593 18.4789 28.4034 15.9336 32.2178C17.2063 32.5811 18.2971 32.9444 19.388 33.6709C20.8425 34.5791 22.1151 35.6689 23.0242 36.9404C24.6605 39.3017 25.2059 42.3895 25.3877 45.2958C26.1149 51.6531 27.3876 57.8288 29.0239 64.0045C32.8419 51.1082 37.569 45.1141 37.569 45.1141C38.1144 44.3876 38.6598 43.8427 39.3871 43.4794C39.7507 43.2977 40.1143 43.1161 40.6597 43.1161C41.387 43.1161 42.296 43.2977 42.8415 43.661C43.0233 43.661 43.0233 43.8427 43.2051 43.8427C43.7505 44.3876 44.2959 44.9325 44.8414 45.659C45.7504 47.4754 46.6595 49.1102 47.3867 51.1082C48.8412 55.1042 50.1138 60.1901 50.1138 60.1901L53.75 74.7211C56.4772 84.7112 58.6589 89.4338 58.6589 89.4338C64.295 102.33 72.8401 105.963 72.8401 105.963C77.0217 108.143 81.7487 109.414 86.4758 109.596C91.0211 109.777 95.5663 108.869 99.5661 106.871C103.93 104.691 107.929 101.422 111.02 97.6075C113.02 95.2462 116.111 89.4338 116.111 89.4338C119.565 82.7132 122.111 75.6293 123.929 68.3638C125.201 63.8228 126.11 59.2819 126.838 54.5593C127.201 52.198 127.565 50.0183 127.747 47.6571C128.11 45.4774 128.11 43.2977 127.565 41.1181C127.383 40.7548 127.383 40.3915 127.201 40.0283C126.11 37.3037 124.11 35.124 121.565 33.6709C119.747 32.3995 117.565 31.8545 115.384 31.8545Z" fill="url(#paint29_radial_5027_116524)"/>
<path d="M115.384 31.8545C114.293 31.8545 113.202 32.0362 112.293 32.2178C114.656 35.6689 116.656 39.3017 118.293 43.1161C119.02 44.7508 119.383 46.5672 119.383 48.3836C119.383 50.0183 119.02 51.6531 118.474 53.2878C117.747 54.7409 116.838 56.194 115.747 57.4655C114.656 58.737 113.202 59.6452 111.566 60.1901C110.111 60.735 108.293 61.0983 106.657 61.0983C104.475 61.0983 102.111 60.5533 100.293 59.2819L99.0207 64.1861C96.6572 72.1782 95.0209 75.0844 95.0209 75.0844C94.1118 77.264 93.021 79.2621 91.7483 81.2601C90.8392 82.5316 89.7484 83.803 88.2939 84.3479C87.7485 84.5296 87.2031 84.5296 86.6576 84.5296C86.1122 84.5296 85.5668 84.3479 85.0213 83.9847C84.1123 83.2581 83.2032 82.1683 82.6578 81.0784C81.9306 79.807 81.3851 78.5355 80.8397 77.2641C79.7488 74.5395 77.9307 67.8189 77.9307 67.8189L76.1127 60.735L74.2945 53.6511L73.0219 48.9285C69.7493 36.7588 65.0223 30.7647 65.0223 30.7647C61.3861 25.4972 56.1136 21.6828 50.1138 19.5032C43.2051 16.9602 35.9327 18.4133 35.9327 18.4133C24.4787 20.593 18.4789 28.4034 15.9336 32.2178C17.2063 32.5811 18.2971 32.9444 19.388 33.6709C20.8425 34.5791 22.1151 35.6689 23.0242 36.9404C24.6605 39.3017 25.2059 42.3895 25.3877 45.2958C26.1149 51.6531 27.3876 57.8288 29.0239 64.0045C32.8419 51.1082 37.569 45.1141 37.569 45.1141C38.1144 44.3876 38.6598 43.8427 39.3871 43.4794C39.7507 43.2977 40.1143 43.1161 40.6597 43.1161C41.387 43.1161 42.296 43.2977 42.8415 43.661C43.0233 43.661 43.0233 43.8427 43.2051 43.8427C43.7505 44.3876 44.2959 44.9325 44.8414 45.659C45.7504 47.4754 46.6595 49.1102 47.3867 51.1082C48.8412 55.1042 50.1138 60.1901 50.1138 60.1901L53.75 74.7211C56.4772 84.7112 58.6589 89.4338 58.6589 89.4338C64.295 102.33 72.8401 105.963 72.8401 105.963C77.0217 108.143 81.7487 109.414 86.4758 109.596C91.0211 109.777 95.5663 108.869 99.5661 106.871C103.93 104.691 107.929 101.422 111.02 97.6075C113.02 95.2462 116.111 89.4338 116.111 89.4338C119.565 82.7132 122.111 75.6293 123.929 68.3638C125.201 63.8228 126.11 59.2819 126.838 54.5593C127.201 52.198 127.565 50.0183 127.747 47.6571C128.11 45.4774 128.11 43.2977 127.565 41.1181C127.383 40.7548 127.383 40.3915 127.201 40.0283C126.11 37.3037 124.11 35.124 121.565 33.6709C119.747 32.3995 117.565 31.8545 115.384 31.8545Z" fill="url(#paint30_radial_5027_116524)"/>
<path d="M115.384 31.8545C114.293 31.8545 113.202 32.0362 112.293 32.2178C114.656 35.6689 116.656 39.3017 118.293 43.1161C119.02 44.7508 119.383 46.5672 119.383 48.3836C119.383 50.0183 119.02 51.6531 118.474 53.2878C117.747 54.7409 116.838 56.194 115.747 57.4655C114.656 58.737 113.202 59.6452 111.566 60.1901C110.111 60.735 108.293 61.0983 106.657 61.0983C104.475 61.0983 102.111 60.5533 100.293 59.2819L99.0207 64.1861C96.6572 72.1782 95.0209 75.0844 95.0209 75.0844C94.1118 77.264 93.021 79.2621 91.7483 81.2601C90.8392 82.5316 89.7484 83.803 88.2939 84.3479C87.7485 84.5296 87.2031 84.5296 86.6576 84.5296C86.1122 84.5296 85.5668 84.3479 85.0213 83.9847C84.1123 83.2581 83.2032 82.1683 82.6578 81.0784C81.9306 79.807 81.3851 78.5355 80.8397 77.2641C79.7488 74.5395 77.9307 67.8189 77.9307 67.8189L76.1127 60.735L74.2945 53.6511L73.0219 48.9285C69.7493 36.7588 65.0223 30.7647 65.0223 30.7647C61.3861 25.4972 56.1136 21.6828 50.1138 19.5032C43.2051 16.9602 35.9327 18.4133 35.9327 18.4133C24.4787 20.593 18.4789 28.4034 15.9336 32.2178C17.2063 32.5811 18.2971 32.9444 19.388 33.6709C20.8425 34.5791 22.1151 35.6689 23.0242 36.9404C24.6605 39.3017 25.2059 42.3895 25.3877 45.2958C26.1149 51.6531 27.3876 57.8288 29.0239 64.0045C32.8419 51.1082 37.569 45.1141 37.569 45.1141C38.1144 44.3876 38.6598 43.8427 39.3871 43.4794C39.7507 43.2977 40.1143 43.1161 40.6597 43.1161C41.387 43.1161 42.296 43.2977 42.8415 43.661C43.0233 43.661 43.0233 43.8427 43.2051 43.8427C43.7505 44.3876 44.2959 44.9325 44.8414 45.659C45.7504 47.4754 46.6595 49.1102 47.3867 51.1082C48.8412 55.1042 50.1138 60.1901 50.1138 60.1901L53.75 74.7211C56.4772 84.7112 58.6589 89.4338 58.6589 89.4338C64.295 102.33 72.8401 105.963 72.8401 105.963C77.0217 108.143 81.7487 109.414 86.4758 109.596C91.0211 109.777 95.5663 108.869 99.5661 106.871C103.93 104.691 107.929 101.422 111.02 97.6075C113.02 95.2462 116.111 89.4338 116.111 89.4338C119.565 82.7132 122.111 75.6293 123.929 68.3638C125.201 63.8228 126.11 59.2819 126.838 54.5593C127.201 52.198 127.565 50.0183 127.747 47.6571C128.11 45.4774 128.11 43.2977 127.565 41.1181C127.383 40.7548 127.383 40.3915 127.201 40.0283C126.11 37.3037 124.11 35.124 121.565 33.6709C119.747 32.3995 117.565 31.8545 115.384 31.8545Z" fill="url(#paint31_radial_5027_116524)"/>
<path d="M115.384 31.8545C114.293 31.8545 113.202 32.0362 112.293 32.2178C114.656 35.6689 116.656 39.3017 118.293 43.1161C119.02 44.7508 119.383 46.5672 119.383 48.3836C119.383 50.0183 119.02 51.6531 118.474 53.2878C117.747 54.7409 116.838 56.194 115.747 57.4655C114.656 58.737 113.202 59.6452 111.566 60.1901C110.111 60.735 108.293 61.0983 106.657 61.0983C104.475 61.0983 102.111 60.5533 100.293 59.2819L99.0207 64.1861C96.6572 72.1782 95.0209 75.0844 95.0209 75.0844C94.1118 77.264 93.021 79.2621 91.7483 81.2601C90.8392 82.5316 89.7484 83.803 88.2939 84.3479C87.7485 84.5296 87.2031 84.5296 86.6576 84.5296C86.1122 84.5296 85.5668 84.3479 85.0213 83.9847C84.1123 83.2581 83.2032 82.1683 82.6578 81.0784C81.9306 79.807 81.3851 78.5355 80.8397 77.2641C79.7488 74.5395 77.9307 67.8189 77.9307 67.8189L76.1127 60.735L74.2945 53.6511L73.0219 48.9285C69.7493 36.7588 65.0223 30.7647 65.0223 30.7647C61.3861 25.4972 56.1136 21.6828 50.1138 19.5032C43.2051 16.9602 35.9327 18.4133 35.9327 18.4133C24.4787 20.593 18.4789 28.4034 15.9336 32.2178C17.2063 32.5811 18.2971 32.9444 19.388 33.6709C20.8425 34.5791 22.1151 35.6689 23.0242 36.9404C24.6605 39.3017 25.2059 42.3895 25.3877 45.2958C26.1149 51.6531 27.3876 57.8288 29.0239 64.0045C32.8419 51.1082 37.569 45.1141 37.569 45.1141C38.1144 44.3876 38.6598 43.8427 39.3871 43.4794C39.7507 43.2977 40.1143 43.1161 40.6597 43.1161C41.387 43.1161 42.296 43.2977 42.8415 43.661C43.0233 43.661 43.0233 43.8427 43.2051 43.8427C43.7505 44.3876 44.2959 44.9325 44.8414 45.659C45.7504 47.4754 46.6595 49.1102 47.3867 51.1082C48.8412 55.1042 50.1138 60.1901 50.1138 60.1901L53.75 74.7211C56.4772 84.7112 58.6589 89.4338 58.6589 89.4338C64.295 102.33 72.8401 105.963 72.8401 105.963C77.0217 108.143 81.7487 109.414 86.4758 109.596C91.0211 109.777 95.5663 108.869 99.5661 106.871C103.93 104.691 107.929 101.422 111.02 97.6075C113.02 95.2462 116.111 89.4338 116.111 89.4338C119.565 82.7132 122.111 75.6293 123.929 68.3638C125.201 63.8228 126.11 59.2819 126.838 54.5593C127.201 52.198 127.565 50.0183 127.747 47.6571C128.11 45.4774 128.11 43.2977 127.565 41.1181C127.383 40.7548 127.383 40.3915 127.201 40.0283C126.11 37.3037 124.11 35.124 121.565 33.6709C119.747 32.3995 117.565 31.8545 115.384 31.8545Z" fill="url(#paint32_radial_5027_116524)"/>
<path d="M115.384 31.8545C114.293 31.8545 113.202 32.0362 112.293 32.2178C114.656 35.6689 116.656 39.3017 118.293 43.1161C119.02 44.7508 119.383 46.5672 119.383 48.3836C119.383 50.0183 119.02 51.6531 118.474 53.2878C117.747 54.7409 116.838 56.194 115.747 57.4655C114.656 58.737 113.202 59.6452 111.566 60.1901C110.111 60.735 108.293 61.0983 106.657 61.0983C104.475 61.0983 102.111 60.5533 100.293 59.2819L99.0207 64.1861C96.6572 72.1782 95.0209 75.0844 95.0209 75.0844C94.1118 77.264 93.021 79.2621 91.7483 81.2601C90.8392 82.5316 89.7484 83.803 88.2939 84.3479C87.7485 84.5296 87.2031 84.5296 86.6576 84.5296C86.1122 84.5296 85.5668 84.3479 85.0213 83.9847C84.1123 83.2581 83.2032 82.1683 82.6578 81.0784C81.9306 79.807 81.3851 78.5355 80.8397 77.2641C79.7488 74.5395 77.9307 67.8189 77.9307 67.8189L76.1127 60.735L74.2945 53.6511L73.0219 48.9285C69.7493 36.7588 65.0223 30.7647 65.0223 30.7647C61.3861 25.4972 56.1136 21.6828 50.1138 19.5032C43.2051 16.9602 35.9327 18.4133 35.9327 18.4133C24.4787 20.593 18.4789 28.4034 15.9336 32.2178C17.2063 32.5811 18.2971 32.9444 19.388 33.6709C20.8425 34.5791 22.1151 35.6689 23.0242 36.9404C24.6605 39.3017 25.2059 42.3895 25.3877 45.2958C26.1149 51.6531 27.3876 57.8288 29.0239 64.0045C32.8419 51.1082 37.569 45.1141 37.569 45.1141C38.1144 44.3876 38.6598 43.8427 39.3871 43.4794C39.7507 43.2977 40.1143 43.1161 40.6597 43.1161C41.387 43.1161 42.296 43.2977 42.8415 43.661C43.0233 43.661 43.0233 43.8427 43.2051 43.8427C43.7505 44.3876 44.2959 44.9325 44.8414 45.659C45.7504 47.4754 46.6595 49.1102 47.3867 51.1082C48.8412 55.1042 50.1138 60.1901 50.1138 60.1901L53.75 74.7211C56.4772 84.7112 58.6589 89.4338 58.6589 89.4338C64.295 102.33 72.8401 105.963 72.8401 105.963C77.0217 108.143 81.7487 109.414 86.4758 109.596C91.0211 109.777 95.5663 108.869 99.5661 106.871C103.93 104.691 107.929 101.422 111.02 97.6075C113.02 95.2462 116.111 89.4338 116.111 89.4338C119.565 82.7132 122.111 75.6293 123.929 68.3638C125.201 63.8228 126.11 59.2819 126.838 54.5593C127.201 52.198 127.565 50.0183 127.747 47.6571C128.11 45.4774 128.11 43.2977 127.565 41.1181C127.383 40.7548 127.383 40.3915 127.201 40.0283C126.11 37.3037 124.11 35.124 121.565 33.6709C119.747 32.3995 117.565 31.8545 115.384 31.8545Z" fill="url(#paint33_radial_5027_116524)"/>
<path d="M115.384 31.8545C114.293 31.8545 113.202 32.0362 112.293 32.2178C114.656 35.6689 116.656 39.3017 118.293 43.1161C119.02 44.7508 119.383 46.5672 119.383 48.3836C119.383 50.0183 119.02 51.6531 118.474 53.2878C117.747 54.7409 116.838 56.194 115.747 57.4655C114.656 58.737 113.202 59.6452 111.566 60.1901C110.111 60.735 108.293 61.0983 106.657 61.0983C104.475 61.0983 102.111 60.5533 100.293 59.2819L99.0207 64.1861C96.6572 72.1782 95.0209 75.0844 95.0209 75.0844C94.1118 77.264 93.021 79.2621 91.7483 81.2601C90.8392 82.5316 89.7484 83.803 88.2939 84.3479C87.7485 84.5296 87.2031 84.5296 86.6576 84.5296C86.1122 84.5296 85.5668 84.3479 85.0213 83.9847C84.1123 83.2581 83.2032 82.1683 82.6578 81.0784C81.9306 79.807 81.3851 78.5355 80.8397 77.2641C79.7488 74.5395 77.9307 67.8189 77.9307 67.8189L76.1127 60.735L74.2945 53.6511L73.0219 48.9285C69.7493 36.7588 65.0223 30.7647 65.0223 30.7647C61.3861 25.4972 56.1136 21.6828 50.1138 19.5032C43.2051 16.9602 35.9327 18.4133 35.9327 18.4133C24.4787 20.593 18.4789 28.4034 15.9336 32.2178C17.2063 32.5811 18.2971 32.9444 19.388 33.6709C20.8425 34.5791 22.1151 35.6689 23.0242 36.9404C24.6605 39.3017 25.2059 42.3895 25.3877 45.2958C26.1149 51.6531 27.3876 57.8288 29.0239 64.0045C32.8419 51.1082 37.569 45.1141 37.569 45.1141C38.1144 44.3876 38.6598 43.8427 39.3871 43.4794C39.7507 43.2977 40.1143 43.1161 40.6597 43.1161C41.387 43.1161 42.296 43.2977 42.8415 43.661C43.0233 43.661 43.0233 43.8427 43.2051 43.8427C43.7505 44.3876 44.2959 44.9325 44.8414 45.659C45.7504 47.4754 46.6595 49.1102 47.3867 51.1082C48.8412 55.1042 50.1138 60.1901 50.1138 60.1901L53.75 74.7211C56.4772 84.7112 58.6589 89.4338 58.6589 89.4338C64.295 102.33 72.8401 105.963 72.8401 105.963C77.0217 108.143 81.7487 109.414 86.4758 109.596C91.0211 109.777 95.5663 108.869 99.5661 106.871C103.93 104.691 107.929 101.422 111.02 97.6075C113.02 95.2462 116.111 89.4338 116.111 89.4338C119.565 82.7132 122.111 75.6293 123.929 68.3638C125.201 63.8228 126.11 59.2819 126.838 54.5593C127.201 52.198 127.565 50.0183 127.747 47.6571C128.11 45.4774 128.11 43.2977 127.565 41.1181C127.383 40.7548 127.383 40.3915 127.201 40.0283C126.11 37.3037 124.11 35.124 121.565 33.6709C119.747 32.3995 117.565 31.8545 115.384 31.8545Z" fill="url(#paint34_linear_5027_116524)"/>
<defs>
<linearGradient id="paint0_linear_5027_116524" x1="5.75221" y1="73.3984" x2="99.5629" y2="35.4601" gradientUnits="userSpaceOnUse">
<stop offset="0.13" stop-color="#1CBBF3"/>
<stop offset="0.34" stop-color="#1F99A5"/>
<stop offset="0.45" stop-color="#209CA6"/>
<stop offset="0.51" stop-color="#24A4AA"/>
<stop offset="0.57" stop-color="#2BB3B0"/>
<stop offset="0.6" stop-color="#30BDB4"/>
<stop offset="0.79" stop-color="#38BA90"/>
<stop offset="1" stop-color="#60F05A"/>
</linearGradient>
<radialGradient id="paint1_radial_5027_116524" cx="0" cy="0" r="1" gradientTransform="matrix(12.8512 59.4396 -35.2968 12.8512 -13.1148 97.6161)" gradientUnits="userSpaceOnUse">
<stop stop-color="#227B60"/>
<stop offset="0.14" stop-color="#227B60" stop-opacity="0.81"/>
<stop offset="0.58" stop-color="#227B60" stop-opacity="0.23"/>
<stop offset="0.78" stop-color="#227B60" stop-opacity="0"/>
</radialGradient>
<radialGradient id="paint2_radial_5027_116524" cx="0" cy="0" r="1" gradientTransform="matrix(-0.643006 41.7391 -24.7858 -0.643007 -27.7374 96.3671)" gradientUnits="userSpaceOnUse">
<stop stop-color="#227B60"/>
<stop offset="0.25" stop-color="#227B60" stop-opacity="0.7"/>
<stop offset="0.71" stop-color="#227B60" stop-opacity="0.2"/>
<stop offset="0.92" stop-color="#227B60" stop-opacity="0"/>
</radialGradient>
<radialGradient id="paint3_radial_5027_116524" cx="0" cy="0" r="1" gradientTransform="matrix(0.732298 38.9042 -23.1023 0.732298 -26.0904 96.4144)" gradientUnits="userSpaceOnUse">
<stop stop-color="#227B60"/>
<stop offset="0.07" stop-color="#227B60" stop-opacity="0.9"/>
<stop offset="0.34" stop-color="#227B60" stop-opacity="0.51"/>
<stop offset="0.59" stop-color="#227B60" stop-opacity="0.23"/>
<stop offset="0.79" stop-color="#227B60" stop-opacity="0.06"/>
<stop offset="0.92" stop-color="#227B60" stop-opacity="0"/>
</radialGradient>
<radialGradient id="paint4_radial_5027_116524" cx="0" cy="0" r="1" gradientTransform="matrix(0.591283 31.4124 -18.6535 0.591283 -25.0477 96.8927)" gradientUnits="userSpaceOnUse">
<stop stop-color="#227B60"/>
<stop offset="0.36" stop-color="#227B60" stop-opacity="0.63"/>
<stop offset="0.92" stop-color="#227B60" stop-opacity="0"/>
</radialGradient>
<radialGradient id="paint5_radial_5027_116524" cx="0" cy="0" r="1" gradientTransform="matrix(0.471683 25.0532 -14.8772 0.471683 -26.0557 97.9725)" gradientUnits="userSpaceOnUse">
<stop stop-color="#20735A"/>
<stop offset="0.15" stop-color="#20745A" stop-opacity="0.93"/>
<stop offset="0.38" stop-color="#21755C" stop-opacity="0.74"/>
<stop offset="0.67" stop-color="#21785D" stop-opacity="0.43"/>
<stop offset="1" stop-color="#227B60" stop-opacity="0"/>
</radialGradient>
<radialGradient id="paint6_radial_5027_116524" cx="0" cy="0" r="1" gradientTransform="matrix(28.4193 16.2738 -9.66381 28.4193 45.5379 86.8279)" gradientUnits="userSpaceOnUse">
<stop stop-color="#227A61"/>
<stop offset="0.36" stop-color="#227A61" stop-opacity="0.56"/>
<stop offset="0.72" stop-color="#227A61" stop-opacity="0.16"/>
<stop offset="0.9" stop-color="#227A61" stop-opacity="0"/>
</radialGradient>
<radialGradient id="paint7_radial_5027_116524" cx="0" cy="0" r="1" gradientTransform="matrix(33.8185 31.0568 -18.4423 33.8186 49.7729 49.7495)" gradientUnits="userSpaceOnUse">
<stop stop-color="#3CD9C3"/>
<stop offset="0.07" stop-color="#3BD7C1" stop-opacity="0.9"/>
<stop offset="0.41" stop-color="#38CEB9" stop-opacity="0.42"/>
<stop offset="0.65" stop-color="#36C8B4" stop-opacity="0.12"/>
<stop offset="0.76" stop-color="#35C6B2" stop-opacity="0"/>
</radialGradient>
<radialGradient id="paint8_radial_5027_116524" cx="0" cy="0" r="1" gradientTransform="matrix(6008.2 5517.54 -3276.46 6008.2 -1798.83 -114567)" gradientUnits="userSpaceOnUse">
<stop stop-color="#3CD9C3"/>
<stop offset="0.07" stop-color="#3BD7C1" stop-opacity="0.9"/>
<stop offset="0.41" stop-color="#38CEB9" stop-opacity="0.42"/>
<stop offset="0.65" stop-color="#36C8B4" stop-opacity="0.12"/>
<stop offset="0.76" stop-color="#35C6B2" stop-opacity="0"/>
</radialGradient>
<radialGradient id="paint9_radial_5027_116524" cx="0" cy="0" r="1" gradientTransform="matrix(-6.95347 46.5657 -27.652 -6.95347 -48.1762 95.0836)" gradientUnits="userSpaceOnUse">
<stop stop-color="#237F66" stop-opacity="0.8"/>
<stop offset="0.06" stop-color="#2C8C70" stop-opacity="0.65"/>
<stop offset="0.21" stop-color="#3DA785" stop-opacity="0.37"/>
<stop offset="0.35" stop-color="#4ABA93" stop-opacity="0.17"/>
<stop offset="0.47" stop-color="#51C59C" stop-opacity="0.04"/>
<stop offset="0.56" stop-color="#54C99F" stop-opacity="0"/>
</radialGradient>
<radialGradient id="paint10_radial_5027_116524" cx="0" cy="0" r="1" gradientTransform="matrix(30.1594 -48.0455 28.5307 30.1594 62.0463 -3.18655)" gradientUnits="userSpaceOnUse">
<stop stop-color="#167C8A"/>
<stop offset="0.04" stop-color="#167C8A" stop-opacity="0.93"/>
<stop offset="0.33" stop-color="#177F8D" stop-opacity="0.43"/>
<stop offset="0.54" stop-color="#17818F" stop-opacity="0.12"/>
<stop offset="0.65" stop-color="#178290" stop-opacity="0"/>
</radialGradient>
<radialGradient id="paint11_radial_5027_116524" cx="0" cy="0" r="1" gradientTransform="matrix(39.6403 -31.7366 18.846 39.6403 64.0282 29.923)" gradientUnits="userSpaceOnUse">
<stop offset="0.05" stop-color="#177D87"/>
<stop offset="0.11" stop-color="#177E89" stop-opacity="0.8"/>
<stop offset="0.21" stop-color="#177F8B" stop-opacity="0.52"/>
<stop offset="0.32" stop-color="#17818D" stop-opacity="0.29"/>
<stop offset="0.42" stop-color="#17818F" stop-opacity="0.13"/>
<stop offset="0.51" stop-color="#178290" stop-opacity="0.03"/>
<stop offset="0.6" stop-color="#178290" stop-opacity="0"/>
</radialGradient>
<radialGradient id="paint12_radial_5027_116524" cx="0" cy="0" r="1" gradientTransform="matrix(-18.0345 -27.3774 16.2574 -18.0345 3.74029 -57.8483)" gradientUnits="userSpaceOnUse">
<stop offset="0.26" stop-color="#177F8A"/>
<stop offset="0.27" stop-color="#177F8A" stop-opacity="0.98"/>
<stop offset="0.38" stop-color="#17808C" stop-opacity="0.68"/>
<stop offset="0.5" stop-color="#17818D" stop-opacity="0.43"/>
<stop offset="0.62" stop-color="#17818F" stop-opacity="0.24"/>
<stop offset="0.74" stop-color="#17828F" stop-opacity="0.11"/>
<stop offset="0.86" stop-color="#178290" stop-opacity="0.03"/>
<stop offset="1" stop-color="#178290" stop-opacity="0"/>
</radialGradient>
<radialGradient id="paint13_radial_5027_116524" cx="0" cy="0" r="1" gradientTransform="matrix(-25.8391 -4.05378 2.40724 -25.8391 -30.9125 -48.2582)" gradientUnits="userSpaceOnUse">
<stop stop-color="#13656E"/>
<stop offset="0.11" stop-color="#13646E" stop-opacity="0.73"/>
<stop offset="0.27" stop-color="#12646E" stop-opacity="0.41"/>
<stop offset="0.42" stop-color="#12636E" stop-opacity="0.18"/>
<stop offset="0.55" stop-color="#12636E" stop-opacity="0.05"/>
<stop offset="0.66" stop-color="#12636E" stop-opacity="0"/>
</radialGradient>
<radialGradient id="paint14_radial_5027_116524" cx="0" cy="0" r="1" gradientTransform="matrix(-8.91316 -20.6045 12.2355 -8.91316 26.0046 -54.8788)" gradientUnits="userSpaceOnUse">
<stop offset="0.13" stop-color="#146A73"/>
<stop offset="0.24" stop-color="#156F79" stop-opacity="0.79"/>
<stop offset="0.45" stop-color="#167783" stop-opacity="0.45"/>
<stop offset="0.65" stop-color="#167D8A" stop-opacity="0.2"/>
<stop offset="0.82" stop-color="#17818E" stop-opacity="0.05"/>
<stop offset="0.95" stop-color="#178290" stop-opacity="0"/>
</radialGradient>
<radialGradient id="paint15_radial_5027_116524" cx="0" cy="0" r="1" gradientTransform="matrix(9.57649 -18.4282 10.9431 9.5765 55.015 14.0981)" gradientUnits="userSpaceOnUse">
<stop stop-color="#198E9C"/>
<stop offset="0.1" stop-color="#198E9C" stop-opacity="0.87"/>
<stop offset="0.41" stop-color="#198E9C" stop-opacity="0.5"/>
<stop offset="0.67" stop-color="#198E9C" stop-opacity="0.23"/>
<stop offset="0.88" stop-color="#198E9C" stop-opacity="0.06"/>
<stop offset="1" stop-color="#198E9C" stop-opacity="0"/>
</radialGradient>
<linearGradient id="paint16_linear_5027_116524" x1="12.1516" y1="35.4256" x2="47.8213" y2="68.4507" gradientUnits="userSpaceOnUse">
<stop offset="0.13" stop-color="#2BF9FF"/>
<stop offset="0.27" stop-color="#29F9FF" stop-opacity="0.64"/>
<stop offset="0.4" stop-color="#27FAFF" stop-opacity="0.3"/>
<stop offset="0.49" stop-color="#26FAFF" stop-opacity="0.08"/>
<stop offset="0.54" stop-color="#26FAFF" stop-opacity="0"/>
</linearGradient>
<linearGradient id="paint17_linear_5027_116524" x1="-12.7002" y1="74.8092" x2="37.0246" y2="60.7048" gradientUnits="userSpaceOnUse">
<stop stop-color="#26FAFF"/>
<stop offset="0.06" stop-color="#26FAFF" stop-opacity="0.88"/>
<stop offset="0.24" stop-color="#26FAFF" stop-opacity="0.51"/>
<stop offset="0.39" stop-color="#26FAFF" stop-opacity="0.23"/>
<stop offset="0.5" stop-color="#26FAFF" stop-opacity="0.06"/>
<stop offset="0.55" stop-color="#26FAFF" stop-opacity="0"/>
</linearGradient>
<linearGradient id="paint18_linear_5027_116524" x1="0.884746" y1="73.7508" x2="56.0223" y2="54.0873" gradientUnits="userSpaceOnUse">
<stop stop-color="#21DEFF"/>
<stop offset="0.04" stop-color="#21DEFF" stop-opacity="0.88"/>
<stop offset="0.17" stop-color="#21DEFF" stop-opacity="0.51"/>
<stop offset="0.27" stop-color="#21DEFF" stop-opacity="0.23"/>
<stop offset="0.34" stop-color="#21DEFF" stop-opacity="0.06"/>
<stop offset="0.38" stop-color="#21DEFF" stop-opacity="0"/>
</linearGradient>
<linearGradient id="paint19_linear_5027_116524" x1="55.7951" y1="56.0406" x2="78.5733" y2="93.2108" gradientUnits="userSpaceOnUse">
<stop offset="0.62" stop-color="#21DEFF" stop-opacity="0"/>
<stop offset="0.66" stop-color="#21DEFF" stop-opacity="0.06"/>
<stop offset="0.73" stop-color="#21DEFF" stop-opacity="0.23"/>
<stop offset="0.83" stop-color="#21DEFF" stop-opacity="0.51"/>
<stop offset="0.96" stop-color="#21DEFF" stop-opacity="0.88"/>
<stop offset="1" stop-color="#21DEFF"/>
</linearGradient>
<linearGradient id="paint20_linear_5027_116524" x1="91.6826" y1="70.4797" x2="86.6112" y2="45.6278" gradientUnits="userSpaceOnUse">
<stop stop-color="#44B044"/>
<stop offset="0.11" stop-color="#44B044" stop-opacity="0.8"/>
<stop offset="0.27" stop-color="#44B044" stop-opacity="0.52"/>
<stop offset="0.43" stop-color="#44B044" stop-opacity="0.29"/>
<stop offset="0.58" stop-color="#44B044" stop-opacity="0.13"/>
<stop offset="0.7" stop-color="#44B044" stop-opacity="0.03"/>
<stop offset="0.8" stop-color="#44B044" stop-opacity="0"/>
</linearGradient>
<linearGradient id="paint21_linear_5027_116524" x1="20.8197" y1="51.0061" x2="124.506" y2="85.2996" gradientUnits="userSpaceOnUse">
<stop stop-color="#3066FB"/>
<stop offset="0.38" stop-color="#2F64F7"/>
<stop offset="0.74" stop-color="#2857D9"/>
<stop offset="1" stop-color="#3C7EFF"/>
</linearGradient>
<radialGradient id="paint22_radial_5027_116524" cx="0" cy="0" r="1" gradientTransform="matrix(-8.66106 69.2476 -46.2827 -8.66106 -46.2675 106.882)" gradientUnits="userSpaceOnUse">
<stop stop-color="#1A3D9C"/>
<stop offset="0.4" stop-color="#1A3D9C" stop-opacity="0.42"/>
<stop offset="0.7" stop-color="#1A3D9C" stop-opacity="0"/>
</radialGradient>
<radialGradient id="paint23_radial_5027_116524" cx="0" cy="0" r="1" gradientTransform="matrix(-1065.48 8518.87 -5693.71 -1065.48 68245.9 47710.9)" gradientUnits="userSpaceOnUse">
<stop stop-color="#1A3D9C"/>
<stop offset="0.4" stop-color="#1A3D9C" stop-opacity="0.42"/>
<stop offset="0.7" stop-color="#1A3D9C" stop-opacity="0"/>
</radialGradient>
<radialGradient id="paint24_radial_5027_116524" cx="0" cy="0" r="1" gradientTransform="matrix(-1258.15 10147.5 -6782.25 -1258.15 69931.7 43610.8)" gradientUnits="userSpaceOnUse">
<stop stop-color="#1A3D9C"/>
<stop offset="0.4" stop-color="#1A3D9C" stop-opacity="0.42"/>
<stop offset="0.7" stop-color="#1A3D9C" stop-opacity="0"/>
</radialGradient>
<radialGradient id="paint25_radial_5027_116524" cx="0" cy="0" r="1" gradientTransform="matrix(6.02936 60.786 -40.6272 6.02936 -23.9995 111.549)" gradientUnits="userSpaceOnUse">
<stop stop-color="#1A3D9C"/>
<stop offset="0.16" stop-color="#1A3D9C" stop-opacity="0.69"/>
<stop offset="0.33" stop-color="#1A3D9C" stop-opacity="0.4"/>
<stop offset="0.49" stop-color="#1A3D9C" stop-opacity="0.18"/>
<stop offset="0.61" stop-color="#1A3D9C" stop-opacity="0.05"/>
<stop offset="0.7" stop-color="#1A3D9C" stop-opacity="0"/>
</radialGradient>
<radialGradient id="paint26_radial_5027_116524" cx="0" cy="0" r="1" gradientTransform="matrix(12.7551 56.743 -37.925 12.7551 -16.5261 125.616)" gradientUnits="userSpaceOnUse">
<stop stop-color="#18388F"/>
<stop offset="0.37" stop-color="#193B96" stop-opacity="0.45"/>
<stop offset="0.7" stop-color="#1A3D9C" stop-opacity="0"/>
</radialGradient>
<radialGradient id="paint27_radial_5027_116524" cx="0" cy="0" r="1" gradientTransform="matrix(5.93046 26.3829 -17.6334 5.93046 -27.6809 124.425)" gradientUnits="userSpaceOnUse">
<stop stop-color="#18388F"/>
<stop offset="0.09" stop-color="#183992" stop-opacity="0.78"/>
<stop offset="0.22" stop-color="#193B96" stop-opacity="0.5"/>
<stop offset="0.35" stop-color="#193C98" stop-opacity="0.28"/>
<stop offset="0.47" stop-color="#1A3C9A" stop-opacity="0.13"/>
<stop offset="0.59" stop-color="#1A3D9C" stop-opacity="0.03"/>
<stop offset="0.7" stop-color="#1A3D9C" stop-opacity="0"/>
</radialGradient>
<radialGradient id="paint28_radial_5027_116524" cx="0" cy="0" r="1" gradientTransform="matrix(5.93046 26.3829 -17.6334 5.93046 -30.5624 125.961)" gradientUnits="userSpaceOnUse">
<stop stop-color="#1A3D9C" stop-opacity="0.8"/>
<stop offset="0.01" stop-color="#1A3D9C" stop-opacity="0.78"/>
<stop offset="0.24" stop-color="#1A3D9C" stop-opacity="0.45"/>
<stop offset="0.44" stop-color="#1A3D9C" stop-opacity="0.2"/>
<stop offset="0.6" stop-color="#1A3D9C" stop-opacity="0.05"/>
<stop offset="0.7" stop-color="#1A3D9C" stop-opacity="0"/>
</radialGradient>
<radialGradient id="paint29_radial_5027_116524" cx="0" cy="0" r="1" gradientTransform="matrix(20.854 60.1164 -40.1797 20.854 -26.1301 73.7155)" gradientUnits="userSpaceOnUse">
<stop stop-color="#1A3D9C"/>
<stop offset="0.4" stop-color="#1A3D9C" stop-opacity="0.56"/>
<stop offset="0.48" stop-color="#1A3D9C" stop-opacity="0.43"/>
<stop offset="0.69" stop-color="#1A3D9C" stop-opacity="0.12"/>
<stop offset="0.79" stop-color="#1A3D9C" stop-opacity="0"/>
</radialGradient>
<radialGradient id="paint30_radial_5027_116524" cx="0" cy="0" r="1" gradientTransform="matrix(9.51884 47.0137 -31.4223 9.51884 -24.084 61.7358)" gradientUnits="userSpaceOnUse">
<stop stop-color="#1A3D9C"/>
<stop offset="0.06" stop-color="#1A3D9C" stop-opacity="0.88"/>
<stop offset="0.21" stop-color="#1A3D9C" stop-opacity="0.61"/>
<stop offset="0.36" stop-color="#1A3D9C" stop-opacity="0.39"/>
<stop offset="0.51" stop-color="#1A3D9C" stop-opacity="0.22"/>
<stop offset="0.67" stop-color="#1A3D9C" stop-opacity="0.1"/>
<stop offset="0.83" stop-color="#1A3D9C" stop-opacity="0.02"/>
<stop offset="1" stop-color="#1A3D9C" stop-opacity="0"/>
</radialGradient>
<radialGradient id="paint31_radial_5027_116524" cx="0" cy="0" r="1" gradientTransform="matrix(9.51884 47.0137 -31.4223 9.51884 -24.084 61.7358)" gradientUnits="userSpaceOnUse">
<stop stop-color="#1B3E9E"/>
<stop offset="0.06" stop-color="#1B3E9E" stop-opacity="0.87"/>
<stop offset="0.21" stop-color="#1B3E9D" stop-opacity="0.61"/>
<stop offset="0.36" stop-color="#1A3D9D" stop-opacity="0.39"/>
<stop offset="0.52" stop-color="#1A3D9C" stop-opacity="0.22"/>
<stop offset="0.67" stop-color="#1A3D9C" stop-opacity="0.1"/>
<stop offset="0.83" stop-color="#1A3D9C" stop-opacity="0.02"/>
<stop offset="1" stop-color="#1A3D9C" stop-opacity="0"/>
</radialGradient>
<radialGradient id="paint32_radial_5027_116524" cx="0" cy="0" r="1" gradientTransform="matrix(7.28222 35.9674 -24.0394 7.28221 -20.7179 62.2758)" gradientUnits="userSpaceOnUse">
<stop stop-color="#183991"/>
<stop offset="0.03" stop-color="#183992" stop-opacity="0.95"/>
<stop offset="0.18" stop-color="#193A95" stop-opacity="0.66"/>
<stop offset="0.34" stop-color="#193B97" stop-opacity="0.42"/>
<stop offset="0.5" stop-color="#1A3C99" stop-opacity="0.24"/>
<stop offset="0.66" stop-color="#1A3D9B" stop-opacity="0.1"/>
<stop offset="0.82" stop-color="#1A3D9C" stop-opacity="0.03"/>
<stop offset="1" stop-color="#1A3D9C" stop-opacity="0"/>
</radialGradient>
<radialGradient id="paint33_radial_5027_116524" cx="0" cy="0" r="1" gradientTransform="matrix(1.19649 29.2419 -19.5443 1.19649 -29.5239 62.0802)" gradientUnits="userSpaceOnUse">
<stop offset="0.04" stop-color="#2453D6" stop-opacity="0.6"/>
<stop offset="0.2" stop-color="#2453D6" stop-opacity="0.49"/>
<stop offset="0.52" stop-color="#2453D6" stop-opacity="0.2"/>
<stop offset="0.73" stop-color="#2453D6" stop-opacity="0"/>
</radialGradient>
<linearGradient id="paint34_linear_5027_116524" x1="90.4369" y1="21.7943" x2="71.0758" y2="69.6064" gradientUnits="userSpaceOnUse">
<stop stop-color="#3774FF"/>
<stop offset="0.05" stop-color="#3774FF" stop-opacity="0.91"/>
<stop offset="0.16" stop-color="#3774FF" stop-opacity="0.66"/>
<stop offset="0.32" stop-color="#3774FF" stop-opacity="0.28"/>
<stop offset="0.43" stop-color="#3774FF" stop-opacity="0"/>
</linearGradient>
</defs>
</svg>
