<svg width="128" height="128" viewBox="0 0 128 128" fill="none" xmlns="http://www.w3.org/2000/svg">
<rect width="128" height="128" rx="24" fill="url(#paint0_linear_5027_123924)"/>
<path d="M78.9491 44V44.03C77.9478 44.1894 77.0385 44.7049 76.3896 45.4812C75.7406 46.2574 75.396 47.2417 75.4196 48.2517C75.3957 49.2617 75.7401 50.2462 76.3891 51.0225C77.0381 51.7988 77.9477 52.3143 78.9491 52.4733V52.5H105.972V44H78.9491Z" fill="url(#paint1_linear_5027_123924)"/>
<path d="M105.972 52.51C108.197 52.51 110 50.605 110 48.255C110 45.905 108.197 44 105.972 44C103.747 44 101.944 45.905 101.944 48.255C101.944 50.605 103.747 52.51 105.972 52.51Z" fill="#FFD200"/>
<path d="M105.972 52.51C108.197 52.51 110 50.605 110 48.255C110 45.905 108.197 44 105.972 44C103.747 44 101.944 45.905 101.944 48.255C101.944 50.605 103.747 52.51 105.972 52.51Z" fill="#FFD200"/>
<path d="M29.4214 84.0017H23.0985L26.4991 75.5017L18 56.335H24.3179L29.4916 68.0017L34.1485 56.335H40.4313L29.4214 84.0017ZM101.014 64.4517V75.26H95.0241V65.465C95.0241 62.7733 93.7311 61.485 91.7355 61.485C91.0886 61.5399 90.4618 61.7362 89.8997 62.06C89.3377 62.3838 88.8542 62.8271 88.4837 63.3583V75.26H82.4619V56.335H88.4837V57.5833C89.8444 56.4007 91.5892 55.7494 93.3948 55.75C97.9062 55.7483 101.009 59.065 101.009 64.4517H101.014ZM108.894 75.26H102.904V56.335H108.889L108.894 75.26ZM53.1875 56.335V57.3483C51.7389 56.3741 50.0238 55.8689 48.2764 55.9017C43.4355 55.9017 39.3674 60.115 39.3674 65.775C39.3674 71.3933 43.4321 75.6467 48.2764 75.6467C50.0243 75.6829 51.7403 75.1774 53.1875 74.2V75.2533H59.1742V56.335H53.1875ZM49.6463 70.5683C48.409 70.5291 47.2376 70.0034 46.3882 69.1062C45.5387 68.2089 45.0803 67.013 45.1132 65.78C45.0757 65.1638 45.165 64.5464 45.3758 63.9659C45.5866 63.3854 45.9144 62.854 46.3391 62.4044C46.7637 61.9548 47.2762 61.5966 47.8449 61.3517C48.4137 61.1068 49.0267 60.9805 49.6463 60.9805C50.2659 60.9805 50.879 61.1068 51.4477 61.3517C52.0165 61.5966 52.529 61.9548 52.9536 62.4044C53.3782 62.854 53.706 63.3854 53.9168 63.9659C54.1276 64.5464 54.217 65.1638 54.1794 65.78C54.2141 67.0122 53.7569 68.2078 52.908 69.1045C52.0591 70.0012 50.8879 70.5259 49.6513 70.5633L49.6463 70.5683ZM74.2572 56.335V57.3483C72.8104 56.3754 71.0979 55.8703 69.3527 55.9017C64.5119 55.9017 60.4438 60.115 60.4438 65.775C60.4438 71.3933 64.5085 75.6467 69.3527 75.6467C71.1006 75.6829 72.8167 75.1774 74.2639 74.2V75.2533H80.2505V56.335H74.2572ZM70.716 70.5683C69.4787 70.5291 68.3073 70.0034 67.4578 69.1062C66.6084 68.2089 66.15 67.013 66.1829 65.78C66.1453 65.1638 66.2347 64.5464 66.4455 63.9659C66.6563 63.3854 66.9841 62.854 67.4087 62.4044C67.8334 61.9548 68.3458 61.5966 68.9146 61.3517C69.4834 61.1068 70.0964 60.9805 70.716 60.9805C71.3356 60.9805 71.9486 61.1068 72.5174 61.3517C73.0862 61.5966 73.5986 61.9548 74.0233 62.4044C74.4479 62.854 74.7757 63.3854 74.9865 63.9659C75.1973 64.5464 75.2867 65.1638 75.2491 65.78C75.2842 67.0123 74.8271 68.2081 73.9782 69.105C73.1292 70.0018 71.9578 70.5263 70.721 70.5633L70.716 70.5683Z" fill="#0B3254"/>
<defs>
<linearGradient id="paint0_linear_5027_123924" x1="64" y1="0" x2="64" y2="128" gradientUnits="userSpaceOnUse">
<stop stop-color="white"/>
<stop offset="1" stop-color="#EEEEEE"/>
</linearGradient>
<linearGradient id="paint1_linear_5027_123924" x1="75.4276" y1="48.2484" x2="116.612" y2="48.2484" gradientUnits="userSpaceOnUse">
<stop offset="0.09" stop-color="white" stop-opacity="0"/>
<stop offset="0.19" stop-color="#FFF8DA" stop-opacity="0.15"/>
<stop offset="0.4" stop-color="#FFEB8D" stop-opacity="0.45"/>
<stop offset="0.59" stop-color="#FFE051" stop-opacity="0.68"/>
<stop offset="0.76" stop-color="#FFD925" stop-opacity="0.86"/>
<stop offset="0.88" stop-color="#FFD40A" stop-opacity="0.96"/>
<stop offset="0.95" stop-color="#FFD200"/>
</linearGradient>
</defs>
</svg>
