<svg width="128" height="128" viewBox="0 0 128 128" fill="none" xmlns="http://www.w3.org/2000/svg">
<rect width="128" height="128" rx="24" fill="url(#paint0_linear_5027_119780)"/>
<path d="M90.5749 54.7122C92.0107 54.7122 93.4143 54.2865 94.6081 53.4888C95.8019 52.6911 96.7324 51.5573 97.2819 50.2308C97.8313 48.9043 97.9751 47.4447 97.695 46.0365C97.4149 44.6283 96.7235 43.3347 95.7082 42.3195C94.6929 41.3042 93.3994 40.6128 91.9912 40.3327C90.583 40.0526 89.1234 40.1964 87.7969 40.7458C86.4704 41.2953 85.3366 42.2257 84.5389 43.4196C83.7412 44.6134 83.3154 46.0169 83.3154 47.4527C83.3154 49.3781 84.0803 51.2246 85.4417 52.586C86.8031 53.9474 88.6496 54.7122 90.5749 54.7122ZM81.34 47.4527C81.34 45.6262 81.8816 43.8407 82.8964 42.3221C83.9111 40.8034 85.3534 39.6197 87.0409 38.9208C88.7284 38.2218 90.5852 38.0389 92.3766 38.3952C94.168 38.7516 95.8135 39.6311 97.105 40.9226C98.3966 42.2142 99.2761 43.8597 99.6325 45.6511C99.9888 47.4425 99.8059 49.2993 99.1069 50.9868C98.408 52.6743 97.2243 54.1166 95.7056 55.1313C94.1869 56.1461 92.4015 56.6877 90.5749 56.6877C88.1257 56.6877 85.7767 55.7147 84.0448 53.9828C82.313 52.2509 81.34 49.902 81.34 47.4527ZM68.4824 47.4527C69.6276 47.3077 71.5296 46.0022 72.2043 45.1671C71.9686 46.2016 71.9504 49.1934 72.2262 50.225C71.4628 49.0464 69.6496 47.5949 68.4863 47.4499M61.8442 37.6767C63.2948 37.6767 64.438 39.1082 64.438 40.742C64.438 42.3758 63.2929 43.8072 61.8442 43.8072H56.8569V37.6767H61.8442ZM61.8261 51.2986C63.2776 51.2986 64.4199 52.7301 64.4199 54.3639C64.4199 55.9977 63.2747 57.4292 61.8261 57.4292H56.8331V51.2986H61.8213H61.8261ZM90.5692 66.0591C100.732 66.0591 109.003 57.6105 109 47.4499C109 37.0707 100.731 29.0076 90.5692 29C80.4076 28.9924 75.2304 36.4609 73.9488 39.4784C73.9602 34.9502 69.4978 29.606 64.2777 29.6003H47.4597V65.8759L63.1402 65.8816C69.4625 65.8816 73.9612 60.4038 73.9688 55.7066C75.4127 58.665 80.4181 66.0629 90.574 66.0591M45.4127 65.8892H35.5517V51.8102H29.1578V65.8892H19.042L19 29.6031H29.1578V43.101H35.5517V29.6031H45.4079V65.8892H45.4127Z" fill="white"/>
<path d="M38.6285 95.8087L21.4984 72.5156L19 72.5185V98.8806H20.8466V74.7964L38.4853 98.8806H40.4751V72.5185H38.6285V95.8087Z" fill="white"/>
<path d="M73.6785 72.737L73.6078 72.5156H71.6562L80.0295 98.8778H82.1003L88.855 76.7022L95.6106 98.8778H97.6405L106.055 72.5156H104.14L96.7281 95.8268L89.5726 72.7399L89.5039 72.5156H88.1669L81.0935 95.822L73.6785 72.737Z" fill="white"/>
<path d="M57.7459 72.0312C50.1056 72.0312 44.1211 77.7887 44.1211 85.4681C44.1211 93.2601 49.9787 99.3658 57.7459 99.3658C65.5131 99.3658 71.3707 93.2582 71.3707 85.4681C71.3707 77.678 65.5169 72.0312 57.7459 72.0312ZM57.7459 97.8084C51.0323 97.8084 46.0383 92.2733 46.0383 85.4681C46.0383 78.6771 51.0313 73.5887 57.7459 73.5887C64.4605 73.5887 69.4526 78.6771 69.4526 85.4681C69.4526 92.2743 64.4596 97.8084 57.7459 97.8084Z" fill="white"/>
<defs>
<linearGradient id="paint0_linear_5027_119780" x1="64" y1="0" x2="64" y2="128" gradientUnits="userSpaceOnUse">
<stop stop-color="#484848"/>
<stop offset="1"/>
</linearGradient>
</defs>
</svg>
