<svg width="128" height="128" viewBox="0 0 128 128" fill="none" xmlns="http://www.w3.org/2000/svg">
<rect width="128" height="128" rx="24" fill="url(#paint0_linear_5027_124096)"/>
<path d="M122.88 0H5.12C2.2923 0 0 2.2923 0 5.12V122.88C0 125.708 2.2923 128 5.12 128H122.88C125.708 128 128 125.708 128 122.88V5.12C128 2.2923 125.708 0 122.88 0Z" fill="#CB202D"/>
<path fill-rule="evenodd" clip-rule="evenodd" d="M25.3541 72.3408V69.5274H16.1493L25.3541 59.1247V56.7656H12.0488L12.0488 59.5795H20.9382L11.7334 69.9822V72.3408H25.3541ZM35.459 72.6818C40.2781 72.6818 43.8336 69.0158 43.8336 64.5819V64.525C43.8336 60.0625 40.3065 56.453 35.5178 56.453C30.7006 56.453 27.144 60.148 27.144 64.5819V64.6387C27.144 69.0726 30.6703 72.6818 35.459 72.6818ZM35.5178 69.6979C32.6498 69.6979 30.5851 67.3672 30.5851 64.5819V64.525C30.5851 61.7679 32.5059 59.4372 35.459 59.4372C38.327 59.4372 40.3917 61.7964 40.3917 64.5819V64.6387C40.3917 67.3956 38.4709 69.6979 35.5178 69.6979ZM46.8853 72.3408H50.3252V63.5586C50.3252 61.1142 51.7592 59.5795 53.824 59.5795C55.8887 59.5795 57.0935 60.9437 57.0935 63.4165V72.3408H60.5619V63.5302C60.5619 60.9722 62.0242 59.5795 64.0321 59.5795C66.0969 59.5795 67.3301 60.9437 67.3301 63.4734V72.3408H70.7719V62.4501C70.7719 58.6415 68.6769 56.453 65.2369 56.453C62.799 56.453 61.1642 57.5613 59.9026 59.2099C59.0711 57.5613 57.4666 56.453 55.1727 56.453C52.7347 56.453 51.3576 57.7604 50.3252 59.1815V56.7656H46.8853V72.3408ZM80.016 70.1527C78.2676 70.1527 76.862 69.2715 76.862 67.7084V67.6515C76.862 66.003 78.2676 64.9797 80.6468 64.9797C82.1375 64.9797 83.401 65.264 84.3463 65.6052V66.7419C84.3463 68.7601 82.4823 70.1527 80.016 70.1527ZM79.0991 72.6533C81.5371 72.6533 83.2002 71.6304 84.261 70.3516V72.3408H87.6158V63.0754C87.6158 61.029 87.0986 59.4088 85.9526 58.3005C84.8331 57.192 83.0847 56.5667 80.7623 56.5667C78.2676 56.5667 76.576 57.0783 74.8541 57.8457L75.7728 60.5174C77.2068 59.9205 78.5252 59.5511 80.3039 59.5511C82.8839 59.5511 84.2894 60.7733 84.2894 63.047V63.4449C83.0563 63.047 81.7663 62.7912 79.9875 62.7912C76.146 62.7912 73.4789 64.4398 73.4789 67.7936V67.8504C73.4789 70.9769 76.146 72.6533 79.0991 72.6533ZM96.4601 72.5965C97.7785 72.5965 98.754 72.3124 99.6425 71.8293V69.0158C98.9264 69.3569 98.2085 69.5558 97.4053 69.5558C96.1438 69.5558 95.3993 68.959 95.3993 67.5379V59.7216H99.6993V56.7656H95.3993V52.4453H91.9574V56.7656H89.9211V59.7216H91.9574V68.0779C91.9574 71.46 93.8214 72.5965 96.4601 72.5965ZM117.737 64.5819V64.525C117.737 60.0625 114.21 56.453 109.421 56.453C104.604 56.453 101.049 60.148 101.049 64.5819V64.6387C101.049 69.0726 104.576 72.6818 109.364 72.6818C114.182 72.6818 117.737 69.0158 117.737 64.5819ZM109.421 69.6979C106.553 69.6979 104.489 67.3672 104.489 64.5819V64.525C104.489 61.7679 106.411 59.4372 109.364 59.4372C112.232 59.4372 114.295 61.7964 114.295 64.5819V64.6387C114.295 67.3956 112.374 69.6979 109.421 69.6979Z" fill="white"/>
<defs>
<linearGradient id="paint0_linear_5027_124096" x1="64" y1="0" x2="64" y2="128" gradientUnits="userSpaceOnUse">
<stop/>
<stop offset="1" stop-color="#3D3D3D"/>
</linearGradient>
</defs>
</svg>
