<svg width="128" height="128" viewBox="0 0 128 128" fill="none" xmlns="http://www.w3.org/2000/svg">
<g clip-path="url(#clip0_5027_119819)">
<path d="M42.696 32.3438L0.675781 59.1237L84.7162 59.2537L42.696 32.3438ZM114.918 61.0737L108.484 79.7938L101.918 61.0737L67.9081 61.2037V70.4338L77.3626 70.5637V95.2637L87.7364 95.3937V70.4338L93.2515 70.5637L102.969 95.2637L113.736 95.3937L127.262 61.0737H114.918ZM21.2919 73.2938L11.3121 73.1637V61.2037L0.675781 61.0737V95.3937L11.3121 95.2637V82.0037L21.2919 81.8737V95.3937L33.2414 95.2637V61.2037L21.2919 61.0737V73.2938ZM51.8879 83.0438L57.4031 82.9137V85.2537C57.228 85.3404 57.031 85.4487 56.8121 85.5788C56.5933 85.7087 56.3307 85.7954 56.0243 85.8387C55.7179 85.8821 55.3458 85.9471 54.9081 86.0337C54.4704 86.1204 54.0327 86.1204 53.595 86.0337C52.5445 86.1204 51.5596 85.9688 50.6404 85.5788C49.7212 85.1887 48.9334 84.6904 48.2768 84.0837C47.6202 83.4771 47.095 82.6971 46.701 81.7437C46.3071 80.7904 46.1101 79.7504 46.1101 78.6237V78.3638C46.1101 77.3237 46.2633 76.3271 46.5697 75.3737C46.8761 74.4204 47.3576 73.6404 48.0142 73.0337C48.6707 72.4271 49.4367 71.9288 50.3121 71.5387C51.1876 71.1487 52.1505 70.9971 53.201 71.0837C53.9014 70.9971 54.5798 71.0187 55.2364 71.1488C55.893 71.2788 56.5276 71.4304 57.1404 71.6037C57.7532 71.7771 58.3441 72.0371 58.9132 72.3838C59.4822 72.7304 60.0293 73.1204 60.5546 73.5537L66.7263 66.1437C65.8509 65.2771 64.8879 64.5621 63.8374 63.9987C62.7869 63.4354 61.6707 62.9154 60.4889 62.4387C59.3071 61.9621 58.0596 61.6371 56.7465 61.4637C55.4333 61.2904 54.0765 61.1604 52.6758 61.0737C50.0495 61.1604 47.6202 61.6154 45.3879 62.4387C43.1556 63.2621 41.2297 64.4537 39.6101 66.0137C37.9906 67.5738 36.7212 69.3937 35.802 71.4737C34.8828 73.5538 34.4233 75.8504 34.4233 78.3638C34.4233 81.0504 34.9047 83.3904 35.8677 85.3837C36.8307 87.3771 38.1438 89.1321 39.8071 90.6488C41.4704 92.1654 43.4401 93.3137 45.7162 94.0938C47.9923 94.8738 50.3997 95.3071 52.9384 95.3937C54.5142 95.3071 55.9805 95.1771 57.3374 95.0037C58.6943 94.8304 60.0074 94.5054 61.2768 94.0287C62.5462 93.5521 63.728 93.0538 64.8222 92.5337C65.9165 92.0137 66.9451 91.3638 67.9081 90.5837V75.5037L51.8879 75.3737V83.0438Z" fill="#00A5BA"/>
</g>
<defs>
<clipPath id="clip0_5027_119819">
<rect width="128" height="64" fill="white" transform="translate(0 32)"/>
</clipPath>
</defs>
</svg>
