<svg width="128" height="128" viewBox="0 0 128 128" fill="none" xmlns="http://www.w3.org/2000/svg">
<path d="M94.7842 63.3236C94.7842 63.3236 94.7842 63.6968 95.8571 64.4432C102.672 69.9399 106.312 75.254 106.266 86.0629C106.219 99.5754 94.4577 109.36 81.157 109.36V128C104.351 128 125.401 111.504 125.401 87.9716C125.401 79.5379 123.114 71.2441 117.372 63.1856C117.654 62.8571 118.867 61.4129 119.895 59.5975C121.294 57.0805 121.574 54.0502 121.574 43.9411V0H62.1127V34.9923H43.1655V54.2368H81.4816V19.711H102.858V49.4845C102.858 49.4845 103.745 57.8249 94.7842 63.3236Z" fill="#00A29D"/>
<path d="M43.3501 0H37.797C27.7151 0.279892 17.1686 3.44811 10.1208 11.4639C2.69973 19.8509 2 27.3517 2 39.6999C2 48.087 2 127.953 2 127.953H62.3944V93.3323H81.5282V73.8545H43.1655V108.755H21.229V35.6007C21.229 35.6007 19.7809 19.711 38.9652 19.2912L43.3521 19.1046V0" fill="#0095B8"/>
</svg>
