<svg width="128" height="128" viewBox="0 0 128 128" fill="none" xmlns="http://www.w3.org/2000/svg">
<path fill-rule="evenodd" clip-rule="evenodd" d="M99.9902 31C99.3643 31 98.7384 31.3173 98.4254 31.7932L64.6259 80.6546C64.313 81.1306 63.8435 81.1306 63.3741 80.6546L29.4181 31.9518C29.1051 31.4759 28.3227 31.1586 27.8533 31.1586H0.938875C0.469438 31 0 31.4759 0 32.1105V95.7255C0 96.3601 0.469438 96.836 1.09535 96.836H23.1589C23.7848 96.836 24.2543 96.3601 24.2543 95.7255V53.2097C24.2543 52.5752 24.5672 52.5752 24.8802 53.0511L55.3936 95.8842C55.7066 96.3601 56.489 96.6774 56.9584 96.6774H71.198C71.824 96.6774 72.4499 96.3601 72.7628 95.8842L103.276 52.8925C103.589 52.4165 103.902 52.5752 103.902 53.0511V95.5669C103.902 96.2015 104.372 96.6774 104.998 96.6774H126.905C127.531 96.6774 128 96.2015 128 95.5669V32.1105C128 31.4759 127.531 31 126.905 31H99.9902Z" fill="#008880"/>
</svg>
