<svg width="128" height="128" viewBox="0 0 128 128" fill="none" xmlns="http://www.w3.org/2000/svg">
<path d="M45.7132 25.1789C50.7628 25.1789 54.8562 21.1094 54.8562 16.0895C54.8562 11.0695 50.7628 7 45.7132 7C40.6637 7 36.5703 11.0695 36.5703 16.0895C36.5703 21.1094 40.6637 25.1789 45.7132 25.1789Z" fill="#00A0F0"/>
<path d="M82.2875 25.1789C87.337 25.1789 91.4304 21.1094 91.4304 16.0895C91.4304 11.0695 87.337 7 82.2875 7C77.238 7 73.1445 11.0695 73.1445 16.0895C73.1445 21.1094 77.238 25.1789 82.2875 25.1789Z" fill="#00A0F0"/>
<path d="M27.4281 47.9055C32.4776 47.9055 36.571 43.836 36.571 38.816C36.571 33.7961 32.4776 29.7266 27.4281 29.7266C22.3786 29.7266 18.2852 33.7961 18.2852 38.816C18.2852 43.836 22.3786 47.9055 27.4281 47.9055Z" fill="#00A0F0"/>
<path d="M64.0023 47.9055C69.0518 47.9055 73.1453 43.836 73.1453 38.816C73.1453 33.7961 69.0518 29.7266 64.0023 29.7266C58.9528 29.7266 54.8594 33.7961 54.8594 38.816C54.8594 43.836 58.9528 47.9055 64.0023 47.9055Z" fill="#EEEEEE"/>
<path d="M100.573 47.9055C105.622 47.9055 109.716 43.836 109.716 38.816C109.716 33.7961 105.622 29.7266 100.573 29.7266C95.5231 29.7266 91.4297 33.7961 91.4297 38.816C91.4297 43.836 95.5231 47.9055 100.573 47.9055Z" fill="#00A0F0"/>
<path d="M27.4281 93.343C32.4776 93.343 36.571 89.2735 36.571 84.2535C36.571 79.2336 32.4776 75.1641 27.4281 75.1641C22.3786 75.1641 18.2852 79.2336 18.2852 84.2535C18.2852 89.2735 22.3786 93.343 27.4281 93.343Z" fill="#EEEEEE"/>
<path d="M64.0023 93.343C69.0518 93.343 73.1453 89.2735 73.1453 84.2535C73.1453 79.2336 69.0518 75.1641 64.0023 75.1641C58.9528 75.1641 54.8594 79.2336 54.8594 84.2535C54.8594 89.2735 58.9528 93.343 64.0023 93.343Z" fill="#EEEEEE"/>
<path d="M100.573 93.343C105.622 93.343 109.716 89.2735 109.716 84.2535C109.716 79.2336 105.622 75.1641 100.573 75.1641C95.5231 75.1641 91.4297 79.2336 91.4297 84.2535C91.4297 89.2735 95.5231 93.343 100.573 93.343Z" fill="#EEEEEE"/>
<path d="M64.0023 120.616C69.0518 120.616 73.1453 116.547 73.1453 111.527C73.1453 106.507 69.0518 102.438 64.0023 102.438C58.9528 102.438 54.8594 106.507 54.8594 111.527C54.8594 116.547 58.9528 120.616 64.0023 120.616Z" fill="#00A0F0"/>
<path d="M45.7132 70.6321C50.7628 70.6321 54.8562 66.5626 54.8562 61.5426C54.8562 56.5226 50.7628 52.4531 45.7132 52.4531C40.6637 52.4531 36.5703 56.5226 36.5703 61.5426C36.5703 66.5626 40.6637 70.6321 45.7132 70.6321Z" fill="#EEEEEE"/>
<path d="M82.2875 70.6321C87.337 70.6321 91.4304 66.5626 91.4304 61.5426C91.4304 56.5226 87.337 52.4531 82.2875 52.4531C77.238 52.4531 73.1445 56.5226 73.1445 61.5426C73.1445 66.5626 77.238 70.6321 82.2875 70.6321Z" fill="#00A0F0"/>
<path d="M9.14294 70.6321C14.1924 70.6321 18.2859 66.5626 18.2859 61.5426C18.2859 56.5226 14.1924 52.4531 9.14294 52.4531C4.09343 52.4531 0 56.5226 0 61.5426C0 66.5626 4.09343 70.6321 9.14294 70.6321Z" fill="#EEEEEE"/>
<path d="M118.858 70.6321C123.907 70.6321 128.001 66.5626 128.001 61.5426C128.001 56.5226 123.907 52.4531 118.858 52.4531C113.808 52.4531 109.715 56.5226 109.715 61.5426C109.715 66.5626 113.808 70.6321 118.858 70.6321Z" fill="#EEEEEE"/>
</svg>
