<svg width="128" height="128" viewBox="0 0 128 128" fill="none" xmlns="http://www.w3.org/2000/svg">
<path d="M63.9995 0C28.6535 0 0 28.654 0 64.0005C0 99.346 28.6535 128 63.9995 128C99.346 128 128 99.346 128 64.0005C128 28.654 99.346 0 63.9995 0Z" fill="white"/>
<path fill-rule="evenodd" clip-rule="evenodd" d="M101.578 46.4562C91.8785 46.4562 84.0151 54.3196 84.0151 64.0193C84.0151 73.7189 91.8785 81.5823 101.578 81.5823C110.366 81.5721 117.794 75.0678 118.963 66.3602H108.94C107.947 69.4824 105.028 71.7441 101.578 71.7441C97.312 71.7441 93.8549 68.2854 93.8549 64.0208C93.8549 59.7547 97.3136 56.2975 101.578 56.296C105.028 56.296 107.949 58.5576 108.94 61.6799H118.965C117.794 52.9692 110.366 46.4664 101.578 46.4562ZM26.3399 71.7426C22.0738 71.7426 18.6166 68.2838 18.6166 64.0177C18.6166 59.7516 22.0753 56.2944 26.3399 56.2944C30.606 56.2944 34.0632 59.7531 34.0632 64.0177C34.0632 68.2854 30.6045 71.7426 26.3399 71.7426ZM43.9029 81.2852V64.0193C43.9029 54.3196 36.0395 46.4562 26.3399 46.4562C16.6403 46.4562 8.77686 54.3196 8.77686 64.0193C8.77686 73.7189 16.6403 81.5823 26.3399 81.5823C29.2019 81.5777 32.1687 80.3622 34.2596 78.3404V81.2852H43.9029ZM63.9204 56.296C68.1865 56.296 71.6437 59.7547 71.6437 64.0208C71.6437 68.2874 68.185 71.7441 63.9204 71.7441C59.6543 71.7441 56.1971 68.2854 56.1971 64.0208C56.1971 59.7531 59.6543 56.296 63.9204 56.296ZM46.3574 37.8125V64.0193C46.3574 73.7189 54.2208 81.5823 63.9204 81.5823C73.6211 81.5823 81.4835 73.7189 81.4835 64.0193C81.4835 54.3196 73.6211 46.4562 63.9204 46.4562C61.2425 46.4603 58.47 47.3127 56.1971 48.8529V37.8125H46.3574Z" fill="#07111E"/>
</svg>
