<svg width="128" height="128" viewBox="0 0 128 128" fill="none" xmlns="http://www.w3.org/2000/svg">
<g clip-path="url(#clip0_5027_112570)">
<path d="M17.1768 33.0938H122.41V105.739H17.1768V33.0938Z" fill="white"/>
<path d="M127.978 35.1005C127.978 33.8445 127.978 32.5545 127.978 31.2646C127.876 28.481 127.706 25.6974 127.197 22.9477C126.756 20.1302 125.907 17.5503 124.617 15.0382C123.361 12.5601 121.698 10.2857 119.695 8.31685C117.726 6.34797 115.452 4.71854 112.973 3.39463C110.427 2.10467 107.814 1.25602 105.064 0.814713C102.314 0.339464 99.5307 0.135784 96.7471 0.0678916C95.4911 0.0339453 94.2011 0.0339463 92.9111 0H35.1345C33.8784 0.0339463 32.6224 0.0339453 31.2985 0.0678916C28.5149 0.135784 25.7313 0.305518 22.9477 0.814713C20.1641 1.28996 17.5842 2.13862 15.0722 3.39463C12.5941 4.65065 10.3197 6.34797 8.3508 8.31685C6.34797 10.2857 4.71854 12.5601 3.42858 15.0382C2.13862 17.5503 1.32391 20.1641 0.814713 22.9477C0.339464 25.6974 0.135784 28.481 0.0678916 31.2646C0.0339453 32.5545 0.0339463 33.8106 0 35.1005V92.8432C0.0339463 94.1332 0.0339453 95.3892 0.0678916 96.7131C0.135784 99.4967 0.305518 102.28 0.814713 105.03C1.28996 107.848 2.10467 110.427 3.39463 112.939C4.65065 115.384 6.31402 117.692 8.31685 119.627C10.2857 121.63 12.5601 123.259 15.0382 124.549C17.5503 125.839 20.1641 126.654 22.9138 127.163C25.6974 127.638 28.481 127.842 31.2646 127.91C32.5545 127.944 33.8106 127.944 35.1005 127.944C36.5942 127.944 38.1217 127.944 39.6493 127.944H88.3623C89.822 127.944 91.3836 127.944 92.8432 127.944C94.0993 127.944 95.3892 127.944 96.6792 127.91C99.4628 127.842 102.246 127.672 104.996 127.163C107.814 126.688 110.36 125.839 112.906 124.549C115.384 123.293 117.658 121.63 119.627 119.627C121.63 117.658 123.259 115.384 124.549 112.939C125.839 110.427 126.654 107.78 127.129 105.03C127.638 102.28 127.842 99.4967 127.91 96.7131C127.91 95.4232 127.91 94.1672 127.91 92.8432C127.944 91.3496 127.944 89.856 127.944 88.2944V39.6493C128.012 38.1217 128.012 36.5942 127.978 35.1005ZM41.0751 47.3891C42.4669 45.7257 44.8771 44.5037 46.812 44.4358C47.0496 46.7102 46.1331 48.9846 44.7752 50.6479C43.4174 52.3113 41.2109 53.6013 39.0043 53.4315C38.6649 51.1571 39.7851 48.8148 41.0751 47.3891ZM51.5984 78.0766C50.0709 80.351 48.4414 82.5914 45.9294 82.6254C43.4513 82.6593 42.6366 81.1657 39.7851 81.1657C36.9336 81.1657 36.0171 82.5915 33.6748 82.6933C31.2306 82.7951 29.3636 80.2491 27.7681 78.0087C24.5772 73.392 22.133 64.9733 25.4258 59.2364C27.0892 56.3849 29.9407 54.6197 33.0977 54.5857C35.5079 54.5518 37.7483 56.1812 39.242 56.1812C40.6677 56.1812 43.3155 54.2463 46.3707 54.4499C47.5588 54.5518 50.9874 54.8912 53.16 58.1161C52.9902 58.218 49.0864 60.4924 49.1543 65.2109C49.1882 70.846 54.1105 72.7131 54.1444 72.747C54.1444 72.9167 53.3976 75.4627 51.5984 78.0766ZM75.3609 59.7116H70.2689V73.6636C70.2689 74.2746 70.3029 74.8177 70.3368 75.2251C70.3708 75.6664 70.5066 76.0398 70.6763 76.3453C70.846 76.6508 71.1176 76.8545 71.457 77.0242C71.8305 77.194 72.3397 77.2619 72.9507 77.2619C73.3241 77.2619 73.7315 77.2619 74.1388 77.2279C74.5122 77.2279 74.9196 77.16 75.3269 77.0582V81.5052C74.6819 81.5731 74.1049 81.641 73.4938 81.7088C72.9507 81.7428 72.3057 81.7767 71.6607 81.7767C70.201 81.7767 69.0129 81.6409 68.0624 81.4033C67.1459 81.0978 66.4669 80.6565 65.9238 80.1473C65.4485 79.6042 65.0751 78.8913 64.8715 78.0426C64.7017 77.194 64.5999 76.2435 64.5659 75.1572V59.7456H60.3227V55.5023H64.5659V47.6946H70.201V55.5023H75.293L75.3609 59.7116ZM93.7598 81.5731H87.4458L78.1445 55.4004H84.2888L90.7725 75.4967H90.8744L97.1205 55.4004H102.925L93.7598 81.5731Z" fill="url(#paint0_linear_5027_112570)"/>
</g>
<defs>
<linearGradient id="paint0_linear_5027_112570" x1="64" y1="0" x2="64" y2="127.944" gradientUnits="userSpaceOnUse">
<stop stop-color="#323232"/>
<stop offset="1"/>
</linearGradient>
<clipPath id="clip0_5027_112570">
<rect width="128" height="128" fill="white"/>
</clipPath>
</defs>
</svg>
