<svg width="128" height="128" viewBox="0 0 128 128" fill="none" xmlns="http://www.w3.org/2000/svg">
<g clip-path="url(#clip0_5027_121743)">
<path d="M99.144 0H28.856C12.9193 0 0 12.9193 0 28.856V99.144C0 115.081 12.9193 128 28.856 128H99.144C115.081 128 128 115.081 128 99.144V28.856C128 12.9193 115.081 0 99.144 0Z" fill="#06C755"/>
<path d="M106.664 57.9679C106.664 38.8719 87.52 23.3359 63.988 23.3359C40.456 23.3359 21.312 38.8719 21.312 57.9679C21.312 75.0879 36.512 89.4279 57 92.1359C58.392 92.4359 60.284 93.0519 60.76 94.2399C61.192 95.3199 61.044 97.0119 60.9 98.0999C60.9 98.0999 60.4 101.112 60.292 101.752C60.104 102.832 59.432 105.972 63.988 104.056C68.544 102.14 88.564 89.5839 97.516 79.2759C103.7 72.4959 106.664 65.5999 106.664 57.9679Z" fill="white"/>
<path d="M92.4641 69.0013H80.4641C80.2519 69.0013 80.0484 68.917 79.8984 68.7669C79.7483 68.6169 79.6641 68.4134 79.6641 68.2013V49.5813C79.6641 49.3691 79.7483 49.1656 79.8984 49.0156C80.0484 48.8655 80.2519 48.7812 80.4641 48.7812H92.4641C92.6762 48.7812 92.8797 48.8655 93.0297 49.0156C93.1798 49.1656 93.2641 49.3691 93.2641 49.5813V52.6092C93.2641 52.8214 93.1798 53.0249 93.0297 53.1749C92.8797 53.325 92.6762 53.4092 92.4641 53.4092H84.3161V56.5492H92.4641C92.6762 56.5492 92.8797 56.6335 93.0297 56.7836C93.1798 56.9336 93.2641 57.1371 93.2641 57.3492V60.4052C93.2641 60.6174 93.1798 60.8209 93.0297 60.9709C92.8797 61.121 92.6762 61.2052 92.4641 61.2052H84.3161V64.3492H92.4641C92.6762 64.3492 92.8797 64.4335 93.0297 64.5836C93.1798 64.7336 93.2641 64.9371 93.2641 65.1493V68.1732C93.2678 68.2806 93.2499 68.3877 93.2114 68.488C93.1729 68.5883 93.1145 68.6798 93.0399 68.7571C92.9652 68.8344 92.8758 68.8958 92.7768 68.9378C92.6779 68.9797 92.5715 69.0013 92.4641 69.0013Z" fill="#06C755"/>
<path d="M48.1161 68.9974C48.3283 68.9974 48.5318 68.9132 48.6818 68.7631C48.8318 68.6131 48.9161 68.4096 48.9161 68.1974V65.1734C48.9161 64.9613 48.8318 64.7578 48.6818 64.6078C48.5318 64.4577 48.3283 64.3734 48.1161 64.3734H39.9681V49.5734C39.9681 49.3613 39.8838 49.1578 39.7338 49.0078C39.5838 48.8577 39.3803 48.7734 39.1681 48.7734H36.1281C35.916 48.7734 35.7125 48.8577 35.5624 49.0078C35.4124 49.1578 35.3281 49.3613 35.3281 49.5734V68.1854C35.3281 68.3976 35.4124 68.6011 35.5624 68.7511C35.7125 68.9011 35.916 68.9854 36.1281 68.9854H48.1281L48.1161 68.9974Z" fill="#06C755"/>
<path d="M55.3322 48.7344H52.3082C51.8575 48.7344 51.4922 49.0997 51.4922 49.5504V68.1744C51.4922 68.625 51.8575 68.9904 52.3082 68.9904H55.3322C55.7829 68.9904 56.1482 68.625 56.1482 68.1744V49.5504C56.1482 49.0997 55.7829 48.7344 55.3322 48.7344Z" fill="#06C755"/>
<path d="M75.9359 48.7344H72.9119C72.6997 48.7344 72.4963 48.8187 72.3462 48.9687C72.1962 49.1187 72.1119 49.3222 72.1119 49.5344V60.5984L63.5919 49.0904C63.5725 49.0599 63.5497 49.0317 63.5239 49.0064L63.4759 48.9584L63.4319 48.9224H63.4079L63.3639 48.8904H63.3399L63.2959 48.8664H63.2679H63.2239H63.1959H63.1479H63.1159H63.0679H63.0359H62.9919H59.9079C59.6957 48.8664 59.4923 48.9507 59.3422 49.1007C59.1922 49.2507 59.1079 49.4542 59.1079 49.6664V68.2904C59.1079 68.5026 59.1922 68.706 59.3422 68.8561C59.4923 69.0061 59.6957 69.0904 59.9079 69.0904H62.9359C63.1481 69.0904 63.3516 69.0061 63.5016 68.8561C63.6516 68.706 63.7359 68.5026 63.7359 68.2904V57.1184L72.2679 68.6384C72.3238 68.72 72.3943 68.7905 72.4759 68.8464L72.5239 68.8784H72.5479L72.5879 68.8984H72.6279H72.6559H72.7119C72.7826 68.9158 72.8551 68.9252 72.9279 68.9264H75.9359C76.1481 68.9264 76.3516 68.8421 76.5016 68.6921C76.6516 68.542 76.7359 68.3386 76.7359 68.1264V49.5504C76.738 49.444 76.7189 49.3382 76.6797 49.2393C76.6404 49.1404 76.5818 49.0503 76.5073 48.9743C76.4328 48.8983 76.3439 48.838 76.2458 48.7968C76.1477 48.7556 76.0423 48.7344 75.9359 48.7344Z" fill="#06C755"/>
</g>
<defs>
<clipPath id="clip0_5027_121743">
<rect width="128" height="128" fill="white"/>
</clipPath>
</defs>
</svg>
