<svg width="128" height="129" viewBox="0 0 128 129" fill="none" xmlns="http://www.w3.org/2000/svg">
<path d="M41.9039 101.609C42.5312 91.0847 55.6683 86.1448 65.8724 80.7048C75.5493 74.1216 89.5404 68.4578 94.7367 63.777C96.3091 62.2771 97.4823 60.4209 98.1534 58.3717C98.8245 56.3224 98.9728 54.1426 98.5854 52.0238C97.7021 48.1209 93.1114 44.2778 93.7386 43.9208C94.3658 43.5639 95.6216 45.2751 102.344 49.2376C109.066 53.2001 116.246 54.9874 117.61 62.1326C119.823 70.3347 116.752 75.3434 110.76 83.8453C103.084 92.8321 93.8978 100.462 83.5999 106.406C74.0324 111.856 60.9431 119.014 60.9431 119.014C54.543 122.476 48.3292 126.825 44.8012 128.299C41.8683 129.217 41.7287 127.011 41.7287 127.011C41.7287 127.011 41.5308 112.189 41.9039 101.609Z" fill="url(#paint0_linear_5027_118191)"/>
<path d="M48.8898 3.25781C49.0414 4.07916 42.3417 6.86919 42.2097 10.7886C40.8303 10.7886 41.5498 53.1429 41.7846 68.1384C41.7846 78.5614 43.2993 78.2254 44.4977 80.4349C52.4362 88.461 58.1262 83.7141 58.092 84.8957C58.0577 86.0773 50.3961 88.2877 46.351 93.062C43.8804 96.0213 42.3031 99.5993 41.7941 103.393C35.4107 100.441 29.6792 96.2868 24.9278 91.1647C19.5179 85.5781 15.4092 78.9042 12.8835 71.6048C10.3579 64.3054 9.47518 56.5548 10.2994 48.8881C11.1236 41.2215 13.6333 33.8216 17.6554 27.2011C21.6775 20.5805 27.1164 14.8964 33.595 10.5423C38.3323 7.44196 43.4778 4.99247 48.8898 3.25781Z" fill="url(#paint1_linear_5027_118191)"/>
<path d="M101.983 49.1137C88.8165 41.3986 85.0563 39.3932 75.1337 33.9881C65.2111 28.583 60.0828 24.1246 54.7132 24.2017C51.6504 24.3983 48.7182 25.4933 46.2964 27.345C43.8746 29.1966 42.0747 31.7197 41.1299 34.5874L41.1525 19.2755C41.0895 7.23172 45.1402 5.10014 45.1402 5.10014C50.0415 1.96436 55.8776 0.545907 61.7025 1.07468C73.1916 1.27404 75.9702 0.704596 86.8219 5.57231C94.2253 8.39248 100.762 13.0407 105.801 19.0676C110.541 24.7572 114.27 31.1916 116.829 38.0996C118.363 42.5898 119.299 47.256 119.614 51.982C119.949 57.1773 119.581 62.3933 118.52 67.4937C118.337 64.0877 117.284 60.7816 115.458 57.8803C111.408 54.3509 106.872 51.3997 101.983 49.1137Z" fill="url(#paint2_linear_5027_118191)"/>
<defs>
<linearGradient id="paint0_linear_5027_118191" x1="30.456" y1="105.553" x2="117.274" y2="60.5044" gradientUnits="userSpaceOnUse">
<stop stop-color="#AB88DE"/>
<stop offset="1" stop-color="#5D2E9F"/>
</linearGradient>
<linearGradient id="paint1_linear_5027_118191" x1="34.0461" y1="3.25781" x2="34.0461" y2="103.393" gradientUnits="userSpaceOnUse">
<stop stop-color="#AB88DE"/>
<stop offset="1" stop-color="#5D2E9F"/>
</linearGradient>
<linearGradient id="paint2_linear_5027_118191" x1="119.855" y1="65.9854" x2="47.6317" y2="2.08178" gradientUnits="userSpaceOnUse">
<stop stop-color="#AB88DE"/>
<stop offset="1" stop-color="#5D2E9F"/>
</linearGradient>
</defs>
</svg>
