<svg width="128" height="128" viewBox="0 0 128 128" fill="none" xmlns="http://www.w3.org/2000/svg">
<rect width="128" height="128" rx="24" fill="url(#paint0_linear_5027_114662)"/>
<path d="M82.9912 77.1655C82.9317 76.5135 82.8451 75.871 82.7315 75.2379C81.0312 65.8557 73.3533 58.75 64.1618 58.75C53.7286 58.75 45.2432 67.9009 45.2432 79.1499C45.2432 90.3988 53.7286 99.5497 64.1618 99.5497C69.9852 99.5497 75.1998 96.7091 78.6735 92.2209V99.4523H83.0156C83.0156 77.4536 83.0156 77.4536 82.9912 77.1655ZM64.1618 95.2076C56.1228 95.2076 49.5853 88.0045 49.5853 79.1499C49.5853 70.2952 56.1188 63.0921 64.1618 63.0921C72.2049 63.0921 78.7384 70.2952 78.7384 79.1499C78.7384 79.6409 78.714 80.1238 78.6775 80.6027V80.6635C77.9795 88.808 71.7342 95.2076 64.1618 95.2076Z" fill="#336699"/>
<path d="M87.2887 66.8632C86.8777 66.8637 86.4735 66.7587 86.1147 66.5584C85.7559 66.358 85.4545 66.069 85.2393 65.7189C80.1181 57.3998 72.8217 53.0009 64.1374 53.0009C52.4015 53.0009 45.8031 60.8735 42.9178 65.5809C42.5759 66.1075 42.0416 66.4797 41.429 66.6178C40.8164 66.7559 40.1741 66.6492 39.6392 66.3203C39.1043 65.9914 38.7191 65.4664 38.5659 64.8574C38.4127 64.2484 38.5036 63.6037 38.8192 63.0608C41.2337 59.0955 44.4518 55.6797 48.2664 53.0334C52.9425 49.8399 58.4831 48.1521 64.1456 48.1962C74.4327 48.1962 83.3767 53.5244 89.3339 63.211C89.5542 63.575 89.674 63.9909 89.6812 64.4163C89.6884 64.8417 89.5826 65.2614 89.3747 65.6326C89.1669 66.0038 88.8643 66.3133 88.4978 66.5295C88.1313 66.7457 87.7141 66.8608 87.2887 66.8632Z" fill="#336699"/>
<path d="M94.9261 59.28C94.5345 59.2808 94.1485 59.1858 93.8019 59.0034C93.4554 58.8209 93.1587 58.5564 92.9377 58.233C89.6912 53.477 80.3577 42.4066 64.2634 42.4066C52.0406 42.4066 42.7882 47.3818 35.1428 58.0667C34.7637 58.5649 34.2054 58.8958 33.5863 58.989C32.9672 59.0823 32.3362 58.9307 31.8271 58.5663C31.318 58.2019 30.971 57.6535 30.8597 57.0374C30.7483 56.4213 30.8815 55.7861 31.2308 55.2666C39.7528 43.3765 50.5391 37.5978 64.2634 37.5938C82.6627 37.5938 93.2217 50.1169 96.9105 55.4979C97.1624 55.8594 97.3102 56.2831 97.3378 56.7229C97.3654 57.1626 97.2717 57.6015 97.067 57.9917C96.8623 58.3818 96.5544 58.7083 96.1769 58.9355C95.7994 59.1627 95.3667 59.2818 94.9261 59.28Z" fill="#336699"/>
<path d="M101.593 52.6081C101.19 52.6098 100.793 52.51 100.438 52.3178C100.084 52.1256 99.7831 51.8472 99.5644 51.5083C93.9846 42.8809 81.3559 32.8088 64.1375 32.8088C43.2061 32.8088 32.1803 45.7175 28.4266 51.2689C28.2525 51.5379 28.0264 51.7695 27.7615 51.9499C27.4967 52.1304 27.1985 52.2562 26.8844 52.3198C26.5703 52.3835 26.2467 52.3837 25.9325 52.3206C25.6183 52.2575 25.3199 52.1323 25.0548 51.9523C24.7896 51.7723 24.5631 51.5411 24.3885 51.2724C24.2139 51.0037 24.0948 50.7028 24.038 50.3874C23.9813 50.072 23.9881 49.7484 24.0581 49.4357C24.1281 49.123 24.2599 48.8274 24.4456 48.5662C28.6457 42.3818 40.9173 28 64.1497 28C83.2997 28 97.3771 39.2571 103.614 48.895C103.849 49.2583 103.982 49.6783 103.998 50.1107C104.015 50.5431 103.914 50.972 103.707 51.352C103.5 51.7321 103.195 52.0494 102.823 52.2704C102.451 52.4915 102.026 52.6081 101.593 52.6081Z" fill="#336699"/>
<defs>
<linearGradient id="paint0_linear_5027_114662" x1="64" y1="0" x2="64" y2="128" gradientUnits="userSpaceOnUse">
<stop stop-color="#FAFAFA"/>
<stop offset="1" stop-color="#E4E4E3"/>
</linearGradient>
</defs>
</svg>
