<svg width="128" height="128" viewBox="0 0 128 128" fill="none" xmlns="http://www.w3.org/2000/svg">
<path d="M24.4326 41.2344C26.0578 42.2625 27.4839 43.125 28.877 44.0205C35.3118 48.1666 41.7136 52.346 48.1484 56.459C49.1764 57.1223 49.4417 57.8521 49.0107 59.0127C45.926 68.0679 42.8738 77.1567 39.8223 86.2451C37.5005 93.2105 35.2124 100.209 32.8574 107.142C31.1326 112.25 29.3078 117.358 27.5498 122.466C27.4171 122.864 27.2843 123.262 27.3838 123.793C28.0472 123.295 28.777 122.864 29.3408 122.267C33.2216 118.154 37.003 113.941 40.8838 109.828C46.8873 103.559 52.9574 97.39 58.9941 91.1543C63.9364 86.0462 68.8459 80.8717 73.7881 75.7637C79.6258 69.6938 85.4963 63.6568 91.3672 57.6201C94.1534 54.7344 96.9735 51.8486 99.7266 48.9297C100.887 47.7357 101.949 46.4754 103.375 45.4141V47.3711C103.375 59.2455 103.342 71.153 103.408 83.0273C103.408 84.3871 102.977 85.1501 101.816 85.7803C95.6801 89.064 89.5435 92.3482 83.4072 95.6982C74.9491 100.309 66.5568 105.018 58.0986 109.629C51.0668 113.477 43.9684 117.291 36.9365 121.105C33.288 123.096 29.6397 125.119 25.9912 127.143C25.6264 127.441 25.1289 127.673 24.4326 128.005V41.2344ZM24.0342 0C49.6408 13.8979 74.9823 27.6636 100.622 41.5615C98.1345 43.3858 95.9117 45.0437 93.6562 46.6689C87.7854 50.8482 81.8817 54.9946 76.0771 59.207C75.1816 59.8704 74.4844 59.8706 73.5889 59.4062C68.3815 56.8191 63.1742 54.2649 57.9336 51.7109C47.7507 46.7356 37.6008 41.6602 27.2852 36.9502C24.6317 35.7561 23.9678 34.3966 24.001 31.71C24.1337 21.2617 24.0342 10.78 24.0342 0Z" fill="url(#paint0_linear_5027_122118)"/>
<defs>
<linearGradient id="paint0_linear_5027_122118" x1="63.7042" y1="0" x2="63.7042" y2="128.005" gradientUnits="userSpaceOnUse">
<stop stop-color="#0088E8"/>
<stop offset="1" stop-color="#006BB6"/>
</linearGradient>
</defs>
</svg>
