<svg width="128" height="128" viewBox="0 0 128 128" fill="none" xmlns="http://www.w3.org/2000/svg">
<g clip-path="url(#clip0_5027_119988)">
<path d="M112 0H16C7.16344 0 0 7.16344 0 16V112C0 120.837 7.16344 128 16 128H112C120.837 128 128 120.837 128 112V16C128 7.16344 120.837 0 112 0Z" fill="#FF004D"/>
<path d="M91.8535 42.7611C99.9687 42.7611 99.9687 53.6667 99.9687 66.3643C99.9687 79.0619 91.4567 103.804 70.9767 103.804C50.4967 103.804 43.7127 93.3211 37.0951 84.2331C30.4775 75.1451 20.8903 59.7979 29.6583 52.1947C27.4567 38.7931 35.4311 39.7787 35.4311 39.7787C35.4311 39.7787 35.4311 32.3803 41.1655 29.4235C46.7591 26.5435 51.9687 32.3803 51.9687 32.3803C51.9687 32.3803 61.0567 27.2475 67.1879 33.3275C73.3191 39.4075 80.9351 51.6955 80.9351 51.6955C80.9351 51.6955 83.7511 42.7611 91.8535 42.7611Z" fill="#FFD14D"/>
<path d="M92.9786 83.0228C88.5498 93.3396 78.6298 100.111 67.4042 100.162C57.7658 100.162 49.7018 93.2628 44.6074 87.4132C39.129 80.4756 34.457 72.9236 30.6938 64.9108C29.3754 61.1604 29.273 58.8692 30.6938 57.6404C32.1146 56.3988 34.969 57.3076 36.505 59.2148C38.041 61.122 47.7562 73.9476 48.0506 74.5876C48.3578 75.2404 49.0874 75.5476 49.7786 75.3428C50.393 74.8308 50.4826 73.9092 49.9706 73.282L34.137 50.7668C32.7162 48.8084 33.1386 46.0692 35.097 44.6356C35.1482 44.61 35.1866 44.5716 35.225 44.546C37.2986 43.1252 40.1146 43.6116 41.5994 45.634L55.0266 63.9764C55.3338 64.6036 56.1018 64.8724 56.729 64.5524C56.7546 64.5396 56.793 64.5268 56.8186 64.5012C57.4586 64.0532 57.2666 63.1572 56.8186 62.5172L41.6762 39.4516C40.2554 37.4932 40.6778 34.754 42.6362 33.3204C42.6874 33.2948 42.7258 33.2564 42.7642 33.2308C44.825 31.7972 47.6666 32.2708 49.1386 34.3188L65.4842 58.242C65.9322 58.8436 66.7642 59.33 67.3914 58.882C68.0314 58.434 67.7626 57.4996 67.3914 56.8212C65.3306 53.4036 58.1626 41.1412 56.9722 38.978C55.7818 36.8148 55.513 34.626 56.9722 33.6148C58.4314 32.6036 61.657 33.1284 65.753 37.3652C70.745 43.4964 75.1738 50.0372 79.0266 56.9364C79.3594 57.5124 79.7562 58.0244 80.2298 58.4724C81.8042 60.0084 82.8922 59.714 83.5706 58.242C84.249 56.77 85.145 46.3892 91.0714 46.6196C93.209 46.6196 94.8218 48.7572 95.6026 54.1204C97.4074 63.7972 96.4986 73.8068 92.9786 83.0228ZM103.359 53.0196C102.271 43.8676 98.0346 39.1444 91.5066 38.9524C87.129 38.6964 82.9434 40.7828 80.5242 44.4308C77.8874 40.0916 74.905 35.97 71.6026 32.13C63.2826 23.17 56.601 24.3348 52.8506 26.9588C48.5626 23.8484 42.777 23.7332 38.3738 26.69C34.9178 29.0068 32.8698 32.9108 32.9338 37.0836C29.1322 38.7092 26.4186 42.1268 25.7018 46.1972C25.3434 47.9252 25.3434 49.7172 25.7018 51.4452L25.0618 52.0084C21.3114 55.7588 20.5306 60.93 23.1162 67.8676C27.2378 76.6868 32.4218 84.9812 38.5274 92.5844C47.4874 102.863 57.2794 108.072 67.289 108.072C81.7402 108.06 94.7706 99.394 100.364 86.0564C104.447 75.5092 105.51 64.0276 103.436 52.9044" fill="black"/>
<path d="M84.6843 81.3294C82.4187 76.6318 81.1514 71.5373 80.9338 66.3277C80.9338 65.2269 80.0378 64.3438 78.9498 64.3438C77.8746 64.3438 77.0042 65.2142 77.0042 66.2894C77.0042 66.3022 77.0042 66.3149 77.0042 66.3277C77.209 72.1773 78.6298 77.9246 81.1642 83.1982C81.689 84.1582 82.8922 84.5166 83.865 83.9918C84.8122 83.4798 85.1834 82.3022 84.6586 81.355C84.6586 81.3422 84.6458 81.3422 84.6458 81.3294H84.6843ZM72.729 65.2013C73.3562 66.0845 73.1514 67.3006 72.2682 67.915C72.2554 67.9278 72.2554 67.9277 72.2426 67.9277C67.6474 71.6141 63.8202 76.1581 60.9914 81.3165C60.4282 82.2509 59.225 82.5581 58.2906 81.9949C57.3562 81.4317 57.049 80.2286 57.6122 79.2942C60.7098 73.6622 64.921 68.7214 69.9898 64.7406C70.8858 64.1006 72.1146 64.3053 72.7674 65.1885" fill="#FFB73B"/>
<path d="M42.2786 110.43C33.9586 105.694 27.3666 98.3976 23.5266 89.6168C23.2578 88.5544 22.1826 87.9016 21.1202 88.1576C20.0578 88.4264 19.405 89.5016 19.661 90.564C19.6866 90.6792 19.725 90.7816 19.7762 90.884C23.9874 100.676 31.3218 108.778 40.6274 113.95C41.5746 114.462 42.7522 114.116 43.277 113.182C43.789 112.234 43.4434 111.057 42.509 110.532C42.4322 110.506 42.3554 110.468 42.2786 110.43ZM87.7314 32.2088C86.733 32.6568 85.5682 32.2216 85.1074 31.236C82.0482 26.3464 77.5682 22.5064 72.2818 20.2152C71.2578 19.844 70.733 18.7304 71.0786 17.7064C71.4114 16.6568 72.525 16.0808 73.5746 16.4008C73.6258 16.4136 73.6898 16.4392 73.741 16.4648C79.9874 19.1144 85.2354 23.6584 88.7426 29.4824C89.1906 30.4808 88.7554 31.6456 87.7698 32.1064" fill="#7A011F"/>
</g>
<defs>
<clipPath id="clip0_5027_119988">
<rect width="128" height="128" fill="white"/>
</clipPath>
</defs>
</svg>
