<svg width="128" height="128" viewBox="0 0 128 128" fill="none" xmlns="http://www.w3.org/2000/svg">
<circle cx="63.6344" cy="64.3629" r="59.2457" fill="white"/>
<path d="M64 0C28.6537 0 0 28.6537 0 64C0 99.3476 28.6537 128 64 128C99.3476 128 128 99.3463 128 64C128 28.6537 99.3476 0 64 0ZM104.49 22.7069C104.49 26.4281 103.837 29.3251 102.357 31.4005C100.874 33.4759 98.8291 35.0759 96.1293 36.1979C94.0382 37.0638 91.119 37.7574 87.8994 38.2759C84.6798 38.7944 82.2857 39.0531 78.3673 39.0531V102.14C84.898 100.138 89.1833 97.3949 93.0181 93.9102C95.8041 91.298 98.863 87.599 101.912 82.8082L102.896 83.2013C101.414 92.5192 97.3349 100.312 90.5874 106.578C83.84 112.845 75.7355 115.982 66.2452 115.982C53.0103 115.982 42.0271 112.255 33.2748 104.798C24.5238 97.344 20.1535 88.0327 20.1535 76.8705C20.1535 69.0207 22.4196 61.1291 26.9479 53.1931C31.9112 44.4722 38.3125 37.9742 46.1492 33.7006C44.4931 33.4106 43.1451 33.0358 42.1002 32.9613C41.0553 32.8882 39.488 32.6557 37.3982 32.6557C36.7007 32.6557 36.1352 32.6557 35.7002 32.6557C32.913 32.6557 29.2545 34.1368 24.7288 36.7047C20.2005 39.2738 16.8464 41.7985 14.6717 45.7169H13.888C13.3656 43.1047 14.2798 39.7544 16.6361 35.3998C22.4771 24.6034 32.0679 19.2039 45.4113 19.2039C49.1611 19.2039 57.3793 20.4669 70.0656 22.9917C82.752 25.5177 89.7946 26.7794 91.1909 26.7794C94.3308 26.7794 96.7288 26.3445 98.3863 25.4733C100.39 24.3422 102.006 22.2524 103.402 19.2039L104.491 19.7264C104.49 20.847 104.49 21.841 104.49 22.7069Z" fill="#016FBA"/>
<path d="M50.8312 86.5952C51.6162 84.1592 52.2471 82.1099 52.2471 80.4577V34.874L50.0476 34.3516C44.8231 37.4863 40.7414 42.234 38.0417 48.5883C35.6907 54.074 34.4551 59.821 34.4551 65.8278C34.4551 74.2758 36.3842 81.4595 40.3039 87.3788C41.61 89.2962 43.5535 91.4291 46.1658 93.7788C46.7731 93.2564 47.2459 92.8227 47.5947 92.4727C48.6396 91.3429 49.4729 90.2536 49.866 89.2074C50.2592 88.1612 50.6562 87.2926 50.8312 86.5952Z" fill="#016FBA"/>
<path d="M66.6113 65.0448C66.6113 69.7481 66.064 73.7318 65.1968 76.9971C64.3243 80.2624 62.7034 83.115 60.4399 85.5509C58.6126 87.5558 56.4066 89.6025 53.8818 91.691C52.0546 93.1721 50.2547 94.6533 48.5137 96.1292C50.4284 97.4353 52.4255 98.5677 54.5153 99.5277C56.6064 100.486 58.8216 101.224 61.1739 101.747C62.0425 101.923 63.282 102.423 64.8951 102.594C66.5029 102.772 68.2649 103.182 70.1809 103.182C71.3133 103.182 72.3138 103.182 73.1863 103.182C74.0549 103.184 74.448 103.184 75.7542 103.184V39.0529L66.6113 37.0938V65.0448Z" fill="#016FBA"/>
</svg>
