<svg width="128" height="128" viewBox="0 0 128 128" fill="none" xmlns="http://www.w3.org/2000/svg">
<path d="M0 24C0 10.7452 10.7452 0 24 0H104C117.255 0 128 10.7452 128 24V104C128 117.255 117.255 128 104 128H24C10.7452 128 0 117.255 0 104V24Z" fill="url(#paint0_linear_5027_120987)"/>
<path d="M57.8167 21.6451L49.5888 19.486C47.8158 19.005 45.9651 18.8794 44.1434 19.1165C42.3217 19.3537 40.5649 19.9489 38.9742 20.8678C37.3834 21.7868 35.9902 23.0113 34.8747 24.471C33.7592 25.9306 32.9435 27.5965 32.4746 29.3728L30.3945 37.1795C37.2169 28.6904 47.028 23.1325 57.8167 21.6451Z" fill="#231F20"/>
<path d="M21.4937 70.7891L19.4663 78.4246C18.5186 81.9947 19.0278 85.795 20.8819 88.9896C22.7359 92.1843 25.7831 94.5117 29.353 95.4598L37.2519 97.5662C28.8205 90.9382 23.1944 81.378 21.4937 70.7891Z" fill="#231F20"/>
<path d="M98.5879 32.5049L89.7148 30.1484C94.1918 33.5922 97.9401 37.8908 100.742 42.7948C103.545 47.6988 105.345 53.1106 106.039 58.716L108.475 49.5006C109.41 45.9361 108.895 42.1459 107.042 38.9604C105.189 35.7748 102.149 33.4535 98.5879 32.5049Z" fill="#231F20"/>
<path d="M69.9258 106.241L78.4039 108.532C81.9739 109.48 85.7742 108.971 88.9689 107.116C92.1636 105.262 94.4909 102.215 95.4391 98.6453L97.8351 89.6406C91.0827 98.6354 81.0528 104.601 69.9258 106.241Z" fill="#231F20"/>
<path d="M63.9642 24.9922C56.2493 24.9922 48.7077 27.2799 42.293 31.5661C35.8783 35.8522 30.8787 41.9443 27.9263 49.072C24.9739 56.1996 24.2015 64.0426 25.7066 71.6093C27.2117 79.1759 30.9267 86.1264 36.382 91.5816C41.8372 97.0369 48.7877 100.752 56.3543 102.257C63.921 103.762 71.764 102.99 78.8916 100.037C86.0193 97.0849 92.1113 92.0853 96.3975 85.6706C100.684 79.2559 102.971 71.7143 102.971 63.9994C102.971 53.654 98.8617 43.7324 91.5465 36.4171C84.2312 29.1019 74.3096 24.9922 63.9642 24.9922ZM41.8869 44.4497C42.304 42.2871 43.3529 40.2967 44.9011 38.7301C46.4493 37.1636 48.4271 36.0912 50.5847 35.6486C52.7422 35.206 54.9825 35.4131 57.0224 36.2436C59.0623 37.0741 60.8102 38.4907 62.045 40.3145C63.2799 42.1382 63.9463 44.2871 63.96 46.4896C63.9737 48.692 63.334 50.849 62.1219 52.688C60.9099 54.527 59.1798 55.9653 57.1504 56.821C55.1209 57.6768 52.8834 57.9117 50.7205 57.496C49.2836 57.2198 47.9153 56.6632 46.6936 55.858C45.4719 55.0527 44.4209 54.0147 43.6006 52.8031C42.7802 51.5916 42.2066 50.2302 41.9126 48.7969C41.6186 47.3636 41.6098 45.8864 41.8869 44.4497ZM58.0928 78.1515C57.6733 80.313 56.6225 82.3016 55.0733 83.8662C53.524 85.4307 51.5458 86.501 49.3886 86.9417C47.2313 87.3824 44.9918 87.1738 42.9531 86.3422C40.9143 85.5107 39.1678 84.0935 37.9342 82.2697C36.7006 80.4459 36.0352 78.2974 36.0222 76.0956C36.0091 73.8938 36.649 71.7376 37.8609 69.8993C39.0729 68.0611 40.8025 66.6233 42.8312 65.7677C44.86 64.912 47.0969 64.6769 49.2592 65.092C50.6974 65.3681 52.067 65.9252 53.2897 66.7313C54.5123 67.5373 55.564 68.5766 56.3845 69.7897C57.205 71.0027 57.7782 72.3656 58.0713 73.8005C58.3645 75.2353 58.3717 76.7138 58.0928 78.1515ZM62.8189 69.1336C61.859 68.9479 60.9755 68.4821 60.28 67.7949C59.5845 67.1077 59.1081 66.23 58.9109 65.2724C58.7136 64.3148 58.8044 63.3202 59.1717 62.4141C59.539 61.508 60.1665 60.731 60.9749 60.181C61.7833 59.6311 62.7364 59.3329 63.7141 59.324C64.6918 59.3152 65.6502 59.596 66.4685 60.1312C67.2867 60.6663 67.9281 61.4318 68.3119 62.3311C68.6956 63.2304 68.8044 64.2232 68.6246 65.1842C68.5045 65.8256 68.2588 66.437 67.9016 66.9832C67.5444 67.5293 67.0828 67.9994 66.5432 68.3665C66.0037 68.7336 65.3968 68.9903 64.7577 69.1219C64.1185 69.2536 63.4596 69.2576 62.8189 69.1336ZM86.0547 83.5227C85.6394 85.6868 84.5915 87.6791 83.0436 89.2474C81.4957 90.8157 79.5173 91.8896 77.3589 92.3332C75.2004 92.7768 72.9589 92.5701 70.9179 91.7394C68.8769 90.9086 67.1283 89.491 65.8932 87.6661C64.6582 85.8412 63.9922 83.6909 63.9797 81.4873C63.9671 79.2838 64.6085 77.1261 65.8226 75.2872C67.0368 73.4483 68.7692 72.0109 70.8005 71.1569C72.8319 70.3029 75.0709 70.0706 77.2343 70.4896C80.131 71.0505 82.6868 72.738 84.3405 75.1816C85.9942 77.6251 86.6107 80.625 86.0547 83.5227ZM78.6824 62.8804C76.5187 62.4657 74.5265 61.4185 72.958 59.8715C71.3894 58.3244 70.315 56.3469 69.8705 54.1891C69.426 52.0312 69.6315 49.7901 70.4609 47.749C71.2903 45.708 72.7065 43.9588 74.5302 42.7227C76.3539 41.4867 78.5032 40.8193 80.7063 40.8049C82.9094 40.7906 85.0672 41.4299 86.9069 42.6422C88.7465 43.8544 90.1853 45.585 91.0413 47.615C91.8972 49.6451 92.1319 51.8834 91.7155 54.0468C91.4408 55.4835 90.8857 56.852 90.082 58.0742C89.2783 59.2964 88.2417 60.3482 87.0314 61.1697C85.8211 61.9913 84.4609 62.5663 83.0284 62.8621C81.5959 63.1579 80.1191 63.1685 78.6824 62.8935V62.8804Z" fill="#ED145B"/>
<defs>
<linearGradient id="paint0_linear_5027_120987" x1="64" y1="0" x2="64" y2="128" gradientUnits="userSpaceOnUse">
<stop stop-color="white"/>
<stop offset="1" stop-color="#EEEEEE"/>
</linearGradient>
</defs>
</svg>
