<svg width="128" height="128" viewBox="0 0 128 128" fill="none" xmlns="http://www.w3.org/2000/svg">
<path d="M87.4238 0V8H112.649L89.8238 59.9L98.1738 59.925L121.324 8V0H87.4238Z" fill="#24FF7C"/>
<path d="M8.57384 128.003L16.9238 100.178C8.69884 97.3782 4.17384 88.5531 6.69884 80.2281L20.7488 34.1281C22.7988 27.3281 29.0488 22.7031 36.1488 22.7031H69.0489C77.9739 22.7281 85.1739 29.9781 85.1239 38.9031C85.1239 40.2781 84.9489 41.6531 84.5989 42.9781L77.8489 68.1281C75.9489 75.1531 69.5989 80.0281 62.2989 80.0531H29.3988L31.7988 72.1031H62.3239C65.9739 72.1031 69.1989 69.6281 70.1489 66.1031L76.8989 40.9531C78.0739 36.6281 75.5239 32.2031 71.1989 31.0281C70.4989 30.8281 69.7739 30.7531 69.0739 30.7531H36.0489C32.4738 30.7281 29.3238 33.0781 28.2988 36.5031L14.2488 82.6031C12.9488 86.8781 15.3488 91.4032 19.5988 92.7031H19.6238C20.3988 92.9531 21.1988 93.0532 21.9988 93.0532H27.3738L22.2738 109.978L49.2489 93.1282H71.1239L68.9739 101.053H51.5989L8.57384 128.003Z" fill="#24FF7C"/>
</svg>
