<svg width="128" height="128" viewBox="0 0 128 128" fill="none" xmlns="http://www.w3.org/2000/svg">
<g clip-path="url(#clip0_5027_122338)">
<rect width="128" height="128" rx="24" fill="url(#paint0_linear_5027_122338)"/>
<path d="M98.2094 55.7423C99.0873 55.7556 99.2249 56.7499 99.2265 57.3427C99.2285 58.0866 98.9858 58.9409 98.2094 58.9409C97.3943 58.9409 97.1938 57.9381 97.1924 57.3362C97.1906 56.5932 97.4351 55.7306 98.2094 55.7423ZM98.2094 56.2401C98.015 56.2299 97.9236 56.4049 97.8825 56.5585C97.841 56.7137 97.8206 56.9752 97.8206 57.3427C97.8206 57.7102 97.8411 57.9625 97.8761 58.1012C97.9286 58.3095 98.0235 58.4332 98.2094 58.443C98.4048 58.4534 98.4949 58.2787 98.5363 58.1247C98.5777 57.9709 98.5983 57.7102 98.5983 57.3427C98.5983 56.9752 98.5776 56.7236 98.5428 56.5863C98.49 56.3786 98.3948 56.2499 98.2094 56.2402V56.2401Z" fill="#D2D2D2"/>
<path d="M101.915 57.585L101.193 57.7542L100.555 55.0309C100.349 55.3396 100.08 55.5951 99.7496 55.7973L99.596 55.1416C99.7702 55.0357 99.9477 54.8711 100.129 54.6479C100.309 54.4229 100.414 54.1859 100.442 53.9369L101.029 53.7996L101.915 57.585Z" fill="#D2D2D2"/>
<path fill-rule="evenodd" clip-rule="evenodd" d="M29.3893 73.4832C22.659 75.1453 23.2515 69.4435 23.0674 67.1209C22.8884 64.8623 22.3044 58.8191 16.8433 56.0547L10.5654 63.5401C14.6826 65.0685 18.6916 66.7833 19.4935 71.2107C20.2006 75.1145 22.7173 76.6623 29.6378 76.7771L29.3893 73.4832Z" fill="#D2D2D2"/>
<path d="M105.105 55.649C106.378 56.0427 106.154 57.5493 105.904 58.4131C105.59 59.4972 104.872 60.6377 103.741 60.3066C102.554 59.959 102.69 58.4133 102.945 57.5363C103.259 56.4536 103.983 55.3016 105.105 55.649H105.105ZM104.893 56.3739C104.614 56.2761 104.407 56.492 104.281 56.6981C104.155 56.9064 104.013 57.2784 103.857 57.8135C103.7 58.3487 103.622 58.7249 103.614 58.9417C103.602 59.2675 103.687 59.488 103.954 59.5817C104.234 59.6801 104.44 59.4642 104.566 59.2575C104.691 59.0511 104.833 58.6803 104.989 58.1452C105.146 57.61 105.223 57.2349 105.231 57.0201C105.243 56.6952 105.159 56.4672 104.893 56.3739H104.893Z" fill="#D2D2D2"/>
<path d="M115.946 55.0956C117.625 54.6387 118.434 56.4573 118.762 57.5856C119.175 59.0017 119.182 60.7626 117.703 61.1889C116.15 61.6367 115.217 59.8365 114.884 58.6907C114.472 57.2763 114.464 55.4985 115.946 55.0955L115.946 55.0956ZM116.219 56.044C115.843 56.1313 115.765 56.5149 115.771 56.8301C115.777 57.1485 115.882 57.6578 116.084 58.3579C116.286 59.058 116.464 59.5274 116.606 59.7724C116.821 60.1404 117.07 60.3239 117.429 60.2406C117.807 60.153 117.883 59.7707 117.877 59.4545C117.871 59.1387 117.767 58.6308 117.566 57.9306C117.364 57.2305 117.186 56.7626 117.044 56.5202C116.83 56.1535 116.578 55.9607 116.219 56.0439V56.044Z" fill="#D2D2D2"/>
<path d="M108.271 60.4301L107.428 59.9364L109.289 56.762C108.812 56.8694 108.325 56.8697 107.827 56.7627L108.275 55.9984C108.537 56.0553 108.855 56.0594 109.23 56.0106C109.606 55.9599 109.921 55.8287 110.173 55.6172L110.857 56.0178L108.271 60.4301Z" fill="#D2D2D2"/>
<path d="M112.824 63.8051L111.763 63.8067L111.757 59.8075C111.37 60.1707 110.913 60.4395 110.387 60.614L110.386 59.651C110.663 59.56 110.963 59.3883 111.288 59.1361C111.612 58.8813 111.834 58.5851 111.955 58.2476L112.816 58.2463L112.824 63.8051Z" fill="#D2D2D2"/>
<path fill-rule="evenodd" clip-rule="evenodd" d="M68.3616 55.1388V57.6282C67.3079 56.1418 65.7238 55.0926 63.9439 55.0926H51.8773L44.954 68.84L39.3834 55.1087L35.2942 55.1907C36.2056 64.3509 34.741 70.4878 29.8543 72.2688C28.6111 75.0283 28.5343 76.7878 29.7403 76.9317C32.9658 75.7561 35.0259 74.1488 36.491 72.2184C37.9849 70.25 38.6134 68.4464 38.8064 66.5991L42.8285 76.6536H45.9606L52.3565 63.4654L52.4716 76.6859H56.8096V67.4549H61.768C65.0408 67.4549 67.4902 66.2506 68.0165 64.9999V76.7673H82.5383V72.7956H72.5158V67.6525H82.7459C83.3721 73.2049 88.0955 77.5021 93.4495 77.5021C96.035 77.5021 98.4511 76.2254 100.276 74.3431C102.431 72.1214 103.392 68.6774 103.233 66.2506L103.095 64.158H94.6614V68.1142H99.3504C98.9541 70.7317 97.4418 73.1975 93.8579 73.4311C91.4942 73.5851 86.9802 72.218 86.9802 66.2654C86.9802 62.7381 90.5146 59.1336 93.945 59.1305C94.8497 59.1297 95.2805 57.9502 95.2955 57.3328C95.3136 56.5892 95.1762 55.6024 94.1751 55.0625C88.4357 55.8691 84.2497 60.2781 83.4616 63.8441V63.7953H72.2367V59.0641H82.3511V55.138L68.3616 55.1388ZM56.6368 58.878H61.8765C65.9095 58.878 65.7738 63.4124 62.1415 63.4124H56.6367L56.6368 58.878Z" fill="url(#paint1_linear_5027_122338)"/>
<path fill-rule="evenodd" clip-rule="evenodd" d="M25.5364 53.6598C25.4302 55.5457 25.2552 57.4429 25.3293 59.2985C25.1341 58.9561 24.7519 58.655 24.4 58.6516C23.998 58.6477 23.6461 58.8717 23.409 59.1895C23.172 59.5073 23.0347 59.9288 23.0347 60.3901C23.0347 60.8513 23.172 61.328 23.409 61.6658C23.6461 62.0035 24.0192 62.2427 24.4 62.2374C25.1 62.2277 25.7442 61.3835 25.7091 60.733C25.6091 58.8823 25.6554 57.536 25.7863 56.1676L32.1169 58.3253C32.1206 59.3207 32.1088 60.3533 32.0428 61.3416C31.7963 60.9884 31.172 60.6775 30.8396 60.6741C30.4518 60.67 30.1942 60.8474 29.9656 61.1851C29.7369 61.5229 29.6047 61.9708 29.6047 62.4611C29.6047 62.9513 29.7369 63.399 29.9656 63.7368C30.1942 64.0745 30.5336 64.3084 30.9213 64.3084C31.3091 64.3084 31.7542 64.0703 31.9971 63.7368C32.4183 63.1585 32.4241 62.3579 32.4278 62.0415L32.4972 56.1369C32.4987 56.0062 32.4001 55.8648 32.277 55.821L25.7617 53.5027C25.6332 53.4569 25.5414 53.5704 25.5364 53.66L25.5364 53.6598Z" fill="#D2D2D2"/>
<path d="M23.0433 59.508C23.6702 59.508 24.1784 58.7839 24.1784 57.8907C24.1784 56.9975 23.6702 56.2734 23.0433 56.2734C22.4164 56.2734 21.9082 56.9975 21.9082 57.8907C21.9082 58.7839 22.4164 59.508 23.0433 59.508Z" fill="#FF5A00"/>
<path d="M29.5648 61.583C30.1917 61.583 30.6999 60.9121 30.6999 60.0845C30.6999 59.2569 30.1917 58.5859 29.5648 58.5859C28.9379 58.5859 28.4297 59.2569 28.4297 60.0845C28.4297 60.9121 28.9379 61.583 29.5648 61.583Z" fill="#FF5A00"/>
<path d="M30.9171 53.5605L24.4019 51.2422L24.3783 53.2656L30.8935 55.5839L30.9171 53.5605Z" fill="#21CE94"/>
<path fill-rule="evenodd" clip-rule="evenodd" d="M24.37 51C24.2856 50.9991 24.1793 51.083 24.1787 51.1632C24.1664 52.9939 24.1654 55.0166 24.0637 56.6654C23.8609 56.3111 23.3925 56.0497 23.0424 56.0461C22.6403 56.042 22.2884 56.28 22.0514 56.6178C21.8144 56.9555 21.6772 57.4032 21.6772 57.8935C21.6772 58.3837 21.8144 58.8316 22.0514 59.1694C22.2884 59.5071 22.6403 59.7411 23.0424 59.7411C23.4444 59.7411 23.8054 59.5133 24.0333 59.1694C24.2851 58.7894 24.3594 58.4551 24.4025 58.0456C24.5522 56.6246 24.6033 55.0642 24.6097 53.586L30.6818 55.7465C30.6756 56.8462 30.6588 57.9431 30.5982 58.8999C30.3938 58.5817 29.9241 58.3485 29.574 58.3471C29.1719 58.3455 28.8211 58.5617 28.5857 58.8673C28.3503 59.1728 28.2153 59.5769 28.2176 60.0187C28.2199 60.4605 28.359 60.8635 28.5976 61.1665C28.8362 61.4696 29.1892 61.6787 29.5913 61.6766C29.9933 61.6746 30.3532 61.4673 30.5796 61.1562C30.8296 60.8125 30.9113 60.512 30.9436 60.1419C31.132 57.9783 31.1144 55.8093 31.1398 53.6401C31.1413 53.5094 31.0426 53.3682 30.9195 53.3244L24.4043 51.0058C24.3935 51.002 24.382 51.0001 24.3699 51L24.37 51ZM24.6219 51.5584L30.6913 53.7181L30.6843 55.2523L24.6037 53.1086L24.6219 51.5584ZM23.0423 56.5063C23.2672 56.5063 23.5006 56.6229 23.6567 56.8821C23.8916 57.2723 23.9688 57.6413 23.9425 58.0299C23.9218 58.3355 23.8183 58.6721 23.6567 58.9049C23.4841 59.1534 23.2672 59.2808 23.0423 59.2808C22.8175 59.2808 22.602 59.1525 22.4282 58.9049C22.2544 58.6573 22.1374 58.2965 22.1374 57.8935C22.1374 57.4905 22.2544 57.1297 22.4282 56.8821C22.602 56.6344 22.8175 56.5064 23.0423 56.5064V56.5063ZM29.5762 58.7619C29.8011 58.7608 30.0351 58.8645 30.1924 59.0972C30.4292 59.4476 30.5081 59.7797 30.4836 60.13C30.4643 60.4055 30.3623 60.7095 30.2018 60.9201C30.0304 61.1449 29.8141 61.2607 29.5892 61.2618C29.3644 61.263 29.1483 61.1486 28.9733 60.9264C28.7984 60.7041 28.6797 60.3796 28.6778 60.0165C28.6759 59.6534 28.7912 59.3275 28.9639 59.1035C29.1365 58.8795 29.3513 58.7631 29.5762 58.7619V58.7619Z" fill="url(#paint2_linear_5027_122338)"/>
<path fill-rule="evenodd" clip-rule="evenodd" d="M67.2114 53.9321V56.479C66.1577 54.9926 64.5736 53.9434 62.7937 53.9434H50.7271L43.8038 67.6908L38.4299 54.0423H34.1441C35.0554 63.2025 33.5909 69.3395 28.7041 71.1205L29.1147 75.7013C29.6877 75.6502 30.0564 75.466 30.5326 75.2658C34.2122 73.7186 36.927 70.463 38.0673 65.5818L42.0566 75.5052H45.1556L51.5515 62.0868V75.5374H55.9362V66.3064H60.6178C63.8905 66.3064 65.9973 65.4011 67.2114 64.0816V75.5374H81.388V71.6473H71.3656V66.5042H82.1709C82.7971 72.0566 87.0928 76.3538 92.2992 76.3538C97.9364 76.3538 102.835 71.3029 102.427 65.1022L102.29 63.0095H93.916V66.9658H98.2C97.8037 69.5833 96.2914 72.0491 92.7075 72.2826C90.3438 72.4367 86.175 70.1021 86.175 65.1169C86.175 61.5897 89.4831 57.982 93.2548 57.982V53.9141L92.2993 53.932C89.3797 53.9869 83.5134 56.3425 82.3112 62.6957V62.6469H71.4316V57.8006H81.487V53.932L67.2114 53.9321ZM55.8962 57.6712H61.3017C64.57 57.6712 66.2102 62.2631 60.9914 62.2631H55.8961L55.8962 57.6712Z" fill="#5A9494"/>
<path fill-rule="evenodd" clip-rule="evenodd" d="M30.1545 73.3623C30.1545 73.9826 30.0389 74.5775 29.8331 75.0162C29.6272 75.4548 29.3481 75.7012 29.057 75.7012C28.7659 75.7012 28.4868 75.4548 28.2809 75.0162C28.0751 74.5775 27.9595 73.9826 27.9595 73.3623C27.9595 72.742 28.0751 72.1471 28.2809 71.7085C28.4868 71.2699 28.7659 71.0234 29.057 71.0234C29.3481 71.0234 29.6272 71.2699 29.8331 71.7085C30.0389 72.1471 30.1545 72.742 30.1545 73.3623Z" fill="#215A5A"/>
<path fill-rule="evenodd" clip-rule="evenodd" d="M29.9173 73.6613C20.6377 74.2776 21.5699 69.8292 21.1441 65.6974C20.6484 60.8874 19.1511 57.4462 15.5083 55.0234L9.23047 62.1167C13.3477 63.645 17.5053 65.3354 18.1585 69.7872C18.8656 74.6061 22.363 75.1735 29.2834 75.2883L29.9173 73.6613Z" fill="#FFFF00"/>
<path fill-rule="evenodd" clip-rule="evenodd" d="M94.4103 55.9481C94.4103 56.4875 94.2886 57.0049 94.0719 57.3863C93.8552 57.7678 93.5614 57.9821 93.255 57.9821C93.1032 57.9821 92.953 57.9294 92.8128 57.8272C92.6727 57.725 92.5453 57.5752 92.438 57.3863C92.3307 57.1974 92.2456 56.9732 92.1876 56.7264C92.1295 56.4797 92.0996 56.2152 92.0996 55.9481C92.0996 55.681 92.1295 55.4165 92.1876 55.1697C92.2456 54.9229 92.3307 54.6987 92.438 54.5098C92.5453 54.3209 92.6727 54.1711 92.8128 54.0689C92.953 53.9667 93.1032 53.9141 93.255 53.9141C93.5614 53.9141 93.8552 54.1284 94.0719 54.5098C94.2886 54.8913 94.4103 55.4086 94.4103 55.9481Z" fill="#215A5A"/>
<path fill-rule="evenodd" clip-rule="evenodd" d="M15.3358 54.8692L9.05789 61.9623C8.9507 62.0834 8.99859 62.2744 9.15024 62.3306C11.2065 63.094 13.2578 63.8953 14.8594 65.0411C16.461 66.1869 17.6135 67.6583 17.9305 69.8188C18.2917 72.2809 19.4145 73.7288 21.3025 74.5123C23.1905 75.2959 25.8133 75.4589 29.2792 75.5166C29.3755 75.5182 29.4627 75.4598 29.4976 75.37L30.1315 73.7431C30.1927 73.5861 30.07 73.4187 29.9019 73.4299C27.5999 73.5827 25.945 73.4188 24.7619 73.0371C23.5787 72.6554 22.867 72.0666 22.4049 71.3351C21.4807 69.8721 21.5884 67.7634 21.3728 65.672C20.8734 60.8261 19.3378 57.2924 15.6356 54.83C15.5192 54.7615 15.4276 54.8116 15.3358 54.8691L15.3358 54.8692ZM15.5398 55.3332C16.8267 56.2169 17.8328 57.2306 18.6141 58.3967L14.0089 63.9551C12.6628 63.1854 11.1424 62.5858 9.62306 62.0184L15.5398 55.3332ZM18.8738 58.8045C19.5935 59.9883 20.1016 61.3224 20.4499 62.8299L17.0977 66.5754C16.5578 65.8379 15.8862 65.2099 15.127 64.6667C14.8957 64.5013 14.6558 64.344 14.4097 64.1926L18.8738 58.8045ZM20.569 63.387C20.7167 64.1242 20.8306 64.9002 20.9151 65.7192C20.9466 66.0256 20.9696 66.3355 20.9903 66.6459L18.3293 69.4199C18.1518 68.4907 17.817 67.681 17.3644 66.9675L20.569 63.387ZM21.0303 67.2691C21.0803 68.0734 21.1361 68.8728 21.2854 69.6278L19.0733 72.008C18.7741 71.451 18.5614 70.7834 18.4252 69.985L21.0303 67.2691ZM21.4119 70.1675C21.6313 70.8632 21.8724 71.4408 22.2853 71.9569L20.7679 73.7367C20.177 73.3951 19.6966 72.9673 19.3213 72.4171L21.4119 70.1675ZM22.5957 72.3025C23.0062 72.7083 23.5298 73.0534 24.1908 73.3194L23.3419 74.6182C22.5584 74.4449 21.8412 74.2662 21.1854 73.9566L22.5957 72.3025ZM24.6355 73.4795C25.2441 73.6743 25.9603 73.8097 26.7986 73.8806L26.2411 74.9482C25.3619 74.8942 24.5611 74.8161 23.8363 74.7026L24.6355 73.4795ZM29.5757 73.9017L29.1274 75.0516C28.951 75.0484 28.7863 75.0433 28.6144 75.0394L29.0366 73.9244C29.2129 73.9186 29.3916 73.9116 29.5757 73.9018L29.5757 73.9017ZM27.3001 73.9143C27.6888 73.9344 28.1019 73.9417 28.5402 73.9361L28.1265 75.0278C27.6496 75.0144 27.1855 74.9986 26.7452 74.9765L27.3001 73.9143Z" fill="url(#paint3_linear_5027_122338)"/>
<path d="M15.8966 56.5583L15.5127 56.2109L14.9427 56.8408L15.3266 57.1882L15.8966 56.5583Z" fill="url(#paint4_linear_5027_122338)"/>
<path d="M16.7341 57.2845L16.3867 56.9609L15.8829 57.5616L16.2303 57.8851L16.7341 57.2845Z" fill="url(#paint5_linear_5027_122338)"/>
<path d="M17.7735 58.238L17.3896 57.8906L16.8196 58.5205L17.2035 58.8679L17.7735 58.238Z" fill="url(#paint6_linear_5027_122338)"/>
<path d="M11.7196 61.4632L11.3276 61.125L10.7727 61.7682L11.1647 62.1064L11.7196 61.4632Z" fill="url(#paint7_linear_5027_122338)"/>
<path d="M13.0111 61.932L12.6191 61.5938L12.0642 62.237L12.4562 62.5752L13.0111 61.932Z" fill="url(#paint8_linear_5027_122338)"/>
<path d="M14.3361 62.5464L13.9761 62.25L13.4664 62.8136L13.8264 63.11L14.3361 62.5464Z" fill="url(#paint9_linear_5027_122338)"/>
<path d="M16.0372 63.8542L15.7559 63.5469L15.2548 64.0133L15.5361 64.3207L16.0372 63.8542Z" fill="url(#paint10_linear_5027_122338)"/>
<path d="M19.7549 61.9657L19.5391 61.6094L18.9566 61.969L19.1725 62.3254L19.7549 61.9657Z" fill="url(#paint11_linear_5027_122338)"/>
<path d="M19.1296 60.5423L18.7822 60.2188L18.2784 60.8194L18.6258 61.143L19.1296 60.5423Z" fill="url(#paint12_linear_5027_122338)"/>
<path d="M17.3411 64.8905L17.0137 64.5469L16.475 65.1164L16.8024 65.4601L17.3411 64.8905Z" fill="url(#paint13_linear_5027_122338)"/>
<path d="M18.6964 67.4408L18.4111 67.0938L18.0088 67.4375L18.2941 67.7846L18.6964 67.4408Z" fill="url(#paint14_linear_5027_122338)"/>
<path d="M20.4792 65.6711L20.3359 65.2344L19.8829 65.3684L20.0261 65.8051L20.4792 65.6711Z" fill="url(#paint15_linear_5027_122338)"/>
<path d="M96.8291 54.1329C97.7069 54.1462 97.8445 55.1405 97.8461 55.7333C97.8481 56.4772 97.6054 57.3315 96.8291 57.3315C96.0139 57.3315 95.8135 56.3287 95.812 55.7269C95.8102 54.9839 96.0547 54.1212 96.8291 54.1329ZM96.8291 54.6308C96.6347 54.6205 96.5433 54.7956 96.5022 54.9491C96.4606 55.1043 96.4402 55.3658 96.4402 55.7333C96.4402 56.1008 96.4608 56.3531 96.4957 56.4918C96.5483 56.7001 96.6431 56.8238 96.8291 56.8337C97.0245 56.844 97.1146 56.6693 97.156 56.5153C97.1973 56.3615 97.2179 56.1008 97.2179 55.7333C97.2179 55.3658 97.1972 55.1142 97.1624 54.9769C97.1096 54.7692 97.0145 54.6406 96.8291 54.6308V54.6308Z" fill="url(#paint16_linear_5027_122338)"/>
<path d="M103.725 54.0396C104.998 54.4333 104.774 55.9399 104.524 56.8037C104.209 57.8878 103.492 59.0284 102.361 58.6972C101.174 58.3496 101.31 56.8039 101.564 55.9269C101.879 54.8442 102.602 53.6923 103.725 54.0396H103.725ZM103.513 54.7645C103.234 54.6667 103.026 54.8826 102.901 55.0887C102.774 55.297 102.633 55.669 102.476 56.2042C102.32 56.7393 102.242 57.1155 102.234 57.3324C102.221 57.6581 102.307 57.8787 102.573 57.9723C102.854 58.0708 103.059 57.8548 103.185 57.6481C103.311 57.4418 103.452 57.071 103.609 56.5358C103.766 56.0007 103.843 55.6255 103.851 55.4107C103.862 55.0858 103.779 54.8578 103.513 54.7645H103.513Z" fill="url(#paint17_linear_5027_122338)"/>
<path d="M114.565 53.4862C116.244 53.0293 117.053 54.848 117.381 55.9763C117.794 57.3923 117.801 59.1532 116.322 59.5796C114.769 60.0273 113.836 58.2271 113.503 57.0813C113.091 55.6669 113.083 53.8891 114.565 53.4861L114.565 53.4862ZM114.838 54.4346C114.462 54.5219 114.384 54.9055 114.39 55.2207C114.397 55.5392 114.501 56.0484 114.703 56.7486C114.905 57.4487 115.083 57.9181 115.226 58.163C115.44 58.531 115.689 58.7145 116.048 58.6312C116.426 58.5436 116.502 58.1613 116.496 57.8451C116.491 57.5294 116.387 57.0214 116.185 56.3213C115.983 55.6212 115.805 55.1533 115.663 54.9109C115.449 54.5441 115.197 54.3513 114.838 54.4345V54.4346Z" fill="url(#paint18_linear_5027_122338)"/>
<path d="M100.535 55.9808L99.812 56.15L99.1741 53.4266C98.9679 53.7354 98.6995 53.9908 98.3689 54.193L98.2153 53.5373C98.3895 53.4314 98.567 53.2668 98.748 53.0436C98.9286 52.8186 99.0332 52.5817 99.0617 52.3326L99.648 52.1953L100.535 55.9808Z" fill="url(#paint19_linear_5027_122338)"/>
<path d="M106.89 58.8208L106.048 58.3271L107.908 55.1527C107.432 55.26 106.945 55.2603 106.446 55.1534L106.894 54.389C107.156 54.4459 107.475 54.45 107.85 54.4012C108.226 54.3505 108.54 54.2194 108.793 54.0078L109.476 54.4084L106.89 58.8208Z" fill="url(#paint20_linear_5027_122338)"/>
<path d="M111.441 62.1915L110.38 62.1931L110.374 58.194C109.987 58.5572 109.53 58.826 109.004 59.0005L109.003 58.0375C109.28 57.9465 109.58 57.7748 109.905 57.5226C110.229 57.2678 110.451 56.9717 110.572 56.6341L111.433 56.6328L111.441 62.1915Z" fill="url(#paint21_linear_5027_122338)"/>
</g>
<defs>
<linearGradient id="paint0_linear_5027_122338" x1="64" y1="0" x2="64" y2="128" gradientUnits="userSpaceOnUse">
<stop stop-color="#FAFAFA"/>
<stop offset="1" stop-color="#E4E4E3"/>
</linearGradient>
<linearGradient id="paint1_linear_5027_122338" x1="2333.81" y1="2981.42" x2="2289.52" y2="2988.75" gradientUnits="userSpaceOnUse">
<stop/>
</linearGradient>
<linearGradient id="paint2_linear_5027_122338" x1="2339.4" y1="2988.48" x2="2333.76" y2="2989.42" gradientUnits="userSpaceOnUse">
<stop/>
</linearGradient>
<linearGradient id="paint3_linear_5027_122338" x1="2345.23" y1="2976.93" x2="2332.63" y2="2979.01" gradientUnits="userSpaceOnUse">
<stop/>
</linearGradient>
<linearGradient id="paint4_linear_5027_122338" x1="-232.113" y1="3794.51" x2="-232.376" y2="3794.34" gradientUnits="userSpaceOnUse">
<stop/>
</linearGradient>
<linearGradient id="paint5_linear_5027_122338" x1="-172.383" y1="3891.88" x2="-172.627" y2="3891.74" gradientUnits="userSpaceOnUse">
<stop/>
</linearGradient>
<linearGradient id="paint6_linear_5027_122338" x1="-233.625" y1="3794.05" x2="-233.887" y2="3793.88" gradientUnits="userSpaceOnUse">
<stop/>
</linearGradient>
<linearGradient id="paint7_linear_5027_122338" x1="-135.812" y1="3786.58" x2="-136.078" y2="3786.42" gradientUnits="userSpaceOnUse">
<stop/>
</linearGradient>
<linearGradient id="paint8_linear_5027_122338" x1="-137.142" y1="3787.26" x2="-137.409" y2="3787.1" gradientUnits="userSpaceOnUse">
<stop/>
</linearGradient>
<linearGradient id="paint9_linear_5027_122338" x1="-154.57" y1="3700.89" x2="-154.809" y2="3700.74" gradientUnits="userSpaceOnUse">
<stop/>
</linearGradient>
<linearGradient id="paint10_linear_5027_122338" x1="-563.487" y1="3765.39" x2="-563.686" y2="3765.24" gradientUnits="userSpaceOnUse">
<stop/>
</linearGradient>
<linearGradient id="paint11_linear_5027_122338" x1="-1289.87" y1="3592.01" x2="-1290.04" y2="3591.82" gradientUnits="userSpaceOnUse">
<stop/>
</linearGradient>
<linearGradient id="paint12_linear_5027_122338" x1="-173.81" y1="3889.68" x2="-174.054" y2="3889.53" gradientUnits="userSpaceOnUse">
<stop/>
</linearGradient>
<linearGradient id="paint13_linear_5027_122338" x1="-398.882" y1="3865.12" x2="-399.117" y2="3864.96" gradientUnits="userSpaceOnUse">
<stop/>
</linearGradient>
<linearGradient id="paint14_linear_5027_122338" x1="-743.535" y1="3752.69" x2="-743.742" y2="3752.52" gradientUnits="userSpaceOnUse">
<stop/>
</linearGradient>
<linearGradient id="paint15_linear_5027_122338" x1="-2095.69" y1="3102.69" x2="-2095.81" y2="3102.44" gradientUnits="userSpaceOnUse">
<stop/>
</linearGradient>
<linearGradient id="paint16_linear_5027_122338" x1="2296.03" y1="3000.51" x2="2294.82" y2="3000.72" gradientUnits="userSpaceOnUse">
<stop/>
</linearGradient>
<linearGradient id="paint17_linear_5027_122338" x1="2292.91" y1="3002.28" x2="2290.93" y2="3002.61" gradientUnits="userSpaceOnUse">
<stop/>
</linearGradient>
<linearGradient id="paint18_linear_5027_122338" x1="2286.35" y1="3006.53" x2="2283.76" y2="3006.96" gradientUnits="userSpaceOnUse">
<stop/>
</linearGradient>
<linearGradient id="paint19_linear_5027_122338" x1="2295.36" y1="3005.36" x2="2293.98" y2="3005.59" gradientUnits="userSpaceOnUse">
<stop/>
</linearGradient>
<linearGradient id="paint20_linear_5027_122338" x1="2290.25" y1="3003.4" x2="2288.21" y2="3003.74" gradientUnits="userSpaceOnUse">
<stop/>
</linearGradient>
<linearGradient id="paint21_linear_5027_122338" x1="2287.62" y1="2998.4" x2="2286.17" y2="2998.64" gradientUnits="userSpaceOnUse">
<stop/>
</linearGradient>
<clipPath id="clip0_5027_122338">
<rect width="128" height="128" fill="white"/>
</clipPath>
</defs>
</svg>
