<svg width="128" height="128" viewBox="0 0 128 128" fill="none" xmlns="http://www.w3.org/2000/svg">
<path d="M64.5225 86.6889L44.5478 76.7015V52.1172L64.5225 62.1046V86.6889Z" fill="url(#paint0_linear_1878_53)"/>
<path d="M64.5227 86.6889L84.4974 76.7015V52.1172L64.5227 62.1046V86.6889Z" fill="url(#paint1_linear_1878_53)"/>
<path d="M44.5478 52.1202L63.7543 42.1328L84.4973 52.1202L64.5226 62.1076L44.5478 52.1202Z" fill="url(#paint2_linear_1878_53)"/>
<path fill-rule="evenodd" clip-rule="evenodd" d="M18 15.2404C18 9.58479 22.5848 5 28.2404 5L100.179 5C105.835 5 110.42 9.58479 110.42 15.2404L110.42 112.76C110.42 118.415 105.835 123 100.179 123L28.2404 123C22.5848 123 18 118.415 18 112.76L18 15.2404ZM53.4957 11.1434C53.4957 10.3894 54.1069 9.77819 54.8609 9.77819L72.6086 9.77819C73.3626 9.77819 73.9739 10.3894 73.9739 11.1434C73.9739 11.8974 73.3626 12.5086 72.6086 12.5086L54.8609 12.5086C54.1069 12.5086 53.4957 11.8974 53.4957 11.1434ZM63.7346 119.354C66.3735 119.354 68.5128 117.214 68.5128 114.575C68.5128 111.936 66.3735 109.797 63.7346 109.797C61.0956 109.797 58.9563 111.936 58.9563 114.575C58.9563 117.214 61.0956 119.354 63.7346 119.354Z" fill="url(#paint3_linear_1878_53)"/>
<rect x="27.9021" y="17.375" width="72.6154" height="87.4685" rx="2.9892" fill="url(#paint4_linear_1878_53)"/>
<path d="M63.9677 86.3764L43.993 76.389V51.8047L63.9677 61.7921V86.3764Z" fill="url(#paint5_linear_1878_53)"/>
<path d="M63.9679 86.3764L83.9426 76.389V51.8047L63.9679 61.7921V86.3764Z" fill="url(#paint6_linear_1878_53)"/>
<path d="M43.9931 51.8077L63.1996 41.8203L83.9426 51.8077L63.9678 61.7951L43.9931 51.8077Z" fill="url(#paint7_linear_1878_53)"/>
<defs>
<linearGradient id="paint0_linear_1878_53" x1="54.5352" y1="52.1172" x2="54.5352" y2="86.6889" gradientUnits="userSpaceOnUse">
<stop stop-color="#BBE0ED"/>
<stop offset="1" stop-color="#33A6CC"/>
</linearGradient>
<linearGradient id="paint1_linear_1878_53" x1="74.51" y1="52.1172" x2="74.51" y2="86.6889" gradientUnits="userSpaceOnUse">
<stop stop-color="#33A6CC"/>
<stop offset="1" stop-color="#BBE0ED"/>
</linearGradient>
<linearGradient id="paint2_linear_1878_53" x1="64.5226" y1="42.1328" x2="64.5226" y2="62.1076" gradientUnits="userSpaceOnUse">
<stop stop-color="#81D1EC"/>
<stop offset="1" stop-color="#1C7C9B"/>
</linearGradient>
<linearGradient id="paint3_linear_1878_53" x1="64.0759" y1="5" x2="64.0759" y2="135.378" gradientUnits="userSpaceOnUse">
<stop stop-color="#D3D7DD"/>
<stop offset="1" stop-color="#888C90"/>
</linearGradient>
<linearGradient id="paint4_linear_1878_53" x1="45.798" y1="19.799" x2="86.2316" y2="104.637" gradientUnits="userSpaceOnUse">
<stop stop-color="#585656"/>
<stop offset="1"/>
</linearGradient>
<linearGradient id="paint5_linear_1878_53" x1="53.9804" y1="51.8047" x2="53.9804" y2="86.3764" gradientUnits="userSpaceOnUse">
<stop stop-color="#BBE0ED"/>
<stop offset="1" stop-color="#33A6CC"/>
</linearGradient>
<linearGradient id="paint6_linear_1878_53" x1="73.9553" y1="51.8047" x2="73.9553" y2="86.3764" gradientUnits="userSpaceOnUse">
<stop stop-color="#33A6CC"/>
<stop offset="1" stop-color="#BBE0ED"/>
</linearGradient>
<linearGradient id="paint7_linear_1878_53" x1="63.9678" y1="41.8203" x2="63.9678" y2="61.7951" gradientUnits="userSpaceOnUse">
<stop stop-color="#81D1EC"/>
<stop offset="1" stop-color="#1C7C9B"/>
</linearGradient>
</defs>
</svg>
