<svg width="128" height="128" viewBox="0 0 128 128" fill="none" xmlns="http://www.w3.org/2000/svg">
<g clip-path="url(#clip0_4935_19820)">
<path d="M-0.735596 78.8506H128.736V108.276H-0.735596V78.8506Z" fill="url(#paint0_linear_4935_19820)"/>
<path d="M-0.735596 49.4253H128.736V78.8506H-0.735596V49.4253Z" fill="#ECEFF1"/>
<path d="M-0.735596 20H128.736V49.4253H-0.735596V20Z" fill="#FF3D00"/>
<path d="M75.7701 72.9655C75.7701 74.5927 74.4548 75.908 72.8276 75.908L64 70.0229L55.1724 75.908C53.5452 75.908 52.2299 74.5927 52.2299 72.9655V61.1953C52.2299 59.5681 53.5452 58.2528 55.1724 58.2528H72.8276C74.4548 58.2528 75.7701 59.5681 75.7701 61.1953V72.9655Z" fill="#FFB300"/>
<path d="M66.9426 61.1955C66.9426 62.8227 65.6272 64.138 64 64.138C62.3728 64.138 61.0575 62.8227 61.0575 61.1955V55.3104C61.0575 53.6832 62.3728 52.3679 64 52.3679C65.6272 52.3679 66.9426 53.6832 66.9426 55.3104V61.1955ZM61.0575 75.9082H66.9426L64 70.0231L61.0575 75.9082Z" fill="#FFB300"/>
</g>
<defs>
<linearGradient id="paint0_linear_4935_19820" x1="64" y1="78.8506" x2="64" y2="108.276" gradientUnits="userSpaceOnUse">
<stop stop-color="#595454"/>
<stop offset="1" stop-color="#424242"/>
</linearGradient>
<clipPath id="clip0_4935_19820">
<rect y="20" width="128" height="88.2759" rx="2" fill="white"/>
</clipPath>
</defs>
</svg>
