<svg width="128" height="128" viewBox="0 0 128 128" fill="none" xmlns="http://www.w3.org/2000/svg">
<g clip-path="url(#clip0_4935_18041)">
<path d="M-0.735596 20H128.736V108.276H-0.735596V20Z" fill="url(#paint0_linear_4935_18041)"/>
<path d="M-0.735596 25.3583L25.706 41.5187L29.6813 35.0128L5.12004 20H-0.735596V25.3583Z" fill="white"/>
<path d="M55.1724 20H50.5879L26.0266 35.0098L30.002 41.5158L55.1724 26.1322V20Z" fill="white"/>
<path d="M29.999 33.05L26.0237 39.556L52.2357 55.578H55.1724V48.4365L29.999 33.05Z" fill="white"/>
<path d="M-0.735596 49.2133V55.578H3.46928L29.6813 39.5589L25.706 33.053L-0.735596 49.2133Z" fill="white"/>
<path d="M-0.735596 32.7058H55.1725V42.8723H-0.735596V32.7058Z" fill="white"/>
<path d="M22.1367 20H32.3032V55.5781H22.1367V20Z" fill="white"/>
<path d="M18.5998 32.7058L-0.735596 20.8886V23.8665L13.7269 32.7058H18.5998ZM53.0244 20L32.2354 32.7058H37.1083L55.1725 21.6655V20H53.0244ZM38.759 42.8723L55.1725 52.9034V49.9255L43.6319 42.8723H38.759ZM16.949 42.8723L-0.735596 53.6802V55.5781H1.03286L21.8218 42.8723H16.949ZM-0.735596 35.2482H55.1725V40.3299H-0.735596V35.2482Z" fill="#E53935"/>
<path d="M24.676 20H29.7578V55.5781H24.676V20Z" fill="#E53935"/>
<path d="M104.38 63.0933C104.38 63.0933 100.976 63.1433 99.6547 65.0236C98.3335 66.9038 98.3335 66.9038 98.3335 66.9038L98.9956 68.2751C98.9956 68.2751 102.756 66.7508 104.636 66.7008C106.517 66.6508 104.38 63.0933 104.38 63.0933Z" fill="#E3F2FD"/>
<path d="M98.9955 68.4223C98.9396 68.4223 98.8867 68.39 98.8631 68.34L98.2011 66.9687C98.1775 66.9217 98.1834 66.8658 98.2128 66.8216L99.534 64.9384C100.882 63.0199 104.236 62.9463 104.377 62.9434C104.377 62.9434 104.377 62.9434 104.38 62.9434C104.433 62.9434 104.48 62.9698 104.507 63.014C104.657 63.2612 105.955 65.4769 105.434 66.4244C105.287 66.6921 105.019 66.8363 104.639 66.8452C102.806 66.8981 99.0867 68.3929 99.0485 68.4076C99.0308 68.4194 99.0132 68.4223 98.9955 68.4223ZM98.5041 66.9187L99.0691 68.0869C99.7547 67.8132 102.921 66.598 104.633 66.5538C104.907 66.545 105.084 66.4597 105.181 66.2861C105.54 65.6299 104.707 63.935 104.304 63.2406C103.777 63.267 100.929 63.473 99.7812 65.1061L98.5041 66.9187Z" fill="#263238"/>
<path d="M105.043 57.8086C105.043 57.8086 103.671 61.7221 103.671 62.4342C103.671 63.1463 104.027 66.8539 103.721 69.1932C103.415 71.5296 103.618 75.5961 103.974 76.9674C104.33 78.3386 104.84 80.9309 107.379 81.387C109.918 81.8431 111.089 78.9977 111.089 78.9977L111.546 70.5615L109.868 62.5843L109.715 57.7056L105.043 57.8086Z" fill="#E3F2FD"/>
<path d="M107.92 81.5841C107.738 81.5841 107.552 81.5694 107.355 81.5311C104.866 81.0868 104.26 78.6828 103.898 77.2497L103.836 77.0026C103.471 75.596 103.28 71.4706 103.577 69.1725C103.809 67.3982 103.656 64.7881 103.574 63.3845C103.548 62.9314 103.527 62.6048 103.527 62.4341C103.527 61.7044 104.851 57.9203 104.907 57.7584C104.928 57.6996 104.981 57.6613 105.042 57.6613L109.718 57.5613C109.718 57.5613 109.718 57.5613 109.721 57.5613C109.8 57.5613 109.865 57.6231 109.868 57.7025L110.021 62.5812L111.695 70.5319C111.698 70.5467 111.698 70.5584 111.698 70.5731L111.242 79.0094C111.242 79.027 111.239 79.0417 111.233 79.0565C111.213 79.0829 110.159 81.5841 107.92 81.5841ZM105.145 57.9497C104.745 59.1032 103.815 61.8839 103.815 62.4312C103.815 62.5959 103.836 62.9343 103.862 63.3639C103.945 64.7734 104.104 67.404 103.865 69.2078C103.568 71.4765 103.757 75.5431 104.116 76.9231L104.177 77.1732C104.525 78.5386 105.101 80.8249 107.402 81.2398C109.668 81.6488 110.827 79.2183 110.942 78.9623L111.395 70.5702L109.724 62.6136L109.574 57.8526L105.145 57.9497Z" fill="#263238"/>
<path d="M113.223 85.0446L113.173 83.8764L108.65 80.878L103.771 80.828L102.297 80.5749L101.332 79.3538L95.082 79.4067L93.9639 82.4022L95.7941 86.1628H102.703V85.0976L113.223 85.0446Z" fill="#FAFAFA"/>
<path d="M102.703 86.3098H95.7912C95.7353 86.3098 95.6823 86.2774 95.6588 86.2274L93.8285 82.4669C93.8109 82.4316 93.8079 82.3904 93.8226 82.3521L94.9408 79.3537C94.9614 79.2948 95.0173 79.2595 95.0762 79.2595L101.326 79.2065C101.37 79.2065 101.414 79.2271 101.441 79.2624L102.371 80.4395L103.789 80.6837L108.644 80.7337C108.674 80.7337 108.7 80.7425 108.724 80.7573L113.246 83.7557C113.285 83.7822 113.308 83.8234 113.311 83.8734L113.361 85.0416C113.364 85.0828 113.349 85.1181 113.32 85.1475C113.29 85.1769 113.255 85.1946 113.214 85.1946L102.842 85.2476V86.1656C102.85 86.2451 102.786 86.3098 102.703 86.3098ZM95.8854 86.0185H102.559V85.1004C102.559 85.021 102.624 84.9533 102.706 84.9533L113.07 84.9003L113.029 83.9587L108.606 81.028L103.771 80.975L102.274 80.719C102.238 80.7131 102.206 80.6955 102.182 80.666L101.261 79.5008L95.185 79.5538L94.1257 82.3962L95.8854 86.0185Z" fill="#263238"/>
<path d="M85.9337 70.2083L81.464 70.5643L72.4687 81.3869L71.0975 83.3702L71.3005 84.1823L70.6384 85.2505L71.6565 85.8596L74.449 84.3854L73.5339 85.7566L74.805 86.9248L76.1262 86.5187L77.3474 84.9945L79.0246 86.2156L80.7519 86.1126L81.411 85.5535L82.5292 87.0277L84.0034 86.1626L84.3594 86.7747L85.8336 86.5187L86.6958 86.8747L87.8669 85.4535L88.9822 85.9596L92.0836 81.2839L85.9337 70.2083Z" fill="#6D4C41"/>
<path d="M82.5291 87.1749C82.485 87.1749 82.4408 87.1543 82.4114 87.1161L81.3874 85.7654L80.8431 86.2215C80.8195 86.2421 80.7871 86.2539 80.7577 86.2568L79.0305 86.3598C78.9922 86.3422 78.9628 86.351 78.9363 86.3304L77.3738 85.1916L76.2409 86.607C76.2233 86.6305 76.1968 86.6482 76.1703 86.657L74.8491 87.0631C74.7991 87.0749 74.7461 87.066 74.7079 87.0307L73.4367 85.8655C73.3837 85.8155 73.3749 85.736 73.4132 85.6772L74.0076 84.7826L71.7242 85.9861C71.68 86.0126 71.6271 86.0126 71.58 85.9832L70.5648 85.3741C70.5324 85.3535 70.506 85.3182 70.5001 85.2829C70.4912 85.2446 70.4971 85.2064 70.5177 85.171L71.1445 84.1529L70.9591 83.3996C70.9503 83.3584 70.9562 83.3173 70.9797 83.2819L72.3509 81.3016L81.3521 70.4643C81.3786 70.4349 81.4139 70.4143 81.4551 70.4113L85.9277 70.0553C85.9866 70.0406 86.0396 70.0818 86.069 70.1288L92.2189 81.2075C92.2454 81.2575 92.2424 81.3134 92.213 81.3605L89.1116 86.0361C89.0733 86.0979 88.9968 86.1215 88.9291 86.0921L87.9139 85.6301L86.8164 86.966C86.7781 87.0219 86.7105 87.0425 86.6457 87.0101L85.8218 86.6717L84.3888 86.916C84.3388 86.9366 84.2682 86.9013 84.2387 86.8483L83.9562 86.3657L82.6115 87.1573C82.5821 87.169 82.5556 87.1749 82.5291 87.1749ZM81.411 85.4094C81.4168 85.4094 81.4227 85.4094 81.4257 85.4094C81.4669 85.4153 81.5022 85.4359 81.5287 85.4682L82.5674 86.8395L83.9268 86.042C83.9592 86.0185 83.9974 86.0126 84.0386 86.0244C84.0769 86.0361 84.1093 86.0597 84.1269 86.0921L84.4329 86.6158L85.8071 86.3804C85.8277 86.3745 85.863 86.3745 85.8865 86.3893L86.6487 86.7012L87.7492 85.3623C87.7904 85.3064 87.8669 85.2946 87.9228 85.3182L88.9262 85.7743L91.907 81.281L85.8454 70.3642L81.5316 70.7056L72.5775 81.4841L71.2504 83.3967L71.4358 84.147C71.4446 84.1853 71.4387 84.2235 71.4181 84.2589L70.8385 85.2005L71.6535 85.6889L74.3754 84.2559C74.4372 84.2265 74.5107 84.2383 74.5549 84.2883C74.599 84.3383 74.6049 84.4119 74.5666 84.4678L73.7221 85.739L74.8374 86.763L76.035 86.3981L77.2267 84.9062C77.2738 84.8415 77.362 84.8327 77.4268 84.8797L79.0628 86.0685L80.69 85.9714L81.3139 85.4447C81.3462 85.4182 81.3786 85.4094 81.411 85.4094Z" fill="#263238"/>
<path d="M89.0352 80.1157L87.917 80.6748L88.12 81.1839L87.967 82.199L88.6291 81.996L88.9822 83.2171L89.5413 83.2672L89.3382 84.9444L90.0003 84.7914V85.8595L90.8124 85.6565L90.8625 87.0777L91.8806 86.4186L92.7957 87.8928L93.3548 86.9247L94.1169 87.6868L94.676 86.8247L95.5381 87.3337L95.8942 86.6217L97.4714 87.4338L97.6215 86.5187L98.7396 86.6717L98.0805 85.7065L98.6896 85.4535L97.3684 84.6384L97.8775 84.2823L96.6563 83.2171L97.4714 82.8111L96.1472 81.946L96.8593 81.3869L94.929 80.4718L89.0352 80.1157Z" fill="#43A047"/>
<path d="M92.7957 88.0372C92.7457 88.0372 92.6986 88.0107 92.6721 87.9695L91.8364 86.6218L90.9478 87.2015C90.9007 87.225 90.8477 87.2309 90.8007 87.2074C90.7536 87.1838 90.7242 87.1367 90.7212 87.0838L90.6771 85.842L90.0415 86.0039C89.9944 86.0127 89.9503 86.0039 89.915 85.9744C89.8796 85.948 89.859 85.9068 89.859 85.8597V84.9769L89.3765 85.0887C89.3294 85.1035 89.2823 85.0887 89.247 85.0534C89.2117 85.0211 89.1911 84.974 89.197 84.9269L89.3824 83.3968L88.9733 83.3585C88.9116 83.3526 88.8615 83.3114 88.8468 83.2526L88.5349 82.1786L88.017 82.3404C87.967 82.3492 87.917 82.3434 87.8787 82.311C87.8405 82.2757 87.8228 82.2286 87.8287 82.1756L87.9758 81.1987L87.7875 80.7279C87.7581 80.6573 87.7905 80.5749 87.8581 80.5425L88.9763 79.9864C88.9998 79.9746 89.0293 79.9776 89.0499 79.9717L94.9437 80.3248C94.9614 80.3248 94.982 80.3307 94.9996 80.3395L96.93 81.2576C96.977 81.2782 97.0065 81.3223 97.0123 81.3723C97.0182 81.4253 96.9976 81.4724 96.9564 81.5047L96.4062 81.9343L97.5567 82.6876C97.6008 82.7171 97.6244 82.7671 97.6214 82.82C97.6185 82.873 97.5891 82.9201 97.542 82.9436L96.9241 83.2497L97.9775 84.1707C98.0128 84.203 98.0304 84.2442 98.0275 84.2913C98.0246 84.3384 98.001 84.3766 97.9657 84.4031L97.642 84.6268L98.772 85.3212C98.8191 85.3506 98.8455 85.4036 98.8396 85.4595C98.8338 85.5154 98.8014 85.5625 98.7514 85.5831L98.3071 85.7685L98.8632 86.5835C98.8956 86.6336 98.8985 86.6954 98.8661 86.7454C98.8338 86.7954 98.7837 86.8101 98.7219 86.8131L97.745 86.6777L97.6156 87.4516C97.6097 87.5016 97.5773 87.5369 97.5361 87.5605C97.492 87.5781 97.4449 87.5811 97.4037 87.5575L95.9619 86.8131L95.6735 87.3927C95.6558 87.431 95.6205 87.4545 95.5823 87.4663C95.547 87.484 95.5028 87.4751 95.4646 87.4516L94.7231 87.0161L94.2405 87.7635C94.2169 87.8017 94.1787 87.8253 94.1316 87.8282C94.0875 87.8253 94.0433 87.8194 94.011 87.7841L93.3842 87.1544L92.9222 87.9548C92.8957 88.0077 92.8487 88.0372 92.7957 88.0372ZM91.8806 86.2687C91.8894 86.2687 91.9012 86.2687 91.9129 86.2716C91.9512 86.2805 91.9836 86.304 92.0071 86.3364L92.7927 87.6017L93.2282 86.8484C93.2518 86.8101 93.29 86.7836 93.3371 86.7777C93.3783 86.7748 93.4283 86.7895 93.4607 86.8219L94.0963 87.4575L94.5553 86.7454C94.5995 86.6806 94.6877 86.66 94.7525 86.6983L95.4793 87.1279L95.7647 86.5571C95.7824 86.5217 95.8147 86.4953 95.85 86.4835C95.8912 86.4776 95.9265 86.4747 95.9648 86.4953L97.3596 87.2132L97.4802 86.5012C97.492 86.4305 97.5538 86.3776 97.6244 86.3776C97.6303 86.3776 97.6361 86.3776 97.645 86.3776L98.4336 86.4864L97.9598 85.7949C97.9333 85.7567 97.9275 85.7126 97.9392 85.6714C97.951 85.6272 97.9834 85.5948 98.0216 85.5772L98.3688 85.4301L97.2919 84.768C97.2507 84.7415 97.2242 84.6974 97.2242 84.6444C97.2242 84.5944 97.2448 84.5503 97.286 84.5208L97.6391 84.2737L96.5621 83.332C96.5239 83.2967 96.5062 83.2497 96.5121 83.1996C96.518 83.1526 96.5504 83.1114 96.5916 83.0878L97.1771 82.7965L96.0707 82.0726C96.0295 82.0462 96.006 82.005 96.006 81.9549C96.003 81.9079 96.0236 81.8637 96.0619 81.8343L96.5857 81.4223L94.8967 80.622L89.0705 80.2718L88.1082 80.7514L88.2613 81.134C88.2701 81.1575 88.273 81.1869 88.2701 81.2105L88.1524 81.9961L88.5908 81.8608C88.632 81.8578 88.6673 81.8549 88.7056 81.8726C88.7409 81.8902 88.7674 81.9255 88.7762 81.9608L89.1028 83.0819L89.5619 83.1261C89.603 83.129 89.6384 83.1496 89.6648 83.182C89.6884 83.2143 89.7002 83.2497 89.6972 83.2909L89.5177 84.7621L89.9738 84.6562C90.0209 84.6444 90.0621 84.6562 90.0974 84.6856C90.1327 84.715 90.1533 84.7533 90.1533 84.8004V85.6772L90.783 85.5183C90.8242 85.5007 90.8713 85.5154 90.9066 85.5448C90.9419 85.5713 90.9625 85.6125 90.9654 85.6566L91.0066 86.8219L91.8041 86.3011C91.8247 86.2775 91.8511 86.2687 91.8806 86.2687Z" fill="#263238"/>
<path d="M77.5005 96.8853L77.6035 99.5277C77.6035 99.5277 80.958 99.8838 83.2943 101.561C83.7504 99.4277 84.0064 97.6474 84.0064 97.6474C84.0064 97.6474 79.7868 96.0232 77.5005 96.8853Z" fill="#DD2C00"/>
<path d="M83.2912 101.708C83.2618 101.708 83.2294 101.699 83.2059 101.682C80.9284 100.048 77.618 99.6777 77.5856 99.6747C77.515 99.6659 77.4591 99.607 77.4562 99.5335L77.3532 96.8911C77.3502 96.8293 77.3885 96.7705 77.4473 96.7469C79.7543 95.8671 83.8827 97.4443 84.0563 97.512C84.1181 97.5384 84.1593 97.6032 84.1475 97.6709C84.1475 97.6885 83.8885 99.4776 83.4354 101.593C83.4266 101.643 83.3913 101.682 83.3442 101.699C83.3265 101.705 83.3089 101.708 83.2912 101.708ZM77.7416 99.3952C78.3654 99.4776 81.099 99.9013 83.1941 101.311C83.5531 99.61 83.7797 98.1564 83.8415 97.7444C83.1765 97.5002 79.6719 96.2967 77.6504 96.9852L77.7416 99.3952Z" fill="#263238"/>
<path d="M108.547 96.2761L108.444 98.9185C108.444 98.9185 105.089 99.2746 102.753 100.952C102.297 98.8185 102.041 97.0382 102.041 97.0382C102.041 97.0382 106.261 95.411 108.547 96.2761Z" fill="#DD2C00"/>
<path d="M102.753 101.099C102.736 101.099 102.718 101.096 102.7 101.09C102.653 101.073 102.621 101.031 102.609 100.984C102.156 98.8686 101.897 97.0766 101.897 97.0589C101.888 96.9942 101.926 96.9265 101.988 96.9C102.165 96.8353 106.284 95.264 108.597 96.1379C108.656 96.1614 108.694 96.2174 108.691 96.2821L108.588 98.9245C108.585 98.9951 108.529 99.0569 108.459 99.0657C108.426 99.0687 105.116 99.4394 102.839 101.073C102.812 101.09 102.783 101.099 102.753 101.099ZM102.203 97.1354C102.265 97.5474 102.491 99.001 102.85 100.705C104.943 99.2923 107.676 98.8715 108.303 98.7891L108.397 96.3821C106.367 95.6906 102.871 96.8941 102.203 97.1354Z" fill="#263238"/>
<path d="M81.0049 65.9388L85.8836 63.3464L85.9866 66.954L82.3761 69.2933L81.0049 65.9388Z" fill="#263238"/>
<path d="M82.379 69.4404C82.3643 69.4404 82.3496 69.4375 82.3349 69.4346C82.2937 69.4198 82.2613 69.3875 82.2437 69.3492L80.8725 65.9947C80.843 65.9271 80.8725 65.8447 80.9401 65.8123L85.8189 63.2199C85.8659 63.1964 85.9189 63.1964 85.963 63.2229C86.0072 63.2494 86.0337 63.2935 86.0337 63.3465L86.1367 66.954C86.1367 67.004 86.1131 67.0511 86.0719 67.0805L82.4644 69.4199C82.4349 69.4316 82.4055 69.4404 82.379 69.4404ZM81.1932 66.0065L82.4467 69.0726L85.8365 66.8775L85.7424 63.5907L81.1932 66.0065Z" fill="#263238"/>
<path d="M98.1835 60.8569H85.8337V63.1433H98.1835V60.8569Z" fill="#7B1FA2"/>
<path d="M98.1805 63.2906H85.8336C85.7513 63.2906 85.6865 63.2258 85.6865 63.1434V60.8571C85.6865 60.7776 85.7513 60.71 85.8336 60.71H98.1805C98.2629 60.71 98.3276 60.7747 98.3276 60.8571V63.1434C98.3276 63.2229 98.2629 63.2906 98.1805 63.2906ZM85.9808 62.9963H98.0363V61.0013H85.9808V62.9963Z" fill="#263238"/>
<path d="M84.7595 62.6519C84.7595 62.6519 84.7713 65.2266 84.7713 72.1386C84.7713 78.7416 91.7951 82.3374 92.4307 82.6463V82.7081C92.4307 82.7081 92.4837 82.6816 92.4895 82.6787C92.4984 82.6816 92.5484 82.7081 92.5484 82.7081V82.6463C93.181 82.3344 100.208 78.7416 100.208 72.1386C100.208 65.2266 100.367 62.7372 100.367 62.7372L84.7595 62.6519Z" fill="#FAFAFA"/>
<path d="M96.215 76.2023L94.3494 73.9248L92.4633 76.2317L90.5771 73.9248L88.6909 76.2317L86.8048 73.9248L85.4954 75.5255C85.9073 76.5554 86.4281 77.5117 87.0696 78.3209L88.6939 76.3377L90.4182 78.4445L88.944 80.2454C89.8474 81.034 90.6919 81.6283 91.348 82.0285L92.4692 80.6573L93.6109 82.0521C94.2612 81.6578 95.1086 81.0634 96.0178 80.2748L94.5201 78.4445L96.2238 76.3642L97.8746 78.3798C98.519 77.5765 99.0486 76.6349 99.4694 75.6109L98.0894 73.9248L96.215 76.2023ZM92.4603 80.5484L90.736 78.4416L92.4603 76.3347L94.1846 78.4416L92.4603 80.5484Z" fill="#3949AB"/>
<path d="M84.8684 66.8714L86.7752 69.2019L84.8684 71.5324L86.7987 73.8894L88.729 71.5324L86.8223 69.2019L88.729 66.8714L86.8811 64.6116L88.4671 62.6724L85.1156 62.6548L86.7163 64.6116L84.8684 66.8714Z" fill="#3949AB"/>
<path d="M96.1472 66.8716L98.054 69.2021L96.1472 71.5326L98.0805 73.8896L100.011 71.5326L98.104 69.2021L100.011 66.8716L98.1599 64.6118L99.6989 62.7345L96.4474 62.7168L97.9981 64.6118L96.1472 66.8716Z" fill="#3949AB"/>
<path d="M92.4896 80.3188L98.4188 62.7254L86.2603 62.6606L86.0867 62.7872L92.4896 80.3188Z" fill="#007D2A"/>
<path d="M89.3706 66.4036L90.374 72.6005L91.1773 66.4595L89.3706 66.4036Z" fill="#FFD600"/>
<path d="M92.1955 64.541V65.718C92.1955 65.718 93.3725 65.5738 93.1724 66.436C92.9723 67.2982 92.2896 66.436 92.2896 66.436L92.0042 67.1481L92.7281 67.5777L91.707 68.0691L90.8331 67.3511L90.374 68.2986L91.2068 69.0725L92.578 68.4458L92.6162 68.9372L91.2951 70.1613L89.5884 69.6551L89.7443 70.9646L91.5246 71.3088L92.7016 69.817V70.735L93.3901 71.712L92.6427 72.6595L93.1018 74.6957L92.6133 75.499L91.7247 75.4401L91.9836 76.0434L91.6393 76.1581L92.2985 76.5877L92.1248 77.191L92.784 77.1056L93.3872 76.1022L93.6756 75.0105L94.1934 75.0694L93.4755 72.9449L93.7903 72.4005C93.7903 72.4005 94.9085 72.7742 95.138 71.9121C95.3675 71.0499 94.4789 69.6463 94.8231 69.099C95.1674 68.5517 95.6529 68.7547 95.6529 68.7547L96.4092 66.8303C96.4092 66.8303 95.0556 67.4335 94.5377 68.4958C94.0198 69.558 95.0556 71.1941 94.5966 71.6237C94.1375 72.0533 94.1081 71.9121 93.9374 71.6825C93.7668 71.453 93.5637 67.8367 93.5637 67.8367L94.0522 68.2957L93.9463 67.1452L94.573 67.4306L94.3023 66.4625L94.985 66.2477L93.6049 64.7411L93.0017 64.6558L92.887 65.0001L92.1955 64.541Z" fill="#FFD600"/>
<path d="M93.5224 71.6238C93.5224 71.6238 91.4067 71.8827 91.492 71.8827C91.5774 71.8827 92.0099 73.2598 92.0099 73.2598L91.5215 73.0862L90.777 72.5713L91.1801 73.4599L90.4622 73.4893L91.1213 73.9484L90.6917 74.3221L93.1869 74.0337L93.0428 72.6566L93.4724 72.1122L93.5224 71.6238Z" fill="#FFD600"/>
<path d="M90.0886 63.8759L88.9116 64.2791L88.5967 63.1609L88.3848 64.2526L87.2461 63.8347L88.0818 64.691L87.4344 65.5061L88.329 65.1265L88.738 66.2299L88.9675 65.1412L89.9738 65.7415L89.3706 64.6822L90.0886 63.8759Z" fill="#FFD600"/>
<path d="M94.5964 63.5993L95.5086 64.4439L94.8112 65.309L95.8264 65.0265L96.0559 66.1741L96.3443 64.8823L97.177 65.2648L96.6591 64.4527L97.6067 63.4758L96.3826 63.9319L96.0559 62.9314L95.7529 63.77L94.5964 63.5993Z" fill="#FFD600"/>
<path d="M80.3311 60.2333C80.3311 60.2333 81.105 59.4594 81.2198 59.0563C81.3345 58.6531 81.4787 57.6497 81.4787 57.6497C81.4787 57.6497 82.0231 57.3614 82.0525 57.0465C82.0819 56.7317 81.9083 55.9548 81.0756 56.0137C80.2428 56.0725 79.4395 56.0431 79.4395 56.0431C79.4395 56.0431 79.0658 55.181 78.0918 55.64C77.1149 56.099 76.8589 56.1844 75.882 56.4139C74.9051 56.6434 75.2494 59.1975 75.2494 59.1975C75.2494 59.1975 74.502 61.6663 74.705 63.4171C73.9017 64.394 74.0164 66.545 74.0164 66.545C74.0164 66.545 72.5246 69.8171 72.4392 70.9058C70.8621 71.5944 69.6262 73.2863 69.3967 76.3289C69.1672 79.3715 71.9214 82.5259 75.423 83.5322C77.9771 85.0241 82.8558 85.1388 84.1181 84.7387C85.3805 84.3355 84.2623 84.0207 82.9117 84.0795C81.5611 84.1384 78.8657 81.4107 76.9148 81.5843C77.7476 80.4661 76.9148 79.089 76.9148 79.089C76.9148 79.089 78.1213 78.0562 77.8035 76.2495C79.4954 76.1906 80.7313 73.61 80.7313 73.61C80.7313 73.61 80.7019 74.7017 81.2198 75.1607C80.6754 76.2524 81.5346 76.7673 81.5346 76.7673C81.5346 76.7673 81.1315 77.8296 81.6199 78.6035C81.0461 79.6363 81.5346 80.3837 81.5346 80.3837C81.5346 80.3837 83.8004 77.7737 84.1741 73.4393C84.1741 73.4393 84.7184 70.8293 83.3413 69.0785C83.8298 66.9275 81.8495 64.7177 81.8495 64.7177L80.3311 60.2333Z" fill="#78909C"/>
<path d="M82.0937 85.0828C80.0369 85.0828 77.1297 84.7002 75.3494 83.6615C71.7125 82.6199 69.02 79.3919 69.2525 76.3199C69.5144 72.8242 71.0386 71.3912 72.3039 70.8086C72.4481 69.6845 73.7104 66.8715 73.8723 66.5183C73.8605 66.2212 73.8134 64.3409 74.5579 63.3787C74.3872 61.7073 75.0169 59.4916 75.1052 59.1915C75.0552 58.8001 74.8109 56.5226 75.8526 56.2754C76.8354 56.0429 77.0796 55.9606 78.0301 55.5104C78.3802 55.3426 78.7039 55.325 78.9864 55.425C79.2865 55.5398 79.4572 55.7722 79.5337 55.9017C79.7603 55.9017 80.4106 55.9164 81.0697 55.8693C81.411 55.8311 81.6817 55.9458 81.8848 56.1489C82.1349 56.4078 82.2261 56.8051 82.2026 57.0669C82.1732 57.3847 81.7818 57.6466 81.617 57.7437C81.5817 57.985 81.464 58.753 81.364 59.1002C81.261 59.4681 80.7019 60.0654 80.5018 60.2714L81.9848 64.6351C82.2055 64.8882 83.9298 66.9509 83.5061 69.0372C84.8567 70.8144 84.3477 73.3568 84.3241 73.4627C83.9534 77.7794 81.6729 80.4483 81.6494 80.4777C81.6229 80.5101 81.5817 80.5277 81.5376 80.5277C81.4934 80.5366 81.4405 80.4983 81.414 80.463C81.3934 80.4306 80.9079 79.6656 81.4552 78.6033C81.0815 77.9295 81.2757 77.1085 81.364 76.8201C81.1403 76.6348 80.643 76.0933 81.0432 75.19C80.7813 74.8987 80.6695 74.4661 80.6195 74.1277C80.1869 74.8604 79.2218 76.2316 77.9742 76.3847C78.1713 77.8912 77.3709 78.8417 77.1002 79.1212C77.268 79.4478 77.7123 80.4806 77.1885 81.437C78.2537 81.4782 79.4778 82.2226 80.5665 82.8818C81.464 83.4261 82.3115 83.9381 82.8676 83.9381C82.8794 83.9381 82.8911 83.9381 82.9058 83.9381C83.0883 83.9293 84.7273 83.8734 84.8126 84.3677C84.8597 84.6296 84.4889 84.7826 84.1623 84.8856C83.7621 85.0063 83.0147 85.0828 82.0937 85.0828ZM78.6303 55.6545C78.4862 55.6545 78.3243 55.6957 78.1537 55.7722C77.1885 56.2283 76.9178 56.3254 75.9173 56.5608C75.2229 56.7256 75.3053 58.5088 75.3965 59.1826C75.3994 59.2032 75.3965 59.2268 75.3936 59.2444C75.3877 59.268 74.6579 61.7014 74.8551 63.4022C74.858 63.4434 74.8492 63.4817 74.8227 63.514C74.0635 64.4321 74.1636 66.5184 74.1665 66.536C74.1665 66.5625 74.1636 66.586 74.1548 66.6037C74.1401 66.639 72.6747 69.864 72.5893 70.9174C72.5864 70.9733 72.5511 71.0175 72.5011 71.041C71.2946 71.5677 69.8028 72.9154 69.5468 76.3405C69.329 79.2271 71.9861 82.3933 75.4671 83.3908C78.0095 84.8709 82.8205 85.0004 84.077 84.5943C84.3595 84.506 84.4683 84.4354 84.5066 84.403C84.3712 84.3118 83.8092 84.2029 82.9206 84.2235C82.9058 84.2235 82.8882 84.2265 82.8705 84.2265C82.232 84.2265 81.3875 83.7145 80.4165 83.123C79.3277 82.461 78.1007 81.7165 77.0973 81.7165C77.0384 81.7165 76.9825 81.7195 76.9296 81.7253C76.8619 81.7253 76.8148 81.6989 76.7883 81.6518C76.7589 81.5988 76.7648 81.54 76.7972 81.4899C77.5593 80.463 76.7972 79.1712 76.7883 79.1565C76.753 79.0947 76.7648 79.0153 76.8178 78.9711C76.8648 78.9299 77.9536 77.9677 77.6593 76.2669C77.6534 76.2228 77.6623 76.1816 77.6917 76.1492C77.7182 76.1139 77.7564 76.0933 77.8006 76.0933C79.3836 76.0404 80.5871 73.5657 80.5989 73.5392C80.6283 73.4774 80.6989 73.4509 80.7666 73.4598C80.8343 73.4774 80.8814 73.5363 80.8784 73.6069C80.8784 73.6187 80.8578 74.6368 81.3169 75.0429C81.3669 75.087 81.3787 75.1576 81.3522 75.2194C80.8755 76.1669 81.5817 76.6171 81.6111 76.6318C81.6729 76.6701 81.6965 76.7436 81.6729 76.8113C81.67 76.8201 81.3051 77.8177 81.7465 78.518C81.7759 78.5651 81.7759 78.618 81.7494 78.6681C81.3904 79.3154 81.4758 79.8333 81.567 80.0981C82.0672 79.4361 83.718 77.0143 84.0269 73.4186C84.0328 73.3744 84.5419 70.8321 83.2266 69.1607C83.1972 69.1254 83.1883 69.0813 83.1972 69.0372C83.6621 66.9862 81.7583 64.8264 81.7406 64.8058C81.7288 64.7911 81.7171 64.7734 81.7112 64.7528L80.1899 60.2772C80.1722 60.2243 80.1869 60.1684 80.2252 60.1272C80.4341 59.9183 80.9932 59.3121 81.0785 59.0149C81.1904 58.6265 81.3316 57.6349 81.3316 57.626C81.3375 57.5789 81.3669 57.5378 81.4081 57.5172C81.6052 57.4112 81.8907 57.1935 81.9054 57.0316C81.9201 56.8698 81.8701 56.5549 81.67 56.3519C81.5287 56.2077 81.3404 56.1371 81.0844 56.1606C80.2517 56.2195 79.4425 56.1901 79.4307 56.1901C79.3748 56.1871 79.3248 56.1518 79.3012 56.1047C79.3012 56.1018 79.1688 55.8075 78.8716 55.6987C78.801 55.6692 78.7157 55.6545 78.6303 55.6545Z" fill="#263238"/>
<path d="M76.9443 58.3676L76.1704 59.0003C76.1704 59.0003 76.5735 59.9477 77.7476 60.0037C78.8393 61.1512 80.3311 60.2332 80.3311 60.2332L81.1639 59.1709C81.1639 59.1709 79.8721 58.8826 79.4425 58.3088C79.0129 57.735 77.4916 59.4004 77.4916 59.4004C77.4916 59.4004 77.0591 59.2003 76.9443 58.3676Z" fill="#263238"/>
<path d="M79.0716 60.7246C78.6244 60.7246 78.1242 60.5892 77.6828 60.1478C76.4734 60.0596 76.0526 59.1003 76.035 59.0591C76.0085 58.9973 76.0261 58.9296 76.0762 58.8855L76.853 58.2529C76.8971 58.2205 76.9471 58.2117 77.0001 58.2293C77.0501 58.2499 77.0825 58.2941 77.0913 58.347C77.1619 58.8649 77.3562 59.1062 77.4709 59.2092C77.7622 58.9032 78.6332 58.0439 79.1923 58.0439C79.2011 58.0439 79.21 58.0439 79.2188 58.0439C79.36 58.0498 79.4777 58.1116 79.5601 58.2234C79.9544 58.7501 81.1844 59.0267 81.1962 59.0297C81.2462 59.0415 81.2874 59.0768 81.3021 59.1238C81.3197 59.1709 81.3109 59.2239 81.2815 59.2651L80.4488 60.3244C80.437 60.3362 80.4252 60.3479 80.4105 60.3597C80.3987 60.3656 79.7985 60.7246 79.0716 60.7246ZM76.3557 59.0385C76.4881 59.268 76.8971 59.8153 77.7563 59.8565C77.7946 59.8595 77.8299 59.8742 77.8564 59.9036C78.7833 60.8805 80.0545 60.2155 80.2339 60.1214L80.9107 59.2592C80.5076 59.1474 79.6749 58.8649 79.3247 58.4C79.2894 58.3529 79.2335 58.3264 79.1894 58.3382C78.8068 58.3382 78.0153 59.0473 77.6004 59.5034C77.5562 59.5505 77.4886 59.5652 77.4297 59.5358C77.4121 59.527 77.0148 59.3387 76.8471 58.6383L76.3557 59.0385Z" fill="#263238"/>
<path d="M76.7441 60.3186C76.7441 60.3186 76.8589 62.7285 79.0687 62.2989C77.8358 61.6957 76.7441 60.3186 76.7441 60.3186Z" fill="#263238"/>
<path d="M78.5656 62.4961C78.1301 62.4961 77.7535 62.3754 77.4416 62.1312C76.6618 61.5192 76.6 60.3716 76.5971 60.3245C76.5941 60.2627 76.6324 60.2039 76.6912 60.1803C76.753 60.1597 76.8178 60.1774 76.859 60.2274C76.8707 60.2421 77.9448 61.5868 79.1335 62.1665C79.1924 62.1959 79.2218 62.2548 79.2159 62.3195C79.2071 62.3813 79.16 62.4313 79.0982 62.4431C78.9099 62.4814 78.7334 62.4961 78.5656 62.4961ZM76.9796 60.813C77.0708 61.1602 77.2533 61.6104 77.627 61.9017C77.883 62.1018 78.1978 62.2048 78.5686 62.2048C78.5774 62.2048 78.5862 62.2048 78.5951 62.2048C77.9212 61.781 77.3327 61.1984 76.9796 60.813Z" fill="#263238"/>
<path d="M80.0723 63.7349L82.9118 66.7774L82.0496 64.9707C82.0526 64.9678 81.7936 63.7349 80.0723 63.7349Z" fill="#263238"/>
<path d="M82.9147 66.9215C82.8735 66.9215 82.8353 66.9068 82.8059 66.8745L79.9663 63.8319C79.9251 63.7878 79.9163 63.726 79.9398 63.673C79.9634 63.6171 80.0163 63.5847 80.0752 63.5847C81.8966 63.5847 82.1968 64.9236 82.1997 64.9383L83.0501 66.7126C83.0825 66.7774 83.0589 66.8568 83.0001 66.8951C82.9706 66.9127 82.9442 66.9215 82.9147 66.9215ZM80.4312 63.8996L82.3733 65.9799L81.9231 65.0324C81.8996 64.9589 81.6848 64.0496 80.4312 63.8996Z" fill="#263238"/>
<path d="M75.3966 64.135C75.3966 64.135 79.2984 64.2498 81.0198 67.0893C82.4263 67.3188 83.5444 69.2403 83.5444 69.2403C83.5444 69.2403 82.5675 68.2369 81.5347 67.9485C82.7117 69.2403 83.1119 69.9583 83.2855 71.1059C83.4591 72.2534 82.2527 73.2568 81.5935 72.9714C80.9344 72.6831 81.5641 72.1387 80.8756 71.509C80.187 70.8763 79.0689 71.3942 79.0689 71.3942C79.0689 71.3942 80.1311 71.5384 80.4165 72.2829C80.702 73.0273 80.905 73.3745 80.4754 73.4893C80.0458 73.6041 77.8654 74.1219 76.5736 73.1745C75.2818 72.227 76.8884 72.1975 77.4063 71.3677C77.9242 70.538 78.5833 70.2761 77.8359 70.0201C77.0885 69.7611 76.3441 68.6724 76.5147 68.0103C76.6854 67.3482 75.7114 67.0628 75.3083 66.2036C74.9081 65.3414 74.8787 64.2792 75.3966 64.135Z" fill="#263238"/>
<path d="M78.648 73.8835C77.9124 73.8835 77.1061 73.7481 76.4853 73.295C76.0939 73.0066 75.9232 72.7771 75.9321 72.5505C75.9438 72.2622 76.2234 72.0974 76.5441 71.9002C76.8089 71.7355 77.112 71.556 77.2768 71.2911C77.4445 71.0204 77.624 70.8115 77.7682 70.6438C77.8741 70.5202 78.033 70.3348 78.0213 70.2848C78.0213 70.2848 78.0036 70.2318 77.7829 70.1553C76.9502 69.8699 76.1822 68.687 76.3705 67.972C76.4411 67.6983 76.2528 67.5041 75.9144 67.1834C75.6555 66.9391 75.3612 66.6625 75.1758 66.2653C74.8522 65.5738 74.7668 64.7852 74.9699 64.3468C75.0552 64.1643 75.1876 64.0407 75.3583 63.9966C75.373 63.9907 75.3995 63.9996 75.4024 63.9907C75.4436 63.9907 79.3513 64.1378 81.1139 66.9627C82.538 67.2481 83.6268 69.096 83.6768 69.1725C83.715 69.2373 83.6974 69.3196 83.6385 69.3638C83.5797 69.4079 83.4944 69.402 83.4443 69.3491C83.4355 69.3402 82.8146 68.7047 82.0613 68.3162C82.9559 69.3667 83.2825 70.0523 83.4355 71.0852C83.5532 71.8649 83.0942 72.5211 82.6675 72.8536C82.2791 73.1508 81.8554 73.242 81.5405 73.1096C81.1286 72.9272 81.1139 72.6388 81.105 72.3828C81.0962 72.1445 81.0844 71.8973 80.7843 71.6207C80.44 71.3029 79.9545 71.3147 79.6043 71.3882C79.9545 71.5207 80.3841 71.7708 80.5607 72.2327L80.6578 72.4799C80.8343 72.9272 80.9402 73.1949 80.8343 73.4068C80.7784 73.5157 80.6754 73.5892 80.5195 73.6304C80.2752 73.6952 79.5131 73.8835 78.648 73.8835ZM75.4142 64.285C75.3377 64.3115 75.2788 64.3703 75.2347 64.4674C75.0699 64.8264 75.1582 65.5297 75.4407 66.1358C75.6025 66.486 75.8762 66.742 76.1145 66.9656C76.4529 67.2834 76.7736 67.5865 76.653 68.0426C76.5059 68.6105 77.1915 69.6404 77.88 69.8758C78.0536 69.9346 78.2567 70.0258 78.3037 70.2024C78.3596 70.4025 78.2037 70.582 77.9918 70.8321C77.8535 70.991 77.6829 71.1911 77.5269 71.4412C77.3268 71.7649 76.9914 71.9679 76.6971 72.1445C76.4558 72.2916 76.2322 72.4299 76.2263 72.5564C76.2234 72.6212 76.2763 72.7712 76.6559 73.0537C77.9006 73.9659 80.0222 73.4598 80.4341 73.348C80.5047 73.3274 80.5489 73.3009 80.5607 73.2744C80.6107 73.1802 80.4989 72.9066 80.3753 72.5888L80.2752 72.3357C80.0251 71.6825 79.0541 71.5413 79.0453 71.5413C78.9805 71.5324 78.9305 71.4795 78.9217 71.4177C78.9128 71.3529 78.9452 71.2882 79.0041 71.2617C79.0541 71.2382 80.2252 70.7115 80.9726 71.4C81.364 71.759 81.3787 72.1092 81.3905 72.3652C81.4022 72.6094 81.4052 72.73 81.6494 72.836C81.8642 72.9331 82.182 72.8477 82.4821 72.6153C82.847 72.3357 83.2354 71.7796 83.1383 71.1293C82.9735 70.017 82.5881 69.3285 81.4228 68.0455C81.3787 67.9984 81.3728 67.9278 81.4081 67.869C81.4434 67.8131 81.5111 67.7807 81.5729 67.8072C81.979 67.919 82.3733 68.1338 82.7087 68.3604C82.2673 67.866 81.6612 67.3393 80.9932 67.2334C80.952 67.2246 80.9138 67.1981 80.8902 67.1657C79.3042 64.5439 75.7408 64.2997 75.4142 64.285Z" fill="#263238"/>
<path d="M69.885 78.1384L70.6589 76.5318C70.6589 76.5318 71.0885 73.6334 72.5539 73.3186C74.0163 73.0037 75.7966 74.8104 75.7966 74.8104C75.7966 74.8104 73.9016 73.604 72.8687 74.1778C71.8359 74.7516 72.0066 76.3876 72.0066 76.3876C72.0066 76.3876 72.9246 76.6466 72.8393 78.4239C73.9016 78.6534 73.2424 79.4273 73.728 80.2894C74.2135 81.1516 74.0722 80.978 74.7902 81.2663C75.5082 81.5547 75.4228 83.5321 75.4228 83.5321C75.4228 83.5321 72.4097 82.3257 71.5211 81.2928C70.6324 80.2629 69.885 78.1384 69.885 78.1384Z" fill="#263238"/>
<path d="M75.4229 83.6823C75.4053 83.6823 75.3847 83.6793 75.367 83.6734C75.2434 83.6205 72.3097 82.4435 71.4064 81.393C70.5089 80.3513 69.7733 78.2798 69.7438 78.1915C69.7321 78.1532 69.735 78.115 69.7497 78.0797L70.5148 76.4907C70.5619 76.1906 71.0268 73.4982 72.5186 73.1774C74.0458 72.839 75.8231 74.634 75.8967 74.7105C75.9496 74.7664 75.9526 74.8488 75.9055 74.9047C75.8584 74.9665 75.776 74.9783 75.7113 74.9371C75.6936 74.9253 73.8693 73.7806 72.9335 74.3103C72.1273 74.7576 72.1273 75.9611 72.142 76.2906C72.3921 76.4142 73.0189 76.8674 72.9836 78.3151C73.6191 78.4975 73.6368 78.9242 73.6515 79.3361C73.6633 79.6216 73.6751 79.9158 73.8516 80.2277L73.9546 80.4102C74.2371 80.9104 74.2371 80.9104 74.5666 81.034C74.6402 81.0634 74.7314 81.0958 74.8403 81.137C75.6318 81.4548 75.573 83.335 75.5642 83.5469C75.5642 83.5969 75.5377 83.6381 75.4994 83.6646C75.4788 83.6734 75.4523 83.6823 75.4229 83.6823ZM70.044 78.1503C70.1676 78.4916 70.8502 80.2954 71.6329 81.2017C72.3597 82.0462 74.6019 83.032 75.2817 83.3174C75.2817 82.5876 75.1493 81.5695 74.7373 81.4077C74.6314 81.3635 74.546 81.3341 74.4725 81.3047C74.0399 81.1429 74.0223 81.1134 73.7045 80.5485L73.6015 80.366C73.3896 79.9953 73.3749 79.6333 73.3631 79.342C73.3455 78.9154 73.3367 78.6829 72.807 78.5681C72.7364 78.5534 72.6864 78.4916 72.6923 78.4181C72.7688 76.7938 71.9978 76.5378 71.9654 76.526C71.9095 76.5084 71.8654 76.4613 71.8595 76.3995C71.8536 76.3318 71.6888 74.6605 72.7952 74.0455C73.3455 73.7453 74.0958 73.8866 74.7197 74.119C74.1076 73.6983 73.2896 73.3128 72.5834 73.457C71.2357 73.7483 70.8061 76.5201 70.8031 76.5496C70.8031 76.5643 70.7973 76.579 70.7914 76.5908L70.044 78.1503Z" fill="#263238"/>
<path d="M75.7407 79.6596C75.7407 79.6596 75.3376 79.0858 74.7373 78.9711C74.1371 78.8563 74.0782 78.1972 74.9109 78.2237C75.7437 78.2531 77.0355 80.922 77.0355 80.922L76.9207 81.5811C76.9207 81.5811 76.4028 80.4894 75.6583 80.4041C74.9109 80.3188 73.937 80.7189 73.937 80.7189L73.3867 80.2923C73.3867 80.2923 74.7932 79.4595 75.7407 79.6596Z" fill="#263238"/>
<path d="M76.9177 81.7313C76.8618 81.7313 76.8088 81.6989 76.7853 81.6489C76.7823 81.6371 76.2939 80.6278 75.6406 80.5572C74.9315 80.4748 73.9987 80.8573 73.9899 80.8603C73.9369 80.8838 73.881 80.872 73.8427 80.8397L73.2984 80.4101C73.2601 80.3806 73.2395 80.3336 73.2425 80.2865C73.2454 80.2365 73.2719 80.1953 73.3131 80.1688C73.3661 80.1364 74.4489 79.5008 75.3817 79.4861C75.2198 79.336 74.9874 79.1742 74.7078 79.1183C74.2988 79.0418 74.1105 78.7622 74.137 78.5239C74.1605 78.3091 74.3636 78.0825 74.852 78.0825C74.8697 78.0825 74.8903 78.0855 74.9109 78.0855C75.8054 78.1178 77.0266 80.5837 77.1619 80.8632C77.1737 80.8897 77.1796 80.9221 77.1737 80.9515L77.0589 81.6136C77.0472 81.6753 76.9971 81.7254 76.9353 81.7342C76.9295 81.7313 76.9236 81.7313 76.9177 81.7313ZM75.4288 80.2512C75.5112 80.2512 75.5906 80.2541 75.67 80.2629C76.1968 80.3247 76.6087 80.8102 76.8382 81.1604L76.8735 80.9485C76.3821 79.9451 75.4346 78.3974 74.8991 78.3768C74.8844 78.3768 74.8697 78.3768 74.852 78.3768C74.5754 78.3768 74.4371 78.468 74.4254 78.5592C74.4136 78.6593 74.5372 78.7887 74.7579 78.8329C75.4111 78.9564 75.8378 79.5567 75.8554 79.5832C75.8907 79.6332 75.8907 79.698 75.8554 79.748C75.8289 79.7921 75.7701 79.8245 75.7083 79.8039C75.0286 79.6597 74.0575 80.104 73.6515 80.3159L73.9546 80.5542C74.1811 80.4689 74.8285 80.2512 75.4288 80.2512Z" fill="#263238"/>
<path d="M74.8494 77.2205C74.8494 77.2205 76.1411 77.2499 76.915 79.086C77.2299 78.7977 77.7478 77.2499 77.174 76.3318C76.6002 75.4138 75.6527 75.6992 75.6527 75.6992C75.6527 75.6992 76.9444 76.4466 76.9444 77.5647C75.997 76.735 74.8494 77.2205 74.8494 77.2205Z" fill="#263238"/>
<path d="M76.9179 79.2332C76.9091 79.2332 76.8973 79.2332 76.8855 79.2302C76.8384 79.2185 76.8002 79.1861 76.7825 79.1449C76.0557 77.4265 74.8964 77.3706 74.8464 77.3676C74.7787 77.3647 74.7198 77.3147 74.7081 77.247C74.6963 77.1822 74.7316 77.1116 74.7934 77.0851C74.8375 77.0675 75.8233 76.6585 76.759 77.244C76.5501 76.3966 75.5908 75.8346 75.582 75.8287C75.532 75.7993 75.5025 75.7433 75.5084 75.6845C75.5143 75.6256 75.5555 75.5786 75.6114 75.5609C75.6232 75.5609 76.6737 75.2519 77.3004 76.2524C77.9066 77.2205 77.4093 78.8359 77.0179 79.1949C76.9885 79.2214 76.9532 79.2332 76.9179 79.2332ZM75.4613 77.2323C75.8968 77.4206 76.4883 77.8473 76.9473 78.7918C77.2004 78.3122 77.5064 77.1381 77.0503 76.4054C76.759 75.9376 76.3559 75.8199 76.0675 75.8051C76.4736 76.12 77.0945 76.7409 77.0945 77.5648C77.0945 77.6236 77.0621 77.6736 77.0091 77.7001C76.9562 77.7207 76.8914 77.7148 76.8502 77.6736C76.3735 77.2558 75.8527 77.1881 75.4613 77.2323Z" fill="#263238"/>
<path d="M82.3379 84.4001C82.335 84.4001 82.332 84.4001 82.3291 84.4001C82.1055 84.3884 76.8501 84.0706 75.2582 83.0554C75.1964 83.0172 75.1729 82.9406 75.2023 82.873C75.2288 82.8141 75.8261 81.4664 76.9119 81.437C76.9266 81.437 76.9413 81.437 76.956 81.437C77.9977 81.437 79.8603 82.4434 79.9427 82.4846L82.4203 84.1294C82.4762 84.1677 82.4998 84.2354 82.4792 84.3001C82.4586 84.3589 82.4027 84.4001 82.3379 84.4001ZM75.5289 82.873C76.8619 83.6145 80.4135 83.9558 81.7906 84.0647L79.7897 82.7376C79.7838 82.7317 77.9241 81.7283 76.959 81.7283C76.9472 81.7283 76.9354 81.7283 76.9207 81.7283C76.191 81.7489 75.6908 82.5669 75.5289 82.873Z" fill="#263238"/>
<path d="M104.584 57.1463C104.584 57.1463 105.093 54.86 106.973 54.91C108.853 54.96 110.63 55.419 110.733 59.8887C113.782 63.9024 113.885 72.8476 111.802 80.2658C113.632 81.587 115.309 82.3491 115.309 82.3491C115.309 82.3491 111.752 85.1945 109.312 81.893C106.314 81.5369 106.264 80.0627 106.264 80.0627C106.264 80.0627 107.738 81.3839 109.159 80.2658C110.58 79.1476 109.412 77.5733 109.412 77.5733C109.412 77.5733 110.48 76.2021 110.224 75.084C109.971 73.9658 108.241 73.1007 108.241 73.1007C108.241 73.1007 108.85 74.828 108.191 75.7931C108.8 77.5704 108.191 78.5885 107.885 78.6385C107.579 78.6886 105.599 77.2673 105.243 75.7931C104.887 74.3189 104.228 69.6962 104.684 68.322C105.14 66.9508 106.108 66.0357 106.87 65.4766C107.632 64.9175 107.582 64.1054 106.82 63.2903C106.058 62.4782 104.837 61.36 105.702 60.5979C106.567 59.8358 107.835 59.1237 107.835 59.1237C107.835 59.1237 105.499 58.8706 104.737 58.7176C104.584 58.1144 104.584 57.1463 104.584 57.1463Z" fill="#263238"/>
<path d="M112.222 83.6409C112.066 83.6409 111.907 83.6292 111.746 83.6086C110.769 83.482 109.921 82.9494 109.23 82.0343C106.205 81.6547 106.117 80.1334 106.114 80.0716C106.111 80.0099 106.143 79.9569 106.199 79.9333C106.249 79.9039 106.314 79.9127 106.358 79.9569C106.417 80.0069 107.756 81.178 109.065 80.154C110.354 79.1389 109.336 77.7206 109.292 77.6588C109.25 77.6058 109.253 77.5352 109.292 77.4822C109.3 77.4675 110.313 76.1522 110.077 75.1135C109.907 74.3573 108.977 73.704 108.482 73.4068C108.624 73.9659 108.812 75.0605 108.35 75.8109C108.853 77.338 108.45 78.2002 108.315 78.4327C108.194 78.6357 108.05 78.7593 107.909 78.7828C107.9 78.7858 107.891 78.7858 107.882 78.7858C107.42 78.7858 105.46 77.3263 105.098 75.8256C104.769 74.4514 104.063 69.7228 104.545 68.278C104.919 67.1539 105.672 66.1741 106.785 65.3619C107.079 65.1471 107.241 64.8911 107.267 64.6028C107.299 64.235 107.108 63.8142 106.714 63.3934L106.508 63.1756C105.908 62.5518 105.231 61.8427 105.26 61.1688C105.272 60.9099 105.387 60.6833 105.608 60.4921C106.187 59.9801 106.938 59.4945 107.385 59.2238C106.667 59.1444 105.278 58.9767 104.713 58.8648C104.657 58.8531 104.613 58.8119 104.598 58.756C104.442 58.1351 104.442 57.1847 104.442 57.1435C104.442 57.1317 104.442 57.1229 104.445 57.1111C104.451 57.0875 104.99 54.76 106.917 54.76C106.938 54.76 106.958 54.76 106.979 54.76C108.888 54.813 110.763 55.2485 110.881 59.8359C114.117 64.1555 113.882 73.3185 111.972 80.207C113.735 81.4664 115.353 82.2109 115.368 82.2167C115.415 82.2403 115.447 82.2815 115.453 82.3344C115.459 82.3845 115.439 82.4345 115.397 82.4669C115.333 82.5198 113.911 83.6409 112.222 83.6409ZM106.549 80.4483C106.796 80.8779 107.476 81.5311 109.327 81.7489C109.368 81.7548 109.403 81.7754 109.427 81.8107C110.077 82.6905 110.872 83.1996 111.784 83.3202C113.205 83.485 114.532 82.714 115.018 82.3815C114.497 82.1255 113.143 81.4252 111.713 80.3924C111.663 80.3541 111.643 80.2923 111.657 80.2305C113.9 72.2445 113.461 63.7288 110.616 59.9801C110.598 59.9536 110.586 59.9242 110.586 59.8947C110.486 55.5192 108.818 55.1102 106.97 55.0572C106.952 55.0572 106.932 55.0572 106.914 55.0572C105.281 55.0572 104.781 56.9551 104.731 57.1641C104.731 57.2847 104.742 58.0556 104.857 58.5971C105.684 58.7471 107.826 58.9796 107.85 58.9825C107.912 58.9884 107.964 59.0384 107.976 59.1002C107.988 59.162 107.962 59.2268 107.906 59.2591C107.894 59.265 106.637 59.9712 105.799 60.7127C105.64 60.854 105.557 61.0099 105.552 61.1865C105.528 61.7309 106.187 62.4224 106.717 62.9755L106.926 63.1933C107.382 63.6788 107.6 64.1761 107.558 64.6322C107.523 65 107.314 65.3325 106.955 65.5973C105.896 66.3742 105.178 67.307 104.822 68.3692C104.389 69.6669 105.007 74.1925 105.384 75.7579C105.722 77.1615 107.608 78.4886 107.867 78.4944C107.882 78.4915 107.967 78.4444 108.062 78.2826C108.315 77.8559 108.444 76.9938 108.05 75.8432C108.035 75.7962 108.041 75.7491 108.067 75.7108C108.68 74.8192 108.109 73.1685 108.1 73.1508C108.082 73.092 108.097 73.0302 108.141 72.9919C108.185 72.9478 108.25 72.9478 108.306 72.9684C108.379 73.0066 110.098 73.8806 110.366 75.0517C110.598 76.0727 109.824 77.2498 109.589 77.5764C109.821 77.9471 110.56 79.3507 109.244 80.3806C108.2 81.2133 107.114 80.7867 106.549 80.4483Z" fill="#263238"/>
<path d="M104.989 56.0813L101.788 57.7085C101.788 57.7085 104.024 58.5736 105.904 58.2176C107.785 57.8615 104.989 56.0813 104.989 56.0813Z" fill="#FF8F00"/>
<path d="M104.916 58.4472C103.324 58.4472 101.811 57.8734 101.735 57.8439C101.679 57.8204 101.644 57.7733 101.641 57.7145C101.638 57.6527 101.67 57.5997 101.72 57.5732L104.922 55.946C104.963 55.9254 105.019 55.9195 105.066 55.9548C105.36 56.1402 106.826 57.1171 106.69 57.8233C106.637 58.0941 106.384 58.2706 105.928 58.3589C105.599 58.4236 105.257 58.4472 104.916 58.4472ZM102.165 57.6821C102.844 57.8998 104.483 58.3353 105.878 58.0735C106.102 58.0293 106.372 57.944 106.405 57.7704C106.475 57.4055 105.637 56.6816 104.984 56.2491L102.165 57.6821Z" fill="#263238"/>
<path d="M106.311 55.9283L106.564 56.5374C106.564 56.5374 109.103 57.1465 110.477 58.8738C110.527 58.0616 109.665 57.1965 109.665 57.1965L112.511 58.6207L111.189 56.9935L112.764 56.1284L111.189 55.9754L112.055 54.9602C112.055 54.9631 108.6 55.9283 106.311 55.9283Z" fill="#FFD600"/>
<path d="M109.106 81.4371C109.106 81.4371 109.615 82.1992 107.785 82.5552C105.955 82.9113 104.38 82.6582 104.38 82.6582L103.771 82.1492L104.533 81.6931L103.212 80.778L106.82 80.5249L109.106 81.4371Z" fill="#FF8F00"/>
<path d="M105.74 82.8936C104.937 82.8936 104.395 82.8112 104.36 82.8053C104.333 82.7994 104.31 82.7876 104.289 82.77L103.68 82.2609C103.645 82.2315 103.624 82.1873 103.627 82.1373C103.63 82.0902 103.657 82.049 103.698 82.0226L104.263 81.6842L103.13 80.8956C103.077 80.8603 103.056 80.7955 103.071 80.7337C103.089 80.6719 103.139 80.6307 103.203 80.6278L106.811 80.3747C106.826 80.3689 106.855 80.3777 106.876 80.3836L109.162 81.2987C109.189 81.3105 109.215 81.3311 109.23 81.3575C109.236 81.3664 109.397 81.6136 109.271 81.9137C109.118 82.2786 108.629 82.5434 107.814 82.6993C107.043 82.8494 106.32 82.8936 105.74 82.8936ZM104.442 82.5169C104.695 82.5522 106.134 82.7229 107.756 82.411C108.682 82.2285 108.93 81.9549 108.994 81.8048C109.041 81.6989 109.018 81.6047 108.997 81.5518L106.793 80.6719L103.636 80.8926L104.613 81.5694C104.654 81.5988 104.678 81.643 104.675 81.6959C104.675 81.746 104.645 81.7901 104.604 81.8166L104.019 82.1667L104.442 82.5169Z" fill="#263238"/>
<path d="M85.3747 98.1565L83.2914 101.561C83.2914 101.561 82.9854 95.8701 80.752 93.4308C78.5157 90.9914 76.4324 90.8384 76.4324 90.8384V87.4339C76.4324 87.4339 77.7035 86.6718 79.1248 87.1808C80.549 87.6869 84.8686 91.3475 85.3747 98.1565Z" fill="#FFAB00"/>
<path d="M83.2913 101.708C83.2795 101.708 83.2678 101.708 83.256 101.705C83.1942 101.687 83.1471 101.634 83.1442 101.57C83.1413 101.511 82.8176 95.9024 80.643 93.5337C78.4773 91.1708 76.4411 90.9913 76.4205 90.9884C76.344 90.9825 76.2852 90.9207 76.2852 90.8413V87.4367C76.2852 87.3838 76.3116 87.3367 76.3558 87.3102C76.4087 87.2779 77.7005 86.5128 79.1747 87.0454C80.6283 87.5662 85.0127 91.3062 85.5218 98.1446C85.5247 98.177 85.5188 98.2064 85.5012 98.2329L83.4179 101.637C83.3884 101.682 83.3413 101.708 83.2913 101.708ZM76.5794 90.7088C77.0885 90.7853 78.9099 91.2032 80.8608 93.3306C82.7587 95.4022 83.2795 99.6777 83.4061 101.096L85.2246 98.1181C84.7096 91.4533 80.4812 87.8222 79.0776 87.319C77.9241 86.9042 76.8619 87.375 76.5794 87.5221V90.7088Z" fill="#263238"/>
<path d="M100.67 97.5473L102.753 100.952C102.753 100.952 103.059 95.261 105.293 92.8216C107.529 90.3823 109.612 90.2293 109.612 90.2293V86.8248C109.612 86.8248 108.341 86.0626 106.92 86.5717C105.496 87.0778 101.179 90.7383 100.67 97.5473Z" fill="#FFAB00"/>
<path d="M102.753 101.099C102.703 101.099 102.656 101.072 102.63 101.031L100.546 97.6267C100.529 97.6003 100.523 97.5679 100.526 97.5385C101.038 90.6971 105.419 86.9542 106.873 86.4363C108.353 85.9066 109.636 86.6746 109.692 86.7041C109.736 86.7306 109.762 86.7776 109.762 86.8306V90.2351C109.762 90.3116 109.703 90.3763 109.627 90.3822C109.606 90.3852 107.57 90.5647 105.401 92.9275C103.227 95.2963 102.903 100.908 102.9 100.964C102.897 101.025 102.853 101.081 102.788 101.099C102.777 101.099 102.765 101.099 102.753 101.099ZM100.82 97.509L102.638 100.487C102.762 99.0715 103.286 94.7901 105.184 92.7215C107.135 90.5941 108.956 90.1792 109.465 90.0998V86.913C109.183 86.7688 108.123 86.3009 106.967 86.707C105.566 87.2102 101.338 90.8413 100.82 97.509Z" fill="#263238"/>
<path d="M75.4141 97.3944C75.4141 97.3944 80.9019 88.2461 93.1487 88.2461C105.395 88.2461 110.73 96.7824 110.73 96.7824L108.341 99.0187C108.341 99.0187 103.106 91.4976 93.2988 91.4976C83.4913 91.4976 77.5974 99.5277 77.5974 99.5277L75.4141 97.3944Z" fill="#FFAB00"/>
<path d="M77.6004 99.6748C77.5622 99.6748 77.5269 99.6601 77.4975 99.6336L75.3112 97.4973C75.2641 97.4473 75.2523 97.3737 75.2876 97.3149C75.3435 97.2237 80.9608 88.0959 93.1488 88.0959C105.337 88.0959 110.801 96.6175 110.857 96.7029C110.895 96.7646 110.883 96.8412 110.833 96.8853L108.444 99.1216C108.412 99.151 108.365 99.1599 108.326 99.1628C108.285 99.1569 108.247 99.1334 108.22 99.101C108.167 99.0274 102.912 91.6446 93.2988 91.6446C83.6827 91.6446 77.7741 99.5365 77.7152 99.613C77.6887 99.6483 77.6505 99.6719 77.6063 99.6748C77.6093 99.6748 77.6063 99.6748 77.6004 99.6748ZM75.6025 97.3708L77.5828 99.307C78.4185 98.2565 84.2329 91.3533 93.3018 91.3533C102.341 91.3533 107.585 97.7769 108.365 98.7979L110.542 96.7617C109.889 95.8083 104.451 88.3931 93.1517 88.3931C81.8142 88.3931 76.2439 96.3909 75.6025 97.3708Z" fill="#263238"/>
<path d="M92.5485 82.8525C92.528 82.8525 92.5074 82.8495 92.4868 82.8407C92.4426 82.8613 92.3926 82.8584 92.3514 82.8289C92.3161 82.8083 92.2925 82.773 92.2867 82.7377C91.1979 82.1875 84.6243 78.6035 84.6243 72.1358C84.6243 65.2238 84.6125 62.6491 84.6125 62.6491C84.6125 62.6108 84.6273 62.5726 84.6567 62.5461C84.6832 62.5167 84.7214 62.502 84.7597 62.502L100.367 62.5873C100.408 62.5873 100.446 62.6049 100.473 62.6344C100.499 62.6638 100.514 62.702 100.511 62.7432C100.511 62.7697 100.352 65.3091 100.352 72.1328C100.352 78.6064 93.7785 82.1875 92.6898 82.7348C92.681 82.776 92.6574 82.8054 92.6251 82.8289C92.6015 82.8466 92.575 82.8525 92.5485 82.8525ZM84.9068 62.7991C84.9068 63.4377 84.9156 66.1713 84.9156 72.1387C84.9156 78.5946 91.6864 82.1198 92.4868 82.5111C93.2871 82.1198 100.061 78.6035 100.061 72.1387C100.061 66.236 100.179 63.5289 100.211 62.8845L84.9068 62.7991Z" fill="#263238"/>
<path d="M86.2986 30.7344L85.354 31.7378L85.4953 32.6265L84.895 32.5411L84.9215 31.4495L85.9543 30.2165L86.0985 29.6427L85.8395 29.4426L85.2098 30.0164V29.269L84.895 29.1249L84.692 30.4461L84.177 30.0459L83.7445 30.3901L84.3771 31.1935L84.1182 32.3116L83.3443 31.5083L83.2854 30.3901L84.2918 29.269L84.3771 28.1509L83.8886 28.1803L83.7445 28.9248L83.2854 29.1543L83.1707 28.2951L82.7705 28.4952L82.7116 29.6722L82.5115 29.7281L82.3409 28.8953L81.8818 29.1837L82.0819 30.3313L82.4556 30.6197L82.541 31.7378L84.1182 33.2297L85.354 33.3444L85.6983 34.7215L86.2986 34.5215L85.9543 33.059L86.7576 33.1149L86.1838 31.9673L86.8724 31.3347L86.2986 30.7344Z" fill="#A1887F"/>
<path d="M85.6983 34.8686C85.6748 34.8686 85.6483 34.8627 85.6277 34.8509C85.5924 34.8303 85.5659 34.795 85.5571 34.7568L85.2393 33.4826L84.1093 33.3767C84.077 33.3738 84.0446 33.3591 84.0211 33.3355L82.4409 31.8437C82.4144 31.8172 82.3968 31.7848 82.3938 31.7495L82.3115 30.6961L81.9907 30.4489C81.9613 30.4254 81.9436 30.3901 81.9348 30.3577L81.7347 29.2101C81.7259 29.1483 81.7494 29.0924 81.8024 29.06L82.2614 28.7717C82.3026 28.7393 82.3527 28.7393 82.3968 28.7599C82.4409 28.7775 82.4733 28.8187 82.4821 28.8658L82.5822 29.3396L82.6234 28.4862C82.6263 28.4303 82.6557 28.3832 82.7028 28.3597L83.1059 28.1596C83.153 28.1449 83.2001 28.142 83.2413 28.1626C83.2825 28.1861 83.3119 28.2244 83.3178 28.2714L83.4031 28.9306L83.615 28.8276L83.7445 28.1508C83.7562 28.0861 83.8121 28.036 83.8798 28.0331L84.3683 28.0037C84.3712 28.0037 84.3742 28.0037 84.3771 28.0037C84.4154 28.0037 84.4536 28.0184 84.483 28.0478C84.5125 28.0802 84.5272 28.1184 84.5242 28.1626L84.4389 29.2837C84.436 29.316 84.4242 29.3455 84.4007 29.369L83.4355 30.443L83.4885 31.4464L84.0387 32.0143L84.2212 31.2257L83.6327 30.4783C83.5826 30.4136 83.5944 30.3224 83.6562 30.2724L84.0858 29.9281C84.1388 29.8869 84.2094 29.8781 84.2682 29.9281L84.586 30.1752L84.7508 29.1042C84.7567 29.0571 84.7861 29.0218 84.8244 28.9982C84.8626 28.9776 84.9127 28.9747 84.9538 28.9924L85.2687 29.1365C85.3217 29.163 85.354 29.213 85.354 29.2719V29.6838L85.7395 29.3366C85.7925 29.2866 85.8719 29.2807 85.9278 29.3307L86.1868 29.5308C86.2339 29.5661 86.2515 29.625 86.2397 29.6809L86.0956 30.2518C86.0926 30.2753 86.0808 30.2959 86.0661 30.3135L85.0657 31.5082L85.0421 32.4175L85.3158 32.4557L85.204 31.7672C85.1981 31.7201 85.2098 31.6759 85.2422 31.6436L86.1897 30.6372C86.2191 30.6078 86.2574 30.5901 86.2986 30.5901C86.3398 30.5901 86.378 30.6078 86.4045 30.6372L86.9783 31.2404C87.0048 31.2699 87.0195 31.3052 87.0195 31.3464C87.0195 31.3846 87.0018 31.4199 86.9724 31.4494L86.3663 32.0055L86.89 33.0501C86.9136 33.1001 86.9106 33.1531 86.8812 33.1972C86.8547 33.2414 86.8076 33.262 86.7576 33.262C86.7547 33.262 86.7517 33.262 86.7488 33.262L86.1456 33.2178L86.4457 34.4861C86.4634 34.5596 86.4222 34.6361 86.3486 34.6626L85.7454 34.8627C85.7277 34.8656 85.713 34.8686 85.6983 34.8686ZM84.1829 33.0884L85.3658 33.1972C85.4276 33.2031 85.4806 33.2502 85.4923 33.309L85.7984 34.5302L86.122 34.4213L85.8072 33.0913C85.7984 33.0442 85.8072 32.9971 85.8396 32.9618C85.8719 32.9236 85.9278 32.9177 85.9631 32.9089L86.5104 32.9501L86.0514 32.032C86.022 31.9702 86.0367 31.9025 86.0838 31.8554L86.6605 31.3258L86.2956 30.9432L85.5041 31.7819L85.6336 32.5969C85.6395 32.644 85.6277 32.6882 85.5924 32.7235C85.56 32.7588 85.51 32.7676 85.4658 32.7676L84.8626 32.6823C84.7891 32.6705 84.7361 32.6087 84.739 32.5322L84.7685 31.4435C84.7685 31.4082 84.7802 31.3787 84.8008 31.3523L85.8131 30.1429L85.9249 29.6986L85.8396 29.6338L85.3011 30.1223C85.2599 30.1635 85.1951 30.1723 85.1422 30.1488C85.0863 30.1252 85.0539 30.0723 85.0539 30.0134V29.3631L85.0009 29.3396L84.8273 30.4666C84.8214 30.5195 84.7861 30.5607 84.7361 30.5813C84.6861 30.596 84.6302 30.5931 84.5919 30.5578L84.1682 30.2282L83.9416 30.4107L84.483 31.0992C84.5095 31.1375 84.5213 31.1787 84.5095 31.2228L84.2535 32.3409C84.2418 32.3969 84.2006 32.4351 84.1476 32.4498C84.0976 32.4704 84.0417 32.4498 84.0034 32.4116L83.2266 31.6112C83.203 31.5847 83.1883 31.5494 83.1854 31.517L83.1265 30.3959C83.1236 30.3547 83.1383 30.3194 83.1648 30.29L84.1388 29.2101L84.2064 28.3067L84.0034 28.3185L83.8798 28.9541C83.871 28.9982 83.8416 29.0365 83.8004 29.0571L83.3413 29.2866C83.3001 29.3072 83.2501 29.3101 83.206 29.2837C83.1648 29.2601 83.1354 29.2219 83.1295 29.1748L83.0441 28.5157L82.9029 28.5833L82.8499 29.675C82.847 29.7368 82.8029 29.7927 82.744 29.8104L82.5439 29.8692C82.5027 29.8928 82.4615 29.8781 82.4262 29.8545C82.3909 29.831 82.3674 29.7957 82.3585 29.7574L82.2291 29.1336L82.0349 29.2542L82.2085 30.2488L82.5351 30.4989C82.5675 30.5254 82.5881 30.5637 82.591 30.6049L82.6734 31.6671L84.1829 33.0884Z" fill="#263238"/>
<path d="M87.9935 30.7344L88.941 31.7378L88.7968 32.6265L89.4 32.5411L89.3706 31.4495L88.3377 30.2165L88.1936 29.6427L88.4525 29.4426L89.0852 30.0164V29.269L89.4 29.1249L89.6001 30.4461L90.118 30.0459L90.5476 30.3901L89.9149 31.1935L90.1739 32.3116L90.9507 31.5083L91.0066 30.3901L90.0032 29.269L89.9149 28.1509L90.4034 28.1803L90.5476 28.9248L91.0066 29.1543L91.1214 28.2951L91.5245 28.4952L91.5804 29.6722L91.7805 29.7281L91.9541 28.8953L92.4131 29.1837L92.2131 30.3313L91.8394 30.6197L91.754 31.7378L90.1739 33.2297L88.941 33.3444L88.5967 34.7215L87.9935 34.5215L88.3377 33.059L87.5344 33.1149L88.1082 31.9673L87.4197 31.3347L87.9935 30.7344Z" fill="#A1887F"/>
<path d="M88.5968 34.8686C88.5821 34.8686 88.5645 34.8656 88.5497 34.8627L87.9465 34.6626C87.873 34.6361 87.8318 34.5626 87.8494 34.4861L88.1496 33.2178L87.5463 33.262C87.5434 33.262 87.5405 33.262 87.5375 33.262C87.4875 33.262 87.4434 33.2384 87.4139 33.1972C87.3845 33.1531 87.3816 33.1001 87.4051 33.0501L87.9289 32.0055L87.3227 31.4494C87.2933 31.4199 87.2756 31.3846 87.2756 31.3464C87.2756 31.3052 87.2874 31.2699 87.3168 31.2404L87.8906 30.6372C87.9171 30.6078 87.9554 30.5901 87.9966 30.5901C88.0377 30.5901 88.076 30.6078 88.1054 30.6372L89.0529 31.6436C89.0823 31.6759 89.0971 31.7201 89.0912 31.7672L88.9794 32.4557L89.253 32.4175L89.2295 31.5082L88.229 30.3135C88.2172 30.2959 88.2055 30.2753 88.1996 30.2518L88.0554 29.6809C88.0407 29.625 88.0613 29.5661 88.1084 29.5308L88.3673 29.3307C88.4262 29.2807 88.5027 29.2866 88.5556 29.3366L88.9411 29.6838V29.2719C88.9411 29.213 88.9735 29.163 89.0264 29.1365L89.3413 28.9924C89.3795 28.9718 89.4296 28.9747 89.4708 28.9982C89.512 29.0218 89.5384 29.06 89.5443 29.1042L89.7091 30.1752L90.0269 29.9281C90.0828 29.8781 90.1534 29.8869 90.2093 29.9281L90.6389 30.2724C90.7007 30.3253 90.7125 30.4136 90.6625 30.4783L90.074 31.2257L90.2564 32.0143L90.8067 31.4464L90.8596 30.4401L89.8945 29.369C89.8739 29.3455 89.8592 29.3131 89.8562 29.2837L89.7709 28.1626C89.768 28.1184 89.7827 28.0802 89.8121 28.0478C89.8386 28.0184 89.8768 28.0037 89.918 28.0037C89.921 28.0037 89.9239 28.0037 89.9269 28.0037L90.4153 28.0331C90.483 28.036 90.5389 28.0861 90.5507 28.1508L90.6772 28.8276L90.8861 28.9306L90.9715 28.2714C90.9773 28.2244 91.0068 28.1861 91.048 28.1626C91.0892 28.142 91.1392 28.1449 91.1833 28.1596L91.5864 28.3597C91.6335 28.3832 91.6629 28.4303 91.6659 28.4862L91.7071 29.3396L91.8071 28.8658C91.816 28.8158 91.8483 28.7775 91.8925 28.7599C91.9366 28.7393 91.9866 28.7393 92.0278 28.7717L92.4869 29.06C92.5398 29.0924 92.5634 29.1483 92.5545 29.2101L92.3544 30.3577C92.3486 30.393 92.328 30.4254 92.2985 30.4489L91.9778 30.6961L91.8954 31.7495C91.8925 31.7878 91.8778 31.8172 91.8483 31.8437L90.2682 33.3355C90.2446 33.3591 90.2123 33.3738 90.1799 33.3767L89.0529 33.4826L88.7322 34.7568C88.7234 34.798 88.6969 34.8303 88.6616 34.8509C88.6439 34.8627 88.6204 34.8686 88.5968 34.8686ZM88.1672 34.4213L88.4938 34.5302L88.7999 33.309C88.8146 33.2472 88.8646 33.2031 88.9293 33.1972L90.1093 33.0884L91.61 31.6701L91.6924 30.6078C91.6953 30.5666 91.7159 30.5284 91.7483 30.5019L92.0749 30.2518L92.2485 29.2572L92.0543 29.1365L91.9248 29.7604C91.916 29.8015 91.8925 29.8339 91.8571 29.8575C91.8248 29.881 91.7836 29.8957 91.7394 29.8722L91.5394 29.8133C91.4776 29.7957 91.4364 29.7427 91.4334 29.678L91.3805 28.5863L91.2392 28.5186L91.1539 29.1777C91.148 29.2248 91.1186 29.2631 91.0774 29.2866C91.0391 29.3131 90.9891 29.3101 90.942 29.2895L90.483 29.0571C90.4418 29.0365 90.4124 28.9953 90.4035 28.9541L90.28 28.3185L90.0769 28.3067L90.1446 29.2101L91.1156 30.29C91.1421 30.3194 91.1568 30.3547 91.1539 30.3959L91.095 31.517C91.095 31.5523 91.0803 31.5847 91.0538 31.6112L90.277 32.4116C90.2388 32.4498 90.1858 32.4704 90.1328 32.4498C90.0799 32.4351 90.0416 32.3939 90.0269 32.3409L89.7709 31.2228C89.7621 31.1787 89.7709 31.1375 89.7974 31.0992L90.3388 30.4107L90.1122 30.2282L89.6885 30.5578C89.6473 30.596 89.5914 30.599 89.5443 30.5813C89.4943 30.5607 89.4619 30.5195 89.4531 30.4666L89.2795 29.3396L89.2265 29.3631V30.0134C89.2265 30.0723 89.1942 30.1252 89.1383 30.1488C89.0823 30.1694 89.0205 30.1635 88.9794 30.1223L88.4409 29.6338L88.3555 29.6986L88.4674 30.1429L89.4796 31.3523C89.5002 31.3787 89.512 31.4111 89.512 31.4435L89.5414 32.5322C89.5443 32.6058 89.4884 32.6705 89.4178 32.6823L88.8146 32.7676C88.7675 32.7676 88.7204 32.7588 88.688 32.7235C88.6557 32.6882 88.641 32.644 88.6469 32.5969L88.7793 31.7819L87.9877 30.9403L87.6229 31.3258L88.1996 31.8554C88.2496 31.9025 88.2614 31.9702 88.232 32.032L87.7729 32.9501L88.3202 32.9089C88.3614 32.9177 88.4114 32.9236 88.4438 32.9618C88.4732 32.9971 88.485 33.0442 88.4762 33.0913L88.1672 34.4213Z" fill="#263238"/>
<path d="M86.1574 49.2723L87.0754 46.2297L87.2902 46.1149L88.2524 45.597L88.7968 45.856L89.5707 46.2591L90.6329 45.0232L91.9806 45.7706L92.6986 45.6559L93.6167 44.5083L94.8525 45.9148L95.597 45.8001L95.6558 46.2856L96.4297 45.7412L97.4067 46.4003L96.9741 47.1477L98.0364 49.7578L86.0691 50.102L86.1574 49.2723Z" fill="#757575"/>
<path d="M86.0691 50.2491C86.0279 50.2491 85.9896 50.2314 85.9602 50.202C85.9308 50.1696 85.916 50.1285 85.9219 50.0873L86.0073 49.2545C86.0073 49.2457 86.0102 49.2339 86.0132 49.2251L86.9312 46.1855C86.943 46.1472 86.9695 46.1178 87.0018 46.1001L88.1788 45.4675C88.2171 45.4469 88.2701 45.4381 88.3113 45.4645L88.8556 45.7235L89.5324 46.0736L90.5182 44.9261C90.5652 44.8731 90.6418 44.8643 90.7006 44.8908L92.0041 45.6146L92.6162 45.5175L93.4989 44.4141C93.5254 44.3788 93.5666 44.3582 93.6108 44.3582C93.6108 44.3582 93.6108 44.3582 93.6137 44.3582C93.6549 44.3582 93.6961 44.3758 93.7255 44.4082L94.9055 45.7529L95.5734 45.6499C95.6205 45.6499 95.6558 45.6558 95.6852 45.6793C95.7176 45.7058 95.7382 45.7411 95.7441 45.7794L95.7735 46.0236L96.3444 45.6176C96.3973 45.5852 96.4621 45.5822 96.5121 45.6176L97.489 46.2796C97.5537 46.3238 97.5743 46.4062 97.5361 46.4738L97.1418 47.1536L98.1776 49.6988C98.1952 49.743 98.1893 49.793 98.1658 49.8342C98.1393 49.8754 98.0952 49.8989 98.0451 49.8989L86.0808 50.2432C86.072 50.2491 86.072 50.2491 86.0691 50.2491ZM86.3015 49.2987L86.2338 49.9519L97.8215 49.6194L96.8387 47.2036C96.8211 47.1624 96.8269 47.1153 96.8475 47.0741L97.2124 46.4503L96.4326 45.9206L95.7411 46.4091C95.697 46.4385 95.647 46.4473 95.597 46.4238C95.5499 46.4003 95.5175 46.3591 95.5116 46.3061L95.4734 45.9707L94.876 46.0619C94.8201 46.0619 94.776 46.0501 94.7436 46.0119L93.6284 44.7377L92.8192 45.747C92.7957 45.7765 92.7633 45.797 92.728 45.8029L92.01 45.9177C91.9806 45.9206 91.9453 45.9148 91.9159 45.9L90.6741 45.2115L89.6913 46.3561C89.6442 46.4091 89.5707 46.4209 89.5118 46.3914L88.735 45.9883L88.2612 45.7647L87.2049 46.3326L86.3015 49.2987Z" fill="#263238"/>
<path d="M87.3345 44.8527L87.823 44.1053L87.9671 40.8037L87.0785 41.2069L87.3669 40.1152L86.3899 40.23L87.308 38.8528L86.4459 39.0265L86.8755 38.4232L86.1575 38.3379L86.9049 37.5052L86.7607 36.7019C86.7607 36.7019 85.8985 36.1575 85.5837 35.6102C84.751 35.6396 83.7476 34.6627 83.7476 34.6627C83.7476 34.6627 83.8917 33.9741 85.6131 34.3743C86.7048 33.3121 87.9936 33.3415 88.6557 34.2596C89.718 33.7417 90.8067 34.2301 90.8067 34.2301C90.8067 34.2301 90.6625 35.3218 88.6557 35.3218C88.6851 36.0957 88.3673 36.2693 88.3673 36.2693C88.3673 36.2693 88.8852 36.4429 89.0853 37.102C90.2917 36.6989 91.4393 37.5905 91.4393 37.5905L92.7311 37.5317C92.7311 37.5317 94.4819 36.5283 96.2033 37.7612C96.7771 38.1908 96.577 39.3384 97.3803 40.0563C96.7771 40.2859 95.8884 39.9975 95.8884 39.9975L95.9738 40.5713L96.9772 41.7189L96.7182 44.5025L96.9477 45.0763L95.656 46.2827L95.5971 45.7943L95.1087 45.8796L96.1415 42.9812L94.9939 41.7189L94.22 43.1254L93.8169 44.8174L92.7841 46.0503L92.5251 45.9061L92.4957 44.7879L93.6433 43.0666V41.8601L92.8959 40.8567L92.122 41.1716L91.0303 41.201L90.6566 44.3289L90.742 45.7354L89.765 46.6241L89.306 46.4505L89.4208 45.3588L89.7945 43.8669L89.9092 43.1784V41.0833H89.5414L88.9676 41.6277L88.794 43.7786L88.9088 44.9262L88.1349 45.9296L87.361 46.1886L87.3345 44.8527Z" fill="#8D6E63"/>
<path d="M89.7709 46.7799C89.7532 46.7799 89.7356 46.777 89.7179 46.7711L89.2589 46.5975C89.1971 46.5739 89.1559 46.5121 89.1647 46.4445L89.2795 45.3528L89.6561 43.8403L89.7679 43.1636V41.2391H89.6002L89.1088 41.707L88.9411 43.8021L89.0559 44.9232C89.0588 44.9614 89.05 44.9967 89.0264 45.0262L88.2525 46.0325C88.2349 46.0561 88.2113 46.0737 88.1819 46.0855L87.408 46.3444C87.3639 46.3503 87.3168 46.3503 87.2786 46.3238C87.2403 46.2944 87.2168 46.2532 87.2168 46.2061L87.1873 44.8555C87.1873 44.8261 87.1932 44.7967 87.2109 44.7731L87.6758 44.064L87.8053 41.042L87.1344 41.348C87.0785 41.3686 87.0196 41.3627 86.9784 41.3245C86.9343 41.2862 86.9166 41.2303 86.9313 41.1744L87.1638 40.2946L86.4017 40.3829C86.3517 40.3858 86.2869 40.3623 86.2605 40.3152C86.231 40.2652 86.231 40.2034 86.2634 40.1563L86.9843 39.0705L86.4694 39.1735C86.4164 39.1911 86.3517 39.1617 86.3164 39.1117C86.284 39.0587 86.284 38.994 86.3193 38.944L86.6047 38.5438L86.1339 38.4879C86.078 38.482 86.0339 38.4437 86.0133 38.3937C85.9956 38.3408 86.0044 38.2848 86.0427 38.2436L86.7401 37.4609L86.6194 36.79C86.4282 36.6635 85.8014 36.228 85.4954 35.7572C84.6332 35.7248 83.6799 34.8097 83.6387 34.7685C83.6004 34.7303 83.5857 34.6832 83.5975 34.6332C83.6004 34.6126 83.6445 34.4331 83.8711 34.2889C84.2154 34.0711 84.7862 34.0447 85.5631 34.2153C86.1633 33.6562 86.8519 33.3855 87.4904 33.4356C87.9671 33.4797 88.3908 33.7063 88.6969 34.08C89.768 33.6209 90.8155 34.08 90.8626 34.0976C90.9214 34.1241 90.9567 34.1859 90.9479 34.2536C90.942 34.3036 90.7713 35.4188 88.7969 35.4718C88.791 35.8602 88.6969 36.0927 88.6056 36.231C88.7793 36.3369 89.0235 36.5458 89.1736 36.9225C90.2623 36.6429 91.2569 37.2814 91.4805 37.4433L92.6869 37.3874C92.9459 37.2579 94.6408 36.4693 96.2856 37.6434C96.5946 37.8758 96.7035 38.2642 96.8182 38.6762C96.9448 39.1264 97.0742 39.5943 97.4744 39.9533C97.5127 39.9886 97.5303 40.0386 97.5215 40.0886C97.5127 40.1416 97.4774 40.1798 97.4303 40.2004C96.9683 40.374 96.3798 40.2769 96.065 40.2063L96.112 40.5123L97.089 41.6276C97.1154 41.6599 97.1302 41.6982 97.1243 41.7394L96.8712 44.4877L97.086 45.0291C97.1096 45.088 97.0948 45.1498 97.0507 45.191L95.7619 46.3974C95.7236 46.4356 95.6589 46.4504 95.6118 46.4298C95.5588 46.4092 95.5235 46.365 95.5147 46.3091L95.4764 45.9766L95.141 46.0355C95.0939 46.059 95.0351 46.0266 95.0027 45.9854C94.9674 45.9442 94.9586 45.8913 94.9762 45.8413L95.9796 43.0253L95.0292 41.9807L94.3612 43.19L93.964 44.8614C93.9581 44.8849 93.9493 44.9055 93.9346 44.9232L92.9017 46.159C92.8576 46.2179 92.7811 46.2267 92.7164 46.1944L92.4604 46.0502C92.4133 46.0237 92.3868 45.9766 92.3868 45.9236L92.3574 44.8025C92.3574 44.7731 92.3633 44.7407 92.3809 44.7201L93.505 43.0341V41.9248L92.8547 41.0479L92.1867 41.3215C92.169 41.3304 92.1514 41.3333 92.1337 41.3333L91.1686 41.3598L90.8096 44.3641L90.8949 45.7442C90.8979 45.7883 90.8802 45.8295 90.8479 45.8619L89.8709 46.7534C89.8445 46.7681 89.8091 46.7799 89.7709 46.7799ZM89.4707 46.3621L89.7385 46.4621L90.5977 45.6794L90.5154 44.3435L90.8891 41.1891C90.8979 41.1185 90.9567 41.0596 91.0303 41.0596L92.0955 41.0302L92.8429 40.7242C92.9047 40.6889 92.9753 40.7154 93.0165 40.7713L93.7639 41.7776C93.7816 41.8041 93.7933 41.8365 93.7933 41.8659V43.0694C93.7933 43.0988 93.7845 43.1282 93.7698 43.1488L92.6487 44.832L92.6752 45.8236L92.7517 45.8677L93.6845 44.7496L94.0787 43.0929C94.0817 43.0812 94.0876 43.0664 94.0935 43.0547L94.8674 41.6482C94.8909 41.607 94.9321 41.5805 94.9792 41.5746C95.0292 41.5746 95.0733 41.5893 95.1057 41.6246L96.2533 42.887C96.2886 42.9282 96.3004 42.9811 96.2827 43.0341L95.3352 45.6941L95.5736 45.6529C95.6147 45.6412 95.653 45.6529 95.6883 45.6794C95.7207 45.703 95.7413 45.7412 95.7472 45.7795L95.7707 45.9766L96.7741 45.0409L96.5828 44.5613C96.574 44.5377 96.5711 44.5142 96.574 44.4936L96.8241 41.7717L95.8619 40.6712C95.8443 40.6477 95.8325 40.6212 95.8266 40.5977L95.7413 40.0268C95.7354 39.9739 95.7531 39.9238 95.7913 39.8915C95.8296 39.8562 95.8825 39.8503 95.9296 39.862C95.9384 39.8679 96.5858 40.0651 97.0948 39.9827C96.7741 39.6031 96.6476 39.1558 96.5358 38.7527C96.4298 38.3761 96.3386 38.0524 96.112 37.8817C94.4878 36.7165 92.8694 37.6228 92.8017 37.661C92.7811 37.6728 92.7576 37.6816 92.737 37.6816L91.4452 37.7405C91.4422 37.7405 91.4422 37.7405 91.4393 37.7405C91.4069 37.7405 91.3746 37.7287 91.3481 37.7081C91.3393 37.7022 90.2446 36.8695 89.1324 37.2461C89.0971 37.255 89.0559 37.255 89.0176 37.2344C88.9823 37.2167 88.9558 37.1843 88.944 37.149C88.7675 36.5752 88.3379 36.4222 88.3202 36.4163C88.2643 36.3957 88.2261 36.3487 88.2202 36.2869C88.2172 36.228 88.2437 36.175 88.2967 36.1456C88.2967 36.1456 88.5291 35.9838 88.5056 35.3335C88.5056 35.2923 88.5174 35.254 88.5468 35.2246C88.5762 35.1952 88.6115 35.1805 88.6527 35.1805C90.1328 35.1805 90.5271 34.5802 90.6272 34.3242C90.327 34.23 89.5061 34.0123 88.7175 34.3948C88.6527 34.4331 88.5792 34.4095 88.535 34.3477C88.2731 33.9829 87.9024 33.7681 87.4698 33.7298C87.4227 33.7269 87.3757 33.7239 87.3286 33.7239C86.7901 33.7239 86.2222 33.9887 85.7161 34.4831C85.6808 34.5184 85.6307 34.5331 85.5807 34.5213C84.4037 34.2477 84.0388 34.5007 83.93 34.6332C84.1742 34.848 84.9216 35.4659 85.5454 35.4659C85.5572 35.4659 85.5748 35.4659 85.5837 35.4659C85.6366 35.4659 85.6837 35.4953 85.7102 35.5365C86.0045 36.0456 86.8284 36.5723 86.8372 36.5782C86.8725 36.5988 86.896 36.637 86.9019 36.6753L87.0461 37.4786C87.052 37.5227 87.0402 37.5669 87.0108 37.6022L86.4547 38.226L86.8902 38.276C86.9431 38.2819 86.9873 38.3172 87.0079 38.3613C87.0285 38.4114 87.0226 38.4643 86.9931 38.5085L86.7783 38.8086L87.2756 38.7115C87.3345 38.6939 87.3933 38.7262 87.4257 38.7733C87.4581 38.8263 87.4581 38.8881 87.4257 38.9381L86.6842 40.0533L87.3433 39.9768C87.3933 39.9827 87.4404 39.9915 87.4698 40.0268C87.5022 40.0651 87.514 40.1151 87.5022 40.1622L87.2933 40.9537L87.9024 40.6771C87.9495 40.6595 88.0054 40.6624 88.0436 40.6918C88.0878 40.7213 88.1113 40.7654 88.1084 40.8184L87.9642 44.1199C87.9642 44.1464 87.9554 44.1728 87.9406 44.1934L87.4787 44.8996L87.5022 46.0031L88.0466 45.8207L88.7587 44.8996L88.6498 43.8109L88.8234 41.6334C88.8263 41.5952 88.841 41.5658 88.8675 41.5393L89.4413 40.992C89.4678 40.9655 89.5061 40.9508 89.5443 40.9508H89.9151C89.9975 40.9508 90.0622 41.0155 90.0622 41.0979V43.193L89.9445 43.9051L89.5708 45.4087L89.4707 46.3621Z" fill="#263238"/>
<path d="M77.9212 41.9541C77.9212 41.9541 77.5181 44.1345 79.0982 45.3969C77.062 44.9673 76.4587 44.9672 75.7702 44.8525C75.0816 44.7377 73.6751 44.1345 73.1866 43.8197C73.0719 46.1443 74.8227 48.1805 79.8721 48.3835C78.954 49.5605 79.5572 51.1083 81.6229 51.4261C80.7342 50.3344 81.2198 49.1868 82.0819 49.1015C82.9441 49.0162 83.6591 49.0427 83.6591 49.0427C83.6591 49.0427 83.4296 43.8461 77.9212 41.9541Z" fill="#FAFAFA"/>
<path d="M81.623 51.5704C81.6171 51.5704 81.6082 51.5704 81.6024 51.5704C80.5166 51.4026 79.725 50.8848 79.4308 50.1403C79.2219 49.6165 79.2866 49.0398 79.6044 48.519C76.9502 48.3748 75.0611 47.7127 73.99 46.5416C73.3074 45.7942 72.9896 44.879 73.0425 43.8109C73.0455 43.7579 73.0749 43.7138 73.122 43.6873C73.1691 43.6667 73.222 43.6697 73.2691 43.6962C73.7282 43.9963 75.1259 44.5966 75.7968 44.7054C75.9939 44.7408 76.1852 44.7643 76.4059 44.7908C76.8767 44.8496 77.5005 44.9232 78.6216 45.1468C77.4446 43.8403 77.7624 42.013 77.7771 41.9277C77.7859 41.8836 77.8124 41.8482 77.8477 41.8276C77.8859 41.8041 77.9271 41.8012 77.9713 41.8159C83.5121 43.7168 83.8063 48.9809 83.8093 49.0339C83.8122 49.0751 83.7975 49.1133 83.7681 49.1428C83.7386 49.1722 83.7033 49.1869 83.6621 49.1869C83.6621 49.1869 83.6592 49.1869 83.6562 49.1869C83.6504 49.1869 82.9383 49.1575 82.0996 49.2458C81.7818 49.2781 81.5141 49.4841 81.3846 49.799C81.1963 50.2551 81.3287 50.8288 81.7407 51.332C81.7789 51.3791 81.7848 51.4438 81.7554 51.4968C81.723 51.5439 81.673 51.5704 81.623 51.5704ZM73.328 44.0728C73.3368 44.9526 73.631 45.7147 74.2048 46.3415C75.2553 47.4891 77.165 48.1247 79.878 48.2365C79.9339 48.2394 79.984 48.2718 80.0046 48.3189C80.0281 48.3718 80.0193 48.4277 79.9869 48.4748C79.6044 48.9603 79.4984 49.5282 79.6985 50.0285C79.9222 50.5905 80.493 51.0113 81.2904 51.2055C80.9844 50.6935 80.9167 50.1462 81.108 49.6783C81.2816 49.2634 81.6377 48.9927 82.0673 48.9486C82.6911 48.8868 83.2355 48.8868 83.4973 48.8868C83.4002 48.0246 82.6999 43.8462 78.0419 42.1513C77.9919 42.681 77.9507 44.2935 79.1865 45.2792C79.2395 45.3234 79.2572 45.394 79.2277 45.4587C79.1983 45.5205 79.1306 45.5588 79.063 45.5382C77.6241 45.2322 76.8943 45.1439 76.3647 45.0791C76.1381 45.0527 75.9439 45.0262 75.7438 44.9968C75.1082 44.8908 73.9341 44.4024 73.328 44.0728Z" fill="#263238"/>
<path d="M78.6952 51.0202C78.6952 51.0202 78.1214 54.9514 84.0624 57.3055C84.236 55.8136 85.5542 55.4988 86.2134 56.4727C87.7052 54.9809 86.8166 52.9417 84.8922 53.3154C84.8922 50.8466 84.6627 48.1513 83.112 47.0007C82.2792 49.7255 82.5382 53.4861 82.5382 53.4861C82.5382 53.4861 81.5377 51.7382 78.6952 51.0202Z" fill="#2962FF"/>
<path d="M84.0623 57.4555C84.0446 57.4555 84.024 57.4526 84.0064 57.4467C78.0271 55.075 78.545 51.0408 78.5509 51.0026C78.5568 50.9584 78.5803 50.9231 78.6127 50.8996C78.6451 50.876 78.6863 50.8643 78.7304 50.879C80.7784 51.3998 81.8877 52.4326 82.3703 53.0123C82.3321 51.8942 82.3203 49.1017 82.9735 46.9625C82.9882 46.9154 83.0236 46.883 83.0677 46.8654C83.1089 46.8565 83.1619 46.8565 83.2001 46.8889C84.792 48.0659 85.0274 50.8231 85.0392 53.1477C85.8631 53.0506 86.5664 53.3684 86.9077 54.0128C87.3255 54.8014 87.0931 55.8077 86.3162 56.5816C86.2868 56.614 86.2574 56.6316 86.1985 56.6257C86.1544 56.6228 86.1162 56.5963 86.0897 56.5639C85.8278 56.1726 85.4364 55.9931 85.0627 56.0931C84.6096 56.202 84.28 56.6758 84.2035 57.3319C84.1976 57.379 84.1711 57.4173 84.1329 57.4408C84.1123 57.4496 84.0888 57.4555 84.0623 57.4555ZM78.8305 51.2056C78.8128 51.9618 79.0482 55.0897 83.9446 57.0995C84.074 56.4198 84.4683 55.9284 84.995 55.7989C85.4394 55.6988 85.8984 55.8607 86.225 56.2462C86.8135 55.5841 86.9813 54.7749 86.6488 54.1452C86.3427 53.5714 85.7042 53.3183 84.9215 53.4596C84.8803 53.4713 84.8332 53.4566 84.8008 53.4272C84.7655 53.4007 84.7479 53.3595 84.7479 53.3154C84.7479 51.1114 84.5654 48.4602 83.1942 47.2538C82.4527 49.905 82.6852 53.4419 82.6881 53.4743C82.691 53.542 82.6499 53.6067 82.5851 53.6273C82.5233 53.642 82.4498 53.6185 82.4144 53.5626C82.4027 53.5449 81.4405 51.9265 78.8305 51.2056Z" fill="#263238"/>
<path d="M88.6232 55.2397C88.6232 55.2397 85.8984 58.453 82.541 56.5609C83.718 59.5741 85.9838 59.833 89.1705 57.6791C92.3543 55.5281 88.6232 55.2397 88.6232 55.2397Z" fill="#FAFAFA"/>
<path d="M85.5542 59.2356C85.2423 59.2356 84.9451 59.1915 84.6685 59.1062C83.6915 58.8001 82.9324 57.9615 82.4027 56.6138C82.3792 56.5521 82.3968 56.4903 82.4439 56.4461C82.491 56.4079 82.5616 56.402 82.6116 56.4285C85.8249 58.2411 88.4849 55.1691 88.5114 55.1396C88.5408 55.1014 88.5879 55.0867 88.635 55.0867C88.8115 55.1014 90.374 55.2426 90.5829 56.0253C90.7124 56.5226 90.2769 57.0994 89.2529 57.7938C87.8376 58.756 86.5988 59.2356 85.5542 59.2356ZM82.8323 56.8757C83.3149 57.9203 83.9593 58.5765 84.7538 58.8237C85.8661 59.165 87.3285 58.7413 89.0852 57.5555C90.2004 56.7992 90.3593 56.349 90.2946 56.1048C90.171 55.6369 89.147 55.4368 88.6821 55.3898C88.2995 55.8105 85.8425 58.2675 82.8323 56.8757Z" fill="#263238"/>
<path d="M106.552 41.9543C106.552 41.9543 106.955 44.1348 105.375 45.3971C107.411 44.9675 108.014 44.9675 108.703 44.8527C109.391 44.738 110.798 44.1348 111.286 43.8199C111.401 46.1445 109.65 48.1807 104.601 48.3838C105.519 49.5608 104.916 51.1086 102.85 51.4263C103.739 50.3347 103.253 49.1871 102.391 49.1017C101.529 49.0164 100.814 49.0429 100.814 49.0429C100.814 49.0429 101.041 43.8464 106.552 41.9543Z" fill="#FAFAFA"/>
<path d="M102.85 51.5705C102.797 51.5705 102.747 51.544 102.724 51.4969C102.694 51.4439 102.7 51.3792 102.738 51.3321C103.15 50.826 103.283 50.2551 103.094 49.7991C102.965 49.4871 102.697 49.2782 102.379 49.2459C101.538 49.1605 100.829 49.187 100.823 49.187C100.823 49.187 100.82 49.187 100.817 49.187C100.779 49.187 100.74 49.1723 100.711 49.1429C100.682 49.1134 100.667 49.0752 100.67 49.034C100.67 48.9781 100.967 43.7168 106.508 41.816C106.552 41.8042 106.593 41.8071 106.631 41.8277C106.67 41.8483 106.693 41.8866 106.702 41.9278C106.717 42.0102 107.037 43.8375 105.857 45.1469C106.982 44.9233 107.602 44.8468 108.073 44.7909C108.294 44.7614 108.485 44.7379 108.682 44.7055C109.353 44.5967 110.751 43.9964 111.21 43.6962C111.254 43.6698 111.307 43.6668 111.357 43.6874C111.404 43.7139 111.434 43.758 111.437 43.811C111.489 44.8762 111.172 45.7943 110.489 46.5417C109.418 47.7099 107.532 48.3749 104.875 48.519C105.19 49.0399 105.254 49.6166 105.048 50.1404C104.754 50.8848 103.962 51.4057 102.877 51.5705C102.865 51.5705 102.856 51.5705 102.85 51.5705ZM101.123 48.8869C101.417 48.8869 101.882 48.8986 102.406 48.9487C102.835 48.9928 103.192 49.2635 103.365 49.6784C103.556 50.1433 103.489 50.6936 103.183 51.2056C103.98 51.0114 104.551 50.5906 104.775 50.0286C104.975 49.5283 104.869 48.9604 104.486 48.4749C104.454 48.4278 104.445 48.3719 104.469 48.319C104.492 48.2689 104.542 48.2395 104.595 48.2366C107.308 48.1277 109.218 47.4892 110.268 46.3416C110.842 45.7119 111.136 44.9498 111.145 44.0729C110.539 44.4024 109.365 44.8909 108.729 44.9968C108.526 45.0292 108.332 45.0557 108.109 45.0792C107.576 45.144 106.849 45.2352 105.41 45.5383C105.348 45.5618 105.278 45.5206 105.245 45.4588C105.216 45.397 105.234 45.3235 105.287 45.2793C106.522 44.2906 106.481 42.6781 106.431 42.1514C101.773 43.8463 101.073 48.0247 100.976 48.8869C101.017 48.8869 101.067 48.8869 101.123 48.8869Z" fill="#263238"/>
<path d="M105.775 51.0202C105.775 51.0202 106.349 54.9514 100.408 57.3055C100.235 55.8136 98.9163 55.4988 98.2571 56.4727C96.7653 54.9809 97.6539 52.9417 99.5783 53.3154C99.5783 50.8466 99.8078 48.1513 101.359 47.0007C102.191 49.7255 101.932 53.4861 101.932 53.4861C101.932 53.4861 102.936 51.7382 105.775 51.0202Z" fill="#2962FF"/>
<path d="M100.411 57.4556C100.384 57.4556 100.358 57.4497 100.334 57.435C100.296 57.4114 100.27 57.3732 100.264 57.3261C100.19 56.6699 99.8607 56.1962 99.4046 56.0873C99.028 55.9902 98.6396 56.1667 98.3777 56.5581C98.3512 56.5993 98.2894 56.6258 98.2541 56.6199C98.2158 56.6199 98.1776 56.6052 98.1511 56.5757C97.3743 55.8019 97.1448 54.7955 97.5597 54.0069C97.901 53.3625 98.6013 53.0476 99.4282 53.1418C99.437 50.8172 99.6753 48.0601 101.267 46.883C101.306 46.8507 101.356 46.8507 101.4 46.8595C101.447 46.8772 101.479 46.9125 101.494 46.9566C102.147 49.0958 102.135 51.8883 102.097 53.0064C102.58 52.4297 103.689 51.3939 105.737 50.8731C105.778 50.8614 105.822 50.8731 105.855 50.8937C105.89 50.9173 105.914 50.9555 105.916 50.9967C105.922 51.0379 106.44 55.0721 100.461 57.4408C100.446 57.4526 100.429 57.4556 100.411 57.4556ZM99.2075 55.7665C99.2958 55.7665 99.387 55.7783 99.4753 55.7989C100.005 55.9284 100.396 56.4198 100.526 57.0995C105.422 55.0898 105.658 51.9619 105.64 51.2056C103.03 51.9236 102.068 53.5449 102.059 53.5626C102.023 53.6214 101.95 53.642 101.888 53.6273C101.823 53.6067 101.779 53.5449 101.785 53.4743C101.788 53.439 102.021 49.9021 101.279 47.2538C99.9078 48.4573 99.7254 51.1115 99.7254 53.3154C99.7254 53.3596 99.7077 53.4008 99.6724 53.4272C99.64 53.4567 99.593 53.4714 99.5518 53.4596C98.772 53.3184 98.1335 53.5714 97.8245 54.1452C97.492 54.7749 97.6568 55.5841 98.2482 56.2462C98.5072 55.9372 98.8544 55.7665 99.2075 55.7665Z" fill="#263238"/>
<path d="M95.8471 55.24C95.8471 55.24 98.5719 58.4532 101.929 56.5612C100.752 59.5743 98.4865 59.8333 95.2998 57.6793C92.116 55.5284 95.8471 55.24 95.8471 55.24Z" fill="#FAFAFA"/>
<path d="M98.9161 59.2359C97.8715 59.2359 96.6327 58.7562 95.2203 57.7999C94.1934 57.1084 93.7579 56.5287 93.8903 56.0314C94.0992 55.2458 95.6617 55.1075 95.8383 55.0928C95.8765 55.0928 95.9295 55.1075 95.9618 55.1457C96.0707 55.2723 98.6484 58.2501 101.862 56.4346C101.915 56.4081 101.985 56.414 102.029 56.4522C102.076 56.4964 102.091 56.5582 102.071 56.6199C101.544 57.9676 100.782 58.8062 99.8048 59.1123C99.5252 59.1917 99.231 59.2359 98.9161 59.2359ZM95.7882 55.39C95.3204 55.44 94.2993 55.6371 94.1757 56.105C94.1139 56.3492 94.2699 56.7994 95.3851 57.5557C97.1477 58.7415 98.6013 59.1711 99.7165 58.8239C100.514 58.5767 101.158 57.9205 101.638 56.8759C98.6366 58.2678 96.1737 55.8108 95.7882 55.39Z" fill="#263238"/>
<path d="M98.1394 59.7449C97.3214 59.4565 96.8241 59.8302 96.8241 59.8302L95.2763 59.1417C95.2763 59.1417 95.394 54.4071 97.8775 51.0497C97.9364 50.2464 97.7304 49.8433 97.7304 49.8433L92.0719 49.7874H92.066H92.0601L86.4017 49.8433C86.4017 49.8433 86.1986 50.2464 86.2545 51.0497C88.738 54.4071 88.8557 59.1417 88.8557 59.1417L87.308 59.8302C87.308 59.8302 86.8107 59.4565 85.9927 59.7449C84.7068 60.2892 85.5836 62.6727 85.5836 62.6727C85.5836 62.6727 86.1692 62.6727 86.6076 62.6727C85.9367 60.5482 87.3668 61.4103 88.1848 62.6727C90.8184 62.552 91.7953 63.4613 92.0307 63.7379V63.8203C92.0307 63.8203 92.0454 63.7997 92.066 63.7761C92.0837 63.7997 92.0984 63.8203 92.0984 63.8203V63.7379C92.3338 63.4613 93.3107 62.552 95.9443 62.6727C96.7623 61.4103 98.1924 60.5482 97.5215 62.6727C97.9599 62.6727 98.5455 62.6727 98.5455 62.6727C98.5455 62.6727 99.4253 60.2892 98.1394 59.7449Z" fill="#757575"/>
<path d="M92.1013 63.9644C92.0807 63.9644 92.0572 63.9614 92.0337 63.9644C92.019 63.9644 92.0042 63.9614 91.9895 63.9585C91.9277 63.9379 91.8865 63.882 91.8865 63.8172V63.7878C91.6041 63.4847 90.6213 62.705 88.1937 62.8168C88.1907 62.8168 88.1907 62.8168 88.1878 62.8168C88.1378 62.8168 88.0907 62.7903 88.0642 62.752C87.5228 61.9193 86.8519 61.4485 86.6606 61.5397C86.5782 61.578 86.5047 61.8487 86.7518 62.6284C86.7636 62.6726 86.7577 62.7197 86.7312 62.7579C86.7018 62.7962 86.6606 62.8197 86.6106 62.8197H85.5866C85.5248 62.8197 85.4689 62.7815 85.4483 62.7256C85.41 62.6226 84.539 60.2067 85.9397 59.6094C86.6459 59.3564 87.1402 59.5623 87.3227 59.6653L88.7086 59.0503C88.6733 58.3618 88.3732 54.1569 86.1427 51.1379C86.1251 51.1173 86.1162 51.0878 86.1133 51.0643C86.0515 50.2316 86.2634 49.799 86.2751 49.7814C86.2987 49.7313 86.3487 49.7019 86.4046 49.7019L92.0631 49.6431L97.7333 49.7019C97.7893 49.7019 97.8393 49.7343 97.8628 49.7814C97.8716 49.799 98.0864 50.2286 98.0247 51.0643C98.0247 51.0908 98.0129 51.1202 97.9952 51.1379C95.7648 54.1569 95.4647 58.3618 95.4293 59.0503L96.8153 59.6653C96.9977 59.5653 97.4862 59.3593 98.1894 59.6065C98.1924 59.6065 98.1953 59.6065 98.1983 59.6094C99.5989 60.2038 98.725 62.6196 98.6897 62.7256C98.6691 62.7844 98.6132 62.8197 98.5514 62.8197H97.5274C97.4803 62.8197 97.4361 62.7962 97.4067 62.7579C97.3802 62.7197 97.3714 62.6726 97.3861 62.6284C97.6304 61.8487 97.5597 61.578 97.4744 61.5397C97.4597 61.5309 97.442 61.5279 97.4185 61.5279C97.1743 61.5279 96.5652 61.987 96.0708 62.752C96.0443 62.7932 95.9972 62.8168 95.9472 62.8168C95.9443 62.8168 95.9443 62.8168 95.9413 62.8168C93.4961 62.6873 92.528 63.4847 92.2485 63.7878V63.8172C92.2485 63.879 92.2102 63.9349 92.1484 63.9555C92.1367 63.9614 92.119 63.9644 92.1013 63.9644ZM88.6615 62.5137C90.789 62.5137 91.7394 63.2199 92.069 63.5553C92.4162 63.2022 93.4667 62.4225 95.8707 62.5225C96.3239 61.8487 97.136 61.0512 97.598 61.2719C97.8805 61.4044 97.9187 61.8163 97.7216 62.5255H98.4425C98.5808 62.09 99.084 60.3097 98.0835 59.8831C97.3626 59.6271 96.9271 59.939 96.9094 59.9478C96.8682 59.9831 96.8094 59.9861 96.7623 59.9655L95.2145 59.2799C95.1616 59.2534 95.1263 59.2004 95.1292 59.1416C95.1292 59.0915 95.2734 54.3511 97.7304 50.9966C97.7628 50.4699 97.6774 50.1345 97.6274 49.9903L92.069 49.9314L86.5017 49.9903C86.4517 50.1345 86.3664 50.4699 86.3987 50.9966C88.8557 54.3511 88.9999 59.0915 88.9999 59.1416C88.9999 59.2004 88.9675 59.2534 88.9146 59.2799L87.3668 59.9655C87.3168 59.9861 87.2609 59.9802 87.2167 59.9478C87.202 59.936 86.7636 59.63 86.0427 59.8831C85.0452 60.3097 85.5483 62.09 85.6896 62.5255H86.4105C86.2133 61.8163 86.2516 61.4044 86.5341 61.2719C87.0078 61.0395 87.8082 61.8487 88.2613 62.5225C88.3996 62.5166 88.5321 62.5137 88.6615 62.5137Z" fill="#263238"/>
<path d="M91.9246 60.8394C91.9188 60.8394 91.9129 60.8394 91.904 60.8394C90.8477 60.6922 88.7791 59.2563 88.6937 59.1945C88.629 59.1474 88.6114 59.0562 88.6584 58.9915C88.7026 58.9208 88.7938 58.9091 88.8644 58.9532C88.885 58.9679 90.9036 60.3686 91.904 60.5392C93.2076 59.9419 95.1997 58.9709 95.2173 58.962C95.2968 58.9208 95.3792 58.9561 95.4145 59.0297C95.4498 59.1003 95.4204 59.1915 95.3468 59.2239C95.3262 59.2327 93.2929 60.2273 91.9864 60.8247C91.9658 60.8364 91.9452 60.8394 91.9246 60.8394Z" fill="#263238"/>
<path d="M92.0954 62.5314C92.0718 62.5314 92.0483 62.5255 92.0277 62.5137C90.7595 61.8546 88.9027 61.9782 88.8821 61.9752C88.838 61.9635 88.785 61.9576 88.7556 61.9193L87.2461 59.992C87.196 59.9272 87.2078 59.8331 87.2726 59.786C87.3373 59.7301 87.4256 59.7477 87.4785 59.8095L88.9439 61.681C89.3176 61.6663 90.8948 61.628 92.0924 62.2224C93.2165 61.5662 95.0908 61.4573 95.494 61.4397L96.6739 59.7624C96.721 59.6948 96.8122 59.6771 96.8799 59.7242C96.9446 59.7713 96.9623 59.8625 96.9152 59.9272L95.6911 61.6663C95.6646 61.7075 95.6205 61.7281 95.5734 61.7281C95.5499 61.7281 93.3312 61.7928 92.1748 62.5137C92.1483 62.5255 92.1248 62.5314 92.0954 62.5314Z" fill="#263238"/>
<path d="M86.0691 49.0692C86.0691 49.0692 93.5578 47.5479 97.6038 49.2134C98.3512 49.6165 98.5218 51.3379 97.5743 51.1084C96.6269 50.8788 89.4235 50.3051 86.3545 51.0495C85.2658 51.2496 84.9803 49.5282 86.0691 49.0692Z" fill="#FAFAFA"/>
<path d="M97.7363 51.2731C97.6745 51.2731 97.6098 51.2643 97.5421 51.2495C96.6564 51.0406 89.4354 50.4521 86.3899 51.1907C85.8808 51.279 85.4395 51.0112 85.2864 50.4992C85.1246 49.9548 85.3218 49.2221 86.0103 48.9338C86.0191 48.9308 86.028 48.9279 86.0397 48.9249C86.3458 48.8631 93.6197 47.4095 97.6598 49.078C98.2512 49.3928 98.5072 50.3403 98.3042 50.867C98.2071 51.1289 98.0011 51.2731 97.7363 51.2731ZM90.8978 50.5286C93.9022 50.5286 97.0213 50.8229 97.6127 50.9612C97.8246 51.0112 97.9599 50.9465 98.0335 50.7611C98.1894 50.3521 97.9746 49.5782 97.5391 49.3428C93.6785 47.7597 86.4929 49.1397 86.1192 49.2104C85.5984 49.4369 85.4512 49.999 85.5748 50.4139C85.616 50.5522 85.7867 50.9906 86.334 50.9053C87.4786 50.6257 89.1706 50.5286 90.8978 50.5286Z" fill="#263238"/>
<path d="M87.6493 49.0133C87.6493 49.0133 86.8754 50.0755 87.8229 50.6493C88.7704 51.2231 89.8591 50.6493 89.8591 50.6493C89.8591 50.6493 88.997 49.2722 89.6296 48.6131C88.7116 48.2364 87.6493 49.0133 87.6493 49.0133Z" fill="#2962FF"/>
<path d="M88.7704 51.0524C88.4468 51.0524 88.0878 50.9847 87.7435 50.7758C87.4551 50.5993 87.2786 50.3639 87.2227 50.0814C87.1079 49.5135 87.511 48.9485 87.5287 48.925C87.5375 48.9132 87.5493 48.9014 87.5611 48.8926C87.6052 48.8543 88.6969 48.0657 89.6826 48.4748C89.7268 48.4924 89.7591 48.5336 89.7709 48.5777C89.7797 48.6278 89.768 48.6748 89.7326 48.7102C89.1883 49.2781 89.9739 50.5551 89.9798 50.5698C90.0004 50.6051 90.0063 50.6463 89.9975 50.6846C89.9857 50.7258 89.9592 50.7582 89.9239 50.7758C89.8945 50.7964 89.3943 51.0524 88.7704 51.0524ZM87.7553 49.1192C87.6935 49.2104 87.4345 49.6341 87.511 50.0255C87.5522 50.2285 87.6788 50.3933 87.8965 50.5257C88.5703 50.9347 89.3383 50.7022 89.6503 50.5845C89.459 50.2285 89.0353 49.3104 89.3884 48.6925C88.6704 48.5277 87.8877 49.025 87.7553 49.1192Z" fill="#263238"/>
<path d="M91.8955 48.4687C91.8955 48.4687 92.1839 50.1901 91.8955 50.4785C93.561 50.7933 94.02 50.5932 94.02 50.5932C94.02 50.5932 95.1676 49.2161 94.1348 48.6129C93.1019 48.0068 91.8955 48.4687 91.8955 48.4687Z" fill="#2962FF"/>
<path d="M93.4579 50.8023C93.1166 50.8023 92.6075 50.7611 91.8689 50.6198C91.816 50.611 91.7718 50.5698 91.7542 50.5198C91.7365 50.4698 91.7542 50.4109 91.7924 50.3727C91.9307 50.2314 91.8837 49.2869 91.7512 48.4894C91.7395 48.4218 91.7777 48.3541 91.8454 48.3276C91.8984 48.307 93.1254 47.8538 94.2112 48.4835C94.4848 48.6424 94.6496 48.8661 94.6997 49.1486C94.8232 49.8489 94.1612 50.6522 94.1347 50.6846C94.12 50.7022 94.1023 50.7169 94.0788 50.7258C94.0494 50.7375 93.8846 50.8023 93.4579 50.8023ZM92.1102 50.3668C93.3226 50.5786 93.811 50.4933 93.9317 50.4639C94.0464 50.3138 94.4937 49.6929 94.4083 49.1956C94.373 49.0044 94.2612 48.8514 94.0611 48.7366C93.2755 48.2835 92.3721 48.4777 92.0602 48.5659C92.1279 49.0044 92.2427 49.9077 92.1102 50.3668Z" fill="#263238"/>
<path d="M96.0853 48.7544C96.0853 48.7544 96.6886 49.8726 95.9412 50.8495C96.8887 50.9937 97.6331 51.2526 97.6331 51.2526C97.6331 51.2526 99.0102 50.3904 97.8332 49.2429C97.2329 48.9839 96.0853 48.7544 96.0853 48.7544Z" fill="#2962FF"/>
<path d="M97.6362 51.3968C97.6215 51.3968 97.6038 51.3938 97.5891 51.388C97.5832 51.388 96.8446 51.1349 95.9207 50.9966C95.8677 50.9878 95.8265 50.9525 95.8059 50.9054C95.7883 50.8554 95.7942 50.8024 95.8265 50.7612C96.5033 49.8726 95.9795 48.8662 95.956 48.825C95.9295 48.775 95.9324 48.7132 95.9678 48.6691C96.0031 48.619 96.059 48.5926 96.1149 48.6102C96.162 48.619 97.2831 48.8427 97.8951 49.1046C97.9128 49.1104 97.9275 49.1222 97.9422 49.134C98.3247 49.5106 98.4983 49.902 98.4542 50.2963C98.3836 50.9525 97.7421 51.3585 97.7156 51.3732C97.6891 51.3909 97.6627 51.3968 97.6362 51.3968ZM96.1914 50.7406C96.877 50.8612 97.4214 51.026 97.6097 51.0849C97.748 50.9819 98.1129 50.6759 98.157 50.2639C98.1894 49.9667 98.0511 49.6666 97.7509 49.3635C97.3419 49.1928 96.6946 49.0398 96.3268 48.9545C96.4592 49.337 96.6063 50.0491 96.1914 50.7406Z" fill="#263238"/>
<path d="M92.069 62.5313C91.9866 62.5313 91.9219 62.4665 91.9219 62.3842V50.6435C91.9219 50.564 91.9866 50.4963 92.069 50.4963C92.1514 50.4963 92.2161 50.5611 92.2161 50.6435V62.3842C92.2132 62.4665 92.1485 62.5313 92.069 62.5313Z" fill="#263238"/>
<path d="M91.9541 53.833L89.7442 52.656L88.9409 53.5182L91.9805 55.6427L94.7936 53.7183L94.0491 52.7443L91.9541 53.833Z" fill="#7B1FA2"/>
<path d="M91.9807 55.787C91.9512 55.787 91.9218 55.7781 91.8953 55.7605L88.8528 53.636C88.8174 53.6095 88.7939 53.5742 88.791 53.5301C88.788 53.4889 88.7998 53.4477 88.8292 53.4153L89.6325 52.5561C89.6767 52.506 89.7502 52.4943 89.8091 52.5267L91.9512 53.6654L93.9757 52.6149C94.0434 52.5855 94.1169 52.5973 94.1581 52.6561L94.9055 53.6301C94.9291 53.6625 94.9409 53.7007 94.935 53.7419C94.9291 53.7831 94.9055 53.8155 94.8732 53.839L92.0601 55.7605C92.0395 55.7781 92.0101 55.787 91.9807 55.787ZM89.1617 53.4947L91.9807 55.4633L94.5819 53.686L94.0051 52.9327L92.0189 53.9655C91.9777 53.992 91.9248 53.9891 91.8836 53.9655L89.7738 52.8444L89.1617 53.4947Z" fill="#263238"/>
<path d="M85.6689 52.1118L92.0101 56.4726L98.2865 52.1707L97.6362 51.2496L91.9542 55.325L86.2427 51.1643L85.6689 52.1118Z" fill="#BDBDBD"/>
<path d="M92.0101 56.6198C91.9807 56.6198 91.9513 56.611 91.9278 56.5933L85.5866 52.2325C85.5219 52.1883 85.5042 52.103 85.5425 52.0353L86.1163 51.0878C86.1369 51.0525 86.1751 51.029 86.2134 51.0231C86.2516 51.0143 86.2957 51.0231 86.3281 51.0496L91.9513 55.1485L97.548 51.1349C97.5803 51.1114 97.6186 51.0967 97.6598 51.1114C97.698 51.1172 97.7334 51.1378 97.7569 51.1702L98.4072 52.0883C98.4278 52.1236 98.4396 52.1618 98.4307 52.2001C98.4249 52.2413 98.4013 52.2707 98.3689 52.2943L92.0925 56.5992C92.069 56.6109 92.0396 56.6198 92.0101 56.6198ZM85.8661 52.0677L92.0101 56.2961L98.0776 52.1324L97.598 51.4586L92.0366 55.4457C91.9837 55.481 91.916 55.484 91.863 55.4428L86.284 51.3762L85.8661 52.0677Z" fill="#263238"/>
<path d="M76.4323 87.4341C76.4323 87.4341 76.1263 89.6704 79.5308 89.4674C78.9217 93.2279 75.1611 93.3809 75.1611 93.3809C75.1611 93.3809 74.196 92.5688 74.246 91.5007C75.5172 90.6356 75.7202 87.9431 75.7202 87.9431L76.4323 87.4341Z" fill="#DD2C00"/>
<path d="M75.1612 93.525C75.1259 93.525 75.0935 93.5133 75.0671 93.4897C75.0259 93.4544 74.046 92.6158 74.1019 91.4918C74.1019 91.4417 74.1284 91.4035 74.1637 91.377C75.3613 90.5619 75.5732 87.9548 75.5732 87.9283C75.5761 87.8842 75.5997 87.846 75.635 87.8195L76.3471 87.3104C76.3912 87.2751 76.4559 87.2722 76.5089 87.3045C76.5589 87.3369 76.5854 87.3928 76.5766 87.4517C76.5766 87.4575 76.4971 88.1225 76.9885 88.6463C77.4711 89.1613 78.3274 89.379 79.522 89.3172C79.5662 89.2996 79.6103 89.3349 79.6398 89.3672C79.6692 89.3996 79.6839 89.4438 79.6751 89.4879C79.0542 93.3249 75.2024 93.525 75.1642 93.525H75.1612ZM74.3932 91.5771C74.3903 92.398 75.0406 93.066 75.2142 93.2308C75.6938 93.1925 78.7246 92.8424 79.3543 89.6203C78.1597 89.6821 77.2857 89.4055 76.7678 88.8435C76.4059 88.4521 76.3059 88.0078 76.2823 87.7194L75.8586 88.0225C75.8204 88.458 75.5526 90.7149 74.3932 91.5771Z" fill="#263238"/>
<path d="M109.612 86.8247C109.612 86.8247 109.918 89.061 106.514 88.858C107.123 92.6186 110.884 92.7716 110.884 92.7716C110.884 92.7716 111.849 91.9594 111.799 90.8913C110.528 90.0262 110.324 87.3338 110.324 87.3338L109.612 86.8247Z" fill="#DD2C00"/>
<path d="M110.883 92.9159C110.883 92.9159 110.881 92.9159 110.878 92.9159C110.839 92.9159 106.991 92.7158 106.367 88.8787C106.361 88.8346 106.373 88.7904 106.402 88.7581C106.431 88.7228 106.467 88.7198 106.52 88.708C107.714 88.7757 108.577 88.5491 109.059 88.0342C109.551 87.5016 109.468 86.8484 109.468 86.8425C109.459 86.7836 109.486 86.7277 109.536 86.6954C109.586 86.663 109.651 86.6689 109.698 86.7012L110.41 87.2103C110.445 87.2368 110.469 87.275 110.472 87.3192C110.472 87.3457 110.683 89.9527 111.881 90.7678C111.919 90.7943 111.943 90.8355 111.943 90.8826C111.996 92.0066 111.019 92.8453 110.975 92.8806C110.951 92.9041 110.919 92.9159 110.883 92.9159ZM106.69 89.0111C107.317 92.1949 110.371 92.5804 110.833 92.6187C111.007 92.4539 111.657 91.7918 111.654 90.9679C110.492 90.1058 110.227 87.8459 110.183 87.4133L109.759 87.1103C109.739 87.3986 109.636 87.8429 109.274 88.2343C108.794 88.7551 108.009 89.017 106.938 89.017C106.858 89.017 106.776 89.0141 106.69 89.0111Z" fill="#263238"/>
<path d="M78.2471 57.6035C78.6047 57.5131 78.8592 57.2994 78.8154 57.1261C78.7716 56.9528 78.4462 56.8855 78.0885 56.9758C77.7309 57.0662 77.4764 57.2799 77.5202 57.4532C77.564 57.6265 77.8894 57.6938 78.2471 57.6035Z" fill="#FAFAFA"/>
<path d="M77.9448 57.7969C77.6476 57.7969 77.4239 57.685 77.3768 57.4938C77.3415 57.3496 77.4063 57.2025 77.5593 57.073C77.6829 56.9671 77.8594 56.8847 78.0507 56.8346C78.5097 56.7287 78.8922 56.8317 78.957 57.0906V57.0936C79.0217 57.3555 78.7392 57.635 78.2831 57.7527C78.1625 57.7821 78.0507 57.7969 77.9448 57.7969ZM78.392 57.0877C78.3155 57.0877 78.2243 57.0995 78.1242 57.126C77.9742 57.1642 77.8388 57.226 77.7505 57.3025C77.6799 57.3643 77.6623 57.4114 77.6652 57.4261C77.6799 57.4702 77.8888 57.5585 78.2155 57.4702C78.5391 57.3878 78.6863 57.2201 78.6774 57.1672C78.6598 57.1348 78.5597 57.0877 78.392 57.0877Z" fill="#263238"/>
</g>
<defs>
<linearGradient id="paint0_linear_4935_18041" x1="64" y1="20" x2="64" y2="108.276" gradientUnits="userSpaceOnUse">
<stop stop-color="#3068E5"/>
<stop offset="1" stop-color="#283593"/>
</linearGradient>
<clipPath id="clip0_4935_18041">
<rect y="20" width="128" height="88.2759" rx="2" fill="white"/>
</clipPath>
</defs>
</svg>
