<svg width="128" height="128" viewBox="0 0 128 128" fill="none" xmlns="http://www.w3.org/2000/svg">
<g clip-path="url(#clip0_4935_21695)">
<path d="M128 32H0V96H128V32Z" fill="url(#paint0_linear_4935_21695)"/>
<path d="M0 96V32H128" fill="url(#paint1_linear_4935_21695)"/>
<path d="M128 32L0 96L128 32Z" fill="black"/>
<path d="M128 32L0 96" stroke="#FCD116" stroke-width="7.83"/>
<path d="M22.4 44.8L20.4223 50.8868L23.4657 51.8757L22.4 44.8Z" fill="white"/>
<path d="M22.4 44.8L24.3777 50.8868L21.3344 51.8757L22.4 44.8Z" fill="white"/>
<path d="M28.4869 49.2224H22.0869V52.4224L28.4869 49.2224Z" fill="white"/>
<path d="M28.4869 49.2224L23.3092 52.9842L21.4283 50.3954L28.4869 49.2224Z" fill="white"/>
<path d="M16.3133 49.2222L21.491 52.984L23.3719 50.3951L16.3133 49.2222Z" fill="white"/>
<path d="M16.3133 49.2222H22.7133V52.4222L16.3133 49.2222Z" fill="white"/>
<path d="M26.1619 56.3777L24.1842 50.2909L21.1408 51.2798L26.1619 56.3777Z" fill="white"/>
<path d="M26.1619 56.3777L20.9842 52.6159L22.8651 50.027L26.1619 56.3777Z" fill="white"/>
<path d="M18.6382 56.3777L23.8159 52.6159L21.935 50.027L18.6382 56.3777Z" fill="white"/>
<path d="M18.6382 56.3777L20.6159 50.2909L23.6593 51.2798L18.6382 56.3777Z" fill="white"/>
<path d="M35.0343 33.9712L33.0566 40.058L36.1 41.0468L35.0343 33.9712Z" fill="white"/>
<path d="M35.0343 33.9712L37.012 40.058L33.9686 41.0468L35.0343 33.9712Z" fill="white"/>
<path d="M41.121 38.3936H34.721V41.5936L41.121 38.3936Z" fill="white"/>
<path d="M41.121 38.3936L35.9433 42.1554L34.0624 39.5665L41.121 38.3936Z" fill="white"/>
<path d="M28.9476 38.3933L34.1253 42.1551L36.0062 39.5663L28.9476 38.3933Z" fill="white"/>
<path d="M28.9476 38.3933H35.3476V41.5933L28.9476 38.3933Z" fill="white"/>
<path d="M38.7961 45.5488L36.8184 39.4621L33.7751 40.4509L38.7961 45.5488Z" fill="white"/>
<path d="M38.7961 45.5488L33.6184 41.787L35.4993 39.1981L38.7961 45.5488Z" fill="white"/>
<path d="M31.2725 45.5488L36.4502 41.787L34.5693 39.1981L31.2725 45.5488Z" fill="white"/>
<path d="M31.2725 45.5488L33.2502 39.4621L36.2936 40.4509L31.2725 45.5488Z" fill="white"/>
<path d="M35.0343 55.6289L33.0566 61.7157L36.1 62.7045L35.0343 55.6289Z" fill="white"/>
<path d="M35.0343 55.6289L37.012 61.7157L33.9686 62.7045L35.0343 55.6289Z" fill="white"/>
<path d="M41.121 60.0513H34.721V63.2513L41.121 60.0513Z" fill="white"/>
<path d="M41.121 60.0513L35.9433 63.8131L34.0624 61.2242L41.121 60.0513Z" fill="white"/>
<path d="M28.9476 60.051L34.1253 63.8129L36.0062 61.224L28.9476 60.051Z" fill="white"/>
<path d="M28.9476 60.051H35.3476V63.251L28.9476 60.051Z" fill="white"/>
<path d="M38.7961 67.2065L36.8184 61.1198L33.7751 62.1086L38.7961 67.2065Z" fill="white"/>
<path d="M38.7961 67.2065L33.6184 63.4447L35.4993 60.8559L38.7961 67.2065Z" fill="white"/>
<path d="M31.2725 67.2065L36.4502 63.4447L34.5693 60.8559L31.2725 67.2065Z" fill="white"/>
<path d="M31.2725 67.2065L33.2502 61.1198L36.2936 62.1086L31.2725 67.2065Z" fill="white"/>
<path d="M9.76575 55.6289L7.78804 61.7157L10.8314 62.7045L9.76575 55.6289Z" fill="white"/>
<path d="M9.76575 55.6289L11.7435 61.7157L8.70007 62.7045L9.76575 55.6289Z" fill="white"/>
<path d="M15.8525 60.0513H9.45248V63.2513L15.8525 60.0513Z" fill="white"/>
<path d="M15.8525 60.0513L10.6748 63.8131L8.79385 61.2242L15.8525 60.0513Z" fill="white"/>
<path d="M3.67896 60.051L8.85667 63.8129L10.7376 61.224L3.67896 60.051Z" fill="white"/>
<path d="M3.67896 60.051H10.079V63.251L3.67896 60.051Z" fill="white"/>
<path d="M13.5276 67.2065L11.5499 61.1198L8.5065 62.1086L13.5276 67.2065Z" fill="white"/>
<path d="M13.5276 67.2065L8.34988 63.4447L10.2308 60.8559L13.5276 67.2065Z" fill="white"/>
<path d="M6.00391 67.2065L11.1816 63.4447L9.3007 60.8559L6.00391 67.2065Z" fill="white"/>
<path d="M6.00391 67.2065L7.98162 61.1198L11.025 62.1086L6.00391 67.2065Z" fill="white"/>
<path d="M9.76575 33.9712L7.78804 40.058L10.8314 41.0468L9.76575 33.9712Z" fill="white"/>
<path d="M9.76575 33.9712L11.7435 40.058L8.70007 41.0468L9.76575 33.9712Z" fill="white"/>
<path d="M15.8525 38.3936H9.45248V41.5936L15.8525 38.3936Z" fill="white"/>
<path d="M15.8525 38.3936L10.6748 42.1554L8.79385 39.5665L15.8525 38.3936Z" fill="white"/>
<path d="M3.67896 38.3933L8.85667 42.1551L10.7376 39.5663L3.67896 38.3933Z" fill="white"/>
<path d="M3.67896 38.3933H10.079V41.5933L3.67896 38.3933Z" fill="white"/>
<path d="M13.5276 45.5488L11.5499 39.4621L8.5065 40.4509L13.5276 45.5488Z" fill="white"/>
<path d="M13.5276 45.5488L8.34988 41.787L10.2308 39.1981L13.5276 45.5488Z" fill="white"/>
<path d="M6.00391 45.5488L11.1816 41.787L9.3007 39.1981L6.00391 45.5488Z" fill="white"/>
<path d="M6.00391 45.5488L7.98162 39.4621L11.025 40.4509L6.00391 45.5488Z" fill="white"/>
</g>
<defs>
<linearGradient id="paint0_linear_4935_21695" x1="64" y1="32" x2="64" y2="96" gradientUnits="userSpaceOnUse">
<stop stop-color="#34A256"/>
<stop offset="1" stop-color="#215B33"/>
</linearGradient>
<linearGradient id="paint1_linear_4935_21695" x1="64" y1="32" x2="64" y2="96" gradientUnits="userSpaceOnUse">
<stop stop-color="#4371DB"/>
<stop offset="0.509469" stop-color="#0051BA"/>
</linearGradient>
<clipPath id="clip0_4935_21695">
<rect y="32" width="128" height="64" rx="2" fill="white"/>
</clipPath>
</defs>
</svg>
