<svg width="128" height="128" viewBox="0 0 128 128" fill="none" xmlns="http://www.w3.org/2000/svg">
<g clip-path="url(#clip0_4935_17075)">
<path d="M-0.735596 20H128.736V108.276H-0.735596V20Z" fill="#33691E"/>
<path d="M-0.735596 20H128.736V81.7931H-0.735596V20Z" fill="#ECEFF1"/>
<path d="M-0.735596 20H128.736V46.4828H-0.735596V20Z" fill="url(#paint0_linear_4935_17075)"/>
<path d="M71.3887 69.5463C70.7208 70.176 69.8645 70.5615 68.9523 70.6438C66.6983 70.8469 64.7092 69.1785 64.5062 66.9157V63.6671C64.5297 62.9197 65.1506 62.3341 65.895 62.3577C66.3599 62.3724 66.7837 62.6254 67.0191 63.0286C67.5723 61.3543 66.6689 59.5476 65.0005 58.9944C63.3321 58.4412 61.5342 59.3475 60.981 61.0188C60.7662 61.6721 60.7662 62.3753 60.981 63.0286C61.3547 62.3842 62.1786 62.1635 62.823 62.5401C63.2262 62.7755 63.4792 63.2022 63.4939 63.6671V66.9157C63.2909 69.1785 61.3017 70.8469 59.0478 70.6438C58.1356 70.5615 57.2793 70.176 56.6113 69.5463C55.7404 71.7385 53.2657 72.8095 51.0794 71.9356C50.7587 71.8061 50.4526 71.6384 50.1731 71.4383C50.5674 75.3784 56.4524 74.5751 56.8909 70.7439C58.7388 74.0013 62.8054 73.0685 63.9942 69.0784H64.0059C65.1976 73.0685 69.2613 74.0013 71.1092 70.7439C71.5476 74.5751 77.4327 75.3813 77.827 71.4383C77.5445 71.6414 77.2414 71.8091 76.9207 71.9356C74.7373 72.8066 72.2597 71.7385 71.3887 69.5463ZM61.7049 61.6132C61.8461 60.5804 62.6553 59.7683 63.6852 59.6241C64.9534 59.4505 66.1216 60.3391 66.2982 61.6132C65.3919 61.4278 64.4679 61.8427 64.003 62.646C63.5351 61.8427 62.6112 61.4278 61.7049 61.6132Z" fill="#FFC107"/>
<path d="M59.5627 73.9129C59.5627 73.9129 59.1478 73.6628 58.2827 73.7746C58.1591 73.2126 57.6677 72.73 57.3175 72.4887C56.9821 72.8595 56.7437 73.5451 56.8614 74.0394C56.2435 74.1513 55.6667 74.5603 55.6667 74.5603C57.0998 75.9992 58.7417 75.6931 59.5627 73.9129ZM65.9862 73.7099C65.9862 73.7099 65.6184 73.395 64.7445 73.3627C64.7121 72.7889 64.306 72.2327 64 71.9385C63.6086 72.2504 63.2644 72.886 63.2967 73.3921C62.67 73.4039 62.0314 73.7128 62.0314 73.7128C63.2202 75.3665 64.8886 75.3342 65.9862 73.7099ZM72.3597 74.5632C72.3597 74.5632 72.0478 74.1925 71.1915 74.0188C71.2533 73.448 70.9444 72.833 70.6884 72.4917C70.2529 72.733 69.8085 73.3068 69.7585 73.8129C69.1376 73.7217 68.4609 73.9217 68.4609 73.9217C69.3613 75.7432 71.012 75.9815 72.3597 74.5632Z" fill="#FFC107"/>
<path d="M53.2567 76.9144L53.8305 78.8506C60.4836 76.8614 67.5162 76.8614 74.1693 78.8506L74.7431 76.9144C67.7163 74.8134 60.2835 74.8134 53.2567 76.9144ZM63.02 52.4502L62.4168 54.3187L63.9999 53.1623L65.583 54.3187L64.9798 52.4502L66.5628 51.2938H64.6061L63.9999 49.4253L63.3937 51.2938H61.437L63.02 52.4502ZM55.4754 54.4776L54.8692 56.3491L56.4553 55.1926L58.0383 56.3491L57.4322 54.4776L59.0182 53.3241H57.0585L56.4553 51.4556L55.8491 53.3241H53.8894L55.4754 54.4776ZM49.9493 60.0243L49.3461 61.8928L50.9292 60.7364L52.5152 61.8928L51.9091 60.0243L53.4921 58.8679H51.5353L50.9292 56.9994L50.326 58.8679H48.3662L49.9493 60.0243ZM48.9077 68.3134L50.4908 69.4669L49.8875 67.5984L51.4706 66.4419H49.5138L48.9077 64.5734L48.3015 66.4419H46.3447L47.9278 67.5984L47.3246 69.4669L48.9077 68.3134ZM70.5676 54.4776L69.9615 56.3491L71.5475 55.1926L73.1306 56.3491L72.5244 54.4776L74.1104 53.3241H72.1507L71.5445 51.4556L70.9413 53.3241H68.9816L70.5676 54.4776ZM76.0907 60.0243L75.4846 61.8928L77.0706 60.7364L78.6537 61.8928L78.0505 60.0243L79.6336 58.8679H77.6738L77.0706 56.9994L76.4645 58.8679H74.5077L76.0907 60.0243ZM80.072 67.5984L81.6551 66.4419H79.6983L79.0921 64.5734L78.486 66.4419H76.5292L78.1123 67.5984L77.509 69.4669L79.0921 68.3134L80.6752 69.4669L80.072 67.5984Z" fill="#FFC107"/>
</g>
<defs>
<linearGradient id="paint0_linear_4935_17075" x1="64" y1="20" x2="64" y2="46.4828" gradientUnits="userSpaceOnUse">
<stop stop-color="#ED3636"/>
<stop offset="1" stop-color="#D50000"/>
</linearGradient>
<clipPath id="clip0_4935_17075">
<rect y="20" width="128" height="88.2759" rx="2" fill="white"/>
</clipPath>
</defs>
</svg>
