<svg width="128" height="128" viewBox="0 0 128 128" fill="none" xmlns="http://www.w3.org/2000/svg">
<g clip-path="url(#clip0_4935_17438)">
<path d="M-0.735596 20H128.736V108.276H-0.735596V20Z" fill="#D32F2F"/>
<path d="M-0.735596 34.7126H128.736V93.5632H-0.735596V34.7126Z" fill="#1B5E20"/>
<path d="M64 37.9319L61.2222 46.4829H52.2299L59.5038 51.7677L56.726 60.3186L64 55.0339L71.2739 60.3186L68.4962 51.7677L75.7701 46.4829H66.7777L64 37.9319Z" fill="#FFC400"/>
<path d="M92.5513 49.4253C92.4778 64.594 79.2276 75.9081 64.0441 75.9081C64.0294 75.9081 64.0147 75.9051 63.9971 75.9051C63.9794 75.9051 63.9706 75.9081 63.9529 75.9081C48.7695 75.9081 35.5222 64.594 35.4457 49.4253C34.8454 51.7352 34.5747 53.7361 34.5747 56.2225C34.5747 71.9651 48.2428 84.7356 64 84.7356C79.7572 84.7356 93.4253 71.9651 93.4253 56.2225C93.4253 53.7361 93.1546 51.7352 92.5513 49.4253Z" fill="#FFC400"/>
</g>
<defs>
<clipPath id="clip0_4935_17438">
<rect y="20" width="128" height="88.2759" rx="2" fill="white"/>
</clipPath>
</defs>
</svg>
