<svg width="128" height="128" viewBox="0 0 128 128" fill="none" xmlns="http://www.w3.org/2000/svg">
<g clip-path="url(#clip0_4935_21014)">
<path d="M-0.735596 20H128.736V108.276H-0.735596V20Z" fill="#E3E4E5"/>
<path d="M30.8966 20H128.736V108.276H30.8966V20Z" fill="url(#paint0_linear_4935_21014)"/>
<path d="M78.7126 37.6553C71.689 37.6553 64.953 40.4454 59.9865 45.4119C55.02 50.3784 52.2299 57.1144 52.2299 64.138C52.2299 71.1617 55.02 77.8977 59.9865 82.8642C64.953 87.8306 71.689 90.6208 78.7126 90.6208C85.7363 90.6208 92.4723 87.8306 97.4388 82.8642C102.405 77.8977 105.195 71.1617 105.195 64.138C105.195 57.1144 102.405 50.3784 97.4388 45.4119C92.4723 40.4454 85.7363 37.6553 78.7126 37.6553Z" fill="#ECEFF1"/>
<path d="M85.8141 31.7688C79.181 31.8367 72.8466 34.5369 68.2043 39.2752C63.562 44.0136 60.9921 50.402 61.06 57.0351C61.1279 63.6682 63.8281 70.0027 68.5664 74.645C73.3047 79.2873 79.6932 81.8571 86.3263 81.7892C92.9594 81.7213 99.2938 79.0212 103.936 74.2828C108.578 69.5445 111.148 63.1561 111.08 56.5229C111.012 49.8898 108.312 43.5554 103.574 38.9131C98.8357 34.2708 92.4472 31.7009 85.8141 31.7688Z" fill="url(#paint1_linear_4935_21014)"/>
<path d="M87.5402 43.5403L97.9274 57.8174L81.1314 52.3708L97.9185 46.9065L87.552 61.1955L87.5402 43.5403Z" fill="#ECEFF1"/>
</g>
<defs>
<linearGradient id="paint0_linear_4935_21014" x1="79.8161" y1="20" x2="79.8161" y2="108.276" gradientUnits="userSpaceOnUse">
<stop stop-color="#408945"/>
<stop offset="1" stop-color="#1B5E20"/>
</linearGradient>
<linearGradient id="paint1_linear_4935_21014" x1="85.8141" y1="31.7688" x2="86.3263" y2="81.7892" gradientUnits="userSpaceOnUse">
<stop stop-color="#408945"/>
<stop offset="1" stop-color="#1B5E20"/>
</linearGradient>
<clipPath id="clip0_4935_21014">
<rect y="20" width="128" height="88.2759" rx="2" fill="white"/>
</clipPath>
</defs>
</svg>
