<svg width="128" height="128" viewBox="0 0 128 128" fill="none" xmlns="http://www.w3.org/2000/svg">
<g clip-path="url(#clip0_4935_15887)">
<path d="M-0.735596 20H128.736V49.4253H-0.735596V20Z" fill="#43A047"/>
<path d="M-0.735596 49.4253H128.736V78.8506H-0.735596V49.4253Z" fill="#ECEFF1"/>
<path d="M-0.735596 78.8506H128.736V108.276H-0.735596V78.8506Z" fill="#E53935"/>
<path d="M34.5747 64.1379L-0.735596 20V108.276L34.5747 64.1379Z" fill="#1976D2"/>
<path d="M64.5826 73.7541C64.5709 73.7541 64.5591 73.7541 64.5473 73.7511C64.5002 73.7394 64.4649 73.7041 64.4443 73.6658C63.9529 73.0391 63.3321 72.7242 62.5994 72.7242H60.2042C58.6711 72.7242 57.4235 71.4883 57.4235 69.97V55.2014C57.4235 55.122 57.4882 55.0543 57.5706 55.0543H71.6094C71.6918 55.0543 71.7565 55.1191 71.7565 55.2014V69.97C71.7565 71.4883 70.5089 72.7242 68.9758 72.7242H66.5777C65.8391 72.7242 65.2153 73.0449 64.7209 73.6776C64.7033 73.71 64.6768 73.7335 64.6415 73.7423C64.6209 73.7511 64.6032 73.7541 64.5826 73.7541ZM57.7148 55.3486V69.97C57.7148 71.3265 58.83 72.43 60.2042 72.43H62.5994C63.385 72.43 64.053 72.7448 64.5885 73.3716C65.1241 72.7448 65.792 72.43 66.5747 72.43H68.9729C70.3441 72.43 71.4623 71.3265 71.4623 69.97V55.3486H57.7148Z" fill="#424242"/>
<path d="M62.8789 60.9453C62.8789 60.9453 63.9647 61.2101 64.0177 62.855C64.0706 64.4999 64.1766 67.2835 63.0113 70.332C62.8259 70.9146 63.0113 71.8179 64.259 71.3118C64.7621 72.0798 65.2388 71.2853 65.2388 71.2853C65.2388 71.2853 66.5129 71.6826 66.1127 70.6498C65.7155 69.6169 65.1329 68.0515 65.1329 65.5592C65.1329 63.0669 64.8151 62.1664 66.8837 61.0777C67.0426 60.8129 66.8042 60.4156 66.8042 60.4156L65.027 61.5279L65.1064 60.4156L64.4443 60.5481L64.3914 61.422L63.3321 60.3892L62.8789 60.9453Z" fill="#8D6E63"/>
<path d="M64.7268 71.7944C64.5385 71.7944 64.3619 71.6944 64.206 71.4913C63.5763 71.715 63.2408 71.5708 63.0643 71.4119C62.77 71.1382 62.7583 70.6498 62.873 70.2849C64.0177 67.2953 63.9294 64.5587 63.8764 62.9197V62.8579C63.8264 61.3543 62.8877 61.0954 62.8465 61.0865L62.6259 61.0277L63.3203 60.1655L64.2648 61.0865L64.306 60.4156L65.2712 60.2273L65.1976 61.2454L66.8543 60.2038L66.9308 60.3333C66.9602 60.3803 67.2074 60.8129 67.0102 61.1454L66.9896 61.1836L66.9543 61.2013C65.227 62.1105 65.2388 62.8609 65.2741 64.6794C65.2771 64.9471 65.283 65.2355 65.283 65.5533C65.283 68.0662 65.8921 69.6493 66.2569 70.5939C66.3835 70.9205 66.3717 71.1706 66.2187 71.3324C65.9892 71.5767 65.5184 71.4972 65.3036 71.4501C65.2065 71.5767 65.0034 71.7826 64.7386 71.7885C64.7356 71.7944 64.7298 71.7944 64.7268 71.7944ZM64.3149 71.1323L64.3825 71.2324C64.5002 71.4119 64.615 71.5002 64.7268 71.5002C64.7268 71.5002 64.7268 71.5002 64.7298 71.5002C64.9034 71.4972 65.0652 71.2883 65.1123 71.2088L65.1741 71.1088L65.2859 71.1441C65.4654 71.2 65.8744 71.2677 66.0039 71.1353C66.0921 71.0411 66.0274 70.8263 65.9803 70.7027C65.6096 69.7405 64.9916 68.128 64.9916 65.5592C64.9916 65.2473 64.9858 64.956 64.9828 64.6911C64.9504 62.8138 64.9357 61.9516 66.7778 60.9688C66.819 60.8688 66.7866 60.7334 66.7483 60.6275L64.8651 61.8075L64.9534 60.5951L64.5885 60.6658L64.5238 61.7515L63.3497 60.604L63.1261 60.8806C63.4704 61.0512 64.1295 61.5426 64.1707 62.8462L64.1736 62.908C64.2266 64.5646 64.3178 67.3424 63.1555 70.379C63.0731 70.638 63.0731 71.0087 63.2703 71.1882C63.4498 71.3589 63.7734 71.3501 64.2089 71.1735L64.3149 71.1323Z" fill="#424242"/>
<path d="M63.7823 60.4392C63.7823 60.4392 63.6764 61.7663 62.7759 61.6604C63.0143 62.855 61.4224 62.5873 60.6809 61.8193C60.2307 62.4284 58.8241 62.243 58.983 61.5544C59.1419 60.8659 60.416 60.8129 60.416 60.8129C60.416 60.8129 60.6279 60.2568 61.0251 60.1773C60.6279 59.4358 61.1046 58.4265 61.8461 58.453C61.7667 57.4467 62.8789 57.4732 62.8789 57.4732C62.8789 57.4732 63.1967 56.5463 63.8058 56.6787C64.4414 55.9107 65.6096 56.2814 65.742 57.4467C66.6159 57.0759 66.6954 58.0028 66.6954 58.0028C66.6954 58.0028 67.5693 56.9965 68.3403 58.0293C69.1083 57.6585 69.0288 58.7973 69.0288 58.7973C69.0288 58.7973 70.25 58.7178 70.1146 59.5123C71.0415 60.0685 70.7767 60.8129 70.1411 60.9983C69.7439 62.1371 68.867 61.3426 68.867 61.3426C68.867 61.3426 67.4869 62.1635 67.2221 61.2102C66.56 61.6339 65.5243 60.6275 65.5243 60.6275C65.5243 60.6275 64.1795 60.76 63.7823 60.4392Z" fill="#43A047"/>
<path d="M62.1374 62.6196C61.6754 62.6196 61.0987 62.396 60.6867 62.0282C60.316 62.3724 59.6568 62.4195 59.2302 62.2165C58.9183 62.0723 58.7711 61.8104 58.8388 61.5191C58.9948 60.8423 60.0011 60.6981 60.313 60.6687C60.3837 60.5216 60.5543 60.2273 60.8221 60.092C60.6661 59.683 60.7103 59.2033 60.9457 58.8267C61.1281 58.5295 61.3959 58.35 61.6931 58.3088C61.699 58.0558 61.7843 57.8439 61.9402 57.6762C62.1992 57.4025 62.5905 57.3407 62.7759 57.326C62.876 57.0906 63.1732 56.5139 63.6822 56.5139C63.7028 56.5139 63.7264 56.5139 63.747 56.5168C64.0618 56.1814 64.5061 56.0401 64.9416 56.1725C65.4036 56.3108 65.742 56.714 65.8597 57.2466C66.0922 57.1818 66.2922 57.1965 66.4629 57.3025C66.6365 57.4055 66.7307 57.5761 66.7836 57.7232C66.9602 57.5849 67.2368 57.4172 67.5605 57.4172C67.5722 57.4172 67.584 57.4172 67.5958 57.4172C67.89 57.429 68.1549 57.5761 68.3873 57.8527C68.5815 57.7909 68.7493 57.7968 68.8817 57.888C69.1259 58.0528 69.173 58.4324 69.1818 58.6501C69.426 58.656 69.8733 58.7031 70.1175 58.9709C70.2323 59.0945 70.2853 59.2563 70.2764 59.4387C70.8473 59.8124 70.8914 60.2156 70.8649 60.4274C70.8237 60.7335 70.5972 60.9924 70.2588 61.116C70.1234 61.4632 69.9233 61.6721 69.6673 61.7398C69.326 61.8251 69.0082 61.6309 68.8581 61.5191C68.6198 61.6456 67.9754 61.9517 67.5134 61.7604C67.3486 61.6957 67.228 61.578 67.1456 61.4161C66.4923 61.6309 65.6861 60.9718 65.4772 60.7805C65.2153 60.8041 64.3737 60.8541 63.8941 60.6687C63.8441 60.9335 63.7146 61.3749 63.4086 61.625C63.2703 61.7369 63.1143 61.8016 62.9378 61.8104C62.9672 62.2489 62.7377 62.446 62.5847 62.5225C62.464 62.5902 62.3081 62.6196 62.1374 62.6196ZM60.6661 61.5927L60.7868 61.7163C61.2458 62.1929 62.0727 62.4519 62.4523 62.2665C62.6288 62.1753 62.6877 61.9811 62.6317 61.6927L62.5905 61.4956L62.7906 61.5191C62.9613 61.5368 63.1025 61.5015 63.2232 61.4014C63.5734 61.113 63.6351 60.4392 63.6351 60.4333L63.6587 60.1567L63.8735 60.3303C64.1266 60.5363 65.0152 60.5363 65.5184 60.4863L65.586 60.4804L65.6361 60.5275C65.9009 60.7864 66.6924 61.3838 67.1515 61.0924L67.3192 60.9836L67.3751 61.1748C67.4192 61.3396 67.5016 61.4426 67.6282 61.4897C67.9724 61.6221 68.5933 61.3426 68.8022 61.219L68.8934 61.1631L68.9758 61.2337C68.9788 61.2366 69.2995 61.5279 69.5997 61.4544C69.7703 61.4073 69.9086 61.2396 70.0116 60.9483L70.0381 60.8776L70.1087 60.857C70.3706 60.7805 70.5501 60.601 70.5766 60.3892C70.6089 60.1332 70.4177 59.8595 70.0469 59.6388L69.9616 59.5859L69.9763 59.4888C69.9998 59.3505 69.9734 59.2475 69.8998 59.1651C69.7056 58.9532 69.2112 58.9415 69.0435 58.9444L68.8758 58.9562L68.8876 58.7884C68.8993 58.6148 68.8728 58.2352 68.7198 58.1293C68.6492 58.0764 68.5462 58.094 68.4109 58.1617L68.2991 58.2176L68.2284 58.1205C68.0342 57.8586 67.8194 57.7203 67.5899 57.7115C67.5811 57.7115 67.5723 57.7115 67.5634 57.7115C67.1574 57.7115 66.816 58.094 66.8131 58.0999L66.5865 58.3559L66.5541 58.0175C66.5541 58.0116 66.5218 57.6821 66.3128 57.5555C66.1863 57.482 66.0186 57.4908 65.8038 57.585L65.6214 57.6615L65.5978 57.4672C65.539 56.9641 65.2565 56.5757 64.8592 56.458C64.5208 56.3579 64.1677 56.4727 63.9206 56.7728L63.8617 56.8405L63.7734 56.8199C63.2968 56.714 63.0202 57.5114 63.0172 57.5202L62.9819 57.6203L62.873 57.6173C62.8819 57.6232 62.4081 57.6055 62.1492 57.8821C62.0226 58.0175 61.9667 58.2029 61.9873 58.4383L61.9991 58.6031L61.8343 58.5972C61.8284 58.5972 61.8196 58.5972 61.8137 58.5972C61.5695 58.5972 61.3459 58.7355 61.1928 58.9826C60.981 59.321 60.9633 59.7624 61.1487 60.1067L61.2429 60.2832L61.0487 60.3215C60.7897 60.3745 60.5985 60.7335 60.5484 60.8659L60.5131 60.9571L60.416 60.96C60.0953 60.9747 59.2331 61.116 59.1243 61.5897C59.0889 61.7486 59.1654 61.8693 59.3538 61.9546C59.7128 62.1253 60.316 62.0605 60.5602 61.7369L60.6661 61.5927Z" fill="#424242"/>
<path d="M55.3196 70.7969C55.0341 70.7969 53.8866 70.7469 53.5452 69.9671C53.3216 69.4521 53.6247 68.4811 53.916 67.5395C54.1131 66.9039 54.3015 66.3036 54.3015 65.9299C54.3015 65.8623 54.3485 65.8034 54.4162 65.7857C54.4839 65.771 54.5516 65.8034 54.581 65.8652C54.5869 65.877 55.2136 67.1511 56.0052 67.8632C56.9026 68.6694 56.4112 69.6257 56.4054 69.6346L55.4873 70.7469C55.4608 70.7792 55.4226 70.7998 55.3784 70.7998C55.3755 70.7969 55.3549 70.7969 55.3196 70.7969ZM54.5398 66.4066C54.4662 66.7656 54.3368 67.1893 54.1985 67.6278C53.9366 68.4752 53.6364 69.4345 53.8159 69.8523C54.0749 70.4497 55.0489 70.5026 55.3078 70.5056L56.1641 69.4698C56.1641 69.4639 56.5319 68.7342 55.808 68.0809C55.2578 67.5866 54.7987 66.8598 54.5398 66.4066Z" fill="#424242"/>
<path d="M56.2759 69.7111C56.2612 69.7111 56.2435 69.7082 56.2288 69.7052C56.217 69.6993 55.8904 69.5875 55.249 69.2109C55.1813 69.1697 55.043 69.1049 54.9782 69.1491C54.8929 69.1991 54.8547 69.4051 54.8576 69.5287C54.8605 69.6111 54.7958 69.6787 54.7164 69.6817C54.634 69.6817 54.5663 69.6199 54.5663 69.5404C54.5663 69.4904 54.5604 69.0549 54.8282 68.896C54.9782 68.8048 55.1695 68.8254 55.399 68.9578C56.0111 69.3168 56.323 69.4227 56.3259 69.4227C56.4024 69.4522 56.4436 69.5345 56.4171 69.6081C56.3965 69.6728 56.3377 69.7111 56.2759 69.7111Z" fill="#424242"/>
<path d="M62.1903 72.9038C62.1903 72.9038 56.2229 74.1514 54.7133 69.7759C54.6869 70.7293 54.0248 71.8445 54.0248 71.8445C54.0248 71.8445 53.8924 75.2902 62.0049 75.2902C62.1373 74.3603 62.1903 72.9038 62.1903 72.9038Z" fill="#ECEFF1"/>
<path d="M62.005 75.4374C57.497 75.4374 55.5138 74.3633 54.6487 73.46C53.8571 72.639 53.8777 71.8681 53.8777 71.8357C53.8777 71.8092 53.8836 71.7857 53.8983 71.768C53.9042 71.7562 54.5428 70.6763 54.5663 69.77C54.5663 69.6994 54.6222 69.6376 54.6899 69.6259C54.7782 69.6317 54.8282 69.6582 54.8517 69.723C56.2994 73.9249 62.1021 72.7655 62.161 72.7567C62.208 72.7479 62.2522 72.7596 62.2845 72.7891C62.3169 72.8185 62.3375 72.8597 62.3375 72.9068C62.3375 72.9215 62.2816 74.3839 62.1521 75.3079C62.1404 75.3814 62.0786 75.4374 62.005 75.4374ZM54.172 71.8798C54.1779 72.027 54.2485 72.6272 54.8694 73.2687C55.6933 74.1162 57.5765 75.1254 61.8755 75.146C61.9667 74.4369 62.0168 73.4776 62.0344 73.0804C61.0487 73.2452 56.4083 73.7748 54.784 70.3438C54.6251 71.0559 54.2662 71.7151 54.172 71.8798Z" fill="#424242"/>
<path d="M60.8132 74.0571C60.7985 74.0571 60.7838 74.0542 60.7691 74.0512C60.6926 74.0247 60.6484 73.9482 60.672 73.8688C60.7191 73.6952 60.9633 73.4009 61.437 73.4421C61.4488 73.4451 61.4606 73.4451 61.4724 73.4451C61.8284 73.4451 62.0491 72.8566 62.052 72.8507C62.0785 72.7771 62.158 72.733 62.2404 72.7624C62.3169 72.7889 62.3551 72.8742 62.3286 72.9478C62.3169 72.9831 62.0403 73.7393 61.4753 73.7393C61.4253 73.7393 61.3723 73.7305 61.3282 73.7305C61.031 73.7305 60.9604 73.9247 60.9515 73.9512C60.9339 74.0159 60.875 74.0571 60.8132 74.0571Z" fill="#424242"/>
<path d="M73.8751 70.7969C73.8398 70.7969 73.8192 70.7969 73.8133 70.7969C73.7721 70.7969 73.7339 70.7763 73.7044 70.7439L72.804 69.6581C72.7834 69.6228 72.292 68.6694 73.1895 67.8632C73.981 67.1511 74.6078 65.877 74.6137 65.8652C74.6431 65.8034 74.7167 65.771 74.7784 65.7857C74.8461 65.8034 74.8932 65.8593 74.8932 65.9299C74.8932 66.3036 75.0786 66.9039 75.2787 67.5395C75.5729 68.4811 75.876 69.4521 75.6494 69.9671C75.311 70.7469 74.1605 70.7969 73.8751 70.7969ZM74.6549 66.4066C74.3959 66.8598 73.9339 67.5866 73.3866 68.0809C72.6628 68.7342 73.0306 69.4639 73.0482 69.4933L73.8869 70.5026C74.1458 70.4997 75.1198 70.4467 75.3787 69.8494C75.5582 69.4315 75.2581 68.4723 74.9962 67.6248C74.8579 67.1864 74.7284 66.7656 74.6549 66.4066Z" fill="#424242"/>
<path d="M72.9159 69.711C72.8541 69.711 72.7952 69.6727 72.7776 69.6109C72.7511 69.5374 72.7923 69.452 72.8688 69.4255C72.8717 69.4255 73.1836 69.3196 73.7957 68.9606C74.0252 68.8282 74.2165 68.8076 74.3665 68.8988C74.6343 69.0577 74.6284 69.4932 74.6284 69.5432C74.6284 69.6197 74.5607 69.6845 74.4813 69.6845H74.4783C74.3989 69.6815 74.3342 69.6168 74.3371 69.5315C74.34 69.4079 74.3047 69.2019 74.2165 69.1519C74.1458 69.1048 74.0164 69.1725 73.9457 69.2137C73.3043 69.5903 72.9777 69.7021 72.9659 69.708C72.9482 69.708 72.9335 69.711 72.9159 69.711Z" fill="#424242"/>
<path d="M67.0043 72.9038C67.0043 72.9038 72.9717 74.1514 74.4812 69.7759C74.5077 70.7293 75.1698 71.8445 75.1698 71.8445C75.1698 71.8445 75.3022 75.2902 67.1897 75.2902C67.0572 74.3603 67.0043 72.9038 67.0043 72.9038Z" fill="#ECEFF1"/>
<path d="M67.1897 75.4372C67.1161 75.4372 67.0543 75.3813 67.0455 75.3107C66.9131 74.3867 66.8572 72.9214 66.8572 72.9096C66.8572 72.8625 66.8748 72.8213 66.9101 72.7919C66.9455 72.7595 66.9837 72.7448 67.0337 72.7595C67.0867 72.7683 72.8894 73.9248 74.343 69.7258C74.3665 69.661 74.4312 69.6345 74.5048 69.6287C74.5725 69.6404 74.6284 69.6993 74.6284 69.7729C74.6519 70.6791 75.2905 71.7591 75.2993 71.7708C75.3111 71.7914 75.3199 71.815 75.3199 71.8385C75.3199 71.8709 75.3405 72.6389 74.5489 73.4628C73.6809 74.3632 71.6976 75.4372 67.1897 75.4372ZM67.1573 73.0773C67.175 73.4745 67.225 74.4338 67.3162 75.143C71.6152 75.1224 73.4985 74.1131 74.3224 73.2656C74.9432 72.6271 75.0139 72.0239 75.0227 71.8768C74.9285 71.712 74.5666 71.0528 74.4077 70.3408C72.7834 73.7717 68.1372 73.2421 67.1573 73.0773Z" fill="#424242"/>
<path d="M68.3814 74.0572C68.3196 74.0572 68.2578 74.016 68.2402 73.9542C68.2314 73.9248 68.149 73.6953 67.787 73.7394C67.1809 73.7983 66.8749 72.9861 66.866 72.9508C66.8396 72.8773 66.8778 72.789 66.9543 72.7654C67.0396 72.736 67.1161 72.7802 67.1426 72.8537C67.1456 72.8596 67.3692 73.4481 67.7253 73.4481C67.7753 73.4481 67.8224 73.4393 67.8665 73.4393C68.2873 73.4393 68.4785 73.7129 68.5256 73.8689C68.5492 73.9454 68.505 74.0278 68.4256 74.0513C68.4109 74.0572 68.3961 74.0572 68.3814 74.0572Z" fill="#424242"/>
<path d="M66.3835 50.9761L66.8043 51.6911L67.6341 51.697L67.2251 52.4179L67.6341 53.1388L66.8043 53.1447L66.3835 53.8598L65.9657 53.1447L65.1359 53.1388L65.5449 52.4179L65.1359 51.697L65.9657 51.6911L66.3835 50.9761Z" fill="#FFCA28"/>
<path d="M66.3863 54.0068C66.3334 54.0068 66.2863 53.9803 66.2598 53.9362L65.8802 53.2917L65.1358 53.2859C65.0828 53.2859 65.0357 53.2564 65.0092 53.2152C64.9828 53.1682 64.9828 53.1152 65.0092 53.0681L65.3771 52.4178L65.0092 51.7675C64.9828 51.7204 64.9828 51.6675 65.0092 51.6204C65.0357 51.5762 65.0828 51.5498 65.1358 51.5498L65.8802 51.5439L66.2598 50.9024C66.2863 50.8553 66.3334 50.8318 66.3863 50.8318C66.4393 50.8318 66.4864 50.8583 66.5129 50.9024L66.8895 51.5439L67.634 51.5498C67.6869 51.5498 67.734 51.5792 67.7605 51.6204C67.787 51.6675 67.787 51.7204 67.7605 51.7675L67.3927 52.4178L67.7605 53.0681C67.787 53.1152 67.787 53.1682 67.7605 53.2152C67.734 53.2594 67.6869 53.2859 67.634 53.2859L66.8895 53.2917L66.5129 53.9362C66.4864 53.9803 66.4364 54.0068 66.3863 54.0068ZM65.3888 52.9916L65.9656 52.9975C66.0185 52.9975 66.0656 53.0269 66.0891 53.0681L66.3834 53.5683L66.6777 53.0681C66.7041 53.024 66.7512 52.9975 66.8012 52.9975L67.3809 52.9916L67.0955 52.4884C67.069 52.4443 67.069 52.3884 67.0955 52.3442L67.3809 51.8411L66.8012 51.8352C66.7483 51.8352 66.7012 51.8058 66.6777 51.7646L66.3834 51.2673L66.0891 51.7646C66.0627 51.8116 66.0156 51.8352 65.9656 51.8352L65.3888 51.8411L65.6743 52.3442C65.7007 52.3884 65.7007 52.4443 65.6743 52.4884L65.3888 52.9916Z" fill="#424242"/>
<path d="M62.8494 50.9761L63.2702 51.6911L64.0971 51.697L63.6881 52.4179L64.0971 53.1388L63.2702 53.1447L62.8494 53.8598L62.4287 53.1447L61.6018 53.1388L62.0108 52.4179L61.6018 51.697L62.4287 51.6911L62.8494 50.9761Z" fill="#FFCA28"/>
<path d="M62.8495 54.0069C62.7965 54.0069 62.7494 53.9804 62.7229 53.9363L62.3463 53.2918L61.6018 53.286C61.5489 53.286 61.5018 53.2565 61.4753 53.2153C61.4488 53.1683 61.4488 53.1153 61.4753 53.0682L61.8431 52.4179L61.4753 51.7676C61.4488 51.7205 61.4488 51.6676 61.4753 51.6205C61.5018 51.5764 61.5489 51.5499 61.6018 51.5499L62.3463 51.544L62.7229 50.9025C62.7759 50.8113 62.923 50.8113 62.976 50.9025L63.3526 51.544L64.0971 51.5499C64.1501 51.5499 64.1971 51.5793 64.2236 51.6205C64.2501 51.6676 64.2501 51.7205 64.2236 51.7676L63.8558 52.4179L64.2236 53.0682C64.2501 53.1153 64.2501 53.1683 64.2236 53.2153C64.1971 53.2595 64.1501 53.286 64.0971 53.286L63.3526 53.2918L62.976 53.9363C62.9495 53.9804 62.8995 54.0069 62.8495 54.0069ZM61.852 52.9917L62.4316 52.9976C62.4846 52.9976 62.5317 53.027 62.5552 53.0682L62.8495 53.5685L63.1437 53.0682C63.1702 53.0241 63.2173 52.9976 63.2673 52.9976L63.847 52.9917L63.5616 52.4885C63.5351 52.4444 63.5351 52.3885 63.5616 52.3444L63.847 51.8412L63.2673 51.8353C63.2143 51.8353 63.1673 51.8059 63.1437 51.7647L62.8495 51.2674L62.5552 51.7647C62.5287 51.8088 62.4816 51.8353 62.4316 51.8353L61.852 51.8412L62.1374 52.3444C62.1639 52.3885 62.1639 52.4444 62.1374 52.4885L61.852 52.9917Z" fill="#424242"/>
<path d="M58.8859 51.6085L59.4774 52.1882L60.2807 51.9793L60.0718 52.7826L60.6544 53.374L59.854 53.5947L59.6363 54.3922L59.0448 53.8125L58.2415 54.0214L58.4504 53.2181L57.8678 52.6296L58.6652 52.4059L58.8859 51.6085Z" fill="#FFCA28"/>
<path d="M59.6362 54.5393C59.598 54.5393 59.5627 54.5246 59.5332 54.4981L59.0036 53.9743L58.2827 54.1597C58.2326 54.1686 58.1797 54.1568 58.1414 54.1185C58.1032 54.0803 58.0885 54.0303 58.1032 53.9773L58.2885 53.2564L57.7648 52.7267C57.7295 52.6885 57.7148 52.6355 57.7265 52.5855C57.7383 52.5325 57.7795 52.4972 57.8295 52.4825L58.5475 52.2824L58.7446 51.5644C58.7594 51.5144 58.7976 51.4761 58.8476 51.4644C58.9035 51.4438 58.9536 51.4644 58.9889 51.4997L59.5185 52.0235L60.2394 51.8351C60.2924 51.8263 60.3424 51.8381 60.3807 51.8763C60.4189 51.9146 60.4337 51.9646 60.4189 52.0176L60.2336 52.7385L60.7573 53.2711C60.7926 53.3093 60.8073 53.3623 60.7956 53.4123C60.7838 53.4653 60.7426 53.5006 60.6926 53.5153L59.9746 53.7154L59.7775 54.4334C59.7628 54.4834 59.7245 54.5217 59.6745 54.5334C59.6598 54.5393 59.648 54.5393 59.6362 54.5393ZM59.0448 53.6654C59.083 53.6654 59.1183 53.6801 59.1478 53.7066L59.5597 54.1126L59.7127 53.5565C59.7274 53.5065 59.7657 53.4682 59.8157 53.4565L60.3719 53.3005L59.9658 52.8856C59.9305 52.8474 59.9158 52.7973 59.9275 52.7444L60.0717 52.1882L59.5126 52.3354C59.4626 52.3471 59.4097 52.3324 59.3714 52.2971L58.9594 51.891L58.8064 52.4472C58.7917 52.4972 58.7535 52.5355 58.7034 52.5472L58.1473 52.7032L58.5534 53.1151C58.5887 53.1534 58.6034 53.2034 58.5916 53.2564L58.4474 53.8155L59.0065 53.6683C59.0212 53.6654 59.033 53.6654 59.0448 53.6654ZM58.6681 52.4089H58.6711H58.6681Z" fill="#424242"/>
<path d="M55.3401 52.668L56.0375 53.1182L56.779 52.7474L56.7408 53.5772L57.4293 54.0362L56.6937 54.4158L56.6407 55.2427L55.9433 54.7925L55.2018 55.1632L55.2401 54.3334L54.5515 53.8744L55.2871 53.4948L55.3401 52.668Z" fill="#FFCA28"/>
<path d="M56.6407 55.3868C56.6142 55.3868 56.5848 55.378 56.5613 55.3633L55.9345 54.9601L55.2695 55.2897C55.2195 55.3074 55.1665 55.3044 55.1224 55.2809C55.0782 55.2515 55.0547 55.2044 55.0577 55.1514L55.093 54.407L54.4721 53.995C54.4279 53.9656 54.4044 53.9155 54.4074 53.8626C54.4103 53.8096 54.4397 53.7655 54.4868 53.739L55.1489 53.4006L55.1959 52.6561C55.1989 52.6032 55.2283 52.559 55.2754 52.5326C55.3166 52.512 55.3754 52.512 55.4196 52.5414L56.0463 52.9445L56.7143 52.612C56.7614 52.5914 56.8173 52.5944 56.8614 52.6208C56.9056 52.6503 56.9291 52.6973 56.9262 52.7503L56.8908 53.4977L57.5117 53.9097C57.5559 53.9391 57.5794 53.9891 57.5765 54.0421C57.5735 54.095 57.5441 54.1392 57.497 54.1657L56.8349 54.5041L56.7879 55.2485C56.7849 55.3015 56.7555 55.3486 56.7084 55.3721C56.6878 55.3809 56.6643 55.3868 56.6407 55.3868ZM55.9433 54.6453C55.9698 54.6453 55.9993 54.6541 56.0228 54.6688L56.5113 54.9807L56.5495 54.404C56.5525 54.351 56.5819 54.3069 56.629 54.2804L57.141 54.0156L56.6584 53.7007C56.6142 53.6713 56.5907 53.6242 56.5936 53.5713L56.6201 52.9916L56.1022 53.2505C56.0522 53.2682 55.9963 53.2682 55.9581 53.2417L55.4696 52.9298L55.4343 53.5065C55.4314 53.5595 55.4019 53.6036 55.3548 53.6301L54.8428 53.8949L55.3254 54.2098C55.3696 54.2392 55.3931 54.2863 55.3902 54.3393L55.3637 54.916L55.8816 54.66C55.8992 54.6512 55.9198 54.6453 55.9433 54.6453ZM55.2872 53.4977H55.2901H55.2872Z" fill="#424242"/>
<path d="M70.3353 51.6085L69.7439 52.1882L68.9435 51.9793L69.1524 52.7826L68.5698 53.374L69.3672 53.5947L69.5879 54.3922L70.1794 53.8125L70.9798 54.0214L70.7738 53.2181L71.3535 52.6296L70.556 52.4059L70.3353 51.6085Z" fill="#FFCA28"/>
<path d="M69.5879 54.5393C69.5762 54.5393 69.5614 54.5393 69.5497 54.5334C69.4996 54.5217 69.4614 54.4805 69.4467 54.4334L69.2495 53.7154L68.5316 53.5153C68.4815 53.5006 68.4403 53.4623 68.4286 53.4123C68.4168 53.3623 68.4286 53.3093 68.4668 53.2711L68.9906 52.7385L68.8052 52.0176C68.7934 51.9646 68.8052 51.9146 68.8435 51.8763C68.8788 51.8381 68.9288 51.8263 68.9847 51.8351L69.7086 52.0235L70.2382 51.4997C70.2765 51.4644 70.3265 51.4438 70.3795 51.4644C70.4295 51.4761 70.4677 51.5173 70.4824 51.5644L70.6796 52.2824L71.3976 52.4825C71.4476 52.4972 71.4888 52.5355 71.5006 52.5855C71.5123 52.6355 71.5006 52.6885 71.4623 52.7267L70.9385 53.2564L71.1239 53.9773C71.1357 54.0303 71.1239 54.0803 71.0857 54.1185C71.0474 54.1568 70.9974 54.1686 70.9444 54.1597L70.2235 53.9743L69.6939 54.4981C69.6615 54.5246 69.6262 54.5393 69.5879 54.5393ZM68.8493 53.2976L69.4055 53.4535C69.4555 53.4653 69.4938 53.5065 69.5085 53.5536L69.6615 54.1097L70.0734 53.7036C70.1117 53.6683 70.1647 53.6507 70.2147 53.6654L70.7738 53.8125L70.6296 53.2534C70.6178 53.2005 70.6296 53.1504 70.6678 53.1122L71.0739 52.7002L70.5178 52.5443C70.4677 52.5325 70.4295 52.4913 70.4148 52.4442L70.2618 51.8881L69.8498 52.2942C69.8086 52.3295 69.7556 52.3412 69.7086 52.3324L69.1495 52.1853L69.2937 52.7414C69.3054 52.7944 69.2937 52.8444 69.2554 52.8827L68.8493 53.2976Z" fill="#424242"/>
<path d="M73.884 52.668L73.1866 53.1182L72.4422 52.7474L72.4834 53.5772L71.7919 54.0362L72.5304 54.4158L72.5805 55.2427L73.2778 54.7925L74.0194 55.1632L73.9811 54.3334L74.6726 53.8744L73.934 53.4948L73.884 52.668Z" fill="#FFCA28"/>
<path d="M72.5834 55.3868C72.5599 55.3868 72.5363 55.3809 72.5187 55.3721C72.4716 55.3486 72.4422 55.3015 72.4392 55.2485L72.3922 54.5041L71.7301 54.1657C71.683 54.1392 71.6536 54.095 71.6506 54.0421C71.6477 53.9891 71.6712 53.9391 71.7154 53.9097L72.3362 53.4977L72.3009 52.7503C72.298 52.6973 72.3245 52.6503 72.3657 52.6208C72.4098 52.5973 72.4628 52.5944 72.5128 52.612L73.1808 52.9445L73.8075 52.5414C73.8487 52.512 73.9076 52.512 73.9517 52.5326C73.9988 52.5561 74.0282 52.6032 74.0311 52.6561L74.0782 53.4006L74.7403 53.739C74.7874 53.7655 74.8168 53.8096 74.8197 53.8626C74.8227 53.9155 74.7991 53.9656 74.755 53.995L74.1341 54.407L74.1694 55.1514C74.1724 55.2044 74.1459 55.2515 74.1047 55.2809C74.0606 55.3074 74.0076 55.3103 73.9576 55.2897L73.2926 54.9601L72.6658 55.3633C72.6393 55.378 72.6099 55.3868 72.5834 55.3868ZM72.0832 54.0185L72.5952 54.2834C72.6423 54.3098 72.6717 54.354 72.6746 54.407L72.7129 54.9837L73.2014 54.6718C73.2425 54.6424 73.2985 54.6424 73.3455 54.663L73.8634 54.919L73.8369 54.3422C73.834 54.2892 73.8575 54.2422 73.9017 54.2127L74.3842 53.8979L73.8722 53.6331C73.8252 53.6066 73.7957 53.5624 73.7928 53.5095L73.7545 52.9327L73.2661 53.2447C73.2219 53.2711 73.166 53.2711 73.1219 53.2535L72.604 52.9945L72.6305 53.5742C72.6334 53.6272 72.6099 53.6743 72.5658 53.7037L72.0832 54.0185Z" fill="#424242"/>
<path d="M60.8397 74.1483C62.1138 75.1547 67.7164 75.3518 68.3961 74.1483C68.3167 75.2606 68.3961 76.1375 68.3961 76.1375C67.5752 76.879 63.2143 77.6529 60.8132 76.1375C60.8132 75.2106 60.8397 74.1483 60.8397 74.1483Z" fill="#ECEFF1"/>
<path d="M64.4826 77.1644C63.1643 77.1644 61.7814 76.9231 60.7338 76.261C60.6926 76.2346 60.6661 76.1904 60.6661 76.1374C60.6661 75.2076 60.6926 74.1454 60.6926 74.1454C60.6926 74.0865 60.725 74.0394 60.778 74.0159C60.8221 73.9835 60.8868 73.9982 60.931 74.0335C61.7931 74.7133 65.024 75.0605 66.9955 74.6691C67.6752 74.5367 68.1284 74.3278 68.2696 74.0777C68.3049 74.0159 68.3726 73.9953 68.4403 74.01C68.505 74.0306 68.5492 74.0924 68.5433 74.163C68.4668 75.2488 68.5433 76.1168 68.5433 76.1257C68.5462 76.1728 68.5286 76.2169 68.4962 76.2493C67.9842 76.7054 66.2952 77.1644 64.4826 77.1644ZM60.9574 76.0551C63.3232 77.4822 67.3751 76.7289 68.2431 76.0727C68.2284 75.8697 68.1931 75.2812 68.2255 74.5338C67.9636 74.7162 67.5723 74.8574 67.0514 74.9634C65.2771 75.3135 62.2021 75.0987 60.981 74.419C60.9722 74.7721 60.9604 75.4371 60.9574 76.0551Z" fill="#424242"/>
</g>
<defs>
<clipPath id="clip0_4935_15887">
<rect y="20" width="128" height="88.2759" rx="2" fill="white"/>
</clipPath>
</defs>
</svg>
