<svg width="128" height="128" viewBox="0 0 128 128" fill="none" xmlns="http://www.w3.org/2000/svg">
<g clip-path="url(#clip0_4935_23036)">
<path d="M-0.735596 64.1379H128.736V108.276H-0.735596V64.1379Z" fill="#FF3D00"/>
<path d="M-0.735596 20H128.736V64.1379H-0.735596V20Z" fill="#3F51B5"/>
<path d="M-0.735596 20V108.276L66.9426 64.1438L-0.735596 20Z" fill="#ECEFF1"/>
<path d="M6.6207 31.77L7.98309 34.6772L11.0345 35.1422L8.8276 37.4079L9.35137 40.5976L6.6207 39.091L3.89004 40.5976L4.41381 37.4079L2.20691 35.1422L5.25831 34.6772L6.6207 31.77ZM7.46521 87.8899L8.8276 90.8001L11.879 91.2621L9.67211 93.5278L10.1959 96.7175L7.46521 95.2139L4.73454 96.7175L5.25831 93.5278L3.05141 91.2621L6.10282 90.8001L7.46521 87.8899ZM50.6498 59.2062L52.0122 62.1163L55.0635 62.5783L52.8567 64.844L53.3804 68.0337L50.6498 66.5301L47.9191 68.0337L48.4429 64.844L46.236 62.5783L49.2874 62.1163L50.6498 59.2062ZM22.8046 55.3102C20.4634 55.3102 18.2181 56.2403 16.5626 57.8958C14.9071 59.5513 13.977 61.7966 13.977 64.1378C13.977 66.4791 14.9071 68.7244 16.5626 70.3799C18.2181 72.0354 20.4634 72.9654 22.8046 72.9654C25.1458 72.9654 27.3912 72.0354 29.0467 70.3799C30.7022 68.7244 31.6322 66.4791 31.6322 64.1378C31.6322 61.7966 30.7022 59.5513 29.0467 57.8958C27.3912 56.2403 25.1458 55.3102 22.8046 55.3102Z" fill="#FFA000"/>
<path d="M25.7471 78.8505C25.7471 80.4777 24.4318 81.793 22.8046 81.793C21.1774 81.793 19.8621 80.4777 19.8621 78.8505L22.8046 72.9713V55.3103L19.8621 49.4252C19.8621 47.798 21.1774 46.4827 22.8046 46.4827C24.4318 46.4827 25.7471 47.798 25.7471 49.4252L22.8046 55.3103V72.9713L25.7471 78.8505Z" fill="#FFA000"/>
<path d="M37.5172 61.1953C39.1444 61.1953 40.4598 62.5106 40.4598 64.1378C40.4598 65.7651 39.1444 67.0804 37.5172 67.0804L31.6381 64.1378H13.977L8.09194 67.0804C6.46472 67.0804 5.14941 65.7651 5.14941 64.1378C5.14941 62.5106 6.46472 61.1953 8.09194 61.1953L13.977 64.1378H31.6381L37.5172 61.1953Z" fill="#FFA000"/>
<path d="M10.3194 55.8193C9.16598 54.6658 9.16598 52.8091 10.3194 51.6556C11.47 50.5051 13.3297 50.5051 14.4802 51.6556L16.5547 57.8938L29.0428 70.3819L35.2839 72.4622C36.4344 73.6128 36.4344 75.4725 35.2839 76.623C34.1333 77.7735 32.2737 77.7735 31.1231 76.623L29.0428 70.3819L16.5547 57.8938L10.3194 55.8193Z" fill="#FFA000"/>
<path d="M31.126 51.6556C32.2795 50.5022 34.1363 50.5022 35.2897 51.6556C36.4403 52.8062 36.4403 54.6658 35.2897 55.8164L29.0516 57.8909L16.5635 70.3789L14.4831 76.62C13.3326 77.7706 11.4729 77.7706 10.3224 76.62C9.17184 75.4695 9.17184 73.6098 10.3224 72.4593L16.5635 70.3789L29.0516 57.8909L31.126 51.6556Z" fill="#FFA000"/>
</g>
<defs>
<clipPath id="clip0_4935_23036">
<rect y="20" width="128" height="88.2759" rx="2" fill="white"/>
</clipPath>
</defs>
</svg>
