<svg width="128" height="128" viewBox="0 0 128 128" fill="none" xmlns="http://www.w3.org/2000/svg">
<g clip-path="url(#clip0_4935_21046)">
<path d="M-0.735596 20H128.736V108.276H-0.735596V20Z" fill="#FF3D00"/>
<path d="M54.5575 61.7428L54.5251 53.7126L59.2684 60.1892L66.8955 57.688L62.1992 64.1969L66.9426 70.6734L59.2979 68.2193L54.6045 74.7311L54.5751 66.7039L46.9304 64.2498L54.5575 61.7428Z" fill="white"/>
<path d="M44.7882 84.9888C33.3182 84.9888 24.0169 75.6845 24.0169 64.2146C24.0169 52.7416 33.3153 43.4432 44.7882 43.4432C46.6538 43.4432 48.4487 43.711 50.1672 44.1671C46.5832 41.9661 42.3812 40.6714 37.8644 40.6714C24.8644 40.6714 14.3242 51.2115 14.3242 64.2116C14.3242 77.2117 24.8644 87.7519 37.8644 87.7519C42.3783 87.7519 46.5832 86.4601 50.1672 84.2532C48.4487 84.721 46.6508 84.9888 44.7882 84.9888Z" fill="white"/>
</g>
<defs>
<clipPath id="clip0_4935_21046">
<rect y="20" width="128" height="88.2759" rx="2" fill="white"/>
</clipPath>
</defs>
</svg>
