<svg width="128" height="128" viewBox="0 0 128 128" fill="none" xmlns="http://www.w3.org/2000/svg">
<g clip-path="url(#clip0_4935_17908)">
<path d="M-0.735596 20H128.736V108.276H-0.735596V20Z" fill="#1976D2"/>
<path d="M-0.735596 49.4253H128.736V78.8506H-0.735596V49.4253Z" fill="white"/>
<path d="M65.3889 64.1409L64 59.8654L62.6111 64.1409H58.1149L61.7519 66.7833L60.363 71.0587L64 68.4164L67.637 71.0587L66.2481 66.7833L69.8851 64.1409H65.3889ZM83.9033 62.2518L87.5402 59.6094L91.1772 62.2518L89.7883 57.9763L93.4253 55.3339H88.9291L87.5402 51.0584L86.1514 55.3339H81.6552L85.2921 57.9763L83.9033 62.2518ZM88.9291 70.0406L87.5402 65.7651L86.1514 70.0406H81.6552L85.2921 72.683L83.9033 76.9615L87.5402 74.3161L91.1772 76.9615L89.7883 72.683L93.4253 70.0406H88.9291ZM40.4598 51.0525L39.0709 55.328H34.5747L38.2117 57.9704L36.8228 62.2488L40.4598 59.6035L44.0967 62.2488L42.7079 57.9704L46.3448 55.328H41.8486L40.4598 51.0525ZM41.8486 70.0406L40.4598 65.7651L39.0709 70.0406H34.5747L38.2117 72.683L36.8228 76.9615L40.4598 74.3161L44.0967 76.9615L42.7079 72.683L46.3448 70.0406H41.8486Z" fill="#1976D2"/>
</g>
<defs>
<clipPath id="clip0_4935_17908">
<rect y="20" width="128" height="88.2759" rx="2" fill="white"/>
</clipPath>
</defs>
</svg>
