<svg width="128" height="128" viewBox="0 0 128 128" fill="none" xmlns="http://www.w3.org/2000/svg">
<g clip-path="url(#clip0_4935_15469)">
<path d="M-0.735657 20H128.736V108.276H-0.735657V20Z" fill="#039BE5"/>
<path d="M-0.735657 90.6207H128.618V96.5057H-0.735657V90.6207Z" fill="#FDD835"/>
<path d="M-0.735657 78.8505H128.618V84.7355H-0.735657V78.8505Z" fill="#FDD835"/>
<path d="M20.7154 48.5542L8.35382 45.0026L20.7154 41.451L24.267 29.0894L27.8187 41.451L40.1802 45.0026L27.8187 48.5542L24.267 60.9158L20.7154 48.5542Z" fill="#E53935"/>
<path d="M24.2671 31.7554L27.2243 42.0483L37.5173 45.0026L27.2243 47.9599L24.2671 58.2528L21.3098 47.9599L11.0168 45.0026L21.3098 42.0454L24.2671 31.7554ZM24.2671 26.4265L22.8517 31.3493L20.121 40.8596L10.6108 43.5902L5.68793 45.0056L10.6108 46.4209L20.121 49.1516L22.8517 58.6619L24.2671 63.5847L25.6824 58.6619L28.4131 49.1516L37.9233 46.4209L42.8462 45.0056L37.9233 43.5902L28.4131 40.8596L25.6824 31.3493L24.2671 26.4265Z" fill="white"/>
</g>
<defs>
<clipPath id="clip0_4935_15469">
<rect y="20" width="128" height="88.2759" rx="2" fill="white"/>
</clipPath>
</defs>
</svg>
