<svg width="128" height="128" viewBox="0 0 128 128" fill="none" xmlns="http://www.w3.org/2000/svg">
<g clip-path="url(#clip0_4935_16454)">
<path d="M-0.735596 20H37.5173V108.276H-0.735596V20Z" fill="#2E7D32"/>
<path d="M37.5172 20H90.4827V108.276H37.5172V20Z" fill="#ECEFF1"/>
<path d="M90.4828 20H128.736V108.276H90.4828V20Z" fill="#2E7D32"/>
<path d="M79.104 80.1336C76.0497 80.2395 74.8903 80.9751 75.1022 79.9217C75.3141 78.8683 76.0497 78.7624 79.3159 78.8683C82.5821 78.9742 81.4227 77.0792 79.3159 77.5C77.209 77.9208 75.3141 77.7119 75.3141 77.7119L70.4707 78.0267C70.4707 78.0267 74.9992 76.5525 78.0535 76.3406C81.1079 76.1288 81.002 74.5516 77.0001 75.4991C72.9983 76.4466 72.9983 76.4466 72.9983 76.4466H72.2597L74.0488 74.8664C74.0488 74.8664 77.418 74.3397 79.5248 73.4982C76.4705 73.71 75.1022 74.9724 73.5221 73.71C71.9419 72.4477 79.313 72.6566 79.313 72.6566C79.313 72.6566 78.0506 71.0765 75.626 71.7091C73.2043 72.3418 71.836 71.921 71.836 71.921L72.4686 70.7616L79.21 69.8141C79.21 69.8141 79.21 68.0251 75.523 69.2874C71.836 70.5498 71.4152 70.129 71.4152 70.129L72.4686 68.6548C72.4686 68.6548 75.3111 68.9696 77.312 67.2865C79.313 65.6004 76.2586 66.4449 76.2586 66.4449L72.1508 67.3924V66.1301L74.4666 65.6034L75.3082 63.8143L77.2032 63.1817L76.9913 62.0223L70.3559 62.3372L76.0438 60.8629L74.8903 60.0184L71.1004 59.3858L74.5755 58.0175L74.0488 57.4908L74.9963 56.2285L74.1547 55.5958C74.1547 55.5958 68.4668 56.9641 66.151 56.9641C63.8353 56.9641 67.2045 55.8047 67.2045 55.8047L72.3656 55.0662C72.3656 55.0662 69.0994 53.2771 66.3629 54.0127C65.4948 54.2452 65.0211 54.1805 64.8033 54.0069L64.7857 53.4625C65.0505 53.1064 65.7244 52.7622 66.6807 52.8534C68.8935 53.0653 70.6825 52.4326 70.6825 52.4326L65.7332 51.694L68.5757 50.9555L65.7332 51.2703L66.048 50.1109L70.0499 50.6377L70.1558 48.216L65.7332 47.9011H65.3124L70.4736 46.6388L64.9976 46.8506L65.4183 45.4823L68.3667 45.6942L68.8935 45.0616L64.9976 44.6408L68.3667 43.7992H64.8916L67.946 42.325L66.8925 41.6924L64.6798 42.7458L65.6273 41.2716L64.4149 40.1446L64.4238 39.7474L65.6302 39.0588L64.4385 38.9852L64.4444 38.6881L65.5243 38.1113L64.4679 37.5817L64.4708 37.3727L64.2766 37.4139L64.156 33.5828C64.156 33.5828 64.1001 35.1188 64.0147 37.4698L62.4699 37.7935L63.7323 39.0559L62.4699 39.3707L62.9966 40.6331H61.9432L62.9966 41.6865L63.2085 42.7399L59.7334 41.1598L62.8936 43.5815L59.2067 43.6874L63.2085 44.6349L58.9948 45.3735L62.8907 46.5328L58.9948 46.7447L63.1026 47.5863H61.5224L56.0464 46.8477L57.3087 47.7952L62.0491 48.4278L63.1026 49.2694L61.2076 49.1635L57.8384 49.4783C57.8384 49.4783 60.0512 49.4783 62.4729 49.8991C64.8946 50.3199 62.0521 50.5317 61.3135 50.6377C60.5749 50.7436 55.9434 50.111 55.2048 50.6377L57.2057 51.4792L55.5197 52.2178C55.5197 52.2178 59.8364 53.0594 61.2076 53.5861C62.5759 54.1128 62.1551 54.7454 60.9957 54.8484C59.8364 54.9544 57.0998 53.4801 57.0998 53.4801L53.7306 53.692L56.3642 54.4306L56.1523 54.9573C56.1523 54.9573 58.9948 55.484 60.366 55.6959C61.7343 55.9077 62.9996 56.5374 62.5788 57.4849C62.158 58.4324 59.2096 56.7464 57.9443 56.0107C56.682 55.2721 53.4158 56.5374 53.4158 56.5374L55.1018 57.5909L53.4069 58.2294L59.8305 59.8095C59.8305 59.8095 63.8323 61.2837 62.57 62.3372C61.3076 63.3906 57.3028 59.9155 57.3028 59.9155L56.4613 60.5481C56.4613 60.5481 52.5654 59.0739 51.406 60.3362C50.2467 61.5986 55.6197 60.757 55.6197 60.757L56.1464 63.0728C56.1464 63.0728 50.1437 62.3342 51.6179 63.8114C53.0921 65.2856 55.1989 65.4974 55.1989 65.4974C55.1989 65.4974 51.1971 65.3915 51.8297 66.4449C52.4624 67.4984 55.3049 66.6568 58.0444 66.9716C60.7839 67.2865 62.8878 68.234 62.6788 69.6052C62.467 70.9735 61.3106 70.6586 60.3631 70.1319C59.4156 69.6052 59.4156 69.8171 57.5206 68.6577C55.6256 67.4983 55.8345 68.6577 53.5187 67.8161C51.203 66.9746 50.2525 68.8696 50.8852 68.9755C51.5178 69.0814 54.0455 68.8696 55.3078 69.0814C56.5701 69.2933 56.9939 70.8705 56.9939 70.8705C56.9939 70.8705 54.4662 69.6081 53.098 69.5022C51.7297 69.3963 51.203 70.4497 52.2564 70.6616C53.3098 70.8734 59.7334 71.8209 61.4194 72.7684C63.1055 73.7159 62.4729 74.3486 60.5779 74.1367C58.6829 73.9248 56.8909 72.3476 56.8909 72.3476V73.2951L54.1514 71.8209L54.4662 72.7684C54.4662 72.7684 48.7783 71.8209 49.411 72.5566C50.0436 73.2951 55.9404 74.0308 55.9404 74.0308L56.2553 74.6634L53.7277 74.2426L52.8861 74.8753L48.8843 73.6129L49.305 74.6664L52.992 75.299L58.4681 75.4049C58.4681 75.4049 58.4681 75.4049 58.574 76.7732L53.6247 76.4584H51.3089C51.3089 76.4584 47.3071 75.0901 47.9397 76.1435C48.5724 77.1969 56.2582 78.3563 56.2582 78.3563L52.5713 78.883L49.9377 78.6711C49.9377 78.6711 47.9368 77.091 46.7774 77.9326C45.6181 78.7741 51.4119 81.9344 51.4119 81.9344C51.4119 81.9344 50.4644 81.6195 47.1982 80.1453C43.9349 78.6711 46.1448 82.8848 48.3576 83.7264C50.5703 84.568 51.6238 82.673 56.2553 82.8848C60.8898 83.0967 60.2571 84.9917 57.9414 84.0442C55.6256 83.0967 55.8345 85.4125 53.7277 84.7828C51.6208 84.1501 50.4615 85.4154 50.4615 85.4154C50.4615 85.4154 45.5121 85.1006 46.7745 85.9421C48.0368 86.7837 49.408 86.9956 51.9357 86.8896C54.4633 86.7837 56.9909 85.6273 56.9909 85.6273L58.78 86.5748L60.2542 85.8362L60.675 86.6778L62.6788 85.8597C62.5111 91.0827 62.3581 95.4171 62.3581 95.4171L62.2522 96.0497H66.254L65.6214 86.0451L65.6155 85.7626L66.9896 84.6768L69.9381 85.6243L70.5707 84.5709L72.0449 83.9383C72.0449 83.9383 77.1002 85.9392 79.7337 85.3065C82.3673 84.6739 82.9999 83.4115 79.9456 83.9383C76.8913 84.465 71.2033 83.0967 71.2033 83.0967C71.2033 83.0967 80.1545 83.3086 81.2079 82.9908C82.2614 82.6759 81.3139 81.3047 78.8922 82.0433C76.4705 82.7818 70.6766 81.7284 70.6766 81.7284L71.5182 80.5691C71.5182 80.5691 81.3109 81.2017 82.0495 81.0958C82.7881 80.9898 82.1554 80.0276 79.104 80.1336ZM70.8885 68.9696L65.3095 70.9382L65.3065 70.7587L65.2477 68.7224L70.8885 68.9696ZM65.1741 66.286L65.1359 64.9325L68.3609 64.8618L65.1741 66.286ZM65.0858 63.2287L65.0564 62.19L69.2054 61.7016L65.0858 63.2287ZM68.3609 58.5442C67.9842 58.606 66.3099 59.2504 64.9828 59.7742L64.9534 58.8797C66.2923 58.7355 68.8317 58.4677 68.3609 58.5442ZM68.149 54.6483L64.8622 56.0048L64.8181 54.6483H68.149ZM64.7092 51.182L64.665 49.802H65.5184L64.7092 51.182ZM67.0956 48.7515C66.6395 48.7515 65.486 49.1458 64.6533 49.4548L64.618 48.3866C65.5655 48.4955 67.6753 48.7515 67.0956 48.7515ZM58.883 51.1732L63.4704 53.0446C63.4616 53.3095 63.4527 53.5684 63.4439 53.8332L58.883 51.1732ZM58.4622 58.0175L63.2821 59.1563C63.2644 59.7566 63.2467 60.3333 63.232 60.8953L58.4622 58.0175ZM63.1438 64.2851C63.1379 64.5882 63.132 64.8648 63.1261 65.1414L58.9889 63.0728L63.1438 64.2851ZM57.4088 65.9182L58.6711 65.0767L63.0996 66.4596C63.0967 66.6568 63.0937 66.8657 63.0908 67.0393L57.4088 65.9182ZM59.9364 75.605L62.9496 76.735C62.9407 77.0439 62.9319 77.3499 62.9231 77.6648L59.7245 76.7614L59.9364 75.605ZM59.3038 80.0276L58.4622 78.8683L62.8878 78.9536C62.873 79.4892 62.8583 80.0247 62.8407 80.5691L59.3038 80.0276ZM67.9401 80.3454L65.5154 80.778L65.4831 79.2096L68.3609 78.5564L67.9401 80.3454ZM65.4007 75.3167L65.3801 74.2544L70.4677 72.8655L72.0479 73.0774L70.3618 73.9189L65.4007 75.3167Z" fill="#2E7D32"/>
</g>
<defs>
<clipPath id="clip0_4935_16454">
<rect y="20" width="128" height="88.2759" rx="2" fill="white"/>
</clipPath>
</defs>
</svg>
