<svg width="128" height="128" viewBox="0 0 128 128" fill="none" xmlns="http://www.w3.org/2000/svg">
<g clip-path="url(#clip0_4935_17255)">
<path d="M-0.735596 20H128.736V108.276H-0.735596V20Z" fill="#FF1744"/>
<path d="M-0.735596 108.276H128.736V64.1379" fill="#1E88E5"/>
<path d="M-0.735596 20H128.736V64.1379" fill="#4CAF50"/>
<path d="M26.4563 84.4533C24.6849 84.9535 23.6697 86.3541 23.6932 87.6783L32.4149 87.643C32.4943 86.2217 31.3467 84.9064 29.6018 84.3885C38.141 84.209 45.5592 80.9458 46.9068 78.8507C45.5739 78.2592 44.029 79.2097 42.9315 78.9919C45.5415 77.7619 53.3627 72.5978 52.0916 67.06C51.1029 70.1349 48.1074 72.6802 46.8333 73.3629C49.7552 68.8373 53.7453 64.1263 50.2819 60.4746C50.4555 62.5903 48.9637 64.9178 48.3045 65.0914C49.9994 60.3098 51.6178 54.3041 47.9455 50.3464C48.4281 51.7765 48.2339 55.8136 47.5689 55.9931C47.3659 52.7416 46.8215 45.9002 43.4641 45.9973C44.5293 46.9654 44.9971 49.6078 45.0207 52.2767C44.2556 50.4494 43.3876 49.0723 41.5279 47.7217C40.0243 44.7791 37.3466 42.3398 34.6689 40.5919C34.969 42.7341 35.2191 44.4231 38.1499 46.6476C36.6198 46.5505 35.0926 43.5933 33.4595 43.5109C32.1589 43.4462 31.1408 44.7115 29.0163 43.9847C29.2517 44.6997 30.2433 45.0175 30.4522 45.5442C29.9961 45.8649 28.9162 45.4942 28.0187 45.0175C29.2546 46.733 31.1673 47.7423 32.7915 47.4009C34.7248 47.0213 36.7934 47.2214 38.7707 48.369C38.2676 48.6339 36.302 48.6309 35.0426 48.472C36.1872 49.6549 36.9552 50.4406 38.9473 50.4258C40.7275 50.4141 41.6603 49.4578 42.1164 50.0492C43.2316 51.3969 43.982 52.7475 44.9177 54.3335C42.855 54.566 43.4788 51.953 41.1807 50.6201C39.8918 53.3448 42.6637 56.5757 44.5528 57.9175C44.5793 59.9655 44.8706 61.6781 45.7239 63.2376C46.2977 64.3381 47.0393 65.4622 46.7597 67.9427C45.6298 67.1041 44.5234 64.2704 44.9295 62.0194C43.5141 62.4137 42.9609 64.9502 43.6289 66.2302C44.1261 67.2041 44.4587 69.0638 43.8849 69.8966C43.3258 70.6734 43.2669 70.5851 43.2728 72.2506C43.2934 73.2452 42.7461 74.4251 41.8604 75.2461C42.0458 74.5458 42.2576 73.3364 42.0517 72.5831C41.3484 73.7984 39.5888 75.0548 39.0326 76.3613C38.4883 77.6707 38.35 79.9394 35.7135 80.4602C32.3237 81.1459 31.1525 81.7461 28.9721 82.6583C28.7308 80.9664 29.4547 77.4412 30.8406 77.6442C32.1942 77.8885 36.2961 76.2024 34.8278 72.6773C34.5394 73.7895 33.5713 74.8724 32.5267 74.9195C33.6566 73.4247 35.6723 71.8769 34.6895 69.3728C34.1451 70.438 33.2859 71.715 31.9853 72.433C33.38 69.7053 32.1471 68.8902 30.4905 71.1354C29.8637 72.0005 29.4871 73.7395 29.0898 75.9435C28.4395 74.1485 28.4837 71.7886 27.7098 69.8701C26.9035 67.7956 28.7779 67.2483 29.6607 67.416C31.8205 68.0045 35.431 68.0045 35.1603 64.3646C34.2275 65.5946 32.5914 65.9771 30.8259 65.5328C32.8092 64.0556 34.3775 61.275 32.1648 59.8243C32.0912 61.3632 30.923 63.0905 29.3635 63.885C28.9986 62.5873 28.9986 61.2073 29.3105 59.6978C28.4395 60.6335 27.8039 62.5785 27.2978 64.7883C27.2596 62.602 27.6656 61.0278 27.9658 59.8537C28.4219 58.1353 29.5547 59.2534 31.2879 59.38C32.9563 59.4771 35.2544 58.5355 34.816 56.2256C34.2451 57.1378 33.077 57.4938 31.8823 57.3967C33.3212 56.5081 35.8282 54.9279 34.4541 52.4974C33.8773 53.4184 33.689 54.207 32.0176 54.4895C32.4561 53.4625 32.5296 52.0089 33.8244 51.4322C31.5086 50.9614 30.1844 52.5121 29.5106 54.9397C29.237 53.2566 28.9133 52.6386 28.8485 51.4057C30.0991 49.9874 30.2315 47.2156 27.5215 46.5947C27.3596 48.0247 27.4096 48.3661 27.7157 49.5313C26.4445 48.7604 24.6525 48.3367 23.4578 49.4254C24.267 50.314 25.5176 51.0997 27.445 50.1287C26.9889 51.6499 25.806 51.3881 24.1758 50.8084C25.1704 52.7151 26.4268 53.0535 27.8128 52.8358C28.5396 54.7867 28.569 56.2697 26.4504 59.1122C26.5475 57.3467 26.4268 56.0284 25.0497 54.6013C23.8698 53.4243 22.9135 54.6513 24.7555 57.2702C23.6373 56.4316 22.372 54.7249 21.9924 53.0212C21.6246 55.1251 21.9571 57.6056 23.0988 58.9974C22.5574 59.5859 21.9454 58.9356 21.0361 57.4938C21.3804 62.1047 23.3078 62.9934 25.9001 61.9664C25.9737 64.497 25.9737 66.8422 26.1208 69.8966C24.6084 67.6779 22.6928 66.0242 21.6246 65.6122C21.2921 66.854 22.5456 68.4694 23.246 69.3698C22.1837 69.1521 19.8621 67.3483 19.8621 67.3483C19.6296 69.4022 22.2337 71.309 23.9139 72.1594C21.9365 72.0711 21.0656 71.306 19.7856 70.0555C19.8091 75.7551 25.8413 74.7664 26.9712 73.8896C27.1183 76.6967 27.3273 79.9424 27.4773 82.7466C25.7736 82.4435 25.906 81.9197 24.4465 81.7814C20.3976 81.6196 17.1873 76.8233 16.1221 73.2952C15.8161 73.8749 16.0603 74.484 15.7808 75.1961C15.1246 73.4658 14.286 71.2295 13.159 70.1879C13.4444 71.1972 13.4768 72.2241 13.3767 74.1103C12.9913 72.8862 12.6293 72.5125 12.6058 71.0765C12.6293 69.9731 13.6474 69.1609 13.5915 67.6102C13.5503 66.4773 12.5381 64.0262 12.388 62.1283C11.8996 64.0821 11.5906 66.1419 10.8403 67.3513C11.214 65.265 11.0933 63.8232 11.723 62.4196C12.4528 60.9424 13.0707 59.6213 12.5852 58.1294C12.1203 58.7061 12.2792 59.2299 11.111 60.6305C10.8579 59.1063 12.6234 56.6699 14.336 55.69C15.5454 55.0397 17.0667 52.7181 16.075 51.1262C14.9392 51.9589 14.4272 53.083 12.8235 55.0044C13.9682 50.4376 16.9431 49.243 20.5035 49.2282C21.2921 49.2253 22.8811 48.934 23.3254 47.8717C22.322 48.266 21.1362 48.3161 20.0798 48.1012C20.8478 46.9507 22.4662 47.1008 23.9757 47.092C25.1586 47.0861 27.0065 46.9213 27.7539 45.2029C26.3091 45.8414 24.0581 45.9738 22.6427 45.5207C24.8967 44.3289 28.4278 44.2024 30.2374 42.637C28.1747 41.0657 23.0076 43.0019 19.7473 45.2853C20.6595 44.4349 22.1013 42.9253 22.8958 41.7071C21.1126 40.8332 16.5988 45.9326 15.0451 48.9634C13.568 49.8138 12.9795 51.1468 12.4057 52.0766C13.1913 49.3636 13.2767 47.398 13.9329 45.1646C8.87171 46.9419 10.9756 56.4816 9.87511 58.765C10.0046 56.2462 9.89866 53.0094 8.88348 51.338C7.32394 52.5504 7.20036 59.6919 8.66279 65.6358C8.13314 64.0439 7.13562 62.5608 6.81783 60.6247C4.51089 64.9178 8.17139 69.9819 11.2316 73.9808C8.92468 72.7626 6.64422 70.129 5.14941 67.9221C5.56137 75.6051 13.4267 77.1999 14.6479 79.089C12.9913 78.3034 9.82215 76.7438 8.47741 78.3769C10.6667 78.8919 12.4116 79.4892 13.8181 80.4279C15.8602 83.0291 19.7238 84.1678 26.4563 84.4533Z" fill="#FFEB3B"/>
</g>
<defs>
<clipPath id="clip0_4935_17255">
<rect y="20" width="128" height="88.2759" rx="2" fill="white"/>
</clipPath>
</defs>
</svg>
