<svg width="128" height="128" viewBox="0 0 128 128" fill="none" xmlns="http://www.w3.org/2000/svg">
<g clip-path="url(#clip0_4935_25081)">
<path d="M-0.735718 20H128.736V108.276H-0.735718V20Z" fill="url(#paint0_linear_4935_25081)"/>
<path d="M-0.735718 20H128.736V108.276H-0.735718V20Z" fill="url(#paint1_linear_4935_25081)"/>
<path d="M-0.735718 20H55.1723V55.3103H-0.735718V20Z" fill="url(#paint2_linear_4935_25081)"/>
<path d="M-0.735718 25.3583L25.7058 41.5187L29.6812 35.0128L5.11991 20H-0.735718V25.3583Z" fill="white"/>
<path d="M55.1724 20H50.588L26.0267 35.0098L30.002 41.5158L55.1724 26.1322V20Z" fill="white"/>
<path d="M29.999 33.0501L26.0237 39.556L52.2357 55.5781H55.1724V48.4366L29.999 33.0501Z" fill="white"/>
<path d="M-0.735718 49.2135V55.5782H3.46916L29.6812 39.559L25.7058 33.0531L-0.735718 49.2135Z" fill="white"/>
<path d="M-0.735718 32.7058H55.1723V42.8723H-0.735718V32.7058Z" fill="white"/>
<path d="M22.1366 20H32.303V55.5781H22.1366V20Z" fill="white"/>
<path d="M18.5996 32.7058L-0.735718 20.8886V23.8665L13.7268 32.7058H18.5996ZM53.0243 20L32.2353 32.7058H37.1081L55.1723 21.6655V20H53.0243ZM38.7589 42.8723L55.1723 52.9034V49.9255L43.6317 42.8723H38.7589ZM16.9489 42.8723L-0.735718 53.6802V55.5781H1.03274L21.8217 42.8723H16.9489ZM-0.735718 35.2482H55.1723V40.3299H-0.735718V35.2482Z" fill="#E53935"/>
<path d="M24.676 20H29.7578V55.5781H24.676V20Z" fill="#E53935"/>
<path d="M111.08 76.6996V43.5402H92.0305H91.8746H72.8276V76.6996C72.8276 85.639 82.7792 87.8753 91.8775 90.5795C91.8775 90.6295 91.8657 90.6295 91.954 90.603C92.0452 90.6295 92.0305 90.6325 92.0305 90.5795C101.129 87.8753 111.08 85.639 111.08 76.6996Z" fill="white"/>
<path d="M92.0247 90.7678C91.9982 90.7678 91.9746 90.7619 91.954 90.756C91.8922 90.7766 91.8393 90.7766 91.7893 90.7354L91.7304 90.6883C91.1301 90.5088 90.5269 90.3352 89.9207 90.1557C81.4463 87.6811 72.6805 85.1211 72.6805 76.6966V43.3931H111.228V76.6966C111.228 85.1211 102.462 87.6811 93.9873 90.1557C93.3753 90.3382 92.7632 90.5147 92.1541 90.6972C92.1453 90.7089 92.1335 90.7236 92.1188 90.7354C92.0865 90.7619 92.057 90.7678 92.0247 90.7678ZM91.9864 90.5647L91.9952 90.5795L92.01 90.55C92.0041 90.5412 91.9982 90.5294 91.9894 90.5206L91.9864 90.5647ZM92.0217 90.4735V90.5206L92.0423 90.4765C92.0394 90.4735 92.0305 90.4735 92.0217 90.4735ZM72.9747 43.6873V76.6995C72.9747 84.9033 81.6317 87.431 90.0061 89.8791C90.6446 90.0645 91.2861 90.2528 91.9187 90.4412L91.9658 90.4559L91.9923 90.4412C92.6279 90.2528 93.2664 90.0645 93.9049 89.8791C102.276 87.4339 110.936 84.9063 110.936 76.6995V43.6873H72.9747Z" fill="#263238"/>
<path d="M73.528 80.2688C75.9143 86.2157 84.1887 88.1843 91.8776 90.4706C91.8776 90.5206 91.8658 90.5206 91.9541 90.4941C92.0453 90.5206 92.0306 90.5236 92.0306 90.4706C99.7635 88.1695 108.091 86.1951 110.421 80.1688L110.21 79.7774C110.21 79.7774 110.268 77.7324 110.095 76.573C110.095 76.573 109.921 79.2242 108.526 80.054C108.818 78.7829 108.412 76.6289 108.412 76.6289L107.135 80.1659C107.135 80.1659 106.843 78.1208 106.496 77.1821C106.264 78.4533 104.987 80.6072 104.987 80.6072L104.58 77.2351C104.58 77.2351 104.001 79.0036 103.595 79.2242C103.536 77.5676 102.606 75.8521 102.606 75.8521L92.007 77.9472L81.408 75.8521C81.408 75.8521 80.4782 77.5647 80.4194 79.2242C80.0133 79.0036 79.4307 77.2351 79.4307 77.2351L79.0246 80.6072C79.0246 80.6072 77.7475 78.4533 77.5151 77.1821C77.1679 78.1208 76.8765 80.1659 76.8765 80.1659L75.5995 76.6289C75.5995 76.6289 75.1934 78.7829 75.4818 80.054C74.087 79.2242 73.9134 76.573 73.9134 76.573C73.7398 77.7324 73.7957 79.7774 73.7957 79.7774L73.528 80.2688Z" fill="#43A047"/>
<path d="M82.332 66.8715C82.332 66.8715 81.5493 66.3183 80.7342 66.8715C79.4571 66.1241 77.5386 67.3688 77.2796 68.3898C77.0207 69.4109 77.4238 70.5173 77.4238 70.5173C77.4238 70.5173 76.9883 70.5438 76.5528 71.0705C76.1173 71.5942 75.1022 71.0146 75.1022 71.0146C75.1022 71.0146 75.6818 72.2298 76.3204 72.065C75.8849 72.8389 76.2909 73.3362 76.4087 73.6952C76.5234 74.0542 76.5234 74.9399 76.1468 75.0223C76.9589 74.8575 77.3444 74.4426 77.1914 73.6952C77.0619 73.0626 77.5386 72.0915 77.5386 72.0915C77.5386 72.0915 77.5386 73.4745 77.771 73.8335C78.0035 74.1925 78.3801 74.9399 78.0918 75.2989C78.9039 74.7457 79.1952 74.3602 78.7597 73.6687C78.3242 72.9772 78.4125 72.0945 78.4125 72.0945L80.2987 74.0012L82.9705 70.8792L82.332 66.8715Z" fill="#D32F2F"/>
<path d="M77.3561 75.9757L77.977 75.2048C78.1712 74.9635 77.9535 74.3838 77.6504 73.913C77.518 73.707 77.4533 73.2362 77.4209 72.8213C77.3414 73.1009 77.2855 73.4157 77.3355 73.6658C77.5003 74.4691 77.109 74.9752 76.1762 75.1665L76.1144 74.8781C76.1527 74.8693 76.188 74.8369 76.2203 74.784C76.3616 74.5368 76.3469 73.9866 76.2674 73.7423C76.2468 73.6776 76.2144 73.607 76.1821 73.5334C76.0497 73.2333 75.8555 72.7978 76.082 72.221C75.4788 72.118 75.0227 71.197 74.9668 71.0793L74.7667 70.6556L75.1728 70.8881C75.1816 70.894 76.0967 71.3942 76.4381 70.9763C76.7412 70.6144 77.0472 70.4673 77.2326 70.4084C77.1266 70.0583 76.9207 69.1902 77.1355 68.3546C77.2944 67.7396 77.98 67.0657 78.8039 66.7214C79.5101 66.4301 80.1898 66.4213 80.7283 66.6979C81.5875 66.1859 82.4085 66.7479 82.4173 66.7509L82.4673 66.7891L82.4761 66.8509L83.1264 70.9234L80.3075 74.222L78.5567 72.4506C78.5744 72.7566 78.645 73.2097 78.8863 73.5952C79.3865 74.3897 79.0216 74.8487 78.1742 75.4225L77.3561 75.9757ZM77.6887 71.4589V72.0916C77.6887 72.6094 77.7475 73.5157 77.8976 73.7511C78.0212 73.9424 78.3331 74.475 78.3448 74.9311C78.8804 74.5044 78.9333 74.2131 78.6362 73.7453C78.1801 73.0185 78.2624 72.1122 78.2654 72.0769L78.2948 71.7649L80.2928 73.7835L82.8145 70.8351L82.1995 66.9627C82.0259 66.8627 81.4315 66.5832 80.8195 66.9951L80.743 67.051L80.6636 67.001C80.0309 66.6332 79.3012 66.8362 78.9216 66.998C78.1889 67.3041 77.5592 67.9073 77.4238 68.4311C77.1767 69.3962 77.5592 70.4585 77.5651 70.4673L77.6327 70.6527L77.4385 70.6644C77.4238 70.6674 77.056 70.7027 76.6705 71.1676C76.3586 71.5413 75.8319 71.4619 75.4553 71.3294C75.673 71.6531 76.0085 72.0092 76.288 71.9238L76.6235 71.8385L76.4528 72.1416C76.1379 72.7007 76.3057 73.0803 76.4557 73.4186C76.494 73.501 76.5293 73.5834 76.5528 73.654C76.6352 73.9159 76.6647 74.4044 76.5587 74.7516C77.0001 74.5574 77.1561 74.2278 77.0531 73.7276C76.9177 73.0538 77.3944 72.0739 77.415 72.0298L77.6887 71.4589Z" fill="#263238"/>
<path d="M86.7163 79.2772C86.7163 79.2772 84.8567 79.3596 84.2181 79.8304C83.5796 80.3012 82.9999 80.3836 82.9999 80.3836C82.9999 80.3836 80.4458 79.5538 80.4723 81.184C78.7597 81.3223 79.1658 82.7582 79.4571 82.9789C79.7484 83.1996 80.0103 83.8087 81.0255 83.3379C81.0255 84.2766 81.1991 84.7209 81.9553 84.6915C82.7115 84.665 83.0882 83.9735 83.0882 83.641C83.4648 84.3884 84.6271 84.4708 85.1509 83.5292C85.6747 82.5876 84.8037 82.4787 86.0807 81.9814C87.3578 81.4841 87.7933 79.9628 87.7933 79.9628L86.7163 79.2772Z" fill="#D32F2F"/>
<path d="M81.8906 84.8416C81.5904 84.8416 81.3668 84.7651 81.2079 84.6121C81.0019 84.4149 80.9048 84.1001 80.8842 83.5586C80.1074 83.847 79.7573 83.4821 79.516 83.2379C79.4659 83.1849 79.4189 83.1349 79.3718 83.0996C79.1658 82.9407 78.9569 82.4022 79.0981 81.9167C79.1982 81.5754 79.4954 81.1575 80.331 81.0545C80.3546 80.722 80.4841 80.466 80.7224 80.2865C81.411 79.7804 82.7645 80.163 83.0117 80.2306C83.1353 80.2071 83.6178 80.0923 84.1328 79.7127C84.8007 79.2184 86.6339 79.136 86.7104 79.1331L86.7575 79.1301L86.7958 79.1566L87.961 79.904L87.9316 80.0099C87.9139 80.0747 87.4608 81.6077 86.1308 82.1256C85.4599 82.3846 85.4658 82.4846 85.4805 82.72C85.4922 82.9201 85.507 83.1938 85.2774 83.6057C85.0126 84.0853 84.5536 84.3708 84.0533 84.3708C84.0445 84.3708 84.0357 84.3708 84.0269 84.3708C83.6885 84.3619 83.3766 84.2236 83.1559 83.9941C82.994 84.3825 82.5909 84.821 81.9612 84.8416C81.9377 84.8386 81.9112 84.8416 81.8906 84.8416ZM81.1726 83.1084V83.3379C81.1726 83.9206 81.2432 84.2384 81.411 84.3973C81.5257 84.5061 81.6905 84.5473 81.9524 84.5444C82.638 84.5208 82.944 83.8794 82.944 83.641V83.0231L83.2206 83.5763C83.3736 83.8764 83.6855 84.0648 84.0357 84.0706C84.0416 84.0706 84.0475 84.0706 84.0563 84.0706C84.4476 84.0706 84.8096 83.8441 85.0244 83.4586C85.2098 83.1231 85.2009 82.9142 85.1921 82.7347C85.1715 82.3522 85.2451 82.155 86.0307 81.8461C87.0371 81.4547 87.499 80.3689 87.6226 80.0305L86.684 79.4273C86.3985 79.445 84.8567 79.548 84.3152 79.9481C83.6532 80.4337 83.0529 80.5219 83.0293 80.5278L82.994 80.5308L82.9617 80.5219C82.947 80.5161 81.5169 80.057 80.9048 80.5219C80.7136 80.6632 80.6253 80.878 80.6282 81.1811L80.6312 81.3194L80.4929 81.3311C79.8808 81.3812 79.5013 81.6107 79.3865 81.9991C79.2747 82.3728 79.4483 82.7848 79.5542 82.8642C79.6131 82.9113 79.6719 82.9672 79.7337 83.0319C79.9809 83.285 80.2339 83.5469 80.9725 83.2114L81.1726 83.1084Z" fill="#263238"/>
<path d="M101.847 66.8715C101.847 66.8715 102.63 66.3183 103.445 66.8715C104.722 66.1241 106.64 67.3688 106.899 68.3898C107.161 69.4109 106.755 70.5173 106.755 70.5173C106.755 70.5173 107.19 70.5438 107.626 71.0705C108.061 71.5972 109.077 71.0146 109.077 71.0146C109.077 71.0146 108.497 72.2298 107.858 72.065C108.294 72.8389 107.888 73.3362 107.77 73.6952C107.652 74.0542 107.655 74.9399 108.032 75.0223C107.22 74.8575 106.834 74.4426 106.987 73.6952C107.117 73.0626 106.64 72.0915 106.64 72.0915C106.64 72.0915 106.64 73.4745 106.408 73.8335C106.175 74.1925 105.799 74.9399 106.087 75.2989C105.275 74.7457 104.984 74.3602 105.419 73.6687C105.855 72.9772 105.766 72.0945 105.766 72.0945L103.88 74.0012L101.208 70.8792L101.847 66.8715Z" fill="#D32F2F"/>
<path d="M106.823 75.9757L106.005 75.4195C105.157 74.8457 104.792 74.3838 105.293 73.5922C105.534 73.2068 105.604 72.7536 105.619 72.4476L103.871 74.219L101.049 70.9204L101.061 70.8557L101.711 66.7891L101.761 66.7509C101.77 66.7479 102.591 66.1888 103.45 66.6979C103.992 66.4213 104.672 66.4272 105.375 66.7214C106.199 67.0657 106.884 67.7395 107.043 68.3545C107.258 69.1902 107.049 70.0583 106.946 70.4084C107.132 70.4702 107.438 70.6144 107.741 70.9763C108.085 71.3971 108.997 70.891 109.006 70.888L109.415 70.6556L109.212 71.0793C109.156 71.197 108.7 72.118 108.1 72.221C108.329 72.7977 108.135 73.2362 108 73.5334C107.967 73.6069 107.935 73.6776 107.914 73.7423C107.835 73.9895 107.817 74.5368 107.961 74.784C107.994 74.8428 108.029 74.8722 108.07 74.8811L108.008 75.1694C107.076 74.9811 106.687 74.475 106.849 73.6687C106.899 73.4186 106.846 73.1038 106.764 72.8242C106.734 73.2391 106.67 73.7099 106.534 73.9159C106.24 74.3691 106.01 74.9664 106.208 75.2077L106.823 75.9757ZM105.881 71.7679L105.913 72.0768C105.916 72.1151 106.002 73.0184 105.546 73.7452C105.248 74.2131 105.301 74.5074 105.837 74.9311C105.846 74.472 106.161 73.9424 106.284 73.7511C106.437 73.5157 106.493 72.6065 106.493 72.0915V71.4589L106.773 72.0239C106.793 72.068 107.27 73.0508 107.132 73.7217C107.032 74.2219 107.185 74.5486 107.626 74.7457C107.52 74.3955 107.549 73.9071 107.632 73.6481C107.655 73.5775 107.691 73.4951 107.729 73.4127C107.879 73.0773 108.047 72.6977 107.732 72.1357L107.561 71.8326L107.897 71.9179C108.182 72.0033 108.506 71.6443 108.723 71.3265C108.35 71.453 107.826 71.5295 107.511 71.1617C107.129 70.6968 106.758 70.6615 106.743 70.6585L106.552 70.6409L106.617 70.4584C106.62 70.4496 107.002 69.3844 106.758 68.4222C106.623 67.8955 105.993 67.2923 105.26 66.9892C104.883 66.8303 104.157 66.6243 103.518 66.9921L103.439 67.0422L103.362 66.9863C102.75 66.5743 102.156 66.8538 101.982 66.9539L101.364 70.8263L103.886 73.7747L105.881 71.7679Z" fill="#263238"/>
<path d="M97.4625 79.2772C97.4625 79.2772 99.3221 79.3596 99.9607 79.8304C100.599 80.3012 101.179 80.3836 101.179 80.3836C101.179 80.3836 103.733 79.5538 103.707 81.184C105.419 81.3223 105.013 82.7582 104.722 82.9789C104.43 83.1996 104.168 83.8087 103.153 83.3379C103.153 84.2766 102.98 84.7209 102.223 84.6915C101.467 84.665 101.091 83.9735 101.091 83.641C100.714 84.3884 99.5517 84.4708 99.0279 83.5292C98.5041 82.5876 99.3751 82.4787 98.0981 81.9814C96.821 81.4841 96.3855 79.9628 96.3855 79.9628L97.4625 79.2772Z" fill="#D32F2F"/>
<path d="M102.291 84.8416C102.268 84.8416 102.244 84.8386 102.221 84.8386C101.591 84.818 101.188 84.3796 101.026 83.9912C100.805 84.2207 100.493 84.359 100.152 84.3678C100.143 84.3678 100.134 84.3678 100.125 84.3678C99.6252 84.3678 99.1691 84.0824 98.9014 83.6028C98.6718 83.1908 98.6866 82.9201 98.6983 82.72C98.7101 82.4817 98.716 82.3816 98.048 82.1227C96.718 81.6048 96.2648 80.0747 96.2472 80.007L96.2178 79.904L97.4242 79.1272L97.4713 79.1301C97.5507 79.1331 99.3839 79.2155 100.049 79.7098C100.567 80.0894 101.046 80.2042 101.17 80.2277C101.414 80.16 102.774 79.7746 103.459 80.2866C103.698 80.4631 103.827 80.7162 103.851 81.0516C104.689 81.1546 104.987 81.5724 105.084 81.9138C105.228 82.3993 105.019 82.9407 104.813 83.0967C104.766 83.132 104.719 83.182 104.669 83.235C104.43 83.4792 104.077 83.8441 103.3 83.5557C103.28 84.1001 103.183 84.412 102.977 84.6091C102.812 84.7651 102.588 84.8416 102.291 84.8416ZM101.238 83.0261V83.644C101.238 83.8823 101.544 84.5238 102.229 84.5473C102.479 84.5591 102.653 84.512 102.768 84.4002C102.933 84.2384 103.006 83.9235 103.006 83.3409V83.1114L103.215 83.2085C103.951 83.5439 104.207 83.282 104.454 83.029C104.516 82.9672 104.575 82.9083 104.633 82.8613C104.739 82.7818 104.913 82.3699 104.801 81.9962C104.686 81.6078 104.304 81.3782 103.695 81.3282L103.556 81.3164L103.559 81.1781C103.565 80.8751 103.474 80.6603 103.286 80.519C102.665 80.0541 101.241 80.5161 101.226 80.519L101.194 80.5278L101.158 80.5249C101.135 80.519 100.534 80.4307 99.8724 79.9452C99.331 79.545 97.7891 79.442 97.5037 79.4244L96.565 80.0276C96.6886 80.366 97.1506 81.4518 98.1569 81.8432C98.9426 82.1492 99.0161 82.3493 98.9955 82.7318C98.9867 82.9142 98.9749 83.1202 99.1632 83.4557C99.378 83.8411 99.737 84.0677 100.131 84.0677C100.137 84.0677 100.143 84.0677 100.149 84.0677C100.502 84.0618 100.814 83.8735 100.964 83.5734L101.238 83.0261Z" fill="#263238"/>
<path d="M105.187 57.6702C104.404 56.6198 103.91 57.5584 103.91 57.5584C103.91 57.5584 103.153 56.6757 102.485 57.3642C101.091 56.9493 101.005 58.1381 101.12 58.5236C100.131 57.9439 98.4776 58.1087 98.4776 58.1087L98.5659 57.0582C98.5659 57.0582 96.562 57.529 97.0858 56.6168C97.6096 55.7046 96.4473 55.2338 96.4473 55.2338C96.4473 55.2338 97.6949 55.2897 97.7832 54.3216C97.8714 53.3535 96.6209 53.0505 96.6209 53.0505C96.6209 53.0505 96.9416 53.4654 96.6209 53.7125C96.3001 53.9597 95.6322 53.4624 95.6322 52.4973C96.5914 52.5238 97.433 52.4973 97.5478 51.282C97.5478 51.282 96.6473 51.8352 96.3296 51.0613C96.0088 50.2874 97.0564 49.4576 97.0564 49.4576C97.0564 49.4576 96.1559 49.7607 95.4027 49.2634C96.2442 48.5455 96.1 47.4126 96.1 47.4126H94.6758L95.1114 46.1414L93.6872 46.5004C93.6872 46.5004 93.8019 45.5882 93.7754 45.3675C93.3105 45.6176 92.7603 45.8383 92.7603 45.8383L92.413 45.5353V44.9821L92.0923 45.2587L91.7716 44.9821V45.5353L91.4244 45.8383C91.4244 45.8383 90.8712 45.6176 90.4092 45.3675C90.3798 45.5882 90.4975 46.5004 90.4975 46.5004L89.0733 46.1414L89.5088 47.4126H88.0846C88.0846 47.4126 87.9404 48.5455 88.782 49.2634C88.0257 49.7607 87.1253 49.4576 87.1253 49.4576C87.1253 49.4576 88.1699 50.2874 87.8521 51.0613C87.5314 51.8352 86.6339 51.282 86.6339 51.282C86.7487 52.4973 87.5932 52.5267 88.5495 52.4973C88.5495 53.4654 87.8816 53.9627 87.5608 53.7125C87.2401 53.4624 87.5608 53.0505 87.5608 53.0505C87.5608 53.0505 86.3132 53.3535 86.3985 54.3216C86.4868 55.2897 87.7344 55.2338 87.7344 55.2338C87.7344 55.2338 86.5721 55.7046 87.0959 56.6168C87.6197 57.529 85.6158 57.0582 85.6158 57.0582L85.7041 58.1087C85.7041 58.1087 84.0474 57.9439 83.0617 58.5236C83.1794 58.1381 83.0911 56.9493 81.6964 57.3642C81.0284 56.6727 80.2722 57.5584 80.2722 57.5584C80.2722 57.5584 79.7778 56.6198 78.9951 57.6702C78.2124 58.7207 79.9544 60.1567 79.9544 60.1567L84.1946 60.1008H91.7745H92.413H99.993L104.233 60.1567C104.227 60.1567 105.969 58.7207 105.187 57.6702Z" fill="#D32F2F"/>
<path d="M104.277 60.3008H104.224L99.9872 60.2449H84.1917L79.9015 60.3008L79.8603 60.2655C79.7838 60.2037 78.0212 58.7295 78.8775 57.579C79.1541 57.2112 79.4365 57.0258 79.719 57.0258C79.7337 57.0258 79.7514 57.0258 79.7691 57.0258C80.0133 57.0464 80.1928 57.2053 80.2958 57.3318C80.4606 57.1847 80.7577 56.9669 81.105 56.9552C81.1138 56.9552 81.1226 56.9552 81.1314 56.9552C81.3521 56.9552 81.5552 57.0376 81.7376 57.2023C82.3908 57.0317 82.7498 57.2141 82.9382 57.4024C83.1706 57.6349 83.2501 57.9821 83.2442 58.2675C84.0622 57.9144 85.1274 57.935 85.5423 57.9556L85.4511 56.8698L85.6482 56.9169C86.222 57.0552 86.9076 57.0905 87.0224 56.9316C87.0665 56.8757 86.9988 56.7492 86.9694 56.6933C86.8076 56.4137 86.7723 56.1401 86.8635 55.8812C86.9429 55.6516 87.1107 55.4721 87.2725 55.3456C86.8164 55.2515 86.3103 54.9749 86.2544 54.3393C86.1749 53.4742 87.0518 53.0298 87.5285 52.9121L87.9316 52.815L87.6786 53.1446C87.655 53.177 87.4549 53.4506 87.6521 53.6036C87.7256 53.6625 87.8345 53.6272 87.8904 53.5977C88.1141 53.4889 88.3554 53.1534 88.3936 52.6561C88.3318 52.6561 88.2671 52.6561 88.2053 52.6561C87.4255 52.6561 86.6016 52.5178 86.4868 51.3026L86.4604 51.0083L86.7105 51.1613C86.7164 51.1643 87.1224 51.4144 87.4314 51.3085C87.5579 51.2643 87.655 51.1672 87.7198 51.0083C87.9934 50.3463 87.0459 49.5871 87.0371 49.5783L86.3839 49.0574L87.1783 49.3223C87.1842 49.3252 87.8993 49.5518 88.5407 49.2428C87.8139 48.4836 87.9375 47.4479 87.9434 47.4008L87.9611 47.2713H89.3087L88.8497 45.9384L90.3268 46.312C90.2945 46.0207 90.2445 45.5264 90.2651 45.3557L90.2945 45.1468L90.4799 45.2469C90.8271 45.4293 91.2273 45.6029 91.3979 45.6765L91.6274 45.4793V44.6672L92.0924 45.0762L92.5602 44.6701V45.4793L92.7897 45.6765C92.9604 45.6058 93.3635 45.4322 93.7108 45.2469L93.8991 45.1468L93.9256 45.3557C93.9462 45.5293 93.8961 46.0237 93.8638 46.312L95.3409 45.9384L94.8848 47.2713H96.2325L96.2502 47.4008C96.256 47.4479 96.3767 48.4836 95.6528 49.2428C96.2972 49.5518 97.0064 49.3252 97.0152 49.3223L97.8068 49.0574L97.1535 49.5783C97.1447 49.5871 96.2001 50.3492 96.4738 51.0113C96.5385 51.1672 96.6327 51.2643 96.7622 51.3085C97.024 51.3967 97.3713 51.2378 97.4831 51.1613L97.7332 51.0083L97.7067 51.3026C97.5802 52.6179 96.6209 52.6561 95.797 52.6561C95.8382 53.1534 96.0766 53.4889 96.3002 53.5977C96.3532 53.6272 96.465 53.6595 96.5385 53.6036C96.7327 53.4477 96.5356 53.174 96.512 53.1446L96.2619 52.815L96.6651 52.9121C97.1388 53.0298 98.0157 53.4742 97.9392 54.3393C97.8803 54.9749 97.3771 55.2515 96.9211 55.3456C97.0829 55.4721 97.2506 55.6516 97.3301 55.8812C97.4183 56.1401 97.386 56.4167 97.2241 56.6933C97.1947 56.7492 97.127 56.8757 97.1712 56.9346C97.2859 57.0876 97.9745 57.0552 98.5424 56.9169L98.7395 56.8698L98.6513 57.9527C99.0662 57.9262 100.128 57.9086 100.949 58.2646C100.943 57.9792 101.023 57.632 101.255 57.3995C101.444 57.2112 101.806 57.0287 102.456 57.1994C102.638 57.0346 102.841 56.9522 103.062 56.9522C103.071 56.9522 103.08 56.9522 103.089 56.9522C103.436 56.964 103.736 57.1818 103.901 57.3289C104.007 57.2024 104.183 57.0435 104.427 57.0229C104.442 57.0229 104.46 57.0229 104.477 57.0229C104.76 57.0229 105.039 57.2082 105.316 57.5761C106.175 58.7266 104.41 60.2037 104.333 60.2655L104.277 60.3008ZM84.1887 59.9536H99.9872L104.171 60.0095C104.416 59.7918 105.696 58.6001 105.066 57.7585C104.851 57.4701 104.642 57.3201 104.46 57.3201C104.451 57.3201 104.442 57.3201 104.433 57.323C104.192 57.3406 104.036 57.6261 104.036 57.629L103.936 57.8173L103.795 57.6526C103.792 57.6496 103.451 57.2583 103.065 57.2494C103.059 57.2494 103.053 57.2494 103.05 57.2494C102.883 57.2494 102.735 57.3171 102.591 57.4672L102.53 57.529L102.444 57.5025C101.985 57.3642 101.656 57.3995 101.453 57.6055C101.208 57.8527 101.208 58.294 101.264 58.4794L101.37 58.8413L101.046 58.653C100.111 58.1028 98.51 58.2587 98.4924 58.2587L98.3158 58.2764L98.4012 57.2435C97.9921 57.3259 97.1682 57.4289 96.9211 57.1082C96.8122 56.9611 96.824 56.7757 96.9564 56.5491C97.0741 56.3431 97.1006 56.1548 97.0388 55.9783C96.9063 55.5898 96.3943 55.378 96.3885 55.375L95.6087 55.0602L96.4503 55.0955C96.5003 55.0896 97.5596 55.1279 97.6332 54.3128C97.6832 53.7684 97.2212 53.4624 96.8946 53.3123C96.9299 53.4918 96.9005 53.686 96.7092 53.8361C96.5591 53.9538 96.359 53.9626 96.1589 53.8655C95.8235 53.6978 95.4851 53.2152 95.4851 52.5061V52.3531L95.6352 52.3589C96.5532 52.3854 97.18 52.3383 97.3595 51.5409C97.1682 51.6086 96.9034 51.6733 96.6592 51.5909C96.4473 51.5233 96.2914 51.3673 96.1913 51.129C95.9677 50.5817 96.309 50.0402 96.6062 49.7018C96.2443 49.7372 95.7646 49.6901 95.3174 49.3988L95.1526 49.2899L95.3027 49.1634C95.9118 48.6425 95.9618 47.8745 95.9559 47.5685H94.467L94.8819 46.3621L93.5136 46.7064L93.5401 46.4945C93.5725 46.2473 93.6137 45.8677 93.6284 45.6206C93.2252 45.8177 92.8309 45.9766 92.8133 45.9854L92.7309 46.0178L92.266 45.6117V45.3116L92.0924 45.4646L91.9188 45.3145V45.6117L91.4509 46.0178L91.3656 45.9795C91.345 45.9707 90.9536 45.8118 90.5505 45.6147C90.5652 45.8648 90.6064 46.2414 90.6388 46.4886L90.6652 46.7005L89.294 46.3562L89.7119 47.5626H88.22C88.2141 47.8686 88.2641 48.6366 88.8732 49.1575L89.0233 49.284L88.8585 49.3929C88.4142 49.6871 87.914 49.7224 87.5726 49.696C87.8698 50.0343 88.2082 50.5787 87.9875 51.1201C87.8875 51.3614 87.7315 51.5174 87.5167 51.5851C87.2725 51.6704 87.0106 51.6086 86.8164 51.535C86.9959 52.3325 87.6197 52.3766 88.5407 52.3531L88.6908 52.3472V52.5002C88.6908 53.2093 88.3524 53.6919 88.017 53.8596C87.8169 53.9538 87.6138 53.945 87.4667 53.8302C87.2725 53.6801 87.2431 53.483 87.2813 53.3035C86.9518 53.4506 86.4898 53.7566 86.5428 54.3069C86.6163 55.119 87.6756 55.0867 87.7257 55.0896L88.5672 55.0543L87.7874 55.3692C87.7845 55.3721 87.2696 55.584 87.1372 55.9724C87.0754 56.1519 87.1048 56.3372 87.2225 56.5432C87.352 56.7698 87.3637 56.9581 87.2578 57.1023C87.0136 57.423 86.1926 57.3201 85.7777 57.2377L85.863 58.2705L85.6865 58.2528C85.6718 58.2528 84.0681 58.0969 83.1324 58.6471L82.8087 58.8355L82.9176 58.4765C82.9735 58.294 82.9735 57.8497 82.7292 57.6025C82.5262 57.3995 82.1937 57.3642 81.7376 57.4995L81.6523 57.526L81.5905 57.4642C81.4492 57.3142 81.2992 57.2465 81.1314 57.2465C81.1256 57.2465 81.1197 57.2465 81.1138 57.2465C80.7283 57.2583 80.387 57.6467 80.384 57.6496L80.2428 57.8144L80.1428 57.6261C80.1428 57.6231 79.9839 57.3377 79.7426 57.3201C79.7337 57.3171 79.7249 57.3171 79.719 57.3171C79.5366 57.3171 79.3277 57.4701 79.1129 57.7555C78.4861 58.5971 79.7602 59.7859 80.0074 60.0066L84.1887 59.9536Z" fill="#263238"/>
<path d="M103.965 62.1458L103.877 61.5367C103.877 61.5367 105.91 60.2096 103.818 58.912C103.239 59.88 103.006 60.7069 101.176 60.6245C99.3457 60.5421 95.7175 58.4971 95.7175 58.4971L93.3664 58.3323L92.0894 58.9267L90.8123 58.3323L88.4613 58.4971C88.4613 58.4971 84.8302 60.5421 83.0029 60.6245C81.1726 60.7069 80.9401 59.8771 80.3605 58.912C78.2683 60.2096 80.3016 61.5367 80.3016 61.5367L80.2133 62.1458C80.2133 62.1458 78.2683 62.4489 78.9951 63.9966C81.202 63.0285 82.3349 65.8769 82.3349 65.8769L86.5162 70.6291L92.0041 71.1382V71.1558L92.0923 71.147L92.1806 71.1558V71.1382L97.6684 70.6291L101.85 65.8769C101.85 65.8769 102.983 63.0315 105.19 63.9966C105.91 62.4489 103.965 62.1458 103.965 62.1458Z" fill="#81D4FA"/>
<path d="M91.857 71.3177V71.2706L86.4427 70.7674L86.4044 70.7233L82.1966 65.9269C82.1907 65.9122 81.6199 64.5116 80.5459 64.0702C80.078 63.8819 79.5778 63.8936 79.0511 64.1291L78.9216 64.1879L78.8598 64.0584C78.6421 63.5935 78.6244 63.1816 78.8098 62.8373C79.1011 62.287 79.8073 62.0811 80.081 62.0222L80.1427 61.6044C79.9103 61.4308 79.26 60.8893 79.2659 60.1802C79.2718 59.6711 79.6131 59.2033 80.281 58.7884L80.4076 58.7089L80.4841 58.8384C80.5488 58.9473 80.6106 59.0561 80.6724 59.1621C81.105 59.9242 81.4257 60.4833 82.7528 60.4833C82.8293 60.4833 82.9087 60.4803 82.9941 60.4774C84.7684 60.3979 88.3524 58.3852 88.3877 58.3646L88.4495 58.347L90.8388 58.1793L90.8741 58.1969L92.0894 58.7619L93.34 58.1793L95.7911 58.3617C95.8264 58.3823 99.4104 60.392 101.185 60.4744C101.267 60.4774 101.35 60.4803 101.426 60.4803C102.753 60.4803 103.074 59.9212 103.506 59.1591C103.568 59.0532 103.63 58.9443 103.695 58.8354L103.771 58.706L103.898 58.7854C104.566 59.2003 104.907 59.6682 104.913 60.1772C104.919 60.8864 104.269 61.4337 104.039 61.6014L104.098 62.0193C104.372 62.0811 105.078 62.287 105.369 62.8343C105.554 63.1786 105.537 63.5906 105.319 64.0555L105.257 64.185L105.128 64.1261C104.601 63.8937 104.101 63.8789 103.633 64.0673C102.559 64.5057 101.988 65.9093 101.982 65.924L101.956 65.9681L97.7361 70.7645L97.6773 70.7703L92.3219 71.2676V71.2941L92.16 71.2971L92.0718 71.2882L91.857 71.3177ZM86.5869 70.4879L92.1188 70.9999L92.163 70.991L97.5919 70.4879L101.717 65.7975C101.803 65.5944 102.394 64.2644 103.515 63.8024C104.018 63.5965 104.554 63.5935 105.104 63.8054C105.228 63.4846 105.228 63.2051 105.104 62.9756C104.816 62.4342 103.948 62.2929 103.939 62.2929L103.83 62.2753L103.715 61.4661L103.795 61.4131C103.804 61.4072 104.622 60.8628 104.613 60.1831C104.61 59.8124 104.357 59.4534 103.865 59.1209C103.827 59.1827 103.792 59.2474 103.757 59.3062C103.283 60.1331 102.888 60.8658 101.167 60.7716C99.3898 60.6922 96.0442 58.8502 95.6734 58.6383L93.3929 58.4794L92.0865 59.0856L90.7829 58.4794L88.5025 58.6383C88.1317 58.8472 84.7831 60.6892 83.0058 60.7716C82.9205 60.7775 82.8352 60.7775 82.7587 60.7775C81.255 60.7775 80.8637 60.0948 80.4164 59.3062C80.3811 59.2445 80.3458 59.1827 80.3075 59.1209C79.8161 59.4534 79.5631 59.8124 79.5601 60.1831C79.5542 60.8658 80.3723 61.4072 80.3811 61.4131L80.4605 61.4661L80.3428 62.2753L80.234 62.2929C80.2251 62.2929 79.3571 62.4371 79.0687 62.9756C78.9451 63.2051 78.9451 63.4846 79.0687 63.8054C79.619 63.5935 80.1516 63.5994 80.6577 63.7995C81.7788 64.2615 82.3732 65.5915 82.4585 65.7975L86.5869 70.4879Z" fill="#263238"/>
<path d="M101.441 67.6984C101.441 67.6984 101.556 66.4007 99.6105 66.5096C98.9131 65.6268 97.8685 66.1771 97.8685 66.1771C97.8685 66.1771 97.5213 65.3208 96.4738 65.6798C95.6911 64.8235 94.3552 66.0947 94.3552 66.0947C94.3552 66.0947 93.0192 65.6239 92.4101 66.2889C91.4509 66.0947 90.2915 67.5865 89.7677 68.7753C89.244 69.9641 87.5903 75.5726 87.5903 75.5726L92.2365 78.3621L100.832 74.4927L103.359 71.3971L101.647 69.5728L101.441 67.6984Z" fill="white"/>
<path d="M92.2248 78.5327L92.16 78.4915L87.4167 75.6402L87.4491 75.5343C87.5167 75.3048 89.1116 69.9023 89.6324 68.7194C90.1268 67.5954 91.2302 66.127 92.2424 66.127C92.2807 66.127 92.3189 66.13 92.3601 66.1329C92.9575 65.5797 94.0168 65.8387 94.3228 65.9328C94.5288 65.7533 95.1732 65.2413 95.8088 65.2413C95.8206 65.2413 95.8353 65.2413 95.85 65.2413C96.106 65.2502 96.3325 65.3443 96.5209 65.5209C97.3418 65.2737 97.7803 65.7504 97.9362 65.9976C98.2481 65.8769 99.075 65.6562 99.6811 66.3654C100.405 66.333 100.926 66.4949 101.255 66.8332C101.597 67.1834 101.597 67.6101 101.591 67.7013L101.788 69.5139L103.556 71.4L103.471 71.4942L100.893 74.6309L92.2248 78.5327ZM87.7639 75.5078L92.2454 78.1973L100.74 74.3749L103.162 71.4059L101.506 69.6404L101.294 67.6983V67.6836C101.294 67.663 101.314 67.3129 101.038 67.0274C100.761 66.742 100.296 66.6302 99.6223 66.6537L99.5458 66.6596L99.4987 66.5978C98.8837 65.8151 97.9774 66.283 97.9392 66.3036L97.795 66.3771L97.7332 66.2271C97.7185 66.1977 97.4183 65.512 96.5238 65.8122L96.4326 65.8446L96.3679 65.7769C96.2207 65.615 96.0501 65.5326 95.8382 65.5268C95.8294 65.5268 95.8176 65.5268 95.8058 65.5268C95.1702 65.5268 94.464 66.1918 94.4582 66.1977L94.3934 66.2594L94.3081 66.2271C94.2963 66.2241 93.0605 65.7916 92.519 66.383L92.4631 66.4448L92.3837 66.4272C91.5804 66.28 90.4681 67.5483 89.9031 68.8312C89.4294 69.9111 87.9964 74.7192 87.7639 75.5078Z" fill="#263238"/>
<path d="M81.8965 64.8265L81.9553 62.699L82.5938 62.1193L83.1176 62.8079L84.1916 61.8427L84.7124 62.0075L85.5864 61.1248L86.2514 61.3984L86.3102 62.1193L87.4137 61.675L89.0115 63.3052L88.6907 63.9408L90.2297 64.7705L91.1036 70.1318L89.9119 75.5755L84.8007 76.0169L80.793 74.884L79.4571 72.2593L81.9259 70.4084L83.2618 67.5336L81.8965 64.8265Z" fill="#FFF176"/>
<path d="M84.786 76.1669L84.7596 76.1581L80.69 75.0076L80.6606 74.9487L79.2688 72.2122L81.8053 70.3113L83.0941 67.5365L81.7464 64.8588V64.8205L81.8082 62.6313L82.6115 61.8986L83.1353 62.593L84.1534 61.675L84.6713 61.8427L85.5482 60.9511L86.3927 61.2983L86.4427 61.9074L87.452 61.5014L87.5197 61.569L89.191 63.2757L88.8879 63.876L90.3651 64.6734L91.2508 70.1318L91.2449 70.1612L90.0326 75.7108L89.9237 75.7197L84.786 76.1669ZM80.896 74.7604L84.8155 75.8668L89.7913 75.4372L90.9536 70.1289L90.0973 64.8647L88.4966 64.0055L88.832 63.3346L87.3755 61.8456L86.1779 62.3253L86.1131 61.4984L85.6217 61.2954L84.7566 62.1752L84.227 62.0075L83.097 63.0256L82.5733 62.337L82.0995 62.7667L82.0436 64.7941L83.4237 67.5335L83.3942 67.5983L82.0142 70.5261L79.6454 72.3034L80.896 74.7604Z" fill="#263238"/>
<path d="M86.0484 62.5872L88.8968 73.1714L89.5618 73.089L86.0484 62.5872Z" fill="#5D4037"/>
<path d="M88.785 73.3303L85.9072 62.6254L86.1897 62.543L89.7589 73.2126L88.785 73.3303ZM87.4608 67.2687L89.0027 73.0067L89.3676 72.9655L87.4608 67.2687Z" fill="#263238"/>
<path d="M92.3307 69.3756L92.2954 69.2256L90.2327 60.7981L90.5152 60.7158L93.4106 69.0725L92.3307 69.3756ZM91.2625 63.7701L92.5455 69.0078L93.034 68.8695L91.2625 63.7701Z" fill="#263238"/>
<path d="M86.4839 73.9895L85.351 64.541L85.6453 64.5057L86.7781 73.9542L86.4839 73.9895Z" fill="#263238"/>
<path d="M90.9124 71.9091L87.1666 64.1143L87.4314 63.9878L91.1772 71.7826L90.9124 71.9091Z" fill="#263238"/>
<path d="M90.9565 70.1554L89.7383 62.805L90.0267 62.7579L91.2478 70.1083L90.9565 70.1554Z" fill="#263238"/>
<path d="M94.8966 68.0485L91.6716 62.3812L91.9276 62.237L95.1496 67.9043L94.8966 68.0485Z" fill="#263238"/>
<path d="M87.3284 63.2522L84.9185 64.0261L85.2657 64.8824L87.7639 64.079L87.3284 63.2522Z" fill="#5D4037"/>
<path d="M85.2657 65.0295C85.2068 65.0295 85.1509 64.9942 85.1303 64.9383L84.7802 64.082C84.7655 64.0437 84.7654 64.0025 84.7831 63.9643C84.8008 63.926 84.8331 63.9025 84.8714 63.8878L87.2813 63.111C87.346 63.0933 87.4226 63.1198 87.4579 63.1816L87.8934 64.0114C87.914 64.0526 87.914 64.0938 87.8992 64.135C87.8816 64.1762 87.8492 64.2056 87.808 64.2203L85.3098 65.0207C85.2951 65.0265 85.2804 65.0295 85.2657 65.0295ZM85.1127 64.1173L85.351 64.6999L87.552 63.9937L87.2548 63.4288L85.1127 64.1173Z" fill="#263238"/>
<path d="M97.1711 66.539L98.2157 69.1078L97.9833 69.9641C97.9833 69.9641 99.637 70.7115 100.017 72.4505C100.393 74.1925 97.1711 75.961 97.1711 75.961L91.392 77.1203L84.5977 75.5196L86.1072 73.0332C86.1072 73.0332 88.5466 72.7007 90.2297 71.2088C90.3445 70.326 90.4622 68.7783 90.4622 68.7783L97.1711 66.539Z" fill="#5D4037"/>
<path d="M91.392 77.2704C91.3802 77.2704 91.3685 77.2704 91.3567 77.2675L84.5624 75.6638C84.5182 75.652 84.48 75.6197 84.4623 75.5785C84.4447 75.5343 84.4476 75.4843 84.4712 75.4431L85.9807 72.9537C86.0042 72.9155 86.0425 72.8919 86.0866 72.8861C86.1102 72.8831 88.4642 72.5506 90.0914 71.1352C90.2032 70.2554 90.315 68.7812 90.318 68.7665C90.3209 68.7077 90.3621 68.6576 90.418 68.637L97.124 66.3978C97.1947 66.386 97.28 66.4125 97.3065 66.4831L98.3511 69.0519C98.3628 69.0814 98.3658 69.1137 98.357 69.1432L98.1569 69.8847C98.5482 70.0906 99.8253 70.8734 100.161 72.4152C100.555 74.2426 97.3771 76.014 97.2417 76.0875C97.23 76.0934 97.2153 76.0993 97.2005 76.1022L91.4214 77.2645C91.4126 77.2704 91.4008 77.2704 91.392 77.2704ZM84.8302 75.4225L91.3949 76.9732L97.1182 75.8198C97.38 75.6726 100.208 74.0278 99.8724 72.48C99.5134 70.8351 97.9391 70.1024 97.9215 70.0965C97.8567 70.0642 97.8214 69.9935 97.8391 69.9229L98.0598 69.1137L97.0828 66.7215L90.6005 68.8842C90.574 69.2373 90.4739 70.4732 90.3739 71.2265C90.368 71.2618 90.3503 71.2912 90.3239 71.3147C88.7673 72.6977 86.6163 73.095 86.1925 73.1626L84.8302 75.4225ZM90.2326 71.2088H90.2356H90.2326Z" fill="#263238"/>
<path d="M80.0103 73.448C80.0103 73.448 80.2428 72.6182 81.2285 72.8389C81.9553 71.2647 84.1622 71.2088 84.5683 73.0331C85.3804 72.121 87.0371 72.3976 86.5722 74.4691C88.0522 72.3976 89.6795 72.9213 90.115 73.1714C90.5505 73.4216 91.0742 74.8016 90.2886 75.3254C91.0154 76.1552 92.8427 76.7348 93.7725 75.3813C94.7024 74.0277 96.0088 72.8948 97.3742 73.1155C98.1304 73.2803 98.304 73.7511 98.304 73.7511C98.304 73.7511 99.7841 70.5997 102.95 71.1264C103.648 71.6796 104.663 72.1474 104.663 72.1474L102.63 77.5352L101.556 78.6681L100.19 78.8623L98.5365 78.1149L98.1893 79.8274L95.6911 81.2634L93.6872 82.3404L93.2811 83.2231L90.8418 83.3349L90.4063 81.9519L87.502 80.8191L86.0219 79.7127L85.6158 77.9442L84.8331 78.415L83.1794 78.8858L82.0465 78.2767L80.9137 75.5696L80.0103 73.448Z" fill="white"/>
<path d="M90.7329 83.4909L90.2856 82.0697L87.4137 80.9427L85.8895 79.8039L85.5158 78.1796L84.8714 78.5622L83.1588 79.0477L81.9288 78.3856L80.7754 75.6285L79.8573 73.4539L79.8691 73.4039C79.872 73.3951 80.1221 72.5211 81.1491 72.6683C81.5198 71.9562 82.226 71.5089 82.9734 71.5089C83.0382 71.5089 83.1059 71.5119 83.1735 71.5177C83.8739 71.5913 84.4094 72.0474 84.6477 72.7507C85.0921 72.3799 85.6923 72.271 86.1514 72.5123C86.3838 72.63 86.8546 72.992 86.7987 73.9424C88.4348 72.0739 90.112 72.9949 90.1915 73.0331C90.524 73.2244 90.8241 73.8571 90.8418 74.4132C90.8565 74.8016 90.7417 75.1165 90.5093 75.3342C90.8859 75.6961 91.5362 76.0345 92.2306 76.0345C92.2718 76.0345 92.313 76.0316 92.3542 76.0316C92.8956 75.9963 93.3458 75.7403 93.6578 75.2901C94.8083 73.6158 96.1677 72.7801 97.4007 72.9596C97.8803 73.0655 98.1481 73.2833 98.2952 73.4539C98.7189 72.7301 100.24 70.5379 102.977 70.9704L103.044 71.0028C103.718 71.5383 104.716 72.0033 104.728 72.0091L104.851 72.068L102.741 77.6323L101.632 78.8005L101.579 78.8093L100.173 79.0065L98.6453 78.3209L98.3187 79.9187L98.2599 79.951L95.7617 81.387L93.799 82.4434L93.3753 83.3644L93.287 83.3673L90.7329 83.4909ZM87.5726 80.6955L90.524 81.846L90.9477 83.1878L93.184 83.0878L93.5724 82.2403L95.6175 81.1398L98.0539 79.7362L98.4276 77.9089L100.211 78.7093L101.482 78.5298L102.5 77.4558L104.474 72.2239C104.183 72.0798 103.448 71.7031 102.886 71.2647C102.665 71.2294 102.456 71.2147 102.253 71.2147C99.6841 71.2147 98.4453 73.7835 98.4335 73.8129L98.2834 74.1278L98.1598 73.8011C98.1539 73.7864 97.9951 73.4039 97.3389 73.2568C95.7676 73.0067 94.4022 74.7133 93.8902 75.4637C93.5253 75.9933 92.9986 76.2935 92.363 76.3317C92.3189 76.3347 92.2748 76.3347 92.2306 76.3347C91.4832 76.3347 90.6534 75.9727 90.1709 75.4225L90.059 75.296L90.1973 75.2018C90.4916 75.0076 90.5446 74.6721 90.5357 74.4279C90.5181 73.9012 90.2238 73.4039 90.0326 73.2921C89.9619 73.2538 88.267 72.3299 86.681 74.5515L86.2573 75.14L86.4162 74.4338C86.6016 73.6099 86.4515 73.0067 86.0013 72.7771C85.5923 72.5682 85.0332 72.7154 84.6654 73.1273L84.4771 73.3421L84.4153 73.0596C84.2564 72.3475 83.7767 71.8826 83.1294 71.812C82.5262 71.7443 81.7376 72.0562 81.3521 72.8948L81.3021 73.0037L81.1873 72.9772C80.4487 72.8125 80.2133 73.2833 80.1545 73.4363L82.1436 78.1679L83.1794 78.724L84.7596 78.2797L85.6982 77.7147L86.1367 79.6244L87.5726 80.6955Z" fill="#263238"/>
<path d="M104.198 58.7207C103.771 57.9027 102.579 58.194 102.85 58.8326C103.436 61.1542 99.5134 59.5505 99.5134 59.5505L96.7327 58.0881C95.8911 57.6467 94.8936 57.5437 93.9726 57.8086L92.1924 58.3176L90.4121 57.8086C89.4911 57.5437 88.4936 57.6438 87.652 58.0881L84.8713 59.5505C84.8713 59.5505 80.949 61.1542 81.5345 58.8326C81.8052 58.194 80.6164 57.9027 80.1868 58.7207C79.719 59.7418 81.6316 62.5284 85.3392 60.4333C88.8467 58.453 89.497 58.7766 89.497 58.7766C89.497 58.7766 88.3259 59.8271 89.7324 60.3803C90.6681 60.7128 92.1924 59.6623 92.1924 59.6623L92.1953 59.5682L92.1982 59.6623C92.1982 59.6623 93.7195 60.7128 94.6582 60.3803C96.0647 59.8271 94.8936 58.7766 94.8936 58.7766C94.8936 58.7766 95.541 58.453 99.0514 60.4333C102.753 62.5254 104.666 59.7418 104.198 58.7207Z" fill="#FFCA28"/>
<path d="M82.8175 61.3455C81.7405 61.3455 81.049 60.8688 80.7253 60.5686C80.1045 59.9978 79.8132 59.1739 80.0515 58.6589C80.3458 58.0969 80.9608 57.9586 81.3756 58.1528C81.6817 58.2999 81.7964 58.5854 81.667 58.8884C81.5699 59.2798 81.614 59.5741 81.8082 59.7418C82.3879 60.242 84.1769 59.677 84.8125 59.4152L87.5785 57.9586C88.4495 57.5025 89.4941 57.3936 90.4504 57.6673L92.1924 58.1646L93.9314 57.6673C94.8819 57.3936 95.9294 57.4996 96.8033 57.9586L99.584 59.421C100.211 59.6741 102.003 60.242 102.577 59.7418C102.768 59.5741 102.815 59.2798 102.709 58.8678C102.585 58.5854 102.703 58.2999 103.006 58.1528C103.424 57.9615 104.042 58.0998 104.327 58.6501C104.327 58.653 104.327 58.656 104.33 58.6589C104.569 59.1768 104.277 59.9978 103.656 60.5686C103.121 61.06 101.597 62.0399 98.972 60.5627C96.6768 59.268 95.6381 58.9708 95.2085 58.912C95.3674 59.118 95.538 59.4328 95.4821 59.7594C95.4233 60.0772 95.1643 60.3303 94.7082 60.5127C93.8343 60.8276 92.5278 60.0507 92.1924 59.833C91.854 60.0478 90.5593 60.8305 89.6795 60.5127C89.2204 60.3303 88.9585 60.0802 88.8997 59.7594C88.8408 59.4328 89.0174 59.115 89.1733 58.909C88.7496 58.9679 87.7109 59.2592 85.4069 60.5627C84.377 61.1424 83.5149 61.3455 82.8175 61.3455ZM80.9843 58.3647C80.7518 58.3647 80.4752 58.4765 80.3134 58.7884C80.1545 59.1327 80.3369 59.8183 80.9225 60.3509C81.411 60.7981 82.8087 61.6897 85.2627 60.3038C88.6643 58.3853 89.4382 58.5883 89.5559 58.6442C89.6 58.6678 89.6294 58.706 89.6353 58.756C89.6412 58.8061 89.6265 58.8531 89.5882 58.8855C89.5853 58.8914 89.1145 59.3151 89.1881 59.7094C89.2263 59.9213 89.4264 60.1008 89.7795 60.2391C90.5269 60.5009 91.7569 59.7594 92.0423 59.577V59.5564C92.0453 59.477 92.11 59.4152 92.1894 59.4152C92.2689 59.4152 92.3336 59.477 92.3336 59.5564V59.577C92.6191 59.7624 93.8549 60.5039 94.5994 60.2391C94.9495 60.1008 95.1467 59.9242 95.1849 59.7094C95.2438 59.3828 94.9142 59.0032 94.7848 58.8855C94.7465 58.8531 94.7288 58.8061 94.7347 58.756C94.7406 58.706 94.773 58.6678 94.8142 58.6442C94.9378 58.5854 95.7087 58.3853 99.1073 60.3038C101.564 61.6927 102.962 60.7981 103.448 60.3509C104.03 59.8153 104.213 59.1356 104.057 58.7855C103.824 58.347 103.365 58.2999 103.124 58.4206C103.009 58.4735 102.894 58.5795 102.977 58.7737C103.118 59.3269 103.041 59.7182 102.759 59.9625C101.938 60.6716 99.7017 59.7859 99.4487 59.6829L96.6562 58.2146C95.8529 57.7938 94.8877 57.6938 94.005 57.9468L92.2247 58.4559C92.1983 58.4677 92.1688 58.4677 92.1453 58.4559L90.3651 57.9468C89.4882 57.6997 88.5201 57.7938 87.7138 58.2146L84.9332 59.677C84.6683 59.7889 82.4291 60.6804 81.611 59.9625C81.3286 59.7182 81.2521 59.3239 81.3874 58.7943C81.4757 58.5795 81.3609 58.4735 81.2462 58.4206C81.1756 58.3853 81.0843 58.3647 80.9843 58.3647Z" fill="#263238"/>
<path d="M80.2986 64.2174C80.2986 64.2174 80.5605 64.8794 79.3688 64.9353C78.1771 64.9912 78.4978 63.47 79.513 63.4435C80.5282 63.417 83.0558 64.1055 83.4913 67.6425C83.9268 71.1794 79.9485 72.2004 79.9485 72.2004C79.9485 72.2004 81.6552 76.3641 81.9229 77.0644C82.4761 78.5004 84.1887 78.7505 84.7978 77.8942C84.1004 77.5617 84.5947 76.6231 85.2921 76.8438C85.9895 77.0644 85.9306 77.7559 85.9306 77.7559C85.9306 77.7559 86.7428 77.5058 87.1489 77.8383C87.5549 78.1708 87.4107 79.3302 86.2779 79.0536C86.3367 80.2129 87.9316 80.6014 88.832 80.822C89.7324 81.0427 91.3008 81.899 91.3596 83.0319C91.4214 84.2207 90.5181 84.359 89.9649 84.1912C89.4146 84.0265 89.4411 82.6435 90.5445 82.9466C90.2238 82.2286 89.1792 81.7872 87.9316 81.4282C86.6839 81.0692 85.0861 80.2953 85.5216 78.5269C84.0415 79.6862 81.9494 79.495 81.2226 77.6971C80.4958 75.8992 78.7832 71.7826 78.7832 71.7826C78.7832 71.7826 82.5585 71.1205 82.2966 67.7749C82.0436 64.438 80.2986 64.2174 80.2986 64.2174Z" fill="#FFCA28"/>
<path d="M90.3651 84.4001C90.2062 84.4001 90.0561 84.3766 89.9266 84.3383C89.5412 84.2236 89.397 83.7116 89.5058 83.3202C89.5912 83.0289 89.8266 82.7641 90.2474 82.7641C90.2503 82.7641 90.2562 82.7641 90.2591 82.7641C89.803 82.1903 88.7761 81.8342 87.8933 81.5782C85.6629 80.9368 85.2186 79.8068 85.3186 78.8623C84.533 79.3655 83.6149 79.5302 82.8028 79.3184C82.0201 79.1095 81.4139 78.5563 81.0932 77.7618C80.3752 75.9845 78.6715 71.8914 78.6538 71.8502C78.6391 71.8061 78.6391 71.762 78.6597 71.7208C78.6803 71.6825 78.7215 71.656 78.7627 71.6501C78.9127 71.6207 82.4026 70.9675 82.1554 67.7954C81.9583 65.2825 80.9048 64.5999 80.4664 64.4233C80.4605 64.5057 80.434 64.5999 80.3781 64.6852C80.2222 64.9265 79.8838 65.0618 79.3777 65.0854C79.3541 65.0883 79.3335 65.0883 79.31 65.0883C78.9745 65.0883 78.7126 64.9647 78.5714 64.7411C78.4213 64.4998 78.4243 64.1702 78.5832 63.873C78.7686 63.5258 79.1158 63.311 79.513 63.3022C79.5366 63.3022 79.563 63.2993 79.5866 63.2993C80.846 63.2993 83.2177 64.1938 83.6414 67.6307C84.0357 70.838 80.9048 72.0562 80.1486 72.3034C80.4576 73.0537 81.8288 76.4023 82.0642 77.0203C82.3702 77.8177 83.0323 78.1708 83.5472 78.2355C83.9533 78.2885 84.3358 78.1767 84.5771 77.9354C84.3035 77.7265 84.2681 77.4087 84.3682 77.1586C84.4947 76.8319 84.8831 76.5759 85.3392 76.7084C85.8512 76.8731 86.0337 77.2763 86.0749 77.5764C86.3603 77.5234 86.9105 77.4558 87.2489 77.7324C87.5167 77.953 87.5903 78.4239 87.4108 78.7858C87.3254 78.9565 87.0518 79.3066 86.4574 79.2419C86.6663 80.1452 88.0258 80.4777 88.8585 80.6808C89.9031 80.9368 91.4538 81.8578 91.5126 83.0289C91.545 83.6792 91.3037 84.0088 91.0948 84.1736C90.8771 84.3383 90.6122 84.4001 90.3651 84.4001ZM90.2503 83.0583C89.9413 83.0583 89.8295 83.2614 89.7883 83.4026C89.7118 83.6763 89.8207 83.997 90.009 84.0558C90.2562 84.1324 90.6417 84.1412 90.9094 83.9382C91.1331 83.7616 91.2361 83.4615 91.2155 83.0436C91.1595 81.9843 89.6177 81.1692 88.8026 80.9691C87.8816 80.7426 86.1984 80.3277 86.1337 79.0683C86.1308 79.0182 86.1514 78.977 86.1867 78.9476C86.222 78.9182 86.2691 78.9035 86.3132 78.9153C86.7104 79.0124 87.0076 78.9241 87.143 78.6504C87.2695 78.3974 87.2048 78.0766 87.0577 77.9589C86.7752 77.7265 86.1778 77.8353 85.9748 77.9001C85.9277 77.9089 85.8777 77.903 85.8395 77.8736C85.8012 77.8412 85.7806 77.7971 85.7835 77.7471C85.7835 77.7235 85.8189 77.1674 85.2451 76.985C84.9567 76.882 84.7184 77.0526 84.636 77.2645C84.6065 77.341 84.53 77.6058 84.8596 77.7647C84.8978 77.7824 84.9273 77.8206 84.939 77.8589C84.9508 77.903 84.942 77.9442 84.9155 77.9825C84.6212 78.3944 84.1034 78.6004 83.506 78.521C82.9058 78.4474 82.1378 78.0384 81.7847 77.1174C81.5198 76.4318 79.8279 72.3005 79.8102 72.2593C79.7955 72.221 79.7955 72.1769 79.8132 72.1386C79.8338 72.1004 79.8691 72.0739 79.9073 72.0621C80.0662 72.0209 83.7561 71.0293 83.3412 67.663C82.944 64.4321 80.7459 63.5935 79.5807 63.5935C79.5572 63.5935 79.5366 63.5935 79.516 63.5935C79.2247 63.6023 78.9716 63.7583 78.8362 64.0113C78.7274 64.2144 78.7185 64.4351 78.8156 64.5822C78.9069 64.7323 79.0952 64.8058 79.36 64.7911C79.8691 64.7676 80.0574 64.6322 80.128 64.5233C80.2045 64.4056 80.1604 64.2732 80.1604 64.2732C80.1398 64.2232 80.1486 64.1702 80.181 64.129C80.2133 64.0849 80.2634 64.0673 80.3163 64.0702C80.3928 64.082 82.1789 64.3468 82.4467 67.769C82.6821 70.7762 79.7514 71.7061 78.9892 71.8944C79.3129 72.6741 80.7253 76.0698 81.3639 77.647C81.6493 78.3532 82.1878 78.8417 82.8763 79.03C83.7091 79.2448 84.6595 79.0212 85.4334 78.415C85.4834 78.3738 85.554 78.3768 85.604 78.4062C85.657 78.4415 85.6806 78.5033 85.6658 78.5651C85.351 79.8451 86.1278 80.7602 87.9728 81.2928C89.1057 81.6165 90.3121 82.0638 90.6799 82.8936C90.7035 82.9465 90.6917 83.0054 90.6564 83.0495C90.6181 83.0966 90.5563 83.1172 90.5063 83.0966C90.4121 83.0701 90.3268 83.0583 90.2503 83.0583Z" fill="#263238"/>
<path d="M89.6324 63.0315L89.55 62.749L92.107 62.0046L92.1894 62.2871L89.6324 63.0315Z" fill="#263238"/>
<path d="M83.5825 83.532C83.5825 83.532 83.9592 84.609 83.612 85.2446C84.5418 84.968 84.9479 84.1941 84.7742 83.4761C84.5977 82.7582 83.4648 82.9259 83.5825 83.532Z" fill="#81D4FA"/>
<path d="M83.3089 85.4889L83.4796 85.1769C83.7915 84.6061 83.4443 83.5909 83.4413 83.5821L83.4354 83.5615C83.3736 83.2378 83.5855 82.9583 83.9474 82.8788C84.3388 82.8082 84.7978 82.9642 84.9126 83.4438C85.1186 84.2912 84.5889 85.1093 83.6502 85.3888L83.3089 85.4889ZM83.7238 83.4938C83.762 83.6027 84.0033 84.3648 83.8592 84.9945C84.4683 84.6973 84.7772 84.1235 84.6301 83.5115C84.5477 83.176 84.2152 83.1142 84.0122 83.1643C83.9563 83.179 83.6826 83.2496 83.7238 83.4938Z" fill="#263238"/>
<path d="M80.3281 83.0643C80.3281 83.0643 80.0368 84.1412 80.0957 84.5002C79.2541 83.7263 79.107 83.2026 79.4571 82.3463C79.8073 81.49 80.6489 82.208 80.3281 83.0643Z" fill="#81D4FA"/>
<path d="M80.3075 84.8945L79.9956 84.609C79.1129 83.7998 78.9451 83.2113 79.3218 82.2903C79.5072 81.8254 79.8426 81.746 80.0692 81.8489C80.434 81.9902 80.6812 82.5287 80.4694 83.1113C80.3899 83.4085 80.1986 84.2118 80.2398 84.4796L80.3075 84.8945ZM79.8867 82.105C79.7308 82.105 79.6337 82.3021 79.5925 82.3992C79.3012 83.1142 79.3806 83.5615 79.9544 84.1588C80.0044 83.7116 80.1604 83.1142 80.1839 83.026L80.1869 83.0112C80.3487 82.5787 80.1633 82.2021 79.9574 82.1197C79.9368 82.1108 79.9103 82.105 79.8867 82.105Z" fill="#263238"/>
<path d="M82.4203 84.0029C82.4203 84.0029 82.1878 85.2476 82.535 85.7979C81.1109 84.9151 81.1697 84.2501 81.2874 83.7263C81.4022 83.2026 82.4497 83.0348 82.4203 84.0029Z" fill="#81D4FA"/>
<path d="M83.0029 86.2628L82.4585 85.9244C80.9902 85.0122 81.0108 84.2972 81.1432 83.6969C81.2109 83.3909 81.5346 83.1584 81.8759 83.1584C81.9083 83.1584 81.9377 83.1584 81.9671 83.1614C82.2673 83.1996 82.5821 83.4439 82.5645 84.0088V84.0294C82.5027 84.359 82.3997 85.3094 82.6616 85.7214L83.0029 86.2628ZM81.8759 83.4498C81.6699 83.4498 81.4698 83.5822 81.4316 83.7558C81.3492 84.1295 81.2286 84.6738 82.2467 85.4212C82.129 84.8327 82.2526 84.0942 82.2731 83.9853C82.279 83.6704 82.1584 83.4792 81.9318 83.4498C81.9142 83.4498 81.8936 83.4498 81.8759 83.4498Z" fill="#263238"/>
<path d="M103.88 64.2174C103.88 64.2174 103.618 64.8794 104.81 64.9353C106.002 64.9912 105.681 63.47 104.666 63.4435C103.651 63.417 101.123 64.1055 100.687 67.6425C100.252 71.1794 104.23 72.2004 104.23 72.2004C104.23 72.2004 102.524 76.3641 102.256 77.0644C101.703 78.5004 99.9901 78.7505 99.381 77.8942C100.078 77.5617 99.584 76.6231 98.8867 76.8438C98.1893 77.0644 98.2481 77.7559 98.2481 77.7559C98.2481 77.7559 97.436 77.5058 97.0299 77.8383C96.6239 78.1708 96.7681 79.3302 97.9009 79.0536C97.8421 80.2129 96.2472 80.6014 95.3468 80.822C94.4464 81.0427 92.878 81.899 92.8192 83.0319C92.7574 84.2207 93.6607 84.359 94.2139 84.1912C94.7671 84.0235 94.7377 82.6435 93.6343 82.9466C93.955 82.2286 94.9996 81.7872 96.2472 81.4282C97.4949 81.0692 99.0926 80.2953 98.6572 78.5269C100.137 79.6862 102.229 79.495 102.956 77.6971C103.683 75.9021 105.396 71.7826 105.396 71.7826C105.396 71.7826 101.62 71.1205 101.882 67.7749C102.138 64.438 103.88 64.2174 103.88 64.2174Z" fill="#FFCA28"/>
<path d="M93.8137 84.4001C93.5666 84.4001 93.3017 84.3383 93.084 84.1706C92.8751 84.0058 92.6338 83.6763 92.6661 83.026C92.725 81.8549 94.2757 80.9338 95.3027 80.6808C96.153 80.4748 97.5095 80.1364 97.7185 79.2389C97.1035 79.3037 96.8504 78.9506 96.7651 78.7829C96.5856 78.4209 96.6592 77.9472 96.9269 77.7294C97.2653 77.4528 97.8185 77.5234 98.0981 77.5735C98.1393 77.2733 98.3217 76.8702 98.8337 76.7054C99.2957 76.5701 99.6752 76.829 99.8047 77.1556C99.9048 77.4057 99.8665 77.7206 99.5929 77.9325C99.8371 78.1737 100.214 78.2767 100.623 78.2326C101.141 78.1679 101.803 77.8118 102.106 77.0173C102.344 76.3994 103.712 73.0508 104.021 72.3005C103.265 72.0533 100.134 70.8351 100.529 67.6277C100.952 64.1909 103.324 63.2963 104.583 63.2963C104.607 63.2963 104.633 63.2993 104.657 63.2993C105.054 63.3081 105.401 63.5229 105.587 63.8701C105.746 64.1673 105.749 64.4969 105.599 64.7382C105.446 64.9765 105.151 65.1177 104.789 65.0824C104.283 65.0589 103.945 64.9235 103.789 64.6823C103.733 64.5969 103.707 64.5028 103.701 64.4204C103.265 64.5969 102.209 65.2796 102.012 67.7925C101.764 70.9616 105.257 71.6178 105.404 71.6472C105.448 71.6531 105.487 71.6825 105.507 71.7178C105.528 71.759 105.531 71.8032 105.513 71.8473C105.496 71.8885 103.792 75.9816 103.074 77.7589C102.753 78.5563 102.147 79.1065 101.361 79.3155C100.552 79.5244 99.634 79.3625 98.8455 78.8594C98.9426 79.8039 98.5012 80.9338 96.2678 81.5753C95.388 81.8284 94.361 82.1874 93.902 82.7612C93.9049 82.7612 93.9079 82.7612 93.9138 82.7612C94.3375 82.7612 94.5729 83.0289 94.6553 83.3202C94.7671 83.7086 94.6229 84.2206 94.2345 84.3354C94.1227 84.3766 93.9726 84.4001 93.8137 84.4001ZM97.898 78.9123C97.9333 78.9123 97.9656 78.9241 97.9921 78.9476C98.0274 78.9771 98.048 79.0183 98.0451 79.0683C97.9833 80.3306 96.3002 80.7426 95.3968 80.9662C94.5641 81.1692 93.0192 81.9873 92.9633 83.0466C92.9427 83.4644 93.0428 83.7646 93.2694 83.9411C93.5342 84.1471 93.9226 84.1383 94.1698 84.0588C94.361 84 94.4699 83.6792 94.3905 83.4056C94.3404 83.229 94.1757 82.9642 93.6695 83.0995C93.6107 83.1231 93.5548 83.0966 93.5195 83.0525C93.4842 83.0083 93.4724 82.9495 93.4959 82.8965C93.8667 82.0667 95.0731 81.6194 96.2031 81.2958C98.048 80.7632 98.8278 79.848 98.5129 78.568C98.4982 78.5063 98.5218 78.4445 98.5747 78.4092C98.6248 78.3768 98.6954 78.3738 98.7454 78.418C99.5193 79.0241 100.467 79.2478 101.302 79.033C101.991 78.8476 102.53 78.3591 102.815 77.65C103.451 76.0728 104.863 72.6771 105.19 71.8973C104.427 71.709 101.497 70.7792 101.732 67.7719C102 64.3498 103.789 64.0849 103.865 64.0732C103.918 64.0673 103.968 64.0879 104.001 64.132C104.033 64.1732 104.039 64.2262 104.021 64.2732C104.018 64.2791 103.971 64.4086 104.054 64.5292C104.124 64.6381 104.316 64.7705 104.819 64.7941C104.836 64.7941 104.857 64.7941 104.875 64.7941C105.11 64.7941 105.278 64.7235 105.366 64.5852C105.46 64.4351 105.454 64.2173 105.345 64.0143C105.21 63.7612 104.957 63.6053 104.666 63.5965C104.645 63.5965 104.622 63.5965 104.601 63.5965C103.436 63.5965 101.238 64.4351 100.84 67.666C100.423 71.0381 104.233 72.0562 104.274 72.0651C104.316 72.0768 104.348 72.1063 104.369 72.1416C104.386 72.1798 104.389 72.224 104.372 72.2622C104.354 72.3063 102.662 76.4347 102.4 77.1203C102.047 78.0384 101.279 78.4474 100.679 78.5239C100.09 78.6092 99.5634 78.3974 99.2692 77.9854C99.2427 77.9472 99.2339 77.906 99.2456 77.8618C99.2545 77.8206 99.2868 77.7853 99.3251 77.7677C99.6547 77.6088 99.5781 77.344 99.5487 77.2674C99.4663 77.0556 99.225 76.8849 98.9396 76.9879C98.3658 77.1703 98.4011 77.7265 98.4011 77.75C98.4041 77.8 98.3835 77.8442 98.3452 77.8766C98.307 77.9089 98.2569 77.9119 98.2099 77.903C98.0039 77.8383 97.4066 77.7265 97.127 77.9619C96.9622 78.0943 96.924 78.418 97.0417 78.6534C97.1741 78.9212 97.4713 79.0124 97.8715 78.9182C97.8744 78.9123 97.8862 78.9123 97.898 78.9123Z" fill="#263238"/>
<path d="M100.596 83.532C100.596 83.532 100.22 84.609 100.567 85.2446C99.6369 84.968 99.2309 84.1941 99.4045 83.4761C99.581 82.7582 100.714 82.9259 100.596 83.532Z" fill="#81D4FA"/>
<path d="M100.87 85.4889L100.529 85.3888C99.5899 85.1093 99.0573 84.2912 99.2633 83.4438C99.3839 82.9642 99.8547 82.8082 100.231 82.8788C100.593 82.9583 100.805 83.2378 100.743 83.5615L100.737 83.5821C100.735 83.5909 100.384 84.6061 100.699 85.1769L100.87 85.4889ZM100.04 83.1525C99.8488 83.1525 99.6164 83.2378 99.5487 83.5115C99.4016 84.1235 99.7135 84.6973 100.32 84.9945C100.175 84.3648 100.42 83.6027 100.455 83.4938C100.493 83.2496 100.223 83.179 100.167 83.1643C100.128 83.1554 100.087 83.1525 100.04 83.1525Z" fill="#263238"/>
<path d="M103.851 83.0641C103.851 83.0641 104.142 84.1411 104.083 84.5001C104.925 83.7262 105.072 83.2024 104.722 82.3462C104.371 81.4899 103.53 82.2079 103.851 83.0641Z" fill="#81D4FA"/>
<path d="M103.868 84.8974L103.936 84.4766C103.98 84.2088 103.789 83.4055 103.709 83.1083C103.498 82.5287 103.745 81.9902 104.11 81.846C104.339 81.7489 104.666 81.8224 104.857 82.2874C105.231 83.2113 105.06 83.7969 104.18 84.6061L103.868 84.8974ZM104.292 82.1049C104.268 82.1049 104.242 82.1108 104.216 82.1196C104.012 82.1991 103.827 82.5757 103.989 83.0112L103.992 83.0259C104.015 83.1113 104.174 83.7057 104.221 84.1588C104.795 83.5615 104.875 83.1142 104.583 82.3992C104.545 82.305 104.448 82.1049 104.292 82.1049Z" fill="#263238"/>
<path d="M101.759 84.0029C101.759 84.0029 101.991 85.2476 101.644 85.7979C103.068 84.9151 103.009 84.2501 102.891 83.7263C102.777 83.2026 101.729 83.0348 101.759 84.0029Z" fill="#81D4FA"/>
<path d="M101.179 86.2628L101.52 85.7213C101.779 85.3065 101.676 84.359 101.614 84.0294V84.0088C101.597 83.4438 101.912 83.1996 102.212 83.1614C102.597 83.1319 102.965 83.3614 103.039 83.6969C103.171 84.2972 103.189 85.0122 101.723 85.9244L101.179 86.2628ZM101.906 83.9882C101.926 84.0971 102.05 84.8356 101.932 85.4242C102.95 84.6767 102.83 84.1324 102.747 83.7587C102.703 83.5704 102.491 83.4291 102.244 83.4527C102.02 83.4821 101.9 83.6734 101.906 83.9882Z" fill="#263238"/>
<path d="M91.3332 51.5909C91.3096 51.5909 91.2831 51.5909 91.2596 51.588C90.88 51.5498 90.6181 51.2114 90.4975 50.9053C90.4592 50.8053 90.3415 50.4551 90.5004 50.2756L90.7182 50.4698L90.6093 50.3727L90.7211 50.4669C90.6711 50.5552 90.7947 51.0466 91.1066 51.2349C91.5421 51.4909 91.9923 50.9112 92.2247 50.5434L92.3777 50.308L92.4866 50.5699C92.7132 51.1231 93.1104 51.3173 93.3929 51.2467C93.6813 51.1849 93.849 50.8936 93.8314 50.4904L94.1256 50.4787C94.1521 51.026 93.8902 51.4379 93.4577 51.5321C93.0928 51.6292 92.6367 51.4468 92.3307 50.9112C91.9982 51.3644 91.6627 51.5909 91.3332 51.5909Z" fill="#263238"/>
<path d="M92.3837 48.8132L92.3454 48.8044L90.0797 48.2541L90.1503 47.9657L92.3748 48.5072L94.3404 47.9128L94.4258 48.1953L92.3837 48.8132Z" fill="#263238"/>
</g>
<defs>
<linearGradient id="paint0_linear_4935_25081" x1="63.9999" y1="20" x2="63.9999" y2="108.276" gradientUnits="userSpaceOnUse">
<stop stop-color="#F73E3E"/>
<stop offset="1" stop-color="#D50000"/>
</linearGradient>
<linearGradient id="paint1_linear_4935_25081" x1="63.9999" y1="20" x2="63.9999" y2="108.276" gradientUnits="userSpaceOnUse">
<stop stop-color="#F34138"/>
<stop offset="0.447917" stop-color="#D8241B"/>
</linearGradient>
<linearGradient id="paint2_linear_4935_25081" x1="27.2183" y1="20" x2="27.2183" y2="55.3103" gradientUnits="userSpaceOnUse">
<stop stop-color="#4955AB"/>
<stop offset="1" stop-color="#283593"/>
</linearGradient>
<clipPath id="clip0_4935_25081">
<rect y="20" width="128" height="88.2759" rx="2" fill="white"/>
</clipPath>
</defs>
</svg>
