<svg width="128" height="128" viewBox="0 0 128 128" fill="none" xmlns="http://www.w3.org/2000/svg">
<g clip-path="url(#clip0_4935_21675)">
<path d="M-0.735657 20H128.736V108.276H-0.735657V20Z" fill="#64B5F6"/>
<path d="M67.2103 38.4556L72.3479 34.6009H65.9244L63.997 28.498L62.0697 34.6009H55.6461L60.7838 38.4556L58.8564 44.5584L63.997 40.8655L69.1376 44.5584L67.2103 38.4556Z" fill="white"/>
<path d="M40.7481 63.9672L44.4086 58.6854L38.3117 60.7157L34.5571 55.531L34.6542 61.931L28.5602 63.9584L34.6512 65.9946L34.7513 72.3946L38.4618 67.2658L44.5028 69.149L40.7481 63.9672Z" fill="white"/>
<path d="M87.2519 63.9672L83.5914 58.6854L89.6883 60.7157L93.4429 55.531L93.3458 61.931L99.4398 63.9584L93.3488 65.9946L93.2487 72.3946L89.5382 67.2658L83.4972 69.149L87.2519 63.9672Z" fill="white"/>
<path d="M67.2103 89.8203L72.3479 93.675H65.9244L63.997 99.7779L62.0697 93.675H55.6461L60.7838 89.8203L58.8564 83.7175L63.997 87.4104L69.1376 83.7175L67.2103 89.8203Z" fill="white"/>
</g>
<defs>
<clipPath id="clip0_4935_21675">
<rect y="20" width="128" height="88.2759" rx="2" fill="white"/>
</clipPath>
</defs>
</svg>
