<svg width="128" height="128" viewBox="0 0 128 128" fill="none" xmlns="http://www.w3.org/2000/svg">
<g clip-path="url(#clip0_4935_15127)">
<path fill-rule="evenodd" clip-rule="evenodd" d="M-0.735596 20H128.736V108.276H-0.735596V20Z" fill="#FF3D00"/>
<path fill-rule="evenodd" clip-rule="evenodd" d="M67.4664 90.4058C66.6601 89.7084 65.6861 88.296 65.7009 86.9336C65.7715 85.9185 66.4689 85.33 66.9191 86.5688C67.5547 87.937 68.92 90.1998 70.8003 88.8728C71.6212 88.2695 71.6095 87.3838 70.4825 87.4839C69.0907 87.3868 68.2373 86.6247 67.6135 84.6532C67.4987 83.5703 67.9519 83.5968 68.5787 84.2942C69.3878 85.2211 70.9974 86.6217 72.7718 85.8714C73.7575 85.4565 74.037 84.6061 72.5452 84.3942C71.1357 84.4148 69.9822 83.4997 68.8376 82.1049C68.2108 81.3311 69.1348 80.5542 69.6939 81.2104C70.1912 81.6371 70.8856 82.4227 71.4829 82.5316C72.1715 82.667 73.0248 82.5993 73.9723 82.0991C74.9934 81.2457 74.6609 80.6278 73.4221 80.4866C72.4628 80.5336 71.939 80.8985 70.7002 80.0717C68.4727 78.568 66.7043 76.5553 66.4277 74.1395C66.2452 72.5506 67.1015 72.068 67.8107 72.2504C69.7439 72.7477 71.0092 76.3611 72.3451 78.3444C72.7835 78.9182 73.1867 78.9241 73.4691 78.7505C74.0076 78.2885 74.4343 77.9118 74.9698 77.3969C74.9698 77.3969 78.904 78.1031 81.0491 78.8034L78.6627 79.6509C77.7593 79.1536 76.6677 79.6891 76.6677 80.5542C75.8114 81.1457 75.882 81.8401 76.2498 82.5081C76.3616 82.0432 76.4587 81.437 77.1355 81.3575C78.1007 81.7577 79.2218 81.1869 79.2218 80.4336L82.0378 79.3272L84.8832 80.9368C84.8832 82.0255 85.9131 82.3698 86.9871 82.0755C87.4932 82.3874 87.8169 82.9347 87.9876 83.5174C88.3054 82.6758 88.2377 82.0844 87.7433 81.6724C88.0288 80.5866 86.5045 79.542 85.3275 80.2364L83.2825 79.0624L86.7841 78.9653C87.1902 79.6832 88.6614 79.7244 89.0881 78.9653C89.4559 78.8652 89.7619 78.8005 90.4799 79.3331C90.2533 78.4739 89.8149 78.1061 89.1616 78.1061C88.6614 77.2203 86.8547 77.2262 86.5958 78.2208L82.947 78.3209L85.1127 76.7819C85.9219 77.2586 87.0548 76.7289 87.2814 75.8609C87.6021 75.4784 87.9993 75.2989 88.7821 75.5578C88.3789 74.8428 87.811 74.6309 86.787 75.1164C85.8513 74.4073 84.6184 75.2665 84.8067 75.9815L81.9289 77.9413C79.8397 77.3175 76.0556 76.3464 76.0556 76.3464C76.5058 75.8727 76.9619 75.4313 77.4151 74.9517C77.5769 74.6721 77.3297 74.3426 76.9855 74.2719C73.6074 73.5746 71.6742 72.2151 70.5031 68.7518C70.0117 67.3011 71.0739 66.8685 71.4358 67.7542C71.939 68.9872 72.4952 70.3348 74.0106 71.3794C74.5343 71.7443 76.0909 71.4471 75.1699 70.5732C74.2165 69.7875 73.8046 69.4491 73.3367 67.5394C73.3367 66.5713 74.3225 66.1358 74.8727 67.0657C75.4612 68.9695 75.523 69.7875 76.5882 71.0146C77.3974 71.9415 78.4508 72.5653 78.9717 72.5506C79.9133 72.5388 80.8578 71.5207 79.6014 70.7821C77.7535 70.0435 77.0767 69.0372 76.806 68.075C76.5088 66.3948 76.8324 65.5826 77.8476 66.4095C79.2836 68.0426 82.026 71.0822 83.462 72.4976C85.0715 73.7305 86.9194 73.7688 88.3878 72.5182C89.2293 71.5501 88.9321 70.5084 87.6139 70.7291C84.6419 70.9792 82.3909 69.505 79.9192 65.515C79.4366 64.6146 79.3012 63.3198 80.3694 64.2821C81.6023 65.9475 83.3972 67.3629 85.0656 67.972C86.7399 68.5752 88.1259 68.2427 88.6614 67.713C89.3088 67.0657 89.1381 65.4385 88.0199 65.8298C87.0989 66.1535 85.8013 66.2359 84.4507 65.7151C83.1 65.1854 81.6964 64.0496 80.2046 62.1193C79.6955 61.0276 79.8603 60.1095 80.8931 60.6686C83.3384 62.7402 86.4898 64.4204 88.0964 63.4111C89.2823 62.6725 89.3029 60.7775 87.7993 60.8981C84.7714 61.3101 83.6267 60.6392 80.7195 58.0733C80.0575 57.579 80.1016 56.3255 81.155 57.1258C83.6003 58.703 86.9342 59.3209 88.2465 58.4941C89.4265 57.7555 89.2529 55.4986 87.2666 56.299C85.6777 57.2671 83.921 57.2406 80.4076 54.7277C79.519 53.9891 80.181 53.0269 80.9108 53.4418C83.7386 55.0543 87.8581 55.7458 88.9321 52.4678C89.35 51.2143 88.5937 50.4816 87.4873 51.3526C85.0568 53.6007 82.3026 52.4972 80.7607 51.3644C80.3193 51.1054 79.5101 49.7872 80.9314 50.0314C84.6125 50.8729 88.2553 50.1403 88.9174 47.5332C89.3029 46.6857 88.5466 45.1909 87.2019 46.4415C85.4335 48.1864 83.5591 48.2482 81.2021 48.2364C80.0016 47.9863 79.9898 46.6651 80.9961 46.468C82.8587 46.5092 84.6919 45.6941 86.1603 44.8702C87.5992 44.0433 88.7879 42.884 89.1675 41.2803C89.4 39.8444 88.0141 38.3231 87.1813 39.8444C85.9484 42.0718 83.2207 44.1699 80.1869 44.5495C80.031 44.2846 79.6308 43.6078 79.1423 43.7991C78.2507 44.1434 77.1914 44.6083 76.0968 45.1262C73.7428 46.2443 72.76 46.7828 73.0425 48.7161C73.3367 50.7317 71.7831 52.0058 70.5001 51.6557C69.379 51.3526 68.7611 50.3433 68.9641 48.5895C69.126 47.1918 70.5296 45.4999 72.1097 44.6142C73.1337 44.0404 74.6785 43.7285 76.5411 43.3136C77.674 43.09 78.2507 42.6486 78.3155 42.1895C78.3155 42.1895 77.5416 42.7545 76.3028 42.6721C75.7172 42.6309 75.3229 42.372 75.1758 42.1101C75.6054 42.0218 76.3881 42.1248 77.0884 42.1248C78.0212 42.116 80.1899 41.91 80.7637 40.5947C80.9432 39.7266 80.3723 39.5736 79.8427 40.1268C79.2718 40.7271 79.0393 41.2656 77.8947 41.4686C77.2003 41.5893 76.5029 41.7335 75.6084 41.5157C76.1115 40.9154 76.9119 40.3063 77.5946 40.4181C77.8182 40.4564 78.1183 40.6624 78.3567 41.0361C78.5038 40.0886 78.2419 39.0175 75.7084 39.4648C75.7496 38.7468 74.2371 38.4349 73.3308 38.4496C72.8159 38.4614 71.7625 38.7674 71.0004 39.1323C69.7939 39.506 68.6022 39.7767 67.1986 39.8767C68.0137 40.5741 68.1667 40.6153 68.9818 41.2038C67.7489 41.6658 66.7984 42.6133 66.3659 43.2341C66.3659 43.2341 67.8048 43.1929 68.1667 43.3548C66.6631 43.7932 65.9863 44.0581 65.1918 44.8702C65.4684 44.9173 65.8862 44.9997 66.0657 45.0673C66.2511 45.135 66.204 45.2586 66.054 45.3734C65.7303 45.6205 64.3914 47.1742 64.0001 47.5479C63.6087 47.1771 62.2699 45.6205 61.9462 45.3734C61.7961 45.2586 61.7461 45.135 61.9344 45.0673C62.1139 44.9997 62.5288 44.9173 62.8084 44.8702C62.0139 44.0581 61.3371 43.7932 59.8335 43.3548C60.1983 43.1929 61.6343 43.2341 61.6343 43.2341C61.2047 42.6103 60.2513 41.6628 59.0184 41.2038C59.8335 40.6153 59.9835 40.5741 60.8015 39.8767C59.398 39.7737 58.2062 39.506 56.9998 39.1323C56.2377 38.7674 55.1843 38.4614 54.6693 38.4496C53.763 38.4349 52.2506 38.7468 52.2918 39.4648C49.7553 39.0175 49.4964 40.0886 49.6435 41.0361C49.8818 40.6653 50.182 40.4564 50.4056 40.4181C51.0883 40.3034 51.8886 40.9184 52.3918 41.5157C51.4973 41.7305 50.8028 41.5893 50.1055 41.4686C48.9638 41.2685 48.7284 40.7271 48.1575 40.1268C47.6278 39.5707 47.0599 39.7266 47.2365 40.5947C47.8103 41.91 49.9789 42.116 50.9117 42.1248C51.612 42.1248 52.3947 42.0218 52.8244 42.1101C52.6772 42.372 52.2829 42.6309 51.6974 42.6721C50.4586 42.7575 49.6847 42.1895 49.6847 42.1895C49.7524 42.6515 50.3261 43.09 51.459 43.3136C53.3216 43.7285 54.8665 44.0404 55.8905 44.6142C57.4735 45.4999 58.8742 47.1918 59.036 48.5895C59.2361 50.3433 58.6182 51.3555 57.5 51.6557C56.2171 52.0088 54.6605 50.7347 54.9577 48.7161C55.2402 46.7828 54.2574 46.2443 51.9033 45.1262C50.8117 44.6083 49.7494 44.1434 48.8578 43.7991C48.3664 43.6078 47.9692 44.2846 47.8132 44.5495C44.7795 44.1699 42.0518 42.0718 40.8188 39.8444C39.9861 38.3201 38.6002 39.8444 38.8326 41.2803C39.2122 42.884 40.401 44.0433 41.8399 44.8702C43.3112 45.697 45.1444 46.5092 47.004 46.468C48.0104 46.6651 47.9986 47.9834 46.7981 48.2364C44.4411 48.2482 42.5667 48.1894 40.7982 46.4415C39.4535 45.188 38.6973 46.6857 39.0827 47.5332C39.7448 50.1403 43.3877 50.87 47.0688 50.0314C48.493 49.7872 47.6808 51.1054 47.2394 51.3644C45.6976 52.4943 42.9433 53.5977 40.5128 51.3526C39.4064 50.4845 38.6502 51.2172 39.068 52.4678C40.1421 55.7458 44.2587 55.0543 47.0894 53.4418C47.8191 53.0269 48.4782 53.9891 47.5925 54.7277C44.0762 57.2406 42.3225 57.2671 40.7335 56.299C38.7473 55.5015 38.5737 57.7555 39.7536 58.4941C41.066 59.3209 44.4028 58.703 46.8451 57.1258C47.8986 56.3255 47.9427 57.579 47.2806 58.0733C44.3734 60.6392 43.2288 61.3101 40.2009 60.8981C38.6973 60.7775 38.7179 62.6725 39.9037 63.4111C41.5133 64.4204 44.6647 62.7402 47.107 60.6686C48.1399 60.1066 48.3076 61.0276 47.7956 62.1193C46.3067 64.0496 44.9031 65.1854 43.5495 65.7151C42.1989 66.2359 40.9012 66.1535 39.9802 65.8298C38.8621 65.4385 38.6914 67.0657 39.3387 67.713C39.8772 68.2398 41.2573 68.5723 42.9345 67.972C44.6029 67.3629 46.3979 65.9475 47.6308 64.2821C48.696 63.3198 48.5665 64.6146 48.081 65.515C45.6122 69.505 43.3612 70.9822 40.3863 70.7291C39.068 70.5055 38.7708 71.5501 39.6124 72.5182C41.0837 73.7717 42.9286 73.7305 44.5382 72.4976C45.9741 71.0822 48.7166 68.0426 50.1525 66.4095C51.1648 65.5826 51.4884 66.3977 51.1942 68.075C50.9205 69.0372 50.2467 70.0465 48.3988 70.7821C47.1423 71.5207 48.0869 72.5358 49.0285 72.5506C49.5523 72.5653 50.6057 71.9415 51.4119 71.0146C52.4771 69.7875 52.5389 68.9695 53.1274 67.0657C53.6777 66.1388 54.6634 66.5713 54.6634 67.5394C54.1926 69.4491 53.7836 69.7875 52.8302 70.5732C51.9092 71.4471 53.4658 71.7443 53.9896 71.3794C55.5079 70.3348 56.0611 68.9901 56.5643 67.7542C56.9292 66.8685 57.9885 67.3011 57.4971 68.7518C56.326 72.2122 54.3927 73.5746 51.0147 74.2719C50.6704 74.3396 50.4203 74.6692 50.5821 74.9487C51.0324 75.4283 51.4884 75.8697 51.9416 76.3435C51.9416 76.3435 48.1546 77.3145 46.0683 77.9383L43.1905 75.9786C43.3759 75.2636 42.1459 74.4073 41.2102 75.1135C40.1832 74.6309 39.6153 74.8428 39.2152 75.5578C39.9979 75.2989 40.3922 75.4784 40.7158 75.8609C40.9424 76.7289 42.0753 77.2586 42.8845 76.7819L45.0502 78.3238L41.4044 78.2208C41.1425 77.2233 39.3358 77.2203 38.8385 78.1061C38.1823 78.1061 37.7439 78.4739 37.5203 79.3331C38.2353 78.8034 38.5443 78.8652 38.9121 78.9653C39.3417 79.7244 40.81 79.6832 41.2161 78.9653L44.7177 79.0624L42.6726 80.2364C41.4956 79.5391 39.9714 80.5866 40.2568 81.6724C39.7595 82.0844 39.6948 82.6787 40.0126 83.5174C40.1832 82.9347 40.5099 82.3904 41.013 82.0755C42.0871 82.3698 43.117 82.0255 43.117 80.9368L45.9624 79.3272L48.7784 80.4336C48.7784 81.1869 49.9024 81.7548 50.8646 81.3575C51.5385 81.4399 51.6356 82.0432 51.7503 82.5081C52.1181 81.8401 52.1888 81.1457 51.3325 80.5542C51.3325 79.6891 50.2408 79.1506 49.3375 79.6509L46.9511 78.8034C49.0962 78.106 53.0303 77.3969 53.0303 77.3969C53.5688 77.9118 53.9955 78.2885 54.531 78.7505C54.8164 78.927 55.2166 78.9182 55.6551 78.3444C56.991 76.3582 58.2592 72.7448 60.1895 72.2504C60.9016 72.068 61.7549 72.5476 61.5725 74.1395C61.2959 76.5583 59.5274 78.568 57.2999 80.0717C56.0611 80.8985 55.5403 80.5336 54.5781 80.4866C53.3393 80.6278 53.0097 81.2457 54.0278 82.0991C54.9753 82.5993 55.8287 82.667 56.5172 82.5316C57.1116 82.4227 57.809 81.6371 58.3063 81.2104C58.8624 80.5542 59.7893 81.3311 59.1626 82.1049C58.0179 83.4997 56.8644 84.4148 55.455 84.3942C53.9661 84.6032 54.2427 85.4565 55.2284 85.8714C57.0027 86.6217 58.6123 85.2211 59.4215 84.2942C60.0483 83.5968 60.5014 83.5703 60.3867 84.6532C59.7628 86.6247 58.9095 87.3868 57.5177 87.4839C56.3907 87.3809 56.3789 88.2695 57.1999 88.8728C59.0802 90.1998 60.4426 87.937 61.0811 86.5688C61.5313 85.33 62.2257 85.9185 62.2993 86.9336C62.3111 88.296 61.3371 89.7084 60.5338 90.4058C59.7275 91.1061 64.0001 95.5405 64.0001 95.5405C64.0001 95.5405 68.2726 91.1061 67.4664 90.4058ZM73.1925 40.1798C72.5275 40.1798 72.1156 40.4123 72.1156 40.6947C72.1156 40.9831 72.5275 41.2156 73.1925 41.2156C73.8517 41.2156 74.2724 40.9596 74.2724 40.6741C74.2724 40.3917 73.8546 40.1798 73.1925 40.1798ZM54.8047 40.1798C55.4697 40.1798 55.8816 40.4123 55.8816 40.6947C55.8816 40.9831 55.4697 41.2156 54.8047 41.2156C54.1455 41.2156 53.7248 40.9596 53.7248 40.6741C53.7248 40.3917 54.1455 40.1798 54.8047 40.1798Z" fill="#424242"/>
</g>
<defs>
<clipPath id="clip0_4935_15127">
<rect y="20" width="128" height="88.2759" rx="2" fill="white"/>
</clipPath>
</defs>
</svg>
