<svg width="128" height="128" viewBox="0 0 128 128" fill="none" xmlns="http://www.w3.org/2000/svg">
<g clip-path="url(#clip0_4935_18339)">
<path d="M-0.735596 20V64.1379V108.276H128.736V64.1379V20H-0.735596Z" fill="#FF3D00"/>
<path d="M-0.735596 20V64.1379V108.276H52.2299V64.1379V20H-0.735596Z" fill="#2E7D32"/>
<path d="M70.5765 78.571C63.5027 78.3592 31.0613 58.1881 30.8376 54.9749L32.6296 52C35.8488 56.658 69.014 76.2729 72.2714 75.5785L70.5765 78.571Z" fill="#FFFF00"/>
<path d="M70.5766 78.6358C66.8042 78.524 56.114 72.8096 48.1015 67.9544C39.8389 62.9463 30.8907 56.7493 30.77 54.9779C30.77 54.9632 30.773 54.9514 30.7788 54.9396L32.5708 51.9647C32.5826 51.9441 32.6032 51.9324 32.6268 51.9324C32.6503 51.9324 32.6709 51.9412 32.6827 51.9618C34.3305 54.3482 43.8084 60.6011 52.4682 65.7387C62.6847 71.8003 70.812 75.8169 72.2538 75.5138C72.2803 75.5079 72.3068 75.5197 72.3215 75.5403C72.3362 75.5609 72.3391 75.5903 72.3274 75.6138L70.6383 78.5976C70.6295 78.6182 70.606 78.6358 70.5766 78.6358ZM30.9054 54.9897C31.0702 56.4698 38.3117 61.8605 48.1721 67.8397C56.1405 72.6713 66.7571 78.3475 70.5383 78.5005L72.1479 75.658C70.1057 75.758 60.8515 70.8646 52.4035 65.8505C43.8319 60.7629 34.4541 54.5807 32.6385 52.1178L30.9054 54.9897Z" fill="black"/>
<path d="M32.253 51.594C31.6174 53.2948 40.7187 58.9003 51.6678 65.5327C62.617 72.1652 72.0566 76.2641 72.7569 75.6756C72.801 75.5991 73.1012 75.0842 73.0747 75.0871C72.9423 75.2843 72.6245 75.3461 72.1272 75.2019C69.17 74.3515 61.4547 70.8234 51.9003 65.0531C42.3459 59.2799 34.0332 53.9627 32.7415 51.7029C32.6502 51.5469 32.5885 51.2615 32.6002 51.0378H32.5679L32.2942 51.5175L32.253 51.594ZM70.7442 78.6623C70.6236 78.8801 70.3999 78.8859 69.9762 78.8389C67.3309 78.5475 59.3007 74.6575 49.7993 68.9932C38.7442 62.4019 29.6136 56.3932 30.6022 54.8249L30.873 54.3511L30.9259 54.3688C30.0343 57.0288 48.946 67.8014 50.0582 68.487C61.0015 75.2401 70.2263 79.1831 71.0414 78.1591L70.7442 78.6623Z" fill="#FFFF00"/>
<path d="M70.3088 78.933C70.2088 78.933 70.094 78.9213 69.9675 78.9095C67.2692 78.6123 59.1508 74.6517 49.7641 69.052C37.2201 61.5721 30.9142 57.0701 30.4876 55.2869C30.4405 55.0927 30.4611 54.9249 30.5464 54.7896L30.8142 54.3188C30.8289 54.2923 30.8613 54.2776 30.8936 54.2894L30.9466 54.307C30.9643 54.3129 30.979 54.3247 30.9849 54.3394C30.9937 54.3541 30.9937 54.3747 30.9878 54.3923C30.6936 55.2751 32.6856 58.2147 49.3521 67.9957C49.7317 68.2193 49.9907 68.3694 50.0936 68.4341C60.8957 75.0989 70.197 79.1155 70.9885 78.1209C71.0091 78.0944 71.0503 78.0856 71.0798 78.1062C71.1092 78.1268 71.118 78.165 71.1004 78.1945L70.8032 78.7035H70.7973C70.6943 78.8801 70.5325 78.933 70.3088 78.933ZM30.826 54.563L30.6582 54.8573C30.5906 54.9661 30.5759 55.0956 30.6141 55.2545C31.0349 56.9994 37.3201 61.475 49.8318 68.9343C59.2037 74.5222 67.3016 78.4769 69.9822 78.7712C70.3971 78.8153 70.5854 78.8065 70.6855 78.627L70.6884 78.6211L70.8591 78.3269C70.7679 78.3504 70.656 78.3622 70.5266 78.3622C68.2196 78.3622 59.854 74.6016 50.023 68.5341C49.92 68.4694 49.664 68.3193 49.2845 68.0986C37.0376 60.9189 30.8348 56.3697 30.826 54.563ZM72.5422 75.7904C70.812 75.7904 61.9197 71.8239 51.6326 65.5916C39.8507 58.453 31.5557 53.2683 32.1913 51.5734C32.1913 51.5705 32.1942 51.5675 32.1942 51.5675L32.2325 51.491L32.5091 51.0084C32.5209 50.9878 32.5444 50.9761 32.5679 50.9761H32.6003C32.618 50.9761 32.6356 50.9849 32.6474 50.9967C32.6592 51.0114 32.6651 51.029 32.6651 51.0467C32.6533 51.2497 32.7121 51.5234 32.7975 51.6735C34.1657 54.0657 43.7407 60.0508 51.9327 65.0002C60.9163 70.4262 68.8993 74.2103 72.145 75.1431C72.5805 75.2666 72.8982 75.2372 73.0189 75.0548C73.0277 75.0401 73.0454 75.0283 73.063 75.0254C73.0895 75.0224 73.116 75.0342 73.1307 75.0548C73.1601 75.0989 73.166 75.1048 72.8512 75.6521L72.8159 75.7139C72.8129 75.7198 72.807 75.7257 72.8011 75.7316C72.7511 75.7698 72.6628 75.7904 72.5422 75.7904ZM32.3119 51.6234C31.694 53.3566 42.3224 59.7948 51.7003 65.4769C62.9496 72.2917 72.0067 76.1229 72.704 75.6345L72.7335 75.5844C72.7953 75.4756 72.8482 75.3814 72.8894 75.3078C72.6982 75.3755 72.4304 75.3638 72.1038 75.2725C68.8523 74.3368 60.8545 70.5498 51.8592 65.1179C43.6554 60.1626 34.0598 54.1628 32.6768 51.7441C32.6033 51.6175 32.5503 51.4204 32.5326 51.235L32.3119 51.6234Z" fill="black"/>
<path d="M52.2947 56.9198C59.3744 56.8639 68.1137 55.9547 73.1425 53.9596L72.0597 52.2059C69.0877 53.8449 60.3013 54.9218 52.2358 55.0837C42.6962 54.9954 35.9637 54.1126 32.5886 51.8557L31.5646 53.7242C37.7674 56.3372 44.1203 56.8933 52.2947 56.9198Z" fill="#FFFF00"/>
<path d="M52.2946 56.9877C44.1055 56.9612 37.7761 56.4168 31.538 53.7862C31.5203 53.7803 31.5085 53.7656 31.4997 53.748C31.4938 53.7303 31.4938 53.7097 31.5056 53.695L32.5296 51.8265C32.5384 51.8088 32.5531 51.7971 32.5737 51.7941C32.5914 51.7882 32.612 51.7941 32.6267 51.8029C35.7693 53.9039 42.0016 54.925 52.2387 55.0191C59.5273 54.872 68.8316 53.9127 72.0301 52.1502C72.0625 52.1325 72.1007 52.1443 72.1184 52.1737L73.2012 53.9275C73.2101 53.9451 73.213 53.9657 73.2071 53.9834C73.2012 54.001 73.1865 54.0157 73.1689 54.0246C67.8635 56.1314 58.9123 56.9377 52.3005 56.9906L52.2946 56.9877ZM31.6586 53.692C37.8526 56.2874 44.1496 56.8288 52.2916 56.8553H52.2946C58.8623 56.8023 67.7458 56.0078 73.0453 53.9304L72.036 52.3002C68.7668 54.054 59.5008 55.0103 52.2357 55.1545C42.034 55.0603 35.7958 54.0452 32.612 51.956L31.6586 53.692Z" fill="black"/>
<path d="M73.4337 54.001C73.2601 54.2776 69.9822 55.4046 65.1505 56.2344C61.8755 56.7317 57.6029 57.1583 52.2681 57.1613C47.2011 57.1672 43.0639 56.8082 39.9301 56.3844C34.8572 55.5929 32.2413 54.4895 31.2732 54.101C31.3644 53.9186 31.4262 53.7891 31.5145 53.6185C34.3011 54.7219 36.9287 55.3899 40.0096 55.8607C43.1228 56.2815 47.2099 56.6463 52.2505 56.6404C57.5588 56.6346 61.7843 56.1785 65.0417 55.6959C69.9969 54.8985 72.7011 53.8745 73.0836 53.4007L73.4337 54.001ZM72.4833 52.2208C71.9478 52.6504 69.2701 53.5949 64.562 54.3453C61.4194 54.7925 57.4264 55.1957 52.3211 55.2015C47.4718 55.2074 43.5112 54.8808 40.498 54.4424C35.7164 53.8215 33.1741 52.6975 32.256 52.3708C32.3472 52.2149 32.4414 52.0589 32.5355 51.9C33.2506 52.259 35.7046 53.2507 40.551 53.9333C43.5288 54.3541 47.4983 54.669 52.3211 54.6631C57.3999 54.6572 61.3488 54.2482 64.4708 53.8039C69.2024 53.1565 71.7477 51.9501 72.1361 51.647L72.4833 52.2208Z" fill="#FFFF00"/>
<path d="M52.1681 57.2289C47.8661 57.2289 43.7465 56.967 39.9213 56.452C35.0131 55.687 32.3531 54.61 31.3526 54.2069L31.2496 54.1627C31.232 54.1569 31.2173 54.1421 31.2114 54.1245C31.2055 54.1068 31.2055 54.0862 31.2143 54.0715C31.2526 53.998 31.2849 53.9332 31.3144 53.8685C31.3585 53.7773 31.4026 53.689 31.4556 53.586C31.4703 53.5566 31.5086 53.5419 31.5409 53.5536C34.2098 54.6129 36.8257 55.3015 40.0213 55.7929C43.8525 56.3108 47.9367 56.5727 52.1592 56.5727C52.1916 56.5727 52.221 56.5727 52.2534 56.5727C56.5907 56.5697 60.772 56.2578 65.0328 55.6281C69.9262 54.8425 72.654 53.8273 73.0306 53.3565C73.0453 53.3388 73.063 53.33 73.0894 53.33C73.11 53.3329 73.1306 53.3447 73.1424 53.3624L73.4926 53.9626C73.5043 53.9832 73.5043 54.0097 73.4926 54.0303C73.4896 54.0362 73.4867 54.0392 73.4837 54.0421C73.216 54.3746 69.838 55.4898 65.1623 56.2961C61.134 56.9081 56.7967 57.22 52.2711 57.2259C52.2357 57.2289 52.2004 57.2289 52.1681 57.2289ZM31.3673 54.0656L31.4056 54.0804C32.4031 54.4835 35.0514 55.5546 39.9419 56.3167C43.7583 56.8316 47.8749 57.0935 52.1681 57.0935C52.2004 57.0935 52.2357 57.0935 52.2681 57.0935C56.7878 57.0906 61.1163 56.7787 65.1387 56.1666C69.9233 55.3427 73.0159 54.2628 73.3513 53.9891L73.0718 53.5066C72.5304 53.9891 70.0145 54.9631 65.0563 55.7576C60.7867 56.3902 56.5995 56.6992 52.2563 56.7051C47.9867 56.711 43.8731 56.4461 40.0037 55.9253C36.8198 55.4369 34.2098 54.7512 31.5498 53.7008C31.5086 53.7802 31.4733 53.8508 31.438 53.9244C31.4144 53.9715 31.3909 54.0156 31.3673 54.0656ZM52.224 55.2662C47.9691 55.2662 43.9143 55.0043 40.4921 54.507C36.2608 53.9568 33.8037 53.024 32.6238 52.5767C32.4737 52.5179 32.3443 52.4708 32.2383 52.4325C32.2207 52.4266 32.206 52.4119 32.1971 52.3913C32.1883 52.3707 32.1912 52.3531 32.203 52.3354C32.2942 52.1765 32.3884 52.0206 32.4825 51.8646C32.5002 51.8352 32.5385 51.8234 32.5708 51.8381C32.9887 52.0471 35.3339 53.127 40.5657 53.8655C42.9256 54.1981 46.8539 54.5953 52.2151 54.5953C52.2534 54.5953 52.2887 54.5953 52.327 54.5953C57.856 54.5894 61.902 54.1009 64.4678 53.7361C68.9934 53.1152 71.6447 51.95 72.1008 51.5939C72.1155 51.5821 72.1361 51.5763 72.1537 51.5821C72.1714 51.5851 72.189 51.5969 72.1979 51.6145L72.5421 52.1854C72.548 52.1971 72.551 52.2089 72.551 52.2089C72.551 52.2413 72.5421 52.2619 72.5245 52.2736C71.9978 52.6944 69.373 53.6478 64.5738 54.4099C60.569 54.9808 56.5613 55.2603 52.324 55.2662C52.2887 55.2662 52.2563 55.2662 52.224 55.2662ZM32.356 52.3354C32.4472 52.3678 32.5502 52.409 32.6709 52.4531C33.8479 52.9004 36.2931 53.8273 40.5098 54.3746C43.926 54.8689 47.975 55.1308 52.224 55.1308C52.2563 55.1308 52.2917 55.1308 52.324 55.1308C56.5554 55.1279 60.5572 54.8484 64.5532 54.2775C69.1994 53.5389 71.783 52.6297 72.395 52.203L72.1184 51.744C71.6035 52.0824 69.1582 53.23 64.4825 53.8685C61.9137 54.2363 57.8589 54.7248 52.324 54.7306C52.2858 54.7306 52.2505 54.7306 52.2122 54.7306C46.8421 54.7306 42.905 54.3334 40.5421 54.0009C35.4869 53.2888 33.1093 52.253 32.562 51.9882C32.4943 52.103 32.4237 52.2207 32.356 52.3354Z" fill="black"/>
<path d="M29.0428 65.4179C33.3977 67.7514 43.0728 68.9284 52.227 69.0078C60.5632 69.0196 71.4211 67.7249 75.4818 65.5798L75.37 63.2434C74.0988 65.2208 62.464 67.1187 52.1387 67.0393C41.8134 66.9628 32.2237 65.3738 29.0281 63.317L29.0428 65.4179Z" fill="#FFFF00"/>
<path d="M52.3476 69.0756C52.3064 69.0756 52.2652 69.0756 52.224 69.0756C44.1144 69.0049 33.7567 68.0221 29.0104 65.4768C28.9868 65.4651 28.9751 65.4386 28.9751 65.4151L28.9574 63.32C28.9574 63.2964 28.9692 63.2729 28.9927 63.2611C29.0133 63.2494 29.0398 63.2494 29.0604 63.2641C32.2854 65.3385 41.9899 66.901 52.1357 66.9775C62.3669 67.0482 74.0634 65.1532 75.3111 63.2111C75.3258 63.1876 75.3581 63.1758 75.3846 63.1817C75.414 63.1905 75.4317 63.214 75.4346 63.2435L75.5465 65.5798C75.5465 65.6063 75.5347 65.6299 75.5111 65.6416C71.4269 67.7956 60.5572 69.0756 52.3476 69.0756ZM29.1075 65.3797C33.8508 67.8986 44.1497 68.8725 52.224 68.9431C60.4013 68.9549 71.2945 67.6896 75.4082 65.5445L75.3081 63.4347C73.5602 65.3886 62.3286 67.1894 52.1328 67.1129C42.0722 67.0364 32.4355 65.5004 29.0898 63.4465L29.1075 65.3797Z" fill="black"/>
<path d="M75.6995 65.0824V65.6386C75.0904 66.3654 71.2622 67.4629 66.4629 68.2368C62.8112 68.7959 58.0502 69.2167 52.1151 69.2167C46.4772 69.2167 41.984 68.8165 38.4971 68.2839C32.9858 67.4835 29.4635 66.0858 28.7544 65.668L28.7573 65.0177C30.8818 66.4242 36.6404 67.4541 38.5736 67.7689C42.037 68.2986 46.5037 68.6958 52.1122 68.6958C58.0178 68.6958 62.7524 68.278 66.3805 67.7248C69.8292 67.2275 74.7343 65.9416 75.6995 65.0824ZM75.7024 63.1021V63.6582C75.0933 64.385 71.2651 65.4826 66.4658 66.2565C62.8142 66.8156 58.0532 67.2363 52.1181 67.2363C46.4802 67.2363 41.9869 66.8362 38.5 66.3036C32.9887 65.5061 29.4665 64.1055 28.7573 63.6877L28.7603 63.0374C30.8848 64.4439 36.6433 65.4738 38.5766 65.7886C42.0399 66.3183 46.5067 66.7155 52.1151 66.7155C58.0208 66.7155 62.7553 66.2977 66.3834 65.7415C69.8321 65.2472 74.7373 63.9584 75.7024 63.1021Z" fill="#FFFF00"/>
<path d="M52.1181 69.2843C47.1305 69.2843 42.5461 68.9695 38.4912 68.3515C33.2153 67.5865 29.5754 66.227 28.725 65.7268C28.7044 65.715 28.6926 65.6915 28.6926 65.6679L28.6956 65.0176C28.6956 64.9941 28.7103 64.9706 28.7309 64.9588C28.7515 64.947 28.778 64.947 28.7986 64.9617C30.9289 66.3742 36.8317 67.4158 38.5884 67.7042C42.6049 68.3192 47.157 68.6311 52.1181 68.6311C57.3587 68.6311 62.1551 68.3045 66.3776 67.66C69.7939 67.1686 74.6902 65.8886 75.6554 65.0353C75.673 65.0206 75.6936 65.0147 75.7172 65.0176C75.7466 65.0235 75.7701 65.053 75.7701 65.0824V65.6385C75.7701 65.6532 75.7643 65.6679 75.7554 65.6827C75.1228 66.4389 71.221 67.5394 66.4776 68.3045C62.2198 68.9548 57.3911 69.2843 52.1181 69.2843ZM28.825 65.6297C29.4547 65.9799 32.8416 67.3952 38.5089 68.2191C42.5578 68.837 47.1335 69.1519 52.1152 69.1519C57.3793 69.1519 62.2051 68.8223 66.4512 68.175C71.0503 67.4335 74.9757 66.3388 75.6289 65.6179V65.2266C74.4342 66.0917 69.7115 67.3187 66.3923 67.7954C62.1639 68.4398 57.3587 68.7694 52.1122 68.7694C47.1452 68.7694 42.5872 68.4575 38.5619 67.8425C36.8228 67.56 31.0555 66.5389 28.8221 65.1471L28.825 65.6297ZM52.121 67.3011C47.1276 67.3011 42.5431 66.9862 38.4942 66.3683C33.2182 65.6032 29.5783 64.2467 28.7279 63.7435C28.7073 63.7318 28.6956 63.7082 28.6956 63.7082L28.6985 63.0344C28.6985 63.0108 28.7132 62.9873 28.7338 62.9755C28.7544 62.9638 28.7809 62.9638 28.8015 62.9785C30.9348 64.3909 36.8346 65.4325 38.5913 65.7209C42.6078 66.3359 47.1599 66.6478 52.121 66.6478C57.3617 66.6478 62.1609 66.3212 66.3805 65.6768C69.7998 65.1854 74.6991 63.9054 75.6583 63.052C75.673 63.0373 75.6966 63.0314 75.7142 63.0373C75.7348 63.0403 75.7525 63.055 75.7613 63.0726C75.7672 63.0815 75.7701 63.0903 75.7701 63.1021V63.6582C75.7701 63.6582 75.7643 63.6876 75.7554 63.7023C75.1228 64.4556 71.221 65.5591 66.4806 66.3241C62.2257 66.9715 57.394 67.3011 52.121 67.3011ZM28.828 63.6464C29.4577 63.9966 32.8445 65.4119 38.5118 66.2359C42.5549 66.8538 47.1335 67.1686 52.1181 67.1686C57.3852 67.1686 62.208 66.8391 66.4541 66.1917C71.0533 65.4502 74.9786 64.3556 75.6318 63.6347V63.2404C74.4372 64.1055 69.7144 65.3325 66.3952 65.8092C62.1698 66.4536 57.3646 66.7832 52.1152 66.7832C47.1482 66.7832 42.5902 66.4713 38.5648 65.8563C36.8287 65.5738 31.0614 64.5557 28.825 63.1609L28.828 63.6464Z" fill="black"/>
<path d="M52.2035 78.168C42.1871 78.1092 33.6037 75.4491 31.7911 75.0077L33.1123 77.0675C36.3138 78.4093 44.6853 80.4073 52.2976 80.1866C59.9099 79.9659 66.563 79.3774 71.2504 77.1058L72.6069 74.9695C69.4143 76.4702 58.5417 78.1533 52.2035 78.168Z" fill="#FFFF00"/>
<path d="M51.1294 80.2718C43.9466 80.2718 36.2343 78.4475 33.0917 77.1292C33.0799 77.1233 33.0681 77.1145 33.0622 77.1027L31.741 75.043C31.7263 75.0194 31.7263 74.99 31.744 74.9694C31.7587 74.9459 31.7881 74.937 31.8146 74.9429C32.0294 74.9959 32.3413 75.0783 32.7356 75.1842C35.6487 75.9669 43.3876 78.0473 52.2093 78.1002C58.5857 78.0855 69.4378 76.3847 72.5833 74.9105C72.6098 74.8988 72.6422 74.9047 72.6628 74.9253C72.6834 74.9488 72.6863 74.9812 72.6687 75.0047L71.3151 77.141C71.3092 77.1528 71.2975 77.1586 71.2886 77.1645C66.3981 79.5362 59.2772 80.0511 52.3093 80.2542C51.915 80.2689 51.5207 80.2718 51.1294 80.2718ZM33.1593 77.0174C36.4756 78.4004 44.8294 80.3366 52.2975 80.1247C59.2419 79.9217 66.3363 79.4126 71.2062 77.0586L72.4333 75.1253C69.0346 76.5848 58.4651 78.2209 52.2063 78.2356C43.367 78.1826 35.6134 76.0993 32.6974 75.3166C32.3943 75.2342 32.1412 75.1665 31.9441 75.1165L33.1593 77.0174Z" fill="black"/>
<path d="M71.7624 76.629C71.5623 76.9321 71.3593 77.2322 71.1533 77.5236C68.9435 78.3004 65.4595 79.1155 63.9883 79.3538C60.9839 79.9688 56.3377 80.4249 52.2152 80.4278C43.3405 80.2984 36.0784 78.5682 32.6621 77.091L32.3855 76.6202L32.4296 76.5496L32.8975 76.7291C38.9738 78.8948 45.7975 79.7599 52.2652 79.9129C56.373 79.9276 60.4837 79.445 63.8088 78.8506C68.9082 77.8325 70.9679 77.0675 71.6006 76.7173L71.7624 76.629ZM72.9365 74.6987C72.9424 74.7046 72.9483 74.7105 72.9512 74.7164C72.8011 74.9665 72.6481 75.2225 72.4922 75.4785C71.3122 75.8993 68.1137 76.8321 63.438 77.4824C60.3601 77.9002 58.4445 78.3063 52.3182 78.424C40.8394 78.1327 33.4066 75.8963 31.641 75.3461L31.3792 74.8459C38.0322 76.5761 44.8265 77.7825 52.3182 77.9061C57.9237 77.7884 60.3072 77.3764 63.3615 76.9615C68.8111 76.117 71.5564 75.2225 72.3803 74.9665C72.3686 74.9518 72.3568 74.9371 72.345 74.9194L72.9365 74.6987Z" fill="#FFFF00"/>
<path d="M52.2151 80.4896C43.1669 80.3572 36.0136 78.6064 32.6355 77.1498C32.6238 77.1439 32.612 77.1351 32.6061 77.1233L32.3295 76.6525C32.3178 76.6319 32.3178 76.6054 32.3295 76.5848L32.3737 76.5142C32.3913 76.4877 32.4237 76.4789 32.4502 76.4877L32.918 76.6672C38.3411 78.6005 44.85 79.6686 52.2622 79.8481C56.779 79.8687 61.028 79.2802 63.794 78.7888C69.4848 77.653 71.1827 76.8761 71.5681 76.6643L71.727 76.576C71.7535 76.5613 71.7859 76.5672 71.8065 76.5878C71.8271 76.6084 71.83 76.6407 71.8124 76.6672C71.6064 76.9821 71.4004 77.2822 71.2033 77.5618C71.1944 77.5735 71.1856 77.5824 71.1709 77.5853C68.9728 78.3562 65.5095 79.1713 63.9941 79.4185C60.8779 80.057 56.1405 80.4896 52.2151 80.4896ZM32.7062 77.0409C36.3461 78.6064 43.7818 80.2395 52.2151 80.363C56.1346 80.3601 60.8603 79.9305 63.9735 79.292C65.483 79.0477 68.9199 78.2385 71.1121 77.4705C71.2592 77.2616 71.4092 77.0409 71.5623 76.8144C71.062 77.0704 69.2435 77.8354 63.8205 78.9183C61.0486 79.4126 56.7966 79.9923 52.2652 79.9805C44.8353 79.801 38.3146 78.7299 32.8768 76.7908L32.4678 76.6319L32.7062 77.0409ZM52.3211 78.4857C42.0634 78.2268 34.9513 76.4436 31.6233 75.4049C31.6057 75.399 31.5939 75.3872 31.5851 75.3725L31.3232 74.8723C31.3114 74.8487 31.3144 74.8223 31.3291 74.8017C31.3438 74.7811 31.3703 74.7722 31.3967 74.7811C39.0002 76.7584 45.6474 77.7295 52.3181 77.8384C57.3145 77.7324 59.7745 77.3911 62.3845 77.0292C62.7023 76.985 63.023 76.9409 63.3526 76.8967C68.6138 76.0817 71.3681 75.2166 72.2714 74.9311L72.2802 74.9282C72.2802 74.9194 72.2802 74.9105 72.2802 74.9017C72.2861 74.8811 72.3008 74.8664 72.3185 74.8576L72.9099 74.6369C72.9394 74.6251 72.9717 74.6369 72.9864 74.6634L72.9953 74.6751C73.0129 74.6957 73.0129 74.7252 73.0012 74.7487C72.8511 74.9988 72.6981 75.2548 72.5421 75.5108C72.5333 75.5226 72.5215 75.5344 72.5098 75.5373C70.9267 76.1023 67.6046 76.9644 63.4438 77.5441C62.9907 77.6059 62.5611 77.6677 62.1403 77.7265C59.6774 78.0826 57.547 78.3857 52.3211 78.4857ZM31.6881 75.2901C35.019 76.3288 42.1075 78.0973 52.3211 78.3562C57.5382 78.2562 59.6627 77.9502 62.1256 77.6C62.5464 77.5412 62.976 77.4794 63.4291 77.4176C67.5604 76.8408 70.8619 75.9875 72.448 75.4255C72.5745 75.2195 72.6981 75.0135 72.8217 74.8105L72.445 74.9517C72.448 74.9635 72.448 74.9753 72.4421 74.987C72.4362 75.0076 72.4215 75.0224 72.4009 75.0282L72.3126 75.0577C71.4063 75.3431 68.6433 76.2111 63.3732 77.0262C63.0436 77.0704 62.7229 77.1145 62.4051 77.1586C59.7951 77.5206 57.3263 77.8648 52.324 77.9708C45.6798 77.8619 39.062 76.8997 31.5086 74.9429L31.6881 75.2901Z" fill="black"/>
<path d="M52.171 41.1008C39.4122 41.1008 29.0045 51.4438 29.0045 64.1261C29.0045 76.8084 39.4122 87.1514 52.171 87.1514C64.9299 87.1514 75.4258 76.8084 75.4258 64.1261C75.4229 51.4438 64.9299 41.1008 52.171 41.1008ZM67.0014 78.6269C63.1585 82.3021 58.0649 84.6679 52.1151 84.7768C45.4709 84.8974 39.2063 80.5837 37.5261 78.6887C34.2422 74.9841 31.5675 70.2789 31.4792 63.9349C31.8853 56.7727 34.7101 51.7822 38.8002 48.3601C42.8933 44.9379 48.3428 43.2724 52.8802 43.3901C58.115 43.5284 64.2325 46.0855 68.4579 51.1643C71.2269 54.4923 72.4245 58.1028 73.0542 63.5729C73.0895 70.1377 69.7173 76.0286 67.0014 78.6269Z" fill="#FFFF00"/>
<path d="M52.2328 87.2869C39.4093 87.2869 28.978 76.8939 28.978 64.1204C28.978 51.3469 39.4093 40.9539 52.2328 40.9539C65.0564 40.9539 75.4876 51.3469 75.4876 64.1204C75.4876 76.8939 65.0564 87.2869 52.2328 87.2869ZM52.2328 41.0892C39.4858 41.0892 29.1134 51.4204 29.1134 64.1204C29.1134 76.8203 39.4858 87.1516 52.2328 87.1516C64.9799 87.1516 75.3523 76.8203 75.3523 64.1204C75.3523 51.4204 64.9799 41.0892 52.2328 41.0892ZM52.2328 86.7808C46.1977 86.7808 40.498 84.4179 36.1843 80.1248C31.8676 75.8287 29.49 70.1467 29.49 64.1233C29.49 58.1 31.8676 52.4179 36.1843 48.1219C40.498 43.8287 46.1977 41.4659 52.2328 41.4659C58.268 41.4659 63.9676 43.8287 68.2814 48.1219C72.5981 52.4179 74.9756 58.1 74.9756 64.1233C74.9756 70.1467 72.5981 75.8287 68.2814 80.1248C63.9676 84.415 58.268 86.7808 52.2328 86.7808ZM52.2328 41.5983C39.7653 41.5983 29.6224 51.7029 29.6224 64.1233C29.6224 76.5437 39.7653 86.6484 52.2328 86.6484C64.7003 86.6484 74.8432 76.5437 74.8432 64.1233C74.8432 51.7029 64.7003 41.5983 52.2328 41.5983Z" fill="black"/>
<path d="M52.2504 85.3271C46.5949 85.3271 41.2572 83.1114 37.2171 79.0919C33.1711 75.0665 30.9465 69.7435 30.9465 64.1026C30.9465 58.4618 33.174 53.1358 37.2171 49.1134C41.2572 45.0939 46.5978 42.8782 52.2504 42.8782C57.906 42.8782 63.2437 45.0939 67.2838 49.1134C71.3269 53.1388 73.5543 58.4618 73.5543 64.1026C73.5543 69.7435 71.3269 75.0694 67.2838 79.0919C63.2437 83.1114 57.906 85.3271 52.2504 85.3271ZM52.2504 43.0106C40.5774 43.0106 31.0789 52.4738 31.0789 64.1026C31.0789 75.7315 40.5774 85.1947 52.2504 85.1947C63.9235 85.1947 73.4219 75.7315 73.4219 64.1026C73.4249 52.4708 63.9264 43.0106 52.2504 43.0106ZM52.2504 84.818C46.7303 84.818 41.519 82.6582 37.5761 78.7329C33.6272 74.8046 31.4556 69.6081 31.4556 64.1026C31.4556 58.5942 33.6301 53.4007 37.5761 49.4724C41.519 45.5471 46.7303 43.3872 52.2504 43.3872C57.7706 43.3872 62.9818 45.55 66.9248 49.4724C70.8737 53.4007 73.0453 58.5972 73.0453 64.1026C73.0453 69.6081 70.8708 74.8046 66.9248 78.7329C62.9818 82.6582 57.7706 84.818 52.2504 84.818ZM52.2504 43.5167C40.857 43.5167 31.588 52.7504 31.588 64.0997C31.588 75.449 40.857 84.6827 52.2504 84.6827C63.6439 84.6827 72.9129 75.449 72.9129 64.0997C72.9129 52.7504 63.6439 43.5167 52.2504 43.5167Z" fill="black"/>
<path d="M53.1862 40.9302H51.2L51.2029 87.3427H53.1979L53.1862 40.9302Z" fill="#FFFF00"/>
<path d="M53.195 87.4075H51.2C51.1618 87.4075 51.1323 87.3781 51.1323 87.3398L51.1294 40.9273C51.1294 40.9273 51.1353 40.892 51.15 40.8802C51.1647 40.8684 51.1794 40.8596 51.1971 40.8596H53.1833C53.2215 40.8596 53.251 40.889 53.251 40.9273L53.2598 87.3398C53.2598 87.3398 53.2539 87.3751 53.2392 87.3869C53.2304 87.4016 53.2127 87.4075 53.195 87.4075ZM51.2677 87.2751H53.1274L53.1185 40.9979H51.2648L51.2677 87.2751Z" fill="black"/>
<path d="M52.9861 40.6653H53.4923L53.4952 87.6104H52.9891L52.9861 40.6653ZM51.0146 40.6653H51.5237V87.6104H51.0146V40.6653Z" fill="#FFFF00"/>
<path d="M51.5267 87.6782H51.0176C50.9794 87.6782 50.95 87.6488 50.95 87.6105V40.6713V40.6654C50.95 40.6271 50.9823 40.5889 51.0176 40.5977H51.5267C51.5649 40.5977 51.5944 40.6271 51.5944 40.6654V87.6105C51.5944 87.6105 51.5885 87.6458 51.5738 87.6576C51.5591 87.6723 51.5443 87.6782 51.5267 87.6782ZM51.0824 87.5458H51.459V40.7331H51.0824V87.5458ZM53.4982 87.6782H52.9921C52.9538 87.6782 52.9244 87.6488 52.9244 87.6105L52.9214 40.6654C52.9214 40.6654 52.9273 40.6301 52.942 40.6183C52.9509 40.6065 52.9685 40.5977 52.9862 40.5977H53.4923C53.5305 40.5977 53.56 40.6271 53.56 40.6654L53.5629 87.6105C53.5629 87.6105 53.557 87.6458 53.5423 87.6576C53.5305 87.6693 53.5158 87.6782 53.4982 87.6782ZM53.0568 87.5428H53.4276L53.4246 40.7301H53.0539L53.0568 87.5428Z" fill="black"/>
<path d="M75.4347 65.0147V63.2992L74.0311 61.9986L66.0686 59.9006L54.5927 58.7354L40.7746 59.4357L30.9377 61.7691L28.9515 63.2345V64.95L33.9833 62.7019L45.927 60.8363H57.4028L65.8332 61.7691L71.6888 63.1697L75.4347 65.0147Z" fill="#FFFF00"/>
<path d="M75.4347 65.0824C75.4259 65.0824 75.4141 65.0795 75.4053 65.0766L71.6594 63.2257L65.8185 61.8309L57.397 60.8982H45.93L34.0068 62.7608L28.9839 65.0089C28.9633 65.0177 28.9398 65.0177 28.9192 65.003C28.9015 64.9912 28.8898 64.9706 28.8898 64.9471V63.2316C28.8898 63.211 28.8986 63.1904 28.9163 63.1786L30.9025 61.7132C30.9083 61.7074 30.9172 61.7044 30.926 61.7015L40.7629 59.368L54.5928 58.6677L66.0774 59.833L74.0488 61.9339C74.0605 61.9369 74.0694 61.9428 74.0782 61.9486L75.4818 63.2492C75.4965 63.261 75.5024 63.2787 75.5024 63.2993V65.0148C75.5024 65.0383 75.4906 65.0589 75.47 65.0707C75.4612 65.0795 75.4494 65.0824 75.4347 65.0824ZM57.4058 60.7657L65.845 61.6985L71.7065 63.0992L75.37 64.9088V63.3287L74.0017 62.0575L66.0569 59.9624L54.5928 58.7972L40.7864 59.4975L30.976 61.8251L29.0281 63.261V64.8411L33.9627 62.6343C33.9686 62.6313 33.9745 62.6313 33.9803 62.6284L45.9241 60.7628L57.4058 60.7657Z" fill="black"/>
<path d="M52.2416 60.5451C57.7177 60.5363 63.0319 61.063 67.2456 61.8781C71.5947 62.7432 74.6549 63.826 75.6995 65.0443V65.6475C74.4371 64.1321 70.3205 63.0227 67.1485 62.3901C62.9672 61.5809 57.6883 61.0571 52.2446 61.066C46.4978 61.0777 41.1483 61.6191 37.0258 62.4195C33.7184 63.0728 29.3105 64.3704 28.7573 65.6534V65.0266C29.0604 64.1409 32.3443 62.8168 36.9493 61.8957C41.1012 61.0895 46.4625 60.5569 52.2416 60.5451ZM52.2446 58.5648C57.7206 58.556 63.0348 59.0827 67.2485 59.8978C71.5976 60.7629 74.6578 61.8457 75.7024 63.0639V63.6671C74.4401 62.1547 70.3235 61.0424 67.1514 60.4098C62.9701 59.5976 57.6912 59.0768 52.2475 59.0856C46.5008 59.0945 41.1748 59.6388 37.0553 60.4392C33.8656 61.0424 29.2752 62.393 28.7632 63.673V63.0463C29.0663 62.1694 32.4149 60.7982 36.9552 59.9154C41.1042 59.1092 46.4655 58.5766 52.2446 58.5648Z" fill="#FFFF00"/>
<path d="M28.7574 65.7181C28.7515 65.7181 28.7485 65.7181 28.7427 65.7181C28.7132 65.7122 28.6897 65.6828 28.6897 65.6533V65.0266C28.6897 65.0266 28.6897 65.0119 28.6926 65.006C29.0163 64.0556 32.4826 62.7196 36.9347 61.831C41.3691 60.9688 46.8039 60.4892 52.2417 60.4804V60.5481V60.4804C52.2917 60.4804 52.3447 60.4804 52.3976 60.4804C57.5441 60.4804 62.8142 60.9541 67.2574 61.8163C71.7977 62.7196 74.7344 63.8231 75.7496 65.003C75.7584 65.0148 75.7672 65.0295 75.7643 65.0472V65.6504C75.7643 65.6798 75.7466 65.7034 75.7201 65.7122C75.6936 65.721 75.6642 65.7122 75.6466 65.6916C74.3136 64.0909 69.7409 62.9786 67.1338 62.4548C62.7289 61.6015 57.5 61.1336 52.3947 61.1336C52.3447 61.1336 52.2917 61.1336 52.2417 61.1336C46.8716 61.1424 41.472 61.625 37.0347 62.4872C33.4331 63.1993 29.3223 64.5028 28.8162 65.6798C28.8074 65.7034 28.7839 65.7181 28.7574 65.7181ZM52.3947 60.9983C57.5088 60.9983 62.7465 61.4691 67.1603 62.3224C69.7144 62.8344 74.14 63.9114 75.6319 65.4709V65.0678C74.6196 63.9173 71.7154 62.8373 67.2309 61.9428C62.7495 61.0748 57.4205 60.5951 52.2417 60.6099C46.8157 60.6187 41.3867 61.0983 36.9611 61.9575C32.0412 62.9374 29.1046 64.2704 28.8221 65.0325V65.4032C29.8049 64.082 34.3511 62.8756 37.0082 62.3489C41.4544 61.4838 46.8628 61.0041 52.2388 60.9953C52.2947 60.9983 52.3447 60.9983 52.3947 60.9983ZM28.7603 63.7378C28.7574 63.7378 28.7515 63.7378 28.7485 63.7378C28.7162 63.7319 28.6926 63.7054 28.6926 63.673V63.0463C28.6926 63.0463 28.6926 63.0315 28.6956 63.0257C29.0281 62.0635 32.5709 60.6981 36.9405 59.8507C41.372 58.9885 46.8098 58.5089 52.2446 58.5001C57.4353 58.4942 62.7701 58.965 67.2604 59.836C71.8007 60.7393 74.7373 61.8428 75.7525 63.0227C75.7643 63.0316 75.7702 63.0492 75.7702 63.0639V63.6671C75.7702 63.6966 75.7525 63.7201 75.726 63.7289C75.6995 63.7378 75.6701 63.7319 75.6525 63.7083C74.3165 62.1076 69.7468 60.9953 67.1397 60.4745C62.6906 59.6123 57.4058 59.1386 52.2476 59.1533C46.8981 59.1621 41.5074 59.6418 37.0671 60.5069C33.4125 61.1954 29.2841 62.549 28.8251 63.6995C28.8103 63.723 28.7868 63.7378 28.7603 63.7378ZM52.4035 59.0179C57.5147 59.0179 62.7495 59.4887 67.1603 60.3421C69.7144 60.8511 74.14 61.931 75.6319 63.4906V63.0875C74.6196 61.9369 71.7183 60.857 67.2309 59.9625C62.7495 59.0944 57.4235 58.6119 52.2417 58.6295C46.8127 58.6384 41.3867 59.118 36.9611 59.9772C32.2325 60.8953 29.1193 62.2577 28.8221 63.0521V63.417C29.7578 62.1458 34.1481 60.9159 37.0347 60.3686C41.4809 59.5035 46.8834 59.0238 52.2388 59.015C52.2976 59.0179 52.3506 59.0179 52.4035 59.0179Z" fill="black"/>
<path d="M52.1328 48.4601C60.7632 48.416 68.2902 49.6607 71.733 51.4203L72.9894 53.586C69.9969 51.9794 61.8755 50.308 52.1446 50.5581C44.2174 50.6082 35.7459 51.4262 31.4939 53.6861L32.9946 51.1878C36.4844 49.3841 44.7088 48.4689 52.1328 48.4601Z" fill="#FFFF00"/>
<path d="M31.494 53.7507C31.4763 53.7507 31.4586 53.7448 31.4439 53.7301C31.4233 53.7095 31.4204 53.6742 31.4351 53.6507L32.9358 51.1525C32.9417 51.1407 32.9505 51.1319 32.9623 51.126C36.5934 49.2516 45.2003 48.4012 52.124 48.3924C52.127 48.3924 52.1299 48.3924 52.1328 48.3924C60.4484 48.3571 68.152 49.5164 71.7625 51.3585C71.7742 51.3643 71.7831 51.3732 71.7889 51.3849L73.0454 53.5506C73.0601 53.5771 73.0572 53.6095 73.0366 53.6301C73.016 53.6507 72.9836 53.6566 72.9571 53.6419C69.8174 51.9558 61.6637 50.3756 52.1476 50.6228C46.5744 50.6581 36.4874 51.1083 31.5293 53.7419C31.5175 53.7478 31.5057 53.7507 31.494 53.7507ZM33.0417 51.2349L31.6734 53.5153C36.7258 50.9642 46.6362 50.5228 52.1446 50.4875C61.4813 50.2491 69.5203 51.7645 72.8159 53.4153L71.686 51.4673C68.0843 49.64 60.4219 48.4865 52.1417 48.5248C52.1387 48.5248 52.1358 48.5248 52.1328 48.5248C45.2356 48.5366 36.664 49.3781 33.0417 51.2349Z" fill="black"/>
<path d="M52.2475 50.2463C57.1704 50.2346 61.9255 50.5112 65.7067 51.1909C69.2289 51.8441 72.5892 52.824 73.0689 53.3507L73.4426 54.0069C72.2744 53.2477 69.3672 52.4003 65.636 51.697C61.8873 50.9967 57.1351 50.7642 52.2416 50.776C46.6862 50.7583 42.3695 51.0496 38.6648 51.6911C34.7483 52.4209 32.0294 53.4654 31.3585 53.9598L31.7234 53.2683C33.0269 52.6062 35.0926 51.8088 38.5677 51.185C42.3959 50.4847 46.7568 50.2757 52.2475 50.2463ZM52.2446 48.266C56.9556 48.2542 61.6048 48.5161 65.23 49.1635C68.0901 49.7167 70.9179 50.5847 71.9507 51.3527L72.4951 52.2149C71.5682 51.1909 68.0842 50.2169 65.0063 49.6755C61.4076 49.0575 56.9526 48.8133 52.2416 48.7751C47.2982 48.7898 42.7314 49.0899 39.1856 49.7343C35.8047 50.3758 33.6213 51.135 32.6974 51.7264L33.177 51.0055C34.4511 50.3375 36.5109 49.7226 39.1033 49.2223C42.6755 48.575 47.2717 48.2807 52.2446 48.266Z" fill="#FFFF00"/>
<path d="M73.4396 54.0716C73.4278 54.0716 73.4131 54.0687 73.4043 54.0598C72.2596 53.3154 69.423 52.4767 65.6213 51.7588C62.2815 51.135 57.7765 50.823 52.2387 50.8378C46.6891 50.8172 42.3783 51.1085 38.6736 51.7529C34.7777 52.4797 32.0735 53.5096 31.3968 54.0098C31.3703 54.0275 31.3379 54.0275 31.3144 54.0069C31.2908 53.9863 31.2849 53.9539 31.2996 53.9245L31.6645 53.23C31.6704 53.2183 31.6822 53.2065 31.6939 53.2006C33.4506 52.309 35.6958 51.6234 38.5559 51.1114C42.0252 50.4788 45.9917 50.2081 52.2505 50.1757C57.5499 50.1639 62.208 50.4876 65.7213 51.1202C69.3112 51.7853 72.6304 52.7651 73.1218 53.3007L73.5014 53.9686C73.5161 53.9951 73.5102 54.0304 73.4896 54.051C73.4749 54.0657 73.4573 54.0716 73.4396 54.0716ZM52.6065 50.7053C57.9884 50.7053 62.3727 51.0143 65.6448 51.6293C69.2406 52.309 71.9801 53.0976 73.2542 53.8156L73.007 53.383C72.551 52.8858 69.1965 51.9059 65.6919 51.2556C62.1844 50.6259 57.5323 50.2963 52.2446 50.314C45.9976 50.3493 42.0369 50.62 38.5736 51.2497C35.737 51.7588 33.5095 52.4356 31.7675 53.3183L31.5321 53.7685C32.4708 53.2271 35.0602 52.2973 38.6471 51.6264C42.3606 50.9819 46.6773 50.6906 52.2357 50.7083C52.3623 50.7053 52.4859 50.7053 52.6065 50.7053ZM72.498 52.2855C72.4803 52.2855 72.4627 52.2767 72.448 52.2619C71.4946 51.2056 67.84 50.2434 64.9975 49.7431C61.7254 49.1811 57.5558 48.8869 52.2446 48.8427C47.0863 48.8574 42.5754 49.187 39.2003 49.799C36.2019 50.367 33.7861 51.1085 32.7356 51.7823C32.7091 51.8 32.6738 51.7941 32.6503 51.7735C32.6267 51.7499 32.6238 51.7146 32.6414 51.6911L33.1211 50.9702C33.127 50.9613 33.1358 50.9525 33.1446 50.9466C34.4099 50.2846 36.4638 49.6637 39.0885 49.1576C42.4577 48.5455 47.0069 48.216 52.2416 48.2013C57.3852 48.1895 61.8784 48.4984 65.2388 49.1017C68.3049 49.6961 71.0179 50.5818 71.9889 51.3056C71.9948 51.3115 72.0007 51.3174 72.0066 51.3233L72.551 52.1854C72.5686 52.2149 72.5627 52.2531 72.5333 52.2737C72.5245 52.2796 72.5127 52.2855 72.498 52.2855ZM52.2446 48.7074C57.5647 48.7515 61.743 49.0458 65.021 49.6107C67.6105 50.0698 70.8737 50.9084 72.1949 51.8647L71.9007 51.3998C70.9355 50.6906 68.2519 49.8167 65.2152 49.2282C61.8637 48.6279 57.3705 48.316 52.2416 48.3307C47.0157 48.3454 42.4754 48.675 39.115 49.2841C36.5168 49.7873 34.4776 50.3993 33.2241 51.0526L32.9151 51.5145C34.0833 50.8731 36.3785 50.1933 39.1709 49.6637C42.5578 49.0546 47.0775 48.7221 52.2446 48.7074Z" fill="black"/>
<path d="M63.7645 73.7219C59.4979 72.9274 55.2253 72.8126 52.2386 72.8479C37.8585 73.0157 33.2122 75.7905 32.6443 76.6291L31.5703 74.8842C35.2308 72.2418 43.0638 70.7588 52.3151 70.9088C57.1203 70.9883 61.2663 71.3061 64.7562 71.977L63.7645 73.7219Z" fill="#FFFF00"/>
<path d="M32.6444 76.6967C32.6208 76.6967 32.6002 76.6849 32.5885 76.6643L31.5144 74.9194C31.4968 74.89 31.5027 74.8517 31.5321 74.8311C35.2014 72.1828 42.9756 70.691 52.3181 70.844C57.391 70.9264 61.4664 71.2765 64.7709 71.9151C64.7915 71.918 64.8092 71.9327 64.818 71.9533C64.8268 71.9739 64.8268 71.9945 64.815 72.0151L63.8234 73.7571C63.8087 73.7836 63.7734 73.7983 63.744 73.7865C60.363 73.1597 56.4936 72.8655 52.2387 72.9155C38.247 73.0803 33.3212 75.7462 32.7003 76.6672C32.6885 76.6849 32.6679 76.6967 32.6444 76.6967ZM31.6616 74.9047L32.6532 76.5142C33.5007 75.5108 38.5736 72.9449 52.2387 72.7831C56.4847 72.7331 60.3512 73.0244 63.7293 73.6482L64.6503 72.0269C61.3693 71.4031 57.3322 71.0588 52.3152 70.9764C43.0403 70.8263 35.328 72.2917 31.6616 74.9047Z" fill="black"/>
<path d="M52.1563 72.6035C56.1552 72.6623 60.0835 72.8271 63.8734 73.5304L63.5998 74.013C60.0805 73.3656 56.3258 73.1184 52.171 73.139C46.8627 73.0978 41.4955 73.5922 36.8228 74.9281C35.3486 75.3371 32.9063 76.2816 32.6591 77.0614L32.3854 76.6142C32.4649 76.1522 33.9391 75.1959 36.6992 74.4249C42.0487 72.8948 47.0539 72.6388 52.1563 72.6035ZM52.3358 70.5967C56.4818 70.6732 60.7602 70.8645 64.921 71.6854L64.6356 72.1886C60.8779 71.4471 57.2881 71.197 52.3593 71.1234C47.0363 71.1322 41.3866 71.5118 36.2519 72.9978C34.5953 73.4774 31.7322 74.5191 31.638 75.343L31.3644 74.8604C31.4262 74.113 33.9038 73.1361 36.1313 72.4917C41.3101 70.9939 46.9715 70.6084 52.3358 70.5967Z" fill="#FFFF00"/>
<path d="M32.6562 77.1262C32.6326 77.1262 32.612 77.1144 32.6003 77.0938L32.3266 76.6465C32.3178 76.6348 32.3148 76.6171 32.3148 76.6171C32.4061 76.0816 33.9627 75.1194 36.6757 74.3602C41.7898 72.9007 46.5626 72.577 52.1534 72.5388C52.1593 72.5388 52.1593 72.5388 52.1622 72.5388C55.9581 72.5947 60.0011 72.7477 63.8823 73.4686C63.9029 73.4716 63.9205 73.4863 63.9294 73.5039C63.9382 73.5216 63.9382 73.5451 63.9264 73.5628L63.6528 74.0454C63.6381 74.0689 63.6116 74.0807 63.5851 74.0777C60.2718 73.4686 56.5407 73.1773 52.1681 73.2038C46.2977 73.1538 41.1424 73.7599 36.8375 74.9899C35.2633 75.4254 32.9445 76.3641 32.715 77.082C32.7062 77.1056 32.6856 77.1232 32.6621 77.1262C32.6621 77.1262 32.6591 77.1262 32.6562 77.1262ZM32.4502 76.6024L32.6474 76.9231C33.0887 76.1434 35.3839 75.2577 36.8022 74.8663C41.1189 73.6334 46.2889 73.0272 52.1681 73.0743C56.526 73.0537 60.2542 73.3362 63.5645 73.9424L63.7705 73.5775C59.9246 72.8713 55.9139 72.7242 52.1534 72.6682C52.1534 72.6682 52.1504 72.6682 52.1475 72.6682C46.5714 72.7065 41.8104 73.0302 36.711 74.4838C33.9685 75.2518 32.565 76.1875 32.4502 76.6024ZM31.641 75.4077C31.6175 75.4077 31.5969 75.396 31.5851 75.3754L31.3114 74.8928C31.3056 74.881 31.3026 74.8693 31.3026 74.8575C31.385 73.8776 35.0073 72.7536 36.1166 72.4328C40.5422 71.1499 45.6945 70.5496 52.3358 70.5349C56.3906 70.6114 60.725 70.7939 64.9328 71.6266C64.9534 71.6295 64.971 71.6442 64.9799 71.6619C64.9887 71.6796 64.9887 71.7031 64.9769 71.7208L64.6915 72.2239C64.6768 72.2475 64.6503 72.2622 64.6238 72.2563C60.6337 71.4677 56.8349 71.2588 52.3594 71.1911C45.7534 71.2029 40.6422 71.7973 36.2725 73.0625C34.1274 73.6864 31.7822 74.6662 31.7028 75.3518C31.6999 75.3783 31.6793 75.4019 31.6528 75.4077C31.6498 75.4048 31.6439 75.4077 31.641 75.4077ZM31.435 74.8457L31.6233 75.1782C32.0912 74.166 35.7959 73.0625 36.2372 72.936C40.6187 71.6678 45.7416 71.0705 52.3623 71.0587C56.8291 71.1264 60.619 71.3323 64.6032 72.118L64.821 71.7325C60.6514 70.9174 56.3553 70.7379 52.3358 70.6614C45.7063 70.6732 40.5657 71.2735 36.1519 72.5535C33.3624 73.3627 31.5204 74.2572 31.435 74.8457Z" fill="black"/>
<path d="M72.7628 75.1519L71.0356 77.8237L66.0715 73.4305L53.1921 64.8L38.6736 56.8699L31.1349 54.3011L32.7415 51.335L33.2859 51.0378L37.9704 52.2031L53.4275 60.1332L62.3257 65.7328L69.8203 71.0971L72.8658 74.5957L72.7628 75.1519Z" fill="#FFFF00"/>
<path d="M71.0356 77.8883C71.0179 77.8883 71.0032 77.8824 70.9914 77.8706L66.0274 73.4774L53.1538 64.8529L38.6383 56.9257L31.1113 54.3627C31.0937 54.3569 31.079 54.3422 31.0701 54.3245C31.0643 54.3068 31.0643 54.2862 31.0731 54.2686L32.6797 51.3025C32.6856 51.2907 32.6944 51.2819 32.7062 51.276L33.2506 50.9788C33.2653 50.97 33.2829 50.97 33.2976 50.973L37.9821 52.1382L53.454 60.0742L62.358 65.6768L69.8556 71.0439L72.9129 74.5544C72.9276 74.5691 72.9306 74.5897 72.9276 74.6103L72.8305 75.1664C72.8276 75.1752 72.8246 75.1841 72.8217 75.19L71.0944 77.8618C71.0826 77.8794 71.0679 77.8883 71.0473 77.8912C71.0415 77.8883 71.0385 77.8883 71.0356 77.8883ZM31.229 54.2598L38.6913 56.8021L53.2215 64.7381L66.1068 73.3715L71.0209 77.7176L72.6981 75.1252L72.7893 74.6162L69.7673 71.141L62.2845 65.7856L53.3892 60.189L37.938 52.2618L33.2947 51.1083L32.7886 51.382L31.229 54.2598Z" fill="black"/>
<path d="M30.8613 54.3687C32.1825 53.4742 41.9016 57.788 52.0681 63.8937C62.208 70.0171 71.8978 76.9379 71.0238 78.2326L70.7355 78.6829L70.603 78.7858C70.6325 78.7652 70.7767 78.5887 70.5883 78.1091C70.1558 76.6937 63.282 71.2294 51.8797 64.3704C40.7629 57.7674 31.4968 53.7861 30.5699 54.9249L30.8613 54.3687ZM73.1189 75.1136C73.9546 73.4687 64.9416 66.7068 53.7688 60.1214C42.3371 53.6684 34.098 49.8696 32.5944 51.0025L32.259 51.6086C32.256 51.641 32.2707 51.5675 32.3413 51.5115C32.615 51.2732 33.0682 51.2909 33.2741 51.285C35.8665 51.3232 43.267 54.716 53.6482 60.6452C58.1973 63.2846 72.8688 72.6566 72.8129 75.2931C72.8158 75.5196 72.8305 75.5667 72.7452 75.6785L73.1189 75.1136Z" fill="#FFFF00"/>
<path d="M70.603 78.8535C70.5824 78.8535 70.5618 78.8446 70.55 78.827C70.5294 78.7976 70.5324 78.7564 70.5618 78.7328L70.5647 78.7299C70.5706 78.721 70.7001 78.5739 70.5265 78.1325C70.0822 76.676 62.8141 71.0234 51.8444 64.4262C40.1831 57.4995 31.4556 53.942 30.6199 54.966C30.5993 54.9925 30.5581 54.9984 30.5316 54.9807C30.5022 54.9631 30.4934 54.9248 30.5081 54.8954L30.7994 54.3393C30.8053 54.3304 30.8112 54.3216 30.82 54.3157C32.2059 53.3829 41.9486 57.7438 52.1004 63.8407C61.2281 69.355 70.6971 75.9551 71.1268 77.906C71.1591 78.0531 71.1415 78.1767 71.0767 78.2738L70.7913 78.724C70.7884 78.7299 70.7825 78.7358 70.7766 78.7416L70.6442 78.8446L70.6412 78.8476C70.6295 78.8505 70.6177 78.8535 70.603 78.8535ZM31.1966 54.6747C33.7478 54.6747 42.3577 58.6383 51.915 64.3144C63.0583 71.0175 70.194 76.5818 70.6559 78.0914C70.7295 78.2797 70.7531 78.4239 70.7531 78.5357L70.9679 78.1973C71.0149 78.1296 71.0238 78.0413 71.0002 77.9295C70.5824 76.0375 60.9162 69.3138 52.0356 63.9496C42.134 58.0027 32.2913 53.5565 30.9142 54.4128L30.7464 54.7336C30.8641 54.6953 31.0142 54.6747 31.1966 54.6747ZM72.7451 75.7462C72.7304 75.7462 72.7187 75.7432 72.7069 75.7344C72.6775 75.7138 72.6686 75.6726 72.6892 75.6432L72.7275 75.5873C72.751 75.5402 72.751 75.4931 72.7481 75.3783L72.7451 75.2959C72.8011 72.6712 57.8501 63.1639 53.6158 60.7069C43.2757 54.8012 35.8605 51.3938 33.2741 51.3555H33.2211C33.0122 51.3585 32.6208 51.3614 32.3854 51.5645C32.3501 51.5909 32.3325 51.6233 32.3236 51.641C32.3089 51.6704 32.2677 51.691 32.2383 51.6822C32.2089 51.6733 32.1883 51.6351 32.1912 51.6027C32.1912 51.6027 32.1942 51.5851 32.2 51.5762L32.5355 50.9701C32.5414 50.9612 32.5473 50.9553 32.5531 50.9495C34.3599 49.59 45.106 55.1543 53.8011 60.0654C63.8911 66.0093 74.1105 73.3156 73.1777 75.1459C73.1777 75.1488 73.1748 75.1488 73.1748 75.1488L72.8393 75.6549C72.8275 75.6755 72.8158 75.6961 72.7981 75.7197C72.7834 75.7344 72.7657 75.7462 72.7451 75.7462ZM33.2711 51.2172C35.8841 51.2555 43.3228 54.6718 53.6805 60.5862C56.676 62.3253 72.9394 72.4182 72.8776 75.293V75.3519L73.0571 75.0811C73.8192 73.5599 65.3329 67.0157 53.7305 60.1772C41.522 53.2858 34.0362 50.0432 32.6414 51.0436L32.4766 51.3408C32.7297 51.2231 33.0328 51.2202 33.2152 51.2172H33.2711Z" fill="black"/>
<path d="M38.3441 66.6657C38.3441 70.4615 39.9037 73.8955 42.4313 76.4025C44.9648 78.9154 48.4046 80.5044 52.2211 80.5044C56.0582 80.5044 59.5392 78.9537 62.0609 76.4466C64.5827 73.9425 66.1452 70.4851 66.1452 66.6774V48.2042L38.3383 48.1719L38.3441 66.6657Z" fill="white"/>
<path d="M38.8619 66.6921V66.7039C38.8619 70.332 40.3715 73.6365 42.7902 76.0376C45.2149 78.4416 48.5546 79.9365 52.2063 79.9365C55.8786 79.9365 59.2125 78.4534 61.6253 76.0582C64.0382 73.663 65.536 70.3585 65.536 66.7157V48.7957L38.8767 48.7927L38.8619 66.6921ZM60.1776 54.154V65.5593L60.1688 66.7657C60.1688 67.0835 60.1482 67.4454 60.1129 67.7544C59.8951 69.5582 59.0624 71.1295 57.8295 72.3506C56.3847 73.7807 54.3926 74.6693 52.1975 74.6693C50.0141 74.6693 48.0662 73.7513 46.6184 72.3124C45.1325 70.8382 44.2703 68.8166 44.2703 66.7274L44.2674 54.1246L60.1776 54.154Z" fill="#FF0000"/>
<path d="M45.5032 71.9592C45.4385 71.8945 45.3385 71.8886 45.2826 71.9474L42.6019 74.6369C42.546 74.6928 42.5519 74.7928 42.6166 74.8546C42.6814 74.9194 42.7814 74.9253 42.8373 74.8664L45.518 72.1769C45.5739 72.124 45.568 72.0239 45.5032 71.9592ZM42.1664 72.0386L41.9634 72.2417L42.2929 72.5683C42.34 72.6154 42.4254 72.6095 42.4754 72.5595L43.2022 71.8297C43.2522 71.7797 43.2581 71.7061 43.2051 71.6532L42.8697 71.3236L42.6608 71.5325L42.8079 71.6796L42.6608 71.8297L42.5136 71.6826L42.3047 71.8886L42.4518 72.0357L42.3047 72.1828L42.1664 72.0386ZM44.2909 72.9332L43.1728 71.9209L42.5519 72.5359L43.5788 73.6453L44.2909 72.9332ZM43.6936 64.3704C43.6936 64.2704 43.6259 64.188 43.5406 64.188H42.5136C42.5107 64.1056 42.4842 64.0497 42.4724 63.979C42.4842 64.0526 42.5166 64.1026 42.5195 64.185H43.4906L43.3199 62.7461H43.3728C43.4494 62.7461 43.5112 62.6726 43.5112 62.5813C43.5112 62.4901 43.4494 62.4166 43.3728 62.4166H39.7329C39.6564 62.4166 39.5946 62.4901 39.5946 62.5813C39.5946 62.6726 39.6564 62.7461 39.7329 62.7461H39.7889L39.6329 64.1821L40.6039 64.185V64.188H39.5711C39.4887 64.188 39.4181 64.2704 39.4181 64.3704C39.4181 64.4704 39.4858 64.5528 39.5711 64.5528H43.5406C43.6259 64.5528 43.6936 64.4704 43.6936 64.3704ZM40.9394 63.1963C40.7805 63.4141 40.651 63.7142 40.6157 64.1409C40.6304 63.6907 40.7717 63.4053 40.9394 63.1963ZM39.5123 62.2488C39.5123 62.3401 39.577 62.4136 39.6594 62.4136H43.4641C43.5435 62.4136 43.6112 62.3401 43.6112 62.2488C43.6112 62.1576 43.5465 62.0841 43.4641 62.0841H39.6594C39.577 62.0841 39.5123 62.1576 39.5123 62.2488ZM40.9129 59.9448V60.4098C40.9129 60.4774 40.9776 60.5333 41.0453 60.5333H42.0781C42.1458 60.5333 42.2076 60.4863 42.2076 60.4127V59.9419H41.9134V60.1508H41.7044V59.9448H41.4102V60.1538H41.2013V59.9507L40.9129 59.9448ZM41.0512 62.0752L42.0605 62.0782L41.9928 60.5745L41.1189 60.5687L41.0512 62.0752ZM39.83 62.0811H40.7952L40.7658 61.2719H39.8565L39.83 62.0811ZM42.3135 62.0811H43.2787L43.2493 61.2719H42.34L42.3135 62.0811Z" fill="#FFFF00"/>
<path d="M39.677 60.6834V61.1483C39.677 61.216 39.7388 61.2719 39.8094 61.2719H40.8216C40.8893 61.2719 40.9482 61.2248 40.9482 61.1513V60.6834H40.6598V60.8923H40.4538V60.6863H40.1655V60.8953H39.9595V60.6922L39.677 60.6834ZM42.1634 60.6834V61.1483C42.1634 61.216 42.2252 61.2719 42.2959 61.2719H43.3081C43.3758 61.2719 43.4346 61.2248 43.4346 61.1513V60.6834H43.1462V60.8923H42.9403V60.6863H42.6519V60.8953H42.4459V60.6922L42.1634 60.6834ZM42.7225 74.5133L43.4022 73.8306L42.8049 73.2804L42.1634 73.9218L42.7225 74.5133ZM45.153 72.0739L44.5557 71.5237L43.9142 72.1652L44.4733 72.7566L45.153 72.0739ZM42.8432 73.0656L42.5107 72.7331L42.3076 72.9361L42.4547 73.0832L42.3106 73.2274L42.1634 73.0803L41.9604 73.2833L42.1075 73.4304L41.9633 73.5746L41.8192 73.4304L41.622 73.6276L41.9516 73.9542C41.9987 74.0013 42.084 73.9954 42.1311 73.9483L42.8432 73.2333C42.8902 73.1921 42.8961 73.1185 42.8432 73.0656ZM43.7142 71.8238L43.57 71.6796L43.3728 71.8768L43.7024 72.2034C43.7495 72.2505 43.8348 72.2446 43.8819 72.1975L44.594 71.4825C44.641 71.4354 44.6469 71.3589 44.5969 71.3089L44.2644 70.9793L44.0614 71.1823L44.2085 71.3295L44.0643 71.4737L43.9172 71.3265L43.7142 71.5296L43.8613 71.6767L43.7142 71.8238ZM46.8362 73.3716L46.1123 74.0984C46.0505 74.0425 45.9946 74.0219 45.9328 73.9778C45.9946 74.0219 46.0505 74.0337 46.1123 74.0925L46.7979 73.404L45.6533 72.5094L45.6915 72.4712C45.7445 72.4182 45.7357 72.3211 45.6739 72.2564C45.6091 72.1916 45.512 72.1858 45.4591 72.2387L42.8961 74.8105C42.8432 74.8635 42.852 74.9606 42.9138 75.0253C42.9785 75.09 43.0756 75.0959 43.1286 75.0429L43.1668 75.0047L44.082 76.1258L44.7676 75.4431C44.7676 75.4431 44.7676 75.4461 44.7705 75.4461L44.0408 76.1758C43.9819 76.2347 43.9907 76.3406 44.0643 76.4112C44.1349 76.4818 44.2409 76.4907 44.2997 76.4318L47.0951 73.6276C47.154 73.5687 47.1451 73.4628 47.0716 73.3922C47.0039 73.3216 46.895 73.3127 46.8362 73.3716ZM44.2997 74.5133C44.3409 74.7722 44.4645 75.0665 44.7264 75.3813C44.4321 75.0665 44.3291 74.7722 44.2997 74.5133ZM42.1634 49.8784V50.3434C42.1634 50.411 42.2252 50.4669 42.2959 50.4669H43.3081C43.3758 50.4669 43.4346 50.4199 43.4346 50.3463V49.8755H43.1462V50.0844H42.9403V49.8755H42.6519V50.0844H42.4459V49.8814L42.1634 49.8784ZM39.8094 50.464H40.8216C40.8893 50.464 40.9482 50.4169 40.9482 50.3434V49.8726H40.6598V50.0815H40.4538V49.8726H40.1655V50.0815H39.9595V49.8784H39.6799V50.3434C39.6799 50.411 39.7417 50.464 39.8094 50.464Z" fill="#FFFF00"/>
<path d="M43.2492 50.467H42.34L42.3135 51.2762H43.2787L43.2492 50.467ZM40.7657 50.467H39.8565L39.83 51.2762H40.7952L40.7657 50.467ZM41.0512 51.2703L42.0605 51.2732L41.9928 49.7666L41.1188 49.7637L41.0512 51.2703ZM41.0453 49.7284H42.0781C42.1458 49.7284 42.2076 49.6813 42.2076 49.6078V49.1399H41.9133V49.3488H41.7044V49.1428H41.4102V49.3518H41.2012V49.1487H40.9129V49.6136C40.9129 49.6725 40.9776 49.7284 41.0453 49.7284ZM43.4611 51.6087C43.5405 51.6087 43.6082 51.5351 43.6082 51.4439C43.6082 51.3527 43.5435 51.2791 43.4611 51.2791H39.6564C39.577 51.2791 39.5093 51.3527 39.5093 51.4439C39.5093 51.5351 39.574 51.6087 39.6564 51.6087H43.4611Z" fill="#FFFF00"/>
<path d="M43.5406 53.7479C43.623 53.7479 43.6936 53.6655 43.6936 53.5654C43.6936 53.4654 43.6259 53.383 43.5406 53.383H42.5136C42.5107 53.3006 42.4842 53.2447 42.4724 53.1711C42.4842 53.2447 42.5166 53.2947 42.5195 53.3771H43.4906L43.3199 51.9382H43.3728C43.4494 51.9382 43.5112 51.8647 43.5112 51.7734C43.5112 51.6822 43.4494 51.6087 43.3728 51.6087H39.7329C39.6564 51.6087 39.5946 51.6822 39.5946 51.7734C39.5946 51.8647 39.6564 51.9382 39.7329 51.9382H39.7889L39.6329 53.3742L40.6039 53.3771V53.3801H39.5711C39.4887 53.3801 39.4181 53.4624 39.4181 53.5625C39.4181 53.6625 39.4858 53.7449 39.5711 53.7449H43.5406V53.7479ZM40.9394 52.3914C40.7805 52.6091 40.651 52.9092 40.6157 53.3359C40.6304 52.8828 40.7717 52.6003 40.9394 52.3914ZM53.9542 50.4669H53.0479L53.0185 51.2761H53.9866L53.9542 50.4669ZM50.5144 50.464H51.5266C51.5943 50.464 51.6531 50.4169 51.6531 50.3434V49.8726H51.3648V50.0815H51.1588V49.8726H50.8704V50.0815H50.6644V49.8784H50.3849V50.3434C50.3849 50.411 50.4467 50.464 50.5144 50.464Z" fill="#FFFF00"/>
<path d="M52.8684 49.8785V50.3434C52.8684 50.4111 52.9302 50.467 52.9979 50.467H54.0101C54.0778 50.467 54.1366 50.4199 54.1366 50.3463V49.8755H53.8483V50.0844H53.6423V49.8755H53.3539V50.0844H53.1479V49.8814L52.8684 49.8785ZM51.4707 50.467H50.5615L50.535 51.2762H51.5001L51.4707 50.467ZM51.7561 51.2703L52.7654 51.2732L52.7007 49.7666L51.8238 49.7637L51.7561 51.2703ZM51.7532 49.7284H52.786C52.8537 49.7284 52.9155 49.6813 52.9155 49.6078V49.1399H52.6212V49.3488H52.4123V49.1428H52.118V49.3518H51.9062V49.1487H51.6178V49.6136C51.6178 49.6725 51.6826 49.7284 51.7532 49.7284ZM54.1661 51.6087C54.2455 51.6087 54.3132 51.5351 54.3132 51.4439C54.3132 51.3527 54.2484 51.2791 54.1661 51.2791H50.3614C50.2819 51.2791 50.2142 51.3527 50.2142 51.4439C50.2142 51.5351 50.279 51.6087 50.3614 51.6087H54.1661Z" fill="#FFFF00"/>
<path d="M53.2186 53.383C53.2156 53.3006 53.1892 53.2447 53.1774 53.1711C53.1892 53.2447 53.2215 53.2947 53.2245 53.3771H54.1955L54.0248 51.9382H54.0778C54.1543 51.9382 54.2161 51.8646 54.2161 51.7734C54.2161 51.6822 54.1543 51.6086 54.0778 51.6086H50.4379C50.3614 51.6086 50.2996 51.6822 50.2996 51.7734C50.2996 51.8646 50.3614 51.9382 50.4379 51.9382H50.4938L50.3379 53.3742L51.3089 53.3771V53.38H50.2761C50.1937 53.38 50.123 53.4624 50.123 53.5625C50.123 53.6625 50.1907 53.7449 50.2761 53.7449H54.2455C54.3279 53.7449 54.3985 53.6625 54.3985 53.5625C54.3985 53.4624 54.3309 53.38 54.2455 53.38H53.2186V53.383ZM51.6443 52.3914C51.4854 52.6091 51.356 52.9092 51.3207 53.3359C51.3354 52.8828 51.4766 52.6003 51.6443 52.3914ZM60.5779 72.1975C60.6249 72.2446 60.7103 72.2505 60.7573 72.2034L61.0898 71.8768L60.8927 71.6796L60.7485 71.8238L60.6043 71.6796L60.7515 71.5325L60.5484 71.3295L60.4013 71.4766L60.2571 71.3324L60.4042 71.1853L60.2012 70.9823L59.8687 71.3118C59.8157 71.3648 59.8246 71.4383 59.8716 71.4854L60.5779 72.1975ZM62.4964 73.5805L62.3522 73.4363L62.4993 73.2892L62.2963 73.0862L62.1492 73.2333L62.005 73.0891L62.1521 72.942L61.9491 72.7389L61.6166 73.0714C61.5636 73.1244 61.5724 73.198 61.6195 73.2451L62.3316 73.9601C62.3787 74.0072 62.464 74.0131 62.5111 73.966L62.8407 73.6394L62.6435 73.4422L62.4964 73.5805ZM60.5455 72.1652L59.904 71.5237L59.3067 72.0739L59.9864 72.7566L60.5455 72.1652Z" fill="#FFFF00"/>
<path d="M61.0545 73.8307L61.7372 74.5134L62.2963 73.9219L61.6548 73.2804L61.0545 73.8307ZM58.7858 72.2594C58.7211 72.3241 58.7123 72.4183 58.7682 72.4742L58.8064 72.5124L57.6618 73.407L58.3474 74.0955C58.4092 74.0367 58.4651 74.0278 58.5269 73.9808C58.468 74.0249 58.4092 74.0455 58.3474 74.1014L57.6235 73.3746C57.5647 73.3157 57.4588 73.3246 57.3852 73.3952C57.3146 73.4658 57.3028 73.5717 57.3617 73.6306L60.1571 76.4348C60.2159 76.4937 60.3218 76.4849 60.3954 76.4142C60.466 76.3436 60.4778 76.2377 60.4189 76.1788L59.6892 75.4491C59.6892 75.4491 59.6892 75.4461 59.6921 75.4461L60.3777 76.1288L61.2929 75.0077L61.3311 75.046C61.3841 75.0989 61.4812 75.093 61.5459 75.0283C61.6107 74.9636 61.6195 74.8694 61.5636 74.8135L59.0006 72.2417C58.9447 72.1888 58.8476 72.1946 58.7858 72.2594ZM60.16 74.5163C60.1306 74.7752 60.0276 75.0666 59.7333 75.3843C59.9952 75.0666 60.1159 74.7752 60.16 74.5163ZM61.5842 71.3237L61.2517 71.6532C61.1987 71.7062 61.2075 71.7797 61.2546 71.8298L61.9814 72.5595C62.0314 72.6095 62.1138 72.6154 62.1639 72.5683L62.4934 72.2417L62.2904 72.0387L62.1462 72.1829L61.9991 72.0357L62.1462 71.8886L61.9373 71.6826L61.7902 71.8298L61.643 71.6797L61.7902 71.5326L61.5842 71.3237ZM60.8809 73.6453L61.9049 72.536L61.287 71.921L60.1688 72.9332L60.8809 73.6453ZM58.9565 71.9592C58.8918 72.024 58.8859 72.1211 58.9418 72.177L61.6224 74.8665C61.6783 74.9224 61.7784 74.9165 61.8431 74.8547C61.9079 74.79 61.9137 74.6929 61.8578 74.6369L59.1772 71.9475C59.1183 71.8916 59.0183 71.8975 58.9565 71.9592ZM61.028 60.6805V61.1484C61.028 61.222 61.0869 61.269 61.1546 61.269H62.1668C62.2345 61.269 62.2963 61.2131 62.2992 61.1454V60.6805H62.0197V60.8836H61.8137V60.6746H61.5253V60.8806H61.3194V60.6717L61.028 60.6805ZM63.5115 60.6805V61.1484C63.5115 61.222 63.5704 61.269 63.6381 61.269H64.6503C64.718 61.269 64.7798 61.2131 64.7827 61.1454V60.6805H64.5032V60.8836H64.2943V60.6746H64.0059V60.8806H63.7999V60.6717L63.5115 60.6805ZM62.1462 62.0812L62.1168 61.272H61.2105L61.1781 62.0812H62.1462ZM64.6297 62.0812L64.6032 61.272H63.694L63.6646 62.0812H64.6297ZM62.3993 62.0782L63.4086 62.0753L63.3409 60.5687L62.464 60.5746L62.3993 62.0782ZM62.2521 59.942V60.4128C62.2521 60.4863 62.311 60.5334 62.3816 60.5334H63.4115C63.4821 60.5334 63.5439 60.4775 63.5439 60.4098V59.9449H63.2555V60.1479H63.0466V59.939H62.7524V60.145H62.5434V59.9361H62.2521V59.942ZM60.8515 62.2489C60.8515 62.3401 60.9162 62.4137 60.9986 62.4137H64.8033C64.8828 62.4137 64.9504 62.3401 64.9504 62.2489C64.9504 62.1577 64.8857 62.0841 64.8033 62.0841H60.9986C60.9162 62.0841 60.8515 62.1577 60.8515 62.2489ZM63.8529 64.188V64.1851L64.8239 64.1821L64.668 62.7462H64.7239C64.8004 62.7462 64.8622 62.6726 64.8622 62.5814C64.8622 62.4902 64.8004 62.4166 64.7239 62.4166H61.084C61.0075 62.4166 60.9457 62.4902 60.9457 62.5814C60.9457 62.6726 61.0075 62.7462 61.084 62.7462H61.1369L60.9663 64.1851H61.9373C61.9402 64.0998 61.9726 64.0527 61.9844 63.9762C61.9726 64.0497 61.9461 64.1086 61.9432 64.188H60.9162C60.8338 64.188 60.7632 64.2704 60.7632 64.3705C60.7632 64.4705 60.8309 64.5529 60.9162 64.5529H64.8857C64.9681 64.5529 65.0387 64.4705 65.0387 64.3705C65.0387 64.2704 64.971 64.188 64.8857 64.188H63.8529ZM63.5204 63.1993C63.6881 63.4053 63.8264 63.6878 63.8411 64.1351C63.8058 63.7113 63.6793 63.4141 63.5204 63.1993ZM61.1546 50.4641H62.1668C62.2345 50.4641 62.2963 50.4082 62.2992 50.3405V49.8756H62.0197V50.0786H61.8137V49.8697H61.5253V50.0786H61.3194V49.8697H61.031V50.3405C61.028 50.417 61.0869 50.4641 61.1546 50.4641ZM62.1462 51.2762L62.1168 50.467H61.2105L61.1781 51.2762H62.1462ZM63.5115 49.8756V50.3464C63.5115 50.4199 63.5704 50.467 63.6381 50.467H64.6503C64.718 50.467 64.7798 50.4111 64.7827 50.3434V49.8785H64.5032V50.0815H64.2943V49.8726H64.0059V50.0815H63.7999V49.8726L63.5115 49.8756ZM64.6297 51.2762L64.6032 50.467H63.694L63.6646 51.2762H64.6297ZM62.3993 51.2733L63.4086 51.2703L63.3409 49.7637L62.464 49.7667L62.3993 51.2733ZM62.3787 49.7284H63.4115C63.4821 49.7284 63.5439 49.6725 63.5439 49.6049V49.1399H63.2555V49.343H63.0466V49.134H62.7524V49.34H62.5434V49.1311H62.2492V49.599C62.2521 49.6784 62.311 49.7284 62.3787 49.7284ZM64.8033 51.6087C64.8828 51.6087 64.9504 51.5352 64.9504 51.4439C64.9504 51.3527 64.8857 51.2791 64.8033 51.2791H60.9986C60.9192 51.2791 60.8515 51.3527 60.8515 51.4439C60.8515 51.5352 60.9162 51.6087 60.9986 51.6087H64.8033ZM64.8857 53.7479C64.9681 53.7479 65.0387 53.6655 65.0387 53.5655C65.0387 53.4654 64.971 53.3831 64.8857 53.3831H63.8529V53.3801L64.8239 53.3772L64.668 51.9412H64.7239C64.8004 51.9412 64.8622 51.8677 64.8622 51.7764C64.8622 51.6852 64.8004 51.6117 64.7239 51.6117H61.084C61.0075 51.6117 60.9457 51.6852 60.9457 51.7764C60.9457 51.8677 61.0075 51.9412 61.084 51.9412H61.1369L60.9663 53.3801H61.9373C61.9402 53.2948 61.9726 53.2477 61.9844 53.1712C61.9726 53.2448 61.9461 53.3036 61.9432 53.3831H60.9162C60.8338 53.3831 60.7632 53.4654 60.7632 53.5655C60.7632 53.6655 60.8309 53.7479 60.9162 53.7479H64.8857ZM63.5204 52.3944C63.6881 52.6003 63.8264 52.8828 63.8411 53.3301C63.8058 52.9064 63.6793 52.6092 63.5204 52.3944Z" fill="#FFFF00"/>
<path d="M42.7226 74.5985L42.0841 73.9217L42.805 73.2008L43.4906 73.8305L42.7226 74.5985ZM42.2459 73.9246L42.7256 74.4308L43.32 73.8334L42.808 73.3626L42.2459 73.9246ZM44.4734 72.8418L43.8349 72.165L44.5558 71.4441L45.2414 72.0738L44.4734 72.8418ZM43.9967 72.168L44.4764 72.6741L45.0708 72.0767L44.5588 71.6059L43.9967 72.168Z" fill="black"/>
<path d="M42.034 74.0513C41.987 74.0513 41.9428 74.0336 41.9075 74.0013L41.5338 73.6335L41.575 73.5923L41.6162 73.6335L41.575 73.5923L41.8134 73.3539L41.9575 73.4981L42.0193 73.4363L41.8722 73.2892L42.1576 73.0038L42.3048 73.1509L42.3666 73.0891L42.2194 72.942L42.5049 72.6565L42.8815 73.0302C42.9551 73.1009 42.9521 73.2127 42.8786 73.2862L42.1665 74.0013C42.1341 74.0336 42.0841 74.0513 42.034 74.0513ZM41.7015 73.6335L41.9899 73.9189C42.0135 73.9424 42.0605 73.9395 42.087 73.913L42.7991 73.198C42.8226 73.1744 42.8315 73.1362 42.802 73.1067L42.5107 72.8154L42.3901 72.9361L42.5372 73.0832L42.3106 73.3127L42.1635 73.1656L42.0429 73.2862L42.19 73.4334L41.9634 73.6599L41.8192 73.5158L41.7015 73.6335ZM43.7849 72.2976C43.7378 72.2976 43.6936 72.2799 43.6583 72.2475L43.3111 71.9033V71.8562L43.5671 71.6002L43.7113 71.7444L43.7731 71.6826L43.626 71.5354L43.9114 71.25L44.0585 71.3971L44.1203 71.3353L43.9732 71.1882L44.2586 70.9028L44.6352 71.2736C44.7088 71.3471 44.7059 71.456 44.6323 71.5296L43.9202 72.2446C43.8849 72.277 43.8349 72.2976 43.7849 72.2976ZM43.4523 71.8768L43.7407 72.1622C43.7643 72.1857 43.8113 72.1828 43.8378 72.1563L44.5499 71.4413C44.5735 71.4177 44.5823 71.3795 44.5529 71.3501L44.2615 71.0617L44.1409 71.1823L44.288 71.3295L44.0615 71.559L43.9143 71.4119L43.7937 71.5325L43.9408 71.6796L43.7142 71.9062L43.57 71.762L43.4523 71.8768ZM43.1346 72.633C43.0257 72.533 43.1728 72.3829 43.2787 72.4888L43.5347 72.7419L43.3906 72.8861L43.1346 72.633ZM42.6255 73.8836C42.5255 73.7835 42.6608 73.6423 42.7609 73.7482L42.958 73.9424L42.8226 74.0778L42.6255 73.8836ZM44.3822 72.121C44.2821 72.021 44.4175 71.8797 44.5175 71.9856L44.7147 72.1799L44.5793 72.3182L44.3822 72.121ZM40.6658 64.2409L39.5741 64.238L39.7448 62.6814L39.7595 62.6402L43.3729 62.6313L43.5612 64.238H42.4607V64.1821C42.4372 63.0639 41.5603 62.8167 41.5515 62.8138C41.5544 62.8167 40.6746 62.9874 40.6658 64.1791V64.2409ZM42.5755 64.1232H43.4259L43.264 62.749L41.7163 62.752C41.8192 62.7991 41.9575 62.8815 42.09 63.0021C42.2989 63.1963 42.549 63.5465 42.5755 64.1232ZM39.7036 64.1232L40.551 64.1262C40.5716 63.4817 40.8453 63.1257 41.0748 62.9403C41.1807 62.855 41.2896 62.7961 41.3808 62.7579L39.8507 62.7608L39.7036 64.1232Z" fill="black"/>
<path d="M43.5406 64.6088H39.5711C39.4564 64.6088 39.3593 64.4999 39.3593 64.3675C39.3593 64.2351 39.4534 64.1262 39.5711 64.1262H43.5406C43.6553 64.1262 43.7524 64.2351 43.7524 64.3675C43.7524 64.5029 43.6583 64.6088 43.5406 64.6088ZM39.5741 64.2439C39.524 64.2439 39.4799 64.2998 39.4799 64.3675C39.4799 64.4352 39.524 64.4911 39.5741 64.4911H43.5435C43.5936 64.4911 43.6377 64.4352 43.6377 64.3675C43.6377 64.2998 43.5936 64.2439 43.5435 64.2439H39.5741Z" fill="black"/>
<path d="M42.1606 64.238H41.016V64.1791H40.9571C40.9601 63.6789 41.1719 63.3964 41.3455 63.2493C41.3485 63.2493 41.5015 63.1228 41.5574 63.1316C41.5898 63.1316 42.1547 63.3964 42.1606 64.1791V64.238ZM41.0748 64.1203H42.04C42.0135 63.5259 41.6427 63.3023 41.5486 63.2522C41.4603 63.2993 41.1013 63.5259 41.0748 64.1203ZM43.4612 62.4725H39.6565C39.5447 62.4725 39.4535 62.3724 39.4535 62.2488C39.4535 62.1253 39.5447 62.0252 39.6565 62.0252H43.4612C43.573 62.0252 43.6643 62.1253 43.6643 62.2488C43.6672 62.3724 43.573 62.4725 43.4612 62.4725ZM39.6565 62.1429C39.6094 62.1429 39.5682 62.1929 39.5682 62.2488C39.5682 62.3048 39.6094 62.3548 39.6565 62.3548H43.4612C43.5083 62.3548 43.5495 62.3077 43.5495 62.2488C43.5495 62.19 43.5083 62.1429 43.4612 62.1429H39.6565ZM42.0782 60.5922H41.0454C40.9424 60.5922 40.8541 60.5098 40.8541 60.4127V59.9184L40.8953 59.8919H40.913H41.2602V60.0949H41.3514V59.886H41.7634V60.092H41.8575V59.8831H42.2695V60.4098C42.2665 60.5128 42.1871 60.5922 42.0782 60.5922ZM40.9718 60.0037V60.4098C40.9718 60.4421 41.0071 60.4745 41.0483 60.4745H42.0812C42.1135 60.4745 42.1518 60.4539 42.1518 60.4127V60.0008H41.9752V60.2097H41.6486V60.0037H41.4721V60.2126H41.1454V60.0096L40.9718 60.0037Z" fill="black"/>
<path d="M43.3759 62.802H39.736C39.6271 62.802 39.5388 62.7019 39.5388 62.5783C39.5388 62.4548 39.6271 62.3547 39.736 62.3547H43.3759C43.4847 62.3547 43.573 62.4548 43.573 62.5783C43.573 62.7019 43.4847 62.802 43.3759 62.802ZM39.736 62.4754C39.6918 62.4754 39.6565 62.5224 39.6565 62.5813C39.6565 62.6401 39.6948 62.6872 39.736 62.6872H43.3759C43.42 62.6872 43.4553 62.6401 43.4553 62.5813C43.4553 62.5224 43.4171 62.4754 43.3759 62.4754H39.736ZM42.1194 62.137L40.9895 62.134L41.0601 60.5127L42.0488 60.5156L42.1194 62.137ZM41.1131 62.0163L41.9988 62.0193L41.9399 60.6304L41.1749 60.6275L41.1131 62.0163ZM39.7683 62.1399L39.8007 61.213H40.8218L40.8571 62.1399H39.7683ZM39.9125 61.3278L39.889 62.0222H40.7335L40.707 61.3278H39.9125ZM42.2548 62.1399L42.2871 61.213H43.3082L43.3435 62.1399H42.2548ZM42.399 61.3278L42.3754 62.0222H43.2199L43.1934 61.3278H42.399Z" fill="black"/>
<path d="M40.8218 61.3278H39.8095C39.7065 61.3278 39.6212 61.2454 39.6212 61.1483V60.6539L39.6624 60.6275H39.6801H40.0185V60.8305H40.1067V60.6216L40.5128 60.6245V60.8305H40.6011V60.6216H41.0071V61.1483C41.0042 61.2483 40.9248 61.3278 40.8218 61.3278ZM39.736 60.7422V61.1483C39.736 61.1807 39.7713 61.213 39.8095 61.213H40.8218C40.8541 61.213 40.8894 61.1924 40.8894 61.1512V60.7393H40.7188V60.9482H40.3951V60.7393H40.2244V60.9482H39.9008V60.7452L39.736 60.7422ZM43.3053 61.3278H42.293C42.19 61.3278 42.1047 61.2454 42.1047 61.1483V60.6539L42.1459 60.6275H42.1636H42.502V60.8305H42.5902V60.6216L42.9963 60.6245V60.8305H43.0846V60.6216H43.4906V61.1483C43.4877 61.2513 43.4112 61.3278 43.3053 61.3278ZM42.2224 60.7422V61.1483C42.2224 61.1807 42.2577 61.213 42.296 61.213H43.3082C43.3406 61.213 43.3759 61.1924 43.3759 61.1512V60.7393H43.2052V60.9482H42.8815V60.7393H42.7109V60.9482H42.3872V60.7452L42.2224 60.7422ZM41.4574 61.0483C41.4515 60.9011 41.6633 60.9011 41.6604 61.0483V61.4072H41.4574V61.0483ZM40.2097 61.5691C40.2097 61.4278 40.4069 61.4249 40.4039 61.5691V61.8457H40.2097V61.5691ZM42.702 61.5691C42.702 61.4278 42.8992 61.4249 42.8962 61.5691V61.8457H42.702V61.5691ZM42.7403 74.9664C42.6814 74.9664 42.6226 74.9429 42.5785 74.8987C42.4902 74.8134 42.4843 74.678 42.5637 74.5986L45.2444 71.9091C45.2797 71.8738 45.3297 71.8532 45.3827 71.8532C45.4415 71.8532 45.5033 71.8797 45.5475 71.9209C45.6357 72.0062 45.6416 72.1416 45.5622 72.221L42.8815 74.9105C42.8403 74.9458 42.7903 74.9664 42.7403 74.9664ZM42.6461 74.678C42.6138 74.7104 42.6196 74.7751 42.6608 74.8134C42.702 74.8546 42.7638 74.8605 42.7991 74.8252L45.4798 72.1357C45.5122 72.1033 45.5063 72.0386 45.4651 72.0003C45.4415 71.9768 45.4121 71.965 45.3856 71.965C45.3709 71.9591 45.3474 71.968 45.3297 71.9856L42.6461 74.678Z" fill="black"/>
<path d="M43.0374 75.1401C42.9785 75.1401 42.9197 75.1165 42.8726 75.0695C42.7843 74.9841 42.7755 74.8488 42.855 74.7723L45.4179 72.2005C45.4944 72.124 45.6298 72.1299 45.7151 72.2181C45.7592 72.2623 45.7857 72.3241 45.7857 72.3829C45.7857 72.4329 45.7681 72.48 45.7328 72.5153L43.1698 75.0871C43.1345 75.1224 43.0874 75.1401 43.0374 75.1401ZM45.5503 72.2652C45.5297 72.2652 45.5121 72.2711 45.5003 72.2829L42.9373 74.8546C42.9079 74.887 42.9138 74.9459 42.955 74.9871C42.9962 75.0283 43.058 75.0341 43.0874 75.0047L45.6504 72.4329C45.6651 72.4182 45.668 72.3976 45.668 72.3829C45.668 72.3535 45.6533 72.3241 45.6298 72.3005C45.6092 72.277 45.5797 72.2652 45.5503 72.2652ZM42.3783 72.6595C42.3312 72.6595 42.2871 72.6419 42.2547 72.6095L41.881 72.2417L41.9222 72.2005L41.9634 72.2417L41.9222 72.2005L42.1664 71.9563L42.3106 72.1004L42.3753 72.0357L42.2282 71.8886L42.5195 71.5973L42.6666 71.7415L42.7314 71.6767L42.5842 71.5296L42.8756 71.2383L43.2522 71.612C43.2875 71.6444 43.3052 71.6885 43.3052 71.7356C43.3052 71.7856 43.2846 71.8327 43.2493 71.8709L42.5225 72.6007C42.4783 72.6419 42.4283 72.6595 42.3783 72.6595ZM42.0458 72.2417L42.3341 72.5271C42.3577 72.5506 42.4048 72.5477 42.4342 72.5183L43.161 71.7885C43.1757 71.7738 43.1845 71.7562 43.1845 71.7356C43.1845 71.7356 43.1786 71.7061 43.1669 71.6944L42.8756 71.4031L42.752 71.5296L42.8991 71.6767L42.6696 71.9092L42.5225 71.762L42.3959 71.8886L42.5431 72.0357L42.3135 72.2682L42.1693 72.124L42.0458 72.2417Z" fill="black"/>
<path d="M43.5759 73.7275L42.4724 72.5328L43.1727 71.8384L44.3762 72.9301L43.5759 73.7275ZM42.6343 72.5387L43.5788 73.5598L44.2056 72.9359L43.1757 72.0002L42.6343 72.5387ZM45.053 75.237L45.0118 75.1958C44.6705 74.8545 44.6116 74.522 44.6205 74.3013C44.6263 74.1953 44.6528 74.06 44.6822 74.0335L44.697 74.0247C44.7205 74.0159 45.2914 73.7922 45.8563 74.3454L45.8975 74.3866L45.053 75.237ZM44.7676 74.1247C44.7382 74.2218 44.6411 74.6279 45.053 75.0693L45.7327 74.3866C45.2943 73.9894 44.8706 74.0894 44.7676 74.1247Z" fill="black"/>
<path d="M44.2027 76.5318C44.1409 76.5318 44.0732 76.5053 44.0232 76.4553C43.9291 76.3611 43.9173 76.2169 43.9997 76.1375L46.7951 73.3333C46.8363 73.2921 46.8951 73.2715 46.9569 73.2774C47.0158 73.2832 47.0717 73.3097 47.1158 73.3539C47.21 73.448 47.2217 73.5893 47.1394 73.6717L44.344 76.4759C44.3057 76.5141 44.2557 76.5318 44.2027 76.5318ZM44.0821 76.2169C44.0468 76.2522 44.0556 76.3229 44.1056 76.37C44.1527 76.417 44.2233 76.4259 44.2586 76.3905L47.054 73.5863C47.0893 73.551 47.0805 73.4804 47.0305 73.4333C47.0069 73.4098 46.9746 73.3921 46.9422 73.3892C46.9157 73.3862 46.8922 73.3951 46.8745 73.4098L44.0821 76.2169Z" fill="black"/>
<path d="M44.0791 76.2141L43.0905 74.9959L43.0728 74.9576L43.1022 74.9282L45.6122 72.3976L46.8922 73.3981L46.1213 74.172L46.0801 74.1337C45.265 73.3628 44.4734 73.8071 44.4646 73.813C44.4676 73.813 43.9703 74.5545 44.8148 75.4019L44.856 75.4431L44.0791 76.2141ZM43.2199 74.9753L44.088 76.0405L44.6853 75.4431C44.238 74.9723 44.1792 74.528 44.2086 74.2338C44.2233 74.1013 44.2557 73.9836 44.291 73.8924L43.2199 74.9753ZM45.0296 73.5658C45.315 73.5658 45.7122 73.6511 46.1124 74.0131L46.7098 73.4128L45.6151 72.5595L44.5264 73.657C44.6323 73.6188 44.7854 73.5776 44.9619 73.5687C44.9854 73.5658 45.009 73.5658 45.0296 73.5658ZM41.4574 50.2433C41.4515 50.0962 41.6633 50.0962 41.6604 50.2433V50.6023H41.4574V50.2433ZM40.2097 50.7641C40.2097 50.6229 40.4069 50.62 40.4039 50.7641V51.0407H40.2097V50.7641ZM42.702 50.7641C42.702 50.6229 42.8992 50.62 42.8962 50.7641V51.0407H42.702V50.7641ZM43.3053 50.5229H42.293C42.19 50.5229 42.1047 50.4405 42.1047 50.3434V49.849L42.1459 49.8225H42.1636H42.502V50.0256H42.5902V49.8167L42.9963 49.8196V50.0256H43.0846V49.8167H43.4906V50.3434C43.4877 50.4434 43.4082 50.5229 43.3053 50.5229ZM42.2224 49.9373V50.3434C42.2224 50.3757 42.2577 50.4081 42.296 50.4081H43.3082C43.3406 50.4081 43.3759 50.3875 43.3759 50.3463V49.9344H43.2052V50.1433H42.8815V49.9344H42.7109V50.1433H42.3872V49.9402L42.2224 49.9373ZM40.8218 50.5229H39.8095C39.7065 50.5229 39.6212 50.4405 39.6212 50.3434V49.849L39.6624 49.8225H39.6801H40.0185V50.0256H40.1067V49.8167L40.5128 49.8196V50.0256H40.6011V49.8167H41.0071V50.3434C41.0042 50.4434 40.9248 50.5229 40.8218 50.5229ZM39.736 49.9373V50.3434C39.736 50.3757 39.7713 50.4081 39.8095 50.4081H40.8218C40.8541 50.4081 40.8894 50.3875 40.8894 50.3463V49.9344H40.7188V50.1433H40.3951V49.9344H40.2244V50.1433H39.9008V49.9402L39.736 49.9373Z" fill="black"/>
<path d="M42.2547 51.335L42.2871 50.4081H43.3082L43.3435 51.335H42.2547ZM42.3989 50.5228L42.3754 51.2173H43.2199L43.1934 50.5228H42.3989ZM39.7683 51.335L39.8007 50.4081H40.8217L40.857 51.335H39.7683ZM39.9125 50.5228L39.889 51.2173H40.7335L40.707 50.5228H39.9125ZM42.1194 51.332L40.9895 51.3291L41.0601 49.7078L42.0488 49.7107L42.1194 51.332ZM41.113 51.2114L41.9987 51.2143L41.9399 49.8255L41.1748 49.8225L41.113 51.2114Z" fill="black"/>
<path d="M42.0782 49.7841H41.0454C40.9424 49.7841 40.8541 49.7017 40.8541 49.6046V49.1103L40.8953 49.0838H40.913H41.2602V49.2868H41.3514V49.0779H41.7634V49.2839H41.8575V49.075H42.2695V49.6017C42.2665 49.7076 42.1871 49.7841 42.0782 49.7841ZM40.9718 49.1985V49.6046C40.9718 49.637 41.0071 49.6693 41.0483 49.6693H42.0812C42.1135 49.6693 42.1518 49.6487 42.1518 49.6075V49.1956H41.9752V49.4045H41.6486V49.1985H41.4721V49.4075H41.1454V49.2044L40.9718 49.1985ZM43.3759 51.9969H39.736C39.6271 51.9969 39.5388 51.8968 39.5388 51.7732C39.5388 51.6497 39.6271 51.5496 39.736 51.5496H43.3759C43.4847 51.5496 43.573 51.6497 43.573 51.7732C43.573 51.8968 43.4847 51.9969 43.3759 51.9969ZM39.736 51.6703C39.6918 51.6703 39.6565 51.7173 39.6565 51.7762C39.6565 51.835 39.6948 51.8821 39.736 51.8821H43.3759C43.42 51.8821 43.4553 51.835 43.4553 51.7762C43.4553 51.7173 43.4171 51.6703 43.3759 51.6703H39.736Z" fill="black"/>
<path d="M43.4612 51.6675H39.6565C39.5447 51.6675 39.4535 51.5674 39.4535 51.4438C39.4535 51.3203 39.5447 51.2202 39.6565 51.2202H43.4612C43.573 51.2202 43.6643 51.3203 43.6643 51.4438C43.6672 51.5674 43.573 51.6675 43.4612 51.6675ZM39.6565 51.3379C39.6094 51.3379 39.5682 51.3879 39.5682 51.4438C39.5682 51.4998 39.6094 51.5498 39.6565 51.5498H43.4612C43.5083 51.5498 43.5495 51.5027 43.5495 51.4438C43.5495 51.385 43.5083 51.3379 43.4612 51.3379H39.6565ZM42.1606 53.433H41.016V53.3741H40.9571C40.9601 52.8739 41.1719 52.5914 41.3455 52.4443C41.3485 52.4443 41.5015 52.3178 41.5574 52.3266C41.5898 52.3237 42.1547 52.5914 42.1606 53.3741V53.433ZM41.0748 53.3153H42.04C42.0135 52.7209 41.6427 52.4973 41.5486 52.4472C41.4603 52.4943 41.1013 52.7209 41.0748 53.3153Z" fill="black"/>
<path d="M43.5406 53.8036H39.5711C39.4564 53.8036 39.3593 53.6947 39.3593 53.5623C39.3593 53.4299 39.4534 53.321 39.5711 53.321H43.5406C43.6553 53.321 43.7524 53.4299 43.7524 53.5623C43.7524 53.6977 43.6583 53.8036 43.5406 53.8036ZM39.5741 53.4387C39.524 53.4387 39.4799 53.4947 39.4799 53.5623C39.4799 53.63 39.524 53.6859 39.5741 53.6859H43.5435C43.5936 53.6859 43.6377 53.63 43.6377 53.5623C43.6377 53.4947 43.5936 53.4387 43.5435 53.4387H39.5741Z" fill="black"/>
<path d="M40.6658 53.436L39.5741 53.433L39.7448 51.8764L39.7595 51.8352L43.3729 51.8264L43.5612 53.436H42.4607V53.3801C42.4372 52.2619 41.5603 52.0147 41.5515 52.0118C41.5544 52.0147 40.6746 52.1854 40.6658 53.3771V53.436ZM42.5755 53.3183H43.4259L43.264 51.9441L41.7163 51.9471C41.8192 51.9941 41.9575 52.0765 42.09 52.1972C42.2989 52.3914 42.549 52.7415 42.5755 53.3183ZM39.7036 53.3183L40.551 53.3212C40.5716 52.6768 40.8453 52.3208 41.0748 52.1354C41.1807 52.05 41.2896 51.9912 41.3808 51.9529L39.8507 51.9559L39.7036 53.3183Z" fill="black"/>
<path d="M52.2093 79.9921C48.6576 79.9921 45.2973 78.6003 42.749 76.0756C40.2038 73.5539 38.8031 70.2229 38.8031 66.7007L38.9208 66.689V66.7007C38.9208 70.1906 40.3097 73.4921 42.8314 75.9903C45.3561 78.4944 48.6871 79.8715 52.2063 79.8715C55.7433 79.8715 59.0742 78.5003 61.5842 76.0109C64.0824 73.5333 65.4654 70.2494 65.4771 66.7596V66.7125V48.8514L38.9355 48.8484L38.9179 66.6919H38.8002L38.8178 48.7307L65.5948 48.7366V66.7184C65.5948 70.2583 64.2001 73.5892 61.6666 76.1021C59.1389 78.6091 55.7786 79.9921 52.2093 79.9921ZM52.2004 74.728C50.1171 74.728 48.1221 73.8864 46.5773 72.3533C45.0736 70.8615 44.2115 68.8105 44.2115 66.7243L44.2085 54.0626H44.2674L60.2012 54.092L60.2365 54.1273V54.1509V65.5561L60.2277 66.7625C60.2277 67.095 60.2071 67.457 60.1718 67.7571C59.9628 69.505 59.1654 71.1057 57.8736 72.3886C56.3553 73.8982 54.3397 74.728 52.2004 74.728ZM44.3262 54.1832L44.3292 66.7272C44.3292 68.7811 45.1796 70.8026 46.6597 72.2709C48.181 73.7805 50.1466 74.6103 52.1975 74.6103C54.3044 74.6103 56.2906 73.7922 57.7883 72.3092C59.0624 71.0439 59.8481 69.4667 60.0541 67.7453C60.0894 67.4511 60.11 67.0921 60.11 66.7655L60.1188 65.559V54.2126L44.3262 54.1832Z" fill="black"/>
<path d="M52.224 80.5837C48.5517 80.5837 45.056 79.1183 42.3783 76.4612C39.7447 73.8482 38.2882 70.4025 38.2676 66.7479L38.2646 48.0981L66.2275 48.1305V66.6802C66.2275 70.3849 64.768 73.8747 62.1197 76.5053C59.4685 79.133 55.9551 80.5837 52.224 80.5837ZM38.4206 66.589V66.6684C38.4206 70.3113 39.8654 73.7482 42.4872 76.3494C45.1355 78.98 48.5929 80.4277 52.224 80.4277C55.9139 80.4277 59.3891 78.9947 62.0079 76.3935C64.615 73.807 66.0539 70.379 66.0715 66.7361V66.6802V48.2865L38.4206 48.2541V66.589Z" fill="black"/>
<path d="M52.9596 51.3349L52.992 50.408H54.013L54.0483 51.3349H52.9596ZM53.1038 50.5227L53.0802 51.2172H53.9247L53.8983 50.5227H53.1038Z" fill="black"/>
<path d="M54.0101 50.5229H52.9979C52.8949 50.5229 52.8095 50.4405 52.8095 50.3434V49.849L52.8507 49.8225H52.8684H53.2068V50.0256H53.2951V49.8167L53.7011 49.8196V50.0256H53.7894V49.8167H54.1955V50.3434C54.1955 50.4434 54.1131 50.5229 54.0101 50.5229ZM52.9272 49.9373V50.3434C52.9272 50.3757 52.9626 50.4081 53.0008 50.4081H54.013C54.0454 50.4081 54.0807 50.3875 54.0807 50.3463V49.9344H53.91V50.1433H53.5864V49.9344H53.4157V50.1433H53.092V49.9402L52.9272 49.9373ZM51.5266 50.5229H50.5144C50.4114 50.5229 50.326 50.4405 50.326 50.3434V49.849L50.3672 49.8225H50.3849H50.7233V50.0256H50.8116V49.8167L51.2176 49.8196V50.0256H51.3059V49.8167H51.712V50.3434C51.709 50.4434 51.6296 50.5229 51.5266 50.5229ZM50.4408 49.9373V50.3434C50.4408 50.3757 50.4761 50.4081 50.5144 50.4081H51.5266C51.559 50.4081 51.5943 50.3875 51.5943 50.3463V49.9344H51.4236V50.1433H51.0999V49.9344H50.9293V50.1433H50.6056V49.9402L50.4408 49.9373ZM52.1622 50.2433C52.1563 50.0962 52.3682 50.0962 52.3652 50.2433V50.6023H52.1622V50.2433ZM50.9146 50.7641C50.9146 50.6229 51.1117 50.62 51.1088 50.7641V51.0407H50.9146V50.7641ZM53.4069 50.7641C53.4069 50.6229 53.604 50.62 53.6011 50.7641V51.0407H53.4069V50.7641Z" fill="black"/>
<path d="M50.4731 51.335L50.5055 50.4081H51.5266L51.5619 51.335H50.4731ZM50.6173 50.5228L50.5938 51.2173H51.4383L51.4118 50.5228H50.6173ZM52.8272 51.332L51.6972 51.3291L51.7679 49.7078L52.7565 49.7107L52.8272 51.332ZM51.8179 51.2114L52.7036 51.2143L52.6447 49.8255L51.8797 49.8225L51.8179 51.2114Z" fill="black"/>
<path d="M52.786 49.7841H51.7532C51.6502 49.7841 51.5619 49.7017 51.5619 49.6046V49.1103L51.6031 49.0838H51.6208H51.968V49.2868H52.0592V49.0779H52.4711V49.2839H52.5653V49.075H52.9773V49.6017C52.9714 49.7076 52.8919 49.7841 52.786 49.7841ZM51.6767 49.1985V49.6046C51.6767 49.637 51.712 49.6693 51.7532 49.6693H52.786C52.8184 49.6693 52.8566 49.6487 52.8566 49.6075V49.1956H52.6801V49.4045H52.3534V49.1985H52.1769V49.4075H51.8473V49.2044L51.6767 49.1985ZM54.0807 51.9969H50.4408C50.3319 51.9969 50.2437 51.8968 50.2437 51.7732C50.2437 51.6497 50.3319 51.5496 50.4408 51.5496H54.0807C54.1896 51.5496 54.2779 51.6497 54.2779 51.7732C54.2779 51.8968 54.1896 51.9969 54.0807 51.9969ZM50.4408 51.6703C50.3967 51.6703 50.3614 51.7173 50.3614 51.7762C50.3614 51.835 50.3996 51.8821 50.4408 51.8821H54.0807C54.1248 51.8821 54.1602 51.835 54.1602 51.7762C54.1602 51.7173 54.1219 51.6703 54.0807 51.6703H50.4408Z" fill="black"/>
<path d="M54.1661 51.6675H50.3614C50.2495 51.6675 50.1583 51.5674 50.1583 51.4438C50.1583 51.3203 50.2495 51.2202 50.3614 51.2202H54.1661C54.2779 51.2202 54.3691 51.3203 54.3691 51.4438C54.372 51.5674 54.2808 51.6675 54.1661 51.6675ZM50.3614 51.3379C50.3143 51.3379 50.2731 51.3879 50.2731 51.4438C50.2731 51.4998 50.3143 51.5498 50.3614 51.5498H54.1661C54.2131 51.5498 54.2543 51.5027 54.2543 51.4438C54.2543 51.385 54.2131 51.3379 54.1661 51.3379H50.3614ZM52.8655 53.433H51.7208V53.3741H51.662C51.6649 52.8739 51.8768 52.5914 52.0504 52.4443C52.0533 52.4443 52.2063 52.3178 52.2622 52.3266C52.3034 52.3266 52.8596 52.5944 52.8625 53.3741L52.8655 53.433ZM51.7797 53.3153H52.7448C52.7183 52.7209 52.3476 52.4973 52.2534 52.4472C52.1651 52.4943 51.8061 52.7209 51.7797 53.3153Z" fill="black"/>
<path d="M54.2455 53.8036H50.2761C50.1613 53.8036 50.0642 53.6947 50.0642 53.5623C50.0642 53.4299 50.1584 53.321 50.2761 53.321H54.2455C54.3603 53.321 54.4574 53.4299 54.4574 53.5623C54.4574 53.6977 54.3632 53.8036 54.2455 53.8036ZM50.279 53.4387C50.229 53.4387 50.1849 53.4947 50.1849 53.5623C50.1849 53.63 50.229 53.6859 50.279 53.6859H54.2485C54.2985 53.6859 54.3426 53.63 54.3426 53.5623C54.3426 53.4947 54.2985 53.4387 54.2485 53.4387H50.279Z" fill="black"/>
<path d="M51.3707 53.436L50.2791 53.433L50.4468 51.8352L54.0749 51.8264L54.2632 53.436H53.1686V53.3801C53.1451 52.2619 52.2682 52.0147 52.2594 52.0118C52.2623 52.0147 51.3825 52.1854 51.3737 53.3771L51.3707 53.436ZM53.2804 53.3183H54.1308L53.969 51.9441L52.4212 51.9471C52.5242 51.9941 52.6625 52.0765 52.7949 52.1972C53.0038 52.3914 53.254 52.7415 53.2804 53.3183ZM50.4085 53.3183L51.256 53.3212C51.2766 52.6768 51.5502 52.3208 51.7797 52.1354C51.8857 52.05 51.9945 51.9912 52.0858 51.9529L50.5557 51.9559L50.4085 53.3183ZM60.0777 72.121C60.1777 72.021 60.0424 71.8797 59.9423 71.9857L59.7452 72.1799L59.8805 72.3182L60.0777 72.121ZM61.3253 72.633C61.4342 72.533 61.2871 72.3829 61.1811 72.4889L60.9251 72.7419L61.0693 72.8861L61.3253 72.633ZM61.8344 73.8836C61.9344 73.7836 61.7991 73.6423 61.699 73.7483L61.5019 73.9425L61.6372 74.0778L61.8344 73.8836ZM60.675 72.2976C60.625 72.2976 60.575 72.2799 60.5396 72.2417L59.8276 71.5266C59.754 71.4531 59.754 71.3413 59.8246 71.2706L60.2013 70.8999L60.4867 71.1853L60.3396 71.3324L60.4014 71.3942L60.5485 71.2471L60.8339 71.5325L60.6868 71.6797L60.7486 71.7414L60.8928 71.5973L61.1546 71.8592L61.1429 71.9062L60.8015 72.2446C60.7662 72.2799 60.7191 72.2976 60.675 72.2976ZM60.1983 71.0617L59.907 71.3501C59.8776 71.3795 59.8864 71.4178 59.91 71.4413L60.622 72.1563C60.6485 72.1828 60.6956 72.1858 60.7191 72.1622L61.0075 71.8768L60.8928 71.762L60.7486 71.9062L60.522 71.6797L60.6691 71.5325L60.5485 71.4119L60.4014 71.559L60.1748 71.3295L60.3219 71.1824L60.1983 71.0617ZM62.4258 74.0513C62.3758 74.0513 62.3258 74.0337 62.2875 73.9954L61.5754 73.2804C61.5019 73.2068 61.5019 73.095 61.5725 73.0244L61.9491 72.6536L62.2345 72.9391L62.0874 73.0862L62.1492 73.148L62.2963 73.0009L62.5818 73.2863L62.4346 73.4334L62.4964 73.4952L62.6406 73.351L62.8966 73.607V73.657L62.5494 74.0013C62.517 74.0366 62.4699 74.0513 62.4258 74.0513ZM61.9491 72.8184L61.6578 73.1068C61.6284 73.1362 61.6372 73.1745 61.6608 73.198L62.3728 73.913C62.3993 73.9395 62.4464 73.9425 62.4699 73.9189L62.7583 73.6335L62.6436 73.5187L62.4994 73.6629L62.2728 73.4363L62.4199 73.2892L62.2993 73.1686L62.1522 73.3157L61.9256 73.0862L62.0727 72.9391L61.9491 72.8184Z" fill="black"/>
<path d="M59.9864 72.8418L59.2213 72.0738L59.9069 71.4441L60.6249 72.165L59.9864 72.8418ZM59.389 72.0767L59.9834 72.6741L60.4631 72.168L59.904 71.6059L59.389 72.0767ZM61.7372 74.5985L60.9721 73.8305L61.6165 73.239L61.6548 73.2802L61.696 73.239L61.7372 73.2802L62.3728 73.9188L61.7372 74.5985ZM61.1398 73.8305L61.7342 74.4278L62.2139 73.9217L61.6548 73.3597L61.1398 73.8305ZM60.8838 73.7275L60.0835 72.933L61.287 71.8413L61.9873 72.5358L60.8838 73.7275ZM60.2541 72.936L60.8809 73.5598L61.8255 72.5387L61.284 72.0002L60.2541 72.936Z" fill="black"/>
<path d="M62.0815 72.6595C62.0315 72.6595 61.9815 72.6389 61.9432 72.6007L61.2164 71.8709C61.1811 71.8356 61.1605 71.7856 61.1605 71.7356C61.1605 71.6885 61.1811 71.6443 61.2135 71.612L61.5901 71.2412L61.8814 71.5325L61.7343 71.6796L61.799 71.7444L61.9462 71.5973L62.2375 71.8886L62.0903 72.0357L62.1551 72.1004L62.2993 71.9562L62.5553 72.2152L62.5729 72.2534L62.211 72.6095C62.1727 72.6448 62.1257 72.6595 62.0815 72.6595ZM61.5842 71.406L61.2929 71.6944C61.2812 71.7061 61.2753 71.7208 61.2753 71.7208C61.2753 71.7562 61.2841 71.7738 61.2988 71.7885L62.0256 72.5183C62.0521 72.5448 62.1021 72.5477 62.1257 72.5271L62.414 72.2417L62.2934 72.121L62.1492 72.2652L61.9197 72.0328L62.0668 71.8856L61.9403 71.762L61.7932 71.9092L61.5636 71.6767L61.7108 71.5296L61.5842 71.406ZM61.4224 75.1401C61.3724 75.1401 61.3253 75.1224 61.29 75.0871L58.727 72.5153C58.6917 72.48 58.6741 72.4359 58.6741 72.3829C58.6741 72.3241 58.7006 72.2623 58.7447 72.2181C58.7859 72.1769 58.8389 72.1534 58.8918 72.1475C58.9507 72.1446 59.0036 72.1622 59.0419 72.2005L61.6048 74.7722C61.6813 74.8488 61.6725 74.9812 61.5872 75.0694C61.5401 75.1165 61.4783 75.1401 61.4224 75.1401ZM58.9095 72.2652C58.9065 72.2652 58.9036 72.2652 58.9006 72.2652C58.8742 72.2682 58.8477 72.2799 58.8271 72.3005C58.8035 72.3241 58.7888 72.3535 58.7888 72.3829C58.7888 72.3976 58.7918 72.4182 58.8065 72.4329L61.3694 75.0047C61.3989 75.0341 61.4606 75.0282 61.5018 74.9871C61.543 74.9459 61.5519 74.887 61.5195 74.8546L58.9566 72.2829C58.9418 72.2682 58.9212 72.2652 58.9095 72.2652Z" fill="black"/>
<path d="M61.7196 74.9665C61.6666 74.9665 61.6166 74.9488 61.5813 74.9106L58.9007 72.2211C58.8212 72.1416 58.8271 72.0063 58.9154 71.921C58.9595 71.8768 59.0184 71.8533 59.0772 71.8533C59.1302 71.8533 59.1802 71.8739 59.2155 71.9092L61.8962 74.5987C61.9756 74.6781 61.9697 74.8135 61.8814 74.8988C61.8373 74.9429 61.7785 74.9665 61.7196 74.9665ZM59.0772 71.968C59.0478 71.968 59.0184 71.9798 58.9978 72.0033C58.9566 72.0445 58.9507 72.1063 58.9831 72.1387L61.6637 74.8282C61.6961 74.8605 61.7608 74.8547 61.802 74.8164C61.8432 74.7752 61.8491 74.7134 61.8167 74.681L59.1361 71.9916C59.1155 71.971 59.0949 71.968 59.0772 71.968ZM59.4068 75.2372L58.5593 74.3868L58.6005 74.3456C59.1655 73.7924 59.7363 74.016 59.7599 74.0249L59.7746 74.0337C59.804 74.0602 59.8334 74.1955 59.8364 74.3015C59.8452 74.5221 59.7864 74.8547 59.445 75.196L59.4068 75.2372ZM58.7271 74.3868L59.4068 75.0695C59.8187 74.6281 59.7246 74.2191 59.6922 74.1249C59.5892 74.0896 59.1655 73.9895 58.7271 74.3868Z" fill="black"/>
<path d="M60.2571 76.5318C60.2042 76.5318 60.1541 76.5141 60.1159 76.4759L57.3205 73.6717C57.2381 73.5893 57.2499 73.448 57.344 73.3539C57.3882 73.3097 57.4441 73.2832 57.5029 73.2774C57.5647 73.2715 57.6236 73.2921 57.6648 73.3333L60.4602 76.1375C60.5425 76.2199 60.5308 76.3611 60.4366 76.4553C60.3836 76.5053 60.3189 76.5318 60.2571 76.5318ZM57.5235 73.3921C57.5206 73.3921 57.5176 73.3921 57.5147 73.3921C57.4823 73.3951 57.4529 73.4098 57.4264 73.4362C57.3793 73.4833 57.3676 73.554 57.4029 73.5893L60.1983 76.3935C60.2336 76.4288 60.3042 76.42 60.3513 76.3729C60.3984 76.3258 60.4101 76.2552 60.3748 76.2199L57.5794 73.4157C57.5677 73.4009 57.5471 73.3921 57.5235 73.3921Z" fill="black"/>
<path d="M60.3807 76.214L59.6097 75.4431L59.6509 75.4019C60.4925 74.5545 59.9981 73.8129 59.9922 73.8041C59.9893 73.8041 59.1978 73.3627 58.3856 74.1337L58.3444 74.1719L57.5735 73.398L58.8535 72.3976L61.3988 74.9635L61.3664 75.0047L60.3807 76.214ZM59.7745 75.4431L60.3718 76.0404L61.2399 74.9752L60.1659 73.8924C60.2012 73.9836 60.2365 74.1013 60.2512 74.2337C60.2777 74.528 60.2188 74.9723 59.7745 75.4431ZM57.7471 73.4098L58.3444 74.0101C58.777 73.6217 59.2066 73.554 59.492 73.5658C59.6686 73.5746 59.8216 73.6128 59.9275 73.654L58.8388 72.5565L57.7471 73.4098ZM61.7578 61.5691C61.7578 61.4278 61.5606 61.4249 61.5636 61.5691V61.8457H61.7578V61.5691ZM64.2501 61.5691C64.2501 61.4278 64.0529 61.4249 64.0559 61.5691V61.8457H64.2501V61.5691ZM63.0024 61.0483C63.0083 60.9011 62.7965 60.9011 62.7994 61.0483V61.4072H63.0024V61.0483ZM62.1638 61.3278H61.1516C61.0457 61.3278 60.9662 61.2513 60.9662 61.1483V60.6216H61.3723V60.8305H61.4606V60.6245L61.8666 60.6216V60.8305H61.9549V60.6275H62.311L62.3522 60.6539V61.1483C62.3551 61.2454 62.2668 61.3278 62.1638 61.3278ZM61.0869 60.7363V61.1483C61.0869 61.1924 61.1222 61.2101 61.1545 61.2101H62.1668C62.205 61.2101 62.2403 61.1807 62.2403 61.1454V60.7393H62.0756V60.9423H61.7519V60.7334H61.5812V60.9423H61.2575V60.7334L61.0869 60.7363ZM64.6503 61.3278H63.638C63.5351 61.3278 63.4527 61.2483 63.4527 61.1483V60.6216H63.8587V60.8305H63.947V60.6245L64.3531 60.6216V60.8305H64.4413V60.6275H64.7974L64.8386 60.6539V61.1483C64.8386 61.2454 64.7533 61.3278 64.6503 61.3278ZM63.5704 60.7363V61.1483C63.5704 61.1924 63.6057 61.2101 63.638 61.2101H64.6503C64.6885 61.2101 64.7238 61.1807 64.7238 61.1454V60.7393H64.5591V60.9423H64.2354V60.7334H64.0647V60.9423H63.741V60.7334L63.5704 60.7363Z" fill="black"/>
<path d="M62.2051 62.1399H61.1163L61.1516 61.213H62.1727L62.2051 62.1399ZM61.2399 62.0222H62.0844L62.0609 61.3278H61.2664L61.2399 62.0222ZM64.6915 62.1399H63.6028L63.6381 61.213H64.6591L64.6915 62.1399ZM63.7234 62.0222H64.5679L64.5444 61.3278H63.7499L63.7234 62.0222ZM62.3375 62.137L62.4081 60.5156L63.3968 60.5127L63.4674 62.134L62.3375 62.137ZM62.5199 60.6304L62.4611 62.0193L63.3468 62.0163L63.285 60.6275L62.5199 60.6304Z" fill="black"/>
<path d="M63.4115 60.5922H62.3787C62.2728 60.5922 62.1904 60.5157 62.1904 60.4127V59.886H62.6023V60.0949H62.6965V59.8889H63.1085V60.0978H63.1997V59.8948H63.5645L63.6057 59.9213V60.4156C63.6057 60.5069 63.5175 60.5922 63.4115 60.5922ZM62.3081 60.0007V60.4127C62.3081 60.4568 62.3434 60.4745 62.3787 60.4745H63.4115C63.4498 60.4745 63.4851 60.4421 63.488 60.4098V60.0037H63.3174V60.2067H62.9907V59.9978H62.8142V60.2038H62.4876V59.9949H62.3081V60.0007ZM64.7239 62.802H61.084C60.9751 62.802 60.8868 62.702 60.8868 62.5784C60.8868 62.4548 60.9751 62.3548 61.084 62.3548H64.7239C64.8328 62.3548 64.921 62.4548 64.921 62.5784C64.921 62.702 64.8328 62.802 64.7239 62.802ZM61.084 62.4754C61.0399 62.4754 61.0045 62.5225 61.0045 62.5813C61.0045 62.6402 61.0428 62.6873 61.084 62.6873H64.7239C64.768 62.6873 64.8034 62.6402 64.8034 62.5813C64.8034 62.5225 64.7651 62.4754 64.7239 62.4754H61.084Z" fill="black"/>
<path d="M64.8033 62.4724H60.9986C60.8868 62.4724 60.7955 62.3724 60.7955 62.2488C60.7955 62.1252 60.8868 62.0251 60.9986 62.0251H64.8033C64.9151 62.0251 65.0063 62.1252 65.0063 62.2488C65.0063 62.3724 64.9151 62.4724 64.8033 62.4724ZM60.9986 62.1429C60.9515 62.1429 60.9103 62.1929 60.9103 62.2488C60.9103 62.3047 60.9515 62.3547 60.9986 62.3547H64.8033C64.8503 62.3547 64.8915 62.3076 64.8915 62.2488C64.8915 62.1899 64.8503 62.1429 64.8033 62.1429H60.9986ZM63.5027 64.2379H62.2992V64.1791C62.3051 63.3964 62.8612 63.1286 62.9112 63.1286C62.9583 63.1227 63.1113 63.2463 63.1142 63.2492C63.2908 63.3964 63.4997 63.6788 63.5027 64.1791V64.2379ZM62.4198 64.1202H63.385C63.3585 63.52 62.9965 63.2963 62.9112 63.2522C62.8347 63.2904 62.4463 63.5111 62.4198 64.1202Z" fill="black"/>
<path d="M64.8857 64.6088H60.9162C60.8015 64.6088 60.7043 64.4999 60.7043 64.3675C60.7043 64.2351 60.7985 64.1262 60.9162 64.1262H64.8857C65.0004 64.1262 65.0975 64.2351 65.0975 64.3675C65.0975 64.5029 65.0034 64.6088 64.8857 64.6088ZM60.9192 64.2439C60.8691 64.2439 60.825 64.2998 60.825 64.3675C60.825 64.4352 60.8691 64.4911 60.9192 64.4911H64.8886C64.9386 64.4911 64.9828 64.4352 64.9828 64.3675C64.9828 64.2998 64.9386 64.2439 64.8886 64.2439H60.9192Z" fill="black"/>
<path d="M63.794 64.2409V64.1821C63.7852 62.9904 62.9053 62.8167 62.8965 62.8167C62.8995 62.8167 62.0226 63.0639 61.999 64.1821V64.238H60.9044L61.0927 62.6314L64.7209 62.6402V62.6932L64.8886 64.235L63.794 64.2409ZM61.0339 64.1232H61.8843C61.9108 63.5465 62.1609 63.1963 62.3727 63.0021C62.5052 62.8815 62.6435 62.7991 62.7464 62.752L61.1987 62.7491L61.0339 64.1232ZM63.0789 62.755C63.1702 62.7932 63.279 62.8521 63.385 62.9374C63.6145 63.1228 63.8881 63.4788 63.9087 64.1232L64.7562 64.1203L64.6091 62.755H63.0789ZM61.7578 50.7641C61.7578 50.6229 61.5606 50.62 61.5635 50.7641V51.0407H61.7578V50.7641ZM63.0024 50.2433C63.0083 50.0962 62.7965 50.0962 62.7994 50.2433V50.6023H63.0024V50.2433ZM64.2501 50.7641C64.2501 50.6229 64.0529 50.62 64.0559 50.7641V51.0407H64.2501V50.7641ZM62.1638 50.5229H61.1516C61.0486 50.5229 60.9662 50.4434 60.9662 50.3434V49.8167H61.3723V50.0256H61.4606V49.8196L61.8666 49.8167V50.0256H61.9549V49.8225H62.3109L62.3521 49.849V50.3434C62.3551 50.4405 62.2668 50.5229 62.1638 50.5229ZM61.0869 49.9314V50.3434C61.0869 50.3875 61.1222 50.4052 61.1545 50.4052H62.1668C62.205 50.4052 62.2403 50.3757 62.2403 50.3404V49.9344H62.0755V50.1374H61.7519V49.9285H61.5812V50.1374H61.2575V49.9285L61.0869 49.9314ZM64.6503 50.5229H63.638C63.535 50.5229 63.4526 50.4434 63.4526 50.3434V49.8167H63.8587V50.0256H63.947V49.8196L64.3531 49.8167V50.0256H64.4413V49.8225H64.7974L64.8386 49.849V50.3434C64.8386 50.4405 64.7532 50.5229 64.6503 50.5229ZM63.5704 49.9314V50.3434C63.5704 50.3875 63.6057 50.4052 63.638 50.4052H64.6503C64.6885 50.4052 64.7238 50.3757 64.7238 50.3404V49.9344H64.559V50.1374H64.2354V49.9285H64.0647V50.1374H63.741V49.9285L63.5704 49.9314Z" fill="black"/>
<path d="M62.2051 51.335H61.1163L61.1516 50.4081H62.1727L62.2051 51.335ZM61.2399 51.2173H62.0844L62.0609 50.5228H61.2664L61.2399 51.2173ZM64.6915 51.335H63.6028L63.6381 50.4081H64.6591L64.6915 51.335ZM63.7234 51.2173H64.5679L64.5444 50.5228H63.7499L63.7234 51.2173ZM62.3375 51.332L62.4081 49.7107L63.3968 49.7078L63.4674 51.3291L62.3375 51.332ZM62.5199 49.8255L62.4611 51.2143L63.3468 51.2114L63.285 49.8225L62.5199 49.8255Z" fill="black"/>
<path d="M63.4114 49.7843H62.3786C62.2727 49.7843 62.1903 49.7078 62.1903 49.6048V49.0781H62.6022V49.287H62.6964V49.0811H63.1084V49.29H63.1996V49.087H63.5645L63.6056 49.1134V49.6078C63.6056 49.7019 63.5174 49.7843 63.4114 49.7843ZM62.308 49.1958V49.6078C62.308 49.6519 62.3433 49.6696 62.3786 49.6696H63.4114C63.4497 49.6696 63.485 49.6372 63.4879 49.6048V49.1988H63.3173V49.4018H62.9907V49.1929H62.8141V49.3989H62.4875V49.1899H62.308V49.1958ZM64.8033 51.6675H60.9986C60.8868 51.6675 60.7955 51.5675 60.7955 51.4439C60.7955 51.3203 60.8868 51.2203 60.9986 51.2203H64.8033C64.9151 51.2203 65.0063 51.3203 65.0063 51.4439C65.0063 51.5675 64.9151 51.6675 64.8033 51.6675ZM60.9986 51.338C60.9515 51.338 60.9103 51.388 60.9103 51.4439C60.9103 51.4998 60.9515 51.5498 60.9986 51.5498H64.8033C64.8503 51.5498 64.8915 51.5028 64.8915 51.4439C64.8915 51.3851 64.8503 51.338 64.8033 51.338H60.9986Z" fill="black"/>
<path d="M64.7239 51.9971H61.084C60.9751 51.9971 60.8868 51.897 60.8868 51.7734C60.8868 51.6499 60.9751 51.5498 61.084 51.5498H64.7239C64.8328 51.5498 64.921 51.6499 64.921 51.7734C64.921 51.897 64.8328 51.9971 64.7239 51.9971ZM61.084 51.6704C61.0399 51.6704 61.0045 51.7175 61.0045 51.7764C61.0045 51.8352 61.0428 51.8823 61.084 51.8823H64.7239C64.768 51.8823 64.8034 51.8352 64.8034 51.7764C64.8034 51.7175 64.7651 51.6704 64.7239 51.6704H61.084ZM63.5027 53.433H62.2993V53.3742C62.3051 52.5915 62.8613 52.3266 62.9113 52.3266C62.9584 52.3207 63.1114 52.4443 63.1143 52.4473C63.2909 52.5944 63.4998 52.8769 63.5027 53.3771V53.433ZM62.4199 53.3153H63.3851C63.3586 52.715 62.9966 52.4914 62.9113 52.4473C62.8348 52.4855 62.4464 52.7062 62.4199 53.3153Z" fill="black"/>
<path d="M64.8857 53.8036H60.9162C60.8015 53.8036 60.7043 53.6947 60.7043 53.5623C60.7043 53.4299 60.7985 53.321 60.9162 53.321H64.8857C65.0004 53.321 65.0975 53.4299 65.0975 53.5623C65.0975 53.6977 65.0034 53.8036 64.8857 53.8036ZM60.9192 53.4387C60.8691 53.4387 60.825 53.4947 60.825 53.5623C60.825 53.63 60.8691 53.6859 60.9192 53.6859H64.8886C64.9386 53.6859 64.9828 53.63 64.9828 53.5623C64.9828 53.4947 64.9386 53.4387 64.8886 53.4387H60.9192Z" fill="black"/>
<path d="M63.794 53.436V53.3771C63.7852 52.1854 62.9053 52.0118 62.8965 52.0118C62.8995 52.0118 62.0226 52.259 61.999 53.3801V53.436H60.9044L61.0927 51.8264L64.7209 51.8352V51.8882L64.8886 53.4301L63.794 53.436ZM61.0339 53.3183H61.8843C61.9108 52.7415 62.1638 52.3914 62.3727 52.1972C62.5052 52.0765 62.6435 51.9941 62.7464 51.9471L61.1987 51.9441L61.0339 53.3183ZM63.0789 51.95C63.1702 51.9883 63.279 52.0471 63.385 52.1324C63.6145 52.3178 63.8881 52.6739 63.9087 53.3183L64.7562 53.3153L64.6091 51.95H63.0789Z" fill="black"/>
<path d="M50.5349 62.1488L50.5291 64.6588C50.5291 65.1737 50.7292 65.6445 51.0469 65.9859C51.3677 66.3272 51.8061 66.5391 52.2887 66.5391C52.7742 66.5391 53.2126 66.3272 53.5304 65.9859C53.8482 65.6445 54.0454 65.1767 54.0454 64.6588V62.1459L50.5349 62.1488ZM51.3353 65.3591C51.1441 65.3591 50.9881 65.2032 50.9881 65.0119C50.9881 64.8206 51.1441 64.6647 51.3353 64.6647C51.5266 64.6647 51.6825 64.8206 51.6825 65.0119C51.6825 65.2032 51.5266 65.3591 51.3353 65.3591ZM51.3353 63.4494C51.1441 63.4494 50.9881 63.2935 50.9881 63.1022C50.9881 62.9109 51.1441 62.755 51.3353 62.755C51.5266 62.755 51.6825 62.9109 51.6825 63.1022C51.6825 63.2935 51.5266 63.4494 51.3353 63.4494ZM52.3063 64.3822C52.1151 64.3822 51.9591 64.2262 51.9591 64.035C51.9591 63.8437 52.1151 63.6878 52.3063 63.6878C52.4976 63.6878 52.6536 63.8437 52.6536 64.035C52.6536 64.2262 52.4976 64.3822 52.3063 64.3822ZM53.2803 65.3562C53.0891 65.3562 52.9331 65.2002 52.9331 65.0089C52.9331 64.8177 53.0891 64.6617 53.2803 64.6617C53.4716 64.6617 53.6275 64.8177 53.6275 65.0089C53.6275 65.2002 53.4716 65.3562 53.2803 65.3562ZM53.2833 63.4523C53.092 63.4523 52.9361 63.2964 52.9361 63.1051C52.9361 62.9139 53.092 62.7579 53.2833 62.7579C53.4745 62.7579 53.6305 62.9139 53.6305 63.1051C53.6305 63.2964 53.4745 63.4523 53.2833 63.4523ZM50.5349 56.0784L50.5291 58.5913C50.5291 59.1062 50.7292 59.577 51.0469 59.9184C51.3677 60.2597 51.8061 60.4745 52.2887 60.4745C52.7742 60.4745 53.2126 60.2626 53.5304 59.9213C53.8482 59.58 54.0454 59.1121 54.0454 58.5942V56.0813L50.5349 56.0784ZM51.3353 59.2887C51.1441 59.2887 50.9881 59.1327 50.9881 58.9414C50.9881 58.7502 51.1441 58.5942 51.3353 58.5942C51.5266 58.5942 51.6825 58.7502 51.6825 58.9414C51.6825 59.1357 51.5266 59.2887 51.3353 59.2887ZM51.3353 57.3819C51.1441 57.3819 50.9881 57.226 50.9881 57.0347C50.9881 56.8434 51.1441 56.6875 51.3353 56.6875C51.5266 56.6875 51.6825 56.8434 51.6825 57.0347C51.6825 57.226 51.5266 57.3819 51.3353 57.3819ZM52.3063 58.3147C52.1151 58.3147 51.9591 58.1587 51.9591 57.9675C51.9591 57.7762 52.1151 57.6203 52.3063 57.6203C52.4976 57.6203 52.6536 57.7762 52.6536 57.9675C52.6536 58.1587 52.4976 58.3147 52.3063 58.3147ZM53.2803 59.2857C53.0891 59.2857 52.9331 59.1298 52.9331 58.9385C52.9331 58.7472 53.0891 58.5913 53.2803 58.5913C53.4716 58.5913 53.6275 58.7472 53.6275 58.9385C53.6275 59.1327 53.4716 59.2857 53.2803 59.2857ZM53.2833 57.3819C53.092 57.3819 52.9361 57.226 52.9361 57.0347C52.9361 56.8434 53.092 56.6875 53.2833 56.6875C53.4745 56.6875 53.6305 56.8434 53.6305 57.0347C53.6305 57.226 53.4745 57.3819 53.2833 57.3819ZM45.6651 62.1488L45.6592 64.6588C45.6592 65.1737 45.8593 65.6445 46.1771 65.9859C46.4978 66.3272 46.9362 66.5391 47.4188 66.5391C47.9014 66.5391 48.3428 66.3272 48.6606 65.9859C48.9784 65.6445 49.1755 65.1767 49.1755 64.6588V62.1459L45.6651 62.1488ZM46.4625 65.3591C46.2712 65.3591 46.1153 65.2032 46.1153 65.0119C46.1153 64.8206 46.2712 64.6647 46.4625 64.6647C46.6538 64.6647 46.8097 64.8206 46.8097 65.0119C46.8097 65.2032 46.6567 65.3591 46.4625 65.3591ZM46.4625 63.4494C46.2712 63.4494 46.1153 63.2935 46.1153 63.1022C46.1153 62.9109 46.2712 62.755 46.4625 62.755C46.6538 62.755 46.8097 62.9109 46.8097 63.1022C46.8127 63.2935 46.6567 63.4494 46.4625 63.4494ZM47.4365 64.3822C47.2452 64.3822 47.0892 64.2262 47.0892 64.035C47.0892 63.8437 47.2452 63.6878 47.4365 63.6878C47.6277 63.6878 47.7837 63.8437 47.7837 64.035C47.7837 64.2262 47.6277 64.3822 47.4365 64.3822ZM48.4104 65.3562C48.2192 65.3562 48.0632 65.2002 48.0632 65.0089C48.0632 64.8177 48.2192 64.6617 48.4104 64.6617C48.6017 64.6617 48.7577 64.8177 48.7577 65.0089C48.7577 65.2002 48.6017 65.3562 48.4104 65.3562ZM48.4104 63.4523C48.2192 63.4523 48.0632 63.2964 48.0632 63.1051C48.0632 62.9139 48.2192 62.7579 48.4104 62.7579C48.6017 62.7579 48.7577 62.9139 48.7577 63.1051C48.7606 63.2964 48.6046 63.4523 48.4104 63.4523ZM55.3931 62.1488L55.3872 64.6588C55.3872 65.1737 55.5873 65.6445 55.9051 65.9859C56.2258 66.3272 56.6642 66.5391 57.1468 66.5391C57.6323 66.5391 58.0708 66.3272 58.3886 65.9859C58.7064 65.6445 58.9035 65.1767 58.9035 64.6588V62.1459L55.3931 62.1488ZM56.1934 65.3591C56.0022 65.3591 55.8462 65.2032 55.8462 65.0119C55.8462 64.8206 56.0022 64.6647 56.1934 64.6647C56.3847 64.6647 56.5407 64.8206 56.5407 65.0119C56.5407 65.2032 56.3847 65.3591 56.1934 65.3591ZM56.1934 63.4494C56.0022 63.4494 55.8462 63.2935 55.8462 63.1022C55.8462 62.9109 56.0022 62.755 56.1934 62.755C56.3847 62.755 56.5407 62.9109 56.5407 63.1022C56.5407 63.2935 56.3847 63.4494 56.1934 63.4494ZM57.1645 64.3822C56.9732 64.3822 56.8172 64.2262 56.8172 64.035C56.8172 63.8437 56.9732 63.6878 57.1645 63.6878C57.3557 63.6878 57.5117 63.8437 57.5117 64.035C57.5117 64.2262 57.3557 64.3822 57.1645 64.3822ZM58.1384 65.3562C57.9472 65.3562 57.7912 65.2002 57.7912 65.0089C57.7912 64.8177 57.9472 64.6617 58.1384 64.6617C58.3297 64.6617 58.4857 64.8177 58.4857 65.0089C58.4857 65.2002 58.3297 65.3562 58.1384 65.3562ZM58.1414 63.4523C57.9501 63.4523 57.7942 63.2964 57.7942 63.1051C57.7942 62.9139 57.9501 62.7579 58.1414 62.7579C58.3327 62.7579 58.4886 62.9139 58.4886 63.1051C58.4886 63.2964 58.3327 63.4523 58.1414 63.4523ZM50.5349 68.1633L50.5291 70.6763C50.5291 71.1912 50.7292 71.662 51.0469 72.0033C51.3677 72.3447 51.8061 72.5595 52.2887 72.5595C52.7742 72.5595 53.2126 72.3476 53.5304 72.0063C53.8482 71.6649 54.0454 71.1971 54.0454 70.6792V68.1663L50.5349 68.1633ZM51.3353 71.3736C51.1441 71.3736 50.9881 71.2177 50.9881 71.0264C50.9881 70.8352 51.1441 70.6792 51.3353 70.6792C51.5266 70.6792 51.6825 70.8352 51.6825 71.0264C51.6825 71.2177 51.5266 71.3736 51.3353 71.3736ZM51.3353 69.4639C51.1441 69.4639 50.9881 69.308 50.9881 69.1167C50.9881 68.9255 51.1441 68.7695 51.3353 68.7695C51.5266 68.7695 51.6825 68.9255 51.6825 69.1167C51.6825 69.308 51.5266 69.4639 51.3353 69.4639ZM52.3063 70.3967C52.1151 70.3967 51.9591 70.2408 51.9591 70.0495C51.9591 69.8582 52.1151 69.7023 52.3063 69.7023C52.4976 69.7023 52.6536 69.8582 52.6536 70.0495C52.6536 70.2408 52.4976 70.3967 52.3063 70.3967ZM53.2803 71.3707C53.0891 71.3707 52.9331 71.2147 52.9331 71.0235C52.9331 70.8322 53.0891 70.6763 53.2803 70.6763C53.4716 70.6763 53.6275 70.8322 53.6275 71.0235C53.6275 71.2147 53.4716 71.3707 53.2803 71.3707ZM53.2833 69.4669C53.092 69.4669 52.9361 69.3109 52.9361 69.1197C52.9361 68.9284 53.092 68.7724 53.2833 68.7724C53.4745 68.7724 53.6305 68.9284 53.6305 69.1197C53.6305 69.3109 53.4745 69.4669 53.2833 69.4669Z" fill="#003399"/>
</g>
<defs>
<clipPath id="clip0_4935_18339">
<rect y="20" width="128" height="88.2759" rx="2" fill="white"/>
</clipPath>
</defs>
</svg>
