<svg width="128" height="128" viewBox="0 0 128 128" fill="none" xmlns="http://www.w3.org/2000/svg">
<g clip-path="url(#clip0_4935_18513)">
<path d="M0 18H128V109.429H0V18Z" fill="url(#paint0_linear_4935_18513)"/>
<path d="M64.692 46.9729C65.2275 47.5979 65.586 48.2224 65.586 48.982C65.1364 49.2043 64.5151 49.2951 64.1566 49.6968C66.3892 49.3836 66.8339 51.9724 69.3343 50.99C69.4251 51.3486 69.7836 51.6615 70.2282 51.5262L70.496 50.8132C71.4761 50.5454 71.2083 52.1517 72.2836 51.8386C72.8195 52.2857 72.4609 53.0435 72.8195 53.5813C72.8195 54.2052 73.0874 54.7407 73.3549 55.2761C73.6228 54.9653 73.7996 54.5183 74.4258 54.6522C74.8705 55.1423 75.2291 55.5893 75.3195 56.1247C75.1381 57.1526 74.8704 58.0442 75.9413 58.5796V58.8926C76.6584 59.2057 78.2648 58.5796 78.2648 59.8298C78.1737 60.2768 78.7094 59.8752 78.8909 60.1428C79.3357 59.9636 79.9618 60.0545 80.4972 60.0545C80.942 60.9916 79.9618 61.6608 79.6941 62.5094C80.1387 62.9541 79.9618 63.7596 79.8711 64.2925L79.6031 64.4264C80.3155 64.5602 81.2094 64.3404 81.8359 64.742L82.9976 65.1866C83.5329 64.8759 84.1547 64.8282 84.8716 64.8759C85.4071 65.2777 84.6901 65.9468 85.1395 66.2576C85.7658 66.2576 86.3012 66.3486 86.3873 66.8841L86.478 67.0609C86.9228 66.2576 88.1753 66.793 88.7108 66.2148C89.6047 66.2148 89.7815 67.1949 90.2261 67.7304C90.4078 69.1167 88.7108 69.7432 89.2462 71.1247C88.8876 71.7939 88.1753 72.3296 87.6399 72.9557C87.8167 73.0465 87.7258 73.2665 87.7258 73.4003C87.1904 73.716 87.6399 74.6529 86.9226 74.7393C86.8366 75.3222 85.7657 75.0977 86.1195 75.7238C86.8364 76.6609 85.7657 77.2395 85.7657 78.0904C85.3162 78.5827 84.4223 77.6409 84.4223 78.5827C83.8867 78.7165 83.3514 78.0904 82.9976 78.6259C82.816 79.2522 83.3514 79.4721 83.2653 80.0984C84.1547 80.0074 84.4224 80.9015 84.781 81.437L85.6749 82.331C84.781 83.0433 83.6191 82.24 82.5481 82.6416C82.2803 82.5078 82.5481 82.154 82.2803 82.0202C82.0125 81.7045 81.4772 81.7045 81.0326 81.6183C81.1186 82.0202 80.3155 82.1538 80.674 82.6414C80.674 82.7752 80.8509 83.177 80.4971 83.177C79.78 83.4017 79.8709 82.5555 79.2444 82.8662C78.4413 83.177 79.0676 84.3818 77.9059 84.2479C78.0827 85.3237 76.1227 86.036 77.4612 86.9731C77.638 87.1501 77.5472 87.5085 77.5472 87.7763C76.7439 88.4933 75.319 88.2257 74.4253 87.9578C73.7082 87.7763 74.1575 86.8822 73.8899 86.3946C73.6221 85.9452 72.819 85.6344 72.819 85.0081C72.2831 84.788 71.8341 84.6499 71.4756 84.2048C70.2279 85.4097 68.708 86.5714 66.9242 86.6144C66.1211 87.016 65.6718 88.6273 64.4239 87.9576C63.9338 88.7611 62.4589 87.9576 62.3704 89.1149C61.7896 89.3395 62.0573 90.0996 61.7012 90.4534C61.5673 91.3473 61.7012 92.1075 62.4589 92.6432C62.772 93.3123 61.7896 93.3123 62.1911 93.9388C62.2821 94.1588 62.1911 94.4742 62.0573 94.565C61.7896 94.6988 61.7012 94.8329 61.7896 95.1005C61.5673 95.1005 61.4766 95.2343 61.2995 95.4111C61.0747 95.8559 60.3624 96.0804 59.87 96.3912C59.38 96.525 59.0214 96.1712 58.7106 95.8559C58.6197 96.3482 58.2183 96.616 57.7282 96.616C57.0134 96.616 57.1474 95.9897 56.6119 95.7221C56.8342 94.9188 56.1195 94.5649 56.3441 93.8479C56.9248 93.4033 57.9051 93.0877 57.6373 92.1508C57.0134 91.3953 57.2357 90.2766 56.6119 89.3827C56.2103 89.0289 55.541 88.4935 55.7633 87.6425C56.3441 86.9733 55.7633 86.17 55.4502 85.4576C55.3164 84.8745 54.9601 84.3391 54.9601 83.6696C53.9777 83.0912 53.9322 81.5708 52.5483 81.437C51.5659 81.437 51.3889 80.1892 50.4065 80.2752C50.3157 80.0984 50.0934 79.9646 49.9141 79.7876C49.2017 80.2752 48.3078 79.6538 47.416 79.8736C46.8352 78.8935 47.9061 77.5548 46.3429 76.9715V76.3501C46.5221 76.436 46.6106 76.259 46.6559 76.1684C46.7444 75.4991 45.5396 75.413 46.0321 74.6528C45.7643 74.4282 45.4512 74.3372 45.6305 73.8926C44.9589 72.5109 42.9509 72.6449 42.5038 71.2585C42.8624 70.9479 42.8624 70.6322 42.9963 70.3646C42.6831 69.829 42.5948 69.2505 42.6831 68.6721C42.9963 68.5811 43.1732 68.1797 43.3524 67.8641C42.9509 67.5965 42.4606 67.1949 42.0138 67.3287C41.2106 67.1949 40.6296 66.5733 39.915 66.2148C39.7357 66.0378 39.8267 65.7224 39.8267 65.5024C40.8089 65.1867 39.6929 63.8027 40.8976 63.9822C41.2108 63.5806 41.88 63.4466 42.3702 63.1336C42.8625 63.0452 43.2641 63.2243 43.7542 63.3583C44.1557 63.8914 44.8705 63.6691 45.2719 64.116C45.6735 64.0252 46.166 63.8027 46.6561 64.0252C46.6561 63.2674 47.0124 62.8203 47.55 62.2848C47.6385 61.974 48.1286 61.7494 48.5301 61.5724C49.2904 61.7494 50.182 61.7494 50.7199 61.2139C51.0761 61.4385 51.3892 60.9916 51.7908 60.9916C52.2807 60.9008 52.6824 61.0346 53.0409 61.2594C53.084 60.3653 54.6472 61.1254 54.9604 60.0545C55.3167 59.3397 53.978 59.0721 54.0664 58.4458C53.8441 57.731 54.3796 57.3749 54.6472 56.8848C54.9603 56.7508 55.3165 56.5717 55.7181 56.6601C56.746 56.3038 55.9427 54.2052 57.5946 54.9653C57.5946 55.1878 57.5038 55.4554 57.6376 55.5008C58.2185 55.5008 58.3076 54.8308 58.711 54.6069C58.8878 53.983 58.4864 53.2229 59.0218 52.7327C59.2895 52.6874 59.5141 52.5989 59.6911 52.3742C59.6911 51.8841 59.4233 51.6165 59.0218 51.3033C58.888 51.5264 58.5317 51.3487 58.3076 51.4372C58.3076 50.9017 57.9962 50.5456 57.9054 50.0531C57.6376 49.9193 57.5038 49.697 57.5946 49.3838C57.9962 48.9822 57.5946 47.9998 58.5317 48.2226C58.888 47.9113 59.5141 48.1336 59.8704 47.598C60.8075 47.0627 62.0575 47.0627 62.7723 46.0803C63.0854 46.1256 63.4416 45.8125 63.7547 46.0803C63.8434 46.6609 64.692 46.4362 64.692 46.9729Z" fill="#D0A650"/>
<path d="M71.6038 34.8685L70.3695 31.0742L69.1505 34.8685H65.1581L68.3886 37.2152L67.1543 41.0095L70.3695 38.6628L73.6 41.0095L72.3657 37.2152L75.5962 34.8685H71.6038Z" fill="white"/>
<path d="M84.1599 37.0779L82.9257 33.2988L81.7066 37.0779H77.7142L80.9447 39.4245L79.7104 43.2188L82.9257 40.8722L86.1561 43.2188L84.9219 39.4245L88.1523 37.0779H84.1599Z" fill="white"/>
<path d="M96.1371 41.4363L94.9181 37.6572L93.6838 41.4363H89.6914L92.9219 43.7829L91.6876 47.5772L94.9181 45.2306L98.1333 47.5772L96.899 43.7829L100.13 41.4363H96.1371Z" fill="white"/>
<path d="M58.8495 34.8685L57.6305 31.0742L56.3962 34.8685H52.4038L55.6343 37.2152L54.4 41.0095L57.6305 38.6628L60.8457 41.0095L59.6114 37.2152L62.8419 34.8685H58.8495Z" fill="white"/>
<path d="M46.2934 37.0779L45.0743 33.2988L43.84 37.0779H39.8477L43.0781 39.4245L41.8438 43.2188L45.0743 40.8722L48.2896 43.2188L47.0553 39.4245L50.2858 37.0779H46.2934Z" fill="white"/>
<path d="M34.3162 41.4363L33.0819 37.6572L31.8629 41.4363H27.8705L31.101 43.7829L29.8667 47.5772L33.0819 45.2306L36.3124 47.5772L35.0781 43.7829L38.3086 41.4363H34.3162Z" fill="white"/>
</g>
<defs>
<linearGradient id="paint0_linear_4935_18513" x1="64" y1="18" x2="64" y2="109.429" gradientUnits="userSpaceOnUse">
<stop stop-color="#3565D6"/>
<stop offset="1" stop-color="#2753BC"/>
</linearGradient>
<clipPath id="clip0_4935_18513">
<rect width="128" height="91.4286" fill="white" transform="translate(0 18)"/>
</clipPath>
</defs>
</svg>
