<svg width="128" height="128" viewBox="0 0 128 128" fill="none" xmlns="http://www.w3.org/2000/svg">
<g clip-path="url(#clip0_4935_23145)">
<path d="M0 24V57.0053V75.0773V104H128V75.0773V57.0053V24H0Z" fill="#3F51B5"/>
<path d="M128 58.6667H0V82.6667H128V58.6667Z" fill="#ECEFF1"/>
<path d="M0 67.0427V69.7761V71.4054V74.6667H128V71.4054V69.7761V67.0427H0Z" fill="#D50000"/>
<path d="M34.6667 42.6667L35.6107 45.5734H38.6667L36.1947 47.3681L37.1387 50.2747L34.6667 48.4801L32.1947 50.2747L33.1387 47.3681L30.6667 45.5734H33.7227L34.6667 42.6667Z" fill="#FFC107"/>
<path d="M48.8401 53.1092L46.3681 54.9066L47.3121 51.9999L44.8401 50.2026H47.8961L48.8401 47.2959L49.7841 50.2026H52.8401L50.3681 51.9999L51.3121 54.9066L48.8401 53.1092Z" fill="#FFC107"/>
<path d="M57.4426 64.8934L54.9706 66.6881L55.9146 63.7841L53.4426 61.9867H56.4986L57.4426 59.0801L58.3866 61.9867H61.4426L58.9706 63.7841L59.9146 66.6881L57.4426 64.8934Z" fill="#FFC107"/>
<path d="M57.4426 80.0641L54.9706 81.8614L55.9146 78.9548L53.4426 77.1601H56.4986L57.4426 74.2534L58.3866 77.1601H61.4426L58.9706 78.9548L59.9146 81.8614L57.4426 80.0641Z" fill="#FFC107"/>
<path d="M48.8401 91.848L46.3681 93.6454L47.3121 90.7387L44.8401 88.9414H47.8961L48.8401 86.0374L49.7841 88.9414H52.8401L50.3681 90.7387L51.3121 93.6454L48.8401 91.848Z" fill="#FFC107"/>
<path d="M34.6667 96.4801L32.1947 98.2747L33.1387 95.3681L30.6667 93.5734H33.7227L34.6667 90.6667L35.6107 93.5734H38.6667L36.1947 95.3681L37.1387 98.2747L34.6667 96.4801Z" fill="#FFC107"/>
<path d="M20.4934 91.848L18.0214 93.6454L18.9654 90.7387L16.4934 88.9414H19.5494L20.4934 86.0374L21.4374 88.9414H24.4934L22.0214 90.7387L22.9654 93.6454L20.4934 91.848Z" fill="#FFC107"/>
<path d="M11.8906 80.0641L9.41862 81.8614L10.3626 78.9548L7.89062 77.1601H10.9466L11.8906 74.2534L12.8346 77.1601H15.8906L13.4186 78.9548L14.3626 81.8614L11.8906 80.0641Z" fill="#FFC107"/>
<path d="M11.8906 64.8934L9.41862 66.6881L10.3626 63.7841L7.89062 61.9867H10.9466L11.8906 59.0801L12.8346 61.9867H15.8906L13.4186 63.7841L14.3626 66.6881L11.8906 64.8934Z" fill="#FFC107"/>
<path d="M20.4934 53.1092L18.0214 54.9066L18.9654 51.9999L16.4934 50.2026H19.5494L20.4934 47.2959L21.4374 50.2026H24.4934L22.0214 51.9999L22.9654 54.9066L20.4934 53.1092Z" fill="#FFC107"/>
<path d="M34.6667 42.6667L35.6107 45.5734H38.6667L36.1947 47.3681L37.1387 50.2747L34.6667 48.4801L32.1947 50.2747L33.1387 47.3681L30.6667 45.5734H33.7227L34.6667 42.6667Z" fill="#FFC107"/>
</g>
<defs>
<clipPath id="clip0_4935_23145">
<rect y="24" width="128" height="80" rx="2" fill="white"/>
</clipPath>
</defs>
</svg>
