<svg width="128" height="128" viewBox="0 0 128 128" fill="none" xmlns="http://www.w3.org/2000/svg">
<g clip-path="url(#clip0_4935_24079)">
<g clip-path="url(#clip1_4935_24079)">
<path d="M-2 20V49.3683H129.997V20H-2Z" fill="url(#paint0_linear_4935_24079)"/>
<path d="M81.6176 86.8699C81.6176 87.0738 82.3101 87.5225 83.1657 87.8896C84.5916 88.5015 86.3026 89.1133 98.932 93.6409C104.35 95.5988 106.469 96.1699 106.469 95.6396C106.469 95.4357 101.58 93.6409 95.5913 91.683C89.5618 89.6844 83.9805 87.7265 83.1657 87.2778C82.3101 86.8699 81.6176 86.7067 81.6176 86.8699Z" fill="#008000"/>
<path d="M87.3621 90.4069C87.6065 90.8148 102.558 96.9332 105.084 97.6674C106.021 97.9529 106.428 97.1779 105.491 96.8516C105.206 96.77 102.395 95.7503 99.2581 94.6082C94.4508 92.8543 92.0472 91.9569 87.688 90.2029C87.3213 90.0806 87.1991 90.1622 87.3621 90.4069Z" fill="#008000"/>
<path d="M-1.99707 49.2634V108H130V49.2634H-1.99707Z" fill="url(#paint1_linear_4935_24079)"/>
<path d="M41.7088 65.9863C42.1679 67.1085 43.7966 67.8757 45.9824 68.0645C47.4616 68.1695 46.7831 67.5316 44.7158 66.7782C43.7448 66.4678 42.6138 65.882 42.1335 65.5334C41.2879 64.878 41.2879 64.878 41.7088 65.9863Z" fill="#008000"/>
<path d="M21.1986 23.288C19.5869 25.9458 19.3946 28.0717 20.4946 31.7428C21.0242 33.4559 21.606 36.0142 21.8504 37.4011C22.1764 39.359 22.1422 39.5451 22.188 39.9708C22.5954 39.9708 23.5212 39.9724 23.9493 39.9698C24.0109 39.2919 24.0606 38.5095 24.2052 37.4337C24.3737 36.1792 24.8735 33.5556 25.411 31.7334C26.4852 28.0919 26.4133 25.8577 24.743 23.3288C24.1319 22.3906 23.3171 21.6156 22.9504 21.6156C22.5837 21.6156 21.7543 22.3319 21.1986 23.288Z" fill="#FCDD09"/>
<path d="M29.1135 30.8078C26.8321 31.7867 25.4599 34.4968 24.7103 38.2315C24.5719 38.9327 24.5382 39.1803 24.4688 39.9707C24.9626 39.9727 25.1567 39.9761 25.638 39.9732C25.7434 39.4415 25.8193 39.1608 26.0515 38.406C26.9722 35.4871 29.6839 34.3157 29.5616 37.0486C29.5209 37.8032 29.2028 38.2245 28.8487 38.629C29.2864 38.5198 30.2159 38.0854 30.9696 37.6572C35.1658 35.1282 33.5134 28.9315 29.1135 30.8078V30.8078Z" fill="#FCDD09"/>
<path d="M19.791 40.9234C21.6323 40.9316 24.8144 40.9463 26.3429 40.9381C26.3447 40.545 26.3504 40.7456 26.3541 40.4279C25.2289 40.4186 20.9201 40.4341 19.7997 40.4341C19.8023 40.6396 19.7972 40.7391 19.791 40.9234L19.791 40.9234Z" fill="#FCDD09"/>
<path d="M20.3325 43.082C19.6688 43.7982 18.632 44.3337 18.632 44.3337C18.632 44.3337 19.5492 44.437 20.4045 44.3745C21.2599 44.3121 21.7345 44.2052 22.24 43.9593C22.1027 44.9798 22.0948 45.9653 22.0948 45.9653C22.2193 47.2786 22.36 47.6147 22.6445 48.2539C23.0304 48.7871 23.2548 48.79 23.5386 48.227C23.8452 47.5966 24.0471 46.9482 24.1111 45.9592C24.0888 45.2179 24.0474 44.8782 23.8721 43.9721C24.4639 44.2285 24.8377 44.2949 25.7207 44.3745C26.6242 44.456 27.4547 44.416 27.4547 44.416C27.4547 44.416 26.2342 43.8028 25.697 43.0507C25.1668 42.3083 25.2799 42.4345 24.8943 41.4781C24.4258 41.4559 22.0504 41.4778 21.2967 41.4778C20.8839 42.3497 20.8424 42.5318 20.3325 43.082V43.082Z" fill="#FCDD09"/>
<path d="M16.9785 30.8065C19.26 31.7854 20.6321 34.4954 21.3817 38.2301C21.5201 38.9314 21.5539 39.1789 21.6233 39.9693C21.1295 39.9713 20.9354 39.9747 20.454 39.9718C20.3486 39.4401 20.2728 39.1594 20.0405 38.4047C19.1198 35.4858 16.4082 34.3143 16.5304 37.0472C16.5711 37.8018 16.8892 38.2232 17.2433 38.6277C16.8056 38.5184 15.8761 38.0841 15.1224 37.6558C10.9262 35.1269 12.5786 28.9301 16.9785 30.8064V30.8065Z" fill="#FCDD09"/>
<path d="M61.8819 23.288C60.2703 25.9458 60.078 28.0717 61.178 31.7428C61.7076 33.4559 62.2893 36.0142 62.5338 37.4011C62.8597 39.359 62.8256 39.5451 62.8713 39.9708C63.2787 39.9708 64.2046 39.9724 64.6327 39.9698C64.6942 39.2919 64.744 38.5095 64.8885 37.4337C65.057 36.1792 65.5568 33.5556 66.0944 31.7334C67.1686 28.0919 67.0966 25.8577 65.4263 23.3288C64.8152 22.3906 64.0004 21.6156 63.6338 21.6156C63.2671 21.6156 62.4376 22.3319 61.8819 23.288Z" fill="#FCDD09"/>
<path d="M69.7968 30.8079C67.5154 31.7869 66.1432 34.4969 65.3937 38.2316C65.2553 38.9329 65.2215 39.1804 65.1521 39.9708C65.6459 39.9728 65.84 39.9762 66.3214 39.9733C66.4267 39.4416 66.5026 39.1609 66.7349 38.4062C67.6555 35.4873 70.3672 34.3158 70.245 37.0487C70.2042 37.8033 69.8862 38.2246 69.5321 38.6292C69.9698 38.5199 70.8993 38.0856 71.653 37.6573C75.8492 35.1283 74.1967 28.9316 69.7968 30.8079V30.8079Z" fill="#FCDD09"/>
<path d="M60.4744 40.9234C62.3156 40.9316 65.4978 40.9463 67.0262 40.9381C67.028 40.545 67.0337 40.7456 67.0375 40.4279C65.9122 40.4186 61.6034 40.4341 60.4831 40.4341C60.4857 40.6396 60.4805 40.7391 60.4744 40.9234L60.4744 40.9234Z" fill="#FCDD09"/>
<path d="M61.0159 43.0821C60.3521 43.7984 59.3153 44.3339 59.3153 44.3339C59.3153 44.3339 60.2325 44.4371 61.0879 44.3746C61.9432 44.3122 62.4178 44.2053 62.9233 43.9594C62.7861 44.9799 62.7782 45.9654 62.7782 45.9654C62.9026 47.2787 63.0434 47.6148 63.3278 48.254C63.7138 48.7872 63.9382 48.7901 64.2219 48.2271C64.5285 47.5967 64.7304 46.9484 64.7945 45.9593C64.7722 45.218 64.7308 44.8783 64.5554 43.9722C65.1473 44.2286 65.5211 44.2951 66.404 44.3746C67.3076 44.4561 68.138 44.4162 68.138 44.4162C68.138 44.4162 66.9176 43.8029 66.3804 43.0508C65.8501 42.3084 65.9632 42.4346 65.5776 41.4782C65.1091 41.456 62.7337 41.4779 61.98 41.4779C61.5672 42.3498 61.5257 42.5319 61.0159 43.0821V43.0821Z" fill="#FCDD09"/>
<path d="M57.6619 30.8066C59.9433 31.7855 61.3155 34.4955 62.065 38.2302C62.2035 38.9315 62.2372 39.1791 62.3066 39.9695C61.8128 39.9715 61.6187 39.9748 61.1374 39.972C61.032 39.4402 60.9561 39.1595 60.7239 38.4048C59.8032 35.4859 57.0915 34.3145 57.2137 37.0473C57.2545 37.8019 57.5726 38.2233 57.9266 38.6278C57.489 38.5186 56.5594 38.0842 55.8058 37.6559C51.6096 35.127 53.262 28.9303 57.6619 30.8066V30.8066Z" fill="#FCDD09"/>
<path d="M103.928 23.1449C102.316 25.8027 102.124 27.9287 103.224 31.5997C103.754 33.3129 104.335 35.8712 104.58 37.258C104.906 39.2159 104.872 39.402 104.917 39.8277C105.325 39.8277 106.251 39.8293 106.679 39.8267C106.74 39.1489 106.79 38.3665 106.935 37.2906C107.103 36.0362 107.603 33.4126 108.141 31.5903C109.215 27.9488 109.143 25.7146 107.472 23.1857C106.861 22.2475 106.047 21.4725 105.68 21.4725C105.313 21.4725 104.484 22.1888 103.928 23.1449Z" fill="#FCDD09"/>
<path d="M111.843 30.6647C109.562 31.6437 108.189 34.3537 107.44 38.0884C107.301 38.7897 107.268 39.0372 107.198 39.8276C107.692 39.8296 107.886 39.833 108.368 39.8301C108.473 39.2984 108.549 39.0177 108.781 38.263C109.702 35.3441 112.413 34.1726 112.291 36.9055C112.25 37.6601 111.932 38.0814 111.578 38.486C112.016 38.3767 112.945 37.9424 113.699 37.5141C117.895 34.9851 116.243 28.7884 111.843 30.6647V30.6647Z" fill="#FCDD09"/>
<path d="M102.521 40.7803C104.362 40.7885 107.544 40.8032 109.072 40.795C109.074 40.4019 109.08 40.6025 109.084 40.2849C107.958 40.2755 103.65 40.291 102.529 40.291C102.532 40.4965 102.527 40.596 102.521 40.7803L102.521 40.7803Z" fill="#FCDD09"/>
<path d="M103.062 42.9389C102.398 43.6552 101.361 44.1907 101.361 44.1907C101.361 44.1907 102.279 44.2939 103.134 44.2315C103.989 44.169 104.464 44.0621 104.969 43.8163C104.832 44.8368 104.824 45.8222 104.824 45.8222C104.949 47.1355 105.09 47.4717 105.374 48.1108C105.76 48.644 105.984 48.6469 106.268 48.0839C106.575 47.4535 106.777 46.8052 106.841 45.8161C106.818 45.0748 106.777 44.7352 106.602 43.829C107.193 44.0854 107.567 44.1519 108.45 44.2315C109.354 44.3129 110.184 44.273 110.184 44.273C110.184 44.273 108.964 43.6597 108.427 42.9076C107.896 42.1652 108.009 42.2914 107.624 41.335C107.155 41.3128 104.78 41.3347 104.026 41.3347C103.613 42.2066 103.572 42.3887 103.062 42.9389V42.9389Z" fill="#FCDD09"/>
<path d="M99.708 30.6634C101.989 31.6423 103.362 34.3524 104.111 38.087C104.25 38.7883 104.283 39.0359 104.353 39.8263C103.859 39.8283 103.665 39.8317 103.183 39.8288C103.078 39.297 103.002 39.0163 102.77 38.2616C101.849 35.3427 99.1377 34.1713 99.2599 36.9042C99.3006 37.6588 99.6187 38.0801 99.9728 38.4846C99.5351 38.3754 98.6056 37.941 97.8519 37.5127C93.6557 34.9838 95.3081 28.7871 99.708 30.6634V30.6634Z" fill="#FCDD09"/>
<path d="M21.1191 57.5891C22.3006 59.343 23.645 60.6075 26.2524 62.3614C28.1671 63.6667 29.8375 64.6864 29.9189 64.6048C30.0819 64.4009 20.5488 55.5496 19.8969 55.3049C19.6525 55.2233 20.1821 56.243 21.1191 57.5891Z" fill="#008000"/>
<path d="M45.6468 66.9283C46.5313 67.3412 47.6608 67.6665 48.2303 67.6857C48.9035 67.7084 48.7248 67.5428 47.4685 67.0535C46.485 66.6692 45.3089 66.0231 44.7868 65.6224C43.8509 64.8566 43.8509 64.8566 43.949 65.5303C44.005 65.9153 44.7105 66.5136 45.6468 66.9283Z" fill="#008000"/>
<path d="M40.1446 58.9701C40.7149 61.2543 43.0778 65.4556 43.8926 65.6187C44.626 65.7411 44.626 65.7003 44.0149 65.0069C42.9964 63.824 40.7964 59.5003 40.7964 58.6845C40.7964 58.2359 40.5927 57.9095 40.3483 57.9095C40.0631 57.9095 39.9816 58.3174 40.1446 58.9701Z" fill="#008000"/>
<path d="M15.6571 56.106C15.6429 56.1863 16.4076 56.777 17.3659 57.4431C18.3241 58.1093 19.4405 59.052 19.8111 59.5316C20.4461 60.3892 24.043 62.5153 24.3805 62.2435C24.7108 62.0119 20.0776 58.2532 18.1187 57.1619C15.7868 55.839 15.7066 55.8248 15.6571 56.106Z" fill="#008000"/>
<path d="M16.9695 59.244C16.9695 59.3256 17.825 59.7743 18.8843 60.2637C19.9435 60.7532 21.2064 61.4874 21.6546 61.8953C22.4286 62.6295 26.3396 64.0979 26.6248 63.7716C26.91 63.4861 21.6953 60.5901 19.5768 59.8558C17.051 58.9585 16.9695 58.9585 16.9695 59.244Z" fill="#008000"/>
<path d="M35.1395 60.6832C36.6876 63.5384 38.2764 65.4147 38.9283 65.2108C39.2542 65.0884 38.5209 63.9055 36.932 61.9884C35.5061 60.3161 34.2839 58.8477 34.1617 58.7253C34.0395 58.6029 34.4876 59.5003 35.1395 60.6832Z" fill="#008000"/>
<path d="M37.1415 59.5703C37.1415 60.019 38.7303 63.119 39.6673 64.4242C40.197 65.1584 40.8081 65.5663 41.5006 65.5663C42.5191 65.5663 42.5191 65.5663 40.971 63.8124C40.0747 62.8742 38.8933 61.4466 38.2822 60.6716C37.6711 59.8966 37.1415 59.4071 37.1415 59.5703Z" fill="#008000"/>
<path d="M33.3959 60.8873C33.3959 61.4991 36.374 65.5781 36.8354 65.5781C37.0451 65.5781 36.5418 64.5991 35.6609 63.4162C33.6895 60.7241 33.3959 60.4386 33.3959 60.8873Z" fill="#008000"/>
<path d="M30.5824 72.1275C27.8936 73.188 27.3232 73.5551 27.3232 74.1261C27.3232 74.3709 27.6084 74.3301 28.0566 73.963C28.4232 73.5959 29.7676 73.1064 30.9898 72.8209C32.212 72.5354 33.6787 72.0459 34.249 71.7604L35.2675 71.2301H34.0453C33.3935 71.2709 31.8046 71.6788 30.5824 72.1275Z" fill="#008000"/>
<path d="M22.9476 65.1983C24.9564 67.0273 31.6751 70.4823 35.0795 71.4988C36.0019 71.7704 37.4986 71.8327 38.3443 71.6547L39.921 71.3406L38.3649 70.5186C35.855 69.2195 31.7331 66.4677 30.2534 65.1404C28.6414 63.6877 28.6938 64.1895 30.3338 66.1963C30.9745 67.0046 32.8683 68.398 34.5289 69.2687C36.2033 70.1777 37.373 71.0103 37.1816 71.08C36.684 71.2614 32.0887 68.6386 28.5935 66.1794C24.7953 63.4832 24.6386 63.4101 26.0523 65.1521C26.7452 65.9848 28.0264 67.1239 28.9559 67.6534C29.861 68.2351 30.4807 68.7472 30.2893 68.8169C29.9065 68.9564 27.5253 67.6538 24.4165 65.6614C23.5497 65.0657 22.3695 64.3238 21.8578 63.9894C21.2938 63.6306 21.7987 64.1845 22.9476 65.1983Z" fill="#008000"/>
<path d="M23.2435 64.628L21.6139 65.1583L22.8361 65.3622C23.4879 65.5254 24.3435 65.4438 24.7509 65.2398C25.1175 65.0359 25.8508 64.8727 26.3805 64.8319C27.2767 64.8319 27.2767 64.7912 26.5027 64.4648C25.4842 64.0162 25.2397 64.0162 23.2435 64.628Z" fill="#008000"/>
<path d="M25.2514 65.7352C24.5588 66.2654 24.5995 66.3062 26.1069 66.0615C27.0032 65.9391 28.3068 65.6944 28.9587 65.5312C30.0179 65.2457 29.9364 65.2049 28.1031 65.1641C26.8809 65.1233 25.7402 65.368 25.2514 65.7352Z" fill="#008000"/>
<path d="M15.1303 61.4465C21.8524 62.6702 35.3373 67.1978 34.5225 67.9728C34.3188 68.1768 30.53 67.2386 30.0004 66.8715C29.7967 66.6676 27.8004 66.7491 25.6005 67.0347C21.4857 67.4833 20.7932 67.8504 20.8746 69.5228C20.9154 70.3386 20.9154 70.3386 21.1191 69.5228C21.4857 68.0136 22.0968 67.6873 24.419 67.6873C26.9449 67.6873 33.8706 68.707 36.9261 69.5228C41.0001 70.6649 41.1223 70.6649 39.7779 69.9307C38.0261 68.9518 35.378 67.157 34.8891 66.6268C33.9929 65.607 17.7377 61.1202 15.3748 61.2018C14.2748 61.2834 14.234 61.2834 15.1303 61.4465Z" fill="#008000"/>
<path d="M18.2208 63.6199C17.7319 63.987 17.2023 64.8436 17.0801 65.537C16.8357 66.7199 16.8357 66.7199 17.4875 65.9449C19.1986 63.783 19.3208 63.7015 21.4393 63.6607C23.1503 63.6199 23.3948 63.5383 22.58 63.2936C20.8689 62.7633 19.1578 62.8857 18.2208 63.6199Z" fill="#008000"/>
<path d="M38.9866 66.1371C39.3125 66.7082 42.4902 68.299 42.7346 68.0542C42.8568 67.9318 42.4902 67.6055 42.0013 67.32C41.4717 67.0345 40.7791 66.5858 40.4939 66.2595C39.8421 65.6476 38.6199 65.5253 38.9866 66.1371Z" fill="#008000"/>
<path d="M39.2317 70.0126C39.5576 70.5837 42.7353 72.1744 42.9797 71.9297C43.102 71.8073 42.7353 71.481 42.2464 71.1955C41.7168 70.91 41.0242 70.4613 40.739 70.135C40.0872 69.5231 38.865 69.4008 39.2317 70.0126Z" fill="#008000"/>
<path d="M34.677 65.1558C34.7357 65.0992 35.6523 65.4037 36.7398 65.8265C37.8273 66.2494 39.2321 66.6489 39.8364 66.6884C40.9017 66.7358 44.6735 68.5325 44.6371 68.9646C44.6301 69.3683 38.927 67.6244 36.9279 66.6087C34.5285 65.4129 34.4719 65.3542 34.677 65.1558Z" fill="#008000"/>
<path d="M41.4249 68.1369C40.6649 68.4309 39.9006 68.9628 39.6631 69.3433C39.3825 69.793 39.62 69.7973 40.6002 69.3043C41.3689 68.9194 42.4787 68.6037 43.0876 68.5518C44.2276 68.4955 44.2276 68.4955 43.5021 68.0415C43.0875 67.7822 42.2065 67.8082 41.4249 68.1369Z" fill="#008000"/>
<path d="M36.7332 71.0641C34.4113 73.149 33.8978 74.6027 34.6415 76.7625L35.2846 78.612L35.1055 76.7402C34.8287 74.1712 35.5204 73.0026 38.3314 70.9731C39.6527 70.0286 40.7028 69.1723 40.6776 69.0947C40.5391 68.668 37.914 69.9508 36.7332 71.0641Z" fill="#008000"/>
<path d="M22.3589 54.3901C23.6218 56.7967 28.755 62.344 31.6068 64.4651C32.3809 65.0361 33.766 65.6072 34.6216 65.7295L36.2104 65.9743L35.029 64.669C33.1142 62.5888 30.1809 58.5914 29.2439 56.8375C28.2254 54.9204 28.1032 55.4098 28.9587 57.8572C29.2846 58.8361 30.5883 60.794 31.8513 62.1809C33.1142 63.6085 33.929 64.7914 33.7253 64.7914C33.1957 64.7914 29.7735 60.7532 27.3291 57.2454C24.681 53.4112 24.5588 53.2888 25.2921 55.4098C25.6588 56.4296 26.4736 57.9388 27.1662 58.7546C27.818 59.6111 28.2254 60.3046 28.0217 60.3046C27.6143 60.3046 25.8218 58.2651 23.5811 55.3283C22.97 54.4717 22.1144 53.3704 21.7478 52.8809C21.3404 52.3506 21.6256 53.0441 22.3589 54.3901Z" fill="#008000"/>
<path d="M35.5002 65.811C35.5002 66.0965 36.1113 66.8307 36.8447 67.4018C39.0039 69.0333 44.7482 71.7662 45.4815 71.4807C45.9296 71.3175 45.2371 70.8688 43.2816 70.1346C39.8594 68.7886 36.7224 66.9939 36.7224 66.382C36.7224 66.0557 38.0669 66.0149 41.4075 66.2189C46.4185 66.5044 47.9259 65.9333 43.363 65.5254C38.5557 65.036 35.5002 65.1583 35.5002 65.811Z" fill="#008000"/>
<path d="M24.7449 70.1755C22.993 70.5834 22.056 71.1952 22.056 71.9294C22.056 72.2149 22.219 72.1741 22.4227 71.8478C22.7486 71.3176 26.0893 70.3386 26.4152 70.6649C26.4967 70.7465 26.3745 71.3584 26.13 71.9702C25.8856 72.582 25.8041 73.1939 25.9263 73.3162C26.0485 73.4794 26.2522 73.1531 26.3745 72.7044C26.8633 70.9505 28.3707 70.4202 31.9965 70.7465C33.8298 70.9097 35.8668 71.1136 36.5187 71.1544C37.2113 71.1952 38.1483 71.4399 38.6371 71.7255C39.6964 72.2965 43.8111 72.3373 43.4444 71.7662C43.3222 71.5623 42.5482 71.2768 41.6926 71.1544C40.8778 71.032 39.1668 70.6241 37.9038 70.2978C35.378 69.6452 27.3115 69.5636 24.7449 70.1755Z" fill="#008000"/>
<path d="M39.6219 74.8836C36.5514 74.3353 35.0911 74.8252 33.8492 76.7417L32.7894 78.3876L34.1523 77.094C36.0039 75.2939 37.3494 75.1202 40.6775 76.0885C42.2343 76.5495 43.5547 76.8508 43.6003 76.7832C43.8509 76.4112 41.2251 75.1299 39.6219 74.8836Z" fill="#008000"/>
<path d="M35.646 73.7474C29.9831 75.2974 29.3313 75.8684 30.1461 78.4382C30.472 79.4171 30.472 79.3763 30.5127 78.1118C30.5535 77.4184 30.9201 76.4395 31.3275 76.0316C32.0609 75.2974 35.3608 74.3592 39.394 73.7066C40.3718 73.5842 41.0236 73.2987 40.9014 73.0948C40.5755 72.5645 39.2718 72.7277 35.646 73.7474Z" fill="#008000"/>
<path d="M40.4588 75.7403C37.607 77.0048 36.67 78.2285 36.7107 80.5127L36.7515 82.4706L37.1589 80.6351C37.6885 78.1061 38.707 77.2088 42.0069 76.1482C43.555 75.6588 44.818 75.1693 44.818 75.0877C44.818 74.639 41.9254 75.0469 40.4588 75.7403Z" fill="#008000"/>
<path d="M39.9175 79.2422C39.4287 79.8949 39.062 80.7514 39.062 81.2001C39.062 81.7304 39.2657 81.608 39.8361 80.6698C40.2842 79.9356 41.0583 79.0791 41.5471 78.712C42.4842 78.0593 42.4842 78.0593 41.6286 78.0593C41.1397 78.0593 40.4064 78.5488 39.9175 79.2422Z" fill="#008000"/>
<path d="M83.964 85.8893C85.2869 86.4633 92.1505 88.1963 97.0068 89.6202C101.863 91.0441 107.541 92.6834 108.798 92.86C110.594 88.9398 107.325 96.2723 109.191 91.8282C106.765 91.2101 97.2054 88.9581 93.3688 87.8543C90.0615 86.9271 85.3696 85.4808 84.1679 85.2159C82.9662 84.9509 82.9497 85.4478 83.964 85.8893Z" fill="#008000"/>
<path d="M84.8033 84.8717C86.1454 85.3991 93.0652 86.8913 97.9682 88.1446C102.871 89.398 108.603 90.8378 109.865 90.9704C111.524 86.9898 108.512 94.4321 110.222 89.9255C107.776 89.3925 98.1435 87.4759 94.2709 86.5068C90.9332 85.6958 86.1938 84.4143 84.9836 84.1915C83.7734 83.9688 83.7742 84.4659 84.8033 84.8717Z" fill="#008000"/>
<path d="M82.903 86.6289C84.1941 87.2714 90.9577 89.3618 95.7329 91.0382C100.508 92.7146 106.093 94.6491 107.338 94.8913C109.337 91.0706 105.689 98.2218 107.785 93.8816C105.395 93.1372 95.9658 90.3873 92.1922 89.084C88.9379 87.9848 84.328 86.2946 83.1418 85.9671C81.9556 85.6395 81.9132 86.1349 82.903 86.6289Z" fill="#008000"/>
<path d="M82.0792 87.4642C83.335 88.1734 89.98 90.6153 94.6611 92.5396C99.3421 94.4639 104.818 96.6885 106.049 96.9956C108.245 93.2849 104.228 100.235 106.548 96.0107C104.2 95.1421 94.9277 91.9018 91.2274 90.4026C88.035 89.1343 83.5197 87.2049 82.3523 86.8157C81.1849 86.4265 81.1166 86.9189 82.0792 87.4642Z" fill="#008000"/>
<path d="M81.3032 88.5164C82.5335 89.2691 89.0894 91.9417 93.7005 94.0284C98.3116 96.1151 103.706 98.5296 104.926 98.8796C107.25 95.2479 102.994 102.054 105.459 97.9127C103.143 96.9626 93.9892 93.4003 90.3434 91.7727C87.1971 90.3937 82.7519 88.3077 81.5988 87.8779C80.4456 87.4481 80.3602 87.9379 81.3032 88.5164Z" fill="#008000"/>
<path d="M80.4275 89.4751C81.6167 90.2913 88.0239 93.3037 92.5196 95.6292C97.0153 97.9546 102.277 100.649 103.477 101.062C105.987 97.557 101.381 104.13 104.059 100.124C101.796 99.0541 92.8407 95.0171 89.2851 93.2006C86.2152 91.6586 81.8851 89.3426 80.756 88.8529C79.6269 88.3633 79.516 88.8479 80.4275 89.4751Z" fill="#008000"/>
<path d="M66.2406 98.1462L67.5601 99.0897C69.4517 100.409 70.492 102.243 70.3889 104.135L70.3191 105.698L70.94 104.16C71.6193 102.551 71.5258 100.114 70.7234 98.3098L70.2553 97.2576L71.7418 97.9055C73.8659 98.8024 75.2645 100.379 75.5566 102.252L75.8128 103.796L76.1008 102.162C76.4309 100.446 75.8338 98.083 74.6739 96.4849L73.9975 95.5524L75.5862 95.8768C77.8501 96.312 79.5454 97.5634 80.2203 99.3349L80.7914 100.791L80.7336 99.1329C80.7005 97.3862 79.6253 95.1988 78.1591 93.8769L77.3039 93.1058L78.9252 93.0926C81.2299 93.0471 83.1483 93.9181 84.1762 95.5108L85.0368 96.8159L84.6363 95.2062C84.2411 93.5052 82.7354 91.5892 81.0267 90.6015L80.0299 90.025L81.6132 89.675C83.8581 89.15 85.9154 89.6032 87.2513 90.9467L88.3643 92.0442L87.638 90.5531C86.8984 88.9712 85.0275 87.4101 83.1511 86.7998L82.0564 86.4443L83.5323 85.7719C85.6189 84.7914 87.7253 84.8063 89.3112 85.8419L90.6281 86.6843L89.6082 85.3766C88.5559 83.9829 86.402 82.846 84.4397 82.6397L83.2955 82.5196L84.5995 81.5545C86.4369 80.1614 88.5004 79.7368 90.2667 80.4202L91.7298 80.9696L90.4606 79.9032C89.1419 78.7593 86.7989 78.0952 84.8367 78.302L83.6924 78.4221L84.7673 77.2067C86.2753 75.4615 88.2058 74.617 90.0753 74.918L91.6203 75.1505L90.1572 74.3719C88.6299 73.5275 86.2003 73.3657 84.3239 73.9761L83.2292 74.3318L84.0282 72.9197C85.1408 70.8984 86.8536 69.6707 88.7447 69.5753L90.3044 69.4816L88.7116 69.0246C87.0422 68.5166 84.6322 68.8643 82.9235 69.8515L81.9267 70.4277L82.4153 68.8798C83.084 66.6713 84.5042 65.1141 86.3344 64.6271L87.8407 64.2107L86.1877 64.0952C84.4492 63.9455 82.1641 64.7869 80.6979 66.1087L79.8426 66.8799L79.9991 65.2643C80.1943 62.9642 81.2603 61.1457 82.9494 60.2881L84.3362 59.5676L82.6953 59.7983C80.9638 60.0139 78.9034 61.3129 77.7437 62.911L77.0673 63.8434L76.8849 62.2304C76.5984 59.9406 77.263 57.9389 78.7372 56.7493L79.9439 55.7556L78.3867 56.3228C76.7379 56.8941 74.9925 58.5935 74.1899 60.3982L73.7218 61.4512L73.2082 59.9113C72.4524 57.7311 72.6872 55.635 73.8821 54.1645L74.8563 52.9414L73.451 53.82C71.9568 54.7221 70.6022 56.7477 70.1919 58.68L69.9527 59.8073L69.1306 58.4083C67.9386 56.4324 67.733 54.334 68.5962 52.6463L69.295 51.2473L68.103 52.3992C66.8287 53.5929 65.9244 55.8567 65.9244 57.8319V58.984L64.8297 57.7866C63.2538 56.1029 62.617 54.0922 63.1107 52.2621L63.5033 50.7478L62.5766 52.1234C61.578 53.5556 61.1636 55.9581 61.5739 57.8908L61.8128 59.0177L60.4936 58.0742C58.602 56.7549 57.5618 54.9212 57.6648 53.0281L57.7344 51.4652L57.1135 53.0036C56.4345 54.6128 56.528 57.0487 57.3301 58.8533L57.7981 59.9064L56.3117 59.2582C54.1876 58.3615 52.789 56.7845 52.4969 54.9117L52.2407 53.3684L51.953 55.002C51.6228 56.7171 52.2196 59.081 53.3798 60.6791L54.056 61.611L52.4676 61.2864C50.2037 60.8514 48.5084 59.6003 47.8335 57.8286L47.2624 56.3724L47.3202 58.0305C47.3533 59.7773 48.4285 61.9647 49.8946 63.2862L50.7499 64.0574L49.1285 64.0705C46.8238 64.1163 44.9055 63.2451 43.8776 61.6532L43.0167 60.3475L43.4175 61.9569C43.8126 63.6587 45.3183 65.5747 47.027 66.5625L48.0236 67.1386L46.4405 67.4887C44.1956 68.0132 42.1383 67.5607 40.8024 66.2173L39.6892 65.1195L40.4155 66.6106C41.1554 68.1927 43.0262 69.753 44.9027 70.3634L45.9973 70.7196L44.5214 71.3918C42.4345 72.3725 40.3282 72.3574 38.7423 71.3215L37.4253 70.4794L38.4453 71.7866C39.4976 73.1802 41.6515 74.3171 43.6137 74.5237L44.7583 74.6443L43.4542 75.6089C41.6165 77.0025 39.5531 77.4264 37.7868 76.7432L36.3237 76.1941L37.5929 77.2602C38.9116 78.4046 41.2546 79.0682 43.2168 78.8617L44.3613 78.7416L43.2862 79.9564C41.7781 81.7022 39.8477 82.5461 37.9782 82.2457L36.4332 82.0126L37.8963 82.7918C39.4238 83.6365 41.8534 83.798 43.7299 83.1876L44.8246 82.8316L44.0253 84.2443C42.9126 86.2653 41.1998 87.4932 39.3087 87.5881L37.7491 87.6815L39.3419 88.1391C41.0113 88.6471 43.4213 88.2994 45.13 87.3119L46.1268 86.7355L45.6384 88.2834C44.9697 90.4924 43.5495 92.0499 41.7193 92.5365L40.2131 92.953L41.866 93.0687C43.6045 93.2179 45.8897 92.3763 47.3559 91.0544L48.2111 90.2833L48.0547 91.8997C47.8594 94.1989 46.7935 96.018 45.1043 96.8751L43.7175 97.5961L45.3584 97.3656C47.09 97.15 49.1504 95.8503 50.3101 94.2522L50.9865 93.3203L51.1692 94.9336C51.4556 97.2233 50.7907 99.2243 49.3166 100.414L48.1096 101.408L49.6667 100.841C51.3156 100.27 53.0613 98.5696 53.8639 96.7652L54.3317 95.7127L54.8452 97.2519C55.6011 99.4329 55.3663 101.528 54.1714 102.999L53.1972 104.223L54.6025 103.343C56.0966 102.442 57.4513 100.415 57.8616 98.4832L58.1008 97.3563L58.9229 98.7556C60.1149 100.731 60.3205 102.83 59.4573 104.517L58.7585 105.917L59.9505 104.764C61.2248 103.571 62.1291 101.307 62.1291 99.3318V98.1794L63.2238 99.377C64.7997 101.061 65.4365 103.071 64.943 104.902L64.5499 106.416L65.4766 105.04C66.4752 103.608 66.8896 101.206 66.4796 99.2731L66.2404 98.1462" fill="#FCDD09"/>
</g>
</g>
<defs>
<linearGradient id="paint0_linear_4935_24079" x1="63.9985" y1="20" x2="63.9985" y2="49.3683" gradientUnits="userSpaceOnUse">
<stop stop-color="#285CEB"/>
<stop offset="0.546875" stop-color="#0A37B4"/>
</linearGradient>
<linearGradient id="paint1_linear_4935_24079" x1="64.0015" y1="49.2634" x2="64.0015" y2="108" gradientUnits="userSpaceOnUse">
<stop stop-color="#FE453B"/>
<stop offset="0.447917" stop-color="#D8241B"/>
</linearGradient>
<clipPath id="clip0_4935_24079">
<rect width="128" height="128" fill="white"/>
</clipPath>
<clipPath id="clip1_4935_24079">
<rect x="-2" y="20" width="132" height="88.0001" rx="2" fill="white"/>
</clipPath>
</defs>
</svg>
