<svg width="128" height="128" viewBox="0 0 128 128" fill="none" xmlns="http://www.w3.org/2000/svg">
<g clip-path="url(#clip0_4935_18455)">
<path d="M-0.735596 24.2642H128.736V103.712H-0.735596V24.2642Z" fill="#ECEFF1"/>
<path d="M46.3449 33.0918H128.736V41.9194H46.3449V33.0918ZM46.3449 50.747H128.736V59.5746H46.3449V50.747ZM-0.735596 68.4021H128.736V77.2297H-0.735596V68.4021ZM-0.735596 86.0573H128.736V94.8849H-0.735596V86.0573Z" fill="#0038A8"/>
<path d="M22.1543 50.9678L23.7404 53.3395C17.2168 58.0593 21.201 60.8517 16.5782 62.3612C19.4531 59.557 16.1251 59.3187 18.5468 53.4719" fill="#FCD116"/>
<path d="M16.4164 62.4586L16.5488 62.3291C17.97 60.9403 17.8582 60.1928 17.6905 59.0629C17.5228 57.9359 17.2933 56.3882 18.5085 53.4545L18.5262 53.4133L18.6056 53.4456L18.588 53.4868C17.3815 56.3999 17.6081 57.93 17.7758 59.0511C17.9436 60.1722 18.0554 60.9255 16.7401 62.2614C18.738 61.5611 18.994 60.5989 19.3413 59.2865C19.7503 57.7417 20.2564 55.8173 23.6815 53.3309L22.0925 50.9592L22.1631 50.9121L23.7962 53.3515L23.7639 53.375C20.3329 55.8585 19.8268 57.7711 19.4207 59.3071C19.0558 60.6872 18.7939 61.6818 16.587 62.4027L16.4164 62.4586Z" fill="black"/>
<path d="M16.5988 62.3996L16.5605 62.3231C18.176 61.5521 18.3555 60.3486 18.6262 58.5272C18.8763 56.8382 19.2206 54.5254 20.9832 51.6182L21.0567 51.6623C19.303 54.5548 18.9734 56.7647 18.7115 58.539C18.4379 60.3869 18.2554 61.608 16.5988 62.3996Z" fill="black"/>
<path d="M23.2401 46.2773H26.4063L23.2401 63.6853L20.074 46.2773H23.2401V63.6853V46.2773Z" fill="#FCD116"/>
<path d="M23.2401 63.9268L20.0239 46.2363H26.4563L26.4475 46.2864L23.2401 63.9268ZM23.2842 46.3217V63.2059L26.3533 46.3217H23.2842ZM20.1269 46.3217L23.196 63.2059V46.3217H20.1269Z" fill="black"/>
<path d="M19.1588 48.8257L18.6056 51.624C10.6549 50.3499 11.4965 55.1403 7.16211 52.9393C11.1787 52.9893 8.99236 50.4676 14.8421 48.0459" fill="#FCD116"/>
<path d="M9.18359 53.5717C8.6304 53.5717 7.98304 53.404 7.14148 52.9773L6.97375 52.8949L7.15913 52.8979C9.14534 52.9214 9.59555 52.3153 10.2782 51.3943C10.9579 50.4762 11.8878 49.2227 14.8215 48.0074L14.8597 47.9897L14.8921 48.0692L14.8509 48.0869C11.9378 49.2933 11.0168 50.538 10.343 51.4472C9.66911 52.3594 9.21302 52.9714 7.34157 52.9862C9.25127 53.9042 10.1105 53.404 11.2846 52.7213C12.6675 51.918 14.386 50.9176 18.5673 51.5796L19.1205 48.7783L19.2058 48.796L18.635 51.6767L18.5967 51.6679C14.4154 50.997 12.7058 51.9945 11.3316 52.792C10.599 53.2186 9.98985 53.5717 9.18359 53.5717Z" fill="black"/>
<path d="M8.32142 53.2043C7.96243 53.2043 7.57696 53.1366 7.14441 52.9836L7.17384 52.9012C8.86285 53.4986 9.83977 52.7747 11.3169 51.6771C12.6881 50.659 14.5684 49.2672 17.8699 48.458L17.8905 48.5404C14.6067 49.3437 12.8117 50.6737 11.3699 51.7448C10.2429 52.5805 9.40427 53.2043 8.32142 53.2043Z" fill="black"/>
<path d="M23.2401 46.2773L25.4794 48.5166L10.9345 58.5859L21.0038 44.041L23.2401 46.2773L10.9315 58.5859L23.2401 46.2773Z" fill="#FCD116"/>
<path d="M10.7609 58.7569L20.995 43.9736L21.0303 44.0089L25.5441 48.5198L25.5029 48.5493L10.7609 58.7569ZM23.2401 46.3394L11.3023 58.2802L25.4117 48.511L23.2401 46.3394ZM21.0097 44.109L11.2405 58.2184L23.1813 46.2776L21.0097 44.109Z" fill="black"/>
<path d="M18.5527 45.1918L16.181 46.7778C11.4612 40.2543 8.6687 44.2384 7.15918 39.6157C9.96341 42.4906 10.2018 39.1626 16.0486 41.5843" fill="#FCD116"/>
<path d="M16.1721 46.8394L16.1485 46.807C13.665 43.376 11.7524 42.8699 10.2164 42.4638C8.83636 42.0989 7.84178 41.8371 7.12086 39.6302L7.06201 39.4536L7.19148 39.586C8.57741 41.0073 9.32776 40.8954 10.4577 40.7277C11.5847 40.56 13.1324 40.3305 16.0661 41.5457L16.1073 41.5634L16.075 41.6429L16.0338 41.6252C13.1207 40.4188 11.5906 40.6453 10.4695 40.8131C9.34836 40.9808 8.59507 41.0926 7.25916 39.7773C7.95948 41.7753 8.92169 42.0313 10.2341 42.3785C11.7789 42.7875 13.7033 43.2936 16.1897 46.7187L18.5614 45.1297L18.6085 45.2004L16.1721 46.8394Z" fill="black"/>
<path d="M17.8583 44.0938C14.9658 42.3401 12.7559 42.0105 10.9816 41.7486C9.13366 41.475 7.91251 41.2926 7.12097 39.6359L7.19748 39.5977C7.96842 41.2131 9.17191 41.3926 10.9933 41.6633C12.6824 41.9134 14.9952 42.2577 17.9024 44.0203L17.8583 44.0938Z" fill="black"/>
<path d="M23.2402 46.2775V49.4436L5.83215 46.2775L23.2402 43.1113V46.2775H5.8351H23.2402Z" fill="#FCD116"/>
<path d="M23.2842 49.4963L23.2342 49.4875L5.59375 46.2801L23.2842 43.064V49.4963ZM6.31173 46.3213L23.196 49.3904V46.3213H6.31173ZM6.31173 46.236H23.196V43.167L6.31173 46.236Z" fill="black"/>
<path d="M20.6919 42.1959L17.8935 41.6427C19.1676 33.692 14.3772 34.5336 16.5782 30.1992C16.5282 34.2158 19.0499 32.0295 21.4716 37.8792" fill="#FCD116"/>
<path d="M20.7272 42.2463L17.8464 41.6754L17.8523 41.6342C18.5232 37.4529 17.5257 35.7433 16.7283 34.3691C16.0103 33.1362 15.4924 32.2476 16.5429 30.176L16.6253 30.0112L16.6223 30.1966C16.5988 32.1828 17.2049 32.633 18.126 33.3157C19.0411 33.9954 20.2975 34.9253 21.5128 37.859L21.5305 37.9001L21.451 37.9325L21.4334 37.8913C20.2269 34.9782 18.9822 34.0572 18.073 33.3834C17.1608 32.7095 16.5488 32.2564 16.5341 30.382C15.616 32.2917 16.1162 33.1509 16.7989 34.325C17.6022 35.708 18.6026 37.4264 17.9406 41.6077L20.7448 42.1609L20.7272 42.2463Z" fill="black"/>
<path d="M20.9773 40.9278C20.174 37.6439 18.844 35.8489 17.7729 34.4071C16.6607 32.9064 15.925 31.9148 16.5371 30.1816L16.6195 30.2111C16.0221 31.9001 16.746 32.877 17.8436 34.3541C18.8617 35.7254 20.2535 37.6027 21.0627 40.9072L20.9773 40.9278Z" fill="black"/>
<path d="M23.2401 46.2773L21.0009 48.5166L10.9315 33.9717L25.4764 44.041L23.2401 46.2773L10.9315 33.9688L23.2401 46.2773Z" fill="#FCD116"/>
<path d="M20.9979 48.5845L20.9685 48.5433L10.7638 33.8013L10.958 33.9366L25.5471 44.0354L20.9979 48.5845ZM11.2405 34.3398L21.0097 48.4492L23.1813 46.2776L11.2405 34.3398ZM11.3023 34.278L23.2431 46.2187L25.4146 44.0472L11.3023 34.278Z" fill="black"/>
<path d="M24.3259 41.5898L22.7399 39.2181C29.2635 34.4983 25.2793 31.7058 29.902 30.1963C27.0271 33.0005 30.3551 33.2389 27.9334 39.0857" fill="#FCD116"/>
<path d="M24.3141 41.649L22.681 39.2097L22.7134 39.1861C26.1444 36.7026 26.6505 34.79 27.0566 33.254C27.4214 31.874 27.6833 30.8794 29.8902 30.1585L30.0668 30.0996L29.9344 30.2291C28.5131 31.615 28.6249 32.3654 28.7927 33.4953C28.9604 34.6223 29.1899 36.17 27.9746 39.1037L27.957 39.1449L27.8775 39.1126L27.8952 39.0714C29.1016 36.1583 28.8751 34.6282 28.7073 33.51C28.5396 32.3889 28.4278 31.6356 29.7431 30.2997C27.7451 31 27.4891 31.9622 27.1419 33.2746C26.7329 34.8194 26.2268 36.7438 22.8017 39.2303L24.3906 41.602L24.3141 41.649Z" fill="black"/>
<path d="M25.497 40.9396L25.4235 40.8955C27.1772 38.003 27.5068 35.7931 27.7687 34.0188C28.0423 32.1709 28.2247 30.9497 29.8814 30.1582L29.9196 30.2347C28.3042 31.0057 28.1247 32.2091 27.854 34.0306C27.6039 35.7196 27.2625 38.0354 25.497 40.9396Z" fill="black"/>
<path d="M23.2401 46.2776H20.0769L23.2431 28.8696L26.4092 46.2776H23.2401V28.8696V46.2776Z" fill="#FCD116"/>
<path d="M26.4563 46.3213H20.0239L20.0328 46.2713L23.2401 28.6309L26.4563 46.3213ZM23.2842 46.236H26.3533L23.2842 29.3518V46.236ZM20.1269 46.236H23.196V29.3518L20.1269 46.236Z" fill="black"/>
<path d="M27.3243 43.7324L27.8775 40.934C35.8282 42.2082 34.9867 37.4177 39.321 39.6187C35.3045 39.5687 37.4908 42.0905 31.641 44.5122" fill="#FCD116"/>
<path d="M31.6204 44.568L31.588 44.4885L31.6292 44.4709C34.5423 43.2644 35.4634 42.0197 36.1372 41.1105C36.811 40.1983 37.2642 39.5863 39.1386 39.5715C37.2289 38.6535 36.3696 39.1537 35.1956 39.8364C33.8126 40.6397 32.0942 41.6401 27.9128 40.9781L27.3596 43.7794L27.2743 43.7617L27.8451 40.881L27.8863 40.8869C32.0677 41.5577 33.7773 40.5602 35.1514 39.7628C36.3844 39.0448 37.273 38.5269 39.3445 39.5774L39.5093 39.6628L39.3239 39.6598C39.2857 39.6598 39.2474 39.6598 39.2121 39.6598C37.3201 39.6598 36.8758 40.2601 36.2078 41.1634C35.5281 42.0815 34.5982 43.335 31.6645 44.5503L31.6204 44.568Z" fill="black"/>
<path d="M28.6102 44.1001L28.5896 44.0177C31.8735 43.2144 33.6684 41.8844 35.1102 40.8133C36.6109 39.7011 37.6026 38.9654 39.3357 39.5775L39.3063 39.6599C37.6173 39.0625 36.6404 39.7864 35.1632 40.884C33.792 41.8991 31.9147 43.2909 28.6102 44.1001Z" fill="black"/>
<path d="M23.2401 46.2773L21.0009 44.0381L35.5458 33.9688L25.4764 48.5137L23.2401 46.2773L35.5487 33.9688L23.2401 46.2773Z" fill="#FCD116"/>
<path d="M25.4852 48.5845L20.936 44.0354L20.9772 44.006L35.7193 33.8013L25.4852 48.5845ZM23.3018 46.2776L25.4734 48.4492L35.2426 34.3398L23.3018 46.2776ZM21.0684 44.0472L23.24 46.2187L35.1808 34.278L21.0684 44.0472Z" fill="black"/>
<path d="M27.9305 47.3634L30.3022 45.7773C35.022 52.3009 37.8145 48.3167 39.324 52.9395C36.5198 50.0646 36.2814 53.3926 30.4346 50.9709" fill="#FCD116"/>
<path d="M39.421 53.104L39.2915 52.9716C37.9056 51.5503 37.1552 51.6621 36.0253 51.8299C34.8983 51.9976 33.3506 52.2271 30.4169 51.0118L30.3757 50.9942L30.408 50.9147L30.4492 50.9324C33.3623 52.1388 34.8924 51.9123 36.0135 51.7445C37.1347 51.5768 37.8879 51.465 39.2238 52.7803C38.5235 50.7823 37.5613 50.5263 36.249 50.1791C34.7041 49.7701 32.7797 49.264 30.2933 45.8389L27.9216 47.4278L27.8745 47.3572L30.3139 45.7241L30.3374 45.7565C32.8209 49.1875 34.7335 49.6936 36.2695 50.0997C37.6496 50.4645 38.6442 50.7264 39.3651 52.9333L39.421 53.104Z" fill="black"/>
<path d="M39.2828 52.9601C38.5119 51.3446 37.3084 51.1651 35.4869 50.8944C33.7979 50.6443 31.4851 50.3 28.5779 48.5374L28.622 48.4639C31.5145 50.2176 33.7244 50.5472 35.4987 50.8091C37.3466 51.0827 38.5678 51.2652 39.3593 52.9218L39.2828 52.9601Z" fill="black"/>
<path d="M23.2401 46.2775V43.1113L40.6481 46.2775L23.2401 49.4436V46.2775H40.6481H23.2401Z" fill="#FCD116"/>
<path d="M23.1959 49.4963V43.064L23.2459 43.0728L40.8864 46.2801L23.1959 49.4963ZM23.2842 46.3213V49.3904L40.1684 46.3213H23.2842ZM23.2842 46.236H40.1684L23.2842 43.167V46.236Z" fill="black"/>
<path d="M25.7883 50.3618L28.5867 50.915C27.3125 58.8657 32.103 58.0242 29.902 62.3585C29.952 58.342 27.4302 60.5283 25.0085 54.6785" fill="#FCD116"/>
<path d="M29.8549 62.5466L29.8578 62.3612C29.8814 60.375 29.2752 59.9248 28.3542 59.2421C27.4391 58.5624 26.1826 57.6325 24.9674 54.6988L24.9497 54.6576L25.0292 54.6253L25.0468 54.6665C26.2532 57.5796 27.4979 58.5006 28.4072 59.1744C29.3194 59.8512 29.9314 60.3044 29.9461 62.1758C30.8642 60.2661 30.364 59.4069 29.6813 58.2328C28.878 56.8498 27.8775 55.1314 28.5396 50.9501L25.7383 50.3969L25.756 50.3115L28.6367 50.8824L28.6308 50.9236C27.9599 55.1049 28.9574 56.8145 29.7549 58.1887C30.4728 59.4216 30.9907 60.3102 29.9402 62.3818L29.8549 62.5466Z" fill="black"/>
<path d="M29.9432 62.376L29.8608 62.3466C30.4582 60.6576 29.7343 59.6807 28.6367 58.2006C27.6186 56.8293 26.2268 54.9491 25.4176 51.6476L25.5029 51.627C26.3062 54.9108 27.6363 56.7058 28.7073 58.1476C29.8196 59.6512 30.5553 60.6429 29.9432 62.376Z" fill="black"/>
<path d="M23.2401 46.2774L25.4794 44.0381L35.5487 58.583L21.0038 48.5137L23.2401 46.2774L35.5487 58.5859L23.2401 46.2774Z" fill="#FCD116"/>
<path d="M35.7193 58.7569L35.5251 58.6215L20.936 48.5228L25.4852 43.9736L25.5146 44.0148L35.7193 58.7569ZM21.0684 48.511L35.1779 58.2802L23.2371 46.3394L21.0684 48.511ZM23.3018 46.2776L35.2426 58.2184L25.4734 44.109L23.3018 46.2776Z" fill="black"/>
<path d="M23.24 40.4746C21.7011 40.4746 20.2252 41.086 19.1369 42.1742C18.0487 43.2624 17.4374 44.7383 17.4374 46.2773C17.4374 47.8162 18.0487 49.2922 19.1369 50.3804C20.2252 51.4686 21.7011 52.0799 23.24 52.0799C24.779 52.0799 26.2549 51.4686 27.3432 50.3804C28.4314 49.2922 29.0427 47.8162 29.0427 46.2773C29.0427 44.7383 28.4314 43.2624 27.3432 42.1742C26.2549 41.086 24.779 40.4746 23.24 40.4746Z" fill="#FCD116"/>
<path d="M23.2401 52.1243C20.018 52.1243 17.3962 49.5025 17.3962 46.2804C17.3962 43.0583 20.018 40.4336 23.2401 40.4336C26.4622 40.4336 29.0869 43.0554 29.0869 46.2804C29.0869 49.5025 26.4651 52.1243 23.2401 52.1243ZM23.2401 40.5189C20.0651 40.5189 17.4816 43.1025 17.4816 46.2775C17.4816 49.4524 20.0651 52.036 23.2401 52.036C26.4151 52.036 28.9986 49.4524 28.9986 46.2775C28.9986 43.1025 26.4151 40.5189 23.2401 40.5189Z" fill="black"/>
<path d="M27.5126 43.9589C27.1448 44.3797 26.933 43.6411 25.6147 43.6411C24.2965 43.6411 24.0846 44.4326 23.8727 44.2737C23.6609 44.1148 24.9791 43.1673 25.4029 43.1144C25.8266 43.0614 27.0389 43.4822 27.5126 43.9589ZM25.9825 44.4326C26.3503 44.7504 26.0355 45.436 25.6647 45.436C25.2969 45.436 24.6084 44.8034 24.9262 44.3797" fill="black"/>
<path d="M24.2435 44.9061C24.2965 44.2734 24.8232 44.1675 25.6677 44.1675C26.5122 44.1675 26.88 44.8001 27.1978 44.959C26.83 44.959 26.5122 44.4323 25.6677 44.4323C24.8232 44.4323 24.8232 44.4323 24.2435 44.959M24.4024 45.065C24.6143 44.7472 24.8762 45.3827 25.4588 45.3827C26.0385 45.3827 26.3563 45.2238 26.7241 44.962C27.0919 44.6971 26.1974 45.5946 25.6177 45.5946C25.038 45.5946 24.2435 45.2768 24.4024 45.065Z" fill="black"/>
<path d="M26.1944 45.3831C26.88 45.0153 26.4592 44.4856 26.1944 44.3797C26.3003 44.4856 26.7211 45.0123 26.1944 45.3831ZM23.2401 48.5463C23.5579 48.5463 23.6609 48.4404 24.0846 48.4404C24.5054 48.4404 25.5088 49.02 26.0884 48.8082C24.8761 49.2819 25.3499 48.9671 23.2401 48.9671H22.9753M26.3003 49.2849C26.0884 48.917 26.1414 49.02 25.7206 48.4404C26.1414 48.7581 26.2473 48.917 26.3003 49.2849ZM23.2401 49.8145C24.5583 49.8145 24.3465 49.5497 26.0884 48.8111C24.8232 48.97 24.5583 49.3908 23.2401 49.3908H22.9753M23.2401 47.8607C23.6079 47.8607 23.7138 47.5959 24.1376 47.5959C24.5583 47.5959 25.141 47.7548 25.4028 47.9637C25.4558 48.0166 25.2439 47.5429 24.8232 47.4899C24.4024 47.437 24.5583 46.7513 24.0846 46.6454C24.0846 46.8573 24.2435 46.8043 24.2964 47.1192C24.2964 47.384 23.8227 47.384 23.7168 47.1192C23.8227 47.5399 23.5049 47.5399 23.243 47.5399M18.9675 43.9589C19.3353 44.3797 19.5472 43.6411 20.8655 43.6411C22.1837 43.6411 22.3956 44.4326 22.6074 44.2737C22.8193 44.1148 21.501 43.1673 21.0773 43.1144C20.6565 43.0614 19.4413 43.4822 18.9675 43.9589ZM20.4976 44.4326C20.1298 44.7504 20.4447 45.436 20.8154 45.436C21.1833 45.436 21.8718 44.8034 21.554 44.3797" fill="black"/>
<path d="M22.2396 44.9061C22.1866 44.2734 21.657 44.1675 20.8154 44.1675C19.9709 44.1675 19.6031 44.8001 19.2853 44.959C19.6531 44.959 19.9709 44.4323 20.8154 44.4323C21.6599 44.4323 21.6599 44.4323 22.2396 44.959M22.0807 45.065C21.8688 44.7472 21.6069 45.3827 21.0243 45.3827C20.4446 45.3827 20.1268 45.2238 19.759 44.962C19.3912 44.6971 20.2857 45.5946 20.8654 45.5946C21.448 45.5917 22.2396 45.2768 22.0807 45.065Z" fill="black"/>
<path d="M20.2858 45.3828C19.6002 45.015 20.021 44.4853 20.2858 44.3794C20.1799 44.4853 19.7591 45.012 20.2858 45.3828ZM23.2401 48.546C22.9223 48.546 22.8193 48.4401 22.3956 48.4401C21.9748 48.4401 20.9714 49.0198 20.3917 48.8079C21.604 49.2816 21.1303 48.9668 23.2401 48.9668H23.5049M20.1799 49.2846C20.3917 48.9168 20.3388 49.0198 20.7595 48.4401C20.3388 48.7579 20.2328 48.9168 20.1799 49.2846ZM23.2401 49.8142C21.9218 49.8142 22.1337 49.5494 20.3917 48.8108C21.657 48.9697 21.9218 49.3905 23.2401 49.3905H23.5049M23.2401 47.8604C22.8723 47.8604 22.7663 47.5956 22.3426 47.5956C21.9218 47.5956 21.3392 47.7545 21.0773 47.9634C21.0244 48.0164 21.2362 47.5426 21.657 47.4896C22.0778 47.4367 21.9218 46.7511 22.3956 46.6451C22.3956 46.857 22.2367 46.804 22.1837 47.1189C22.1837 47.3837 22.6575 47.3837 22.7634 47.1189C22.6575 47.5397 22.9753 47.5397 23.2371 47.5397M23.2401 50.288C22.9753 50.288 22.2897 50.4469 23.2401 50.4469C24.1905 50.4469 23.5049 50.288 23.2401 50.288Z" fill="black"/>
</g>
<defs>
<clipPath id="clip0_4935_18455">
<rect y="25" width="128" height="78.3448" rx="2" fill="white"/>
</clipPath>
</defs>
</svg>
