<svg width="128" height="128" viewBox="0 0 128 128" fill="none" xmlns="http://www.w3.org/2000/svg">
<g clip-path="url(#clip0_4935_19596)">
<path d="M-0.735596 20H128.736V49.4253H-0.735596V20Z" fill="url(#paint0_linear_4935_19596)"/>
<path d="M-0.735596 49.4253H128.736V78.8506H-0.735596V49.4253Z" fill="#ECEFF1"/>
<path d="M-0.735596 78.8506H128.736V108.276H-0.735596V78.8506Z" fill="url(#paint1_linear_4935_19596)"/>
<path d="M64 75.7698C57.7001 75.7698 52.5771 70.6469 52.5771 64.3499C52.5771 58.0499 57.7001 52.927 64 52.927C70.3 52.927 75.4229 58.0499 75.4229 64.3499C75.4229 70.6469 70.3 75.7698 64 75.7698ZM64 53.5155C58.0267 53.5155 53.1657 58.3766 53.1657 64.3528C53.1657 70.3291 58.0267 75.1843 64 75.1843C69.9734 75.1843 74.8344 70.3262 74.8344 64.3499C74.8344 58.3736 69.9734 53.5155 64 53.5155Z" fill="#263238"/>
<path d="M71.018 69.0813L70.5296 68.7547C71.4094 67.4511 71.8743 65.9298 71.8743 64.3526C71.8743 60.0065 68.3403 56.4725 64.0001 56.4725C59.6599 56.4725 56.1259 60.0065 56.1259 64.3526C56.1259 65.871 56.5555 67.3422 57.3735 68.6105L56.8792 68.9253C55.9993 67.5629 55.5344 65.9799 55.5344 64.3497C55.5344 59.6799 59.3332 55.884 63.9971 55.884C68.661 55.884 72.4599 59.6799 72.4599 64.3497C72.4628 66.0446 71.9655 67.6806 71.018 69.0813Z" fill="#90A4AE"/>
<path d="M64 73.863C58.7535 73.863 54.4868 69.5964 54.4868 64.3528C54.4868 59.1063 58.7535 54.8396 64 54.8396C69.2465 54.8396 73.5132 59.1063 73.5132 64.3528C73.5132 69.5934 69.2465 73.863 64 73.863ZM64 55.128C58.9153 55.128 54.7781 59.2652 54.7781 64.3499C54.7781 69.4345 58.9153 73.5688 64 73.5688C69.0847 73.5688 73.2219 69.4345 73.2219 64.3499C73.2219 59.2652 69.0847 55.128 64 55.128Z" fill="#263238"/>
<path d="M64 71.4002C60.1129 71.4002 56.9497 68.2399 56.9497 64.3499C56.9497 60.4598 60.1129 57.2996 64 57.2996C67.8871 57.2996 71.0503 60.4628 71.0503 64.3499C71.0503 68.2369 67.8871 71.4002 64 71.4002ZM64 57.5909C60.2748 57.5909 57.244 60.6217 57.244 64.3499C57.244 68.0751 60.2748 71.1059 64 71.1059C67.7252 71.1059 70.7561 68.0751 70.7561 64.3499C70.7561 60.6246 67.7252 57.5909 64 57.5909Z" fill="#263238"/>
<path d="M64.0001 61.8545L64.5769 63.5582L66.3777 63.5818L64.9329 64.6558L65.4684 66.3742L64.0001 65.3355L62.5318 66.3742L63.0673 64.6558L61.6226 63.5818L63.4234 63.5582L64.0001 61.8545Z" fill="#FDD835"/>
<path d="M65.7362 66.745L64.0001 65.518L62.264 66.745L62.8966 64.7117L61.187 63.4406L63.3174 63.4111L64.0001 61.3955L64.6827 63.4111L66.8131 63.4406L65.1035 64.7117L65.7362 66.745ZM64.0001 65.1561L65.2006 66.0035L64.7651 64.5999L65.9421 63.7201L64.4738 63.7024L64.0001 62.3106L63.5293 63.7054L62.0609 63.723L63.238 64.6029L62.8025 66.0064L64.0001 65.1561Z" fill="#263238"/>
<path d="M62.6406 59.1739C62.6406 59.1739 61.1546 59.6241 60.7309 60.4744C60.7574 59.8389 61.4194 58.7766 61.4194 58.7766C61.4194 58.7766 60.3601 59.5976 60.1718 60.9511C60.0394 61.216 59.7745 61.5338 59.7745 61.5338L59.7481 60.5804L60.5426 59.015C60.5426 59.015 59.5627 60.0213 59.4832 60.5009C59.4038 60.9806 59.2449 61.4278 59.2449 61.4278L58.8477 60.4744C58.8477 60.4744 58.9006 61.3219 58.7417 61.8545C58.5828 62.3871 58.6888 63.1816 58.6888 63.1816L57.8413 62.3341L58.5034 63.6082L58.9536 64.694L58.2121 64.4557C58.2121 64.4557 58.5828 65.0118 58.8741 65.4091C59.1654 65.8063 60.0394 67.0275 60.0394 67.0275C60.0394 67.0275 59.3508 66.6302 58.6593 65.8063C58.7653 66.7332 59.3214 67.3453 59.6392 67.4512C59.957 67.5571 61.2576 68.2192 61.2576 68.2192C61.2576 68.2192 59.957 68.1662 59.4538 67.9014C60.1953 68.7224 60.9663 68.7753 61.39 68.8018C61.8137 68.8283 63.0084 69.1461 63.3527 69.252C63.6969 69.3579 64.5179 69.4904 64.5179 69.4904L65.6302 70.1524L66.1863 69.8611L64.6474 69.0931C64.6474 69.0931 63.6675 69.1991 63.2409 68.7753C62.8142 68.3516 62.5788 68.2986 62.5788 68.2986C62.5788 68.2986 61.7049 67.1599 61.3312 66.8656C61.3312 66.8656 61.6489 67.819 62.0727 68.3251C61.1723 67.7955 60.9339 67.051 60.9339 67.051L60.8545 65.618C60.8545 65.618 60.4837 64.7705 60.0865 64.4792C60.3778 63.9761 60.3248 63.3405 60.2983 62.9933C59.9276 63.7083 59.6363 64.132 59.6363 64.132L59.5833 65.5385C59.5833 65.5385 59.3185 63.8937 59.5303 63.5229C59.7422 63.1522 61.3341 61.6397 61.3341 61.6397C61.3341 61.6397 60.4602 61.6662 60.1129 62.1429C60.3248 61.4014 61.3076 61.2954 61.3076 61.2954L62.0756 60.4744L61.3076 61.0041C61.3076 61.0041 60.4602 61.1895 60.0865 61.6132C61.0134 60.6598 61.1723 60.7393 61.1723 60.7393L62.6406 59.1739Z" fill="#43A047"/>
<path d="M62.002 69.7787L64.3089 69.0371L64.8386 69.196L65.3682 68.9577C65.3682 68.9577 65.9508 67.3658 67.119 67.2334C67.4368 66.6243 67.7546 66.7037 67.7546 66.7037C67.7546 66.7037 67.5427 65.4561 67.94 64.8205C68.1783 65.1648 68.2578 65.2442 68.2578 65.2442L68.655 64.9529C68.655 64.9529 67.7811 63.8142 67.8605 63.0432C68.0724 62.9638 68.4167 63.2816 68.4167 63.2816L68.3902 62.4076C68.3902 62.4076 67.1426 62.0898 66.9042 61.5337C67.222 61.3748 67.4868 61.5072 67.4868 61.5072L67.3809 60.6862C67.3809 60.6862 65.6831 60.6068 65.1534 59.8653C65.6301 59.7594 65.9479 59.7858 65.9479 59.7858L65.4977 58.9119L66.7453 59.3356L66.3746 58.5676C66.3746 58.5676 67.4868 59.0178 67.4074 59.7623C67.6987 59.418 67.5928 59.471 67.5928 59.471C67.5928 59.471 68.2019 59.9212 68.4137 60.7716C68.6521 60.189 68.6521 59.7652 68.6521 59.7652L69.0493 60.9305L69.2877 60.5862C69.2877 60.5862 69.6319 61.6985 69.1817 62.5224C69.6054 62.2046 69.6055 62.2046 69.6055 62.2046C69.6055 62.2046 69.6054 62.8667 69.5525 63.105C69.8968 62.7872 70.1086 62.5224 70.1086 62.5224C70.1086 62.5224 70.1881 64.4056 69.1817 65.0677C69.2612 65.4914 69.2082 65.7562 69.2082 65.7562L69.8703 65.3855L69.2347 66.6596L70.0292 66.3153C70.0292 66.3153 69.2347 67.7218 68.2784 67.6424C68.1195 67.8807 67.6163 68.278 67.6163 68.278L68.811 68.3574C68.811 68.3574 68.0959 69.0195 67.4309 68.8606C67.0337 69.3108 66.7159 69.4697 65.7331 69.3108C64.7532 69.1519 62.7641 70.0258 62.7641 70.0258L62.002 69.7787Z" fill="#43A047"/>
</g>
<defs>
<linearGradient id="paint0_linear_4935_19596" x1="64" y1="20" x2="64" y2="49.4253" gradientUnits="userSpaceOnUse">
<stop stop-color="#FF4242"/>
<stop offset="1" stop-color="#D50000"/>
</linearGradient>
<linearGradient id="paint1_linear_4935_19596" x1="64" y1="78.8506" x2="64" y2="108.276" gradientUnits="userSpaceOnUse">
<stop stop-color="#3070D2"/>
<stop offset="1" stop-color="#0D47A1"/>
</linearGradient>
<clipPath id="clip0_4935_19596">
<rect y="20" width="128" height="88.2759" rx="2" fill="white"/>
</clipPath>
</defs>
</svg>
