<svg width="128" height="128" viewBox="0 0 128 128" fill="none" xmlns="http://www.w3.org/2000/svg">
<g clip-path="url(#clip0_4935_18189)">
<path d="M-0.735596 20H128.736V108.276H-0.735596V20Z" fill="url(#paint0_linear_4935_18189)"/>
<path d="M-0.735596 34.7124H128.736V64.1377H-0.735596V34.7124Z" fill="#FFEA00"/>
<path d="M-0.735596 49.4253H128.736V64.1379H-0.735596V49.4253Z" fill="url(#paint1_linear_4935_18189)"/>
<path d="M-0.735596 78.8506H128.736V108.276H-0.735596V78.8506Z" fill="#FFEA00"/>
<path d="M-0.735596 93.5635H128.736V108.276H-0.735596V93.5635Z" fill="url(#paint2_linear_4935_18189)"/>
<path d="M63.9999 46.4829C59.3175 46.4829 54.8268 48.343 51.5158 51.654C48.2048 54.965 46.3447 59.4556 46.3447 64.1381C46.3447 68.8205 48.2048 73.3112 51.5158 76.6222C54.8268 79.9332 59.3175 81.7933 63.9999 81.7933C68.6823 81.7933 73.173 79.9332 76.484 76.6222C79.795 73.3112 81.6551 68.8205 81.6551 64.1381C81.6551 59.4556 79.795 54.965 76.484 51.654C73.173 48.343 68.6823 46.4829 63.9999 46.4829Z" fill="white"/>
<path d="M61.031 52.1767L60.0188 50.3141C60.4102 49.9227 61.0663 49.6226 62.1139 49.6226C62.1139 49.6932 62.0079 51.6647 62.0079 51.6647L61.031 52.1767Z" fill="#D90000"/>
<path d="M60.9986 52.2884L59.9187 50.2963L59.9628 50.2522C60.4307 49.7843 61.1752 49.5342 62.1168 49.5342H62.1992V49.6166C62.1992 49.6872 62.1021 51.4615 62.0932 51.6616L62.0903 51.7087L60.9986 52.2884ZM60.1247 50.3287L61.0663 52.0648L61.9284 51.6116C61.9638 50.9348 62.0138 49.9932 62.0285 49.7078C61.2046 49.7196 60.5484 49.9344 60.1247 50.3287Z" fill="black"/>
<path d="M62.0078 51.6794L62.1491 49.6196C62.1491 49.6196 64.2441 49.496 65.38 50.8614C65.3976 50.8437 64.2618 52.4591 64.2618 52.4591L62.0078 51.6794Z" fill="#FCDC04"/>
<path d="M64.2943 52.5592L61.9197 51.7382L62.0697 49.5431L62.1433 49.5402C62.2316 49.5343 64.2943 49.4284 65.4419 50.8113C65.4919 50.8525 65.4919 50.8525 64.8887 51.7118L64.2943 52.5592ZM62.0962 51.6205L64.2296 52.3591C64.6121 51.8177 65.1388 51.0673 65.2742 50.8673C64.2884 49.7373 62.5994 49.6961 62.2257 49.6991L62.0962 51.6205Z" fill="black"/>
<path d="M64.2971 52.4415L65.327 50.8438C66.0185 51.5706 66.3039 52.0855 66.4099 52.8682C66.4275 52.8859 64.7768 53.2772 64.7768 53.2596C64.7768 53.2419 64.3148 52.4592 64.2971 52.4415Z" fill="#D90000"/>
<path d="M64.7562 53.3386L64.6944 53.321V53.2739C64.6385 53.165 64.2618 52.5294 64.2324 52.4912L64.1853 52.4441L64.2294 52.3941L65.3152 50.708L65.3888 50.7845C66.0979 51.5319 66.3804 52.0498 66.4893 52.8266L66.5158 52.8531L66.4834 52.909C66.4275 53.0032 64.7856 53.3386 64.7562 53.3386ZM64.3942 52.4441C64.4884 52.5942 64.7267 52.9855 64.8209 53.168C65.0622 53.1209 66.0626 52.8825 66.3157 52.8119C66.2098 52.1234 65.9538 51.6437 65.3388 50.9787L64.3942 52.4441Z" fill="black"/>
<path d="M61.5459 78.818C61.5459 78.818 63.4791 76.5993 67.2426 77.079C66.6747 76.155 64.8474 76.2639 64.8474 76.2639C64.8474 76.2639 64.2795 71.9501 64.7238 71.7383C65.1682 71.5264 67.0484 71.7559 67.0484 71.7559C67.2956 71.7559 67.7223 71.0821 67.3868 70.6554C67.0484 70.2288 66.0568 68.5957 66.4629 68.2779C66.8719 67.9571 69.0905 68.4544 69.0905 68.4544L62.8259 60.4331C62.8259 60.4331 62.1874 57.417 63.4644 55.9604C65.0093 54.6834 64.8474 53.2975 64.7945 53.3151C64.5826 51.9115 62.4522 50.9022 61.0133 52.1969C60.16 53.2268 60.7279 54.0066 60.7279 54.0066C60.7279 54.0066 58.4916 54.6098 58.4033 55.0012C58.315 55.3925 60.925 54.9306 60.925 54.9306L60.6779 56.7226C60.6779 56.7226 55.602 61.3364 59.4891 65.3295C59.5244 65.3118 59.6127 65.1529 59.6127 65.1529C59.6127 65.1529 60.978 66.839 62.4169 67.2127C63.7646 68.5957 63.641 68.3838 63.641 68.3838C63.641 68.3838 63.9058 70.5672 63.6586 70.9938C63.3202 70.8879 59.8775 70.7643 59.3625 70.9585C58.9006 71.0998 57.1262 71.0115 57.5705 73.904C57.9089 73.1242 58.2091 72.4298 58.2091 72.4298C58.2091 72.4298 58.1561 73.4773 58.5828 73.851C58.5122 72.7505 58.9918 72.006 58.9918 72.006C58.9918 72.006 59.0801 73.2125 59.3478 73.389C59.6127 73.5656 59.6127 71.4352 61.0869 71.6147C62.5611 71.7912 63.6263 71.7383 63.6263 71.7383C63.6263 71.7383 64.1236 75.9078 63.9647 76.2992C62.8995 76.052 60.363 76.4051 60.2012 77.0437C61.693 76.9554 62.3845 77.1319 62.3845 77.1319C62.3845 77.1319 61.1751 78.1971 61.5459 78.818Z" fill="black"/>
<path d="M61.5342 78.9597L61.4754 78.8626C61.1429 78.3094 61.8962 77.4855 62.2051 77.1853C61.9256 77.1412 61.2694 77.0647 60.2042 77.1294L60.0894 77.1353L60.1159 77.0264C60.2984 76.2937 62.8378 75.9995 63.8971 76.2025C63.9648 75.7199 63.7352 73.4012 63.5469 71.824C63.2733 71.8329 62.311 71.8446 61.0722 71.6975C60.1336 71.5857 59.8305 72.4949 59.6481 73.0393C59.5627 73.2982 59.5156 73.4424 59.4156 73.4748C59.3773 73.4895 59.3332 73.4836 59.2979 73.4571C59.0831 73.313 58.9801 72.6891 58.933 72.2948C58.8006 72.595 58.6182 73.1482 58.6653 73.8426L58.677 74.0427L58.527 73.9103C58.2445 73.6631 58.1591 73.1629 58.1327 72.8127C58.012 73.0893 57.8355 73.4983 57.6471 73.9338L57.5324 74.2016L57.4882 73.9132C57.0851 71.2944 58.4652 71.0413 59.1272 70.9207C59.2126 70.906 59.2861 70.8913 59.3391 70.8765C59.854 70.6794 63.0173 70.7971 63.6117 70.8971C63.7617 70.4852 63.6352 69.0492 63.5646 68.4431C63.4322 68.3519 63.135 68.0664 62.3728 67.2867C61.1105 66.9483 59.9335 65.6565 59.6245 65.2975C59.5657 65.3858 59.5392 65.4005 59.5274 65.4064L59.4715 65.4329L59.4303 65.3887C58.4034 64.3353 57.9031 63.1406 57.9443 61.8371C58.0238 59.1888 60.3454 56.9231 60.6014 56.6818L60.831 55.031C60.1924 55.1399 58.6094 55.3812 58.3681 55.1281C58.3298 55.0869 58.3151 55.0369 58.3269 54.981C58.4151 54.5926 60.0659 54.1041 60.6073 53.9541C60.4808 53.701 60.2483 52.9948 60.9516 52.1415C61.6254 51.5324 62.5347 51.3558 63.388 51.6618C64.1766 51.9443 64.7563 52.574 64.874 53.2743L64.8769 53.2773C64.9387 53.3891 65.0623 54.7427 63.5175 56.0197C62.3405 57.3615 62.8525 60.1393 62.9025 60.3923L69.2996 68.5814L69.073 68.5313C68.1961 68.3342 66.7925 68.1223 66.5159 68.3371C66.4806 68.3636 66.463 68.4078 66.4541 68.4696C66.3953 68.958 67.1368 70.1968 67.4517 70.597C67.6253 70.8177 67.6429 71.1296 67.4928 71.4356C67.3957 71.6328 67.2221 71.8329 67.0485 71.8329C66.5218 71.7681 65.1065 71.6416 64.7592 71.8064C64.5209 71.9211 64.6562 74.1457 64.9211 76.1702C65.2859 76.1613 66.7896 76.176 67.3163 77.0294L67.4075 77.1765L67.2339 77.1559C63.5587 76.688 61.6284 78.8449 61.6107 78.8685L61.5342 78.9597ZM61.0016 76.9352C61.9344 76.9352 62.3787 77.047 62.3993 77.0529L62.5523 77.0912L62.4346 77.1942C62.1374 77.456 61.4489 78.1976 61.5725 78.6684C61.9933 78.2564 63.8618 76.638 67.0603 76.9735C66.4277 76.2643 64.8681 76.3438 64.8505 76.3467L64.774 76.3526L64.7651 76.2761C64.6298 75.2491 64.2266 71.8858 64.6886 71.6651C65.1476 71.4445 66.9808 71.6651 67.0603 71.674C67.1221 71.674 67.2545 71.5563 67.3457 71.3709C67.3899 71.2797 67.5193 70.9589 67.3222 70.7088C67.0927 70.4175 66.2158 69.0639 66.2894 68.4578C66.3011 68.3489 66.3453 68.2665 66.4129 68.2136C66.7749 67.9311 68.2844 68.2047 68.8847 68.3283L62.7495 60.4718L62.7465 60.4541C62.7201 60.3305 62.1139 57.3792 63.4057 55.9079C64.6857 54.8456 64.7798 53.7216 64.7445 53.4244L64.7298 53.4303L64.7151 53.3332C64.6151 52.6829 64.0736 52.0914 63.3321 51.8266C62.5259 51.5382 61.7019 51.6971 61.0722 52.265C60.2778 53.2243 60.7957 53.957 60.7986 53.9658L60.8692 54.0629L60.7515 54.0953C59.6775 54.3866 58.5358 54.8133 58.4858 55.0281C58.5858 55.1605 59.8217 55.0487 60.9104 54.8574L61.0222 54.8368L60.7545 56.773L60.7339 56.7818C60.7074 56.8054 58.1915 59.1241 58.1091 61.843C58.0709 63.07 58.5358 64.1999 59.4833 65.2033C59.5009 65.1769 59.5215 65.1416 59.5392 65.1092L59.598 65.0003L59.6745 65.0974C59.6893 65.1151 61.0399 66.7658 62.4346 67.1278L62.4582 67.1336L62.4758 67.1513C63.4675 68.1694 63.6411 68.2989 63.6705 68.3165L63.644 68.3636L63.7117 68.3401L63.75 68.4048L63.7294 68.4254C63.7735 68.8109 63.9706 70.6205 63.7294 71.0354L63.697 71.0943L63.6322 71.0737C63.2909 70.9648 59.8776 70.853 59.3921 71.0354C59.3273 71.056 59.2479 71.0707 59.1567 71.0884C58.527 71.2032 57.3764 71.415 57.6148 73.5954C57.9002 72.9363 58.1327 72.3978 58.1327 72.3978L58.2916 72.4361C58.2916 72.4449 58.2592 73.1747 58.4917 73.6013C58.4975 72.6303 58.9007 71.9918 58.9213 71.9623L59.0566 71.7534L59.0743 72.0035C59.1096 72.4685 59.2214 73.157 59.3715 73.3071C59.4068 73.2541 59.4539 73.1099 59.4921 72.9893C59.6745 72.4361 60.0188 71.4033 61.0928 71.5327C62.5435 71.7063 63.6058 71.6563 63.6175 71.6563L63.694 71.6534L63.7029 71.7299C63.7529 72.1595 64.1972 75.9347 64.0354 76.332L64.0089 76.3967L63.9412 76.3791C62.9349 76.1437 60.7456 76.4585 60.3366 76.9529C60.5838 76.9382 60.8045 76.9352 61.0016 76.9352Z" fill="black"/>
<path d="M62.1463 56.0576C62.1463 56.0576 58.4535 60.1301 60.0454 63.2433C60.1307 62.8078 60.0924 62.5371 60.1454 62.5547C60.0571 62.5018 60.6044 62.9284 60.5632 62.846C60.575 62.6195 60.3955 62.1369 60.3955 62.1369C60.5632 62.1781 60.728 62.2193 60.8957 62.2605C60.7986 62.081 60.7015 61.8985 60.6044 61.719C60.8398 61.7455 61.0752 61.7749 61.3136 61.8014C61.3136 61.8014 61.0635 61.1364 61.1459 61.1364C61.2283 61.1364 61.7285 61.1776 61.7285 61.1776C60.678 59.2973 61.6696 57.7319 62.1463 56.0576Z" fill="#9CA69C"/>
<path d="M60.0806 63.4994L59.9717 63.2846C58.371 60.1537 62.0462 56.0459 62.0844 56.0047L62.2257 56.0842C62.1286 56.4285 62.0079 56.7727 61.8902 57.1023C61.4253 58.4264 60.9839 59.6741 61.8019 61.1424L61.8784 61.2778L61.7225 61.266C61.6107 61.2572 61.3517 61.2366 61.2193 61.2277C61.2399 61.3395 61.3164 61.5779 61.3929 61.778L61.44 61.9075L60.7544 61.828L61.0575 62.39L60.5219 62.2576C60.572 62.4165 60.6455 62.6666 60.6426 62.8285L60.6661 62.8755L60.6073 62.9256C60.5308 62.9785 60.3218 62.8226 60.1894 62.7108C60.1894 62.7166 60.1894 62.7255 60.1894 62.7314C60.1806 62.852 60.1688 63.0344 60.1247 63.2581L60.0806 63.4994ZM61.9432 56.4285C61.1605 57.4054 58.9712 60.4627 60.0041 62.9579C60.0158 62.8638 60.0188 62.7843 60.0247 62.7225C60.0305 62.6549 60.0335 62.6048 60.0394 62.5695L60.0276 62.5578L60.1159 62.443L60.1865 62.4842L60.1688 62.5195L60.1953 62.496C60.2189 62.5195 60.3572 62.6284 60.4631 62.7049C60.4337 62.5195 60.3513 62.2694 60.313 62.1664L60.2571 62.0193L60.7279 62.137L60.4513 61.622L61.184 61.7074C60.9986 61.1895 61.0428 61.1277 61.0634 61.0983L61.0869 61.0629L61.1428 61.0571C61.1987 61.0571 61.4253 61.0747 61.5812 61.0865C60.828 59.6093 61.287 58.3058 61.7313 57.0464C61.8049 56.8434 61.8755 56.6374 61.9432 56.4285ZM63.4292 52.5679C63.4292 52.5679 63.6234 53.9715 62.8613 54.3775C62.7377 54.4658 62.258 54.6247 62.3287 54.9101C62.4169 55.3015 62.6317 55.2309 62.9319 55.1573C63.7293 55.0161 64.6533 53.3123 63.4292 52.5679Z" fill="#9CA69C"/>
<path d="M62.6171 55.2987C62.5494 55.2987 62.4876 55.287 62.4317 55.2517C62.3405 55.1958 62.2816 55.0928 62.2434 54.9309C62.1728 54.6455 62.5023 54.4748 62.6965 54.3748C62.7436 54.3512 62.7819 54.3306 62.8084 54.313C63.5205 53.9305 63.3439 52.5946 63.341 52.5828L63.3174 52.4092L63.4675 52.5004C63.9677 52.8064 64.1855 53.2978 64.0736 53.8863C63.953 54.5366 63.4322 55.1575 62.9408 55.2458L62.9025 55.2546C62.8025 55.2752 62.7054 55.2987 62.6171 55.2987ZM63.5293 52.7387C63.5558 53.1448 63.544 54.107 62.8996 54.4513C62.879 54.466 62.8319 54.4925 62.776 54.519C62.57 54.6249 62.3699 54.7426 62.4082 54.8897C62.4347 55.0074 62.4729 55.0781 62.52 55.1075C62.5936 55.1516 62.7142 55.1251 62.8672 55.0869L62.9084 55.0781C63.3351 55.0015 63.8029 54.4307 63.9118 53.851C63.9648 53.5803 63.9736 53.0948 63.5293 52.7387Z" fill="#9CA69C"/>
<path d="M61.7784 53.48C61.6988 53.48 61.6225 53.5116 61.5662 53.5679C61.5099 53.6242 61.4783 53.7005 61.4783 53.7801C61.4783 53.8597 61.5099 53.9361 61.5662 53.9923C61.6225 54.0486 61.6988 54.0803 61.7784 54.0803C61.858 54.0803 61.9344 54.0486 61.9906 53.9923C62.0469 53.9361 62.0785 53.8597 62.0785 53.7801C62.0785 53.7005 62.0469 53.6242 61.9906 53.5679C61.9344 53.5116 61.858 53.48 61.7784 53.48Z" fill="white"/>
<path d="M60.872 54.9453C60.6778 55.1042 59.6479 56.1694 60.6601 56.5608C61.7077 56.2753 61.4223 56.0811 61.6547 55.8516C61.6606 55.372 61.1339 55.2455 60.872 54.9453Z" fill="#D90000"/>
<path d="M60.6542 56.649L60.6277 56.6402C60.3423 56.5313 60.1805 56.3577 60.1422 56.1312C60.0598 55.625 60.663 55.01 60.8161 54.8835L60.8778 54.8335L60.9308 54.8953C61.0103 54.9865 61.1191 55.063 61.2339 55.1425C61.4693 55.3072 61.7371 55.4926 61.7312 55.8546V55.8899L61.7076 55.9134C61.6547 55.9664 61.637 56.0164 61.6135 56.0723C61.5311 56.2812 61.4163 56.4431 60.6778 56.6461L60.6542 56.649ZM60.8661 55.0601C60.6572 55.2572 60.2511 55.7457 60.3099 56.1017C60.3364 56.2636 60.4512 56.3842 60.663 56.4725C61.3516 56.2812 61.4075 56.1429 61.4605 56.0076C61.484 55.9487 61.5076 55.8869 61.5664 55.8192C61.5546 55.5632 61.3634 55.4308 61.1427 55.2778C61.0485 55.2101 60.9514 55.1425 60.8661 55.0601Z" fill="black"/>
<path d="M63.1085 65.0093C63.0555 65.2388 62.826 66.0921 63.1438 66.7483C64.0324 66.3746 64.4385 66.4835 64.7416 66.6777C64.0148 66.0921 63.7293 65.842 63.1085 65.0093Z" fill="#9CA69C"/>
<path d="M63.1025 66.857L63.0672 66.7864C62.7523 66.1391 62.9436 65.3358 63.0142 65.0356L63.0642 64.8179L63.1731 64.9621C63.794 65.7948 64.0735 66.0361 64.7915 66.6158L64.6944 66.7511C64.4207 66.5746 64.05 66.4627 63.1731 66.8276L63.1025 66.857ZM63.1495 65.2033C63.076 65.5329 62.9759 66.1361 63.1878 66.6422C63.691 66.4421 64.0411 66.3951 64.303 66.4274C63.8675 66.0626 63.5909 65.783 63.1495 65.2033Z" fill="#9CA69C"/>
<path d="M64.6357 69.0371L64.6887 71.0263C64.6887 71.0263 65.3802 71.1498 65.7009 71.0263C66.0187 70.8997 65.6833 69.6403 64.6357 69.0371Z" fill="white"/>
<path d="M65.2918 71.1647C64.9917 71.1647 64.6915 71.1117 64.6739 71.1088L64.6062 71.097L64.5474 68.8931L64.6768 68.9666C65.5155 69.4522 65.9304 70.3702 65.898 70.8204C65.8833 71.0176 65.7862 71.0853 65.7303 71.1059C65.6126 71.15 65.4537 71.1647 65.2918 71.1647ZM64.771 70.9528C64.9475 70.9793 65.4331 71.0382 65.6714 70.947C65.7038 70.9352 65.7273 70.8822 65.7332 70.8057C65.7626 70.4202 65.4184 69.6552 64.7239 69.1903L64.771 70.9528Z" fill="white"/>
<path d="M69.6584 69.2874C69.6584 69.2874 68.3814 66.1977 65.1151 65.4179C61.8489 64.6382 62.2756 61.1572 62.5404 60.9453C62.6817 60.6422 62.7876 60.1832 63.7292 60.6246C64.6708 61.0689 68.9993 63.2522 69.6231 63.3582C70.244 63.4641 69.7114 69.358 69.6584 69.2874Z" fill="#9CA69C"/>
<path d="M69.6319 69.3876L69.5819 69.317C69.5701 69.2875 68.2813 66.2597 65.0946 65.4976C63.2466 65.0562 62.5993 63.7968 62.3786 62.8169C62.1844 61.9489 62.2991 61.0808 62.4698 60.8955C62.4786 60.8749 62.4875 60.8572 62.4963 60.8366C62.5669 60.6748 62.6552 60.4747 62.8729 60.3923C63.0819 60.3128 63.3732 60.3658 63.7616 60.5482C63.9793 60.6512 64.3766 60.8454 64.865 61.0867C66.4746 61.8753 69.167 63.1965 69.6319 63.276C69.8026 63.3054 69.9026 63.5526 69.9556 64.0822C70.0792 65.2916 69.8732 69.2905 69.6849 69.367L69.6319 69.3876ZM63.0877 60.5247C63.0289 60.5247 62.9789 60.5335 62.9318 60.5482C62.7788 60.6041 62.714 60.7572 62.6493 60.9013C62.6375 60.9278 62.6258 60.9514 62.614 60.9778L62.6052 60.9955L62.5905 61.0073C62.5022 61.0838 62.3227 61.9224 62.5669 62.8846C62.7935 63.7762 63.4203 64.9238 65.1328 65.3328C67.8635 65.986 69.2347 68.2606 69.6172 69.0109C69.7349 67.9811 70.0203 64.0881 69.6525 63.4849C69.629 63.4437 69.6113 63.4378 69.6054 63.4378C69.117 63.3525 66.5128 62.0783 64.7915 61.2338C64.303 60.9955 63.9058 60.8013 63.691 60.6983C63.4467 60.5835 63.2437 60.5247 63.0877 60.5247Z" fill="black"/>
<path d="M66.5513 65.4002C66.4983 65.4355 70.918 68.0103 69.585 70.2289C70.8444 69.3932 70.4383 67.9396 70.4383 67.9396C70.4383 67.9396 71.4682 70.6203 68.9641 71.9326C69.229 72.1622 69.4084 72.1092 69.4084 72.1092L68.9818 72.5359C68.9818 72.5359 68.7876 72.8566 70.4736 72.0386C70.0117 72.4123 69.9764 72.6771 69.9764 72.6771C69.9764 72.6771 70.0999 73.0332 71.2004 72.0739C70.3118 73.0332 70.1176 73.5304 70.1176 73.5128C72.5128 73.3009 77.7329 65.5091 68.4668 63.1992C68.9641 63.7142 68.8935 63.6435 68.8935 63.6435L66.5513 65.4002Z" fill="#D90000"/>
<path d="M70.1204 73.5953C70.1145 73.5953 70.1057 73.5953 70.0998 73.5924L70.0351 73.5777V73.4364L70.0675 73.4335C70.194 73.1981 70.3794 72.9244 70.6118 72.6302C70.3558 72.7891 70.1646 72.8509 70.0321 72.8156C69.9321 72.7891 69.9027 72.7185 69.8968 72.7038L69.8909 72.6861L69.8938 72.6655C69.8968 72.6449 69.9203 72.5154 70.0733 72.3183C69.0552 72.7832 68.9699 72.689 68.9228 72.6331C68.8816 72.589 68.8875 72.5301 68.914 72.4889L68.9257 72.4742L69.2259 72.1741C69.1406 72.1476 69.0346 72.0976 68.914 71.9917L68.8228 71.9122L68.9316 71.8563C70.4676 71.0501 70.6442 69.7318 70.5589 68.8549C70.4882 69.3287 70.2558 69.8848 69.6378 70.2968L69.5201 70.185C70.0292 69.3375 69.9527 67.8545 66.6983 65.6093C66.4776 65.4563 66.4717 65.4534 66.4717 65.4004V65.3563L66.507 65.3327L68.7727 63.6319C68.7168 63.5731 68.608 63.4613 68.4108 63.2582L68.2078 63.0493L68.4903 63.1199C73.4131 64.347 73.9486 67.0541 73.8339 68.5607C73.6338 71.1207 71.4328 73.4659 70.144 73.5953C70.1351 73.5953 70.1292 73.5953 70.1204 73.5953ZM71.1474 72.0093L71.2621 72.13C70.8237 72.6037 70.4794 73.048 70.2734 73.4011C71.5211 73.1216 73.4778 70.9324 73.6632 68.543C73.8545 66.1037 72.1037 64.2675 68.7315 63.3524C68.8051 63.4289 68.861 63.4878 68.8993 63.5319L68.9493 63.5819L68.9434 63.5878C68.9964 63.6584 68.9817 63.6731 68.9522 63.7026L68.8934 63.7614L68.8816 63.7496L66.6835 65.3975C66.713 65.4181 66.7483 65.4416 66.7836 65.4651C69.7732 67.5278 70.1469 68.9991 69.8085 69.9378C70.6707 69.1404 70.3676 68.0045 70.3529 67.9545L70.5118 67.9015C70.5235 67.928 71.5063 70.5822 69.1141 71.9358C69.2789 72.0446 69.3818 72.0211 69.3818 72.0211L69.6702 71.9505L69.1288 72.4948C69.2789 72.4625 69.6261 72.3448 70.4323 71.9564L70.5206 72.0976C70.194 72.3624 70.0939 72.5684 70.0645 72.6478C70.0704 72.6478 70.0763 72.6508 70.0822 72.6508C70.1704 72.6684 70.4412 72.6243 71.1474 72.0093Z" fill="black"/>
<path d="M66.7483 64.6352C67.3515 65.0619 67.5634 65.2031 67.637 65.415C67.0867 65.2914 66.5894 65.3267 66.5894 65.3267C66.5894 65.3267 65.4006 64.1909 65.1858 64.1026C65.0269 64.1026 64.103 63.5171 64.103 63.5171C63.641 63.2876 63.2143 61.6898 64.9181 62.1517C66.6748 62.9845 66.9249 63.058 66.9249 63.058C67.6222 63.2758 68.3196 63.4965 69.0199 63.7142C69.4231 64.1644 69.8233 64.6146 70.2264 65.0619C70.2264 65.0619 68.0783 63.9967 67.8135 63.9791C68.3991 64.4587 68.7375 65.1149 68.7375 65.1149C68.0548 64.9207 67.4633 64.7412 66.7483 64.6352Z" fill="white"/>
<path d="M67.7606 65.5299L67.6164 65.4975C67.0867 65.3769 66.5983 65.4092 66.5924 65.4092L66.5541 65.4122L66.5276 65.3857C66.0804 64.959 65.3271 64.2675 65.1594 64.1822C64.9534 64.1498 64.2678 63.7202 64.0559 63.5849C63.7528 63.4348 63.4939 62.8139 63.6557 62.3931C63.744 62.1636 64.0265 61.8193 64.9387 62.0665C66.6601 62.8816 66.9337 62.9699 66.9455 62.9728L69.0641 63.6378L70.2853 65.0032L70.1852 65.1326C69.5732 64.8295 68.661 64.3911 68.1519 64.1822C68.5609 64.6089 68.7934 65.0502 68.8052 65.0738L68.8934 65.2444L68.5727 65.1532C68.0578 65.0061 67.6017 64.8737 67.0926 64.7766C67.484 65.0561 67.6458 65.1915 67.7105 65.3886L67.7606 65.5299ZM66.766 65.2386C66.9278 65.2386 67.1838 65.2474 67.4722 65.2974C67.3633 65.1709 67.1603 65.0267 66.7836 64.7619L66.7013 64.703L66.7601 64.5529C67.4104 64.6501 67.9489 64.8001 68.5609 64.9767C68.4226 64.753 68.1431 64.3558 67.7606 64.0439L67.5575 63.8791L67.8165 63.8968C68.0283 63.9115 69.2318 64.4853 69.8762 64.8001L68.9729 63.7849L66.9014 63.1346C66.8925 63.1317 66.6277 63.0523 64.8857 62.2254C64.309 62.0695 63.9323 62.1489 63.8146 62.4549C63.6822 62.8051 63.9235 63.3318 64.1413 63.4407C64.5768 63.7173 65.0946 64.0115 65.1859 64.0174L65.2182 64.0233C65.4271 64.1116 66.4158 65.0444 66.6189 65.2386C66.6512 65.2415 66.7013 65.2386 66.766 65.2386Z" fill="black"/>
<path d="M58.3884 55.1044C58.3884 55.1044 60.4482 54.6071 60.6954 54.6778L58.3884 55.1044Z" fill="black"/>
<path d="M58.4062 55.1866L58.3679 55.0248C58.7151 54.9394 60.463 54.5275 60.719 54.601L60.6719 54.7629C60.5248 54.7158 59.3949 54.9483 58.4062 55.1866Z" fill="white"/>
</g>
<defs>
<linearGradient id="paint0_linear_4935_18189" x1="64" y1="20" x2="64" y2="108.276" gradientUnits="userSpaceOnUse">
<stop stop-color="#3E4E56"/>
<stop offset="1" stop-color="#263238"/>
</linearGradient>
<linearGradient id="paint1_linear_4935_18189" x1="64" y1="49.4253" x2="64" y2="64.1379" gradientUnits="userSpaceOnUse">
<stop stop-color="#D50000"/>
<stop offset="0.0001" stop-color="#ED5959"/>
<stop offset="1" stop-color="#D50000"/>
</linearGradient>
<linearGradient id="paint2_linear_4935_18189" x1="64" y1="93.5635" x2="64" y2="108.276" gradientUnits="userSpaceOnUse">
<stop stop-color="#D50000"/>
<stop offset="0.0001" stop-color="#ED5959"/>
<stop offset="1" stop-color="#D50000"/>
</linearGradient>
<clipPath id="clip0_4935_18189">
<rect y="20" width="128" height="88.2759" rx="2" fill="white"/>
</clipPath>
</defs>
</svg>
