<svg width="128" height="128" viewBox="0 0 128 128" fill="none" xmlns="http://www.w3.org/2000/svg">
<g clip-path="url(#clip0_4935_18261)">
<path d="M-0.735596 81.7932H128.736V108.276H-0.735596V81.7932Z" fill="#F44336"/>
<path d="M-0.735596 46.4827H128.736V81.793H-0.735596V46.4827Z" fill="#ECEFF1"/>
<path d="M-0.735596 20H128.736V46.4828H-0.735596V20Z" fill="#4CAF50"/>
<path d="M70.1911 52.0176C70.1911 52.0176 81.1756 60.6127 73.0984 72.9654C80.7048 68.3133 81.3639 55.528 70.1911 52.0176ZM64.0001 52.0293C62.2522 54.0038 59.2449 52.0441 60.2807 49.8931C62.0874 53.1357 64.0001 50.5198 64.0001 50.5198C64.0001 50.5198 65.9127 53.1357 67.7194 49.8931C68.7581 52.0441 65.7479 54.0038 64.0001 52.0293Z" fill="#D32F2F"/>
<path d="M64 78.7976L62.7406 77.1557C62.7406 77.1557 59.7804 78.1385 55.8874 76.782C59.0771 76.782 60.8662 76.217 61.5194 75.8816C61.5194 75.8816 54.2896 71.9827 54.4309 64.0497C54.8546 56.0195 59.1272 53.5743 59.1272 53.5743C59.1272 53.5743 51.5207 64.6558 62.6935 73.9189L62.205 62.4577V54.0451C62.8377 53.8979 64 52.5591 64 52.5591C64 52.5591 65.1623 53.895 65.7979 54.0451V62.4636L65.3006 73.9248C76.4792 64.6617 68.8758 53.5801 68.8758 53.5801C68.8758 53.5801 73.1512 56.0166 73.572 64.0555C73.7103 71.9857 66.4805 75.8874 66.4805 75.8874C67.1367 76.2141 68.9199 76.7879 72.1125 76.7879C68.2196 78.1444 65.2594 77.1527 65.2594 77.1527L64 78.7976Z" fill="#D32F2F"/>
<path d="M57.8148 52.0176C57.8148 52.0176 46.8245 60.6127 54.9047 72.9654C47.2953 68.3133 46.6362 55.528 57.8148 52.0176Z" fill="#D32F2F"/>
</g>
<defs>
<clipPath id="clip0_4935_18261">
<rect y="20" width="128" height="88.2759" rx="2" fill="white"/>
</clipPath>
</defs>
</svg>
