<svg width="128" height="128" viewBox="0 0 128 128" fill="none" xmlns="http://www.w3.org/2000/svg">
<g clip-path="url(#clip0_4935_21051)">
<path d="M-0.735596 20H128.736V64.1379H-0.735596V20Z" fill="url(#paint0_linear_4935_21051)"/>
<path d="M-0.735596 64.1377H128.736V108.276H-0.735596V64.1377Z" fill="#388E3C"/>
<path d="M16.9196 55.3105H128.736V72.9657H16.9196V55.3105Z" fill="url(#paint1_linear_4935_21051)"/>
<path d="M64 64.1379L-0.735596 20V108.276L64 64.1379Z" fill="url(#paint2_linear_4935_21051)"/>
<path d="M46.3448 61.1953H128.736V67.0804H46.3448V61.1953Z" fill="#FFC107"/>
<path d="M-0.738525 26.0176V33.0179L44.906 64.138L-0.738525 95.2582V102.259L55.1725 64.138L-0.738525 26.0176Z" fill="#FFC107"/>
<path d="M20.1769 64.2057C20.1769 64.2057 19.0411 68.334 14.5537 68.334C10.0664 68.334 8.87171 64.3851 8.87171 62.7108C8.87171 61.0365 10.8461 56.7287 14.8539 56.7287C18.8616 56.7287 21.6747 60.6776 21.6747 63.8467C21.6747 67.0158 19.3412 71.5031 14.6155 71.5031C14.6155 73.8954 14.6155 75.6315 14.6155 75.6315C14.6155 75.6315 25.1439 74.9135 25.1439 64.0262C25.1439 54.0951 16.0515 53.5566 14.9745 53.5566C14.3154 53.5566 6.24109 54.3953 6.24109 62.4107C6.24109 69.8288 13.3591 70.3085 14.4949 70.3085C15.3335 70.3085 20.1769 69.7082 20.1769 64.2057Z" fill="#FFC107"/>
<path d="M13.1591 59.6004C13.1591 59.6004 17.1462 62.2722 18.3026 64.0671C18.2614 64.944 18.2232 65.5413 18.2232 65.5413L16.9078 65.2235C16.9078 65.2235 14.6333 61.4747 12.6794 60.3978C10.7256 59.3208 12.3234 59.159 13.1591 59.6004Z" fill="#FFC107"/>
<path d="M16.8548 59.6004C16.8548 59.6004 12.8677 62.2722 11.7113 64.0671C11.7525 64.944 11.7908 65.5413 11.7908 65.5413L13.1061 65.2235C13.1061 65.2235 15.3806 61.4747 17.3345 60.3978C19.2883 59.3208 17.6905 59.159 16.8548 59.6004Z" fill="#FFC107"/>
</g>
<defs>
<linearGradient id="paint0_linear_4935_21051" x1="64" y1="20" x2="64" y2="64.1379" gradientUnits="userSpaceOnUse">
<stop stop-color="#ED5959"/>
<stop offset="1" stop-color="#D50000"/>
</linearGradient>
<linearGradient id="paint1_linear_4935_21051" x1="72.8276" y1="55.3105" x2="72.8276" y2="72.9657" gradientUnits="userSpaceOnUse">
<stop stop-color="#506671"/>
<stop offset="1" stop-color="#263238"/>
</linearGradient>
<linearGradient id="paint2_linear_4935_21051" x1="31.6322" y1="20" x2="31.6322" y2="108.276" gradientUnits="userSpaceOnUse">
<stop stop-color="#506671"/>
<stop offset="1" stop-color="#263238"/>
</linearGradient>
<clipPath id="clip0_4935_21051">
<rect y="20" width="128" height="88.2759" rx="2" fill="white"/>
</clipPath>
</defs>
</svg>
