<svg width="128" height="128" viewBox="0 0 128 128" fill="none" xmlns="http://www.w3.org/2000/svg">
<g clip-path="url(#clip0_4935_17186)">
<path fill-rule="evenodd" clip-rule="evenodd" d="M-0.735596 20H128.736V108.276H-0.735596V20Z" fill="#FFEB3B"/>
<path fill-rule="evenodd" clip-rule="evenodd" d="M-0.735596 43.5402L128.736 87.6781V105.333L-0.735596 61.1953V43.5402Z" fill="#424242"/>
<path fill-rule="evenodd" clip-rule="evenodd" d="M-0.735596 22.9426L128.736 67.0806V87.6783L-0.735596 43.5403V22.9426Z" fill="#ECEFF1"/>
<path fill-rule="evenodd" clip-rule="evenodd" d="M94.0521 53.898C94.0521 54.0451 94.0521 54.1952 94.0521 54.7925C94.0521 55.2368 94.0521 55.537 93.902 55.9813C93.7519 56.5757 93.6019 56.8758 93.6019 57.0229C93.4518 57.3201 93.3017 57.3201 93.3017 57.3201H93.0016C93.0016 57.3201 93.0016 57.173 93.0016 56.7258C93.1517 56.2814 93.3017 55.8312 93.3017 55.3869C93.3017 55.0897 93.3017 54.7925 93.3017 54.4924C93.3017 54.1922 93.1517 54.048 93.3017 53.898C93.4518 53.6008 93.4518 53.4537 93.6019 53.4537C93.7519 53.4507 93.902 53.6008 94.0521 53.898Z" fill="#C62828"/>
<path fill-rule="evenodd" clip-rule="evenodd" d="M62.2875 38.8734C60.1895 38.8734 57.9414 39.7679 57.9414 40.0622C57.9414 40.5065 60.3396 41.251 62.5877 41.251C64.9858 41.251 67.2339 40.5095 67.381 40.0622C67.381 39.6179 64.9829 38.8734 62.8878 38.8734V39.7679C62.8878 40.0651 62.7407 40.0651 62.5877 40.0651C62.5877 40.0651 62.2875 40.0651 62.2875 39.7679C62.2875 39.7679 62.2875 39.4707 62.2875 38.8734Z" fill="#C62828"/>
<path fill-rule="evenodd" clip-rule="evenodd" d="M66.6336 34.1154L62.5876 30.8433C62.7377 30.8433 62.8878 30.6962 62.8878 30.5461C62.8878 30.399 62.7406 30.2489 62.5876 30.2489C62.4405 30.2489 62.2875 30.396 62.2875 30.5461C62.2875 30.6932 62.2875 30.8433 62.4375 30.8433V30.9904C62.4375 31.8849 62.4375 33.2238 62.4375 34.5597C62.4375 36.9402 62.4375 39.4678 62.4375 39.765C62.4375 39.9122 62.4375 39.9122 62.5847 39.9122C62.7347 39.9122 62.7347 39.9122 62.7347 39.765V34.8598L63.0349 35.007L66.0333 36.9402L64.8328 34.7068V34.5597H64.9828L66.6336 34.1154Z" fill="#C62828"/>
<path fill-rule="evenodd" clip-rule="evenodd" d="M67.381 40.3623C67.381 40.3623 66.4835 40.9567 65.1329 41.1068C63.9324 41.404 62.5847 41.404 62.5847 41.404C62.5847 41.404 61.3871 41.404 60.0365 41.1068C58.8359 40.9596 57.7884 40.3623 57.7884 40.3623L57.191 43.3372L58.6888 42.4427L60.0365 43.7815L61.3841 43.04L62.2816 44.0817H62.5817H62.8819L63.9294 43.04L65.2771 43.7815L66.4777 42.4427L68.1255 43.3372L67.381 40.3623Z" fill="#C62828"/>
<path fill-rule="evenodd" clip-rule="evenodd" d="M62.8848 44.2286H63.0349V46.309C63.0349 46.309 64.8328 45.1202 65.5831 44.9702C66.1804 44.673 66.3335 44.673 67.0809 44.673C67.8283 44.673 69.329 45.1173 70.5266 45.7146C71.8742 46.4561 72.1744 46.6092 72.7747 47.0535C73.372 47.4978 74.4225 48.0951 74.8727 48.3923C75.3229 48.5395 76.0732 48.6895 76.6706 48.8366C77.568 48.8366 78.0182 48.8366 78.6185 48.8366C79.2159 48.6895 79.8191 48.3923 79.8191 48.3923C79.8191 48.3923 79.2217 49.434 78.9216 49.7312C78.6215 50.0284 78.4714 50.1755 78.1712 50.3256C77.8711 50.4756 77.5739 50.6228 77.2738 50.7699C76.9736 50.7699 76.3734 50.6228 75.626 50.3256C74.8756 50.0284 72.6275 49.1368 72.1803 48.9867C71.7301 48.8396 71.4299 48.8396 71.2828 48.8396C71.2828 48.8396 71.2828 48.9867 71.4329 49.1368C71.5829 49.2869 72.9306 50.0313 73.3808 50.1784C74.1312 50.4756 75.779 51.2201 76.3793 51.3672C76.5293 51.3672 75.929 51.8115 75.7819 51.9616C75.4818 52.1087 75.3317 52.2588 75.0316 52.2588C74.7314 52.2588 74.4342 52.2588 74.1312 52.1117C73.681 51.9646 72.4833 51.5173 72.1832 51.3672C71.733 51.07 70.8355 50.6228 70.5354 50.6228C70.2353 50.4756 69.4878 50.0284 69.4878 50.0284C69.4878 50.0284 69.4879 50.4727 70.0852 50.7728C70.6825 51.07 72.0331 51.8145 72.3333 51.9616C72.6334 52.1087 73.831 52.8561 73.831 52.8561C73.831 52.8561 73.3808 53.4505 73.0807 53.6006C72.9306 53.6006 72.7805 53.7477 72.6305 53.7477C72.4804 53.7477 72.1803 53.7477 71.8801 53.6006C71.4299 53.4535 71.1298 53.3034 70.5324 53.0062C70.0822 52.709 69.635 52.2618 69.3319 52.1117C69.0318 51.9646 68.5816 51.8145 68.4315 51.6674C68.2814 51.6674 67.9813 51.6674 67.9813 51.6674C67.9813 51.6674 68.2814 51.9646 68.5786 52.2618C68.8787 52.559 69.6262 53.0062 69.7792 53.3034C70.0793 53.4505 70.6766 53.8978 70.6766 53.8978C70.6766 54.0449 70.0793 54.4922 69.9263 54.6393C69.7762 54.6393 69.6262 54.6393 69.329 54.7864C69.0288 54.7864 68.8787 54.7864 68.5786 54.6393C68.2785 54.6393 67.2309 53.4505 66.9308 53.1533C66.6307 52.8561 66.1804 52.5589 65.8832 52.2588C65.5831 52.1117 65.433 51.9616 65.1329 51.9616C64.8328 51.8145 64.2354 51.8145 64.2354 51.8145C64.2354 51.8145 64.8328 52.2588 64.9858 52.559C65.1358 52.7061 65.436 53.0033 65.436 53.4535C65.2859 53.7507 65.1358 54.0479 64.9858 54.348C64.8357 54.4951 64.6856 54.6452 64.6856 54.6452V55.834L63.4851 56.8756L62.5847 56.1312L61.5371 56.8756L60.4896 55.834V54.6452C60.4896 54.6452 60.1895 54.4981 60.1895 54.348C60.0394 54.0508 59.7393 53.7536 59.7393 53.4535C59.7393 53.0092 60.0394 52.709 60.1895 52.559C60.3395 52.2618 60.9398 51.8145 60.9398 51.8145C60.9398 51.8145 60.3425 51.8145 60.0423 51.9616C59.5921 51.9616 59.445 52.1087 59.292 52.2588C58.9918 52.556 58.5416 52.8532 58.2444 53.1533C57.9443 53.4505 56.7467 54.6393 56.5966 54.6393C56.2965 54.7864 56.1464 54.7864 55.8463 54.7864C55.5461 54.6393 55.3961 54.6393 55.2489 54.6393C55.1018 54.4922 54.4986 54.0449 54.3515 53.8978C54.3515 53.8978 55.1018 53.4535 55.399 53.1533C55.5491 53.0062 56.2994 52.5589 56.5996 52.2588C56.7467 51.9616 57.0498 51.6644 57.0498 51.6644C57.0498 51.6644 56.8997 51.6644 56.7496 51.6644C56.4495 51.6644 56.1523 51.9616 55.8522 52.1087C55.552 52.2559 55.1018 52.7031 54.5045 53.0033C54.0543 53.3005 53.6041 53.4476 53.3039 53.5977C53.0038 53.7448 52.7066 53.7448 52.5536 53.7448C52.4035 53.7448 52.2535 53.5977 51.9563 53.4476C51.8062 53.4476 51.3589 52.8532 51.3589 52.8532C51.3589 52.8532 52.5595 52.1087 52.8567 51.9587C53.1568 51.8115 54.5045 51.0641 55.1048 50.7699C55.7021 50.4727 55.7021 50.0254 55.7021 50.0254C55.7021 50.0254 54.9518 50.4698 54.6546 50.6198C54.3544 50.6198 53.454 51.0641 53.0067 51.3643C52.5565 51.5114 51.509 51.9587 51.0588 52.1087C50.6086 52.2559 50.3084 52.2559 50.1613 52.2559C49.8612 52.2559 49.564 52.1087 49.411 51.9587C49.258 51.8086 48.6606 51.3643 48.8136 51.3643C49.411 51.2172 51.0617 50.4698 51.662 50.1755C52.1122 50.0284 53.61 49.281 53.76 49.1338C53.9101 48.9867 53.9101 48.8366 53.9101 48.8366C53.76 48.8366 53.4599 48.8367 53.0126 48.9838C52.5624 49.1309 50.3173 50.0254 49.5669 50.3226C48.8166 50.6198 48.2193 50.7669 47.9191 50.7669C47.4689 50.6198 47.3218 50.4698 47.0187 50.3226C46.7186 50.1755 46.5685 50.0254 46.1212 49.7282C45.8211 49.431 45.2238 48.3894 45.2238 48.3894C45.2238 48.3894 45.9741 48.6866 46.5714 48.8337C47.1688 48.8337 47.619 48.8337 48.5194 48.8337C48.9696 48.6866 49.8671 48.5365 50.3173 48.3894C50.7675 48.0922 51.815 47.4949 52.4153 47.0505C52.8655 46.6062 53.3128 46.4561 54.6634 45.7117C55.8639 45.1173 57.3587 44.5229 58.1091 44.67C58.7064 44.67 58.8594 44.67 59.6068 44.9672C60.3572 45.1144 62.4552 46.3061 62.4552 46.3061V44.2257H62.8848V44.2286Z" fill="#C62828"/>
<path fill-rule="evenodd" clip-rule="evenodd" d="M62.5847 56.4255L61.6872 57.4672C61.6872 57.4672 61.0899 56.7227 60.7898 56.5727C60.6397 56.4255 60.3395 56.1283 60.1924 56.1283C60.0424 55.9812 59.8923 55.9812 59.7422 55.9812C59.5951 56.1283 59.5951 56.1283 59.5951 56.1283C59.5951 56.1283 59.8952 56.4255 60.0453 56.5727C60.1954 56.7198 60.4955 57.167 60.6426 57.4672C60.7927 57.7644 60.9428 58.0616 60.9428 58.5088C60.7927 58.806 60.9428 58.9532 60.9428 58.9532C60.7927 59.2504 60.7927 59.3975 60.6426 59.8477C60.4926 60.292 60.3425 60.8893 60.1924 61.1865C60.1924 61.3337 59.8923 61.928 59.8923 62.2282C59.7422 62.6725 59.7422 62.9726 59.7422 63.2698C59.7422 63.567 59.7422 63.8642 59.7422 64.1644C59.7422 64.3115 59.7422 64.3115 59.8923 64.4616C60.0424 64.7588 60.1924 64.7588 60.3425 64.9059C60.6426 65.053 60.7927 65.2031 60.9398 65.2031C61.0899 65.3502 61.0899 65.3502 61.0899 65.3502C61.0899 65.3502 61.24 65.2031 61.5401 65.053C61.6872 64.9059 61.8402 64.7558 62.1374 64.6087C62.2846 64.4616 62.5876 64.3115 62.5876 64.3115C62.5876 64.3115 62.7377 64.4586 63.0379 64.6087C63.338 64.7558 63.4881 64.9059 63.6352 65.053C63.7853 65.2001 63.9353 65.3502 63.9353 65.3502C63.9353 65.3502 64.0854 65.3502 64.2355 65.2031C64.2355 65.2031 64.5356 65.056 64.8328 64.9059C64.9829 64.7588 65.1329 64.7588 65.283 64.4616C65.283 64.3144 65.283 64.3144 65.4331 64.1644C65.4331 63.8672 65.4331 63.57 65.4331 63.2698C65.4331 62.9726 65.283 62.6725 65.283 62.2282C65.1329 61.931 64.9829 61.3337 64.8328 61.1865C64.8328 60.8893 64.5327 60.292 64.3826 59.8477C64.2325 59.4034 64.2325 59.2504 64.2325 58.9532C64.2325 58.9532 64.2325 58.806 64.2325 58.5088C64.2325 58.0645 64.3826 57.7644 64.5327 57.4672C64.6827 57.17 64.8328 56.7227 65.13 56.5727C65.2801 56.4255 65.5802 56.1283 65.5802 56.1283C65.5802 56.1283 65.4301 56.1283 65.4301 55.9812C65.2801 55.9812 65.13 55.9812 64.9799 56.1283C64.8299 56.1283 64.5297 56.4255 64.2296 56.5727C64.0824 56.7198 63.4792 57.4672 63.4792 57.4672L62.5847 56.4255Z" fill="#C62828"/>
<path fill-rule="evenodd" clip-rule="evenodd" d="M62.5847 64.6058C62.5847 64.6058 63.0349 64.903 63.182 65.0502C63.3321 65.1973 63.4822 65.4945 63.4822 65.6445C63.6322 65.9417 63.6322 66.2389 63.6322 66.2389C63.6322 66.2389 64.0824 65.7946 64.2296 65.4945C64.5297 65.3474 64.8269 65.1973 65.127 65.0502C65.2771 65.0502 65.7244 64.903 65.7244 64.903C65.7244 64.903 65.5743 65.3474 65.4242 65.4974C65.2742 65.7946 64.974 66.5391 64.974 66.9834C64.974 67.4277 64.974 67.5778 64.974 67.8779C64.974 68.1751 65.1241 69.2168 65.2742 69.6611C65.4242 70.1054 65.5743 70.4056 65.7244 70.7028C66.0245 71 66.1746 71.2971 66.1746 71.7444C66.3246 72.1887 66.1746 72.7861 66.0275 73.0833C65.8774 73.3805 65.7273 73.5276 65.5772 73.6806C65.4272 73.8277 65.127 74.1249 64.9799 74.1249C64.8298 74.4221 64.5297 74.4221 64.2296 74.7222C64.2296 74.7222 63.9294 73.9778 63.7794 73.8277C63.6293 73.5305 63.4792 73.3834 63.182 73.2304C63.182 73.0833 62.8819 72.7861 62.5847 72.7861C62.5847 72.7861 62.5847 72.7861 62.4376 72.7861C62.2875 72.7861 61.9874 73.0833 61.8402 73.2304C61.6902 73.3775 61.5401 73.5276 61.39 73.8277C61.0899 73.9748 60.9398 74.7222 60.9398 74.7222C60.4896 74.2779 60.1895 74.2779 59.5921 73.8277C59.4421 73.6806 59.1419 73.3834 59.1419 73.0833C58.9919 72.7861 58.8418 72.1887 58.8418 71.7444C58.9889 71.3001 59.1419 71 59.292 70.7028C59.4421 70.4056 59.7422 70.1084 59.8893 69.6611C60.0394 69.2168 60.1895 68.1751 60.1895 67.8779C60.1895 67.5807 60.1895 67.4336 60.1895 66.9834C60.1895 66.5332 59.7393 65.7946 59.7393 65.4974C59.5921 65.3503 59.2891 64.903 59.2891 64.903C59.2891 64.903 59.8864 65.0502 60.0394 65.0502C60.1895 65.1973 60.6367 65.3474 60.7898 65.4945C61.0899 65.7917 61.5401 66.2389 61.5401 66.2389C61.5401 66.2389 61.5401 65.9417 61.6872 65.6445C61.6872 65.4974 61.8373 65.2002 61.9874 65.0502C62.1374 64.903 62.5847 64.6058 62.5847 64.6058Z" fill="#C62828"/>
<path fill-rule="evenodd" clip-rule="evenodd" d="M62.5847 73.5305C62.5847 73.5305 62.1345 73.9749 61.6872 74.4251C61.5401 74.7223 61.387 75.4667 61.387 75.911C61.387 75.911 60.3395 75.0165 60.0394 74.7223C59.7392 74.5751 59.1419 74.1249 58.6917 74.1249C58.2415 73.8277 57.6441 73.6806 57.1939 73.6806C57.1939 73.6806 57.1939 74.1249 57.3411 74.5751C57.6412 74.8723 57.9384 75.4697 58.0914 75.6168C58.3916 75.914 58.8418 76.5113 59.292 76.9556C59.7422 77.2528 60.1894 77.553 60.4925 77.7001C60.7927 77.8472 60.9427 77.9973 60.9427 77.9973C60.4925 78.4416 57.7972 77.7001 57.1969 77.553C56.4465 77.2558 54.3485 76.5113 52.8508 75.3196C51.203 74.1308 49.7052 72.9391 48.5047 70.8587C47.157 68.9255 47.0069 68.7754 46.4066 66.8422C45.6563 65.059 45.5092 63.2729 45.5092 62.5284C45.5092 61.784 45.5092 59.8507 45.8093 58.8091C45.9594 57.6203 46.2595 56.4286 46.5596 55.687C46.8598 54.7925 47.9073 52.4149 47.9073 52.2678C47.9073 52.2678 47.0069 53.0123 46.2595 53.9039C45.6622 54.7984 45.212 55.3898 44.6117 56.5816C44.0144 57.6232 43.1139 60.0037 42.9639 61.4897C42.6637 63.1258 42.6637 64.7618 42.8167 66.1007C42.8167 67.4395 43.267 70.5615 44.0173 72.1976C44.7676 73.8336 45.8152 75.6168 46.8657 76.9556C47.616 77.9973 48.5135 79.036 50.1642 80.3749C51.9621 81.8608 54.2073 82.9025 55.5579 83.4969C57.3558 84.0913 59.4538 84.5385 61.5518 84.6857C62.002 84.6857 62.5994 84.6857 62.5994 84.6857C62.5994 84.6857 63.3497 84.6857 63.7999 84.6857C65.8979 84.5385 67.843 84.0913 69.4937 83.4969C70.9915 82.8995 73.2396 81.8608 74.8874 80.3749C76.6853 79.036 77.4356 77.9944 78.3331 76.9556C79.3806 75.6168 80.281 73.8336 81.0284 72.1976C81.7788 70.5615 82.229 67.4395 82.3761 66.1007C82.5262 64.7618 82.3761 63.1258 82.226 61.4897C82.076 60.0037 81.1785 57.6232 80.5782 56.5816C79.9809 55.3928 79.5307 54.7984 78.9304 53.9039C78.1801 53.0093 77.2826 52.2678 77.2826 52.2678C77.2826 52.4149 78.3301 54.7955 78.6303 55.687C78.9304 56.4315 79.2276 57.6203 79.3806 58.8091C79.6807 59.8507 79.5307 61.784 79.5307 62.5284C79.5307 63.2729 79.3806 65.0561 78.7803 66.8422C78.183 68.7754 78.03 68.9255 76.6823 70.8587C75.3346 72.9391 73.8339 74.1308 72.3362 75.3196C70.8384 76.5084 68.7404 77.2528 67.843 77.553C67.2456 77.7001 64.6974 78.4475 64.2472 77.9973C64.2472 77.9973 64.3973 77.8502 64.6974 77.7001C64.9975 77.553 65.2947 77.2558 65.8979 76.9556C66.3482 76.5113 66.7954 75.914 67.0985 75.6168C67.2486 75.4697 67.5487 74.8723 67.6958 74.5751C67.996 74.1308 67.996 73.6806 67.996 73.6806C67.3986 73.6806 66.9484 73.8277 66.3482 74.1249C66.048 74.1249 65.4507 74.5692 65.1476 74.7223C64.8475 75.0195 63.7999 75.911 63.7999 75.911C63.7999 75.4667 63.6498 74.7223 63.3497 74.4251C63.0349 73.8277 62.5847 73.5305 62.5847 73.5305Z" fill="#C62828"/>
<path fill-rule="evenodd" clip-rule="evenodd" d="M62.5847 85.8745C62.5847 85.8745 64.0824 85.8745 65.28 85.7273C66.6277 85.5802 68.2755 85.283 69.4761 84.8328C70.6766 84.3885 72.3244 83.644 73.6721 82.7524C75.0198 81.8579 75.7701 81.2665 76.6705 80.3719C77.568 79.6304 78.0182 79.0331 78.4684 78.7359C78.9186 78.2916 79.3659 77.9944 79.9662 77.8414C80.4164 77.6942 81.3139 77.8414 81.7641 78.1385C82.0642 78.4357 82.2143 78.5829 82.5144 79.0331C82.5144 79.3303 82.6645 79.9276 82.6645 80.3719C82.6645 80.8163 82.5144 81.5607 82.5144 81.5607C82.5144 81.5607 83.5619 81.7078 84.1622 81.8579C84.6124 82.005 85.2098 82.3022 85.66 82.8996C85.9601 83.1968 86.1102 83.644 85.9601 83.9412C85.9601 84.2384 85.9601 84.3855 85.9601 84.3855C85.9601 84.3855 86.8576 84.8299 87.3078 85.5743C87.4549 85.8715 87.758 86.1687 88.0581 86.9132C88.2082 87.6576 88.0581 88.3991 88.0581 88.3991C88.0581 88.3991 87.1577 87.8048 86.5604 87.6576C86.1102 87.5105 85.5128 87.2133 84.7625 87.2133C83.865 87.0662 82.0671 87.0662 81.3168 87.6576C80.7195 88.102 79.8191 88.8464 79.3688 89.1436C78.9186 89.5879 77.571 90.3324 76.9707 90.4825C76.3734 90.4825 76.2203 90.4825 75.7701 90.4825C75.1728 90.4825 74.5696 90.1853 74.2724 89.7409C74.1223 89.2966 73.8222 88.8464 73.8222 88.8464C73.8222 88.8464 73.2248 89.1436 72.6216 89.4408C72.0243 89.5879 70.8237 90.1853 69.3231 90.6296C68.2755 90.9268 67.6752 91.0739 66.7748 91.224C65.7273 91.3711 64.8269 91.3711 64.2266 91.3711C63.4821 91.5182 62.5817 91.5182 62.5817 91.5182C62.4346 91.5182 61.5342 91.5182 60.9339 91.3711C60.3366 91.3711 59.2861 91.3711 58.3857 91.224C57.4882 91.0769 56.8879 90.9268 55.8374 90.6296C54.3397 90.1853 53.1421 89.5879 52.5389 89.4408C51.9415 89.1436 51.1912 88.8464 51.1912 88.8464C51.1912 88.8464 51.0411 89.2907 50.741 89.7409C50.5909 90.1853 49.9906 90.4825 49.3933 90.4825C48.796 90.4825 48.643 90.4825 48.1928 90.4825C47.4424 90.3353 46.2448 89.5879 45.7946 89.1436C45.3444 88.8464 44.4469 88.102 43.8466 87.6576C43.0963 87.0603 41.2984 87.0603 40.2509 87.2133C39.5005 87.2133 39.0503 87.5105 38.453 87.6576C38.0028 87.8048 37.1053 88.3991 37.1053 88.3991C37.1053 88.3991 36.9582 87.6576 37.1053 86.9132C37.2554 86.1687 37.7026 85.8715 37.8557 85.5743C38.3059 84.8299 39.2033 84.3855 39.2033 84.3855C39.2033 84.3855 39.2033 84.2384 39.0562 83.9412C39.0562 83.644 39.2033 83.1968 39.3563 82.8996C39.8065 82.3052 40.5569 82.005 41.0042 81.8579C41.4544 81.7108 42.652 81.5607 42.652 81.5607C42.652 81.5607 42.5048 80.8163 42.5048 80.3719C42.3548 79.9276 42.5049 79.3303 42.652 79.0331C42.9521 78.5888 43.1022 78.4387 43.4023 78.1385C43.8525 77.8414 44.75 77.6942 45.2002 77.8414C45.6504 77.9885 46.2477 78.2857 46.698 78.7359C47.1482 79.0331 47.4483 79.6304 48.3458 80.3719C49.2432 81.2665 50.1437 81.8579 51.4913 82.7524C52.839 83.647 54.4898 84.3885 55.6874 84.8328C56.885 85.2771 58.5357 85.5773 59.7304 85.7273C61.0869 85.8745 62.5847 85.8745 62.5847 85.8745Z" fill="#C62828"/>
<path fill-rule="evenodd" clip-rule="evenodd" d="M36.2138 76.6526C37.2613 76.6526 38.0117 76.3554 38.6119 76.2083C39.0621 76.2083 39.2093 76.3554 39.2093 76.6526C39.2093 77.0969 37.5615 77.5471 35.7636 77.5471C33.9657 77.5471 32.9152 76.9498 32.7651 76.6526C32.7651 76.3554 32.9152 76.2083 33.3625 76.2083C33.9657 76.3554 35.3163 76.6526 36.2138 76.6526Z" fill="#C62828"/>
<path fill-rule="evenodd" clip-rule="evenodd" d="M36.2138 77.9912C37.4144 77.8441 38.4619 77.694 39.0622 77.5469C39.5124 77.3998 39.8125 77.694 39.8125 77.9912C39.8125 78.4355 37.8646 79.0329 35.7665 79.0329C33.5185 79.0329 32.3208 78.2884 32.1708 77.9912C32.1708 77.694 32.3179 77.3939 32.9211 77.5469C33.5185 77.694 35.0162 77.9912 36.2138 77.9912Z" fill="#C62828"/>
<path fill-rule="evenodd" clip-rule="evenodd" d="M36.2138 79.3302C37.4144 79.1831 38.4619 79.033 39.2093 78.8859C39.8067 78.7388 40.1097 79.033 40.1097 79.3302C40.1097 79.7745 38.0117 80.3719 35.6165 80.3719C33.2183 80.3719 31.8707 79.6304 31.7206 79.3302C31.7206 79.033 32.0207 78.7329 32.4709 78.8859C33.2183 79.033 34.8661 79.3302 36.2138 79.3302Z" fill="#C62828"/>
<path fill-rule="evenodd" clip-rule="evenodd" d="M32.618 54.045C32.618 54.045 32.7681 54.045 32.9181 54.045C33.0682 54.1922 33.2183 54.4894 33.2183 54.4894C33.2183 54.6365 33.2183 54.9337 33.2183 55.3839C33.0682 55.6811 33.0682 55.6811 33.0682 55.9783C33.0682 56.2755 33.0682 56.4226 33.0682 56.5727C33.2183 56.8699 33.3683 57.017 33.5184 57.1671C33.5184 57.4643 33.6685 57.6114 33.6685 57.7615C33.6685 57.9086 33.5184 58.0587 33.5184 58.0587C33.2183 57.9115 33.0682 57.7615 32.9211 57.6143C32.9211 57.3171 32.771 57.17 32.6209 56.7198C32.4709 56.2696 32.4709 55.9753 32.4709 55.381C32.4679 54.9396 32.618 54.045 32.618 54.045Z" fill="#C62828"/>
<path fill-rule="evenodd" clip-rule="evenodd" d="M31.2704 53.898C31.2704 54.0451 31.2704 54.1952 31.2704 54.7925C31.2704 55.2368 31.2704 55.537 31.4205 55.9813C31.5676 56.5757 31.7206 56.8758 31.7206 57.0229C31.8677 57.3201 32.0207 57.3201 32.0207 57.3201H32.3209C32.3209 57.3201 32.3209 57.173 32.3209 56.7258C32.1737 56.2814 32.0207 55.8312 32.0207 55.3869C32.0207 55.0897 32.0207 54.7925 32.0207 54.4924C32.0207 54.1922 32.1708 54.048 32.0207 53.898C31.8707 53.6008 31.8707 53.4537 31.7206 53.4537C31.5676 53.4507 31.4205 53.6008 31.2704 53.898Z" fill="#C62828"/>
<path fill-rule="evenodd" clip-rule="evenodd" d="M29.1723 53.898C29.1723 53.898 29.0252 54.3423 29.0252 54.6395C29.0252 55.0838 28.8751 55.534 29.0252 56.5727C29.0252 57.6144 29.1723 58.0587 29.3253 58.506C29.3253 58.8032 29.7755 59.8448 30.0757 60.2892C30.3758 60.7335 31.2762 61.9252 31.4234 62.0723C31.7235 62.3695 32.1737 62.8168 32.4709 63.114C32.621 63.2611 33.2212 63.8584 33.3684 64.1556C33.6685 64.4528 33.8186 64.75 33.9657 65.0502C34.1158 65.3474 34.2658 65.4945 34.2658 65.7946C34.4159 66.239 34.4159 66.8363 34.2658 67.4307C34.2658 68.0251 34.1158 69.9583 33.9657 70.8499C33.8156 72.1887 33.6656 73.6747 33.5155 75.0136C33.5155 75.0136 33.3654 75.4579 33.5155 75.608C33.6656 75.758 33.9657 75.9052 34.2658 75.9052C34.566 75.9052 35.3134 76.0523 35.7636 76.0523C36.3609 76.0523 37.1113 76.0523 37.7115 75.9052C37.8616 75.9052 38.1617 75.9052 38.3089 75.608C38.4589 75.4608 38.4589 75.3108 38.4589 75.3108L38.3089 72.9303V65.3444C38.3089 63.8584 38.4589 62.9639 37.5585 61.6251C37.1083 61.0277 36.511 60.1391 36.0608 59.6918C35.6106 59.3946 35.0132 58.7973 34.7131 58.6502C34.2629 58.353 34.1158 58.2058 34.1158 58.2058H33.6626C33.8127 58.6502 34.2599 59.1004 34.413 59.2475C34.563 59.5447 35.4605 60.2892 35.6135 60.5864C35.7636 60.7335 36.2108 61.1807 36.2108 61.3308C36.3609 61.4779 36.2108 61.628 36.2108 61.628C36.2108 61.628 36.2108 61.628 36.0608 61.4809C35.7606 61.4809 35.0132 60.5864 34.8602 60.2921C34.1099 59.6977 33.6597 58.9533 33.0623 58.3589C32.7622 57.9145 32.312 57.6144 32.312 57.6144H31.8618C31.8618 57.6144 32.0119 58.2088 32.0119 58.3589C32.0119 58.6561 32.1619 58.8032 32.1619 58.8032C32.1619 58.8032 32.7593 59.8448 33.0594 60.142C33.3595 60.4392 33.5096 60.7364 33.5096 60.7364C33.5096 60.7364 33.5096 60.8835 33.3595 60.8835C33.3595 60.8835 33.3595 61.0307 33.2124 60.8835C33.0623 60.7364 32.6151 59.989 32.4621 59.8419C32.4621 59.6948 31.8647 58.9474 31.8647 58.8002C31.7176 58.6531 31.5646 58.3559 31.5646 58.2058C31.5646 57.9087 31.4175 57.1642 31.4175 56.867C31.2674 56.7199 30.9673 55.9725 30.9673 55.9725C30.8201 55.8253 30.8201 55.8253 30.8201 55.8253C30.8201 55.8253 30.8201 55.231 30.8201 54.7837C30.8201 54.1893 30.8201 53.8892 30.6701 53.5949C30.5229 53.2977 30.5229 53.1506 30.3699 53.0005C30.3699 52.8534 30.2228 52.8534 30.2228 52.8534C30.2228 52.8534 30.0727 53.0005 29.9227 53.1506C29.9227 53.2977 30.0698 53.5949 30.0698 53.745C30.0698 54.0422 30.2199 54.1893 30.2199 54.1893C30.2199 54.3364 30.0698 54.9338 30.0698 55.231C30.0698 55.6753 30.0698 55.8253 30.0698 55.9725C30.0698 56.1196 30.0698 56.2697 30.0698 56.2697C30.0698 56.2697 30.2199 56.4168 30.3699 56.5669C30.52 56.8641 30.6701 57.3113 30.8201 57.7556C30.9673 58.2 30.9673 58.5001 30.9673 58.6502C30.9673 58.9474 30.9673 59.0945 30.9673 59.0945C30.9673 59.0945 31.5646 60.1362 31.7176 60.2833C31.8647 60.4304 31.8647 60.4304 31.8647 60.5805C31.8647 60.5805 31.7176 60.7276 31.5646 60.5805C31.5646 60.5805 31.2645 60.1361 31.1144 59.839C30.9643 59.6918 30.6642 59.2416 30.6642 59.0945C30.5171 58.9474 30.5171 58.9474 30.5171 58.9474C30.5171 58.9474 30.5171 58.8002 30.5171 58.2029C30.367 57.6085 30.367 57.6085 30.2169 57.3084C30.0668 57.0112 29.9168 56.714 29.9168 56.5639C29.7667 56.4168 29.7667 56.4168 29.7667 56.4168C29.7667 55.9725 29.7667 55.3751 29.7667 54.7807C29.6196 54.4836 29.6196 54.3364 29.6196 54.1864C29.6196 54.0363 29.4695 53.742 29.3194 53.742C29.1723 53.7479 29.1723 53.898 29.1723 53.898Z" fill="#C62828"/>
<path fill-rule="evenodd" clip-rule="evenodd" d="M89.1087 76.6526C88.0611 76.6526 87.3108 76.3554 86.7105 76.2083C86.2603 76.2083 86.1132 76.3554 86.1132 76.6526C86.1132 77.0969 87.761 77.5471 89.5589 77.5471C91.3567 77.5471 92.4072 76.9498 92.5573 76.6526C92.5573 76.3554 92.4072 76.2083 91.96 76.2083C91.3538 76.3554 90.0061 76.6526 89.1087 76.6526Z" fill="#C62828"/>
<path fill-rule="evenodd" clip-rule="evenodd" d="M89.1087 77.9912C87.9082 77.8441 86.8606 77.694 86.2604 77.5469C85.8102 77.3998 85.51 77.694 85.51 77.9912C85.51 78.4355 87.458 79.0329 89.556 79.0329C91.8041 79.0329 93.0017 78.2884 93.1518 77.9912C93.1518 77.694 93.0017 77.3939 92.4014 77.5469C91.8041 77.694 90.3063 77.9912 89.1087 77.9912Z" fill="#C62828"/>
<path fill-rule="evenodd" clip-rule="evenodd" d="M89.1087 79.3302C87.9081 79.1831 86.8606 79.033 86.1102 78.8859C85.5129 78.7388 85.2128 79.033 85.2128 79.3302C85.2128 79.7745 87.3108 80.3719 89.706 80.3719C92.1042 80.3719 93.4519 79.6304 93.6019 79.3302C93.6019 79.033 93.3018 78.7329 92.8516 78.8859C92.1042 79.033 90.4564 79.3302 89.1087 79.3302Z" fill="#C62828"/>
<path fill-rule="evenodd" clip-rule="evenodd" d="M92.7044 54.045C92.7044 54.045 92.5543 54.045 92.4043 54.045C92.2542 54.1922 92.1041 54.4894 92.1041 54.4894C92.1041 54.6365 92.1041 54.9337 92.1041 55.3839C92.2542 55.6811 92.2542 55.6811 92.2542 55.9783C92.2542 56.2755 92.2542 56.4226 92.2542 56.5727C92.1041 56.8699 91.9541 57.017 91.804 57.1671C91.804 57.4643 91.6539 57.6114 91.6539 57.7615C91.6539 57.9086 91.804 58.0587 91.804 58.0587C92.1041 57.9115 92.2542 57.7615 92.4013 57.6143C92.4013 57.3171 92.5514 57.17 92.7015 56.7198C92.8486 56.2755 92.8486 55.9753 92.8486 55.381C92.8515 54.9396 92.7044 54.045 92.7044 54.045Z" fill="#C62828"/>
<path fill-rule="evenodd" clip-rule="evenodd" d="M96.1501 53.898C96.1501 53.898 96.3002 54.3423 96.3002 54.6395C96.3002 55.0838 96.4503 55.534 96.3002 56.5727C96.3002 57.6144 96.1501 58.0587 96.0001 58.506C96.0001 58.8032 95.5499 59.8448 95.2497 60.2892C94.9496 60.7335 94.0492 61.9252 93.902 62.0723C93.6019 62.3695 93.1517 62.8168 92.8545 63.114C92.7074 63.2611 92.1042 63.8584 91.957 64.1556C91.6569 64.4528 91.5068 64.75 91.3597 65.0502C91.2096 65.3474 91.0596 65.4945 91.0596 65.7946C90.9095 66.239 90.9095 66.8363 91.0596 67.4307C91.0596 68.0251 91.2096 69.9583 91.3597 70.8499C91.5098 72.1887 91.6598 73.6747 91.8099 75.0136C91.8099 75.0136 91.96 75.4579 91.8099 75.608C91.6598 75.758 91.3597 75.9052 91.0596 75.9052C90.7594 75.9052 90.012 76.0523 89.5618 76.0523C88.9645 76.0523 88.2141 76.0523 87.6139 75.9052C87.4638 75.9052 87.1637 75.9052 87.0165 75.608C86.8665 75.4608 86.8665 75.3108 86.8665 75.3108L87.0165 72.9303V65.3444C87.0165 63.8584 86.8665 62.9639 87.7669 61.6251C88.2171 61.0277 88.8144 60.1391 89.2646 59.6918C89.7148 59.3946 90.3122 58.7973 90.6123 58.6502C91.0625 58.353 91.2096 58.2058 91.2096 58.2058H91.6598C91.5098 58.6502 91.0625 59.1004 90.9095 59.2475C90.7594 59.5447 89.8619 60.2892 89.7089 60.5864C89.5589 60.7335 89.1116 61.1807 89.1116 61.3308C88.9615 61.4779 89.1116 61.628 89.1116 61.628C89.1116 61.628 89.1116 61.628 89.2617 61.4809C89.5618 61.4809 90.3092 60.5864 90.4593 60.2921C91.2096 59.6977 91.6598 58.9533 92.2572 58.3589C92.5573 57.9145 93.0075 57.6144 93.0075 57.6144H93.4577C93.4577 57.6144 93.3076 58.2088 93.3076 58.3589C93.3076 58.6561 93.1576 58.8032 93.1576 58.8032C93.1576 58.8032 92.5602 59.8448 92.2601 60.142C91.96 60.4392 91.8099 60.7364 91.8099 60.7364C91.8099 60.7364 91.8099 60.8835 91.96 60.8835C91.96 60.8835 91.96 61.0307 92.11 60.8835C92.2601 60.7364 92.7074 59.989 92.8604 59.8419C92.8604 59.6948 93.4577 58.9474 93.4577 58.8002C93.6078 58.6531 93.7579 58.3559 93.7579 58.2058C93.7579 57.9087 93.9079 57.1642 93.9079 56.867C94.058 56.7199 94.3581 55.9725 94.3581 55.9725C94.5082 55.8253 94.5082 55.8253 94.5082 55.8253C94.5082 55.8253 94.5082 55.231 94.5082 54.7837C94.5082 54.1893 94.5082 53.8892 94.6583 53.5949C94.8083 53.2977 94.8083 53.1506 94.9584 53.0005C94.9584 52.8534 95.1085 52.8534 95.1085 52.8534C95.1085 52.8534 95.2585 53.0005 95.4086 53.1506C95.4086 53.2977 95.2615 53.5949 95.2615 53.745C95.2615 54.0422 95.1114 54.1893 95.1114 54.1893C95.1114 54.3364 95.2615 54.9338 95.2615 55.231C95.2615 55.6753 95.2615 55.8253 95.2615 55.9725C95.2615 56.1196 95.2615 56.2697 95.2615 56.2697C95.2615 56.2697 95.1114 56.4168 94.9614 56.5669C94.8113 56.8641 94.6612 57.3113 94.5111 57.7556C94.3611 58.2 94.3611 58.5001 94.3611 58.6502C94.3611 58.9474 94.3611 59.0945 94.3611 59.0945C94.3611 59.0945 93.7637 60.1362 93.6107 60.2833C93.4607 60.4304 93.4607 60.4304 93.4607 60.5805C93.4607 60.5805 93.6107 60.7276 93.7608 60.5805C93.7608 60.5805 94.0609 60.1361 94.211 59.839C94.3581 59.6918 94.6612 59.2416 94.6612 59.0945C94.8113 58.9474 94.8113 58.9474 94.8113 58.9474C94.8113 58.9474 94.8113 58.8002 94.8113 58.2029C94.9614 57.6085 94.9614 57.6085 95.1114 57.3084C95.2615 57.0112 95.4116 56.714 95.4116 56.5639C95.5616 56.4168 95.5616 56.4168 95.5616 56.4168C95.5616 55.9725 95.5616 55.3751 95.5616 54.7807C95.7117 54.4836 95.7117 54.3364 95.7117 54.1864C95.7117 54.0363 95.8618 53.742 96.0118 53.742C96.1501 53.7479 96.1501 53.898 96.1501 53.898Z" fill="#C62828"/>
<path fill-rule="evenodd" clip-rule="evenodd" d="M76.959 72.2239L78.3066 73.7099C78.4567 74.0071 78.4567 74.3042 78.6068 74.6044L78.1566 74.1601L76.6559 72.6711V72.2239H76.959Z" fill="#FFEEA3"/>
<path fill-rule="evenodd" clip-rule="evenodd" d="M49.0873 73.7098C48.49 73.5627 48.0398 73.4126 47.5896 74.007C46.9923 74.9015 48.6371 76.3875 48.6371 76.0903C48.6371 75.7931 48.337 75.1958 48.7843 74.9015C49.6817 74.9015 50.5822 75.4959 51.0324 76.2404C51.0324 76.2404 51.0324 76.3875 50.8823 76.5376C50.4321 76.5376 50.285 76.3905 49.8347 76.0933C50.1349 76.0933 50.285 76.2404 50.4321 76.0933C50.1319 75.7961 49.5317 75.3488 49.0844 75.4989C48.7843 75.4989 48.9373 76.0933 49.0844 76.3934C49.0844 76.5405 49.0844 76.5405 48.9373 76.6906C47.5896 76.8377 46.5391 74.6073 46.9893 73.7157C47.4395 72.8212 48.49 73.1184 49.0873 73.7098Z" fill="#FFEEA3"/>
<path fill-rule="evenodd" clip-rule="evenodd" d="M76.3586 72.8214V73.4187C76.8088 73.7159 77.2591 74.1603 77.7063 74.4604C78.0065 74.7576 77.8564 74.9047 77.5563 75.0577C77.106 75.0577 77.106 74.4604 76.6588 74.3133V74.9077L76.9589 75.2049L77.109 75.352C77.109 75.6492 76.9589 75.7963 76.8088 75.9493L76.6588 76.0964V76.2436L76.8088 76.6879C76.9589 76.5408 77.2591 76.3907 77.2591 76.2436C77.4091 76.0964 77.4091 75.6492 77.4091 75.5021C77.7093 75.5021 77.8593 75.3549 78.1595 75.0577C78.1595 74.7605 78.1595 74.6134 77.8593 74.3133L76.3586 72.8214Z" fill="#FFEEA3"/>
<path fill-rule="evenodd" clip-rule="evenodd" d="M75.3111 74.7516L76.2086 76.0904C76.3586 76.3876 76.3586 76.6878 76.3586 76.985C76.2086 76.8378 76.2086 76.5406 75.9084 76.2405L75.1581 75.1989V74.7545H75.3111V74.7516Z" fill="#FFEEA3"/>
<path fill-rule="evenodd" clip-rule="evenodd" d="M74.7079 75.6463L74.855 75.7934C74.7079 75.7934 74.4048 75.7934 74.5549 76.0906C75.0051 76.3878 75.0051 76.0906 75.3052 75.7934L75.4553 76.0906C75.1552 76.3878 75.0051 76.5349 74.858 76.8351L74.7109 77.4295V77.1323C74.7109 76.9851 74.7109 76.6879 74.7109 76.5349C74.5608 76.3878 74.2607 76.3878 74.1135 76.0906C74.1135 75.7934 74.2636 75.6463 74.5637 75.4962L74.7079 75.6463Z" fill="#FFEEA3"/>
<path fill-rule="evenodd" clip-rule="evenodd" d="M51.7826 78.1737C51.6325 78.1737 51.3324 78.3209 51.1853 78.4709L51.4854 78.618C51.6355 78.621 51.9356 78.4709 51.7826 78.1737ZM50.585 78.621C50.2849 78.7681 50.2849 78.9182 50.4379 79.0653C50.4379 79.0653 50.738 79.0653 50.8881 78.9182V78.7711L50.585 78.621ZM52.0857 76.8349L51.3353 76.6877C51.3353 76.8349 51.3353 76.9849 51.1882 77.1321C51.1882 77.2792 50.8881 77.2792 50.738 77.4293C50.4379 77.2821 50.1407 77.2821 49.8405 77.2821C49.6905 77.135 49.6905 76.9849 49.6905 76.8378L49.0931 76.6907C48.946 76.9879 48.946 77.135 49.2432 77.2851C49.5404 77.4351 49.8405 77.4322 50.2907 77.5823L50.1436 77.7294C49.9936 77.8765 50.1436 78.1737 50.2907 78.3238C49.9906 78.4709 49.8405 78.9211 50.1436 79.2183C50.4438 79.5155 50.894 79.3654 51.1912 79.0712C51.3383 79.2183 51.4913 79.3684 51.6414 79.3684C51.9415 79.5155 52.3917 79.3684 52.3917 79.3684L53.8895 78.4739L54.1896 78.3267C54.0395 78.1796 53.7394 78.3267 53.4392 78.3267L52.0916 79.0712C51.7914 79.0712 51.7914 78.9241 51.6414 78.774C51.9415 78.774 52.2387 78.774 52.3917 78.4768C52.3917 78.1796 52.2416 78.1796 52.2416 77.8824C52.2416 77.7353 52.2416 77.5852 52.2416 77.4381C51.7914 77.7353 51.4913 77.8824 51.0411 78.1826H50.738C50.5879 78.0354 50.5879 78.0354 50.738 77.7382L51.9386 76.9938L52.0857 76.8349Z" fill="#FFEEA3"/>
<path fill-rule="evenodd" clip-rule="evenodd" d="M74.4107 78.4709L73.8134 78.3238V78.9211C73.9605 78.9211 73.9605 79.0683 74.2636 79.0683C74.5608 78.9182 74.5608 78.7681 74.4107 78.4709ZM72.0125 78.9182C72.3127 79.0653 72.4627 79.2154 72.4627 79.5126C72.3127 79.5126 72.1626 79.5126 72.0125 79.5126C71.8625 79.3625 71.8625 79.0653 72.0125 78.9182ZM75.9084 76.6848C75.9084 76.982 75.9084 77.1291 75.4582 77.4263C75.008 77.7235 74.4107 77.8707 73.6604 77.8707L73.3602 78.9152L73.2101 79.0624H73.0601C72.6099 78.6181 72.1626 78.3179 71.5623 78.6181C71.5623 79.0624 71.5623 79.3596 71.7124 79.6597C72.0125 79.9569 72.3097 79.8068 72.6099 79.8068C72.6099 79.954 72.7599 79.954 72.7599 80.2512C72.4598 80.6955 72.1626 80.8456 71.7124 81.1457C71.2622 81.4429 70.962 81.59 70.5118 81.7401C71.1092 81.8872 71.7124 81.8872 72.3097 81.593C72.9071 80.9986 73.0601 80.4042 73.0601 79.6597C73.2101 79.6597 73.3602 79.5126 73.5103 79.5126C73.8104 79.6597 74.1076 79.8098 74.5578 79.6597C75.008 79.5126 75.3082 78.9153 74.858 78.3209C75.1581 78.3209 75.4553 78.1737 75.7584 77.8765C76.0585 77.5793 76.0585 77.1321 75.9084 76.6848Z" fill="#FFEEA3"/>
<path fill-rule="evenodd" clip-rule="evenodd" d="M54.1838 78.621L54.7811 78.7681L54.6311 78.9152L54.3309 79.0623L52.8332 79.9569V80.104C52.6831 80.6984 53.4305 80.4012 53.5835 80.104H54.0337V80.2511C53.7336 80.6955 53.2834 80.8455 52.6861 80.5483H52.536C52.2359 80.4012 52.2359 80.104 52.3859 79.951L53.8837 78.7622L54.1838 78.621Z" fill="#FFEEA3"/>
<path fill-rule="evenodd" clip-rule="evenodd" d="M69.3172 81.446C69.3172 80.8486 69.1672 79.8099 69.0171 78.9183L68.5669 79.6628C68.717 80.2572 68.867 81.2988 69.0171 81.7432C69.0171 82.1875 69.0171 82.3376 69.0171 82.4847C69.1672 82.1904 69.3172 82.1904 69.3172 81.446Z" fill="#FFEEA3"/>
<path fill-rule="evenodd" clip-rule="evenodd" d="M70.965 78.9183C71.4152 79.3627 71.4152 79.6628 71.5623 80.2572C71.4122 80.5544 71.4122 80.7015 71.1121 80.9987C70.6619 81.1458 70.3618 81.2959 69.9116 81.1458C69.4613 80.8486 69.6114 80.2513 69.6114 79.6598C69.7615 80.1042 69.7615 80.5544 70.2087 80.7015C70.659 80.7015 71.1062 80.5544 71.2563 80.1071L70.8061 79.5098L70.965 78.9183Z" fill="#FFEEA3"/>
<path fill-rule="evenodd" clip-rule="evenodd" d="M68.1167 79.5127L68.714 82.0403C68.714 82.4846 68.5639 82.9349 67.9637 83.082C67.8165 83.082 67.5134 83.2291 67.3663 83.082C67.3663 83.2291 67.2192 83.6764 66.769 83.8235C66.3188 83.8235 66.1717 83.3792 66.0187 83.2262C65.7185 83.2262 65.4213 83.2262 65.1212 83.079C65.1212 82.7818 64.9711 82.6347 64.9711 82.4817C64.671 82.7789 64.0736 82.926 63.6234 83.079C63.1732 83.079 62.8731 82.9319 62.4229 82.6347C62.2728 82.6347 62.1227 82.7818 61.9727 82.7818C61.8255 82.7818 61.6725 82.7818 61.5225 82.6347C61.2223 82.7818 60.7721 82.7818 60.622 82.7818C60.472 82.6347 60.3219 82.4846 60.1718 82.3375C59.8717 82.3375 59.4215 82.3375 58.9713 82.3375C58.6712 82.3375 58.5211 82.1904 58.5211 81.8932L57.4735 81.7461C56.8762 82.3405 55.9758 82.7877 54.9253 82.6406C54.175 82.4935 53.8778 81.8961 53.5776 81.3018C54.175 81.7461 54.6252 82.0433 55.2255 82.1963C55.8228 82.3434 56.5731 82.0492 56.8733 81.8991L57.0233 81.6019C56.8733 81.6019 56.5731 81.6019 56.426 81.4548C56.2789 81.3076 56.2789 81.3076 56.2789 81.1576C56.579 80.7132 56.7291 80.5632 57.4794 80.4131C57.7796 80.5602 57.9296 80.8574 57.9296 81.3076H58.2298L58.68 81.4548C59.1302 81.3076 59.2773 81.1576 59.7275 81.0104C59.5804 81.3076 59.2773 81.4548 59.2773 81.7549C59.1272 81.7549 59.1272 81.902 59.4274 81.902C59.7275 81.902 60.0247 81.902 60.4749 81.7549L60.9251 81.4577V81.7549C60.778 81.8991 60.778 81.8991 60.778 82.0462C60.778 82.0462 60.778 82.1933 60.9281 82.1933C61.0781 82.3405 61.6784 82.0462 61.9756 81.749C61.9756 82.0462 61.8285 82.1933 61.9756 82.3434C62.2758 82.3434 62.5729 81.8991 62.8731 81.8991C62.726 82.0462 62.726 82.1963 62.726 82.3434C63.0261 82.4905 63.3233 82.4905 63.6264 82.4905C64.0766 82.4905 64.3767 82.3434 64.8269 82.0462L64.5268 81.8991C64.0766 81.752 63.4792 81.752 63.029 81.8991C63.3292 81.6019 63.6264 81.4548 64.0766 81.3047C64.5268 81.3047 65.1241 81.4518 65.4243 81.6019C65.7244 81.6019 65.8745 81.749 66.0216 81.749C66.1717 81.749 66.4718 81.749 66.6189 81.749C66.3188 81.8961 66.1687 82.0462 66.0216 82.0462C65.7215 82.1933 65.1241 82.6435 65.7214 82.7907C66.0216 82.7907 66.3188 82.6435 66.6189 82.1963C67.0691 82.4935 67.2163 82.6406 67.6665 82.6406C67.9666 82.6406 68.1167 82.3434 68.1167 81.8961C68.2667 81.5989 67.8165 80.5573 67.6665 79.9629L68.1167 79.5127ZM57.1793 80.8515C57.6295 80.9987 57.1793 81.596 56.8792 81.1487L57.0292 81.0016L57.1793 80.8515ZM66.769 83.3792C66.4689 83.3792 66.4689 83.232 66.3188 83.082L66.4689 82.7848L66.6189 82.6377C66.769 82.7848 66.9191 82.9349 67.0691 82.9349C66.9161 83.2321 66.9161 83.3792 66.769 83.3792Z" fill="#FFEEA3"/>
<path fill-rule="evenodd" clip-rule="evenodd" d="M56.7291 79.6598L56.429 80.7014L56.2819 80.8486C55.9817 81.1458 55.3844 81.2929 54.9342 81.1458C54.484 80.9986 54.1838 80.5514 54.1838 79.957C54.484 79.6598 54.9342 79.6598 55.3844 79.6598C55.0843 79.6598 54.7871 79.957 54.634 80.2542C54.634 80.6985 55.0843 80.8486 55.5315 80.8486C55.8317 80.8486 55.9817 80.7014 56.1289 80.5514V79.954V79.8069L56.7291 79.6598Z" fill="#FFEEA3"/>
<path fill-rule="evenodd" clip-rule="evenodd" d="M58.5269 80.1069L58.9771 80.257L58.677 80.7013L58.2268 80.4041L58.5269 80.1069Z" fill="#FFEEA3"/>
<path fill-rule="evenodd" clip-rule="evenodd" d="M70.2147 78.7683L70.6649 79.0655L70.3648 79.3627L69.9146 79.2156L70.2147 78.7683Z" fill="#FFEEA3"/>
<path fill-rule="evenodd" clip-rule="evenodd" d="M51.7827 80.5544L52.3859 80.7016L52.2329 81.1488L51.7827 80.9988V80.5544Z" fill="#FFEEA3"/>
<path fill-rule="evenodd" clip-rule="evenodd" d="M55.6786 78.9183L56.1288 79.0655V79.3627H55.6786V78.9183Z" fill="#FFEEA3"/>
<path fill-rule="evenodd" clip-rule="evenodd" d="M51.3354 84.5355C51.1883 84.5355 51.0352 84.5355 51.0352 84.6826C50.8852 84.8297 50.8852 84.9798 51.0352 85.1269C51.6355 85.1328 51.7826 84.5355 51.3354 84.5355ZM48.1898 83.3467V83.1996C48.3399 83.6439 48.64 84.2412 48.7872 84.5384C49.0873 84.8356 49.2374 84.8356 49.5375 84.8356C49.8376 84.8356 50.2878 84.8356 50.585 84.8356C50.585 84.8356 50.4379 84.9828 50.585 85.1328C50.585 85.43 50.585 85.5771 51.0352 85.5771C51.4854 85.7243 51.7856 85.28 51.9357 84.6826V84.5355L51.7856 84.3884C51.6355 84.0912 51.6355 84.0912 51.3354 83.944C51.0352 84.0912 50.738 84.3884 50.4379 84.3884C50.2878 84.5355 49.9877 84.5355 49.6876 84.3884C49.5375 84.3884 49.0902 84.2412 48.9372 84.0912C48.6371 83.794 48.49 83.4968 48.1898 83.3467Z" fill="#FFEEA3"/>
<path fill-rule="evenodd" clip-rule="evenodd" d="M76.5087 82.6024L76.3587 82.8996C76.3587 83.1968 76.3587 83.6441 76.0585 83.7941C75.7584 84.0913 75.3082 84.2385 74.858 84.2385L74.7108 84.8329H74.858V85.2772C74.858 85.5744 74.858 85.8745 74.858 86.1717C74.7108 86.616 74.2606 87.0662 73.8104 87.3605C74.1106 87.2134 74.5608 87.2134 75.011 86.7661C75.4612 86.3218 74.8609 85.4272 75.161 84.6828C75.6113 84.5357 75.9114 84.5357 76.2086 84.2385C76.6588 83.7941 76.6588 83.1968 76.5087 82.6024Z" fill="#FFEEA3"/>
<path fill-rule="evenodd" clip-rule="evenodd" d="M52.9833 84.3884L52.6832 84.5356H52.5331C52.383 85.2771 52.233 86.0215 52.0829 86.6159C52.233 86.4688 52.383 86.3187 52.383 86.3187C52.6832 85.7273 52.8332 84.9828 52.9833 84.3884Z" fill="#FFEEA3"/>
<path fill-rule="evenodd" clip-rule="evenodd" d="M73.6603 85.4301C73.6603 85.2829 73.6603 85.1329 73.5103 85.1329C73.5103 84.9857 73.5103 84.9857 73.2101 84.9857C73.2101 85.1329 73.2101 85.2829 73.3602 85.4301H73.6603ZM72.91 84.5355C72.91 84.9798 72.91 85.4301 73.0601 85.8744H73.2101L73.8075 85.7272C73.8075 85.8744 73.8075 85.8744 73.6574 86.1716C73.5073 86.4688 73.0601 87.2132 72.6099 87.6575C72.3097 87.8047 71.8595 87.9547 71.4093 88.1019C71.8595 88.1019 72.4568 88.249 72.757 87.9547C73.2072 87.8076 73.8045 86.766 74.1047 86.0215L74.2547 85.5772C74.2547 85.28 74.2547 85.1329 73.9546 84.8327C73.8104 84.5355 73.3602 84.5355 72.91 84.5355Z" fill="#FFEEA3"/>
<path fill-rule="evenodd" clip-rule="evenodd" d="M54.1839 85.1328L53.7336 86.7689L53.5836 86.916C53.7336 87.2132 53.7336 87.3603 54.0338 87.5104C54.484 87.8076 55.0813 87.9547 55.6816 87.9547C55.8317 87.8076 55.9817 87.8076 56.1318 87.6575C56.2819 87.6575 56.582 87.6575 56.8822 87.6575C56.7321 87.8046 56.4319 87.9547 56.4319 88.1018C56.4319 88.1018 56.4319 88.249 56.582 88.249C56.8822 88.249 57.1793 88.1018 57.6296 87.8046C57.6296 87.9518 57.4795 88.1018 57.4795 88.399C57.4795 88.5461 57.6296 88.5461 57.9297 88.5461C58.2298 88.5461 58.527 88.2489 58.8272 87.9488C58.8272 88.246 58.6771 88.6933 58.8272 88.6933C59.1273 88.8404 59.2774 88.8404 59.5775 88.6933C59.8776 88.249 59.8776 87.6516 59.8776 87.0572L60.475 86.76L60.1748 88.402C60.1748 88.5491 59.7246 88.8463 59.4245 89.1435C59.1244 89.2906 58.8272 89.2906 58.5241 89.1435C58.5241 89.1435 58.377 88.9964 58.377 88.8463C58.0768 88.9934 57.9268 89.1435 57.4795 89.1435C57.1793 88.9964 57.0293 88.8463 57.0293 88.5491C56.7291 88.5491 56.5791 88.6962 56.2789 88.6962C56.1289 88.5491 55.9788 88.399 55.9788 88.2519C55.8287 88.2519 55.8287 88.399 55.5286 88.399C54.9313 88.399 53.8808 88.1018 53.5806 87.9547C53.1304 87.6575 53.1304 87.3603 53.1304 86.913C52.3801 87.2102 51.6327 87.2102 51.1825 87.0602C50.8823 86.913 50.5851 86.1656 50.4321 85.7213C51.0295 86.1656 51.4797 86.6158 51.7798 86.763C52.23 86.763 52.3771 86.763 52.5301 86.763C52.8303 86.6158 53.1275 86.4658 53.2805 86.1656C53.4306 85.8684 53.4306 85.5712 53.5806 85.4212L54.1839 85.1328Z" fill="#FFEEA3"/>
<path fill-rule="evenodd" clip-rule="evenodd" d="M75.9085 84.8328L75.7584 85.28L76.0586 85.5772L76.3587 85.1329L75.9085 84.8328Z" fill="#FFEEA3"/>
<path fill-rule="evenodd" clip-rule="evenodd" d="M70.5148 85.8745L70.2147 86.616C70.2147 86.7632 70.3618 86.7632 70.5148 86.9132C70.5148 87.0604 70.5148 87.0604 70.3648 87.0604L69.6144 87.3576L69.7645 87.8019L70.2147 87.6547C70.3618 87.5076 70.6649 87.3576 70.812 87.6547C70.9621 87.8019 70.812 87.9519 70.812 87.9519C70.0617 88.2491 69.0141 88.8465 68.2638 88.8465C67.9637 88.8465 67.6665 88.5493 67.6665 88.2491C67.8165 87.8048 67.8165 87.6547 67.9666 87.3546C67.6665 87.7989 67.3693 87.949 67.3693 88.6935C67.3693 88.9907 67.3693 89.2908 67.8195 89.2908C68.5698 89.4379 69.7674 88.8465 70.5148 88.5463C70.815 88.3992 71.2652 88.2491 71.2652 87.8019V87.6606C71.2652 87.3634 71.1151 87.3634 70.815 87.2163L70.965 87.0692C70.965 86.9221 70.965 86.9221 70.815 86.6249C70.812 86.4718 70.6649 86.1717 70.5148 85.8745Z" fill="#FFEEA3"/>
<path fill-rule="evenodd" clip-rule="evenodd" d="M69.4644 85.8745L69.3173 86.3218L69.7645 86.4718L69.9146 86.1717L69.4644 85.8745Z" fill="#FFEEA3"/>
<path fill-rule="evenodd" clip-rule="evenodd" d="M61.8255 87.066L61.2282 87.5104L60.928 88.8492C60.928 89.1464 60.778 89.4436 60.778 89.5907C60.928 89.4436 61.2282 89.1464 61.3753 88.8492L61.8255 87.066Z" fill="#FFEEA3"/>
<path fill-rule="evenodd" clip-rule="evenodd" d="M63.4704 88.8494L63.7705 87.2134L63.1732 87.8078C63.1732 88.2521 63.1732 88.4022 63.0231 88.8494C63.0231 89.4438 62.873 89.744 62.873 90.1883C63.0231 90.0412 63.1732 89.744 63.3233 89.5939C63.4704 89.2967 63.4704 89.1466 63.4704 88.8494Z" fill="#FFEEA3"/>
<path fill-rule="evenodd" clip-rule="evenodd" d="M64.6709 87.5105L64.0736 88.252C64.3737 88.3991 64.5238 88.6963 64.6709 88.8493C64.821 88.9965 64.821 89.1465 64.821 89.1465C64.821 89.2937 64.5208 89.2937 64.3708 89.2937C64.2207 89.2937 64.0706 89.2937 63.9205 89.2937L63.4703 90.1882L64.5179 90.0411C64.818 89.8939 64.9681 89.7439 65.1152 89.4467L65.2653 88.8523C65.2712 88.405 64.971 87.9578 64.6709 87.5105Z" fill="#FFEEA3"/>
<path fill-rule="evenodd" clip-rule="evenodd" d="M62.5729 88.1078C62.4258 88.2549 62.2728 88.5521 62.1227 88.7022C62.1227 88.8493 62.2699 89.1465 62.2699 89.4466C61.9697 89.5938 61.8197 89.5938 61.3724 89.7438C60.7751 89.891 60.1718 89.7438 59.4244 89.5967C59.7246 89.8939 60.1748 90.1911 60.625 90.3412C61.3753 90.3412 62.5729 89.4466 62.723 89.2995V89.1494C62.723 88.7022 62.723 88.5521 62.5729 88.1078Z" fill="#FFEEA3"/>
<path fill-rule="evenodd" clip-rule="evenodd" d="M70.0646 88.9995L69.9146 89.4468L70.2147 89.5939L70.5148 89.2967L70.0646 88.9995Z" fill="#FFEEA3"/>
<path fill-rule="evenodd" clip-rule="evenodd" d="M70.6648 88.8494L70.5148 89.2966L70.812 89.4467L71.1121 88.9994L70.6648 88.8494Z" fill="#FFEEA3"/>
</g>
<defs>
<clipPath id="clip0_4935_17186">
<rect y="20" width="128" height="88.2759" rx="2" fill="white"/>
</clipPath>
</defs>
</svg>
