<svg width="128" height="128" viewBox="0 0 128 128" fill="none" xmlns="http://www.w3.org/2000/svg">
<path d="M30.7241 99.5862C37.6207 108.69 50.0345 112.828 61.8966 112.828C74.8621 112.828 91.1379 105.931 91.1379 92.4138C91.1379 64.2758 18.8621 81.6552 18.8621 34.2069C18.8621 19.8621 33.2069 0 68.5172 0C84.5173 0 99.6897 2.75862 110.724 14.069L94.7241 26.2069C89.7586 19.8621 80.1034 15.4483 68.7931 15.4483C46.7241 15.4483 40.3793 26.4827 40.3793 33.931C40.3793 64.8276 112.655 46.3448 112.655 90.2069C112.655 113.931 89.7586 128 61.8966 128C43.1379 128 24.931 122.759 15 111.172L30.7241 99.5862Z" fill="url(#paint0_linear_5027_3737)"/>
<defs>
<linearGradient id="paint0_linear_5027_3737" x1="63.8276" y1="0" x2="63.8276" y2="128" gradientUnits="userSpaceOnUse">
<stop stop-color="white"/>
<stop offset="1" stop-color="#E7E7E7"/>
</linearGradient>
</defs>
</svg>
