<svg width="128" height="128" viewBox="0 0 128 128" fill="none" xmlns="http://www.w3.org/2000/svg">
<g clip-path="url(#clip0_5027_4238)">
<path d="M62.9949 0.771559C63.2865 0.259557 63.6669 0.00355557 64.0509 0C63.3825 0 62.7176 0.145777 62.2127 0.440889L10.8382 30.2828C9.82845 30.873 9 32.3237 9 33.5077V94.4928C9 94.9373 9.14222 95.4102 9.34133 95.8689L62.9949 0.771559Z" fill="#FFC007"/>
<path d="M65.1097 0.771456L118.763 95.8723C118.962 95.4136 119.105 94.9407 119.105 94.4963V33.5076C119.105 32.3236 118.276 30.8729 117.266 30.2862L65.8919 0.444344C65.3871 0.149231 64.7186 0.0034545 64.0537 0.0034545C64.4377 -0.000101072 64.8182 0.255899 65.1097 0.771456Z" fill="#FFC007"/>
<path d="M64.0546 24.8005L21.53 100.236C20.666 101.772 21.1886 103.727 22.6997 104.605L62.2128 127.56C63.2261 128.147 64.8795 128.147 65.8928 127.56L105.406 104.605C106.917 103.727 107.44 101.772 106.576 100.236L64.0546 24.8005Z" fill="#FFC007"/>
</g>
<defs>
<clipPath id="clip0_5027_4238">
<rect width="128" height="128" fill="white"/>
</clipPath>
</defs>
</svg>
