<svg width="128" height="128" viewBox="0 0 128 128" fill="none" xmlns="http://www.w3.org/2000/svg">
<g clip-path="url(#clip0_5027_3640)">
<path d="M128 0H0V128H128V0Z" fill="url(#paint0_linear_5027_3640)"/>
<path d="M107.153 31.9699C117.076 33.7975 121.892 38.9043 123.238 49.2103C123.621 51.8099 123.819 57.0157 123.819 64.8144C123.819 80.3262 122.183 86.581 116.693 91.1138C112.84 94.3864 107.443 95.9303 98.1002 96.313C94.6297 96.5043 86.059 96.6033 79.7975 96.6033C64.4837 96.6033 56.6784 96.313 52.8252 95.541C45.6994 94.2874 41.5559 91.5889 39.1476 86.8713C36.6404 82.1538 36.0664 77.4297 36.0664 63.3695C36.0664 52.5819 36.2577 49.8833 37.4124 45.5485C39.24 38.7064 43.0008 35.0511 50.2256 32.9266C55.6227 31.3827 61.4949 31 78.4516 31C96.9456 31.0066 102.626 31.1979 107.153 31.9699ZM59.1856 49.019C56.586 51.0445 55.814 54.2181 55.814 63.4684C55.814 72.9101 56.586 76.374 58.9942 78.3996C61.5938 80.5175 64.774 80.9068 79.5138 80.9068C96.3716 80.9068 99.8421 80.3262 102.052 77.2449C103.88 74.9357 104.362 71.6565 104.362 63.0858C104.362 46.901 104.071 46.7097 79.9889 46.7097C65.6384 46.7097 61.6862 47.1913 59.1856 49.019Z" fill="black"/>
<path d="M128 38.3369H0V39.6565H128V38.3369Z" fill="white"/>
<path d="M128 46.7319H0V48.0515H128V46.7319Z" fill="white"/>
<path d="M128 55.116H0V56.4356H128V55.116Z" fill="white"/>
<path d="M128 63.5107H0V64.8303H128V63.5107Z" fill="white"/>
<path d="M128 71.8948H0V73.2144H128V71.8948Z" fill="white"/>
<path d="M128 80.2847H0V81.6043H128V80.2847Z" fill="white"/>
<path d="M128 88.6743H0V89.9939H128V88.6743Z" fill="white"/>
<path d="M96.9917 31.271H0.00195312V32.5906H96.9917V31.271Z" fill="black"/>
<path d="M110.186 39.655H0V40.9746H110.186V39.655Z" fill="black"/>
<path d="M110.188 48.05H0.00195312V49.3696H110.188V48.05Z" fill="black"/>
<path d="M110.186 56.4341H0V57.7537H110.186V56.4341Z" fill="black"/>
<path d="M110.188 64.8289H0.00195312V66.1484H110.188V64.8289Z" fill="black"/>
<path d="M110.186 73.2131H0V74.5327H110.186V73.2131Z" fill="black"/>
<path d="M110.188 81.6079H0.00195312V82.9275H110.188V81.6079Z" fill="black"/>
<path d="M110.188 89.9927H0.00195312V91.3123H110.188V89.9927Z" fill="black"/>
</g>
<defs>
<linearGradient id="paint0_linear_5027_3640" x1="64" y1="0" x2="64" y2="128" gradientUnits="userSpaceOnUse">
<stop stop-color="white"/>
<stop offset="1" stop-color="#E7E7E7"/>
</linearGradient>
<clipPath id="clip0_5027_3640">
<rect width="128" height="128" fill="white"/>
</clipPath>
</defs>
</svg>
