<svg width="128" height="128" viewBox="0 0 128 128" fill="none" xmlns="http://www.w3.org/2000/svg">
<path d="M14.9777 85.7166C17.3417 85.7166 21.02 85.2376 23.1641 84.1573V76.6809C21.3068 77.3965 19.1461 77.7028 17.4281 77.7028C13.9029 77.7028 9.75681 75.634 9.75681 71.2428C9.75681 66.2252 13.6885 64.329 17.584 64.329C19.4607 64.329 21.563 64.897 23.1641 65.362V57.4458C20.9532 56.7775 17.8485 56.2317 15.7462 56.2317C7.06701 56.2317 0 61.5222 0 71.0591C0 80.7602 6.82754 85.7166 14.9777 85.7166Z" fill="url(#paint0_linear_5027_10219)"/>
<path d="M110.149 85.5187C113.847 85.5187 116.503 84.1154 118.433 81.9769V84.895H128V68.6949C128 64.7382 127.338 61.82 125.202 59.7317C122.96 57.493 119.522 56.2873 114.47 56.2984C110.363 56.3068 106.557 57.3315 102.901 58.5371V65.6487C106.064 64.4681 109.89 63.9028 112.855 63.9028C116.659 63.9028 118.483 65.5735 118.483 68.4889V68.9511C116.868 68.3831 114.315 67.8568 111.711 67.8568C105.098 67.8568 100.665 70.8779 100.665 76.7142V76.8172C100.662 82.4419 104.783 85.5187 110.149 85.5187ZM110.199 76.1406C110.199 74.0578 111.867 72.6517 114.727 72.6517C116.186 72.6517 117.503 73.0749 118.586 73.5427C118.586 77.1569 116.556 79.3177 113.688 79.3177C111.658 79.3177 110.199 78.1705 110.199 76.2436V76.1406Z" fill="url(#paint1_linear_5027_10219)"/>
<path d="M80.3464 69.667C80.3464 66.4843 82.1981 64.7051 84.7292 64.7051C87.2241 64.7051 88.9087 66.501 88.9087 69.667V84.8842H98.3676V66.4899C98.3676 60.1831 94.8508 56.3405 89.0006 56.3405C85.0856 56.3405 82.5378 58.5235 80.739 60.8402L80.3436 61.3414V57.0951H70.8848V84.8842H80.3436V69.667H80.3464Z" fill="url(#paint2_linear_5027_10219)"/>
<path d="M34.0927 85.0704C37.9771 85.7665 41.7834 84.984 46.8623 82.6924C49.2932 84.4299 52.5009 85.5688 56.0706 85.5688C61.0019 85.5688 65.0311 83.4108 68.016 81.4116V75.9011C64.3071 78.2874 58.8857 80.036 55.5221 77.5773C58.9553 75.191 62.2187 72.3258 64.3767 68.887C67.8128 63.3988 65.5685 55.399 56.1124 55.399C47.7812 55.399 41.4716 62.6915 41.3379 70.8472C41.2962 73.4062 41.8336 75.8231 42.7998 77.8279C37.2949 79.4374 36.234 76.7838 36.0446 71.8107C35.8219 65.8324 35.7773 57.3592 35.7773 57.3592H26.9756V74.7594C26.9756 78.3598 27.8555 83.9566 34.0927 85.0704ZM55.6084 63.3932C58.5042 62.711 61.0799 65.1418 57.8527 69.2406C56.5412 70.9085 54.6199 72.5096 52.3366 73.9909C49.1317 68.124 53.0745 63.9919 55.6084 63.3932Z" fill="url(#paint3_linear_5027_10219)"/>
<path d="M26.2324 48.2376C26.2324 51.1362 28.577 53.478 31.47 53.478C34.3631 53.478 36.7076 51.1362 36.7076 48.2376C36.7076 45.3473 34.3631 43 31.47 43C28.577 43 26.2324 45.3473 26.2324 48.2376Z" fill="url(#paint4_linear_5027_10219)"/>
<defs>
<linearGradient id="paint0_linear_5027_10219" x1="11.582" y1="56.2317" x2="11.582" y2="85.7166" gradientUnits="userSpaceOnUse">
<stop stop-color="#D22027"/>
<stop offset="0.0001" stop-color="#D95056"/>
<stop offset="0.536458" stop-color="#F9777C"/>
<stop offset="0.572917" stop-color="#D5343A"/>
<stop offset="1" stop-color="#D22027"/>
</linearGradient>
<linearGradient id="paint1_linear_5027_10219" x1="114.333" y1="56.2983" x2="114.333" y2="85.5187" gradientUnits="userSpaceOnUse">
<stop stop-color="#D22027"/>
<stop offset="0.0001" stop-color="#D95056"/>
<stop offset="0.536458" stop-color="#F9777C"/>
<stop offset="0.572917" stop-color="#D5343A"/>
<stop offset="1" stop-color="#D22027"/>
</linearGradient>
<linearGradient id="paint2_linear_5027_10219" x1="84.6262" y1="56.3405" x2="84.6262" y2="84.8842" gradientUnits="userSpaceOnUse">
<stop stop-color="#D22027"/>
<stop offset="0.0001" stop-color="#D95056"/>
<stop offset="0.536458" stop-color="#F9777C"/>
<stop offset="0.572917" stop-color="#D5343A"/>
<stop offset="1" stop-color="#D22027"/>
</linearGradient>
<linearGradient id="paint3_linear_5027_10219" x1="47.4958" y1="55.399" x2="47.4958" y2="85.5688" gradientUnits="userSpaceOnUse">
<stop stop-color="#D22027"/>
<stop offset="0.0001" stop-color="#D95056"/>
<stop offset="0.536458" stop-color="#F9777C"/>
<stop offset="0.572917" stop-color="#D5343A"/>
<stop offset="1" stop-color="#D22027"/>
</linearGradient>
<linearGradient id="paint4_linear_5027_10219" x1="31.47" y1="43" x2="31.47" y2="53.478" gradientUnits="userSpaceOnUse">
<stop stop-color="#D22027"/>
<stop offset="0.0001" stop-color="#D95056"/>
<stop offset="0.536458" stop-color="#F9777C"/>
<stop offset="0.572917" stop-color="#D5343A"/>
<stop offset="1" stop-color="#D22027"/>
</linearGradient>
</defs>
</svg>
