<svg width="128" height="128" viewBox="0 0 128 128" fill="none" xmlns="http://www.w3.org/2000/svg">
<path d="M77.4062 80.7348C77.382 80.7342 77.3577 80.7336 77.3334 80.733C77.8685 74.742 78.4035 68.7504 78.9385 62.7594C79.0823 61.1482 79.1921 59.3933 78.2901 58.0508C77.3449 56.6434 75.4025 56.0811 73.778 56.5646C72.1535 57.0481 70.8893 58.4469 70.3452 60.0527C70.017 61.022 69.9272 62.0533 69.8392 63.0724C69.3539 68.7231 68.8686 74.3738 68.3833 80.0244C68.3627 80.2671 68.3239 80.5419 68.1231 80.6802C67.9884 80.7736 67.8131 80.7785 67.6493 80.7803C66.6672 80.7906 65.6851 80.793 64.7036 80.7882C63.9617 80.7845 62.359 81.0751 61.7075 80.7239C60.6253 80.1403 61.5031 76.8281 61.5965 75.7417C61.955 71.576 62.3135 67.4104 62.6714 63.2441C62.8036 61.7069 62.9371 60.1618 63.3096 58.6647C64.0114 55.8439 65.5759 53.2433 67.7397 51.3022C69.047 50.1296 70.5848 49.1863 72.2785 48.7216C73.8611 48.2872 75.5257 48.2794 77.1672 48.2739C81.4493 48.2612 85.7315 48.2484 90.0142 48.2357C91.6733 48.2308 93.3567 48.229 94.9552 48.6725C99.1572 49.839 102.065 54.0799 102.438 58.4245C102.569 59.9514 102.434 61.4867 102.3 63.013C101.788 68.7983 101.277 74.5836 100.766 80.369C100.756 80.4812 100.742 80.6025 100.663 80.6832C100.572 80.776 100.426 80.7821 100.296 80.7821C98.2667 80.7821 96.2363 80.7821 94.2066 80.7827C94.0373 80.7827 93.8517 80.7772 93.7231 80.6668C93.5502 80.5188 93.5575 80.2543 93.5781 80.0275C94.132 74.0425 94.6864 68.0576 95.2403 62.0727C95.3082 61.3417 95.3755 60.601 95.2518 59.8773C95.0243 58.5416 94.1113 57.3417 92.8841 56.766C91.657 56.1903 90.1507 56.2558 88.9781 56.9346C87.8079 57.6122 87.0242 58.8249 86.5929 60.1066C86.1616 61.3884 86.0451 62.7509 85.9311 64.0988C85.4858 69.3788 85.0399 74.6589 84.5947 79.9389C84.5716 80.2101 84.5286 80.5182 84.3035 80.6717C84.1549 80.773 83.9632 80.7791 83.783 80.7809C81.6574 80.8045 79.5306 80.7882 77.4056 80.733L77.4062 80.7348Z" fill="#B81B25"/>
<path d="M37.6683 59.2252C37.3183 58.8546 36.9319 58.5167 36.52 58.2194C35.1302 57.2155 33.4644 56.6404 31.7707 56.3735C31.4068 56.3165 31.0009 56.2498 30.7801 55.9549C30.5812 55.688 30.6024 55.3222 30.6333 54.9904C30.8232 52.9443 31.0131 50.8981 31.203 48.8514C31.2212 48.6524 31.2557 48.4262 31.4225 48.317C31.5269 48.2484 31.6591 48.2442 31.7841 48.2436C37.1788 48.2096 42.5134 50.9879 45.578 55.4272C49.2147 51.0801 54.7605 48.3904 60.4263 48.2266C60.6131 48.2211 60.8261 48.229 60.9504 48.3685C61.0657 48.4984 61.0596 48.6931 61.0469 48.8666C60.9073 50.7671 60.7684 52.6677 60.6289 54.5682C60.5962 55.0171 60.55 55.4994 60.2595 55.8433C59.9186 56.2467 59.3471 56.3426 58.8279 56.4366C56.3929 56.8788 54.0022 57.9004 52.2824 59.6802C50.562 61.46 49.603 64.0642 50.1507 66.478C50.5384 68.1868 51.6479 69.6906 53.0765 70.7055C54.5051 71.7204 56.2339 72.267 57.9792 72.4289C58.3529 72.4635 58.8133 72.5448 58.9243 72.9033C58.9595 73.0161 58.9498 73.1375 58.9401 73.2551C58.7642 75.3419 58.5876 77.4293 58.4117 79.5161C58.3838 79.8491 58.3316 80.2258 58.0581 80.4175C57.87 80.5492 57.6243 80.5564 57.395 80.554C52.3303 80.4964 47.3536 77.9425 44.3539 73.8618C44.2265 73.6889 44.0372 73.4911 43.8358 73.5651C43.7582 73.5936 43.7006 73.6586 43.646 73.721C41.1352 76.5916 37.7751 78.6899 34.1214 79.7648C33.1824 80.0408 29.411 81.2559 28.6175 80.4842C28.1207 80.0014 28.62 78.0729 28.6709 77.4317C28.7674 76.2161 28.8638 74.9998 28.9603 73.7841C28.9894 73.4171 29.0385 73.0089 29.3206 72.7717C29.522 72.6024 29.798 72.5612 30.0583 72.5217C32.6206 72.1293 35.1709 71.1823 37.0447 69.3904C38.9186 67.5984 40.0075 64.868 39.4057 62.3463C39.126 61.1731 38.5 60.1054 37.6695 59.2252H37.6683Z" fill="#142E7A"/>
<path d="M6.74583 51.9415C6.83197 51.8693 6.91932 51.7984 7.00667 51.728C8.89144 50.2121 11.0844 49.0243 13.4611 48.5754C14.6592 48.3491 15.8846 48.3127 17.1039 48.2891C20.6296 48.2217 24.1558 48.2593 27.6815 48.297C27.8671 48.2988 28.0764 48.3115 28.1978 48.4516C28.3112 48.5827 28.3039 48.7756 28.2906 48.9485C28.1377 50.9297 27.9842 52.9109 27.8314 54.8927C27.7937 55.3774 27.7167 55.9325 27.3072 56.1952C27.0506 56.3602 26.7261 56.3626 26.4216 56.3602C23.6748 56.3383 20.9286 56.3165 18.1818 56.2946C16.7308 56.2831 15.2476 56.2764 13.8748 56.7478C12.2679 57.2998 10.9285 58.4803 9.95364 59.8719C8.63242 61.7579 7.92388 64.1207 8.25207 66.4003C8.58025 68.68 10.0198 70.8281 12.1181 71.778C13.7644 72.5236 15.6407 72.506 17.4478 72.475C19.8458 72.4338 22.2438 72.3931 24.6417 72.3519C25.047 72.3452 25.4934 72.3519 25.7986 72.6194C26.1874 72.9603 26.1729 73.5597 26.1261 74.0753C25.9502 76.0359 25.7737 77.9959 25.5978 79.9565C25.585 80.0978 25.5681 80.2501 25.4728 80.3563C25.3503 80.4921 25.1452 80.5043 24.962 80.5067C22.5186 80.5364 20.0745 80.5661 17.631 80.5959C15.2937 80.6244 12.9334 80.6505 10.6482 80.1609C3.37544 78.6025 -0.734413 70.9045 0.10879 63.8368C0.659601 59.2186 3.17283 54.9206 6.74583 51.9415Z" fill="#B81B25"/>
<path d="M127.312 80.4254C127.045 80.696 126.592 80.7196 126.199 80.7154C123.975 80.6911 121.751 80.6668 119.528 80.6426C117.313 80.6183 114.894 80.5206 113.222 79.0684C112.11 78.1027 111.506 76.6559 111.281 75.2C111.057 73.7441 111.176 72.2597 111.295 70.7917C111.549 67.6651 111.804 64.5392 112.058 61.4127C112.064 61.3442 112.069 61.2714 112.038 61.2095C111.975 61.0863 111.81 61.0694 111.671 61.0687C110.614 61.0645 109.557 61.0603 108.499 61.056C107.934 61.0536 105.706 61.2046 105.502 60.6914C105.098 59.6705 105.766 56.2649 105.766 55.1275C105.798 54.8479 105.853 54.533 106.087 54.3771C106.248 54.2697 106.454 54.2667 106.648 54.2673C108.442 54.2734 110.236 54.2794 112.03 54.2855C112.177 54.2855 112.329 54.2855 112.459 54.2188C112.739 54.0762 112.798 53.7098 112.823 53.3968C112.978 51.4465 113.134 49.4962 113.291 47.5454C113.304 47.3779 113.328 47.1905 113.46 47.0867C113.567 47.0036 113.714 47 113.848 47C116.053 47 118.258 47 120.464 47C120.581 47 120.713 47.0055 120.795 47.0898C120.884 47.1808 120.878 47.3251 120.867 47.4519C120.663 49.7213 120.459 51.9907 120.254 54.2606C122.423 54.2631 124.592 54.2649 126.761 54.2673C127.094 54.2673 127.459 54.2794 127.708 54.5003C128.031 54.7854 128.018 55.2822 127.981 55.7105C127.855 57.1366 127.73 58.5634 127.604 59.9896C127.579 60.2759 127.543 60.5865 127.343 60.7927C127.109 61.0348 126.734 61.0518 126.397 61.0536C124.154 61.0627 121.91 61.0718 119.667 61.0815C119.376 64.0042 119.085 66.9263 118.794 69.849C118.712 70.6776 118.643 71.573 119.076 72.284C119.77 73.4238 121.35 73.5378 122.685 73.5227C124.027 73.5075 125.369 73.4929 126.711 73.4778C127.138 73.4729 127.642 73.5081 127.869 73.8697C128.011 74.0965 127.994 74.3847 127.972 74.6516C127.838 76.3168 127.702 77.9819 127.568 79.6471C127.548 79.8885 127.524 80.1427 127.383 80.3399C127.361 80.3708 127.337 80.3999 127.31 80.426L127.312 80.4254Z" fill="#142E7A"/>
<path d="M29.0579 59.4648C30.4501 61.1294 31.8423 62.794 33.2351 64.4585C33.3753 64.626 33.5245 64.8237 33.4893 65.0397C33.4602 65.2186 33.3122 65.3503 33.1733 65.4667C30.9688 67.3139 28.7643 69.1611 26.5599 71.0082C26.4204 71.1253 26.2638 71.2484 26.0813 71.2466C25.8653 71.2442 25.696 71.0677 25.5541 70.9045C23.6815 68.7534 21.8561 66.5732 20.0114 64.3991C19.8549 64.2147 19.6881 63.986 19.7548 63.7543C19.7942 63.6166 19.9083 63.5159 20.0169 63.4224C22.1874 61.5625 24.3694 59.716 26.5617 57.8822C26.7255 57.7451 26.9057 57.6013 27.1186 57.5874C27.4371 57.5661 27.6924 57.8342 27.8975 58.0787C28.2845 58.541 28.6709 59.0032 29.0579 59.4661V59.4648Z" fill="#B81B25"/>
</svg>
