<svg width="128" height="128" viewBox="0 0 128 128" fill="none" xmlns="http://www.w3.org/2000/svg">
<path d="M8.09082 54C8.89261 54 9.7963 54.0708 10.8203 54.2002C11.8329 54.338 12.8146 54.5067 13.7568 54.7148V58.5264C11.782 57.7809 10.0261 57.4043 8.4873 57.4043C7.57318 57.4044 6.85042 57.5731 6.30469 57.8994C5.75913 58.2285 5.48065 58.6333 5.48047 59.1113C5.48047 59.7471 6.10503 60.3129 7.3457 60.8193L10.9297 62.5635C13.8159 63.9447 15.2567 65.7791 15.2568 68.083C15.2568 69.9989 14.4915 71.5273 12.9639 72.6582C11.4251 73.8003 9.37978 74.3652 6.81152 74.3652C5.6299 74.3652 4.5655 74.3149 3.62305 74.208C2.68071 74.1068 1.60888 73.8988 0.399414 73.6006V69.6113C2.6105 70.3568 4.61637 70.7333 6.41113 70.7334C8.56614 70.7334 9.63867 70.109 9.63867 68.8486C9.63866 68.2214 9.20247 67.715 8.31934 67.3184L4.33789 65.6221C2.8581 64.9582 1.76676 64.1529 1.06348 63.1992C0.348964 62.2371 0 61.1343 0 59.874C5.57353e-05 58.1102 0.737107 56.6896 2.21387 55.6094C3.6824 54.5375 5.64897 54 8.09082 54ZM120.835 54C121.628 54 122.542 54.0708 123.555 54.2002C124.576 54.338 125.558 54.5066 126.503 54.7148V58.5264C124.528 57.781 122.77 57.4043 121.231 57.4043C120.32 57.4043 119.594 57.5731 119.048 57.8994C118.502 58.2284 118.224 58.6333 118.224 59.1113C118.224 59.7471 118.84 60.3129 120.08 60.8193L123.665 62.5635C126.562 63.9447 128 65.7791 128 68.083C128 69.9989 127.237 71.5273 125.698 72.6582C124.171 73.8002 122.114 74.3652 119.555 74.3652C118.373 74.3652 117.312 74.3149 116.37 74.208C115.428 74.1068 114.344 73.8988 113.143 73.6006V69.6113C115.345 70.3569 117.352 70.7334 119.158 70.7334C121.313 70.7333 122.385 70.1089 122.385 68.8486C122.385 68.2213 121.945 67.7151 121.054 67.3184L117.073 65.6221C115.605 64.9581 114.513 64.1529 113.799 63.1992C113.096 62.2371 112.737 61.1344 112.737 59.874C112.737 58.1101 113.481 56.6897 114.949 55.6094C116.429 54.5375 118.393 54 120.835 54ZM57.9033 66.3867L62.9932 54.3574H69.7617V74.0078H64.3115V61.0469L58.6572 74.1885H55.293L49.8545 61.0469V74.0078H45.9131V54.3574H53.0391L57.9033 66.3867ZM23.7021 74.0078H17.8643V54.3574H23.7021V74.0078ZM42.5088 57.9893H33.8359V62.3467H41.3584V65.6221H33.8359V70.1963H42.6865V74.0078H28.2178V54.3574H42.5088V57.9893ZM88.5605 57.9893H79.9346V62.3467H87.457V65.6221H79.9346V70.1963H88.7373V74.0078H74.2686V54.3574H88.5605V57.9893ZM105.105 66.7441V54.3574H109.044V74.0078H102.852L95.9033 61.4043V74.0078H91.9648V54.3574H98.3369L105.105 66.7441Z" fill="url(#paint0_linear_5027_8525)"/>
<defs>
<linearGradient id="paint0_linear_5027_8525" x1="64.0675" y1="74.3573" x2="64.0675" y2="53.9761" gradientUnits="userSpaceOnUse">
<stop stop-color="#009999"/>
<stop offset="0.5" stop-color="#66C2C2"/>
<stop offset="1" stop-color="#009999"/>
</linearGradient>
</defs>
</svg>
