<svg width="128" height="128" viewBox="0 0 128 128" fill="none" xmlns="http://www.w3.org/2000/svg">
<g clip-path="url(#clip0_5027_8399)">
<path d="M205.667 3.73307H242.467V123.733H205.667V76.2664H167.267V123.733H130.467V3.73307H167.267V51.7331H205.667V3.73307ZM116.6 46.9331C116.6 77.3331 95.2667 95.4664 60.6 95.4664H47.8V124.266H11V3.73307C23.8 2.13307 41.4 1.06641 55.8 1.06641C93.1333 1.59974 116.6 13.3331 116.6 46.9331ZM80.3333 47.4664C80.3333 32.5331 71.8 23.9997 53.6667 23.9997C51.5333 23.9997 49.9333 23.9997 47.8 23.9997V73.5998H53.6667C72.8667 73.5998 80.3333 63.4664 80.3333 47.4664ZM269.667 124.266H306.467V3.73307H269.667V124.266ZM588.067 46.9331C588.067 77.3331 566.2 95.4664 532.067 95.4664H519.267V124.266H482.467V3.73307C495.267 2.13307 512.867 1.06641 527.267 1.06641C565.133 1.59974 588.067 13.3331 588.067 46.9331ZM551.8 47.4664C551.8 32.5331 543.267 23.9997 525.133 23.9997C523 23.9997 521.4 23.9997 519.267 23.9997V73.5998H525.133C544.333 73.5998 551.8 63.4664 551.8 47.4664ZM636.067 34.6664C636.067 28.2664 642.467 25.0664 653.133 25.0664C664.867 25.0664 677.133 27.7331 685.667 30.9331L682.467 4.79974C672.867 2.66641 664.333 1.06641 648.867 1.06641C619 1.06641 599.267 12.7997 599.267 37.3331C599.267 79.4664 656.333 70.9331 656.333 90.6664C656.333 98.1331 651 102.4 637.133 102.4C624.867 102.4 606.733 98.1331 595.533 92.7997L599.8 120.533C611 124.8 625.933 126.4 638.2 126.4C668.6 126.4 694.2 116.266 694.2 86.3997C693.667 46.3997 636.067 53.8664 636.067 34.6664ZM418.467 124.266H455.267V3.73307H418.467V124.266ZM369.933 3.73307H333.133V123.733H399.267L404.6 99.7331H369.4V3.73307H369.933Z" fill="url(#paint0_linear_5027_8399)"/>
</g>
<defs>
<linearGradient id="paint0_linear_5027_8399" x1="352.333" y1="126.587" x2="352.333" y2="1.412" gradientUnits="userSpaceOnUse">
<stop stop-color="#1C6DE0"/>
<stop offset="0.5" stop-color="#6D9EE7"/>
<stop offset="1" stop-color="#216FE1"/>
</linearGradient>
<clipPath id="clip0_5027_8399">
<rect width="106.667" height="128" fill="white" transform="translate(11)"/>
</clipPath>
</defs>
</svg>
