<svg width="128" height="128" viewBox="0 0 128 128" fill="none" xmlns="http://www.w3.org/2000/svg">
<path d="M63.5942 0C32.8172 0 8 23.9277 8 55.861C8 87.8833 32.8172 111.722 63.5942 111.722C68.8422 111.722 73.9124 111.01 78.7158 109.676L84.7644 125.243C85.3871 126.933 86.6324 128 88.8561 128H98.4628C100.776 128 102.466 126.488 101.398 123.552L93.5705 103.183C108.959 93.4871 119.188 76.3197 119.188 55.7721C119.188 23.9277 94.3711 0 63.5942 0ZM87.7887 88.328L80.7616 70.0931C80.139 68.581 78.8937 67.1578 76.2251 67.1578H67.0632C64.7505 67.1578 62.9715 68.6699 64.0389 71.6053L73.2898 95.533C70.2654 96.3336 66.9743 96.6894 63.5942 96.6894C41.0896 96.6894 25.0785 78.9882 25.0785 55.861C25.0785 32.7338 41.0896 15.0327 63.5942 15.0327C86.0987 15.0327 102.11 32.7338 102.11 55.861C102.11 69.3815 96.6838 80.9451 87.7887 88.328Z" fill="url(#paint0_linear_5027_3683)"/>
<defs>
<linearGradient id="paint0_linear_5027_3683" x1="63.5941" y1="0" x2="63.5941" y2="128" gradientUnits="userSpaceOnUse">
<stop stop-color="#486BFC"/>
<stop offset="1" stop-color="#3253DC"/>
</linearGradient>
</defs>
</svg>
