<svg width="128" height="128" viewBox="0 0 128 128" fill="none" xmlns="http://www.w3.org/2000/svg">
<g clip-path="url(#clip0_5027_7831)">
<path d="M16.3691 45.7271L52.8027 80.0694L64.2241 128V72.902L16.3691 45.7271Z" fill="#0061A6"/>
<path d="M112.095 45.7271L75.6616 80.0694L64.2402 128V72.902L112.095 45.7271Z" fill="#007DC2"/>
<path d="M112.107 45.842L64.2241 60.435L16.3691 45.7271L64.185 72.8976L112.107 45.842Z" fill="#009BE0"/>
<path d="M64.2393 51.0091V0L52.7832 47.202L64.2393 51.0091Z" fill="#4C4C4C"/>
<path d="M64.2402 51.0091V0L75.6942 47.202L64.2402 51.0091Z" fill="#9C9C9C"/>
<path d="M45.2582 84.332L1 109.696L47.6488 96.1634L45.2582 84.332Z" fill="#6B6B6B"/>
<path d="M45.2582 84.3316L1 109.695L36.2578 76.2856L45.2582 84.3316Z" fill="#4C4C4C"/>
<path d="M82.8283 84.332L127.084 109.696L80.4355 96.1634L82.8283 84.332Z" fill="#6B6B6B"/>
<path d="M82.8281 84.3316L127.084 109.695L91.8264 76.2856L82.8281 84.3316Z" fill="#9C9C9C"/>
</g>
<defs>
<clipPath id="clip0_5027_7831">
<rect width="128" height="128" fill="white"/>
</clipPath>
</defs>
</svg>
