<svg width="128" height="128" viewBox="0 0 128 128" fill="none" xmlns="http://www.w3.org/2000/svg">
<path d="M72.6341 67.7417H72.6325C72.5986 74.6442 67.0968 80.249 60.3421 80.249C53.5874 80.249 48.089 74.6442 48.0527 67.7417V57.0768C48.0527 57.0768 53.8941 58.5309 53.9567 64.7711V67.6749C53.9567 71.4421 56.8241 74.5073 60.3421 74.5073C63.8619 74.5073 66.7217 71.4426 66.7252 67.6782V61.5378V61.5048V61.6188C66.9702 56.4191 71.377 54.7505 72.5091 54.2106H72.6341V61.5048V67.7417ZM41.0175 55.2946C42.643 55.2946 44.1882 55.5974 45.6161 56.1293V62.7151C44.3843 61.6704 42.7807 61.0355 41.0175 61.0355C37.1438 61.0355 34.005 64.0905 34.005 67.8561V80.249H28.0986V68.0804V67.8561V57.6171C28.0986 57.6171 30.5166 57.7324 32.0847 58.7991C34.4072 56.6333 37.5476 55.2946 41.0175 55.2946ZM12.8302 74.67C8.90658 74.67 5.71809 71.5731 5.71809 67.7568C5.71809 63.9393 8.90658 60.8412 12.8302 60.8412C16.7554 60.8412 19.9439 63.9393 19.9439 67.7568C19.9439 71.5731 16.7554 74.67 12.8302 74.67ZM12.8302 55.2946C5.74595 55.2946 0 60.8821 0 67.7716C0 74.6645 5.74595 80.2473 12.8302 80.2473C15.7609 80.2473 18.4553 79.2863 20.6173 77.6743C21.9463 79.8355 25.6654 80.2473 25.6654 80.2473V78.2353V68.3199V67.7716C25.6654 60.8821 19.9211 55.2946 12.8302 55.2946ZM115.17 74.67C111.241 74.67 108.054 71.5731 108.054 67.7568C108.054 63.9393 111.241 60.8412 115.17 60.8412C119.094 60.8412 122.277 63.9393 122.277 67.7568C122.277 71.5731 119.094 74.67 115.17 74.67ZM115.17 55.2946C108.077 55.2946 102.333 60.8821 102.333 67.7716C102.333 74.6645 108.077 80.2473 115.17 80.2473C118.098 80.2473 120.79 79.2863 122.952 77.6743C124.281 79.8355 128 80.2473 128 80.2473V78.2353V68.3199V67.7716C128 60.8821 122.253 55.2946 115.17 55.2946ZM88.0377 74.67C84.1091 74.67 80.9256 71.5731 80.9256 67.7568C80.9256 63.9393 84.1091 60.8412 88.0377 60.8412C91.963 60.8412 95.1482 63.9393 95.1482 67.7568C95.1482 71.5731 91.963 74.67 88.0377 74.67ZM88.0377 55.2946C85.4263 55.2946 83.0032 56.0584 80.9712 57.362V55.4095C80.7288 50.2085 76.4588 48.5378 75.3293 48H75.2008V67.7716V68.5565V78.2353V80.3251C75.2008 80.3251 79.0399 79.9225 80.4787 77.8315C82.5994 79.3446 85.2058 80.2473 88.0377 80.2473C95.1245 80.2473 100.871 74.6645 100.871 67.7716C100.871 60.8821 95.1245 55.2946 88.0377 55.2946Z" fill="url(#paint0_linear_5027_8656)"/>
<defs>
<linearGradient id="paint0_linear_5027_8656" x1="64" y1="80.3125" x2="64" y2="48.0126" gradientUnits="userSpaceOnUse">
<stop stop-color="#DC6700"/>
<stop offset="0.5" stop-color="#F9B579"/>
<stop offset="1" stop-color="#F5831F"/>
</linearGradient>
</defs>
</svg>
