<svg width="128" height="128" viewBox="0 0 128 128" fill="none" xmlns="http://www.w3.org/2000/svg">
<g clip-path="url(#clip0_5027_8322)">
<path d="M64 128C99.3462 128 128 99.3462 128 64C128 28.6538 99.3462 0 64 0C28.6538 0 0 28.6538 0 64C0 99.3462 28.6538 128 64 128Z" fill="url(#paint0_linear_5027_8322)"/>
<path d="M120.4 81.3C113.1 78.4 106.4 79.4 99.7 83.4C99.7 83.4 97.3 84.9 96.5 85.4C93.4 87.4 90.4 89.1999 87.6 89.1999C84.9 89.1999 82.2 88.4999 81.1 83.1999C79.3 75.0999 75 55 73.1 45C72 39.2 71.4 36 70.8 33.9C69.7 30.1 67.7 28.0999 64.8 27.7999C64.8 27.7999 64.4 27.7 64 27.7C63.6 27.7 63.1 27.7999 63.1 27.7999C60.3 28.0999 58.3 30.2 57.2 33.9C56.6 36 56 39.2 54.9 45C53 55 48.7 75.0999 47 83.1999C45.9 88.3999 43.2 89.1999 40.5 89.1999C37.7 89.1999 34.7 87.3 31.6 85.4C30.9 84.9 28.4 83.4 28.4 83.4C21.7 79.3 15 78.4 7.7 81.3C6 81.9 4.5 82.6 3 83.3C4 86.5 5.3 89.6 6.7 92.5C8.3 91.7 10 90.9 11.8 90.4C14.3 89.7 16.9 89.5999 19.3 90.5C21.7 91.2999 23.9 92.6999 26 94.0999C30 96.5999 34.6 99.5 40.4 99.5C49 99.5 55.1 94.3999 57 85.4C58.5 78.4 61.8 62.9 63.9 52.2C63.9 52.2 69.4 78.4 70.9 85.4C72.8 94.3999 78.9 99.5 87.5 99.5C93.3 99.5 97.9 96.5999 101.9 94.0999C104 92.7999 106.2 91.2999 108.6 90.5C111.1 89.7 113.6 89.7 116.1 90.4C117.8 90.9 119.5 91.7 121.2 92.5C122.7 89.6 123.9 86.4 124.9 83.3C123.5 82.6 122 81.9 120.4 81.3Z" fill="white"/>
</g>
<defs>
<linearGradient id="paint0_linear_5027_8322" x1="64" y1="127.996" x2="64" y2="0.00384498" gradientUnits="userSpaceOnUse">
<stop stop-color="#AC0023"/>
<stop offset="0.5" stop-color="#E06B82"/>
<stop offset="1" stop-color="#CC092F"/>
</linearGradient>
<clipPath id="clip0_5027_8322">
<rect width="128" height="128" fill="white"/>
</clipPath>
</defs>
</svg>
