<svg width="128" height="128" viewBox="0 0 128 128" fill="none" xmlns="http://www.w3.org/2000/svg">
<path d="M37.8429 37.8669C37.8429 37.8669 34.8418 38.3573 31.6352 39.1854C29.2102 39.8082 27.5339 40.3316 26.9045 40.5305V40.5106C25.9836 40.7955 25.0886 41.1003 24.208 41.405C25.1023 42.2861 25.666 43.4988 25.7117 44.8375C26.4272 44.5261 27.1494 44.2213 27.8917 43.9232V43.9166C28.7199 43.6184 30.9588 42.8036 32.8876 42.154C35.2923 41.3391 38.5586 40.3381 38.5586 40.3381C48.0657 37.7139 58.5955 36.1912 68.4046 36.2635C57.0956 35.5877 46.8069 36.2436 37.848 37.8675L37.8429 37.8669ZM127.855 73.6395C117.678 82.8813 94.4944 88.2706 68.0112 88.2706C32.0362 88.2706 8.78882 77.7166 7.16455 63.7543C6.56167 58.5071 10.6961 53.4325 17.5662 49.0978C16.3537 48.1835 15.5651 46.7464 15.5321 45.1221C5.61388 50.3236 0 57.1671 0 64.1184C0 79.4982 27.5111 92.5431 68.3843 91.9721C96.1872 91.5879 117.315 83.6579 128 73.9529L127.841 73.6415" fill="#EC1840"/>
<path d="M16.8799 45.0239C16.8799 42.9505 18.5562 41.2678 20.6297 41.2678C22.7031 41.2678 24.3858 42.9505 24.3858 45.0239C24.3858 47.0974 22.7031 48.7737 20.6297 48.7737C18.5562 48.7737 16.8799 47.0974 16.8799 45.0239Z" fill="#0066B3"/>
<path d="M18.9736 73.2583V51.7368L22.5115 51.2664V73.2574H18.9736" fill="#0066B3"/>
<path d="M34.4044 73.2583V60.9418C34.4044 59.5371 34.2785 58.961 34.0003 58.5638C33.7485 58.2061 33.3112 58.1 32.8408 58.1C32.1584 58.1 31.1315 58.6763 30.2839 59.7166V73.2564H26.7663V59.8308C26.7663 57.6317 26.4814 56.4059 26.2959 55.3984L29.6015 54.5371C29.6943 54.8617 30.0057 55.7562 30.0388 56.6969C30.9399 55.5772 32.5958 54.6424 34.2124 54.6424C35.4646 54.6424 36.4585 55.146 37.0815 55.9406C37.8037 56.8417 37.923 58.061 37.923 59.2868V73.2581H34.4054" fill="#0066B3"/>
<path d="M49.4283 50.4931C49.0241 50.1685 48.3682 49.9564 47.7457 49.9564C46.8711 49.9564 46.3409 50.7845 46.3409 52.1898V54.9929H49.6466L48.9906 58.093H46.341V73.2571H42.7232V58.093H41.5107V54.9929H42.7232C42.7232 54.9929 42.6636 53.7341 42.6636 52.5819C42.6636 49.846 43.5647 48.4083 44.4059 47.6862C45.2539 47.0038 46.2142 46.7852 47.1227 46.7852C48.4285 46.7852 49.4944 47.0766 50.4284 47.7591L49.4279 50.495" fill="#0066B3"/>
<path d="M52.3596 73.2581V55.112L55.9444 54.6416V73.2572H52.3596V73.2581ZM54.0752 52.4472C52.7961 52.4472 51.7695 51.407 51.7695 50.1085C51.7695 48.8167 52.8296 47.7761 54.1349 47.7761C55.414 47.7761 56.4469 48.8163 56.4469 50.1085C56.4469 51.4066 55.3868 52.4472 54.0752 52.4472Z" fill="#0066B3"/>
<path d="M68.0951 73.2583V60.9418C68.0951 59.5371 67.9759 58.961 67.691 58.5638C67.4458 58.2061 67.0085 58.1 66.5381 58.1C65.8491 58.1 64.8225 58.6763 63.9812 59.7166V73.2564H60.456V59.8308C60.456 57.6317 60.1777 56.4059 59.9922 55.3984L63.2978 54.5371C63.3906 54.8617 63.702 55.7562 63.7351 56.6969C64.6362 55.5772 66.2857 54.6424 67.9087 54.6424C69.1543 54.6424 70.1548 55.146 70.7778 55.9406C71.4934 56.8417 71.6193 58.061 71.6193 59.2868V73.2581H68.0941" fill="#0066B3"/>
<path d="M82.8652 58.8175C82.5206 57.9894 81.9575 57.4864 81.0569 57.4864C79.4669 57.4864 78.7779 58.9635 78.7182 62.2031H83.27C83.27 60.7654 83.1441 59.5396 82.8658 58.8175H82.8652ZM78.7182 65.1179V65.4824C78.7182 66.6683 78.811 67.7487 79.2483 68.689C79.7783 69.802 80.6796 70.4186 81.7722 70.4186C83.0513 70.4186 84.1439 69.7693 85.2377 68.6167L86.6361 71.2409C85.0791 72.9375 83.3965 73.6925 81.4613 73.6925C77.3144 73.6925 74.9414 70.128 74.9414 64.0789C74.9414 60.9446 75.478 58.6389 76.6304 56.9105C77.717 55.2939 79.214 54.4995 81.0235 54.4995C82.7392 54.4995 84.1109 55.1886 85.0779 56.4474C86.357 58.1034 86.8531 60.3367 86.8531 64.3314V65.1198H78.7166" fill="#0066B3"/>
<path d="M95.3901 57.7389C93.0184 57.7389 93.0184 62.0584 93.0184 63.9339C93.0184 65.9148 92.9588 70.4868 95.4827 70.4868C97.8214 70.4868 97.8214 65.9148 97.8214 64.0075C97.8214 62.0267 97.9142 57.7401 95.3901 57.7401V57.7389ZM95.3901 73.7278C90.5274 73.7278 89.2483 68.5466 89.2153 64.0811C89.1822 59.5763 90.8054 54.5005 95.4231 54.5005C99.0676 54.5005 101.684 57.7795 101.684 64.0075C101.684 68.6519 100.16 73.7265 95.3901 73.7265" fill="#0066B3"/>
<path d="M112.293 73.2583V60.9418C112.293 59.5371 112.167 58.961 111.882 58.5638C111.637 58.2061 111.2 58.1 110.729 58.1C110.047 58.1 109.014 58.6763 108.173 59.7166V73.2564H104.655V59.8308C104.655 57.6317 104.37 56.4059 104.185 55.3984L107.49 54.5371C107.583 54.8617 107.894 55.7562 107.927 56.6969C108.829 55.5772 110.478 54.6424 112.101 54.6424C113.347 54.6424 114.347 55.146 114.97 55.9406C115.686 56.8417 115.812 58.061 115.812 59.2868V73.2581H112.294" fill="#0066B3"/>
</svg>
