<svg width="128" height="128" viewBox="0 0 128 128" fill="none" xmlns="http://www.w3.org/2000/svg">
<path fill-rule="evenodd" clip-rule="evenodd" d="M8.47734 67.2616C8.27574 68.3233 8.09832 69.6228 9.0089 70.4314C10.3493 71.5962 12.274 71.7231 13.9177 71.2417C14.4503 71.066 14.9058 70.7606 15.2599 70.3318C15.5892 69.9012 15.7403 69.4244 15.639 68.868C15.5127 68.3364 15.2094 67.9059 14.7522 67.578C14.4237 67.3498 14.0695 67.2477 13.7161 67.1219C12.1218 66.6415 10.5534 66.3116 8.93245 65.881C7.2617 65.4017 5.74489 64.6685 4.5296 63.3768C4.09902 62.9206 3.77049 62.4154 3.5184 61.8579C3.21405 61.1254 3.03734 60.3667 2.98578 59.5827C2.9104 57.8607 3.21404 56.1412 4.12569 54.6223C4.98507 53.2054 6.07414 52.089 7.49103 51.2278C9.36303 50.1146 11.4121 49.6335 13.5131 49.5588C17.0814 49.4063 20.8478 49.6075 23.8342 51.9866C24.0109 52.1391 24.1634 52.292 24.3401 52.4687C26.0358 54.1882 26.2381 56.703 25.8562 58.9256H17.7357C17.7108 58.4986 17.8103 58.0779 17.7606 57.6463L17.7101 57.3942C17.4818 56.5082 16.6477 56.0282 15.837 55.7483C15.0007 55.4952 14.1673 55.4952 13.3061 55.7245C12.9261 55.7992 12.5986 56.0022 12.2676 56.2298C11.7367 56.6344 11.3577 57.2666 11.5095 57.9499C11.7872 59.065 12.951 59.4251 13.9373 59.6523C15.6834 60.0324 17.3293 60.2906 18.9723 60.8719C19.7577 61.1514 20.4653 61.5059 21.2002 62.01C21.7311 62.3901 22.1616 62.7443 22.5922 63.1994C23.0484 63.732 23.4256 64.2895 23.7055 64.9206C24.0347 65.6787 24.1627 66.4634 24.2381 67.273C24.3888 69.6015 23.6301 71.8269 22.1371 73.6758C21.5807 74.3325 21.0747 74.9149 20.392 75.422C19.506 76.0541 18.6743 76.5103 17.688 76.8634C16.7543 77.2186 15.816 77.4198 14.8279 77.5212C12.9559 77.6986 11.1333 77.8248 9.26028 77.5727C7.36516 77.3189 5.56747 76.9654 3.87218 76.0051C2.27716 75.1173 1.09991 73.6872 0.443198 72.0186C-0.115025 70.601 -0.135646 68.671 0.323377 67.2616H8.47734ZM34.7736 67.4248H40.4066L40.3977 67.375C40.0941 65.1222 39.7392 62.9188 39.4363 60.618C39.384 60.1875 39.3841 59.7579 39.3609 59.3274C39.3503 59.1507 39.3848 58.9739 39.336 58.7965C39.1078 59.2509 38.8977 59.7579 38.6445 60.2123C37.3776 62.6678 35.9615 64.9693 34.7736 67.4248ZM55.3549 50.0626L47.357 84.3894H46.9176L48.3522 77.1592H41.8313C41.6379 75.8081 41.4285 74.4296 41.2358 73.0547H31.6799C30.8845 74.4296 30.0891 75.7711 29.3559 77.1709H21.2646C26.5026 68.1043 31.6816 59.0952 36.9723 50.1124H44.989L49.1832 72.4421L53.6102 50.0626H55.3549ZM118.677 65.6122C119.285 63.8653 119.588 62.0687 119.436 60.2223C119.36 59.1837 119.032 58.2223 118.347 57.4127C117.158 56.0715 115.26 55.743 113.639 56.3759C111.388 57.3131 110.097 59.4874 109.388 61.7412C108.807 63.5883 108.402 65.4596 108.629 67.4081C108.73 68.2195 108.908 68.9508 109.339 69.6609C109.692 70.2415 110.198 70.6988 110.808 71.0031C111.362 71.2808 111.971 71.4319 112.577 71.4835C113.412 71.534 114.223 71.2552 114.932 70.8495C116.931 69.7107 117.968 67.6609 118.677 65.6122M126.444 68.5761C126.294 68.9053 126.142 69.2346 125.964 69.5624C125.661 70.2209 125.333 70.7119 124.904 71.343C123.891 72.8111 122.777 73.8746 121.386 74.9114C120.347 75.6968 119.309 76.3034 118.121 76.7357C117.108 77.1141 116.096 77.3917 115.033 77.5443C113.211 77.822 111.517 77.8479 109.669 77.4938C108.327 77.215 107.138 76.8598 105.949 76.2785C104.911 75.7992 103.974 75.1386 103.164 74.2547C101.268 72.1782 100.306 69.5233 100.23 66.7901C100.102 62.7148 101.191 58.9103 103.647 55.418C104.692 53.9311 105.897 52.9121 107.417 51.925C108.429 51.2683 109.415 50.7613 110.555 50.4079C114.905 49.0923 119.613 49.1179 123.612 51.8255C124.801 52.634 125.689 53.5723 126.47 54.7851C127.307 56.1274 127.736 57.5688 127.888 59.0877C128.267 62.3492 127.659 65.5642 126.444 68.5761ZM55.4627 84.3877L59.8826 65.3949L64.7693 77.1123H74.7814L79.3432 53.4216L84.7846 67.2936L82.7982 77.1254H90.9727L92.9212 67.47L106.597 50.073H96.582C96.582 50.073 90.6844 58.1715 90.1116 59.7H90.0629C89.8613 57.9976 86.7153 50.073 86.7153 50.073H79.9484L81.2383 42.9999H80.8131L73.351 75.8973L73.0858 75.3409L79.2046 43.0009H78.7253L71.9939 72.6088L71.7496 72.0424L77.1253 43.0009H76.6709L70.7188 69.2765L70.4586 68.6781L75.1093 43.0009H74.646L69.4378 66.0285L69.1672 65.353L73.0197 43.0091H72.5731L68.1905 62.9419L63.5178 50.0786H61.8214L55.0058 84.3877H55.4619M53.4922 84.3955L61.4228 50.0644H59.7787L53.0698 84.3955H53.4922ZM51.4701 84.3955L59.415 50.0644H57.7311L51.0186 84.3955H51.4705M49.404 84.3955L57.4019 50.0644H55.7019L48.9528 84.3955H49.4036" fill="url(#paint0_linear_5027_8541)"/>
<defs>
<linearGradient id="paint0_linear_5027_8541" x1="64.0307" y1="84.4163" x2="64.0307" y2="42.9932" gradientUnits="userSpaceOnUse">
<stop stop-color="#DB215A"/>
<stop offset="0.5" stop-color="#E5668C"/>
<stop offset="1" stop-color="#DB1E56"/>
</linearGradient>
</defs>
</svg>
