<svg width="128" height="128" viewBox="0 0 128 128" fill="none" xmlns="http://www.w3.org/2000/svg">
<g clip-path="url(#clip0_5027_9295)">
<path d="M126.571 42H0V50.0558H126.571V42Z" fill="#FF0000" stroke="black" stroke-width="0.154784" stroke-linecap="square" stroke-linejoin="round"/>
<path d="M126.571 66.7819H0V74.8377H126.571V66.7819Z" fill="#FF0000" stroke="black" stroke-width="0.154784" stroke-linecap="square" stroke-linejoin="round"/>
<path fill-rule="evenodd" clip-rule="evenodd" d="M0.478516 51.7202V63.9105H4.82074V56.4975L11.0004 63.9105H17.1336V51.7202H12.8125V59.1079L6.51032 51.7202H0.478516ZM22.1305 51.7202V63.9105H26.7642V51.7202H22.1305ZM30.1645 51.7202L35.7654 57.8154L29.8054 63.9105H35.3811L39.1319 59.7837L42.887 63.9105H48.4119L42.7645 57.8154L48.319 51.7202H42.887L39.1319 55.5809L35.3811 51.7202H30.1645ZM50.8745 51.7202V63.9105H63.4492C65.6556 63.9105 67.4324 62.252 67.4324 60.0456V55.7499C67.4324 53.5435 65.6556 51.7202 63.4492 51.7202H50.8745ZM75.8592 51.7202C73.6529 51.7202 71.876 53.5435 71.876 55.7499V60.0456C71.876 62.252 73.6529 64.0288 75.8592 64.0288H84.5943C86.8007 64.0288 88.5775 62.252 88.5775 60.0456V55.7499C88.5775 53.5435 86.8007 51.7202 84.5943 51.7202H75.8592ZM93.5618 51.7202V64.0288H97.9674V60.844H102.297L105.203 64.0288H110.09L106.749 60.2019C106.566 59.993 106.556 59.8936 106.656 59.8344C110.687 57.457 109.438 51.7202 104.692 51.7202H93.5618ZM114.111 51.7202V64.0288H118.517V60.1259H126.471V57.431H118.517V54.9727H126.471V51.7202H114.111ZM55.2505 54.753H61.9962C62.6338 54.753 63.1493 55.2643 63.1493 55.9019V59.8936C63.1493 60.5312 62.6338 61.0467 61.9962 61.0467H55.2505V54.753ZM77.1433 54.753H83.1413C83.7789 54.753 84.2902 55.2643 84.2902 55.9019V59.8936C84.2902 60.5312 83.7789 61.0467 83.1413 61.0467H77.1433C76.5057 61.0467 75.9944 60.5312 75.9944 59.8936V55.9019C75.9944 55.2643 76.5057 54.753 77.1433 54.753ZM97.9674 54.9051H103.644C104.282 54.9051 104.793 55.4164 104.793 56.054V56.8734C104.793 57.5111 104.282 58.0266 103.644 58.0266H97.9674V54.9051Z" fill="white"/>
<path fill-rule="evenodd" clip-rule="evenodd" d="M12.7617 82.7621H10.202V83.6322C10.202 84.1665 9.77317 84.5995 9.23892 84.5995H3.78579C3.25154 84.5995 2.82273 84.1665 2.82273 83.6322V79.2308C2.82273 78.6966 3.25154 78.2678 3.78579 78.2678H9.23892C9.77317 78.2678 10.202 78.6966 10.202 79.2308V80.1052H12.7617V79.3998C12.7617 77.6657 11.3659 76.2656 9.63174 76.2656H3.38874C1.65462 76.2656 0.258788 77.6657 0.258789 79.3998V83.4675C0.258789 85.2016 1.65462 86.5974 3.38874 86.5974H9.63174C11.3659 86.5974 12.7617 85.2016 12.7617 83.4675V82.7621ZM46.747 76.2656L41.6194 83.5097L36.4919 76.2656H33.3028V86.5974H35.8878V79.6701L40.7876 86.5974H42.3083L47.2545 79.6701V86.5974H49.8142V76.2656H46.747ZM26.7506 83.6322C26.7506 84.1665 26.3218 84.5995 25.7875 84.5995H19.4627C18.9285 84.5995 18.4997 84.1665 18.4997 83.6322V79.2308C18.4997 78.6966 18.9285 78.2678 19.4627 78.2678H25.7875C26.3218 78.2678 26.7506 78.6966 26.7506 79.2308V83.6322ZM29.3103 79.3998C29.3103 77.6657 27.9145 76.2656 26.1803 76.2656H19.0657C17.3316 76.2656 15.9357 77.6657 15.9357 79.3998V83.4675C15.9357 85.2016 17.3316 86.5974 19.0657 86.5974H26.1803C27.9145 86.5974 29.3103 85.2016 29.3103 83.4675V79.3998ZM82.4604 76.2675H79.8997V83.6338C79.8997 84.168 79.4696 84.5981 78.9354 84.5981H73.7143C73.18 84.5981 72.7499 84.168 72.7499 83.6338V76.2675H70.1892V83.4679C70.1892 85.202 71.5853 86.5981 73.3194 86.5981H79.3303C81.0644 86.5981 82.4604 85.202 82.4604 83.4679V76.2675ZM85.0292 76.2675H97.0446V78.5926H92.573C92.573 78.5926 92.6754 86.5981 92.573 86.5981C92.4706 86.5981 89.7398 86.5981 89.7398 86.5981V78.5926H85.0292V76.2675ZM100.185 76.2675H110.562V78.6268H102.677V80.6407H110.562V82.5864H102.677V84.6345H110.562V86.5981H100.185V76.2675ZM54.8582 76.2656H63.5958C65.3074 76.2656 66.6853 77.6436 66.6853 79.3551V79.7896C66.6853 81.5012 65.3074 82.8791 63.5958 82.8791H57.3926V86.5974H54.8582V76.2656ZM57.3926 78.2914H63.363C63.9067 78.2914 64.3444 78.7291 64.3444 79.2728V80.004C64.3444 80.5477 63.9067 80.9854 63.363 80.9854H57.3926V78.2914ZM114.926 76.2656V86.5974H117.461V82.8803H121.883L125.018 86.5974H128L124.941 82.9859C124.812 82.8326 124.879 82.6647 125.415 82.3397C126.252 81.8311 126.754 80.8493 126.754 79.7884V79.3533C126.754 77.6417 125.377 76.2656 123.666 76.2656H114.926ZM117.461 78.2931H123.434C123.977 78.2931 124.413 78.7294 124.413 79.2731V80.0038C124.413 80.5475 123.977 80.9838 123.434 80.9838H117.461V78.2931Z" fill="white"/>
</g>
<defs>
<clipPath id="clip0_5027_9295">
<rect width="128" height="128" fill="white"/>
</clipPath>
</defs>
</svg>
