<svg width="128" height="128" viewBox="0 0 128 128" fill="none" xmlns="http://www.w3.org/2000/svg">
<path d="M68.5 73.8C73.6 78.8 80.6 81.8 88.3 81.8C103.8 81.8 116.4 69.6 116.4 54.5C116.4 39.4 103.8 27.2 88.3 27.2C88.3 27.2 66.6 25.2 56.9 52.1V31.9C64.2 22.7 75.4 16 88.3 16C110.2 16 128 33.2 128 54.5C128 75.7 110.3 93 88.3 93C77.3 93 67.4 88.7 60.3 81.7L46.7 66.8C43 63.2 37.8 61 32.2 61C20.8 61 11.6 69.9 11.6 81C11.6 92.1 20.8 101 32.2 101C32.2 101 47.4 103 57 84.7V100.9C51.1 107.8 42.1 112.3 32.2 112.3C14.4 112.1 0 98.1 0 80.9C0 63.7 14.4 49.7 32.1 49.7C40.9 49.7 49 53.2 54.8 58.8L68.5 73.8Z" fill="url(#paint0_linear_5027_3357)"/>
<defs>
<linearGradient id="paint0_linear_5027_3357" x1="64" y1="112.125" x2="64" y2="15.8748" gradientUnits="userSpaceOnUse">
<stop stop-color="#990F1A"/>
<stop offset="0.359375" stop-color="#E60012"/>
<stop offset="0.6875" stop-color="#F06671"/>
<stop offset="1" stop-color="#E60012"/>
</linearGradient>
</defs>
</svg>
