<svg width="128" height="128" viewBox="0 0 128 128" fill="none" xmlns="http://www.w3.org/2000/svg">
<path d="M80.9998 0C64.026 0 47.7474 6.74282 35.7451 18.7451C23.7428 30.7474 17 47.026 17 63.9998H61.3732C61.3732 58.7945 63.441 53.8024 67.1217 50.1217C70.8024 46.441 75.7945 44.3732 80.9998 44.3732V0Z" fill="#2A63DA"/>
<path d="M47.1504 128C55.555 128 63.8773 126.345 71.6421 123.128C79.4069 119.912 86.4622 115.198 92.4051 109.255C98.348 103.312 103.062 96.2566 106.279 88.4918C109.495 80.727 111.15 72.4047 111.15 64.0002H66.777C66.777 69.2055 64.7092 74.1976 61.0285 77.8783C57.3478 81.559 52.3557 83.6268 47.1504 83.6268V128Z" fill="white"/>
</svg>
