<svg width="128" height="128" viewBox="0 0 128 128" fill="none" xmlns="http://www.w3.org/2000/svg">
<path d="M71.8408 93.666C71.8408 106.24 82.0342 116.433 94.6084 116.434V116.435H127.188C127.631 118.124 127.872 119.821 127.872 121.492H94.6084C79.241 121.492 66.7822 109.033 66.7822 93.666V40.3994H71.8408V93.666ZM33.3916 7C48.7595 7 61.2177 19.4583 61.2178 34.8262V121.487C59.4903 121.487 57.7999 121.329 56.1602 121.026V34.8291H56.1582C56.1582 22.255 45.9657 12.0613 33.3916 12.0615V12.0586H0.683594C0.240235 10.3702 1.21939e-05 8.6734 0 7.00293L33.3916 7ZM33.3916 14.5957C44.568 14.5957 53.6282 23.6567 53.6279 34.833V120.435C51.8668 119.934 50.1718 119.273 48.5713 118.454L48.5703 34.833H48.5684C48.5682 26.451 41.7734 19.6564 33.3916 19.6562H4.07324C3.04702 18.0184 2.16695 16.3236 1.50488 14.5957H33.3916ZM33.3916 22.1826C40.3763 22.1826 46.0389 27.8443 46.0391 34.8291V116.972C44.1908 115.764 42.4906 114.349 40.9814 112.75V34.8271H40.9805C40.9807 30.6361 37.5826 27.2389 33.3916 27.2393H10.4863C8.77075 25.7057 7.19131 24.0013 5.80762 22.1836H33.3906V22.1797L33.3916 22.1826ZM79.4316 93.666C79.4316 102.048 86.2265 108.843 94.6084 108.844V108.848H123.802C124.826 110.484 125.706 112.177 126.367 113.902H94.6084V113.903C83.4318 113.903 74.3716 104.842 74.3721 93.666H74.374V40.3994H79.4316V93.666ZM33.3906 29.7666C36.1841 29.7669 38.4486 32.0318 38.4482 34.8252V109.647C35.2653 105.123 33.3907 99.6122 33.3906 93.6602V34.8252H27.8252C23.0575 34.8251 18.0863 32.8728 13.6826 29.7695H33.3906V29.7666ZM87.0195 93.666C87.0191 97.8572 90.4172 101.255 94.6084 101.255V101.258H117.39C119.105 102.792 120.686 104.497 122.069 106.315H94.6084V106.313C87.6235 106.313 81.9608 100.651 81.9609 93.666H81.9639V40.3994H87.0195V93.666ZM94.6074 93.666H100.046C104.815 93.6661 109.788 95.6197 114.193 98.7246H94.6074C91.8139 98.7241 89.5502 96.4595 89.5508 93.666H89.5518V40.3994H94.6074V93.666ZM105.23 88.1006H100.174V40.3994H105.23V88.1006ZM112.82 88.1006H107.764V40.3994H112.82V88.1006ZM120.409 88.1006H115.354V40.3994H120.409V88.1006ZM127.999 88.1006H122.942V40.3994H127.999V88.1006ZM100.174 22.1875C107.159 22.1875 112.821 27.85 112.821 34.835H107.763C107.763 30.6438 104.365 27.2457 100.174 27.2461V22.1875ZM100.175 7.00879C115.542 7.00903 128 19.4669 128 34.834H122.941C122.941 22.2597 112.748 12.0661 100.174 12.0664L100.175 7.00879ZM94.6084 34.833H63.7461C63.7461 33.1102 63.5937 31.4228 63.3164 29.7773H94.6084V34.833ZM100.174 29.7666C102.967 29.7669 105.232 32.0318 105.231 34.8252H100.174V29.7666ZM100.174 14.5869C111.35 14.5874 120.41 23.6486 120.409 34.8242H115.35C115.35 26.4428 108.556 19.6478 100.174 19.6475V14.5869ZM94.6094 27.2432H62.7852C62.3323 25.4909 61.7202 23.803 60.9766 22.1875H94.6094V27.2432ZM94.6084 19.6475H59.6611C58.6097 17.8349 57.3807 16.138 55.9902 14.5869H94.6084V19.6475ZM94.6084 12.0635H53.4316C51.0814 9.99248 48.4108 8.2789 45.5029 7.00781H94.6084V12.0635Z" fill="url(#paint0_linear_5027_5533)"/>
<defs>
<linearGradient id="paint0_linear_5027_5533" x1="26.075" y1="109.664" x2="26.075" y2="29.7504" gradientUnits="userSpaceOnUse">
<stop stop-color="#808080"/>
<stop offset="0.333333" stop-color="#B3B3B3"/>
<stop offset="0.666667" stop-color="#F2F2F2"/>
<stop offset="1" stop-color="#B3B3B3"/>
</linearGradient>
</defs>
</svg>
