<svg width="128" height="128" viewBox="0 0 128 128" fill="none" xmlns="http://www.w3.org/2000/svg">
<path d="M22.0826 81.1775C22.2673 82.8197 20.3588 94.2932 39.9989 98.0902C59.4339 101.846 83.6301 91.9328 83.6301 91.9328H85.0257C85.0257 91.9328 63.7642 102.462 42.0103 99.3421C20.2561 96.2225 21.3438 83.7226 21.2617 81.1775H22.0826Z" fill="#00A7E4"/>
<path d="M62.6963 91.9125C62.6963 91.9125 48.6179 100.02 38.2128 100.492C27.8077 100.964 18.8188 97.2899 21.5279 81.1777H20.7071C20.7071 81.1777 18.3675 95.0321 26.3919 99.2808C34.416 103.529 44.8827 103.899 67.3345 91.9125H62.6963Z" fill="#00A7E4"/>
<path d="M12.7857 57.7382V65.5583H3.69416V57.7382H0V75.3691H3.67363V67.1387H12.7652V73.4603C12.7572 73.8025 12.8348 74.141 12.991 74.4456C13.141 74.6814 13.345 74.8784 13.586 75.0201C13.8151 75.1513 14.0649 75.2417 14.3248 75.287C14.5556 75.3253 14.7889 75.3458 15.0227 75.3486H16.4388V57.7177H12.7857V57.7382Z" fill="#006499"/>
<path d="M84.7588 75.3692V57.7383H81.1675L73.964 70.7921L66.617 57.7383H62.9639V75.3692H64.8519V61.6995L72.5889 75.3692H73.5534L81.0854 61.8022V73.4604C81.0739 73.8054 81.159 74.1466 81.3318 74.4457C81.4742 74.6805 81.6712 74.8778 81.9063 75.0202C82.1383 75.1604 82.3969 75.2513 82.6655 75.2871C82.9031 75.3264 83.1432 75.3469 83.384 75.3487H84.7588V75.3692Z" fill="#006499"/>
<path d="M107.867 75.3686L98.6522 57.3477H97.5851L88.1445 75.3686H90.2994L93.2343 69.7654H99.9247L99.0012 67.9592H94.1783L97.2772 62.0274L103.352 73.9525C103.544 74.3815 103.849 74.7503 104.234 75.0196C104.652 75.2577 105.129 75.3716 105.609 75.3481H107.867V75.3686Z" fill="#006499"/>
<path d="M127.015 57.7383C126.899 57.736 126.782 57.7431 126.666 57.7588C126.533 57.7759 126.407 57.8252 126.297 57.9025C126.175 57.9836 126.07 58.0883 125.989 58.2104C125.903 58.3599 125.86 58.5306 125.866 58.7031V70.0739L113.614 57.7383H111.254V75.3692H113.409V62.0691L125.846 74.9176C126.358 75.3897 127.056 75.3487 127.734 75.3487H127.98V57.7178H127.015V57.7383Z" fill="#006499"/>
<path d="M88.1452 37.9111C79.9158 37.2134 70.5163 38.1984 64.2365 39.4711C56.5816 41.031 49.4396 43.1861 42.7081 46.1415C41.1688 46.8189 39.6914 47.5579 38.2342 48.3377C43.1152 44.6525 48.3063 41.3974 53.7493 38.609C69.4697 30.6044 85.9493 27.5666 93.7479 33.375C95.7746 34.8422 97.1449 37.0457 97.5652 39.5119C94.4776 38.7061 91.3257 38.1704 88.1452 37.9111ZM35.3406 50.657C35.3406 50.657 39.6298 48.2148 42.8518 46.86C50.7736 43.494 57.7514 41.5236 64.1749 40.3125C69.367 39.3274 85.1695 36.8644 97.7089 40.8052C97.9142 43.7198 97.1136 47.0858 95.513 50.6775H100.664C101.937 48.03 102.798 45.4643 103.188 43.0834C105.127 44.1118 106.904 45.4188 108.463 46.9626C109.899 48.3992 111.274 50.6775 111.274 50.6775H113.552C112.762 49.0574 111.708 47.5799 110.433 46.3057C108.442 44.2738 105.979 42.7345 103.373 41.5647C103.763 36.926 102.244 32.985 98.345 30.2759C89.0279 23.7695 70.5574 27.505 53.5235 36.6386C46.2616 40.5461 39.4603 45.2551 33.2471 50.6775H35.3406V50.657Z" fill="#00A7E4"/>
<path d="M30.4355 57.3477H29.3478L19.9072 75.3686H22.0621L29.0399 62.0479L32.0569 67.9798H27.2134L26.2694 69.7859H32.9803L35.0941 73.9935C35.2864 74.4226 35.5913 74.7913 35.9766 75.0607C36.3944 75.2987 36.8713 75.4126 37.3516 75.3891H39.6091L30.4355 57.3477Z" fill="#006499"/>
<path d="M46.7915 59.2779V65.9485H48.4951C48.4951 65.9485 50.1778 65.969 51.286 65.3534C52.3942 64.7376 53.1537 63.8549 53.1537 62.5414C53.139 61.24 52.3349 60.0782 51.122 59.6063C50.522 59.3677 49.8791 59.2558 49.2338 59.2779H46.7915ZM54.1183 73.9534L48.6798 67.3033H46.7915V75.3695H43.1182V57.7386H49.8701C49.8701 57.7386 52.6611 57.6975 54.4878 58.6007C56.3142 59.5037 57.094 60.7969 57.094 62.4183C57.094 64.0397 56.1089 65.969 52.62 66.9338L59.6594 75.349H56.8476C56.4083 75.3349 55.973 75.2588 55.5549 75.1232C54.857 74.8974 54.1183 73.9534 54.1183 73.9534Z" fill="#006499"/>
<path d="M49.6648 81.9167L48.6182 84.2155H50.7115L49.6648 81.9167ZM52.025 86.2064H51.6349L50.8552 84.5234H48.4745L47.6947 86.2064H47.3047L49.5622 81.3009H49.7675L52.025 86.2064Z" fill="white"/>
<path d="M96.7023 82.0814C96.1713 81.776 95.5703 81.6135 94.9577 81.6093C93.7676 81.6208 92.8121 82.5949 92.8234 83.7849C92.8349 84.9753 93.8087 85.931 94.9988 85.9195C95.6126 85.9045 96.2124 85.7353 96.7433 85.4271V85.8169C96.2144 86.107 95.6223 86.262 95.0193 86.2685C93.5418 86.2685 92.4336 85.2013 92.4336 83.7644C92.4356 83.0903 92.7085 82.4452 93.1908 81.9743C93.6735 81.5034 94.3249 81.2461 94.9988 81.2603C95.5958 81.2764 96.1828 81.416 96.7228 81.6709V82.0814H96.7023Z" fill="white"/>
<path d="M100.232 81.6085C99.0449 81.6197 98.0906 82.5898 98.0981 83.7771C98.1056 84.9647 99.0722 85.9224 100.26 85.9187C101.447 85.9149 102.408 84.9511 102.408 83.7636C102.407 83.1888 102.177 82.6381 101.768 82.2338C101.36 81.8292 100.807 81.6042 100.232 81.6085ZM100.212 86.2676C98.8389 86.2238 97.7572 85.0828 97.7867 83.7092C97.816 82.3357 98.9455 81.242 100.319 81.257C101.693 81.2718 102.798 82.39 102.798 83.7636C102.795 84.4412 102.519 85.0893 102.032 85.5607C101.546 86.0321 100.889 86.2872 100.212 86.2676Z" fill="white"/>
<path d="M108.175 81.3214H108.544V86.2064H108.175V81.8756H108.154L106.307 84.1539L104.46 81.8756H104.44V86.2064H104.07V81.3214H104.44L106.307 83.5997L108.175 81.3214Z" fill="white"/>
<path d="M110.392 83.5996H111.295C112.198 83.5996 112.547 83.1687 112.547 82.6145C112.547 82.0603 112.198 81.6292 111.336 81.6292H110.392V83.5996ZM111.356 81.3213C112.506 81.3213 112.957 81.9166 112.957 82.6145C112.957 83.2509 112.588 83.928 111.336 83.928H110.412V86.2063H110.043V81.3213H111.356Z" fill="white"/>
<path d="M115.214 81.9166L114.167 84.2154H116.26L115.214 81.9166ZM117.574 86.2063H117.184L116.404 84.5233H114.023L113.244 86.2063H112.854L115.111 81.3008H115.316L117.574 86.2063Z" fill="white"/>
<path d="M122.91 86.2063H122.603L118.888 81.9371V86.2063H118.519V81.3213H118.826L122.521 85.5905V81.3213H122.91V86.2063Z" fill="white"/>
<path d="M126.091 83.5792V86.2064H125.722V83.5792L123.813 81.3214H124.285L125.907 83.251L127.528 81.3214H128L126.091 83.5792Z" fill="white"/>
<path d="M57.2995 84.8519C57.3406 84.9715 57.3406 85.1014 57.2995 85.2214C57.258 85.4411 57.0479 85.5871 56.8274 85.5495C56.7002 85.5641 56.573 85.5225 56.4787 85.4359C56.384 85.3493 56.3317 85.2261 56.335 85.0982V84.6261H55.0215V84.9956C55.0215 86.1038 55.8834 86.4322 56.8069 86.4322C57.6895 86.4322 58.4283 86.1243 58.5514 85.3035C58.5967 85.0384 58.5967 84.7678 58.5514 84.5029C58.3461 83.4765 56.4787 83.1689 56.335 82.5941C56.3142 82.5062 56.3142 82.4149 56.335 82.3273C56.3763 82.1165 56.5733 81.9733 56.7863 81.9988C56.9097 81.9858 57.0324 82.0291 57.12 82.1167C57.2076 82.2046 57.2509 82.327 57.2379 82.4504V82.7583H58.4693V82.4094C58.4693 81.342 57.5048 81.1777 56.8069 81.1777C55.9244 81.1777 55.2268 81.4651 55.0831 82.2657C55.039 82.4832 55.046 82.708 55.1036 82.9226C55.3089 83.9281 57.0532 84.2155 57.2995 84.8519Z" fill="white"/>
<path d="M73.2868 84.8518C73.3176 84.973 73.3176 85.0999 73.2868 85.2213C73.2453 85.4411 73.0352 85.5871 72.8147 85.5495C72.5068 85.5495 72.3223 85.3856 72.3223 85.1187V84.6466H71.0088V85.0161C71.0088 86.1038 71.8707 86.4322 72.7736 86.4322C73.6766 86.4322 74.3745 86.1243 74.4977 85.324C74.5422 85.0589 74.5422 84.7883 74.4977 84.5234C74.2924 83.497 72.4452 83.1894 72.3018 82.6352C72.2805 82.5543 72.2805 82.4694 72.3018 82.3888C72.3431 82.178 72.5398 82.0349 72.7531 82.0604C72.8765 82.0474 72.9989 82.0907 73.0868 82.1783C73.1744 82.2659 73.2177 82.3886 73.2047 82.512V82.8199H74.4156V82.4299C74.4156 81.3625 73.4716 81.1982 72.7736 81.1982C71.9117 81.1982 71.1935 81.4856 71.0704 82.2862C71.0263 82.5037 71.0333 82.7285 71.0909 82.9431C71.3164 83.9281 73.0405 84.2155 73.2868 84.8518Z" fill="white"/>
<path d="M83.5072 85.2828L83.4251 81.3213H84.636V86.1857H82.8914L81.66 82.1013L81.7216 86.1857H80.5107V81.3213H82.3374L83.5072 85.2828Z" fill="white"/>
<path d="M61.3832 81.6909L60.7061 86.2475H59.3721L60.275 81.3214H62.4709L63.3741 86.2475H62.0606L61.3832 81.6909Z" fill="white"/>
<path d="M68.5665 81.6908L67.7251 86.2473H66.4732L65.6318 81.6908L65.5908 86.2473H64.3594L64.462 81.3213H66.4732L67.0887 85.1802L67.7251 81.3213H69.7157L69.8389 86.2473H68.587L68.5665 81.6908Z" fill="white"/>
<path d="M77.4113 85.5087C77.6338 85.527 77.8356 85.3778 77.8834 85.1597C77.9002 85.0997 77.9072 85.0373 77.9039 84.975V81.3419H79.1556V85.2008C79.0737 86.1243 78.3348 86.4117 77.4318 86.4117C76.5289 86.4117 75.8104 86.1243 75.708 85.2008C75.708 85.1392 75.6875 84.975 75.6875 84.8724V81.3419H76.9392V84.975C76.9347 85.0373 76.9417 85.0999 76.9597 85.1597C76.9917 85.3788 77.1912 85.533 77.4113 85.5087Z" fill="white"/>
<path d="M87.6725 85.4677C87.9146 85.5002 88.1399 85.338 88.1854 85.0982C88.2024 85.0381 88.2094 84.9758 88.2059 84.9134V84.195H87.693V83.4765H89.4373V84.7903C89.4386 84.9002 89.4316 85.0098 89.4168 85.1187C89.3347 86.0217 88.5549 86.3296 87.693 86.3296C86.8311 86.3296 86.0511 86.0011 85.969 85.1187C85.9537 85.0098 85.9469 84.9002 85.9484 84.7903V82.7173C85.9484 82.6352 85.969 82.471 85.969 82.3888C86.0716 81.4651 86.8311 81.1777 87.693 81.1777C88.5549 81.1777 89.3347 81.4651 89.4168 82.3888C89.4288 82.498 89.4288 82.6081 89.4168 82.7173V82.8815H88.1854V82.6146C88.1859 82.5526 88.1792 82.4905 88.1649 82.4299C88.1133 82.2053 87.9013 82.0551 87.6725 82.0809C87.4457 82.0634 87.2387 82.2101 87.1798 82.4299C87.1621 82.5037 87.155 82.5798 87.1593 82.6557V84.8929C87.1561 84.9553 87.1631 85.0176 87.1798 85.0777C87.2099 85.3205 87.4292 85.4942 87.6725 85.4677Z" fill="white"/>
</svg>
