<svg width="128" height="128" viewBox="0 0 128 128" fill="none" xmlns="http://www.w3.org/2000/svg">
<path d="M70.4541 50.3818C78.1236 50.3818 84.3643 56.6703 84.3643 64.3398V80.3457L77.2666 77.3926L76.3145 77.0117C74.5512 77.8211 72.5508 78.2969 70.4541 78.2969C62.7373 78.2966 56.4973 72.0574 56.4971 64.3398C56.4971 56.6705 62.7372 50.3821 70.4541 50.3818ZM12.3369 52.1445C19.197 52.1445 24.7236 57.6714 24.7236 64.4834V76.8213H20.5791V73.6777C18.3878 75.63 15.5298 76.8213 12.3369 76.8213C5.52655 76.8212 0 71.2954 0 64.4834C3.42289e-05 57.6714 5.52657 52.1446 12.3369 52.1445ZM32.1064 48V76.8213H28.0098V48H32.1064ZM47.7324 52.1455C49.3598 52.1416 50.9725 52.4588 52.4766 53.0801C53.9806 53.7014 55.3469 54.6144 56.4971 55.7656L53.5908 58.6719C52.0664 57.1943 50.0182 56.2422 47.7324 56.2422C43.2063 56.2423 39.5391 59.9572 39.5391 64.4834C39.5391 69.008 43.2063 72.7235 47.7324 72.7236C50.0181 72.7236 52.0665 71.7718 53.5908 70.2939L56.4971 73.2002C54.2582 75.4398 51.161 76.8213 47.7324 76.8213C40.9205 76.8211 35.3936 71.2953 35.3936 64.4834C35.3936 57.6715 40.9205 52.1457 47.7324 52.1455ZM91.7969 48L95.8926 52.1455V56.2422H91.7969V76.8213H87.7002V48H91.7969ZM108.23 52.1445C115.09 52.1445 120.615 57.6716 120.615 64.4834C120.615 65.1964 120.521 65.8637 120.425 66.5322H100.275C101.228 70.1049 104.419 72.7235 108.23 72.7236C109.42 72.7259 110.596 72.467 111.674 71.9648C112.617 71.5255 113.466 70.9093 114.175 70.1514L119.377 69.8184C117.377 73.963 113.137 76.8213 108.23 76.8213C101.418 76.8211 95.8926 71.2953 95.8926 64.4834C95.8926 57.6715 101.419 52.1447 108.23 52.1445ZM128 48V76.8213H123.903V48H128ZM70.4062 54.0508C64.5947 54.0509 59.8789 58.7666 59.8789 64.5781C59.879 70.39 64.5948 75.1053 70.4062 75.1055C73.1215 75.1055 75.5525 74.0579 77.458 72.3906V75.1055H80.9346V64.5781C80.9345 58.7666 76.2182 54.0508 70.4062 54.0508ZM12.3369 56.2422C7.81233 56.2423 4.14457 59.9572 4.14453 64.4834C4.14453 69.008 7.81231 72.7235 12.3369 72.7236C16.9116 72.7236 20.5791 69.0085 20.5791 64.4834C20.5791 59.9576 16.9116 56.2422 12.3369 56.2422ZM70.4072 57.4326C74.3608 57.4328 77.5526 60.6245 77.5527 64.5781C77.5527 68.5319 74.3609 71.7235 70.4072 71.7236C66.4542 71.7236 63.2617 68.5324 63.2617 64.5781C63.2618 60.624 66.4543 57.4326 70.4072 57.4326ZM108.23 56.2422C104.419 56.2422 101.228 58.8628 100.276 62.4355H116.233C115.281 58.8628 112.089 56.2422 108.23 56.2422Z" fill="url(#paint0_linear_5027_8663)"/>
<defs>
<linearGradient id="paint0_linear_5027_8663" x1="64" y1="80.3457" x2="64" y2="48" gradientUnits="userSpaceOnUse">
<stop stop-color="#1389B9"/>
<stop offset="0.5" stop-color="#66C7EE"/>
<stop offset="1" stop-color="#00A1E3"/>
</linearGradient>
</defs>
</svg>
