<svg width="128" height="128" viewBox="0 0 128 128" fill="none" xmlns="http://www.w3.org/2000/svg">
<path d="M5.17972 83.1566C3.40409 82.6183 2.62612 82.2768 2.62612 81.2611C2.62612 80.3523 3.83651 80.0298 4.87313 80.0298C5.77992 80.0298 6.75462 80.2994 7.41674 80.7328C7.57353 80.8347 7.76627 80.8656 7.94603 80.8157C8.12579 80.7678 8.27759 80.6429 8.36148 80.4762L8.66308 79.873C8.81088 79.5754 8.71401 79.2138 8.43538 79.0311C7.48165 78.4079 6.12846 78.0214 4.90409 78.0214C2.33152 78.0214 0.601824 79.3427 0.601824 81.3091C0.601824 83.8636 2.75995 84.5098 4.49164 85.0301C6.30522 85.5734 7.09816 85.9229 7.08818 87.0025C7.08818 88.086 5.81288 88.4715 4.61947 88.4715C3.47599 88.4715 2.23165 87.8633 1.47566 87.1652C1.32486 87.0264 1.13012 86.9465 0.928388 86.9695C0.725659 86.9925 0.5449 87.1093 0.44004 87.2851L0.0925031 87.8723C-0.0622905 88.131 -0.0193481 88.4615 0.195366 88.6732C1.31687 89.7778 3.00562 90.4648 4.60349 90.4648C7.29989 90.4648 9.11148 89.0657 9.11148 86.9915C9.13245 84.356 6.94037 83.6909 5.17972 83.1566Z" fill="#254A9A"/>
<path d="M17.0597 78.4344C16.9529 78.2017 16.7202 78.0519 16.4635 78.0519H15.7505C15.4928 78.0519 15.2601 78.2017 15.1543 78.4364L10.127 89.5206C10.0351 89.7244 10.0521 89.959 10.1719 90.1468C10.2938 90.3355 10.5005 90.4474 10.7232 90.4474H11.4522C11.7099 90.4474 11.9436 90.2966 12.0494 90.0619L13.3027 87.2916H18.9452L20.2135 90.0649C20.3204 90.2976 20.5531 90.4474 20.8087 90.4474H21.5388C21.7625 90.4474 21.9692 90.3335 22.09 90.1458C22.2109 89.959 22.2268 89.7234 22.134 89.5186L17.0597 78.4344ZM14.1806 85.3142L16.102 81.0549L18.0454 85.3142H14.1806Z" fill="#254A9A"/>
<path d="M25.4238 78.0529H24.7586C24.3971 78.0529 24.1035 78.3465 24.1035 78.708V89.7923C24.1035 90.1548 24.3971 90.4474 24.7586 90.4474H25.4238C25.7853 90.4474 26.0789 90.1548 26.0789 89.7923V78.708C26.0789 78.3465 25.7853 78.0529 25.4238 78.0529Z" fill="#254A9A"/>
<path d="M39.252 78.0529H38.6019C38.2384 78.0529 37.9458 78.3465 37.9458 78.708V86.7813L31.7241 78.3196C31.6002 78.1508 31.4045 78.0529 31.1958 78.0529H30.4188C30.0563 78.0529 29.7637 78.3465 29.7637 78.708V89.7923C29.7637 90.1548 30.0563 90.4474 30.4188 90.4474H31.0839C31.4464 90.4474 31.74 90.1548 31.74 89.7923V81.723L37.9458 90.1817C38.0686 90.3485 38.2653 90.4474 38.4751 90.4474H39.252C39.6135 90.4474 39.9071 90.1548 39.9071 89.7923V78.708C39.9071 78.3465 39.6135 78.0529 39.252 78.0529Z" fill="#254A9A"/>
<path d="M50.6852 78.0528H42.533C42.1715 78.0528 41.8789 78.3464 41.8789 78.7079V79.359C41.8789 79.7196 42.1715 80.0132 42.533 80.0132H45.6219V89.7921C45.6219 90.1547 45.9155 90.4473 46.277 90.4473H46.9412C47.3047 90.4473 47.5983 90.1547 47.5983 89.7921V80.0132H50.6852C51.0477 80.0132 51.3403 79.7196 51.3403 79.359V78.7079C51.3403 78.3464 51.0477 78.0528 50.6852 78.0528Z" fill="#254A9A"/>
<path d="M55.5606 84.0959H52.0233C51.6618 84.0959 51.3682 84.3885 51.3682 84.751V85.2903C51.3682 85.6528 51.6618 85.9454 52.0233 85.9454H55.5606C55.9221 85.9454 56.2147 85.6528 56.2147 85.2903V84.751C56.2147 84.3885 55.9221 84.0959 55.5606 84.0959Z" fill="#254A9A"/>
<path d="M69.3328 83.6971H68.7296C68.7266 83.6971 68.7226 83.6981 68.7186 83.6981H66.7512C66.3887 83.6981 66.0951 83.9917 66.0951 84.3532V85.0193C66.0951 85.3808 66.3887 85.6744 66.7512 85.6744H68.0755V87.7007C67.3035 88.23 66.3757 88.5176 65.432 88.5176C62.9862 88.5176 60.9969 86.6002 60.9969 84.2423C60.9969 81.8925 62.9862 79.981 65.432 79.981C66.5675 79.981 67.685 80.3995 68.4989 81.1295C68.6327 81.2493 68.8105 81.3102 68.9892 81.2953C69.169 81.2813 69.3338 81.1934 69.4466 81.0536L69.8431 80.5622C70.0628 80.2876 70.0299 79.8881 69.7642 79.6564C68.5738 78.6128 67.0338 78.0356 65.432 78.0356C61.8967 78.0356 59.0195 80.8189 59.0195 84.2423C59.0195 87.6728 61.8817 90.462 65.4 90.462C66.9909 90.462 68.5788 89.8788 69.7612 88.8612C69.905 88.7373 69.9889 88.5556 69.9889 88.3638V84.3522C69.9889 83.9917 69.6943 83.6971 69.3328 83.6971Z" fill="#254A9A"/>
<path d="M78.6259 78.0355C75.0996 78.0355 72.2305 80.8188 72.2305 84.2412C72.2305 87.6726 75.0996 90.4619 78.6259 90.4619C82.1522 90.4619 85.0224 87.6726 85.0224 84.2412C85.0224 80.8188 82.1522 78.0355 78.6259 78.0355ZM78.6259 88.5015C76.1972 88.5015 74.2218 86.5901 74.2218 84.2412C74.2218 81.9003 76.1972 79.9969 78.6259 79.9969C81.0537 79.9969 83.0291 81.9003 83.0291 84.2412C83.0291 86.5901 81.0537 88.5015 78.6259 88.5015Z" fill="#254A9A"/>
<path d="M95.5179 83.8991C96.185 83.3249 96.5555 82.479 96.5555 81.4504C96.5555 79.3542 94.9796 78.0519 92.443 78.0519H87.9071C87.5465 78.0519 87.2529 78.3455 87.2529 78.707V89.7923C87.2529 90.1538 87.5465 90.4474 87.9071 90.4474H92.475C95.3781 90.4474 97.1098 89.0882 97.1098 86.8122C97.1098 85.524 96.5276 84.4993 95.5179 83.8991ZM92.427 83.0792H89.2283V80.0133H92.427C93.4077 80.0133 94.5792 80.276 94.5792 81.5303C94.5792 82.5579 93.8551 83.0792 92.427 83.0792ZM89.2283 85.0396H92.427C93.4377 85.0396 95.1334 85.2593 95.1334 86.7313C95.1334 88.1824 93.6624 88.487 92.427 88.487H89.2283V85.0396Z" fill="#254A9A"/>
<path d="M105.154 78.4343C105.047 78.2016 104.815 78.0518 104.558 78.0518H103.845C103.586 78.0518 103.354 78.2016 103.247 78.4363L98.2206 89.5205C98.1287 89.7242 98.1457 89.9589 98.2675 90.1467C98.3884 90.3354 98.5951 90.4473 98.8188 90.4473H99.5478C99.8055 90.4473 100.039 90.2965 100.145 90.0618L101.398 87.2915H107.039L108.307 90.0648C108.414 90.2975 108.648 90.4473 108.903 90.4473H109.632C109.855 90.4473 110.064 90.3334 110.184 90.1457C110.304 89.9589 110.321 89.7232 110.229 89.5185L105.154 78.4343ZM102.275 85.3141L104.197 81.0548L106.14 85.3141H102.275Z" fill="#254A9A"/>
<path d="M113.518 78.0529H112.851C112.49 78.0529 112.195 78.3465 112.195 78.708V89.7923C112.195 90.1548 112.49 90.4474 112.851 90.4474H113.518C113.879 90.4474 114.175 90.1548 114.175 89.7923V78.708C114.175 78.3465 113.879 78.0529 113.518 78.0529Z" fill="#254A9A"/>
<path d="M127.346 78.0528H126.695C126.333 78.0528 126.041 78.3464 126.041 78.7079V86.7812L119.818 78.3194C119.695 78.1507 119.498 78.0528 119.29 78.0528H118.513C118.15 78.0528 117.856 78.3464 117.856 78.7079V89.7921C117.856 90.1547 118.15 90.4473 118.513 90.4473H119.179C119.54 90.4473 119.833 90.1547 119.833 89.7921V81.7229L126.041 90.1816C126.163 90.3484 126.359 90.4473 126.568 90.4473H127.346C127.707 90.4473 128 90.1547 128 89.7921V78.7079C128 78.3464 127.707 78.0528 127.346 78.0528Z" fill="#254A9A"/>
<path d="M71.9553 60.6599V71.5574H69.949V59.1609L71.9553 60.6599ZM110.85 71.5214H102.958L102.902 71.4665L95.9603 64.6007C95.6777 64.321 95.2423 64.2351 94.8738 64.3889C94.5003 64.5447 94.2586 64.9062 94.2586 65.3107V71.5574H92.1963V56.099C92.1963 55.8254 92.0815 55.5607 91.8828 55.373L86.1154 49.9262C85.9297 49.7505 85.685 49.6536 85.4294 49.6536H82.5462C81.9949 49.6536 81.5465 50.102 81.5465 50.6523V71.5574H79.5003V37.9961C79.5003 37.5887 79.2566 37.2262 78.8801 37.0724C78.5106 36.9206 78.0672 37.0124 77.7896 37.2951L68.2383 46.9871C68.0525 47.1749 67.9507 47.4246 67.9507 47.6882V55.1752L64.0399 52.2551C63.6844 51.9905 63.163 51.9995 62.8175 52.2761L53.9254 59.4046C53.6877 59.5953 53.5519 59.88 53.5519 60.1845V71.5574H51.5365V65.2887C51.5365 63.0877 50.0206 60.7478 47.2133 60.7478C44.4051 60.7478 42.8901 63.0987 42.8901 65.3107V71.5574L40.8518 71.5564V67.3041C40.8518 65.5804 39.6654 63.7498 37.4663 63.7498C35.2672 63.7498 34.0808 65.5823 34.0808 67.308V71.5584L32.0505 71.5594L32.0495 71.3706C32.0465 70.5138 32.0435 69.4162 32.0435 68.9758C32.0435 67.5118 30.6614 66.2285 29.0855 66.2285C27.5096 66.2285 26.1274 67.5058 26.1274 68.9628V71.5574L17.2233 71.5564C16.672 71.5564 16.2246 72.0048 16.2236 72.5551C16.2236 72.8227 16.3275 73.0734 16.5162 73.2621C16.705 73.4509 16.9557 73.5547 17.2223 73.5547L27.1261 73.5557C27.3927 73.5557 27.6444 73.4519 27.8322 73.2631C28.0209 73.0744 28.1258 72.8237 28.1258 72.5571V69.1436C28.1258 68.7741 28.5282 68.2258 29.0855 68.2258C29.6348 68.2258 30.0462 68.7272 30.0462 69.1756C30.0462 69.4322 30.0562 72.563 30.0562 72.563C30.0592 73.1123 30.5066 73.5587 31.0549 73.5587L35.0805 73.5557C35.6308 73.5557 36.0792 73.1073 36.0792 72.5571V67.308C36.0792 66.7678 36.3688 65.7471 37.4663 65.7471C38.5638 65.7471 38.8545 66.7648 38.8545 67.3041V72.5541C38.8545 73.1053 39.3019 73.5537 39.8521 73.5537L43.8877 73.5557C44.1514 73.5557 44.4091 73.4489 44.5948 73.2631C44.7806 73.0774 44.8874 72.8197 44.8874 72.5571V65.3107C44.8874 64.4239 45.3738 62.7451 47.2133 62.7451C48.919 62.7451 49.5382 64.2661 49.5382 65.2887V72.5571C49.5382 73.1073 49.9866 73.5557 50.5369 73.5557H54.5505C55.1018 73.5557 55.5492 73.1073 55.5492 72.5571V60.6639L55.6211 60.606L63.4636 54.3184L67.9507 57.6689V72.5571C67.9507 73.1073 68.3991 73.5557 68.9493 73.5557H72.955C73.5053 73.5557 73.9537 73.1073 73.9537 72.5571V60.1586C73.9537 59.846 73.8029 59.5464 73.5522 59.3586L69.949 56.6672V48.0977L70.0039 48.0417L77.5019 40.4329V72.5571C77.5019 73.1073 77.9503 73.5557 78.5006 73.5557H82.5462C83.0965 73.5557 83.5449 73.1073 83.5449 72.5571V51.6509H85.0319L85.0868 51.7029L90.198 56.5294V72.5571C90.198 73.1073 90.6464 73.5557 91.1967 73.5557H95.2573C95.8085 73.5557 96.2569 73.1073 96.2569 72.5571V67.7035L101.844 73.2302C102.033 73.4159 102.283 73.5188 102.547 73.5188H110.85C111.402 73.5188 111.85 73.0704 111.85 72.5201C111.85 71.9688 111.402 71.5214 110.85 71.5214Z" fill="url(#paint0_linear_5027_10047)"/>
<defs>
<linearGradient id="paint0_linear_5027_10047" x1="16.1108" y1="55.2791" x2="112.115" y2="55.2791" gradientUnits="userSpaceOnUse">
<stop stop-color="#54B6AE"/>
<stop offset="0.1" stop-color="#54B6AE"/>
<stop offset="0.3" stop-color="#3B98DA"/>
<stop offset="0.42" stop-color="#254A9A"/>
<stop offset="0.55" stop-color="#ED1443"/>
<stop offset="0.84" stop-color="#F25C19"/>
<stop offset="1" stop-color="#F25C19"/>
</linearGradient>
</defs>
</svg>
