<svg width="128" height="128" viewBox="0 0 128 128" fill="none" xmlns="http://www.w3.org/2000/svg">
<path d="M56.5852 102.135C56.0688 102.135 55.9212 101.766 56.1426 101.323L63.6675 88.4868C63.8889 88.0441 64.3315 88.0441 64.5528 88.4868L72.0778 101.323C72.2991 101.766 72.1516 102.135 71.6351 102.135H56.5852Z" fill="#E30613"/>
<path d="M38.8049 102.135C38.2885 102.135 38.141 101.766 38.3623 101.323L45.8873 88.4868C46.1086 88.0441 46.5512 88.0441 46.7726 88.4868L54.2975 101.323C54.5188 101.766 54.3713 102.135 53.8549 102.135H38.8049Z" fill="#E30613"/>
<path d="M74.3645 102.135C73.8481 102.135 73.7005 101.766 73.9219 101.323L81.4468 88.4868C81.6682 88.0441 82.1108 88.0441 82.3321 88.4868L89.8571 101.323C90.0784 101.766 89.9309 102.135 89.4144 102.135H74.3645Z" fill="#E30613"/>
<path d="M13.2059 94.5362C12.6157 94.5362 12.173 94.7575 11.8779 95.2002L10.2549 97.7085H36.0021C36.5185 97.7085 37.0349 97.4134 37.33 96.9707L38.9531 94.5362H13.2059Z" fill="#E30613"/>
<path d="M116.268 95.2002C115.973 94.7575 115.531 94.5362 114.941 94.5362H89.1934L90.8164 96.9707C91.1115 97.4134 91.6279 97.7085 92.1443 97.7085H117.892L116.268 95.2002Z" fill="#E30613"/>
<path d="M56.8804 42.9683C53.2654 42.9683 50.3145 45.8455 50.3145 49.4604V77.1995C50.3145 80.7407 53.2654 83.6916 56.8804 83.6916C60.4953 83.6916 63.4463 80.8144 63.4463 77.1995V69.0843H59.8313V77.2733C59.8313 78.8963 58.5034 80.1505 56.8804 80.1505C55.2573 80.1505 53.9294 78.8225 53.9294 77.2733V49.3128C53.9294 47.6898 55.2573 46.4357 56.8804 46.4357C58.5034 46.4357 59.8313 47.7636 59.8313 49.3128V56.0263H63.4463V49.4604C63.4463 45.8455 60.4953 42.9683 56.8804 42.9683Z" fill="white"/>
<path d="M46.2569 43.7795C46.2569 43.7795 45.5191 43.4106 44.4125 43.4106C44.1912 43.4106 43.8961 43.4106 43.6748 43.4844C43.0846 43.5582 42.6419 43.7057 42.2731 43.8533V43.4844H38.8057V83.2487H42.2731V48.6486C42.2731 48.6486 42.2731 47.6158 43.0846 47.2469C43.5272 47.0256 44.0436 46.9518 44.7076 46.9518C45.5191 46.9518 46.1093 47.0994 46.1093 47.0994L46.3306 47.1731V43.8533L46.2569 43.7795Z" fill="white"/>
<path d="M78.3479 43.1895V77.3469C78.3479 78.9699 77.02 80.2241 75.397 80.2241C73.7739 80.2241 72.446 78.8962 72.446 77.3469V43.1895H68.8311V77.1994C68.8311 80.7405 71.782 83.6915 75.397 83.6915C76.5036 83.6915 77.6102 83.3964 78.5692 82.88V83.2489H81.9629V43.1895H78.3479Z" fill="white"/>
<path d="M87.4229 26V83.175H91.0378V26H87.4229Z" fill="white"/>
<path d="M10.3284 26.0738C10.3284 26.0738 10.3284 50.1979 10.3284 50.2717C10.3284 51.5997 10.2546 52.6325 8.55781 52.6325H5.01665C4.13136 52.6325 3.54116 52.8538 3.24607 53.2227V26H0V83.175H3.24607C3.24607 83.175 3.24607 58.7558 3.24607 58.6082C3.24607 57.2803 3.31984 56.2474 5.01665 56.2474H8.55781C9.4431 56.2474 10.0333 56.0261 10.3284 55.731V83.175H13.5745V26.0738H10.3284Z" fill="white"/>
<path d="M127.998 67.7564C127.998 67.1662 128.072 64.8054 127.26 63.2561C127.039 62.8135 126.744 62.4446 126.375 62.002C126.006 61.5593 125.637 61.1904 125.268 60.8216C124.604 60.1576 120.842 56.9853 120.252 56.2476C120.178 56.1 120.03 56.0263 120.03 55.9525C119.735 55.4361 119.661 54.3294 119.735 53.7393V48.8702C119.735 47.3209 120.694 46.6569 121.948 46.5832H122.022C123.276 46.5832 124.309 47.2471 124.309 48.8702V54.477H127.924V47.9111C127.924 44.9601 125.49 43.042 121.948 43.042C121.875 43.042 121.801 43.042 121.653 43.042C121.58 43.042 121.432 43.042 121.358 43.042C121.211 43.042 120.989 43.042 120.842 43.1158C120.842 43.1158 120.842 43.1158 120.768 43.1158C117.817 43.4846 115.899 45.329 115.899 47.9111C115.899 47.9111 115.899 53.2966 115.899 53.7393C115.899 54.3294 115.899 56.1738 116.637 57.6493C116.71 57.7968 116.784 57.8706 116.858 58.0182C117.301 58.7559 118.186 59.6412 119.071 60.4527C119.883 61.2642 122.244 63.2561 122.391 63.4037C122.76 63.7725 123.129 64.1414 123.35 64.4365C123.498 64.6578 123.645 64.8054 123.719 64.9529C123.94 65.4694 124.088 66.8711 124.014 67.6826V77.7896C124.014 79.3389 123.055 80.0029 121.801 80.0766H121.727C120.473 80.0766 119.44 79.4127 119.44 77.7896V69.1581H115.825V78.7487C115.825 81.6997 118.26 83.6178 121.801 83.6178H121.875C125.49 83.6178 127.85 81.6259 127.85 78.7487V75.1338L127.998 67.7564Z" fill="white"/>
<path d="M33.3464 55.141V50.1244C33.3464 49.6079 33.2726 49.1653 33.1988 48.6489C33.1251 48.3538 33.0513 48.0587 32.9775 47.7636C32.9775 47.6898 32.9037 47.616 32.9037 47.5423C32.83 47.3209 32.6824 47.0996 32.6086 46.8045C32.6086 46.7307 32.5349 46.657 32.5349 46.5832C32.3873 46.3619 32.2398 46.1406 32.0922 45.9192C32.0184 45.8455 31.9447 45.6979 31.8709 45.6241C31.7233 45.4766 31.6496 45.329 31.502 45.2553C31.3545 45.1077 31.2807 45.0339 31.1332 44.8864C30.9856 44.7388 30.8381 44.5913 30.6905 44.5175C30.6167 44.4437 30.4692 44.37 30.3954 44.2962C30.2479 44.1486 30.0265 44.0749 29.8052 43.9273C29.7314 43.8536 29.6577 43.8536 29.5839 43.7798C29.3626 43.6322 29.0675 43.5585 28.7724 43.4109C28.6986 43.4109 28.6248 43.3371 28.5511 43.3371C28.3297 43.2634 28.0346 43.1896 27.7395 43.1158C27.6658 43.1158 27.6658 43.1158 27.592 43.042C27.5182 43.042 27.5182 43.042 27.4444 43.042C27.2969 43.042 27.1493 42.9683 27.0018 42.9683C26.928 42.9683 26.8542 42.9683 26.7805 42.9683C26.5591 42.9683 26.3378 42.9683 26.1165 42.9683C25.8214 42.9683 25.6001 42.9683 25.305 43.042C25.0099 43.042 24.7148 43.1158 24.4935 43.1896C22.0589 43.7798 20.067 45.6241 19.3293 47.9849C19.2555 48.1325 19.2555 48.3538 19.1817 48.5013V48.5751C19.108 48.944 19.0342 49.3128 19.0342 49.6817C19.0342 49.8293 19.0342 49.9768 19.0342 50.0506V76.388C19.0342 76.5355 19.0342 76.6831 19.0342 76.7569C19.0342 77.1257 19.108 77.4946 19.1817 77.8635V77.9372C19.2555 78.0848 19.2555 78.3061 19.3293 78.4537C20.067 80.8144 22.0589 82.6588 24.4935 83.249C24.7886 83.3228 25.0837 83.3965 25.305 83.3965C25.6001 83.3965 25.8952 83.4703 26.1165 83.4703C26.3378 83.4703 26.5591 83.4703 26.7805 83.4703C26.8542 83.4703 26.928 83.4703 27.0018 83.4703C27.1493 83.4703 27.2969 83.4703 27.4444 83.3965C27.5182 83.3965 27.5182 83.3965 27.592 83.3965C27.6658 83.3965 27.6658 83.3965 27.7395 83.3228C28.0346 83.249 28.256 83.1752 28.5511 83.1014C28.6248 83.1014 28.6986 83.0277 28.7724 83.0277C29.0675 82.9539 29.2888 82.8063 29.5839 82.6588C29.6577 82.585 29.7314 82.585 29.8052 82.5112C30.0265 82.4375 30.1741 82.2899 30.3954 82.1424C30.4692 82.0686 30.6167 81.9948 30.6905 81.921C30.8381 81.7735 30.9856 81.6997 31.1332 81.5522C31.2807 81.4046 31.3545 81.3309 31.502 81.1833C31.6496 81.0358 31.7233 80.8882 31.8709 80.8144C31.9447 80.7407 32.0184 80.5931 32.0922 80.5193C32.2398 80.298 32.3873 80.0767 32.5349 79.8554C32.5349 79.7816 32.6086 79.7078 32.6086 79.634C32.7562 79.4127 32.83 79.1914 32.9037 78.8963C32.9037 78.8225 32.9775 78.7488 32.9775 78.675C33.0513 78.3799 33.1988 78.0848 33.1988 77.7897C33.2726 77.347 33.3464 76.9044 33.3464 76.388V69.0843H29.7314V76.5355C29.6577 78.4537 28.1084 80.0029 26.1903 80.0029C24.2721 80.0029 22.7229 78.5274 22.6491 76.6093V65.912C24.5672 65.912 28.3297 65.5432 30.8381 63.1824C32.166 61.9282 32.9775 60.379 33.2726 58.4608C33.3464 58.092 33.3464 57.7969 33.3464 57.428C33.3464 57.3542 33.3464 57.2805 33.3464 57.2067V55.141ZM22.6491 49.9768C22.7229 48.0587 24.2721 46.5832 26.1903 46.5832C28.1084 46.5832 29.6577 48.0587 29.7314 50.0506V57.428C29.7314 58.8297 29.2888 59.8626 28.4035 60.6003C26.8542 62.002 24.1984 62.3709 22.5753 62.3709V49.9768H22.6491Z" fill="white"/>
<path d="M110.735 55.1408V50.1242C110.735 49.6078 110.661 49.1651 110.587 48.6487C110.514 48.3536 110.44 48.0585 110.366 47.7634C110.366 47.6896 110.292 47.6159 110.292 47.5421C110.219 47.3208 110.071 47.0994 109.997 46.8043C109.997 46.7306 109.924 46.6568 109.924 46.583C109.776 46.3617 109.628 46.1404 109.481 45.919C109.407 45.8453 109.333 45.6977 109.26 45.624C109.112 45.4764 109.038 45.3289 108.891 45.2551C108.743 45.1075 108.669 45.0338 108.522 44.8862C108.374 44.7387 108.227 44.5911 108.079 44.5173C108.005 44.4436 107.858 44.3698 107.784 44.296C107.637 44.1485 107.415 44.0747 107.194 43.9271C107.12 43.8534 107.046 43.8534 106.973 43.7796C106.751 43.632 106.456 43.5583 106.161 43.4107C106.087 43.4107 106.014 43.3369 105.94 43.3369C105.718 43.2632 105.423 43.1894 105.128 43.1156C105.054 43.1156 105.054 43.1156 104.981 43.0419C104.907 43.0419 104.907 43.0419 104.833 43.0419C104.686 43.0419 104.538 42.9681 104.39 42.9681C104.317 42.9681 104.243 42.9681 104.169 42.9681C103.948 42.9681 103.727 42.9681 103.505 42.9681C103.21 42.9681 102.989 42.9681 102.694 43.0419C102.399 43.0419 102.103 43.1156 101.882 43.1894C99.4476 43.7796 97.4557 45.6239 96.718 47.9847C96.6442 48.1323 96.6442 48.3536 96.5704 48.5011V48.5749C96.4966 48.9438 96.4229 49.3127 96.4229 49.6815C96.4229 49.8291 96.4229 49.9766 96.4229 50.0504V76.3878C96.4229 76.5353 96.4229 76.6829 96.4229 76.7567C96.4229 77.1255 96.4966 77.4944 96.5704 77.8633V77.9371C96.6442 78.0846 96.6442 78.3059 96.718 78.4535C97.4557 80.8142 99.4476 82.6586 101.882 83.2488C102.177 83.3226 102.472 83.3963 102.694 83.3963C102.989 83.3963 103.284 83.4701 103.505 83.4701C103.727 83.4701 103.948 83.4701 104.169 83.4701C104.243 83.4701 104.317 83.4701 104.39 83.4701C104.538 83.4701 104.686 83.4701 104.833 83.3963C104.907 83.3963 104.907 83.3963 104.981 83.3963C105.054 83.3963 105.054 83.3963 105.128 83.3226C105.423 83.2488 105.645 83.175 105.94 83.1012C106.014 83.1012 106.087 83.0275 106.161 83.0275C106.456 82.9537 106.677 82.8062 106.973 82.6586C107.046 82.5848 107.12 82.5848 107.194 82.5111C107.415 82.4373 107.563 82.2897 107.784 82.1422C107.858 82.0684 108.005 81.9946 108.079 81.9209C108.227 81.7733 108.374 81.6995 108.522 81.552C108.669 81.4044 108.743 81.3307 108.891 81.1831C109.038 81.0356 109.112 80.888 109.26 80.8142C109.333 80.7405 109.407 80.5929 109.481 80.5191C109.628 80.2978 109.776 80.0765 109.924 79.8552C109.924 79.7814 109.997 79.7076 109.997 79.6339C110.145 79.4125 110.219 79.1912 110.292 78.8961C110.292 78.8223 110.366 78.7486 110.366 78.6748C110.44 78.3797 110.587 78.0846 110.587 77.7895C110.661 77.3469 110.735 76.9042 110.735 76.3878V69.0841H107.12V76.5353C107.046 78.4535 105.497 80.0027 103.579 80.0027C101.661 80.0027 100.112 78.5272 100.038 76.6091V65.9119C101.956 65.9119 105.718 65.543 108.227 63.1822C109.555 61.9281 110.366 60.3788 110.661 58.4607C110.735 58.0918 110.735 57.7967 110.735 57.4278C110.735 57.354 110.735 57.2803 110.735 57.2065V55.1408ZM100.038 49.9766C100.112 48.0585 101.661 46.583 103.579 46.583C105.497 46.583 107.046 48.0585 107.12 50.0504V57.4278C107.12 58.8295 106.677 59.8624 105.792 60.6001C104.243 62.0018 101.587 62.3707 99.964 62.3707V49.9766H100.038Z" fill="white"/>
</svg>
