<svg width="128" height="128" viewBox="0 0 128 128" fill="none" xmlns="http://www.w3.org/2000/svg">
<path d="M26.4363 26.0011C24.9214 26.0116 23.3544 26.0984 21.9206 26.2602C16.4992 26.8717 11.9669 28.5944 8.51606 31.3543C5.96645 33.3934 3.92603 35.9386 2.73548 38.5682C1.69106 40.875 1.06123 43.3283 0.810064 46.0842C0.740438 46.8482 0.719655 48.7206 0.77121 49.5379C1.10937 54.8985 3.06366 59.5438 6.42659 62.9899C8.681 65.3001 11.5751 67.4054 14.56 68.9C16.4631 69.8529 18.0563 70.4629 21.4932 71.555C22.6039 71.9079 23.8285 72.3043 24.213 72.4357C27.013 73.3928 28.86 74.2999 30.0842 75.3195C30.6542 75.7942 30.9444 76.1469 31.3707 76.8909C31.9187 77.8474 32.0759 78.3481 32.1046 79.2135C32.1578 80.8196 31.666 82.1282 30.6195 83.1723C29.9593 83.831 29.1794 84.249 28.2322 84.4545C27.7938 84.5495 26.8595 84.5691 26.3974 84.4933C25.6476 84.3703 24.8384 84.0456 24.2 83.6083C23.8295 83.3545 23.2395 82.7928 22.9912 82.4556C22.4362 81.7019 21.9273 80.482 21.6918 79.3473C21.5148 78.4946 21.4932 78.2514 21.4932 77.0636V75.9282H0.0373058L0.0114034 76.0318C-0.0227507 76.1679 0.0259901 78.4071 0.0761597 79.0538C0.23195 81.0619 0.424502 82.3296 0.814381 83.8889C1.45415 86.4476 2.42304 88.7537 3.75432 90.8783C5.34862 93.4227 7.59962 95.7184 10.1738 97.4316C14.246 100.142 19.319 101.701 25.2404 102.06C26.0158 102.107 28.4071 102.105 29.0913 102.06C37.2475 101.514 44.4078 97.6353 48.9197 91.3143C49.4283 90.6017 50.1266 89.488 50.4436 88.8881L50.6767 88.4521V100.626H78.1333V92.5101V84.394H89.6168L101.1 84.3897L100.811 84.2904C99.7303 83.9224 98.9312 83.2455 98.2812 82.1491L98.0437 81.7519H88.0886H78.1333V80.2755V78.7991H87.6914H97.2494L97.2235 78.5789C97.2103 78.4561 97.1899 77.9203 97.176 77.3917L97.1501 76.4333H87.6396H78.1333V66.2882C78.1361 57.2072 78.1458 56.1593 78.1981 56.3071L78.2542 56.4711H92.7467H107.239L106.402 56.1257C104.788 55.4657 103.393 54.8036 102.313 54.1831L101.7 53.8291H89.9147H78.1333V52.3569V50.8805H88.2699H98.4064L98.333 50.7726C98.2144 50.6047 97.9961 50.1478 97.884 49.8358C97.753 49.471 97.6638 48.9725 97.6638 48.5838V48.2773H85.5242H73.3846L73.7299 47.919C75.1768 46.4055 76.2747 44.3282 76.7303 42.2377C76.9566 41.1993 76.9863 40.8749 76.985 39.5784C76.9837 38.2958 76.943 37.9054 76.713 36.8802C76.0414 33.8856 74.1668 31.1867 71.5671 29.4634C68.7198 27.5761 65.243 26.9722 61.9141 27.7927C57.3775 28.9109 53.8691 32.5636 52.9259 37.1478C52.7481 38.0122 52.6885 38.6438 52.6885 39.5999C52.6884 40.5273 52.7406 41.1212 52.9086 41.983C53.3425 44.2082 54.4377 46.3266 56.0213 48.0053L56.276 48.2773H54.493H52.71L52.641 47.7031C52.466 46.2391 52.0972 44.3753 51.7258 43.0882C50.975 40.4867 49.5177 37.5861 47.849 35.3649C43.6118 29.7247 37.2387 26.5687 29.0654 26.0659C28.2353 26.0148 27.3452 25.9948 26.4363 26.0011ZM102.059 26.912C101.838 26.9141 101.618 26.9194 101.394 26.925C98.8611 26.9879 96.5167 27.3196 94.2274 27.9352C93.2547 28.1968 91.3966 28.8339 91.0242 29.036C90.9422 29.0805 92.7375 29.0922 102.521 29.0922C112.903 29.0922 114.101 29.0845 114.004 29.0317C113.653 28.8417 112.009 28.2672 111.025 27.9913C108.341 27.2386 105.372 26.8804 102.059 26.912ZM26.5658 28.4878C28.4306 28.4852 30.2663 28.6133 31.9406 28.8806C35.8048 29.4976 39.1442 30.8491 41.9087 32.9085C44.8711 35.1153 47.1461 38.1435 48.6779 41.9139C49.3426 43.5499 49.8111 45.3874 50.1068 47.5218C50.1601 47.9062 50.2182 48.3436 50.232 48.4931C50.2459 48.6427 50.2648 48.7925 50.2752 48.8299L34.7639 48.8989L34.7164 48.519C34.5958 47.5362 34.2908 46.305 33.9523 45.4453C32.8807 42.723 30.8958 40.9683 28.2495 40.4072C27.6754 40.2855 26.5338 40.2392 25.9053 40.3123C23.5093 40.5908 21.3467 42.0901 20.2154 44.2494C19.6619 45.3059 19.4221 46.2295 19.3865 47.4657C19.3467 48.8454 19.5653 49.8923 20.1376 51.0748C20.8861 52.621 22.1611 53.9759 24.0187 55.2062C25.0374 55.8809 26.1904 56.5083 27.4724 57.0755C28.527 57.5422 32.8937 59.2475 36.2317 60.499C38.3856 61.3065 38.7338 61.4501 39.7847 61.9754C42.2642 63.2147 44.2869 64.6331 45.9409 66.2925C47.2645 67.6204 48.0408 68.7867 48.9067 70.7391C49.886 72.9472 50.2912 74.9763 50.3529 77.9875C50.4067 80.6089 50.0898 82.87 49.3514 85.1322C48.6684 87.2245 47.5091 89.2347 45.807 91.2841C45.3012 91.8931 43.7207 93.4704 43.1045 93.9823C41.6668 95.1767 40.2419 96.1152 38.5802 96.9567C35.7978 98.3657 32.9667 99.1793 29.6655 99.5211C29.1002 99.5796 26.2614 99.634 25.7844 99.5945C25.6883 99.5865 25.3209 99.561 24.9685 99.5383C22.7087 99.3934 20.2996 98.9767 18.2122 98.3727C15.4333 97.5687 12.8228 96.2996 10.6962 94.7162C9.26035 93.6471 7.72391 92.1056 6.67266 90.684C4.55976 87.8267 3.17802 84.3289 2.73548 80.7029C2.65844 80.0717 2.56343 78.9195 2.5628 78.635V78.4148L19.0282 78.4623C19.0299 78.5823 19.1523 79.3616 19.2267 79.7316C19.505 81.1148 20.1109 82.6354 20.7809 83.6342C22.0057 85.4601 24.1406 86.7604 26.3758 87.0361C26.8594 87.0957 28.0136 87.065 28.4826 86.9799C28.9799 86.8897 29.5055 86.7365 29.9979 86.5396C32.7943 85.4212 34.6005 82.6296 34.5999 79.4294C34.5997 78.4647 34.4615 77.7269 34.1336 76.9039C33.3184 74.8575 31.9948 73.3738 29.9202 72.181C28.2662 71.23 26.5541 70.5434 23.0258 69.418C18.955 68.1196 17.4595 67.5553 15.4363 66.5429C12.9168 65.2821 10.4739 63.5183 8.44267 61.5005C5.65153 58.7278 3.87667 54.9228 3.36146 50.6085C3.1632 48.9483 3.16689 47.0765 3.37873 45.3633C3.76568 42.2338 4.82006 39.3988 6.43522 37.1349C9.45948 32.8959 13.7031 30.3056 19.5117 29.1526C21.7206 28.7141 24.1681 28.4911 26.5658 28.4878ZM63.1876 29.934C63.8074 29.934 64.3101 30.4465 64.3101 31.0737C64.3101 31.7009 63.8074 32.2091 63.1876 32.2091C62.5678 32.2091 62.0652 31.7009 62.0652 31.0737C62.0652 30.4465 62.5678 29.934 63.1876 29.934ZM66.5895 29.934C67.2093 29.934 67.7119 30.4465 67.7119 31.0737C67.7119 31.7009 67.2093 32.2091 66.5895 32.2091C65.9697 32.2091 65.467 31.7009 65.467 31.0737C65.467 30.4465 65.9697 29.934 66.5895 29.934ZM25.7628 30.7327C25.3128 30.7365 24.9153 30.7436 24.6317 30.7586C20.5603 30.973 17.4209 31.7046 14.6765 33.0768C12.2437 34.2933 10.3623 35.9245 8.71896 38.2357C7.25631 40.2929 6.33081 42.8409 6.00352 45.7129C5.37073 51.2657 7.04918 56.6832 10.4544 60.0543C12.3147 61.8959 14.4481 63.4397 16.7531 64.6088C18.4779 65.4837 19.708 65.9587 23.4748 67.212C26.9426 68.3658 27.8284 68.6863 29.169 69.2799C31.4577 70.2933 33.2531 71.4878 34.4186 72.7724C35.0854 73.5074 35.6101 74.3004 36.154 75.4015C36.821 76.7517 37.0723 77.7364 37.1124 79.1531C37.1598 80.8244 36.8417 82.2968 36.1109 83.7723C35.0258 85.963 33.2267 87.6237 30.9304 88.56C29.0938 89.3088 26.9387 89.4814 25.0073 89.0306C22.9531 88.5511 21.0402 87.4716 19.5894 85.9784C18.3556 84.7086 17.7019 83.4756 17.12 81.3073C17.034 80.9869 16.9558 80.6994 16.9473 80.6727L5.42503 80.6252L5.45093 80.8885C5.5372 81.7662 5.85982 83.1572 6.24959 84.3249C6.81998 86.0338 7.48982 87.4054 8.44699 88.8406C9.72289 90.7537 11.2861 92.3135 13.2389 93.6153C14.1066 94.1937 14.6675 94.5116 15.5918 94.9579C18.4333 96.33 21.7574 97.1331 25.5297 97.3582C26.3225 97.4055 28.1645 97.4081 28.7934 97.3625C31.7468 97.1486 34.3686 96.4639 36.8707 95.2515C39.8695 93.7984 42.3685 91.7455 44.3435 89.1126C45.8897 87.0515 46.76 85.177 47.2921 82.7622C47.5881 81.4186 47.6895 80.5017 47.7152 78.8897C47.7712 75.3679 47.3339 73.2686 45.9754 70.5318C45.4574 69.4884 44.8361 68.6477 43.8816 67.6955C42.61 66.4271 40.9971 65.2552 39.0724 64.203C38.0174 63.6263 37.3073 63.3112 35.6273 62.6834C33.5538 61.9085 30.1485 60.571 27.74 59.5837C25.3567 58.6068 23.6888 57.7241 22.1106 56.6049C19.7395 54.9236 18.1174 52.9205 17.3834 50.7726C17.0196 49.7082 16.8758 48.8623 16.8739 47.7161C16.8722 46.6256 17.0083 45.7603 17.3229 44.8193C18.4611 41.4151 21.4318 38.8627 25.0246 38.2012C27.1547 37.809 29.3261 38.1324 31.3362 39.138C32.9959 39.9684 34.2828 41.1009 35.2906 42.6219C35.9525 43.6209 36.4538 44.8104 36.8318 46.2698L36.9397 46.6843C40.3911 46.6415 43.8455 46.7467 47.2964 46.667C47.2964 46.5698 47.029 45.2957 46.9036 44.802C46.3132 42.4782 45.0199 39.801 43.5578 37.8731C42.1766 36.0518 40.4582 34.5204 38.5846 33.4438C36.0507 31.9878 33.2436 31.1701 29.5877 30.819C28.9372 30.7565 27.1129 30.7211 25.7628 30.7327ZM86.0336 31.8896L85.6839 32.1702C84.9002 32.7974 83.9402 33.6798 83.4563 34.2165L83.1714 34.5317H102.421H121.671L121.589 34.4194C121.349 34.0815 119.855 32.6547 119.128 32.071L118.9 31.8896H102.469H86.0336ZM59.7858 33.5431C60.4056 33.5431 60.9082 34.0556 60.9082 34.6828C60.9082 35.31 60.4056 35.8182 59.7858 35.8182C59.1659 35.8182 58.6633 35.31 58.6633 34.6828C58.6633 34.0556 59.1659 33.5431 59.7858 33.5431ZM63.1876 33.5431C63.8074 33.5431 64.3101 34.0556 64.3101 34.6828C64.3101 35.31 63.8074 35.8182 63.1876 35.8182C62.5678 35.8182 62.0652 35.31 62.0652 34.6828C62.0652 34.0556 62.5678 33.5431 63.1876 33.5431ZM66.5895 33.5431C67.2093 33.5431 67.7119 34.0556 67.7119 34.6828C67.7119 35.31 67.2093 35.8182 66.5895 35.8182C65.9697 35.8182 65.467 35.31 65.467 34.6828C65.467 34.0556 65.9697 33.5431 66.5895 33.5431ZM69.9913 33.5431C70.6111 33.5431 71.1138 34.0556 71.1138 34.6828C71.1138 35.31 70.6111 35.8182 69.9913 35.8182C69.3715 35.8182 68.8646 35.31 68.8646 34.6828C68.8646 34.0556 69.3715 33.5431 69.9913 33.5431ZM56.3839 37.1522C57.0037 37.1522 57.5063 37.6604 57.5063 38.2876C57.5063 38.9147 57.0037 39.4273 56.3839 39.4273C55.7641 39.4273 55.2614 38.9147 55.2614 38.2876C55.2614 37.6604 55.7641 37.1522 56.3839 37.1522ZM59.7858 37.1522C60.4056 37.1522 60.9082 37.6604 60.9082 38.2876C60.9082 38.9147 60.4056 39.4273 59.7858 39.4273C59.1659 39.4273 58.6633 38.9147 58.6633 38.2876C58.6633 37.6604 59.1659 37.1522 59.7858 37.1522ZM63.1876 37.1522C63.8074 37.1522 64.3101 37.6604 64.3101 38.2876C64.3101 38.9147 63.8074 39.4273 63.1876 39.4273C62.5678 39.4273 62.0652 38.9147 62.0652 38.2876C62.0652 37.6604 62.5678 37.1522 63.1876 37.1522ZM66.5895 37.1522C67.2093 37.1522 67.7119 37.6604 67.7119 38.2876C67.7119 38.9147 67.2093 39.4273 66.5895 39.4273C65.9697 39.4273 65.467 38.9147 65.467 38.2876C65.467 37.6604 65.9697 37.1522 66.5895 37.1522ZM69.9913 37.1522C70.6111 37.1522 71.1138 37.6604 71.1138 38.2876C71.1138 38.9147 70.6111 39.4273 69.9913 39.4273C69.3715 39.4273 68.8646 38.9147 68.8646 38.2876C68.8646 37.6604 69.3715 37.1522 69.9913 37.1522ZM73.3889 37.1522C74.0087 37.1522 74.5113 37.6604 74.5113 38.2876C74.5113 38.9147 74.0087 39.4273 73.3889 39.4273C72.7691 39.4273 72.2664 38.9147 72.2664 38.2876C72.2664 37.6604 72.7691 37.1522 73.3889 37.1522ZM80.9826 37.3637L80.6545 37.9206C80.3525 38.4304 79.5734 39.9081 79.5709 39.9755C79.5704 39.9916 89.8451 40.0058 102.404 40.0058C114.963 40.0058 125.237 39.9951 125.237 39.9842C125.237 39.8948 124.434 38.4003 123.951 37.5882L123.821 37.368H102.4L80.9826 37.3637ZM56.3839 40.7612C57.0037 40.7612 57.5063 41.2694 57.5063 41.8966C57.5063 42.5238 57.0037 43.032 56.3839 43.032C55.7641 43.032 55.2614 42.5238 55.2614 41.8966C55.2614 41.2694 55.7641 40.7612 56.3839 40.7612ZM59.7858 40.7612C60.4056 40.7612 60.9082 41.2694 60.9082 41.8966C60.9082 42.5238 60.4056 43.032 59.7858 43.032C59.1659 43.032 58.6633 42.5238 58.6633 41.8966C58.6633 41.2694 59.1659 40.7612 59.7858 40.7612ZM63.1876 40.7612C63.8074 40.7612 64.3101 41.2694 64.3101 41.8966C64.3101 42.5238 63.8074 43.032 63.1876 43.032C62.5678 43.032 62.0652 42.5238 62.0652 41.8966C62.0652 41.2694 62.5678 40.7612 63.1876 40.7612ZM66.5895 40.7612C67.2093 40.7612 67.7119 41.2694 67.7119 41.8966C67.7119 42.5238 67.2093 43.032 66.5895 43.032C65.9697 43.032 65.467 42.5238 65.467 41.8966C65.467 41.2694 65.9697 40.7612 66.5895 40.7612ZM69.9913 40.7612C70.6111 40.7612 71.1138 41.2694 71.1138 41.8966C71.1138 42.5238 70.6111 43.032 69.9913 43.032C69.3715 43.032 68.8646 42.5238 68.8646 41.8966C68.8646 41.2694 69.3715 40.7612 69.9913 40.7612ZM73.3889 40.7612C74.0087 40.7612 74.5113 41.2694 74.5113 41.8966C74.5113 42.5238 74.0087 43.032 73.3889 43.032C72.7691 43.032 72.2664 42.5238 72.2664 41.8966C72.2664 41.2694 72.7691 40.7612 73.3889 40.7612ZM26.7946 42.7644C27.6052 42.7644 28.2713 42.9185 28.9704 43.2695C30.7395 44.1577 31.8227 45.9455 32.2384 48.6658C32.311 49.1405 32.3227 49.3979 32.3248 50.3063L32.3291 51.3856H50.6767C50.6518 57.1329 50.7138 62.8808 50.6638 68.628C50.6572 68.628 50.5793 68.4739 50.4911 68.287C50.4029 68.1001 50.2014 67.7294 50.0421 67.4624C48.3059 64.5528 44.9999 61.7837 40.7345 59.6744C39.7035 59.1646 38.988 58.8656 37.6477 58.375C34.5165 57.2287 29.5008 55.2714 28.284 54.7227C26.2395 53.8009 24.5704 52.7189 23.5438 51.6446C22.3873 50.4343 21.8602 49.2105 21.8602 47.7333C21.8602 46.4886 22.2431 45.4375 23.0344 44.4955C23.9816 43.3679 25.2941 42.7644 26.7946 42.7644ZM126.39 42.8032L102.426 42.8119L78.4658 42.8205L78.3578 43.1702C78.2448 43.5322 77.9392 44.723 77.8441 45.1819L77.7923 45.441H88.0929H98.3891L98.5791 45.1431C98.8031 44.788 99.3702 44.1997 99.7145 43.9688C100.539 43.416 101.505 43.155 102.521 43.2047C103.676 43.2613 104.677 43.6653 105.594 44.448C105.873 44.6861 106.286 45.1299 106.428 45.346L106.488 45.441H116.814C125.193 45.441 127.141 45.4339 127.141 45.3935C127.141 45.2976 126.828 44.1729 126.61 43.4896L126.39 42.8032ZM59.7858 44.3703C60.4056 44.3703 60.9082 44.8785 60.9082 45.5057C60.9082 46.1329 60.4056 46.6411 59.7858 46.6411C59.1659 46.6411 58.6633 46.1329 58.6633 45.5057C58.6633 44.8785 59.1659 44.3703 59.7858 44.3703ZM63.1876 44.3703C63.8074 44.3703 64.3101 44.8785 64.3101 45.5057C64.3101 46.1329 63.8074 46.6411 63.1876 46.6411C62.5678 46.6411 62.0652 46.1329 62.0652 45.5057C62.0652 44.8785 62.5678 44.3703 63.1876 44.3703ZM66.5895 44.3703C67.2093 44.3703 67.7119 44.8785 67.7119 45.5057C67.7119 46.1329 67.2093 46.6411 66.5895 46.6411C65.9697 46.6411 65.467 46.1329 65.467 45.5057C65.467 44.8785 65.9697 44.3703 66.5895 44.3703ZM69.9913 44.3703C70.6111 44.3703 71.1138 44.8785 71.1138 45.5057C71.1138 46.1329 70.6111 46.6411 69.9913 46.6411C69.3715 46.6411 68.8646 46.1329 68.8646 45.5057C68.8646 44.8785 69.3715 44.3703 69.9913 44.3703ZM107.692 48.2773L107.731 48.4413C107.824 48.8558 107.882 49.4463 107.904 50.1336L107.93 50.8805H128L127.974 50.561C127.94 50.1302 127.767 48.5499 127.737 48.3982L127.715 48.2773H107.692ZM53.1633 50.5308H75.7633V98.1396H53.1633V50.5308ZM73.8206 52.7066L55.2399 52.7239L55.2183 95.8084H73.8206V52.7066ZM115.623 59.424L97.6379 59.4326L79.6573 59.4413L79.9681 59.9291C80.3701 60.5572 80.6556 60.9565 81.138 61.5653L81.5309 62.0617H100.828H120.13L119.858 61.8675C118.871 61.1477 117.764 60.4827 116.517 59.8643L115.623 59.424ZM103.902 65.0146L84.5572 65.0189L84.6953 65.1355C85.2221 65.5956 86.5103 66.5352 87.5014 67.1775L88.244 67.6567H106.687H125.129L125.021 67.471C124.675 66.8706 123.884 65.7535 123.441 65.2391L123.251 65.0146H103.902ZM126.545 70.6052L110.33 70.6096H94.1109L94.6764 70.8427C96.2355 71.4882 98.4183 72.2545 100.483 72.8803L101.683 73.243L114.492 73.2473C127.092 73.2491 127.296 73.2473 127.296 73.1739C127.296 73.0099 127.026 72.045 126.744 71.201L126.545 70.6052ZM106.669 76.2002L106.751 76.3254C106.927 76.5886 107.297 77.3971 107.395 77.7327C107.45 77.925 107.514 78.2224 107.537 78.3933C107.56 78.5641 107.581 78.7249 107.589 78.7516C107.6 78.7902 109.66 78.7991 117.721 78.7991H127.84V77.9357C127.84 77.4604 127.828 76.8765 127.814 76.6362L127.788 76.2002H117.229H106.669ZM107.041 81.7519L106.95 81.9376C106.767 82.3158 106.35 82.8934 106.009 83.2457C105.51 83.7612 105.015 84.0922 104.424 84.299L104.17 84.3897H115.571L126.977 84.394L127.02 84.23C127.26 83.3313 127.568 81.9497 127.568 81.7692C127.568 81.7599 122.947 81.7519 117.302 81.7519H107.041ZM78.5219 87.3642C78.5219 87.4463 79.287 88.897 79.6961 89.5875L79.9336 89.9846H124.348L124.564 89.6522C124.96 89.0378 125.82 87.47 125.82 87.3642C110.054 87.3685 94.2875 87.2801 78.5219 87.3642ZM82.1396 92.9721C82.1467 92.9917 82.3938 93.267 82.6879 93.5851C83.2324 94.1739 83.7915 94.7174 84.4277 95.2687L84.786 95.5753H119.137L119.526 95.2644C120.103 94.7997 120.918 94.0585 121.507 93.4642L122.034 92.9375C108.737 93.0341 95.436 92.7968 82.1396 92.9721ZM89.5995 98.5929C89.8285 98.717 90.9013 99.1586 91.5034 99.3786C93.9846 100.285 96.8236 100.861 99.7231 101.049C100.076 101.072 100.454 101.098 100.561 101.105C100.667 101.113 101.555 101.116 102.538 101.11C104.324 101.098 104.803 101.072 106.035 100.915C108.111 100.651 110.297 100.115 112.225 99.3959C112.907 99.1419 113.873 98.7415 114.129 98.6059L89.5995 98.5929Z" fill="url(#paint0_linear_5027_5433)"/>
<defs>
<linearGradient id="paint0_linear_5027_5433" x1="64" y1="26" x2="64" y2="102.094" gradientUnits="userSpaceOnUse">
<stop stop-color="#04AA5F"/>
<stop offset="0.333333" stop-color="#AEFAD7"/>
<stop offset="0.666667" stop-color="#15AD68"/>
<stop offset="1" stop-color="#01874A"/>
</linearGradient>
</defs>
</svg>
