<svg width="128" height="128" viewBox="0 0 128 128" fill="none" xmlns="http://www.w3.org/2000/svg">
<path d="M0 40V45.9597H2.31974C3.51086 45.9597 4.63522 47.3448 4.63522 48.4175V79.3876C4.63522 80.4603 3.51086 81.8446 2.31974 81.8446H0V87.8031H20.1026C32.6168 87.8031 39.5078 82.9022 39.5078 74.0002C39.5078 67.7441 35.6111 63.7108 27.8753 62.5883C34.5911 61.3146 37.7087 57.7592 37.7087 52.0663C37.7087 43.9424 31.7673 40 19.5447 40H0ZM87.9836 40.0004V78.4404C87.9836 79.2235 88.0234 79.9442 88.0941 80.6178C87.91 80.6964 85.1115 81.8388 82.4388 81.8388C79.3162 81.8388 77.7996 80.8367 77.7996 77.2206L77.7989 52.3207H63.4965V58.1578L68.0441 58.1586V80.6089C68.0441 80.6089 63.2734 81.8388 60.6324 81.8388C57.5745 81.8388 54.7437 80.4723 54.7437 75.5616V52.3207H40.5717V58.3847H42.7828C43.8376 58.3847 44.996 59.5438 44.996 60.5986L44.9998 78.3342C44.9998 85.2719 48.6616 88.6453 56.1546 88.6453C62.6993 88.6453 69.4839 85.1495 69.7117 85.0848C71.3457 87.4869 74.0555 88.6441 77.2626 88.6441C82.8192 88.6451 87.8241 86.2122 89.5108 85.0937C90.5695 86.659 92.4475 88.6441 97.204 88.6441C102.767 88.6441 107.763 86.2081 109.444 85.0906C111.14 87.8181 114.095 88.6441 117.47 88.6441C122.981 88.6441 127.357 86.1781 128 85.8955V80.6097C128 80.6097 125.087 81.8388 122.325 81.8388C119.202 81.8388 117.686 80.8368 117.686 77.2206L117.685 45.703C117.685 40.8341 117.124 40.0004 113.723 40.0004H107.928V78.4404C107.928 79.2186 107.967 79.94 108.042 80.6097C108.042 80.6097 105.147 81.8388 102.38 81.8388C99.2589 81.8388 97.7421 80.8368 97.7421 77.2206L97.7413 45.703C97.7413 40.8341 97.18 40.0004 93.7788 40.0004L87.9836 40.0004ZM14.6935 46.0752H19.271C25.1619 46.0752 27.6772 48.4673 27.6772 53.0756C27.6772 57.6828 25.0833 60.0759 19.271 60.0759H14.6935V46.0752ZM14.6935 66.0383H19.3974C26.4535 66.0383 28.3224 68.7353 28.3224 73.7924C28.3224 78.8494 26.4535 81.5459 19.3974 81.5449H14.6935V66.0383Z" fill="url(#paint0_linear_5027_9787)"/>
<defs>
<linearGradient id="paint0_linear_5027_9787" x1="64" y1="40" x2="64" y2="88.6453" gradientUnits="userSpaceOnUse">
<stop stop-color="#008ADA"/>
<stop offset="0.520833" stop-color="#7CADC9"/>
<stop offset="0.546875" stop-color="#0781C8"/>
<stop offset="1" stop-color="#0066A1"/>
</linearGradient>
</defs>
</svg>
