<svg width="128" height="128" viewBox="0 0 128 128" fill="none" xmlns="http://www.w3.org/2000/svg">
<g clip-path="url(#clip0_5027_4649)">
<path fill-rule="evenodd" clip-rule="evenodd" d="M72.4031 55.1365C64.4203 35.4035 45.9732 32.0755 33.1643 38.1153C22.9129 42.9491 17.0176 54.198 17.4662 64.7713C17.6633 69.4228 19.0523 82.4464 32.8641 89.0828C47.416 96.0748 72.4244 89.8748 73.5538 63.1941L43.1959 62.6467L43.1653 71.7117L57.6608 71.0774C49.6529 93.1151 18.2305 83.9209 20.0166 62.9554C22.1678 37.7016 51.807 40.3493 57.4387 55.1365H72.4031ZM101.756 63.7702C101.756 37.9595 80.9358 17.036 55.2525 17.036C29.5689 17.036 8.74894 37.9595 8.74894 63.7702C8.74894 89.5805 29.5689 110.504 55.2525 110.504C80.9358 110.504 101.756 89.5805 101.756 63.7702ZM49.2669 27.1658C71.6542 27.592 85.4108 43.8629 85.641 64.4608C85.8709 85.0583 70.0464 101.065 49.9576 101.065C29.8688 101.065 11.7417 84.8281 11.7417 64.2306C11.7417 43.6327 26.8793 26.7397 49.2669 27.1658ZM59.3957 8.52167C90.1647 8.52167 115.108 33.3603 115.108 64C115.108 94.6397 90.1647 119.478 59.3957 119.478C28.6267 119.478 3.68345 94.6397 3.68345 64C3.68345 33.3603 28.6267 8.52167 59.3957 8.52167ZM0 64C0 99.3464 28.6536 128 64 128C99.3464 128 128 99.3464 128 64C128 28.6536 99.3464 0 64 0C28.6536 0 0 28.6536 0 64Z" fill="url(#paint0_linear_5027_4649)"/>
</g>
<defs>
<linearGradient id="paint0_linear_5027_4649" x1="64.05" y1="128.026" x2="64.05" y2="-0.0259963" gradientUnits="userSpaceOnUse">
<stop stop-color="#808080"/>
<stop offset="0.333333" stop-color="#B3B3B3"/>
<stop offset="0.666667" stop-color="#F2F2F2"/>
<stop offset="1" stop-color="#B3B3B3"/>
</linearGradient>
<clipPath id="clip0_5027_4649">
<rect width="128" height="128" fill="white"/>
</clipPath>
</defs>
</svg>
