<svg width="128" height="128" viewBox="0 0 128 128" fill="none" xmlns="http://www.w3.org/2000/svg">
<path d="M48.5157 66.0746C48.9453 65.2481 48.8198 63.8809 48.8198 63.8809C48.3446 64.2864 46.0252 64.4834 45.664 64.5143C45.1698 64.549 44.626 64.6147 43.1356 64.6688C42.8466 64.6765 41.687 64.522 41.0064 65.5146C40.6528 66.0321 40.7364 66.7428 40.9494 67.2178C41.1775 67.7199 41.6718 68.0443 42.3942 68.2992C43.3143 68.6159 44.55 68.4846 45.8161 68.2181C47.4701 67.7971 48.2495 66.5844 48.5157 66.0746ZM33.9153 60.6676V64.8812C34.5313 63.6492 35.3602 63.0853 36.6529 62.506C38.7441 61.6177 42.2003 61.3396 42.7554 61.3087C44.8998 61.1851 46.7134 61.3087 47.8921 61.3087C49.0708 61.3087 48.8921 60.2389 48.6145 59.7407C48.2305 59.0532 47.2229 58.47 46.5195 58.3348C45.3066 58.0954 44.5614 58.0799 43.6869 58.1958C41.8809 58.4275 41.3676 59.2926 41.1775 59.5476C40.8049 60.0535 40.7973 60.6676 40.7973 60.6676H33.9153ZM84.1876 72.4124C82.7276 72.4124 81.4348 71.9721 80.5641 71.1997C79.6934 70.4272 79.7315 69.4192 79.7315 69.4192V65.0164V60.0728H76.6935V58.7211L72.3325 62.9501H70.2489C70.2489 62.9501 69.401 62.9308 68.8154 63.0312C67.9561 63.178 67.7356 63.4136 67.7356 63.4136C67.7356 63.4136 67.9561 63.653 68.8154 63.7959C69.401 63.8963 70.2489 63.8809 70.2489 63.8809H72.5226L87.6514 78.5494H78.3247L67.7356 68.3031L67.7318 66.4338C67.7318 66.4338 67.7508 65.5764 67.652 64.9816C67.5075 64.1088 67.2756 63.8809 67.2756 63.8809C67.2756 63.8809 67.0398 64.1088 66.8991 64.9816C66.8003 65.5764 66.8155 66.4338 66.8155 66.4338V68.3031L56.2227 78.5494H46.8959L53.2266 72.4124H48.8198V69.9561C48.8198 69.9561 45.6146 72.9763 41.109 72.9145C36.5616 72.845 33.9153 70.0372 33.9153 70.0372V72.4124H25.9688V59.3004L19.9614 72.4124H13.954L7.94653 59.3004V72.4124H0V49H10.3989L16.9577 64.0122L23.5164 49H33.9153V59.7793C33.9153 59.7793 34.4667 57.4234 37.2232 55.8785C39.7136 54.5267 43.1546 54.5113 43.4398 54.5113C44.1812 54.5113 47.0861 54.2912 50.3559 54.8319C51.7057 55.0443 53.257 55.4421 54.1125 55.9635C54.6828 56.2724 56.139 57.2689 56.2151 58.9489V69.5158L62.0286 63.8809H64.3023C64.3023 63.8809 65.1463 63.8963 65.7319 63.7959C66.5912 63.653 66.8155 63.4136 66.8155 63.4136C66.8155 63.4136 66.5912 63.178 65.7319 63.0312C65.1463 62.9308 64.3023 62.9501 64.3023 62.9501H62.2187L54.4737 55.4382H63.8308L66.8155 58.3271V60.3934C66.8155 60.3934 66.8003 61.2546 66.8991 61.8455C67.0398 62.7184 67.2756 62.9462 67.2756 62.9462C67.2756 62.9462 67.5075 62.7184 67.652 61.8455C67.7508 61.2546 67.7318 60.3934 67.7318 60.3934V58.3271L70.7165 55.4382H76.6935H79.7315V50.1973H87.043V55.4382H90.0734V60.0728H87.043V67.0286C87.043 67.0286 87.043 67.7546 87.3054 68.0366C87.5525 68.3069 87.9327 68.3031 87.9327 68.3031H90.0696V72.4124H84.1876ZM97.2861 63.9272C97.2861 66.5767 99.4875 68.7279 102.206 68.7279C104.925 68.7279 107.13 66.5767 107.13 63.9272C107.13 61.2778 104.925 59.1304 102.206 59.1304C99.4875 59.1304 97.2861 61.2778 97.2861 63.9272ZM114.084 55.4537H121.917V57.91C122.62 56.9445 123.437 56.4385 124.217 55.9557C125.072 55.4382 126.46 54.8203 128 54.743V61.9846C128 61.9846 126.821 61.6717 124.844 62.0386C123.894 62.197 122.563 62.5832 121.917 63.4136V72.4124H114.084V67.7508C112.061 71.0452 107.506 73.347 102.206 73.347C95.0314 73.347 89.2179 69.1296 89.2179 63.9272C89.2179 58.7249 95.0314 54.5113 102.206 54.5113C107.506 54.5113 112.061 56.8093 114.084 60.1076V55.4537Z" fill="url(#paint0_linear_5027_10309)"/>
<defs>
<linearGradient id="paint0_linear_5027_10309" x1="64" y1="49" x2="64" y2="78.5494" gradientUnits="userSpaceOnUse">
<stop stop-color="#025EB6"/>
<stop offset="0.515625" stop-color="#5587B7"/>
<stop offset="0.546875" stop-color="#0152A1"/>
<stop offset="1" stop-color="#004B93"/>
</linearGradient>
</defs>
</svg>
