<svg width="128" height="128" viewBox="0 0 128 128" fill="none" xmlns="http://www.w3.org/2000/svg">
<g clip-path="url(#clip0_5027_9050)">
<path d="M5.97303 51.031H21.3352V48.9399H6.80996C3.64126 48.9399 3.76035 51.2734 3.76035 51.2734V66.6914C3.76035 69.6219 6.51017 69.4412 6.51017 69.4412H21.3352V67.2885H5.97303V51.031Z" fill="#0E88D3"/>
<path d="M1.85043 65.9125V52.3441C1.85043 46.9702 6.45568 47.031 6.45568 47.031H21.339V45.3513H6.03679C0.299799 45.3513 0 51.2723 0 51.2723V66.991C0 73.5674 6.21667 73.3309 6.21667 73.3309H21.339V71.1757H7.34924C1.07345 71.1757 1.85043 65.9125 1.85043 65.9125Z" fill="#0E88D3"/>
<path d="M54.7803 59.0339V67.0968C54.7803 69.581 57.5809 69.5027 57.5809 69.5027H69.4321V67.5232H57.1287V59.1972H69.4321V57.0161H57.745C54.8194 57.0161 54.7803 59.0339 54.7803 59.0339Z" fill="#0E88D3"/>
<path d="M53.1306 67.8531V58.9948C53.1306 56.0243 56.6341 55.1624 56.6341 55.1624H69.2814V53.063H57.6192C51.6866 53.063 50.9062 58.2945 50.9062 58.2945V67.8106C50.9062 72.0544 55.7247 73.4285 55.7247 73.4285H69.2814V71.5223H57.949C53.4995 71.5223 53.1306 67.8531 53.1306 67.8531Z" fill="#0E88D3"/>
<path d="M23.5918 73.5408H25.9819V45.1482H23.5918V73.5408Z" fill="#0E88D3"/>
<path d="M35.8612 52.8464H30.0218V45H27.665V54.8675H34.0624C34.0624 54.8675 38.835 54.8675 38.835 58.854V73.3893H41.1935V58.1787C41.1935 58.1787 40.3524 52.8464 35.8612 52.8464Z" fill="#0E88D3"/>
<path d="M33.5449 57.2769H27.6514V73.3885H29.8982V59.582H34.9506V73.3885H37.0792V60.593C37.0792 57.2769 33.5449 57.2769 33.5449 57.2769Z" fill="#0E88D3"/>
<path d="M46.5889 51.6638H48.889V46.1084H46.5889V51.6638Z" fill="#0E88D3"/>
<path d="M46.5889 73.391H48.889V53.1829H46.5889V73.391Z" fill="#0E88D3"/>
<path d="M42.6777 51.6638H44.9812V46.1084H42.6777V51.6638Z" fill="#0E88D3"/>
<path d="M42.6777 73.3907H44.9812V53.1826H42.6777V73.3907Z" fill="#0E88D3"/>
<path d="M86.5784 67.8531C86.5784 67.8531 86.2086 71.5223 81.7549 71.5223H78.0308C73.5838 71.5223 73.2123 67.8531 73.2123 67.8531V58.9948C73.2123 56.0243 76.715 55.1624 76.715 55.1624H83.0741C83.0741 55.1624 86.5784 56.0243 86.5784 58.9948V67.8531ZM82.0847 53.063H77.7043C71.7683 53.063 70.9863 58.2945 70.9863 58.2945V67.8106C70.9863 72.0544 75.8089 73.4285 75.8089 73.4285H83.9801C83.9801 73.4285 88.8019 72.0544 88.8019 67.8106V58.2945C88.8019 58.2945 88.0199 53.063 82.0847 53.063Z" fill="#0E88D3"/>
<path d="M77.2089 59.2006H82.5787V67.5267H77.2089V59.2006ZM81.9607 57.0195H77.8277C74.903 57.0195 74.8613 59.0373 74.8613 59.0373V67.0994C74.8613 69.5844 77.6611 69.5053 77.6611 69.5053H82.1281C82.1281 69.5053 84.9287 69.5844 84.9287 67.0994V59.0373C84.9287 59.0373 84.8846 57.0195 81.9607 57.0195Z" fill="#0E88D3"/>
<path d="M100.611 53.0463H90.8545V73.4076H92.9722V55.214H100.707C106.128 55.214 106.22 59.2679 106.22 59.2679V73.4076H108.203V59.5028C108.203 52.6665 100.611 53.0463 100.611 53.0463Z" fill="#0E88D3"/>
<path d="M101.035 57.2436H94.5771V73.4069H96.7915V59.3131H102.165V73.6001H104.427V59.7861C104.427 57.0521 101.035 57.2436 101.035 57.2436Z" fill="#0E88D3"/>
<path d="M114.991 73.4076H121.964V76.8053H110.038V79.2046H121.495C121.495 79.2046 124.44 79.5885 124.44 76.2624V71.5714H116.168C116.168 71.5714 112.203 71.1966 112.203 67.8039V53.0005H110.088V68.4585C110.088 68.4585 110.27 73.4076 114.991 73.4076Z" fill="#0E88D3"/>
<path d="M116.474 69.9934H124.42V53.0015H122.06V67.8981H116.261V53.0015H113.953V67.4709C113.953 67.4709 113.903 69.9934 116.474 69.9934Z" fill="#0E88D3"/>
<path d="M125.973 76.7137C125.973 76.7137 126.587 80.8151 120.316 80.8151H110.039V83.0295H121.917C121.917 83.0295 128 83.1694 128 77.4174V53.0029H125.973V76.7137Z" fill="#0E88D3"/>
</g>
<defs>
<clipPath id="clip0_5027_9050">
<rect width="128" height="128" fill="white"/>
</clipPath>
</defs>
</svg>
