<svg width="128" height="128" viewBox="0 0 128 128" fill="none" xmlns="http://www.w3.org/2000/svg">
<path d="M104.044 59.4165C111.37 57.5778 120.795 45.5399 120.795 31.1482C120.795 16.7442 109.277 0 80.485 0C51.6927 0 3 0 3 0V128H75.7719C112.938 128 124.458 111.513 124.458 89.7862C124.458 68.0595 104.044 59.4165 104.044 59.4165ZM39.124 30.9842H72.3708C79.963 30.9842 82.6768 36.7446 82.6768 40.1361C82.6768 43.5461 81.7895 50.0883 72.1074 50.0883C62.422 50.0883 39.124 50.0883 39.124 50.0883V30.9842ZM70.0122 99.7255C59.5428 99.7255 38.3373 99.7255 38.3373 99.7255V74.0737H69.7917C76.86 74.0737 84.9402 76.9569 84.9402 86.3756C84.9395 95.8004 80.485 99.7255 70.0122 99.7255Z" fill="url(#paint0_linear_5027_4377)"/>
<defs>
<linearGradient id="paint0_linear_5027_4377" x1="63.7292" y1="0" x2="63.7292" y2="128" gradientUnits="userSpaceOnUse">
<stop stop-color="#68239E"/>
<stop offset="0.333333" stop-color="#C582FA"/>
<stop offset="0.666667" stop-color="#872CCE"/>
<stop offset="1" stop-color="#491770"/>
</linearGradient>
</defs>
</svg>
