<svg width="128" height="128" viewBox="0 0 128 128" fill="none" xmlns="http://www.w3.org/2000/svg">
<g clip-path="url(#clip0_5027_8406)">
<path d="M41.4992 104.5H88.4992C110.799 103.9 128.499 85.3001 127.899 63.0001C127.299 41.5001 109.999 24.1001 88.4992 23.6001H41.4992C19.1992 23.0001 0.59919 40.6001 -0.000809982 63.0001C-0.60081 85.4001 17.0992 103.9 39.3992 104.5C40.0992 104.5 40.7992 104.5 41.4992 104.5ZM87.4992 90.2001H42.5992C28.0992 89.7001 16.7992 77.6001 17.2992 63.2001C17.6992 49.4001 28.7992 38.3001 42.5992 37.9001H87.4992C101.999 37.4001 114.099 48.8001 114.499 63.2001C114.999 77.7001 103.599 89.8001 89.1992 90.2001C88.5992 90.2001 88.0992 90.2001 87.4992 90.2001Z" fill="url(#paint0_linear_5027_8406)"/>
</g>
<defs>
<linearGradient id="paint0_linear_5027_8406" x1="63.9992" y1="104.479" x2="63.9992" y2="23.5217" gradientUnits="userSpaceOnUse">
<stop stop-color="#E93D26"/>
<stop offset="0.5" stop-color="#DD9085"/>
<stop offset="1" stop-color="#E23A23"/>
</linearGradient>
<clipPath id="clip0_5027_8406">
<rect width="128" height="128" fill="white"/>
</clipPath>
</defs>
</svg>
