<svg width="128" height="128" viewBox="0 0 128 128" fill="none" xmlns="http://www.w3.org/2000/svg">
<path fill-rule="evenodd" clip-rule="evenodd" d="M51.9853 44.0672C55.3312 43.844 58.7091 44.1851 61.9704 44.9666C66.3825 46.0698 70.6868 48.1902 73.7085 51.6648C77.2338 55.6466 78.65 61.2084 78.0611 66.4358C77.7174 69.8815 76.4699 73.2532 74.4022 76.0409C72.7533 78.2994 70.5388 80.1006 68.0953 81.4427C62.4458 84.4995 55.2509 85.34 48.9316 84.3202C47.3223 84.0605 45.7349 83.6591 44.1933 83.1329C40.4604 81.8573 37.0053 79.6221 34.5537 76.5031C30.0438 70.8511 29.0052 62.6822 31.9077 56.0675C33.4907 52.4067 36.3732 49.3706 39.8326 47.4182C43.5273 45.3178 47.7657 44.2999 51.9853 44.0672ZM51.799 48.9497C48.0134 49.363 44.3206 51.1881 41.9813 54.2418C40.0045 56.7756 39.1327 60.0086 38.9947 63.1796C38.9276 66.2464 39.5084 69.3722 40.9264 72.1098C42.1255 74.4573 44.0541 76.4398 46.4122 77.6302C48.7867 78.8506 51.486 79.3975 54.1477 79.3379C57.017 79.375 59.9296 78.6913 62.405 77.2156C65.2085 75.5618 67.2505 72.7897 68.2622 69.7184C69.8019 65.1376 69.4952 59.8274 66.9426 55.6623C65.1426 52.7102 62.1692 50.5697 58.881 49.5681C56.5962 48.8902 54.1653 48.6205 51.799 48.9497ZM2.13099 44.9791C5.56851 45.0901 8.96901 44.483 12.4021 44.4573C15.3912 44.3965 18.4261 44.4724 21.3211 45.299C23.4303 45.8961 25.4698 46.9716 26.8985 48.6688C27.8857 49.8409 28.5605 51.2747 28.8478 52.7792C28.9149 53.927 29.0146 55.128 28.5906 56.2249C27.9835 58.0531 26.5824 59.4937 25.0264 60.568C23.6278 61.5677 22.09 62.3436 20.5967 63.184C22.6984 64.052 24.8433 64.8817 26.7185 66.1969C28.7324 67.5792 30.5141 69.5748 30.9538 72.049C31.4649 74.6097 30.3762 77.2426 28.7367 79.1837C26.4394 81.9633 22.8639 83.4741 19.3091 83.6761C16.5778 83.9959 13.8358 83.6152 11.1064 83.4823C8.60463 83.227 6.07777 83.2571 3.56658 83.3506C2.4151 83.4641 1.26425 83.5927 0.109628 83.6479C0.0694897 83.4083 0.0117902 83.1731 0.00238263 82.9297C-0.000753176 70.4547 0.00238251 57.9797 0.000501121 45.5041C-0.00765219 45.2589 0.0857962 45.0281 0.127189 44.7897C0.777563 44.981 1.4618 44.944 2.13099 44.9791ZM7.88401 49.7525C7.8307 53.4616 7.89217 57.1732 7.85203 60.8829C8.34498 60.8584 8.83919 60.8452 9.33026 60.8873C10.4541 61.0522 11.5975 61.0165 12.7295 61.0033C15.1203 60.8565 17.5543 60.04 19.3154 58.3673C20.2869 57.4592 21.0947 56.2004 20.9931 54.8219C20.9962 53.7539 20.3941 52.7949 19.6992 52.0291C18.0504 50.3352 15.6998 49.4766 13.3749 49.3129C11.5272 49.2006 9.72099 49.6754 7.88401 49.7525ZM7.85642 65.6813C7.86645 69.7949 7.86959 73.9067 7.85642 78.0196C9.11828 77.9732 10.3532 78.2868 11.6006 78.421C14.7026 78.7842 18.0084 78.1626 20.571 76.3131C21.6096 75.5028 22.6858 74.3952 22.6275 72.9778C22.6839 72.044 22.186 71.1948 21.6165 70.4961C20.3653 69.0141 18.6813 67.9743 16.941 67.1602C15.21 66.3819 13.341 65.8708 11.4419 65.7842C10.2553 65.6136 9.05117 65.7196 7.85642 65.6813ZM71.3485 45.2827C71.1377 45.1366 71.2356 44.7515 71.5203 44.8205C74.2899 44.8274 77.0576 44.8186 79.8253 44.8236C80.1081 44.7784 80.3038 45.0099 80.4744 45.1961C84.0286 49.6101 87.6335 53.9815 91.1927 58.3886C91.3984 58.6012 91.5301 58.9637 91.8657 58.9794C92.6891 58.1516 93.3621 57.1801 94.1969 56.361C94.4684 56.297 94.6095 56.5824 94.7682 56.7448C95.7635 58.0004 96.7883 59.2334 97.8012 60.4758C97.9699 60.6289 97.9762 60.9193 97.8144 61.0798C97.1251 61.8374 96.4672 62.6226 95.7717 63.374C95.5678 63.5283 95.5697 63.8218 95.756 63.9892C100.723 70.0947 105.697 76.1977 110.662 82.307C110.911 82.6513 112.021 83.6479 111.088 83.6504C108.25 83.6591 105.411 83.6629 102.575 83.6479C98.641 78.8005 94.6948 73.9625 90.7575 69.1189C87.1274 73.2996 83.4685 77.4564 79.8303 81.6309C79.2006 82.2794 78.6939 83.047 78.0015 83.6347C75.5148 83.6717 73.023 83.6698 70.5357 83.6315C70.6015 83.3876 70.7063 83.1562 70.8875 82.9749C75.9864 77.1529 81.0746 71.3215 86.1772 65.5032C86.4871 65.1947 86.7549 64.8497 86.9976 64.4866C81.7632 58.1014 76.5885 51.6641 71.3485 45.2827ZM87.4278 44.8186C90.3529 44.8236 93.2787 44.8173 96.2038 44.8205C96.3995 44.7897 96.5701 44.8863 96.698 45.0293C100.436 49.5506 104.077 54.1584 107.838 58.6621C109.16 57.0296 110.607 55.5005 111.962 53.8931C114.168 51.3901 116.355 48.8695 118.562 46.3664C119.026 45.8578 119.43 45.2733 119.982 44.8543C122.437 44.7753 124.903 44.8506 127.363 44.8186C127.597 44.7847 127.816 44.8719 128 45.018C122.623 51.1492 117.274 57.3049 111.896 63.4336C111.823 63.5697 111.847 63.6907 111.969 63.7948C117.196 70.1832 122.391 76.6004 127.613 82.9937C127.793 83.1649 127.795 83.4177 127.836 83.6466C124.897 83.6673 121.957 83.6504 119.018 83.6554C118.678 83.7099 118.495 83.3763 118.293 83.1693C114.891 78.9673 111.473 74.7784 108.06 70.5846C107.658 70.1223 107.345 69.5698 106.834 69.2117C106.173 69.9762 105.497 70.7307 104.854 71.5128C104.725 71.689 104.375 71.7229 104.243 71.5366C103.013 70.037 101.804 68.518 100.564 67.0266C101.25 66.0439 102.099 65.184 102.904 64.2972C101.241 62.1347 99.4613 60.0588 97.7579 57.9264C94.3781 53.7683 90.9983 49.6101 87.6078 45.4595C87.4228 45.294 87.4441 45.0419 87.4278 44.8186ZM103.919 45.2074C104.069 45.0682 104.188 44.8104 104.429 44.8236C106.861 44.8186 109.295 44.8217 111.729 44.8205C111.741 45.4238 111.166 45.7468 110.832 46.1708C109.045 48.2354 107.237 50.2825 105.447 52.3421C105.309 52.5898 104.928 52.6043 104.799 52.344C103.981 51.343 103.17 50.3339 102.351 49.3336C102.04 48.9259 101.66 48.5647 101.42 48.1068C102.204 47.1002 103.117 46.2009 103.919 45.2074ZM92.5029 76.1576C92.6634 75.8829 93.068 75.7499 93.2643 76.0691C94.5324 77.4884 95.8055 78.9046 97.0404 80.3515C96.3148 81.3392 95.433 82.2016 94.6672 83.1562C94.4634 83.3581 94.2916 83.6955 93.9573 83.6479C91.4963 83.6384 89.0321 83.6961 86.5717 83.6303C86.0211 83.6152 86.0606 83.4829 86.4984 83.01C88.5034 80.7284 90.4928 78.4342 92.5029 76.1576Z" fill="white"/>
</svg>
