<svg width="128" height="128" viewBox="0 0 128 128" fill="none" xmlns="http://www.w3.org/2000/svg">
<path d="M80.6589 111.284V105.218H82.1507H85.4328C89.2121 105.218 91.798 104.72 92.7925 104.024C93.986 103.228 94.6822 102.134 95.08 100.344C95.4779 98.554 95.6768 93.6806 95.6768 86.0225V34.7032L61.3644 111.284H55.9938L21.3831 34.7032V81.4476C21.3831 88.7079 21.582 93.6806 22.0793 96.167C22.4771 98.4545 23.6706 100.444 25.8586 102.234C27.9472 103.925 30.9308 105.019 35.108 105.218L36.5004 105.317V111.284H0V105.317L1.39239 105.218C5.17172 105.019 8.05594 104.024 10.244 102.333C12.5315 100.643 13.7249 98.6535 14.2222 96.2665C14.7195 93.6806 15.0179 88.5089 15.0179 81.0497V41.2673C15.0179 34.007 14.819 29.3326 14.4211 27.4429C14.0233 25.5532 13.3271 24.5587 12.432 24.0614C11.6364 23.5641 8.65268 22.9674 4.0777 23.0668H0.0994555V17H30.9308L64.1492 90.4981L97.1686 17H128V23.0668H126.508H123.127C118.651 23.0668 115.767 23.5641 114.872 24.0614C113.877 24.5587 113.181 25.4538 112.783 27.244C112.385 28.9347 112.087 33.8081 112.087 41.2673V86.0225C112.087 93.1834 112.286 97.8578 112.584 99.8469C112.883 101.836 113.678 103.03 114.772 103.825C115.667 104.521 118.353 105.218 122.43 105.118H128V111.185H80.6589V111.284Z" fill="url(#paint0_linear_5027_3477)"/>
<defs>
<linearGradient id="paint0_linear_5027_3477" x1="64" y1="17" x2="64" y2="111.284" gradientUnits="userSpaceOnUse">
<stop stop-color="#CD2243"/>
<stop offset="0.333333" stop-color="#D18C99"/>
<stop offset="0.666667" stop-color="#BF324D"/>
<stop offset="1" stop-color="#AA1E39"/>
</linearGradient>
</defs>
</svg>
