<svg width="128" height="128" viewBox="0 0 128 128" fill="none" xmlns="http://www.w3.org/2000/svg">
<path d="M120.567 64V98.5613C120.567 102.193 119.919 105.759 118.557 109.196C116.936 113.216 114.602 116.782 111.489 119.765C108.701 122.424 105.459 124.563 101.828 125.99C98.5856 127.287 95.2786 128 91.7771 128C72.9726 128 54.1033 128 35.2989 127.935C31.538 127.935 28.0365 126.768 24.6646 125.147C20.5147 123.137 17.0132 120.284 14.1601 116.652C11.307 113.021 9.42655 108.936 8.4539 104.397C8.12969 102.841 8 101.155 8 99.534V28.4661C8 24.9645 8.71328 21.5927 10.0101 18.4154C12.2148 13.0983 15.7163 8.62412 20.4499 5.31713C23.6272 3.04763 27.1935 1.55623 31.0192 0.64843C33.2888 0.129686 35.6231 0 37.9574 0H90.9342C96.381 0 101.504 1.29687 106.172 4.14996C109.414 6.09524 112.203 8.62411 114.537 11.6717C117.001 14.9787 118.752 18.5451 119.789 22.5654C120.373 24.8349 120.632 27.1692 120.632 29.5035C120.567 40.9808 120.567 52.458 120.567 64ZM102.541 64.0649V30.2168C102.541 27.3637 101.828 24.7052 100.012 22.4357C96.5106 18.0912 90.2857 16.5998 85.228 19.6474C81.4671 21.9169 79.5866 25.3536 79.5218 29.7629C79.4569 35.923 79.5218 42.0831 79.5218 48.308C79.5218 48.7619 79.5218 49.2807 79.3921 49.6697C78.7437 51.4205 77.3171 52.458 75.3718 52.458H37.8926C36.92 52.458 35.9473 52.5228 35.0395 52.7173C29.5927 53.8845 25.8967 58.618 25.8967 64.1297V98.3668C25.8967 102.452 27.6474 105.759 30.9544 108.028C35.8825 111.4 42.8207 110.557 46.7761 105.24C48.2675 103.23 48.9159 100.96 48.9159 98.4965V79.9514C48.9159 77.228 50.4721 75.6717 53.1307 75.6717C60.5228 75.6717 67.9797 75.7366 75.3718 75.6717C77.6413 75.6717 79.6515 77.4874 79.5866 79.8865C79.4569 86.0466 79.5218 92.2067 79.5866 98.3019C79.5866 102.452 81.4022 105.824 84.8389 108.158C87.0436 109.649 89.5076 110.168 92.1662 109.909C96.1864 109.52 99.1044 107.445 101.179 104.073C102.347 102.128 102.671 100.053 102.671 97.7832C102.541 86.5005 102.541 75.2827 102.541 64.0649ZM37.309 41.2401C43.7285 41.1104 48.7862 36.1824 48.8511 29.6981C48.9159 23.0193 43.4691 18.0912 37.4387 18.0263C31.0841 17.9615 25.8318 23.2138 25.8318 29.5684C25.8318 36.0527 30.8247 41.0456 37.309 41.2401Z" fill="url(#paint0_linear_5027_4681)"/>
<defs>
<linearGradient id="paint0_linear_5027_4681" x1="64.3161" y1="0" x2="64.3161" y2="128" gradientUnits="userSpaceOnUse">
<stop stop-color="white"/>
<stop offset="1" stop-color="#E7E7E7"/>
</linearGradient>
</defs>
</svg>
