<svg width="128" height="128" viewBox="0 0 128 128" fill="none" xmlns="http://www.w3.org/2000/svg">
<path d="M0 86.1H24.9V89.7H0V86.1ZM0 79.3001H24.9V82.9001H0V79.3001ZM7.1 72.4001H17.8V76H7.1V72.4001ZM7.1 65.6H17.8V69.2H7.1V65.6ZM7.1 58.8H17.8V62.4001H7.1V58.8ZM7.1 52H17.8V55.6H7.1V52ZM0 45.1H24.9V48.7001H0V45.1ZM0 38.3H24.9V41.9001H0V38.3ZM28.4 82.8001H66.7C67.3 81.7001 67.8 80.5 68.1 79.2H28.4V82.8001ZM63.7 65.6H35.5V69.2H66.7C65.9 67.8 64.9 66.6 63.7 65.6ZM35.5 58.8V62.4001H63.7C64.9 61.4001 65.9 60.2 66.7 58.8H35.5ZM66.7 45.1H28.4V48.7001H68.1C67.8 47.5001 67.3 46.3 66.7 45.1ZM54.9 38.3H28.4V41.9001H64.1C61.7 39.7001 58.5 38.3 54.9 38.3ZM35.5 52H46.2V55.6H35.5V52ZM56.9 55.5H68C68.3 54.4 68.5 53.2001 68.5 51.9001H56.9V55.5ZM35.5 72.4001H46.2V76H35.5V72.4001ZM56.9 72.4001V76H68.5C68.5 74.8 68.3 73.6001 68 72.4001H56.9ZM28.4 89.6H54.9C58.4 89.6 61.7 88.2001 64.1 86H28.4V89.6ZM71.1 86.1H88.9V89.7H71.1V86.1ZM71.1 79.3001H88.9V82.9001H71.1V79.3001ZM78.2 72.4001H88.9V76H78.2V72.4001ZM78.2 65.6H88.9V69.2H78.2V65.6ZM93.8 45.1H71.1V48.7001H95L93.8 45.1ZM91.5 38.3H71.1V41.9001H92.7L91.5 38.3ZM110.2 86.1H128V89.7H110.2V86.1ZM110.2 79.3001H128V82.9001H110.2V79.3001ZM110.2 72.4001H120.9V76H110.2V72.4001ZM110.2 65.6H120.9V69.2H110.2V65.6ZM110.2 62.4001H120.9V58.8H110.2H100.5L99.5 61.7001L98.5 58.8H88.8H78.2V62.4001H88.9V59.1L90 62.4001H109.1L110.2 59.1V62.4001ZM120.9 52H102.9L101.7 55.6H120.9V52ZM107.6 38.3L106.4 41.9001H128V38.3H107.6ZM99.5 89.6L100.7 86.1H98.2L99.5 89.6ZM97.2 82.8001H101.9L103.2 79.2H96L97.2 82.8001ZM94.8 76H104.3L105.6 72.4001H93.6L94.8 76ZM92.4 69.2H106.7L107.9 65.6H91.2L92.4 69.2ZM78.2 55.5H97.4L96.2 52H78.2V55.5ZM104.1 48.7001H128V45.1H105.3L104.1 48.7001Z" fill="url(#paint0_linear_5027_8604)"/>
<defs>
<linearGradient id="paint0_linear_5027_8604" x1="64" y1="89.7" x2="64" y2="38.3531" gradientUnits="userSpaceOnUse">
<stop stop-color="#0076D6"/>
<stop offset="0.333333" stop-color="#2CA0FF"/>
<stop offset="0.666667" stop-color="#80C6FF"/>
<stop offset="1" stop-color="#2CA0FF"/>
</linearGradient>
</defs>
</svg>
