<svg width="128" height="128" viewBox="0 0 128 128" fill="none" xmlns="http://www.w3.org/2000/svg">
<path d="M58.3881 46C55.8778 46 53.8473 48.0305 53.8473 50.5408C53.8473 53.0511 55.8778 55.0816 58.3881 55.0816C60.8984 55.0816 62.9504 53.0511 62.9504 50.5408C62.9504 48.0305 60.8984 46 58.3881 46ZM75.8446 57.2021C71.7596 57.2021 67.5555 60.2213 67.5555 64.5917C67.5555 69.279 70.417 70.9797 74.024 72.1097C79.425 73.8035 80.9852 74.764 80.9852 76.929C80.9852 78.7479 79.5098 80.1847 76.7228 80.1847C73.4962 80.1847 70.6526 77.5639 70.2542 73.759H67.9838V81.5555H70.19C70.19 81.5555 70.567 80.3492 70.6612 80.0562C72.5187 81.4921 74.4712 82.091 76.937 82.091C81.1891 82.091 83.3935 80.3415 84.6692 78.4283C85.5928 77.0438 85.9424 75.5788 85.9329 73.7804C85.9175 71.0285 84.5193 68.7041 82.356 67.5047C80.5156 66.4851 78.8664 66.0627 76.3372 65.2771C73.8089 64.4923 72.8031 63.1489 72.8031 61.7858C72.8031 60.5221 73.7747 58.9585 76.6157 58.9585C79.4541 58.9585 81.6217 61.5176 82.2275 64.4632H84.3908V57.6948H82.2275C82.2275 57.6948 82.0098 58.7006 81.949 58.9799C80.7076 58.034 78.9872 57.2021 75.8446 57.2021ZM117.911 57.2021C113.826 57.2021 109.622 60.2213 109.622 64.5917C109.622 69.279 112.486 70.9797 116.091 72.1097C121.494 73.8035 123.052 74.764 123.052 76.929C123.052 78.7479 121.575 80.1847 118.79 80.1847C115.561 80.1847 112.741 77.5639 112.343 73.759H110.051V81.5555H112.257C112.257 81.5555 112.656 80.3492 112.749 80.0562C114.606 81.4921 116.538 82.091 119.004 82.091C123.256 82.091 125.46 80.3415 126.736 78.4283C127.661 77.0438 128.009 75.5788 128 73.7804C127.986 71.0285 126.585 68.7041 124.423 67.5047C122.582 66.4851 120.933 66.0627 118.404 65.2771C115.876 64.4923 114.87 63.1489 114.87 61.7858C114.87 60.5221 115.865 58.9585 118.704 58.9585C121.543 58.9585 123.687 61.5176 124.294 64.4632H126.458V57.6948H124.294C124.294 57.6948 124.078 58.7006 124.016 58.9799C122.774 58.034 121.052 57.2021 117.911 57.2021ZM0 57.6948V59.5154H2.9344V72.8594C2.9344 75.3132 3.182 77.1004 4.19812 78.5783C5.35646 80.2635 7.76823 82.0481 12.3373 82.0481C17.7443 82.0481 19.6275 80.434 20.7122 78.5783C21.5569 77.1303 21.6546 75.3766 21.6546 72.6238V59.5154H24.589V57.6948H16.4712V59.5154H19.3842C19.3842 59.5154 19.3842 74.5326 19.3842 74.8942C19.3842 78.1062 17.2526 79.6064 14.9076 79.6064C12.836 79.6064 11.7753 79.0221 11.0736 78.0856C10.4413 77.24 10.2383 76.0851 10.2383 74.5087C10.2383 74.3099 10.2383 59.5154 10.2383 59.5154H13.1727V57.6948H0ZM26.1312 57.6948V59.5154H28.5729V79.7349H25.6385V81.5555H33.9062V79.7349H30.8433V63.7135L43.6733 81.5555H47.2717V59.5154H50.2061V57.6948H42.0883V59.5154H45.0013V70.8889L35.5341 57.6948H26.1312ZM51.8982 57.6948V59.5154H54.8326V79.7349H51.8982V81.5555H65.0709V79.7349H62.1365V59.5154H65.0709V57.6948H51.8982ZM85.3975 57.6948V59.5154H88.0106C88.0106 59.5154 94.0893 71.3506 94.115 71.4029C94.115 71.4612 94.115 79.7349 94.115 79.7349H90.7736V81.5555H104.782V79.7349H101.419C101.419 79.7349 101.419 71.4612 101.419 71.4029C101.445 71.3498 107.523 59.5154 107.523 59.5154H110.029V57.6948H102.404V59.5154H105.06L100.369 68.8326L95.957 59.5154H98.87V57.6948H85.3975Z" fill="url(#paint0_linear_5027_8805)"/>
<defs>
<linearGradient id="paint0_linear_5027_8805" x1="64" y1="46" x2="64" y2="82.091" gradientUnits="userSpaceOnUse">
<stop stop-color="#DA3F66"/>
<stop offset="0.645833" stop-color="#E3A7B6"/>
<stop offset="0.671875" stop-color="#D62250"/>
<stop offset="1" stop-color="#D40F41"/>
</linearGradient>
</defs>
</svg>
