<svg width="128" height="128" viewBox="0 0 128 128" fill="none" xmlns="http://www.w3.org/2000/svg">
<g clip-path="url(#clip0_5027_5400)">
<path d="M93.834 25.4482C93.8727 25.4596 104.881 28.7203 115.479 38.1952C123.244 45.1367 127.995 55.2851 128 63.789C128.007 72.4315 123.705 82.3891 116.629 89.3193C106.091 99.6403 94.043 103.078 93.9717 103.099C94.0181 103.069 100 99.2678 104.495 93.9921C107.383 90.6038 109.363 86.5075 109.725 82.7333C110.136 78.4366 108.236 73.9775 105.568 70.7255C102.156 66.5667 97.7161 64.1564 97.7031 64.1493C97.7031 64.1493 89.3077 59.363 81.0713 54.457C77.2731 52.1952 73.703 49.7752 70.6562 48.0224C66.998 45.9175 64.2529 44.9921 64.2529 44.9921C64.2161 44.9794 60.2898 43.632 56.7334 45.2128C55.5731 45.7282 55.6807 46.8739 55.6807 46.8739C55.6758 46.9004 55.3964 48.5025 58.1279 50.1855C66.3604 55.2564 79.4248 62.7472 81.2207 63.7802C85.3712 66.1685 90.5122 68.9815 94.2285 71.6864C98.6524 74.9069 99.6844 78.8175 99.6943 78.8554C99.6943 78.8554 101.365 85.3477 96.1592 91.1904C93.904 93.7207 90.5276 96.294 87.3008 98.1083C82.8233 100.625 78.6846 101.938 78.6846 101.938C78.636 101.954 65.9261 106.082 52.5244 103.194C37.3302 99.9202 30.748 91.5722 30.748 91.5722C30.7194 91.5344 28.74 88.9126 30.3643 87.3495C32.1299 85.6514 34.4104 87.3864 34.4248 87.3974C34.4248 87.3974 41.3999 92.9212 48.4463 95.9101C54.2151 98.3579 60.2978 98.4 60.3555 98.4003C60.3555 98.4003 66.5133 98.8793 73.2285 97.3056C77.608 96.2786 82.1137 93.8855 85.6875 91.6142C95.1051 85.6281 91.0871 78.9422 91.0684 78.9111C91.0684 78.9111 89.4432 75.7443 85.2588 72.8925C82.6387 71.1073 79.2378 69.3121 76.1143 67.4638C69.3558 63.4646 63.0737 59.8297 63.0371 59.8085C63.0371 59.8085 59.6345 57.8483 55.6611 55.5497C52.6175 53.7896 49.215 51.9227 46.8867 50.038C43.5563 47.3405 44.6561 42.7473 49.6875 40.0751C53.7972 37.8938 60.0244 37.0585 60.0244 37.0585C60.0875 37.0492 67.6231 35.9464 74.999 38.4384C78.8613 39.7428 82.3518 42.3698 85.4873 44.2245C89.4929 46.5952 92.6729 48.0888 92.6729 48.0888C92.7302 48.1132 99.1259 50.8242 103.282 48.8759C107.317 46.9839 106.329 41.8681 106.329 41.8681C106.325 41.8313 105.987 38.766 103.371 35.3173C99.9112 30.7554 93.834 25.4482 93.834 25.4482ZM64.2549 24.0038C86.1591 24.2878 96.1133 35.4853 96.1133 35.4853C96.1461 35.5152 99.6834 38.7502 97.334 41.2099C95.6074 43.0177 91.9697 39.8876 91.9697 39.8876C91.9437 39.8602 83.2837 30.7446 65.7588 29.8915C50.7726 29.1626 40.5322 37.8681 40.5322 37.8681C40.5057 37.8876 35.3541 41.6921 35.9473 47.0771C36.4843 51.9495 43.0761 55.8148 43.1221 55.8417C43.1221 55.8417 53.2083 61.9366 63.7969 67.9062C69.8382 71.3116 76.3362 74.7243 80.4277 77.9921C82.1553 79.3719 82.6632 81.1259 82.8018 82.4413C83.108 85.3518 79.3582 87.9977 73.5283 89.9755C58.9235 94.9304 47.3697 87.5933 42.3428 83.8827C35.7446 79.012 27.4285 76.5084 23.5713 80.1503C17.446 85.9347 25.5009 95.3454 30.4307 100.113C27.6396 98.4404 23.5502 95.0506 21.1787 88.7343C19.1538 83.3414 21.7451 79.4931 21.7451 79.4931C21.7451 79.4931 17.8927 84.1273 20.6582 90.1572C23.94 97.3122 29.9265 100.887 32.7432 102.238C33.3673 102.78 33.7471 103.084 33.7471 103.084C33.7471 103.084 0.53976 90.1227 0.00976562 66.2021C-0.662337 35.8195 32.3486 25.6952 32.3486 25.6952C32.3486 25.6952 21.5397 30.9686 18.0596 38.8193C11.5176 53.5769 24.0286 62.7451 29.0264 65.7519C37.3698 70.7718 50.2219 78.2233 50.2324 78.2294C50.2324 78.2294 55.0565 81.0487 59.6123 83.664C60.5916 84.2262 61.8287 84.6084 62.8701 84.8544C67.6073 85.9738 71.1485 84.8657 71.1875 84.8534C71.1355 84.8649 65.7033 86.0482 60.2695 82.8534C56.6397 80.7187 50.9755 77.2969 45.0303 73.9247C39.5386 70.81 33.9308 67.5764 29.6719 64.8447C21.1281 59.3655 19.2178 54.3173 19.2178 54.3173C19.1936 54.2709 15.2289 46.6332 18.8398 39.2646C23.3477 30.0656 32.5557 26.4198 32.5557 26.4198C32.5557 26.4198 20.3618 34.0555 18.4268 43.6093C16.3519 53.8598 25.3037 60.7109 25.3037 60.7109C25.3256 60.7288 27.4684 62.4892 32.3271 65.5282C37.5797 68.8138 42.4598 71.381 46.5146 73.8407C53.893 78.3164 59.3314 81.8766 63.4297 83.2626C66.9809 84.4634 70.3888 84.3923 72.1309 82.0937C73.588 80.17 69.7389 77.9338 69.6963 77.9091C69.6963 77.9091 47.2803 65.1701 34.0098 56.9404C29.4342 54.103 28.3575 50.0575 27.9609 48.2616C26.418 41.2609 34.8248 34.1897 34.8857 34.1386C34.8857 34.1386 46.1481 23.7686 64.2549 24.0038ZM34.8145 88.7802C32.4924 87.0117 31.4152 88.9458 31.4102 88.955C31.4132 88.9545 32.8113 88.7118 34.2041 89.6249C35.8698 90.7176 38.0082 92.2938 40.5781 93.9511C43.924 96.1091 48.1806 98.0599 51.1953 98.9032C62.5854 102.092 71.0674 98.8359 71.0674 98.8359C71.0674 98.8359 61.0665 100.705 52.0371 98.1777C45.7439 96.416 38.3261 91.4543 34.8145 88.7802ZM55.3662 44.5087C55.3372 44.5262 53.5464 45.6176 54.0186 48.2851C54.3168 49.9669 56.2947 51.1019 56.3281 51.121C56.3281 51.121 63.984 55.9001 73.0225 61.0986C76.8817 63.319 81.1885 65.7806 84.9678 67.9716C87.2962 69.3216 89.486 70.6039 91.3828 71.873C94.3955 73.8892 98.1343 77.6771 98.2061 81.2978C98.3042 86.2893 93.9561 90.8749 93.9561 90.8749C93.9561 90.8749 102.343 82.6965 97.6738 76.4472C96.4996 74.8747 96.0216 74.1024 93.5381 72.2509C89.2663 69.0659 83.7008 66.16 79.1279 63.4823C70.5843 58.48 64.0376 54.6407 63.9824 54.6083C63.9824 54.6083 58.4713 51.3901 56.375 49.7675C53.1949 47.3057 55.3409 44.5411 55.3662 44.5087ZM98.5645 27.9179C98.5645 27.9179 100.258 28.9883 101.531 30.0107C102.697 30.9479 103.253 31.7655 103.253 31.7655C103.283 31.7811 122.962 41.8435 125.441 58.6718C128.189 77.3234 114.091 89.9422 114.033 89.9941C114.099 89.9394 130.745 76.0164 126.472 57.3993C121.905 37.5063 98.5645 27.9179 98.5645 27.9179ZM37.8145 38.0956C37.8145 38.0956 33.6439 42.3335 34.2451 46.9609C35.185 54.1866 43.4008 58.2819 43.4248 58.2939L76.79 77.6318C83.8034 81.7197 80.21 84.5429 80.21 84.5429C85.1235 80.914 77.2249 76.7827 77.2051 76.7724L46.8701 58.9745C46.8266 58.9544 36.785 54.2874 35.3564 47.7431C34.2556 42.6966 37.8145 38.0956 37.8145 38.0956ZM79.1396 41.746C69.4658 35.2648 54.7875 39.3415 54.7656 39.3476C54.7855 39.3422 68.8836 35.5579 78.8555 42.7782C96.7714 55.7505 103.133 50.7197 103.133 50.7197C103.133 50.7197 98.2405 54.5428 79.1396 41.746ZM76.8828 26.6073C62.3591 23.6607 51.4755 27.6634 51.4395 27.6767C51.4784 27.6669 61.8832 25.0612 72.4033 26.5165C81.1639 27.729 89.6628 32.4545 93.6621 35.7489C96.4574 38.0513 96.1222 39.4107 96.1201 39.4189C98.5243 39.8993 96.3604 36.9335 96.3604 36.9335C96.3209 36.8873 89.7521 29.2186 76.8828 26.6073Z" fill="url(#paint0_linear_5027_5400)"/>
</g>
<defs>
<linearGradient id="paint0_linear_5027_5400" x1="78.8627" y1="104.22" x2="78.8627" y2="25.4484" gradientUnits="userSpaceOnUse">
<stop stop-color="#0B3272"/>
<stop offset="0.333333" stop-color="#2560BF"/>
<stop offset="0.666667" stop-color="#7CA0D9"/>
<stop offset="1" stop-color="#2560BF"/>
</linearGradient>
<clipPath id="clip0_5027_5400">
<rect width="128" height="128" fill="white"/>
</clipPath>
</defs>
</svg>
