<svg width="128" height="128" viewBox="0 0 128 128" fill="none" xmlns="http://www.w3.org/2000/svg">
<g clip-path="url(#clip0_5027_8395)">
<path d="M243.2 116.636H293.818L312.436 72.4183V28.7819H324.945V116.636H372.364V11.6183H287.127L243.2 116.636ZM0 116.636H47.7091V28.491H60.5091V74.1638L79.1273 116.636H128.873L105.309 70.6728C112.291 63.9819 114.618 58.7456 114.618 47.691C114.618 18.3092 105.891 11.6183 79.7091 11.6183H0V116.636ZM182.109 27.3274H195.491V57.291H245.236C245.527 54.3819 245.236 51.7637 245.236 50.6001C245.236 15.4001 234.764 9.29102 189.964 9.29102C140.218 9.29102 132.945 18.6001 132.945 55.8365C132.945 111.691 135.273 118.964 189.964 118.964C238.836 118.964 244.655 110.236 245.236 70.3819H195.491V101.218H182.109V27.3274Z" fill="url(#paint0_linear_5027_8395)"/>
</g>
<defs>
<linearGradient id="paint0_linear_5027_8395" x1="186.182" y1="119.175" x2="186.182" y2="9.37102" gradientUnits="userSpaceOnUse">
<stop stop-color="#BB1313"/>
<stop offset="0.5" stop-color="#EB8E8E"/>
<stop offset="1" stop-color="#DE4243"/>
</linearGradient>
<clipPath id="clip0_5027_8395">
<rect width="128" height="110.545" fill="white" transform="translate(0 9)"/>
</clipPath>
</defs>
</svg>
