<svg width="128" height="128" viewBox="0 0 128 128" fill="none" xmlns="http://www.w3.org/2000/svg">
<path d="M117.3 78.7004C110.6 78.7004 104.2 78.8004 102.3 78.7004C98.7 78.3004 96.3 76.1004 95.9 72.6004C95.6 70.4004 95.6 68.5004 95.9 66.6004C96.3 63.2004 99 60.0004 102.3 59.8004C103.4 59.8004 106.4 59.8004 111.9 59.8004H127.9V53.2004C127.9 53.2004 115.1 53.2004 111.4 53.2004C106.3 53.2004 103.6 53.2004 102 53.2004C98.4 53.3004 95.4 54.6004 93 57.0004C90.8 59.3004 89.5 62.9004 89.2 66.5004C89.1 68.5004 89.1 71.0004 89.2 72.5004C89.6 76.4004 90.8 79.5004 93 81.6004C95.2 83.8004 98.8 85.4004 102 85.4004C104.6 85.4004 127.9 85.4004 127.9 85.4004V78.8004C128 78.6004 121 78.6004 117.3 78.7004ZM45.2 53.5004V60.1004H61V85.1004H67.6V60.0004H83.4V53.4004L45.2 53.5004ZM38.3 66.0004C38.3 62.4004 37.1 59.4004 34.5 56.9004C32 54.3004 28.1 53.3004 25.5 53.1004C23.2 53.0004 14.6 53.0004 12.5 53.1004C9.6 53.2004 7.5 54.1004 6.5 54.9004V42.9004H0V85.4004H6.6C6.6 85.4004 6.5 68.0004 6.6 66.2004C6.8 62.8004 9.5 60.2004 12.7 60.0004C15.3 59.8004 23.2 59.9004 25.6 60.0004C29 60.2004 31.5 62.9004 31.7 66.4004C31.8 67.6004 31.7 85.5004 31.7 85.5004H38.3C38.3 85.2004 38.3 67.5004 38.3 66.0004Z" fill="url(#paint0_linear_5027_8606)"/>
<defs>
<linearGradient id="paint0_linear_5027_8606" x1="63.9717" y1="85.3561" x2="63.9717" y2="42.8561" gradientUnits="userSpaceOnUse">
<stop stop-color="#53A205"/>
<stop offset="0.333333" stop-color="#8CC751"/>
<stop offset="0.666667" stop-color="#BADD97"/>
<stop offset="1" stop-color="#8CC751"/>
</linearGradient>
</defs>
</svg>
