<svg width="128" height="128" viewBox="0 0 128 128" fill="none" xmlns="http://www.w3.org/2000/svg">
<path d="M0 56.6475H6.2036L10.0474 68.291H10.1234L13.3477 56.6475H19.7074L23.199 68.291H23.2775L26.8108 56.6475H32.7046L25.9951 75.1966H20.2518L16.3335 62.8711H16.2559L12.7611 75.1966H6.90568L0 56.6475Z" fill="url(#paint0_linear_5027_8697)"/>
<path d="M33.9355 52H40.1391V56.6475H33.9355V52Z" fill="#006E94"/>
<path d="M33.9355 56.6475H40.1391V75.1966H33.9355V56.6475Z" fill="#91D44F"/>
<path d="M53.3889 62.1061C52.5372 61.0751 51.411 60.5404 50.0166 60.5404C49.0472 60.5404 47.881 60.9631 47.881 62.0661C47.881 64.8173 57.6946 62.4872 57.6946 69.5472C57.6946 74.282 53.0415 75.6572 49.0064 75.6572C46.3673 75.6572 43.4576 75.0048 41.5957 73.1357L45.1274 69.2815C46.212 70.5774 47.4951 71.3035 49.2369 71.3035C50.5593 71.3035 51.8769 70.9633 51.8769 69.9699C51.8769 66.9881 42.0616 69.5104 42.0616 62.4487C42.0616 58.095 46.0183 56.1875 49.9774 56.1875C52.462 56.1875 55.2164 56.8015 56.963 58.6289L53.3889 62.1061Z" fill="url(#paint1_linear_5027_8697)"/>
<path d="M71.9491 61.2285H66.8262V67.4065C66.8262 69.3957 67.0607 70.8453 69.5805 70.8453C70.2025 70.8453 71.444 70.77 71.9491 70.3154V75.083C70.6716 75.5384 69.2332 75.6569 67.8748 75.6569C63.9965 75.6569 61.0028 74.0928 61.0028 70.0456V61.2285H57.2822V56.6475H61.0028V52H66.8262V56.6475H71.9491V61.2285Z" fill="url(#paint2_linear_5027_8697)"/>
<path d="M73.9941 56.6474H79.8143V59.6236H79.8912C81.1343 57.375 82.7593 56.188 85.3248 56.188C85.982 56.188 86.7192 56.2273 87.2603 56.3793V61.6119C86.4446 61.3814 85.6345 61.2285 84.7812 61.2285C80.3539 61.2285 79.8144 63.7515 79.8144 67.4513V75.1966H73.9942L73.9941 56.6474Z" fill="url(#paint3_linear_5027_8697)"/>
<path d="M86.6396 65.9203C86.6396 71.8365 91.2952 75.6572 97.1185 75.6572C102.935 75.6572 107.592 71.8365 107.592 65.9203C107.592 60.0041 102.935 56.1875 97.1185 56.1875C91.2952 56.1875 86.6396 60.0041 86.6396 65.9203ZM92.4574 65.9203C92.4574 63.1363 94.2064 61.2288 97.1185 61.2288C100.022 61.2288 101.772 63.1363 101.772 65.9203C101.772 68.7091 100.022 70.6182 97.1185 70.6182C94.2064 70.6182 92.4574 68.7091 92.4574 65.9203Z" fill="url(#paint4_linear_5027_8697)"/>
<path d="M109.241 56.6474H114.828V59.1625H114.908C115.684 57.7161 117.583 56.188 120.412 56.188C126.313 56.188 127.4 60.0038 127.4 64.9699V75.1966H121.579V66.1121C121.579 63.9781 121.539 61.2285 118.555 61.2285C115.526 61.2285 115.061 63.5562 115.061 65.9592V75.1966H109.241L109.241 56.6474Z" fill="url(#paint5_linear_5027_8697)"/>
<defs>
<linearGradient id="paint0_linear_5027_8697" x1="16.3523" y1="56.6475" x2="16.3523" y2="75.1966" gradientUnits="userSpaceOnUse">
<stop stop-color="#0082AE"/>
<stop offset="0.473958" stop-color="#80A9B8"/>
<stop offset="0.510417" stop-color="#0078A1"/>
<stop offset="1" stop-color="#006E94"/>
</linearGradient>
<linearGradient id="paint1_linear_5027_8697" x1="49.6452" y1="56.1875" x2="49.6452" y2="75.6572" gradientUnits="userSpaceOnUse">
<stop stop-color="#0082AE"/>
<stop offset="0.473958" stop-color="#80A9B8"/>
<stop offset="0.510417" stop-color="#0078A1"/>
<stop offset="1" stop-color="#006E94"/>
</linearGradient>
<linearGradient id="paint2_linear_5027_8697" x1="64.6157" y1="52" x2="64.6157" y2="75.6569" gradientUnits="userSpaceOnUse">
<stop stop-color="#0082AE"/>
<stop offset="0.473958" stop-color="#80A9B8"/>
<stop offset="0.510417" stop-color="#0078A1"/>
<stop offset="1" stop-color="#006E94"/>
</linearGradient>
<linearGradient id="paint3_linear_5027_8697" x1="80.6272" y1="56.188" x2="80.6272" y2="75.1966" gradientUnits="userSpaceOnUse">
<stop stop-color="#0082AE"/>
<stop offset="0.473958" stop-color="#80A9B8"/>
<stop offset="0.510417" stop-color="#0078A1"/>
<stop offset="1" stop-color="#006E94"/>
</linearGradient>
<linearGradient id="paint4_linear_5027_8697" x1="97.1157" y1="56.1875" x2="97.1157" y2="75.6572" gradientUnits="userSpaceOnUse">
<stop stop-color="#0082AE"/>
<stop offset="0.473958" stop-color="#80A9B8"/>
<stop offset="0.510417" stop-color="#0078A1"/>
<stop offset="1" stop-color="#006E94"/>
</linearGradient>
<linearGradient id="paint5_linear_5027_8697" x1="118.32" y1="56.188" x2="118.32" y2="75.1966" gradientUnits="userSpaceOnUse">
<stop stop-color="#0082AE"/>
<stop offset="0.473958" stop-color="#80A9B8"/>
<stop offset="0.510417" stop-color="#0078A1"/>
<stop offset="1" stop-color="#006E94"/>
</linearGradient>
</defs>
</svg>
