<svg width="128" height="128" viewBox="0 0 128 128" fill="none" xmlns="http://www.w3.org/2000/svg">
<path d="M122.3 42.7C124 32.6 123.1 21.2 115.4 13.4C114.6 12.6 113.9 11.9 113.1 11.2C99.6003 0.400029 82.5003 -0.499971 66.3003 0.200029C56.8003 0.500029 47.5003 2.70003 39.0003 7.80003C32.6003 11.7 27.6003 16.8 23.7003 23.2C19.6003 30.1 18.2003 37.9 18.5003 45.7C18.7003 49.3 19.5003 52.7 20.9003 56C22.0003 58.5 23.5003 60.8 25.5003 62.9C31.0003 68.8 37.9003 72.1 45.5003 74.3C52.9003 76.3 60.0003 77.8 67.2003 79.9C68.8003 80.5 70.4003 80.9 71.9003 82C74.0003 83.5 75.4003 85.4 75.9003 87.9C76.4003 90.4 75.7003 92.6 74.2003 94.5C72.6003 96.4 70.5003 97.8 68.1003 98.6C60.6003 100.8 51.9003 100.2 45.8003 94.9C41.7003 91.2 42.5003 85.3 43.4003 80.5H6.40031C4.30031 86.9 4.40031 95.7 6.90031 102.1C9.90031 109.7 15.2003 116.2 22.5003 120.2C30.2003 124.6 38.4003 126.2 47.0003 127.3C55.5003 128.4 63.8003 127.9 72.3003 127.1C76.8003 126.6 81.0003 125.7 85.3003 124.1C89.8003 122.5 93.6003 120.4 97.6003 117.6C100.7 115.3 103 112.7 105.5 109.7C112.3 101.3 115.7 91.2 115 80.6C114.7 76.9 114.1 73.4 112.6 69.9C111.3 67 109.6 64.5 107.5 62.1C105.5 60 103.6 58.4 101.2 56.7C97.9003 54.4 94.7003 52.8 91.1003 51.5C83.6003 48.9 76.2003 47.7 68.2003 46C63.7003 45 58.4003 43.3 57.2003 38.3C56.5003 35.2 58.2003 32.3 60.6003 30.5C62.1003 29.5 63.6003 28.5 65.3003 28.2C69.2003 27.2 73.0003 27.2 76.8003 28.3C80.5003 29.6 84.3003 31.7 85.3003 35.8C85.4003 36.1 85.4003 36.6 85.5003 36.9C85.7003 38.9 85.3003 40.8 85.4003 42.7H122.3Z" fill="url(#paint0_linear_5027_8384)"/>
<defs>
<linearGradient id="paint0_linear_5027_8384" x1="64.0003" y1="128" x2="64.0003" y2="3.05176e-05" gradientUnits="userSpaceOnUse">
<stop stop-color="#DB215A"/>
<stop offset="0.5" stop-color="#E5668C"/>
<stop offset="1" stop-color="#DB1E56"/>
</linearGradient>
</defs>
</svg>
