<svg width="128" height="128" viewBox="0 0 128 128" fill="none" xmlns="http://www.w3.org/2000/svg">
<path fill-rule="evenodd" clip-rule="evenodd" d="M109.413 11.0001C108.229 11.002 107.467 11.0414 107.467 11.0683L70.4969 11.1366C70.4969 11.1366 54.1637 11.4154 49.4688 13.3213C44.7739 15.212 40.9832 18.959 39.0913 21.7872C37.7599 23.7701 19.9034 60.0718 9.39247 81.5603L42.9487 81.5945L62.1334 42.8495C62.1334 42.8495 63.4107 38.4434 66.8443 36.8756C70.2779 35.3077 74.4226 35.6125 74.4226 35.6125H122.35C122.35 35.6125 126.975 24.2957 127.676 22.4358C128.376 20.5606 128.218 16.6666 124.364 14.0382C120.528 11.3983 112.963 10.9943 109.413 11.0001ZM42.9487 81.5945H9.39247C4.90778 90.7248 1.74588 97.1949 1.74588 97.1949C1.74588 97.1949 -1.70564 105.406 1.09728 110.986C3.90021 116.643 15.8101 116.994 15.8101 116.994H57.5933C57.5933 116.994 73.0804 116.143 76.1636 114.775C84.0118 111.317 88.4186 103.169 88.4186 103.169L98.9327 81.5945L113.782 51.0764H73.7057L62.509 73.9479H70.7017L66.5712 81.5945L63.0551 88.1487C60.6026 90.6849 56.972 92.0061 49.264 92.0061C37.4917 92.0061 40.4226 86.6126 40.4226 86.6126L42.9487 81.5945Z" fill="url(#paint0_linear_5027_3360)"/>
<defs>
<linearGradient id="paint0_linear_5027_3360" x1="349.004" y1="10.9041" x2="349.004" y2="116.995" gradientUnits="userSpaceOnUse">
<stop stop-color="#1E68C1"/>
<stop offset="0.333333" stop-color="#829FC4"/>
<stop offset="0.666667" stop-color="#1959A6"/>
<stop offset="1" stop-color="#165096"/>
</linearGradient>
</defs>
</svg>
