<svg width="128" height="128" viewBox="0 0 128 128" fill="none" xmlns="http://www.w3.org/2000/svg">
<g clip-path="url(#clip0_5027_8762)">
<path d="M4.61358 57.4378C4.60436 56.3181 5.26957 55.3046 6.50595 55.1906C7.52709 55.097 11.8359 55.1906 11.8359 55.1906V71.2328C11.7911 71.8337 11.6091 72.3103 10.7904 72.3526C9.97038 72.3936 7.19398 72.4986 7.19398 72.4986L7.20112 75.9426H24.6322V72.514C24.6322 72.514 21.442 72.4436 21.1191 72.4218C20.5592 72.3936 19.9583 72.3795 19.9839 70.8561C19.9979 70.031 20.0377 55.2175 20.0377 55.2175C20.0377 55.2175 24.8628 55.2367 25.2228 55.2777C26.5848 55.6582 27.2434 55.9952 27.2241 58.459C27.205 60.9228 27.26 61.6864 27.26 61.6864H30.8282V51.6813L1 51.6736C1 51.1932 1 61.4353 1 61.6364C1.62011 61.6364 4.29278 61.6364 4.55415 61.6364C4.50546 60.8421 4.56337 58.0182 4.61308 57.4378" fill="url(#paint0_linear_5027_8762)"/>
<path d="M62.6414 66.7521H58.7413C58.7403 66.7521 58.6311 70.6637 58.5953 70.893C58.5953 71.212 58.3147 72.3331 56.4941 72.3408C54.6722 72.3485 45.7702 72.4113 45.7702 72.4113L45.7984 65.5144C45.7984 65.5144 48.2455 65.4914 48.5056 65.5093C49.3461 65.4465 50.0277 65.8668 50.0546 66.9494C50.0802 67.8885 50.1276 68.7226 50.1276 68.7226L53.961 68.7187V58.5458H50.2275C50.2275 58.5458 50.0725 60.1794 50.0468 60.3805C50.0212 60.5817 50.0072 61.6028 48.8464 61.5733C47.6856 61.5426 45.8227 61.5515 45.8227 61.5515L45.7701 55.4222C45.7701 55.4222 55.2319 55.4709 55.7329 55.4709C56.8937 55.4709 57.852 55.8975 57.852 57.3184C57.852 58.6817 58.0288 60.6778 58.0288 60.6778L61.6432 60.6906V51.7682L33.9918 51.6938V55.2288C33.9918 55.2288 36.494 55.3633 36.8348 55.3915C37.2346 55.4171 37.8534 55.4991 37.8355 56.5189C37.815 57.5388 37.8662 70.3126 37.8662 70.6111C37.7957 71.4926 37.9162 72.3331 36.3352 72.3267C34.7528 72.3933 33.7765 72.3895 33.7765 72.3895L33.7725 76.1614L62.641 76.3254V66.7521" fill="url(#paint1_linear_5027_8762)"/>
<path d="M77.1711 72.5535C77.1711 72.5535 74.8649 72.3844 74.5343 72.3588C74.1308 72.3537 73.5311 72.2653 73.8438 71.4094C74.1538 70.5535 74.7893 69.1942 74.7893 69.1942L85.7245 69.2121C85.7245 69.2121 86.9033 71.1442 86.9571 71.3043C87.0109 71.4645 87.1185 72.1935 86.6457 72.3024C86.1845 72.4075 83.1326 72.5971 83.1326 72.5971L83.1316 76.4779L100.236 76.4625L100.234 72.5138L96.0597 72.4472L85.4204 51.5248L77.8202 51.521L68.3007 72.1538L64.3545 72.6138V76.3819H77.1719V72.5536L77.1711 72.5535ZM80.0769 57.5312L83.9629 65.2915L76.4831 65.2236L80.0769 57.5312Z" fill="url(#paint2_linear_5027_8762)"/>
<path d="M106.74 75.722C111.427 78.0193 118.133 77.8591 122.342 75.7669C126.361 73.494 128.921 69.0904 129 66.4267C128.22 66.446 124.479 66.4075 124.479 66.4075C124.479 66.4075 122.4 71.1391 119.496 72.1167C114.649 74.3152 109.873 71.7323 108.099 68.7278C106.261 66.2076 105.741 62.264 108.341 58.332C110.626 55.0764 113.909 55.0866 114.93 55.002C121.255 54.9367 123.278 59.3864 124.121 61.6388C124.72 61.6081 128.11 61.6388 128.11 61.6388C128.097 61.2672 128.243 51.2327 128.243 51.2327H124.259C124.259 51.2327 124.014 52.5421 123.875 52.7279C123.738 52.9149 123.392 53.3557 121.974 52.7842C120.535 52.1142 117.172 50.9162 112.968 51.0046C105.701 51.1135 98.8147 55.8976 98.4432 63.0046C98.0332 70.4318 103.378 74.5151 106.74 75.722Z" fill="url(#paint3_linear_5027_8762)"/>
</g>
<defs>
<linearGradient id="paint0_linear_5027_8762" x1="15.9141" y1="51.6572" x2="15.9141" y2="75.9426" gradientUnits="userSpaceOnUse">
<stop stop-color="#255BB3"/>
<stop offset="0.510417" stop-color="#758BAF"/>
<stop offset="0.53125" stop-color="#1F4F9E"/>
<stop offset="1" stop-color="#1A468E"/>
</linearGradient>
<linearGradient id="paint1_linear_5027_8762" x1="48.2069" y1="51.6938" x2="48.2069" y2="76.3254" gradientUnits="userSpaceOnUse">
<stop stop-color="#255BB3"/>
<stop offset="0.510417" stop-color="#758BAF"/>
<stop offset="0.53125" stop-color="#1F4F9E"/>
<stop offset="1" stop-color="#1A468E"/>
</linearGradient>
<linearGradient id="paint2_linear_5027_8762" x1="82.2952" y1="51.521" x2="82.2952" y2="76.4779" gradientUnits="userSpaceOnUse">
<stop stop-color="#255BB3"/>
<stop offset="0.510417" stop-color="#758BAF"/>
<stop offset="0.53125" stop-color="#1F4F9E"/>
<stop offset="1" stop-color="#1A468E"/>
</linearGradient>
<linearGradient id="paint3_linear_5027_8762" x1="113.711" y1="51" x2="113.711" y2="77.3908" gradientUnits="userSpaceOnUse">
<stop stop-color="#255BB3"/>
<stop offset="0.510417" stop-color="#758BAF"/>
<stop offset="0.53125" stop-color="#1F4F9E"/>
<stop offset="1" stop-color="#1A468E"/>
</linearGradient>
<clipPath id="clip0_5027_8762">
<rect width="128" height="128" fill="white"/>
</clipPath>
</defs>
</svg>
