<svg width="128" height="128" viewBox="0 0 128 128" fill="none" xmlns="http://www.w3.org/2000/svg">
<path d="M120.6 66.0004H128V78.3004H119.6C120.2 75.1004 120.6 71.9004 120.6 68.6004C120.6 67.7004 120.6 66.8004 120.6 66.0004ZM121.3 4.90039H6.8C3.1 4.90039 0 8.00039 0 11.7004V14.2004H128V11.7004C128 8.00039 125.1 4.90039 121.3 4.90039ZM103.5 30.3004H128V17.8004H81.5C89.9 20.4004 97.3 24.6004 103.5 30.3004ZM120.2 62.3004H128V49.9004H117C118.6 53.8004 119.6 58.0004 120.2 62.3004ZM115.4 46.2004H128V33.9004H107.1C110.5 37.6004 113.2 41.8004 115.4 46.2004ZM7.7 68.6004C7.7 67.7004 7.7 66.8004 7.7 66.0004H0V78.3004H8.7C8.1 75.1004 7.7 71.9004 7.7 68.6004ZM21.3 33.9004H0V46.2004H12.9C15.1 41.8004 17.9 37.6004 21.3 33.9004ZM9.6 81.9004H0V94.5004H14.9C12.6 90.6004 10.8 86.4004 9.6 81.9004ZM46.8 17.8004H0V30.3004H24.8C31 24.6004 38.4 20.4004 46.8 17.8004ZM11.3 49.9004H0V62.4004H8.1C8.7 58.0004 9.7 53.8004 11.3 49.9004ZM113.4 94.5004H128V81.9004H118.9C117.6 86.4004 115.7 90.6004 113.4 94.5004ZM99.2 110.3H128V98.1004H111C107.7 102.8 103.8 106.9 99.2 110.3ZM17.3 98.1004H0V110.3H29.1C24.5 106.9 20.5 102.8 17.3 98.1004ZM96.8 113.8H92.5C92.4 113.7 92.3 113.5 92.2 113.5L100.3 105.7C100.8 105.2 100.9 104.4 100.6 103.7C100.6 103.6 100.5 103.6 100.5 103.6L104 101C104.6 100.6 104.7 99.9004 104.6 99.3004C104.4 98.6004 104 98.0004 103.3 97.9004L101.7 97.8004C101.7 97.8004 101 97.6004 100.5 97.5004L103.3 94.9004L106.1 92.4004L109 89.9004C109.6 89.4004 109.6 88.6004 109.3 87.9004C109 87.2004 108.3 86.8004 107.6 86.9004H107L107.1 86.5004L111.4 81.6004C111.9 81.0004 112 80.2004 111.5 79.6004C111.3 79.3004 111.1 79.0004 110.8 78.9004L112.8 75.9004C113.3 75.2004 113.2 74.3004 112.7 73.7004C112.1 73.1004 111.2 73.0004 110.5 73.4004L107.5 75.0004L104.6 76.7004L101.6 78.4004C101.6 77.9004 101.6 77.5004 101.6 77.5004L101.7 75.3004L101.8 73.3004C101.9 72.5004 101.4 71.8004 100.6 71.6004C99.9 71.3004 99 71.4004 98.6 72.0004L97.6 73.4004C97.4 73.2004 97 72.9004 96.7 72.8004C96.4 72.7004 96.1 72.7004 95.8 72.8004L98.8 68.2004C99.2 67.6004 99.1 66.8004 98.7 66.2004C98.4 65.8004 97.9 65.5004 97.4 65.5004L100.2 60.1004C100.5 59.4004 100.4 58.6004 99.9 58.1004C99.4 57.6004 98.7 57.5004 98 57.8004L95.5 58.8004L93 60.0004L90.8 60.9004L90.9 58.7004L92.1 54.9004C92.3 54.2004 92.1 53.5004 91.5 53.0004C91.2 52.8004 90.8 52.6004 90.5 52.6004L91.8 42.7004C91.9 41.9004 91.6 41.1004 90.8 40.8004C90 40.5004 89.1 40.8004 88.6 41.5004L86.6 44.8004C86.3 44.3004 85.9 44.0004 85.3 43.9004C84.5 43.8004 83.9 44.2004 83.6 44.9004L80.4 52.3004C80.3 52.3004 80.2 52.3004 80.1 52.3004C79.4 52.3004 78.7 52.7004 78.4 53.3004L77.2 55.8004C76.7 55.7004 76.2 55.8004 75.8 56.1004L75.5 56.2004L74.8 49.0004C74.7 48.4004 74.4 47.8004 73.8 47.6004C73.2 47.4004 72.6 47.5004 72.1 47.9004L67.3 39.1004C67 38.5004 66.3 38.1004 65.6 38.2004C64.9 38.3004 64.2 38.8004 64 39.5004L63.6 41.5004C63.6 41.5004 63.3 42.3004 63.2 42.9004L59.9 35.2004C59.6 34.5004 58.9 34.1004 58.2 34.2004C57.9 34.2004 57.7 34.3004 57.5 34.5004L55.5 29.7004C55.2 29.0004 54.6 28.5004 53.9 28.5004C53.2 28.5004 52.6 29.0004 52.3 29.7004L51.7 31.3004L50.7 28.3004C50.5 27.6004 49.8 27.2004 49.1 27.1004C48.6 27.1004 48.1 27.2004 47.8 27.5004L46.5 24.9004C46.4 24.8004 44.2 21.3004 44.2 21.3004C43.8 20.6004 43 20.3004 42.2 20.6004C41.4 20.9004 40.9 21.7004 41 22.5004L42 32.0004L41.6 31.9004C41 31.6004 40.3 31.6004 39.7 32.0004C39.2 32.5004 38.9 33.2004 39.1 33.9004L42.1 43.2004L39.1 41.5004C38.4 41.1004 37.5 41.3004 36.9 41.9004C36.4 42.5004 36.3 43.4004 36.8 44.1004L39.8 48.6004C39.3 48.6004 38.7 48.8004 38.4 49.2004C37.9 49.8004 37.7 50.6004 38.1 51.2004L41.3 56.7004L39.3 55.1004C38.7 54.6004 37.8 54.6004 37.1 55.1004C36.5 55.6004 36.3 56.5004 36.7 57.3004L42.5 69.9004L41 69.0004C40.4 68.6004 39.6 68.7004 39 69.1004C38.4 69.6004 38.2 70.4004 38.4 71.1004L40.3 76.2004L35.1 72.7004C34.5 72.3004 33.8 72.4004 33.2 72.7004C32.6 73.0004 32.3 73.6004 32.3 74.3004L32.4 75.2004L31.4 74.5004L26.2 68.0004C25.7 67.4004 24.8 67.1004 24 67.4004C23.4 67.7004 23.2 68.4004 23.1 69.0004L19 65.1004C18.4 64.6004 17.5 64.5004 16.8 65.0004C16.1 65.4004 15.8 66.3004 16.1 67.0004L17.8 71.9004C17.6 72.0004 17.5 72.0004 17.4 72.2004C16.9 72.8004 16.8 73.6004 17.1 74.2004L20.4 80.7004C20.4 80.7004 21 81.7004 21.7 82.7004H19.5C18.8 82.7004 18.3 83.1004 18.1 83.7004C17.8 84.3004 17.8 85.1004 18.2 85.6004L22.8 91.5004C22.2 91.6004 21.7 91.9004 21.5 92.5004C21.2 93.1004 21.3 93.9004 21.8 94.4004L29.8 102.7H29.2C28.5 102.6 27.8 102.9 27.5 103.6C27.2 104.2 27.3 105.1 27.8 105.6L29.8 107.9C29.6 108.1 29.4 108.3 29.4 108.5C29.2 109.2 29.4 109.9 30 110.4L34.1 113.9H0V116.4C0 120.1 3.1 123.1 6.8 123.1H121.3C125 123.1 128 120.2 128 116.4V113.9H96.8V113.8Z" fill="url(#paint0_linear_5027_8259)"/>
<defs>
<linearGradient id="paint0_linear_5027_8259" x1="64" y1="123.072" x2="64" y2="4.92909" gradientUnits="userSpaceOnUse">
<stop stop-color="#0064CF"/>
<stop offset="0.5" stop-color="#7AB7F8"/>
<stop offset="1" stop-color="#1C7AE0"/>
</linearGradient>
</defs>
</svg>
