<svg width="128" height="128" viewBox="0 0 128 128" fill="none" xmlns="http://www.w3.org/2000/svg">
<g clip-path="url(#clip0_5027_4453)">
<path d="M79.7834 98.7336C78.1065 98.7336 59.8842 98.7336 59.8842 98.7336C38.9093 98.7336 31.1114 91.9005 31.1114 73.5153C31.1114 44.9726 44.5684 29.2539 68.9973 29.2539C68.9973 29.2539 94.2656 29.2539 95.3934 29.2539L99.5407 11H62.6825C41.413 11 28.4636 14.6084 19.3458 23.0598C7.35273 34.2155 0 55.2199 0 78.5145C0 107.229 10.3914 116.994 41.0935 116.994H75.7132L79.7834 98.7336Z" fill="#0098DD"/>
<path d="M77.7857 48.2014L91.5058 48.2078L94.4294 34.874L70.0254 34.8718C48.5955 34.8718 36.9219 48.4897 36.9219 73.5951C36.9219 88.0337 43.0805 93.0372 60.9897 93.0372H81.365L84.5162 79.0121H72.6612C71.2683 79.0121 68.8561 78.8744 67.6573 78.7992C67.6073 78.7868 67.5115 78.7615 67.5115 78.7615C66.6069 78.6948 66.083 78.6029 65.1768 78.4108C64.7298 78.3146 64.3997 78.2603 63.9989 78.1521C63.41 77.9848 63.0572 77.8848 62.7249 77.7719C59.3419 76.6693 57.7821 74.1802 57.7257 69.1053C57.8424 55.611 65.0219 48.2014 77.7857 48.2014Z" fill="#FFE600"/>
<path d="M103.62 34.8735H94.1289L91.2052 47.9046L77.483 47.8965C64.6128 47.8965 57.4102 55.4246 57.4102 69.1301C57.4102 76.3096 60.386 78.2684 66.9394 78.753C66.9394 78.753 67.7994 78.8116 68.9063 78.8697C61.8688 78.3142 59.5195 75.8836 59.5195 69.7314C59.5195 57.1849 66.1832 50.2936 77.7734 50.2936L92.5105 50.2958C101.701 50.2958 104.1 52.098 104.1 58.9914C104.1 72.0328 98.1842 79.0079 87.2312 79.0079L84.2135 79.0121L81.0645 93.0329H93.8659C115.611 93.0329 128.001 79.743 128.001 56.3663C128.001 40.6186 121.527 34.8735 103.62 34.8735Z" fill="#0098DD"/>
</g>
<defs>
<clipPath id="clip0_5027_4453">
<rect width="128" height="128" fill="white"/>
</clipPath>
</defs>
</svg>
