<svg width="128" height="128" viewBox="0 0 128 128" fill="none" xmlns="http://www.w3.org/2000/svg">
<path d="M64.1694 43.0908C67.1528 43.0908 69.6651 41.5336 69.9921 39.5315L72.9496 6.03245C72.9496 2.71526 69.0437 0 64.1694 0C59.2687 0 55.3887 2.71526 55.3887 6.03245L58.3721 39.5315C58.6864 41.5336 61.1855 43.0908 64.1694 43.0908Z" fill="#FCB61A"/>
<path d="M46.0236 53.5735C47.5019 50.9564 47.4169 48.0514 45.8207 46.7559L18.21 27.4482C15.3379 25.7732 11.039 27.7688 8.57908 31.9954C6.12551 36.2155 6.62271 40.9525 9.43606 42.5947L40.0039 56.7664C41.9603 57.4992 44.5184 56.1383 46.0236 53.5473" fill="#FCB61A"/>
<path d="M82.3097 53.5461C83.873 56.1371 86.4312 57.498 88.3353 56.8045L118.903 42.5935C121.743 40.9186 122.168 36.2274 119.767 32.0073C117.313 27.7807 112.989 25.7982 110.123 27.4405L82.5057 46.7286C80.9747 48.0437 80.8636 50.9618 82.342 53.5723" fill="#FCB61A"/>
<path d="M64.1694 84.9354C67.1528 84.9354 69.6651 86.4926 69.9921 88.4947L72.9496 121.994C72.9496 125.311 69.0437 128 64.1694 128C59.2687 128 55.3887 125.311 55.3887 121.994L58.3721 88.4947C58.6864 86.4926 61.1855 84.9354 64.1694 84.9354Z" fill="#FCB61A"/>
<path d="M82.3097 74.4819C83.873 71.8844 86.4312 70.4973 88.3353 71.2497L118.903 85.4345C121.743 87.0767 122.168 91.8071 119.767 96.0338C117.313 100.228 112.989 102.223 110.123 100.581L82.5057 81.2667C80.9747 79.9647 80.8636 77.0597 82.342 74.4819" fill="#FCB61A"/>
<path d="M46.0236 74.454C47.5019 77.0646 47.4169 79.963 45.8207 81.2716L18.21 100.553C15.3379 102.228 11.039 100.226 8.57908 96.0321C6.12551 91.812 6.62271 87.075 9.43606 85.4328L40.0039 71.248C41.9603 70.5022 44.5184 71.8761 46.0236 74.454Z" fill="#FCB61A"/>
</svg>
