<svg width="128" height="128" viewBox="0 0 128 128" fill="none" xmlns="http://www.w3.org/2000/svg">
<path d="M30.1123 41C33.2339 41 35.3846 41.6122 36.8291 42.9082L37.1299 43.165C38.5661 44.6339 39.2354 46.8978 39.2354 50.2871V76.6943C39.2353 83.6251 36.5968 86.4541 30.1338 86.4541H6.31641C5.22834 86.4541 4.91301 85.7738 5.60938 84.9414L9.96094 79.7188C10.8036 78.8181 11.961 78.2762 13.1924 78.2061H27.3047C29.1924 78.2061 29.7636 77.521 29.7637 75.2744V51.9297C29.7637 49.7427 29.0075 49.373 27.3047 49.373H11.3701C9.26486 49.3731 8.91113 50.1616 8.91113 51.9297V61.9072C8.91114 62.8155 9.07453 63.3757 9.40625 63.7021C9.73809 64.0285 10.3801 64.1816 11.3701 64.1816H25.1836C26.2658 64.1818 26.4727 64.7852 25.6406 65.4814L18.998 71.0576C17.9901 71.8184 16.7768 72.2599 15.5156 72.3252H9.10156C2.55156 72.3252 5.55104e-05 69.8337 0 63.5068V50.2871C0 46.8978 0.663782 44.6664 2.10547 43.1758C3.54715 41.6853 5.76686 41 9.10156 41H30.1123ZM76.5234 41C78.895 41 80.7314 41.1144 82.3682 42.5049L82.6924 42.8174C84.2755 44.3733 84.5537 46.0322 84.5537 48.9316V55.46C84.5537 56.8636 84.5536 58.589 83.5635 59.96C82.4264 61.5266 80.2555 62.288 76.9209 62.2881H58.9678C57.8852 62.2881 57.6782 61.7168 58.5049 61.0205L64.7012 55.8467C65.7091 55.0859 66.9224 54.6444 68.1836 54.5791H74.7988C76.1698 54.5791 76.1699 54.3773 76.1699 53.7734V50.2266C76.1699 49.0136 75.9195 48.8994 74.75 48.8994H56.7207C55.0832 48.8994 54.3057 49.2801 54.3057 51.4561V63.1309C54.3057 65.0458 54.773 65.541 56.5791 65.541H79.1289C80.2115 65.541 80.424 66.1234 79.6025 66.8252L72.9385 72.5537C71.9407 73.3291 70.7296 73.781 69.4678 73.8486H54.0059C50.6766 73.8486 48.446 73.1416 47.0098 71.6729C45.5735 70.204 44.9043 67.9401 44.9043 64.5508V50.2979C44.9043 46.9085 45.5681 44.6664 47.0098 43.1758C48.4514 41.6853 50.6766 41 54.0059 41H76.5234ZM119.976 41C126.797 41.0001 128 43.9982 128 50.2871V64.5625C128 70.8511 126.797 73.8485 119.976 73.8486H98.9375C95.6082 73.8486 93.3722 73.1416 91.9414 71.6729C90.5106 70.204 89.8418 67.9401 89.8418 64.5508V50.2979C89.8418 46.9085 90.4943 44.6664 91.9414 43.1758C93.3885 41.6853 95.6082 41 98.9375 41H119.976ZM101.32 48.8066C99.0844 48.8067 98.29 49.623 98.29 51.9297V62.9082C98.2808 63.3878 98.332 63.8671 98.4424 64.334C98.7689 65.5795 99.6449 66.0801 101.32 66.0801H116.417C118.62 66.0801 119.442 65.2203 119.442 62.9082L119.447 51.9297C119.447 49.623 118.659 48.8067 116.423 48.8066H101.32Z" fill="white"/>
<path d="M30.1123 41C33.2339 41 35.3846 41.6122 36.8291 42.9082L37.1299 43.165C38.5661 44.6339 39.2354 46.8978 39.2354 50.2871V76.6943C39.2353 83.6251 36.5968 86.4541 30.1338 86.4541H6.31641C5.22834 86.4541 4.91301 85.7738 5.60938 84.9414L9.96094 79.7188C10.8036 78.8181 11.961 78.2762 13.1924 78.2061H27.3047C29.1924 78.2061 29.7636 77.521 29.7637 75.2744V51.9297C29.7637 49.7427 29.0075 49.373 27.3047 49.373H11.3701C9.26486 49.3731 8.91113 50.1616 8.91113 51.9297V61.9072C8.91114 62.8155 9.07453 63.3757 9.40625 63.7021C9.73809 64.0285 10.3801 64.1816 11.3701 64.1816H25.1836C26.2658 64.1818 26.4727 64.7852 25.6406 65.4814L18.998 71.0576C17.9901 71.8184 16.7768 72.2599 15.5156 72.3252H9.10156C2.55156 72.3252 5.55104e-05 69.8337 0 63.5068V50.2871C0 46.8978 0.663782 44.6664 2.10547 43.1758C3.54715 41.6853 5.76686 41 9.10156 41H30.1123ZM76.5234 41C78.895 41 80.7314 41.1144 82.3682 42.5049L82.6924 42.8174C84.2755 44.3733 84.5537 46.0322 84.5537 48.9316V55.46C84.5537 56.8636 84.5536 58.589 83.5635 59.96C82.4264 61.5266 80.2555 62.288 76.9209 62.2881H58.9678C57.8852 62.2881 57.6782 61.7168 58.5049 61.0205L64.7012 55.8467C65.7091 55.0859 66.9224 54.6444 68.1836 54.5791H74.7988C76.1698 54.5791 76.1699 54.3773 76.1699 53.7734V50.2266C76.1699 49.0136 75.9195 48.8994 74.75 48.8994H56.7207C55.0832 48.8994 54.3057 49.2801 54.3057 51.4561V63.1309C54.3057 65.0458 54.773 65.541 56.5791 65.541H79.1289C80.2115 65.541 80.424 66.1234 79.6025 66.8252L72.9385 72.5537C71.9407 73.3291 70.7296 73.781 69.4678 73.8486H54.0059C50.6766 73.8486 48.446 73.1416 47.0098 71.6729C45.5735 70.204 44.9043 67.9401 44.9043 64.5508V50.2979C44.9043 46.9085 45.5681 44.6664 47.0098 43.1758C48.4514 41.6853 50.6766 41 54.0059 41H76.5234ZM119.976 41C126.797 41.0001 128 43.9982 128 50.2871V64.5625C128 70.8511 126.797 73.8485 119.976 73.8486H98.9375C95.6082 73.8486 93.3722 73.1416 91.9414 71.6729C90.5106 70.204 89.8418 67.9401 89.8418 64.5508V50.2979C89.8418 46.9085 90.4943 44.6664 91.9414 43.1758C93.3885 41.6853 95.6082 41 98.9375 41H119.976ZM101.32 48.8066C99.0844 48.8067 98.29 49.623 98.29 51.9297V62.9082C98.2808 63.3878 98.332 63.8671 98.4424 64.334C98.7689 65.5795 99.6449 66.0801 101.32 66.0801H116.417C118.62 66.0801 119.442 65.2203 119.442 62.9082L119.447 51.9297C119.447 49.623 118.659 48.8067 116.423 48.8066H101.32Z" fill="url(#paint0_linear_5027_4643)"/>
<defs>
<linearGradient id="paint0_linear_5027_4643" x1="64.729" y1="41" x2="64.729" y2="73.8488" gradientUnits="userSpaceOnUse">
<stop stop-color="white"/>
<stop offset="0.421875" stop-color="#E8E8E8"/>
<stop offset="1" stop-color="#A4A4A4"/>
</linearGradient>
</defs>
</svg>
