<svg width="128" height="128" viewBox="0 0 128 128" fill="none" xmlns="http://www.w3.org/2000/svg">
<g clip-path="url(#clip0_5027_8715)">
<path d="M0 46H128.037V82.5643H0V46Z" fill="black"/>
<path fill-rule="evenodd" clip-rule="evenodd" d="M126.938 71.8416C126.938 70.809 126.089 69.9606 125.044 69.9606C123.998 69.9606 123.163 70.809 123.163 71.8416C123.163 72.8865 123.998 73.7224 125.044 73.7224C126.089 73.7103 126.938 72.8865 126.938 71.8416Z" fill="white"/>
<path fill-rule="evenodd" clip-rule="evenodd" d="M14.8502 71.4852H15.8458V73.2559H5.82471V71.4852H7.10357C8.2597 71.4852 8.72643 70.7596 8.72643 69.7395V59.2265H5.96003C4.81648 59.2265 3.29199 59.2997 3.5006 61.5624H1.37402V56.7301H20.4318V61.5624H18.3052C18.4036 59.4846 17.235 59.2265 16.1653 59.2265H12.9566V69.5176C12.9566 71.0672 13.4973 71.4852 14.8502 71.4852Z" fill="white"/>
<path fill-rule="evenodd" clip-rule="evenodd" d="M23.2724 68.485H33.7359C33.8594 68.0915 33.9452 67.6861 33.9452 67.28C33.9452 63.8864 31.5109 61.194 26.3339 61.194C21.1332 61.194 18.6982 63.8864 18.6982 67.28C18.6982 70.6855 20.7153 73.4774 26.3339 73.4774C30.9081 73.4774 33.1338 71.6204 33.5761 69.0752H30.2565C29.9983 70.6367 28.658 71.5709 26.6046 71.5709C24.2806 71.5709 23.5061 70.2558 23.2724 68.485Z" fill="white"/>
<path fill-rule="evenodd" clip-rule="evenodd" d="M48.1099 62.0912V65.8784H45.9826V65.3125C45.9826 63.7267 44.3472 63.3087 43.2162 63.2962C39.8351 63.2718 39.5149 65.817 39.5644 67.698C39.6014 69.3578 40.1546 71.4607 42.7487 71.5221C44.126 71.5591 45.6017 70.3661 45.8228 69.0383H48.368C48.1099 70.8705 46.6343 73.5389 42.0357 73.4274C36.6996 73.3045 34.9533 70.4156 34.9659 67.2926C35.0273 62.1038 39.847 61.1814 43.2902 61.2059C45.22 61.2185 46.6838 61.7221 48.1099 62.0912Z" fill="white"/>
<path fill-rule="evenodd" clip-rule="evenodd" d="M107.94 62.0911V65.8783H105.813V65.3124C105.813 63.7266 104.165 63.3086 103.034 63.2961C99.6651 63.2717 99.3458 65.8169 99.3951 67.6979C99.4437 69.3577 99.9731 71.4606 102.579 71.522C103.944 71.559 105.431 70.3659 105.654 69.0382H108.186C107.94 70.8703 106.465 73.5387 101.853 73.4273C96.518 73.3044 94.7712 70.4154 94.7962 67.2925C94.8569 62.1037 99.6651 61.1813 103.108 61.2058C105.039 61.2183 106.514 61.6732 107.94 62.0911Z" fill="white"/>
<path fill-rule="evenodd" clip-rule="evenodd" d="M94.2305 71.5464H94.8828V73.2187H86.5459V71.4969H87.5661C88.1691 71.4969 88.6728 70.9318 88.6728 70.0464V64.9685C88.6728 63.8124 88.3535 63.3456 87.5661 63.3456H86.5952V61.6362H92.8416V69.9111C92.8416 70.6122 93.0624 71.5464 94.2305 71.5464Z" fill="white"/>
<path fill-rule="evenodd" clip-rule="evenodd" d="M75.3317 71.5465H75.9961V73.2188H67.6592V71.497H68.6801C69.2824 71.497 69.7868 70.9319 69.7868 70.0465V64.8821C69.7868 63.7022 69.1595 63.2473 68.3722 63.2473H67.7085V61.5254H73.4262V62.5336C74.938 61.4145 76.9549 61.1319 78.4545 61.1688C80.57 61.2058 83.2385 62.214 83.2385 65.4109V69.5546C83.2385 70.3416 83.2999 71.5221 84.5173 71.5221H85.2789V73.2066H76.9799V71.5591H77.9637C78.9346 71.5591 79.1318 70.5013 79.1318 69.7883V65.5093C79.1318 64.4272 78.4917 63.3206 76.672 63.3331C75.6024 63.3331 74.6801 63.7392 73.9549 64.7104V69.9111C73.9549 70.6242 74.1635 71.5465 75.3317 71.5465Z" fill="white"/>
<path fill-rule="evenodd" clip-rule="evenodd" d="M54.7866 62.8161C56.115 61.3782 57.7623 61.1319 59.4221 61.1688C61.5251 61.2184 64.1805 62.214 64.1805 65.4109V69.5546C64.1805 70.3416 64.2419 71.5221 65.4468 71.5221H66.222V73.2066H57.9465V71.5591H58.9302C59.9015 71.5591 60.0982 70.5013 60.0982 69.7883V65.5093C60.0982 64.4272 59.3977 63.3946 57.6514 63.3331C56.496 63.2836 55.5248 63.7755 54.7866 64.8946V69.9111C54.7866 70.6242 54.9959 71.5465 56.1758 71.5465H56.8155V73.2188H48.4912V71.497H49.5119C50.1022 71.497 50.6186 70.9319 50.6186 70.0465V60.1118C50.6186 58.9432 50.299 58.4883 49.4994 58.4883H48.5282V56.767H54.7866V62.8161Z" fill="white"/>
<path fill-rule="evenodd" clip-rule="evenodd" d="M90.702 56.2632C92.2023 56.2632 93.4069 57.185 93.4069 58.3166C93.4069 59.4601 92.2023 60.3818 90.702 60.3818C89.2016 60.3818 87.9971 59.4601 87.9971 58.3166C87.9971 57.185 89.2016 56.2632 90.702 56.2632Z" fill="white"/>
<path fill-rule="evenodd" clip-rule="evenodd" d="M109.686 72.4686V69.0508H111.678C111.469 71.6819 113.769 71.5961 114.862 71.6079C115.908 71.6204 117.715 71.2758 117.679 70.1818C117.617 68.6447 115.305 68.5345 113.596 68.0545C111.912 67.5626 109.305 66.7023 109.404 64.8695C109.538 62.3619 112.576 61.2303 115.993 61.2058C117.924 61.2058 119.953 61.5749 121.724 62.1037V65.6816H119.806C119.904 63.1482 118.073 63.0994 116.314 63.112C115.293 63.1238 113.474 63.407 113.559 64.4153C113.658 65.4723 116.227 65.8288 117.814 66.3577C119.535 66.9479 121.982 67.5877 121.97 69.8748C121.933 72.4564 117.765 73.3416 115.109 73.3902C113.277 73.4273 111.494 72.9608 109.686 72.4686Z" fill="white"/>
<path fill-rule="evenodd" clip-rule="evenodd" d="M29.7771 66.2474H23.2109C23.5431 64.5751 24.6496 63.3331 26.6046 63.3331C28.5596 63.3331 29.6661 64.4397 29.7771 66.2474Z" fill="black"/>
<path fill-rule="evenodd" clip-rule="evenodd" d="M126.716 71.8416C126.716 72.7643 125.966 73.5138 125.044 73.5138C124.122 73.5138 123.384 72.7643 123.384 71.8542C123.372 70.9193 124.122 70.1818 125.044 70.1818C125.966 70.1818 126.716 70.9193 126.716 71.8416Z" fill="black"/>
<path fill-rule="evenodd" clip-rule="evenodd" d="M124.343 72.8252H124.613V71.9401H125.289C125.732 71.9401 125.609 72.3208 125.646 72.5673L125.695 72.8252H126.015C125.892 72.653 125.929 72.6037 125.916 72.3337C125.88 71.9646 125.88 71.9401 125.658 71.8048C125.867 71.645 125.941 71.5466 125.929 71.2759C125.904 70.8092 125.597 70.7478 125.277 70.7478H124.343V72.8252Z" fill="white"/>
<path fill-rule="evenodd" clip-rule="evenodd" d="M125.277 70.9807C125.437 70.9807 125.695 71.0303 125.659 71.3868C125.634 71.6575 125.461 71.7064 125.277 71.7064H124.613V70.9807H125.277Z" fill="black"/>
</g>
<defs>
<clipPath id="clip0_5027_8715">
<rect width="128" height="128" fill="white"/>
</clipPath>
</defs>
</svg>
