<svg width="128" height="128" viewBox="0 0 128 128" fill="none" xmlns="http://www.w3.org/2000/svg">
<g clip-path="url(#clip0_5027_8814)">
<path d="M12.3671 72.5627L15.8864 55H11.2276L7.6748 72.5292L12.3671 72.5627Z" fill="#00B5F0"/>
<path d="M4.72584 72.5627L8.24509 55H3.55276L0 72.5292L4.72584 72.5627Z" fill="#00B5F0"/>
<path d="M55.6377 62.3066H49.3031C49.3031 62.3066 50.7107 58.5527 53.2245 58.7873C56.308 59.022 55.6377 62.3066 55.6377 62.3066ZM53.0904 55.5362C45.5492 55.5697 44.7448 64.0159 44.7783 64.9209C44.8118 65.7923 45.08 71.0879 50.5767 72.127C53.9283 72.7638 56.8778 71.3226 56.8778 71.3226L57.5481 67.4681C57.5481 67.4681 55.5707 69.2445 52.3531 68.9764C49.1355 68.7083 49.0014 65.4907 49.0014 65.4907H59.1234C59.1234 65.4236 61.6707 55.4692 53.0904 55.5362Z" fill="white"/>
<path d="M101.957 61.9043C102.125 65.6582 100.181 68.9763 97.1979 68.9428C95.388 68.9093 94.416 67.7697 94.3154 65.6917C94.1478 62.2395 95.8907 58.7537 99.0413 58.7873C100.952 58.7873 101.857 60.0944 101.957 61.9043ZM106.214 61.5021C105.845 57.7482 103.432 55.5697 99.1753 55.5026C93.4105 55.4356 89.489 60.3961 90.0588 66.1274C90.4275 69.7137 92.6731 72.0263 97.1308 72.0598C102.661 72.1604 106.817 67.7027 106.214 61.5021Z" fill="white"/>
<path d="M21.3162 55.9048H31.8739L31.2371 58.9213H24.869L24.0646 62.3735H30.3322L29.6954 65.39H23.5953L22.2547 71.7917H17.998L21.3162 55.9048Z" fill="white"/>
<path d="M105.979 71.8253H109.834L112.582 58.8209L113.119 71.7918H117.241L123.308 58.9214L120.425 71.8253H124.682L128 55.8714H121.163L116.303 66.4291L116.034 55.8379H109.398L105.979 71.8253Z" fill="white"/>
<path d="M37.7393 62.5079H35.7618L36.5662 58.8546H38.3426C38.3426 58.8546 40.6553 58.8881 40.5212 60.5974C40.3871 62.3738 37.7393 62.5079 37.7393 62.5079ZM44.6772 59.8601C44.8113 55.6705 39.7838 55.9386 39.4822 55.8716H33.0135L29.6953 71.792L33.9184 71.8255L35.2256 65.4573H36.7003C36.7003 65.4573 37.5717 65.4238 37.7058 66.0942C37.7728 66.4293 38.9459 71.792 38.9459 71.792H43.102C43.102 71.792 41.8954 65.8931 41.225 65.0216C40.7558 64.2843 40.052 63.9826 40.052 63.9826C40.052 63.9826 44.5432 64.3178 44.6772 59.8601Z" fill="white"/>
<path d="M71.2227 62.3066H64.888C64.888 62.3066 66.2957 58.5527 68.8095 58.7873C71.893 59.022 71.2227 62.3066 71.2227 62.3066ZM68.6754 55.5362C61.1342 55.5697 60.3298 64.0159 60.3633 64.9209C60.3968 65.7923 60.6649 71.0879 66.1616 72.127C69.5133 72.7638 72.4628 71.3226 72.4628 71.3226L73.1331 67.4681C73.1331 67.4681 71.1556 69.2445 67.938 68.9764C64.7204 68.7083 64.5864 65.4907 64.5864 65.4907H74.7084C74.7084 65.4236 77.2556 55.4692 68.6754 55.5362Z" fill="white"/>
<path d="M89.9916 59.7593C89.9916 59.7593 81.7801 55.8379 80.5399 63.5802C79.2328 71.7583 88.5169 68.2055 88.5169 68.2055L88.1147 71.6577C88.1147 71.6577 74.2053 75.1434 76.1158 62.9099C77.7581 52.2516 91.0642 56.3741 91.0642 56.3741L89.9916 59.7593Z" fill="white"/>
</g>
<defs>
<clipPath id="clip0_5027_8814">
<rect width="128" height="128" fill="white"/>
</clipPath>
</defs>
</svg>
