<svg width="128" height="128" viewBox="0 0 128 128" fill="none" xmlns="http://www.w3.org/2000/svg">
<g clip-path="url(#clip0_5027_8534)">
<path d="M13.1924 55.0195C17.3141 55.1417 21.854 56.216 24.0566 57.0547L21.9863 60.4502C19.2612 59.2908 16.3395 58.4804 13.2412 58.1523C9.96523 57.8051 7.6529 58.116 7.65234 59.3242C7.65234 60.4158 10.5115 60.8225 13.876 61.4766C20.778 62.8173 24.7017 64.1407 24.5908 67.9277C24.455 72.4654 18.473 73.3197 13.1748 73.2314C8.71845 73.1577 3.77174 71.9742 0 70.5L2.25977 66.7891C5.66029 68.479 9.06939 69.5745 13.0762 69.874C16.4048 70.1237 17.6629 69.3996 17.6631 68.4727C17.6631 67.1539 14.0931 66.8328 10.2842 65.9463C6.37911 65.0379 0.423323 64.0394 0.723633 59.8604C1.05299 55.2944 8.67689 54.8887 13.1924 55.0195ZM32.4746 62.1084H43.752V55.5488H49.5781V72.7041H43.752V65.8115H32.4746V72.7041H26.6475V55.5488H32.4746V62.1084ZM89.9482 55.0264C92.9104 55.0264 97.6512 55.551 100.135 56.9766C102.8 58.5018 102.988 61.1653 101.601 62.9834C100.213 64.7976 97.3086 65.5632 95.3936 65.8115L103.364 72.7041H95.4307L86.4707 64.752L87.1396 63.6533C91.8787 64.3764 93.9977 63.6867 95.043 62.8096C96.4374 61.6329 96.1454 59.9379 95.0703 59.1709C94.0305 58.4332 92.7286 58.073 90.416 57.9707C89.6198 57.9335 87.488 57.9427 85.3896 58.3584V72.7041H79.5645V55.792C82.1594 55.3484 85.2099 55.0264 89.9482 55.0264ZM115.298 55.0264C118.708 55.0264 123.15 55.5721 125.522 56.9766C128.165 58.5377 128.937 61.5546 126.639 64.0527C125.026 65.8084 121.482 66.9282 116.715 66.9688C114.762 66.9834 112.505 66.8086 110.703 66.5078V72.7041H104.876V55.791C107.471 55.3481 110.557 55.0264 115.298 55.0264ZM78.4854 72.7031H71.3721L69.2979 69.1934H57.249L55.1113 72.7031H50.6562L61.1074 55.5479H68.0371L78.4854 72.7031ZM59.3096 65.8105H67.3018L63.3682 59.1494L59.3096 65.8105ZM115.765 57.9697C114.968 57.9365 112.8 57.9428 110.703 58.3584V63.3047C112.147 63.632 113.918 63.9471 115.63 63.9531C117.951 63.9598 119.422 63.6674 120.429 62.8428C121.854 61.6748 121.504 59.9074 120.455 59.1709C119.447 58.4624 118.09 58.068 115.765 57.9697Z" fill="url(#paint0_linear_5027_8534)"/>
</g>
<defs>
<linearGradient id="paint0_linear_5027_8534" x1="63.9955" y1="73.2501" x2="63.9955" y2="54.9992" gradientUnits="userSpaceOnUse">
<stop stop-color="#C81F29"/>
<stop offset="0.5" stop-color="#F0666E"/>
<stop offset="1" stop-color="#D81621"/>
</linearGradient>
<clipPath id="clip0_5027_8534">
<rect width="128" height="128" fill="white"/>
</clipPath>
</defs>
</svg>
