<svg width="128" height="128" viewBox="0 0 128 128" fill="none" xmlns="http://www.w3.org/2000/svg">
<path d="M90.001 0.00250417C73.0277 0.00250413 56.7495 6.74482 44.7471 18.7464C32.7447 30.7479 26.0012 47.0256 26 63.999C26 80.9731 32.7429 97.252 44.7455 109.255C56.748 121.257 73.0269 128 90.001 128C90.0634 127.997 90.1257 127.994 90.188 127.99C93.3741 127.952 95.9863 126.977 98.0192 125.051C100.093 122.977 101.131 120.302 101.131 117.028C101.131 113.754 100.093 111.081 98.0192 109.007C96.0268 107.015 93.4753 105.992 90.3748 105.914V105.884C90.2494 105.889 90.124 105.894 89.9985 105.898C78.8866 105.898 68.2298 101.484 60.3722 93.6266C52.5147 85.7695 48.1001 75.113 48.0995 64.001C48.0995 52.8887 52.5138 42.2315 60.3714 34.3739C68.229 26.5163 78.8862 22.102 89.9985 22.102C90.124 22.1077 90.2494 22.114 90.3748 22.1209V22.083C93.4762 22.0054 96.0284 20.9828 98.0215 18.9898C100.095 16.9161 101.134 14.2407 101.134 10.9671C101.134 7.69316 100.095 5.07446 98.0215 3.10977C96.0286 1.11683 93.4763 0.0941436 90.3748 0.0165638V0.014197C90.2502 0.0091003 90.1256 0.00436794 90.0009 0L90.001 0.00250417Z" fill="url(#paint0_linear_5027_3285)"/>
<defs>
<linearGradient id="paint0_linear_5027_3285" x1="63.5668" y1="0" x2="63.5668" y2="128" gradientUnits="userSpaceOnUse">
<stop stop-color="white"/>
<stop offset="1" stop-color="#E7E7E7"/>
</linearGradient>
</defs>
</svg>
