<svg width="128" height="128" viewBox="0 0 128 128" fill="none" xmlns="http://www.w3.org/2000/svg">
<path d="M30.3711 49.9217H41.3276L53.8028 74.0765H42.9909L30.3711 49.9217Z" fill="url(#paint0_linear_5027_10339)"/>
<path d="M53.5609 82.8528C49.356 86.1204 45.4743 89.9694 39.314 89.9694C34.7938 89.9694 33.6505 88.167 33.6505 84.8172C33.6505 71.8192 43.9478 63.403 54.144 56.8064L54.1647 56.8282L55.5026 59.0339L58.07 47.6797H49.2288L50.5848 49.5962C38.4015 55.7103 26.0684 71.3012 26.0684 83.695C26.0684 87.5755 28.2829 92.735 34.8552 92.735C43.2529 92.735 49.2989 87.5916 53.5608 82.8528L53.5609 82.8528Z" fill="#FC600D"/>
<path d="M72.1362 40.8454C72.1362 43.5215 69.9668 45.6909 67.2907 45.6909C64.6147 45.6909 62.4453 43.5215 62.4453 40.8454C62.4453 38.1694 64.6147 36 67.2907 36C69.9668 36 72.1362 38.1694 72.1362 40.8454Z" fill="#FC600D"/>
<path d="M60.6005 49.8855H70.0744L65.0843 74.185H55.5742L60.6005 49.8855Z" fill="url(#paint1_linear_5027_10339)"/>
<path d="M17.1018 49.8157C9.00971 49.8157 4.07601 50.9816 2.5684 56.6081L11.2401 57.5478C12.0023 56.1129 12.8688 54.9883 15.7236 54.9883C18.565 54.9883 19.4674 56.6745 18.8737 58.8901C11.1769 59.8738 0 59.1989 0 67.0607C0 70.707 2.83015 74.3274 8.93124 74.3274C12.1886 74.3274 15.0062 72.9149 17.066 70.8551C17.0145 71.7495 16.8552 72.656 17.4508 73.5041H26.4089C24.4956 68.2282 27.9124 62.8083 27.9124 57.4046C27.9124 53.1368 25.7104 49.8157 17.1018 49.8157ZM17.7193 63.2305C17.7193 66.2984 15.237 69.4501 12.4751 69.4501C10.6521 69.4501 9.00284 68.8046 9.00284 66.9533C9.00284 63.9513 14.3488 63.7632 17.7193 63.2305Z" fill="url(#paint2_linear_5027_10339)"/>
<path d="M85.7144 49.8872C78.9002 49.8872 71.4886 53.0731 70.5456 62.4697C69.5753 72.1392 77.8953 74.8352 83.1908 74.8352C90.8021 74.8352 97.4995 71.1292 98.3685 62.4697C99.288 53.3075 92.2398 49.8872 85.7144 49.8872ZM85.4818 56.0654C89.7838 56.0654 89.7437 59.325 89.3095 62.3981C89.0322 64.36 87.97 68.8665 83.6024 68.8665C79.9225 68.8665 79.149 64.9715 79.5127 62.3981C80.0319 58.7235 81.6932 56.0654 85.4818 56.0654Z" fill="url(#paint3_linear_5027_10339)"/>
<path d="M115.264 49.8503C108.45 49.8503 101.038 53.0362 100.095 62.4328C99.1251 72.1023 107.445 74.7984 112.741 74.7984C120.352 74.7984 127.049 71.0924 127.918 62.4328C128.838 53.2706 121.79 49.8503 115.264 49.8503ZM115.032 56.0285C119.334 56.0285 119.293 59.2882 118.859 62.3612C118.582 64.3231 117.52 68.8297 113.152 68.8297C109.472 68.8297 108.699 64.9346 109.062 62.3612C109.582 58.6867 111.243 56.0285 115.032 56.0285Z" fill="url(#paint4_linear_5027_10339)"/>
<defs>
<linearGradient id="paint0_linear_5027_10339" x1="42.0869" y1="49.9217" x2="42.0869" y2="74.0765" gradientUnits="userSpaceOnUse">
<stop stop-color="#7F71BE"/>
<stop offset="0.0001" stop-color="#9082D1"/>
<stop offset="0.520833" stop-color="#B8ADEC"/>
<stop offset="0.552083" stop-color="#8576C9"/>
<stop offset="1" stop-color="#7F71BE"/>
</linearGradient>
<linearGradient id="paint1_linear_5027_10339" x1="62.8243" y1="49.8855" x2="62.8243" y2="74.185" gradientUnits="userSpaceOnUse">
<stop stop-color="#7F71BE"/>
<stop offset="0.0001" stop-color="#9082D1"/>
<stop offset="0.520833" stop-color="#B8ADEC"/>
<stop offset="0.552083" stop-color="#8576C9"/>
<stop offset="1" stop-color="#7F71BE"/>
</linearGradient>
<linearGradient id="paint2_linear_5027_10339" x1="13.9562" y1="49.8157" x2="13.9562" y2="74.3274" gradientUnits="userSpaceOnUse">
<stop stop-color="#7F71BE"/>
<stop offset="0.0001" stop-color="#9082D1"/>
<stop offset="0.520833" stop-color="#B8ADEC"/>
<stop offset="0.552083" stop-color="#8576C9"/>
<stop offset="1" stop-color="#7F71BE"/>
</linearGradient>
<linearGradient id="paint3_linear_5027_10339" x1="84.4588" y1="49.8872" x2="84.4588" y2="74.8352" gradientUnits="userSpaceOnUse">
<stop stop-color="#7F71BE"/>
<stop offset="0.0001" stop-color="#9082D1"/>
<stop offset="0.520833" stop-color="#B8ADEC"/>
<stop offset="0.552083" stop-color="#8576C9"/>
<stop offset="1" stop-color="#7F71BE"/>
</linearGradient>
<linearGradient id="paint4_linear_5027_10339" x1="114.009" y1="49.8503" x2="114.009" y2="74.7984" gradientUnits="userSpaceOnUse">
<stop stop-color="#7F71BE"/>
<stop offset="0.0001" stop-color="#9082D1"/>
<stop offset="0.520833" stop-color="#B8ADEC"/>
<stop offset="0.552083" stop-color="#8576C9"/>
<stop offset="1" stop-color="#7F71BE"/>
</linearGradient>
</defs>
</svg>
