<svg width="128" height="128" viewBox="0 0 128 128" fill="none" xmlns="http://www.w3.org/2000/svg">
<path d="M120.297 67.8278V59.2942H117.441V56.5052H120.297V51.5237H123.351V56.5052H127.336V59.2942H123.351V67.5952C123.351 69.4218 124.115 70.2519 125.543 70.2519C126.107 70.2519 126.506 70.1853 126.938 69.986L128 72.6095C127.303 72.9082 126.572 73.0414 125.543 73.0414C122.123 73.0414 120.297 71.1486 120.297 67.8278ZM100.606 64.64C100.606 60.0243 103.794 55.9737 108.576 55.9737C113.424 55.9737 116.545 59.3935 116.545 64.64C116.545 64.8726 116.512 65.2046 116.512 65.2046H103.661C103.827 68.6582 106.318 70.5173 108.841 70.5173C110.634 70.5173 112.427 69.787 113.291 67.7282L116.014 68.8571C115.051 71.1813 112.66 73.3067 108.908 73.3067C103.927 73.3067 100.606 69.5544 100.606 64.64ZM108.509 58.7628C106.251 58.7628 104.458 60.2902 103.86 62.6811H113.291C113.191 61.253 111.996 58.7628 108.509 58.7628ZM85.6318 70.5173H85.4991V72.775H82.5773V49H85.6318V56.5046L85.4991 58.7628H85.6318C86.5618 57.2686 88.5877 55.9733 91.1774 55.9733C95.2946 55.9733 98.9142 59.659 98.9142 64.64C98.9142 69.621 95.2946 73.3067 91.1774 73.3067C88.5877 73.3067 86.5618 72.0114 85.6318 70.5173ZM95.8593 64.64C95.8593 60.9872 93.4023 58.7628 90.6794 58.7628C87.9565 58.7628 85.4991 60.921 85.4991 64.64C85.4991 68.359 87.9565 70.5173 90.6794 70.5173C93.4023 70.5173 95.8593 68.2929 95.8593 64.64ZM64.9797 67.8605C64.9797 64.1752 68.3001 62.1825 72.1189 62.1825C74.3105 62.1825 75.9041 62.8133 76.5353 63.1791V62.7143C76.5353 60.2569 74.5759 58.7627 72.2845 58.7627C70.5915 58.7627 68.9641 59.5928 68.3999 61.1203L65.6109 59.9248C66.1751 58.4307 68.134 55.9732 72.2184 55.9732C76.2033 55.9732 79.4571 58.3645 79.4571 62.9469V72.7753H76.5353V70.5177H76.4022C75.5059 71.8787 73.8457 73.3067 71.0563 73.3067C67.7354 73.3067 64.9797 71.2479 64.9797 67.8605ZM76.5353 65.7688C76.5353 65.7688 75.2404 64.7061 72.6499 64.7061C69.4289 64.7061 68.1673 66.4333 68.1673 67.9271C68.1673 69.6543 69.9603 70.5177 71.5543 70.5177C73.9784 70.5177 76.5353 68.4251 76.5353 65.7688ZM51.1339 56.5046L51.0012 58.7623H51.1339C51.9973 57.2681 54.0561 55.9732 56.281 55.9732C60.4314 55.9732 62.4903 58.7956 62.4903 62.8138V72.7753H59.4353V63.2785C59.4353 59.8916 57.7418 58.7623 55.4176 58.7623C52.7608 58.7623 51.1339 61.2863 51.1339 63.7766V72.7753H48.079V49.0004H51.1339V56.5046ZM32.5069 70.5172H32.3742L32.5069 72.7749V79.9479H29.452V56.5046H32.3742V58.7627H32.5069C33.4369 57.2685 35.4624 55.9732 38.0526 55.9732C42.1698 55.9732 45.7893 59.659 45.7893 64.64C45.7893 69.621 42.1698 73.3067 38.0526 73.3067C35.4624 73.3067 33.4369 72.0114 32.5069 70.5172ZM42.7344 64.64C42.7344 60.9871 40.277 58.7627 37.5545 58.7627C34.8312 58.7627 32.3742 60.921 32.3742 64.64C32.3742 68.359 34.8312 70.5172 37.5545 70.5172C40.277 70.5172 42.7344 68.2928 42.7344 64.64ZM23.1437 72.7753H26.1986V49.0004H23.1437V72.7753ZM8.96591 49L0 72.7753H3.3874L5.71124 66.3334H15.7065L17.998 72.7753H21.3845L12.419 49H8.96591ZM10.6257 52.7523H10.7588L14.6439 63.4774H6.74107L10.6257 52.7523Z" fill="url(#paint0_linear_5027_9644)"/>
<defs>
<linearGradient id="paint0_linear_5027_9644" x1="64" y1="49" x2="64" y2="79.9479" gradientUnits="userSpaceOnUse">
<stop stop-color="#F7444B"/>
<stop offset="0.484375" stop-color="#FE888D"/>
<stop offset="0.515625" stop-color="#F12E36"/>
<stop offset="1" stop-color="#ED1C24"/>
</linearGradient>
</defs>
</svg>
