<svg width="128" height="128" viewBox="0 0 128 128" fill="none" xmlns="http://www.w3.org/2000/svg">
<path d="M38.332 80.5361C38.332 81.6269 38.2435 82.6898 38.0986 83.7363C37.6699 86.7348 35.2351 89.0327 32.2607 89.4795C31.3149 89.6143 30.3284 89.6768 29.3262 89.6768H8.99414C7.99593 89.6768 7.02137 89.6143 6.06543 89.4795C3.10119 89.0326 0.662159 86.7348 0.231445 83.7363C0.0764818 82.6898 0.0078125 81.6269 0.0078125 80.5361L0 80.5303V68.8516H11.8271V78.3652H26.5029V39.3623H38.332V80.5361ZM118.998 39C119.996 39 120.965 39.0624 121.933 39.1973C124.907 39.6341 127.338 41.9569 127.759 44.9453C127.914 45.9937 127.99 47.0546 127.99 48.1533H128V58.7412H116.164V50.3281H101.503V78.3652H116.164V69.9385H128V80.5303L127.99 80.5361C127.99 81.6269 127.914 82.6898 127.759 83.7363C127.338 86.7348 124.907 89.0325 121.933 89.4795C120.965 89.6143 119.996 89.6768 118.998 89.6768H98.6631C97.665 89.6767 96.6892 89.6143 95.7334 89.4795C92.7549 89.0327 90.3212 86.7349 89.8945 83.7363C89.7476 82.6898 89.666 81.6269 89.666 80.5361V48.1533C89.666 47.0546 89.7477 45.9937 89.8945 44.9453C90.3212 41.9567 92.7549 39.634 95.7334 39.1973C96.6892 39.0625 97.6651 39 98.6631 39H118.998ZM64.5312 71.8701L74.8818 39.3604H87.4297L71.4502 89.3125H57.6084L41.6436 39.3604H54.1768L64.5312 71.8701Z" fill="url(#paint0_linear_5027_4702)"/>
<defs>
<linearGradient id="paint0_linear_5027_4702" x1="19.1648" y1="89.7112" x2="19.1648" y2="39.36" gradientUnits="userSpaceOnUse">
<stop stop-color="#990F17"/>
<stop offset="0.333333" stop-color="#E6000D"/>
<stop offset="0.666667" stop-color="#F0666E"/>
<stop offset="1" stop-color="#E6000D"/>
</linearGradient>
</defs>
</svg>
