<svg width="128" height="128" viewBox="0 0 128 128" fill="none" xmlns="http://www.w3.org/2000/svg">
<path fill-rule="evenodd" clip-rule="evenodd" d="M99.8584 61.6113C99.8213 61.6113 127.709 49.4451 127.744 49.4451C127.744 49.4451 105.45 67.8929 105.45 67.93C103.889 65.8943 102.038 63.7514 99.8584 61.6113Z" fill="#FFCB04"/>
<path fill-rule="evenodd" clip-rule="evenodd" d="M89.0732 53.5853C89.0732 53.6951 114.783 33.2858 114.818 33.2515L96.9524 58.996C94.6282 57.0701 92.0142 55.2199 89.0732 53.5853Z" fill="#FFCB04"/>
<path fill-rule="evenodd" clip-rule="evenodd" d="M77.7831 49.0481L77.6348 48.9739C77.6719 48.9739 100.184 24.136 100.184 24.0646C100.184 24.1003 86.8243 52.4217 86.8243 52.4217C84.1004 51.0797 81.0853 49.9176 77.7831 49.0481Z" fill="#FFCB04"/>
<path fill-rule="evenodd" clip-rule="evenodd" d="M65.4336 47.2307C65.4336 47.2307 80.4322 19.4519 80.4322 19.4162C80.4322 19.4162 75.7811 48.5755 75.7811 48.5371C72.5888 47.8104 69.1383 47.3393 65.4336 47.2307Z" fill="#FFCB04"/>
<path fill-rule="evenodd" clip-rule="evenodd" d="M60.6799 18L62.5302 47.195C62.2761 47.195 62.0206 47.195 61.7665 47.2307C58.7884 47.3035 55.8846 47.5934 53.0879 48.1016C53.0879 48.0316 60.6799 18 60.6799 18Z" fill="#FFCB04"/>
<path fill-rule="evenodd" clip-rule="evenodd" d="M40.5957 51.8065V23.1567L50.8375 48.5757C47.2413 49.3381 43.8292 50.4631 40.5957 51.8065Z" fill="#FFCB04"/>
<path fill-rule="evenodd" clip-rule="evenodd" d="M29.885 57.5437L23.2051 32.96C23.2051 32.96 38.5993 52.6042 38.635 52.6399C35.4427 54.0932 32.5361 55.7635 29.885 57.5437Z" fill="#FFCB04"/>
<path fill-rule="evenodd" clip-rule="evenodd" d="M22.2252 63.897C22.1153 64.0082 22.0054 64.1168 21.8969 64.2253C21.4985 64.625 21.0988 65.0591 20.6977 65.4959C20.6977 65.4588 12.6016 43.3832 12.6016 43.3832C12.6373 43.3832 27.8516 58.9231 27.9257 58.9615C25.7829 60.5563 23.8942 62.1909 22.2252 63.897Z" fill="#FFCB04"/>
<path fill-rule="evenodd" clip-rule="evenodd" d="M22.0412 75.5549C22.0797 75.6621 22.1154 75.7706 22.1868 75.8818L22.2596 76.0632C18.3736 83.0343 14.0165 89.8983 7.95329 95.4904H34.8956V100.464C34.8956 100.464 2.83242 100.464 2.79533 100.464C2.79533 100.464 0 93.9643 0 93.9286C9.18819 87.8626 14.9244 77.9148 18.5192 67.9656L22.0412 75.5549Z" fill="#FFCB04"/>
<path fill-rule="evenodd" clip-rule="evenodd" d="M25.2019 86.4849C24.1483 85.831 23.8942 85.1387 23.6043 84.2692C23.1304 82.4519 24.5824 79.8036 27.3076 80.0934C28.7238 80.3091 30.0315 81.4725 30.0315 82.8887C29.4491 81.6538 26.4367 80.5302 26.1455 81.7994C26.0714 82.125 26.3997 82.3434 26.6167 82.272C27.342 82.0522 29.3392 82.272 29.8118 83.1799C30.1758 83.7953 30.0315 85.0673 29.4491 85.8654C28.4326 87.1744 26.4368 87.2472 25.2019 86.4849Z" fill="#FFCB04"/>
<path fill-rule="evenodd" clip-rule="evenodd" d="M40.3047 71.1237V100.68L47.5698 100.028V70.4712L40.3047 71.1237Z" fill="white"/>
<path fill-rule="evenodd" clip-rule="evenodd" d="M80.0313 74.5357C76.9818 71.9231 72.8417 70.4712 68.5574 70.4712C60.0244 70.4712 52.9434 77.2253 52.9434 85.7569C52.9434 94.2555 60.0244 101.044 68.5574 101.044C72.9859 101.044 77.9612 99.7748 80.9021 98.0673V82.9245H68.159L66.0876 89.0989H73.6398V93.3476C72.806 94.1814 70.5917 94.3998 69.464 94.3998C64.4173 94.3998 60.2071 91.2047 60.2071 85.7569C60.2071 80.7088 63.8733 77.114 68.9214 77.114C71.4241 77.114 73.8939 78.0962 75.7813 79.8036L80.0313 74.5357Z" fill="white"/>
<path fill-rule="evenodd" clip-rule="evenodd" d="M103.997 100.354L105.778 94.1812H94.3395V88.5535H101.892V82.3804H94.3395V77.3323H104.905L103.635 71.1235H87.1143V100.354H103.997Z" fill="white"/>
<path fill-rule="evenodd" clip-rule="evenodd" d="M125.422 100.354L127.345 93.7101H117.76V70.4711L110.533 71.1236V100.354H125.422Z" fill="white"/>
<path fill-rule="evenodd" clip-rule="evenodd" d="M123.97 70.9066C126.184 70.9066 128 69.0893 128 66.8393C128 64.625 126.184 62.7734 123.97 62.7734C121.717 62.7734 119.902 64.625 119.902 66.8393C119.902 69.0893 121.717 70.9066 123.97 70.9066ZM123.97 70.1443C122.118 70.1443 120.663 68.691 120.663 66.8393C120.663 65.0234 122.118 63.533 123.97 63.533C125.786 63.533 127.238 65.0234 127.238 66.8393C127.238 68.691 125.786 70.1443 123.97 70.1443ZM125.931 69.0893L125.058 67.3476C125.64 67.1305 125.931 66.6937 125.931 66.0028C125.931 65.0591 125.242 64.5866 124.368 64.5866H122.264V69.0893H123.172V67.4561H124.077L124.876 69.0893H125.931ZM124.986 66.0412C124.986 66.441 124.768 66.6209 124.368 66.6209H123.172V65.4588H124.368C124.768 65.4588 124.986 65.6415 124.986 66.0412Z" fill="white"/>
<path fill-rule="evenodd" clip-rule="evenodd" d="M42.2322 109.761H43.5015V105.076H45.2446V103.986H40.5234V105.076H42.2322V109.761Z" fill="white"/>
<path fill-rule="evenodd" clip-rule="evenodd" d="M48.9873 109.761H53.3431V108.707H50.2181V107.291H53.0134V106.309H50.2181V105.076H53.2717V103.986H48.9873V109.761Z" fill="white"/>
<path fill-rule="evenodd" clip-rule="evenodd" d="M62.3102 105.947C62.166 104.603 61.1124 103.878 59.8418 103.878C58.0616 103.878 57.0107 105.184 57.0107 106.892C57.0107 108.561 58.0616 109.905 59.8418 109.905C61.258 109.905 62.2401 108.96 62.3844 107.544H61.1481C61.0382 108.308 60.6055 108.816 59.8418 108.816C58.7168 108.816 58.2814 107.871 58.2814 106.892C58.2814 105.874 58.7168 104.93 59.8418 104.93C60.4586 104.93 61.0039 105.366 61.1124 105.947H62.3102Z" fill="white"/>
<path fill-rule="evenodd" clip-rule="evenodd" d="M66.3789 109.761H67.6495V107.254H69.9737V109.761H71.2443V103.986H69.9737V106.201H67.6495V103.986H66.3789V109.761Z" fill="white"/>
<path fill-rule="evenodd" clip-rule="evenodd" d="M76.1465 109.761H77.3443V105.911L79.7399 109.761H81.0119V103.986H79.8498V107.871H79.8141L77.4171 103.986H76.1465V109.761Z" fill="white"/>
<path fill-rule="evenodd" clip-rule="evenodd" d="M86.0591 106.891C86.0591 105.874 86.4959 104.93 87.6209 104.93C88.7473 104.93 89.1827 105.874 89.1827 106.891C89.1827 107.871 88.7473 108.816 87.6209 108.816C86.4959 108.816 86.0591 107.871 86.0591 106.891ZM84.7871 106.891C84.7871 108.56 85.8421 109.905 87.6209 109.905C89.3997 109.905 90.4533 108.56 90.4533 106.891C90.4533 105.184 89.3997 103.878 87.6209 103.878C85.8421 103.878 84.7871 105.184 84.7871 106.891Z" fill="white"/>
<path fill-rule="evenodd" clip-rule="evenodd" d="M94.375 109.761H98.4409V108.707H95.6456V103.986H94.375V109.761Z" fill="white"/>
<path fill-rule="evenodd" clip-rule="evenodd" d="M102.762 106.891C102.762 105.874 103.196 104.93 104.324 104.93C105.451 104.93 105.885 105.874 105.885 106.891C105.885 107.871 105.451 108.816 104.324 108.816C103.196 108.816 102.762 107.871 102.762 106.891ZM101.493 106.891C101.493 108.56 102.545 109.905 104.324 109.905C106.103 109.905 107.158 108.56 107.158 106.891C107.158 105.184 106.103 103.878 104.324 103.878C102.545 103.878 101.493 105.184 101.493 106.891Z" fill="white"/>
<path fill-rule="evenodd" clip-rule="evenodd" d="M115.146 109.761H115.945V106.636H113.513V107.583H114.783C114.709 108.381 114.237 108.816 113.438 108.816C112.276 108.816 111.877 107.871 111.877 106.892C111.877 105.874 112.276 104.93 113.438 104.93C114.021 104.93 114.491 105.257 114.638 105.874H115.873C115.726 104.603 114.602 103.878 113.438 103.878C111.66 103.878 110.607 105.184 110.607 106.892C110.607 108.561 111.66 109.905 113.438 109.905C113.985 109.905 114.563 109.687 115 109.106L115.146 109.761Z" fill="white"/>
<path fill-rule="evenodd" clip-rule="evenodd" d="M121.029 109.761H122.3V107.544L124.442 103.986H123.026L121.682 106.273L120.338 103.986H118.922L121.029 107.508V109.761Z" fill="white"/>
</svg>
