<svg width="128" height="128" viewBox="0 0 128 128" fill="none" xmlns="http://www.w3.org/2000/svg">
<path d="M38.5506 40V85.1765H0V87.5859H40.96V42.4094H108.725V87.5859H128V85.1765H111.134V40H38.5506Z" fill="url(#paint0_linear_5027_3750)"/>
<path d="M54.9336 76.813H64.5367C64.5208 78.4175 64.8465 79.4501 65.5137 79.9108C65.9903 80.2126 66.6019 80.3953 67.3486 80.4588C68.1111 80.5065 70.4941 80.5462 74.4974 80.578C78.6914 80.5621 81.2093 80.5383 82.0513 80.5065C82.8932 80.4589 83.5605 80.3318 84.0529 80.1252C84.7837 79.8234 85.1491 79.0053 85.1491 77.6709C85.1491 76.7018 84.8869 76.0584 84.3627 75.7407C83.8543 75.4071 82.8058 75.2244 81.2172 75.1926C79.994 75.1926 77.4045 75.0973 73.4489 74.9066C69.3979 74.716 66.7608 74.6048 65.5376 74.573C63.1546 74.4936 61.3197 74.2712 60.0329 73.9058C58.762 73.5245 57.7692 72.9129 57.0543 72.071C55.831 70.673 55.2194 68.3377 55.2194 65.0651C55.2194 61.3954 55.9184 58.806 57.3164 57.2968C58.3808 56.1212 60.0171 55.3745 62.2253 55.0568C64.4335 54.7232 68.9214 54.5564 75.6891 54.5564C80.4708 54.5564 83.8309 54.6915 85.7692 54.9615C88.7558 55.3746 90.8051 56.2086 91.9172 57.4636C93.0292 58.7027 93.5852 60.7997 93.5852 63.7546C93.5852 64.0246 93.5772 64.533 93.5613 65.2797H83.9582C83.9265 64.3741 83.847 63.7546 83.7199 63.421C83.6087 63.0873 83.3784 62.8173 83.0289 62.6108C82.6 62.3566 81.8454 62.1977 80.7651 62.1342C79.6848 62.0547 77.3972 62.015 73.9022 62.015C69.6924 62.015 67.1267 62.1501 66.2053 62.4201C65.2839 62.6743 64.8232 63.3971 64.8232 64.5886C64.8232 65.7324 65.2839 66.4314 66.2053 66.6856C66.9679 66.8921 70.4709 67.0907 76.7144 67.2813C81.9727 67.4402 85.4835 67.6308 87.2467 67.8532C89.026 68.0597 90.4399 68.4648 91.4883 69.0685C92.6798 69.7834 93.5218 70.7684 94.0143 72.0233C94.5067 73.2625 94.753 75.0497 94.753 77.3849C94.753 80.451 94.3399 82.7307 93.5138 84.224C92.8943 85.3201 92.0285 86.1382 90.9164 86.6784C89.8202 87.2185 88.2713 87.5839 86.2697 87.7745C84.125 87.9651 80.1297 88.0604 74.2837 88.0604C69.3907 88.0604 65.7766 87.9333 63.4413 87.6791C61.1061 87.425 59.3506 86.9722 58.1751 86.3209C56.9518 85.6219 56.1019 84.7005 55.6253 83.5566C55.1646 82.4128 54.9343 80.6733 54.9343 78.338L54.9336 76.813Z" fill="url(#paint1_linear_5027_3750)"/>
<defs>
<linearGradient id="paint0_linear_5027_3750" x1="64" y1="40" x2="64" y2="87.5859" gradientUnits="userSpaceOnUse">
<stop stop-color="white"/>
<stop offset="1" stop-color="#E7E7E7"/>
</linearGradient>
<linearGradient id="paint1_linear_5027_3750" x1="74.8433" y1="54.5564" x2="74.8433" y2="88.0604" gradientUnits="userSpaceOnUse">
<stop stop-color="#1DB188"/>
<stop offset="1" stop-color="#10664E"/>
</linearGradient>
</defs>
</svg>
