<svg width="128" height="128" viewBox="0 0 128 128" fill="none" xmlns="http://www.w3.org/2000/svg">
<path fill-rule="evenodd" clip-rule="evenodd" d="M0.452546 70.4976C0.137719 70.9298 -0.0871575 71.492 0.0327766 72.0567C-0.0047028 72.6639 0.435056 73.431 1.00974 73.9182C1.58442 74.4054 2.45395 74.6153 2.95617 74.1106C31.8928 50.3262 58.6281 37.3158 78.2573 31.0867C85.1011 28.9154 90.0359 28.4956 93.414 28.3008C108.718 27.4212 93.489 42.1332 78.6346 54.3315C60.3347 69.3557 39.8834 83.8502 26.4383 97.7276C24.272 99.854 26.8455 104.424 30.2862 102.565C49.9828 90.674 57.4562 84.5374 78.6921 74.5903C84.4089 71.9118 90.1258 69.8879 95.6103 68.3762C100.508 67.4343 101.989 67.4717 99.2908 72.0717C96.6022 77.3288 95.2155 83.7828 96.9321 87.5857C100.128 92.9403 103.184 95.3015 116.231 95.3764C118.103 95.3839 118.83 95.3564 120.726 95.1465L128 93.9997L120.714 92.7529C118.403 92.4705 118.258 92.0682 114.293 92.1632C109.95 92.2731 104.838 91.536 101.597 89.3947C99.5831 87.8805 99.1658 85.4269 99.4732 82.6409C100.158 78.5956 103.648 73.0137 103.988 68.9709C104.011 66.942 100.673 64.3884 98.5387 64.4909C93.5289 64.8432 86.4878 67.5967 78.9494 70.9773C72.6504 73.7983 65.4568 77.034 58.3333 81.0243C50.2552 85.5543 42.1896 90.9538 34.2265 95.8062C46.2099 83.1656 62.3311 72.4165 76.0785 60.7204C76.8881 60.0133 77.7126 59.3087 78.5522 58.5991C84.2565 53.7868 94.1911 46.8805 99.3083 39.6995C101.627 36.4413 103.748 33.303 102.844 30.8643C101.919 28.3582 99.3282 25.9645 96.8796 25.3174C92.9243 24.273 86.9151 24.6228 78.1374 27.5562C68.1529 30.8968 54.7402 36.991 44.4484 42.5954C31.2481 50.1637 16.901 59.1213 4.02059 69.0634C2.62885 70.1253 1.61941 70.0153 2.5414 68.7535L0.452546 70.4976Z" fill="url(#paint0_linear_5027_3450)"/>
<defs>
<linearGradient id="paint0_linear_5027_3450" x1="64" y1="103" x2="64" y2="24.7816" gradientUnits="userSpaceOnUse">
<stop stop-color="#D6161E"/>
<stop offset="1" stop-color="#FF454C"/>
</linearGradient>
</defs>
</svg>
