<svg width="128" height="128" viewBox="0 0 128 128" fill="none" xmlns="http://www.w3.org/2000/svg">
<path d="M123.119 64.0056C123.232 61.5399 123.232 59.0743 123.119 56.6647C123.119 56.3845 123.063 56.0483 123.063 55.7681V3.59749H112.08V25.2278C109.39 21.4734 106.252 17.943 102.722 14.8049C90.786 4.32597 75.6 -0.88548 59.8535 0.123189C27.1839 2.2526 2.24732 30.8876 4.09655 64.0056C3.98447 66.4712 3.98447 68.9368 4.09655 71.3464C5.10522 87.6532 12.39 102.503 24.5501 113.206C35.4774 122.845 49.2065 128 63.552 128C64.8408 128 66.1297 127.944 67.4185 127.888C85.9668 126.711 101.993 116.961 112.08 102.727V124.414H123.063V72.2991C123.288 69.5532 123.288 66.8074 123.119 64.0056ZM66.7461 117.241C53.8575 118.081 41.4173 113.823 31.6668 105.193C21.6362 96.395 15.6962 84.1229 14.8557 70.674C14.7436 68.5446 14.7436 66.4152 14.8557 64.3418V64.0056V63.6693C13.1185 36.2672 33.6281 12.5074 60.582 10.7702C61.6467 10.7142 62.7114 10.6582 63.7201 10.6582C75.4879 10.6582 86.6953 14.917 95.6613 22.7622C104.739 30.7755 110.511 41.6467 112.136 53.6387V74.4285C108.886 97.3477 90.2817 115.672 66.7461 117.241Z" fill="url(#paint0_linear_5027_3229)"/>
<defs>
<linearGradient id="paint0_linear_5027_3229" x1="63.6197" y1="0" x2="63.6197" y2="128" gradientUnits="userSpaceOnUse">
<stop stop-color="white"/>
<stop offset="1" stop-color="#E7E7E7"/>
</linearGradient>
</defs>
</svg>
