<svg width="128" height="128" viewBox="0 0 128 128" fill="none" xmlns="http://www.w3.org/2000/svg">
<path d="M88.9236 27.668V68.2581C82.7857 72.2424 75.6624 74.4447 68.3469 74.6199C51.7795 74.6199 38.9895 63.6192 38.9895 48.1122C38.9895 32.6051 51.7795 21.6044 68.3469 21.6044C75.6346 21.6834 82.7576 23.7825 88.9236 27.668ZM88.9236 5.46778C81.1342 1.83046 72.636 -0.0366606 64.0394 0.000545311C36.9352 0.000545311 15 18.9205 15 47.814C15 76.7074 36.9352 95.9587 64.0394 95.9587C72.0779 96.2054 80.0507 94.44 87.2337 90.8228C85.4903 94.7513 82.6488 98.0922 79.0512 100.444C75.4536 102.795 71.2531 104.057 66.9553 104.077H38.9564V128H67.6842C79.5534 127.699 90.8556 122.859 99.2634 114.476C107.671 106.093 112.545 94.805 112.88 82.9368V0.0999518H88.9567L88.9236 5.46778Z" fill="url(#paint0_linear_5027_3820)"/>
<defs>
<linearGradient id="paint0_linear_5027_3820" x1="63.94" y1="0" x2="63.94" y2="128" gradientUnits="userSpaceOnUse">
<stop stop-color="white"/>
<stop offset="1" stop-color="#E7E7E7"/>
</linearGradient>
</defs>
</svg>
