<svg width="128" height="128" viewBox="0 0 128 128" fill="none" xmlns="http://www.w3.org/2000/svg">
<g clip-path="url(#clip0_5027_4655)">
<path d="M51.9601 127.132C36.3361 124.067 22.3504 115.468 13.2076 103.306C6.5695 94.4753 3.22567 86.9978 0.579261 75.0662L0 72.4544L23.2585 73.1336L32.284 47.2302H37.0919C39.7363 47.2302 41.8999 47.3402 41.8999 47.4745C41.8999 47.6089 37.8099 59.9734 32.811 74.9514C27.8121 89.9293 23.7221 103.13 23.7221 104.287C23.7221 105.444 24.726 107.395 25.953 108.622L28.1839 110.852L106.885 110.921L103.25 114.062C97.704 118.853 86.61 124.254 78.1429 126.284C70.1515 128.199 59.2085 128.554 51.9601 127.132Z" fill="url(#paint0_linear_5027_4655)"/>
<path d="M61.1459 0.00155354C57.6135 0.0237304 54.3649 0.28348 51.8741 0.812808L46.9001 1.87081L41.5426 18.4154C38.5963 27.5155 36 35.4945 35.7715 36.1459C35.4546 37.0493 36.5989 37.2648 40.6018 37.0547L45.8474 36.7796L52.0499 18.1474H63.7909C70.2478 18.1474 75.5301 18.4472 75.5301 18.8148C75.5301 19.1825 71.4401 32.0303 66.4412 47.365C61.4423 62.6995 57.3523 76.4318 57.3523 77.8802C57.3523 83.3626 57.9303 83.5374 76.8934 83.8341C86.3913 83.9827 100.893 84.0912 109.12 84.0738L124.078 84.0418L125.288 79.9518C125.954 77.7023 126.746 72.5075 127.049 68.4078C129.189 39.4657 111.37 12.667 83.5344 2.96251C78.0623 1.05477 68.9172 -0.0472174 61.1459 0.00155354ZM84.7894 18.1474H96.5198C102.971 18.1474 108.243 18.4541 108.236 18.829C108.229 19.204 107.672 21.3512 107 23.6007L105.779 27.6907L93.8357 27.9446C87.2666 28.084 81.8923 27.8498 81.8923 27.4244C81.8923 26.9991 82.544 24.7375 83.3409 22.3989L84.7894 18.1474ZM78.6775 37.234H90.2836C98.9857 37.234 101.877 37.5182 101.844 38.3701C101.819 38.995 99.0579 47.6863 95.7085 57.684L89.6179 75.8618L78.0296 76.1157C69.2113 76.3092 66.4412 76.0969 66.4412 75.2298C66.4412 74.6031 69.1951 65.7979 72.5602 55.6621L78.6775 37.234Z" fill="url(#paint1_linear_5027_4655)"/>
<path d="M0.13438 62.1476C0.082301 53.1195 2.46701 43.3073 6.77126 34.8395C9.95478 28.5764 14.6561 21.5935 14.609 23.1978C14.5952 23.6699 11.3422 34.2811 7.38031 46.7783L0.176763 69.5005L0.13438 62.1476Z" fill="url(#paint2_linear_5027_4655)"/>
</g>
<defs>
<linearGradient id="paint0_linear_5027_4655" x1="63.6114" y1="128" x2="63.6114" y2="0" gradientUnits="userSpaceOnUse">
<stop stop-color="#990F1A"/>
<stop offset="0.333333" stop-color="#E60012"/>
<stop offset="0.666667" stop-color="#F06671"/>
<stop offset="1" stop-color="#E60012"/>
</linearGradient>
<linearGradient id="paint1_linear_5027_4655" x1="63.6114" y1="128" x2="63.6114" y2="0" gradientUnits="userSpaceOnUse">
<stop stop-color="#990F1A"/>
<stop offset="0.333333" stop-color="#E60012"/>
<stop offset="0.666667" stop-color="#F06671"/>
<stop offset="1" stop-color="#E60012"/>
</linearGradient>
<linearGradient id="paint2_linear_5027_4655" x1="63.6114" y1="128" x2="63.6114" y2="0" gradientUnits="userSpaceOnUse">
<stop stop-color="#990F1A"/>
<stop offset="0.333333" stop-color="#E60012"/>
<stop offset="0.666667" stop-color="#F06671"/>
<stop offset="1" stop-color="#E60012"/>
</linearGradient>
<clipPath id="clip0_5027_4655">
<rect width="128" height="128" fill="white"/>
</clipPath>
</defs>
</svg>
