<svg width="128" height="128" viewBox="0 0 128 128" fill="none" xmlns="http://www.w3.org/2000/svg">
<path fill-rule="evenodd" clip-rule="evenodd" d="M34.7667 14.0625C43.0063 5.82292 54.1625 0 64.3396 0C74.5167 0 85.673 5.82292 93.9125 14.0625C100.704 20.8333 105.548 27.1563 106.527 36.8542C108.496 48.9583 107.975 67.8854 106.527 74.1875C105.548 80.9792 100.215 89.2188 95.3813 97.4583C85.673 113.458 72.5896 128 64.3396 128C56.0896 128 43.5063 113.417 33.798 97.4583C28.4646 89.2083 23.6209 80.9792 22.1625 74.1875C20.7042 68.3646 20.7042 50 21.6834 37.8229C23.1313 27.6354 27.4959 21.3333 34.7667 14.0625ZM39.1417 68.3646C45.3917 71.7604 54.6417 83.3958 56.5792 91.1563C59.5063 100.854 58.048 102.792 47.8605 97.4063C42.0375 94.5521 32.8292 85.3438 30.8917 79.5208C26.048 68.3646 26.5271 62.0625 39.1417 68.3646ZM90.0375 68.3646C83.2459 71.7604 74.0375 83.3958 72.1 91.1563C69.673 100.854 70.6521 102.792 80.8292 97.4063C86.6209 94.5521 95.8605 85.3438 98.2875 79.5208C102.652 68.3646 102.163 62.0625 90.0375 68.3646Z" fill="url(#paint0_linear_5027_4253)"/>
<defs>
<linearGradient id="paint0_linear_5027_4253" x1="64.4418" y1="128.026" x2="64.4418" y2="-0.0259963" gradientUnits="userSpaceOnUse">
<stop stop-color="#808080"/>
<stop offset="0.5" stop-color="#F2F2F2"/>
<stop offset="1" stop-color="#B3B3B3"/>
</linearGradient>
</defs>
</svg>
