<svg width="128" height="128" viewBox="0 0 128 128" fill="none" xmlns="http://www.w3.org/2000/svg">
<g clip-path="url(#clip0_5027_9939)">
<path d="M91.4434 52.4918C95.0452 52.5187 98.217 54.3465 100.072 57.142C102.141 60.2331 105.716 62.2222 109.721 62.2222C113.726 62.2222 117.301 60.2331 119.371 57.142C121.226 54.3465 124.398 52.5187 127.999 52.4918V51.2285C123.994 51.2554 120.473 53.2714 118.377 56.3625C116.495 59.1311 113.323 60.9589 109.721 60.9589C106.12 60.9589 102.948 59.158 101.066 56.3625C98.9696 53.2714 95.4484 51.2554 91.4434 51.2285" fill="#AA8E48"/>
<path d="M91.4443 48.5399C95.0462 48.5131 98.218 46.6852 100.073 43.8898C102.142 40.7986 105.717 38.8096 109.722 38.8096C113.727 38.8096 117.302 40.7986 119.372 43.8898C121.227 46.6584 124.399 48.5131 128 48.5399V49.8033C123.995 49.7764 120.474 47.7604 118.378 44.6693C116.496 41.9007 113.324 40.0729 109.722 40.0729C106.121 40.0729 102.949 41.8738 101.067 44.6693C98.9706 47.7604 95.4494 49.7764 91.4443 49.8033" fill="#AA8E48"/>
<path d="M34.97 68.6993C34.2981 68.0273 33.196 68.0273 32.524 68.6993C32.4703 68.7531 32.4165 68.8068 32.3896 68.8606C32.2552 68.8337 32.1208 68.8337 32.0133 68.8337C31.2069 68.8337 30.75 69.1294 30.4812 69.3982C29.2716 70.6077 30.1586 73.0538 31.8252 75.4192C31.5832 75.7686 31.3413 76.118 31.1263 76.4675C31.5295 76.5212 31.8789 76.6825 32.1746 76.9513C32.2015 76.9782 32.2283 77.0319 32.2552 77.0588C32.3627 76.8707 32.4971 76.6556 32.6315 76.4675C33.0347 76.9782 33.4917 77.462 33.9486 77.919C34.4325 78.4028 34.9163 78.8329 35.4001 79.236C33.9486 80.2037 32.7122 80.6875 31.9864 80.6875C31.6908 80.6875 31.5026 80.6338 31.3682 80.4994C31.2338 80.365 31.18 80.1768 31.18 79.8812C31.0994 79.8812 31.0188 79.908 30.9381 79.908C30.5618 79.908 30.2393 79.8005 29.9436 79.5855C29.863 80.3381 30.0242 80.9563 30.4812 81.4133C30.75 81.6821 31.2069 81.9777 32.0133 81.9777C33.196 81.9777 34.8356 81.2789 36.5022 80.0693C36.8516 80.3112 37.1742 80.5263 37.5236 80.7413C37.5236 80.7951 37.4967 80.8488 37.4967 80.9026C37.4967 81.3595 37.6849 81.7896 38.0074 82.139C38.33 82.4616 38.76 82.6497 39.2439 82.6497C39.7008 82.6497 40.1309 82.4616 40.4803 82.139C40.5341 82.0853 40.5878 82.0046 40.6416 81.9509C40.776 81.9778 40.8835 81.9777 40.991 81.9777C41.7974 81.9777 42.2544 81.6821 42.5232 81.4133C42.792 81.1445 43.0876 80.6875 43.0876 79.8812C43.0876 78.6716 42.3888 77.0588 41.1792 75.3923C41.4211 75.0429 41.6361 74.7203 41.8512 74.3977C41.4749 74.344 41.0986 74.1827 40.8298 73.9139C40.8029 73.887 40.776 73.8333 40.7222 73.8064C40.6147 73.9946 40.5072 74.1558 40.3728 74.344C39.9696 73.8602 39.5127 73.3763 39.0557 72.8925C38.5719 72.4087 38.0881 71.9786 37.6042 71.5754C39.0557 70.6077 40.2922 70.1239 41.0179 70.1239C41.3136 70.1239 41.5018 70.1777 41.6361 70.3121C41.7705 70.4465 41.8243 70.6884 41.8243 70.9841C41.9049 70.9841 41.9856 70.9572 42.0662 70.9572C42.4425 70.9572 42.792 71.0916 43.0876 71.3066C43.0876 71.1722 43.1145 71.0647 43.1145 70.9303C43.1145 70.1239 42.8188 69.667 42.5501 69.3982C42.2813 69.1294 41.8243 68.8337 41.0179 68.8337C39.8083 68.8337 38.1956 69.5326 36.5291 70.7421C36.1796 70.5002 35.8571 70.2852 35.5076 70.0702C35.5076 69.5863 35.3464 69.0756 34.97 68.6993ZM33.7336 68.5649C34.1099 68.5649 34.4325 68.6993 34.7013 68.9681C35.2388 69.5057 35.2388 70.3658 34.7013 70.9034C34.4325 71.1722 34.1099 71.3066 33.7336 71.3066C33.3573 71.3066 33.0347 71.1722 32.7659 70.9034C32.4971 70.6346 32.3627 70.3121 32.3627 69.9358C32.3627 69.5594 32.4971 69.2369 32.7659 68.9681C33.0347 68.6993 33.3573 68.5649 33.7336 68.5649ZM39.217 82.3003C38.8407 82.3003 38.5181 82.1659 38.2493 81.8971C37.9805 81.6283 37.8461 81.3058 37.8461 80.9295C37.8461 80.5531 37.9805 80.2306 38.2493 79.9618C38.5181 79.693 38.8407 79.5586 39.217 79.5586C39.5933 79.5586 39.9159 79.693 40.1847 79.9618C40.4535 80.2306 40.5879 80.5531 40.5879 80.9295C40.5879 81.3058 40.4535 81.6283 40.1847 81.8971C39.9159 82.1659 39.5664 82.3003 39.217 82.3003ZM41.5824 80.5263C41.448 80.6607 41.2598 80.7144 40.9642 80.7144H40.9373C40.8835 80.3381 40.7222 79.9887 40.4535 79.7199C40.1309 79.3973 39.7008 79.2092 39.217 79.2092C38.7869 79.2092 38.4106 79.3704 38.0881 79.6392C37.8999 79.5317 37.7386 79.4242 37.5505 79.2898C38.0343 78.8866 38.545 78.4297 39.002 77.9727C39.4858 77.4889 39.9159 77.0051 40.3191 76.5212C41.663 78.4834 42.0393 80.0693 41.5824 80.5263ZM38.0881 73.8064C38.6257 74.344 39.1095 74.9085 39.5396 75.4192C39.1095 75.9568 38.6257 76.4943 38.0881 77.0319C37.5505 77.5695 36.986 78.0533 36.4753 78.4834C35.9377 78.0533 35.4001 77.5695 34.8625 77.0319C34.3249 76.4943 33.8411 75.9299 33.411 75.4192C33.8411 74.8816 34.2981 74.344 34.8625 73.8064C35.4001 73.2688 35.9646 72.785 36.4753 72.3549C36.986 72.785 37.5505 73.2688 38.0881 73.8064ZM33.9486 72.8925C33.4917 73.3494 33.0347 73.8602 32.6315 74.344C31.6639 72.8925 31.18 71.656 31.18 70.9034C31.18 70.6077 31.2338 70.4196 31.3682 70.2852C31.5026 70.1508 31.6908 70.097 31.9864 70.097H32.0133C32.0671 70.4733 32.2283 70.8497 32.4971 71.1185C32.8197 71.441 33.2498 71.6292 33.7336 71.6292C34.1637 71.6292 34.5669 71.4679 34.8625 71.1991C35.0507 71.3066 35.212 71.4141 35.4001 71.5485C34.9163 71.9786 34.4325 72.4355 33.9486 72.8925Z" fill="#AA8E48"/>
<path d="M51.9316 45.8527H57.7375V41.6058V40.9607H62.6027V38.8641V38.0846V37.2782V35.1816H57.7375V34.5634V30.3164H51.9316V34.5634V35.1816H47.0664V37.2782V38.0846V38.8641V40.9607H51.9316V41.6058V45.8527ZM48.8942 39.1597V38.891V38.1114V37.3051V37.0363H53.7594V34.5902V32.1442H55.9097V34.5902V37.0363H60.7749V37.3051V38.1114V38.891V39.1597H55.9097V41.6058V44.0249H53.7594V41.6058V39.1597H48.8942Z" fill="#AA8E48"/>
<path d="M24.38 37.1704V34.5899V33.8373L18.2515 29.5635L12.1768 33.8373V34.5899V37.1704L12.338 37.3048L13.467 38.1111L12.3649 38.8906L12.1768 38.9982V41.6055V42.3581L17.3914 46.0137L18.2784 46.6319L19.1654 46.0137L24.4069 42.3581V41.6055V38.9982L24.1919 38.8906L23.0629 38.1111L24.2188 37.3048L24.38 37.1704ZM18.2515 32.2783L21.5308 34.5899L22.2028 35.0738V36.2833L21.2889 36.9016L18.2246 34.7512L15.1604 36.9016L14.2465 36.2833V35.0738L14.9185 34.5899L18.2515 32.2783ZM18.2515 43.9171L14.9453 41.6323L14.2734 41.1754V39.9389L15.1873 39.3207L18.2515 41.4711L21.3158 39.3207L22.2297 39.9389V41.1754L21.5577 41.6323L18.2515 43.9171ZM19.5955 38.1111L18.4665 38.8906L18.2515 38.9982L18.0634 38.8638L16.9344 38.0843L18.0634 37.2779L18.2246 37.1435L18.3859 37.2779L19.5955 38.1111Z" fill="#AA8E48"/>
<path d="M33.4917 55.9583L35.9915 58.4581L36.556 59.0226L37.1205 58.4581L39.5934 55.9583V54.7756V53.5391H42.0394L42.2007 53.3779L44.3241 51.2544L45.1037 50.4749L44.9961 50.3674L44.2973 49.6685L42.1738 47.545L42.0394 47.4106H39.5934V46.1742V44.9646L36.556 41.9541L33.4917 44.9915V46.2011V47.4375H31.0457L30.9113 47.5988L28.7878 49.7223L28.089 50.4211L27.9814 50.5286L28.7609 51.3082L30.8844 53.4316L31.0457 53.5929H33.4917V54.8294V55.9583ZM35.6421 45.8785L36.556 44.9646L37.4699 45.8785V46.2011V47.4375H35.6421V46.2011V45.8785ZM35.6421 51.2813V50.3942V49.6954V49.561H37.4699V49.6954V50.3942V51.2813V51.4157H35.6421V51.2813ZM41.9588 50.3942L42.0663 50.5018L41.2599 51.2813L41.1255 51.4157H39.5396V51.2813V50.3942V49.6954V49.561H41.1255L41.2599 49.6954L41.9588 50.3942ZM31.0188 50.5018L31.1263 50.3942L31.8252 49.6954L31.9596 49.561H33.5186V49.6954V50.3942V51.2813V51.4157H31.9596L31.8252 51.2813L31.0188 50.5018ZM35.6421 53.5391H37.4699V54.7756V55.0713L36.556 55.9852L35.6421 55.0713V54.7756V53.5391Z" fill="#AA8E48"/>
<path d="M20.6164 61.6304L18.251 59.9639L15.8857 61.6304L13.9772 62.9475L12.1494 64.2377V64.2646V67.1676V67.2213L15.0255 69.2373L16.1276 69.9899L18.251 71.4683L20.3745 69.9899L21.4497 69.2373L24.3527 67.2213V67.1676V64.2646V64.2377L22.5249 62.9475L20.6164 61.6304ZM21.611 65.286V66.173L20.1864 67.1676L18.251 68.5115L16.3157 67.1676L14.8911 66.173V65.286L16.3695 64.2646L18.251 62.9475L18.2779 62.9206L18.3048 62.9475L20.1864 64.2646L21.611 65.286Z" fill="#AA8E48"/>
<path d="M24.3527 61.63V58.727V58.6732L19.165 55.0445L18.251 54.3994L17.364 55.0445L12.1494 58.6732V58.727V61.63H12.1763L16.3157 58.727L18.251 57.383L20.1864 58.727L24.3527 61.63Z" fill="#AA8E48"/>
<path d="M67.5751 77.5434C67.9245 77.6778 68.2471 77.8391 68.5696 78.0273C69.1878 78.4036 69.7254 78.8874 70.1555 79.4787C70.8812 80.4464 71.3113 81.6291 71.3113 82.9462L74.94 82.9731V82.9462C74.94 81.656 75.3701 80.4464 76.0958 79.4787C76.5528 78.8874 77.0904 78.4036 77.7086 78.0273C78.0043 77.8391 78.3537 77.6509 78.7032 77.5434C79.0257 77.409 79.3483 77.3284 79.6708 77.2746C80.0202 77.2209 80.3697 77.194 80.746 77.194V76.5489L80.7729 73.5384C80.746 73.5384 80.746 73.5384 80.746 73.5384C80.0202 73.5384 79.3214 73.404 78.7032 73.1621C77.3054 72.6245 76.1496 71.5762 75.5045 70.2322C75.397 69.9903 75.2895 69.7215 75.2088 69.4527C75.0475 68.9151 74.94 68.3238 74.94 67.7324H71.3113C71.3113 68.3238 71.2307 68.9151 71.0425 69.4527C70.9619 69.7215 70.8544 69.9634 70.7468 70.2322C70.1017 71.5762 68.9459 72.6245 67.5751 73.1621C66.93 73.404 66.258 73.5384 65.5322 73.5384V76.5489V77.194C65.9085 77.194 66.258 77.2209 66.6074 77.2746C66.9568 77.3284 67.2794 77.4359 67.5751 77.5434ZM69.376 75.3393C70.4512 74.8017 71.3651 74.0491 72.1177 73.1352C72.494 72.6514 72.8703 72.1407 73.1391 71.5762C73.4079 72.1407 73.7573 72.6514 74.1605 73.1352C74.9132 74.0491 75.8539 74.8286 76.9291 75.3662C76.284 75.6887 75.6927 76.0651 75.1282 76.5489C74.8594 76.7908 74.6175 77.0327 74.3487 77.3015C74.268 77.3821 74.1874 77.4628 74.1336 77.5703C73.9992 77.7316 73.8649 77.8929 73.7573 78.0541C73.5154 78.4036 73.3004 78.7261 73.1122 79.1024C72.9241 78.7261 72.709 78.3767 72.4671 78.0541C72.3327 77.8929 72.2252 77.7047 72.0908 77.5703C72.0102 77.4897 71.9564 77.3821 71.8758 77.3015C71.6339 77.0327 71.3919 76.7639 71.0963 76.5489C70.6124 76.0651 70.0211 75.6619 69.376 75.3393Z" fill="#AA8E48"/>
<path d="M28.627 27.6547C30.1322 27.6547 31.5031 28.2191 32.5514 29.133C33.7878 30.2351 34.5942 31.821 34.5942 33.595H38.5455C38.5455 31.821 39.325 30.2082 40.5883 29.133C41.6366 28.2191 43.0075 27.6547 44.5127 27.6547V26.1494H28.627V27.6547ZM38.2229 27.8159C37.8466 28.2191 37.4972 28.6761 37.2015 29.133C36.9596 29.5362 36.7445 29.9932 36.5564 30.4501C36.3682 29.9932 36.1532 29.5631 35.8844 29.133C35.5887 28.6492 35.2662 28.2191 34.8899 27.8159H38.2229Z" fill="#AA8E48"/>
<path d="M44.5122 23.6767C43.0069 23.6767 41.6361 23.1122 40.5878 22.1983C39.3245 21.0963 38.545 19.5104 38.545 17.7363H34.5937C34.5937 19.5373 33.8142 21.1231 32.5508 22.1983C31.5294 23.1122 30.1317 23.6767 28.6533 23.6767V25.2088H44.5391V23.6767H44.5122ZM34.9162 23.5423C35.2925 23.1391 35.6151 22.6821 35.9108 22.2252C36.1796 21.7951 36.3946 21.3651 36.5828 20.9081C36.7709 21.3651 36.986 21.822 37.2547 22.2252C37.5235 22.6821 37.873 23.1391 38.2493 23.5423H34.9162Z" fill="#AA8E48"/>
<path d="M109.695 64.9098V63.6465C105.69 63.6734 102.169 65.6893 100.073 68.7805C98.1911 71.549 95.0193 73.3768 91.4175 73.3768C87.8156 73.3768 84.6438 71.5759 82.7623 68.7805C80.6657 65.6893 77.1445 63.6734 73.1394 63.6465C69.1344 63.6734 65.6132 65.6893 63.5166 68.7805C61.635 71.549 58.4633 73.3768 54.8614 73.3768C51.2596 73.3768 48.0878 71.5759 46.2062 68.7805C44.1096 65.6893 40.5884 63.6734 36.5834 63.6465C32.5784 63.6734 29.0571 65.6893 26.9606 68.7805C25.079 71.549 21.9072 73.3768 18.3054 73.3768C14.7035 73.3768 11.5317 71.5759 9.65019 68.7805C7.55359 65.6893 4.03238 63.6734 0.0273438 63.6465V64.9098C3.62919 64.9367 6.80097 66.7645 8.65565 69.56C10.7254 72.6511 14.3003 74.6402 18.3054 74.6402C22.3104 74.6402 25.8854 72.6511 27.9551 69.56C29.8098 66.7645 32.9815 64.9367 36.5834 64.9098C40.1852 64.9367 43.357 66.7645 45.2117 69.56C47.2814 72.6511 50.8564 74.6402 54.8614 74.6402C58.8665 74.6402 62.4414 72.6511 64.5111 69.56C66.3658 66.7645 69.5376 64.9367 73.1394 64.9098C76.7413 64.9367 79.9131 66.7645 81.7677 69.56C83.8375 72.6511 87.4124 74.6402 91.4175 74.6402C95.4225 74.6402 98.9975 72.6511 101.067 69.56C102.922 66.7645 106.094 64.9098 109.695 64.9098Z" fill="#AA8E48"/>
<path d="M109.695 60.9589C106.094 60.932 102.922 59.1042 101.067 56.3087C98.9975 53.2176 95.4225 51.2285 91.4175 51.2285C87.4124 51.2285 83.8375 53.2176 81.7677 56.3087C79.9131 59.1042 76.7413 60.932 73.1394 60.9589C69.5376 60.932 66.3658 59.1042 64.5111 56.3087C62.4414 53.2176 58.8665 51.2285 54.8614 51.2285C50.8564 51.2285 47.2814 53.2176 45.2117 56.3087C43.357 59.1042 40.1852 60.932 36.5834 60.9589C32.9815 60.932 29.8098 59.1042 27.9551 56.3087C25.8854 53.2176 22.3104 51.2285 18.3054 51.2285C14.3003 51.2285 10.7254 53.2176 8.65565 56.3087C6.80097 59.1042 3.62919 60.932 0.0273438 60.9589V62.2222C4.03238 62.1953 7.55359 60.1794 9.65019 57.0882C11.5317 54.3197 14.7035 52.4918 18.3054 52.4918C21.9072 52.4918 25.079 54.2928 26.9606 57.0882C29.0571 60.1794 32.5784 62.1953 36.5834 62.2222C40.5884 62.1953 44.1096 60.1794 46.2062 57.0882C48.0878 54.3197 51.2596 52.4918 54.8614 52.4918C58.4633 52.4918 61.635 54.2928 63.5166 57.0882C65.6132 60.1794 69.1344 62.1953 73.1394 62.2222C77.1445 62.1953 80.6657 60.1794 82.7623 57.0882C84.6438 54.3197 87.8156 52.4918 91.4175 52.4918C95.0193 52.4918 98.1911 54.2928 100.073 57.0882C102.169 60.1794 105.69 62.1953 109.695 62.2222" fill="#AA8E48"/>
<path d="M9.62284 32.2242C11.5044 29.4556 14.6762 27.6278 18.278 27.6278C21.8799 27.6278 25.0516 29.4288 26.9332 32.2242C29.0298 35.3154 32.551 37.3313 36.556 37.3582C40.5611 37.3313 44.0823 35.3154 46.1789 32.2242C48.0605 29.4556 51.2322 27.6278 54.8341 27.6278C58.4359 27.6278 61.6077 29.4288 63.4893 32.2242C65.5859 35.3154 69.1071 37.3313 73.1121 37.3582V36.0949C69.5103 36.068 66.3385 34.2402 64.4838 31.4447C62.4141 28.3536 58.8391 26.3645 54.8341 26.3645C50.829 26.3645 47.2541 28.3536 45.1844 31.4447C43.3297 34.2402 40.1579 36.068 36.556 36.0949C32.9542 36.068 29.7824 34.2402 27.9277 31.4447C25.858 28.3536 22.2831 26.3645 18.278 26.3645C14.273 26.3645 10.698 28.3536 8.6283 31.4447C6.77362 34.2671 3.60185 36.0949 0 36.1217V37.3851C4.00504 37.3582 7.52625 35.3154 9.62284 32.2242Z" fill="#AA8E48"/>
<path d="M91.3904 77.3014V76.0381C87.3854 76.065 83.8642 78.0809 81.7676 81.1721C79.886 83.9406 76.7142 85.7684 73.1124 85.7684C69.5105 85.7684 66.3388 83.9675 64.4572 81.1721C62.3606 78.0809 58.8394 76.065 54.8344 76.0381C50.8293 76.065 47.3081 78.0809 45.2115 81.1721C43.33 83.9406 40.1582 85.7684 36.5563 85.7684C32.9545 85.7684 29.7827 83.9675 27.9012 81.1721C25.8046 78.1078 22.2834 76.0918 18.2783 76.065V77.3283C21.8802 77.3552 25.0519 79.183 26.9066 81.9784C28.9763 85.0696 32.5513 87.0587 36.5563 87.0587C40.5614 87.0587 44.1363 85.0696 46.2061 81.9784C48.0607 79.2099 51.2325 77.3552 54.8344 77.3283C58.4362 77.3552 61.608 79.183 63.4627 81.9784C65.5324 85.0696 69.1074 87.0587 73.1124 87.0587C77.1174 87.0587 80.6924 85.0696 82.7621 81.9784C84.6437 79.183 87.8155 77.3283 91.3904 77.3014Z" fill="#AA8E48"/>
<path d="M27.9012 19.8328C29.7827 17.0643 32.9545 15.2365 36.5563 15.2365C40.1582 15.2365 43.33 17.0374 45.2115 19.8328C47.3081 22.924 50.8293 24.9399 54.8344 24.9668V23.7035C51.2325 23.6766 48.0607 21.8488 46.2061 19.0533C44.1363 15.9891 40.5614 14 36.5563 14C32.5513 14 28.9763 15.9891 26.9066 19.0802C25.0251 21.8757 21.8533 23.7035 18.2783 23.7304V24.9937C22.2834 24.9668 25.8046 22.924 27.9012 19.8328Z" fill="#AA8E48"/>
<path d="M109.722 62.2222C113.727 62.1953 117.248 60.1794 119.345 57.0882C121.226 54.3197 124.398 52.4918 128 52.4918V51.2285C123.995 51.2285 120.42 53.2176 118.35 56.3087C116.495 59.0773 113.324 60.932 109.722 60.9589" fill="#AA8E48"/>
<path d="M73.139 38.8098C69.1339 38.8367 65.6127 40.8527 63.5161 43.9438C61.6346 46.7124 58.4628 48.5402 54.861 48.5402C51.2591 48.5402 48.0873 46.7393 46.2058 43.9438C44.1092 40.8527 40.588 38.8367 36.5829 38.8098C32.5779 38.8367 29.0567 40.8527 26.9601 43.9438C25.0785 46.7124 21.9068 48.5402 18.3049 48.5402C14.7031 48.5402 11.5313 46.7393 9.64972 43.9438C7.52625 40.8527 4.00504 38.8367 0 38.8098V40.0731C3.60185 40.1 6.77362 41.9278 8.6283 44.7233C10.698 47.8144 14.273 49.8035 18.278 49.8035C22.2831 49.8035 25.858 47.8144 27.9277 44.7233C29.7824 41.9278 32.9542 40.1 36.5561 40.0731C40.1579 40.1 43.3297 41.9278 45.1844 44.7233C47.2541 47.8144 50.829 49.8035 54.8341 49.8035C58.8391 49.8035 62.4141 47.8144 64.4838 44.7233C66.3385 41.9278 69.5103 40.1 73.1121 40.0731" fill="#AA8E48"/>
<path d="M73.1387 40.0461C76.7405 40.073 79.9123 41.9008 81.767 44.6962C83.8367 47.7874 87.4117 49.7764 91.4167 49.7764C95.4217 49.7764 98.9967 47.7874 101.066 44.6962C102.921 41.9276 106.093 40.073 109.695 40.0461C113.297 40.0461 116.468 41.847 118.35 44.6425C120.446 47.7336 123.968 49.7496 127.973 49.7764V48.5131C124.371 48.4862 121.199 46.6584 119.344 43.863C117.275 40.7718 113.7 38.7827 109.695 38.7827V38.7559C105.69 38.7827 102.168 40.7987 100.072 43.8898C98.1903 46.6584 95.0185 48.4862 91.4167 48.4862C87.8149 48.4862 84.6431 46.6853 82.7615 43.8898C80.6649 40.7987 77.1437 38.7827 73.1387 38.7559" fill="#AA8E48"/>
<path d="M41.9861 71.3604C41.2335 71.3604 40.6152 71.9786 40.6152 72.7312C40.6152 73.4838 41.2335 74.1021 41.9861 74.1021C42.7387 74.1021 43.3569 73.4838 43.3569 72.7312C43.3569 71.9517 42.7387 71.3604 41.9861 71.3604Z" fill="#AA8E48"/>
<path d="M30.9109 79.5591C31.6635 79.5591 32.2817 78.9409 32.2817 78.1882C32.2817 77.4356 31.6635 76.8174 30.9109 76.8174C30.1583 76.8174 29.54 77.4356 29.54 78.1882C29.5669 78.9409 30.1583 79.5591 30.9109 79.5591Z" fill="#AA8E48"/>
<path d="M69.8865 49.2659V48.0833L67.3867 49.2659V54.9106L69.8865 56.3084V54.6418L68.5425 53.8892V49.8573L69.8865 49.2659Z" fill="#AA8E48"/>
<path d="M75.5584 51.0935V48.083H70.8008V56.7651L73.1931 58.0553L75.5047 56.7651V51.7655H73.1662V52.6525H74.3489V56.0393L73.1931 56.5769L72.0104 55.9049V49.1582H74.322V51.0935H75.5584Z" fill="#AA8E48"/>
<path d="M76.4717 48.1367V56.4962L79.1865 54.9103V49.4538L78.2188 48.9431V54.1308L77.5469 54.4803V48.6474L76.4717 48.1367Z" fill="#AA8E48"/>
<path d="M80.1005 50.7977L84.2668 48.7011L73.2193 43.3252L62.1719 48.7011L66.3919 50.8246V49.4L65.1017 48.7011L73.2193 44.7498L81.31 48.7011L80.1005 49.3731V50.7977Z" fill="#AA8E48"/>
<path d="M56.9304 67.2748H61.2042C62.0375 67.2748 62.7094 67.0328 63.1395 66.5759C63.5696 66.0921 63.7846 65.3394 63.7846 64.4255C63.7846 63.4579 63.5965 62.759 63.1664 62.3289C62.7901 61.9257 62.1987 61.7645 61.3923 61.7645H60.3709C60.129 61.7645 59.9409 61.6032 59.8602 61.4957C59.7527 61.3882 59.6989 61.2269 59.6989 60.985C59.6989 60.6355 59.7796 60.4474 59.9409 60.3399C60.0753 60.2323 60.2634 60.1786 60.5591 60.1786H63.4621V58.1357H60.2903C59.457 58.1357 58.785 58.3777 58.355 58.8615C57.9249 59.3453 57.7099 60.0173 57.7099 60.9581C57.7099 61.8451 57.9249 62.6246 58.3281 63.0816C58.7582 63.5385 59.3764 63.7804 60.1828 63.7804H61.016H61.0429C61.3924 63.7804 61.5536 63.8342 61.6611 63.9148C61.7687 64.0223 61.8224 64.1836 61.8224 64.5062C61.8224 64.7481 61.7418 64.99 61.6074 65.0975C61.473 65.205 61.258 65.2857 60.9354 65.2857H56.9572V58.1357H54.995V61.6032H53.1135V58.1357H51.6889H51.1513H49.3772C49.0278 58.1357 48.7052 58.1626 48.4365 58.1895C47.8989 58.2701 47.4419 58.4314 47.0387 58.7271C46.8237 58.8615 46.6624 59.0228 46.528 59.2109C46.1786 59.641 45.9635 60.2592 45.856 61.0656C45.8023 61.5226 45.7754 62.1677 45.7754 63.0816V67.3285H47.7376V63.8342H50.3449V63.6998V61.7645H47.7376C47.7645 61.2806 47.8989 60.9043 48.1139 60.6624C48.3558 60.3936 48.7321 60.2592 49.2428 60.2592H51.1513V67.3285H53.1135V63.7536H54.995V67.3285H56.9304V67.2748Z" fill="#AA8E48"/>
<path d="M113.969 54.7758V55.9585H116.388V54.7758V53.3781V51.2546V50.3676V49.6687V47.599V46.2281V45.0186H108.485V46.2281V47.599V48.0559H105.421V47.599V46.2281V45.0186H103.002V46.2281V47.599V49.7225V50.4213V51.3083V53.4318V54.8296V56.0123H110.905V54.8296V53.4318V52.9749H113.969V53.4318V54.7758ZM110.931 47.142H113.969V47.599V48.0559H110.905V47.599V47.142H110.931ZM113.969 50.8783H110.905V50.4213V49.9644H113.969V50.4213V50.8783ZM105.421 49.9375H108.485V50.3944V50.8514H105.421V50.3944V49.9375ZM108.485 53.8619H105.421V53.4049V52.948H108.485V53.4049V53.8619Z" fill="#AA8E48"/>
<path d="M98.433 59.1308V56.9805H84.375V59.1308H90.1541V66.7377H84.375V68.8881H98.433V66.7377H92.6539V59.1308H98.433Z" fill="#AA8E48"/>
<path d="M0 106.089H128V107.97H0V106.089Z" fill="#AA8E48"/>
<path d="M0 111.25H128V114.476H0V111.25Z" fill="#AA8E48"/>
</g>
<defs>
<clipPath id="clip0_5027_9939">
<rect width="128" height="128" fill="white"/>
</clipPath>
</defs>
</svg>
