<svg width="128" height="128" viewBox="0 0 128 128" fill="none" xmlns="http://www.w3.org/2000/svg">
<path fill-rule="evenodd" clip-rule="evenodd" d="M60.4771 63.0906C60.2672 63.1688 60.0568 63.2085 59.8458 63.2085C59.8458 63.2085 53.2796 63.2212 51.9176 63.2222C51.9176 62.8257 51.9176 61.1184 51.9176 60.7203C52.4029 60.7203 58.3326 60.7203 58.3326 60.7203C60.7648 60.7203 60.7938 61.1697 60.7938 61.1877V62.85C60.7938 62.9489 60.6204 63.034 60.4771 63.0906ZM61.5155 58.331C60.8018 58.1063 59.7607 58 58.3326 58H54.3925C50.9447 58 49.1973 58.9306 49.1973 60.7642V69.3491C49.1973 69.495 49.3141 69.6103 49.4563 69.6103H51.6521C51.8002 69.6103 51.9176 69.495 51.9176 69.3491C51.9176 69.3491 51.9176 66.356 51.9176 65.9008C52.3728 65.9008 56.1738 65.9008 56.3684 65.9008C56.5159 66.0446 60.0478 69.5479 60.0478 69.5479C60.098 69.5955 60.1652 69.6214 60.2334 69.6214H63.0843C63.1895 69.6214 63.2878 69.5574 63.3296 69.4554C63.3439 69.4231 63.3471 69.3914 63.3471 69.3613C63.3471 69.2851 63.318 69.2201 63.2667 69.1672C63.2667 69.1672 60.6246 66.6304 59.8839 65.9304C60.705 65.9224 61.468 65.7485 62.1416 65.4022C63.0526 64.9475 63.5157 64.2993 63.5157 63.4723V60.7642C63.5157 59.5671 62.8421 58.7487 61.5155 58.331Z" fill="url(#paint0_linear_5027_9665)"/>
<path fill-rule="evenodd" clip-rule="evenodd" d="M3.48114 61.2831C4.04265 60.9188 4.58512 60.7422 5.14557 60.7422H8.8493C9.56625 60.7422 10.1933 60.9103 10.7141 61.2392C10.7173 61.2397 10.7173 61.245 10.7173 61.245C11.2053 61.5379 11.4427 61.8758 11.4427 62.2729C11.4427 62.2729 11.4427 63.1225 11.4427 63.4725C10.9621 63.4725 3.17395 63.4725 2.68858 63.4725C2.68858 63.1225 2.68858 62.2729 2.68858 62.2729C2.68858 61.9493 2.95876 61.6199 3.48114 61.2831ZM12.2554 58.935C11.2185 58.3471 10.0728 58.0483 8.8493 58.0483H5.14557C3.97867 58.0483 2.89848 58.3111 1.94307 58.8287C0.654035 59.5298 0 60.5323 0 61.8071V69.3567C0 69.4995 0.11632 69.6174 0.259605 69.6174H2.42844C2.5712 69.6174 2.68858 69.4995 2.68858 69.3567C2.68858 69.3567 2.68858 66.6153 2.68858 66.1648C3.17395 66.1648 10.9621 66.1648 11.4427 66.1648C11.4427 66.6153 11.4427 69.3567 11.4427 69.3567C11.4427 69.4995 11.5596 69.6174 11.7081 69.6174H13.8727C14.0165 69.6174 14.1355 69.4995 14.1355 69.3567V61.8071C14.1355 60.6232 13.5021 59.6557 12.2554 58.935Z" fill="url(#paint1_linear_5027_9665)"/>
<path fill-rule="evenodd" clip-rule="evenodd" d="M31.0459 58.0483H28.4266C28.3446 58.0483 28.2595 58.0965 28.2098 58.1678C28.2098 58.1678 23.4724 65.2433 23.0663 65.8476C22.6671 65.2433 17.981 58.1678 17.981 58.1678C17.9292 58.0965 17.8499 58.0483 17.76 58.0483H15.1439C15.0455 58.0483 14.9599 58.1033 14.9128 58.189C14.8705 58.2767 14.8748 58.3788 14.9234 58.4576L21.7091 68.7244C22.1527 69.3848 22.581 69.7099 23.0193 69.7099C23.4428 69.7099 23.8779 69.3774 24.3146 68.7244C24.3146 68.7244 24.3146 68.7244 24.3146 68.727L31.26 58.4623C31.3139 58.3804 31.3229 58.2767 31.2759 58.189C31.2299 58.1033 31.141 58.0483 31.0459 58.0483Z" fill="url(#paint2_linear_5027_9665)"/>
<path fill-rule="evenodd" clip-rule="evenodd" d="M69.5191 61.2831C70.0785 60.9188 70.6241 60.7422 71.183 60.7422H74.8883C75.6042 60.7422 76.2276 60.9103 76.75 61.2392C76.75 61.2397 76.7547 61.245 76.7547 61.245C77.2422 61.5379 77.4812 61.8758 77.4812 62.2729C77.4812 62.2729 77.4812 63.1225 77.4812 63.4725C76.9974 63.4725 69.2124 63.4725 68.726 63.4725C68.726 63.1225 68.726 62.2729 68.726 62.2729C68.7265 61.9493 68.992 61.6199 69.5191 61.2831ZM78.2938 58.935C77.257 58.3471 76.1102 58.0483 74.8888 58.0483H71.1835C70.0119 58.0483 68.9391 58.3111 67.9816 58.8287C66.6925 59.5335 66.0332 60.5323 66.0332 61.8071V69.3567C66.0332 69.4995 66.1527 69.6174 66.2986 69.6174H68.4675C68.6092 69.6174 68.7265 69.4995 68.7265 69.3567C68.7265 69.3567 68.7265 66.6153 68.7265 66.1648C69.213 66.1648 76.9979 66.1648 77.4817 66.1648C77.4817 66.6153 77.4817 69.3567 77.4817 69.3567C77.4817 69.4995 77.597 69.6174 77.7424 69.6174H79.9123C80.0556 69.6174 80.1724 69.4995 80.1724 69.3567V61.8071C80.1724 60.6232 79.5411 59.6557 78.2938 58.935Z" fill="url(#paint3_linear_5027_9665)"/>
<path fill-rule="evenodd" clip-rule="evenodd" d="M95.4899 58.0483H81.8773C81.7335 58.0483 81.6172 58.1678 81.6172 58.3143V60.4821C81.6172 60.6232 81.7335 60.7422 81.8773 60.7422C81.8773 60.7422 86.8606 60.7422 87.3401 60.7422C87.3401 61.2392 87.3401 69.3567 87.3401 69.3567C87.3401 69.4995 87.457 69.6174 87.5997 69.6174H89.768C89.9145 69.6174 90.034 69.4995 90.034 69.3567C90.034 69.3567 90.034 61.2392 90.034 60.7422C90.5135 60.7422 95.4899 60.7422 95.4899 60.7422C95.6374 60.7422 95.7548 60.6232 95.7548 60.4821V58.3143C95.7548 58.1678 95.638 58.0483 95.4899 58.0483Z" fill="url(#paint4_linear_5027_9665)"/>
<path fill-rule="evenodd" clip-rule="evenodd" d="M118.994 60.7422H127.741C127.884 60.7422 128 60.6232 128 60.4821V58.3143C128 58.1678 127.884 58.0483 127.741 58.0483H118.994C117.848 58.0483 116.812 58.2122 115.918 58.5305C114.556 58.9979 113.861 59.7556 113.861 60.7787V66.9056C113.861 67.99 114.56 68.763 115.942 69.2018C116.785 69.4778 117.815 69.6174 118.994 69.6174H127.741C127.884 69.6174 128 69.4995 128 69.3567V67.19C128 67.0415 127.884 66.9235 127.741 66.9235H118.994C117.461 66.9235 116.613 66.6814 116.613 66.233V61.6611C116.613 61.0489 117.415 60.7422 118.994 60.7422Z" fill="url(#paint5_linear_5027_9665)"/>
<path fill-rule="evenodd" clip-rule="evenodd" d="M102.62 60.7422H111.358C111.503 60.7422 111.62 60.6232 111.62 60.4821V58.3143C111.62 58.1678 111.503 58.0483 111.358 58.0483H102.62C101.468 58.0483 100.432 58.2122 99.5421 58.5305C98.1769 58.9979 97.4854 59.7556 97.4854 60.7787V66.9056C97.4854 67.99 98.1864 68.763 99.5669 69.2018C100.407 69.4778 101.434 69.6174 102.62 69.6174H111.358C111.503 69.6174 111.62 69.4995 111.62 69.3567V67.19C111.62 67.0415 111.503 66.9235 111.358 66.9235H102.62C101.08 66.9235 100.238 66.6814 100.238 66.233V65.027C100.487 65.027 101.428 65.027 102.606 65.027C102.637 65.027 102.666 65.027 102.699 65.027C105.388 65.027 109.27 65.027 109.27 65.027C109.413 65.027 109.532 64.9107 109.532 64.7658V62.598C109.532 62.4542 109.412 62.3358 109.27 62.3358C109.27 62.3358 105.388 62.3358 102.699 62.3358C102.666 62.3358 102.637 62.3358 102.606 62.3358C101.428 62.3358 100.487 62.3358 100.238 62.3358V61.6611C100.238 61.0489 101.041 60.7422 102.62 60.7422Z" fill="url(#paint6_linear_5027_9665)"/>
<path fill-rule="evenodd" clip-rule="evenodd" d="M37.6968 60.7422H46.4388C46.5858 60.7422 46.7052 60.6232 46.7052 60.4821V58.3143C46.7052 58.1678 46.5858 58.0483 46.4388 58.0483H37.6968C36.5458 58.0483 35.5137 58.2122 34.6212 58.5305C33.255 58.9979 32.5645 59.7556 32.5645 60.7787V66.9056C32.5645 67.99 33.2645 68.763 34.6461 69.2018C35.4888 69.4778 36.5177 69.6174 37.6968 69.6174H46.4388C46.5858 69.6174 46.7052 69.4995 46.7052 69.3567V67.19C46.7052 67.0415 46.5858 66.9235 46.4388 66.9235H37.6968C36.164 66.9235 35.3165 66.6814 35.3165 66.233V65.027C35.5687 65.027 36.5045 65.027 37.6841 65.027C37.7148 65.027 37.7497 65.027 37.7777 65.027C40.47 65.027 44.3477 65.027 44.3477 65.027C44.4962 65.027 44.6094 64.9107 44.6094 64.7658V62.598C44.6094 62.4542 44.4962 62.3358 44.3477 62.3358C44.3477 62.3358 40.47 62.3358 37.7777 62.3358C37.7497 62.3358 37.7148 62.3358 37.6841 62.3358C36.5045 62.3358 35.5687 62.3358 35.3165 62.3358V61.6611C35.3165 61.0489 36.1159 60.7422 37.6968 60.7422Z" fill="url(#paint7_linear_5027_9665)"/>
<defs>
<linearGradient id="paint0_linear_5027_9665" x1="56.3565" y1="58" x2="56.3565" y2="69.6214" gradientUnits="userSpaceOnUse">
<stop stop-color="#008BE1"/>
<stop offset="0.473958" stop-color="#73B3DB"/>
<stop offset="0.505208" stop-color="#007DCB"/>
<stop offset="1" stop-color="#0073BB"/>
</linearGradient>
<linearGradient id="paint1_linear_5027_9665" x1="7.06776" y1="58.0483" x2="7.06776" y2="69.6174" gradientUnits="userSpaceOnUse">
<stop stop-color="#008BE1"/>
<stop offset="0.473958" stop-color="#73B3DB"/>
<stop offset="0.505208" stop-color="#007DCB"/>
<stop offset="1" stop-color="#0073BB"/>
</linearGradient>
<linearGradient id="paint2_linear_5027_9665" x1="23.0951" y1="58.0483" x2="23.0951" y2="69.7099" gradientUnits="userSpaceOnUse">
<stop stop-color="#008BE1"/>
<stop offset="0.473958" stop-color="#73B3DB"/>
<stop offset="0.505208" stop-color="#007DCB"/>
<stop offset="1" stop-color="#0073BB"/>
</linearGradient>
<linearGradient id="paint3_linear_5027_9665" x1="73.1028" y1="58.0483" x2="73.1028" y2="69.6174" gradientUnits="userSpaceOnUse">
<stop stop-color="#008BE1"/>
<stop offset="0.473958" stop-color="#73B3DB"/>
<stop offset="0.505208" stop-color="#007DCB"/>
<stop offset="1" stop-color="#0073BB"/>
</linearGradient>
<linearGradient id="paint4_linear_5027_9665" x1="88.686" y1="58.0483" x2="88.686" y2="69.6174" gradientUnits="userSpaceOnUse">
<stop stop-color="#008BE1"/>
<stop offset="0.473958" stop-color="#73B3DB"/>
<stop offset="0.505208" stop-color="#007DCB"/>
<stop offset="1" stop-color="#0073BB"/>
</linearGradient>
<linearGradient id="paint5_linear_5027_9665" x1="120.931" y1="58.0483" x2="120.931" y2="69.6174" gradientUnits="userSpaceOnUse">
<stop stop-color="#008BE1"/>
<stop offset="0.473958" stop-color="#73B3DB"/>
<stop offset="0.505208" stop-color="#007DCB"/>
<stop offset="1" stop-color="#0073BB"/>
</linearGradient>
<linearGradient id="paint6_linear_5027_9665" x1="104.553" y1="58.0483" x2="104.553" y2="69.6174" gradientUnits="userSpaceOnUse">
<stop stop-color="#008BE1"/>
<stop offset="0.473958" stop-color="#73B3DB"/>
<stop offset="0.505208" stop-color="#007DCB"/>
<stop offset="1" stop-color="#0073BB"/>
</linearGradient>
<linearGradient id="paint7_linear_5027_9665" x1="39.6349" y1="58.0483" x2="39.6349" y2="69.6174" gradientUnits="userSpaceOnUse">
<stop stop-color="#008BE1"/>
<stop offset="0.473958" stop-color="#73B3DB"/>
<stop offset="0.505208" stop-color="#007DCB"/>
<stop offset="1" stop-color="#0073BB"/>
</linearGradient>
</defs>
</svg>
