<svg width="128" height="128" viewBox="0 0 128 128" fill="none" xmlns="http://www.w3.org/2000/svg">
<g clip-path="url(#clip0_5027_10100)">
<path d="M2.45862 62.2107C1.55962 61.398 -8.77206 51.3486 42.0094 42.275C65.563 38.065 114.701 36.0738 115.148 44.158C115.178 44.7459 114.204 48.0281 110.075 50.2907C109.65 50.525 110.077 51.4309 111.927 50.1084C112.526 49.6808 123.34 41.5377 112.578 37.6087C110.687 36.918 101.016 33.8674 78.4875 34.0044C56.6044 34.136 11.5213 41.2746 0.941558 55.734C0.805885 55.9177 -1.5924 58.764 1.83643 62.4697C1.9351 62.5739 2.72311 62.8548 2.45862 62.2107Z" fill="url(#paint0_linear_5027_10100)"/>
<path d="M25.8387 60.6104C27.4175 60.4501 28.7797 61.0723 29.2552 62.0343C30.0734 63.6898 29.9884 66.5417 30.2515 68.7261C30.812 73.4473 31.452 78.4617 32.1016 83.25H27.1201C26.9337 80.9093 26.7377 78.792 26.4088 76.5582H18.1533C17.2502 78.8797 16.2402 80.923 15.3069 83.25H13.0293C14.7958 78.8975 16.9707 74.6574 18.866 70.4351C19.7321 68.4959 20.5996 66.5732 21.4273 64.7396C21.7822 63.9337 21.9343 63.2663 22.4236 62.6044C23.0992 61.6698 24.4025 60.753 25.8387 60.6104ZM24.1312 63.8858C23.6063 64.6244 23.4158 65.3754 22.9923 66.306C22.2537 67.9217 21.4712 69.5813 20.7147 71.2889C20.257 72.3085 19.7142 73.2787 19.2921 74.4217H26.1238C25.7236 70.8352 25.466 67.4352 24.985 63.8858C24.741 63.8858 24.2408 63.8666 24.1312 63.8858Z" fill="url(#paint1_linear_5027_10100)"/>
<path d="M127.675 62.4373L118.271 62.4318C117.556 62.4318 117.02 62.6415 116.858 63.483L115.474 70.6284L124.219 70.6339L123.791 72.8417L115.048 72.8362L113.624 80.194C113.42 81.2438 113.979 81.77 115.188 81.7714L124.592 81.7755L124.267 83.457L111.838 83.4516C109.474 83.4502 108.248 82.3991 108.817 79.4554L111.533 65.4235C111.97 63.165 112.768 60.7476 116.727 60.7489L128 60.7544L127.675 62.4373Z" fill="url(#paint2_linear_5027_10100)"/>
<path d="M109.175 46.7595L103.322 81.0039C103.322 81.4027 103.424 81.6521 103.989 81.6521H107.072V83.25H101.78C99.1595 83.25 98.6963 81.9015 98.6963 80.3049L104.501 46.7595H109.175Z" fill="url(#paint3_linear_5027_10100)"/>
<path d="M97.9773 72.7374C96.648 79.1592 91.476 83.9242 84.3566 83.7296C78.4405 83.5693 74.1674 78.1465 75.4145 72.122C76.7438 65.7002 81.9159 60.9352 89.0353 61.1298C94.9528 61.2901 99.2244 66.7143 97.9773 72.7374ZM80.6797 72.2659C79.4011 78.4384 81.6774 82.0549 84.6869 82.1372C87.6936 82.2194 91.4349 78.7673 92.7121 72.5935C93.9908 66.421 91.7145 62.8045 88.7064 62.7222C85.6969 62.64 81.957 66.0921 80.6797 72.2659Z" fill="url(#paint4_linear_5027_10100)"/>
<path d="M51.6299 93.5374L57.4734 60.71L64.4503 60.7566C71.1846 60.8005 75.1438 65.6271 73.994 72.0874C72.677 79.4863 68.0436 83.3167 62.0301 83.2769L57.7968 83.2495L55.9605 93.5662L51.6299 93.5374ZM58.0929 81.5817L61.1722 81.6023C65.5357 81.8243 67.986 78.3461 68.885 73.292C69.6278 69.1231 70.1033 62.6574 62.8386 62.6094L61.6258 62.7561L58.0929 81.5817Z" fill="url(#paint5_linear_5027_10100)"/>
<path d="M52.6306 46.7988L50.0693 61.0376C44.4724 60.9266 43.805 61.298 43.3706 61.3295C36.75 61.8325 33.2746 67.0319 32.8429 73.6895C32.3989 80.5622 36.6979 83.6265 43.7831 83.2496H50.7805L57.2558 46.8441L52.6306 46.7988ZM46.3677 81.5037L44.3436 81.49C39.5855 81.49 37.0926 78.1023 38.4781 71.7736C39.6731 66.307 41.8974 62.726 49.5567 62.9371L46.3677 81.5037Z" fill="url(#paint6_linear_5027_10100)"/>
<path d="M4.37707 60.853H18.2637L17.9183 63.1279H13.4699L9.96161 83.25H4.77179L8.33079 63.0786H3.83301L4.37707 60.853Z" fill="url(#paint7_linear_5027_10100)"/>
</g>
<defs>
<linearGradient id="paint0_linear_5027_10100" x1="58.6632" y1="62.6208" x2="58.6632" y2="33.9999" gradientUnits="userSpaceOnUse">
<stop stop-color="#008171"/>
<stop offset="0.625" stop-color="#008877"/>
<stop offset="0.65625" stop-color="#00EED0"/>
<stop offset="1" stop-color="#009280"/>
</linearGradient>
<linearGradient id="paint1_linear_5027_10100" x1="22.5655" y1="83.25" x2="22.5655" y2="60.5853" gradientUnits="userSpaceOnUse">
<stop stop-color="#205099"/>
<stop offset="0.510417" stop-color="#2761B8"/>
<stop offset="0.536458" stop-color="#90AAD0"/>
<stop offset="1" stop-color="#2E71D6"/>
</linearGradient>
<linearGradient id="paint2_linear_5027_10100" x1="118.339" y1="83.457" x2="118.339" y2="60.7489" gradientUnits="userSpaceOnUse">
<stop stop-color="#205099"/>
<stop offset="0.510417" stop-color="#2761B8"/>
<stop offset="0.536458" stop-color="#90AAD0"/>
<stop offset="1" stop-color="#2E71D6"/>
</linearGradient>
<linearGradient id="paint3_linear_5027_10100" x1="103.935" y1="83.25" x2="103.935" y2="46.7595" gradientUnits="userSpaceOnUse">
<stop stop-color="#205099"/>
<stop offset="0.510417" stop-color="#2761B8"/>
<stop offset="0.536458" stop-color="#90AAD0"/>
<stop offset="1" stop-color="#2E71D6"/>
</linearGradient>
<linearGradient id="paint4_linear_5027_10100" x1="86.6959" y1="83.7354" x2="86.6959" y2="61.124" gradientUnits="userSpaceOnUse">
<stop stop-color="#205099"/>
<stop offset="0.510417" stop-color="#2761B8"/>
<stop offset="0.536458" stop-color="#90AAD0"/>
<stop offset="1" stop-color="#2E71D6"/>
</linearGradient>
<linearGradient id="paint5_linear_5027_10100" x1="62.9107" y1="93.5662" x2="62.9107" y2="60.71" gradientUnits="userSpaceOnUse">
<stop stop-color="#205099"/>
<stop offset="0.510417" stop-color="#2761B8"/>
<stop offset="0.536458" stop-color="#90AAD0"/>
<stop offset="1" stop-color="#2E71D6"/>
</linearGradient>
<linearGradient id="paint6_linear_5027_10100" x1="45.0337" y1="83.2805" x2="45.0337" y2="46.7988" gradientUnits="userSpaceOnUse">
<stop stop-color="#205099"/>
<stop offset="0.510417" stop-color="#2761B8"/>
<stop offset="0.536458" stop-color="#90AAD0"/>
<stop offset="1" stop-color="#2E71D6"/>
</linearGradient>
<linearGradient id="paint7_linear_5027_10100" x1="11.0483" y1="83.25" x2="11.0483" y2="60.853" gradientUnits="userSpaceOnUse">
<stop stop-color="#205099"/>
<stop offset="0.510417" stop-color="#2761B8"/>
<stop offset="0.536458" stop-color="#90AAD0"/>
<stop offset="1" stop-color="#2E71D6"/>
</linearGradient>
<clipPath id="clip0_5027_10100">
<rect width="128" height="128" fill="white"/>
</clipPath>
</defs>
</svg>
