<svg width="128" height="128" viewBox="0 0 128 128" fill="none" xmlns="http://www.w3.org/2000/svg">
<path fill-rule="evenodd" clip-rule="evenodd" d="M77.3989 71.5003C78.3989 76.5003 75.6989 80.7003 73.4989 84.8003C71.0989 88.6003 66.9989 91.8003 62.1989 91.3003C51.3989 91.1003 40.7989 89.5003 30.8989 86.5003C30.4989 86.4003 29.9989 86.1003 29.7989 85.7003C29.5989 85.1003 29.8989 84.6003 30.2989 84.2003C39.2989 76.9003 49.9989 73.6003 60.4989 70.0003C64.3989 68.9003 68.5989 67.6003 73.0989 68.2003C74.8989 68.6003 76.6989 69.8003 77.3989 71.5003ZM114.399 50.0003C119.399 54.1003 123.999 59.8003 122.399 66.6003C119.899 76.7003 108.899 82.0003 100.199 85.4003C95.3989 87.0003 90.6989 88.6003 85.4989 89.1003C85.1989 89.1003 84.5989 89.1003 84.5989 88.7003L84.6989 88.1003C92.0989 79.8003 97.6989 70.4003 102.599 61.0003C104.899 56.7003 106.999 52.3003 108.899 48.0003C109.199 47.7003 109.499 47.5003 109.799 47.4003C111.599 47.6003 112.899 49.0003 114.399 50.0003ZM43.4989 39.3003L43.2989 39.9003C32.6989 52.0003 25.6989 66.1003 18.9989 80.1003C17.6989 81.3003 16.3989 79.7003 15.2989 79.2003C9.29889 75.3003 3.99889 69.0003 5.49889 61.5003C7.99889 51.8003 17.9989 46.6003 26.3989 43.1003C31.3989 41.2003 36.4989 39.7003 41.9989 38.9003C42.4989 38.8003 43.1989 38.8003 43.4989 39.3003ZM96.4989 41.2003C97.0989 41.5003 97.7989 41.6003 98.1989 42.3003C98.4989 43.0003 97.8989 43.4003 97.4989 43.9003C89.0989 50.5003 79.4989 54.1003 69.5989 57.3003C64.5989 58.5003 59.5989 60.7003 53.9989 59.5003C52.6989 59.2003 51.4989 58.3003 50.7989 57.1003C49.3989 53.3003 51.2989 49.3003 52.8989 46.0003C55.0989 41.8003 58.8989 36.9003 64.1989 36.8003C75.5989 36.7003 86.2989 38.4003 96.4989 41.2003ZM110.599 41.6003C119.199 46.3003 128.999 54.6003 127.899 65.6003C126.699 75.8003 117.199 83.0003 108.599 87.3003C83.6989 99.2003 48.6989 99.6003 22.9989 89.2003C14.3989 85.6003 4.69889 79.3003 0.998891 70.0003C-1.80111 62.3003 1.59889 54.3003 7.29889 49.0003C19.2989 38.1003 34.5989 34.4003 50.2989 32.2003C67.3989 30.1003 85.2989 32.0003 100.599 37.2003C103.999 38.5003 107.399 39.9003 110.599 41.6003Z" fill="url(#paint0_linear_5027_8268)"/>
<defs>
<linearGradient id="paint0_linear_5027_8268" x1="63.9989" y1="96.6136" x2="63.9989" y2="31.387" gradientUnits="userSpaceOnUse">
<stop stop-color="#006BCB"/>
<stop offset="0.5" stop-color="#66B6FF"/>
<stop offset="1" stop-color="#0086FF"/>
</linearGradient>
</defs>
</svg>
