<svg width="128" height="128" viewBox="0 0 128 128" fill="none" xmlns="http://www.w3.org/2000/svg">
<path d="M71.0176 114.353H56.9824V14H71.0176V114.353ZM54.8076 14C54.777 17.2508 56.5174 49.9213 51.001 70.4951C45.4845 91.0689 24.894 114.146 0 114.146V99.5498C7.31982 99.5498 25.9491 88.9152 36.583 72.8145C47.2169 56.7134 46.9775 22.4434 46.9775 14H54.8076ZM81.0225 14C81.0225 22.4434 80.7831 56.7134 91.417 72.8145C102.051 88.9152 120.68 99.5498 128 99.5498V114.146C103.106 114.146 82.5155 91.0689 76.999 70.4951C71.4826 49.9213 73.223 17.2508 73.1924 14H81.0225Z" fill="white"/>
</svg>
