<svg width="128" height="128" viewBox="0 0 128 128" fill="none" xmlns="http://www.w3.org/2000/svg">
<g clip-path="url(#clip0_5027_8280)">
<path d="M126.8 51.5H121.6V51.2H64V76.8H100.2C94.9 91.7 80.7 102.4 64 102.4C42.8 102.4 25.6 85.2 25.6 64C25.6 42.8 42.8 25.6 64 25.6C73.8 25.6 82.7 29.3 89.5 35.3L107.6 17.2C96.1 6.6 80.9 0 64 0C28.7 0 0 28.7 0 64C0 99.3 28.7 128 64 128C99.3 128 128 99.3 128 64C128 59.7 127.6 55.5 126.8 51.5Z" fill="#FFC107"/>
<path d="M7.40039 34.2L28.4004 49.6C34.1004 35.5 47.9004 25.6 64.0004 25.6C73.8004 25.6 82.7004 29.3 89.5004 35.3L107.6 17.2C96.1004 6.6 80.9004 0 64.0004 0C39.4004 0 18.1004 13.9 7.40039 34.2Z" fill="#FF3D00"/>
<path d="M64 128C80.5 128 95.6 121.7 106.9 111.4L87.1 94.6C80.7 99.5 72.7 102.4 64 102.4C47.4 102.4 33.2 91.8 27.9 77L7 93.1C17.6 113.8 39.1 128 64 128Z" fill="#4CAF50"/>
<path d="M126.8 51.5H121.6V51.2H64V76.8H100.2C97.6 84 93 90.0999 87.1 94.5999L106.9 111.4C105.5 112.7 128 96 128 64C128 59.7 127.6 55.5 126.8 51.5Z" fill="#1976D2"/>
</g>
<defs>
<clipPath id="clip0_5027_8280">
<rect width="128" height="128" fill="white"/>
</clipPath>
</defs>
</svg>
