<svg width="128" height="128" viewBox="0 0 128 128" fill="none" xmlns="http://www.w3.org/2000/svg">
<g clip-path="url(#clip0_5027_3288)">
<path d="M9.73242 31.6924C27.6367 1.23617 66.9478 -9.07803 97.4043 8.72852C113.265 17.9725 123.677 33.1523 127.472 49.8887C120.174 25.076 97.3072 6.97758 70.1592 6.97754C37.27 6.97754 10.5109 33.7362 10.5107 66.7227C10.5107 99.7092 37.1726 126.469 70.1592 126.469C74.7325 126.469 78.1381 126.177 83.3926 125.301C67.0454 130.166 48.5576 128.609 32.5996 119.365C2.24028 101.461 -8.07449 62.149 9.73242 31.6924ZM87.6748 22.6445L52.9365 70.7139L93.9023 70.6162V108.176H80.8633V81.6123H38.1465L35.1299 73.0488L71.4248 22.6445H87.6748Z" fill="#C70F28"/>
</g>
<defs>
<clipPath id="clip0_5027_3288">
<rect width="128" height="128" fill="white"/>
</clipPath>
</defs>
</svg>
