<svg width="128" height="128" viewBox="0 0 128 128" fill="none" xmlns="http://www.w3.org/2000/svg">
<path d="M126.887 72.689C127.603 69.9687 128 67.1671 128 64.2997C128 64.2446 127.995 64.1921 127.995 64.1396L39.625 87.9236L36.7944 83.0134L97.2129 67.7211V65.266L127.288 57.5411C126.852 55.472 126.206 53.4528 125.385 51.4835L6.51168 84.2134C16.928 99.2458 38.7506 109.597 64.0024 109.597C92.8804 109.597 117.284 96.0582 125.251 77.4574L88.1541 87.7345L91.7408 81.8818L126.887 72.689Z" fill="url(#paint0_linear_5027_4822)"/>
<path d="M30.1856 70.7404L95.1361 52.2367L94.7554 49.7817L120.325 42.7788C109.504 28.6207 88.3407 19 64 19C35.3006 19 11.0124 32.3729 2.89357 50.7952L38.3044 40.9066C38.3044 40.9066 34.1531 45.8168 32.4516 50.7269C31.8871 52.2367 29.4347 52.8013 28.6758 52.9903C28.0115 53.1584 6.86109 59.0295 0.136544 61.4636C0.0577716 62.401 0 63.3463 0 64.2994C0 65.0189 0.0288815 65.7357 0.076145 66.4473L29.9965 58.465L31.1309 54.8782L87.7735 39.7723L93.818 47.8911L1.34701 73.5683C2.04021 75.9262 3.00123 78.2133 4.1907 80.4215L31.3199 73.0064L30.1856 70.7404Z" fill="url(#paint1_linear_5027_4822)"/>
<defs>
<linearGradient id="paint0_linear_5027_4822" x1="63.9999" y1="109.611" x2="63.9999" y2="18.9853" gradientUnits="userSpaceOnUse">
<stop stop-color="#AD1415"/>
<stop offset="0.333333" stop-color="#FA0405"/>
<stop offset="0.666667" stop-color="#FC6869"/>
<stop offset="1" stop-color="#FA0405"/>
</linearGradient>
<linearGradient id="paint1_linear_5027_4822" x1="63.9999" y1="109.611" x2="63.9999" y2="18.9853" gradientUnits="userSpaceOnUse">
<stop stop-color="#AD1415"/>
<stop offset="0.333333" stop-color="#FA0405"/>
<stop offset="0.666667" stop-color="#FC6869"/>
<stop offset="1" stop-color="#FA0405"/>
</linearGradient>
</defs>
</svg>
