<svg width="128" height="128" viewBox="0 0 128 128" fill="none" xmlns="http://www.w3.org/2000/svg">
<path d="M55.2534 66.8295H63.7104L59.2433 59.6285L51.041 72.645L47.3026 72.6482L57.2876 57.0176C57.7106 56.3819 58.4417 56.0001 59.2376 56.0001C60.023 56.0001 60.7445 56.3714 61.1699 56.9901L71.188 72.6482L67.448 72.645L65.6937 69.7356H57.1234L55.2534 66.8295ZM94.0576 69.7388V56.1627H90.8854V71.0661C90.8854 71.4786 91.0528 71.8725 91.3472 72.1669C91.6578 72.4743 92.0671 72.645 92.5087 72.645H106.962L108.827 69.7388H94.0576ZM41.6198 67.3091C44.6966 67.3091 47.1918 64.8131 47.1918 61.7363C47.1918 58.6587 44.6966 56.1635 41.6198 56.1635H27.7492V72.6458H30.9166V59.068H41.4014C42.8783 59.068 44.0681 60.261 44.0681 61.7363C44.0681 63.2092 42.8783 64.4054 41.4014 64.4054L32.4687 64.4022L41.9279 72.645H46.5334L40.1687 67.3059L41.6198 67.3091ZM8.24194 72.645C3.69148 72.645 0 68.9575 0 64.4046C0 59.8518 3.69148 56.1627 8.24194 56.1627H17.8225C22.3738 56.1627 26.0636 59.8526 26.0636 64.4046C26.0636 68.9583 22.3738 72.6474 17.8225 72.6474L8.24194 72.645ZM17.609 69.7405C20.5563 69.7405 22.944 67.352 22.944 64.4046C22.944 61.4565 20.5563 59.0688 17.609 59.0688L8.45385 59.068C5.5073 59.068 3.11802 61.4573 3.11802 64.4054C3.11802 67.3528 5.5073 69.7413 8.45385 69.7413L17.609 69.7405ZM77.801 72.645C73.2514 72.645 69.5591 68.9575 69.5591 64.4046C69.5591 59.8518 73.2514 56.1627 77.801 56.1627H89.186L87.3201 59.0688L78.0145 59.068C75.0656 59.068 72.6763 61.4573 72.6763 64.4054C72.6763 67.3528 75.0656 69.7413 78.0145 69.7413H89.4424L87.5805 72.6458L77.801 72.645ZM116.574 69.7405C114.135 69.7405 112.072 68.1002 111.442 65.8621H124.99L126.857 62.956L111.438 62.9552C112.069 60.7115 114.129 59.0672 116.575 59.0672L125.874 59.068L127.742 56.1619H116.357C111.809 56.1619 108.116 59.8518 108.116 64.4038C108.116 68.9559 111.808 72.6442 116.357 72.6442H126.137L128 69.7397L116.574 69.7405Z" fill="url(#paint0_linear_5027_8576)"/>
<defs>
<linearGradient id="paint0_linear_5027_8576" x1="64.05" y1="72.6437" x2="64.05" y2="55.9871" gradientUnits="userSpaceOnUse">
<stop stop-color="#E93D26"/>
<stop offset="0.5" stop-color="#DD9085"/>
<stop offset="1" stop-color="#E23A23"/>
</linearGradient>
</defs>
</svg>
