<svg width="128" height="128" viewBox="0 0 128 128" fill="none" xmlns="http://www.w3.org/2000/svg">
<g clip-path="url(#clip0_5027_5343)">
<path d="M128 64.0009C128 55.0048 123.303 47.0072 116.184 42.4223C118.001 34.1187 115.667 25.1032 109.282 18.718C102.897 12.3332 93.8817 9.99993 85.5787 11.8163C80.9942 4.69733 72.9966 0 64 0C55.0034 0 47.0058 4.69733 42.4213 11.8163C34.1178 9.99993 25.1023 12.3332 18.7175 18.718C12.3323 25.1032 9.99945 34.1187 11.8158 42.4223C4.69732 47.0072 0 55.0048 0 64.0009C0 72.9971 4.69732 80.9951 11.8158 85.5796C9.99945 93.8832 12.3328 102.899 18.7175 109.283C23.7038 114.269 30.293 116.789 36.8959 116.789C38.7495 116.789 40.604 116.588 42.4241 116.19C47.0096 123.306 55.0057 128.001 64 128.001C72.9962 128.001 80.9937 123.304 85.5787 116.186C93.8822 118.002 102.898 115.669 109.282 109.284C115.668 102.899 118.001 93.8832 116.184 85.5801C123.303 80.9947 128 72.9971 128 64.0009ZM102.907 25.0938C106.651 28.8388 108.249 33.9771 107.653 38.9081C106.496 38.664 105.31 38.4955 104.1 38.4138C101.925 38.2306 99.9199 37.7915 98.1357 37.1074C96.4823 36.4752 95.005 35.5153 93.7448 34.2552C92.4847 32.995 91.5248 31.5177 90.8912 29.8614C90.2085 28.0805 89.7694 26.0754 89.5857 23.9002C89.5041 22.6901 89.3355 21.5046 89.0919 20.3473C94.0234 19.7515 99.1617 21.3488 102.907 25.0938ZM98.9549 72.7804C100.081 75.3082 101.65 77.7681 103.619 80.0924L103.669 80.1505C103.803 80.3039 103.931 80.4607 104.059 80.6179C103.864 80.6377 103.669 80.6581 103.472 80.6708L103.396 80.6765C100.364 80.9276 97.5186 81.557 94.9417 82.5452C92.1079 83.6292 89.5782 85.2713 87.4233 87.4257C85.269 89.5801 83.6273 92.1093 82.5438 94.9408C81.5546 97.521 80.9257 100.366 80.6741 103.398L80.6684 103.474C80.6557 103.671 80.6354 103.865 80.6155 104.06C80.4588 103.933 80.3016 103.805 80.1486 103.671L80.09 103.621C77.7657 101.652 75.3054 100.083 72.7813 98.9582C70.0056 97.7183 67.0505 97.0899 63.9986 97.0899C60.9467 97.0899 57.9915 97.7188 55.2191 98.9568C52.6918 100.083 50.2314 101.652 47.9071 103.621L47.8486 103.671C47.6956 103.805 47.5384 103.933 47.3816 104.06C47.3618 103.865 47.3415 103.671 47.3287 103.474L47.3231 103.398C47.0714 100.366 46.4425 97.521 45.4543 94.9436C44.3698 92.1093 42.7277 89.5796 40.5738 87.4257H40.5734C38.419 85.2713 35.8897 83.6292 33.0597 82.5471C30.4795 81.5575 27.6339 80.9281 24.6023 80.6769L24.5263 80.6713C24.3289 80.6585 24.1344 80.6382 23.9394 80.6184C24.0673 80.4612 24.1948 80.3044 24.3294 80.151L24.3794 80.0929C26.3478 77.7686 27.9172 75.3082 29.0418 72.7842C30.2816 70.008 30.9101 67.0533 30.9101 64.0014C30.9101 60.95 30.2816 57.9949 29.0432 55.222C27.9172 52.6941 26.3478 50.2343 24.3794 47.9099L24.3294 47.8519C24.1948 47.6984 24.0673 47.5417 23.9394 47.3844C24.1344 47.3646 24.3294 47.3443 24.5263 47.3316L24.6018 47.3259C27.6339 47.0747 30.4795 46.4454 33.0559 45.4572C35.8897 44.3731 38.4194 42.731 40.5743 40.5767C42.7287 38.4223 44.3703 35.893 45.4539 33.0616C46.443 30.4814 47.0719 27.6362 47.3235 24.6046L47.3292 24.5286C47.342 24.3313 47.3623 24.1363 47.3821 23.9413C47.5393 24.0692 47.6956 24.1972 47.849 24.3317L47.9076 24.3818C50.2319 26.3506 52.6922 27.9195 55.2163 29.0442C57.992 30.284 60.9467 30.9124 63.9991 30.9124C67.051 30.9124 70.0061 30.2835 72.7785 29.0456C75.3059 27.9195 77.7662 26.3501 80.0905 24.3818L80.1491 24.3317C80.302 24.1972 80.4593 24.0697 80.616 23.9422C80.6358 24.1372 80.6562 24.3317 80.6689 24.5286L80.6746 24.6046C80.9262 27.6358 81.5551 30.4814 82.5433 33.0588C83.6278 35.893 85.2694 38.4223 87.4238 40.5767C89.5787 42.731 92.1074 44.3731 94.9384 45.4558C97.5191 46.4454 100.365 47.0747 103.396 47.3259L103.472 47.3316C103.669 47.3443 103.864 47.3646 104.059 47.3844C103.931 47.5412 103.803 47.6984 103.669 47.8519L103.619 47.9099C101.65 50.2343 100.081 52.6946 98.9563 55.2191C97.7165 57.9953 97.088 60.95 97.088 64.0019C97.088 67.0524 97.7169 70.007 98.9549 72.7804ZM63.9995 8.93903C69.295 8.93903 74.0589 11.4362 77.1321 15.3365C76.1293 15.9881 75.1604 16.7156 74.2365 17.523C72.5722 18.929 70.847 20.0343 69.1048 20.8105C67.4938 21.5301 65.7762 21.895 63.9995 21.895C62.2229 21.895 60.5047 21.5301 58.89 20.8086C57.1516 20.0343 55.4264 18.9286 53.7621 17.523C52.8381 16.7156 51.8693 15.9886 50.8665 15.3365C53.9401 11.4366 58.704 8.93903 63.9995 8.93903ZM25.0924 25.0938C28.3293 21.8568 32.606 20.2218 36.8911 20.2218C37.5644 20.2218 38.2372 20.2652 38.9062 20.3459C38.6621 21.5036 38.4936 22.6892 38.4124 23.8997C38.2287 26.0744 37.7901 28.0801 37.106 29.8643C36.4733 31.5177 35.5139 32.995 34.2538 34.2547C32.9936 35.5148 31.5163 36.4747 29.8591 37.1083C28.0786 37.791 26.0739 38.2301 23.8993 38.4133C22.6887 38.495 21.5031 38.6635 20.3459 38.9076C19.7501 33.9771 21.3478 28.8388 25.0924 25.0938ZM8.93808 64.0009C8.93808 58.7059 11.4352 53.9415 15.3356 50.8684C15.9871 51.8712 16.7142 52.8396 17.5216 53.7635C18.9276 55.4283 20.0329 57.1535 20.8091 58.8952C21.5286 60.5066 21.8936 62.2248 21.8936 64.0009C21.8936 65.7776 21.5286 67.4953 20.8072 69.1104C20.0324 70.8489 18.9271 72.5741 17.5211 74.2383C16.7138 75.1623 15.9867 76.1307 15.3351 77.1335C11.4352 74.0599 8.93808 69.296 8.93808 64.0009ZM25.0924 102.908C21.3478 99.1626 19.7501 94.0243 20.3459 89.0938C21.5031 89.3379 22.6882 89.5064 23.8983 89.5876C26.073 89.7708 28.0786 90.2099 29.8629 90.894C31.5158 91.5262 32.9936 92.4861 34.2538 93.7462C35.5139 95.0064 36.4738 96.4837 37.1074 98.1404C37.7901 99.9209 38.2287 101.927 38.4124 104.101C38.494 105.311 38.6626 106.497 38.9062 107.654C33.9757 108.25 28.8369 106.653 25.0924 102.908ZM63.9995 119.062C58.704 119.062 53.9406 116.565 50.8669 112.665C51.8693 112.014 52.8377 111.286 53.7616 110.479C55.4264 109.073 57.1516 107.967 58.8943 107.191C60.5057 106.471 62.2229 106.106 63.9995 106.106C65.7762 106.106 67.4938 106.471 69.109 107.193C70.8474 107.968 72.5726 109.073 74.2374 110.479C75.1609 111.286 76.1297 112.013 77.1321 112.665C74.0589 116.565 69.2946 119.062 63.9995 119.062ZM102.907 102.908C99.1617 106.653 94.0229 108.25 89.0924 107.655C89.3364 106.497 89.505 105.312 89.5862 104.102C89.7699 101.927 90.2085 99.9214 90.8926 98.1371C91.5253 96.4837 92.4847 95.0064 93.7448 93.7467C95.0054 92.4861 96.4827 91.5267 98.1395 90.8931C99.9199 90.2104 101.926 89.7713 104.1 89.5881C105.31 89.5064 106.496 89.3379 107.653 89.0942C108.248 94.0243 106.651 99.1626 102.907 102.908ZM112.663 77.1335C112.012 76.1307 111.285 75.1623 110.477 74.2383C109.071 72.5736 107.966 70.8484 107.19 69.1067C106.47 67.4953 106.105 65.7771 106.105 64.0009C106.105 62.2248 106.47 60.5066 107.192 58.8914C107.967 57.153 109.072 55.4278 110.478 53.7631C111.285 52.8391 112.012 51.8707 112.664 50.8679C116.564 53.9415 119.061 58.7054 119.061 64.0005C119.06 69.296 116.563 74.0599 112.663 77.1335Z" fill="url(#paint0_linear_5027_5343)"/>
<path d="M104.059 47.3836C107.294 47.7113 110.247 48.9643 112.663 50.868C114.368 48.2438 115.537 45.3779 116.184 42.4223C113.618 40.7703 110.741 39.5593 107.653 38.9082C107.288 41.9356 106.094 44.8836 104.059 47.3836Z" fill="#4E008F"/>
<path d="M104.059 47.3836C107.294 47.7113 110.247 48.9643 112.663 50.868C114.368 48.2438 115.537 45.3779 116.184 42.4223C113.618 40.7703 110.741 39.5593 107.653 38.9082C107.288 41.9356 106.094 44.8836 104.059 47.3836Z" fill="#4E008F"/>
<path d="M47.3821 104.061C44.8817 106.096 41.9341 107.29 38.9062 107.655C39.5578 110.746 40.7698 113.624 42.4232 116.19C45.3788 115.543 48.2433 114.37 50.867 112.666C48.9628 110.25 47.7098 107.296 47.3821 104.061Z" fill="#9A0072"/>
<path d="M47.3821 104.061C44.8817 106.096 41.9341 107.29 38.9062 107.655C39.5578 110.746 40.7698 113.624 42.4232 116.19C45.3788 115.543 48.2433 114.37 50.867 112.666C48.9628 110.25 47.7098 107.296 47.3821 104.061Z" fill="#9A0072"/>
<path d="M80.6158 104.061C80.2881 107.296 79.035 110.249 77.1318 112.665C79.756 114.371 82.6219 115.539 85.578 116.186C87.23 113.621 88.4405 110.744 89.0921 107.655C86.0643 107.289 83.1157 106.095 80.6158 104.061Z" fill="#6B1E7D"/>
<path d="M80.6158 104.061C80.2881 107.296 79.035 110.249 77.1318 112.665C79.756 114.371 82.6219 115.539 85.578 116.186C87.23 113.621 88.4405 110.744 89.0921 107.655C86.0643 107.289 83.1157 106.095 80.6158 104.061Z" fill="#6B1E7D"/>
<path d="M104.059 80.6172C106.094 83.1172 107.287 86.0652 107.653 89.0931C110.741 88.442 113.618 87.2309 116.184 85.5789C115.537 82.6229 114.368 79.757 112.663 77.1328C110.247 79.037 107.294 80.29 104.059 80.6172Z" fill="#4E008F"/>
<path d="M104.059 80.6172C106.094 83.1172 107.287 86.0652 107.653 89.0931C110.741 88.442 113.618 87.2309 116.184 85.5789C115.537 82.6229 114.368 79.757 112.663 77.1328C110.247 79.037 107.294 80.29 104.059 80.6172Z" fill="#4E008F"/>
<path d="M80.6162 23.9414C83.1167 21.9065 86.0643 20.7129 89.0921 20.347C88.441 17.2583 87.23 14.3811 85.578 11.8164C82.6219 12.4632 79.756 13.6318 77.1318 15.3367C79.036 17.7521 80.289 20.7059 80.6162 23.9414Z" fill="#6B1E7D"/>
<path d="M80.6162 23.9414C83.1167 21.9065 86.0643 20.7129 89.0921 20.347C88.441 17.2583 87.23 14.3811 85.578 11.8164C82.6219 12.4632 79.756 13.6318 77.1318 15.3367C79.036 17.7521 80.289 20.7059 80.6162 23.9414Z" fill="#6B1E7D"/>
<path d="M47.3826 23.9405C47.7102 20.7054 48.9633 17.7521 50.8665 15.3367C48.2423 13.6313 45.3765 12.4628 42.4204 11.8164C40.7684 14.3811 39.5578 17.2578 38.9062 20.3461C41.9346 20.7115 44.8831 21.9056 47.3826 23.9405Z" fill="#9A0072"/>
<path d="M47.3826 23.9405C47.7102 20.7054 48.9633 17.7521 50.8665 15.3367C48.2423 13.6313 45.3765 12.4628 42.4204 11.8164C40.7684 14.3811 39.5578 17.2578 38.9062 20.3461C41.9346 20.7115 44.8831 21.9056 47.3826 23.9405Z" fill="#9A0072"/>
<path d="M23.9395 47.3841C21.9046 44.8841 20.711 41.936 20.3456 38.9082C17.2568 39.5593 14.3796 40.7703 11.8145 42.4223C12.4613 45.3784 13.6298 48.2443 15.3352 50.8685C17.7507 48.9648 20.7044 47.7117 23.9395 47.3841Z" fill="#B70071"/>
<path d="M23.9395 47.3841C21.9046 44.8841 20.711 41.936 20.3456 38.9082C17.2568 39.5593 14.3796 40.7703 11.8145 42.4223C12.4613 45.3784 13.6298 48.2443 15.3352 50.8685C17.7507 48.9648 20.7044 47.7117 23.9395 47.3841Z" fill="#B70071"/>
<path d="M23.9395 80.6172C20.7044 80.2895 17.7507 79.0365 15.3352 77.1328C13.6298 79.757 12.4613 82.6229 11.8145 85.5789C14.3796 87.2309 17.2568 88.442 20.3456 89.0931C20.711 86.0657 21.9046 83.1177 23.9395 80.6172Z" fill="#B70071"/>
<path d="M23.9395 80.6172C20.7044 80.2895 17.7507 79.0365 15.3352 77.1328C13.6298 79.757 12.4613 82.6229 11.8145 85.5789C14.3796 87.2309 17.2568 88.442 20.3456 89.0931C20.711 86.0657 21.9046 83.1177 23.9395 80.6172Z" fill="#B70071"/>
</g>
<defs>
<linearGradient id="paint0_linear_5027_5343" x1="-0.00127478" y1="64.0007" x2="128" y2="64.0007" gradientUnits="userSpaceOnUse">
<stop stop-color="#FF007F"/>
<stop offset="1" stop-color="#7E00B9"/>
</linearGradient>
<clipPath id="clip0_5027_5343">
<rect width="128" height="128" fill="white"/>
</clipPath>
</defs>
</svg>
