<svg width="128" height="128" viewBox="0 0 128 128" fill="none" xmlns="http://www.w3.org/2000/svg">
<path d="M24.823 55H20.1953V72.2945H24.823V55Z" fill="url(#paint0_linear_5027_9766)"/>
<path d="M52.1694 55.0146H57.8459L64.5428 72.3933H59.4647L58.1689 68.6857H51.6461L50.2747 72.3933H45.5693L52.1694 55.0146ZM55.0068 58.5997H54.9583L52.7158 65.3979H57.0729L55.0068 58.5997Z" fill="url(#paint1_linear_5027_9766)"/>
<path d="M66.7969 55.0127H74.7914C78.0264 55.0127 80.443 56.4307 80.443 59.4183C80.443 61.6127 79.3231 62.8339 77.3813 63.479V63.5275C79.6932 64.0036 80.8913 65.2471 80.8913 67.3661C80.8913 71.5237 77.2307 72.3931 74.1192 72.3931H66.7969V55.0127ZM71.4268 69.111H72.7999C74.492 69.111 76.2592 68.8592 76.2592 67.0928C76.2592 65.1978 74.4418 65.0262 72.85 65.0262H71.4263V69.111H71.4268ZM71.4268 61.8873H72.723C74.2428 61.8873 75.8096 61.5137 75.8096 60.0433C75.8096 58.4489 74.3183 58.3031 72.775 58.3031H71.4268V61.8873Z" fill="url(#paint2_linear_5027_9766)"/>
<path d="M87.1603 65.8472L80.7383 55.0127H86.0652L89.4778 61.9855L92.8389 55.0127H98.1698L91.7919 65.8472V72.3936H87.1603V65.8472Z" fill="url(#paint3_linear_5027_9766)"/>
<path d="M104.356 58.4489H100.076V55.0127H113.272V58.4489H108.992V72.3936H104.356V58.4489Z" fill="url(#paint4_linear_5027_9766)"/>
<path d="M115.477 55.0127H127.728V58.3031H120.106V61.8873H127.302V65.1733H120.106V69.111H128V72.3936H115.477V55.0127Z" fill="url(#paint5_linear_5027_9766)"/>
<path d="M9.67879 58.8175C6.59786 59.0737 4.91577 61.0962 4.91577 63.7136C4.91577 66.2586 7.27393 68.3976 9.55134 68.3976L10.0515 68.3924H10.8934C10.8934 68.3924 11.4517 68.3924 11.4556 67.8482V62.3859H16.2112C16.2112 65.469 16.1998 72.3929 16.1998 72.3929C16.1998 72.3929 11.5062 72.389 8.781 72.389C3.65617 72.389 0 68.1554 0 63.7136C0 58.9092 3.97696 54.8964 8.92896 55.074L16.0427 55.0963L16.0392 58.8171H9.67879" fill="url(#paint6_linear_5027_9766)"/>
<path d="M37.1979 58.8181C34.1156 59.0738 32.4366 61.0964 32.4366 63.7142C32.4366 66.2592 34.7913 68.3982 37.0704 68.3982L37.5688 68.393H38.4129C38.4129 68.393 38.9672 68.393 38.9712 67.8487V62.3865H43.7189C43.7189 65.4696 43.7111 72.3935 43.7111 72.3935C43.7111 72.3935 39.0214 72.3896 36.2979 72.3896C31.1757 72.3896 27.5234 68.156 27.5234 63.7142C27.5234 58.9097 31.4965 54.897 36.4507 55.075L43.5526 55.0973L43.5509 58.8181H37.1979Z" fill="url(#paint7_linear_5027_9766)"/>
<defs>
<linearGradient id="paint0_linear_5027_9766" x1="22.5092" y1="72.2945" x2="22.5092" y2="55" gradientUnits="userSpaceOnUse">
<stop stop-color="#0B3272"/>
<stop offset="0.48" stop-color="#2560BF"/>
<stop offset="0.5" stop-color="#7CA0D9"/>
<stop offset="1" stop-color="#2560BF"/>
</linearGradient>
<linearGradient id="paint1_linear_5027_9766" x1="55.0561" y1="72.3933" x2="55.0561" y2="55.0146" gradientUnits="userSpaceOnUse">
<stop stop-color="#0B3272"/>
<stop offset="0.48" stop-color="#2560BF"/>
<stop offset="0.5" stop-color="#7CA0D9"/>
<stop offset="1" stop-color="#2560BF"/>
</linearGradient>
<linearGradient id="paint2_linear_5027_9766" x1="73.8441" y1="72.3931" x2="73.8441" y2="55.0127" gradientUnits="userSpaceOnUse">
<stop stop-color="#0B3272"/>
<stop offset="0.48" stop-color="#2560BF"/>
<stop offset="0.5" stop-color="#7CA0D9"/>
<stop offset="1" stop-color="#2560BF"/>
</linearGradient>
<linearGradient id="paint3_linear_5027_9766" x1="89.454" y1="72.3936" x2="89.454" y2="55.0127" gradientUnits="userSpaceOnUse">
<stop stop-color="#0B3272"/>
<stop offset="0.48" stop-color="#2560BF"/>
<stop offset="0.5" stop-color="#7CA0D9"/>
<stop offset="1" stop-color="#2560BF"/>
</linearGradient>
<linearGradient id="paint4_linear_5027_9766" x1="106.674" y1="72.3936" x2="106.674" y2="55.0127" gradientUnits="userSpaceOnUse">
<stop stop-color="#0B3272"/>
<stop offset="0.48" stop-color="#2560BF"/>
<stop offset="0.5" stop-color="#7CA0D9"/>
<stop offset="1" stop-color="#2560BF"/>
</linearGradient>
<linearGradient id="paint5_linear_5027_9766" x1="121.738" y1="72.3936" x2="121.738" y2="55.0127" gradientUnits="userSpaceOnUse">
<stop stop-color="#0B3272"/>
<stop offset="0.48" stop-color="#2560BF"/>
<stop offset="0.5" stop-color="#7CA0D9"/>
<stop offset="1" stop-color="#2560BF"/>
</linearGradient>
<linearGradient id="paint6_linear_5027_9766" x1="8.10559" y1="72.3929" x2="8.10559" y2="55.0684" gradientUnits="userSpaceOnUse">
<stop stop-color="#0B3272"/>
<stop offset="0.48" stop-color="#2560BF"/>
<stop offset="0.5" stop-color="#7CA0D9"/>
<stop offset="1" stop-color="#2560BF"/>
</linearGradient>
<linearGradient id="paint7_linear_5027_9766" x1="35.6212" y1="72.3935" x2="35.6212" y2="55.0693" gradientUnits="userSpaceOnUse">
<stop stop-color="#0B3272"/>
<stop offset="0.48" stop-color="#2560BF"/>
<stop offset="0.5" stop-color="#7CA0D9"/>
<stop offset="1" stop-color="#2560BF"/>
</linearGradient>
</defs>
</svg>
