<svg width="128" height="128" viewBox="0 0 128 128" fill="none" xmlns="http://www.w3.org/2000/svg">
<path d="M123.656 48.2697L114.194 42.658C109.764 40.0217 107.025 35.1613 107.025 29.9031V18.68C107.025 16.3824 106.008 14.2172 104.273 12.774C99.1114 8.48815 93.3049 5.0121 87.0254 2.52329C84.932 1.69852 82.5953 1.86053 80.6598 3.00932L71.1832 8.63557C66.7531 11.272 61.2906 11.272 56.8464 8.63557L47.3694 3.00932C45.4339 1.86053 43.0827 1.68377 41.0038 2.52329C34.7098 5.01239 28.9178 8.48815 23.7707 12.7595C22.0359 14.2029 21.018 16.368 21.018 18.6655V29.8886C21.018 35.1464 18.294 40.0071 13.8496 42.6435L4.38711 48.2548C2.45159 49.4037 1.13263 51.3923 0.788545 53.6602C0.258082 57.0036 0 60.4208 0 63.8964C0 67.3725 0.258065 70.7892 0.774205 74.1177C1.11829 76.3861 2.43729 78.3891 4.37277 79.538L13.8352 85.1493C18.2653 87.7857 21.0037 92.646 21.0037 97.9042V109.127C21.0037 111.425 22.0216 113.59 23.7563 115.033C28.9035 119.304 34.7096 122.78 40.9894 125.27C43.0825 126.094 45.4195 125.932 47.355 124.783L56.8316 119.157C61.2617 116.521 66.7238 116.521 71.1685 119.157L80.645 124.783C82.5806 125.932 84.9318 126.094 87.0107 125.27C93.2905 122.78 99.0966 119.304 104.244 115.033C105.979 113.59 106.997 111.425 106.997 109.127V97.9042C106.997 92.646 109.735 87.7857 114.165 85.1493L123.627 79.538C125.563 78.3891 126.882 76.401 127.226 74.1177C127.728 70.7892 128 67.3725 128 63.8964C128 60.4208 127.742 57.0036 127.226 53.6751C126.896 51.4068 125.591 49.4186 123.656 48.2697ZM64.016 103.413C42.783 103.413 25.5644 85.7242 25.5644 63.9118C25.5644 42.0989 42.783 24.4103 64.016 24.4103C85.2486 24.4103 102.467 42.0989 102.467 63.9118C102.467 85.7242 85.2486 103.413 64.016 103.413Z" fill="url(#paint0_linear_5027_4629)"/>
<defs>
<linearGradient id="paint0_linear_5027_4629" x1="64.05" y1="125.812" x2="64.05" y2="1.97486" gradientUnits="userSpaceOnUse">
<stop stop-color="#808080"/>
<stop offset="0.333333" stop-color="#B3B3B3"/>
<stop offset="0.666667" stop-color="#F2F2F2"/>
<stop offset="1" stop-color="#B3B3B3"/>
</linearGradient>
</defs>
</svg>
