<svg width="128" height="128" viewBox="0 0 128 128" fill="none" xmlns="http://www.w3.org/2000/svg">
<path d="M126.993 67.9253C126.491 69.2673 125.651 70.2743 124.646 71.2813C123.639 72.2883 122.632 72.9585 121.29 73.6303C119.948 74.1338 118.606 74.4689 117.097 74.4689H46.6373L16.2732 58.6992V99.6314H0L0.16839 38.7365C0.16839 37.2261 0.503486 35.884 1.00697 34.542C1.67885 33.1999 2.34904 32.1929 3.35601 31.1876C4.36299 30.1807 5.53666 29.5088 6.87873 28.8386C8.2208 28.3351 9.56287 28 11.0733 28H117.263C118.774 28 120.116 28.3351 121.458 28.8386C122.8 29.3421 123.807 30.1807 124.812 31.1876C125.819 32.1929 126.491 33.1999 127.161 34.542C127.833 35.884 128 37.2261 128 38.7365V63.8991C128 65.2411 127.665 66.5832 126.993 67.9253ZM112.064 43.9364H16.4416V58.5308H112.064V43.9364Z" fill="url(#paint0_linear_5027_3674)"/>
<defs>
<linearGradient id="paint0_linear_5027_3674" x1="64" y1="28" x2="64" y2="99.6314" gradientUnits="userSpaceOnUse">
<stop stop-color="white"/>
<stop offset="1" stop-color="#E7E7E7"/>
</linearGradient>
</defs>
</svg>
