<svg width="128" height="128" viewBox="0 0 128 128" fill="none" xmlns="http://www.w3.org/2000/svg">
<g clip-path="url(#clip0_5027_4540)">
<path d="M78.8791 11.3658L45.1299 45.115L78.8384 78.8236L112.588 45.0743L78.8791 11.3658Z" fill="white"/>
<path d="M9.43352 57.8912L0 67.3247L54.6087 121.933L64.0422 112.5L9.43352 57.8912Z" fill="#E4032E"/>
<path d="M128 60.474V70.1061H118.368V79.7381H108.736V89.3702H99.1035V99.0023H89.4715V108.663H79.8394V118.295H70.2073V127.927H60.5752L54.5947 121.947L64.0543 112.516L122.019 54.5222L128 60.474Z" fill="#009640"/>
<path d="M78.8913 24.8497L85.6194 18.1216L92.3475 24.8497L85.6194 31.5778L92.3762 38.3346L99.1043 31.6065L105.861 38.3634L99.133 45.0914L105.861 51.8195L112.589 45.0914L119.346 51.8195L64.055 107.11L12.1281 55.2123C12.0131 53.7459 12.2719 52.2796 12.9044 50.9857C13.537 49.6631 14.5146 48.5417 15.7509 47.7654C16.9873 46.9604 18.3961 46.5003 19.8625 46.4428C21.9039 46.3566 23.8016 45.5227 25.2392 44.0851C26.6768 42.6475 27.5107 40.7211 27.5969 38.7084C27.6832 36.667 28.517 34.7693 29.9546 33.3317C31.3922 31.8941 33.3187 31.0603 35.3313 30.974C37.3728 30.8877 39.2704 30.0539 40.708 28.6163C42.1457 27.1787 42.9795 25.2523 43.0657 23.2396C43.152 21.1982 43.9858 19.3005 45.4234 17.8629C46.8611 16.4252 48.7875 15.5914 50.8002 15.5052C52.8416 15.4189 54.7392 14.5851 56.1769 13.1475C57.6145 11.7098 58.4483 9.78343 58.5346 7.77076C58.5921 6.30439 59.0521 4.89551 59.8572 3.65916C60.6622 2.4228 61.7836 1.44522 63.0774 0.812667C64.4001 0.180113 65.8664 -0.107412 67.3041 0.0363502L78.7475 11.4798L72.0195 18.2079L78.8913 24.8497L72.1345 31.6065L65.4064 24.8497L58.6496 31.6065L65.3776 38.3346L58.6208 45.0914L51.8927 38.3634L45.1359 45.1202L51.864 51.8483L58.6208 45.0914L65.3489 51.8195L58.5921 58.5763L65.3489 65.3332L72.1057 58.5763L78.8625 65.3332L72.1057 72.09L78.8338 78.8181L85.5906 72.0612L78.8625 65.3332L85.6194 58.5763L92.3475 65.3044L99.1043 58.5476L92.3762 51.8195L85.6194 58.5763L78.8625 51.8195L72.1057 58.5763L65.3489 51.8195L72.1057 45.0627L78.8625 51.8195L85.6194 45.0627L78.8625 38.3059L72.1057 45.0627L65.3776 38.3346L72.1345 31.5778L78.8625 38.3059L85.6194 45.0627L92.3762 51.8195L99.133 45.0627L92.3762 38.3059L85.6194 45.0627L78.8625 38.3059L85.6194 31.549L78.8913 24.8497Z" fill="#005CA9"/>
<path d="M119.345 51.819L64.0545 107.11L12.1275 55.2118L9.4248 57.8857L64.0545 112.515L122.019 54.5217L119.345 51.819Z" fill="white"/>
</g>
<defs>
<clipPath id="clip0_5027_4540">
<rect width="128" height="128" fill="white"/>
</clipPath>
</defs>
</svg>
