<svg width="128" height="128" viewBox="0 0 128 128" fill="none" xmlns="http://www.w3.org/2000/svg">
<path d="M81.8054 64.3609C87.1143 68.7746 92.1164 72.894 97.081 77.0572C101.507 80.7697 105.896 84.5197 110.291 88.2635C114.617 91.951 118.93 95.6572 123.25 99.3509C126.662 102.262 128.897 105.887 127.651 110.388C126.374 115.002 123.569 118.301 118.348 119.522C113.915 120.555 110.979 118.326 108.137 116.048C100.994 110.319 94.1198 104.253 87.1143 98.3492C79.4828 91.9196 71.8262 85.5277 64.1508 79.0919C53.101 88.4263 42.2829 97.6042 31.4146 106.726C26.9259 110.495 22.4434 114.295 17.7292 117.763C13.76 120.687 6.37265 120.555 2.64766 115.165C-0.670409 110.363 -1.16499 105.029 3.99366 100.309C10.2917 94.5491 17.0468 89.284 23.5702 83.7685C30.6509 77.7834 37.6626 71.7045 44.7683 65.7508C51.8614 59.8033 59.0673 53.9873 66.1667 48.0461C71.9326 43.2192 77.5858 38.2547 83.3455 33.4153C90.0317 27.7871 96.7805 22.2278 103.498 16.6371C105.564 14.9218 107.63 13.2001 109.677 11.466C113.984 7.81611 121.666 8.83031 125.203 13.0311C129.01 17.5574 128.953 24.6255 124.502 28.5697C118.874 33.553 112.939 38.1858 107.173 43.0126C101.482 47.7769 95.8414 52.5975 90.1694 57.3867C87.5025 59.6343 84.8167 61.863 81.7991 64.3797L81.8054 64.3609Z" fill="url(#paint0_linear_5027_7926)"/>
<path d="M51.5296 44.1833C51.8301 49.3983 49.0254 52.779 44.7933 54.6509C40.2607 56.6543 36.517 55.8091 32.5353 52.491C25.4421 46.5874 18.1925 40.859 11.2558 34.7801C7.65605 31.6248 4.11261 28.2003 1.38304 24.3125C-1.49053 20.2244 0.56291 15.9673 3.45526 12.6367C6.26622 9.40627 10.3042 8.16043 14.3798 9.58157C17.172 10.5519 19.7701 12.4176 22.0928 14.327C30.9201 21.5767 39.6096 29.0016 48.343 36.3702C50.8034 38.4487 51.7237 41.1533 51.5296 44.1896V44.1833Z" fill="url(#paint1_linear_5027_7926)"/>
<defs>
<linearGradient id="paint0_linear_5027_7926" x1="263.617" y1="8.99145" x2="263.617" y2="119.782" gradientUnits="userSpaceOnUse">
<stop stop-color="#504E4F"/>
<stop offset="0.5" stop-color="#D1C5CB"/>
<stop offset="1" stop-color="#363435"/>
</linearGradient>
<linearGradient id="paint1_linear_5027_7926" x1="263.617" y1="8.99145" x2="263.617" y2="119.782" gradientUnits="userSpaceOnUse">
<stop stop-color="#504E4F"/>
<stop offset="0.5" stop-color="#D1C5CB"/>
<stop offset="1" stop-color="#363435"/>
</linearGradient>
</defs>
</svg>
