<svg width="128" height="128" viewBox="0 0 128 128" fill="none" xmlns="http://www.w3.org/2000/svg">
<path d="M15.2409 54V71.8605H0V72.813H16.1935V54.9526H42.9842V72.813H50.6047V54.9526H77.3953V72.813H85.0158V54.9526H111.807V72.813H128V71.8605H112.759V54H84.0633V71.8605H78.3479V54H49.6521V71.8605H43.9367V54H15.2409Z" fill="white"/>
<path d="M21.7178 68.554H25.5144C25.5081 69.1883 25.6368 69.5966 25.9006 69.7787C26.089 69.898 26.3308 69.9703 26.626 69.9954C26.9275 70.0142 27.8696 70.0299 29.4523 70.0425C31.1104 70.0362 32.1059 70.0268 32.4387 70.0142C32.7716 69.9954 33.0354 69.9451 33.2301 69.8635C33.519 69.7442 33.6634 69.4207 33.6634 68.8932C33.6634 68.51 33.5598 68.2557 33.3525 68.1301C33.1516 67.9982 32.737 67.9259 32.109 67.9134C31.6254 67.9134 30.6016 67.8757 29.0378 67.8003C27.4362 67.725 26.3936 67.681 25.91 67.6684C24.9679 67.637 24.2425 67.5491 23.7338 67.4046C23.2313 67.2539 22.8388 67.0121 22.5562 66.6792C22.0726 66.1265 21.8308 65.2033 21.8308 63.9095C21.8308 62.4587 22.1071 61.4349 22.6598 60.8383C23.0806 60.3735 23.7275 60.0783 24.6005 59.9527C25.4735 59.8208 27.2478 59.7549 29.9234 59.7549C31.8139 59.7549 33.1423 59.8083 33.9086 59.915C35.0894 60.0783 35.8995 60.4081 36.3392 60.9042C36.7788 61.3941 36.9986 62.2232 36.9986 63.3914C36.9986 63.4981 36.9955 63.6991 36.9892 63.9943H33.1926C33.1801 63.6363 33.1487 63.3914 33.0984 63.2595C33.0545 63.1276 32.9634 63.0208 32.8252 62.9392C32.6556 62.8387 32.3573 62.7759 31.9302 62.7507C31.5031 62.7193 30.5987 62.7036 29.217 62.7036C27.5526 62.7036 26.5383 62.757 26.174 62.8638C25.8098 62.9643 25.6276 63.25 25.6276 63.7211C25.6276 64.1733 25.8098 64.4497 26.174 64.5501C26.4755 64.6318 27.8604 64.7103 30.3288 64.7857C32.4077 64.8485 33.7957 64.9238 34.4927 65.0118C35.1962 65.0934 35.7551 65.2536 36.1696 65.4922C36.6407 65.7749 36.9736 66.1643 37.1683 66.6604C37.363 67.1503 37.4603 67.8569 37.4603 68.7801C37.4603 69.9923 37.297 70.8935 36.9704 71.4839C36.7255 71.9173 36.3832 72.2407 35.9435 72.4543C35.5102 72.6678 34.8978 72.8122 34.1065 72.8876C33.2586 72.963 31.679 73.0007 29.3678 73.0007C27.4334 73.0007 26.0045 72.9504 25.0813 72.8499C24.1581 72.7494 23.4641 72.5704 22.9993 72.3129C22.5157 72.0366 22.1797 71.6723 21.9913 71.2201C21.8091 70.7679 21.7181 70.0802 21.7181 69.1569L21.7178 68.554Z" fill="#10664E"/>
<path d="M56.8418 59.9531H71.0864V62.9772H60.7044V64.8332H70.5586V67.6594H60.7044V69.7226H71.1616V72.8127H56.8418V59.9531Z" fill="#10664E"/>
<path d="M91.7773 59.9531H95.8943V69.5343H105.042V72.8127H91.7773V59.9531Z" fill="#10664E"/>
</svg>
