<svg width="128" height="128" viewBox="0 0 128 128" fill="none" xmlns="http://www.w3.org/2000/svg">
<path d="M50.6817 35C50.1128 35 50.1422 35.4275 49.7678 35.4616C49.3934 35.5005 49.3156 35.0826 48.98 35.0826C48.7369 35.0826 48.6148 35.3114 48.4252 35.4281C48.2258 35.5594 47.9928 35.54 47.7642 35.5449H43.3881C43.1595 35.54 42.9265 35.5594 42.7271 35.4281C42.552 35.3211 42.4446 35.1217 42.2306 35.0876C41.8951 35.0341 41.8124 35.399 41.4429 35.5157C41.0198 35.6324 39.9844 35.4427 39.7413 35.5157C39.4058 35.6275 39.4204 35.8751 39.0703 35.9772C38.7543 36.0745 38.4672 35.8609 38.1658 36.0748C37.8691 36.2839 38.0201 36.5125 37.8645 36.7507C37.6262 37.1057 37.1155 36.9888 36.7654 36.9402C36.8773 36.5901 37.0522 36.6334 37.0959 36.3903C37.198 35.7826 36.2212 36.0258 35.91 36.0306C35.6037 36.0306 35.0536 35.9285 34.8202 36.0306C34.5917 36.123 34.5481 36.2791 34.3779 36.3861C34.164 36.5271 33.9792 36.4588 33.7896 36.5463C33.6194 36.629 33.5613 36.7746 33.4057 36.8718C33.1966 37.0128 32.9337 36.9987 32.6906 37.0036H30.5025L29.5937 36.9644C29.1998 37.0519 29.224 37.329 28.8593 37.4359C28.5578 37.5283 28.3341 37.3532 28.0131 37.4894C27.7263 37.6061 27.2399 38.2333 27.0843 38.3305C26.8753 38.4715 26.6856 38.4033 26.496 38.4908C26.2869 38.5929 26.258 38.7782 26.0003 38.8754C25.8155 38.9435 25.6405 38.8898 25.4703 39.0357C25.2029 39.2691 25.4261 39.5707 25.0857 39.7992C24.8523 39.9646 24.4246 39.9403 24.1961 39.7992C24.0405 39.6923 23.997 39.5609 23.8122 39.488L23.1505 39.3712C23.2429 39.1815 23.2916 39.1138 23.5152 39.0749C23.7875 39.0311 24.1139 39.1522 24.3521 39.0015C24.6293 38.8362 25.2851 38.1997 24.7211 37.9566C24.5995 37.9031 24.3813 37.9125 24.2403 37.9125C24.0506 37.9125 23.8169 37.8981 23.637 37.9759C23.4085 38.0731 23.3212 38.2531 23.0878 38.3698C22.8885 38.4719 22.6935 38.4575 22.4795 38.4623H18.347C17.9386 38.4575 17.3788 38.2676 17.1162 38.6468C16.8439 39.0407 17.34 39.6825 16.6447 39.8819C16.0077 40.0667 15.7839 39.5901 15.5456 39.4588C15.356 39.3567 14.6657 39.3471 14.4566 39.4103C14.16 39.5076 14.1359 39.7068 13.9025 39.8235C13.635 39.9547 13.4991 39.8092 13.2073 40.0621L12.4438 40.7957C12.0402 41.0048 11.7435 40.6595 11.3156 40.9901C11.1891 41.0874 10.8539 41.4232 10.7956 41.5642C10.7178 41.7393 10.7708 42.0015 10.552 42.196C10.3575 42.3662 10.0758 42.3471 9.8376 42.352L8.07759 42.3861C7.78098 42.4737 7.79568 42.687 7.46504 42.7843C7.14898 42.8815 6.86193 42.6679 6.56045 42.8819C6.20064 43.1347 6.49676 43.5092 6.06401 43.728C5.71878 43.9079 5.41306 43.5817 4.99492 43.9075C4.87823 43.9999 4.52321 44.3552 4.46001 44.4816C4.35304 44.7053 4.46964 45.002 4.11955 45.1867C3.83267 45.3375 3.33199 45.279 3.17153 44.9581C3.08401 44.7782 3.15204 44.6032 3.0013 44.4282C2.78736 44.1802 2.53914 44.35 2.26199 44.1312C1.87787 43.8248 1.4404 42.9643 0.725634 43.3484C0.59435 43.4165 0.511499 43.5191 0.409389 43.6212C0.321866 43.7087 0.175835 43.8396 0.122347 43.9417C-0.0964598 44.3647 0.501575 44.4864 0.45782 44.8997C0.423785 45.2498 0.0638959 45.2354 0.00554737 45.6925L0.0497049 46.3C0.0497049 46.5772 -0.0621311 46.8107 0.0497049 47.0878C0.171263 47.3698 0.389912 47.3746 0.492026 47.7004C0.564961 47.9532 0.45799 48.1232 0.492026 48.3664C0.530926 48.6581 0.832342 48.95 1.05115 49.1299C1.59572 49.5773 1.98495 48.4005 2.3788 49.0423C2.4177 49.1298 2.43229 49.2371 2.3788 49.3343C2.24265 49.7136 1.44537 49.4557 1.54259 50.0003C1.62039 50.4331 2.14515 50.1801 2.36881 50.501C2.59247 50.8219 2.30562 51.1334 2.50984 51.5224C2.60222 51.6926 3.47288 52.568 3.64304 52.6506C3.81808 52.7333 3.98831 52.6843 4.17795 52.7767C4.42593 52.8983 4.44539 53.127 4.7955 53.2048L5.82615 53.1706C6.0644 53.1706 6.41941 53.2485 6.61393 53.2048C6.96402 53.127 6.98349 52.8983 7.23147 52.7767C7.42111 52.6843 7.59619 52.7333 7.76639 52.6506C7.95602 52.5582 7.99949 52.393 8.20371 52.2909C8.39334 52.1986 8.56842 52.2468 8.73862 52.1642C8.92825 52.0718 8.97244 51.9066 9.17667 51.8045C9.35172 51.7169 9.51216 51.7511 9.65316 51.6976C9.85738 51.6295 9.90591 51.4933 10.0421 51.3864C10.2657 51.2162 10.6787 51.1725 10.9267 51.3037C11.4664 51.5858 11.0091 52.1057 11.2814 52.4946C11.578 52.9225 12.0061 52.6167 12.327 52.7382C12.5069 52.8014 12.6579 52.9662 12.619 53.1656C12.551 53.5351 12.1229 53.4816 11.9673 53.5545C11.7145 53.6663 11.6364 53.9435 11.6753 54.2012C11.7288 54.5707 11.9527 54.6195 12.0791 54.8237C12.2201 55.0377 12.1519 55.2224 12.2394 55.4121C12.3221 55.5822 12.4684 55.6411 12.5656 55.7967C12.6823 55.9766 12.692 56.1802 12.7066 56.3893C12.6969 56.7296 12.5997 57.6103 12.7066 57.8437C12.8476 58.082 13.4552 58.5828 13.5378 58.7141C13.708 58.9718 13.5673 59.1855 13.8007 59.4043C14.1654 59.7349 14.8315 59.2633 15.0357 59.7982C15.1087 59.9927 14.9914 60.1722 14.8164 60.2597C14.6219 60.357 14.1945 60.2549 14.1069 60.7654C14.0097 61.3295 14.4372 61.4127 14.5685 61.7433C14.69 62.0399 14.5395 62.2344 14.6027 62.5261C14.6805 62.8762 14.9092 62.8957 15.0307 63.1437C15.1377 63.3625 15.0547 63.5375 15.2152 63.732C15.6674 64.2669 16.3431 63.5521 16.4161 63.5084C16.6203 63.3868 16.8878 63.4496 16.9802 63.6879C17.0629 63.9115 16.9025 64.0965 16.7031 64.1743C16.3482 64.3153 15.8477 64.0819 15.624 64.4806C15.4587 64.7675 15.6822 65.1856 15.5899 65.6865C15.5072 66.1435 15.2595 66.1047 15.1233 66.4208C15.0115 66.698 15.1233 66.9314 15.1233 67.2086L15.0792 67.8162C15.1278 68.1711 15.6527 68.6088 15.9104 68.8568C16.0222 68.9686 16.144 69.1142 16.2851 69.1823C16.5039 69.2844 16.7615 69.1775 16.956 69.4643C17.2332 69.863 16.9123 70.5394 17.0728 70.9138C17.1749 71.1618 17.3547 71.1907 17.4617 71.4095C17.593 71.677 17.4475 71.813 17.7003 72.1047L18.8862 73.3013C19.0273 73.5104 18.9597 73.7 19.0472 73.8896C19.1445 74.0841 19.3143 74.1276 19.3969 74.3269C19.4747 74.5117 19.4021 74.7357 19.5479 74.901C19.9758 75.4018 20.3696 74.244 20.8072 74.7643C20.8753 74.8421 20.9043 74.9442 20.8848 75.0463C20.807 75.4839 20.3163 75.2948 20.0878 75.5135C19.8787 75.7178 19.8732 76.5785 20.0337 76.807C20.2184 77.0696 20.4324 76.9815 20.6512 77.0641C20.9089 77.1614 20.9386 77.3467 21.1477 77.4488C21.3276 77.5363 21.4783 77.4684 21.6826 77.5948C21.8722 77.7066 21.9887 77.9395 22.2367 77.9395C22.4895 77.9395 22.6061 77.7018 22.7908 77.5948C22.9513 77.5024 23.0923 77.5261 23.2673 77.5407C23.1506 77.9053 22.9171 77.8669 22.9269 78.1489C22.9317 78.358 23.1262 78.5035 23.2623 78.6397L24.4974 79.8455C24.7405 79.9963 25.0424 79.87 25.2175 80.1618C25.4217 80.507 25.0619 80.6724 24.9112 80.8961C24.7799 81.0955 24.7604 81.3917 24.8528 81.6105C24.9403 81.8245 25.4459 82.2863 25.6356 82.4759L27.1477 83.9888C27.3179 84.1589 27.7992 84.7034 28.0131 84.7423C28.3048 84.791 28.4408 84.489 28.6791 84.3577C28.9465 84.2313 29.3115 84.2994 29.5886 84.3577C29.506 84.5084 29.4721 84.572 29.2873 84.6255C29.0928 84.6839 28.8104 84.6156 28.7667 84.8976C28.7375 85.0629 28.8396 85.214 28.9903 85.2772C29.1557 85.3502 29.35 85.287 29.5153 85.4183C29.7389 85.5982 29.6418 85.8311 29.7439 86.0451C29.8314 86.2201 29.9825 86.2789 30.0651 86.4297C30.2013 86.6631 30.0599 87.0375 30.3856 87.159C30.8184 87.3146 31.0277 86.5219 31.4605 86.872C31.7571 87.12 31.5677 87.4453 31.6115 87.7517C31.6455 88.0239 32.0489 88.4713 32.2774 88.5928C32.7442 88.8359 32.9097 88.0339 33.3522 88.2965C33.7218 88.5105 33.3812 88.7538 33.848 89.2303C34.0279 89.4053 34.1978 89.6142 34.4555 89.6726C34.757 89.7407 35.0147 89.5557 35.2967 89.7502C35.5836 89.9447 35.4767 90.2024 35.5788 90.4212C35.642 90.5525 36.0358 90.951 36.1671 91.0337C36.595 91.3157 37.208 90.9316 37.67 91.1747C38.127 91.413 37.7768 91.8168 38.2241 92.0551C38.511 92.2107 38.7639 92.0262 39.0703 92.1185C39.3961 92.2158 39.4008 92.4341 39.6828 92.5509C39.9405 92.6627 40.3055 92.5557 40.5924 92.5509C40.8501 92.5509 41.3311 92.527 41.5596 92.6242C41.8222 92.7312 41.8414 92.8964 42.0554 93.0131C42.2547 93.1201 42.673 93.1006 42.9016 93.0957C43.4218 93.0763 43.3978 92.804 43.6993 92.6484C43.8986 92.5463 44.1415 92.5557 44.3603 92.5508H47.2777C47.5208 92.5557 47.7837 92.5416 47.9928 92.6826C48.2067 92.8139 48.2598 93.0665 48.678 93.0957C49.2031 93.1297 49.257 92.7943 49.5341 92.6484C49.7335 92.5463 49.9763 92.5561 50.1951 92.5658H51.411C51.7465 92.4685 51.7318 92.2205 52.0819 92.1135C52.3347 92.0406 52.5047 92.1475 52.7479 92.1135C53.025 92.0795 53.3993 91.7246 53.5549 91.501C53.832 91.0974 53.0882 90.4849 52.7479 90.4411C52.4902 90.4071 52.2715 90.5334 52.0235 90.407C51.6734 90.227 51.79 89.9255 51.6831 89.7018C51.6198 89.5705 51.226 89.1719 51.0947 89.0893C50.7884 88.885 50.4144 89.0259 50.0741 89.0259C49.5975 89.0356 49.3933 89.0307 48.9216 88.9675C49.014 88.6757 49.4854 88.3987 49.1353 88.1021C48.97 87.9562 48.7459 88.0289 48.5612 87.9511C48.3618 87.8684 48.3184 87.6986 48.1239 87.6014C47.9245 87.5041 47.7349 87.5864 47.5355 87.4162C47.2389 87.1585 47.5065 86.7652 47.0348 86.5707C46.7869 86.4832 46.5535 86.6145 46.3055 86.5707C45.9505 86.4929 45.9263 86.2593 45.6929 86.1427C45.513 86.06 45.3379 86.1182 45.158 85.9966C44.8225 85.773 45.0367 85.4566 44.7741 85.2281C44.5748 85.0579 44.3699 85.165 44.1317 85.0094L43.3154 84.2317C43.0869 84.0907 42.8724 84.1929 42.6779 84.013C42.4348 83.7893 42.6391 83.4339 42.3425 83.2637C41.934 83.0352 41.8419 83.6288 41.2584 83.6725C41.0591 83.6871 40.8545 83.6434 40.6551 83.6191C40.8059 83.1134 41.6086 82.8556 41.4579 82.4083C41.3947 82.2284 40.777 81.6688 40.6117 81.4937L39.2014 80.0792C39.0361 79.8263 39.1673 79.6466 38.9728 79.384L38.2292 78.6205C38.0395 78.3384 38.0495 77.799 38.351 77.5948C38.5357 77.4684 38.798 77.4828 39.0119 77.478H54.3284C54.7369 77.4828 55.2959 77.6721 55.5585 77.2928C55.7919 76.9573 55.3979 76.2039 55.9716 76.0969C56.5891 75.9802 56.1953 76.9673 56.7594 76.9673C57.0074 76.9673 57.1239 76.7337 57.3135 76.6218C57.5177 76.4954 57.6685 76.5633 57.8484 76.4758C58.0381 76.3834 58.0823 76.2182 58.2865 76.1161C58.4761 76.0238 58.6512 76.0727 58.8214 75.9901C58.9916 75.9074 59.0497 75.7611 59.2053 75.6638C59.3998 75.5326 59.6335 75.5373 59.862 75.547H61.1355C61.5294 75.4303 61.9525 74.721 62.2346 74.6432C62.7986 74.4925 62.6723 75.2265 62.9105 75.4502C63.1779 75.6884 63.6012 75.5378 63.9319 75.5378C64.2382 75.5329 65.2106 75.5038 65.444 75.5962C65.8038 75.7469 65.6527 76.0819 66.2411 76.0819C66.8489 76.0819 66.8393 75.6303 66.64 75.4601C66.4746 75.3191 66.0904 75.3526 65.8764 75.3526C65.9834 75.1629 66.003 75.1437 66.1634 74.9979L66.4305 74.7692C66.484 74.7255 66.5425 74.6867 66.6058 74.6624C67.1406 74.4679 67.1016 75.2313 67.2183 75.3918C67.3642 75.596 67.7149 75.6299 67.9434 75.557C68.3129 75.4403 68.7596 74.7598 68.9833 74.6674C69.4112 74.4972 69.5281 75.0221 69.8879 75.0221C70.2088 75.0221 70.3109 74.6285 70.6173 74.6382C70.8555 74.6431 70.9916 74.8767 71.1764 74.9837C71.3903 75.1149 71.5508 75.0369 71.7647 75.1439C71.9641 75.246 72.0083 75.4016 72.2028 75.5086C72.4945 75.6691 72.7475 75.5378 73.0489 75.5378L73.5931 75.5862C73.9578 75.5668 74.2445 75.2217 74.4827 74.9737C74.6189 74.8278 74.7162 74.6575 74.935 74.6332C75.5476 74.5652 75.1684 75.4161 75.6643 75.5036C75.9366 75.5522 76.0775 75.2847 76.2769 75.1631C76.4762 75.0319 76.7101 75.0512 76.9386 75.0463C77.2352 75.0463 78.0176 75.129 78.2121 75.0463C78.6108 74.881 79.2093 74.0446 79.5739 73.7529C79.9143 73.4806 80.1768 73.7046 80.522 73.6268C80.8429 73.5587 80.8916 73.3545 81.0861 73.2329C81.2952 73.0919 81.5581 73.1061 81.8012 73.1061H83.1381C83.3764 73.1061 83.7313 73.1841 83.9259 73.1403C84.3197 73.0528 84.2955 72.7757 84.6602 72.6688C84.9617 72.5764 85.1848 72.7515 85.5057 72.6153C85.7002 72.5375 86.1577 72.0853 86.2258 71.886C86.2841 71.7304 86.2404 71.5457 86.3668 71.3561C86.4349 71.2442 86.5515 71.1714 86.6439 71.079C87.0863 70.6316 87.1202 70.6654 87.7571 70.6751C87.9662 70.6751 88.1705 70.6852 88.3505 70.8019C88.5255 70.9089 88.5643 71.0643 88.7928 71.1566C88.963 71.2296 89.386 71.2199 89.5806 71.215C90.1835 71.1956 90.0576 70.8259 90.5535 70.7043L92.8627 70.6702C93.1496 70.675 93.5145 70.782 93.7722 70.6702C94.0202 70.5681 94.0491 70.3883 94.268 70.2813C94.4819 70.1743 94.6472 70.2523 94.8563 70.121C95.148 69.946 95.5566 69.314 95.8435 69.2848C96.4756 69.2119 96.0819 70.267 96.6897 70.1552C97.1613 70.0677 96.8014 69.4692 97.3022 69.2699C97.4967 69.1921 98.0362 69.2117 98.2744 69.2214H100.156C100.409 69.2166 100.793 69.3089 101.007 69.2214C101.246 69.1388 101.348 68.925 101.494 68.9201C101.62 68.9201 101.717 69.0902 101.921 69.168C102.155 69.2604 102.505 69.1678 102.767 69.2699C103.049 69.3768 103.127 69.625 103.38 69.6687C103.715 69.7222 103.798 69.3574 104.168 69.2407C104.581 69.1288 105.102 69.3379 105.384 69.2407C106.098 68.9538 105.364 67.9575 106.055 67.8311C106.585 67.7339 106.4 68.4531 106.725 68.6816C107.046 68.9101 107.46 68.6527 107.995 68.7499C108.423 68.8229 108.413 69.0463 108.671 69.1873C109.006 69.3672 109.512 69.2698 109.589 68.8468L109.638 68.3653C110.051 68.4869 109.944 68.6815 110.309 68.7642C110.883 68.8955 111.023 68.4681 111.286 68.3368C111.485 68.2396 111.661 68.2978 111.812 68.1908C112.103 67.9915 111.943 67.4615 112.191 67.4615C112.322 67.4615 112.351 67.6605 112.371 67.7578C112.41 67.9863 112.429 68.1564 112.682 68.2585C112.877 68.3363 113.581 68.3171 113.766 68.215C113.995 68.0886 114.014 67.8937 114.32 67.8062C114.607 67.7187 114.845 67.8748 115.103 67.7727C115.473 67.622 115.356 67.2765 115.526 67.0334C115.726 66.7465 116.027 66.8245 116.251 66.7029C116.45 66.5911 116.528 66.3527 116.81 66.3624C117.126 66.377 117.301 66.766 117.034 66.98C116.771 67.1939 116.217 66.9802 115.93 67.2136C115.745 67.3643 115.769 67.6609 116.027 67.7727C116.187 67.8408 116.898 67.8162 117.112 67.8162L117.967 67.7578H119.3C119.528 67.7578 119.761 67.7533 119.956 67.8846C120.131 67.9915 120.17 68.1469 120.399 68.2393C120.564 68.3122 121.191 68.3173 121.366 68.2784C121.716 68.2006 121.736 67.9768 121.984 67.8504C122.173 67.758 122.348 67.8063 122.518 67.7236C122.708 67.6312 122.752 67.466 122.956 67.3639C123.131 67.2764 123.291 67.3105 123.432 67.2571C123.675 67.1744 123.71 66.99 123.929 66.8781C124.118 66.7857 124.293 66.834 124.464 66.7513C124.668 66.6492 124.726 66.4399 124.959 66.3767C125.621 66.2016 125.271 67.1453 125.869 67.2912C126.063 67.3544 126.277 67.2864 126.476 67.2912C126.865 67.2572 127.312 67.4853 127.556 67.0234C127.716 66.7268 127.517 66.46 127.624 66.1779C128.129 65.4411 128.159 64.254 127.507 64.2327C127.264 64.2279 127.002 64.2427 126.793 64.1017C126.579 63.9655 126.505 63.6878 126.048 63.6878C125.562 63.6878 125.524 63.9941 125.251 64.1352C125.033 64.247 124.712 64.2326 124.469 64.2278C124.259 64.2278 124.055 64.2184 123.875 64.1017C123.69 63.985 123.647 63.8098 123.375 63.732C123.195 63.6639 122.553 63.7466 122.28 63.732C122.018 63.7417 121.658 63.6493 121.429 63.732C121.157 63.8098 121.113 63.985 120.929 64.1017C120.72 64.2427 120.457 64.2278 120.214 64.2278H116.931L116.265 64.1793C115.867 64.2036 115.774 64.5241 115.595 64.5241C115.453 64.5241 115.346 64.3054 115.108 64.2228C114.894 64.1352 114.51 64.2276 114.258 64.2228H110.489C110.26 64.2276 110.027 64.2472 109.827 64.1159C109.638 63.9992 109.516 63.7705 109.273 63.7705C109.03 63.7705 108.909 63.9992 108.719 64.1159C108.549 64.2278 108.379 64.2278 108.179 64.2278C107.936 64.2326 107.615 64.247 107.396 64.1352C107.158 64.0136 107.134 63.8148 106.842 63.737C106.662 63.6641 106.021 63.7467 105.748 63.737C105.461 63.7418 105.096 63.6349 104.839 63.737C104.508 63.8877 104.552 64.1594 104.047 64.2178C103.828 64.2421 103.628 64.2129 103.448 64.0768C103.298 63.9649 103.181 63.7705 102.953 63.7705C102.709 63.7705 102.587 63.9992 102.398 64.1159C102.198 64.2472 101.965 64.2279 101.737 64.2327H99.3058C99.0627 64.2279 98.7998 64.2427 98.5907 64.1017C98.3768 63.9704 98.3181 63.7123 97.9048 63.6928L97.3606 63.7413C97.0835 63.7413 96.85 63.6294 96.5728 63.7413C96.2519 63.8823 96.1839 64.3004 95.5372 64.2177C94.696 64.1108 95.3233 63.2695 94.5016 63.2063C93.9619 63.1577 93.9323 63.5326 93.5871 63.6736C93.164 63.8486 92.6151 63.6397 92.3185 63.7078C91.8615 63.8099 91.9345 64.2277 91.2829 64.2277C90.714 64.2277 90.6845 63.9019 90.4268 63.7755C90.2469 63.6879 90.0961 63.7559 89.8919 63.6294C89.6877 63.5079 89.5614 63.2452 89.2793 63.289C89.0459 63.3279 88.949 63.5567 88.7302 63.6636C88.56 63.7414 88.4091 63.6976 88.2487 63.7754C88.0591 63.8678 88.0197 64.0282 87.8106 64.1351C87.4946 64.3005 86.7169 64.2325 86.3619 64.1693C86.6342 63.649 87.101 64.0333 87.1788 63.6152C87.2615 63.163 86.6341 63.1922 86.3619 63.1971L85.7493 63.2605H84.9032C84.6211 63.2556 84.1594 63.1486 83.9309 63.2605C83.5954 63.4452 83.7068 63.7124 83.6047 63.9214C83.4783 64.1743 83.2108 64.2373 82.958 64.2227C82.3697 64.1887 82.1752 63.6099 81.7279 63.3182C81.4119 63.1091 81.159 63.2555 80.8283 63.2555C80.629 63.2555 80.4007 63.1821 80.2208 63.2113C79.6227 63.3037 79.9046 63.8044 79.5983 64.0767C79.3065 64.3344 78.4608 64.2179 78.0961 64.1693C78.2128 63.9213 78.3145 63.873 78.3874 63.732C78.5333 63.4402 78.3196 63.2312 78.0327 63.2021C77.3958 63.1388 77.3909 63.5813 76.9387 63.7078C76.5497 63.8196 76.0634 63.6445 75.7862 63.7078C75.441 63.7855 75.4216 64.0038 75.1687 64.1351C74.8721 64.2907 74.5169 64.2131 74.2057 64.1693C74.3176 63.8192 74.4932 63.8633 74.5369 63.6201C74.639 63.0123 73.6615 63.2553 73.3503 63.2504H72.4408C72.1782 63.2213 71.9741 63.1485 71.7164 63.2846C71.2253 63.5472 71.065 64.1886 70.4329 64.2227C69.8057 64.2567 69.7906 63.8877 69.4599 63.7369C69.2022 63.6348 68.838 63.7418 68.5511 63.7369C68.2788 63.7467 67.637 63.664 67.4571 63.7369C67.0535 63.8536 67.1121 64.2277 66.4848 64.2277C65.8576 64.2277 65.9155 63.8536 65.5119 63.7369C65.2833 63.6494 65.0694 63.7223 64.8409 63.7369H63.9321C63.6452 63.7418 63.2802 63.6348 63.0225 63.7369C62.6919 63.8877 62.7158 64.1935 62.1664 64.2227C61.9671 64.2324 61.7975 64.1982 61.6322 64.0767C61.4815 63.9648 61.3643 63.7704 61.1358 63.7704C60.8003 63.7704 60.7224 64.1889 60.348 64.15C60.1098 64.1306 60.0367 63.9556 59.8957 63.8437C59.7159 63.6979 59.4728 63.6542 59.254 63.7077C58.9282 63.7806 58.8892 63.98 58.6899 64.1016C58.51 64.2183 58.3063 64.2277 58.0973 64.2277C57.8541 64.2325 57.5326 64.2469 57.3138 64.1351C57.0755 64.0135 57.0514 63.8143 56.7596 63.722C56.5165 63.6442 56.2734 63.7414 56.0303 63.722L55.729 63.6828C55.8214 63.3765 56.2495 62.9539 56.5802 62.915C56.799 62.8955 56.9884 62.9976 57.2461 62.915C57.5622 62.8129 57.5669 62.5936 57.8587 62.4769C58.1553 62.3554 58.3497 62.5066 58.6415 62.4434C58.9138 62.3851 59.2205 62.0395 59.415 61.8401L60.1101 61.135C60.2268 61.0134 60.4065 60.8777 60.4356 60.7026C60.4989 60.3331 59.6769 59.934 60.2312 59.5937C60.3236 59.5548 60.426 59.5451 60.5233 59.5937C60.9268 59.7347 60.6253 60.5271 61.1942 60.4299C61.4081 60.391 61.5149 60.1922 61.6899 60.0901C61.9136 59.954 62.065 60.0461 62.279 59.9099L63.0952 59.1321C63.2849 59.0057 63.4696 59.0494 63.6251 58.9911C63.8683 58.9084 63.9028 58.7233 64.1216 58.6115C64.3355 58.5045 64.5008 58.5825 64.7099 58.4512L66.0034 57.2261C66.2757 57.0462 66.6253 57.1916 66.742 56.8707C66.9025 56.4282 66.4065 56.438 66.1829 56.37C65.9884 56.3116 66.0035 56.2148 66.1202 56.0787L66.2562 55.9419L66.4457 55.7624C66.543 55.6895 66.6598 55.6456 66.7862 55.6748C67.287 55.7769 66.9077 56.5452 67.4571 56.5452C67.7245 56.5452 67.8362 56.2774 68.0647 56.1656C68.2786 56.0683 68.4196 56.1611 68.653 55.9861L70.2727 54.3813C70.438 54.2112 70.7296 53.9975 70.6324 53.7204C70.5205 53.414 70.0874 53.4864 69.8296 53.4718C69.9172 53.1752 70.3842 52.6552 70.7392 52.7816C70.9677 52.8594 71.0745 53.1413 71.3467 53.1413C71.5704 53.1413 71.7944 52.8548 71.95 52.7089C72.0813 52.5825 72.5237 52.1449 72.5918 52.0088C72.689 51.7948 72.5968 51.5756 72.8204 51.3763C73.1073 51.1234 73.4038 51.3275 73.715 51.2595C73.9873 51.2011 74.2933 50.8562 74.4878 50.6569C74.6045 50.5451 74.9644 50.1852 75.0227 50.0636C75.1103 49.8739 75.042 49.6843 75.183 49.4752C75.2656 49.344 75.8735 48.8431 75.9999 48.6049C76.141 48.3374 76.0001 47.5596 76.0341 47.1511C76.0584 46.9129 76.1265 46.7234 76.0341 46.4852C75.932 46.2566 75.7764 46.2123 75.6694 46.0422C75.5381 45.8428 75.5921 45.663 75.5191 45.5122C75.349 45.1378 75.0083 45.2257 74.6922 45.2451C74.5171 45.2597 74.3759 45.2303 74.2057 45.206C74.3078 44.8656 74.405 44.9435 74.5412 44.7053C74.794 44.2628 74.5122 43.9178 74.2107 43.6212C74.0891 43.4997 73.968 43.3484 73.7783 43.3484C73.4574 43.3484 73.0581 44.0878 72.742 43.5578C72.4794 43.1154 73.2773 42.9498 73.039 42.483C72.9709 42.3517 72.46 41.8656 72.3239 41.7294C72.1683 41.5787 71.6628 41.0442 71.5169 40.9566C71.2592 40.7962 71.0553 40.9464 70.7733 40.6838L69.6258 39.5314C69.3438 39.3174 69.115 39.4928 68.8865 39.2351C68.7017 39.0211 68.8137 38.8219 68.6678 38.5933C68.5949 38.4669 67.7585 37.6304 67.6272 37.5477C67.2236 37.2852 66.9365 37.5918 66.5524 37.3924L65.682 36.5755C65.3173 36.3372 65.0595 36.5658 64.724 36.4637C64.3739 36.3616 64.3934 36.1134 64.0531 36.0064C63.7565 35.914 63.0127 35.924 62.828 36.2158C62.6918 36.4297 62.8233 36.6874 62.5267 36.8867C62.2593 37.0715 61.8603 36.9791 61.5637 36.9402C61.6707 36.5803 62.2495 36.2593 61.88 35.7293C61.6222 35.3549 61.1453 35.5399 60.771 35.5399H52.1405C51.8974 35.5399 51.6345 35.5541 51.4254 35.4131C51.2114 35.277 51.1388 35 50.6818 35L50.6817 35ZM51.5955 37.1197C51.5712 37.3434 51.6056 37.6594 51.4403 37.8199C51.0658 38.1943 50.4388 37.5478 50.3804 37.1831L51.5955 37.1197ZM43.5653 37.6126C43.7527 37.6015 43.9601 37.6173 44.1023 37.723C44.3454 37.9078 44.3315 38.345 43.8744 38.4374C43.6799 38.4763 43.3246 38.472 43.1593 38.3456C42.8821 38.1365 42.9552 37.7569 43.3879 37.6305C43.4426 37.6232 43.5028 37.6164 43.5653 37.6127L43.5653 37.6126ZM8.75782 40.8306C8.51227 40.8288 8.27218 40.8347 8.13601 40.8541C7.81023 41.0097 7.87308 41.0686 7.64453 41.2096C7.38682 41.3749 7.1435 41.2626 6.9636 41.4717C6.77883 41.6905 6.89122 42.0263 7.40661 42.0458C7.56707 42.0506 8.63157 41.9727 8.73853 41.9289C8.9622 41.8414 9.0301 41.6564 9.29266 41.5835C9.51146 41.5252 9.93449 41.5985 10.1338 41.5158C10.445 41.3797 10.4352 40.9611 10.0754 40.8542C9.94899 40.8201 9.56505 40.8298 9.40944 40.8542C9.25384 40.842 9.00326 40.8325 8.75773 40.8306L8.75782 40.8306ZM58.3395 44.4233C58.9911 44.4768 58.811 44.9389 58.9229 45.1626C58.9909 45.2988 59.477 45.7752 59.618 45.8628C59.866 45.9746 60.2358 45.8773 60.5276 45.8628C60.9652 45.8725 61.2424 45.8576 61.68 45.9354C61.5682 46.3049 61.3252 46.3582 61.3787 46.6014C61.4371 46.8883 61.8113 46.9421 62.0447 46.8692C62.3705 46.7671 62.4336 46.5239 62.7156 46.4169C63.0171 46.3002 63.2311 46.4605 63.5034 46.3827C63.8049 46.2952 63.8584 46.0815 64.0675 45.9696C64.3496 45.814 65.0304 45.8089 65.1374 46.1833C65.1763 46.2757 65.1714 46.383 65.1374 46.4753C64.8943 46.9373 64.325 46.5192 63.9457 46.7866C63.6637 46.986 63.7905 47.1899 63.6786 47.4476C63.63 47.5643 63.2265 47.9829 63.1195 48.0559C62.891 48.2163 62.6864 48.1336 62.5162 48.2211C62.2829 48.3378 62.2681 48.5566 61.9229 48.6392C61.5923 48.717 61.3832 48.5323 61.0817 48.6976C60.6393 48.9407 60.9747 49.6015 60.4058 49.6015C60.1092 49.6015 59.9444 49.3001 60.0611 49.0424C60.1437 48.8624 60.3669 48.7363 60.4058 48.5466C60.4982 48.1138 59.8806 48.1187 59.618 48.1235C58.9227 48.1333 59.0101 48.4007 58.6892 48.5758C58.4315 48.7168 58.2813 48.5855 58.0382 48.7702L56.7005 50.1029C56.5547 50.239 56.375 50.4723 56.2048 50.5452C55.7477 50.7446 55.1013 50.467 54.7561 50.6421C54.5275 50.7636 54.0071 51.3764 53.8807 51.459C53.6327 51.6292 53.4381 51.5173 53.229 51.6535L52.3686 52.4655C52.1595 52.5822 51.9792 52.5194 51.8187 52.5972C51.6437 52.6848 51.5707 52.8547 51.3956 52.9519C51.2011 53.0589 51.0263 53.015 50.8999 53.0588C50.6859 53.1366 50.613 53.3363 50.4234 53.4384C50.2094 53.5551 50.0347 53.4917 49.8742 53.5695C49.6797 53.6667 49.6262 53.8511 49.3977 53.9484C49.1546 54.0505 49.0279 53.9436 48.7994 54.1186C48.5806 54.2888 48.1432 54.8339 47.939 54.9214C47.6716 55.0381 46.3782 54.994 46.0038 54.994C45.7461 54.9892 45.2886 54.9114 45.0893 54.994C44.8121 55.1059 44.7831 55.305 44.5351 55.4071C44.292 55.5092 44.1653 55.4023 43.9368 55.5774L43.1298 56.3559C42.7457 56.5698 42.4538 56.2781 42.1134 56.4969C41.739 56.74 41.9482 56.9685 41.7537 57.2263C41.6079 57.4207 41.36 57.4208 41.1412 57.4257C40.8738 57.4257 39.8965 57.3625 39.7409 57.4257C39.4151 57.557 39.123 58.0041 38.8556 58.2327C38.6076 58.4369 38.3893 58.3397 38.2045 58.4321C38.0101 58.5294 37.9614 58.7138 37.7281 58.8111C37.412 58.9472 37.2078 58.7966 36.9453 58.8452C36.6098 58.9084 36.5367 59.1566 36.3228 59.2733C36.104 59.3948 35.9384 59.3165 35.7779 59.4186C35.3792 59.6763 35.6708 60.0701 35.2964 60.2598C34.9074 60.4494 34.7135 59.9685 34.4509 59.915C34.1884 59.8615 34.0662 60.1531 33.8377 60.2455C33.6967 60.299 33.5222 60.2599 33.3569 60.3523C32.681 60.7413 34.096 61.3003 33.3569 61.7185C33.2791 61.7574 33.196 61.7772 33.1133 61.7918H32.812C32.53 61.7821 32.4277 61.7623 32.3255 61.4948C32.4228 61.4511 32.5248 61.4124 32.6026 61.3346C32.8263 61.106 32.6175 60.8338 32.3889 60.8872C32.1993 60.9261 32.1362 61.0963 32.0827 61.2519L31.6596 61.2911H31.1104L30.376 61.7477L29.5299 61.8018L28.0127 61.7384C28.076 61.3543 28.1975 61.4614 28.3482 61.1843C28.426 61.0384 28.4408 60.4499 28.4116 60.2797C28.3387 59.915 28.076 59.8761 27.9593 59.6038C27.8037 59.2488 28.018 59.0152 27.8867 58.6992C27.7943 58.4658 27.6285 58.3977 27.5313 58.2519C27.3708 58.0185 27.4535 57.8195 27.366 57.6493C27.2688 57.4548 27.0843 57.4062 26.9871 57.1728C26.8315 56.8178 27.045 56.5843 26.9137 56.2682C26.8116 56.0105 26.6318 55.962 26.5248 55.7675C26.3984 55.5341 26.491 55.3637 26.3646 55.1692C26.243 54.9796 26.0824 54.955 25.9949 54.6827C25.8685 54.3083 26.1064 54.0949 25.8973 53.7789C25.625 53.3558 25.256 53.5303 24.8524 53.5303C24.5072 53.5351 24.4586 53.5302 24.1231 53.4719C24.1668 53.2093 24.4731 52.8452 24.7356 52.7675C24.9642 52.6994 25.3285 52.7718 25.3966 52.4363C25.455 52.1688 25.1339 52.0426 25.0269 51.7703C24.9102 51.4737 25.0713 51.25 24.9935 50.9825C24.9108 50.7053 24.7159 50.6274 24.6138 50.4718C24.4923 50.2968 24.4878 50.0878 24.4878 49.8885C24.4829 49.4898 24.3954 48.9065 24.9109 48.8044C25.1783 48.7655 25.3631 48.9017 25.6402 48.8044C25.9952 48.6488 25.9363 48.381 26.4323 48.3129C26.7872 48.2692 27.3562 48.3956 27.5847 48.3129C28.1682 48.0698 28.2314 47.3357 29.0434 47.3357C29.7582 47.3357 29.6268 47.7106 30.079 47.8322C30.2589 47.8954 30.4392 47.837 30.6239 47.8322H31.5961C31.815 47.8224 32.2235 47.8905 32.3839 47.8322C32.6854 47.7544 32.7389 47.5401 32.948 47.4283C33.1377 47.3262 33.3908 47.3357 33.6048 47.3357H35.0001L35.7294 47.3699C36.0406 47.3115 36.143 47.083 36.2986 46.976C36.4736 46.8544 36.6825 46.8498 36.8819 46.8449H37.9809C38.2241 46.8498 38.5596 46.9422 38.7687 46.8449C39.289 46.5775 38.9243 45.9161 39.4981 45.9161C40.067 45.9161 39.6828 46.6844 40.169 46.7865C40.4024 46.84 40.553 46.5822 40.7231 46.4753C40.9079 46.3537 41.1075 46.3637 41.3214 46.3734H42.595C43.0131 46.2616 42.926 45.9257 43.5095 45.882C44.2389 45.8236 44.2145 46.1641 44.5451 46.3342C44.7202 46.4218 45.1238 46.4117 45.3329 46.4069C45.7705 46.3923 45.8431 46.096 46.0765 45.9696C46.2661 45.8675 46.5193 45.8769 46.7332 45.872H50.4967C50.7544 45.8768 51.2112 45.9546 51.4106 45.872C51.7315 45.7456 51.7168 45.5072 52.0815 45.4197C52.4219 45.3419 52.6067 45.5273 52.9277 45.362C53.2972 45.1675 53.6961 44.4477 54.0851 44.4574C54.5908 44.4672 54.3914 45.0115 54.6442 45.2594C54.9408 45.5366 55.3587 45.3908 55.7282 45.3762C56.0248 45.386 56.5888 45.4784 56.8173 45.3762C57.4202 45.0505 57.4399 44.3454 58.3394 44.4232L58.3395 44.4233ZM101.798 69.5285C101.676 69.5194 101.549 69.5352 101.439 69.562C100.841 69.9461 101.527 70.4271 102.033 70.1937C102.271 70.0868 102.339 69.805 102.135 69.6446C102.04 69.5716 101.921 69.5376 101.798 69.5285L101.798 69.5285ZM70.6168 71.6867C71.3461 71.8228 70.8889 72.8 71.0883 73.2814C71.2439 73.6753 71.6331 73.5346 71.7985 73.661C72.027 73.8458 71.6577 73.9426 71.5264 73.9524H71.2878C70.5487 73.9183 70.7871 73.4565 70.5634 73.1161L69.8875 72.406C69.7902 72.2212 70.2326 71.8227 70.3882 71.74C70.4854 71.6914 70.5147 71.7012 70.6168 71.6866L70.6168 71.6867ZM76.8149 72.6525C76.8738 72.6496 76.9333 72.6518 76.9965 72.6689C77.3223 72.7126 77.6772 73.0917 77.7259 73.4174C77.6043 73.4271 77.4926 73.4515 77.3662 73.4174C77.0404 73.3737 76.6854 72.9946 76.6368 72.6689C76.6976 72.664 76.7559 72.6555 76.8149 72.6525ZM66.0926 73.1105C66.1898 73.1147 66.2846 73.1287 66.3576 73.1603C66.6542 73.2819 66.7271 73.6368 66.4694 73.8313C66.2846 73.9674 66.0315 73.9525 65.8127 73.9573C65.5063 73.9573 64.3934 73.9913 64.1795 73.8989C63.8391 73.7628 63.7565 73.2864 64.2963 73.1162H65.8127C65.8953 73.1113 65.9953 73.1062 66.0926 73.1105V73.1105Z" fill="url(#paint0_linear_5027_5337)"/>
<defs>
<linearGradient id="paint0_linear_5027_5337" x1="64" y1="92.9958" x2="64" y2="34.8955" gradientUnits="userSpaceOnUse">
<stop stop-color="#0E658C"/>
<stop offset="0.333333" stop-color="#0095D9"/>
<stop offset="0.666667" stop-color="#66BFE8"/>
<stop offset="1" stop-color="#0095D9"/>
</linearGradient>
</defs>
</svg>
