<svg width="128" height="128" viewBox="0 0 128 128" fill="none" xmlns="http://www.w3.org/2000/svg">
<path d="M75.5102 27.6999C52.7473 29.5928 40.3194 44.5359 40.3194 63.8743C40.3194 82.6773 57.7423 98.4814 74.5686 98.4814L78.2641 98.4427H84.4845C84.4845 98.4427 88.6088 98.4427 88.6378 94.4215V54.0648H123.774C123.774 76.8439 123.69 128 123.69 128C123.69 128 89.0119 127.971 68.8771 127.971C31.013 127.971 4 96.6917 4 63.8743C4 28.3771 33.3832 -1.27047 69.9702 0.0419694L122.529 0.206427L122.503 27.6967H75.5102" fill="url(#paint0_linear_5027_3363)"/>
<defs>
<linearGradient id="paint0_linear_5027_3363" x1="63.8869" y1="128" x2="63.8869" y2="0" gradientUnits="userSpaceOnUse">
<stop stop-color="#0B3272"/>
<stop offset="0.333333" stop-color="#2560BF"/>
<stop offset="0.666667" stop-color="#7CA0D9"/>
<stop offset="1" stop-color="#2560BF"/>
</linearGradient>
</defs>
</svg>
