<svg width="128" height="128" viewBox="0 0 128 128" fill="none" xmlns="http://www.w3.org/2000/svg">
<path d="M128 70.626C115.421 70.7238 104.32 77.1464 97.7998 86.8652C90.5509 97.7002 78.02 104.683 63.9873 104.683C50.0015 104.683 37.4466 97.7003 30.1992 86.8652C23.6786 77.1462 12.5784 70.7238 0 70.626V66.2402C14.0328 66.3358 26.3934 73.4135 33.7129 84.2471C40.2827 93.9425 51.4076 100.293 63.9873 100.293C76.6134 100.293 87.7394 93.9425 94.3086 84.2471C101.603 73.4143 113.965 66.3358 128 66.2402V70.626ZM49.8555 40.499C52.2308 38.1237 56.0852 38.1237 58.4355 40.499C59.7692 41.8312 60.3256 43.6005 60.1807 45.3477C61.3422 46.0502 62.5332 46.8249 63.7197 47.6738C69.5833 43.4816 75.2569 41.0322 79.4287 41.0322C82.2126 41.0322 83.858 42.099 84.7578 42.9941C85.6796 43.8924 86.7437 45.5395 86.7422 48.3252C86.7422 48.7387 86.7172 49.1752 86.6709 49.6357C85.6278 48.8589 84.3924 48.4473 83.083 48.4473C82.7918 48.4473 82.5268 48.4707 82.2363 48.5215C82.2856 47.4536 82.0661 46.6289 81.6064 46.1699C81.1687 45.7345 80.4418 45.5156 79.4268 45.5156C76.8306 45.5158 72.5162 47.1164 67.4502 50.5566C69.1723 51.9867 70.8676 53.5386 72.542 55.21C74.2368 56.882 75.7877 58.6048 77.2178 60.3262C77.6563 59.67 78.0673 59.0404 78.4307 58.4092C78.5513 58.5283 78.6478 58.6761 78.7715 58.8232C79.7629 59.7902 81.0228 60.3716 82.4062 60.5195C81.7023 61.6808 80.9284 62.8685 80.0781 64.0312C84.2719 69.8978 86.7431 75.5706 86.7432 79.7637C86.7432 82.5492 85.6795 84.198 84.7578 85.0713C83.8588 85.9673 82.212 87.0352 79.4277 87.0352C79.0379 87.0352 78.6022 87.0349 78.1631 86.9863C77.997 87.2054 77.8023 87.42 77.6074 87.6406C76.4436 88.7801 74.9163 89.4102 73.292 89.4102C71.6677 89.4101 70.1432 88.7801 69.0029 87.6406C67.8628 86.4762 67.2325 84.951 67.2324 83.3496C67.2324 83.1562 67.233 82.9628 67.2588 82.7451C66.0928 82.0411 64.9067 81.2656 63.7188 80.416C57.8772 84.6098 52.2063 87.0352 48.0117 87.0352C45.2499 87.035 43.5774 85.9681 42.6807 85.0723C41.1049 83.5208 40.5702 81.2909 40.8145 78.6963C41.8326 79.4231 43.0453 79.8115 44.3281 79.8115C44.6194 79.8115 44.9099 79.7863 45.2012 79.7393V79.7646C45.2012 80.7562 45.4195 81.4847 45.8564 81.9209C46.2927 82.357 47.0173 82.5771 48.0117 82.5771C50.6063 82.577 54.9446 80.975 60.0107 77.5566C58.2894 76.1266 56.5672 74.5526 54.8975 72.8799C53.2733 71.2549 51.7209 69.5358 50.2666 67.791C49.8061 68.4685 49.3464 69.1714 48.958 69.8496C48.8367 69.7048 48.7402 69.559 48.6182 69.4385C47.6251 68.444 46.3638 67.8875 44.9824 67.7168C45.7342 66.5068 46.5348 65.2691 47.4072 64.0576C41.4921 55.7679 38.4876 47.1885 42.6807 42.9932C43.5774 42.0988 45.2501 41.0314 48.0117 41.0312C48.4495 41.0312 48.8857 41.0569 49.3242 41.1055C49.4926 40.8855 49.6598 40.6924 49.8555 40.499ZM73.293 78.5518C72.0328 78.5518 70.8225 79.0615 69.8984 79.959C69.0026 80.8799 68.4932 82.0663 68.4932 83.3506C68.4932 84.6357 69.0025 85.8232 69.8984 86.7207C70.8225 87.6425 72.0336 88.127 73.293 88.127C74.5773 88.1269 75.7895 87.6424 76.6885 86.7207C77.608 85.824 78.0947 84.6365 78.0947 83.3506C78.0947 82.0655 77.6079 80.8792 76.6885 79.959C75.7895 79.0615 74.5765 78.5518 73.293 78.5518ZM77.2188 67.7656C75.7887 69.4878 74.2368 71.2065 72.542 72.8809C70.8678 74.5535 69.1732 76.1277 67.4277 77.5576C68.0831 77.9703 68.7128 78.3814 69.3174 78.7705C70.4325 77.8018 71.8126 77.2676 73.291 77.2676C74.916 77.2676 76.4434 77.8962 77.6064 79.0615C78.5775 80.0318 79.1582 81.2429 79.3281 82.5781H79.4277C80.4425 82.5781 81.1687 82.3586 81.6064 81.9219C83.2292 80.2976 81.9232 74.7225 77.2188 67.7656ZM44.3066 68.9551C46.9236 68.9553 49.0554 71.088 49.0557 73.7285C49.0557 76.345 46.9238 78.4812 44.3066 78.4814C41.6635 78.4814 39.5547 76.3443 39.5547 73.7285C39.5549 71.0879 41.6636 68.9551 44.3066 68.9551ZM63.7188 53.2959C61.8791 54.7752 59.9876 56.4717 58.0713 58.3857C56.1572 60.3013 54.4612 62.2158 53.0068 64.0586C54.4611 65.9012 56.1581 67.7919 58.0713 69.7051C59.9876 71.6449 61.8783 73.3171 63.7188 74.7949C65.5615 73.3171 67.451 71.6449 69.3916 69.7051C71.3071 67.7918 73.0037 65.9013 74.458 64.0586C73.0037 62.2151 71.3064 60.3006 69.3916 58.3857C67.451 56.4717 65.5615 54.7752 63.7188 53.2959ZM63.9873 23C78.0199 23.0001 90.5509 29.9808 97.7998 40.8135C104.32 50.5569 115.421 57.0056 128 57.0762V61.4648C113.965 61.367 101.603 54.2896 94.3086 43.4561C87.7394 33.7356 76.6134 27.3867 63.9873 27.3867C51.4076 27.3869 40.2827 33.7349 33.7129 43.4561C26.3934 54.2896 14.0328 61.3662 0 61.4648V57.0762C12.5785 57.0056 23.6786 50.5568 30.1992 40.8135C37.4467 29.9809 50.0017 23 63.9873 23ZM48.0117 45.5156C47.0174 45.5157 46.2926 45.7355 45.8564 46.1709C45.4196 46.6056 45.2021 47.3343 45.2021 48.3271C45.2023 50.9218 46.8258 55.2588 50.2441 60.3477C51.6977 58.5557 53.2742 56.8352 54.8984 55.2109C56.5682 53.5397 58.2904 51.9876 60.0117 50.5576C59.3813 50.1214 58.7759 49.7331 58.1689 49.3682C57.053 50.3392 55.6469 50.874 54.1455 50.874C52.5206 50.8739 50.9924 50.2432 49.8545 49.1016C48.8608 48.1343 48.2785 46.8728 48.1094 45.5156H48.0117ZM83.0615 49.7822C85.7022 49.7822 87.8347 51.9156 87.835 54.5312C87.835 57.1736 85.7024 59.3057 83.0615 59.3057C80.4436 59.3054 78.3076 57.1742 78.3076 54.5312C78.3079 51.9158 80.4438 49.7825 83.0615 49.7822ZM54.1475 40.0146C52.8593 40.0146 51.6499 40.4988 50.7539 41.4189C49.8557 42.3148 49.3477 43.5282 49.3477 44.8125C49.3477 46.0734 49.8557 47.286 50.7539 48.207C51.6499 49.1022 52.86 49.5889 54.1475 49.5889C55.4303 49.5889 56.6431 49.1022 57.5391 48.207C59.4066 46.3165 59.4068 43.2859 57.5391 41.4189C56.6431 40.4987 55.4303 40.0147 54.1475 40.0146Z" fill="url(#paint0_linear_5027_3504)"/>
<defs>
<linearGradient id="paint0_linear_5027_3504" x1="64" y1="23" x2="64" y2="104.683" gradientUnits="userSpaceOnUse">
<stop stop-color="#0088FF"/>
<stop offset="1" stop-color="#006ECE"/>
</linearGradient>
</defs>
</svg>
