<svg width="128" height="128" viewBox="0 0 128 128" fill="none" xmlns="http://www.w3.org/2000/svg">
<g clip-path="url(#clip0_5027_9515)">
<path fill-rule="evenodd" clip-rule="evenodd" d="M65.0701 16.5285L64.9311 75.1659L64.8616 75.3048L56.4551 75.2354V40.9144L56.594 15H65.0006L65.0701 16.5285Z" fill="url(#paint0_linear_5027_9515)"/>
<path fill-rule="evenodd" clip-rule="evenodd" d="M28.1083 18.8213L28.1778 27.3668L27.9693 27.6447C24.8429 27.7142 21.786 27.4363 18.7985 27.7142L18.6596 34.5228L18.5901 75.166C15.8806 75.2355 12.9626 75.2355 10.253 75.166V28.0615L10.1141 27.9226L0.526446 27.7836C0.248543 25.0741 0.456972 22.0172 0.387497 19.0992L0.665395 18.8907L23.245 18.9602H28.1083V18.8213Z" fill="url(#paint1_linear_5027_9515)"/>
<path fill-rule="evenodd" clip-rule="evenodd" d="M81.6052 33.7587C83.2726 35.1482 84.3842 36.8156 85.3569 38.622C83.7589 40.2894 82.3694 42.1652 81.3968 44.2495C80.4241 42.2347 78.8262 40.4283 77.3672 38.622C78.0619 36.7461 79.5209 34.9398 81.1883 33.6892L81.6052 33.7587Z" fill="#ED2129"/>
<path fill-rule="evenodd" clip-rule="evenodd" d="M31.9296 37.7188L31.9991 65.4396C32.4159 67.0376 33.7359 68.4966 35.3339 68.9829C37.4182 69.8166 39.8498 69.2608 41.5172 68.0797C42.5593 67.385 43.0457 65.9954 43.2541 64.6754L43.4625 36.8852H51.7996L51.7301 66.4123C51.4522 70.3724 48.6037 73.2209 45.6163 75.3052C39.7803 77.3894 31.5127 77.8063 26.7884 73.0125C24.4957 70.9977 23.2451 68.4966 23.2451 65.3007V36.8852C25.8852 36.8157 28.8032 36.8157 31.5822 36.8157L31.9296 37.7188Z" fill="url(#paint2_linear_5027_9515)"/>
<path fill-rule="evenodd" clip-rule="evenodd" d="M79.7987 45.0138C81.6746 50.6413 78.0618 60.0205 86.121 61.549C82.6472 63.3554 77.7144 62.4522 74.4491 60.7153C67.7794 56.2688 69.9332 47.0286 69.3774 39.9421C69.2384 38.622 68.3352 37.5104 67.2236 36.8157C72.5733 36.8851 77.8534 40.081 79.7987 45.0138Z" fill="#ED2129"/>
<path fill-rule="evenodd" clip-rule="evenodd" d="M95.6389 36.8157C94.1105 37.6494 93.0683 39.5947 93.2073 41.54C92.8599 48.557 94.7358 56.1299 88.6914 60.1595C87.0934 60.6458 85.3566 60.09 84.0365 59.1174C80.9101 56.3383 82.3691 51.7529 82.0912 47.7233C82.508 42.9295 86.2597 39.3863 90.4283 37.7883C92.0957 37.302 93.7631 36.8851 95.6389 36.8157Z" fill="#ED2129"/>
<path fill-rule="evenodd" clip-rule="evenodd" d="M125.861 44.1104C128.64 50.5021 128.293 59.1171 126.904 65.9952C125.445 70.3027 123.291 74.9576 118.566 76.486C114.051 77.945 109.535 76.2081 106.547 72.9428L106.269 73.2207L106.2 87.4632C104.393 84.8926 100.989 84.0589 97.6543 84.3368V58.0055C97.7238 57.5192 97.7238 57.1023 97.6543 56.5465L97.7238 37.0239H106.269L106.408 40.2197C107.381 39.7334 108.215 38.4828 109.257 37.7881C112.105 35.287 116.899 35.287 120.095 37.1628C122.804 38.5523 124.68 41.4008 125.861 44.1104ZM110.299 44.7357C107.659 47.3757 106.617 51.1969 106.547 55.0875C106.756 60.1592 106.478 65.8562 110.716 68.9132C111.688 69.469 113.078 69.3995 114.19 69.1216C117.524 67.8016 118.497 64.1193 119.053 60.9235C119.609 55.6433 119.4 50.0158 116.691 45.8473C115.232 43.9714 112.105 43.2767 110.299 44.7357Z" fill="url(#paint3_linear_5027_9515)"/>
<path fill-rule="evenodd" clip-rule="evenodd" d="M79.1041 67.3848C80.1462 69.747 80.5631 72.4566 80.3547 75.3051C76.9504 75.583 73.1987 75.3051 69.5165 75.3051L69.3775 64.05C69.0301 62.7994 68.2659 61.6878 67.1543 60.7847C71.9481 60.5068 77.0198 62.9384 79.1041 67.3848Z" fill="url(#paint4_linear_5027_9515)"/>
<path fill-rule="evenodd" clip-rule="evenodd" d="M95.6394 60.854C93.833 62.174 92.9298 64.1193 93.2077 66.4815V75.3744C89.4561 75.6523 85.8433 75.3744 82.0222 75.3744C81.8137 70.7195 82.7169 65.9257 86.4686 63.0772C88.9697 61.2708 92.3046 60.7845 95.6394 60.854Z" fill="url(#paint5_linear_5027_9515)"/>
<path fill-rule="evenodd" clip-rule="evenodd" d="M88.9692 82.1136C88.8997 83.8505 88.8997 85.8653 88.9692 87.5327C89.664 87.8107 90.4977 87.6022 91.2619 87.6717C91.4009 88.9917 91.2619 90.2423 91.2619 91.6318L89.0387 91.7013C88.8997 96.6341 88.8303 101.497 88.8997 106.222L85.0786 106.291C84.8007 101.289 85.148 96.5646 84.8701 91.6318C84.3143 91.3539 83.0638 91.9097 83.2722 90.9371V87.6022C83.828 87.1854 85.0091 87.8801 85.0786 86.9769V81.8357C86.3986 81.5578 87.6492 81.8357 88.8997 81.7663L88.9692 82.1136Z" fill="url(#paint6_linear_5027_9515)"/>
<path fill-rule="evenodd" clip-rule="evenodd" d="M9.48927 87.2547C9.55875 88.2968 9.55875 89.4779 9.55875 90.5895C8.37767 90.3811 6.5713 90.1032 5.66811 91.0759C3.65332 93.438 3.7228 97.815 4.83441 100.663C5.11231 101.497 6.08498 102.122 6.84921 102.47C7.68292 102.609 8.65557 102.678 9.41981 102.4V105.805C7.89134 106.638 5.66812 106.569 4.07018 105.666C0.318499 103.581 -0.167833 98.7877 0.0405944 94.5497C0.318497 91.7706 1.29115 88.9221 3.58385 87.5326C5.25126 86.421 7.82186 86.6294 9.48927 87.2547Z" fill="url(#paint7_linear_5027_9515)"/>
<path fill-rule="evenodd" clip-rule="evenodd" d="M127.668 88.7832L126.07 91.2843C124.819 90.7285 123.499 89.478 122.11 90.3812C121.554 90.6591 121.484 91.4233 121.345 91.9791C122.04 95.8002 127.39 95.8697 127.946 99.8993C128.224 102.261 127.459 104.902 125.306 106.083C122.527 107.542 118.775 106.361 116.621 104.554C116.76 103.582 117.594 102.748 118.011 101.775C119.053 102.261 120.095 103.026 121.345 103.234C122.179 103.373 122.943 103.026 123.499 102.47C123.986 102.053 124.194 101.428 123.986 100.872C122.804 98.0235 119.47 97.3287 118.011 94.5497C117.316 92.8823 116.899 90.659 118.15 89.0611C119.192 87.6716 120.79 86.8379 122.735 86.8379C124.541 87.1158 126.348 87.5326 127.668 88.7832Z" fill="url(#paint8_linear_5027_9515)"/>
<path fill-rule="evenodd" clip-rule="evenodd" d="M40.197 89.4087C41.2392 87.8802 43.1845 86.8381 45.1993 86.9076C46.2414 86.9076 47.2141 87.1855 47.9088 87.7413C49.3678 89.2003 49.5068 91.4929 49.5762 93.5772V105.874L49.4373 105.944C48.1172 105.944 46.7277 106.083 45.5466 105.874L45.3382 92.674C45.1298 91.9098 44.574 91.0761 43.6708 90.8677C42.8371 90.7287 42.2118 91.1456 41.656 91.4929C40.6139 92.5351 40.4055 94.0636 40.2665 95.4531L40.197 105.874H36.2369C35.8895 101.289 36.3064 97.5373 36.0285 93.0214C35.959 92.2572 35.6116 91.4235 34.8474 91.0761C34.3611 90.7982 33.3884 90.7982 32.9021 91.0761C31.6515 91.8403 31.2347 93.2993 31.1652 94.8278L31.0957 105.805C29.7062 106.013 28.5946 105.944 27.2051 105.874V87.5328C28.4556 87.3244 29.9841 87.3939 31.0957 87.4634L31.2347 88.7139C32.8326 87.6718 34.9863 86.4212 37.2096 87.1855C38.4601 87.6718 39.4328 88.3665 40.197 89.4087Z" fill="url(#paint9_linear_5027_9515)"/>
<path fill-rule="evenodd" clip-rule="evenodd" d="M116.342 91.5625C114.744 91.8404 112.799 91.9794 112.243 93.8552C111.549 97.7458 112.035 102.47 111.826 106.361L107.727 106.43C107.449 99.969 107.658 94.411 107.727 87.8108L111.757 87.7413C112.104 88.2277 111.757 88.9224 112.035 89.3393C113.216 88.3666 114.605 87.255 116.273 87.4634L116.342 91.5625Z" fill="url(#paint10_linear_5027_9515)"/>
<path fill-rule="evenodd" clip-rule="evenodd" d="M72.0169 87.7411L72.1558 101.845C72.4337 102.539 73.059 103.026 73.8233 103.304C74.8654 103.373 76.0465 103.373 76.7412 102.609C77.5749 101.845 77.436 100.664 77.5055 99.6909V87.7411C78.9644 87.6716 80.0761 87.4632 81.6045 87.7411L81.5351 102.192C81.4656 103.859 80.0066 105.249 78.756 106.222C76.1854 107.055 72.9201 107.264 70.5579 105.874C69.0989 105.041 67.9873 103.373 67.9873 101.636V87.7411L68.0568 87.6021C69.3768 87.6021 70.7663 87.4632 72.0169 87.7411Z" fill="url(#paint11_linear_5027_9515)"/>
<path fill-rule="evenodd" clip-rule="evenodd" d="M24.5652 91.3539C25.8158 95.5224 25.8158 100.803 23.1062 104.276C21.4388 106.291 18.2429 106.847 15.7418 106.083C13.1017 105.318 11.6427 102.748 11.0175 100.247C10.3922 96.0782 10.4616 91.0065 13.5881 88.019C15.3249 86.6295 17.965 86.2127 20.1882 86.9769C22.203 87.5327 23.801 89.4085 24.5652 91.3539ZM16.2281 90.937C14.6302 94.0634 14.2828 99.2741 16.7145 102.192C17.2008 102.748 18.1734 102.748 18.8682 102.539C20.1882 101.706 20.6746 100.177 20.883 98.6488C21.0219 96.0087 21.2998 92.8129 19.5629 90.7286C18.7292 89.8254 16.9229 89.8254 16.2281 90.937Z" fill="url(#paint12_linear_5027_9515)"/>
<path fill-rule="evenodd" clip-rule="evenodd" d="M104.81 90.3117C105.991 92.3265 106.06 94.9666 105.921 97.4677L96.0559 97.5372L95.9169 97.6761C95.8475 99.8993 96.1948 102.123 98.0012 103.304C98.696 103.651 99.5297 103.373 100.224 103.165C101.267 102.47 101.961 101.15 102.1 99.8299L105.713 100.038C105.574 102.748 104.323 105.11 101.822 106.222C99.8076 107.194 97.098 106.916 95.2222 105.735C91.401 102.887 91.4705 97.1898 92.3042 92.8823C93.1379 90.3117 94.458 87.6716 97.3759 87.0463C100.294 86.7684 103.49 87.6716 104.81 90.3117ZM98.9044 90.2422C98.0707 90.3117 97.3065 90.798 96.8896 91.4928C96.4033 92.5349 95.7085 93.6465 96.1254 94.8276C97.7928 94.8971 99.9465 94.8971 101.822 94.8276C101.892 93.5771 101.614 92.4654 101.128 91.5623C100.641 90.7285 99.8771 90.1727 98.9044 90.2422Z" fill="url(#paint13_linear_5027_9515)"/>
<path fill-rule="evenodd" clip-rule="evenodd" d="M64.4443 89.5475C67.0844 93.7855 67.0844 100.733 64.2359 104.971C62.9158 106.569 60.7621 107.055 58.8168 106.708C57.7746 106.569 56.8714 105.874 55.9683 105.249C55.8293 107.75 55.7598 110.043 55.8293 112.405H51.9387V87.8106C51.8692 87.4632 52.2166 87.5327 52.4945 87.5327H55.8293C56.1072 87.8106 55.8988 88.4359 55.9683 88.9917C57.0104 88.4359 58.0525 87.2548 59.5115 86.9769C61.5958 86.7684 63.4022 87.88 64.4443 89.5475ZM58.6083 90.937C57.1494 91.6317 56.4546 93.2297 56.1767 94.7581C55.7598 97.7456 55.8293 101.15 58.261 102.956C59.0947 103.304 59.9978 102.887 60.5537 102.331C62.36 99.7604 62.1516 95.5224 61.1789 92.6739C60.6926 91.7012 59.7894 90.937 58.6083 90.937Z" fill="url(#paint14_linear_5027_9515)"/>
</g>
<defs>
<linearGradient id="paint0_linear_5027_9515" x1="60.7626" y1="15" x2="60.7626" y2="75.3048" gradientUnits="userSpaceOnUse">
<stop stop-color="#1E8455"/>
<stop offset="0.536458" stop-color="#7CBD9F"/>
<stop offset="0.567708" stop-color="#166943"/>
<stop offset="1" stop-color="#115536"/>
</linearGradient>
<linearGradient id="paint1_linear_5027_9515" x1="14.2774" y1="18.8213" x2="14.2774" y2="75.2181" gradientUnits="userSpaceOnUse">
<stop stop-color="#1E8455"/>
<stop offset="0.536458" stop-color="#7CBD9F"/>
<stop offset="0.567708" stop-color="#166943"/>
<stop offset="1" stop-color="#115536"/>
</linearGradient>
<linearGradient id="paint2_linear_5027_9515" x1="37.5224" y1="36.8157" x2="37.5224" y2="76.7873" gradientUnits="userSpaceOnUse">
<stop stop-color="#1E8455"/>
<stop offset="0.536458" stop-color="#7CBD9F"/>
<stop offset="0.567708" stop-color="#166943"/>
<stop offset="1" stop-color="#115536"/>
</linearGradient>
<linearGradient id="paint3_linear_5027_9515" x1="112.805" y1="35.8257" x2="112.805" y2="87.4632" gradientUnits="userSpaceOnUse">
<stop stop-color="#1E8455"/>
<stop offset="0.536458" stop-color="#7CBD9F"/>
<stop offset="0.567708" stop-color="#166943"/>
<stop offset="1" stop-color="#115536"/>
</linearGradient>
<linearGradient id="paint4_linear_5027_9515" x1="73.7805" y1="60.7632" x2="73.7805" y2="75.4286" gradientUnits="userSpaceOnUse">
<stop stop-color="#1E8455"/>
<stop offset="0.536458" stop-color="#7CBD9F"/>
<stop offset="0.567708" stop-color="#166943"/>
<stop offset="1" stop-color="#115536"/>
</linearGradient>
<linearGradient id="paint5_linear_5027_9515" x1="88.8168" y1="60.8477" x2="88.8168" y2="75.4979" gradientUnits="userSpaceOnUse">
<stop stop-color="#1E8455"/>
<stop offset="0.536458" stop-color="#7CBD9F"/>
<stop offset="0.567708" stop-color="#166943"/>
<stop offset="1" stop-color="#115536"/>
</linearGradient>
<linearGradient id="paint6_linear_5027_9515" x1="87.2863" y1="81.7095" x2="87.2863" y2="106.291" gradientUnits="userSpaceOnUse">
<stop stop-color="#1E8455"/>
<stop offset="0.536458" stop-color="#7CBD9F"/>
<stop offset="0.567708" stop-color="#166943"/>
<stop offset="1" stop-color="#115536"/>
</linearGradient>
<linearGradient id="paint7_linear_5027_9515" x1="4.77938" y1="86.7421" x2="4.77938" y2="106.389" gradientUnits="userSpaceOnUse">
<stop stop-color="#1E8455"/>
<stop offset="0.536458" stop-color="#7CBD9F"/>
<stop offset="0.567708" stop-color="#166943"/>
<stop offset="1" stop-color="#115536"/>
</linearGradient>
<linearGradient id="paint8_linear_5027_9515" x1="122.311" y1="86.8379" x2="122.311" y2="106.738" gradientUnits="userSpaceOnUse">
<stop stop-color="#1E8455"/>
<stop offset="0.536458" stop-color="#7CBD9F"/>
<stop offset="0.567708" stop-color="#166943"/>
<stop offset="1" stop-color="#115536"/>
</linearGradient>
<linearGradient id="paint9_linear_5027_9515" x1="38.3907" y1="86.9043" x2="38.3907" y2="105.989" gradientUnits="userSpaceOnUse">
<stop stop-color="#1E8455"/>
<stop offset="0.536458" stop-color="#7CBD9F"/>
<stop offset="0.567708" stop-color="#166943"/>
<stop offset="1" stop-color="#115536"/>
</linearGradient>
<linearGradient id="paint10_linear_5027_9515" x1="111.965" y1="87.438" x2="111.965" y2="106.43" gradientUnits="userSpaceOnUse">
<stop stop-color="#1E8455"/>
<stop offset="0.536458" stop-color="#7CBD9F"/>
<stop offset="0.567708" stop-color="#166943"/>
<stop offset="1" stop-color="#115536"/>
</linearGradient>
<linearGradient id="paint11_linear_5027_9515" x1="74.7959" y1="87.5674" x2="74.7959" y2="106.882" gradientUnits="userSpaceOnUse">
<stop stop-color="#1E8455"/>
<stop offset="0.536458" stop-color="#7CBD9F"/>
<stop offset="0.567708" stop-color="#166943"/>
<stop offset="1" stop-color="#115536"/>
</linearGradient>
<linearGradient id="paint12_linear_5027_9515" x1="18.0392" y1="86.5986" x2="18.0392" y2="106.411" gradientUnits="userSpaceOnUse">
<stop stop-color="#1E8455"/>
<stop offset="0.536458" stop-color="#7CBD9F"/>
<stop offset="0.567708" stop-color="#166943"/>
<stop offset="1" stop-color="#115536"/>
</linearGradient>
<linearGradient id="paint13_linear_5027_9515" x1="98.9071" y1="86.9982" x2="98.9071" y2="106.811" gradientUnits="userSpaceOnUse">
<stop stop-color="#1E8455"/>
<stop offset="0.536458" stop-color="#7CBD9F"/>
<stop offset="0.567708" stop-color="#166943"/>
<stop offset="1" stop-color="#115536"/>
</linearGradient>
<linearGradient id="paint14_linear_5027_9515" x1="59.1644" y1="86.9518" x2="59.1644" y2="112.405" gradientUnits="userSpaceOnUse">
<stop stop-color="#1E8455"/>
<stop offset="0.536458" stop-color="#7CBD9F"/>
<stop offset="0.567708" stop-color="#166943"/>
<stop offset="1" stop-color="#115536"/>
</linearGradient>
<clipPath id="clip0_5027_9515">
<rect width="128" height="128" fill="white"/>
</clipPath>
</defs>
</svg>
