<svg width="128" height="128" viewBox="0 0 128 128" fill="none" xmlns="http://www.w3.org/2000/svg">
<path d="M65.6881 81.0127C64.6561 81.0127 63.5177 81.0161 62.3 81.0333L63.9997 78.2325L65.6881 81.0127ZM127.999 95.808C128.019 94.5965 127.529 93.4991 126.706 92.5069L93.1623 36.198V32H87.0372V35.9655L63.9997 74.1558L40.9614 35.9655V32H34.8387V36.2003L1.29484 92.5069C0.471715 93.4991 -0.0175172 94.5965 0.00047989 95.808H11.0307C11.0307 95.808 9.60561 92.99 16.7247 90.2171C16.7329 90.2102 18.3805 85.1732 18.3805 85.1732C18.3805 85.1732 11.5014 86.3951 6.16204 89.0189L32.2589 44.9596L17.5569 89.9353L20.4743 88.8318L34.8387 44.4643V82.5192C31.2894 82.9491 27.2469 83.5222 22.7476 84.2932L21.4589 88.5737C21.4589 88.5737 42.5408 84.2568 53.1784 84.6163L52.2407 81.2783C52.2407 81.2783 48.2501 81.2168 40.9614 81.8703V43.8234L54.1441 84.5485L56.6628 84.4395L43.8921 45.1168L62.7664 76.1994L59.8169 81.0865C58.6988 81.1174 57.5408 81.1542 56.3615 81.205L57.4058 84.4378C57.4058 84.4378 64.2749 84.0077 70.4062 84.5065C70.4484 84.5133 71.4955 81.0989 71.4955 81.0989C71.4955 81.0989 70.2243 81.055 68.1509 81.0275L65.2368 76.1996L84.0909 45.1393L71.2767 84.5226L73.8578 84.5961L87.0372 43.8266V81.8706C79.7485 81.217 75.7545 81.2786 75.7545 81.2786L74.8248 84.6165C85.4596 84.2571 106.575 88.574 106.575 88.574L105.251 84.2935C100.75 83.5225 96.7139 82.9476 93.1623 82.5195V44.4646L107.525 88.8321L110.427 89.8763L95.7505 44.9618L121.84 89.0154C116.499 86.3954 109.614 85.1735 109.614 85.1735C109.614 85.1735 111.267 90.2102 111.275 90.2174C118.395 92.9903 116.969 95.8082 116.969 95.8082H127.999" fill="url(#paint0_linear_5027_3473)"/>
<defs>
<linearGradient id="paint0_linear_5027_3473" x1="64" y1="32" x2="64" y2="95.8082" gradientUnits="userSpaceOnUse">
<stop stop-color="#565AF3"/>
<stop offset="1" stop-color="#3538AB"/>
</linearGradient>
</defs>
</svg>
