<svg width="128" height="128" viewBox="0 0 128 128" fill="none" xmlns="http://www.w3.org/2000/svg">
<g clip-path="url(#clip0_5027_7942)">
<path d="M123.626 45.376C120.584 42.9551 118.099 41.0208 115.66 39.0278C108.415 33.1016 100.057 31.3021 91.1936 33.5764C83.5031 35.5518 81.4808 42.9669 85.8067 48.1955C87.999 50.8391 91.7388 52.4159 95.0448 53.8638C100.185 56.1146 105.619 57.6973 110.824 59.8192C126.715 66.3023 131.346 80.5579 125.684 94.8311C122.425 103.037 115.191 107.076 106.838 109.28C95.9533 112.152 85.5664 110.681 75.4785 106.103C73.9954 105.429 72.5769 104.573 71.217 103.671C69.224 102.346 68.0986 100.728 68.2686 97.9964C68.5793 93.0433 68.3565 88.055 68.3565 82.4629C71.8208 85.1359 74.8747 87.5333 77.9638 89.878C83.5148 94.0925 89.7986 96.4138 96.7505 96.0738C100.039 95.9155 103.368 94.9542 106.51 93.8698C110.842 92.3692 112.243 88.4946 112.395 84.409C112.542 80.4641 111.006 76.8943 107.173 75.1475C101.979 72.7794 96.6509 70.7044 91.3461 68.5883C85.6133 66.2964 79.904 63.8814 75.3261 59.661C72.0552 56.6422 69.863 52.7324 68.7375 48.3713C67.0083 41.6714 68.3506 35.4405 72.1138 29.7488C76.1584 23.6292 82.0787 20.1356 89.1479 18.8577C97.536 17.3454 105.942 17.7264 113.943 20.8566C117.132 22.1051 119.975 24.2857 122.888 26.179C123.374 26.4955 123.597 27.5155 123.603 28.2189C123.662 33.682 123.632 39.1392 123.632 45.3936L123.626 45.376Z" fill="url(#paint0_linear_5027_7942)"/>
<path d="M18.3568 95.6635C30.0743 95.6635 41.3991 95.7045 52.7239 95.6283C55.0275 95.6107 56.323 95.7866 55.7954 98.7467C55.3558 101.203 55.5727 103.823 55.854 106.332C56.0299 107.903 55.6782 108.483 54.16 108.477C36.2877 108.442 18.4154 108.413 0.543145 108.377C0.466943 108.377 0.396603 108.266 0.0214546 107.955C0.0214546 104.433 -0.0547473 100.652 0.0800715 96.871C0.10938 96.0269 0.754166 95.1007 1.33447 94.3915C11.9617 81.4137 22.6183 68.4652 33.269 55.505C33.9724 54.6492 34.623 53.7465 35.7016 52.3397H1.58653V39.6667H54.2479C54.2479 43.811 54.3359 47.8614 54.1776 51.906C54.1483 52.7325 53.2808 53.5824 52.6653 54.3151C41.4519 67.7208 30.215 81.1147 18.9899 94.5146C18.8199 94.7197 18.7202 94.9952 18.3627 95.6576L18.3568 95.6635Z" fill="url(#paint1_linear_5027_7942)"/>
</g>
<defs>
<linearGradient id="paint0_linear_5027_7942" x1="97.9962" y1="18" x2="97.9962" y2="110.753" gradientUnits="userSpaceOnUse">
<stop stop-color="#3DA4FF"/>
<stop offset="1" stop-color="#0A72CE"/>
</linearGradient>
<linearGradient id="paint1_linear_5027_7942" x1="27.9563" y1="39.6667" x2="27.9563" y2="108.477" gradientUnits="userSpaceOnUse">
<stop stop-color="#59E7FF"/>
<stop offset="1" stop-color="#1FC3DF"/>
</linearGradient>
<clipPath id="clip0_5027_7942">
<rect width="128" height="128" fill="white"/>
</clipPath>
</defs>
</svg>
