<svg width="128" height="128" viewBox="0 0 128 128" fill="none" xmlns="http://www.w3.org/2000/svg">
<path fill-rule="evenodd" clip-rule="evenodd" d="M64.0757 83.9065H124.145C124.145 83.9065 127.99 83.9065 127.99 80.2088V49.0243C128.028 48.5015 127.955 47.9766 127.778 47.4835C127.6 46.9903 127.321 46.5398 126.959 46.1609C126.597 45.7819 126.16 45.483 125.675 45.2833C125.19 45.0836 124.669 44.9875 124.145 45.0013H64.0757V46.9294H120.139C120.139 46.9294 121.582 46.9294 121.582 48.2166V80.6897C121.591 81.0648 121.45 81.428 121.191 81.6994C120.932 81.9707 120.575 82.1281 120.2 82.1369H64.077V83.9051L64.0757 83.9065ZM3.84749 45.0027C3.33848 44.9924 2.83267 45.0853 2.36053 45.2758C1.88839 45.4662 1.45969 45.7503 1.10029 46.1109C0.740879 46.4714 0.458196 46.9011 0.269276 47.3738C0.0803558 47.8466 -0.0108909 48.3527 0.00103497 48.8616V80.2088C-0.0039216 80.7083 0.0932803 81.2036 0.286673 81.6642C0.480065 82.1248 0.765566 82.541 1.12565 82.8873C1.48573 83.2336 1.91279 83.5026 2.3806 83.6779C2.84842 83.8531 3.34713 83.9309 3.8461 83.9065H64.0743V82.1382H8.33061C8.07614 82.1434 7.82326 82.0969 7.58723 82.0017C7.3512 81.9065 7.13689 81.7644 6.95725 81.5841C6.7776 81.4038 6.63632 81.189 6.54194 80.9526C6.44756 80.7163 6.40202 80.4632 6.40808 80.2088V48.8616C6.40202 48.6072 6.44756 48.3542 6.54194 48.1178C6.63632 47.8814 6.7776 47.6666 6.95725 47.4863C7.13689 47.306 7.3512 47.1639 7.58723 47.0687C7.82326 46.9735 8.07614 46.927 8.33061 46.9322H64.0743V45.0013H3.84749V45.0027Z" fill="white"/>
<path fill-rule="evenodd" clip-rule="evenodd" d="M36.3634 49.9858H15.7007C15.7007 49.9858 11.8556 49.9858 11.8556 53.6835V75.7071C11.8509 76.2066 11.9482 76.7018 12.1417 77.1623C12.3351 77.6228 12.6206 78.039 12.9807 78.3852C13.3407 78.7314 13.7677 79.0005 14.2354 79.1758C14.7032 79.3511 15.2018 79.4291 15.7007 79.4048H36.3634V76.8345H19.543C19.3573 76.8382 19.1727 76.8052 18.9998 76.7376C18.8269 76.6699 18.669 76.5688 18.5351 76.4401C18.4012 76.3114 18.294 76.1576 18.2196 75.9875C18.1452 75.8173 18.105 75.6342 18.1014 75.4485V65.7413H36.3634V63.1696H18.1V54.1645C18.0958 53.9788 18.1282 53.7941 18.1953 53.621C18.2625 53.4478 18.3631 53.2896 18.4914 53.1553C18.6197 53.0211 18.7732 52.9134 18.9432 52.8385C19.1131 52.7636 19.2961 52.7229 19.4818 52.7187H36.3634V49.9844V49.9858ZM40.3697 49.9858H46.6155V75.386C46.6177 75.5791 46.6579 75.7698 46.7338 75.9473C46.8098 76.1249 46.92 76.2857 47.0581 76.4206C47.1963 76.5555 47.3596 76.6619 47.5389 76.7336C47.7182 76.8053 47.9098 76.841 48.1029 76.8386C48.1404 76.8373 48.1794 76.8359 48.2169 76.8317H62.1528V79.4034H44.2134C44.2134 79.4034 40.3683 79.4034 40.3683 75.7057V49.9858H40.3697ZM88.743 49.9858H68.0817C68.0817 49.9858 64.2352 49.9858 64.2352 52.8786V62.0422C64.224 62.53 64.3117 63.0149 64.4929 63.4678C64.674 63.9207 64.945 64.3323 65.2894 64.6778C65.6339 65.0233 66.0446 65.2955 66.497 65.478C66.9494 65.6605 67.4341 65.7497 67.9218 65.74H81.3767C82.4958 65.74 82.4958 66.7047 82.4958 67.1857V75.386C82.5105 75.5791 82.4833 75.7731 82.4162 75.9548C82.3491 76.1365 82.2436 76.3016 82.107 76.4388C81.9703 76.576 81.8056 76.6822 81.6242 76.75C81.4427 76.8178 81.2488 76.8456 81.0556 76.8317H64.2352V79.4034H84.7394C84.7394 79.4034 88.5845 79.4034 88.5845 75.7057V66.8646C88.5845 65.74 88.5845 63.007 84.7394 63.007H71.9226C71.9226 63.007 70.4824 63.007 70.4824 61.7211V54.1659C70.4824 54.1659 70.3225 52.88 71.9239 52.88H88.5831C88.743 52.88 88.5831 49.9858 88.743 49.9858ZM103.161 49.9858H112.292C112.292 49.9858 116.299 49.9858 116.299 53.6835V79.4034H110.689V65.7413H103.161V63.1696H110.689V54.1645C110.686 53.9618 110.642 53.7618 110.559 53.577C110.476 53.3923 110.355 53.2268 110.205 53.091C110.054 52.9552 109.877 52.852 109.685 52.7879C109.493 52.7239 109.289 52.7003 109.087 52.7187H103.161V49.9844V49.9858ZM95.631 79.4034H92.588V53.6835C92.5833 53.184 92.6806 52.6888 92.8741 52.2283C93.0675 51.7678 93.353 51.3516 93.7131 51.0054C94.0731 50.6591 94.5001 50.3901 94.9678 50.2148C95.4355 50.0394 95.9342 49.9615 96.4331 49.9858H103.156V52.716H97.0725C96.6974 52.7089 96.3349 52.8511 96.0646 53.1112C95.7942 53.3714 95.6383 53.7282 95.631 54.1033V63.1655H103.16V65.7372H95.631V79.402V79.4034Z" fill="white"/>
</svg>
