<svg width="128" height="128" viewBox="0 0 128 128" fill="none" xmlns="http://www.w3.org/2000/svg">
<path d="M128 48H0V80.3855H128V48Z" fill="#ED1A2D"/>
<path d="M5.61133 50.5137V66.5378H9.43462V58.2839L12.7856 66.7289H15.4394L18.5768 58.1265V66.7514H26.9431L27.7189 64.5811H32.8354L33.9262 66.7627H38.7503L32.0483 50.5361H28.5173L22.8161 64.2775V50.5249H17.2611L14.0676 59.5771L10.8402 50.5137H5.61133ZM30.1591 57.1257L31.5872 61.0165H28.731L30.1591 57.1257Z" fill="white"/>
<path d="M44.7778 49.794C39.9974 49.794 36.1191 53.661 36.1191 58.4414C36.1191 63.2218 39.9974 67.1 44.7778 67.1C49.5582 67.1 53.4252 63.2218 53.4252 58.4414C53.4252 58.1034 53.4065 57.7683 53.3689 57.4406L43.6083 57.4293V60.949H48.0614C47.3159 62.0135 46.0896 62.7144 44.6879 62.7144C42.4043 62.7144 40.5497 60.8711 40.5497 58.5875C40.5497 56.304 42.4043 54.4494 44.6879 54.4494C45.955 54.4494 47.0801 55.024 47.8365 55.9224H53.0429C51.9658 52.3734 48.6816 49.7939 44.7778 49.7939L44.7778 49.794Z" fill="white"/>
<path d="M53.2676 50.4912L53.3125 66.7177H57.6306V58.8575L63.3993 66.6952H71.1921L72.0354 64.6261H77.1519L78.2876 66.7402H83.2804L76.286 50.5812H72.9238L67.2901 64.6486V50.5137H63.017V58.6775L56.8547 50.4912H53.2676H53.2676ZM74.5993 56.9683L76.0837 60.9265H73.0138L74.5993 56.9683Z" fill="white"/>
<path d="M78.374 50.6089L83.9854 66.6935H88.1656L93.5044 50.6089H89.2788L86.3481 60.1052L83.1221 50.5635L78.374 50.6089Z" fill="white"/>
<path d="M100.406 50.1201C95.6684 50.1201 91.8262 53.9624 91.8262 58.7001C91.8262 63.4377 95.6684 67.28 100.406 67.28C105.144 67.28 108.975 63.4377 108.975 58.7001C108.975 53.9624 105.144 50.1201 100.406 50.1201ZM100.372 54.7755C102.626 54.7755 104.454 56.604 104.454 58.8575C104.454 61.111 102.626 62.9394 100.372 62.9394C98.1188 62.9394 96.2904 61.111 96.2904 58.8575C96.2904 56.604 98.1188 54.7755 100.372 54.7755Z" fill="white"/>
<path d="M105.772 50.5857H110.725L114.11 54.8795L116.745 50.5176H121.539L116.314 58.787L121.789 66.693H116.654L113.451 62.0812L110.543 66.7612H105.795L111.134 58.5371L105.772 50.5857Z" fill="white"/>
<path d="M9.01251 71.4287V72.1808C8.71981 72.0408 8.44368 71.9365 8.1841 71.8678C7.92449 71.7991 7.67377 71.7647 7.432 71.7647C7.01205 71.7647 6.68818 71.8461 6.46039 72.009C6.23262 72.1719 6.11872 72.4035 6.11872 72.7038C6.11872 72.9558 6.19437 73.146 6.34586 73.2746C6.49729 73.4031 6.78427 73.5068 7.20677 73.5857L7.67251 73.6811C8.2477 73.7906 8.67211 73.9834 8.94572 74.2595C9.21931 74.5356 9.35612 74.9053 9.35612 75.3685C9.35612 75.9208 9.17093 76.3395 8.80062 76.6245C8.43031 76.9096 7.88756 77.0522 7.17239 77.0522C6.90261 77.0522 6.61564 77.0216 6.31151 76.9606C6.00736 76.8995 5.69244 76.8092 5.36666 76.6895V75.8954C5.67971 76.0711 5.98638 76.2034 6.2867 76.2925C6.58701 76.3815 6.88225 76.4261 7.17239 76.4261C7.61269 76.4261 7.95249 76.3396 8.19172 76.1665C8.43096 75.9934 8.55057 75.7465 8.55058 75.4259C8.55057 75.1459 8.46473 74.927 8.29288 74.7692C8.12108 74.6114 7.83924 74.4931 7.44728 74.4142L6.9777 74.3226C6.4025 74.2081 5.9864 74.0286 5.72933 73.7843C5.47228 73.54 5.34375 73.2002 5.34375 72.765C5.34375 72.2611 5.52127 71.864 5.87631 71.5739C6.23136 71.2837 6.72063 71.1387 7.34418 71.1387C7.61143 71.1387 7.88374 71.1628 8.16116 71.2112C8.43857 71.2596 8.72236 71.3321 9.01251 71.4288V71.4287Z" fill="white"/>
<path d="M12.6152 71.2402H13.7643L15.2189 75.119L16.681 71.2402H17.8302V76.94H17.0781V71.935L15.6083 75.8443H14.8333L13.3635 71.935V76.94H12.6152V71.2402Z" fill="white"/>
<path d="M23.9687 71.9362L22.9227 74.7728H25.0186L23.9687 71.9362ZM23.5335 71.1765H24.4077L26.58 76.8763H25.7783L25.2591 75.4141H22.6898L22.1706 76.8763H21.3574L23.5335 71.1765Z" fill="white"/>
<path d="M32.8747 74.2677C33.0402 74.3236 33.2011 74.4433 33.3577 74.6265C33.5142 74.8098 33.6714 75.0617 33.8292 75.3824L34.6118 76.94H33.7833L33.0542 75.4778C32.8659 75.0961 32.6832 74.8428 32.5063 74.7181C32.3294 74.5934 32.0883 74.5311 31.7829 74.5311H30.943V76.94H30.1719V71.2402H31.9127C32.5642 71.2402 33.0504 71.3764 33.3711 71.6487C33.6918 71.9211 33.8521 72.3321 33.8521 72.8818C33.8521 73.2407 33.7687 73.5385 33.602 73.7752C33.4353 74.0119 33.1929 74.176 32.8747 74.2677ZM30.943 71.874V73.8973H31.9127C32.2843 73.8973 32.5649 73.8115 32.7545 73.6396C32.9441 73.4678 33.0389 73.2152 33.0389 72.8818C33.0389 72.5484 32.9441 72.2971 32.7545 72.1278C32.5649 71.9586 32.2843 71.874 31.9127 71.874H30.943Z" fill="white"/>
<path d="M36.874 71.2402H41.6957V71.8892H39.6723V76.94H38.8974V71.8892H36.874V71.2402Z" fill="white"/>
<path d="M44.1045 75.9053H44.9438V76.9156H44.1045V75.9053Z" fill="white"/>
<path d="M88.6717 71.4864V72.2384C88.379 72.0985 88.1029 71.9941 87.8433 71.9254C87.5837 71.8567 87.333 71.8223 87.0912 71.8223C86.6713 71.8223 86.3474 71.9037 86.1196 72.0666C85.8918 72.2295 85.778 72.4611 85.778 72.7615C85.778 73.0134 85.8536 73.2037 86.0051 73.3322C86.1565 73.4607 86.4435 73.5644 86.866 73.6433L87.3317 73.7387C87.9069 73.8482 88.3313 74.041 88.6049 74.3171C88.8785 74.5933 89.0153 74.963 89.0153 75.4262C89.0153 75.9785 88.8302 76.3971 88.4599 76.6822C88.0895 76.9672 87.5468 77.1098 86.8316 77.1098C86.5619 77.1098 86.2749 77.0792 85.9708 77.0182C85.6666 76.9571 85.3516 76.8668 85.0259 76.7471V75.9531C85.3389 76.1287 85.6456 76.261 85.9459 76.3501C86.2462 76.4392 86.5415 76.4837 86.8316 76.4837C87.2719 76.4837 87.6117 76.3973 87.8509 76.2241C88.0902 76.051 88.2098 75.8042 88.2098 75.4835C88.2098 75.2035 88.1239 74.9846 87.9521 74.8269C87.7803 74.6691 87.4984 74.5507 87.1065 74.4718L86.6369 74.3802C86.0617 74.2657 85.6456 74.0863 85.3885 73.8419C85.1315 73.5976 85.0029 73.2578 85.0029 72.8226C85.0029 72.3187 85.1805 71.9216 85.5355 71.6315C85.8906 71.3414 86.3798 71.1963 87.0034 71.1963C87.2706 71.1963 87.543 71.2205 87.8204 71.2689C88.0978 71.3172 88.3816 71.3897 88.6717 71.4864V71.4864Z" fill="white"/>
<path d="M92.2744 71.2986H93.4235L94.8781 75.1773L96.3402 71.2986H97.4893V76.9984H96.7373V71.9934L95.2675 75.9027H94.4925L93.0227 71.9934V76.9984H92.2744V71.2986Z" fill="white"/>
<path d="M103.628 71.9941L102.582 74.8306H104.678L103.628 71.9941ZM103.193 71.2344H104.067L106.239 76.9342H105.437L104.918 75.472H102.349L101.83 76.9342H101.017L103.193 71.2344Z" fill="white"/>
<path d="M112.534 74.3262C112.699 74.3822 112.86 74.5019 113.017 74.6851C113.173 74.8684 113.331 75.1203 113.488 75.441L114.271 76.9986H113.443L112.713 75.5364C112.525 75.1547 112.342 74.9014 112.166 74.7767C111.989 74.652 111.747 74.5897 111.442 74.5897H110.602V76.9986H109.831V71.2988H111.572C112.223 71.2988 112.71 71.435 113.03 71.7073C113.351 71.9796 113.511 72.3907 113.511 72.9404C113.511 73.2993 113.428 73.5971 113.261 73.8338C113.094 74.0704 112.852 74.2346 112.534 74.3262ZM110.602 71.9326V73.9559H111.572C111.943 73.9559 112.224 73.8701 112.414 73.6982C112.603 73.5265 112.698 73.2738 112.698 72.9404C112.698 72.607 112.603 72.3557 112.414 72.1864C112.224 72.0172 111.943 71.9326 111.572 71.9326H110.602Z" fill="white"/>
<path d="M116.533 71.2988H121.355V71.9478H119.332V76.9986H118.557V71.9478H116.533V71.2988Z" fill="white"/>
<path d="M123.128 75.9639H123.967V76.9742H123.128V75.9639Z" fill="white"/>
<path d="M53.4101 77.108L51.124 71.1201H51.9703L53.8673 76.1615L55.7684 71.1201H56.6106L54.3286 77.108H53.4101Z" fill="white"/>
<path d="M59.6016 71.1201H63.3876V71.8019H60.4117V73.5746H63.2633V74.2564H60.4117V76.4262H63.4598V77.108H59.6016V71.1201Z" fill="white"/>
<path d="M69.4372 74.3006C69.611 74.3594 69.7801 74.4851 69.9445 74.6776C70.109 74.8701 70.2741 75.1348 70.4399 75.4717L71.2621 77.108H70.3917L69.6257 75.5719C69.4278 75.1709 69.236 74.9048 69.0502 74.7738C68.8643 74.6428 68.611 74.5773 68.2901 74.5773H67.4078V77.108H66.5977V71.1201H68.4265C69.111 71.1201 69.6217 71.2631 69.9586 71.5492C70.2955 71.8353 70.4639 72.2671 70.4639 72.8447C70.4639 73.2217 70.3763 73.5345 70.2012 73.7832C70.0261 74.0318 69.7714 74.2043 69.4372 74.3006ZM67.4078 71.7859V73.9115H68.4265C68.8169 73.9115 69.1117 73.8212 69.3109 73.6408C69.5101 73.4603 69.6097 73.1949 69.6097 72.8447C69.6097 72.4944 69.5101 72.2304 69.3109 72.0526C69.1117 71.8748 68.8169 71.7859 68.4265 71.7859H67.4078Z" fill="white"/>
<path d="M73.0293 71.1201H73.8996L75.56 73.5826L77.2084 71.1201H78.0787L75.9611 74.2564V77.108H75.1469V74.2564L73.0293 71.1201Z" fill="white"/>
</svg>
