<svg width="128" height="128" viewBox="0 0 128 128" fill="none" xmlns="http://www.w3.org/2000/svg">
<path d="M23.0948 96.6598C14.5382 94.9211 7.45176 88.8408 6.19876 82.1628C5.20235 76.8515 7.59216 74.6814 14.4379 74.6814C19.1561 74.6814 20.2447 75.0934 23.5329 78.1238L27.2682 81.5662L31.485 77.4482C35.3665 73.6577 35.9092 73.4247 38.3099 74.5185C39.7444 75.1721 41.3343 75.4496 41.8431 75.1351C43.6058 74.0457 42.8625 66.0711 40.7477 63.3821C39.0243 61.1912 38.1787 60.8982 34.9977 61.3898C32.9465 61.7068 29.4682 62.8732 27.2682 63.9817C24.8142 65.2182 20.4633 66.1803 16.0112 66.4711L8.75376 66.945L5.28876 63.271C1.00076 58.7244 -0.892943 52.984 0.400657 48.454C2.11516 42.4501 8.80586 44.1859 10.5977 51.0994C11.1077 53.0678 12.0053 54.1506 13.0826 54.0974C14.0101 54.0516 17.0075 53.9391 19.7434 53.8474C24.1267 53.7006 24.8934 53.3411 26.1962 50.8216C27.0093 49.2491 29.0459 47.3945 30.7219 46.7003C33.0063 45.7541 33.7779 44.7801 33.8045 42.8094C33.9138 34.6985 44.6575 28.0184 50.5865 32.3754C52.9484 34.111 53.6283 34.1928 56.2694 33.059C61.6835 30.7346 67.3404 31.3258 71.0034 34.5988C73.8379 37.1315 74.2692 38.1548 74.2692 42.3488C74.2692 46.1271 73.6454 47.9962 71.4089 50.9199C68.3761 54.8844 68.4728 55.0666 74.0915 55.9749C76.3715 56.3434 77.0899 55.9678 77.8308 54.0191C78.9575 51.0557 88.1848 41.6811 89.9748 41.6811C90.6902 41.6811 92.5409 40.3406 94.0873 38.7022C101.478 30.8715 117.69 33.5044 124.524 43.6454C127.735 48.4096 128.202 51.0654 126.743 56.2735C123.617 67.4395 111.974 71.3705 97.2735 66.2232C93.4256 64.876 89.9768 64.0904 89.6095 64.4776C89.2421 64.8647 88.7904 66.5314 88.6056 68.1814C88.2894 71.0041 88.4946 71.2 92.0754 71.4952C96.3823 71.8501 97.576 73.616 95.9387 77.2096C95.2504 78.7201 95.2017 79.8306 95.8072 80.2048C97.2949 81.1242 96.9448 85.9861 95.2128 88.459C92.2439 92.6978 82.9788 90.924 76.5198 84.8802C73.809 82.3439 73.7698 82.3385 73.7698 84.4944C73.7698 85.6973 73.3101 86.6815 72.7484 86.6815C72.1866 86.6815 71.2183 87.7979 70.5966 89.1623C69.3377 91.9253 66.0936 93.4053 64.5906 91.9023C64.0472 91.3589 60.8318 91.1477 57.3535 91.4269C49.4963 92.0576 44.1585 89.8564 42.2045 85.1796C41.4789 83.4431 40.19 81.4453 39.3403 80.74C37.2987 79.0456 34.7698 80.1025 34.7698 82.6501C34.7698 83.7674 34.3198 84.6815 33.7698 84.6815C32.253 84.6815 32.5692 87.1684 34.5198 90.5813C37.8065 96.3319 33.2954 98.7324 23.0958 96.6599L23.0948 96.6598ZM70.3508 73.5478C70.5788 71.1464 71.3791 68.7274 72.1291 68.1722C72.9952 67.5311 73.3187 65.9768 73.0157 63.9124C72.4685 60.1843 69.918 59.0711 64.0903 60.0168C59.2379 60.8042 59.0134 61.2726 61.9692 64.442C65.3186 68.0335 66.3851 70.2694 67.2565 75.527C68.138 80.846 69.756 79.8114 70.3508 73.5478ZM116.019 61.9758C113.657 61.521 112.866 59.6926 115.019 59.6662C115.924 59.6551 115.889 59.4101 114.891 58.778C112.719 57.4026 114.572 55.6701 118.078 55.7975C119.833 55.8613 120.506 56.1145 119.574 56.3602C117.47 56.9149 118.34 59.6756 120.626 59.6969C122.052 59.7101 122.071 59.8401 120.769 60.6815C119.826 61.2905 119.72 61.6566 120.484 61.6662C122.542 61.6922 123.994 57.6983 123.291 53.9478C122.24 48.348 118.038 39.6818 116.373 39.6818C114.501 39.6818 104.769 41.7414 104.769 42.1375C104.769 42.297 105.656 44.4328 106.74 46.8837C107.824 49.3346 109.011 53.8918 109.378 57.0107L110.044 62.6817L114.157 62.5456C116.448 62.4697 117.272 62.2172 116.019 61.9758ZM112.175 53.5298C111.31 52.1304 114.423 49.6815 117.067 49.6815C118.359 49.6815 118.795 50.1698 118.407 51.1815C118.09 52.0065 118.267 52.6815 118.8 52.6815C119.333 52.6815 119.769 53.1315 119.769 53.6815C119.769 55.0746 113.047 54.9403 112.175 53.5298ZM111.769 48.8983C111.769 47.7798 116.696 46.2758 117.553 47.1328C118.35 47.9292 117.616 48.4307 114.517 49.2086C112.892 49.6165 111.769 49.4897 111.769 48.8983ZM110.769 45.6815C110.769 45.1315 111.637 44.6815 112.699 44.6815C113.917 44.6815 114.776 43.851 115.026 42.4315C115.42 40.1904 115.426 40.1914 116.471 42.6815C117.376 44.8399 117.229 45.2704 115.394 45.8318C112.147 46.8254 110.769 46.7807 110.769 45.6815ZM33.4197 55.2135C33.1099 54.4061 33.2867 53.4796 33.8127 53.1545C34.3387 52.8294 34.7976 53.3775 34.8324 54.3725C34.8835 55.8293 35.0719 55.7435 35.8002 53.9315C36.2976 52.694 36.3493 50.7211 35.9151 49.5472C35.1398 47.4514 35.0862 47.4628 32.9473 50.1821C30.3791 53.447 30.0948 56.6816 32.376 56.6816C33.378 56.6816 33.7709 56.1289 33.4197 55.2135ZM28.307 53.7429C27.988 53.2267 28.2989 52.4392 28.998 51.9929C29.6971 51.5466 30.944 50.3203 31.769 49.2677C33.1831 47.4635 33.1415 47.4219 31.0419 48.5406C27.8897 50.2202 25.5548 54.6814 27.828 54.6814C28.4105 54.6814 28.626 54.2591 28.307 53.7429Z" fill="#F2E69E"/>
<path d="M23.4974 96.6662C17.536 95.6357 13.2944 93.189 9.64843 88.6776C3.50323 81.0736 5.50053 74.6776 14.0182 74.6856C18.5451 74.6896 23.8976 77.315 25.8932 80.5101C27.0064 82.2926 27.248 82.2052 30.0588 79.0039C34.3967 74.0633 36.4046 73.2135 39.2833 75.0997C41.9794 76.8662 42.3362 76.5555 43.217 71.6743C43.6673 69.1792 43.2977 67.1825 41.9229 64.6819C40.0843 61.3379 39.7859 61.1974 35.2258 61.5301C32.6008 61.7216 28.7549 62.7634 26.6794 63.8453C21.8066 66.3851 12.7714 67.3401 8.87743 65.727C5.37353 64.2756 1.07043 58.4408 0.164929 53.913C-0.200541 52.0857 0.0594288 49.3942 0.766219 47.6878C3.05062 42.1727 9.00052 44.5909 10.4032 51.6045C11.0318 54.7472 11.2243 54.869 14.6651 54.2999C16.6471 53.9721 19.9074 53.6989 21.9103 53.6928C24.9674 53.6836 25.6538 53.276 26.1866 51.1531C26.579 49.5896 28.1472 47.9921 30.295 46.9679C33.0109 45.6728 33.7687 44.714 33.7687 42.5733C33.7687 39.3654 37.7592 34.2552 41.9608 32.0823C45.3906 30.3087 50.2893 31.0027 51.6627 33.4568C52.4906 34.9362 52.9188 34.9177 56.6341 33.2424C64.9517 29.4917 73.3921 33.3049 74.4221 41.2791C74.8377 44.4949 74.363 46.0252 71.7243 49.9753C69.9631 52.6118 68.6901 54.9106 68.8953 55.0838C69.1005 55.257 70.9765 55.6624 73.0642 55.9848C76.4472 56.5071 76.9633 56.2992 77.8099 54.0726C78.8291 51.392 87.1666 42.6816 88.7129 42.6816C89.2263 42.6816 91.726 40.8816 94.2679 38.6816C98.6788 34.864 99.1946 34.6829 105.579 34.7098C113.893 34.7448 120.101 37.6324 123.957 43.2585C127.51 48.442 128.049 50.9228 126.707 55.9085C123.947 66.1565 111.577 71.3785 100.268 67.0695C93.3415 64.4306 89.6706 63.7461 89.2846 65.0217C87.3805 71.323 87.5147 71.6813 91.7795 71.6813C96.3137 71.6813 97.8904 73.653 95.9021 76.8368C95.0364 78.223 95.0121 79.2704 95.8109 80.763C97.2426 83.4381 96.089 88.4387 93.7516 89.6896C89.2959 92.0742 79.7656 89.0367 75.7706 83.9591C73.8914 81.5701 73.7667 81.541 73.7667 83.4908C73.7667 84.6344 72.2398 87.2367 70.3737 89.2737C67.7638 92.1225 66.5521 92.7906 65.1237 92.1679C64.1024 91.7226 59.7434 91.3185 55.4371 91.2698C47.865 91.1842 47.5196 91.0745 44.9371 87.9343C36.5487 77.7343 36.8875 78.0136 35.331 80.0284C34.5462 81.0444 34.124 82.4488 34.3928 83.1494C34.6617 83.85 34.1631 84.6989 33.2849 85.0359C31.881 85.5746 31.9646 86.1309 33.9775 89.6426C37.8449 96.3898 34.5749 98.5808 23.4955 96.6658L23.4974 96.6662ZM33.7684 94.132C33.7684 93.2797 33.0568 91.2062 32.187 89.5243C31.2509 87.7141 30.8606 85.4502 31.2306 83.9761C31.6796 82.1874 31.4912 81.6103 30.562 81.9275C29.8505 82.1704 29.317 83.5644 29.3764 85.0254C29.5017 88.1062 28.1851 88.5701 27.2931 85.7595C26.2325 82.4178 19.0341 76.6739 16.0151 76.7607C14.5042 76.8042 13.8464 77.072 14.5533 77.3558C15.2603 77.6397 17.3799 80.9324 19.2636 84.673C21.1473 88.4136 23.8921 92.4208 25.3631 93.5779C28.5583 96.0912 33.7684 96.4347 33.7684 94.132ZM18.6004 86.6277C14.0939 78.8114 10.2259 75.3477 8.69863 77.7608C7.28183 79.9993 7.58963 81.7005 10.2253 86.198C12.5963 90.2437 17.4457 93.6118 20.9683 93.659C22.3389 93.6774 21.8806 92.3171 18.6004 86.6277ZM94.0194 87.3524C94.4432 86.7085 94.6727 84.8317 94.5294 83.1817C94.3128 80.6866 93.8735 80.2248 91.9191 80.4376C90.6267 80.5784 88.4286 81.5908 87.0342 82.6876C85.6399 83.7844 83.5698 84.6817 82.434 84.6817C79.9853 84.6817 80.9558 85.8648 85.2689 88.1377C88.4087 89.7923 92.6649 89.4104 94.0194 87.3524ZM66.7684 85.1817C66.7684 84.3567 66.5916 83.6817 66.3754 83.6817C66.1593 83.6817 65.7234 84.3567 65.4068 85.1817C65.0902 86.0067 65.2671 86.6817 65.7998 86.6817C66.3325 86.6817 66.7684 86.0067 66.7684 85.1817ZM78.2314 79.2261C77.4266 76.5519 76.7681 73.2791 76.7681 71.9532C76.7681 70.0253 76.3176 69.6066 74.5181 69.8621C72.6804 70.1231 72.2088 70.9146 71.9443 74.1817C71.7662 76.3817 70.8841 78.9967 69.9841 79.9927C68.5666 81.5615 68.543 81.9264 69.808 82.7211C70.9234 83.4218 71.4795 82.9352 72.1629 80.6601C72.9807 77.9375 74.7682 76.4876 74.7682 78.5469C74.7682 79.6317 78.8712 84.9121 79.3455 84.4378C79.5376 84.2457 79.0363 81.9004 78.2314 79.2261ZM72.7681 72.6503C72.7681 72.1176 73.4431 71.6817 74.2681 71.6817C76.1888 71.6817 76.1888 72.3063 74.2681 73.0433C73.4431 73.3599 72.7681 73.1831 72.7681 72.6503ZM86.5841 81.3821C87.9963 80.2501 91.1287 74.666 90.5919 74.2372C90.4139 74.095 88.8016 73.4838 87.0091 72.879C83.8408 71.81 83.7827 71.8407 84.9228 73.9805C85.9592 75.9257 85.9136 76.0315 84.53 74.8906C83.6689 74.1806 82.6596 72.385 82.287 70.9006C81.6468 68.3501 80.1954 66.7312 78.5182 66.6969C77.3998 66.6741 77.5958 69.029 79.3572 76.7729C80.815 83.1824 81.1247 83.7048 83.1072 83.0979C84.2957 82.7341 85.8603 81.9622 86.5841 81.3821ZM70.7681 72.3969C70.7681 69.3218 71.1967 68.3823 72.7892 67.9659C74.1445 67.6115 74.5055 67.0659 73.885 66.3095C73.3761 65.6892 72.8041 64.0566 72.6139 62.6816C72.2852 60.3054 71.958 60.1864 66.0039 60.2791C62.5586 60.3328 59.5152 60.6011 59.2409 60.8755C58.9666 61.1498 60.305 63.0314 62.2152 65.0569C64.3365 67.3061 65.9324 70.1878 66.3155 72.4606C66.6605 74.5072 67.1855 77.0533 67.4821 78.1186C68.0083 80.0081 68.0552 80.0095 69.3948 78.1774C70.1501 77.1445 70.7681 74.5433 70.7681 72.3969ZM94.7681 74.4433C94.7681 72.6786 92.456 74.293 91.5759 76.6723C90.7072 79.0207 90.7261 79.0297 92.7304 77.2158C93.8512 76.2015 94.7681 74.9539 94.7681 74.4433ZM115.768 65.1283C119.22 63.7464 119.187 63.7355 113.366 64.3386C107.58 64.9381 107.476 64.9052 108.066 62.6501C108.776 59.9361 106.655 50.1651 104.355 45.5551C102.363 41.5624 103.166 40.5687 109.564 39.1068L114.268 38.0321L109.834 36.7687C104.886 35.3588 101.009 35.8223 97.2729 38.2707C94.0114 40.4077 94.0981 41.6529 97.5186 41.7992C99.2208 41.872 98.435 42.2248 95.4559 42.7252C92.8089 43.1699 89.4339 44.3467 87.9559 45.3405L85.2686 47.1473L92.2686 48.2478L88.2686 48.9402C83.6436 49.7408 79.7686 52.1561 79.7686 54.2383C79.7686 55.0529 80.7145 55.6816 81.9399 55.6816C84.4289 55.6816 87.7686 58.3488 87.7686 60.3366C87.7686 62.0269 89.9401 62.0792 91.7158 60.4316C92.8155 59.4112 92.95 59.5031 92.4472 60.9316C92.0001 62.2023 92.3544 62.6816 93.741 62.6816C94.7913 62.6816 95.9287 62.2316 96.2686 61.6816C97.3293 59.9653 98.6058 60.5882 98.0877 62.5692C97.1175 66.2795 108.703 67.9565 115.768 65.1283ZM116.018 61.9759C113.657 61.5211 112.865 59.6927 115.018 59.6663C115.854 59.6561 115.771 59.3248 114.768 58.6663C113.435 57.791 113.435 57.5722 114.768 56.6969C115.593 56.1553 117.168 55.7409 118.268 55.7759C119.368 55.8109 119.731 56.058 119.074 56.3252C117.403 57.0052 118.632 59.6784 120.625 59.697C122.051 59.7103 122.07 59.8402 120.768 60.6817C119.943 61.2148 119.741 61.6579 120.318 61.6663C122.2 61.6938 123.768 59.3415 123.768 56.4921C123.768 52.8971 118.884 40.6631 117.189 40.0131C115.981 39.5496 104.768 41.4568 104.768 42.1257C104.768 42.2918 105.712 44.5615 106.865 47.1694C108.023 49.7875 109.031 54.3194 109.115 57.2884L109.268 62.6656L113.768 62.5376C116.243 62.4672 117.256 62.2143 116.018 61.9759ZM112.768 52.7886C112.768 50.893 114.596 49.6816 117.457 49.6816C118.402 49.6816 118.763 50.2523 118.407 51.1816C118.09 52.0066 118.267 52.6816 118.8 52.6816C119.332 52.6816 119.768 53.1316 119.768 53.6816C119.768 54.2316 118.193 54.6816 116.268 54.6816C113.501 54.6816 112.768 54.2854 112.768 52.7886ZM111.768 48.9066C111.768 47.9138 116.9 46.4942 117.685 47.2699C118.349 47.9266 117.463 48.4692 114.516 49.2087C112.902 49.6138 111.768 49.4891 111.768 48.9066ZM110.768 45.6816C110.768 45.1316 111.637 44.6816 112.699 44.6816C113.916 44.6816 114.775 43.8511 115.025 42.4316C115.42 40.1905 115.425 40.1915 116.47 42.6816C117.376 44.84 117.229 45.2705 115.394 45.8319C112.146 46.8256 110.768 46.7808 110.768 45.6816ZM33.8381 54.4316C33.9049 52.2941 33.9492 52.2816 34.7235 54.1816C35.478 56.0326 35.5912 55.9821 36.2435 53.5041C36.6311 52.0314 36.5265 50.0729 36.011 49.1518C35.1819 47.6702 34.8256 47.7927 32.9208 50.2142C31.7366 51.7196 30.7678 53.7906 30.7678 54.8165C30.7678 57.5225 33.7532 57.1483 33.8381 54.4316ZM28.3058 53.7431C27.9868 53.2269 28.2977 52.4394 28.9968 51.9931C29.6959 51.5468 30.9428 50.3205 31.7678 49.2679C33.1819 47.4637 33.1403 47.4221 31.0407 48.5408C27.8885 50.2204 25.5536 54.6816 27.8268 54.6816C28.4093 54.6816 28.6249 54.2593 28.3058 53.7431ZM123.745 46.3881C122.555 44.6246 121.816 43.9223 122.103 44.8276C122.39 45.7328 123.219 48.4329 123.946 50.8276C125.153 54.8057 125.295 54.9405 125.588 52.3881C125.779 50.7285 125.03 48.293 123.745 46.3881Z" fill="#ABADAA"/>
<path d="M25.391 96.5801C14.512 94.992 6.76903 88.2153 6.76903 80.2831C6.76903 76.0005 8.04093 75.2113 14.9708 75.1942C19.0414 75.1841 20.1825 75.6766 23.4708 78.8633L27.269 82.544L31.269 78.5591C35.2099 74.6331 36.5783 74.29 40.9459 76.1328C42.3271 76.7155 42.7431 76.0382 43.3051 72.2907C43.8409 68.7178 43.5715 67.037 42.0503 64.4618C40.3499 61.5833 39.6173 61.192 36.0549 61.2604C33.8228 61.3032 29.6675 62.3402 26.8209 63.5649C20.5145 66.2778 13.2059 67.2285 9.55293 65.8112C5.03313 64.058 0.769531 57.1864 0.769531 51.6552C0.769531 45.8583 2.59713 43.8276 6.29703 45.5134C7.98783 46.2838 9.12473 47.9837 9.90663 50.9104L11.048 55.1828L16.1588 54.8967C23.8686 54.4651 25.3245 53.9551 26.5548 51.2549C27.1753 49.8932 28.9993 48.0983 30.6083 47.2662C32.7577 46.1547 33.7202 44.7593 34.2368 42.0059C35.2468 36.6221 40.7248 31.6829 45.6858 31.6829C48.1037 31.6829 50.0683 32.3555 51.1539 33.5551C52.809 35.3839 52.9341 35.3825 56.5589 33.492C63.3662 29.9418 71.8549 32.709 73.6049 39.0492C74.9335 43.8611 74.0599 46.9836 70.0857 51.6262C66.637 55.6553 66.6301 55.6826 69.0665 55.6826C70.4156 55.6826 72.9257 55.9638 74.6444 56.3076C77.1651 56.8117 77.7694 56.6035 77.7694 55.2307C77.7694 54.2946 79.0628 52.2353 80.6437 50.6545C82.2246 49.0736 83.7932 47.0629 84.1296 46.1863C84.466 45.3096 86.4277 43.8877 88.4889 43.0265C90.5501 42.1653 92.8338 40.608 93.5637 39.5659C98.4182 32.6351 113.37 33.1344 121.109 40.4857C126.753 45.8474 128.228 52.2567 125.383 59.0657C122.378 66.2564 110.409 70.3647 101.735 67.1824C95.8718 65.0316 89.6216 63.4971 89.0506 64.0683C88.8001 64.3188 88.2319 66.1344 87.7879 68.103L86.9807 71.6822H91.308C94.7908 71.6822 95.7621 72.0818 96.2853 73.7302C96.6428 74.8566 96.382 76.4449 95.7056 77.2598C94.775 78.3811 94.7484 79.3393 95.5962 81.2C97.5113 85.4031 94.3037 90.6978 89.8651 90.6603C86.2661 90.6298 79.7411 87.4578 76.8751 84.345C74.4194 81.6784 72.7705 81.6537 72.7705 84.2835C72.7705 85.0992 72.3203 86.3102 71.7701 86.9745C71.2199 87.6388 69.928 89.2846 68.8992 90.6319C67.1369 92.9398 66.8907 92.9911 64.6444 91.5192C62.886 90.367 61.6052 90.2049 59.7653 90.9017C56.5749 92.1098 49.1043 91.1309 46.0023 89.0982C44.6831 88.2338 42.9671 86.0029 42.189 84.1405C40.4419 79.959 37.2943 78.0029 35.1614 79.773C34.3465 80.4493 33.9066 81.5936 34.1838 82.3159C34.461 83.0382 33.9445 84.0452 33.0362 84.5535C31.5392 85.3912 31.6134 85.9145 33.8277 90.1411C36.2293 94.7251 36.2379 94.8288 34.3297 96.2433C33.2621 97.0347 32.1371 97.6273 31.8297 97.5603C31.5223 97.4932 28.6257 97.0522 25.3928 96.5803L25.391 96.5801ZM33.7691 94.1324C33.7691 93.28 33.0575 91.2066 32.1877 89.5247C31.2516 87.7145 30.8613 85.4506 31.2313 83.9765C31.6803 82.1878 31.4919 81.6107 30.5627 81.9279C29.8512 82.1707 29.3177 83.5648 29.3771 85.0258C29.4366 86.4868 29.0991 87.6821 28.6271 87.6821C28.1552 87.6821 27.7691 87.222 27.7691 86.6598C27.7691 86.0975 25.9118 83.6225 23.6417 81.1598C20.4885 77.739 18.7952 76.6821 16.4674 76.6821H13.4204L15.4844 78.9321C16.6196 80.1696 18.7081 83.5002 20.1256 86.3334C21.543 89.1666 23.9034 92.4291 25.3708 93.5834C28.5606 96.0925 33.7691 96.433 33.7691 94.1324ZM18.6011 86.6281C14.0946 78.8118 10.2266 75.3481 8.69933 77.7612C7.28253 79.9997 7.59033 81.7009 10.226 86.1984C12.597 90.2441 17.4464 93.6122 20.969 93.6594C22.3396 93.6777 21.8814 92.3175 18.6011 86.6281ZM59.1241 89.0993C60.0233 88.7542 60.3937 87.8676 60.0323 86.9257C59.5845 85.7587 59.8542 85.5007 61.0445 85.9575C62.2416 86.4169 62.5048 86.1571 62.0482 84.967C61.6673 83.9744 61.8346 83.6045 62.4831 84.0053C63.0645 84.3646 64.0795 83.3469 64.747 81.7354C66.0034 78.7022 65.4519 73.9154 63.4007 70.0494C61.5165 66.4982 55.3817 60.2593 52.4897 58.9534C48.1978 57.0155 49.1059 55.46 54.0925 56.2078C58.8989 56.9285 64.6955 55.0388 68.4245 51.5355C73.8114 46.4748 73.9946 37.8845 68.7734 35.1845C60.1519 30.7261 49.9104 37.0745 48.1194 47.9865C47.7063 50.5039 47.0619 51.6248 46.2145 51.2996C44.1506 50.5076 43.6822 53.5066 45.6514 54.9045C47.9055 56.5046 49.7682 59.9455 49.7682 62.5091C49.7682 64.7508 47.062 66.1648 45.3915 64.796C43.5485 63.2859 43.8786 83.871 45.7336 86.125C48.2551 89.189 54.991 90.6853 59.1241 89.0993ZM53.4779 53.0573C53.0881 52.6674 52.7691 51.0142 52.7691 49.3835C52.7691 45.2413 60.3071 37.6815 64.4371 37.6815C67.8943 37.6815 69.7933 39.2855 69.7053 42.1315C69.6455 44.0655 69.5907 44.0542 68.7375 41.9315C66.5261 36.4298 55.6785 41.7918 55.2745 48.5864C55.1114 51.3273 55.3775 51.7556 56.9822 51.3359C58.1531 51.0297 58.735 51.2886 58.4976 52.0101C58.0514 53.3661 54.5229 54.1024 53.4779 53.0573ZM68.7689 88.6223C68.7689 88.0398 68.3189 87.8414 67.7689 88.1813C66.4875 88.9732 66.4875 89.6813 67.7689 89.6813C68.3189 89.6813 68.7689 89.2047 68.7689 88.6223ZM94.0199 87.352C94.4437 86.7081 94.6732 84.8313 94.53 83.1813C94.3133 80.6862 93.874 80.2244 91.9197 80.4372C90.6273 80.5779 88.4291 81.5904 87.0348 82.6872C85.6404 83.784 83.5704 84.6813 82.4346 84.6813C79.9859 84.6813 80.9564 85.8644 85.2695 88.1373C88.4093 89.7919 92.6654 89.4099 94.0199 87.352ZM67.3889 86.2292C68.205 84.1025 66.7579 82.0906 65.6592 83.8246C64.48 85.6856 64.553 87.6814 65.8003 87.6814C66.3676 87.6814 67.0824 87.0278 67.3889 86.2292ZM78.2319 79.2257C77.4271 76.5515 76.7686 73.2787 76.7686 71.9528C76.7686 70.0249 76.3181 69.6062 74.5186 69.8617C72.6809 70.1227 72.2093 70.9142 71.9448 74.1813C71.7667 76.3813 70.8846 78.9963 69.9846 79.9923C68.5671 81.5611 68.5435 81.926 69.8085 82.7207C70.9239 83.4214 71.48 82.9347 72.1634 80.6597C72.9812 77.9371 74.7687 76.4872 74.7687 78.5465C74.7687 79.6313 78.8717 84.9117 79.346 84.4374C79.5381 84.2452 79.0368 81.9 78.2319 79.2257ZM72.7686 72.6499C72.7686 72.1171 73.4436 71.6812 74.2686 71.6812C76.1893 71.6812 76.1893 72.3058 74.2686 73.0428C73.4436 73.3594 72.7686 73.1826 72.7686 72.6499ZM86.5846 81.3817C87.9968 80.2497 91.1292 74.6656 90.5924 74.2368C90.4144 74.0945 88.8021 73.4833 87.0096 72.8786C83.8413 71.8096 83.7832 71.8403 84.9233 73.9801C85.9597 75.9253 85.9141 76.0311 84.5305 74.8902C83.6694 74.1801 82.6601 72.3846 82.2875 70.9002C81.6473 68.3497 80.1959 66.7308 78.5187 66.6965C77.4003 66.6736 77.5963 69.0286 79.3577 76.7725C80.8155 83.182 81.1252 83.7044 83.1077 83.0975C84.2962 82.7336 85.8608 81.9618 86.5846 81.3817ZM33.7686 79.1813C34.4533 78.3563 34.7885 77.6813 34.5135 77.6813C34.2385 77.6813 33.4533 78.3563 32.7686 79.1813C32.0839 80.0063 31.7487 80.6813 32.0237 80.6813C32.2987 80.6813 33.0839 80.0063 33.7686 79.1813ZM69.3766 78.9313C70.1073 77.9688 70.7194 75.7556 70.7368 74.0131C70.7792 69.7968 71.6726 67.6813 73.4108 67.6813C74.5318 67.6813 74.6075 67.2486 73.7626 65.67C73.1706 64.5638 72.8172 62.8763 72.9774 61.92C73.2233 60.4518 72.3351 60.1411 67.2686 59.9227C58.7795 59.5568 57.436 60.7069 61.4688 64.8877C65.1734 68.7281 66.7686 72.4481 66.7686 77.2467C66.7686 81.0887 67.4198 81.5091 69.3766 78.9313ZM41.7686 79.3037C41.7686 79.096 40.9811 78.3085 40.0186 77.5537C38.4325 76.3098 38.3972 76.3452 39.6411 77.9313C40.9475 79.597 41.7686 80.1268 41.7686 79.3037ZM94.7686 74.4429C94.7686 72.6782 92.4565 74.2926 91.5764 76.6719C90.7077 79.0203 90.7266 79.0293 92.7309 77.2154C93.8517 76.2011 94.7686 74.9535 94.7686 74.4429ZM86.7686 68.4824C86.7686 67.888 85.9811 66.8039 85.0186 66.0732C83.3519 64.808 83.3519 64.7432 85.0186 64.713C87.2014 64.6733 87.3289 61.8334 85.1848 61.0106C83.9077 60.5205 83.8593 60.2361 84.9348 59.542C86.9864 58.2179 83.8593 56.4905 80.7686 57.2405C79.3936 57.5742 76.4686 57.845 74.2686 57.8423C70.9602 57.8383 70.7009 57.9651 72.7686 58.5758C74.814 59.18 75.2093 59.8462 74.9427 62.2402C74.7635 63.8495 74.9317 64.8513 75.3165 64.4665C76.2666 63.5164 83.7281 67.412 84.4221 69.2206C85.0247 70.791 86.7686 70.2424 86.7686 68.4824ZM115.769 65.1278C119.22 63.7459 119.187 63.735 113.367 64.3381C107.58 64.9376 107.477 64.9047 108.067 62.6496C108.776 59.9356 106.655 50.1646 104.355 45.5546C102.364 41.5619 103.166 40.5682 109.565 39.1063L114.269 38.0316L109.834 36.7682C104.886 35.3583 101.01 35.8218 97.2734 38.2702C94.0119 40.4072 94.0986 41.6524 97.5191 41.7987C99.2214 41.8715 98.4355 42.2243 95.4565 42.7247C92.8094 43.1694 89.4344 44.3462 87.9565 45.34L85.2691 47.1468L92.2691 48.2473L88.2691 48.9397C83.6441 49.7403 79.7691 52.1556 79.7691 54.2378C79.7691 55.0524 80.715 55.6811 81.9405 55.6811C84.4295 55.6811 87.7691 58.3483 87.7691 60.3361C87.7691 62.0264 89.9407 62.0787 91.7164 60.4311C92.8161 59.4107 92.9505 59.5026 92.4477 60.9311C92.0006 62.2018 92.3549 62.6811 93.7415 62.6811C94.7918 62.6811 95.9292 62.2311 96.2691 61.6811C97.3298 59.9648 98.6063 60.5877 98.0882 62.5687C97.118 66.279 108.704 67.956 115.769 65.1278ZM24.7686 62.5134C27.2436 61.3453 31.0465 60.1177 33.2196 59.7854C36.3729 59.3032 37.8447 58.2969 40.5096 54.8011C44.2932 49.8377 44.2783 48.319 40.4416 47.8648C37.9849 47.574 37.7687 47.8368 37.7687 51.1148C37.7687 57.0289 31.9162 60.9737 28.7687 57.1812C27.884 56.1152 25.5434 55.6812 20.6796 55.6812C14.1984 55.6812 13.6508 55.8658 10.3556 59.1613C7.26726 62.2496 7.06646 62.7528 8.57226 63.6309C11.533 65.3575 19.9766 64.7748 24.7686 62.5134ZM42.7686 60.6812C42.1799 59.5812 41.1943 58.6812 40.5784 58.6812C39.9625 58.6812 40.2731 59.5812 41.2686 60.6812C42.2641 61.7812 43.2497 62.6812 43.4588 62.6812C43.6679 62.6812 43.3573 61.7812 42.7686 60.6812ZM121.546 61.1245C124.399 59.1258 124.441 54.955 121.679 47.6815C118.37 38.9654 118.041 38.7862 108.936 40.7389L104.005 41.7963L105.927 45.7744C108.107 50.2854 110.184 60.2004 109.262 61.6914C108.23 63.3619 119.065 62.8619 121.546 61.1245ZM115.068 60.3419C115.419 59.4285 115.269 58.6812 114.737 58.6812C114.204 58.6812 113.768 58.2312 113.768 57.6812C113.768 56.0376 116.305 56.5449 118.768 58.6812C120.036 59.7812 120.668 60.6873 120.171 60.6949C119.674 60.7024 118.18 60.9998 116.849 61.3557C114.875 61.8839 114.548 61.6978 115.068 60.3419ZM117.039 56.077C117.371 55.7447 118.234 55.7092 118.956 55.9981C119.753 56.3173 119.516 56.5543 118.351 56.6023C117.297 56.6457 116.707 56.4093 117.039 56.077ZM112.768 53.2164C112.768 51.7695 115.664 49.6812 117.671 49.6812C118.24 49.6812 118.446 50.3562 118.13 51.1812C117.813 52.0062 118.079 52.6812 118.72 52.6812C119.361 52.6812 119.608 53.1312 119.268 53.6812C118.27 55.2961 112.768 54.9028 112.768 53.2164ZM116.768 52.6813C116.768 52.1313 116.318 51.6813 115.768 51.6813C115.218 51.6813 114.768 52.1313 114.768 52.6813C114.768 53.2313 115.218 53.6813 115.768 53.6813C116.318 53.6813 116.768 53.2313 116.768 52.6813ZM111.768 48.7004C111.768 48.1399 113.193 47.6813 114.935 47.6813C118.576 47.6813 118.444 48.1178 114.518 49.0597C112.886 49.4513 111.768 49.3053 111.768 48.7004ZM110.768 45.7883C110.768 45.1794 111.941 44.6813 113.375 44.6813C115.32 44.6813 115.831 44.2873 115.387 43.1294C115.045 42.2394 115.213 41.8381 115.78 42.1884C117.278 43.1142 116.962 45.6813 115.35 45.6813C114.57 45.6813 113.22 45.9544 112.35 46.2883C111.48 46.6221 110.768 46.3971 110.768 45.7883ZM34.5451 56.1243C36.7862 54.5545 37.6817 49.364 35.9013 48.2636C34.2324 47.2322 29.1465 54.867 30.2804 56.7017C31.1136 58.0498 31.9597 57.9351 34.5451 56.1243ZM68.4981 56.988C67.5252 56.7344 66.1751 56.7511 65.4981 57.025C64.8211 57.2989 65.6172 57.5064 67.2671 57.486C68.9171 57.4656 69.471 57.2415 68.4981 56.988ZM29.2751 53.6939C28.9396 53.151 29.5833 51.7213 30.7055 50.5167C33.525 47.4903 32.3317 46.8019 29.2631 49.6847C26.4405 52.3363 26.0008 54.681 28.3261 54.681C29.1836 54.681 29.6107 54.2367 29.2751 53.6939ZM123.744 46.3874C122.554 44.6239 121.815 43.9216 122.102 44.8269C122.389 45.7321 123.219 48.4322 123.946 50.8269C125.153 54.805 125.295 54.9398 125.588 52.3874C125.778 50.7278 125.03 48.2923 123.744 46.3874ZM49.6281 39.4201C51.5338 37.5144 50.9065 34.7015 48.3123 33.5195C43.38 31.2722 35.7673 36.9135 35.7673 42.8158C35.7673 45.3082 36.1432 45.6809 38.6565 45.6809C40.2456 45.6809 42.5988 46.5336 43.886 47.5759L46.2263 49.4709L47.3577 45.015C47.98 42.5643 49.0016 40.0466 49.6281 39.4201Z" fill="#A79C6C"/>
<path d="M21.0146 95.7047C14.149 94.0756 6.76963 86.6022 6.76963 81.2777C6.76963 76.972 7.81283 75.798 12.2265 75.1361C17.0483 74.413 20.7686 75.885 24.6675 80.0586L27.0652 82.6253L31.1675 78.6053C35.2075 74.6463 36.5945 74.2967 40.9588 76.1369C42.3084 76.706 42.7827 76.1303 43.3189 73.2721C45.4107 62.1221 38.022 57.5341 27.0989 63.2011C21.4557 66.1289 13.4449 67.3203 9.55293 65.8107C5.03313 64.0575 0.769531 57.1859 0.769531 51.6547C0.769531 46.4359 2.48083 44.1385 5.62503 45.1364C7.54713 45.7464 10.7716 51.2 10.7672 53.8334C10.7655 54.8677 12.3861 55.1053 17.7156 54.8522C24.4413 54.5328 24.732 54.4108 26.6963 51.0815C28.0673 48.7578 29.7157 47.443 31.7739 47.0313C34.1332 46.5594 34.6927 46.0161 34.2513 44.6254C33.331 41.7256 36.3828 35.8883 39.9592 33.7074C44.2165 31.1118 48.9326 31.0996 51.2662 33.6782C52.3817 34.9108 53.4932 35.3433 54.1712 34.8085C54.7752 34.3321 56.9276 33.4085 58.9543 32.756C66.1729 30.4319 73.3043 34.2394 73.7993 40.6817C74.1587 45.3627 73.7706 46.5276 70.3651 50.9887L66.9604 55.4491L71.8978 56.1041C77.4866 56.8455 78.7698 56.3864 78.7698 53.6455C78.7698 52.5906 79.8773 51.0019 81.2308 50.1151C82.5843 49.2283 83.9509 47.6863 84.2676 46.6885C84.5843 45.6908 86.5045 44.0862 88.5347 43.1228C90.565 42.1594 93.0305 40.3485 94.0136 39.0987C97.8421 34.2315 108.71 33.3884 116.405 37.3617C122.036 40.2694 126.77 46.8636 126.77 51.7987C126.77 57.4525 123.71 62.7847 118.921 65.4757C114.051 68.2131 103.671 68.6984 99.1364 66.4009C97.5597 65.602 94.5952 64.6454 92.5487 64.275C89.0698 63.6453 88.7879 63.7829 88.2152 66.3914C87.8783 67.9258 87.4294 69.7438 87.2176 70.4313C86.9557 71.2813 88.063 71.6813 90.6787 71.6813C95.4872 71.6813 97.741 73.8965 95.9121 76.825C95.2315 77.9147 94.9426 79.7907 95.27 80.9938C95.7893 82.902 95.7252 82.9579 94.7678 81.4312C93.3385 79.152 91.6253 79.2203 88.4969 81.6812C84.9933 84.4371 84.3516 84.1903 87.3152 81.2267C88.6652 79.8767 89.7766 78.1892 89.7851 77.4767C89.7963 76.5314 90.0501 76.576 90.7241 77.6415C91.5145 78.8912 91.9449 78.8328 93.7088 77.2365C94.8424 76.2106 95.7698 74.991 95.7698 74.5263C95.7698 73.4813 92.0942 73.3992 91.517 74.4313C91.2863 74.8438 91.2347 74.6188 91.4022 73.9313C91.6721 72.8242 88.8729 72.2441 84.0502 72.4076C83.3795 72.4303 82.5313 71.4887 82.1654 70.3151C81.5129 68.2222 80.0064 66.727 78.5197 66.6966C78.1072 66.6881 77.7412 68.1438 77.7064 69.9313C77.6474 72.9541 77.5778 73.0188 76.7111 70.857C75.1073 66.8567 72.3505 68.5037 71.7364 73.8292C71.4431 76.373 70.6168 79.1607 69.9003 80.024C68.3686 81.8695 69.3552 84.0544 71.3709 83.2808C73.1235 82.6083 73.2201 85.2146 71.5198 87.2951C67.0895 92.7159 66.9034 92.8149 64.3229 91.1241C62.3693 89.8441 61.4773 89.7674 59.687 90.7256C56.9124 92.2105 49.659 91.31 46.215 89.0531C44.8179 88.1377 43.0594 85.9158 42.3072 84.1155C39.8965 78.3458 33.7702 77.3447 33.7702 82.7204C33.7702 83.7072 33.2077 84.7061 32.5202 84.9402C31.6 85.2535 31.8411 86.5003 33.4342 89.6659C34.6244 92.031 35.3638 94.577 35.0772 95.3237C34.5007 96.826 26.6382 97.0392 21.0146 95.7047ZM34.0606 95.058C34.4037 94.7149 33.7886 92.6781 32.6935 90.5317C31.5985 88.3853 30.8303 85.6286 30.9863 84.4055C31.4176 81.0255 29.3487 80.8729 28.722 84.2385L28.174 87.1818L26.4871 84.0106C24.5651 80.3974 20.4011 77.1292 16.4591 76.1398C13.8025 75.4731 12.6625 76.8792 14.7925 78.1955C15.3548 78.5431 17.131 81.4345 18.7395 84.621C20.3481 87.8075 23.0725 91.5997 24.7938 93.0482C27.6815 95.478 32.5785 96.5401 34.0606 95.058ZM21.9666 91.9318C20.8997 90.4193 18.8446 86.8355 17.3999 83.9677C13.4999 76.2267 7.77033 74.1649 7.77033 80.5025C7.77033 84.7082 11.6408 89.8556 16.7403 92.4315C22.9021 95.5444 24.4131 95.4001 21.9666 91.9318ZM69.7026 85.7407C69.6575 84.7015 69.2732 84.9319 68.5498 86.4319C67.953 87.6694 66.7724 88.6819 65.9264 88.6819C64.6971 88.6819 64.7604 88.4096 66.2417 87.3265C67.5452 86.3733 67.8632 85.4089 67.313 84.0765C66.6049 82.3616 66.4188 82.4427 65.3505 84.9318C64.4326 87.0706 63.9036 87.4151 62.9703 86.4818C61.4586 84.9701 61.4185 83.6037 62.8954 83.9318C63.5141 84.0693 64.4826 82.8514 65.0476 81.2253C66.6624 76.5774 64.4229 69.9593 59.5472 64.9713L55.4318 60.7609L58.1598 59.7237C63.0617 57.86 68.4978 57.4365 72.1298 58.6353C75.3782 59.7074 75.642 60.0736 75.1038 62.7647C74.6271 65.1481 74.8099 65.6038 76.0515 65.1273C77.9635 64.3936 83.3336 67.0808 84.6534 69.4317C85.5759 71.0748 85.6804 71.066 86.3656 69.2871C86.8533 68.0209 86.5362 66.9836 85.4096 66.1598C83.8718 65.0354 83.9185 64.8762 85.9409 64.3473C88.1078 63.7807 88.1162 63.7213 86.3092 61.7246C84.9039 60.1718 84.7974 59.674 85.8654 59.6499C86.841 59.6278 86.6772 59.1694 85.3293 58.1499C83.1374 56.492 79.6437 56.223 78.2204 57.6025C77.6411 58.1639 75.2311 58.1141 72.0448 57.4748C67.8443 56.632 65.5061 56.7562 60.1258 58.1076C53.5829 59.7511 53.3871 59.7433 51.4027 57.7589L49.3727 55.7289L54.3214 56.2741C67.0004 57.671 77.9194 43.7401 70.1974 36.0181C67.9133 33.734 67.0143 33.4964 62.1753 33.8977C57.9341 34.2494 56.0754 34.9725 53.7938 37.1584C50.256 40.5478 47.7697 45.5133 47.7697 49.1894C47.7697 51.1575 47.3695 51.7417 46.3018 51.3319C43.4506 50.2378 43.653 52.7842 46.6923 56.2458C50.0715 60.0944 50.5719 62.7706 48.2697 64.6812C46.3852 66.2452 44.5046 64.8697 42.756 60.648C42.0801 59.0162 41.1317 57.6812 40.6484 57.6812C39.3288 57.6812 39.5347 58.2479 42.358 62.3868C44.7995 65.966 44.9081 66.6459 44.2729 74.3758C43.4452 84.4478 44.0387 86.4778 48.334 88.2728C54.1249 90.6924 61.173 89.8971 60.043 86.9516C59.6327 85.8824 60.6813 86.2296 63.3561 88.0486C66.9776 90.5114 67.3628 90.5827 68.5195 89.0046C69.207 88.0666 69.7398 86.598 69.7026 85.7407ZM54.0206 53.0197C51.5864 52.0375 52.7017 47.1225 56.3172 42.8987C61.7793 36.5174 69.9002 36.0052 69.7002 42.0546C69.6342 44.0545 69.5847 44.0666 68.8756 42.2568C67.217 38.0234 61.8284 38.7526 57.0636 43.8553C54.3489 46.7628 54.4789 52.3752 57.2492 51.8653C58.2669 51.678 58.7012 51.9846 58.3115 52.6153C57.6217 53.7315 56.1322 53.8718 54.0206 53.0197ZM39.4836 78.1627L42.2708 79.9226L40.1383 77.6974C37.6451 75.0958 34.9412 75.5518 32.8868 78.9204C31.5285 81.1476 31.5468 81.1457 34.1021 78.7922C36.635 76.4593 36.7624 76.4444 39.4836 78.1627ZM69.4356 79.4315C69.8663 78.744 70.4553 76.1684 70.7446 73.708C71.1384 70.3584 71.8425 68.9501 73.5471 68.1025C75.5729 67.0952 75.6515 66.8275 74.2602 65.6729C73.4003 64.9593 72.8258 63.4547 72.9836 62.3296C73.3604 59.643 68.4978 58.5555 62.1556 59.9081L57.5652 60.8872L61.1082 64.5344C65.1574 68.7027 66.7703 72.3237 66.7703 77.2464C66.7703 80.7188 67.9985 81.7256 69.4356 79.4315ZM116.271 65.1275C119.241 63.6786 119.219 63.6686 114.049 64.1222C111.176 64.3742 108.562 64.1531 108.24 63.6308C107.895 63.0728 110.059 62.6812 113.489 62.6812C119.565 62.6812 123.771 60.8171 123.771 58.1245C123.771 57.3307 124.221 56.6812 124.771 56.6812C126.519 56.6812 125.841 49.3072 123.782 45.9312C121.454 42.1123 120.784 41.8287 121.42 44.9312C121.673 46.1687 121.162 45.6207 120.283 43.7135C117.873 38.4849 117.95 38.4984 106.012 41.2107L103.752 41.724L105.638 45.4526C107.568 49.267 110.159 59.6266 109.379 60.4066C109.141 60.645 108.404 58.2168 107.743 55.0107C107.081 51.8046 105.691 47.5102 104.653 45.4676C102.866 41.9483 102.859 41.7056 104.519 40.8337C105.483 40.3277 108.296 39.5682 110.771 39.1459L115.271 38.3782L112.271 37.0749C106.448 34.5453 100.089 35.4826 95.4111 39.5599C93.6247 41.117 93.6644 41.2065 96.4111 41.8131L99.2715 42.4448L96.0554 42.5631C92.5798 42.6909 85.7714 45.54 85.7714 46.8666C85.7714 47.3147 87.0089 47.7266 88.5214 47.7818C90.864 47.8674 90.7071 48.015 87.4617 48.7786C79.2129 50.7193 76.9887 54.4486 83.0214 56.2246C84.822 56.7547 86.7116 58.1848 87.2585 59.4314C87.8015 60.6689 89.0124 61.6814 89.9495 61.6814C90.8866 61.6814 91.9208 62.1142 92.2478 62.6432C92.6221 63.2488 93.7514 63.2593 95.2974 62.6715C97.0315 62.0122 97.6819 62.0729 97.512 62.878C96.7822 66.3364 110.437 67.9737 116.271 65.1275ZM115.086 60.303C115.376 59.5451 115.167 58.4771 114.619 57.9298C113.959 57.2697 114.53 56.7073 116.315 56.2593C117.796 55.8878 119.254 55.8308 119.555 56.1326C119.857 56.4343 119.285 56.6812 118.284 56.6812C116.648 56.6812 116.683 56.8707 118.632 58.5608L120.799 60.4404L118.535 61.0471C115.142 61.9563 114.504 61.8188 115.086 60.303ZM113.177 53.5294C112.785 52.896 113.295 51.771 114.309 51.0294C116.706 49.2767 117.771 49.3233 117.771 51.1811C117.771 52.0061 118.247 52.6811 118.83 52.6811C119.412 52.6811 119.611 53.1311 119.271 53.6811C118.423 55.053 114.051 54.9441 113.177 53.5294ZM116.771 52.6811C116.771 52.1311 116.321 51.6811 115.771 51.6811C115.221 51.6811 114.771 52.1311 114.771 52.6811C114.771 53.2311 115.221 53.6811 115.771 53.6811C116.321 53.6811 116.771 53.2311 116.771 52.6811ZM111.771 48.5079C111.771 48.0532 113.121 47.6811 114.771 47.6811C118.627 47.6811 118.627 48.3284 114.771 48.8944C113.121 49.1366 111.771 48.9627 111.771 48.5079ZM110.771 45.5079C110.771 45.0532 111.944 44.6811 113.378 44.6811C115.323 44.6811 115.834 44.2872 115.389 43.1292C115.048 42.2393 115.215 41.8379 115.782 42.1883C117.789 43.4284 116.682 45.4672 113.771 45.8945C112.121 46.1366 110.771 45.9627 110.771 45.5079ZM23.7707 63.1619C25.6957 62.4647 28.6207 61.4091 30.2707 60.8163C31.9207 60.2235 34.471 59.5014 35.9381 59.2117C37.6285 58.8779 39.4443 57.3107 40.8955 54.9332C42.155 52.8698 43.561 51.0253 44.0198 50.8343C45.5936 50.1793 42.5264 47.6815 40.1482 47.6815C38.0977 47.6815 37.7706 48.1629 37.7706 51.1815C37.7706 57.0318 31.8964 60.9479 28.7706 57.1815C27.9092 56.1435 25.6383 55.6857 21.3982 55.6952C13.9667 55.7118 10.7702 56.4776 10.7702 58.2415C10.7702 58.9712 9.78828 60.2559 8.58813 61.0966C6.40943 62.6226 6.41143 62.6274 9.83813 64.1126C13.4527 65.6793 17.6028 65.396 23.7707 63.1619ZM34.9417 56.0265C36.8616 54.289 37.4392 49.2128 35.8301 48.2183C35.3129 47.8987 33.9074 48.6596 32.7067 49.9093L30.5237 52.1815L31.6823 49.9315C33.1549 47.0716 31.5207 46.9313 28.7705 49.6815C26.4251 52.0269 26.143 54.6815 28.2391 54.6815C29.198 54.6815 29.4861 54.104 29.0692 53.0175C28.6236 51.8564 28.8048 51.5847 29.6687 52.1187C30.3497 52.5396 30.6497 53.554 30.3354 54.373C29.0635 57.6874 31.9583 58.7265 34.9417 56.0265ZM49.1027 40.9815C51.3849 36.6009 51.1983 34.8341 48.3151 33.5204C43.2531 31.214 35.7701 36.9382 35.7701 43.1167C35.7701 46.0698 36.0055 46.2818 39.2844 46.2818C41.2882 46.2818 43.5447 47.0283 44.5344 48.0185C46.1823 49.6674 46.2996 49.6142 46.8528 46.9685C47.1733 45.4358 48.1857 42.7417 49.1027 40.9815ZM83.0187 88.4315C78.0791 85.6978 72.7697 81.1984 72.7697 79.7461C72.7697 77.9903 73.679 78.5087 76.7658 82.0243C83.2411 89.3993 92.6248 91.6832 94.7498 86.4016C95.4066 84.7695 95.6599 84.63 95.7065 85.8749C95.7841 87.948 92.0865 90.6816 89.2047 90.6816C88.0386 90.6816 85.2548 89.669 83.0187 88.4315ZM79.2187 81.2136C78.4218 79.3063 77.8053 76.7188 77.8487 75.4636C77.9383 72.8751 78.2183 73.4536 79.7357 79.362C80.3781 81.8632 81.5044 83.7247 82.5396 83.996C84.1206 84.4104 84.1144 84.4596 82.4688 84.5656C81.3033 84.6406 80.1564 83.4578 79.2187 81.2136ZM73.5031 72.5574C74.1815 71.874 74.9883 71.5668 75.2962 71.8747C75.6041 72.1826 75.0491 72.7417 74.0629 73.1173C72.6377 73.6599 72.5228 73.5451 73.5031 72.5574Z" fill="#5C5D57"/>
<path d="M21.8411 95.5932C19.4055 95.1154 16.9305 94.2364 16.3411 93.6399C15.571 92.8605 16.0616 92.8544 18.0845 93.6182C21.9272 95.0691 24.0773 94.9892 23.1171 93.4311C22.6726 92.7098 23.4054 92.8734 24.8498 93.8177C26.2265 94.7178 28.234 95.6781 29.3111 95.9517C32.8034 96.8388 26.6965 96.5457 21.8411 95.5932ZM32.0401 96.0769C32.3724 95.7446 33.2349 95.7091 33.9568 95.998C34.7545 96.3172 34.5176 96.5542 33.3526 96.6021C32.2984 96.6456 31.7078 96.4092 32.0401 96.0769ZM11.2691 89.6811C9.68828 88.0311 8.61988 86.6811 8.89488 86.6811C9.16988 86.6811 10.6883 88.0311 12.2691 89.6811C13.8499 91.3311 14.9183 92.6811 14.6433 92.6811C14.3683 92.6811 12.8499 91.3311 11.2691 89.6811ZM64.3401 90.7953C64.039 90.3081 60.7966 90.15 57.1348 90.444C49.8827 91.0261 44.3558 89.1051 43.2488 85.6174C42.2516 82.4756 38.6776 78.6811 36.7155 78.6811C35.4693 78.6811 34.5685 79.6318 34.1194 81.4212C33.4228 84.1966 30.769 87.6741 30.769 85.8115C30.769 85.2546 31.2408 84.5075 31.8176 84.151C33.2697 83.2535 30.9073 80.499 29.4057 81.3387C28.7805 81.6883 28.8877 81.3459 29.644 80.5777C30.798 79.4055 31.0988 79.4003 31.5154 80.5451C31.8652 81.5064 32.685 81.065 34.2913 79.0505C36.4784 76.3077 36.6491 76.2625 38.4986 77.9363C41.1487 80.3346 42.4948 80.1405 40.2689 77.681C38.0412 75.2194 36.0597 75.1478 33.3476 77.431C31.271 79.1792 31.2708 79.1787 33.1738 76.931C35.3764 74.3294 37.9859 74.0327 39.7688 76.181C41.4125 78.1615 42.5246 78.0769 43.0535 75.931C43.2908 74.9685 43.4715 76.5662 43.4551 79.4815C43.4324 83.5265 43.9133 85.2699 45.4851 86.8417C47.7365 89.0931 54.942 90.3563 59.2971 89.2631C61.6239 88.6791 61.7826 88.3927 60.6066 86.9003C59.8706 85.9662 60.7654 86.4347 62.5951 87.9415C66.3664 91.0471 66.8735 91.1723 68.6276 89.431C69.6373 88.4288 69.7548 88.5278 69.2206 89.931C68.5257 91.7565 65.2874 92.3298 64.3389 90.7952L64.3401 90.7953ZM88.0401 90.0769C88.3724 89.7446 89.2349 89.7091 89.9568 89.998C90.7545 90.3172 90.5176 90.5542 89.3526 90.6021C88.2984 90.6456 87.7078 90.4092 88.0401 90.0769ZM63.4461 86.8767C61.6393 84.8802 61.1814 83.1999 62.7 84.1384C63.9942 84.9383 65.0828 82.8851 65.8589 78.1811L66.5188 74.1811L66.6439 78.0861L66.7691 81.9911L71.2691 78.1811L69.4069 80.3839C67.5662 82.5612 67.5748 82.5942 70.1569 83.2423C73.0136 83.9593 73.6488 86.1296 71.2691 87.0427C70.2156 87.447 69.7647 86.958 69.7544 85.3997C69.7399 83.2153 69.7206 83.2185 68.5044 85.6021C66.8794 88.787 65.4915 89.1367 63.4461 86.8767ZM67.2746 86.6722C67.6175 86.1173 67.5949 84.7078 67.2243 83.5401C66.6946 81.8712 66.3631 81.7126 65.6751 82.799C64.5095 84.6395 64.5313 87.6811 65.7101 87.6811C66.2276 87.6811 66.9317 87.2271 67.2746 86.6722ZM80.2686 86.812C77.1171 84.8563 72.3399 79.7765 73.0161 79.1003C73.2336 78.8828 75.7404 80.9495 78.5868 83.693C81.4331 86.4365 83.651 88.6795 83.5153 88.6775C83.3796 88.6754 81.9186 87.8359 80.2686 86.812ZM27.1046 84.8478C26.1984 83.3968 26.2525 83.0145 27.364 83.0145C28.1364 83.0145 28.7684 83.8395 28.7684 84.8478C28.7684 85.8561 28.6517 86.6811 28.509 86.6811C28.3663 86.6811 27.7343 85.8561 27.1046 84.8478ZM6.89958 81.1311C6.66355 75.6625 10.8169 73.9011 14.4449 77.9311C17.8707 81.7365 18.3255 83.3894 14.9737 79.8528C11.0161 75.6771 8.48721 75.967 7.64961 80.6924C7.03407 84.1652 7.03062 84.1673 6.89958 81.1311ZM88.4166 79.9698C89.3767 78.436 90.2744 77.0177 90.4114 76.8181C90.5483 76.6184 90.5926 77.3551 90.5097 78.4551C90.4269 79.5551 89.5292 80.9734 88.5149 81.6068C86.7372 82.717 86.7337 82.658 88.4166 79.9698ZM24.2176 80.6C23.8501 80.0055 22.1361 78.6571 20.4086 77.6037C18.6811 76.5503 17.8231 75.6868 18.5019 75.6848C19.7816 75.6809 26.7995 81.5999 25.5767 81.6517C25.1966 81.6679 24.585 81.1946 24.2176 80.6ZM93.5386 80.3042C91.9329 79.0848 91.9986 78.819 94.4582 76.586L97.1071 74.1811L95.466 76.6129C94.2525 78.4111 94.1099 79.3882 94.9188 80.3629C96.2956 82.0219 95.771 81.9995 93.5386 80.3042ZM70.8466 73.9901C70.8032 71.6851 71.1236 69.5791 71.5586 69.3102C71.9937 69.0413 72.1861 70.4773 71.9862 72.5012C71.4395 78.0354 70.9352 78.6943 70.8466 73.9901ZM77.8466 76.2644C77.8032 75.2102 78.0395 74.6196 78.3718 74.9519C78.7041 75.2842 78.7396 76.1467 78.4508 76.8686C78.1315 77.6663 77.8946 77.4293 77.8466 76.2644ZM43.7676 70.0854C43.7676 66.379 41.1303 60.7624 39.302 60.5751C38.7331 60.5168 37.1426 60.4492 35.7676 60.4248C33.4975 60.3846 33.4731 60.3424 35.5021 59.9659C36.7311 59.7378 39.1699 57.5554 40.9216 55.1161C44.4975 50.1367 44.7833 49.9049 44.0934 52.5431C43.8059 53.6424 44.2325 54.6454 45.1347 54.9917C47.1404 55.7613 50.0621 61.4712 49.3713 63.2713C48.3571 65.9142 45.1914 64.7931 43.469 61.181C42.551 59.256 41.3427 57.681 40.7838 57.681C39.3223 57.681 39.4794 58.1675 42.2676 62.2761C43.8664 64.632 44.7676 67.3517 44.7676 69.8205C44.7676 71.9437 44.5426 73.681 44.2676 73.681C43.9926 73.681 43.7676 72.063 43.7676 70.0854ZM64.3746 71.2525C64.0265 69.8655 61.8568 66.9196 59.5531 64.7059C57.2494 62.4922 55.6433 60.6811 55.9841 60.6811C56.3249 60.6811 57.4281 60.4136 58.4355 60.0867C59.8777 59.6188 59.9642 59.7076 58.8422 60.504C57.6751 61.3324 57.9684 61.9795 60.4625 64.0781C63.4341 66.5786 66.5495 72.2322 65.522 73.2598C65.239 73.5428 64.7227 72.6395 64.3746 71.2525ZM89.7676 72.8953C86.2643 72.4786 82.7841 70.5805 81.655 68.4707C80.3617 66.0542 81.2554 66.2149 83.6996 68.8385C85.4923 70.7628 85.7788 70.8154 86.3504 69.3258C86.7029 68.4072 86.4358 66.9864 85.757 66.1684C84.7508 64.956 84.8225 64.6811 86.1451 64.6811C88.2272 64.6811 88.1946 63.8268 86.0175 61.3379C85.055 60.2376 84.83 59.6662 85.5175 60.0682C87.1335 61.0131 87.1335 59.4753 85.5175 57.7344C84.5127 56.6519 84.5249 56.5336 85.5792 57.1315C86.3006 57.5406 87.3123 58.9837 87.8273 60.3384C88.3423 61.6931 89.1835 62.542 89.6965 62.2249C90.2095 61.9078 90.8803 62.0546 91.1871 62.551C91.4939 63.0475 90.85 63.6877 89.7562 63.9737C88.6026 64.2754 87.7674 65.3386 87.7674 66.5056C87.7674 67.6121 87.4943 69.2292 87.1604 70.0992C86.6685 71.381 87.321 71.681 90.6014 71.681C92.8278 71.681 94.8679 72.0346 95.135 72.4668C95.638 73.2807 94.0645 73.4064 89.7676 72.8953ZM76.7286 68.6811C76.62 67.8561 76.5956 66.8102 76.6744 66.3568C76.7532 65.9034 76.3876 65.7982 75.8619 66.1231C75.3363 66.4479 74.6619 66.3184 74.3633 65.8352C73.8933 65.0747 75.2831 64.9992 79.2681 65.5688C79.8707 65.6549 79.8309 66.0037 79.1681 66.4464C78.563 66.8505 77.8111 67.8561 77.497 68.6811C76.9894 70.0144 76.904 70.0144 76.7286 68.6811ZM108.768 66.7453C112.893 66.3966 116.943 65.7081 117.768 65.2152C120.519 63.5711 123.733 60.1959 123.75 58.9311C123.76 58.2436 124.233 57.6811 124.803 57.6811C126.215 57.6811 124.576 60.5983 121.609 63.3645C118.153 66.5871 114.374 67.6991 107.452 67.5302L101.267 67.3792L108.768 66.7453ZM13.5176 66.0188C14.2051 65.7414 15.3301 65.7414 16.0176 66.0188C16.7051 66.2962 16.1426 66.5232 14.7676 66.5232C13.3926 66.5232 12.8301 66.2962 13.5176 66.0188ZM7.53698 64.6118C4.69698 62.9569 0.767578 55.2964 0.767578 51.4148C0.767578 48.1342 2.77598 44.6812 4.68398 44.6812C6.19918 44.6812 8.87908 48.5013 9.86248 52.0629C10.412 54.053 11.3081 55.6812 11.854 55.6812C12.8529 55.6812 11.7772 57.247 8.48738 60.5817C6.62888 62.4655 7.25358 63.667 10.7676 64.968C12.1009 65.4616 12.1009 65.5287 10.7676 65.5718C9.94258 65.5985 8.48878 65.1664 7.53698 64.6118ZM5.58098 52.5078C5.2224 48.8769 3.23298 47.6391 2.32978 50.4849C1.52911 53.0076 2.61373 55.6808 4.43798 55.6808C5.47298 55.6808 5.80368 54.7627 5.58098 52.5078ZM22.268 63.8008C30.9401 60.6534 31.3925 60.5796 26.268 63.1485C23.518 64.5271 20.368 65.6461 19.268 65.6352C18.168 65.6243 19.518 64.7989 22.268 63.8008ZM92.851 64.3162C93.0802 64.1157 94.27 63.4303 95.4952 62.7931C97.3674 61.8193 97.6295 61.8775 97.1382 63.1576C96.8167 63.9954 95.6269 64.6807 94.494 64.6807C93.3612 64.6807 92.6218 64.5167 92.851 64.3162ZM114.018 62.9914C114.98 62.7399 116.555 62.7399 117.518 62.9914C118.48 63.2429 117.693 63.4487 115.768 63.4487C113.843 63.4487 113.055 63.2429 114.018 62.9914ZM73.768 60.7397C73.768 60.1572 74.218 59.6807 74.768 59.6807C76.0494 59.6807 76.0494 60.3888 74.768 61.1807C74.218 61.5206 73.768 61.3222 73.768 60.7397ZM115.147 60.1356C115.403 59.4695 115.107 58.4195 114.49 57.8025C113.661 56.9734 113.663 56.6806 114.497 56.6806C115.117 56.6806 116.228 57.2833 116.965 58.0199C117.701 58.7566 118.971 59.5854 119.786 59.8618C120.601 60.1383 119.786 60.5855 117.975 60.8557C115.656 61.2016 114.82 60.9887 115.147 60.1356ZM51.374 57.798C49.7252 55.9761 49.8151 55.9317 54.1595 56.4213C56.6286 56.6996 59.7923 56.6403 61.19 56.2896C64.6354 55.4248 70.7634 49.8963 72.374 46.1996C73.0974 44.5394 73.7069 43.8811 73.7284 44.7367C73.7758 46.6198 69.3983 52.7319 66.9975 54.1349C65.5405 54.9863 65.8198 55.2462 68.7676 55.7818L72.2676 56.4177L68.2676 56.5612C66.0676 56.6401 61.7926 57.369 58.7676 58.181C55.7426 58.993 53.2248 59.6626 53.1726 59.6691C53.1203 59.6756 52.3111 58.8335 51.374 57.798ZM61.0386 59.0765C61.3709 58.7442 62.2334 58.7087 62.9553 58.9976C63.753 59.3168 63.5161 59.5538 62.3511 59.6018C61.2969 59.6452 60.7063 59.4088 61.0386 59.0765ZM70.0386 59.0765C70.3709 58.7442 71.2334 58.7087 71.9553 58.9976C72.753 59.3168 72.5161 59.5538 71.3511 59.6018C70.2969 59.6452 69.7063 59.4088 70.0386 59.0765ZM29.6406 56.9307C28.3711 55.3119 28.4181 55.2907 30.2681 56.6478C31.3681 57.4546 32.4556 58.2422 32.6848 58.3978C32.914 58.5534 32.6316 58.6807 32.0573 58.6807C31.483 58.6807 30.3955 57.8932 29.6406 56.9307ZM34.079 55.3797C34.0201 54.1702 34.1895 53.746 34.4554 54.437C34.7213 55.1279 35.3505 55.4389 35.8535 55.1279C37.2271 54.279 36.9534 55.2821 35.4771 56.5073C34.4916 57.3252 34.1607 57.0583 34.079 55.3797ZM76.268 56.6233C81.3336 55.5755 85.4266 55.6225 81.268 56.6807C79.618 57.1006 76.918 57.4456 75.268 57.4474C72.7457 57.4502 72.9049 57.319 76.268 56.6233ZM107.847 55.264C107.804 54.2098 108.04 53.6192 108.372 53.9515C108.704 54.2838 108.74 55.1463 108.451 55.8682C108.132 56.666 107.895 56.429 107.847 55.264ZM19.518 54.9403C24.0242 54.6843 25.768 54.1965 25.768 53.192C25.768 52.4257 26.1055 51.5901 26.518 51.3352C26.9305 51.0803 27.268 51.9537 27.268 53.2762C27.268 55.6049 27.0473 55.6746 20.268 55.488L13.268 55.2953L19.518 54.9403ZM126.018 52.1807C126.007 49.9807 126.203 48.963 126.453 49.919C126.703 50.8751 126.712 52.6751 126.473 53.919C126.234 55.1629 126.029 54.3807 126.018 52.1807ZM113.432 54.014C112.192 52.7738 112.756 51.6199 115.015 50.773C116.704 50.1401 117.421 50.3351 117.89 51.5552C118.234 52.4492 118.32 53.5181 118.081 53.9306C117.543 54.86 114.336 54.9176 113.432 54.014ZM116.765 52.6807C116.765 52.1307 116.342 51.6807 115.824 51.6807C115.307 51.6807 114.605 52.1307 114.265 52.6807C113.925 53.2307 114.349 53.6807 115.206 53.6807C116.064 53.6807 116.765 53.2307 116.765 52.6807ZM36.7653 50.7397C36.7653 48.1037 35.0296 47.2232 33.0295 48.8446C31.8543 49.7973 31.5968 49.822 32.1323 48.9307C33.0497 47.4037 32.3172 47.3505 29.4495 48.7359C27.3395 49.7552 27.3313 49.7382 29.2064 48.2359C30.274 47.3805 31.9615 46.6807 32.9564 46.6807C33.9512 46.6807 34.7653 46.2129 34.7653 45.6413C34.7653 45.012 35.2785 45.0813 36.066 45.8169C37.3224 46.9906 38.3298 52.6807 37.2812 52.6807C36.9974 52.6807 36.7653 51.8073 36.7653 50.7397ZM53.2903 51.3001C51.829 48.0248 58.3691 38.6811 62.1228 38.6811C62.721 38.6811 62.0978 39.446 60.7379 40.3809C57.1995 42.8135 55.3487 45.6621 54.6973 49.6785C54.2261 52.5835 53.9862 52.8598 53.2903 51.3001ZM45.7654 50.6324C45.7654 50.0559 44.3029 48.9485 42.5154 48.1715C40.7279 47.3945 39.9528 46.7413 40.7929 46.7198C41.633 46.6983 43.2888 47.359 44.4724 48.188C46.4734 49.5896 46.6549 49.5369 47.0587 47.438C47.3745 45.7967 47.5302 46.0677 47.6292 48.4307C47.7041 50.2182 47.3154 51.6807 46.7654 51.6807C46.2154 51.6807 45.7654 51.209 45.7654 50.6324ZM84.0504 47.2355C86.5915 44.7303 89.2786 42.6806 90.0217 42.6806C90.7648 42.6806 92.8993 41.1056 94.7651 39.1806C96.6309 37.2556 98.5537 35.6806 99.038 35.6806C99.5223 35.6806 98.515 36.8616 96.7996 38.305C95.0842 39.7484 93.9384 41.1872 94.2535 41.5022C94.5685 41.8173 92.9001 42.7817 90.5457 43.6455C88.1354 44.5298 85.8461 46.1628 85.3061 47.383C84.7786 48.5748 83.2408 50.054 81.8887 50.6701C80.1338 51.4697 80.7524 50.4869 84.0504 47.2355ZM106.844 50.264C106.801 49.2098 107.037 48.6192 107.37 48.9515C107.702 49.2838 107.737 50.1463 107.449 50.8682C107.129 51.666 106.892 51.429 106.844 50.264ZM87.5154 48.0184C88.2029 47.741 89.3279 47.741 90.0154 48.0184C90.7029 48.2958 90.1404 48.5228 88.7654 48.5228C87.3904 48.5228 86.8279 48.2958 87.5154 48.0184ZM113.515 48.0184C114.203 47.741 115.328 47.741 116.015 48.0184C116.703 48.2958 116.14 48.5228 114.765 48.5228C113.39 48.5228 112.828 48.2958 113.515 48.0184ZM105.224 46.6142C104.862 46.0276 104.78 45.3332 105.042 45.0711C105.304 44.809 105.785 45.2889 106.111 46.1376C106.787 47.8997 106.21 48.2097 105.224 46.6142ZM113.592 44.965C115.142 44.6695 115.73 44.0305 115.353 43.0492C115.036 42.222 115.222 41.8446 115.777 42.1878C117.901 43.5003 116.757 45.6803 114.016 45.5445C111.546 45.4222 111.503 45.3632 113.592 44.965ZM122.533 43.6808C121.846 42.5808 120.91 41.6808 120.453 41.6808C119.997 41.6808 118.947 41.0054 118.122 40.1799C117.198 39.2564 115.591 38.8776 113.943 39.1953C111.734 39.6211 111.616 39.5521 113.265 38.8012C115.182 37.9288 115.161 37.8475 112.765 36.8492C111.39 36.2763 110.85 35.7791 111.565 35.7442C114.638 35.5943 122.078 40.5285 123.893 43.9196C125.19 46.3434 124.074 46.1473 122.533 43.6808ZM47.7694 44.2989C47.7673 43.8138 48.6523 41.9823 49.7359 40.229C51.5299 37.3262 51.5696 36.846 50.1792 34.861C49.214 33.483 47.5975 32.6809 45.7857 32.6809C42.6276 32.6809 37.0789 36.7763 35.7347 40.0993C35.1159 41.629 34.8758 41.7477 34.8292 40.5472C34.7943 39.6487 36.5671 37.2862 38.7687 35.2972C43.3962 31.1166 47.637 30.552 50.7827 33.6978C52.6555 35.5706 53.0093 35.6063 55.733 34.1978C57.3464 33.3635 60.8603 32.6809 63.5418 32.6809C67.565 32.6809 68.8409 33.1506 70.8415 35.3687L73.2658 38.0565L70.3809 35.8687C66.0771 32.6048 58.9159 32.8421 54.7019 36.3882C52.9323 37.8773 50.6494 40.4648 49.6289 42.1382C48.6084 43.8116 47.7715 44.7839 47.7694 44.2989ZM68.3944 41.1568C68.0727 40.3185 66.7871 39.2221 65.5374 38.7202C63.9265 38.0732 63.7538 37.7891 64.9438 37.7442C66.7287 37.6768 69.7652 40.2011 69.7652 41.7522C69.7652 43.1708 69.0476 42.8591 68.3944 41.1568ZM72.9231 40.6808C72.9231 39.3058 73.15 38.7433 73.4275 39.4308C73.7049 40.1183 73.7049 41.2433 73.4275 41.9308C73.1501 42.6183 72.9231 42.0558 72.9231 40.6808ZM107.036 40.0766C107.368 39.7443 108.231 39.7088 108.953 39.9977C109.751 40.3169 109.514 40.5538 108.349 40.6018C107.294 40.6452 106.704 40.4089 107.036 40.0766ZM103.004 34.9937C103.96 34.7434 105.76 34.7343 107.004 34.9735C108.247 35.2127 107.465 35.4175 105.265 35.4286C103.065 35.4397 102.047 35.244 103.004 34.9937Z" fill="#CC000D"/>
<path d="M21.8411 95.5932C19.4055 95.1154 16.9305 94.2364 16.3411 93.6399C15.571 92.8605 16.0616 92.8544 18.0845 93.6182C21.9272 95.0691 24.0773 94.9892 23.1171 93.4311C22.6726 92.7098 23.4054 92.8733 24.8498 93.8177C26.2265 94.7178 28.234 95.6781 29.3111 95.9517C32.8034 96.8388 26.6965 96.5457 21.8411 95.5932ZM32.0401 96.0769C32.3724 95.7446 33.2349 95.7091 33.9568 95.998C34.7545 96.3172 34.5176 96.5541 33.3526 96.6021C32.2984 96.6455 31.7078 96.4092 32.0401 96.0769ZM11.2691 89.6811C9.68828 88.0311 8.61988 86.6811 8.89488 86.6811C9.16988 86.6811 10.6883 88.0311 12.2691 89.6811C13.8499 91.3311 14.9183 92.6811 14.6433 92.6811C14.3683 92.6811 12.8499 91.3311 11.2691 89.6811ZM64.3401 90.7953C64.039 90.3081 60.7966 90.15 57.1348 90.444C49.8827 91.0261 44.3558 89.1051 43.2488 85.6174C42.2516 82.4756 38.6776 78.6811 36.7155 78.6811C35.4693 78.6811 34.5685 79.6318 34.1194 81.4212C33.4228 84.1965 30.769 87.674 30.769 85.8115C30.769 85.2546 31.2408 84.5075 31.8176 84.151C33.2697 83.2535 30.9073 80.499 29.4057 81.3387C28.7805 81.6883 28.8877 81.3459 29.644 80.5776C30.798 79.4054 31.0988 79.4002 31.5154 80.5451C31.8652 81.5064 32.685 81.065 34.2913 79.0505C36.4784 76.3077 36.6491 76.2625 38.4986 77.9363C41.1487 80.3346 42.4948 80.1405 40.2689 77.681C38.0412 75.2193 36.0597 75.1478 33.3476 77.431C31.271 79.1791 31.2708 79.1786 33.1738 76.931C35.3764 74.3293 37.9859 74.0326 39.7688 76.181C41.4125 78.1614 42.5246 78.0769 43.0535 75.931C43.2908 74.9684 43.4715 76.5662 43.4551 79.4815C43.4324 83.5265 43.9133 85.2699 45.4851 86.8417C47.7365 89.0931 54.942 90.3563 59.2971 89.2631C61.6239 88.6791 61.7826 88.3926 60.6066 86.9003C59.8706 85.9662 60.7654 86.4347 62.5951 87.9415C66.3664 91.0471 66.8735 91.1722 68.6276 89.431C69.6373 88.4287 69.7548 88.5278 69.2206 89.931C68.5257 91.7565 65.2874 92.3298 64.3389 90.7952L64.3401 90.7953ZM88.0401 90.0769C88.3724 89.7446 89.2349 89.7091 89.9568 89.998C90.7545 90.3172 90.5176 90.5541 89.3526 90.6021C88.2984 90.6455 87.7078 90.4092 88.0401 90.0769ZM63.4461 86.8767C61.6393 84.8802 61.1814 83.1999 62.7 84.1384C63.9942 84.9383 65.0828 82.8851 65.8589 78.1811L66.5188 74.1811L66.6439 78.0861L66.7691 81.9911L71.2691 78.1811L69.4069 80.3839C67.5662 82.5612 67.5748 82.5942 70.1569 83.2423C73.0136 83.9593 73.6488 86.1296 71.2691 87.0427C70.2156 87.447 69.7647 86.958 69.7544 85.3997C69.7399 83.2153 69.7206 83.2185 68.5044 85.6021C66.8794 88.787 65.4915 89.1367 63.4461 86.8767ZM67.2746 86.6722C67.6175 86.1173 67.5949 84.7078 67.2243 83.5401C66.6946 81.8712 66.3631 81.7126 65.6751 82.799C64.5095 84.6395 64.5313 87.6811 65.7101 87.6811C66.2276 87.6811 66.9317 87.227 67.2746 86.6722ZM80.2686 86.812C77.1171 84.8563 72.3399 79.7765 73.0161 79.1003C73.2336 78.8828 75.7404 80.9495 78.5868 83.693C81.4331 86.4365 83.651 88.6795 83.5153 88.6775C83.3796 88.6754 81.9186 87.8359 80.2686 86.812ZM27.1046 84.8478C26.1984 83.3968 26.2525 83.0145 27.364 83.0145C28.1364 83.0145 28.7684 83.8395 28.7684 84.8478C28.7684 85.8561 28.6517 86.6811 28.509 86.6811C28.3663 86.6811 27.7343 85.8561 27.1046 84.8478ZM6.89958 81.1311C6.66355 75.6625 10.8169 73.9011 14.4449 77.9311C17.8707 81.7365 18.3255 83.3894 14.9737 79.8528C11.0161 75.6771 8.48721 75.967 7.64961 80.6924C7.03407 84.1652 7.03062 84.1672 6.89958 81.1311ZM88.4166 79.9698C89.3767 78.436 90.2744 77.0177 90.4114 76.8181C90.5483 76.6184 90.5926 77.3551 90.5097 78.4551C90.4269 79.5551 89.5292 80.9734 88.5149 81.6068C86.7372 82.717 86.7337 82.658 88.4166 79.9698ZM24.2176 80.6C23.8501 80.0054 22.1361 78.6571 20.4086 77.6037C18.6811 76.5503 17.8231 75.6868 18.5019 75.6848C19.7816 75.6809 26.7995 81.5999 25.5767 81.6517C25.1966 81.6678 24.585 81.1946 24.2176 80.6ZM93.5386 80.3042C91.9329 79.0848 91.9986 78.819 94.4582 76.586L97.1071 74.1811L95.466 76.6129C94.2525 78.411 94.1099 79.3881 94.9188 80.3629C96.2956 82.0219 95.771 81.9995 93.5386 80.3042ZM70.8466 73.9901C70.8032 71.6851 71.1236 69.5791 71.5586 69.3102C71.9937 69.0413 72.1861 70.4773 71.9862 72.5012C71.4395 78.0354 70.9352 78.6943 70.8466 73.9901ZM77.8466 76.2644C77.8032 75.2102 78.0395 74.6196 78.3718 74.9519C78.7041 75.2841 78.7396 76.1467 78.4508 76.8686C78.1315 77.6663 77.8946 77.4293 77.8466 76.2644ZM43.7676 70.0854C43.7676 66.379 41.1303 60.7624 39.302 60.5751C38.7331 60.5168 37.1426 60.4492 35.7676 60.4248C33.4975 60.3846 33.4731 60.3424 35.5021 59.9658C36.7311 59.7378 39.1699 57.5553 40.9216 55.116C44.279 50.4409 45.077 49.7111 44.1283 52.1833C43.8112 53.0096 44.3973 54.4721 45.4308 55.4333C46.4643 56.3946 46.8728 56.8435 46.3387 56.431C44.8059 55.2473 43.5792 55.5565 44.3552 56.931C44.9197 57.931 44.7915 57.931 43.7142 56.931C41.8046 55.1586 40.2694 55.3759 41.7865 57.2039C42.8433 58.4772 42.7814 58.6236 41.4089 58.0969C39.1884 57.2448 39.3339 57.9533 42.2675 62.2761C43.8663 64.632 44.7675 67.3517 44.7675 69.8205C44.7675 71.9437 44.5425 73.681 44.2675 73.681C43.9925 73.681 43.7676 72.063 43.7676 70.0854ZM64.3746 71.2525C64.0265 69.8655 61.8568 66.9196 59.5531 64.7059C57.2494 62.4922 55.6433 60.6811 55.9841 60.6811C56.3249 60.6811 57.4281 60.4136 58.4355 60.0867C59.8777 59.6188 59.9642 59.7075 58.8422 60.504C57.6751 61.3324 57.9684 61.9795 60.4625 64.0781C63.4341 66.5786 66.5495 72.2322 65.522 73.2598C65.239 73.5427 64.7227 72.6395 64.3746 71.2525ZM89.7676 72.8953C86.2643 72.4786 82.7841 70.5805 81.655 68.4707C80.3617 66.0542 81.2554 66.2149 83.6996 68.8385C85.4923 70.7628 85.7788 70.8154 86.3504 69.3257C86.7029 68.4072 86.4358 66.9863 85.757 66.1683C84.7508 64.9559 84.8225 64.681 86.1451 64.681C88.2272 64.681 88.1946 63.8268 86.0175 61.3378C85.055 60.2375 84.83 59.6661 85.5175 60.0681C87.1335 61.0131 87.1335 59.4753 85.5175 57.7343C84.5127 56.6518 84.5249 56.5335 85.5792 57.1315C86.3006 57.5406 87.3123 58.9837 87.8273 60.3384C88.3423 61.6931 89.1835 62.542 89.6965 62.2249C90.2095 61.9078 90.8803 62.0546 91.1871 62.551C91.4939 63.0475 90.85 63.6877 89.7562 63.9737C88.6026 64.2754 87.7674 65.3386 87.7674 66.5056C87.7674 67.6121 87.4943 69.2292 87.1604 70.0992C86.6685 71.381 87.321 71.681 90.6014 71.681C92.8278 71.681 94.8679 72.0346 95.135 72.4667C95.638 73.2807 94.0645 73.4063 89.7676 72.8953ZM76.7286 68.6811C76.62 67.8561 76.5956 66.8102 76.6744 66.3568C76.7532 65.9034 76.3876 65.7982 75.8619 66.1231C75.3363 66.4479 74.6619 66.3184 74.3633 65.8352C73.8933 65.0747 75.2831 64.9992 79.2681 65.5688C79.8707 65.6549 79.8309 66.0037 79.1681 66.4464C78.563 66.8505 77.8111 67.8561 77.497 68.6811C76.9894 70.0144 76.904 70.0144 76.7286 68.6811ZM108.768 66.7453C112.893 66.3966 116.943 65.7081 117.768 65.2152C120.519 63.5711 123.733 60.1959 123.75 58.9311C123.76 58.2436 124.233 57.6811 124.803 57.6811C126.215 57.6811 124.576 60.5983 121.609 63.3645C118.153 66.5871 114.374 67.6991 107.452 67.5302L101.267 67.3792L108.768 66.7453ZM13.5176 66.0188C14.2051 65.7413 15.3301 65.7413 16.0176 66.0188C16.7051 66.2962 16.1426 66.5231 14.7676 66.5231C13.3926 66.5231 12.8301 66.2962 13.5176 66.0188ZM7.53698 64.6118C4.69698 62.9569 0.767578 55.2964 0.767578 51.4148C0.767578 48.1342 2.77598 44.6812 4.68398 44.6812C6.19918 44.6812 8.87908 48.5013 9.86248 52.0629C10.412 54.053 11.3081 55.6812 11.854 55.6812C12.8529 55.6812 11.7772 57.247 8.48738 60.5817C6.62888 62.4655 7.25358 63.667 10.7676 64.968C12.1009 65.4616 12.1009 65.5287 10.7676 65.5718C9.94258 65.5985 8.48878 65.1664 7.53698 64.6118ZM5.58098 52.5078C5.2224 48.8769 3.23298 47.6391 2.32978 50.4849C1.52911 53.0076 2.61373 55.6808 4.43798 55.6808C5.47298 55.6808 5.80368 54.7627 5.58098 52.5078ZM22.268 63.8008C30.9401 60.6534 31.3925 60.5796 26.268 63.1485C23.518 64.5271 20.368 65.6461 19.268 65.6352C18.168 65.6243 19.518 64.7989 22.268 63.8008ZM43.95 62.1808C43.3235 60.8058 42.9745 59.6808 43.1745 59.6808C43.3744 59.6808 44.2752 60.8058 45.1761 62.1808C46.077 63.5558 46.426 64.6808 45.9516 64.6808C45.4772 64.6808 44.5765 63.5558 43.95 62.1808ZM48.4993 62.6006C48.8529 61.2484 49.3062 60.7951 49.5559 61.544C49.7964 62.2654 49.5177 63.3312 48.9366 63.9123C48.1945 64.6544 48.0643 64.2639 48.4993 62.6006ZM92.8513 64.3162C93.0805 64.1157 94.2703 63.4303 95.4955 62.7931C97.3677 61.8193 97.6298 61.8775 97.1385 63.1576C96.817 63.9954 95.6272 64.6807 94.4943 64.6807C93.3615 64.6807 92.6221 64.5167 92.8513 64.3162ZM114.018 62.9914C114.981 62.7399 116.556 62.7399 117.518 62.9914C118.481 63.2429 117.693 63.4487 115.768 63.4487C113.843 63.4487 113.056 63.2429 114.018 62.9914ZM73.7683 60.7397C73.7683 60.1572 74.2183 59.6807 74.7683 59.6807C76.0497 59.6807 76.0497 60.3888 74.7683 61.1807C74.2183 61.5206 73.7683 61.3222 73.7683 60.7397ZM115.147 60.1356C115.403 59.4695 114.993 58.3051 114.376 57.6881C113.547 56.859 113.434 56.4518 114.268 56.4518C114.889 56.4518 116.228 57.2834 116.965 58.02C117.701 58.7567 118.971 59.5855 119.786 59.8619C120.601 60.1384 119.786 60.5856 117.975 60.8558C115.656 61.2017 114.82 60.9887 115.147 60.1356ZM51.3743 57.798C49.7255 55.9761 49.8154 55.9317 54.1598 56.4213C56.6289 56.6996 59.7926 56.6403 61.1903 56.2896C64.6357 55.4248 70.7637 49.8963 72.3743 46.1996C73.0977 44.5394 73.7072 43.8811 73.7287 44.7367C73.7761 46.6198 69.3986 52.7319 66.9978 54.1349C65.5408 54.9863 65.8201 55.2462 68.7679 55.7818L72.2679 56.4177L68.2679 56.5612C66.0679 56.6401 61.7929 57.369 58.7679 58.181C55.7429 58.993 53.2251 59.6626 53.1729 59.6691C53.1206 59.6756 52.3114 58.8335 51.3743 57.798ZM61.0389 59.0765C61.3712 58.7443 62.2337 58.7087 62.9556 58.9976C63.7533 59.3168 63.5164 59.5538 62.3514 59.6018C61.2972 59.6452 60.7066 59.4088 61.0389 59.0765ZM70.0389 59.0765C70.3712 58.7443 71.2337 58.7087 71.9556 58.9976C72.7533 59.3168 72.5164 59.5538 71.3514 59.6018C70.2972 59.6452 69.7066 59.4088 70.0389 59.0765ZM29.6409 56.9307C28.3714 55.3119 28.4184 55.2907 30.2684 56.6478C31.3684 57.4546 32.4559 58.2422 32.6851 58.3978C32.9143 58.5534 32.6319 58.6807 32.0576 58.6807C31.4833 58.6807 30.3958 57.8932 29.6409 56.9307ZM34.0793 55.3797C34.0204 54.1702 34.1898 53.746 34.4557 54.437C34.7216 55.1279 35.3508 55.4389 35.8538 55.1279C37.2274 54.279 36.9537 55.2821 35.4774 56.5073C34.4919 57.3252 34.161 57.0583 34.0793 55.3797ZM76.2683 56.6233C81.3339 55.5755 85.4269 55.6225 81.2683 56.6807C79.6183 57.1006 76.9183 57.4456 75.2683 57.4474C72.746 57.4502 72.9052 57.319 76.2683 56.6233ZM107.847 55.264C107.804 54.2098 108.04 53.6192 108.372 53.9515C108.705 54.2838 108.74 55.1463 108.451 55.8682C108.132 56.666 107.895 56.429 107.847 55.264ZM19.5183 54.9403C24.0245 54.6843 25.7683 54.1965 25.7683 53.192C25.7683 52.4257 26.1058 51.5901 26.5183 51.3352C26.9308 51.0803 27.2683 51.9537 27.2683 53.2762C27.2683 55.6049 27.0476 55.6746 20.2683 55.488L13.2683 55.2953L19.5183 54.9403ZM126.018 52.1807C126.007 49.9807 126.203 48.963 126.453 49.919C126.703 50.8751 126.713 52.6751 126.473 53.919C126.234 55.1629 126.029 54.3807 126.018 52.1807ZM113.432 54.014C112.192 52.7738 112.756 51.6199 115.016 50.773C116.704 50.1401 117.421 50.3351 117.89 51.5552C118.234 52.4492 118.32 53.5181 118.081 53.9306C117.544 54.86 114.336 54.9176 113.432 54.014ZM116.766 52.6807C116.766 52.1307 116.342 51.6807 115.825 51.6807C115.307 51.6807 114.605 52.1307 114.266 52.6807C113.926 53.2307 114.349 53.6807 115.207 53.6807C116.064 53.6807 116.766 53.2307 116.766 52.6807ZM36.7656 50.7397C36.7656 48.1037 35.0299 47.2232 33.0298 48.8446C31.8546 49.7973 31.5971 49.822 32.1326 48.9307C33.05 47.4037 32.3175 47.3505 29.4498 48.7359C27.3398 49.7552 27.3316 49.7382 29.2067 48.2359C30.2743 47.3805 31.9618 46.6807 32.9567 46.6807C33.9515 46.6807 34.7656 46.2129 34.7656 45.6413C34.7656 45.012 35.2789 45.0813 36.0663 45.8169C37.3227 46.9906 38.3301 52.6807 37.2815 52.6807C36.9977 52.6807 36.7656 51.8073 36.7656 50.7397ZM53.2906 51.3001C51.8293 48.0248 58.3694 38.6811 62.1231 38.6811C62.7213 38.6811 62.0981 39.446 60.7382 40.3809C57.1998 42.8135 55.349 45.6621 54.6976 49.6785C54.2264 52.5835 53.9865 52.8598 53.2906 51.3001ZM45.7657 50.6324C45.7657 50.0559 44.3032 48.9485 42.5157 48.1715C40.7282 47.3945 39.9531 46.7413 40.7932 46.7198C41.6333 46.6983 43.2891 47.359 44.4727 48.188C46.4737 49.5896 46.6552 49.5369 47.059 47.438C47.3748 45.7967 47.5305 46.0677 47.6295 48.4307C47.7044 50.2182 47.3157 51.6807 46.7657 51.6807C46.2157 51.6807 45.7657 51.209 45.7657 50.6324ZM84.0507 47.2355C86.5918 44.7303 89.2789 42.6806 90.022 42.6806C90.7651 42.6806 92.8996 41.1056 94.7654 39.1806C96.6312 37.2556 98.554 35.6806 99.0383 35.6806C99.5226 35.6806 98.5153 36.8616 96.7999 38.305C95.0845 39.7484 93.9387 41.1872 94.2538 41.5022C94.5688 41.8173 92.9004 42.7817 90.546 43.6455C88.1357 44.5298 85.8464 46.1628 85.3064 47.383C84.7789 48.5748 83.2411 50.054 81.889 50.6701C80.1341 51.4697 80.7527 50.4869 84.0507 47.2355ZM106.845 50.264C106.801 49.2098 107.038 48.6192 107.37 48.9515C107.702 49.2838 107.738 50.1463 107.449 50.8682C107.13 51.666 106.893 51.429 106.845 50.264ZM87.5157 48.0184C88.2032 47.741 89.3282 47.741 90.0157 48.0184C90.7032 48.2958 90.1407 48.5228 88.7657 48.5228C87.3907 48.5228 86.8282 48.2958 87.5157 48.0184ZM113.516 48.0184C114.203 47.741 115.328 47.741 116.016 48.0184C116.703 48.2958 116.141 48.5228 114.766 48.5228C113.391 48.5228 112.828 48.2958 113.516 48.0184ZM105.225 46.6142C104.862 46.0276 104.78 45.3332 105.042 45.0711C105.304 44.809 105.785 45.2889 106.111 46.1376C106.787 47.8997 106.211 48.2097 105.225 46.6142ZM113.592 44.965C115.143 44.6695 115.73 44.0305 115.354 43.0492C115.036 42.222 115.222 41.8446 115.777 42.1878C117.901 43.5003 116.757 45.6803 114.016 45.5445C111.546 45.4222 111.503 45.3632 113.592 44.965ZM122.534 43.6808C121.847 42.5808 120.911 41.6808 120.454 41.6808C119.997 41.6808 118.947 41.0054 118.122 40.1799C117.198 39.2564 115.591 38.8776 113.943 39.1953C111.735 39.6211 111.616 39.5521 113.266 38.8012C115.182 37.9288 115.162 37.8475 112.766 36.8492C111.391 36.2763 110.851 35.7791 111.565 35.7442C114.638 35.5943 122.078 40.5285 123.893 43.9196C125.191 46.3434 124.074 46.1473 122.534 43.6808ZM47.7697 44.2989C47.7676 43.8138 48.6526 41.9823 49.7362 40.229C51.5302 37.3262 51.5699 36.846 50.1795 34.861C49.2143 33.483 47.5978 32.6809 45.786 32.6809C42.6279 32.6809 37.0792 36.7763 35.735 40.0993C35.1162 41.629 34.8761 41.7477 34.8295 40.5472C34.7946 39.6487 36.5674 37.2862 38.769 35.2972C43.3965 31.1166 47.6373 30.552 50.783 33.6978C52.6558 35.5706 53.0096 35.6063 55.7333 34.1978C57.3467 33.3635 60.8606 32.6809 63.5421 32.6809C67.5653 32.6809 68.8412 33.1506 70.8418 35.3687L73.2661 38.0565L70.3812 35.8687C66.0774 32.6048 58.9162 32.8421 54.7022 36.3882C52.9326 37.8773 50.6497 40.4648 49.6292 42.1382C48.6087 43.8116 47.7718 44.7839 47.7697 44.2989ZM68.3947 41.1568C68.073 40.3185 66.7874 39.2221 65.5377 38.7202C63.9268 38.0732 63.7541 37.7891 64.9441 37.7442C66.729 37.6768 69.7655 40.2011 69.7655 41.7522C69.7655 43.1708 69.0479 42.8591 68.3947 41.1568ZM72.9234 40.6808C72.9234 39.3058 73.1504 38.7433 73.4278 39.4308C73.7052 40.1183 73.7052 41.2433 73.4278 41.9308C73.1504 42.6183 72.9234 42.0558 72.9234 40.6808ZM107.036 40.0766C107.369 39.7443 108.231 39.7088 108.953 39.9977C109.751 40.3169 109.514 40.5538 108.349 40.6018C107.295 40.6452 106.704 40.4089 107.036 40.0766ZM103.004 34.9937C103.96 34.7434 105.76 34.7343 107.004 34.9735C108.248 35.2127 107.466 35.4175 105.266 35.4286C103.066 35.4397 102.048 35.244 103.004 34.9937Z" fill="#2D2F2B"/>
<path d="M22.0192 94.992C22.9817 94.7405 24.5567 94.7405 25.5192 94.992C26.4817 95.2435 25.6942 95.4493 23.7692 95.4493C21.8442 95.4493 21.0567 95.2435 22.0192 94.992ZM62.7692 90.098C61.3942 89.335 60.6618 88.7042 61.1416 88.696C61.6214 88.6879 61.4136 87.8938 60.6798 86.9313C59.9459 85.9688 60.6784 86.3627 62.3074 87.8065C63.9364 89.2504 65.9442 90.6774 66.7692 90.9776C68.1025 91.4628 68.1025 91.5213 66.7692 91.5044C65.9442 91.4939 64.1442 90.861 62.7692 90.098ZM50.0402 90.0771C50.3725 89.7449 51.235 89.7093 51.9569 89.9982C52.7546 90.3174 52.5176 90.5544 51.3527 90.6024C50.2985 90.6458 49.7079 90.4094 50.0402 90.0771ZM45.1744 87.4313L43.2694 85.1813L45.7694 87.1706C47.1444 88.2647 48.4569 89.2772 48.6861 89.4206C48.9152 89.564 48.6475 89.6813 48.0911 89.6813C47.5346 89.6813 46.2222 88.6688 45.1744 87.4313ZM27.3334 84.9744C26.7907 83.5492 26.9055 83.4343 27.8932 84.4146C28.5766 85.093 28.8838 85.8998 28.5759 86.2077C28.2681 86.5156 27.7089 85.9606 27.3334 84.9744ZM32.1485 83.3018C32.2746 82.4424 32.6571 81.4599 32.9984 81.1185C33.3397 80.7772 33.5158 81.2012 33.3896 82.0607C33.2635 82.9201 32.881 83.9026 32.5397 84.244C32.1984 84.5853 32.0223 84.1613 32.1485 83.3018ZM67.4265 83.2322C67.0555 82.2656 67.351 81.9675 68.3137 82.337C69.1076 82.6416 69.5081 83.2937 69.2038 83.7861C68.4374 85.0262 68.0711 84.9121 67.4265 83.2322ZM41.7835 80.5979C41.7919 79.2687 42.2413 77.5062 42.7821 76.6812C43.4739 75.6259 43.575 76.2188 43.1231 78.6812C42.3317 82.994 41.7631 83.8075 41.7835 80.5979ZM65.8475 78.2646C65.804 77.2104 66.0404 76.6198 66.3727 76.9521C66.705 77.2844 66.7405 78.1469 66.4516 78.8688C66.1324 79.6665 65.8955 79.4295 65.8475 78.2646ZM9.51847 76.019C10.206 75.7416 11.331 75.7416 12.0185 76.019C12.706 76.2964 12.1435 76.5234 10.7685 76.5234C9.39347 76.5234 8.83097 76.2964 9.51847 76.019ZM82.3325 68.9744C81.7898 67.5492 81.9046 67.4343 82.8923 68.4146C83.5757 69.0929 83.8829 69.8998 83.5751 70.2077C83.2672 70.5156 82.708 69.9606 82.3325 68.9744ZM76.8472 68.2646C76.8037 67.2104 77.0401 66.6198 77.3724 66.9521C77.7047 67.2844 77.7402 68.1469 77.4513 68.8688C77.1321 69.6665 76.8952 69.4295 76.8472 68.2646ZM86.8472 66.2646C86.8037 65.2104 87.0401 64.6198 87.3724 64.9521C87.7047 65.2844 87.7402 66.1469 87.4513 66.8688C87.1321 67.6665 86.8952 67.4295 86.8472 66.2646ZM114.039 63.0771C114.371 62.7448 115.234 62.7093 115.956 62.9981C116.754 63.3174 116.517 63.5543 115.352 63.6023C114.298 63.6457 113.707 63.4094 114.039 63.0771ZM3.95917 59.9509C1.41367 56.376 1.19427 55.2474 3.19406 56.0148C5.13986 56.7615 6.99206 54.2945 6.59396 51.4863C6.08726 47.9119 2.44896 48.4229 1.64536 52.1813L1.00385 55.1813L0.885536 52.3656C0.586026 45.2377 5.74754 43.2235 8.40474 49.4313C9.28758 51.4938 10.3235 53.8273 10.7069 54.6169C11.5581 56.37 9.71083 60.6628 8.10064 60.6735C7.45897 60.6778 6.75784 61.2096 6.54264 61.8553C6.32741 62.501 5.16477 61.644 3.95917 59.9509ZM120.769 62.2883C120.769 62.0721 121.468 61.6273 122.321 61.2997C123.211 60.9582 123.612 61.1259 123.262 61.6928C122.675 62.643 120.769 63.0982 120.769 62.2883ZM116.094 60.0233C116.456 59.6614 115.85 58.7633 115.167 57.8877C114.285 57.2368 114.544 56.5946 116.019 57.5537C118.025 59.1265 121.29 60.6813 119.578 60.6813C118.936 60.6813 115.732 60.3852 116.094 60.0233ZM39.0119 58.1694C40.4679 56.5801 40.9617 56.4899 42.0119 57.6209C43.0243 58.7111 43.0171 58.8321 41.9752 58.2419C41.2636 57.8389 39.9136 58.0857 38.9752 58.7904C37.439 59.944 37.4427 59.8821 39.0119 58.1694ZM57.3459 57.714C57.938 57.1168 60.863 56.4303 63.8459 56.1885L69.2693 55.7488L64.4192 56.6465C61.7517 57.1402 58.8267 57.8267 57.9192 58.172C56.7362 58.6221 56.5739 58.4925 57.3459 57.714ZM42.5079 56.2812C40.9357 55.088 40.9114 54.8081 42.2808 53.6716C43.5819 52.5918 43.7096 52.6725 43.1219 54.204C42.6981 55.3083 42.8187 55.7687 43.4323 55.3894C43.9841 55.0483 44.4356 55.4245 44.4356 56.2253C44.4356 57.0261 44.3981 57.667 44.3523 57.6495C44.3065 57.632 43.4764 57.0163 42.5079 56.2812ZM113.228 53.6148C112.865 53.0282 112.839 52.2782 113.169 51.9481C113.499 51.618 113.769 51.9254 113.769 52.6312C113.769 53.4225 114.536 53.7138 115.77 53.3912C116.871 53.1033 117.52 53.2758 117.211 53.7745C116.445 55.0144 114.033 54.9177 113.228 53.6148ZM53.4659 51.2882C53.0567 50.247 52.9575 49.1595 53.2454 48.8715C54.1575 47.9594 54.96 49.454 54.5778 51.353C54.2276 53.0933 54.174 53.0902 53.4659 51.2882ZM46.9639 49.1813C46.9435 47.5313 47.1509 46.7352 47.4249 47.4123C47.6988 48.0893 47.7155 49.4393 47.4619 50.4123C47.2084 51.3852 46.9842 50.8313 46.9639 49.1813ZM32.7689 47.6947C32.7689 46.5198 35.6173 45.627 36.2256 46.6113C36.512 47.0747 35.8514 47.688 34.7576 47.974C33.6637 48.26 32.7689 48.1343 32.7689 47.6947ZM114.04 48.0771C114.372 47.7448 115.235 47.7093 115.957 47.9982C116.754 48.3174 116.517 48.5544 115.352 48.6024C114.298 48.6458 113.708 48.4094 114.04 48.0771ZM112.769 45.2979C112.769 45.0871 113.669 44.6792 114.769 44.3916C115.869 44.1039 116.769 44.2764 116.769 44.7749C116.769 45.2734 115.869 45.6813 114.769 45.6813C113.669 45.6813 112.769 45.5088 112.769 45.2979ZM92.7691 41.7403C92.7691 41.2228 93.2139 40.5244 93.7576 40.1884C94.3245 39.8381 94.4921 40.2395 94.1506 41.1294C93.4858 42.8618 92.7691 43.1788 92.7691 41.7403ZM114.276 37.6927C113.926 37.1259 114.327 36.9582 115.217 37.2997C116.949 37.9645 117.266 38.6813 115.828 38.6813C115.31 38.6813 114.612 38.2364 114.276 37.6927ZM51.3331 35.9744C50.7904 34.5492 50.9052 34.4343 51.8929 35.4146C52.5763 36.093 52.8835 36.8998 52.5756 37.2077C52.2678 37.5156 51.7086 36.9606 51.3331 35.9744Z" fill="#060705"/>
</svg>
