<svg width="16" height="16" viewBox="0 0 16 16" fill="none" xmlns="http://www.w3.org/2000/svg">
<path d="M14.4932 1.5V4.75339L11.2465 8.00007V4.73991L14.4932 1.5Z" fill="#A596FF"/>
<path d="M7.99988 1.5V4.75339L11.2466 8.00007V4.73991L7.99988 1.5Z" fill="#F1F1F1" fill-opacity="0.945098"/>
<path d="M14.4999 14.4932H11.2465L7.99979 11.2466H11.2599L14.4999 14.4932Z" fill="#A596FF"/>
<path d="M14.4999 8H11.2465L7.99979 11.2467H11.2599L14.4999 8Z" fill="#F1F1F1" fill-opacity="0.945098"/>
<path d="M1.50676 14.4999V11.2464L4.75345 7.99973V11.2599L1.50676 14.4999Z" fill="#A596FF"/>
<path d="M8.00006 14.4999V11.2464L4.75337 7.99973V11.2599L8.00006 14.4999Z" fill="#F1F1F1" fill-opacity="0.945098"/>
<path d="M1.50014 1.50662H4.75352L8.00021 4.75331H4.74013L1.50014 1.50662Z" fill="#A596FF"/>
<path d="M1.50014 7.99986H4.75352L8.00021 4.75317H4.74013L1.50014 7.99986Z" fill="#F1F1F1" fill-opacity="0.945098"/>
</svg>
