<svg width="16" height="16" viewBox="0 0 16 16" fill="none" xmlns="http://www.w3.org/2000/svg">
<path d="M14.5 13.131L12.4703 9.88638C12.7897 9.17283 12.9676 8.38232 12.9676 7.54974C12.9676 4.38302 10.4007 1.8158 7.23395 1.8158C4.06722 1.8158 1.5 4.38302 1.5 7.54974C1.5 10.7165 4.06722 13.2837 7.23395 13.2837C8.06123 13.2837 8.84676 13.107 9.55719 12.7917L8.54794 11.1736C8.13788 11.3225 7.69542 11.4038 7.23364 11.4038C5.10514 11.4038 3.37984 9.67855 3.37984 7.55005C3.37984 5.42156 5.10514 3.69626 7.23364 3.69626C9.36213 3.69626 11.0874 5.42156 11.0874 7.55005C11.0874 8.48733 10.7525 9.34608 10.1966 10.0141L11.2255 11.664C11.2286 11.6612 11.2314 11.6581 11.2345 11.655L12.8165 14.1842L14.4997 13.1313L14.5 13.131Z" fill="#C92027"/>
</svg>
