<svg width="16" height="16" viewBox="0 0 16 16" fill="none" xmlns="http://www.w3.org/2000/svg">
<path d="M7.96576 6.88602L8.33783 7.88406C8.37715 7.99511 8.41945 8.12934 8.4472 8.22879C8.47961 8.12695 8.51394 7.99661 8.5556 7.87625L8.89349 6.88602H9.21967L8.75677 8.09012C8.52545 8.66841 8.38469 8.96726 8.17181 9.14774C8.06459 9.24567 7.93346 9.31345 7.79193 9.34598L7.71576 9.08719C7.81465 9.05467 7.90642 9.00359 7.98627 8.9368C8.09918 8.84478 8.18897 8.72719 8.24799 8.59402C8.26056 8.57101 8.26917 8.54569 8.27338 8.51981C8.27072 8.49199 8.26399 8.46439 8.25287 8.43875L7.62299 6.88113H7.96088L7.96576 6.88602ZM3.21576 8.40555C3.23016 8.52899 3.21947 8.65446 3.18451 8.77371C3.14952 8.89301 3.09147 9.00472 3.01263 9.10086C2.86612 9.22724 2.67779 9.29488 2.48431 9.29227L2.45209 9.06082C2.57688 9.06089 2.69724 9.01445 2.78998 8.93094C2.87314 8.83375 2.90619 8.70184 2.90619 8.29715V6.87332H3.21576V8.40555ZM6.69037 6.84793C7.10236 6.84793 7.41302 7.19348 7.41302 7.70731C7.41286 8.31342 7.04025 8.6145 6.63763 8.61453C6.53456 8.61913 6.43183 8.59671 6.33978 8.55008C6.24779 8.50345 6.16948 8.43372 6.11224 8.34793V9.27371H5.80658V7.43875C5.80658 7.22368 5.80676 7.04756 5.79291 6.88797H6.07025L6.08392 7.17703C6.14572 7.07265 6.23514 6.98686 6.34174 6.92899C6.4484 6.87117 6.56916 6.8428 6.69037 6.84793ZM11.5546 6.85574C12.1098 6.85589 12.2489 7.34154 12.249 7.65164C12.2519 7.69941 12.2519 7.74743 12.249 7.7952H11.0595C11.0548 7.87053 11.0647 7.94596 11.0908 8.01688C11.118 8.09077 11.1611 8.15846 11.2167 8.21414C11.2724 8.26972 11.3392 8.31293 11.413 8.34012C11.4869 8.36731 11.566 8.37762 11.6445 8.37137C11.8032 8.37492 11.961 8.34498 12.1074 8.28348L12.1611 8.51492C11.9814 8.58893 11.7879 8.62475 11.5937 8.61942C11.4805 8.62716 11.3668 8.60987 11.2607 8.56961C11.1548 8.52939 11.0589 8.46675 10.9794 8.38602C10.8998 8.30511 10.8383 8.20762 10.7997 8.10086C10.7613 7.99429 10.7463 7.88073 10.7558 7.76785C10.7558 7.25865 11.0593 6.85574 11.5546 6.85574ZM5.22552 8.10574L5.21869 8.11453C5.21869 8.28803 5.2185 8.44323 5.23236 8.57742H4.95697L4.93842 8.30203C4.88084 8.39943 4.79885 8.48015 4.70013 8.53543C4.60134 8.59072 4.48911 8.61835 4.37592 8.61649C4.1075 8.61637 3.78802 8.47085 3.78802 7.87625V6.88797H4.09857V7.81375C4.09857 8.13547 4.19839 8.35086 4.47845 8.35086C4.53595 8.35143 4.59318 8.34035 4.64642 8.31863C4.69969 8.29687 4.74831 8.2646 4.789 8.22391C4.82966 8.1832 4.86199 8.13461 4.88373 8.08133C4.90543 8.02804 4.91657 7.9709 4.91595 7.91336V6.87625H5.22552V8.10574ZM10.0439 6.88699H10.4882V7.11844H10.0439V8.02957C10.0439 8.23788 10.1041 8.35867 10.2753 8.35867C10.3359 8.35963 10.3963 8.35287 10.455 8.33817L10.4697 8.56961C10.3813 8.60022 10.2877 8.61369 10.1943 8.61063C10.1323 8.61451 10.0696 8.60566 10.0117 8.58328C9.95385 8.56094 9.90156 8.52613 9.85834 8.48172C9.76406 8.35562 9.72129 8.19782 9.73822 8.04129V7.11551H9.47455V6.88406H9.74213V6.47195L10.0439 6.40067V6.88699ZM13.5478 7.13504C13.5125 7.13096 13.4767 7.13095 13.4413 7.13504C13.3364 7.13914 13.2363 7.18087 13.1601 7.2532C13.0839 7.32561 13.0368 7.42387 13.0273 7.52859C13.0187 7.57585 13.0142 7.62412 13.0136 7.67215V8.57254H12.7079V7.41434L12.7197 7.41238C12.7197 7.21348 12.7189 7.04234 12.705 6.88504H12.9833V7.21609H12.997C13.0262 7.11394 13.0869 7.02269 13.1699 6.95633C13.2527 6.8902 13.3541 6.85102 13.4599 6.845C13.489 6.84118 13.5187 6.84119 13.5478 6.845V7.13504ZM6.60052 7.09402C6.47139 7.10461 6.35058 7.16185 6.26068 7.25516C6.17087 7.34845 6.11801 7.47148 6.11224 7.60086V7.88992C6.11309 7.93186 6.11753 7.97382 6.12592 8.01492C6.15219 8.11764 6.21203 8.20876 6.29584 8.27371C6.37964 8.33865 6.48279 8.3735 6.58881 8.37332C6.91511 8.37332 7.1073 8.10741 7.10736 7.72098C7.10736 7.38306 6.92688 7.09402 6.60052 7.09402ZM11.5361 7.05496C11.4091 7.06415 11.2898 7.11994 11.2021 7.21219C11.1143 7.30467 11.064 7.42748 11.0615 7.55496H11.9667C11.9757 7.49308 11.9706 7.42944 11.9531 7.36942C11.9356 7.30947 11.9059 7.25365 11.8652 7.20633C11.8244 7.15895 11.7735 7.12122 11.7167 7.095C11.6601 7.06883 11.5985 7.05534 11.5361 7.05496Z" fill="url(#paint0_linear_5128_6099)"/>
<path d="M12.8668 9.44949C12.4995 10.4426 11.8372 11.2994 10.9684 11.9046C10.0993 12.5097 9.06539 12.8343 8.00644 12.8343C6.94759 12.8342 5.91444 12.5097 5.0455 11.9046C4.1765 11.2994 3.51339 10.4427 3.14609 9.44949C4.09271 10.5535 5.92344 11.301 8.00644 11.3011C10.0988 11.3011 11.9225 10.5535 12.8668 9.44949ZM8.00644 2.58914C9.06539 2.58914 10.0993 2.91368 10.9684 3.51883C11.8373 4.12398 12.5005 4.98075 12.8678 5.97391C11.9211 4.86988 10.0895 4.12234 8.00644 4.12234C5.91426 4.12243 4.09268 4.86762 3.14609 5.97391C3.51339 4.98071 4.1765 4.12398 5.0455 3.51883C5.91439 2.91377 6.94766 2.58921 8.00644 2.58914Z" fill="url(#paint1_linear_5128_6099)"/>
<path d="M12.5835 2.2372C12.593 2.39269 12.556 2.54749 12.4772 2.68188C12.3984 2.81628 12.2814 2.92417 12.1411 2.99183C12.0008 3.05949 11.8435 3.08385 11.6893 3.0618C11.5351 3.03975 11.3909 2.9723 11.2752 2.86803C11.1594 2.76377 11.0773 2.62741 11.0394 2.47632C11.0014 2.32524 11.0092 2.16627 11.0619 2.01967C11.1146 1.87307 11.2098 1.74547 11.3352 1.65313C11.4607 1.5608 11.6108 1.5079 11.7664 1.50117C11.8685 1.49556 11.9706 1.51017 12.067 1.54417C12.1634 1.57817 12.2521 1.63088 12.328 1.69929C12.4039 1.76769 12.4656 1.85042 12.5095 1.94274C12.5533 2.03505 12.5785 2.13512 12.5835 2.2372Z" fill="url(#paint2_linear_5128_6099)"/>
<path d="M5.13913 13.4502C5.15135 13.646 5.10499 13.8411 5.00595 14.0105C4.90691 14.1799 4.75968 14.316 4.58302 14.4015C4.40636 14.4869 4.20826 14.5178 4.01398 14.4902C3.81968 14.4627 3.63799 14.3779 3.49205 14.2467C3.34611 14.1156 3.24252 13.9439 3.19449 13.7536C3.14646 13.5634 3.15616 13.3631 3.22234 13.1784C3.28853 12.9936 3.40822 12.8328 3.56615 12.7163C3.72409 12.5998 3.91312 12.533 4.10916 12.5244C4.23758 12.5175 4.3661 12.536 4.48738 12.5788C4.60865 12.6216 4.7203 12.6879 4.81595 12.7739C4.9116 12.8599 4.98937 12.9639 5.04482 13.0799C5.10027 13.1959 5.13232 13.3218 5.13913 13.4502Z" fill="url(#paint3_linear_5128_6099)"/>
<path d="M3.38295 3.87078C3.27071 3.87388 3.16005 3.84372 3.0649 3.7841C2.96975 3.72448 2.89436 3.63805 2.84819 3.53569C2.80203 3.43333 2.78716 3.31961 2.80546 3.20883C2.82376 3.09804 2.87441 2.99514 2.95104 2.91306C3.02766 2.83098 3.12685 2.7734 3.23612 2.74754C3.34539 2.72168 3.45986 2.72871 3.56515 2.76774C3.67043 2.80678 3.76183 2.87607 3.82783 2.9669C3.89384 3.05774 3.93152 3.16606 3.93613 3.27825C3.94051 3.42996 3.88488 3.57727 3.78132 3.6882C3.67775 3.79914 3.5346 3.86475 3.38295 3.87078Z" fill="url(#paint4_linear_5128_6099)"/>
<defs>
<linearGradient id="paint0_linear_5128_6099" x1="7.99994" y1="6.40067" x2="7.99994" y2="9.34598" gradientUnits="userSpaceOnUse">
<stop stop-color="white"/>
<stop offset="1" stop-color="#E4E4E4"/>
</linearGradient>
<linearGradient id="paint1_linear_5128_6099" x1="8.00693" y1="2.58914" x2="8.00693" y2="12.8343" gradientUnits="userSpaceOnUse">
<stop stop-color="#FF8D43"/>
<stop offset="1" stop-color="#F17829"/>
</linearGradient>
<linearGradient id="paint2_linear_5128_6099" x1="11.8003" y1="1.5" x2="11.8003" y2="3.0697" gradientUnits="userSpaceOnUse">
<stop stop-color="#A4A4A4"/>
<stop offset="1" stop-color="#767677"/>
</linearGradient>
<linearGradient id="paint3_linear_5128_6099" x1="4.15274" y1="12.523" x2="4.15274" y2="14.5" gradientUnits="userSpaceOnUse">
<stop stop-color="#D2D2D2"/>
<stop offset="1" stop-color="#9E9E9E"/>
</linearGradient>
<linearGradient id="paint4_linear_5128_6099" x1="3.36711" y1="2.73224" x2="3.36711" y2="3.87099" gradientUnits="userSpaceOnUse">
<stop stop-color="#848484"/>
<stop offset="1" stop-color="#616262"/>
</linearGradient>
</defs>
</svg>
