<svg width="128" height="128" viewBox="0 0 128 128" fill="none" xmlns="http://www.w3.org/2000/svg">
<g clip-path="url(#clip0_5027_124441)">
<rect x="0.0864258" y="0.0859375" width="127.506" height="128" rx="18.7488" fill="url(#paint0_linear_5027_124441)"/>
<path d="M113.26 21.8185L113.26 82.8073L98.3309 82.8073L98.3309 94.302L84.3352 94.302L84.3352 106.328L40.5435 106.328L40.5435 94.302L27.4808 94.302L27.4808 82.8073L14.4181 82.8073L14.4181 21.8185L113.26 21.8185Z" fill="#37474F"/>
<rect x="28.7593" y="27.9297" width="6.42061" height="22.0576" fill="#FDD835"/>
<rect x="39.4319" y="27.9297" width="6.42061" height="22.0576" fill="#FDD835"/>
<rect x="50.104" y="27.9297" width="6.42061" height="22.0576" fill="#FDD835"/>
<rect x="60.7773" y="27.9297" width="6.42061" height="22.0576" fill="#FDD835"/>
<rect x="71.4502" y="27.9297" width="6.42061" height="22.0576" fill="#FDD835"/>
<rect x="82.1226" y="27.9297" width="6.42061" height="22.0576" fill="#FDD835"/>
<rect x="92.7949" y="27.9297" width="6.42061" height="22.0576" fill="#FDD835"/>
</g>
<defs>
<linearGradient id="paint0_linear_5027_124441" x1="63.8393" y1="0.0859375" x2="63.8393" y2="128.086" gradientUnits="userSpaceOnUse">
<stop stop-color="#D3D7DD"/>
<stop offset="1" stop-color="#888C90"/>
</linearGradient>
<clipPath id="clip0_5027_124441">
<rect width="128" height="128" fill="white"/>
</clipPath>
</defs>
</svg>
