<svg width="128" height="128" viewBox="0 0 128 128" fill="none" xmlns="http://www.w3.org/2000/svg">
<path d="M14.9995 88.6094V114.866C14.9995 122.115 36.6396 127.994 63.3352 127.994C90.0308 127.994 111.671 122.115 111.671 114.866V88.6094C111.671 95.8591 90.0308 101.738 63.3352 101.738C36.6396 101.738 14.9995 95.8591 14.9995 88.6094Z" fill="url(#paint0_linear_5027_125427)"/>
<path d="M14.9995 56.3828V82.6392C14.9995 89.8889 36.6396 95.7674 63.3352 95.7674C90.0308 95.7674 111.671 89.8889 111.671 82.6392V56.3828C111.671 63.6325 90.0308 69.511 63.3352 69.511C36.6396 69.511 14.9995 63.6325 14.9995 56.3828Z" fill="url(#paint1_linear_5027_125427)"/>
<path d="M14.9995 24.1562V50.4127C14.9995 57.6623 36.6396 63.5409 63.3352 63.5409C90.0308 63.5409 111.671 57.6623 111.671 50.4127V24.1562C111.671 31.4059 90.0308 37.2845 63.3352 37.2845C36.6396 37.2845 14.9995 31.4059 14.9995 24.1562Z" fill="url(#paint2_linear_5027_125427)"/>
<path d="M63.6646 -0.0078125C57.2738 -0.00781253 50.9456 0.410116 45.0413 1.22211C39.137 2.03411 33.7722 3.22426 29.2532 4.72463C24.7342 6.225 21.1496 8.0062 18.7039 9.96653C16.2583 11.9269 14.9995 14.0279 14.9995 16.1498C14.9995 18.2716 16.2583 20.3727 18.7039 22.333C21.1496 24.2933 24.7342 26.0745 29.2532 27.5749C33.7722 29.0753 39.137 30.2654 45.0413 31.0774C50.9456 31.8894 57.2738 32.3074 63.6646 32.3074C70.0554 32.3074 76.3836 31.8894 82.2879 31.0774C88.1923 30.2654 93.5571 29.0753 98.076 27.5749C102.595 26.0745 106.18 24.2933 108.625 22.333C111.071 20.3727 112.33 18.2716 112.33 16.1498C112.33 14.0279 111.071 11.9269 108.625 9.96653C106.18 8.0062 102.595 6.225 98.076 4.72463C93.5571 3.22426 88.1923 2.03411 82.2879 1.22211C76.3836 0.410116 70.0554 -0.00781253 63.6646 -0.0078125Z" fill="url(#paint3_linear_5027_125427)"/>
<defs>
<linearGradient id="paint0_linear_5027_125427" x1="63.3352" y1="88.6094" x2="63.3352" y2="127.994" gradientUnits="userSpaceOnUse">
<stop stop-color="#D3D7DD"/>
<stop offset="1" stop-color="#888C90"/>
</linearGradient>
<linearGradient id="paint1_linear_5027_125427" x1="63.3352" y1="56.3828" x2="63.3352" y2="95.7674" gradientUnits="userSpaceOnUse">
<stop stop-color="#D3D7DD"/>
<stop offset="1" stop-color="#888C90"/>
</linearGradient>
<linearGradient id="paint2_linear_5027_125427" x1="63.3352" y1="24.1562" x2="63.3352" y2="63.5409" gradientUnits="userSpaceOnUse">
<stop stop-color="#D3D7DD"/>
<stop offset="1" stop-color="#888C90"/>
</linearGradient>
<linearGradient id="paint3_linear_5027_125427" x1="63.6646" y1="-0.0078125" x2="63.6646" y2="32.3074" gradientUnits="userSpaceOnUse">
<stop stop-color="#888C90"/>
<stop offset="1" stop-color="#D3D7DD"/>
</linearGradient>
</defs>
</svg>
