<svg width="128" height="128" viewBox="0 0 128 128" fill="none" xmlns="http://www.w3.org/2000/svg">
<path d="M64 21C55.5954 21 47.2731 21.5496 39.5083 22.6175C31.7434 23.6853 24.6881 25.2505 18.7452 27.2237C12.8022 29.1968 8.08801 31.5393 4.87171 34.1174C1.65541 36.6954 0 39.4586 0 42.249C0 45.0395 1.65541 47.8026 4.87171 50.3807C8.08801 52.9587 12.8022 55.3012 18.7452 57.2743C24.6881 59.2475 31.7434 60.8127 39.5083 61.8805C47.2731 62.9484 55.5954 63.498 64 63.498C72.4046 63.498 80.7269 62.9484 88.4917 61.8805C96.2566 60.8127 103.312 59.2475 109.255 57.2743C115.198 55.3012 119.912 52.9587 123.128 50.3807C126.345 47.8026 128 45.0395 128 42.249C128 39.4586 126.345 36.6954 123.128 34.1174C119.912 31.5393 115.198 29.1968 109.255 27.2237C103.312 25.2505 96.2566 23.6853 88.4917 22.6175C80.7269 21.5496 72.4046 21 64 21Z" fill="url(#paint0_linear_5027_140113)"/>
<path d="M0 56.5862C0 56.5173 0.0800934 56.4792 0.133777 56.5224C4.31467 59.889 9.9553 62.5956 16.3554 64.7302C22.8333 66.8908 30.3583 68.5532 38.4746 69.6745C46.6055 70.7978 55.2742 71.3704 64 71.3704C72.7258 71.3704 81.3945 70.7978 89.5254 69.6745C97.6417 68.5532 105.167 66.8908 111.645 64.7302C118.045 62.5956 123.685 59.889 127.866 56.5224C127.92 56.4792 128 56.5173 128 56.5862V85.1549C128 96.9427 99.347 106.501 64 106.501C28.653 106.501 0 96.9427 0 85.1549V56.5862Z" fill="url(#paint1_linear_5027_140113)"/>
<line x1="25.8642" y1="49.8005" x2="101.873" y2="33.3167" stroke="#37474F" stroke-width="4.94887"/>
<line y1="-2.47444" x2="77.7758" y2="-2.47444" transform="matrix(0.977283 0.211941 0.211941 -0.977283 26 32)" stroke="#37474F" stroke-width="4.94887"/>
<path d="M119.449 85.5307V76.8946L117.542 77.9426V75.6797L115.917 76.2945V74.0315L112.992 75.1381V77.4011L111.475 77.9748V80.2378L109.959 80.8116V90.2768C111.9 89.5597 114.737 88.2626 115.632 87.7412C116.528 87.2197 119.091 85.9957 119.449 85.5307Z" fill="#37474F"/>
<path d="M101.732 92.5004V83.6887L99.2446 84.2028V81.9796L96.9122 82.4616V80.2384L92.7139 81.106V83.3292L90.5371 83.7791V86.0023L88.3602 86.4522V95.3277C88.3602 95.3277 91.9867 95.4234 95.7905 94.5598C101.732 93.2107 101.732 92.5004 101.732 92.5004Z" fill="#37474F"/>
<ellipse cx="2.36069" cy="2.48604" rx="2.36069" ry="2.48604" transform="matrix(0.891007 0.453991 0 1 9.57031 70.9531)" fill="#46FF90"/>
<ellipse cx="2.36069" cy="2.48604" rx="2.36069" ry="2.48604" transform="matrix(0.891007 0.453991 0 1 17.7031 75.0938)" fill="#46FF90"/>
<ellipse cx="2.36069" cy="2.48604" rx="2.36069" ry="2.48604" transform="matrix(0.891007 0.453991 0 1 17.7031 85.0391)" fill="#46FF90"/>
<ellipse cx="2.36069" cy="2.48604" rx="2.36069" ry="2.48604" transform="matrix(0.891007 0.453991 0 1 9.57031 80.8984)" fill="#46FF90"/>
<path d="M62.1797 96.2638V87.1536H64.8857V84.8346H67.4226V82.5156H71.989V84.8346H74.3567V87.1536H76.7245V96.2638C76.7245 96.2638 72.2921 96.4786 69.4521 96.4786C66.612 96.4786 62.1797 96.2638 62.1797 96.2638Z" fill="#37474F"/>
<path d="M37.3086 94.3091V86.164L39.9267 86.4549V83.5459L42.2606 83.8368V81.2188L46.6173 81.8005V84.4186L48.9444 84.7095V87.6185L50.9807 87.9094L50.6898 96.3453C50.6898 96.3453 43.9992 95.5017 43.7083 95.4726C43.4174 95.4435 37.3086 94.3091 37.3086 94.3091Z" fill="#37474F"/>
<defs>
<linearGradient id="paint0_linear_5027_140113" x1="64" y1="21" x2="64" y2="63.498" gradientUnits="userSpaceOnUse">
<stop stop-color="#D3D7DD"/>
<stop offset="1" stop-color="#888C90"/>
</linearGradient>
<linearGradient id="paint1_linear_5027_140113" x1="64" y1="56.4141" x2="64" y2="106.501" gradientUnits="userSpaceOnUse">
<stop stop-color="#D3D7DD"/>
<stop offset="1" stop-color="#888C90"/>
</linearGradient>
</defs>
</svg>
