<svg width="128" height="128" viewBox="0 0 128 128" fill="none" xmlns="http://www.w3.org/2000/svg">
<path d="M14.9996 88.6094V114.866C14.9996 122.115 36.6397 127.994 63.3353 127.994C90.0309 127.994 111.671 122.115 111.671 114.866V88.6094C111.671 95.8591 90.0309 101.738 63.3353 101.738C36.6397 101.738 14.9996 95.8591 14.9996 88.6094Z" fill="url(#paint0_linear_5027_144305)"/>
<path d="M14.9996 56.3828V82.6392C14.9996 89.8889 36.6397 95.7674 63.3353 95.7674C90.0309 95.7674 111.671 89.8889 111.671 82.6392V56.3828C111.671 63.6325 90.0309 69.511 63.3353 69.511C36.6397 69.511 14.9996 63.6325 14.9996 56.3828Z" fill="url(#paint1_linear_5027_144305)"/>
<path d="M14.9996 24.1562V50.4127C14.9996 57.6623 36.6397 63.5409 63.3353 63.5409C90.0309 63.5409 111.671 57.6623 111.671 50.4127V24.1562C111.671 31.4059 90.0309 37.2845 63.3353 37.2845C36.6397 37.2845 14.9996 31.4059 14.9996 24.1562Z" fill="url(#paint2_linear_5027_144305)"/>
<path d="M63.6647 -0.0078125C57.2739 -0.00781253 50.9457 0.410116 45.0414 1.22211C39.1371 2.03411 33.7723 3.22426 29.2533 4.72463C24.7343 6.225 21.1497 8.0062 18.704 9.96653C16.2584 11.9269 14.9996 14.0279 14.9996 16.1498C14.9996 18.2716 16.2584 20.3727 18.704 22.333C21.1497 24.2933 24.7343 26.0745 29.2533 27.5749C33.7723 29.0753 39.1371 30.2654 45.0414 31.0774C50.9457 31.8894 57.2739 32.3074 63.6647 32.3074C70.0555 32.3074 76.3837 31.8894 82.2881 31.0774C88.1924 30.2654 93.5572 29.0753 98.0762 27.5749C102.595 26.0745 106.18 24.2933 108.625 22.333C111.071 20.3727 112.33 18.2716 112.33 16.1498C112.33 14.0279 111.071 11.9269 108.625 9.96653C106.18 8.0062 102.595 6.225 98.0762 4.72463C93.5572 3.22426 88.1924 2.03411 82.2881 1.22211C76.3837 0.410116 70.0555 -0.00781253 63.6647 -0.0078125Z" fill="url(#paint3_linear_5027_144305)"/>
<defs>
<linearGradient id="paint0_linear_5027_144305" x1="63.3353" y1="88.6094" x2="63.3353" y2="127.994" gradientUnits="userSpaceOnUse">
<stop stop-color="#D3D7DD"/>
<stop offset="1" stop-color="#888C90"/>
</linearGradient>
<linearGradient id="paint1_linear_5027_144305" x1="63.3353" y1="56.3828" x2="63.3353" y2="95.7674" gradientUnits="userSpaceOnUse">
<stop stop-color="#D3D7DD"/>
<stop offset="1" stop-color="#888C90"/>
</linearGradient>
<linearGradient id="paint2_linear_5027_144305" x1="63.3353" y1="24.1562" x2="63.3353" y2="63.5409" gradientUnits="userSpaceOnUse">
<stop stop-color="#D3D7DD"/>
<stop offset="1" stop-color="#888C90"/>
</linearGradient>
<linearGradient id="paint3_linear_5027_144305" x1="63.6647" y1="-0.0078125" x2="63.6647" y2="32.3074" gradientUnits="userSpaceOnUse">
<stop stop-color="#888C90"/>
<stop offset="1" stop-color="#D3D7DD"/>
</linearGradient>
</defs>
</svg>
