<svg width="128" height="128" viewBox="0 0 128 128" fill="none" xmlns="http://www.w3.org/2000/svg">
<g clip-path="url(#clip0_5027_125378)">
<path d="M123.95 101.074L91.3147 82.284C88.1482 80.4607 84.1522 80.9895 81.5684 83.573L75.1402 90.0012C72.6627 92.479 68.7177 92.7042 65.9877 90.5075C60.9477 86.452 55.9102 81.9395 50.9855 77.0148C46.0608 72.09 41.548 67.0525 37.4928 62.0125C35.296 59.2825 35.5213 55.3375 37.999 52.8601L44.4273 46.4318C47.011 43.8481 47.5395 39.8523 45.7163 36.6858L26.9258 4.04965C24.2725 -0.558595 17.9686 -1.39234 14.2086 2.36765L4.52208 12.0539C-8.10115 24.6771 6.60908 59.8533 37.3778 90.622C68.1465 121.391 103.323 136.101 115.946 123.478L125.632 113.791C129.392 110.031 128.559 103.727 123.95 101.074Z" fill="url(#paint0_linear_5027_125378)"/>
<path d="M11.4824 5.10071L38.6241 52.2416L44.4264 46.4394C47.0101 43.8556 47.5383 39.8599 45.7151 36.6932L26.9249 4.05746C24.2716 -0.550783 17.9677 -1.38453 14.2077 2.37546L11.4824 5.10071Z" fill="#02B520"/>
<path d="M122.906 116.522L125.632 113.796C129.392 110.036 128.558 103.732 123.95 101.079L91.314 82.2889C88.1475 80.4657 84.1515 80.9944 81.5677 83.5779L75.6143 89.5309L122.906 116.522Z" fill="#02B520"/>
<path d="M37.998 52.8655L44.4265 46.4373C47.0102 43.8535 47.5385 39.8578 45.7152 36.691L41.0937 28.6641C36.2085 32.8858 31.4642 36.9545 28.689 39.7298C25.1995 43.2193 26.482 48.5573 37.492 62.018C35.2955 59.2885 35.5205 55.3433 37.998 52.8655Z" fill="#02B520"/>
<path d="M45.7159 36.6832L41.0944 28.6562C37.1179 32.0925 33.2539 35.4147 30.4502 38.0332L38.6247 52.2312L44.4269 46.429C47.0109 43.8457 47.5392 39.8497 45.7159 36.6832Z" fill="#00A51C"/>
<path d="M123.95 101.077L119.231 98.3594C114.877 103.334 101.495 118.443 97.2413 121.106C94.7606 122.659 90.6153 124.364 86.1318 124.385C99.1713 129.308 110.033 129.393 115.946 123.48L125.632 113.794C129.392 110.034 128.558 103.73 123.95 101.077Z" fill="#02B520"/>
<path d="M123.95 101.077L119.23 98.3594C117.3 100.564 113.596 104.761 109.699 108.982L122.907 116.519L125.632 113.794C129.392 110.034 128.558 103.73 123.95 101.077Z" fill="#1AC737"/>
</g>
<defs>
<linearGradient id="paint0_linear_5027_125378" x1="64" y1="0" x2="64" y2="128" gradientUnits="userSpaceOnUse">
<stop stop-color="#67FF81"/>
<stop offset="1" stop-color="#08D82B"/>
</linearGradient>
<clipPath id="clip0_5027_125378">
<rect width="128" height="128" fill="white"/>
</clipPath>
</defs>
</svg>
