<svg width="133" height="128" viewBox="0 0 133 128" fill="none" xmlns="http://www.w3.org/2000/svg">
<g filter="url(#filter0_d_5027_124674)">
<path fill-rule="evenodd" clip-rule="evenodd" d="M15.9585 20H116.415C116.428 20 116.438 20.0102 116.438 20.0227C116.438 20.0367 116.451 20.0473 116.464 20.0453C116.668 20.0152 116.873 20 117.079 20C124.501 20 130.519 39.7711 130.519 64.1599C130.519 88.5488 124.501 108.32 117.079 108.32C116.873 108.32 116.668 108.305 116.464 108.275C116.451 108.273 116.438 108.283 116.438 108.297C116.438 108.31 116.428 108.32 116.415 108.32H15.9585H15.3448C15.3302 108.32 15.3184 108.308 15.3184 108.293C15.3184 108.28 15.309 108.269 15.2961 108.267C8.18111 107.133 2.51855 87.819 2.51855 64.1599C2.51855 40.5009 8.18111 21.1874 15.2961 20.0527C15.309 20.0506 15.3184 20.0396 15.3184 20.0265C15.3184 20.0119 15.3302 20 15.3448 20H15.9585Z" fill="url(#paint0_linear_5027_124674)"/>
<path d="M126.422 64.7286C126.422 87.3561 122.754 105.699 118.228 105.699C113.703 105.699 110.034 87.3561 110.034 64.7286C110.034 42.101 113.703 23.7578 118.228 23.7578C122.754 23.7578 126.422 42.101 126.422 64.7286Z" fill="url(#paint1_linear_5027_124674)"/>
</g>
<g filter="url(#filter1_d_5027_124674)">
<path d="M20.7504 48.6328L27.3205 70.1505H27.5643L34.1344 48.6328H42.0816L32.1691 78.0116H22.7157L12.8032 48.6328H20.7504Z" fill="#EDDCC8"/>
<path d="M45.2446 78.0116V48.6328H57.3806C59.5802 48.6328 61.4785 49.0632 63.0756 49.9239C64.6822 50.775 65.9207 51.9657 66.791 53.4958C67.6612 55.0164 68.0964 56.7856 68.0964 58.8035C68.0964 60.8309 67.6517 62.6049 66.7623 64.1255C65.8825 65.6365 64.6249 66.808 62.9895 67.6401C61.3542 68.4721 59.4128 68.8881 57.1654 68.8881H49.6773V63.2935H55.8457C56.9168 63.2935 57.8109 63.107 58.5282 62.734C59.255 62.3611 59.8049 61.8399 60.1779 61.1704C60.5509 60.4914 60.7373 59.7024 60.7373 58.8035C60.7373 57.895 60.5509 57.1108 60.1779 56.4509C59.8049 55.7815 59.255 55.265 58.5282 54.9016C57.8014 54.5382 56.9072 54.3565 55.8457 54.3565H52.3455V78.0116H45.2446Z" fill="#EDDCC8"/>
<path d="M96.6001 48.6328V78.0116H90.5751L78.8839 61.0557H78.6974V78.0116H71.5966V48.6328H77.7076L89.2697 65.56H89.5136V48.6328H96.6001Z" fill="#EDDCC8"/>
</g>
<defs>
<filter id="filter0_d_5027_124674" x="0.718629" y="20" width="131.6" height="91.9202" filterUnits="userSpaceOnUse" color-interpolation-filters="sRGB">
<feFlood flood-opacity="0" result="BackgroundImageFix"/>
<feColorMatrix in="SourceAlpha" type="matrix" values="0 0 0 0 0 0 0 0 0 0 0 0 0 0 0 0 0 0 127 0" result="hardAlpha"/>
<feOffset dy="1.79993"/>
<feGaussianBlur stdDeviation="0.899963"/>
<feComposite in2="hardAlpha" operator="out"/>
<feColorMatrix type="matrix" values="0 0 0 0 0 0 0 0 0 0 0 0 0 0 0 0 0 0 1 0"/>
<feBlend mode="normal" in2="BackgroundImageFix" result="effect1_dropShadow_5027_124674"/>
<feBlend mode="normal" in="SourceGraphic" in2="effect1_dropShadow_5027_124674" result="shape"/>
</filter>
<filter id="filter1_d_5027_124674" x="11.0033" y="48.6328" width="89.1967" height="35.6747" filterUnits="userSpaceOnUse" color-interpolation-filters="sRGB">
<feFlood flood-opacity="0" result="BackgroundImageFix"/>
<feColorMatrix in="SourceAlpha" type="matrix" values="0 0 0 0 0 0 0 0 0 0 0 0 0 0 0 0 0 0 127 0" result="hardAlpha"/>
<feOffset dx="0.899963" dy="3.59985"/>
<feGaussianBlur stdDeviation="1.34994"/>
<feComposite in2="hardAlpha" operator="out"/>
<feColorMatrix type="matrix" values="0 0 0 0 0 0 0 0 0 0 0 0 0 0 0 0 0 0 0.25 0"/>
<feBlend mode="normal" in2="BackgroundImageFix" result="effect1_dropShadow_5027_124674"/>
<feBlend mode="normal" in="SourceGraphic" in2="effect1_dropShadow_5027_124674" result="shape"/>
</filter>
<linearGradient id="paint0_linear_5027_124674" x1="66.5186" y1="20" x2="66.5186" y2="108.32" gradientUnits="userSpaceOnUse">
<stop stop-color="#EF8F1D"/>
<stop offset="1" stop-color="#CA7130"/>
</linearGradient>
<linearGradient id="paint1_linear_5027_124674" x1="118.228" y1="23.7578" x2="118.228" y2="105.699" gradientUnits="userSpaceOnUse">
<stop stop-color="#1F1F1F"/>
<stop offset="0.0001" stop-color="#5B5B5B"/>
<stop offset="1" stop-color="#161616"/>
</linearGradient>
</defs>
</svg>
