<svg width="133" height="128" viewBox="0 0 133 128" fill="none" xmlns="http://www.w3.org/2000/svg">
<g filter="url(#filter0_d_5027_124422)">
<path fill-rule="evenodd" clip-rule="evenodd" d="M15.6992 20H116.156C116.169 20 116.179 20.0102 116.179 20.0227C116.179 20.0367 116.191 20.0473 116.205 20.0453C116.409 20.0152 116.613 20 116.819 20C124.242 20 130.259 39.7711 130.259 64.1599C130.259 88.5488 124.242 108.32 116.819 108.32C116.613 108.32 116.409 108.305 116.205 108.275C116.191 108.273 116.179 108.283 116.179 108.297C116.179 108.31 116.169 108.32 116.156 108.32H15.6992H15.0856C15.0709 108.32 15.0591 108.308 15.0591 108.293C15.0591 108.28 15.0497 108.269 15.0368 108.267C7.92183 107.133 2.25928 87.819 2.25928 64.1599C2.25928 40.5009 7.92183 21.1874 15.0368 20.0527C15.0497 20.0506 15.0591 20.0396 15.0591 20.0265C15.0591 20.0119 15.0709 20 15.0856 20H15.6992Z" fill="url(#paint0_linear_5027_124422)"/>
<path d="M126.163 64.7286C126.163 87.3561 122.495 105.699 117.969 105.699C113.444 105.699 109.775 87.3561 109.775 64.7286C109.775 42.101 113.444 23.7578 117.969 23.7578C122.495 23.7578 126.163 42.101 126.163 64.7286Z" fill="url(#paint1_linear_5027_124422)"/>
</g>
<g filter="url(#filter1_d_5027_124422)">
<path d="M20.4911 48.6328L27.0612 70.1505H27.305L33.8751 48.6328H41.8223L31.9098 78.0116H22.4564L12.5439 48.6328H20.4911Z" fill="#EDDCC8"/>
<path d="M44.9854 78.0116V48.6328H57.1213C59.3209 48.6328 61.2192 49.0632 62.8163 49.9239C64.423 50.775 65.6614 51.9657 66.5317 53.4958C67.402 55.0164 67.8371 56.7856 67.8371 58.8035C67.8371 60.8309 67.3924 62.6049 66.503 64.1255C65.6232 65.6365 64.3656 66.808 62.7302 67.6401C61.0949 68.4721 59.1535 68.8881 56.9061 68.8881H49.418V63.2935H55.5864C56.6575 63.2935 57.5517 63.107 58.2689 62.734C58.9957 62.3611 59.5456 61.8399 59.9186 61.1704C60.2916 60.4914 60.4781 59.7024 60.4781 58.8035C60.4781 57.895 60.2916 57.1108 59.9186 56.4509C59.5456 55.7815 58.9957 55.265 58.2689 54.9016C57.5421 54.5382 56.6479 54.3565 55.5864 54.3565H52.0862V78.0116H44.9854Z" fill="#EDDCC8"/>
<path d="M96.3408 48.6328V78.0116H90.3159L78.6246 61.0557H78.4381V78.0116H71.3373V48.6328H77.4483L89.0105 65.56H89.2543V48.6328H96.3408Z" fill="#EDDCC8"/>
</g>
<defs>
<filter id="filter0_d_5027_124422" x="0.459352" y="20" width="131.6" height="91.9202" filterUnits="userSpaceOnUse" color-interpolation-filters="sRGB">
<feFlood flood-opacity="0" result="BackgroundImageFix"/>
<feColorMatrix in="SourceAlpha" type="matrix" values="0 0 0 0 0 0 0 0 0 0 0 0 0 0 0 0 0 0 127 0" result="hardAlpha"/>
<feOffset dy="1.79993"/>
<feGaussianBlur stdDeviation="0.899963"/>
<feComposite in2="hardAlpha" operator="out"/>
<feColorMatrix type="matrix" values="0 0 0 0 0 0 0 0 0 0 0 0 0 0 0 0 0 0 1 0"/>
<feBlend mode="normal" in2="BackgroundImageFix" result="effect1_dropShadow_5027_124422"/>
<feBlend mode="normal" in="SourceGraphic" in2="effect1_dropShadow_5027_124422" result="shape"/>
</filter>
<filter id="filter1_d_5027_124422" x="10.744" y="48.6328" width="89.1967" height="35.6747" filterUnits="userSpaceOnUse" color-interpolation-filters="sRGB">
<feFlood flood-opacity="0" result="BackgroundImageFix"/>
<feColorMatrix in="SourceAlpha" type="matrix" values="0 0 0 0 0 0 0 0 0 0 0 0 0 0 0 0 0 0 127 0" result="hardAlpha"/>
<feOffset dx="0.899963" dy="3.59985"/>
<feGaussianBlur stdDeviation="1.34994"/>
<feComposite in2="hardAlpha" operator="out"/>
<feColorMatrix type="matrix" values="0 0 0 0 0 0 0 0 0 0 0 0 0 0 0 0 0 0 0.25 0"/>
<feBlend mode="normal" in2="BackgroundImageFix" result="effect1_dropShadow_5027_124422"/>
<feBlend mode="normal" in="SourceGraphic" in2="effect1_dropShadow_5027_124422" result="shape"/>
</filter>
<linearGradient id="paint0_linear_5027_124422" x1="66.2593" y1="20" x2="66.2593" y2="108.32" gradientUnits="userSpaceOnUse">
<stop stop-color="#EF8F1D"/>
<stop offset="1" stop-color="#CA7130"/>
</linearGradient>
<linearGradient id="paint1_linear_5027_124422" x1="117.969" y1="23.7578" x2="117.969" y2="105.699" gradientUnits="userSpaceOnUse">
<stop stop-color="#1F1F1F"/>
<stop offset="0.0001" stop-color="#5B5B5B"/>
<stop offset="1" stop-color="#161616"/>
</linearGradient>
</defs>
</svg>
