<svg width="129" height="128" viewBox="0 0 129 128" fill="none" xmlns="http://www.w3.org/2000/svg">
<path d="M88.5564 121.588H40.5557L48.5362 93.1841L80.5643 93.1719L88.5564 121.588Z" fill="#AAB2BC"/>
<path d="M8.55821 97.2123C6.35505 97.2123 4.55615 95.3914 4.55615 93.1477V15.963C4.55615 13.7194 6.35505 11.8984 8.55821 11.8984H120.562C122.765 11.8984 124.558 13.7194 124.558 15.963V93.1477C124.558 95.3914 122.765 97.2123 120.562 97.2123H8.55821Z" fill="url(#paint0_linear_5027_125320)"/>
<path d="M120.561 7.83594H8.5577C4.13975 7.83594 0.55957 11.4778 0.55957 15.9651V93.1498C0.55957 97.6428 4.13975 101.279 8.5577 101.279H120.561C124.979 101.279 128.56 97.6428 128.56 93.1498V15.9651C128.56 11.4778 124.979 7.83594 120.561 7.83594ZM120.561 93.1498H8.5577V15.9651H120.561V93.1498Z" fill="#CCD1D9"/>
<path d="M122.573 85.0312H6.53223V96.8617H122.573V85.0312Z" fill="#CCD1D9"/>
<path d="M68.5577 93.1523C68.5577 95.4016 66.7648 97.2168 64.5556 97.2168C62.3465 97.2168 60.5596 95.4016 60.5596 93.1523C60.5596 90.9086 62.3469 89.0938 64.5556 89.0938C66.7644 89.0938 68.5577 90.9086 68.5577 93.1523Z" fill="#434A54"/>
<path d="M88.5574 113.469H40.5566C38.3475 113.469 36.5605 115.284 36.5605 117.527C36.5605 119.777 38.3478 121.592 40.5566 121.592H88.5574C90.7665 121.592 92.5594 119.777 92.5594 117.527C92.5594 115.284 90.7665 113.469 88.5574 113.469Z" fill="url(#paint1_linear_5027_125320)"/>
<g filter="url(#filter0_d_5027_125320)">
<path d="M26.5013 64C25.7763 64 25.0691 63.7748 24.4776 63.3555C23.886 62.9362 23.4393 62.3436 23.1992 61.6594C22.9591 60.9753 22.9374 60.2335 23.1371 59.5364C23.3368 58.8394 23.7481 58.2217 24.3141 57.7685L38.3978 46.5019L24.3141 35.2354C23.955 34.9482 23.6561 34.593 23.4343 34.1902C23.2125 33.7875 23.0722 33.345 23.0214 32.888C22.9706 32.431 23.0104 31.9685 23.1383 31.5268C23.2663 31.0852 23.48 30.6731 23.7672 30.3141C24.0545 29.955 24.4096 29.6561 24.8124 29.4343C25.2152 29.2125 25.6577 29.0722 26.1147 29.0214C26.5717 28.9706 27.0342 29.0104 27.4758 29.1383C27.9174 29.2663 28.3295 29.48 28.6886 29.7672L46.1866 43.7657C46.5969 44.0935 46.9282 44.5095 47.1559 44.9828C47.3835 45.4561 47.5017 45.9746 47.5017 46.4998C47.5017 47.025 47.3835 47.5434 47.1559 48.0167C46.9282 48.49 46.5969 48.906 46.1866 49.2338L28.6886 63.2323C28.0679 63.7292 27.2964 64 26.5013 64ZM61.4974 64H47.499C46.5708 64 45.6807 63.6313 45.0244 62.975C44.3681 62.3187 43.9994 61.4285 43.9994 60.5004C43.9994 59.5722 44.3681 58.6821 45.0244 58.0258C45.6807 57.3695 46.5708 57.0008 47.499 57.0008H61.4974C62.4256 57.0008 63.3157 57.3695 63.972 58.0258C64.6283 58.6821 64.997 59.5722 64.997 60.5004C64.997 61.4285 64.6283 62.3187 63.972 62.975C63.3157 63.6313 62.4256 64 61.4974 64Z" fill="url(#paint2_linear_5027_125320)"/>
</g>
<defs>
<filter id="filter0_d_5027_125320" x="21.2059" y="29" width="45.5854" height="39.4854" filterUnits="userSpaceOnUse" color-interpolation-filters="sRGB">
<feFlood flood-opacity="0" result="BackgroundImageFix"/>
<feColorMatrix in="SourceAlpha" type="matrix" values="0 0 0 0 0 0 0 0 0 0 0 0 0 0 0 0 0 0 127 0" result="hardAlpha"/>
<feOffset dy="2.69122"/>
<feGaussianBlur stdDeviation="0.897075"/>
<feComposite in2="hardAlpha" operator="out"/>
<feColorMatrix type="matrix" values="0 0 0 0 0 0 0 0 0 0 0 0 0 0 0 0 0 0 0.5 0"/>
<feBlend mode="normal" in2="BackgroundImageFix" result="effect1_dropShadow_5027_125320"/>
<feBlend mode="normal" in="SourceGraphic" in2="effect1_dropShadow_5027_125320" result="shape"/>
</filter>
<linearGradient id="paint0_linear_5027_125320" x1="114.5" y1="12.0015" x2="54.056" y2="86.8175" gradientUnits="userSpaceOnUse">
<stop stop-color="#585656"/>
<stop offset="1"/>
</linearGradient>
<linearGradient id="paint1_linear_5027_125320" x1="64.56" y1="113.469" x2="64.56" y2="121.592" gradientUnits="userSpaceOnUse">
<stop stop-color="#D3D7DD"/>
<stop offset="1" stop-color="#888C90"/>
</linearGradient>
<linearGradient id="paint2_linear_5027_125320" x1="43.9985" y1="29" x2="43.9985" y2="64" gradientUnits="userSpaceOnUse">
<stop stop-color="#67FF81"/>
<stop offset="1" stop-color="#01B41F"/>
</linearGradient>
</defs>
</svg>
