<svg width="128" height="128" viewBox="0 0 128 128" fill="none" xmlns="http://www.w3.org/2000/svg">
<g clip-path="url(#clip0_5027_124379)">
<rect x="-0.222168" width="127.506" height="128" rx="18.7488" fill="url(#paint0_linear_5027_124379)"/>
<path d="M112.951 21.7325L112.951 82.7214L98.0223 82.7214L98.0223 94.216L84.0266 94.216L84.0266 106.242L40.2349 106.242L40.2349 94.216L27.1722 94.216L27.1722 82.7214L14.1095 82.7214L14.1095 21.7325L112.951 21.7325Z" fill="#37474F"/>
<rect x="28.4507" y="27.8438" width="6.42061" height="22.0576" fill="#FDD835"/>
<rect x="39.1233" y="27.8438" width="6.42061" height="22.0576" fill="#FDD835"/>
<rect x="49.7954" y="27.8438" width="6.42061" height="22.0576" fill="#FDD835"/>
<rect x="60.469" y="27.8438" width="6.42061" height="22.0576" fill="#FDD835"/>
<rect x="71.1416" y="27.8438" width="6.42061" height="22.0576" fill="#FDD835"/>
<rect x="81.8142" y="27.8438" width="6.42061" height="22.0576" fill="#FDD835"/>
<rect x="92.4863" y="27.8438" width="6.42061" height="22.0576" fill="#FDD835"/>
</g>
<defs>
<linearGradient id="paint0_linear_5027_124379" x1="63.5307" y1="0" x2="63.5307" y2="128" gradientUnits="userSpaceOnUse">
<stop stop-color="#D3D7DD"/>
<stop offset="1" stop-color="#888C90"/>
</linearGradient>
<clipPath id="clip0_5027_124379">
<rect width="128" height="128" fill="white"/>
</clipPath>
</defs>
</svg>
