<svg width="132" height="128" viewBox="0 0 132 128" fill="none" xmlns="http://www.w3.org/2000/svg">
<g filter="url(#filter0_d_5027_140784)">
<path d="M115.921 20.0234C115.921 20.0378 115.934 20.0488 115.948 20.0467C116.151 20.0165 116.356 20 116.562 20C123.984 20 130.002 39.7713 130.002 64.1602C130.002 88.5489 123.984 108.32 116.562 108.32C116.356 108.32 116.152 108.303 115.948 108.273C115.934 108.271 115.921 108.282 115.921 108.296C115.921 108.31 115.91 108.32 115.897 108.32H14.8296C14.8142 108.32 14.8018 108.308 14.8018 108.292C14.8018 108.279 14.7919 108.267 14.7783 108.265C7.66407 107.128 2.00199 87.8175 2.00195 64.1602C2.00195 40.5021 7.66425 21.1906 14.7788 20.0544C14.7921 20.0523 14.8018 20.0408 14.8018 20.0273C14.8018 20.0122 14.814 20 14.8291 20H115.897C115.91 20 115.921 20.0105 115.921 20.0234Z" fill="url(#paint0_linear_5027_140784)"/>
<ellipse cx="117.711" cy="64.7286" rx="8.19415" ry="40.9708" fill="url(#paint1_linear_5027_140784)"/>
</g>
<g filter="url(#filter1_d_5027_140784)">
<path d="M20.2333 48.6838L26.8034 70.2014H27.0472L33.6173 48.6838H41.5645L31.652 78.0625H22.1986L12.2861 48.6838H20.2333ZM44.7276 78.0625V48.6838H56.8635C59.0631 48.6838 60.9614 49.1141 62.5585 49.9748C64.1652 50.826 65.4036 52.0166 66.2739 53.5467C67.1442 55.0673 67.5793 56.8365 67.5793 58.8544C67.5793 60.8819 67.1346 62.6559 66.2452 64.1765C65.3654 65.6875 64.1078 66.859 62.4724 67.691C60.8371 68.523 58.8957 68.939 56.6483 68.939H49.1602V63.3444H55.3286C56.3997 63.3444 57.2939 63.1579 58.0111 62.785C58.7379 62.412 59.2878 61.8908 59.6608 61.2214C60.0338 60.5424 60.2203 59.7534 60.2203 58.8544C60.2203 57.9459 60.0338 57.1617 59.6608 56.5018C59.2878 55.8324 58.7379 55.316 58.0111 54.9526C57.2843 54.5891 56.3901 54.4074 55.3286 54.4074H51.8284V78.0625H44.7276ZM96.083 48.6838V78.0625H90.0581L78.3668 61.1066H78.1803V78.0625H71.0795V48.6838H77.1905L88.7526 65.611H88.9965V48.6838H96.083Z" fill="#EDDCC8"/>
</g>
<defs>
<filter id="filter0_d_5027_140784" x="0.475315" y="20" width="131.053" height="91.3736" filterUnits="userSpaceOnUse" color-interpolation-filters="sRGB">
<feFlood flood-opacity="0" result="BackgroundImageFix"/>
<feColorMatrix in="SourceAlpha" type="matrix" values="0 0 0 0 0 0 0 0 0 0 0 0 0 0 0 0 0 0 127 0" result="hardAlpha"/>
<feOffset dy="1.52664"/>
<feGaussianBlur stdDeviation="0.763319"/>
<feComposite in2="hardAlpha" operator="out"/>
<feColorMatrix type="matrix" values="0 0 0 0 0 0 0 0 0 0 0 0 0 0 0 0 0 0 1 0"/>
<feBlend mode="normal" in2="BackgroundImageFix" result="effect1_dropShadow_5027_140784"/>
<feBlend mode="normal" in="SourceGraphic" in2="effect1_dropShadow_5027_140784" result="shape"/>
</filter>
<filter id="filter1_d_5027_140784" x="10.7595" y="48.6875" width="88.3768" height="34.7182" filterUnits="userSpaceOnUse" color-interpolation-filters="sRGB">
<feFlood flood-opacity="0" result="BackgroundImageFix"/>
<feColorMatrix in="SourceAlpha" type="matrix" values="0 0 0 0 0 0 0 0 0 0 0 0 0 0 0 0 0 0 127 0" result="hardAlpha"/>
<feOffset dx="0.763319" dy="3.05328"/>
<feGaussianBlur stdDeviation="1.14498"/>
<feComposite in2="hardAlpha" operator="out"/>
<feColorMatrix type="matrix" values="0 0 0 0 0 0 0 0 0 0 0 0 0 0 0 0 0 0 0.25 0"/>
<feBlend mode="normal" in2="BackgroundImageFix" result="effect1_dropShadow_5027_140784"/>
<feBlend mode="normal" in="SourceGraphic" in2="effect1_dropShadow_5027_140784" result="shape"/>
</filter>
<linearGradient id="paint0_linear_5027_140784" x1="66.002" y1="20" x2="66.002" y2="108.32" gradientUnits="userSpaceOnUse">
<stop stop-color="#EF8F1D"/>
<stop offset="1" stop-color="#CA7130"/>
</linearGradient>
<linearGradient id="paint1_linear_5027_140784" x1="117.711" y1="23.7578" x2="117.711" y2="105.699" gradientUnits="userSpaceOnUse">
<stop stop-color="#1F1F1F"/>
<stop offset="0.0001" stop-color="#5B5B5B"/>
<stop offset="1" stop-color="#161616"/>
</linearGradient>
</defs>
</svg>
