<svg width="128" height="128" viewBox="0 0 128 128" fill="none" xmlns="http://www.w3.org/2000/svg">
<path d="M108.005 18.0001H52.0047C52.0047 18.0001 44.4207 6 40.0046 6H20.0046C15.5884 6 12.0046 9.58008 12.0046 13.9999V106C12.0046 110.416 15.5884 114 20.0046 114H108.005C112.421 114 116.004 110.416 116.004 106V26C116.004 21.5839 112.421 18.0001 108.005 18.0001Z" fill="url(#paint0_linear_5027_139105)"/>
<path d="M15.4346 29.8594H112.294V59.6625H15.4346V29.8594Z" fill="#E0E0E0"/>
<path d="M7.99992 37.9609H120C124.416 37.9609 128 41.541 128 45.9609L120 113.961C120 118.377 116.416 121.961 112 121.961H15.9998C11.5837 121.961 7.99992 118.377 7.99992 113.961L0 45.9609C0 41.5406 3.5838 37.9609 7.99992 37.9609Z" fill="url(#paint1_linear_5027_139105)"/>
<defs>
<linearGradient id="paint0_linear_5027_139105" x1="64.0046" y1="6" x2="64.0046" y2="114" gradientUnits="userSpaceOnUse">
<stop stop-color="#E7BB04"/>
<stop offset="1" stop-color="#A08100"/>
</linearGradient>
<linearGradient id="paint1_linear_5027_139105" x1="64" y1="37.9609" x2="64" y2="121.961" gradientUnits="userSpaceOnUse">
<stop stop-color="#FFDC4D"/>
<stop offset="1" stop-color="#E6BA03"/>
</linearGradient>
</defs>
</svg>
