<svg width="151" height="151" viewBox="0 0 151 151" fill="none" xmlns="http://www.w3.org/2000/svg">
<path d="M135.13 134.143L127.452 70.4119C127.189 68.2316 125.34 66.5912 123.143 66.5912H107.721C105.524 66.5912 103.675 68.2318 103.412 70.4122L97.7248 117.618L89.4536 48.9668C92.8942 48.9668 95.6909 46.1735 95.6909 42.7295C95.6909 39.2854 92.8977 36.4922 89.4536 36.4922H60.7079C57.2676 36.4922 54.4706 39.2851 54.4706 42.7295C54.4706 46.1735 57.2638 48.9668 60.7079 48.9668L52.4367 117.618L46.7499 70.4119C46.4869 68.2316 44.6374 66.5912 42.4408 66.5912H27.0184C24.8218 66.5912 22.9723 68.2318 22.7093 70.4122L15.0317 134.143C14.7207 136.727 16.7369 139.001 19.339 139.001H130.822C133.424 139.001 135.441 136.726 135.13 134.143Z" fill="url(#paint0_linear_5027_125959)"/>
<path d="M89.454 36.4922C95.0169 36.4922 97.764 43.2385 93.8635 47.139C92.7354 48.2671 91.1761 48.9668 89.454 48.9668H60.7083C55.1454 48.9668 52.3983 42.2205 56.2988 38.32C57.4269 37.1918 58.9862 36.4922 60.7083 36.4922H89.454Z" fill="url(#paint1_linear_5027_125959)"/>
<path d="M98.7015 125.711L100.301 138.999H49.8608L51.4608 125.711H98.7015Z" fill="url(#paint2_linear_5027_125959)"/>
<path d="M92.3939 73.375L94.3545 89.6462H55.8081L57.7688 73.375H92.3939Z" fill="url(#paint3_linear_5027_125959)"/>
<path d="M80.5048 30.5216C76.021 30.5216 78.6765 19.9453 86.7421 19.9453H94.3868C95.5849 19.9453 96.5563 20.9167 96.5563 22.1148C96.5563 23.3129 95.5849 24.2843 94.3868 24.2843H86.7421C84.4991 24.2843 82.6743 26.1091 82.6743 28.3521C82.6743 29.5502 81.7029 30.5216 80.5048 30.5216Z" fill="url(#paint4_linear_5027_125959)"/>
<path d="M64.233 30.5254C63.0349 30.5254 62.0635 29.554 62.0635 28.3559C62.0635 18.7858 69.8492 11 79.4194 11H100.572C101.77 11 102.741 11.9714 102.741 13.1695C102.741 14.3676 101.77 15.339 100.572 15.339H79.4194C72.2416 15.339 66.4025 21.1784 66.4025 28.3559C66.4025 29.554 65.4311 30.5254 64.233 30.5254Z" fill="url(#paint5_linear_5027_125959)"/>
<path d="M29.5218 61.169C25.1215 61.169 27.6134 51.4062 34.9455 51.4062H49.5896C50.7877 51.4062 51.7591 52.3776 51.7591 53.5757C51.7591 54.7738 50.7877 55.7452 49.5896 55.7452H34.9455C33.1511 55.7452 31.6913 57.205 31.6913 58.9995C31.6913 60.1976 30.7199 61.169 29.5218 61.169Z" fill="url(#paint6_linear_5027_125959)"/>
<path d="M110.335 61.169C105.935 61.169 108.427 51.4062 115.759 51.4062H133.115C134.313 51.4062 135.284 52.3776 135.284 53.5757C135.284 54.7738 134.313 55.7452 133.115 55.7452H115.759C113.965 55.7452 112.505 57.205 112.505 58.9995C112.505 60.1976 111.533 61.169 110.335 61.169Z" fill="url(#paint7_linear_5027_125959)"/>
<defs>
<linearGradient id="paint0_linear_5027_125959" x1="75.0809" y1="36.4922" x2="75.0809" y2="139.001" gradientUnits="userSpaceOnUse">
<stop stop-color="#FAFAFA"/>
<stop offset="1" stop-color="#D4D4D2"/>
</linearGradient>
<linearGradient id="paint1_linear_5027_125959" x1="75.0811" y1="36.4922" x2="75.0811" y2="48.9668" gradientUnits="userSpaceOnUse">
<stop stop-color="#FF6D6D"/>
<stop offset="1" stop-color="#AE2323"/>
</linearGradient>
<linearGradient id="paint2_linear_5027_125959" x1="75.0812" y1="125.711" x2="75.0812" y2="138.999" gradientUnits="userSpaceOnUse">
<stop stop-color="#FF6D6D"/>
<stop offset="1" stop-color="#AE2323"/>
</linearGradient>
<linearGradient id="paint3_linear_5027_125959" x1="75.0813" y1="73.375" x2="75.0813" y2="89.6462" gradientUnits="userSpaceOnUse">
<stop stop-color="#FF6D6D"/>
<stop offset="1" stop-color="#AE2323"/>
</linearGradient>
<linearGradient id="paint4_linear_5027_125959" x1="87.4461" y1="19.9453" x2="87.4461" y2="30.5216" gradientUnits="userSpaceOnUse">
<stop stop-color="#D3D7DD"/>
<stop offset="1" stop-color="#888C90"/>
</linearGradient>
<linearGradient id="paint5_linear_5027_125959" x1="82.4024" y1="11" x2="82.4024" y2="30.5254" gradientUnits="userSpaceOnUse">
<stop stop-color="#D3D7DD"/>
<stop offset="1" stop-color="#888C90"/>
</linearGradient>
<linearGradient id="paint6_linear_5027_125959" x1="39.5509" y1="51.4062" x2="39.5509" y2="61.169" gradientUnits="userSpaceOnUse">
<stop stop-color="#D3D7DD"/>
<stop offset="1" stop-color="#888C90"/>
</linearGradient>
<linearGradient id="paint7_linear_5027_125959" x1="121.72" y1="51.4062" x2="121.72" y2="61.169" gradientUnits="userSpaceOnUse">
<stop stop-color="#D3D7DD"/>
<stop offset="1" stop-color="#888C90"/>
</linearGradient>
</defs>
</svg>
