<svg width="128" height="128" viewBox="0 0 128 128" fill="none" xmlns="http://www.w3.org/2000/svg">
<path fill-rule="evenodd" clip-rule="evenodd" d="M48.0623 45.744C49.853 45.3302 51.507 45.0543 53.2989 44.9176L58.2584 42.5751C54.4 42.851 50.5426 43.2648 46.96 43.8153L39.7959 32.2422H27.3953L35.6616 45.7451C24.3632 48.0876 15.2704 51.3943 9.89593 55.1137C-4.15755 65.1708 13.0659 75.7796 48.4761 78.8116L18.3014 127.999H31.8031L65.0087 72.8854L48.0623 45.744ZM19.8174 54.8367C23.5368 52.3563 29.4618 50.0139 36.9018 48.0852L50.2668 69.7177C24.3643 67.2374 8.9316 62.6904 19.8174 54.8367Z" fill="white"/>
<path fill-rule="evenodd" clip-rule="evenodd" d="M79.8909 82.2554C78.237 82.5301 76.4462 82.8071 74.6555 83.0818L69.6948 85.2863C73.5532 85.0105 77.4106 84.5967 80.9932 84.0462L88.2964 95.6204H100.559L92.4307 82.1175C103.591 79.7751 112.685 76.6062 118.057 72.7477C132.111 62.6907 114.891 52.0807 79.4783 49.1877L109.654 0H96.1512L62.9421 54.9749L79.8909 82.2554ZM108.136 73.0248C104.554 75.5051 98.4914 77.9843 91.0503 79.7762L77.6864 58.1437C103.589 60.6241 119.019 65.3078 108.136 73.0248Z" fill="#CF4044"/>
</svg>
