<svg width="128" height="128" viewBox="0 0 128 128" fill="none" xmlns="http://www.w3.org/2000/svg">
<path d="M128 109.521H76.1895C75.7595 110.095 75.288 110.641 74.7754 111.153C71.9177 114.011 68.0414 115.617 64 115.617C59.9586 115.617 56.0823 114.011 53.2246 111.153C52.712 110.641 52.2405 110.095 51.8105 109.521H0V21.1406H128V109.521Z" fill="url(#paint0_linear_5027_139252)"/>
<path d="M63.9999 91.2344C61.5751 91.2344 59.2496 92.1976 57.5349 93.9123C55.8203 95.6269 54.8571 97.9524 54.8571 100.377C54.8571 102.802 55.8203 105.128 57.5349 106.842C59.2496 108.557 61.5751 109.52 63.9999 109.52C66.4247 109.52 68.7503 108.557 70.4649 106.842C72.1795 105.128 73.1428 102.802 73.1428 100.377C73.1428 97.9524 72.1795 95.6269 70.4649 93.9123C68.7503 92.1976 66.4247 91.2344 63.9999 91.2344Z" fill="#4C4508"/>
<path d="M112.762 12L67.0476 21.1429H60.9524L15.2381 12L9.14288 27.2381V100.381H118.857V27.2381L112.762 12Z" fill="#D7CCC8"/>
<path d="M15.2381 91.2374H60.9524V100.377H67.0476V91.2374L112.762 91.2344L118.857 100.377H9.14288L15.2381 91.2374Z" fill="#BCAAA4"/>
<path d="M112.762 12C112.762 12 67.0476 12 67.0476 21.1429C67.0476 30.2857 67.0476 100.381 67.0476 100.381C67.0476 91.2381 112.762 91.2381 112.762 91.2381V12ZM15.2381 12C15.2381 12 60.9524 12 60.9524 21.1429C60.9524 30.2857 60.9524 100.381 60.9524 100.381C60.9524 91.2381 15.2381 91.2381 15.2381 91.2381V12Z" fill="url(#paint1_linear_5027_139252)"/>
<path d="M73.1429 55.8378C78.9364 53.7075 92.0656 52.0222 106.667 51.6442V45.5216C95.4759 45.7501 81.9292 46.7041 73.1429 49.6054V55.8378ZM73.1429 68.0282C78.9364 65.898 92.0656 64.2126 106.667 63.8347V57.7121C95.4759 57.9406 81.9292 58.8945 73.1429 61.7959V68.0282ZM73.1429 43.6473C78.9364 41.517 92.0656 39.8317 106.667 39.4538V33.3311C95.4759 33.5597 81.9292 34.5136 73.1429 37.4149V43.6473ZM73.1429 25.2244V31.4568C78.9364 29.3265 92.0656 27.6412 106.667 27.2633V21.1406C95.4759 21.3692 81.9292 22.3231 73.1429 25.2244ZM88.381 71.018C82.7307 71.6488 77.3791 72.5875 73.1429 73.9863V80.2187C76.3216 79.0484 81.7555 78.0244 88.381 77.2656V71.018ZM54.8572 55.8378C49.0637 53.7075 35.9345 52.0222 21.3334 51.6442V45.5216C32.5242 45.7501 46.0709 46.7041 54.8572 49.6054V55.8378ZM54.8572 68.0282C49.0637 65.898 35.9345 64.2126 21.3334 63.8347V57.7121C32.5242 57.9406 46.0709 58.8945 54.8572 61.7959V68.0282ZM54.8572 80.2187C49.0637 78.0884 35.9345 76.4031 21.3334 76.0252V69.9025C32.5242 70.1311 46.0709 71.085 54.8572 73.9863V80.2187ZM54.8572 43.6473C49.0637 41.517 35.9345 39.8317 21.3334 39.4538V33.3311C32.5242 33.5597 46.0709 34.5136 54.8572 37.4149V43.6473ZM54.8572 25.2244V31.4568C49.0637 29.3265 35.9345 27.6412 21.3334 27.2633V21.1406C32.5242 21.3692 46.0709 22.3231 54.8572 25.2244ZM60.9524 21.1406H67.0477V100.379H60.9524V21.1406Z" fill="#B2B2B2"/>
<defs>
<linearGradient id="paint0_linear_5027_139252" x1="64" y1="21.1406" x2="64" y2="115.617" gradientUnits="userSpaceOnUse">
<stop stop-color="#FFDB4C"/>
<stop offset="1" stop-color="#FFCD02"/>
</linearGradient>
<linearGradient id="paint1_linear_5027_139252" x1="64" y1="12" x2="64" y2="100.381" gradientUnits="userSpaceOnUse">
<stop stop-color="#FAFAFA"/>
<stop offset="1" stop-color="#D4D4D2"/>
</linearGradient>
</defs>
</svg>
