<svg width="128" height="128" viewBox="0 0 128 128" fill="none" xmlns="http://www.w3.org/2000/svg">
<g clip-path="url(#clip0_5027_124475)">
<rect x="0.259277" y="0.0859375" width="127.506" height="128" rx="18.7488" fill="url(#paint0_linear_5027_124475)"/>
<path d="M113.433 21.8185L113.433 82.8073L98.5038 82.8073L98.5038 94.302L84.508 94.302L84.508 106.328L40.7164 106.328L40.7164 94.302L27.6536 94.302L27.6536 82.8073L14.5909 82.8073L14.5909 21.8185L113.433 21.8185Z" fill="#37474F"/>
<rect x="28.9321" y="27.9297" width="6.42061" height="22.0576" fill="#FDD835"/>
<rect x="39.6047" y="27.9297" width="6.42061" height="22.0576" fill="#FDD835"/>
<rect x="50.2769" y="27.9297" width="6.42061" height="22.0576" fill="#FDD835"/>
<rect x="60.9504" y="27.9297" width="6.42061" height="22.0576" fill="#FDD835"/>
<rect x="71.623" y="27.9297" width="6.42061" height="22.0576" fill="#FDD835"/>
<rect x="82.2957" y="27.9297" width="6.42061" height="22.0576" fill="#FDD835"/>
<rect x="92.9678" y="27.9297" width="6.42061" height="22.0576" fill="#FDD835"/>
</g>
<defs>
<linearGradient id="paint0_linear_5027_124475" x1="64.0122" y1="0.0859375" x2="64.0122" y2="128.086" gradientUnits="userSpaceOnUse">
<stop stop-color="#D3D7DD"/>
<stop offset="1" stop-color="#888C90"/>
</linearGradient>
<clipPath id="clip0_5027_124475">
<rect width="128" height="128" fill="white"/>
</clipPath>
</defs>
</svg>
