<svg width="133" height="128" viewBox="0 0 133 128" fill="none" xmlns="http://www.w3.org/2000/svg">
<g filter="url(#filter0_d_5027_125667)">
<path fill-rule="evenodd" clip-rule="evenodd" d="M16.1314 20.0859H116.588C116.601 20.0859 116.611 20.0961 116.611 20.1087C116.611 20.1226 116.623 20.1333 116.637 20.1312C116.841 20.1011 117.046 20.0859 117.251 20.0859C124.674 20.0859 130.691 39.857 130.691 64.2459C130.691 88.6347 124.674 108.406 117.251 108.406C117.046 108.406 116.841 108.391 116.637 108.361C116.623 108.358 116.611 108.369 116.611 108.383C116.611 108.396 116.601 108.406 116.588 108.406H16.1314H15.5177C15.5031 108.406 15.4912 108.394 15.4912 108.379C15.4912 108.366 15.4819 108.355 15.4689 108.353C8.35396 107.218 2.69141 87.9049 2.69141 64.2459C2.69141 40.5868 8.35396 21.2733 15.4689 20.1386C15.4819 20.1366 15.4912 20.1255 15.4912 20.1124C15.4912 20.0978 15.5031 20.0859 15.5177 20.0859H16.1314Z" fill="url(#paint0_linear_5027_125667)"/>
<path d="M126.595 64.8145C126.595 87.4421 122.927 105.785 118.401 105.785C113.876 105.785 110.207 87.4421 110.207 64.8145C110.207 42.187 113.876 23.8438 118.401 23.8438C122.927 23.8438 126.595 42.187 126.595 64.8145Z" fill="url(#paint1_linear_5027_125667)"/>
</g>
<g filter="url(#filter1_d_5027_125667)">
<path d="M20.9233 48.7188L27.4933 70.2364H27.7372L34.3072 48.7188H42.2544L32.3419 78.0975H22.8885L12.9761 48.7188H20.9233Z" fill="#EDDCC8"/>
<path d="M45.4175 78.0975V48.7188H57.5534C59.753 48.7188 61.6514 49.1491 63.2484 50.0098C64.8551 50.861 66.0936 52.0516 66.9638 53.5817C67.8341 55.1023 68.2692 56.8715 68.2692 58.8894C68.2692 60.9169 67.8245 62.6909 66.9351 64.2114C66.0553 65.7225 64.7977 66.894 63.1624 67.726C61.527 68.558 59.5857 68.974 57.3383 68.974H49.8501V63.3794H56.0185C57.0896 63.3794 57.9838 63.1929 58.701 62.82C59.4279 62.447 59.9778 61.9258 60.3507 61.2564C60.7237 60.5774 60.9102 59.7884 60.9102 58.8894C60.9102 57.9809 60.7237 57.1967 60.3507 56.5368C59.9778 55.8674 59.4279 55.351 58.701 54.9876C57.9742 54.6241 57.0801 54.4424 56.0185 54.4424H52.5183V78.0975H45.4175Z" fill="#EDDCC8"/>
<path d="M96.7729 48.7188V78.0975H90.748L79.0567 61.1416H78.8703V78.0975H71.7694V48.7188H77.8804L89.4426 65.646H89.6864V48.7188H96.7729Z" fill="#EDDCC8"/>
</g>
<defs>
<filter id="filter0_d_5027_125667" x="0.891481" y="20.0859" width="131.6" height="91.9202" filterUnits="userSpaceOnUse" color-interpolation-filters="sRGB">
<feFlood flood-opacity="0" result="BackgroundImageFix"/>
<feColorMatrix in="SourceAlpha" type="matrix" values="0 0 0 0 0 0 0 0 0 0 0 0 0 0 0 0 0 0 127 0" result="hardAlpha"/>
<feOffset dy="1.79993"/>
<feGaussianBlur stdDeviation="0.899963"/>
<feComposite in2="hardAlpha" operator="out"/>
<feColorMatrix type="matrix" values="0 0 0 0 0 0 0 0 0 0 0 0 0 0 0 0 0 0 1 0"/>
<feBlend mode="normal" in2="BackgroundImageFix" result="effect1_dropShadow_5027_125667"/>
<feBlend mode="normal" in="SourceGraphic" in2="effect1_dropShadow_5027_125667" result="shape"/>
</filter>
<filter id="filter1_d_5027_125667" x="11.1761" y="48.7188" width="89.1967" height="35.6747" filterUnits="userSpaceOnUse" color-interpolation-filters="sRGB">
<feFlood flood-opacity="0" result="BackgroundImageFix"/>
<feColorMatrix in="SourceAlpha" type="matrix" values="0 0 0 0 0 0 0 0 0 0 0 0 0 0 0 0 0 0 127 0" result="hardAlpha"/>
<feOffset dx="0.899963" dy="3.59985"/>
<feGaussianBlur stdDeviation="1.34994"/>
<feComposite in2="hardAlpha" operator="out"/>
<feColorMatrix type="matrix" values="0 0 0 0 0 0 0 0 0 0 0 0 0 0 0 0 0 0 0.25 0"/>
<feBlend mode="normal" in2="BackgroundImageFix" result="effect1_dropShadow_5027_125667"/>
<feBlend mode="normal" in="SourceGraphic" in2="effect1_dropShadow_5027_125667" result="shape"/>
</filter>
<linearGradient id="paint0_linear_5027_125667" x1="66.6914" y1="20.0859" x2="66.6914" y2="108.406" gradientUnits="userSpaceOnUse">
<stop stop-color="#EF8F1D"/>
<stop offset="1" stop-color="#CA7130"/>
</linearGradient>
<linearGradient id="paint1_linear_5027_125667" x1="118.401" y1="23.8438" x2="118.401" y2="105.785" gradientUnits="userSpaceOnUse">
<stop stop-color="#1F1F1F"/>
<stop offset="0.0001" stop-color="#5B5B5B"/>
<stop offset="1" stop-color="#161616"/>
</linearGradient>
</defs>
</svg>
