<svg width="128" height="128" viewBox="0 0 128 128" fill="none" xmlns="http://www.w3.org/2000/svg">
<g clip-path="url(#clip0_5027_145008)">
<path d="M122.448 110.302C118.777 108.853 115.568 106.362 113.253 103.12C122.319 96.994 128 88.213 128 78.4568C128 67.7808 121.198 58.271 110.601 52.1328C109.482 77.9972 82.0326 96.4153 51.1462 96.4153C48.5467 96.4153 45.9706 96.2814 43.4231 96.0293C51.4662 105.598 65.879 111.976 82.324 111.976C88.3222 111.976 94.0493 111.126 99.2968 109.584C103.992 113.978 110.671 116.108 117.45 114.719C119.27 114.346 120.984 113.742 122.568 112.945C123.079 112.688 123.391 112.155 123.365 111.584C123.339 111.013 122.98 110.511 122.448 110.302Z" fill="url(#paint0_linear_5027_145008)"/>
<path d="M102.292 50.5332C102.292 29.8042 79.3934 13 51.1463 13C22.8992 13 0.000244141 29.8042 0.000244141 50.5332C0.000244141 61.4569 6.36129 71.2892 16.5114 78.1481C13.8485 81.8785 10.1289 84.7201 5.87823 86.3217C5.34424 86.5229 4.97778 87.0182 4.94216 87.5878C4.90654 88.1574 5.20873 88.6947 5.71378 88.9608C9.01951 90.701 12.7346 91.6095 16.4469 91.6095C22.3758 91.6095 27.9605 89.2997 32.141 85.3876C38.0168 87.1145 44.4299 88.0664 51.1465 88.0664C79.3936 88.0664 102.292 71.2623 102.292 50.5332Z" fill="url(#paint1_linear_5027_145008)"/>
</g>
<defs>
<linearGradient id="paint0_linear_5027_145008" x1="85.7117" y1="52.1328" x2="85.7117" y2="115.14" gradientUnits="userSpaceOnUse">
<stop stop-color="#81D68F"/>
<stop offset="1" stop-color="#02B520"/>
</linearGradient>
<linearGradient id="paint1_linear_5027_145008" x1="51.1463" y1="13" x2="51.1463" y2="91.6095" gradientUnits="userSpaceOnUse">
<stop stop-color="#9BC0EA"/>
<stop offset="1" stop-color="#3D6DA4"/>
</linearGradient>
<clipPath id="clip0_5027_145008">
<rect width="128" height="128" fill="white"/>
</clipPath>
</defs>
</svg>
