<svg width="128" height="128" viewBox="0 0 128 128" fill="none" xmlns="http://www.w3.org/2000/svg">
<path d="M63.8664 127.999C41.9734 127.999 24.1621 103.637 24.1621 81.7442V39.7043C24.1621 17.8113 41.9734 0 63.8664 0C85.7595 0 103.571 17.8113 103.571 39.7043V81.7442C103.571 103.637 85.7592 127.999 63.8664 127.999ZM63.8664 17.9658C51.88 17.9658 42.1279 27.7176 42.1279 39.7043V81.7442C42.1279 93.731 51.88 103.483 63.8664 103.483C75.8528 103.483 85.605 93.731 85.605 81.7442V39.7043C85.605 27.7176 75.8528 17.9658 63.8664 17.9658Z" fill="url(#paint0_linear_5027_140436)"/>
<path d="M63.8667 0V17.9658C75.8531 17.9658 85.6053 27.7176 85.6053 39.7043V81.7442C85.6053 93.731 75.8531 103.483 63.8667 103.483V127.999C85.7598 127.999 103.571 103.637 103.571 81.7442V39.7043C103.571 17.8113 85.7594 0 63.8667 0Z" fill="url(#paint1_linear_5027_140436)"/>
<path d="M112.015 48.2734H15V127.995H112.015V48.2734Z" fill="url(#paint2_linear_5027_140436)"/>
<g filter="url(#filter0_d_5027_140436)">
<path d="M41.2862 94.3339C39.6904 94.3339 38.0059 93.6246 36.8533 92.4721C35.7008 91.3195 35.0802 89.7237 35.0802 88.1279C35.0802 86.532 35.7895 84.9362 36.8533 83.695C38.0059 82.5425 39.6017 81.9219 41.2862 81.9219C42.882 81.9219 44.4779 82.6311 45.6304 83.695C46.7829 84.8476 47.4922 86.4434 47.4922 88.1279C47.4922 89.7237 46.7829 91.3195 45.6304 92.4721C44.4779 93.6246 42.882 94.3339 41.2862 94.3339ZM67.7947 92.4721C68.9472 91.3195 69.6565 89.7237 69.6565 88.1279C69.6565 86.532 68.9472 84.9362 67.7947 83.695C66.6421 82.5425 65.0463 81.9219 63.4505 81.9219C61.8547 81.9219 60.1702 82.6311 59.0176 83.695C57.8651 84.8476 57.2445 86.4434 57.2445 88.1279C57.2445 89.7237 57.9537 91.3195 59.0176 92.4721C60.1702 93.6246 61.766 94.3339 63.4505 94.3339C65.0463 94.3339 66.6421 93.6246 67.7947 92.4721ZM89.959 92.4721C91.1115 91.3195 91.8208 89.7237 91.8208 88.1279C91.8208 86.532 91.1115 84.9362 89.959 83.695C88.8064 82.5425 87.2106 81.9219 85.6148 81.9219C84.0189 81.9219 82.3344 82.6311 81.1819 83.695C80.0294 84.8476 79.4088 86.4434 79.4088 88.1279C79.4088 89.7237 80.118 91.3195 81.1819 92.4721C82.3344 93.6246 83.9303 94.3339 85.6148 94.3339C87.2106 94.3339 88.8064 93.6246 89.959 92.4721Z" fill="#EDDCC8"/>
</g>
<defs>
<filter id="filter0_d_5027_140436" x="32.0802" y="80.9219" width="62.7406" height="18.4141" filterUnits="userSpaceOnUse" color-interpolation-filters="sRGB">
<feFlood flood-opacity="0" result="BackgroundImageFix"/>
<feColorMatrix in="SourceAlpha" type="matrix" values="0 0 0 0 0 0 0 0 0 0 0 0 0 0 0 0 0 0 127 0" result="hardAlpha"/>
<feOffset dy="2"/>
<feGaussianBlur stdDeviation="1.5"/>
<feComposite in2="hardAlpha" operator="out"/>
<feColorMatrix type="matrix" values="0 0 0 0 0 0 0 0 0 0 0 0 0 0 0 0 0 0 0.5 0"/>
<feBlend mode="normal" in2="BackgroundImageFix" result="effect1_dropShadow_5027_140436"/>
<feBlend mode="normal" in="SourceGraphic" in2="effect1_dropShadow_5027_140436" result="shape"/>
</filter>
<linearGradient id="paint0_linear_5027_140436" x1="63.8664" y1="0" x2="63.8664" y2="127.999" gradientUnits="userSpaceOnUse">
<stop stop-color="#6DA8D6"/>
<stop offset="1" stop-color="#2974A8"/>
</linearGradient>
<linearGradient id="paint1_linear_5027_140436" x1="83.7189" y1="0" x2="83.7189" y2="127.999" gradientUnits="userSpaceOnUse">
<stop stop-color="#2974A8"/>
<stop offset="1" stop-color="#6DA8D6"/>
</linearGradient>
<linearGradient id="paint2_linear_5027_140436" x1="63.5076" y1="48.2734" x2="63.5076" y2="127.995" gradientUnits="userSpaceOnUse">
<stop stop-color="#FFA700"/>
<stop offset="1" stop-color="#F9661E"/>
</linearGradient>
</defs>
</svg>
