<svg width="128" height="128" viewBox="0 0 128 128" fill="none" xmlns="http://www.w3.org/2000/svg">
<path d="M112 128H16C7.2 128 0 120.8 0 112V16C0 7.2 7.2 0 16 0H112C120.8 0 128 7.2 128 16V112C128 120.8 120.8 128 112 128Z" fill="url(#paint0_linear_5027_139092)"/>
<path d="M40.6375 44.3385C48.463 44.3385 54.8068 37.9947 54.8068 30.1693C54.8068 22.3438 48.463 16 40.6375 16C32.8121 16 26.4683 22.3438 26.4683 30.1693C26.4683 37.9947 32.8121 44.3385 40.6375 44.3385Z" fill="#B2B2B2"/>
<path d="M40.6382 40.8906C28.0976 40.8906 18 50.9883 18 63.5289V68.9034C18 70.532 19.3029 71.9978 21.0944 71.9978H60.182C61.8107 71.9978 63.2765 70.6949 63.2765 68.9034V63.5289C63.2765 50.9883 53.1788 40.8906 40.6382 40.8906Z" fill="#B2B2B2"/>
<path d="M110 28.6H74C72.9 28.6 72 27.7 72 26.6V21C72 19.9 72.9 19 74 19H110C111.1 19 112 19.9 112 21V26.6C112 27.7 111.1 28.6 110 28.6Z" fill="#B2B2B2"/>
<path d="M110 50.6H74C72.9 50.6 72 49.7 72 48.6V43C72 41.9 72.9 41 74 41H110C111.1 41 112 41.9 112 43V48.6C112 49.7 111.1 50.6 110 50.6Z" fill="#B2B2B2"/>
<path d="M110 71.6H74C72.9 71.6 72 70.7 72 69.6V64C72 62.9 72.9 62 74 62H110C111.1 62 112 62.9 112 64V69.6C112 70.7 111.1 71.6 110 71.6Z" fill="#B2B2B2"/>
<path d="M110 83H18C16.9 83 16 82.1 16 81C16 79.9 16.9 79 18 79H110C111.1 79 112 79.9 112 81C112 82.1 111.1 83 110 83Z" fill="#B2B2B2"/>
<path d="M110 98H18C16.9 98 16 97.1 16 96C16 94.9 16.9 94 18 94H110C111.1 94 112 94.9 112 96C112 97.1 111.1 98 110 98Z" fill="#B2B2B2"/>
<path d="M110 112H18C16.9 112 16 111.1 16 110C16 108.9 16.9 108 18 108H110C111.1 108 112 108.9 112 110C112 111.1 111.1 112 110 112Z" fill="#B2B2B2"/>
<defs>
<linearGradient id="paint0_linear_5027_139092" x1="64" y1="0" x2="64" y2="128" gradientUnits="userSpaceOnUse">
<stop stop-color="#FAFAFA"/>
<stop offset="1" stop-color="#D4D4D2"/>
</linearGradient>
</defs>
</svg>
