<svg width="128" height="128" viewBox="0 0 128 128" fill="none" xmlns="http://www.w3.org/2000/svg">
<g clip-path="url(#clip0_5027_139179)">
<rect x="-0.000976562" width="127.506" height="128" rx="18.7488" fill="url(#paint0_linear_5027_139179)"/>
<path d="M113.172 21.7325L113.172 82.7214L98.2435 82.7214L98.2435 94.216L84.2478 94.216L84.2478 106.242L40.4561 106.242L40.4561 94.216L27.3934 94.216L27.3934 82.7214L14.3307 82.7214L14.3307 21.7325L113.172 21.7325Z" fill="#37474F"/>
<rect x="28.6731" y="27.8438" width="6.42061" height="22.0576" fill="#FDD835"/>
<rect x="39.3452" y="27.8438" width="6.42061" height="22.0576" fill="#FDD835"/>
<rect x="50.0183" y="27.8438" width="6.42061" height="22.0576" fill="#FDD835"/>
<rect x="60.6914" y="27.8438" width="6.42061" height="22.0576" fill="#FDD835"/>
<rect x="71.3645" y="27.8438" width="6.42061" height="22.0576" fill="#FDD835"/>
<rect x="82.0366" y="27.8438" width="6.42061" height="22.0576" fill="#FDD835"/>
<rect x="92.7087" y="27.8438" width="6.42061" height="22.0576" fill="#FDD835"/>
</g>
<defs>
<linearGradient id="paint0_linear_5027_139179" x1="63.7519" y1="0" x2="63.7519" y2="128" gradientUnits="userSpaceOnUse">
<stop stop-color="#D3D7DD"/>
<stop offset="1" stop-color="#888C90"/>
</linearGradient>
<clipPath id="clip0_5027_139179">
<rect width="128" height="128" fill="white" transform="translate(-0.000976562)"/>
</clipPath>
</defs>
</svg>
