<svg width="1000" height="1000" viewBox="0 0 1000 1000" fill="none" xmlns="http://www.w3.org/2000/svg">
<path fill-rule="evenodd" clip-rule="evenodd" d="M267.981 379.742C267.981 375.609 267.98 361.489 267.98 348.186L267.984 320.876C268.039 309.342 269.638 298.092 272.602 287.238C269.585 276.198 267.981 264.747 267.981 253.004C267.981 249.488 267.98 234.824 267.98 221.038L267.978 194.346C268.263 132.782 311.3 83.0883 366.318 51.3243C422.447 18.9185 497.651 0 578.812 0C659.973 0 735.178 18.9185 791.307 51.3243C846.507 83.1936 889.642 132.492 889.643 194.343L889.644 253.004C889.644 264.747 888.04 276.198 885.024 287.238C888.04 298.284 889.644 309.741 889.644 321.492V380.153C889.644 391.904 888.038 403.362 885.018 414.409C888.038 425.461 889.644 436.926 889.644 448.685V507.346C889.644 519.112 888.034 530.585 885.006 541.644C888.007 552.614 889.615 563.988 889.643 575.653C889.644 575.756 889.644 575.859 889.644 575.962V634.622C889.644 646.374 888.038 657.832 885.017 668.879C888.011 679.836 889.615 691.196 889.643 702.846C889.644 702.949 889.644 703.052 889.644 703.155V761.815C889.644 823.652 846.464 872.947 791.271 904.814C740.755 933.979 674.8 952.234 602.987 955.597C599.558 960.653 594.859 965.327 588.499 968.999C584.547 971.281 580.581 972.814 576.682 973.754C573.917 976.663 570.605 979.333 566.651 981.616L545.134 994.039C544.933 994.155 544.732 994.268 544.53 994.38C526.163 1004.63 507.578 998.885 496.957 992.751C431.764 955.112 211.472 827.926 146.285 790.29C134.992 783.771 126.277 773.834 120.442 763.728C114.605 753.618 110.357 741.1 110.357 728.06V456.449L110.355 420.967C110.355 414.158 111.53 406.351 115.098 398.687C118.488 391.404 124.111 384.207 132.432 379.138L154.779 366.22C158.731 363.939 162.767 362.366 166.666 361.426C169.431 358.517 172.744 355.847 176.7 353.564C195.265 342.849 214.141 348.657 224.867 354.85L267.981 379.742Z" fill="black"/>
<path d="M578.81 862.279C731.025 862.279 854.419 791.039 854.419 703.157C854.419 615.277 731.025 544.035 578.81 544.035C426.597 544.035 303.203 615.277 303.203 703.157C303.203 791.039 426.597 862.279 578.81 862.279Z" fill="#FF0000"/>
<path d="M578.81 862.279C731.025 862.279 854.419 791.039 854.419 703.157C854.419 615.277 731.025 544.035 578.81 544.035C426.597 544.035 303.203 615.277 303.203 703.157C303.203 791.039 426.597 862.279 578.81 862.279Z" fill="url(#paint0_linear_5075_6250)"/>
<path d="M578.81 735.088C731.025 735.088 854.419 663.847 854.419 575.966C854.419 488.085 731.025 416.844 578.81 416.844C426.597 416.844 303.203 488.085 303.203 575.966C303.203 663.847 426.597 735.088 578.81 735.088Z" fill="#FF0000"/>
<path d="M578.81 735.088C731.025 735.088 854.419 663.847 854.419 575.966C854.419 488.085 731.025 416.844 578.81 416.844C426.597 416.844 303.203 488.085 303.203 575.966C303.203 663.847 426.597 735.088 578.81 735.088Z" fill="url(#paint1_linear_5075_6250)"/>
<path d="M578.81 607.808C731.025 607.808 854.419 536.566 854.419 448.686C854.419 360.804 731.025 289.562 578.81 289.562C426.597 289.562 303.203 360.804 303.203 448.686C303.203 536.566 426.597 607.808 578.81 607.808Z" fill="#FF0000"/>
<path d="M578.81 607.808C731.025 607.808 854.419 536.566 854.419 448.686C854.419 360.804 731.025 289.562 578.81 289.562C426.597 289.562 303.203 360.804 303.203 448.686C303.203 536.566 426.597 607.808 578.81 607.808Z" fill="url(#paint2_linear_5075_6250)"/>
<path d="M578.81 480.616C731.025 480.616 854.419 409.375 854.419 321.494C854.419 233.613 731.025 162.371 578.81 162.371C426.597 162.371 303.203 233.613 303.203 321.494C303.203 409.375 426.597 480.616 578.81 480.616Z" fill="#FF0000"/>
<path d="M578.81 480.616C731.025 480.616 854.419 409.375 854.419 321.494C854.419 233.613 731.025 162.371 578.81 162.371C426.597 162.371 303.203 233.613 303.203 321.494C303.203 409.375 426.597 480.616 578.81 480.616Z" fill="url(#paint3_linear_5075_6250)"/>
<path fill-rule="evenodd" clip-rule="evenodd" d="M830.451 634.623V703.155C830.451 783.34 717.694 848.442 578.809 848.442C439.923 848.442 327.166 783.34 327.166 703.155L327.168 635.135C327.64 715.081 440.215 779.908 578.809 779.908C717.694 779.908 830.451 714.808 830.451 634.623ZM830.451 507.346V575.878C830.451 656.063 717.694 721.164 578.809 721.164C439.923 721.164 327.166 656.063 327.166 575.878L327.168 507.857C327.64 587.804 440.215 652.631 578.809 652.631C717.694 652.631 830.451 587.531 830.451 507.346ZM830.451 380.153V448.685C830.451 528.871 717.694 593.971 578.809 593.971C439.923 593.971 327.166 528.871 327.166 448.685L327.168 380.664C327.64 460.611 440.215 525.438 578.809 525.438C717.694 525.438 830.451 460.338 830.451 380.153ZM830.451 253.004V321.536C830.451 401.722 717.694 466.822 578.809 466.822C439.923 466.822 327.166 401.722 327.166 321.536L327.168 253.516C327.64 333.462 440.215 398.289 578.809 398.289C717.694 398.289 830.451 333.189 830.451 253.004Z" fill="#00FF00"/>
<path fill-rule="evenodd" clip-rule="evenodd" d="M830.451 634.623V703.155C830.451 783.34 717.694 848.442 578.809 848.442C439.923 848.442 327.166 783.34 327.166 703.155L327.168 635.135C327.64 715.081 440.215 779.908 578.809 779.908C717.694 779.908 830.451 714.808 830.451 634.623ZM830.451 507.346V575.878C830.451 656.063 717.694 721.164 578.809 721.164C439.923 721.164 327.166 656.063 327.166 575.878L327.168 507.857C327.64 587.804 440.215 652.631 578.809 652.631C717.694 652.631 830.451 587.531 830.451 507.346ZM830.451 380.153V448.685C830.451 528.871 717.694 593.971 578.809 593.971C439.923 593.971 327.166 528.871 327.166 448.685L327.168 380.664C327.64 460.611 440.215 525.438 578.809 525.438C717.694 525.438 830.451 460.338 830.451 380.153ZM830.451 253.004V321.536C830.451 401.722 717.694 466.822 578.809 466.822C439.923 466.822 327.166 401.722 327.166 321.536L327.168 253.516C327.64 333.462 440.215 398.289 578.809 398.289C717.694 398.289 830.451 333.189 830.451 253.004Z" fill="url(#paint4_linear_5075_6250)"/>
<path fill-rule="evenodd" clip-rule="evenodd" d="M854.42 703.155V761.816C854.42 849.637 730.923 920.939 578.811 920.939C426.699 920.939 303.202 849.637 303.202 761.816C303.202 754.781 303.199 703.155 303.199 703.155H303.202C303.202 790.978 426.699 862.278 578.811 862.278C730.923 862.278 854.42 790.978 854.42 703.155ZM854.42 575.962V634.623C854.42 722.445 730.923 793.746 578.811 793.746C426.699 793.746 303.202 722.445 303.202 634.623C303.202 627.588 303.199 575.962 303.199 575.962H303.202C303.202 663.785 426.699 735.086 578.811 735.086C730.923 735.086 854.42 663.785 854.42 575.962ZM854.42 448.685V507.346C854.42 595.168 730.923 666.468 578.811 666.468C426.699 666.468 303.202 595.168 303.202 507.346C303.202 500.311 303.199 448.685 303.199 448.685H303.202C303.202 536.507 426.699 607.808 578.811 607.808C730.923 607.808 854.42 536.507 854.42 448.685ZM854.42 321.493V380.153C854.42 467.975 730.923 539.275 578.811 539.275C426.699 539.275 303.202 467.975 303.202 380.153C303.202 373.118 303.199 321.493 303.199 321.493H303.202C303.202 409.314 426.699 480.615 578.811 480.615C730.923 480.615 854.42 409.314 854.42 321.493ZM303.199 194.344H854.42V253.004C854.42 340.826 730.923 412.126 578.811 412.126C426.699 412.126 303.202 340.826 303.202 253.004C303.202 245.969 303.199 194.344 303.199 194.344Z" fill="#FF0000"/>
<path fill-rule="evenodd" clip-rule="evenodd" d="M854.42 703.155V761.816C854.42 849.637 730.923 920.939 578.811 920.939C426.699 920.939 303.202 849.637 303.202 761.816C303.202 754.781 303.199 703.155 303.199 703.155H303.202C303.202 790.978 426.699 862.278 578.811 862.278C730.923 862.278 854.42 790.978 854.42 703.155ZM854.42 575.962V634.623C854.42 722.445 730.923 793.746 578.811 793.746C426.699 793.746 303.202 722.445 303.202 634.623C303.202 627.588 303.199 575.962 303.199 575.962H303.202C303.202 663.785 426.699 735.086 578.811 735.086C730.923 735.086 854.42 663.785 854.42 575.962ZM854.42 448.685V507.346C854.42 595.168 730.923 666.468 578.811 666.468C426.699 666.468 303.202 595.168 303.202 507.346C303.202 500.311 303.199 448.685 303.199 448.685H303.202C303.202 536.507 426.699 607.808 578.811 607.808C730.923 607.808 854.42 536.507 854.42 448.685ZM854.42 321.493V380.153C854.42 467.975 730.923 539.275 578.811 539.275C426.699 539.275 303.202 467.975 303.202 380.153C303.202 373.118 303.199 321.493 303.199 321.493H303.202C303.202 409.314 426.699 480.615 578.811 480.615C730.923 480.615 854.42 409.314 854.42 321.493ZM303.199 194.344H854.42V253.004C854.42 340.826 730.923 412.126 578.811 412.126C426.699 412.126 303.202 340.826 303.202 253.004C303.202 245.969 303.199 194.344 303.199 194.344Z" fill="url(#paint5_linear_5075_6250)"/>
<path d="M578.81 353.467C731.025 353.467 854.419 282.226 854.419 194.345C854.419 106.464 731.025 35.2227 578.81 35.2227C426.597 35.2227 303.203 106.464 303.203 194.345C303.203 282.226 426.597 353.467 578.81 353.467Z" fill="#FF0000"/>
<path d="M578.81 353.467C731.025 353.467 854.419 282.226 854.419 194.345C854.419 106.464 731.025 35.2227 578.81 35.2227C426.597 35.2227 303.203 106.464 303.203 194.345C303.203 282.226 426.597 353.467 578.81 353.467Z" fill="url(#paint6_linear_5075_6250)"/>
<path d="M739.801 267.725C828.715 216.391 828.715 133.163 739.803 81.8285C650.89 30.4945 506.734 30.4947 417.82 81.8288C328.906 133.163 328.906 216.392 417.819 267.726C506.732 319.06 650.888 319.059 739.801 267.725Z" fill="#FF0000"/>
<path d="M739.801 267.725C828.715 216.391 828.715 133.163 739.803 81.8285C650.89 30.4945 506.734 30.4947 417.82 81.8288C328.906 133.163 328.906 216.392 417.819 267.726C506.732 319.06 650.888 319.059 739.801 267.725Z" fill="url(#paint7_linear_5075_6250)"/>
<path d="M759.092 358.288C764.989 354.883 769.77 346.604 769.77 339.794C769.77 332.986 764.989 330.225 759.092 333.63C753.196 337.034 748.416 345.314 748.416 352.123C748.416 358.933 753.196 361.693 759.092 358.288Z" fill="#00FF00"/>
<path d="M759.092 358.288C764.989 354.883 769.77 346.604 769.77 339.794C769.77 332.986 764.989 330.225 759.092 333.63C753.196 337.034 748.416 345.314 748.416 352.123C748.416 358.933 753.196 361.693 759.092 358.288Z" fill="url(#paint8_linear_5075_6250)"/>
<path d="M804.952 329.269C810.849 325.864 815.629 317.584 815.629 310.775C815.629 303.966 810.849 301.206 804.952 304.611C799.056 308.015 794.275 316.295 794.275 323.104C794.275 329.913 799.056 332.673 804.952 329.269Z" fill="#00FF00"/>
<path d="M804.952 329.269C810.849 325.864 815.629 317.584 815.629 310.775C815.629 303.966 810.849 301.206 804.952 304.611C799.056 308.015 794.275 316.295 794.275 323.104C794.275 329.913 799.056 332.673 804.952 329.269Z" fill="url(#paint9_linear_5075_6250)"/>
<path d="M759.092 485.483C764.989 482.079 769.77 473.799 769.77 466.99C769.77 460.181 764.989 457.421 759.092 460.826C753.196 464.229 748.416 472.51 748.416 479.318C748.416 486.128 753.196 488.888 759.092 485.483Z" fill="#00FF00"/>
<path d="M759.092 485.483C764.989 482.079 769.77 473.799 769.77 466.99C769.77 460.181 764.989 457.421 759.092 460.826C753.196 464.229 748.416 472.51 748.416 479.318C748.416 486.128 753.196 488.888 759.092 485.483Z" fill="url(#paint10_linear_5075_6250)"/>
<path d="M804.952 456.46C810.849 453.055 815.629 444.776 815.629 437.966C815.629 431.157 810.849 428.397 804.952 431.802C799.056 435.206 794.275 443.486 794.275 450.295C794.275 457.105 799.056 459.865 804.952 456.46Z" fill="#00FF00"/>
<path d="M804.952 456.46C810.849 453.055 815.629 444.776 815.629 437.966C815.629 431.157 810.849 428.397 804.952 431.802C799.056 435.206 794.275 443.486 794.275 450.295C794.275 457.105 799.056 459.865 804.952 456.46Z" fill="url(#paint11_linear_5075_6250)"/>
<path d="M759.092 612.675C764.989 609.27 769.77 600.991 769.77 594.181C769.77 587.372 764.989 584.612 759.092 588.017C753.196 591.421 748.416 599.701 748.416 606.51C748.416 613.32 753.196 616.08 759.092 612.675Z" fill="#00FF00"/>
<path d="M759.092 612.675C764.989 609.27 769.77 600.991 769.77 594.181C769.77 587.372 764.989 584.612 759.092 588.017C753.196 591.421 748.416 599.701 748.416 606.51C748.416 613.32 753.196 616.08 759.092 612.675Z" fill="url(#paint12_linear_5075_6250)"/>
<path d="M804.952 583.655C810.849 580.25 815.629 571.971 815.629 565.161C815.629 558.353 810.849 555.593 804.952 558.997C799.056 562.401 794.275 570.682 794.275 577.49C794.275 584.3 799.056 587.06 804.952 583.655Z" fill="#00FF00"/>
<path d="M804.952 583.655C810.849 580.25 815.629 571.971 815.629 565.161C815.629 558.353 810.849 555.593 804.952 558.997C799.056 562.401 794.275 570.682 794.275 577.49C794.275 584.3 799.056 587.06 804.952 583.655Z" fill="url(#paint13_linear_5075_6250)"/>
<path d="M759.092 739.866C764.989 736.461 769.77 728.182 769.77 721.372C769.77 714.564 764.989 711.804 759.092 715.208C753.196 718.612 748.416 726.893 748.416 733.701C748.416 740.511 753.196 743.271 759.092 739.866Z" fill="#00FF00"/>
<path d="M759.092 739.866C764.989 736.461 769.77 728.182 769.77 721.372C769.77 714.564 764.989 711.804 759.092 715.208C753.196 718.612 748.416 726.893 748.416 733.701C748.416 740.511 753.196 743.271 759.092 739.866Z" fill="url(#paint14_linear_5075_6250)"/>
<path d="M804.952 710.847C810.849 707.442 815.629 699.163 815.629 692.353C815.629 685.544 810.849 682.784 804.952 686.189C799.056 689.593 794.275 697.873 794.275 704.682C794.275 711.491 799.056 714.252 804.952 710.847Z" fill="#00FF00"/>
<path d="M804.952 710.847C810.849 707.442 815.629 699.163 815.629 692.353C815.629 685.544 810.849 682.784 804.952 686.189C799.056 689.593 794.275 697.873 794.275 704.682C794.275 711.491 799.056 714.252 804.952 710.847Z" fill="url(#paint15_linear_5075_6250)"/>
<path d="M759.092 867.062C764.989 863.657 769.77 855.377 769.77 848.568C769.77 841.759 764.989 838.999 759.092 842.404C753.196 845.808 748.416 854.088 748.416 860.897C748.416 867.706 753.196 870.466 759.092 867.062Z" fill="#00FF00"/>
<path d="M759.092 867.062C764.989 863.657 769.77 855.377 769.77 848.568C769.77 841.759 764.989 838.999 759.092 842.404C753.196 845.808 748.416 854.088 748.416 860.897C748.416 867.706 753.196 870.466 759.092 867.062Z" fill="url(#paint16_linear_5075_6250)"/>
<path d="M804.952 838.038C810.849 834.633 815.629 826.354 815.629 819.544C815.629 812.736 810.849 809.975 804.952 813.38C799.056 816.784 794.275 825.064 794.275 831.873C794.275 838.683 799.056 841.443 804.952 838.038Z" fill="#00FF00"/>
<path d="M804.952 838.038C810.849 834.633 815.629 826.354 815.629 819.544C815.629 812.736 810.849 809.975 804.952 813.38C799.056 816.784 794.275 825.064 794.275 831.873C794.275 838.683 799.056 841.443 804.952 838.038Z" fill="url(#paint17_linear_5075_6250)"/>
<path fill-rule="evenodd" clip-rule="evenodd" d="M188.941 395.931C188.941 390.321 190.871 386.056 194.306 384.074C197.741 382.089 202.401 382.551 207.257 385.355C272.446 422.992 492.748 550.184 557.935 587.82C562.793 590.624 567.452 595.542 570.886 601.492C574.322 607.441 576.252 613.935 576.252 619.545C576.252 681.865 576.252 864.32 576.252 926.641C576.252 932.25 574.322 936.516 570.886 938.498C567.452 940.482 562.793 940.021 557.935 937.217C492.748 899.58 272.446 772.388 207.257 734.752C202.401 731.948 197.741 727.03 194.306 721.08C190.871 715.13 188.941 708.636 188.941 703.027C188.941 640.707 188.941 458.251 188.941 395.931Z" fill="#020202" fill-opacity="0.4"/>
<path fill-rule="evenodd" clip-rule="evenodd" d="M145.576 420.966C145.576 415.356 147.506 411.09 150.941 409.109C154.376 407.125 159.035 407.586 163.892 410.39C229.08 448.027 449.383 575.219 514.57 612.854C519.427 615.659 524.086 620.578 527.521 626.527C530.956 632.476 532.887 638.97 532.887 644.58C532.887 706.9 532.887 889.356 532.887 951.675C532.887 957.285 530.956 961.551 527.521 963.534C524.086 965.517 519.427 965.056 514.57 962.251C449.383 924.615 229.08 797.424 163.892 759.787C159.035 756.983 154.376 752.065 150.941 746.115C147.506 740.165 145.576 733.672 145.576 728.061C145.576 665.742 145.576 483.287 145.576 420.966Z" fill="url(#paint18_linear_5075_6250)"/>
<path fill-rule="evenodd" clip-rule="evenodd" d="M527.517 963.537L527.678 963.442C531.012 961.42 532.883 957.201 532.883 951.679C532.883 889.358 532.883 706.903 532.883 644.581C532.883 638.973 530.952 632.478 527.517 626.529C524.082 620.579 519.424 615.661 514.565 612.856L167.088 412.24V408.544C167.088 402.934 169.018 398.67 172.452 396.686C175.888 394.703 180.547 395.164 185.405 397.969C250.593 435.605 470.895 562.797 536.083 600.433C540.941 603.238 545.599 608.156 549.034 614.106C552.47 620.056 554.4 626.549 554.4 632.159C554.4 694.479 554.4 876.934 554.4 939.255C554.4 944.865 552.47 949.131 549.034 951.114L527.517 963.537Z" fill="url(#paint19_linear_5075_6250)"/>
<path fill-rule="evenodd" clip-rule="evenodd" d="M532.886 644.584C532.886 638.975 530.957 632.481 527.521 626.531C524.086 620.582 519.427 615.663 514.57 612.859C449.382 575.223 229.08 448.031 163.892 410.395C159.035 407.59 154.376 407.129 150.941 409.112C147.506 411.095 145.576 415.361 145.576 420.97V456.163L532.886 679.777V644.584Z" fill="url(#paint20_linear_5075_6250)"/>
<path fill-rule="evenodd" clip-rule="evenodd" d="M554.4 667.352V632.159C554.4 626.549 552.47 620.055 549.035 614.106C545.599 608.156 540.941 603.238 536.084 600.433C470.895 562.797 250.593 435.605 185.405 397.969C180.547 395.164 175.888 394.703 172.453 396.686L150.936 409.108C154.371 407.126 159.03 407.588 163.888 410.392C229.076 448.028 449.378 575.22 514.565 612.856C519.424 615.661 524.082 620.579 527.518 626.528C530.953 632.478 532.883 638.973 532.883 644.581V679.776L554.4 667.352Z" fill="url(#paint21_linear_5075_6250)"/>
<path fill-rule="evenodd" clip-rule="evenodd" d="M527.517 963.537L527.678 963.442C531.012 961.42 532.883 957.201 532.883 951.679C532.883 889.358 532.883 706.903 532.883 644.581C532.883 638.973 530.952 632.478 527.517 626.529C524.082 620.579 519.424 615.661 514.565 612.856L167.088 412.24V408.544C167.088 402.934 169.018 398.67 172.452 396.686C175.888 394.703 180.547 395.164 185.405 397.969C250.593 435.605 470.895 562.797 536.083 600.433C540.941 603.238 545.599 608.156 549.034 614.106C552.47 620.056 554.4 626.549 554.4 632.159C554.4 694.479 554.4 876.934 554.4 939.255C554.4 944.865 552.47 949.131 549.034 951.114L527.517 963.537Z" fill="url(#paint22_linear_5075_6250)"/>
<path fill-rule="evenodd" clip-rule="evenodd" d="M554.4 667.352V632.159C554.4 626.549 552.47 620.055 549.035 614.106C545.599 608.156 540.941 603.238 536.084 600.433C470.895 562.797 250.593 435.605 185.405 397.969C180.547 395.164 175.888 394.703 172.453 396.686L150.936 409.108C154.371 407.126 159.03 407.588 163.888 410.392C229.076 448.028 449.378 575.22 514.565 612.856C519.424 615.661 524.082 620.579 527.518 626.528C530.953 632.478 532.883 638.973 532.883 644.581V679.776L554.4 667.352Z" fill="url(#paint23_linear_5075_6250)"/>
<path d="M170.246 454.963C176.334 458.478 181.269 455.628 181.269 448.599C181.269 441.569 176.334 433.02 170.246 429.506C164.158 425.99 159.223 428.84 159.223 435.869C159.223 442.899 164.158 451.448 170.246 454.963Z" fill="#FF3126"/>
<path d="M199.965 472.119C206.052 475.634 210.988 472.784 210.988 465.755C210.988 458.725 206.052 450.176 199.965 446.662C193.877 443.147 188.941 445.997 188.941 453.026C188.941 460.055 193.877 468.604 199.965 472.119Z" fill="#FFFF66"/>
<path d="M229.679 489.275C235.767 492.79 240.703 489.941 240.703 482.911C240.703 475.881 235.767 467.333 229.679 463.818C223.591 460.303 218.656 463.153 218.656 470.183C218.656 477.213 223.591 485.76 229.679 489.275Z" fill="#86DA49"/>
<path fill-rule="evenodd" clip-rule="evenodd" d="M414.986 730.72L394.568 669.915C392.355 663.324 387.594 656.79 382.507 654.365C378.61 652.508 375.304 653.704 374.245 657.44L352.761 733.233L324.08 602.179C323.307 598.646 321.645 595.075 319.571 591.963C317.683 589.131 315.323 586.533 312.795 584.899C308.793 582.313 305.005 582.697 303.44 586.056L268.602 660.862L197.481 619.8C192.237 616.772 187.979 619.231 187.979 625.286C187.979 629.129 189.581 633.561 191.763 637.342C193.946 641.122 196.984 644.726 200.311 646.648L277.757 691.361C281.546 693.548 285.019 693.004 286.497 689.829L312.109 634.836L342.813 775.142C343.631 778.88 345.432 782.64 347.669 785.867C349.654 788.73 352.139 791.323 354.751 792.819C358.968 795.235 362.71 794.212 363.852 790.184L387.967 705.114L399.042 738.097C401.125 744.301 405.421 750.411 410.227 753.185L488.632 798.452C493.876 801.479 498.134 799.022 498.134 792.965C498.134 789.123 496.532 784.691 494.349 780.91C492.167 777.13 489.129 773.526 485.802 771.605L414.986 730.72Z" fill="#020202" fill-opacity="0.4"/>
<path fill-rule="evenodd" clip-rule="evenodd" d="M394.93 742.298L374.511 681.493C372.298 674.902 367.537 668.368 362.451 665.943C358.554 664.086 355.248 665.282 354.188 669.019L332.704 744.811L304.023 613.757C303.25 610.224 301.588 606.653 299.515 603.541C297.626 600.709 295.266 598.111 292.738 596.478C288.736 593.892 284.948 594.275 283.384 597.634L248.546 672.44L177.424 631.378C172.18 628.35 167.922 630.809 167.922 636.864C167.922 640.707 169.524 645.14 171.707 648.92C173.889 652.7 176.927 656.304 180.254 658.225L257.7 702.939C261.49 705.127 264.962 704.582 266.441 701.407L292.052 646.414L322.757 786.72C323.575 790.458 325.375 794.218 327.613 797.445C329.598 800.308 332.083 802.901 334.694 804.397C338.911 806.813 342.654 805.79 343.795 801.762L367.91 716.692L378.986 749.675C381.069 755.88 385.364 761.989 390.17 764.762L468.575 810.03C473.82 813.058 478.078 810.6 478.078 804.544C478.078 800.701 476.475 796.269 474.292 792.489C472.11 788.708 469.072 785.104 465.745 783.183L394.93 742.298Z" fill="url(#paint24_linear_5075_6250)"/>
<path fill-rule="evenodd" clip-rule="evenodd" d="M356.636 665.667C358.17 664.817 360.211 664.878 362.448 665.943C367.535 668.368 372.296 674.902 374.51 681.493L394.927 742.298L465.743 783.183C469.071 785.104 472.108 788.708 474.29 792.489C476.473 796.269 478.076 800.701 478.076 804.544C478.076 807.394 477.134 809.446 475.588 810.506L475.596 810.518L485.738 804.662L485.73 804.648C487.263 803.586 488.197 801.538 488.197 798.7C488.197 794.858 486.595 790.425 484.412 786.645C482.23 782.865 479.192 779.26 475.865 777.339L405.05 736.454L384.631 675.649C382.418 669.058 377.656 662.524 372.57 660.099C370.351 659.042 368.324 658.974 366.795 659.802L356.636 665.667ZM372.498 730.363L367.907 716.692L343.794 801.763C343.393 803.172 342.675 804.214 341.73 804.868L351.221 799.389C352.478 798.795 353.431 797.627 353.915 795.919L372.498 730.363ZM285.387 595.386C287.286 594.319 289.96 594.683 292.736 596.479C295.264 598.112 297.624 600.709 299.512 603.542C301.586 606.653 303.248 610.224 304.021 613.757L332.701 744.812L339.135 722.115L314.143 607.913C313.37 604.38 311.708 600.809 309.633 597.698C307.746 594.865 305.386 592.268 302.858 590.634C300.081 588.839 297.407 588.475 295.508 589.542L285.387 595.386ZM294.415 657.225L292.049 646.414L266.439 701.407C265.98 702.393 265.328 703.126 264.536 703.6L273.969 698.093C275.076 697.666 275.975 696.821 276.56 695.564L294.415 657.225ZM171.33 630.416C172.98 629.774 175.105 630.041 177.423 631.378L248.544 672.44L252.833 663.229L187.544 625.534C184.617 623.845 181.996 623.864 180.252 625.264L171.33 630.416Z" fill="url(#paint25_linear_5075_6250)"/>
<path opacity="0.2" d="M854.42 194.344C854.42 106.464 731.026 35.2227 578.812 35.2227C426.599 35.2227 303.206 106.464 303.205 194.344H303.201C303.201 194.344 303.204 245.969 303.204 253.004C303.204 264.753 305.414 276.207 309.608 287.234C305.415 298.268 303.205 309.731 303.205 321.492H303.201C303.201 321.492 303.204 373.118 303.204 380.153C303.204 391.91 305.417 403.371 309.617 414.405C306.345 423.008 304.279 431.873 303.526 440.936L207.256 385.354C202.399 382.55 197.74 382.088 194.305 384.072C190.869 386.054 188.94 390.319 188.94 395.929V400.006L185.41 397.967C180.552 395.162 175.893 394.702 172.458 396.685L172.432 396.699L150.94 409.107C151.678 408.681 152.473 408.368 153.314 408.167C152.474 408.369 151.681 408.682 150.944 409.108C149.262 410.078 147.94 411.597 147.03 413.553C146.081 415.591 145.578 418.104 145.578 420.967V456.16L145.579 456.161V728.06C145.579 733.67 147.509 740.164 150.944 746.114C154.379 752.064 159.038 756.982 163.896 759.786C229.083 797.422 449.386 924.614 514.573 962.25C519.43 965.055 524.089 965.516 527.524 963.532C528.133 963.181 528.694 962.759 529.206 962.27C528.739 962.717 528.231 963.108 527.683 963.44L527.522 963.535L549.04 951.113C552.475 949.129 554.405 944.863 554.405 939.253V935.178L557.933 937.215C562.791 940.019 567.45 940.48 570.884 938.497C574.321 936.515 576.25 932.249 576.25 926.64V920.932C577.103 920.936 577.958 920.938 578.813 920.938C730.925 920.938 854.421 849.637 854.421 761.815V703.155C854.421 705.284 854.349 707.404 854.205 709.513C854.349 707.404 854.42 705.285 854.42 703.156C854.42 691.387 852.207 679.917 848.009 668.875C852.208 657.842 854.421 646.38 854.421 634.622V575.962C854.421 578.072 854.35 580.172 854.209 582.262C854.35 580.172 854.42 578.073 854.42 575.963C854.42 564.179 852.202 552.694 847.993 541.64C852.202 530.594 854.421 519.118 854.421 507.346V448.685C854.421 436.916 852.208 425.446 848.009 414.405C852.208 403.371 854.421 391.91 854.421 380.153V321.492C854.421 309.731 852.211 298.268 848.017 287.234C852.211 276.207 854.421 264.753 854.421 253.004L854.42 194.344Z" fill="black"/>
<defs>
<linearGradient id="paint0_linear_5075_6250" x1="854.419" y1="722.934" x2="477.057" y2="405.817" gradientUnits="userSpaceOnUse">
<stop stop-color="#020202" stop-opacity="0.1"/>
<stop offset="1" stop-color="#020202" stop-opacity="0.3"/>
</linearGradient>
<linearGradient id="paint1_linear_5075_6250" x1="854.419" y1="595.743" x2="477.057" y2="278.625" gradientUnits="userSpaceOnUse">
<stop stop-color="#020202" stop-opacity="0.1"/>
<stop offset="1" stop-color="#020202" stop-opacity="0.3"/>
</linearGradient>
<linearGradient id="paint2_linear_5075_6250" x1="854.419" y1="468.462" x2="477.056" y2="151.345" gradientUnits="userSpaceOnUse">
<stop stop-color="#020202" stop-opacity="0.1"/>
<stop offset="1" stop-color="#020202" stop-opacity="0.3"/>
</linearGradient>
<linearGradient id="paint3_linear_5075_6250" x1="854.419" y1="341.271" x2="477.056" y2="24.1534" gradientUnits="userSpaceOnUse">
<stop stop-color="#020202" stop-opacity="0.1"/>
<stop offset="1" stop-color="#020202" stop-opacity="0.3"/>
</linearGradient>
<linearGradient id="paint4_linear_5075_6250" x1="830.402" y1="603.726" x2="338.734" y2="481.925" gradientUnits="userSpaceOnUse">
<stop stop-color="#FEFEFE" stop-opacity="0.3"/>
<stop offset="1" stop-color="#FEFEFE" stop-opacity="0"/>
</linearGradient>
<linearGradient id="paint5_linear_5075_6250" x1="854.418" y1="527.393" x2="303.202" y2="507.346" gradientUnits="userSpaceOnUse">
<stop stop-color="#020202" stop-opacity="0.3"/>
<stop offset="1" stop-color="#020202" stop-opacity="0.1"/>
</linearGradient>
<linearGradient id="paint6_linear_5075_6250" x1="854.419" y1="214.121" x2="477.056" y2="-102.995" gradientUnits="userSpaceOnUse">
<stop stop-color="#020202" stop-opacity="0"/>
<stop offset="1" stop-color="#020202" stop-opacity="0.2"/>
</linearGradient>
<linearGradient id="paint7_linear_5075_6250" x1="806.442" y1="194.345" x2="574.591" y2="-94.8579" gradientUnits="userSpaceOnUse">
<stop stop-color="#020202" stop-opacity="0.2"/>
<stop offset="1" stop-color="#020202" stop-opacity="0"/>
</linearGradient>
<linearGradient id="paint8_linear_5075_6250" x1="759.093" y1="332.172" x2="759.093" y2="359.747" gradientUnits="userSpaceOnUse">
<stop stop-color="#FEFEFE" stop-opacity="0.4"/>
<stop offset="1" stop-color="#FEFEFE" stop-opacity="0.4"/>
</linearGradient>
<linearGradient id="paint9_linear_5075_6250" x1="804.952" y1="303.152" x2="804.952" y2="330.727" gradientUnits="userSpaceOnUse">
<stop stop-color="#FEFEFE" stop-opacity="0.4"/>
<stop offset="1" stop-color="#FEFEFE" stop-opacity="0.4"/>
</linearGradient>
<linearGradient id="paint10_linear_5075_6250" x1="759.093" y1="459.367" x2="759.093" y2="486.942" gradientUnits="userSpaceOnUse">
<stop stop-color="#FEFEFE" stop-opacity="0.4"/>
<stop offset="1" stop-color="#FEFEFE" stop-opacity="0.4"/>
</linearGradient>
<linearGradient id="paint11_linear_5075_6250" x1="804.952" y1="430.344" x2="804.952" y2="457.918" gradientUnits="userSpaceOnUse">
<stop stop-color="#FEFEFE" stop-opacity="0.4"/>
<stop offset="1" stop-color="#FEFEFE" stop-opacity="0.4"/>
</linearGradient>
<linearGradient id="paint12_linear_5075_6250" x1="759.093" y1="586.559" x2="759.093" y2="614.133" gradientUnits="userSpaceOnUse">
<stop stop-color="#FEFEFE" stop-opacity="0.4"/>
<stop offset="1" stop-color="#FEFEFE" stop-opacity="0.4"/>
</linearGradient>
<linearGradient id="paint13_linear_5075_6250" x1="804.952" y1="557.539" x2="804.952" y2="585.114" gradientUnits="userSpaceOnUse">
<stop stop-color="#FEFEFE" stop-opacity="0.4"/>
<stop offset="1" stop-color="#FEFEFE" stop-opacity="0.4"/>
</linearGradient>
<linearGradient id="paint14_linear_5075_6250" x1="759.093" y1="713.75" x2="759.093" y2="741.325" gradientUnits="userSpaceOnUse">
<stop stop-color="#FEFEFE" stop-opacity="0.4"/>
<stop offset="1" stop-color="#FEFEFE" stop-opacity="0.4"/>
</linearGradient>
<linearGradient id="paint15_linear_5075_6250" x1="804.952" y1="684.73" x2="804.952" y2="712.305" gradientUnits="userSpaceOnUse">
<stop stop-color="#FEFEFE" stop-opacity="0.4"/>
<stop offset="1" stop-color="#FEFEFE" stop-opacity="0.4"/>
</linearGradient>
<linearGradient id="paint16_linear_5075_6250" x1="759.093" y1="840.945" x2="759.093" y2="868.52" gradientUnits="userSpaceOnUse">
<stop stop-color="#FEFEFE" stop-opacity="0.4"/>
<stop offset="1" stop-color="#FEFEFE" stop-opacity="0.4"/>
</linearGradient>
<linearGradient id="paint17_linear_5075_6250" x1="804.952" y1="811.922" x2="804.952" y2="839.496" gradientUnits="userSpaceOnUse">
<stop stop-color="#FEFEFE" stop-opacity="0.4"/>
<stop offset="1" stop-color="#FEFEFE" stop-opacity="0.4"/>
</linearGradient>
<linearGradient id="paint18_linear_5075_6250" x1="145.576" y1="743.017" x2="532.887" y2="680.109" gradientUnits="userSpaceOnUse">
<stop stop-color="#E1E3E7"/>
<stop offset="0.5" stop-color="#DADEE6"/>
<stop offset="1" stop-color="#D1D7E3"/>
</linearGradient>
<linearGradient id="paint19_linear_5075_6250" x1="547.447" y1="947.63" x2="546.817" y2="680.112" gradientUnits="userSpaceOnUse">
<stop stop-color="#E6E6E6"/>
<stop offset="1" stop-color="#00FF00"/>
</linearGradient>
<linearGradient id="paint20_linear_5075_6250" x1="150.941" y1="418.666" x2="532.887" y2="656.35" gradientUnits="userSpaceOnUse">
<stop stop-color="#72BBEC"/>
<stop offset="0.5" stop-color="#4EAAE7"/>
<stop offset="1" stop-color="#2296E2"/>
</linearGradient>
<linearGradient id="paint21_linear_5075_6250" x1="554.4" y1="664.027" x2="167.088" y2="395.473" gradientUnits="userSpaceOnUse">
<stop stop-color="#A4D5EE"/>
<stop offset="0.5" stop-color="#71C5EA"/>
<stop offset="1" stop-color="#3CA4CB"/>
</linearGradient>
<linearGradient id="paint22_linear_5075_6250" x1="532.883" y1="680.112" x2="529.62" y2="964.751" gradientUnits="userSpaceOnUse">
<stop stop-color="#E4E7ED"/>
<stop offset="0.5" stop-color="#EEF0F4"/>
<stop offset="1" stop-color="#F3F4F7"/>
</linearGradient>
<linearGradient id="paint23_linear_5075_6250" x1="554.4" y1="680.112" x2="167.088" y2="395.473" gradientUnits="userSpaceOnUse">
<stop stop-color="#BADFF6"/>
<stop offset="0.5" stop-color="#A6D6F4"/>
<stop offset="1" stop-color="#96CEF2"/>
</linearGradient>
<linearGradient id="paint24_linear_5075_6250" x1="478.078" y1="804.543" x2="171.332" y2="636.079" gradientUnits="userSpaceOnUse">
<stop stop-color="#D1403B"/>
<stop offset="0.5" stop-color="#E6524B"/>
<stop offset="1" stop-color="#FF584F"/>
</linearGradient>
<linearGradient id="paint25_linear_5075_6250" x1="178.733" y1="626.142" x2="485.833" y2="789.382" gradientUnits="userSpaceOnUse">
<stop stop-color="#F6BDBD"/>
<stop offset="0.55" stop-color="#FBAAAA"/>
<stop offset="1" stop-color="#ED9B9B"/>
</linearGradient>
</defs>
</svg>
