<svg width="1000" height="1000" viewBox="0 0 1000 1000" fill="none" xmlns="http://www.w3.org/2000/svg">
<path fill-rule="evenodd" clip-rule="evenodd" d="M540.515 4.58461C551.103 -1.52823 564.147 -1.5282 574.735 4.58468L788.771 128.158C799.359 134.271 805.881 145.568 805.881 157.794L805.884 698.881C816.085 705.072 822.346 716.154 822.346 728.133L822.347 766.159C822.347 778.385 815.825 789.683 805.237 795.796L459.485 995.415C448.897 1001.53 435.852 1001.53 425.265 995.415L194.764 862.336C184.176 856.223 177.653 844.925 177.653 832.7V794.677C177.653 782.702 183.911 771.618 194.117 765.423V224.333C194.117 212.107 200.64 200.81 211.228 194.697L540.515 4.58461Z" fill="black"/>
<path d="M557.628 595.055L211.876 794.674L442.377 927.754L788.129 728.135L557.628 595.055Z" fill="#FF0000"/>
<path d="M557.628 595.055L211.876 794.674L442.377 927.754L788.129 728.135L557.628 595.055Z" fill="url(#paint0_linear_5075_7411)"/>
<path d="M442.377 927.756L211.876 794.676V832.699L442.377 965.778V927.756Z" fill="#FF0000"/>
<path d="M442.377 927.756L211.876 794.676V832.699L442.377 965.778V927.756Z" fill="url(#paint1_linear_5075_7411)"/>
<path d="M788.126 728.133L442.374 927.753V965.776L788.126 766.156V728.133Z" fill="#FF0000"/>
<path d="M788.126 728.133L442.374 927.753V965.776L788.126 766.156V728.133Z" fill="url(#paint2_linear_5075_7411)"/>
<path d="M557.628 34.2188L228.341 224.333L417.681 333.648L746.968 143.534L557.628 34.2188Z" fill="#FF0000"/>
<path d="M557.628 34.2188L228.341 224.333L417.681 333.648L746.968 143.534L557.628 34.2188Z" fill="url(#paint3_linear_5075_7411)"/>
<path d="M746.966 143.535L586.438 236.216L611.135 250.474L771.663 157.794L746.966 143.535Z" fill="#FF0000"/>
<path d="M746.966 143.535L586.438 236.216L611.135 250.474L771.663 157.794L746.966 143.535Z" fill="url(#paint4_linear_5075_7411)"/>
<path d="M738.733 138.781L409.446 328.895L417.678 333.648L746.965 143.534L738.733 138.781Z" fill="url(#paint5_linear_5075_7411)"/>
<path d="M442.378 347.902L228.341 224.328V794.67L442.378 918.244V347.902Z" fill="#FF0000"/>
<path d="M442.378 347.902L228.341 224.328V794.67L442.378 918.244V347.902Z" fill="url(#paint6_linear_5075_7411)"/>
<path d="M611.139 250.469L586.442 236.211V806.553L611.139 820.812V250.469Z" fill="#FF0000"/>
<path d="M611.139 250.469L586.442 236.211V806.553L611.139 820.812V250.469Z" fill="url(#paint7_linear_5075_7411)"/>
<path d="M417.678 333.647L409.446 328.895V899.237L417.678 903.99V333.647Z" fill="url(#paint8_linear_5075_7411)"/>
<path fill-rule="evenodd" clip-rule="evenodd" d="M586.442 236.211L578.21 240.964L586.442 245.717V236.211Z" fill="#FF0000"/>
<path fill-rule="evenodd" clip-rule="evenodd" d="M586.442 236.211L578.21 240.964L586.442 245.717V236.211Z" fill="url(#paint9_linear_5075_7411)"/>
<path d="M771.665 157.793L611.138 250.474V820.816L771.665 728.135V157.793Z" fill="#FF0000"/>
<path d="M771.665 157.793L611.138 250.474V820.816L771.665 728.135V157.793Z" fill="url(#paint10_linear_5075_7411)"/>
<path d="M578.21 240.969L417.683 333.649L442.379 347.908L602.906 255.227L578.21 240.969Z" fill="#FF0000"/>
<path d="M578.21 240.969L417.683 333.649L442.379 347.908L602.906 255.227L578.21 240.969Z" fill="url(#paint11_linear_5075_7411)"/>
<path d="M602.905 255.223L442.378 347.903V918.245L602.905 825.565V255.223Z" fill="#FF0000"/>
<path d="M602.905 255.223L442.378 347.903V918.245L602.905 825.565V255.223Z" fill="url(#paint12_linear_5075_7411)"/>
<path fill-rule="evenodd" clip-rule="evenodd" d="M575.297 336.315C574.552 335.886 574.091 334.964 574.091 333.652C574.091 331.028 575.935 327.834 578.207 326.522C579.343 325.867 580.372 325.805 581.116 326.235L593.465 333.365C592.72 332.934 591.691 332.996 590.556 333.652C589.039 334.527 587.713 336.241 586.999 338.065C586.836 338.48 586.706 338.9 586.612 339.317C586.5 339.814 586.439 340.307 586.439 340.781C586.439 342.093 586.9 343.015 587.645 343.445L575.297 336.315Z" fill="url(#paint13_linear_5075_7411)"/>
<path fill-rule="evenodd" clip-rule="evenodd" d="M593.465 333.36C594.209 333.79 594.671 334.712 594.671 336.024C594.671 338.647 592.826 341.841 590.554 343.153C589.418 343.809 588.39 343.871 587.645 343.44C586.899 343.011 586.438 342.089 586.438 340.777C586.438 340.302 586.499 339.81 586.611 339.313C586.706 338.896 586.836 338.475 586.998 338.061C587.712 336.237 589.038 334.523 590.554 333.647C591.69 332.992 592.72 332.93 593.465 333.36Z" fill="url(#paint14_linear_5075_7411)"/>
<path fill-rule="evenodd" clip-rule="evenodd" d="M575.297 783.081C574.552 782.651 574.091 781.729 574.091 780.417C574.091 777.794 575.935 774.6 578.207 773.288C579.343 772.632 580.372 772.57 581.116 773.001L593.465 780.13C592.72 779.7 591.691 779.761 590.556 780.417C589.039 781.293 587.713 783.007 586.999 784.831C586.836 785.245 586.706 785.665 586.612 786.083C586.5 786.58 586.439 787.072 586.439 787.547C586.439 788.858 586.9 789.78 587.645 790.21L575.297 783.081Z" fill="url(#paint15_linear_5075_7411)"/>
<path fill-rule="evenodd" clip-rule="evenodd" d="M593.465 780.13C594.209 780.56 594.671 781.482 594.671 782.793C594.671 785.417 592.826 788.611 590.554 789.923C589.418 790.579 588.39 790.64 587.645 790.21C586.899 789.78 586.438 788.858 586.438 787.546C586.438 787.072 586.499 786.58 586.611 786.082C586.706 785.665 586.836 785.245 586.998 784.831C587.712 783.006 589.038 781.292 590.554 780.417C591.69 779.761 592.72 779.699 593.465 780.13Z" fill="url(#paint16_linear_5075_7411)"/>
<path fill-rule="evenodd" clip-rule="evenodd" d="M596.377 314.637V808.933C596.377 809.794 595.81 810.654 594.674 811.31C592.402 812.622 588.713 812.622 586.441 811.31C585.305 810.654 584.737 809.794 584.737 808.933V314.637C584.737 315.497 585.305 316.357 586.441 317.013C588.713 318.325 592.402 318.325 594.674 317.013C595.81 316.357 596.377 315.497 596.377 314.637Z" fill="#FF0000"/>
<path fill-rule="evenodd" clip-rule="evenodd" d="M596.377 314.637V808.933C596.377 809.794 595.81 810.654 594.674 811.31C592.402 812.622 588.713 812.622 586.441 811.31C585.305 810.654 584.737 809.794 584.737 808.933V314.637C584.737 315.497 585.305 316.357 586.441 317.013C588.713 318.325 592.402 318.325 594.674 317.013C595.81 316.357 596.377 315.497 596.377 314.637Z" fill="url(#paint17_linear_5075_7411)"/>
<path fill-rule="evenodd" clip-rule="evenodd" d="M584.737 314.638C584.737 313.777 585.305 312.917 586.441 312.261C588.713 310.949 592.402 310.949 594.674 312.261C595.81 312.917 596.377 313.777 596.377 314.638C596.377 315.498 595.81 316.358 594.674 317.014C592.402 318.326 588.713 318.326 586.441 317.014C585.305 316.358 584.737 315.498 584.737 314.638Z" fill="#FF0000"/>
<path fill-rule="evenodd" clip-rule="evenodd" d="M584.737 314.638C584.737 313.777 585.305 312.917 586.441 312.261C588.713 310.949 592.402 310.949 594.674 312.261C595.81 312.917 596.377 313.777 596.377 314.638C596.377 315.498 595.81 316.358 594.674 317.014C592.402 318.326 588.713 318.326 586.441 317.014C585.305 316.358 584.737 315.498 584.737 314.638Z" fill="url(#paint18_linear_5075_7411)"/>
<path fill-rule="evenodd" clip-rule="evenodd" d="M632.922 303.042C632.177 302.612 631.716 301.69 631.716 300.378C631.716 297.755 633.56 294.561 635.832 293.249C636.968 292.593 637.997 292.531 638.741 292.962L651.09 300.091C650.345 299.661 649.316 299.722 648.181 300.378C646.664 301.254 645.338 302.968 644.624 304.792C644.461 305.206 644.331 305.626 644.237 306.044C644.125 306.541 644.064 307.033 644.064 307.508C644.064 308.819 644.525 309.741 645.27 310.171L632.922 303.042Z" fill="url(#paint19_linear_5075_7411)"/>
<path fill-rule="evenodd" clip-rule="evenodd" d="M651.092 300.095C651.836 300.524 652.298 301.446 652.298 302.758C652.298 305.382 650.453 308.576 648.181 309.888C647.045 310.543 646.017 310.605 645.272 310.175C644.526 309.745 644.065 308.823 644.065 307.511C644.065 307.037 644.126 306.544 644.238 306.047C644.333 305.63 644.463 305.21 644.625 304.795C645.339 302.971 646.665 301.257 648.181 300.382C649.317 299.726 650.347 299.664 651.092 300.095Z" fill="url(#paint20_linear_5075_7411)"/>
<path fill-rule="evenodd" clip-rule="evenodd" d="M632.922 749.811C632.177 749.382 631.716 748.46 631.716 747.148C631.716 744.524 633.56 741.33 635.832 740.019C636.968 739.363 637.997 739.301 638.741 739.731L651.09 746.861C650.345 746.43 649.316 746.492 648.181 747.148C646.664 748.023 645.338 749.737 644.624 751.561C644.461 751.976 644.331 752.396 644.237 752.813C644.125 753.31 644.064 753.803 644.064 754.277C644.064 755.589 644.525 756.511 645.27 756.941L632.922 749.811Z" fill="url(#paint21_linear_5075_7411)"/>
<path fill-rule="evenodd" clip-rule="evenodd" d="M651.092 746.86C651.836 747.29 652.298 748.212 652.298 749.524C652.298 752.147 650.453 755.341 648.181 756.653C647.045 757.309 646.017 757.371 645.272 756.94C644.526 756.511 644.065 755.589 644.065 754.277C644.065 753.802 644.126 753.31 644.238 752.813C644.333 752.396 644.463 751.975 644.625 751.561C645.339 749.737 646.665 748.023 648.181 747.147C649.317 746.492 650.347 746.43 651.092 746.86Z" fill="url(#paint22_linear_5075_7411)"/>
<path fill-rule="evenodd" clip-rule="evenodd" d="M654.002 281.367V775.664C654.002 776.524 653.435 777.384 652.299 778.04C650.027 779.352 646.338 779.352 644.066 778.04C642.93 777.384 642.362 776.524 642.362 775.664V281.367C642.362 282.227 642.93 283.088 644.066 283.744C646.338 285.055 650.027 285.055 652.299 283.744C653.435 283.088 654.002 282.227 654.002 281.367Z" fill="#FF0000"/>
<path fill-rule="evenodd" clip-rule="evenodd" d="M654.002 281.367V775.664C654.002 776.524 653.435 777.384 652.299 778.04C650.027 779.352 646.338 779.352 644.066 778.04C642.93 777.384 642.362 776.524 642.362 775.664V281.367C642.362 282.227 642.93 283.088 644.066 283.744C646.338 285.055 650.027 285.055 652.299 283.744C653.435 283.088 654.002 282.227 654.002 281.367Z" fill="url(#paint23_linear_5075_7411)"/>
<path fill-rule="evenodd" clip-rule="evenodd" d="M642.362 281.368C642.362 280.508 642.93 279.648 644.066 278.992C646.338 277.68 650.027 277.68 652.299 278.992C653.435 279.648 654.002 280.508 654.002 281.368C654.002 282.228 653.435 283.089 652.299 283.745C650.027 285.056 646.338 285.056 644.066 283.745C642.93 283.089 642.362 282.228 642.362 281.368Z" fill="#FF0000"/>
<path fill-rule="evenodd" clip-rule="evenodd" d="M642.362 281.368C642.362 280.508 642.93 279.648 644.066 278.992C646.338 277.68 650.027 277.68 652.299 278.992C653.435 279.648 654.002 280.508 654.002 281.368C654.002 282.228 653.435 283.089 652.299 283.745C650.027 285.056 646.338 285.056 644.066 283.745C642.93 283.089 642.362 282.228 642.362 281.368Z" fill="url(#paint24_linear_5075_7411)"/>
<path d="M557.627 461.977L475.306 509.505V623.574L557.627 576.045V461.977Z" fill="url(#paint25_linear_5075_7411)"/>
<path fill-rule="evenodd" clip-rule="evenodd" d="M746.965 401.659V455.752C746.965 461.81 743.277 468.858 738.733 471.482L672.875 509.504C668.332 512.128 664.644 509.339 664.644 503.281V449.188C664.644 443.13 668.332 436.082 672.875 433.459L738.733 395.436C743.277 392.812 746.965 395.601 746.965 401.659ZM745.318 402.316C745.318 397.469 742.368 395.238 738.733 397.337L672.875 435.36C669.24 437.459 666.29 443.097 666.29 447.944V502.624C666.29 507.471 669.24 509.702 672.875 507.603L738.733 469.58C742.368 467.482 745.318 461.844 745.318 456.997V402.316Z" fill="url(#paint26_linear_5075_7411)"/>
<path d="M553.514 469.105L479.425 511.881V616.444L553.514 573.668V469.105Z" fill="#00FF00"/>
<path d="M553.514 469.105L479.425 511.881V616.444L553.514 573.668V469.105Z" fill="url(#paint27_linear_5075_7411)"/>
<path opacity="0.2" fill-rule="evenodd" clip-rule="evenodd" d="M228.34 224.332L557.625 34.2188L771.661 157.792L771.663 157.791V718.63L788.123 728.133L788.126 728.131L788.127 766.158L442.375 965.778L211.874 832.698V794.675L228.338 785.169V224.331L228.34 224.332ZM586.439 245.719L586.44 236.216V245.721L578.207 240.968L578.207 240.968L578.206 240.968L578.207 240.966L586.439 245.719Z" fill="black"/>
<defs>
<linearGradient id="paint0_linear_5075_7411" x1="617.846" y1="646.475" x2="493.995" y2="1485.36" gradientUnits="userSpaceOnUse">
<stop stop-color="#020202" stop-opacity="0.6"/>
<stop offset="1" stop-color="#020202" stop-opacity="0.5"/>
</linearGradient>
<linearGradient id="paint1_linear_5075_7411" x1="216.671" y1="973.747" x2="428.578" y2="986.9" gradientUnits="userSpaceOnUse">
<stop stop-color="#020202" stop-opacity="0.6"/>
<stop offset="1" stop-color="#020202" stop-opacity="0.5"/>
</linearGradient>
<linearGradient id="paint2_linear_5075_7411" x1="766.884" y1="588.306" x2="354.76" y2="662.311" gradientUnits="userSpaceOnUse">
<stop stop-color="#020202" stop-opacity="0.5"/>
<stop offset="1" stop-color="#020202" stop-opacity="0.6"/>
</linearGradient>
<linearGradient id="paint3_linear_5075_7411" x1="949.733" y1="134.935" x2="765.241" y2="629.941" gradientUnits="userSpaceOnUse">
<stop stop-color="#020202" stop-opacity="0.2"/>
<stop offset="1" stop-color="#020202" stop-opacity="0"/>
</linearGradient>
<linearGradient id="paint4_linear_5075_7411" x1="836.97" y1="134.237" x2="758.422" y2="6.97034" gradientUnits="userSpaceOnUse">
<stop stop-color="#020202" stop-opacity="0.2"/>
<stop offset="1" stop-color="#020202" stop-opacity="0"/>
</linearGradient>
<linearGradient id="paint5_linear_5075_7411" x1="578.206" y1="138.781" x2="578.206" y2="333.648" gradientUnits="userSpaceOnUse">
<stop stop-color="#020202" stop-opacity="0.5"/>
<stop offset="1" stop-color="#020202" stop-opacity="0.5"/>
</linearGradient>
<linearGradient id="paint6_linear_5075_7411" x1="510.293" y1="201.136" x2="34.9068" y2="384.081" gradientUnits="userSpaceOnUse">
<stop stop-color="#020202" stop-opacity="0.2"/>
<stop offset="1" stop-color="#020202" stop-opacity="0"/>
</linearGradient>
<linearGradient id="paint7_linear_5075_7411" x1="586.956" y1="2881.06" x2="609.111" y2="2881.07" gradientUnits="userSpaceOnUse">
<stop stop-color="#020202" stop-opacity="0.6"/>
<stop offset="1" stop-color="#020202" stop-opacity="0.5"/>
</linearGradient>
<linearGradient id="paint8_linear_5075_7411" x1="413.562" y1="328.895" x2="413.562" y2="903.99" gradientUnits="userSpaceOnUse">
<stop stop-color="#020202" stop-opacity="0.5"/>
<stop offset="1" stop-color="#020202" stop-opacity="0.5"/>
</linearGradient>
<linearGradient id="paint9_linear_5075_7411" x1="578.212" y1="236.417" x2="579.007" y2="246.11" gradientUnits="userSpaceOnUse">
<stop stop-color="#020202" stop-opacity="0.57"/>
<stop offset="1" stop-color="#020202" stop-opacity="0"/>
</linearGradient>
<linearGradient id="paint10_linear_5075_7411" x1="771.665" y1="157.793" x2="1227.78" y2="722.353" gradientUnits="userSpaceOnUse">
<stop stop-color="#020202" stop-opacity="0"/>
<stop offset="1" stop-color="#020202" stop-opacity="0.2"/>
</linearGradient>
<linearGradient id="paint11_linear_5075_7411" x1="668.213" y1="231.67" x2="589.665" y2="104.404" gradientUnits="userSpaceOnUse">
<stop stop-color="#020202" stop-opacity="0.2"/>
<stop offset="1" stop-color="#020202" stop-opacity="0"/>
</linearGradient>
<linearGradient id="paint12_linear_5075_7411" x1="602.905" y1="255.223" x2="1059.01" y2="819.782" gradientUnits="userSpaceOnUse">
<stop stop-color="#020202" stop-opacity="0"/>
<stop offset="1" stop-color="#020202" stop-opacity="0.2"/>
</linearGradient>
<linearGradient id="paint13_linear_5075_7411" x1="574.091" y1="337.848" x2="576.823" y2="326.547" gradientUnits="userSpaceOnUse">
<stop stop-color="#FFCC33"/>
<stop offset="1" stop-color="#CC9900"/>
</linearGradient>
<linearGradient id="paint14_linear_5075_7411" x1="586.438" y1="343.766" x2="586.746" y2="332.112" gradientUnits="userSpaceOnUse">
<stop stop-color="#FFCC33"/>
<stop offset="1" stop-color="#CC9900"/>
</linearGradient>
<linearGradient id="paint15_linear_5075_7411" x1="574.091" y1="784.613" x2="576.823" y2="773.313" gradientUnits="userSpaceOnUse">
<stop stop-color="#FFCC33"/>
<stop offset="1" stop-color="#CC9900"/>
</linearGradient>
<linearGradient id="paint16_linear_5075_7411" x1="586.438" y1="790.536" x2="586.746" y2="778.882" gradientUnits="userSpaceOnUse">
<stop stop-color="#FFCC33"/>
<stop offset="1" stop-color="#CC9900"/>
</linearGradient>
<linearGradient id="paint17_linear_5075_7411" x1="584.98" y1="2622.17" x2="595.419" y2="2622.17" gradientUnits="userSpaceOnUse">
<stop stop-color="#020202" stop-opacity="0.6"/>
<stop offset="1" stop-color="#020202" stop-opacity="0.5"/>
</linearGradient>
<linearGradient id="paint18_linear_5075_7411" x1="584.74" y1="311.423" x2="585.022" y2="318.311" gradientUnits="userSpaceOnUse">
<stop stop-color="#020202" stop-opacity="0.57"/>
<stop offset="1" stop-color="#020202" stop-opacity="0"/>
</linearGradient>
<linearGradient id="paint19_linear_5075_7411" x1="631.716" y1="304.574" x2="634.448" y2="293.274" gradientUnits="userSpaceOnUse">
<stop stop-color="#FFCC33"/>
<stop offset="1" stop-color="#CC9900"/>
</linearGradient>
<linearGradient id="paint20_linear_5075_7411" x1="644.065" y1="310.501" x2="644.373" y2="298.847" gradientUnits="userSpaceOnUse">
<stop stop-color="#FFCC33"/>
<stop offset="1" stop-color="#CC9900"/>
</linearGradient>
<linearGradient id="paint21_linear_5075_7411" x1="631.716" y1="751.344" x2="634.448" y2="740.043" gradientUnits="userSpaceOnUse">
<stop stop-color="#FFCC33"/>
<stop offset="1" stop-color="#CC9900"/>
</linearGradient>
<linearGradient id="paint22_linear_5075_7411" x1="644.065" y1="757.266" x2="644.373" y2="745.612" gradientUnits="userSpaceOnUse">
<stop stop-color="#FFCC33"/>
<stop offset="1" stop-color="#CC9900"/>
</linearGradient>
<linearGradient id="paint23_linear_5075_7411" x1="642.605" y1="2588.91" x2="653.044" y2="2588.91" gradientUnits="userSpaceOnUse">
<stop stop-color="#020202" stop-opacity="0.6"/>
<stop offset="1" stop-color="#020202" stop-opacity="0.5"/>
</linearGradient>
<linearGradient id="paint24_linear_5075_7411" x1="642.365" y1="278.154" x2="642.647" y2="285.041" gradientUnits="userSpaceOnUse">
<stop stop-color="#020202" stop-opacity="0.57"/>
<stop offset="1" stop-color="#020202" stop-opacity="0"/>
</linearGradient>
<linearGradient id="paint25_linear_5075_7411" x1="516.466" y1="461.977" x2="516.466" y2="623.574" gradientUnits="userSpaceOnUse">
<stop stop-color="#020202" stop-opacity="0.8"/>
<stop offset="1" stop-color="#020202" stop-opacity="0.8"/>
</linearGradient>
<linearGradient id="paint26_linear_5075_7411" x1="705.804" y1="394.449" x2="705.804" y2="510.491" gradientUnits="userSpaceOnUse">
<stop stop-color="#020202" stop-opacity="0.25"/>
<stop offset="1" stop-color="#686868" stop-opacity="0.25"/>
</linearGradient>
<linearGradient id="paint27_linear_5075_7411" x1="479.44" y1="472.302" x2="500.405" y2="620.595" gradientUnits="userSpaceOnUse">
<stop stop-color="#FEFEFE" stop-opacity="0.57"/>
<stop offset="1" stop-color="#FEFEFE" stop-opacity="0"/>
</linearGradient>
</defs>
</svg>
