<svg width="1000" height="1000" viewBox="0 0 1000 1000" fill="none" xmlns="http://www.w3.org/2000/svg">
<path fill-rule="evenodd" clip-rule="evenodd" d="M563.173 882.642L565.906 882.766L567.579 882.804C579.504 882.804 592.07 880.073 602.915 873.801L974.596 658.885C984.457 653.184 1000 639.785 1000 617.228L999.998 460.925C999.998 438.387 984.482 424.977 974.594 419.26L467.757 126.192C456.892 119.91 444.319 117.195 432.421 117.195C420.525 117.195 407.951 119.909 397.085 126.192L397.082 126.194L25.4033 341.108L25.4001 341.11C15.5151 346.827 0 360.236 0 382.774C0 382.914 0.000648147 383.053 0.00194835 383.193L0 539.076C0 561.633 15.5419 575.031 25.3996 580.733L25.4033 580.735L532.233 873.797C532.236 873.798 532.239 873.8 532.242 873.802C540.708 878.699 550.447 882.226 563.173 882.642Z" fill="black"/>
<path fill-rule="evenodd" clip-rule="evenodd" d="M415.277 158.456L415.281 158.458C419.607 155.96 425.583 154.414 432.18 154.414C438.776 154.414 444.752 155.96 449.078 158.458L449.081 158.456L956.145 451.21L956.142 451.212C960.469 453.71 963.147 457.159 963.147 460.968C963.147 464.777 960.469 468.226 956.142 470.724L956.145 470.726L584.298 685.412L584.296 685.41C579.969 687.909 573.993 689.454 567.397 689.454C560.8 689.454 554.824 687.909 550.498 685.41L550.494 685.412L43.4304 392.659L43.4333 392.657C39.1074 390.159 36.4297 386.709 36.4297 382.9C36.4297 379.092 39.1074 375.642 43.4333 373.144L43.4304 373.142L415.277 158.456Z" fill="#FF0000"/>
<path fill-rule="evenodd" clip-rule="evenodd" d="M415.277 158.456L415.281 158.458C419.607 155.96 425.583 154.414 432.18 154.414C438.776 154.414 444.752 155.96 449.078 158.458L449.081 158.456L956.145 451.21L956.142 451.212C960.469 453.71 963.147 457.159 963.147 460.968C963.147 464.777 960.469 468.226 956.142 470.724L956.145 470.726L584.298 685.412L584.296 685.41C579.969 687.909 573.993 689.454 567.397 689.454C560.8 689.454 554.824 687.909 550.498 685.41L550.494 685.412L43.4304 392.659L43.4333 392.657C39.1074 390.159 36.4297 386.709 36.4297 382.9C36.4297 379.092 39.1074 375.642 43.4333 373.144L43.4304 373.142L415.277 158.456Z" fill="url(#paint0_linear_5075_21202)"/>
<path fill-rule="evenodd" clip-rule="evenodd" d="M963.144 617.104C963.144 620.91 960.467 624.355 956.14 626.853L956.143 626.862L584.296 841.548L584.293 841.539C579.966 844.037 573.99 845.588 567.394 845.588L565.855 845.501V689.424C566.364 689.443 566.877 689.453 567.394 689.453C573.99 689.453 579.966 687.902 584.293 685.403L584.296 685.413L956.143 470.727L956.14 470.717C960.467 468.219 963.144 464.775 963.144 460.969V617.104Z" fill="#FF0000"/>
<path fill-rule="evenodd" clip-rule="evenodd" d="M963.144 617.104C963.144 620.91 960.467 624.355 956.14 626.853L956.143 626.862L584.296 841.548L584.293 841.539C579.966 844.037 573.99 845.588 567.394 845.588L565.855 845.501V689.424C566.364 689.443 566.877 689.453 567.394 689.453C573.99 689.453 579.966 687.902 584.293 685.403L584.296 685.413L956.143 470.727L956.14 470.717C960.467 468.219 963.144 464.775 963.144 460.969V617.104Z" fill="url(#paint1_linear_5075_21202)"/>
<path fill-rule="evenodd" clip-rule="evenodd" d="M36.4297 383.078C36.5117 386.816 39.1728 390.192 43.4314 392.651L43.4284 392.661L550.492 685.414L550.496 685.405C554.484 687.708 559.871 689.201 565.856 689.425V845.502C559.87 845.336 554.483 843.843 550.496 841.54L550.492 841.55L43.4284 548.796L43.4314 548.786C39.1055 546.288 36.4277 542.843 36.4277 539.038V382.902L36.4297 383.078Z" fill="#FF0000"/>
<path fill-rule="evenodd" clip-rule="evenodd" d="M36.4297 383.078C36.5117 386.816 39.1728 390.192 43.4314 392.651L43.4284 392.661L550.492 685.414L550.496 685.405C554.484 687.708 559.871 689.201 565.856 689.425V845.502C559.87 845.336 554.483 843.843 550.496 841.54L550.492 841.55L43.4284 548.796L43.4314 548.786C39.1055 546.288 36.4277 542.843 36.4277 539.038V382.902L36.4297 383.078Z" fill="url(#paint2_linear_5075_21202)"/>
<path d="M963.149 520.938L844.152 589.641V664.126L963.149 595.423V520.938Z" fill="#FF0000"/>
<path d="M963.149 520.938L844.152 589.641V664.126L963.149 595.423V520.938Z" fill="url(#paint3_linear_5075_21202)"/>
<path d="M957.122 531.372L853.607 591.137V608.435L957.122 548.67V531.372Z" fill="#FF0000"/>
<path d="M957.122 531.372L853.607 591.137V608.435L957.122 548.67V531.372Z" fill="url(#paint4_linear_5075_21202)"/>
<path fill-rule="evenodd" clip-rule="evenodd" d="M851.889 627.033L873.301 639.396V602.105L851.889 614.467V627.033Z" fill="#FF0000"/>
<path fill-rule="evenodd" clip-rule="evenodd" d="M851.889 627.033L873.301 639.396V602.105L851.889 614.467V627.033Z" fill="url(#paint5_linear_5075_21202)"/>
<path fill-rule="evenodd" clip-rule="evenodd" d="M873.296 639.394L851.885 651.756V627.031L873.296 639.394Z" fill="#FF0000"/>
<path fill-rule="evenodd" clip-rule="evenodd" d="M873.296 639.394L851.885 651.756V627.031L873.296 639.394Z" fill="url(#paint6_linear_5075_21202)"/>
<path fill-rule="evenodd" clip-rule="evenodd" d="M880.809 610.336L902.22 622.699V585.408L880.809 597.77V610.336Z" fill="#FF0000"/>
<path fill-rule="evenodd" clip-rule="evenodd" d="M880.809 610.336L902.22 622.699V585.408L880.809 597.77V610.336Z" fill="url(#paint7_linear_5075_21202)"/>
<path fill-rule="evenodd" clip-rule="evenodd" d="M902.22 622.699L880.809 635.06V610.336L902.22 622.699Z" fill="#FF0000"/>
<path fill-rule="evenodd" clip-rule="evenodd" d="M902.22 622.699L880.809 635.06V610.336L902.22 622.699Z" fill="url(#paint8_linear_5075_21202)"/>
<path fill-rule="evenodd" clip-rule="evenodd" d="M909.729 594.373L930.502 606.368L909.729 618.362L931.14 606V568.708L909.729 581.07V594.373Z" fill="#FF0000"/>
<path fill-rule="evenodd" clip-rule="evenodd" d="M909.729 594.373L930.502 606.368L909.729 618.362L931.14 606V568.708L909.729 581.07V594.373Z" fill="url(#paint9_linear_5075_21202)"/>
<path fill-rule="evenodd" clip-rule="evenodd" d="M930.502 606.37L909.729 618.364V594.375L930.502 606.37Z" fill="#FF0000"/>
<path fill-rule="evenodd" clip-rule="evenodd" d="M930.502 606.37L909.729 618.364V594.375L930.502 606.37Z" fill="url(#paint10_linear_5075_21202)"/>
<path fill-rule="evenodd" clip-rule="evenodd" d="M938.648 576.942L960.06 589.305V552.013L938.648 564.375V576.942Z" fill="#FF0000"/>
<path fill-rule="evenodd" clip-rule="evenodd" d="M938.648 576.942L960.06 589.305V552.013L938.648 564.375V576.942Z" fill="url(#paint11_linear_5075_21202)"/>
<path fill-rule="evenodd" clip-rule="evenodd" d="M960.06 589.304L938.648 601.666V576.941L960.06 589.304Z" fill="#FF0000"/>
<path fill-rule="evenodd" clip-rule="evenodd" d="M960.06 589.304L938.648 601.666V576.941L960.06 589.304Z" fill="url(#paint12_linear_5075_21202)"/>
<path d="M844.067 589.687L815.15 572.992V647.385L844.067 664.08V589.687Z" fill="#FF0000"/>
<path d="M844.067 589.687L815.15 572.992V647.385L844.067 664.08V589.687Z" fill="url(#paint13_linear_5075_21202)"/>
<path d="M963.145 520.94L934.148 504.199L815.072 572.948L844.068 589.689L963.145 520.94Z" fill="#FF0000"/>
<path d="M963.145 520.94L934.148 504.199L815.072 572.948L844.068 589.689L963.145 520.94Z" fill="url(#paint14_linear_5075_21202)"/>
<path d="M181.021 423.321C187.356 419.664 187.356 413.734 181.021 410.076C174.686 406.419 164.415 406.419 158.08 410.077C151.745 413.734 151.745 419.664 158.08 423.322C164.415 426.979 174.686 426.979 181.021 423.321Z" fill="#FF0000"/>
<path d="M181.021 423.321C187.356 419.664 187.356 413.734 181.021 410.076C174.686 406.419 164.415 406.419 158.08 410.077C151.745 413.734 151.745 419.664 158.08 423.322C164.415 426.979 174.686 426.979 181.021 423.321Z" fill="url(#paint15_linear_5075_21202)"/>
<path d="M273.433 476.677C279.768 473.019 279.768 467.089 273.433 463.432C267.098 459.774 256.827 459.774 250.492 463.432C244.157 467.09 244.157 473.02 250.492 476.677C256.827 480.335 267.098 480.335 273.433 476.677Z" fill="#FF0000"/>
<path d="M273.433 476.677C279.768 473.019 279.768 467.089 273.433 463.432C267.098 459.774 256.827 459.774 250.492 463.432C244.157 467.09 244.157 473.02 250.492 476.677C256.827 480.335 267.098 480.335 273.433 476.677Z" fill="url(#paint16_linear_5075_21202)"/>
<path d="M226.902 396.833C233.237 393.176 233.237 387.246 226.902 383.588C220.567 379.931 210.296 379.931 203.961 383.588C197.626 387.246 197.626 393.176 203.961 396.833C210.296 400.491 220.567 400.491 226.902 396.833Z" fill="#FF0000"/>
<path d="M226.902 396.833C233.237 393.176 233.237 387.246 226.902 383.588C220.567 379.931 210.296 379.931 203.961 383.588C197.626 387.246 197.626 393.176 203.961 396.833C210.296 400.491 220.567 400.491 226.902 396.833Z" fill="url(#paint17_linear_5075_21202)"/>
<path d="M319.312 450.189C325.647 446.531 325.647 440.601 319.312 436.944C312.977 433.286 302.706 433.286 296.371 436.944C290.036 440.601 290.036 446.531 296.371 450.189C302.706 453.846 312.977 453.846 319.312 450.189Z" fill="#FF0000"/>
<path d="M319.312 450.189C325.647 446.531 325.647 440.601 319.312 436.944C312.977 433.286 302.706 433.286 296.371 436.944C290.036 440.601 290.036 446.531 296.371 450.189C302.706 453.846 312.977 453.846 319.312 450.189Z" fill="url(#paint18_linear_5075_21202)"/>
<path d="M272.783 370.345C279.118 366.687 279.118 360.757 272.783 357.1C266.448 353.442 256.177 353.442 249.842 357.1C243.507 360.758 243.507 366.688 249.841 370.345C256.176 374.003 266.448 374.002 272.783 370.345Z" fill="#FF0000"/>
<path d="M272.783 370.345C279.118 366.687 279.118 360.757 272.783 357.1C266.448 353.442 256.177 353.442 249.842 357.1C243.507 360.758 243.507 366.688 249.841 370.345C256.176 374.003 266.448 374.002 272.783 370.345Z" fill="url(#paint19_linear_5075_21202)"/>
<path d="M365.197 423.696C371.532 420.039 371.532 414.109 365.197 410.451C358.862 406.794 348.591 406.794 342.256 410.452C335.921 414.109 335.921 420.039 342.256 423.697C348.59 427.354 358.862 427.354 365.197 423.696Z" fill="#FF0000"/>
<path d="M365.197 423.696C371.532 420.039 371.532 414.109 365.197 410.451C358.862 406.794 348.591 406.794 342.256 410.452C335.921 414.109 335.921 420.039 342.256 423.697C348.59 427.354 358.862 427.354 365.197 423.696Z" fill="url(#paint20_linear_5075_21202)"/>
<path d="M158.08 383.587C164.415 379.93 164.415 373.999 158.08 370.342C151.745 366.685 141.474 366.685 135.139 370.342C128.804 374 128.803 379.93 135.138 383.587C141.473 387.245 151.744 387.245 158.08 383.587Z" fill="#FF0000"/>
<path d="M158.08 383.587C164.415 379.93 164.415 373.999 158.08 370.342C151.745 366.685 141.474 366.685 135.139 370.342C128.804 374 128.803 379.93 135.138 383.587C141.473 387.245 151.744 387.245 158.08 383.587Z" fill="url(#paint21_linear_5075_21202)"/>
<path d="M341.613 489.552C347.948 485.894 347.948 479.964 341.613 476.307C335.278 472.649 325.007 472.649 318.672 476.307C312.337 479.965 312.337 485.895 318.672 489.552C325.007 493.21 335.278 493.21 341.613 489.552Z" fill="#FF0000"/>
<path d="M341.613 489.552C347.948 485.894 347.948 479.964 341.613 476.307C335.278 472.649 325.007 472.649 318.672 476.307C312.337 479.965 312.337 485.895 318.672 489.552C325.007 493.21 335.278 493.21 341.613 489.552Z" fill="url(#paint22_linear_5075_21202)"/>
<path d="M250.496 436.939C256.831 433.281 256.831 427.351 250.496 423.694C244.161 420.036 233.89 420.036 227.555 423.694C221.22 427.351 221.219 433.281 227.554 436.939C233.889 440.596 244.16 440.596 250.496 436.939Z" fill="#FF0000"/>
<path d="M250.496 436.939C256.831 433.281 256.831 427.351 250.496 423.694C244.161 420.036 233.89 420.036 227.555 423.694C221.22 427.351 221.219 433.281 227.554 436.939C233.889 440.596 244.16 440.596 250.496 436.939Z" fill="url(#paint23_linear_5075_21202)"/>
<path d="M341.613 277.626C347.948 273.969 347.948 268.039 341.613 264.381C335.278 260.724 325.007 260.724 318.672 264.381C312.337 268.039 312.337 273.969 318.672 277.626C325.007 281.284 335.278 281.284 341.613 277.626Z" fill="#FF0000"/>
<path d="M341.613 277.626C347.948 273.969 347.948 268.039 341.613 264.381C335.278 260.724 325.007 260.724 318.672 264.381C312.337 268.039 312.337 273.969 318.672 277.626C325.007 281.284 335.278 281.284 341.613 277.626Z" fill="url(#paint24_linear_5075_21202)"/>
<path d="M525.144 383.587C531.479 379.93 531.479 373.999 525.144 370.342C518.809 366.685 508.538 366.685 502.203 370.342C495.868 374 495.868 379.93 502.203 383.587C508.538 387.245 518.809 387.245 525.144 383.587Z" fill="#FF0000"/>
<path d="M525.144 383.587C531.479 379.93 531.479 373.999 525.144 370.342C518.809 366.685 508.538 366.685 502.203 370.342C495.868 374 495.868 379.93 502.203 383.587C508.538 387.245 518.809 387.245 525.144 383.587Z" fill="url(#paint25_linear_5075_21202)"/>
<path d="M434.019 330.978C440.354 327.32 440.354 321.39 434.019 317.733C427.684 314.075 417.413 314.075 411.078 317.733C404.743 321.39 404.743 327.32 411.078 330.978C417.413 334.635 427.684 334.635 434.019 330.978Z" fill="#FF0000"/>
<path d="M434.019 330.978C440.354 327.32 440.354 321.39 434.019 317.733C427.684 314.075 417.413 314.075 411.078 317.733C404.743 321.39 404.743 327.32 411.078 330.978C417.413 334.635 427.684 334.635 434.019 330.978Z" fill="url(#paint26_linear_5075_21202)"/>
<path d="M364.554 317.361C370.889 313.703 370.889 307.773 364.555 304.115C358.22 300.458 347.948 300.458 341.613 304.116C335.278 307.773 335.278 313.703 341.613 317.361C347.948 321.018 358.219 321.018 364.554 317.361Z" fill="#FF0000"/>
<path d="M364.554 317.361C370.889 313.703 370.889 307.773 364.555 304.115C358.22 300.458 347.948 300.458 341.613 304.116C335.278 307.773 335.278 313.703 341.613 317.361C347.948 321.018 358.219 321.018 364.554 317.361Z" fill="url(#paint27_linear_5075_21202)"/>
<path d="M456.964 370.716C463.299 367.058 463.3 361.128 456.965 357.471C450.63 353.813 440.359 353.814 434.024 357.471C427.688 361.129 427.688 367.059 434.023 370.716C440.358 374.374 450.629 374.374 456.964 370.716Z" fill="#FF0000"/>
<path d="M456.964 370.716C463.299 367.058 463.3 361.128 456.965 357.471C450.63 353.813 440.359 353.814 434.024 357.471C427.688 361.129 427.688 367.059 434.023 370.716C440.358 374.374 450.629 374.374 456.964 370.716Z" fill="url(#paint28_linear_5075_21202)"/>
<path d="M249.847 330.607C256.182 326.949 256.182 321.019 249.847 317.362C243.513 313.704 233.241 313.704 226.906 317.362C220.571 321.019 220.571 326.949 226.906 330.607C233.241 334.264 243.512 334.264 249.847 330.607Z" fill="#FF0000"/>
<path d="M249.847 330.607C256.182 326.949 256.182 321.019 249.847 317.362C243.513 313.704 233.241 313.704 226.906 317.362C220.571 321.019 220.571 326.949 226.906 330.607C233.241 334.264 243.512 334.264 249.847 330.607Z" fill="url(#paint29_linear_5075_21202)"/>
<path d="M433.376 436.568C439.712 432.91 439.712 426.98 433.377 423.322C427.042 419.665 416.771 419.665 410.436 423.323C404.1 426.98 404.1 432.91 410.435 436.568C416.77 440.225 427.041 440.225 433.376 436.568Z" fill="#FF0000"/>
<path d="M433.376 436.568C439.712 432.91 439.712 426.98 433.377 423.322C427.042 419.665 416.771 419.665 410.436 423.323C404.1 426.98 404.1 432.91 410.435 436.568C416.77 440.225 427.041 440.225 433.376 436.568Z" fill="url(#paint30_linear_5075_21202)"/>
<path d="M342.251 383.958C348.587 380.301 348.587 374.371 342.252 370.713C335.917 367.056 325.646 367.056 319.311 370.713C312.975 374.371 312.975 380.301 319.31 383.958C325.645 387.616 335.916 387.616 342.251 383.958Z" fill="#FF0000"/>
<path d="M342.251 383.958C348.587 380.301 348.587 374.371 342.252 370.713C335.917 367.056 325.646 367.056 319.311 370.713C312.975 374.371 312.975 380.301 319.31 383.958C325.645 387.616 335.916 387.616 342.251 383.958Z" fill="url(#paint31_linear_5075_21202)"/>
<path d="M433.376 224.646C439.712 220.988 439.712 215.058 433.377 211.401C427.042 207.743 416.771 207.743 410.436 211.401C404.1 215.058 404.1 220.988 410.435 224.646C416.77 228.303 427.041 228.303 433.376 224.646Z" fill="#FF0000"/>
<path d="M433.376 224.646C439.712 220.988 439.712 215.058 433.377 211.401C427.042 207.743 416.771 207.743 410.436 211.401C404.1 215.058 404.1 220.988 410.435 224.646C416.77 228.303 427.041 228.303 433.376 224.646Z" fill="url(#paint32_linear_5075_21202)"/>
<path d="M616.908 330.607C623.243 326.949 623.243 321.019 616.908 317.362C610.573 313.704 600.302 313.704 593.967 317.362C587.632 321.019 587.632 326.949 593.966 330.607C600.301 334.264 610.573 334.264 616.908 330.607Z" fill="#FF0000"/>
<path d="M616.908 330.607C623.243 326.949 623.243 321.019 616.908 317.362C610.573 313.704 600.302 313.704 593.967 317.362C587.632 321.019 587.632 326.949 593.966 330.607C600.301 334.264 610.573 334.264 616.908 330.607Z" fill="url(#paint33_linear_5075_21202)"/>
<path d="M525.787 277.997C532.122 274.34 532.122 268.41 525.787 264.752C519.452 261.095 509.181 261.095 502.846 264.752C496.511 268.41 496.51 274.34 502.845 277.997C509.18 281.655 519.451 281.655 525.787 277.997Z" fill="#FF0000"/>
<path d="M525.787 277.997C532.122 274.34 532.122 268.41 525.787 264.752C519.452 261.095 509.181 261.095 502.846 264.752C496.511 268.41 496.51 274.34 502.845 277.997C509.18 281.655 519.451 281.655 525.787 277.997Z" fill="url(#paint34_linear_5075_21202)"/>
<path d="M456.318 264.38C462.653 260.723 462.653 254.792 456.318 251.135C449.983 247.478 439.712 247.478 433.377 251.135C427.042 254.793 427.042 260.723 433.377 264.38C439.712 268.038 449.983 268.038 456.318 264.38Z" fill="#FF0000"/>
<path d="M456.318 264.38C462.653 260.723 462.653 254.792 456.318 251.135C449.983 247.478 439.712 247.478 433.377 251.135C427.042 254.793 427.042 260.723 433.377 264.38C439.712 268.038 449.983 268.038 456.318 264.38Z" fill="url(#paint35_linear_5075_21202)"/>
<path d="M548.734 317.732C555.069 314.074 555.069 308.144 548.734 304.487C542.399 300.829 532.128 300.829 525.793 304.487C519.458 308.144 519.458 314.074 525.793 317.732C532.128 321.389 542.399 321.389 548.734 317.732Z" fill="#FF0000"/>
<path d="M548.734 317.732C555.069 314.074 555.069 308.144 548.734 304.487C542.399 300.829 532.128 300.829 525.793 304.487C519.458 308.144 519.458 314.074 525.793 317.732C532.128 321.389 542.399 321.389 548.734 317.732Z" fill="url(#paint36_linear_5075_21202)"/>
<path d="M203.964 357.099C210.299 353.441 210.3 347.511 203.965 343.854C197.63 340.196 187.359 340.196 181.024 343.854C174.688 347.512 174.688 353.442 181.023 357.099C187.358 360.756 197.629 360.756 203.964 357.099Z" fill="#FF0000"/>
<path d="M203.964 357.099C210.299 353.441 210.3 347.511 203.965 343.854C197.63 340.196 187.359 340.196 181.024 343.854C174.688 347.512 174.688 353.442 181.023 357.099C187.358 360.756 197.629 360.756 203.964 357.099Z" fill="url(#paint37_linear_5075_21202)"/>
<path d="M387.496 463.06C393.831 459.402 393.831 453.472 387.496 449.815C381.161 446.157 370.89 446.157 364.555 449.815C358.22 453.472 358.219 459.402 364.554 463.06C370.889 466.717 381.16 466.717 387.496 463.06Z" fill="#FF0000"/>
<path d="M387.496 463.06C393.831 459.402 393.831 453.472 387.496 449.815C381.161 446.157 370.89 446.157 364.555 449.815C358.22 453.472 358.219 459.402 364.554 463.06C370.889 466.717 381.16 466.717 387.496 463.06Z" fill="url(#paint38_linear_5075_21202)"/>
<path d="M296.375 410.45C302.71 406.793 302.71 400.863 296.375 397.205C290.04 393.548 279.769 393.548 273.434 397.206C267.099 400.863 267.098 406.793 273.433 410.451C279.768 414.108 290.039 414.108 296.375 410.45Z" fill="#FF0000"/>
<path d="M296.375 410.45C302.71 406.793 302.71 400.863 296.375 397.205C290.04 393.548 279.769 393.548 273.434 397.206C267.099 400.863 267.098 406.793 273.433 410.451C279.768 414.108 290.039 414.108 296.375 410.45Z" fill="url(#paint39_linear_5075_21202)"/>
<path d="M387.496 251.134C393.831 247.476 393.831 241.546 387.496 237.889C381.161 234.231 370.89 234.232 364.555 237.889C358.22 241.547 358.219 247.477 364.554 251.134C370.889 254.792 381.16 254.792 387.496 251.134Z" fill="#FF0000"/>
<path d="M387.496 251.134C393.831 247.476 393.831 241.546 387.496 237.889C381.161 234.231 370.89 234.232 364.555 237.889C358.22 241.547 358.219 247.477 364.554 251.134C370.889 254.792 381.16 254.792 387.496 251.134Z" fill="url(#paint40_linear_5075_21202)"/>
<path d="M571.025 357.099C577.36 353.441 577.36 347.511 571.025 343.854C564.69 340.196 554.419 340.196 548.084 343.854C541.749 347.512 541.749 353.442 548.084 357.099C554.419 360.756 564.69 360.756 571.025 357.099Z" fill="#FF0000"/>
<path d="M571.025 357.099C577.36 353.441 577.36 347.511 571.025 343.854C564.69 340.196 554.419 340.196 548.084 343.854C541.749 347.512 541.749 353.442 548.084 357.099C554.419 360.756 564.69 360.756 571.025 357.099Z" fill="url(#paint41_linear_5075_21202)"/>
<path d="M479.908 304.489C486.243 300.832 486.243 294.902 479.908 291.244C473.573 287.587 463.302 287.587 456.967 291.245C450.632 294.902 450.632 300.832 456.966 304.49C463.301 308.147 473.573 308.147 479.908 304.489Z" fill="#FF0000"/>
<path d="M479.908 304.489C486.243 300.832 486.243 294.902 479.908 291.244C473.573 287.587 463.302 287.587 456.967 291.245C450.632 294.902 450.632 300.832 456.966 304.49C463.301 308.147 473.573 308.147 479.908 304.489Z" fill="url(#paint42_linear_5075_21202)"/>
<path d="M410.433 290.872C416.768 287.215 416.768 281.285 410.433 277.627C404.098 273.97 393.827 273.97 387.492 277.627C381.157 281.285 381.157 287.215 387.492 290.872C393.827 294.53 404.098 294.53 410.433 290.872Z" fill="#FF0000"/>
<path d="M410.433 290.872C416.768 287.215 416.768 281.285 410.433 277.627C404.098 273.97 393.827 273.97 387.492 277.627C381.157 281.285 381.157 287.215 387.492 290.872C393.827 294.53 404.098 294.53 410.433 290.872Z" fill="url(#paint43_linear_5075_21202)"/>
<path d="M502.849 344.224C509.184 340.566 509.184 334.636 502.849 330.979C496.514 327.321 486.243 327.321 479.908 330.979C473.573 334.637 473.573 340.567 479.908 344.224C486.243 347.881 496.514 347.881 502.849 344.224Z" fill="#FF0000"/>
<path d="M502.849 344.224C509.184 340.566 509.184 334.636 502.849 330.979C496.514 327.321 486.243 327.321 479.908 330.979C473.573 334.637 473.573 340.567 479.908 344.224C486.243 347.881 496.514 347.881 502.849 344.224Z" fill="url(#paint44_linear_5075_21202)"/>
<path d="M295.728 304.118C302.063 300.461 302.063 294.531 295.728 290.873C289.393 287.216 279.122 287.216 272.787 290.873C266.452 294.531 266.452 300.461 272.787 304.119C279.122 307.776 289.393 307.776 295.728 304.118Z" fill="#FF0000"/>
<path d="M295.728 304.118C302.063 300.461 302.063 294.531 295.728 290.873C289.393 287.216 279.122 287.216 272.787 290.873C266.452 294.531 266.452 300.461 272.787 304.119C279.122 307.776 289.393 307.776 295.728 304.118Z" fill="url(#paint45_linear_5075_21202)"/>
<path d="M479.259 410.079C485.594 406.422 485.595 400.492 479.26 396.834C472.925 393.177 462.654 393.177 456.318 396.834C449.983 400.492 449.983 406.422 456.318 410.079C462.653 413.737 472.924 413.737 479.259 410.079Z" fill="#FF0000"/>
<path d="M479.259 410.079C485.594 406.422 485.595 400.492 479.26 396.834C472.925 393.177 462.654 393.177 456.318 396.834C449.983 400.492 449.983 406.422 456.318 410.079C462.653 413.737 472.924 413.737 479.259 410.079Z" fill="url(#paint46_linear_5075_21202)"/>
<path d="M388.134 357.47C394.469 353.812 394.47 347.882 388.135 344.225C381.8 340.567 371.529 340.567 365.193 344.225C358.858 347.883 358.858 353.813 365.193 357.47C371.528 361.128 381.799 361.127 388.134 357.47Z" fill="#FF0000"/>
<path d="M388.134 357.47C394.469 353.812 394.47 347.882 388.135 344.225C381.8 340.567 371.529 340.567 365.193 344.225C358.858 347.883 358.858 353.813 365.193 357.47C371.528 361.128 381.799 361.127 388.134 357.47Z" fill="url(#paint47_linear_5075_21202)"/>
<path d="M318.669 343.853C325.005 340.195 325.005 334.265 318.67 330.608C312.335 326.95 302.064 326.95 295.729 330.608C289.393 334.265 289.393 340.195 295.728 343.853C302.063 347.51 312.334 347.51 318.669 343.853Z" fill="#FF0000"/>
<path d="M318.669 343.853C325.005 340.195 325.005 334.265 318.67 330.608C312.335 326.95 302.064 326.95 295.729 330.608C289.393 334.265 289.393 340.195 295.728 343.853C302.063 347.51 312.334 347.51 318.669 343.853Z" fill="url(#paint48_linear_5075_21202)"/>
<path d="M411.078 397.204C417.413 393.547 417.413 387.617 411.078 383.959C404.743 380.302 394.472 380.302 388.137 383.959C381.802 387.617 381.801 393.547 388.136 397.204C394.471 400.862 404.743 400.862 411.078 397.204Z" fill="#FF0000"/>
<path d="M411.078 397.204C417.413 393.547 417.413 387.617 411.078 383.959C404.743 380.302 394.472 380.302 388.137 383.959C381.802 387.617 381.801 393.547 388.136 397.204C394.471 400.862 404.743 400.862 411.078 397.204Z" fill="url(#paint49_linear_5075_21202)"/>
<path d="M502.203 237.888C508.538 234.23 508.538 228.3 502.203 224.643C495.868 220.985 485.597 220.985 479.262 224.643C472.927 228.301 472.926 234.231 479.261 237.888C485.596 241.546 495.868 241.545 502.203 237.888Z" fill="#FF0000"/>
<path d="M502.203 237.888C508.538 234.23 508.538 228.3 502.203 224.643C495.868 220.985 485.597 220.985 479.262 224.643C472.927 228.301 472.926 234.231 479.261 237.888C485.596 241.546 495.868 241.545 502.203 237.888Z" fill="url(#paint50_linear_5075_21202)"/>
<path d="M594.613 291.243C600.948 287.586 600.948 281.656 594.613 277.998C588.278 274.341 578.007 274.341 571.672 277.998C565.337 281.656 565.337 287.586 571.672 291.244C578.007 294.901 588.278 294.901 594.613 291.243Z" fill="#FF0000"/>
<path d="M594.613 291.243C600.948 287.586 600.948 281.656 594.613 277.998C588.278 274.341 578.007 274.341 571.672 277.998C565.337 281.656 565.337 287.586 571.672 291.244C578.007 294.901 588.278 294.901 594.613 291.243Z" fill="url(#paint51_linear_5075_21202)"/>
<path fill-rule="evenodd" clip-rule="evenodd" d="M110.744 461.632L94.6292 521.773C94.0955 523.765 96.1612 527.598 99.2403 530.329C102.319 533.059 105.252 533.658 105.786 531.666L121.901 471.525C122.434 469.533 120.368 465.7 117.289 462.97C114.21 460.239 111.278 459.64 110.744 461.632Z" fill="#FF0000"/>
<path fill-rule="evenodd" clip-rule="evenodd" d="M110.744 461.632L94.6292 521.773C94.0955 523.765 96.1612 527.598 99.2403 530.329C102.319 533.059 105.252 533.658 105.786 531.666L121.901 471.525C122.434 469.533 120.368 465.7 117.289 462.97C114.21 460.239 111.278 459.64 110.744 461.632Z" fill="url(#paint52_linear_5075_21202)"/>
<path fill-rule="evenodd" clip-rule="evenodd" d="M138.182 477.475L122.067 537.617C121.533 539.609 123.599 543.442 126.678 546.173C129.757 548.903 132.689 549.502 133.223 547.51L149.338 487.368C149.872 485.377 147.806 481.544 144.727 478.814C141.647 476.083 138.715 475.484 138.182 477.475Z" fill="#FF0000"/>
<path fill-rule="evenodd" clip-rule="evenodd" d="M138.182 477.475L122.067 537.617C121.533 539.609 123.599 543.442 126.678 546.173C129.757 548.903 132.689 549.502 133.223 547.51L149.338 487.368C149.872 485.377 147.806 481.544 144.727 478.814C141.647 476.083 138.715 475.484 138.182 477.475Z" fill="url(#paint53_linear_5075_21202)"/>
<path fill-rule="evenodd" clip-rule="evenodd" d="M83.3066 445.792L67.1917 505.933C66.658 507.925 68.7237 511.759 71.8028 514.489C74.882 517.219 77.8144 517.818 78.3481 515.826L94.463 455.685C94.9967 453.693 92.9308 449.861 89.8516 447.13C86.7725 444.4 83.8403 443.8 83.3066 445.792Z" fill="#FF0000"/>
<path fill-rule="evenodd" clip-rule="evenodd" d="M83.3066 445.792L67.1917 505.933C66.658 507.925 68.7237 511.759 71.8028 514.489C74.882 517.219 77.8144 517.818 78.3481 515.826L94.463 455.685C94.9967 453.693 92.9308 449.861 89.8516 447.13C86.7725 444.4 83.8403 443.8 83.3066 445.792Z" fill="url(#paint54_linear_5075_21202)"/>
<path fill-rule="evenodd" clip-rule="evenodd" d="M165.625 493.319L149.51 553.461C148.976 555.452 151.042 559.286 154.121 562.016C157.2 564.747 160.133 565.345 160.666 563.354L176.781 503.212C177.315 501.22 175.249 497.388 172.17 494.657C169.091 491.927 166.159 491.327 165.625 493.319Z" fill="#FF0000"/>
<path fill-rule="evenodd" clip-rule="evenodd" d="M165.625 493.319L149.51 553.461C148.976 555.452 151.042 559.286 154.121 562.016C157.2 564.747 160.133 565.345 160.666 563.354L176.781 503.212C177.315 501.22 175.249 497.388 172.17 494.657C169.091 491.927 166.159 491.327 165.625 493.319Z" fill="url(#paint55_linear_5075_21202)"/>
<path fill-rule="evenodd" clip-rule="evenodd" d="M193.063 509.159L176.948 569.301C176.414 571.292 178.48 575.126 181.559 577.856C184.638 580.587 187.57 581.185 188.104 579.194L204.219 519.052C204.753 517.06 202.687 513.228 199.607 510.497C196.528 507.767 193.596 507.167 193.063 509.159Z" fill="#FF0000"/>
<path fill-rule="evenodd" clip-rule="evenodd" d="M193.063 509.159L176.948 569.301C176.414 571.292 178.48 575.126 181.559 577.856C184.638 580.587 187.57 581.185 188.104 579.194L204.219 519.052C204.753 517.06 202.687 513.228 199.607 510.497C196.528 507.767 193.596 507.167 193.063 509.159Z" fill="url(#paint56_linear_5075_21202)"/>
<path fill-rule="evenodd" clip-rule="evenodd" d="M220.5 524.999L204.385 585.14C203.851 587.132 205.917 590.966 208.996 593.696C212.075 596.426 215.008 597.025 215.541 595.033L231.656 534.892C232.19 532.9 230.124 529.068 227.045 526.337C223.966 523.607 221.034 523.007 220.5 524.999Z" fill="#FF0000"/>
<path fill-rule="evenodd" clip-rule="evenodd" d="M220.5 524.999L204.385 585.14C203.851 587.132 205.917 590.966 208.996 593.696C212.075 596.426 215.008 597.025 215.541 595.033L231.656 534.892C232.19 532.9 230.124 529.068 227.045 526.337C223.966 523.607 221.034 523.007 220.5 524.999Z" fill="url(#paint57_linear_5075_21202)"/>
<path fill-rule="evenodd" clip-rule="evenodd" d="M247.852 540.792L231.737 600.933C231.203 602.925 233.269 606.759 236.348 609.489C239.427 612.219 242.359 612.818 242.893 610.826L259.008 550.685C259.542 548.693 257.476 544.861 254.397 542.13C251.317 539.4 248.385 538.8 247.852 540.792Z" fill="#FF0000"/>
<path fill-rule="evenodd" clip-rule="evenodd" d="M247.852 540.792L231.737 600.933C231.203 602.925 233.269 606.759 236.348 609.489C239.427 612.219 242.359 612.818 242.893 610.826L259.008 550.685C259.542 548.693 257.476 544.861 254.397 542.13C251.317 539.4 248.385 538.8 247.852 540.792Z" fill="url(#paint58_linear_5075_21202)"/>
<path fill-rule="evenodd" clip-rule="evenodd" d="M275.285 556.632L259.17 616.773C258.637 618.765 260.702 622.598 263.781 625.329C266.86 628.059 269.793 628.658 270.327 626.666L286.442 566.525C286.975 564.533 284.909 560.7 281.83 557.97C278.751 555.239 275.819 554.64 275.285 556.632Z" fill="#FF0000"/>
<path fill-rule="evenodd" clip-rule="evenodd" d="M275.285 556.632L259.17 616.773C258.637 618.765 260.702 622.598 263.781 625.329C266.86 628.059 269.793 628.658 270.327 626.666L286.442 566.525C286.975 564.533 284.909 560.7 281.83 557.97C278.751 555.239 275.819 554.64 275.285 556.632Z" fill="url(#paint59_linear_5075_21202)"/>
<path d="M777.357 659.047C787.041 653.456 794.892 639.858 794.892 628.676C794.892 617.493 787.041 612.961 777.357 618.552C767.673 624.143 759.822 637.741 759.822 648.923C759.822 660.106 767.673 664.638 777.357 659.047Z" fill="#FF0000"/>
<path d="M777.357 659.047C787.041 653.456 794.892 639.858 794.892 628.676C794.892 617.493 787.041 612.961 777.357 618.552C767.673 624.143 759.822 637.741 759.822 648.923C759.822 660.106 767.673 664.638 777.357 659.047Z" fill="url(#paint60_linear_5075_21202)"/>
<path d="M794.892 665.207C802.684 660.708 809.001 649.767 809.001 640.769C809.001 631.772 802.684 628.125 794.892 632.624C787.1 637.122 780.783 648.064 780.783 657.061C780.783 666.059 787.1 669.706 794.892 665.207Z" fill="#FF0000"/>
<path d="M794.892 665.207C802.684 660.708 809.001 649.767 809.001 640.769C809.001 631.772 802.684 628.125 794.892 632.624C787.1 637.122 780.783 648.064 780.783 657.061C780.783 666.059 787.1 669.706 794.892 665.207Z" fill="url(#paint61_linear_5075_21202)"/>
<path fill-rule="evenodd" clip-rule="evenodd" d="M783.714 665.31L783.625 665.449L771.014 658.168C768.429 656.704 766.83 653.533 766.83 649.011C766.83 640.019 773.155 629.069 780.941 624.574C784.829 622.325 788.361 622.114 790.917 623.588L804.86 631.641C802.304 630.166 798.781 630.378 794.884 632.626C787.098 637.121 780.773 648.071 780.773 657.063C780.773 660.804 781.868 663.621 783.714 665.31Z" fill="#FF0000"/>
<path fill-rule="evenodd" clip-rule="evenodd" d="M783.714 665.31L783.625 665.449L771.014 658.168C768.429 656.704 766.83 653.533 766.83 649.011C766.83 640.019 773.155 629.069 780.941 624.574C784.829 622.325 788.361 622.114 790.917 623.588L804.86 631.641C802.304 630.166 798.781 630.378 794.884 632.626C787.098 637.121 780.773 648.071 780.773 657.063C780.773 660.804 781.868 663.621 783.714 665.31Z" fill="url(#paint62_linear_5075_21202)"/>
<path d="M794.885 658.953C799.684 656.183 803.575 649.444 803.575 643.902C803.575 638.361 799.684 636.114 794.885 638.885C790.086 641.656 786.195 648.395 786.195 653.936C786.195 659.478 790.086 661.724 794.885 658.953Z" fill="#FF0000"/>
<path d="M794.885 658.953C799.684 656.183 803.575 649.444 803.575 643.902C803.575 638.361 799.684 636.114 794.885 638.885C790.086 641.656 786.195 648.395 786.195 653.936C786.195 659.478 790.086 661.724 794.885 658.953Z" fill="url(#paint63_linear_5075_21202)"/>
<path fill-rule="evenodd" clip-rule="evenodd" d="M762.951 630.714C763.608 626.788 762.856 623.526 760.884 621.844C758.912 620.16 755.944 620.236 752.806 622.047C726.558 637.2 673.044 668.097 646.796 683.249C643.658 685.062 640.69 688.417 638.718 692.377C636.746 696.336 635.983 700.475 636.651 703.634C638.909 714.371 642.047 732.947 643.987 742.194C645.026 747.113 649.245 748.61 654.132 745.788C675.217 733.615 724.374 705.235 745.459 693.063C750.346 690.241 754.576 683.865 755.605 677.751C757.555 666.261 760.693 644.057 762.951 630.714Z" fill="#FF0000"/>
<path fill-rule="evenodd" clip-rule="evenodd" d="M762.951 630.714C763.608 626.788 762.856 623.526 760.884 621.844C758.912 620.16 755.944 620.236 752.806 622.047C726.558 637.2 673.044 668.097 646.796 683.249C643.658 685.062 640.69 688.417 638.718 692.377C636.746 696.336 635.983 700.475 636.651 703.634C638.909 714.371 642.047 732.947 643.987 742.194C645.026 747.113 649.245 748.61 654.132 745.788C675.217 733.615 724.374 705.235 745.459 693.063C750.346 690.241 754.576 683.865 755.605 677.751C757.555 666.261 760.693 644.057 762.951 630.714Z" fill="url(#paint64_linear_5075_21202)"/>
<path fill-rule="evenodd" clip-rule="evenodd" d="M642.242 704.82L656.165 712.653L656.215 713.112C658.316 723.106 661.237 737.022 663.043 745.629C663.448 747.561 664.385 748.925 665.678 749.66L652.633 742.133V742.004C650.886 741.452 649.593 739.937 649.1 737.577C647.294 728.97 644.364 715.054 642.262 705.06L642.242 704.82Z" fill="#FF0000"/>
<path fill-rule="evenodd" clip-rule="evenodd" d="M642.242 704.82L656.165 712.653L656.215 713.112C658.316 723.106 661.237 737.022 663.043 745.629C663.448 747.561 664.385 748.925 665.678 749.66L652.633 742.133V742.004C650.886 741.452 649.593 739.937 649.1 737.577C647.294 728.97 644.364 715.054 642.262 705.06L642.242 704.82Z" fill="url(#paint65_linear_5075_21202)"/>
<path fill-rule="evenodd" clip-rule="evenodd" d="M651.707 686.089L750.373 629.122C753.007 627.604 755.504 627.395 757.319 628.509L771.44 636.663L771.43 636.672C769.604 635.435 767.029 635.608 764.325 637.174L665.65 694.141L651.707 686.089Z" fill="#FF0000"/>
<path fill-rule="evenodd" clip-rule="evenodd" d="M651.707 686.089L750.373 629.122C753.007 627.604 755.504 627.395 757.319 628.509L771.44 636.663L771.43 636.672C769.604 635.435 767.029 635.608 764.325 637.174L665.65 694.141L651.707 686.089Z" fill="url(#paint66_linear_5075_21202)"/>
<path fill-rule="evenodd" clip-rule="evenodd" d="M665.65 694.142C662.729 695.829 659.966 698.952 658.131 702.638C656.384 706.137 655.664 709.787 656.157 712.657L642.234 704.824C641.682 701.919 642.392 698.174 644.178 694.586C646.013 690.9 648.776 687.777 651.707 686.09L665.65 694.142Z" fill="#FF0000"/>
<path fill-rule="evenodd" clip-rule="evenodd" d="M665.65 694.142C662.729 695.829 659.966 698.952 658.131 702.638C656.384 706.137 655.664 709.787 656.157 712.657L642.234 704.824C641.682 701.919 642.392 698.174 644.178 694.586C646.013 690.9 648.776 687.777 651.707 686.09L665.65 694.142Z" fill="url(#paint67_linear_5075_21202)"/>
<path fill-rule="evenodd" clip-rule="evenodd" d="M716.582 671.493L667.097 700.064C665.639 700.905 664.26 702.466 663.353 704.308C662.443 706.148 662.104 708.066 662.43 709.52C664.283 717.781 667.573 732.459 669.163 739.552C669.696 741.927 671.762 742.632 674.145 741.256L755.78 694.125L716.582 671.493Z" fill="#FF0000"/>
<path fill-rule="evenodd" clip-rule="evenodd" d="M716.582 671.493L667.097 700.064C665.639 700.905 664.26 702.466 663.353 704.308C662.443 706.148 662.104 708.066 662.43 709.52C664.283 717.781 667.573 732.459 669.163 739.552C669.696 741.927 671.762 742.632 674.145 741.256L755.78 694.125L716.582 671.493Z" fill="url(#paint68_linear_5075_21202)"/>
<path fill-rule="evenodd" clip-rule="evenodd" d="M725.578 666.301L760.81 686.642L767.543 648.834C767.869 647.004 767.53 645.478 766.62 644.688C765.713 643.894 764.334 643.925 762.876 644.767L725.578 666.301Z" fill="#FF0000"/>
<path fill-rule="evenodd" clip-rule="evenodd" d="M725.578 666.301L760.81 686.642L767.543 648.834C767.869 647.004 767.53 645.478 766.62 644.688C765.713 643.894 764.334 643.925 762.876 644.767L725.578 666.301Z" fill="url(#paint69_linear_5075_21202)"/>
<path fill-rule="evenodd" clip-rule="evenodd" d="M725.577 666.297L716.578 671.494L755.782 694.126L755.831 694.096C758.209 692.721 760.281 689.627 760.814 686.638L725.577 666.297Z" fill="#FF0000"/>
<path fill-rule="evenodd" clip-rule="evenodd" d="M725.577 666.297L716.578 671.494L755.782 694.126L755.831 694.096C758.209 692.721 760.281 689.627 760.814 686.638L725.577 666.297Z" fill="url(#paint70_linear_5075_21202)"/>
<path fill-rule="evenodd" clip-rule="evenodd" d="M720.843 669.031L744.387 682.622V682.624C743.588 682.203 742.502 682.286 741.308 682.974C738.851 684.391 736.858 687.844 736.858 690.679C736.858 692.044 737.322 693.019 738.081 693.504L738.072 693.506L708.262 676.294L720.843 669.031Z" fill="#00FF00"/>
<path fill-rule="evenodd" clip-rule="evenodd" d="M720.843 669.031L744.387 682.622V682.624C743.588 682.203 742.502 682.286 741.308 682.974C738.851 684.391 736.858 687.844 736.858 690.679C736.858 692.044 737.322 693.019 738.081 693.504L738.072 693.506L708.262 676.294L720.843 669.031Z" fill="url(#paint71_linear_5075_21202)"/>
<path fill-rule="evenodd" clip-rule="evenodd" d="M703.292 679.164L726.836 692.755V692.756C726.037 692.336 724.951 692.419 723.757 693.107C721.3 694.524 719.307 697.977 719.307 700.812C719.307 702.177 719.771 703.151 720.531 703.637V703.639L690.711 686.427L703.292 679.164Z" fill="#00FF00"/>
<path fill-rule="evenodd" clip-rule="evenodd" d="M703.292 679.164L726.836 692.755V692.756C726.037 692.336 724.951 692.419 723.757 693.107C721.3 694.524 719.307 697.977 719.307 700.812C719.307 702.177 719.771 703.151 720.531 703.637V703.639L690.711 686.427L703.292 679.164Z" fill="url(#paint72_linear_5075_21202)"/>
<path fill-rule="evenodd" clip-rule="evenodd" d="M685.741 689.301L709.285 702.891V702.892C708.486 702.472 707.401 702.556 706.207 703.244C703.75 704.661 701.766 708.113 701.766 710.947C701.766 712.313 702.22 713.288 702.98 713.773V713.775L673.16 696.563L685.741 689.301Z" fill="#00FF00"/>
<path fill-rule="evenodd" clip-rule="evenodd" d="M685.741 689.301L709.285 702.891V702.892C708.486 702.472 707.401 702.556 706.207 703.244C703.75 704.661 701.766 708.113 701.766 710.947C701.766 712.313 702.22 713.288 702.98 713.773V713.775L673.16 696.563L685.741 689.301Z" fill="url(#paint73_linear_5075_21202)"/>
<path fill-rule="evenodd" clip-rule="evenodd" d="M668.184 699.434L691.727 713.025V713.026C690.928 712.606 689.843 712.69 688.649 713.376C686.202 714.794 684.208 718.246 684.208 721.081C684.208 722.447 684.662 723.422 685.422 723.907V723.909L662.707 710.799L662.421 709.521C662.095 708.069 662.441 706.15 663.348 704.31C664.256 702.47 665.638 700.907 667.088 700.066L668.184 699.434Z" fill="#00FF00"/>
<path fill-rule="evenodd" clip-rule="evenodd" d="M668.184 699.434L691.727 713.025V713.026C690.928 712.606 689.843 712.69 688.649 713.376C686.202 714.794 684.208 718.246 684.208 721.081C684.208 722.447 684.662 723.422 685.422 723.907V723.909L662.707 710.799L662.421 709.521C662.095 708.069 662.441 706.15 663.348 704.31C664.256 702.47 665.638 700.907 667.088 700.066L668.184 699.434Z" fill="url(#paint74_linear_5075_21202)"/>
<path d="M679.878 712.189C682.335 710.771 684.326 707.321 684.326 704.484C684.326 701.648 682.335 700.498 679.878 701.916C677.421 703.335 675.43 706.784 675.43 709.621C675.43 712.457 677.421 713.607 679.878 712.189Z" fill="#00FF00"/>
<path d="M679.878 712.189C682.335 710.771 684.326 707.321 684.326 704.484C684.326 701.648 682.335 700.498 679.878 701.916C677.421 703.335 675.43 706.784 675.43 709.621C675.43 712.457 677.421 713.607 679.878 712.189Z" fill="url(#paint75_linear_5075_21202)"/>
<path fill-rule="evenodd" clip-rule="evenodd" d="M673.722 696.238L682.948 701.566C682.149 701.145 681.064 701.229 679.88 701.917C677.422 703.335 675.429 706.787 675.429 709.622C675.429 710.987 675.893 711.962 676.643 712.448V712.45L663.174 704.674C663.233 704.553 663.292 704.431 663.351 704.311C664.259 702.471 665.641 700.908 667.091 700.067L673.722 696.238Z" fill="#00FF00"/>
<path fill-rule="evenodd" clip-rule="evenodd" d="M673.722 696.238L682.948 701.566C682.149 701.145 681.064 701.229 679.88 701.917C677.422 703.335 675.429 706.787 675.429 709.622C675.429 710.987 675.893 711.962 676.643 712.448V712.45L663.174 704.674C663.233 704.553 663.292 704.431 663.351 704.311C664.259 702.471 665.641 700.908 667.091 700.067L673.722 696.238Z" fill="url(#paint76_linear_5075_21202)"/>
<path fill-rule="evenodd" clip-rule="evenodd" d="M691.28 686.102L700.506 691.429C699.707 691.009 698.622 691.094 697.438 691.78C694.981 693.198 692.987 696.65 692.987 699.485C692.987 700.851 693.451 701.825 694.201 702.311V702.313L678.699 693.364L691.28 686.102Z" fill="#00FF00"/>
<path fill-rule="evenodd" clip-rule="evenodd" d="M691.28 686.102L700.506 691.429C699.707 691.009 698.622 691.094 697.438 691.78C694.981 693.198 692.987 696.65 692.987 699.485C692.987 700.851 693.451 701.825 694.201 702.311V702.313L678.699 693.364L691.28 686.102Z" fill="url(#paint77_linear_5075_21202)"/>
<path fill-rule="evenodd" clip-rule="evenodd" d="M708.831 675.969L718.057 681.296V681.297C717.258 680.877 716.173 680.961 714.988 681.649C712.531 683.066 710.538 686.518 710.538 689.353C710.538 690.718 711.002 691.693 711.752 692.178V692.18L696.25 683.231L708.831 675.969Z" fill="#00FF00"/>
<path fill-rule="evenodd" clip-rule="evenodd" d="M708.831 675.969L718.057 681.296V681.297C717.258 680.877 716.173 680.961 714.988 681.649C712.531 683.066 710.538 686.518 710.538 689.353C710.538 690.718 711.002 691.693 711.752 692.178V692.18L696.25 683.231L708.831 675.969Z" fill="url(#paint78_linear_5075_21202)"/>
<path fill-rule="evenodd" clip-rule="evenodd" d="M726.384 665.836L735.61 671.162V671.164C734.811 670.744 733.725 670.827 732.541 671.515C730.084 672.932 728.091 676.384 728.091 679.219C728.091 680.585 728.555 681.559 729.305 682.044V682.046L713.803 673.098L726.384 665.836Z" fill="#00FF00"/>
<path fill-rule="evenodd" clip-rule="evenodd" d="M726.384 665.836L735.61 671.162V671.164C734.811 670.744 733.725 670.827 732.541 671.515C730.084 672.932 728.091 676.384 728.091 679.219C728.091 680.585 728.555 681.559 729.305 682.044V682.046L713.803 673.098L726.384 665.836Z" fill="url(#paint79_linear_5075_21202)"/>
<path d="M688.655 723.65C691.112 722.231 693.104 718.782 693.104 715.945C693.104 713.109 691.112 711.959 688.655 713.377C686.199 714.795 684.207 718.245 684.207 721.082C684.207 723.918 686.199 725.068 688.655 723.65Z" fill="#00FF00"/>
<path d="M688.655 723.65C691.112 722.231 693.104 718.782 693.104 715.945C693.104 713.109 691.112 711.959 688.655 713.377C686.199 714.795 684.207 718.245 684.207 721.082C684.207 723.918 686.199 725.068 688.655 723.65Z" fill="url(#paint80_linear_5075_21202)"/>
<path d="M706.214 713.517C708.671 712.099 710.662 708.649 710.662 705.812C710.662 702.976 708.671 701.826 706.214 703.244C703.757 704.663 701.766 708.112 701.766 710.949C701.766 713.786 703.757 714.935 706.214 713.517Z" fill="#00FF00"/>
<path d="M706.214 713.517C708.671 712.099 710.662 708.649 710.662 705.812C710.662 702.976 708.671 701.826 706.214 703.244C703.757 704.663 701.766 708.112 701.766 710.949C701.766 713.786 703.757 714.935 706.214 713.517Z" fill="url(#paint81_linear_5075_21202)"/>
<path d="M723.765 703.38C726.221 701.962 728.213 698.513 728.213 695.676C728.213 692.839 726.221 691.689 723.765 693.108C721.308 694.526 719.316 697.975 719.316 700.812C719.316 703.649 721.308 704.799 723.765 703.38Z" fill="#00FF00"/>
<path d="M723.765 703.38C726.221 701.962 728.213 698.513 728.213 695.676C728.213 692.839 726.221 691.689 723.765 693.108C721.308 694.526 719.316 697.975 719.316 700.812C719.316 703.649 721.308 704.799 723.765 703.38Z" fill="url(#paint82_linear_5075_21202)"/>
<path d="M741.315 693.244C743.772 691.825 745.764 688.376 745.764 685.539C745.764 682.702 743.772 681.552 741.315 682.971C738.859 684.389 736.867 687.839 736.867 690.675C736.867 693.512 738.859 694.662 741.315 693.244Z" fill="#00FF00"/>
<path d="M741.315 693.244C743.772 691.825 745.764 688.376 745.764 685.539C745.764 682.702 743.772 681.552 741.315 682.971C738.859 684.389 736.867 687.839 736.867 690.675C736.867 693.512 738.859 694.662 741.315 693.244Z" fill="url(#paint83_linear_5075_21202)"/>
<path d="M697.431 702.056C699.887 700.638 701.879 697.188 701.879 694.352C701.879 691.515 699.887 690.365 697.431 691.783C694.974 693.202 692.982 696.651 692.982 699.488C692.982 702.325 694.974 703.475 697.431 702.056Z" fill="#00FF00"/>
<path d="M697.431 702.056C699.887 700.638 701.879 697.188 701.879 694.352C701.879 691.515 699.887 690.365 697.431 691.783C694.974 693.202 692.982 696.651 692.982 699.488C692.982 702.325 694.974 703.475 697.431 702.056Z" fill="url(#paint84_linear_5075_21202)"/>
<path d="M714.991 691.919C717.448 690.501 719.439 687.052 719.439 684.215C719.439 681.378 717.448 680.228 714.991 681.647C712.535 683.065 710.543 686.514 710.543 689.351C710.543 692.188 712.535 693.338 714.991 691.919Z" fill="#00FF00"/>
<path d="M714.991 691.919C717.448 690.501 719.439 687.052 719.439 684.215C719.439 681.378 717.448 680.228 714.991 681.647C712.535 683.065 710.543 686.514 710.543 689.351C710.543 692.188 712.535 693.338 714.991 691.919Z" fill="url(#paint85_linear_5075_21202)"/>
<path d="M732.542 681.783C734.999 680.364 736.99 676.915 736.99 674.078C736.99 671.241 734.999 670.092 732.542 671.51C730.085 672.928 728.094 676.378 728.094 679.215C728.094 682.051 730.085 683.201 732.542 681.783Z" fill="#00FF00"/>
<path d="M732.542 681.783C734.999 680.364 736.99 676.915 736.99 674.078C736.99 671.241 734.999 670.092 732.542 671.51C730.085 672.928 728.094 676.378 728.094 679.215C728.094 682.051 730.085 683.201 732.542 681.783Z" fill="url(#paint86_linear_5075_21202)"/>
<path d="M750.093 671.65C752.549 670.231 754.541 666.782 754.541 663.945C754.541 661.109 752.549 659.959 750.093 661.377C747.636 662.795 745.645 666.245 745.645 669.082C745.645 671.918 747.636 673.068 750.093 671.65Z" fill="#00FF00"/>
<path d="M750.093 671.65C752.549 670.231 754.541 666.782 754.541 663.945C754.541 661.109 752.549 659.959 750.093 661.377C747.636 662.795 745.645 666.245 745.645 669.082C745.645 671.918 747.636 673.068 750.093 671.65Z" fill="url(#paint87_linear_5075_21202)"/>
<path fill-rule="evenodd" clip-rule="evenodd" d="M743.94 655.699L753.167 661.026V661.028C752.367 660.607 751.282 660.69 750.098 661.378C747.641 662.795 745.648 666.248 745.648 669.083C745.648 670.448 746.111 671.423 746.861 671.908V671.91L731.359 662.962L743.94 655.699Z" fill="#00FF00"/>
<path fill-rule="evenodd" clip-rule="evenodd" d="M743.94 655.699L753.167 661.026V661.028C752.367 660.607 751.282 660.69 750.098 661.378C747.641 662.795 745.648 666.248 745.648 669.083C745.648 670.448 746.111 671.423 746.861 671.908V671.91L731.359 662.962L743.94 655.699Z" fill="url(#paint88_linear_5075_21202)"/>
<path fill-rule="evenodd" clip-rule="evenodd" d="M773.765 645.24C774.376 641.585 773.676 638.55 771.841 636.983C770.005 635.416 767.242 635.486 764.321 637.173C739.889 651.278 690.078 680.036 665.646 694.14C662.725 695.828 659.962 698.951 658.127 702.636C656.292 706.322 655.581 710.174 656.203 713.115C658.304 723.108 661.225 737.025 663.031 745.631C663.998 750.211 667.925 751.604 672.474 748.977C692.101 737.647 737.857 711.23 757.483 699.901C762.032 697.273 765.969 691.338 766.927 685.647C768.742 674.952 771.663 657.659 773.765 645.24ZM767.538 648.834C767.864 647.005 767.528 645.479 766.621 644.686C765.713 643.895 764.331 643.923 762.871 644.765C743.254 656.092 686.703 688.739 667.087 700.067C665.636 700.907 664.255 702.471 663.347 704.311C662.439 706.151 662.094 708.069 662.419 709.522C664.274 717.784 667.57 732.463 669.159 739.555C669.692 741.929 671.754 742.636 674.132 741.262C689.752 732.246 740.215 703.114 755.826 694.098C758.204 692.723 760.276 689.629 760.809 686.64C762.397 677.713 765.683 659.234 767.538 648.834Z" fill="#FF0000"/>
<path fill-rule="evenodd" clip-rule="evenodd" d="M773.765 645.24C774.376 641.585 773.676 638.55 771.841 636.983C770.005 635.416 767.242 635.486 764.321 637.173C739.889 651.278 690.078 680.036 665.646 694.14C662.725 695.828 659.962 698.951 658.127 702.636C656.292 706.322 655.581 710.174 656.203 713.115C658.304 723.108 661.225 737.025 663.031 745.631C663.998 750.211 667.925 751.604 672.474 748.977C692.101 737.647 737.857 711.23 757.483 699.901C762.032 697.273 765.969 691.338 766.927 685.647C768.742 674.952 771.663 657.659 773.765 645.24ZM767.538 648.834C767.864 647.005 767.528 645.479 766.621 644.686C765.713 643.895 764.331 643.923 762.871 644.765C743.254 656.092 686.703 688.739 667.087 700.067C665.636 700.907 664.255 702.471 663.347 704.311C662.439 706.151 662.094 708.069 662.419 709.522C664.274 717.784 667.57 732.463 669.159 739.555C669.692 741.929 671.754 742.636 674.132 741.262C689.752 732.246 740.215 703.114 755.826 694.098C758.204 692.723 760.276 689.629 760.809 686.64C762.397 677.713 765.683 659.234 767.538 648.834Z" fill="url(#paint89_linear_5075_21202)"/>
<path d="M617.556 751.298C627.239 745.708 635.088 732.114 635.088 720.934C635.088 709.754 627.239 705.222 617.556 710.812C607.874 716.402 600.025 729.997 600.025 741.177C600.025 752.357 607.874 756.888 617.556 751.298Z" fill="#FF0000"/>
<path d="M617.556 751.298C627.239 745.708 635.088 732.114 635.088 720.934C635.088 709.754 627.239 705.222 617.556 710.812C607.874 716.402 600.025 729.997 600.025 741.177C600.025 752.357 607.874 756.888 617.556 751.298Z" fill="url(#paint90_linear_5075_21202)"/>
<path fill-rule="evenodd" clip-rule="evenodd" d="M624.197 757.824L624.148 757.901L610.974 750.294V750.29C608.527 748.772 607.027 745.658 607.027 741.272C607.027 732.28 613.352 721.33 621.138 716.835C625.036 714.587 628.558 714.376 631.114 715.85L645.057 723.902C642.501 722.427 638.979 722.639 635.081 724.886C627.295 729.382 620.97 740.332 620.97 749.324C620.97 753.259 622.184 756.17 624.197 757.824ZM645.234 724.005V724.007L645.175 723.972C645.156 723.96 645.136 723.948 645.116 723.936L645.057 723.902L645.234 724.005Z" fill="#FF0000"/>
<path fill-rule="evenodd" clip-rule="evenodd" d="M624.197 757.824L624.148 757.901L610.974 750.294V750.29C608.527 748.772 607.027 745.658 607.027 741.272C607.027 732.28 613.352 721.33 621.138 716.835C625.036 714.587 628.558 714.376 631.114 715.85L645.057 723.902C642.501 722.427 638.979 722.639 635.081 724.886C627.295 729.382 620.97 740.332 620.97 749.324C620.97 753.259 622.184 756.17 624.197 757.824ZM645.234 724.005V724.007L645.175 723.972C645.156 723.96 645.136 723.948 645.116 723.936L645.057 723.902L645.234 724.005Z" fill="url(#paint91_linear_5075_21202)"/>
<path d="M635.088 751.209C639.886 748.439 643.774 741.703 643.774 736.164C643.774 730.625 639.886 728.38 635.088 731.149C630.291 733.919 626.402 740.655 626.402 746.194C626.402 751.733 630.291 753.978 635.088 751.209Z" fill="#FF0000"/>
<path d="M635.088 751.209C639.886 748.439 643.774 741.703 643.774 736.164C643.774 730.625 639.886 728.38 635.088 731.149C630.291 733.919 626.402 740.655 626.402 746.194C626.402 751.733 630.291 753.978 635.088 751.209Z" fill="url(#paint92_linear_5075_21202)"/>
<path fill-rule="evenodd" clip-rule="evenodd" d="M635.074 724.889C642.859 720.394 649.184 724.044 649.184 733.035C649.184 742.027 642.859 752.977 635.074 757.473C627.288 761.969 620.963 758.319 620.963 749.327C620.963 740.335 627.288 729.385 635.074 724.889ZM635.074 731.151C639.869 728.383 643.767 730.63 643.767 736.166C643.767 741.702 639.869 748.443 635.074 751.211C630.278 753.979 626.39 751.731 626.39 746.196C626.39 740.661 630.278 733.919 635.074 731.151Z" fill="#FF0000"/>
<path fill-rule="evenodd" clip-rule="evenodd" d="M635.074 724.889C642.859 720.394 649.184 724.044 649.184 733.035C649.184 742.027 642.859 752.977 635.074 757.473C627.288 761.969 620.963 758.319 620.963 749.327C620.963 740.335 627.288 729.385 635.074 724.889ZM635.074 731.151C639.869 728.383 643.767 730.63 643.767 736.166C643.767 741.702 639.869 748.443 635.074 751.211C630.278 753.979 626.39 751.731 626.39 746.196C626.39 740.661 630.278 733.919 635.074 731.151Z" fill="url(#paint93_linear_5075_21202)"/>
<path d="M854.497 574.961C858.338 572.743 858.338 569.147 854.497 566.929C850.656 564.712 844.428 564.712 840.586 566.93C836.745 569.147 836.745 572.743 840.586 574.961C844.427 577.179 850.655 577.179 854.497 574.961Z" fill="#FF0000"/>
<path d="M854.497 574.961C858.338 572.743 858.338 569.147 854.497 566.929C850.656 564.712 844.428 564.712 840.586 566.93C836.745 569.147 836.745 572.743 840.586 574.961C844.427 577.179 850.655 577.179 854.497 574.961Z" fill="url(#paint94_linear_5075_21202)"/>
<path d="M883.45 558.242C887.291 556.024 887.291 552.428 883.45 550.211C879.609 547.993 873.381 547.993 869.539 550.211C865.698 552.429 865.698 556.024 869.539 558.242C873.38 560.46 879.609 560.46 883.45 558.242Z" fill="#FF0000"/>
<path d="M883.45 558.242C887.291 556.024 887.291 552.428 883.45 550.211C879.609 547.993 873.381 547.993 869.539 550.211C865.698 552.429 865.698 556.024 869.539 558.242C873.38 560.46 879.609 560.46 883.45 558.242Z" fill="url(#paint95_linear_5075_21202)"/>
<path d="M910.282 542.75C914.123 540.532 914.123 536.936 910.282 534.719C906.441 532.501 900.213 532.501 896.371 534.719C892.53 536.936 892.53 540.532 896.371 542.75C900.213 544.968 906.441 544.968 910.282 542.75Z" fill="#FF0000"/>
<path d="M910.282 542.75C914.123 540.532 914.123 536.936 910.282 534.719C906.441 532.501 900.213 532.501 896.371 534.719C892.53 536.936 892.53 540.532 896.371 542.75C900.213 544.968 906.441 544.968 910.282 542.75Z" fill="url(#paint96_linear_5075_21202)"/>
<path d="M939.284 526.008C943.125 523.79 943.125 520.194 939.284 517.976C935.443 515.759 929.215 515.759 925.373 517.976C921.532 520.194 921.532 523.79 925.373 526.008C929.214 528.226 935.443 528.225 939.284 526.008Z" fill="#FF0000"/>
<path d="M939.284 526.008C943.125 523.79 943.125 520.194 939.284 517.976C935.443 515.759 929.215 515.759 925.373 517.976C921.532 520.194 921.532 523.79 925.373 526.008C929.214 528.226 935.443 528.225 939.284 526.008Z" fill="url(#paint97_linear_5075_21202)"/>
<path opacity="0.2" d="M415.53 158.091L415.526 158.089L43.8452 373.005L43.8482 373.007C39.5242 375.508 36.8477 378.961 36.8477 382.774C36.8477 382.834 36.8483 382.893 36.8496 382.952L36.8477 539.077C36.8477 542.887 39.5242 546.335 43.8482 548.836L43.8452 548.846L550.682 841.913L550.686 841.903C554.671 844.209 560.056 845.703 566.039 845.869L566.04 845.867L566.041 845.869L567.579 845.957C574.172 845.957 580.146 844.404 584.471 841.903L584.473 841.913L956.154 626.997L956.151 626.987C960.476 624.486 963.153 621.038 963.153 617.228V460.925C963.153 460.939 963.152 460.952 963.151 460.965C963.151 460.952 963.151 460.939 963.151 460.925C963.151 457.113 960.474 453.659 956.149 451.158L956.152 451.156L449.315 158.089L449.312 158.091C444.987 155.59 439.014 154.043 432.421 154.043C425.827 154.043 419.854 155.59 415.53 158.091Z" fill="black"/>
<defs>
<linearGradient id="paint0_linear_5075_21202" x1="963.147" y1="449.847" x2="36.4296" y2="382.894" gradientUnits="userSpaceOnUse">
<stop stop-color="#020202" stop-opacity="0.2"/>
<stop offset="1" stop-color="#020202" stop-opacity="0"/>
</linearGradient>
<linearGradient id="paint1_linear_5075_21202" x1="565.758" y1="759.324" x2="956.015" y2="545.084" gradientUnits="userSpaceOnUse">
<stop stop-color="#020202" stop-opacity="0.2"/>
<stop offset="1" stop-color="#020202" stop-opacity="0"/>
</linearGradient>
<linearGradient id="paint2_linear_5075_21202" x1="36.4273" y1="540.287" x2="565.856" y2="711.825" gradientUnits="userSpaceOnUse">
<stop stop-color="#020202" stop-opacity="0.2"/>
<stop offset="1" stop-color="#020202" stop-opacity="0"/>
</linearGradient>
<linearGradient id="paint3_linear_5075_21202" x1="1006.24" y1="599.201" x2="706.403" y2="584.599" gradientUnits="userSpaceOnUse">
<stop stop-color="#020202" stop-opacity="0"/>
<stop offset="1" stop-color="#020202" stop-opacity="0.2"/>
</linearGradient>
<linearGradient id="paint4_linear_5075_21202" x1="973.357" y1="544.333" x2="844.149" y2="589.734" gradientUnits="userSpaceOnUse">
<stop stop-color="#020202" stop-opacity="0.4"/>
<stop offset="1" stop-color="#020202" stop-opacity="0.6"/>
</linearGradient>
<linearGradient id="paint5_linear_5075_21202" x1="888.239" y1="651.758" x2="850.735" y2="618.364" gradientUnits="userSpaceOnUse">
<stop stop-color="#020202" stop-opacity="0.3"/>
<stop offset="1" stop-color="#020202" stop-opacity="0.5"/>
</linearGradient>
<linearGradient id="paint6_linear_5075_21202" x1="881.835" y1="656.683" x2="853.524" y2="627.976" gradientUnits="userSpaceOnUse">
<stop stop-color="#020202" stop-opacity="0.2"/>
<stop offset="1" stop-color="#020202" stop-opacity="0.4"/>
</linearGradient>
<linearGradient id="paint7_linear_5075_21202" x1="917.157" y1="626.437" x2="884.16" y2="607.033" gradientUnits="userSpaceOnUse">
<stop stop-color="#020202" stop-opacity="0.3"/>
<stop offset="1" stop-color="#020202" stop-opacity="0.5"/>
</linearGradient>
<linearGradient id="paint8_linear_5075_21202" x1="910.759" y1="639.988" x2="882.448" y2="611.281" gradientUnits="userSpaceOnUse">
<stop stop-color="#020202" stop-opacity="0.2"/>
<stop offset="1" stop-color="#020202" stop-opacity="0.4"/>
</linearGradient>
<linearGradient id="paint9_linear_5075_21202" x1="946.077" y1="609.738" x2="913.08" y2="590.334" gradientUnits="userSpaceOnUse">
<stop stop-color="#020202" stop-opacity="0.3"/>
<stop offset="1" stop-color="#020202" stop-opacity="0.5"/>
</linearGradient>
<linearGradient id="paint10_linear_5075_21202" x1="938.787" y1="623.145" x2="911.318" y2="595.292" gradientUnits="userSpaceOnUse">
<stop stop-color="#020202" stop-opacity="0.2"/>
<stop offset="1" stop-color="#020202" stop-opacity="0.4"/>
</linearGradient>
<linearGradient id="paint11_linear_5075_21202" x1="974.997" y1="593.043" x2="942" y2="573.639" gradientUnits="userSpaceOnUse">
<stop stop-color="#020202" stop-opacity="0.3"/>
<stop offset="1" stop-color="#020202" stop-opacity="0.5"/>
</linearGradient>
<linearGradient id="paint12_linear_5075_21202" x1="968.599" y1="606.594" x2="940.288" y2="577.886" gradientUnits="userSpaceOnUse">
<stop stop-color="#020202" stop-opacity="0.2"/>
<stop offset="1" stop-color="#020202" stop-opacity="0.4"/>
</linearGradient>
<linearGradient id="paint13_linear_5075_21202" x1="878.696" y1="546.966" x2="778.938" y2="585.082" gradientUnits="userSpaceOnUse">
<stop stop-color="#020202" stop-opacity="0.2"/>
<stop offset="1" stop-color="#020202" stop-opacity="0.4"/>
</linearGradient>
<linearGradient id="paint14_linear_5075_21202" x1="748.589" y1="585.984" x2="978.369" y2="677.001" gradientUnits="userSpaceOnUse">
<stop stop-color="#020202" stop-opacity="0.2"/>
<stop offset="1" stop-color="#020202" stop-opacity="0.3"/>
</linearGradient>
<linearGradient id="paint15_linear_5075_21202" x1="158.08" y1="410.077" x2="169.551" y2="429.944" gradientUnits="userSpaceOnUse">
<stop stop-color="#020202" stop-opacity="0.9"/>
<stop offset="1" stop-color="#020202" stop-opacity="0.9"/>
</linearGradient>
<linearGradient id="paint16_linear_5075_21202" x1="250.492" y1="463.432" x2="261.963" y2="483.299" gradientUnits="userSpaceOnUse">
<stop stop-color="#020202" stop-opacity="0.9"/>
<stop offset="1" stop-color="#020202" stop-opacity="0.9"/>
</linearGradient>
<linearGradient id="paint17_linear_5075_21202" x1="203.961" y1="383.588" x2="215.431" y2="403.456" gradientUnits="userSpaceOnUse">
<stop stop-color="#020202" stop-opacity="0.9"/>
<stop offset="1" stop-color="#020202" stop-opacity="0.9"/>
</linearGradient>
<linearGradient id="paint18_linear_5075_21202" x1="296.371" y1="436.944" x2="307.842" y2="456.811" gradientUnits="userSpaceOnUse">
<stop stop-color="#020202" stop-opacity="0.9"/>
<stop offset="1" stop-color="#020202" stop-opacity="0.9"/>
</linearGradient>
<linearGradient id="paint19_linear_5075_21202" x1="249.842" y1="357.1" x2="261.312" y2="376.967" gradientUnits="userSpaceOnUse">
<stop stop-color="#020202" stop-opacity="0.9"/>
<stop offset="1" stop-color="#020202" stop-opacity="0.9"/>
</linearGradient>
<linearGradient id="paint20_linear_5075_21202" x1="342.256" y1="410.452" x2="353.726" y2="430.319" gradientUnits="userSpaceOnUse">
<stop stop-color="#020202" stop-opacity="0.9"/>
<stop offset="1" stop-color="#020202" stop-opacity="0.9"/>
</linearGradient>
<linearGradient id="paint21_linear_5075_21202" x1="135.139" y1="370.342" x2="146.609" y2="390.21" gradientUnits="userSpaceOnUse">
<stop stop-color="#020202" stop-opacity="0.9"/>
<stop offset="1" stop-color="#020202" stop-opacity="0.9"/>
</linearGradient>
<linearGradient id="paint22_linear_5075_21202" x1="318.672" y1="476.307" x2="330.142" y2="496.174" gradientUnits="userSpaceOnUse">
<stop stop-color="#020202" stop-opacity="0.9"/>
<stop offset="1" stop-color="#020202" stop-opacity="0.9"/>
</linearGradient>
<linearGradient id="paint23_linear_5075_21202" x1="227.555" y1="423.694" x2="239.025" y2="443.561" gradientUnits="userSpaceOnUse">
<stop stop-color="#020202" stop-opacity="0.9"/>
<stop offset="1" stop-color="#020202" stop-opacity="0.9"/>
</linearGradient>
<linearGradient id="paint24_linear_5075_21202" x1="318.672" y1="264.381" x2="330.142" y2="284.249" gradientUnits="userSpaceOnUse">
<stop stop-color="#020202" stop-opacity="0.9"/>
<stop offset="1" stop-color="#020202" stop-opacity="0.9"/>
</linearGradient>
<linearGradient id="paint25_linear_5075_21202" x1="502.203" y1="370.342" x2="513.674" y2="390.21" gradientUnits="userSpaceOnUse">
<stop stop-color="#020202" stop-opacity="0.9"/>
<stop offset="1" stop-color="#020202" stop-opacity="0.9"/>
</linearGradient>
<linearGradient id="paint26_linear_5075_21202" x1="411.078" y1="317.733" x2="422.549" y2="337.6" gradientUnits="userSpaceOnUse">
<stop stop-color="#020202" stop-opacity="0.9"/>
<stop offset="1" stop-color="#020202" stop-opacity="0.9"/>
</linearGradient>
<linearGradient id="paint27_linear_5075_21202" x1="341.613" y1="304.116" x2="353.084" y2="323.983" gradientUnits="userSpaceOnUse">
<stop stop-color="#020202" stop-opacity="0.9"/>
<stop offset="1" stop-color="#020202" stop-opacity="0.9"/>
</linearGradient>
<linearGradient id="paint28_linear_5075_21202" x1="434.024" y1="357.471" x2="445.494" y2="377.338" gradientUnits="userSpaceOnUse">
<stop stop-color="#020202" stop-opacity="0.9"/>
<stop offset="1" stop-color="#020202" stop-opacity="0.9"/>
</linearGradient>
<linearGradient id="paint29_linear_5075_21202" x1="226.906" y1="317.362" x2="238.377" y2="337.229" gradientUnits="userSpaceOnUse">
<stop stop-color="#020202" stop-opacity="0.9"/>
<stop offset="1" stop-color="#020202" stop-opacity="0.9"/>
</linearGradient>
<linearGradient id="paint30_linear_5075_21202" x1="410.436" y1="423.323" x2="421.906" y2="443.19" gradientUnits="userSpaceOnUse">
<stop stop-color="#020202" stop-opacity="0.9"/>
<stop offset="1" stop-color="#020202" stop-opacity="0.9"/>
</linearGradient>
<linearGradient id="paint31_linear_5075_21202" x1="319.311" y1="370.713" x2="330.781" y2="390.581" gradientUnits="userSpaceOnUse">
<stop stop-color="#020202" stop-opacity="0.9"/>
<stop offset="1" stop-color="#020202" stop-opacity="0.9"/>
</linearGradient>
<linearGradient id="paint32_linear_5075_21202" x1="410.436" y1="211.401" x2="421.906" y2="231.268" gradientUnits="userSpaceOnUse">
<stop stop-color="#020202" stop-opacity="0.9"/>
<stop offset="1" stop-color="#020202" stop-opacity="0.9"/>
</linearGradient>
<linearGradient id="paint33_linear_5075_21202" x1="593.967" y1="317.362" x2="605.437" y2="337.229" gradientUnits="userSpaceOnUse">
<stop stop-color="#020202" stop-opacity="0.9"/>
<stop offset="1" stop-color="#020202" stop-opacity="0.9"/>
</linearGradient>
<linearGradient id="paint34_linear_5075_21202" x1="502.846" y1="264.752" x2="514.316" y2="284.62" gradientUnits="userSpaceOnUse">
<stop stop-color="#020202" stop-opacity="0.9"/>
<stop offset="1" stop-color="#020202" stop-opacity="0.9"/>
</linearGradient>
<linearGradient id="paint35_linear_5075_21202" x1="433.377" y1="251.135" x2="444.847" y2="271.003" gradientUnits="userSpaceOnUse">
<stop stop-color="#020202" stop-opacity="0.9"/>
<stop offset="1" stop-color="#020202" stop-opacity="0.9"/>
</linearGradient>
<linearGradient id="paint36_linear_5075_21202" x1="525.793" y1="304.487" x2="537.263" y2="324.354" gradientUnits="userSpaceOnUse">
<stop stop-color="#020202" stop-opacity="0.9"/>
<stop offset="1" stop-color="#020202" stop-opacity="0.9"/>
</linearGradient>
<linearGradient id="paint37_linear_5075_21202" x1="181.024" y1="343.854" x2="192.494" y2="363.721" gradientUnits="userSpaceOnUse">
<stop stop-color="#020202" stop-opacity="0.9"/>
<stop offset="1" stop-color="#020202" stop-opacity="0.9"/>
</linearGradient>
<linearGradient id="paint38_linear_5075_21202" x1="364.555" y1="449.815" x2="376.025" y2="469.682" gradientUnits="userSpaceOnUse">
<stop stop-color="#020202" stop-opacity="0.9"/>
<stop offset="1" stop-color="#020202" stop-opacity="0.9"/>
</linearGradient>
<linearGradient id="paint39_linear_5075_21202" x1="273.434" y1="397.206" x2="284.904" y2="417.073" gradientUnits="userSpaceOnUse">
<stop stop-color="#020202" stop-opacity="0.9"/>
<stop offset="1" stop-color="#020202" stop-opacity="0.9"/>
</linearGradient>
<linearGradient id="paint40_linear_5075_21202" x1="364.555" y1="237.889" x2="376.025" y2="257.756" gradientUnits="userSpaceOnUse">
<stop stop-color="#020202" stop-opacity="0.9"/>
<stop offset="1" stop-color="#020202" stop-opacity="0.9"/>
</linearGradient>
<linearGradient id="paint41_linear_5075_21202" x1="548.084" y1="343.854" x2="559.554" y2="363.721" gradientUnits="userSpaceOnUse">
<stop stop-color="#020202" stop-opacity="0.9"/>
<stop offset="1" stop-color="#020202" stop-opacity="0.9"/>
</linearGradient>
<linearGradient id="paint42_linear_5075_21202" x1="456.967" y1="291.245" x2="468.437" y2="311.112" gradientUnits="userSpaceOnUse">
<stop stop-color="#020202" stop-opacity="0.9"/>
<stop offset="1" stop-color="#020202" stop-opacity="0.9"/>
</linearGradient>
<linearGradient id="paint43_linear_5075_21202" x1="387.492" y1="277.627" x2="398.963" y2="297.495" gradientUnits="userSpaceOnUse">
<stop stop-color="#020202" stop-opacity="0.9"/>
<stop offset="1" stop-color="#020202" stop-opacity="0.9"/>
</linearGradient>
<linearGradient id="paint44_linear_5075_21202" x1="479.908" y1="330.979" x2="491.379" y2="350.846" gradientUnits="userSpaceOnUse">
<stop stop-color="#020202" stop-opacity="0.9"/>
<stop offset="1" stop-color="#020202" stop-opacity="0.9"/>
</linearGradient>
<linearGradient id="paint45_linear_5075_21202" x1="272.787" y1="290.873" x2="284.258" y2="310.741" gradientUnits="userSpaceOnUse">
<stop stop-color="#020202" stop-opacity="0.9"/>
<stop offset="1" stop-color="#020202" stop-opacity="0.9"/>
</linearGradient>
<linearGradient id="paint46_linear_5075_21202" x1="456.318" y1="396.834" x2="467.789" y2="416.702" gradientUnits="userSpaceOnUse">
<stop stop-color="#020202" stop-opacity="0.9"/>
<stop offset="1" stop-color="#020202" stop-opacity="0.9"/>
</linearGradient>
<linearGradient id="paint47_linear_5075_21202" x1="365.193" y1="344.225" x2="376.664" y2="364.092" gradientUnits="userSpaceOnUse">
<stop stop-color="#020202" stop-opacity="0.9"/>
<stop offset="1" stop-color="#020202" stop-opacity="0.9"/>
</linearGradient>
<linearGradient id="paint48_linear_5075_21202" x1="295.729" y1="330.608" x2="307.199" y2="350.475" gradientUnits="userSpaceOnUse">
<stop stop-color="#020202" stop-opacity="0.9"/>
<stop offset="1" stop-color="#020202" stop-opacity="0.9"/>
</linearGradient>
<linearGradient id="paint49_linear_5075_21202" x1="388.137" y1="383.959" x2="399.607" y2="403.827" gradientUnits="userSpaceOnUse">
<stop stop-color="#020202" stop-opacity="0.9"/>
<stop offset="1" stop-color="#020202" stop-opacity="0.9"/>
</linearGradient>
<linearGradient id="paint50_linear_5075_21202" x1="479.262" y1="224.643" x2="490.732" y2="244.51" gradientUnits="userSpaceOnUse">
<stop stop-color="#020202" stop-opacity="0.9"/>
<stop offset="1" stop-color="#020202" stop-opacity="0.9"/>
</linearGradient>
<linearGradient id="paint51_linear_5075_21202" x1="571.672" y1="277.998" x2="583.142" y2="297.866" gradientUnits="userSpaceOnUse">
<stop stop-color="#020202" stop-opacity="0.9"/>
<stop offset="1" stop-color="#020202" stop-opacity="0.9"/>
</linearGradient>
<linearGradient id="paint52_linear_5075_21202" x1="117.289" y1="462.97" x2="75.9065" y2="509.637" gradientUnits="userSpaceOnUse">
<stop stop-color="#020202" stop-opacity="0.9"/>
<stop offset="1" stop-color="#020202" stop-opacity="0.9"/>
</linearGradient>
<linearGradient id="paint53_linear_5075_21202" x1="144.727" y1="478.814" x2="103.344" y2="525.481" gradientUnits="userSpaceOnUse">
<stop stop-color="#020202" stop-opacity="0.9"/>
<stop offset="1" stop-color="#020202" stop-opacity="0.9"/>
</linearGradient>
<linearGradient id="paint54_linear_5075_21202" x1="89.8516" y1="447.13" x2="48.469" y2="493.798" gradientUnits="userSpaceOnUse">
<stop stop-color="#020202" stop-opacity="0.9"/>
<stop offset="1" stop-color="#020202" stop-opacity="0.9"/>
</linearGradient>
<linearGradient id="paint55_linear_5075_21202" x1="172.17" y1="494.657" x2="130.787" y2="541.325" gradientUnits="userSpaceOnUse">
<stop stop-color="#020202" stop-opacity="0.9"/>
<stop offset="1" stop-color="#020202" stop-opacity="0.9"/>
</linearGradient>
<linearGradient id="paint56_linear_5075_21202" x1="199.607" y1="510.497" x2="158.225" y2="557.165" gradientUnits="userSpaceOnUse">
<stop stop-color="#020202" stop-opacity="0.9"/>
<stop offset="1" stop-color="#020202" stop-opacity="0.9"/>
</linearGradient>
<linearGradient id="paint57_linear_5075_21202" x1="227.045" y1="526.337" x2="185.662" y2="573.005" gradientUnits="userSpaceOnUse">
<stop stop-color="#020202" stop-opacity="0.9"/>
<stop offset="1" stop-color="#020202" stop-opacity="0.9"/>
</linearGradient>
<linearGradient id="paint58_linear_5075_21202" x1="254.397" y1="542.13" x2="213.014" y2="588.798" gradientUnits="userSpaceOnUse">
<stop stop-color="#020202" stop-opacity="0.9"/>
<stop offset="1" stop-color="#020202" stop-opacity="0.9"/>
</linearGradient>
<linearGradient id="paint59_linear_5075_21202" x1="281.83" y1="557.97" x2="240.447" y2="604.637" gradientUnits="userSpaceOnUse">
<stop stop-color="#020202" stop-opacity="0.9"/>
<stop offset="1" stop-color="#020202" stop-opacity="0.9"/>
</linearGradient>
<linearGradient id="paint60_linear_5075_21202" x1="759.829" y1="629.55" x2="778.935" y2="658.523" gradientUnits="userSpaceOnUse">
<stop stop-color="#020202" stop-opacity="0.9"/>
<stop offset="1" stop-color="#020202" stop-opacity="0.8"/>
</linearGradient>
<linearGradient id="paint61_linear_5075_21202" x1="778.07" y1="649.94" x2="804.631" y2="662.974" gradientUnits="userSpaceOnUse">
<stop stop-color="#020202" stop-opacity="0"/>
<stop offset="1" stop-color="#020202" stop-opacity="0.2"/>
</linearGradient>
<linearGradient id="paint62_linear_5075_21202" x1="797.248" y1="627.305" x2="776.299" y2="661.074" gradientUnits="userSpaceOnUse">
<stop stop-color="#020202" stop-opacity="0.5"/>
<stop offset="1" stop-color="#020202" stop-opacity="0.6"/>
</linearGradient>
<linearGradient id="paint63_linear_5075_21202" x1="813.76" y1="654.321" x2="789.805" y2="644.146" gradientUnits="userSpaceOnUse">
<stop stop-color="#020202" stop-opacity="0.3"/>
<stop offset="1" stop-color="#020202" stop-opacity="0.5"/>
</linearGradient>
<linearGradient id="paint64_linear_5075_21202" x1="636.44" y1="623.379" x2="645.617" y2="752.664" gradientUnits="userSpaceOnUse">
<stop stop-color="#020202" stop-opacity="0.9"/>
<stop offset="1" stop-color="#020202" stop-opacity="0.8"/>
</linearGradient>
<linearGradient id="paint65_linear_5075_21202" x1="643.259" y1="738.912" x2="656.276" y2="712.653" gradientUnits="userSpaceOnUse">
<stop stop-color="#020202" stop-opacity="0.5"/>
<stop offset="1" stop-color="#020202" stop-opacity="0.6"/>
</linearGradient>
<linearGradient id="paint66_linear_5075_21202" x1="762.914" y1="631.738" x2="659.297" y2="706.063" gradientUnits="userSpaceOnUse">
<stop stop-color="#020202" stop-opacity="0.5"/>
<stop offset="1" stop-color="#020202" stop-opacity="0.6"/>
</linearGradient>
<linearGradient id="paint67_linear_5075_21202" x1="657.351" y1="689.045" x2="646.612" y2="707.353" gradientUnits="userSpaceOnUse">
<stop stop-color="#020202" stop-opacity="0.6"/>
<stop offset="0.5" stop-color="#020202" stop-opacity="0.55"/>
<stop offset="1" stop-color="#020202" stop-opacity="0.6"/>
</linearGradient>
<linearGradient id="paint68_linear_5075_21202" x1="662.308" y1="702.828" x2="704.21" y2="748.407" gradientUnits="userSpaceOnUse">
<stop stop-opacity="0.3"/>
<stop offset="1" stop-opacity="0.3"/>
</linearGradient>
<linearGradient id="paint69_linear_5075_21202" x1="725.578" y1="666.301" x2="762.146" y2="691.162" gradientUnits="userSpaceOnUse">
<stop stop-opacity="0.3"/>
<stop offset="1" stop-opacity="0.3"/>
</linearGradient>
<linearGradient id="paint70_linear_5075_21202" x1="716.578" y1="666.297" x2="735.764" y2="709.481" gradientUnits="userSpaceOnUse">
<stop stop-opacity="0.3"/>
<stop offset="1" stop-opacity="0.3"/>
</linearGradient>
<linearGradient id="paint71_linear_5075_21202" x1="710.65" y1="674.916" x2="740.52" y2="688.567" gradientUnits="userSpaceOnUse">
<stop stop-color="#FEFEFE" stop-opacity="0"/>
<stop offset="1" stop-color="#FEFEFE" stop-opacity="0.4"/>
</linearGradient>
<linearGradient id="paint72_linear_5075_21202" x1="693.691" y1="684.705" x2="724.703" y2="699.433" gradientUnits="userSpaceOnUse">
<stop stop-color="#FEFEFE" stop-opacity="0"/>
<stop offset="1" stop-color="#FEFEFE" stop-opacity="0.4"/>
</linearGradient>
<linearGradient id="paint73_linear_5075_21202" x1="674.403" y1="694.544" x2="706.937" y2="709.671" gradientUnits="userSpaceOnUse">
<stop stop-color="#FEFEFE" stop-opacity="0"/>
<stop offset="1" stop-color="#FEFEFE" stop-opacity="0.4"/>
</linearGradient>
<linearGradient id="paint74_linear_5075_21202" x1="663.171" y1="706.61" x2="689.595" y2="718.824" gradientUnits="userSpaceOnUse">
<stop stop-color="#FEFEFE" stop-opacity="0"/>
<stop offset="1" stop-color="#FEFEFE" stop-opacity="0.4"/>
</linearGradient>
<linearGradient id="paint75_linear_5075_21202" x1="679.878" y1="701.916" x2="684.326" y2="709.621" gradientUnits="userSpaceOnUse">
<stop stop-color="#020202" stop-opacity="0.1"/>
<stop offset="1" stop-color="#020202" stop-opacity="0.3"/>
</linearGradient>
<linearGradient id="paint76_linear_5075_21202" x1="672.232" y1="697.101" x2="682.953" y2="707.958" gradientUnits="userSpaceOnUse">
<stop stop-color="#FEFEFE" stop-opacity="0"/>
<stop offset="1" stop-color="#FEFEFE" stop-opacity="0.4"/>
</linearGradient>
<linearGradient id="paint77_linear_5075_21202" x1="687.018" y1="688.563" x2="696.255" y2="697.229" gradientUnits="userSpaceOnUse">
<stop stop-color="#FEFEFE" stop-opacity="0"/>
<stop offset="1" stop-color="#FEFEFE" stop-opacity="0.4"/>
</linearGradient>
<linearGradient id="paint78_linear_5075_21202" x1="703.759" y1="678.9" x2="714.953" y2="687.185" gradientUnits="userSpaceOnUse">
<stop stop-color="#FEFEFE" stop-opacity="0"/>
<stop offset="1" stop-color="#FEFEFE" stop-opacity="0.4"/>
</linearGradient>
<linearGradient id="paint79_linear_5075_21202" x1="721.874" y1="668.437" x2="732.339" y2="677.076" gradientUnits="userSpaceOnUse">
<stop stop-color="#FEFEFE" stop-opacity="0"/>
<stop offset="1" stop-color="#FEFEFE" stop-opacity="0.4"/>
</linearGradient>
<linearGradient id="paint80_linear_5075_21202" x1="688.655" y1="713.377" x2="693.104" y2="721.082" gradientUnits="userSpaceOnUse">
<stop stop-color="#020202" stop-opacity="0.1"/>
<stop offset="1" stop-color="#020202" stop-opacity="0.4"/>
</linearGradient>
<linearGradient id="paint81_linear_5075_21202" x1="706.214" y1="703.244" x2="710.662" y2="710.949" gradientUnits="userSpaceOnUse">
<stop stop-color="#020202" stop-opacity="0.1"/>
<stop offset="1" stop-color="#020202" stop-opacity="0.4"/>
</linearGradient>
<linearGradient id="paint82_linear_5075_21202" x1="723.765" y1="693.108" x2="728.213" y2="700.812" gradientUnits="userSpaceOnUse">
<stop stop-color="#020202" stop-opacity="0.1"/>
<stop offset="1" stop-color="#020202" stop-opacity="0.4"/>
</linearGradient>
<linearGradient id="paint83_linear_5075_21202" x1="741.315" y1="682.971" x2="745.764" y2="690.675" gradientUnits="userSpaceOnUse">
<stop stop-color="#020202" stop-opacity="0.1"/>
<stop offset="1" stop-color="#020202" stop-opacity="0.4"/>
</linearGradient>
<linearGradient id="paint84_linear_5075_21202" x1="697.431" y1="691.783" x2="701.879" y2="699.488" gradientUnits="userSpaceOnUse">
<stop stop-color="#020202" stop-opacity="0.1"/>
<stop offset="1" stop-color="#020202" stop-opacity="0.4"/>
</linearGradient>
<linearGradient id="paint85_linear_5075_21202" x1="714.991" y1="681.647" x2="719.439" y2="689.351" gradientUnits="userSpaceOnUse">
<stop stop-color="#020202" stop-opacity="0.1"/>
<stop offset="1" stop-color="#020202" stop-opacity="0.4"/>
</linearGradient>
<linearGradient id="paint86_linear_5075_21202" x1="732.542" y1="671.51" x2="736.99" y2="679.214" gradientUnits="userSpaceOnUse">
<stop stop-color="#020202" stop-opacity="0.1"/>
<stop offset="1" stop-color="#020202" stop-opacity="0.4"/>
</linearGradient>
<linearGradient id="paint87_linear_5075_21202" x1="750.093" y1="661.377" x2="754.541" y2="669.082" gradientUnits="userSpaceOnUse">
<stop stop-color="#020202" stop-opacity="0.1"/>
<stop offset="1" stop-color="#020202" stop-opacity="0.4"/>
</linearGradient>
<linearGradient id="paint88_linear_5075_21202" x1="739.145" y1="658.47" x2="752.132" y2="665.834" gradientUnits="userSpaceOnUse">
<stop stop-color="#FEFEFE" stop-opacity="0"/>
<stop offset="1" stop-color="#FEFEFE" stop-opacity="0.4"/>
</linearGradient>
<linearGradient id="paint89_linear_5075_21202" x1="611.966" y1="678.089" x2="862.781" y2="700.158" gradientUnits="userSpaceOnUse">
<stop stop-color="#020202" stop-opacity="0"/>
<stop offset="1" stop-color="#020202" stop-opacity="0.2"/>
</linearGradient>
<linearGradient id="paint90_linear_5075_21202" x1="600.033" y1="721.808" x2="619.134" y2="750.774" gradientUnits="userSpaceOnUse">
<stop stop-color="#020202" stop-opacity="0.9"/>
<stop offset="1" stop-color="#020202" stop-opacity="0.8"/>
</linearGradient>
<linearGradient id="paint91_linear_5075_21202" x1="637.587" y1="719.588" x2="616.547" y2="753.511" gradientUnits="userSpaceOnUse">
<stop stop-color="#020202" stop-opacity="0.5"/>
<stop offset="1" stop-color="#020202" stop-opacity="0.6"/>
</linearGradient>
<linearGradient id="paint92_linear_5075_21202" x1="653.956" y1="746.578" x2="630.011" y2="736.407" gradientUnits="userSpaceOnUse">
<stop stop-color="#020202" stop-opacity="0.3"/>
<stop offset="1" stop-color="#020202" stop-opacity="0.5"/>
</linearGradient>
<linearGradient id="paint93_linear_5075_21202" x1="618.249" y1="731.467" x2="651.695" y2="751.95" gradientUnits="userSpaceOnUse">
<stop stop-color="#020202" stop-opacity="0"/>
<stop offset="1" stop-color="#020202" stop-opacity="0.2"/>
</linearGradient>
<linearGradient id="paint94_linear_5075_21202" x1="851.617" y1="565.267" x2="843.464" y2="576.623" gradientUnits="userSpaceOnUse">
<stop stop-color="#020202" stop-opacity="0.2"/>
<stop offset="1" stop-color="#020202" stop-opacity="0.45"/>
</linearGradient>
<linearGradient id="paint95_linear_5075_21202" x1="880.57" y1="548.548" x2="872.417" y2="559.904" gradientUnits="userSpaceOnUse">
<stop stop-color="#020202" stop-opacity="0.2"/>
<stop offset="1" stop-color="#020202" stop-opacity="0.45"/>
</linearGradient>
<linearGradient id="paint96_linear_5075_21202" x1="907.402" y1="533.056" x2="899.249" y2="544.412" gradientUnits="userSpaceOnUse">
<stop stop-color="#020202" stop-opacity="0.2"/>
<stop offset="1" stop-color="#020202" stop-opacity="0.45"/>
</linearGradient>
<linearGradient id="paint97_linear_5075_21202" x1="936.404" y1="516.314" x2="928.251" y2="527.669" gradientUnits="userSpaceOnUse">
<stop stop-color="#020202" stop-opacity="0.2"/>
<stop offset="1" stop-color="#020202" stop-opacity="0.45"/>
</linearGradient>
</defs>
</svg>
