<svg width="1000" height="1000" viewBox="0 0 1000 1000" fill="none" xmlns="http://www.w3.org/2000/svg">
<path fill-rule="evenodd" clip-rule="evenodd" d="M468.826 128.104C479.345 121.959 492.364 121.977 502.865 128.152L920.718 373.852C930.143 370.302 940.786 371.132 949.64 376.337L964.411 385.022C974.68 391.06 980.992 402.076 981.01 413.988L981.055 444.34C986.27 449.862 989.852 455.829 992.192 460.703C997.369 471.484 999.441 482.645 999.932 490.381C999.979 491.122 1000 491.866 1000 492.609L999.86 542.957C999.834 552.042 996.137 560.731 989.609 567.049L979.745 576.596C977.296 584.548 971.943 591.438 964.554 595.755L491.863 871.898C481.345 878.042 468.328 878.025 457.827 871.852L443.055 863.168C432.785 857.13 426.471 846.114 426.453 834.201L426.452 833.015L16.7804 592.175C6.50854 586.136 0.19486 575.117 0.179763 563.202L2.7143e-05 421.344C-0.0151523 409.365 6.33736 398.281 16.6807 392.239L468.826 128.104Z" fill="black"/>
<path d="M468.087 676.428L33.6543 421.305L33.834 563.162L468.358 818.612L468.087 676.428Z" fill="#FF0000"/>
<path d="M468.087 676.428L33.6543 421.305L33.834 563.162L468.358 818.612L468.087 676.428Z" fill="url(#paint0_linear_5075_7641)"/>
<path d="M485.8 157.168L33.6543 421.303L468.358 676.584L920.188 412.591L485.8 157.168Z" fill="#FF0000"/>
<path d="M485.8 157.168L33.6543 421.303L468.358 676.584L920.188 412.591L485.8 157.168Z" fill="url(#paint1_linear_5075_7641)"/>
<path fill-rule="evenodd" clip-rule="evenodd" d="M459.883 763.841L57.2539 528.635V496.727L459.883 731.932V763.841Z" fill="#FF0000"/>
<path fill-rule="evenodd" clip-rule="evenodd" d="M459.883 763.841L57.2539 528.635V496.727L459.883 731.932V763.841Z" fill="url(#paint2_linear_5075_7641)"/>
<path fill-rule="evenodd" clip-rule="evenodd" d="M459.865 763.831L57.2539 528.635V496.727L62.5419 499.817V525.881L459.865 757.996V763.831L459.883 763.841H459.865V763.831Z" fill="#FF0000"/>
<path fill-rule="evenodd" clip-rule="evenodd" d="M459.865 763.831L57.2539 528.635V496.727L62.5419 499.817V525.881L459.865 757.996V763.831L459.883 763.841H459.865V763.831Z" fill="url(#paint3_linear_5075_7641)"/>
<path d="M459.885 681.496L460.109 834.152L474.882 842.836L474.657 690.18L459.885 681.496Z" fill="#FF0000"/>
<path d="M459.885 681.496L460.109 834.152L474.882 842.836L474.657 690.18L459.885 681.496Z" fill="url(#paint4_linear_5075_7641)"/>
<path d="M932.577 405.352L459.885 681.494L474.657 690.179L947.349 414.036L932.577 405.352Z" fill="#FF0000"/>
<path d="M932.577 405.352L459.885 681.494L474.657 690.179L947.349 414.036L932.577 405.352Z" fill="url(#paint5_linear_5075_7641)"/>
<path d="M474.654 690.182L474.879 842.837L947.571 566.694L947.346 414.039L474.654 690.182Z" fill="#FF0000"/>
<path d="M474.654 690.182L474.879 842.837L947.571 566.694L947.346 414.039L474.654 690.182Z" fill="url(#paint6_linear_5075_7641)"/>
<path d="M913.544 454.727L697.166 581.098V689.969L913.544 563.598V454.727Z" fill="#00FF00"/>
<path d="M913.544 454.727L697.166 581.098V689.969L913.544 563.598V454.727Z" fill="url(#paint7_linear_5075_7641)"/>
<path fill-rule="evenodd" clip-rule="evenodd" d="M584.276 389.883L430.147 478.828C426.057 481.191 423.898 484.441 424.224 487.781L433.448 582.496C434.433 592.612 455.69 597.29 468.107 590.13L777.154 411.79C789.571 404.629 781.461 392.356 763.929 391.794L599.788 386.475C594.003 386.288 588.366 387.53 584.276 389.883Z" fill="#FF0000"/>
<path fill-rule="evenodd" clip-rule="evenodd" d="M584.276 389.883L430.147 478.828C426.057 481.191 423.898 484.441 424.224 487.781L433.448 582.496C434.433 592.612 455.69 597.29 468.107 590.13L777.154 411.79C789.571 404.629 781.461 392.356 763.929 391.794L599.788 386.475C594.003 386.288 588.366 387.53 584.276 389.883Z" fill="url(#paint8_linear_5075_7641)"/>
<path fill-rule="evenodd" clip-rule="evenodd" d="M523.701 354.936L369.571 443.879C365.481 446.242 359.835 447.483 354.06 447.296L189.918 441.977C172.387 441.406 164.276 429.143 176.693 421.983L485.739 243.643C498.156 236.482 519.414 241.161 520.399 251.276L529.623 345.992C529.948 349.311 527.79 352.571 523.701 354.936Z" fill="#FF0000"/>
<path fill-rule="evenodd" clip-rule="evenodd" d="M523.701 354.936L369.571 443.879C365.481 446.242 359.835 447.483 354.06 447.296L189.918 441.977C172.387 441.406 164.276 429.143 176.693 421.983L485.739 243.643C498.156 236.482 519.414 241.161 520.399 251.276L529.623 345.992C529.948 349.311 527.79 352.571 523.701 354.936Z" fill="url(#paint9_linear_5075_7641)"/>
<path fill-rule="evenodd" clip-rule="evenodd" d="M424.224 487.781L424.805 493.769C425.653 491.641 427.416 489.662 430.147 488.096L584.276 399.153C588.366 396.788 594.012 395.547 599.788 395.734L763.929 401.053C772.345 401.329 778.494 404.324 781.343 408.126C786.664 401.083 778.73 392.277 763.929 391.794L599.788 386.475C594.012 386.288 588.375 387.53 584.276 389.894L430.147 478.837C426.057 481.191 423.898 484.441 424.224 487.781Z" fill="#FF0000"/>
<path fill-rule="evenodd" clip-rule="evenodd" d="M424.224 487.781L424.805 493.769C425.653 491.641 427.416 489.662 430.147 488.096L584.276 399.153C588.366 396.788 594.012 395.547 599.788 395.734L763.929 401.053C772.345 401.329 778.494 404.324 781.343 408.126C786.664 401.083 778.73 392.277 763.929 391.794L599.788 386.475C594.012 386.288 588.375 387.53 584.276 389.894L430.147 478.837C426.057 481.191 423.898 484.441 424.224 487.781Z" fill="url(#paint10_linear_5075_7641)"/>
<path fill-rule="evenodd" clip-rule="evenodd" d="M172.513 434.896C169.428 430.769 170.246 425.697 176.701 421.963L485.748 243.623C498.165 236.463 519.422 241.141 520.407 251.257L529.632 345.972C529.74 347.086 529.474 348.179 529.05 349.243L520.407 260.506C519.422 250.391 498.165 245.702 485.748 252.872L176.701 431.212C174.76 432.345 173.489 433.596 172.513 434.896Z" fill="#FF0000"/>
<path fill-rule="evenodd" clip-rule="evenodd" d="M172.513 434.896C169.428 430.769 170.246 425.697 176.701 421.963L485.748 243.623C498.165 236.463 519.422 241.141 520.407 251.257L529.632 345.972C529.74 347.086 529.474 348.179 529.05 349.243L520.407 260.506C519.422 250.391 498.165 245.702 485.748 252.872L176.701 431.212C174.76 432.345 173.489 433.596 172.513 434.896Z" fill="url(#paint11_linear_5075_7641)"/>
<path fill-rule="evenodd" clip-rule="evenodd" d="M639.112 660.374L549.616 712.656C546.529 714.457 544.014 713.38 544.014 710.257V688.739C544.014 685.616 546.508 681.622 549.616 679.802L639.112 627.521C642.2 625.721 644.715 626.796 644.715 629.921V651.416C644.694 654.561 642.2 658.554 639.112 660.374Z" fill="#FF0000"/>
<path fill-rule="evenodd" clip-rule="evenodd" d="M639.112 660.374L549.616 712.656C546.529 714.457 544.014 713.38 544.014 710.257V688.739C544.014 685.616 546.508 681.622 549.616 679.802L639.112 627.521C642.2 625.721 644.715 626.796 644.715 629.921V651.416C644.694 654.561 642.2 658.554 639.112 660.374Z" fill="url(#paint12_linear_5075_7641)"/>
<path fill-rule="evenodd" clip-rule="evenodd" d="M644.695 629.943V651.438C644.695 654.562 642.201 658.555 639.114 660.376L549.618 712.657C546.55 714.458 544.056 713.402 544.035 710.299C544.281 710.195 544.505 710.175 544.751 710.03L634.247 657.748C637.335 655.949 639.849 651.955 639.849 648.811V627.273C642.549 626.053 644.695 627.067 644.695 629.943Z" fill="#FF0000"/>
<path fill-rule="evenodd" clip-rule="evenodd" d="M644.695 629.943V651.438C644.695 654.562 642.201 658.555 639.114 660.376L549.618 712.657C546.55 714.458 544.056 713.402 544.035 710.299C544.281 710.195 544.505 710.175 544.751 710.03L634.247 657.748C637.335 655.949 639.849 651.955 639.849 648.811V627.273C642.549 626.053 644.695 627.067 644.695 629.943Z" fill="url(#paint13_linear_5075_7641)"/>
<path fill-rule="evenodd" clip-rule="evenodd" d="M547.413 698.986C547.413 697.187 545.954 696.586 544.176 697.602C544.131 697.648 544.085 697.74 544.039 697.74V704.154C544.085 704.107 544.131 704.154 544.176 704.107C546 703.093 547.413 700.785 547.413 698.986Z" fill="#FF0000"/>
<path fill-rule="evenodd" clip-rule="evenodd" d="M547.413 698.986C547.413 697.187 545.954 696.586 544.176 697.602C544.131 697.648 544.085 697.74 544.039 697.74V704.154C544.085 704.107 544.131 704.154 544.176 704.107C546 703.093 547.413 700.785 547.413 698.986Z" fill="url(#paint14_linear_5075_7641)"/>
<path fill-rule="evenodd" clip-rule="evenodd" d="M566.565 684.54C564.786 685.601 563.326 687.862 563.326 689.662C563.326 691.461 564.786 692.061 566.565 691.046C568.343 690.031 569.802 687.724 569.802 685.924C569.757 684.124 568.343 683.479 566.565 684.54Z" fill="#FF0000"/>
<path fill-rule="evenodd" clip-rule="evenodd" d="M566.565 684.54C564.786 685.601 563.326 687.862 563.326 689.662C563.326 691.461 564.786 692.061 566.565 691.046C568.343 690.031 569.802 687.724 569.802 685.924C569.757 684.124 568.343 683.479 566.565 684.54Z" fill="url(#paint15_linear_5075_7641)"/>
<path fill-rule="evenodd" clip-rule="evenodd" d="M588.912 671.486C587.132 672.547 585.674 674.809 585.674 676.654C585.674 678.5 587.132 679.053 588.912 678.038C590.69 676.977 592.149 674.716 592.149 672.916C592.149 671.116 590.69 670.425 588.912 671.486Z" fill="#FF0000"/>
<path fill-rule="evenodd" clip-rule="evenodd" d="M588.912 671.486C587.132 672.547 585.674 674.809 585.674 676.654C585.674 678.5 587.132 679.053 588.912 678.038C590.69 676.977 592.149 674.716 592.149 672.916C592.149 671.116 590.69 670.425 588.912 671.486Z" fill="url(#paint16_linear_5075_7641)"/>
<path fill-rule="evenodd" clip-rule="evenodd" d="M563.326 673.375C563.326 675.174 564.786 675.774 566.565 674.759C568.343 673.743 569.802 671.437 569.802 669.591C569.802 668.991 569.437 668.714 569.163 668.391L564.011 671.39C563.692 672.083 563.326 672.775 563.326 673.375Z" fill="#FF0000"/>
<path fill-rule="evenodd" clip-rule="evenodd" d="M563.326 673.375C563.326 675.174 564.786 675.774 566.565 674.759C568.343 673.743 569.802 671.437 569.802 669.591C569.802 668.991 569.437 668.714 569.163 668.391L564.011 671.39C563.692 672.083 563.326 672.775 563.326 673.375Z" fill="url(#paint17_linear_5075_7641)"/>
<path fill-rule="evenodd" clip-rule="evenodd" d="M611.253 658.426C609.475 659.487 608.016 661.749 608.016 663.547C608.016 665.347 609.475 665.948 611.253 664.932C613.033 663.917 614.491 661.61 614.491 659.764C614.491 657.918 613.033 657.365 611.253 658.426Z" fill="#FF0000"/>
<path fill-rule="evenodd" clip-rule="evenodd" d="M611.253 658.426C609.475 659.487 608.016 661.749 608.016 663.547C608.016 665.347 609.475 665.948 611.253 664.932C613.033 663.917 614.491 661.61 614.491 659.764C614.491 657.918 613.033 657.365 611.253 658.426Z" fill="url(#paint18_linear_5075_7641)"/>
<path fill-rule="evenodd" clip-rule="evenodd" d="M585.674 660.316C585.674 662.116 587.132 662.716 588.912 661.701C590.69 660.64 592.149 658.378 592.149 656.579C592.149 655.979 591.784 655.702 591.511 655.379L586.357 658.378C586.038 659.024 585.674 659.717 585.674 660.316Z" fill="#FF0000"/>
<path fill-rule="evenodd" clip-rule="evenodd" d="M585.674 660.316C585.674 662.116 587.132 662.716 588.912 661.701C590.69 660.64 592.149 658.378 592.149 656.579C592.149 655.979 591.784 655.702 591.511 655.379L586.357 658.378C586.038 659.024 585.674 659.717 585.674 660.316Z" fill="url(#paint19_linear_5075_7641)"/>
<path fill-rule="evenodd" clip-rule="evenodd" d="M633.643 645.368C631.865 646.429 630.406 648.69 630.406 650.49C630.406 652.29 631.865 652.89 633.643 651.875C635.422 650.813 636.881 648.552 636.881 646.753C636.881 644.953 635.422 644.307 633.643 645.368Z" fill="#FF0000"/>
<path fill-rule="evenodd" clip-rule="evenodd" d="M633.643 645.368C631.865 646.429 630.406 648.69 630.406 650.49C630.406 652.29 631.865 652.89 633.643 651.875C635.422 650.813 636.881 648.552 636.881 646.753C636.881 644.953 635.422 644.307 633.643 645.368Z" fill="url(#paint20_linear_5075_7641)"/>
<path fill-rule="evenodd" clip-rule="evenodd" d="M608.062 647.261C608.062 649.061 609.522 649.66 611.3 648.644C613.079 647.583 614.538 645.323 614.538 643.477C614.538 642.877 614.173 642.6 613.9 642.277L608.747 645.277C608.382 645.969 608.062 646.66 608.062 647.261Z" fill="#FF0000"/>
<path fill-rule="evenodd" clip-rule="evenodd" d="M608.062 647.261C608.062 649.061 609.522 649.66 611.3 648.644C613.079 647.583 614.538 645.323 614.538 643.477C614.538 642.877 614.173 642.6 613.9 642.277L608.747 645.277C608.382 645.969 608.062 646.66 608.062 647.261Z" fill="url(#paint21_linear_5075_7641)"/>
<path fill-rule="evenodd" clip-rule="evenodd" d="M630.406 634.202C630.406 636.002 631.865 636.601 633.643 635.587C635.422 634.526 636.881 632.264 636.881 630.418C636.881 629.819 636.516 629.542 636.242 629.219L631.09 632.218C630.771 632.91 630.406 633.603 630.406 634.202Z" fill="#FF0000"/>
<path fill-rule="evenodd" clip-rule="evenodd" d="M630.406 634.202C630.406 636.002 631.865 636.601 633.643 635.587C635.422 634.526 636.881 632.264 636.881 630.418C636.881 629.819 636.516 629.542 636.242 629.219L631.09 632.218C630.771 632.91 630.406 633.603 630.406 634.202Z" fill="url(#paint22_linear_5075_7641)"/>
<path d="M586.838 641.546C586.838 646.284 583.034 652.367 578.352 655.097C573.67 657.828 569.867 656.214 569.867 651.456C569.867 646.718 573.67 640.636 578.352 637.905C583.034 635.174 586.838 636.808 586.838 641.546Z" fill="#FF0000"/>
<path d="M586.838 641.546C586.838 646.284 583.034 652.367 578.352 655.097C573.67 657.828 569.867 656.214 569.867 651.456C569.867 646.718 573.67 640.636 578.352 637.905C583.034 635.174 586.838 636.808 586.838 641.546Z" fill="url(#paint23_linear_5075_7641)"/>
<path d="M583.586 643.446C583.586 646.364 581.255 650.109 578.351 651.784C575.469 653.46 573.117 652.467 573.117 649.55C573.117 646.633 575.448 642.888 578.351 641.213C581.235 639.536 583.586 640.529 583.586 643.446Z" fill="#00FF00"/>
<path d="M583.586 643.446C583.586 646.364 581.255 650.109 578.351 651.784C575.469 653.46 573.117 652.467 573.117 649.55C573.117 646.633 575.448 642.888 578.351 641.213C581.235 639.536 583.586 640.529 583.586 643.446Z" fill="url(#paint24_linear_5075_7641)"/>
<path d="M618.861 622.844C618.861 627.581 615.058 633.664 610.375 636.395C605.693 639.125 601.891 637.511 601.891 632.753C601.891 628.016 605.693 621.933 610.375 619.202C615.058 616.471 618.861 618.105 618.861 622.844Z" fill="#FF0000"/>
<path d="M618.861 622.844C618.861 627.581 615.058 633.664 610.375 636.395C605.693 639.125 601.891 637.511 601.891 632.753C601.891 628.016 605.693 621.933 610.375 619.202C615.058 616.471 618.861 618.105 618.861 622.844Z" fill="url(#paint25_linear_5075_7641)"/>
<path d="M615.588 624.747C615.588 627.665 613.257 631.41 610.353 633.085C607.471 634.782 605.119 633.768 605.119 630.851C605.119 627.934 607.45 624.189 610.353 622.514C613.257 620.837 615.588 621.83 615.588 624.747Z" fill="#00FF00"/>
<path d="M615.588 624.747C615.588 627.665 613.257 631.41 610.353 633.085C607.471 634.782 605.119 633.768 605.119 630.851C605.119 627.934 607.45 624.189 610.353 622.514C613.257 620.837 615.588 621.83 615.588 624.747Z" fill="url(#paint26_linear_5075_7641)"/>
<path fill-rule="evenodd" clip-rule="evenodd" d="M639.112 710.422L549.616 762.703C546.529 764.503 544.014 763.427 544.014 760.303V738.787C544.014 735.662 546.508 731.67 549.616 729.849L639.112 677.567C642.2 675.768 644.715 676.844 644.715 679.967V701.463C644.694 704.608 642.2 708.602 639.112 710.422Z" fill="#FF0000"/>
<path fill-rule="evenodd" clip-rule="evenodd" d="M639.112 710.422L549.616 762.703C546.529 764.503 544.014 763.427 544.014 760.303V738.787C544.014 735.662 546.508 731.67 549.616 729.849L639.112 677.567C642.2 675.768 644.715 676.844 644.715 679.967V701.463C644.694 704.608 642.2 708.602 639.112 710.422Z" fill="url(#paint27_linear_5075_7641)"/>
<path fill-rule="evenodd" clip-rule="evenodd" d="M547.413 749.033C547.413 747.233 545.954 746.633 544.176 747.649C544.131 747.695 544.085 747.787 544.039 747.787V754.201C544.085 754.155 544.131 754.201 544.176 754.155C546 753.14 547.413 750.832 547.413 749.033Z" fill="#FF0000"/>
<path fill-rule="evenodd" clip-rule="evenodd" d="M547.413 749.033C547.413 747.233 545.954 746.633 544.176 747.649C544.131 747.695 544.085 747.787 544.039 747.787V754.201C544.085 754.155 544.131 754.201 544.176 754.155C546 753.14 547.413 750.832 547.413 749.033Z" fill="url(#paint28_linear_5075_7641)"/>
<path fill-rule="evenodd" clip-rule="evenodd" d="M566.565 734.591C564.786 735.652 563.326 737.913 563.326 739.713C563.326 741.512 564.786 742.112 566.565 741.097C568.343 740.082 569.802 737.774 569.802 735.975C569.757 734.176 568.343 733.53 566.565 734.591Z" fill="#FF0000"/>
<path fill-rule="evenodd" clip-rule="evenodd" d="M566.565 734.591C564.786 735.652 563.326 737.913 563.326 739.713C563.326 741.512 564.786 742.112 566.565 741.097C568.343 740.082 569.802 737.774 569.802 735.975C569.757 734.176 568.343 733.53 566.565 734.591Z" fill="url(#paint29_linear_5075_7641)"/>
<path fill-rule="evenodd" clip-rule="evenodd" d="M588.912 721.532C587.132 722.595 585.674 724.855 585.674 726.701C585.674 728.546 587.132 729.1 588.912 728.085C590.69 727.023 592.149 724.763 592.149 722.963C592.149 721.164 590.69 720.471 588.912 721.532Z" fill="#FF0000"/>
<path fill-rule="evenodd" clip-rule="evenodd" d="M588.912 721.532C587.132 722.595 585.674 724.855 585.674 726.701C585.674 728.546 587.132 729.1 588.912 728.085C590.69 727.023 592.149 724.763 592.149 722.963C592.149 721.164 590.69 720.471 588.912 721.532Z" fill="url(#paint30_linear_5075_7641)"/>
<path fill-rule="evenodd" clip-rule="evenodd" d="M563.326 723.425C563.326 725.225 564.786 725.824 566.565 724.809C568.343 723.794 569.802 721.487 569.802 719.641C569.802 719.041 569.437 718.764 569.163 718.441L564.011 721.441C563.692 722.133 563.326 722.825 563.326 723.425Z" fill="#FF0000"/>
<path fill-rule="evenodd" clip-rule="evenodd" d="M563.326 723.425C563.326 725.225 564.786 725.824 566.565 724.809C568.343 723.794 569.802 721.487 569.802 719.641C569.802 719.041 569.437 718.764 569.163 718.441L564.011 721.441C563.692 722.133 563.326 722.825 563.326 723.425Z" fill="url(#paint31_linear_5075_7641)"/>
<path fill-rule="evenodd" clip-rule="evenodd" d="M611.253 708.473C609.475 709.534 608.016 711.795 608.016 713.594C608.016 715.393 609.475 715.993 611.253 714.978C613.033 713.963 614.491 711.656 614.491 709.811C614.491 707.965 613.033 707.411 611.253 708.473Z" fill="#FF0000"/>
<path fill-rule="evenodd" clip-rule="evenodd" d="M611.253 708.473C609.475 709.534 608.016 711.795 608.016 713.594C608.016 715.393 609.475 715.993 611.253 714.978C613.033 713.963 614.491 711.656 614.491 709.811C614.491 707.965 613.033 707.411 611.253 708.473Z" fill="url(#paint32_linear_5075_7641)"/>
<path fill-rule="evenodd" clip-rule="evenodd" d="M585.674 710.366C585.674 712.166 587.132 712.766 588.912 711.751C590.69 710.69 592.149 708.429 592.149 706.629C592.149 706.029 591.784 705.752 591.511 705.43L586.357 708.429C586.038 709.075 585.674 709.767 585.674 710.366Z" fill="#FF0000"/>
<path fill-rule="evenodd" clip-rule="evenodd" d="M585.674 710.366C585.674 712.166 587.132 712.766 588.912 711.751C590.69 710.69 592.149 708.429 592.149 706.629C592.149 706.029 591.784 705.752 591.511 705.43L586.357 708.429C586.038 709.075 585.674 709.767 585.674 710.366Z" fill="url(#paint33_linear_5075_7641)"/>
<path fill-rule="evenodd" clip-rule="evenodd" d="M633.643 695.419C631.865 696.481 630.406 698.742 630.406 700.541C630.406 702.341 631.865 702.941 633.643 701.925C635.422 700.864 636.881 698.603 636.881 696.804C636.881 695.004 635.422 694.358 633.643 695.419Z" fill="#FF0000"/>
<path fill-rule="evenodd" clip-rule="evenodd" d="M633.643 695.419C631.865 696.481 630.406 698.742 630.406 700.541C630.406 702.341 631.865 702.941 633.643 701.925C635.422 700.864 636.881 698.603 636.881 696.804C636.881 695.004 635.422 694.358 633.643 695.419Z" fill="url(#paint34_linear_5075_7641)"/>
<path fill-rule="evenodd" clip-rule="evenodd" d="M608.062 697.312C608.062 699.111 609.522 699.711 611.3 698.696C613.079 697.635 614.538 695.373 614.538 693.528C614.538 692.928 614.173 692.652 613.9 692.328L608.747 695.327C608.382 696.019 608.062 696.712 608.062 697.312Z" fill="#FF0000"/>
<path fill-rule="evenodd" clip-rule="evenodd" d="M608.062 697.312C608.062 699.111 609.522 699.711 611.3 698.696C613.079 697.635 614.538 695.373 614.538 693.528C614.538 692.928 614.173 692.652 613.9 692.328L608.747 695.327C608.382 696.019 608.062 696.712 608.062 697.312Z" fill="url(#paint35_linear_5075_7641)"/>
<path fill-rule="evenodd" clip-rule="evenodd" d="M630.406 684.249C630.406 686.049 631.865 686.649 633.643 685.634C635.422 684.572 636.881 682.312 636.881 680.466C636.881 679.866 636.516 679.589 636.242 679.266L631.09 682.265C630.771 682.958 630.406 683.65 630.406 684.249Z" fill="#FF0000"/>
<path fill-rule="evenodd" clip-rule="evenodd" d="M630.406 684.249C630.406 686.049 631.865 686.649 633.643 685.634C635.422 684.572 636.881 682.312 636.881 680.466C636.881 679.866 636.516 679.589 636.242 679.266L631.09 682.265C630.771 682.958 630.406 683.65 630.406 684.249Z" fill="url(#paint36_linear_5075_7641)"/>
<path fill-rule="evenodd" clip-rule="evenodd" d="M644.695 679.985V701.481C644.695 704.606 642.201 708.599 639.114 710.419L549.618 762.701C546.55 764.5 544.056 763.445 544.035 760.342C544.281 760.239 544.505 760.217 544.751 760.073L634.247 707.792C637.335 705.991 639.849 701.999 639.849 698.854V677.317C642.549 676.096 644.695 677.109 644.695 679.985Z" fill="#FF0000"/>
<path fill-rule="evenodd" clip-rule="evenodd" d="M644.695 679.985V701.481C644.695 704.606 642.201 708.599 639.114 710.419L549.618 762.701C546.55 764.5 544.056 763.445 544.035 760.342C544.281 760.239 544.505 760.217 544.751 760.073L634.247 707.792C637.335 705.991 639.849 701.999 639.849 698.854V677.317C642.549 676.096 644.695 677.109 644.695 679.985Z" fill="url(#paint37_linear_5075_7641)"/>
<path d="M586.838 758.932C586.838 763.671 583.034 769.753 578.352 772.484C573.67 775.215 569.867 773.601 569.867 768.843C569.867 764.105 573.67 758.023 578.352 755.292C583.034 752.561 586.838 754.195 586.838 758.932Z" fill="#FF0000"/>
<path d="M586.838 758.932C586.838 763.671 583.034 769.753 578.352 772.484C573.67 775.215 569.867 773.601 569.867 768.843C569.867 764.105 573.67 758.023 578.352 755.292C583.034 752.561 586.838 754.195 586.838 758.932Z" fill="url(#paint38_linear_5075_7641)"/>
<path d="M583.586 760.837C583.586 763.754 581.255 767.499 578.351 769.175C575.469 770.851 573.117 769.858 573.117 766.941C573.117 764.024 575.448 760.279 578.351 758.603C581.235 756.927 583.586 757.92 583.586 760.837Z" fill="#00FF00"/>
<path d="M583.586 760.837C583.586 763.754 581.255 767.499 578.351 769.175C575.469 770.851 573.117 769.858 573.117 766.941C573.117 764.024 575.448 760.279 578.351 758.603C581.235 756.927 583.586 757.92 583.586 760.837Z" fill="url(#paint39_linear_5075_7641)"/>
<path d="M618.861 740.229C618.861 744.968 615.058 751.05 610.375 753.781C605.693 756.512 601.891 754.898 601.891 750.14C601.891 745.402 605.693 739.32 610.375 736.589C615.058 733.858 618.861 735.492 618.861 740.229Z" fill="#FF0000"/>
<path d="M618.861 740.229C618.861 744.968 615.058 751.05 610.375 753.781C605.693 756.512 601.891 754.898 601.891 750.14C601.891 745.402 605.693 739.32 610.375 736.589C615.058 733.858 618.861 735.492 618.861 740.229Z" fill="url(#paint40_linear_5075_7641)"/>
<path d="M615.588 742.13C615.588 745.047 613.257 748.792 610.353 750.468C607.471 752.164 605.119 751.151 605.119 748.234C605.119 745.317 607.45 741.572 610.353 739.896C613.257 738.22 615.588 739.213 615.588 742.13Z" fill="#00FF00"/>
<path d="M615.588 742.13C615.588 745.047 613.257 748.792 610.353 750.468C607.471 752.164 605.119 751.151 605.119 748.234C605.119 745.317 607.45 741.572 610.353 739.896C613.257 738.22 615.588 739.213 615.588 742.13Z" fill="url(#paint41_linear_5075_7641)"/>
<path d="M510.423 797.954L498.431 790.848L488.525 796.728L500.517 803.834C503.252 805.427 505.731 805.576 507.521 804.531L517.427 798.652C515.637 799.696 513.158 799.557 510.423 797.954Z" fill="#FF0000"/>
<path d="M510.423 797.954L498.431 790.848L488.525 796.728L500.517 803.834C503.252 805.427 505.731 805.576 507.521 804.531L517.427 798.652C515.637 799.696 513.158 799.557 510.423 797.954Z" fill="url(#paint42_linear_5075_7641)"/>
<path d="M500.743 722.604C509.981 727.998 517.466 741.107 517.427 751.857L517.289 802.203C517.259 812.922 509.735 817.282 500.487 811.887L488.496 804.781L488.516 796.718L500.508 803.825C505.937 807 510.354 804.452 510.373 798.161L510.512 747.816C510.531 741.526 506.144 733.831 500.713 730.666L488.722 723.559L488.742 715.496L500.743 722.604Z" fill="#FF0000"/>
<path d="M500.743 722.604C509.981 727.998 517.466 741.107 517.427 751.857L517.289 802.203C517.259 812.922 509.735 817.282 500.487 811.887L488.496 804.781L488.516 796.718L500.508 803.825C505.937 807 510.354 804.452 510.373 798.161L510.512 747.816C510.531 741.526 506.144 733.831 500.713 730.666L488.722 723.559L488.742 715.496L500.743 722.604Z" fill="url(#paint43_linear_5075_7641)"/>
<path d="M509.766 717.235L509.775 717.225C512.403 718.759 514.88 720.909 517.087 723.462C519.705 726.481 521.939 730.044 523.566 733.784C525.408 737.991 526.483 742.413 526.465 746.48L526.324 796.828C526.315 802.157 524.445 805.916 521.434 807.683L512.468 813.022C512.44 813.04 512.421 813.05 512.403 813.059L512.468 813.022C515.432 811.236 517.274 807.487 517.293 802.204L517.423 751.856C517.451 747.789 516.376 743.367 514.534 739.16C512.898 735.41 510.673 731.848 508.055 728.838C505.849 726.285 503.362 724.135 500.744 722.601L488.748 715.505L497.789 710.129L509.766 717.235Z" fill="#FF0000"/>
<path d="M509.766 717.235L509.775 717.225C512.403 718.759 514.88 720.909 517.087 723.462C519.705 726.481 521.939 730.044 523.566 733.784C525.408 737.991 526.483 742.413 526.465 746.48L526.324 796.828C526.315 802.157 524.445 805.916 521.434 807.683L512.468 813.022C512.44 813.04 512.421 813.05 512.403 813.059L512.468 813.022C515.432 811.236 517.274 807.487 517.293 802.204L517.423 751.856C517.451 747.789 516.376 743.367 514.534 739.16C512.898 735.41 510.673 731.848 508.055 728.838C505.849 726.285 503.362 724.135 500.744 722.601L488.748 715.505L497.789 710.129L509.766 717.235Z" fill="url(#paint44_linear_5075_7641)"/>
<path d="M950.296 543.993L938.304 536.887L928.398 542.767L940.389 549.873C943.124 551.466 945.604 551.615 947.394 550.57L957.3 544.691C955.51 545.735 953.03 545.596 950.296 543.993Z" fill="#FF0000"/>
<path d="M950.296 543.993L938.304 536.887L928.398 542.767L940.389 549.873C943.124 551.466 945.604 551.615 947.394 550.57L957.3 544.691C955.51 545.735 953.03 545.596 950.296 543.993Z" fill="url(#paint45_linear_5075_7641)"/>
<path d="M940.616 468.643C949.854 474.037 957.34 487.146 957.301 497.896L957.162 548.242C957.133 558.961 949.608 563.321 940.361 557.926L928.369 550.82L928.389 542.757L940.381 549.864C945.811 553.039 950.228 550.491 950.247 544.2L950.385 493.855C950.404 487.565 946.017 479.87 940.587 476.705L928.595 469.598L928.615 461.535L940.616 468.643Z" fill="#FF0000"/>
<path d="M940.616 468.643C949.854 474.037 957.34 487.146 957.301 497.896L957.162 548.242C957.133 558.961 949.608 563.321 940.361 557.926L928.369 550.82L928.389 542.757L940.381 549.864C945.811 553.039 950.228 550.491 950.247 544.2L950.385 493.855C950.404 487.565 946.017 479.87 940.587 476.705L928.595 469.598L928.615 461.535L940.616 468.643Z" fill="url(#paint46_linear_5075_7641)"/>
<path d="M949.639 463.27H949.649C952.276 464.794 954.753 466.944 956.96 469.497C959.578 472.526 961.812 476.088 963.439 479.819C965.281 484.026 966.356 488.448 966.338 492.516L966.197 542.863C966.188 548.202 964.318 551.951 961.307 553.728L952.332 559.066C952.313 559.076 952.294 559.085 952.276 559.104L952.332 559.066C955.305 557.281 957.147 553.531 957.166 548.239L957.297 497.892V497.798C957.306 493.759 956.231 489.374 954.407 485.195C952.771 481.455 950.546 477.893 947.928 474.873C945.722 472.32 943.235 470.17 940.617 468.646L928.621 461.54L937.662 456.164L949.639 463.27Z" fill="#FF0000"/>
<path d="M949.639 463.27H949.649C952.276 464.794 954.753 466.944 956.96 469.497C959.578 472.526 961.812 476.088 963.439 479.819C965.281 484.026 966.356 488.448 966.338 492.516L966.197 542.863C966.188 548.202 964.318 551.951 961.307 553.728L952.332 559.066C952.313 559.076 952.294 559.085 952.276 559.104L952.332 559.066C955.305 557.281 957.147 553.531 957.166 548.239L957.297 497.892V497.798C957.306 493.759 956.231 489.374 954.407 485.195C952.771 481.455 950.546 477.893 947.928 474.873C945.722 472.32 943.235 470.17 940.617 468.646L928.621 461.54L937.662 456.164L949.639 463.27Z" fill="url(#paint47_linear_5075_7641)"/>
<g opacity="0.2">
<path fill-rule="evenodd" clip-rule="evenodd" d="M33.6582 421.303L485.804 157.168L920.192 412.591L932.579 405.354L947.352 414.038L947.351 414.039L947.421 461.953L949.642 463.271H949.652C952.279 464.795 954.757 466.945 956.963 469.498C959.581 472.527 961.816 476.089 963.442 479.82C965.284 484.027 966.359 488.449 966.341 492.516L966.201 542.864C966.191 548.203 964.321 551.952 961.311 553.729L952.335 559.067C955.308 557.282 957.15 553.532 957.169 548.24L957.178 544.765L957.173 544.768L957.164 548.242C957.143 555.975 953.221 560.398 947.566 560.238L947.575 566.693L474.884 842.837L474.883 842.837V842.836L460.112 834.153L460.082 813.743L33.8379 563.16L33.6582 421.303ZM957.178 544.762L957.259 513.386L957.173 544.764L957.178 544.762ZM957.278 496.749C957.19 494.692 956.836 492.56 956.258 490.422C956.834 492.557 957.187 494.689 957.278 496.749ZM948.704 475.795C948.45 475.482 948.193 475.175 947.931 474.874C947.769 474.686 947.605 474.5 947.439 474.316V474.319C947.871 474.796 948.293 475.289 948.704 475.795ZM947.539 542.36L947.453 483.974C949.272 487.113 950.396 490.665 950.386 493.855L950.249 543.966L947.539 542.36ZM468.091 676.426L468.329 676.565L468.091 676.704L468.091 676.426Z" fill="black"/>
<path d="M952.335 559.067L952.279 559.105C952.286 559.098 952.293 559.092 952.3 559.087C952.312 559.079 952.323 559.073 952.335 559.067Z" fill="black"/>
</g>
<defs>
<linearGradient id="paint0_linear_5075_7641" x1="33.6543" y1="621.714" x2="474.37" y2="621.714" gradientUnits="userSpaceOnUse">
<stop stop-color="#020202" stop-opacity="0.2"/>
<stop offset="1" stop-color="#020202" stop-opacity="0"/>
</linearGradient>
<linearGradient id="paint1_linear_5075_7641" x1="33.6543" y1="416.706" x2="919.634" y2="416.706" gradientUnits="userSpaceOnUse">
<stop stop-color="#020202" stop-opacity="0"/>
<stop offset="1" stop-color="#020202" stop-opacity="0.2"/>
</linearGradient>
<linearGradient id="paint2_linear_5075_7641" x1="459.883" y1="729.183" x2="57.2539" y2="531.383" gradientUnits="userSpaceOnUse">
<stop stop-color="#020202" stop-opacity="0.4"/>
<stop offset="0.615" stop-color="#020202" stop-opacity="0.5"/>
</linearGradient>
<linearGradient id="paint3_linear_5075_7641" x1="57.2539" y1="531.385" x2="459.883" y2="729.185" gradientUnits="userSpaceOnUse">
<stop stop-color="#020202" stop-opacity="0"/>
<stop offset="1" stop-color="#020202" stop-opacity="0.2"/>
</linearGradient>
<linearGradient id="paint4_linear_5075_7641" x1="459.885" y1="842.836" x2="459.885" y2="842.836" gradientUnits="userSpaceOnUse">
<stop stop-color="#020202" stop-opacity="0.6"/>
<stop offset="1" stop-color="#020202" stop-opacity="0.5"/>
</linearGradient>
<linearGradient id="paint5_linear_5075_7641" x1="459.885" y1="547.765" x2="947.349" y2="547.765" gradientUnits="userSpaceOnUse">
<stop stop-color="#020202" stop-opacity="0.4"/>
<stop offset="1" stop-color="#020202" stop-opacity="0.5"/>
</linearGradient>
<linearGradient id="paint6_linear_5075_7641" x1="474.654" y1="628.438" x2="947.572" y2="628.438" gradientUnits="userSpaceOnUse">
<stop stop-color="#020202" stop-opacity="0.6"/>
<stop offset="1" stop-color="#020202" stop-opacity="0.5"/>
</linearGradient>
<linearGradient id="paint7_linear_5075_7641" x1="697.166" y1="572.348" x2="913.544" y2="572.348" gradientUnits="userSpaceOnUse">
<stop stop-color="#FEFEFE" stop-opacity="0.3"/>
<stop offset="1" stop-color="#FEFEFE" stop-opacity="0"/>
</linearGradient>
<linearGradient id="paint8_linear_5075_7641" x1="783.14" y1="408.333" x2="291.149" y2="503.392" gradientUnits="userSpaceOnUse">
<stop stop-color="#020202" stop-opacity="0.3"/>
<stop offset="1" stop-color="#020202" stop-opacity="0.2"/>
</linearGradient>
<linearGradient id="paint9_linear_5075_7641" x1="170.706" y1="343.752" x2="529.655" y2="343.752" gradientUnits="userSpaceOnUse">
<stop stop-color="#020202" stop-opacity="0.2"/>
<stop offset="1" stop-color="#020202" stop-opacity="0.3"/>
</linearGradient>
<linearGradient id="paint10_linear_5075_7641" x1="424.192" y1="485.848" x2="783" y2="485.848" gradientUnits="userSpaceOnUse">
<stop stop-color="#020202" stop-opacity="0.2"/>
<stop offset="0.405" stop-color="#020202" stop-opacity="0.05"/>
</linearGradient>
<linearGradient id="paint11_linear_5075_7641" x1="170.779" y1="366.971" x2="529.656" y2="366.971" gradientUnits="userSpaceOnUse">
<stop stop-color="#020202" stop-opacity="0.2"/>
<stop offset="0.56" stop-color="#020202" stop-opacity="0.05"/>
</linearGradient>
<linearGradient id="paint12_linear_5075_7641" x1="544.014" y1="670.089" x2="644.715" y2="670.089" gradientUnits="userSpaceOnUse">
<stop stop-color="#020202" stop-opacity="0.8"/>
<stop offset="1" stop-color="#020202" stop-opacity="0.7"/>
</linearGradient>
<linearGradient id="paint13_linear_5075_7641" x1="544.035" y1="689.362" x2="644.695" y2="689.362" gradientUnits="userSpaceOnUse">
<stop stop-color="#020202" stop-opacity="0.2"/>
<stop offset="1" stop-color="#020202" stop-opacity="0"/>
</linearGradient>
<linearGradient id="paint14_linear_5075_7641" x1="544.039" y1="700.63" x2="547.413" y2="700.63" gradientUnits="userSpaceOnUse">
<stop stop-color="#020202" stop-opacity="0.9"/>
<stop offset="1" stop-color="#020202" stop-opacity="0.9"/>
</linearGradient>
<linearGradient id="paint15_linear_5075_7641" x1="563.326" y1="687.781" x2="569.802" y2="687.781" gradientUnits="userSpaceOnUse">
<stop stop-color="#020202" stop-opacity="0.9"/>
<stop offset="1" stop-color="#020202" stop-opacity="0.9"/>
</linearGradient>
<linearGradient id="paint16_linear_5075_7641" x1="585.674" y1="674.761" x2="592.149" y2="674.761" gradientUnits="userSpaceOnUse">
<stop stop-color="#020202" stop-opacity="0.9"/>
<stop offset="1" stop-color="#020202" stop-opacity="0.9"/>
</linearGradient>
<linearGradient id="paint17_linear_5075_7641" x1="563.326" y1="671.819" x2="569.802" y2="671.819" gradientUnits="userSpaceOnUse">
<stop stop-color="#020202" stop-opacity="0.9"/>
<stop offset="1" stop-color="#020202" stop-opacity="0.9"/>
</linearGradient>
<linearGradient id="paint18_linear_5075_7641" x1="608.016" y1="661.656" x2="614.491" y2="661.656" gradientUnits="userSpaceOnUse">
<stop stop-color="#020202" stop-opacity="0.9"/>
<stop offset="1" stop-color="#020202" stop-opacity="0.9"/>
</linearGradient>
<linearGradient id="paint19_linear_5075_7641" x1="585.674" y1="658.785" x2="592.149" y2="658.785" gradientUnits="userSpaceOnUse">
<stop stop-color="#020202" stop-opacity="0.9"/>
<stop offset="1" stop-color="#020202" stop-opacity="0.9"/>
</linearGradient>
<linearGradient id="paint20_linear_5075_7641" x1="630.406" y1="648.61" x2="636.881" y2="648.61" gradientUnits="userSpaceOnUse">
<stop stop-color="#020202" stop-opacity="0.9"/>
<stop offset="1" stop-color="#020202" stop-opacity="0.9"/>
</linearGradient>
<linearGradient id="paint21_linear_5075_7641" x1="608.062" y1="645.706" x2="614.538" y2="645.706" gradientUnits="userSpaceOnUse">
<stop stop-color="#020202" stop-opacity="0.9"/>
<stop offset="1" stop-color="#020202" stop-opacity="0.9"/>
</linearGradient>
<linearGradient id="paint22_linear_5075_7641" x1="630.406" y1="632.647" x2="636.881" y2="632.647" gradientUnits="userSpaceOnUse">
<stop stop-color="#020202" stop-opacity="0.9"/>
<stop offset="1" stop-color="#020202" stop-opacity="0.9"/>
</linearGradient>
<linearGradient id="paint23_linear_5075_7641" x1="569.867" y1="646.503" x2="586.838" y2="646.503" gradientUnits="userSpaceOnUse">
<stop stop-color="#020202" stop-opacity="0.9"/>
<stop offset="1" stop-color="#020202" stop-opacity="0.9"/>
</linearGradient>
<linearGradient id="paint24_linear_5075_7641" x1="578.352" y1="640.398" x2="578.352" y2="652.598" gradientUnits="userSpaceOnUse">
<stop stop-color="#FEFEFE" stop-opacity="0.3"/>
<stop offset="1" stop-color="#FEFEFE" stop-opacity="0.3"/>
</linearGradient>
<linearGradient id="paint25_linear_5075_7641" x1="601.891" y1="627.8" x2="618.861" y2="627.8" gradientUnits="userSpaceOnUse">
<stop stop-color="#020202" stop-opacity="0.9"/>
<stop offset="1" stop-color="#020202" stop-opacity="0.9"/>
</linearGradient>
<linearGradient id="paint26_linear_5075_7641" x1="610.354" y1="621.699" x2="610.354" y2="633.908" gradientUnits="userSpaceOnUse">
<stop stop-color="#FEFEFE" stop-opacity="0.1"/>
<stop offset="1" stop-color="#FEFEFE" stop-opacity="0.1"/>
</linearGradient>
<linearGradient id="paint27_linear_5075_7641" x1="544.014" y1="720.135" x2="644.715" y2="720.135" gradientUnits="userSpaceOnUse">
<stop stop-color="#020202" stop-opacity="0.8"/>
<stop offset="1" stop-color="#020202" stop-opacity="0.7"/>
</linearGradient>
<linearGradient id="paint28_linear_5075_7641" x1="544.039" y1="750.677" x2="547.413" y2="750.677" gradientUnits="userSpaceOnUse">
<stop stop-color="#020202" stop-opacity="0.9"/>
<stop offset="1" stop-color="#020202" stop-opacity="0.9"/>
</linearGradient>
<linearGradient id="paint29_linear_5075_7641" x1="563.326" y1="737.832" x2="569.802" y2="737.832" gradientUnits="userSpaceOnUse">
<stop stop-color="#020202" stop-opacity="0.9"/>
<stop offset="1" stop-color="#020202" stop-opacity="0.9"/>
</linearGradient>
<linearGradient id="paint30_linear_5075_7641" x1="585.674" y1="724.808" x2="592.149" y2="724.808" gradientUnits="userSpaceOnUse">
<stop stop-color="#020202" stop-opacity="0.9"/>
<stop offset="1" stop-color="#020202" stop-opacity="0.9"/>
</linearGradient>
<linearGradient id="paint31_linear_5075_7641" x1="563.326" y1="721.87" x2="569.802" y2="721.87" gradientUnits="userSpaceOnUse">
<stop stop-color="#020202" stop-opacity="0.9"/>
<stop offset="1" stop-color="#020202" stop-opacity="0.9"/>
</linearGradient>
<linearGradient id="paint32_linear_5075_7641" x1="608.016" y1="711.702" x2="614.491" y2="711.702" gradientUnits="userSpaceOnUse">
<stop stop-color="#020202" stop-opacity="0.9"/>
<stop offset="1" stop-color="#020202" stop-opacity="0.9"/>
</linearGradient>
<linearGradient id="paint33_linear_5075_7641" x1="585.674" y1="708.835" x2="592.149" y2="708.835" gradientUnits="userSpaceOnUse">
<stop stop-color="#020202" stop-opacity="0.9"/>
<stop offset="1" stop-color="#020202" stop-opacity="0.9"/>
</linearGradient>
<linearGradient id="paint34_linear_5075_7641" x1="630.406" y1="698.66" x2="636.881" y2="698.66" gradientUnits="userSpaceOnUse">
<stop stop-color="#020202" stop-opacity="0.9"/>
<stop offset="1" stop-color="#020202" stop-opacity="0.9"/>
</linearGradient>
<linearGradient id="paint35_linear_5075_7641" x1="608.062" y1="695.757" x2="614.538" y2="695.757" gradientUnits="userSpaceOnUse">
<stop stop-color="#020202" stop-opacity="0.9"/>
<stop offset="1" stop-color="#020202" stop-opacity="0.9"/>
</linearGradient>
<linearGradient id="paint36_linear_5075_7641" x1="630.406" y1="682.694" x2="636.881" y2="682.694" gradientUnits="userSpaceOnUse">
<stop stop-color="#020202" stop-opacity="0.9"/>
<stop offset="1" stop-color="#020202" stop-opacity="0.9"/>
</linearGradient>
<linearGradient id="paint37_linear_5075_7641" x1="544.035" y1="739.405" x2="644.695" y2="739.405" gradientUnits="userSpaceOnUse">
<stop stop-color="#020202" stop-opacity="0.2"/>
<stop offset="1" stop-color="#020202" stop-opacity="0"/>
</linearGradient>
<linearGradient id="paint38_linear_5075_7641" x1="569.867" y1="763.89" x2="586.838" y2="763.89" gradientUnits="userSpaceOnUse">
<stop stop-color="#020202" stop-opacity="0.9"/>
<stop offset="1" stop-color="#020202" stop-opacity="0.9"/>
</linearGradient>
<linearGradient id="paint39_linear_5075_7641" x1="578.352" y1="757.789" x2="578.352" y2="769.989" gradientUnits="userSpaceOnUse">
<stop stop-color="#FEFEFE" stop-opacity="0.3"/>
<stop offset="1" stop-color="#FEFEFE" stop-opacity="0.3"/>
</linearGradient>
<linearGradient id="paint40_linear_5075_7641" x1="601.891" y1="745.187" x2="618.861" y2="745.187" gradientUnits="userSpaceOnUse">
<stop stop-color="#020202" stop-opacity="0.9"/>
<stop offset="1" stop-color="#020202" stop-opacity="0.9"/>
</linearGradient>
<linearGradient id="paint41_linear_5075_7641" x1="610.354" y1="739.082" x2="610.354" y2="751.291" gradientUnits="userSpaceOnUse">
<stop stop-color="#FEFEFE" stop-opacity="0.1"/>
<stop offset="1" stop-color="#FEFEFE" stop-opacity="0.1"/>
</linearGradient>
<linearGradient id="paint42_linear_5075_7641" x1="488.525" y1="798.023" x2="512.653" y2="799.486" gradientUnits="userSpaceOnUse">
<stop stop-color="#020202" stop-opacity="0"/>
<stop offset="1" stop-color="#020202" stop-opacity="0.2"/>
</linearGradient>
<linearGradient id="paint43_linear_5075_7641" x1="488.496" y1="764.849" x2="517.428" y2="764.849" gradientUnits="userSpaceOnUse">
<stop stop-color="#020202" stop-opacity="0.2"/>
<stop offset="1" stop-color="#020202" stop-opacity="0"/>
</linearGradient>
<linearGradient id="paint44_linear_5075_7641" x1="526.465" y1="768.817" x2="490.407" y2="761.263" gradientUnits="userSpaceOnUse">
<stop stop-color="#020202" stop-opacity="0.2"/>
<stop offset="1" stop-color="#020202" stop-opacity="0"/>
</linearGradient>
<linearGradient id="paint45_linear_5075_7641" x1="928.398" y1="544.062" x2="952.525" y2="545.525" gradientUnits="userSpaceOnUse">
<stop stop-color="#020202" stop-opacity="0"/>
<stop offset="1" stop-color="#020202" stop-opacity="0.2"/>
</linearGradient>
<linearGradient id="paint46_linear_5075_7641" x1="928.369" y1="510.888" x2="957.301" y2="510.888" gradientUnits="userSpaceOnUse">
<stop stop-color="#020202" stop-opacity="0.2"/>
<stop offset="1" stop-color="#020202" stop-opacity="0"/>
</linearGradient>
<linearGradient id="paint47_linear_5075_7641" x1="966.338" y1="514.852" x2="930.28" y2="507.298" gradientUnits="userSpaceOnUse">
<stop stop-color="#020202" stop-opacity="0.2"/>
<stop offset="1" stop-color="#020202" stop-opacity="0"/>
</linearGradient>
</defs>
</svg>
