<svg width="1000" height="1000" viewBox="0 0 1000 1000" fill="none" xmlns="http://www.w3.org/2000/svg">
<path d="M90.925 459.196L63.9157 443.602C52.2499 436.867 45.0635 424.42 45.0635 410.949V222.427C45.0635 208.956 52.2499 196.509 63.9157 189.774L100.197 168.827C111.863 162.092 126.235 162.092 137.901 168.827L208.329 209.488V128.722C208.326 128.533 208.325 128.344 208.325 128.155C208.329 114.688 215.514 102.246 227.177 95.5127L263.458 74.5658C275.124 67.8305 289.497 67.8305 301.162 74.5658L333.935 93.4871C354.994 76.6008 376.911 61.4331 399.515 48.3824C494.011 -6.17451 588.428 -16.0548 661.654 26.2227L838.053 128.066C914.455 169.097 954.936 257.363 954.936 369.055C954.936 372.604 954.896 376.162 954.817 379.726C954.897 383.124 954.937 386.549 954.937 390.001C954.937 397.248 954.761 404.533 954.413 411.834C954.762 418.405 954.937 425.094 954.937 431.897C954.937 523.945 922.876 623.339 872.844 709.999C806.535 821.333 727.931 895.508 672.945 920.121L655.395 929.73C649.253 933.676 643.039 937.468 636.766 941.09C633.778 942.815 630.793 944.493 627.811 946.121C624.763 947.974 621.7 949.788 618.624 951.564C521.904 1007.41 425.23 1016.48 351.497 970.844L175.081 868.99C101.855 826.713 63.2038 740.005 63.2038 630.892C63.2038 574.835 73.2446 516.493 90.925 459.196Z" fill="black"/>
<path d="M599.773 918.91C775.102 817.684 917.233 571.505 917.233 369.053C917.233 166.601 775.102 84.5419 599.773 185.768C424.446 286.994 282.313 533.173 282.313 735.625C282.313 938.077 424.446 1020.14 599.773 918.91Z" fill="url(#paint0_linear_5075_8460)"/>
<path d="M654.194 887.491C799.465 803.619 917.232 599.641 917.232 431.896C917.232 264.15 799.465 196.157 654.194 280.031C508.922 363.903 391.155 567.88 391.155 735.626C391.155 903.372 508.922 971.364 654.194 887.491Z" fill="#FF0000"/>
<path d="M654.194 887.491C799.465 803.619 917.232 599.641 917.232 431.896C917.232 264.15 799.465 196.157 654.194 280.031C508.922 363.903 391.155 567.88 391.155 735.626C391.155 903.372 508.922 971.364 654.194 887.491Z" fill="url(#paint1_linear_5075_8460)"/>
<path fill-rule="evenodd" clip-rule="evenodd" d="M608.842 735.627L599.772 751.337V835.125L608.842 798.468V735.627Z" fill="#FF0000"/>
<path fill-rule="evenodd" clip-rule="evenodd" d="M608.842 735.627L599.772 751.337V835.125L608.842 798.468V735.627Z" fill="url(#paint2_linear_5075_8460)"/>
<path fill-rule="evenodd" clip-rule="evenodd" d="M608.847 735.626C608.847 712.503 625.104 684.345 645.128 672.785C665.152 661.224 681.409 670.61 681.409 693.732V756.573L608.847 798.466V735.626Z" fill="#FF0000"/>
<path fill-rule="evenodd" clip-rule="evenodd" d="M608.847 735.626C608.847 712.503 625.104 684.345 645.128 672.785C665.152 661.224 681.409 670.61 681.409 693.732V756.573L608.847 798.466V735.626Z" fill="url(#paint3_linear_5075_8460)"/>
<path fill-rule="evenodd" clip-rule="evenodd" d="M608.842 735.625L599.772 751.335C599.772 716.652 624.158 674.415 654.194 657.074C684.229 639.733 708.616 653.811 708.616 688.494L681.405 693.731C681.405 670.609 665.148 661.223 645.124 672.784C625.099 684.344 608.842 712.502 608.842 735.625Z" fill="#FF0000"/>
<path fill-rule="evenodd" clip-rule="evenodd" d="M608.842 735.625L599.772 751.335C599.772 716.652 624.158 674.415 654.194 657.074C684.229 639.733 708.616 653.811 708.616 688.494L681.405 693.731C681.405 670.609 665.148 661.223 645.124 672.784C625.099 684.344 608.842 712.502 608.842 735.625Z" fill="url(#paint4_radial_5075_8460)"/>
<path fill-rule="evenodd" clip-rule="evenodd" d="M681.405 693.731L708.616 688.494V772.282L681.405 756.572V693.731Z" fill="#FF0000"/>
<path fill-rule="evenodd" clip-rule="evenodd" d="M681.405 693.731L708.616 688.494V772.282L681.405 756.572V693.731Z" fill="url(#paint5_linear_5075_8460)"/>
<path d="M218.823 300.977L82.7686 222.426V410.948L218.823 489.499V300.977Z" fill="#FF0000"/>
<path d="M218.823 300.977L82.7686 222.426V410.948L218.823 489.499V300.977Z" fill="url(#paint6_linear_5075_8460)"/>
<path d="M318.594 170.058L246.032 128.164V243.371L318.594 285.265V170.058Z" fill="#FF0000"/>
<path d="M318.594 170.058L246.032 128.164V243.371L318.594 285.265V170.058Z" fill="url(#paint7_linear_5075_8460)"/>
<path d="M581.634 468.551L545.353 489.498V678.02L581.634 657.073V468.551Z" fill="#FF0000"/>
<path d="M581.634 468.551L545.353 489.498V678.02L581.634 657.073V468.551Z" fill="url(#paint8_linear_5075_8460)"/>
<path fill-rule="evenodd" clip-rule="evenodd" d="M581.634 657.072L545.413 636.16L545.353 678.019L581.634 657.072Z" fill="#FF0000"/>
<path fill-rule="evenodd" clip-rule="evenodd" d="M581.634 657.072L545.413 636.16L545.353 678.019L581.634 657.072Z" fill="url(#paint9_linear_5075_8460)"/>
<path fill-rule="evenodd" clip-rule="evenodd" d="M536.282 484.261L545.352 489.498L581.633 468.551L608.844 442.367L536.282 484.261Z" fill="#FF0000"/>
<path fill-rule="evenodd" clip-rule="evenodd" d="M536.282 484.261L545.352 489.498L581.633 468.551L608.844 442.367L536.282 484.261Z" fill="url(#paint10_linear_5075_8460)"/>
<path fill-rule="evenodd" clip-rule="evenodd" d="M581.632 657.073V468.551L608.843 442.367V672.783L581.632 657.073Z" fill="#FF0000"/>
<path fill-rule="evenodd" clip-rule="evenodd" d="M581.632 657.073V468.551L608.843 442.367V672.783L581.632 657.073Z" fill="url(#paint11_linear_5075_8460)"/>
<path fill-rule="evenodd" clip-rule="evenodd" d="M545.352 678.019L581.633 657.072L608.844 672.782L536.282 714.676L545.352 678.019Z" fill="#FF0000"/>
<path fill-rule="evenodd" clip-rule="evenodd" d="M545.352 678.019L581.633 657.072L608.844 672.782L536.282 714.676L545.352 678.019Z" fill="url(#paint12_linear_5075_8460)"/>
<path fill-rule="evenodd" clip-rule="evenodd" d="M536.282 484.264L545.352 489.5V678.023L536.282 714.68V484.264Z" fill="#FF0000"/>
<path fill-rule="evenodd" clip-rule="evenodd" d="M536.282 484.264L545.352 489.5V678.023L536.282 714.68V484.264Z" fill="url(#paint13_linear_5075_8460)"/>
<path d="M744.895 374.291L708.614 395.238V583.76L744.895 562.813V374.291Z" fill="#FF0000"/>
<path d="M744.895 374.291L708.614 395.238V583.76L744.895 562.813V374.291Z" fill="url(#paint14_linear_5075_8460)"/>
<path fill-rule="evenodd" clip-rule="evenodd" d="M744.895 562.815L708.675 541.902L708.614 583.762L744.895 562.815Z" fill="#FF0000"/>
<path fill-rule="evenodd" clip-rule="evenodd" d="M744.895 562.815L708.675 541.902L708.614 583.762L744.895 562.815Z" fill="url(#paint15_linear_5075_8460)"/>
<path fill-rule="evenodd" clip-rule="evenodd" d="M699.55 389.999L708.62 395.236L744.901 374.289L772.112 348.105L699.55 389.999Z" fill="#FF0000"/>
<path fill-rule="evenodd" clip-rule="evenodd" d="M699.55 389.999L708.62 395.236L744.901 374.289L772.112 348.105L699.55 389.999Z" fill="url(#paint16_linear_5075_8460)"/>
<path fill-rule="evenodd" clip-rule="evenodd" d="M744.896 562.811V374.289L772.107 348.105V578.522L744.896 562.811Z" fill="#FF0000"/>
<path fill-rule="evenodd" clip-rule="evenodd" d="M744.896 562.811V374.289L772.107 348.105V578.522L744.896 562.811Z" fill="url(#paint17_linear_5075_8460)"/>
<path fill-rule="evenodd" clip-rule="evenodd" d="M708.62 583.759L744.901 562.812L772.112 578.523L699.55 620.417L708.62 583.759Z" fill="#FF0000"/>
<path fill-rule="evenodd" clip-rule="evenodd" d="M708.62 583.759L744.901 562.812L772.112 578.523L699.55 620.417L708.62 583.759Z" fill="url(#paint18_linear_5075_8460)"/>
<path fill-rule="evenodd" clip-rule="evenodd" d="M699.55 390L708.62 395.237V583.759L699.55 620.416V390Z" fill="#FF0000"/>
<path fill-rule="evenodd" clip-rule="evenodd" d="M699.55 390L708.62 395.237V583.759L699.55 620.416V390Z" fill="url(#paint19_linear_5075_8460)"/>
<path d="M282.313 107.219L246.032 128.166L318.594 170.06L354.876 149.113L282.313 107.219Z" fill="#FF0000"/>
<path d="M282.313 107.219L246.032 128.166L318.594 170.06L354.876 149.113L282.313 107.219Z" fill="url(#paint20_linear_5075_8460)"/>
<path d="M119.05 201.479L82.7686 222.425L218.823 300.975L255.104 280.028L119.05 201.479Z" fill="#FF0000"/>
<path d="M119.05 201.479L82.7686 222.425L218.823 300.975L255.104 280.028L119.05 201.479Z" fill="url(#paint21_linear_5075_8460)"/>
<path fill-rule="evenodd" clip-rule="evenodd" d="M636.638 896.958C630.455 900.97 624.206 904.802 617.912 908.437C452.713 1003.81 318.593 926.38 318.593 735.625C318.593 544.869 452.713 312.566 617.912 217.188C783.111 121.811 917.231 199.245 917.231 390.001C917.231 397.268 917.037 404.596 916.654 411.958C907.616 258.986 793.473 199.615 654.193 280.029C509.018 363.846 391.155 567.992 391.155 735.625C391.155 896.452 499.642 965.617 636.638 896.958Z" fill="#FF0000"/>
<path fill-rule="evenodd" clip-rule="evenodd" d="M636.638 896.958C630.455 900.97 624.206 904.802 617.912 908.437C452.713 1003.81 318.593 926.38 318.593 735.625C318.593 544.869 452.713 312.566 617.912 217.188C783.111 121.811 917.231 199.245 917.231 390.001C917.231 397.268 917.037 404.596 916.654 411.958C907.616 258.986 793.473 199.615 654.193 280.029C509.018 363.846 391.155 567.992 391.155 735.625C391.155 896.452 499.642 965.617 636.638 896.958Z" fill="url(#paint22_linear_5075_8460)"/>
<path fill-rule="evenodd" clip-rule="evenodd" d="M375.34 941.071L193.934 836.336C136.471 803.159 100.909 732.049 100.909 630.891C100.909 428.575 243.158 182.192 418.368 81.034C505.974 30.4546 585.339 25.6975 642.803 58.8743L824.208 163.609C766.745 130.432 687.38 135.189 599.775 185.769C424.563 286.927 282.315 533.309 282.315 735.625C282.315 836.783 317.876 907.894 375.34 941.071Z" fill="#FF0000"/>
<path fill-rule="evenodd" clip-rule="evenodd" d="M375.34 941.071L193.934 836.336C136.471 803.159 100.909 732.049 100.909 630.891C100.909 428.575 243.158 182.192 418.368 81.034C505.974 30.4546 585.339 25.6975 642.803 58.8743L824.208 163.609C766.745 130.432 687.38 135.189 599.775 185.769C424.563 286.927 282.315 533.309 282.315 735.625C282.315 836.783 317.876 907.894 375.34 941.071Z" fill="url(#paint23_linear_5075_8460)"/>
<path fill-rule="evenodd" clip-rule="evenodd" d="M599.772 835.123L608.842 798.466L681.405 756.572L708.616 772.282L599.772 835.123Z" fill="#FF0000"/>
<path fill-rule="evenodd" clip-rule="evenodd" d="M599.772 835.123L608.842 798.466L681.405 756.572L708.616 772.282L599.772 835.123Z" fill="url(#paint24_linear_5075_8460)"/>
<path fill-rule="evenodd" clip-rule="evenodd" d="M612.052 716.531L681.405 756.572L608.843 798.466V735.625C608.843 729.482 609.991 722.983 612.052 716.531Z" fill="#FF0000"/>
<path fill-rule="evenodd" clip-rule="evenodd" d="M612.052 716.531L681.405 756.572L608.843 798.466V735.625C608.843 729.482 609.991 722.983 612.052 716.531Z" fill="url(#paint25_linear_5075_8460)"/>
<path fill-rule="evenodd" clip-rule="evenodd" d="M191.612 620.463C221.647 637.804 246.034 680.041 246.034 714.724C246.034 749.406 221.647 763.485 191.612 746.144C161.576 728.802 137.19 686.565 137.19 651.883C137.19 617.2 161.576 603.121 191.612 620.463ZM191.612 623.605C220.147 640.079 243.313 680.203 243.313 713.153C243.313 746.101 220.147 759.476 191.612 743.002C163.078 726.528 139.911 686.403 139.911 653.454C139.911 620.505 163.078 607.13 191.612 623.605Z" fill="#FF0000"/>
<path fill-rule="evenodd" clip-rule="evenodd" d="M191.612 620.463C221.647 637.804 246.034 680.041 246.034 714.724C246.034 749.406 221.647 763.485 191.612 746.144C161.576 728.802 137.19 686.565 137.19 651.883C137.19 617.2 161.576 603.121 191.612 620.463ZM191.612 623.605C220.147 640.079 243.313 680.203 243.313 713.153C243.313 746.101 220.147 759.476 191.612 743.002C163.078 726.528 139.911 686.403 139.911 653.454C139.911 620.505 163.078 607.13 191.612 623.605Z" fill="url(#paint26_linear_5075_8460)"/>
<path fill-rule="evenodd" clip-rule="evenodd" d="M194.634 653.588C194.634 651.659 193.28 649.314 191.611 648.351C189.941 647.386 188.587 648.168 188.587 650.096V681.516C188.587 683.444 189.941 685.789 191.611 686.753C193.28 687.717 194.634 686.936 194.634 685.008V653.588ZM181.359 655.958C182.819 655.866 183.346 654.044 182.535 651.891C181.726 649.736 179.884 648.066 178.424 648.158C170.068 648.688 164.399 655.717 164.399 667.552C164.399 684.905 176.582 706.006 191.611 714.682C206.639 723.359 218.822 716.326 218.822 698.972C218.822 687.338 213.344 674.022 205.218 663.904C203.773 662.104 201.924 661.606 201.087 662.793C200.251 663.978 200.745 666.4 202.191 668.199C208.524 676.087 212.774 686.44 212.774 695.481C212.774 708.977 203.299 714.449 191.611 707.7C179.922 700.952 170.447 684.54 170.447 671.043C170.447 661.847 174.845 656.37 181.359 655.958Z" fill="#FF0000"/>
<path fill-rule="evenodd" clip-rule="evenodd" d="M194.634 653.588C194.634 651.659 193.28 649.314 191.611 648.351C189.941 647.386 188.587 648.168 188.587 650.096V681.516C188.587 683.444 189.941 685.789 191.611 686.753C193.28 687.717 194.634 686.936 194.634 685.008V653.588ZM181.359 655.958C182.819 655.866 183.346 654.044 182.535 651.891C181.726 649.736 179.884 648.066 178.424 648.158C170.068 648.688 164.399 655.717 164.399 667.552C164.399 684.905 176.582 706.006 191.611 714.682C206.639 723.359 218.822 716.326 218.822 698.972C218.822 687.338 213.344 674.022 205.218 663.904C203.773 662.104 201.924 661.606 201.087 662.793C200.251 663.978 200.745 666.4 202.191 668.199C208.524 676.087 212.774 686.44 212.774 695.481C212.774 708.977 203.299 714.449 191.611 707.7C179.922 700.952 170.447 684.54 170.447 671.043C170.447 661.847 174.845 656.37 181.359 655.958Z" fill="url(#paint27_linear_5075_8460)"/>
<path opacity="0.2" fill-rule="evenodd" clip-rule="evenodd" d="M193.934 836.338L370.879 938.497C428.641 974.534 509.84 970.835 599.773 918.912C602.851 917.134 605.919 915.312 608.977 913.446C611.945 911.833 614.925 910.164 617.914 908.438C624.202 904.808 630.443 900.98 636.62 896.973C642.429 894.061 648.289 890.902 654.196 887.493C799.467 803.62 917.233 599.642 917.233 431.897C917.233 425.083 917.039 418.433 916.656 411.952C917.04 404.593 917.233 397.267 917.233 390.002C917.233 386.548 917.189 383.132 917.102 379.753C917.189 376.174 917.233 372.608 917.233 369.055C917.233 265.2 879.83 193.027 819.731 161.026L642.803 58.8762C585.339 25.6995 505.974 30.4565 418.368 81.036C390.59 97.0736 363.64 116.762 337.955 139.345L282.311 107.219L246.03 128.166L246.034 128.169V239.269C239.845 247.474 233.804 255.836 227.921 264.337L119.05 201.48L82.7686 222.427V410.95L136.403 441.915C113.725 505.465 100.909 570.164 100.909 630.893C100.909 732.051 136.47 803.161 193.934 836.338Z" fill="black"/>
<defs>
<linearGradient id="paint0_linear_5075_8460" x1="339.596" y1="1048.15" x2="598.406" y2="-487.649" gradientUnits="userSpaceOnUse">
<stop stop-color="#FEC309"/>
<stop offset="0.2" stop-color="#29C732"/>
<stop offset="0.4" stop-color="#0A60FF"/>
<stop offset="0.6" stop-color="#9D33D6"/>
<stop offset="0.8" stop-color="#FC2125"/>
<stop offset="1" stop-color="#FD8208"/>
</linearGradient>
<linearGradient id="paint1_linear_5075_8460" x1="829.736" y1="256.288" x2="454.647" y2="905.96" gradientUnits="userSpaceOnUse">
<stop stop-color="#020202" stop-opacity="0"/>
<stop offset="1" stop-color="#020202" stop-opacity="0.2"/>
</linearGradient>
<linearGradient id="paint2_linear_5075_8460" x1="608.842" y1="735.627" x2="665.881" y2="771.818" gradientUnits="userSpaceOnUse">
<stop stop-color="#020202" stop-opacity="0"/>
<stop offset="1" stop-color="#020202" stop-opacity="0.2"/>
</linearGradient>
<linearGradient id="paint3_linear_5075_8460" x1="660.713" y1="669.23" x2="576.109" y2="681.919" gradientUnits="userSpaceOnUse">
<stop stop-color="#020202" stop-opacity="0.7"/>
<stop offset="1" stop-color="#020202" stop-opacity="0.6"/>
</linearGradient>
<radialGradient id="paint4_radial_5075_8460" cx="0" cy="0" r="1" gradientUnits="userSpaceOnUse" gradientTransform="translate(649.927 703.394) scale(66.935 66.935)">
<stop stop-color="#020202" stop-opacity="0"/>
<stop offset="1" stop-color="#020202" stop-opacity="0.2"/>
</radialGradient>
<linearGradient id="paint5_linear_5075_8460" x1="708.616" y1="688.494" x2="725.315" y2="759.693" gradientUnits="userSpaceOnUse">
<stop stop-color="#020202" stop-opacity="0.2"/>
<stop offset="1" stop-color="#020202" stop-opacity="0"/>
</linearGradient>
<linearGradient id="paint6_linear_5075_8460" x1="82.7686" y1="410.948" x2="218.823" y2="444.613" gradientUnits="userSpaceOnUse">
<stop stop-color="#020202" stop-opacity="0.4"/>
<stop offset="1" stop-color="#020202" stop-opacity="0.2"/>
</linearGradient>
<linearGradient id="paint7_linear_5075_8460" x1="246.032" y1="239.059" x2="319.347" y2="255.507" gradientUnits="userSpaceOnUse">
<stop stop-color="#020202" stop-opacity="0.4"/>
<stop offset="1" stop-color="#020202" stop-opacity="0.2"/>
</linearGradient>
<linearGradient id="paint8_linear_5075_8460" x1="545.36" y1="473.095" x2="620.898" y2="657.13" gradientUnits="userSpaceOnUse">
<stop stop-color="#020202" stop-opacity="0.7"/>
<stop offset="1" stop-color="#020202" stop-opacity="0.6"/>
</linearGradient>
<linearGradient id="paint9_linear_5075_8460" x1="545.36" y1="637.068" x2="548.861" y2="679.754" gradientUnits="userSpaceOnUse">
<stop stop-color="#020202" stop-opacity="0.7"/>
<stop offset="1" stop-color="#020202" stop-opacity="0.6"/>
</linearGradient>
<linearGradient id="paint10_linear_5075_8460" x1="608.844" y1="455.221" x2="547.313" y2="429.169" gradientUnits="userSpaceOnUse">
<stop stop-color="#020202" stop-opacity="0"/>
<stop offset="1" stop-color="#020202" stop-opacity="0.2"/>
</linearGradient>
<linearGradient id="paint11_linear_5075_8460" x1="608.843" y1="442.367" x2="732.118" y2="564.877" gradientUnits="userSpaceOnUse">
<stop stop-color="#020202" stop-opacity="0.2"/>
<stop offset="1" stop-color="#020202" stop-opacity="0"/>
</linearGradient>
<linearGradient id="paint12_linear_5075_8460" x1="608.844" y1="672.782" x2="544.057" y2="650.339" gradientUnits="userSpaceOnUse">
<stop stop-color="#020202" stop-opacity="0.2"/>
<stop offset="1" stop-color="#020202" stop-opacity="0"/>
</linearGradient>
<linearGradient id="paint13_linear_5075_8460" x1="545.352" y1="484.264" x2="656.43" y2="501.644" gradientUnits="userSpaceOnUse">
<stop stop-color="#020202" stop-opacity="0"/>
<stop offset="1" stop-color="#020202" stop-opacity="0.2"/>
</linearGradient>
<linearGradient id="paint14_linear_5075_8460" x1="708.622" y1="378.835" x2="784.16" y2="562.871" gradientUnits="userSpaceOnUse">
<stop stop-color="#020202" stop-opacity="0.7"/>
<stop offset="1" stop-color="#020202" stop-opacity="0.6"/>
</linearGradient>
<linearGradient id="paint15_linear_5075_8460" x1="708.622" y1="542.81" x2="712.123" y2="585.496" gradientUnits="userSpaceOnUse">
<stop stop-color="#020202" stop-opacity="0.7"/>
<stop offset="1" stop-color="#020202" stop-opacity="0.6"/>
</linearGradient>
<linearGradient id="paint16_linear_5075_8460" x1="772.112" y1="360.96" x2="710.58" y2="334.907" gradientUnits="userSpaceOnUse">
<stop stop-color="#020202" stop-opacity="0"/>
<stop offset="1" stop-color="#020202" stop-opacity="0.2"/>
</linearGradient>
<linearGradient id="paint17_linear_5075_8460" x1="772.107" y1="348.105" x2="895.381" y2="470.616" gradientUnits="userSpaceOnUse">
<stop stop-color="#020202" stop-opacity="0.2"/>
<stop offset="1" stop-color="#020202" stop-opacity="0"/>
</linearGradient>
<linearGradient id="paint18_linear_5075_8460" x1="772.112" y1="578.523" x2="707.324" y2="556.079" gradientUnits="userSpaceOnUse">
<stop stop-color="#020202" stop-opacity="0.2"/>
<stop offset="1" stop-color="#020202" stop-opacity="0"/>
</linearGradient>
<linearGradient id="paint19_linear_5075_8460" x1="708.62" y1="390" x2="819.699" y2="407.381" gradientUnits="userSpaceOnUse">
<stop stop-color="#020202" stop-opacity="0"/>
<stop offset="1" stop-color="#020202" stop-opacity="0.2"/>
</linearGradient>
<linearGradient id="paint20_linear_5075_8460" x1="268.947" y1="107.219" x2="343.422" y2="153.207" gradientUnits="userSpaceOnUse">
<stop stop-color="#020202" stop-opacity="0.4"/>
<stop offset="1" stop-color="#020202" stop-opacity="0.2"/>
</linearGradient>
<linearGradient id="paint21_linear_5075_8460" x1="119.05" y1="201.479" x2="236.968" y2="274.294" gradientUnits="userSpaceOnUse">
<stop stop-color="#020202" stop-opacity="0.4"/>
<stop offset="1" stop-color="#020202" stop-opacity="0.2"/>
</linearGradient>
<linearGradient id="paint22_linear_5075_8460" x1="216.736" y1="978.235" x2="1176.14" y2="543.283" gradientUnits="userSpaceOnUse">
<stop stop-color="#020202" stop-opacity="0"/>
<stop offset="1" stop-color="#020202" stop-opacity="0.2"/>
</linearGradient>
<linearGradient id="paint23_linear_5075_8460" x1="617.915" y1="47.3688" x2="171.527" y2="820.536" gradientUnits="userSpaceOnUse">
<stop stop-color="#020202" stop-opacity="0.2"/>
<stop offset="1" stop-color="#020202" stop-opacity="0"/>
</linearGradient>
<linearGradient id="paint24_linear_5075_8460" x1="708.616" y1="777.996" x2="613.572" y2="741.78" gradientUnits="userSpaceOnUse">
<stop stop-color="#020202" stop-opacity="0.2"/>
<stop offset="1" stop-color="#020202" stop-opacity="0"/>
</linearGradient>
<linearGradient id="paint25_linear_5075_8460" x1="681.405" y1="716.531" x2="692.334" y2="787.782" gradientUnits="userSpaceOnUse">
<stop stop-color="#020202" stop-opacity="0.7"/>
<stop offset="1" stop-color="#020202" stop-opacity="0.6"/>
</linearGradient>
<linearGradient id="paint26_linear_5075_8460" x1="137.213" y1="616.088" x2="150.344" y2="759.148" gradientUnits="userSpaceOnUse">
<stop stop-color="#020202" stop-opacity="0.6"/>
<stop offset="1" stop-color="#020202" stop-opacity="0.6"/>
</linearGradient>
<linearGradient id="paint27_linear_5075_8460" x1="164.411" y1="649.466" x2="171.013" y2="721.194" gradientUnits="userSpaceOnUse">
<stop stop-color="#020202" stop-opacity="0.6"/>
<stop offset="1" stop-color="#020202" stop-opacity="0.6"/>
</linearGradient>
</defs>
</svg>
