<svg width="1000" height="1000" viewBox="0 0 1000 1000" fill="none" xmlns="http://www.w3.org/2000/svg">
<path fill-rule="evenodd" clip-rule="evenodd" d="M591.143 159.984C601.548 154.153 613.54 151.607 624.941 151.607C636.342 151.607 648.334 154.153 658.739 159.985C658.957 160.104 659.174 160.227 659.391 160.352L971.923 340.792C972.175 340.938 972.426 341.087 972.674 341.239C982.293 347.017 996.477 359.835 996.477 380.954C996.477 381.063 996.477 381.17 996.476 381.274V432.704C998.758 437.405 1000 442.632 1000 448.035V476.054C1000 488.599 993.307 500.191 982.443 506.463L976.904 509.661C975.606 510.608 974.297 511.474 972.992 512.265C972.641 512.485 972.286 512.698 971.926 512.906L928.261 538.116C927.364 538.753 926.432 539.352 925.468 539.909C924.504 540.465 923.521 540.972 922.522 541.43L405.986 839.65C405.624 839.859 405.26 840.061 404.892 840.256C394.615 845.897 382.815 848.392 371.537 848.392C371.435 848.392 371.242 848.392 371.036 848.391C371.032 848.391 371.029 848.391 371.025 848.391L371.025 848.38C370.81 848.382 370.595 848.383 370.38 848.382L370.38 848.385C370.192 848.382 369.974 848.378 369.733 848.371C359.068 848.123 347.945 845.618 338.174 840.254C337.808 840.059 337.445 839.858 337.085 839.65L24.5518 659.209C24.0494 658.919 23.5557 658.617 23.0709 658.305C13.4746 652.324 0.00190499 639.631 0.00190499 619.047V527.663C0.000636237 527.528 0 527.393 0 527.258C0 506.132 14.1925 493.313 23.8094 487.537C23.5592 487.682 24.0553 487.387 23.8094 487.537L590.491 160.352C591.143 159.984 590.924 160.104 591.143 159.984ZM370.374 848.382L370.374 848.385L370.38 848.385" fill="black"/>
<path d="M498.238 571.148L481.344 580.902L498.238 590.656L515.131 580.902L498.238 571.148Z" fill="#FF0000"/>
<path d="M498.238 571.148L481.344 580.902L498.238 590.656L515.131 580.902L498.238 571.148Z" fill="url(#paint0_linear_5075_9242)"/>
<path fill-rule="evenodd" clip-rule="evenodd" d="M608.046 190.761L608.048 190.763C612.373 188.266 618.346 186.721 624.94 186.721C631.532 186.721 637.505 188.266 641.83 190.763L641.833 190.761L954.365 371.201L954.362 371.203C958.687 373.7 961.363 377.148 961.363 380.955C961.363 384.762 958.687 388.21 954.362 390.706L954.365 390.708L388.428 717.452L388.425 717.45C384.1 719.947 378.127 721.492 371.535 721.492C364.941 721.492 358.969 719.947 354.644 717.45L354.64 717.452L42.1085 537.012L42.1115 537.01C37.7877 534.513 35.1113 531.065 35.1113 527.258C35.1113 523.451 37.7877 520.003 42.1115 517.507L42.1085 517.505L608.046 190.761Z" fill="#FF0000"/>
<path fill-rule="evenodd" clip-rule="evenodd" d="M608.046 190.761L608.048 190.763C612.373 188.266 618.346 186.721 624.94 186.721C631.532 186.721 637.505 188.266 641.83 190.763L641.833 190.761L954.365 371.201L954.362 371.203C958.687 373.7 961.363 377.148 961.363 380.955C961.363 384.762 958.687 388.21 954.362 390.706L954.365 390.708L388.428 717.452L388.425 717.45C384.1 719.947 378.127 721.492 371.535 721.492C364.941 721.492 358.969 719.947 354.644 717.45L354.64 717.452L42.1085 537.012L42.1115 537.01C37.7877 534.513 35.1113 531.065 35.1113 527.258C35.1113 523.451 37.7877 520.003 42.1115 517.507L42.1085 517.505L608.046 190.761Z" fill="url(#paint1_linear_5075_9242)"/>
<path fill-rule="evenodd" clip-rule="evenodd" d="M370.607 721.479C370.91 721.489 371.222 721.489 371.534 721.489H371.846C372.051 721.489 372.256 721.489 372.461 721.479L372.773 721.469C373.173 721.459 373.572 721.44 373.972 721.42L374.733 721.372C375.884 721.284 377.006 721.147 378.098 720.962L379.034 720.796C380.039 720.611 381.005 720.377 381.951 720.113C383.609 719.645 385.169 719.07 386.584 718.406C387.003 718.211 387.413 718.007 387.803 717.792C388.018 717.685 388.222 717.568 388.427 717.451L954.367 390.707C958.688 388.21 961.361 384.757 961.361 380.953V472.744C961.361 476.548 958.688 479.991 954.367 482.488V482.497L388.427 809.241V809.232C384.097 811.728 378.127 813.279 371.534 813.279C371.222 813.279 370.91 813.279 370.607 813.27V721.479Z" fill="#FF0000"/>
<path fill-rule="evenodd" clip-rule="evenodd" d="M370.607 721.479C370.91 721.489 371.222 721.489 371.534 721.489H371.846C372.051 721.489 372.256 721.489 372.461 721.479L372.773 721.469C373.173 721.459 373.572 721.44 373.972 721.42L374.733 721.372C375.884 721.284 377.006 721.147 378.098 720.962L379.034 720.796C380.039 720.611 381.005 720.377 381.951 720.113C383.609 719.645 385.169 719.07 386.584 718.406C387.003 718.211 387.413 718.007 387.803 717.792C388.018 717.685 388.222 717.568 388.427 717.451L954.367 390.707C958.688 388.21 961.361 384.757 961.361 380.953V472.744C961.361 476.548 958.688 479.991 954.367 482.488V482.497L388.427 809.241V809.232C384.097 811.728 378.127 813.279 371.534 813.279C371.222 813.279 370.91 813.279 370.607 813.27V721.479Z" fill="url(#paint2_linear_5075_9242)"/>
<path fill-rule="evenodd" clip-rule="evenodd" d="M370.608 813.268C364.385 813.132 358.767 811.61 354.642 809.23V809.24L42.1087 628.799L42.1185 628.79C37.7879 626.293 35.1152 622.85 35.1152 619.046C35.1152 619.046 35.1152 523.451 35.1152 527.255V527.431C35.125 527.85 35.1641 528.25 35.2324 528.65L35.3007 529.011C35.33 529.138 35.3689 529.274 35.3982 529.401C35.5347 529.898 35.7201 530.386 35.9444 530.864C36.1199 531.254 36.325 531.625 36.5688 531.995L36.8807 532.463C36.988 532.62 37.1052 532.776 37.2222 532.932L37.3489 533.088C37.4659 533.234 37.5928 533.38 37.7294 533.536L38.1389 533.975L38.5778 534.404C38.9777 534.785 39.4069 535.156 39.8653 535.507L40.0311 535.643C40.6749 536.121 41.3675 536.58 42.1185 537.009H42.1087L354.642 717.449L354.846 717.566L355.685 718.015C357.099 718.737 358.67 719.371 360.357 719.888L361.264 720.151L361.976 720.336C362.24 720.405 362.513 720.473 362.776 720.531L363.049 720.59C363.498 720.697 363.956 720.785 364.424 720.863C364.59 720.902 364.766 720.931 364.941 720.961C365.809 721.097 366.697 721.214 367.604 721.302L368.248 721.361C369.018 721.419 369.808 721.458 370.608 721.478V813.268Z" fill="#FF0000"/>
<path fill-rule="evenodd" clip-rule="evenodd" d="M370.608 813.268C364.385 813.132 358.767 811.61 354.642 809.23V809.24L42.1087 628.799L42.1185 628.79C37.7879 626.293 35.1152 622.85 35.1152 619.046C35.1152 619.046 35.1152 523.451 35.1152 527.255V527.431C35.125 527.85 35.1641 528.25 35.2324 528.65L35.3007 529.011C35.33 529.138 35.3689 529.274 35.3982 529.401C35.5347 529.898 35.7201 530.386 35.9444 530.864C36.1199 531.254 36.325 531.625 36.5688 531.995L36.8807 532.463C36.988 532.62 37.1052 532.776 37.2222 532.932L37.3489 533.088C37.4659 533.234 37.5928 533.38 37.7294 533.536L38.1389 533.975L38.5778 534.404C38.9777 534.785 39.4069 535.156 39.8653 535.507L40.0311 535.643C40.6749 536.121 41.3675 536.58 42.1185 537.009H42.1087L354.642 717.449L354.846 717.566L355.685 718.015C357.099 718.737 358.67 719.371 360.357 719.888L361.264 720.151L361.976 720.336C362.24 720.405 362.513 720.473 362.776 720.531L363.049 720.59C363.498 720.697 363.956 720.785 364.424 720.863C364.59 720.902 364.766 720.931 364.941 720.961C365.809 721.097 366.697 721.214 367.604 721.302L368.248 721.361C369.018 721.419 369.808 721.458 370.608 721.478V813.268Z" fill="url(#paint3_linear_5075_9242)"/>
<path d="M383.27 695.557C390.267 691.516 390.268 684.966 383.27 680.926C376.272 676.887 364.927 676.887 357.93 680.926C350.933 684.966 350.932 691.517 357.93 695.557C364.927 699.597 376.272 699.597 383.27 695.557Z" fill="#FF0000"/>
<path d="M383.27 695.557C390.267 691.516 390.268 684.966 383.27 680.926C376.272 676.887 364.927 676.887 357.93 680.926C350.933 684.966 350.932 691.517 357.93 695.557C364.927 699.597 376.272 699.597 383.27 695.557Z" fill="url(#paint4_linear_5075_9242)"/>
<path d="M916.442 387.73C923.439 383.691 923.439 377.14 916.442 373.1C909.445 369.06 898.1 369.06 891.101 373.101C884.104 377.141 884.104 383.691 891.101 387.73C898.099 391.77 909.444 391.77 916.442 387.73Z" fill="#FF0000"/>
<path d="M916.442 387.73C923.439 383.691 923.439 377.14 916.442 373.1C909.445 369.06 898.1 369.06 891.101 373.101C884.104 377.141 884.104 383.691 891.101 387.73C898.099 391.77 909.444 391.77 916.442 387.73Z" fill="url(#paint5_linear_5075_9242)"/>
<path d="M105.369 535.111C112.366 531.071 112.367 524.521 105.37 520.481C98.3723 516.441 87.0271 516.441 80.0296 520.481C73.032 524.521 73.0318 531.072 80.0292 535.111C87.0266 539.151 98.3717 539.151 105.369 535.111Z" fill="#FF0000"/>
<path d="M105.369 535.111C112.366 531.071 112.367 524.521 105.37 520.481C98.3723 516.441 87.0271 516.441 80.0296 520.481C73.032 524.521 73.0318 531.072 80.0292 535.111C87.0266 539.151 98.3717 539.151 105.369 535.111Z" fill="url(#paint6_linear_5075_9242)"/>
<path d="M638.542 227.285C645.539 223.245 645.539 216.695 638.542 212.655C631.544 208.615 620.199 208.615 613.202 212.656C606.204 216.696 606.204 223.245 613.201 227.285C620.198 231.325 631.543 231.325 638.542 227.285Z" fill="#FF0000"/>
<path d="M638.542 227.285C645.539 223.245 645.539 216.695 638.542 212.655C631.544 208.615 620.199 208.615 613.202 212.656C606.204 216.696 606.204 223.245 613.201 227.285C620.198 231.325 631.543 231.325 638.542 227.285Z" fill="url(#paint7_linear_5075_9242)"/>
<path fill-rule="evenodd" clip-rule="evenodd" d="M826.314 548.23V476.551L713.387 541.744V593.311L396.465 776.287V796.409L826.314 548.23Z" fill="#FF0000"/>
<path fill-rule="evenodd" clip-rule="evenodd" d="M826.314 548.23V476.551L713.387 541.744V593.311L396.465 776.287V796.409L826.314 548.23Z" fill="url(#paint8_linear_5075_9242)"/>
<path d="M446.255 741.294L405.62 764.755C404.571 765.36 403.727 764.954 403.727 763.843V738.518L413.605 732.815V728.287L417.554 726.007V719.953L434.307 710.281V716.334L438.256 714.054V718.582L448.134 712.879V738.204C448.134 739.315 447.303 740.688 446.255 741.294Z" fill="#FF0000"/>
<path d="M446.255 741.294L405.62 764.755C404.571 765.36 403.727 764.954 403.727 763.843V738.518L413.605 732.815V728.287L417.554 726.007V719.953L434.307 710.281V716.334L438.256 714.054V718.582L448.134 712.879V738.204C448.134 739.315 447.303 740.688 446.255 741.294Z" fill="url(#paint9_linear_5075_9242)"/>
<path d="M499.237 710.704L458.602 734.164C457.554 734.77 456.709 734.364 456.709 733.253V707.928L466.587 702.225V697.696L470.538 695.416V689.363L487.289 679.691V685.744L491.239 683.464V687.992L501.117 682.289V707.614C501.117 708.725 500.287 710.098 499.237 710.704Z" fill="#FF0000"/>
<path d="M499.237 710.704L458.602 734.164C457.554 734.77 456.709 734.364 456.709 733.253V707.928L466.587 702.225V697.696L470.538 695.416V689.363L487.289 679.691V685.744L491.239 683.464V687.992L501.117 682.289V707.614C501.117 708.725 500.287 710.098 499.237 710.704Z" fill="url(#paint10_linear_5075_9242)"/>
<path d="M552.215 680.116L511.58 703.577C510.53 704.183 509.686 703.776 509.686 702.666V677.341L519.564 671.637V667.11L523.514 664.829V658.775L540.266 649.104V655.158L544.216 652.877V657.405L554.094 651.702V677.027C554.094 678.137 553.263 679.511 552.215 680.116Z" fill="#FF0000"/>
<path d="M552.215 680.116L511.58 703.577C510.53 704.183 509.686 703.776 509.686 702.666V677.341L519.564 671.637V667.11L523.514 664.829V658.775L540.266 649.104V655.158L544.216 652.877V657.405L554.094 651.702V677.027C554.094 678.137 553.263 679.511 552.215 680.116Z" fill="url(#paint11_linear_5075_9242)"/>
<path d="M605.196 649.528L564.561 672.989C563.513 673.594 562.668 673.188 562.668 672.077V646.752L572.546 641.049V636.522L576.496 634.241V628.187L593.248 618.516V624.569L597.197 622.288V626.817L607.076 621.113V646.438C607.076 647.549 606.245 648.922 605.196 649.528Z" fill="#FF0000"/>
<path d="M605.196 649.528L564.561 672.989C563.513 673.594 562.668 673.188 562.668 672.077V646.752L572.546 641.049V636.522L576.496 634.241V628.187L593.248 618.516V624.569L597.197 622.288V626.817L607.076 621.113V646.438C607.076 647.549 606.245 648.922 605.196 649.528Z" fill="url(#paint12_linear_5075_9242)"/>
<path d="M658.492 618.758L617.857 642.22C616.808 642.824 615.963 642.419 615.963 641.308V615.983L625.841 610.28V605.752L629.792 603.472V597.418L646.543 587.746V593.8L650.493 591.519V596.047L660.372 590.344V615.67C660.372 616.779 659.541 618.153 658.492 618.758Z" fill="#FF0000"/>
<path d="M658.492 618.758L617.857 642.22C616.808 642.824 615.963 642.419 615.963 641.308V615.983L625.841 610.28V605.752L629.792 603.472V597.418L646.543 587.746V593.8L650.493 591.519V596.047L660.372 590.344V615.67C660.372 616.779 659.541 618.153 658.492 618.758Z" fill="url(#paint13_linear_5075_9242)"/>
<path d="M762.907 558.473L722.272 581.934C721.224 582.54 720.379 582.134 720.379 581.024V555.698L730.257 549.996V545.467L734.207 543.187V537.133L750.959 527.461V533.515L754.909 531.235V535.762L764.788 530.059V555.384C764.788 556.495 763.957 557.869 762.907 558.473Z" fill="#FF0000"/>
<path d="M762.907 558.473L722.272 581.934C721.224 582.54 720.379 582.134 720.379 581.024V555.698L730.257 549.996V545.467L734.207 543.187V537.133L750.959 527.461V533.515L754.909 531.235V535.762L764.788 530.059V555.384C764.788 556.495 763.957 557.869 762.907 558.473Z" fill="url(#paint14_linear_5075_9242)"/>
<path d="M815.885 527.883L775.25 551.345C774.2 551.95 773.355 551.544 773.355 550.434V525.109L783.234 519.405V514.877L787.184 512.597V506.543L803.936 496.871V502.925L807.886 500.645V505.172L817.764 499.469V524.795C817.764 525.904 816.933 527.278 815.885 527.883Z" fill="#FF0000"/>
<path d="M815.885 527.883L775.25 551.345C774.2 551.95 773.355 551.544 773.355 550.434V525.109L783.234 519.405V514.877L787.184 512.597V506.543L803.936 496.871V502.925L807.886 500.645V505.172L817.764 499.469V524.795C817.764 525.904 816.933 527.278 815.885 527.883Z" fill="url(#paint15_linear_5075_9242)"/>
<path d="M949.515 417.195L873.387 461.148V514.881L949.515 470.928V417.195Z" fill="#FF0000"/>
<path d="M949.515 417.195L873.387 461.148V514.881L949.515 470.928V417.195Z" fill="url(#paint16_linear_5075_9242)"/>
<path d="M939.997 433.674L882.9 466.638L907.787 481.006L964.883 448.042L939.997 433.674Z" fill="#FF0000"/>
<path d="M939.997 433.674L882.9 466.638L907.787 481.006L964.883 448.042L939.997 433.674Z" fill="url(#paint17_linear_5075_9242)"/>
<path d="M964.887 448.035L907.791 481V509.018L964.887 476.054V448.035Z" fill="#FF0000"/>
<path d="M964.887 448.035L907.791 481V509.018L964.887 476.054V448.035Z" fill="url(#paint18_linear_5075_9242)"/>
<path d="M907.911 481.085L882.9 466.645V495.061L907.911 509.501V481.085Z" fill="#FF0000"/>
<path d="M907.911 481.085L882.9 466.645V495.061L907.911 509.501V481.085Z" fill="url(#paint19_linear_5075_9242)"/>
<path fill-rule="evenodd" clip-rule="evenodd" d="M252.944 691.332L245.144 720.443C244.768 721.843 245.44 724.049 246.841 725.292C248.045 726.357 249.346 726.46 250.249 726.146C251.081 725.857 251.791 725.213 252.088 724.108L259.888 694.995C260.264 693.591 259.592 691.386 258.191 690.143C256.988 689.077 255.687 688.974 254.783 689.289C253.951 689.583 253.241 690.222 252.944 691.332Z" fill="#FF0000"/>
<path fill-rule="evenodd" clip-rule="evenodd" d="M252.944 691.332L245.144 720.443C244.768 721.843 245.44 724.049 246.841 725.292C248.045 726.357 249.346 726.46 250.249 726.146C251.081 725.857 251.791 725.213 252.088 724.108L259.888 694.995C260.264 693.591 259.592 691.386 258.191 690.143C256.988 689.077 255.687 688.974 254.783 689.289C253.951 689.583 253.241 690.222 252.944 691.332Z" fill="url(#paint20_linear_5075_9242)"/>
<path fill-rule="evenodd" clip-rule="evenodd" d="M277.499 705.504L269.699 734.615C269.323 736.021 269.994 738.226 271.396 739.469C272.599 740.535 273.9 740.637 274.804 740.323C275.636 740.028 276.346 739.39 276.642 738.28L284.443 709.168C284.819 707.768 284.148 705.562 282.746 704.32C281.542 703.249 280.242 703.151 279.338 703.465C278.505 703.755 277.796 704.399 277.499 705.504Z" fill="#FF0000"/>
<path fill-rule="evenodd" clip-rule="evenodd" d="M277.499 705.504L269.699 734.615C269.323 736.021 269.994 738.226 271.396 739.469C272.599 740.535 273.9 740.637 274.804 740.323C275.636 740.028 276.346 739.39 276.642 738.28L284.443 709.168C284.819 707.768 284.148 705.562 282.746 704.32C281.542 703.249 280.242 703.151 279.338 703.465C278.505 703.755 277.796 704.399 277.499 705.504Z" fill="url(#paint21_linear_5075_9242)"/>
<path fill-rule="evenodd" clip-rule="evenodd" d="M228.39 677.152L220.589 706.264C220.214 707.669 220.886 709.874 222.286 711.117C223.491 712.183 224.791 712.286 225.694 711.972C226.527 711.676 227.236 711.038 227.534 709.929L235.335 680.816C235.71 679.416 235.038 677.211 233.637 675.969C232.434 674.898 231.133 674.799 230.23 675.114C229.397 675.404 228.688 676.047 228.39 677.152Z" fill="#FF0000"/>
<path fill-rule="evenodd" clip-rule="evenodd" d="M228.39 677.152L220.589 706.264C220.214 707.669 220.886 709.874 222.286 711.117C223.491 712.183 224.791 712.286 225.694 711.972C226.527 711.676 227.236 711.038 227.534 709.929L235.335 680.816C235.71 679.416 235.038 677.211 233.637 675.969C232.434 674.898 231.133 674.799 230.23 675.114C229.397 675.404 228.688 676.047 228.39 677.152Z" fill="url(#paint22_linear_5075_9242)"/>
<path fill-rule="evenodd" clip-rule="evenodd" d="M240.665 684.242L232.865 713.354C232.489 714.754 233.161 716.959 234.562 718.202C235.765 719.273 237.066 719.376 237.97 719.056C238.802 718.767 239.512 718.124 239.809 717.019L247.609 687.906C247.985 686.507 247.314 684.297 245.912 683.059C244.708 681.988 243.408 681.885 242.504 682.204C241.672 682.494 240.962 683.132 240.665 684.242Z" fill="#FF0000"/>
<path fill-rule="evenodd" clip-rule="evenodd" d="M240.665 684.242L232.865 713.354C232.489 714.754 233.161 716.959 234.562 718.202C235.765 719.273 237.066 719.376 237.97 719.056C238.802 718.767 239.512 718.124 239.809 717.019L247.609 687.906C247.985 686.507 247.314 684.297 245.912 683.059C244.708 681.988 243.408 681.885 242.504 682.204C241.672 682.494 240.962 683.132 240.665 684.242Z" fill="url(#paint23_linear_5075_9242)"/>
<path fill-rule="evenodd" clip-rule="evenodd" d="M265.224 698.422L257.423 727.534C257.048 728.934 257.72 731.139 259.12 732.381C260.325 733.448 261.625 733.551 262.528 733.236C263.361 732.946 264.07 732.303 264.368 731.193L272.168 702.081C272.543 700.681 271.872 698.476 270.471 697.234C269.267 696.167 267.967 696.064 267.063 696.378C266.231 696.668 265.521 697.312 265.224 698.422Z" fill="#FF0000"/>
<path fill-rule="evenodd" clip-rule="evenodd" d="M265.224 698.422L257.423 727.534C257.048 728.934 257.72 731.139 259.12 732.381C260.325 733.448 261.625 733.551 262.528 733.236C263.361 732.946 264.07 732.303 264.368 731.193L272.168 702.081C272.543 700.681 271.872 698.476 270.471 697.234C269.267 696.167 267.967 696.064 267.063 696.378C266.231 696.668 265.521 697.312 265.224 698.422Z" fill="url(#paint24_linear_5075_9242)"/>
<path fill-rule="evenodd" clip-rule="evenodd" d="M216.111 670.066L208.31 699.178C207.934 700.578 208.606 702.783 210.007 704.026C211.212 705.092 212.512 705.194 213.415 704.88C214.248 704.586 214.957 703.947 215.254 702.837L223.055 673.726C223.43 672.326 222.759 670.12 221.358 668.877C220.154 667.812 218.854 667.709 217.949 668.023C217.117 668.312 216.408 668.956 216.111 670.066Z" fill="#FF0000"/>
<path fill-rule="evenodd" clip-rule="evenodd" d="M216.111 670.066L208.31 699.178C207.934 700.578 208.606 702.783 210.007 704.026C211.212 705.092 212.512 705.194 213.415 704.88C214.248 704.586 214.957 703.947 215.254 702.837L223.055 673.726C223.43 672.326 222.759 670.12 221.358 668.877C220.154 667.812 218.854 667.709 217.949 668.023C217.117 668.312 216.408 668.956 216.111 670.066Z" fill="url(#paint25_linear_5075_9242)"/>
<path fill-rule="evenodd" clip-rule="evenodd" d="M203.833 663.086L196.032 692.197C195.658 693.597 196.329 695.802 197.729 697.045C198.934 698.111 200.234 698.214 201.138 697.9C201.97 697.61 202.679 696.967 202.977 695.857L210.777 666.744C211.153 665.345 210.481 663.139 209.081 661.897C207.876 660.831 206.576 660.728 205.673 661.042C204.84 661.337 204.13 661.976 203.833 663.086Z" fill="#FF0000"/>
<path fill-rule="evenodd" clip-rule="evenodd" d="M203.833 663.086L196.032 692.197C195.658 693.597 196.329 695.802 197.729 697.045C198.934 698.111 200.234 698.214 201.138 697.9C201.97 697.61 202.679 696.967 202.977 695.857L210.777 666.744C211.153 665.345 210.481 663.139 209.081 661.897C207.876 660.831 206.576 660.728 205.673 661.042C204.84 661.337 204.13 661.976 203.833 663.086Z" fill="url(#paint26_linear_5075_9242)"/>
<path d="M408.519 775.516L403.158 778.61V786.348L408.519 783.253V775.516Z" fill="#00FF00"/>
<path d="M408.519 775.516L403.158 778.61V786.348L408.519 783.253V775.516Z" fill="url(#paint27_linear_5075_9242)"/>
<path d="M514.482 714.34L509.121 717.436V725.173L514.482 722.077V714.34Z" fill="#00FF00"/>
<path d="M514.482 714.34L509.121 717.436V725.173L514.482 722.077V714.34Z" fill="url(#paint28_linear_5075_9242)"/>
<path d="M461.501 744.93L456.141 748.025V755.762L461.501 752.667V744.93Z" fill="#00FF00"/>
<path d="M461.501 744.93L456.141 748.025V755.762L461.501 752.667V744.93Z" fill="url(#paint29_linear_5075_9242)"/>
<path d="M567.3 683.844L561.939 686.939V694.676L567.3 691.581V683.844Z" fill="#00FF00"/>
<path d="M567.3 683.844L561.939 686.939V694.676L567.3 691.581V683.844Z" fill="url(#paint30_linear_5075_9242)"/>
<path d="M620.592 653.076L615.23 656.171V663.908L620.592 660.814V653.076Z" fill="#00FF00"/>
<path d="M620.592 653.076L615.23 656.171V663.908L620.592 660.814V653.076Z" fill="url(#paint31_linear_5075_9242)"/>
<path d="M725.171 592.699L719.811 595.794V603.532L725.171 600.437V592.699Z" fill="#00FF00"/>
<path d="M725.171 592.699L719.811 595.794V603.532L725.171 600.437V592.699Z" fill="url(#paint32_linear_5075_9242)"/>
<path d="M778.152 562.111L772.791 565.206V572.944L778.152 569.849V562.111Z" fill="#00FF00"/>
<path d="M778.152 562.111L772.791 565.206V572.944L778.152 569.849V562.111Z" fill="url(#paint33_linear_5075_9242)"/>
<path d="M441.637 743.914L443.411 742.889V731.93L441.637 732.954V743.914Z" fill="#00FF00"/>
<path d="M441.637 743.914L443.411 742.889V731.93L441.637 732.954V743.914Z" fill="url(#paint34_linear_5075_9242)"/>
<path d="M408.451 763.074L410.226 762.05V751.09L408.451 752.115V763.074Z" fill="#00FF00"/>
<path d="M408.451 763.074L410.226 762.05V751.09L408.451 752.115V763.074Z" fill="url(#paint35_linear_5075_9242)"/>
<path d="M417.934 757.601L419.709 756.577V745.617L417.934 746.641V757.601Z" fill="#00FF00"/>
<path d="M417.934 757.601L419.709 756.577V745.617L417.934 746.641V757.601Z" fill="url(#paint36_linear_5075_9242)"/>
<path d="M422.674 754.863L424.448 753.839V742.879L422.674 743.904V754.863Z" fill="#00FF00"/>
<path d="M422.674 754.863L424.448 753.839V742.879L422.674 743.904V754.863Z" fill="url(#paint37_linear_5075_9242)"/>
<path d="M427.418 752.129L429.192 751.104V740.145L427.418 741.169V752.129Z" fill="#00FF00"/>
<path d="M427.418 752.129L429.192 751.104V740.145L427.418 741.169V752.129Z" fill="url(#paint38_linear_5075_9242)"/>
<path d="M432.152 749.39L433.927 748.366V737.406L432.152 738.43V749.39Z" fill="#00FF00"/>
<path d="M432.152 749.39L433.927 748.366V737.406L432.152 738.43V749.39Z" fill="url(#paint39_linear_5075_9242)"/>
<path d="M436.896 746.652L438.671 745.628V734.668L436.896 735.693V746.652Z" fill="#00FF00"/>
<path d="M436.896 746.652L438.671 745.628V734.668L436.896 735.693V746.652Z" fill="url(#paint40_linear_5075_9242)"/>
<path d="M413.191 760.34L414.966 759.315V748.355L413.191 749.38V760.34Z" fill="#00FF00"/>
<path d="M413.191 760.34L414.966 759.315V748.355L413.191 749.38V760.34Z" fill="url(#paint41_linear_5075_9242)"/>
<path fill-rule="evenodd" clip-rule="evenodd" d="M446.255 741.89C447.62 741.103 448.702 739.316 448.702 737.872V711.946L438.824 717.649V713.121L434.875 715.402V709.348L416.987 719.676V725.729L413.037 728.01V732.538L403.158 738.241V764.168C403.158 765.611 404.256 766.139 405.62 765.352L446.255 741.89ZM446.255 740.689L405.62 764.149C404.886 764.573 404.295 764.288 404.295 763.511V738.788L414.173 733.084V728.556L418.122 726.276V720.222L433.739 711.207V717.26L437.689 714.979V719.507L447.567 713.804V738.528C447.567 739.305 446.988 740.265 446.255 740.689Z" fill="#00FF00"/>
<path fill-rule="evenodd" clip-rule="evenodd" d="M446.255 741.89C447.62 741.103 448.702 739.316 448.702 737.872V711.946L438.824 717.649V713.121L434.875 715.402V709.348L416.987 719.676V725.729L413.037 728.01V732.538L403.158 738.241V764.168C403.158 765.611 404.256 766.139 405.62 765.352L446.255 741.89ZM446.255 740.689L405.62 764.149C404.886 764.573 404.295 764.288 404.295 763.511V738.788L414.173 733.084V728.556L418.122 726.276V720.222L433.739 711.207V717.26L437.689 714.979V719.507L447.567 713.804V738.528C447.567 739.305 446.988 740.265 446.255 740.689Z" fill="url(#paint42_linear_5075_9242)"/>
<path d="M494.617 713.328L496.392 712.304V701.344L494.617 702.369V713.328Z" fill="#00FF00"/>
<path d="M494.617 713.328L496.392 712.304V701.344L494.617 702.369V713.328Z" fill="url(#paint43_linear_5075_9242)"/>
<path d="M461.432 732.488L463.206 731.463V720.504L461.432 721.528V732.488Z" fill="#00FF00"/>
<path d="M461.432 732.488L463.206 731.463V720.504L461.432 721.528V732.488Z" fill="url(#paint44_linear_5075_9242)"/>
<path d="M470.912 727.013L472.686 725.988V715.029L470.912 716.053V727.013Z" fill="#00FF00"/>
<path d="M470.912 727.013L472.686 725.988V715.029L470.912 716.053V727.013Z" fill="url(#paint45_linear_5075_9242)"/>
<path d="M475.652 724.277L477.427 723.253V712.293L475.652 713.317V724.277Z" fill="#00FF00"/>
<path d="M475.652 724.277L477.427 723.253V712.293L475.652 713.317V724.277Z" fill="url(#paint46_linear_5075_9242)"/>
<path d="M480.395 721.537L482.17 720.513V709.553L480.395 710.578V721.537Z" fill="#00FF00"/>
<path d="M480.395 721.537L482.17 720.513V709.553L480.395 710.578V721.537Z" fill="url(#paint47_linear_5075_9242)"/>
<path d="M485.135 718.803L486.909 717.777V706.818L485.135 707.842V718.803Z" fill="#00FF00"/>
<path d="M485.135 718.803L486.909 717.777V706.818L485.135 707.842V718.803Z" fill="url(#paint48_linear_5075_9242)"/>
<path d="M489.877 716.064L491.651 715.04V704.08L489.877 705.105V716.064Z" fill="#00FF00"/>
<path d="M489.877 716.064L491.651 715.04V704.08L489.877 705.105V716.064Z" fill="url(#paint49_linear_5075_9242)"/>
<path d="M466.168 729.752L467.943 728.728V717.768L466.168 718.793V729.752Z" fill="#00FF00"/>
<path d="M466.168 729.752L467.943 728.728V717.768L466.168 718.793V729.752Z" fill="url(#paint50_linear_5075_9242)"/>
<path fill-rule="evenodd" clip-rule="evenodd" d="M499.237 711.304C500.601 710.516 501.684 708.73 501.684 707.286V681.36L491.806 687.063V682.534L487.856 684.816V678.762L469.968 689.089V695.143L466.018 697.423V701.952L456.141 707.655V733.581C456.141 735.024 457.238 735.553 458.601 734.766L499.237 711.304ZM499.237 710.102L458.601 733.563C457.867 733.986 457.276 733.702 457.276 732.925V708.201L467.154 702.498V697.97L471.105 695.689V689.636L486.72 680.62V686.674L490.67 684.393V688.921L500.549 683.218V707.941C500.549 708.718 499.969 709.679 499.237 710.102Z" fill="#00FF00"/>
<path fill-rule="evenodd" clip-rule="evenodd" d="M499.237 711.304C500.601 710.516 501.684 708.73 501.684 707.286V681.36L491.806 687.063V682.534L487.856 684.816V678.762L469.968 689.089V695.143L466.018 697.423V701.952L456.141 707.655V733.581C456.141 735.024 457.238 735.553 458.601 734.766L499.237 711.304ZM499.237 710.102L458.601 733.563C457.867 733.986 457.276 733.702 457.276 732.925V708.201L467.154 702.498V697.97L471.105 695.689V689.636L486.72 680.62V686.674L490.67 684.393V688.921L500.549 683.218V707.941C500.549 708.718 499.969 709.679 499.237 710.102Z" fill="url(#paint51_linear_5075_9242)"/>
<path d="M547.6 682.738L549.374 681.714V670.754L547.6 671.779V682.738Z" fill="#00FF00"/>
<path d="M547.6 682.738L549.374 681.714V670.754L547.6 671.779V682.738Z" fill="url(#paint52_linear_5075_9242)"/>
<path d="M514.41 701.898L516.185 700.873V689.914L514.41 690.938V701.898Z" fill="#00FF00"/>
<path d="M514.41 701.898L516.185 700.873V689.914L514.41 690.938V701.898Z" fill="url(#paint53_linear_5075_9242)"/>
<path d="M523.893 696.426L525.667 695.401V684.441L523.893 685.466V696.426Z" fill="#00FF00"/>
<path d="M523.893 696.426L525.667 695.401V684.441L523.893 685.466V696.426Z" fill="url(#paint54_linear_5075_9242)"/>
<path d="M528.633 693.689L530.408 692.664V681.705L528.633 682.729V693.689Z" fill="#00FF00"/>
<path d="M528.633 693.689L530.408 692.664V681.705L528.633 682.729V693.689Z" fill="url(#paint55_linear_5075_9242)"/>
<path d="M533.377 690.951L535.151 689.927V678.967L533.377 679.991V690.951Z" fill="#00FF00"/>
<path d="M533.377 690.951L535.151 689.927V678.967L533.377 679.991V690.951Z" fill="url(#paint56_linear_5075_9242)"/>
<path d="M538.111 688.215L539.885 687.191V676.23L538.111 677.256V688.215Z" fill="#00FF00"/>
<path d="M538.111 688.215L539.885 687.191V676.23L538.111 677.256V688.215Z" fill="url(#paint57_linear_5075_9242)"/>
<path d="M542.855 685.476L544.631 684.451V673.492L542.855 674.516V685.476Z" fill="#00FF00"/>
<path d="M542.855 685.476L544.631 684.451V673.492L542.855 674.516V685.476Z" fill="url(#paint58_linear_5075_9242)"/>
<path d="M519.15 699.164L520.925 698.139V687.18L519.15 688.204V699.164Z" fill="#00FF00"/>
<path d="M519.15 699.164L520.925 698.139V687.18L519.15 688.204V699.164Z" fill="url(#paint59_linear_5075_9242)"/>
<path fill-rule="evenodd" clip-rule="evenodd" d="M552.213 680.715C553.578 679.927 554.661 678.141 554.661 676.696V650.769L544.783 656.472V651.945L540.833 654.225V648.172L522.946 658.499V664.553L518.996 666.833V671.361L509.117 677.064V702.991C509.117 704.434 510.214 704.962 511.578 704.175L552.213 680.715ZM552.213 679.512L511.578 702.973C510.845 703.396 510.253 703.112 510.253 702.335V677.611L520.131 671.908V667.38L524.081 665.099V659.046L539.697 650.03V656.083L543.648 653.803V658.331L553.525 652.627V677.352C553.525 678.128 552.947 679.089 552.213 679.512Z" fill="#00FF00"/>
<path fill-rule="evenodd" clip-rule="evenodd" d="M552.213 680.715C553.578 679.927 554.661 678.141 554.661 676.696V650.769L544.783 656.472V651.945L540.833 654.225V648.172L522.946 658.499V664.553L518.996 666.833V671.361L509.117 677.064V702.991C509.117 704.434 510.214 704.962 511.578 704.175L552.213 680.715ZM552.213 679.512L511.578 702.973C510.845 703.396 510.253 703.112 510.253 702.335V677.611L520.131 671.908V667.38L524.081 665.099V659.046L539.697 650.03V656.083L543.648 653.803V658.331L553.525 652.627V677.352C553.525 678.128 552.947 679.089 552.213 679.512Z" fill="url(#paint60_linear_5075_9242)"/>
<path d="M600.576 652.15L602.35 651.125V640.166L600.576 641.19V652.15Z" fill="#00FF00"/>
<path d="M600.576 652.15L602.35 651.125V640.166L600.576 641.19V652.15Z" fill="url(#paint61_linear_5075_9242)"/>
<path d="M567.393 671.31L569.167 670.286V659.326L567.393 660.351V671.31Z" fill="#00FF00"/>
<path d="M567.393 671.31L569.167 670.286V659.326L567.393 660.351V671.31Z" fill="url(#paint62_linear_5075_9242)"/>
<path d="M576.875 665.836L578.65 664.812V653.852L576.875 654.876V665.836Z" fill="#00FF00"/>
<path d="M576.875 665.836L578.65 664.812V653.852L576.875 654.876V665.836Z" fill="url(#paint63_linear_5075_9242)"/>
<path d="M581.615 663.099L583.389 662.075V651.115L581.615 652.14V663.099Z" fill="#00FF00"/>
<path d="M581.615 663.099L583.389 662.075V651.115L581.615 652.14V663.099Z" fill="url(#paint64_linear_5075_9242)"/>
<path d="M586.354 660.361L588.128 659.336V648.377L586.354 649.401V660.361Z" fill="#00FF00"/>
<path d="M586.354 660.361L588.128 659.336V648.377L586.354 649.401V660.361Z" fill="url(#paint65_linear_5075_9242)"/>
<path d="M591.094 657.625L592.869 656.601V645.641L591.094 646.665V657.625Z" fill="#00FF00"/>
<path d="M591.094 657.625L592.869 656.601V645.641L591.094 646.665V657.625Z" fill="url(#paint66_linear_5075_9242)"/>
<path d="M595.838 654.887L597.612 653.862V642.902L595.838 643.927V654.887Z" fill="#00FF00"/>
<path d="M595.838 654.887L597.612 653.862V642.902L595.838 643.927V654.887Z" fill="url(#paint67_linear_5075_9242)"/>
<path d="M572.131 668.576L573.905 667.551V656.592L572.131 657.616V668.576Z" fill="#00FF00"/>
<path d="M572.131 668.576L573.905 667.551V656.592L572.131 657.616V668.576Z" fill="url(#paint68_linear_5075_9242)"/>
<path fill-rule="evenodd" clip-rule="evenodd" d="M605.197 650.127C606.561 649.34 607.644 647.553 607.644 646.108V620.182L597.765 625.885V621.358L593.816 623.638V617.584L575.928 627.912V633.965L571.978 636.245V640.774L562.1 646.477V672.404C562.1 673.846 563.198 674.375 564.561 673.588L605.197 650.127ZM605.197 648.925L564.561 672.385C563.827 672.81 563.236 672.525 563.236 671.747V647.024L573.114 641.32V636.793L577.063 634.512V628.458L592.68 619.443V625.496L596.63 623.216V627.743L606.509 622.04V646.765C606.509 647.541 605.929 648.502 605.197 648.925Z" fill="#00FF00"/>
<path fill-rule="evenodd" clip-rule="evenodd" d="M605.197 650.127C606.561 649.34 607.644 647.553 607.644 646.108V620.182L597.765 625.885V621.358L593.816 623.638V617.584L575.928 627.912V633.965L571.978 636.245V640.774L562.1 646.477V672.404C562.1 673.846 563.198 674.375 564.561 673.588L605.197 650.127ZM605.197 648.925L564.561 672.385C563.827 672.81 563.236 672.525 563.236 671.747V647.024L573.114 641.32V636.793L577.063 634.512V628.458L592.68 619.443V625.496L596.63 623.216V627.743L606.509 622.04V646.765C606.509 647.541 605.929 648.502 605.197 648.925Z" fill="url(#paint69_linear_5075_9242)"/>
<path d="M653.871 621.383L655.645 620.358V609.398L653.871 610.423V621.383Z" fill="#00FF00"/>
<path d="M653.871 621.383L655.645 620.358V609.398L653.871 610.423V621.383Z" fill="url(#paint70_linear_5075_9242)"/>
<path d="M620.686 640.541L622.461 639.517V628.557L620.686 629.582V640.541Z" fill="#00FF00"/>
<path d="M620.686 640.541L622.461 639.517V628.557L620.686 629.582V640.541Z" fill="url(#paint71_linear_5075_9242)"/>
<path d="M630.168 635.068L631.942 634.044V623.084L630.168 624.109V635.068Z" fill="#00FF00"/>
<path d="M630.168 635.068L631.942 634.044V623.084L630.168 624.109V635.068Z" fill="url(#paint72_linear_5075_9242)"/>
<path d="M634.904 632.33L636.679 631.306V620.346L634.904 621.371V632.33Z" fill="#00FF00"/>
<path d="M634.904 632.33L636.679 631.306V620.346L634.904 621.371V632.33Z" fill="url(#paint73_linear_5075_9242)"/>
<path d="M639.648 629.594L641.423 628.568V617.609L639.648 618.634V629.594Z" fill="#00FF00"/>
<path d="M639.648 629.594L641.423 628.568V617.609L639.648 618.634V629.594Z" fill="url(#paint74_linear_5075_9242)"/>
<path d="M644.387 626.857L646.161 625.833V614.873L644.387 615.898V626.857Z" fill="#00FF00"/>
<path d="M644.387 626.857L646.161 625.833V614.873L644.387 615.898V626.857Z" fill="url(#paint75_linear_5075_9242)"/>
<path d="M649.131 624.122L650.906 623.097V612.137L649.131 613.162V624.122Z" fill="#00FF00"/>
<path d="M649.131 624.122L650.906 623.097V612.137L649.131 613.162V624.122Z" fill="url(#paint76_linear_5075_9242)"/>
<path d="M625.426 637.806L627.2 636.781V625.822L625.426 626.846V637.806Z" fill="#00FF00"/>
<path d="M625.426 637.806L627.2 636.781V625.822L625.426 626.846V637.806Z" fill="url(#paint77_linear_5075_9242)"/>
<path fill-rule="evenodd" clip-rule="evenodd" d="M658.491 619.358C659.855 618.57 660.939 616.783 660.939 615.339V589.413L651.06 595.116V590.588L647.11 592.869V586.814L629.223 597.143V603.196L625.273 605.477V610.004L615.395 615.707V641.634C615.395 643.078 616.492 643.605 617.855 642.818L658.491 619.358ZM658.491 618.156L617.855 641.616C617.122 642.04 616.53 641.755 616.53 640.978V616.255L626.408 610.551V606.023L630.358 603.743V597.689L645.975 588.673V594.727L649.925 592.446V596.974L659.802 591.271V615.995C659.802 616.772 659.224 617.732 658.491 618.156Z" fill="#00FF00"/>
<path fill-rule="evenodd" clip-rule="evenodd" d="M658.491 619.358C659.855 618.57 660.939 616.783 660.939 615.339V589.413L651.06 595.116V590.588L647.11 592.869V586.814L629.223 597.143V603.196L625.273 605.477V610.004L615.395 615.707V641.634C615.395 643.078 616.492 643.605 617.855 642.818L658.491 619.358ZM658.491 618.156L617.855 641.616C617.122 642.04 616.53 641.755 616.53 640.978V616.255L626.408 610.551V606.023L630.358 603.743V597.689L645.975 588.673V594.727L649.925 592.446V596.974L659.802 591.271V615.995C659.802 616.772 659.224 617.732 658.491 618.156Z" fill="url(#paint78_linear_5075_9242)"/>
<path d="M758.287 561.098L760.062 560.073V549.113L758.287 550.138V561.098Z" fill="#00FF00"/>
<path d="M758.287 561.098L760.062 560.073V549.113L758.287 550.138V561.098Z" fill="url(#paint79_linear_5075_9242)"/>
<path d="M725.102 580.258L726.876 579.233V568.273L725.102 569.298V580.258Z" fill="#00FF00"/>
<path d="M725.102 580.258L726.876 579.233V568.273L725.102 569.298V580.258Z" fill="url(#paint80_linear_5075_9242)"/>
<path d="M734.586 574.782L736.36 573.757V562.797L734.586 563.822V574.782Z" fill="#00FF00"/>
<path d="M734.586 574.782L736.36 573.757V562.797L734.586 563.822V574.782Z" fill="url(#paint81_linear_5075_9242)"/>
<path d="M739.32 572.047L741.094 571.022V560.062L739.32 561.087V572.047Z" fill="#00FF00"/>
<path d="M739.32 572.047L741.094 571.022V560.062L739.32 561.087V572.047Z" fill="url(#paint82_linear_5075_9242)"/>
<path d="M744.064 569.308L745.84 568.284V557.324L744.064 558.349V569.308Z" fill="#00FF00"/>
<path d="M744.064 569.308L745.84 568.284V557.324L744.064 558.349V569.308Z" fill="url(#paint83_linear_5075_9242)"/>
<path d="M748.805 566.575L750.579 565.55V554.59L748.805 555.615V566.575Z" fill="#00FF00"/>
<path d="M748.805 566.575L750.579 565.55V554.59L748.805 555.615V566.575Z" fill="url(#paint84_linear_5075_9242)"/>
<path d="M753.547 563.836L755.321 562.811V551.852L753.547 552.876V563.836Z" fill="#00FF00"/>
<path d="M753.547 563.836L755.321 562.811V551.852L753.547 552.876V563.836Z" fill="url(#paint85_linear_5075_9242)"/>
<path d="M729.842 577.521L731.617 576.497V565.537L729.842 566.562V577.521Z" fill="#00FF00"/>
<path d="M729.842 577.521L731.617 576.497V565.537L729.842 566.562V577.521Z" fill="url(#paint86_linear_5075_9242)"/>
<path fill-rule="evenodd" clip-rule="evenodd" d="M762.907 559.074C764.271 558.286 765.355 556.5 765.355 555.056V529.129L755.476 534.832V530.304L751.526 532.584V526.531L733.638 536.858V542.912L729.688 545.193V549.72L719.811 555.424V581.35C719.811 582.794 720.908 583.322 722.271 582.535L762.907 559.074ZM762.907 557.871L722.271 581.333C721.537 581.756 720.946 581.472 720.946 580.695V555.97L730.824 550.267V545.739L734.774 543.459V537.405L750.39 528.389V534.443L754.34 532.162V536.691L764.218 530.988V555.711C764.218 556.487 763.64 557.448 762.907 557.871Z" fill="#00FF00"/>
<path fill-rule="evenodd" clip-rule="evenodd" d="M762.907 559.074C764.271 558.286 765.355 556.5 765.355 555.056V529.129L755.476 534.832V530.304L751.526 532.584V526.531L733.638 536.858V542.912L729.688 545.193V549.72L719.811 555.424V581.35C719.811 582.794 720.908 583.322 722.271 582.535L762.907 559.074ZM762.907 557.871L722.271 581.333C721.537 581.756 720.946 581.472 720.946 580.695V555.97L730.824 550.267V545.739L734.774 543.459V537.405L750.39 528.389V534.443L754.34 532.162V536.691L764.218 530.988V555.711C764.218 556.487 763.64 557.448 762.907 557.871Z" fill="url(#paint87_linear_5075_9242)"/>
<path d="M811.27 530.51L813.044 529.484V518.525L811.27 519.55V530.51Z" fill="#00FF00"/>
<path d="M811.27 530.51L813.044 529.484V518.525L811.27 519.55V530.51Z" fill="url(#paint88_linear_5075_9242)"/>
<path d="M778.08 549.668L779.855 548.644V537.684L778.08 538.709V549.668Z" fill="#00FF00"/>
<path d="M778.08 549.668L779.855 548.644V537.684L778.08 538.709V549.668Z" fill="url(#paint89_linear_5075_9242)"/>
<path d="M787.562 544.195L789.337 543.171V532.211L787.562 533.236V544.195Z" fill="#00FF00"/>
<path d="M787.562 544.195L789.337 543.171V532.211L787.562 533.236V544.195Z" fill="url(#paint90_linear_5075_9242)"/>
<path d="M792.303 541.46L794.078 540.435V529.475L792.303 530.5V541.46Z" fill="#00FF00"/>
<path d="M792.303 541.46L794.078 540.435V529.475L792.303 530.5V541.46Z" fill="url(#paint91_linear_5075_9242)"/>
<path d="M797.047 538.719L798.821 537.693V526.734L797.047 527.758V538.719Z" fill="#00FF00"/>
<path d="M797.047 538.719L798.821 537.693V526.734L797.047 527.758V538.719Z" fill="url(#paint92_linear_5075_9242)"/>
<path d="M801.785 535.984L803.559 534.96V524L801.785 525.025V535.984Z" fill="#00FF00"/>
<path d="M801.785 535.984L803.559 534.96V524L801.785 525.025V535.984Z" fill="url(#paint93_linear_5075_9242)"/>
<path d="M806.525 533.246L808.3 532.221V521.262L806.525 522.286V533.246Z" fill="#00FF00"/>
<path d="M806.525 533.246L808.3 532.221V521.262L806.525 522.286V533.246Z" fill="url(#paint94_linear_5075_9242)"/>
<path d="M782.82 546.933L784.595 545.908V534.949L782.82 535.973V546.933Z" fill="#00FF00"/>
<path d="M782.82 546.933L784.595 545.908V534.949L782.82 535.973V546.933Z" fill="url(#paint95_linear_5075_9242)"/>
<path fill-rule="evenodd" clip-rule="evenodd" d="M815.884 528.486C817.248 527.698 818.331 525.911 818.331 524.468V498.541L808.453 504.244V499.716L804.503 501.996V495.943L786.616 506.27V512.323L782.665 514.605V519.132L772.787 524.835V550.762C772.787 552.206 773.884 552.733 775.248 551.946L815.884 528.486ZM815.884 527.283L775.248 550.744C774.514 551.168 773.923 550.883 773.923 550.106V525.383L783.801 519.68V515.151L787.751 512.871V506.817L803.367 497.801V503.854L807.318 501.574V506.103L817.195 500.399V525.123C817.195 525.899 816.617 526.86 815.884 527.283Z" fill="#00FF00"/>
<path fill-rule="evenodd" clip-rule="evenodd" d="M815.884 528.486C817.248 527.698 818.331 525.911 818.331 524.468V498.541L808.453 504.244V499.716L804.503 501.996V495.943L786.616 506.27V512.323L782.665 514.605V519.132L772.787 524.835V550.762C772.787 552.206 773.884 552.733 775.248 551.946L815.884 528.486ZM815.884 527.283L775.248 550.744C774.514 551.168 773.923 550.883 773.923 550.106V525.383L783.801 519.68V515.151L787.751 512.871V506.817L803.367 497.801V503.854L807.318 501.574V506.103L817.195 500.399V525.123C817.195 525.899 816.617 526.86 815.884 527.283Z" fill="url(#paint96_linear_5075_9242)"/>
<path d="M853.898 518.506C859.891 515.046 864.749 506.632 864.749 499.712C864.749 492.792 859.891 489.987 853.898 493.447C847.905 496.907 843.047 505.322 843.047 512.241C843.047 519.161 847.905 521.967 853.898 518.506Z" fill="#00FF00"/>
<path d="M735.709 407.492L533.01 524.521V540.809L735.709 423.78V407.492Z" fill="#00FF00"/>
<path d="M735.709 407.492L533.01 524.521V540.809L735.709 423.78V407.492Z" fill="url(#paint97_linear_5075_9242)"/>
<path fill-rule="evenodd" clip-rule="evenodd" d="M805.389 330.688V346.976L780.051 449.377V433.088L805.389 330.688Z" fill="#00FF00"/>
<path fill-rule="evenodd" clip-rule="evenodd" d="M805.389 330.688V346.976L780.051 449.377V433.088L805.389 330.688Z" fill="url(#paint98_linear_5075_9242)"/>
<path fill-rule="evenodd" clip-rule="evenodd" d="M526.869 404.012L324.17 521.041L338.216 529.151L526.869 420.232V404.012Z" fill="#00FF00"/>
<path fill-rule="evenodd" clip-rule="evenodd" d="M526.869 404.012L324.17 521.041L338.216 529.151L526.869 420.232V404.012Z" fill="url(#paint99_linear_5075_9242)"/>
<path fill-rule="evenodd" clip-rule="evenodd" d="M672.363 370.916L628.022 345.316L805.385 330.688L780.047 433.088L735.707 407.488L533.007 524.517L469.662 487.945L672.363 370.916Z" fill="#00FF00"/>
<path fill-rule="evenodd" clip-rule="evenodd" d="M672.363 370.916L628.022 345.316L805.385 330.688L780.047 433.088L735.707 407.488L533.007 524.517L469.662 487.945L672.363 370.916Z" fill="url(#paint100_linear_5075_9242)"/>
<path fill-rule="evenodd" clip-rule="evenodd" d="M672.364 370.917L628.023 345.316V361.605L658.257 379.061L672.364 370.917Z" fill="#00FF00"/>
<path fill-rule="evenodd" clip-rule="evenodd" d="M672.364 370.917L628.023 345.316V361.605L658.257 379.061L672.364 370.917Z" fill="url(#paint101_linear_5075_9242)"/>
<path d="M533.009 524.516L469.666 487.945V504.233L533.009 540.804V524.516Z" fill="#00FF00"/>
<path d="M533.009 524.516L469.666 487.945V504.233L533.009 540.804V524.516Z" fill="url(#paint102_linear_5075_9242)"/>
<path d="M780.05 433.088L735.709 407.488V423.777L780.05 449.377V433.088Z" fill="#00FF00"/>
<path d="M780.05 433.088L735.709 407.488V423.777L780.05 449.377V433.088Z" fill="url(#paint103_linear_5075_9242)"/>
<path fill-rule="evenodd" clip-rule="evenodd" d="M191.088 561.303V577.524L368.511 562.929V546.641L191.088 561.303Z" fill="#00FF00"/>
<path fill-rule="evenodd" clip-rule="evenodd" d="M191.088 561.303V577.524L368.511 562.929V546.641L191.088 561.303Z" fill="url(#paint104_linear_5075_9242)"/>
<path fill-rule="evenodd" clip-rule="evenodd" d="M324.166 521.04L368.508 546.64L191.145 561.269L216.482 458.869L260.823 484.469L463.523 367.439L526.868 404.011L324.166 521.04Z" fill="#00FF00"/>
<path fill-rule="evenodd" clip-rule="evenodd" d="M324.166 521.04L368.508 546.64L191.145 561.269L216.482 458.869L260.823 484.469L463.523 367.439L526.868 404.011L324.166 521.04Z" fill="url(#paint105_linear_5075_9242)"/>
<path opacity="0.2" d="M608.05 190.763L608.047 190.761L42.1105 517.505L42.1134 517.507C37.7897 520.003 35.1133 523.451 35.1133 527.258C35.1133 527.317 35.1139 527.375 35.1152 527.434V619.048C35.1152 622.851 37.7879 626.294 42.1184 628.791L42.1087 628.801L354.641 809.242V809.232C358.767 811.612 364.385 813.133 370.608 813.27L371.537 813.28C378.131 813.28 384.1 811.729 388.43 809.232V809.242L907.757 509.41L907.914 509.5V509.319L954.37 482.498V482.488C955.456 481.861 956.437 481.174 957.298 480.436L964.888 476.055V448.036L964.88 448.04L961.364 446.01V381.094C961.365 381.048 961.365 381.001 961.365 380.955C961.365 377.148 958.689 373.7 954.364 371.203L954.367 371.201L641.835 190.761L641.832 190.763C637.507 188.266 631.534 186.721 624.942 186.721C618.348 186.721 612.375 188.266 608.05 190.763Z" fill="black"/>
<defs>
<linearGradient id="paint0_linear_5075_9242" x1="481.351" y1="571.572" x2="482.171" y2="591.564" gradientUnits="userSpaceOnUse">
<stop stop-color="#020202" stop-opacity="0.57"/>
<stop offset="1" stop-color="#020202" stop-opacity="0"/>
</linearGradient>
<linearGradient id="paint1_linear_5075_9242" x1="961.363" y1="380.943" x2="47.3509" y2="527.268" gradientUnits="userSpaceOnUse">
<stop stop-color="#020202" stop-opacity="0.2"/>
<stop offset="1" stop-color="#020202" stop-opacity="0"/>
</linearGradient>
<linearGradient id="paint2_linear_5075_9242" x1="961.692" y1="478.255" x2="370.604" y2="814.003" gradientUnits="userSpaceOnUse">
<stop stop-color="#020202" stop-opacity="0"/>
<stop offset="1" stop-color="#020202" stop-opacity="0.2"/>
</linearGradient>
<linearGradient id="paint3_linear_5075_9242" x1="366.112" y1="904.513" x2="35.1117" y2="549.797" gradientUnits="userSpaceOnUse">
<stop stop-color="#020202" stop-opacity="0"/>
<stop offset="1" stop-color="#020202" stop-opacity="0.2"/>
</linearGradient>
<linearGradient id="paint4_linear_5075_9242" x1="352.689" y1="678.345" x2="353.559" y2="699.55" gradientUnits="userSpaceOnUse">
<stop stop-color="#020202" stop-opacity="0.9"/>
<stop offset="1" stop-color="#020202" stop-opacity="0.8"/>
</linearGradient>
<linearGradient id="paint5_linear_5075_9242" x1="885.861" y1="370.519" x2="886.731" y2="391.724" gradientUnits="userSpaceOnUse">
<stop stop-color="#020202" stop-opacity="0.9"/>
<stop offset="1" stop-color="#020202" stop-opacity="0.8"/>
</linearGradient>
<linearGradient id="paint6_linear_5075_9242" x1="74.7886" y1="517.9" x2="75.6589" y2="539.105" gradientUnits="userSpaceOnUse">
<stop stop-color="#020202" stop-opacity="0.9"/>
<stop offset="1" stop-color="#020202" stop-opacity="0.8"/>
</linearGradient>
<linearGradient id="paint7_linear_5075_9242" x1="607.96" y1="210.074" x2="608.831" y2="231.278" gradientUnits="userSpaceOnUse">
<stop stop-color="#020202" stop-opacity="0.9"/>
<stop offset="1" stop-color="#020202" stop-opacity="0.8"/>
</linearGradient>
<linearGradient id="paint8_linear_5075_9242" x1="826.314" y1="500.779" x2="396.466" y2="787.198" gradientUnits="userSpaceOnUse">
<stop stop-color="#020202" stop-opacity="0.7"/>
<stop offset="1" stop-color="#020202" stop-opacity="0.8"/>
</linearGradient>
<linearGradient id="paint9_linear_5075_9242" x1="403.736" y1="711.469" x2="408.625" y2="767.25" gradientUnits="userSpaceOnUse">
<stop stop-color="#020202" stop-opacity="0.9"/>
<stop offset="1" stop-color="#020202" stop-opacity="0.8"/>
</linearGradient>
<linearGradient id="paint10_linear_5075_9242" x1="456.718" y1="680.879" x2="461.608" y2="736.66" gradientUnits="userSpaceOnUse">
<stop stop-color="#020202" stop-opacity="0.9"/>
<stop offset="1" stop-color="#020202" stop-opacity="0.8"/>
</linearGradient>
<linearGradient id="paint11_linear_5075_9242" x1="509.695" y1="650.291" x2="514.584" y2="706.073" gradientUnits="userSpaceOnUse">
<stop stop-color="#020202" stop-opacity="0.9"/>
<stop offset="1" stop-color="#020202" stop-opacity="0.8"/>
</linearGradient>
<linearGradient id="paint12_linear_5075_9242" x1="562.677" y1="619.703" x2="567.567" y2="675.485" gradientUnits="userSpaceOnUse">
<stop stop-color="#020202" stop-opacity="0.9"/>
<stop offset="1" stop-color="#020202" stop-opacity="0.8"/>
</linearGradient>
<linearGradient id="paint13_linear_5075_9242" x1="615.972" y1="588.934" x2="620.861" y2="644.715" gradientUnits="userSpaceOnUse">
<stop stop-color="#020202" stop-opacity="0.9"/>
<stop offset="1" stop-color="#020202" stop-opacity="0.8"/>
</linearGradient>
<linearGradient id="paint14_linear_5075_9242" x1="720.388" y1="528.649" x2="725.278" y2="584.431" gradientUnits="userSpaceOnUse">
<stop stop-color="#020202" stop-opacity="0.9"/>
<stop offset="1" stop-color="#020202" stop-opacity="0.8"/>
</linearGradient>
<linearGradient id="paint15_linear_5075_9242" x1="773.365" y1="498.059" x2="778.254" y2="553.841" gradientUnits="userSpaceOnUse">
<stop stop-color="#020202" stop-opacity="0.9"/>
<stop offset="1" stop-color="#020202" stop-opacity="0.8"/>
</linearGradient>
<linearGradient id="paint16_linear_5075_9242" x1="873.402" y1="419.315" x2="882.475" y2="518.771" gradientUnits="userSpaceOnUse">
<stop stop-color="#020202" stop-opacity="0.8"/>
<stop offset="1" stop-color="#020202" stop-opacity="0.7"/>
</linearGradient>
<linearGradient id="paint17_linear_5075_9242" x1="945.056" y1="436.594" x2="901.271" y2="477.244" gradientUnits="userSpaceOnUse">
<stop stop-color="#020202" stop-opacity="0.2"/>
<stop offset="1" stop-color="#020202" stop-opacity="0"/>
</linearGradient>
<linearGradient id="paint18_linear_5075_9242" x1="964.887" y1="457.334" x2="907.791" y2="502.052" gradientUnits="userSpaceOnUse">
<stop stop-color="#020202" stop-opacity="0.2"/>
<stop offset="1" stop-color="#020202" stop-opacity="0"/>
</linearGradient>
<linearGradient id="paint19_linear_5075_9242" x1="907.787" y1="509.719" x2="882.9" y2="474.937" gradientUnits="userSpaceOnUse">
<stop stop-color="#020202" stop-opacity="0.2"/>
<stop offset="1" stop-color="#020202" stop-opacity="0"/>
</linearGradient>
<linearGradient id="paint20_linear_5075_9242" x1="245.044" y1="689.939" x2="251.584" y2="726.941" gradientUnits="userSpaceOnUse">
<stop stop-color="#020202" stop-opacity="0.9"/>
<stop offset="1" stop-color="#020202" stop-opacity="0.8"/>
</linearGradient>
<linearGradient id="paint21_linear_5075_9242" x1="269.599" y1="704.115" x2="276.139" y2="741.118" gradientUnits="userSpaceOnUse">
<stop stop-color="#020202" stop-opacity="0.9"/>
<stop offset="1" stop-color="#020202" stop-opacity="0.8"/>
</linearGradient>
<linearGradient id="paint22_linear_5075_9242" x1="220.489" y1="675.763" x2="227.029" y2="712.766" gradientUnits="userSpaceOnUse">
<stop stop-color="#020202" stop-opacity="0.9"/>
<stop offset="1" stop-color="#020202" stop-opacity="0.8"/>
</linearGradient>
<linearGradient id="paint23_linear_5075_9242" x1="232.765" y1="682.851" x2="239.305" y2="719.855" gradientUnits="userSpaceOnUse">
<stop stop-color="#020202" stop-opacity="0.9"/>
<stop offset="1" stop-color="#020202" stop-opacity="0.8"/>
</linearGradient>
<linearGradient id="paint24_linear_5075_9242" x1="257.323" y1="697.029" x2="263.863" y2="734.031" gradientUnits="userSpaceOnUse">
<stop stop-color="#020202" stop-opacity="0.9"/>
<stop offset="1" stop-color="#020202" stop-opacity="0.8"/>
</linearGradient>
<linearGradient id="paint25_linear_5075_9242" x1="208.21" y1="668.674" x2="214.75" y2="705.675" gradientUnits="userSpaceOnUse">
<stop stop-color="#020202" stop-opacity="0.9"/>
<stop offset="1" stop-color="#020202" stop-opacity="0.8"/>
</linearGradient>
<linearGradient id="paint26_linear_5075_9242" x1="195.933" y1="661.693" x2="202.473" y2="698.695" gradientUnits="userSpaceOnUse">
<stop stop-color="#020202" stop-opacity="0.9"/>
<stop offset="1" stop-color="#020202" stop-opacity="0.8"/>
</linearGradient>
<linearGradient id="paint27_linear_5075_9242" x1="403.159" y1="775.751" x2="404.725" y2="786.646" gradientUnits="userSpaceOnUse">
<stop stop-color="#FEFEFE" stop-opacity="0.3"/>
<stop offset="1" stop-color="#FEFEFE" stop-opacity="0.3"/>
</linearGradient>
<linearGradient id="paint28_linear_5075_9242" x1="509.122" y1="714.575" x2="510.688" y2="725.471" gradientUnits="userSpaceOnUse">
<stop stop-color="#FEFEFE" stop-opacity="0.3"/>
<stop offset="1" stop-color="#FEFEFE" stop-opacity="0.3"/>
</linearGradient>
<linearGradient id="paint29_linear_5075_9242" x1="456.142" y1="745.165" x2="457.707" y2="756.06" gradientUnits="userSpaceOnUse">
<stop stop-color="#FEFEFE" stop-opacity="0.3"/>
<stop offset="1" stop-color="#FEFEFE" stop-opacity="0.3"/>
</linearGradient>
<linearGradient id="paint30_linear_5075_9242" x1="561.941" y1="684.079" x2="563.506" y2="694.974" gradientUnits="userSpaceOnUse">
<stop stop-color="#FEFEFE" stop-opacity="0.3"/>
<stop offset="1" stop-color="#FEFEFE" stop-opacity="0.3"/>
</linearGradient>
<linearGradient id="paint31_linear_5075_9242" x1="615.232" y1="653.311" x2="616.797" y2="664.207" gradientUnits="userSpaceOnUse">
<stop stop-color="#FEFEFE" stop-opacity="0.3"/>
<stop offset="1" stop-color="#FEFEFE" stop-opacity="0.3"/>
</linearGradient>
<linearGradient id="paint32_linear_5075_9242" x1="719.812" y1="592.934" x2="721.377" y2="603.83" gradientUnits="userSpaceOnUse">
<stop stop-color="#FEFEFE" stop-opacity="0.3"/>
<stop offset="1" stop-color="#FEFEFE" stop-opacity="0.3"/>
</linearGradient>
<linearGradient id="paint33_linear_5075_9242" x1="772.792" y1="562.346" x2="774.357" y2="573.242" gradientUnits="userSpaceOnUse">
<stop stop-color="#FEFEFE" stop-opacity="0.3"/>
<stop offset="1" stop-color="#FEFEFE" stop-opacity="0.3"/>
</linearGradient>
<linearGradient id="paint34_linear_5075_9242" x1="441.637" y1="732.19" x2="446.438" y2="742.187" gradientUnits="userSpaceOnUse">
<stop stop-color="#FEFEFE" stop-opacity="0.35"/>
<stop offset="1" stop-color="#FEFEFE" stop-opacity="0.35"/>
</linearGradient>
<linearGradient id="paint35_linear_5075_9242" x1="408.452" y1="751.35" x2="413.251" y2="761.349" gradientUnits="userSpaceOnUse">
<stop stop-color="#FEFEFE" stop-opacity="0.35"/>
<stop offset="1" stop-color="#FEFEFE" stop-opacity="0.35"/>
</linearGradient>
<linearGradient id="paint36_linear_5075_9242" x1="417.934" y1="745.877" x2="422.733" y2="755.877" gradientUnits="userSpaceOnUse">
<stop stop-color="#FEFEFE" stop-opacity="0.35"/>
<stop offset="1" stop-color="#FEFEFE" stop-opacity="0.35"/>
</linearGradient>
<linearGradient id="paint37_linear_5075_9242" x1="422.674" y1="743.139" x2="427.475" y2="753.136" gradientUnits="userSpaceOnUse">
<stop stop-color="#FEFEFE" stop-opacity="0.35"/>
<stop offset="1" stop-color="#FEFEFE" stop-opacity="0.35"/>
</linearGradient>
<linearGradient id="paint38_linear_5075_9242" x1="427.418" y1="740.405" x2="432.219" y2="750.402" gradientUnits="userSpaceOnUse">
<stop stop-color="#FEFEFE" stop-opacity="0.35"/>
<stop offset="1" stop-color="#FEFEFE" stop-opacity="0.35"/>
</linearGradient>
<linearGradient id="paint39_linear_5075_9242" x1="432.153" y1="737.666" x2="436.952" y2="747.666" gradientUnits="userSpaceOnUse">
<stop stop-color="#FEFEFE" stop-opacity="0.35"/>
<stop offset="1" stop-color="#FEFEFE" stop-opacity="0.35"/>
</linearGradient>
<linearGradient id="paint40_linear_5075_9242" x1="436.897" y1="734.928" x2="441.698" y2="744.925" gradientUnits="userSpaceOnUse">
<stop stop-color="#FEFEFE" stop-opacity="0.35"/>
<stop offset="1" stop-color="#FEFEFE" stop-opacity="0.35"/>
</linearGradient>
<linearGradient id="paint41_linear_5075_9242" x1="413.192" y1="748.615" x2="417.993" y2="758.613" gradientUnits="userSpaceOnUse">
<stop stop-color="#FEFEFE" stop-opacity="0.35"/>
<stop offset="1" stop-color="#FEFEFE" stop-opacity="0.35"/>
</linearGradient>
<linearGradient id="paint42_linear_5075_9242" x1="403.168" y1="710.571" x2="408.22" y2="767.994" gradientUnits="userSpaceOnUse">
<stop stop-color="#FEFEFE" stop-opacity="0.35"/>
<stop offset="1" stop-color="#FEFEFE" stop-opacity="0.35"/>
</linearGradient>
<linearGradient id="paint43_linear_5075_9242" x1="494.618" y1="701.604" x2="499.417" y2="711.603" gradientUnits="userSpaceOnUse">
<stop stop-color="#FEFEFE" stop-opacity="0.35"/>
<stop offset="1" stop-color="#FEFEFE" stop-opacity="0.35"/>
</linearGradient>
<linearGradient id="paint44_linear_5075_9242" x1="461.432" y1="720.764" x2="466.233" y2="730.761" gradientUnits="userSpaceOnUse">
<stop stop-color="#FEFEFE" stop-opacity="0.35"/>
<stop offset="1" stop-color="#FEFEFE" stop-opacity="0.35"/>
</linearGradient>
<linearGradient id="paint45_linear_5075_9242" x1="470.912" y1="715.289" x2="475.713" y2="725.287" gradientUnits="userSpaceOnUse">
<stop stop-color="#FEFEFE" stop-opacity="0.35"/>
<stop offset="1" stop-color="#FEFEFE" stop-opacity="0.35"/>
</linearGradient>
<linearGradient id="paint46_linear_5075_9242" x1="475.653" y1="712.553" x2="480.454" y2="722.55" gradientUnits="userSpaceOnUse">
<stop stop-color="#FEFEFE" stop-opacity="0.35"/>
<stop offset="1" stop-color="#FEFEFE" stop-opacity="0.35"/>
</linearGradient>
<linearGradient id="paint47_linear_5075_9242" x1="480.395" y1="709.813" x2="485.194" y2="719.812" gradientUnits="userSpaceOnUse">
<stop stop-color="#FEFEFE" stop-opacity="0.35"/>
<stop offset="1" stop-color="#FEFEFE" stop-opacity="0.35"/>
</linearGradient>
<linearGradient id="paint48_linear_5075_9242" x1="485.135" y1="707.078" x2="489.936" y2="717.076" gradientUnits="userSpaceOnUse">
<stop stop-color="#FEFEFE" stop-opacity="0.35"/>
<stop offset="1" stop-color="#FEFEFE" stop-opacity="0.35"/>
</linearGradient>
<linearGradient id="paint49_linear_5075_9242" x1="489.877" y1="704.34" x2="494.678" y2="714.338" gradientUnits="userSpaceOnUse">
<stop stop-color="#FEFEFE" stop-opacity="0.35"/>
<stop offset="1" stop-color="#FEFEFE" stop-opacity="0.35"/>
</linearGradient>
<linearGradient id="paint50_linear_5075_9242" x1="466.168" y1="718.028" x2="470.968" y2="728.027" gradientUnits="userSpaceOnUse">
<stop stop-color="#FEFEFE" stop-opacity="0.35"/>
<stop offset="1" stop-color="#FEFEFE" stop-opacity="0.35"/>
</linearGradient>
<linearGradient id="paint51_linear_5075_9242" x1="456.15" y1="679.985" x2="461.203" y2="737.408" gradientUnits="userSpaceOnUse">
<stop stop-color="#FEFEFE" stop-opacity="0.35"/>
<stop offset="1" stop-color="#FEFEFE" stop-opacity="0.35"/>
</linearGradient>
<linearGradient id="paint52_linear_5075_9242" x1="547.6" y1="671.014" x2="552.401" y2="681.011" gradientUnits="userSpaceOnUse">
<stop stop-color="#FEFEFE" stop-opacity="0.35"/>
<stop offset="1" stop-color="#FEFEFE" stop-opacity="0.35"/>
</linearGradient>
<linearGradient id="paint53_linear_5075_9242" x1="514.411" y1="690.174" x2="519.21" y2="700.174" gradientUnits="userSpaceOnUse">
<stop stop-color="#FEFEFE" stop-opacity="0.35"/>
<stop offset="1" stop-color="#FEFEFE" stop-opacity="0.35"/>
</linearGradient>
<linearGradient id="paint54_linear_5075_9242" x1="523.893" y1="684.701" x2="528.694" y2="694.699" gradientUnits="userSpaceOnUse">
<stop stop-color="#FEFEFE" stop-opacity="0.35"/>
<stop offset="1" stop-color="#FEFEFE" stop-opacity="0.35"/>
</linearGradient>
<linearGradient id="paint55_linear_5075_9242" x1="528.633" y1="681.965" x2="533.432" y2="691.965" gradientUnits="userSpaceOnUse">
<stop stop-color="#FEFEFE" stop-opacity="0.35"/>
<stop offset="1" stop-color="#FEFEFE" stop-opacity="0.35"/>
</linearGradient>
<linearGradient id="paint56_linear_5075_9242" x1="533.377" y1="679.227" x2="538.178" y2="689.224" gradientUnits="userSpaceOnUse">
<stop stop-color="#FEFEFE" stop-opacity="0.35"/>
<stop offset="1" stop-color="#FEFEFE" stop-opacity="0.35"/>
</linearGradient>
<linearGradient id="paint57_linear_5075_9242" x1="538.112" y1="676.49" x2="542.913" y2="686.488" gradientUnits="userSpaceOnUse">
<stop stop-color="#FEFEFE" stop-opacity="0.35"/>
<stop offset="1" stop-color="#FEFEFE" stop-opacity="0.35"/>
</linearGradient>
<linearGradient id="paint58_linear_5075_9242" x1="542.856" y1="673.752" x2="547.655" y2="683.752" gradientUnits="userSpaceOnUse">
<stop stop-color="#FEFEFE" stop-opacity="0.35"/>
<stop offset="1" stop-color="#FEFEFE" stop-opacity="0.35"/>
</linearGradient>
<linearGradient id="paint59_linear_5075_9242" x1="519.151" y1="687.44" x2="523.952" y2="697.437" gradientUnits="userSpaceOnUse">
<stop stop-color="#FEFEFE" stop-opacity="0.35"/>
<stop offset="1" stop-color="#FEFEFE" stop-opacity="0.35"/>
</linearGradient>
<linearGradient id="paint60_linear_5075_9242" x1="509.126" y1="649.395" x2="514.179" y2="706.817" gradientUnits="userSpaceOnUse">
<stop stop-color="#FEFEFE" stop-opacity="0.35"/>
<stop offset="1" stop-color="#FEFEFE" stop-opacity="0.35"/>
</linearGradient>
<linearGradient id="paint61_linear_5075_9242" x1="600.577" y1="640.426" x2="605.378" y2="650.423" gradientUnits="userSpaceOnUse">
<stop stop-color="#FEFEFE" stop-opacity="0.35"/>
<stop offset="1" stop-color="#FEFEFE" stop-opacity="0.35"/>
</linearGradient>
<linearGradient id="paint62_linear_5075_9242" x1="567.393" y1="659.586" x2="572.194" y2="669.584" gradientUnits="userSpaceOnUse">
<stop stop-color="#FEFEFE" stop-opacity="0.35"/>
<stop offset="1" stop-color="#FEFEFE" stop-opacity="0.35"/>
</linearGradient>
<linearGradient id="paint63_linear_5075_9242" x1="576.875" y1="654.112" x2="581.675" y2="664.111" gradientUnits="userSpaceOnUse">
<stop stop-color="#FEFEFE" stop-opacity="0.35"/>
<stop offset="1" stop-color="#FEFEFE" stop-opacity="0.35"/>
</linearGradient>
<linearGradient id="paint64_linear_5075_9242" x1="581.616" y1="651.375" x2="586.416" y2="661.373" gradientUnits="userSpaceOnUse">
<stop stop-color="#FEFEFE" stop-opacity="0.35"/>
<stop offset="1" stop-color="#FEFEFE" stop-opacity="0.35"/>
</linearGradient>
<linearGradient id="paint65_linear_5075_9242" x1="586.354" y1="648.637" x2="591.155" y2="658.634" gradientUnits="userSpaceOnUse">
<stop stop-color="#FEFEFE" stop-opacity="0.35"/>
<stop offset="1" stop-color="#FEFEFE" stop-opacity="0.35"/>
</linearGradient>
<linearGradient id="paint66_linear_5075_9242" x1="591.094" y1="645.901" x2="595.893" y2="655.9" gradientUnits="userSpaceOnUse">
<stop stop-color="#FEFEFE" stop-opacity="0.35"/>
<stop offset="1" stop-color="#FEFEFE" stop-opacity="0.35"/>
</linearGradient>
<linearGradient id="paint67_linear_5075_9242" x1="595.838" y1="643.162" x2="600.639" y2="653.16" gradientUnits="userSpaceOnUse">
<stop stop-color="#FEFEFE" stop-opacity="0.35"/>
<stop offset="1" stop-color="#FEFEFE" stop-opacity="0.35"/>
</linearGradient>
<linearGradient id="paint68_linear_5075_9242" x1="572.131" y1="656.852" x2="576.932" y2="666.849" gradientUnits="userSpaceOnUse">
<stop stop-color="#FEFEFE" stop-opacity="0.35"/>
<stop offset="1" stop-color="#FEFEFE" stop-opacity="0.35"/>
</linearGradient>
<linearGradient id="paint69_linear_5075_9242" x1="562.109" y1="618.807" x2="567.162" y2="676.23" gradientUnits="userSpaceOnUse">
<stop stop-color="#FEFEFE" stop-opacity="0.35"/>
<stop offset="1" stop-color="#FEFEFE" stop-opacity="0.35"/>
</linearGradient>
<linearGradient id="paint70_linear_5075_9242" x1="653.871" y1="609.658" x2="658.672" y2="619.656" gradientUnits="userSpaceOnUse">
<stop stop-color="#FEFEFE" stop-opacity="0.35"/>
<stop offset="1" stop-color="#FEFEFE" stop-opacity="0.35"/>
</linearGradient>
<linearGradient id="paint71_linear_5075_9242" x1="620.686" y1="628.817" x2="625.485" y2="638.816" gradientUnits="userSpaceOnUse">
<stop stop-color="#FEFEFE" stop-opacity="0.35"/>
<stop offset="1" stop-color="#FEFEFE" stop-opacity="0.35"/>
</linearGradient>
<linearGradient id="paint72_linear_5075_9242" x1="630.168" y1="623.344" x2="634.969" y2="633.341" gradientUnits="userSpaceOnUse">
<stop stop-color="#FEFEFE" stop-opacity="0.35"/>
<stop offset="1" stop-color="#FEFEFE" stop-opacity="0.35"/>
</linearGradient>
<linearGradient id="paint73_linear_5075_9242" x1="634.905" y1="620.606" x2="639.704" y2="630.605" gradientUnits="userSpaceOnUse">
<stop stop-color="#FEFEFE" stop-opacity="0.35"/>
<stop offset="1" stop-color="#FEFEFE" stop-opacity="0.35"/>
</linearGradient>
<linearGradient id="paint74_linear_5075_9242" x1="639.649" y1="617.869" x2="644.45" y2="627.867" gradientUnits="userSpaceOnUse">
<stop stop-color="#FEFEFE" stop-opacity="0.35"/>
<stop offset="1" stop-color="#FEFEFE" stop-opacity="0.35"/>
</linearGradient>
<linearGradient id="paint75_linear_5075_9242" x1="644.387" y1="615.133" x2="649.188" y2="625.13" gradientUnits="userSpaceOnUse">
<stop stop-color="#FEFEFE" stop-opacity="0.35"/>
<stop offset="1" stop-color="#FEFEFE" stop-opacity="0.35"/>
</linearGradient>
<linearGradient id="paint76_linear_5075_9242" x1="649.131" y1="612.397" x2="653.931" y2="622.397" gradientUnits="userSpaceOnUse">
<stop stop-color="#FEFEFE" stop-opacity="0.35"/>
<stop offset="1" stop-color="#FEFEFE" stop-opacity="0.35"/>
</linearGradient>
<linearGradient id="paint77_linear_5075_9242" x1="625.426" y1="626.082" x2="630.227" y2="636.08" gradientUnits="userSpaceOnUse">
<stop stop-color="#FEFEFE" stop-opacity="0.35"/>
<stop offset="1" stop-color="#FEFEFE" stop-opacity="0.35"/>
</linearGradient>
<linearGradient id="paint78_linear_5075_9242" x1="615.404" y1="588.037" x2="620.456" y2="645.461" gradientUnits="userSpaceOnUse">
<stop stop-color="#FEFEFE" stop-opacity="0.35"/>
<stop offset="1" stop-color="#FEFEFE" stop-opacity="0.35"/>
</linearGradient>
<linearGradient id="paint79_linear_5075_9242" x1="758.287" y1="549.373" x2="763.087" y2="559.373" gradientUnits="userSpaceOnUse">
<stop stop-color="#FEFEFE" stop-opacity="0.35"/>
<stop offset="1" stop-color="#FEFEFE" stop-opacity="0.35"/>
</linearGradient>
<linearGradient id="paint80_linear_5075_9242" x1="725.102" y1="568.533" x2="729.903" y2="578.531" gradientUnits="userSpaceOnUse">
<stop stop-color="#FEFEFE" stop-opacity="0.35"/>
<stop offset="1" stop-color="#FEFEFE" stop-opacity="0.35"/>
</linearGradient>
<linearGradient id="paint81_linear_5075_9242" x1="734.586" y1="563.057" x2="739.388" y2="573.055" gradientUnits="userSpaceOnUse">
<stop stop-color="#FEFEFE" stop-opacity="0.35"/>
<stop offset="1" stop-color="#FEFEFE" stop-opacity="0.35"/>
</linearGradient>
<linearGradient id="paint82_linear_5075_9242" x1="739.321" y1="560.322" x2="744.122" y2="570.32" gradientUnits="userSpaceOnUse">
<stop stop-color="#FEFEFE" stop-opacity="0.35"/>
<stop offset="1" stop-color="#FEFEFE" stop-opacity="0.35"/>
</linearGradient>
<linearGradient id="paint83_linear_5075_9242" x1="744.065" y1="557.584" x2="748.864" y2="567.584" gradientUnits="userSpaceOnUse">
<stop stop-color="#FEFEFE" stop-opacity="0.35"/>
<stop offset="1" stop-color="#FEFEFE" stop-opacity="0.35"/>
</linearGradient>
<linearGradient id="paint84_linear_5075_9242" x1="748.805" y1="554.85" x2="753.607" y2="564.848" gradientUnits="userSpaceOnUse">
<stop stop-color="#FEFEFE" stop-opacity="0.35"/>
<stop offset="1" stop-color="#FEFEFE" stop-opacity="0.35"/>
</linearGradient>
<linearGradient id="paint85_linear_5075_9242" x1="753.547" y1="552.112" x2="758.348" y2="562.109" gradientUnits="userSpaceOnUse">
<stop stop-color="#FEFEFE" stop-opacity="0.35"/>
<stop offset="1" stop-color="#FEFEFE" stop-opacity="0.35"/>
</linearGradient>
<linearGradient id="paint86_linear_5075_9242" x1="729.842" y1="565.797" x2="734.641" y2="575.797" gradientUnits="userSpaceOnUse">
<stop stop-color="#FEFEFE" stop-opacity="0.35"/>
<stop offset="1" stop-color="#FEFEFE" stop-opacity="0.35"/>
</linearGradient>
<linearGradient id="paint87_linear_5075_9242" x1="719.82" y1="527.754" x2="724.872" y2="585.177" gradientUnits="userSpaceOnUse">
<stop stop-color="#FEFEFE" stop-opacity="0.35"/>
<stop offset="1" stop-color="#FEFEFE" stop-opacity="0.35"/>
</linearGradient>
<linearGradient id="paint88_linear_5075_9242" x1="811.27" y1="518.785" x2="816.071" y2="528.783" gradientUnits="userSpaceOnUse">
<stop stop-color="#FEFEFE" stop-opacity="0.35"/>
<stop offset="1" stop-color="#FEFEFE" stop-opacity="0.35"/>
</linearGradient>
<linearGradient id="paint89_linear_5075_9242" x1="778.08" y1="537.944" x2="782.88" y2="547.943" gradientUnits="userSpaceOnUse">
<stop stop-color="#FEFEFE" stop-opacity="0.35"/>
<stop offset="1" stop-color="#FEFEFE" stop-opacity="0.35"/>
</linearGradient>
<linearGradient id="paint90_linear_5075_9242" x1="787.563" y1="532.471" x2="792.364" y2="542.468" gradientUnits="userSpaceOnUse">
<stop stop-color="#FEFEFE" stop-opacity="0.35"/>
<stop offset="1" stop-color="#FEFEFE" stop-opacity="0.35"/>
</linearGradient>
<linearGradient id="paint91_linear_5075_9242" x1="792.303" y1="529.735" x2="797.103" y2="539.735" gradientUnits="userSpaceOnUse">
<stop stop-color="#FEFEFE" stop-opacity="0.35"/>
<stop offset="1" stop-color="#FEFEFE" stop-opacity="0.35"/>
</linearGradient>
<linearGradient id="paint92_linear_5075_9242" x1="797.047" y1="526.994" x2="801.848" y2="536.992" gradientUnits="userSpaceOnUse">
<stop stop-color="#FEFEFE" stop-opacity="0.35"/>
<stop offset="1" stop-color="#FEFEFE" stop-opacity="0.35"/>
</linearGradient>
<linearGradient id="paint93_linear_5075_9242" x1="801.786" y1="524.26" x2="806.586" y2="534.257" gradientUnits="userSpaceOnUse">
<stop stop-color="#FEFEFE" stop-opacity="0.35"/>
<stop offset="1" stop-color="#FEFEFE" stop-opacity="0.35"/>
</linearGradient>
<linearGradient id="paint94_linear_5075_9242" x1="806.526" y1="521.522" x2="811.325" y2="531.521" gradientUnits="userSpaceOnUse">
<stop stop-color="#FEFEFE" stop-opacity="0.35"/>
<stop offset="1" stop-color="#FEFEFE" stop-opacity="0.35"/>
</linearGradient>
<linearGradient id="paint95_linear_5075_9242" x1="782.821" y1="535.209" x2="787.622" y2="545.207" gradientUnits="userSpaceOnUse">
<stop stop-color="#FEFEFE" stop-opacity="0.35"/>
<stop offset="1" stop-color="#FEFEFE" stop-opacity="0.35"/>
</linearGradient>
<linearGradient id="paint96_linear_5075_9242" x1="772.796" y1="497.166" x2="777.849" y2="554.589" gradientUnits="userSpaceOnUse">
<stop stop-color="#FEFEFE" stop-opacity="0.35"/>
<stop offset="1" stop-color="#FEFEFE" stop-opacity="0.35"/>
</linearGradient>
<linearGradient id="paint97_linear_5075_9242" x1="735.709" y1="415.637" x2="533.01" y2="532.665" gradientUnits="userSpaceOnUse">
<stop stop-color="#FEFEFE" stop-opacity="0"/>
<stop offset="1" stop-color="#FEFEFE" stop-opacity="0.3"/>
</linearGradient>
<linearGradient id="paint98_linear_5075_9242" x1="780.056" y1="333.262" x2="816.582" y2="442.944" gradientUnits="userSpaceOnUse">
<stop stop-color="#FEFEFE" stop-opacity="0.57"/>
<stop offset="1" stop-color="#FEFEFE" stop-opacity="0"/>
</linearGradient>
<linearGradient id="paint99_linear_5075_9242" x1="526.869" y1="412.776" x2="337.557" y2="528.77" gradientUnits="userSpaceOnUse">
<stop stop-color="#FEFEFE" stop-opacity="0.3"/>
<stop offset="1" stop-color="#FEFEFE" stop-opacity="0"/>
</linearGradient>
<linearGradient id="paint100_linear_5075_9242" x1="805.385" y1="330.688" x2="501.335" y2="506.231" gradientUnits="userSpaceOnUse">
<stop stop-color="#FEFEFE" stop-opacity="0"/>
<stop offset="1" stop-color="#FEFEFE" stop-opacity="0.3"/>
</linearGradient>
<linearGradient id="paint101_linear_5075_9242" x1="665.31" y1="374.989" x2="628.023" y2="353.461" gradientUnits="userSpaceOnUse">
<stop stop-color="#FEFEFE" stop-opacity="0"/>
<stop offset="1" stop-color="#FEFEFE" stop-opacity="0.3"/>
</linearGradient>
<linearGradient id="paint102_linear_5075_9242" x1="469.666" y1="504.234" x2="533.01" y2="532.661" gradientUnits="userSpaceOnUse">
<stop stop-color="#FEFEFE" stop-opacity="0"/>
<stop offset="1" stop-color="#FEFEFE" stop-opacity="0.3"/>
</linearGradient>
<linearGradient id="paint103_linear_5075_9242" x1="787.102" y1="445.304" x2="735.708" y2="415.632" gradientUnits="userSpaceOnUse">
<stop stop-color="#FEFEFE" stop-opacity="0.3"/>
<stop offset="1" stop-color="#FEFEFE" stop-opacity="0"/>
</linearGradient>
<linearGradient id="paint104_linear_5075_9242" x1="368.511" y1="562.929" x2="191.089" y2="561.235" gradientUnits="userSpaceOnUse">
<stop stop-color="#FEFEFE" stop-opacity="0.3"/>
<stop offset="1" stop-color="#FEFEFE" stop-opacity="0"/>
</linearGradient>
<linearGradient id="paint105_linear_5075_9242" x1="496.027" y1="384.071" x2="191.145" y2="561.268" gradientUnits="userSpaceOnUse">
<stop stop-color="#FEFEFE" stop-opacity="0"/>
<stop offset="1" stop-color="#FEFEFE" stop-opacity="0.3"/>
</linearGradient>
</defs>
</svg>
