<svg width="128" height="128" viewBox="0 0 128 128" fill="none" xmlns="http://www.w3.org/2000/svg">
<g clip-path="url(#clip0_5027_153862)">
<path d="M100 0H28C12.5 0 0 12.5 0 28V100C0 115.5 12.5 128 28 128H100C115.5 128 128 115.5 128 100V28C128 12.5 115.5 0 100 0ZM24.1 104.4C19.4 104.4 15.6 100.6 15.6 95.9C15.6 91.2 19.4 87.4 24.1 87.4C28.8 87.4 32.6 91.2 32.6 95.9C32.6 100.6 28.8 104.4 24.1 104.4ZM24.1 72.5C19.4 72.5 15.6 68.7 15.6 64C15.6 59.3 19.4 55.5 24.1 55.5C28.8 55.5 32.6 59.3 32.6 64C32.6 68.7 28.8 72.5 24.1 72.5ZM24.1 40.6C19.4 40.6 15.6 36.8 15.6 32.1C15.6 27.4 19.4 23.6 24.1 23.6C28.8 23.6 32.6 27.4 32.6 32.1C32.6 36.8 28.8 40.6 24.1 40.6ZM112.1 96.9H47.9C47.3 96.9 46.8 96.4 46.8 95.8C46.8 95.2 47.3 94.7 47.9 94.7H112C112.6 94.7 113.1 95.2 113.1 95.8C113.1 96.4 112.6 96.9 112.1 96.9ZM112.1 65H47.9C47.3 65 46.8 64.5 46.8 63.9C46.8 63.3 47.3 62.8 47.9 62.8H112C112.6 62.8 113.1 63.3 113.1 63.9C113.1 64.5 112.6 65 112.1 65ZM112.1 33.1H47.9C47.3 33.1 46.8 32.6 46.8 32C46.8 31.4 47.3 30.9 47.9 30.9H112C112.6 30.9 113.1 31.4 113.1 32C113.1 32.6 112.6 33.1 112.1 33.1Z" fill="white"/>
<path d="M112.1 31H47.9001C47.3001 31 46.8 31.5 46.8 32.1C46.8 32.7 47.3001 33.2 47.9001 33.2H112C112.6 33.2 113.1 32.7 113.1 32.1C113.1 31.5 112.6 31 112.1 31Z" fill="#D1D1D6"/>
<path d="M112.1 62.9H47.9001C47.3001 62.9 46.8 63.4 46.8 64C46.8 64.6 47.3001 65.1 47.9001 65.1H112C112.6 65.1 113.1 64.6 113.1 64C113.1 63.4 112.6 62.9 112.1 62.9Z" fill="#D1D1D6"/>
<path d="M112.1 94.8H47.9001C47.3001 94.8 46.8 95.3001 46.8 95.9001C46.8 96.5001 47.3001 97.0001 47.9001 97.0001H112C112.6 97.0001 113.1 96.5001 113.1 95.9001C113.1 95.3001 112.6 94.8 112.1 94.8Z" fill="#D1D1D6"/>
<path d="M24.0996 40.6001C28.794 40.6001 32.5996 36.7945 32.5996 32.1001C32.5996 27.4057 28.794 23.6001 24.0996 23.6001C19.4052 23.6001 15.5996 27.4057 15.5996 32.1001C15.5996 36.7945 19.4052 40.6001 24.0996 40.6001Z" fill="#007AFF"/>
<path d="M24.0996 72.5C28.794 72.5 32.5996 68.6944 32.5996 64C32.5996 59.3056 28.794 55.5 24.0996 55.5C19.4052 55.5 15.5996 59.3056 15.5996 64C15.5996 68.6944 19.4052 72.5 24.0996 72.5Z" fill="#FF3B30"/>
<path d="M24.0996 104.4C28.794 104.4 32.5996 100.594 32.5996 95.8999C32.5996 91.2055 28.794 87.3999 24.0996 87.3999C19.4052 87.3999 15.5996 91.2055 15.5996 95.8999C15.5996 100.594 19.4052 104.4 24.0996 104.4Z" fill="#FF9500"/>
</g>
<defs>
<clipPath id="clip0_5027_153862">
<rect width="128" height="128" fill="white"/>
</clipPath>
</defs>
</svg>
