<svg width="128" height="128" viewBox="0 0 128 128" fill="none" xmlns="http://www.w3.org/2000/svg">
<g clip-path="url(#clip0_5027_153748)">
<path fill-rule="evenodd" clip-rule="evenodd" d="M100 128H28C12.5 128 0 115.5 0 100V28C0 12.5 12.5 0 28 0H100C115.5 0 128 12.5 128 28V100C128 115.5 115.5 128 100 128Z" fill="#D4D4D2"/>
<path fill-rule="evenodd" clip-rule="evenodd" d="M39.2001 16.5H88.7001C93.3001 16.5 97.1 20.2 97.1 24.9V103.1C97.1 107.7 93.4001 111.5 88.7001 111.5H39.2001C34.6001 111.5 30.8 107.8 30.8 103.1V24.9C30.9 20.2 34.6001 16.5 39.2001 16.5Z" fill="#1D1D1D"/>
<path fill-rule="evenodd" clip-rule="evenodd" d="M44.0001 91.2H64.0001C67.8001 91.2 70.9001 94.3 70.9001 98.1C70.9001 101.9 67.8001 105 64.0001 105H44.0001C40.2001 105 37.1001 101.9 37.1001 98.1C37.1001 94.3 40.2001 91.2 44.0001 91.2Z" fill="#EFEFF4"/>
<path fill-rule="evenodd" clip-rule="evenodd" d="M84.0001 105C80.2001 105 77.1001 101.9 77.1001 98.1C77.1001 94.3 80.2001 91.2 84.0001 91.2C87.8001 91.2 90.9001 94.3 90.9001 98.1C90.9001 101.9 87.8001 105 84.0001 105Z" fill="#FF9500"/>
<path fill-rule="evenodd" clip-rule="evenodd" d="M84.0001 71.2C87.8001 71.2 90.9001 74.3 90.9001 78.1C90.9001 81.9 87.8001 85 84.0001 85C80.2001 85 77.1001 81.9 77.1001 78.1C77.1001 74.3 80.2001 71.2 84.0001 71.2Z" fill="#FF9500"/>
<path fill-rule="evenodd" clip-rule="evenodd" d="M64.0001 65C60.2001 65 57.1001 61.9 57.1001 58.1C57.1001 54.3 60.2001 51.2 64.0001 51.2C67.8001 51.2 70.9001 54.3 70.9001 58.1C70.9001 61.9 67.8001 65 64.0001 65Z" fill="#EFEFF4"/>
<path fill-rule="evenodd" clip-rule="evenodd" d="M64.0001 84.9C60.2001 84.9 57.1001 81.8 57.1001 78C57.1001 74.2 60.2001 71.1 64.0001 71.1C67.8001 71.1 70.9001 74.2 70.9001 78C70.9001 81.8 67.8001 84.9 64.0001 84.9Z" fill="#EFEFF4"/>
<path fill-rule="evenodd" clip-rule="evenodd" d="M44.0001 71.2C47.8001 71.2 50.9001 74.3 50.9001 78.1C50.9001 81.9 47.8001 85 44.0001 85C40.2001 85 37.1001 81.9 37.1001 78.1C37.1001 74.3 40.2001 71.2 44.0001 71.2Z" fill="#EFEFF4"/>
<path fill-rule="evenodd" clip-rule="evenodd" d="M44.0001 51.2C47.8001 51.2 50.9001 54.3 50.9001 58.1C50.9001 61.9 47.8001 65 44.0001 65C40.2001 65 37.1001 61.9 37.1001 58.1C37.1001 54.3 40.2001 51.2 44.0001 51.2Z" fill="#EFEFF4"/>
<path fill-rule="evenodd" clip-rule="evenodd" d="M90.9001 58.1C90.9001 61.9 87.8001 65 84.0001 65C80.2001 65 77.1001 61.9 77.1001 58.1C77.1001 54.3 80.2001 51.2 84.0001 51.2C87.8001 51.2 90.9001 54.3 90.9001 58.1Z" fill="#FF9500"/>
<path fill-rule="evenodd" clip-rule="evenodd" d="M41.4003 22.5H86.6003C88.9003 22.5 90.8003 24.4 90.8003 26.7V40.5C90.8003 42.8 88.9003 44.7 86.6003 44.7H41.4003C39.1003 44.7 37.2003 42.8 37.2003 40.5V26.8C37.1003 24.4 39.0003 22.5 41.4003 22.5Z" fill="#666666"/>
</g>
<defs>
<clipPath id="clip0_5027_153748">
<rect width="128" height="128" fill="white"/>
</clipPath>
</defs>
</svg>
