<svg width="1000" height="1000" viewBox="0 0 1000 1000" fill="none" xmlns="http://www.w3.org/2000/svg">
<path fill-rule="evenodd" clip-rule="evenodd" d="M633.351 10.5306C658.64 -3.51324 689.395 -3.5102 714.678 10.5397L715.878 11.2195L806.653 63.629C807.33 64.0031 808.023 64.3948 808.726 64.8106C834.212 79.8798 849.848 107.287 849.848 136.896V662.147C849.848 692.065 833.886 719.711 807.976 734.67L673.039 812.575C672.641 812.815 672.183 813.089 671.683 813.378C645.773 828.337 613.85 828.337 587.94 813.379L552.101 792.687V834.051C552.1 863.502 536.634 890.751 511.436 905.864L510.229 906.575L368.43 988.44C368.427 988.443 368.423 988.445 368.42 988.448C368.313 988.511 368.103 988.636 367.851 988.781C341.941 1003.74 310.017 1003.74 284.108 988.781L192.024 935.617C166.114 920.658 150.152 893.012 150.152 863.094V337.842C150.152 307.923 166.114 280.277 192.024 265.317L632.134 11.2195C632.218 11.1711 632.302 11.1228 632.387 11.0752L633.091 10.6758L633.351 10.5306ZM629.812 458.045V740.854L539.575 688.756V696.699L636.165 752.415V454.381L629.812 458.045ZM573.044 530.019V667.3L594.496 679.685V517.635L573.044 530.019Z" fill="black"/>
<path d="M650.498 41.4048C665.352 33.1553 683.471 33.2884 698.22 41.804L789.207 94.3358C789.726 94.6175 790.242 94.9087 790.752 95.2107C805.491 103.925 814.532 119.774 814.532 136.896V662.146C814.532 679.448 805.302 695.435 790.318 704.086L655.064 782.174C654.721 782.384 654.375 782.592 654.026 782.794C639.042 791.444 620.582 791.444 605.598 782.794L516.785 731.518V834.051C516.785 851.353 507.555 867.34 492.571 875.99L350.602 957.955C350.466 958.036 350.33 958.117 350.193 958.196C335.21 966.847 316.749 966.847 301.766 958.196L209.682 905.032C194.699 896.382 185.469 880.395 185.469 863.093V337.841C185.469 320.54 194.699 304.553 209.682 295.902L649.793 41.804L650.498 41.4048ZM537.728 509.629V687.691L629.812 740.854V456.47L537.728 509.629Z" fill="#4EAD8B"/>
<path d="M650.498 41.4048C665.352 33.1553 683.471 33.2884 698.22 41.804L789.207 94.3358C789.726 94.6175 790.242 94.9087 790.752 95.2107C805.491 103.925 814.532 119.774 814.532 136.896V662.146C814.532 679.448 805.302 695.435 790.318 704.086L655.064 782.174C654.721 782.384 654.375 782.592 654.026 782.794C639.042 791.444 620.582 791.444 605.598 782.794L516.785 731.518V834.051C516.785 851.353 507.555 867.34 492.571 875.99L350.602 957.955C350.466 958.036 350.33 958.117 350.193 958.196C335.21 966.847 316.749 966.847 301.766 958.196L209.682 905.032C194.699 896.382 185.469 880.395 185.469 863.093V337.841C185.469 320.54 194.699 304.553 209.682 295.902L649.793 41.804L650.498 41.4048ZM537.728 509.629V687.691L629.812 740.854V456.47L537.728 509.629Z" fill="url(#paint0_linear_9320_539)"/>
<path d="M754.006 655.163L641.913 719.88V435.489L456.258 542.676V827.067L338.094 895.29V397.978L754.006 157.852V655.163Z" fill="#4EAD8B"/>
<path d="M754.006 655.163L641.913 719.88V435.489L456.258 542.676V827.067L338.094 895.29V397.978L754.006 157.852V655.163Z" fill="url(#paint1_linear_9320_539)"/>
<path d="M325.98 391.006L233.896 337.841V863.093L325.98 916.258V391.006Z" fill="#4EAD8B"/>
<path d="M325.98 391.006L233.896 337.841V863.093L325.98 916.258V391.006Z" fill="url(#paint2_linear_9320_539)"/>
<path fill-rule="evenodd" clip-rule="evenodd" d="M629.812 456.471V740.855L537.729 687.691V509.629L629.812 456.471Z" fill="#4EAD8B"/>
<path fill-rule="evenodd" clip-rule="evenodd" d="M629.812 456.471V740.855L537.729 687.691V509.629L629.812 456.471Z" fill="url(#paint3_linear_9320_539)"/>
<path d="M674.007 83.7437L233.896 337.841L325.982 391.007L766.092 136.909L674.007 83.7437Z" fill="#4EAD8B"/>
<path d="M674.007 83.7437L233.896 337.841L325.982 391.007L766.092 136.909L674.007 83.7437Z" fill="url(#paint4_linear_9320_539)"/>
<defs>
<linearGradient id="paint0_linear_9320_539" x1="172.524" y1="428.51" x2="808.15" y2="554.554" gradientUnits="userSpaceOnUse">
<stop stop-color="#020202" stop-opacity="0.4"/>
<stop offset="1" stop-color="#020202" stop-opacity="0.2"/>
</linearGradient>
<linearGradient id="paint1_linear_9320_539" x1="746.529" y1="637.631" x2="317.589" y2="409.475" gradientUnits="userSpaceOnUse">
<stop stop-color="#FEFEFE" stop-opacity="0.4"/>
<stop offset="1" stop-color="#FEFEFE" stop-opacity="0"/>
</linearGradient>
<linearGradient id="paint2_linear_9320_539" x1="367.161" y1="208.643" x2="233.796" y2="856.877" gradientUnits="userSpaceOnUse">
<stop stop-color="#FEFEFE" stop-opacity="0.4"/>
<stop offset="1" stop-color="#FEFEFE" stop-opacity="0"/>
</linearGradient>
<linearGradient id="paint3_linear_9320_539" x1="639.001" y1="816.915" x2="576.268" y2="479.09" gradientUnits="userSpaceOnUse">
<stop stop-color="#FEFEFE" stop-opacity="0.4"/>
<stop offset="1" stop-color="#FEFEFE" stop-opacity="0"/>
</linearGradient>
<linearGradient id="paint4_linear_9320_539" x1="880.172" y1="83.6429" x2="245.413" y2="340.149" gradientUnits="userSpaceOnUse">
<stop stop-color="#FEFEFE" stop-opacity="0.4"/>
<stop offset="1" stop-color="#FEFEFE" stop-opacity="0"/>
</linearGradient>
</defs>
</svg>
