<svg width="1000" height="1000" viewBox="0 0 1000 1000" fill="none" xmlns="http://www.w3.org/2000/svg">
<path d="M389.539 49.6309C484.335 -4.39862 589.52 -19.5975 676.525 30.6477L676.524 30.6486L813.784 109.895C904.453 159.478 945.235 260.991 945.235 373.089L945.228 375.688C944.634 485.755 906.432 601.753 848.888 701.421C790.892 801.874 708.707 893.606 612.718 949.026C515.024 1005.43 405.917 1020.69 317.447 965.793L181.821 887.489C94.8173 837.257 55.3795 738.588 54.772 629.465C54.7718 629.431 54.7711 629.396 54.771 629.362L54.7647 626.955C54.7646 626.924 54.7647 626.892 54.7647 626.861C54.7648 516.066 93.1546 399.008 151.154 298.551C209.154 198.094 291.334 106.32 387.281 50.9254L387.367 50.8763L389.454 49.6791L389.539 49.6309Z" fill="black"/>
<path d="M407.055 80.3628C495.442 29.9865 586.563 19.5442 658.834 61.2806L796.378 140.692C871.888 181.737 909.862 268.244 909.862 373.089C909.862 476.255 873.97 587.231 818.254 683.734C762.538 780.237 684.376 866.808 595.031 918.391C503.616 971.17 409.025 981.308 335.577 935.414L199.509 856.854C127.234 815.126 90.7113 731.009 90.145 629.268L90.1387 626.861C90.1388 523.745 126.066 412.753 181.789 316.238C237.513 219.723 315.672 133.115 404.968 81.5601L407.055 80.3628Z" fill="#4EAD8B"/>
<path d="M407.055 80.3628C495.442 29.9865 586.563 19.5442 658.834 61.2806L796.378 140.692C871.888 181.737 909.862 268.244 909.862 373.089C909.862 476.255 873.97 587.231 818.254 683.734C762.538 780.237 684.376 866.808 595.031 918.391C503.616 971.17 409.025 981.308 335.577 935.414L199.509 856.854C127.234 815.126 90.7113 731.009 90.145 629.268L90.1387 626.861C90.1388 523.745 126.066 412.753 181.789 316.238C237.513 219.723 315.672 133.115 404.968 81.5601L407.055 80.3628Z" fill="url(#paint0_linear_9320_534)"/>
<path fill-rule="evenodd" clip-rule="evenodd" d="M371.887 903.202L230.228 821.415C177.618 791.041 145.061 725.946 145.061 633.342C145.061 448.122 275.291 222.566 435.687 129.961C515.885 83.6592 588.546 79.3026 641.147 109.682L782.806 191.47C730.205 161.09 657.544 165.446 577.347 211.749C416.951 304.353 286.729 529.915 286.729 715.124C286.729 807.728 319.277 872.839 371.887 903.202Z" fill="#4EAD8B"/>
<path fill-rule="evenodd" clip-rule="evenodd" d="M371.887 903.202L230.228 821.415C177.618 791.041 145.061 725.946 145.061 633.342C145.061 448.122 275.291 222.566 435.687 129.961C515.885 83.6592 588.546 79.3026 641.147 109.682L782.806 191.47C730.205 161.09 657.544 165.446 577.347 211.749C416.951 304.353 286.729 529.915 286.729 715.124C286.729 807.728 319.277 872.839 371.887 903.202Z" fill="url(#paint1_linear_9320_534)"/>
<path d="M584.326 223.869C662.037 179.003 729.118 176.521 775.868 203.512C822.618 230.504 854.009 289.839 854.009 379.571C854.009 469.212 822.448 569.496 770.756 659.03C719.064 748.564 647.995 826.038 570.363 870.859C492.653 915.725 425.572 918.206 378.822 891.215C332.073 864.224 300.682 804.89 300.682 715.158C300.682 625.516 332.241 525.231 383.933 435.697C435.625 346.164 506.694 268.69 584.326 223.869Z" fill="#4EAD8B"/>
<path d="M584.326 223.869C662.037 179.003 729.118 176.521 775.868 203.512C822.618 230.504 854.009 289.839 854.009 379.571C854.009 469.212 822.448 569.496 770.756 659.03C719.064 748.564 647.995 826.038 570.363 870.859C492.653 915.725 425.572 918.206 378.822 891.215C332.073 864.224 300.682 804.89 300.682 715.158C300.682 625.516 332.241 525.231 383.933 435.697C435.625 346.164 506.694 268.69 584.326 223.869Z" fill="url(#paint2_linear_9320_534)"/>
<defs>
<linearGradient id="paint0_linear_9320_534" x1="73.2707" y1="428.523" x2="880.215" y2="637.075" gradientUnits="userSpaceOnUse">
<stop stop-color="#020202" stop-opacity="0.4"/>
<stop offset="1" stop-color="#020202" stop-opacity="0.2"/>
</linearGradient>
<linearGradient id="paint1_linear_9320_534" x1="719.351" y1="9.84389" x2="235.774" y2="851.886" gradientUnits="userSpaceOnUse">
<stop stop-color="#FEFEFE" stop-opacity="0.4"/>
<stop offset="1" stop-color="#FEFEFE" stop-opacity="0"/>
</linearGradient>
<linearGradient id="paint2_linear_9320_534" x1="811.109" y1="637.681" x2="398.261" y2="478.034" gradientUnits="userSpaceOnUse">
<stop stop-color="#FEFEFE" stop-opacity="0.4"/>
<stop offset="1" stop-color="#FEFEFE" stop-opacity="0"/>
</linearGradient>
</defs>
</svg>
