<svg width="128" height="128" viewBox="0 0 128 128" fill="none" xmlns="http://www.w3.org/2000/svg">
<path d="M73.1387 64.0664C75.8473 64.0665 80.7715 65.1743 80.7715 68.7031C80.7714 70.3435 79.3344 71.493 77.7344 71.4932C75.4773 71.4932 75.2311 70.0161 74.8623 68.251C74.5338 66.8158 73.7127 65.667 72.1133 65.667C68.7891 65.6673 68.0918 70.3043 68.0918 72.8076C68.0919 76.8284 69.4454 82.3681 74.3691 82.3682C77.0778 82.3682 78.8025 80.3991 80.4014 78.4697L81.4268 79.249C79.1697 82.6539 75.6006 84.8291 71.4561 84.8291C66.0402 84.8291 61.9365 80.4794 61.9365 75.0635C61.9366 68.867 67.0257 64.0664 73.1387 64.0664ZM107.345 64.0654C114.074 64.0654 117.357 69.3183 117.357 73.8721C117.357 80.1499 113.131 84.829 106.771 84.8291C101.068 84.8291 96.2666 80.5608 96.2666 74.7344C96.2667 67.6363 102.298 64.0655 107.345 64.0654ZM54.5205 45.5029C58.2341 42.3025 63.9461 42.5871 66.6104 44.0518C60.7372 43.6099 60.3564 45.729 56.7051 48.3213C50.6313 52.6332 48.2989 51.0098 44.7734 51.0098C41.0593 51.0098 41.4249 53.326 41.4092 55.3477C41.3873 58.1527 41.4088 56.0048 41.9014 61.2979H46.333V63.2266H41.8193V80.4004C41.8194 82.5751 42.8044 83.0673 45.1016 83.0674V84.3389H18.1367V82.9844C20.7632 82.903 21.3779 82.3695 21.3779 81.1387C21.3778 80.3581 21.132 79.4962 20.8857 78.7588L19.4082 73.916H8.94531L8.04297 76.502C7.67353 77.5678 7.22168 78.7989 7.22168 79.9482C7.22185 82.0409 9.1096 82.8612 10.915 82.9844V84.3389H0V82.9844C3.81621 81.9178 4.63638 79.8666 5.9082 76.502L13.9102 55.165L19.9014 53.2363L27.5332 77.8145C28.4363 80.7673 28.8696 83.0244 32.5635 83.0244C34.7382 83.0244 35.9111 82.9829 35.9111 79.7012V63.2256H32.2178V61.2979H35.7871C35.7871 57.5233 37.1824 54.978 38.29 53.624C39.9724 51.4492 42.0255 50.4844 44.7744 50.4844C49.7693 50.4843 50.9041 48.62 54.5205 45.5029ZM57.6963 80.3984C57.7381 82.8181 59.0925 83.0654 60.3232 83.0654V84.3369L49.0801 84.3379V83.0654C50.557 83.0654 51.7871 82.9008 51.7871 79.6992V71.3701C51.787 69.1947 51.2534 67.718 48.874 67.4307V66.1592L57.6963 63.6562V80.3984ZM91.9229 80.3984C91.9647 82.818 93.3181 83.0654 94.5488 83.0654V84.3369L83.3057 84.3379V83.0654C84.7835 83.0654 86.0146 82.9011 86.0146 79.6992V71.3701C86.0146 69.1947 85.4815 67.718 83.1016 67.4307V66.1592L91.9229 63.6562V80.3984ZM106.977 65.667C102.873 65.6663 102.176 71.576 102.176 74.6123C102.176 77.6486 102.833 83.2283 106.895 83.2285C110.874 83.2285 111.448 77.5256 111.448 74.6123C111.448 71.6164 111.12 65.6674 106.977 65.667ZM9.7666 71.999H18.7529L14.6494 58.8271L9.7666 71.999ZM54.4551 53.5625C54.9079 53.5618 55.3569 53.6503 55.7754 53.8232C56.1937 53.9962 56.5735 54.2503 56.8936 54.5703C57.2138 54.8905 57.4677 55.2709 57.6406 55.6895C57.8135 56.1079 57.903 56.5561 57.9023 57.0088C57.9023 58.9375 56.3838 60.4561 54.4551 60.4561C54.0023 60.4568 53.5533 60.3683 53.1348 60.1953C52.7165 60.0224 52.3367 59.7682 52.0166 59.4482C51.6964 59.1281 51.4425 58.7475 51.2695 58.3291C51.0966 57.9106 51.0071 57.4616 51.0078 57.0088C51.008 55.1206 52.5669 53.5625 54.4551 53.5625ZM88.6816 53.5625C89.1343 53.5619 89.5826 53.6503 90.001 53.8232C90.4194 53.9962 90.8 54.2501 91.1201 54.5703C91.4402 54.8905 91.6943 55.271 91.8672 55.6895C92.04 56.1078 92.1286 56.5562 92.1279 57.0088C92.1279 58.9374 90.6095 60.4559 88.6816 60.4561C88.2288 60.4569 87.7798 60.3683 87.3613 60.1953C86.9429 60.0224 86.5623 59.7684 86.2422 59.4482C85.9221 59.1281 85.6689 58.7475 85.4961 58.3291C85.3232 57.9105 85.2345 57.4616 85.2354 57.0088C85.2355 55.1206 86.7934 53.5625 88.6816 53.5625ZM120.449 55.1631H120.22C120.061 53.8943 119.244 53.8544 118.696 53.8223V58.0029C118.696 58.6763 118.886 58.6918 119.474 58.7314L119.475 58.9307H116.643V58.7314C117.221 58.6842 117.411 58.6682 117.411 58.0029V53.8223C116.856 53.8544 116.038 53.8933 115.881 55.1631H115.651L115.674 53.5684H120.434L120.449 55.1631ZM128 53.7666C127.555 53.7988 127.302 53.814 127.302 54.4961V58.0029C127.302 58.6367 127.477 58.6603 128 58.7314V58.9307H125.366V58.7314C125.841 58.6843 126.071 58.6606 126.071 58.1377V54.1387H126.057L124.074 58.9307H123.859L121.877 54.2578H121.861V57.9473C121.861 58.5027 122.004 58.6918 122.663 58.7314V58.9307H120.807V58.7314C121.425 58.676 121.528 58.5574 121.528 58.0977V54.3301C121.528 53.9176 121.385 53.8063 120.823 53.7666V53.5684H122.829L124.416 57.3125L126.001 53.5674H128V53.7666Z" fill="url(#paint0_linear_5027_38930)"/>
<defs>
<linearGradient id="paint0_linear_5027_38930" x1="64" y1="43" x2="64" y2="84.8291" gradientUnits="userSpaceOnUse">
<stop stop-color="white"/>
<stop offset="1" stop-color="#CFCFCF"/>
</linearGradient>
</defs>
</svg>
