<svg width="128" height="128" viewBox="0 0 128 128" fill="none" xmlns="http://www.w3.org/2000/svg">
<path d="M100.859 69.793C101.808 70.7571 102.658 71.8125 103.399 72.9434C104.199 74.1928 104.869 75.5212 105.398 76.9072C105.976 78.3526 106.363 79.8669 106.55 81.4121C106.803 83.0396 106.803 84.6967 106.55 86.3242C106.234 88.1108 105.64 89.8371 104.789 91.4395C103.785 93.293 102.505 94.9835 100.994 96.4531L75.3164 122.132C74.3522 123.08 73.297 123.931 72.166 124.673C70.9177 125.484 69.5892 126.165 68.2021 126.705C66.7386 127.256 65.215 127.631 63.6631 127.823C62.0229 128.059 60.357 128.059 58.7168 127.823C56.9572 127.503 55.2554 126.921 53.6689 126.096C51.8023 125.112 50.1088 123.83 48.6553 122.301L36.9004 110.546L20.7754 126.671L14 119.896L30.125 103.771L14.542 88.1875L24.0273 78.6689L58.2764 112.782C58.7556 113.335 59.3421 113.785 60 114.105C60.5756 114.386 61.1956 114.561 61.8311 114.625L62.1045 114.78C62.8545 114.734 63.5883 114.539 64.2627 114.208C64.937 113.877 65.5392 113.415 66.0342 112.85L91.6445 87.2393C92.2176 86.7756 92.6796 86.1897 92.9971 85.5244C93.3145 84.8592 93.4795 84.1316 93.4795 83.3945C93.4795 82.6574 93.3145 81.9289 92.9971 81.2637C92.6796 80.5986 92.2174 80.0124 91.6445 79.5488L57.3955 45.3008L66.8809 35.8154L100.859 69.793ZM65.0859 0.176758C66.7147 -0.0590097 68.3693 -0.0590434 69.998 0.176758C71.7711 0.503493 73.4843 1.09764 75.0791 1.93848C76.9612 2.9148 78.6763 4.18383 80.1602 5.69824L91.8477 17.4541L108.074 1.46387L114.85 8.23926L98.7588 24.3643L114.342 39.9473L104.856 49.4326L70.6074 15.1846C69.6272 14.0829 68.2511 13.4131 66.7793 13.3213C66.0252 13.3644 65.2879 13.5607 64.6123 13.8984C63.9366 14.2363 63.3366 14.7087 62.8496 15.2861L37.2393 40.8965C36.6926 41.3787 36.2489 41.9663 35.9346 42.624C35.6203 43.2817 35.442 43.9964 35.4102 44.7246C35.4361 45.4539 35.6122 46.1697 35.9268 46.8281C36.2415 47.4867 36.688 48.0743 37.2393 48.5527L71.4883 82.8018L61.9688 92.3203L27.8555 58.0713C26.9285 57.0973 26.0895 56.043 25.3486 54.9209C23.651 52.3704 22.5723 49.4588 22.1982 46.418C21.9458 44.7904 21.9458 43.1335 22.1982 41.5059C22.5198 39.7314 23.1142 38.0175 23.96 36.4248C24.9424 34.5666 26.211 32.8745 27.7197 31.4111L53.2969 5.69824C54.2614 4.76056 55.3169 3.92061 56.4473 3.19141C59.0499 1.5219 62.0097 0.489215 65.0859 0.176758Z" fill="url(#paint0_linear_5027_37480)"/>
<defs>
<linearGradient id="paint0_linear_5027_37480" x1="64.4248" y1="0" x2="64.4248" y2="128" gradientUnits="userSpaceOnUse">
<stop stop-color="#6B96FF"/>
<stop offset="1" stop-color="#4261AD"/>
</linearGradient>
</defs>
</svg>
