<svg width="128" height="128" viewBox="0 0 128 128" fill="none" xmlns="http://www.w3.org/2000/svg">
<path d="M49.7998 48.0095C50.9137 48.0095 51.8164 48.9128 51.8164 50.0261L51.7988 77.6619C51.7988 78.7996 50.8764 79.7222 49.7393 79.7224C48.6019 79.7224 47.6788 78.7998 47.6787 77.6619V76.8152C45.1852 79.1151 42.9865 80.28 39.6973 80.28C36.3505 80.28 33.5822 79.1144 31.3936 76.783C29.2049 74.4514 28.1114 71.5835 28.1113 68.1785C28.1113 64.8316 29.2049 61.9922 31.3936 59.6599C33.5822 57.3283 36.3214 56.1629 39.6113 56.1628C42.9006 56.1628 45.151 57.2719 47.6787 59.6003L47.6973 50.0261C47.6973 48.9129 48.6 48.0097 49.7139 48.0095H49.7998ZM56.5615 48.0544C57.6748 48.0545 58.5781 48.9577 58.5781 50.071L58.5752 56.7214H64.3447C65.3163 56.7215 66.1045 57.5086 66.1045 58.4802C66.1045 59.4518 65.3163 60.2399 64.3447 60.24H58.5752V71.9548C58.5753 74.9878 59.8195 76.5037 62.3086 76.5037C63.1517 76.5036 64.0186 76.3211 64.9092 75.9568C65.8022 75.592 66.8255 75.9915 67.248 76.8591C67.6915 77.77 67.32 78.8778 66.4072 79.3181C65.0758 79.9588 63.5522 80.28 61.8369 80.28C59.4047 80.28 57.5725 79.5285 56.3428 78.0261C55.1127 76.5244 54.4981 74.4004 54.498 71.6541V60.24L54.541 56.7214L54.5439 50.071C54.5439 48.9577 55.4476 48.0544 56.5615 48.0544ZM92.9346 56.1628C96.1953 56.1629 98.6324 57.3405 101.045 59.5994V58.6941C101.045 57.6043 101.929 56.7205 103.019 56.7205C104.108 56.7205 104.992 57.6043 104.992 58.6941V77.7478C104.992 78.8377 104.108 79.7214 103.019 79.7214C101.929 79.7214 101.045 78.8377 101.045 77.7478V76.7722C98.9417 78.9779 96.282 80.279 92.9346 80.2791C89.6447 80.2791 86.9054 79.1075 84.7168 76.7615C82.5281 74.416 81.4336 71.5115 81.4336 68.0496C81.4336 64.6166 82.5205 61.7773 84.6953 59.531C86.8694 57.2855 89.6156 56.1628 92.9346 56.1628ZM12.2158 49.3484C12.9606 47.6283 15.398 47.6243 16.1494 49.3416L28.1455 76.7595C28.7692 78.1776 27.7792 79.7221 26.1025 79.7224H26.0889C25.1135 79.7224 24.2374 79.1769 23.8818 78.3484L14.1904 55.4763L9.21094 67.3074H8.94629C6.63236 67.3074 5.24931 65.5807 6.11719 63.4363L12.2158 49.3484ZM4.45215 78.3484C4.09725 79.1764 3.22112 79.7214 2.24512 79.7214C0.565204 79.7214 -0.425272 78.1721 0.205078 76.7527L1.45117 73.946C1.94958 72.7139 3.17734 71.7548 4.50684 71.7546H7.43457L4.45215 78.3484ZM79.9199 56.1199C80.1481 56.1199 80.3762 56.1268 80.6025 56.1414C81.7181 56.2118 82.5517 57.1946 82.4443 58.3064C82.3412 59.3729 81.4069 60.1616 80.3379 60.0857C80.1685 60.0737 80.0002 60.0681 79.834 60.0681C78.0029 60.0681 76.6495 60.6972 75.4629 61.9558C74.2756 63.2153 73.5254 65.2311 73.5254 67.6912V77.6619C73.5254 78.7992 72.6038 79.7214 71.4658 79.7214C70.3285 79.7214 69.4062 78.7992 69.4062 77.6619V58.6726C69.4064 57.5949 70.281 56.7205 71.3594 56.7205C72.437 56.7207 73.3114 57.595 73.3115 58.6726V59.6423C74.5913 57.581 76.9958 56.1199 79.9199 56.1199ZM118.894 56.1199C121.468 56.12 123.628 56.9506 125.373 58.6091C127.118 60.2683 127.99 62.6573 127.99 65.7751V77.7478C127.99 78.8376 127.107 79.7213 126.017 79.7214H125.888C124.797 79.7213 123.914 78.8376 123.914 77.7478V66.9333C123.914 64.7023 123.37 62.9789 122.283 61.7625C121.195 60.547 119.936 59.9393 118.191 59.9392C116.332 59.9392 114.808 60.5978 113.621 61.9128C112.434 63.2292 111.684 65.073 111.684 67.1326V77.7478C111.684 78.8377 110.8 79.7214 109.71 79.7214H109.538C108.448 79.7214 107.564 78.8377 107.564 77.7478V58.6951C107.564 57.6045 108.448 56.7205 109.538 56.7205H109.624C110.714 56.7205 111.599 57.6045 111.599 58.6951V59.5144C113.336 57.3067 115.489 56.1199 118.894 56.1199ZM93.1719 60.1873C90.896 60.1873 89.0649 60.9648 87.6777 62.5183C86.29 64.0724 85.5968 65.9731 85.5967 68.2205C85.5967 70.4685 86.29 72.3694 87.6777 73.9236C89.0649 75.4777 90.896 76.2546 93.1719 76.2546C95.4472 76.2546 97.293 75.4778 98.708 73.9236C100.124 72.3694 100.831 70.4548 100.831 68.1794C100.831 65.9592 100.124 64.0725 98.708 62.5183C97.293 60.9648 95.4472 60.1873 93.1719 60.1873ZM39.8857 60.1931C37.6118 60.1932 35.7739 60.9693 34.374 62.5222C32.9729 64.0751 32.2735 65.9611 32.2734 68.1794C32.2734 70.4533 32.9731 72.3668 34.374 73.9197C35.7739 75.4732 37.6118 76.2497 39.8857 76.2498C42.1592 76.2498 43.997 75.4733 45.3975 73.9197C46.7972 72.3668 47.498 70.4534 47.498 68.1794C47.498 65.9611 46.7973 64.0751 45.3975 62.5222C43.997 60.9694 42.1591 60.1931 39.8857 60.1931ZM14.1748 66.5642C15.8135 66.5644 17.1414 67.8923 17.1416 69.531C17.1416 71.1699 15.8136 72.4986 14.1748 72.4988C12.5358 72.4988 11.207 71.17 11.207 69.531C11.2072 67.8922 12.5359 66.5642 14.1748 66.5642Z" fill="url(#paint0_linear_5027_38439)"/>
<defs>
<linearGradient id="paint0_linear_5027_38439" x1="64.0019" y1="48.0095" x2="64.0019" y2="80.28" gradientUnits="userSpaceOnUse">
<stop stop-color="#31D6FF"/>
<stop offset="1" stop-color="#00A0C8"/>
</linearGradient>
</defs>
</svg>
