<svg width="128" height="128" viewBox="0 0 128 128" fill="none" xmlns="http://www.w3.org/2000/svg">
<path d="M85.3804 71.8062C93.7927 71.8062 105.964 70.0713 105.964 60.0653C105.989 59.2931 105.919 58.5207 105.756 57.7656L100.746 36.0053C99.5892 31.2174 98.5738 29.0454 90.1682 24.8427C83.6455 21.5073 69.4367 16 65.2339 16C61.3203 16 60.1839 21.0433 55.5171 21.0433C51.0252 21.0433 47.6898 17.2776 43.487 17.2776C39.4524 17.2776 36.8231 20.0279 34.7923 25.6832C34.7923 25.6832 29.1371 41.6336 28.4108 43.9468C28.2954 44.3716 28.2455 44.8115 28.2629 45.2514C28.2629 51.4513 52.6727 71.7794 85.3804 71.7794V71.8062ZM107.255 64.1269C108.418 69.6343 108.418 70.2126 108.418 70.9388C108.418 80.353 97.8341 85.5779 83.9212 85.5779C52.4776 85.5981 24.9343 67.1731 24.9343 54.9951C24.9325 53.3 25.278 51.6225 25.9497 50.0661C14.6391 50.6309 0 52.6483 0 65.5727C0 86.7413 50.1577 112.832 89.8723 112.832C120.321 112.832 128 99.0605 128 88.187C128 79.6335 120.603 69.9234 107.269 64.1269" fill="#EE0000"/>
</svg>
