<svg width="128" height="128" viewBox="0 0 128 128" fill="none" xmlns="http://www.w3.org/2000/svg">
<path d="M101.15 67.7652L106.081 58.7809C102.344 54.9012 96.1102 48.7713 85.6807 39.1111C61.3339 16.5831 59.9194 16.6829 59.3191 16.6829C58.7226 16.6829 57.5476 16.2516 33.3006 39.0714C6.1185 64.6919 7.02602 65.5559 7.02602 65.5559C7.02602 65.5559 6.19018 66.9396 33.5809 92.2644C58.1697 115.015 58.6433 114.379 59.3179 114.379C60.009 114.379 61.4657 114.778 85.714 91.9418C98.8442 79.6269 105.331 73.0439 108.531 69.5405L101.15 67.7652Z" fill="black"/>
<path d="M101.15 67.7652L101.381 67.8957L106.421 58.7335L106.279 58.5991C102.541 54.7053 96.3009 48.5728 85.8689 38.9306C73.8126 27.7511 67.3742 22.1383 63.8708 19.3146C62.1262 17.9066 61.1061 17.1988 60.4507 16.8122C60.1422 16.6253 59.9182 16.5344 59.7429 16.482C59.5675 16.4218 59.4267 16.4103 59.3435 16.4103H59.2565C59.154 16.4103 58.9979 16.432 58.8174 16.4935C58.1684 16.7162 56.8885 17.5008 53.1662 20.6394C49.4593 23.769 43.3384 29.2717 33.1214 38.8935C20.3777 50.8858 13.8011 57.456 10.4117 61.0567C8.71694 62.8397 7.81454 63.8944 7.3307 64.528C7.09006 64.8442 6.95694 65.0426 6.86734 65.1911C6.79438 65.3434 6.75598 65.4253 6.75342 65.5264C6.75342 65.5879 6.77902 65.6916 6.84174 65.7453L7.0235 65.5572L6.79438 65.4036C6.76238 65.4586 6.75342 65.5277 6.75342 65.5674C6.75598 65.6608 6.7803 65.7543 6.86478 65.9271C7.14894 66.4468 8.11918 67.8612 11.8606 71.7408C15.5944 75.6244 22.0968 82.0167 33.3889 92.4615C45.042 103.228 51.2821 108.781 54.7022 111.61C56.4021 113.025 57.4107 113.779 58.0468 114.192C58.3668 114.379 58.5896 114.512 58.7726 114.567C58.948 114.646 59.1003 114.65 59.2142 114.65H59.3896C59.4843 114.65 59.652 114.645 59.8401 114.575C60.5326 114.37 61.9009 113.581 65.6731 110.449C69.4363 107.315 75.62 101.816 85.8997 92.1581C99.0324 79.8125 105.511 73.2397 108.726 69.7082L109.041 69.3703L101.215 67.5091L101.15 67.7652L101.381 67.8957L101.15 67.7652L101.098 68.0276L108.462 69.8068L108.533 69.5405L108.332 69.3588C105.144 72.8404 98.6587 79.4183 85.5413 91.76C73.8126 102.787 67.4216 108.391 63.8517 111.243C62.084 112.662 61.0254 113.378 60.3752 113.758C60.0539 113.942 59.8363 114.029 59.7032 114.067C59.5381 114.114 59.4779 114.114 59.3947 114.114H59.2193C59.14 114.114 59.0901 114.114 58.9582 114.067C58.7291 113.981 58.2952 113.747 57.4862 113.146C55.0184 111.316 49.0395 106.201 33.7653 92.0659C20.8539 80.1197 14.2184 73.5047 10.8161 69.8426C9.11502 68.0429 8.21902 66.9396 7.75694 66.3162C7.53166 66.0039 7.40622 65.7914 7.3435 65.6762C7.31022 65.6096 7.29358 65.5661 7.29102 65.5661L7.28718 65.5456L7.17966 65.5661H7.28718V65.5456L7.17966 65.5661H7.28718H7.05038L7.2539 65.6916C7.28462 65.6327 7.29102 65.5764 7.2859 65.5661H7.05038L7.2539 65.6916L7.37038 65.5021L7.20782 65.3447L7.04014 65.5264H7.2859C7.28974 65.4893 7.27182 65.4138 7.20654 65.3434L7.04014 65.5264H7.2859H7.1387L7.28718 65.5661V65.5264H7.1387L7.28718 65.5661H7.26414H7.28718H7.26414H7.28718C7.28718 65.5456 7.41902 65.2602 7.9707 64.5882C9.66798 62.48 15.2693 56.441 33.4913 39.2839C45.1611 28.2836 51.4881 22.6836 54.9697 19.8458C56.6926 18.4237 57.723 17.6826 58.3438 17.3216C58.651 17.1437 58.8609 17.0439 58.9953 17.0042C59.1285 16.9556 59.1771 16.9556 59.259 16.9556H59.3461C59.4075 16.9556 59.451 16.9556 59.5726 16.9824C59.7877 17.0567 60.2292 17.2564 61.06 17.8464C63.5419 19.5808 69.6897 24.6624 85.5003 39.3236C95.9272 48.9453 102.167 55.0752 105.898 58.9677L106.084 58.7808L105.855 58.6477L100.755 67.9418L101.102 68.0276L101.15 67.7652Z" fill="#231F20"/>
<path d="M101.149 67.7652L105.404 60.0135C102.207 56.4833 95.7221 49.9143 82.4985 37.6967C58.3436 15.3377 57.0341 15.2583 56.1407 15.2583C55.2575 15.2583 54.4191 14.7745 30.126 37.6583C2.94134 63.2724 3.8463 64.1121 3.8463 64.1121C3.8463 64.1121 3.01174 65.5252 30.3973 90.8282C54.8185 113.415 55.4111 112.959 56.142 112.959C56.8792 112.959 58.2873 113.315 82.5458 90.5261C95.022 78.8001 101.503 72.2721 104.851 68.6586L101.149 67.7652Z" fill="#F8EC17"/>
<path d="M101.15 67.7652L101.5 67.9457L105.764 60.2324L105.691 59.7485C102.506 56.2042 95.9874 49.6071 82.7842 37.3959C70.6882 26.2164 64.3266 20.5972 60.845 17.7735C59.1234 16.3604 58.1046 15.6551 57.4441 15.2596C57.1062 15.0829 56.8642 14.9805 56.6492 14.9089C56.4265 14.8615 56.2562 14.8564 56.141 14.8564H56.031C55.8978 14.8564 55.7186 14.8615 55.4998 14.9383C55.1209 15.0548 54.6178 15.3274 53.7423 15.9508C51.1401 17.8132 45.1561 22.9588 29.8511 37.3511C17.1062 49.3652 10.5321 55.9303 7.13369 59.5297C5.43641 61.337 4.53145 62.3956 4.04633 63.0113C3.80441 63.33 3.65977 63.5373 3.58169 63.7025C3.49593 63.8458 3.44985 63.9367 3.44089 64.1121C3.43577 64.1953 3.47289 64.3361 3.57273 64.4205L3.84793 64.1121L3.50105 63.9098C3.45625 63.9789 3.44089 64.0698 3.44089 64.1453C3.44985 64.2836 3.47929 64.377 3.56761 64.5524C3.71993 64.8455 4.03225 65.3255 4.78233 66.2266C7.03257 68.9594 13.1817 75.449 30.1276 91.1393C41.8665 101.989 48.095 107.509 51.4921 110.328C53.2086 111.743 54.1865 112.486 54.8265 112.89C55.1516 113.09 55.3743 113.195 55.5702 113.279C55.7686 113.342 55.9426 113.364 56.0514 113.363H56.2191C56.3356 113.364 56.5161 113.341 56.717 113.279C57.0972 113.167 57.6194 112.917 58.5116 112.301C61.2009 110.451 67.4038 105.315 82.8124 90.8167C95.2924 79.0906 101.774 72.5665 105.164 68.9249L104.942 68.258L101.242 67.3748L101.15 67.7652L101.5 67.9457L101.15 67.7652L101.063 68.1594L104.766 69.0554L104.85 68.6586L104.554 68.3873C101.196 71.9943 94.7471 78.5095 82.2799 90.2189C70.5295 101.273 64.1577 106.881 60.6159 109.701C58.8457 111.12 57.7961 111.845 57.1561 112.204C56.8412 112.391 56.6249 112.478 56.4918 112.511C56.3561 112.551 56.2934 112.551 56.2204 112.551H56.0514C55.9849 112.551 55.958 112.551 55.8338 112.523C55.6354 112.442 55.2194 112.223 54.4194 111.646C51.9951 109.843 46.0662 104.77 30.6767 90.5351C17.7692 78.6183 11.1375 72.0058 7.73401 68.3425C6.03161 66.53 5.15097 65.4407 4.68633 64.8161C4.46745 64.5063 4.33945 64.2861 4.28697 64.1953C4.25881 64.1236 4.24601 64.1121 4.24345 64.0967V64.0865L4.15641 64.1133L4.24601 64.1031L4.24473 64.0865L4.15769 64.1133L4.24729 64.1031L3.99897 64.1466H4.24729V64.1031L3.99897 64.1466H4.24729H3.87609L4.19609 64.3373C4.23577 64.2465 4.24857 64.1748 4.24857 64.1466H3.87737L4.19737 64.3373L4.12185 63.8253L3.86969 64.1146H4.24857C4.24985 64.0429 4.22425 63.9124 4.12185 63.8253L3.86969 64.1146H4.24857H3.96057L4.24473 64.162L4.24601 64.1146H3.96057L4.24473 64.162L4.13849 64.1594L4.23449 64.1761L4.24473 64.162L4.13849 64.1594L4.23449 64.1761C4.24473 64.162 4.40089 63.8497 4.98841 63.1482C6.76249 60.962 12.47 54.8397 30.4066 37.9489C42.0521 26.9805 48.31 21.3844 51.7494 18.5274C53.4607 17.113 54.4809 16.3847 55.0953 16.0122C55.4012 15.8369 55.6098 15.7473 55.743 15.7037C55.8761 15.6615 55.9414 15.6615 56.0322 15.6615H56.1423C56.2498 15.6615 56.3164 15.6615 56.438 15.6935C56.6505 15.7473 57.0678 15.9418 57.8934 16.5281C60.3612 18.2497 66.3862 23.3261 82.23 37.9885C95.437 50.2049 101.937 56.7802 105.116 60.2938L105.406 60.0173L105.055 59.842L100.799 67.5617L101.064 68.1633L101.15 67.7652Z" fill="black"/>
<path d="M47.3358 103.082L44.7182 99.9264L42.0085 96.8774L40.196 94.9971C30.5601 85.3638 10.8891 65.6096 10.6971 65.4419C10.6395 65.383 10.6113 65.3165 10.6113 65.2614V65.2602C10.6165 65.209 10.6561 65.1578 10.6856 65.127C11.5265 64.3206 30.7201 45.8285 41.1931 36.953L57.2878 23.9366L56.8424 14L32.3073 35.856C23.3217 43.7651 6.20047 62.5286 6.03279 62.695C5.61295 63.0662 5.36719 63.6282 5.36719 64.2387C5.36719 64.8173 5.61167 65.3946 6.07247 65.8118L6.16079 65.904C9.11759 68.6944 24.2369 83.111 31.8811 90.4787C34.4872 92.9978 35.4293 93.7619 36.379 94.5414L40.5761 97.9603L47.3358 103.082Z" fill="#FFE600"/>
<path d="M44.6568 99.9725L44.6964 100.006C44.6286 99.9546 44.3009 99.5834 41.9444 96.9274L40.1358 95.0624L14.7611 69.625L10.6395 65.4791L10.5307 65.2615L10.6382 65.0669C12.6913 63.0944 30.9902 45.5085 41.1444 36.9018C41.1444 36.9018 56.9204 24.153 57.22 23.9021C57.22 23.824 56.7579 14.498 56.7579 14.1626C56.5083 14.3956 32.3624 35.9277 32.3624 35.9277C23.364 43.8343 6.25421 62.5722 6.09549 62.7476C5.67949 63.1136 5.44141 63.673 5.44141 64.24C5.44141 64.8186 5.68461 65.346 6.12237 65.7466L6.22093 65.8298C9.17261 68.6599 24.2971 83.0535 31.9361 90.4416C34.4923 92.9107 35.4484 93.6813 36.3739 94.4416L40.6222 97.8976C40.6248 97.8976 45.2584 101.421 46.8468 102.607C46.2401 101.903 44.6568 99.9725 44.6568 99.9725Z" fill="#FFE700"/>
<path d="M44.5926 100.035L44.6527 100.058C44.5695 100.007 44.343 99.7459 41.8956 96.976L40.087 95.1098L10.5907 65.5328L10.4652 65.3101C10.4652 65.2602 10.5702 65.0439 10.5702 65.0439C12.6246 63.0483 30.8671 45.5072 41.0905 36.8263C41.0905 36.8263 56.8447 24.1133 57.1417 23.8547C57.1417 23.7971 56.6886 14.6669 56.6886 14.3341C56.4262 14.5555 32.4134 35.9802 32.4134 35.9802C23.4278 43.8739 6.31417 62.6234 6.14649 62.7885C5.74457 63.1533 5.52441 63.6717 5.52441 64.2387C5.52441 64.7802 5.74841 65.3101 6.17337 65.6954L6.27577 65.7914C11.6569 70.9063 24.9382 83.5616 31.9923 90.3853C34.5382 92.8391 35.4995 93.6135 36.4236 94.3648L40.6732 97.8413C40.6822 97.8426 45.5974 101.566 46.3513 102.15C45.7996 101.473 44.5926 100.035 44.5926 100.035Z" fill="#FFE703"/>
<path d="M44.5377 100.077L44.6017 100.124C44.5224 100.057 44.3201 99.824 41.8344 97.04L40.027 95.1571L10.532 65.5891L10.3976 65.3434C10.3976 65.2807 10.4949 64.9939 10.4949 64.9939C10.7073 64.7802 30.2171 45.9591 41.0369 36.7789C41.0369 36.7789 56.7694 24.0787 57.0638 23.8176C57.0638 23.7626 56.6017 14.8333 56.6017 14.5107C56.3509 14.7296 32.4661 36.0301 32.4661 36.0301C23.6776 43.7485 6.89679 62.16 6.21071 62.8371C5.81391 63.1879 5.59375 63.7139 5.59375 64.2387C5.59375 64.7776 5.81903 65.2602 6.22735 65.6544L6.32335 65.7427C11.7057 70.8576 24.9793 83.5015 32.0437 90.3162C34.5947 92.7802 35.547 93.5661 36.4699 94.3162L40.7246 97.7888C40.7246 97.7888 45.0382 101.064 45.8677 101.684C45.3813 101.092 44.5377 100.077 44.5377 100.077Z" fill="#FFE716"/>
<path d="M44.4759 100.136L44.554 100.185C44.4695 100.115 44.3236 99.956 41.9223 97.268L41.7713 97.0913L39.9716 95.1982L10.4779 65.6596L10.3307 65.3857V65.3678C10.3307 65.3089 10.4228 64.9685 10.4228 64.9685C10.5943 64.7918 30.2321 45.8517 40.9892 36.7227C40.9892 36.7227 56.6923 24.0328 56.9803 23.7883C56.9803 23.7217 56.5323 14.9934 56.5323 14.6837C56.2737 14.9077 32.5195 36.0917 32.5195 36.0917C23.6657 43.8728 6.94889 62.2203 6.27177 62.8795C5.88777 63.2289 5.67529 63.7192 5.67529 64.2389C5.67529 64.7342 5.88777 65.2129 6.28073 65.5752L6.38057 65.6801C11.7476 70.7886 25.0135 83.4299 32.1009 90.2651C34.6481 92.7278 35.594 93.5048 36.5207 94.2587L40.7755 97.7147C40.7755 97.7147 44.0715 100.222 45.3822 101.208C44.9828 100.75 44.4759 100.136 44.4759 100.136Z" fill="#FFE722"/>
<path d="M44.4095 100.185L44.4056 100.145C44.2316 99.9623 43.726 99.4004 41.8712 97.3165L41.7176 97.1399L39.9115 95.257L10.4178 65.6954L10.2616 65.4177L10.2591 65.3946C10.2591 65.3319 10.35 64.9453 10.35 64.9453C10.4805 64.8148 30.0645 45.8913 40.9381 36.6586C40.9381 36.6586 56.613 23.9956 56.91 23.7601C56.91 23.6781 56.4492 15.1687 56.4492 14.85C56.1983 15.0817 32.5682 36.1569 32.5682 36.1569C23.7132 43.9175 7.00147 62.2625 6.31923 62.9447C5.96339 63.2775 5.74707 63.7537 5.74707 64.2375C5.74707 64.7264 5.96083 65.177 6.33715 65.5252L6.42675 65.6084C11.781 70.722 25.0021 83.2992 32.1548 90.2112C34.6879 92.6765 35.6466 93.4394 36.5618 94.1895L40.8165 97.6711C40.8331 97.6711 44.2315 100.249 44.8971 100.752C44.6565 100.45 44.4095 100.185 44.4095 100.185Z" fill="#FFE82B"/>
<path d="M44.3546 100.222L44.3444 100.193L41.6564 97.186L39.8567 95.3159L10.3693 65.7453L10.194 65.442H10.1914C10.1914 65.3447 10.272 64.9415 10.272 64.9415C10.3693 64.8161 29.7946 46.018 40.8845 36.5972C40.8845 36.5972 56.5325 23.9713 56.8308 23.7217C56.8308 23.6461 56.3764 15.3466 56.3764 15.0279C56.1165 15.2468 32.617 36.2029 32.617 36.2029C24.0218 43.7575 8.09861 61.2884 6.38213 63.0074C6.03141 63.321 5.83301 63.7626 5.83301 64.2388C5.83301 64.6919 6.03141 65.1373 6.38469 65.4791L6.48197 65.5661C11.8144 70.6401 24.9895 83.1917 32.2138 90.1716C34.7482 92.601 35.698 93.3933 36.6106 94.1434L40.8628 97.6033C40.8628 97.6033 43.6852 99.7408 44.4071 100.28L44.3546 100.222Z" fill="#FFE835"/>
<path d="M41.5986 97.2295L39.8027 95.376L14.4293 69.9386L10.3115 65.8068L10.1246 65.4791H10.1221C10.1221 65.3908 10.1989 64.912 10.1989 64.912C10.2667 64.8173 29.7867 45.913 40.8395 36.5498C40.8395 36.5498 56.4594 23.938 56.7563 23.6794C56.7563 23.6218 56.293 15.5143 56.293 15.1981C56.0421 15.4234 32.6731 36.2541 32.6731 36.2541C24.0766 43.8266 8.15344 61.337 6.43184 63.0548C6.0952 63.3632 5.90576 63.792 5.90576 64.2388C5.90576 64.6919 6.09392 65.0938 6.43696 65.4292L6.5368 65.5264C11.8578 70.5671 25.0149 83.106 32.2674 90.096C34.8005 92.5562 35.749 93.3255 36.6667 94.0679C36.659 94.0666 36.659 94.0666 40.9189 97.5444C40.9214 97.5444 42.876 99.0394 43.8808 99.7882C43.2856 99.1239 41.5986 97.2295 41.5986 97.2295Z" fill="#FFE93C"/>
<path d="M41.5438 97.2819L39.7415 95.4246L10.2593 65.8643L10.0558 65.5264V65.5213C10.0558 65.3933 10.121 64.9082 10.121 64.9082C10.1722 64.816 29.4657 46.0922 40.7885 36.4832C40.7885 36.4832 56.3828 23.9008 56.6682 23.6371C56.6682 23.5834 56.219 15.6858 56.219 15.3542C55.9668 15.5885 32.7233 36.3258 32.7233 36.3258C24.1716 43.833 8.21511 61.3805 6.49095 63.097C6.16327 63.4093 5.98535 63.8035 5.98535 64.2387C5.98535 64.6535 6.16199 65.0643 6.49351 65.3523L6.58951 65.4509C11.8887 70.5082 24.9946 82.983 32.3188 90.0474C34.8455 92.5114 35.7902 93.2653 36.7143 94.0141L36.6298 94.0115C36.7182 94.0154 37.1406 94.3648 40.5466 97.1411L40.969 97.4918C40.9716 97.4918 42.8762 98.9421 43.2897 99.2557C42.6676 98.553 41.5438 97.2832 41.5438 97.2819Z" fill="#FFE943"/>
<path d="M41.477 97.3166L41.4795 97.3332L39.6927 95.4644L10.204 65.9259L9.99027 65.5662L9.98515 65.5432C9.98515 65.4177 10.0415 64.9083 10.0415 64.9083C10.0837 64.8161 29.3912 46.0526 40.7282 36.4206C40.7282 36.4206 56.3019 23.8548 56.5989 23.6155C56.5989 23.5464 56.1407 15.8523 56.1407 15.5259C55.8872 15.7512 32.773 36.3784 32.773 36.3784C24.2187 43.8856 8.26483 61.4356 6.54067 63.1496C6.23219 63.4529 6.05811 63.8382 6.05811 64.2376C6.05811 64.642 6.22835 65.0235 6.54195 65.3089L6.64819 65.3921C11.9499 70.4571 25.0789 82.9396 32.3736 89.9937C34.9042 92.4398 35.8424 93.2104 36.7615 93.9592L36.764 93.963L36.7615 94.0052C36.9995 94.1448 37.7266 94.7566 40.5746 97.0657L41.0123 97.4254C41.0123 97.4254 42.0402 98.1947 42.7147 98.7156C42.5087 98.4724 41.477 97.3166 41.477 97.3166Z" fill="#FFEA49"/>
<path d="M41.4158 97.3728L41.4299 97.4023L39.6302 95.5207L10.1518 65.9616L9.924 65.6109L9.90992 65.5559L9.9688 64.8954C9.99824 64.816 29.069 46.2228 40.685 36.3757C40.685 36.3757 56.2254 23.824 56.5186 23.586C56.5186 23.504 56.0667 16.0186 56.0667 15.6999C55.8082 15.9188 32.8309 36.4205 32.8309 36.4205C24.2792 43.952 8.32272 61.4983 6.59984 63.2148C6.3016 63.4887 6.1416 63.8471 6.1416 64.2375C6.1416 64.6087 6.29904 64.9812 6.59984 65.2589L6.6984 65.3421C12.0053 70.3879 25.1278 82.896 32.4238 89.9424C34.957 92.3783 35.899 93.1591 36.8066 93.8938C37.0472 94.0922 41.0613 97.3588 41.0613 97.3588C41.0613 97.3588 41.6526 97.8055 42.1352 98.1767C41.7845 97.7978 41.4158 97.3728 41.4158 97.3728Z" fill="#FFEA50"/>
<path d="M41.3633 97.4368L41.371 97.4432L39.5803 95.5757L10.0942 66.0103L9.8587 65.6608L9.83054 65.5597L9.88942 64.88C9.9867 64.6432 29.5937 45.6826 40.6389 36.3156C40.6389 36.3156 56.1499 23.7972 56.4494 23.5463C56.4494 23.4708 55.9848 16.1837 55.9848 15.8752C55.7339 16.0967 32.8821 36.4884 32.8821 36.4884C24.3317 44.0058 8.37518 61.5546 6.65486 63.2788C6.37582 63.5296 6.21582 63.8765 6.21582 64.2388C6.21582 64.5972 6.36814 64.9415 6.65102 65.1949L6.75342 65.3088C12.0513 70.3264 25.1701 82.8205 32.4801 89.8848C34.9992 92.3284 35.9451 93.0823 36.8501 93.8285L41.1048 97.3178C41.1163 97.3178 41.2085 97.3741 41.5464 97.6327C41.476 97.5584 41.3633 97.4368 41.3633 97.4368Z" fill="#FFEA56"/>
<path d="M39.5202 95.641L14.1544 70.1921L10.0392 66.0692L9.79219 65.6916L9.75635 65.5598L9.81139 64.8647C9.90867 64.642 29.5093 45.643 40.5813 36.2452C40.5813 36.2452 56.0744 23.7614 56.3586 23.5028C56.3586 23.4478 55.9067 16.3591 55.9067 16.0443C55.6559 16.2734 32.9243 36.5486 32.9243 36.5486C24.3842 44.0494 8.43283 61.5982 6.71251 63.321C6.44499 63.5642 6.29395 63.8958 6.29395 64.2388C6.29395 64.569 6.43475 64.9095 6.70099 65.1284L6.80211 65.2295C12.0975 70.2906 25.2111 82.7668 32.5314 89.8196C35.044 92.2644 35.9899 93.0426 36.8962 93.7825C36.9064 93.7902 40.2024 96.4756 40.7899 96.9428C40.2639 96.395 39.5202 95.641 39.5202 95.641Z" fill="#FFEA5B"/>
<path d="M39.4688 95.6871L9.98142 66.1409L9.72542 65.7287L9.6819 65.5662C9.6819 65.5265 9.73566 64.8622 9.73566 64.8622C9.82654 64.6305 29.4233 45.6314 40.5325 36.2017C40.5325 36.2017 55.9936 23.7217 56.2931 23.4644C56.2931 23.4094 55.8349 16.5332 55.8349 16.2209C55.5789 16.4398 32.983 36.5972 32.983 36.5972C24.4813 44.0711 8.48894 61.6455 6.76222 63.362C6.51646 63.5962 6.3667 63.9137 6.3667 64.2375C6.3667 64.5524 6.50878 64.8622 6.75838 65.0785L6.85438 65.1745C12.1382 70.1921 25.2121 82.6465 32.5901 89.7774C35.1001 92.1966 36.032 92.9684 36.9421 93.698C36.9421 93.698 39.6557 95.9278 39.8464 96.075C39.6877 95.9111 39.4688 95.6871 39.4688 95.6871Z" fill="#FFEB61"/>
<path d="M14.0443 70.3162L9.93033 66.1907L9.66025 65.7696L9.62441 65.6595L9.60137 65.5661L9.65897 64.8621C9.74473 64.6215 29.3441 45.5968 40.4827 36.1466C40.4827 36.1466 55.9182 23.6781 56.21 23.4374C56.21 23.3696 55.7607 16.7034 55.7607 16.3885C55.5009 16.615 33.0343 36.6534 33.0343 36.6534C24.5364 44.1363 8.54281 61.7018 6.82121 63.4182C6.58313 63.6371 6.44873 63.9366 6.44873 64.2374C6.44873 64.528 6.57801 64.816 6.80585 65.0426L6.91081 65.1258C12.1806 70.1498 25.2404 82.5747 32.6414 89.7274C35.1553 92.1568 36.0948 92.9107 36.9985 93.657C36.9985 93.657 37.9815 94.4454 38.8084 95.1264C36.6299 92.9453 28.3431 84.6419 14.0443 70.3162Z" fill="#FFEC66"/>
<path d="M9.87112 66.2266L9.59593 65.8093L9.54985 65.6609L9.53065 65.57L9.58185 64.8634C9.66633 64.61 29.2682 45.5495 40.4298 36.0737C40.4298 36.0737 55.8398 23.6461 56.1393 23.4093C56.1393 23.33 55.6746 16.8762 55.6746 16.5536C55.4238 16.784 33.0826 36.7226 33.0826 36.7226C24.5937 44.1837 8.59369 61.7658 6.87081 63.4861C6.64937 63.673 6.52393 63.9597 6.52393 64.2388C6.52393 64.5114 6.64681 64.7776 6.86313 64.9684L6.96553 65.0772C12.2481 70.1076 25.3438 82.5658 32.6986 89.6672C35.2177 92.1095 36.1457 92.8596 37.0442 93.5956C37.0442 93.5956 37.3399 93.8285 37.6881 94.1293C35.8206 92.2439 9.87112 66.2266 9.87112 66.2266Z" fill="#FFEC6B"/>
<path d="M9.81997 66.2842L9.80973 66.2765L9.53069 65.8375L9.47181 65.6954C9.46413 65.6339 9.44877 65.5699 9.44877 65.5699L9.50253 64.8621C9.58829 64.5959 29.1966 45.5072 40.3774 36.0275C40.3774 36.0275 55.7668 23.6192 56.051 23.3696C56.051 23.2941 55.6004 17.0336 55.6004 16.7188C55.3444 16.944 33.1403 36.7776 33.1403 36.7776C24.6808 44.1952 8.65645 61.8208 6.92845 63.5386C6.71853 63.7203 6.60205 63.9802 6.60205 64.2387C6.60205 64.4832 6.71597 64.7277 6.91181 64.9095L7.02189 65.0119C12.3121 70.0576 25.4065 82.5197 32.7499 89.6019C34.7877 91.5795 35.7822 92.4551 36.5643 93.0874C34.5739 91.097 9.81997 66.2842 9.81997 66.2842Z" fill="#FFEC6B"/>
<path d="M9.76393 66.3431L9.74729 66.3162L9.46953 65.8785L9.40681 65.7006L9.37865 65.602L9.42601 64.8545C9.50793 64.5972 29.1137 45.4753 40.3342 35.9751C40.3342 35.9751 55.6839 23.5873 55.9835 23.33C55.9835 23.2762 55.5252 17.2026 55.5252 16.8929C55.2718 17.1118 33.1905 36.8199 33.1905 36.8199C24.7361 44.2657 8.71433 61.8631 6.97865 63.586C6.78409 63.7614 6.67529 63.9969 6.67529 64.2375C6.67529 64.4679 6.78153 64.6906 6.96585 64.8622L7.06953 64.9454C11.1681 68.8647 25.1457 82.1498 32.8078 89.5572C33.6564 90.393 34.3246 91.01 34.8647 91.499C31.9758 88.6151 9.76393 66.3431 9.76393 66.3431Z" fill="#FFEC71"/>
<path d="M9.71382 66.4083L9.6831 66.361L9.40534 65.9258L9.32854 65.744L9.29526 65.6019L9.34902 64.839C9.4271 64.5971 29.0457 45.4483 40.2815 35.9047C40.2815 35.9047 55.6095 23.5475 55.9001 23.2864C55.9001 23.2327 55.4495 17.3754 55.4495 17.0669C55.1922 17.2858 33.2364 36.889 33.2364 36.889C24.7897 44.3155 8.76662 61.9091 7.03734 63.6294C6.85686 63.8035 6.7583 64.0275 6.7583 64.2387C6.7583 64.4461 6.84662 64.6432 7.02454 64.8173L7.1231 64.9094C10.7916 68.3923 22.3436 79.3926 30.2335 86.9613C24.1074 80.8198 9.71382 66.4083 9.71382 66.4083Z" fill="#FFEC71"/>
<path d="M9.65522 66.4468L9.61938 66.4084L9.34034 65.9604L9.25458 65.7697L9.22386 65.6097L9.27378 64.8289C9.34418 64.5972 28.9691 45.4138 40.2229 35.8484C40.2229 35.8484 55.5317 23.5041 55.8325 23.2634C55.8325 23.1943 55.3679 17.5508 55.3679 17.241C55.117 17.4663 33.293 36.9492 33.293 36.9492C24.845 44.3591 8.82322 61.9668 7.09394 63.6935C6.92498 63.8471 6.83154 64.0353 6.83154 64.2388C6.83154 64.4218 6.91474 64.5972 7.0709 64.7457C7.07218 64.7482 18.9723 76.1057 25.7179 82.5492C20.2472 77.0721 9.65522 66.4468 9.65522 66.4468Z" fill="#FFED7A"/>
<path d="M9.59992 66.4929L9.55512 66.4468L9.27224 66.0103L9.18264 65.7914L9.14552 65.6097L9.19416 64.8161C9.27352 64.5972 28.8934 45.3729 40.1778 35.7997C40.1778 35.7997 55.4585 23.4721 55.7426 23.2301C55.7426 23.1546 55.2934 17.7197 55.2934 17.41C55.0361 17.6327 33.3439 36.9953 33.3439 36.9953C24.9036 44.4103 8.87544 62.0346 7.14872 63.7601C6.99768 63.8945 6.91064 64.0698 6.91064 64.2375C6.91064 64.4052 6.9836 64.5524 7.1244 64.6906C7.12568 64.6906 16.4902 73.6378 21.1993 78.1345C16.5452 73.4573 9.59992 66.4929 9.59992 66.4929Z" fill="#FFED7E"/>
<path d="M9.54261 66.5595L9.48629 66.4929L9.20853 66.0577L9.11765 65.8286L9.07413 65.611L9.11893 64.8161C9.18805 64.5972 28.8271 45.3319 40.1308 35.7307C40.1308 35.7307 55.3768 23.4452 55.6751 23.1943C55.6751 23.1214 55.2181 17.8862 55.2181 17.5854C54.9621 17.8068 33.3916 37.0503 33.3916 37.0503C24.9896 44.4462 8.93973 62.0872 7.20149 63.8036C7.06709 63.9367 6.98389 64.0801 6.98389 64.2375C6.98389 64.3758 7.05173 64.5153 7.17845 64.642C7.17845 64.642 13.3276 70.507 16.6837 73.7223C13.3058 70.3252 9.54261 66.5595 9.54261 66.5595Z" fill="#FFEE83"/>
<path d="M9.49121 66.6221L9.42593 66.5427H9.44897C9.40673 66.4928 9.32353 66.3827 9.14049 66.0947L9.03553 65.84L8.99073 65.6096L9.03809 64.816C9.11105 64.5907 28.7539 45.2845 40.0781 35.6717C40.0781 35.6717 55.3024 23.4093 55.593 23.1533C55.593 23.097 55.1424 18.0461 55.1424 17.7491C54.8851 17.9757 33.449 37.1207 33.449 37.1207C25.0522 44.4909 8.99201 62.1293 7.25889 63.8471C7.13473 63.9802 7.06689 64.1133 7.06689 64.2388C7.06689 64.3616 7.12321 64.4755 7.22689 64.5907C7.22689 64.5933 10.7546 67.9456 12.1651 69.2986C10.9082 68.0429 9.49121 66.6221 9.49121 66.6221Z" fill="#FFEF87"/>
<path d="M9.08141 66.1421L8.96877 65.8759L8.91757 65.6532V65.6481L8.96621 64.8161C9.03149 64.5805 28.6833 45.241 40.0267 35.6257C40.0267 35.6257 55.2216 23.3709 55.5236 23.1124C55.5236 23.0573 55.0603 18.2151 55.0603 17.913C54.8081 18.1421 33.4987 37.1706 33.4987 37.1706C25.098 44.5357 9.04685 62.1716 7.30989 63.9021C7.20109 64.0199 7.13965 64.1159 7.13965 64.2375C7.13965 64.3361 7.19341 64.4397 7.28429 64.5204C7.28429 64.5242 8.59373 65.7901 9.27213 66.4199C9.18381 66.306 9.08141 66.1421 9.08141 66.1421Z" fill="#FFEF8B"/>
<path d="M8.89969 65.9206L8.84081 65.6608L8.88561 64.8173C8.95089 64.5715 28.6155 45.1987 39.9768 35.5616C39.9768 35.5616 55.1512 23.3286 55.4354 23.0906C55.4354 23.0214 54.9848 18.3917 54.9848 18.0845C54.7288 18.3059 33.5474 37.2205 33.5474 37.2205C25.2005 44.5766 9.10065 62.2214 7.36625 63.9699C7.27153 64.0544 7.21777 64.1594 7.21777 64.2387C7.21777 64.3219 7.26257 64.4051 7.33681 64.4691C7.33681 64.4691 8.45937 65.5469 8.93809 66.0115L8.89969 65.9206Z" fill="#FFEF8F"/>
<path d="M8.76655 65.666C8.76655 65.6097 8.80879 64.8161 8.80879 64.8161C8.87535 64.5575 28.5425 45.1566 39.9256 35.4964C39.9256 35.4964 55.0693 23.2903 55.3662 23.0535C55.3662 22.9742 54.9067 18.5556 54.9067 18.2574C54.652 18.4763 33.6011 37.2846 33.6011 37.2846C25.2542 44.6228 9.15951 62.2855 7.41999 64.0276L7.29199 64.2388L7.38927 64.4219C7.39567 64.4219 8.56687 65.5406 8.78191 65.7467L8.76655 65.666Z" fill="#FFEF93"/>
<path d="M8.73205 64.816C8.79221 64.5523 28.4709 45.1079 39.8706 35.4503C40.0268 35.321 54.7749 23.4528 55.2818 23.0202C55.2818 22.9485 55.2562 21.9539 55.2562 21.9539C55.2562 21.9539 54.8428 18.7322 54.8428 18.4263C54.597 18.6464 33.6562 37.3485 33.6562 37.3485C27.1564 43.0368 15.9065 55.0778 10.5061 60.8493L7.46869 64.0723H7.47125C7.47125 64.0723 7.40853 64.1978 7.38037 64.2464L7.45845 64.3795C7.46357 64.3795 8.34933 65.2231 8.69749 65.5687C8.70389 65.3933 8.73205 64.816 8.73205 64.816Z" fill="#FFF197"/>
<path d="M8.65671 64.8097V64.7777C8.71943 64.5524 28.4071 45.0695 39.8285 35.3914C39.8285 35.3902 54.9069 23.2378 55.2154 22.9716C55.2129 22.9127 55.1681 21.9527 55.1681 21.9527C55.1681 21.9527 54.7866 19.2724 54.7687 18.5953C54.5306 18.8014 33.6986 37.3934 33.6986 37.3934C27.2052 43.1124 15.9617 55.1265 10.5562 60.9082L7.53031 64.1108L7.54951 64.0404C7.54951 64.0404 7.48679 64.1671 7.46631 64.235L7.52903 64.3361L7.49191 64.3348C7.59815 64.4193 7.87079 64.6727 8.62983 65.3921C8.63879 65.1822 8.65671 64.8097 8.65671 64.8097Z" fill="#FFF19B"/>
<path d="M8.58506 64.802L8.59018 64.7777C8.64522 64.5435 28.3521 45.0222 39.7825 35.3211C39.7825 35.3211 54.8199 23.1969 55.1271 22.9383C55.1271 22.8795 55.1003 21.9566 55.1003 21.9566C55.1003 21.9566 54.7111 19.4158 54.6894 18.7438C54.4539 18.9652 33.7575 37.4497 33.7575 37.4497C27.2615 43.1649 16.027 55.1611 10.6228 60.939C10.6356 60.939 10.6228 60.939 7.58282 64.1671L7.56106 64.2017L7.55082 64.2324L7.59306 64.3118L7.53418 64.2849C7.6417 64.3412 7.89258 64.5959 8.56202 65.2116C8.56714 65.0439 8.58506 64.802 8.58506 64.802Z" fill="#FFF19F"/>
<path d="M8.50579 64.7943L8.51091 64.7418C8.57107 64.5114 28.2946 44.9773 39.7288 35.2762C39.7263 35.2787 39.7314 35.2749 48.077 28.3987C48.077 28.3987 54.9928 22.9664 55.0568 22.9114C55.053 22.8435 54.6421 19.568 54.6178 18.9165C54.3759 19.1392 33.805 37.5187 33.805 37.5187C27.3154 43.2147 16.0834 55.2224 10.6818 60.9978V60.9811C10.6395 61.049 10.5141 61.1757 10.2402 61.4701L7.64307 64.2285L7.66867 64.2848C7.79411 64.3757 8.03219 64.5959 8.49555 65.0426C8.49939 64.9287 8.50579 64.7943 8.50579 64.7943Z" fill="#FFF1A3"/>
<path d="M8.43266 64.7853L8.4365 64.7277C8.49922 64.5114 28.2381 44.9312 39.6749 35.2199L39.6711 35.2314C39.7069 35.1879 39.7619 35.1456 39.9168 35.0125C39.9168 35.0125 54.9223 22.9216 54.9709 22.8781C54.9709 22.7975 54.5562 19.3837 54.5523 19.088C54.3104 19.3043 33.8509 37.5699 33.8509 37.5699C27.3626 43.2608 16.1357 55.2902 10.7341 61.0605L10.3258 61.4982C10.2925 61.5149 7.99362 63.9738 7.74658 64.2349C7.82082 64.3219 8.21762 64.6918 8.4237 64.88L8.43266 64.7853Z" fill="#FFF2A7"/>
<path d="M33.9072 37.6122C27.4137 43.3364 16.192 55.3428 10.7917 61.1143L10.3795 61.5559C10.3795 61.5559 8.11646 63.938 7.84766 64.2273C7.9219 64.2862 8.21758 64.587 8.36478 64.7265C8.42238 64.4692 28.1817 44.8788 39.6262 35.1457L39.8681 34.9639C39.8681 34.9639 54.5497 23.1073 54.9005 22.8436C54.8825 22.777 54.7929 21.9553 54.7929 21.9553C54.6841 20.9914 54.5305 19.659 54.4845 19.234C54.2681 19.4426 33.9072 37.6122 33.9072 37.6122Z" fill="#FFF3AB"/>
<path d="M33.9597 37.6826C27.4689 43.3863 16.2471 55.385 10.857 61.1591C10.8429 61.1591 8.2279 63.9367 7.95654 64.2222C8.03462 64.2862 8.28294 64.5422 8.3623 64.5985C9.64742 63.1879 28.4954 44.4922 39.5841 35.0983L39.8273 34.8961C39.8273 34.8858 54.3591 23.1726 54.8186 22.7988C54.8097 22.7361 54.7188 21.9617 54.7188 21.9617C54.7188 21.9617 54.4858 19.9521 54.4282 19.4004C54.2183 19.5822 33.9597 37.6826 33.9597 37.6826Z" fill="#FFF3AF"/>
<path d="M34.0059 37.7415C27.5265 43.4324 16.3112 55.426 10.9249 61.2026C10.907 61.2052 8.15631 64.1134 8.06543 64.2222C8.12431 64.2849 8.30223 64.4526 8.35855 64.5114C9.96367 62.7553 28.6209 44.3079 39.5329 35.0446L39.7787 34.8372C39.7787 34.8372 54.6677 22.8359 54.7278 22.7809C54.7278 22.7028 54.6433 21.9642 54.6433 21.9642C54.6433 21.963 54.4296 20.0826 54.3771 19.5425C54.1569 19.746 34.0059 37.7415 34.0059 37.7415Z" fill="#FFF3B3"/>
<path d="M34.0546 37.7889C27.5829 43.4772 16.3688 55.4708 10.9749 61.2474C10.9749 61.2474 8.26385 64.1133 8.17041 64.2145C8.22161 64.2733 8.32657 64.377 8.35217 64.3911C10.2056 62.4212 28.5621 44.2567 39.4805 34.9729L39.7237 34.786C39.7198 34.7911 39.7198 34.7911 48.0731 28.0442C48.0731 28.0442 54.5947 22.7988 54.6587 22.7463C54.6446 22.6657 54.5742 21.9809 54.5742 21.9809C54.5742 21.9783 54.3362 19.9329 54.3118 19.7101C54.093 19.8906 34.0546 37.7889 34.0546 37.7889Z" fill="#FFF5B8"/>
<path d="M34.107 37.8464C27.6315 43.5424 16.42 55.5283 11.0337 61.2883C11.0389 61.2883 11.0376 61.2883 9.59886 62.8218C9.59886 62.8218 8.37262 64.112 8.28174 64.208L8.35086 64.2861C10.4053 62.1216 28.5864 44.1376 39.4293 34.9229L39.6712 34.7219L39.6699 34.7821C39.7185 34.7002 39.9694 34.4813 41.1035 33.5559C41.1035 33.5559 54.5102 22.7527 54.5768 22.7104C54.5691 22.6285 54.4859 21.9936 54.4859 21.9936C54.4859 21.9847 54.2798 20.0659 54.2504 19.8509C54.0353 20.0557 34.107 37.8464 34.107 37.8464Z" fill="#FFF5BB"/>
<path d="M34.1578 37.9169C27.6785 43.6052 16.4734 55.5937 11.0884 61.3383V61.3268C11.0628 61.3793 10.9962 61.4381 10.803 61.6468C10.803 61.6468 10.3089 62.1729 9.97607 62.53C15.1934 57.282 30.0119 42.8167 39.3866 34.8743L39.6273 34.6605L39.603 34.7412C39.6516 34.6567 39.8269 34.4929 41.0596 33.5137C41.0596 33.5137 54.4254 22.7284 54.4868 22.6657C54.4855 22.6068 54.4177 21.9988 54.4177 21.9988C54.4177 21.9962 54.218 20.1863 54.2001 20.0186C53.9774 20.1991 34.1578 37.9169 34.1578 37.9169Z" fill="#FFF5BF"/>
<path d="M64.9 25.753L67.5061 28.9005L70.2005 31.9648L72.0283 33.8247C81.6616 43.4772 101.32 63.2109 101.511 63.4093C101.577 63.4528 101.591 63.4989 101.591 63.5616V63.5732C101.591 63.6295 101.555 63.6717 101.535 63.7203C100.691 64.5127 81.4824 82.9946 71.0351 91.8932L54.9263 104.902L55.3832 114.826L79.8991 92.9645C88.8885 85.0656 106.007 66.3175 106.174 66.1434C106.606 65.753 106.841 65.1923 106.841 64.5971C106.841 64.0045 106.606 63.4515 106.139 63.0202L106.044 62.9216C103.091 60.1223 87.9643 45.7248 80.3317 38.3572C77.7307 35.8356 76.7938 35.0586 75.8338 34.3008L71.6507 30.8666L64.9 25.753Z" fill="#FFE600"/>
<path d="M98.0251 74.4366C101.024 71.2571 103.523 68.5665 104.86 67.1099L104.858 67.2289C104.631 67.476 104.375 67.7716 104.099 68.0558C103.917 68.2606 103.701 68.4884 103.483 68.7419C102.165 70.1563 100.402 72.02 98.0251 74.4366ZM55.5906 111.903C55.5304 111.86 55.4754 111.816 55.4101 111.768C55.2808 108.954 55.085 105.026 55.085 104.979C55.373 104.72 71.1221 91.9905 71.1221 91.9905C81.348 83.3313 99.5867 65.7915 101.644 63.8036C101.644 63.8036 101.767 63.586 101.767 63.5374V63.5336L101.632 63.2865L97.5093 59.1726L72.1346 33.7326L70.3221 31.8472C67.8734 29.0926 67.6392 28.8366 67.565 28.7803L67.6328 28.7944C67.6328 28.7944 66.4066 27.3454 65.8754 26.6785C66.6229 27.2609 71.5368 30.9896 71.5586 30.9947L75.7979 34.4596C76.7182 35.2238 77.6885 35.9828 80.2254 38.4545C86.9122 44.93 99.2091 56.642 105.063 62.2088L105.046 62.4033C99.259 56.8891 86.8712 45.1067 80.1128 38.5723C77.5618 36.1121 76.6286 35.3236 75.6994 34.5736L71.437 31.1112C71.437 31.1112 68.1576 28.619 66.8405 27.6129C67.2398 28.0929 67.7416 28.7099 67.7416 28.7099L67.6763 28.6612C67.7531 28.7124 67.9029 28.884 70.2837 31.5745L70.4539 31.7499L72.2562 33.6238L101.728 63.1892L101.897 63.4555C101.897 63.5361 101.795 63.8497 101.795 63.8497C101.631 64.0366 81.9752 82.9857 71.2283 92.1134C71.2283 92.1134 55.5291 104.806 55.2322 105.047C55.2347 105.079 55.4562 109.217 55.5906 111.903Z" fill="#FFE600"/>
<path d="M93.075 79.3684C98.1604 74.0731 102.818 69.0209 104.883 66.8436L104.86 67.1099C103.522 68.5665 101.024 71.2558 98.0248 74.4366C96.6053 75.8702 94.972 77.5188 93.075 79.3684ZM55.7656 112.043C55.708 111.998 55.6568 111.95 55.5902 111.905C55.4558 109.217 55.2344 105.08 55.2344 105.044C55.5313 104.803 71.2305 92.1108 71.2305 92.1108C81.9774 82.9831 101.633 64.0353 101.797 63.8471C101.797 63.8471 101.899 63.5348 101.899 63.4529L101.73 63.1867L72.2571 33.6225L70.4549 31.7486L70.2846 31.5732C67.9038 28.8814 67.7528 28.7112 67.6773 28.66L67.7425 28.7086C67.7425 28.7086 67.2395 28.0916 66.8414 27.6116C68.1573 28.6177 71.4379 31.1099 71.4379 31.1099L75.7003 34.5723C76.6309 35.3211 77.5627 36.1096 80.1137 38.571C86.8709 45.1054 99.2587 56.8891 105.047 62.402L105.039 62.6145C99.3381 57.1873 86.931 45.3703 80.0088 38.6708C77.4667 36.2184 76.5208 35.4504 75.6133 34.7028L71.3368 31.2225C71.3368 31.2225 68.5195 29.0977 67.8117 28.546L67.8552 28.6113V28.6267L70.5521 31.6564L72.3518 33.5137L101.849 63.0804L102.031 63.3812V63.4056C102.031 63.4811 101.936 63.8971 101.936 63.8971C101.851 64.0302 82.4152 82.8142 71.3368 92.2337C71.3368 92.2337 55.6837 104.862 55.3905 105.121C55.3918 105.168 55.6325 109.492 55.7656 112.043Z" fill="#FFE600"/>
<path d="M89.1879 83.1636C95.7031 76.5038 102.424 69.2244 104.897 66.603L104.882 66.8436C102.819 69.0209 98.1594 74.0731 93.074 79.3684C91.8887 80.5396 90.5793 81.7991 89.1879 83.1636ZM64.8628 105.564C68.1422 102.653 71.7351 99.4414 74.5204 96.9454C70.5038 100.629 67.3409 103.441 64.8628 105.564ZM55.9412 112.176C55.899 112.13 55.8337 112.081 55.7658 112.043C55.6327 109.492 55.3921 105.168 55.3921 105.119C55.6839 104.861 71.3383 92.2324 71.3383 92.2324C82.4167 82.8142 101.852 64.0289 101.938 63.8958C101.938 63.8958 102.033 63.4798 102.033 63.4043V63.3799L101.851 63.0791L72.3534 33.5137L70.5537 31.6564L67.8567 28.6267V28.6113L67.8132 28.546C68.521 29.0977 71.3383 31.2225 71.3383 31.2225L75.6148 34.7028C76.5223 35.4503 77.467 36.2196 80.0103 38.6708C86.9313 45.3703 99.3396 57.186 105.041 62.6145L105.033 62.8206C99.4049 57.4574 86.953 45.5982 79.899 38.7911C77.3748 36.3374 76.4174 35.5643 75.5047 34.8219L75.5802 34.8321C75.4932 34.8219 75.0772 34.4724 71.6788 31.7012L71.2538 31.3518C71.2538 31.3492 69.3518 29.9003 68.9217 29.5879C69.5386 30.2881 70.6881 31.5425 70.6881 31.5425L72.4775 33.4177L97.8394 58.8487L101.944 62.9716L102.166 63.3121V63.3223C102.166 63.4427 102.081 63.9355 102.081 63.9355C102.042 64.0276 82.7623 82.7323 71.4356 92.3348C71.4356 92.3348 55.835 104.944 55.5444 105.186C55.5431 105.237 55.8094 109.832 55.9412 112.176Z" fill="#FFE600"/>
<path d="M84.0422 88.066C91.8514 80.4679 101.911 69.5392 104.897 66.361V66.6016C102.423 69.2244 95.7017 76.5024 89.1878 83.1623C87.6095 84.6663 85.8943 86.3034 84.0422 88.066ZM61.239 108.601C68.0716 102.508 79.397 92.4064 79.397 92.4064C79.6786 92.1594 79.982 91.8919 80.2943 91.5936C78.1874 93.5661 76.2815 95.33 74.519 96.9453C71.7337 99.4413 68.142 102.653 64.8614 105.564C63.4418 106.799 62.2438 107.784 61.239 108.601ZM55.9948 112.216C55.9948 112.216 55.9718 112.191 55.941 112.177C55.8092 109.834 55.543 105.238 55.543 105.186C55.8335 104.943 71.4342 92.3335 71.4342 92.3335C82.7622 82.7309 102.04 64.0263 102.08 63.9341C102.08 63.9341 102.164 63.4426 102.164 63.321V63.3108L101.943 62.9703L97.838 58.8474L72.4761 33.4164L70.6866 31.5412C70.6866 31.5412 69.5385 30.2868 68.9202 29.5866C69.3503 29.8989 71.2524 31.3466 71.2524 31.3504L71.6774 31.6999C75.0758 34.4711 75.4905 34.8205 75.5788 34.8308L75.5033 34.8205C76.4159 35.5642 77.3734 36.3373 79.8975 38.7898C86.9516 45.5968 99.4022 57.456 105.032 62.8192V63.0112C99.438 57.7172 86.8646 45.7248 79.8002 38.8935C77.2658 36.4589 76.3174 35.6717 75.4047 34.928C75.1833 34.7424 71.1666 31.472 71.1666 31.472C71.1666 31.472 70.5727 31.033 70.0902 30.6503C70.437 31.042 70.8108 31.4426 70.8108 31.4426L70.7903 31.44L72.5682 33.2986L102.066 62.8794L102.296 63.2288L102.303 63.2775L102.248 63.9367C102.209 64.016 83.1615 82.5978 71.5353 92.4615C71.5353 92.4615 55.9846 105 55.6991 105.253C55.6991 105.305 55.9871 110.142 56.11 112.213H56.1087L55.9948 112.216Z" fill="#FFE200"/>
<path d="M59.305 110.109C65.5386 104.556 79.2807 92.2926 79.2807 92.2926C87.209 85.3166 101.473 69.7582 104.908 66.1422L104.897 66.361C101.911 69.5393 91.8515 80.4679 84.0423 88.066C83.3779 88.6868 82.7149 89.3242 82.0186 89.9566C81.4375 90.5262 80.8653 91.0663 80.2944 91.5937C79.9821 91.8906 79.6787 92.1582 79.3971 92.4065C79.3971 92.4065 68.0717 102.51 61.2391 108.601C60.4941 109.192 59.8579 109.701 59.305 110.109ZM56.1101 112.214C55.9872 110.143 55.6992 105.306 55.6992 105.254C55.9847 105.002 71.5354 92.4628 71.5354 92.4628C83.1616 82.5991 102.209 64.0174 102.248 63.938L102.303 63.2788L102.296 63.2302L102.066 62.8807L72.5683 33.2999L70.7904 31.4414L70.8109 31.4439C70.8109 31.4439 70.4359 31.0433 70.0903 30.6516C70.5728 31.0331 71.1667 31.4734 71.1667 31.4734C71.1667 31.4734 75.1834 34.7438 75.4048 34.9294C76.3175 35.673 77.2647 36.4603 79.8003 38.8948C86.8647 45.7262 99.4381 57.7185 105.032 63.0126L105.029 63.2302C99.4778 57.963 86.816 45.9054 79.6787 39.0011C77.1648 36.5563 76.233 35.8049 75.3127 35.0548C75.3127 35.0548 72.0064 32.3643 71.4343 31.8817C71.9539 32.4359 72.7053 33.2052 72.7053 33.2052L98.0634 58.6362L102.173 62.7463L102.429 63.1457L102.463 63.2788L102.399 63.9547C102.304 64.2017 82.7149 83.1802 71.6455 92.569C71.6455 92.569 56.1434 105.071 55.8515 105.328C55.8515 105.386 56.1728 110.326 56.2752 112.143C56.1843 112.186 56.1408 112.199 56.1101 112.214Z" fill="#FFDE00"/>
<path d="M57.989 111.078C63.0923 106.534 79.1883 92.1761 79.1883 92.1761C87.1512 85.1821 101.704 69.273 104.911 65.9233L104.909 66.1421C101.474 69.7569 87.2114 85.3153 79.2818 92.2925C79.2818 92.2925 65.5397 104.556 59.3061 110.109C58.7979 110.501 58.3704 110.817 57.989 111.078ZM56.2738 112.143C56.1714 110.326 55.8501 105.386 55.8501 105.328C56.1419 105.071 71.644 92.569 71.644 92.569C82.7135 83.1802 102.303 64.2017 102.397 63.9546L102.461 63.2788L102.428 63.1457L102.172 62.7463L98.0619 58.6362L72.7051 33.2052C72.7051 33.2052 71.9538 32.4359 71.4341 31.8817C72.0063 32.3642 75.3125 35.0548 75.3125 35.0548C76.2328 35.8036 77.1647 36.5562 79.6786 39.001C86.8159 45.9053 99.4776 57.9629 105.029 63.2301L105.011 63.4209C99.5621 58.2484 86.8312 46.1242 79.5813 39.1124C77.0674 36.6829 76.1291 35.9137 75.2191 35.1866C75.2191 35.1866 74.236 34.3777 73.4194 33.6941C75.58 35.8919 83.868 44.1837 98.1669 58.5146L102.297 62.6593L102.564 63.0548L102.596 63.1879L102.609 63.2788L102.564 63.9802C102.469 64.2029 82.8747 83.2493 71.7387 92.6919C71.7387 92.6919 56.2968 105.154 56.0088 105.393C56.0088 105.452 56.3583 110.584 56.4491 112.067C56.3826 112.093 56.3199 112.13 56.2738 112.143Z" fill="#FFDA00"/>
<path d="M57.0929 111.691C60.3019 108.819 79.0808 92.066 79.0808 92.066C87.1179 85.0132 101.985 68.7444 104.93 65.6711L104.91 65.9233C101.702 69.273 87.1499 85.1822 79.187 92.1761C79.187 92.1761 63.0923 106.534 57.9877 111.078C57.628 111.333 57.3297 111.549 57.0929 111.691ZM56.4491 112.066C56.3582 110.582 56.0088 105.451 56.0088 105.392C56.2968 105.153 71.7387 92.6906 71.7387 92.6906C82.8747 83.2481 102.469 64.2017 102.564 63.979L102.608 63.2775L102.596 63.1866L102.564 63.0535L102.297 62.658L98.1669 58.5134C83.8667 44.1838 75.5787 35.8919 73.4181 33.6942C74.236 34.3777 75.2177 35.1866 75.2177 35.1866C76.1278 35.9137 77.0661 36.683 79.58 39.1124C86.8299 46.1255 99.5608 58.2497 105.01 63.4209L104.989 63.6295C99.5966 58.4724 86.7275 46.2177 79.452 39.2225C77.4309 37.2564 76.4376 36.3796 75.6657 35.7345C77.6472 37.7338 102.391 62.5351 102.391 62.5351L102.399 62.5556L102.688 62.9767L102.734 63.147C102.747 63.1905 102.771 63.2506 102.771 63.2506L102.701 63.9815C102.626 64.2234 83.027 83.3185 71.8219 92.8186C71.8219 92.8186 56.4542 105.214 56.1585 105.473C56.1585 105.528 56.5592 111.01 56.6142 111.974C56.5579 112.007 56.4901 112.047 56.4491 112.066Z" fill="#FFD800"/>
<path d="M56.6144 111.971C56.5593 111.007 56.1587 105.525 56.1587 105.47C56.4544 105.212 71.822 92.816 71.822 92.816C83.0272 83.3159 102.627 64.2221 102.701 63.9789L102.771 63.248C102.771 63.248 102.746 63.1891 102.734 63.1444L102.688 62.9741L102.399 62.553L102.391 62.5325C102.391 62.5325 77.6473 37.7325 75.6659 35.7319C76.4377 36.377 77.431 37.2538 79.4521 39.2199C86.7276 46.2176 99.5968 58.4724 104.991 63.6295V63.8445C101.217 60.2362 89.8022 49.3844 81.9763 41.8554C88.0972 47.9994 102.515 62.4378 102.515 62.4378L102.528 62.4724L102.82 62.9088L102.88 63.0957L102.922 63.2288L102.867 63.9789C102.789 64.2439 83.168 83.3837 71.9398 92.9197C71.9398 92.9197 56.6093 105.299 56.3161 105.535C56.3161 105.602 56.7782 111.461 56.7782 111.778C57.0291 111.546 78.967 91.9405 78.967 91.9405C87.1244 84.7968 102.298 68.1901 104.937 65.4407L104.929 65.6711C101.983 68.7444 87.1168 85.0132 79.0796 92.066C79.0796 92.066 60.3008 108.819 57.0918 111.691C56.8947 111.816 56.7385 111.912 56.6144 111.971Z" fill="#FED600"/>
<path d="M56.778 111.779C56.778 111.462 56.3159 105.603 56.3159 105.537C56.609 105.299 71.9396 92.9209 71.9396 92.9209C83.1678 83.3849 102.79 64.2451 102.867 63.9801L102.922 63.2301L102.88 63.0969L102.82 62.9101L102.528 62.4723L102.515 62.4377C102.515 62.4377 88.097 47.9993 81.9761 41.8553C89.802 49.383 101.217 60.2349 104.99 63.8445L104.98 64.0352C103.954 63.0547 95.4238 54.9165 91.0103 50.7117C95.681 55.3683 102.61 62.3379 102.61 62.3379L102.657 62.3968L102.945 62.8294L103.045 63.0368L103.065 63.2301L103.01 64.0045C102.95 64.2451 83.3316 83.4681 72.051 93.0413C72.051 93.0413 56.7665 105.35 56.4695 105.602C56.4695 105.676 56.9265 111.115 56.9265 111.426C57.185 111.198 78.8798 91.8381 78.8798 91.8381C87.137 84.5651 102.688 67.5219 104.937 65.2115V65.4406C102.297 68.1901 87.1242 84.7968 78.9668 91.9405C78.9668 91.9417 57.0289 111.547 56.778 111.779Z" fill="#FDD402"/>
<path d="M56.9267 111.426C56.9267 111.115 56.4697 105.676 56.4697 105.602C56.7667 105.35 72.0512 93.0413 72.0512 93.0413C83.3305 83.4682 102.95 64.2452 103.011 64.0045L103.066 63.2301L103.045 63.0368L102.945 62.8295L102.657 62.3968L102.61 62.338C102.61 62.338 95.6825 55.3697 91.0105 50.7117C95.424 54.9165 103.954 63.0548 104.98 64.0353V64.2464C104.809 64.0711 101.422 60.8493 100.047 59.5335C101.3 60.8071 102.733 62.2215 102.733 62.2215L102.79 62.306L102.78 62.2932C102.812 62.338 102.888 62.4378 103.073 62.7463L103.177 62.9754L103.214 63.2122L103.177 64.0263C103.096 64.2465 83.4611 83.5629 72.1331 93.1744C72.1331 93.1744 56.919 105.432 56.622 105.688C56.622 105.739 57.0867 110.777 57.0867 111.078C57.3388 110.856 78.7712 91.7127 78.7712 91.7127C87.1603 84.3501 103.176 66.7591 104.939 64.994L104.934 65.2128C102.684 67.5232 87.1347 84.5665 78.8774 91.8394C78.88 91.8394 57.1852 111.199 56.9267 111.426Z" fill="#FDD303"/>
<path d="M57.0892 111.078C57.0892 110.777 56.6245 105.739 56.6245 105.688C56.9215 105.432 72.1355 93.1745 72.1355 93.1745C83.4635 83.5617 103.097 64.2452 103.179 64.0263L103.217 63.2122L103.179 62.9754L103.076 62.7463C102.889 62.4378 102.815 62.3367 102.783 62.2932L102.793 62.306L102.735 62.2215C102.735 62.2215 101.304 60.8071 100.05 59.5335C101.423 60.8481 104.811 64.0711 104.983 64.2465L104.973 64.4807C104.945 64.4385 104.921 64.4001 104.882 64.3655C104.882 64.3655 103.75 63.2839 103.275 62.8397L103.314 62.9242L103.373 63.1905L103.315 64.0301C103.268 64.258 83.5967 83.6423 72.2367 93.2666C72.2367 93.2666 57.0687 105.506 56.7832 105.745C56.7832 105.822 57.2402 110.453 57.2402 110.741C57.4898 110.524 78.6661 91.6103 78.6661 91.6103C87.0309 84.2682 103.11 66.5965 104.852 64.8647C104.9 64.8186 104.939 64.7802 104.952 64.7303L104.945 64.9965C103.181 66.7617 87.164 84.3527 78.7762 91.7153C78.7736 91.7127 57.3413 110.856 57.0892 111.078Z" fill="#FCD006"/>
<path d="M103.533 63.2787C103.512 63.4541 103.483 64.0275 103.483 64.0275C103.423 64.2771 83.7312 83.7024 72.3545 93.392C72.1881 93.5213 57.454 105.384 56.9331 105.819C56.9331 105.878 57.0432 106.883 57.0432 106.883C57.0432 106.883 57.3721 110.101 57.39 110.413C57.6281 110.191 78.5676 91.4937 78.5676 91.4937C85.0585 85.7798 96.3072 73.7657 101.718 67.9712L104.735 64.7776H104.726C104.726 64.7699 104.809 64.6432 104.824 64.5971L104.764 64.4678C104.765 64.4678 103.863 63.5974 103.533 63.2787ZM57.2377 110.739C57.2377 110.449 56.7808 105.818 56.7808 105.743C57.0675 105.502 72.2342 93.264 72.2342 93.264C83.5942 83.6397 103.265 64.2553 103.313 64.0275L103.37 63.1878L103.311 62.9216L103.273 62.8371C103.748 63.2825 104.879 64.3629 104.879 64.3629C104.919 64.3974 104.942 64.4371 104.97 64.4781L104.948 64.7264C104.936 64.7763 104.896 64.8147 104.849 64.8608C103.107 66.5926 87.0272 84.263 78.6624 91.6064C78.6636 91.6077 57.4873 110.521 57.2377 110.739Z" fill="#FCCF07"/>
<path d="M103.663 63.6218C103.655 63.7907 103.626 64.0275 103.626 64.0275L103.623 64.0698C103.567 64.2861 83.8603 83.8112 72.4388 93.5111C72.4388 93.5111 57.4065 105.635 57.0929 105.886C57.0929 105.953 57.1979 106.945 57.1979 106.945C57.1979 106.945 57.5064 109.409 57.532 110.072C57.7713 109.864 78.4651 91.3671 78.4651 91.3671C84.9624 85.6787 96.188 73.657 101.584 67.8829V67.8842C101.584 67.8842 101.687 67.7754 104.631 64.6471L104.649 64.6419L104.678 64.5959L104.631 64.5101L104.678 64.5511C104.573 64.473 104.317 64.2451 103.663 63.6218ZM57.3886 110.413C57.3707 110.101 57.0417 106.883 57.0417 106.883C57.0417 106.883 56.9316 105.878 56.9316 105.82C57.4526 105.384 72.1867 93.5213 72.3531 93.392C83.731 83.7024 103.421 64.2771 103.481 64.0275C103.481 64.0275 103.511 63.4528 103.531 63.2787C103.862 63.5987 104.764 64.4691 104.764 64.4691L104.824 64.5984C104.809 64.6445 104.726 64.7712 104.726 64.7789H104.735L101.718 67.9725C96.307 73.7671 85.0584 85.7811 78.5675 91.4951C78.5675 91.4938 57.6267 110.191 57.3886 110.413Z" fill="#FBCD0B"/>
<path d="M72.535 93.6084C72.5196 93.6417 72.4416 93.6929 72.3123 93.826C72.3123 93.826 57.3056 105.917 57.239 105.953C57.239 106.039 57.6614 109.443 57.6678 109.749C57.9033 109.535 78.3513 91.2763 78.3513 91.2763C84.8396 85.5598 96.0742 73.5534 101.469 67.7768L101.899 67.3288C101.926 67.316 104.234 64.8622 104.461 64.5972C104.398 64.5115 104.006 64.1569 103.796 63.9419V64.0417L103.786 64.1134C103.708 64.3374 83.9769 83.9163 72.535 93.6148V93.6084ZM57.5308 110.073C57.504 109.409 57.1968 106.946 57.1968 106.946C57.1968 106.946 57.0918 105.954 57.0918 105.887C57.4054 105.637 72.4377 93.5124 72.4377 93.5124C83.8592 83.8126 103.566 64.2875 103.622 64.0712V64.0276C103.622 64.0276 103.654 63.7896 103.662 63.6219C104.316 64.2452 104.572 64.4731 104.677 64.5537L104.63 64.5128L104.677 64.5985L104.648 64.6446L104.63 64.6497C101.686 67.778 101.583 67.8868 101.583 67.8868V67.8856C96.1856 73.6596 84.9612 85.6801 78.464 91.3697C78.4652 91.3672 57.7702 109.866 57.5308 110.073Z" fill="#FACB0C"/>
<path d="M57.6681 109.749C57.6617 109.443 57.2393 106.04 57.2393 105.953C57.3058 105.918 72.3125 93.8259 72.3125 93.8259C72.4418 93.6928 72.5199 93.6416 72.5353 93.6083V93.6134C83.9772 83.9149 103.708 64.336 103.786 64.112L103.797 64.0403V63.9405C104.005 64.1555 104.398 64.5101 104.461 64.5959C104.234 64.8621 101.928 67.3159 101.9 67.3274L101.47 67.7754C96.0745 73.5533 84.8412 85.5597 78.3516 91.2749C78.3516 91.2762 57.9036 109.535 57.6681 109.749Z" fill="#FAC90E"/>
<path d="M11.2616 56.9248L6.56396 52.2106L11.3972 47.4016L16.0936 52.1069L11.2616 56.9248ZM97.3121 47.9879V53.2679H98.6856V47.9879H97.3121Z" fill="#F8EC17"/>
<path fill-rule="evenodd" clip-rule="evenodd" d="M62.5255 46.7412V77.5111H53.4567L53.4093 52.3437L57.3299 51.3684L56.1831 46.7847L62.5255 46.7412ZM25.8266 53.401V85.1629H34.7815V59.3069H36.7143C37.6103 59.3069 40.1101 60.5396 40.1101 63.1879C40.1101 66.0065 37.5987 68.3169 35.5315 69.9412L44.8755 85.4484C47.456 83.3172 52.2189 78.8359 52.2189 78.8359C48.4224 74.489 44.2535 69.9745 44.2535 69.9745C48.3341 66.6439 49.3479 64.1594 49.1303 61.2461C48.6643 55.0753 42.9159 53.9258 38.5229 53.401C35.0784 53.0029 29.5834 53.2538 25.8266 53.401ZM73.1175 85.0618H82.3616V60.7213H91.0963V52.9095H64.3751V60.7213H73.1175V85.0618ZM22.3655 45.3729C22.3655 45.3729 13.0368 45.3767 3.65186 45.7876V80.1197H12.9959L13.0048 67.6564L21.5911 67.6615V60.2605L12.8807 60.2925L12.8935 53.1194L22.3437 53.1335L22.3655 45.3729ZM119.537 64.994L125.585 65.2129L128 49.5802L120.504 48.9889L119.537 64.994ZM116.813 68.4397L118.008 69.9271L121.85 74.6529L126.588 70.8154L121.563 64.5959L116.813 68.4397Z" fill="black"/>
<path fill-rule="evenodd" clip-rule="evenodd" d="M60.4518 75.7396H49.7882L49.7459 49.154L53.4938 48.2093L52.3021 43.385L60.4506 43.3773V75.7396M69.4451 58.9357V83.2954H80.2957V58.9357L88.073 59.2225L89.0304 59.2237V49.5418H60.7181V59.2237L61.5949 59.1316C61.5091 59.1316 69.4451 58.9357 69.4451 58.9357ZM88.4505 41.8017V51.4093L88.8371 51.3697C92.7245 51.1943 95.9898 51.1789 98.6816 51.1533L86.0633 75.49H87.9322H113.071L113.064 65.8772L112.078 65.9271C107.564 66.2266 104.166 66.1921 101.571 66.1434L114.305 42.4237L112.933 42.3341C100.813 41.6596 91.8541 41.8081 88.8051 41.8017H88.4505ZM20.0371 42.0679C20.0371 42.0679 10.1555 42.0397 0.74368 42.457L0 42.4724V78.3533H10.9069L10.9222 65.8644L18.5946 65.8708H19.4957L19.5008 56.7508L10.793 56.793L10.8045 51.4618L19.4035 51.4823L20.2752 51.4631L20.2931 42.7271" fill="black"/>
<path fill-rule="evenodd" clip-rule="evenodd" d="M32.6746 66.4084C34.6215 64.8161 36.4775 62.8359 36.4775 60.6292C36.4775 58.5095 34.4231 57.4983 33.8445 57.4983H32.6746V66.4084ZM35.7389 50.091C40.0384 50.5799 46.5063 51.778 47.0221 58.6119C47.2551 61.6916 46.1722 64.3028 42.4589 67.5105L50.4295 76.8558L49.9456 77.3396C47.7735 79.5873 45.2916 81.7018 42.7136 83.8228L42.0314 84.3962L32.6746 68.875V83.3607H22.1914V50.1102L22.921 50.0922C26.7188 49.9143 32.2663 49.6929 35.7389 50.091ZM117.036 46.6644L126.188 47.4042L123.549 64.5972L115.958 64.3054L117.036 46.6644ZM124.797 69.625L118.82 74.4622L115.157 69.9386L115.162 77.2538H90.7956H90.2426L102.844 52.9121C99.9232 52.9569 96.5236 52.9121 88.6644 53.3102V45.3524C95.0247 45.1745 103.809 45.0196 115.922 45.6826L103.139 69.4574C105.514 69.5342 108.755 69.6033 113.019 69.4074V68.4769H113.979L119.948 63.6282L124.797 69.625Z" fill="black"/>
<path fill-rule="evenodd" clip-rule="evenodd" d="M59.6558 44.1824V74.9421H50.587L50.5397 49.785L54.4667 48.8007L53.2904 44.185L59.6558 44.1824ZM22.9557 50.8448V82.5863H31.9118V56.7443H33.8446C34.7406 56.7443 37.2417 57.9821 37.2417 60.6304C37.2417 63.4349 34.7317 65.7466 32.6632 67.376L42.2273 83.2493C44.8091 81.1322 47.2577 79.0176 49.3992 76.8173L41.3864 67.4195C45.467 64.0736 46.4821 61.5981 46.2657 58.6861C45.7998 52.5191 40.0462 51.3645 35.6558 50.8448C32.2101 50.4455 26.7163 50.681 22.9557 50.8448ZM70.2478 82.4941H79.4958V58.16L88.2318 58.3443V50.3431H61.5093V58.3443L70.2478 58.16V82.4941ZM89.1086 50.5786C93.6565 50.3546 97.0548 50.3866 99.9733 50.3546L87.3755 74.6912H87.9285H112.292L112.283 66.7117C106.953 67.0663 103.012 66.9767 100.269 66.8947L113.054 43.1264C100.936 42.4531 92.1563 42.6029 89.1073 42.5978V50.5786M19.4997 47.6653V42.8576L0.782227 43.2224V77.5674H10.1313L10.139 65.0797H18.7189V57.6864L10.0123 57.7235L10.0277 50.5466L19.5099 50.5363L19.4997 47.6653ZM116.813 63.5386L122.876 63.7626L125.283 48.1171L117.784 47.5347L116.813 63.5386ZM115.068 68.6087L118.917 73.3549L123.651 69.5111L119.812 64.7776L115.068 68.6087Z" fill="#E2001A"/>
</svg>
