<svg width="128" height="128" viewBox="0 0 128 128" fill="none" xmlns="http://www.w3.org/2000/svg">
<path d="M40.4788 70.7672L48.7447 48.4028C54.9351 37.0954 66.3141 31.1554 77.5857 31.1554C86.1379 31.1554 92.5788 35.7356 93.7239 43.1069C84.1698 48.1523 40.4788 70.7672 40.4788 70.7672ZM123.424 66.6879C136.127 29.4379 122.171 6 84.2056 6C48.6373 6 16.2537 27.935 3.87281 64.362C-8.9375 102.077 11.1725 122.509 47.3849 122.509C72.3256 122.509 100.809 110.808 115.766 85.0088H78.4445C71.7173 92.237 64.847 95.028 56.5096 95.028C40.5146 95.028 35.1471 86.5117 40.5146 70.7672H122.1L123.424 66.6879Z" fill="url(#paint0_linear_5027_37045)"/>
<defs>
<linearGradient id="paint0_linear_5027_37045" x1="64" y1="6" x2="64" y2="122.509" gradientUnits="userSpaceOnUse">
<stop stop-color="#1869FF"/>
<stop offset="1" stop-color="#002F87"/>
</linearGradient>
</defs>
</svg>
