<svg width="128" height="128" viewBox="0 0 128 128" fill="none" xmlns="http://www.w3.org/2000/svg">
<path d="M87.7207 54.6754C83.3489 50.3125 77.1739 47.8352 70.9943 48.0615C66.2314 48.0702 61.5509 49.721 57.7484 52.5675C52.621 56.3567 49.2484 62.363 48.5015 68.6768C48.4231 70.5148 48.4534 72.3532 48.5447 74.1912C49.5744 82.9691 56.0106 90.8652 64.4757 93.4856C68.9475 94.8506 73.9234 95.1155 78.343 93.4116C78.7251 93.399 79.0721 93.292 79.3845 93.09C87.4348 90.4625 93.315 82.7479 94.4434 74.4392C95.4512 67.2859 92.866 59.7423 87.7207 54.6754Z" fill="#F1151F"/>
<path d="M108.949 35.585C112.274 35.6287 115.602 35.6248 118.927 35.5986C118.905 40.1269 118.961 44.651 118.9 49.1787C121.882 49.1787 124.867 49.2042 127.853 49.165C127.822 51.6856 128.087 54.2106 127.861 56.7314C124.871 56.7836 121.829 56.5144 118.87 56.8535L118.466 57.083C118.305 65.1833 118.6 73.2878 118.326 81.3887C118.305 82.7662 118.496 84.1392 118.757 85.4912C118.895 85.4302 119.165 85.3092 119.304 85.248C119.969 85.8217 120.504 86.6593 121.442 86.8027C123.602 87.216 125.823 86.9858 128 86.7949C127.787 89.3629 127.918 91.944 127.853 94.5166C123.416 94.9946 118.761 95.5642 114.459 94.0479C112.534 93.4129 110.852 92.0091 110.083 90.1104C109.114 87.7902 108.992 85.2262 108.939 82.7451C108.939 74.0666 108.923 65.3879 108.949 56.71C106.724 56.7056 104.499 56.7147 102.278 56.7061C102.274 55.4524 102.272 54.1984 102.274 52.9453V52.9443C102.272 54.1975 102.274 55.4514 102.278 56.7051L101.553 56.7393C101.552 54.2186 101.539 51.6939 101.557 49.1738L102.296 49.1865L102.295 49.1875C104.516 49.1826 106.732 49.1822 108.953 49.1865C108.918 44.6542 108.936 40.1173 108.949 35.585ZM0 32C3.32009 32.0213 6.63987 32.0088 9.95996 32.0088C9.85975 39.6873 10.0462 47.3704 9.86426 55.0488C9.93396 55.088 10.0778 55.1659 10.1475 55.2051C12.6853 50.8163 17.7389 48.2139 22.7402 48.0439C26.3949 47.957 30.2666 48.4216 33.3955 50.4463C36.8023 52.4672 39.0107 56.3402 39.2627 60.251C39.5537 62.2151 39.4667 64.2009 39.4756 66.1777C39.4756 75.6427 39.4755 85.108 39.4795 94.5732C36.1813 94.5375 32.887 94.5551 29.5889 94.5684C29.6324 86.7028 29.5935 78.8369 29.6064 70.9717C29.5849 68.2467 29.7193 65.5083 29.3545 62.7969C28.8415 61.5367 28.6071 60.1472 27.8555 58.9912C27.1995 57.9436 26.0522 57.4003 25.1699 56.5791C22.8452 55.801 20.3768 55.753 17.9648 56.0879L17.8867 56.1748C16.2356 56.8351 14.5755 57.6045 13.333 58.917C12.3465 59.8511 11.833 61.1456 10.9551 62.167C10.3685 64.0309 9.89484 65.9609 9.92969 67.9297C9.95158 76.8119 9.91633 85.6898 9.95117 94.5723C6.63576 94.5461 3.31541 94.5417 0 94.5723C0.017578 73.7132 0.0129525 52.8588 0 32Z" fill="url(#paint0_linear_5027_35997)"/>
<defs>
<linearGradient id="paint0_linear_5027_35997" x1="64" y1="32" x2="64" y2="95.0306" gradientUnits="userSpaceOnUse">
<stop stop-color="white"/>
<stop offset="1" stop-color="#CFCFCF"/>
</linearGradient>
</defs>
</svg>
