<svg width="128" height="128" viewBox="0 0 128 128" fill="none" xmlns="http://www.w3.org/2000/svg">
<rect x="24" y="24" width="80" height="80" fill="white"/>
<path d="M119.04 96.7314C124.709 87.2229 128 75.8857 128 64C128 28.7086 99.2914 0 64 0C28.7086 0 0 28.7086 0 64C0 99.2914 28.7086 128 64 128C75.8857 128 87.2229 124.709 96.7314 119.04L121.234 125.074C123.611 125.623 125.623 123.611 125.074 121.234L119.04 96.7314ZM89.9657 87.04C89.9657 88.8686 88.5029 90.1486 86.8571 90.1486H42.9714C41.1429 90.1486 39.8629 88.6857 39.8629 87.04V48.4571C39.8629 47.5429 40.2286 46.6286 40.96 46.08L62.9029 27.0629C64 25.9657 65.8286 25.9657 67.1086 27.0629L89.0514 46.08C89.7829 46.6286 90.1486 47.5429 90.1486 48.4571L89.9657 87.04Z" fill="url(#paint0_linear_5027_36004)"/>
<defs>
<linearGradient id="paint0_linear_5027_36004" x1="124.251" y1="124.251" x2="18.7657" y2="18.7657" gradientUnits="userSpaceOnUse">
<stop stop-color="#5DC6FF"/>
<stop offset="1" stop-color="#375DE6"/>
</linearGradient>
</defs>
</svg>
