<svg width="128" height="128" viewBox="0 0 128 128" fill="none" xmlns="http://www.w3.org/2000/svg">
<path d="M116.92 52.0251C120.888 52.1104 123.545 52.2901 125.079 54.0261C126.52 55.6562 125.708 58.0625 124.881 60.9187C123.868 64.4145 122.493 68.7565 121.782 69.28L122.697 69.2605H128L126.88 72.9978C126.88 72.9978 120.752 73.0014 119.876 72.9978C118.237 72.9944 116.785 73.0899 115.804 73.2947C114.274 73.6114 113.3 74.2064 112.606 74.8835C112.228 75.2482 112.079 75.5269 112.074 75.5349C112.077 75.5153 112.254 74.1789 113.087 72.9958C113.975 71.7342 115.393 70.7053 116.97 70.1531C118.377 69.6587 119.82 69.4076 121.031 69.3005C121.022 69.3 120.505 69.266 119.719 69.283C118.688 69.3053 117.413 69.4611 116.497 69.6794C115.635 69.8857 114.374 70.3373 113.403 70.9236C111.752 71.923 111.038 72.9857 111.03 72.9978C109.207 72.9651 107.755 72.8935 106.826 72.5496C105.456 72.0429 104.443 71.1491 104.025 69.7185C103.491 67.8923 103.906 66.4714 104.56 64.0583C105.159 61.8584 106.413 58.0385 106.807 56.9861C107.674 54.6685 108.375 53.8976 109.477 53.1833C111.141 52.1022 113.798 51.959 116.92 52.0251ZM31.4387 52.0251C35.6446 52.1104 38.0887 52.2287 39.6165 54.2136C40.8032 55.7565 40.2883 57.6412 39.5764 60.0251C38.3948 63.9779 37.6224 66.4007 37.1301 67.7039C36.5293 69.2966 35.9133 70.5726 34.6819 71.5261C33.7594 72.2408 32.5109 72.8388 30.4426 72.9578C28.3732 73.0772 22.8016 73.2359 21.2903 72.5593C19.7781 71.8838 18.932 71.052 18.5051 69.8142C17.9569 68.2297 18.2355 66.4816 18.8313 64.4148C19.4628 62.2251 20.9469 57.8174 21.3303 56.7615C22.1676 54.444 22.9627 53.7615 23.8372 53.1736C25.5444 52.022 28.6746 51.9711 31.4387 52.0251ZM10.8069 52.0427C15.772 51.8144 20.301 52.5847 20.301 52.5847L18.929 56.8718C17.8547 56.5955 14.8168 55.9783 12.2542 56.3347C11.0219 56.507 9.81053 56.9913 8.97583 58.1833C8.23092 59.2478 6.08564 65.244 6.31665 67.0789C6.71323 70.2192 16.6213 68.0515 16.6213 68.0515L15.2161 72.6423C15.2161 72.6423 8.85962 73.2959 4.87427 72.8611C4.0156 72.7669 1.79659 72.3717 0.576416 70.4744C-0.497942 68.8015 0.240887 65.984 0.337158 65.6189C0.947905 63.3233 2.06438 59.5531 3.07837 57.1707C4.13721 54.6777 5.38265 53.5139 6.89185 52.8796C8.02332 52.402 9.59392 52.0992 10.8069 52.0427ZM101.752 72.7009H96.053L96.2913 68.3474H89.3899L86.7581 72.6375H81.053C81.1156 72.5389 90.4273 57.8853 91.0247 57.0251C91.6691 56.0942 92.7393 54.1365 93.8293 53.4509C94.8355 52.8183 95.5004 52.4041 97.7629 52.4041H102.577L101.752 72.7009ZM80.4563 52.3953C82.2482 52.3953 84.2991 52.6703 85.4026 53.6833C86.6305 54.8118 87.3075 56.9008 86.387 59.9978C84.7665 65.4393 81.4416 66.7509 77.8635 66.821C76.133 66.8553 72.1799 66.8455 72.1799 66.8455L70.3176 72.6921H64.5256L70.9739 52.3953H80.4563ZM44.5774 52.322C44.5774 52.322 48.5458 52.312 49.4436 52.3816C51.2862 52.5268 52.5692 53.2716 52.925 55.1189C53.2466 56.7719 53.8446 60.1611 53.8489 60.1853C53.8684 60.1581 57.2975 55.3732 58.0667 54.3972C59.515 52.5561 61.5405 52.4134 62.1663 52.4041H68.0706L61.6301 72.6394H56.0862L61.1819 56.6042L51.7893 69.3425H50.6907L48.5598 56.906L43.5139 72.6394H38.1399L44.5774 52.322ZM117.507 55.7595C117.507 55.7595 116.166 55.7152 115.526 55.7732C115.162 55.8074 114.194 55.8011 113.517 56.323C112.864 56.8276 112.705 57.3036 112.344 58.155C111.938 59.1066 109.929 65.7278 109.805 66.1833C109.625 66.8384 109.484 67.6842 109.835 68.3181C110.313 69.1828 111.406 69.2664 111.406 69.2664C111.426 69.268 112.618 69.3621 113.381 69.283C114.365 69.1806 115.217 69.0635 115.963 68.3884C116.81 67.6192 117.165 66.3523 117.552 65.1892C118.131 63.4501 119.479 58.933 119.638 58.2585C119.781 57.6448 120.074 56.8456 119.578 56.3308C119.042 55.7742 117.513 55.7596 117.507 55.7595ZM30.2512 55.7937C29.8053 55.8128 28.6826 55.8351 28.0364 56.323C27.4357 56.7762 27.3202 57.1998 26.9221 58.155C26.5263 59.1051 24.5332 65.2181 24.5139 65.2771C24.5139 65.2771 23.6509 67.3803 24.3147 68.3816C24.8869 69.2421 26.0356 69.2575 26.2454 69.283C26.7463 69.3439 27.9456 69.2975 27.968 69.2966C27.968 69.2966 29.224 69.2836 29.9944 68.7449C31.0591 67.9996 31.5041 66.5604 31.8958 65.3679C32.2566 64.2701 33.887 58.8533 33.887 58.8533C33.8982 58.8224 34.4785 57.2153 34.1653 56.5886C33.7284 55.7156 31.7196 55.791 31.5833 55.7859C31.1759 55.7671 30.721 55.7731 30.2512 55.7937ZM91.5823 64.6248L96.468 64.6003L96.8958 56.0164L91.5823 64.6248ZM73.387 63.0662C73.387 63.0662 76.1346 63.0675 76.9797 63.0281C77.9518 62.9803 78.5816 62.8439 79.3157 62.3611C79.9883 61.9196 80.5305 61.3707 81.0227 59.9177C81.7375 57.8138 81.2965 56.9109 80.845 56.5408C80.4082 56.1843 79.741 56.0945 78.8948 56.0945H75.6106L73.387 63.0662Z" fill="url(#paint0_linear_5027_38802)"/>
<defs>
<linearGradient id="paint0_linear_5027_38802" x1="64.0001" y1="51.9998" x2="64.0001" y2="75.5352" gradientUnits="userSpaceOnUse">
<stop stop-color="#E00024"/>
<stop offset="0.520833" stop-color="#ED6B80"/>
<stop offset="1" stop-color="#E92A48"/>
</linearGradient>
</defs>
</svg>
