<svg width="128" height="128" viewBox="0 0 128 128" fill="none" xmlns="http://www.w3.org/2000/svg">
<path d="M0 85.6667H128V43H0V85.6667Z" fill="url(#paint0_linear_5027_38768)"/>
<path d="M93.8137 67.1648L97.7504 55.5757H105.619C105.619 55.5757 106.733 55.465 107.207 56.4623L110.896 67.1648H93.8137ZM111.492 49.2906H84.3991V55.5757H91.3703L82.9055 79.5398H89.5285L91.6237 73.4553H112.838L114.833 79.5398H121.651L111.493 49.2906M81.5388 49.2906H57.4691C52.8992 49.2906 52.1022 53.8818 52.1022 53.8818V61.766C52.1022 61.766 51.8806 63.8769 53.5483 65.5235C55.2896 67.2387 57.3371 67.1648 57.3371 67.1648H74.1349C74.1349 67.1648 74.5571 67.0698 74.8736 67.3809C75.0528 67.5604 75.0688 67.9194 75.0688 68.067V72.4367C75.0688 72.4367 75.0531 72.8958 74.8526 73.1122C74.6572 73.3233 74.1927 73.3864 74.1927 73.3864H54.6826V79.5398L75.9659 79.5609C75.9659 79.5609 78.5731 79.6559 80.003 78.3471C81.3806 77.0859 81.4437 75.1861 81.4437 75.1861V66.0512C81.4437 66.0512 81.5126 64.1198 80.019 62.5997C78.1559 60.7053 76.0188 60.8953 76.0188 60.8953H59.2477C58.3346 60.7528 58.4035 59.9507 58.4035 59.9507V56.5254C58.4035 56.5254 58.4348 56.0504 58.6356 55.8393C58.9362 55.5173 59.2952 55.5754 59.2952 55.5754H81.5231L81.5388 49.2906ZM51.981 73.3759H49.2367C48.6666 73.3759 48.3924 73.1859 48.3185 72.5686C48.234 71.8774 45.6271 49.2906 45.6271 49.2906H34.3497L29.7636 66.9167L27.9801 73.2863L26.3489 67.0641L21.7209 49.2903H10.4171L6.43262 79.5398H13.1028L16.1427 55.5757H17.3408L24.3381 79.5398H31.2359L38.5817 55.5757H39.7268L41.9643 75.0962C41.9643 75.0962 42.0909 76.6425 43.558 78.1677C44.7982 79.4502 46.5239 79.5398 46.5239 79.5398L51.9807 79.5557V73.3759" fill="white"/>
<defs>
<linearGradient id="paint0_linear_5027_38768" x1="64" y1="43" x2="64" y2="85.6667" gradientUnits="userSpaceOnUse">
<stop stop-color="#00FF76"/>
<stop offset="1" stop-color="#00A94E"/>
</linearGradient>
</defs>
</svg>
