<svg width="128" height="128" viewBox="0 0 128 128" fill="none" xmlns="http://www.w3.org/2000/svg">
<path d="M0 37.6004H10V47.6004H0V37.6004ZM9.9 90.2004V53.9004H0.3V90.2004H9.9C9.9 90.2004 9.9 90.0004 9.9 90.2004ZM73.1 90.5004V81.7004C71.7 81.7004 70.5 81.7004 69.7 81.5004C68.8 81.3004 68 81.0004 67.4 80.6004C66.9 80.1004 66.6 79.4004 66.5 78.4004C66.4 77.4004 66.3 76.4004 66.3 74.8004V62.2004H73.3V54.0004H66.3V40.0004H56.7V74.8004C56.7 77.7004 57 80.2004 57.5 82.2004C58 84.2004 58.9 85.8004 60 87.0004C61.2 88.2004 62.8 89.0004 64.6 89.6004C66.6 90.1004 68.9 90.4004 71.9 90.4004L73.1 90.5004ZM128 90.2004V36.9004H118.4V90.2004H128ZM47.5 57.4004C44.9 54.5004 41.2 53.1004 36.4 53.1004C34.1 53.1004 31.9 53.6004 30.1 54.5004C28.2 55.4004 26.7 56.7004 25.3 58.4004L24.7 59.0004V58.4004V53.8004H15.4V90.0004H24.8V70.9004V72.3004C24.8 72.1004 24.8 71.8004 24.8 71.7004C25 68.3004 25.7 65.8004 27.3 64.1004C29 62.4004 31 61.5004 33.3 61.5004C36.1 61.5004 38.2 62.4004 39.6 64.0004C41 65.7004 41.6 68.0004 41.6 71.0004V90.2004H51.2V69.5004C51.5 64.4004 50.1 60.4004 47.5 57.4004ZM113.5 72.0004C113.5 69.4004 113 66.9004 112.1 64.6004C111.2 62.3004 109.9 60.3004 108.2 58.6004C106.5 56.9004 104.6 55.5004 102.3 54.6004C100 53.7004 97.5 53.2004 94.7 53.2004C92.1 53.2004 89.6 53.7004 87.3 54.8004C85 55.7004 83 57.1004 81.3 58.8004C79.6 60.5004 78.2 62.5004 77.3 64.8004C76.4 67.1004 75.8 69.6004 75.8 72.2004C75.8 74.8004 76.3 77.3004 77.2 79.6004C78.1 81.9004 79.5 83.9004 81.1 85.6004C82.8 87.3004 84.8 88.7004 87.1 89.6004C89.4 90.5004 92 91.1004 94.8 91.1004C102.8 91.1004 107.9 87.4004 110.9 84.0004L103.9 78.7004C102.5 80.4004 99 82.7004 94.8 82.7004C92.2 82.7004 89.9 82.1004 88.2 80.8004C86.5 79.6004 85.4 77.9004 84.8 75.7004L84.6 75.4004H113L113.5 72.0004ZM85 68.6004C85 66.0004 88.1 61.3004 94.6 61.3004C101.1 61.3004 104.2 65.9004 104.2 68.6004H85Z" fill="url(#paint0_linear_5027_35478)"/>
<defs>
<linearGradient id="paint0_linear_5027_35478" x1="64" y1="91.1304" x2="64" y2="36.87" gradientUnits="userSpaceOnUse">
<stop stop-color="#128FB0"/>
<stop offset="0.48" stop-color="#00C7FD"/>
<stop offset="0.5" stop-color="#66DDFE"/>
<stop offset="1" stop-color="#00C7FD"/>
</linearGradient>
</defs>
</svg>
