<svg width="128" height="129" viewBox="0 0 128 129" fill="none" xmlns="http://www.w3.org/2000/svg">
<path fill-rule="evenodd" clip-rule="evenodd" d="M19.1 123.3V98.9998C33 103.4 45.2 105.5 55.9 105.5C70.7 105.5 77.9 101.7 77.9 93.8998C77.9 91.0998 76.8 88.4998 74.6 86.6998C72.5 84.5998 66.8 81.6998 57.7 77.9998C41.5 71.2998 30.8 65.5998 26 60.9998C19.6 54.6998 16.5 46.8998 16.5 37.5998C16.5 25.3998 21.2 16.0998 30.4 9.7998C39.6 3.4998 51.6 0.299805 66.3 0.299805C74.4 0.299805 86.2 1.8998 101.5 4.7998V28.1998C90 23.6998 79.5 21.3998 69.7 21.3998C55.9 21.3998 49 25.1998 49 32.7998C49 35.5998 50.4 37.8998 53.1 39.7998C55.4 41.1998 61.8 44.2998 72.3 48.9998C87.4 55.6998 97.3 61.4998 102.3 66.4998C108.3 72.2998 111.3 79.9998 111.3 89.1998C111.3 102.6 105.5 112.8 93.8 119.7C84.4 125.4 72.2 128.2 57.3 128.2C44.7 127.9 32.1 126.4 19.1 123.3Z" fill="url(#paint0_linear_5027_33988)"/>
<defs>
<linearGradient id="paint0_linear_5027_33988" x1="63.95" y1="128.15" x2="63.95" y2="0.149803" gradientUnits="userSpaceOnUse">
<stop stop-color="#084C4C"/>
<stop offset="0.5" stop-color="#66C2C2"/>
<stop offset="1" stop-color="#009999"/>
</linearGradient>
</defs>
</svg>
