<svg width="128" height="128" viewBox="0 0 128 128" fill="none" xmlns="http://www.w3.org/2000/svg">
<path d="M58.6143 14.7715C89.8864 14.7715 115.229 40.1136 115.229 71.3857C115.228 102.658 89.8864 128 58.6143 128C27.3421 128 2.00003 102.658 2 71.3857C2 40.1136 27.3421 14.7715 58.6143 14.7715ZM58.6143 32.8223C37.3363 32.8223 20.2148 50.1078 20.2148 71.3857C20.2149 92.6636 37.3363 109.949 58.6143 109.949C79.8922 109.949 97.1777 92.6637 97.1777 71.3857C97.1777 50.1078 79.8922 32.8223 58.6143 32.8223ZM114.079 11.8154V15.7539H110.141V11.8154H114.079ZM125.895 7.87695V11.8154H121.956V7.87695H125.895ZM125.895 0V3.93848H121.956V0H125.895Z" fill="url(#paint0_linear_5027_33836)"/>
<path d="M102.267 23.625V27.5625H106.206V23.625H110.144V31.501H106.206V35.4395H102.267V39.3779H98.3286V43.3164H94.3901V39.3779H90.4517V43.3164H94.3901V47.2549H90.4517V51.1934H86.5142V55.1318H82.5737V59.0703C71.626 69.4983 69.2993 78.1781 67.5034 86.5742C66.3959 91.6942 66.394 94.6483 60.5845 95.3359C59.4998 95.3359 56.6674 94.3837 55.4966 92.2178C54.0242 89.4939 49.6535 79.0359 46.1431 72.6904C43.1485 67.2775 38.8291 62.8626 34.9849 58.085C33.518 56.2618 32.7742 54.7161 33.9995 52.998C35.2248 51.2801 36.1195 51.5495 37.938 52.0137C47.5385 56.3096 53.0844 62.7961 57.731 72.1943C61.8263 61.8064 64.417 56.1644 74.6968 43.3164H78.6372V39.3779H82.5757V35.4395H86.5142V31.501H90.4517V27.5625H94.3901V23.625H102.267ZM90.4517 35.4395H94.3901V31.501H90.4517V35.4395ZM106.206 19.6865V23.625H102.267V19.6865H106.206ZM114.083 19.6865V23.625H110.144V19.6865H114.083ZM102.267 15.748V19.6865H98.3286V15.748H102.267ZM110.144 11.8096V19.6865H106.206V11.8096H110.144ZM118.021 15.748V19.6865H114.083V15.748H118.021ZM118.021 7.87109V11.8096H110.144V7.87109H118.021ZM121.959 3.93262V7.87109H118.021V3.93262H121.959Z" fill="white"/>
<defs>
<linearGradient id="paint0_linear_5027_33836" x1="63.9472" y1="0" x2="63.9472" y2="128" gradientUnits="userSpaceOnUse">
<stop stop-color="#FFCA50"/>
<stop offset="1" stop-color="#FDB511"/>
</linearGradient>
</defs>
</svg>
