<svg width="128" height="128" viewBox="0 0 128 128" fill="none" xmlns="http://www.w3.org/2000/svg">
<path d="M88.8968 57.6752C89.0185 57.0102 90.6288 53.0103 90.6288 53.0103C92.6238 48.5166 91.3558 45.2958 91.3558 45.2958C90.1797 40.9311 86.8026 37.5193 86.8026 37.5193C86.9664 37.641 87.9936 40.3728 87.9936 40.3728C90.3608 46.9112 84.0136 50.6629 84.0136 50.6629C82.3784 51.7423 79.7084 54.3154 79.7084 54.3154C75.9641 57.9754 77.0956 62.4617 77.0956 62.4617L77.2445 62.5286C81.6985 63.6228 85.882 65.397 89.6835 67.727C87.1649 62.8263 88.8968 57.675 88.8968 57.675" fill="#EE7314"/>
<path d="M101.916 78.8684C101.499 73.4789 104.948 69.4368 104.948 69.4368C105.303 68.8612 108.283 65.757 108.283 65.757C111.814 62.3278 111.846 58.8664 111.846 58.8664C112.387 54.3776 110.523 49.9534 110.523 49.9534C110.625 50.1247 110.561 53.0452 110.561 53.0476C110.32 59.9929 103.032 61.1095 103.032 61.1095C101.107 61.504 97.6676 62.8961 97.6676 62.8961C93.1839 64.7521 92.3228 68.824 92.2261 69.4071C95.9208 72.0472 99.1862 75.2407 101.916 78.8684" fill="#EE7314"/>
<path d="M127.999 69.939C128.034 70.1424 126.878 72.8322 126.878 72.8322C124.076 79.1894 116.9 77.5121 116.9 77.5121C114.967 77.1696 111.258 77.1795 111.258 77.182C106.022 77.2416 103.742 81.2638 103.742 81.2638L104.017 81.9313C106.295 85.5764 108.052 89.5713 109.188 93.8243C110.737 88.5118 115.585 85.9585 115.59 85.9585C116.133 85.5689 120.052 83.7774 120.052 83.7774C124.602 81.909 125.915 78.713 125.915 78.713C128.079 74.7404 127.999 69.939 127.999 69.939Z" fill="#EE7314"/>
<path d="M73.7811 61.8332C69.8109 58.2129 69.5206 52.945 69.5206 52.945C69.3718 52.285 69.3892 47.9824 69.394 47.9824C69.58 43.0693 67.2079 40.5433 67.2079 40.5433C64.5082 36.9181 60.0989 35 60.0989 35C60.2999 35.0546 62.2701 37.2183 62.2701 37.2183C66.8829 42.4043 62.3816 48.2454 62.3816 48.2454C61.2625 49.8583 59.7365 53.2353 59.7365 53.2353C57.7341 57.7563 60.0442 61.3468 60.2998 61.7339C62.5479 61.4014 64.8605 61.2426 67.2004 61.2674C69.446 61.2899 71.642 61.4808 73.7809 61.8332" fill="#EE7314"/>
<path d="M49.7515 55.6354C49.3868 55.0746 47.7838 51.0797 47.7838 51.0797C46.1337 46.447 42.9973 44.9855 42.9973 44.9855C39.1289 42.6332 34.3325 42.4868 34.3325 42.4868C34.5385 42.467 37.1687 43.7399 37.1687 43.7399C43.3919 46.8391 41.3845 53.9332 41.3845 53.9332C40.9477 55.8438 40.7864 59.5534 40.7864 59.5534C40.5955 64.7766 44.5134 67.2505 44.5134 67.2505L44.6994 67.186C48.5033 64.9702 52.6819 63.3102 57.1036 62.3276C52.0094 60.4665 49.7514 55.6354 49.7514 55.6354" fill="#EE7314"/>
<path d="M41.8664 68.9785C36.4695 69.1174 32.6036 65.4847 32.6036 65.4847C32.0527 65.1001 29.0949 61.9761 29.0949 61.9761C25.8469 58.2839 22.3804 58.0903 22.3804 58.0903C17.924 57.331 13.4229 58.9737 13.4229 58.9737C13.6015 58.8818 16.5121 59.0855 16.5171 59.0855C23.44 59.6661 24.1968 66.996 24.1968 66.996C24.4946 68.9364 25.7228 72.44 25.7228 72.44C27.4821 77.3655 32.0304 78.2116 32.0304 78.2116L32.1221 78.1348C34.8913 74.6088 38.179 71.517 41.8663 68.9786" fill="#EE7314"/>
<path d="M20.2402 81.1436C19.5827 80.9922 15.6746 79.1883 15.6746 79.1883C11.2925 76.9477 8.00479 78.0494 8.00479 78.0494C3.58305 78.9898 0 82.1883 0 82.1883C0.133992 82.032 2.92054 81.1461 2.92054 81.1461C9.57052 79.1238 12.9823 85.6597 12.9823 85.6597C13.9724 87.3494 16.4115 90.1534 16.4115 90.1484C19.8631 94.0764 24.4113 93.1856 24.4113 93.1856L24.5255 92.9597C25.7637 88.6645 27.6495 84.6497 30.0564 80.9997C25.121 83.0766 20.2402 81.1436 20.2402 81.1436Z" fill="#EE7314"/>
</svg>
