<svg width="128" height="128" viewBox="0 0 128 128" fill="none" xmlns="http://www.w3.org/2000/svg">
<path d="M16.6523 51C20.6171 51 24.2037 51.9548 26.7812 53.498C28.8067 54.7148 30.4815 56.3188 31.6494 58.1797L20.8994 64.3867L26.6094 55.248C24.9551 54.2113 22.9968 53.6133 20.8994 53.6133C14.9483 53.6133 10.1251 58.4342 10.125 64.3867C10.125 70.339 14.9482 75.165 20.8994 75.165C24.5553 75.165 27.786 73.3406 29.7363 70.5566L30.1553 72.1279C30.0161 72.3055 29.8688 72.4769 29.7168 72.6465C26.9409 75.7264 22.0546 77.7714 16.4932 77.7715C10.9309 77.7715 6.04282 75.728 3.26855 72.6465C1.21992 70.3697 7.35244e-07 67.504 0 64.3867C0 61.2717 1.21992 58.408 3.26855 56.1328C6.03555 53.0552 10.997 51.0001 16.6523 51ZM93.2256 55.5752C99.3535 55.5752 104.321 60.5459 104.321 66.6738C104.321 72.8034 99.3534 77.7714 93.2256 77.7715C87.0929 77.7715 82.1213 72.8034 82.1211 66.6738C82.1211 60.5457 87.0928 55.5752 93.2256 55.5752ZM45.8779 55.5723C48.8266 55.5723 51.3034 57.5712 52.0283 60.291L56.541 77.123H48.7041L47.7139 73.4229C45.8723 75.9619 42.8865 77.6141 39.5107 77.6143C34.8213 77.6143 31.0247 74.4674 31.0244 70.5908C31.0244 66.7143 34.8211 63.5713 39.5107 63.5713C41.8722 63.5714 44.0287 64.4391 45.6846 65.8643L43.9775 59.4883H33.9873L43.7012 55.9561C44.3809 55.7088 45.1134 55.5723 45.8779 55.5723ZM74.9375 55.5752C77.1007 55.5752 78.8555 57.3256 78.8555 59.4883V77.123H71.0225V61.4502C71.0225 60.3688 70.1408 59.4884 69.0625 59.4883C67.9777 59.4883 67.1025 60.3688 67.1025 61.4502V77.123H59.2656V59.4883H53.9121L61.5264 55.9404C62.032 55.706 62.5938 55.5752 63.1826 55.5752C65.1281 55.5753 66.741 56.9901 67.0498 58.8467L73.2861 55.9404C73.7853 55.706 74.3455 55.5752 74.9375 55.5752ZM124.083 55.5752C126.243 55.5752 128 57.3256 128 59.4883V77.123H120.16V61.4502C120.16 60.3688 119.285 59.4883 118.203 59.4883C117.118 59.4883 116.241 60.3688 116.241 61.4502V77.123H108.406V59.4883H103.055L110.666 55.9404C111.173 55.7061 111.735 55.5752 112.323 55.5752C114.269 55.5752 115.881 56.9901 116.188 58.8467L122.419 55.9404C122.926 55.7061 123.489 55.5752 124.083 55.5752ZM93.6846 58.9434C93.3358 57.6374 91.9931 56.8619 90.6875 57.2129C89.3837 57.5626 88.6047 58.9063 88.9551 60.2119L92.7617 74.4033C93.1138 75.7104 94.4532 76.4852 95.7588 76.1396C97.0642 75.7859 97.8396 74.4432 97.4893 73.1377L93.6846 58.9434ZM42.7773 66.6738C40.6143 66.674 38.8604 68.4277 38.8604 70.5908C38.8606 72.7569 40.6144 74.5087 42.7773 74.5088C44.9404 74.5088 46.6961 72.757 46.6963 70.5908C46.6963 68.4276 44.9405 66.6738 42.7773 66.6738Z" fill="url(#paint0_linear_5027_38077)"/>
<defs>
<linearGradient id="paint0_linear_5027_38077" x1="64" y1="77.7802" x2="64" y2="50.9913" gradientUnits="userSpaceOnUse">
<stop stop-color="#720408"/>
<stop offset="0.5" stop-color="#D97579"/>
<stop offset="1" stop-color="#BF1920"/>
</linearGradient>
</defs>
</svg>
