<svg width="128" height="129" viewBox="0 0 128 129" fill="none" xmlns="http://www.w3.org/2000/svg">
<path fill-rule="evenodd" clip-rule="evenodd" d="M19.1 123.301V99.0008C33 103.401 45.2 105.501 55.9 105.501C70.7 105.501 77.9 101.701 77.9 93.9008C77.9 91.1008 76.8 88.5008 74.6 86.7008C72.5 84.6008 66.8 81.7008 57.7 78.0008C41.5 71.3008 30.8 65.6008 26 61.0008C19.6 54.7008 16.5 46.9008 16.5 37.6008C16.5 25.4008 21.2 16.1008 30.4 9.80078C39.6 3.50078 51.6 0.300781 66.3 0.300781C74.4 0.300781 86.2 1.90078 101.5 4.80078V28.2008C90 23.7008 79.5 21.4008 69.7 21.4008C55.9 21.4008 49 25.2008 49 32.8008C49 35.6008 50.4 37.9008 53.1 39.8008C55.4 41.2008 61.8 44.3008 72.3 49.0008C87.4 55.7008 97.3 61.5008 102.3 66.5008C108.3 72.3008 111.3 80.0008 111.3 89.2008C111.3 102.601 105.5 112.801 93.8 119.701C84.4 125.401 72.2 128.201 57.3 128.201C44.7 127.901 32.1 126.401 19.1 123.301Z" fill="url(#paint0_linear_5027_33684)"/>
<defs>
<linearGradient id="paint0_linear_5027_33684" x1="63.95" y1="128.151" x2="63.95" y2="0.15078" gradientUnits="userSpaceOnUse">
<stop stop-color="#084C4C"/>
<stop offset="0.5" stop-color="#66C2C2"/>
<stop offset="1" stop-color="#009999"/>
</linearGradient>
</defs>
</svg>
