<svg width="128" height="128" viewBox="0 0 128 128" fill="none" xmlns="http://www.w3.org/2000/svg">
<path d="M64 0C28.6 0 0 28.6 0 64C0 99.4 28.6 128 64 128C99.4 128 128 99.4 128 64C128 28.8 99.8 0 64 0Z" fill="url(#paint0_linear_5027_33638)"/>
<path d="M83.0998 15.6992L64.0998 78.6992L63.9998 78.7992L63.7998 78.6992L44.7998 15.6992L20.2998 96.2992H24.8998C24.8998 96.2992 27.9998 82.2992 32.9998 73.8992C35.7998 69.2992 39.9998 65.5992 45.5998 65.6992C49.5998 65.7992 52.9998 67.9992 57.2998 73.9992C58.2998 75.2992 59.3998 77.4992 60.4998 79.5992C62.2998 83.0992 63.7998 86.7992 63.7998 86.7992C63.7998 86.7992 67.7998 77.5992 70.3998 73.9992C74.6998 67.9992 78.0998 65.7992 82.0998 65.6992C87.6998 65.5992 91.9998 69.2992 94.6998 73.8992C99.7998 82.2992 102.8 96.2992 102.8 96.2992H107.4L83.0998 15.6992Z" fill="white"/>
<defs>
<linearGradient id="paint0_linear_5027_33638" x1="64" y1="128" x2="64" y2="-7.62939e-06" gradientUnits="userSpaceOnUse">
<stop stop-color="#01BBD2"/>
<stop offset="0.5" stop-color="#67D6E4"/>
<stop offset="1" stop-color="#01BBD2"/>
</linearGradient>
</defs>
</svg>
