<svg width="128" height="128" viewBox="0 0 128 128" fill="none" xmlns="http://www.w3.org/2000/svg">
<g clip-path="url(#clip0_5027_33660)">
<path d="M18.8692 71.9386C14.5483 76.2718 7.56167 76.2718 3.24072 71.9386C-1.08024 67.6226 -1.08024 60.6311 3.24072 56.3297L28.8182 30.7449L35.6564 37.5831L9.91097 63.3359L11.8373 65.2818L37.5889 39.5155L44.4516 46.3734L18.8692 71.9386Z" fill="#5D87A1"/>
<path d="M38.7797 56.0564C43.108 51.7367 50.0872 51.7367 54.4045 56.0564C58.7108 60.359 58.7242 67.3505 54.4045 71.6715L28.8197 97.2539L21.979 90.4132L47.7527 64.6603L45.7994 62.7132L20.0539 88.4808L13.1924 81.629L38.7797 56.0564Z" fill="#5D87A1"/>
<path d="M71.9469 109.138C76.2667 113.441 76.2667 120.432 71.9469 124.727C67.6309 129.048 60.6332 129.048 56.3172 124.727L30.752 99.1506L37.5902 92.3259L63.3479 118.079L65.2902 116.145L39.5238 90.3812L46.3621 83.5417L71.9469 109.138Z" fill="#5D87A1"/>
<path d="M56.0448 89.2152C51.7312 84.8943 51.7312 77.8868 56.0448 73.599C60.362 69.2596 67.3585 69.2596 71.6782 73.599L97.2618 99.163L90.4138 106.004L64.6474 80.2521L62.715 82.1833L88.4679 107.939L81.6284 114.78L56.0448 89.2152Z" fill="#5D87A1"/>
<path d="M89.2173 71.9389C84.9172 76.239 77.9233 76.239 73.6035 71.9389C69.2936 67.6229 69.2936 60.6314 73.6035 56.3153L99.1872 30.7317L106.029 37.5712L80.2713 63.3363L82.205 65.2699L107.958 39.5171L114.814 46.3541L89.2173 71.9389Z" fill="#5D87A1"/>
<path d="M109.147 56.0428C113.463 51.723 120.456 51.723 124.758 56.0428C129.071 60.3404 129.09 67.3516 124.758 71.6713L99.1856 97.2328L92.3339 90.3922L118.1 64.6271L116.17 62.713L90.4137 88.4462L83.562 81.6276L109.147 56.0428Z" fill="#5D87A1"/>
<path d="M71.9469 38.7689C76.2667 43.0886 76.2667 50.0617 71.9469 54.4023C67.6309 58.7024 60.6332 58.7024 56.3172 54.4023L30.752 28.8187L37.5902 21.9608L63.3479 47.7259L65.2902 45.7972L39.5238 20.0456L46.3621 13.1902L71.9469 38.7689Z" fill="#5D87A1"/>
<path d="M56.0448 18.8597C51.7312 14.54 51.7312 7.5534 56.0448 3.23244C60.362 -1.06767 67.3585 -1.08728 71.6782 3.23244L97.2618 28.8161L90.4138 35.6568L64.6474 9.88921L62.715 11.8363L88.4679 37.6027L81.6284 44.4201L56.0448 18.8597Z" fill="#5D87A1"/>
</g>
<defs>
<clipPath id="clip0_5027_33660">
<rect width="128" height="128" fill="white"/>
</clipPath>
</defs>
</svg>
