<svg width="128" height="128" viewBox="0 0 128 128" fill="none" xmlns="http://www.w3.org/2000/svg">
<mask id="mask0_5027_33507" style="mask-type:luminance" maskUnits="userSpaceOnUse" x="71" y="44" width="55" height="54">
<path d="M71.6548 44.8468C71.6548 44.8468 103.901 76.7672 98.7871 97.3729C98.7871 97.3729 102.276 95.3087 106.739 92.3772C107.081 92.1452 107.431 91.9171 107.785 91.681C108.994 89.9547 110.619 88.9694 112.496 87.9393C112.96 87.6787 113.453 87.4141 113.945 87.1332C114.894 86.3514 115.79 85.5371 116.702 84.7961C116.783 84.7229 116.868 84.6577 116.946 84.5926C118.766 83.591 120.732 81.8158 122.149 80.8102C122.198 80.7613 122.149 80.8102 122.198 80.7613C124.262 78.7052 125.557 76.6817 125.557 75.2974C125.557 69.9556 109.369 52.8921 71.6589 44.8428L71.6548 44.8468Z" fill="white"/>
</mask>
<g mask="url(#mask0_5027_33507)">
<path d="M125.553 44.8472H71.6548V97.3732H125.553V44.8472Z" fill="url(#paint0_linear_5027_33507)"/>
</g>
<mask id="mask1_5027_33507" style="mask-type:luminance" maskUnits="userSpaceOnUse" x="3" y="0" width="102" height="50">
<path d="M31.1186 0.0366449C27.8451 0.175075 23.2484 0.598509 18.2975 1.77109C17.6216 1.94617 13.1349 3.17168 8.96567 5.65935C8.5626 5.90364 8.15138 6.16421 7.75644 6.43293C6.49022 7.28794 5.30542 8.31802 4.29569 9.40511C3.9659 9.7919 3.26561 10.8138 3.05389 12.6216C2.89103 23.9932 19.9587 49.2485 19.9587 49.2485C19.4864 12.8089 104.552 20.8174 104.552 20.8174C72.3259 4.72698 49.3425 0 33.4678 0C32.6616 0 31.884 0.0162866 31.1186 0.0325725" fill="white"/>
</mask>
<g mask="url(#mask1_5027_33507)">
<path d="M53.7273 -50.8293L-21.7275 24.6255L53.7273 100.08L129.182 24.6255L53.7273 -50.8293Z" fill="url(#paint1_linear_5027_33507)"/>
</g>
<mask id="mask2_5027_33507" style="mask-type:luminance" maskUnits="userSpaceOnUse" x="3" y="11" width="120" height="117">
<path d="M3.018 14.3366C8.16027 86.9757 36.628 122.735 45.341 127.544C55.9431 133.399 121.978 80.954 122.145 80.8197C52.5516 92.7287 5.34281 18.6157 3.34372 11.2463C3.1035 12.0199 2.94471 13.0459 3.018 14.3366Z" fill="white"/>
</mask>
<g mask="url(#mask2_5027_33507)">
<path d="M122.145 11.2463H2.94482V133.399H122.145V11.2463Z" fill="url(#paint2_linear_5027_33507)"/>
</g>
<defs>
<linearGradient id="paint0_linear_5027_33507" x1="71.3688" y1="71.3958" x2="125.267" y2="71.3958" gradientUnits="userSpaceOnUse">
<stop stop-color="#9E9D9C"/>
<stop offset="0.15" stop-color="#929291"/>
<stop offset="1" stop-color="#585857"/>
</linearGradient>
<linearGradient id="paint1_linear_5027_33507" x1="24.739" y1="54.7648" x2="81.2531" y2="-1.7493" gradientUnits="userSpaceOnUse">
<stop stop-color="#13162A"/>
<stop offset="0.11" stop-color="#13162A"/>
<stop offset="0.21" stop-color="#1D364E"/>
<stop offset="0.32" stop-color="#295975"/>
<stop offset="0.45" stop-color="#337695"/>
<stop offset="0.57" stop-color="#3A8CAF"/>
<stop offset="0.7" stop-color="#3F9CC0"/>
<stop offset="0.84" stop-color="#42A5CB"/>
<stop offset="1" stop-color="#44A9CF"/>
</linearGradient>
<linearGradient id="paint2_linear_5027_33507" x1="2.71088" y1="71.3456" x2="121.911" y2="71.3456" gradientUnits="userSpaceOnUse">
<stop stop-color="#263E72"/>
<stop offset="0.06" stop-color="#2D4577"/>
<stop offset="0.27" stop-color="#3B5691"/>
<stop offset="0.5" stop-color="#4468B3"/>
<stop offset="0.73" stop-color="#5A86E6"/>
<stop offset="1" stop-color="#37538F"/>
</linearGradient>
</defs>
</svg>
