<svg width="128" height="128" viewBox="0 0 128 128" fill="none" xmlns="http://www.w3.org/2000/svg">
<path d="M97.3286 0H113.983V72.7136C113.983 85.362 112.552 95.4062 109.691 102.846C106.829 110.287 101.65 116.353 94.1523 121.046C86.7121 125.682 76.9253 128 64.7921 128C53.0022 128 43.3586 125.968 35.8612 121.905C28.3637 117.841 23.0125 111.975 19.8075 104.306C16.6025 96.5795 15 86.0487 15 72.7136V0H31.6546V72.6278C31.6546 83.5591 32.6562 91.6289 34.6593 96.837C36.7197 101.988 40.2108 105.966 45.1328 108.77C50.112 111.574 56.1786 112.977 63.3327 112.977C75.5804 112.977 84.3083 110.201 89.5164 104.649C94.7246 99.0977 97.3286 88.4239 97.3286 72.6278V0Z" fill="url(#paint0_linear_5027_33417)"/>
<defs>
<linearGradient id="paint0_linear_5027_33417" x1="64.4916" y1="0" x2="64.4916" y2="128" gradientUnits="userSpaceOnUse">
<stop stop-color="#49BF70"/>
<stop offset="1" stop-color="#1D6434"/>
</linearGradient>
</defs>
</svg>
