<svg width="128" height="128" viewBox="0 0 128 128" fill="none" xmlns="http://www.w3.org/2000/svg">
<path d="M5.02637 59.9209C5.02637 63.2201 5.32907 65.6556 5.93359 67.2275C6.55543 68.7821 7.60928 69.9827 9.09473 70.8291C10.5975 71.6755 12.4287 72.0996 14.5879 72.0996C18.2846 72.0996 20.9193 71.2615 22.4912 69.5859C24.0631 67.9103 24.8486 64.6885 24.8486 59.9209V38H29.876V59.9473C29.8759 63.7646 29.4437 66.7964 28.5801 69.042C27.7163 71.2875 26.1525 73.1187 23.8896 74.5352C21.6441 75.9342 18.6902 76.6338 15.0283 76.6338C11.4701 76.6338 8.5597 76.0203 6.29688 74.7939C4.03407 73.5675 2.41854 71.797 1.45117 69.4824C0.483859 67.1505 3.86939e-05 63.9719 0 59.9473V38H5.02637V59.9209ZM63.3018 67.8242V38H68.1211V75.9854H62.9648L43.0127 46.1357V75.9854H38.1934V38H43.3496L63.3018 67.8242ZM82.4492 75.9854H77.4229V38H82.4492V75.9854ZM102.064 47.7422C103.498 49.7632 104.517 51.318 105.122 52.4062C105.968 51.0245 106.97 49.5818 108.127 48.0791L115.771 38H121.238L107.895 55.9043L122.275 75.9854H116.057L106.495 62.4346C105.96 61.6572 105.407 60.8101 104.837 59.8945C103.99 61.2765 103.385 62.2269 103.022 62.7451L93.4873 75.9854H87.4502L102.142 56.1895L89.1865 38H95.1719L102.064 47.7422ZM124.202 41.6299C124.84 41.6299 125.463 41.794 126.071 42.123C126.679 42.4487 127.152 42.9174 127.491 43.5283C127.83 44.1361 128 44.7711 128 45.4326C128 46.0873 127.833 46.7169 127.497 47.3213C127.165 47.9257 126.696 48.3966 126.092 48.7324C125.491 49.0649 124.86 49.2305 124.202 49.2305C123.544 49.2304 122.913 49.0647 122.309 48.7324C121.707 48.3966 121.239 47.9257 120.903 47.3213C120.568 46.7169 120.399 46.0874 120.399 45.4326C120.399 44.7711 120.569 44.1361 120.908 43.5283C121.251 42.9173 121.726 42.4487 122.334 42.123C122.942 41.7941 123.564 41.6299 124.202 41.6299ZM124.202 42.2598C123.668 42.2598 123.148 42.3966 122.641 42.6719C122.137 42.9439 121.742 43.3354 121.457 43.8457C121.172 44.3528 121.029 44.8819 121.029 45.4326C121.029 45.98 121.169 46.5061 121.447 47.0098C121.729 47.5099 122.122 47.9006 122.626 48.1826C123.13 48.4613 123.655 48.6005 124.202 48.6006C124.75 48.6006 125.276 48.4613 125.779 48.1826C126.283 47.9006 126.674 47.5099 126.953 47.0098C127.232 46.5061 127.371 45.98 127.371 45.4326C127.371 44.8819 127.228 44.3528 126.942 43.8457C126.66 43.3354 126.266 42.9438 125.759 42.6719C125.252 42.3966 124.733 42.2598 124.202 42.2598ZM123.94 43.4434C124.421 43.4434 124.768 43.4814 124.983 43.5586C125.198 43.6325 125.369 43.7641 125.497 43.9521C125.624 44.14 125.688 44.3395 125.688 44.5508C125.688 44.8496 125.581 45.1104 125.366 45.332C125.155 45.5537 124.872 45.6782 124.52 45.7051C124.664 45.7655 124.78 45.8371 124.867 45.9209C125.032 46.0821 125.233 46.353 125.472 46.7324L125.971 47.5332H125.164L124.802 46.8887C124.516 46.3816 124.286 46.0641 124.111 45.9365C123.99 45.8426 123.815 45.7949 123.583 45.7949H123.195V47.5332H122.535V43.4434H123.94ZM123.195 45.2314H123.996C124.379 45.2314 124.639 45.1737 124.776 45.0596C124.917 44.9454 124.988 44.7945 124.988 44.6064C124.988 44.4856 124.955 44.3782 124.888 44.2842C124.821 44.1868 124.726 44.1144 124.605 44.0674C124.488 44.0204 124.268 43.9971 123.945 43.9971H123.195V45.2314Z" fill="url(#paint0_linear_5027_37954)"/>
<path d="M23.6171 85.8998H21.1515L20.4294 88.0868H19.501L21.8634 81.1338H22.9465L25.3192 88.0868H24.3598L23.6171 85.8998ZM21.3372 85.1983H23.4314L22.7402 83.197C22.6508 82.9219 22.5339 82.4989 22.3895 81.9281H22.3585C22.2554 82.382 22.1419 82.8016 22.0181 83.1867L21.3372 85.1983Z" fill="white"/>
<path d="M26.2786 88.0873V84.4457C26.2786 83.9093 26.2648 83.4588 26.2373 83.0943H27.042L27.0935 83.9093H27.1142C27.2517 83.6479 27.4649 83.4279 27.7538 83.2491C28.0426 83.0702 28.3796 82.9808 28.7647 82.9808C28.9573 82.9808 29.1464 83.0152 29.3321 83.084C29.5247 83.1459 29.7138 83.2525 29.8995 83.4038C30.0852 83.5482 30.2365 83.7683 30.3534 84.064C30.4703 84.3529 30.5288 84.7002 30.5288 85.1059V88.0873H29.621V85.2091C29.621 84.769 29.5281 84.4113 29.3424 84.1362C29.1567 83.8611 28.8645 83.7236 28.4656 83.7236C28.1836 83.7236 27.9326 83.813 27.7125 83.9918C27.4924 84.1706 27.3377 84.3907 27.2483 84.652C27.207 84.769 27.1864 84.9099 27.1864 85.075V88.0873H26.2786Z" fill="white"/>
<path d="M36.9447 88.201H36.9344C36.0059 88.201 35.2528 87.8777 34.6751 87.2313C34.0974 86.5779 33.8086 85.7251 33.8086 84.6729C33.8086 83.5794 34.1078 82.6991 34.7061 82.032C35.3113 81.358 36.085 81.021 37.0272 81.021C37.9763 81.021 38.7362 81.3477 39.3071 82.001C39.8779 82.6544 40.1633 83.5003 40.1633 84.5388C40.1633 85.6873 39.8572 86.5848 39.2452 87.2313C38.6331 87.8777 37.8662 88.201 36.9447 88.201ZM36.9653 87.4685H36.9756C37.6633 87.4685 38.2066 87.1934 38.6055 86.6432C39.0044 86.0931 39.2039 85.4053 39.2039 84.58C39.2039 83.8235 39.0078 83.1633 38.6158 82.5994C38.2307 82.0354 37.6874 81.7534 36.9859 81.7534C36.2775 81.7534 35.7273 82.0354 35.3353 82.5994C34.9433 83.1633 34.7473 83.8476 34.7473 84.6522C34.7473 85.4225 34.9468 86.0862 35.3456 86.6432C35.7514 87.1934 36.2913 87.4685 36.9653 87.4685Z" fill="white"/>
<path d="M41.2991 90.13V84.7244C41.2991 84.0573 41.2853 83.514 41.2578 83.0944H42.0728L42.1244 83.9507H42.145C42.5233 83.3042 43.1113 82.981 43.909 82.981C44.5211 82.981 45.0266 83.2182 45.4255 83.6928C45.8313 84.1604 46.0341 84.7691 46.0341 85.5187C46.0341 86.3715 45.8106 87.0317 45.3636 87.4994C44.9235 87.9671 44.3905 88.2009 43.7646 88.2009C43.0562 88.2009 42.5439 87.9395 42.2275 87.4169H42.2069V90.13H41.2991ZM42.2069 85.1886V86.0551C42.2069 86.1996 42.2206 86.3234 42.2482 86.4265C42.3238 86.7429 42.4854 87.0008 42.733 87.2002C42.9875 87.3928 43.2763 87.4891 43.5996 87.4891C44.0741 87.4891 44.4455 87.3137 44.7137 86.963C44.9819 86.6122 45.116 86.1445 45.116 85.56C45.116 85.0373 44.9853 84.5971 44.724 84.2395C44.4627 83.8819 44.1016 83.7031 43.6408 83.7031C43.3245 83.7031 43.0356 83.8062 42.7743 84.0126C42.5198 84.212 42.3479 84.4802 42.2585 84.8172C42.2241 85.0235 42.2069 85.1473 42.2069 85.1886Z" fill="white"/>
<path d="M51.1914 85.7558L47.6942 85.7455C47.7011 86.3232 47.8627 86.7564 48.1791 87.0453C48.5023 87.3341 48.9081 87.4786 49.3964 87.4786C49.9122 87.4786 50.373 87.396 50.7787 87.231L50.9438 87.8706C50.4693 88.0838 49.9122 88.1904 49.2726 88.1904C48.5161 88.1904 47.9178 87.96 47.4776 87.4992C47.0375 87.0384 46.8174 86.4298 46.8174 85.6733C46.8174 84.8961 47.0306 84.2531 47.457 83.7442C47.8903 83.2284 48.4611 82.9705 49.1694 82.9705C49.5546 82.9705 49.8881 83.0495 50.1701 83.2077C50.4521 83.359 50.6653 83.5619 50.8097 83.8164C50.9541 84.064 51.0573 84.315 51.1192 84.5694C51.1879 84.817 51.2223 85.0681 51.2223 85.3225C51.2223 85.5082 51.212 85.6526 51.1914 85.7558ZM47.7046 85.0955H50.3455C50.3523 84.8755 50.3248 84.6623 50.2629 84.4559C50.201 84.2496 50.0669 84.0605 49.8606 83.8886C49.6612 83.7098 49.4067 83.6203 49.0972 83.6203C48.6777 83.6203 48.351 83.7717 48.1172 84.0743C47.8834 84.3769 47.7458 84.7173 47.7046 85.0955Z" fill="white"/>
<path d="M52.3469 88.0874V84.4458C52.3469 83.9094 52.3332 83.4589 52.3057 83.0944H53.1103L53.1619 83.9094H53.1825C53.3201 83.6481 53.5333 83.428 53.8221 83.2492C54.111 83.0704 54.448 82.981 54.8331 82.981C55.0257 82.981 55.2148 83.0153 55.4005 83.0841C55.593 83.146 55.7822 83.2526 55.9679 83.4039C56.1536 83.5483 56.3049 83.7684 56.4218 84.0641C56.5387 84.353 56.5971 84.7003 56.5971 85.1061V88.0874H55.6893V85.2092C55.6893 84.7691 55.5965 84.4115 55.4108 84.1364C55.2251 83.8613 54.9328 83.7237 54.5339 83.7237C54.252 83.7237 54.0009 83.8131 53.7809 83.9919C53.5608 84.1707 53.406 84.3908 53.3166 84.6522C53.2754 84.7691 53.2547 84.9101 53.2547 85.0751V88.0874H52.3469Z" fill="white"/>
<path d="M65.593 84.4357V87.7781C64.9328 88.0326 64.2176 88.1598 63.4473 88.1598C62.3538 88.1598 61.4872 87.8538 60.8476 87.2417C60.2012 86.6159 59.8779 85.7527 59.8779 84.6524C59.8779 83.6001 60.2184 82.7405 60.8992 82.0734C61.5801 81.3994 62.4948 81.0624 63.6433 81.0624C64.3654 81.0624 64.9466 81.169 65.3867 81.3822L65.1598 82.1146C64.7402 81.9152 64.2279 81.8155 63.6227 81.8155C62.7699 81.8155 62.089 82.0665 61.5801 82.5685C61.078 83.0637 60.827 83.7446 60.827 84.6111C60.827 85.4845 61.0677 86.1723 61.5491 86.6743C62.0374 87.1695 62.6908 87.4171 63.5092 87.4171C64.0594 87.4171 64.4583 87.3552 64.7058 87.2314V85.1579H63.3029V84.4357H65.593Z" fill="white"/>
<path d="M66.9441 88.0873L66.9543 84.652C66.9543 84.0262 66.9406 83.507 66.9131 83.0943H67.7074L67.7487 84.0743H67.7796C67.8897 83.7442 68.0719 83.4794 68.3264 83.28C68.5808 83.0806 68.8628 82.9808 69.1723 82.9808C69.2548 82.9808 69.3374 82.9912 69.4199 83.0118V83.8577C69.2823 83.8439 69.1757 83.8371 69.1001 83.8371C68.7837 83.8371 68.5155 83.9437 68.2954 84.1569C68.0822 84.3701 67.9447 84.6486 67.8828 84.9925C67.8622 85.13 67.8518 85.2744 67.8518 85.4257V88.0873H66.9441Z" fill="white"/>
<path d="M72.2982 88.2008H72.2879C71.6001 88.2008 71.0293 87.9669 70.5754 87.4993C70.1215 87.0247 69.8945 86.4023 69.8945 85.6321C69.8945 84.8205 70.1284 84.1775 70.596 83.703C71.0706 83.2215 71.662 82.9808 72.3704 82.9808C73.0856 82.9808 73.6633 83.2181 74.1035 83.6926C74.5505 84.1672 74.774 84.7827 74.774 85.5392C74.774 86.4058 74.5264 87.066 74.0313 87.5199C73.5361 87.9738 72.9584 88.2008 72.2982 88.2008ZM72.3085 87.5199H72.3187C72.752 87.5199 73.1131 87.3377 73.4019 86.9732C73.6908 86.6018 73.8352 86.1341 73.8352 85.5702C73.8352 85.0819 73.708 84.6417 73.4535 84.2497C73.2059 83.8577 72.8345 83.6617 72.3394 83.6617C71.8442 83.6617 71.4659 83.8543 71.2046 84.2394C70.9433 84.6245 70.8126 85.0784 70.8126 85.6011C70.8126 86.1513 70.9536 86.6087 71.2356 86.9732C71.5175 87.3377 71.8752 87.5199 72.3085 87.5199Z" fill="white"/>
<path d="M80.0976 83.0938V86.725C80.0976 87.2821 80.1114 87.736 80.1389 88.0867H79.3342L79.2826 87.2718H79.262C79.1245 87.5193 78.9147 87.736 78.6327 87.9217C78.3508 88.1074 78.0103 88.2002 77.6115 88.2002C77.3983 88.2002 77.1954 88.1658 77.0028 88.097C76.8171 88.0283 76.6349 87.9182 76.4561 87.7669C76.2841 87.6087 76.1466 87.3818 76.0434 87.0861C75.9402 86.7835 75.8887 86.4258 75.8887 86.0132V83.0938H76.7965V85.8481C76.7965 86.9141 77.1679 87.4471 77.9106 87.4471C78.1926 87.4471 78.4402 87.3646 78.6534 87.1995C78.8666 87.0345 79.0179 86.8385 79.1073 86.6115C79.1623 86.4809 79.1898 86.3261 79.1898 86.1473V83.0938H80.0976Z" fill="white"/>
<path d="M81.6038 90.13V84.7244C81.6038 84.0573 81.59 83.514 81.5625 83.0944H82.3775L82.4291 83.9507H82.4497C82.8279 83.3042 83.416 82.981 84.2137 82.981C84.8258 82.981 85.3313 83.2182 85.7302 83.6928C86.136 84.1604 86.3388 84.7691 86.3388 85.5187C86.3388 86.3715 86.1153 87.0317 85.6683 87.4994C85.2281 87.9671 84.6951 88.2009 84.0693 88.2009C83.3609 88.2009 82.8486 87.9395 82.5322 87.4169H82.5116V90.13H81.6038ZM82.5116 85.1886V86.0551C82.5116 86.1996 82.5253 86.3234 82.5528 86.4265C82.6285 86.7429 82.7901 87.0008 83.0377 87.2002C83.2922 87.3928 83.581 87.4891 83.9042 87.4891C84.3788 87.4891 84.7502 87.3137 85.0184 86.963C85.2866 86.6122 85.4207 86.1445 85.4207 85.56C85.4207 85.0373 85.29 84.5971 85.0287 84.2395C84.7674 83.8819 84.4063 83.7031 83.9455 83.7031C83.6292 83.7031 83.3403 83.8062 83.079 84.0126C82.8245 84.212 82.6526 84.4802 82.5632 84.8172C82.5288 85.0235 82.5116 85.1473 82.5116 85.1886Z" fill="white"/>
<path d="M89.3398 87.7471L89.5771 86.994C90.0517 87.2966 90.5847 87.4479 91.1761 87.4479C91.63 87.4479 91.9842 87.3413 92.2387 87.1281C92.5 86.908 92.6307 86.6192 92.6307 86.2616C92.6307 85.9452 92.5275 85.6839 92.3212 85.4775C92.1217 85.2643 91.7882 85.0683 91.3205 84.8895C90.0964 84.4425 89.4843 83.7823 89.4843 82.9088C89.4843 82.3586 89.6906 81.9082 90.1032 81.5574C90.5228 81.1998 91.0661 81.021 91.7332 81.021C92.3659 81.021 92.8748 81.1345 93.2599 81.3614L93.0124 82.0939C92.6547 81.8738 92.218 81.7638 91.7022 81.7638C91.2689 81.7638 90.9423 81.8704 90.7222 82.0835C90.5021 82.2899 90.3921 82.5306 90.3921 82.8057C90.3921 83.122 90.4952 83.3765 90.7016 83.5691C90.9148 83.7616 91.2724 83.9542 91.7744 84.1468C92.3865 84.3875 92.8336 84.666 93.1155 84.9824C93.3975 85.2918 93.5385 85.6942 93.5385 86.1893C93.5385 86.7602 93.3287 87.2381 92.9092 87.6233C92.4966 88.0084 91.8982 88.201 91.1142 88.201C90.7841 88.201 90.454 88.1597 90.1239 88.0772C89.7938 87.9878 89.5324 87.8777 89.3398 87.7471Z" fill="white"/>
<path d="M94.9114 82.1762L95.7986 81.8977V83.0944H97.0984V83.7855H95.7986V86.478C95.7986 87.1245 96.0255 87.4477 96.4794 87.4477C96.6926 87.4477 96.868 87.4271 97.0056 87.3858L97.0468 88.077C96.813 88.1596 96.5448 88.2008 96.2422 88.2008C95.8227 88.2008 95.496 88.0736 95.2621 87.8191C95.0283 87.5578 94.9114 87.1211 94.9114 86.509V83.7855H94.1377V83.0944H94.9114V82.1762Z" fill="white"/>
<path d="M101.637 85.0235V86.8907C101.637 87.3722 101.661 87.771 101.71 88.0874H100.895L100.812 87.4581H100.781C100.637 87.6713 100.43 87.8501 100.162 87.9946C99.8939 88.1321 99.5913 88.2009 99.2543 88.2009C98.7729 88.2009 98.3981 88.0599 98.1299 87.7779C97.8616 87.496 97.7275 87.159 97.7275 86.767C97.7275 86.1617 97.9854 85.701 98.5012 85.3846C99.0239 85.0614 99.7667 84.9032 100.73 84.9101V84.8069C100.73 84.6762 100.716 84.5559 100.688 84.4458C100.668 84.3289 100.619 84.2051 100.544 84.0745C100.475 83.9438 100.358 83.8406 100.193 83.765C100.035 83.6893 99.8355 83.6515 99.5947 83.6515C99.0858 83.6515 98.6491 83.7753 98.2846 84.0229L98.0783 83.4142C98.5391 83.1254 99.0893 82.981 99.7289 82.981C101.001 82.981 101.637 83.6618 101.637 85.0235ZM100.75 86.4059V85.5393C99.3403 85.5118 98.6354 85.8866 98.6354 86.6638C98.6354 86.9458 98.7144 87.1624 98.8726 87.3137C99.0377 87.4581 99.2406 87.5303 99.4813 87.5303C99.7908 87.5303 100.052 87.4512 100.265 87.2931C100.478 87.128 100.626 86.9286 100.709 86.6947C100.736 86.6122 100.75 86.5159 100.75 86.4059Z" fill="white"/>
<path d="M103.092 88.0874V84.4458C103.092 83.9094 103.078 83.4589 103.051 83.0944H103.855L103.907 83.9094H103.928C104.065 83.6481 104.278 83.428 104.567 83.2492C104.856 83.0704 105.193 82.981 105.578 82.981C105.771 82.981 105.96 83.0153 106.146 83.0841C106.338 83.146 106.527 83.2526 106.713 83.4039C106.899 83.5483 107.05 83.7684 107.167 84.0641C107.284 84.353 107.342 84.7003 107.342 85.1061V88.0874H106.434V85.2092C106.434 84.7691 106.342 84.4115 106.156 84.1364C105.97 83.8613 105.678 83.7237 105.279 83.7237C104.997 83.7237 104.746 83.8131 104.526 83.9919C104.306 84.1707 104.151 84.3908 104.062 84.6522C104.02 84.7691 104 84.9101 104 85.0751V88.0874H103.092Z" fill="white"/>
<path d="M112.222 80.7628H113.129V86.7977C113.129 87.3548 113.143 87.7846 113.171 88.0872H112.356L112.314 87.2207H112.294C112.149 87.5095 111.929 87.7468 111.634 87.9325C111.338 88.1113 110.994 88.2007 110.602 88.2007C109.99 88.2007 109.478 87.9669 109.065 87.4992C108.659 87.0247 108.456 86.4126 108.456 85.6629C108.449 84.8514 108.662 84.2015 109.096 83.7132C109.536 83.2249 110.069 82.9808 110.695 82.9808C111.059 82.9808 111.372 83.053 111.634 83.1974C111.895 83.3418 112.084 83.5206 112.201 83.7338H112.222V80.7628ZM112.222 85.9931V85.1265C112.222 84.9752 112.208 84.8445 112.18 84.7345C112.111 84.4388 111.957 84.1912 111.716 83.9917C111.482 83.7923 111.2 83.6926 110.87 83.6926C110.409 83.6926 110.045 83.8748 109.777 84.2393C109.508 84.5969 109.374 85.0543 109.374 85.6114C109.374 86.1478 109.502 86.5914 109.756 86.9421C110.017 87.2929 110.382 87.4683 110.849 87.4683C111.159 87.4683 111.437 87.372 111.685 87.1794C111.933 86.98 112.098 86.7152 112.18 86.3851C112.208 86.275 112.222 86.1444 112.222 85.9931Z" fill="white"/>
<path d="M118.153 85.0234V86.8906C118.153 87.372 118.177 87.7709 118.225 88.0873H117.41L117.328 87.458H117.297C117.152 87.6712 116.946 87.85 116.678 87.9944C116.41 88.132 116.107 88.2008 115.77 88.2008C115.289 88.2008 114.914 88.0598 114.645 87.7778C114.377 87.4958 114.243 87.1588 114.243 86.7668C114.243 86.1616 114.501 85.7008 115.017 85.3845C115.54 85.0612 116.282 84.9031 117.245 84.9099V84.8068C117.245 84.6761 117.231 84.5558 117.204 84.4457C117.183 84.3288 117.135 84.205 117.059 84.0743C116.991 83.9437 116.874 83.8405 116.709 83.7649C116.55 83.6892 116.351 83.6514 116.11 83.6514C115.601 83.6514 115.165 83.7752 114.8 84.0228L114.594 83.4141C115.055 83.1253 115.605 82.9808 116.244 82.9808C117.517 82.9808 118.153 83.6617 118.153 85.0234ZM117.266 86.4058V85.5392C115.856 85.5117 115.151 85.8865 115.151 86.6637C115.151 86.9456 115.23 87.1623 115.388 87.3136C115.553 87.458 115.756 87.5302 115.997 87.5302C116.307 87.5302 116.568 87.4511 116.781 87.2929C116.994 87.1279 117.142 86.9284 117.225 86.6946C117.252 86.6121 117.266 86.5158 117.266 86.4058Z" fill="white"/>
<path d="M119.608 88.0873L119.618 84.652C119.618 84.0262 119.605 83.507 119.577 83.0943H120.371L120.413 84.0743H120.444C120.554 83.7442 120.736 83.4794 120.991 83.28C121.245 83.0806 121.527 82.9808 121.836 82.9808C121.919 82.9808 122.001 82.9912 122.084 83.0118V83.8577C121.946 83.8439 121.84 83.8371 121.764 83.8371C121.448 83.8371 121.18 83.9437 120.96 84.1569C120.746 84.3701 120.609 84.6486 120.547 84.9925C120.526 85.13 120.516 85.2744 120.516 85.4257V88.0873H119.608Z" fill="white"/>
<path d="M126.323 80.7627H127.231V86.7976C127.231 87.3547 127.245 87.7845 127.272 88.0871H126.457L126.416 87.2205H126.395C126.251 87.5094 126.031 87.7467 125.735 87.9324C125.439 88.1112 125.096 88.2006 124.704 88.2006C124.091 88.2006 123.579 87.9667 123.166 87.4991C122.761 87.0245 122.558 86.4125 122.558 85.6628C122.551 84.8513 122.764 84.2014 123.197 83.7131C123.638 83.2248 124.171 82.9806 124.796 82.9806C125.161 82.9806 125.474 83.0529 125.735 83.1973C125.996 83.3417 126.186 83.5205 126.303 83.7337H126.323V80.7627ZM126.323 85.9929V85.1264C126.323 84.9751 126.309 84.8444 126.282 84.7344C126.213 84.4386 126.058 84.1911 125.818 83.9916C125.584 83.7922 125.302 83.6925 124.972 83.6925C124.511 83.6925 124.146 83.8747 123.878 84.2392C123.61 84.5968 123.476 85.0542 123.476 85.6112C123.476 86.1477 123.603 86.5913 123.858 86.942C124.119 87.2928 124.483 87.4681 124.951 87.4681C125.261 87.4681 125.539 87.3718 125.787 87.1793C126.034 86.9798 126.199 86.7151 126.282 86.3849C126.309 86.2749 126.323 86.1442 126.323 85.9929Z" fill="white"/>
<defs>
<linearGradient id="paint0_linear_5027_37954" x1="64" y1="38" x2="64" y2="76.6338" gradientUnits="userSpaceOnUse">
<stop stop-color="#49BF70"/>
<stop offset="1" stop-color="#1D6434"/>
</linearGradient>
</defs>
</svg>
