<svg width="128" height="128" viewBox="0 0 128 128" fill="none" xmlns="http://www.w3.org/2000/svg">
<path fill-rule="evenodd" clip-rule="evenodd" d="M47.6476 111.149C28.2393 97.2683 8.43927 52.053 9.25551 31.5254C5.08661 33.6592 2.13406 36.0374 0.925381 38.5691C-5.94576 52.9234 26.8847 106.355 51.8652 118.308C76.659 130.165 93.3046 112.28 101.825 98.9676C91.553 110.768 71.1857 127.972 47.6495 111.149L47.6476 111.149Z" fill="#FDD704"/>
<path fill-rule="evenodd" clip-rule="evenodd" d="M102.419 98.0231C91.0567 107.831 66.274 124.558 44.6613 102.524C30.3051 87.8774 19.6875 50.3867 19.7596 27.3944C19.7709 24.0346 20.0078 20.9819 20.4967 18.3594C16.1495 19.7275 12.9281 21.5315 11.327 23.7731C10.046 25.5639 9.38649 28.2263 9.25577 31.5236C8.44094 52.0518 28.2396 97.2645 47.6479 111.147C71.1854 127.969 91.552 110.766 101.824 98.9642C102.311 98.4052 102.775 97.8576 103.217 97.3251C102.959 97.5544 102.69 97.7875 102.417 98.0225L102.419 98.0231Z" fill="#80CC28"/>
<path fill-rule="evenodd" clip-rule="evenodd" d="M115.985 50.3076C112.221 50.3076 109.995 53.5879 109.995 57.1086C109.995 60.6712 112.14 63.9913 115.985 63.9913C119.952 63.9913 122.139 60.8342 122.139 57.1086C122.139 53.4249 119.911 50.3076 115.985 50.3076ZM116.828 31.6003C97.6433 11.6216 35.4342 -0.9821 24.0645 10.1681C22.3458 11.8527 21.1785 14.6932 20.4945 18.3599C20.0074 20.9844 19.7687 24.0355 19.7592 27.3952C19.6853 50.3869 30.3028 87.877 44.6609 102.525C66.2711 124.561 91.0554 107.832 102.415 98.024C102.69 97.7891 102.957 97.556 103.215 97.3286C105.176 95.5965 106.675 94.1355 107.606 93.2221C113.729 87.2226 144.055 59.9643 116.827 31.6008L116.828 31.6003ZM49.2303 41.8881C47.0436 39.9458 44.0496 38.8922 41.1748 38.8922C34.3322 38.8922 29.1114 44.5998 29.1114 51.3612C29.1114 58.039 34.2922 63.7469 41.0932 63.7469C44.0892 63.7469 46.9618 62.6156 49.2303 60.5898V65.0849C46.8824 66.4607 43.8886 67.23 41.2145 67.23C32.5108 67.23 25.3061 60.3076 25.3061 51.4826C25.3061 42.455 32.5505 35.4113 41.5384 35.4113C44.2103 35.4113 46.924 36.0594 49.23 37.4768L49.2303 41.8881ZM65.5007 67.4003C63.5773 68.0483 53.9773 71.2395 51.1688 62.9036C49.0843 56.7091 52.7302 42.3622 56.2909 41.1663C59.8536 39.9649 71.7749 49.0419 73.7966 55.2575C76.6656 64.0841 67.4181 66.7582 65.5004 67.4006L65.5007 67.4003ZM101.969 66.5816H98.3251V55.8542C98.3251 53.4249 98.001 50.3077 94.8044 50.3077C90.9158 50.3077 90.6335 54.3572 90.6335 57.2697V66.5816H86.9896V56.5421C86.9896 54.073 86.8683 50.3077 83.5086 50.3077C79.6239 50.3077 79.3 54.3156 79.3 57.2697V66.5816H75.656V47.6355H79.3V50.0251H79.3795C80.4331 48.3651 82.3338 47.0709 84.3992 47.0709C86.8683 47.0709 88.6498 48.3253 89.8642 50.4286C91.0391 48.4048 93.3055 47.0709 95.6931 47.0709C100.673 47.0709 101.969 50.9555 101.969 55.2458L101.969 66.5816ZM116.714 67.2297C114.042 67.2297 111.736 65.7725 110.279 63.6254H110.197V77.4304H106.553V47.6357H110.197V50.7947H110.279C111.776 48.5264 114.042 47.071 116.875 47.071C122.342 47.071 125.781 51.8065 125.781 56.9875C125.781 62.4109 122.543 67.2299 116.714 67.2299L116.714 67.2297Z" fill="#2D9EDF"/>
<path fill-rule="evenodd" clip-rule="evenodd" d="M61.799 50.5505C58.1947 50.5505 55.3222 53.5465 55.3222 57.149C55.3222 60.7116 58.1949 63.7455 61.799 63.7455C65.4013 63.7455 68.2761 60.7116 68.2761 57.149C68.2761 53.5466 65.4014 50.5505 61.799 50.5505ZM73.798 55.2559C71.7761 49.0403 59.8547 39.9634 56.2924 41.1647C52.7336 42.3604 49.0877 56.7072 51.1722 62.902C53.9805 71.2379 63.5803 68.0469 65.5018 67.4006C67.4195 66.7563 76.667 64.0825 73.798 55.2559ZM61.799 67.2284C56.1311 67.2284 51.6779 62.8546 51.6779 57.149C51.6779 51.4414 56.1311 47.0695 61.799 47.0695C67.465 47.0695 71.9181 51.4414 71.9181 57.149C71.9181 62.8546 67.465 67.2284 61.799 67.2284Z" fill="#F78B11"/>
<path fill-rule="evenodd" clip-rule="evenodd" d="M25.3086 51.4817C25.3086 60.3067 32.5133 67.2291 41.217 67.2291C43.8908 67.2291 46.8829 66.4597 49.2328 65.084V60.5889C46.9644 62.6147 44.0917 63.746 41.0956 63.746C34.2946 63.746 29.1139 58.0403 29.1139 51.3602C29.1139 44.5989 34.3346 38.8932 41.1773 38.8932C44.05 38.8932 47.0459 39.9449 49.2328 41.8872V37.4757C46.9246 36.0582 44.213 35.4102 41.5409 35.4102C32.553 35.4102 25.3086 42.4541 25.3086 51.4817ZM61.7993 47.0702C56.1314 47.0702 51.6783 51.4417 51.6783 57.1496C51.6783 62.8553 56.1314 67.2291 61.7993 67.2291C67.4653 67.2291 71.9185 62.8553 71.9185 57.1496C71.9185 51.442 67.4653 47.0702 61.7993 47.0702ZM61.7993 63.7458C58.1951 63.7458 55.3222 60.7101 55.3222 57.1493C55.3222 53.547 58.195 50.5509 61.7993 50.5509C65.4017 50.5509 68.2764 53.5468 68.2764 57.1493C68.2764 60.71 65.4018 63.7458 61.7993 63.7458ZM95.6973 47.0702C93.3096 47.0702 91.0431 48.4042 89.8684 50.4299C88.6537 48.3245 86.8724 47.0702 84.4034 47.0702C82.3378 47.0702 80.4371 48.3644 79.3837 50.0244H79.3022V47.6348H75.6602V66.5805H79.3022V57.2687C79.3022 54.3144 79.6282 50.3066 83.5127 50.3066C86.8724 50.3066 86.9938 54.0719 86.9938 56.5411V66.5805H90.6377V57.2687C90.6377 54.3561 90.9201 50.3066 94.8085 50.3066C98.0053 50.3066 98.3276 53.4238 98.3276 55.8532V66.5805H101.972V55.2447C101.972 50.9545 100.677 47.0698 95.6974 47.0698L95.6973 47.0702ZM116.879 47.0702C114.046 47.0702 111.78 48.5254 110.281 50.7938H110.201V47.6349H106.557V77.4296H110.201V63.6245H110.281C111.74 65.7716 114.046 67.2288 116.718 67.2288C122.547 67.2288 125.785 62.4098 125.785 56.9864C125.785 51.8054 122.346 47.0699 116.879 47.0699L116.879 47.0702ZM115.989 63.9903C112.144 63.9903 109.997 60.6703 109.997 57.1077C109.997 53.587 112.225 50.3066 115.989 50.3066C119.915 50.3066 122.141 53.4238 122.141 57.1077C122.141 60.8333 119.957 63.9903 115.989 63.9903Z" fill="white"/>
</svg>
