<svg width="128" height="128" viewBox="0 0 128 128" fill="none" xmlns="http://www.w3.org/2000/svg">
<path d="M120.937 47.049C125.654 57.3177 126.876 64.7567 127.715 71.7297C129.061 82.8418 125.615 93.145 117.77 93.145C112.408 93.145 107.917 89.0851 103.821 83.4046C100.688 79.0574 97.2034 71.9336 94.9483 64.8772C92.4841 57.1668 91.6777 50.2283 91.6777 45.2045C91.6777 35.3543 95.1377 28 102.522 28C109.677 28 116.382 37.1366 120.937 47.049ZM103.347 36.8029C102.141 36.2534 101.291 36.4559 100.769 37.7165C100.279 38.9003 99.8252 41.2308 99.8252 46.0017C99.8252 49.9741 100.968 56.5537 103.159 63.0844C106.176 72.111 110.952 81.1946 115.796 84.207C117.371 85.1895 118.092 85.3656 119.064 83.6231C121.104 79.9512 120.106 71.9865 119.934 70.3009C119.722 68.2154 118.375 60.4136 114.652 51.8636C111.475 44.5769 106.968 38.4527 103.347 36.8029Z" fill="url(#paint0_linear_5027_33380)"/>
<path d="M66.873 46.3936C63.0382 46.3936 53.9004 47.29 44.409 51.4279C42.5922 45.8772 34.7692 32.7629 22.0509 32.7603C17.6455 32.7603 13.8161 34.4141 10.605 37.0677C3.89178 42.6198 0 52.96 0 64.5674C0 69.1952 1.00304 75.5286 3.35073 81.4634C7.18147 91.1336 14.4093 99.9324 25.3917 99.9324C39.0435 99.9324 44.6208 84.5539 44.6208 84.5539C44.6208 84.5539 51.607 83.0179 59.4101 79.497C69.7265 74.84 82.3177 66.0981 82.3177 56.4199C82.3177 47.8951 71.5008 46.3936 66.873 46.3936ZM74.1266 57.6355C73.7413 59.4456 71.9643 61.7099 68.0567 64.8679C55.3252 75.1512 36.8984 78.4721 28.8715 77.1692C25.3506 76.5972 24.6131 74.844 27.7076 71.0305C30.2248 67.9227 33.0306 65.9816 35.4459 64.333L35.7425 64.1463C35.4565 61.7589 34.7123 58.7703 33.8039 56.4557C33.7841 56.4729 33.2849 56.7695 33.1935 56.8225C27.7341 59.9673 16.7225 68.5318 17.8878 76.7733C19.1126 85.449 31.1649 86.1773 35.2035 85.7734C35.2035 85.7734 30.8312 91.9095 25.5612 91.9095C14.298 91.9095 7.66968 76.3668 7.66968 64.566C7.66968 54.4748 12.3397 41.0202 22.6322 41.0202C28.9827 41.0202 34.47 47.5363 37.1884 54.9886C38.4225 58.3836 39.7837 62.27 39.6778 70.236C39.6689 71.0649 39.6209 71.825 39.5547 72.5148C39.5269 72.7916 39.4712 73.3067 39.4606 73.3477C42.0599 72.9955 45.0273 72.2394 47.4174 71.5151C47.4174 71.5151 47.4359 70.9815 47.4479 70.6902C47.5829 66.3046 47.4042 62.0197 46.6454 58.6445C48.7667 57.8394 58.425 54.4165 65.6865 54.4377C70.5541 54.4496 72.8316 55.3659 73.822 56.3617C74.1266 56.7391 74.2246 57.1813 74.1266 57.6355Z" fill="url(#paint1_linear_5027_33380)"/>
<defs>
<linearGradient id="paint0_linear_5027_33380" x1="109.839" y1="28" x2="109.839" y2="93.145" gradientUnits="userSpaceOnUse">
<stop stop-color="white"/>
<stop offset="1" stop-color="#E7E7E7"/>
</linearGradient>
<linearGradient id="paint1_linear_5027_33380" x1="41.1588" y1="32.7603" x2="41.1588" y2="99.9324" gradientUnits="userSpaceOnUse">
<stop stop-color="white"/>
<stop offset="1" stop-color="#E7E7E7"/>
</linearGradient>
</defs>
</svg>
