<svg width="128" height="128" viewBox="0 0 128 128" fill="none" xmlns="http://www.w3.org/2000/svg">
<path d="M0 24C0 10.7452 10.7452 0 24 0H104C117.255 0 128 10.7452 128 24V104C128 117.255 117.255 128 104 128H24C10.7452 128 0 117.255 0 104V24Z" fill="url(#paint0_linear_5027_26068)"/>
<path d="M73.542 79.0957H61.6787L64.7363 99.6318L53.6963 73.6885H65.2705L59.3662 60.0742L50.2324 79.0957H43.627L59.3662 46L73.542 79.0957ZM17.998 47.0508C21.8673 47.0509 24.0261 49.4726 26.1514 52.0508L22.2109 55.9561C20.5787 53.5681 19.1808 52.7227 17.8906 52.7227C16.4104 52.7227 15.5723 53.8784 15.5723 54.7891C15.5723 56.3954 16.426 56.8908 20.833 61.127C23.0794 63.2855 26.6475 66.024 26.6475 71.0049C26.6474 76.119 23.1761 79.8759 18.1621 79.876L17.7158 79.8691C13.1963 79.7013 10.7944 76.955 9 73.0996L13.4609 70.0537C15.0091 73.0984 16.4741 74.2148 18.1582 74.2148C20.1647 74.2148 21.416 72.6515 21.416 71.2109C21.4157 69.296 19.6959 67.9181 16.4131 64.8291C11.3826 60.0941 10.2891 57.8056 10.2891 54.8506C10.2891 51.0796 13.2516 47.0508 17.998 47.0508ZM111.977 47.7656C114.739 47.8581 117.082 48.6385 118.999 49.9395V56.8242C116.677 54.6957 114.673 53.3741 111.264 53.374C105.6 53.374 101.868 58.0499 101.868 63.8242C101.868 69.5985 105.603 74.2744 111.264 74.2744C114.674 74.2744 116.777 72.7718 118.999 70.5625L119 77.6562C116.958 79.0648 114.425 79.876 111.419 79.876C102.409 79.8758 96.6328 72.7557 96.6328 63.8154C96.6329 54.8752 102.409 47.755 111.419 47.7549L111.977 47.7656ZM37.9141 47.8525C40.95 47.8525 48.4285 47.8523 48.4287 56.9102C48.4287 65.8613 40.5855 65.8613 37.9141 65.8613H37.0889L37.0996 79.1758H31.7041V47.8525H37.9141ZM82.6914 48.5059C84.8928 48.5059 92.4941 48.5063 92.4941 57.4199C92.494 61.4459 90.8492 64.004 87.2842 65.5029L93.7725 79.0742H88.0225L81.9033 66.1455H81.3984V79.0742H76.1387V48.5059H82.6914ZM81.3975 60.4766H83.3672C84.5091 60.4766 87.3877 60.4761 87.3877 57.3545C87.3875 54.1481 84.5096 54.1484 83.3672 54.1484H81.3975V60.4766ZM37.0898 60.0742H38.5674C40.5834 60.0742 43.2468 60.0744 43.2471 56.9131C43.2471 53.7208 40.5835 53.7197 38.5674 53.7197H37.0898V60.0742Z" fill="white"/>
<defs>
<linearGradient id="paint0_linear_5027_26068" x1="64" y1="0" x2="64" y2="128" gradientUnits="userSpaceOnUse">
<stop stop-color="#00C4FF"/>
<stop offset="0.0001" stop-color="#FF7358"/>
<stop offset="1" stop-color="#F0401F"/>
</linearGradient>
</defs>
</svg>
