<svg width="16" height="16" viewBox="0 0 16 16" fill="none" xmlns="http://www.w3.org/2000/svg">
<path fill-rule="evenodd" clip-rule="evenodd" d="M8 1.5C4.40934 1.5 1.5 4.40934 1.5 8C1.5 11.5907 4.40934 14.5 8 14.5C11.5907 14.5 14.5 11.5907 14.5 8C14.5 4.40934 11.5907 1.5 8 1.5ZM8 3.39583C8.5988 3.39583 9.08333 3.88037 9.08333 4.47917C9.08333 5.07796 8.5988 5.5625 8 5.5625C7.71647 5.5625 7.45833 5.45247 7.26367 5.27474C7.15999 5.17952 7.07747 5.06527 7.01823 4.9362C6.95264 4.79867 6.91667 4.64209 6.91667 4.47917C6.91667 3.88037 7.4012 3.39583 8 3.39583ZM8 6.64583C8.5988 6.64583 9.08333 7.13037 9.08333 7.72917V11.5208C9.08333 12.1196 8.5988 12.6042 8 12.6042C7.4012 12.6042 6.91667 12.1196 6.91667 11.5208V7.72917C6.91667 7.13037 7.4012 6.64583 8 6.64583Z" fill="#B1B4BD"/>
</svg>
