<svg width="128" height="128" viewBox="0 0 128 128" fill="none" xmlns="http://www.w3.org/2000/svg">
<path d="M15 88.6155V114.872C15 122.122 36.6401 128 63.3357 128C90.0313 128 111.671 122.122 111.671 114.872V88.6155C111.671 95.8652 90.0313 101.744 63.3357 101.744C36.6401 101.744 15 95.8652 15 88.6155Z" fill="url(#paint0_linear_5080_6954)"/>
<path d="M15 56.3916V82.648C15 89.8977 36.6401 95.7762 63.3357 95.7762C90.0313 95.7762 111.671 89.8977 111.671 82.648V56.3916C111.671 63.6413 90.0313 69.5198 63.3357 69.5198C36.6401 69.5198 15 63.6413 15 56.3916Z" fill="url(#paint1_linear_5080_6954)"/>
<path d="M15 24.1677V50.4241C15 57.6738 36.6401 63.5523 63.3357 63.5523C90.0313 63.5523 111.671 57.6738 111.671 50.4241V24.1677C111.671 31.4174 90.0313 37.2959 63.3357 37.2959C36.6401 37.2959 15 31.4174 15 24.1677Z" fill="url(#paint2_linear_5080_6954)"/>
<path d="M63.6651 0C57.2743 -3.16179e-08 50.9461 0.417929 45.0418 1.22992C39.1374 2.04192 33.7726 3.23208 29.2537 4.73245C24.7347 6.23282 21.1501 8.01402 18.7044 9.97434C16.2588 11.9347 15 14.0357 15 16.1576C15 18.2794 16.2588 20.3805 18.7044 22.3408C21.1501 24.3012 24.7347 26.0823 29.2537 27.5827C33.7726 29.0831 39.1374 30.2732 45.0418 31.0852C50.9461 31.8972 57.2743 32.3152 63.6651 32.3152C70.0559 32.3152 76.3841 31.8972 82.2884 31.0852C88.1927 30.2732 93.5575 29.0831 98.0765 27.5827C102.595 26.0823 106.18 24.3012 108.626 22.3408C111.071 20.3805 112.33 18.2794 112.33 16.1576C112.33 14.0357 111.071 11.9347 108.626 9.97434C106.18 8.01402 102.595 6.23282 98.0765 4.73245C93.5575 3.23208 88.1927 2.04192 82.2884 1.22992C76.3841 0.417929 70.0559 -3.16179e-08 63.6651 0Z" fill="url(#paint3_linear_5080_6954)"/>
<defs>
<linearGradient id="paint0_linear_5080_6954" x1="63.3357" y1="88.6155" x2="63.3357" y2="128" gradientUnits="userSpaceOnUse">
<stop stop-color="#D3D7DD"/>
<stop offset="1" stop-color="#888C90"/>
</linearGradient>
<linearGradient id="paint1_linear_5080_6954" x1="63.3357" y1="56.3916" x2="63.3357" y2="95.7762" gradientUnits="userSpaceOnUse">
<stop stop-color="#D3D7DD"/>
<stop offset="1" stop-color="#888C90"/>
</linearGradient>
<linearGradient id="paint2_linear_5080_6954" x1="63.3357" y1="24.1677" x2="63.3357" y2="63.5523" gradientUnits="userSpaceOnUse">
<stop stop-color="#D3D7DD"/>
<stop offset="1" stop-color="#888C90"/>
</linearGradient>
<linearGradient id="paint3_linear_5080_6954" x1="63.6651" y1="0" x2="63.6651" y2="32.3152" gradientUnits="userSpaceOnUse">
<stop stop-color="#888C90"/>
<stop offset="1" stop-color="#D3D7DD"/>
</linearGradient>
</defs>
</svg>
