<svg width="1000" height="1000" viewBox="0 0 1000 1000" fill="none" xmlns="http://www.w3.org/2000/svg">
<path fill-rule="evenodd" clip-rule="evenodd" d="M910.887 610.912C910.887 600.29 904.42 595.4 896.453 600L564.477 791.667C556.511 796.266 550.043 808.624 550.043 819.245V880.755C550.043 891.377 556.511 896.266 564.477 891.667L896.453 700C904.42 695.4 910.887 683.044 910.887 672.422V610.912Z" fill="#A4A4A4"/>
<path fill-rule="evenodd" clip-rule="evenodd" d="M896.453 649.999C896.453 631.602 885.252 623.132 871.455 631.098L589.476 793.898C575.679 801.864 564.477 823.269 564.477 841.666C564.477 860.063 575.679 868.531 589.476 860.565L871.455 697.764C885.252 689.799 896.453 668.396 896.453 649.999Z" fill="url(#paint0_linear_5075_6078)"/>
<path fill-rule="evenodd" clip-rule="evenodd" d="M896.453 649.999C896.453 631.602 885.252 623.132 871.455 631.098L589.476 793.898C575.679 801.864 564.477 823.269 564.477 841.666C564.477 860.063 575.679 868.531 589.476 860.565L871.455 697.764C885.252 689.799 896.453 668.396 896.453 649.999Z" fill="black" fill-opacity="0.25"/>
<path fill-rule="evenodd" clip-rule="evenodd" d="M569.812 859.162C573.477 859.86 577.728 859.017 582.259 856.4L864.236 693.602C878.034 685.635 889.236 664.232 889.236 645.834C889.236 638.073 887.242 632.078 883.901 628.34C880.235 627.642 875.984 628.485 871.452 631.102L589.477 793.9C575.678 801.867 564.477 823.27 564.477 841.668C564.477 849.429 566.471 855.424 569.812 859.162Z" fill="url(#paint1_linear_5075_6078)"/>
<path fill-rule="evenodd" clip-rule="evenodd" d="M569.812 859.162C573.477 859.86 577.728 859.017 582.259 856.4L864.236 693.602C878.034 685.635 889.236 664.232 889.236 645.834C889.236 638.073 887.242 632.078 883.901 628.34C880.235 627.642 875.984 628.485 871.452 631.102L589.477 793.9C575.678 801.867 564.477 823.27 564.477 841.668C564.477 849.429 566.471 855.424 569.812 859.162Z" fill="black" fill-opacity="0.1"/>
<path fill-rule="evenodd" clip-rule="evenodd" d="M203.633 583.334L535.61 391.667C539.218 389.584 542.52 389.447 545.051 390.909L905.895 599.242C903.363 597.781 900.062 597.917 896.453 600.001L564.477 791.667L203.633 583.334Z" fill="url(#paint2_linear_5075_6078)"/>
<path fill-rule="evenodd" clip-rule="evenodd" d="M550.043 819.244V880.754C550.043 886.564 551.978 890.659 555.035 892.424L194.191 684.09C191.134 682.325 189.199 678.23 189.199 672.42V610.91L550.043 819.244Z" fill="url(#paint3_linear_5075_6078)"/>
<path fill-rule="evenodd" clip-rule="evenodd" d="M189.199 610.91C189.199 600.289 195.667 587.931 203.633 583.332L564.477 791.665C556.51 796.265 550.043 808.622 550.043 819.244L189.199 610.91Z" fill="#DCDCDC"/>
<path d="M593.346 825C597.332 822.699 600.563 817.102 600.563 812.5C600.563 807.898 597.332 806.032 593.346 808.333C589.36 810.635 586.129 816.231 586.129 820.833C586.129 825.436 589.36 827.301 593.346 825Z" fill="url(#paint4_linear_5075_6078)"/>
<path d="M622.213 808.332C626.199 806.031 629.43 800.435 629.43 795.832C629.43 791.23 626.199 789.364 622.213 791.665C618.227 793.967 614.996 799.563 614.996 804.165C614.996 808.768 618.227 810.633 622.213 808.332Z" fill="url(#paint5_linear_5075_6078)"/>
<path d="M651.08 791.664C655.066 789.363 658.297 783.767 658.297 779.164C658.297 774.562 655.066 772.696 651.08 774.997C647.094 777.299 643.863 782.895 643.863 787.497C643.863 792.1 647.094 793.965 651.08 791.664Z" fill="url(#paint6_linear_5075_6078)"/>
<path fill-rule="evenodd" clip-rule="evenodd" d="M867.588 658.333C867.588 653.734 864.787 651.617 861.341 653.607L700.633 746.392C697.183 748.383 694.383 753.734 694.383 758.333C694.383 762.933 697.183 765.049 700.633 763.058L861.341 670.273C864.787 668.283 867.588 662.933 867.588 658.333Z" fill="url(#paint7_linear_5075_6078)"/>
<path d="M550.043 241.667L189.199 450L550.043 658.333L910.887 450L550.043 241.667Z" fill="url(#paint8_linear_5075_6078)"/>
<path d="M550.043 658.333L189.199 450V550L550.043 758.333V658.333Z" fill="url(#paint9_linear_5075_6078)"/>
<path d="M910.887 449.999L550.043 658.332V758.332L910.887 549.999V449.999Z" fill="url(#paint10_linear_5075_6078)"/>
<path d="M550.043 516.665L189.199 308.332V408.332L550.043 616.665V516.665Z" fill="url(#paint11_linear_5075_6078)"/>
<path d="M910.887 308.331L550.043 516.664V616.664L910.887 408.331V308.331Z" fill="url(#paint12_linear_5075_6078)"/>
<path d="M550.043 99.9987L189.199 308.332L550.043 516.665L910.887 308.332L550.043 99.9987Z" fill="url(#paint13_linear_5075_6078)"/>
<path d="M550.043 516.665L189.199 308.332V408.332L550.043 616.665V516.665Z" fill="white" fill-opacity="0.5"/>
<path d="M910.887 308.331L550.043 516.664V616.664L910.887 408.331V308.331Z" fill="white" fill-opacity="0.5"/>
<path d="M550.043 99.9987L189.199 308.332L550.043 516.665L910.887 308.332L550.043 99.9987Z" fill="white" fill-opacity="0.5"/>
<g filter="url(#filter0_d_5075_6078)">
<path d="M305.065 865C372.812 865 427.731 814.856 427.731 753C427.731 691.144 372.812 641 305.065 641C237.318 641 182.398 691.144 182.398 753C182.398 814.856 237.318 865 305.065 865Z" fill="#47667F"/>
<path d="M305.065 849.669C369.795 849.669 422.27 804.004 422.27 747.674C422.27 691.344 369.795 645.68 305.065 645.68C240.334 645.68 187.859 691.344 187.859 747.674C187.859 804.004 240.334 849.669 305.065 849.669Z" fill="#C5CAD5"/>
<path d="M97.0664 481L299.733 598.333V833L107.733 694.333L97.0664 481Z" fill="#C5CAD5"/>
<path d="M502.401 481L299.734 598.333V833L491.734 694.333L502.401 481Z" fill="#6D83B3"/>
<path d="M305.057 849.66C307.947 849.66 310.774 849.468 313.611 849.286L418.262 773.702C420.79 765.372 422.262 756.678 422.262 747.665C422.262 746.641 422.123 745.649 422.091 744.625L299.723 832.998L188.129 752.401C188.716 763.569 191.34 774.257 195.734 784.209L283.947 847.921C290.806 849.009 297.835 849.66 305.057 849.66Z" fill="#5A6E91"/>
<path d="M97.0664 481L299.733 598.333L502.399 481L299.733 385L97.0664 481Z" fill="#EAF4F8"/>
<path d="M168.004 479.4L299.737 555.667L431.47 479.4L299.737 417L168.004 479.4Z" fill="#34495E"/>
<path d="M470.397 672.994L477.277 535.395L331.73 619.661V773.144L470.397 672.994Z" fill="#34495E"/>
<path d="M129.071 672.994L122.191 535.395L267.738 619.661V773.144L129.071 672.994Z" fill="#34495E"/>
<path d="M246.397 433L272.061 445.672L246.066 481.331L323.73 455.997L306.728 495.336L356.061 478.003L334.066 525.672L363.73 545" stroke="#EAF4F8" stroke-width="10.6667" stroke-miterlimit="10"/>
<path d="M351.158 666.613C351.83 671.851 345.814 696.437 345.472 699.456C345.088 702.88 343.222 704.693 339.68 706.123C338.699 696.853 337.686 687.893 336.832 678.901C336.598 676.384 339.019 676.053 340.79 674.667C341.462 681.995 342.144 690.059 342.774 696.928C342.998 696.96 346.411 680.587 347.574 672.907C347.99 670.176 348.864 668.096 351.158 666.613Z" fill="#ECF0F1"/>
<path d="M457.374 613.298C456.126 616.242 456.478 621.458 451.859 623.559C451.582 620.786 452.712 618.482 453.587 616.317C455.518 611.527 456.168 606.866 453.747 602.119C452.595 599.869 454.259 599.047 455.678 598.173C458.152 596.647 457.096 599.869 458.611 600.21C460.275 598.055 459.262 593.906 463.208 593.031C463.955 594.365 462.942 595.655 462.472 596.733C460.104 602.162 459.368 607.527 462.227 612.999C463.592 615.613 461.992 616.541 460.179 617.618C459.827 617.831 459.24 618.237 458.536 616.605C458.088 615.559 457.79 614.482 457.374 613.298Z" fill="#ECF0F1"/>
<path d="M353.004 694.056C353.516 687.72 354.156 681.384 354.476 675.037C354.593 672.733 355.319 671.304 358.135 670.387C357.633 678.184 357.196 685.693 356.652 693.203C356.524 695.005 356.033 695.667 354.145 696.445C353.004 696.925 353.004 694.056 353.004 694.056Z" fill="#ECF0F1"/>
<path d="M358.469 660.303C360.239 661.263 359.002 664.058 357.999 665.818C357.53 666.661 356.922 667.642 355.845 667.471C354.575 667.279 354.703 665.978 354.65 665.071C354.586 663.941 356.421 659.194 358.469 660.303Z" fill="#ECF0F1"/>
<path d="M254.442 691.039C250.303 688.073 246.516 685.364 242.079 682.185C242.954 686.687 244.682 689.855 247.775 692.212C250.591 694.367 253.46 696.436 256.394 698.431C257.812 699.391 258.687 699.743 257.78 701.236C256.586 703.209 255.348 702.047 254.463 701.545C245.215 696.329 239.732 688.521 238.356 677.94C238.207 676.82 238.015 675.679 238.079 674.559C238.218 672.169 238.218 669.535 240.746 668.265C243.114 667.081 244.692 669.108 246.388 670.249C248.97 671.988 251.402 673.972 254.015 675.668C255.572 676.681 255.903 677.449 255.071 678.783C253.812 680.799 252.703 679.167 251.871 678.665C250.047 677.588 248.426 676.191 246.666 674.996C245.204 674.004 242.282 671.956 241.908 674.953C241.556 677.78 242.25 677.716 243.722 678.793C247.05 681.204 250.399 683.593 253.695 686.036C255.956 687.7 255.935 687.732 254.442 691.039Z" fill="#ECF0F1"/>
<path d="M239.364 686.611C240.74 687.742 238.5 690.227 236.794 688.883C233.007 685.918 229.029 683.177 225.125 680.35C223.493 679.166 222.906 677.427 222.714 675.561C221.957 668.233 221.295 660.894 220.517 653.555C220.399 652.425 220.559 651.955 221.743 652.147C222.831 653.086 223.45 654.121 223.567 655.699C223.887 660.041 224.261 664.03 224.858 668.702C225.861 676.617 227.205 677.939 231.898 680.926C234.746 682.75 235.834 683.731 239.364 686.611Z" fill="#ECF0F1"/>
<path d="M362.023 689.844C362.471 682.089 362.845 675.028 363.314 667.977C363.474 665.662 363.602 665.599 366.642 665.887C367.687 665.983 368.434 661.631 370.706 660.617C370.802 663.156 371.079 665.151 368.999 667.081C367.25 668.703 366.599 671.166 366.45 673.641C366.226 677.46 365.746 681.268 365.725 685.076C365.703 687.486 364.562 688.617 362.023 689.844Z" fill="#ECF0F1"/>
<path d="M420.049 644.001C418.63 644.385 418.363 643.596 418.459 642.433C418.886 637.324 419.654 621.559 420.091 618.092C420.219 617.079 420.763 615.425 419.377 615.223C417.915 614.999 417.233 616.407 416.721 617.825C415.643 620.769 413.115 647.66 415.43 650.455C418.545 651.841 420.358 647.479 420.049 644.001C420.049 643.991 420.049 643.991 420.049 644.001Z" fill="#ECF0F1"/>
<path d="M380.934 653.198C380.721 653.283 378.652 655.321 378.46 652.953C378.332 651.31 378.417 649.667 378.406 648.014V648.003C376.476 647.918 376.156 649.475 376.049 650.734C375.814 653.699 375.644 656.579 373.35 658.894C372.86 659.385 372.593 660.782 372.924 661.283C375.441 665.049 373.713 669.07 373.777 672.963C373.82 675.449 372.401 679.107 374.716 680.003C377.532 681.091 380.092 673.667 380.028 673.678C377.809 673.838 377.51 670.371 377.617 668.547C377.852 664.515 376.465 660.003 380.7 656.867C381.606 656.217 381.148 654.467 380.934 653.198Z" fill="#ECF0F1"/>
<path d="M444.854 605.477C439.276 610.011 438.582 617.477 438.102 624.336C437.9 627.269 438.433 633.04 442.977 630.875C450.966 627.067 450.849 617.424 450.87 608.933C450.881 603.6 448.95 602.149 444.854 605.477ZM443.286 625.435C441.75 625.435 442.134 622.715 442.22 621.051C442.433 616.603 443.617 609.765 446.273 609.765C447.254 609.765 447.308 611.003 447.34 611.867C447.489 615.547 446.636 625.435 443.286 625.435Z" fill="#ECF0F1"/>
<path d="M179.173 647.397C177.147 646.543 176.08 644.837 175.227 642.917C172.56 637.477 169.787 632.143 167.12 626.703C170.224 628.517 174.256 630.65 175.109 630.117C177.371 628.517 173.403 623.823 172.016 622.757C170.096 621.37 167.291 619.247 164.624 617.221C164.965 619.919 165.435 630.522 166.149 634.917C166.363 635.77 166.896 637.157 165.616 637.477C164.336 637.797 163.589 636.517 163.483 635.45C162.949 631.077 160.496 611.237 161.563 609.637C169.349 615.183 178.629 619.45 179.909 630.757C180.336 635.45 179.163 637.157 174.896 636.73C176.389 639.61 177.883 642.277 179.163 645.05C179.493 645.69 180.987 646.65 179.173 647.397Z" fill="#ECF0F1"/>
<path d="M219.075 671.387C216.237 669.51 213.485 667.515 210.819 665.414C206.008 661.606 204.248 656.273 204.248 650.417C204.248 646.747 206.093 645.958 209.123 647.963C211.128 649.297 212.984 650.843 215.021 652.123C215.715 652.561 216.547 654.353 217.635 652.422C218.328 651.174 218.509 650.182 217.059 649.19C213.805 646.971 210.712 644.529 207.437 642.342C205.603 641.115 203.576 640.379 202.04 642.929C199.811 650.267 201.731 657.19 205.293 663.377C208.131 668.294 212.792 671.185 216.835 674.769C217.261 675.142 219.235 676.763 220.141 675.195C221.144 673.446 220.643 672.433 219.075 671.387Z" fill="#ECF0F1"/>
<path d="M158.216 610C154.707 603.59 143.784 596.72 143.336 596.422C139.048 593.478 136.701 594.459 136.083 599.664C135.635 603.515 136.808 607.163 137.779 610.854C139.955 619.163 146.472 623.664 152.797 628.358C158.131 631.216 160.221 630.907 160.627 624.998C160.691 620.038 159.56 612.454 158.216 610ZM157.085 623.312C156.573 624.475 155.859 625.062 154.44 624.678C146.749 622.608 139.101 612.678 139.08 604.592C139.08 603.067 138.824 601.339 140.392 600.379C142.12 599.312 143.837 600.678 145.085 601.478C151.539 605.584 156.723 610.331 157.523 618.747C157.672 620.315 157.736 621.83 157.085 623.312Z" fill="#ECF0F1"/>
<path d="M435.789 623.498C434.178 619.786 435.021 617.322 435.896 614.218C436.312 612.757 437.56 606.581 433.026 607.2C429.858 607.637 426.029 611.637 425.325 614.698C424.098 620.128 423.629 644.234 423.629 644.234C427.256 642.624 429.976 640.064 432.077 637.152C434.978 633.13 437.741 628 435.789 623.498ZM432.29 629.386C432.002 632.394 431.117 635.125 427.874 636.64C427.874 633.834 427.8 631.328 427.906 628.821C427.981 626.954 429.4 625.792 430.989 625.973C432.461 626.154 432.418 628.096 432.29 629.386ZM432.504 615.84C432.141 618.218 431.565 620.554 428.429 622.41C428.578 619.605 428.568 617.365 428.856 615.168C429.016 613.973 430.146 613.088 431.277 613.173C432.824 613.301 432.664 614.784 432.504 615.84Z" fill="#ECF0F1"/>
<path d="M395.48 641.93C392.579 642.004 392.835 644.628 392.707 645.706C392.685 645.93 391.565 662.804 391.107 663.508C390.531 664.362 389.987 665.77 388.653 665.258C387.565 664.852 387.875 663.54 387.928 662.591C388.131 658.783 388.461 654.986 388.611 651.178C388.653 650.036 389.464 647.295 387.437 647.572C384.472 648.042 384.099 650.25 384.035 652.66C383.683 657.716 382.627 662.74 383.181 667.839C383.459 670.495 384.269 673.791 387.757 671.796C389.112 671.028 390.968 669.066 391.427 666.772C396.131 667.583 394.947 663.86 395.181 661.706C395.736 656.564 395.981 651.38 396.195 646.196C396.259 644.788 397.037 643.124 395.48 641.93Z" fill="#ECF0F1"/>
<path d="M195.319 641.825C193.975 638.284 192.599 634.742 191.191 631.222C190.828 630.305 190.263 629.345 189.143 629.302C187.82 629.249 187.788 630.486 187.479 631.372L181.441 648.897C181.697 650.284 183.5 651.628 185.26 649.772C185.836 648.353 188.983 639.468 190.348 635.34L195.436 649.228C192.407 649.228 189.271 645.142 188.343 646.316C186.583 648.534 192.215 652.705 195.34 654.764C197.121 655.937 198.732 659.702 199.255 661.27C199.777 662.796 201.313 665.142 203.543 663.446C200.812 656.236 198.081 649.036 195.319 641.825Z" fill="#ECF0F1"/>
<path d="M405.855 633.84C399.871 637.946 399.647 642.224 401.717 642.522C402.538 641.754 403.295 640.933 404.17 640.25C405.002 639.6 406.047 638.202 406.965 639.216C407.85 640.186 407.818 641.882 406.655 643.056C405.962 643.76 405.151 644.346 404.447 645.029C400.778 648.57 399.263 653.029 399.114 658C399.082 659.258 399.178 660.741 400.639 661.178C401.802 661.53 402.933 660.72 403.519 659.802C405.077 657.349 407.039 655.536 409.919 654.832C410.261 648.016 410.943 643.066 410.943 634.405C410.933 631.717 407.925 632.421 405.855 633.84ZM404.309 654.65C403.797 655.002 403.093 654.832 402.997 654.202C402.517 651.28 404.309 649.445 406.794 647.653C406.783 647.568 407.157 647.888 406.794 647.653C407.135 650.405 406.826 652.933 404.309 654.65Z" fill="#ECF0F1"/>
</g>
<defs>
<filter id="filter0_d_5075_6078" x="0" y="315" width="620" height="610" filterUnits="userSpaceOnUse" color-interpolation-filters="sRGB">
<feFlood flood-opacity="0" result="BackgroundImageFix"/>
<feColorMatrix in="SourceAlpha" type="matrix" values="0 0 0 0 0 0 0 0 0 0 0 0 0 0 0 0 0 0 127 0" result="hardAlpha"/>
<feOffset dx="20" dy="-10"/>
<feColorMatrix type="matrix" values="0 0 0 0 0 0 0 0 0 0 0 0 0 0 0 0 0 0 0.4 0"/>
<feBlend mode="normal" in2="BackgroundImageFix" result="effect1_dropShadow_5075_6078"/>
<feBlend mode="normal" in="SourceGraphic" in2="effect1_dropShadow_5075_6078" result="shape"/>
</filter>
<linearGradient id="paint0_linear_5075_6078" x1="882.603" y1="646.25" x2="1162.11" y2="1166.18" gradientUnits="userSpaceOnUse">
<stop stop-color="#9A9A9A"/>
<stop offset="0.5" stop-color="#CCCCCC"/>
<stop offset="1" stop-color="#DCDCDC"/>
</linearGradient>
<linearGradient id="paint1_linear_5075_6078" x1="869.285" y1="-297.06" x2="517.28" y2="-286.277" gradientUnits="userSpaceOnUse">
<stop stop-color="#DCDCDC"/>
<stop offset="0.51" stop-color="#CCCCCC"/>
<stop offset="1" stop-color="#9A9A9A"/>
</linearGradient>
<linearGradient id="paint2_linear_5075_6078" x1="876.614" y1="590.834" x2="749.093" y2="859.282" gradientUnits="userSpaceOnUse">
<stop stop-color="#9A9A9A"/>
<stop offset="0.5" stop-color="#CCCCCC"/>
<stop offset="1" stop-color="#DCDCDC"/>
</linearGradient>
<linearGradient id="paint3_linear_5075_6078" x1="465.012" y1="839.582" x2="499.091" y2="779.921" gradientUnits="userSpaceOnUse">
<stop stop-color="#9A9A9A"/>
<stop offset="0.49" stop-color="#CCCCCC"/>
<stop offset="1" stop-color="#DCDCDC"/>
</linearGradient>
<linearGradient id="paint4_linear_5075_6078" x1="606.13" y1="742.619" x2="582.144" y2="743.29" gradientUnits="userSpaceOnUse">
<stop stop-color="#80B3E6"/>
<stop offset="0.5" stop-color="#4F82B5"/>
<stop offset="1" stop-color="#1A4D80"/>
</linearGradient>
<linearGradient id="paint5_linear_5075_6078" x1="634.997" y1="725.951" x2="611.011" y2="726.622" gradientUnits="userSpaceOnUse">
<stop stop-color="#80B3E6"/>
<stop offset="0.5" stop-color="#4F82B5"/>
<stop offset="1" stop-color="#1A4D80"/>
</linearGradient>
<linearGradient id="paint6_linear_5075_6078" x1="663.864" y1="709.283" x2="639.878" y2="709.954" gradientUnits="userSpaceOnUse">
<stop stop-color="#80B3E6"/>
<stop offset="0.5" stop-color="#4F82B5"/>
<stop offset="1" stop-color="#1A4D80"/>
</linearGradient>
<linearGradient id="paint7_linear_5075_6078" x1="934.391" y1="553.098" x2="642.319" y2="689.242" gradientUnits="userSpaceOnUse">
<stop stop-color="#80B3E6"/>
<stop offset="0.5" stop-color="#4F82B5"/>
<stop offset="1" stop-color="#1A4D80"/>
</linearGradient>
<linearGradient id="paint8_linear_5075_6078" x1="856.76" y1="411.806" x2="600.084" y2="816.901" gradientUnits="userSpaceOnUse">
<stop stop-color="#80B3E6"/>
<stop offset="0.5" stop-color="#4F82B5"/>
<stop offset="1" stop-color="#1A4D80"/>
</linearGradient>
<linearGradient id="paint9_linear_5075_6078" x1="886.386" y1="735.442" x2="648.976" y2="1220.32" gradientUnits="userSpaceOnUse">
<stop stop-color="#80B3E6"/>
<stop offset="0.5" stop-color="#4F82B5"/>
<stop offset="1" stop-color="#1A4D80"/>
</linearGradient>
<linearGradient id="paint10_linear_5075_6078" x1="1050.06" y1="19.6495" x2="417.947" y2="88.2206" gradientUnits="userSpaceOnUse">
<stop stop-color="#80B3E6"/>
<stop offset="0.5" stop-color="#4F82B5"/>
<stop offset="1" stop-color="#1A4D80"/>
</linearGradient>
<linearGradient id="paint11_linear_5075_6078" x1="886.386" y1="593.775" x2="648.976" y2="1078.65" gradientUnits="userSpaceOnUse">
<stop stop-color="#80B3E6"/>
<stop offset="0.5" stop-color="#4F82B5"/>
<stop offset="1" stop-color="#1A4D80"/>
</linearGradient>
<linearGradient id="paint12_linear_5075_6078" x1="1050.06" y1="-122.018" x2="417.947" y2="-53.4474" gradientUnits="userSpaceOnUse">
<stop stop-color="#80B3E6"/>
<stop offset="0.5" stop-color="#4F82B5"/>
<stop offset="1" stop-color="#1A4D80"/>
</linearGradient>
<linearGradient id="paint13_linear_5075_6078" x1="856.76" y1="270.138" x2="600.084" y2="675.233" gradientUnits="userSpaceOnUse">
<stop stop-color="#80B3E6"/>
<stop offset="0.5" stop-color="#4F82B5"/>
<stop offset="1" stop-color="#1A4D80"/>
</linearGradient>
</defs>
</svg>
