<svg width="1000" height="1000" viewBox="0 0 1000 1000" fill="none" xmlns="http://www.w3.org/2000/svg">
<path d="M500.44 0C500.265 0 500.09 0 499.907 0C499.79 0 499.674 0 499.557 0C487.874 0 476.107 2.45831 465.049 7.48327C452.482 13.1999 441.816 21.8082 433.691 32.2997C426.774 39.608 421.183 46.4329 416.716 52.9912C413.774 57.3079 404.775 70.5077 393.575 106.282C388.5 122.474 381.841 147.24 378.917 173.24C376.667 193.298 375.416 212.99 374.658 232.34C370.941 232.923 366.883 233.706 362.667 234.748C350.383 237.773 339.217 242.415 329.459 248.531C320.1 254.406 311.967 261.648 305.284 270.073C295.567 282.323 289.125 296.914 286.675 312.256C285.125 321.922 282.167 350.63 280.4 381.714L253.043 400.588L205.91 431.096C205.226 431.538 204.56 431.988 203.893 432.446L136.552 478.871C128.077 484.613 119.019 490.871 108.919 497.854C108.602 498.071 108.294 498.288 107.977 498.512C87.0772 512.971 65.519 527.862 46.9442 539.421C26.6777 552.037 12.7944 572.737 8.81114 596.278L1.1695 641.511C-2.85546 665.344 3.66951 689.603 18.7944 708.111C21.9777 712.419 26.6027 718.002 33.1776 723.594C48.9858 737.027 69.1106 744.419 89.8605 744.419C99.9937 744.419 110.11 742.677 119.944 739.252C146.843 729.902 174.876 719.152 208.159 705.444C264.851 682.069 312.275 665.686 357.408 653.878C362.3 652.595 367.125 651.445 371.883 650.42C371.841 654.253 371.8 658.103 371.75 661.986C371.533 680.594 371.308 699.819 371.716 719.436C372.041 735.252 374.558 749.594 377.475 762.227C355.225 777.569 330.092 794.377 315.017 803.968C314.992 803.985 314.967 804.002 314.942 804.018L311.675 806.102L308.267 808.277C286.776 821.985 270.626 844.443 262.809 871.501C255.284 897.543 256.576 924.009 266.401 946.459C276.834 970.809 298.159 989.225 324.742 996.45C333.417 998.808 342.6 1000 352.025 1000C353.808 1000 355.592 999.958 357.325 999.867C361.933 999.633 366.508 999.017 371.008 998.025L438.624 983.159C447.683 981.167 460.241 978.575 471.982 976.35C480.857 979.467 490.199 981.059 499.599 981.059C499.732 981.059 499.874 981.059 500.015 981.059C500.14 981.059 500.265 981.059 500.39 981.059C509.782 981.059 519.132 979.467 528.023 976.35C539.757 978.575 552.307 981.167 561.348 983.159L628.989 998.033C633.489 999.025 638.064 999.642 642.672 999.867C644.406 999.958 646.197 1000 647.981 1000C657.414 1000 666.589 998.808 675.264 996.45C701.839 989.233 723.163 970.817 733.597 946.467C743.422 924.017 744.713 897.543 737.188 871.501C729.372 844.46 713.239 822.01 691.739 808.285L688.33 806.11L685.064 804.027C685.064 804.027 685.005 803.993 684.98 803.968C669.905 794.368 644.781 777.569 622.523 762.227C625.439 749.585 627.956 735.252 628.281 719.427C628.689 699.811 628.464 680.586 628.248 661.995C628.198 658.103 628.156 654.245 628.114 650.411C632.881 651.436 637.706 652.586 642.597 653.87C687.722 665.678 735.147 682.061 791.83 705.427C825.129 719.144 853.187 729.902 880.154 739.277C880.17 739.277 880.179 739.286 880.196 739.294C889.979 742.694 900.054 744.41 910.129 744.41C930.82 744.41 950.912 737.044 966.703 723.677C973.328 718.061 977.986 712.452 981.178 708.136C996.311 689.628 1002.86 665.361 998.828 641.503L991.186 596.27C987.211 572.729 973.32 552.029 953.053 539.412C934.478 527.854 911.987 512.312 892.012 498.496C891.704 498.279 891.396 498.054 891.079 497.837L890.662 497.546C881.071 490.913 872.012 484.646 863.421 478.838L796.113 432.438C795.446 431.98 794.771 431.53 794.088 431.088L746.955 400.58L719.597 381.705C717.83 350.547 714.855 321.806 713.297 312.156C710.83 296.848 704.405 282.298 694.705 270.073C688.022 261.648 679.889 254.406 670.531 248.531C660.772 242.415 649.606 237.773 637.322 234.748C633.106 233.706 629.048 232.931 625.331 232.34C624.573 212.998 623.323 193.315 621.081 173.265C618.164 147.249 611.506 122.474 606.431 106.282C595.264 70.6244 586.273 57.3829 583.29 52.9996C578.823 46.4413 573.223 39.608 566.306 32.2997C557.623 21.0832 546.04 12.0332 532.365 6.36661C522.04 2.08332 511.199 0 500.449 0H500.44Z" fill="black"/>
<path d="M500.422 66.7077C500.28 66.7077 500.13 66.7077 499.989 66.7077C499.847 66.7077 499.705 66.7077 499.564 66.7077C497.23 66.7077 494.88 67.1993 492.672 68.1993C489.439 69.666 486.83 72.091 485.13 75.0493C480.597 79.6409 475.339 85.3825 471.814 90.5575C465.897 99.2407 459.122 120.066 457.189 126.249C451.256 145.199 446.981 164.549 445.164 180.732C441.156 216.498 440.589 252.431 440.047 287.189C439.956 293.206 439.872 298.622 439.764 304.056C439.656 310.064 439.781 315.997 439.906 321.731L439.922 322.339C439.972 324.389 440.014 326.422 440.047 328.43C439.231 324.322 438.547 321.164 438.064 319.247C436.014 311.031 427.956 297.231 396.989 297.231C395.589 297.231 394.623 297.264 394.298 297.281C393.173 297.322 386.139 297.664 378.623 299.522C358.348 304.522 353.556 316.272 352.506 322.831C350.873 333.014 346.373 379.13 345.723 417.68L290.099 456.063L242.141 487.104C242.007 487.196 241.874 487.279 241.732 487.371L174.166 533.945C165.891 539.545 156.891 545.762 146.833 552.72C146.691 552.82 146.558 552.912 146.425 553.012C125.7 567.345 102.275 583.545 82.1754 596.053C78.1254 598.578 75.3421 602.72 74.5504 607.428L66.9005 652.661C66.0255 657.844 67.6505 663.128 71.2588 666.928C71.3588 667.061 71.5005 667.269 71.6005 667.411C73.4254 670.028 78.9004 677.786 89.8586 677.786C92.492 677.786 95.2169 677.303 97.9669 676.336C123.658 667.403 150.608 657.069 182.758 643.828C242.282 619.286 292.415 601.995 340.532 589.403C371.19 581.387 399.956 577.487 428.473 577.487C431.347 577.487 434.247 577.528 437.131 577.612C439.089 605.845 438.747 634.761 438.414 662.803C438.206 680.869 437.989 699.544 438.372 718.077C438.697 733.677 442.547 748.335 446.281 762.51C448.381 770.477 450.356 778.002 451.631 785.377C452.281 789.143 452.022 790.477 451.931 790.793C451.856 791.043 451.297 791.668 450.231 792.452C425.489 810.701 375.623 844.459 350.823 860.243L347.656 862.259L344.132 864.509C333.565 871.251 328.773 883.392 326.848 890.034C324.965 896.567 322.598 909.059 327.615 920.109C329.682 925 335.615 933.367 352.006 933.367C352.665 933.367 353.315 933.35 353.931 933.317C354.856 933.267 355.773 933.15 356.673 932.95L424.289 918.084C424.698 917.992 461.706 909.876 484.78 906.559C485.664 907.609 486.639 908.576 487.697 909.451C488.314 910.084 488.989 910.667 489.714 911.192C492.605 913.317 496.072 914.426 499.58 914.426C499.714 914.426 499.847 914.426 499.98 914.426C500.113 914.426 500.247 914.426 500.38 914.426C503.738 914.426 507.072 913.409 509.905 911.434C510.755 910.842 511.547 910.176 512.263 909.442C513.322 908.567 514.297 907.601 515.188 906.551C538.247 909.859 575.263 917.984 575.671 918.076L643.287 932.942C644.187 933.142 645.104 933.267 646.029 933.309C646.654 933.342 647.296 933.359 647.954 933.359C664.379 933.359 670.304 924.967 672.362 920.076C674.637 915.017 677.412 904.876 673.12 890.026C671.204 883.384 666.404 871.234 655.829 864.493L652.312 862.251L649.154 860.243C624.346 844.443 574.48 810.685 549.738 792.443C548.68 791.66 548.113 791.035 548.038 790.777C547.946 790.46 547.68 789.118 548.33 785.352C549.605 777.985 551.588 770.46 553.68 762.494C557.413 748.319 561.263 733.66 561.588 718.061C561.971 699.527 561.755 680.852 561.546 662.786C561.213 634.786 560.871 605.92 562.838 577.595C565.721 577.512 568.613 577.47 571.496 577.47C600.013 577.47 628.779 581.37 659.437 589.387C707.545 601.978 757.678 619.27 817.203 643.811C849.311 657.036 876.252 667.369 902.018 676.328C904.76 677.278 907.477 677.761 910.102 677.761C921.068 677.761 926.552 669.961 928.36 667.394L928.393 667.344C928.493 667.203 928.618 667.028 928.71 666.903C932.327 663.103 933.951 657.819 933.077 652.636L925.435 607.403C924.643 602.695 921.86 598.553 917.81 596.028C897.71 583.52 874.285 567.32 853.561 552.987C853.427 552.887 853.286 552.787 853.152 552.695L852.661 552.362C843.152 545.787 834.169 539.579 825.811 533.92L758.253 487.346C758.12 487.254 757.986 487.162 757.845 487.079L709.887 456.038L654.262 417.655C653.612 378.997 649.096 332.922 647.462 322.781C646.412 316.239 641.629 304.489 621.346 299.489C613.804 297.631 606.746 297.289 605.663 297.247C605.329 297.231 604.363 297.197 602.979 297.197C572.021 297.197 563.955 310.997 561.905 319.222C561.421 321.156 560.738 324.314 559.93 328.405C559.963 326.397 560.013 324.372 560.055 322.322C560.188 316.372 560.33 310.222 560.205 304.006C560.105 298.489 560.013 292.964 559.93 287.431V287.147C559.38 252.389 558.821 216.456 554.813 180.698C550.83 145.224 536.13 102.199 528.155 90.5158C524.63 85.3409 519.372 79.5992 514.838 75.0076C513.038 71.891 510.247 69.3743 506.78 67.9327C504.722 67.0827 502.555 66.666 500.405 66.666L500.422 66.7077Z" fill="#FEFEFE"/>
<path d="M499.977 897.566C500.118 897.619 500.26 897.672 500.401 897.725V897.381C501.328 896.93 502.149 896.259 502.767 895.377C503.438 894.423 504.1 893.461 504.762 892.499C506.121 890.513 507.384 888.765 510.562 889.118C533.444 891.678 579.269 901.768 579.269 901.768L646.882 916.634C649.883 916.784 656.125 916.351 657.069 913.447C661.633 903.975 656.054 884.36 646.891 878.516C644.693 877.112 642.459 875.691 640.217 874.261C614.263 857.736 564.094 823.688 539.879 805.829C531.378 799.562 530.257 792.279 531.943 782.498C533.338 774.43 535.465 766.343 537.602 758.231C541.133 744.804 544.682 731.307 544.964 717.694C545.344 699.457 545.132 681.21 544.92 662.963C544.549 631.555 544.187 600.137 546.836 568.746C547.33 563.043 548.751 561.543 554.631 561.234C591.716 559.265 627.955 563.9 663.69 573.248C718.467 587.584 771.426 606.881 823.59 628.385C851.292 639.799 879.197 650.719 907.525 660.571C911.772 662.045 913.149 660.077 914.755 657.79C915.32 656.987 915.912 656.139 916.662 655.398L909.017 610.165C888.466 597.374 865.16 581.255 843.682 566.398V566.389C834.095 559.759 824.87 553.377 816.422 547.666L748.809 501.056L700.644 469.886L637.692 426.445C637.674 386.209 632.537 334.788 631.027 325.422C629.323 314.767 605.011 313.893 605.011 313.893C605.011 313.893 580.708 312.772 578.095 323.25C576.577 329.359 571.871 353.749 567.872 381.186L561.755 377.284L547.542 366.823C545.317 365.375 545.202 363.424 545.088 361.421C545.052 360.794 545.008 360.158 544.911 359.531C542.854 347.023 543.128 334.479 543.41 321.943C543.543 316.073 543.675 310.194 543.56 304.332C543.454 298.692 543.366 293.051 543.278 287.41C542.731 252.435 542.174 217.433 538.264 182.555C534.371 147.854 519.813 107.838 514.402 99.9024C510.765 94.5617 504.276 87.9234 500.418 84.154V83.333C500.286 83.4654 500.145 83.5978 499.995 83.7391C499.845 83.5978 499.712 83.4566 499.571 83.333V84.154C495.713 87.9234 489.225 94.5617 485.588 99.9024C480.185 107.83 465.628 147.854 461.726 182.555C457.815 217.425 457.259 252.426 456.712 287.41C456.623 293.051 456.535 298.692 456.429 304.332C456.323 310.203 456.456 316.073 456.579 321.943C456.862 334.488 457.144 347.032 455.078 359.531C454.972 360.158 454.937 360.794 454.902 361.421C454.778 363.424 454.664 365.375 452.448 366.823L438.235 377.284L432.117 381.186C428.118 353.749 423.422 329.359 421.894 323.25C419.281 312.772 394.978 313.893 394.978 313.893C394.978 313.893 370.666 314.767 368.962 325.422C367.462 334.788 362.324 386.209 362.306 426.445L299.354 469.886L251.189 501.056L183.577 547.666C175.128 553.386 165.903 559.759 156.316 566.389V566.398C134.838 581.255 111.532 597.374 90.9809 610.165L83.3359 655.398C84.0863 656.148 84.6778 656.987 85.2428 657.79C86.8406 660.077 88.2266 662.054 92.4728 660.571C120.81 650.719 148.706 639.799 176.408 628.385C228.572 606.881 281.531 587.584 336.308 573.248C372.043 563.9 408.282 559.265 445.368 561.234C451.247 561.543 452.668 563.043 453.163 568.746C455.82 600.137 455.449 631.555 455.078 662.963C454.867 681.21 454.655 699.457 455.034 717.694C455.317 731.307 458.866 744.804 462.397 758.231C464.533 766.343 466.661 774.43 468.055 782.498C469.75 792.279 468.629 799.562 460.119 805.829C435.904 823.688 385.735 857.736 359.781 874.261C357.539 875.691 355.306 877.112 353.107 878.516C343.944 884.36 338.365 903.975 342.929 913.447C343.873 916.351 350.115 916.784 353.116 916.634L420.729 901.768C420.729 901.768 466.546 891.687 489.437 889.118C492.615 888.765 493.877 890.513 495.236 892.499C495.89 893.461 496.561 894.414 497.232 895.377C497.85 896.259 498.671 896.93 499.597 897.381V897.725C499.739 897.681 499.88 897.628 500.021 897.566H499.977Z" fill="#FF0000"/>
</svg>
