<svg width="128" height="128" viewBox="0 0 128 128" fill="none" xmlns="http://www.w3.org/2000/svg">
<g clip-path="url(#clip0_4935_25332)">
<path d="M0 0H128V128H0V0Z" fill="white"/>
<path d="M2.89999 106.7C27.3 94.2 27.8 94.2 58 89C66.8 83.8 107.4 99.4 125.6 104.6V125.4H1.79999L2.59999 106.7H2.89999Z" fill="#A6D3FC"/>
<path d="M0 0H128V128H0V0ZM125.4 104.6C124.4 104.6 120.2 105.6 117.1 107.7C117.1 109.8 117.1 110.8 116.1 112.4C111.9 97.8 97.9 94.2 87.5 101.5L89.1 96.8C68.3 81.2 47.5 90.6 36.5 104.1C36.5 104.1 36 101.5 39.1 96.8C32.3 93.7 20.4 98.4 17.2 102.5L21.4 106.1C15.2 103.5 7.4 105.6 2.7 107.1V125.3H125.5V105V104.6H125.4ZM43.7 55.7H84.8V89L87.9 91.1H105.1V53.1C105.1 39.1 91.1 34.9 84.3 34.9H23.4V91.1H43.7V55.7ZM74.4 85.9V66.1H54.1V85.9C59.3 84.3 67.6 83.8 74.4 85.4V85.9Z" fill="#0080F5"/>
</g>
<defs>
<clipPath id="clip0_4935_25332">
<rect width="128" height="128" fill="white"/>
</clipPath>
</defs>
</svg>
