<svg width="152" height="152" viewBox="0 0 152 152" fill="none" xmlns="http://www.w3.org/2000/svg">
<path d="M141.763 118.604C140.881 117.793 132.186 118.354 132.186 118.354L132.087 109.153L127.834 104.291L117.752 104.126L117.742 104.112C117.7 104.249 117.737 93.9917 117.737 93.9917L113.032 90.582C113.032 90.582 103.879 90.3131 103.804 90.2425L103.068 80.839L94.5946 70.8083C97.5228 64.489 99.211 57.467 99.211 50.0392C99.211 22.7104 77.0386 0.554688 49.6894 0.554688C22.3252 0.549299 0.152794 22.705 0.152794 50.0338C0.152794 77.3673 22.3252 99.5274 49.6792 99.5274C57.2663 99.5274 64.4294 97.7684 70.8563 94.7171L127.183 151.388C127.183 151.388 151.029 151.454 151.029 151.445L151.066 127.375C151.066 127.375 147.322 123.725 141.763 118.604ZM40.2298 52.4863C33.7463 52.4863 28.4929 47.1996 28.4929 40.6777C28.4929 34.1558 33.7457 28.8642 40.2298 28.8642C46.7139 28.8642 51.9715 34.1553 51.9715 40.6777C51.9715 47.2002 46.7133 52.4863 40.2298 52.4863Z" fill="url(#paint0_linear_1880_3341)"/>
<path d="M40.2395 24.1328C31.1247 24.1328 23.7353 31.5229 23.7353 40.6386C23.7353 49.7543 31.1247 57.1444 40.2395 57.1444C49.3591 57.1444 56.7436 49.7543 56.7436 40.6386C56.7436 31.5229 49.3591 24.1328 40.2395 24.1328ZM40.2395 47.7129C36.3349 47.7129 33.1664 44.5435 33.1664 40.6391C33.1664 36.7299 36.3355 33.5654 40.2395 33.5654C44.144 33.5654 47.3125 36.7299 47.3125 40.6391C47.3125 44.5435 44.144 47.7129 40.2395 47.7129Z" fill="#B39002"/>
<path d="M82.1879 87.3125C77.6847 91.2363 72.474 94.3345 66.7637 96.4427L122.76 151.463H146.337L82.1879 87.3125Z" fill="#B39002"/>
<defs>
<linearGradient id="paint0_linear_1880_3341" x1="75.6096" y1="0.554688" x2="75.6096" y2="151.446" gradientUnits="userSpaceOnUse">
<stop stop-color="#FFDB4C"/>
<stop offset="1" stop-color="#FFCD02"/>
</linearGradient>
</defs>
</svg>
