<svg width="152" height="152" viewBox="0 0 152 152" fill="none" xmlns="http://www.w3.org/2000/svg">
<path d="M104.562 144.277H47.9686L57.3777 110.788L95.1392 110.773L104.562 144.277Z" fill="#AAB2BC"/>
<path d="M10.2429 115.539C7.64531 115.539 5.52438 113.392 5.52438 110.747V19.7453C5.52438 17.1 7.64531 14.9531 10.2429 14.9531H142.297C144.894 14.9531 147.008 17.1 147.008 19.7453V110.747C147.008 113.392 144.894 115.539 142.297 115.539H10.2429Z" fill="url(#paint0_linear_1880_3424)"/>
<path d="M142.296 10.1641H10.2425C5.03373 10.1641 0.812653 14.4578 0.812653 19.7485V110.75C0.812653 116.048 5.03373 120.335 10.2425 120.335H142.296C147.505 120.335 151.726 116.048 151.726 110.75V19.7485C151.726 14.4578 147.505 10.1641 142.296 10.1641ZM142.296 110.75H10.2425V19.7485H142.296V110.75Z" fill="#CCD1D9"/>
<path d="M144.668 101.18H7.85449V115.128H144.668V101.18Z" fill="#CCD1D9"/>
<path d="M80.9834 110.754C80.9834 113.406 78.8696 115.546 76.2649 115.546C73.6603 115.546 71.5535 113.406 71.5535 110.754C71.5535 108.108 73.6608 105.969 76.2649 105.969C78.8691 105.969 80.9834 108.108 80.9834 110.754Z" fill="#434A54"/>
<path d="M104.563 134.703H47.9697C45.365 134.703 43.2582 136.843 43.2582 139.488C43.2582 142.14 45.3655 144.28 47.9697 144.28H104.563C107.168 144.28 109.282 142.14 109.282 139.488C109.282 136.843 107.168 134.703 104.563 134.703Z" fill="url(#paint1_linear_1880_3424)"/>
<g filter="url(#filter0_d_1880_3424)">
<path d="M31.3981 76.3748C30.5433 76.3748 29.7095 76.1093 29.0121 75.6149C28.3147 75.1206 27.788 74.4218 27.5049 73.6152C27.2218 72.8086 27.1962 71.934 27.4317 71.1122C27.6671 70.2904 28.152 69.5621 28.8193 69.0278L45.4242 55.7444L28.8193 42.461C28.396 42.1223 28.0435 41.7036 27.782 41.2287C27.5206 40.7539 27.3551 40.2321 27.2953 39.6933C27.2354 39.1546 27.2823 38.6092 27.4331 38.0886C27.584 37.5679 27.836 37.082 28.1746 36.6587C28.5133 36.2354 28.932 35.8829 29.4069 35.6214C29.8817 35.3599 30.4035 35.1945 30.9423 35.1346C31.4811 35.0748 32.0264 35.1216 32.5471 35.2725C33.0677 35.4234 33.5536 35.6753 33.9769 36.014L54.6074 52.5183C55.0911 52.9048 55.4817 53.3953 55.7501 53.9533C56.0185 54.5113 56.1579 55.1226 56.1579 55.7418C56.1579 56.361 56.0185 56.9723 55.7501 57.5303C55.4817 58.0883 55.0911 58.5788 54.6074 58.9653L33.9769 75.4696C33.2451 76.0556 32.3356 76.3748 31.3981 76.3748ZM72.659 76.3748H56.1546C55.0603 76.3748 54.0108 75.9401 53.2371 75.1663C52.4633 74.3925 52.0286 73.343 52.0286 72.2487C52.0286 71.1544 52.4633 70.1049 53.2371 69.3311C54.0108 68.5574 55.0603 68.1226 56.1546 68.1226H72.659C73.7533 68.1226 74.8028 68.5574 75.5766 69.3311C76.3503 70.1049 76.7851 71.1544 76.7851 72.2487C76.7851 73.343 76.3503 74.3925 75.5766 75.1663C74.8028 75.9401 73.7533 76.3748 72.659 76.3748Z" fill="url(#paint2_linear_1880_3424)"/>
</g>
<defs>
<filter id="filter0_d_1880_3424" x="25.4759" y="35.1094" width="53.1033" height="45.751" filterUnits="userSpaceOnUse" color-interpolation-filters="sRGB">
<feFlood flood-opacity="0" result="BackgroundImageFix"/>
<feColorMatrix in="SourceAlpha" type="matrix" values="0 0 0 0 0 0 0 0 0 0 0 0 0 0 0 0 0 0 127 0" result="hardAlpha"/>
<feOffset dy="2.69122"/>
<feGaussianBlur stdDeviation="0.897075"/>
<feComposite in2="hardAlpha" operator="out"/>
<feColorMatrix type="matrix" values="0 0 0 0 0 0 0 0 0 0 0 0 0 0 0 0 0 0 0.5 0"/>
<feBlend mode="normal" in2="BackgroundImageFix" result="effect1_dropShadow_1880_3424"/>
<feBlend mode="normal" in="SourceGraphic" in2="effect1_dropShadow_1880_3424" result="shape"/>
</filter>
<linearGradient id="paint0_linear_1880_3424" x1="135.15" y1="15.0746" x2="63.8853" y2="103.284" gradientUnits="userSpaceOnUse">
<stop stop-color="#585656"/>
<stop offset="1"/>
</linearGradient>
<linearGradient id="paint1_linear_1880_3424" x1="76.2699" y1="134.703" x2="76.2699" y2="144.28" gradientUnits="userSpaceOnUse">
<stop stop-color="#D3D7DD"/>
<stop offset="1" stop-color="#888C90"/>
</linearGradient>
<linearGradient id="paint2_linear_1880_3424" x1="52.0275" y1="35.1094" x2="52.0275" y2="76.3748" gradientUnits="userSpaceOnUse">
<stop stop-color="#67FF81"/>
<stop offset="1" stop-color="#01B41F"/>
</linearGradient>
</defs>
</svg>
