<svg width="152" height="152" viewBox="0 0 152 152" fill="none" xmlns="http://www.w3.org/2000/svg">
<g clip-path="url(#clip0_1880_3169)">
<path d="M146.636 119.504L108.158 97.3498C104.424 95.2001 99.713 95.8235 96.6668 98.8695L89.0878 106.448C86.1668 109.37 81.5156 109.635 78.2969 107.045C72.3547 102.264 66.4154 96.9436 60.6091 91.1373C54.8028 85.3309 49.4822 79.3917 44.701 73.4495C42.111 70.2308 42.3766 65.5796 45.2979 62.6586L52.8769 55.0796C55.9231 52.0334 56.5462 47.3223 54.3966 43.589L32.2424 5.11052C29.1142 -0.322653 21.6817 -1.30565 17.2486 3.12743L5.82817 14.5476C-9.05477 29.4305 8.28876 70.9037 44.5654 107.18C80.8421 143.457 122.315 160.801 137.198 145.918L148.618 134.497C153.052 130.064 152.069 122.632 146.636 119.504Z" fill="url(#paint0_linear_1880_3169)"/>
<path d="M14.0348 6.34834L46.0352 61.9281L52.8761 55.0872C55.9223 52.0409 56.5452 47.3298 54.3955 43.5962L32.2416 5.11833C29.1134 -0.314841 21.6809 -1.29784 17.2479 3.13524L14.0348 6.34834Z" fill="#02B520"/>
<path d="M145.405 137.718L148.618 134.505C153.051 130.071 152.068 122.639 146.635 119.511L108.157 97.3569C104.424 95.2073 99.7122 95.8307 96.666 98.8767L89.6467 105.895L145.405 137.718Z" fill="#02B520"/>
<path d="M45.2969 62.6666L52.8762 55.0877C55.9225 52.0414 56.5453 47.3304 54.3956 43.5967L48.9469 34.1328C43.1871 39.1103 37.5936 43.9074 34.3215 47.1794C30.2074 51.2936 31.7195 57.5872 44.7004 73.4575C42.1107 70.2394 42.3759 65.5879 45.2969 62.6666Z" fill="#02B520"/>
<path d="M54.3965 43.5889L48.9477 34.125C44.2594 38.1764 39.7037 42.0933 36.398 45.1806L46.0358 61.9202L52.8768 55.0792C55.9233 52.0336 56.5461 47.3222 54.3965 43.5889Z" fill="#00A51C"/>
<path d="M146.636 119.509L141.071 116.305C135.938 122.169 120.16 139.983 115.146 143.123C112.221 144.954 107.333 146.964 102.047 146.989C117.421 152.794 130.227 152.894 137.199 145.923L148.619 134.502C153.052 130.069 152.069 122.637 146.636 119.509Z" fill="#02B520"/>
<path d="M146.636 119.509L141.071 116.305C138.795 118.904 134.428 123.852 129.834 128.828L145.406 137.716L148.619 134.502C153.052 130.069 152.069 122.637 146.636 119.509Z" fill="#1AC737"/>
</g>
<defs>
<linearGradient id="paint0_linear_1880_3169" x1="75.9533" y1="0.335938" x2="75.9533" y2="151.249" gradientUnits="userSpaceOnUse">
<stop stop-color="#67FF81"/>
<stop offset="1" stop-color="#08D82B"/>
</linearGradient>
<clipPath id="clip0_1880_3169">
<rect width="150.914" height="150.914" fill="white" transform="translate(0.496826 0.335938)"/>
</clipPath>
</defs>
</svg>
