<svg width="16" height="16" viewBox="0 0 16 16" fill="none" xmlns="http://www.w3.org/2000/svg">
<path fill-rule="evenodd" clip-rule="evenodd" d="M13.3333 6.52679H11.8593V5.72196C11.8593 3.66966 10.1458 2 8.03958 2C5.93336 2 4.21983 3.66966 4.21983 5.72196V6.52679H2.66663V14.0001H13.3333V6.52679ZM10.1309 5.72196V6.52679H5.94822V5.72196C5.94822 4.5983 6.88643 3.68415 8.03958 3.68415C9.19273 3.68415 10.1309 4.5983 10.1309 5.72196ZM5.43522 10.6717C5.5461 10.7797 5.70816 10.8462 5.86169 10.8462C6.01521 10.8462 6.16874 10.7797 6.27962 10.6717C6.3905 10.5637 6.45873 10.4141 6.45873 10.2645C6.45873 10.1066 6.3905 9.95696 6.27962 9.84892C6.16874 9.74919 6.01521 9.6827 5.86169 9.6827C5.69963 9.6827 5.5461 9.74088 5.43522 9.84892C5.33287 9.96527 5.26464 10.1149 5.26464 10.2645C5.26464 10.4141 5.32434 10.5637 5.43522 10.6717ZM8.59105 10.2645C8.59105 10.4141 8.52281 10.5637 8.41193 10.6717C8.30105 10.7797 8.14753 10.8462 7.994 10.8462C7.83194 10.8462 7.67842 10.7797 7.56754 10.6717C7.46519 10.5637 7.39695 10.4141 7.39695 10.2645C7.39695 10.1066 7.45666 9.95696 7.56754 9.84892C7.67842 9.74919 7.84047 9.6827 7.994 9.6827C8.14753 9.6827 8.30105 9.74088 8.41193 9.84892C8.52281 9.96527 8.59105 10.1149 8.59105 10.2645ZM10.7234 10.2645C10.7234 10.4141 10.6551 10.5637 10.5442 10.6717C10.4334 10.7797 10.2798 10.8462 10.1263 10.8462C9.96426 10.8462 9.81073 10.7797 9.69985 10.6717C9.5975 10.5637 9.52927 10.4141 9.52927 10.2645C9.52927 10.1066 9.58897 9.95696 9.69985 9.84892C9.81073 9.74919 9.97279 9.6827 10.1263 9.6827C10.2798 9.6827 10.4334 9.74088 10.5442 9.84892C10.6551 9.96527 10.7234 10.1149 10.7234 10.2645Z" fill="#F7F8FB" fill-opacity="0.64"/>
<path fill-rule="evenodd" clip-rule="evenodd" d="M13.3333 6.52679H11.8593V5.72196C11.8593 3.66966 10.1458 2 8.03958 2C5.93336 2 4.21983 3.66966 4.21983 5.72196V6.52679H2.66663V14.0001H13.3333V6.52679ZM10.1309 5.72196V6.52679H5.94822V5.72196C5.94822 4.5983 6.88643 3.68415 8.03958 3.68415C9.19273 3.68415 10.1309 4.5983 10.1309 5.72196ZM5.43522 10.6717C5.5461 10.7797 5.70816 10.8462 5.86169 10.8462C6.01521 10.8462 6.16874 10.7797 6.27962 10.6717C6.3905 10.5637 6.45873 10.4141 6.45873 10.2645C6.45873 10.1066 6.3905 9.95696 6.27962 9.84892C6.16874 9.74919 6.01521 9.6827 5.86169 9.6827C5.69963 9.6827 5.5461 9.74088 5.43522 9.84892C5.33287 9.96527 5.26464 10.1149 5.26464 10.2645C5.26464 10.4141 5.32434 10.5637 5.43522 10.6717ZM8.59105 10.2645C8.59105 10.4141 8.52281 10.5637 8.41193 10.6717C8.30105 10.7797 8.14753 10.8462 7.994 10.8462C7.83194 10.8462 7.67842 10.7797 7.56754 10.6717C7.46519 10.5637 7.39695 10.4141 7.39695 10.2645C7.39695 10.1066 7.45666 9.95696 7.56754 9.84892C7.67842 9.74919 7.84047 9.6827 7.994 9.6827C8.14753 9.6827 8.30105 9.74088 8.41193 9.84892C8.52281 9.96527 8.59105 10.1149 8.59105 10.2645ZM10.7234 10.2645C10.7234 10.4141 10.6551 10.5637 10.5442 10.6717C10.4334 10.7797 10.2798 10.8462 10.1263 10.8462C9.96426 10.8462 9.81073 10.7797 9.69985 10.6717C9.5975 10.5637 9.52927 10.4141 9.52927 10.2645C9.52927 10.1066 9.58897 9.95696 9.69985 9.84892C9.81073 9.74919 9.97279 9.6827 10.1263 9.6827C10.2798 9.6827 10.4334 9.74088 10.5442 9.84892C10.6551 9.96527 10.7234 10.1149 10.7234 10.2645Z" fill="url(#paint0_linear_5027_154217)" fill-opacity="0.08"/>
<defs>
<linearGradient id="paint0_linear_5027_154217" x1="7.99996" y1="2" x2="7.99996" y2="14.0001" gradientUnits="userSpaceOnUse">
<stop stop-opacity="0"/>
<stop offset="1"/>
</linearGradient>
</defs>
</svg>
