<svg width="16" height="16" viewBox="0 0 16 16" fill="none" xmlns="http://www.w3.org/2000/svg">
<path d="M2.49847 13.8694C2.66113 13.6063 2.90451 13.3976 3.19544 13.2718C3.48637 13.1461 3.8107 13.1093 4.12423 13.1666C5.60592 13.3214 7.10125 13.3128 8.5809 13.141C9.06699 13.0801 9.55923 13.076 10.0464 13.1302C10.8023 13.2129 11.5642 13.2474 12.3238 13.3094C12.5585 13.3253 12.7919 13.3568 13.0221 13.4036C13.2273 13.4321 13.392 13.5803 13.435 13.7745C13.4586 13.8784 13.4442 13.987 13.3941 14.0819C13.3441 14.1768 13.2614 14.2523 13.1601 14.2957C12.9587 14.4064 12.7325 14.4688 12.5008 14.4775C11.6846 14.4603 10.8691 14.3816 10.0527 14.3678C9.34639 14.3479 8.63962 14.3672 7.9356 14.4257C6.96129 14.5186 5.9802 14.5244 5.00483 14.443C4.46426 14.3975 3.9169 14.4267 3.37315 14.4174C3.03968 14.4611 2.70707 14.3321 2.49911 14.0788L2.49847 13.8694ZM13.4124 4.60659L13.4933 6.38144C13.5067 6.76432 13.494 7.14719 13.4552 7.52865C13.3373 8.32284 13.3373 9.12922 13.4552 9.92382C13.5061 10.2681 13.4948 10.6181 13.4223 10.9587C13.3871 11.4624 12.922 11.8372 12.3984 11.7846C11.8008 11.7532 11.2074 11.6703 10.6253 11.5368C10.2013 11.4115 9.84012 11.1421 9.60905 10.7791C9.3695 10.4511 9.14903 10.1105 8.9487 9.75909C8.6042 9.14404 8.17989 8.57322 7.68587 8.06021C7.39671 7.7263 7.1345 7.37178 6.90151 6.99973C6.85063 6.90731 6.79339 6.81835 6.72916 6.73364C6.54473 6.49904 6.15976 6.56912 6.0775 6.85145C6.03101 6.98452 6.00801 7.12408 6.00945 7.26439L5.96112 9.66525C5.95516 9.80439 5.92335 9.94141 5.86721 10.0699C5.78157 10.2232 5.7347 10.3936 5.73035 10.5675C5.72601 10.7413 5.76432 10.9137 5.84219 11.0708C5.87187 11.1269 5.88742 11.1888 5.88762 11.2516C5.88781 11.3144 5.87263 11.3765 5.84331 11.4327C5.81398 11.4889 5.77131 11.5377 5.71873 11.5752C5.66615 11.6128 5.60512 11.638 5.54053 11.6489C4.92152 11.8764 4.23255 11.8581 3.62775 11.5977C3.29831 11.4693 3.08505 11.1604 3.09077 10.8198C3.08293 10.2417 3.05982 9.66931 3.02612 9.09327C3.00677 8.91674 3.03137 8.73834 3.09788 8.57268C3.16439 8.40702 3.27093 8.25883 3.40876 8.14024C3.52875 8.0336 3.63135 7.91031 3.71297 7.77462C3.80306 7.65195 3.84901 7.50451 3.84389 7.35459C3.83876 7.20467 3.78284 7.06043 3.68456 6.94367C3.13911 6.25519 2.90073 5.38761 3.02167 4.53103C3.06406 3.95946 3.05092 3.38382 3.06194 2.81062C3.06194 2.67108 3.0524 2.53073 3.06618 2.3926C2.99496 2.01176 3.37336 1.69246 3.7613 1.80905C4.21629 1.80755 4.66722 1.72697 5.09217 1.5712C5.53311 1.3762 6.05291 1.5976 6.19728 2.04202C6.26618 2.18421 6.31875 2.33248 6.38001 2.47812C6.42301 2.60297 6.49486 2.71692 6.59023 2.81145C6.68559 2.90599 6.80199 2.97868 6.93076 3.0241C7.20386 3.12738 7.43258 3.31597 7.57988 3.55932L9.29106 5.92158C9.46616 6.16621 9.66845 6.39191 9.89439 6.59471C10.1382 6.80697 10.3408 6.74096 10.3805 6.41881C10.4568 5.91955 10.4808 5.41439 10.453 4.91066C10.4055 4.12906 10.4148 3.34543 10.4805 2.56505C10.3678 1.99226 10.9242 1.50681 11.5087 1.66727L12.112 1.70038C12.3977 1.68474 12.6794 1.7705 12.9033 1.94129C13.1272 2.11207 13.2775 2.3559 13.3257 2.62619C13.3878 2.84454 13.4242 3.06899 13.4342 3.29526C13.4505 3.73054 13.4393 4.16867 13.4393 4.60273L13.4124 4.60659Z" fill="white"/>
<path d="M2.49847 13.8694C2.66113 13.6063 2.90451 13.3976 3.19544 13.2718C3.48637 13.1461 3.8107 13.1093 4.12423 13.1666C5.60592 13.3214 7.10125 13.3128 8.5809 13.141C9.06699 13.0801 9.55923 13.076 10.0464 13.1302C10.8023 13.2129 11.5642 13.2474 12.3238 13.3094C12.5585 13.3253 12.7919 13.3568 13.0221 13.4036C13.2273 13.4321 13.392 13.5803 13.435 13.7745C13.4586 13.8784 13.4442 13.987 13.3941 14.0819C13.3441 14.1768 13.2614 14.2523 13.1601 14.2957C12.9587 14.4064 12.7325 14.4688 12.5008 14.4775C11.6846 14.4603 10.8691 14.3816 10.0527 14.3678C9.34639 14.3479 8.63962 14.3672 7.9356 14.4257C6.96129 14.5186 5.9802 14.5244 5.00483 14.443C4.46426 14.3975 3.9169 14.4267 3.37315 14.4174C3.03968 14.4611 2.70707 14.3321 2.49911 14.0788L2.49847 13.8694ZM13.4124 4.60659L13.4933 6.38144C13.5067 6.76432 13.494 7.14719 13.4552 7.52865C13.3373 8.32284 13.3373 9.12922 13.4552 9.92382C13.5061 10.2681 13.4948 10.6181 13.4223 10.9587C13.3871 11.4624 12.922 11.8372 12.3984 11.7846C11.8008 11.7532 11.2074 11.6703 10.6253 11.5368C10.2013 11.4115 9.84012 11.1421 9.60905 10.7791C9.3695 10.4511 9.14903 10.1105 8.9487 9.75909C8.6042 9.14404 8.17989 8.57322 7.68587 8.06021C7.39671 7.7263 7.1345 7.37178 6.90151 6.99973C6.85063 6.90731 6.79339 6.81835 6.72916 6.73364C6.54473 6.49904 6.15976 6.56912 6.0775 6.85145C6.03101 6.98452 6.00801 7.12408 6.00945 7.26439L5.96112 9.66525C5.95516 9.80439 5.92335 9.94141 5.86721 10.0699C5.78157 10.2232 5.7347 10.3936 5.73035 10.5675C5.72601 10.7413 5.76432 10.9137 5.84219 11.0708C5.87187 11.1269 5.88742 11.1888 5.88762 11.2516C5.88781 11.3144 5.87263 11.3765 5.84331 11.4327C5.81398 11.4889 5.77131 11.5377 5.71873 11.5752C5.66615 11.6128 5.60512 11.638 5.54053 11.6489C4.92152 11.8764 4.23255 11.8581 3.62775 11.5977C3.29831 11.4693 3.08505 11.1604 3.09077 10.8198C3.08293 10.2417 3.05982 9.66931 3.02612 9.09327C3.00677 8.91674 3.03137 8.73834 3.09788 8.57268C3.16439 8.40702 3.27093 8.25883 3.40876 8.14024C3.52875 8.0336 3.63135 7.91031 3.71297 7.77462C3.80306 7.65195 3.84901 7.50451 3.84389 7.35459C3.83876 7.20467 3.78284 7.06043 3.68456 6.94367C3.13911 6.25519 2.90073 5.38761 3.02167 4.53103C3.06406 3.95946 3.05092 3.38382 3.06194 2.81062C3.06194 2.67108 3.0524 2.53073 3.06618 2.3926C2.99496 2.01176 3.37336 1.69246 3.7613 1.80905C4.21629 1.80755 4.66722 1.72697 5.09217 1.5712C5.53311 1.3762 6.05291 1.5976 6.19728 2.04202C6.26618 2.18421 6.31875 2.33248 6.38001 2.47812C6.42301 2.60297 6.49486 2.71692 6.59023 2.81145C6.68559 2.90599 6.80199 2.97868 6.93076 3.0241C7.20386 3.12738 7.43258 3.31597 7.57988 3.55932L9.29106 5.92158C9.46616 6.16621 9.66845 6.39191 9.89439 6.59471C10.1382 6.80697 10.3408 6.74096 10.3805 6.41881C10.4568 5.91955 10.4808 5.41439 10.453 4.91066C10.4055 4.12906 10.4148 3.34543 10.4805 2.56505C10.3678 1.99226 10.9242 1.50681 11.5087 1.66727L12.112 1.70038C12.3977 1.68474 12.6794 1.7705 12.9033 1.94129C13.1272 2.11207 13.2775 2.3559 13.3257 2.62619C13.3878 2.84454 13.4242 3.06899 13.4342 3.29526C13.4505 3.73054 13.4393 4.16867 13.4393 4.60273L13.4124 4.60659Z" fill="url(#paint0_linear_4993_946)" fill-opacity="0.08"/>
<defs>
<linearGradient id="paint0_linear_4993_946" x1="7.99847" y1="1.5" x2="7.99847" y2="14.5" gradientUnits="userSpaceOnUse">
<stop stop-opacity="0"/>
<stop offset="1"/>
</linearGradient>
</defs>
</svg>
