<svg width="16" height="16" viewBox="0 0 16 16" fill="none" xmlns="http://www.w3.org/2000/svg">
<path fill-rule="evenodd" clip-rule="evenodd" d="M9.70569 9.08681C10.3033 8.76347 11.1347 9.13612 11.5586 9.91947C11.9825 10.7031 11.8394 11.6026 11.2418 11.926C10.6422 12.2504 9.81292 11.8769 9.38895 11.0933C8.96512 10.31 9.10609 9.41122 9.70569 9.08681ZM7.49344 9.70116C8.19149 9.78961 8.66702 10.579 8.55591 11.4623C8.44481 12.3455 7.78709 12.9914 7.08918 12.9032C6.39114 12.8147 5.91558 12.0253 6.02669 11.142C6.1378 10.2588 6.79554 9.61296 7.49344 9.70116ZM5.22208 9.30145C5.78042 9.67837 5.82457 10.5894 5.32028 11.335C4.81586 12.0804 3.95287 12.3798 3.3965 12.0019C2.83816 11.6249 2.79401 10.7139 3.2983 9.96827C3.80272 9.22289 4.66374 8.92454 5.22208 9.30145ZM4.24125 7.50749C4.60646 7.98456 4.32136 8.81482 3.60819 9.35817C2.89516 9.90177 2.02126 9.95484 1.65802 9.4767C1.29281 8.99963 1.57596 8.17043 2.28914 7.62709C3.00217 7.08348 3.87802 7.02935 4.24125 7.50749ZM11.4758 7.62228C11.8416 7.14376 12.7148 7.19783 13.4293 7.74084C14.1418 8.28491 14.4248 9.11414 14.0611 9.59185C13.6973 10.0693 12.8219 10.016 12.1095 9.47222C11.395 8.92921 11.112 8.09973 11.4758 7.62228ZM4.89481 5.70879C5.01951 6.17018 4.55697 6.69604 3.86438 6.88157C3.17166 7.06685 2.50758 6.84324 2.38288 6.38185C2.26016 5.91939 2.7227 5.39354 3.41543 5.20826C4.10801 5.02273 4.77209 5.24634 4.89481 5.70879ZM11.9654 5.8552C12.0902 5.39299 12.752 5.1694 13.4463 5.35463C14.1386 5.54093 14.6015 6.06659 14.4787 6.52773C14.354 6.98994 13.6902 7.21461 12.9979 7.02831C12.3036 6.84308 11.8427 6.31634 11.9654 5.8552ZM7.06409 4.12906C7.16133 4.48786 6.72782 4.91659 6.09561 5.08647C5.46523 5.25503 4.87444 5.10088 4.77918 4.74101C4.68195 4.38221 5.11545 3.95348 5.7478 3.78385C6.37804 3.61503 6.96883 3.76919 7.06409 4.12906ZM10.4376 4.12932C10.5338 3.76995 11.1256 3.61493 11.7553 3.78441C12.3871 3.95308 12.8208 4.38241 12.7244 4.74152C12.6282 5.10089 12.0385 5.25512 11.4067 5.08644C10.7769 4.91671 10.3413 4.48869 10.4376 4.12932ZM10.062 3.78396C10.061 4.16855 9.53092 4.48006 8.8781 4.47991C8.22515 4.4795 7.69456 4.16798 7.69373 3.78472C7.69473 3.40013 8.22482 3.08864 8.87764 3.08879C9.53045 3.08894 10.0611 3.40044 10.062 3.78396Z" fill="#E7844B"/>
</svg>
