<svg width="16" height="16" viewBox="0 0 16 16" fill="none" xmlns="http://www.w3.org/2000/svg">
<path d="M8.81062 8.26562C10.9046 9.75486 12.3563 11.9829 12.8731 14.5H3.40144L8.81062 8.26367V8.26562ZM2.92 6.91602C4.4831 6.91598 6.0221 7.29941 7.40242 8.03027L2.92 13.1963V6.91602ZM7.76961 7.61133L7.48836 7.46387C7.11118 7.2731 6.72335 7.10643 6.32722 6.96484C6.22813 6.92942 6.12849 6.89558 6.0284 6.86328C5.82839 6.79875 5.62646 6.74041 5.42293 6.68848C5.32118 6.66251 5.21881 6.639 5.11629 6.61621C4.80836 6.54777 4.49719 6.49355 4.18367 6.4541C4.17293 6.45275 4.16218 6.45151 4.15144 6.4502C4.1589 6.45111 4.16645 6.45122 4.1739 6.45215C3.75948 6.40042 3.34102 6.37503 2.92097 6.375V1.5H13.0762L7.76961 7.61133Z" fill="#F7F8FB" fill-opacity="0.64"/>
<path d="M8.81062 8.26562C10.9046 9.75486 12.3563 11.9829 12.8731 14.5H3.40144L8.81062 8.26367V8.26562ZM2.92 6.91602C4.4831 6.91598 6.0221 7.29941 7.40242 8.03027L2.92 13.1963V6.91602ZM7.76961 7.61133L7.48836 7.46387C7.11118 7.2731 6.72335 7.10643 6.32722 6.96484C6.22813 6.92942 6.12849 6.89558 6.0284 6.86328C5.82839 6.79875 5.62646 6.74041 5.42293 6.68848C5.32118 6.66251 5.21881 6.639 5.11629 6.61621C4.80836 6.54777 4.49719 6.49355 4.18367 6.4541C4.17293 6.45275 4.16218 6.45151 4.15144 6.4502C4.1589 6.45111 4.16645 6.45122 4.1739 6.45215C3.75948 6.40042 3.34102 6.37503 2.92097 6.375V1.5H13.0762L7.76961 7.61133Z" fill="url(#paint0_linear_4993_958)" fill-opacity="0.08"/>
<defs>
<linearGradient id="paint0_linear_4993_958" x1="7.99812" y1="1.5" x2="7.99812" y2="14.5" gradientUnits="userSpaceOnUse">
<stop stop-opacity="0"/>
<stop offset="1"/>
</linearGradient>
</defs>
</svg>
