<svg width="16" height="16" viewBox="0 0 16 16" fill="none" xmlns="http://www.w3.org/2000/svg">
<path d="M11.3117 6.98071V6.97652V3.41229L7.99885 1.5L4.686 3.41229V6.97652V6.98071L1.6 8.76252V12.5877L4.91284 14.5L7.99945 12.7182L11.086 14.5L14.3989 12.5877V8.76252L11.3123 6.98071H11.3117ZM7.99885 8.62785L5.36473 7.107L7.99885 5.58614L10.633 7.107L7.99885 8.62785ZM5.13849 7.50262L7.7726 9.02348V12.061L5.13849 10.5401V7.50262ZM8.22509 9.02408L10.8592 7.50322V10.5407L8.22509 12.0616V9.02408ZM5.13849 3.67385L7.99885 2.02251L10.8592 3.67385V6.71556L7.99885 5.06423L5.13849 6.71556V3.67385ZM2.05189 12.3267V9.02408L4.686 7.50322V10.8017L7.54995 12.4554L4.91165 13.9787L2.05129 12.3273L2.05189 12.3267ZM13.9464 12.3267L11.086 13.9781L8.44774 12.4548L11.3117 10.8011V7.50262L13.9458 9.02348V12.3262L13.9464 12.3267Z" fill="url(#paint0_linear_5000_12123)"/>
<defs>
<linearGradient id="paint0_linear_5000_12123" x1="3.27707" y1="14.2654" x2="12.7206" y2="4.82182" gradientUnits="userSpaceOnUse">
<stop stop-color="#25316A"/>
<stop offset="0.07" stop-color="#293268"/>
<stop offset="0.14" stop-color="#353564"/>
<stop offset="0.2" stop-color="#493B5D"/>
<stop offset="0.27" stop-color="#654353"/>
<stop offset="0.34" stop-color="#8A4E46"/>
<stop offset="0.41" stop-color="#B75A36"/>
<stop offset="0.48" stop-color="#EB6923"/>
<stop offset="0.49" stop-color="#F36C21"/>
<stop offset="1" stop-color="#9C9C9C"/>
</linearGradient>
</defs>
</svg>
