<svg width="16" height="16" viewBox="0 0 16 16" fill="none" xmlns="http://www.w3.org/2000/svg">
<path d="M5.75063 2.56992C5.53509 2.62139 5.29381 2.42837 5.20374 2.1324C5.11366 1.83644 5.21017 1.55977 5.41928 1.5083C5.63482 1.45683 5.87609 1.64985 5.96939 1.94581C6.05946 2.23535 5.96295 2.51844 5.75063 2.56992ZM5.4418 14.4954C5.22626 14.4568 5.12331 14.1801 5.20695 13.881C5.2906 13.5818 5.52865 13.3695 5.74098 13.4081C5.9533 13.4467 6.05946 13.7233 5.97582 14.0225C5.89861 14.3249 5.65412 14.534 5.4418 14.4954ZM6.51306 4.84757C6.1978 4.92478 5.83749 4.63846 5.70237 4.20416C5.56726 3.77308 5.71524 3.35809 6.02408 3.28088C6.33291 3.20367 6.69965 3.48998 6.83477 3.92428C6.96988 4.35536 6.82511 4.77036 6.51306 4.84757ZM6.14311 12.8419C5.84714 12.7904 5.70559 12.3915 5.82462 11.9507C5.94365 11.51 6.28144 11.1915 6.57419 11.243C6.87015 11.2945 7.0117 11.6934 6.89267 12.1341C6.77364 12.5749 6.43907 12.8933 6.14311 12.8419Z" fill="#E37025"/>
<path d="M6.97954 7.63353C6.58062 7.67535 6.20423 7.26357 6.13989 6.71024C6.07555 6.15692 6.34578 5.67436 6.74148 5.62611C7.14039 5.58429 7.51678 5.99606 7.58112 6.54939C7.64546 7.10272 7.37523 7.58849 6.97954 7.63353ZM6.72861 10.3616C6.32648 10.3616 6.02086 9.91118 6.03373 9.35142C6.0466 8.79487 6.3876 8.33806 6.78651 8.33806C7.18542 8.33806 7.49426 8.78844 7.48139 9.3482C7.46209 9.90796 7.1243 10.3616 6.72861 10.3616Z" fill="#EFEFEF"/>
<path d="M8.10228 3.70553C7.94143 3.74413 7.75806 3.59937 7.69051 3.37417C7.62295 3.15542 7.69372 2.94309 7.85457 2.90127C8.01542 2.86267 8.19879 3.00743 8.26635 3.23262C8.33391 3.4546 8.26313 3.66371 8.10228 3.70553ZM7.87066 12.6842C7.70981 12.6521 7.62938 12.4494 7.69372 12.2242C7.75806 11.999 7.93821 11.8382 8.09907 11.8703C8.25992 11.9025 8.34034 12.1052 8.276 12.3304C8.21166 12.5555 8.03151 12.71 7.87066 12.6842ZM8.67491 5.41698C8.44007 5.47489 8.16662 5.26256 8.0669 4.93443C7.96395 4.60629 8.07333 4.29746 8.31139 4.23955C8.54623 4.18165 8.81968 4.39397 8.91941 4.72211C9.02235 5.05024 8.91297 5.35908 8.67491 5.41698ZM8.39825 11.436C8.17306 11.3974 8.0669 11.0982 8.15697 10.7605C8.24705 10.4227 8.49476 10.191 8.72317 10.2296C8.95158 10.2682 9.05452 10.5674 8.96444 10.902C8.87437 11.2334 8.62344 11.4746 8.39825 11.436Z" fill="#E37025"/>
<path d="M9.02556 7.51446C8.72638 7.54663 8.44006 7.23458 8.39181 6.81959C8.34355 6.40459 8.54622 6.03785 8.84219 6.00246C9.14137 5.97029 9.42769 6.28234 9.47594 6.69734C9.52742 7.11877 9.32796 7.48229 9.02556 7.51446ZM8.83576 9.57014C8.53336 9.57014 8.30173 9.23235 8.3146 8.8077C8.32747 8.38306 8.58161 8.04527 8.88079 8.04527C9.18319 8.04527 9.41804 8.38306 9.40195 8.8077C9.3923 9.22592 9.14137 9.57014 8.83576 9.57014Z" fill="#EFEFEF"/>
<path d="M9.89096 4.84114C9.78158 4.87331 9.65612 4.76715 9.60786 4.61595C9.55961 4.46797 9.61108 4.31999 9.72046 4.29425C9.82984 4.26851 9.9553 4.36824 10.0036 4.51944C10.0454 4.66742 10.0003 4.81219 9.89096 4.84114ZM9.73654 10.976C9.62716 10.9567 9.57247 10.8152 9.6143 10.6607C9.65612 10.5063 9.77836 10.3969 9.88774 10.4162C9.99712 10.4355 10.0518 10.5771 10.01 10.7315C9.96817 10.8859 9.84592 10.9953 9.73654 10.976ZM10.2867 6.00892C10.1258 6.04753 9.94243 5.90276 9.87166 5.67757C9.80088 5.45238 9.87487 5.24005 10.0357 5.20145C10.1966 5.16285 10.3799 5.31083 10.4507 5.5328C10.5183 5.75799 10.4475 5.97032 10.2867 6.00892ZM10.0936 10.1235C9.93921 10.0913 9.86844 9.89187 9.92956 9.66346C9.9939 9.43505 10.1644 9.2742 10.3156 9.30315C10.47 9.33532 10.5408 9.53478 10.4797 9.76318C10.4185 9.98516 10.2448 10.1492 10.0936 10.1235Z" fill="#E37025"/>
<path d="M10.5215 7.44366C10.3156 7.46618 10.1193 7.25386 10.0904 6.96754C10.055 6.68123 10.1966 6.43352 10.3992 6.411C10.6019 6.38848 10.8014 6.6008 10.8303 6.88712C10.8625 7.17343 10.7241 7.42114 10.5215 7.44366ZM10.3928 8.84628C10.1869 8.84628 10.0261 8.61466 10.0357 8.32834C10.0421 8.04203 10.2159 7.80719 10.425 7.80719C10.6309 7.80719 10.7917 8.03881 10.7821 8.32513C10.7692 8.61466 10.5987 8.84628 10.3928 8.84628Z" fill="#EFEFEF"/>
</svg>
