<svg width="129" height="128" viewBox="0 0 129 128" fill="none" xmlns="http://www.w3.org/2000/svg">
<path d="M26.5195 68.2578L30.3701 56.4951H34.8779L29.084 72.4248L28.0225 75.332C27.639 76.3016 27.2777 77.0362 26.9316 77.5449C26.5856 78.064 26.1867 78.4827 25.7373 78.7939C25.2789 79.1025 24.7247 79.3514 24.0791 79.5283C23.418 79.7078 22.6766 79.8076 21.8477 79.8076C21.0123 79.8076 20.1872 79.7078 19.375 79.5283L19.0137 76.0869C19.6915 76.2302 20.3074 76.3018 20.8535 76.3018C21.8606 76.3018 22.6111 76.0047 23.0928 75.4121C23.5796 74.8026 23.951 74.0323 24.208 73.1104L17.9434 56.4951H22.5684L26.5195 68.2578ZM58.6006 56.1816C61.1109 56.1816 63.1605 56.9931 64.7578 58.6201C66.36 60.2483 67.1649 62.3049 67.165 64.7852C67.165 67.2916 66.354 69.3611 64.7373 71.0127C63.1233 72.6551 61.0828 73.4902 58.6309 73.4902C57.115 73.4902 55.6697 73.1407 54.2881 72.4551C52.9103 71.7681 51.8638 70.763 51.1484 69.4316C50.4332 68.1146 50.0704 66.5044 50.0703 64.6064C50.0703 63.137 50.4331 61.7421 51.1484 60.3721C51.8638 59.0149 52.8805 57.9741 54.1963 57.251C55.5121 56.5318 56.9814 56.1817 58.6006 56.1816ZM9.16309 49.8105C12.0154 49.8106 14.1625 50.4422 15.6113 51.6973C17.0563 52.9757 17.8098 54.653 17.8809 56.7578L13.2686 56.9121C13.0645 55.7633 12.6561 54.9165 12.0029 54.3975C11.3624 53.8822 10.392 53.624 9.1084 53.624C7.77727 53.6241 6.7313 53.8973 5.98242 54.4551C5.49175 54.8141 5.25 55.2754 5.25 55.8643C5.25005 56.413 5.47555 56.8649 5.93262 57.251C6.50738 57.7493 7.91851 58.2567 10.1494 58.7783C12.3859 59.3103 14.034 59.8602 15.1006 60.4297C16.1696 60.9991 17.01 61.7754 17.6143 62.7656C18.2134 63.7315 18.5264 64.9669 18.5264 66.417C18.5263 67.7234 18.1597 68.9603 17.4355 70.0977C16.7111 71.2353 15.683 72.0961 14.3594 72.6553C13.0306 73.1989 11.3786 73.4893 9.40039 73.4893C6.51982 73.4892 4.30152 72.8163 2.75977 71.4697C1.22054 70.1306 0.299581 68.1788 0 65.6221L4.45508 65.2051C4.73012 66.7004 5.27475 67.8037 6.09473 68.5088C6.91857 69.2087 8.03221 69.5566 9.43066 69.5566C10.9078 69.5566 12.0233 69.2402 12.7812 68.6191C13.5301 67.9839 13.9004 67.2596 13.9004 66.4307C13.9004 65.8923 13.7418 65.4239 13.4307 65.0469C13.1143 64.6763 12.5645 64.3402 11.7822 64.0742C11.2412 63.8676 10.0166 63.5379 8.10938 63.0537C5.64972 62.4482 3.92217 61.6904 2.93945 60.8008C1.54493 59.5354 0.844804 57.9936 0.844727 56.1885C0.844727 55.0263 1.16572 53.9269 1.83203 52.9248C2.48543 51.9073 3.43876 51.1339 4.67969 50.5967C5.91674 50.0802 7.39792 49.8105 9.16309 49.8105ZM44.4619 56.1807C45.4368 56.1807 46.3195 56.3583 47.124 56.6914C47.927 57.0503 48.5386 57.4822 48.9414 58.0283C49.3507 58.5694 49.6381 59.1814 49.8008 59.8594C49.9622 60.5346 50.0459 61.5262 50.0459 62.7979V73.0654H45.6904V64.6309C45.6904 62.854 45.5996 61.7081 45.4072 61.1787C45.2161 60.656 44.9207 60.2478 44.4922 59.9561C44.0712 59.6681 43.554 59.5225 42.9639 59.5225C42.1983 59.5225 41.5192 59.7344 40.9072 60.1514C40.2952 60.5633 39.8829 61.1092 39.6582 61.7832C39.4374 62.4753 39.3213 63.7323 39.3213 65.5879V73.0654H34.9746V56.4951H39.001V58.9219C40.4497 57.087 42.2681 56.1808 44.4619 56.1807ZM58.5967 59.7354C57.4476 59.7354 56.4868 60.1845 55.7031 61.0508C54.9167 61.9172 54.5293 63.1833 54.5293 64.8271C54.5293 66.4811 54.9168 67.7452 55.7031 68.6025C56.4869 69.487 57.4475 69.9277 58.5967 69.9277C59.7459 69.9277 60.7087 69.4871 61.4912 68.6025C62.2606 67.7452 62.6474 66.4669 62.6475 64.8066C62.6475 63.1693 62.2608 61.9172 61.4912 61.0508C60.7087 60.1843 59.7459 59.7354 58.5967 59.7354Z" fill="url(#paint0_linear_5027_16480)"/>
<path d="M97.6436 56.4414C99.1736 56.4414 100.503 56.8027 101.626 57.5566H105.038C105.546 57.5566 105.836 57.5741 105.924 57.6025C106 57.6413 106.052 57.6939 106.095 57.752C106.162 57.8617 106.201 58.0489 106.201 58.3145C106.201 58.6215 106.169 58.8478 106.111 58.9551C106.075 59.0145 106.015 59.0685 105.924 59.0918C105.836 59.1267 105.546 59.1426 105.033 59.1426H102.931C103.597 59.991 103.926 61.0758 103.926 62.3955C103.926 63.8933 103.344 65.1873 102.201 66.25C101.052 67.3205 99.5126 67.8613 97.5898 67.8613C96.7905 67.8613 95.9771 67.7436 95.1416 67.4814C94.6511 67.9436 94.3167 68.3287 94.1514 68.6631C93.9719 69.0066 93.8838 69.2857 93.8838 69.5117C93.8838 69.7274 93.9795 69.9118 94.1797 70.1094C94.3669 70.2914 94.75 70.4297 95.3115 70.5059C95.6317 70.5665 96.461 70.612 97.7676 70.6494C100.177 70.7256 101.743 70.8174 102.451 70.9375C103.542 71.0886 104.417 71.4987 105.066 72.1455C105.716 72.7976 106.04 73.5952 106.04 74.5469C106.04 75.8548 105.416 77.1012 104.177 78.2529C102.36 79.9482 99.9788 80.7978 97.0439 80.7979C94.788 80.7979 92.8802 80.3004 91.3242 79.2803C90.4451 78.6928 90.0128 78.0899 90.0127 77.4521C90.0127 77.1823 90.0752 76.8938 90.1953 76.6123C90.3903 76.1707 90.7955 75.5924 91.4023 74.8164C91.483 74.7048 92.074 74.0758 93.1592 72.9248C92.5549 72.5452 92.1233 72.2247 91.8779 71.9277C91.6262 71.6398 91.499 71.3074 91.499 70.9473C91.4991 70.529 91.6601 70.0496 91.9893 69.501C92.3225 68.9393 93.0889 68.1497 94.2793 67.1504C93.298 66.6507 92.5515 65.993 92.0195 65.1318C91.4992 64.2603 91.2354 63.3151 91.2354 62.2783C91.2354 60.6797 91.828 59.3001 93.0264 58.1689C94.2298 57.0211 95.7701 56.4415 97.6436 56.4414ZM114.249 57.5586H113.884C113.35 57.5586 112.954 57.6822 112.688 57.9004C112.425 58.1367 112.298 58.4212 112.298 58.7529C112.298 59.2204 112.485 59.8493 112.88 60.6562L116.814 68.8193L120.416 59.9004C120.615 59.4098 120.716 58.9399 120.716 58.4531C120.716 58.2441 120.665 58.0906 120.592 57.9873C120.495 57.862 120.349 57.7511 120.148 57.6826C119.952 57.6039 119.596 57.5586 119.097 57.5586V56.9131H124.317V57.5586C123.884 57.6038 123.547 57.7027 123.313 57.8408C123.075 57.9867 122.818 58.2439 122.539 58.6221C122.431 58.7925 122.221 59.2355 121.935 59.9766L115.396 76.0664C114.758 77.6353 113.924 78.8081 112.889 79.6074C111.856 80.413 110.86 80.7979 109.903 80.7979C109.207 80.7978 108.638 80.6117 108.184 80.2012C107.738 79.8073 107.515 79.3511 107.515 78.8281C107.515 78.3402 107.675 77.9593 108 77.6533C108.324 77.3421 108.779 77.2041 109.342 77.2041C109.733 77.2041 110.27 77.3309 110.94 77.5801C111.41 77.7413 111.709 77.8445 111.831 77.8447C112.185 77.8447 112.564 77.6535 112.988 77.292C113.404 76.933 113.825 76.2305 114.246 75.1963L115.387 72.3867L109.578 60.248C109.401 59.88 109.117 59.4307 108.733 58.8857C108.438 58.479 108.196 58.1999 108.009 58.0488C107.738 57.8733 107.3 57.7031 106.701 57.5586V56.9131H114.249V57.5586ZM94.1338 73.0654C93.5967 73.6464 93.1968 74.206 92.918 74.7314C92.6391 75.222 92.5098 75.7035 92.5098 76.123C92.5098 76.7003 92.8432 77.1816 93.5225 77.6025C94.6963 78.3192 96.3905 78.6924 98.6025 78.6924C100.707 78.6923 102.255 78.3193 103.264 77.5781C104.271 76.8447 104.767 76.0597 104.767 75.2217C104.767 74.6266 104.467 74.1938 103.867 73.9355C103.255 73.676 102.048 73.5267 100.231 73.4893C97.5896 73.4105 95.5516 73.2565 94.1338 73.0654ZM82.9551 56.4424C85.4072 56.4424 87.3695 57.3707 88.8545 59.2275C90.1121 60.8093 90.7401 62.6277 90.7402 64.6807C90.7402 66.1294 90.4 67.5915 89.7041 69.0635C89.0081 70.5406 88.0551 71.6583 86.8311 72.4072C85.6122 73.16 84.2624 73.5351 82.7686 73.5352C80.3255 73.5352 78.3881 72.566 76.9561 70.6357C75.7449 69.0088 75.1368 67.1749 75.1367 65.1387C75.1367 63.6563 75.5032 62.1952 76.2354 60.7412C76.9778 59.2692 77.943 58.1991 79.1465 57.4824C80.346 56.7956 81.6149 56.4424 82.9551 56.4424ZM72.5088 69.3926C72.5088 70.4127 72.5842 71.0883 72.7275 71.4111C72.8773 71.7493 73.1 71.9988 73.4033 72.168C73.7119 72.3371 74.2829 72.4248 75.1064 72.4248V73.0654H67.2012V72.4248C67.9423 72.4248 68.4464 72.3489 68.7305 72.1875C68.9912 72.0287 69.2028 71.7871 69.3564 71.4297C69.5114 71.0797 69.583 70.4011 69.583 69.3926V54.7949C69.583 52.9577 69.5455 51.8342 69.4668 51.4092C69.3919 50.9882 69.2573 50.7064 69.083 50.5566C68.9035 50.3979 68.6797 50.3105 68.4072 50.3105C68.1129 50.3107 67.7333 50.4183 67.2803 50.5977L66.9795 49.9717L71.7275 48H72.5088V69.3926ZM82.4141 57.6289C81.7893 57.629 81.1657 57.7905 80.5371 58.1699C79.9082 58.5431 79.3965 59.1818 79.0078 60.0986C78.6218 61.0334 78.4268 62.2159 78.4268 63.667C78.4268 66.0133 78.901 68.014 79.8281 69.7275C80.7656 71.4113 81.9939 72.2705 83.5176 72.2705C84.6666 72.2704 85.6026 71.7893 86.3359 70.8623C87.081 69.9274 87.4531 68.3197 87.4531 66.0303C87.4531 63.1689 86.8357 60.9338 85.6025 59.29C84.7671 58.1731 83.7041 57.6289 82.4141 57.6289ZM97.3486 57.332C96.4822 57.332 95.7665 57.6937 95.1777 58.3818C94.5966 59.0688 94.3086 60.1011 94.3086 61.5293C94.3087 63.3679 94.7036 64.7934 95.4951 65.8135C96.1059 66.5805 96.8694 66.9639 97.7979 66.9639C98.6835 66.9638 99.4169 66.6245 99.9824 65.9609C100.553 65.2959 100.836 64.26 100.836 62.8447C100.836 60.9827 100.441 59.5391 99.6377 58.4932C99.0334 57.7327 98.2756 57.3321 97.3486 57.332ZM125.548 51.499C126.981 51.499 128.151 52.6595 128.151 54.1064C128.151 55.542 126.984 56.7256 125.548 56.7256C124.104 56.7256 122.937 55.5425 122.937 54.1064C122.937 52.659 124.106 51.499 125.548 51.499ZM124.712 55.8438H124.405C124.733 56.0621 125.126 56.1904 125.548 56.1904C125.967 56.1904 126.358 56.0623 126.685 55.8438H126.585L126.156 55.1758C126.032 54.9938 125.928 54.8348 125.848 54.7354C125.761 54.6257 125.699 54.5613 125.632 54.5059C125.572 54.4684 125.508 54.4523 125.44 54.4316C125.391 54.4175 125.307 54.4102 125.197 54.4102H124.712V55.8438ZM125.548 52.0342C124.399 52.0342 123.472 52.9559 123.472 54.1064C123.472 54.7765 123.792 55.3746 124.287 55.7568V52.6123H125.706C125.994 52.6123 126.21 52.6487 126.365 52.7158C126.52 52.7688 126.626 52.8697 126.719 53.0078C126.81 53.1652 126.851 53.3277 126.851 53.4941C126.851 53.7317 126.781 53.9244 126.626 54.0742C126.485 54.2356 126.257 54.3405 125.948 54.3818C126.065 54.4359 126.148 54.4936 126.202 54.54C126.326 54.6524 126.444 54.7934 126.553 54.96L126.968 55.6133C127.365 55.2327 127.616 54.698 127.616 54.1064C127.616 52.9555 126.687 52.0342 125.548 52.0342ZM124.712 54.0449H125.622C125.814 54.0449 125.97 54.0331 126.077 53.9775C126.189 53.9543 126.269 53.874 126.326 53.79C126.389 53.6971 126.415 53.5974 126.415 53.4941C126.415 53.3484 126.361 53.2247 126.247 53.124C126.14 53.0273 125.965 52.9776 125.732 52.9775H124.712V54.0449Z" fill="url(#paint1_linear_5027_16480)"/>
<defs>
<linearGradient id="paint0_linear_5027_16480" x1="33.5825" y1="49.8105" x2="33.5825" y2="79.8076" gradientUnits="userSpaceOnUse">
<stop stop-color="#CDCDCD"/>
<stop offset="1" stop-color="#A7A5A6"/>
</linearGradient>
<linearGradient id="paint1_linear_5027_16480" x1="97.5654" y1="48" x2="97.5654" y2="80.7979" gradientUnits="userSpaceOnUse">
<stop stop-color="white"/>
<stop offset="1" stop-color="#CFCFCF"/>
</linearGradient>
</defs>
</svg>
