<svg width="128" height="128" viewBox="0 0 128 128" fill="none" xmlns="http://www.w3.org/2000/svg">
<path d="M98.6244 62.6709C95.9853 63.8918 93.0932 64.466 90.1879 64.3457C87.2825 64.2254 84.4478 63.4142 81.9186 61.9793L67.2024 81.5149C68.6633 83.2129 69.6334 85.2773 70.0081 87.4857C70.3828 89.6941 70.148 91.963 69.3289 94.0478C68.5098 96.1327 67.1375 97.9546 65.3597 99.3173C63.5819 100.68 61.4661 101.532 59.24 101.782C57.0139 102.031 54.762 101.668 52.7267 100.733C50.6914 99.7973 48.9499 98.3243 47.6897 96.4725C46.4295 94.6206 45.6983 92.46 45.575 90.2234C45.4517 87.9868 45.9408 85.7589 46.9897 83.7797L35.1398 74.8618L31.4553 79.7542L17.9006 69.5529L28.1019 55.9983L41.6565 66.1947L37.9793 71.0823L49.9559 80.0927C51.8133 78.5388 54.0872 77.5662 56.4938 77.2964C58.9004 77.0266 61.3332 77.4715 63.4886 78.5756L78.1464 59.1179C76.3973 57.4186 75.0068 55.3856 74.0573 53.1394C73.1079 50.8931 72.6186 48.4792 72.6186 46.0406C72.6186 43.6019 73.1079 41.188 74.0573 38.9418C75.0068 36.6955 76.3973 34.6626 78.1464 32.9632C68.5104 26.3902 56.8789 23.3944 45.2666 24.4947C33.6543 25.5949 22.7925 30.722 14.5625 38.9879C6.33249 47.2537 1.25268 58.1377 0.202905 69.7547C-0.846872 81.3717 2.1995 92.9901 8.81437 102.597C15.4292 112.205 25.196 119.196 36.423 122.36C47.6499 125.524 59.63 124.662 70.2882 119.923C80.9464 115.184 89.6115 106.866 94.7825 96.4106C99.9536 85.9551 101.305 74.0203 98.6025 62.6734L98.6244 62.6709Z" fill="url(#paint0_radial_5027_16295)"/>
<path d="M78.1582 32.9685L78.1679 32.9758L78.1582 32.9685Z" fill="white"/>
<path opacity="0.85" d="M70.161 89.0834C70.2728 91.9101 69.4069 94.689 67.7093 96.952C66.0118 99.215 63.5862 100.824 60.8411 101.508C58.096 102.191 55.1992 101.908 52.6385 100.706C50.0778 99.5032 48.0097 97.455 46.7826 94.9061C20.4697 93.0967 2.48532 62.7218 2.15656 74.2843C1.51365 97.0126 21.6678 120.868 49.2519 120.941C61.6012 120.909 73.4434 116.026 82.2263 107.344C91.0093 98.6629 96.0298 86.8784 96.2061 74.5303C96.2231 65.9607 86.1119 80.3628 70.161 89.0834Z" fill="url(#paint1_linear_5027_16295)"/>
<path d="M123.873 33.4329C121.555 36.3172 118.433 38.4491 114.902 39.5589C111.372 40.6688 107.591 40.7067 104.039 39.668C100.487 38.6292 97.3232 36.5604 94.9471 33.7232C92.5709 30.886 91.0895 27.4078 90.6903 23.7286C90.291 20.0494 90.9918 16.3345 92.704 13.0536C94.4163 9.7727 97.063 7.07329 100.31 5.29676C103.556 3.52022 107.256 2.74636 110.943 3.07306C114.629 3.39975 118.136 4.81232 121.019 7.13211C124.884 10.2422 127.356 14.7598 127.891 19.6916C128.426 24.6235 126.981 29.5661 123.873 33.4329Z" fill="url(#paint2_linear_5027_16295)"/>
<path d="M75.1269 36.8303C75.3704 36.3944 75.6821 36.0023 75.967 35.5981C66.6377 29.2827 55.319 26.6016 44.148 28.061C32.7504 29.7389 22.3054 35.3704 14.64 43.9705C10.6304 48.1641 7.40543 53.0429 5.11816 58.375C47.7351 32.3421 56.2999 57.888 74.4937 63.9761L78.1466 59.1275C75.2321 56.278 73.3522 52.537 72.8052 48.4978C72.2582 44.4586 73.0753 40.3524 75.1269 36.8303Z" fill="url(#paint3_linear_5027_16295)"/>
<path d="M79.5615 65.1083C82.746 65.4048 85.9578 65.1184 89.0395 64.2633C86.5323 64.0029 84.1067 63.2242 81.9164 61.9766L79.5615 65.1083Z" fill="url(#paint4_linear_5027_16295)"/>
<path d="M51.1732 99.8916C48.5873 98.2158 46.7228 95.6323 45.9471 92.6502C45.1713 89.668 45.5406 86.5034 46.9821 83.78L35.1321 74.8621L31.4549 79.7545L17.9003 69.5532L28.1016 55.9986L41.6562 66.195L37.979 71.0826L49.9555 80.093C51.8129 78.5391 54.0868 77.5665 56.4934 77.2967C58.9001 77.0269 61.3329 77.4718 63.4882 78.5759L78.146 59.1182C76.3969 57.4188 75.0065 55.3859 74.057 53.1397C73.1075 50.8934 72.6183 48.4795 72.6183 46.0409C72.6183 43.6022 73.1075 41.1883 74.057 38.9421C75.0065 36.6958 76.3969 34.6629 78.146 32.9635C71.6887 28.5652 64.2896 25.7429 56.5434 24.7236C48.7971 23.7042 40.9198 24.5163 33.5444 27.0944C26.169 29.6725 19.5012 33.9448 14.0769 39.568C8.65266 45.1912 4.62312 52.0085 2.31215 59.4719C0.0011868 66.9353 -0.526754 74.8368 0.770757 82.5413C2.06827 90.2458 5.15504 97.5385 9.78302 103.833C14.411 110.128 20.4511 115.25 27.418 118.786C34.3848 122.322 42.0841 124.175 49.8971 124.195L51.1732 99.8916Z" fill="url(#paint5_linear_5027_16295)"/>
<defs>
<radialGradient id="paint0_radial_5027_16295" cx="0" cy="0" r="1" gradientUnits="userSpaceOnUse" gradientTransform="translate(30.029 66.8309) rotate(0.171032) scale(72.7461 72.7461)">
<stop stop-color="#C40047"/>
<stop offset="0.887" stop-color="#FF0070"/>
</radialGradient>
<linearGradient id="paint1_linear_5027_16295" x1="14.7402" y1="88.4278" x2="75.0188" y2="97.1492" gradientUnits="userSpaceOnUse">
<stop stop-color="#D02685" stop-opacity="0"/>
<stop offset="0.112" stop-color="#CE2581" stop-opacity="0.063"/>
<stop offset="0.312" stop-color="#CA2477" stop-opacity="0.23"/>
<stop offset="0.578" stop-color="#C42266" stop-opacity="0.502"/>
<stop offset="0.895" stop-color="#BB1F4F" stop-opacity="0.874"/>
<stop offset="0.995" stop-color="#B81E47"/>
</linearGradient>
<linearGradient id="paint2_linear_5027_16295" x1="109.291" y1="3" x2="109.291" y2="40.4201" gradientUnits="userSpaceOnUse">
<stop stop-color="#6F6F6F"/>
<stop offset="1" stop-color="#3F3F3F"/>
</linearGradient>
<linearGradient id="paint3_linear_5027_16295" x1="25.2067" y1="42.384" x2="126.972" y2="58.6549" gradientUnits="userSpaceOnUse">
<stop offset="0.006" stop-color="#D31C5B" stop-opacity="0"/>
<stop offset="0.074" stop-color="#D52E67" stop-opacity="0.082"/>
<stop offset="0.213" stop-color="#DC5C88" stop-opacity="0.293"/>
<stop offset="0.41" stop-color="#E6A5BB" stop-opacity="0.633"/>
<stop offset="0.608" stop-color="#F1F5F3"/>
</linearGradient>
<linearGradient id="paint4_linear_5027_16295" x1="26.7583" y1="94.2453" x2="100.172" y2="55.3745" gradientUnits="userSpaceOnUse">
<stop offset="0.006" stop-color="#D31C5B" stop-opacity="0"/>
<stop offset="0.055" stop-color="#D41D5C" stop-opacity="0.026"/>
<stop offset="0.122" stop-color="#D61F5D" stop-opacity="0.101"/>
<stop offset="0.2" stop-color="#D92360" stop-opacity="0.224"/>
<stop offset="0.286" stop-color="#DD2863" stop-opacity="0.395"/>
<stop offset="0.378" stop-color="#E32F68" stop-opacity="0.615"/>
<stop offset="0.474" stop-color="#EA376D" stop-opacity="0.878"/>
<stop offset="0.515" stop-color="#ED3B70"/>
<stop offset="0.625" stop-color="#ED6892"/>
<stop offset="0.739" stop-color="#ED91AF"/>
<stop offset="0.844" stop-color="#EDAEC5"/>
<stop offset="0.935" stop-color="#EDC0D2"/>
<stop offset="1" stop-color="#EDC6D7"/>
</linearGradient>
<linearGradient id="paint5_linear_5027_16295" x1="21.5868" y1="14.9815" x2="49.5661" y2="84.6291" gradientUnits="userSpaceOnUse">
<stop stop-color="white" stop-opacity="0.8"/>
<stop offset="0.219" stop-color="#FFE9FF" stop-opacity="0.64"/>
<stop offset="0.709" stop-color="#FFB3FF" stop-opacity="0.237"/>
<stop offset="0.986" stop-color="#FF93FF" stop-opacity="0"/>
</linearGradient>
</defs>
</svg>
