<svg width="1000" height="1000" viewBox="0 0 1000 1000" fill="none" xmlns="http://www.w3.org/2000/svg">
<path fill-rule="evenodd" clip-rule="evenodd" d="M797.85 85.2823C798.727 85.698 799.591 86.1509 800.44 86.6412C811.602 93.0853 818.478 104.995 818.478 117.883V640.774V676.961V719.777C818.478 732.665 811.602 744.574 800.441 751.018L377.57 995.167C366.409 1001.61 352.657 1001.61 341.496 995.167C336.138 992.074 331.767 987.721 328.671 982.605L199.56 908.071C188.398 901.628 181.521 889.718 181.521 876.829V280.24C181.521 278.118 181.708 276.023 182.069 273.974C182.088 273.87 182.106 273.765 182.125 273.661C184.024 263.385 190.326 254.31 199.563 248.977L622.433 4.83309C633.595 -1.61103 647.346 -1.61103 658.508 4.83311L797.85 85.2823Z" fill="black"/>
<path d="M359.905 361.779L783.654 117.123V720.268L359.905 964.924L359.905 361.779Z" fill="#FF0000"/>
<path d="M359.905 361.779L783.654 117.123V720.268L359.905 964.924L359.905 361.779Z" fill="url(#paint0_linear_5075_20071)"/>
<path d="M217.673 279.818L363.652 364.09L363.652 961.918L217.673 877.647L217.673 279.818Z" fill="#FF0000"/>
<path d="M217.673 279.818L363.652 364.09L363.652 961.918L217.673 877.647L217.673 279.818Z" fill="url(#paint1_linear_5075_20071)"/>
<path d="M641.426 35.1442L783.506 117.174L359.757 361.825L217.677 279.795L641.426 35.1442Z" fill="#FF0000"/>
<path d="M641.426 35.1442L783.506 117.174L359.757 361.825L217.677 279.795L641.426 35.1442Z" fill="url(#paint2_linear_5075_20071)"/>
<path d="M563.759 796.695C667.285 736.924 751.209 591.563 751.209 472.022C751.209 352.48 667.285 304.026 563.759 363.797C460.233 423.568 376.309 568.929 376.309 688.47C376.309 808.012 460.233 856.465 563.759 796.695Z" fill="#020202" fill-opacity="0.3"/>
<path fill-rule="evenodd" clip-rule="evenodd" d="M461.234 829.778L445.613 820.759C411.685 801.17 390.689 759.181 390.689 699.45C390.689 579.989 474.678 434.507 578.134 374.776C629.866 344.911 676.727 342.102 710.661 361.692L726.282 370.71C692.347 351.12 645.486 353.93 593.761 383.795C490.304 443.526 406.31 589.007 406.31 708.469C406.31 768.2 427.305 810.188 461.234 829.778Z" fill="url(#paint3_linear_5075_20071)"/>
<path d="M593.759 816.691C697.285 756.92 781.209 611.559 781.209 492.018C781.209 372.476 697.285 324.022 593.759 383.793C490.233 443.564 406.309 588.925 406.309 708.466C406.309 828.008 490.233 876.462 593.759 816.691Z" fill="url(#paint4_linear_5075_20071)"/>
<path d="M726.027 400.444C726.205 400.342 726.375 400.235 726.54 400.125C726.704 400.013 726.847 399.884 726.968 399.739C727.09 399.593 727.189 399.431 727.263 399.252C727.338 399.074 727.375 398.861 727.375 398.613C727.375 398.408 727.335 398.269 727.255 398.195C727.176 398.122 727.076 398.087 726.955 398.092C726.832 398.098 726.696 398.137 726.546 398.206C726.397 398.277 726.251 398.354 726.111 398.435L724.96 399.099V401.06L726.027 400.444ZM724.96 404.871L724.006 405.422V398.71L726.21 397.437C726.912 397.032 727.441 396.877 727.796 396.975C728.152 397.071 728.33 397.462 728.33 398.142C728.33 398.747 728.184 399.275 727.895 399.723C727.604 400.172 727.245 400.547 726.813 400.85L728.442 402.861L727.361 403.485L725.859 401.482L724.96 402L724.96 404.871ZM730.015 398.482C730.015 397.747 729.912 397.131 729.707 396.635C729.501 396.137 729.215 395.773 728.849 395.54C728.485 395.306 728.059 395.21 727.572 395.248C727.086 395.285 726.561 395.466 725.999 395.791C725.427 396.12 724.897 396.548 724.406 397.076C723.913 397.604 723.486 398.192 723.12 398.848C722.756 399.502 722.47 400.196 722.265 400.931C722.058 401.666 721.955 402.4 721.955 403.136C721.955 403.828 722.05 404.422 722.237 404.919C722.423 405.417 722.692 405.791 723.044 406.042C723.394 406.293 723.817 406.409 724.314 406.386C724.811 406.365 725.371 406.174 725.999 405.811C726.561 405.487 727.086 405.062 727.572 404.538C728.059 404.015 728.485 403.425 728.849 402.77C729.215 402.117 729.501 401.425 729.707 400.695C729.912 399.966 730.015 399.228 730.015 398.482ZM731.138 397.834C731.138 398.742 731 399.649 730.724 400.554C730.448 401.459 730.074 402.313 729.601 403.115C729.128 403.918 728.581 404.644 727.958 405.297C727.335 405.948 726.683 406.471 725.999 406.866C725.241 407.304 724.546 407.55 723.913 407.607C723.282 407.664 722.739 407.553 722.285 407.274C721.831 406.997 721.476 406.561 721.218 405.969C720.96 405.378 720.832 404.649 720.832 403.784C720.832 402.876 720.97 401.97 721.246 401.065C721.522 400.159 721.897 399.304 722.369 398.503C722.841 397.701 723.393 396.971 724.019 396.319C724.646 395.665 725.306 395.138 725.999 394.738C726.683 394.343 727.335 394.112 727.958 394.045C728.581 393.976 729.128 394.072 729.601 394.328C730.074 394.583 730.448 395.006 730.724 395.592C731 396.179 731.138 396.926 731.138 397.834Z" fill="white"/>
<path d="M712.334 391.55C725.545 399.171 688.924 487.332 682.734 498.057C676.542 508.77 660.82 511.28 647.613 503.655C634.404 496.032 628.714 481.158 634.905 470.435C641.093 459.71 699.13 383.923 712.334 391.55Z" fill="url(#paint5_linear_5075_20071)"/>
<path d="M527.093 514.631C506.926 513.061 478.231 514.931 469.102 530.742C459.851 546.761 473.047 573.023 484.609 589.677C494.898 563.079 509.537 537.237 527.093 514.631Z" fill="url(#paint6_linear_5075_20071)"/>
<path d="M692.188 487.34C694.044 493.542 693.709 499.745 690.7 504.951C683.662 517.142 664.661 519.462 647.533 510.526C646.335 509.981 645.151 509.379 643.984 508.705C637.792 505.126 632.97 500.29 629.889 495.056C623.889 486.095 622.388 475.985 626.924 468.131C629.395 463.85 633.348 460.791 638.171 459.01C641.318 454.898 645.028 450.195 649.1 445.225C632.545 444.813 613.723 450.046 593.755 461.575C527.532 499.809 473.842 592.789 473.842 669.264C473.842 745.729 527.532 776.721 593.755 738.487C659.98 700.253 713.668 607.266 713.668 530.801C713.668 506.107 708.053 486.19 698.247 471.774C696.13 477.463 694.068 482.746 692.188 487.34Z" fill="url(#paint7_linear_5075_20071)"/>
<g opacity="0.2">
<path d="M782.622 117.934L640.837 36.0742L217.967 280.218L359.752 362.077L782.622 117.934Z" fill="black"/>
<path d="M359.899 362.031L782.77 117.882V719.776L359.899 963.925V958.766L217.963 876.828V280.24L359.899 362.178V362.031Z" fill="black"/>
</g>
<defs>
<linearGradient id="paint0_linear_5075_20071" x1="359.905" y1="694.818" x2="792.798" y2="681.941" gradientUnits="userSpaceOnUse">
<stop stop-color="#020202" stop-opacity="0.2"/>
<stop offset="1" stop-color="#020202" stop-opacity="0.06"/>
</linearGradient>
<linearGradient id="paint1_linear_5075_20071" x1="217.673" y1="605.761" x2="366.152" y2="605.678" gradientUnits="userSpaceOnUse">
<stop stop-color="#020202" stop-opacity="0"/>
<stop offset="1" stop-color="#020202" stop-opacity="0.2"/>
</linearGradient>
<linearGradient id="paint2_linear_5075_20071" x1="408.118" y1="169.845" x2="468.3" y2="275.245" gradientUnits="userSpaceOnUse">
<stop stop-color="#020202" stop-opacity="0.1"/>
<stop offset="0.5" stop-color="#020202" stop-opacity="0"/>
<stop offset="1" stop-color="#020202" stop-opacity="0.1"/>
</linearGradient>
<linearGradient id="paint3_linear_5075_20071" x1="406.31" y1="778.142" x2="690.102" y2="349.822" gradientUnits="userSpaceOnUse">
<stop stop-color="#DB6767"/>
<stop offset="1" stop-color="#E38989"/>
</linearGradient>
<linearGradient id="paint4_linear_5075_20071" x1="466.587" y1="832.865" x2="757.405" y2="388.678" gradientUnits="userSpaceOnUse">
<stop stop-color="#972424"/>
<stop offset="1" stop-color="#AC2B29"/>
</linearGradient>
<linearGradient id="paint5_linear_5075_20071" x1="648.933" y1="505.159" x2="713.67" y2="392.34" gradientUnits="userSpaceOnUse">
<stop stop-color="#E4E4E4"/>
<stop offset="1" stop-color="#FBFBFB"/>
</linearGradient>
<linearGradient id="paint6_linear_5075_20071" x1="518.025" y1="522.815" x2="473.843" y2="559.029" gradientUnits="userSpaceOnUse">
<stop stop-color="#FBFBFB"/>
<stop offset="1" stop-color="#E4E4E4"/>
</linearGradient>
<linearGradient id="paint7_linear_5075_20071" x1="519.033" y1="752.719" x2="658.471" y2="454.986" gradientUnits="userSpaceOnUse">
<stop stop-color="#E4E4E4"/>
<stop offset="1" stop-color="#FBFBFB"/>
</linearGradient>
</defs>
</svg>
