<svg width="1000" height="1000" viewBox="0 0 1000 1000" fill="none" xmlns="http://www.w3.org/2000/svg">
<path fill-rule="evenodd" clip-rule="evenodd" d="M797.85 85.2823C798.727 85.698 799.591 86.1509 800.44 86.6412C811.602 93.0853 818.478 104.995 818.478 117.883V640.774V676.961V719.777C818.478 732.665 811.602 744.574 800.441 751.018L377.57 995.167C366.409 1001.61 352.657 1001.61 341.496 995.167C336.138 992.074 331.767 987.721 328.671 982.605L199.56 908.071C188.398 901.628 181.521 889.718 181.521 876.829V280.24C181.521 278.118 181.708 276.023 182.069 273.974C182.088 273.87 182.106 273.765 182.125 273.661C184.024 263.385 190.326 254.31 199.563 248.977L622.433 4.83309C633.595 -1.61103 647.346 -1.61103 658.508 4.83311L797.85 85.2823Z" fill="black"/>
<path d="M359.905 361.781L783.654 117.125V720.27L359.905 964.926L359.905 361.781Z" fill="#FF0000"/>
<path d="M359.905 361.781L783.654 117.125V720.27L359.905 964.926L359.905 361.781Z" fill="url(#paint0_linear_5075_18912)"/>
<path d="M217.673 279.822L363.652 364.094L363.652 961.922L217.673 877.651L217.673 279.822Z" fill="#FF0000"/>
<path d="M217.673 279.822L363.652 364.094L363.652 961.922L217.673 877.651L217.673 279.822Z" fill="url(#paint1_linear_5075_18912)"/>
<path d="M641.426 35.1462L783.506 117.176L359.757 361.827L217.677 279.797L641.426 35.1462Z" fill="#FF0000"/>
<path d="M641.426 35.1462L783.506 117.176L359.757 361.827L217.677 279.797L641.426 35.1462Z" fill="url(#paint2_linear_5075_18912)"/>
<path fill-rule="evenodd" clip-rule="evenodd" d="M562.761 363.795C459.304 423.526 375.311 569.007 375.311 688.469C375.311 807.93 459.304 856.424 562.761 796.693C666.218 736.962 750.211 591.481 750.211 472.02C750.211 352.558 666.218 304.064 562.761 363.795Z" fill="#020202" fill-opacity="0.3"/>
<path fill-rule="evenodd" clip-rule="evenodd" d="M461.234 829.778L445.613 820.759C411.685 801.17 390.689 759.181 390.689 699.45C390.689 579.989 474.678 434.507 578.134 374.776C629.866 344.911 676.727 342.102 710.661 361.692L726.282 370.71C692.347 351.12 645.486 353.93 593.761 383.795C490.304 443.526 406.31 589.007 406.31 708.469C406.31 768.2 427.305 810.188 461.234 829.778Z" fill="url(#paint3_linear_5075_18912)"/>
<path d="M593.759 808.034C693.144 750.654 773.711 611.107 773.711 496.348C773.711 381.588 693.144 335.072 593.759 392.452C494.374 449.832 413.807 589.379 413.807 704.139C413.807 818.899 494.374 865.414 593.759 808.034Z" fill="url(#paint4_linear_5075_18912)"/>
<path fill-rule="evenodd" clip-rule="evenodd" d="M593.761 383.791C490.304 443.522 406.311 589.003 406.311 708.465C406.311 827.926 490.304 876.42 593.761 816.689C697.218 756.958 781.211 611.477 781.211 492.016C781.211 372.554 697.218 324.06 593.761 383.791ZM593.761 401.107C688.941 346.155 766.215 390.769 766.215 500.674C766.215 610.578 688.941 744.421 593.761 799.373C498.581 854.326 421.307 809.711 421.307 699.807C421.307 589.902 498.581 456.059 593.761 401.107Z" fill="url(#paint5_linear_5075_18912)"/>
<path fill-rule="evenodd" clip-rule="evenodd" d="M611.985 774.669C633.966 749.291 651.318 716.193 658.172 682.698C670.891 620.544 642.679 580.409 595.212 593.128C553.74 604.24 529.092 569.175 540.205 514.872C551.317 460.569 594.008 407.46 635.48 396.348L635.833 396.232C704.431 378.005 754.963 421.239 754.963 507.168C754.963 602.785 692.394 717.785 611.985 774.669Z" fill="url(#paint6_linear_5075_18912)"/>
<path fill-rule="evenodd" clip-rule="evenodd" d="M575.528 425.818C553.546 451.196 536.195 484.294 529.341 517.789C516.622 579.943 544.833 620.078 592.3 607.359C633.772 596.247 658.42 631.312 647.308 685.615C636.195 739.918 593.504 793.027 552.033 804.139L551.679 804.256C483.082 822.482 432.549 779.249 432.549 693.32C432.549 597.703 495.119 482.702 575.528 425.818Z" fill="url(#paint7_linear_5075_18912)"/>
<path fill-rule="evenodd" clip-rule="evenodd" d="M733.861 516.529C724.473 521.677 717.203 526.957 711.105 533.461C709.346 535.286 706.534 536.91 706.294 539.624C707.239 540.161 707.351 541.852 708.178 542.874C709.582 544.769 712.04 547.002 714.273 547.614C716.737 548.359 719.2 549.096 721.784 549.499C726.355 550.124 731.517 549.033 735.968 549.716C738.557 550.114 741.128 551.066 743.717 551.609C745.003 551.949 745.817 553.241 747.466 552.96V552.549C746.639 551.811 746.409 550.185 745.592 549.294C744.421 548.624 743.246 548.078 742.071 547.409C738.667 544.092 734.44 541.932 729.876 540.773C726.119 539.956 717.904 540.636 716.386 536.515C716.386 536.515 716.263 536.441 716.148 536.375C718.729 534.612 721.784 531.763 724.245 529.518C728.227 526.003 731.863 524.179 735.968 520.593C737.848 518.964 739.725 517.198 741.609 515.444V514.217C739.487 513.009 737.968 510.63 735.74 509.616C729.763 507.111 723.187 505.089 716.386 504.134C712.744 503.524 708.053 504.482 704.181 504.408C702.78 504.404 700.437 505.355 699.613 504.468C697.5 502.71 696.322 499.466 694.801 496.82C691.403 491.339 688.112 484.983 685.185 478.804C683.075 474.741 681.784 470.211 679.203 466.823C667.116 450.772 653.984 444.412 633.81 442.377C629.47 442.033 624.31 443.794 618.801 445.487C615.864 447.038 612.935 448.469 610.003 450.029C608.123 450.162 606.243 448.668 604.604 448.399C597.916 447.388 580.681 446.776 575.752 463.567C572.584 474.205 580.443 478.334 583.142 481.244C585.135 483.207 587.718 485.24 589.119 487.95C589.941 489.779 590.177 492.082 591.001 494.043C592.876 498.919 594.633 504.543 597.101 508.674C598.387 510.776 599.793 512.948 601.434 514.561C602.382 515.513 604.018 515.237 604.371 517.478C602.735 521.126 602.607 525.265 601.67 529.195C597.45 546.937 599.089 564.95 605.073 572.735C606.945 575.04 611.408 579.914 617.39 573.607C622.668 568.129 621.495 561.086 623.019 553.438C623.37 551.597 623.134 550.66 623.836 549.172V549.447C625.478 552.287 627.124 554.983 628.648 557.908C632.289 562.436 638.617 565.69 643.9 567.241C646.707 568.069 648.937 570.971 652.456 570.436V570.025L652.225 570.158C651.518 569.35 650.466 569.414 649.526 569.013C647.416 567.792 645.075 566.163 643.426 564.406C638.502 559.668 634.156 553.776 630.294 547.339C628.412 544.215 626.773 540.563 625.247 537.245C624.545 536.036 624.545 533.591 623.37 533.459C621.606 537.452 619.032 541.517 617.744 545.904C615.513 553.022 615.28 560.336 614.453 568.265C613.987 568.676 614.223 568.398 613.987 568.803C610.238 569.886 608.947 566.163 607.537 563.195C604.018 555.599 603.427 540.499 606.481 527.629C607.298 524.322 610.827 513.346 609.414 511.453C608.704 509.279 606.361 509.156 605.073 507.859C603.552 506.165 601.9 503.872 600.855 501.627C598.038 495.669 596.623 488.089 593.583 482.262C592.174 479.548 589.706 477.315 587.718 475.219C585.486 472.847 583.025 471.699 581.263 468.387C580.681 467.226 579.859 465.264 580.794 463.104C581.025 461.886 581.501 461.203 582.441 460.385C583.957 458.023 588.302 457.403 589.824 457.341C594.167 456.856 597.803 456.667 601.434 457.409C603.078 457.817 604.838 459.371 606.945 458.84L609.414 457.415C613.165 456.187 617.39 453.073 620.912 452.261C627.124 450.975 632.753 451.114 637.8 451.855C653.16 454.232 665.828 462.903 674.386 477.055C675.797 479.348 676.389 481.854 677.677 484.355C680.14 489.585 683.193 494.594 685.651 499.668C688.112 504.614 690.463 509.75 693.986 513.006C695.741 514.835 702.78 512.258 705.948 511.922C708.289 511.786 711.93 510.769 714.043 511.037C718.03 511.573 722.009 512.531 725.769 513.48C727.641 514.026 733.507 514.022 733.861 516.529Z" fill="url(#paint8_linear_5075_18912)"/>
<path fill-rule="evenodd" clip-rule="evenodd" d="M453.655 683.955C463.043 678.807 470.313 673.528 476.41 667.024C478.169 665.198 480.981 663.574 481.222 660.86C480.277 660.323 480.164 658.632 479.337 657.61C477.934 655.715 475.475 653.482 473.242 652.87C470.779 652.125 468.316 651.389 465.732 650.985C461.161 650.36 455.998 651.451 451.547 650.768C448.959 650.37 446.387 649.418 443.799 648.876C442.513 648.536 441.698 647.243 440.049 647.524V647.935C440.876 648.673 441.107 650.299 441.924 651.191C443.094 651.86 444.27 652.406 445.445 653.076C448.848 656.392 453.076 658.552 457.64 659.711C461.396 660.529 469.611 659.849 471.13 663.969C471.13 663.969 471.253 664.043 471.368 664.11C468.787 665.872 465.732 668.721 463.271 670.967C459.289 674.481 455.652 676.306 451.547 679.891C449.668 681.52 447.791 683.287 445.906 685.04V686.267C448.029 687.476 449.547 689.854 451.775 690.869C457.752 693.373 464.328 695.396 471.13 696.351C474.771 696.96 479.463 696.002 483.335 696.076C484.735 696.08 487.079 695.13 487.903 696.017C490.016 697.775 491.194 701.018 492.715 703.665C496.113 709.146 499.403 715.502 502.331 721.68C504.441 725.743 505.731 730.273 508.313 733.662C520.399 749.712 533.531 756.073 553.705 758.107C558.046 758.451 563.206 756.69 568.714 754.998C571.651 753.447 574.581 752.016 577.513 750.456C579.393 750.323 581.272 751.816 582.911 752.085C589.6 753.096 606.834 753.708 611.764 736.917C614.931 726.28 607.072 722.15 604.373 719.241C602.381 717.277 599.797 715.244 598.396 712.534C597.574 710.706 597.339 708.402 596.514 706.442C594.64 701.566 592.883 695.941 590.414 691.811C589.129 689.708 587.723 687.537 586.081 685.923C585.134 684.971 583.498 685.248 583.144 683.006C584.781 679.359 584.909 675.219 585.846 671.289C590.066 653.548 588.427 635.534 582.443 627.75C580.571 625.445 576.107 620.57 570.125 626.877C564.847 632.355 566.02 639.399 564.496 647.047C564.146 648.887 564.381 649.825 563.68 651.312V651.037C562.038 648.197 560.392 645.502 558.868 642.576C555.227 638.049 548.899 634.795 543.616 633.243C540.809 632.416 538.579 629.513 535.06 630.049V630.46L535.291 630.327C535.997 631.134 537.05 631.07 537.99 631.471C540.1 632.692 542.44 634.321 544.089 636.078C549.014 640.816 553.359 646.708 557.221 653.145C559.103 656.269 560.742 659.921 562.269 663.239C562.97 664.449 562.97 666.894 564.146 667.025C565.91 663.032 568.484 658.968 569.772 654.581C572.002 647.462 572.235 640.148 573.062 632.219C573.528 631.808 573.293 632.086 573.528 631.681C577.278 630.599 578.568 634.321 579.979 637.289C583.498 644.885 584.089 659.985 581.034 672.855C580.217 676.163 576.689 687.139 578.102 689.031C578.811 691.206 581.154 691.329 582.443 692.625C583.964 694.32 585.615 696.613 586.66 698.857C589.477 704.815 590.893 712.395 593.933 718.222C595.341 720.936 597.81 723.169 599.797 725.266C602.03 727.637 604.491 728.786 606.253 732.098C606.834 733.258 607.656 735.22 606.721 737.38C606.491 738.599 606.015 739.282 605.075 740.099C603.559 742.462 599.213 743.081 597.692 743.143C593.349 743.628 589.713 743.818 586.081 743.075C584.437 742.667 582.678 741.113 580.57 741.644L578.102 743.069C574.35 744.298 570.125 747.412 566.604 748.223C560.392 749.51 554.763 749.371 549.716 748.63C534.356 746.253 521.688 737.581 513.129 723.429C511.718 721.136 511.127 718.63 509.839 716.13C507.375 710.899 504.323 705.89 501.864 700.816C499.404 695.87 497.053 690.734 493.529 687.479C491.775 685.65 484.735 688.227 481.568 688.562C479.227 688.698 475.586 689.715 473.473 689.448C469.486 688.911 465.506 687.953 461.747 687.004C459.875 686.458 454.008 686.463 453.655 683.955Z" fill="url(#paint9_linear_5075_18912)"/>
<g opacity="0.2">
<path d="M782.622 117.934L640.837 36.0742L217.967 280.218L359.752 362.077L782.622 117.934Z" fill="black"/>
<path d="M359.899 362.031L782.77 117.882V719.776L359.899 963.925V958.766L217.963 876.828V280.24L359.899 362.178V362.031Z" fill="black"/>
</g>
<defs>
<linearGradient id="paint0_linear_5075_18912" x1="359.905" y1="694.82" x2="792.798" y2="681.943" gradientUnits="userSpaceOnUse">
<stop stop-color="#020202" stop-opacity="0.2"/>
<stop offset="1" stop-color="#020202" stop-opacity="0.06"/>
</linearGradient>
<linearGradient id="paint1_linear_5075_18912" x1="217.673" y1="605.765" x2="366.152" y2="605.682" gradientUnits="userSpaceOnUse">
<stop stop-color="#020202" stop-opacity="0"/>
<stop offset="1" stop-color="#020202" stop-opacity="0.2"/>
</linearGradient>
<linearGradient id="paint2_linear_5075_18912" x1="408.118" y1="169.847" x2="468.3" y2="275.247" gradientUnits="userSpaceOnUse">
<stop stop-color="#020202" stop-opacity="0.1"/>
<stop offset="0.5" stop-color="#020202" stop-opacity="0"/>
<stop offset="1" stop-color="#020202" stop-opacity="0.1"/>
</linearGradient>
<linearGradient id="paint3_linear_5075_18912" x1="400.315" y1="796.771" x2="710.905" y2="362.503" gradientUnits="userSpaceOnUse">
<stop stop-color="#10A2C7"/>
<stop offset="1" stop-color="#12B4DC"/>
</linearGradient>
<linearGradient id="paint4_linear_5075_18912" x1="449.023" y1="793.193" x2="755.802" y2="421.503" gradientUnits="userSpaceOnUse">
<stop stop-color="#E4E4E4"/>
<stop offset="1" stop-color="#FBFBFB"/>
</linearGradient>
<linearGradient id="paint5_linear_5075_18912" x1="475.027" y1="837.734" x2="732.762" y2="374.447" gradientUnits="userSpaceOnUse">
<stop stop-color="#0A657C"/>
<stop offset="1" stop-color="#0C7691"/>
</linearGradient>
<linearGradient id="paint6_linear_5075_18912" x1="564.533" y1="474.192" x2="747.466" y2="552.957" gradientUnits="userSpaceOnUse">
<stop stop-color="#E37F0C"/>
<stop offset="1" stop-color="#F3921F"/>
</linearGradient>
<linearGradient id="paint7_linear_5075_18912" x1="649.973" y1="661.779" x2="445.541" y2="615.135" gradientUnits="userSpaceOnUse">
<stop stop-color="#0C7691"/>
<stop offset="1" stop-color="#0A657C"/>
</linearGradient>
<linearGradient id="paint8_linear_5075_18912" x1="610.301" y1="560.15" x2="683.198" y2="447.313" gradientUnits="userSpaceOnUse">
<stop stop-color="#E4E4E4"/>
<stop offset="1" stop-color="#FBFBFB"/>
</linearGradient>
<linearGradient id="paint9_linear_5075_18912" x1="510.463" y1="747.892" x2="593.759" y2="641.703" gradientUnits="userSpaceOnUse">
<stop stop-color="#E4E4E4"/>
<stop offset="1" stop-color="#FBFBFB"/>
</linearGradient>
</defs>
</svg>
