<svg width="1000" height="1000" viewBox="0 0 1000 1000" fill="none" xmlns="http://www.w3.org/2000/svg">
<path fill-rule="evenodd" clip-rule="evenodd" d="M797.85 85.2823C798.727 85.698 799.591 86.1509 800.44 86.6412C811.602 93.0853 818.478 104.995 818.478 117.883V640.774V676.961V719.777C818.478 732.665 811.602 744.574 800.441 751.018L377.57 995.167C366.409 1001.61 352.657 1001.61 341.496 995.167C336.138 992.074 331.767 987.721 328.671 982.605L199.56 908.071C188.398 901.628 181.521 889.718 181.521 876.829V280.24C181.521 278.118 181.708 276.023 182.069 273.974C182.088 273.87 182.106 273.765 182.125 273.661C184.024 263.385 190.326 254.31 199.563 248.977L622.433 4.83309C633.595 -1.61103 647.346 -1.61103 658.508 4.83311L797.85 85.2823Z" fill="black"/>
<path d="M359.905 361.783L783.654 117.127V720.272L359.905 964.928L359.905 361.783Z" fill="#FF0000"/>
<path d="M359.905 361.783L783.654 117.127V720.272L359.905 964.928L359.905 361.783Z" fill="url(#paint0_linear_5075_19184)"/>
<path d="M217.673 279.822L363.652 364.094L363.652 961.922L217.673 877.651L217.673 279.822Z" fill="#FF0000"/>
<path d="M217.673 279.822L363.652 364.094L363.652 961.922L217.673 877.651L217.673 279.822Z" fill="url(#paint1_linear_5075_19184)"/>
<path d="M641.426 35.1481L783.506 117.178L359.757 361.829L217.677 279.799L641.426 35.1481Z" fill="#FF0000"/>
<path d="M641.426 35.1481L783.506 117.178L359.757 361.829L217.677 279.799L641.426 35.1481Z" fill="url(#paint2_linear_5075_19184)"/>
<path d="M557.602 415.688C570.013 408.522 611.581 402.949 630.69 403.29C655.316 403.177 658.271 408.977 661.62 423.195L676.198 488.482C676.582 490.76 676.777 493.182 676.787 495.717C676.787 495.694 676.788 495.67 676.788 495.647C676.786 493.055 676.589 490.579 676.197 488.253L680.531 507.589C683.88 524.309 683.88 526.357 683.88 528.632C683.88 536.664 681.912 544.934 678.315 553.19C681.913 544.933 683.881 536.662 683.881 528.629C683.881 526.354 683.881 524.306 680.532 507.587C719.539 504.63 741.21 524.876 741.21 553.766C741.21 590.618 718.751 650.219 629.508 701.743C513.275 768.85 366.309 765.438 366.309 693.781C366.309 650.105 409.256 618.485 442.353 597.557L449.641 572.65C449.316 574.245 449.182 575.781 449.247 577.199C449.182 575.781 449.318 574.245 449.643 572.65C451.807 563.448 468.31 500.153 468.357 499.97C474.268 477.449 481.951 463.686 493.771 456.862C506.183 449.696 515.836 456.862 529.035 449.241C542.629 441.393 545.978 422.398 557.602 415.688Z" fill="#020202" fill-opacity="0.3"/>
<path fill-rule="evenodd" clip-rule="evenodd" d="M466.73 608.54L474.018 583.631L474.132 583.16C476.699 572.453 492.734 510.951 492.734 510.951C498.645 488.43 506.329 474.667 518.149 467.842C530.559 460.677 540.215 467.842 553.412 460.222C567.006 452.374 570.355 433.379 581.978 426.668C594.393 419.503 635.958 413.929 655.071 414.271C665.99 414.22 672.652 415.333 676.969 417.828L692.589 426.847C688.272 424.352 681.61 423.239 670.692 423.289C651.578 422.948 610.014 428.522 597.598 435.687C585.976 442.398 582.627 461.393 569.033 469.241C555.835 476.861 546.179 469.696 533.77 476.861C521.949 483.686 514.265 497.448 508.355 519.969C508.355 519.969 492.32 581.472 489.752 592.179L489.644 592.65L482.351 617.559L466.73 608.54Z" fill="url(#paint3_linear_5075_19184)"/>
<path fill-rule="evenodd" clip-rule="evenodd" d="M718.496 518.504C728.621 519.241 737.219 521.803 744.193 525.828L759.814 534.846C749.911 529.128 736.714 526.362 720.528 527.589L718.496 518.504Z" fill="url(#paint4_linear_5075_19184)"/>
<path fill-rule="evenodd" clip-rule="evenodd" d="M482.35 617.558C449.257 638.486 406.31 670.106 406.31 713.783C406.31 732.17 415.984 746.064 432.344 755.429V755.43L416.723 746.411V746.41C400.363 737.045 390.689 723.151 390.689 704.764C390.689 661.087 433.637 629.467 466.729 608.539L482.35 617.558Z" fill="url(#paint5_linear_5075_19184)"/>
<path fill-rule="evenodd" clip-rule="evenodd" d="M720.532 527.588C723.881 544.308 723.881 546.355 723.881 548.63C723.881 580.477 692.951 616.078 652.171 639.623C559.973 692.853 479.398 677.043 479.398 635.869C479.388 630.165 480.394 623.931 482.353 617.557C449.256 638.485 406.309 670.105 406.309 713.782C406.309 785.439 553.274 788.851 669.508 721.744C758.751 670.219 781.21 610.619 781.21 573.767C781.21 544.877 759.539 524.631 720.532 527.588Z" fill="url(#paint6_linear_5075_19184)"/>
<path fill-rule="evenodd" clip-rule="evenodd" d="M656.506 590.489C681.132 576.271 716.789 549.769 716.789 515.875C716.788 513.282 716.591 510.807 716.198 508.481L701.62 443.194C698.271 428.976 695.316 423.176 670.69 423.289C651.581 422.948 610.013 428.521 597.601 435.687C585.978 442.398 582.629 461.393 569.036 469.241C555.836 476.861 546.183 469.696 533.772 476.861C521.951 483.686 514.268 497.448 508.358 519.969C508.358 519.969 491.809 583.437 489.642 592.65C489.317 594.245 489.183 595.781 489.248 597.199C489.051 618.241 560.564 645.653 656.506 590.489Z" fill="url(#paint7_linear_5075_19184)"/>
<path d="M720.531 527.59C723.88 544.31 723.88 546.357 723.88 548.632C723.88 580.48 692.95 616.081 652.17 639.625C559.972 692.856 479.397 677.046 479.397 635.871C479.387 630.167 480.393 623.933 482.352 617.559L489.641 592.65C489.316 594.246 489.182 595.781 489.247 597.2C489.247 618.128 560.76 645.539 656.504 590.261C681.13 576.044 716.788 549.542 716.788 515.647C716.786 513.055 716.589 510.58 716.197 508.254L720.531 527.59Z" fill="url(#paint8_linear_5075_19184)"/>
<g opacity="0.2">
<path d="M782.622 117.934L640.837 36.0742L217.967 280.218L359.752 362.077L782.622 117.934Z" fill="black"/>
<path d="M359.899 362.031L782.77 117.882V719.776L359.899 963.925V958.766L217.963 876.828V280.24L359.899 362.178V362.031Z" fill="black"/>
</g>
<defs>
<linearGradient id="paint0_linear_5075_19184" x1="359.905" y1="694.822" x2="792.798" y2="681.944" gradientUnits="userSpaceOnUse">
<stop stop-color="#020202" stop-opacity="0.2"/>
<stop offset="1" stop-color="#020202" stop-opacity="0.06"/>
</linearGradient>
<linearGradient id="paint1_linear_5075_19184" x1="217.673" y1="605.765" x2="366.152" y2="605.682" gradientUnits="userSpaceOnUse">
<stop stop-color="#020202" stop-opacity="0"/>
<stop offset="1" stop-color="#020202" stop-opacity="0.2"/>
</linearGradient>
<linearGradient id="paint2_linear_5075_19184" x1="408.118" y1="169.849" x2="468.3" y2="275.249" gradientUnits="userSpaceOnUse">
<stop stop-color="#020202" stop-opacity="0.1"/>
<stop offset="0.5" stop-color="#020202" stop-opacity="0"/>
<stop offset="1" stop-color="#020202" stop-opacity="0.1"/>
</linearGradient>
<linearGradient id="paint3_linear_5075_19184" x1="466.73" y1="608.54" x2="685.454" y2="414.432" gradientUnits="userSpaceOnUse">
<stop stop-color="#FF8787"/>
<stop offset="1" stop-color="#FF7979"/>
</linearGradient>
<linearGradient id="paint4_linear_5075_19184" x1="745.288" y1="526.46" x2="718.745" y2="526.558" gradientUnits="userSpaceOnUse">
<stop stop-color="#FF8787"/>
<stop offset="1" stop-color="#FF7979"/>
</linearGradient>
<linearGradient id="paint5_linear_5075_19184" x1="390.683" y1="731.38" x2="486.541" y2="619.978" gradientUnits="userSpaceOnUse">
<stop stop-color="#FF8787"/>
<stop offset="1" stop-color="#FF7979"/>
</linearGradient>
<linearGradient id="paint6_linear_5075_19184" x1="757.569" y1="532.138" x2="437.513" y2="749.567" gradientUnits="userSpaceOnUse">
<stop stop-color="#FF0E0E"/>
<stop offset="0.5" stop-color="#EE0000"/>
<stop offset="1" stop-color="#D30000"/>
</linearGradient>
<linearGradient id="paint7_linear_5075_19184" x1="489.233" y1="600.242" x2="716.789" y2="508.595" gradientUnits="userSpaceOnUse">
<stop stop-color="#D30000"/>
<stop offset="0.5" stop-color="#FE1A1A"/>
<stop offset="1" stop-color="#FF0E0E"/>
</linearGradient>
<linearGradient id="paint8_linear_5075_19184" x1="479.397" y1="624.107" x2="716.788" y2="555.684" gradientUnits="userSpaceOnUse">
<stop stop-color="#171717"/>
<stop offset="0.5" stop-color="#2E2E2E"/>
<stop offset="1" stop-color="#3B3B3B"/>
</linearGradient>
</defs>
</svg>
