<svg width="1000" height="1000" viewBox="0 0 1000 1000" fill="none" xmlns="http://www.w3.org/2000/svg">
<path fill-rule="evenodd" clip-rule="evenodd" d="M797.85 85.2823C798.727 85.698 799.591 86.1509 800.44 86.6412C811.602 93.0853 818.478 104.995 818.478 117.883V640.774V676.961V719.777C818.478 732.665 811.602 744.574 800.441 751.018L377.57 995.167C366.409 1001.61 352.657 1001.61 341.496 995.167C336.138 992.074 331.767 987.721 328.671 982.605L199.56 908.071C188.398 901.628 181.521 889.718 181.521 876.829V280.24C181.521 278.118 181.708 276.023 182.069 273.974C182.088 273.87 182.106 273.765 182.125 273.661C184.024 263.385 190.326 254.31 199.563 248.977L622.433 4.83309C633.595 -1.61103 647.346 -1.61103 658.508 4.83311L797.85 85.2823Z" fill="black"/>
<path d="M359.905 361.779L783.654 117.123V720.268L359.905 964.924L359.905 361.779Z" fill="#FF0000"/>
<path d="M359.905 361.779L783.654 117.123V720.268L359.905 964.924L359.905 361.779Z" fill="url(#paint0_linear_5075_20151)"/>
<path d="M217.673 279.818L363.652 364.09L363.652 961.918L217.673 877.647L217.673 279.818Z" fill="#FF0000"/>
<path d="M217.673 279.818L363.652 364.09L363.652 961.918L217.673 877.647L217.673 279.818Z" fill="url(#paint1_linear_5075_20151)"/>
<path d="M641.426 35.1442L783.506 117.174L359.757 361.825L217.677 279.795L641.426 35.1442Z" fill="#FF0000"/>
<path d="M641.426 35.1442L783.506 117.174L359.757 361.825L217.677 279.795L641.426 35.1442Z" fill="url(#paint2_linear_5075_20151)"/>
<path fill-rule="evenodd" clip-rule="evenodd" d="M512.799 693.838L479.022 713.339L468.337 678.057L418.528 706.814L407.839 754.437L374.926 773.439L424.094 570.767L464.272 547.569L512.799 693.838ZM442.683 594.485L426.22 670.169L460.415 650.427L443.749 593.869L442.683 594.485Z" fill="#020202" fill-opacity="0.3"/>
<path d="M598.729 500.12L579.492 511.227V625.113L598.729 614.007V644.225L527.768 685.194V654.977L547.005 643.87V529.982L527.768 541.09V510.872L598.729 469.902V500.12Z" fill="#020202" fill-opacity="0.3"/>
<path d="M701.294 495.603L749.828 556.987L712.206 578.708L679.926 533.161L679.285 533.531L647.861 615.857L612.807 636.097L660.688 518.297L615.155 460.418L652.985 438.577L682.057 480.726L682.701 480.354L712.194 404.393L747.253 384.152L701.294 495.603Z" fill="#020202" fill-opacity="0.3"/>
<path fill-rule="evenodd" clip-rule="evenodd" d="M509.021 733.339L493.37 724.302L487.34 704.401L498.337 698.055L509.021 733.339Z" fill="url(#paint3_linear_5075_20151)"/>
<path fill-rule="evenodd" clip-rule="evenodd" d="M474.763 661.389L460.718 669.498L456.221 690.169L490.42 670.426L474.763 661.389Z" fill="url(#paint4_linear_5075_20151)"/>
<path fill-rule="evenodd" clip-rule="evenodd" d="M438.441 581.729L478.623 558.531L494.273 567.569L454.098 590.767L438.441 581.729Z" fill="url(#paint5_linear_5075_20151)"/>
<path d="M490.418 670.425L473.752 613.867L472.682 614.484L467.697 637.406L474.762 661.388L490.418 670.425Z" fill="url(#paint6_linear_5075_20151)"/>
<path d="M454.098 590.764L404.928 793.437L389.277 784.399L438.441 581.727L454.098 590.764Z" fill="url(#paint7_linear_5075_20151)"/>
<path fill-rule="evenodd" clip-rule="evenodd" d="M557.764 674.979V705.196L542.113 696.159V665.941L557.764 674.979Z" fill="url(#paint8_linear_5075_20151)"/>
<path fill-rule="evenodd" clip-rule="evenodd" d="M609.488 627.041L613.072 624.973L628.722 634.01L609.488 645.116V627.041Z" fill="url(#paint9_linear_5075_20151)"/>
<path fill-rule="evenodd" clip-rule="evenodd" d="M557.764 530.871V561.089L542.113 552.051V521.834L557.764 530.871Z" fill="url(#paint10_linear_5075_20151)"/>
<path d="M542.113 665.942L561.347 654.836L577.004 663.873L557.764 674.979L542.113 665.942Z" fill="url(#paint11_linear_5075_20151)"/>
<path d="M561.348 654.838V559.024L577.004 549.986V663.876L561.348 654.838Z" fill="url(#paint12_linear_5075_20151)"/>
<path d="M542.113 521.834L613.072 480.865L628.693 489.922L557.764 530.871L542.113 521.834Z" fill="url(#paint13_linear_5075_20151)"/>
<path fill-rule="evenodd" clip-rule="evenodd" d="M742.202 598.711L726.551 589.673L706.361 561.186L709.283 553.534L709.921 553.164L742.202 598.711Z" fill="url(#paint14_linear_5075_20151)"/>
<path fill-rule="evenodd" clip-rule="evenodd" d="M629.506 471.38L667.33 449.539L682.975 458.585L645.156 480.418L629.506 471.38Z" fill="url(#paint15_linear_5075_20151)"/>
<path fill-rule="evenodd" clip-rule="evenodd" d="M726.541 415.357L761.594 395.117L777.286 404.174L777.154 404.39L777.25 404.155L742.198 424.394L726.541 415.357Z" fill="url(#paint16_linear_5075_20151)"/>
<path d="M742.197 424.393L712.699 500.356L712.056 500.727L700.115 483.412L726.54 415.355L742.197 424.393Z" fill="url(#paint17_linear_5075_20151)"/>
<path d="M690.686 538.298L642.803 656.099L627.152 647.061L675.036 529.26L690.686 538.298Z" fill="url(#paint18_linear_5075_20151)"/>
<path d="M675.038 529.262L629.506 471.383L645.156 480.421L690.689 538.3L675.038 529.262Z" fill="url(#paint19_linear_5075_20151)"/>
<path d="M509.023 733.338L498.337 698.056L448.528 726.813L437.839 774.436L404.926 793.438L454.094 590.765L494.272 567.568L542.799 713.837L509.023 733.338ZM473.749 613.868L472.682 614.484L456.22 690.168L490.415 670.426L473.749 613.868Z" fill="url(#paint20_linear_5075_20151)"/>
<path d="M557.768 705.193V674.976L577.005 663.869V549.982L557.768 561.088V530.871L628.729 489.901V520.119L609.492 531.226V645.113L628.729 634.006V664.223L557.768 705.193Z" fill="url(#paint21_linear_5075_20151)"/>
<path d="M779.828 576.986L742.206 598.707L709.926 553.16L709.285 553.53L677.861 635.856L642.807 656.095L690.689 538.296L645.156 480.417L682.985 458.576L712.056 500.725L712.701 500.352L742.194 424.392L777.253 404.151L731.293 515.602L779.828 576.986Z" fill="url(#paint22_linear_5075_20151)"/>
<g opacity="0.2">
<path d="M782.622 117.934L640.837 36.0742L217.967 280.218L359.752 362.077L782.622 117.934Z" fill="black"/>
<path d="M359.899 362.031L782.77 117.882V719.776L359.899 963.925V958.766L217.963 876.828V280.24L359.899 362.178V362.031Z" fill="black"/>
</g>
<defs>
<linearGradient id="paint0_linear_5075_20151" x1="359.905" y1="694.818" x2="792.798" y2="681.941" gradientUnits="userSpaceOnUse">
<stop stop-color="#020202" stop-opacity="0.2"/>
<stop offset="1" stop-color="#020202" stop-opacity="0.06"/>
</linearGradient>
<linearGradient id="paint1_linear_5075_20151" x1="217.673" y1="605.761" x2="366.152" y2="605.678" gradientUnits="userSpaceOnUse">
<stop stop-color="#020202" stop-opacity="0"/>
<stop offset="1" stop-color="#020202" stop-opacity="0.2"/>
</linearGradient>
<linearGradient id="paint2_linear_5075_20151" x1="408.118" y1="169.845" x2="468.3" y2="275.245" gradientUnits="userSpaceOnUse">
<stop stop-color="#020202" stop-opacity="0.1"/>
<stop offset="0.5" stop-color="#020202" stop-opacity="0"/>
<stop offset="1" stop-color="#020202" stop-opacity="0.1"/>
</linearGradient>
<linearGradient id="paint3_linear_5075_20151" x1="494.272" y1="729.494" x2="490.414" y2="702.627" gradientUnits="userSpaceOnUse">
<stop stop-color="#C6F0CD"/>
<stop offset="1" stop-color="#92E3A0"/>
</linearGradient>
<linearGradient id="paint4_linear_5075_20151" x1="456.221" y1="681.132" x2="482.59" y2="665.908" gradientUnits="userSpaceOnUse">
<stop stop-color="#C6F0CD"/>
<stop offset="1" stop-color="#92E3A0"/>
</linearGradient>
<linearGradient id="paint5_linear_5075_20151" x1="446.27" y1="586.248" x2="486.45" y2="563.05" gradientUnits="userSpaceOnUse">
<stop stop-color="#C6F0CD"/>
<stop offset="1" stop-color="#92E3A0"/>
</linearGradient>
<linearGradient id="paint6_linear_5075_20151" x1="479.055" y1="663.867" x2="466.357" y2="633.067" gradientUnits="userSpaceOnUse">
<stop stop-color="#C6F0CD"/>
<stop offset="1" stop-color="#92E3A0"/>
</linearGradient>
<linearGradient id="paint7_linear_5075_20151" x1="398.729" y1="779.027" x2="438.44" y2="581.727" gradientUnits="userSpaceOnUse">
<stop stop-color="#C6F0CD"/>
<stop offset="1" stop-color="#92E3A0"/>
</linearGradient>
<linearGradient id="paint8_linear_5075_20151" x1="549.942" y1="700.677" x2="549.942" y2="670.46" gradientUnits="userSpaceOnUse">
<stop stop-color="#A6E9B6"/>
<stop offset="1" stop-color="#7FDF96"/>
</linearGradient>
<linearGradient id="paint9_linear_5075_20151" x1="620.9" y1="629.491" x2="609.491" y2="636.078" gradientUnits="userSpaceOnUse">
<stop stop-color="#A6E9B6"/>
<stop offset="1" stop-color="#7FDF96"/>
</linearGradient>
<linearGradient id="paint10_linear_5075_20151" x1="549.004" y1="555.078" x2="549.938" y2="526.353" gradientUnits="userSpaceOnUse">
<stop stop-color="#A6E9B6"/>
<stop offset="1" stop-color="#7FDF96"/>
</linearGradient>
<linearGradient id="paint11_linear_5075_20151" x1="549.942" y1="670.461" x2="569.177" y2="659.355" gradientUnits="userSpaceOnUse">
<stop stop-color="#A6E9B6"/>
<stop offset="1" stop-color="#7FDF96"/>
</linearGradient>
<linearGradient id="paint12_linear_5075_20151" x1="569.176" y1="659.357" x2="569.176" y2="554.505" gradientUnits="userSpaceOnUse">
<stop stop-color="#A6E9B6"/>
<stop offset="1" stop-color="#7FDF96"/>
</linearGradient>
<linearGradient id="paint13_linear_5075_20151" x1="549.942" y1="526.353" x2="620.901" y2="485.384" gradientUnits="userSpaceOnUse">
<stop stop-color="#A6E9B6"/>
<stop offset="1" stop-color="#7FDF96"/>
</linearGradient>
<linearGradient id="paint14_linear_5075_20151" x1="734.007" y1="593.977" x2="706.362" y2="555.22" gradientUnits="userSpaceOnUse">
<stop stop-color="#14EDC9"/>
<stop offset="1" stop-color="#11D7B6"/>
</linearGradient>
<linearGradient id="paint15_linear_5075_20151" x1="637.328" y1="475.899" x2="675.158" y2="454.058" gradientUnits="userSpaceOnUse">
<stop stop-color="#14EDC9"/>
<stop offset="1" stop-color="#11D7B6"/>
</linearGradient>
<linearGradient id="paint16_linear_5075_20151" x1="769.5" y1="399.681" x2="734.445" y2="419.92" gradientUnits="userSpaceOnUse">
<stop stop-color="#14EDC9"/>
<stop offset="1" stop-color="#11D7B6"/>
</linearGradient>
<linearGradient id="paint17_linear_5075_20151" x1="734.368" y1="419.874" x2="700.116" y2="490.308" gradientUnits="userSpaceOnUse">
<stop stop-color="#14EDC9"/>
<stop offset="1" stop-color="#11D7B6"/>
</linearGradient>
<linearGradient id="paint18_linear_5075_20151" x1="636.225" y1="648.752" x2="681.048" y2="533.238" gradientUnits="userSpaceOnUse">
<stop stop-color="#14EDC9"/>
<stop offset="1" stop-color="#11D7B6"/>
</linearGradient>
<linearGradient id="paint19_linear_5075_20151" x1="682.975" y1="533.845" x2="637.332" y2="475.902" gradientUnits="userSpaceOnUse">
<stop stop-color="#14EDC9"/>
<stop offset="1" stop-color="#11D7B6"/>
</linearGradient>
<linearGradient id="paint20_linear_5075_20151" x1="404.927" y1="793.44" x2="779.827" y2="405.644" gradientUnits="userSpaceOnUse">
<stop stop-color="#49C468"/>
<stop offset="0.3" stop-color="#53C392"/>
<stop offset="1" stop-color="#009D9A"/>
</linearGradient>
<linearGradient id="paint21_linear_5075_20151" x1="404.93" y1="793.436" x2="779.83" y2="405.64" gradientUnits="userSpaceOnUse">
<stop stop-color="#49C468"/>
<stop offset="0.3" stop-color="#53C392"/>
<stop offset="1" stop-color="#009D9A"/>
</linearGradient>
<linearGradient id="paint22_linear_5075_20151" x1="404.929" y1="793.436" x2="779.829" y2="405.64" gradientUnits="userSpaceOnUse">
<stop stop-color="#49C468"/>
<stop offset="0.3" stop-color="#53C392"/>
<stop offset="1" stop-color="#009D9A"/>
</linearGradient>
</defs>
</svg>
