<svg width="1000" height="1000" viewBox="0 0 1000 1000" fill="none" xmlns="http://www.w3.org/2000/svg">
<path fill-rule="evenodd" clip-rule="evenodd" d="M797.85 85.2823C798.727 85.698 799.591 86.1509 800.44 86.6412C811.602 93.0853 818.478 104.995 818.478 117.883V640.774V676.961V719.777C818.478 732.665 811.602 744.574 800.441 751.018L377.57 995.167C366.409 1001.61 352.657 1001.61 341.496 995.167C336.138 992.074 331.767 987.721 328.671 982.605L199.56 908.071C188.398 901.628 181.521 889.718 181.521 876.829V280.24C181.521 278.118 181.708 276.023 182.069 273.974C182.088 273.87 182.106 273.765 182.125 273.661C184.024 263.385 190.326 254.31 199.563 248.977L622.433 4.83309C633.595 -1.61103 647.346 -1.61103 658.508 4.83311L797.85 85.2823Z" fill="black"/>
<path d="M359.905 361.781L783.654 117.125V720.27L359.905 964.926L359.905 361.781Z" fill="#FF0000"/>
<path d="M359.905 361.781L783.654 117.125V720.27L359.905 964.926L359.905 361.781Z" fill="url(#paint0_linear_5075_19097)"/>
<path d="M217.673 279.822L363.652 364.094L363.652 961.922L217.673 877.651L217.673 279.822Z" fill="#FF0000"/>
<path d="M217.673 279.822L363.652 364.094L363.652 961.922L217.673 877.651L217.673 279.822Z" fill="url(#paint1_linear_5075_19097)"/>
<path d="M641.426 35.1462L783.506 117.176L359.757 361.827L217.677 279.797L641.426 35.1462Z" fill="#FF0000"/>
<path d="M641.426 35.1462L783.506 117.176L359.757 361.827L217.677 279.797L641.426 35.1462Z" fill="url(#paint2_linear_5075_19097)"/>
<path d="M590.192 374.343C581.966 377.391 572.906 381.597 562.898 387.189C543.576 397.978 528.157 412.152 515.793 427.786C505.767 429.674 487.603 434.099 467.824 443.771C446.01 454.438 422.541 471.555 404.451 496.867C385.026 524.046 370.392 561.624 372.667 612.831C373.664 635.277 393.634 736.347 421.426 763.493C432.184 773.999 444.883 774.289 457.004 766.091C463.173 761.919 469.77 755.301 476.333 745.197C476.713 745.521 477.124 745.815 477.562 746.086C481.571 748.566 489.225 748.701 495.661 746.843C505.018 744.143 522.381 737.237 539.488 718.901C539.833 724.891 540.146 731.041 540.309 735.669V735.67C541.025 755.832 542.574 774.084 546.206 783.307V783.308C548.846 790.007 552.76 803.078 563.503 806.175C571.47 808.472 583.146 806.514 601.326 791.519C614.249 780.859 625.723 769.869 635.262 754.151C648.068 733.051 658.448 701.048 659.756 643.172L660.266 638.235L660.399 637.024L663.226 635.679C677.332 628.275 695.315 614.373 705.903 602.582C720.955 585.826 731.598 567.198 734.256 558.576C737.081 549.415 736.132 543.468 733.827 539.861C731.403 536.067 724.102 531.344 707.517 544.873C699.785 551.179 693.615 555.612 688.688 558.605C715.478 490.993 731.146 424.163 733.759 383.544C735.346 358.87 731.56 343.033 725.107 337.238C694.632 309.869 650.998 329.223 620.483 350.051C607.316 359.037 596.58 368.381 590.192 374.343Z" fill="#020202" fill-opacity="0.3"/>
<path fill-rule="evenodd" clip-rule="evenodd" d="M564.904 752.03C569.654 748.483 574.578 744.165 579.49 738.906C579.833 744.896 580.146 751.046 580.308 755.674V755.674C581.024 775.837 582.575 794.089 586.206 803.311V803.312C588.521 809.194 591.822 819.989 599.867 824.631L584.246 815.612C576.202 810.97 572.901 800.176 570.586 794.293V794.293C567.279 785.897 565.698 770.02 564.904 752.03Z" fill="url(#paint3_linear_5075_19097)"/>
<path fill-rule="evenodd" clip-rule="evenodd" d="M739.153 550.691C747.168 545.909 752.26 546.307 755.309 548.065L770.929 557.084C767.051 554.844 759.854 554.811 747.516 564.873C739.784 571.179 733.616 575.612 728.691 578.605C732.389 569.261 735.882 559.931 739.153 550.691Z" fill="url(#paint4_linear_5075_19097)"/>
<path fill-rule="evenodd" clip-rule="evenodd" d="M614.568 385.328C620.96 379.366 631.698 370.022 644.865 361.035C672.481 342.186 710.84 324.544 740.47 341.649L756.09 350.668C726.46 333.563 688.101 351.204 660.486 370.054C647.318 379.041 636.58 388.384 630.195 394.347L614.568 385.328Z" fill="url(#paint5_linear_5075_19097)"/>
<path fill-rule="evenodd" clip-rule="evenodd" d="M630.195 394.347C621.97 397.395 612.909 401.601 602.898 407.192C583.574 417.982 568.158 432.156 555.79 447.791L540.17 438.772C552.538 423.137 567.954 408.963 587.278 398.173C597.288 392.582 606.343 388.376 614.568 385.328L630.195 394.347Z" fill="url(#paint6_linear_5075_19097)"/>
<path fill-rule="evenodd" clip-rule="evenodd" d="M555.79 447.788C545.767 449.675 527.603 454.101 507.828 463.772C486.009 474.44 462.542 491.556 444.451 516.867C425.025 544.047 410.39 581.625 412.669 632.832C413.667 655.278 433.634 756.348 461.424 783.494C463.522 785.541 465.693 787.2 467.918 788.484L452.297 779.465C450.073 778.181 447.902 776.522 445.804 774.475C418.014 747.33 398.047 646.259 397.049 623.814C394.77 572.606 409.404 535.028 428.83 507.849C446.922 482.537 470.389 465.421 492.202 454.754C511.983 445.082 530.147 440.656 540.169 438.77L555.79 447.788Z" fill="url(#paint7_linear_5075_19097)"/>
<path d="M660.521 370.515C690.967 349.734 734.426 330.475 764.776 357.732C771.135 363.443 774.924 379.133 773.34 403.753C770.733 444.281 755.09 511.025 728.327 578.57L727.939 579.549L728.699 579.087C733.658 576.075 739.854 571.622 747.603 565.303C755.818 558.602 761.692 556.452 765.797 556.417C769.906 556.382 772.279 558.464 773.457 560.309C775.708 563.83 776.64 569.63 773.871 578.61C772.577 582.807 769.303 589.534 764.448 597.332C759.754 604.871 753.61 613.364 746.424 621.465L745.726 622.248C735.216 633.953 717.31 647.802 703.259 655.18L700.436 656.523L700.037 656.713L699.983 657.203L699.849 658.413L699.849 658.419L699.339 663.355L699.337 663.381V663.406C698.029 721.236 687.657 753.07 674.976 773.964C665.521 789.543 654.139 800.458 641.238 811.099C623.17 826.002 611.62 827.913 603.755 825.645C593.168 822.593 589.282 809.743 586.627 802.984V802.981L586.6 802.915C583.22 794.332 581.646 777.821 580.873 759.17L580.729 755.412V755.411C580.566 750.777 580.252 744.623 579.907 738.632L579.868 737.969L579.323 738.554C562.342 756.755 545.087 763.627 535.763 766.318C529.381 768.16 521.804 768.017 517.864 765.579L517.865 765.579C517.434 765.312 517.031 765.024 516.66 764.708L516.392 764.479L516.064 764.984C509.564 774.991 503.048 781.521 496.968 785.633C485.04 793.7 472.467 793.466 461.763 783.013C447.919 769.49 435.994 737.509 427.403 706.042C418.814 674.583 413.583 643.739 413.086 632.568C410.817 581.484 425.412 544.105 444.695 517.125C462.672 491.971 486.028 474.92 507.792 464.277C527.522 454.629 545.65 450.212 555.659 448.327L555.841 448.293L556.007 448.084C568.301 432.539 583.643 418.429 602.891 407.681C612.879 402.101 621.916 397.906 630.118 394.867L630.219 394.829L630.316 394.739C636.683 388.797 647.39 379.477 660.521 370.515Z" fill="#020202" stroke="#020202" stroke-width="0.969884"/>
<path d="M750.706 580.831C708.367 615.359 705.457 600.487 705.457 600.487C750.16 498.085 768.847 390.072 752.72 375.588C708.725 336.08 632.567 410.747 631.296 412.278L630.887 412.599C622.522 415.423 613.161 419.633 602.64 425.509C583.482 436.207 568.95 450.759 557.923 466.781C557.923 466.781 422.065 480.593 428.384 622.851C429.728 653.115 466.913 835.472 511.266 748.3C527.477 716.429 543.14 688.351 543.14 688.351C550.92 689.827 560.233 687.494 569.997 680.763L570.755 679.582C570.519 682.513 570.627 685.185 571.059 688.172C559.633 709.51 562.99 710.159 540.149 728.776C517.037 747.619 530.615 749.572 539.479 747.013C550.226 743.912 575.089 733.953 591.888 697.099L591.218 700.585C595.695 702.14 598.839 723.117 598.312 744.082C597.785 765.048 597.433 779.436 600.961 788.479C604.488 797.522 608.004 820.421 638.031 795.656C663.121 774.962 676.122 751.367 677.931 723.485C679.215 703.665 682.119 704.808 682.303 687.645L684.633 678.224C687.319 650.81 685.059 643.771 700.517 638.727L704.273 636.939C715.651 630.968 730.541 619.661 739.28 609.925C758.099 588.976 769.26 565.695 750.705 580.832L750.706 580.831Z" fill="url(#paint8_linear_5075_19097)"/>
<path fill-rule="evenodd" clip-rule="evenodd" d="M628.886 407.595C620.761 409.955 611.952 413.648 602.423 418.971C583.405 429.59 568.632 443.75 557.166 459.418C550.18 460.471 529.612 464.312 506.763 475.567C487.335 485.137 466.355 500.099 450.244 522.691C432.967 546.918 420.819 580.234 422.841 625.746C423.8 647.351 442.794 744.851 469.545 770.98C477.625 778.871 486.702 780.271 495.805 774.114C501.976 769.94 508.515 762.157 514.998 749.415C514.998 749.414 514.998 749.414 514.999 749.413C527.736 724.364 539.508 702.897 543.849 695.059C550.175 695.339 557.23 693.562 564.61 689.526C564.62 689.739 564.632 689.948 564.647 690.156C562.384 694.561 560.773 697.982 559.301 700.907C557.868 703.754 556.643 706 554.706 708.394C551.635 712.189 547.104 716.247 538.79 723.025L538.789 723.025C532.135 728.451 528.078 732.87 525.808 736.167C522.967 740.291 521.978 743.654 521.839 746.287C521.688 749.164 522.637 751.546 524.808 752.89C527.69 754.671 533.278 754.53 537.904 753.194C548.238 750.214 570.305 741.347 588.115 712.331C587.879 753.278 589.686 789.074 593.204 797.202V797.203C595.974 803.6 600.83 813.159 611.46 813.95C618.583 814.482 628.351 811.22 642.016 799.951C655.846 788.543 665.188 777.914 671.707 766.326C678.263 754.673 682.067 741.882 684.263 725.91C686.609 708.86 690.692 668.53 692.611 647.074C693.523 646.901 694.498 646.645 695.536 646.3C707.762 642.234 729.541 626.687 741.191 613.718C751.692 602.023 759.928 589.549 763.08 582.239C765.623 576.341 765.517 572.425 764.298 570.512C763.388 569.083 761.748 568.249 758.867 569.131C756.846 569.75 753.724 571.507 749.348 575.077C729.862 590.972 719.455 595.871 713.912 596.423C712.923 596.521 712.139 596.396 711.55 596.206C742.173 524.687 760.235 451.224 763.003 408.213C764.326 387.655 761.927 373.864 756.552 369.036C713.453 330.327 640.959 395.74 630.476 405.905C629.86 406.503 629.332 407.073 628.886 407.595ZM683.1 640.637C682.288 622.55 688.795 612.669 694.59 606.309C695.836 604.942 697.425 603.399 698.764 602.146C698.154 601.521 697.39 600.93 696.579 600.222C692.978 597.082 688.137 593.156 684.405 584.863C681.834 579.149 664.274 558.043 658.366 534.102C654.976 520.365 655.566 505.519 662.749 491.882C668.98 480.052 680.697 468.197 700.822 458.919C694.445 440.273 666.178 395.484 602.251 431.182C564.134 452.467 545.771 490.246 536.867 522.63L530.42 568.867C531.12 568.031 531.847 567.181 532.595 566.324C541.489 556.145 553.599 544.681 564.222 539.291C576.185 533.222 586.552 534.029 589.995 550.421C601.136 603.484 587.306 630.24 581.27 652.477C579.121 660.406 576.936 667.725 575.803 673.873C576.597 673.176 577.364 672.59 578.101 672.09C581.323 669.905 584.146 669.391 586.536 669.154C586.536 669.154 586.536 669.155 586.537 669.154C591.257 668.688 595.48 671.672 597.53 676.873C598.093 678.302 598.49 679.885 598.706 681.585C598.878 682.114 598.964 682.738 598.947 683.444C597.808 731.147 598.959 777.868 602.945 787.079C605.071 791.989 608.461 799.815 616.618 800.423C622.019 800.825 629.458 797.918 639.817 789.374C651.076 780.087 658.839 771.726 664.147 762.292C669.418 752.922 672.158 742.663 673.923 729.82C673.923 729.82 673.923 729.82 673.923 729.819C676.79 708.984 682.29 652.906 683.1 640.637ZM588.429 690.499L588.419 690.914L588.409 691.346C588.328 692.686 587.995 694.12 587.317 695.608C572.316 728.522 550.047 737.204 540.45 739.971C540.45 739.972 540.45 739.972 540.449 739.972C538.337 740.581 535.89 740.89 533.97 740.613C533.819 740.592 533.657 740.553 533.496 740.502C533.621 740.356 533.747 740.214 533.872 740.08C535.576 738.243 537.885 736.131 540.907 733.667C550.866 725.55 556.224 720.464 559.903 715.917C565.395 709.131 567.229 703.412 574.666 689.525C574.667 689.524 574.668 689.521 574.669 689.52C576.351 686.374 577.694 684.527 579.014 683.632C580.372 682.711 581.513 682.765 582.521 682.665C584.828 682.438 586.69 684.219 587.691 686.763C588.122 687.856 588.406 689.119 588.429 690.499ZM547.695 473.905C538.658 475.705 522.998 479.718 505.995 488.093C488.956 496.485 470.473 509.214 456.343 529.028C441.217 550.238 431.55 579.245 433.32 619.09C434.242 639.855 452.257 733.781 477.967 758.893C483.383 764.183 488.806 766.689 494.908 762.561C498.872 759.88 502.767 754.509 506.93 746.327C518.875 722.836 529.987 702.445 535.097 693.178C522.022 687.834 514.174 671.476 516.963 646.827C520.237 617.906 517.792 596.094 517.811 590.282C517.774 587.955 517.509 558.724 527.051 524.02C531.518 507.775 538.081 490.381 547.695 473.905ZM704.505 609.524C703.522 610.471 702.38 611.493 701.156 612.625C699.507 614.149 697.541 616.006 696.062 618.866C694.221 622.424 693.287 627.098 693.574 633.796C693.837 633.845 694.36 633.924 694.756 633.887C695.61 633.808 696.607 633.559 697.711 633.193C702.161 631.713 708.101 628.389 714.214 624.264C722.468 618.695 731.049 611.652 736.773 605.279C742.962 598.388 748.262 591.242 751.701 585.532L751.47 585.717C733.444 600.421 722.125 606.557 715.041 608.81C710.068 610.392 706.736 610.306 704.505 609.524ZM565.821 676.734C567.085 670.012 569.172 662.288 571.434 653.942C571.434 653.941 571.434 653.94 571.435 653.939C577.051 633.247 590.105 608.27 579.74 558.903C577.572 548.58 571.12 547.929 563.587 551.75C554.714 556.252 544.649 566.027 537.221 574.528C533.572 578.704 529.808 584.002 528.345 586.107C528.645 594.025 530.444 615.204 527.354 642.505C523.68 674.964 542.691 690.135 565.821 676.734ZM705.383 588.466C733.344 521.47 749.952 453.563 752.543 413.32C753.601 396.866 752.592 385.137 748.29 381.272C717.343 353.479 669.595 385.354 646.349 404.394C684.988 401.746 704.269 431.996 710.316 448.166C712.263 453.373 712.792 457.619 712.624 459.352C712.587 459.738 712.534 460.109 712.469 460.468C712.911 475.121 709.506 487.648 709.058 504.106C709.058 504.107 709.058 504.108 709.058 504.11C708.724 516.173 711.206 527.467 711.768 540.306C712.353 553.645 711.012 568.497 703.597 586.909C704.007 587.264 704.405 587.604 704.784 587.936C704.989 588.112 705.188 588.29 705.383 588.466ZM702.023 470.562C693.863 474.094 687.279 477.964 682.027 482.156C676.817 486.315 673.087 490.665 670.649 495.293C665.463 505.14 666.098 515.375 668.546 525.292C674.31 548.65 691.595 569.068 694.105 574.643C694.971 576.568 695.911 578.217 696.883 579.652C702.127 563.81 701.842 551.224 700.776 539.613C699.836 529.365 698.295 519.807 698.572 509.772C698.974 495.005 701.886 483.448 702.023 470.562ZM555.788 569.497C555.938 569.885 556.144 570.267 556.411 570.624C557.815 572.502 560.886 573.927 564.531 572.406C568.254 570.855 571.613 566.685 573.386 563.43C574.315 561.723 574.813 560.222 574.919 559.284C575.057 558.065 574.706 557.028 573.728 556.47C572.36 555.688 569.426 555.875 565.873 557.355C562.324 558.832 559.144 561.192 557.459 563.244C556.25 564.714 555.619 566.163 555.485 567.38L555.482 567.405C555.439 567.814 555.462 568.272 555.561 568.742C555.615 568.991 555.69 569.245 555.788 569.497ZM692.269 484.501C692.164 483.697 691.654 483.195 690.735 483.14C689.157 483.044 686.181 484.321 682.864 486.77C679.546 489.22 676.788 492.175 675.507 494.383C674.763 495.665 674.459 496.767 674.561 497.574V497.577C674.677 498.459 675.411 499.439 676.656 499.955C678.379 500.67 681.049 500.564 683.968 498.409C687.336 495.925 690.162 491.325 691.459 488.092C692.101 486.492 692.359 485.198 692.269 484.501ZM632.907 405.002C632.507 405.038 632.029 405.167 631.474 405.453C630.919 405.738 630.286 406.181 629.575 406.849C630.707 405.787 631.869 405.172 632.907 405.002Z" fill="url(#paint9_linear_5075_19097)"/>
<g opacity="0.2">
<path d="M640.837 36.0742L782.622 117.934L359.752 362.077L217.967 280.218L640.837 36.0742Z" fill="black"/>
<path d="M782.77 117.882L359.899 362.031V362.178L217.963 280.24V876.828L359.899 958.766V963.925L600.53 824.994C601.458 825.475 602.446 825.875 603.5 826.178C611.467 828.476 623.143 826.517 641.323 811.522C650.396 804.038 658.753 796.392 666.229 787.062L782.77 719.776V117.882Z" fill="black"/>
</g>
<defs>
<linearGradient id="paint0_linear_5075_19097" x1="359.905" y1="694.82" x2="792.798" y2="681.943" gradientUnits="userSpaceOnUse">
<stop stop-color="#020202" stop-opacity="0.2"/>
<stop offset="1" stop-color="#020202" stop-opacity="0.06"/>
</linearGradient>
<linearGradient id="paint1_linear_5075_19097" x1="217.673" y1="605.765" x2="366.152" y2="605.682" gradientUnits="userSpaceOnUse">
<stop stop-color="#020202" stop-opacity="0"/>
<stop offset="1" stop-color="#020202" stop-opacity="0.2"/>
</linearGradient>
<linearGradient id="paint2_linear_5075_19097" x1="408.118" y1="169.847" x2="468.3" y2="275.247" gradientUnits="userSpaceOnUse">
<stop stop-color="#020202" stop-opacity="0.1"/>
<stop offset="0.5" stop-color="#020202" stop-opacity="0"/>
<stop offset="1" stop-color="#020202" stop-opacity="0.1"/>
</linearGradient>
<linearGradient id="paint3_linear_5075_19097" x1="582.383" y1="814.538" x2="564.901" y2="739.601" gradientUnits="userSpaceOnUse">
<stop stop-color="#84B1D4"/>
<stop offset="0.5" stop-color="#6CA2CB"/>
<stop offset="1" stop-color="#5493C3"/>
</linearGradient>
<linearGradient id="paint4_linear_5075_19097" x1="756.09" y1="548.516" x2="728.689" y2="569.099" gradientUnits="userSpaceOnUse">
<stop stop-color="#84B1D4"/>
<stop offset="0.5" stop-color="#6CA2CB"/>
<stop offset="1" stop-color="#5493C3"/>
</linearGradient>
<linearGradient id="paint5_linear_5075_19097" x1="630.195" y1="386.808" x2="740.054" y2="341.409" gradientUnits="userSpaceOnUse">
<stop stop-color="#84B1D4"/>
<stop offset="0.5" stop-color="#6CA2CB"/>
<stop offset="1" stop-color="#5493C3"/>
</linearGradient>
<linearGradient id="paint6_linear_5075_19097" x1="539.052" y1="438.127" x2="611.888" y2="385.176" gradientUnits="userSpaceOnUse">
<stop stop-color="#84B1D4"/>
<stop offset="0.5" stop-color="#6CA2CB"/>
<stop offset="1" stop-color="#5493C3"/>
</linearGradient>
<linearGradient id="paint7_linear_5075_19097" x1="456.758" y1="782.044" x2="539.194" y2="438.206" gradientUnits="userSpaceOnUse">
<stop stop-color="#84B1D4"/>
<stop offset="0.5" stop-color="#6CA2CB"/>
<stop offset="1" stop-color="#5493C3"/>
</linearGradient>
<linearGradient id="paint8_linear_5075_19097" x1="608.632" y1="424.01" x2="628.598" y2="798.936" gradientUnits="userSpaceOnUse">
<stop stop-color="#3A76A4"/>
<stop offset="0.5" stop-color="#336791"/>
<stop offset="1" stop-color="#2D5C7F"/>
</linearGradient>
<linearGradient id="paint9_linear_5075_19097" x1="640.484" y1="805.938" x2="624.342" y2="408.35" gradientUnits="userSpaceOnUse">
<stop stop-color="#EBEBEB"/>
<stop offset="0.5" stop-color="#F5F5F5"/>
<stop offset="1" stop-color="#FBFBFB"/>
</linearGradient>
</defs>
</svg>
