<svg width="1000" height="1000" viewBox="0 0 1000 1000" fill="none" xmlns="http://www.w3.org/2000/svg">
<path fill-rule="evenodd" clip-rule="evenodd" d="M797.85 85.2823C798.727 85.698 799.591 86.1509 800.44 86.6412C811.602 93.0853 818.478 104.995 818.478 117.883V640.774V676.961V719.777C818.478 732.665 811.602 744.574 800.441 751.018L377.57 995.167C366.409 1001.61 352.657 1001.61 341.496 995.167C336.138 992.074 331.767 987.721 328.671 982.605L199.56 908.071C188.398 901.628 181.521 889.718 181.521 876.829V280.24C181.521 278.118 181.708 276.023 182.069 273.974C182.088 273.87 182.106 273.765 182.125 273.661C184.024 263.385 190.326 254.31 199.563 248.977L622.433 4.83309C633.595 -1.61103 647.346 -1.61103 658.508 4.83311L797.85 85.2823Z" fill="black"/>
<path d="M361.907 361.783L785.656 117.127V720.272L361.907 964.928L361.907 361.783Z" fill="#FF0000"/>
<path d="M361.907 361.783L785.656 117.127V720.272L361.907 964.928L361.907 361.783Z" fill="url(#paint0_linear_5075_19386)"/>
<path d="M219.675 279.822L365.654 364.094L365.654 961.922L219.675 877.651L219.675 279.822Z" fill="#FF0000"/>
<path d="M219.675 279.822L365.654 364.094L365.654 961.922L219.675 877.651L219.675 279.822Z" fill="url(#paint1_linear_5075_19386)"/>
<path d="M643.428 35.1481L785.508 117.178L361.758 361.829L219.679 279.799L643.428 35.1481Z" fill="#FF0000"/>
<path d="M643.428 35.1481L785.508 117.178L361.758 361.829L219.679 279.799L643.428 35.1481Z" fill="url(#paint2_linear_5075_19386)"/>
<path d="M609.831 798.289C609.831 798.143 617.827 776.869 627.601 751.013C637.374 725.158 645.57 703.465 645.813 702.805C646.149 701.899 681.389 752.805 682.532 755.847C682.671 756.218 668.694 764.571 646.295 777.504C626.24 789.082 609.831 798.436 609.831 798.289ZM557.21 822.541C556.653 821.855 516.169 764.555 467.247 695.208C418.325 625.859 377.271 567.684 376.016 565.926L373.736 562.734L500.503 489.945L560.995 575.633C594.265 622.763 621.362 661.938 621.21 662.691C620.992 663.77 559.201 821.943 558.425 823.408C558.315 823.617 557.769 823.227 557.212 822.542L557.21 822.541ZM614.594 567.869C597.939 543.906 584.382 523.975 584.468 523.578C584.554 523.18 593.741 499.357 604.883 470.637L625.141 418.42L651.681 403.077C666.277 394.637 694.064 378.35 713.429 366.885L748.637 346.039L697.103 478.548C668.758 551.429 645.412 611.144 645.222 611.249C645.032 611.354 631.249 591.833 614.593 567.87L614.594 567.869Z" fill="#020202" fill-opacity="0.3"/>
<path d="M650.831 818.289C650.831 818.143 658.827 796.869 668.601 771.013C678.374 745.158 686.57 723.465 686.813 722.805C687.149 721.899 722.389 772.805 723.532 775.847C723.671 776.218 709.694 784.571 687.295 797.504C667.24 809.082 650.831 818.436 650.831 818.289ZM598.21 842.541C597.653 841.855 557.169 784.555 508.247 715.208C459.325 645.859 418.271 587.684 417.016 585.926L414.736 582.734L541.503 509.945L601.995 595.633C635.265 642.763 662.362 681.938 662.21 682.691C661.992 683.77 600.201 841.943 599.425 843.408C599.315 843.617 598.769 843.227 598.212 842.542L598.21 842.541ZM655.594 587.869C638.939 563.906 625.382 543.975 625.468 543.578C625.554 543.18 634.741 519.357 645.883 490.637L666.141 438.42L692.681 423.077C707.277 414.637 735.064 398.35 754.429 386.885L789.637 366.039L738.103 498.548C709.758 571.429 686.412 631.144 686.222 631.249C686.032 631.354 672.249 611.833 655.593 587.87L655.594 587.869Z" fill="url(#paint3_linear_5075_19386)"/>
<path fill-rule="evenodd" clip-rule="evenodd" d="M599.166 843.42L599.168 843.421L599.166 843.42Z" fill="url(#paint4_linear_5075_19386)"/>
<path fill-rule="evenodd" clip-rule="evenodd" d="M414.736 582.736L417.017 585.928C418.272 587.686 459.325 645.86 508.248 715.21C557.17 784.557 597.653 841.857 598.21 842.543L598.212 842.544C598.512 842.913 598.808 843.196 599.035 843.346L583.483 834.37C583.249 834.235 582.922 833.932 582.591 833.525L582.589 833.524C582.032 832.839 541.549 775.538 492.627 706.191C443.704 636.842 402.651 578.667 401.396 576.909L399.115 573.717L414.736 582.736Z" fill="url(#paint5_linear_5075_19386)"/>
<path fill-rule="evenodd" clip-rule="evenodd" d="M650.832 818.292L635.215 809.275C635.212 809.275 635.211 809.274 635.211 809.273C635.211 809.127 643.208 787.853 652.981 761.997C662.755 736.142 670.95 714.449 671.193 713.789C671.205 713.757 671.261 713.79 671.358 713.884L686.814 722.808C686.571 723.467 678.376 745.16 668.602 771.016C658.829 796.871 650.832 818.145 650.832 818.292Z" fill="url(#paint6_linear_5075_19386)"/>
<path fill-rule="evenodd" clip-rule="evenodd" d="M625.471 543.579C625.385 543.977 638.942 563.908 655.598 587.871H655.596C671.952 611.403 685.537 630.651 686.202 631.237L670.604 622.231L670.603 622.232C670.358 622.258 656.598 602.768 639.976 578.853H639.977C623.322 554.889 609.764 534.958 609.85 534.561L625.471 543.579Z" fill="url(#paint7_linear_5075_19386)"/>
<path d="M399.115 573.718L525.882 500.93L541.503 509.948L414.736 582.737L399.115 573.718Z" fill="url(#paint8_linear_5075_19386)"/>
<path d="M650.521 429.401L677.061 414.057C691.657 405.618 719.444 389.331 738.809 377.866L774.017 357.02L789.637 366.038L754.43 386.885C735.065 398.35 707.278 414.636 692.682 423.076L666.142 438.42L650.521 429.401Z" fill="url(#paint9_linear_5075_19386)"/>
<path d="M666.144 438.421L645.885 490.638C634.744 519.358 625.557 543.181 625.471 543.579L609.85 534.56C609.936 534.162 619.123 510.339 630.264 481.619L650.523 429.402L666.144 438.421Z" fill="url(#paint10_linear_5075_19386)"/>
<g opacity="0.2">
<path d="M642.841 36.0742L784.626 117.934L361.755 362.077L219.971 280.218L642.841 36.0742Z" fill="black"/>
<path d="M784.773 117.882L361.903 362.031V362.178L219.967 280.24V876.828L361.903 958.766V963.925L584.889 835.181L599.036 843.346C598.809 843.196 598.512 842.913 598.212 842.544L598.21 842.543C598.069 842.369 595.372 838.57 590.628 831.868C595.372 838.571 598.07 842.369 598.211 842.542L598.213 842.544C598.77 843.229 599.316 843.619 599.427 843.409C599.603 843.077 602.921 834.674 607.95 821.867L636.681 805.279C635.736 807.811 635.211 809.235 635.211 809.273C635.211 809.273 635.211 809.274 635.212 809.274C635.212 809.274 635.213 809.274 635.215 809.274L650.832 818.291C650.832 818.438 667.242 809.084 687.296 797.505C709.696 784.573 723.673 776.22 723.533 775.849C723.156 774.845 719.067 768.631 713.744 760.786L784.773 719.776V378.549L789.638 366.041L784.773 363.232V117.882Z" fill="black"/>
</g>
<defs>
<linearGradient id="paint0_linear_5075_19386" x1="361.907" y1="694.822" x2="794.8" y2="681.944" gradientUnits="userSpaceOnUse">
<stop stop-color="#020202" stop-opacity="0.2"/>
<stop offset="1" stop-color="#020202" stop-opacity="0.06"/>
</linearGradient>
<linearGradient id="paint1_linear_5075_19386" x1="219.675" y1="605.765" x2="368.154" y2="605.682" gradientUnits="userSpaceOnUse">
<stop stop-color="#020202" stop-opacity="0"/>
<stop offset="1" stop-color="#020202" stop-opacity="0.2"/>
</linearGradient>
<linearGradient id="paint2_linear_5075_19386" x1="410.12" y1="169.849" x2="470.302" y2="275.249" gradientUnits="userSpaceOnUse">
<stop stop-color="#020202" stop-opacity="0.1"/>
<stop offset="0.5" stop-color="#020202" stop-opacity="0"/>
<stop offset="1" stop-color="#020202" stop-opacity="0.1"/>
</linearGradient>
<linearGradient id="paint3_linear_5075_19386" x1="789.294" y1="365.841" x2="600.065" y2="841.855" gradientUnits="userSpaceOnUse">
<stop stop-color="#B40508"/>
<stop offset="1" stop-color="#D12628"/>
</linearGradient>
<linearGradient id="paint4_linear_5075_19386" x1="596.969" y1="840.893" x2="407.244" y2="576.833" gradientUnits="userSpaceOnUse">
<stop stop-color="#F1B1B2"/>
<stop offset="1" stop-color="#FED5D5"/>
</linearGradient>
<linearGradient id="paint5_linear_5075_19386" x1="596.98" y1="840.829" x2="400.461" y2="575.6" gradientUnits="userSpaceOnUse">
<stop stop-color="#F1B1B2"/>
<stop offset="1" stop-color="#FED5D5"/>
</linearGradient>
<linearGradient id="paint6_linear_5075_19386" x1="650.522" y1="818.113" x2="671.358" y2="713.884" gradientUnits="userSpaceOnUse">
<stop stop-color="#F1B1B2"/>
<stop offset="1" stop-color="#FED5D5"/>
</linearGradient>
<linearGradient id="paint7_linear_5075_19386" x1="685.501" y1="631.642" x2="609.85" y2="534.561" gradientUnits="userSpaceOnUse">
<stop stop-color="#F1B1B2"/>
<stop offset="1" stop-color="#FED5D5"/>
</linearGradient>
<linearGradient id="paint8_linear_5075_19386" x1="414.736" y1="582.096" x2="524.082" y2="502.405" gradientUnits="userSpaceOnUse">
<stop stop-color="#F1B1B2"/>
<stop offset="1" stop-color="#FED5D5"/>
</linearGradient>
<linearGradient id="paint9_linear_5075_19386" x1="665.784" y1="437.781" x2="775.26" y2="362.247" gradientUnits="userSpaceOnUse">
<stop stop-color="#F1B1B2"/>
<stop offset="1" stop-color="#FED5D5"/>
</linearGradient>
<linearGradient id="paint10_linear_5075_19386" x1="625.471" y1="543.579" x2="650.523" y2="429.402" gradientUnits="userSpaceOnUse">
<stop stop-color="#F1B1B2"/>
<stop offset="1" stop-color="#FED5D5"/>
</linearGradient>
</defs>
</svg>
