<svg width="1000" height="1000" viewBox="0 0 1000 1000" fill="none" xmlns="http://www.w3.org/2000/svg">
<path fill-rule="evenodd" clip-rule="evenodd" d="M797.85 85.2823C798.727 85.698 799.591 86.1509 800.44 86.6412C811.602 93.0853 818.478 104.995 818.478 117.883V640.774V676.961V719.777C818.478 732.665 811.602 744.574 800.441 751.018L377.57 995.167C366.409 1001.61 352.657 1001.61 341.496 995.167C336.138 992.074 331.767 987.721 328.671 982.605L199.56 908.071C188.398 901.628 181.521 889.718 181.521 876.829V280.24C181.521 278.118 181.708 276.023 182.069 273.974C182.088 273.87 182.106 273.765 182.125 273.661C184.024 263.385 190.326 254.31 199.563 248.977L622.433 4.83309C633.595 -1.61103 647.346 -1.61103 658.508 4.83311L797.85 85.2823Z" fill="black"/>
<path d="M359.905 361.783L783.654 117.127V720.272L359.905 964.928L359.905 361.783Z" fill="#FF0000"/>
<path d="M359.905 361.783L783.654 117.127V720.272L359.905 964.928L359.905 361.783Z" fill="url(#paint0_linear_5075_19273)"/>
<path d="M217.673 279.822L363.652 364.094L363.652 961.922L217.673 877.651L217.673 279.822Z" fill="#FF0000"/>
<path d="M217.673 279.822L363.652 364.094L363.652 961.922L217.673 877.651L217.673 279.822Z" fill="url(#paint1_linear_5075_19273)"/>
<path d="M641.426 35.1481L783.506 117.178L359.757 361.829L217.677 279.799L641.426 35.1481Z" fill="#FF0000"/>
<path d="M641.426 35.1481L783.506 117.178L359.757 361.829L217.677 279.799L641.426 35.1481Z" fill="url(#paint2_linear_5075_19273)"/>
<path d="M553.756 796.696C657.281 736.925 741.205 591.565 741.205 472.024C741.205 352.483 657.281 304.029 553.756 363.8C450.23 423.57 366.307 568.93 366.307 688.471C366.307 808.012 450.23 856.466 553.756 796.696Z" fill="#020202" fill-opacity="0.3"/>
<path fill-rule="evenodd" clip-rule="evenodd" d="M461.234 829.78L445.613 820.761C411.685 801.172 390.689 759.183 390.689 699.452C390.689 579.991 474.678 434.509 578.134 374.778C629.866 344.913 676.727 342.104 710.661 361.693L726.282 370.712C692.347 351.122 645.486 353.932 593.761 383.797C490.304 443.528 406.31 589.009 406.31 708.471C406.31 768.202 427.305 810.19 461.234 829.78Z" fill="url(#paint3_linear_5075_19273)"/>
<path d="M593.756 816.698C697.281 756.927 781.205 611.567 781.205 492.026C781.205 372.485 697.281 324.031 593.756 383.802C490.23 443.572 406.307 588.932 406.307 708.473C406.307 828.014 490.23 876.468 593.756 816.698Z" fill="url(#paint4_linear_5075_19273)"/>
<path d="M649.43 519.655C649.735 517.546 653.791 503.573 653.791 503.573C658.815 487.605 655.621 480.084 655.621 480.084C652.659 469.105 644.156 464.092 644.156 464.092C644.569 464.208 647.156 470.657 647.156 470.657C653.117 486.229 637.133 506.365 637.133 506.365C633.014 511.881 626.291 523.246 626.291 523.246C616.864 539.329 619.713 550.729 619.713 550.729L620.088 550.706C631.302 547.414 641.837 546.489 651.41 547.739C645.069 537.149 649.43 519.653 649.43 519.653" fill="url(#paint5_linear_5075_19273)"/>
<path d="M682.211 562.35C681.161 547.285 689.846 530.518 689.846 530.518C690.741 528.328 698.244 514.969 698.244 514.969C707.137 499.863 707.217 489.754 707.217 489.754C708.579 475.914 703.888 465.76 703.888 465.76C704.143 466.109 703.98 474.696 703.98 474.702C703.375 495.247 685.023 509.09 685.023 509.09C680.174 513.035 671.514 522.084 671.514 522.084C660.224 533.999 658.055 547.09 657.812 548.927C667.115 551.233 675.338 555.769 682.211 562.35Z" fill="url(#paint6_linear_5075_19273)"/>
<path d="M747.894 498.466C747.982 499.007 745.07 508.509 745.07 508.509C738.017 531.066 719.947 536.621 719.947 536.621C715.078 538.437 705.738 543.858 705.738 543.864C692.554 551.649 686.811 566.662 686.811 566.662L687.505 568.2C693.241 575.488 697.665 584.55 700.527 595.265C704.426 577.565 716.635 563.093 716.648 563.086C718.015 561.162 727.882 550.256 727.882 550.256C739.342 538.209 742.646 527.008 742.646 527.008C748.094 512.31 747.894 498.466 747.894 498.466Z" fill="url(#paint7_linear_5075_19273)"/>
<path d="M611.365 553.72C601.368 548.964 600.638 534.07 600.638 534.07C600.263 532.367 600.305 519.832 600.318 519.824C600.788 505.267 594.814 501.371 594.814 501.371C588.016 494.754 576.912 495.589 576.912 495.589C577.419 495.455 582.38 498.882 582.38 498.882C593.995 507.256 582.66 530.784 582.66 530.784C579.843 537.1 575.999 549.137 575.999 549.137C570.958 565.193 576.774 572.277 577.419 573.03C583.08 568.795 588.903 564.971 594.794 561.642C600.45 558.44 605.979 555.805 611.365 553.72Z" fill="url(#paint8_linear_5075_19273)"/>
<path d="M550.857 570.636C549.939 569.535 545.903 560.249 545.903 560.249C541.747 549.177 533.849 549.489 533.849 549.489C524.109 548.272 512.029 554.819 512.029 554.819C512.549 554.461 519.172 554.34 519.172 554.34C534.843 554.302 529.787 577.851 529.787 577.851C528.687 584.041 528.282 595.06 528.282 595.06C527.8 610.527 537.667 612.022 537.667 612.022L538.135 611.565C547.712 599.594 558.235 588.69 569.369 579.405C556.543 581.399 550.857 570.636 550.857 570.636Z" fill="url(#paint9_linear_5075_19273)"/>
<path d="M530.999 620.896C517.41 629.146 507.675 624.203 507.675 624.203C506.288 623.885 498.84 619.102 498.84 619.102C490.659 613.089 481.932 617.566 481.932 617.566C470.71 621.837 459.375 633.157 459.375 633.157C459.825 632.629 467.153 628.99 467.165 628.983C484.598 620.606 486.505 640.818 486.505 640.818C487.255 646.027 490.347 654.43 490.347 654.43C494.778 666.194 506.23 662.041 506.23 662.041L506.463 661.685C513.436 647.405 521.714 633.636 530.999 620.896Z" fill="url(#paint10_linear_5075_19273)"/>
<path d="M476.541 687.708C474.884 688.224 465.044 688.661 465.044 688.661C454.01 688.515 445.729 696.499 445.729 696.499C434.595 705.664 425.572 720.171 425.572 720.171C425.91 719.524 432.928 712.894 432.928 712.894C449.673 697.348 458.264 711.392 458.264 711.392C460.758 714.864 466.899 719.472 466.899 719.457C475.592 725.861 487.044 716.658 487.044 716.658L487.331 715.837C490.45 701.545 495.199 687.13 501.26 673.019C488.831 686.232 476.541 687.708 476.541 687.708Z" fill="url(#paint11_linear_5075_19273)"/>
<g opacity="0.2">
<path d="M782.622 117.934L640.837 36.0742L217.967 280.218L359.752 362.077L782.622 117.934Z" fill="black"/>
<path d="M359.899 362.031L782.77 117.882V719.776L359.899 963.925V958.766L217.963 876.828V280.24L359.899 362.178V362.031Z" fill="black"/>
</g>
<defs>
<linearGradient id="paint0_linear_5075_19273" x1="359.905" y1="694.822" x2="792.798" y2="681.944" gradientUnits="userSpaceOnUse">
<stop stop-color="#020202" stop-opacity="0.2"/>
<stop offset="1" stop-color="#020202" stop-opacity="0.06"/>
</linearGradient>
<linearGradient id="paint1_linear_5075_19273" x1="217.673" y1="605.765" x2="366.152" y2="605.682" gradientUnits="userSpaceOnUse">
<stop stop-color="#020202" stop-opacity="0"/>
<stop offset="1" stop-color="#020202" stop-opacity="0.2"/>
</linearGradient>
<linearGradient id="paint2_linear_5075_19273" x1="408.118" y1="169.849" x2="468.3" y2="275.249" gradientUnits="userSpaceOnUse">
<stop stop-color="#020202" stop-opacity="0.1"/>
<stop offset="0.5" stop-color="#020202" stop-opacity="0"/>
<stop offset="1" stop-color="#020202" stop-opacity="0.1"/>
</linearGradient>
<linearGradient id="paint3_linear_5075_19273" x1="406.31" y1="801.695" x2="706.228" y2="359.135" gradientUnits="userSpaceOnUse">
<stop stop-color="#F5AC75"/>
<stop offset="1" stop-color="#F8C7A1"/>
</linearGradient>
<linearGradient id="paint4_linear_5075_19273" x1="475.18" y1="834.931" x2="748.008" y2="408.72" gradientUnits="userSpaceOnUse">
<stop stop-color="#DC6810"/>
<stop offset="0.5" stop-color="#EE7314"/>
<stop offset="1" stop-color="#F08736"/>
</linearGradient>
<linearGradient id="paint5_linear_5075_19273" x1="593.757" y1="657.128" x2="495.188" y2="525.554" gradientUnits="userSpaceOnUse">
<stop stop-color="#FBFBFB"/>
<stop offset="1" stop-color="#EBEBEB"/>
</linearGradient>
<linearGradient id="paint6_linear_5075_19273" x1="593.757" y1="657.127" x2="495.187" y2="525.553" gradientUnits="userSpaceOnUse">
<stop stop-color="#FBFBFB"/>
<stop offset="1" stop-color="#EBEBEB"/>
</linearGradient>
<linearGradient id="paint7_linear_5075_19273" x1="593.758" y1="657.127" x2="495.188" y2="525.554" gradientUnits="userSpaceOnUse">
<stop stop-color="#FBFBFB"/>
<stop offset="1" stop-color="#EBEBEB"/>
</linearGradient>
<linearGradient id="paint8_linear_5075_19273" x1="593.757" y1="657.127" x2="495.187" y2="525.553" gradientUnits="userSpaceOnUse">
<stop stop-color="#FBFBFB"/>
<stop offset="1" stop-color="#EBEBEB"/>
</linearGradient>
<linearGradient id="paint9_linear_5075_19273" x1="593.758" y1="657.127" x2="495.188" y2="525.554" gradientUnits="userSpaceOnUse">
<stop stop-color="#FBFBFB"/>
<stop offset="1" stop-color="#EBEBEB"/>
</linearGradient>
<linearGradient id="paint10_linear_5075_19273" x1="593.757" y1="657.126" x2="495.187" y2="525.553" gradientUnits="userSpaceOnUse">
<stop stop-color="#FBFBFB"/>
<stop offset="1" stop-color="#EBEBEB"/>
</linearGradient>
<linearGradient id="paint11_linear_5075_19273" x1="593.755" y1="657.126" x2="495.185" y2="525.552" gradientUnits="userSpaceOnUse">
<stop stop-color="#FBFBFB"/>
<stop offset="1" stop-color="#EBEBEB"/>
</linearGradient>
</defs>
</svg>
