<svg width="1000" height="1000" viewBox="0 0 1000 1000" fill="none" xmlns="http://www.w3.org/2000/svg">
<path fill-rule="evenodd" clip-rule="evenodd" d="M795.419 85.2823C796.295 85.698 797.159 86.1509 798.009 86.6412C809.17 93.0853 816.046 104.995 816.046 117.883V640.774C822.52 651.936 822.547 665.75 816.046 676.961V719.777C816.046 732.665 809.17 744.574 798.009 751.018L375.139 995.167C363.977 1001.61 350.226 1001.61 339.064 995.167C333.706 992.074 329.336 987.721 326.239 982.605L197.129 908.071C185.966 901.628 179.09 889.718 179.09 876.829V280.24C179.09 278.118 179.276 276.023 179.638 273.974C179.656 273.87 179.675 273.765 179.694 273.661C181.593 263.385 187.894 254.31 197.131 248.977L620.001 4.83309C631.163 -1.61103 644.915 -1.61103 656.076 4.83311L795.419 85.2823Z" fill="black"/>
<path d="M357.099 361.781L780.848 117.125V720.27L357.099 964.926L357.099 361.781Z" fill="#FF0000"/>
<path d="M357.099 361.781L780.848 117.125V720.27L357.099 964.926L357.099 361.781Z" fill="url(#paint0_linear_5075_19573)"/>
<path d="M214.867 279.822L360.846 364.094L360.846 961.922L214.867 877.651L214.867 279.822Z" fill="#FF0000"/>
<path d="M214.867 279.822L360.846 364.094L360.846 961.922L214.867 877.651L214.867 279.822Z" fill="url(#paint1_linear_5075_19573)"/>
<path d="M638.62 35.1501L780.699 117.18L356.95 361.831L214.87 279.801L638.62 35.1501Z" fill="#FF0000"/>
<path d="M638.62 35.1501L780.699 117.18L356.95 361.831L214.87 279.801L638.62 35.1501Z" fill="url(#paint2_linear_5075_19573)"/>
<path d="M570.378 317.193C553.689 374.069 543.555 410.865 524.98 467.429C536.368 474.795 550.368 482.892 573.079 488.117C548.663 490.613 532.021 488.608 519.579 483.704C495.802 554.723 458.523 657.827 382.928 858.316C442.326 784.426 488.38 733.405 531.295 699.307C529.455 691.231 528.477 681.866 528.547 671.51L528.594 669.319C529.537 624.822 549.343 579.587 572.803 568.335C596.258 557.087 614.523 584.048 613.58 628.552C613.398 636.936 612.566 645.371 611.154 653.572C653.606 638.654 699.221 636.635 757.829 641.867C746.271 623.973 735.92 607.81 726.067 592.402C710.55 587.474 694.371 578.748 661.356 578.241C684.049 571.951 700.311 570.435 712.975 571.903C612.818 414.396 604.723 390.438 570.378 317.193Z" fill="#020202" fill-opacity="0.3"/>
<path d="M597.378 334.193C580.689 391.069 570.555 427.865 551.98 484.429C563.368 491.795 577.368 499.892 600.079 505.117C575.663 507.613 559.021 505.608 546.579 500.704C522.802 571.723 485.523 674.827 409.928 875.316C469.326 801.426 515.38 750.405 558.295 716.307C556.455 708.231 555.477 698.866 555.547 688.51L555.594 686.319C556.537 641.822 576.343 596.587 599.803 585.335C623.258 574.087 641.523 601.048 640.58 645.552C640.398 653.936 639.566 662.371 638.154 670.572C680.606 655.654 726.221 653.635 784.829 658.867C773.271 640.973 762.92 624.81 753.067 609.402C737.55 604.474 721.371 595.748 688.356 595.241C711.049 588.951 727.311 587.435 739.975 588.903C639.818 431.396 631.723 407.438 597.378 334.193Z" fill="url(#paint3_linear_5075_19573)"/>
<path fill-rule="evenodd" clip-rule="evenodd" d="M531.047 491.633C541.744 495.845 555.504 497.937 574.651 496.861C581.787 499.964 590.091 502.817 600.079 505.115C575.664 507.611 559.022 505.605 546.579 500.701L531.047 491.633Z" fill="url(#paint4_linear_5075_19573)"/>
<path fill-rule="evenodd" clip-rule="evenodd" d="M546.58 500.702C522.804 571.722 485.524 674.825 409.93 875.315L394.309 866.296L395.958 861.922C430.459 770.392 456.899 699.345 477.688 642.442L477.595 642.556C478.245 640.754 480.764 633.909 481.988 630.509C486.311 618.639 489.322 609.987 493.159 599.331C499.732 581.081 506.158 563.147 508.167 557.475C508.731 555.896 509.292 554.511 509.845 553.015C513.548 542.501 516.99 532.627 520.207 523.299C520.58 522.158 520.928 521.055 521.347 519.853C522.449 516.647 523.531 513.553 524.589 510.527C526.82 503.989 528.939 497.72 530.96 491.684L546.58 500.702Z" fill="url(#paint5_linear_5075_19573)"/>
<path fill-rule="evenodd" clip-rule="evenodd" d="M622.537 661.551L622.57 661.359C623.962 653.218 624.782 644.849 624.963 636.531C625.475 612.352 620.318 593.351 611.736 582.84C629.144 584.214 641.359 608.95 640.584 645.549C640.402 653.934 639.57 662.368 638.158 670.57L622.537 661.551Z" fill="url(#paint6_linear_5075_19573)"/>
<path fill-rule="evenodd" clip-rule="evenodd" d="M707.988 590.656C719.815 593.664 728.652 597.57 737.266 600.321L737.448 600.379L753.068 609.398C737.551 604.47 721.372 595.745 688.357 595.237C695.51 593.254 702.024 591.746 707.988 590.656Z" fill="url(#paint7_linear_5075_19573)"/>
<path fill-rule="evenodd" clip-rule="evenodd" d="M581.758 325.172L597.379 334.191V334.191C580.69 391.069 570.555 427.863 551.98 484.427C552.23 484.588 552.481 484.75 552.732 484.911C546.57 481.854 541.321 478.655 536.541 475.568L536.553 475.533L536.359 475.409C554.935 418.844 565.069 382.05 581.758 325.172V325.172Z" fill="url(#paint8_linear_5075_19573)"/>
<path d="M702.896 530.569C621.636 450.138 602.803 358.367 598.029 336.617C641.377 427.032 641.078 428.625 702.896 530.569Z" fill="white" fill-opacity="0.16"/>
<path d="M598.113 335.466C596.004 342.663 594.012 349.65 592.068 356.285C589.935 363.57 587.862 370.598 585.847 377.423C583.832 384.255 581.787 390.799 579.807 397.4C577.821 403.999 575.976 410.462 573.949 417.057C571.923 423.652 569.697 430.422 567.541 437.241C565.385 444.065 563.136 450.999 560.769 458.277C558.403 465.548 555.919 473.259 553.26 481.214C552.902 482.286 552.533 483.5 552.164 484.592C563.522 491.928 577.528 499.892 600.122 505.097C575.713 507.59 559.117 505.557 546.669 500.657C546.025 502.557 545.51 504.201 544.842 506.149C542.382 513.461 539.74 520.817 536.969 528.876C536.307 530.774 535.821 532.427 535.141 534.369C532.206 542.854 529.131 551.658 525.804 561.107C525.142 562.977 524.468 564.597 523.789 566.498C521.78 572.169 515.354 590.104 508.781 608.354C504.944 619.01 501.933 627.662 497.61 639.532C496.386 642.931 493.867 649.777 493.217 651.579C540.812 593.168 592.161 518.588 685.43 503.193C680.761 495.675 676.28 488.732 672.25 482.056C668.219 475.373 664.564 469.103 661.084 463.137C657.605 457.171 654.389 451.506 651.378 446.122C648.373 440.734 645.585 435.621 642.96 430.69C640.336 425.759 637.776 421.034 635.457 416.421C633.131 411.818 630.969 407.31 628.866 402.896C626.763 398.476 624.795 394.032 622.821 389.686C620.853 385.337 618.885 381.204 616.963 376.794C616.132 374.866 615.423 372.719 614.585 370.767C609.383 359.667 604.281 348.632 598.113 335.466Z" fill="url(#paint9_linear_5075_19573)"/>
<g opacity="0.2">
<path d="M638.036 36.0742L779.821 117.934L356.951 362.077L215.166 280.218L638.036 36.0742Z" fill="black"/>
<path d="M779.969 117.882L357.099 362.031V362.178L215.162 280.24V876.828L357.099 958.766V963.925L779.969 719.776V658.447C781.581 658.581 783.202 658.721 784.834 658.867C783.189 656.319 781.567 653.806 779.969 651.326V117.882Z" fill="black"/>
</g>
<defs>
<linearGradient id="paint0_linear_5075_19573" x1="357.099" y1="694.82" x2="789.991" y2="681.943" gradientUnits="userSpaceOnUse">
<stop stop-color="#020202" stop-opacity="0.2"/>
<stop offset="1" stop-color="#020202" stop-opacity="0.06"/>
</linearGradient>
<linearGradient id="paint1_linear_5075_19573" x1="214.867" y1="605.765" x2="363.345" y2="605.682" gradientUnits="userSpaceOnUse">
<stop stop-color="#020202" stop-opacity="0"/>
<stop offset="1" stop-color="#020202" stop-opacity="0.2"/>
</linearGradient>
<linearGradient id="paint2_linear_5075_19573" x1="405.311" y1="169.851" x2="465.494" y2="275.251" gradientUnits="userSpaceOnUse">
<stop stop-color="#020202" stop-opacity="0.1"/>
<stop offset="0.5" stop-color="#020202" stop-opacity="0"/>
<stop offset="1" stop-color="#020202" stop-opacity="0.1"/>
</linearGradient>
<linearGradient id="paint3_linear_5075_19573" x1="114.222" y1="1046.04" x2="114.222" y2="1046.04" gradientUnits="userSpaceOnUse">
<stop stop-color="#0082C4"/>
<stop offset="1" stop-color="#1793D1"/>
</linearGradient>
<linearGradient id="paint4_linear_5075_19573" x1="595.823" y1="504.043" x2="531.707" y2="492.018" gradientUnits="userSpaceOnUse">
<stop stop-color="#95DCFF"/>
<stop offset="1" stop-color="#CBEAF9"/>
</linearGradient>
<linearGradient id="paint5_linear_5075_19573" x1="531.048" y1="493.518" x2="409.93" y2="875.315" gradientUnits="userSpaceOnUse">
<stop stop-color="#95DCFF"/>
<stop offset="1" stop-color="#CBEAF9"/>
</linearGradient>
<linearGradient id="paint6_linear_5075_19573" x1="612.372" y1="582.901" x2="637.671" y2="670.288" gradientUnits="userSpaceOnUse">
<stop stop-color="#95DCFF"/>
<stop offset="1" stop-color="#CBEAF9"/>
</linearGradient>
<linearGradient id="paint7_linear_5075_19573" x1="697.793" y1="592.806" x2="747.623" y2="606.254" gradientUnits="userSpaceOnUse">
<stop stop-color="#95DCFF"/>
<stop offset="1" stop-color="#CBEAF9"/>
</linearGradient>
<linearGradient id="paint8_linear_5075_19573" x1="551.98" y1="484.427" x2="581.758" y2="325.172" gradientUnits="userSpaceOnUse">
<stop stop-color="#95DCFF"/>
<stop offset="1" stop-color="#CBEAF9"/>
</linearGradient>
<linearGradient id="paint9_linear_5075_19573" x1="598.238" y1="404.198" x2="675.438" y2="519.529" gradientUnits="userSpaceOnUse">
<stop stop-color="white" stop-opacity="0"/>
<stop offset="1" stop-color="white" stop-opacity="0.27"/>
</linearGradient>
</defs>
</svg>
