<svg width="128" height="128" viewBox="0 0 128 128" fill="none" xmlns="http://www.w3.org/2000/svg">
<g clip-path="url(#clip0_264_1746)">
<path d="M64 0C27.952 0 0 26.416 0 62.08C0 80.736 7.648 96.864 20.096 108C21.136 108.928 21.776 110.24 21.808 111.648L22.16 123.04C22.1856 123.878 22.4168 124.697 22.8331 125.425C23.2494 126.153 23.8381 126.768 24.5476 127.215C25.257 127.662 26.0654 127.928 26.9017 127.99C27.7381 128.051 28.5767 127.906 29.344 127.568L42.048 121.968C43.12 121.488 44.336 121.408 45.472 121.712C51.312 123.312 57.52 124.176 64 124.176C100.048 124.176 128 97.76 128 62.096C128 26.432 100.048 0 64 0Z" fill="url(#paint0_radial_264_1746)"/>
<path d="M25.5681 80.2402L44.3681 50.4162C45.0753 49.2933 46.0076 48.3293 47.1062 47.5849C48.2048 46.8406 49.4458 46.3321 50.7508 46.0915C52.0559 45.8509 53.3966 45.8836 54.6884 46.1873C55.9802 46.491 57.195 47.0593 58.2561 47.8562L73.2161 59.0722C73.8839 59.5722 74.6965 59.8411 75.5307 59.8382C76.365 59.8353 77.1757 59.5608 77.8401 59.0562L98.0321 43.7282C100.72 41.6802 104.24 44.9122 102.448 47.7762L83.6321 77.5842C82.9248 78.707 81.9925 79.6711 80.8939 80.4154C79.7953 81.1598 78.5543 81.6683 77.2493 81.9088C75.9443 82.1494 74.6035 82.1168 73.3117 81.8131C72.02 81.5093 70.8052 80.9411 69.7441 80.1442L54.7841 68.9282C54.1162 68.4282 53.3037 68.1593 52.4694 68.1621C51.6351 68.165 50.8244 68.4396 50.1601 68.9442L29.9681 84.2722C27.2801 86.3202 23.7601 83.1042 25.5681 80.2402Z" fill="white"/>
</g>
<defs>
<radialGradient id="paint0_radial_264_1746" cx="0" cy="0" r="1" gradientUnits="userSpaceOnUse" gradientTransform="translate(21.44 128) scale(140.8 140.8)">
<stop stop-color="#0099FF"/>
<stop offset="0.6" stop-color="#A033FF"/>
<stop offset="0.9" stop-color="#FF5280"/>
<stop offset="1" stop-color="#FF7061"/>
</radialGradient>
<clipPath id="clip0_264_1746">
<rect width="128" height="128" fill="white"/>
</clipPath>
</defs>
</svg>
