<svg width="128" height="128" viewBox="0 0 128 128" fill="none" xmlns="http://www.w3.org/2000/svg">
<mask id="mask0_264_2018" style="mask-type:alpha" maskUnits="userSpaceOnUse" x="0" y="0" width="128" height="128">
<path d="M0 24C0 10.7452 10.7452 0 24 0H104C117.255 0 128 10.7452 128 24V104C128 117.255 117.255 128 104 128H24C10.7452 128 0 117.255 0 104V24Z" fill="url(#paint0_linear_264_2018)"/>
<path d="M59.6934 30.0156V94H44.2686V30.0156H59.6934ZM84.5664 56.6465V68.5117H55.2988V56.6465H84.5664ZM87.0713 30.0156V41.9248H55.2988V30.0156H87.0713Z" fill="white"/>
</mask>
<g mask="url(#mask0_264_2018)">
<rect width="128" height="128" rx="24" fill="url(#paint1_linear_264_2018)"/>
<path d="M13.0978 80.3307C12.7409 79.9701 12.4599 79.5415 12.2714 79.0704C12.083 78.5993 11.9909 78.0952 12.0007 77.5879C12.0007 76.5133 12.3664 75.6023 13.0978 74.8484C13.4527 74.4825 13.879 74.1933 14.3502 73.9988C14.8215 73.8043 15.3276 73.7086 15.8373 73.7176C16.9344 73.7176 17.8487 74.093 18.5784 74.8484C19.3323 75.6023 19.7092 76.5149 19.7092 77.5895C19.7177 78.0994 19.6218 78.6056 19.4273 79.0771C19.2329 79.5485 18.944 79.9751 18.5784 80.3307C17.8487 81.0605 16.9344 81.4278 15.8373 81.4278C15.3306 81.4371 14.8271 81.3448 14.3565 81.1564C13.886 80.968 13.458 80.6872 13.0978 80.3307ZM29.235 80.7413V46.8581H34.4767V51.7581C35.3685 50.4108 36.8521 49.1197 38.9308 47.8862C41.0095 46.6303 43.2021 46.0016 45.5102 46.0016C47.9305 46.0016 49.9066 46.5951 51.4367 47.782C52.9613 48.9051 54.0599 50.5121 54.5532 52.3404C55.5813 50.6498 57.1451 49.1758 59.2479 47.9199C61.349 46.6416 63.5753 46.0016 65.9283 46.0016C72.2333 46.0016 75.3851 49.4164 75.3851 56.2459V80.7429H70.1418V69.2314V57.72C70.1418 53.0365 68.0519 50.6947 63.8736 50.6947C62.1815 50.6947 60.4925 51.208 58.802 52.2377C57.1355 53.2434 55.8331 54.4656 54.8964 55.9043V80.7429H49.6531V57.72C49.6531 53.0365 47.5632 50.6947 43.3833 50.6947C41.7409 50.6947 40.0824 51.2208 38.4159 52.2714C36.7719 53.2979 35.4567 54.5329 34.4751 55.9717V80.7429H29.235M83.8475 63.7476C83.8475 58.7898 85.4338 54.6003 88.6096 51.1727C91.8062 47.7242 95.7936 46 100.567 46C105.568 46 109.531 47.7242 112.455 51.1743C115.378 54.6003 116.839 58.9406 116.839 64.1951V65.5295H89.466C89.6954 68.8401 90.8936 71.6293 93.0621 73.8909C95.2547 76.1284 98.1001 77.2479 101.593 77.2479C105.796 77.2479 109.313 75.7979 112.146 72.8964L114.648 76.3224C111.039 79.8399 106.55 81.5994 101.181 81.5994C96.0887 81.5994 91.9201 79.9441 88.6769 76.632C85.4578 73.3183 83.8475 69.0245 83.8475 63.7476ZM89.3971 61.5903H111.632C111.588 58.7353 110.603 56.1529 108.686 53.8465C106.768 51.5175 104.038 50.3499 100.498 50.3499C97.1393 50.3499 94.48 51.5047 92.5135 53.8112C90.5728 56.0968 89.535 58.6871 89.3971 61.5903Z" fill="#FF7F2A"/>
<path d="M29.235 80.7413V46.8581H34.4767V51.7581C35.3685 50.4108 36.8521 49.1197 38.9308 47.8862C41.0095 46.6303 43.2021 46.0016 45.5102 46.0016C47.9305 46.0016 49.9066 46.5951 51.4367 47.782C52.9613 48.9051 54.0599 50.5121 54.5532 52.3404C55.5813 50.6498 57.1451 49.1758 59.2479 47.9199C61.349 46.6416 63.5753 46.0016 65.9283 46.0016C72.2333 46.0016 75.3851 49.4164 75.3851 56.2459V80.7429H70.1418V69.2314V57.72C70.1418 53.0365 68.0519 50.6947 63.8736 50.6947C62.1815 50.6947 60.4925 51.208 58.802 52.2377C57.1355 53.2434 55.8331 54.4656 54.8964 55.9043V80.7429H49.6531V57.72C49.6531 53.0365 47.5632 50.6947 43.3833 50.6947C41.7409 50.6947 40.0824 51.2208 38.4159 52.2714C36.7719 53.2979 35.4567 54.5329 34.4751 55.9717V80.7429H29.235M13.0978 80.3307C12.7409 79.9701 12.4599 79.5415 12.2714 79.0704C12.083 78.5993 11.9909 78.0952 12.0007 77.5879C12.0007 76.5133 12.3664 75.6023 13.0978 74.8484C13.4527 74.4825 13.879 74.1933 14.3502 73.9988C14.8215 73.8043 15.3276 73.7086 15.8373 73.7176C16.9344 73.7176 17.8487 74.093 18.5784 74.8484C19.3323 75.6023 19.7092 76.5149 19.7092 77.5895C19.7177 78.0994 19.6218 78.6056 19.4273 79.0771C19.2329 79.5485 18.944 79.9751 18.5784 80.3307C17.8487 81.0605 16.9344 81.4278 15.8373 81.4278C15.3306 81.4371 14.8271 81.3448 14.3565 81.1564C13.886 80.968 13.458 80.6872 13.0978 80.3307ZM83.8475 63.7476C83.8475 58.7898 85.4338 54.6003 88.6096 51.1727C91.8062 47.7242 95.7936 46 100.567 46C105.568 46 109.531 47.7242 112.455 51.1743C115.378 54.6003 116.839 58.9406 116.839 64.1951V65.5295H89.466C89.6954 68.8401 90.8936 71.6293 93.0621 73.8909C95.2547 76.1284 98.1001 77.2479 101.593 77.2479C105.796 77.2479 109.313 75.7979 112.146 72.8964L114.648 76.3224C111.039 79.8399 106.55 81.5994 101.181 81.5994C96.0887 81.5994 91.9201 79.9441 88.6769 76.632C85.4578 73.3183 83.8475 69.0245 83.8475 63.7476ZM89.3971 61.5903H111.632C111.588 58.7353 110.603 56.1529 108.686 53.8465C106.768 51.5175 104.038 50.3499 100.498 50.3499C97.1393 50.3499 94.48 51.5047 92.5135 53.8112C90.5728 56.0968 89.535 58.6871 89.3971 61.5903Z" stroke="#FF7F2A" stroke-width="1.60394"/>
</g>
<defs>
<linearGradient id="paint0_linear_264_2018" x1="64" y1="0" x2="64" y2="128" gradientUnits="userSpaceOnUse">
<stop stop-color="#1D63F0"/>
<stop offset="1" stop-color="#1AD5FD"/>
</linearGradient>
<linearGradient id="paint1_linear_264_2018" x1="64" y1="0" x2="64" y2="128" gradientUnits="userSpaceOnUse">
<stop stop-color="#484848"/>
<stop offset="1"/>
</linearGradient>
</defs>
</svg>
