<svg width="128" height="128" viewBox="0 0 128 128" fill="none" xmlns="http://www.w3.org/2000/svg">
<path d="M0 24C0 10.7452 10.7452 0 24 0H104C117.255 0 128 10.7452 128 24V104C128 117.255 117.255 128 104 128H24C10.7452 128 0 117.255 0 104V24Z" fill="#191211"/>
<path d="M65.5557 44.11C60.1586 44.11 55.6986 45.3027 51.827 48.0378V21H32V106.167H51.4746V100.567C56.1704 104.975 61.212 107 67.4331 107C82.5642 107 95 93.4214 95 75.7951C95 57.0927 82.0989 44.11 65.5557 44.11ZM63.4453 87.5103C57.0948 87.5103 51.9465 82.2831 51.9465 75.8338C51.9465 69.3912 57.0948 64.1639 63.4453 64.1639C69.7924 64.1639 74.9406 69.3912 74.9406 75.8338C74.9406 82.2831 69.7924 87.5103 63.4453 87.5103Z" fill="white"/>
</svg>
