<svg width="128" height="128" viewBox="0 0 128 128" fill="none" xmlns="http://www.w3.org/2000/svg">
<path d="M69.816 1C70.3194 1.38541 70.5808 1.97219 70.917 2.4886C72.7639 5.46581 74.6044 8.44519 76.4497 11.4246C77.7867 13.7138 79.3679 15.8454 80.8636 18.0307C85.5638 24.6845 89.8536 31.6133 94.3693 38.391C95.8308 41.1425 97.3622 43.8583 98.7717 46.6368C99.5723 48.6938 100.493 50.715 101.113 52.8348C101.672 55.359 102.676 57.79 102.856 60.3883C103.197 62.5086 103.005 64.6603 103.055 66.7963C103.141 69.4487 102.791 72.0876 102.563 74.7243C102.186 76.3028 101.862 77.8953 101.424 79.4608C100.958 80.8568 100.344 82.2009 99.8181 83.5769C99.2432 85.1581 98.3479 86.5947 97.5673 88.0812C96.489 90.228 94.9669 92.1047 93.6363 94.094C92.5737 95.1339 91.6806 96.3291 90.5801 97.3349C89.1727 98.8803 87.427 100.048 85.7917 101.332C84.0281 102.444 82.2255 103.499 80.4327 104.562C78.9668 105.218 77.4576 105.775 75.9669 106.37C73.833 106.959 71.6656 107.424 69.5139 107.936C67.2112 108.218 64.9241 108.764 62.5987 108.761C63.1286 108.182 63.5708 107.528 64.1457 106.989C65.1834 106.091 65.4698 104.681 66.0993 103.515C66.5167 102.581 67.1863 101.715 67.2426 100.66C67.405 98.9253 67.8429 97.2136 67.7525 95.4609C67.687 93.7871 67.9782 92.0528 67.333 90.4537C66.9156 88.1396 65.7745 86.0691 64.8429 83.9401C62.1862 79.483 59.3643 75.1255 56.6128 70.7273C55.0744 67.9758 53.5003 65.2444 52.0139 62.4658C51.2517 60.5507 50.5231 58.6225 49.8145 56.6895C48.6058 51.9601 47.5389 47.124 47.6655 42.2138C47.9064 39.7037 48.2133 37.2001 48.5202 34.6966C48.9825 31.7735 49.4924 28.8591 49.9661 25.9387C50.0153 25.5685 50.142 25.2144 50.2995 24.8761C50.5074 27.8739 50.8906 30.8646 51.6306 33.7807C52.402 36.2393 53.3785 38.6303 54.3258 41.0278C55.1713 42.7172 55.8187 44.5143 56.8678 46.0977C58.8436 48.8405 60.6678 51.7073 62.8579 54.2899C63.5573 54.9616 64.1371 55.7379 64.8137 56.4324C66.8999 58.9224 69.4576 60.9772 71.5395 63.4737C72.2881 64.2045 73.0481 64.9402 73.6371 65.8149C74.5659 67.297 75.5674 68.7315 76.5282 70.1952C77.7689 72.3761 78.8786 74.6274 79.9839 76.8782C80.7867 78.5833 81.3166 80.4487 82.4491 81.9801C82.6115 80.1802 82.1714 78.4117 82.0025 76.6303C81.6734 73.7613 80.6985 71.0342 79.7468 68.3255C79.3365 67.2066 78.7297 66.1781 78.2247 65.1025C77.083 62.4815 75.7054 59.9715 74.3857 57.436C73.4427 55.2009 72.2069 53.1033 71.264 50.8704C70.1884 48.8248 69.2995 46.6958 68.2353 44.6453C67.0466 41.8825 65.7291 39.1716 64.6827 36.3497C64.1235 34.6831 63.3971 33.0727 62.9213 31.3789C62.4904 29.1909 61.9605 27.0235 61.5545 24.8312C61.0018 20.6382 60.271 16.4317 60.5032 12.1846C60.8394 12.8298 61.0153 13.5357 61.1799 14.2394C61.4955 15.5997 62.0075 16.9032 62.4341 18.2315C62.7589 19.1653 62.9305 20.1554 63.3879 21.0399C64.4391 23.0876 65.4021 25.1787 66.541 27.1789C66.9719 28.2507 67.7725 29.094 68.4064 30.0435C70.046 32.265 71.5075 34.6084 73.0638 36.8867C75.9057 40.7279 79.041 44.3519 81.7113 48.317C83.2161 50.3719 84.5353 52.5506 85.9091 54.6937C86.7211 56.0648 87.7469 57.3234 88.3109 58.8277C89.1543 60.6162 90.1422 62.3348 90.8708 64.1753C91.8024 66.5121 92.8038 68.8305 93.4647 71.2621C93.7738 72.3626 94.0829 73.4636 94.4391 74.5506C94.4932 73.0798 95.0751 71.6773 94.9918 70.1974C94.949 67.7165 95.0843 65.2287 94.8516 62.7522C94.3465 58.5478 92.6235 54.6303 90.9633 50.7757C89.7795 47.8434 88.1258 45.1303 86.8856 42.2251C84.4633 37.4459 82.3744 32.5108 79.959 27.7294C78.793 25.6453 77.7305 23.505 76.5623 21.4209C75.9192 20.1261 75.4299 18.7642 74.8458 17.4423C74.088 15.5207 73.1748 13.6575 72.5994 11.6681C71.8729 9.1018 70.8607 6.6161 70.3573 3.99074C70.1635 2.99581 69.7824 2.02849 69.816 1Z" fill="#009EDB"/>
<path d="M96.7227 33.0713C99.5959 34.1355 102.629 34.8776 105.243 36.5308C108.02 38.2901 110.032 41.067 111.205 44.1048C111.775 45.4381 112.003 46.8969 112.709 48.1739C108.557 45.4581 104.815 42.0998 101.738 38.2024C101.166 37.5008 100.717 36.6959 100.035 36.0869C98.9285 35.0855 97.8161 34.0884 96.7227 33.0713Z" fill="#009EDB"/>
<path d="M20.404 38.219C23.2458 35.9098 26.812 34.8272 30.2152 33.6406C27.0691 36.1328 24.7009 39.4077 22.2238 42.5273C20.0294 45.026 17.1312 46.7382 14.5784 48.8287C15.7557 46.6142 15.9722 44.0111 17.2893 41.8615C18.1802 40.5331 19.134 39.214 20.404 38.219Z" fill="#009EDB"/>
<path d="M109.084 38.4297C111.797 38.9845 114.184 40.6577 115.909 42.7894C117.149 44.3208 118.072 46.1455 118.361 48.1099C118.981 52.0523 117.774 56.0694 118.661 59.9939C116.815 56.798 113.633 54.7724 110.699 52.6905C108.802 51.3172 106.817 49.9526 105.448 48.0131C104.187 46.2495 103.497 44.154 103.069 42.0473C103.684 43.1321 104.429 44.1519 105.387 44.9611C107.6 46.8763 110.318 48.0785 112.609 49.8849C113.453 50.5415 114.174 51.3351 114.917 52.0978C115.704 52.9097 116.003 54.0552 116.766 54.8807C116.545 54.1932 116.191 53.5615 115.925 52.8935C114.862 50.318 114.251 47.5914 113.464 44.9254C113.103 43.7161 112.776 42.4689 112.065 41.4091C111.315 40.2003 110.25 39.2281 109.084 38.4297Z" fill="#009EDB"/>
<path d="M12.0484 42.723C13.6182 40.9929 15.6817 39.6981 17.9644 39.166C16.6631 40.0299 15.5463 41.1894 14.854 42.6012C13.5164 45.2693 13.327 48.312 12.3618 51.1068C11.8833 52.6446 11.0919 54.0748 10.7536 55.656C11.7507 53.7998 12.9729 52.0357 14.6147 50.6824C16.911 48.8035 19.6625 47.5498 21.8618 45.5421C22.782 44.6988 23.542 43.6838 24.0314 42.5313C24.0969 42.5649 24.23 42.6304 24.2977 42.6623L23.9837 42.7544C23.9729 45.4495 22.5092 47.8995 20.77 49.8618C18.9117 51.9458 16.6468 53.6103 14.3149 55.1233C12.3028 56.6525 10.3611 58.3896 9.10257 60.6133C8.98294 59.1453 9.33047 57.681 9.17944 56.213C8.87252 53.2266 8.59753 50.146 9.40246 47.2094C9.85608 45.5086 10.7785 43.9452 12.0484 42.723Z" fill="#009EDB"/>
<path d="M118.873 45.7529C119.69 46.2536 120.206 47.077 120.784 47.8164C124.699 52.5215 125.768 59.4053 123.531 65.0913C122.685 66.9544 121.867 68.842 121.352 70.8291C121.052 71.8192 120.919 72.8477 120.63 73.8426C120.031 70.3263 117.813 67.4232 115.56 64.78C113.733 62.5763 111.766 60.4224 110.542 57.8063C109.773 56.1147 109.146 54.3527 108.773 52.5307C111.067 56.0443 115.082 57.8377 117.75 61C118.585 61.9744 119.147 63.1447 119.606 64.3356C119.988 65.3819 119.949 66.5479 120.459 67.5521C120.513 66.8505 120.365 66.1603 120.292 65.468C119.85 61.3405 120.083 57.1703 120.678 53.072C120.797 50.5365 120.387 47.8548 118.873 45.7529Z" fill="#009EDB"/>
<path d="M6.81679 48.3141C7.32184 47.6759 7.79332 46.9971 8.42719 46.4785C7.71212 47.6624 7.07392 48.9209 6.88662 50.3105C6.19645 54.7849 8.0932 59.1858 7.59033 63.6673C7.48694 65.1943 7.26554 66.7187 7.27041 68.25C7.71212 67.7721 7.64933 67.0705 7.80252 66.4772C8.11161 64.542 9.11303 62.7942 10.3667 61.3169C12.0718 59.3319 14.1359 57.708 16.1587 56.064C17.1309 55.2791 17.9451 54.2999 18.5318 53.1973C18.2227 55.4686 17.4243 57.6539 16.3866 59.6908C14.2306 63.3717 11.0753 66.3533 8.94793 70.0548C8.13164 71.453 7.54973 72.9822 7.22711 74.5677C6.76266 69.6688 3.32534 65.6225 2.95996 60.7058C2.90366 58.8561 2.89013 56.9751 3.34808 55.1687C3.95488 52.6538 5.2405 50.3511 6.81679 48.3141Z" fill="#009EDB"/>
<path d="M27.9188 51.5654C28.2463 50.6837 28.5326 49.7883 28.9251 48.9336C29.0626 50.1851 28.7037 51.4079 28.5099 52.6324C27.876 56.2321 27.7542 59.9807 28.636 63.5511C29.2585 65.6466 30.0098 67.7014 30.8283 69.7291C31.2592 71.2854 32.3981 72.4736 33.1651 73.8609C33.8916 75.185 35.0397 76.1772 35.9913 77.3275C37.3154 78.8183 39.0048 79.8874 40.5697 81.0961C42.2142 82.4315 44.2414 83.1401 46.0689 84.1729C47.0768 84.7884 48.2044 85.1673 49.2827 85.6437C49.9436 85.6815 49.7363 84.9037 49.4927 84.5583C47.8054 81.8545 46.3845 78.9942 44.7108 76.2812C44.3995 75.7647 44.0704 75.2527 43.8447 74.6886C42.9878 72.2663 42.185 69.819 41.6323 67.3062C41.143 63.1787 41.3503 59.0177 41.3097 54.8723C41.3433 54.0062 41.2058 53.1244 41.418 52.2762C41.9051 54.5383 41.8645 56.8952 42.4421 59.1487C43.3937 63.5311 44.9159 67.7912 47.007 71.759C48.6537 74.2783 50.361 76.7662 52.3048 79.0689C53.9607 80.7199 55.6095 82.3796 57.2692 84.0284C58.7713 85.1538 59.8453 86.7127 61.1081 88.0796C62.574 91.0519 63.2869 94.408 63.1288 97.7257C62.8154 99.1629 62.5469 100.635 61.762 101.91C61.4486 102.796 60.7563 103.423 60.1089 104.068C59.2634 105.3 57.8716 105.954 56.8161 106.98C56.4778 106.362 56.4843 105.627 56.1481 105.011C55.7557 104.17 55.0904 103.509 54.4565 102.852C52.6388 101.858 50.8162 100.859 48.9081 100.042C45.6537 98.1615 42.2727 96.4563 39.3182 94.1081C37.841 92.8788 36.2328 91.794 34.9423 90.3574C34.2656 89.5768 33.3232 89.0739 32.7164 88.2284C31.5412 86.7127 30.2107 85.3097 29.2 83.6722C28.4763 82.4386 27.5377 81.3175 27.044 79.9621C26.2207 78.0112 25.0996 76.1323 24.8198 74.0028C24.2243 71.4251 24.3916 68.7591 24.3645 66.1337C24.2357 63.9728 25.0184 61.9137 25.3589 59.8047C25.8396 56.9515 27.0554 54.3083 27.9188 51.5654Z" fill="#009EDB"/>
<path d="M125.987 60.6006C128.949 66.5934 128.132 74.0072 124.79 79.6726C122.417 82.7851 119.586 85.5301 117.301 88.7152C117.52 86.3172 117.816 83.8136 117.015 81.4887C115.202 76.6683 113.6 71.7202 112.966 66.5891C112.788 65.52 112.849 64.4374 112.915 63.3634C114.051 67.6896 117.665 70.7323 119.298 74.8257C120.001 76.5038 120.118 78.3512 120.004 80.1489C119.907 81.2473 119.482 82.2779 119.325 83.3649C119.548 83.1575 119.764 82.9297 119.807 82.6141C120.531 80.0428 120.991 77.3883 121.997 74.9026C123.317 71.8555 125.121 68.9795 125.859 65.7046C126.256 64.0336 126.271 62.29 125.987 60.6006Z" fill="#009EDB"/>
<path d="M1.7305 61.3828C1.40571 63.1101 1.43061 64.9035 1.89506 66.6021C2.92355 70.5104 5.48124 73.7924 6.6364 77.6514C7.2589 79.5687 7.4462 81.6051 8.19916 83.4818C8.29389 83.7297 8.44762 83.9398 8.65278 84.1135C8.21973 82.5979 7.77531 81.0524 7.89711 79.4555C8.09577 75.3849 10.3465 71.8095 12.6628 68.5979C13.6848 67.256 14.2575 65.6521 14.7539 64.0601C15.0716 66.8208 14.3885 69.5544 13.9641 72.2632C13.1386 75.9484 11.7945 79.4875 10.7027 83.0959C10.123 85.1664 10.3936 87.3294 10.6486 89.4249C9.95842 88.7304 9.52321 87.8372 8.87363 87.1086C6.49403 84.1493 3.3658 81.6955 1.80736 78.1499C0.444885 74.4939 -0.353548 70.5196 0.192634 66.6178C0.550982 64.8358 0.943432 63.0316 1.7305 61.3828Z" fill="#009EDB"/>
<path d="M113.892 76.4756C113.345 81.2391 115.949 85.7499 115.275 90.5069C114.982 92.8345 113.897 94.95 112.623 96.8808C113.13 96.6351 113.426 96.1365 113.773 95.717C115.568 93.4592 117.211 91.0574 119.315 89.0632C121.888 86.7583 124.635 84.5075 126.395 81.4805C127.139 80.2377 127.57 78.8417 127.818 77.4229C128.28 80.4634 127.863 83.6279 126.57 86.4222C124.662 90.6195 121.214 93.9328 117.375 96.3936C114.186 98.3061 110.924 100.106 107.823 102.163C108.371 101.055 109.064 100.018 109.452 98.8387C111.714 92.7598 110.665 86.0611 112.566 79.9015C112.918 78.7242 113.459 77.6215 113.892 76.4756Z" fill="#009EDB"/>
<path d="M14.0641 79.894C14.1496 79.0479 14.0727 78.1953 14.0911 77.3477C17.1225 83.7032 16.3533 90.9503 17.9231 97.6647C18.2971 99.4873 19.4339 101.005 20.1874 102.672C15.2143 99.6497 9.8348 97.1412 5.54491 93.1312C2.6738 90.4674 0.569183 86.8612 0.125308 82.934C-0.039792 81.3891 -0.0533248 79.8214 0.154539 78.2787C0.242231 80.1056 1.05636 81.8086 2.11192 83.2723C5.05123 87.2872 9.52138 89.8812 12.3768 93.9724C13.3014 95.1746 14.1182 96.503 15.3291 97.4525C15.1034 96.9788 14.8105 96.5458 14.515 96.1176C12.9814 93.7223 12.3454 90.8101 12.5776 87.9887C12.7671 85.2373 13.8178 82.6363 14.0641 79.894Z" fill="#009EDB"/>
<path d="M106.585 91.92C107.598 90.6258 108.577 89.2947 109.743 88.1357C107.618 92.1999 108.046 96.9813 106.441 101.211C105.311 104.138 103.066 106.443 100.716 108.439C102.085 108.07 103.008 106.937 104.147 106.175C107.947 103.471 112.454 102.072 116.529 99.8638C119.52 98.294 122.251 95.9983 123.781 92.935C123.226 96.4492 121.207 99.5504 118.762 102.059C115.736 105.122 111.987 107.481 107.893 108.82C103.795 109.975 99.485 110.169 95.4067 111.423C97.978 109.427 99.7535 106.597 100.933 103.599C102.548 99.5931 103.675 95.2426 106.585 91.92Z" fill="#009EDB"/>
<path d="M18.1207 88.7393C20.5051 91.3446 22.8257 94.0782 24.3977 97.2649C26.0308 100.845 26.9554 104.773 29.2018 108.058C30.1562 109.483 31.3855 110.703 32.7409 111.745C27.632 110.268 22.1085 110.493 17.1918 108.321C12.805 106.169 8.77874 103.026 6.18478 98.8325C5.23099 97.2811 4.52024 95.5733 4.16406 93.7848C5.14059 95.596 6.46896 97.227 8.12916 98.4536C12.8272 102.022 18.8742 103.141 23.6312 106.616C24.8194 107.518 26.0644 108.375 27.4653 108.917C26.2858 107.828 24.9639 106.882 23.9333 105.64C22.9952 104.487 22.1356 103.246 21.6013 101.85C19.9368 97.6168 20.3108 92.7991 18.1207 88.7393Z" fill="#009EDB"/>
<path d="M88.8726 110.046C92.7586 106.71 96.4168 103.027 100.84 100.388C98.4673 103.212 97.5444 106.965 95.0614 109.712C93.8862 111.038 92.3256 111.952 90.706 112.628C89.5308 113.084 88.2723 113.278 87.1106 113.772C88.4097 113.781 89.691 113.519 90.9653 113.282C96.0449 112.333 101.275 112.61 106.334 111.521C109.282 110.898 112.128 109.563 114.224 107.361C112.492 110.663 109.413 113.045 106.147 114.717C102.667 116.499 98.6968 117.263 94.8021 116.927C89.4382 116.548 84.3007 114.777 78.9688 114.175C82.4716 113.422 86.0984 112.436 88.8726 110.046Z" fill="#009EDB"/>
<path d="M27.168 100.848C31.3588 103.358 34.9358 106.714 38.6438 109.86C41.5918 112.468 45.4665 113.657 49.2649 114.363C48.3241 114.604 47.3432 114.601 46.391 114.777C41.4429 115.851 36.5121 117.342 31.4038 117.34C27.3418 117.38 23.2863 116.194 19.8647 114.011C17.4715 112.49 15.3247 110.504 13.8745 108.049C15.6018 109.694 17.7178 110.912 20.0157 111.556C25.5619 113.19 31.433 112.563 37.0805 113.557C38.4316 113.738 39.767 114.187 41.1452 114.053C40.3782 113.69 39.5348 113.566 38.7158 113.375C36.792 112.838 34.9288 111.931 33.5241 110.485C30.7699 107.72 29.6061 103.848 27.168 100.848Z" fill="#009EDB"/>
<path d="M43.5896 117.56C47.4286 116.051 51.3758 114.625 55.519 114.289C57.8196 114.073 60.1402 114.278 62.4028 114.72C63.1109 114.88 63.8054 115.228 64.5497 115.153C66.1081 114.459 67.836 114.335 69.5162 114.202C74.2348 113.927 79.0048 114.858 83.2904 116.843C86.1074 117.792 88.8459 119.105 91.8274 119.464C95.9008 119.989 100.195 119.367 103.777 117.287C100.914 120.382 96.9222 122.337 92.7839 123.011C87.1137 123.848 81.3915 121.854 76.7113 118.735C74.8302 117.635 73.0639 116.141 70.8446 115.808C69.5119 115.694 68.1543 115.726 66.8389 116.001C72.0539 118.2 76.9051 121.236 81.1771 124.944C80.3765 125.727 79.4763 126.395 78.5767 127.058C74.3929 123.05 69.9 119.177 64.5567 116.806C63.5212 116.741 62.5652 117.393 61.638 117.81C57.2441 120.271 53.1302 123.34 49.8758 127.209C48.967 126.534 48.0603 125.86 47.1487 125.188C50.6992 121.979 54.6729 119.229 58.9834 117.142C59.7997 116.714 60.6793 116.414 61.4799 115.952C58.9698 115.189 56.2996 115.952 54.1273 117.28C50.9471 119.229 47.8659 121.475 44.2554 122.565C40.2789 123.812 35.8672 123.938 31.9449 122.425C29.2156 121.421 26.5112 120.023 24.5923 117.788C28.5482 120.027 33.3431 120.449 37.7526 119.57C39.7896 119.193 41.6636 118.284 43.5896 117.56Z" fill="#009EDB"/>
</svg>
