<svg width="128" height="128" viewBox="0 0 128 128" fill="none" xmlns="http://www.w3.org/2000/svg">
<path d="M104.489 0.399117H101.66H74.4488H71.6195V3.22832V19.3789V20.1568L72.0187 20.8269L89.6261 50.4067V75.0564L46.4774 1.79185L45.6586 0.399117H44.0415H25.2716H22.4424V3.22832V124.475V127.305H25.2716H52.4795H55.3088V124.475V108.322V107.544L54.9124 106.877L37.305 77.2971V52.6474L80.4509 125.912L81.2726 127.305H82.8897H101.66H104.489V124.475V3.22832V0.399117ZM101.66 3.22832V124.475H82.8897L34.4759 42.2688V78.0751L52.4795 108.322V124.475H25.2716V3.22832H44.0415L92.4553 85.435V49.6287L74.4488 19.3789V3.22832H101.66Z" fill="white"/>
<path d="M74.4487 3.22537V19.3759L92.4552 49.6258V85.4321L44.0385 3.22537H25.2715V124.473H52.4794V108.319L34.4758 78.0721V42.2658L82.8896 124.473H101.66V3.22537H74.4487Z" fill="#59118E"/>
<path d="M74.4487 3.22537V19.3759L92.4552 49.6258V85.4321L44.0385 3.22537H25.2715V124.473H52.4794V108.319L34.4758 78.0721V42.2658L82.8896 124.473H101.66V3.22537H74.4487Z" fill="#59118E"/>
</svg>
