<svg width="128" height="128" viewBox="0 0 128 128" fill="none" xmlns="http://www.w3.org/2000/svg">
<path d="M112.871 69.9297C111.652 69.9341 110.438 70.0846 109.256 70.378C107.052 61.7124 102.402 53.8638 95.8601 47.7684C89.3183 41.673 81.1611 37.5883 72.3616 36.0015C71.557 35.8578 70.8328 35.7486 70.0109 35.6451C70.1488 31.2424 70.35 26.1558 76.8276 21.5807L75.8045 19C75.8045 19 63.1597 22.9199 61.7285 33.7197C61.102 30.7826 55.2165 27.1042 52.3024 26.4087L50.854 28.748C50.854 28.748 54.7164 30.6792 55.659 36.0072C46.8601 37.5888 38.7017 41.668 32.1571 47.7581C25.6124 53.8483 20.9576 61.6925 18.7478 70.355C16.4387 69.7835 14.0272 69.7651 11.7096 70.3012C9.39202 70.8373 7.23365 71.9128 5.41002 73.4402C3.58639 74.9677 2.14899 76.9039 1.2147 79.0916C0.280412 81.2792 -0.12439 83.6565 0.033216 86.0301C0.190822 88.4037 0.906383 90.7065 2.12171 92.7515C3.33704 94.7964 5.01783 96.5256 7.02741 97.7985C9.03698 99.0714 11.3186 99.8521 13.6868 100.077C16.0549 100.302 18.4427 99.9649 20.656 99.0932C21.9454 102.312 23.5918 105.375 25.5645 108.226L38.1115 99.7714L38.0023 99.6334C34.686 95.3687 32.657 89.0923 32.3122 82.8446C31.9386 75.9475 33.6169 69.1078 38.0196 65.0845C47.0951 57.3596 56.9867 60.8829 63.1597 68.2859H64.8208C71.0109 60.8829 80.9141 57.3654 89.9609 65.0845C94.3578 69.1078 96.0419 75.9532 95.6683 82.8446C95.3292 89.0923 93.3002 95.3687 89.9781 99.6334L89.8689 99.7714L102.416 108.226C104.393 105.376 106.043 102.312 107.336 99.0932C109.405 99.9108 111.629 100.261 113.849 100.12C116.069 99.9789 118.231 99.3492 120.179 98.2759C122.128 97.2026 123.816 95.7123 125.122 93.9114C126.428 92.1105 127.32 90.0434 127.735 87.8577C128.15 85.6721 128.077 83.4218 127.521 81.2676C126.966 79.1134 125.942 77.1084 124.522 75.3958C123.102 73.6832 121.321 72.3053 119.307 71.3604C117.293 70.4155 115.096 69.927 112.871 69.9297ZM14.8567 89.4716C13.6737 89.4716 12.5393 89.0017 11.7028 88.1653C10.8664 87.3288 10.3965 86.1944 10.3965 85.0115C10.3965 83.8286 10.8664 82.6941 11.7028 81.8577C12.5393 81.0212 13.6737 80.5513 14.8567 80.5513C15.7479 80.5548 16.6181 80.8229 17.3569 81.3215C17.3947 83.6636 17.5539 86.0022 17.8339 88.3279C17.0163 89.0775 15.9487 89.4955 14.8394 89.5004L14.8567 89.4716ZM113.141 89.4716C112.041 89.4688 110.98 89.0594 110.164 88.3221C110.444 85.9965 110.603 83.6579 110.641 81.3158C111.311 80.8611 112.093 80.5978 112.902 80.5543C113.711 80.5108 114.516 80.6887 115.231 81.0688C115.947 81.4489 116.545 82.0169 116.961 82.7116C117.378 83.4063 117.597 84.2014 117.595 85.0115C117.601 85.5991 117.49 86.1819 117.268 86.7263C117.047 87.2707 116.72 87.7658 116.307 88.1832C115.893 88.6006 115.401 88.9319 114.859 89.1579C114.316 89.384 113.734 89.5004 113.147 89.5004L113.141 89.4716Z" fill="#00BF6F"/>
</svg>
