<svg width="128" height="128" viewBox="0 0 128 128" fill="none" xmlns="http://www.w3.org/2000/svg">
<rect width="128" height="128" rx="24" fill="#5000B9"/>
<path d="M106.047 49.6401C106.047 49.6401 102.273 47.8285 98.3599 49.0363C95.4312 49.8998 92.2186 52.116 90.3949 56.7235C86.8744 65.564 89.9239 80.9807 88.7283 80.9807C87.5326 80.9807 83.7826 66.7778 78.7645 51.9952C73.7464 37.2126 69.3986 21.8322 61.5604 23.0701C54.6039 24.1631 56.7657 41.6872 59.4831 58.0942C61.9529 72.9674 64.8031 86.8926 63.1727 86.8926C60.2621 86.8926 50.7029 45.7814 40.9022 47.3394C31.1015 48.8974 43.7283 94.2054 41.0773 94.2959C38.9275 94.3261 33.5531 66.6691 25.6425 67.9372C19.6039 68.9034 24.9843 90.4071 25.2319 96.4095C25.2923 97.9131 25.7572 100.733 23.5048 100.733H19V104.918H26.343C27.8527 104.845 29.0423 104.272 29.6461 102.786C31.6872 97.7682 26.3309 76.4397 27.587 76.2887C28.4444 76.18 30.3043 82.6715 32.8949 90.0145C35.4855 97.3575 38.0821 104.96 43.0036 104.96C53.6135 104.96 42.7923 63.3539 44.8937 63.3539C46.0048 63.3539 49.0423 71.808 52.3756 81.0834C56.4577 92.4119 61.4336 104.978 67.442 104.978C74.6099 104.978 72.273 88.7464 70.0568 73.1969C68.1365 59.7368 65.8841 47.0858 67.0858 47.0858C69.7911 47.0858 80.0085 104.96 92.285 104.96C98.4324 104.96 98.5048 92.8829 98.5048 79.8153C98.5048 70.6546 97.7379 62.3032 103.493 60.2983C106.228 59.3442 109 61.0351 109 61.0351L106.047 49.6401Z" fill="white"/>
</svg>
