<svg width="128" height="128" viewBox="0 0 128 128" fill="none" xmlns="http://www.w3.org/2000/svg">
<path d="M0 24C0 10.7452 10.7452 0 24 0H104C117.255 0 128 10.7452 128 24V104C128 117.255 117.255 128 104 128H24C10.7452 128 0 117.255 0 104V24Z" fill="url(#paint0_linear_2800_1646)"/>
<path fill-rule="evenodd" clip-rule="evenodd" d="M23.3337 28C23.3337 28 24.9512 32.6503 31.6234 33.4591C38.2956 34.2678 42.9459 33.8635 47.1919 37.5029C47.1919 37.5029 47.1919 34.47 48.2028 33.6613C49.2138 32.8525 49.2138 33.2569 49.416 33.4591C49.6182 33.6613 48.2028 34.0657 48.8094 36.0875C49.416 38.1094 50.6291 42.3554 51.2357 43.7707C51.8422 45.186 52.2466 48.8254 51.8422 50.0385C51.4379 51.2517 50.0225 54.0823 49.416 54.8911C48.6072 55.6998 45.3722 59.7436 44.9678 61.7655C44.7656 63.7874 45.17 65.0005 45.3722 65.6071C45.7766 66.2136 47.1919 69.6508 50.8313 69.853C54.4707 70.0552 55.6838 68.8421 55.6838 67.4268C55.6838 67.4268 54.8751 67.6289 54.6729 67.6289C54.2685 67.4268 54.4707 67.2246 54.8751 67.0224C55.0773 66.8202 55.2794 66.2136 55.6838 65.4049C55.886 64.5961 56.8969 57.3173 60.5363 53.8801C64.1757 50.4429 68.0173 49.2298 68.0173 49.2298C68.0173 49.2298 68.4217 48.421 67.4108 48.2188C66.3998 48.0167 64.5801 48.0167 64.1757 47.4101C63.5692 46.8035 62.5582 45.3882 62.7604 44.3773C62.9626 43.3663 63.367 43.7707 63.5692 44.3773C63.7714 44.9838 64.7823 45.5904 65.9954 45.5904C65.9954 45.5904 66.1976 45.3882 65.9954 45.3882C65.7932 45.3882 64.7823 45.186 64.3779 44.5795C63.9735 44.1751 63.5692 43.5685 63.7714 42.9619C63.7714 42.9619 63.9735 42.9619 64.1757 43.1641C64.5801 43.3663 64.9845 43.3663 65.3889 43.3663C65.7932 43.3663 67.4108 42.7598 68.2195 42.9619C69.0283 42.9619 70.0392 43.3663 70.2414 44.1751C70.4436 44.7816 70.6458 45.5904 70.6458 45.5904C70.6458 45.5904 71.2523 44.7816 71.0501 43.9729C70.848 43.3663 70.4436 42.7598 70.2414 42.5576C69.837 42.3554 69.4326 41.7488 70.2414 41.7488C70.848 41.7488 71.4545 41.951 71.8589 42.3554C72.2633 42.7598 73.072 43.7707 73.6786 43.7707C74.083 43.7707 75.2961 43.7707 76.1049 44.1751C76.7114 44.5795 77.1158 44.7816 77.1158 45.3882C77.1158 45.9948 76.5092 46.3992 76.307 46.8035C76.1049 47.0057 75.9027 47.8145 75.9027 47.8145C75.9027 47.8145 76.7114 47.6123 76.9136 47.2079C77.1158 46.8035 77.318 46.197 77.7224 45.9948C78.1267 45.7926 78.5311 45.186 78.9355 45.186C79.5421 45.186 79.1377 45.9948 79.1377 46.197C79.1377 46.3992 78.9355 47.0057 78.9355 47.6123C78.9355 48.2188 78.9355 49.0276 78.3289 49.432C77.7224 49.8364 75.9027 51.0495 75.0939 50.8473C74.083 50.8473 73.8808 49.8364 73.6786 49.6342C73.4764 49.432 73.072 49.2298 72.6677 49.432C72.2633 49.6342 72.0611 49.8364 72.0611 50.0385C72.0611 50.0385 72.6677 50.6451 72.8698 51.0495C73.072 51.4539 73.072 52.2626 73.2742 52.4648C73.2742 52.8692 73.4764 53.0714 73.8808 53.4757C74.2852 53.8801 74.8917 55.0933 74.6895 55.4976C74.6895 55.902 74.4874 56.913 74.2852 57.1151C74.083 57.3173 73.8808 57.5195 73.8808 56.913C73.8808 56.3064 73.4764 56.1042 73.072 55.902C72.6676 55.6998 72.4655 55.4976 71.6567 55.4976C71.0501 55.6998 70.6458 56.1042 70.2414 56.1042H69.2304C69.2304 56.1042 69.0283 56.1042 69.0283 56.7108C69.0283 57.3173 69.0283 58.3283 69.837 59.3392C70.6458 60.148 71.2523 60.9567 71.0501 61.9677C70.848 62.9786 69.837 63.383 68.6239 62.9786C68.6239 62.9786 69.2304 64.3939 69.837 64.7983C70.4436 65.4049 71.8589 66.618 72.0611 67.2246C72.2633 67.8311 72.8698 69.0443 72.6677 69.0443C72.4655 69.2465 71.6567 68.4377 71.2523 68.2355C71.2523 68.2355 72.0611 69.853 72.4655 71.4705C72.8698 73.088 72.8698 75.5143 72.8698 76.1209C72.8698 76.7274 72.4655 78.1427 72.2633 78.3449C72.0611 78.5471 71.8589 78.3449 72.0611 77.9406C72.2633 77.5362 72.2633 76.323 71.6567 75.3121C71.6567 75.3121 71.6567 77.9406 71.4545 78.9515C71.2523 79.9624 70.0392 82.9953 67.8151 84.4106C65.5911 85.8259 64.3779 86.0281 64.3779 86.0281C64.3779 86.0281 64.3779 87.039 64.1757 87.4434C63.9735 87.8478 63.1648 88.4544 63.1648 88.6565C62.9626 88.8587 63.1648 88.8587 63.1648 88.8587C63.1648 88.8587 63.9735 88.8587 64.7823 89.0609C65.3889 89.2631 66.602 90.0719 67.0064 90.0719C67.2086 90.0719 68.2195 90.0719 68.6239 90.2741C69.0283 90.4762 69.6348 90.8806 70.4436 91.4872C71.2523 92.0938 71.6567 92.0938 72.0611 92.0938C72.4655 92.0938 73.6786 92.2959 74.083 92.2959C74.4873 92.4981 74.8917 92.4981 75.0939 92.7003C75.2961 92.9025 75.9027 92.7003 76.307 92.9025C76.7114 93.1047 77.1158 93.9134 76.9136 94.7222H76.5092C76.307 94.7222 76.1049 94.3178 75.9027 94.3178C75.7005 94.3178 74.6895 94.3178 74.4874 94.1156C74.2852 93.9135 73.6786 93.7113 73.4764 93.7113H72.4655C72.4655 93.7113 72.8698 94.7222 73.2742 94.9244C73.6786 95.1266 74.2852 95.9353 74.6895 95.9353C75.0939 96.1375 76.1049 96.3397 76.307 96.7441C76.5092 97.1485 76.5092 97.9572 75.9027 98.3616C75.9027 98.3616 75.7005 97.5528 75.2961 97.5528C74.8917 97.3507 73.4764 97.3507 73.072 97.1485C72.6676 96.9463 72.2633 96.5419 72.2633 96.1375C72.0611 95.7331 72.0611 95.1266 71.4545 94.9244C71.4545 94.9244 71.2523 96.5419 71.4545 96.7441C71.4545 96.9463 71.6567 97.1485 71.6567 97.3507C71.6567 97.5528 71.8589 98.3616 71.6567 98.5638L71.2523 98.9682C71.2523 98.9682 71.2523 98.5638 71.0501 98.3616L70.2414 97.5528C70.0392 97.3507 70.0392 96.7441 70.0392 96.3397C70.2414 95.9353 70.2414 95.3288 70.0392 94.9244C69.837 94.52 69.4326 93.7113 69.0283 93.5091C68.6239 93.3069 68.0173 93.3069 67.8151 93.3069C67.6129 93.5091 67.4108 93.9135 67.0064 94.1156C66.602 94.3178 65.9954 94.3178 65.7932 94.52C65.5911 94.7222 64.9845 95.1266 65.1867 95.9353C65.1867 95.9353 64.5801 95.7331 64.3779 95.1266C64.1757 94.3178 64.5801 93.9135 64.9845 93.5091C65.3889 93.3069 66.1976 92.9025 66.3998 92.7003C66.3998 92.7003 66.1976 92.0938 66.602 91.8916V91.6894C66.602 91.6894 65.1867 90.8806 64.3779 90.6784C63.5692 90.4762 61.9517 90.4762 61.5473 90.4762C61.5473 90.4762 61.1429 92.0938 60.7385 92.2959H60.3342C60.3342 92.2959 60.132 91.4872 59.9298 90.8806C59.7276 90.4762 59.5254 88.4544 59.7276 88.05H59.5254C59.5254 88.05 59.3232 89.4653 58.7166 89.8697C58.1101 90.4762 57.5035 90.6784 57.0991 90.6784C56.8969 90.8806 55.886 91.4872 55.6838 91.8916C55.6838 91.8916 57.5035 93.3069 57.9079 94.1156C58.3123 94.9244 58.5145 95.7331 58.9188 95.7331C59.3232 95.9353 60.3342 95.9353 60.7385 96.1375C61.1429 96.3397 61.3451 96.7441 61.5473 96.7441H62.9626C63.367 96.7441 64.5801 97.1485 65.1867 97.3507C65.7932 97.5528 66.602 97.755 67.0064 97.755C67.4108 97.755 68.4217 97.9572 68.8261 99.3725H68.4217C68.4217 99.3725 68.2195 98.766 68.0173 98.9682C67.6129 99.1703 66.8042 99.1703 66.3998 99.1703C66.3998 99.1703 67.0064 99.7769 67.0064 100.383H66.602C66.602 100.383 66.1976 99.9791 65.7932 99.9791H62.9626C62.5582 99.9791 62.1539 99.5747 61.7495 99.3725C61.3451 99.1703 59.7276 98.9682 59.3232 98.766C58.9188 98.5638 57.5035 98.5638 57.0991 98.5638C56.6948 98.766 56.0882 98.9682 55.6838 98.9682C55.2794 99.1703 54.2685 99.1703 53.8641 99.1703C53.6619 99.1703 53.0554 99.3725 52.651 99.9791C52.651 99.9791 52.0444 99.9791 52.4488 99.5747C52.651 98.9682 53.0554 98.1594 54.0663 97.9572C54.8751 97.755 55.2794 97.755 55.4816 97.5528L56.2904 96.7441C56.4926 96.5419 56.4926 95.9353 56.6948 95.531C56.8969 95.1266 56.4926 94.52 56.0882 94.1156C55.886 93.9135 54.4707 92.4981 54.0663 92.4981C53.8641 92.4981 53.4597 92.7003 53.4597 92.9025C53.2576 93.1047 53.0554 93.7113 53.0554 93.7113H52.8532C52.8532 93.7113 52.651 92.2959 53.0554 91.6894C53.4597 91.0828 54.2685 90.4762 54.4707 90.2741L55.0773 89.0609C55.0773 89.0609 54.2685 88.05 53.8641 87.6456C53.6619 87.2412 53.4597 85.2193 53.4597 85.2193C53.4597 85.2193 48.6072 83.1975 48.0007 82.5909C47.3941 81.9843 42.9459 78.1427 41.7328 74.7055C40.3175 71.4705 40.1153 68.2355 40.1153 68.2355H39.9131C39.9131 68.2355 39.9131 71.2683 40.1153 72.8858C40.3175 74.7055 41.3284 83.3996 40.3175 88.2522C39.3066 93.1047 37.4869 97.5528 32.6343 99.7769C32.6343 99.7769 32.0278 99.5747 32.6343 99.3725C33.2409 98.9682 34.8584 98.1594 35.2628 96.9463C35.6672 95.7331 36.6781 91.6894 36.4759 89.4653C36.2737 87.2412 34.454 80.7712 33.8475 78.3449C33.0387 75.9187 32.6343 70.0552 33.0387 68.8421C33.0387 68.8421 30.8146 74.5034 31.219 78.3449C31.4212 82.1865 31.6234 84.815 32.8365 88.4544C34.0497 92.0938 34.2518 95.3288 33.0387 95.1266C33.0387 95.1266 33.0387 93.1047 32.0278 91.285C31.0168 89.4653 26.5687 82.3887 25.9621 78.9515C25.3555 75.3121 25.1534 72.6837 25.7599 71.4705C25.7599 71.4705 23.5358 75.7165 21.7162 77.334C20.503 78.5471 18.8855 79.7603 17.6724 80.1646C16.2571 80.569 15.8527 80.3668 15.8527 79.9624C15.8527 79.9624 20.0986 78.9515 20.9074 73.4924C21.1096 71.4705 22.3227 64.5961 23.1315 63.383C23.1315 63.383 17.6724 67.8311 14.8417 69.0443C12.0111 70.2574 10.798 70.2574 9.18047 70.2574C9.18047 70.2574 8.5739 69.853 9.58484 69.6508C10.5958 69.4486 13.022 68.8421 14.4374 65.4049C15.6505 62.5742 18.0768 53.6779 21.3118 50.2407C23.738 47.6123 25.7599 46.197 25.7599 46.197C25.7599 46.197 20.7052 47.2079 17.8746 45.9948C15.4483 44.9838 14.4374 43.7707 14.2352 42.9619C13.8308 42.1532 14.8417 42.7598 15.0439 43.1641C15.4483 43.3663 17.6724 44.7816 20.0986 43.9729C22.5249 43.1641 27.3774 40.3335 28.9949 39.7269C30.6124 38.9182 34.2518 37.5029 36.6781 37.705C36.6781 37.705 29.6015 36.6941 26.5687 33.0547C24.1424 31.4372 22.9293 28.8088 23.3337 28Z" fill="white"/>
<path fill-rule="evenodd" clip-rule="evenodd" d="M115.532 63.9893C115.127 63.9893 114.925 64.5958 114.925 65.0002C115.127 65.4046 115.329 65.809 115.936 65.6068C116.543 65.4046 116.34 64.798 116.34 64.5958C116.138 64.1914 115.734 63.9893 115.532 63.9893Z" fill="white"/>
<path fill-rule="evenodd" clip-rule="evenodd" d="M80.553 70.0545C80.7552 70.2567 81.564 70.8632 81.9684 71.8742C81.9684 71.8742 81.9684 70.4589 82.3727 70.0545C82.7771 69.6501 82.9793 69.4479 83.1815 69.4479C83.3837 69.4479 83.9902 69.8523 84.1924 70.0545C84.5968 70.2567 85.2034 71.2676 85.4056 71.4698C85.4056 71.4698 85.6077 70.6611 85.8099 70.0545C86.0121 69.6501 86.4165 69.0435 86.6187 69.0435C87.0231 68.8414 87.6296 69.2457 87.8318 69.4479C88.034 69.6501 89.045 70.6611 89.2471 70.6611C89.2471 70.6611 89.4493 69.4479 90.0559 68.8414C90.6625 68.2348 91.0668 67.6282 92.0778 68.0326C93.0887 68.2348 93.8975 69.6501 93.8975 69.6501C93.8975 69.6501 94.3019 68.0326 94.9084 67.426C95.515 66.8195 96.1215 66.4151 96.7281 66.6173C97.3347 66.6173 98.1434 67.0217 98.75 68.0326C98.75 68.0326 98.9522 66.8195 99.3566 66.2129C99.7609 65.6063 100.368 65.6063 100.772 65.6063C101.176 65.6063 102.187 66.4151 102.592 67.2238C102.592 67.2238 102.794 65.8085 103.198 65.202C103.603 64.5954 103.805 64.191 104.411 64.191C104.816 64.191 105.422 64.5954 106.029 64.9998C106.433 65.6063 106.635 66.0107 106.838 66.2129C107.04 66.4151 107.242 66.8195 107.242 66.8195C107.242 66.8195 107.646 66.6173 108.051 66.6173C108.455 66.6173 109.062 66.2129 109.668 66.0107C110.275 65.8085 111.69 65.4042 112.701 64.5954C112.701 64.5954 113.914 66.2129 114.723 66.4151C115.532 66.6173 116.543 66.4151 116.543 65.202C116.543 65.202 116.34 66.0107 115.532 66.0107C114.723 66.0107 114.319 65.4042 114.319 64.5954C114.319 63.7866 115.127 63.5845 115.532 63.5845C115.936 63.5845 116.34 63.7866 116.543 64.191L115.936 61.7648C115.734 60.956 115.532 60.3494 115.127 59.7429C114.925 59.1363 114.319 57.5188 114.116 57.1144C113.914 56.71 113.105 55.4969 112.903 55.2947C112.701 55.0925 112.499 54.8903 112.094 55.0925C111.69 55.2947 109.062 56.5079 108.455 56.9122C108.051 57.1144 106.635 57.721 105.827 57.9232C105.624 57.9232 105.624 58.1254 105.422 58.1254H105.22C104.613 58.3276 102.592 59.1363 102.187 59.3385C101.783 59.5407 97.7391 61.1582 96.9303 61.5626C96.1215 61.9669 93.4931 63.1801 92.6843 63.3823C91.8756 63.5845 87.8318 64.9998 86.4165 65.6063C85.0012 66.0107 83.3837 66.4151 81.9684 66.6173C80.553 66.8195 79.9465 66.8195 78.5312 66.8195C77.9246 66.8195 77.1158 66.2129 77.7224 65.6063C78.329 64.9998 79.7443 63.9888 80.1487 63.7866C80.553 63.5845 80.7552 63.5845 80.7552 63.7866C80.7552 63.7866 80.553 63.7866 80.3508 63.9888C80.1487 64.191 79.9465 64.191 79.7443 64.3932C79.3399 64.5954 78.7333 65.202 78.7333 65.4042C78.7333 65.6063 78.7333 65.8085 78.9355 66.0107C79.1377 66.2129 79.3399 66.2129 79.9465 65.8085C80.7552 65.4042 82.7771 63.9888 82.7771 63.9888C84.3946 63.1801 87.8318 61.5626 88.6406 61.1582C89.4493 60.7538 92.4822 59.5407 93.2909 59.3385C94.3019 59.1363 93.8975 59.5407 93.8975 59.5407C93.6953 59.5407 93.2909 59.7429 92.6843 59.9451C92.0778 60.1473 90.4603 60.7538 89.8537 61.1582C89.2471 61.3604 87.6296 62.1691 87.0231 62.5735C86.4165 62.9779 83.9902 64.3932 83.1815 64.7976C82.3727 65.202 80.7552 66.4151 80.7552 66.4151C81.1596 66.4151 81.9684 66.2129 82.5749 66.2129C83.1815 66.2129 85.6077 65.6063 86.0121 65.4042C86.4165 65.202 89.4493 64.191 90.2581 63.9888C91.0668 63.7866 96.1215 61.7648 96.7281 61.3604C97.1325 61.1582 99.9631 59.9451 100.57 59.7429C100.974 59.5407 101.783 59.1363 102.187 59.1363C102.592 58.9341 103.4 58.7319 103.4 58.7319H102.592C102.187 58.7319 100.974 58.9341 100.368 58.9341C99.7609 58.9341 98.1434 59.3385 97.7391 59.3385C97.1325 59.5407 95.1106 59.7429 94.7062 59.7429C94.504 59.7429 94.3019 59.7429 94.3019 59.5407C94.3019 59.3385 94.0997 59.1363 94.0997 59.1363L93.6953 58.7319C93.4931 58.3276 93.0887 58.7319 92.6843 58.7319C92.28 58.7319 91.269 59.1363 90.6625 59.3385C90.0559 59.5407 89.045 59.9451 88.4384 60.1473C87.6296 60.3494 85.8099 61.1582 85.2034 61.3604C84.5968 61.5626 82.9793 62.3713 82.3727 62.5735L80.7552 63.3823C80.3508 63.5845 78.9355 64.5954 78.5312 64.7976C78.1268 64.9998 77.1158 66.0107 76.9136 66.4151C76.7115 66.8195 76.5093 67.0217 76.9136 67.8304C77.1158 68.6392 77.7224 70.0545 77.9246 70.2567C78.1268 70.4589 78.7333 71.4698 78.7333 71.4698C78.7333 71.4698 78.9355 70.6611 79.1377 70.4589C79.9465 69.6501 80.3508 69.8523 80.553 70.0545Z" fill="white"/>
<path fill-rule="evenodd" clip-rule="evenodd" d="M117.351 66.4158C116.542 67.8311 115.127 67.4268 114.521 67.4268C113.914 67.2246 113.105 66.8202 112.903 66.4158C112.499 66.0114 112.499 66.2136 112.296 66.2136C112.094 66.4158 112.499 67.0224 112.701 67.4268C112.903 67.8311 113.105 68.0333 112.701 68.4377L110.477 70.6618C111.69 73.4924 110.275 74.5034 110.072 74.7056C109.668 74.9077 109.264 74.7056 109.264 74.7056C109.264 75.5143 108.657 76.1209 108.253 76.5252C107.848 76.9296 106.433 76.9296 106.433 76.9296C106.433 77.9406 106.231 78.5471 105.422 78.9515C104.815 79.3559 104.007 78.9515 104.007 78.9515C104.007 79.7603 103.4 80.569 102.996 80.7712C102.591 80.9734 101.783 80.7712 101.783 80.7712C101.783 81.1756 101.176 82.1865 100.772 82.3887C100.569 82.5909 99.3564 82.3887 99.3564 82.3887C99.5586 82.9953 98.5476 83.804 97.941 84.0062C97.3345 84.2084 96.5257 83.6018 96.5257 83.6018C96.7279 85.0172 95.1104 85.4215 94.706 85.6237C94.0995 85.8259 93.0885 85.2193 93.0885 85.2193C92.8863 86.6347 91.8754 86.6347 91.471 86.6347C91.0666 86.6347 89.8535 86.0281 89.8535 86.0281C89.8535 86.0281 89.8535 86.6347 89.2469 87.039C88.6404 87.4434 87.2251 86.2303 87.2251 86.2303C86.4163 86.2303 86.2141 86.0281 86.2141 86.0281C86.6185 86.8369 88.6404 88.6566 89.4491 88.8587C90.4601 89.2631 92.8863 89.0609 95.717 88.2522C98.7498 87.4434 101.378 85.6237 102.996 84.815C104.411 84.0062 106.433 82.7931 108.657 80.9734C111.083 79.1537 114.318 75.9187 115.329 74.9077C116.34 73.8968 118.362 71.2683 118.766 70.0552C119.171 68.8421 118.969 68.4377 118.766 68.0333C118.16 67.4268 117.351 66.4158 117.351 66.4158Z" fill="white"/>
<path fill-rule="evenodd" clip-rule="evenodd" d="M91.2688 73.6934H90.46C89.6513 74.2999 87.4272 74.7043 87.4272 74.7043C87.4272 75.1087 87.225 76.3218 87.0228 76.524C86.6184 76.7262 86.2141 76.524 86.2141 76.524C86.2141 76.9284 86.2141 78.7481 86.0119 79.1524C85.8097 79.3546 85.2031 79.3546 85.2031 79.3546C85.2031 79.3546 85.4053 80.1634 85.6075 80.77C85.6075 81.3765 85.4053 81.7809 85.4053 81.7809C85.6075 81.9831 85.6075 82.5897 85.6075 82.5897C85.8097 82.7918 86.0119 83.3984 86.0119 83.3984C86.2141 83.1962 86.6184 83.1962 86.6184 83.1962C86.6184 83.1962 86.0119 82.5897 86.0119 81.3765C86.0119 80.1634 87.0228 78.7481 87.6294 77.9393C88.0338 77.1306 91.2688 73.6934 91.2688 73.6934Z" fill="white"/>
<path fill-rule="evenodd" clip-rule="evenodd" d="M105.624 58.126C105.826 58.126 105.826 58.126 106.029 57.9238C105.826 58.126 105.624 58.126 105.624 58.126Z" fill="white"/>
<path fill-rule="evenodd" clip-rule="evenodd" d="M109.466 46.1965C109.466 45.9943 109.062 45.7921 108.859 45.5899C108.455 45.3877 108.051 45.1855 107.849 45.1855C107.444 45.1855 107.04 45.3877 106.635 45.5899C106.231 45.7921 106.231 45.9943 106.029 46.3987C106.029 46.8031 105.827 47.2074 105.422 47.4096C105.018 47.6118 104.411 47.6118 104.007 47.4096C103.603 47.2074 103.603 47.0052 103.198 46.6009C102.996 46.1965 102.794 45.7921 102.187 45.7921C101.581 45.7921 100.772 45.9943 100.368 46.3987C99.9632 46.8031 99.761 47.2074 99.761 48.2184C99.761 49.2293 99.761 50.0381 99.9632 50.6446C100.165 51.4534 100.57 52.06 101.378 52.06H104.007C104.209 52.06 104.614 51.8578 104.816 52.6665C104.816 53.4753 105.422 57.1147 105.422 57.1147C105.422 57.1147 105.827 57.1147 106.231 56.9125L107.04 56.5081C107.04 56.5081 106.838 55.295 106.635 54.6884C106.635 54.0818 106.433 53.6775 106.433 53.4753C106.433 53.4753 106.029 52.4643 105.827 52.4643L105.422 52.06C105.422 52.06 105.422 51.8578 105.827 51.8578C106.029 51.8578 107.242 51.4534 107.646 51.4534C108.051 51.4534 108.859 51.4534 109.062 51.2512C109.264 51.2512 109.668 51.2512 109.87 50.8468C110.073 50.4424 110.073 50.0381 110.073 49.2293C109.668 49.0271 109.668 46.8031 109.466 46.1965ZM102.996 49.8359C102.794 50.0381 102.592 50.4424 102.389 50.4424H101.581C101.176 50.4424 100.974 49.8359 100.974 49.6337C100.974 49.2293 101.176 49.0271 101.378 48.8249C101.783 48.6228 101.985 48.6228 101.985 48.6228C102.389 48.6228 102.794 48.8249 102.794 49.0271C102.996 49.2293 102.996 49.6337 102.996 49.8359ZM108.253 49.2293C108.253 49.6337 108.051 49.6337 107.849 49.6337C107.444 49.6337 107.242 49.6337 107.04 49.4315C106.838 49.2293 106.635 49.0271 106.635 48.6228C106.635 48.2184 107.04 48.0162 107.242 47.814H108.051C108.253 48.0162 108.455 48.2184 108.455 48.4206C108.455 49.0271 108.253 49.0271 108.253 49.2293Z" fill="white"/>
<path fill-rule="evenodd" clip-rule="evenodd" d="M115.936 65.6068C115.329 65.809 115.127 65.4046 114.925 65.0002C114.723 64.5958 115.127 64.1914 115.532 63.9893C115.936 63.9893 116.34 64.1914 116.34 64.3936C116.34 64.798 116.543 65.4046 115.936 65.6068Z" fill="white"/>
<path fill-rule="evenodd" clip-rule="evenodd" d="M107.04 66.8206C107.04 66.8206 106.433 65.2031 105.422 64.5965C104.613 63.9899 104.007 64.5965 103.603 65.6074C103.198 66.6184 102.996 67.8315 102.996 67.8315H102.794C102.794 67.8315 102.592 67.0228 101.581 66.214C100.772 65.4053 99.9631 66.0118 99.7609 66.4162C99.3565 66.8206 99.1544 68.0337 99.1544 68.6403C99.1544 68.8425 98.9522 69.0446 98.9522 69.0446H98.75C98.75 69.0446 98.3456 67.4271 97.1325 67.0228C95.9193 66.6184 95.3128 67.2249 94.7062 68.0337C94.0996 68.8425 94.0996 70.46 94.0996 70.46L93.6953 70.0556C93.4931 69.6512 92.8865 68.8425 92.2799 68.6403C91.269 68.2359 90.8646 68.4381 90.0559 69.449C89.2471 70.46 89.6515 71.8753 89.6515 71.8753H89.4493C89.2471 71.4709 88.034 70.0556 87.6296 69.8534C86.6187 69.449 86.4165 69.2468 86.0121 70.46C85.4055 71.4709 85.6077 72.4818 85.6077 72.4818C85.2034 72.4818 85.2034 72.2797 85.2034 72.0775C85.0012 71.8753 84.5968 71.0665 83.788 70.46C82.9793 69.8534 82.5749 70.2578 82.3727 70.8643C82.1705 71.4709 81.9683 73.0884 81.9683 73.0884H81.7661C81.3618 72.4818 80.553 71.2687 80.1486 70.8643C79.7443 70.46 79.5421 70.46 79.3399 70.8643C79.3399 71.0665 79.3399 71.2687 79.1377 71.4709C79.1377 71.8753 79.1377 72.2797 79.3399 72.684C79.5421 73.2906 79.9464 74.5037 80.1486 74.7059C80.553 74.9081 81.1596 75.1103 81.564 75.1103C81.9683 75.1103 82.1705 74.9081 81.9683 74.7059C81.7661 74.5037 81.7661 73.695 81.7661 73.695H81.9683C82.1705 74.5037 82.5749 74.9081 83.9902 74.9081C85.4055 74.9081 86.0121 74.0994 86.0121 74.0994C85.6077 73.8972 85.4055 73.2906 85.4055 73.2906H85.6077C86.0121 74.5037 87.2252 74.0994 87.8318 73.8972C88.4384 73.695 89.4493 73.0884 89.4493 73.0884C89.4493 73.0884 89.2471 72.684 89.4493 72.684C89.6515 72.684 89.8537 73.0884 89.8537 73.0884C91.8756 73.0884 93.8975 71.8753 93.8975 71.8753C95.3128 72.0775 97.1325 71.4709 97.739 71.0665C98.5478 70.6622 98.1434 70.46 99.1544 70.46C100.165 70.46 101.378 70.0556 101.783 69.6512C102.187 69.2468 102.592 68.8425 103.198 68.8425C104.007 68.6403 105.422 68.2359 106.029 67.8315C106.231 67.8315 106.231 67.6293 106.433 67.6293C107.242 67.0228 107.04 66.8206 107.04 66.8206Z" fill="white"/>
<path fill-rule="evenodd" clip-rule="evenodd" d="M84.3945 76.1202C84.1923 76.3224 83.788 76.9289 83.9902 77.7377C83.9902 77.7377 83.5858 78.1421 83.3836 78.7486C83.1814 79.3552 83.3836 79.7596 83.1814 80.3661C82.9792 80.7705 83.5858 82.1858 83.5858 82.388C83.788 82.7924 85.0011 85.4208 86.4164 85.623C86.4164 85.623 86.012 85.0165 85.8099 84.6121C85.6077 84.2077 85.4055 84.0055 85.6077 84.0055C85.6077 84.0055 86.4164 86.4318 88.6405 86.4318C88.6405 86.4318 89.0449 86.2296 89.0449 85.8252C89.0449 85.4208 88.8427 85.2186 88.6405 85.0165C88.4383 84.8143 88.4383 84.6121 88.6405 84.6121C88.6405 84.6121 89.4492 86.0274 90.6624 86.0274C91.8755 86.0274 92.0777 85.4208 92.0777 84.6121C92.0777 84.6121 91.8755 84.2077 91.8755 84.0055H92.0777C92.0777 84.0055 92.4821 84.6121 93.2908 85.0165C94.0996 85.2186 95.1105 84.8143 95.3127 84.6121C95.5149 84.2077 95.7171 83.8033 95.7171 82.9946H95.9193C95.9193 82.9946 96.5258 83.6011 96.9302 83.8033C97.3346 84.0055 97.9412 83.8033 98.1433 83.399C98.3455 83.1968 98.7499 82.388 98.5477 81.7814C98.5477 81.7814 99.1543 82.388 99.5587 82.388C99.963 82.388 100.57 82.1858 100.57 81.7814C100.772 81.3771 100.974 80.9727 100.772 80.5683C100.772 80.5683 100.772 80.3661 100.974 80.5683C101.176 80.7705 102.187 81.1749 102.591 80.3661C102.996 79.5574 102.996 79.3552 102.996 78.7486C102.996 78.7486 103.805 79.153 104.209 79.153C104.613 79.153 105.22 78.5464 105.22 78.142C105.22 77.7377 105.422 76.7267 105.422 76.7267C105.422 76.7267 105.22 76.5245 105.422 76.5245C105.422 76.5245 105.827 76.9289 106.433 76.7267C107.04 76.5245 108.051 76.1202 108.253 75.1092C108.455 74.0983 108.051 73.4917 108.051 73.4917C108.051 73.4917 108.051 73.2895 108.253 73.4917C108.455 73.6939 108.657 74.3005 108.657 74.3005C108.657 74.3005 109.466 74.7048 109.87 74.0983C110.275 73.6939 110.477 72.683 110.072 71.2676C109.668 70.0545 108.657 71.0655 108.455 71.2676C108.253 71.4698 107.848 72.0764 107.646 72.2786C107.646 72.2786 105.827 73.0873 104.816 74.7048C104.816 74.7048 104.816 74.907 105.018 74.907V75.1092C104.816 74.907 104.816 74.7048 104.613 74.7048C104.411 74.7048 102.996 75.3114 102.591 76.5245C102.591 76.5245 102.794 77.3333 102.794 77.5355L102.389 76.9289C102.187 76.9289 100.974 77.1311 100.367 78.3442C100.367 78.3442 100.367 78.7486 100.57 78.7486C100.57 78.7486 100.367 78.7486 100.367 78.5464C100.165 78.3442 98.9521 78.5464 98.3455 79.5574C98.3455 79.5574 98.3455 80.3661 98.5477 80.5683C98.5477 80.5683 98.3455 80.3661 98.1433 79.7596C98.1433 79.7596 96.728 79.5574 95.3127 81.1749V81.7814L95.1105 81.5793C95.1105 81.5793 93.6952 81.3771 91.8755 82.7924C91.8755 82.7924 90.4602 82.1858 88.6405 83.1968V83.6011H88.4383C88.4383 83.6011 88.2361 82.9946 87.6295 82.9946C87.023 82.9946 86.012 82.7924 85.6077 82.9946H85.4055C85.4055 82.9946 84.7989 82.1858 84.1923 81.9836C83.5858 81.7814 83.5858 81.5793 83.9902 81.5793C84.3945 81.5793 84.7989 81.7814 84.7989 81.7814C84.7989 81.7814 84.5967 80.9727 84.1923 80.1639C83.788 79.5574 84.1923 79.7596 84.3945 79.9617C84.5967 80.1639 84.7989 80.5683 84.7989 80.7705C84.7989 80.7705 85.0011 79.7596 84.5967 78.9508C84.1923 78.1421 84.1923 77.9399 84.5967 78.142C84.7989 78.3442 85.2033 78.5464 85.4055 78.142C85.6077 77.9399 85.8099 76.3224 85.6077 75.5136C85.6077 75.5136 85.6077 75.3114 85.8099 75.5136C86.012 75.7158 86.4164 75.918 86.6186 75.7158C86.8208 75.3114 86.8208 74.3005 86.8208 74.3005L86.6186 74.0983" fill="white"/>
<defs>
<linearGradient id="paint0_linear_2800_1646" x1="64" y1="0" x2="64" y2="128" gradientUnits="userSpaceOnUse">
<stop stop-color="#FF565D"/>
<stop offset="1" stop-color="#D9282F"/>
</linearGradient>
</defs>
</svg>
