<svg width="128" height="128" viewBox="0 0 128 128" fill="none" xmlns="http://www.w3.org/2000/svg">
<g clip-path="url(#clip0_264_2690)">
<path d="M10.348 76.3942L10.6775 76.6688C10.3205 74.1977 10.1283 71.5071 10.8422 69.1458C11.913 65.3569 13.2583 61.6778 13.9447 57.7516C14.4939 54.704 15.1253 51.272 14.7684 48.3342C14.3566 49.9266 13.9447 51.4916 13.0661 52.8644C9.74396 57.9987 6.33942 64.039 8.67318 70.5736C8.61827 70.6559 8.5359 70.7383 8.45353 70.6834C7.52003 68.5143 7.30038 66.0708 6.69635 63.7645C5.07644 57.6418 0.381459 52.5075 1.75426 45.4238C1.01295 46.9614 0.738388 48.6911 0.354003 50.3659C-0.469677 54.704 0.354003 59.2891 1.53461 63.2977C2.98978 68.2672 7.8495 71.8365 10.348 76.3942Z" fill="#009EDB"/>
<path d="M9.08505 44.6001C10.1833 42.3487 11.9679 40.2071 14.1095 38.6147C18.8319 35.0454 23.9937 30.4328 24.076 24.3924C22.4836 28.7305 17.7337 30.5426 14.5763 33.5078C12.9014 35.0728 11.611 36.9673 10.8697 38.9441L10.7599 38.8618C11.1442 37.1046 11.8856 35.5396 12.4072 33.8373C13.78 29.2247 13.5329 23.706 18.0357 20.6035C15.7294 21.2075 13.78 22.6902 12.0503 24.6121C8.39864 28.6481 8.72812 34.6061 9.19487 39.8776C9.35961 41.525 9.27724 42.9253 9.08505 44.6001Z" fill="#009EDB"/>
<path d="M14.5762 31.4484C17.1021 29.0872 20.0125 27.33 22.154 24.5295C24.7074 21.1524 26.9314 17.3635 30.281 14.4531C25.7508 16.2103 20.8636 18.0224 17.9258 22.6899C16.1961 25.4081 15.9215 28.6204 14.5762 31.4484Z" fill="#009EDB"/>
<path d="M16.4706 43.3918C17.5689 41.1678 18.2553 38.6419 18.5573 36.1983C18.1455 37.2416 17.514 38.2026 16.6354 39.0263C12.9563 42.5132 8.64567 45.9177 7.82199 50.8598C7.71216 51.5737 7.6298 52.2875 7.4376 52.9739C7.27287 53.0563 7.27287 52.8641 7.21795 52.8092L7.68471 46.714C8.124 40.756 4.99402 34.1391 8.42602 28.895C8.3162 28.8675 8.23383 28.9774 8.15146 29.0048C5.02147 32.9859 2.93481 37.3789 2.93481 42.7328C2.93481 49.3497 6.7512 53.9898 7.21795 60.1949C8.20637 53.7152 13.6427 49.1026 16.4706 43.3918Z" fill="#009EDB"/>
<path d="M9.19496 84.0545C12.7368 86.855 16.965 89.0241 20.2048 91.4951C19.5733 89.8752 18.53 88.3926 18.1182 86.7178C16.2237 79.0575 17.267 70.1618 13.9998 63.0781C14.6038 67.1142 13.0113 70.6834 12.6544 74.5273C12.3524 77.6847 12.9015 80.7598 14.137 83.3956C14.494 84.1918 15.1529 84.8782 15.3451 85.7019C14.1645 84.6311 13.3134 83.2858 12.5171 81.9679C8.70075 75.7903 0.711049 71.7817 0.161928 64.2587C-0.112632 67.6084 0.189384 71.1502 1.28763 74.1154C2.79771 78.1789 5.76296 81.3364 9.19496 84.0545Z" fill="#009EDB"/>
<path d="M57.3526 104.344C51.175 104.344 45.6289 107.336 40.2201 109.588C35.3055 111.62 28.7984 111.235 24.4329 108.215C26.5744 110.906 29.4573 112.581 32.45 113.706C37.9687 115.903 44.4209 114.228 49.1433 111.208C52.5204 109.039 55.4307 105.964 59.4668 105.964C65.9738 105.964 72.8104 112.635 78.6585 118.676C79.5646 117.934 80.5255 117.166 81.2668 116.315C75.1441 110.494 66.4955 104.344 57.3526 104.344Z" fill="#009EDB"/>
<path d="M46.3154 105.003C47.2764 104.756 48.4296 104.838 49.3081 104.509C45.629 103.768 42.0872 102.642 39.2318 100.034C35.1408 96.2997 31.5166 92.3185 27.1511 89.4082C30.5831 94.0208 31.5441 100.72 37.8041 103.054C38.9023 103.466 40.1927 103.548 41.1537 104.152C39.9456 104.344 38.9023 103.96 37.7766 103.713C29.7045 101.983 19.8753 104.207 13.835 97.343C16.1138 101.846 20.8362 105.388 25.3939 106.87C32.3952 109.231 39.726 106.623 46.3154 105.003Z" fill="#009EDB"/>
<path d="M32.807 101.625C27.5629 97.3964 26.7667 91.0541 24.4329 85.5079C22.9778 82.0485 20.6166 78.9459 18.0906 75.9258C20.8637 81.4719 19.6556 88.6105 23.2523 93.8271C24.378 95.4745 25.943 97.0395 27.3982 98.3299L27.3433 98.4123C26.0254 97.8082 24.8448 96.8747 23.6367 95.8863C17.3493 90.6422 7.87695 89.9833 4.11548 81.4444C5.13135 87.7044 10.1009 93.2505 15.4823 96.7649C20.5891 100.115 27.1511 99.7576 32.807 101.625Z" fill="#009EDB"/>
<path d="M105.868 24.5295C108.009 27.3575 110.919 29.0872 113.445 31.4484C112.1 28.6204 111.826 25.4081 110.123 22.6899C107.185 18.0224 102.298 16.2103 97.7681 14.4531C101.063 17.3635 103.287 21.1249 105.868 24.5295Z" fill="#009EDB"/>
<path d="M115.615 33.8373C116.109 35.5121 116.85 37.1046 117.262 38.8618L117.152 38.9441C116.411 36.9673 115.12 35.0728 113.445 33.5078C110.288 30.5151 105.538 28.7305 103.973 24.365C104.056 30.4328 109.217 35.0454 113.94 38.5872C116.054 40.1797 117.866 42.3212 118.964 44.5726C118.772 42.8978 118.69 41.4976 118.854 39.8776C119.349 34.5786 119.651 28.6481 116.026 24.6121C114.297 22.6902 112.347 21.1801 110.041 20.6035C114.489 23.706 114.242 29.2247 115.615 33.8373Z" fill="#009EDB"/>
<path d="M120.337 46.6856L120.804 52.7809C120.749 52.8358 120.749 53.0005 120.584 52.9456C120.392 52.2592 120.309 51.5453 120.2 50.8315C119.376 45.9169 115.038 42.4849 111.386 38.9979C110.508 38.1743 109.876 37.2133 109.464 36.17C109.766 38.6136 110.453 41.1395 111.551 43.3635C114.379 49.0743 119.815 53.6869 120.804 60.194C121.27 53.9615 125.087 49.3489 125.087 42.732C125.087 37.378 123 32.9851 119.87 29.0039C119.788 28.949 119.705 28.8667 119.596 28.8941C123.028 34.1382 119.87 40.7551 120.337 46.6856Z" fill="#009EDB"/>
<path d="M121.325 63.7353C120.721 66.0416 120.501 68.5126 119.568 70.6542C119.486 70.7091 119.403 70.5993 119.348 70.5444C121.682 64.0098 118.278 57.997 114.955 52.8352C114.077 51.4899 113.665 49.8974 113.253 48.305C112.896 51.2702 113.528 54.6748 114.077 57.7224C114.791 61.6486 116.108 65.3277 117.179 69.1167C117.893 71.4779 117.701 74.1411 117.344 76.6396L117.673 76.365C120.145 71.8073 125.032 68.2381 126.514 63.2411C127.695 59.2599 128.519 54.6473 127.695 50.3093C127.311 48.6345 127.009 46.9047 126.295 45.3672C127.64 52.4783 122.945 57.6126 121.325 63.7353Z" fill="#009EDB"/>
<path d="M87.7741 109.588C82.3378 107.336 76.8191 104.344 70.6415 104.344C61.5261 104.344 52.85 110.521 46.7822 116.315C47.5235 117.166 48.4845 117.962 49.3905 118.676C55.2112 112.663 62.0752 105.964 68.5823 105.964C72.6183 105.964 75.5287 109.039 78.9058 111.208C83.6008 114.2 90.0529 115.903 95.599 113.706C98.5643 112.581 101.447 110.906 103.616 108.215C99.2232 111.208 92.6887 111.62 87.7741 109.588Z" fill="#009EDB"/>
<path d="M115.532 81.9132C114.708 83.2311 113.885 84.6039 112.704 85.6472C112.896 84.851 113.555 84.1371 113.912 83.3409C115.148 80.6777 115.697 77.63 115.395 74.4726C115.01 70.6288 113.418 67.0595 114.049 63.0234C110.755 70.1071 111.825 79.0028 109.931 86.6631C109.519 88.3653 108.476 89.848 107.844 91.4404C111.084 88.9694 115.312 86.8004 118.854 83.9998C122.286 81.3092 125.251 78.1243 126.816 74.0058C127.942 71.0406 128.217 67.4988 127.942 64.1491C127.365 71.727 119.348 75.7356 115.532 81.9132Z" fill="#009EDB"/>
<path d="M104.33 95.8863C103.122 96.8747 101.941 97.8082 100.623 98.4123L100.569 98.3299C102.024 97.012 103.589 95.447 104.714 93.8271C108.311 88.6105 107.103 81.4444 109.876 75.9258C107.35 78.9459 104.989 82.0485 103.534 85.5079C101.2 91.0541 100.404 97.3964 95.1597 101.625C100.816 99.7576 107.378 100.115 112.457 96.7924C117.811 93.278 122.78 87.7319 123.824 81.4719C120.09 89.9833 110.645 90.6422 104.33 95.8863Z" fill="#009EDB"/>
<path d="M90.2452 103.74C89.1195 103.987 88.0761 104.344 86.8681 104.179C87.829 103.575 89.092 103.493 90.2177 103.081C96.4777 100.72 97.4386 94.0207 100.871 89.4355C96.5051 92.3459 92.8809 96.327 88.79 100.061C85.9346 102.669 82.3927 103.768 78.7136 104.536C79.5922 104.866 80.7454 104.783 81.7063 105.031C88.3232 106.678 95.6265 109.259 102.655 106.925C107.186 105.415 111.908 101.873 114.214 97.3978C108.146 104.234 98.2898 102.038 90.2452 103.74Z" fill="#009EDB"/>
<path d="M63.997 10.0039C39.012 10.0039 18.6946 30.3214 18.6946 55.3064C18.6946 80.2913 39.012 100.609 63.997 100.609C88.982 100.609 109.299 80.2913 109.299 55.3064C109.299 30.3214 88.982 10.0039 63.997 10.0039ZM63.997 63.955C59.2197 63.955 55.3484 60.0837 55.3484 55.3064C55.3484 50.529 59.2197 46.6577 63.997 46.6577C68.7744 46.6577 72.6457 50.529 72.6457 55.3064C72.6457 60.0837 68.7744 63.955 63.997 63.955ZM70.5041 48.0305C68.9117 46.6028 66.8525 45.6967 64.5736 45.5595V38.1463C68.8842 38.2836 72.8104 40.0133 75.7482 42.7864L70.5041 48.0305ZM63.4479 45.5595C61.1691 45.6967 59.1099 46.6028 57.5174 48.0305L52.2733 42.7864C55.2111 40.0133 59.1373 38.2836 63.4479 38.1463V45.5595ZM56.7486 48.8267C55.3209 50.4192 54.4149 52.4784 54.2776 54.7572H46.8645C47.0017 50.4466 48.7315 46.5204 51.5045 43.5826L56.7486 48.8267ZM54.2776 55.8555C54.4149 58.1343 55.3209 60.1935 56.7486 61.786L51.5045 67.0301C48.7315 64.0923 47.0017 60.1661 46.8645 55.8555H54.2776ZM57.5174 62.5822C59.1099 64.0099 61.1691 64.916 63.4479 65.0532V72.4664C59.1373 72.3291 55.2111 70.5994 52.2733 67.8263L57.5174 62.5822ZM64.5461 65.0258C66.825 64.8885 68.8842 63.9825 70.4767 62.5547L75.7207 67.7988C72.783 70.5719 68.8567 72.3016 64.5461 72.4389V65.0258ZM71.2729 61.786C72.7006 60.1935 73.6066 58.1343 73.7439 55.8555H81.157C81.0198 60.1661 79.29 64.0923 76.517 67.0301L71.2729 61.786ZM73.7439 54.7572C73.6066 52.4784 72.7006 50.4192 71.2729 48.8267L76.517 43.5826C79.29 46.5204 81.0198 50.4466 81.157 54.7572H73.7439ZM76.517 42.0176C73.3595 39.0524 69.1862 37.1854 64.5461 37.0481V28.8113C71.4376 28.9486 77.6976 31.7491 82.3377 36.197L76.517 42.0176ZM63.4479 37.0481C58.8353 37.1854 54.6345 39.0524 51.4771 42.0176L45.6564 36.197C50.2965 31.7491 56.5564 28.9486 63.4479 28.8113V37.0481ZM50.7083 42.7864C47.7431 45.9438 45.876 50.1172 45.7388 54.7572H37.502C37.6392 47.8658 40.4398 41.6058 44.8876 36.9657L50.7083 42.7864ZM45.7662 55.8555C45.9035 60.4681 47.7705 64.6689 50.7358 67.8263L44.8876 73.647C40.4398 69.0069 37.6392 62.7469 37.502 55.8555H45.7662ZM51.5045 68.5951C54.662 71.5603 58.8353 73.4273 63.4754 73.5646V81.8014C56.5839 81.6641 50.3239 78.8636 45.6839 74.4157L51.5045 68.5951ZM64.5461 73.5372C69.1588 73.3999 73.3595 71.5329 76.517 68.5676L82.3377 74.3883C77.6976 78.8362 71.4376 81.6367 64.5461 81.774V73.5372ZM77.2857 67.7988C80.251 64.6414 82.118 60.4681 82.2553 55.828H90.4921C90.3548 62.7195 87.5543 68.9795 83.1064 73.6195L77.2857 67.7988ZM82.2553 54.7572C82.118 50.1446 80.251 45.9438 77.2857 42.7864L83.1064 36.9657C87.5543 41.6058 90.3548 47.8658 90.4921 54.7572H82.2553ZM83.1064 35.4282C78.2742 30.7881 71.7396 27.8778 64.5461 27.7405V20.4372C73.7439 20.5745 82.0905 24.3085 88.2407 30.2665L83.1064 35.4282ZM63.4479 27.713C56.2544 27.8503 49.7199 30.7607 44.8876 35.4007L39.7534 30.2665C45.9035 24.3085 54.2501 20.5745 63.4479 20.4372V27.713ZM44.1189 36.197C39.4788 41.0292 36.5685 47.5638 36.4312 54.7572H29.1553C29.2926 45.5595 33.0266 37.2128 38.9846 31.0627L44.1189 36.197ZM36.4312 55.8555C36.5685 63.049 39.4788 69.5835 44.1189 74.4157L38.9846 79.55C33.0266 73.3999 29.2926 65.0532 29.1553 55.8555H36.4312ZM44.8876 75.1845C49.7199 79.8246 56.2544 82.7349 63.4479 82.8722V90.148C54.2501 90.0108 45.9035 86.2767 39.7534 80.3188L44.8876 75.1845ZM64.5461 82.8997C71.7396 82.7624 78.2742 79.852 83.1064 75.212L88.2407 80.3462C82.0905 86.3042 73.7439 90.0382 64.5461 90.1755V82.8997ZM83.9026 74.4157C88.5427 69.5835 91.453 63.049 91.5903 55.8555H98.8662C98.7289 65.0532 94.9949 73.3999 89.0369 79.55L83.9026 74.4157ZM91.5903 54.7572C91.453 47.5638 88.5427 41.0292 83.9026 36.197L89.0369 31.0627C94.9949 37.2128 98.7289 45.5595 98.8662 54.7572H91.5903ZM89.0369 29.4977C82.6671 23.3201 74.0734 19.4762 64.5461 19.339V11.1021C76.3248 11.2394 87.0052 16.0168 94.8576 23.677L89.0369 29.4977ZM63.4479 19.339C53.9481 19.4762 45.3269 23.3201 38.9571 29.4977L33.1639 23.677C41.0163 16.0168 51.6967 11.2394 63.4754 11.1021V19.339H63.4479ZM38.1884 30.2665C32.0108 36.6363 28.1669 45.23 28.0296 54.7572H19.7928C19.9301 42.9786 24.7075 32.2982 32.3677 24.4458L38.1884 30.2665ZM28.0571 55.8555C28.1944 65.3553 32.0382 73.9764 38.2158 80.3462L32.3677 86.1395C24.7075 78.3145 19.9576 67.6341 19.8203 55.8555H28.0571ZM38.9846 81.115C45.3544 87.2926 53.9481 91.1365 63.4754 91.2738V99.5106C51.6967 99.3733 41.0163 94.5959 33.1639 86.9357L38.9846 81.115ZM64.5461 91.2738C74.0459 91.1365 82.6671 87.2926 89.0369 81.115L94.8576 86.9357C87.0052 94.5959 76.3248 99.3733 64.5461 99.5106V91.2738ZM89.8057 80.3188C95.9833 73.949 99.8271 65.3553 99.9644 55.828H108.201C108.064 67.6067 103.287 78.287 95.6264 86.1395L89.8057 80.3188ZM99.9644 54.7572C99.8271 45.2574 95.9833 36.6363 89.8057 30.2665L95.6264 24.4458C103.287 32.2982 108.064 42.9786 108.201 54.7572H99.9644Z" fill="#009EDB"/>
<path d="M66.6054 44.8164L66.3308 44.8439V45.1733L66.6054 45.1459V44.8164Z" fill="#009EDB"/>
<path d="M66.2759 44.377H65.9189V44.6515H66.2759V44.377Z" fill="#009EDB"/>
<path d="M65.2603 44.2941L65.5897 44.349L65.6172 44.0744L65.2877 44.0195L65.2603 44.2941Z" fill="#009EDB"/>
<path d="M64.9856 44.1848L64.6836 44.1574L64.7111 43.8828L65.0405 43.9103L64.9856 44.1848Z" fill="#009EDB"/>
<path d="M62.7065 43.8281H62.3496V44.1027H62.7065V43.8281Z" fill="#009EDB"/>
<path d="M61.5535 44.3781L61.8829 44.433L61.9104 44.1584L61.6084 44.1035L61.5535 44.3781Z" fill="#009EDB"/>
<path d="M61.6085 44.818L61.2241 44.7082L61.3065 44.4336L61.6634 44.5434L61.6085 44.818Z" fill="#009EDB"/>
<path d="M60.9494 45.1459L60.8945 44.8713L61.1691 44.8164L61.224 45.091L60.9494 45.1459Z" fill="#009EDB"/>
<path d="M25.1194 73.5644V74.1684H25.3939L25.339 73.482L24.9821 73.3448V73.0977H24.7625V73.5644H25.1194Z" fill="#009EDB"/>
<path d="M27.0413 75.2383L27.7277 75.5678L27.9473 76.1992L28.2768 76.4463L28.5788 77.1327L28.4141 77.4622L27.8924 76.9955L27.5355 76.4738L27.3433 76.062L27.0413 75.2383Z" fill="#009EDB"/>
<path d="M38.573 89.4867L38.8201 90.0908L38.4906 90.283L38.2984 90.0084L37.8591 89.8711L37.8042 89.4593L37.4473 88.9102L37.9964 88.9925L38.573 89.4867Z" fill="#009EDB"/>
<path d="M62.5969 47.8111H62.1027L62.0203 46.7952L62.2949 46.603V46.0814H60.7024L60.6475 45.5597L60.8671 45.4224L60.5102 45.2852L60.2357 45.6421L60.1533 46.0539L59.6865 46.1363V46.3559H59.3571V46.96L58.0666 48.0308L55.5132 47.9484C55.321 48.3602 54.8817 47.8935 54.8817 47.8935C54.7994 47.6189 54.1404 47.8935 54.1404 47.8935C54.1404 48.4151 53.2618 47.6738 53.2618 47.6738L51.6694 46.5207C50.7633 45.697 49.3905 46.7403 49.3356 46.9874C49.3905 47.6464 48.2923 47.1247 48.2923 47.1247C48.2923 47.1247 47.3862 46.8501 47.2489 47.2071C47.1117 47.564 46.5076 47.4816 46.5076 47.4816L46.4253 47.6738L45.9585 47.7562L45.8761 48.0308L45.327 48.1131L46.6998 48.0582C47.0568 48.0033 46.5625 48.8544 46.3429 48.7995L45.7114 48.8544L45.4918 49.0741H44.8877L44.6132 49.4585L43.7346 49.4036C43.7346 49.4036 43.2404 49.8154 43.2678 49.9527C43.3227 50.09 43.1855 50.5018 43.0482 50.5018C42.9109 50.5018 42.6363 50.9136 42.7187 51.0509C42.8011 51.1882 42.4441 51.655 42.4441 51.655L42.3618 52.1217L42.0872 52.2041V53.4671L41.5381 53.8514V54.4006L40.7144 55.2792L40.7968 56.0205L40.1104 56.7618L40.1927 57.5031L39.7809 57.6404L39.6985 57.9698L39.5063 58.9308L39.9731 58.9857C40.1927 58.9033 40.1653 59.5897 39.9731 59.6721C39.7809 59.7545 39.2867 59.9467 39.5613 60.1389C39.8358 60.3311 38.8199 60.2761 38.8199 60.0016C38.8199 59.727 38.2708 59.4799 38.1335 59.5897C37.9963 59.6721 37.7766 59.1779 37.7766 59.1779C37.2824 58.6562 35.7174 59.2328 35.7174 59.2328L35.4978 59.9741C35.0036 60.0565 34.6741 60.9076 34.6741 60.9076C34.2622 61.0449 33.9328 61.5666 34.0701 61.7039C34.2073 61.8411 33.8504 61.8961 33.8504 61.8961V62.9119L33.6308 63.2414L33.6857 64.3396C33.9602 64.3396 33.9053 64.8613 33.9053 64.8613C33.4386 64.9162 33.5484 65.5202 33.5484 65.5202L32.5874 65.8497L32.3952 66.1243L31.2146 66.0694L30.8852 66.3988L30.5557 66.0694H28.2768L28.1945 65.8497L27.7277 65.7674L27.6728 65.2457L26.9864 65.3006L26.8491 65.5752L26.1078 65.6301C26.1627 66.0968 25.3665 66.7832 25.2841 66.591C25.2018 66.3988 24.6801 65.9046 24.9272 65.7948C25.1468 65.7124 25.7509 65.6026 25.7509 65.6026V65.2731L24.0486 65.2182L23.8564 65.4928L23.17 65.5477V66.289L22.8405 66.3714C22.6209 66.5087 22.8955 67.0303 22.8955 67.0303C23.2249 67.3598 22.8405 67.854 22.8405 67.854C22.566 68.1286 23.0602 68.6502 23.0602 68.6502C23.4171 68.7326 22.8405 69.0072 22.8405 69.0072C22.9229 69.4739 23.1975 69.6112 23.1975 69.6112C22.9229 70.078 23.3897 70.2976 23.3897 70.2976L23.4446 71.0938L23.774 71.286V71.8077L23.9662 72.1372H24.7075L24.6526 70.984C24.0211 70.2427 25.2018 70.0505 25.2567 70.3251C25.3116 70.5996 25.8058 70.7369 25.8058 70.7369C25.8882 71.4233 26.6844 71.8351 26.904 71.1487C27.1237 70.4623 27.3159 70.8742 27.4532 71.2036C27.5904 71.5331 28.469 72.3293 28.469 72.3293H29.1554L29.2378 72.9883C30.0066 72.9334 30.2537 73.0432 30.5557 74.0865C30.8852 75.1573 31.7363 75.4319 31.7363 75.4319L32.3678 75.377C32.3678 74.8278 32.9993 75.4593 32.9993 75.7613C32.9993 76.0359 34.2348 77.1067 34.2348 77.1067L35.4703 77.3813L36.6235 78.3148L37.5021 78.2324H37.859C38.0786 77.4362 39.1769 78.2873 39.2867 78.5619C39.3691 78.8364 40.1104 79.3032 40.1927 79.0835C40.2751 78.8639 40.7968 79.0012 40.8792 79.6876C40.9615 80.374 41.291 80.2367 41.291 80.2367L43.8993 80.1818L44.8054 79.3855L47.1391 79.3306C48.3197 79.2757 47.6059 77.6558 47.3588 77.6558C46.9469 77.3263 47.4961 75.981 47.4961 75.981L44.1739 72.8785C43.4051 72.8785 44.0915 71.7528 44.0915 71.7528C44.6955 71.3684 43.9542 70.7918 43.9542 70.7918C44.0366 70.2427 43.6248 69.5837 43.6248 69.5837C42.8011 69.0346 43.0207 67.9638 43.0207 67.9638V67.2225C42.3343 66.5636 43.2953 66.4812 43.2953 66.4812C43.6248 65.9321 43.0756 65.5202 43.0756 65.5202L43.0207 64.9162L42.2794 64.8338L42.197 62.6648L40.5497 60.3036C40.2202 60.2212 40.4673 59.6447 40.4673 59.6447C40.8792 59.425 40.3849 58.8484 40.3849 58.8484L40.33 57.8326L41.291 57.7502L41.5106 57.3933H41.9774L41.9225 56.1852C42.1421 55.5812 42.6912 55.9106 42.6912 55.9106L43.3227 55.9656L43.6797 55.2792L43.762 54.73L43.2678 54.6751C42.7187 54.3456 42.9933 53.1376 42.9933 53.1376C43.8719 51.8471 44.8603 52.5885 44.8603 52.5885L45.4918 52.5335C46.4527 53.1925 45.5741 54.3731 45.5741 54.3731C45.3819 54.6477 45.4918 55.5263 45.4918 55.5263L45.7114 57.0089L45.1074 57.5305C44.6132 57.8051 44.6132 58.464 45.1623 58.6013C45.5192 58.6562 45.3819 59.5348 44.8328 58.9308C44.0091 58.9308 45.2996 59.6721 44.9152 59.4799C45.7389 59.8918 45.5467 59.123 45.5467 59.123L46.6449 58.2444C47.0568 57.9149 47.7981 58.9308 47.7981 59.0681C47.7981 59.2054 49.6102 59.123 49.6102 59.123C50.1044 59.4525 50.2966 60.2761 50.2966 60.2761C50.7908 59.6172 51.8616 60.2212 51.0653 60.6056C51.8067 61.0724 51.8067 61.4842 51.8067 61.4842C52.4107 61.292 52.4107 61.7588 52.4107 61.8961C52.4107 62.0333 52.6029 61.2097 52.6029 61.2097C51.9165 60.688 53.5089 60.5233 53.0696 61.4293L52.7951 61.8411L53.2618 62.1981L53.3167 63.2689C54.3326 63.1865 54.058 61.9235 54.058 61.9235L54.5248 61.8411C54.5248 61.4293 54.8543 61.649 54.8543 61.649C54.5248 60.084 55.5956 59.8094 55.5956 59.8094C56.1996 59.6721 56.2271 58.4091 56.2271 58.4091C55.8152 58.2169 56.0349 57.5855 56.5016 58.1346C56.9684 58.6837 56.2271 57.0089 56.2271 57.0089L55.8701 56.6794L55.3759 56.6245L55.321 56.1028H54.4973L54.3601 56.7618L54.058 56.8991L53.9757 56.7069L53.8384 57.2285H53.0147L52.9598 56.6794L53.454 56.5421L53.6462 56.2676L53.7835 55.5263H54.3875L55.1563 55.3066C55.2112 54.5104 55.623 54.7026 55.623 54.7026L55.8976 54.9222L56.3094 55.2517L56.3643 55.5263L56.0898 55.6635L56.0349 56.0479L56.1722 56.5696H56.5291C56.6664 55.8283 57.6273 55.8283 57.9019 56.295L58.1764 55.6361C57.545 55.3066 58.1764 54.8124 58.3412 55.032C58.5334 55.2517 58.9452 54.428 58.9452 54.428C58.9452 54.428 59.2747 54.8399 58.9452 54.2907C58.6157 53.7416 59.1649 53.4671 59.1649 53.4671C59.0825 52.9179 59.7689 53.0003 59.7689 53.0003L59.8238 52.259L59.1923 52.2041C59.055 52.863 58.5059 52.2864 58.7805 52.1492C59.055 52.0119 59.3296 51.7373 59.3296 51.7373V51.2706L59.6042 51.1882L59.6591 50.7215H60.3455L60.9495 50.4469L61.0868 50.2272L61.7183 50.1723L62.6243 49.3486L62.542 48.9917C61.9928 48.9917 62.542 48.5799 62.542 48.5799L62.5969 47.8111Z" fill="#009EDB"/>
<path d="M44.2012 56.9808L43.3775 56.8984L43.4324 57.2279H43.6521C44.009 57.8869 43.707 59.4518 43.707 59.4518C43.707 59.4518 43.1578 59.5068 43.0755 59.2322C42.9931 58.9576 42.746 59.8362 42.9382 59.9735C43.1304 60.1108 43.7619 59.9735 43.8168 60.4952C43.8717 61.0168 44.2286 60.1657 44.2286 60.1657L44.2012 56.9808Z" fill="#009EDB"/>
<path d="M43.3774 60.743V61.8412L44.0913 62.8296L44.3659 62.1707L44.4757 61.7588L44.1462 61.6216L44.2011 60.9352L44.4757 60.8803L44.5031 60.5508L43.8167 61.0175L43.3774 60.743Z" fill="#009EDB"/>
<path d="M44.5581 63.8457V63.3789L44.2286 63.4338L44.2012 63.7907L44.5581 63.8457Z" fill="#009EDB"/>
<path d="M44.1466 66.0678V65.7383L43.7622 65.7932V66.1227L44.1466 66.0678Z" fill="#009EDB"/>
<path d="M44.6956 64.6402C44.8054 64.6402 44.8878 64.5579 44.8878 64.4481C44.8878 64.3382 44.8054 64.2559 44.6956 64.2559C44.5858 64.2559 44.5034 64.3382 44.5034 64.4481C44.5034 64.5579 44.5858 64.6402 44.6956 64.6402Z" fill="#009EDB"/>
<path d="M44.9976 65.6012C45.1038 65.6012 45.1898 65.5151 45.1898 65.409C45.1898 65.3028 45.1038 65.2168 44.9976 65.2168C44.8915 65.2168 44.8054 65.3028 44.8054 65.409C44.8054 65.5151 44.8915 65.6012 44.9976 65.6012Z" fill="#009EDB"/>
<path d="M45.025 60.3024C45.1311 60.3024 45.2172 60.2163 45.2172 60.1102C45.2172 60.004 45.1311 59.918 45.025 59.918C44.9188 59.918 44.8328 60.004 44.8328 60.1102C44.8328 60.2163 44.9188 60.3024 45.025 60.3024Z" fill="#009EDB"/>
<path d="M59.659 53.8228H59.9336L59.9885 54.1248L59.7963 54.2895L59.7139 54.5366L59.357 54.619L58.5333 55.4152L58.4784 55.7722L58.2588 56.1016L57.9842 56.788L57.0232 56.8429L56.8311 57.6666L56.9683 58.3805L57.792 58.71L57.8744 58.2432L58.1489 58.1059L58.2039 57.6392L58.396 57.3097L58.6706 56.9802L58.753 56.6233L59.2197 56.3487L59.7688 56.2389L59.9885 55.9644L60.0709 55.4152L60.1258 55.0034L60.318 54.7014L60.8671 54.4817V53.6031H60.5925L60.5376 53.2737L60.0434 53.2188L59.9336 53.4659H59.7139L59.659 53.8228Z" fill="#009EDB"/>
<path d="M61.8007 56.4303V55.7714L61.7183 55.1674L61.0319 54.8379L60.5377 55.3046L60.4553 55.9636V56.3754L59.9886 56.4578L59.9062 57.7208L59.5493 57.8581L59.6042 58.3248L59.11 58.4621L58.6158 58.5994L58.5334 59.2034L58.1765 59.423L57.9843 59.9722L57.7646 61.3175C57.7646 61.3175 58.1765 62.1137 58.3961 61.7294C58.6158 61.3724 59.0002 61.3175 59.0002 61.3175L59.1374 60.988L60.373 61.043C60.4553 60.5213 61.0594 60.7135 61.0594 60.9606C61.0594 61.1802 61.5261 61.0155 61.5261 61.0155L61.8556 60.4938H62.3498L62.4047 59.9447L62.6244 59.8074V58.9838C63.3657 58.7641 63.2559 58.0502 63.2559 58.0502L63.448 57.8306L63.3657 57.5011C63.0087 57.3638 63.1735 57.0344 63.4206 57.1167C63.6402 57.1991 63.0911 56.7049 63.0911 56.7049C62.8166 56.9245 62.5969 56.4303 62.5969 56.4303H61.8007Z" fill="#009EDB"/>
<path d="M62.542 62.0326C62.4871 62.5817 61.8007 62.7739 61.8007 62.7739L61.3065 62.6366L61.032 62.417L60.9771 61.758L61.3889 61.7031L61.4713 61.9777L62.542 62.0326Z" fill="#009EDB"/>
<path d="M65.013 59.0677C65.1228 59.4795 65.0954 58.4087 65.2876 58.4636C65.4798 58.5185 65.3425 57.8047 65.3425 57.8047L64.5188 58.4087C64.9032 58.4636 64.9581 58.8755 65.013 59.0677Z" fill="#009EDB"/>
<path d="M67.4292 56.6498C67.6214 57.0617 67.5665 57.6657 68.2529 58.1325C68.4725 58.2972 68.1156 58.5992 67.8959 58.4619C67.6763 58.3246 67.0173 57.3088 67.0173 57.3088V56.7047C67.1546 56.3478 67.3468 56.4851 67.4292 56.6498Z" fill="#009EDB"/>
<path d="M67.4292 70.7353L67.5665 70.8726L67.7038 71.1197L68.0058 70.598L67.7587 70.5156L67.4292 70.7353Z" fill="#009EDB"/>
<path d="M72.8928 69.3359L73.2497 69.0888L73.1124 68.8691L72.728 69.0888L72.8928 69.3359Z" fill="#009EDB"/>
<path d="M86.0992 79L86.511 79.1921L86.5659 79.9884C87.1151 80.5375 88.8997 80.0707 88.8997 79.9335C88.8997 79.7962 88.8173 78.2312 88.8173 78.2312L88.5977 78.0115L88.5428 76.8584C88.735 76.2544 87.6642 75.3758 87.5818 75.568C87.4994 75.7601 86.8954 75.6229 86.8954 75.7876C86.8954 75.9798 86.5385 76.8858 86.7032 77.2153C86.8954 77.5448 86.5659 77.5448 86.511 77.8743C86.4561 78.1488 85.9894 78.6979 86.0992 79Z" fill="#009EDB"/>
<path d="M85.0831 77.1336C85.0008 77.4905 84.6713 77.6827 84.4791 77.5454C84.2869 77.4082 84.6987 77.7651 84.8086 77.9573C84.8909 78.1495 85.1655 78.1495 85.2753 77.9573C85.3577 77.7651 85.3302 77.3532 85.4126 77.1611C85.495 76.9963 85.138 76.9414 85.0831 77.1336Z" fill="#009EDB"/>
<path d="M83.2987 68.6484H82.9692V69.527H83.2987V68.6484Z" fill="#009EDB"/>
<path d="M87.6917 59.7268C87.4995 59.4522 88.5977 58.9855 88.7899 59.5346C88.9821 60.0837 88.7899 60.0013 88.5977 59.9464C88.433 59.8915 87.9662 60.0837 87.6917 59.7268Z" fill="#009EDB"/>
<path d="M88.6802 53.5215L88.6252 53.796L89.1195 53.8784L89.1744 53.6039L88.6802 53.5215Z" fill="#009EDB"/>
<path d="M87.3896 54.3161L87.4171 54.3985L87.6916 54.2887L87.5818 54.069L87.5269 53.9043L87.3896 53.9867L87.0601 54.1789L86.7581 53.9867L86.6208 54.2338L86.9778 54.4534L87.0601 54.5083L87.1151 54.4534L87.3896 54.3161Z" fill="#009EDB"/>
<path d="M89.1192 43.0321H88.4328C88.4328 43.0321 88.6525 43.1144 88.021 42.5104C87.3895 41.9064 86.9776 42.6477 86.9776 42.6477L86.2363 42.7301V43.4714L85.8794 43.6086L85.9343 44.0754L86.4285 44.0205C86.4285 44.0205 86.4285 44.5696 86.5658 44.35C86.7031 44.1303 87.8562 44.4049 87.7464 44.954C87.719 45.1736 88.8996 45.7777 88.7623 46.519C89.3663 46.6014 89.229 47.2054 89.229 47.2054L89.9978 47.2878L90.2175 46.821L90.4371 46.8759V46.6014L89.9429 46.4641L89.8605 44.9815L89.5311 44.7618L89.6134 44.3774L89.2565 44.2401L89.4487 43.6361L89.1192 43.0321Z" fill="#009EDB"/>
<path d="M91.1237 47.7541L90.7668 47.6992L89.9431 47.8365L89.4764 48.7151C89.4764 48.7151 89.696 48.8524 89.8882 49.1818C90.0804 49.5113 90.1628 51.4058 89.6136 51.7353C89.0645 52.0647 89.6686 51.8725 89.6686 51.8725L89.5862 52.8884C89.7235 53.3552 89.9431 53.1081 90.0804 52.8884C90.2177 52.6688 90.355 52.6138 90.5471 52.3667C90.7393 52.1471 91.0139 51.7078 91.0414 51.4058C91.0963 51.0763 91.3159 50.5821 91.1786 50.4448C91.0414 50.3075 91.3159 49.6486 91.3159 49.6486C91.3159 49.6486 91.5081 49.2642 91.3159 48.9073C91.1237 48.5229 91.3708 48.1111 91.5081 47.9463L91.1237 47.7541Z" fill="#009EDB"/>
<path d="M91.6729 49.6499L91.7003 49.293L91.9749 49.3204L91.9474 49.7048L91.6729 49.6499Z" fill="#009EDB"/>
<path d="M91.6455 50.9392L91.3984 50.8019L91.5357 50.5273L91.7828 50.6646L91.6455 50.9392Z" fill="#009EDB"/>
<path d="M91.2608 47.2603L91.0686 46.8484C91.0686 46.8484 91.0686 46.4915 91.151 46.2993C91.2334 46.1071 90.9588 45.9424 90.8215 45.8875C90.6843 45.8326 90.7392 45.4756 90.6843 45.2834C90.6293 45.0912 90.3273 44.954 90.3273 44.954C90.3273 44.954 90.245 44.2676 90.245 44.1303C90.245 43.993 89.8331 43.8008 89.9704 43.6635C90.1077 43.5262 90.1901 43.3341 90.3273 43.2517C90.4646 43.1693 90.19 42.5104 90.4097 42.6477C90.6293 42.7849 90.6293 43.032 90.7392 43.1968C90.8215 43.389 90.6843 44.0205 90.9314 44.1577C91.151 44.295 90.8765 44.7618 91.2608 44.7618C91.6178 44.7618 91.3981 45.6404 91.3981 45.6404C91.3981 45.6404 91.3157 46.2993 91.5354 46.3268C91.755 46.3817 91.6178 47.4799 91.6178 47.4799L91.2608 47.2603Z" fill="#009EDB"/>
<path d="M88.2959 39.7657C88.4332 39.9579 88.7077 40.0952 88.7077 40.2874C88.7077 40.4796 88.6254 40.6169 88.8999 40.6443C89.1745 40.6992 89.3667 40.5894 89.449 40.8365C89.5314 41.0562 89.5314 41.4406 89.504 41.6327C89.449 41.8249 89.5589 42.0995 89.7785 42.0995C89.9982 42.0995 90.0531 42.1544 90.0531 42.2917C90.0531 42.429 90.3276 41.77 90.3276 41.77C90.108 41.5778 89.9158 41.166 89.9158 41.166C89.9158 41.166 89.6961 40.5071 89.6961 40.4247C89.6961 40.3423 89.3667 40.2325 89.2294 40.205C89.0921 40.1501 88.8725 39.7383 88.8725 39.7383L88.2959 39.7657Z" fill="#009EDB"/>
<path d="M88.7351 39.3261C88.5978 39.1339 88.4606 38.9967 88.2684 38.9143C88.0762 38.8319 87.9389 38.7221 87.7741 38.7221C87.582 38.7221 87.4172 38.5299 87.4996 38.3103C87.582 38.0906 87.3623 37.9808 87.3623 37.7886C87.3623 37.5964 87.4996 37.5964 87.7192 37.7337C87.9389 37.871 87.9114 37.9259 88.0762 38.1455C88.2684 38.3652 88.3507 38.6123 88.5429 38.5574C88.7351 38.5024 88.8724 38.9692 89.0371 38.8319C89.2293 38.6946 89.1744 39.1614 89.1744 39.1614L88.7351 39.3261Z" fill="#009EDB"/>
<path d="M83.4084 44.5706C83.6556 44.8177 82.0356 44.7628 82.0356 44.5706C82.0356 44.3784 82.1729 43.7469 82.5848 43.8842C82.9966 44.0215 83.0515 43.0605 83.0515 43.0605C83.0515 43.0605 82.6946 43.1155 82.9966 42.9233C83.3261 42.7311 82.9966 42.4565 82.8593 42.3192C82.722 42.182 82.5848 41.9349 82.5848 41.9349H83.2163C83.4908 41.7427 83.5732 40.8641 83.5732 40.8641C84.1223 41.0563 84.3969 40.6719 84.3969 40.6719C84.3969 40.6719 84.4792 40.9464 84.6714 41.1935C84.8636 41.4132 84.2047 41.523 84.4518 41.6603C84.6714 41.7976 84.7812 42.2094 84.6714 42.3467C84.5891 42.484 84.0674 42.4016 84.0674 42.2094C84.0674 42.0172 83.8752 42.4291 84.0674 42.6762C84.2596 42.8958 83.8477 43.2253 83.7379 43.2253C83.6556 43.2253 83.0515 43.3077 83.5457 43.6097C84.0399 43.8842 84.5891 43.7469 84.5891 43.7469C84.5891 43.7469 85.0009 43.692 85.1382 43.9391C85.2755 44.1588 85.0833 44.2137 84.8636 44.2137C84.644 44.2137 83.5457 44.1313 83.5457 44.1313C83.5457 44.1313 83.2712 44.4334 83.4084 44.5706Z" fill="#009EDB"/>
<path d="M80.4706 44.9825C80.6902 44.9276 81.2393 44.9001 81.3491 45.0374C81.4315 45.1747 81.0197 45.3669 81.0197 45.3669L80.4706 45.4492C80.3058 45.2296 80.2509 45.0374 80.4706 44.9825Z" fill="#009EDB"/>
<path d="M86.3738 41.1108C86.7307 40.9186 87.5269 40.9186 87.472 40.644C87.4171 40.3695 87.9388 40.2871 87.9388 40.2871L88.076 40.8362L88.4879 41.1108L88.5428 41.6325C88.5428 41.6325 88.6801 41.5501 88.1859 41.6874C87.6917 41.8246 87.9937 42.0443 87.9937 42.0443L86.8954 42.0992L86.7582 41.6325L86.3738 41.1108Z" fill="#009EDB"/>
<path d="M84.5889 38.5843C84.8635 38.5843 84.5065 39.6551 85.2204 39.5453C85.9617 39.4629 85.2753 39.8747 85.8244 39.9022C86.3735 39.9571 86.2363 39.4903 86.4284 39.1609C86.6206 38.8314 86.5108 38.6392 86.2088 38.5568C85.8793 38.4745 85.8793 38.4745 85.797 38.0901C85.7146 37.7332 85.3302 37.6233 85.3302 37.6233L85.1929 37.0742L84.5889 37.4311L83.9849 38.2274C83.9849 38.8863 84.3143 38.5843 84.5889 38.5843Z" fill="#009EDB"/>
<path d="M85.7971 42.5109L85.9344 42.2363L86.1815 42.3462L86.0442 42.6482L85.7971 42.5109Z" fill="#009EDB"/>
<path d="M85.6051 42.0703H85.3306V42.3998H85.6051V42.0703Z" fill="#009EDB"/>
<path d="M85.55 35.8945L85.6049 36.3064L85.3303 36.3338L85.2754 35.922L85.55 35.8945Z" fill="#009EDB"/>
<path d="M85.0558 40.2031H84.7812V40.4228H85.0558V40.2031Z" fill="#009EDB"/>
<path d="M84.0399 40.2044L84.0125 39.9298L84.4792 39.9023L84.5067 40.1769L84.0399 40.2044Z" fill="#009EDB"/>
<path d="M80.2784 44.6795L80.0312 44.5697L80.1685 44.2402L80.4156 44.3501L80.2784 44.6795Z" fill="#009EDB"/>
<path d="M78.8507 43.8295L78.8232 43.5549L79.29 43.5L79.3174 43.7746L78.8507 43.8295Z" fill="#009EDB"/>
<path d="M70.9436 43.7461L69.9277 43.7735L69.9552 44.0481L70.9436 44.0207V43.7461Z" fill="#009EDB"/>
<path d="M69.2688 44.1308L69.1589 43.719L69.4335 43.6641L69.5159 44.0759L69.2688 44.1308Z" fill="#009EDB"/>
<path d="M69.0765 44.4329L68.9941 44.1583L69.1314 44.1309L69.2138 44.378L69.0765 44.4329Z" fill="#009EDB"/>
<path d="M71.3552 43.6362L71.3003 43.9657L71.7945 44.0206C71.7945 44.0206 72.0142 44.2128 72.0142 44.3501C72.0142 44.4874 72.3436 44.6246 72.5084 44.6246C72.7006 44.6246 73.1948 44.2403 73.1948 44.2403C73.1948 44.2403 73.4144 43.5813 73.2497 43.6362C73.0575 43.6911 72.7006 43.9657 72.6456 43.6911C72.5907 43.4166 72.0416 43.5539 72.0416 43.5539L71.3552 43.6362Z" fill="#009EDB"/>
<path d="M73.6341 43.1414C73.6341 43.2787 73.5518 43.4709 73.8263 43.5258C74.1009 43.5807 74.5951 43.3336 74.65 43.6082C74.7049 43.8827 74.7049 44.0749 75.0619 44.2122C75.4188 44.3495 75.6659 44.4044 75.9405 44.4044C76.215 44.4044 76.819 44.322 76.819 44.322C76.819 44.322 77.478 44.4318 77.5878 44.5417C78.082 45.0633 78.4115 45.2006 78.5488 44.9535C78.6861 44.7339 78.4939 44.2122 78.4664 44.02C78.4115 43.8278 77.78 42.9492 77.5604 43.1414C77.3407 43.3336 77.2858 43.1414 76.874 43.2787C76.4621 43.416 75.5835 43.3336 75.5561 43.1414C75.5012 42.9492 74.8697 42.8668 74.8697 42.6747C74.8697 42.4825 74.4029 42.2628 74.4578 42.5374C74.5127 42.8119 74.1283 42.9492 74.046 42.8668C73.9087 42.757 73.6341 43.1414 73.6341 43.1414Z" fill="#009EDB"/>
<path d="M84.1223 37.2111L84.4518 36.1953C83.9851 36.1129 84.0949 35.5912 84.0949 35.5912C84.04 35.1794 83.4085 34.7126 83.1888 34.8499C82.9692 34.9872 83.0515 33.889 83.0515 33.889C83.0515 33.889 83.4634 33.6144 83.6556 33.7517C83.8478 33.889 82.0906 31.4454 81.7337 31.665C81.3767 31.8847 80.553 31.4454 80.5805 31.0061C80.6354 30.5942 78.9331 29.194 78.9331 29.194C78.9331 29.194 78.384 28.8371 78.3016 29.1116C78.2193 29.3862 78.0271 29.5784 78.3016 29.7157C78.5762 29.8529 78.5213 29.496 78.8508 29.798C79.1802 30.1275 79.7568 30.5393 79.5372 30.8139C79.3175 31.0885 79.043 31.1983 79.043 31.1983L79.3724 31.5827H79.8666L79.949 32.3789C79.949 32.3789 80.4981 32.6534 80.6354 32.9829C80.7727 33.3124 80.7727 33.5046 80.6354 33.6693C80.4981 33.8615 80.2236 34.191 80.2785 34.493C80.3334 34.8225 80.6903 34.9598 80.6903 34.9598L81.0473 35.0147L81.3218 35.1519V35.756C81.6787 35.6736 82.2828 36.1678 82.2279 36.4973C82.173 36.8268 82.3102 36.6346 82.777 36.964C83.2437 37.2935 83.1065 37.3484 83.4085 37.5681C83.7105 37.7603 83.985 37.623 84.1223 37.2111Z" fill="#009EDB"/>
<path d="M76.5995 30.8962C76.5446 30.704 76.4622 30.0725 76.7368 30.0999C77.0113 30.1549 76.8191 30.0999 77.1486 30.2372C77.4781 30.3745 77.5055 30.0176 77.5055 30.0176H77.9997L78.6312 30.5392L78.5489 30.9511L78.0821 31.006C77.8625 30.6491 77.3957 30.7863 77.4781 31.0884C77.5604 31.4178 77.2584 32.0219 77.0662 32.0493C76.874 32.1042 76.2975 32.1042 76.3249 31.8297C76.4073 31.5551 76.5995 30.8962 76.5995 30.8962Z" fill="#009EDB"/>
<path d="M76.2424 29.661V29.3041C76.2424 29.3041 76.1875 28.9472 75.9678 28.9472C75.7482 28.9472 75.3363 28.6726 75.4187 28.4804C75.5011 28.2882 74.6499 28.096 74.6499 28.096C74.6499 28.096 73.8812 27.3547 74.1557 27.4371C74.4303 27.5195 74.293 27.1076 74.293 27.1076C74.293 27.1076 73.7439 27.19 73.6066 27.1625C73.4693 27.1076 73.5242 26.6958 73.5242 26.6958C73.5242 26.6958 72.9751 26.5585 72.9751 26.6958C72.9751 26.8331 73.1673 26.8331 73.2497 27.1076C73.332 27.3822 73.3046 27.8489 73.7164 27.9313C74.1283 28.0137 74.2106 28.1235 74.2655 28.3157C74.3204 28.5079 74.8147 28.5353 74.8147 28.5353L75.1716 28.7275L76.2424 29.661Z" fill="#009EDB"/>
<path d="M71.3004 24.9394L71.1631 24.555L70.8062 24.4727V24.8845L71.3004 24.9394Z" fill="#009EDB"/>
<path d="M71.1629 22.9903C70.6961 22.6334 71.7944 23.2649 71.7944 23.2649C72.1513 23.2649 72.3984 23.5394 72.3984 23.6767C72.3984 23.814 72.8926 23.7591 72.8926 23.7591L72.9475 23.4296L72.5906 22.9629L72.2611 22.7432C72.2611 22.7432 71.7669 22.6883 71.7669 22.551C71.7669 22.4412 71.3551 23.1276 71.1629 22.9903Z" fill="#009EDB"/>
<path d="M79.5647 23.2645C79.4275 23.6764 79.3725 24.2255 79.1529 24.2255C78.9332 24.2255 79.0156 24.8295 79.0156 24.8295C79.0156 24.8295 79.6197 24.8295 79.7844 24.8844C79.9766 24.9393 79.9766 25.4061 79.9766 25.4061C80.663 25.3512 80.9375 26.2847 80.8552 26.5318C80.7728 26.7514 81.1297 26.7514 81.1297 26.7514C81.1297 26.7514 81.1297 27.4928 81.0474 27.6849C80.965 27.8771 81.6514 28.0144 81.8161 28.289C82.0083 28.5635 81.7338 29.497 81.5965 29.552C81.4592 29.6069 81.9534 29.7441 81.926 29.9638C81.871 30.1834 82.0632 29.9638 82.1182 30.3482C82.1731 30.7051 82.2554 31.5013 82.2554 31.5013L82.8869 31.5562C82.9693 30.9522 84.1499 30.9248 84.3421 31.0071C85.1109 31.2817 85.7149 32.4898 85.7149 32.7643C85.7149 33.0389 85.2207 33.0938 85.2207 33.0938L85.303 34.4391C86.0718 34.6588 86.7308 35.7845 86.6209 35.9767C86.5386 36.1689 87.1701 36.1139 87.1701 36.1139C87.2524 35.2903 88.0487 35.5648 88.0761 35.8394C88.131 36.1139 88.2683 36.718 88.2683 36.718L88.4879 37.1298L88.8174 37.4593L89.3116 37.4044L89.4489 37.6789L90.0529 37.7613C90.0529 37.7613 90.5472 38.3104 90.6021 38.4477C90.657 38.585 91.3434 38.5301 91.5081 38.585C91.7003 38.6399 91.9749 38.7772 92.0023 38.9968C92.0572 39.2165 92.3318 39.6009 92.3318 39.6009C92.3318 39.6009 92.8809 39.7381 92.9358 39.9303C92.9907 40.1225 93.2104 40.5344 93.2104 40.5344L93.6771 40.9188L93.732 41.3306L94.2263 41.3855L94.3635 41.9346L95.1872 41.8797L95.654 41.5502C96.258 41.2208 96.6698 40.8089 96.6973 40.6167C96.7522 40.4245 96.8346 39.7381 97.3013 39.8754C97.7681 40.0127 97.4386 38.8596 97.4386 38.8596C97.4386 38.8596 96.8071 38.3928 96.8346 38.1731C96.8895 37.9535 96.2031 37.4867 96.2306 37.2946C96.2855 37.1024 95.6265 36.7454 95.6814 36.5532C95.7363 36.3611 95.352 35.8668 95.352 35.8668L94.6656 35.2079L94.5832 34.7961L94.0341 34.7411L92.9358 33.3958L92.9907 33.0114L92.6613 32.9565V32.4348L92.3318 32.2426L91.8376 32.1877L90.8217 31.0895L90.7393 30.5678H90.2451L90.3275 29.6069C90.657 29.195 90.4648 28.3988 90.4648 28.3988C90.4648 28.3988 89.8333 28.7283 89.5038 28.591C89.1744 28.4537 89.6411 28.1242 89.6411 28.1242V27.7673L89.3665 27.4928C89.3665 27.4928 88.5978 27.5751 88.5429 27.4378C88.488 27.3006 88.3507 26.6965 88.3507 26.6965L88.2958 25.9003L87.9663 25.763L87.9114 25.4885L87.4172 25.5434V24.9943L87.1426 24.9119L86.868 24.7746L86.8131 24.2255L85.7973 24.1706L85.4678 23.7038L85.1109 23.1547L83.9577 23.0723L83.6831 22.7978L83.2164 22.7154L82.8869 22.5781L82.7496 22.7978L81.871 22.8527L81.8161 23.1272C81.4318 23.3194 79.6196 23.1272 79.5647 23.2645Z" fill="#009EDB"/>
<path d="M84.3696 22.0566C84.2872 21.6997 85.2757 21.3702 85.5228 21.6448C85.7424 21.9193 86.4014 21.9742 86.4837 23.347C86.5112 23.8412 85.66 22.8254 85.66 22.8254L84.9736 22.6057C84.5893 22.5234 84.3971 22.3037 84.3696 22.0566Z" fill="#009EDB"/>
<path d="M70.9707 22.6331L70.7236 22.5233L70.9158 22.084L71.1629 22.2213L70.9707 22.6331Z" fill="#009EDB"/>
<path d="M68.6096 18.0753L68.0056 17.4712V16.9496L67.8134 16.7574L67.6212 16.0984L67.0171 15.9062L66.4131 16.1259L65.7816 16.5377L65.0952 16.6201L64.7383 17.0319L66.1935 17.1692L66.468 17.636L67.5113 17.7183L68.1977 18.4047C68.8292 18.6793 68.9665 18.4047 68.6096 18.0753Z" fill="#009EDB"/>
<path d="M68.5275 15.797C68.4176 15.3851 67.8411 16.3186 68.4451 16.4834C69.0491 16.6756 69.6257 16.4834 69.6257 16.4834L69.763 16.2088L72.0418 16.2637C72.234 16.0715 72.3164 15.797 72.3164 15.797C72.3164 15.797 72.8655 15.6048 73.0852 15.7146C73.3048 15.797 73.1401 15.0557 72.893 15.1655C72.6733 15.2478 72.2066 15.2204 72.2066 15.2204H71.3829C71.328 14.8909 70.6141 15.0282 70.5592 15.2204C70.5318 15.3851 70.2572 15.44 70.2572 15.44L69.2139 15.5224C69.104 15.797 68.5824 15.9892 68.5275 15.797Z" fill="#009EDB"/>
<path d="M63.9971 23.6207C64.7109 23.8404 64.958 23.6756 65.0129 23.4834C65.0679 23.2912 65.0953 23.2638 65.3699 23.2089C65.6444 23.154 65.315 22.6048 65.0404 22.6597C64.7658 22.7147 64.4913 22.5774 64.4364 22.3303C64.3815 22.1106 63.9422 21.5066 63.8872 21.9733C63.8323 22.4401 63.5578 22.4401 63.6127 22.7696C63.6951 23.0716 63.8323 23.5658 63.9971 23.6207Z" fill="#009EDB"/>
<path d="M58.753 24.1428C58.7256 23.9781 59.6591 23.9506 59.7964 24.0879C59.9336 24.2252 59.8513 24.4723 60.2631 24.4723C60.675 24.4723 60.4828 24.7468 60.4553 24.8841C60.4004 25.0214 59.9611 24.9665 59.9062 24.8292C59.8513 24.6919 59.1649 24.637 59.1649 24.637C59.1649 24.637 58.8079 24.3625 58.753 24.1428Z" fill="#009EDB"/>
<path d="M73.7991 14.7797L73.9089 14.8895L73.9913 14.8072L74.458 14.4228L74.2658 14.2031L73.9089 14.5051L73.6893 14.258L73.4971 14.4777L73.7991 14.7797Z" fill="#009EDB"/>
<path d="M71.7669 13.7095L71.8219 13.6546L72.3435 13.3251L72.1788 13.1055L71.7669 13.38L71.4649 13.1878L71.3276 13.4349L71.6846 13.6546L71.7669 13.7095Z" fill="#009EDB"/>
<path d="M70.1197 23.1536L70.4218 23.6203L70.6414 23.4556L70.3394 22.9614L70.2845 22.9065H70.2296L69.7628 22.8516L69.7354 23.1261L70.1197 23.1536Z" fill="#009EDB"/>
<path d="M55.1839 35.8125L55.2388 36.3342H55.9252C56.1997 36.3342 55.7055 36.0047 55.7055 36.0047C55.7055 36.0047 55.1564 36.0596 55.1839 35.8125Z" fill="#009EDB"/>
<path d="M56.0625 35.8388L56.2272 35.6191L56.5018 35.8388L56.3371 36.0584L56.0625 35.8388Z" fill="#009EDB"/>
<path d="M47.7432 27.1629L47.9354 26.9707L48.2099 27.2453L48.0177 27.4375L47.7432 27.1629Z" fill="#009EDB"/>
<path d="M60.6199 87.045L60.8121 87.2372L61.0318 87.0175L61.169 86.8803L61.0043 86.7704L60.5376 86.5508L60.4277 86.7979L60.7023 86.9352L60.6199 87.045Z" fill="#009EDB"/>
<path d="M57.0235 83.6953L57.353 83.9149L57.5177 83.6953L57.3255 83.558L57.4628 83.4482L57.2981 83.2285L57.0235 83.4756L56.8862 83.5854L57.0235 83.6953Z" fill="#009EDB"/>
<path d="M91.4256 74.6615C91.3707 74.4144 91.0961 74.332 91.0687 74.332L90.9863 74.6066C91.0138 74.6066 91.0412 74.634 91.0687 74.6615L91.1236 74.9086C91.0962 74.9361 91.0687 74.9635 91.0687 74.991L91.2609 75.1832C91.3982 74.9635 91.4531 74.8262 91.4256 74.6615Z" fill="#009EDB"/>
<path d="M91.8375 73.783L91.3982 73.7556L91.4257 73.3438L91.8649 73.3987L91.8375 73.783Z" fill="#009EDB"/>
<path d="M102.408 70.1867C102.6 70.0768 102.847 69.8297 102.82 70.3514C102.793 70.8731 102.573 70.7083 102.408 70.8731C102.243 71.0378 102.134 70.3514 102.408 70.1867Z" fill="#009EDB"/>
<path d="M104.742 68.2085V68.1536C104.742 68.0712 104.715 67.9614 104.66 67.8516L104.413 67.9888C104.44 68.0438 104.44 68.1261 104.468 68.181C104.468 68.2634 104.495 68.3458 104.55 68.4007C104.605 68.4281 104.66 68.4556 104.742 68.4281L104.687 68.1536C104.687 68.181 104.715 68.181 104.742 68.2085Z" fill="#009EDB"/>
<path d="M104.138 68.43C104.22 68.7046 104.302 68.9791 104.302 69.0066L104.55 68.8968C104.55 68.8968 104.44 68.6222 104.385 68.3477L104.138 68.43Z" fill="#009EDB"/>
<path d="M103.122 69.5275L102.847 69.5C102.82 69.7196 102.875 69.9942 103.094 70.0217L103.149 69.7471C103.149 69.7471 103.122 69.6373 103.122 69.5275Z" fill="#009EDB"/>
<path d="M101.941 64.0103C101.914 63.9279 101.887 63.8456 101.804 63.8181C101.612 63.7357 101.255 63.873 101.09 63.9828L101.255 64.2025C101.42 64.0927 101.667 64.0377 101.694 64.0652C101.694 64.0652 101.694 64.0652 101.694 64.0377L101.941 64.0103Z" fill="#009EDB"/>
<path d="M89.2843 49.2097C89.0921 49.4019 88.6803 49.4843 88.6803 49.4843L88.543 50.0059L88.3233 50.1981C88.3233 50.1981 88.3783 50.3354 88.3233 50.6649C88.2684 50.9944 87.8566 51.1866 87.8566 51.1866L87.6644 51.4062C87.6644 51.4062 86.5662 51.4611 86.4289 51.4062C86.017 51.214 86.2916 50.6649 86.5662 50.7198C86.8407 50.7747 86.5112 49.9236 86.5112 49.9236L86.8682 49.8687C86.8682 49.8687 86.9231 49.045 87.0604 49.045C87.1977 49.045 87.0055 48.7704 86.8407 48.6331C86.6485 48.4959 86.4289 48.0291 86.2367 48.084C86.0445 48.1389 85.3306 48.084 85.3306 48.084L85.1934 48.3586L84.6992 48.4409C84.6992 48.4409 84.7541 48.7979 84.6442 48.9077C84.3697 49.2372 83.3264 49.9236 83.7656 48.7704L83.9029 48.4959V48.084L83.0792 48.0291C83.0792 48.0291 82.6674 47.8918 82.6674 47.6996C82.6674 47.5074 82.6125 47.2878 82.6125 47.2878L81.6515 46.217L80.4984 46.0797L80.416 45.8601L79.7296 45.7777C78.9059 45.3659 78.1646 45.7228 78.3019 46.4367C78.4392 47.1231 78.6588 47.3976 78.2195 47.3976C77.7528 47.3976 77.6704 47.0407 77.6704 47.0407C77.6704 47.0407 77.3135 46.9034 77.3135 47.0956C77.3135 47.2878 77.1762 47.6447 77.3135 47.8369C77.4508 48.0291 77.1213 48.3037 76.984 48.1664C76.8467 48.0291 76.4898 47.6173 76.5722 47.48C76.6545 47.3427 75.9407 46.4641 76.6545 46.3268C77.3958 46.1896 76.5996 45.7777 76.8742 45.6679L77.2311 45.4757H77.588L77.8077 45.2835L77.2036 45.2011L76.8467 45.1462L76.1603 45.0913C75.4739 45.5581 75.3366 46.1072 75.3366 46.1072C74.9797 46.7936 74.1011 45.8326 74.4306 45.4482C74.7601 45.0639 73.4147 45.3933 73.1951 45.5855C72.9754 45.7777 72.289 45.6679 72.289 45.6679C72.1517 46.0797 71.5203 45.613 71.685 45.3384C71.8772 45.0639 71.8772 44.8717 71.8772 44.8717L71.6575 44.8168L71.383 45.3384C70.7515 45.3384 70.5593 45.6953 70.6966 45.9425C70.8339 46.1621 70.5044 45.8875 70.422 46.217C70.3396 46.5465 70.4769 46.5465 70.7515 46.6838C71.026 46.821 70.6142 46.821 70.8064 47.0407C70.9986 47.2603 71.5477 47.0407 71.2182 47.3702C70.8888 47.6996 70.2573 47.5624 70.2573 47.5624C70.2024 47.9742 69.3512 47.8918 69.2414 47.7545C69.159 47.6173 68.4726 46.7936 68.4726 46.7936L67.594 46.7387C67.5117 46.0797 68.0059 46.4092 68.1981 45.915C68.3903 45.3933 68.4726 44.5697 68.4726 44.5697C68.4726 44.5697 67.7313 44.5147 67.7039 44.7618C67.649 44.9815 67.2097 45.1462 67.2097 45.1462C67.2097 45.1462 66.8527 45.2835 66.99 45.4757C67.1273 45.6679 66.7155 45.7503 66.7155 45.7503C66.7155 45.7503 66.7978 46.0523 66.6605 46.1621C66.3036 46.5465 65.3701 46.217 65.2328 46.0797L64.6837 45.8601L64.1346 45.5032L63.5031 45.7777L63.3109 45.9699H62.6245L62.5696 46.519L63.8051 46.6563L63.8875 47.8095L63.3933 47.6447H63.0638L62.9265 47.3702L62.652 47.3153V48.3311L62.9265 48.5508L63.1462 48.7704L63.6129 48.8253L63.6953 49.3745L64.8484 49.4294L64.9857 49.649L65.6721 49.7039L66.99 51.0493L66.9076 51.4611L66.688 51.5984C66.7704 51.9279 66.084 51.7357 66.084 51.7357V52.0102L66.4134 52.0651L66.7429 52.2573L67.2097 51.4611C67.7039 51.1316 67.951 51.5984 67.9784 51.873C68.0333 52.1475 67.7588 52.0926 67.7588 52.0926V52.7515L68.0333 52.8339C68.5001 53.383 67.8411 53.7125 67.8411 53.7125L67.7039 54.1793C67.5666 54.5911 67.0724 54.5087 67.0724 54.5087L66.8802 54.7833L66.3311 54.9206L67.4019 55.0579C67.5117 54.6735 67.7862 54.5911 67.9235 54.7833C68.0608 54.9755 68.0608 55.305 68.0608 55.305L68.3354 55.3599L68.2804 55.8815L68.555 55.9639V57.4465L68.8845 57.8035C69.4336 57.5838 69.4336 57.9407 69.159 58.1329C68.8845 58.3251 69.0767 59.1488 69.0767 59.1488L68.857 59.3684V59.7528L68.5825 59.945V60.4667C68.1157 60.247 67.5666 60.3294 67.4293 60.4667C67.0175 60.1921 66.1389 60.2745 66.1389 60.5216C66.4134 60.8785 65.8094 60.9884 65.8094 60.9884L65.4799 61.3453C65.6996 61.812 65.2603 61.8669 65.2603 61.8669V62.7455L64.7112 63.2672L64.7661 64.4753C64.7661 64.8047 65.4525 64.8322 65.5898 64.6675C65.727 64.4753 66.2762 65.0518 66.2762 65.0518H66.688L66.7704 64.2282L66.4958 64.0909V62.7455L66.9626 62.2239C67.5117 62.0317 67.3195 63.4319 67.3195 63.5692C67.3744 64.0909 67.594 64.036 67.8137 63.9262C68.2804 63.734 67.8961 64.4478 67.5391 64.3929C67.1822 64.338 67.4019 64.8597 67.4019 64.8597L67.6215 64.942L67.2097 65.2715L66.8527 65.6833L66.386 65.5461L65.8369 65.4911L65.6447 65.1617L65.3152 65.1068L65.2603 65.7657L65.0406 66.0403L64.4915 66.5894C65.2328 66.5894 64.4091 67.111 64.217 67.111C64.6288 67.2483 64.162 67.6602 63.1187 67.3307V67.6602L62.7618 67.7151L63.0913 68.072L63.4482 68.1269L63.3109 68.9231C63.3109 69.5272 61.8008 69.1153 61.6635 68.9781L61.6086 69.8017L61.3341 69.8567L61.389 70.4058L61.3341 71.202L61.8283 71.1196V71.4491L63.0638 71.504L64.8484 69.6095L65.8918 69.3899C65.9741 68.9231 66.4409 69.4723 66.4409 69.4723C66.9076 69.4174 66.99 69.7468 66.99 69.7468L67.594 69.8292C68.0883 69.9665 67.7862 70.0214 67.8137 70.2136C67.8686 70.4881 68.0883 70.4058 68.0883 70.4058L68.1706 69.8017L68.4452 69.8567L68.1706 69.5272L67.6764 69.3075L67.1273 69.0879C66.7704 68.5662 67.2097 68.676 67.594 68.731H68.1981C68.1981 68.731 68.8845 69.6645 68.8845 69.8841C68.8845 70.1038 69.2139 70.1587 69.2139 70.1587L69.6258 70.1038L69.7631 70.4332H70.1749L70.3122 70.7078H71.1359L71.1908 70.2959L70.422 70.1587L70.3671 69.6919L69.818 69.5546C69.6258 68.7584 69.9553 68.5388 70.1749 68.8957L70.4495 68.9506L70.3671 68.2642L70.6966 68.1818L70.6142 67.2209L70.3396 67.1385V66.809L71.4928 66.8639C71.4104 66.2599 71.5477 65.9854 71.5477 65.9854H71.8772L71.9321 66.205L73.3324 66.3423L74.3208 65.2166C74.2659 65.1342 74.4306 65.0793 74.3208 64.9695C74.1835 64.8322 73.9913 64.9695 73.7716 64.8322C73.552 64.6949 73.7717 63.8987 73.7167 63.734C73.6618 63.5418 74.4855 63.2672 74.3482 63.679C74.2109 64.0909 74.3482 64.2831 74.3482 64.2831C74.9523 63.734 75.4465 64.338 75.3916 64.4753C75.3366 64.6126 75.721 64.7498 75.9407 64.6126C76.1603 64.4753 76.4349 65.0244 76.3525 65.299C76.2702 65.5735 75.4465 65.5186 75.3916 65.244C75.3366 64.9695 75.1994 65.0518 75.117 65.1891C75.0346 65.3264 74.6228 65.4088 74.3757 65.2715C74.3208 65.244 74.3208 65.2166 74.2933 65.1891L73.3049 66.3148H73.3598C73.9089 66.6443 73.6344 67.0561 73.4422 67.1385C73.25 67.2209 72.948 67.2209 72.948 67.2209L72.8656 67.4131L71.685 67.4954L71.6026 67.9622C70.9986 67.8798 70.7789 68.5113 70.9162 68.8408C71.0535 69.1703 70.9162 69.4448 70.9162 69.4448L71.4104 69.6645L72.0419 69.4723C72.1243 69.0055 72.5361 68.9231 72.9205 68.6486C73.2774 68.374 73.8815 69.1703 73.6893 69.5272C73.4971 69.8841 73.4971 70.0488 73.4971 70.0488L73.552 70.4607L73.0852 70.6529L72.7283 70.8451L72.6734 71.0647H71.4379L71.2182 71.2844L70.6142 71.3393L70.422 71.6138L70.0102 71.6688C70.0102 71.6688 69.3238 71.9982 69.5983 72.3552C69.8729 72.7395 68.4452 72.6846 68.1432 72.163C68.0608 72.6297 67.5391 72.2179 67.5391 72.2179L67.0449 72.0806L66.99 71.3942C66.9076 70.9274 66.0291 70.9274 66.084 71.2569C66.1389 71.5864 64.4366 71.3942 64.4366 71.3942L63.8875 71.6688L63.3933 71.9708L63.3384 72.1904L62.5147 72.2728L62.1578 72.465L62.0205 72.1904H61.6635L61.3066 72.7121C60.3457 72.767 59.4396 73.3161 59.522 73.5358C59.6043 73.7554 59.165 74.0025 59.165 74.0025L58.7532 74.1398L58.4786 74.5516L57.9295 74.7438L57.8472 75.7048L57.5726 75.897V76.3088L57.2431 76.3912V76.6108L56.7764 76.6657L57.0509 77.3521L57.4079 77.5443C58.0393 77.6267 57.7648 78.4229 57.7648 78.4229L58.1217 78.4778L58.3139 78.9995L58.6708 79.7408C58.8081 80.2899 59.22 80.1527 59.4121 80.1252C59.6043 80.0703 59.7691 80.6743 59.7691 80.6743L61.5812 80.7292C61.5812 80.7292 61.4988 80.9214 61.8008 81.0038C62.1303 81.0862 64.217 81.196 64.2993 81.0587C64.217 80.6469 65.4525 80.537 65.9467 80.9214C66.4409 81.2784 67.1273 81.0587 67.1273 81.0587L67.8137 81.8824L68.2804 82.8983L69.0492 83.1179L69.5983 83.2552L69.7905 84.0514L70.2024 84.1063L70.3396 84.628C70.8339 84.9849 70.2024 85.7812 70.2024 85.7812V86.797L70.5593 86.9892L70.5044 87.3736L71.1084 87.9776L71.7948 88.0325L73.5245 89.8721L74.8973 90.2839L75.117 91.0252L75.4739 90.9703L75.7485 90.7507L76.8467 90.6958L77.3958 90.1741L77.9999 90.0917L83.0792 85.7812L82.6125 85.5066V84.4907C83.4362 83.8867 83.4911 82.8159 82.6949 82.7335C82.1183 82.6512 82.3654 82.0471 82.9145 81.9373L83.244 81.8V81.3882L84.2873 80.4272V79.6859L82.0085 77.7914C80.9926 77.4345 82.0085 75.2106 82.6949 75.238C83.3813 75.2929 82.6399 71.806 82.6399 71.806L82.283 71.6138L82.3654 70.4881H81.8712L81.0475 71.5589L80.8278 72.3002C80.7455 73.2612 77.9175 73.0965 77.7802 72.9592C77.6429 72.8219 76.682 72.4101 76.682 72.4101C76.682 72.4101 75.9407 71.806 75.8034 71.9982C75.6661 72.1904 75.0346 71.7786 75.0346 71.9159C75.0346 72.0531 74.4306 71.5864 74.4306 71.5864L73.5245 71.2569L74.2109 71.1196L74.0737 70.5705L75.2543 71.1745C75.3916 71.3667 75.9956 71.3118 75.9956 71.3118L76.1878 71.5315C76.1878 71.5315 76.5447 71.4766 76.7918 71.7511C77.0115 72.0257 78.2195 71.806 78.2195 71.806L78.549 72.0806L79.0432 72.2728L80.4709 72.3277L80.5258 71.4491L80.8004 71.1745L80.7455 70.6254L81.075 70.3509V69.8841L81.3495 69.8017L81.4044 68.7859L81.6241 68.731V66.507L80.9377 65.8481C80.8828 66.0677 80.1689 66.0677 80.1689 66.0677C80.1689 66.0677 79.9767 66.3972 79.8394 66.3972C79.7022 66.3972 80.0316 66.809 79.9218 67.0836C79.8394 67.3582 79.455 67.3582 79.455 67.3582L78.7686 67.5503L78.5765 67.77H77.8351L77.7528 67.166L78.5765 66.9463L79.0432 66.7267L79.2629 66.2599C79.3178 65.7932 79.8669 65.8481 79.8669 65.8481C79.8669 65.8481 80.9102 64.9695 80.9651 64.5576C81.02 64.1458 81.377 62.9926 82.0085 62.9926H83.1891C83.6558 62.8005 83.5185 62.1964 83.5185 62.1964L84.1226 62.1141L84.2049 62.4435C84.2049 62.4435 85.0286 62.5259 85.111 62.3886C85.1934 62.2513 85.3855 61.9219 85.6052 62.0591C85.8248 62.1964 86.5662 61.7297 86.5662 61.7297C86.6211 61.4002 87.7468 61.5375 87.7468 61.5375L87.8841 61.1256C87.8841 61.1256 87.1153 60.0548 86.978 60.0548C86.8407 60.0548 86.0994 59.3959 86.017 59.643C85.2757 59.4508 85.3306 58.4349 85.3306 58.4349L85.0561 57.776C85.0561 57.3916 84.3697 56.6228 84.2324 56.7052C83.546 56.1836 84.0402 55.607 84.2324 55.5521C84.4246 55.4972 84.8639 54.8657 84.8639 54.8657L85.0835 54.2067L85.8523 53.9871L85.9347 53.383L85.5228 53.3281C85.5228 53.3281 85.9896 52.5044 86.2092 52.5044C86.4289 52.5044 87.939 52.5044 88.0762 52.4221C88.2135 52.3397 88.4881 51.5984 88.4881 51.4611C88.4881 51.3238 88.845 51.2689 88.9823 51.2415C89.1196 51.1866 89.449 50.8296 89.5314 50.6374C89.7785 50.1707 89.4765 49.0175 89.2843 49.2097Z" fill="#009EDB"/>
<path d="M63.9972 65.904C64.0521 65.8491 64.1345 66.1236 64.2718 66.0687C64.409 66.0413 64.4639 66.3158 64.3267 66.3158C64.1894 66.3158 64.1894 66.4806 64.1894 66.5629C64.1894 66.6453 64.1894 66.81 64.0796 66.9199C63.9697 67.0297 63.8874 66.9473 63.7501 66.8924C63.6128 66.81 63.5579 66.81 63.3657 66.81C63.201 66.81 63.3383 67.0846 63.3383 67.0846C63.3383 67.0846 62.6244 67.0571 62.7617 66.9473C62.899 66.8375 63.0362 66.81 62.9264 66.7277C62.8166 66.6453 62.9264 66.5904 62.9264 66.4531C62.9264 66.3158 63.2559 66.3707 63.1735 66.2884C63.0637 66.1785 63.1735 65.7942 63.3383 66.0138L63.4481 65.7667C63.3383 65.6569 63.4206 65.6294 63.201 65.5471C63.0088 65.4647 63.1735 65.0528 63.1735 65.0528L63.201 64.7783C63.2559 64.4214 63.9423 64.3939 63.9972 64.6959C64.0247 64.9979 63.9972 65.2176 63.9972 65.2176L64.1894 65.3C64.1894 65.3 64.1619 65.5196 63.9972 65.5196C63.8325 65.5196 63.9972 65.6294 63.8874 65.7392L63.9972 65.904Z" fill="#009EDB"/>
<path d="M61.7456 66.2591C61.8554 66.0395 62.0751 65.1609 62.3496 65.4354C62.6242 65.71 62.7889 65.4354 62.7889 65.4354C62.7889 65.4354 62.9262 65.5727 62.8438 65.8473C62.7889 66.1218 62.7066 66.3964 62.5418 66.4513C62.3771 66.4788 62.2398 66.5886 62.0202 66.616C61.8554 66.6435 61.7456 66.2591 61.7456 66.2591Z" fill="#009EDB"/>
</g>
<defs>
<clipPath id="clip0_264_2690">
<rect width="128" height="108.671" fill="white" transform="translate(0 10)"/>
</clipPath>
</defs>
</svg>
