<svg width="128" height="128" viewBox="0 0 128 128" fill="none" xmlns="http://www.w3.org/2000/svg">
<rect width="128" height="128" rx="24" fill="#002E54"/>
<path d="M59.7832 78.7113V49H66.4686V65.6749L68.2556 63.4507L72.0097 59.0281H81.5492L73.6425 66.7548L81.9992 78.7113H73.3082L68.7699 71.2031L66.4686 73.4016V78.7113H59.7832Z" fill="white"/>
<path d="M35.1758 59.0918L32.6816 72.424L29.4289 59.0918H26.4205H26.2534H24.8778H24.7106H21.6893L18.4495 72.424L15.9425 59.0918H9L14.0912 78.6336H23.0521L25.5591 68.3356L28.0662 78.6336H37.0271L42.1311 59.0918H35.1758Z" fill="white"/>
<path d="M118.627 64.6856L119 58.9773H112.88L112.43 61.0858C111.029 59.6073 109.281 58.373 106.208 58.373C100.641 58.373 97.6069 61.9729 97.6069 68.7868C97.6069 75.6136 100.641 79.2005 106.208 79.2005C109.281 79.2005 111.029 77.9792 112.43 76.5007L112.88 78.6091H119L118.627 72.9009V64.6856ZM111.955 71.3195C111.106 72.4252 109.769 73.1709 108.021 73.1709C106.015 73.1709 104.421 71.8724 104.421 68.7997C104.421 65.727 106.015 64.4284 108.021 64.4284C109.769 64.4284 111.093 65.1741 111.955 66.2798V71.3195Z" fill="white"/>
<path d="M49.3052 49.1152C47.1967 49.1152 45.4868 50.8251 45.4868 52.9336C45.4868 55.0421 47.1967 56.752 49.3052 56.752C51.4137 56.752 53.1236 55.0421 53.1236 52.9336C53.1236 50.8251 51.4137 49.1152 49.3052 49.1152Z" fill="white"/>
<path d="M55.0649 63.0905V58.9121H52.1722H45.4868V65.6746V72V78.5954V78.7497H55.0649V74.5842H52.0565V63.0905H55.0649Z" fill="white"/>
<path d="M90.4459 49.1152C92.5544 49.1152 94.2643 50.8251 94.2643 52.9336C94.2643 55.0421 92.5544 56.752 90.4459 56.752C88.3374 56.752 86.6275 55.0421 86.6275 52.9336C86.6147 50.8251 88.3246 49.1152 90.4459 49.1152Z" fill="white"/>
<path d="M84.686 63.0905V58.9121H87.5787H94.2641V65.6746V72V78.5954V78.7497H84.686V74.5842H87.6816V63.0905H84.686Z" fill="white"/>
</svg>
