<svg width="128" height="128" viewBox="0 0 128 128" fill="none" xmlns="http://www.w3.org/2000/svg">
<path d="M64 127.992C99.3462 127.992 128 99.3402 128 63.9962C128 28.6521 99.3462 0 64 0C28.6538 0 0 28.6521 0 63.9962C0 99.3402 28.6538 127.992 64 127.992Z" fill="#CC092F"/>
<path d="M120.389 81.2847C113.069 78.3678 106.368 79.3453 99.6513 83.4172C99.6513 83.4172 97.2035 84.9111 96.4703 85.3723C93.3406 87.3353 90.3882 89.1958 87.5501 89.1958C84.8421 89.1958 82.1774 88.4705 81.0501 83.2319C79.2921 75.0606 75.0034 54.9812 73.1311 45.0361C72.0313 39.1904 71.4282 36.041 70.8015 33.9006C69.6978 30.1401 67.6796 28.0943 64.8139 27.7672C64.8139 27.7672 64.3646 27.7041 63.998 27.7041C63.6353 27.7041 63.1387 27.7751 63.1387 27.7751C60.3006 28.114 58.2942 30.1598 57.1984 33.9006C56.5717 36.041 55.9686 39.1904 54.8688 45.0361C52.9965 54.9812 48.7078 75.0606 46.9498 83.2319C45.8224 88.4705 43.1578 89.1958 40.4498 89.1958C37.6117 89.1958 34.6593 87.3353 31.5295 85.3723C30.7964 84.9111 28.3446 83.4172 28.3446 83.4172C21.6317 79.3453 14.9268 78.3678 7.61083 81.2847C6.03018 81.9154 4.47332 82.6217 2.99121 83.3351C4.00425 86.5122 5.26535 89.639 6.73563 92.5756C8.3557 91.7794 10.0547 90.9893 11.7891 90.4769C14.2882 89.7398 16.8504 89.7004 19.3337 90.5321C21.746 91.3402 23.8943 92.771 26.0347 94.1152C30.0671 96.6497 34.6357 99.5233 40.4498 99.5233C49.0665 99.5233 55.1132 94.3793 57.0447 85.4078C58.5425 78.4545 61.8615 62.9318 63.994 52.2259C63.994 52.2259 69.4573 78.4545 70.9513 85.4078C72.8827 94.3793 78.9334 99.5233 87.5501 99.5233C93.3642 99.5233 97.9327 96.6497 101.965 94.1152C104.106 92.771 106.254 91.3402 108.666 90.5321C111.146 89.7004 113.712 89.7398 116.211 90.4769C117.945 90.9893 119.642 91.7802 121.262 92.5765C122.736 89.6399 123.994 86.5116 125.007 83.3345C123.525 82.6211 121.97 81.9154 120.389 81.2847Z" fill="white"/>
</svg>
