<svg width="128" height="128" viewBox="0 0 128 128" fill="none" xmlns="http://www.w3.org/2000/svg">
<path d="M63.9971 0.210938C28.7597 0.210938 0.192871 28.777 0.192871 64.0144C0.192871 99.2532 28.7597 127.817 63.9971 127.817C99.2382 127.817 127.802 99.2532 127.802 64.0144C127.802 28.7793 99.2382 0.213985 63.9963 0.213985L63.9971 0.210938ZM93.2573 92.2338C92.1144 94.1081 89.6611 94.7024 87.7868 93.5519C72.8062 84.4014 53.9475 82.329 31.738 87.4033C29.5978 87.8909 27.4645 86.55 26.9769 84.409C26.487 82.2681 27.8226 80.1348 29.9681 79.6471C54.2729 74.0921 75.1209 76.4852 91.9392 86.7633C93.8134 87.9138 94.4077 90.3595 93.2573 92.2338ZM101.067 74.8586C99.6268 77.2014 96.5639 77.9405 94.2249 76.5005C77.0744 65.9565 50.9312 62.9035 30.6454 69.0612C28.0146 69.8559 25.2359 68.3732 24.4374 65.7469C23.6451 63.1161 25.1285 60.3428 27.7548 59.5427C50.9266 52.5119 79.7334 55.9176 99.4287 68.0205C101.768 69.4605 102.507 72.5233 101.067 74.8593V74.8586ZM101.737 56.7679C81.1734 44.5538 47.2458 43.4307 27.6123 49.3896C24.4595 50.3458 21.1254 48.566 20.17 45.4132C19.2146 42.2589 20.9929 38.9271 24.1479 37.9687C46.6858 31.1267 84.1525 32.4487 107.828 46.5035C110.67 48.1866 111.599 51.849 109.916 54.681C108.239 57.5168 104.567 58.4517 101.74 56.7679H101.737Z" fill="#1ED760"/>
</svg>
