<svg width="128" height="128" viewBox="0 0 128 128" fill="none" xmlns="http://www.w3.org/2000/svg">
<rect x="24" y="24" width="80" height="80" fill="url(#paint0_linear_2800_1969)"/>
<path d="M57.7457 0.23114C45.1871 1.60709 33.3789 6.46043 23.8474 14.1407C20.6202 16.7425 15.3415 22.1712 13.0149 25.2734C6.38539 34.1295 2.15748 44.2364 0.556378 55.1189C0.00599911 58.7964 -0.169121 65.8263 0.18112 69.5038C1.23184 80.3362 4.68422 90.3431 10.3131 98.874C20.6702 114.61 36.5061 124.692 55.1189 127.444C58.7964 127.994 65.8263 128.169 69.5038 127.819C80.3362 126.768 90.3431 123.316 98.874 117.687C114.61 107.33 124.692 91.4939 127.444 72.8811C127.994 69.2036 128.169 62.1737 127.819 58.4962C126.543 45.3872 121.865 33.7792 113.859 23.8474C111.257 20.6202 105.829 15.3415 102.727 13.0149C93.8705 6.38538 83.8386 2.2075 72.8811 0.556366C69.854 0.106056 60.6977 -0.0940857 57.7457 0.23114ZM80.4863 58.9715C89.1673 74.157 96.2722 86.6155 96.2722 86.6656C96.2722 86.7156 82.0374 86.7657 64.6254 86.7657C47.2135 86.7657 32.9787 86.7156 32.9787 86.6406C32.9787 86.4404 64.5754 31.2024 64.6504 31.3025C64.6755 31.3275 71.8304 43.7861 80.4863 58.9715Z" fill="url(#paint1_linear_2800_1969)"/>
<defs>
<linearGradient id="paint0_linear_2800_1969" x1="64" y1="24" x2="64" y2="104" gradientUnits="userSpaceOnUse">
<stop stop-color="white"/>
<stop offset="1" stop-color="#EEEEEE"/>
</linearGradient>
<linearGradient id="paint1_linear_2800_1969" x1="64" y1="128" x2="64" y2="0.0707932" gradientUnits="userSpaceOnUse">
<stop/>
<stop offset="1" stop-color="#484848"/>
</linearGradient>
</defs>
</svg>
