<svg width="128" height="128" viewBox="0 0 128 128" fill="none" xmlns="http://www.w3.org/2000/svg">
<path d="M19.2475 0H108.753C119.383 0 128 8.61737 128 19.2475V108.753C128 119.383 119.383 128 108.753 128H19.2475C8.61739 128 0 119.383 0 108.753V19.2475C0 8.61737 8.61739 0 19.2475 0Z" fill="#0037C1"/>
<path opacity="0.300429" fill-rule="evenodd" clip-rule="evenodd" d="M94.1822 5.47168H33.8175C17.8388 5.47168 4.9751 18.441 4.9751 34.5508V93.4483C5.4923 106.023 7.4818 98.0737 11.2687 84.1476C15.6699 67.9627 30.0032 53.8169 47.4586 43.2154C60.7818 35.1237 75.6945 29.9566 102.84 29.465C118.234 29.1863 116.875 9.48367 94.1822 5.47168Z" fill="url(#paint0_linear_183_860)"/>
<path d="M100.335 29.1598C100.335 38.6805 92.9914 46.3987 83.9328 46.3987C74.8742 46.3987 67.5308 38.6805 67.5308 29.1598C67.5308 19.639 74.8742 11.9209 83.9328 11.9209C92.9914 11.9209 100.335 19.639 100.335 29.1598Z" fill="white"/>
<path d="M60.9348 110.81H105.569L105.301 65.1072C99.7228 44.4107 69.6257 41.8833 60.6675 64.8399L60.9348 110.81Z" fill="white"/>
<path d="M64.5623 29.7494C64.5623 36.6752 59.4003 42.2897 53.0326 42.2897C46.665 42.2897 41.5029 36.6752 41.5029 29.7494C41.5029 22.8235 46.665 17.209 53.0326 17.209C59.4003 17.209 64.5623 22.8235 64.5623 29.7494Z" fill="white"/>
<path d="M37.2253 90.4763H68.983L68.7929 56.8243C64.8235 41.5851 43.4091 39.7242 37.0352 56.6275L37.2253 90.4763Z" fill="white"/>
<path d="M39.618 28.5775C39.618 34.2478 35.6631 38.8445 30.7846 38.8445C25.906 38.8445 21.9512 34.2478 21.9512 28.5775C21.9512 22.9072 25.906 18.3105 30.7846 18.3105C35.6631 18.3105 39.618 22.9072 39.618 28.5775Z" fill="white"/>
<path d="M20.311 72.4562H41.0121L40.8881 49.0152C38.3007 38.4 24.3418 37.1037 20.187 48.8781L20.311 72.4562Z" fill="white"/>
<defs>
<linearGradient id="paint0_linear_183_860" x1="16.2341" y1="-12.8175" x2="32.8178" y2="35.5222" gradientUnits="userSpaceOnUse">
<stop stop-color="white"/>
<stop offset="1" stop-color="white" stop-opacity="0"/>
</linearGradient>
</defs>
</svg>
