<svg width="128" height="128" viewBox="0 0 128 128" fill="none" xmlns="http://www.w3.org/2000/svg">
<rect width="128" height="128" rx="24" fill="url(#paint0_linear_183_452)"/>
<path d="M38.1808 54.2682C38.1808 55.7319 38.3391 56.9187 38.616 57.789C38.9325 58.6594 39.3281 59.6088 39.8819 60.6374C40.0797 60.9539 40.1588 61.2704 40.1588 61.5473C40.1588 61.9429 39.9215 62.3385 39.4072 62.7341L36.9149 64.3956C36.5588 64.633 36.2028 64.7517 35.8863 64.7517C35.4907 64.7517 35.0951 64.5539 34.6995 64.1978C34.1456 63.6044 33.6709 62.9715 33.2753 62.3385C32.8797 61.666 32.4841 60.9143 32.0489 60.0044C28.9632 63.644 25.0863 65.4638 20.4182 65.4638C17.0951 65.4638 14.4445 64.5143 12.5061 62.6154C10.5676 60.7165 9.57861 58.1846 9.57861 55.0198C9.57861 51.6572 10.7654 48.9275 13.1786 46.8703C15.5918 44.8132 18.7962 43.7846 22.8709 43.7846C24.216 43.7846 25.6006 43.9033 27.0643 44.1011C28.5281 44.2989 30.0314 44.6154 31.6138 44.9714V42.0835C31.6138 39.0769 30.9808 36.9802 29.7544 35.7539C28.4885 34.5275 26.3522 33.9341 23.3061 33.9341C21.9215 33.9341 20.4973 34.0923 19.0336 34.4484C17.5698 34.8044 16.1456 35.2396 14.761 35.7934C14.1281 36.0703 13.6533 36.2286 13.3764 36.3077C13.0995 36.3868 12.9017 36.4264 12.7434 36.4264C12.1896 36.4264 11.9127 36.0308 11.9127 35.2V33.2616C11.9127 32.6286 11.9918 32.1539 12.1896 31.8769C12.3874 31.6 12.7434 31.3231 13.2973 31.0462C14.6819 30.3341 16.3434 29.7407 18.2819 29.2659C20.2204 28.7517 22.2775 28.5143 24.4533 28.5143C29.161 28.5143 32.6028 29.5824 34.8182 31.7187C36.994 33.855 38.1017 37.0989 38.1017 41.4506V54.2682H38.1808ZM22.1193 60.2813C23.4248 60.2813 24.7698 60.044 26.194 59.5693C27.6182 59.0945 28.8841 58.2242 29.9522 57.0374C30.5852 56.2857 31.0599 55.455 31.2973 54.5055C31.5347 53.5561 31.6929 52.4088 31.6929 51.0638V49.4022C30.5456 49.1253 29.3193 48.8879 28.0533 48.7297C26.7874 48.5714 25.561 48.4923 24.3347 48.4923C21.6841 48.4923 19.7456 49.0066 18.4402 50.0747C17.1347 51.1429 16.5017 52.6462 16.5017 54.6242C16.5017 56.4835 16.9764 57.8682 17.9654 58.8176C18.9149 59.8066 20.2995 60.2813 22.1193 60.2813ZM53.8863 64.5539C53.1742 64.5539 52.6995 64.4352 52.383 64.1583C52.0665 63.9209 51.7896 63.3671 51.5522 62.6154L42.2555 32.0352C42.0182 31.244 41.8995 30.7297 41.8995 30.4528C41.8995 29.8198 42.216 29.4638 42.8489 29.4638H46.7259C47.4775 29.4638 47.9918 29.5824 48.2687 29.8594C48.5852 30.0967 48.8226 30.6506 49.0599 31.4022L55.7061 57.5912L61.8775 31.4022C62.0753 30.611 62.3127 30.0967 62.6292 29.8594C62.9456 29.622 63.4995 29.4638 64.2116 29.4638H67.3764C68.1281 29.4638 68.6423 29.5824 68.9588 29.8594C69.2753 30.0967 69.5522 30.6506 69.7105 31.4022L75.961 57.9077L82.805 31.4022C83.0424 30.611 83.3193 30.0967 83.5962 29.8594C83.9127 29.622 84.427 29.4638 85.1391 29.4638H88.8182C89.4511 29.4638 89.8072 29.7802 89.8072 30.4528C89.8072 30.6506 89.7676 30.8484 89.7281 31.0857C89.6885 31.3231 89.6094 31.6396 89.4511 32.0747L79.9171 62.655C79.6797 63.4462 79.4028 63.9605 79.0863 64.1978C78.7698 64.4352 78.2555 64.5934 77.583 64.5934H74.1808C73.4292 64.5934 72.9149 64.4747 72.5984 64.1978C72.2819 63.9209 72.005 63.4066 71.8467 62.6154L65.7149 37.0989L59.6226 62.5758C59.4248 63.3671 59.1874 63.8813 58.8709 64.1583C58.5544 64.4352 58.0006 64.5539 57.2885 64.5539H53.8863ZM104.721 65.622C102.664 65.622 100.607 65.3846 98.6292 64.9099C96.6511 64.4352 95.1083 63.9209 94.0797 63.3275C93.4467 62.9715 93.0116 62.5758 92.8533 62.2198C92.6951 61.8638 92.616 61.4682 92.616 61.1121V59.0945C92.616 58.2638 92.9325 57.8682 93.5259 57.8682C93.7632 57.8682 94.0006 57.9077 94.238 57.9868C94.4753 58.066 94.8314 58.2242 95.227 58.3824C96.572 58.9758 98.0358 59.4506 99.5786 59.7671C101.161 60.0835 102.704 60.2418 104.286 60.2418C106.779 60.2418 108.717 59.8066 110.062 58.9363C111.407 58.066 112.119 56.8 112.119 55.178C112.119 54.0703 111.763 53.1605 111.051 52.4088C110.339 51.6572 108.994 50.9846 107.056 50.3517L101.319 48.5714C98.4314 47.6616 96.2951 46.3165 94.9896 44.5363C93.6841 42.7956 93.0116 40.8572 93.0116 38.8C93.0116 37.1385 93.3676 35.6747 94.0797 34.4088C94.7918 33.1429 95.7412 32.0352 96.9281 31.1649C98.1149 30.255 99.4599 29.5824 101.042 29.1077C102.625 28.633 104.286 28.4352 106.027 28.4352C106.897 28.4352 107.807 28.4747 108.678 28.5934C109.587 28.7121 110.418 28.8703 111.249 29.0286C112.04 29.2264 112.792 29.4242 113.504 29.6616C114.216 29.8989 114.77 30.1363 115.165 30.3736C115.719 30.6901 116.115 31.0066 116.352 31.3627C116.59 31.6791 116.708 32.1143 116.708 32.6681V34.5275C116.708 35.3583 116.392 35.7934 115.798 35.7934C115.482 35.7934 114.968 35.6352 114.295 35.3187C112.04 34.2901 109.508 33.7758 106.699 33.7758C104.445 33.7758 102.664 34.1319 101.438 34.8835C100.212 35.6352 99.5786 36.7824 99.5786 38.4044C99.5786 39.5121 99.9742 40.4616 100.765 41.2132C101.557 41.9649 103.02 42.7165 105.117 43.389L110.735 45.1692C113.583 46.0791 115.64 47.3451 116.867 48.9671C118.093 50.589 118.686 52.4484 118.686 54.5055C118.686 56.2066 118.33 57.7495 117.658 59.0945C116.946 60.4396 115.996 61.6264 114.77 62.5758C113.543 63.5649 112.08 64.2769 110.379 64.7912C108.598 65.3451 106.739 65.622 104.721 65.622Z" fill="#252F3E"/>
<path fill-rule="evenodd" clip-rule="evenodd" d="M112.198 84.8484C99.1827 94.4616 80.2728 99.5649 64.0135 99.5649C41.2267 99.5649 20.6948 91.1385 5.18711 77.1341C3.96073 76.0264 5.06843 74.5231 6.53216 75.3935C23.3058 85.1253 43.9959 91.0198 65.3981 91.0198C79.8377 91.0198 95.7014 88.0133 110.299 81.8418C112.475 80.8528 114.334 83.266 112.198 84.8484Z" fill="#FF9900"/>
<path fill-rule="evenodd" clip-rule="evenodd" d="M117.618 78.677C115.957 76.5407 106.62 77.6484 102.387 78.1627C101.121 78.3209 100.924 77.2133 102.071 76.3825C109.508 71.1605 121.732 72.6638 123.157 74.4045C124.581 76.1847 122.761 88.4089 115.798 94.2638C114.73 95.1737 113.702 94.699 114.176 93.5122C115.759 89.5957 119.28 80.7737 117.618 78.677Z" fill="#FF9900"/>
<defs>
<linearGradient id="paint0_linear_183_452" x1="64" y1="0" x2="64" y2="128" gradientUnits="userSpaceOnUse">
<stop stop-color="white"/>
<stop offset="1" stop-color="#EEEEEE"/>
</linearGradient>
</defs>
</svg>
