<svg width="128" height="128" viewBox="0 0 128 128" fill="none" xmlns="http://www.w3.org/2000/svg">
<mask id="mask0_264_2482" style="mask-type:alpha" maskUnits="userSpaceOnUse" x="62" y="11" width="66" height="80">
<path d="M62.7922 11H128V90.6595H62.7922V11Z" fill="white"/>
</mask>
<g mask="url(#mask0_264_2482)">
<path d="M96.6325 11L69.0569 86.7615C68.716 87.6943 68.1192 88.5123 67.335 89.1218C66.5509 89.7313 65.6109 90.1077 64.6228 90.2078V90.2441H93.773C96.0553 90.2441 98.0091 88.7926 98.736 86.7639L126.321 11H96.6325Z" fill="#0996C7"/>
</g>
<path d="M62.2447 89.0944C63.9352 89.0944 65.4157 88.2539 66.3214 86.9812C66.4156 86.8483 66.7464 86.3846 66.9807 85.7543L77.0951 57.9517L71.1781 41.715C70.8335 40.8928 70.2752 40.1778 69.5612 39.6439C68.8472 39.11 68.0035 38.7768 67.1173 38.6788C66.2312 38.5807 65.335 38.7214 64.5216 39.0863C63.7082 39.4511 63.0071 40.0269 62.491 40.7538C62.3944 40.8867 62.0008 41.4784 61.8317 41.9807L51.7173 69.7736L57.6608 86.0755C58.0464 86.9715 58.686 87.7349 59.5006 88.2714C60.3153 88.8079 61.2692 89.094 62.2447 89.0944Z" fill="#0996C7"/>
<mask id="mask1_264_2482" style="mask-type:alpha" maskUnits="userSpaceOnUse" x="0" y="35" width="66" height="82">
<path d="M0 35.1123H65.2076V116.735H0V35.1123Z" fill="white"/>
</mask>
<g mask="url(#mask1_264_2482)">
<path d="M64.4063 37.4883H34.9349C32.6527 37.4883 30.6989 38.9325 29.9623 40.9708L2.38672 116.732H32.0755L59.6534 40.9733C60.0112 39.9876 60.6543 39.1308 61.5007 38.5119C62.3471 37.893 63.3586 37.54 64.4063 37.4979V37.4883Z" fill="#0996C7"/>
</g>
</svg>
