<svg width="128" height="128" viewBox="0 0 128 128" fill="none" xmlns="http://www.w3.org/2000/svg">
<mask id="mask0_264_2058" style="mask-type:alpha" maskUnits="userSpaceOnUse" x="0" y="0" width="128" height="128">
<path d="M0 24C0 10.7452 10.7452 0 24 0H104C117.255 0 128 10.7452 128 24V104C128 117.255 117.255 128 104 128H24C10.7452 128 0 117.255 0 104V24Z" fill="url(#paint0_linear_264_2058)"/>
<path d="M59.6934 30.0156V94H44.2686V30.0156H59.6934ZM84.5664 56.6465V68.5117H55.2988V56.6465H84.5664ZM87.0713 30.0156V41.9248H55.2988V30.0156H87.0713Z" fill="white"/>
</mask>
<g mask="url(#mask0_264_2058)">
<path d="M0 0H128V128.009H0V0Z" fill="#014F9D"/>
<path fill-rule="evenodd" clip-rule="evenodd" d="M30.5668 32.5586L26.1619 33.5869C26.3573 34.2687 26.4886 35.7993 26.4886 37.3461V56.3746H30.8577V44.5789C31.8185 43.7059 33.194 43.0673 34.2585 43.0673C35.4864 43.0673 35.9326 43.6779 35.9326 45.3164V56.3748H40.1427V44.8697C40.1427 43.287 40.0514 42.7403 39.7285 41.8114C39.2102 40.3642 37.54 39.4639 35.4512 39.4639C33.7767 39.4639 31.9146 40.1776 30.7902 41.238C30.7902 41.0427 30.8577 40.3642 30.8577 39.8539V36.573C30.8577 34.9983 30.7583 33.4598 30.5669 32.5589L30.5668 32.5586ZM8.14337 34.0352V37.7661H13.6009V56.3717H18.1692V37.7661H23.5034L24.2409 34.0352H8.14315H8.14337ZM50.2272 39.5584C48.0385 39.5584 46.3997 40.2685 45.0522 41.7834C43.601 43.39 42.9955 45.3473 42.9955 48.3136C42.9955 53.4762 46.0448 56.8209 50.7732 56.8209C53.0815 56.8209 55.0749 56.0839 56.9765 54.545L55.3024 51.9692C53.9828 53.0656 52.5991 53.6075 51.124 53.6075C48.9074 53.6075 47.6599 52.1645 47.6599 49.625V49.4933H57.1681V48.4967C57.1681 45.0562 56.4943 42.8438 54.9873 41.301C53.9189 40.2086 52.117 39.5584 50.2274 39.5584H50.2272ZM50.2905 42.7126C51.1556 42.7126 51.7661 43.0391 52.1847 43.6809C52.5674 44.2869 52.6989 44.9327 52.6989 46.1526V46.3443H47.7154V46.2843C47.7154 44.0039 48.6519 42.7126 50.2905 42.7126L50.2905 42.7126ZM82.0729 62.1302L77.6714 63.1594C77.8628 63.8411 77.9906 65.3759 77.9906 66.9227V85.9469H82.3639V74.1543C83.3207 73.2812 84.7045 72.6393 85.769 72.6393C86.9929 72.6393 87.439 73.2537 87.439 74.8843V85.9469H91.6448V74.4376C91.6448 72.8628 91.5496 72.3201 91.2306 71.3792C90.7163 69.94 89.0455 69.035 86.9563 69.035C85.2819 69.035 83.4245 69.7446 82.2962 70.805C82.2962 70.6176 82.3637 69.9399 82.3637 69.4217V66.145C82.3637 64.5702 82.2603 63.035 82.0729 62.13L82.0729 62.1302ZM7.98227 63.6069L13.3207 86.1362H18.4275L20.2892 76.9829C20.9709 73.7018 21.3575 70.5564 21.3575 70.5564C21.4133 71.1624 21.7402 74.0522 22.41 77.0422L24.4075 86.1362H29.3231L34.7204 63.6069H29.9964L28.1592 72.089C27.7087 74.2777 27.0031 78.8103 26.9433 79.5198C26.9433 79.5198 26.3971 75.693 25.9825 73.6041L23.9166 63.6047H18.9976L17.0084 72.639C16.3347 75.7207 15.9476 78.9063 15.8559 79.7716C15.8559 79.7716 15.5653 76.5936 14.6643 72.4116L12.7384 63.6047H7.97852L7.98227 63.6069ZM72.2127 64.5119L67.8393 65.6035C67.6799 66.8195 67.6802 67.8884 67.6802 69.491H66.0419V72.441H67.6802V81.3793C67.6802 82.8823 67.7117 83.2048 67.9668 83.9185C68.4811 85.3696 70.2196 86.3301 72.4042 86.3301C73.5284 86.3301 74.6484 86.1034 75.9042 85.5851L75.3583 83.0218C74.5889 83.2411 74.2017 83.3401 73.815 83.3401C72.3359 83.3401 71.9533 82.7942 71.9533 80.7051V72.441H74.7167L75.8125 69.491H71.9534C71.9534 67.8166 72.0491 66.0148 72.2125 64.5118L72.2127 64.5119ZM114.253 69.1028L110.398 70.1395C110.753 71.0684 111.008 72.7427 111.008 74.9553V85.9505H115.322V74.314C116.115 73.3811 116.988 72.9348 117.957 72.9348C118.435 72.9348 118.783 73.0299 119.209 73.2532L120.392 69.4582C119.719 69.1671 119.428 69.1032 118.782 69.1032C118.304 69.1032 117.73 69.2069 117.375 69.3623C116.566 69.7211 115.545 70.6183 114.931 71.4515C114.863 70.5266 114.64 69.7809 114.253 69.1032L114.253 69.1028ZM58.1382 69.1378C56.6273 69.1378 55.2442 69.4244 53.6416 70.1061C52.4775 70.5805 51.843 70.8993 50.9699 71.4494L52.8041 74.5436C54.5702 73.3516 56.1805 72.6694 57.5597 72.6694C59.1344 72.6694 59.4814 73.2835 59.4814 75.1095V75.787C59.1345 75.7591 58.8435 75.7595 58.5205 75.7595C53.2862 75.7595 50.6186 77.5537 50.6186 81.4128C50.6186 84.6899 52.6086 86.5554 56.2805 86.5554C57.624 86.5554 58.78 86.2329 59.5813 85.6588C59.9043 85.4315 60.2551 85.1004 60.578 84.7854C60.9966 85.6266 61.8972 86.3602 62.8938 86.7788L65.1746 84.1438C63.9188 83.2069 63.6355 82.5367 63.6355 80.7746V80.4879L63.7271 74.9536C63.7591 73.1795 63.6639 72.6699 63.4446 71.9961C62.7988 70.1662 60.8968 69.1378 58.1378 69.1378L58.1382 69.1378ZM41.7214 69.1395C39.5367 69.1395 37.9018 69.8446 36.5463 71.3595C35.1031 72.9661 34.493 74.9199 34.493 77.8819C34.493 83.0527 37.5469 86.3978 42.2673 86.3978C44.5835 86.3978 46.577 85.66 48.4749 84.1211L46.7999 81.542C45.4803 82.6343 44.1054 83.1803 42.6224 83.1803C40.4097 83.1803 39.154 81.7375 39.154 79.202V79.062H48.67V78.0736C48.67 74.6411 47.9964 72.4165 46.4775 70.8694C45.421 69.781 43.6193 69.1394 41.7218 69.1394L41.7214 69.1395ZM101.088 69.1395C98.9031 69.1395 97.2642 69.8446 95.9127 71.3595C94.4695 72.9661 93.8594 74.9199 93.8594 77.8819C93.8594 83.0527 96.9133 86.3978 101.634 86.3978C103.95 86.3978 105.943 85.66 107.837 84.1211L106.166 81.542C104.847 82.6343 103.464 83.1803 101.984 83.1803C99.7679 83.1803 98.5162 81.7375 98.5162 79.202V79.062H108.029V78.0736C108.029 74.6411 107.355 72.4165 105.848 70.8694C104.783 69.781 102.986 69.1394 101.088 69.1394L101.088 69.1395ZM41.7896 72.2845C42.6587 72.2845 43.2647 72.6078 43.6913 73.2537C44.074 73.8636 44.2013 74.5054 44.2013 75.7254V75.9162H39.2221V75.857C39.2221 73.5767 40.147 72.2845 41.7896 72.2845L41.7896 72.2845ZM101.152 72.2845C102.017 72.2845 102.631 72.6078 103.049 73.2537C103.432 73.8636 103.564 74.5054 103.564 75.7254V75.9162H98.5799V75.857C98.5799 73.5767 99.5131 72.2845 101.152 72.2845L101.152 72.2845ZM59.2343 78.7455H59.4252L59.3577 82.2813C58.7158 82.983 57.9148 83.4063 57.1135 83.4063C56.0171 83.4063 55.2076 82.5367 55.2076 81.253C55.2076 79.2955 56.2403 78.7455 59.2343 78.7455L59.2343 78.7455ZM31.5394 92.2022L27.1294 93.2305C27.3207 93.9082 27.4527 95.4479 27.4527 96.9947V116.019H31.8218V104.226C32.7826 103.353 34.1705 102.715 35.2309 102.715C36.4508 102.715 36.8967 103.325 36.8967 104.96V116.019H41.1109V104.517C41.1109 102.934 41.0153 102.397 40.6884 101.46C40.1702 100.013 38.5073 99.1113 36.4141 99.1113C34.7437 99.1113 32.8785 99.8211 31.7583 100.886C31.7583 100.69 31.8216 100.012 31.8216 99.498V96.2288C31.8216 94.6461 31.7225 93.1071 31.5391 92.2022H31.5394ZM115.183 92.2363L110.782 93.2338C110.942 94.7169 111.002 96.0358 111.002 98.1849V110.464C111.002 112.808 111.066 113.322 111.392 114.151C111.911 115.539 113.381 116.404 115.219 116.404C116.148 116.404 117.046 116.244 117.783 115.957L117.046 113.386C116.823 113.446 116.73 113.446 116.567 113.446C116.216 113.446 115.858 113.283 115.694 113C115.443 112.549 115.411 112.162 115.411 109.336V96.5103C115.411 94.206 115.343 93.1372 115.183 92.236L115.183 92.2363ZM18.8802 93.2013C15.2802 93.2013 12.0672 95.1311 10.3251 98.3764C9.30451 100.302 8.81845 102.523 8.81845 105.317C8.81845 108.598 9.71897 111.298 11.521 113.319C13.3508 115.412 15.7311 116.401 18.817 116.401C21.3604 116.401 23.25 115.759 25.0203 114.316L22.9628 111.492C21.6471 112.549 20.451 112.932 19.1394 112.932C17.2059 112.932 15.7313 112.067 14.8301 110.424C14.1524 109.204 13.9009 107.498 13.9009 104.448C13.9009 101.849 14.2875 99.9792 15.1526 98.6958C15.9539 97.5038 17.4294 96.77 18.9443 96.77C20.1961 96.77 21.3844 97.1884 22.5126 98.0216L24.5333 94.9752C23.3094 93.9148 21.0924 93.2053 18.8757 93.2053L18.8802 93.2013ZM64.2647 99.1448L60.4455 100.236C60.8283 101.333 61.0114 102.68 61.0114 104.096V116.02H65.3216V104.387C66.3262 103.494 67.4465 102.908 68.3116 102.908C69.4358 102.908 69.7582 103.454 69.7582 105.315V116.02H74.0041V104C74.0041 102.972 73.9047 102.266 73.6774 101.656C73.1671 100.237 71.5605 99.2763 69.7266 99.2763C68.7618 99.2763 67.6375 99.5314 66.7724 99.9779C66.0628 100.369 65.5169 100.759 64.8791 101.201C64.8791 100.527 64.6516 99.8183 64.2649 99.1446L64.2647 99.1448ZM81.0447 99.1448L77.2138 100.236C77.5966 101.333 77.7872 102.68 77.7872 104.096V116.02H82.0974V104.387C83.0901 103.494 84.2181 102.908 85.0832 102.908C86.2075 102.908 86.5307 103.454 86.5307 105.315V116.02H90.7724V104C90.7724 102.972 90.6842 102.266 90.449 101.656C89.9387 100.237 88.3288 99.2763 86.4949 99.2763C85.542 99.2763 84.4138 99.5314 83.5407 99.9779C82.8391 100.369 82.2884 100.759 81.6466 101.201C81.6466 100.527 81.4236 99.8183 81.0449 99.1446L81.0447 99.1448ZM51.5496 99.209C50.0347 99.209 48.6554 99.4956 47.0487 100.177C45.8926 100.656 45.2468 100.971 44.3737 101.521L46.2121 104.611C47.9742 103.419 49.5804 102.741 50.9639 102.741C52.5426 102.741 52.8972 103.351 52.8972 105.189V105.859C52.5424 105.827 52.2519 105.826 51.933 105.826C46.6944 105.826 44.023 107.629 44.023 111.488C44.023 114.761 46.0167 116.627 49.6806 116.627C51.0321 116.627 52.1878 116.312 52.9931 115.73C53.3121 115.503 53.6669 115.183 53.9898 114.857C54.4044 115.694 55.3056 116.436 56.3023 116.854L58.5864 114.215C57.3306 113.282 57.0439 112.613 57.0439 110.842V110.555L57.1356 105.021C57.1755 103.263 57.072 102.741 56.8448 102.071C56.2069 100.234 54.3046 99.2089 51.5498 99.2089L51.5496 99.209ZM100.987 99.2115C98.8028 99.2115 97.164 99.9126 95.8125 101.432C94.3693 103.034 93.7591 104.996 93.7591 107.958C93.7591 113.125 96.8091 116.47 101.533 116.47C103.85 116.47 105.839 115.732 107.737 114.189L106.063 111.614C104.747 112.706 103.367 113.256 101.888 113.256C99.6718 113.256 98.4159 111.805 98.4159 109.274V109.142H107.928V108.146C107.928 104.713 107.254 102.492 105.743 100.953C104.687 99.8569 102.881 99.2116 100.988 99.2116L100.987 99.2115ZM101.048 102.357C101.921 102.357 102.53 102.684 102.948 103.326C103.335 103.936 103.459 104.582 103.459 105.802V105.992H98.48V105.933C98.48 103.649 99.4129 102.357 101.048 102.357ZM52.6379 108.813H52.8371L52.7696 112.349C52.1277 113.063 51.3257 113.477 50.5204 113.477C49.4241 113.477 48.6312 112.613 48.6312 111.325C48.6312 109.371 49.6519 108.813 52.6379 108.813H52.6379Z" fill="white"/>
</g>
<defs>
<linearGradient id="paint0_linear_264_2058" x1="64" y1="0" x2="64" y2="128" gradientUnits="userSpaceOnUse">
<stop stop-color="#1D63F0"/>
<stop offset="1" stop-color="#1AD5FD"/>
</linearGradient>
</defs>
</svg>
