<svg width="128" height="128" viewBox="0 0 128 128" fill="none" xmlns="http://www.w3.org/2000/svg">
<rect width="128" height="128" rx="24" fill="url(#paint0_linear_264_1562)"/>
<path d="M87.4989 60.3507C88.3265 72.8051 88.3265 76.1266 88.3265 87.3362C88.3265 94.3921 88.3265 110.998 88.3265 110.998H72.9634V18H88.3265C88.3265 18 95.3846 45.4025 97.0443 51.2158C98.7084 57.027 99.9488 61.5933 100.366 65.7448C99.951 56.6121 99.951 45.4025 99.951 36.2676C99.951 29.2117 99.951 18 99.951 18H114.899V110.998H101.2C101.2 110.998 92.8951 82.3505 91.2354 76.5394C89.9841 71.973 88.7415 66.9917 87.4989 60.3507Z" fill="#143017"/>
<path d="M58.0083 84.4295C58.0083 103.946 49.2883 111 34.7594 111H14V18H34.7594C50.9502 18 55.1016 27.5498 55.1016 43.3279C55.1016 54.9524 50.9502 61.1806 43.8943 61.5955C51.78 61.5955 58.0083 69.4835 58.0083 84.4295ZM30.1908 66.9917V99.7927H34.3422C39.3257 99.7927 40.5705 96.8816 40.5705 82.7698C40.5705 72.3901 39.3257 66.9917 33.9273 66.9917H30.1908ZM30.1908 28.7968V55.7822H34.3422C38.4937 55.7822 39.3257 51.6308 39.3257 43.7406C39.3257 32.946 38.4959 28.7968 33.0975 28.7968H30.1908Z" fill="#143018"/>
<path d="M92.0556 74.6838C87.4093 74.6838 84.2155 77.5874 82.1826 81.9435C80.1496 86.298 77.8265 91.8149 76.3739 94.7185C71.439 86.0094 67.6633 79.3301 65.3386 73.2328C69.1128 70.9097 75.792 67.7144 79.8579 64.2304C83.6336 60.7449 85.3748 57.261 86.247 53.4853C87.4093 46.2256 83.3419 39.8381 74.0523 39.8381C66.2123 39.8381 56.9181 45.9354 55.18 56.0986C54.3109 61.0351 55.4671 67.7129 57.5016 73.2313C50.5337 77.8761 44.4364 83.1028 42.6952 91.2345C40.6607 104.882 49.0842 110.976 58.6655 110.976C65.0561 110.976 69.9895 108.074 74.0554 103.719C76.9559 106.913 80.7346 110.976 85.3809 110.976C89.1566 110.976 93.2194 108.653 96.4147 104.59L94.9637 102.559C92.0617 105.459 90.0287 106.621 88.2845 106.621C85.0907 106.621 82.1887 103.719 79.2821 99.655C78.9949 98.7783 78.7032 98.1964 78.4115 97.6159C80.1557 94.135 81.3135 90.3594 83.0562 86.8739C85.9613 80.4848 87.7041 78.1617 90.3205 78.1617C94.9637 78.1617 91.188 85.7115 96.1276 85.7115C98.4507 85.7115 99.61 83.9703 99.9002 81.9374C100.186 79.3301 98.4446 74.6838 92.0556 74.6838ZM63.017 54.3574C63.5974 49.7111 67.6633 44.7746 73.7606 44.7746C78.4054 44.7746 81.6007 48.2601 80.4368 53.777C80.1496 55.81 79.5692 57.8429 77.5378 60.4563C75.2147 63.0681 67.6633 67.7144 64.1793 69.7473C62.4335 64.5206 61.8547 59.5841 63.017 54.3574ZM61.2773 106.626C52.2749 106.626 49.0827 99.0807 49.9502 93.2675C51.1126 86.0094 54.5965 81.6533 58.9496 77.5874C62.1464 85.429 66.2123 93.2675 72.0194 101.401C68.8241 105.172 65.9236 106.626 61.2773 106.626Z" fill="#D15400"/>
<path d="M59.6134 50.7573C59.6134 50.7573 53.919 59.707 62.0541 77.3338C68.5631 91.9779 76.4272 100.116 76.4272 100.116C76.4272 100.116 68.5602 89.2691 63.1382 76.2526C56.6278 60.249 59.6134 50.7573 59.6134 50.7573Z" fill="white"/>
<defs>
<linearGradient id="paint0_linear_264_1562" x1="64" y1="0" x2="64" y2="128" gradientUnits="userSpaceOnUse">
<stop stop-color="white"/>
<stop offset="1" stop-color="#EEEEEE"/>
</linearGradient>
</defs>
</svg>
