<svg width="128" height="128" viewBox="0 0 128 128" fill="none" xmlns="http://www.w3.org/2000/svg">
<path d="M64 128C99.3462 128 128 99.3462 128 64C128 28.6538 99.3462 0 64 0C28.6538 0 0 28.6538 0 64C0 99.3462 28.6538 128 64 128Z" fill="#DC4E41"/>
<path d="M22.2821 64.583C22.055 75.5946 29.6395 86.103 40.0727 89.5302C49.9 92.8318 61.9829 90.3619 68.5223 81.9458C73.2968 76.0486 74.3818 68.187 73.865 60.8421C65.4488 60.7668 57.0327 60.7919 48.6291 60.8045C48.6154 63.8026 48.6291 66.7894 48.6417 69.7876C53.6808 69.9268 58.7212 69.8629 63.7603 69.9644C62.4883 74.3237 59.5905 78.3806 55.1925 79.9549C46.7011 83.697 35.8663 78.8084 33.1944 69.9005C29.9692 61.3703 35.2491 51.0763 43.9664 48.595C49.3718 46.6932 54.9403 48.8345 59.5654 51.6445C61.9087 49.4518 64.1015 47.1084 66.2554 44.74C61.0006 40.3431 54.2478 37.6473 47.3057 38.2394C33.685 38.4014 21.7653 50.9759 22.2821 64.583ZM90.2443 53.2428C90.2192 55.7504 90.1929 58.2706 90.1804 60.7771C87.6602 60.8022 85.1538 60.8147 82.6462 60.8273V68.3364C85.1538 68.349 87.6739 68.3615 90.1804 68.3878C90.2055 70.8954 90.2055 73.4018 90.2306 75.922C92.7257 75.922 95.2333 75.9095 97.7397 75.922C97.7534 73.4018 97.7648 70.8954 97.7911 68.3752L105.325 68.3376V60.8284C102.819 60.8159 100.299 60.8033 97.7911 60.7782C97.7774 58.2706 97.7534 55.7504 97.7397 53.244L90.2443 53.2428Z" fill="#DC4E41"/>
<path d="M22.2821 64.5832C21.7653 50.9761 33.6838 38.4015 47.3046 38.2384C54.2467 37.6463 61.0006 40.3421 66.2543 44.739C64.0992 47.1086 61.9064 49.4508 59.5643 51.6435C54.9392 48.8336 49.3707 46.6922 43.9653 48.594C35.2468 51.0765 29.9669 61.3705 33.1933 69.8996C35.8652 78.8074 46.6999 83.696 55.1913 79.954C59.5882 78.3796 62.4871 74.3227 63.7592 69.9635C58.72 69.8631 53.6797 69.9258 48.6405 69.7866C48.628 66.7884 48.6154 63.8017 48.628 60.8035C57.0316 60.7909 65.4477 60.7658 73.8638 60.8411C74.3806 68.1871 73.2968 76.0488 68.5212 81.9448C61.9817 90.3609 49.9 92.8309 40.0715 89.5292C29.6406 86.1032 22.055 75.5947 22.2821 64.5832ZM90.2443 53.243H97.7397C97.7534 55.7506 97.7774 58.2708 97.7911 60.7772C100.298 60.8023 102.818 60.8149 105.325 60.8274V68.3366L97.7911 68.3742C97.766 70.8944 97.7534 73.4009 97.7397 75.921C95.2333 75.9085 92.7245 75.921 90.2306 75.921C90.2066 73.4009 90.2066 70.8944 90.1804 68.3868C87.6739 68.3605 85.1538 68.3491 82.6462 68.3354V60.8263C85.1538 60.8137 87.6614 60.8012 90.1804 60.7761C90.1929 58.2708 90.218 55.7506 90.2443 53.243Z" fill="white"/>
</svg>
