<svg width="128" height="128" viewBox="0 0 128 128" fill="none" xmlns="http://www.w3.org/2000/svg">
<path d="M19.8443 39C14.4576 39 10.0309 40.2267 6.51087 42.7334C2.99084 45.1867 1.23082 48.4934 1.23082 52.5468C1.23082 56.7068 2.70284 59.9069 5.65753 62.0935C8.59089 64.3336 13.1243 66.3603 19.2043 68.2803C22.1377 69.3469 24.1644 70.307 25.2844 71.267C26.4577 72.1736 26.9911 73.507 26.9911 75.2137C26.9911 76.707 26.4577 77.9337 25.2844 78.8404C24.1644 79.8537 22.4044 80.2804 20.111 80.2804C17.071 80.2804 14.7776 79.6404 13.3376 78.467C11.7376 77.187 10.9909 75.267 10.9909 72.4936H0.0734789L0.00414493 72.707C-0.102523 77.8804 1.8495 81.8271 5.87087 84.6004C9.8709 87.3738 14.6176 88.7071 20.111 88.7071C25.551 88.7071 29.9244 87.5338 33.2311 85.1871C36.5378 82.7337 38.2445 79.3737 38.2445 75.1603C38.2445 70.947 36.8578 67.6936 34.0845 65.2936C31.2578 62.8936 27.1511 60.8669 21.6577 59.2669C18.0843 57.9335 15.6843 56.8668 14.3509 56.0135C13.0709 55.1601 12.4309 54.0401 12.4309 52.6535C12.4309 51.1601 13.0709 49.9334 14.3509 48.9734C15.631 47.8534 17.391 47.4267 19.6843 47.4267C21.9777 47.4267 23.791 48.0668 25.071 49.2401C26.4044 50.5201 27.0444 52.0135 27.0444 53.9335H37.9245L37.9778 53.7735C38.1378 49.4534 36.4312 45.8801 33.0178 43.1067C29.6044 40.3333 25.231 39 19.8443 39ZM45.3379 39.32V88.2805H56.8047V71.4803H63.7381C69.5515 71.4803 74.1382 70.0403 77.5515 67.0536C80.9649 64.1202 82.6716 60.2269 82.6716 55.4268C82.6716 50.5201 80.9649 46.7334 77.5515 43.7467C74.1382 40.76 69.5515 39.32 63.7381 39.32H45.3326M96.581 39.32L79.6209 88.3338H90.2343L107.621 39.32M116.955 39.32L99.9944 88.3338H110.608L128 39.32M56.7993 48.0668H63.7327C66.1861 48.0668 68.1061 48.7601 69.3328 50.1468C70.6661 51.5335 71.3061 53.1868 71.3061 55.4802C71.3061 57.6135 70.6661 59.3735 69.3328 60.7069C68.1061 62.0935 66.1861 62.7336 63.7327 62.7336H56.7993V48.0668Z" fill="url(#paint0_linear_2800_2758)"/>
<defs>
<linearGradient id="paint0_linear_2800_2758" x1="64" y1="39" x2="64" y2="88.7071" gradientUnits="userSpaceOnUse">
<stop stop-color="white"/>
<stop offset="1" stop-color="#EEEEEE"/>
</linearGradient>
</defs>
</svg>
