<svg width="128" height="128" viewBox="0 0 128 128" fill="none" xmlns="http://www.w3.org/2000/svg">
<rect width="128" height="128" rx="24" fill="url(#paint0_linear_183_960)"/>
<path d="M102.975 97.1938C59.2565 118 32.1244 100.592 14.7564 90.0189C13.6817 89.3525 11.855 90.1746 13.4399 91.9951C19.226 99.0109 38.1885 115.921 62.9401 115.921C87.7087 115.921 102.444 102.406 104.287 100.049C106.118 97.711 104.825 96.4215 102.974 97.1938H102.975ZM115.253 90.4131C114.079 88.8843 108.114 88.5993 104.36 89.0605C100.6 89.5083 94.9572 91.8061 95.4478 93.1857C95.6996 93.7025 96.2135 93.4707 98.7962 93.2385C101.386 92.9801 108.641 92.0645 110.153 94.0407C111.672 96.0306 107.839 105.51 107.139 107.039C106.463 108.568 107.397 108.962 108.668 107.944C109.921 106.926 112.189 104.29 113.711 100.56C115.223 96.8091 116.145 91.5771 115.252 90.4131H115.253Z" fill="#FF9900"/>
<path fill-rule="evenodd" clip-rule="evenodd" d="M73.5788 54.7389C73.5788 60.1982 73.7167 64.7509 70.9574 69.599C68.7303 73.5411 65.2024 75.9651 61.2608 75.9651C55.8801 75.9651 52.7465 71.8656 52.7465 65.8152C52.7465 53.8715 63.448 51.7038 73.5788 51.7038V54.7389ZM87.7098 88.8943C86.7834 89.7218 85.4432 89.7812 84.3988 89.2291C79.7476 85.3664 78.9196 83.573 76.3577 79.8872C68.6713 87.7315 63.2316 90.0766 53.2591 90.0766C41.4732 90.0766 32.2888 82.804 32.2888 68.2393C32.2888 56.8676 38.458 49.1218 47.2278 45.3381C54.8357 41.9872 65.4587 41.396 73.5788 40.47V38.6566C73.5788 35.3257 73.8347 31.3841 71.8838 28.5068C70.1689 25.9248 66.8974 24.8605 64.0197 24.8605C58.6789 24.8605 53.9093 27.5999 52.7465 33.2759C52.5097 34.5376 51.5837 35.7794 50.3224 35.8383L36.7232 34.3802C35.5803 34.1234 34.319 33.1974 34.6344 31.4431C37.768 14.9669 52.6476 10 65.9706 10C72.7899 10 81.6981 11.8134 87.0788 16.9772C93.8981 23.3429 93.2475 31.8373 93.2475 41.0807V62.918C93.2475 69.481 95.9674 72.3583 98.5294 75.9061C99.4358 77.1674 99.6332 78.6854 98.4899 79.6309C95.6321 82.0155 90.5472 86.4503 87.7489 88.9337L87.7094 88.8943" fill="black"/>
<path d="M102.975 97.1938C59.2565 118 32.1244 100.592 14.7564 90.0189C13.6817 89.3525 11.855 90.1746 13.4399 91.9951C19.226 99.0109 38.1885 115.921 62.9401 115.921C87.7087 115.921 102.444 102.406 104.287 100.049C106.118 97.711 104.825 96.4215 102.974 97.1938H102.975ZM115.253 90.4131C114.079 88.8843 108.114 88.5993 104.36 89.0605C100.6 89.5083 94.9572 91.8061 95.4478 93.1857C95.6996 93.7025 96.2135 93.4707 98.7962 93.2385C101.386 92.9801 108.641 92.0645 110.153 94.0407C111.672 96.0306 107.839 105.51 107.139 107.039C106.463 108.568 107.397 108.962 108.668 107.944C109.921 106.926 112.189 104.29 113.711 100.56C115.223 96.8091 116.145 91.5771 115.252 90.4131H115.253Z" fill="#FF9900"/>
<path fill-rule="evenodd" clip-rule="evenodd" d="M73.5788 54.7389C73.5788 60.1982 73.7167 64.7509 70.9574 69.599C68.7303 73.5411 65.2024 75.9651 61.2608 75.9651C55.8801 75.9651 52.7465 71.8656 52.7465 65.8152C52.7465 53.8715 63.448 51.7038 73.5788 51.7038V54.7389ZM87.7098 88.8943C86.7834 89.7218 85.4432 89.7812 84.3988 89.2291C79.7476 85.3664 78.9196 83.573 76.3577 79.8872C68.6713 87.7315 63.2316 90.0766 53.2591 90.0766C41.4732 90.0766 32.2888 82.804 32.2888 68.2393C32.2888 56.8676 38.458 49.1218 47.2278 45.3381C54.8357 41.9872 65.4587 41.396 73.5788 40.47V38.6566C73.5788 35.3257 73.8347 31.3841 71.8838 28.5068C70.1689 25.9248 66.8974 24.8605 64.0197 24.8605C58.6789 24.8605 53.9093 27.5999 52.7465 33.2759C52.5097 34.5376 51.5837 35.7794 50.3224 35.8383L36.7232 34.3802C35.5803 34.1234 34.319 33.1974 34.6344 31.4431C37.768 14.9669 52.6476 10 65.9706 10C72.7899 10 81.6981 11.8134 87.0788 16.9772C93.8981 23.3429 93.2475 31.8373 93.2475 41.0807V62.918C93.2475 69.481 95.9674 72.3583 98.5294 75.9061C99.4358 77.1674 99.6332 78.6854 98.4899 79.6309C95.6321 82.0155 90.5472 86.4503 87.7489 88.9337L87.7094 88.8943" fill="black"/>
<defs>
<linearGradient id="paint0_linear_183_960" x1="64" y1="0" x2="64" y2="128" gradientUnits="userSpaceOnUse">
<stop stop-color="white"/>
<stop offset="1" stop-color="#EEEEEE"/>
</linearGradient>
</defs>
</svg>
