<svg width="128" height="128" viewBox="0 0 128 128" fill="none" xmlns="http://www.w3.org/2000/svg">
<g clip-path="url(#clip0_183_1224)">
<path d="M128 64.0001C128 28.6539 99.3463 0.000137329 64 0.000137329C28.6538 0.000137329 0 28.6539 0 64.0001C0 95.9444 23.4039 122.421 54 127.223V82.5001H37.75V64.0001H54V49.9001C54 33.8601 63.5547 25.0001 78.1738 25.0001C85.1759 25.0001 92.5 26.2501 92.5 26.2501V42.0001H84.4297C76.4794 42.0001 74 46.9335 74 51.9948V64.0001H91.75L88.9125 82.5001H74V127.223C104.596 122.421 128 95.9444 128 64.0001Z" fill="#1877F2"/>
<path d="M88.9125 82.5L91.75 64H74V51.9946C74 46.9334 76.4794 42 84.4298 42H92.5V26.25C92.5 26.25 85.1759 25 78.1738 25C63.5548 25 54 33.86 54 49.9V64H37.75V82.5H54V127.223C57.2584 127.734 60.598 128 64 128C67.402 128 70.7416 127.734 74 127.223V82.5H88.9125Z" fill="white"/>
<g clip-path="url(#clip1_183_1224)">
<path d="M325.403 -59.0039H-105.115V50.0001H325.403V-59.0039Z" fill="#005EA6"/>
<path d="M327.405 32.4243H-103.113V36.7153H327.405V32.4243Z" fill="white"/>
<path d="M325.403 36.7148H-105.115V87.3109H325.403V36.7148Z" fill="#C41623"/>
<path d="M302 -46V50H-98V-46H302ZM306 -50H302H-98H-102V-46V50V54H-98H302H306V50V-46V-50Z" fill="white"/>
<path d="M37.9902 16.0941C37.9902 5.7601 31.7202 0.787102 19.7052 -1.5099C18.3262 -1.7399 14.3462 -2.5839 11.2952 -3.1939C1.42417 -5.1819 -2.17383 -6.9399 -2.17383 -11.3779C-2.17383 -14.8229 -0.181828 -17.0379 9.83817 -17.0379C17.4862 -17.0379 20.7762 -15.2799 22.3812 -11.9129C22.8422 -10.9909 23.2252 -9.6199 23.2252 -8.9329H36.8422C36.8422 -10.4679 36.2332 -12.7529 35.4632 -14.7449C32.4082 -22.3929 25.2912 -27.6709 10.1432 -27.6709C-7.60283 -27.6709 -15.8608 -20.7919 -15.8608 -10.5339C-15.8608 -0.510899 -8.59883 4.9191 3.18617 7.1361C5.86217 7.6671 10.2992 8.51511 12.0612 8.8241C21.8422 10.6601 24.3732 12.4141 24.3732 17.3901C24.3732 21.3701 21.1622 23.8861 11.9752 23.8861C3.94817 23.8861 -0.0288219 22.3631 -1.71282 18.8431C-2.17382 17.9291 -2.55682 16.0931 -2.55682 15.0191H-16.1738C-16.1738 16.2381 -15.9438 19.2261 -15.3218 21.2101C-12.8838 28.8621 -6.30583 34.3701 11.9752 34.3701C23.4592 34.3701 31.1032 31.1471 34.9832 25.8151V33.5301H46.7802V21.2231H37.2512C37.7292 19.6201 37.9902 17.9121 37.9902 16.0941Z" fill="white"/>
<path d="M89.463 12.0312L66.209 -26.9038H50.834V33.5312H63.455V-7.39981L87.783 33.5312H102.084V-26.9038H89.463V12.0312Z" fill="white"/>
<path d="M131.311 -12.104C121.581 -12.104 113.881 -8.459 109.584 -2.217C107.076 1.349 105.693 5.885 105.693 10.992C105.693 16.59 106.908 21.047 109.103 24.531C113.396 31.343 121.415 34.258 131.31 34.258C138.521 34.258 143.958 32.719 147.853 30.211C152.306 27.363 154.9 23.316 155.947 19.02H143.22C142.982 19.997 141.845 21.45 139.501 22.504C137.63 23.316 134.958 23.965 131.31 23.965C126.447 23.965 122.806 22.672 120.931 20.645C119.396 18.942 118.501 17.407 118.501 15.368H156.274C157.001 8.64899 155.786 2.24099 152.462 -2.62201C148.498 -8.38101 141.521 -12.104 131.311 -12.104ZM118.42 6.863C118.42 5.56 119.639 2.892 121.178 1.513C123.369 -0.432003 126.776 -1.655 131.389 -1.655C136.256 -1.655 139.334 -0.108003 141.205 1.755C142.822 3.458 143.377 5.56 143.377 6.862H118.42V6.863Z" fill="white"/>
</g>
</g>
<defs>
<clipPath id="clip0_183_1224">
<rect width="128" height="128" fill="white"/>
</clipPath>
<clipPath id="clip1_183_1224">
<rect width="408" height="104" fill="white" transform="translate(-102 -50)"/>
</clipPath>
</defs>
</svg>
