<svg width="128" height="128" viewBox="0 0 128 128" fill="none" xmlns="http://www.w3.org/2000/svg">
<rect width="128" height="128" rx="24" fill="url(#paint0_linear_264_3210)"/>
<path d="M31.4788 26.3814C28.7156 27.5724 26 31.7172 26 34.7663C26 36.3861 27.0481 39.1017 28.2392 40.4833C30.2401 42.8654 32.8604 43.9612 36.0524 43.7229C40.8166 43.3895 44.1038 40.1498 44.485 35.4809C44.9137 30.0498 40.9595 25.7144 35.576 25.7144C34.0991 25.762 32.2411 26.0479 31.4788 26.3814Z" fill="white"/>
<path d="M28.3823 76.4534V102.895H35.4333H42.4366L42.3413 76.5963L42.1984 50.2505L35.2904 50.1076L28.3823 49.9646V76.4534Z" fill="white"/>
<path d="M70.9263 25.3441C67.4008 26.2016 64.7328 27.345 61.6361 29.4413C58.063 31.7757 55.9191 34.2531 54.1087 38.112C52.9653 40.5418 52.8224 41.3517 52.8224 46.3064C52.8224 51.6423 52.8701 51.8805 54.4422 54.7866C57.396 60.2178 62.0649 63.5527 72.5937 67.7452C79.4541 70.4607 83.7895 72.7952 85.457 74.7008C88.0773 77.7023 88.4107 82.2282 86.2192 85.4679C81.6933 92.1853 70.1163 91.6136 61.0168 84.1815L58.3012 81.99L53.5847 86.8971L48.8682 91.8042L50.1068 92.9C57.7772 99.4269 66.972 103 76.1192 103C84.4088 103 90.6023 100.666 95.7952 95.5679C100.845 90.6132 102.989 84.3245 102.084 77.0353C100.941 67.8881 94.89 62.1234 80.2164 56.3112C68.4489 51.6423 65.638 48.7838 67.5913 43.6385C70.2116 36.8257 82.5032 35.73 90.7452 41.5899C91.5551 42.1616 92.2221 42.5427 92.3174 42.4474C92.4126 42.3521 94.0801 39.9224 96.0811 37.0639L99.7018 31.871L98.6061 31.0134C96.9386 29.7271 91.2692 26.9639 88.3155 26.0587C85.2188 25.1059 73.88 24.6294 70.9263 25.3441Z" fill="white"/>
<defs>
<linearGradient id="paint0_linear_264_3210" x1="64" y1="0" x2="64" y2="128" gradientUnits="userSpaceOnUse">
<stop stop-color="#484848"/>
<stop offset="1"/>
</linearGradient>
</defs>
</svg>
