<svg width="128" height="128" viewBox="0 0 128 128" fill="none" xmlns="http://www.w3.org/2000/svg">
<path d="M43.4196 128H84.5804V96.8784L74.5412 86.8392H53.2078L43.4196 96.8784V128ZM96.6274 43.4196L86.8392 53.2078V74.7922L96.6274 84.5804H128V43.4196H96.6274ZM84.5804 0H43.4196V31.3725L53.2078 41.1608H74.5412L84.5804 31.3725V0ZM128 128V96.8784L118.212 86.8392H86.8392V128H128ZM9.78824 0L0 9.78824V41.1608H41.1608V0H9.78824ZM86.8392 0V31.3725L96.6274 41.1608H128V0H86.8392ZM64 70.0235C60.7373 70.0235 58.2275 67.2627 58.2275 64.251C58.2275 60.9882 60.9882 58.4784 64 58.4784C67.2627 58.4784 69.7726 61.2392 69.7726 64.251C69.7726 67.2627 67.2627 70.0235 64 70.0235ZM41.1608 43.4196H0V84.5804H31.1216L41.1608 74.7922V43.4196ZM41.1608 96.8784L31.1216 86.8392H0V128H31.1216L41.1608 118.212V96.8784Z" fill="#40BAC8"/>
</svg>
