<svg width="128" height="128" viewBox="0 0 128 128" fill="none" xmlns="http://www.w3.org/2000/svg">
<path d="M32.0552 92.476C32.0552 82.5321 32.0471 72.5872 32.057 62.6433C32.0849 33.4069 54.8361 6.32567 83.5778 1.26855C87.0889 0.650489 90.6108 0.233338 94.1669 0.0117004C95.6886 -0.082901 96.2463 0.380197 96.2148 1.98572C96.1184 6.84823 96.1166 11.7143 96.213 16.5769C96.2463 18.2752 95.658 18.8239 93.9975 18.8707C73.2176 19.4554 55.1947 34.8728 51.2178 55.4562C50.6448 58.4204 50.2907 61.4197 50.2934 64.4596C50.3142 84.5647 50.261 104.669 50.3619 124.774C50.3745 127.237 49.8619 128.136 47.2329 127.979C43.1398 127.734 39.0097 127.724 34.9185 127.982C32.3264 128.146 31.9768 127.182 32.0011 124.904C32.1201 114.095 32.0552 103.286 32.0552 92.476Z" fill="url(#paint0_linear_2800_1812)"/>
<defs>
<linearGradient id="paint0_linear_2800_1812" x1="64.108" y1="0" x2="64.108" y2="128" gradientUnits="userSpaceOnUse">
<stop stop-color="white"/>
<stop offset="1" stop-color="#EEEEEE"/>
</linearGradient>
</defs>
</svg>
