<svg width="128" height="128" viewBox="0 0 128 128" fill="none" xmlns="http://www.w3.org/2000/svg">
<path d="M63.9602 126.907C98.8727 126.907 127.175 98.6764 127.175 63.852C127.175 29.0276 98.8727 0.796875 63.9602 0.796875C29.0477 0.796875 0.745605 29.0276 0.745605 63.852C0.745605 98.6764 29.0477 126.907 63.9602 126.907Z" fill="#0F385A" fill-opacity="0.956425"/>
<path d="M40.6833 41.2129L38.2918 56.6777C38.2918 56.6777 37.7338 61.4607 40.6833 64.0116C43.3936 66.1639 48.1766 65.3668 48.1766 65.3668C48.1766 65.3668 51.3652 64.8088 52.5609 62.9753C53.7567 61.0621 52.8798 65.2073 52.8798 65.2073H59.7353L63.5617 41.2129H56.5467L54.4741 54.6848C54.4741 54.6848 53.1189 59.3084 49.7709 59.6272C46.3431 59.9461 45.5459 58.5112 45.3068 56.5183C45.1474 54.6051 47.2997 41.2129 47.2997 41.2129H40.6833Z" fill="white"/>
<path d="M33.5087 23.9141V42.5676L26.1748 35.3134L33.5087 23.9141ZM86.4399 71.0261L91.2229 93.9045H96.2449L108.362 70.9464H103.977L94.4912 88.4838L91.462 71.1058L86.4399 71.0261Z" fill="#23C1E0"/>
<path d="M40.6831 30.9293L21.5513 30.8496L26.1748 35.3137L20.7542 43.2056L40.6831 30.9293Z" fill="white"/>
<path d="M74.3747 70.338C71.564 70.3286 68.818 71.1808 66.5064 72.7797C64.1948 74.3786 62.4286 76.6474 61.4458 79.2806C58.7039 85.9876 61.4458 92.779 67.5411 94.4663C73.6576 96.1536 80.8286 92.1041 83.5493 85.3971C86.2912 78.7112 83.1064 72.2362 78.0656 70.7809C77.222 70.57 75.2816 70.3591 74.3747 70.338ZM73.4256 74.4507C76.99 74.3031 78.5085 76.1802 78.9515 76.7919C79.8795 78.0784 80.8707 82.592 78.5507 86.3884C76.2307 90.1637 70.8313 91.2393 67.5833 89.4677C64.3563 87.696 64.3353 82.4232 66.6553 78.6479C67.3424 77.4359 68.3218 76.415 69.5043 75.6783C70.6868 74.9415 72.0348 74.5123 73.4256 74.4297V74.4507Z" fill="#22BFDE" fill-opacity="0.999172"/>
<path d="M45.796 70.5488C42.4214 70.6332 39.7007 72.4892 37.2963 75.0623C32.9726 80.2719 32.2555 87.0843 36.5792 91.64C40.6287 95.4364 46.3866 95.1623 51.1321 91.4291C50.9782 93.6994 50.213 95.8857 48.9175 97.7565C45.9015 100.435 43.4127 100.815 40.5865 100.266C38.548 99.7545 36.6091 98.9063 34.8497 97.7565L32.4453 101.173C32.4453 101.173 35.8621 104.063 40.46 104.168C45.0157 104.274 46.1335 104.442 49.9088 102.059C52.363 100.314 54.219 97.8536 55.2238 95.0146L58.7671 70.8441L55.0762 70.8019L54.4434 74.4296C53.4821 73.2411 52.272 72.2777 50.8982 71.6072C49.5245 70.9367 48.0205 70.5755 46.492 70.5488H45.796ZM46.492 74.0078C47.9262 73.9656 49.7612 74.8936 50.8157 75.6951C53.7896 77.994 53.5576 83.6043 50.8157 87.1898C48.0739 90.7753 42.8433 91.4924 39.8905 89.2145C36.9166 86.9156 37.1065 81.4108 39.8694 77.8253C41.5145 75.6529 44.0877 74.05 46.492 74.0078Z" fill="#23C1E0"/>
<path d="M98.9461 40.8125C93.7998 40.8125 87.3459 41.9936 85.6375 52.7923C83.7393 64.6877 91.2056 65.6579 95.234 65.6579C99.2835 65.6579 102.447 62.3466 102.447 62.3466L102.321 64.6877H109.323L112.93 41.0656H106.708L105.864 44.2082C105.864 44.2082 105.759 41.0023 100.486 40.8336L98.925 40.8125H98.9461ZM99.1781 46.2962C99.7851 46.2683 100.376 46.3537 100.929 46.5493C101.619 46.7922 102.239 47.2027 102.751 47.7571C103.264 48.3116 103.66 48.9992 103.916 49.7807C104.173 50.5622 104.285 51.4223 104.247 52.3118C104.208 53.2013 104.019 54.1027 103.692 54.9647C103.033 56.7044 101.847 58.1792 100.396 59.0651C98.9444 59.9509 97.3458 60.1754 95.9511 59.6891C95.2582 59.4467 94.6368 59.0358 94.1226 58.4801C93.6085 57.9243 93.2116 57.2347 92.9549 56.4508C92.6981 55.6669 92.5866 54.8041 92.6266 53.912C92.6666 53.02 92.8575 52.1162 93.1882 51.2526C93.7144 49.8703 94.5769 48.6469 95.6525 47.7568C96.7282 46.8667 97.9621 46.3555 99.1781 46.2962Z" fill="white"/>
<path d="M80.0628 47.9884L84.6066 45.0389C84.6066 45.0389 82.8529 42.0097 79.3454 40.814C75.7582 39.6979 71.9318 40.814 69.7795 42.2488C68.7233 42.9755 67.8643 43.9533 67.2799 45.0943C66.6955 46.2354 66.4039 47.5038 66.4314 48.7855C66.5112 51.3364 67.3083 53.3293 70.8955 54.8439C74.403 56.2788 76.7945 57.076 76.4756 58.5109C76.0771 59.866 74.8813 60.1849 72.3304 60.1052C69.9389 59.9457 67.8663 56.7571 67.8663 56.7571L62.8442 60.1052C62.8442 60.1052 64.9966 63.1344 67.4678 64.649C70.0187 66.1636 74.6422 65.9244 78.2294 64.1707C81.7369 62.4169 82.6137 59.7066 82.8529 58.4311C83.092 57.076 82.8529 55.0034 81.5774 53.6482C80.2223 52.3727 78.0699 51.5756 76.3162 50.9379C74.5625 50.2204 72.3304 49.1841 72.6493 47.5101C72.9681 45.9158 74.4827 45.1186 76.1568 45.3578C77.9105 45.5969 80.0628 47.9884 80.0628 47.9884Z" fill="white" fill-opacity="0.960718"/>
</svg>
