<svg width="128" height="128" viewBox="0 0 128 128" fill="none" xmlns="http://www.w3.org/2000/svg">
<mask id="mask0_264_2530" style="mask-type:alpha" maskUnits="userSpaceOnUse" x="0" y="0" width="128" height="128">
<path d="M0 24C0 10.7452 10.7452 0 24 0H104C117.255 0 128 10.7452 128 24V104C128 117.255 117.255 128 104 128H24C10.7452 128 0 117.255 0 104V24Z" fill="url(#paint0_linear_264_2530)"/>
<path d="M59.6934 30.0156V94H44.2686V30.0156H59.6934ZM84.5664 56.6465V68.5117H55.2988V56.6465H84.5664ZM87.0713 30.0156V41.9248H55.2988V30.0156H87.0713Z" fill="white"/>
</mask>
<g mask="url(#mask0_264_2530)">
<rect x="7.50806" y="6.45703" width="113.486" height="112.435" fill="white"/>
<path d="M111.453 110.325H91.5502V79.4628C91.5502 72.1034 91.4176 62.6296 81.1986 62.6296C70.8324 62.6296 69.2463 70.648 69.2463 78.927V110.323H49.3431V46.8578H68.4501V55.531H68.7176C70.6298 52.2937 73.3929 49.6307 76.7127 47.8253C80.0325 46.02 83.7847 45.1401 87.5697 45.2792C107.742 45.2792 111.462 58.4172 111.462 75.5091L111.453 110.325ZM26.8858 38.1826C24.6014 38.183 22.3681 37.5126 20.4685 36.2563C18.5689 35 17.0883 33.2142 16.2137 31.1246C15.3391 29.0351 15.1099 26.7357 15.5552 24.5172C16.0004 22.2987 17.1001 20.2607 18.7152 18.6611C20.3302 17.0614 22.388 15.9718 24.6284 15.5301C26.8688 15.0885 29.1911 15.3145 31.3018 16.1797C33.4124 17.045 35.2166 18.5104 36.486 20.3909C37.7555 22.2714 38.4333 24.4823 38.4337 26.7442C38.434 28.2461 38.1355 29.7332 37.5553 31.1208C36.9751 32.5085 36.1247 33.7693 35.0523 34.8315C33.98 35.8936 32.7068 36.7362 31.3056 37.3112C29.9044 37.8862 28.4025 38.1823 26.8858 38.1826ZM36.8373 110.325H16.9135V46.8578H36.8373V110.325ZM121.376 -2.99094H6.91219C4.31419 -3.01997 1.8107 -2.02653 -0.0479305 -0.228932C-1.90656 1.56867 -2.96829 4.02336 -3 6.59575V120.402C-2.96938 122.976 -1.90827 125.432 -0.0497022 127.232C1.80887 129.031 4.3129 130.027 6.91219 129.999H121.376C123.98 130.032 126.491 129.039 128.357 127.24C130.223 125.44 131.291 122.981 131.327 120.402V6.58754C131.29 4.01005 130.221 1.55256 128.355 -0.244993C126.489 -2.04255 123.979 -3.03315 121.376 -2.99915" fill="#0A66C2"/>
</g>
<defs>
<linearGradient id="paint0_linear_264_2530" x1="64" y1="0" x2="64" y2="128" gradientUnits="userSpaceOnUse">
<stop stop-color="#1D63F0"/>
<stop offset="1" stop-color="#1AD5FD"/>
</linearGradient>
</defs>
</svg>
