<svg width="128" height="128" viewBox="0 0 128 128" fill="none" xmlns="http://www.w3.org/2000/svg">
<g clip-path="url(#clip0_183_744)">
<path d="M43.4272 64.5408L43.7996 64.3262V64.5408H43.4272Z" fill="#3CB1E4"/>
<path d="M14.4732 70.626V18.0553C14.4732 9.35298 16.7046 6.60091 24.6631 6.60091H104.099C111.656 6.60091 114.319 9.84388 114.319 18.0553V68.9747L120.463 64.7353V12.4322C120.463 5.55959 115.286 -0.00390625 108.919 -0.00390625H19.174C12.8072 -0.00390625 7.64526 5.55959 7.64526 12.4322V66.3416L14.4881 70.611" fill="#B1B3B5"/>
<path d="M65.6904 80.295C65.6904 75.8323 67.7433 72.8573 74.1398 73.1548C83.3628 73.4523 101.481 75.5348 121.921 60.9566C125.744 58.2789 128.243 61.9236 125.907 65.3896C121.34 70.9829 112.519 77.9149 99.369 83.2404C113.471 131.185 65.0062 138.801 65.75 114.212C65.75 114.911 65.6904 80.1464 65.6904 80.1464" fill="#008ED3"/>
<path d="M72.9645 74.686C69.1563 74.686 67.9663 77.1106 67.9663 77.1106C67.9663 77.1106 72.0869 78.1968 78.7958 78.1968L84.5676 77.9289L85.356 76.8875C85.8786 76.1414 86.5222 75.4879 87.2601 74.9538L82.2916 75.1025C79.346 75.1001 76.4021 74.9563 73.4703 74.6712C73.3019 74.6608 73.1332 74.6558 72.9645 74.6562M123.661 61.5655C115.241 66.8464 105.78 72.9753 90.6369 74.6562C91.1426 75.1025 91.4402 75.8762 91.4253 76.9175C100.827 75.0729 112.147 70.7737 123.661 61.5508" fill="#38B5E7"/>
<path d="M62.3136 80.295C62.3136 75.8323 60.2607 72.8573 53.8642 73.1548C44.6412 73.4523 26.5226 75.5348 6.08341 60.9566C2.26036 58.2789 -0.238788 61.9236 2.0967 65.3896C6.66354 70.9829 15.4848 77.9149 28.635 83.2404C14.5626 131.185 62.9979 138.801 62.2541 114.212C62.2541 114.911 62.3136 80.1464 62.3136 80.1464" fill="#F6921E"/>
<path d="M90.6414 127.754L103.415 107.66V127.754H90.6414Z" fill="#0072BB"/>
<path d="M89.8057 127.754L103.416 106.334V107.645L90.6421 127.754H89.8057" fill="#0072BB"/>
<path d="M88.9692 127.754L103.415 105.023V106.334L89.8049 127.754H88.9685" fill="#0073BC"/>
<path d="M88.1465 127.753L103.417 103.711V105.022L88.9712 127.753H88.1479" fill="#0075BD"/>
<path d="M87.3093 127.753L103.416 102.4V103.711L88.145 127.753H87.3086" fill="#0076BF"/>
<path d="M86.4868 127.753L103.416 101.09V102.401L87.3095 127.754H86.4868" fill="#0077BF"/>
<path d="M85.6504 127.753L103.416 99.7793V101.09L86.4868 127.753H85.6504Z" fill="#0079C0"/>
<path d="M84.8132 127.754L103.416 98.4688V99.78L85.6503 127.754H84.8132Z" fill="#007AC2"/>
<path d="M83.9761 127.753L103.416 97.1562V98.4668L84.8132 127.752H83.9761" fill="#007BC3"/>
<path d="M83.1536 127.754L103.416 95.8477V97.1582L83.9762 127.755H83.1536" fill="#007CC4"/>
<path d="M82.3171 127.753L103.416 94.5352V95.8465L83.1535 127.753H82.3171Z" fill="#007DC4"/>
<path d="M81.48 127.752L103.415 93.2246V94.5345L82.3164 127.752H81.48Z" fill="#007FC5"/>
<path d="M80.6438 127.753L103.416 91.9121V93.2248L81.4809 127.753H80.6438Z" fill="#0080C6"/>
<path d="M79.8203 127.754L103.416 90.6035V91.9141L80.6436 127.755H79.8203" fill="#0080C7"/>
<path d="M78.9839 127.753L103.416 89.291V90.6023L79.8203 127.753H78.9839Z" fill="#0081C8"/>
<path d="M78.147 127.754L103.416 87.9824V89.293L78.9841 127.755H78.147" fill="#0081C9"/>
<path d="M77.3242 127.754L103.416 86.6719V87.9818L78.1469 127.753H77.3242" fill="#0082C9"/>
<path d="M76.4878 127.753L103.416 85.3457V86.6707L77.3242 127.753H76.4878Z" fill="#0083CA"/>
<path d="M75.6509 127.754L103.416 84.0352V85.3465L76.488 127.754H75.6509Z" fill="#0084CB"/>
<path d="M74.8274 127.754L103.416 82.7246V84.0352L75.6507 127.754H74.8274Z" fill="#0085CB"/>
<path d="M73.9917 127.754L103.416 81.4141V82.7247L74.8274 127.754H73.9917Z" fill="#0085CC"/>
<path d="M73.1548 127.754L103.416 80.1035V81.4141L73.9919 127.754H73.1548Z" fill="#0086CD"/>
<path d="M72.3176 127.753L103.416 78.791V80.1023L73.1547 127.753H72.3176Z" fill="#0087CD"/>
<path d="M71.4943 127.753L102.872 78.3301H103.415V78.7905L72.3163 127.752H71.4937" fill="#0087CD"/>
<path d="M70.6577 127.753L102.034 78.3301H102.873L71.4955 127.753H70.6584" fill="#0088CE"/>
<path d="M69.8215 127.753L101.213 78.3301H102.035L70.6579 127.753H69.8215Z" fill="#0088CF"/>
<path d="M68.9995 127.753L100.377 78.3301H101.214L69.8222 127.753H68.9995Z" fill="#0089CF"/>
<path d="M68.1624 127.753L99.5391 78.3301H100.376L68.9988 127.753H68.1624Z" fill="#0089CF"/>
<path d="M67.3254 127.753L98.7159 78.3301H99.5393L68.1625 127.753H67.3254Z" fill="#008AD0"/>
<path d="M66.6836 127.461L97.8803 78.3301H98.716L67.3255 127.753H66.6836V127.461Z" fill="#008AD0"/>
<path d="M66.6836 126.149L97.0439 78.3301H97.8803L66.6836 127.461V126.148" fill="#008AD0"/>
<path d="M66.6836 124.839L96.2206 78.3301H97.0439L66.6836 126.149V124.84" fill="#008BD1"/>
<path d="M66.6836 123.528L95.3835 78.3301H96.2206L66.6836 124.839V123.528Z" fill="#008BD1"/>
<path d="M66.6836 122.218L94.5471 78.3301H95.3835L66.6836 123.528V122.218" fill="#008BD1"/>
<path d="M66.6836 120.906L93.71 78.3301H94.5471L66.6836 122.218V120.906Z" fill="#008CD1"/>
<path d="M66.6836 119.594L92.8887 78.3301H93.7107L66.6843 120.906V119.594" fill="#008CD2"/>
<path d="M66.6835 118.284L92.0502 78.3301H92.8873L66.6821 119.594V118.284" fill="#008CD2"/>
<path d="M66.6836 116.973L91.2146 78.3301H92.051L66.6843 118.284V116.973" fill="#008DD2"/>
<path d="M66.6836 115.662L90.3912 78.3301H91.2146L66.6836 116.973V115.661" fill="#008DD2"/>
<path d="M66.6836 114.351L89.5555 78.3301H90.3919L66.6843 115.662V114.351" fill="#008DD2"/>
<path d="M66.6836 113.04L88.7184 78.3301H89.5548L66.6829 114.351V113.04" fill="#008DD3"/>
<path d="M66.6836 111.731L87.8814 78.3301H88.7185L66.6836 113.04V111.73" fill="#008DD3"/>
<path d="M66.6836 110.42L87.058 78.332H87.8814L66.6836 111.733V110.421" fill="#008DD3"/>
<path d="M66.6836 109.109L86.221 78.332H87.058L66.6836 110.42V109.109" fill="#008ED3"/>
<path d="M66.6836 107.799L85.3838 78.332H86.2202L66.6829 109.109V107.799" fill="#008ED3"/>
<path d="M66.6836 106.487L84.5619 78.3301H85.3846L66.6843 107.797V106.486" fill="#008ED3"/>
<path d="M66.6836 105.178L83.7248 78.332H84.5619L66.6836 106.489V105.178" fill="#008ED3"/>
<path d="M66.6836 103.866L82.8891 78.332H83.7248L66.6836 105.178V103.866Z" fill="#008ED3"/>
<path d="M66.6836 102.555L82.0507 78.332H82.8891L66.6836 103.866V102.555Z" fill="#008ED3"/>
<path d="M66.6836 101.245L81.2287 78.332H82.0514L66.6843 102.555V101.246" fill="#008ED3"/>
<path d="M66.6836 99.9202L80.3923 78.332H81.2287L66.6836 101.245V99.9188" fill="#008ED3"/>
<path d="M66.6836 98.6096L79.5559 78.332H80.393L66.6843 99.9202V98.6096" fill="#008ED3"/>
<path d="M66.6836 97.2905L78.7326 78.3242H79.5552L66.6829 98.6018V97.2905" fill="#008ED3"/>
<path d="M66.6836 95.9877L77.8962 78.332H78.7326L66.6836 97.2907V95.9808" fill="#008ED3"/>
<path d="M66.6836 94.6771L77.0591 78.332H77.8962L66.6836 95.9877V94.6764" fill="#008ED3"/>
<path d="M66.6836 93.3658L76.2227 78.332H77.0598L66.6843 94.6771V93.3658" fill="#008ED3"/>
<path d="M66.6836 92.0532L75.4 78.3301H76.222L66.6829 93.3638V92.0532" fill="#008ED3"/>
<path d="M66.6836 90.7439L74.563 78.332H75.4001L66.6836 92.0545V90.7432" fill="#008ED3"/>
<path d="M66.6836 89.434L73.7266 78.332H74.563L66.6836 90.7439V89.434Z" fill="#008ED3"/>
<path d="M66.6836 88.122L72.9032 78.332H73.7259L66.6829 89.434V88.1213" fill="#008ED3"/>
<path d="M66.6836 86.8108L72.0669 78.3301H72.904L66.6843 88.1201V86.8101" fill="#008ED3"/>
<path d="M66.6836 85.5001L71.2312 78.332H72.0669L66.6836 86.8128V85.5015" fill="#008ED3"/>
<path d="M66.6836 84.1902L70.3934 78.332H71.2319L66.6843 85.5001V84.1895" fill="#008ED3"/>
<path d="M66.6836 82.8789L69.57 78.332H70.3927L66.6829 84.1902V82.8789" fill="#008ED3"/>
<path d="M69.5701 78.332L66.6836 82.8789V78.332H69.5701Z" fill="#008ED3"/>
<path d="M62.3435 52.865C62.3435 60.8384 55.4411 67.2945 46.9173 67.2945C38.3935 67.2945 31.4912 60.8384 31.4912 52.865C31.4912 44.8916 38.3935 38.4355 46.9173 38.4355C55.4411 38.4355 62.3435 44.8916 62.3435 52.865Z" fill="#F6921E"/>
<path d="M51.3232 67.0498L62.1173 60.8301V67.0498H51.3232Z" fill="#D8711C"/>
<path d="M49.5034 67.049L62.1242 59.7695V60.83L51.3439 67.0497H49.5034" fill="#D8711C"/>
<path d="M47.6486 67.0489L62.1243 58.6953V59.7695L49.5035 67.0489H47.6479" fill="#DC751C"/>
<path d="M45.8086 67.0494L62.1241 57.6367V58.6951L47.6484 67.0487H45.8086" fill="#DE771C"/>
<path d="M43.9536 67.0501L62.1247 56.5625V57.6367L45.8092 67.0494H43.9536" fill="#E07A1D"/>
<path d="M42.1118 67.0493L62.1248 55.502V56.5624L43.9537 67.05H42.1118" fill="#E37D1D"/>
<path d="M40.2583 67.0498L62.1234 54.4297V55.5018L42.1105 67.0491H40.2583" fill="#E57F1D"/>
<path d="M38.4165 67.0497L62.1235 53.3691V54.4296L40.2584 67.0497H38.4165Z" fill="#E6801D"/>
<path d="M36.561 67.049L62.1236 52.2949V53.3684L38.4166 67.049H36.561Z" fill="#E8821D"/>
<path d="M34.7211 67.0491L62.1242 51.2422V52.3019L36.5609 67.0491H34.7205" fill="#EA851D"/>
<path d="M32.8662 67.0494L62.1241 50.1621V51.2356L34.7211 67.0425H32.8655" fill="#EB861D"/>
<path d="M32.0444 66.4638L62.1243 49.1016V50.162L32.8664 67.0493H32.0444V66.4638Z" fill="#ED881D"/>
<path d="M32.0444 65.4032L62.1243 48.0293V49.1014L32.0444 66.4636V65.4032Z" fill="#ED891D"/>
<path d="M32.0444 64.3309L62.1243 46.9688V48.0292L32.0444 65.4031V64.3309Z" fill="#EE8A1D"/>
<path d="M32.0444 63.2567L62.1243 45.8945V46.9687L32.0444 64.3309V63.2567Z" fill="#EF8B1D"/>
<path d="M32.0444 62.1961L62.1243 44.8359V45.8943L32.0444 63.2572V62.1968" fill="#F18D1D"/>
<path d="M32.0444 61.1377L62.1243 43.7617V44.8359L32.0444 62.196V61.1377Z" fill="#F28E1D"/>
<path d="M32.0444 60.0641L62.1243 42.7012V43.7616L32.0444 61.1376V60.0641Z" fill="#F38F1D"/>
<path d="M32.0444 58.989L62.1243 41.6289V42.701L32.0444 60.0639V58.989Z" fill="#F38F1D"/>
<path d="M32.0444 57.9305L62.1243 40.5684V41.6281L32.0444 58.9882V57.9299" fill="#F5901E"/>
<path d="M32.0444 56.8688L62.1243 39.4922V40.5671L32.0444 57.9299V56.8695" fill="#F5911D"/>
<path d="M32.0444 55.7942L61.301 38.9062H62.1243V39.4918L32.0444 56.8684V55.7942Z" fill="#F6921E"/>
<path d="M32.0444 54.7201L59.4454 38.9062H61.301L32.0444 55.7942V54.7207" fill="#F6921E"/>
<path d="M32.0444 53.6617L57.6056 38.9062H59.4461L32.0451 54.7201V53.6603" fill="#F6921E"/>
<path d="M32.0444 52.6005L55.7521 38.9062H57.6056L32.0444 53.6617V52.6012" fill="#F6921E"/>
<path d="M32.0444 51.5277L53.9109 38.9062H55.7528L32.0451 52.6005V51.5284" fill="#F6921E"/>
<path d="M32.0444 50.4522L52.0553 38.9062H53.9109L32.0444 51.5277V50.4529" fill="#F6921E"/>
<path d="M32.0444 49.3938L50.2155 38.9062H52.056L32.0451 50.4522V49.3938" fill="#F6921E"/>
<path d="M32.0444 48.3341L48.3599 38.9062H50.2155L32.0444 49.3938V48.3334" fill="#F6921E"/>
<path d="M32.0444 47.2592L46.5181 38.9062H48.3599L32.0444 48.3341V47.2592Z" fill="#F6921E"/>
<path d="M32.0443 46.1864L44.6569 38.9062H46.5125L32.0388 47.2592V46.1871" fill="#F6921E"/>
<path d="M32.0444 45.1259L42.8234 38.9062H44.6639L32.0444 46.1864V45.1259Z" fill="#F6921E"/>
<path d="M42.8234 38.9062L32.0444 45.1259V38.9062H42.8234Z" fill="#F6921E"/>
<path d="M50.7871 56.3544L52.3218 55.4609V56.3544H50.7871Z" fill="#F5B257"/>
<path d="M44.428 56.3529L52.3211 51.793V55.4602L50.7865 56.3536H44.428" fill="#F7B457"/>
<path d="M38.0552 56.3529L52.3213 48.1113V51.793L44.4281 56.3529H38.0552Z" fill="#FAB758"/>
<path d="M32.7825 55.7234L52.3212 44.4414V48.11L38.0551 56.3516H32.7825V55.7234Z" fill="#FAB858"/>
<path d="M32.7825 52.0437L52.3212 40.7617V44.4427L32.7825 55.7247V52.0437Z" fill="#FAB858"/>
<path d="M32.7825 48.3753L47.4967 39.8828H52.3212V40.7611L32.7825 52.0431V48.3753Z" fill="#FAB858"/>
<path d="M32.7824 44.6956L41.1361 39.8848H47.4959L32.7817 48.3772V44.6963" fill="#FAB858"/>
<path d="M41.1361 39.8828L32.7825 44.6936V39.8828H41.1361Z" fill="#FAB858"/>
<path d="M67.4011 52.865C67.4011 60.8384 74.3034 67.2945 82.8272 67.2945C91.351 67.2945 98.2533 60.8384 98.2533 52.865C98.2533 44.8916 91.351 38.4355 82.8272 38.4355C74.3034 38.4355 67.4011 44.8916 67.4011 52.865Z" fill="#008ED3"/>
<path d="M86.9595 66.9923L97.7817 60.7383V66.9923H86.9595Z" fill="#0072BB"/>
<path d="M86.04 66.9932L97.7818 60.2168V60.7322L86.9596 66.9863H86.04" fill="#0072BB"/>
<path d="M85.1198 66.9925L97.7819 59.6855V60.2147L86.0401 66.9911H85.1191" fill="#0073BC"/>
<path d="M84.2133 66.9931L97.7819 59.1562V59.6855L85.1198 66.9924H84.2126" fill="#0075BD"/>
<path d="M83.2932 66.9943L97.7819 58.627V59.1575L84.2134 66.9943H83.2925" fill="#0076BF"/>
<path d="M82.3875 66.9936L97.782 58.0957V58.6249L83.2933 66.9922H82.3875" fill="#0077BF"/>
<path d="M81.4666 66.9935L97.7821 57.5664V58.0956L82.3875 66.9928H81.4666" fill="#0079C0"/>
<path d="M80.5454 66.9935L97.7818 57.0352V57.5664L81.4663 66.9928H80.5454" fill="#007AC2"/>
<path d="M79.6382 66.9934L97.7818 56.5059V57.0351L80.5454 66.9934H79.6382Z" fill="#007BC3"/>
<path d="M78.7194 66.9926L97.7819 55.9766V56.5057L79.6383 66.9933H78.7188" fill="#007CC4"/>
<path d="M77.7986 66.9926L97.782 55.4453V55.9766L78.7195 66.9933H77.7986" fill="#007DC4"/>
<path d="M76.892 66.9925L97.7819 54.916V55.4452L77.7985 66.9925H76.8914" fill="#007FC5"/>
<path d="M75.9719 66.9923L97.782 54.4004V54.9158L76.8921 66.9923H75.9712" fill="#0080C6"/>
<path d="M75.0522 66.9923L97.7819 53.8691V54.4004L75.9718 66.9923H75.0522Z" fill="#0080C7"/>
<path d="M74.145 66.9942L97.7819 53.3418V53.871L75.0522 66.9942H74.145Z" fill="#0081C8"/>
<path d="M73.2241 66.9941L97.7819 52.8125V53.3417L74.145 66.9941H73.2241Z" fill="#0081C9"/>
<path d="M72.3176 66.9934L97.7819 52.2812V52.8125L73.2241 66.9941H72.3169" fill="#0082C9"/>
<path d="M71.3981 66.9933L97.7819 51.752V52.2811L72.3177 66.994H71.3967" fill="#0083CA"/>
<path d="M70.4771 66.9932L97.7818 51.2227V51.7518L71.398 66.9938H70.4771" fill="#0084CB"/>
<path d="M69.5701 66.9932L97.782 50.6914V51.2227L70.4773 66.9939H69.5701" fill="#0085CB"/>
<path d="M68.6492 66.9931L97.782 50.1621V50.6913L69.5701 66.9931H68.6492Z" fill="#0085CC"/>
<path d="M67.7302 66.9943L97.7819 49.6465V50.1619L68.649 66.9929H67.7295" fill="#0086CD"/>
<path d="M67.5219 66.5901L97.7819 49.1152V49.6458L67.7302 66.9936H67.5212V66.5895" fill="#0087CD"/>
<path d="M67.522 66.0595L97.7819 48.5859V49.1151L67.522 66.5893V66.0602" fill="#0087CD"/>
<path d="M67.522 65.5288L97.7819 48.0566V48.5858L67.522 66.0594V65.5281" fill="#0088CE"/>
<path d="M67.522 64.9979L97.7819 47.5312V48.0618L67.522 65.534V65.0048" fill="#0088CF"/>
<path d="M67.522 64.4696L97.7819 46.9961V47.5253L67.522 64.9988V64.4696Z" fill="#0089CF"/>
<path d="M67.522 63.9397L97.7819 46.4668V46.996L67.522 64.4695V63.9403" fill="#0089CF"/>
<path d="M67.522 63.4091L97.7819 45.9355V46.4661L67.522 63.9396V63.4091Z" fill="#008AD0"/>
<path d="M67.522 62.8805L97.7819 45.4062V45.9354L67.522 63.409V62.8798" fill="#008AD0"/>
<path d="M67.522 62.3512L97.7819 44.877V45.4061L67.522 62.8804V62.3512Z" fill="#008AD0"/>
<path d="M67.522 61.8344L97.7819 44.3457V44.877L67.522 62.3512V61.8337" fill="#008BD1"/>
<path d="M67.522 61.3049L97.7819 43.832V44.3475L67.522 61.8354V61.3062" fill="#008BD1"/>
<path d="M67.522 60.775L97.7819 43.3008V43.8313L67.522 61.3042V60.775Z" fill="#008BD1"/>
<path d="M67.522 60.2437L97.7819 42.7695V43.2987L67.522 60.7729V60.2424" fill="#008CD1"/>
<path d="M67.522 59.7138L97.7819 42.2402V42.7694L67.522 60.243V59.7138Z" fill="#008CD2"/>
<path d="M67.522 59.1845L97.7819 41.7109V42.2401L67.522 59.7137V59.1845Z" fill="#008CD2"/>
<path d="M67.522 58.6539L97.7819 41.1797V41.7109L67.522 59.1845V58.6539Z" fill="#008DD2"/>
<path d="M67.522 58.1225L97.7819 40.6504V41.1796L67.522 58.6538V58.1232" fill="#008DD2"/>
<path d="M67.522 57.5939L97.7819 40.1211V40.6503L67.522 58.1231V57.5939Z" fill="#008DD2"/>
<path d="M67.522 57.066L97.7819 39.5918V40.1224L67.522 57.5959V57.0653" fill="#008DD3"/>
<path d="M67.522 56.5504L97.7819 39.0762V39.5916L67.522 57.0651V56.5497" fill="#008DD3"/>
<path d="M67.522 56.0204L97.5868 38.6582H97.7819V39.0761L67.522 56.5496V56.0204Z" fill="#008DD3"/>
<path d="M67.522 55.4892L96.6803 38.6582H97.5874L67.522 56.0204V55.4898" fill="#008ED3"/>
<path d="M67.522 54.958L95.7614 38.6562H96.6809L67.5227 55.4872V54.9566" fill="#008ED3"/>
<path d="M67.522 54.4288L94.8542 38.6562H95.7614L67.522 54.958V54.4288Z" fill="#008ED3"/>
<path d="M67.522 53.8969L93.9333 38.6562H94.8542L67.522 54.4288V53.8976" fill="#008ED3"/>
<path d="M67.522 53.3677L93.0144 38.6562H93.934L67.5227 53.8969V53.3677" fill="#008ED3"/>
<path d="M67.522 52.8385L92.1079 38.6562H93.0151L67.5227 53.3677V52.8385" fill="#008ED3"/>
<path d="M67.522 52.3079L91.187 38.6562H92.1079L67.522 52.8385V52.3079Z" fill="#008ED3"/>
<path d="M67.522 51.78L90.2661 38.6582H91.187L67.522 52.3092V51.78Z" fill="#008ED3"/>
<path d="M67.522 51.2646L89.3596 38.6582H90.2668L67.522 51.78V51.2646Z" fill="#008ED3"/>
<path d="M67.522 50.7333L88.4394 38.6582H89.3603L67.522 51.2646V50.734" fill="#008ED3"/>
<path d="M67.522 50.2041L87.5191 38.6582H88.44L67.5227 50.7333V50.2041" fill="#008ED3"/>
<path d="M67.522 49.673L86.614 38.6562H87.5198L67.5227 50.2022V49.673" fill="#008ED3"/>
<path d="M67.522 49.1424L85.6931 38.6562H86.614L67.522 49.673V49.1424Z" fill="#008ED3"/>
<path d="M67.522 48.6132L84.7859 38.6562H85.6931L67.522 49.1424V48.6132Z" fill="#008ED3"/>
<path d="M67.522 48.0834L83.865 38.6562H84.7859L67.522 48.6132V48.0841" fill="#008ED3"/>
<path d="M67.522 47.5528L82.9454 38.6562H83.8663L67.5233 48.0834V47.5528" fill="#008ED3"/>
<path d="M67.522 47.0236L82.0245 38.6562H82.9454L67.522 47.5528V47.0236Z" fill="#008ED3"/>
<path d="M67.522 46.495L81.118 38.6582H82.0252L67.522 47.0242V46.4936" fill="#008ED3"/>
<path d="M67.522 45.9775L80.1978 38.6582H81.1187L67.522 46.495V45.9782" fill="#008ED3"/>
<path d="M67.522 45.4483L79.2913 38.6582H80.1984L67.5227 45.9775V45.4483" fill="#008ED3"/>
<path d="M67.522 44.9191L78.3703 38.6582H79.2913L67.522 45.4483V44.9191Z" fill="#008ED3"/>
<path d="M78.3696 38.6562L67.5212 44.9172V38.6562H78.3696Z" fill="#008ED3"/>
<path d="M84.1301 56.3533L87.9925 54.1211V55.8805L87.1699 56.3547H84.1301" fill="#3BB2E4"/>
<path d="M81.0898 56.3533L87.9927 52.3789V54.1211L84.1303 56.3533H81.0898Z" fill="#3BB2E5"/>
<path d="M78.0645 56.3528L87.9933 50.6211V52.3791L81.0904 56.3535H78.0645" fill="#3AB3E5"/>
<path d="M75.0242 56.3523L87.9927 48.8633V50.6199L78.0639 56.3516H75.0242" fill="#39B3E6"/>
<path d="M71.9824 56.353L87.9921 47.1211V48.864L75.0235 56.353H71.9824Z" fill="#39B4E6"/>
<path d="M68.9585 56.3525L87.9935 45.3633V47.1199L71.9838 56.3518H68.9585" fill="#39B4E6"/>
<path d="M68.4553 54.8894L87.9927 43.6074V45.3647L68.9577 56.354H68.456V54.8901" fill="#38B5E7"/>
<path d="M68.4553 53.1453L87.9927 41.8633V43.6069L68.4553 54.8889V53.1453Z" fill="#38B5E7"/>
<path d="M68.4553 51.3894L87.9927 40.1074V41.8641L68.4553 53.1461V51.3894Z" fill="#38B5E7"/>
<path d="M68.4553 49.6316L85.3426 39.8828H87.9927V40.1062L68.4553 51.3882V49.6309" fill="#38B5E7"/>
<path d="M68.4553 47.89L82.3036 39.8848H85.3426L68.4553 49.6328V47.89Z" fill="#38B5E7"/>
<path d="M68.4553 46.13L79.2762 39.8828H82.3036L68.4553 47.888V46.1286" fill="#38B5E7"/>
<path d="M68.4553 44.3727L76.2364 39.8828H79.2762L68.4553 46.13V44.3734" fill="#38B5E7"/>
<path d="M76.2365 39.8828L68.4553 44.3727V39.8828H76.2365Z" fill="#38B5E7"/>
<path d="M65.7199 94.8135C65.7199 94.8135 86.3228 98.5772 91.2021 78.8966C91.8715 75.1033 89.9822 75.5644 88.4352 77.766C86.8881 79.9676 72.5926 89.2946 65.8539 89.7111L65.7051 94.8135" fill="#0072A9"/>
<path d="M85.356 76.9193C78.6619 86.1125 70.7034 84.4017 61.3615 75.7292C51.6625 66.655 58.1186 89.2213 62.0755 90.1287C67.877 91.4675 70.1976 92.7617 78.0818 90.9617C85.5196 89.2361 89.1344 83.9702 90.6815 80.2067C93.255 73.9589 88.8221 72.1738 85.3858 76.934" fill="#F6921E"/>
<path d="M4.35786 61.5957C21.7178 75.5045 38.6761 78.2119 49.2081 78.2119C52.1238 78.2119 54.5634 78.0037 56.3485 77.7657C56.1998 76.5756 56.1997 75.5344 56.4229 74.7906C56.0063 74.7162 55.5601 74.6716 55.0543 74.6716L54.5485 74.6864L45.7124 75.1327C25.4814 75.1327 14.1758 67.7841 4.32812 61.7446M56.4377 74.8053C56.2295 75.5491 56.2146 76.5906 56.3634 77.7807L60.0377 77.126C60.0377 77.126 59.1451 75.2963 56.4377 74.8203M88.4205 75.8615C88.1974 75.8615 87.9743 75.9805 87.766 76.2483C83.3033 82.3771 79.2422 84.3855 75.8654 84.3855C74.4076 84.3855 72.9944 84.0432 71.6407 83.4928C73.1581 84.4678 74.9246 84.9845 76.7282 84.9804C83.5264 84.9804 89.2833 77.721 89.2833 77.721C89.9378 76.8731 89.2833 75.8318 88.5842 75.8318" fill="#FAB859"/>
<path d="M56.4343 127.683L62.4444 118.199V127.683H56.4343Z" fill="#D8711C"/>
<path d="M54.8447 127.684L62.4444 115.705V118.229L56.4481 127.684H54.8447Z" fill="#D8711C"/>
<path d="M53.2407 127.684L62.4431 113.18V115.705L54.8434 127.684H53.24" fill="#DC751C"/>
<path d="M51.6367 127.684L62.4445 110.656V113.18L53.2422 127.684H51.6374" fill="#DF791C"/>
<path d="M50.0339 127.683L62.4444 108.133V110.655L51.6366 127.683H50.0339" fill="#E27C1D"/>
<path d="M48.4368 127.682L62.4513 105.607V108.132L50.0408 127.683H48.4368" fill="#E57F1D"/>
<path d="M46.8257 127.683L62.4443 103.084V105.608L48.4297 127.682H46.8257" fill="#E6801D"/>
<path d="M45.2217 127.683L62.4444 100.545V103.084L46.8257 127.683H45.2217Z" fill="#E8821D"/>
<path d="M43.6191 127.683L62.4452 98.0352V100.545L45.2225 127.683H43.6191" fill="#EA851D"/>
<path d="M42.0151 127.684L62.4446 95.498V98.0361L43.6185 127.684H42.0151" fill="#EC871D"/>
<path d="M40.4096 127.683L62.4431 92.9727V95.4976L42.0137 127.683H40.4089" fill="#ED881D"/>
<path d="M38.8069 127.683L62.4444 90.4492V92.9728L40.4109 127.683H38.8076" fill="#EE8A1D"/>
<path d="M37.2034 127.684L62.4443 87.9258V90.4501L38.8067 127.684H37.2034" fill="#EF8B1D"/>
<path d="M35.5986 127.683L62.4429 85.4004V87.9247L37.202 127.683H35.5986" fill="#F18D1D"/>
<path d="M33.9961 127.683L62.4444 82.877V85.4006L35.6002 127.683H33.9968" fill="#F28E1D"/>
<path d="M32.3918 127.683L62.4443 80.3535V82.8757L33.9959 127.682H32.3918" fill="#F38F1D"/>
<path d="M30.7878 127.682L61.5509 79.25H62.4443V80.3531L32.3919 127.682H30.7878Z" fill="#F38F1D"/>
<path d="M29.1853 127.682L59.949 79.25H61.5517L30.7879 127.682H29.1846" fill="#F5901E"/>
<path d="M28.8362 125.704L58.3436 79.252H59.9483L29.1846 127.684H28.8362V125.705" fill="#F5911D"/>
<path d="M28.8362 123.18L56.7402 79.25H58.3436L28.8362 125.702V123.178" fill="#F6921E"/>
<path d="M28.8362 120.654L55.1375 79.25H56.7409L28.8369 123.18V120.655" fill="#F6921E"/>
<path d="M28.8361 118.13L53.5327 79.252H55.1368L28.8354 120.656V118.131" fill="#F6921E"/>
<path d="M28.8361 115.606L51.928 79.25H53.5321L28.8354 118.128V115.606" fill="#F6921E"/>
<path d="M28.8362 113.069L50.3254 79.252H51.9287L28.8369 115.608V113.069" fill="#F6921E"/>
<path d="M28.8362 110.557L48.722 79.25H50.3254L28.8362 113.068V110.558" fill="#F6921E"/>
<path d="M28.8362 108.019L47.1172 79.25H48.722L28.8362 110.557V108.019Z" fill="#F6921E"/>
<path d="M28.8362 105.51L45.5146 79.25H47.1172L28.8362 108.019V105.51Z" fill="#F6921E"/>
<path d="M28.8362 102.972L43.9105 79.25H45.5146L28.8362 105.51V102.973" fill="#F6921E"/>
<path d="M28.8362 100.447L42.3064 79.25H43.9105L28.8362 102.972V100.447Z" fill="#F6921E"/>
<path d="M28.8362 97.9228L40.7037 79.25H42.3064L28.8362 100.447V97.9228Z" fill="#F6921E"/>
<path d="M28.8362 95.3992L39.099 79.25H40.7037L28.8362 97.9228V95.3992Z" fill="#F6921E"/>
<path d="M28.8362 92.8749L37.4956 79.25H39.099L28.8362 95.3985V92.8742" fill="#F6921E"/>
<path d="M37.4956 79.25L28.8362 92.8749V79.25H37.4956Z" fill="#F6921E"/>
<path d="M30.5094 83.8945C28.754 91.1539 27.1475 100.674 29.6763 109.778C28.8582 104.572 29.3342 98.1752 31.6995 90.5886C32.1973 88.722 32.7982 86.8846 33.4994 85.0846L30.5243 83.9243" fill="#FAB859"/>
<path d="M34.0237 119.483L34.3316 119.023V119.483H34.0237Z" fill="#FAB858"/>
<path d="M28.8362 118.968L34.3308 110.322V119.024L34.0229 119.483H28.8362V118.968Z" fill="#FAB858"/>
<path d="M28.8362 110.279L34.3308 101.619V110.321L28.8362 118.967V110.279Z" fill="#FAB858"/>
<path d="M28.8362 101.577L34.3308 92.9316V101.62L28.8362 110.279V101.577" fill="#FAB858"/>
<path d="M28.8362 92.8772L30.3138 90.5625H34.3308V92.9322L28.8362 101.578V92.8772Z" fill="#FAB858"/>
<path d="M30.3138 90.5547L28.8362 92.8694V90.5547H30.3138Z" fill="#FAB858"/>
</g>
<defs>
<clipPath id="clip0_183_744">
<rect width="128" height="128" fill="white"/>
</clipPath>
</defs>
</svg>
