<svg width="128" height="128" viewBox="0 0 128 128" fill="none" xmlns="http://www.w3.org/2000/svg">
<path d="M104 0H24C10.7452 0 0 10.7452 0 24V104C0 117.255 10.7452 128 24 128H104C117.255 128 128 117.255 128 104V24C128 10.7452 117.255 0 104 0Z" fill="url(#paint0_linear_183_1789)"/>
<path d="M83.7692 38C76.1841 38 68.9781 41.2474 64.0003 46.96C54.3766 36.0326 37.7129 34.9659 26.7855 44.5896C15.8581 54.2133 14.7915 70.877 24.4152 81.8044C34.0389 92.7318 50.7026 93.7985 61.63 84.1748C62.4596 83.44 63.2655 82.6341 64.0003 81.8044C73.624 92.7318 90.2878 93.7748 101.215 84.1511C112.143 74.5274 113.186 57.8637 103.562 46.9363C98.5603 41.2711 91.3544 38 83.7692 38ZM60.5396 76.8741C53.6418 85.8815 40.747 87.5881 31.7396 80.6904C22.7322 73.7926 21.0255 60.8978 27.9233 51.8904C34.8211 42.883 47.7159 41.1763 56.7233 48.0741C61.7959 51.9615 64.7589 57.9822 64.7589 64.3822C64.7826 68.9096 63.2892 73.2948 60.5396 76.8741ZM94.6729 74.3615H88.51L84.4803 64.5007L80.5455 74.3615H74.3826L67.9826 54.403H75.0226L78.0092 64.477L81.7544 54.403H87.2774L91.0226 64.4533L94.0092 54.3793H101.097L94.6729 74.3615ZM44.99 53.8815H33.5411V74.883H44.99C50.8922 74.883 56.9366 71.5407 56.9366 64.3822C56.9366 57.5319 51.4374 53.8815 44.99 53.8815ZM44.3737 68.72H39.9411V59.76H44.3737C48.4507 59.76 49.9203 62.0356 49.9203 64.24C49.9203 66.4444 48.4744 68.72 44.3737 68.72Z" fill="white"/>
<defs>
<linearGradient id="paint0_linear_183_1789" x1="35.9441" y1="141.083" x2="92.0559" y2="-13.0826" gradientUnits="userSpaceOnUse">
<stop stop-color="#0064B4"/>
<stop offset="0.06" stop-color="#006CBD"/>
<stop offset="0.3" stop-color="#0085DA"/>
<stop offset="0.54" stop-color="#0097EE"/>
<stop offset="0.77" stop-color="#00A1FB"/>
<stop offset="1" stop-color="#00A5FF"/>
</linearGradient>
</defs>
</svg>
