<svg width="128" height="128" viewBox="0 0 128 128" fill="none" xmlns="http://www.w3.org/2000/svg">
<path d="M0 24C0 10.7452 10.7452 0 24 0H104C117.255 0 128 10.7452 128 24V104C128 117.255 117.255 128 104 128H24C10.7452 128 0 117.255 0 104V24Z" fill="url(#paint0_linear_264_1730)"/>
<path d="M49.5332 37.8503C49.5332 38.7765 49.4613 40.3203 48.5447 41.3193C47.5562 42.2455 46.0465 42.3182 45.1478 42.3182H35.4603C32.6565 42.3182 30.985 42.3182 29.8707 42.4816C29.2596 42.5543 28.5047 42.8631 28.1273 43.0265C27.9656 43.0992 27.9656 43.0265 28.0554 42.9539L50.1443 20.0513C50.2162 19.9786 50.3061 19.9786 50.2162 20.1239C50.0545 20.5053 49.7669 21.2863 49.695 21.8856C49.5332 23.048 49.5332 24.7371 49.5332 27.5886V37.8503ZM70.0405 107.085C67.4704 105.396 66.1044 103.144 65.5832 101.763C65.044 100.419 64.7564 98.9844 64.7564 97.5133C64.7564 91.102 69.9147 85.8895 76.2592 85.8713C78.1464 85.8713 79.6561 87.4151 79.6561 89.3403C79.6561 90.5935 78.9911 91.7377 77.9127 92.3552C77.5353 92.5913 76.9961 92.7366 76.6187 92.8274C76.2412 92.9001 74.8034 93.0635 74.1204 93.6811C73.3655 94.2986 72.7544 95.2975 72.7544 96.3872C72.7544 97.5496 73.2038 98.6212 73.9586 99.4022C75.3246 100.783 77.1399 101.563 79.0989 101.563C84.2572 101.545 88.427 97.2953 88.409 92.0828C88.409 87.3787 85.2997 83.2196 81.2198 81.367C80.6087 81.0583 79.6381 80.8222 78.7215 80.5861C77.9666 80.4226 77.2118 80.2955 76.4569 80.2047C73.2757 79.8233 65.3316 77.2805 64.7924 70.1064C64.7924 70.1064 62.4559 80.8948 57.7649 83.8189C57.3156 84.0551 56.7045 84.2912 56.0215 84.4365C55.3385 84.5999 54.5837 84.6726 54.35 84.6726C46.7115 85.1266 38.6056 82.6566 33.016 76.8083C33.016 76.8083 29.2237 73.6481 27.2646 64.7849C26.8153 62.6236 25.8987 58.7732 25.3774 55.1407C25.1438 53.8331 25.0719 52.8341 25 51.9079C25 48.1301 27.2646 45.5874 30.1403 45.206H45.5792C48.2212 45.206 49.7489 44.5158 50.7195 43.5895C52.0135 42.3545 52.3191 40.5746 52.3191 38.5041V22.2489C52.6965 19.3974 55.1948 17 58.8972 17H60.7125C61.4674 17 62.384 17.0726 63.2108 17.1635C63.8218 17.2361 64.3431 17.3996 65.2597 17.6357C69.8788 18.7981 70.8493 23.5747 70.8493 23.5747C70.8493 23.5747 79.5483 25.1185 83.9517 25.8813C88.1035 26.6442 98.402 27.3525 100.361 37.9048C104.98 63.0413 102.176 87.3969 101.961 87.3969C98.7076 111.153 79.3326 109.991 79.3326 109.991C76.0256 110.009 72.7724 109.01 70.0405 107.085ZM87.4384 56.5937C84.9402 56.3576 82.8194 57.3747 82.0645 59.2999C81.9027 59.6813 81.759 60.1535 81.8308 60.3715C81.9027 60.6076 82.0645 60.6802 82.2083 60.7529C83.1249 61.2251 84.6347 61.4431 86.8274 61.6792C89.0201 61.9153 90.5298 62.0606 91.5183 61.9153C91.6801 61.9153 91.8239 61.8426 91.9677 61.6065C92.1294 61.3704 92.0396 60.9163 92.0396 60.5168C91.8419 58.4463 89.9367 56.9025 87.4384 56.5937Z" fill="white"/>
<defs>
<linearGradient id="paint0_linear_264_1730" x1="64" y1="0" x2="64" y2="128" gradientUnits="userSpaceOnUse">
<stop stop-color="#1D63F0"/>
<stop offset="0.0001" stop-color="#00A82D"/>
</linearGradient>
</defs>
</svg>
