<svg width="128" height="128" viewBox="0 0 128 128" fill="none" xmlns="http://www.w3.org/2000/svg">
<rect width="128" height="128" rx="24" fill="url(#paint0_linear_264_3350)"/>
<g clip-path="url(#clip0_264_3350)">
<path d="M94.0208 101.224C80.465 105.362 67.6704 103.445 60.7001 101.607C60.5094 104.441 60.2028 105.626 59.743 106.086C59.2066 106.699 54.7635 109.226 52.3129 105.626C51.24 103.903 50.7035 100.8 50.3987 97.9662C34.6971 90.8426 27.4202 80.3487 27.1903 79.9656C26.8071 79.5824 23.2462 75.8682 26.8071 71.2718C30.1399 67.1335 41.1685 62.9612 51.0509 61.3144C51.4341 52.888 52.3537 46.3792 53.5407 43.5062C54.9576 40.0594 56.7764 43.123 58.367 45.4204C59.6698 47.1438 60.4736 54.5348 60.5502 60.434C66.9841 60.1274 70.8908 60.6043 78.0536 61.9667C87.4745 63.576 93.7552 68.4006 93.2579 73.8399C92.7981 79.2009 87.8969 81.4233 85.981 81.5766C84.0651 81.7299 81.0015 80.313 81.0015 80.313C78.8557 79.3167 80.8107 78.3988 83.3005 77.3259C86.0593 75.9857 85.4463 74.6454 85.4463 74.6454C84.45 71.58 72.2311 69.5365 60.0921 69.5365C60.0921 76.2394 60.3595 87.3446 60.5519 93.8177C69.055 95.427 75.4122 95.0813 75.4122 95.0813C75.4122 95.0813 106.434 94.2009 107.314 74.4002C108.288 54.5774 76.2927 35.5839 52.7369 29.6064C29.222 23.4416 15.8927 27.8063 14.7602 28.3802C13.4966 28.9933 14.6461 29.2232 14.6461 29.2232C14.6461 29.2232 15.9097 29.414 18.2224 30.1803C20.535 30.9467 18.6822 32.0945 18.6822 32.0945C14.6631 33.4569 10.1791 32.6684 9.31572 30.8308C8.43527 29.0308 9.88962 27.384 11.6148 24.9726C13.2241 22.4828 15.0616 22.5594 15.0616 22.5594C44.1487 12.4045 79.6902 30.5975 79.6902 30.5975C112.933 47.372 118.604 67.0961 118.007 74.7561C117.471 82.3004 114.561 95.0558 94.0702 101.26M30.0616 73.8399C26.768 75.3726 29.0653 77.8249 29.0653 77.8249C35.2693 84.4666 42.8527 88.6253 50.1313 91.2275C50.9743 79.7374 50.8977 75.64 50.8977 69.8549C39.6375 70.6213 33.127 72.4605 30.0633 73.8399" fill="black"/>
</g>
<defs>
<linearGradient id="paint0_linear_264_3350" x1="64" y1="0" x2="64" y2="128" gradientUnits="userSpaceOnUse">
<stop stop-color="white"/>
<stop offset="1" stop-color="#EEEEEE"/>
</linearGradient>
<clipPath id="clip0_264_3350">
<rect width="109" height="109" fill="white" transform="translate(9 9)"/>
</clipPath>
</defs>
</svg>
