<svg width="128" height="128" viewBox="0 0 128 128" fill="none" xmlns="http://www.w3.org/2000/svg">
<path d="M63.9955 35.7645C62.0001 30.7822 57.139 25.4015 48.0344 26.1406C36.4365 27.4014 32.8223 38.5161 34.5753 45.1467C29.956 42.0189 22.1016 40.6435 15.246 46.516C6.39418 55.3892 11.1289 67.389 15.995 70.2674C10.6321 69.7709 2.15623 73.3947 0.281179 82.874C-1.71351 94.6434 7.25847 101.505 15.995 101.505H112.873C122.976 101.505 128.581 92.7647 127.952 84.5222C126.961 73.7651 117.117 69.6378 111.748 70.5222C116.234 68.0192 122.225 56.2618 113.115 47.0188C105.883 40.14 96.6639 42.643 93.4223 45.6431C95.1697 39.8967 92.3041 28.0181 80.5747 26.1394C79.7638 26.0486 78.9831 26 78.2392 26C69.2853 26.0013 65.2591 32.5466 63.9955 35.7645Z" fill="white"/>
<path d="M16.8595 48.3888C11.7449 53.0189 9.88331 63.5102 19.1035 69.6431L55.8869 94.8792L38.0518 54.0187C34.3145 44.3766 24.0903 42.274 16.8595 48.3888Z" fill="#F37021"/>
<path d="M48.5228 28.5218C42.5437 28.6437 33.5653 35.7638 37.5609 46.6364L56.0073 90.1403L62.4892 44.3825C63.9891 33.0128 55.3848 27.7642 48.5228 28.5218Z" fill="#CC004C"/>
<path d="M65.3681 42.6385H68.8561C68.8561 42.6385 70.7187 42.6385 70.9722 43.5172C69.5996 44.6381 65.8636 44.7786 66.3597 50.7659L72.2232 90.1353L90.5436 46.5172C94.2909 36.7781 86.4252 28.6445 79.4479 28.3959C79.1221 28.3725 78.795 28.3535 78.4564 28.3535C72.194 28.3533 65.0174 32.9047 65.3681 42.6385Z" fill="#6460AA"/>
<path d="M89.8061 54.3887L72.478 94.759L109.251 69.3897C117.727 63.3773 116.36 53.765 111.615 49.0136C109.626 46.7773 105.974 45.0498 102.105 45.0498C97.5337 45.0489 92.6419 47.4733 89.8061 54.3887Z" fill="#0089D0"/>
<path d="M105.133 75.1342L70.5994 99.2558H113.121C121.844 99.2558 127.451 90.2612 124.958 82.007C123.289 76.8187 118.351 72.7461 112.619 72.7402C110.206 72.7411 107.647 73.4679 105.133 75.1342Z" fill="#0DB14B"/>
<path d="M15.8684 99.2559H57.7622L23.2195 75.1343C15.2393 70.007 6.26625 73.0072 3.02683 81.5158C0.280918 91.2558 7.13693 99.2559 15.8684 99.2559Z" fill="#FCB711"/>
</svg>
