<svg width="128" height="128" viewBox="0 0 128 128" fill="none" xmlns="http://www.w3.org/2000/svg">
<path d="M5.59519e-06 63.9985C2.50483e-06 99.3481 28.6538 128 63.999 128C99.3459 128 128 99.3481 128 63.9985C128 28.6542 99.3459 1.27538e-05 63.999 9.66364e-06C28.6538 6.57367e-06 8.68509e-06 28.6542 5.59519e-06 63.9985Z" fill="url(#paint0_linear_2800_3200)"/>
<path d="M32 43.848C32 40.0834 33.3011 36.2687 35.9039 32.4048C38.5059 28.5409 42.3041 25.341 47.2959 22.8044C52.288 20.2686 58.1121 19 64.7679 19C70.954 19 76.416 20.0608 81.1521 22.1802C85.8882 24.3007 89.546 27.1839 92.1281 30.8295C94.7091 34.4761 96 38.4385 96 42.7185C96 46.0873 95.2639 49.0402 93.7919 51.5757C92.3198 54.1124 90.5698 56.3018 88.5437 58.1442C86.5167 59.9872 82.8796 63.0884 77.6317 67.4477C76.1809 68.6765 75.0175 69.7567 74.1437 70.6877C73.2687 71.6192 72.6178 72.4711 72.1916 73.2435C71.7646 74.0164 71.4334 74.7891 71.1995 75.562C70.9645 76.3344 70.6126 77.6926 70.1437 79.634C69.3328 83.756 66.7937 85.8164 62.5278 85.8164C60.3088 85.8164 58.4418 85.143 56.9277 83.7952C55.4128 82.4481 54.6558 80.4467 54.6558 77.7913C54.6558 74.4623 55.2098 71.5791 56.3199 69.1421C57.429 66.7045 58.9008 64.5645 60.7358 62.7221C62.5697 60.8792 65.0449 58.6899 68.1598 56.1533C70.8899 53.9343 72.8639 52.2597 74.0799 51.1302C75.296 50.0006 76.3198 48.7432 77.152 47.3553C77.9839 45.9685 78.4001 44.4629 78.4001 42.8375C78.4001 39.6673 77.1302 36.9924 74.592 34.8124C72.053 32.6334 68.7779 31.5429 64.7679 31.5429C60.0738 31.5429 56.6178 32.6426 54.3998 34.8422C52.1809 37.0417 50.3039 40.2814 48.7677 44.5614C47.3169 49.0402 44.5647 51.2787 40.5116 51.2787C38.1214 51.2787 36.1055 50.4965 34.4636 48.9307C32.8211 47.3653 32 45.6712 32 43.848ZM63.2321 109C60.6289 109 58.357 108.217 56.416 106.652C54.4741 105.087 53.5038 102.897 53.5038 100.083C53.5038 97.5864 54.4417 95.4864 56.3199 93.782C58.1968 92.0784 60.5008 91.2259 63.2318 91.2259C65.9199 91.2259 68.1808 92.0784 70.0158 93.782C71.8497 95.4864 72.7678 97.5864 72.7678 100.083C72.7678 102.858 71.8077 105.037 69.8876 106.622C67.9676 108.207 65.7492 109 63.2321 109Z" fill="url(#paint1_linear_2800_3200)"/>
<defs>
<linearGradient id="paint0_linear_2800_3200" x1="64" y1="128" x2="64" y2="9.66373e-06" gradientUnits="userSpaceOnUse">
<stop stop-color="#118068"/>
<stop offset="1" stop-color="#29E2BB"/>
</linearGradient>
<linearGradient id="paint1_linear_2800_3200" x1="64" y1="19" x2="64" y2="109" gradientUnits="userSpaceOnUse">
<stop stop-color="#3D3D3D"/>
<stop offset="1"/>
</linearGradient>
</defs>
</svg>
