<svg width="128" height="128" viewBox="0 0 128 128" fill="none" xmlns="http://www.w3.org/2000/svg">
<path fill-rule="evenodd" clip-rule="evenodd" d="M120.935 33.141L120.935 33.8396V33.8422C120.935 34.1283 120.935 34.2879 120.935 34.4476C120.931 37.0524 119.409 38.8199 117.11 38.8899C114.801 38.9602 113.124 37.2834 113.034 34.6926C112.832 28.8661 111.194 23.5317 107.653 18.8562C102.472 12.0163 95.5355 8.45681 87.0047 7.92998C86.8353 7.91952 86.6655 7.91602 86.4957 7.91252C86.2783 7.90803 86.0609 7.90355 85.8448 7.88448C84.8015 7.84567 83.8158 7.39616 83.1024 6.63388C82.389 5.87159 82.0058 4.8583 82.0361 3.81471C82.0469 3.29639 82.1611 2.78544 82.3719 2.31181C82.5827 1.83817 82.8859 1.41137 83.2638 1.05641C83.6416 0.70145 84.0865 0.425476 84.5724 0.244656C85.0583 0.0638352 85.5754 -0.0181944 86.0933 0.00337294C93.8359 -0.0503226 101.363 2.54947 107.422 7.36995C115.918 14.0581 120.281 22.9245 120.935 33.141ZM46.5241 31.3898H48.855C51.1778 31.3901 53.5007 31.388 55.8235 31.3859C61.3164 31.3809 66.8092 31.376 72.302 31.4019C74.6745 31.3937 76.9946 32.1003 78.9598 33.4297C80.925 34.7591 82.4442 36.6495 83.3195 38.8548C85.1101 43.4501 83.8889 49.228 80.4458 52.4629C78.5451 54.2486 76.2477 54.8584 73.6964 54.8516C67.7338 54.8359 61.7712 54.8393 55.8086 54.8428H55.805C53.501 54.8441 51.197 54.8454 48.893 54.8456H46.6478C46.6329 55.1064 46.6157 55.3492 46.5993 55.58V55.5801C46.5666 56.0418 46.5373 56.4555 46.5369 56.8692C46.5357 58.3371 46.5341 59.8051 46.5325 61.273C46.5257 67.7499 46.5188 74.2268 46.5364 80.7036C46.5739 94.4577 56.6362 104.531 70.3887 104.599C71.8792 104.607 73.3699 104.602 74.8605 104.598H74.8634C77.0538 104.592 79.244 104.586 81.4339 104.617C84.5171 104.64 87.4663 105.881 89.6393 108.068C91.8123 110.256 93.0333 113.213 93.0365 116.296C93.0397 119.38 91.8249 122.34 89.6564 124.532C87.4879 126.724 84.5414 127.97 81.4581 128C80.156 127.985 78.8507 127.98 77.5442 127.975H77.544C72.0631 127.955 66.5618 127.934 61.1859 127.144C42.8794 124.453 26.9008 108.296 23.9456 90.0561C23.4425 86.807 23.1763 83.5257 23.149 80.238C23.0683 74.7675 23.0841 69.2956 23.0999 63.8236C23.1063 61.6088 23.1127 59.3939 23.1127 57.1792V54.7899C18.1299 55.2184 13.6695 54.4657 10.4833 50.3279C8.77548 48.188 7.89715 45.5037 8.0096 42.7682C8.14805 38.9726 9.84708 36.0066 12.8179 33.685C15.8232 31.3364 19.3752 31.3206 23.1147 31.3476C23.1147 29.8084 23.1117 28.2847 23.1087 26.7718L23.1087 26.7707C23.102 23.3794 23.0954 20.042 23.123 16.7049C23.1315 13.6382 24.3441 10.6975 26.4998 8.51628C28.6554 6.33504 31.5816 5.0878 34.648 5.04323C37.7144 4.99865 40.6756 6.16031 42.8938 8.27796C45.1119 10.3956 46.4095 13.2998 46.5071 16.365C46.5686 19.7318 46.5536 23.0999 46.5382 26.5693C46.5312 28.1519 46.5241 29.7556 46.5241 31.3898ZM101.678 38.8884C104.03 38.7745 105.473 36.962 105.427 34.1822C105.262 24.2616 96.5251 15.587 86.6076 15.4964C83.8813 15.4715 82.0703 17.0119 82.0361 19.3846C82.003 21.6833 83.6428 23.2305 86.2986 23.4064C92.6115 23.8247 97.1026 28.2939 97.5178 34.5709C97.7 37.3266 99.3154 39.003 101.678 38.8884Z" fill="url(#paint0_linear_2800_1513)"/>
<defs>
<linearGradient id="paint0_linear_2800_1513" x1="64.4675" y1="0" x2="64.4675" y2="128" gradientUnits="userSpaceOnUse">
<stop stop-color="#FF8557"/>
<stop offset="1" stop-color="#FF4802"/>
</linearGradient>
</defs>
</svg>
