<svg width="128" height="128" viewBox="0 0 128 128" fill="none" xmlns="http://www.w3.org/2000/svg">
<rect width="128" height="128" rx="24" fill="#1877F2"/>
<path d="M93.1679 90.335H34.8338C28.8592 90.335 24 85.4747 24 79.5006V37.8332C24 31.8609 28.8592 27 34.8338 27H93.1667C99.1408 27 104 31.8592 104 37.8332V79.5006C104 85.4735 99.1408 90.335 93.1679 90.335ZM34.8338 32.0015C31.6164 32.0015 28.9998 34.6194 28.9998 37.835V79.5018C28.9998 82.7174 31.6164 85.3353 34.8338 85.3353H93.1667C96.3841 85.3353 99.0002 82.7174 99.0002 79.5018V37.8332C99.0002 34.6176 96.3841 31.9998 93.1667 31.9998H34.8338V32.0015Z" fill="white"/>
<path fill-rule="evenodd" clip-rule="evenodd" d="M76.108 60.8139L57.8186 71.6408C56.1368 72.6383 54.0017 71.4351 54.0017 69.4953V47.8375C54.0017 45.8953 56.1368 44.6933 57.8186 45.6914L76.108 56.5189C77.7463 57.4897 77.7463 59.8431 76.108 60.8139Z" fill="white"/>
<path d="M79.608 100.334H48.3974C47.3505 100.334 46.5017 99.4857 46.5017 98.4393V97.2298C46.5017 96.1823 47.3505 95.3335 48.3974 95.3335H79.6086C80.6555 95.3335 81.5037 96.1823 81.5037 97.2298V98.4393C81.5037 99.4862 80.6549 100.334 79.608 100.334Z" fill="white"/>
</svg>
