<svg width="128" height="128" viewBox="0 0 128 128" fill="none" xmlns="http://www.w3.org/2000/svg">
<path d="M0 24C0 10.7452 10.7452 0 24 0H104C117.255 0 128 10.7452 128 24V104C128 117.255 117.255 128 104 128H24C10.7452 128 0 117.255 0 104V24Z" fill="#050033"/>
<path d="M109 111.52H86.533L70.02 77.0777C61.0156 81.977 55.8534 93.3306 46.7024 100.841C42.0389 104.655 36.5834 108.058 29.8081 110.376C26.7284 111.402 21.5076 112.752 19.5425 112.957C18.7212 113.045 18.1346 113.016 18.0173 112.693C17.9293 112.458 18.164 112.282 19.0145 111.872C20.0118 111.402 24.1474 109.671 26.7284 107.882C29.9548 105.623 31.8026 103.188 31.9492 101.31C31.0693 98.1712 24.734 91.2476 31.216 78.4859C33.5331 73.9093 35.5569 70.6235 36.994 67.3084C38.6365 63.4945 39.8098 58.1552 40.2204 54.1653C40.2497 53.9306 40.279 53.9306 40.4257 54.0773C43.564 57.275 55.7655 69.8314 54.0056 82.3291C58.0532 80.7742 65.0925 76.0216 68.3482 73.4986C71.7798 70.8289 74.0089 68.0418 77.6459 67.9831C80.9015 67.9245 81.1655 69.4793 83.7759 69.8314C84.4212 69.9194 85.3598 69.8021 85.8584 69.538C86.0637 69.45 86.005 69.2153 85.7117 69.1566C82.1921 68.3352 81.3415 65.4601 76.766 65.4601C72.6597 65.4601 69.4041 69.2153 67.0576 70.7702L55.5308 46.7136C50.6326 36.6803 52.0992 29.3753 62.6874 15L109 111.52Z" fill="url(#paint0_linear_264_3306)"/>
<defs>
<linearGradient id="paint0_linear_264_3306" x1="18" y1="15" x2="109.259" y2="112.938" gradientUnits="userSpaceOnUse">
<stop stop-color="#FFF0CF"/>
<stop offset="0.875483" stop-color="#D8B464"/>
</linearGradient>
</defs>
</svg>
