<svg width="128" height="128" viewBox="0 0 128 128" fill="none" xmlns="http://www.w3.org/2000/svg">
<rect width="128" height="128" rx="24" fill="url(#paint0_linear_183_704)"/>
<g clip-path="url(#clip0_183_704)">
<path fill-rule="evenodd" clip-rule="evenodd" d="M13.2315 82H16.0019V67.2H13.2315V82ZM23.3868 81.778H25.8682V72.4401L36.3126 82V67.422H33.8382V76.6003L23.3868 67.2V81.778ZM41.977 78.1936C43.3275 79.2458 44.9486 79.854 46.6864 79.854C48.3792 79.854 49.5667 79.2713 49.5667 77.9843C49.5667 76.8628 48.8093 76.4234 47.4831 75.932L45.3359 75.1862C43.3564 74.4832 41.851 73.4565 41.851 71.0966C41.851 68.5725 44.13 67.2 46.8553 67.2C48.5249 67.2 50.0465 67.6197 51.2351 68.3632V70.8665C49.9991 69.953 48.6463 69.324 46.9084 69.324C45.4123 69.324 44.2942 69.8825 44.2942 71.0468C44.2942 72.099 44.996 72.5199 46.232 72.9431L48.6243 73.7825C50.9426 74.5977 52.0064 75.8615 52.0064 77.9404C52.0064 80.5558 49.7054 82 46.6864 82C44.7023 82 43.0154 81.445 41.977 80.7443V78.1936ZM58.4698 82H61.239V67.2H58.4698V82ZM74.2306 79.7603C77.3525 79.7603 79.021 77.7577 79.021 74.5965C79.021 71.4122 77.3514 69.4165 74.2306 69.4165H71.1434V79.7603H74.2306ZM68.6228 67.2H74.3231C78.7111 67.2 81.5485 70.0906 81.5485 74.5965C81.5485 79.1059 78.7111 82 74.3231 82H68.6228V67.2ZM95.3981 67.2V69.4165H88.6953V72.9778H94.7067V75.1689H88.6942V79.7603H95.3981V82H86.1654V67.2H95.3981ZM105.229 73.9016H107.977C109.604 73.9016 110.521 73.009 110.521 71.6365C110.521 70.2641 109.604 69.3703 107.977 69.3703H105.229V73.9028V73.9016ZM105.229 75.9944V82H102.783V67.2H108.023C111.011 67.2 112.944 68.739 112.944 71.6365C112.944 74.1144 111.871 75.5377 109.585 75.9031L114.785 82H112.003L106.969 75.9956H105.23L105.229 75.9944ZM12.2637 52.6197C13.3471 52.2231 14.1912 51.0333 14.1912 49.3972C14.1912 46.6708 12.2637 45.2578 9.18 45.2578H4V60.4776H9.661C12.7447 60.4776 14.6722 58.9652 14.6722 56.115C14.6722 54.5032 13.6605 53.0903 12.2637 52.6197ZM6.43275 51.6531V47.4894H9.15688C10.8681 47.4894 11.7827 48.1092 11.7827 49.5464C11.7827 50.9836 10.867 51.6531 9.15688 51.6531H6.43275ZM6.43275 53.7852H9.61244C11.3006 53.7852 12.2152 54.6269 12.2152 56.0156C12.2152 57.3788 11.2994 58.2472 9.61359 58.2472H6.43391V53.784L6.43275 53.7852ZM25.9745 60.725C29.5161 60.725 31.9015 58.5929 31.9015 54.4292V45.2578H29.3959V54.1309C29.3959 57.0562 28.1911 58.4206 25.9745 58.4206C23.758 58.4206 22.5543 57.0562 22.5543 54.1309V45.2578H20.0488V54.4038C20.0488 58.5929 22.4572 60.725 25.9745 60.725ZM37.8007 59.3861C38.8367 60.1307 40.5236 60.725 42.4985 60.725C45.5105 60.725 47.7988 59.1872 47.7988 56.4122C47.7988 54.2061 46.7396 52.8671 44.426 51.9999L42.0418 51.1073C40.8127 50.6622 40.1143 50.2158 40.1143 49.1001C40.1143 47.8606 41.222 47.2663 42.7159 47.2663C44.4503 47.2663 45.7996 47.9346 47.0287 48.9023V46.2488C45.8482 45.4567 44.33 45.0104 42.6673 45.0104C39.9455 45.0104 37.6804 46.4731 37.6804 49.1498C37.6804 51.6531 39.1743 52.7434 41.1492 53.4869L43.294 54.2801C44.6191 54.8004 45.366 55.2721 45.366 56.4619C45.366 57.8251 44.1855 58.4449 42.4985 58.4449C40.7641 58.4449 39.15 57.7997 37.8007 56.6851V59.3861ZM56.7516 45.2578H54.2472V60.4764H56.7516V45.2578ZM63.8995 60.4579H66.3138V50.5569L76.4749 60.6938V45.2347H74.0676V54.9669L63.8995 45V60.4579ZM92.1317 45.2613V47.5403H85.6266V51.2033H91.4599V53.4568H85.6266V58.1778H92.1317V60.481H83.1708V45.2613H92.1317ZM97.965 59.3757C99.001 60.1203 100.687 60.7146 102.663 60.7146C105.674 60.7146 107.963 59.1779 107.963 56.4018C107.963 54.1957 106.903 52.8579 104.59 51.9895L102.205 51.0981C100.976 50.6518 100.277 50.2054 100.277 49.0897C100.277 47.8502 101.385 47.2558 102.879 47.2558C104.613 47.2558 105.963 47.9253 107.192 48.8919V46.2395C106.011 45.4463 104.493 45 102.83 45C100.109 45 97.8436 46.4627 97.8436 49.1394C97.8436 51.6427 99.3374 52.733 101.312 53.4765L103.457 54.2697C104.782 54.79 105.529 55.2617 105.529 56.4515C105.529 57.8147 104.35 58.4345 102.662 58.4345C100.927 58.4345 99.3132 57.7904 97.965 56.6747V59.3757ZM113.096 59.3757C114.132 60.1203 115.819 60.7146 117.794 60.7146C120.806 60.7146 123.094 59.1779 123.094 56.4018C123.094 54.1957 122.033 52.8579 119.721 51.9895L117.336 51.0981C116.108 50.6518 115.408 50.2054 115.408 49.0897C115.408 47.8502 116.517 47.2558 118.01 47.2558C119.744 47.2558 121.095 47.9253 122.323 48.8919V46.2395C121.143 45.4463 119.625 45 117.962 45C115.239 45 112.975 46.4627 112.975 49.1394C112.975 51.6427 114.469 52.733 116.444 53.4765L118.589 54.2697C119.914 54.79 120.661 55.2617 120.661 56.4515C120.661 57.8147 119.48 58.4345 117.794 58.4345C116.059 58.4345 114.445 57.7904 113.096 56.6747V59.3757Z" fill="#111111"/>
</g>
<defs>
<linearGradient id="paint0_linear_183_704" x1="64" y1="0" x2="64" y2="128" gradientUnits="userSpaceOnUse">
<stop stop-color="white"/>
<stop offset="1" stop-color="#EEEEEE"/>
</linearGradient>
<clipPath id="clip0_183_704">
<rect width="119.094" height="37" fill="white" transform="translate(4 45)"/>
</clipPath>
</defs>
</svg>
