<svg width="128" height="128" viewBox="0 0 128 128" fill="none" xmlns="http://www.w3.org/2000/svg">
<path d="M0 24C0 10.7452 10.7452 0 24 0H104C117.255 0 128 10.7452 128 24V104C128 117.255 117.255 128 104 128H24C10.7452 128 0 117.255 0 104V24Z" fill="#006AC6"/>
<path fill-rule="evenodd" clip-rule="evenodd" d="M117.031 86.3881C114.901 89.0744 109.685 90.9907 109.685 90.9907L70.8792 104.929V94.6499L99.4376 84.4743C102.678 83.3132 103.176 81.6717 100.542 80.8102C97.9125 79.9461 93.1516 80.1937 89.9082 81.3598L70.8792 88.0618V77.3936L71.976 77.0222C71.976 77.0222 77.4748 75.0762 85.2067 74.2196C92.9386 73.3679 102.406 74.3359 109.838 77.1534C118.214 79.8 119.157 83.7019 117.031 86.3881ZM74.5731 68.8842V42.5962C74.5731 39.5089 74.0037 36.6666 71.107 35.862C68.8887 35.1515 67.5122 37.2113 67.5122 40.2962V106.128L49.7582 100.493V22C57.3069 23.4013 68.3044 26.7139 74.2166 28.7069C89.2522 33.869 94.3498 40.2937 94.3498 54.7697C94.3498 68.8793 85.64 74.227 74.5731 68.8842ZM17.1816 93.5754C8.58315 91.1541 7.15214 86.1084 11.0713 83.2018C14.6934 80.518 20.8532 78.4978 20.8532 78.4978L46.3094 69.4462V79.7654L27.991 86.3213C24.7551 87.4824 24.2574 89.1264 26.8867 89.988C29.5185 90.8495 34.282 90.6044 37.5228 89.4408L46.3094 86.252V95.4842C45.7523 95.5833 45.1309 95.6823 44.5565 95.7788C35.7674 97.2148 26.4064 96.6157 17.1816 93.5754ZM111.376 97.6629C112.488 97.6629 113.53 98.0937 114.315 98.8885C115.1 99.6708 115.533 100.716 115.533 101.825C115.533 102.939 115.1 103.979 114.315 104.761C113.53 105.551 112.488 105.982 111.376 105.982C110.264 105.982 109.224 105.551 108.437 104.761C107.652 103.979 107.222 102.939 107.222 101.825C107.222 99.5322 109.083 97.6629 111.376 97.6629ZM107.92 101.825C107.92 102.748 108.279 103.617 108.932 104.266C109.583 104.924 110.455 105.281 111.376 105.281C113.285 105.281 114.832 103.731 114.832 101.825C114.832 100.899 114.476 100.03 113.82 99.3787C113.168 98.7201 112.297 98.3661 111.376 98.3661C110.455 98.3661 109.583 98.7201 108.932 99.3787C108.279 100.03 107.92 100.899 107.92 101.825ZM112.631 99.5842C113.087 99.7847 113.317 100.171 113.317 100.721C113.317 101.003 113.258 101.24 113.136 101.426C113.05 101.56 112.926 101.669 112.787 101.763C112.896 101.827 112.993 101.904 113.064 101.993C113.163 102.122 113.22 102.327 113.228 102.607L113.25 103.199C113.258 103.357 113.267 103.479 113.292 103.553C113.317 103.662 113.364 103.731 113.423 103.753L113.485 103.783V103.85V103.951V104.053H113.384H112.649H112.589L112.559 104.001C112.535 103.952 112.517 103.895 112.5 103.82C112.488 103.753 112.475 103.637 112.468 103.459L112.431 102.724C112.421 102.469 112.334 102.31 112.171 102.226C112.069 102.179 111.901 102.157 111.673 102.157H110.413V103.952V104.053H110.309H109.71H109.608V103.952V99.5273V99.4258H109.71H111.757C112.109 99.4258 112.403 99.4777 112.631 99.5842ZM110.413 101.448H111.695C111.953 101.448 112.158 101.401 112.304 101.305C112.438 101.208 112.502 101.033 112.502 100.777C112.502 100.5 112.411 100.319 112.218 100.223C112.111 100.171 111.963 100.141 111.775 100.141H110.413V101.448Z" fill="white"/>
</svg>
