<svg width="128" height="128" viewBox="0 0 128 128" fill="none" xmlns="http://www.w3.org/2000/svg">
<g clip-path="url(#clip0_2863_9237)">
<path d="M0.899902 0.596015V4.75698V33.8853V38.0463H5.06087H9.22184V89.648H5.06087H0.899902V93.8089V122.934V127.097H5.06087H50.0022H54.1632V122.934V93.8089V89.648H50.0022H45.8412V69.0248L81.4433 125.165L82.6684 127.097H84.9575H123.241H127.402V122.935V93.8095V89.6485H123.241H119.08V38.0468H123.241H127.402V33.8859V4.75751V0.596539H123.241H78.2994H74.1384V4.75751V33.8859V38.0468H78.2994H82.4604V58.673L46.8643 2.51895L45.6391 0.587097H43.3505H5.06874H0.907546L0.899902 0.596015Z" fill="#E41C38"/>
<path d="M2.564 2.25972V4.75659V33.8849V36.3804H5.06087H10.8859V91.3122H5.06087H2.564V93.8091V122.934V125.433H5.06087H50.0022H52.4991V122.934V93.8091V91.3122H50.0022H44.1771V63.2929L82.8478 124.272L83.584 125.433H84.9569H123.24H125.737V122.934V93.8089V91.312H123.24H117.415V36.3802H123.24H125.737V33.8848V4.75644V2.25957H123.24H78.2988H75.8019V4.75644V33.8848V36.3802H78.2988H84.1239V64.4048L45.4517 3.41816L44.7169 2.25897H43.3426H5.06083H2.56396L2.564 2.25972Z" fill="white"/>
<path d="M5.06104 4.757V33.8854H13.3827V93.8079H5.06104V122.936H50.0024V93.8079H41.6807V54.6951L84.9578 122.936H123.241V93.8079H114.919V33.8854H123.241V4.757H78.2997V33.8854H86.6213V73.0057L43.3428 4.757H5.06104Z" fill="#E41C38"/>
</g>
<defs>
<clipPath id="clip0_2863_9237">
<rect width="128" height="128" fill="white"/>
</clipPath>
</defs>
</svg>
