<svg width="128" height="128" viewBox="0 0 128 128" fill="none" xmlns="http://www.w3.org/2000/svg">
<path d="M41.596 128C34.8026 122.704 30.5424 117.177 27.4336 109.577C25.0157 102.784 23.4037 95.5302 24.2097 87.9309C25.1308 78.6045 26.8579 70.4295 28.585 61.3333C29.0456 60.8728 28.7002 60.0668 29.0456 59.4911C30.197 54.3097 31.4636 49.1284 32.615 43.947C33.0755 43.8319 33.6512 43.8319 34.1118 43.947L33.5361 44.0622C37.7963 44.2925 42.1717 44.5227 46.547 44.8681C46.7773 45.0984 47.2379 45.2136 47.5833 45.0984L48.6196 45.2136C48.8499 44.2925 49.3104 43.3713 49.8861 42.5653C48.7347 40.2625 47.4682 38.0748 45.9713 36.0023C45.9713 36.0023 42.2868 30.1301 41.4808 29.5544C40.5597 28.9787 39.6386 28.5181 38.7174 28.0576C37.566 27.4819 36.2995 27.597 34.5724 26.9062C32.4998 19.9977 29.0456 11.5924 27.2033 3.07196L29.8516 5.83534L38.8326 15.0466L44.1291 19.6523C44.1291 21.034 44.3594 22.3005 44.8199 23.5671C45.1654 25.0639 46.2016 26.1002 46.8925 27.4819C49.8861 31.8572 51.3829 33.5843 54.1463 37.9597C55.1826 37.4991 56.2189 36.9234 57.0249 36.2326C55.528 35.4266 55.9886 30.2453 55.9886 30.2453C55.6432 27.597 53.4555 25.179 54.722 22.3005C55.0675 21.7248 55.2977 21.1491 55.4129 20.5734C55.1826 19.0766 53.3403 18.1554 54.722 16.5435C54.8372 16.3132 54.2615 15.5072 54.2615 15.1618C54.1463 12.053 55.0675 9.17443 55.4129 6.18077C55.9886 5.02936 57.0249 4.10822 58.1763 3.53252C61.1699 2.26597 64.9696 2.0357 68.0784 1.11457C68.3087 1.34485 68.4238 0.88429 68.6541 0.88429C70.2661 0.88429 71.6478 -0.49741 73.2598 0.193436C75.6777 2.6114 77.9805 5.1445 80.2834 7.6776C82.0105 8.82901 82.8165 10.6713 84.1981 12.2832C84.5436 13.0892 85.3496 14.4709 84.889 15.3921L83.8527 16.6586L83.5073 22.6459C83.1619 23.2216 83.277 23.9125 82.8165 24.3731V24.7185L82.7013 24.6033C82.5862 25.985 82.3559 27.3667 81.8953 28.7484C81.665 30.2452 81.4348 31.9724 81.3196 33.6995C81.0893 36.6932 81.8953 37.9597 82.8165 40.608C83.5073 41.2988 84.889 43.0259 85.9253 44.4076C87.307 46.2498 90.8763 49.3587 93.6397 55.0006C96.4031 60.6425 99.6271 70.89 101.815 82.289C102.39 86.6643 103.542 89.8883 101.93 94.2637C99.7422 97.1422 99.0514 97.4876 96.0577 98.7542C96.0577 98.7542 104.348 110.038 104.348 112.226C104.463 113.032 104.233 113.723 103.657 114.413H67.8481C63.9333 119.595 52.8798 126.849 41.8263 127.885" fill="white"/>
<path d="M65.0835 23.1069C64.8532 22.416 64.1624 22.8766 63.817 22.416V22.5311L63.5867 22.416C63.9321 22.9917 64.1624 23.6826 64.1624 24.4886C64.6229 25.0643 65.1987 25.1794 65.5441 25.8702C65.7744 25.9854 66.0046 26.4459 66.2349 26.5611C66.35 26.4459 66.2349 26.2157 66.2349 26.1005C65.4289 25.2945 65.7743 24.028 65.0835 23.1069Z" fill="#D12634"/>
<path d="M85.2342 99.5604C86.1554 99.4453 86.9614 99.3302 87.8825 99.3302C87.8825 99.215 87.8825 99.215 87.9976 99.215C87.9976 99.4453 88.3431 99.3302 88.4582 99.3302C91.567 103.475 94.4455 107.966 97.2089 112.341C98.8209 112.341 100.663 112.571 102.275 112.571C102.275 112.341 102.275 112.111 102.16 111.881C99.2814 107.275 95.8272 102.784 92.7184 98.1788C95.4818 97.1425 98.3603 95.8759 100.203 93.2277C101.699 89.1977 100.318 84.7072 99.8572 80.7924C97.4392 71.2357 96.0575 61.3336 90.8762 53.0434C90.5307 52.8132 90.4156 52.5829 90.3005 52.2375L88.1128 49.359C86.1554 46.941 84.0828 44.7533 82.2406 42.5656C81.5497 41.9899 81.4346 41.1839 80.8589 40.6082C79.9378 38.0751 79.4772 35.4269 79.4772 32.7786C79.5923 31.1666 80.0529 29.6698 80.2832 28.2881C80.6286 27.0216 80.8589 25.755 80.974 24.4885V24.6036V24.3733C81.4346 23.9128 81.3195 23.2219 81.5497 22.7614L82.1254 16.4286L82.7011 15.7378C83.1617 14.8166 82.586 13.8955 82.2406 13.2047C80.974 11.823 80.2832 10.0958 78.7864 9.05957C76.7138 6.75675 74.6413 4.45394 72.4536 2.26626C70.9568 1.69055 69.8053 2.95709 68.3085 2.95709C68.0782 2.95709 67.9631 3.30253 67.7328 3.18739C64.8543 4.10852 61.5152 4.22365 58.7518 5.37506C57.7155 5.95077 56.7944 6.75676 56.3339 7.79303C56.1036 10.4413 55.1824 13.2047 55.2976 15.968C55.2976 16.3135 55.7581 16.3135 55.8733 16.1983C55.8733 16.4286 55.8733 16.6589 55.643 16.8892C54.4916 18.2709 56.1036 19.5374 56.2187 20.9191C56.1036 21.2645 55.9884 21.6099 55.7581 21.7251H55.8733C55.7581 21.9554 55.7581 22.1857 55.5279 22.4159C54.3764 25.0642 56.449 27.2519 56.6793 29.6698L57.0247 33.4695C57.0247 35.0814 58.7518 35.542 59.9032 35.8874C59.7881 36.2329 60.1335 36.1177 60.2486 36.348C60.2486 36.6934 60.7092 36.9237 60.4789 37.2691L60.2486 37.154C58.4064 37.4994 56.6793 38.1903 55.0673 39.2265C54.3764 39.4568 54.031 40.2628 53.4553 40.4931V40.3779C53.5705 40.0325 53.1099 39.6871 52.8796 39.3417C50.3465 35.3117 47.5831 31.6272 44.8197 27.7124C44.244 26.4459 43.2078 25.5247 42.9775 24.1431C42.6321 22.9916 42.4018 21.7251 42.4018 20.5737L39.5233 17.8103L31.3482 9.405L29.0454 6.8719C31.6937 12.8592 33.8813 18.9617 35.7236 25.1793C37.3356 25.6399 38.8324 26.4459 40.2141 27.2519C41.1352 27.4821 41.7109 28.2881 42.5169 28.8638L46.5469 34.5057C48.274 37.2691 50.3465 39.8022 51.7282 42.6808C50.6919 43.8322 49.8859 45.0987 49.0799 46.3653C52.6493 46.941 56.3339 47.8621 59.7881 48.4378L59.3275 48.3227C59.0972 48.2075 58.7518 47.8621 58.7518 47.5167C58.9821 47.1713 59.2124 47.5167 59.5578 47.6318C59.4426 47.5167 59.3275 47.4015 59.3275 47.2864H59.4426C59.7881 47.9772 60.594 47.6318 61.0546 47.9773C61.0546 48.3227 61.0546 48.553 60.7092 48.6681C61.1698 48.8984 61.6303 49.0135 62.206 49.1287L61.9758 48.8984C62.5515 48.6681 63.1272 49.0135 63.818 48.8984C64.1634 48.8984 64.5089 49.2438 64.1634 49.5892C64.7391 49.7044 65.3148 49.9346 65.8905 50.1649C65.43 49.9346 64.624 49.2438 64.624 48.553H65.1997C65.7754 48.7832 66.4662 48.6681 66.9268 49.1287C67.042 49.7044 66.4663 49.8195 66.1208 50.1649C68.0782 50.6255 70.0356 51.2012 71.8779 51.7769C70.9568 48.2075 68.8842 44.8685 66.0057 42.4505C63.9332 40.9537 61.5152 39.8022 58.9821 39.3417C58.9821 39.2265 58.8669 39.1114 58.9821 38.9963C60.5941 38.4206 62.3212 38.1903 63.9331 38.1903C68.5388 37.96 72.3385 41.1839 75.3321 44.523C77.6349 46.941 79.5923 50.0498 82.2406 52.0072C83.2769 52.4678 84.4283 52.2375 85.1191 51.4315C86.0402 50.5104 85.4645 49.2438 85.2342 48.0924C85.2342 47.9773 85.004 47.8621 85.004 47.6318C88.9188 52.1223 91.567 57.6491 92.4881 63.5213C92.7184 63.8667 92.4881 64.2121 92.7184 64.5576L93.0638 67.8966C93.7547 78.1442 90.4156 87.2404 85.5797 95.3002C82.7011 93.9185 79.7075 92.8823 76.5986 91.9611L74.7564 98.6393C76.3684 99.3302 78.2106 99.6756 79.8226 100.366L81.78 102.669C83.392 105.087 84.6585 107.735 85.4645 110.614C79.8226 110.959 74.411 110.614 68.7691 110.729C68.1934 111.19 67.848 111.881 67.2723 112.341L68.6539 112.456C69.1145 112.341 69.8053 112.571 70.2659 112.456H88.343C87.3068 109.923 86.3856 107.39 85.2342 104.857C84.6585 104.166 84.4283 103.245 83.8526 102.439C84.0828 101.978 84.3131 101.518 84.3131 100.942C84.7737 100.597 85.0039 100.021 85.2342 99.5604ZM57.6004 42.5656L58.061 42.7959C57.7155 42.911 57.4852 43.3716 57.1398 43.6019C56.7944 43.8322 56.1036 43.1413 55.5279 43.1413V42.6808C56.3338 43.3716 56.9095 42.2202 57.6004 42.5656ZM55.2976 40.8385L56.5641 40.9536C56.7944 41.5293 56.1035 41.2991 55.8733 41.5293C55.643 41.4142 55.1824 41.6445 55.0673 41.2991C54.9522 40.9537 55.0673 40.8385 55.2976 40.8385ZM54.4916 42.4505C54.6067 42.6808 54.4916 42.9111 54.2613 42.9111C53.9159 42.7959 53.4553 42.7959 53.4553 42.3353C53.8007 42.2202 54.2613 42.2202 54.4916 42.4505ZM47.468 33.4695C47.3528 33.6998 47.1226 33.8149 46.8923 33.93V33.8149C44.4743 30.1304 41.9412 26.4459 39.4081 22.8765C38.2567 20.804 36.875 18.8466 35.4933 17.0043C36.2993 19.3071 37.3356 21.61 38.0264 23.9128C37.9113 24.2582 37.681 24.3733 37.3356 24.3733H37.2204C36.6447 24.0279 36.1842 23.4522 36.069 22.7614L32.0391 11.5927L31.6936 11.2473C32.0391 11.4775 32.4996 11.7078 32.6148 12.1684C35.6085 15.2772 38.3718 18.386 41.5958 21.1494C42.0563 21.1494 41.7109 21.61 41.8261 21.8402C42.4018 26.3307 45.7409 29.5547 47.6983 33.4695C47.8134 33.4695 47.5831 33.3543 47.468 33.4695ZM51.4979 46.7107C51.2676 46.5956 50.8071 46.5956 50.8071 46.2501C51.0373 45.9047 51.3828 46.2501 51.7282 46.2501C51.8434 46.3653 51.6131 46.4804 51.4979 46.7107ZM52.3039 41.6445C50.8071 39.572 49.3102 37.2691 47.9285 35.0814C48.0437 34.9663 48.1588 34.6209 48.3891 34.8512C48.274 34.3906 48.8497 34.6209 48.9648 34.9663C50.3465 36.8086 51.7282 38.8811 52.9947 40.8385C52.7645 41.1839 52.7645 41.7596 52.3039 41.6445ZM52.6493 43.9473C53.1099 43.9473 53.4553 44.1776 53.9159 44.2927C53.5705 44.2927 53.8007 44.523 53.6856 44.7533C53.3402 44.8685 52.8796 44.7533 52.7645 44.4079V44.2927L52.6493 43.9473ZM54.1461 47.1712C53.6856 46.941 53.225 46.941 52.8796 46.5955L53.1099 46.2501C53.5704 46.4804 54.1461 46.3653 54.7218 46.7107C54.4916 46.8258 54.4916 47.0561 54.1461 47.1712ZM55.4127 45.0987C55.1824 44.8684 54.9521 44.523 54.7218 44.1776C55.4127 44.523 56.2187 44.7533 57.0247 44.7533C56.5641 44.8685 55.9884 45.5593 55.4127 45.0987ZM56.3339 47.2864C56.449 47.0561 55.9884 47.1713 56.2187 46.8258C56.1036 46.7107 55.8733 46.5956 55.8733 46.3653C56.5641 46.5956 57.3701 46.5955 58.061 46.5955C58.4064 46.7107 58.0609 46.941 58.2912 47.1712C57.7155 47.5167 56.9096 47.5167 56.3339 47.2864ZM60.594 46.135C60.0183 46.3653 59.3275 46.3653 58.7518 46.135C58.4064 46.0198 58.1761 45.7896 57.8307 45.6744C57.8307 45.329 58.1761 45.4442 58.2912 45.2139C58.7518 45.5593 59.4426 45.4442 60.0183 45.7896C60.2486 45.7896 60.3638 45.6744 60.594 45.7896V46.135ZM62.8969 48.3227C62.206 47.9772 61.2849 47.8621 60.9395 47.0561C61.0546 46.8259 61.4 46.5956 61.6303 46.8258C61.9757 46.941 62.3212 47.0561 62.6666 47.0561C63.2423 46.8259 63.012 47.747 63.4726 47.8621C63.5877 48.3227 63.012 48.0924 62.8969 48.3227ZM63.1272 46.0198C62.5515 46.4804 62.0909 45.7896 61.6303 45.5593C61.1697 45.329 61.5152 44.9836 61.8606 44.8684C62.6666 44.7533 63.2423 45.4441 64.0483 45.4441C63.9331 45.7896 63.3574 45.5593 63.1272 46.0198ZM64.8543 47.747C64.3937 47.5167 63.9332 47.2864 63.818 46.7107C63.9332 46.7107 64.1634 46.2501 64.3937 46.4804C64.624 46.8259 64.8543 47.0561 65.1997 47.0561C65.43 47.1713 65.6603 47.1713 65.8905 47.4015C65.7754 47.6318 65.1997 47.5167 64.8543 47.747ZM70.1508 49.7044L70.2659 49.9347C70.2659 50.0498 70.1507 50.2801 70.2659 50.3952C70.381 50.2801 70.4962 50.3952 70.4962 50.3952C70.4962 50.3952 70.2659 50.7407 70.1508 50.5104C69.5751 51.5466 68.5388 50.3952 67.7328 50.3952C67.8479 50.2801 67.9631 50.0498 67.9631 49.8195C68.7691 49.8195 69.4599 49.2438 70.1508 49.7044ZM68.4237 47.4015C68.6539 47.6318 68.9994 47.9772 68.9994 48.4378L68.8842 48.7833C68.0782 48.6681 67.042 48.7832 66.6965 47.8621C67.1571 47.1713 67.9631 47.8621 68.4237 47.2864V47.4015ZM67.2723 45.329H67.3874C67.5025 45.5593 67.6177 45.7896 67.7328 46.0198C67.6177 46.5955 66.9268 46.3653 66.5814 46.5955C66.0057 46.4804 65.5451 46.3653 64.9694 46.0198C64.8543 45.9047 64.8543 45.7896 64.8543 45.6744C65.0846 45.5593 65.5451 45.9047 65.7754 45.5593C66.5814 45.9047 66.6965 44.4079 67.2723 45.329ZM64.9694 43.2565C65.3149 43.4867 66.0057 43.3716 65.8905 44.0625C66.0057 44.1776 66.1208 44.0625 66.3511 43.9473C65.5451 44.523 64.5089 44.6381 63.5877 44.2927L63.2423 43.9473C63.5877 43.4868 64.7391 43.9473 64.9694 43.2565ZM61.8606 42.3353C61.9757 42.4505 62.3212 42.3353 62.5515 42.1051C62.8969 41.8748 63.3574 41.8748 63.7029 41.9899L63.9331 42.2202C64.0483 42.5656 63.818 42.9111 63.4726 43.0262C62.7817 43.1413 61.9758 43.1413 61.4001 42.7959L61.8606 42.3353ZM60.1335 44.6382C59.6729 44.1776 58.9821 44.1776 58.6367 43.717C58.9821 43.2565 59.2124 43.8322 59.6729 43.8322C60.1335 43.8322 60.8243 43.2565 61.2849 43.8322C61.2849 44.4079 60.4789 44.2927 60.1335 44.6382ZM60.7092 41.0688L61.0546 40.8385C61.1697 40.9536 60.8243 40.9536 60.8243 41.0688C60.8243 41.1839 61.1697 41.5294 61.0546 41.8748L60.0183 42.5656C59.3275 42.4505 58.4064 42.2202 58.2912 41.4142C58.4064 41.1839 58.6367 41.4142 58.8669 41.2991C59.5578 41.4142 60.1335 40.9536 60.7092 41.0688ZM84.6585 48.0924L84.5434 48.553C84.3131 49.1287 83.6223 48.7833 83.2769 48.7833C83.1617 48.6681 82.8163 48.7832 82.7011 48.553C82.8163 48.0924 83.392 48.4378 83.6223 48.0924C83.7374 48.0924 83.8526 48.2075 83.9677 48.0924C84.0828 47.9773 83.8526 47.9773 83.8526 47.9773C84.198 47.1713 84.3131 48.2075 84.6585 48.0924ZM80.8589 47.1712L80.6286 46.8258C81.0891 46.4804 81.5497 46.7107 82.0103 46.4804C82.2406 46.5956 82.586 46.7107 82.586 47.0561C82.2406 47.5167 81.5497 47.0561 80.8589 47.1712ZM83.8526 45.9047C83.8526 46.135 83.9677 46.2501 84.0828 46.4804C84.0828 46.7107 83.8525 46.5956 83.7374 46.7107L83.6223 46.5955C83.1617 46.5955 82.8163 46.4804 82.4708 46.2501V46.135C82.8163 45.6744 83.5071 45.2139 83.8526 45.9047ZM82.1254 44.1776C82.4709 44.4079 82.7011 44.8685 82.7011 45.2139L82.586 45.329C82.3557 45.0987 82.0103 45.0987 81.78 44.8684C81.4346 44.8684 81.2043 44.7533 80.974 44.523C80.974 44.2927 81.2043 44.2927 81.3194 44.2927C81.6649 44.4079 81.78 43.8322 82.1254 44.1776ZM81.4346 42.5656C81.3194 42.7959 81.5497 43.1413 81.4346 43.2565C80.974 42.911 79.9378 43.4868 79.9378 42.4505C80.0529 42.2202 80.2832 42.5656 80.3983 42.3353C80.6286 41.8748 81.0892 42.3353 81.4346 42.5656ZM79.9378 44.7533C80.168 44.6382 80.0529 44.8684 80.168 44.9836C80.2832 45.0987 80.6286 45.4441 80.6286 45.6744C80.168 45.9047 79.7075 45.6744 79.3621 45.5593C79.2469 45.329 78.9015 45.2139 78.7864 44.9836C79.0166 44.523 79.5923 44.9836 79.9378 44.7533ZM77.8652 43.717C78.0955 43.4867 78.2106 42.911 78.5561 43.1413L78.9015 42.7959C79.2469 42.911 79.0166 43.3716 79.3621 43.3716L79.4772 43.6019C79.0166 43.9473 78.4409 43.6019 77.8652 43.717ZM80.168 40.9536C80.168 41.2991 79.9377 41.6445 79.5923 41.6445H79.4772C79.0166 41.6445 78.6712 41.4142 78.4409 40.9536C78.6712 40.3779 79.5923 40.9537 79.5923 40.1477C79.9377 40.1477 79.9377 40.6082 80.168 40.9536ZM79.7075 38.6508C79.4772 38.9962 79.2469 39.4568 78.9015 39.6871C78.3258 39.5719 77.6349 39.6871 77.5198 38.8811C77.7501 38.1903 78.7863 38.9962 78.9015 38.1903C78.9015 37.96 79.1318 37.8448 79.2469 37.96C79.3621 37.96 79.4772 38.0751 79.4772 38.1903C79.4772 38.3054 79.362 38.5357 79.7075 38.6508ZM71.187 32.6635C71.8779 32.5484 72.6839 32.5483 73.3747 32.7786C73.3747 32.8938 73.7201 33.0089 73.4899 33.1241C73.0293 33.4695 72.4536 33.5846 71.8779 33.3543C71.6476 33.0089 71.0719 33.0089 71.187 32.6635ZM71.6476 35.3117C70.8416 35.3117 69.9205 35.6572 69.4599 34.8512C69.4599 34.5058 69.8053 34.5058 70.0356 34.3906C70.2659 34.5058 70.4962 34.5057 70.6113 34.5057C70.7265 34.0452 71.5324 34.0452 71.5324 34.5057C71.5324 34.736 71.7627 34.8512 71.6476 35.0814V35.3117ZM76.1381 21.9554C75.5624 21.8402 74.7564 21.8402 74.411 21.1494C74.5261 21.0342 74.411 20.6888 74.7564 20.5737C75.217 20.5737 75.7927 20.6888 76.1381 21.0343V21.9554ZM77.5198 23.1068L77.9804 23.2219C78.0955 23.4522 77.8652 23.7976 77.6349 23.7976C77.4047 23.7976 76.829 24.1431 76.4835 23.9128C76.1381 23.5674 75.9078 23.2219 75.7927 22.7614C76.3684 22.5311 76.9441 22.6462 77.5198 22.9916V23.1068ZM74.9867 22.6462C74.9867 22.7614 74.8716 22.7614 74.6413 22.7614V22.4159H74.8715L74.9867 22.6462ZM74.2958 19.3071C74.1807 19.192 74.0656 18.9617 74.1807 18.8466C74.2959 18.7314 74.7564 19.192 74.7564 18.8466C74.7564 19.192 75.1018 19.3071 75.1018 19.6525C74.6413 19.7677 74.411 19.4223 74.1807 19.192L74.2958 19.3071ZM74.6413 23.6825C75.1018 23.7976 75.6775 23.9128 75.9078 24.2582C75.9078 24.3733 76.2532 24.1431 76.2532 24.3733C76.2532 24.6036 75.6775 24.949 75.3321 25.0642C75.217 24.8339 74.9867 24.8339 74.7564 24.8339C74.5261 24.6036 74.1807 24.2582 74.411 23.7976L74.6413 23.6825ZM76.5986 25.8702L77.0592 26.2156L77.4046 26.1005C77.5198 26.1005 77.5198 26.3307 77.5198 26.561C77.1744 26.7913 76.7138 27.4821 76.2532 27.1367C75.6775 27.0216 75.6775 26.3307 75.217 25.9853C75.5624 25.1793 76.0229 25.9853 76.5986 25.8702ZM76.2532 29.0941L76.8289 29.5547C76.5987 29.6698 76.3684 30.0152 76.0229 30.1304C75.3321 29.785 74.1807 29.9001 73.9504 28.8638C74.5261 28.6335 75.1018 28.7487 75.5624 29.2093L76.2532 29.0941ZM77.9804 30.8212L78.2107 31.1667C78.0955 31.3969 77.9803 31.6272 77.7501 31.7424C77.2895 31.8575 76.7138 31.8575 76.1381 31.6272C76.0229 31.2818 75.3321 31.2818 75.6775 30.8212C76.3684 30.591 77.0592 30.4758 77.8652 30.5909L77.9804 30.8212ZM74.9867 31.2818C74.9867 31.7424 75.5624 31.8575 75.6775 32.2029C75.217 32.5483 74.6413 32.5483 74.0656 32.3181C73.8353 32.0878 73.2596 31.8575 73.3747 31.5121C73.7201 31.0515 74.411 31.2818 74.8715 31.1667L74.9867 31.2818ZM75.3321 33.5846C75.4473 33.8149 75.7927 33.6998 75.9078 33.6998C76.023 33.6998 76.2532 33.1241 76.5986 33.1241C76.7138 33.2392 76.5987 33.4695 76.8289 33.5846C76.8289 34.0452 76.3684 34.5057 75.9078 34.5057C75.4473 34.3906 74.7564 34.2755 74.5261 33.6998C74.6413 33.4695 75.1018 33.2392 75.217 33.4695L75.3321 33.5846ZM76.4835 34.9663C77.0592 34.9663 77.6349 34.3906 78.3258 34.5057L78.5561 34.8512C78.6712 35.1966 78.3258 35.542 78.0955 35.7723C77.6349 36.0026 77.0592 36.0026 76.7138 35.6571C76.4835 35.4269 76.023 35.1966 76.4835 34.8512V34.9663ZM78.2107 33.4695C77.8652 33.3543 77.5198 33.124 77.4046 32.7786C77.6349 32.6635 77.8652 32.8938 78.0955 32.6635C78.3258 32.4332 78.556 32.0878 78.9015 32.0878C79.1318 32.4332 78.7863 32.7786 79.0166 33.0089C79.0166 33.5846 78.4409 33.124 78.0955 33.3543L78.2107 33.4695ZM77.9804 29.785C78.2106 29.6698 78.4409 29.5547 78.6712 29.5547L79.1318 28.7487C79.5923 28.8638 79.362 29.4396 79.4772 29.785C79.362 30.1304 79.5923 30.591 79.2469 30.7061C78.7864 30.3607 78.0955 30.2455 77.8652 29.785H77.9804ZM77.8652 28.8638C77.4046 28.6335 76.829 28.7487 76.4835 28.2881C76.829 27.9427 77.1744 28.0578 77.6349 27.8276C78.0955 27.7124 78.556 27.9427 78.9015 28.2881C78.6712 28.5184 78.0955 28.6335 77.7501 28.8638H77.8652ZM76.9441 25.1793C77.2895 24.8339 77.7501 24.8339 78.3258 24.7188C78.556 24.0279 78.9015 24.949 79.3621 24.7188C79.4772 24.8339 79.3621 24.8339 79.3621 24.949L78.2107 25.9853C77.6349 25.8702 77.1744 25.5248 76.9441 25.0642V25.1793ZM77.7501 22.1857C77.8652 22.1857 77.9804 22.0705 77.9804 21.9554C77.9804 21.8402 77.6349 21.7251 77.6349 21.7251C77.9804 21.8402 78.4409 21.8402 78.9015 21.7251C79.0166 21.6099 79.0166 21.3797 79.0166 21.2645C79.4772 21.2645 79.9377 21.2645 80.0529 21.7251C79.9377 22.0705 79.4772 22.3008 79.1318 22.5311C78.5561 22.4159 77.9803 22.6462 77.7501 22.0705V22.1857ZM78.2107 19.4223C77.7501 19.4223 77.4046 18.8466 77.2895 18.5011L77.1744 17.8103C77.8652 17.9254 78.0955 18.6163 78.3258 19.0768L78.2107 19.4223ZM78.2107 20.5737C77.9804 21.1494 77.5198 20.804 77.0592 21.0343C76.5987 20.9191 76.5987 20.4585 76.2532 20.2283C76.4835 19.998 76.7138 19.8828 76.9441 19.8828C77.4047 19.998 77.7501 20.2283 78.0955 20.4585L78.2107 20.5737ZM75.6775 19.0768C75.3321 18.9617 75.1018 18.386 74.8715 18.1557C75.1018 17.58 75.6775 18.0406 76.0229 18.0406C76.1381 18.2709 76.2532 18.5012 76.2532 18.7314C76.023 18.8466 75.7927 18.7314 75.5624 18.8466L75.6775 19.0768ZM74.1807 16.774C74.2959 16.3135 73.3747 16.0832 73.8353 15.6226C74.2958 15.8529 75.4473 15.3923 75.3321 16.3135C74.8716 16.4286 74.6413 17.0043 74.1807 16.774ZM73.8353 26.6762C74.1807 26.3307 74.5261 26.6761 74.6413 27.0216L75.217 27.4822C74.9867 27.5973 74.411 27.9427 73.9504 27.7124C73.8353 27.5973 73.4899 27.7124 73.3747 27.4822C73.2596 27.2519 73.9504 27.1367 73.8353 26.6762ZM74.2958 30.1304V30.3607C73.7201 30.1304 73.1444 30.9364 72.6839 30.3607C72.4536 30.1304 72.3385 29.9001 72.4536 29.5547C72.5687 29.4395 72.5687 29.2093 72.9142 29.2093C73.4899 29.2093 73.8353 29.785 74.2958 30.1304ZM73.7201 34.2755C73.9504 34.1603 74.411 34.2755 74.5261 34.5057C74.411 35.0814 73.605 35.0814 73.1444 35.1966C72.9141 34.736 72.3384 34.6209 72.2233 34.1603C72.5687 33.8149 73.3747 34.8512 73.7201 34.2755ZM73.4899 37.3843C73.8353 37.7297 74.8715 37.2691 74.411 38.1903C74.1807 38.766 73.4898 38.5357 73.1444 38.6508C72.799 38.3054 72.2233 38.1903 71.8779 37.8449C72.2233 37.2691 73.0293 37.7297 73.4899 37.3843ZM73.605 36.348V36.1177C73.9504 36.0026 74.1807 35.542 74.5261 36.0026C75.1018 36.1177 75.5624 35.3117 76.0229 35.8874V36.6934C75.217 36.9237 74.2959 37.154 73.605 36.348ZM75.3321 38.4206C75.7927 38.5357 76.0229 39.1114 76.5986 38.6508C76.9441 38.766 76.829 39.3417 76.9441 39.572C76.2532 39.8022 75.4472 39.6871 74.8715 39.1114C74.8715 38.8811 74.8716 38.4206 75.3321 38.4206ZM76.0229 37.3843C76.1381 36.9237 76.8289 37.0389 77.1744 36.6934C77.6349 36.9237 78.4409 35.8874 78.4409 36.9237C78.4409 37.6145 77.5198 37.2691 77.1744 37.4994C76.7138 37.7297 76.3684 37.6145 76.0229 37.3843ZM79.9378 27.1367C79.8226 27.5973 79.362 27.1367 79.0166 27.1367L78.2107 26.561C78.5561 25.9853 79.3621 26.1005 79.8226 25.5247L79.7075 25.6399C80.2832 25.9853 79.8226 26.7913 79.9378 27.1367ZM80.2832 23.7976C79.9378 24.3733 79.4772 23.7976 78.9015 23.9128L78.5561 23.5674C78.5561 23.1068 79.2469 23.4522 79.2469 22.9916C79.4772 22.8765 79.5923 22.6462 79.8226 22.7614V22.6462L80.0529 22.4159C80.0529 22.4159 79.9377 22.6462 80.0529 22.6462V22.7614C80.0529 22.7614 79.5923 22.8765 79.8226 22.9916C80.0529 23.1068 80.168 22.9916 80.168 23.2219C80.2832 23.4522 80.2832 23.6825 80.2832 23.7976ZM67.848 4.1085C69.1145 3.87822 70.7265 5.02963 71.5324 3.5328C71.8779 2.95709 72.2233 3.53281 72.3385 3.7631C73.1444 4.68422 74.2959 5.14478 74.7564 6.2962C74.2959 6.52648 73.8353 6.0659 73.3747 5.83562C71.6476 5.14477 69.8054 4.56908 67.848 4.22365V4.1085ZM70.4962 5.95077L73.8353 7.10218C75.6775 8.36873 77.9803 9.05957 79.4772 11.017C79.362 11.017 79.3621 11.017 79.3621 11.1321C79.3621 11.2473 79.4772 11.2473 79.5923 11.2473H79.7075C80.2832 12.2835 79.9378 13.5501 79.8226 14.7015L79.3621 18.2709C79.7075 18.7314 80.0529 19.192 80.2832 19.6525L80.3983 19.3071C80.5135 17.3497 80.7437 15.3923 80.974 13.3198C80.974 13.2046 81.0891 13.0895 81.2043 13.0895C81.4346 13.3198 81.6649 13.6652 81.78 14.0106H81.6649C81.6649 16.3135 81.5497 18.7314 81.0892 21.0343L80.8589 20.9191C80.6286 20.9191 80.6286 20.6888 80.5135 20.5737C80.6286 20.2283 80.168 20.4585 80.168 20.1131C79.7075 19.5374 79.2469 19.0768 78.7864 18.6163C78.0955 17.6952 77.4047 16.8892 76.4835 16.1983C75.6775 15.5075 74.6413 14.8166 73.7201 14.3561C71.4173 12.629 68.5388 12.3987 65.7754 11.7078C64.3937 11.7078 63.012 11.7078 61.6303 11.9381V11.7078H61.7455C62.206 9.63528 62.6666 7.4476 62.8969 5.37506C65.43 5.02964 68.0782 5.14478 70.4962 5.95077ZM60.7092 6.18105C61.0546 5.95076 61.5152 5.72049 61.9758 5.72049C61.6303 7.90817 61.0546 9.9807 60.8243 12.1684L59.6729 12.629C59.9032 10.4413 60.2486 8.13844 60.7092 6.18105ZM57.255 13.0895C56.9095 13.0895 56.6792 13.5501 56.449 13.4349C56.5641 11.7078 57.0247 9.9807 57.3701 8.25359C57.6004 8.02331 58.061 8.13844 57.9458 8.48387L57.255 13.0895ZM63.1272 33.8149C61.8606 33.6998 61.4 31.0515 59.9032 32.4332C59.7881 32.7786 59.3275 33.1241 59.3275 33.5846L59.2124 33.6998C58.867 33.1241 59.2124 32.0878 59.0972 31.6272C59.2124 30.7061 60.2486 30.7061 60.9395 30.4758L62.206 30.5909L62.3212 30.4758C61.9757 30.0152 61.7455 29.4395 61.6303 28.8638C61.0546 28.6335 60.3638 28.979 59.6729 28.8638C59.4427 28.979 59.0972 28.8638 58.8669 28.7487H59.0972C59.0972 28.6335 58.9821 28.4033 59.0972 28.173C59.9032 27.7124 60.8243 27.4822 61.7455 27.367C62.206 27.5973 62.6666 27.2518 63.012 27.5973L64.3937 27.8276C64.624 28.173 64.9694 28.4033 65.3148 28.5184C65.5451 28.4033 65.0845 28.2881 65.1997 28.0579V28.173C64.8543 27.9427 64.8543 26.561 64.1634 27.2519C62.7817 27.367 61.6303 25.5247 60.2486 26.6762C59.7881 26.7913 59.4427 26.1004 59.0972 26.561L58.6367 26.9065C58.7518 26.3307 58.9821 25.6399 59.2124 25.1793H58.9821C59.5578 24.949 60.2486 25.5247 60.594 24.8339L60.4789 24.6036L60.594 24.7188V24.6036L60.4789 24.4885L60.7092 24.3733C61.5152 24.3733 62.5515 25.1793 63.012 24.2582C63.012 23.7976 62.7817 23.2219 62.3212 22.9916C61.5152 22.8765 60.8243 23.5673 60.1335 23.4522C59.6729 23.2219 58.9821 22.8765 58.8669 22.4159C59.2124 20.9191 59.7881 19.4223 60.4789 18.0406C60.9395 17.9254 61.2849 18.2709 61.7455 18.1557C62.0909 19.0769 63.1272 19.3071 63.818 19.8828C64.3937 19.998 64.9694 20.3434 65.5451 20.2283C65.6603 20.1131 65.8906 20.3434 66.1208 20.3434C66.0057 19.6526 65.0845 19.192 65.0845 18.2709C64.9694 18.1557 64.8543 18.1557 64.9694 18.0406C66.4663 17.6952 67.9631 17.9254 69.2296 18.7314C69.2296 18.7314 69.3448 18.7314 69.4599 18.6163C68.0782 17.8103 66.9268 16.3135 65.1997 16.6589L64.8543 16.5437C66.4663 15.3923 68.3085 16.774 69.9205 17.0043L70.0356 16.8892C68.5388 15.8529 66.9268 15.162 65.1997 14.8166C64.1634 14.9318 63.1272 15.1621 62.0909 15.5075C61.6303 15.1621 61.1698 14.8166 61.4001 14.0106C61.2849 13.8955 61.5152 13.7804 61.5152 13.6652C63.012 13.0895 64.624 12.8592 66.236 13.0895C68.4236 13.4349 70.6113 14.1258 72.5687 15.0469C72.4536 15.8529 73.1444 16.4286 73.1444 17.2346C73.7201 20.2283 73.7201 23.3371 73.2596 26.4459C72.799 27.5973 72.4536 28.6336 71.993 29.6698C71.4173 30.8212 70.6113 31.9727 69.5751 32.6635C67.7328 34.1603 65.1997 34.6209 63.1272 33.8149ZM65.7754 37.8449C65.5451 37.8449 65.1997 37.7297 65.0845 37.4994C64.9694 37.2691 65.43 37.3843 65.5451 37.2691C65.6603 37.2691 65.8905 37.2691 65.8905 37.4994C65.8905 37.6145 65.7754 37.6146 65.7754 37.8449ZM67.042 36.2328V35.8874L68.3085 36.2328C68.5388 36.0026 69.1145 35.0815 69.4599 36.0026C69.2296 36.348 68.9994 36.5783 68.7691 36.9237C68.1934 36.6934 67.3874 36.9237 67.042 36.2328ZM69.6902 38.6508C69.1145 38.4205 68.4236 38.4205 67.9631 37.96C68.3085 37.7297 68.8842 37.6146 69.3448 37.7297C69.5751 37.6146 70.3811 37.4994 70.1508 38.0751C70.1508 38.4205 69.6902 38.1903 69.6902 38.6508ZM71.5324 36.5783C71.6476 36.2329 72.1082 36.0026 72.4536 36.1177C72.4536 36.1177 72.5687 36.1177 72.5687 36.2328V36.5783C71.993 36.8086 71.5325 37.0388 71.0719 37.3843C70.7265 37.154 70.2659 36.9237 70.2659 36.5783C70.6113 36.348 71.0719 36.348 71.4173 36.4631L71.5324 36.5783ZM71.3022 39.8022L70.381 39.2265C70.6113 38.9962 71.0719 38.9962 71.3022 38.766C71.6476 39.1114 72.1082 39.3417 72.6839 39.4568C72.2233 39.4568 71.7628 39.9174 71.3022 39.8022ZM72.799 40.3779C73.0293 40.3779 73.2596 40.0325 73.2596 39.8022C73.4898 40.0325 73.8353 40.0325 74.0656 39.8022L74.8715 40.2628C74.7564 40.9536 73.9504 40.4931 73.7201 40.8385C73.3747 40.6082 72.9142 40.6082 72.799 40.2628V40.3779ZM74.5261 42.5656C74.411 42.3353 73.8353 42.2202 74.0656 41.8748C74.2958 41.5294 74.7564 41.7596 75.1018 41.6445L75.6775 42.2202C75.4473 42.5656 74.8715 42.6808 74.5261 42.4505V42.5656ZM76.7138 40.7234C76.9441 40.6082 77.2895 40.6082 77.6349 40.6082C77.2895 40.9537 77.9804 41.5294 77.4046 41.7596C77.0592 41.8748 76.7138 41.8748 76.4835 41.6445L75.9078 40.9536C76.1381 40.8385 76.4835 40.7234 76.8289 40.6082L76.7138 40.7234ZM77.5198 42.5656C77.5198 42.911 77.2895 43.1413 76.9441 43.2565C76.7138 43.4867 76.3684 43.3716 76.1381 43.2565V43.1413C76.2532 42.2202 76.9441 42.6808 77.4046 42.4505L77.5198 42.5656ZM76.9441 45.0987C76.5987 44.9836 76.0229 44.7533 76.1381 44.4079C76.4835 44.2927 76.8289 44.1776 77.2895 44.2927C77.5198 44.4079 77.4046 44.8684 77.7501 44.8684C77.4046 44.8684 77.4047 45.329 76.9441 45.0987ZM77.5198 46.0198C77.6349 45.5593 78.0955 45.9047 78.4409 45.9047L79.0166 46.3653C78.7863 46.7107 78.4409 46.5955 77.9804 46.5955C77.5198 46.5955 77.5198 46.135 77.4046 45.7896L77.5198 46.0198ZM78.9015 47.9773C79.0166 47.4015 79.7075 47.747 80.168 47.5167L80.6286 48.0924C80.3983 47.9773 80.168 48.0924 79.9378 48.3227C79.5923 47.9772 78.9015 48.3227 78.9015 47.747V47.9773ZM80.5135 49.4741C80.3983 49.3589 80.5135 49.359 80.3983 49.2438C80.8589 48.8984 82.1254 48.4378 82.1254 49.4741C81.5497 49.8195 80.8589 49.8195 80.3983 49.4741H80.5135ZM82.7011 51.4315C82.4709 51.2012 81.6649 51.3163 81.8951 50.7406C82.1254 50.1649 82.4709 50.7407 82.8163 50.5104C83.0466 50.7407 83.2768 51.4315 83.7374 51.4315C83.392 51.4315 83.0466 51.4315 82.7011 51.3163V51.4315ZM85.1191 50.7406C84.8888 50.6255 84.8888 50.9709 84.7737 50.9709C84.198 51.0861 84.3131 50.3952 83.7374 50.5104C83.8525 50.2801 84.3131 50.2801 84.5434 50.1649C84.7737 50.1649 85.1191 50.2801 85.1191 50.6255C85.004 50.5103 85.004 50.6255 85.004 50.7406H85.1191ZM89.2642 96.1062C89.7247 96.2213 90.3004 96.2213 90.5307 96.6819C90.3004 97.2576 89.7247 96.7971 89.2642 96.7971C89.149 96.4516 88.8036 96.2214 89.1491 95.9911L89.2642 96.1062ZM90.0702 94.9548C90.0702 94.8396 90.1853 94.6094 90.3005 94.6094C90.5307 95.1851 91.9124 94.7245 91.2216 95.6456C90.761 95.4154 90.1853 95.5305 90.0702 94.9548ZM99.742 110.729C99.0512 110.614 98.2452 110.844 97.5543 110.499C94.9061 106.699 92.4881 103.13 89.7248 99.3302C89.7248 99.0999 89.4945 98.6393 89.955 98.5242C90.4156 98.409 90.9913 98.2939 91.567 98.2939C91.6821 98.409 91.7973 98.7545 92.0276 98.6393L91.7973 98.7545C94.6758 102.784 96.9786 106.699 99.742 110.729ZM92.8335 97.3728C92.2578 97.4879 91.9124 97.0273 91.4519 96.9122C91.3367 96.7971 91.3367 96.6819 91.4519 96.5668L91.567 96.4516C92.2578 96.2214 92.373 96.9122 92.9487 96.9122C92.9487 97.0273 92.9487 97.2576 92.8335 97.3728ZM92.0276 94.4942C91.9124 93.9185 90.8762 93.9185 91.3367 93.2277C91.7973 93.5731 92.1427 93.3428 92.7184 93.458C93.4092 93.3428 92.9487 94.1488 93.4092 94.4942C92.8335 94.2639 92.373 95.1851 92.0276 94.4942ZM93.0638 92.4217C92.7184 92.0763 92.1427 91.9611 92.1427 91.3854C92.7184 90.4643 93.5244 91.3854 94.2152 91.3854C94.4455 91.5006 94.6758 91.7309 94.791 91.9611C93.985 91.7309 93.6395 92.8823 93.0638 92.4217ZM94.3304 72.3872C94.2153 72.272 93.8698 72.1569 93.8698 71.9266C94.2152 71.6963 93.8698 70.8903 94.2152 70.66C94.6758 70.7752 94.9061 71.3509 95.2515 71.466C95.1364 72.0417 94.5607 71.9266 94.3304 72.3872ZM96.0575 74.2294L96.6332 74.3445C96.7484 74.4597 96.7484 74.69 96.6332 74.8051C96.2878 75.1505 95.8272 74.9203 95.4818 75.2657C95.0212 75.2657 94.3304 75.2657 94.5607 74.5748C94.5607 74.4597 94.6758 74.3445 94.791 74.3445C95.2515 74.5748 95.4818 73.6537 96.0575 74.2294ZM93.985 76.1868C94.2152 75.8414 94.4455 76.3019 94.6758 76.1868C94.7909 76.4171 94.7909 76.7625 95.0212 76.8777C94.6758 76.9928 94.3304 76.8776 93.985 76.6474C93.985 76.5322 93.8698 76.3019 93.985 76.1868ZM96.5181 77.7988H97.4392C96.9786 78.4896 96.1727 78.4896 95.4818 78.3745C95.2515 78.1442 95.1364 77.9139 95.0212 77.5685C95.2515 76.7625 95.9424 77.6836 96.5181 77.7988ZM96.9786 88.622C96.6332 88.1615 96.0575 88.1615 95.7121 87.5858C95.9424 87.5858 96.1726 87.7009 96.4029 87.4706C96.7483 87.5858 97.2089 87.5858 97.5543 87.2404C97.7846 87.4706 98.0149 87.5858 98.3603 87.7009C97.6695 87.9312 97.5543 88.622 96.9786 88.622ZM97.8997 90.8097C97.8997 90.9249 98.0149 91.04 98.2452 91.04C97.6695 91.2703 97.5543 92.0763 96.7483 91.9611L96.6332 92.0763L95.5969 91.2703C96.0575 90.8097 96.6332 90.5794 97.324 90.6946C97.4392 90.8097 97.5543 90.6946 97.8997 90.8097ZM96.8635 85.3981C96.6332 84.9375 96.0575 84.8224 95.5969 84.7072C95.8272 83.7861 96.5181 84.5921 96.8635 84.1315C97.2089 83.9013 97.7846 83.3255 98.0149 84.0164C98.0149 84.3618 98.4754 84.8224 97.8997 84.9375C97.324 85.0527 97.4392 85.3981 96.8635 85.3981ZM96.1726 81.8287C95.9423 81.5984 95.4818 81.8287 95.2515 81.4833C95.5969 81.3682 96.0575 81.0227 96.5181 80.9076C96.9786 80.7925 97.3241 80.9076 97.7846 81.0227C97.2089 81.253 96.9786 82.5196 96.1726 81.8287ZM96.0575 82.9801C95.8272 83.4407 95.3666 83.5558 95.0212 84.0164C94.4455 83.7861 93.6395 83.671 93.6395 82.7499C93.8698 82.1742 94.3304 82.865 94.791 82.9801C95.2515 83.0953 95.5969 82.4044 96.0575 82.9801ZM94.2152 85.8587C94.791 86.5495 95.9424 85.2829 96.2878 86.4344C96.1726 87.0101 95.5969 86.8949 95.3667 87.3555C95.0212 87.2404 94.5607 87.0101 94.2152 87.0101L93.7547 86.4344C93.7547 86.0889 93.8698 85.8587 94.2152 85.8587ZM95.4818 88.9675L96.0575 89.428C95.7121 89.7735 95.3667 90.234 94.9061 90.234C94.4455 90.0037 93.5244 90.0037 93.6395 89.0826C94.2152 88.8523 94.9061 88.7372 95.4818 88.9675ZM95.4818 95.9911C94.9061 95.9911 94.3304 96.6819 93.7547 96.1062C93.6395 95.8759 93.2941 95.6457 93.6395 95.4154C93.985 95.1851 94.1001 95.3002 94.3304 95.3002L94.5607 95.5305C94.9061 95.5305 95.4818 95.3002 95.4818 95.7608V95.9911ZM95.7121 94.6094C95.0212 94.6094 94.3304 94.4942 94.1001 93.8034C94.1001 93.6882 94.2153 93.6883 94.3304 93.5731C94.4455 93.458 94.3304 93.1126 94.5607 93.1126C94.7909 93.1126 95.0212 93.3428 95.2515 93.5731C95.7121 93.8034 96.5181 93.2277 96.6332 94.0337C96.7484 94.1488 96.6332 94.3791 96.7483 94.4942C96.4029 94.4942 96.0575 94.8397 95.7121 94.6094ZM98.936 93.458C98.3603 93.458 97.8998 93.3428 97.5543 92.8823C98.13 92.4217 98.936 91.5006 99.742 92.1914C99.1663 92.4217 99.2815 93.1125 98.936 93.458ZM100.087 88.3918C100.203 88.8523 100.087 89.3129 99.742 89.6583C99.0512 89.7735 98.4754 89.7735 97.8997 89.5432C97.7846 88.622 98.936 88.622 99.5117 88.2766C99.6269 88.1615 99.8572 88.1615 100.087 88.3918ZM99.5117 85.7435C99.5117 86.0889 99.5117 86.6646 99.1663 86.8949C98.936 86.8949 98.7058 86.5495 98.3603 86.6646L97.8997 86.0889C98.3603 85.8587 98.8209 85.3981 99.3966 85.3981L99.5117 85.7435ZM98.4754 82.865C98.13 82.6347 97.8998 82.865 97.5543 82.6347C97.8998 82.2893 97.8998 81.8287 98.3603 81.7136C98.7058 81.7136 99.0512 81.9439 99.2814 82.1742C99.2814 82.5196 98.8209 82.7498 98.4754 82.865ZM98.5906 79.0653C98.7057 79.5259 98.2452 79.8713 97.8997 79.8713C97.4392 79.8713 96.8635 79.7562 96.4029 79.5259C96.9786 79.1805 97.5543 78.835 98.13 78.3745C98.3603 78.2593 98.3603 78.7199 98.5906 79.0653ZM98.13 75.8414C98.13 76.0717 98.0149 76.4171 97.7846 76.5322C97.2089 76.6474 96.5181 76.6474 95.9424 76.4171L95.8272 76.1868C96.5181 76.1868 96.9786 75.4959 97.6695 75.3808C97.7846 75.4959 98.0149 75.496 98.13 75.8414ZM97.324 72.5023C97.5543 73.078 97.0938 73.3083 96.6332 73.4234C96.1727 73.3083 95.5969 73.3083 95.3667 72.7326C95.9424 72.3872 96.8635 71.0054 97.324 72.5023ZM96.7483 68.5875C96.9786 69.2783 96.2878 69.5086 96.4029 70.0843C95.8272 70.0843 95.1364 69.9692 94.5607 69.6238C94.6758 68.9329 95.4818 69.1632 95.9424 68.8178C96.0575 68.5875 96.4029 68.1269 96.7483 68.5875ZM95.5969 66.2847C95.1364 66.7452 95.7121 67.3209 95.1364 67.5512C94.6758 67.4361 94.2153 67.321 93.7547 67.0907C93.8698 66.3998 94.6758 66.3998 95.1364 66.0544C95.2515 65.9393 95.4818 66.0544 95.5969 66.2847ZM93.179 60.9882C93.4093 60.873 93.6395 60.9882 93.7547 61.2185V61.3336L93.6395 61.679C93.2941 61.7942 93.0638 61.4488 92.9487 61.2185C92.8335 60.9882 93.0638 60.873 93.179 60.9882ZM93.2941 63.9818C93.2941 63.6364 93.8698 63.5213 93.6395 63.0607C93.8698 63.5213 94.5607 63.0607 94.791 63.5213C94.6758 63.9819 94.6758 64.4424 94.1001 64.5576C93.7547 64.5576 93.4092 64.3273 93.2941 63.9818ZM93.8698 79.0653C94.2152 79.1805 94.7909 78.9502 95.0212 79.2956L95.7121 79.4107C95.7121 79.7562 95.7121 80.3319 95.2515 80.2167C94.5607 80.2167 93.7547 80.2167 93.4092 79.5259C93.2941 79.2956 93.2941 79.0653 93.5244 78.9502C93.6395 78.9502 93.7547 78.9502 93.8698 79.0653ZM93.985 81.3682C93.985 81.5984 93.7547 81.5984 93.5244 81.8287C93.2941 81.8287 92.9487 81.7136 92.9487 81.3682C93.179 80.7924 93.7547 80.9076 93.985 81.3682ZM92.2578 84.2467C92.6033 84.477 93.0638 84.5921 93.4092 84.3618C93.4092 84.5921 93.5244 84.7073 93.6395 84.9375C93.4093 85.1678 93.0638 85.8587 92.7184 85.2829C92.4881 85.2829 92.373 85.6284 92.1427 85.2829C91.9124 84.9375 92.1427 84.9375 91.9124 84.8224C91.9124 84.5921 91.9124 84.3618 92.2578 84.2467ZM91.6821 87.1252C92.1427 87.2403 92.4881 87.816 92.9487 87.4706C93.2941 87.2403 93.5244 87.7009 93.8698 87.9312L92.8335 88.5069C92.2578 88.3918 91.567 88.0463 91.4519 87.4706C91.4519 87.3555 91.4519 87.0101 91.6821 87.1252ZM92.2578 89.7734C92.373 89.8886 92.6033 90.234 92.373 90.3491H92.4881C92.0276 90.6946 91.3367 90.234 90.761 90.1189C90.6459 89.8886 90.3005 89.8886 90.3005 89.5432C90.8762 88.9675 91.4519 90.0037 92.2578 89.7734ZM89.8399 91.3854C90.3004 91.5006 90.5307 91.846 91.1064 91.7309C91.3367 91.846 91.2216 92.1914 91.1064 92.3066C90.5307 92.3066 89.955 92.3066 89.6096 91.7309C89.4945 91.6157 89.4945 91.5006 89.6096 91.3854H89.8399ZM88.8036 93.3428C88.9187 93.1125 89.8399 93.1126 89.7248 93.6883C89.4945 93.8034 89.149 93.6882 88.9188 93.8034C88.6885 93.9185 88.6885 93.458 88.8036 93.3428ZM88.2279 95.1851C88.4582 95.1851 88.8036 95.1851 88.9188 95.5305C88.9188 96.2213 88.4582 95.4154 88.1128 95.6456C87.8825 95.5305 87.9976 95.1851 88.2279 95.1851ZM87.6522 97.4879C87.8825 97.603 88.3431 97.4879 88.4582 97.8333C88.5733 98.1787 88.1128 97.9485 87.8825 98.0636C87.6522 98.0636 87.5371 98.0636 87.4219 97.8333C87.4219 97.7182 87.5371 97.4879 87.6522 97.4879Z" fill="#D12634"/>
<path d="M81.8946 57.0736C78.2101 55.2313 74.4105 53.6194 70.4957 52.4679C63.1267 50.1651 55.5273 48.438 47.8129 47.2866C47.4675 47.4017 47.1221 47.2866 46.8918 47.0563C42.977 46.7109 38.947 46.4806 35.1474 46.2503L35.608 46.1352C35.1474 46.02 34.6868 46.02 34.2263 46.1352C33.19 50.856 32.0386 55.5768 31.0023 60.2976C30.772 60.8733 31.0023 61.5641 30.5417 62.0247C29.0449 70.3148 26.9724 78.4898 26.1664 87.0103C25.4755 93.6884 26.2815 100.482 28.5844 106.815C31.4629 113.838 35.608 120.862 41.8256 125.698C51.958 124.661 60.8238 119.135 67.502 111.075C67.7323 110.96 67.6171 110.499 67.9626 110.499C72.4531 105.087 74.5256 98.5244 76.0224 91.731L75.9073 91.6159C76.1376 91.731 76.1376 91.2705 76.2527 91.3856C76.5982 88.1617 77.6344 84.7074 78.2102 81.2532C79.707 73.5388 80.9735 65.8243 82.3552 57.8796C82.2401 57.7644 82.2401 57.3039 81.8946 57.0736ZM53.1094 65.4789C53.9154 62.7155 54.4911 59.7218 55.4122 56.9584C55.5273 56.3827 54.7214 56.3827 54.8365 55.807C54.3759 55.4616 54.8365 54.7708 54.6062 54.4254C54.7214 53.2739 55.9879 52.5831 57.0242 52.2377C58.0604 52.1225 58.9816 52.6982 59.5573 53.6194L59.9027 55.0011C59.6724 56.0373 59.0967 57.0736 58.1756 57.5341L58.0605 57.7644C57.4848 61.2187 57.2545 65.0183 56.6788 68.3574C58.8664 69.0483 60.939 70.0845 62.8964 71.4662C62.8964 72.1571 62.551 73.1933 62.551 73.769C60.7087 73.0782 58.9816 72.2722 57.1393 71.8117C54.0305 71.1208 50.9217 70.5451 47.8129 70.3148C46.7766 70.3148 46.0858 70.6602 45.1647 70.3148C45.2798 69.5088 45.2798 68.5877 45.5101 67.7817C47.928 67.3212 50.346 67.3212 52.764 67.6666C52.764 67.0909 52.9942 66.2849 53.1094 65.4789ZM35.4928 48.6683C35.7231 48.438 35.6079 48.0926 35.7231 47.8623C37.6805 48.2077 39.8682 48.0926 41.9407 48.3229L51.958 49.4743C51.0368 54.5405 49.8854 59.3764 48.734 64.4426C48.5038 64.4426 48.5037 64.6729 48.3886 64.788C43.2072 63.8669 38.0259 63.4063 32.8446 62.8306C32.9597 62.6004 32.7294 62.6004 32.7294 62.3701C33.5354 57.6493 34.4565 53.2739 35.4928 48.6683ZM40.3287 103.475C39.5227 106.469 38.9471 109.693 38.4865 112.802C38.0259 114.99 37.7956 117.292 37.5653 119.25L37.4502 119.365C30.1963 110.384 26.7421 98.7547 27.8935 87.2406C28.1238 83.556 28.6995 79.8715 29.6206 76.3022C31.4629 75.7264 33.6505 76.3022 35.8382 76.4173C39.0622 76.7627 42.5164 77.4535 45.7404 77.799C44.3587 84.5923 42.977 91.3856 41.7104 98.179C41.0196 100.021 40.559 101.748 40.3287 103.475ZM45.8555 117.753L45.7404 118.329C45.0495 119.71 44.1284 120.977 42.977 122.243C42.171 120.401 41.7104 118.444 41.7104 116.486C43.4375 106.009 45.7404 95.5307 47.6978 85.3983L50.1157 73.769C50.5763 73.6539 51.0368 73.1933 51.4974 73.1933L51.7277 73.5388L50.0006 83.556L45.8555 105.433C45.5101 106.699 45.3949 108.081 45.1647 109.463H45.2798C48.1583 97.373 50.4611 85.168 53.5699 73.1933H53.6851C53.8002 73.3085 53.4548 73.3085 53.6851 73.4236C53.8002 72.9631 54.2608 73.5387 54.4911 73.6539C54.8365 74.1145 55.2971 74.4599 55.7576 74.8053L55.9879 75.1507L55.5274 76.6476L50.1157 100.827C48.9643 106.354 47.4675 111.65 45.9707 117.062C46.2009 117.292 45.7404 117.408 45.8555 117.753ZM75.4467 86.3194C74.871 87.3557 75.2165 88.2768 74.871 89.4282C74.065 93.8036 72.9136 98.0638 71.4168 102.209C67.6171 109.693 61.6298 115.796 54.3759 119.71C52.5337 120.747 50.6914 121.668 48.734 122.359C48.8492 121.668 48.9643 121.092 48.9643 120.401L48.6189 121.783C50.346 113.723 52.4185 105.778 54.1456 97.7184C55.5273 92.4219 56.6788 86.78 57.9453 81.2532C58.2907 81.0229 58.6362 81.4835 58.8664 81.2532C61.9752 81.7138 64.9689 82.6349 68.0777 83.3258C70.4957 84.362 73.0288 85.0529 75.4467 86.0891V86.3194ZM79.9373 61.9095C79.3616 65.594 78.7858 69.3937 78.4404 73.1933C78.095 73.4236 77.7496 72.9631 77.4041 72.8479C75.5619 72.2722 73.8348 71.4662 71.9925 71.0057L71.8774 70.8905C68.4232 69.9694 64.9689 68.818 61.3996 68.012C61.5147 67.8968 61.2844 67.7817 61.1693 67.7817C61.745 66.9757 61.6298 65.8243 61.9753 64.9032C62.8964 60.7581 63.7024 56.3827 64.8538 52.3528C70.3806 53.3891 75.3316 55.9222 80.513 58.1098C80.0524 59.3764 80.2827 60.7581 79.9373 61.9095Z" fill="#D12634"/>
</svg>
