<svg width="128" height="128" viewBox="0 0 128 128" fill="none" xmlns="http://www.w3.org/2000/svg">
<mask id="mask0_183_1220" style="mask-type:alpha" maskUnits="userSpaceOnUse" x="0" y="0" width="128" height="128">
<path d="M0 24C0 10.7452 10.7452 0 24 0H104C117.255 0 128 10.7452 128 24V104C128 117.255 117.255 128 104 128H24C10.7452 128 0 117.255 0 104V24Z" fill="url(#paint0_linear_183_1220)"/>
</mask>
<g mask="url(#mask0_183_1220)">
</g>
<g clip-path="url(#clip0_183_1220)">
<path d="M117.333 0H10.6667C4.77563 0 0 4.77563 0 10.6667V117.333C0 123.224 4.77563 128 10.6667 128H117.333C123.224 128 128 123.224 128 117.333V10.6667C128 4.77563 123.224 0 117.333 0Z" fill="url(#paint1_linear_183_1220)"/>
<path fill-rule="evenodd" clip-rule="evenodd" d="M87.0732 66.3715L99.3703 82.1102H112.919L92.8418 57.3971L111.22 33.8115H98.4762L87.2076 48.5585L77.1018 33.8115H64.2682L81.1708 57.3971L62.7924 82.1102H76.0285L87.0732 66.3715ZM38.3604 33.8353C31.5847 34.0054 25.9549 36.3521 21.4703 40.8745C16.9858 45.3971 14.6591 51.0753 14.4905 57.9083V101.434H23.9745V82.0899H38.3604C45.1404 81.9153 50.7885 79.5507 55.3039 74.9969C59.8196 70.4427 62.1639 64.747 62.3372 57.9091C62.1642 51.0758 59.8196 45.3979 55.3039 40.8753C50.7885 36.3526 45.1407 34.0065 38.3604 33.8361V33.8353ZM23.9745 72.5241V57.9083C24.0745 53.7774 25.473 50.3521 28.1703 47.6315C30.8677 44.9113 34.2645 43.5009 38.3604 43.4001C42.5074 43.5009 45.9354 44.9113 48.6439 47.6315C51.3522 50.3518 52.7554 53.7774 52.853 57.9083C52.7554 62.0907 51.3522 65.5475 48.6439 68.2793C45.9354 71.011 42.5074 72.4259 38.3604 72.5241H23.9745Z" fill="white"/>
</g>
<defs>
<linearGradient id="paint0_linear_183_1220" x1="64" y1="0" x2="64" y2="128" gradientUnits="userSpaceOnUse">
<stop stop-color="#1D63F0"/>
<stop offset="1" stop-color="#1AD5FD"/>
</linearGradient>
<linearGradient id="paint1_linear_183_1220" x1="64" y1="0" x2="64" y2="128" gradientUnits="userSpaceOnUse">
<stop offset="0.520833" stop-color="#383C53"/>
<stop offset="1" stop-color="#191B26"/>
</linearGradient>
<clipPath id="clip0_183_1220">
<rect width="128" height="128" fill="white"/>
</clipPath>
</defs>
</svg>
