<svg width="128" height="128" viewBox="0 0 128 128" fill="none" xmlns="http://www.w3.org/2000/svg">
<path d="M0 24C0 10.7452 10.7452 0 24 0H104C117.255 0 128 10.7452 128 24V104C128 117.255 117.255 128 104 128H24C10.7452 128 0 117.255 0 104V24Z" fill="#043261"/>
<path fill-rule="evenodd" clip-rule="evenodd" d="M108.953 89.1872C103.262 95.1621 99.7557 98.9558 99.7557 98.9558C93.6435 96.9488 89.7402 93.0042 89.7402 84.477V44.3236C87.7701 42.4827 85.6857 40.7662 83.4994 39.184L82.7982 39.9729V57.5843H86.1406L83.3942 68.4318H82.693V88.2243L84.6213 89.2685V89.5237L74.6993 98.9443L62.358 89.2801V89.0132C64.0162 88.0487 64.9356 86.1958 64.6954 84.3029V68.4318H58.6182L61.5166 57.5843H64.7655V49.7647C64.7655 44.2539 62.6502 41.0403 57.7534 38.4299V87.8762C57.7534 94.1412 55.2875 100 47.5625 100C43.5656 100 40.2349 98.4222 37.1029 97.6797C34.3692 96.802 31.5334 96.2756 28.665 96.1134C24.411 96.1134 21.4542 97.4012 20.2271 99.0719L19 98.1089C19.7947 90.6839 23.6747 84.1869 32.2645 84.1869C34.0143 84.2109 35.7436 84.5652 37.3599 85.2311C39.5337 83.8621 39.9895 81.2285 39.9895 75.9497V68.4318H37.3599C34.4382 68.4318 32.9657 69.0699 32.2645 71.4831L30.8037 70.961C30.8037 70.1837 30.6284 69.2324 30.6284 68.6407C30.6284 60.5195 35.7238 57.5611 38.8091 57.5611H40.0362V52.2939C40.0362 43.8711 46.0666 39.6365 58.1274 31.2717C58.1274 31.2717 61.1309 29.1718 62.8021 28.0464C71.2867 29.7403 76.7444 34.2417 78.6143 41.0867L91.7035 28C95.4901 30.448 100.539 34.1489 103.823 36.8057V82.8179C103.823 87.2614 105.774 88.2591 109 88.6188V89.2336L108.953 89.1872ZM81.0569 57.5843V41.4463L78.8598 43.7667V57.5843H81.0569ZM81.0569 87.3194V68.4318H78.8598V83.34C78.8568 84.9619 79.6844 86.4741 81.0569 87.3542V87.3194ZM56.1991 86.4492V37.3858L55.4979 37.0377C54.3292 38.3487 54.0954 39.4509 54.0954 41.8292V71.0422C54.0954 79.2678 49.0234 83.5024 39.4285 86.0432V86.2172C41.8328 87.4921 44.0734 89.0502 46.1017 90.8579C47.8362 92.4763 50.0936 93.4303 52.471 93.5495C55.0888 93.5495 56.2458 91.6352 56.2458 86.484L56.1991 86.4492Z" fill="white"/>
</svg>
