<svg width="128" height="128" viewBox="0 0 128 128" fill="none" xmlns="http://www.w3.org/2000/svg">
<rect width="128" height="128" rx="24" fill="#002D72"/>
<path d="M87.4987 28.1139C87.4987 27.9886 83.3228 26.026 83.3228 26.026C76.8346 24.9591 70.1841 25.4894 63.9469 27.5711C57.7099 25.4886 51.0592 24.9582 44.571 26.026C44.571 26.026 40.5622 28.1139 40.3952 28.1139L34.3402 41.8315C34.2879 41.9023 34.2592 41.9878 34.2583 42.0758C34.2574 42.1638 34.2844 42.2499 34.3353 42.3216C34.3863 42.3934 34.4586 42.4473 34.542 42.4755C34.6253 42.5037 34.7155 42.5049 34.7996 42.4788C44.454 40.8298 54.2366 40.0472 64.0305 40.1403C73.8249 40.054 83.6075 40.8436 93.2613 42.4997C93.3487 42.5326 93.4445 42.5353 93.5336 42.5073C93.6226 42.4793 93.6997 42.4224 93.7526 42.3455C93.8055 42.2686 93.8311 42.1761 93.8253 42.083C93.8195 41.9898 93.7827 41.9013 93.7207 41.8315L87.4987 28.1139ZM62.548 37.9898C55.804 37.6557 44.1743 37.6557 38.349 39.7436L42.5249 29.304L45.3436 27.8007L42.3161 36.4865C49.0261 35.0005 56.0082 35.2956 62.5689 37.3425V37.9898H62.548ZM65.3876 37.9898V37.3425C71.9482 35.2947 78.9305 34.9995 85.6404 36.4865L82.5503 27.926L85.4734 29.4502L89.6492 39.8898C84.1162 37.8019 72.4865 37.8019 65.4294 38.0733" fill="white"/>
<path d="M102.594 23.0403H102.322C77.0852 17.6532 50.9953 17.6532 25.7583 23.0403H25.5912H25.4868C24.4933 23.3017 23.6134 23.883 22.9832 24.6943C22.353 25.5057 22.0075 26.502 22 27.5293V34.336C22 83.59 52.421 103.467 61.6705 108.395C62.3677 108.78 63.1495 108.988 63.9463 109C64.7439 108.994 65.5269 108.785 66.2222 108.395C75.5134 103.467 105.893 83.5065 105.893 34.3568V27.5293C105.89 26.5278 105.569 25.5531 104.976 24.746C104.383 23.939 103.549 23.3416 102.594 23.0403ZM62.3177 105.576C52.0243 99.8967 31.3748 83.7988 26.0506 50.8097H26.3011C38.1479 48.3197 50.2126 47.0119 62.3177 46.9052V105.576ZM94.8267 73.9438C92.7859 78.1775 90.3533 82.2109 87.5607 85.9911C85.3522 88.9538 82.9233 91.7456 80.2947 94.3428V81.1889L73.0288 76.3449V100.815C70.7217 102.571 68.2937 104.162 65.7628 105.576V71.5009L73.0288 76.3449V59.4328L80.2947 64.2767V47.5734C82.7167 47.7822 85.1596 48.0327 87.5607 48.3459V69.0998L94.8267 73.9438V49.4525C97.1651 49.8492 99.4619 50.1833 101.759 50.747H102.009C100.752 58.7665 98.3324 66.5598 94.8267 73.8812M65.7419 54.5888V46.8635C68.1639 46.8635 70.5859 46.8635 73.0079 47.0723V59.4328L65.7419 54.5888ZM103.325 34.3568C103.331 38.5996 103.08 42.8389 102.573 47.0514C77.1754 41.718 50.9469 41.718 25.5495 47.0514C25.0415 42.8321 24.7905 38.5857 24.7978 34.336V27.5293C24.8065 27.1074 24.9428 26.698 25.1888 26.3551C25.4348 26.0122 25.7789 25.7518 26.1758 25.6084C51.0344 20.302 76.733 20.302 101.592 25.6084C102.034 25.6997 102.431 25.9406 102.716 26.2905C103.001 26.6404 103.157 27.0779 103.157 27.5293V34.336L103.325 34.3568Z" fill="white"/>
<path d="M87.5613 69.0998L80.2744 64.2558V81.1888L87.5613 86.0328V69.0998Z" fill="white"/>
<path d="M46.7638 79.769C49.3934 79.7649 51.9628 78.9814 54.1472 77.5174C56.3317 76.0535 58.0331 73.9749 59.0366 71.5442C60.04 69.1136 60.3004 66.4401 59.7849 63.8615C59.2693 61.2829 58.001 58.915 56.1401 57.0571C54.2792 55.1991 51.9094 53.9345 49.33 53.423C46.7506 52.9115 44.0775 53.1761 41.6484 54.1834C39.2194 55.1906 37.1434 56.8953 35.6829 59.082C34.2224 61.2688 33.4429 63.8394 33.4429 66.469C33.4484 69.9947 34.8514 73.3744 37.3445 75.8675C39.8375 78.3605 43.2172 79.7635 46.7429 79.769M49.144 77.8273C50.4605 76.4055 51.5328 74.7758 52.3177 73.0042C53.4328 73.242 54.5286 73.563 55.5957 73.9646C53.9333 75.9323 51.6636 77.2912 49.144 77.8273ZM56.5979 72.5448C55.3998 72.0609 54.1637 71.6768 52.9023 71.3965C53.3273 70.0424 53.5729 68.6385 53.6331 67.2206H58.2891C58.1525 69.0872 57.565 70.8927 56.577 72.4822M56.577 60.2887C57.565 61.8783 58.1525 63.6838 58.2891 65.5503H53.6957C53.6353 64.1324 53.3897 62.7286 52.9649 61.3745C54.2261 61.0932 55.4621 60.7091 56.6606 60.2261M55.6584 58.8272C54.591 59.2283 53.4953 59.5493 52.3803 59.7876C51.5645 58.056 50.4714 56.4691 49.144 55.0898C51.6658 55.633 53.9354 56.9991 55.5957 58.9734M47.5572 55.8832C48.804 57.1622 49.8337 58.6362 50.6056 60.247C49.5951 60.3887 48.5773 60.4724 47.5572 60.4975V55.8624V55.8832ZM47.5572 62.147C48.7875 62.1208 50.0149 62.0162 51.232 61.8338C51.6429 63.0625 51.8886 64.3404 51.9627 65.6338H47.599V62.1679L47.5572 62.147ZM47.5572 67.2833H51.9627C51.8893 68.57 51.6435 69.8411 51.232 71.0624C50.0157 70.8708 48.7881 70.7592 47.5572 70.7283V67.3042V67.2833ZM47.5572 72.4196C48.5702 72.448 49.5808 72.5316 50.5847 72.6701C49.8192 74.2732 48.7965 75.7402 47.5572 77.013V72.4404V72.4196ZM37.8484 73.9437C38.9159 73.5433 40.0116 73.2222 41.1264 72.9833C41.9086 74.7627 42.9811 76.3996 44.3001 77.8273C41.7702 77.2899 39.4922 75.9231 37.8275 73.9437M45.866 77.013C44.649 75.7388 43.6413 74.2801 42.8803 72.691C43.8842 72.5536 44.8949 72.4699 45.9078 72.4404V77.0339L45.866 77.013ZM45.866 70.7492C44.6566 70.7775 43.4501 70.8821 42.2539 71.0624C41.8375 69.8352 41.5916 68.5566 41.5231 67.2624H45.9286V70.7283L45.866 70.7492ZM45.866 65.6129H41.5231C41.5921 64.3189 41.838 63.0403 42.2539 61.8129C43.4634 62.0025 44.6839 62.1141 45.9078 62.147V65.6129H45.866ZM45.866 60.4767C44.8669 60.4486 43.8701 60.3649 42.8803 60.2261C43.6503 58.6257 44.6725 57.1593 45.9078 55.8832V60.4767H45.866ZM44.3418 55.0898C43.0228 56.5175 41.9503 58.1544 41.1682 59.9338C40.0533 59.6949 38.9577 59.3738 37.8901 58.9734C39.5559 56.9952 41.8334 55.6287 44.3627 55.0898M36.8671 60.3723C38.0657 60.8549 39.3016 61.239 40.5627 61.5206C40.1295 62.8734 39.8767 64.2775 39.811 65.6965H35.1758C35.31 63.8294 35.8977 62.0234 36.8879 60.4349M35.1758 67.3042H39.8319C39.8928 68.722 40.1384 70.1258 40.5627 71.48C39.3014 71.7609 38.0654 72.145 36.8671 72.6284C35.876 71.0403 35.2883 69.234 35.155 67.3668" fill="white"/>
</svg>
