<svg width="128" height="128" viewBox="0 0 128 128" fill="none" xmlns="http://www.w3.org/2000/svg">
<path fill-rule="evenodd" clip-rule="evenodd" d="M59.448 58.6161C59.9026 55.973 61.2772 53.5759 63.3287 51.8486C65.3803 50.1214 67.9766 49.1753 70.6584 49.1777C76.1545 49.1777 79.4804 53.12 78.5109 58.6161C78.0714 61.0925 76.8361 63.3581 74.9924 65.0688L76.0582 66.629L72.9634 68.8441L71.7821 67.1427C70.3744 67.739 68.8613 68.0468 67.3326 68.048C61.8044 68.048 58.4785 64.1121 59.448 58.6161ZM69.8751 64.2983L68.2956 61.9484L71.3968 59.7332L72.9763 62.0832C73.7726 61.075 74.3025 59.8827 74.5172 58.6161C75.1208 55.1939 73.4129 52.6256 70.0228 52.6256C66.6327 52.6256 64.0195 55.1939 63.416 58.6161C62.8124 62.0383 64.5203 64.6001 67.9104 64.6001C68.5771 64.6031 69.2401 64.5013 69.8751 64.2983ZM82.0743 67.7195L84.6875 52.8943H79.3584L79.9619 49.4785H94.5111L93.9075 52.8943H88.6041L85.9909 67.7195H82.0743ZM95.0504 62.1144L92.3859 65.1514C93.8048 66.8721 96.1098 68.0471 99.6283 68.0728C104.534 68.0728 107.384 65.5559 107.975 62.2236C108.703 58.0945 105.015 57.1829 102.11 56.4648C100.222 55.9982 98.6645 55.6133 98.8643 54.4803C99.0569 53.3888 100.11 52.6761 101.754 52.6761C102.672 52.6463 103.587 52.8085 104.439 53.1523C105.292 53.4962 106.063 54.0141 106.704 54.6729L109.375 51.7772C107.853 50.0822 105.612 49.209 102.717 49.209C98.4212 49.209 95.3522 51.7194 94.8193 54.7564C94.0968 58.8425 97.6662 59.711 100.555 60.414C102.519 60.8918 104.169 61.2932 103.943 62.5767C103.75 63.6426 102.569 64.5992 100.412 64.5992C99.3868 64.6271 98.3695 64.4173 97.4393 63.9862C96.5092 63.5551 95.6915 62.9144 95.0504 62.1144Z" fill="white"/>
<path d="M85.2589 31C57.6502 31 31.7109 42.8204 27.3513 57.408C25.4251 63.9186 28.0897 69.8769 34.1186 74.4805C32.5128 73.8689 30.8753 73.3438 29.2133 72.9074C17.059 69.7485 10.0734 72.6057 9.42491 77.7036C3.90959 78.9171 0.243411 81.3056 0.0122682 84.3747C-0.206033 87.1741 2.50347 89.9863 6.98507 92.2014C5.77799 91.0778 5.13593 89.8707 5.19371 88.6765C5.40559 85.8643 9.68815 83.8161 15.8776 83.0841C36.154 83.7262 51.3002 97.736 73.5605 97.7039C103.095 97.6654 112.45 88.073 112.913 86.975C113.144 86.4357 112.636 86.1275 112.001 86.1275C110.556 86.1275 110.293 87.1291 107.847 88.3747C105.696 89.4277 99.0954 92.3748 86.5559 91.9317C67.8333 90.5898 56.9375 85.6524 47.7368 80.9653C54.808 82.9267 62.1199 83.8841 69.4578 83.8097C97.0664 83.8097 123.006 71.9829 127.372 57.408C131.738 42.8332 112.88 31 85.2589 31ZM124.592 58.461C121.497 68.7918 101.394 77.1707 79.6858 77.1707C57.9777 77.1707 42.8828 68.7918 45.9775 58.461C49.0723 48.1302 69.1752 39.7513 90.8834 39.7513C112.592 39.7513 127.686 48.1302 124.592 58.461Z" fill="url(#paint0_linear_2800_2912)"/>
<defs>
<linearGradient id="paint0_linear_2800_2912" x1="64" y1="31" x2="64" y2="97.7039" gradientUnits="userSpaceOnUse">
<stop stop-color="#FF5E75"/>
<stop offset="1" stop-color="#E31937"/>
</linearGradient>
</defs>
</svg>
