<svg width="128" height="128" viewBox="0 0 128 128" fill="none" xmlns="http://www.w3.org/2000/svg">
<rect width="128" height="128" rx="24" fill="#00C0F3"/>
<path d="M98.4096 70.4817C94.2685 67.961 89.1372 68.3211 85.4462 70.9318C84.726 71.4719 83.7358 71.562 82.9255 71.0218L71.1325 64.2701C70.9524 64.18 70.9524 63.91 71.1325 63.7299L82.8355 56.9782C83.6457 56.5281 84.636 56.6181 85.4462 57.1582C89.1372 59.8589 94.2685 60.219 98.4996 57.6984C103.811 54.4575 105.791 47.4357 102.821 41.9443C99.6699 36.0928 92.198 34.0222 86.4365 37.3531C82.2954 39.6937 80.1348 44.1949 80.5849 48.606C80.675 49.5062 80.2248 50.4065 79.4146 50.8566L67.6216 57.6083C67.4415 57.6984 67.1715 57.6083 67.1715 57.3383V43.7447C67.1715 42.8445 67.7116 41.9443 68.6118 41.5842C73.113 39.5136 76.0838 34.7424 75.4536 29.431C74.7334 24.0296 70.3223 19.6185 64.9209 19.0783C57.809 18.2681 51.6874 23.8496 51.6874 30.8714C51.6874 35.6426 54.4782 39.7837 58.6192 41.6742C59.5195 41.9443 60.0596 42.8445 60.0596 43.7447V57.3383C60.0596 57.6083 59.7895 57.6984 59.6095 57.6083L47.8164 50.7666C47.0062 50.3164 46.5561 49.4162 46.6461 48.516C47.0962 43.6547 44.3955 38.7034 39.4443 36.6329C34.493 34.4723 28.4614 36.0928 25.3106 40.5039C21.0795 46.2654 22.88 54.3675 28.9115 57.7884C33.0526 60.219 38.0939 59.7689 41.6948 57.1582C42.415 56.6181 43.4953 56.5281 44.3055 56.9782L56.0086 63.7299C56.1886 63.82 56.1886 64.09 56.0086 64.2701L44.2155 71.0218C43.4053 71.4719 42.415 71.3819 41.6948 70.9318C38.0039 68.3211 32.8725 67.961 28.7315 70.4817C23.4201 73.7225 21.5296 80.7443 24.4103 86.2358C27.5612 92.0873 35.0331 94.1578 40.7946 90.827C44.9357 88.3963 47.0962 83.8952 46.6461 79.484C46.5561 78.5838 47.0062 77.6835 47.8164 77.2334L59.6095 70.4817C59.7895 70.3917 60.0596 70.4817 60.0596 70.7518V84.2553C60.0596 85.1555 59.5195 86.0557 58.6192 86.4158C54.1181 88.4864 51.1473 93.2576 51.7775 98.569C52.4076 103.97 56.8188 108.291 62.2202 108.922C69.332 109.732 75.4536 104.15 75.4536 97.1286C75.4536 92.3574 72.6629 88.2163 68.5218 86.3258C67.7116 86.0557 67.1715 85.1555 67.1715 84.2553V70.6617C67.1715 70.3917 67.4415 70.3016 67.6216 70.3917L79.3246 77.2334C80.1348 77.6835 80.5849 78.5838 80.4949 79.484C80.0448 83.9852 82.2054 88.4864 86.3464 90.827C92.1079 94.1578 99.4898 92.0873 102.731 86.2358C105.701 80.7443 103.811 73.6325 98.4096 70.4817Z" fill="white"/>
</svg>
