<svg width="128" height="128" viewBox="0 0 128 128" fill="none" xmlns="http://www.w3.org/2000/svg">
<rect width="128" height="128" rx="24" fill="#0077C5"/>
<path fill-rule="evenodd" clip-rule="evenodd" d="M112.537 78.3546C112.211 78.3533 111.899 78.2232 111.668 77.9926C111.438 77.7621 111.308 77.4497 111.306 77.1236C111.321 76.8067 111.457 76.5075 111.686 76.2883C111.915 76.069 112.22 75.9467 112.537 75.9467C112.855 75.9467 113.16 76.069 113.389 76.2883C113.618 76.5075 113.754 76.8067 113.768 77.1236C113.768 77.7979 113.218 78.3546 112.537 78.3546ZM112.537 75.6684C111.731 75.6684 111.076 76.3157 111.076 77.1236C111.076 77.9328 111.731 78.5655 112.537 78.5655C113.347 78.5655 114 77.9316 114 77.1236C114 76.3157 113.345 75.6684 112.537 75.6684ZM112.262 77.0145V76.5475H112.531C112.686 76.5475 112.858 76.5938 112.858 76.7717C112.858 76.9705 112.666 77.0145 112.499 77.0145H112.262ZM113.153 76.7768C113.153 76.4261 112.853 76.2962 112.545 76.2962H111.969V77.9367H112.261V77.2513H112.474L112.859 77.9379H113.218L112.774 77.2194C113.007 77.1694 113.153 77.0146 113.153 76.7783L113.153 76.7768ZM103.949 55.9775C104.347 55.9855 104.742 55.9142 105.111 55.7676C105.481 55.6211 105.818 55.4023 106.102 55.1241C106.386 54.8458 106.611 54.5138 106.765 54.1473C106.919 53.7808 106.999 53.3872 106.999 52.9897C106.999 52.5921 106.92 52.1985 106.766 51.8319C106.612 51.4654 106.386 51.1332 106.102 50.8549C105.819 50.5765 105.482 50.3576 105.113 50.2109C104.743 50.0643 104.348 49.9927 103.95 50.0006C103.168 50.0162 102.423 50.338 101.876 50.8967C101.328 51.4554 101.021 52.2067 101.021 52.989C101.021 53.7714 101.328 54.5226 101.876 55.0814C102.423 55.6401 103.168 55.9618 103.95 55.9775H103.949ZM95.9311 58.5582V62.9424H101.475V78.356H106.422V62.9424H111.967V58.5582H95.9311ZM52.7716 55.9775C53.1641 55.9776 53.5528 55.9004 53.9154 55.7502C54.2781 55.6001 54.6076 55.3799 54.8852 55.1024C55.1628 54.8249 55.383 54.4955 55.5332 54.1328C55.6834 53.7702 55.7607 53.3815 55.7607 52.989C55.7607 52.5965 55.6834 52.2078 55.5332 51.8452C55.383 51.4826 55.1628 51.1532 54.8852 50.8756C54.6076 50.5981 54.2781 50.378 53.9154 50.2278C53.5528 50.0777 53.1641 50.0005 52.7716 50.0006C51.9893 50.0162 51.2444 50.338 50.6968 50.8967C50.1491 51.4554 49.8424 52.2067 49.8424 52.989C49.8424 53.7714 50.1491 54.5226 50.6968 55.0814C51.2444 55.6401 51.9893 55.9618 52.7716 55.9775ZM44.7522 62.9412H50.2975V78.356H55.2432V62.9424H60.7897V58.5582H44.7534V62.9424L44.7522 62.9412ZM87.5169 78.356H92.4651V58.5705H87.5182V78.356H87.5169ZM77.5077 69.4526C77.5077 72.091 76.0218 74.8103 72.8906 74.8103C69.7164 74.8103 69.1806 71.885 69.1806 69.5347V58.5705H64.2336V70.9361C64.2336 74.977 66.3767 78.9334 71.5309 78.9334C74.4562 78.9334 76.8064 77.1606 77.672 75.1818H77.754V78.356H82.4534V58.5705H77.5076L77.5077 69.4526ZM34.9367 57.993C32.0102 57.993 29.6612 59.7659 28.7956 61.7447H28.7122V58.5705H24.0141V78.356H28.9598V67.4738C28.9598 64.8354 30.4445 62.1149 33.577 62.1149C36.7499 62.1149 37.287 65.0414 37.287 67.3917V78.356H42.2327V65.9879C42.2327 61.9494 40.0908 57.9918 34.9367 57.9918L34.9367 57.993ZM14 78.356H18.9458V58.5705H14V78.356Z" fill="white"/>
</svg>
