<svg width="128" height="128" viewBox="0 0 128 128" fill="none" xmlns="http://www.w3.org/2000/svg">
<g clip-path="url(#clip0_264_2378)">
<path d="M127.82 64.0025C127.82 28.7546 99.2464 0.179688 63.9988 0.179688C28.767 0.179688 0.204195 28.7306 0.179199 63.9574V113.346C0.19816 121.344 6.68524 127.819 14.6888 127.819H64.0247C99.2605 127.806 127.82 99.2409 127.82 64.0025Z" fill="#294172"/>
<path d="M36.9744 68.1221H59.9112V91.0589C59.9112 103.72 49.6355 113.996 36.9744 113.996C24.3133 113.996 14.0376 103.72 14.0376 91.0589C14.0376 78.3978 24.3133 68.1221 36.9744 68.1221Z" stroke="#3C6EB4" stroke-width="29.21"/>
<path d="M82.7375 68.166H59.8007V45.2292C59.8007 32.5681 70.0764 22.2924 82.7375 22.2924C95.3986 22.2924 105.674 32.5681 105.674 45.2292C105.674 57.8903 95.3986 68.166 82.7375 68.166Z" stroke="#3C6EB4" stroke-width="29.21"/>
<path d="M66.9279 61.1377V91.0265C66.9279 107.568 53.5165 120.979 36.9747 120.979C34.465 120.979 32.6809 120.696 30.3578 120.089C26.9704 119.202 24.2021 116.425 24.2009 113.195C24.2009 109.29 27.0353 106.449 31.2722 106.449C33.2888 106.449 34.0205 106.837 36.9747 106.837C45.6957 106.837 52.7698 99.7726 52.7851 91.0515V77.3135C52.7851 76.0825 51.7848 75.0851 50.5517 75.0851L40.1654 75.0831C36.2956 75.0831 33.169 71.9965 33.169 68.1161C33.167 64.2116 36.3277 61.1377 40.2393 61.1377" fill="white"/>
<path d="M52.784 75.1504V45.2616C52.784 28.7203 66.1954 15.3086 82.7373 15.3086C85.2469 15.3086 87.031 15.592 89.3541 16.1992C92.7415 17.0857 95.5098 19.863 95.511 23.0935C95.511 26.9983 92.6766 29.8386 88.4397 29.8386C86.4231 29.8386 85.6914 29.4515 82.7373 29.4515C74.0162 29.4515 66.9421 36.5155 66.9268 45.2366V58.9746C66.9268 60.2055 67.9272 61.2029 69.1602 61.2029L79.5465 61.205C83.4163 61.205 86.5429 64.2916 86.5429 68.172C86.545 72.0765 83.3842 75.1504 79.4727 75.1504" fill="white"/>
<path d="M116.808 116.774L116.808 114.123L115.596 116.902L114.416 114.123L114.416 116.774H113.736V112.587H114.449L115.616 115.262L116.765 112.587H117.487V116.774H116.808ZM111.854 113.288V116.774H111.144V113.288H109.953V112.587H113.045V113.288" fill="#3C6EB4"/>
</g>
<defs>
<clipPath id="clip0_264_2378">
<rect width="128" height="128" fill="white"/>
</clipPath>
</defs>
</svg>
