<svg width="128" height="128" viewBox="0 0 128 128" fill="none" xmlns="http://www.w3.org/2000/svg">
<rect width="128" height="128" rx="24" fill="url(#paint0_linear_264_1566)"/>
<path d="M113.531 59.1248L113.39 59.7554L112.096 60.1042C111.825 60.2083 111.592 60.3904 111.425 60.6274L105.462 68.174L103.241 75.5528C103.12 75.9352 103.275 76.1633 103.523 76.2236L105.079 76.606L104.871 77.2365H97.1167L97.3246 76.606L98.7803 76.2572C98.9675 76.2196 99.1386 76.1255 99.2706 75.9875C99.4025 75.8495 99.489 75.6744 99.5182 75.4857L101.739 68.013L99.7932 60.7146C99.706 60.3658 99.5987 60.0841 99.2364 59.9767L98.3241 59.7286L98.465 59.098H105.079L104.938 59.7286L103.818 60.0438C103.416 60.1512 103.328 60.3591 103.436 60.7146L105.025 66.9062L109.721 60.6408C109.8 60.5404 109.849 60.4194 109.862 60.292C109.855 60.2198 109.823 60.1523 109.771 60.101C109.72 60.0497 109.652 60.0176 109.58 60.0103L108.319 59.695L108.494 59.0645L113.531 59.1248Z" fill="white"/>
<path d="M98.1091 63.2582H97.2102L96.4388 60.897C96.425 60.8097 96.394 60.726 96.3477 60.6506C96.3013 60.5753 96.2406 60.5099 96.1689 60.4582C96.0972 60.4065 96.016 60.3694 95.9299 60.3491C95.8438 60.3289 95.7546 60.3259 95.6674 60.3402H93.7221L89.174 75.5809C89.0533 75.9633 89.174 76.1913 89.5228 76.2517L90.7839 76.6005L90.576 77.2311H82.9959L83.2038 76.6005L84.5455 76.2852C85.1425 76.1444 85.2632 75.97 85.4175 75.4467L89.932 60.3067H87.6714C87.4996 60.3192 87.3335 60.3734 87.1874 60.4646C87.0413 60.5557 86.9196 60.6811 86.8329 60.8299L85.2632 63.0704H84.3912L85.8066 58.6699H86.3633C86.41 58.8088 86.5008 58.9285 86.622 59.0109C86.7431 59.0932 86.8879 59.1337 87.0341 59.1261H96.4992C96.6797 59.1534 96.8643 59.1242 97.0276 59.0425C97.1909 58.9609 97.325 58.8307 97.4115 58.6699H98.0085L98.1091 63.2582ZM84.0625 63.0302H83.1904L82.3519 60.7695C82.3052 60.6307 82.2144 60.5109 82.0933 60.4286C81.9722 60.3462 81.8274 60.3058 81.6811 60.3134H78.0588L76.0128 67.2093H79.4272C79.776 67.2093 79.984 67.0349 80.2322 66.686L81.178 65.3042H82.0501L80.4401 70.7981H79.5681L79.6016 68.8527C79.6016 68.5039 79.3937 68.3966 79.0449 68.3966H75.6908L73.3833 76.0169H78.3539C78.5953 76.054 78.8423 76.0212 79.0657 75.9226C79.2892 75.824 79.4798 75.6635 79.615 75.4602L81.5939 72.9916H82.5397L80.5273 77.7543H79.8968C79.7224 77.4055 79.4742 77.2646 78.8436 77.2646H67.4399L67.6479 76.6341L68.9895 76.2852C69.1639 76.2352 69.32 76.1357 69.4391 75.9988C69.5581 75.8619 69.6349 75.6935 69.6603 75.5138L74.0339 60.7561C74.0849 60.6493 74.0916 60.5267 74.0527 60.4149C74.0138 60.3031 73.9323 60.2112 73.826 60.1591L72.5984 59.7767L72.7728 59.1462H82.6068C82.7657 59.1526 82.923 59.1129 83.0599 59.032C83.1967 58.9511 83.3073 58.8323 83.3783 58.69H83.935L84.0625 63.0302Z" fill="white"/>
<path d="M113.35 54.349C104.479 56.2421 95.4338 57.1976 86.3633 57.2C64.8975 57.2 49.8044 54.2753 43.4318 52.7525L16.5795 78.2163L14.3927 78.498L22.288 54.4698C19.9029 55.4268 17.4013 56.0629 14.8488 56.3615C14.2384 56.4285 14.2183 56.0797 14.5 55.9254C15.333 55.5148 16.0763 54.9428 16.6865 54.2427C17.2968 53.5425 17.7621 52.7282 18.0553 51.8469C21.9258 52.7928 24.8438 52.0549 28.3789 50.7602L21.255 70.9716L40.279 50.3242C51.7679 52.7093 63.4673 53.9341 75.2011 53.9801C84.4582 53.9801 92.5749 52.5245 96.7607 50.8139C102.644 54.3155 109.358 54.0136 113.209 53.7722C113.766 53.7386 113.839 54.2618 113.35 54.3692" fill="white"/>
<path d="M71.9681 59.1246L71.7937 59.7551L70.3045 60.1778C70.1699 60.2178 70.0493 60.2951 69.9567 60.4007C69.8641 60.5064 69.8033 60.636 69.7813 60.7748L65.4076 75.4184C65.2869 75.8545 65.1796 76.1362 65.7229 76.2905L66.7761 76.6058L66.5681 77.2363H59.5582L59.7662 76.6058L60.7791 76.2905C61.356 76.1161 61.5304 75.9081 61.6511 75.452L65.9912 60.7345C66.0784 60.4192 65.9912 60.2113 65.743 60.1375L64.5893 59.7551L64.7637 59.1246H71.9681ZM61.5237 63.6056C61.5237 66.3559 59.3369 68.7506 55.7816 68.6098C55.0896 68.5858 54.4028 68.48 53.7356 68.2945C53.7356 71.6485 54.7687 75.083 56.761 75.083C57.9885 75.083 58.3508 74.05 58.5252 73.1779C58.5587 73.0371 58.6661 72.9298 58.8405 73.1109C59.1236 73.3854 59.3472 73.7152 59.4972 74.0799C59.6472 74.4446 59.7205 74.8363 59.7125 75.2306C59.7125 77.2967 58.3709 78.2224 56.439 78.2224C51.4549 78.2224 51.2268 71.0448 52.0318 66.6376C52.0855 66.3894 52.1727 66.3559 52.3471 66.4632C53.0715 66.888 53.9028 67.0952 54.7418 67.0602C56.3518 67.0602 57.8745 65.7857 57.8745 63.4714C57.8745 61.1571 55.956 59.7149 53.1185 59.7149L48.4229 75.4788C48.3799 75.6018 48.3573 75.7309 48.3558 75.8612C48.3512 75.907 48.3557 75.9533 48.369 75.9974C48.3824 76.0415 48.4044 76.0825 48.4337 76.1181C48.463 76.1536 48.4991 76.183 48.5398 76.2045C48.5806 76.2261 48.6252 76.2393 48.6711 76.2435L50.0127 76.5923L49.8047 77.2229H42.8149L43.0229 76.5923L44.0761 76.2771C44.4115 76.1697 44.5456 75.9819 44.7066 75.4721L49.3553 59.7149C47.3429 60.1375 46.3635 60.8888 46.3635 62.0426C46.3323 62.4905 46.4554 62.9355 46.7123 63.3037C46.7817 63.4069 46.819 63.5282 46.8196 63.6525C46.8196 63.9141 46.5916 64.1422 45.9476 64.1422C45.6726 64.1612 45.3968 64.1199 45.1394 64.0212C44.8821 63.9224 44.6494 63.7686 44.4577 63.5706C44.266 63.3725 44.1199 63.1349 44.0297 62.8744C43.9394 62.614 43.9072 62.3369 43.9352 62.0627C43.9352 61.1907 44.4785 58.2324 52.1794 58.2324C58.7063 58.2324 61.5237 60.3522 61.5237 63.5989" fill="white"/>
<path d="M38.9107 62.3321L31.6861 71.2337H38.0923L38.9107 62.3321ZM42.6404 76.6269L42.4324 77.2575H35.8116L36.0195 76.6269L37.1733 76.3117C37.3246 76.2776 37.4595 76.1921 37.5549 76.0698C37.6503 75.9475 37.7003 75.7959 37.6965 75.6409L37.9783 72.5753H30.5458L28.1174 75.5067C27.9882 75.6284 27.9012 75.7882 27.8693 75.9628C27.8693 76.1171 27.9565 76.2245 28.151 76.2781L29.2712 76.6269L29.0633 77.2575H23.4956L23.7438 76.6269L24.8976 76.3452C25.3408 76.208 25.7316 75.9389 26.0178 75.5738L41.0438 57.9048L42.6001 57.623L41.1512 75.6476C41.1176 76.0299 41.1512 76.2781 41.6073 76.3854L42.6404 76.6269Z" fill="white"/>
<defs>
<linearGradient id="paint0_linear_264_1566" x1="64" y1="0" x2="64" y2="128" gradientUnits="userSpaceOnUse">
<stop stop-color="#484848"/>
<stop offset="1"/>
</linearGradient>
</defs>
</svg>
