<svg width="162" height="175" viewBox="0 0 162 175" fill="none" xmlns="http://www.w3.org/2000/svg">
<path fill-rule="evenodd" clip-rule="evenodd" d="M96.2613 157.407L104.016 154.185C103.585 153.099 102.311 152.35 100.794 152.35C98.8556 152.34 96.1677 154.054 96.2613 157.407ZM105.365 160.526L108.324 162.493C107.369 163.907 105.074 166.342 101.094 166.342C96.1677 166.342 92.6087 162.53 92.6087 157.669C92.6087 152.509 96.1957 148.997 100.672 148.997C104.784 149.137 107.341 151.788 108.493 155.497L96.8794 160.292C97.7692 162.034 99.1459 162.924 101.085 162.924C103.014 162.924 104.363 161.968 105.346 160.526M86.5211 165.817H90.3329V140.343H86.5211V165.817ZM80.3024 157.698C80.3024 154.644 78.2607 152.406 75.6665 152.406C73.0441 152.406 70.8338 154.644 70.8338 157.698C70.8338 160.723 73.0347 162.924 75.6665 162.924C78.2701 162.924 80.3024 160.723 80.3024 157.698ZM83.6553 149.521V165.068C83.6553 171.474 79.881 174.106 75.4136 174.106C71.2085 174.106 68.6798 171.278 67.7245 168.983L71.0399 167.606C71.6299 169.02 73.0816 170.697 75.4136 170.697C79.6749 170.213 80.0495 167.456 80.0495 164.356H79.9091C79.0568 165.405 77.4084 166.333 75.3387 166.333C71.0024 166.333 67.022 162.558 67.022 157.688C67.022 152.79 70.993 148.978 75.3387 148.978C77.4084 148.978 79.0568 149.896 79.9091 150.917H80.0402V149.503C80.0402 149.493 83.6553 149.493 83.6553 149.493V149.521ZM42.0722 157.669C42.0722 154.551 39.8432 152.415 37.2677 152.415C34.6828 152.415 32.4632 154.551 32.4632 157.669C32.4632 160.76 34.6922 162.924 37.2677 162.924C39.8432 162.924 42.0722 160.751 42.0722 157.669ZM45.8184 157.669C45.8184 162.661 41.9786 166.342 37.2677 166.342C32.5568 166.342 28.7169 162.661 28.7169 157.669C28.7169 152.64 32.5568 148.997 37.2677 148.997C41.9786 148.997 45.8184 152.64 45.8184 157.669ZM61.2716 157.669C61.2716 154.551 59.0426 152.415 56.4671 152.415C53.8822 152.415 51.6625 154.551 51.6625 157.669C51.6625 160.76 53.8915 162.924 56.4671 162.924C59.0426 162.924 61.2716 160.751 61.2716 157.669ZM65.0178 157.669C65.0178 162.661 61.1779 166.342 56.4671 166.342C51.7562 166.342 47.9163 162.661 47.9163 157.669C47.9163 152.64 51.7562 148.997 56.4671 148.997C61.1779 148.997 65.0178 152.64 65.0178 157.669ZM14.0692 166.342C6.6517 166.342 0.395508 160.292 0.395508 152.856C0.395508 145.429 6.64233 139.369 14.0692 139.369C18.1807 139.369 21.1027 140.98 23.3037 143.087L20.7094 145.682C19.136 144.202 17.0006 143.05 14.0692 143.05C8.64656 143.05 4.4227 147.424 4.4227 152.79C4.4227 158.213 8.66529 162.53 14.0692 162.53C17.5813 162.53 19.5855 161.116 20.8686 159.833C21.9176 158.784 22.6106 157.267 22.8728 155.197H14.0692V151.516H26.4317C26.5629 152.172 26.6284 152.959 26.6284 153.811C26.6284 156.574 25.8698 159.992 23.4441 162.418C21.084 164.9 18.0589 166.22 14.0786 166.22" fill="#5F6368"/>
<path d="M78.2795 89.2171C81.8291 93.6564 85.4442 99.2383 87.336 102.61C89.64 106.993 90.5952 109.952 92.3091 115.253C93.3113 118.157 94.2665 119.037 96.2708 119.037C98.4623 119.037 99.4644 117.557 100.232 115.253C101.834 110.28 103.07 106.497 105.028 102.891C112.576 88.6552 124.883 78.5404 131.813 64.6794C131.813 64.6794 136.374 56.2129 136.374 44.3561C136.374 33.3048 131.879 25.625 131.879 25.625L78.3076 89.3108L78.2795 89.2171Z" fill="#34A853"/>
<path d="M60.1102 63.181C64.4278 73.0148 72.6601 81.6311 78.2794 89.2172L108.062 53.9091C108.062 53.9091 103.857 59.416 96.2613 59.416C87.7948 59.416 80.9018 52.6728 80.9018 44.1501C80.9018 38.2873 84.3951 34.2227 84.3951 34.2227C62.4797 37.4819 63.6972 42.7921 60.0447 63.1622L60.1102 63.181Z" fill="#FBBC04"/>
<path d="M108.436 5.83496C118.364 9.02861 126.793 15.7624 131.85 25.5963L108.062 53.9739C108.062 53.9739 111.555 49.8905 111.555 44.0464C111.555 35.3458 104.212 28.7806 96.2891 28.7806C88.7686 28.7806 84.4885 34.222 84.4885 34.222C86.3148 30.0636 105.186 7.24916 108.464 5.84433L108.436 5.83496Z" fill="#4285F4"/>
<path d="M65.5422 18.3195C71.4613 11.2766 81.8383 3.99023 96.1676 3.99023C103.089 3.99023 108.343 5.82588 108.343 5.82588L84.4607 34.2035C82.8498 33.3297 67.1344 21.0917 65.5422 18.2821V18.3195Z" fill="#1A73E8"/>
<path d="M60.11 63.1804C60.11 63.1804 56.2046 55.4258 56.2046 44.262C56.2046 33.6789 60.3442 24.407 65.5701 18.4131L84.4886 34.3345L60.1381 63.1804H60.11Z" fill="#EA4335"/>
</svg>
