<svg width="128" height="128" viewBox="0 0 128 128" fill="none" xmlns="http://www.w3.org/2000/svg">
<path fill-rule="evenodd" clip-rule="evenodd" d="M120.723 32.0008C121.772 33.3498 122.509 34.9093 122.881 36.5693L122.879 36.578C121.268 34.2856 119.175 32.3627 116.741 30.9406C116.242 30.6661 115.727 30.4178 115.201 30.1969C115.496 29.7455 115.859 29.3418 116.279 29C117.992 29.617 119.52 30.649 120.723 32.0008ZM110.312 53.8316C111.85 52.7982 113.266 51.8465 116.282 51.7214H116.284C118.064 51.5388 119.861 51.8441 121.477 52.6032C123.093 53.3629 124.465 54.5469 125.442 56.0249C123.987 55.1611 122.364 54.6093 120.678 54.4061C118.992 54.2024 117.282 54.3514 115.659 54.8434C114.416 55.2244 113.531 56.0898 112.552 57.047C111.325 58.2473 109.95 59.592 107.535 60.3072C105.478 60.9178 103.398 60.8585 101.539 60.8055C99.0261 60.7338 96.917 60.6737 95.8119 62.2937C94.7437 63.8629 95.8787 65.535 97.2035 67.4865C98.1152 68.8296 99.1167 70.305 99.5517 71.9702C100.024 73.8839 99.8498 75.8967 99.0556 77.7037C98.2614 79.5112 96.8912 81.0134 95.1523 81.9829C97.7235 76.4474 95.5788 72.7355 92.8028 69.6825C90.0268 66.6296 87.7103 61.7341 91.8787 58.3904C94.6711 56.1495 98.2742 56.2041 101.44 56.2521C103.187 56.2786 104.801 56.3031 106.072 55.9382C107.999 55.3862 109.188 54.587 110.312 53.8316ZM119.994 46.6105C120.77 47.1366 121.056 47.9072 121.369 48.7516C122.008 50.472 122.76 52.4991 128 53.3905C126.429 42.8659 119.794 40.3963 117.63 39.9475C116.388 37.5948 114.585 35.5752 112.374 34.0629C109.879 32.4732 106.985 31.5953 104.015 31.5261C104.015 31.5261 102.411 37.5711 111.376 42.0268C110.046 43.6053 108.189 44.6647 106.138 45.0147C101.958 45.3139 97.6818 43.2042 92.9389 40.1709C92.2472 39.724 91.5693 39.268 90.891 38.8116C86.0461 35.5524 81.1814 32.2799 71.1472 32.259C62.9449 32.259 56.8415 36.3348 50.5252 40.5528C43.523 45.2289 36.2592 50.0797 25.5841 49.7457C3.9949 49.0671 0 33.0504 0 33.0504C0 33.0504 2.9346 56.7534 26.7478 56.7534C40.2139 56.7534 48.3359 51.0416 55.4671 46.0266C60.9467 42.1731 65.8413 38.7309 72.126 38.6075C80.163 38.4459 85.9175 41.5897 91.2827 44.5206C95.7788 46.9769 100.001 49.2837 105.064 49.3707C108.991 49.4397 111.554 48.1428 113.641 47.0869C115.944 45.9213 117.667 45.0495 120.004 46.6343L119.994 46.6105ZM51.5039 57.933C57.9403 56.1595 71.7181 54.5041 75.3383 62.0715C77.4699 66.5267 77.4597 69.6048 77.4513 72.1089C77.4419 74.9213 77.435 77.0097 80.4674 79.5117C83.3316 81.8748 86.1957 82.6882 88.7965 83.4267C91.4009 84.1664 93.7411 84.831 95.5525 86.9017C98.4486 90.2119 98.7709 96.5575 98.5693 99.3165C97.7648 97.05 95.2508 92.104 91.6306 90.4486C89.9926 89.6998 87.9593 89.5317 85.8312 89.3558C82.0797 89.0457 78.0335 88.7113 75.3383 85.1277C73.2988 82.4159 73.229 79.0837 73.1586 75.7302C73.0833 72.1388 73.0075 68.5228 70.5114 65.6184C66.6493 61.1257 56.2307 58.6225 51.5039 57.933Z" fill="url(#paint0_linear_2800_2718)"/>
<defs>
<linearGradient id="paint0_linear_2800_2718" x1="64" y1="29" x2="64" y2="99.3165" gradientUnits="userSpaceOnUse">
<stop stop-color="#4EC5FF"/>
<stop offset="1" stop-color="#0095DE"/>
</linearGradient>
</defs>
</svg>
