<svg width="128" height="128" viewBox="0 0 128 128" fill="none" xmlns="http://www.w3.org/2000/svg">
<mask id="mask0_183_1228" style="mask-type:alpha" maskUnits="userSpaceOnUse" x="0" y="0" width="128" height="128">
<path d="M0 24C0 10.7452 10.7452 0 24 0H104C117.255 0 128 10.7452 128 24V104C128 117.255 117.255 128 104 128H24C10.7452 128 0 117.255 0 104V24Z" fill="url(#paint0_linear_183_1228)"/>
</mask>
<g mask="url(#mask0_183_1228)">
<path d="M135.49 -17.3398H-2.27979V128H135.49V-17.3398Z" fill="#005EA6"/>
<path d="M136.13 104.57H-1.63965V110.29H136.13V104.57Z" fill="white"/>
<path d="M135.49 110.291H-2.27979V177.751H135.49V110.291Z" fill="#C41623"/>
<path d="M56.4734 67.345V32.625H45.579V65.8387C45.579 71.0112 41.1644 74.0901 34.9309 74.0901C27.8069 74.0901 23.9039 71.0112 23.9039 65.7724V32.625H13V66.7198C13 78.391 22.265 83.0424 34.6751 83.0424C43.2391 83.0424 50.1452 80.7025 53.7451 75.9658V82.4172H63.4648V72.2806H55.6966C56.1987 70.7933 56.4734 69.1544 56.4734 67.3545V67.345Z" fill="white"/>
<path d="M108.568 68.0463C108.568 59.5297 103.405 55.4372 93.505 53.5425C92.3682 53.353 89.0904 52.6615 86.58 52.1594C78.4518 50.5205 75.4866 49.0711 75.4866 45.4143C75.4866 42.5723 77.1255 40.7534 85.3769 40.7534C91.6767 40.7534 94.3861 42.2028 95.7123 44.9786C96.0913 45.7364 96.4039 46.8638 96.4039 47.4322H107.62C107.62 46.1722 107.118 44.287 106.484 42.6481C103.964 36.3483 98.1091 32 85.6232 32C71.0057 32 64.2038 37.6651 64.2038 46.1154C64.2038 54.5656 70.1815 58.8476 79.8918 60.6665C82.0991 61.1023 85.7463 61.8033 87.2052 62.0591C95.2576 63.5748 97.3512 65.0148 97.3512 69.1168C97.3512 72.3946 94.7082 74.4692 87.1389 74.4692C80.5265 74.4692 77.2487 73.2188 75.8656 70.3104C75.4866 69.562 75.174 68.0463 75.174 67.1558H63.9575C63.9575 68.16 64.147 70.623 64.6586 72.2525C66.6669 78.5523 72.0857 83.09 87.1484 83.09C96.6123 83.09 102.903 80.4375 106.105 76.0418V82.3985H115.824V72.2619H107.971C108.369 70.9451 108.577 69.5336 108.577 68.0368L108.568 68.0463Z" fill="white"/>
</g>
<defs>
<linearGradient id="paint0_linear_183_1228" x1="64" y1="0" x2="64" y2="128" gradientUnits="userSpaceOnUse">
<stop stop-color="#1D63F0"/>
<stop offset="1" stop-color="#1AD5FD"/>
</linearGradient>
</defs>
</svg>
