<svg width="128" height="128" viewBox="0 0 128 128" fill="none" xmlns="http://www.w3.org/2000/svg">
<rect width="128" height="128" rx="24" fill="url(#paint0_linear_2863_8709)"/>
<path fill-rule="evenodd" clip-rule="evenodd" d="M29.1665 72.5696H98.8335V73.0484H29.1665V72.5696ZM29.1665 74.3167H98.8335V75.8666H29.1665V74.3167ZM98.8335 118.145H29.1665V117.667H98.8335V118.145ZM98.8335 116.398H29.1665V114.848H98.8335V116.398ZM33.6575 88.3581C33.6575 83.5344 30.6188 82.9188 29.3352 82.9188V82.5775H43.4569V82.9188C42.7583 82.9188 39.3969 82.7376 39.3969 88.3581V101.133C39.3969 101.32 39.3942 102.43 39.444 103C39.7422 106.414 42.7205 107.596 44.6907 107.596C49.7634 107.596 51.2031 105.009 51.6473 102.931C51.8425 102.017 51.8545 100.927 51.8545 100.312L51.8525 88.3588C51.8525 84.3824 49.9719 82.9195 47.6477 82.9195V82.5782H56.7061V82.9195C53.8154 82.9195 52.6235 85.2098 52.6235 88.3588V100.294C52.6235 100.749 52.6427 102.008 52.4176 103.123C51.8585 105.889 49.7269 108.448 44.7066 108.448C40.0151 108.448 33.6582 107.746 33.6582 102.15V88.3581H33.6575ZM55.5559 96.9078H55.9331C55.9331 106.369 61.6745 107.787 64.6143 107.787C67.1124 107.787 69.1889 106.369 69.1889 102.202C69.1889 94.9574 55.2471 98.7784 55.2471 89.2665C55.2471 83.1254 60.0695 81.9772 64.9131 81.9772C66.1715 81.9772 69.001 82.0237 72.7037 82.7555L72.7104 90.5906H72.3226C72.3226 85.2211 69.0156 82.6154 65.0027 82.6154C62.6254 82.6154 60.4978 83.4235 60.4978 87.4723C60.4978 93.454 74.5339 89.5965 74.5339 99.7406C74.5339 105.238 70.1996 108.425 64.4888 108.425C61.1512 108.425 57.0653 107.856 55.5566 107.311V96.9078H55.5559ZM97.4742 97.2969H98.3434C98.3434 101.036 97.7445 103.799 96.1401 105.679C94.6267 107.452 92.3152 108.448 89.0275 108.448C75.4841 108.448 75.7451 95.7536 75.7451 95.2695C75.7451 91.3357 76.9616 87.7857 79.5076 85.3221C83.2595 81.6877 88.7579 81.9759 89.8821 81.9759C90.9067 81.9759 93.1386 82.0224 97.9444 82.7681V90.6072H97.3606C97.3606 87.1847 95.9017 82.622 89.1497 82.622C85.1587 82.622 81.9188 85.7012 81.9188 95.253C81.9188 104.657 85.7643 107.713 89.1702 107.713C90.5488 107.713 93.9209 107.682 95.8924 104.65C96.9204 103.068 97.4742 100.762 97.4742 97.2969ZM45.8754 36.1211C45.8807 36.2068 45.9053 36.2984 45.9517 36.396C45.6762 36.7639 45.3707 36.9472 44.9112 36.7639C44.1163 37.7427 43.3208 38.4772 42.342 39.4553H42.1281C42.5863 38.5987 42.7696 37.6205 43.5957 36.8861C43.6043 36.5607 43.7577 36.3217 43.9662 36.1211C44.6363 35.7997 45.5593 35.3442 45.216 34.4324C45.6503 34.0094 45.9982 34.0214 45.3827 33.4709C44.9636 33.5479 43.5379 35.8854 43.6315 35.1516L43.3513 34.546L43.085 34.2007V34.0008C43.9529 33.0784 46.0746 31.3964 46.2074 31.2901C47.6617 30.1141 45.5772 30.8897 45.0573 30.4508C43.8832 30.2144 47.1012 28.371 47.7693 28.1385L47.7015 27.8849C46.9213 28.0263 45.9292 28.7382 45.3946 28.8033C45.3016 28.8145 44.5898 29.2681 44.1781 29.3797C44.1688 28.6532 44.4902 28.0595 45.0679 27.6325C45.3687 27.6219 45.6317 27.5123 45.878 27.3437C45.7253 26.4459 47.3403 26.4844 46.7652 25.4272C46.9266 24.9425 47.8443 24.6191 48.264 24.3169C47.8808 24.1429 46.4737 23.9929 46.2459 24.3959C46.2897 24.0792 46.483 23.8063 46.647 23.5406C46.9505 23.0506 46.9777 22.8573 47.0322 22.3009C47.1338 21.2616 48.9752 21.0491 49.7329 20.654C49.0429 20.0404 48.9028 20.6002 48.4639 20.4581C48.853 19.3166 49.7694 18.3863 50.618 17.5655C51.1433 17.5868 51.1187 17.0881 51.2476 16.7275C52.3273 15.9983 53.2975 13.9604 54.7982 14.9166L54.9755 14.6516C54.868 14.4279 54.5452 14.2745 54.5134 14.0706C54.8029 13.7884 56.4876 12.8209 56.8541 12.7246C57.0308 12.6788 57.2088 12.7591 57.2619 12.9311C57.4578 13.5619 56.4902 14.1596 57.5487 14.6005L57.6809 14.7984C57.9525 14.4976 58.242 14.2021 58.6637 14.1443C58.9047 14.572 59.2162 14.9412 59.5781 15.2705L60.0562 14.9717C59.1803 14.1895 58.6331 13.1854 57.8376 12.3407C57.9246 12.0027 58.5521 11.8799 58.8304 11.6946C59.6837 11.769 59.5622 10.85 60.1492 12.1814C60.2375 10.6886 60.703 11.0226 61.8578 10.6076C62.4269 11.0883 62.6812 10.2855 63.063 10.2211C63.919 10.075 65.0884 9.64138 65.7604 10.3579L66.3986 9.85454C70.0342 9.88907 71.78 9.93754 75.2637 11.097C75.5465 11.1913 75.9224 11.2012 76.2232 11.2749C76.9716 11.4562 77.6941 11.7311 78.3967 12.0452C79.5574 12.5625 85.1341 15.3104 85.6959 16.4054C85.8154 16.6358 85.425 16.8311 85.2523 16.8729C84.7662 16.9911 84.1865 16.9811 83.6805 17.0715C81.363 17.4865 79.4565 18.4182 78.2891 20.5504C78.4199 20.9409 78.7446 21.1142 79.0169 21.34C79.3164 21.589 79.1776 21.7251 79.0348 21.9994C78.7765 23.7014 77.376 22.8686 76.6874 24.1735C72.2515 22.2763 66.1389 22.1714 62.1015 25.0168C60.5722 26.3934 58.584 27.77 57.9107 29.6971C58.6756 29.8193 59.4008 31.0079 60.1704 30.6692C60.6326 30.387 60.9899 30.8074 60.7448 31.0823C60.282 31.5564 60.5005 32.5286 61.7781 31.7583C62.1725 32.0591 61.1771 32.5286 61.4029 32.848C61.5716 33.1966 61.9853 32.4721 62.3047 32.7165C62.5491 33.0525 62.1732 33.5167 62.8359 33.5818C64.0133 32.6415 64.0292 33.7345 63.7849 33.949C63.326 34.4072 62.806 34.6828 62.316 35.05C63.3559 35.9677 64.5485 34.7751 65.5585 34.4072L72.901 31.3791C78.639 29.0709 86.9589 28.12 86.9589 31.5551C86.9589 33.8142 84.5079 35.6191 83.7257 36.1696C83.5025 36.3402 83.1718 36.4737 83.1718 36.4737C82.377 35.7971 81.6671 33.5426 80.9034 33.2644C80.5728 33.1435 80.1511 33.3713 80.0322 33.6761C79.8257 34.2047 80.2009 35.1171 79.5262 35.384C79.2201 35.5055 78.9558 35.6855 78.6556 35.813C78.3143 35.9571 78.1981 35.9113 77.9205 35.6941C76.014 34.2027 73.3877 34.6316 71.2634 35.3521C70.8185 35.5029 70.2195 35.6676 69.8198 35.908C69.6471 36.0122 69.4851 36.1384 69.3177 36.2526C67.0115 37.8503 70.6279 37.3556 70.6279 38.7786C70.9858 39.112 71.624 39.4533 71.8484 39.8697C71.541 40.132 71.8923 40.3863 71.8909 40.5796C71.1572 41.3419 71.62 39.7196 70.7182 39.9261C70.1697 39.5031 69.9904 39.8637 69.9154 40.4248H69.7275C69.0196 39.3843 68.2891 38.3583 67.5626 37.3297L67.3316 37.4532C68.1822 39.6698 69.6504 41.5909 70.4665 43.8228L70.2514 43.8992C69.76 43.3659 69.3516 42.7862 68.7951 42.3134C68.7161 42.7085 68.232 43.0512 68.3668 43.4615C68.4731 43.7836 69.42 44.9424 69.677 45.3069C69.6863 46.5149 70.6326 45.6888 71.0675 45.8136C72.306 46.1676 72.4282 48.4147 73.8778 47.1384C74.4455 46.637 75.4184 47.2526 76.018 47.4439C77.8455 48.0282 80.4937 46.6716 81.782 48.2374C81.6937 48.6392 81.5004 49.104 81.1492 49.3198C80.4565 49.7315 79.4671 49.7753 78.7732 50.1917C77.795 50.7117 76.6017 51.1088 76.0506 52.1799C76.5705 53.4037 75.9895 54.7491 75.9895 56.0646C75.3161 55.8813 75.7458 54.9935 75.3161 54.5964C74.8878 55.0247 74.0929 54.9018 73.909 55.6057C73.7569 56.2173 73.6952 56.8907 73.1141 57.2267C71.7083 57.4717 71.7694 59.2759 70.4838 59.7348C70.025 59.9493 69.6577 60.4692 69.0767 60.1631C68.2818 59.8271 68.2818 58.9087 67.9146 58.2666C67.6085 58.4804 67.8535 58.9399 67.6696 59.2148C67.3946 59.8271 67.2711 60.4081 67.4557 61.1114C66.8448 61.5091 66.0499 61.0197 65.3454 60.9892C64.6408 60.6525 63.9376 60.2846 63.2038 60.0097C62.4089 59.9798 61.6745 61.5397 61.0018 60.2547C59.0442 60.4387 56.9949 61.7223 55.0678 60.622C53.9356 60.0104 53.1102 61.0204 52.1925 61.3564C51.8558 62.2429 50.9076 62.3658 50.0509 62.3658C49.9898 62.2741 49.8683 62.2137 49.9281 62.0909C52.6812 60.3471 55.3428 58.4505 58.2799 57.1656C59.8397 55.2073 60.1153 52.6686 60.4214 50.191C60.1704 49.8198 59.7673 49.5602 59.343 49.3191C58.9213 49.3191 57.5348 48.0661 57.6769 47.2838C57.6882 47.2181 58.2121 46.0845 58.2878 45.9019C58.493 45.4039 58.6756 44.8919 58.7799 44.362C58.9452 43.5206 58.8855 42.6414 58.4087 41.907C58.2839 41.7144 58.0807 41.5531 57.9678 41.3711C57.3515 40.3777 57.311 40.4195 56.1217 40.6201C55.4151 40.7389 54.2717 40.4673 54.0917 40.5384C53.9303 40.818 53.7384 41.1055 53.597 41.3957C53.5704 41.4488 53.1826 43.4947 53.1321 43.7438C52.7443 45.6569 52.3386 47.576 51.7901 49.4506C50.7874 52.8712 49.2481 56.1821 46.805 58.8177C45.7459 59.9612 41.7363 61.9468 40.1957 62.3903C39.3774 62.6254 38.5409 62.7919 37.6949 62.8884C36.7254 62.9887 36.2021 62.8313 35.4624 62.2117C35.2007 61.9932 34.7452 61.9175 34.6489 61.5437C35.5932 60.8969 36.754 60.4951 37.7826 59.9818C38.2242 59.7614 38.6857 59.6053 39.1851 59.6571L39.4434 59.3616C39.4837 59.3283 39.5311 59.3046 39.5819 59.2923C39.6328 59.28 39.6858 59.2794 39.7369 59.2906C40.6094 58.7706 41.5584 58.406 42.4714 57.9678C43.1866 57.6231 43.8779 57.2227 44.4729 56.6928C44.6529 56.5314 44.8162 56.3103 44.9988 56.1635C46.6756 54.8195 47.5793 53.6322 48.4824 51.6732C48.6544 51.2994 48.9068 50.8478 49.0097 50.4547C49.2109 49.6877 49.369 48.9021 49.5463 48.1285C49.1266 47.1636 49.5071 47.1384 48.768 46.1649C48.4924 46.6895 48.2235 46.9325 48.2241 46.734L47.9658 46.6981C47.841 47.1198 47.2998 47.3111 47.3416 47.8469C46.7506 48.3702 46.1576 48.4406 46.1908 49.4466C46.8336 49.5768 46.6211 49.009 46.9498 49.1292C48.0409 48.5249 47.8894 49.7089 47.3888 49.8444C47.0521 49.8637 46.6503 50.1871 46.5129 50.4905C46.3615 50.8246 46.8442 50.9985 46.9824 51.223C46.9485 52.1666 46.5965 53.0478 46.2751 53.9224C45.874 54.1289 44.8673 54.6767 44.4981 54.7478C44.3129 54.783 44.188 54.514 44.1103 54.3918C43.8334 53.9562 43.6601 54.1016 43.3128 54.3288C42.9223 54.5837 41.9409 55.4842 41.6394 55.7877C42.0484 56.0785 42.4256 55.6748 42.4555 55.9816C42.4914 56.3309 41.7881 56.5739 41.571 56.795C40.0589 56.2286 39.1213 57.6895 37.8284 58.0753C38.1465 57.7294 38.6452 57.0666 38.6844 57.0361C39.2369 56.5779 39.8504 56.544 38.8152 55.8063C40.5497 54.1687 44.188 51.5543 44.1933 48.9785C44.4576 48.6352 44.5951 48.2148 44.8328 47.8549C45.3375 47.0886 45.6987 47.5488 45.8721 47.4266C46.471 47.0082 46.0274 46.2791 46.8197 46.1735C46.8197 45.0546 47.8191 44.3082 47.7719 43.1866C48.0209 43.0432 47.906 42.7895 47.7168 42.6521C45.3169 45.6768 43.433 49.1425 40.5417 51.7502C40.6812 51.1818 40.8458 50.5729 41.1081 50.0476C41.1845 50.1592 41.2722 50.0735 41.3472 50.0204C42.1341 49.4639 42.7065 48.7501 43.1667 47.9001C43.4463 47.3834 43.7956 46.894 44.0692 46.3867C44.1362 45.9584 43.8181 45.5234 44.0154 45.1848C44.5984 44.1827 45.8946 42.9854 46.639 41.7277L46.3688 41.4574C45.1496 43.0498 43.2809 44.8428 41.6142 45.963C41.2396 46.2154 41.5119 43.2139 41.7921 44.7684C42.4024 43.5465 42.7942 43.0199 43.8221 42.1348C44.2365 41.4534 44.5718 40.8133 44.943 40.1924C44.5539 39.4042 45.7213 38.8211 46.1158 38.3112C46.8947 37.3038 47.2825 36.9658 48.3191 36.2513C48.5721 36.1397 49.7534 35.7791 49.8557 35.6749C50.3537 35.1715 50.2462 35.0208 50.9999 34.5978C51.563 34.2817 52.0856 34.0174 52.5564 33.5619L52.2616 33.366C50.7203 34.2126 49.1711 35.048 47.5946 35.8269C47.5481 35.3229 47.5495 34.8461 47.9147 34.4597C47.317 33.8766 47.1424 34.706 46.6669 34.71C46.3117 35.4126 46.0122 35.0719 45.8754 36.1211ZM80.5137 39.197C81.5177 38.8922 82.6745 38.8922 83.8 38.8922C84.1945 38.9221 84.0125 39.44 83.9521 39.6227C83.466 40.5649 82.2183 40.1087 81.7614 41.1739C81.2753 41.1739 81.2454 40.5649 80.8185 40.4434C80.3616 40.3823 79.8443 40.2914 79.5707 39.9268C79.5707 39.531 79.5707 39.1054 79.8755 38.8311C80.179 38.7103 80.2713 39.1665 80.5137 39.197ZM81.7003 42.0265C81.9752 42.3307 82.0662 42.8167 81.9128 43.2125C81.5781 43.6694 81.0622 43.1826 80.6664 43.0605C79.7533 42.2078 78.5368 43.182 77.5327 42.7563C77.4716 42.8167 77.4105 42.9383 77.3202 42.9084C77.0453 42.7862 77.0453 42.4522 77.1675 42.2696C77.5945 41.5391 78.2326 42.1779 78.7798 42.1779C79.6929 42.0265 80.8184 41.2044 81.7003 42.0265ZM81.9752 44.368C82.035 44.7027 81.944 45.0068 81.7614 45.2505L82.126 45.9185C81.2753 45.9491 80.6969 44.368 79.5707 44.9457C79.3283 44.8235 78.9624 44.5499 79.2061 44.2152C79.6318 43.759 80.3005 43.607 80.8795 43.7902C81.2454 44.0034 81.7003 44.034 81.9752 44.368ZM60.8245 19.4288L60.962 20.0165C59.6007 18.8378 58.9618 16.8284 57.0826 16.3105L57.2891 16.9094C58.171 16.9048 60.0954 20.5717 60.3955 21.4662L60.1877 21.6986C59.4957 21.4867 59.4207 20.6866 58.0255 19.8246C58.0255 19.8246 57.9286 19.895 58.2719 20.5219L58.5495 21.6335L58.9054 21.5153C59.2129 21.8652 59.4101 22.1309 59.5216 22.5844C60.4075 22.6946 60.6791 21.9011 61.4109 21.6302C61.5849 22.01 61.6048 22.5552 61.9441 22.8248C62.5949 21.9821 63.2503 22.2876 62.9335 20.8054C63.4987 21.6109 64.0837 20.5046 64.9396 21.1149C65.692 20.7217 65.8826 20.8971 66.3713 20.0836C66.7007 20.1394 67.0613 19.9913 67.3946 19.9773C67.9066 21.1009 68.2572 19.9714 68.4917 19.733L68.4126 19.4076C69.0143 19.3146 69.9433 18.9301 70.1 19.9773C70.7003 19.1977 72.5982 19.2575 72.6732 20.2649C74.2364 18.9554 74.8765 21.9177 76.3115 20.6135C77.6357 19.4089 72.3093 18.4447 71.6672 19.0709C71.0742 18.1678 68.7633 19.2157 68.584 18.4587C67.9604 19.4833 65.9683 19.0457 65.3441 18.7037C65.3846 19.2827 64.9715 19.4063 64.5658 19.4939C63.9336 18.9892 64.008 17.6731 63.3539 17.1498C63.3638 17.4945 63.3811 17.877 63.2596 18.205C62.994 18.3717 63.0644 18.3557 62.8187 18.5523C62.9282 18.7787 63.0982 18.9793 63.3167 19.1074C63.3904 19.3658 63.0444 19.8585 62.8153 20.0471C62.231 19.1572 61.2794 17.3763 60.879 16.3895L60.4613 16.4931C61.1545 17.8511 61.7515 19.1081 61.3431 19.5822L61.0045 19.5683L60.8245 19.4288ZM48.2533 42.5843C50.1598 40.5782 49.7959 41.8725 48.8928 43.2265L49.361 43.5485L49.0887 45.7419L49.8145 45.028C49.9845 44.7883 49.9427 43.0239 50.3537 42.4243L50.6074 43.7431C51.2296 41.7031 51.3279 40.3192 51.5676 38.1837C49.8511 39.5025 48.8709 40.3365 47.8841 42.3074C47.8835 42.3081 48.0555 42.5173 48.2533 42.5843ZM48.1351 40.2648C48.8072 39.0881 50.9295 38.1617 51.7536 36.8496C51.8014 36.416 51.7947 36.3648 51.8943 35.983C49.6997 36.6942 48.7547 38.531 47.3888 40.2422L48.1351 40.2648ZM54.1481 32.8387C53.8314 33.5672 53.1653 34.3879 53.583 35.2021C52.8991 36.4193 52.6693 38.0482 53.3792 39.3072C54.8852 39.4141 55.4922 38.173 54.9164 37.428C54.1734 37.4851 54.4124 38.2242 53.9595 38.5071C53.9303 36.5089 54.2033 34.3361 55.4298 32.7305C54.9344 31.9628 54.6794 32.6919 54.1481 32.8387ZM61.9853 39.3152C62.4747 39.8657 62.5663 40.6911 63.239 41.2423C63.2091 41.3339 63.3008 41.4867 63.1779 41.5179C62.7489 41.3346 62.3213 40.9063 62.138 40.5085C62.0464 40.1406 61.6181 39.7123 61.9853 39.3152ZM65.9264 44.5951C65.6203 44.8395 65.5592 45.3289 65.7126 45.6961C65.7126 48.082 66.4763 50.1007 66.722 52.3957C67.7001 52.8233 66.9059 54.2311 67.9763 54.3839C68.6796 53.1295 69.843 53.6806 70.9128 53.344C71.0967 53.4057 71.28 53.7112 71.4938 53.4974C71.7701 53.008 72.4733 52.9157 72.6871 52.4575C72.3511 50.0715 69.6584 51.7237 68.6497 50.1937C67.7625 48.8789 67.0287 47.5322 66.7226 46.0029C66.3859 45.5732 66.5686 44.7784 65.9264 44.5951ZM62.8047 44.0512C61.3093 43.9742 60.2176 45.1861 59.1544 46.056L62.3764 45.4398L62.8047 45.0114V44.0512ZM62.5829 37.0953C61.6931 34.8189 59.3756 39.8551 62.5577 41.9123C63.7185 42.6627 65.265 43.1767 66.5606 42.4675C66.6024 42.0918 66.4959 41.7146 66.2638 41.4163C65.1614 41.3851 64.265 40.5391 63.3506 40.0669C63.4422 39.8146 64.0784 39.5058 64.3055 39.4208C64.1308 39.1027 64.0325 38.7388 63.7716 38.4752C63.071 38.4553 62.9236 37.0588 62.0836 37.7075L61.7973 37.7241C61.9189 37.2566 62.142 37.1796 62.5829 37.0953ZM53.261 30.8047C51.9561 31.059 50.8843 31.5279 49.9248 32.4629C50.369 32.6866 50.5237 32.5884 50.9633 32.591L51.128 32.7962C51.3033 32.6594 51.5185 32.5625 51.717 32.4648C51.7157 32.4648 53.261 31.5392 53.261 30.8047ZM54.3872 28.1033C52.3047 28.284 50.4965 29.3199 48.6797 30.2635L48.7487 30.4906C49.5881 30.397 51.6154 29.2442 52.0006 29.7907C52.3671 29.6141 52.2821 30.1088 52.9615 29.9082C54.3115 29.5091 53.9549 28.9248 54.6269 28.4022L54.3872 28.1033ZM55.3102 26.6796C55.1024 26.1378 54.2624 26.7042 53.5558 26.6385C53.7079 27.1418 54.2431 27.5927 54.7823 27.525C54.86 27.4486 54.9496 27.4074 55.1509 27.2932C55.3242 27.1717 55.4483 26.9758 55.3102 26.6796ZM54.1189 21.083L56.0493 22.2052C56.3614 22.3653 56.7047 22.5831 57.1164 22.6395C57.41 23.2883 57.2307 23.864 57.3801 24.2173C56.2857 23.957 55.4908 23.4019 54.3082 23.6728L53.409 23.949C53.409 24.3269 54.4503 24.1722 55.1177 24.5221C55.6469 24.1868 55.8481 25.4033 55.8481 25.4033C55.8481 25.4033 56.7559 24.6988 56.7798 25.0766C57.2107 25.1649 56.9697 26.321 57.41 26.4366C58.7733 24.797 57.0925 24.5726 58.8177 23.1754C57.5282 21.9781 55.9411 21.1507 54.2006 20.8599L54.1189 21.083Z" fill="#900D35"/>
<defs>
<linearGradient id="paint0_linear_2863_8709" x1="64" y1="0" x2="64" y2="128" gradientUnits="userSpaceOnUse">
<stop stop-color="white"/>
<stop offset="1" stop-color="#EEEEEE"/>
</linearGradient>
</defs>
</svg>
