<svg width="128" height="128" viewBox="0 0 128 128" fill="none" xmlns="http://www.w3.org/2000/svg">
<g clip-path="url(#clip0_183_752)">
<path d="M114.492 36.3922C118.984 44.5876 121.54 53.9926 121.54 63.9969C121.54 85.2254 110.035 103.759 92.9285 113.733L110.503 62.9188C113.786 54.7098 114.879 48.1459 114.879 42.3093C114.879 40.1909 114.739 38.2248 114.492 36.3922ZM71.9296 37.0186C75.3938 36.8364 78.5152 36.4721 78.5152 36.4721C81.6157 36.105 81.25 31.5484 78.1481 31.7299C78.1481 31.7299 68.8278 32.4614 62.8111 32.4614C57.1574 32.4614 47.6569 31.7299 47.6569 31.7299C44.5537 31.5484 44.19 36.2885 47.2919 36.4721C47.2919 36.4721 50.2271 36.8364 53.3275 37.0186L62.2916 61.5819L49.6975 99.3475L28.7446 37.0186C32.2115 36.8364 35.3295 36.4721 35.3295 36.4721C38.428 36.105 38.0623 31.5484 34.9618 31.7299C34.9618 31.7299 25.6435 32.4614 19.6261 32.4614C18.5466 32.4614 17.274 32.435 15.9229 32.3916C26.2117 16.7715 43.8961 6.45625 63.9997 6.45625C78.9791 6.45625 92.619 12.1838 102.856 21.5637C102.608 21.5488 102.366 21.5177 102.111 21.5177C96.4583 21.5177 92.4476 26.4413 92.4476 31.7299C92.4476 36.4721 95.1838 40.4841 98.1 45.2255C100.288 49.0581 102.844 53.9811 102.844 61.0949C102.844 66.0192 100.95 71.7346 98.4657 79.6963L92.7246 98.8727L71.9296 37.0186ZM63.9997 121.542C58.3514 121.542 52.9002 120.714 47.7436 119.198L65.0101 69.0303L82.6959 117.487C82.8124 117.771 82.9553 118.034 83.1077 118.28C77.1268 120.386 70.7004 121.542 63.9997 121.542ZM6.45896 63.9969C6.45896 55.6546 8.24825 47.7354 11.4415 40.5796L38.8899 115.783C19.6931 106.457 6.45896 86.7729 6.45896 63.9969ZM63.9997 -0.00135803C28.7101 -0.00135803 0 28.708 0 63.9969C0 99.2872 28.7101 128 63.9997 128C99.2886 128 128 99.2872 128 63.9969C128 28.708 99.2886 -0.00135803 63.9997 -0.00135803Z" fill="#117BC9"/>
</g>
<defs>
<clipPath id="clip0_183_752">
<rect width="128" height="128" fill="white"/>
</clipPath>
</defs>
</svg>
