<svg width="128" height="128" viewBox="0 0 128 128" fill="none" xmlns="http://www.w3.org/2000/svg">
<path d="M0 24C0 10.7452 10.7452 0 24 0H104C117.255 0 128 10.7452 128 24V104C128 117.255 117.255 128 104 128H24C10.7452 128 0 117.255 0 104V24Z" fill="#F98012"/>
<path d="M108.947 48.5103C104.532 45.1965 98.5621 43.5381 91.035 43.5381C82.8011 43.5381 77.1282 45.4964 74.0164 49.4098C70.4028 45.4964 64.7819 43.5381 57.1508 43.5381C49.5197 43.5381 43.651 45.1965 39.2327 48.5103C34.2146 52.2218 31.7056 57.6927 31.7056 64.9199V100H48.5834V66.8751C48.5742 59.9508 51.429 56.4871 57.1508 56.4871C62.7747 56.4871 65.5867 59.9508 65.5867 66.8751V100H82.4614V66.8751C82.4737 59.9478 85.3346 56.4841 91.0472 56.4871C96.7598 56.4902 99.6146 59.9508 99.6146 66.8751V100H116.477V64.9199C116.477 57.6896 113.965 52.2218 108.947 48.5103Z" fill="white"/>
<path d="M64.4668 40.9858L81.2161 28.7466L81.002 28C50.7773 31.7054 37.0327 34.3307 11 49.4216L11.2417 50.107L13.3101 50.1284C13.1204 52.2121 12.79 57.3618 13.2122 65.1061C10.3238 73.4655 13.1388 79.1444 15.7825 85.3222C16.2016 78.8966 16.1588 71.8591 14.1852 64.8552C13.7722 57.1629 14.1118 52.1051 14.2985 50.1376L31.5557 50.3028C31.5098 53.6808 31.6811 57.0619 32.0667 60.4185C47.488 65.8374 62.9981 60.4002 71.232 47.0411C68.9464 44.48 64.4668 40.9858 64.4668 40.9858Z" fill="#333333"/>
</svg>
