<svg width="128" height="128" viewBox="0 0 128 128" fill="none" xmlns="http://www.w3.org/2000/svg">
<rect width="128" height="128" rx="24" fill="#385072"/>
<path d="M47.1069 76.5062H40.1279V58.9894L35.5754 76.5062H30.7918L26.0775 58.9894V76.5062H20.4619V51.9873H30.2833L33.8422 64.9978L37.2161 51.9873H47.1069V76.5062Z" fill="white"/>
<path d="M51.4053 51.9873H60.8801C64.9242 51.9873 67.6742 53.0503 69.9158 55.4537C72.0418 57.7415 73.1973 60.7919 73.1973 64.2121C73.1973 71.5377 68.3906 76.5293 61.3654 76.5293H51.4053V51.9873ZM60.9032 70.8907C63.5145 70.8907 65.3402 68.1407 65.3402 64.2352C65.3402 62.4789 64.9704 60.8613 64.2309 59.5671C63.4683 58.2037 62.3591 57.5566 60.8801 57.5566H58.9389V70.8907H60.9032Z" fill="white"/>
<path d="M84.0126 76.5062H76.4097V51.9873H86.855C90.645 51.9873 92.7248 52.5419 94.5273 53.9285C96.2143 55.2919 97.2542 57.4642 97.2542 59.7982C97.2542 64.4663 93.6954 67.586 88.2878 67.586H84.0357V76.5062H84.0126ZM86.4391 62.3634C88.7269 62.3634 89.7437 61.6008 89.7437 59.9369C89.7437 58.3886 88.7038 57.626 86.6471 57.626H83.9202V62.3634H86.4391Z" fill="white"/>
<path d="M107.284 51.9873H99.75V76.5062H107.284V51.9873Z" fill="white"/>
<path d="M10.8256 81.6135H9V44.2689L37.2857 28L65.7794 44.2227L64.0462 45.3319L37.2857 30.1261L10.8256 45.3319V81.6135Z" fill="white"/>
<path d="M13.5527 48.313L13.5758 46.21L36.3153 33.084L36.2922 35.3256L13.5527 48.313Z" fill="white"/>
<path d="M117.175 46.9492H119V84.2938L90.7144 100.563L62.2207 84.34L63.9539 83.2307L90.7144 98.4366L117.175 83.2307V46.9492Z" fill="white"/>
<path d="M114.448 80.25L114.425 82.3529L91.6851 95.479L91.7082 93.2374L114.448 80.25Z" fill="white"/>
</svg>
