<svg width="128" height="128" viewBox="0 0 128 128" fill="none" xmlns="http://www.w3.org/2000/svg">
<rect width="128" height="128" rx="24" fill="url(#paint0_linear_264_2938)"/>
<path d="M108 36V51.3667H106.536C105.639 47.8288 104.645 45.2873 103.555 43.7406C102.466 42.1954 100.969 40.9603 99.0676 40.0435C98.0033 39.5445 96.1415 39.2925 93.4856 39.2925H89.3393V82.954C89.3393 85.8586 89.4968 87.6772 89.8118 88.4001C90.1234 89.1279 90.7435 89.7595 91.6603 90.3049C92.5771 90.8504 93.8288 91.1239 95.4187 91.1239H97.2672V92.5878H67.7522V91.1239H69.6107C71.2321 91.1239 72.5418 90.8305 73.5315 90.2436C74.2494 89.8523 74.8115 89.1793 75.2243 88.231C75.526 87.5612 75.6785 85.8038 75.6785 82.9523V39.2925H71.5305C67.6743 39.2925 64.8725 40.0999 63.1285 41.718C60.6765 43.9727 59.1297 47.1906 58.4815 51.3667H57.0176V36H108Z" fill="black"/>
<path d="M49.5149 91.1239V92.5878H20.0017V91.1239H21.8684C23.4997 91.1239 24.8144 90.8305 25.8125 90.2436C26.5287 89.8523 27.0807 89.1793 27.4703 88.231C27.7754 87.5612 27.9279 85.8038 27.9279 82.9523V45.6338C27.9279 42.7309 27.7754 40.9122 27.4703 40.1894C27.1653 39.4616 26.5519 38.825 25.6251 38.2796C24.6984 37.7358 23.445 37.4639 21.8668 37.4639H20V36H49.5133V37.4622H47.6565C46.0334 37.4622 44.7254 37.7573 43.7356 38.3426C43.0194 38.7355 42.4508 39.4036 42.0396 40.3519C41.7379 41.0217 41.5854 42.784 41.5854 45.6338V82.954C41.5854 85.8586 41.7462 87.6772 42.0628 88.4001C42.3778 89.1279 42.9962 89.7595 43.9196 90.3049C44.8414 90.8504 46.0881 91.1239 47.6581 91.1239H49.5149Z" fill="black"/>
<defs>
<linearGradient id="paint0_linear_264_2938" x1="64" y1="0" x2="64" y2="128" gradientUnits="userSpaceOnUse">
<stop stop-color="white"/>
<stop offset="1" stop-color="#EEEEEE"/>
</linearGradient>
</defs>
</svg>
