<svg width="128" height="128" viewBox="0 0 128 128" fill="none" xmlns="http://www.w3.org/2000/svg">
<g clip-path="url(#clip0_2863_9111)">
<path d="M107.648 26.5489L86.5929 5.5625H41.0711L19.9482 26.7195V101.588L41.0711 122.745H86.5929L107.613 101.827V26.5489H107.648ZM41.583 35.7966L50.0799 27.2996H77.6523L86.1493 35.7966V92.4769L77.6523 100.974H50.0799L41.583 92.4769V35.7966Z" fill="#BB0000"/>
<path d="M51.6152 30.5412L44.9609 37.1954V91.1117L51.4787 97.6294H76.287L82.7365 91.1458V37.2978L75.9799 30.5412H51.6152ZM80.5525 90.2586L75.3656 95.4455H52.3318L47.2131 90.3269V38.0485L52.5365 32.7251H75.1609L80.5525 38.1168V90.2586Z" fill="#666666"/>
<path d="M39.0917 0L15 24.0576V103.772L38.9211 128H88.7425L112.8 103.908V24.0576L88.879 0H39.0917ZM110.48 102.953L87.7529 125.68H40.0472L17.184 102.782V25.0472L40.0472 2.18395H87.8894L110.411 24.7401L110.48 102.953Z" fill="#666666"/>
</g>
<defs>
<clipPath id="clip0_2863_9111">
<rect width="97.8001" height="128" fill="white" transform="translate(15)"/>
</clipPath>
</defs>
</svg>
