<svg width="128" height="128" viewBox="0 0 128 128" fill="none" xmlns="http://www.w3.org/2000/svg">
<path d="M0 24C0 10.7452 10.7452 0 24 0H104C117.255 0 128 10.7452 128 24V104C128 117.255 117.255 128 104 128H24C10.7452 128 0 117.255 0 104V24Z" fill="white"/>
<g clip-path="url(#clip0_183_652)">
<path d="M19.4214 10.9999H71.0108C80.7233 10.9999 88.3079 13.428 93.6187 17.6772C99.5364 22.5335 102.875 29.8179 102.875 38.464C102.875 48.4784 98.7784 54.8505 90.4326 58.6437V59.0981C101.359 62.7403 107.577 72.4528 107.577 84.2866C107.577 95.5151 103.311 104.315 96.1977 109.626C90.28 113.892 82.3902 115.998 72.0723 115.998H19.5723V10.9983L19.4214 10.9999ZM65.8511 52.1206C71.4653 52.1206 75.411 49.0854 75.411 42.8642C75.411 36.9464 71.1454 33.9113 65.6985 33.9113H47.9469V51.968H65.8511V52.1206ZM68.4301 92.7851C74.6514 92.7851 79.3567 88.992 79.3567 82.0127C79.3567 74.7284 74.3495 71.2404 68.2825 71.2404H47.9469V92.7867L68.4301 92.7851Z" fill="black"/>
</g>
<defs>
<clipPath id="clip0_183_652">
<rect width="105" height="105" fill="white" transform="translate(11 11)"/>
</clipPath>
</defs>
</svg>
