<svg width="128" height="128" viewBox="0 0 128 128" fill="none" xmlns="http://www.w3.org/2000/svg">
<path d="M37.5005 0L0 37.5005V90.5456L37.5005 128H90.5456L128 90.5456V37.5005L90.4995 0H37.5005Z" fill="url(#paint0_linear_2800_2900)"/>
<path fill-rule="evenodd" clip-rule="evenodd" d="M62.485 84.7329H65.6375H65.7298C68.4767 84.8023 71.209 84.3132 73.7613 83.2952C76.3136 82.2773 78.6325 80.7517 80.5777 78.8109C82.5228 76.87 84.0536 74.5545 85.0772 72.0045C86.1008 69.4545 86.596 66.7232 86.5326 63.9761C86.5899 61.2289 86.0887 58.4987 85.0594 55.951C84.7962 55.2994 84.4998 54.6632 84.1718 54.0447H75.4162H74.4162V53.0447V44.9769C74.1856 44.8755 73.953 44.7782 73.7184 44.6853C71.1639 43.673 68.4304 43.1899 65.6836 43.2655H51.6613V63.5308L62.485 84.7329ZM27.8938 84.5175H18.5615L39.3455 43.8048L60.1296 84.5175H50.7973L48.9078 80.819L48.6293 80.2739H48.0173H30.6738H30.0618L29.7833 80.819L27.8938 84.5175ZM76.4162 52.0447V43.5741H109.61V52.0909H98.2486H97.2486V53.0909V84.5175H88.6396V53.0447V52.0447H87.6396H76.4162ZM40.235 63.8887L39.3455 62.1572L38.456 63.8887L34.9966 70.6231L34.2482 72.0801H35.8861H42.805H44.4429L43.6945 70.6231L40.235 63.8887ZM65.6375 52.3062H60.6559V75.646H65.6375C72.5564 75.646 77.4458 70.895 77.4458 63.9761C77.4458 57.0572 72.5564 52.3062 65.6375 52.3062Z" fill="white"/>
<defs>
<linearGradient id="paint0_linear_2800_2900" x1="64" y1="0" x2="64" y2="128" gradientUnits="userSpaceOnUse">
<stop stop-color="#0091FF"/>
<stop offset="1" stop-color="#0061AA"/>
</linearGradient>
</defs>
</svg>
