<svg width="128" height="128" viewBox="0 0 128 128" fill="none" xmlns="http://www.w3.org/2000/svg">
<path d="M0 24C0 10.7452 10.7452 0 24 0H104C117.255 0 128 10.7452 128 24V104C128 117.255 117.255 128 104 128H24C10.7452 128 0 117.255 0 104V24Z" fill="#0B62AA"/>
<path d="M57.4424 27.2836C54.8072 33.2714 51.5344 36.8245 47.1971 36.8245C45.143 36.8245 40.9806 34.742 38.0548 34.742C34.764 34.742 32.2779 35.7627 30.3985 39.1152L30 38.7167C30.8433 30.4536 35.7847 26.5869 41.5334 26.5869C45.1096 26.5869 48.6498 28.7774 51.776 28.7774C53.676 28.7774 55.3985 28.2966 57.2368 26.8851L57.4424 27.2836Z" fill="white"/>
<path d="M97.9999 27.8846C97.262 31.5611 94.3491 34.8802 91.3359 36.4331V91.0017C94.2566 91.773 95.7271 92.408 97.897 93.8941L89.9425 102.34C86.9859 99.6504 83.4303 98.4601 79.9029 98.4601C74.8818 98.4601 71.1051 100.231 68.6652 101.936L68.5701 101.545C70.2129 94.5574 75.7482 90.503 80.1985 90.1122V66.1534H61.7134V92.0018C62.2944 92.2846 62.8009 92.5032 63.4025 92.5032C64.3949 92.5032 65.7189 91.1765 66.6856 89.8114L67.4749 90.503C65.0762 93.4081 60.8546 98.2338 57.8338 102.34C53.224 99.2596 49.4473 98.0564 43.4209 98.0564C38.279 98.0564 33.8184 99.3265 30.6022 101.34L30.4016 100.841C33.3659 93.583 38.8266 88.8113 48.4909 88.8113C52.823 88.8113 56.1935 89.6905 60.4253 91.5005V25.4988H61.7159V56.8054H80.2011V36.9267C77.08 36.2042 74.4036 34.9522 72.5525 33.0471C74.9975 30.6613 77.9027 27.553 80.2011 25C82.8724 27.3164 86.2686 28.8796 90.4464 28.8796C92.9608 28.8796 95.5395 28.4399 97.7968 27.4861L97.9999 27.8846Z" fill="white"/>
<path d="M56.9394 36.8272C55.8904 38.7272 55.4508 41.4087 55.4508 47.5636V70.6277C55.4508 78.0166 50.0415 84.0969 42.6191 86.3285L42.1358 86.0303C43.5344 84.7885 44.4136 82.652 44.4136 80.2739V66.1542H41.8298C37.8577 66.1542 36.3845 68.1338 35.9654 70.332H35.6698C34.5283 69.3936 33.2839 67.6839 33.2839 64.5602C33.2839 60.025 36.8653 56.8087 42.0278 56.8087H44.4136V51.7414C44.4136 43.2264 49.6224 38.7195 56.636 36.6318L56.9394 36.8272Z" fill="white"/>
</svg>
