<svg width="128" height="129" viewBox="0 0 128 129" fill="none" xmlns="http://www.w3.org/2000/svg">
<path fill-rule="evenodd" clip-rule="evenodd" d="M8.26876 1.96669C6.82806 3.51553 6 5.89939 6 8.99707V119.18C6 122.278 6.82806 124.662 8.32262 126.157L8.71309 126.487L70.4342 64.7485V63.3613L8.65923 1.63672L8.26876 1.96669Z" fill="url(#paint0_linear_183_328)"/>
<path fill-rule="evenodd" clip-rule="evenodd" d="M90.9675 85.4088L70.3804 64.8092V63.3681L90.9743 42.7686L91.4186 43.0447L115.776 56.8899C122.75 60.8226 122.75 67.3008 115.776 71.2874L91.4186 85.1327C91.4119 85.1327 90.9675 85.4088 90.9675 85.4088Z" fill="url(#paint1_linear_183_328)"/>
<path fill-rule="evenodd" clip-rule="evenodd" d="M91.4116 85.1329L70.3801 64.0889L8.26855 126.218C10.5373 128.655 14.3545 128.931 18.6227 126.547L91.4116 85.1329Z" fill="url(#paint2_linear_183_328)"/>
<path fill-rule="evenodd" clip-rule="evenodd" d="M91.4116 43.051L18.6227 1.69022C14.3612 -0.747516 10.5373 -0.417546 8.26855 2.02019L70.3734 64.0882L91.4116 43.051Z" fill="url(#paint3_linear_183_328)"/>
<path opacity="0.2" fill-rule="evenodd" clip-rule="evenodd" d="M90.9677 84.6885L18.6769 125.773C14.6376 128.096 11.0358 127.935 8.71322 125.827L8.32275 126.218L8.71322 126.548C11.0358 128.649 14.6376 128.817 18.6769 126.494L91.4658 85.1329L90.9677 84.6885Z" fill="black"/>
<path opacity="0.12" fill-rule="evenodd" clip-rule="evenodd" d="M115.769 70.5671L90.9136 84.6884L91.3579 85.1329L115.715 71.2876C119.202 69.2943 120.919 66.695 120.919 64.0889C120.697 66.4727 118.926 68.7421 115.769 70.5671Z" fill="black"/>
<path opacity="0.25" fill-rule="evenodd" clip-rule="evenodd" d="M18.6229 2.41122L115.769 57.6172C118.926 59.3883 120.697 61.7115 120.973 64.0954C120.973 61.4961 119.256 58.89 115.769 56.8967L18.6229 1.69067C11.6483 -2.2959 6 1.024 6 8.99715V9.7177C6 1.74455 11.6483 -1.52148 18.6229 2.41122Z" fill="white"/>
<defs>
<linearGradient id="paint0_linear_183_328" x1="64.892" y1="7.81303" x2="-33.9781" y2="34.1498" gradientUnits="userSpaceOnUse">
<stop stop-color="#00A0FF"/>
<stop offset="0.00657" stop-color="#00A1FF"/>
<stop offset="0.2601" stop-color="#00BEFF"/>
<stop offset="0.5122" stop-color="#00D2FF"/>
<stop offset="0.7604" stop-color="#00DFFF"/>
<stop offset="1" stop-color="#00E3FF"/>
</linearGradient>
<linearGradient id="paint1_linear_183_328" x1="124.852" y1="64.0917" x2="4.30487" y2="64.0917" gradientUnits="userSpaceOnUse">
<stop stop-color="#FFE000"/>
<stop offset="0.4087" stop-color="#FFBD00"/>
<stop offset="0.7754" stop-color="#FFA500"/>
<stop offset="1" stop-color="#FF9C00"/>
</linearGradient>
<linearGradient id="paint2_linear_183_328" x1="79.9747" y1="75.5368" x2="0.572698" y2="209.14" gradientUnits="userSpaceOnUse">
<stop stop-color="#FF3A44"/>
<stop offset="1" stop-color="#C31162"/>
</linearGradient>
<linearGradient id="paint3_linear_183_328" x1="-7.36679" y1="-34.6856" x2="28.0574" y2="24.9837" gradientUnits="userSpaceOnUse">
<stop stop-color="#32A071"/>
<stop offset="0.0685" stop-color="#2DA771"/>
<stop offset="0.4762" stop-color="#15CF74"/>
<stop offset="0.8009" stop-color="#06E775"/>
<stop offset="1" stop-color="#00F076"/>
</linearGradient>
</defs>
</svg>
