<svg width="128" height="128" viewBox="0 0 128 128" fill="none" xmlns="http://www.w3.org/2000/svg">
<rect width="128" height="128" rx="24" fill="url(#paint0_linear_264_2802)"/>
<g clip-path="url(#clip0_264_2802)">
<path d="M178.707 55.186C178.707 52.8506 180.175 51.2927 182.213 51.2927C184.011 51.2927 185.176 52.2681 185.419 53.9193C187.133 52.0702 189.367 50.9986 191.939 50.9986C194.866 50.9986 197.348 52.2172 199.192 54.5527C201.137 52.3162 204.199 50.9986 206.588 50.9986C212.277 50.9986 216.168 54.3095 216.168 60.4365V73.8667C216.168 76.1993 214.709 77.7544 212.664 77.7544C210.62 77.7544 209.161 76.1993 209.161 73.8667V61.6523C209.161 58.8305 207.606 56.8344 205.078 56.8344C202.497 56.8344 200.942 58.8305 200.942 61.6523V73.8639C200.942 76.1965 199.486 77.7516 197.444 77.7516C195.397 77.7516 193.938 76.1965 193.938 73.8639V61.6523C193.938 58.8305 192.383 56.8344 189.853 56.8344C186.983 56.8344 185.719 58.8305 185.719 61.6523V73.8639C185.719 76.1965 184.257 77.7516 182.213 77.7516C180.175 77.7516 178.707 76.1965 178.707 73.8639V55.186ZM34.9307 43.8933C34.9307 41.5636 36.3868 40 38.431 40C40.4752 40 41.937 41.5636 41.937 43.8933V73.8639C41.937 76.1965 40.4724 77.7516 38.431 77.7516C36.3896 77.7516 34.9307 76.1965 34.9307 73.8639V43.8933ZM126.304 70.454C128.393 70.454 130.101 72.1618 130.101 74.2569C130.101 76.3435 128.393 78.0484 126.304 78.0484C125.299 78.0462 124.335 77.6461 123.624 76.9356C122.913 76.2251 122.513 75.262 122.51 74.2569C122.51 72.1618 124.215 70.454 126.304 70.454ZM150.495 58.7825C148.737 58.7825 147.184 57.4225 144.945 57.4225C140.961 57.4225 139.061 60.9709 139.061 64.573C139.061 68.0253 141.154 71.6274 144.945 71.6274C146.698 71.6274 149.325 70.1684 150.15 70.1684C151.804 70.1684 153.167 71.5765 153.167 73.2277C153.167 76.8355 147.136 78.0484 144.606 78.0484C137.062 78.0484 132.055 71.8677 132.055 64.5702C132.055 57.4677 137.209 50.9958 144.606 50.9958C147.377 50.9958 153.167 52.0193 153.167 55.4263C153.167 56.8853 152.147 58.7825 150.495 58.7825ZM19.3577 50.9949C12.3061 50.9949 7.82715 57.5668 7.82715 64.6183C7.82715 71.5738 11.2804 78.0457 18.6232 78.0485C21.838 78.0485 24.2217 76.881 25.6807 74.7407H25.7856V76.3918C25.7856 79.9515 23.2534 81.9417 19.8492 81.9417C15.8116 81.9417 13.3273 79.7494 11.0908 79.7494C9.73083 79.7494 8.26893 81.505 8.26893 82.8198C8.26893 86.6594 16.4382 88.0659 19.308 88.0659C27.2897 88.0659 32.7823 83.8344 32.7823 75.4144H32.7768V55.1808C32.7768 52.8453 31.3254 51.2875 29.2812 51.2875C27.3331 51.2875 26.2127 52.3597 25.7801 54.2088C24.4625 52.0657 21.7384 50.9949 19.3577 50.9949ZM20.2799 57.4173C24.1223 57.4173 25.7801 61.3107 25.7801 64.7177C25.7801 68.1248 24.0234 71.6261 20.2799 71.6261C16.6325 71.6261 14.8349 68.2211 14.8349 64.4748C14.8349 61.2148 16.6325 57.4173 20.2799 57.4173ZM55.8765 50.9949C48.4828 50.9949 43.3299 57.4662 43.3299 64.5686C43.3299 71.8662 48.3386 78.0485 55.8765 78.0485C63.4172 78.0485 68.4287 71.8662 68.4287 64.5686C68.4287 57.4662 63.2702 50.9949 55.8765 50.9949ZM55.8765 57.4173C59.719 57.4173 61.4209 61.2125 61.4209 64.5686C61.4209 67.9248 59.6709 71.6261 55.8765 71.6261C52.0821 71.6261 50.3321 67.9276 50.3321 64.5686C50.3321 61.2125 52.0312 57.4173 55.8765 57.4173ZM73.2717 40C71.2275 40 69.7651 41.5634 69.7651 43.8932H69.7707V73.8626C69.7707 76.1952 71.2276 77.7503 73.2718 77.7503C75.2171 77.7503 76.3375 76.6837 76.773 74.8345C78.0877 76.9749 80.812 78.0485 83.1899 78.0485C90.2414 78.0485 94.7204 71.4803 94.7204 64.8613C94.7204 58.0586 90.9735 50.9949 83.4328 50.9949C80.9907 50.98 78.6247 51.8444 76.7673 53.4302V43.8932C76.7673 41.5634 75.3159 40 73.2717 40ZM82.262 57.4228C85.9122 57.4228 87.718 61.2661 87.718 64.5742C87.718 67.837 85.9122 71.6261 82.262 71.6261C78.4195 71.6261 76.7673 67.7325 76.7673 64.3312C76.7673 60.9241 78.5185 57.4228 82.262 57.4228ZM108.001 50.9949C100.608 50.9949 95.4492 57.4662 95.4492 64.5686C95.4492 71.8662 100.463 78.0485 108.001 78.0485C115.545 78.0485 120.553 71.8662 120.553 64.5686C120.553 57.4662 115.395 50.9949 108.001 50.9949ZM108.001 57.4173C111.844 57.4173 113.546 61.2125 113.546 64.5686C113.546 67.9248 111.799 71.6261 108.001 71.6261C104.207 71.6261 102.457 67.9276 102.457 64.5686C102.457 61.2125 104.156 57.4173 108.001 57.4173ZM164.82 50.9949C157.429 50.9949 152.273 57.4662 152.273 64.5686C152.273 71.8662 157.282 78.0485 164.82 78.0485C172.364 78.0485 177.378 71.8662 177.378 64.5686C177.378 57.4662 172.217 50.9949 164.82 50.9949ZM164.814 57.4173C168.66 57.4173 170.359 61.2125 170.359 64.5686C170.359 67.9248 168.612 71.6261 164.814 71.6261C161.026 71.6261 159.276 67.9276 159.276 64.5686C159.276 61.2125 160.975 57.4173 164.814 57.4173Z" fill="#0669DE"/>
</g>
<defs>
<linearGradient id="paint0_linear_264_2802" x1="64" y1="0" x2="64" y2="128" gradientUnits="userSpaceOnUse">
<stop stop-color="white"/>
<stop offset="1" stop-color="#EEEEEE"/>
</linearGradient>
<clipPath id="clip0_264_2802">
<rect width="117" height="48.0659" fill="white" transform="translate(5 40)"/>
</clipPath>
</defs>
</svg>
