<svg width="128" height="128" viewBox="0 0 128 128" fill="none" xmlns="http://www.w3.org/2000/svg">
<rect width="128" height="128" rx="24" fill="url(#paint0_linear_264_1818)"/>
<path fill-rule="evenodd" clip-rule="evenodd" d="M30.3943 75.9805L27.8069 83.9431C27.7087 84.2688 27.5473 84.5717 27.332 84.835C27.1167 85.0988 26.8517 85.317 26.5521 85.4778C26.2525 85.6386 25.9242 85.7393 25.5859 85.773C25.2477 85.8067 24.9061 85.7739 24.5807 85.6755L7.73608 80.2022C7.41511 80.0906 7.11932 79.9165 6.86559 79.6906C6.61189 79.4642 6.40522 79.1899 6.25739 78.8838C6.10961 78.5777 6.02356 78.2452 6.0042 77.9053C5.98484 77.5659 6.03254 77.2256 6.14455 76.9044L8.73167 68.942C8.93015 68.2837 9.38155 67.731 9.9867 67.4053C10.5919 67.0796 11.3013 67.0075 11.9592 67.205L28.8039 72.6781C29.4522 72.9051 29.9838 73.3804 30.2817 73.9996C30.5801 74.6188 30.6202 75.3313 30.3943 75.9805Z" fill="#1F9DD8"/>
<path fill-rule="evenodd" clip-rule="evenodd" d="M45.7248 59.2784L38.9518 64.1994C38.6807 64.4052 38.3719 64.5557 38.043 64.6422C37.7141 64.7287 37.371 64.7496 37.0344 64.7037C36.6973 64.6578 36.3729 64.5459 36.0791 64.3745C35.7857 64.2032 35.5288 63.9756 35.3234 63.7048L24.9126 49.376C24.7186 49.0968 24.5816 48.7822 24.5093 48.4501C24.4371 48.1179 24.431 47.7746 24.4914 47.44C24.5519 47.1053 24.6776 46.7858 24.8616 46.4997C25.0456 46.2135 25.2841 45.9664 25.5635 45.7723L32.3368 40.8512C32.8844 40.4353 33.5745 40.2535 34.2556 40.3457C34.9361 40.438 35.5525 40.7967 35.9689 41.3431L46.3794 55.672C46.7707 56.2367 46.921 56.9337 46.7985 57.6099C46.6759 58.2861 46.2896 58.8861 45.7248 59.2784Z" fill="#78B942"/>
<path fill-rule="evenodd" clip-rule="evenodd" d="M67.9456 54.7777H59.5731C59.2333 54.785 58.8948 54.7252 58.5778 54.6018C58.2607 54.4785 57.9714 54.2939 57.7255 54.0587C57.4799 53.8235 57.2831 53.5422 57.1465 53.2311C57.0098 52.9198 56.9355 52.5847 56.9287 52.2449V34.5334C56.9355 34.1936 57.0098 33.8585 57.1465 33.5473C57.2831 33.2361 57.4799 32.9548 57.7255 32.7196C57.9714 32.4844 58.2607 32.2999 58.5778 32.1765C58.8948 32.0531 59.2333 31.9933 59.5731 32.0006H67.9456C68.633 31.9859 69.2981 32.2444 69.7946 32.7193C70.2916 33.1942 70.5791 33.8467 70.595 34.5334V52.2449C70.5791 52.9316 70.2916 53.5841 69.7946 54.059C69.2981 54.5339 68.633 54.7924 67.9456 54.7777Z" fill="#FFC807"/>
<path fill-rule="evenodd" clip-rule="evenodd" d="M88.5666 64.1964L81.7935 59.2754C81.5138 59.0814 81.2756 58.8342 81.0915 58.548C80.9075 58.2619 80.7818 57.9423 80.7212 57.6077C80.6611 57.2731 80.667 56.9298 80.7394 56.5977C80.8114 56.2655 80.9485 55.9509 81.1426 55.6718L91.5531 41.3429C91.7585 41.0721 92.0155 40.8446 92.3088 40.6732C92.6027 40.5018 92.927 40.3899 93.2641 40.344C93.6012 40.2981 93.9438 40.319 94.2727 40.4055C94.602 40.4921 94.9104 40.6425 95.1815 40.8483L101.955 45.7694C102.519 46.1615 102.906 46.7616 103.028 47.4378C103.151 48.114 103 48.811 102.61 49.3757L92.1986 63.7046C91.7827 64.251 91.1663 64.6098 90.4853 64.702C89.8043 64.7942 89.1141 64.6124 88.5666 64.1964Z" fill="#EA7723"/>
<path fill-rule="evenodd" clip-rule="evenodd" d="M99.7148 83.9378L97.1273 75.9753C97.0157 75.654 96.9679 75.3139 96.987 74.9742C97.0066 74.6346 97.0927 74.3021 97.2403 73.9959C97.3884 73.6896 97.5947 73.4155 97.8484 73.1893C98.1022 72.963 98.3983 72.789 98.719 72.6773L115.564 67.2041C115.889 67.1058 116.231 67.0727 116.569 67.1067C116.907 67.1406 117.235 67.2408 117.535 67.4017C117.834 67.5626 118.1 67.781 118.315 68.0444C118.53 68.3078 118.692 68.611 118.79 68.9368L121.377 76.8992C121.603 77.5483 121.563 78.2608 121.265 78.8799C120.967 79.4994 120.435 79.9746 119.787 80.2014L102.942 85.6748C102.285 85.872 101.575 85.8001 100.97 85.4743C100.364 85.1486 99.913 84.5961 99.7148 83.9378Z" fill="#EC1C66"/>
<path fill-rule="evenodd" clip-rule="evenodd" d="M44.819 71.7483C45.5333 71.1474 46.5997 71.2395 47.2006 71.9538L63.7851 91.6728L74.3833 78.9058C74.9796 78.1874 76.0451 78.0885 76.7635 78.6849C77.4814 79.2807 77.5803 80.3462 76.9844 81.0646L65.0939 95.3878C64.7741 95.7732 64.2998 95.9969 63.7992 95.9987C63.2981 96 62.8225 95.7796 62.5 95.3965L44.6136 74.1295C44.0127 73.4152 44.1047 72.349 44.819 71.7483Z" fill="#424242"/>
<defs>
<linearGradient id="paint0_linear_264_1818" x1="64" y1="0" x2="64" y2="128" gradientUnits="userSpaceOnUse">
<stop stop-color="white"/>
<stop offset="1" stop-color="#EEEEEE"/>
</linearGradient>
</defs>
</svg>
