<svg width="128" height="128" viewBox="0 0 128 128" fill="none" xmlns="http://www.w3.org/2000/svg">
<rect width="128" height="128" rx="24" fill="#1A75CF"/>
<path d="M64.0793 49.2976C66.1882 49.2976 67.924 48.2011 68.1584 46.7845L70.2404 23.238C70.2404 20.9106 67.514 19 64.086 19C60.6613 19 57.9374 20.9106 57.9374 23.2384L60.0182 46.7845C60.2471 48.2007 61.983 49.2976 64.0864 49.2976H64.0793ZM51.3532 56.6523C52.411 54.8282 52.3312 52.7781 51.2163 51.8673L31.8623 38.291C29.85 37.1256 26.8328 38.5283 25.1205 41.498C23.4023 44.4639 23.7069 47.7764 25.7137 48.9422L47.1442 58.9204C48.4839 59.4169 50.3105 58.4612 51.3599 56.6384L51.3532 56.6523ZM76.8167 56.6396C77.8728 58.4625 79.6902 59.4186 81.0311 58.9216L102.462 48.9434C104.481 47.7781 104.768 44.4652 103.066 41.4993C101.345 38.5325 98.3224 37.1269 96.3156 38.2922L76.9604 51.8686C75.8538 52.7781 75.7715 54.8299 76.8234 56.6535L76.8167 56.6396ZM64.0793 78.7108C66.1882 78.7108 67.924 79.798 68.1584 81.2159L70.2404 104.759C70.2404 107.094 67.514 109 64.086 109C60.6613 109 57.9374 107.094 57.9374 104.759L60.0182 81.2159C60.2471 79.798 61.983 78.7108 64.0864 78.7108H64.0793ZM76.8167 71.3545C77.8728 69.5266 79.6902 68.5789 81.0311 69.0813L102.462 79.0528C104.481 80.2194 104.768 83.5353 103.066 86.5037C101.345 89.4608 98.3224 90.8702 96.3156 89.7065L76.9604 76.1428C75.8538 75.2261 75.7715 73.1731 76.8234 71.3507H76.815M51.3532 71.352C52.411 73.1731 52.3312 75.2261 51.2163 76.1445L31.8623 89.7078C29.85 90.8715 26.8328 89.462 25.1205 86.5049C23.4023 83.5365 23.7069 80.2207 25.7137 79.0541L47.1442 69.0826C48.4839 68.5801 50.3105 69.5279 51.3599 71.3562H51.3532" fill="#FDBB30"/>
</svg>
