<svg width="128" height="128" viewBox="0 0 128 128" fill="none" xmlns="http://www.w3.org/2000/svg">
<path d="M0 24C0 10.7452 10.7452 0 24 0H104C117.255 0 128 10.7452 128 24V104C128 117.255 117.255 128 104 128H24C10.7452 128 0 117.255 0 104V24Z" fill="#003768"/>
<path d="M15.9418 44.233C15.9418 41.3786 18.3204 39 21.3107 39C24.301 39 26.6117 41.3786 26.6117 44.233C26.6117 47.1553 24.233 49.3981 21.3107 49.3981C18.3204 49.3981 15.9418 47.1553 15.9418 44.233ZM12.2718 81.9515H14.8544C15.6699 81.9515 16.4854 81 16.4854 80.2525V59.9321C16.4854 59.1845 15.6699 58.0971 14.8544 58.0971H12V52.1845H24.7087C25.7961 52.1845 26.3398 53.2719 26.3398 55.9223V80.1845C26.3398 81 27.2233 81.8835 28.0388 81.8835H30.6214V87.4564H12.2718V81.9515Z" fill="white"/>
<path d="M32.864 69.9905C32.864 58.641 40.9514 51.709 51.6213 51.709C57.1262 51.709 60.3203 53.0002 62.4271 54.1556V61.4274H58.6893C57.2621 60.0682 54.8155 58.8449 51.6213 58.8449C46.5242 58.8449 42.7864 62.5828 42.7864 69.9905C42.7864 77.6022 46.3203 80.7964 51.3495 80.7964C55.4951 80.7964 57.7378 79.3692 59.233 77.942H62.631V84.6702C60.4563 86.0974 56.6504 87.9323 51.2135 87.9323C39.6601 88.0003 32.864 81.2721 32.864 69.9905Z" fill="white"/>
<path d="M92.1945 70.0585C92.1945 62.3789 88.8644 58.641 84.1071 58.641C79.3498 58.641 76.0197 62.3789 76.0197 70.0585C76.0197 77.6702 79.3498 80.9323 84.1071 80.9323C88.9324 81.0003 92.1945 77.6702 92.1945 70.0585ZM66.0974 70.0585C66.0974 58.709 74.1848 51.709 84.1071 51.709C94.0974 51.709 102.117 58.709 102.117 70.0585C102.117 81.3401 94.0295 88.0003 84.1071 88.0003C74.1848 88.0003 66.0974 81.3401 66.0974 70.0585Z" fill="white"/>
<path d="M104.971 82.5629C104.971 79.5046 107.418 77.126 110.476 77.126C113.534 77.126 115.981 79.5726 115.981 82.5629C115.981 85.6211 113.466 87.9318 110.476 87.9318C107.35 87.9318 104.971 85.5532 104.971 82.5629Z" fill="white"/>
</svg>
