<svg width="128" height="128" viewBox="0 0 128 128" fill="none" xmlns="http://www.w3.org/2000/svg">
<rect width="128" height="128" rx="24" fill="url(#paint0_linear_183_908)"/>
<g clip-path="url(#clip0_183_908)">
<path d="M69.8691 50.9653C59.4508 50.9653 51.5691 59.0584 51.5691 69.0842C51.5691 79.6535 59.783 87.2031 69.8691 87.2031C79.9553 87.2031 88.139 79.6535 88.139 69.0842C88.139 59.0584 80.2875 50.9653 69.8691 50.9653ZM69.8691 60.5381C74.3687 60.5079 78.0528 64.3431 78.0528 69.0842C78.0528 73.7951 74.3687 77.6303 69.8691 77.6303C65.3696 77.6303 61.6855 73.7951 61.6855 69.0842C61.6855 64.3431 65.3696 60.5381 69.8691 60.5381Z" fill="black"/>
<path d="M122 80.8603C122 84.3633 119.161 87.2019 115.658 87.2019C112.156 87.2019 109.317 84.3633 109.317 80.8603C109.317 77.3573 112.156 74.5187 115.658 74.5187C119.161 74.5187 122 77.3573 122 80.8603Z" fill="black"/>
<path d="M103.54 85.9952H93.5745V41H103.54V85.9952Z" fill="black"/>
<path fill-rule="evenodd" clip-rule="evenodd" d="M6 85.9952L24.1189 41H33.4803L51.2972 85.9952H38.6139L36.5001 79.6536H20.7971L18.6832 85.9952H6ZM33.4803 70.2922H24.1189L28.7996 55.1931L33.4803 70.2922Z" fill="black"/>
</g>
<defs>
<linearGradient id="paint0_linear_183_908" x1="64" y1="0" x2="64" y2="128" gradientUnits="userSpaceOnUse">
<stop stop-color="white"/>
<stop offset="1" stop-color="#EEEEEE"/>
</linearGradient>
<clipPath id="clip0_183_908">
<rect width="116" height="46.3191" fill="white" transform="translate(6 41)"/>
</clipPath>
</defs>
</svg>
