<svg width="128" height="128" viewBox="0 0 128 128" fill="none" xmlns="http://www.w3.org/2000/svg">
<path d="M113.024 0H14.7407C7.15192 0 1 6.15192 1 13.7407V114.259C1 121.848 7.15192 128 14.7407 128H113.024C120.612 128 126.764 121.848 126.764 114.259V13.7407C126.764 6.15192 120.612 0 113.024 0Z" fill="url(#paint0_linear_2800_2698)"/>
<path d="M75.9805 116.941C74.9547 116.966 73.9318 116.821 72.9538 116.511C94.7256 105.986 121.244 80.4994 121.244 68.4784C121.294 67.4914 121.016 66.5157 120.453 65.7036C119.889 64.8915 119.073 64.2889 118.131 63.9899C117.351 63.7207 116.532 63.5812 115.706 63.5771C117.883 60.4839 119.206 56.8714 119.541 53.104C119.636 52.2112 119.53 51.3086 119.231 50.4622C118.932 49.6158 118.447 48.8471 117.812 48.2123C117.177 47.5775 116.409 47.0927 115.562 46.7935C114.716 46.4943 113.813 46.3882 112.92 46.483C112.345 46.4876 111.77 46.5336 111.201 46.6205C112.384 44.2531 113.058 41.6635 113.178 39.0193C113.178 34.2212 109.98 32.1404 105.715 32.1404C104.045 32.1618 102.383 32.3753 100.762 32.7767C101.794 30.6783 102.38 28.3887 102.482 26.0525C102.482 22.4239 100.556 19.3283 94.4677 19.3283C92.4436 19.3644 90.4324 19.6592 88.483 20.2054C88.8873 19.1023 89.1081 17.9404 89.1365 16.7659C89.1365 12.7073 86.5741 10.7812 82.2575 10.7812C79.0537 10.9169 75.9013 11.6336 72.9538 12.8965C73.0303 12.4823 73.0705 12.0623 73.0742 11.6411C73.0742 8.44239 71.3544 6.72266 67.313 6.72266C53.9851 6.72266 26.7444 27.5831 13.64 46.4486C13.6276 45.9541 13.6564 45.4593 13.726 44.9696C13.726 37.7123 22.9094 21.0653 46.1775 10.3857L45.5412 9.09589C21.0005 19.2423 9.13433 38.7613 9.13433 46.9301C9.11484 48.6672 9.59218 50.3737 10.5101 51.8485C8.24241 55.535 6.85916 59.6966 6.46874 64.0071C6.46874 64.1619 6.46874 64.2994 6.46874 64.437C6.42857 66.0461 6.84085 67.6342 7.65868 69.0205C8.47651 70.4069 9.66705 71.5359 11.0948 72.279C9.96504 74.9325 9.33536 77.7718 9.23752 80.6541C9.32602 83.0831 10.2849 85.3992 11.9393 87.1798C13.5936 88.9604 15.8331 90.0868 18.2489 90.3534C18.017 91.5899 17.8962 92.8445 17.8878 94.1025C17.8393 95.4876 18.0703 96.8683 18.5671 98.1622C19.0639 99.456 19.8162 100.637 20.7793 101.633C21.7423 102.63 22.8963 103.423 24.1723 103.964C25.4483 104.505 26.8202 104.783 28.2062 104.782C28.8425 104.782 29.496 104.782 30.1495 104.782C30.1495 104.937 30.1495 105.109 30.1495 105.264C30.1495 112.143 34.8616 115.29 41.0355 115.29C42.8972 115.266 44.752 115.059 46.573 114.671C48.0348 119.279 53.0048 121.257 56.6163 121.257C60.0351 121.143 63.4114 120.463 66.6079 119.245C68.5784 120.733 71.0251 121.449 73.4869 121.257C84.1665 121.257 105.302 108.239 114.761 91.3681L113.901 90.5082C102.206 108.187 84.0633 116.941 75.9805 116.941ZM105.835 33.2582C106.644 33.1738 107.462 33.2643 108.233 33.5236C109.004 33.7829 109.71 34.2049 110.304 34.761C110.898 35.3172 111.365 35.9945 111.674 36.747C111.983 37.4995 112.126 38.3096 112.095 39.1225C111.926 41.8954 111.088 44.5861 109.653 46.9645C102.464 48.6842 91.3721 55.2536 80.4174 63.9899C69.4627 72.7262 58.9551 83.4745 52.4717 93.8961C47.2918 96.3507 41.801 98.0865 36.1514 99.0553C37.2952 93.8575 39.4198 88.9255 42.4112 84.5235C53.715 79.0335 64.2779 72.1341 73.848 63.9899C85.8862 53.9638 95.8091 42.8887 100.194 34.2384C102.015 33.632 103.917 33.3016 105.835 33.2582ZM108.656 48.581C104.996 54.2565 100.647 59.4555 95.7059 64.0587C84.6422 74.5653 72.2249 83.5472 58.7831 90.7662C65.9231 80.7627 74.3671 71.7577 83.8913 63.9899C92.9199 56.4918 102.035 50.6447 108.656 48.581ZM46.5042 78.5045C50.319 73.3982 54.4669 68.5495 58.9207 63.9899C71.5608 50.9371 86.9008 39.2773 98.0447 34.9951C92.8855 43.697 81.8104 54.5829 69.3595 63.9899C62.1772 69.4829 54.5299 74.3394 46.5042 78.5045ZM95.0524 20.6525C99.3173 20.6525 101.243 22.785 101.243 25.9837C101.079 28.5821 100.301 31.1045 98.9734 33.3442C86.4537 37.1104 69.1016 49.6129 54.8965 63.9899C49.5026 69.394 44.5618 75.232 40.124 81.4452C35.287 83.6529 30.0893 84.9639 24.7839 85.3146C26.4971 79.984 28.9579 74.9234 32.0928 70.2841C36.251 68.4703 40.274 66.3611 44.131 63.9727C63.0309 52.5364 82.8595 33.6365 88.0187 21.8907C90.2877 21.1271 92.6589 20.7097 95.0524 20.6525ZM35.9794 64.6778L36.4781 63.9899C49.7717 46.2766 70.8729 28.1678 86.3505 22.4754C79.9703 34.204 57.115 54.7721 37.5444 63.9899L35.9794 64.6778ZM82.4123 12.1054C86.6773 12.1054 87.9671 13.1717 87.9671 17.2646C87.9129 18.4551 87.6266 19.6234 87.1244 20.7041C70.8213 25.7429 47.2609 44.9696 32.2648 63.9899C31.4737 64.9873 30.717 65.9848 29.9775 66.9994C26.9424 68.0505 23.7642 68.6305 20.5534 68.7192C19.5596 68.7316 18.5675 68.6335 17.5954 68.4268C18.2317 67.0166 18.9884 65.5377 19.8483 64.0243C21.8212 60.637 24.0098 57.38 26.4005 54.2734C44.6125 48.4091 68.706 26.0525 72.6958 14.6162C75.7525 13.1407 79.074 12.2928 82.4639 12.1226L82.4123 12.1054ZM30.2871 49.4237C41.9813 35.4939 58.336 21.4608 71.148 15.3213C66.5907 26.4136 44.8877 43.6282 30.2871 49.4237ZM67.8289 7.96087C70.5977 7.96087 71.9907 9.45704 71.9907 11.5895C71.9824 12.2509 71.8959 12.909 71.7327 13.55C57.3729 19.6723 38.1463 35.3563 24.7495 51.1091C23.8606 51.2903 22.9567 51.3882 22.0496 51.4014C19.952 51.5393 17.8598 51.0611 16.0305 50.0256C26.4177 32.1404 55.3437 7.96087 67.8289 7.96087ZM12.6254 63.9899C12.3476 63.0172 12.2143 62.009 12.2299 60.9975C12.3161 58.8132 12.8181 56.6653 13.7088 54.6689C15.1825 55.3576 16.7946 55.6989 18.4209 55.6664C19.3589 55.6609 20.2954 55.5919 21.2241 55.46C19.0925 58.2169 17.1119 61.0873 15.291 64.0587C14.8095 64.8669 14.3451 65.658 13.9152 66.4319C13.3079 65.7247 12.8671 64.8902 12.6254 63.9899ZM19.8483 84.6267C15.8585 83.2681 15.2222 80.0006 15.2222 77.3866C15.2359 76.11 15.4033 74.8397 15.7209 73.6032C16.4741 73.6957 17.2322 73.7417 17.991 73.7408C20.7825 73.6743 23.5503 73.2111 26.2113 72.365C23.6505 76.2356 21.5116 80.3694 19.8311 84.6955L19.8483 84.6267ZM31.0094 99.3305C26.005 98.9521 23.7693 95.891 23.7693 91.6777C23.7693 91.1789 23.7693 90.6802 23.7693 90.1815C28.1225 89.612 32.3901 88.5147 36.4781 86.914C34.0863 90.7987 32.2404 94.9941 30.9922 99.3821L31.0094 99.3305ZM46.2291 110.32C45.6959 110.32 45.1628 110.32 44.6641 110.32C39.4017 110.32 36.7705 107.688 36.0654 103.888C40.6229 102.884 45.07 101.433 49.3418 99.554C47.6622 102.925 46.6075 106.572 46.2291 110.32ZM64.5443 115.479C63.1332 115.801 61.6922 115.974 60.2449 115.995C58.8755 116.046 57.5111 115.802 56.2441 115.28C54.9772 114.758 53.8373 113.969 52.9016 112.968C57.148 111.442 61.2704 109.59 65.2321 107.43C64.6438 109.236 64.3307 111.12 64.3035 113.02C64.3086 113.805 64.3893 114.588 64.5443 115.358V115.479ZM51.5258 109.374C51.5258 109.236 51.5258 109.081 51.5258 108.944C51.7713 104.699 53.0208 100.573 55.1717 96.9056C71.46 88.4533 86.2139 77.3268 98.8186 63.9899C103.444 59.2277 107.417 53.8727 110.633 48.0651C111.475 47.8819 112.334 47.7839 113.196 47.7728C117.684 47.7728 118.355 50.9715 118.355 53.104C118.355 56.0447 116.79 59.6734 114.09 63.6631C113.512 63.7431 112.938 63.8522 112.37 63.9899C99.111 67.051 75.2754 86.2433 67.1239 102.667C62.1811 105.426 56.9504 107.635 51.5258 109.253V109.374ZM112.989 65.1937C104.769 76.4408 88.2938 90.1471 72.7302 99.4852C80.6926 85.2286 101.243 67.9797 112.989 65.1937ZM69.4283 109.666C69.4728 107.837 69.8275 106.028 70.4773 104.318C88.139 93.7757 106.592 77.593 114.95 64.7638H115.964C116.459 64.7093 116.96 64.7562 117.436 64.9017C117.912 65.0473 118.354 65.2884 118.734 65.6103C119.114 65.9322 119.424 66.3281 119.645 66.7739C119.867 67.2198 119.996 67.7061 120.023 68.2032C120.023 79.9318 90.2543 105.883 70.1506 113.604C69.6571 112.351 69.4118 111.013 69.4283 109.666Z" fill="#1F3D73"/>
<defs>
<linearGradient id="paint0_linear_2800_2698" x1="63.8822" y1="0" x2="63.8822" y2="128" gradientUnits="userSpaceOnUse">
<stop stop-color="#FFEE76"/>
<stop offset="1" stop-color="#E7D23F"/>
</linearGradient>
</defs>
</svg>
