<svg width="128" height="128" viewBox="0 0 128 128" fill="none" xmlns="http://www.w3.org/2000/svg">
<g clip-path="url(#clip0_264_1994)">
<path d="M5 0L64.2844 128L123.63 0" fill="#F9F9F9"/>
<path d="M104.972 40.2502L123.63 0H5L23.7739 40.5161H32.5239L39.7067 56.0114L46.8895 40.5161H55.6617L42.52 68.8762H36.9155L64.3121 128L92.3399 67.5139C90.169 68.771 87.6437 69.4909 84.9467 69.4909C76.4791 69.4909 69.7504 63.1001 69.7504 54.6712C69.7504 46.2424 76.4791 39.8515 84.9467 39.8515C90.3573 39.8515 95.0813 42.7645 97.6509 47.0731L91.033 51.0438C89.7869 49.0003 87.5163 47.566 84.9467 47.566C81.0147 47.566 77.8414 50.7835 77.8414 54.6768C77.8414 58.57 81.0202 61.7876 84.9467 61.7876C87.5219 61.7876 89.7869 60.3864 91.033 58.3042L95.3914 60.9181L100.841 49.1554M100.841 49.1554L101.683 47.3444L100.841 49.1554ZM66.1396 68.8818H58.0375V40.5216H66.1396V68.8818Z" fill="#094792"/>
</g>
<defs>
<clipPath id="clip0_264_1994">
<rect width="118.63" height="128" fill="white" transform="translate(5)"/>
</clipPath>
</defs>
</svg>
