<svg width="128" height="128" viewBox="0 0 128 128" fill="none" xmlns="http://www.w3.org/2000/svg">
<mask id="mask0_183_1248" style="mask-type:alpha" maskUnits="userSpaceOnUse" x="0" y="0" width="128" height="128">
<path d="M0 24C0 10.7452 10.7452 0 24 0H104C117.255 0 128 10.7452 128 24V104C128 117.255 117.255 128 104 128H24C10.7452 128 0 117.255 0 104V24Z" fill="url(#paint0_linear_183_1248)"/>
<path d="M59.6934 30.0156V94H44.2686V30.0156H59.6934ZM84.5664 56.6465V68.5117H55.2988V56.6465H84.5664ZM87.0713 30.0156V41.9248H55.2988V30.0156H87.0713Z" fill="white"/>
</mask>
<g mask="url(#mask0_183_1248)">
<path fill-rule="evenodd" clip-rule="evenodd" d="M0 128H128V0H0V128Z" fill="#E3120B"/>
<path d="M72.2598 106.75C60.6098 106.75 59.9298 106.21 59.9298 94.4297V65.4797L65.1898 65.1997L72.6898 65.3597C83.0798 65.4797 85.3098 67.4297 85.8598 77.3497H90.3098C90.1698 71.1297 90.1698 66.4497 90.1698 63.1197C90.1698 58.9797 90.1698 54.7097 90.5898 46.4797H85.8598C85.7398 56.7697 83.2498 59.0897 72.4098 59.0897C70.2798 59.0697 68.1598 58.9897 66.0398 58.8297C64.7898 58.8297 62.6798 58.6797 60.0698 58.6797V21.2997L61.4498 21.1797H64.5098C84.2098 21.1797 86.5698 22.5597 87.5198 35.1397L93.0598 34.7197L92.5098 14.6297L83.6698 14.4697L50.0898 14.8897L28.8498 14.6197L29.2498 17.9697C39.3798 18.2597 42.0098 21.0197 42.0098 31.3897V96.3697C42.0098 106.76 39.3798 109.52 29.2498 109.78L28.8398 113.38L51.6198 113.26L85.2998 113.53L95.9598 113.38L99.1498 90.3997L93.6098 90.0997C92.2498 103.29 87.6698 106.75 72.2598 106.75Z" fill="white"/>
</g>
<defs>
<linearGradient id="paint0_linear_183_1248" x1="64" y1="0" x2="64" y2="128" gradientUnits="userSpaceOnUse">
<stop stop-color="#1D63F0"/>
<stop offset="1" stop-color="#1AD5FD"/>
</linearGradient>
</defs>
</svg>
