<svg width="128" height="128" viewBox="0 0 128 128" fill="none" xmlns="http://www.w3.org/2000/svg">
<rect width="128" height="128" rx="24" fill="url(#paint0_linear_264_2626)"/>
<g clip-path="url(#clip0_264_2626)">
<path d="M78.3002 37.1901L80.9402 31.0401C83.4402 25.2001 82.8702 22.1901 79.6402 24.1801C77.6602 25.4001 74.2602 22.2101 72.1402 17.1401C70.0402 12.1101 68.6002 11.7401 65.9302 15.5501C64.8702 17.0601 55.8102 26.7401 45.7902 37.0501C30.2902 53.0101 21.4802 63.5901 15.0402 73.9601C14.3102 75.1401 12.6602 77.5501 11.3702 79.3001C7.71018 84.3201 8.46018 88.1301 14.0102 92.7101C16.7402 94.9601 20.0402 96.8101 21.3402 96.8101C23.1802 96.8101 23.7002 97.9101 23.7002 101.85C23.7002 110.87 25.7702 112.26 39.9302 112.72C46.7702 112.94 56.8602 113.5 62.3602 113.97C67.8602 114.44 77.4602 115.01 83.6902 115.24L95.0202 115.66L100.16 110.38C105.19 105.21 105.26 105 103.56 100.29C102.21 96.5501 102.18 95.1301 103.42 93.8901C104.66 92.6501 105.38 92.6401 106.62 93.8901C107.5 94.7701 109.22 95.4901 110.44 95.4901C113.87 95.4901 119.69 90.2801 119.69 87.2201C119.69 84.4701 100.63 60.7701 86.0102 45.3501L78.2902 37.2001L78.3002 37.1901ZM100.72 88.1501L75.8702 87.7001C56.6402 87.3501 48.9702 87.7301 41.9402 89.3701C36.9402 90.5301 32.1702 91.4801 31.3402 91.4801C29.5302 91.4801 28.3502 92.5901 47.6902 76.1701C56.1202 69.0101 64.7202 61.2801 66.7802 58.9801L70.5402 54.8101L80.4702 65.4801C85.9302 71.3501 92.7202 78.8501 95.5602 82.1501L100.71 88.1501H100.72Z" fill="#CECECE"/>
<path d="M78.4903 37.3902L80.7203 31.1802C81.9503 27.7602 82.6103 24.6202 82.1803 24.2002C80.1403 22.1602 77.1403 26.1602 71.0303 39.1102C67.3603 46.8702 63.5703 54.1802 62.6103 55.3602C58.6603 60.1602 62.6203 49.6602 69.0903 38.1902C72.7303 31.7402 75.7003 25.5902 75.7003 24.5202C75.7003 23.4502 74.5203 21.5102 73.0903 20.2102C71.6503 18.9102 70.6003 17.2002 70.7603 16.4202C70.9103 15.6302 70.1403 14.7902 69.0403 14.5502C67.7203 14.2602 63.9303 19.1802 57.8303 29.1402C49.9203 42.0502 45.8303 46.9102 28.8303 63.5602C15.5703 76.5302 9.03027 83.8702 9.03027 85.7802C9.03027 89.0402 17.7103 96.8202 21.3303 96.8202C23.1803 96.8202 23.6903 97.9302 23.6903 101.9C23.6903 111.55 24.2503 111.77 53.1803 113.53C96.6903 116.17 94.3303 116.33 100.23 110.3C105.19 105.22 105.27 105 103.57 100.3C102.22 96.5602 102.19 95.1402 103.43 93.9002C104.67 92.6602 105.39 92.6502 106.63 93.9002C107.51 94.7802 109.23 95.5002 110.45 95.5002C113.88 95.5002 119.7 90.2902 119.7 87.2302C119.7 84.4902 100.66 60.8002 86.1203 45.4602L78.4903 37.4102V37.3902ZM76.6903 87.8302C57.0303 87.2602 50.5303 87.5402 42.7703 89.3002C31.8403 91.7902 29.2503 92.0102 31.1003 90.3202C31.8003 89.6802 39.5703 83.0602 48.3703 75.6102C57.1703 68.1602 65.6403 60.3102 67.1803 58.1802L69.9903 54.3102L84.5903 69.9002C92.6203 78.4702 99.6003 86.1702 100.1 87.0102C100.78 88.1402 94.7503 88.3502 76.6903 87.8302Z" fill="#959595"/>
<path d="M77.9703 36.8L80.3903 31.43C82.1503 27.54 82.4103 25.66 81.3503 24.6C80.2903 23.54 77.4603 27.99 71.0603 40.75C63.6303 55.58 61.9303 58.11 60.2903 56.75C58.6003 55.35 58.6803 54.59 60.8403 50.97C62.2103 48.68 66.0603 41.69 69.3903 35.45C74.9103 25.11 75.2803 23.86 73.5103 21.45C71.6003 18.84 71.5303 18.85 68.8403 22.14C66.2403 25.31 66.2403 25.24 68.9503 20.58C70.7503 17.48 71.2903 15.37 70.4203 14.83C68.1603 13.43 66.9603 14.87 57.8303 29.82C50.5503 41.75 45.7703 47.46 29.0703 64.12C18.0503 75.13 9.03027 85.17 9.03027 86.46C9.03027 88.93 18.8303 96.82 21.9003 96.82C23.0603 96.82 23.7003 98.43 23.7003 101.34C23.7003 103.83 24.7903 107.21 26.1203 108.85C28.4003 111.67 30.1603 111.94 55.7903 113.47C98.3703 116.01 94.3603 116.3 100.35 110.17L105.54 104.85L103.36 100.27C101.43 96.23 101.41 95.5 103.16 94.04C104.66 92.79 105.52 92.77 106.69 93.94C107.54 94.79 109.2 95.48 110.38 95.48C112.9 95.48 119.7 88.78 119.7 86.29C119.7 84.57 96.8003 56.91 84.5303 43.81L77.9703 36.8ZM76.4803 51.37C78.3803 53.62 79.7303 56.06 79.4803 56.78C79.2303 57.5 77.6803 56.12 76.0303 53.7C71.9603 47.75 72.2303 46.33 76.4803 51.37ZM58.9903 37.48C61.0403 33.81 63.3403 30.21 64.1003 29.48C64.8603 28.75 63.8003 31.15 61.7503 34.81C59.7003 38.48 57.4003 42.08 56.6403 42.81C55.8803 43.54 56.9403 41.14 58.9903 37.48ZM49.6403 50.4C55.2703 44.43 56.0503 43.85 54.8803 46.48C54.4703 47.4 51.9403 49.91 49.2603 52.07L44.3803 55.99L49.6503 50.4H49.6403ZM51.7003 66.81C49.9803 68.64 48.2703 70.14 47.9003 70.14C47.5303 70.14 48.6403 68.64 50.3603 66.81C52.0803 64.98 53.7903 63.48 54.1603 63.48C54.5303 63.48 53.4203 64.98 51.7003 66.81ZM39.3703 76.64C41.4803 74.98 41.5303 75.03 39.8703 77.14C38.8603 78.42 37.8103 79.47 37.5403 79.47C36.4403 79.47 37.1503 78.38 39.3703 76.63V76.64ZM101.04 88.09C101.04 88.55 89.7903 88.54 76.0403 88.05C53.5303 87.25 50.0103 87.43 40.7103 89.85C35.0303 91.33 30.3803 92.13 30.3803 91.64C30.3803 91.15 38.7803 83.56 49.0503 74.78C59.3203 65.99 68.0603 57.76 68.4703 56.47C69.3803 53.65 71.1903 53.46 72.6403 56.03C73.2303 57.07 79.8603 64.52 87.3703 72.58C94.8803 80.64 101.04 87.62 101.04 88.09Z" fill="#6F6F6F"/>
<path d="M78.09 36.7804L80.3 31.2704C81.74 27.6704 82.05 25.3004 81.2 24.4504C80.35 23.6004 76.87 29.1804 71.18 40.5304C62.62 57.6004 62.23 58.1304 49.42 69.3004C42.24 75.5604 33.37 83.3904 29.71 86.7004C26.04 90.0104 22.57 92.7404 21.99 92.7704C21.41 92.8004 29.91 84.8704 40.87 75.1604C51.83 65.4504 60.21 57.1304 59.48 56.6804C58.4 56.0104 70.66 30.5104 74.47 25.4804C75.42 24.2404 72.96 19.4804 71.37 19.4804C70.98 19.4804 67.15 25.6304 62.85 33.1404C58.56 40.6504 54.09 47.7004 52.93 48.8104C44.32 56.9404 29.82 70.4404 23.62 76.0704C19.54 79.7804 24.51 74.7104 34.66 64.8104C50.77 49.1004 54.29 44.8604 62.31 31.4804C67.36 23.0504 71 15.6304 70.38 15.0004C68.55 13.1204 67.17 14.7504 59 28.4304C52.64 39.0904 47.31 45.4304 29.98 63.0104C12.95 80.2804 8.92997 85.0504 9.60997 87.1904C10.66 90.4904 20.37 97.3904 22.29 96.2004C23.19 95.6404 23.7 97.2304 23.7 100.59C23.7 103.64 24.68 107.05 26.03 108.69C28.18 111.3 30.37 111.63 53.7 112.88C67.63 113.63 80.53 114.43 82.37 114.66C93.27 116.05 95.04 115.61 100.35 110.17L105.54 104.85L103.29 100.12C102.05 97.5204 101.04 95.1804 101.04 94.9104C101.04 93.4104 105.55 93.1004 108.41 94.4104C111.35 95.7504 112.23 95.4704 115.73 92.1204C117.92 90.0304 119.7 87.5904 119.7 86.7204C119.7 85.1204 102.98 64.7104 86.72 46.4604L78.09 36.7704V36.7804ZM80.7 45.4204C83.82 48.3204 86.37 50.8704 86.37 51.0904C86.37 52.1004 85.21 51.0904 80.31 45.8204L75.04 40.1504L80.71 45.4204H80.7ZM73.28 48.7504C73.51 48.0504 75.35 49.5504 77.37 52.0704C79.39 54.5904 80.53 56.9704 79.92 57.3504C78.57 58.1804 72.69 50.5504 73.29 48.7504H73.28ZM76.3 88.3404C57.07 87.6504 49.87 87.8604 43.97 89.3204C27.21 93.4704 27.53 93.5904 35.71 86.1804C39.74 82.5304 48.23 75.1704 54.56 69.8404C60.9 64.5104 66.75 58.7504 67.58 57.0404C68.41 55.3304 69.59 54.1304 70.21 54.3704C71.88 55.0204 101.04 87.0204 101.04 88.2104C101.04 88.7704 89.91 88.8204 76.3 88.3304V88.3404Z" fill="#4D4D4D"/>
<path d="M91.71 52.3497C78.69 37.1797 78.21 36.3997 79.7 32.8097C80.55 30.7497 81.05 27.7597 80.81 26.1597C80.5 24.1097 77.8 28.2897 71.7 40.2397L63.03 57.2297L45.7 72.6097C36.17 81.0697 26.64 89.5297 24.52 91.3997C22.41 93.2797 20.91 94.1197 21.19 93.2797C21.47 92.4397 30.22 84.1697 40.64 74.8997C52.13 64.6897 59.31 57.3597 58.9 56.2797C58.53 55.2997 61.85 47.8497 66.29 39.7097C70.73 31.5697 74.36 24.4097 74.36 23.7897C74.36 23.1697 73.64 21.9497 72.76 21.0697C71.52 19.8297 69.35 22.5797 63.01 33.4297C55.67 45.9997 52.95 49.1897 35.61 65.4197C25.02 75.3297 15.95 83.4497 15.46 83.4597C14.46 83.4697 42.03 56.3897 48.48 51.0197C52.34 47.8097 70.36 18.5797 70.36 15.5297C70.36 11.6797 67.09 15.5597 58.33 29.8097C49.9 43.5197 46.21 47.8997 28.83 64.8097C17.91 75.4497 8.98003 84.8997 9.00003 85.8097C9.05003 88.3697 16.82 94.7397 20.8 95.4897C23.98 96.0897 24.41 96.8297 24.77 102.38C24.99 105.8 25.91 109.21 26.81 109.96C27.71 110.71 41.33 112 57.07 112.83C72.82 113.66 86.3 114.55 87.03 114.81C91.2 116.27 94.99 115.02 99.77 110.59C103.8 106.86 104.86 105.03 104.22 102.92C102.5 97.2997 101.02 96.6497 96.81 99.6397C94.65 101.18 92.63 102.18 92.31 101.87C91.99 101.56 94.52 99.3397 97.93 96.9397C103.36 93.1097 104.53 92.7697 107.48 94.1097C110.27 95.3797 111.42 95.2197 114.17 93.1597C120.88 88.1497 120.78 87.0997 112.73 77.2697C108.62 72.2497 99.16 61.0397 91.71 52.3497ZM98.7 79.4097C101.45 81.9397 103.7 84.1897 103.7 84.4097C103.7 85.4297 102.57 84.4697 98.29 79.8197L93.7 74.8197L98.7 79.4097ZM84.9 49.1497C88.85 53.3697 91.85 56.7997 91.56 56.7697C90.55 56.6897 83.79 50.3397 79.43 45.3697C72.65 37.6497 76.82 40.5197 84.9 49.1397V49.1497ZM72.4 47.6897C73.58 46.5297 81.03 55.4797 81.03 58.0497C81.03 59.1497 83.84 62.9097 87.28 66.3997C90.72 69.8897 93.27 72.9897 92.95 73.2797C91.35 74.7197 70.85 49.1997 72.4 47.6897ZM76.83 88.6897C55.92 88.0097 50.82 88.2497 41.7 90.3497C35.83 91.6997 30.58 92.7997 30.03 92.8097C27.52 92.8297 30 90.1497 40.51 81.4897C54.72 69.7697 68.49 56.7697 69.47 54.1597C70.09 52.4997 70.48 52.5897 71.79 54.6797C72.66 56.0697 79.86 64.1397 87.78 72.6097C95.71 81.0897 101.99 88.3497 101.74 88.7597C101.49 89.1597 90.28 89.1397 76.83 88.6997V88.6897ZM105.57 88.4797L103.03 85.4797L106.03 88.0197C107.68 89.4197 109.03 90.7697 109.03 91.0197C109.03 92.0897 107.96 91.2997 105.57 88.4797Z" fill="#2B2B2B"/>
<path d="M84.0802 44.6597L76.7902 37.1597L78.9902 32.8997C80.2002 30.5597 80.9702 27.6297 80.7002 26.3997C80.4202 25.1197 76.4002 31.6297 71.3702 41.4897C62.8402 58.2297 62.1202 59.1897 50.2502 69.4897C43.4902 75.3597 34.9802 82.8597 31.3402 86.1597C24.0402 92.7697 21.1602 94.7297 20.1902 93.7597C19.6002 93.1697 30.7302 82.8797 51.4002 64.9097C56.2202 60.7197 59.1302 57.2897 58.3002 56.7797C57.4002 56.2197 60.1402 49.8897 65.6902 39.6797C73.7302 24.8997 75.0302 20.8097 71.6902 20.8097C71.0402 20.8097 67.1102 26.8097 62.9602 34.1497C57.5502 43.7097 52.9102 49.8497 46.5802 55.8197C41.7202 60.3997 32.8302 68.8597 26.8202 74.6197C20.8102 80.3797 15.1902 84.8597 14.3402 84.5797C13.4902 84.2997 21.7002 75.6797 32.5802 65.4397C50.5602 48.5097 53.1902 45.4297 61.4502 31.6297C66.4502 23.2797 70.0402 15.9497 69.4302 15.3497C68.8202 14.7497 64.1802 21.1197 59.1002 29.5097C51.0702 42.7897 47.2302 47.3797 29.4802 64.9397C12.2902 81.9597 9.30019 85.4997 10.4002 87.5397C12.2502 90.9897 18.9502 95.4797 22.2402 95.4797C24.6402 95.4797 25.0402 96.2897 25.0502 101.15C25.0902 110.92 24.0702 110.58 59.9802 112.95C77.7902 114.13 92.6902 115.18 93.0902 115.29C93.4902 115.4 96.4902 112.65 99.7602 109.19C104.8 103.85 103.38 104.21 97.3202 109.82C96.3302 110.74 93.0102 111.49 89.9502 111.5C80.2202 111.53 33.0202 108.4 33.6502 107.77C33.9802 107.44 47.4302 107.92 63.5302 108.84L92.8002 110.51L98.1102 106.05C101.03 103.6 103.12 100.82 102.76 99.8697C101.8 97.3697 99.1502 97.7597 96.3802 100.81C93.8602 103.6 89.5502 104.57 91.1402 101.99C91.6402 101.17 91.2302 99.9197 90.2202 99.1997C88.8302 98.2097 88.9802 98.0797 90.8402 98.6897C92.3802 99.1897 95.5102 97.9997 99.2202 95.4997C104.16 92.1597 105.55 91.7697 107.66 93.0797C110.78 95.0297 116.17 92.9297 118.32 88.9297C119.57 86.5997 117.91 84.0397 105.57 69.1997C97.7702 59.8197 88.1102 48.7697 84.1002 44.6497L84.0802 44.6597ZM31.7002 96.6097C29.8702 96.6097 29.1202 96.3097 30.0302 95.9397C30.9502 95.5697 32.4502 95.5697 33.3602 95.9397C34.2702 96.3097 33.5302 96.6097 31.6902 96.6097H31.7002ZM58.3702 97.7897C55.0702 97.7897 53.7202 97.5297 55.3702 97.2097C57.0202 96.8897 59.7202 96.8897 61.3702 97.2097C63.0202 97.5297 61.6702 97.7897 58.3702 97.7897ZM99.6702 91.5597C96.9102 93.6797 94.0502 94.0997 82.2602 94.1197C74.5002 94.1397 67.8802 93.8797 67.5502 93.5497C67.2202 93.2197 58.4202 92.7997 47.9902 92.6197C37.5702 92.4397 29.0402 91.9597 29.0502 91.5497C29.0502 91.1397 37.2102 83.9097 47.1602 75.4797C57.1102 67.0497 66.1202 58.4997 67.1802 56.4797C68.2402 54.4597 69.5402 52.8597 70.0702 52.9097C70.6002 52.9597 75.2402 57.7797 80.3702 63.6197C85.5002 69.4597 92.6902 77.5597 96.3302 81.6197L102.96 89.0097L99.6602 91.5397L99.6702 91.5597ZM100.95 83.7597C78.9102 60.4797 71.1902 50.7697 72.3402 47.7797C73.0502 45.9397 74.0002 46.4897 77.6602 50.8497C80.1102 53.7697 81.8302 56.6297 81.4702 57.2097C81.1102 57.7897 84.9202 62.7897 89.9302 68.3197C94.9402 73.8497 101.94 81.6297 105.49 85.5997C114.75 95.9797 111.13 94.5097 100.95 83.7597ZM102.84 71.8197C97.8302 66.1397 89.8202 57.3997 85.0502 52.4097C75.9202 42.8597 71.8302 35.4697 79.7402 42.8197C85.1302 47.8197 110.18 76.6697 111.88 79.8197C114.22 84.1697 111.97 82.1797 102.84 71.8197Z" fill="#030303"/>
</g>
<defs>
<linearGradient id="paint0_linear_264_2626" x1="64" y1="0" x2="64" y2="128" gradientUnits="userSpaceOnUse">
<stop stop-color="white"/>
<stop offset="1" stop-color="#EEEEEE"/>
</linearGradient>
<clipPath id="clip0_264_2626">
<rect width="110.7" height="102.66" fill="white" transform="translate(9 13)"/>
</clipPath>
</defs>
</svg>
