<svg width="128" height="128" viewBox="0 0 128 128" fill="none" xmlns="http://www.w3.org/2000/svg">
<rect width="128" height="128" rx="24" fill="url(#paint0_linear_183_968)"/>
<g clip-path="url(#clip0_183_968)">
<path d="M7.37231 65.9321H16.9897L30.5549 88.353H30.6389V66.586H26.8891V65.9321H35.0426V66.586H31.2929V99.4707H30.189L11.8539 69.2743H11.776V98.8103H15.5199V99.4707H7.37231V98.8103H11.122V66.586H7.37231V65.9321Z" fill="black"/>
<path d="M34.4305 65.9321H58.7955V73.9895H58.2675C57.6975 71.9137 55.9456 66.5918 50.5638 66.5918H44.0841V81.147H46.364C50.3537 81.147 51.7397 78.3699 52.5136 74.1279H53.0477V88.779H52.5136C51.7819 85.1072 50.5638 81.8073 46.814 81.8073H44.0841V98.8103H50.7679C55.7774 98.8103 58.8373 94.6169 59.9354 89.1511H60.4633V99.4707H34.4246V98.8103H38.1744V66.586H34.4305V65.9321Z" fill="black"/>
<path d="M58.5916 65.9321H71.1009V66.586H68.1251L75.4571 91.4126H75.5404L79.8187 77.3736L76.6447 66.586H74.4429V65.9321H86.6222V66.586H82.8362L90.2103 91.4607H90.2939L97.8294 66.586H94.3256V65.9321H101.825V66.586H98.5256L88.0501 100.79H86.8682L80.1843 78.4595H80.1005L73.2611 100.79H72.0788L61.9696 66.586H58.5916V65.9321Z" fill="black"/>
<path d="M41.63 44.2793C41.63 53.8549 34.0406 61.6363 24.3331 61.6363C14.6736 61.6363 7 53.8487 7 44.2793C7 34.7877 14.6795 27 24.3332 27C34.0406 27 41.63 34.7877 41.63 44.2793ZM8.2239 44.2793C10.6719 49.361 16.4076 54.3106 24.3332 54.3106C32.2227 54.3106 38.0005 49.3551 40.4483 44.2793C38.0004 39.2816 32.2227 34.3256 24.3332 34.3256C16.4076 34.3256 10.6719 39.2816 8.2239 44.2793ZM33.1467 44.2732C33.1467 49.1388 29.2167 53.0146 24.3331 53.0146C19.4431 53.0146 15.4774 49.1388 15.4774 44.2732C15.4774 39.4854 19.4431 35.5736 24.3331 35.5736C29.2168 35.5736 33.1467 39.4854 33.1467 44.2732Z" fill="black"/>
<path d="M24.3393 61.5704C14.8178 61.5704 7.07227 53.8127 7.07227 44.2793C7.07227 34.7877 14.8177 27.0659 24.3393 27.0659C33.837 27.0659 41.5705 34.7876 41.5705 44.2793C41.5643 53.9747 33.9988 61.5704 24.3393 61.5704ZM24.3393 34.2598C16.0118 34.2598 10.426 39.6414 8.17032 44.2493C10.4082 48.9532 15.9878 54.3766 24.3393 54.3766C32.697 54.3766 38.2767 48.9531 40.5145 44.3092C38.2587 39.6414 32.6669 34.2598 24.3393 34.2598ZM24.3335 52.9487C19.4857 52.9487 15.5436 49.055 15.5436 44.2732C15.5436 39.5094 19.4856 35.6396 24.3335 35.6396C29.1571 35.6396 33.0868 39.5154 33.0868 44.2732C33.0807 49.0552 29.1571 52.9487 24.3335 52.9487Z" fill="black"/>
<path d="M57.8357 27.45C55.0459 27.45 51.5359 29.304 48.8962 32.1776C46.5921 34.6916 43.8445 39.0893 43.8445 45.7731C43.8445 54.4187 50.9119 61.1203 56.9896 61.1203C59.4376 61.1203 60.8836 60.4661 62.1555 59.8843L62.1855 59.8723C63.1814 59.4224 64.0454 59.0325 65.2154 59.0325C66.2057 59.0325 67.1413 59.5903 67.7114 60.5204L67.9633 60.9344V47.705H67.5972L67.5731 47.8248C66.7693 52.9126 63.4273 60.4901 57.5179 60.4901C51.662 60.4901 50.462 54.7485 50.462 46.1331C50.462 37.7273 51.3441 28.0739 58.2077 28.0739C64.3213 28.0739 66.9368 37.0913 67.5971 39.8512L67.621 39.9531H67.9808V27.906L67.7348 28.2657C67.1412 29.1238 66.301 29.2979 65.1434 29.2979C64.3693 29.2979 63.5533 28.9739 62.6175 28.6018L62.5754 28.5839C61.2615 28.0561 59.7795 27.45 57.8357 27.45Z" fill="black"/>
<path d="M89.3938 43.1213C91.3677 42.5694 96.0351 41.0152 96.0351 35.9755C96.0351 33.5039 94.8176 31.4219 92.5255 29.9579C90.4256 28.608 87.492 27.8701 84.27 27.8701H69.3728V28.5181H74.5506V60.0584H69.3728V60.7123H84.9895C92.3392 60.7123 97.2772 56.8546 97.2772 51.1189C97.2772 47.1831 94.6974 44.567 89.3938 43.1213ZM85.4336 42.791H81.1799V28.5178H82.4643C88.2179 28.5178 90.012 29.5916 90.012 35.3755C90.012 41.5733 88.47 42.7072 85.4396 42.7072M81.1799 43.4391H84.7141C87.8997 43.4391 91.0139 44.141 91.0139 51.3949C91.0139 58.6844 89.0218 60.0525 84.5518 60.0525H81.1799V43.4391Z" fill="black"/>
<path d="M102.677 59.1763C103.727 59.1763 104.633 59.5244 105.682 59.9263L105.773 59.9622C107.182 60.5084 108.767 61.1204 111.148 61.1204C115.612 61.1204 121 56.2605 121 50.231C121 43.901 116.272 42.3293 111.7 40.8055C107.728 39.4795 103.985 38.2316 103.985 33.8516C103.985 32.1176 104.507 28.0801 109.313 28.0801C115.234 28.0801 118.042 37.4334 118.042 39.7434V39.8815H118.426L118.438 27.594L118.185 27.9239C117.478 28.8658 116.062 28.9378 115.642 28.9378C115.6 28.9378 115.564 28.9378 115.534 28.9378H115.492C114.958 28.9378 114.112 28.6499 113.434 28.3979C112.306 27.9778 110.903 27.4561 109.313 27.4561C103.799 27.4561 100.385 32.9636 100.385 38.0695C100.385 44.2909 105.082 45.983 109.63 47.6209C113.482 49.0008 117.124 50.3029 117.124 54.4125C117.124 58.5882 113.98 60.4603 110.861 60.4603C103.259 60.4603 100.481 48.845 100.481 47.8667V47.795H100.103V60.6105L100.343 60.3286C101.231 59.2605 101.897 59.1763 102.677 59.1763Z" fill="black"/>
<path d="M102.521 98.0727C103.583 98.0727 104.495 98.4323 105.551 98.8401L105.641 98.8765C107.063 99.4343 108.659 100.071 111.065 100.071C115.565 100.071 121 95.0786 121 88.8808C121 82.3774 116.23 80.7573 111.617 79.1971C107.615 77.8355 103.835 76.5517 103.835 72.0519C103.835 70.2702 104.357 66.1185 109.205 66.1185C115.18 66.1185 118.012 75.7297 118.012 78.0991V78.2433H118.396L118.408 65.6204L118.157 65.9561C117.442 66.9223 116.014 66.9996 115.588 66.9996C115.54 66.9996 115.505 66.9996 115.48 66.9996H115.432C114.893 66.9996 114.041 66.706 113.357 66.4418C112.217 66.0099 110.807 65.4761 109.199 65.4761C103.637 65.4761 100.193 71.1336 100.193 76.3776C100.193 82.7675 104.933 84.507 109.517 86.1869C113.405 87.603 117.07 88.9464 117.07 93.1644C117.07 97.4544 113.896 99.3802 110.759 99.3802C103.091 99.3802 100.289 87.4465 100.289 86.4446V86.373H99.9055V99.5361L100.145 99.242C101.058 98.1623 101.735 98.0727 102.521 98.0727Z" fill="black"/>
</g>
<defs>
<linearGradient id="paint0_linear_183_968" x1="64" y1="0" x2="64" y2="128" gradientUnits="userSpaceOnUse">
<stop stop-color="white"/>
<stop offset="1" stop-color="#EEEEEE"/>
</linearGradient>
<clipPath id="clip0_183_968">
<rect width="114" height="73.79" fill="white" transform="translate(7 27)"/>
</clipPath>
</defs>
</svg>
