<svg width="128" height="128" viewBox="0 0 128 128" fill="none" xmlns="http://www.w3.org/2000/svg">
<g clip-path="url(#clip0_183_1012)">
<rect width="128" height="128" rx="24" fill="url(#paint0_linear_183_1012)"/>
<path fill-rule="evenodd" clip-rule="evenodd" d="M69.843 82.4024C67.2631 85.0146 64.0301 86.3208 60.1443 86.3208C56.322 86.3208 53.1529 85.0466 50.6365 82.498C48.1202 79.9494 46.8621 76.6681 46.8621 72.6541C46.8621 68.8311 48.1521 65.6612 50.732 63.1445C53.3121 60.6278 56.4813 59.3695 60.2398 59.3695C62.7879 59.3695 65.0972 59.9587 67.1675 61.1375C69.2379 62.3162 70.8464 63.9251 71.993 65.964C73.1397 68.0027 73.713 70.2327 73.713 72.6541C73.713 76.5405 72.423 79.79 69.843 82.4024ZM72.8529 28.6906V50.8634C70.6233 48.6334 68.2505 47.0246 65.7343 46.037C63.2179 45.0495 60.3991 44.5557 57.2776 44.5557C52.2449 44.5557 47.7221 45.798 43.7088 48.283C39.6954 50.7678 36.574 54.1606 34.3444 58.4614C32.1148 62.7622 31 67.525 31 72.7495C31 78.1015 32.0989 82.928 34.2967 87.2287C36.4944 91.5296 39.6158 94.9223 43.661 97.4072C47.7062 99.8922 52.3406 101.135 57.5642 101.135C65.1449 101.135 70.4322 98.6497 73.4265 93.68H73.6174V100.476H88.7151V25.25L72.8529 28.6906Z" fill="#232323"/>
</g>
<defs>
<linearGradient id="paint0_linear_183_1012" x1="64" y1="0" x2="64" y2="128" gradientUnits="userSpaceOnUse">
<stop stop-color="white"/>
<stop offset="1" stop-color="#EEEEEE"/>
</linearGradient>
<clipPath id="clip0_183_1012">
<rect width="128" height="128" fill="white"/>
</clipPath>
</defs>
</svg>
