<svg width="128" height="128" viewBox="0 0 128 128" fill="none" xmlns="http://www.w3.org/2000/svg">
<rect width="128" height="128" rx="24" fill="url(#paint0_linear_264_2194)"/>
<path d="M14.2097 34.6861C4.16254 49.1356 5.40513 67.9306 13.0879 83.3245C13.2654 83.6937 13.4606 84.0559 13.6488 84.418L14.0038 85.1103C14.0748 85.2452 14.1529 85.3766 14.2275 85.5079C14.3589 85.7564 14.4938 85.9836 14.6287 86.2251L15.3636 87.4818L15.7825 88.1706L16.6346 89.5019L16.9967 90.0629C17.3979 90.6593 17.8062 91.2558 18.2286 91.838L18.4701 92.1646C18.836 92.6676 19.21 93.1647 19.5919 93.6557L20.018 94.1954L21.0546 95.4735L21.4523 95.9492C21.9244 96.5066 22.4108 97.0604 22.8972 97.6001C22.9469 97.6533 22.9682 97.6711 22.9824 97.6924C23.4647 98.2155 23.9547 98.7316 24.4522 99.2403L24.9244 99.716L26.096 100.866L26.5753 101.328C27.1025 101.825 27.6387 102.313 28.1835 102.791L29.9445 104.282L30.548 104.764L31.7657 105.716L32.4154 106.213L33.7823 107.193L34.4213 107.644C34.858 107.945 35.3018 108.233 35.7491 108.521L36.3243 108.904C37.0095 109.339 37.7019 109.763 38.4012 110.175L38.9763 110.53L40.5384 111.403C40.8224 111.556 41.1136 111.702 41.4011 111.847L42.5159 112.426L42.7751 112.55L43.2366 112.77L45.0046 113.587L45.3774 113.754C46.0599 114.051 46.7476 114.336 47.4401 114.609L47.9371 114.808L49.8827 115.529L50.1312 115.614C50.8495 115.861 51.5715 116.098 52.2968 116.324L52.8223 116.48C53.5323 116.704 54.2992 116.977 55.0589 117.112C103.676 125.977 117.792 87.8937 117.792 87.8937C105.934 103.344 84.8811 107.42 64.8931 102.883C64.1369 102.712 63.402 102.478 62.6671 102.258L62.1133 102.091C61.3946 101.87 60.6797 101.637 59.9689 101.392L59.6743 101.285C59.0415 101.061 58.4119 100.828 57.7855 100.586L57.253 100.373C56.5668 100.103 55.8862 99.8187 55.2116 99.5208L54.8033 99.3432L53.0814 98.5409L52.5844 98.303C52.1371 98.09 51.6968 97.8521 51.2531 97.593L50.3655 97.1314C49.8259 96.8474 49.3004 96.5421 48.7679 96.2368L48.2283 95.935C47.5293 95.5223 46.8369 95.0986 46.1514 94.664C45.9632 94.5433 45.7786 94.4155 45.5904 94.2912L44.1135 93.3078C43.9502 93.2013 43.7585 93.0806 43.6378 92.9741L42.239 91.9623L41.6177 91.4936L40.3573 90.5067L39.7964 90.0558L38.2272 88.7315C38.1701 88.6816 38.1109 88.6342 38.0497 88.5895L36.3988 87.0878L35.9373 86.6404L34.7586 85.4689L34.2971 85.0073C33.8 84.4996 33.3172 83.9884 32.877 83.4665C32.8521 83.4417 32.8273 83.4168 32.806 83.3884C32.3033 82.8367 31.8109 82.2756 31.3291 81.7056L30.974 81.2441L29.909 79.9305L29.5539 79.4441L28.3255 77.811C17.1849 62.7153 13.2015 41.8469 22.0558 24.7347M45.4165 22.5158C38.1455 32.9784 38.5396 47.0125 44.2094 58.0467C45.1594 59.9064 46.2341 61.6998 47.4259 63.4147C48.5158 64.9768 49.7229 66.8336 51.1679 68.0868C51.6933 68.6655 52.24 69.2229 52.801 69.7803L53.227 70.2063C53.7696 70.7355 54.3248 71.2516 54.8921 71.7542C54.9169 71.772 54.9347 71.7968 54.9631 71.8146C55.6092 72.3826 56.2625 72.8797 56.9264 73.4406L57.3666 73.785C58.0327 74.2987 58.7122 74.7947 59.4044 75.2725L59.4648 75.3151C59.7701 75.5282 60.0825 75.7234 60.395 75.9293C60.5441 76.0252 60.6861 76.1281 60.8352 76.2205C61.3315 76.5389 61.8346 76.8466 62.3441 77.1435L62.5571 77.2678L63.892 77.9778C64.0482 78.0666 64.247 78.1411 64.3677 78.2263L65.3014 78.7092C65.3476 78.734 65.3973 78.7518 65.4434 78.7731C66.0838 79.092 66.7326 79.3939 67.389 79.6784L67.815 79.8559C68.3438 80.0804 68.8764 80.2958 69.4126 80.5021L70.0943 80.7506C70.5804 80.9273 71.0692 81.0965 71.5605 81.2583L72.2244 81.4713C72.9238 81.6843 73.6445 81.9683 74.3439 82.0855C111.881 88.3055 120.547 59.3639 120.547 59.3639C112.736 70.6182 97.6122 75.979 81.4657 71.7897C80.7521 71.602 80.043 71.3972 79.3391 71.1755C79.1261 71.1116 78.9131 71.0406 78.7001 70.9696L77.209 70.4584L76.4989 70.2099C75.9629 70.0031 75.4303 69.7877 74.9013 69.5637L74.4682 69.3862C73.8077 69.0991 73.1543 68.7961 72.5084 68.4774L71.525 67.9803L70.957 67.6892C70.5392 67.4624 70.125 67.2292 69.7144 66.9898L69.4162 66.8229C68.9082 66.5254 68.4064 66.2176 67.9109 65.8999C67.7582 65.804 67.6091 65.6975 67.4564 65.5981L66.4801 64.952C65.7925 64.4754 65.1177 63.9805 64.4565 63.468L63.9949 63.1129C56.8944 57.5319 51.3276 49.906 48.6649 41.2647C45.8744 32.3003 46.4744 22.2353 51.3099 14.0698M71.6599 13.4201C67.3783 19.7573 66.9523 27.5607 69.9274 34.5263C73.0623 41.9215 79.4882 47.719 86.9899 50.5024L87.9201 50.8575L88.3319 50.9853L89.6703 51.3403C110.397 55.345 116.013 40.7037 117.515 38.5487C112.591 45.6386 104.315 47.3392 94.1614 44.8753C93.359 44.68 92.4786 44.3889 91.7046 44.1155C90.7113 43.7635 89.7372 43.3594 88.7863 42.9049C86.9817 42.037 85.268 40.9916 83.6704 39.7842C74.5853 32.8932 68.9404 19.7076 74.8693 9" fill="#0868AC"/>
<defs>
<linearGradient id="paint0_linear_264_2194" x1="64" y1="0" x2="64" y2="128" gradientUnits="userSpaceOnUse">
<stop stop-color="white"/>
<stop offset="1" stop-color="#EEEEEE"/>
</linearGradient>
</defs>
</svg>
