<svg width="128" height="128" viewBox="0 0 128 128" fill="none" xmlns="http://www.w3.org/2000/svg">
<path d="M0 24C0 10.7452 10.7452 0 24 0H104C117.255 0 128 10.7452 128 24V104C128 117.255 117.255 128 104 128H24C10.7452 128 0 117.255 0 104V24Z" fill="#005EB8"/>
<g clip-path="url(#clip0_264_1734)">
<path d="M122.763 40.2363H4.23682V87.7642H122.763V40.2363Z" fill="white"/>
<path d="M122.763 87.7642V40.2363H4.23682V87.7642H122.763ZM51.8879 44.8208L43.706 83.075H30.8675L22.7974 56.6029H22.6856L17.3187 83.075H7.57798L15.8257 44.8208H28.7102L36.6224 71.3518H36.7343L42.1538 44.8208H51.8879ZM88.6144 44.8208L80.5904 83.075H70.2512L73.6844 66.6887H61.451L58.0243 83.075H47.6851L55.7092 44.8208H66.0484L63.0098 59.4584H75.23L78.2752 44.8208H88.6144ZM118.323 45.8621L115.83 53.4789C113.838 52.5555 111.128 51.7303 107.313 51.7303C103.222 51.7303 99.9007 52.3262 99.9007 55.4044C99.9007 60.8272 114.89 58.8034 114.89 70.4218C114.89 80.9923 104.985 83.7364 96.0268 83.7364C92.0477 83.7364 87.4503 82.7999 84.0828 81.7586L86.5163 73.9781C88.5552 75.2945 92.6593 76.1721 96.0268 76.1721C99.2364 76.1721 104.268 75.5695 104.268 71.6203C104.268 65.4837 89.2787 67.7825 89.2787 56.9959C89.2787 47.1261 98.0197 44.1659 106.484 44.1659C111.246 44.1659 115.719 44.6636 118.323 45.8621Z" fill="#005EB8"/>
</g>
<defs>
<clipPath id="clip0_264_1734">
<rect width="119" height="48" fill="white" transform="translate(4 40)"/>
</clipPath>
</defs>
</svg>
