<svg width="128" height="128" viewBox="0 0 128 128" fill="none" xmlns="http://www.w3.org/2000/svg">
<path d="M0 24C0 10.7452 10.7452 0 24 0H104C117.255 0 128 10.7452 128 24V104C128 117.255 117.255 128 104 128H24C10.7452 128 0 117.255 0 104V24Z" fill="#010334"/>
<path d="M102.518 17H79.7061V72.2408C79.7061 76.4725 78.0251 80.5309 75.0328 83.5232C72.0406 86.5154 67.9822 88.1964 63.7505 88.1964C59.5188 88.1964 55.4605 86.5154 52.4682 83.5232C49.476 80.5309 47.7949 76.4725 47.7949 72.2408H25C25 82.5204 29.0835 92.379 36.3523 99.6477C43.621 106.916 53.4796 111 63.7592 111C74.0387 111 83.8973 106.916 91.166 99.6477C98.4348 92.379 102.518 82.5204 102.518 72.2408V17Z" fill="white"/>
</svg>
