<svg width="128" height="128" viewBox="0 0 128 128" fill="none" xmlns="http://www.w3.org/2000/svg">
<rect width="128" height="128" rx="24" fill="#26509E"/>
<path d="M63.9643 19C53.3997 19 43.6919 22.6551 36.0192 28.7591H91.9094C84.2368 22.6551 74.5289 19 63.9643 19ZM33.4871 30.9219C31.0229 33.1983 28.8131 35.7463 26.9072 38.5183H101.019C99.1129 35.7463 96.9058 33.1983 94.4415 30.9219H33.4871ZM25.5035 40.6785C24.0497 43.0731 22.8214 45.6167 21.8302 48.2774H30.8251C28.0583 40.9161 26.1913 40.6887 26.1913 40.6887C26.1953 40.686 26.2005 40.6834 26.2092 40.6782L25.5035 40.6785ZM39.9703 40.6811C42.351 42.4845 44.1928 45.2411 45.6535 48.2775H57.0787V40.6811H39.9703ZM70.4679 40.6811V48.2775H81.7733L85.1944 40.6811H70.4679ZM101.709 40.6811L98.2881 48.2775H106.104C105.112 45.6185 103.881 43.0758 102.428 40.6811H101.709ZM21.0812 50.4402C20.3091 52.8888 19.7511 55.428 19.405 58.0366H34.1902C33.752 56.9827 33.353 55.9189 32.9878 54.8651C32.9128 54.6422 32.8386 54.4347 32.7637 54.2206C32.3599 52.8172 31.9692 51.5671 31.5918 50.4402H21.0812ZM46.6165 50.4402C47.0478 51.4802 47.4385 52.5318 47.7985 53.5735C47.8769 53.7944 47.9503 54.003 48.0252 54.2206H48.0278C48.4365 55.6379 48.8323 56.9018 49.2149 58.0391H57.0788V50.4402H46.6165ZM70.4704 50.4402V58.0366H77.379L80.8002 50.4402H70.4704ZM97.315 50.4402L93.8939 58.0366H108.526C108.18 55.428 107.62 52.8888 106.85 50.4402H97.315ZM19.1732 60.1993C19.0672 61.4532 19 62.7158 19 63.9975C19 65.2792 19.0673 66.5444 19.1732 67.7983H40.8695C38.4749 66.0019 36.6252 63.2409 35.1557 60.1993H19.1732ZM49.9816 60.1993C52.7397 67.5189 54.6026 67.7499 54.6026 67.7499C54.568 67.7646 54.5388 67.7786 54.5058 67.7983H57.0762V60.1993H49.9816ZM70.4704 60.1993V67.7983H72.9847L76.4059 60.1993H70.4704ZM92.9207 60.1993L89.4996 67.7983H108.758C108.862 66.5462 108.929 65.2792 108.929 63.9975C108.929 62.7158 108.863 61.4532 108.758 60.1993H92.9207ZM19.405 69.9609C19.7511 72.5677 20.3108 75.1087 21.0812 77.5573H57.0787V69.9609H19.405ZM70.4704 69.9609V77.5573H106.85C107.622 75.1088 108.179 72.5695 108.524 69.9609H70.4704ZM21.8276 79.7201C22.8189 82.3791 24.0472 84.9243 25.501 87.319H57.0761V79.7201H21.8276ZM70.4704 79.7201V87.3164H102.428C103.88 84.9218 105.112 82.3791 106.104 79.7201H70.4704ZM26.9072 89.4792C28.8149 92.253 31.0229 94.8 33.4871 97.0781H57.0787V89.4792H26.9072ZM70.4679 89.4792V97.0781H94.4415C96.9058 94.8 99.1138 92.253 101.021 89.4792H70.4679ZM36.0192 99.2358C43.6936 105.341 53.3997 109 63.9643 109C74.5289 109 84.2376 105.341 91.912 99.2358H36.0192Z" fill="white"/>
</svg>
