<svg width="132" height="132" viewBox="0 0 132 132" fill="none" xmlns="http://www.w3.org/2000/svg">
<path d="M130 107.601C130 120 120 130 107.6 130H24.4C12 130 2 120 2 107.601V24.3993C2 11.9997 12 2 24.4 2H107.6C120 2 130 11.9997 130 24.3993V107.601Z" stroke="white" stroke-width="4"/>
<path d="M130 107.601C130 120 120 130 107.6 130H24.4C12 130 2 120 2 107.601V24.3993C2 11.9997 12 2 24.4 2H107.6C120 2 130 11.9997 130 24.3993V107.601Z" fill="#0166FF"/>
<path d="M74 33.999H58V97.997H74V33.999Z" fill="white"/>
<path d="M98 57.9982H34V73.9977H98V57.9982Z" fill="white"/>
</svg>
