<svg width="128" height="128" viewBox="0 0 128 128" fill="none" xmlns="http://www.w3.org/2000/svg">
<path d="M106.293 62.4866L44.5024 0.667695C44.1829 0.348765 43.7762 0.131385 43.3335 0.0435867C42.8908 -0.0442116 42.4317 0.00127426 42.0149 0.174226C41.5982 0.347178 41.2422 0.639663 40.9915 1.01519C40.7408 1.39071 40.607 1.83287 40.607 2.28456V54.2632L21.8954 35.5474C21.5759 35.2279 21.1692 35.0111 20.7265 34.9233C20.2838 34.8355 19.8253 34.881 19.4085 35.0539C18.9912 35.2269 18.6352 35.5194 18.3845 35.8949C18.1338 36.2704 18 36.712 18 37.1643V90.8412C17.9984 92.5189 18.3279 94.1797 18.9695 95.7294C19.6116 97.2785 20.5525 98.686 21.7394 99.8707L46.0886 124.253C48.4834 126.649 51.7299 127.996 55.1159 128H72.9294C76.3144 127.998 79.5603 126.653 81.9541 124.258L106.298 99.876C107.482 98.6902 108.421 97.2822 109.062 95.7331C109.702 94.1834 110.031 92.5232 110.029 90.8465V71.524C110.031 69.8458 109.701 68.184 109.059 66.6333C108.418 65.0825 107.479 63.6735 106.293 62.4866Z" fill="#FA005A"/>
<path d="M87.4437 85.0958C87.4443 86.1087 87.0434 87.0813 86.3288 87.7991L66.7012 107.527C66.3457 107.885 65.9226 108.17 65.4561 108.364C64.9907 108.558 64.4903 108.658 63.9858 108.658C63.4812 108.658 62.9808 108.558 62.5154 108.364C62.0489 108.17 61.6258 107.885 61.2698 107.527L41.7056 87.7991C40.9906 87.0845 40.5875 86.115 40.5859 85.1038V77.5981C40.5859 77.0951 40.6864 76.5974 40.879 76.133C41.0725 75.6686 41.355 75.2471 41.7114 74.8922L48.7549 67.843C49.1103 67.4859 49.5324 67.2035 49.9978 67.0105C50.4627 66.8174 50.9604 66.718 51.4639 66.718C51.9674 66.718 52.4657 66.8174 52.9306 67.0105C53.3955 67.2035 53.8176 67.4859 54.1735 67.843L64.0238 77.7044L73.8594 67.8403C74.2148 67.4833 74.6368 67.2009 75.1018 67.0078C75.5667 66.8148 76.0649 66.7153 76.5684 66.7153C77.0714 66.7153 77.5696 66.8148 78.0345 67.0078C78.4994 67.2009 78.9215 67.4833 79.2769 67.8403L86.3209 74.8896C86.6768 75.2445 86.9593 75.6665 87.1518 76.1309C87.3443 76.5948 87.4437 77.093 87.4437 77.5954V85.0958Z" fill="#FFC500"/>
</svg>
