<svg width="128" height="128" viewBox="0 0 128 128" fill="none" xmlns="http://www.w3.org/2000/svg">
<path d="M0 24C0 10.7452 10.7452 0 24 0H104C117.255 0 128 10.7452 128 24V104C128 117.255 117.255 128 104 128H24C10.7452 128 0 117.255 0 104V24Z" fill="url(#paint0_linear_183_1464)"/>
<g clip-path="url(#clip0_183_1464)">
<mask id="mask0_183_1464" style="mask-type:alpha" maskUnits="userSpaceOnUse" x="6" y="28" width="117" height="72">
<path fill-rule="evenodd" clip-rule="evenodd" d="M6 28.5117H122.048V100.001H6V28.5117Z" fill="white"/>
</mask>
<g mask="url(#mask0_183_1464)">
</g>
<mask id="mask1_183_1464" style="mask-type:alpha" maskUnits="userSpaceOnUse" x="6" y="28" width="117" height="72">
<path fill-rule="evenodd" clip-rule="evenodd" d="M6 28.5117H122.048V100.001H6V28.5117Z" fill="white"/>
</mask>
<g mask="url(#mask1_183_1464)">
<path fill-rule="evenodd" clip-rule="evenodd" d="M99.2777 90.0005C99.2658 90.01 99.2539 90.0187 99.242 90.0282L98.9264 89.65C92.4206 95.0009 84.1567 97.8952 75.6288 97.8952C65.8701 97.8952 56.7268 94.2113 49.8697 87.4568C43.0126 80.7908 39.2315 71.8438 39.2315 62.3699C39.2315 55.09 41.4297 47.9849 45.7373 42.02C49.9577 36.1429 55.7601 31.7573 62.6172 29.2135L62.3539 28.5117C55.408 31.1433 49.4304 35.6168 45.21 41.5817C40.8144 47.7215 38.4409 54.9144 38.4409 62.3699C38.4409 72.0187 42.3092 81.1413 49.3423 87.9829C50.0037 88.627 50.692 89.2338 51.3922 89.8225L50.485 90.878C57.4302 96.7551 66.3974 100.001 75.6288 100.001C84.6841 100.001 93.3873 96.8429 100.333 91.2293L99.2777 90.0005Z" fill="#004B86"/>
<path fill-rule="evenodd" clip-rule="evenodd" d="M46.0892 40.4413C45.9139 39.8274 45.8259 39.3012 45.8259 38.6872C45.8259 36.0557 47.584 33.6868 50.7488 33.6868C51.4522 33.6868 52.0676 33.7746 52.595 33.9503C53.1223 33.5119 53.7377 33.0728 54.353 32.7223C53.2984 32.1083 52.0676 31.7578 50.7488 31.7578C46.8806 31.7578 43.6277 34.8277 43.6277 38.6872C43.6277 40.003 44.0678 41.3188 44.6824 42.3711C44.8584 42.1084 45.0345 41.8449 45.2097 41.6693C45.4738 41.2302 45.8259 40.7926 46.0892 40.4413Z" fill="#141414"/>
<path fill-rule="evenodd" clip-rule="evenodd" d="M55.5844 33.5996C54.969 33.9501 54.4417 34.3014 53.9143 34.7397C55.057 35.6172 55.6724 37.1078 55.6724 38.6871C55.6724 41.3186 53.7383 43.5989 50.7495 43.5989C49.0786 43.5989 47.7598 42.8971 46.8812 41.757C46.7051 42.0204 46.5291 42.1961 46.353 42.4588C46.0898 42.8101 45.8265 43.1606 45.6497 43.5111C46.9692 44.7398 48.7273 45.5295 50.7495 45.5295C54.705 45.5295 57.8706 42.5466 57.8706 38.6871C57.8706 36.6695 56.9912 34.8276 55.5844 33.5996Z" fill="#141414"/>
<path fill-rule="evenodd" clip-rule="evenodd" d="M43.0122 56.5822C43.0122 58.6877 41.7814 60.5296 39.9353 61.2314V62.3715V63.3368C42.9241 62.5472 45.2096 59.9156 45.2096 56.5822C45.2096 54.2142 43.8916 52.1087 41.9575 50.793C41.6934 51.4948 41.5173 52.1088 41.2541 52.7227C42.3968 53.688 43.0122 55.0916 43.0122 56.5822Z" fill="#141414"/>
<path fill-rule="evenodd" clip-rule="evenodd" d="M38.5288 61.5803H38.0894C35.1006 61.5803 33.0776 59.3 33.0776 56.5807C33.0776 54.0369 34.8365 51.6688 38.0894 51.6688C38.7928 51.6688 39.4962 51.7559 40.0228 52.0193C40.1996 51.4046 40.3749 50.7914 40.6389 50.1774C39.8475 49.9139 38.9681 49.7383 38.0894 49.7383C34.1331 49.7383 30.9683 52.809 30.9683 56.5807C30.9683 60.528 34.1331 63.5101 38.0894 63.5101H38.5288C38.5288 63.1596 38.4407 62.7204 38.4407 62.3699C38.4407 62.1065 38.5288 61.8438 38.5288 61.5803Z" fill="#141414"/>
<path fill-rule="evenodd" clip-rule="evenodd" d="M43.1879 69.7384C46.3528 69.7384 48.1109 72.1064 48.1109 74.6502C48.1109 76.9304 46.7049 78.948 44.5067 79.475C44.858 80.0889 45.2101 80.6151 45.5614 81.2291C48.2869 80.2646 50.3091 77.8079 50.3091 74.6502C50.3091 70.8785 47.0562 67.8086 43.1879 67.8086C42.2212 67.8086 41.2538 67.9842 40.4631 68.3347C40.5504 68.9487 40.6384 69.6505 40.8144 70.2645C41.5178 69.914 42.3085 69.7384 43.1879 69.7384Z" fill="#141414"/>
<path fill-rule="evenodd" clip-rule="evenodd" d="M38.2643 74.6507C38.2643 73.335 38.7044 72.107 39.5831 71.1425C39.407 70.4407 39.2318 69.7389 39.1437 69.0371C37.2976 70.2651 36.0669 72.3705 36.0669 74.6507C36.0669 78.5989 39.2318 81.5801 43.1881 81.5801C43.4513 81.5801 43.8034 81.5801 44.0675 81.4931C43.7154 80.8791 43.2761 80.2652 42.924 79.6512C40.1112 79.4755 38.2643 77.3701 38.2643 74.6507Z" fill="#141414"/>
<path fill-rule="evenodd" clip-rule="evenodd" d="M77.7388 68.0723V76.0548C77.7388 77.8967 77.1235 79.6508 74.75 79.6508C72.3758 79.6508 71.7604 77.8967 71.7604 76.0548V68.0723H69.563V76.4931C69.563 79.3873 71.4091 81.5806 74.75 81.5806C78.0909 81.5806 79.9363 79.3873 79.9363 76.4931V68.0723H77.7388Z" fill="#141414"/>
<path fill-rule="evenodd" clip-rule="evenodd" d="M79.4968 43.4244H85.4752V45.2663H77.2986V32.0215H79.4968V43.4244Z" fill="#141414"/>
<path fill-rule="evenodd" clip-rule="evenodd" d="M6 50.002H13.7365V51.9309H8.19741V55.0894H13.6485V57.0192H8.19741V61.317H13.7365V63.2468H6V50.002Z" fill="#141414"/>
<path fill-rule="evenodd" clip-rule="evenodd" d="M49.6936 49.3008L58.8369 58.6861V50.0026H61.0343V63.7736L51.891 54.5639V63.2474H49.6936V49.3008Z" fill="#141414"/>
<path fill-rule="evenodd" clip-rule="evenodd" d="M104.201 50.0039H106.4V63.2487H104.201V50.0039Z" fill="#141414"/>
<path fill-rule="evenodd" clip-rule="evenodd" d="M27.3632 70.002V73.1597H32.1101V75.0025H27.3632V81.3171H25.1658V68.0723H32.2869V70.002H27.3632Z" fill="#141414"/>
<path fill-rule="evenodd" clip-rule="evenodd" d="M36.1548 40.2665H36.2429L38.3522 32.0213H40.4632L36.7702 45.7931L32.1105 35.8808L27.4516 45.7931L23.6714 32.0213H25.8688L27.979 40.2665L32.1105 31.7578L36.1548 40.2665Z" fill="#141414"/>
<path fill-rule="evenodd" clip-rule="evenodd" d="M86.9699 55.0024H86.8819L84.7717 63.2476H82.6624L86.3546 49.4766L91.0143 59.4759L95.6739 49.4766L99.4542 63.2476H97.256L95.1458 55.0024H95.0578L91.0143 63.5988L86.9699 55.0024Z" fill="#141414"/>
<path fill-rule="evenodd" clip-rule="evenodd" d="M88.1128 73.0715L86.0026 81.3167H83.8052L87.4974 67.5449L92.2451 77.4572L96.9048 67.5449L100.596 81.3167H98.3988L96.2886 73.0715L92.2451 81.5802L88.1128 73.0715Z" fill="#141414"/>
<path fill-rule="evenodd" clip-rule="evenodd" d="M58.5734 68.0723C59.8042 68.0723 61.211 68.0723 62.2657 68.6862C63.4092 69.3002 64.1118 70.616 64.1118 71.844C64.1118 73.7737 62.7938 75.353 60.8589 75.5278L65.0792 81.3171H62.6177L58.6615 75.7035H57.1666V81.3171H54.9692V68.0723H58.5734ZM57.1666 73.9494H58.1341C59.8922 73.9494 62.0024 74.0364 62.0024 71.9318C62.0024 69.8264 59.8042 69.9142 58.0461 69.9142H57.1666V73.9494Z" fill="#141414"/>
<path fill-rule="evenodd" clip-rule="evenodd" d="M66.0456 32.0215C67.2763 32.0215 68.6831 32.0215 69.7378 32.6355C70.8813 33.2494 71.4959 34.5652 71.4959 35.7932C71.4959 37.7237 70.266 39.3022 68.2438 39.477L72.5514 45.2663H70.0899L66.0456 39.6527H64.6388V45.2663H62.4414V32.0215H66.0456ZM64.6388 37.8986H65.6063C67.3644 37.8986 69.3865 37.9864 69.3865 35.881C69.3865 33.7756 67.1883 33.8642 65.5183 33.8642H64.6388V37.8986Z" fill="#141414"/>
<path fill-rule="evenodd" clip-rule="evenodd" d="M91.5415 43.4244H92.7722C95.6738 43.4244 98.3986 42.3713 98.3986 38.5996C98.3986 34.7401 95.6738 33.8634 92.7722 33.8634H91.5415V43.4244ZM89.3433 32.0215H92.9475C97.1678 32.0215 100.597 34.0383 100.597 38.5996C100.597 43.1609 97.2559 45.2663 92.9475 45.2663H89.3433V32.0215Z" fill="#141414"/>
<path fill-rule="evenodd" clip-rule="evenodd" d="M120.905 60.9683C120.202 61.4066 119.41 61.5823 118.444 61.5823C115.542 61.5823 113.521 59.389 113.521 56.6696C113.521 54.0389 115.279 51.67 118.444 51.67C119.41 51.67 120.202 51.8456 120.905 52.1961L121.96 50.6177C120.993 50.0915 119.762 49.7402 118.444 49.7402C114.575 49.7402 111.323 52.8109 111.323 56.6696C111.323 60.53 114.575 63.512 118.444 63.512C119.762 63.512 120.993 63.2485 122.048 62.6346L120.905 60.9683Z" fill="#141414"/>
<path fill-rule="evenodd" clip-rule="evenodd" d="M27.4512 60.9683C26.7478 61.4066 25.9564 61.5823 25.0777 61.5823C22.0881 61.5823 20.0659 59.389 20.0659 56.6696C20.0659 54.0389 21.824 51.67 25.0777 51.67C25.9564 51.67 26.7478 51.8456 27.4512 52.1961L28.5939 50.6177C27.5392 50.0915 26.3077 49.7402 25.0777 49.7402C21.1214 49.7402 17.9565 52.8109 17.9565 56.6696C17.9565 60.53 21.1214 63.512 25.0777 63.512C26.3077 63.512 27.5392 63.2485 28.5939 62.6346L27.4512 60.9683Z" fill="#141414"/>
<path fill-rule="evenodd" clip-rule="evenodd" d="M77.6508 56.6696C77.6508 54.0381 75.8927 51.67 72.7279 51.67C69.475 51.67 67.7161 54.0381 67.7161 56.6696C67.7161 59.389 69.7382 61.5815 72.7279 61.5815C75.6287 61.5815 77.6508 59.389 77.6508 56.6696ZM79.849 56.6696C79.849 60.5292 76.5953 63.512 72.7279 63.512C68.7716 63.512 65.6067 60.5292 65.6067 56.6696C65.6067 52.8101 68.7716 49.7402 72.7279 49.7402C76.5953 49.7402 79.849 52.8101 79.849 56.6696Z" fill="#141414"/>
</g>
</g>
<defs>
<linearGradient id="paint0_linear_183_1464" x1="64" y1="0" x2="64" y2="128" gradientUnits="userSpaceOnUse">
<stop stop-color="white"/>
<stop offset="1" stop-color="#EEEEEE"/>
</linearGradient>
<clipPath id="clip0_183_1464">
<rect width="116.571" height="72" fill="white" transform="translate(6 28)"/>
</clipPath>
</defs>
</svg>
