<svg width="128" height="128" viewBox="0 0 128 128" fill="none" xmlns="http://www.w3.org/2000/svg">
<mask id="mask0_264_1686" style="mask-type:alpha" maskUnits="userSpaceOnUse" x="0" y="0" width="128" height="128">
<path d="M0 24C0 10.7452 10.7452 0 24 0H104C117.255 0 128 10.7452 128 24V104C128 117.255 117.255 128 104 128H24C10.7452 128 0 117.255 0 104V24Z" fill="url(#paint0_linear_264_1686)"/>
<path d="M59.6934 30.0156V94H44.2686V30.0156H59.6934ZM84.5664 56.6465V68.5117H55.2988V56.6465H84.5664ZM87.0713 30.0156V41.9248H55.2988V30.0156H87.0713Z" fill="white"/>
</mask>
<g mask="url(#mask0_264_1686)">
<path d="M0 0H128V128H0V0Z" fill="#77BC1F"/>
<path d="M89.28 49.3701H71.1855V45.0518H128V49.3701H110.808V82.9491H89.2812L89.28 49.3701ZM62.4682 45.0518C65.2965 45.1604 67.9718 46.3641 69.9291 48.4086C71.8864 50.4531 72.9724 53.1782 72.9578 56.0086C72.9672 58.3233 72.24 60.581 70.8815 62.4551C69.523 64.3292 67.6035 65.7226 65.4007 66.4337L77.7753 82.9496H55.04L44.0187 66.9658H37.7668V82.9496H16.1113V45.0522L62.4682 45.0518ZM45.4208 62.2601C47.0352 62.1655 48.5522 61.4568 49.6607 60.2794C50.7693 59.102 51.3853 57.5451 51.3826 55.9279C51.3793 54.2537 50.713 52.6489 49.5296 51.4646C48.4372 50.3588 46.9728 49.6984 45.4209 49.6116H37.7673V62.2601H45.4691L45.4208 62.2601Z" fill="black"/>
</g>
<defs>
<linearGradient id="paint0_linear_264_1686" x1="64" y1="0" x2="64" y2="128" gradientUnits="userSpaceOnUse">
<stop stop-color="#1D63F0"/>
<stop offset="1" stop-color="#1AD5FD"/>
</linearGradient>
</defs>
</svg>
