<svg width="128" height="130" viewBox="0 0 128 130" fill="none" xmlns="http://www.w3.org/2000/svg">
<path fill-rule="evenodd" clip-rule="evenodd" d="M71.4823 52.4797L60.193 45.3459L2.17741 80.783C-0.0950469 72.281 -0.595375 63.4025 0.7075 54.699C2.01037 45.9955 5.08863 37.6528 9.75112 30.1889C14.4136 22.725 20.5608 16.2993 27.8109 11.3109C35.061 6.32243 43.2592 2.87774 51.8965 1.19072C60.5337 -0.496306 69.4256 -0.389644 78.0199 1.50408C86.6143 3.39781 94.7275 7.03816 101.856 12.1991C108.984 17.36 114.975 23.9313 119.458 31.5049C123.94 39.0785 126.817 47.4926 127.911 56.2249L67.1663 93.2672L71.4823 52.4797ZM50.7586 106.714L62.0479 113.848L128 73.5423C126.191 87.0358 120.141 99.6052 110.721 109.435C101.302 119.265 89.0019 125.846 75.5977 128.228C62.1935 130.609 48.3791 128.669 36.15 122.686C23.9208 116.703 13.91 106.988 7.56348 94.9437L55.0746 65.9448L50.7586 106.714Z" fill="url(#paint0_linear_183_1240)"/>
<path d="M67.7013 39.4778C72.7148 39.4778 76.7791 35.4135 76.7791 30.4C76.7791 25.3865 72.7148 21.3223 67.7013 21.3223C62.6878 21.3223 58.6235 25.3865 58.6235 30.4C58.6235 35.4135 62.6878 39.4778 67.7013 39.4778Z" fill="#F64E00"/>
<defs>
<linearGradient id="paint0_linear_183_1240" x1="67.7817" y1="0" x2="67.7817" y2="129.218" gradientUnits="userSpaceOnUse">
<stop offset="0.042985" stop-color="#6878B8"/>
<stop offset="1" stop-color="#434C73"/>
</linearGradient>
</defs>
</svg>
