<svg width="128" height="128" viewBox="0 0 128 128" fill="none" xmlns="http://www.w3.org/2000/svg">
<path d="M0 24C0 10.7452 10.7452 0 24 0H104C117.255 0 128 10.7452 128 24V104C128 117.255 117.255 128 104 128H24C10.7452 128 0 117.255 0 104V24Z" fill="#808080"/>
<g clip-path="url(#clip0_264_3242)">
<path d="M40.336 47.6608C39.728 47.4879 39.092 47.4371 38.4645 47.5115C37.8369 47.5858 37.2301 47.7838 36.6786 48.0941C36.1272 48.4045 35.642 48.821 35.2506 49.32C34.8593 49.819 34.5696 50.3907 34.398 51.0024L30.9145 63.3587L22.2369 49.7056C21.7468 48.9127 21.0386 48.2798 20.1981 47.8837C19.3575 47.4875 18.4208 47.3451 17.5014 47.4738C16.5801 47.6205 15.7204 48.0314 15.0256 48.6573C14.3307 49.2832 13.8302 50.0974 13.584 51.0024L7.18734 73.6577C6.83472 74.8944 6.98376 76.2213 7.60181 77.3477C8.21986 78.4742 9.25656 79.3083 10.4848 79.6675C10.9148 79.8026 11.3611 79.8781 11.8113 79.892C12.8563 79.8858 13.871 79.5384 14.7027 78.902C15.5344 78.2656 16.1381 77.3747 16.4228 76.3634L19.9063 64.007L28.584 77.7224C29.0739 78.5174 29.7834 79.1516 30.6259 79.5475C31.4684 79.9433 32.4074 80.0837 33.3279 79.9515C34.2485 79.8192 35.1108 79.42 35.8094 78.8027C36.508 78.1854 37.0127 77.3767 37.2616 76.4756L43.6335 53.708C43.8137 53.0932 43.8713 52.4486 43.8029 51.8113C43.7345 51.1741 43.5416 50.5567 43.2351 49.9947C42.9287 49.4327 42.5148 48.9372 42.0172 48.5366C41.5197 48.1361 40.9483 47.8384 40.336 47.6608Z" fill="white"/>
<path d="M79.5467 47.661C78.9386 47.4864 78.3023 47.4344 77.6742 47.5079C77.0461 47.5815 76.4386 47.7793 75.8868 48.0898C75.3349 48.4004 74.8496 48.8176 74.4586 49.3175C74.0677 49.8173 73.7788 50.39 73.6087 51.0026L71.3401 59.0697H60.5178L62.0426 53.7083C62.3043 53.0804 62.4313 52.404 62.4153 51.7234C62.3993 51.0428 62.2406 50.3732 61.9497 49.7585C61.6588 49.1437 61.2421 48.5977 60.7269 48.156C60.2118 47.7144 59.6098 47.3871 58.9602 47.1955C58.3107 47.0039 57.6282 46.9524 56.9575 47.0443C56.2868 47.1362 55.643 47.3694 55.068 47.7288C54.4931 48.0881 54 48.5655 53.6211 49.1296C53.2422 49.6938 52.9859 50.332 52.8691 51.0026L46.398 73.6579C46.1837 74.382 46.1405 75.1463 46.2718 75.8901C46.4032 76.634 46.7055 77.3366 47.1546 77.9421C47.6037 78.5476 48.1872 79.0393 48.8586 79.3778C49.5301 79.7164 50.2709 79.8925 51.022 79.8922C52.068 79.8901 53.0847 79.5442 53.9172 78.9072C54.7497 78.2702 55.3524 77.377 55.6335 76.3636L57.9145 68.3089H68.7368L67.212 73.6579C66.8594 74.8947 67.0084 76.2215 67.6265 77.348C68.2445 78.4744 69.2812 79.3085 70.5095 79.6678C70.9395 79.8028 71.3857 79.8783 71.8359 79.8922C72.8767 79.8807 73.8858 79.5308 74.7125 78.8948C75.5392 78.2588 76.1392 77.3708 76.4227 76.3636L82.8442 53.7083C83.0244 53.0934 83.0819 52.4489 83.0136 51.8116C82.9452 51.1743 82.7522 50.5569 82.4458 49.9949C82.1393 49.4329 81.7254 48.9374 81.2279 48.5368C80.7303 48.1363 80.159 47.8387 79.5467 47.661Z" fill="white"/>
<path d="M120.071 49.4063C119.694 48.8976 119.22 48.4692 118.677 48.1459C118.134 47.8225 117.533 47.6107 116.908 47.5225C116.283 47.4344 115.647 47.4718 115.037 47.6325C114.427 47.7931 113.854 48.074 113.352 48.4587L99.8027 58.845L101.216 53.7079C101.425 53.088 101.507 52.4319 101.457 51.7792C101.406 51.1265 101.225 50.4909 100.923 49.9109C100.621 49.3308 100.206 48.8183 99.7016 48.4045C99.1972 47.9907 98.6147 47.6842 97.9891 47.5035C97.3635 47.3227 96.708 47.2716 96.0622 47.3531C95.4164 47.4346 94.7938 47.6471 94.2321 47.9777C93.6703 48.3083 93.1811 48.7501 92.7941 49.2764C92.407 49.8028 92.1302 50.4026 91.9804 51.0397L85.6209 73.6576C85.2683 74.8943 85.4174 76.2212 86.0354 77.3476C86.6535 78.474 87.6902 79.3082 88.9184 79.6674C89.3501 79.7898 89.7964 79.8527 90.2449 79.8544C91.2899 79.8483 92.3046 79.5009 93.1363 78.8645C93.968 78.2281 94.5717 77.3372 94.8564 76.3258L97.6085 66.5755C97.6549 66.6284 97.7046 66.6784 97.7573 66.7251C97.8192 66.7999 97.8564 66.8872 97.9184 66.9495L108.332 78.2959C108.758 78.7639 109.272 79.1423 109.845 79.4091C110.418 79.6759 111.037 79.8258 111.668 79.8501C112.298 79.8745 112.928 79.7728 113.519 79.5509C114.11 79.3291 114.652 78.9915 115.113 78.5577C116.048 77.6778 116.599 76.4613 116.645 75.1741C116.692 73.8868 116.23 72.6334 115.361 71.6876L108.58 64.2812L119.141 56.2016C120.158 55.4225 120.826 54.2703 121.001 52.9969C121.175 51.7235 120.841 50.4326 120.071 49.4063Z" fill="white"/>
</g>
<defs>
<clipPath id="clip0_264_3242">
<rect width="114" height="33" fill="white" transform="translate(7 47)"/>
</clipPath>
</defs>
</svg>
