<svg width="128" height="128" viewBox="0 0 128 128" fill="none" xmlns="http://www.w3.org/2000/svg">
<path d="M0 24C0 10.7452 10.7452 0 24 0H104C117.255 0 128 10.7452 128 24V104C128 117.255 117.255 128 104 128H24C10.7452 128 0 117.255 0 104V24Z" fill="url(#paint0_linear_183_1456)"/>
<path d="M38.5002 34.408C39.7453 34.1431 41.0223 34.0371 42.2939 34C43.1575 37.0307 42.6754 40.1991 42.5959 43.2987C42.3416 47.1983 42.1826 51.1139 42.1402 55.0241C42.0184 56.4705 43.1893 57.4719 43.9311 58.5634C46.4001 58.6482 48.9169 58.4998 51.2111 57.509C51.2482 56.4229 51.2747 55.342 51.2959 54.2558C49.1341 53.9273 47.0201 53.371 44.9219 52.767C44.8848 52.0623 44.8636 51.3576 44.8424 50.6529C47.073 49.9429 49.3832 49.5031 51.725 49.376C51.7198 47.9507 51.7198 46.5307 51.7092 45.1055C49.4155 44.4908 46.8664 44.4697 44.9325 42.9278C44.9537 42.4616 44.9908 41.5237 45.0072 41.0575C45.1608 40.7767 45.4735 40.215 45.6271 39.9342C48.9863 39.3991 52.4885 40.7767 54.6609 43.3729C56.4253 45.8154 55.9113 49.021 55.7895 51.8397C55.4345 54.171 55.7577 56.55 55.4398 58.8813C54.7563 60.9477 52.7217 62.0657 51.058 63.2525C48.6578 63.3797 46.2947 62.9929 43.9263 62.7174C42.7607 63.2419 42.2255 64.4552 41.6634 65.5149C44.5563 65.7586 46.8505 67.5866 49.1347 69.1867C49.7599 71.6293 50.1096 74.2361 49.4314 76.7052C48.7956 78.2046 47.2378 79.0153 46.3848 80.3664C46.3694 81.1876 46.5861 81.9824 46.7345 82.783C47.2643 82.7883 48.3134 82.7936 48.8379 82.7989C50.1048 83.6201 51.3605 84.4573 52.5627 85.3739C53.4688 85.3633 54.3748 85.3633 55.2861 85.3686L56.1715 86.317C57.4902 86.5819 58.8048 86.8998 60.1241 87.1912C60.6481 89.104 61.2367 91.3452 59.9969 93.1148C59.1227 94.2646 57.5279 94.0574 56.2721 93.9414C52.8653 93.1837 50.5393 90.3067 47.4026 88.9556C45.2514 88.0125 43.6037 85.411 40.9868 86.0362C39.4762 86.5501 38.639 88.182 37.1242 88.7437C33.5425 90.0842 30.6014 93.7024 26.4161 92.7387C24.487 91.5571 24.3816 89.1675 24.6942 87.1642C28.0846 87.1006 31.5498 86.6026 34.634 85.1137C35.5757 84.6901 36.3692 83.9945 36.9123 83.1162C36.3772 80.5677 34.6075 78.5013 33.3782 76.2601C31.7887 74.8242 29.7065 74.0242 28.1964 72.4611C28.9647 71.7035 29.5745 70.3365 30.8514 70.506C32.2815 70.6332 33.2723 71.873 34.3744 72.6678C37.0183 74.7183 39.1164 77.3939 41.9092 79.2643C42.9154 78.1304 43.9115 76.986 44.9288 75.8627C45.0347 74.6282 45.4644 73.3142 44.9182 72.1326C44.4885 71.3379 43.8262 70.7074 43.228 70.0504C41.2994 70.3153 39.3655 70.5537 37.4209 70.6226C37.0924 69.4357 36.9123 68.1535 37.6541 67.078C38.3641 66.4051 39.2595 65.9759 40.086 65.4672C39.6251 64.6937 39.1482 63.9254 38.6661 63.1677C35.8049 63.0406 32.938 63.3055 30.0715 63.2154C29.1443 62.3412 27.7455 61.6471 27.6083 60.2324C27.3646 57.9541 27.5548 55.6493 27.4917 53.3604C27.5394 51.543 27.2846 49.6356 27.9792 47.9083C28.5355 47.4897 29.139 47.1506 29.7912 46.8751C30.5648 48.1573 31.2536 49.4872 31.8099 50.8807C33.6909 50.886 35.5723 50.9761 37.4527 51.1297C37.4792 51.9139 37.5004 52.6928 37.5105 53.4716C35.5969 54.3699 33.581 55.0317 31.5074 55.4427C31.5556 56.7884 31.651 58.1342 31.7834 59.48C34.2366 59.3741 37.6594 59.1197 38.8144 56.5977C39.6606 49.2011 37.3404 41.7887 38.5002 34.408Z" fill="#211E21"/>
<path d="M16.2578 38.8473C17.0632 38.4394 17.8738 38.042 18.7375 37.7559C19.6536 38.3069 20.4806 39.144 20.6237 40.2514C21.1694 43.4516 20.6131 46.7261 21.0534 49.9369C22.2085 50.027 23.3953 49.9104 24.5339 50.1435C25.9279 50.7846 26.9876 52.8722 25.6895 54.112C24.2166 55.2777 22.1449 54.9598 20.5501 55.8499C18.9764 57.911 19.2043 60.7774 19.8931 63.1458C21.1223 63.1352 22.3568 63.1034 23.5913 63.0822C23.6125 64.1631 23.6279 65.2493 23.639 66.3355C22.5582 67.1143 21.4561 67.872 20.3699 68.6509C20.5236 75.4646 21.6733 82.4373 19.909 89.1345C19.0607 91.985 15.9087 92.4243 13.4073 92.8328C12.8351 92.5626 12.2575 92.3083 11.68 92.0592C9.41757 89.9823 8.46916 86.8244 9.38578 83.8626C10.1964 83.8414 11.0124 83.8255 11.8283 83.8202C12.5012 84.9064 13.1582 85.9978 13.7994 87.1052C14.4564 87.1158 15.1134 87.1211 15.7704 87.1317C17.5771 82.379 16.5498 77.1861 16.7983 72.2379C16.0088 71.8935 15.3094 71.0828 14.3981 71.21C12.496 71.9783 11.1025 73.6579 9.12086 74.246C7.90223 74.0764 6.6624 73.4353 6.06898 72.3227C5.78287 71.2577 6.46106 70.2404 6.74718 69.239C8.26782 68.9317 9.78264 68.5131 11.1396 67.7342C12.1833 67.0243 13.4232 66.86 14.6577 66.8017C15.4419 65.5354 16.3214 64.2956 16.83 62.8862C17.2597 59.8184 16.7135 56.6129 15.0291 53.9849C12.2898 54.7002 9.56116 55.6645 6.67883 55.2406C6.68413 53.5239 6.09548 51.1714 8.07231 50.2919C10.7215 49.4177 13.9059 50.9807 16.2425 48.9461C15.8181 45.5975 15.6432 42.1853 16.2578 38.8473Z" fill="#211E20"/>
<path d="M78.9651 38.0613C80.0936 37.6904 81.5613 36.7791 82.6103 37.8017C84.5708 40.4138 85.3867 44.0326 84.0197 47.1163C83.394 47.9428 82.8064 48.8118 82.5515 49.8344C82.143 51.4716 80.6224 52.7856 80.9731 54.587C81.3763 58.2111 83.3209 61.4961 83.5222 65.1626C83.7447 70.4928 83.8661 75.8919 82.7333 81.1373C81.9173 85.2277 80.3644 89.4346 77.0693 92.1792C75.6917 91.8089 74.0338 91.5805 73.2973 90.1764C72.3431 88.5021 71.3846 86.8119 69.9111 85.5244C69.9 84.4965 69.9111 83.4686 69.9435 82.4407C70.9708 82.4301 72.0204 82.3189 73.0435 82.5202C74.0338 82.9065 74.7544 83.7389 75.5391 84.4329C75.7081 84.47 76.0425 84.5442 76.2125 84.5866C76.9803 83.8024 77.8232 83.0818 78.4432 82.1705C78.6021 80.083 77.9191 77.9265 78.6969 75.8972C79.7778 73.0149 79.4647 69.7617 78.1782 67.0012C77.33 70.7843 74.2521 73.2268 71.968 76.1356C70.8293 76.1356 69.695 76.1091 68.5611 76.0615L67.2784 75.2084C67.3207 74.3872 67.3054 73.5553 67.4855 72.75C69.3771 71.0439 71.8302 70.0213 73.4939 68.0503C75.005 66.1958 76.0901 64.05 77.3777 62.0472C76.975 60.108 76.6311 58.1581 76.5723 56.1818C73.7366 56.6794 72.8152 60.1133 70.0394 60.6484C68.6141 60.5901 66.1021 59.5516 66.9981 57.7343C68.365 55.1698 71.3369 54.0466 73.7111 52.5948C73.8171 51.4398 74.5748 50.0145 73.5734 49.0714C71.6766 46.8567 69.8645 44.218 70.3361 41.1397C71.826 40.6257 73.3885 40.3184 74.9722 40.3873C75.9206 42.4325 76.8054 44.5148 77.9075 46.4858C78.13 46.4752 78.5809 46.4487 78.8024 46.4381C79.5129 44.9757 80.0004 43.4233 80.1964 41.8073C79.8732 41.5741 79.2215 41.1132 78.8983 40.88C78.9015 39.9422 78.928 38.9991 78.9651 38.0613Z" fill="#221F20"/>
<path d="M27.5222 45.2968C28.9846 42.6529 30.8337 39.5003 34.1452 39.0977C35.1466 40.1361 36.5242 41.2594 35.8407 42.8913C34.3413 45.1431 31.7609 46.3936 29.1753 46.9128C28.6243 46.3724 28.0733 45.8319 27.5222 45.2968Z" fill="#1F1D23"/>
<path d="M109.913 37.7852C110.903 38.1984 112.286 38.2991 112.748 39.433C113.691 40.9165 113.019 42.7869 112.033 44.0585C110.777 45.3566 108.907 45.6745 107.243 46.146C104.795 46.4428 102.246 46.3792 99.9574 47.4283C98.2408 48.2495 96.2962 47.9528 94.463 48.0111C92.898 49.1314 91.4077 50.3526 90.0017 51.667C90.0765 54.1731 90.1342 56.7746 91.1361 59.1112C91.6506 60.3829 92.3283 61.6492 92.2748 63.0639C92.3224 67.133 92.3436 71.2393 91.666 75.2661C90.929 80.4903 90.1935 85.7675 88.3545 90.7427C87.2413 91.8353 85.9379 92.7408 84.306 92.719C83.1716 91.405 82.1712 89.7572 82.5729 87.9393C82.5305 86.1273 83.8975 84.8451 85.0207 83.6158C85.407 81.0726 86.9287 78.8897 87.299 76.3464C88.4758 71.0321 88.8833 65.5324 88.2951 60.1227C87.299 56.8647 85.8955 53.7275 85.3492 50.3366C85.9744 48.1165 86.065 45.2819 88.1786 43.8884C90.8219 42.5479 93.8208 43.6765 96.6237 43.6341C98.5359 43.7983 100.131 42.5797 101.757 41.7743C105.075 42.1193 107.385 39.4436 109.913 37.7852Z" fill="#211E20"/>
<path d="M107.524 52.4351C107.788 50.9727 109.256 50.3581 110.321 49.5527C110.893 49.7912 111.465 50.0508 112.043 50.2945C112.26 50.57 112.694 51.1264 112.912 51.4072C112.445 54.8829 110.411 57.9507 110.188 61.4741C110.14 62.359 109.998 63.2544 109.446 63.975C107.969 64.1657 107.661 62.5974 107.047 61.6225C107.073 58.5653 106.628 55.4128 107.524 52.4351Z" fill="#231D22"/>
<path d="M98.5899 52.123C99.5754 52.3032 101.006 51.7945 101.562 52.8966C102.14 54.8252 102.16 56.8545 102.203 58.8467C102.214 62.0893 102.299 65.4591 100.995 68.5057C99.9203 70.8264 99.8822 73.465 98.7324 75.7645C97.5668 78.0693 97.5885 80.7869 98.6111 83.1399C98.9131 83.3624 99.5171 83.7969 99.8186 84.0142C100.619 84.0459 101.424 84.0618 102.23 84.083C104.048 82.1014 102.908 79.5476 102.272 77.3382C102.553 76.909 102.807 76.4586 103.04 75.9977C104.428 76.7024 105.991 77.3276 106.839 78.7263C108.365 81.4338 108.815 84.6288 108.705 87.7071C107.799 87.7389 106.893 87.7601 105.986 87.776C105.912 87.4051 105.764 86.674 105.689 86.3084C105.483 86.2342 105.075 86.0805 104.868 86.0064C103.633 89.7205 98.4675 90.1179 95.7706 87.8608C93.8415 85.5555 94.0597 82.2816 94.1021 79.4681C94.091 77.3964 95.4956 75.7645 96.1733 73.9048C96.8303 71.9497 96.8679 69.8197 97.7363 67.9282C98.2391 66.6937 99.0763 65.4962 98.9396 64.1027C98.6323 61.2045 96.8525 58.603 97.0428 55.6253C96.9633 54.2636 97.9064 53.1986 98.5899 52.123Z" fill="#211E1F"/>
<path d="M108.217 65.0197C109.165 64.723 110.13 65.3482 110.379 66.286C111.285 69.0147 111.047 71.9659 111.767 74.737C112.991 79.638 115.641 84.1205 119.174 87.7234H121.272C122.776 88.7884 123.174 90.505 122.936 92.2641C122.406 92.6774 121.887 93.096 121.367 93.5145C119.937 93.4663 118.374 93.753 117.097 92.9476C115.247 91.8561 113.849 90.1606 112.619 88.4281C111.427 86.7538 111.226 84.6609 110.733 82.727C110.128 79.9294 108.057 77.6193 108.047 74.6628C107.91 71.4626 107.539 68.167 108.217 65.0197Z" fill="#211F20"/>
<defs>
<linearGradient id="paint0_linear_183_1456" x1="64" y1="0" x2="64" y2="128" gradientUnits="userSpaceOnUse">
<stop stop-color="white"/>
<stop offset="1" stop-color="#EEEEEE"/>
</linearGradient>
</defs>
</svg>
