<svg width="128" height="128" viewBox="0 0 128 128" fill="none" xmlns="http://www.w3.org/2000/svg">
<rect width="128" height="128" rx="24" fill="#136796"/>
<path fill-rule="evenodd" clip-rule="evenodd" d="M63.7086 19.1663C59.8409 27.2039 46.0622 34.9998 63.053 47.3885C67.7365 50.8634 75.5928 52.9786 71.5861 61.1703C71.2295 61.7958 71.852 61.968 72.408 61.4997C78.1491 54.852 87.486 44.3367 79.6237 35.7733C75.1516 30.9387 65.996 27.7659 64.171 23.173C63.8174 22.2847 64.2072 21.0005 64.6967 19.9852C65.0895 19.0424 63.9202 18.7947 63.7117 19.1633L63.7086 19.1663Z" fill="white"/>
<path fill-rule="evenodd" clip-rule="evenodd" d="M63.9171 19.1663C60.0494 27.2039 46.2707 34.9998 63.2614 47.3885C67.945 50.8634 75.8013 52.9786 71.7946 61.1703C71.438 61.7958 72.0605 61.968 72.6165 61.4997C78.3576 54.852 87.6945 44.3367 79.8322 35.7733C75.3601 30.9387 66.2045 27.7659 64.3795 23.173C64.0259 22.2847 64.4157 21.0005 64.9052 19.9852C65.298 19.0424 64.1287 18.7947 63.9202 19.1633L63.9171 19.1663Z" fill="white"/>
<path fill-rule="evenodd" clip-rule="evenodd" d="M55.7676 46.9867C53.7823 52.3955 43.7414 58.6201 57.1454 65.7995C60.2577 67.6518 64.2463 69.9694 63.8172 73.3597C63.6511 73.7918 64.0408 73.8522 64.337 73.5017C68.7486 68.4253 72.0724 61.2036 66.6606 56.3387C63.8354 53.6011 57.1424 52.1084 56.4233 47.4339C56.5864 46.7933 55.8612 46.7329 55.7645 46.9897L55.7676 46.9867Z" fill="white"/>
<path d="M46.6755 75.4749H80.5573V79.6357H46.6755V75.4749Z" fill="white"/>
<path fill-rule="evenodd" clip-rule="evenodd" d="M46.7147 75.3599L45.219 79.563L47.7844 79.5992L46.7147 75.3599ZM80.527 75.3599L82.0227 79.563L79.4573 79.5992L80.527 75.3599ZM53.8186 78.5175L56.3175 85.3132L71.0058 85.2618L73.3052 78.5175H53.8216H53.8186Z" fill="white"/>
<path d="M36 88.8999H40.472V109H36V88.8999Z" fill="white"/>
<path fill-rule="evenodd" clip-rule="evenodd" d="M40.4085 88.897L47.6514 88.9604C51.2472 88.8637 53.9969 95.2757 49.3526 98.7204C55.547 100.452 53.311 108.843 48.3464 108.858L40.3481 108.985L39.215 105.332L46.8356 105.395C49.2499 105.465 49.404 100.591 46.899 100.545L39.91 100.672L39.7196 96.8953H45.9533C48.7936 97.0131 47.9113 92.4837 46.0167 92.4867L39.783 92.3598L39.1545 89.5255L40.4146 88.897H40.4085Z" fill="white"/>
<path d="M55.3113 88.8999H59.7833V109H55.3113V88.8999Z" fill="white"/>
<path fill-rule="evenodd" clip-rule="evenodd" d="M59.72 88.897L66.9629 88.9604C70.5587 88.8637 73.3084 95.2757 68.6641 98.7204C74.8585 100.452 72.6225 108.843 67.6579 108.858L59.6596 108.985L58.5265 105.332L66.1471 105.395C68.5614 105.465 68.7155 100.591 66.2106 100.545L59.2215 100.672L59.0311 96.8953H65.2648C68.1051 97.0131 67.2228 92.4837 65.3282 92.4867L59.0946 92.3598L58.4661 89.5255L59.7261 88.897H59.72Z" fill="white"/>
<path d="M74.4143 88.8999H78.8863V109H74.4143V88.8999Z" fill="white"/>
<path fill-rule="evenodd" clip-rule="evenodd" d="M78.8228 88.897L86.0657 88.9604C89.6615 88.8637 92.4112 95.2757 87.7669 98.7204C93.9613 100.452 91.7253 108.843 86.7607 108.858L78.7624 108.985L77.6293 105.332L85.2499 105.395C87.6642 105.465 87.8183 100.591 85.3133 100.545L78.3243 100.672L78.1339 96.8953H84.3676C87.2079 97.0131 86.3256 92.4837 84.431 92.4867L78.1974 92.3598L77.5688 89.5255L78.8289 88.897H78.8228Z" fill="white"/>
</svg>
