<svg width="128" height="128" viewBox="0 0 128 128" fill="none" xmlns="http://www.w3.org/2000/svg">
<g clip-path="url(#clip0_264_1586)">
<circle cx="64" cy="64" r="61" fill="white"/>
<path d="M114.625 0H13.2251C9.69065 0.0455198 6.31757 1.46751 3.84053 3.95626C1.36349 6.445 -0.0168506 9.7989 0.000155291 13.2875V114.712C-0.0167089 118.213 1.37392 121.578 3.86712 124.069C6.36031 126.56 9.75259 127.974 13.3001 128H114.7C118.247 127.974 121.64 126.56 124.133 124.069C126.626 121.578 128.017 118.213 128 114.712V13.2875C128.008 11.5476 127.669 9.82314 127 8.213C126.332 6.60286 125.349 5.13866 124.106 3.90431C122.864 2.66995 121.387 1.6897 119.76 1.01973C118.133 0.349756 116.388 0.00322733 114.625 0V0ZM63.95 116.925C49.8306 116.817 36.3319 111.182 26.4199 101.259C16.5078 91.3349 10.9932 77.9338 11.0876 63.9998C10.9932 50.0658 16.5078 36.6648 26.4199 26.741C36.3319 16.8172 49.8306 11.1826 63.95 11.075C78.0759 11.1728 91.5842 16.8032 101.504 26.728C111.424 36.6528 116.944 50.0595 116.85 63.9998C116.944 77.9402 111.424 91.3469 101.504 101.272C91.5842 111.197 78.0759 116.827 63.95 116.925Z" fill="url(#paint0_linear_264_1586)"/>
<path d="M113.025 63.9996L76.3374 47.0371L79.2849 57.9058H48.6349L51.5824 47.0371L14.895 64.0121L51.6074 80.9745L48.6599 70.1058H79.3099L76.3624 80.9745L113.025 64.0121" fill="url(#paint1_linear_264_1586)"/>
</g>
<defs>
<linearGradient id="paint0_linear_264_1586" x1="63.9513" y1="128.362" x2="63.9513" y2="-0.0405247" gradientUnits="userSpaceOnUse">
<stop stop-color="#096FD2"/>
<stop offset="1" stop-color="#0E8EE9"/>
</linearGradient>
<linearGradient id="paint1_linear_264_1586" x1="51.6187" y1="81.0095" x2="51.6074" y2="47.0559" gradientUnits="userSpaceOnUse">
<stop stop-color="#096FD2"/>
<stop offset="1" stop-color="#0E8EE9"/>
</linearGradient>
<clipPath id="clip0_264_1586">
<rect width="128" height="128" fill="white"/>
</clipPath>
</defs>
</svg>
