<svg width="128" height="128" viewBox="0 0 128 128" fill="none" xmlns="http://www.w3.org/2000/svg">
<rect width="128" height="128" rx="24" fill="url(#paint0_linear_183_1633)"/>
<path d="M84.06 78.98L98.36 93.28C100.64 90.6035 102.6 87.6704 104.2 84.54L73.86 72C75.3972 70.0988 76.3491 67.792 76.6 65.36L106.94 78C108.009 74.6502 108.68 71.1865 108.94 67.68H88.76C88.9388 66.4882 89.0323 65.2851 89.04 64.08C89.0375 62.8481 88.9439 61.6181 88.76 60.4H109C108.74 56.8936 108.068 53.4298 107 50.08L76.62 62.66C76.366 60.2191 75.407 57.905 73.86 56L104.2 43.44C102.598 40.3165 100.639 37.3902 98.36 34.72L84.06 49.02C82.6138 47.1138 80.9032 45.4235 78.98 44L93.28 29.7C90.6072 27.3986 87.6738 25.4185 84.54 23.8L71.96 54.14C70.0606 52.5966 67.7539 51.6377 65.32 51.38L77.9 21.06C74.5501 19.9919 71.0864 19.3207 67.58 19.06V39.22C65.202 38.8374 62.778 38.8374 60.4 39.22V19C56.8936 19.2607 53.4299 19.9319 50.08 21L62.64 51.34C60.2061 51.5977 57.8994 52.5566 56 54.1L43.46 23.8C40.3435 25.403 37.4239 27.3628 34.76 29.64L49.02 44C47.0918 45.441 45.381 47.1518 43.94 49.08L29.64 34.72C27.3599 37.3962 25.4 40.3294 23.8 43.46L54.14 56C52.5966 57.8994 51.6377 60.2061 51.38 62.64L21.04 50C19.9728 53.3501 19.3016 56.8137 19.04 60.32H39.22C38.8387 62.7049 38.8387 65.1351 39.22 67.52H19C19.2616 71.0263 19.9328 74.4899 21 77.84L51.32 65.28C51.5799 67.7483 52.5606 70.0854 54.14 72L23.8 84.54C25.4012 87.6699 27.3611 90.6029 29.64 93.28L43.94 78.98C45.3856 80.8867 47.0962 82.5772 49.02 84L34.76 98.36C37.436 100.64 40.3692 102.6 43.5 104.2L56.06 73.86C57.9588 75.4044 60.2658 76.3634 62.7 76.62L50.1 106.94C53.4499 108.008 56.9136 108.679 60.42 108.94V88.78C62.798 89.1626 65.222 89.1626 67.6 88.78V109C71.1064 108.739 74.5701 108.068 77.92 107L65.34 76.62C67.7742 76.3634 70.0812 75.4044 71.98 73.86L84.54 104.2C87.6708 102.6 90.604 100.64 93.28 98.36L78.98 84C80.904 82.5774 82.6146 80.8869 84.06 78.98Z" fill="black"/>
<defs>
<linearGradient id="paint0_linear_183_1633" x1="64" y1="0" x2="64" y2="128" gradientUnits="userSpaceOnUse">
<stop stop-color="white"/>
<stop offset="1" stop-color="#EEEEEE"/>
</linearGradient>
</defs>
</svg>
