<svg width="128" height="128" viewBox="0 0 128 128" fill="none" xmlns="http://www.w3.org/2000/svg">
<path d="M0.926964 40.1726H9.8416V94.469H0.926964V40.1726ZM5.40401 24C8.38212 24 10.808 26.5048 10.808 29.7393C10.808 32.8949 8.3624 35.4786 5.40401 35.4786C2.36672 35.4786 0 32.8949 0 29.7393C0 26.5048 2.36672 24 5.40401 24Z" fill="#009EDB"/>
<path d="M27.1973 79.0857C27.1973 85.318 30.2346 87.9806 34.12 87.9806C38.0054 87.9806 41.0426 85.1405 41.0426 79.0068V56.2666C41.0426 50.0342 38.0054 47.2928 34.12 47.2928C30.2346 47.2928 27.1973 50.0342 27.1973 56.2666V79.0857ZM49.977 79.0068C49.977 84.2727 48.4584 88.3159 45.3225 91.3137C42.2063 94.3116 38.8534 95.8499 35.2639 95.8499C32.0688 95.8499 29.4063 95.0413 27.1973 93.3451V104.922H18.2827V56.2666C18.2827 51.0006 19.8014 46.9575 22.9373 43.9794C26.0534 40.9026 29.781 39.3643 34.1397 39.3643C38.4787 39.3643 42.2063 40.9026 45.3422 43.9794C48.4584 46.9772 49.9967 51.0203 49.9967 56.2666V79.0068H49.977Z" fill="#009EDB"/>
<path d="M89.048 79.0068C89.048 84.2727 87.5294 88.3159 84.3935 91.3137C81.2773 94.3116 77.53 95.8499 73.191 95.8499C68.852 95.8499 65.1244 94.3116 61.9885 91.3137C58.8724 88.3159 57.334 84.2727 57.334 79.0068V56.2666C57.334 51.0006 58.8526 46.9575 61.9885 43.9794C65.1047 40.9026 68.8323 39.3643 73.191 39.3643C77.53 39.3643 81.2576 40.9026 84.3935 43.9794C87.5096 46.9772 89.048 51.0203 89.048 56.2666V57.3119H80.1334V56.2666C80.1334 50.0342 77.0961 47.2928 73.2107 47.2928C69.3254 47.2928 66.2881 50.0342 66.2881 56.2666V79.0857C66.2881 85.318 69.3254 87.9806 73.2107 87.9806C77.0961 87.9806 80.1334 85.1405 80.1334 79.0068V73.5042H89.048V79.0068Z" fill="#009EDB"/>
<path d="M127.98 79.0068C127.98 84.2727 126.462 88.3159 123.326 91.3137C120.21 94.3116 116.462 95.8499 112.123 95.8499C107.784 95.8499 104.057 94.3116 100.921 91.3137C97.8048 88.3159 96.2861 84.2727 96.2861 79.0068V56.2666C96.2861 51.0006 97.8048 46.9575 100.941 43.9794C104.057 40.9026 107.784 39.3643 112.143 39.3643C116.482 39.3643 120.21 40.9026 123.346 43.9794C126.462 46.9772 128 51.0203 128 56.2666V57.3119H119.086V56.2666C119.086 50.0342 116.048 47.2928 112.163 47.2928C108.278 47.2928 105.24 50.0342 105.24 56.2666V79.0857C105.24 85.318 108.278 87.9806 112.163 87.9806C116.048 87.9806 119.086 85.1405 119.086 79.0068V73.5042H128V79.0068H127.98Z" fill="#009EDB"/>
</svg>
