<svg width="128" height="128" viewBox="0 0 128 128" fill="none" xmlns="http://www.w3.org/2000/svg">
<path d="M65.1983 0C77.0882 0 86.7256 9.6374 86.7256 21.5273C86.7256 33.4156 77.0882 43.053 65.1983 43.053C53.31 43.053 43.6726 33.4156 43.6726 21.5273C43.6726 9.6374 53.31 0 65.1983 0Z" fill="#A22018"/>
<path d="M101.405 30.4021C106.004 35.0012 109.615 40.3564 112.137 46.3186C114.745 52.4878 116.069 59.043 116.069 65.8051C116.069 72.5673 114.745 79.124 112.137 85.2933C109.615 91.2539 106.004 96.6091 101.405 101.21C96.8039 105.809 91.4488 109.42 85.4866 111.942C79.3189 114.551 72.7622 115.874 66 115.874C59.2378 115.874 52.6827 114.551 46.5134 111.942C40.5512 109.42 35.1961 105.809 30.597 101.21C25.9963 96.6091 22.3854 91.2539 19.8631 85.2933C17.2546 79.124 15.9322 72.5673 15.9322 65.8051C15.9322 59.043 17.2546 52.4878 19.8631 46.3186C22.3854 40.3564 25.9963 35.0012 30.597 30.4021C31.3781 29.621 32.1812 28.868 33.0063 28.1433L24.5548 19.6934C23.7391 20.4275 22.9407 21.1851 22.1595 21.9647C16.4671 27.6571 11.9982 34.2875 8.87517 41.6708C5.64074 49.3177 4 57.4383 4 65.8051C4 74.172 5.64074 82.2926 8.87517 89.941C11.9982 97.3244 16.4671 103.953 22.1595 109.646C27.8519 115.338 34.4824 119.807 41.8657 122.93C49.5126 126.164 57.6332 127.805 66 127.805C74.3669 127.805 82.4874 126.164 90.1359 122.93C97.5192 119.807 104.148 115.338 109.84 109.646C115.533 103.953 120.002 97.3244 123.125 89.941C126.359 82.2926 128 74.172 128 65.8051C128 57.4383 126.359 49.3177 123.125 41.6708C120.002 34.2875 115.533 27.6571 109.84 21.9647C109.059 21.1851 108.261 20.4275 107.445 19.6934L98.9953 28.1433C99.8188 28.868 100.623 29.621 101.405 30.4021Z" fill="#1266A0"/>
<path d="M26.7383 65.8063C26.7383 85.6097 41.3983 101.987 60.4582 104.681V55.5979L40.6689 35.8086C32.1483 43.01 26.7383 53.7768 26.7383 65.8063Z" fill="#34A56D"/>
<path d="M105.262 65.8063C105.262 53.7768 99.8516 43.01 91.3311 35.8086L71.5417 55.5979V104.681C90.6017 101.987 105.262 85.6097 105.262 65.8063Z" fill="#34A56D"/>
</svg>
