<svg width="128" height="128" viewBox="0 0 128 128" fill="none" xmlns="http://www.w3.org/2000/svg">
<g clip-path="url(#clip0_183_1128)">
<path d="M117.205 55.5973C115.478 48.822 111.559 42.5781 106.179 38.1277C103.389 35.8028 100.134 34.1422 97.0124 32.2823C80.4062 22.7172 63.8665 13.1521 47.2604 3.58692C44.2713 1.85989 40.9501 0.59782 37.496 0.199273C36.2339 0 34.9719 0 33.7098 0C28.263 0.132849 22.8826 2.05916 18.565 5.44681C13.2511 9.63155 9.66415 16.1412 9.13276 22.9829C8.13639 32.6809 13.4503 42.5781 21.9527 47.2278C31.7171 52.8739 41.4815 58.4536 51.2459 64.1661C67.9849 73.864 84.6574 83.4956 101.396 93.1271C106.91 89.9388 111.559 85.2226 114.482 79.5101C118.268 72.2034 119.265 63.5018 117.205 55.5309V55.5973Z" fill="#FC0160"/>
<path d="M51.1797 64.2325L50.7812 63.9668C41.1496 69.6129 31.4516 75.259 21.7537 80.8386C15.5762 84.2927 11.0593 90.4702 9.59799 97.3783C8.13665 103.821 9.39871 110.796 12.9856 116.376C16.5061 121.955 22.2851 126.007 28.7282 127.402C34.9721 128.864 41.681 127.734 47.1278 124.546C65.1953 114.117 83.3292 103.689 101.397 93.26C84.6577 83.562 67.9851 73.9305 51.2461 64.2989L51.1797 64.2325Z" fill="#08A9FD"/>
</g>
<defs>
<clipPath id="clip0_183_1128">
<rect width="109.202" height="128" fill="white" transform="translate(9)"/>
</clipPath>
</defs>
</svg>
