<svg width="128" height="128" viewBox="0 0 128 128" fill="none" xmlns="http://www.w3.org/2000/svg">
<rect width="128" height="128" rx="24" fill="url(#paint0_linear_264_1490)"/>
<path fill-rule="evenodd" clip-rule="evenodd" d="M83.9835 80.0206C83.9835 83.8113 83.3624 88.2031 81.5562 92.0938H86.6562V31.375H70.3438V56.1796C79.1596 60.3999 83.9835 69.109 83.9835 80.0206Z" fill="#236AB3"/>
<path fill-rule="evenodd" clip-rule="evenodd" d="M54.1067 53.954C57.9924 53.954 61.5988 55.2766 64.3637 56.3353C58.5065 54.8428 49.435 56.9925 44.756 62.3548V91.6829H61.9546V58.3081C65.6758 59.2879 68.4942 61.4761 70.2149 63.1567V91.6829H73.9467C70.4367 97.4315 63.8541 100.938 58.1772 99.6449V100.852C74.5329 102.72 81.4619 91.4908 81.4619 78.8531C81.4619 63.9687 71.8155 55.2584 61.9539 53.4929V31.5271H44.7553V53.7416C33.6106 56.9774 22.7108 66.5694 22.7108 82.4388C22.7108 106.866 46.284 122 66.8223 122C98.0011 122 122 100.178 122 69.5453C122 32.4554 87.3442 6 60.1335 6C28.9561 6 6 34.683 6 65.3287C6 81.1869 12.1522 94.4889 19.9103 103.741L20.4917 103.183C14.3508 95.7924 8.81307 84.2751 8.81307 68.4502C10.4308 34.9156 38.9747 16.0319 64.3703 16.0319C82.3332 16.0319 114.614 22.0332 114.614 65.5168C114.614 88.2085 97.8744 117.716 62.7004 117.716C44.6979 117.716 30.7177 103.74 30.7177 83.6805C30.7177 66.3136 40.1107 53.954 54.1067 53.954Z" fill="#236AB3"/>
<defs>
<linearGradient id="paint0_linear_264_1490" x1="64" y1="0" x2="64" y2="128" gradientUnits="userSpaceOnUse">
<stop stop-color="white"/>
<stop offset="1" stop-color="#EEEEEE"/>
</linearGradient>
</defs>
</svg>
