<svg width="128" height="128" viewBox="0 0 128 128" fill="none" xmlns="http://www.w3.org/2000/svg">
<path d="M79.7513 86.1368H6.14654C2.76594 86.1368 0 83.3709 0 79.9903C0 76.6097 2.76594 73.8438 6.14654 73.8438H79.7513C83.1319 73.8438 85.8979 76.6097 85.8979 79.9903C85.8979 83.3709 83.1319 86.1368 79.7513 86.1368Z" fill="#99CFAC"/>
<path d="M64.0757 123.785C58.0828 123.785 52.09 122.863 46.4044 121.172C43.1775 120.097 41.3335 116.716 42.4092 113.489C43.4848 110.262 46.8654 108.418 50.0923 109.494C54.5486 110.877 59.3121 111.645 64.0757 111.645C84.9739 111.645 103.106 98.2766 109.099 78.3003C110.021 75.0734 113.555 73.2294 116.782 74.1514C120.009 75.0734 121.853 78.6076 120.931 81.8346C113.094 106.882 90.3522 123.785 64.0757 123.785Z" fill="#49B881"/>
<path d="M121.853 54.9415H48.2481C44.8675 54.9415 42.1016 52.1756 42.1016 48.795C42.1016 45.4144 44.8675 42.6484 48.2481 42.6484H121.853C125.233 42.6484 127.999 45.4144 127.999 48.795C127.999 52.1756 125.233 54.9415 121.853 54.9415Z" fill="#99CFAC"/>
<path d="M13.0583 54.9406C12.4437 54.9406 11.829 54.787 11.2144 54.6333C7.98744 53.7113 6.14348 50.1771 7.06546 46.9501C14.9023 21.903 37.6445 5 64.0746 5C70.0675 5 76.0604 5.92198 81.7459 7.61228C84.9728 8.68792 86.8168 12.0685 85.7411 15.2955C84.6655 18.5224 81.2849 20.3663 78.058 19.2907C73.6017 17.9077 68.8382 17.1394 64.0746 17.1394C43.1764 17.1394 25.0441 30.5081 19.0512 50.4844C18.1292 53.2503 15.6706 54.9406 13.0583 54.9406Z" fill="#49B881"/>
<path d="M100.498 31.5821C103.893 31.5821 106.645 28.8302 106.645 25.4356C106.645 22.041 103.893 19.2891 100.498 19.2891C97.1035 19.2891 94.3516 22.041 94.3516 25.4356C94.3516 28.8302 97.1035 31.5821 100.498 31.5821Z" fill="#99CFAC"/>
<path d="M27.5059 109.645C30.9006 109.645 33.6525 106.893 33.6525 103.498C33.6525 100.103 30.9006 97.3516 27.5059 97.3516C24.1113 97.3516 21.3594 100.103 21.3594 103.498C21.3594 106.893 24.1113 109.645 27.5059 109.645Z" fill="#99CFAC"/>
</svg>
