<svg width="128" height="128" viewBox="0 0 128 128" fill="none" xmlns="http://www.w3.org/2000/svg">
<path fill-rule="evenodd" clip-rule="evenodd" d="M64 0C99.2498 0 128 28.7502 128 64C128 99.2498 99.2505 128 64 128C28.7502 127.999 0 99.2498 0 64C0 28.7502 28.7502 0 64 0Z" fill="url(#paint0_linear_2800_1900)"/>
<path fill-rule="evenodd" clip-rule="evenodd" d="M49.5431 59.4215C46.4764 60.8456 46.0759 66.1186 45.3186 69.14L44.6565 71.6797C44.4028 72.4347 44.1178 73.2287 43.9976 74.0477C43.7236 75.8933 43.7665 79.4401 46.122 79.4401L46.7637 79.3691C47.4492 78.8304 47.8021 78.7742 48.1495 77.8631C48.4634 77.0285 48.4228 76.0034 48.4852 75.0384C48.5859 74.2358 48.6859 73.4324 48.7842 72.6291C49.0271 71.027 49.3347 69.4461 49.622 67.8682C49.8531 66.5769 50.3168 65.3394 50.5299 64.0325C50.7439 62.7092 51.5433 59.7416 49.5431 59.4215ZM59.093 52.3224C58.6347 52.4731 58.1889 52.5309 57.8079 52.8143C57.3004 53.189 57.0123 53.7769 56.6985 54.2812C56.2402 55.0151 55.7928 55.7545 55.3783 56.504C55.2487 56.7327 55.08 57.0099 54.8528 57.1699C54.4609 57.4408 53.9659 57.5626 53.6966 58.0131C53.2 58.836 53.0486 59.7682 52.8659 60.7644C52.5809 62.3087 52.3202 63.8795 52.1913 65.5276C52.093 66.7471 51.9907 70.5508 52.5973 71.3705C52.8885 71.7679 53.4608 71.8452 53.9628 71.8452C54.2111 71.7453 54.66 71.7742 54.9598 71.7742C55.3962 71.5056 55.8397 71.3057 56.1223 70.8217C56.3778 70.3827 56.5709 69.9102 56.6961 69.418C57.088 67.8495 57.2106 66.1592 57.4269 64.5275C57.5089 63.7491 57.5916 62.9699 57.672 62.19C57.7321 61.9081 57.8539 61.4179 58.142 61.2851C58.5293 61.1032 59.146 61.4093 59.5918 61.4093C59.7761 61.3273 59.9611 61.2453 60.1438 61.1602C60.4577 60.9978 60.7161 60.6816 60.9081 60.3904C61.0729 60.0001 61.2399 59.612 61.4047 59.2217C62.0972 57.198 61.9457 55.2212 60.7231 53.5356C60.111 52.6909 60.3445 52.5215 59.093 52.3224ZM49.8289 46.9978C49.508 47.1798 49.1613 47.3328 48.9607 47.6724C48.6843 48.1315 48.582 48.6811 48.5375 49.2666C48.4235 50.6977 48.6289 52.0819 50.0693 52.6011C50.9828 52.929 51.7284 51.9843 52.0805 51.352C52.1117 51.2918 52.2319 51.1857 52.1094 51.1857C52.4326 49.9763 52.1804 47.7052 50.9336 47.1345C50.6346 46.9978 50.2052 46.9978 49.8289 46.9978ZM80.331 44.9391C79.9696 45.128 79.619 45.3193 79.3778 45.6753C78.6821 46.6965 78.3878 48.0362 78.063 49.2432C77.6969 50.5876 77.319 51.9625 77.02 53.3272C76.6523 54.9909 76.3845 56.6375 75.9207 58.2169C75.5881 59.3372 75.2282 61.9238 76.7733 62.2962C77.7585 62.5319 78.8726 61.9527 79.3536 61.1657C80.0016 60.0945 80.0593 58.5893 80.2834 57.2964C80.5044 56.0168 81.0337 54.8184 81.2078 53.545C81.3265 52.5668 81.4475 51.5909 81.5646 50.6118C81.8129 49.3986 82.7294 48.4313 82.5038 47.0041C82.3055 45.7596 81.7184 44.9836 80.331 44.9391ZM96.9347 36.775C96.3539 37.0373 95.7441 37.0662 95.2452 37.5073C94.2311 38.3943 93.3418 39.5044 92.5283 40.5444C92.1559 41.0034 91.7843 41.4633 91.4119 41.92C91.2229 42.0949 90.874 42.383 90.5929 42.383C90.5195 42.2737 90.3798 42.1191 90.3798 41.9567C90.2658 41.5468 90.2837 41.1338 90.0487 40.7856C89.2891 39.652 87.7128 40.8442 87.2873 41.6959C86.9079 42.4525 86.7798 43.3238 86.4839 44.1295L84.7195 49.9217C84.6219 50.668 84.5243 51.4129 84.4236 52.1584C84.1995 52.9478 83.8943 53.6621 83.7561 54.5233C83.5851 55.5679 83.201 58.1771 84.1254 58.8938C84.4291 59.1272 84.7585 59.1975 85.1778 59.2045C86.6494 59.2271 87.3888 58.0443 87.7948 56.86C88.766 54.0025 89.5943 51.1115 90.8263 48.3914C91.3892 47.1399 91.8374 46.2327 92.8437 45.2014C93.0998 44.9352 93.3895 44.5956 93.7478 44.5003C94.3669 44.334 94.6277 44.8243 94.6199 45.3638C94.6074 46.1508 94.3818 46.9768 94.249 47.7107C94.0632 48.7904 93.8782 49.874 93.6908 50.9538C93.5308 51.7033 93.2107 52.808 93.2489 53.5981C93.2684 54.0619 93.4332 54.5084 93.6986 54.8387C94.0054 55.222 94.6941 55.4843 94.6605 56.0785C94.6027 57.0544 91.1394 58.9601 90.3072 59.2724C88.7473 59.8541 87.4021 60.9744 86.0709 61.9995C85.4151 62.4632 84.7624 62.927 84.1082 63.3884C83.1096 64.0957 81.9963 64.7149 80.9213 65.2762C80.1905 65.7509 79.4605 66.2287 78.7298 66.7026C78.1317 67.057 77.536 67.4123 76.938 67.7652C76.3649 68.1602 75.7896 68.5576 75.2149 68.9526C74.6778 69.3118 74.2422 69.8598 73.6777 70.1713C73.5996 70.2112 73.0617 70.3712 73.0617 70.2135H72.9899C72.9899 69.4187 73.1609 68.6739 73.2366 67.9377L73.2842 65.7407C73.3389 65.0311 73.3974 64.3237 73.4536 63.6133C73.6004 61.9245 74.0298 60.2835 74.3866 58.7056C74.6919 57.3393 74.937 55.9262 75.2493 54.5904C75.446 53.7449 76.3501 50.191 74.905 49.9474C73.9806 49.7897 72.8665 50.4042 72.3645 51.1232C71.5166 52.3232 71.1505 53.7699 70.6797 55.1525C70.0145 57.0973 69.1994 59.1678 68.2719 60.9713C68.0174 61.4631 66.8003 64.0364 66.2194 64.0364C65.797 63.3135 66.0929 62.0229 66.2959 61.2687C66.3123 61.2008 66.413 61.0556 66.2912 61.0556C66.5981 60.317 66.7566 59.2849 67.0189 58.5065C67.3577 57.4924 67.8988 56.486 68.3976 55.5468C68.6326 55.1026 69.0214 54.5022 69.3962 54.1446C69.6733 53.9221 69.9529 53.7012 70.23 53.4787C70.8794 52.8846 71.3277 52.1031 71.5127 51.2427C71.786 50.0091 71.4534 47.4624 69.9927 47.3203C69.6499 47.2859 69.2713 47.4405 68.9957 47.5537C67.1305 48.3079 66.4614 50.5626 65.6987 52.1639C64.1622 55.3836 62.8498 58.7033 62.1214 62.3422C61.7794 64.0458 61.7724 65.85 61.6092 67.6449C61.4406 69.4827 61.3758 71.7656 62.6991 73.0015C64.0982 74.3084 66.7277 71.8921 67.6138 70.8295C67.8012 70.6031 68.7989 69.0768 68.9996 69.0768V69.0065H69.0698V69.1486C69.3384 69.8989 69.1518 70.9739 69.1417 71.775C69.1237 72.882 68.8856 74.449 68.3766 75.2828C68.0151 75.8652 67.474 76.1993 66.9814 76.6467C65.9946 77.5367 64.9156 78.2745 63.9889 79.2004C63.1449 80.0389 62.5844 81.082 61.6444 81.8315C60.9316 82.3975 60.015 82.6263 59.2397 83.0627C58.7518 83.3359 58.4067 83.7708 57.9812 84.144C57.7009 84.3649 57.423 84.5867 57.1419 84.8092C56.1332 85.6617 55.8529 87.0257 54.7951 87.8532L53.6989 88.616C52.2226 89.759 50.7751 90.9613 49.3011 92.1066C48.123 93.0162 46.9581 93.9117 45.8472 94.9172C44.922 95.7034 44.0007 96.4888 43.0764 97.2719C42.814 97.5069 42.5509 97.7419 42.2855 97.9746C41.593 98.6108 40.9028 99.2479 40.2103 99.8827C39.3726 100.713 38.602 101.646 37.6402 102.36C36.9094 102.899 36.01 103.387 35.4557 104.158C35.2597 104.429 35.0388 104.719 34.9076 105.018C34.5758 105.771 34.1948 107.838 34.8139 108.524C36.3356 110.207 40.3368 105.338 41.4446 104.395C43.1857 102.907 44.6964 101.138 46.371 99.5743C49.4276 96.7045 52.4165 93.7635 55.3353 90.7536C55.9583 90.1103 56.7359 89.7699 57.4472 89.3007C58.1857 88.8081 58.7736 88.0984 59.3459 87.4316C59.6184 87.1584 59.8893 86.889 60.1618 86.615C61.1385 85.746 62.1167 84.8763 63.0942 84.0042C63.5977 83.6428 64.138 83.4273 64.6236 83.0276C64.7883 82.8152 64.9539 82.6021 65.1155 82.3897C65.5214 81.8838 66.178 81.178 66.7636 80.9422C66.8885 80.8915 67.1602 80.8954 67.2656 80.9688C67.4561 81.1 67.5053 81.3435 67.5295 81.5746C67.4795 82.118 67.4303 82.6622 67.3788 83.2056C67.2718 84.9091 67.1657 86.6142 67.0556 88.3185C67.0985 89.969 66.9627 91.7733 66.9385 93.4284L66.9447 95.9134C66.9205 97.4483 66.9923 99.1254 67.0649 100.67C67.1368 102.191 67.1368 103.721 67.2297 105.211C67.2953 106.087 67.3593 106.964 67.4233 107.84L67.364 110.183C67.364 111.661 67.5412 114.841 68.5444 115.664C68.8996 115.957 69.2947 116.039 69.7873 116.01C70.2589 115.979 70.6594 115.873 71.0209 115.653C73.3147 114.239 71.8945 109.591 71.7165 107.34L71.0943 102.44L70.5868 96.7629C70.4666 95.5114 70.465 94.2115 70.465 92.9342C70.465 89.6348 70.6742 86.241 71.1661 83.1392C71.4097 81.5793 71.704 79.6447 72.3263 78.2675C72.8923 77.0027 74.0431 75.8137 75.1673 74.951C75.6748 74.6246 76.183 74.299 76.6921 73.9704C77.6844 73.3372 78.6486 72.5151 79.5042 71.6657C80.0398 71.1301 80.4723 70.511 81.0704 70.0347C81.8589 69.4008 82.7404 69.0409 83.5757 68.5318C84.1019 68.2102 84.5212 67.6473 85.0271 67.2991C86.3793 66.3606 87.9275 65.6486 89.35 64.8452L91.198 63.5937C94.1454 61.8157 97.1549 60.1426 100.221 58.5776C102.273 57.5259 104.316 56.4899 106.534 55.756C107.436 55.3789 108.339 55.0011 109.237 54.6216C109.71 54.3843 110.241 54.0494 110.775 53.9268C111.669 53.7183 112.699 54.1376 113.459 54.3281C113.806 54.4155 114.3 54.3812 114.686 54.3812L115.584 54.0486C115.997 53.8737 116.384 53.5317 116.679 53.1789C116.973 52.8213 117.177 52.3357 117.345 51.9055C117.969 50.2831 118.798 48.3227 116.99 46.9721C116.635 46.7059 116.18 46.4615 115.682 46.4396C114.225 46.3709 112.96 47.1649 111.813 47.738C111.378 47.8887 110.947 48.0401 110.512 48.1877C109.939 48.4406 109.448 48.9356 108.882 49.2128C108.3 49.4923 107.655 49.6406 107.09 49.9537C106.389 50.3128 105.687 50.6727 104.986 51.0295C104.06 51.5019 102.827 52.1944 101.711 52.2724C101.185 52.3052 100.357 52.0304 99.9725 51.7158C99.2543 51.1209 98.5251 50.3159 98.326 49.404C98.0317 48.0815 98.4056 46.5403 98.6024 45.2842L98.8054 43.0232C98.8741 42.1425 99.0505 41.2111 99.0817 40.2547C99.1075 39.4006 99.1333 38.3864 98.7234 37.6994C98.3229 37.0389 97.7459 36.7992 96.9347 36.775ZM85.2465 31.4505C84.9381 31.7362 84.5876 31.9095 84.3939 32.2999C84.1503 32.7832 84.1831 33.4109 84.1746 34.0042C84.1621 34.3103 84.1519 34.6163 84.1379 34.9224C84.2565 36.0958 85.0209 36.6774 86.2388 36.4526C87.0898 36.2933 87.1921 35.2745 87.3381 34.5788C87.445 34.055 87.6753 33.4117 87.559 32.8058C87.4919 32.4662 87.3029 32.1032 87.0265 31.8783C86.5487 31.4887 85.9452 31.4505 85.2465 31.4505ZM61.5866 8.30664C61.1213 8.49792 60.5982 8.70091 60.2531 9.10532C59.3443 10.1593 58.7791 11.4171 58.1202 12.6108C56.9421 14.7297 55.6039 16.8345 54.7264 19.0885C54.4921 19.61 54.2587 20.1307 54.0221 20.6523L53.4366 22.1669C53.1157 22.9187 52.9557 23.7416 52.6371 24.4723C52.3256 25.1797 51.758 25.7434 51.4036 26.4109L50.0069 29.1926C49.7391 29.7938 49.4744 30.3942 49.2074 30.9938C48.8202 31.7237 48.3634 32.4256 48.0184 33.1728C47.3305 34.6569 46.8441 36.2629 46.2883 37.8157L45.0383 40.8465L43.6557 44.1341C42.355 46.8651 41.397 49.8108 40.3017 52.6534L39.4952 54.8762L37.4442 60.7714C36.0077 64.9085 35.1395 69.2704 33.7537 73.4161C33.4328 74.3701 33.1284 75.3374 32.8918 76.3203C32.6849 77.1706 32.5982 78.2198 32.0299 78.8803C31.912 79.0162 31.6778 79.1442 31.5091 79.0068C31.1328 78.6977 31.0056 73.2654 30.9251 72.2692C30.6066 68.3554 30.7268 64.1199 30.7916 60.2007C30.8424 56.906 30.7807 53.4943 30.7292 50.191L30.6581 47.706C30.6581 46.0555 30.7112 41.3587 28.9405 41.0659C27.0348 40.7489 25.6919 45.1873 25.1993 46.399C24.6622 47.7169 24.5045 49.2495 24.1422 50.6673C23.8408 51.8274 23.4317 52.9189 23 53.9994C21.6236 57.4205 19.4211 60.424 18.1314 63.8935C17.862 64.6165 17.5591 65.3949 17.4295 66.1678C17.2585 67.1617 17.3249 69.2844 18.1915 69.8395C18.8333 70.2486 19.7686 70.1253 20.3073 69.628C20.8108 69.1595 21.1091 67.8542 21.4409 67.1944C21.7391 66.5683 22.0374 65.9453 22.334 65.3199C22.7213 64.4947 23.249 63.721 23.623 62.8731C24.0836 61.827 24.2445 60.6239 24.6895 59.5707C24.8815 59.2287 25.0728 58.8875 25.2641 58.5432C25.5335 57.9741 25.8028 57.4034 26.0722 56.8303C26.1127 56.7616 26.208 56.6507 26.3103 56.6507V56.7218C26.5468 57.1941 26.6085 57.8023 26.6803 58.3519C26.7943 59.2279 26.9138 60.1086 26.9583 61.0501C27.1035 64.1668 27.1659 67.3506 27.1659 70.5648C27.1659 73.4488 27.3244 76.336 27.6906 79.0794L28.1458 82.0649C28.4128 84.468 28.4128 86.9484 28.647 89.3772C28.8359 91.1986 29.0249 93.0224 29.2154 94.8438C29.3371 95.9509 29.231 97.8301 29.8719 98.6038C30.3326 99.1613 31.0009 99.1035 31.7269 99.1035C32.1829 98.7865 32.5061 98.806 32.8848 98.2845C33.5554 97.357 33.4016 96.0415 33.4414 94.7728C33.4859 93.2972 33.5257 91.7584 33.6663 90.3C33.9263 87.5597 34.3057 84.8841 34.8826 82.2812C35.1075 81.2608 35.5103 80.2981 35.7461 79.284C35.8507 78.6719 35.9577 78.0598 36.0623 77.4469C36.0912 76.7833 36.0553 76.0713 36.1693 75.4662C36.3972 74.2257 36.9625 73.1631 37.4075 72.0451C37.5504 71.6789 37.5457 71.2152 37.5964 70.7873C37.6925 70.3369 37.7908 69.8895 37.8861 69.4383C38.3514 67.7784 38.8175 66.1194 39.2805 64.4572C39.3047 64.3487 39.5896 63.6054 39.4944 63.6054C39.7528 63.066 39.8301 62.4203 40.0245 61.8441L41.3002 57.5782L44.5074 47.4288C45.0379 45.8961 45.5673 44.363 46.0954 42.8296C47.4289 39.8566 48.9685 36.8999 50.2778 33.909C50.8321 32.6356 51.2935 31.2959 51.7034 29.9382C51.9556 29.095 52.0196 28.3284 52.3982 27.5453C52.7495 26.8106 53.4405 26.3289 53.9214 25.6684C54.6764 24.6238 55.4782 23.6182 56.0637 22.4823C57.0841 20.4969 57.6002 17.9915 59.805 16.8962C60.0415 16.7767 60.2555 16.5831 60.5334 16.5386C61.3485 16.4004 61.6756 18.0712 62.0613 18.5552C62.2104 18.741 62.4438 18.8745 62.6492 18.9589C63.0278 19.1142 63.4486 18.9518 63.8671 18.9518C64.2504 18.6505 64.5776 18.4241 64.7649 17.947C65.5222 16.003 64.7673 10.8893 63.6852 9.39653C63.1574 8.6728 62.5227 8.36676 61.5866 8.30664Z" fill="white"/>
<defs>
<linearGradient id="paint0_linear_2800_1900" x1="64" y1="0" x2="64" y2="128" gradientUnits="userSpaceOnUse">
<stop stop-color="#FF4048"/>
<stop offset="1" stop-color="#CC2229"/>
</linearGradient>
</defs>
</svg>
