<svg width="128" height="128" viewBox="0 0 128 128" fill="none" xmlns="http://www.w3.org/2000/svg">
<rect width="128" height="128" rx="24" fill="url(#paint0_linear_183_1945)"/>
<path d="M21.2878 47H21.9089C25.2292 47.1227 28.5123 48.0348 31.44 49.6011C30.3298 51.7774 29.2214 53.9545 28.1087 56.1283C26.6711 54.953 24.9221 54.0603 23.0402 53.9613C21.9047 53.9046 20.6735 54.1407 19.8231 54.9479C19.0345 55.6595 18.8221 56.9465 19.3772 57.8578C19.813 58.4848 20.4925 58.8918 21.177 59.199C22.1873 59.6627 23.2788 59.8996 24.3298 60.2516C25.808 60.7119 27.26 61.2941 28.5749 62.1191C29.6444 62.7901 30.6234 63.6379 31.3274 64.6939C32.4088 66.2991 32.7887 68.2774 32.7574 70.1871C32.7464 72.597 32.0357 75.061 30.4669 76.9242C28.9337 78.7832 26.6914 79.9314 24.3763 80.4848C23.1037 80.7886 21.7938 80.9155 20.4865 80.9307H19.8722C15.9875 80.8639 12.1672 79.5473 9 77.3101V77.3007C10.1939 75.0559 11.3878 72.8111 12.5826 70.5671C14.1818 71.9759 16.0358 73.1876 18.1435 73.6513C19.3231 73.9017 20.5779 73.9517 21.7431 73.6031C22.6095 73.3475 23.344 72.7036 23.729 71.8888C24.07 71.1323 24.0454 70.2193 23.6841 69.4755C23.2467 68.6607 22.3912 68.1953 21.5747 67.8348C19.7563 67.0623 17.8415 66.5512 16.0087 65.8176C14.7894 65.359 13.6411 64.6871 12.6909 63.7919C11.8795 63.0092 11.2499 62.0412 10.8455 60.9903C10.2938 59.441 10.2438 57.7571 10.3987 56.1342C10.6618 53.5061 11.9302 50.9439 14.0287 49.3066C16.0772 47.7023 18.7155 47.0127 21.2878 47Z" fill="white"/>
<path d="M36.4535 80.0362C36.451 69.3214 36.4518 58.6074 36.4535 47.8926C39.2399 47.8934 42.0263 47.8917 44.8135 47.8934C44.8143 56.2466 44.8135 64.6007 44.8135 72.9539C48.5806 72.9556 52.3485 72.9531 56.1156 72.9556C56.1156 75.3156 56.1156 77.6755 56.1156 80.0354C49.5613 80.0371 43.007 80.0354 36.4535 80.0362Z" fill="white"/>
<path d="M60.1458 54.2404C60.1297 52.125 60.1415 50.0088 60.1398 47.8934C62.0301 47.8934 63.9204 47.8934 65.8108 47.8926C69.8901 58.6083 73.9812 69.3189 78.0487 80.0388C75.077 80.0354 72.1053 80.0379 69.1344 80.0371C68.3052 77.6789 67.4954 75.313 66.6586 72.9582C64.4857 72.9649 62.3119 72.9607 60.139 72.9607C60.139 70.8411 60.1373 68.7223 60.1398 66.6036C61.5766 66.6044 63.0134 66.6044 64.4493 66.6036C63.0184 62.482 61.5707 58.3646 60.1458 54.2404Z" fill="white"/>
<path d="M74.6403 47.8936C82.0077 47.8927 89.3743 47.8919 96.7409 47.8936C96.7409 50.2535 96.7418 52.6134 96.7409 54.9742C94.4513 54.975 92.1616 54.9742 89.8719 54.9742C89.8693 63.3291 89.8744 71.6832 89.8693 80.0372C87.0829 80.0347 84.2966 80.0381 81.5102 80.0355C81.5085 71.6823 81.511 63.3282 81.5093 54.9742C79.2196 54.9742 76.93 54.975 74.6403 54.9742C74.6394 52.6134 74.6403 50.2535 74.6403 47.8936Z" fill="white"/>
<path d="M100.697 47.8936C106.798 47.8919 112.899 47.8928 119 47.8928V54.9742C115.688 54.9742 112.376 54.9751 109.065 54.9742C109.062 56.7613 109.065 58.5484 109.063 60.3355C112.376 60.338 115.687 60.3355 119 60.3363V67.4178C115.687 67.4186 112.376 67.4161 109.063 67.4195C109.064 69.2641 109.064 71.1087 109.063 72.9533C112.375 72.9575 115.687 72.9533 119 72.955V80.0365C112.899 80.0365 106.798 80.0373 100.697 80.0356C100.696 69.3216 100.696 58.6076 100.697 47.8936Z" fill="white"/>
<defs>
<linearGradient id="paint0_linear_183_1945" x1="64" y1="0" x2="64" y2="128" gradientUnits="userSpaceOnUse">
<stop stop-color="#484848"/>
<stop offset="1"/>
</linearGradient>
</defs>
</svg>
