<svg width="128" height="128" viewBox="0 0 128 128" fill="none" xmlns="http://www.w3.org/2000/svg">
<path d="M82.1017 114.468L84.3242 118.756C84.7338 119.549 85.1347 120.334 85.5618 121.118C85.6838 121.345 85.649 121.441 85.4136 121.563C81.0013 123.839 76.3144 125.538 71.4685 126.618C69.3082 127.094 67.123 127.449 64.923 127.681C64.0514 127.768 63.1798 127.838 62.2647 127.899C60.2339 128.038 58.1944 128.012 56.1637 127.951C54.1366 127.854 52.1169 127.639 50.115 127.306C45.1785 126.571 40.3625 125.178 35.795 123.166C23.0775 117.668 12.7716 107.765 6.7717 95.276C4.51274 90.6683 2.90248 85.77 1.98677 80.7207C1.65557 78.9776 1.43768 77.1647 1.23722 75.378C1.03402 72.9432 0.961282 70.4993 1.01932 68.0568C1.02888 66.7746 1.11328 65.4941 1.27208 64.2218C2.46293 52.7181 7.05036 41.8291 14.4502 32.9411C19.3728 27.0249 25.434 22.1582 32.2739 18.6299C37.5662 15.8892 43.2484 13.9785 49.1214 12.9647C50.6728 12.6945 52.2329 12.4853 53.8017 12.3633L55.7802 12.25C56.8174 12.1716 57.8458 12.1367 58.883 12.1367V50.6079C58.36 50.6776 57.8197 50.6863 57.288 50.7212C56.3027 50.7801 55.3251 50.9318 54.3682 51.1744C50.3383 52.1452 46.7236 54.3774 44.0506 57.5457C41.3777 60.714 39.7862 64.653 39.5079 68.7889C39.3799 70.291 39.4531 71.8035 39.7258 73.2862C40.0734 75.3447 40.7565 77.3321 41.7479 79.1693C43.3013 82.1249 45.5929 84.6285 48.3999 86.4367C51.2069 88.2449 54.4339 89.2963 57.7674 89.4887C59.5212 89.6143 61.2839 89.4762 62.9968 89.0791C64.7155 88.705 66.3813 88.1195 67.956 87.3359L68.3831 88.1639L80.5241 111.417C81.0122 112.42 81.5613 113.44 82.1017 114.468Z" fill="#0078D2"/>
<path d="M58.8395 50.5986V12.1275C58.8395 11.5261 58.8395 10.9247 58.8395 10.3233C58.8395 7.04619 58.8395 3.76909 58.8395 0.483264C58.8395 -0.0571108 58.7784 0.0474703 59.3188 0.0126075C60.4032 -0.0194546 61.4886 0.00964925 62.5698 0.09977C63.6767 0.16078 64.7923 0.247935 65.8992 0.369955C66.8405 0.474544 67.7818 0.561705 68.7144 0.701157C69.9781 0.875471 71.2245 1.10207 72.4708 1.34611C73.9699 1.64245 75.4603 1.97364 76.9246 2.36585C78.8595 2.88879 80.7769 3.47275 82.6595 4.17001C84.0976 4.71038 85.527 5.25947 86.9302 5.91315C88.3334 6.56683 89.8325 7.22923 91.2358 7.96135C93.5306 9.17092 95.7619 10.4975 97.9207 11.9357C101.79 14.5035 105.382 17.4652 108.641 20.7735C113.566 25.7079 117.72 31.3549 120.965 37.5251C123.136 41.6992 124.888 46.0785 126.195 50.5986C126.29 50.9298 126.195 51.0344 125.898 51.1216C123.815 51.6881 121.741 52.2895 119.658 52.8647C119.562 52.8647 119.475 52.9345 119.379 52.9693C118.507 53.2221 117.549 53.4661 116.633 53.7276L90.8261 61.0314L77.6044 64.7791L77.4475 64.3608C76.2176 60.3804 73.7462 56.8981 70.3948 54.4234C67.0434 51.9487 62.9881 50.6115 58.822 50.6074L58.8395 50.5986Z" fill="#12BCEE"/>
<path d="M77.6219 64.7707L90.8437 61.023L116.651 53.7192C117.523 53.4577 118.481 53.2137 119.396 52.9609C119.877 54.5782 120.276 56.2189 120.59 57.8766C121.684 63.4508 122.021 69.147 121.593 74.8112C121.28 78.9135 120.573 82.9762 119.484 86.9435C119.37 87.3444 119.222 87.3532 118.891 87.2573C114.951 86.1155 111.047 84.9999 107.072 83.8756L106.602 83.7274L96.7878 80.921C94.0162 80.1366 91.2533 79.3347 88.4817 78.5416L77.5784 75.4301C77.5784 75.3255 77.5784 75.2296 77.6481 75.1337C78.312 72.6548 78.4837 70.0699 78.1536 67.5249C78.0403 66.6098 77.805 65.6859 77.6219 64.7707Z" fill="#D5E042"/>
<path d="M77.5783 75.4297L88.4816 78.5412C91.2532 79.3343 94.0161 80.1362 96.7877 80.9206L106.602 83.7271L107.072 83.8752C106.186 86.9143 105.019 89.8642 103.586 92.6868C98.8878 101.965 91.423 109.555 82.2237 114.406L82.0843 114.467C81.5439 113.439 80.9948 112.419 80.4544 111.382L68.3309 88.1285L67.9038 87.3005L68.2176 87.1C70.4963 85.8581 72.5003 84.1682 74.1094 82.1321C75.6859 80.1418 76.8637 77.8661 77.5783 75.4297Z" fill="#76C249"/>
</svg>
