<svg width="129" height="128" viewBox="0 0 129 128" fill="none" xmlns="http://www.w3.org/2000/svg">
<g clip-path="url(#clip0_2863_8501)">
<path d="M64.0002 127.413C99.0222 127.413 127.413 99.0219 127.413 64C127.413 28.9781 99.0222 0.587158 64.0002 0.587158C28.9783 0.587158 0.587402 28.9781 0.587402 64C0.587402 99.0219 28.9783 127.413 64.0002 127.413Z" fill="white"/>
<path d="M86.7148 35.7249H67.5535C67.5535 35.7249 67.5418 48.5637 67.5653 48.903C67.6052 49.4103 67.712 50.8313 70.3695 52.6103L77.0748 56.7568C77.0748 56.7568 81.5501 54.3072 84.0808 52.6103C86.3801 51.0685 86.6831 49.7955 86.7101 48.9723C86.7382 48.5731 86.7148 35.7249 86.7148 35.7249ZM78.7882 48.4862C78.2245 48.6189 77.1594 48.8678 76.746 48.9641C76.6826 48.5848 76.4395 47.1568 76.2035 45.7664C76.3667 45.6901 76.4395 45.6572 76.584 45.5903C76.8223 45.9027 78.356 47.919 78.7882 48.4862ZM76.7777 44.8117C76.7777 44.8117 76.3221 45.0231 76.0955 45.1276C76.0403 44.8059 75.877 43.8488 75.877 43.8488H73.1914C73.1914 43.8488 73.0834 44.8012 73.0458 45.1347H71.3301L70.5985 47.562H68.5564C68.5528 46.4452 68.5505 44.7237 68.5505 42.8248L69.9702 43.7443L68.9697 44.1424L69.295 44.955C69.295 44.955 76.7683 41.9687 77.1641 41.8102C77.5269 42.0415 85.7154 47.279 85.7154 47.279L85.7248 47.2649V47.562H78.8704L76.7777 44.8117ZM75.6962 46.5133C75.789 47.0605 75.8876 47.6395 75.9745 48.155H73.3311C73.3875 47.663 73.4533 47.0782 73.5178 46.5133H75.6962ZM73.6036 45.7629C73.6752 45.1323 73.7327 44.6238 73.7492 44.4747H75.3498C75.3733 44.6109 75.4602 45.1182 75.5694 45.7629H73.6036ZM71.5015 46.7317C71.6389 46.2796 71.754 45.8944 71.7951 45.7606H72.9741C72.9366 46.0894 72.899 46.4194 72.8637 46.7317H71.5015ZM72.7792 47.4821C72.7134 48.0599 72.6618 48.5108 72.643 48.6787H70.9156C70.9872 48.4415 71.1281 47.9753 71.2761 47.4821H72.7792ZM75.8348 40.987C75.8348 40.2343 76.4477 39.6213 77.2017 39.6213C77.9556 39.6213 78.5686 40.2343 78.5686 40.987C78.5686 41.1948 78.5063 41.3898 78.4183 41.573L77.258 40.8308L75.8935 41.3757C75.8559 41.25 75.8348 41.1209 75.8348 40.987ZM85.726 46.2467L83.6216 44.901L85.726 43.9181V46.2467ZM69.1165 36.7254L74.6557 39.5966L75.001 38.9308L70.7465 36.7254H74.6581L75.7901 38.5456L76.4266 38.1499L75.5412 36.7254H78.6883L77.8205 38.0982L78.4547 38.4986L79.5761 36.7254H83.5476L79.3835 38.8897L79.7288 39.5555L85.1729 36.7254H85.7178C85.7189 37.8598 85.7213 39.1022 85.7225 40.347H80.2337V41.0962H85.7236C85.7248 41.7256 85.7248 42.348 85.7248 42.9528L82.7491 44.3432L79.09 42.0028C79.2579 41.6916 79.353 41.3463 79.353 40.987C79.353 39.8009 78.3877 38.8357 77.2017 38.8357C76.0156 38.8357 75.0491 39.8009 75.0491 40.987C75.0491 41.2207 75.0973 41.4462 75.1701 41.6646L70.9649 43.3462L68.5505 41.7844V41.0962H74.1708V40.347H68.5505C68.5505 39.1022 68.5517 37.8633 68.5529 36.7254H69.1165ZM83.5242 51.7801C83.5195 51.7836 83.5136 51.7871 83.5089 51.7907H76.4795V52.6655H82.1408C80.1457 53.9009 77.8346 55.1856 77.0936 55.5931C76.6544 55.3218 70.9261 51.7801 70.9261 51.7801C69.4312 50.7784 68.6362 49.799 68.5658 48.8678C68.5634 48.8244 68.5611 48.674 68.5599 48.438H70.3355L70.0748 49.3035H73.202C73.202 49.3035 73.2184 49.1532 73.2466 48.9054H76.1025C76.1788 49.3516 76.2293 49.6546 76.2387 49.7039H70.0712L70.4235 50.5694H78.9068C78.9244 50.5635 80.0599 49.7039 80.0599 49.7039H76.3244L79.8697 48.876L79.5362 48.438H85.7213C85.7201 48.6553 85.7178 48.7962 85.7154 48.8349C85.699 49.287 85.6637 50.3451 83.5242 51.7801ZM60.4301 35.7249H41.2701C41.2701 35.7249 41.256 48.5637 41.2806 48.9042C41.3194 49.4103 41.4274 50.8313 44.0849 52.6103L50.7867 56.7568L51.0309 56.6112C51.0732 56.5889 55.2655 54.3072 57.7962 52.6103C60.0931 51.072 60.3973 49.799 60.4266 48.9747C60.4536 48.5637 60.4301 35.7249 60.4301 35.7249ZM59.432 36.7254C59.4343 38.0735 59.4367 39.5731 59.439 41.0481H42.2671C42.2671 39.5719 42.2682 38.077 42.2694 36.7254H59.432ZM56.8696 52.0208C56.3529 52.359 55.7916 52.709 55.2115 53.0613V41.9229H56.8696V52.0208ZM54.2744 41.9229V53.6202C53.6919 53.9631 53.1259 54.2908 52.6163 54.5808V41.9229H54.2744ZM44.8294 41.9229H46.4887V52.9239C45.7418 52.4612 45.123 52.0784 44.8294 51.8964V41.9229ZM47.4258 41.9229H49.0839V54.528C48.5661 54.2086 47.9907 53.8528 47.4258 53.5016V41.9229ZM42.2811 48.8678C42.2694 48.6576 42.2659 46.0119 42.2659 42.8729V41.9229H43.8935V51.2282C42.8859 50.4191 42.3387 49.6264 42.2811 48.8678ZM50.8078 55.5931C50.7221 55.5402 50.4285 55.3594 50.021 55.1069V41.9229H51.6792V55.1093C51.3116 55.3148 50.9981 55.4886 50.8078 55.5931ZM59.432 48.8373C59.4167 49.2436 59.3709 50.1443 57.8067 51.3632V41.9229H59.439C59.4414 43.1677 59.4414 44.3702 59.4414 45.4142C59.4414 47.3271 59.439 48.7022 59.432 48.8373ZM93.9708 12.955L91.8042 11.924C91.8042 11.924 88.286 15.65 87.3266 16.667C87.5051 15.2825 88.1615 10.1918 88.1615 10.1918L85.8728 9.09973L84.7537 18.9358L87.1023 20.0525L93.9708 12.955ZM85.4218 18.5659C85.4665 18.1666 86.3037 10.8008 86.3918 10.0357C86.7817 10.2224 87.2573 10.4477 87.4886 10.5587C87.4452 10.8944 86.5691 17.6851 86.5691 17.6851L86.9813 17.9282L87.1481 17.7591C87.1481 17.7591 91.6551 12.9879 91.9463 12.679C92.1671 12.7836 92.5581 12.9703 92.9233 13.1441C92.3914 13.6936 87.2467 19.0086 86.9649 19.2998C86.6795 19.1636 85.706 18.7009 85.4218 18.5659ZM106.323 26.86C106.619 26.5852 106.776 26.2752 106.787 25.9358C106.81 25.3369 106.381 24.7897 105.915 24.2871L105.31 23.6377L103.13 25.6599L103.734 26.3104C104.098 26.7027 105.205 27.8934 106.323 26.86ZM105.277 24.5149C105.368 24.6124 105.46 24.7099 105.46 24.7099C105.81 25.088 106.167 25.5225 106.167 25.8924V25.9124C106.16 26.0838 106.074 26.2447 105.902 26.4044C105.424 26.8459 104.944 26.7015 104.189 25.8889C104.189 25.8889 104.098 25.7902 104.008 25.6939C104.299 25.4238 104.987 24.7838 105.277 24.5149ZM96.094 25.883L97.273 24.2695C97.273 24.2695 94.9173 22.5491 94.5028 22.2462C94.7412 21.9197 95.3448 21.093 95.5832 20.7665C95.9895 21.0624 98.1032 22.6055 98.1032 22.6055L99.2799 20.9908C99.2799 20.9908 97.1685 19.4489 96.7622 19.153C96.9853 18.8465 97.4445 18.2206 97.6676 17.9141C98.0809 18.2171 100.418 19.9234 100.418 19.9234L101.593 18.3099L96.9289 14.8997L91.4085 22.4599L96.094 25.883ZM97.064 15.7675C97.4785 16.0704 100.313 18.1419 100.727 18.4449C100.572 18.6586 100.438 18.8418 100.282 19.0544C99.8682 18.7526 97.5313 17.0475 97.5313 17.0475L95.8943 19.2881C95.8943 19.2881 98.0069 20.8299 98.4133 21.1259C98.2582 21.3396 98.1232 21.524 97.967 21.7377C97.5607 21.4406 95.4481 19.8975 95.4481 19.8975L93.635 22.3824C93.635 22.3824 95.9895 24.1016 96.404 24.4045C96.249 24.6183 96.114 24.8026 95.9578 25.0152C95.5432 24.7122 92.6908 22.6278 92.2751 22.3237C92.6039 21.8751 96.7352 16.2172 97.064 15.7675ZM113.14 58.8729L113.293 61.2415C113.293 61.2415 116.804 61.0161 116.966 61.0067C117.114 61.0818 122.845 64 122.845 64L122.692 61.4282C122.692 61.4282 119.956 60.0895 119.216 59.7243C119.909 59.2734 122.446 57.627 122.446 57.627L122.269 54.8462C122.269 54.8462 116.951 58.5406 116.814 58.6369C116.649 58.6486 113.14 58.8729 113.14 58.8729ZM117.025 59.2452C117.025 59.2452 120.966 56.5067 121.717 55.9853C121.753 56.5032 121.788 57.0927 121.8 57.3052C121.518 57.4861 117.96 59.8006 117.96 59.8006C117.96 59.8006 121.788 61.6807 122.093 61.8275C122.105 62.0248 122.128 62.4851 122.164 62.9537C121.353 62.5427 117.095 60.3761 117.095 60.3761L113.873 60.5816L113.8 59.4519L117.025 59.2452ZM107.359 36.0702C107.047 35.5629 106.86 34.9334 106.821 34.2523L106.794 33.7861L104.705 34.8031L104.845 35.2376C105.087 35.9809 105.231 36.4283 105.717 37.2104C106.365 38.2544 107.162 38.9132 108.02 39.114C108.714 39.276 109.421 39.1375 110.118 38.7041C111.748 37.6907 111.447 36.123 111.226 34.9769C111.07 34.1607 110.99 33.6499 111.332 33.4385C111.998 33.0252 112.449 33.5313 112.661 33.8683C112.952 34.3369 113.152 34.8876 113.238 35.4595L113.3 35.8729L115.213 34.9651L115.155 34.7197C114.997 34.048 114.701 33.3645 114.281 32.6858C113.712 31.7722 112.951 31.1639 112.136 30.9736C111.426 30.8069 110.698 30.949 109.974 31.3999C108.397 32.3793 108.678 33.9094 108.882 35.0274C109.043 35.8964 109.119 36.4412 108.711 36.6961C108.205 37.0084 107.614 36.4765 107.359 36.0702ZM109.037 37.2245C109.828 36.7325 109.657 35.8083 109.493 34.9146C109.292 33.8178 109.084 32.6834 110.302 31.9272C110.881 31.5678 111.449 31.4504 111.995 31.5772C112.648 31.7311 113.273 32.2407 113.752 33.0134C114.091 33.5595 114.33 34.102 114.484 34.6375C114.243 34.7514 114.034 34.8359 113.772 34.9604C113.651 34.452 113.454 33.9681 113.19 33.5407C112.777 32.8807 111.958 32.3194 111.004 32.9113C110.283 33.3587 110.452 34.2406 110.616 35.0943C110.833 36.2228 111.057 37.3877 109.789 38.1757C109.237 38.5198 108.69 38.6325 108.162 38.5092C107.284 38.3037 106.635 37.511 106.245 36.8839C105.817 36.1958 105.68 35.7907 105.464 35.1237C105.695 35.0121 105.926 34.8994 106.239 34.7479C106.316 35.1765 106.536 35.9175 106.832 36.3966C107.309 37.1646 108.245 37.7142 109.037 37.2245ZM82.2993 8.01819L80.0224 7.35118L77.3848 16.3347L79.663 17.004L82.2993 8.01819ZM78.1552 15.9131C78.3126 15.38 80.2866 8.65584 80.4428 8.12153C80.7598 8.2143 81.2119 8.34817 81.529 8.43977C81.3728 8.97408 79.3988 15.6982 79.2426 16.2325C78.9255 16.1397 78.4723 16.0059 78.1552 15.9131ZM118.523 47.6324C117.983 47.7769 111.406 49.4984 111.406 49.4984L112.009 51.7954L119.134 49.9306C119.251 50.3921 119.768 52.3532 119.768 52.3532L121.694 51.847L119.827 44.7037L117.901 45.2098C117.901 45.2098 118.406 47.1721 118.523 47.6324ZM119.381 45.4611C119.522 45.9825 120.802 50.8829 120.942 51.4031C120.684 51.4701 120.461 51.5288 120.203 51.5957C120.085 51.1342 119.568 49.172 119.568 49.172L112.452 51.0379C112.369 50.7185 112.249 50.2617 112.164 49.9411C112.715 49.7979 119.287 48.0763 119.287 48.0763C119.287 48.0763 118.77 46.114 118.653 45.6537C118.911 45.5868 119.134 45.5292 119.381 45.4611ZM109.835 44.9151L118.441 41.2219L117.502 39.0412L108.895 42.7344L109.835 44.9151ZM117.619 40.8966C117.111 41.1162 110.671 43.8805 110.16 44.1001C110.03 43.7971 109.843 43.3638 109.712 43.0597C110.223 42.8412 116.663 40.0757 117.175 39.8573C117.306 40.1603 117.49 40.5936 117.619 40.8966ZM41.6458 19.6051L40.623 17.8895C40.623 17.8895 38.1487 19.3609 37.7072 19.6227C37.416 19.1331 33.9424 13.2955 33.9424 13.2955L31.9014 14.5086L36.6903 22.5538L41.6458 19.6051ZM33.7263 14.1469C34.0175 14.6366 37.4911 20.4741 37.4911 20.4741C37.4911 20.4741 39.9666 19.0015 40.4069 18.7397C40.5432 18.9663 40.6594 19.1624 40.7945 19.3902C40.3529 19.6521 37.3467 21.4418 36.9051 21.7036C36.621 21.2245 33.0381 15.2038 32.7528 14.7259C33.0358 14.5568 33.4421 14.316 33.7263 14.1469ZM99.8823 29.5222C99.8823 29.5222 102.162 27.4061 102.543 27.0526C102.628 27.1442 102.715 27.2382 102.715 27.2382C102.926 27.4671 103.02 27.628 103.02 27.8124C103.02 27.9697 102.952 28.1459 102.83 28.3937C102.83 28.3948 101.451 31.2132 101.451 31.2132L103.24 33.1426L104.985 29.3684C105.049 29.2157 105.176 28.8892 105.196 28.5358C106.032 28.8857 106.978 28.7483 107.679 28.0966C108.25 27.5646 108.552 26.9833 108.575 26.3692C108.619 25.1714 107.609 24.0863 106.718 23.1281L105.13 21.4159L98.2688 27.7819L99.8823 29.5222ZM105.097 22.2931C105.392 22.6114 106.264 23.5508 106.264 23.5508C107.057 24.4045 107.956 25.3698 107.956 26.2964C107.956 26.3128 107.955 26.3304 107.955 26.348C107.938 26.7966 107.71 27.2205 107.256 27.6421C106.592 28.2586 105.666 28.2762 104.949 27.6879L104.74 27.5118L104.321 27.9263L104.49 28.1365C104.643 28.3279 104.619 28.6403 104.418 29.1159C104.421 29.11 103.477 31.1498 103.066 32.0399C102.751 31.7017 102.365 31.286 102.197 31.1028C102.357 30.774 103.386 28.6673 103.386 28.6673C103.545 28.3455 103.644 28.0707 103.644 27.8018C103.644 27.4859 103.507 27.1783 103.17 26.8166L102.576 26.1742C102.576 26.1742 100.296 28.2915 99.9164 28.645C99.6909 28.4031 99.3703 28.0578 99.146 27.8159C99.5535 27.4366 104.689 22.6724 105.097 22.2931ZM15.0817 36.8863C14.7212 36.7043 14.376 36.6655 14.053 36.7724C13.4835 36.9591 13.1195 37.5498 12.8094 38.1628L12.4102 38.9543L15.0618 40.2977L15.4634 39.5074C15.7041 39.0294 16.4381 37.578 15.0817 36.8863ZM13.2428 38.6806C13.3027 38.5632 13.3637 38.4423 13.3637 38.4423C13.5962 37.9831 13.8804 37.4969 14.2268 37.3689C14.2339 37.3654 14.2398 37.3642 14.2468 37.3619C14.41 37.3091 14.5897 37.3349 14.7999 37.4406C15.3788 37.7353 15.4105 38.2356 14.9091 39.2255C14.9091 39.2255 14.8481 39.3453 14.7893 39.4627C14.4359 39.2842 13.5974 38.8603 13.2428 38.6806ZM19.8095 42.0063C19.8095 42.0063 17.0358 40.6018 16.5708 40.367C16.6283 40.2542 16.6858 40.1403 16.6858 40.1403C16.8268 39.8632 16.9465 39.7199 17.1192 39.6553C17.2671 39.6013 17.455 39.6048 17.731 39.633L20.8535 39.9489L22.0431 37.6026L17.8966 37.2738C17.7322 37.2656 17.3822 37.2609 17.044 37.3642C17.0816 36.4577 16.626 35.6192 15.7722 35.1871C15.0747 34.8348 14.4253 34.7537 13.8405 34.9452C12.7014 35.3186 12.0332 36.642 11.4436 37.8105L10.3877 39.8925L18.7374 44.1236L19.8095 42.0063ZM11.2225 39.6201C11.4188 39.2337 11.998 38.0911 11.998 38.0911C12.5241 37.0495 13.1183 35.8729 13.9861 35.5523C14.0025 35.5452 14.019 35.5405 14.0354 35.5347C14.4629 35.3949 14.9385 35.4619 15.4904 35.7413C16.2995 36.15 16.6377 37.0131 16.3336 37.8892L16.2408 38.1463L16.7751 38.3965L16.9148 38.1639C17.0405 37.9549 17.3411 37.8692 17.8578 37.8927C17.8508 37.8927 20.0914 38.0712 21.0684 38.1475C20.8605 38.5609 20.6045 39.067 20.4906 39.2878C20.1278 39.2514 17.7932 39.0165 17.7932 39.0165C17.4374 38.9789 17.145 38.9813 16.8937 39.0752C16.5966 39.1844 16.3559 39.4193 16.1327 39.8597L15.7358 40.6394C15.7358 40.6394 18.5119 42.0451 18.9758 42.2787C18.8266 42.5747 18.6141 42.9939 18.4638 43.2886C17.9682 43.0385 11.7193 39.8714 11.2225 39.6201ZM34.5408 24.0276L33.2467 22.5033C33.2467 22.5033 31.0237 24.3893 30.6315 24.7228C30.3685 24.4128 29.7073 23.633 29.4455 23.3242C29.8295 22.9977 31.8234 21.3079 31.8234 21.3079L30.5317 19.7813C30.5317 19.7813 28.5377 21.4723 28.1549 21.7987C27.9095 21.511 27.408 20.9192 27.1626 20.6303C27.5536 20.298 29.759 18.4273 29.759 18.4273L28.4684 16.903L24.0589 20.6397L30.1113 27.7819L34.5408 24.0276ZM28.3968 17.7791C28.5671 17.9811 28.7139 18.1537 28.8841 18.3545C28.4931 18.6868 26.2877 20.5587 26.2877 20.5587L28.0821 22.6736C28.0821 22.6736 30.0749 20.9826 30.4589 20.6573C30.6303 20.8593 30.7783 21.0343 30.9486 21.2362C30.5646 21.5604 28.5706 23.2514 28.5706 23.2514L30.5587 25.5976C30.5587 25.5976 32.784 23.7105 33.1751 23.3782C33.3465 23.5802 33.4945 23.754 33.6659 23.956C33.2737 24.2883 30.5763 26.5747 30.1841 26.907C29.8248 26.4819 25.2931 21.1376 24.9326 20.7125C25.3248 20.3802 28.0046 18.1102 28.3968 17.7791ZM60.1243 14.8233C61.4396 14.7329 62.4131 14.3372 63.0155 13.6443C63.5792 12.9973 63.8246 12.0907 63.7459 10.9495L63.3396 5.06832L60.9734 5.23155L61.3409 10.5761C61.3997 11.4376 61.2717 12.0555 60.9605 12.4125C60.742 12.6638 60.4238 12.8 59.9881 12.8305C59.5513 12.8599 59.2166 12.7683 58.9641 12.5487C58.6071 12.2375 58.3958 11.6426 58.337 10.7821L57.9695 5.43823L55.5997 5.60028L56.006 11.4821C56.1704 13.8757 57.5561 14.9995 60.1243 14.8233ZM57.3929 6.10054C57.4305 6.64542 57.717 10.8248 57.717 10.8248C57.7898 11.8711 58.0634 12.5874 58.5566 13.0172C58.9348 13.346 59.4303 13.4917 60.0304 13.4494C60.6305 13.4083 61.1002 13.1969 61.429 12.8211C61.7954 12.4007 61.9762 11.7936 61.9762 10.9743C61.9762 10.834 61.6357 5.80814 61.6357 5.80814L62.763 5.73063C62.763 5.73063 63.1388 11.2376 63.1388 11.355C63.1388 12.1529 62.9403 12.7847 62.5469 13.2368C62.0573 13.7993 61.2282 14.1258 60.0821 14.2045C57.8638 14.3571 56.7658 13.4776 56.6249 11.4399C56.6249 11.4399 56.3407 7.32535 56.262 6.17687C56.5908 6.15456 57.0641 6.12285 57.3929 6.10054ZM11.4033 51.7132C12.5331 52.029 13.57 51.9692 14.3228 51.5452C14.9041 51.2188 15.2986 50.6939 15.4971 49.9857C16.0443 48.0223 14.5107 46.8398 12.8913 46.3877C11.2469 45.9285 9.35838 46.289 8.84368 48.128C8.33132 49.9681 9.76023 51.254 11.4033 51.7132ZM9.44234 48.2959C9.86803 46.7705 11.4762 46.6366 12.7245 46.9854C13.2964 47.1463 14.9863 47.744 14.9863 49.2154C14.9863 49.4021 14.9593 49.6029 14.8994 49.819C14.7467 50.3627 14.4508 50.7608 14.0186 51.0051C13.4186 51.3421 12.5261 51.382 11.5708 51.1154C10.3231 50.7667 9.01712 49.819 9.44234 48.2959ZM48.5328 14.6895C48.5328 14.6895 45.8437 15.7193 45.3657 15.9025C45.1614 15.3706 42.7317 9.02575 42.7317 9.02575L40.5146 9.87595L43.8614 18.6164L49.248 16.5543L48.5328 14.6895ZM44.2196 17.8155C44.02 17.2953 41.5151 10.7527 41.3167 10.2341C41.6244 10.1155 42.0659 9.94641 42.3736 9.82781C42.5779 10.36 45.0075 16.7057 45.0075 16.7057C45.0075 16.7057 47.6967 15.6735 48.1747 15.4903C48.2698 15.7369 48.3508 15.9495 48.4459 16.1961C47.9656 16.3793 44.6987 17.6323 44.2196 17.8155ZM75.5526 6.20271L73.2709 5.91148C73.2709 5.91148 72.7683 9.85482 72.5616 11.4715C71.985 9.86186 70.4396 5.55096 70.4396 5.55096L67.8068 5.21511L66.6208 14.4992L68.9013 14.7928C68.9013 14.7928 69.405 10.8436 69.6105 9.22891C70.1895 10.8325 71.7466 15.1545 71.7466 15.1545L74.3665 15.4892L75.5526 6.20271ZM72.2011 14.5873C72.079 14.2479 69.7209 7.70348 69.7209 7.70348L69.189 7.58487C69.189 7.58487 68.4351 13.5386 68.3634 14.0976C68.0475 14.0577 67.6318 14.0037 67.3159 13.9626C67.3864 13.4118 68.2742 6.46105 68.3447 5.90913C68.7486 5.9608 69.7198 6.08527 69.984 6.11933C70.1061 6.45871 72.4465 13.0161 72.4465 13.0161L72.9785 13.0889C72.9785 13.0889 73.7371 7.16564 73.8087 6.60667C74.1246 6.6466 74.5415 6.69944 74.8574 6.74054C74.7869 7.29129 73.8991 14.242 73.8287 14.794C73.4259 14.7435 72.4653 14.6202 72.2011 14.5873ZM20.6911 23.9771L19.2584 25.7761C19.2584 25.7761 22.368 28.2528 23.6421 29.2685C21.9676 28.9256 17.4817 28.0085 17.4817 28.0085L15.8271 30.0847L23.1477 35.9163L24.5827 34.1208C24.5827 34.1208 21.4673 31.6406 20.1932 30.626C21.8642 30.9642 26.3677 31.8779 26.3677 31.8779L28.0141 29.8099L20.6911 23.9771ZM26.1187 31.1921C25.7653 31.1216 18.9484 29.7406 18.9484 29.7406L18.5703 30.1328C18.5703 30.1328 23.2675 33.8683 23.7091 34.2206C23.5106 34.4696 23.2487 34.796 23.0503 35.045C22.6158 34.6986 17.1353 30.3325 16.7008 29.986C16.9544 29.6678 17.5639 28.901 17.7295 28.6943C18.0841 28.7659 24.9022 30.1692 24.9022 30.1692L25.2415 29.7524C25.2415 29.7524 20.5725 26.0274 20.1321 25.6775C20.3294 25.4285 20.5901 25.0986 20.7897 24.8496C21.2242 25.1972 26.7047 29.5633 27.1404 29.9097C26.8867 30.228 26.2843 30.9854 26.1187 31.1921ZM10.9126 53.4734C12.3746 53.8833 13.7063 53.7846 14.7631 53.1904C15.7472 52.6362 16.46 51.6568 16.8229 50.358C17.5745 47.67 16.2228 45.4212 13.3833 44.6274C10.5709 43.8417 8.27167 45.0701 7.51717 47.7569L7.5167 47.7581C6.7561 50.4872 8.057 52.6773 10.9126 53.4734ZM8.11525 47.9248C8.77451 45.5656 10.729 44.5311 13.2166 45.2263C15.7308 45.9273 16.884 47.8297 16.2252 50.1901C15.9034 51.3444 15.308 52.1711 14.4578 52.6491C13.5477 53.1611 12.3793 53.2398 11.0796 52.8757C9.03955 52.3074 7.92395 50.9886 7.92395 49.2389C7.92395 48.8232 7.9869 48.384 8.11525 47.9248ZM10.1772 63.9213C13.1015 64.1104 14.971 62.316 15.1765 59.1266C15.1765 59.1266 15.1789 58.88 15.1789 58.5453C15.1789 57.8619 14.9921 56.8038 14.9921 56.8038L12.768 56.7662L12.9653 57.2089C13.1297 57.5812 13.2225 58.3504 13.1813 58.9986C13.0768 60.6086 11.9096 61.5774 10.2085 61.4693C9.34323 61.4141 8.60012 61.0806 8.11619 60.5299C7.68322 60.0379 7.47866 59.3943 7.52492 58.6721C7.55616 58.1824 7.64329 57.5976 8.05794 56.967L8.32404 56.5619L6.15063 56.2354L6.05198 56.4445C5.77262 57.0387 5.57909 57.8102 5.53364 58.5077C5.43183 60.093 5.81759 61.4306 6.6483 62.3747C7.45388 63.2907 8.67399 63.825 10.1772 63.9213ZM6.15286 58.5477C6.18092 58.119 6.31162 57.4931 6.54191 56.9212C6.77407 56.9565 6.98591 57.0034 7.30791 57.0528C7.0222 57.6352 6.9346 58.1742 6.90571 58.6334C6.90019 58.7144 6.89784 58.7954 6.89784 58.8753C6.89784 59.6668 7.15525 60.3784 7.6501 60.9397C8.24372 61.615 9.13819 62.0224 10.1685 62.0894C12.2149 62.2197 13.6734 60.9949 13.8002 59.0385C13.8084 58.9176 13.812 58.7931 13.812 58.6698C13.812 58.2059 13.745 57.7726 13.6522 57.398C13.9634 57.4027 14.1877 57.405 14.4308 57.4086C14.5565 58.0486 14.5565 59.0867 14.5565 59.0867C14.3733 61.9308 12.7915 63.4668 10.2167 63.3013C8.86305 63.2144 7.8185 62.7646 7.11438 61.9649C6.47215 61.2356 6.13865 60.2152 6.13865 58.9974C6.13865 58.8506 6.14323 58.7003 6.15286 58.5477ZM95.1222 111.096L96.4833 113.043L98.4221 111.683L97.061 109.738L95.1222 111.096ZM96.6359 112.177C96.4457 111.907 96.1756 111.52 95.9877 111.25C96.2555 111.061 96.6395 110.793 96.9095 110.603C97.0986 110.874 97.3687 111.26 97.5578 111.531C97.2888 111.719 96.906 111.988 96.6359 112.177ZM82.206 117.584L83.0397 119.803L85.2569 118.97L84.4231 116.752L82.206 117.584ZM83.4026 119.005C83.2875 118.699 83.1208 118.253 83.0057 117.948C83.3134 117.83 83.7514 117.666 84.0591 117.549C84.1753 117.866 84.3409 118.3 84.4583 118.617C84.1495 118.723 83.7115 118.887 83.4026 119.005ZM90.1937 107.639C88.9771 107.271 87.5714 107.529 85.8922 108.427L83.5177 109.697L87.9366 117.948L90.3111 116.681C91.988 115.784 92.9815 114.756 93.3502 113.538C93.6708 112.48 93.4888 111.3 92.8089 110.032C92.1313 108.764 91.2505 107.959 90.1937 107.639ZM92.756 113.357C92.4413 114.396 91.5206 115.328 90.0187 116.132C90.0187 116.132 88.606 116.887 88.1915 117.111C87.9296 116.62 84.6204 110.443 84.3585 109.952C84.773 109.731 86.1857 108.975 86.1857 108.975C87.6889 108.168 88.9771 107.919 90.0128 108.234C90.9076 108.504 91.6639 109.207 92.2628 110.325C92.675 111.096 92.8817 111.821 92.8817 112.49C92.8817 112.79 92.8394 113.08 92.756 113.357ZM119.016 74.8201C118.065 74.5711 117.24 74.6439 116.569 75.0362C115.669 75.5634 115.307 76.5158 115.171 77.0384C115.171 77.0384 115.135 77.2861 115.101 77.5175C114.744 77.4165 114.253 77.2791 113.935 77.1898C114.063 76.7013 114.787 73.9323 114.787 73.9323L112.926 73.4485L111.503 78.8856C111.503 78.8856 116.647 80.3394 116.731 80.3394C116.592 79.4105 116.868 78.4499 116.868 78.4499C117.024 77.8498 117.299 77.4094 117.642 77.2075C117.877 77.0689 118.147 77.0407 118.464 77.1229C119.568 77.4118 119.345 78.5802 119.263 78.9325C119.086 79.5667 118.734 80.0352 118.488 80.3769L118.17 80.7821L120.343 81.4268C120.343 81.4268 120.543 81.0874 120.789 80.5378C121.235 79.5033 121.811 77.7523 120.977 76.2563C120.566 75.5435 119.885 75.0467 119.016 74.8201ZM120.648 79.0758C120.648 79.0758 120.284 80.2266 120.038 80.6834C119.791 80.6141 119.509 80.5425 119.18 80.4486C119.439 80.0975 119.709 79.6782 119.861 79.0899C119.92 78.8527 119.955 78.5967 119.955 78.3419C119.955 77.5598 119.615 76.7835 118.617 76.5217C118.147 76.3984 117.712 76.4489 117.332 76.6708C116.842 76.9573 116.464 77.5339 116.267 78.2925C116.267 78.2937 116.086 79.0159 116.086 79.5291C115.531 79.3729 112.729 78.5849 112.258 78.4522C112.385 77.9672 113.241 74.6991 113.37 74.2059C113.609 74.267 113.789 74.314 114.029 74.3774C113.899 74.8729 113.181 77.6208 113.181 77.6208C113.181 77.6208 115.639 78.309 115.639 78.3066C115.639 77.8416 115.773 77.1945 115.773 77.1945C115.884 76.7659 116.176 75.985 116.882 75.5728C117.406 75.2663 118.065 75.2147 118.852 75.4213C119.556 75.6057 120.108 76.0026 120.437 76.5698C120.672 76.9714 120.801 77.447 120.801 77.9766C120.801 78.3219 120.742 78.6906 120.648 79.0758ZM115.915 84.4964C114.26 83.7014 112.758 84.1934 111.994 85.7823C111.823 86.1369 111.738 86.4834 111.738 86.8251C111.738 86.9343 111.813 87.04 111.829 87.1492C111.355 86.791 110.871 86.279 110.871 85.6097C110.871 85.3948 110.921 85.1646 111.038 84.9215C111.285 84.4083 111.618 84.0795 111.938 83.8L112.243 83.5382L110.522 82.3498L110.339 82.5306C109.867 82.9992 109.493 83.5241 109.2 84.1347C108.13 86.3648 109.25 88.4797 112.275 89.9311C114.898 91.1876 116.703 90.8365 117.642 88.8825C118.523 87.0435 117.889 85.4464 115.915 84.4964ZM117.08 88.6136C116.299 90.24 114.858 90.4807 112.544 89.371C111.274 88.7603 109.424 87.5614 109.424 85.7647C109.424 85.3443 109.526 84.8898 109.76 84.4036C109.996 83.8869 110.556 83.1812 110.611 83.1812C110.629 83.2 111.012 83.4431 111.253 83.6086C110.978 83.8787 110.699 84.1923 110.478 84.6538C110.324 84.9755 110.249 85.2997 110.249 85.6155C110.249 86.5562 110.912 87.4428 112.154 88.1004L112.264 88.1579L112.77 87.9747L112.602 87.66C112.293 87.121 112.278 86.6255 112.553 86.05C113.169 84.77 114.296 84.4083 115.646 85.0566C116.811 85.6144 118.006 86.6853 117.08 88.6136ZM73.6323 112.719L72.1868 122.657L74.6012 122.105C74.6012 122.105 74.8477 120.32 74.8935 119.979C75.2388 119.897 77.5722 119.357 77.9186 119.287C78.11 119.568 79.0952 121.072 79.0952 121.072L81.6364 120.484L75.968 112.181L73.6323 112.719ZM79.3759 120.367C79.1845 120.073 78.1992 118.582 78.1992 118.582L74.3381 119.474C74.3381 119.474 74.0927 121.248 74.0457 121.588C73.8132 121.647 73.3493 121.753 72.9313 121.847C73.0464 121.06 74.1302 113.61 74.1854 113.228C74.4755 113.161 75.4044 112.948 75.6933 112.881C75.9105 113.199 80.1568 119.416 80.6089 120.085C80.1662 120.179 79.6202 120.308 79.3759 120.367ZM99.5224 98.3662L99.1783 102.034L101.223 102.277C101.223 102.277 101.311 101.275 101.361 100.715C102.125 101.458 105.951 105.181 105.951 105.181L107.6 103.484L100.895 96.9559L99.5224 98.3662ZM106.723 103.496C106.494 103.732 106.168 104.066 105.939 104.302C105.534 103.908 100.858 99.3573 100.858 99.3573C100.858 99.3573 100.7 101.143 100.661 101.584C100.382 101.55 100.121 101.519 99.8524 101.488C99.8982 101.01 100.103 98.8254 100.12 98.641C100.223 98.5353 100.654 98.0926 100.907 97.8343C101.305 98.2218 106.325 103.108 106.723 103.496ZM115.407 86.1898C114.804 85.9021 114.22 85.8328 113.762 85.9948C113.426 86.1134 113.163 86.3554 113.001 86.6947C112.904 86.8955 112.856 87.1022 112.856 87.3065C112.856 87.4475 112.879 87.5884 112.927 87.7246C113.129 88.3012 113.693 88.6723 114.13 88.8825C114.686 89.1502 115.232 89.2136 115.668 89.061C116.016 88.9388 116.292 88.6828 116.467 88.3176C116.842 87.5308 116.417 86.6759 115.407 86.1898ZM115.906 88.0499C115.802 88.2671 115.657 88.4057 115.463 88.475C115.184 88.5725 114.805 88.5184 114.399 88.3223H114.397C113.93 88.098 113.615 87.8127 113.513 87.5191C113.45 87.3418 113.466 87.1598 113.561 86.9648C113.654 86.7699 113.787 86.6442 113.969 86.5797C114.267 86.4751 114.692 86.5362 115.138 86.7499C115.326 86.8403 116.249 87.33 115.906 88.0499ZM107.444 92.7377C107.444 92.7377 107.445 92.7377 107.445 92.7389L107.444 92.7377C107.113 92.4994 106.736 92.3984 106.382 92.4559C106.032 92.5123 105.723 92.7119 105.491 93.036C105.032 93.676 104.947 94.5967 105.671 95.1169C106.493 95.7076 107.438 95.0793 107.895 94.7775L107.99 94.7129L108.022 94.6025C108.062 94.4651 108.082 94.309 108.082 94.1469C108.082 93.6302 107.878 93.0478 107.444 92.7377ZM107.438 94.3242C106.868 94.6894 106.402 94.8773 106.034 94.6119C105.56 94.2714 105.786 93.6878 105.995 93.3977C106.129 93.2122 106.297 93.0983 106.48 93.0689C106.674 93.0384 106.882 93.0971 107.081 93.2403L107.083 93.2415C107.332 93.42 107.462 93.8064 107.462 94.1446C107.462 94.2092 107.448 94.2655 107.438 94.3242ZM108.471 95.3529L108.37 95.4269L108.347 95.5502C108.316 95.7334 108.287 95.9389 108.287 96.155C108.287 96.6529 108.433 97.1966 108.992 97.5982C109.695 98.1055 110.668 97.9212 111.206 97.179C111.742 96.4321 111.622 95.5584 110.918 95.0523C110.239 94.5626 109.416 94.6636 108.471 95.3529ZM110.702 96.8149C110.411 97.2189 109.826 97.4338 109.356 97.0944H109.355C109.05 96.876 108.909 96.5907 108.909 96.162C108.909 96.0575 108.927 95.9084 108.944 95.7862C109.607 95.3353 110.131 95.2508 110.555 95.5561C111.067 95.9236 110.954 96.465 110.702 96.8149ZM111.877 93.5879C110.539 92.6027 109.384 93.2767 109.384 93.245C109.384 92.3338 108.842 91.601 108.262 91.1829C106.878 90.1883 105.291 91.0867 104.33 92.416C103.219 93.959 103.344 95.5021 104.653 96.4462C105.895 97.2729 106.993 96.6799 106.99 96.7151C106.982 96.7868 106.972 96.8596 106.972 96.9277C106.972 97.8472 107.309 98.54 107.992 99.0321C109.428 100.065 111.025 99.6568 112.261 97.9388C113.47 96.2583 113.326 94.6319 111.877 93.5879ZM111.758 97.5771C111.155 98.4132 109.912 99.6486 108.354 98.5271C107.689 98.048 107.471 97.3516 107.652 96.2701L107.672 96.0845L107.361 95.8321L107.171 95.9342C106.412 96.3781 105.626 96.3805 105.016 95.9413C103.555 94.8903 104.402 93.3801 104.834 92.7788C105.614 91.6985 106.864 90.9422 107.899 91.6867C108.432 92.0707 108.925 92.7953 108.709 93.6725L108.655 93.8968L109.016 94.114L109.189 94.0342C110.246 93.447 110.843 93.6114 111.514 94.0929C113.09 95.2273 112.344 96.7633 111.758 97.5771ZM89.2542 109.23C88.4639 108.99 87.5832 109.083 86.8398 109.483L85.709 110.087L88.8268 115.912L89.9588 115.304C90.7033 114.906 91.2693 114.223 91.5077 113.433C91.7578 112.607 91.6522 111.729 91.2036 110.891C90.755 110.054 90.0809 109.479 89.2542 109.23ZM90.9135 113.252C90.7221 113.887 90.2665 114.434 89.6652 114.757C89.6652 114.757 89.3329 114.936 89.0816 115.07C88.8315 114.606 86.7987 110.807 86.5498 110.342C86.8034 110.207 87.1334 110.029 87.1334 110.029C87.7323 109.708 88.4404 109.633 89.0745 109.825C89.7404 110.025 90.2876 110.496 90.6563 111.185C90.8971 111.632 91.0192 112.093 91.0192 112.543C91.0192 112.783 90.9828 113.02 90.9135 113.252ZM33.62 102.993C33.62 102.993 31.087 106.044 30.0431 107.3C30.4224 105.629 31.4334 101.175 31.4334 101.175L29.3972 99.4842L23.4141 106.686L25.1802 108.151C25.1802 108.151 27.7191 105.093 28.7607 103.84C28.3849 105.507 27.3774 109.975 27.3774 109.975L29.4031 111.658L35.3862 104.455L33.62 102.993ZM29.322 110.785C29.0097 110.525 28.271 109.911 28.0679 109.742C28.1465 109.389 29.6755 102.576 29.6755 102.576L29.2715 102.254C29.2715 102.254 25.4585 106.844 25.098 107.277C24.8538 107.074 24.5344 106.808 24.2889 106.605C24.6447 106.177 29.1224 100.786 29.4782 100.358C29.7918 100.619 30.5386 101.24 30.743 101.41C30.6631 101.761 29.1247 108.557 29.1247 108.557L29.524 108.901C29.524 108.901 33.3429 104.3 33.7022 103.867C33.9465 104.07 34.2659 104.335 34.5113 104.538C34.1555 104.966 29.6778 110.357 29.322 110.785ZM19.5471 88.4351C19.9228 87.3606 19.8148 86.1581 19.2359 84.9579C18.6475 83.7425 17.775 82.9029 16.7099 82.5306C15.5779 82.136 14.265 82.2723 12.9169 82.9228C10.2191 84.2275 9.30635 86.6172 10.5348 89.1596C11.1087 90.3504 11.9786 91.1771 13.0496 91.5517C14.211 91.9568 15.5403 91.8241 16.8966 91.1712C18.2307 90.5277 19.1478 89.5812 19.5471 88.4351ZM13.2551 90.9645C12.3415 90.6463 11.5949 89.9288 11.0944 88.8883C10.0165 86.6583 10.7986 84.6373 13.187 83.483C14.3848 82.9052 15.5321 82.7784 16.5056 83.1178C17.4251 83.4384 18.1543 84.1477 18.6757 85.228C18.9881 85.8739 19.1454 86.5151 19.1454 87.1269C19.1454 87.5085 19.0844 87.8784 18.9611 88.2307C18.6158 89.2183 17.8091 90.0415 16.6265 90.6111C15.4229 91.1923 14.2568 91.3156 13.2551 90.9645ZM25.7874 95.4199L21.5798 98.7291C20.0743 99.9104 19.3862 99.4337 18.954 98.8853C18.6863 98.5447 18.5747 98.2183 18.6135 97.8895C18.6698 97.4185 19.0445 96.9101 19.7256 96.3734L23.9343 93.063L22.4711 91.2006L17.8384 94.8456C16.9366 95.5537 16.4281 96.3464 16.3271 97.199C16.2179 98.109 16.5737 99.0919 17.3863 100.122C18.1966 101.153 19.0679 101.731 19.9769 101.84C20.8294 101.942 21.7172 101.634 22.6179 100.925L27.2505 97.2835L25.7874 95.4199ZM22.2339 100.437C21.4682 101.04 20.7331 101.304 20.0508 101.222C19.311 101.134 18.5794 100.634 17.8737 99.7378C17.2454 98.9405 16.9283 98.1959 16.9283 97.5195C16.9283 97.4373 16.933 97.354 16.9424 97.2729C17.0246 96.5895 17.4544 95.9366 18.2224 95.3341C18.2224 95.3341 21.4624 92.7847 22.3666 92.0719C22.5697 92.3314 22.8586 92.699 23.063 92.9573C22.632 93.2955 19.3404 95.8849 19.3404 95.8849C18.5137 96.5355 18.0745 97.1661 17.997 97.8155C17.9887 97.8824 17.9852 97.9493 17.9852 98.0174C17.9852 98.4425 18.1461 98.8641 18.4667 99.2693C19.3357 100.374 20.5123 100.355 21.9626 99.2176C21.9626 99.2176 24.8409 96.9535 25.684 96.2912C25.886 96.5507 26.176 96.9195 26.3792 97.1778C25.9435 97.5207 22.2339 100.437 22.2339 100.437ZM17.9958 85.5568C17.6834 84.9086 17.2031 84.4682 16.5714 84.2463C15.7599 83.9633 14.7159 84.0795 13.7107 84.5645C12.6503 85.0765 11.9093 85.8081 11.6252 86.6254C11.5371 86.8803 11.4921 87.1386 11.4921 87.4005C11.4921 87.7821 11.5866 88.1697 11.7755 88.5607C12.0925 89.2183 12.5716 89.6622 13.1987 89.8818C14.0149 90.166 15.0471 90.0415 16.1063 89.5295C17.1115 89.0457 17.8502 88.3012 18.1344 87.4909C18.3551 86.8568 18.3082 86.2062 17.9958 85.5568ZM17.5472 87.2854C17.3182 87.943 16.6935 88.5572 15.8362 88.9706C14.9402 89.4039 14.0536 89.5225 13.4031 89.2947C12.938 89.1326 12.5787 88.7944 12.3356 88.2906H12.3344C12.0914 87.7868 12.0491 87.2948 12.2123 86.8298C12.4389 86.1792 13.0825 85.5568 13.9808 85.1235C14.8392 84.7101 15.7094 84.6033 16.367 84.8334C16.8379 84.9978 17.1984 85.3314 17.4356 85.8269C17.6752 86.3225 17.7128 86.8133 17.5472 87.2854ZM11.2426 80.4509L13.1776 79.9401C13.1776 79.9401 12.5505 77.5727 12.4237 77.0936C12.7889 76.9949 13.5381 76.7976 13.9045 76.7013C14.0325 77.1875 14.696 79.6923 14.696 79.6923L16.6265 79.1803L15.2303 73.8994L6.18022 76.2939L6.78616 78.5826C6.78616 78.5826 9.98522 77.7371 10.4926 77.6032C10.6188 78.0835 11.2426 80.4509 11.2426 80.4509ZM6.93941 76.7354C7.47748 76.5921 14.2509 74.8001 14.7876 74.658C14.9179 75.1477 15.7376 78.2503 15.8679 78.7399C15.6131 78.8069 15.3935 78.8656 15.1375 78.9337C15.0083 78.4475 14.3449 75.9416 14.3449 75.9416L11.6641 76.6508C11.6641 76.6508 12.2898 79.0171 12.4178 79.4974C12.1618 79.5655 11.941 79.6242 11.6853 79.6911C11.5587 79.2108 10.9343 76.8434 10.9343 76.8434C10.9343 76.8434 7.73477 77.6889 7.22794 77.8228C7.14351 77.5057 7.02373 77.0525 6.93941 76.7354ZM45.2478 119.85L50.8023 121.471L51.3636 119.557C51.3636 119.557 48.5758 118.746 48.0838 118.594C48.1977 118.206 48.483 117.227 48.597 116.838C49.0796 116.979 51.5809 117.713 51.5809 117.713L52.1387 115.791C52.1387 115.791 49.6386 115.061 49.1548 114.919C49.2616 114.556 49.48 113.812 49.5857 113.449C50.0766 113.594 52.8433 114.4 52.8433 114.4L53.4069 112.48L47.8748 110.864L45.2478 119.85ZM52.6354 112.903C52.5614 113.155 52.4968 113.376 52.4229 113.63C51.9308 113.487 49.1641 112.679 49.1641 112.679L48.3844 115.342C48.3844 115.342 50.8869 116.071 51.3683 116.212C51.2955 116.466 51.2321 116.685 51.157 116.939C50.6743 116.798 48.1742 116.068 48.1742 116.068L47.3146 119.016C47.3146 119.016 50.1001 119.839 50.5933 119.979C50.5193 120.238 50.4547 120.449 50.3807 120.708C49.8887 120.555 46.5114 119.568 46.0193 119.427C46.1755 118.899 48.1401 112.169 48.2963 111.635C48.7884 111.779 52.1434 112.759 52.6354 112.903ZM59.5627 114.78L58.2838 114.68L57.7542 121.259L59.0342 121.365C59.875 121.436 60.7194 121.165 61.3476 120.637C62.0052 120.073 62.3928 119.275 62.4691 118.324C62.6417 116.19 61.0998 114.905 59.5627 114.78ZM61.8502 118.277C61.7868 119.063 61.4744 119.709 60.946 120.156C60.4411 120.59 59.7623 120.801 59.0836 120.743C59.0836 120.743 58.7078 120.719 58.4236 120.696C58.4659 120.167 58.8111 115.873 58.8522 115.348C59.1399 115.369 59.5134 115.398 59.5134 115.398C60.7135 115.497 61.862 116.418 61.862 118.007C61.862 118.089 61.8585 118.183 61.8502 118.277ZM59.3384 113.381L56.6527 113.166L55.9023 122.492L58.5856 122.716C62.1203 122.997 64.038 121.565 64.2869 118.476C64.5347 115.38 62.8695 113.665 59.3384 113.381ZM63.6681 118.429C63.4485 121.154 61.8033 122.352 58.6361 122.093C58.6361 122.093 57.1917 121.976 56.5717 121.929C56.6152 121.377 57.1777 114.389 57.2211 113.834C57.6908 113.872 59.2891 114 59.2891 114C62.2448 114.237 63.6892 115.516 63.6892 117.901C63.6892 118.065 63.6822 118.241 63.6681 118.429ZM74.9403 114.226L74.4365 118.676L77.7692 117.901L75.3795 114.113L74.9403 114.226ZM75.4276 115.353C75.895 116.094 76.5033 117.059 76.7781 117.49C76.3142 117.596 75.6132 117.76 75.1493 117.866C75.2057 117.357 75.3313 116.224 75.4276 115.353ZM40.6175 107.562L38.2254 106.328L33.9321 114.652L36.3301 115.886C39.4796 117.502 41.7977 116.93 43.221 114.172C44.6442 111.412 43.7682 109.188 40.6175 107.562ZM42.669 113.887C41.4184 116.313 39.4373 116.785 36.6143 115.333C36.6143 115.333 35.3237 114.669 34.7694 114.383C35.0254 113.889 38.2372 107.66 38.4932 107.165C38.9112 107.38 40.3333 108.114 40.3333 108.114C42.2827 109.121 43.2503 110.332 43.2503 111.786C43.2503 112.437 43.0565 113.137 42.669 113.887ZM40.2875 108.942L39.1473 108.353L36.1164 114.226L37.2601 114.814C38.0105 115.201 38.8924 115.279 39.6804 115.026C40.5012 114.763 41.1647 114.181 41.5992 113.336C42.0349 112.491 42.1277 111.61 41.8646 110.788C41.6133 110.001 41.0379 109.33 40.2875 108.942ZM41.0473 113.052C40.6891 113.745 40.1513 114.224 39.4913 114.435C38.8596 114.637 38.1503 114.575 37.5443 114.262C37.5443 114.262 37.2085 114.089 36.9537 113.958C37.1956 113.489 39.1731 109.66 39.4138 109.19C39.6698 109.323 40.0033 109.494 40.0033 109.494C40.6093 109.806 41.072 110.347 41.2728 110.977C41.3503 111.22 41.389 111.47 41.389 111.725C41.389 112.163 41.2739 112.612 41.0473 113.052ZM59.1176 78.7259C59.1235 78.7247 58.0032 78.8304 58.0032 78.8304L54.7715 79.1286L51.9097 79.2238L51.9026 80.2196L54.3135 80.1503L57.5734 79.8908C60.5937 79.5549 61.6788 79.6806 61.6894 79.6806L61.8996 79.7076V78.7188L61.7351 78.7012C61.6823 78.6941 60.4552 78.5544 59.1176 78.7259ZM59.1176 81.9857C59.1235 81.9834 57.793 82.109 57.793 82.109L54.7715 82.3874C54.7703 82.3874 51.9097 82.4848 51.9097 82.4848L51.9026 83.4806L54.3135 83.4114L57.5734 83.153C60.5949 82.816 61.68 82.9381 61.6905 82.9393L61.8996 82.9651V81.9787L61.7351 81.9599C61.6823 81.9529 60.4552 81.8143 59.1176 81.9857ZM59.1176 83.8435C59.1258 83.8435 57.1037 84.0302 57.1037 84.0302L54.7715 84.2439C54.7703 84.2439 51.9097 84.3402 51.9097 84.3402L51.9026 85.3349L54.3135 85.2656L57.5734 85.0084C60.5949 84.6737 61.68 84.7959 61.6894 84.797L61.8996 84.8229V83.8329L61.734 83.8141C61.6823 83.8083 60.4552 83.6721 59.1176 83.8435ZM59.1176 76.8516C59.1247 76.8505 57.4665 77.0043 57.4665 77.0043L54.7727 77.2486C54.7715 77.2486 51.9109 77.3449 51.9109 77.3449L51.9026 78.343L54.3135 78.2726L57.5734 78.013C60.5937 77.6784 61.68 77.8017 61.6894 77.8028L61.8996 77.8275V76.8399L61.7351 76.8211C61.6823 76.8141 60.4552 76.6767 59.1176 76.8516ZM59.1176 68.4917C59.1235 68.4905 57.8306 68.6115 57.8306 68.6115L54.7715 68.8922L51.9097 68.9896L51.9026 69.9854L54.3135 69.915L57.5734 69.6531C60.5937 69.322 61.68 69.4464 61.6894 69.4476L61.8996 69.4723V68.4835L61.734 68.4647C61.6823 68.4577 60.4552 68.3214 59.1176 68.4917ZM59.1176 66.6328C59.1247 66.6316 57.5863 66.7761 57.5863 66.7761L54.7715 67.0368L51.9097 67.133L51.9026 68.13L54.3147 68.0572L57.5734 67.7977C60.5949 67.4666 61.68 67.5887 61.6905 67.5899L61.8996 67.6145V66.6246L61.734 66.607C61.6823 66.5999 60.4552 66.4637 59.1176 66.6328ZM59.1176 71.7469C59.1235 71.7457 57.9139 71.8573 57.9139 71.8573L54.7727 72.1438C54.7715 72.1438 51.9109 72.2425 51.9109 72.2425L51.9026 73.2395L54.3123 73.1714C54.3135 73.1714 57.5734 72.9095 57.5734 72.9095C60.5937 72.576 61.6788 72.7016 61.6894 72.7028L61.8996 72.7298V71.7375L61.7351 71.7187C61.6823 71.7129 60.4552 71.5731 59.1176 71.7469ZM59.1176 73.6047C59.1258 73.6035 56.8312 73.8161 56.8312 73.8161L54.7691 74.0063C54.7656 74.0063 51.9097 74.0991 51.9097 74.0991L51.9026 75.0949L54.3123 75.0279L57.5734 74.7672C60.5949 74.4326 61.68 74.5535 61.6905 74.5547L61.8996 74.5805V73.5929L61.7351 73.5742C61.6823 73.5683 60.4552 73.4285 59.1176 73.6047ZM70.4556 69.6531C70.4579 69.6531 73.7202 69.915 73.7202 69.915L76.1322 69.9854L76.1228 68.9896L73.261 68.8922L68.9043 68.4905C67.5785 68.3214 66.3443 68.4577 66.2927 68.4647L66.1259 68.4835V69.4723L66.3361 69.4476C66.3467 69.4464 67.4388 69.322 70.4556 69.6531ZM70.4556 67.7954C70.4579 67.7977 73.7202 68.0572 73.7202 68.0572L76.1322 68.13L76.1228 67.133L73.2622 67.0368L68.9043 66.6316C67.5785 66.4637 66.3431 66.5999 66.2927 66.607L66.1259 66.6246V67.6145L66.3361 67.5899C66.3467 67.5887 67.4388 67.4666 70.4556 67.7954ZM70.4556 78.0119C70.4579 78.013 73.7202 78.2726 73.7202 78.2726L76.1322 78.343L76.1228 77.3449L73.2622 77.2486C73.2598 77.2486 68.9031 76.8505 68.9031 76.8505C67.5785 76.6767 66.3443 76.8141 66.2927 76.8211L66.1259 76.8399V77.8275L66.3361 77.8028C66.3467 77.8017 67.4388 77.6784 70.4556 78.0119ZM36.033 34.0527V72.2307C36.033 93.3695 63.6058 105.628 63.8841 105.75L64.011 105.805L64.1366 105.749C64.4138 105.625 91.8269 93.1675 91.8269 72.9177L91.8234 34.0515L36.033 34.0527ZM36.6589 34.6786C37.2719 34.6786 90.5845 34.6762 91.1986 34.6762C91.1986 35.0227 91.1998 47.1146 91.1998 57.6094H36.6589V34.6786ZM64.5206 65.3915C64.5676 65.287 64.7825 64.9265 65.6409 64.7234C65.6421 64.7234 66.955 64.4591 68.3947 64.6165C68.4041 64.6177 70.6071 64.842 70.6071 64.842L73.9762 65.1203L76.9859 65.1461C76.9859 65.1461 77.3793 65.1485 77.7387 65.1508C77.7387 66.082 77.7434 86.3471 77.7434 87.2725C77.047 87.2807 74.9121 87.303 74.9121 87.303L70.5648 87.0365L66.6144 86.8251C65.5176 86.8274 64.9199 87.2913 64.5206 87.7082V65.3915ZM63.5178 104.891C59.6684 103.062 36.6589 91.3239 36.6589 72.2307V59.109H63.5213V64.0599C63.3017 63.9389 63.0292 63.8321 62.6828 63.751C62.61 63.7358 61.1914 63.4469 59.5967 63.6242L57.3808 63.8473L54.0998 64.1209C54.0974 64.1209 51.1135 64.1468 51.1135 64.1468L49.352 64.155L49.3579 64.6529V65.071H47.0868V67.3456H44.2097V71.2056H47.0868V75.6668H44.2097V79.5291H47.0868V83.9879H44.2097V87.8503H47.0868V90.1707H61.8749C62.1062 90.6334 62.6241 91.1454 63.5178 91.298V104.891ZM63.5213 65.3035V87.7223C63.1514 87.3101 62.5666 86.8274 61.4803 86.8251L57.5323 87.0365L53.1815 87.303C53.1815 87.303 51.2626 87.2831 50.3537 87.2725C50.3537 86.3471 50.3572 66.082 50.3584 65.1508C50.7189 65.1485 51.1123 65.1461 51.1123 65.1461L54.1221 65.1203L57.4877 64.842L59.6977 64.6177C61.1386 64.4591 62.455 64.7245 62.4667 64.7269C63.1478 64.8878 63.4168 65.1508 63.5213 65.3035ZM47.0727 68.3449V70.205H45.2102V68.3449H47.0727ZM47.0727 76.6661V78.5286H45.2102V76.6661H47.0727ZM47.0727 84.9873V86.8497H45.2102V84.9873H47.0727ZM64.0086 90.3656C62.9236 90.3645 62.7145 89.6423 62.6946 89.5601L62.6006 89.1784L48.0861 89.1713V66.0715H49.3567L49.3532 88.2613L53.2038 88.3024L57.6227 88.0323L61.478 87.8244C62.3294 87.8268 62.6523 88.2249 62.9647 88.61C63.2136 88.9165 63.4954 89.2653 63.9922 89.2653C64.4783 89.2653 64.7754 88.9259 65.0373 88.6265C65.379 88.2331 65.7349 87.8268 66.6156 87.8244L70.4744 88.0323L74.8898 88.3024C74.8921 88.3024 78.7638 88.2613 78.7638 88.2613L78.7439 87.7669L78.7392 66.0715H79.984V89.1713H65.4836L65.379 89.5413C65.3544 89.6258 65.1125 90.3645 64.0086 90.3656ZM64.5171 104.878V91.2957C65.4084 91.1395 65.938 90.6287 66.1823 90.1707H80.9845V87.8503H83.8451V83.9879H80.9845V79.5291H83.8451V75.6668H80.9845V71.2056H83.8451V67.3456H80.9845V65.071H78.7392V64.155L76.9848 64.1468L73.9985 64.1209L70.7139 63.8473L68.4945 63.623C66.8998 63.4469 65.4824 63.7369 65.4248 63.7475C65.042 63.8379 64.7543 63.9601 64.5206 64.0939V59.109H91.201C91.201 66.6046 91.2022 72.9177 91.2022 72.9177C91.2022 91.1559 68.417 102.987 64.5171 104.878ZM80.9845 86.8497V84.9873H82.8457V86.8497H80.9845ZM80.9845 78.5286V76.6661H82.8457V78.5286H80.9845ZM80.9845 70.205V68.3449H82.8457V70.205H80.9845ZM33.5799 31.3976L33.5787 72.5079C33.5787 95.3083 63.4121 108.374 63.7139 108.504L64.0121 108.632L64.3092 108.502C65.5376 107.965 94.3728 95.0981 94.3728 73.2418L94.3704 31.3952L33.5799 31.3976ZM64.0063 106.99C61.1656 105.696 35.0783 93.238 35.0783 72.5079C35.0783 72.5079 35.0806 34.3416 35.0806 32.8972C36.5238 32.8972 91.4276 32.896 92.8709 32.896C92.8709 34.3416 92.8732 73.2418 92.8732 73.2418C92.8732 93.0783 66.8446 105.677 64.0063 106.99ZM63.9969 17.8601C38.5589 17.8601 17.8629 38.5573 17.8629 63.9976C17.8629 89.4379 38.5589 110.134 63.9969 110.134C89.4372 110.134 110.133 89.4379 110.133 63.9976C110.133 38.5573 89.4372 17.8601 63.9969 17.8601ZM63.9969 108.634C39.3856 108.634 19.3636 88.6112 19.3636 63.9976C19.3636 39.3852 39.3856 19.3597 63.9969 19.3597C88.6105 19.3597 108.634 39.3852 108.634 63.9976C108.634 88.6112 88.6105 108.634 63.9969 108.634ZM70.4556 79.8696C70.4579 79.8708 73.719 80.1292 73.719 80.1292C73.7202 80.1292 76.1322 80.2043 76.1322 80.2043L76.1228 79.205L73.2622 79.1052C73.2598 79.1052 68.9031 78.7059 68.9031 78.7059C67.5785 78.5333 66.3443 78.6683 66.2927 78.6754L66.1259 78.6941V79.6876L66.3361 79.6618C66.3467 79.6606 67.4388 79.5361 70.4556 79.8696ZM70.4556 72.9083C70.4579 72.9095 73.719 73.1714 73.719 73.1714C73.7202 73.1714 76.1322 73.2395 76.1322 73.2395L76.1228 72.2425L73.2622 72.1438C73.261 72.1438 68.9043 71.7457 68.9043 71.7457C67.5785 71.5731 66.3431 71.7129 66.2915 71.7187L66.1259 71.7375V72.7298L66.3361 72.7028C66.3478 72.7016 67.4388 72.5771 70.4556 72.9083ZM70.4556 74.7661C70.4579 74.7672 73.7202 75.0279 73.7202 75.0279L76.1322 75.0949L76.1228 74.0991L73.2598 74.0063L68.902 73.6035C67.5785 73.4285 66.3443 73.5683 66.2915 73.5742L66.1259 73.5929V74.5805L66.3361 74.5547C66.3467 74.5535 67.4388 74.4326 70.4556 74.7661ZM70.4556 85.0072C70.4579 85.0084 73.719 85.2656 73.719 85.2656C73.7202 85.2656 76.1322 85.3349 76.1322 85.3349L76.1228 84.3402L73.2598 84.2439L68.902 83.8435C67.5785 83.6721 66.3443 83.8083 66.2927 83.8141L66.1259 83.8329V84.8229L66.3361 84.797C66.3467 84.7959 67.4388 84.6737 70.4556 85.0072ZM70.4556 83.153C70.4579 83.153 73.719 83.4114 73.719 83.4114C73.7202 83.4114 76.1322 83.4806 76.1322 83.4806L76.1228 82.4848L73.2598 82.3874L68.9043 81.9834C67.5785 81.8143 66.3443 81.9529 66.2915 81.9599L66.1259 81.9787V82.9651L66.3361 82.9393C66.3467 82.9381 67.4388 82.816 70.4556 83.153ZM1.87226 64C1.87226 98.257 29.741 126.133 63.9969 126.133C98.2551 126.133 126.132 98.257 126.132 64C126.132 29.743 98.2551 1.87419 63.9969 1.87419C29.741 1.87419 1.87226 29.743 1.87226 64ZM3.3722 64C3.3722 30.5708 30.5681 3.37379 63.9972 3.37379C97.4287 3.37379 124.629 30.5708 124.629 64C124.629 97.4303 97.4287 124.63 63.9972 124.63C30.5681 124.63 3.3722 97.4303 3.3722 64ZM16.0877 64C16.0877 90.4185 37.5799 111.912 63.9972 111.912C90.4169 111.912 111.911 90.4185 111.911 63.9976C111.911 37.5791 90.4169 16.0845 63.9972 16.0845C37.5799 16.0845 16.0877 37.5791 16.0877 64ZM16.7124 64C16.7124 37.9244 37.9252 16.7104 63.9972 16.7104C90.0728 16.7104 111.286 37.9232 111.286 63.9976C111.286 90.0732 90.0728 111.288 63.9972 111.288C37.9252 111.288 16.7124 90.0744 16.7124 64ZM0.248535 64C0.248535 99.153 28.8454 127.753 63.9972 127.753C99.1514 127.753 127.753 99.153 127.753 64C127.753 28.8458 99.1514 0.245422 63.9972 0.245422C28.8477 0.245422 0.248535 28.8458 0.248535 64ZM0.874349 64C0.874349 29.1899 29.1917 0.870156 63.9971 0.870156C98.8061 0.870156 127.13 29.1899 127.13 64C127.13 98.8089 98.8061 127.131 63.9971 127.131C29.1917 127.131 0.874349 98.8089 0.874349 64Z" fill="#B31B1B"/>
</g>
<defs>
<clipPath id="clip0_2863_8501">
<rect width="128" height="128" fill="white"/>
</clipPath>
</defs>
</svg>
