<svg width="128" height="128" viewBox="0 0 128 128" fill="none" xmlns="http://www.w3.org/2000/svg">
<path d="M0 24C0 10.7452 10.7452 0 24 0H104C117.255 0 128 10.7452 128 24V104C128 117.255 117.255 128 104 128H24C10.7452 128 0 117.255 0 104V24Z" fill="url(#paint0_linear_2800_1771)"/>
<path d="M109 73.1453C109 88.4721 96.6144 100.89 81.2876 100.923C75.0784 100.923 69.0327 98.8316 64.1634 94.9427C59.2614 98.8316 53.183 100.956 46.9085 100.956C31.5817 100.956 19 88.5048 19 73.178V29.4525H24.2941V73.1126C24.3268 85.5636 34.4575 95.629 46.9085 95.5963C51.7124 95.5963 56.3856 94.0277 60.2418 91.1845C55.8627 86.1845 53.4444 79.7466 53.4118 73.1126V37.3937C53.5098 31.544 58.3464 26.9035 64.1961 27.0015C69.8824 27.0996 74.4902 31.7074 74.5882 37.3937V73.1126C74.6209 79.7466 72.2353 86.1519 67.9216 91.1845C77.8562 98.5702 91.9085 96.5113 99.2941 86.5767C102.17 82.6878 103.739 77.9819 103.706 73.1126V29.4525H109V73.1453ZM69.2941 37.3937C69.2941 34.4852 66.9412 32.0996 64 32.0996C61.0915 32.0996 58.7059 34.4525 58.7059 37.3937V73.1126C58.7059 78.4068 60.6013 83.5375 64 87.5898C67.4314 83.5375 69.2941 78.4068 69.2941 73.1126V37.3937Z" fill="black"/>
<defs>
<linearGradient id="paint0_linear_2800_1771" x1="64" y1="0" x2="64" y2="128" gradientUnits="userSpaceOnUse">
<stop stop-color="white"/>
<stop offset="1" stop-color="#EEEEEE"/>
</linearGradient>
</defs>
</svg>
