<svg width="128" height="128" viewBox="0 0 128 128" fill="none" xmlns="http://www.w3.org/2000/svg">
<rect width="128" height="128" rx="24" fill="#990000"/>
<path d="M114 14H14V114.142H114V14Z" fill="#990000"/>
<path d="M32.4622 86.9267C33.8645 87.8647 35.4447 88.5041 37.1047 88.8051C40.7899 89.4072 44.1208 89.5848 46.5657 89.0178C48.6921 88.5568 49.401 87.9547 49.6845 88.4153C50.0031 88.9115 48.6564 90.2581 44.1916 90.9666C39.5496 91.7106 36.7148 90.6475 36.7148 90.6475C36.7148 90.6475 36.75 91.6399 38.3801 92.8801C40.0458 94.156 41.1441 94.4395 42.1365 95.6441C43.0577 96.7781 42.4556 97.912 42.9513 97.9827C43.4119 98.0539 43.5539 96.92 44.0501 95.7505C44.3418 94.99 44.3668 94.1529 44.1208 93.3763C44.1208 93.3763 45.7865 94.7937 49.0463 94.4746C51.3497 94.2268 52.6607 93.8369 52.5192 93.3763C52.4128 93.0216 51.9167 93.1992 50.712 92.9865C50.0982 92.9226 49.5179 92.6756 49.0463 92.2776C50.6213 91.7009 52.1113 90.9143 53.476 89.939C55.9209 88.2382 57.5154 86.1119 57.1612 85.6157C56.807 85.1195 55.7794 85.6513 54.5392 86.0055C53.7972 86.268 53.0216 86.4231 52.2357 86.4661C52.2357 86.4661 52.0586 86.2182 52.8027 85.3322C53.8658 84.0919 54.8226 83.9856 54.787 83.4898C54.7514 82.9936 53.1569 82.4267 49.0819 84.269C48.0395 84.7517 47.033 85.3084 46.07 85.9347C46.4214 84.879 46.7055 83.8019 46.9204 82.7102C47.1327 81.3987 47.6645 78.9894 47.1683 78.8122C46.7077 78.6351 46.8141 79.0601 45.8924 80.194C45.2196 80.9737 45.042 81.3279 44.7234 81.2216C44.2979 81.0444 44.4043 80.336 44.1564 79.5914C43.9437 78.883 43.3412 77.9262 43.0933 78.0326C42.5615 78.316 42.2429 82.2496 41.109 83.4898C40.7102 83.8893 40.2254 84.1922 39.6916 84.3754C38.8747 84.6741 38.0094 84.8183 37.1398 84.8008C36.1469 84.8029 35.1621 84.6227 34.2343 84.269C33.2775 83.9148 31.4347 83.2415 30.2652 81.3635C30.2652 81.3635 30.1237 81.08 30.0881 81.08C28.983 80.9436 27.9067 80.6327 26.8991 80.1589C27.2177 81.1152 27.7495 82.3555 28.1037 83.2771C29.4504 86.4661 31.2932 91.8526 29.5211 96.1047C27.4304 101.172 22.5757 102.165 22.0444 101.066C21.6189 100.18 25.5881 100.145 27.7139 95.9276C29.4504 92.4903 28.1393 88.1669 28.1393 88.1669C28.1393 88.1669 28.1393 91.8877 25.4461 94.4039C22.4342 97.2386 20.4494 95.9276 20.0244 96.3175C19.5638 96.7781 20.3079 97.1323 21.052 97.487C21.4672 97.6572 21.8935 97.7992 22.3279 97.912C21.7007 98.4799 20.9969 98.957 20.2372 99.3293C19.0676 99.8963 18.4299 100.145 18.3587 100.57C18.3236 100.889 19.9181 102.483 21.4774 103.156C22.5667 103.595 23.7114 103.882 24.8791 104.007C24.8791 104.007 25.0211 103.972 24.5249 104.857C23.9931 105.779 23.4261 106.168 23.6745 106.523C24.0287 107.054 24.4537 106.948 26.6507 105.601C28.8478 104.22 29.486 103.334 29.486 103.334C29.3733 103.683 29.2787 104.038 29.2025 104.397C28.9898 105.247 28.5292 105.566 28.8834 105.921C29.3089 106.346 31.6118 103.759 32.994 100.818C34.2865 98.094 34.7546 95.0518 34.3407 92.0653C34.128 90.3996 33.1004 88.1669 32.4622 86.9267Z" fill="white"/>
<path d="M68.7491 79.3086V40.3295C68.7491 40.3295 68.4656 31.9311 69.0677 29.8404C69.5828 28.1685 70.4807 26.6397 71.6902 25.3756C73.3911 23.6035 76.9699 23.0365 76.9699 23.0365C77.9974 22.8594 78.2458 22.3632 78.1394 21.867C78.1237 21.6678 78.042 21.4795 77.9072 21.3319C77.7725 21.1843 77.5923 21.0859 77.3953 21.0522L52.0231 21.0166C51.8253 21.0619 51.6468 21.1685 51.5132 21.3212C51.3796 21.4739 51.2976 21.665 51.279 21.867C51.2082 22.3632 51.4205 22.895 52.4485 23.0365C52.4485 23.0365 56.0273 23.6035 57.7282 25.3756C58.9498 26.6304 59.8496 28.1623 60.3507 29.8404C60.9528 31.9663 60.6693 40.3295 60.6693 40.3295L60.1024 79.2027C60.1024 80.868 60.2795 88.0261 59.8901 90.613C59.3227 94.1918 58.5079 97.2393 56.3108 99.5783C54.1138 101.952 52.0587 102.697 49.0819 102.697C46.0701 102.697 44.1209 101.775 41.9946 100.11C39.8687 98.4444 35.8289 94.6173 35.8289 94.6173L39.6916 107.161C39.6916 107.161 47.204 108.225 51.1726 107.551C54.7163 106.949 57.6574 106.098 61.4138 102.697C65.5952 98.9402 67.1541 93.5185 67.8274 90.7545C68.855 86.8214 68.7491 79.3086 68.7491 79.3086Z" fill="white"/>
<path d="M78.919 49.0104C78.0098 47.9724 77.0269 47.0014 75.9779 46.1049C74.6115 45.0842 73.1521 44.1944 71.6189 43.4473V46.8846C72.9585 47.3964 74.1773 48.1808 75.1982 49.188C76.3321 50.2507 77.5016 51.491 78.3872 52.4834L78.919 49.0104Z" fill="white"/>
<path d="M76.5451 59.1807C76.1023 57.8014 75.7587 56.3921 75.5171 54.9637C75.1277 52.5188 75.2336 51.987 75.2336 51.987C74.7023 51.42 73.2141 49.9671 72.3281 49.6484C72.3281 49.6484 72.0802 51.4908 72.6472 55.4243C72.9184 57.1209 73.2851 58.8009 73.7455 60.4561L76.5451 59.1807Z" fill="white"/>
<path d="M102.448 91.3568C101.043 90.4977 99.5297 89.8303 97.9478 89.3724C98.6211 87.778 99.8258 87.4945 99.8614 87.3169C99.897 87.1398 98.8339 86.6792 97.9122 86.8919C97.1356 87.1403 96.4629 87.6386 95.9991 88.3093C95.8215 88.8055 95.7864 89.2305 95.2902 90.6479C96.1762 91.0377 98.444 92.0301 99.5423 92.5614C102.732 94.1208 104.078 95.8924 104.68 97.8416C104.919 98.7252 104.907 99.6577 104.645 100.535C103.901 103.157 101.598 104.823 99.4008 104.291C97.9122 103.937 96.7783 103.157 96.247 102.129C96.0297 101.686 95.9051 101.202 95.8807 100.709C95.8563 100.215 95.9326 99.722 96.105 99.259C96.1862 98.9801 96.3263 98.7219 96.5159 98.5018C96.7054 98.2817 96.94 98.1048 97.2038 97.9831C97.4478 97.8779 97.7135 97.8327 97.9786 97.8512C98.2436 97.8697 98.5004 97.9514 98.7275 98.0895C99.0556 98.2363 99.3285 98.4837 99.5068 98.7958C99.6851 99.108 99.7596 99.4687 99.7194 99.8259C99.7194 100.145 99.755 100.393 99.9678 100.464C100.057 100.498 100.155 100.506 100.249 100.488C100.343 100.469 100.43 100.424 100.499 100.357C100.724 100.157 100.903 99.9115 101.026 99.6366C101.148 99.3616 101.21 99.0637 101.208 98.7628C101.279 97.8416 100.747 96.5657 99.011 95.8216C97.3101 95.1132 95.0775 96.1051 94.227 97.9123C93.8316 98.7765 93.6152 99.7118 93.5909 100.662C93.5665 101.612 93.7348 102.557 94.0855 103.44C93.7794 103.745 93.517 104.091 93.3058 104.468C92.9308 105.057 92.7916 105.766 92.916 106.453C92.9424 106.506 92.9785 106.554 93.0224 106.594C93.1287 106.63 93.2351 106.523 93.4122 106.346C93.6708 106.068 93.9692 105.829 94.2978 105.637C94.7928 105.359 95.3681 105.259 95.9279 105.354C97.3101 106.24 98.6211 106.807 100.145 106.807C100.818 106.799 101.487 106.692 102.129 106.488C104.433 105.815 106.098 103.937 106.842 101.243C106.842 101.208 106.878 101.173 106.878 101.137C107.274 99.6974 107.262 98.1758 106.842 96.7428C106.63 95.7153 105.744 93.4475 102.448 91.3568Z" fill="white"/>
<path d="M32.3199 63.9641C32.761 62.0659 33.4147 60.2235 34.2686 58.4717C33.8875 58.146 33.4381 57.9101 32.9537 57.7813C32.4692 57.6525 31.962 57.6342 31.4695 57.7276C30.8287 58.6431 30.3825 59.6803 30.1584 60.7751C30.8669 62.8658 31.7173 63.7162 32.3199 63.9641Z" fill="white"/>
<path d="M27.9264 68.3232C27.6307 69.4212 27.476 70.5523 27.4658 71.6893C27.5722 72.044 29.698 73.4966 30.5484 73.5678C30.4944 72.6997 30.566 71.8284 30.7612 70.9809C29.5861 70.3778 28.604 69.457 27.9264 68.3232Z" fill="white"/>
<path d="M107.445 58.6489C108.65 57.8693 109.181 57.2316 109.004 56.8417C108.933 56.7002 108.366 56.629 107.764 56.5939C106.779 56.5019 105.805 56.312 104.858 56.0269C104.046 55.7718 103.295 55.3501 102.654 54.7888C102.014 54.2275 101.497 53.5388 101.137 52.7667C100.712 51.8099 100.57 50.3218 101.952 48.6917H101.988L102.236 48.4433C104.362 46.5298 107.551 43.6599 107.87 36.9979C107.975 33.8571 107.162 30.7537 105.531 28.0677C105.353 27.7965 105.221 27.4971 105.142 27.1822C105.142 26.8987 105.46 26.686 105.886 26.4376C106.539 26.0646 107.116 25.5718 107.587 24.9851C108.437 23.8156 108.721 22.8944 108.65 22.5753C108.65 22.5397 108.614 22.5397 108.614 22.5046C108.543 22.469 108.26 22.6109 107.941 22.7524C107.363 23.0461 106.757 23.2835 106.134 23.4614C104.752 23.78 102.873 23.4258 101.031 23.0003C100.818 22.9652 100.606 22.8944 100.358 22.8588C98.1395 22.3374 95.8682 22.0757 93.5895 22.0791C90.8919 22.0745 88.2235 22.6367 85.7573 23.7295C83.291 24.8223 81.0819 26.4211 79.2732 28.4224C74.9855 33.0288 73.2846 40.0806 72.8948 41.7463L75.588 43.4115C75.588 43.4115 75.6232 43.27 75.6944 43.0573L75.588 43.4115C75.8008 43.1988 76.6156 42.8094 78.5999 42.5611C79.5721 42.3819 80.5688 42.3819 81.541 42.5611C82.0728 42.7031 82.4627 42.8094 82.5334 42.6318C82.7813 41.9941 81.2932 40.4704 80.0529 39.8327C79.0939 39.4177 78.034 39.2945 77.0054 39.4785C77.9622 36.9267 79.3088 33.7729 80.5842 32.1076C82.6398 29.45 87.069 24.9851 94.2272 25.2686C101.704 25.5521 105 31.3987 104.929 37.0331C104.879 39.3695 104.085 41.629 102.661 43.4823C102.009 44.3944 101.174 45.1614 100.211 45.7349C99.247 46.3083 98.1748 46.6756 97.0619 46.8137C93.4475 47.1679 90.1877 44.8289 89.6203 41.4272C89.231 39.0886 89.5852 37.0687 90.5771 35.7577C90.9846 35.2445 91.5015 34.8286 92.09 34.5405C92.6786 34.2523 93.324 34.0991 93.9793 34.092C94.3859 34.0595 94.7946 34.1191 95.1749 34.2663C95.5553 34.4135 95.8976 34.6446 96.1764 34.9424C96.4523 35.2556 96.6632 35.6205 96.797 36.0159C96.9307 36.4114 96.9846 36.8294 96.9556 37.2458C96.9686 37.7671 96.8185 38.2795 96.5264 38.7115C96.2343 39.1435 95.8146 39.4735 95.3259 39.6556C94.9712 39.8327 94.759 39.9391 94.7941 40.1513C94.8066 40.2712 94.8447 40.3871 94.9058 40.491C94.9669 40.595 95.0496 40.6846 95.1483 40.7539C95.4764 40.9193 95.8365 41.0114 96.2037 41.0236C96.5709 41.0358 96.9363 40.9679 97.2746 40.8246C98.3378 40.4704 99.5781 39.0886 99.5073 36.4661C99.4361 33.8441 97.0975 31.4343 94.617 31.2572C93.3869 31.1723 92.1533 31.3637 91.0067 31.8174C89.8602 32.2711 88.8297 32.9756 87.9907 33.8792C87.9551 33.9148 87.9195 33.9148 87.9195 33.8792C87.4104 33.6103 86.8591 33.4306 86.2894 33.3479C85.014 33.1708 84.1279 33.525 83.8444 33.8085C83.7737 33.8792 83.7737 33.9148 83.7737 33.9148C83.7737 33.9856 83.9864 34.092 84.2343 34.1983C84.7251 34.4244 85.179 34.7231 85.5809 35.0844C86.2195 35.67 86.6645 36.4364 86.8563 37.2814V37.3166C86.4313 40.5768 86.5728 43.3408 88.7699 46.3175C91.4632 49.9671 95.2547 49.9319 96.8848 49.8963C97.1934 49.8952 97.5016 49.9188 97.8065 49.9671H97.8416C98.0021 50.0336 98.1387 50.147 98.2336 50.2925C98.3285 50.4379 98.3772 50.6087 98.3734 50.7824C98.3607 50.9794 98.2989 51.1702 98.1937 51.3373C98.0885 51.5044 97.9431 51.6426 97.7708 51.7392C96.9204 52.3769 96.7433 53.0146 96.9556 54.5739C97.0619 55.4243 97.5937 56.3455 98.1607 57.3735C98.7651 58.3386 99.2192 59.3901 99.5073 60.4918C99.8505 62.2243 99.8384 64.0085 99.4717 65.7363C99.401 66.0905 99.3653 66.3033 99.4361 66.4096C99.465 66.4471 99.5029 66.4765 99.5464 66.4951C99.5899 66.5138 99.6374 66.5209 99.6844 66.516C100.181 66.516 101.208 65.7363 101.846 64.7439C102.271 64.1062 102.271 63.1138 102.271 62.3697C102.271 61.8384 102.271 61.4842 102.413 61.3422C102.466 61.3099 102.529 61.2973 102.59 61.3066C104.149 61.6257 104.256 64.496 104.185 65.5592C104.148 65.9579 104.027 66.3442 103.83 66.6931C103.653 67.0473 103.582 67.2244 103.795 67.4372C103.972 67.6499 104.326 67.5435 104.645 67.4372C104.795 67.3849 104.949 67.3492 105.106 67.3308C105.186 67.3185 105.268 67.3285 105.343 67.3597C105.418 67.3909 105.483 67.4422 105.531 67.5079C105.815 68.0749 105.319 69.0317 104.504 69.5986C104.362 69.705 104.22 69.8113 104.079 69.9177C103.44 70.3431 102.909 70.7325 102.98 71.0872C103.033 71.1238 103.093 71.1479 103.157 71.158C103.776 71.2447 104.406 71.1909 105.001 71.0008C105.596 70.8107 106.14 70.489 106.594 70.0597C108.012 68.6774 108.473 67.1181 108.224 64.2482C107.976 61.4129 105.602 59.3579 105.567 59.3579C105.531 59.3223 105.531 59.3223 105.531 59.2871C105.531 59.2515 105.567 59.2515 105.602 59.2515C106.267 59.263 106.916 59.0508 107.445 58.6489Z" fill="white"/>
<path d="M100.854 77.3236H100.925C100.92 77.3189 100.914 77.3151 100.908 77.3125C100.902 77.3099 100.896 77.3086 100.889 77.3086C100.883 77.3086 100.876 77.3099 100.87 77.3125C100.864 77.3151 100.858 77.3189 100.854 77.3236Z" fill="white"/>
<path d="M102.661 74.0285C100.535 73.5323 97.523 73.7802 94.0145 77.6074C93.7339 77.9629 93.4849 78.3423 93.2704 78.7413C93.1997 78.4578 93.0933 78.1743 92.9869 77.8201C92.1046 75.3724 90.9517 73.0308 89.5496 70.8391C88.6984 69.4802 87.7757 68.1673 86.7856 66.906C86.0165 65.9823 85.3399 64.9853 84.7657 63.9293C83.703 61.8737 83.4903 58.4369 83.8801 57.8343C83.9153 57.7636 83.9509 57.728 84.0216 57.728C84.4822 57.7636 84.5534 58.1529 84.6949 58.9682C84.9538 60.4734 85.4948 61.9161 86.2894 63.2204C86.97 64.3909 87.7913 65.4738 88.7348 66.445C89.4713 67.2088 90.1356 68.0392 90.7191 68.9255C92.4556 71.4772 92.8806 72.6111 92.8806 72.6463L92.9869 72.9654L92.9513 72.6111C92.5389 69.3759 92.5389 66.1014 92.9513 62.8661C93.284 60.7755 93.8919 58.738 94.759 56.8068C95.184 55.7788 95.4319 55.1767 95.2548 54.9283C95.2291 54.8651 95.185 54.811 95.1281 54.7731C95.0713 54.7353 95.0044 54.7154 94.9361 54.7161H94.9005C94.4751 54.7161 93.8374 55.4245 93.0577 56.275C92.8098 56.5584 92.5618 56.8419 92.3136 57.1254C91.4636 58.0382 90.726 59.0495 90.1166 60.1377C89.9039 60.1021 88.1322 59.5708 87.9551 55.7788C87.8352 54.036 87.9424 52.285 88.2742 50.5698C88.3801 49.9673 88.4513 49.4003 88.5221 48.7626C88.5221 48.5499 88.4865 48.4084 88.3801 48.3728C87.9195 48.2313 86.6793 49.8965 86.0059 51.2432C85.7108 51.8696 85.5193 52.5397 85.439 53.2275C85.3682 53.6173 85.3326 53.8652 85.1911 53.9008C85.1411 53.9061 85.0908 53.8935 85.0492 53.8652C84.6598 53.6173 84.0216 52.519 83.8445 50.4635C83.7988 49.8622 83.7869 49.2589 83.8089 48.6563C83.8089 47.8414 83.8089 47.2745 83.561 47.1325C83.4949 47.0948 83.4189 47.078 83.343 47.0843C83.2671 47.0907 83.195 47.1199 83.136 47.1681C82.7462 47.416 82.2852 48.1601 81.8958 49.2232C81.4375 50.6729 81.1519 52.1715 81.0449 53.6881C80.8371 56.0696 80.8371 58.4647 81.0449 60.8462C79.9477 60.9003 78.863 61.103 77.8203 61.4488C76.1902 61.9801 73.1783 63.2916 73.3203 64.0356C73.391 64.3899 73.9931 64.3191 74.7377 64.2128C75.2285 64.1245 75.7274 64.0888 76.2258 64.1064C76.9642 64.2035 77.6821 64.4188 78.3521 64.7441C77.3623 65.3135 76.4559 66.0171 75.6588 66.8348C74.4893 67.9336 73.2139 69.1738 73.8516 70.095C74.0643 70.3785 74.5605 70.1658 75.3046 69.8115C76.7571 69.1382 79.1669 68.0399 82.3208 69.2446C85.8644 70.5912 87.9907 72.6819 89.9395 76.934C90.458 78.2278 90.8497 79.5688 91.109 80.9383C91.8174 84.7655 91.0026 89.5494 87.4589 93.9079C86.158 95.5597 84.685 97.0684 83.0648 98.4084C78.4936 102.236 75.836 102.873 75.5881 102.342C75.411 101.916 78.7771 100.038 81.4703 97.6995C83.6867 95.8633 85.7488 93.8487 87.636 91.6757C87.636 91.6757 83.6318 94.5812 79.9822 94.2621C77.8559 94.0499 76.4385 92.2778 76.2614 92.4549C75.7652 92.9867 76.5449 94.4397 76.7927 94.9003C76.9982 95.26 77.2616 95.5833 77.5724 95.8571C77.5724 95.8571 77.4305 96.1406 76.155 96.1757C75.0919 96.2113 74.7377 95.538 74.5957 95.6444C74.3478 95.8571 74.5249 96.7075 75.3398 97.5224C75.8018 97.9968 76.3567 98.3708 76.9699 98.6211C75.9342 98.9218 74.8592 99.0651 73.7809 99.0461C72.2215 99.0461 70.6978 98.3376 70.3435 98.6919C69.7766 99.2944 70.7685 99.8614 71.4775 100.57C72.1508 101.279 72.5757 101.279 72.5757 101.279C72.5757 101.279 72.3986 102.094 70.3079 102.413C68.0757 102.767 66.2329 101.527 66.0558 102.236C65.8431 103.086 68.4656 105.283 71.5838 105.567C73.5406 105.696 75.4968 105.305 77.2533 104.433C77.2533 104.433 77.2182 105.106 75.9067 106.594C74.6313 108.047 73.958 107.976 74.2059 108.295C74.7021 108.968 76.6864 108.649 83.4195 102.448C83.4137 102.591 83.4255 102.734 83.4547 102.873C83.8445 109.181 90.1166 107.728 90.0814 107.338C90.0458 107.02 88.9119 107.055 87.8844 106.311C86.5729 105.354 86.7856 104.858 86.7856 104.858C87.1137 105.067 87.4951 105.178 87.8844 105.177C88.6636 105.247 89.1246 105.212 89.1598 104.893C89.1598 104.645 87.034 104.468 86.4314 102.236C86.3062 101.672 86.3147 101.086 86.4562 100.527C86.5977 99.9666 86.8682 99.4476 87.2462 99.011C92.8806 92.03 93.731 88.0613 94.1565 85.368C94.2272 84.8011 94.5463 81.86 95.8573 79.9464C95.8573 79.9108 95.8929 79.9108 95.8929 79.8752C96.8497 78.3514 98.2671 76.934 100.358 76.5442C100.612 76.4766 100.874 76.441 101.137 76.4383H101.315C103.228 76.6506 103.866 77.4658 104.326 78.3163C104.614 78.9383 104.736 79.6242 104.68 80.3072C104.624 80.9903 104.393 81.6473 104.007 82.2142C103.847 82.4504 103.656 82.6648 103.44 82.8519C103.193 83.0646 102.98 83.2417 103.015 83.4545C103.03 83.5321 103.064 83.605 103.113 83.6667C103.163 83.7284 103.226 83.7772 103.299 83.8087C103.448 83.8659 103.608 83.8892 103.767 83.877C103.927 83.8648 104.081 83.8173 104.22 83.7379L104.326 83.6672C104.61 83.5252 104.823 83.4188 104.929 83.4545C104.964 83.4545 104.964 83.4901 104.964 83.5608C105.035 83.9506 105.106 84.5176 103.547 85.7579C103.129 86.0784 102.663 86.3297 102.165 86.5019C101.846 86.6083 101.669 86.6791 101.598 86.821C101.578 86.8611 101.571 86.9062 101.578 86.9503C101.584 86.9945 101.603 87.0358 101.633 87.0689C101.74 87.3168 102.165 87.4587 102.696 87.4587C102.839 87.4646 102.982 87.4526 103.122 87.4231C104.929 87.1753 107.126 85.5808 107.728 81.7536C107.991 79.9116 107.548 78.0382 106.488 76.5091C105.554 75.2468 104.195 74.3655 102.661 74.0285Z" fill="white"/>
<path d="M79.1314 73.3198C80.1536 73.2176 81.1841 73.4017 82.1076 73.8516C82.5682 74.0639 82.9229 74.2415 83.0644 74.1351C83.3835 73.9931 83.3835 73.6389 83.2415 73.1783C83.0369 72.5507 82.608 72.0207 82.0369 71.6897C81.2018 71.1666 80.2189 70.9302 79.2373 71.0164C76.0483 71.1227 74.1703 73.6745 73.7805 74.2415C73.6403 73.9193 73.4055 73.6473 73.1072 73.4618C72.469 73.0363 71.7605 72.8592 71.5478 73.1076C71.4414 73.2491 71.5478 73.4262 71.7249 73.6745C72.0233 74.062 72.2622 74.4919 72.4338 74.9499C72.5832 75.6363 72.6191 76.3426 72.5402 77.0406C72.4362 78.1865 72.4719 79.3407 72.6466 80.4779C73.0305 82.1521 73.9589 83.6516 75.2862 84.7417C76.6136 85.8318 78.265 86.451 79.9818 86.5021C80.4346 86.5095 80.8866 86.4618 81.328 86.3602C82.8438 85.9587 84.195 85.091 85.1907 83.8796C85.2699 83.9281 85.3416 83.9879 85.4035 84.0572C86.3449 84.8822 87.3522 85.6287 88.4153 86.2894C88.6608 85.339 88.8035 84.3649 88.8408 83.3839C87.3511 82.3221 85.9738 81.111 84.7301 79.7695C82.8517 77.7847 82.2496 77.147 82.2496 77.147C81.8954 76.8635 80.6903 75.8716 79.4149 75.8359C78.8823 75.7786 78.344 75.8642 77.8555 76.0838L78.1746 76.5444C78.2805 76.6864 78.8479 77.5012 79.9818 78.9542C80.9044 80.1135 81.9239 81.1922 83.0293 82.1788L82.9937 82.25L83.2064 82.4271C82.4449 83.2407 81.4104 83.7453 80.3004 83.8445C77.2178 84.1987 75.0207 81.683 74.7017 79.0962C74.521 77.7784 74.8645 76.4425 75.6584 75.3754C76.5371 74.3017 77.7674 73.5735 79.1314 73.3198Z" fill="white"/>
<path d="M28.4576 47.4159C33.525 49.2939 36.3597 48.1956 36.5017 48.16C36.555 48.1369 36.6142 48.1311 36.6709 48.1434C36.7277 48.1556 36.7792 48.1853 36.8182 48.2283C36.8572 48.2712 36.8819 48.3253 36.8886 48.383C36.8954 48.4407 36.884 48.499 36.8559 48.5498L36.8208 48.5854C36.3953 49.046 35.3322 50.2155 34.6945 51.066C35.2109 51.1438 35.7125 51.2991 36.1826 51.5266C36.5886 51.6945 36.9798 51.896 37.3521 52.1291C38.9681 49.74 41.0392 47.6928 43.4471 46.1049C45.4314 44.7583 48.656 43.4824 51.8455 42.7739L52.1997 42.7032L51.9162 42.9155C50.9893 43.6257 50.2175 44.5182 49.6484 45.538C48.8688 46.8846 48.2311 48.8333 48.4438 49.4003L48.4789 49.4715C48.7624 49.5774 48.7624 49.5774 48.9044 49.4003C49.015 49.2207 49.1458 49.0544 49.2942 48.9045C49.3766 48.7886 49.482 48.691 49.604 48.6177C49.7259 48.5445 49.8616 48.4973 50.0027 48.4791H50.0383C50.1861 48.4859 50.3257 48.5493 50.4281 48.6562L50.4632 48.6918C50.6408 48.7982 50.6052 48.9753 50.5345 49.4003C50.4281 50.1448 50.2154 51.5622 50.9243 52.6961C51.8811 54.2198 52.7315 55.2117 53.1921 55.3181C53.2629 55.3181 53.2985 55.3181 53.3336 55.283C53.3692 55.2474 53.5463 55.0702 53.3692 54.1842C53.1921 53.263 52.7315 50.0736 53.2273 47.8414C53.8298 45.0774 55.5663 42.4197 57.7985 42.4197H58.0112V39.9392C57.5862 39.9392 55.3536 39.7621 54.0425 38.3798C53.6987 37.9959 53.4341 37.5478 53.2638 37.0614C53.0935 36.5749 53.0209 36.0596 53.0501 35.5451C53.1083 33.6857 53.8829 31.9207 55.2121 30.6192C55.3536 30.4777 55.8142 29.9815 55.6726 29.6628C55.619 29.5478 55.5341 29.4501 55.4275 29.3812C55.3209 29.3122 55.197 29.2747 55.0701 29.273H54.9993C53.9362 29.273 52.0582 30.6192 51.4913 31.5052C50.9747 32.3219 50.5694 33.2038 50.2861 34.1277C50.2717 34.1686 50.2483 34.2057 50.2176 34.2363C50.187 34.2669 50.1499 34.2904 50.109 34.3048C49.8854 34.3672 49.6476 34.356 49.4308 34.2731C49.2139 34.1902 49.0294 34.0399 48.9044 33.8442C48.6578 33.4934 48.5446 33.066 48.5853 32.6391V32.4268C48.5556 32.402 48.5176 32.3893 48.4789 32.3912C48.4082 32.3912 48.2311 32.4268 48.0539 32.7103C47.6641 33.348 48.0183 36.3955 49.1878 38.0256C49.7548 38.8053 50.2154 39.443 50.5696 39.9036L50.6408 40.0099L50.4989 40.0455C49.6445 40.2066 48.8034 40.4315 47.9827 40.7184C46.6366 41.1795 45.2192 41.7815 43.8369 42.3485L43.8013 42.2777L43.8369 42.3485C42.2068 43.0218 40.5416 43.7307 38.9822 44.2269C34.411 45.6795 30.761 45.5736 28.4224 43.9079C26.0126 42.2777 23.2842 39.1947 23.355 33.915C23.4326 31.1502 24.5309 28.5121 26.4381 26.509C27.187 25.7341 28.0845 25.1181 29.0769 24.6979C30.0693 24.2778 31.1363 24.062 32.214 24.0636H32.4267C38.2026 24.2056 40.1869 27.8556 40.1161 30.9382C40.0454 33.8794 38.4153 35.7929 35.722 36.0413C34.9568 36.1242 34.1861 35.9449 33.536 35.5329C32.8859 35.1208 32.3949 34.5004 32.1432 33.773C31.9107 33.0646 31.8028 32.3212 31.8241 31.5759C31.7885 30.9739 31.7885 30.5133 31.5763 30.3005C31.4699 30.2298 31.3991 30.1942 31.2928 30.2298C30.9756 30.3921 30.7341 30.6716 30.6195 31.009C30.3027 31.8068 30.1489 32.6599 30.1671 33.5181C30.1854 34.3763 30.3754 35.2221 30.7258 36.0057C31.505 37.6709 33.7021 39.1947 36.431 38.876C37.7451 38.7608 39.0013 38.2821 40.059 37.4936C41.1166 36.7051 41.934 35.6378 42.4196 34.4112C42.9761 33.2664 43.2204 31.995 43.128 30.7255C43.1089 30.3797 43.0615 30.0361 42.9865 29.698C42.9734 29.6625 42.9698 29.6242 42.976 29.5869C42.9823 29.5496 42.9982 29.5145 43.0221 29.4852C43.0639 29.4198 43.1262 29.3701 43.1992 29.3437C44.4452 29.0845 45.5467 28.3627 46.2819 27.3238C48.3726 24.3471 47.5933 22.6818 47.2743 22.2212C47.0264 21.8314 46.7429 21.725 46.6717 21.7602C46.5568 21.9427 46.4841 22.1485 46.459 22.3627C46.2467 23.178 45.9632 24.4183 44.3683 24.8789C42.9865 25.3039 42.0297 24.6305 40.7895 23.745H40.7538C39.8082 23.0221 38.7718 22.4263 37.6712 21.9729C35.7156 21.2365 33.6263 20.9226 31.5406 21.0517C26.0834 21.5479 20.4846 25.5873 20.2368 33.5607C20.0596 41.4273 24.3474 45.8922 28.4576 47.4159Z" fill="white"/>
<path d="M31.5052 79.131C35.9349 79.3437 39.6557 76.5797 41.0731 75.5522C43.2701 73.9577 47.2744 69.7758 47.31 69.7407L47.3807 69.67L47.4515 69.7758C47.4515 69.8115 48.7981 72.0085 50.1447 72.6462C51.0602 73.0137 52.075 73.0513 53.0151 72.7526C53.1922 72.6818 53.263 72.6462 53.263 72.6111C53.263 72.5755 53.1215 72.4691 52.9795 72.3627C52.3963 71.9381 51.9066 71.3982 51.5409 70.7764C51.1751 70.1546 50.941 69.4643 50.8532 68.7483C50.6409 66.7284 54.7511 64.8153 57.6927 64.2834L57.7986 61.4131C56.9315 61.4549 56.0678 61.5496 55.2122 61.6965C49.9676 63.1495 46.6367 66.339 43.3765 69.4216C39.9035 72.7174 36.6438 75.8357 31.5764 75.8357H31.47C29.5564 75.8357 27.6429 74.8789 26.0835 73.2132C25.1066 72.1583 24.3496 70.9194 23.8568 69.5687C23.3639 68.218 23.1451 66.7827 23.2131 65.3466C23.4615 62.1927 24.5954 59.6059 26.5089 57.8694C28.0009 56.5032 29.9434 55.7338 31.9662 55.7079H32.0726C33.6088 55.763 35.0867 56.3096 36.2891 57.2673C36.9322 57.791 37.4595 58.4425 37.8377 59.1805C38.2159 59.9186 38.4367 60.7272 38.4862 61.555C38.5576 62.3183 38.4615 63.088 38.2045 63.8103C37.9474 64.5325 37.5357 65.1899 36.998 65.7364C36.376 66.2652 35.6366 66.6376 34.8414 66.8225C34.0462 67.0075 33.2183 66.9996 32.4268 66.7996C31.2573 66.5512 30.3005 65.5593 29.7692 64.7089C29.3894 64.0758 29.0917 63.3971 28.8831 62.6889C28.8487 62.5874 28.7809 62.5006 28.6908 62.4427C28.6007 62.3847 28.4935 62.359 28.3869 62.3699C28.1034 62.4055 27.8907 62.7953 27.8556 63.433C27.8289 64.7586 28.2473 66.0548 29.0438 67.1147C29.8403 68.1746 30.969 68.937 32.2497 69.2801C33.9479 69.8194 35.7878 69.6907 37.3944 68.9202C39.001 68.1498 40.2532 66.7957 40.8959 65.1339C41.2564 64.2265 41.4832 63.2716 41.5693 62.2991C41.5693 62.2635 41.6044 62.0864 41.7464 62.0512C41.8879 62.0156 41.9942 62.1571 42.0655 62.2991C42.4204 62.6813 42.8671 62.9666 43.3632 63.1278C43.8593 63.289 44.3884 63.3208 44.9002 63.2203C46.2112 62.8661 46.7782 61.7678 47.31 60.669C47.8057 59.6766 48.3019 58.7203 49.3295 58.5783C50.5697 58.3656 50.9244 58.5783 51.1723 58.6847C51.3143 58.7554 51.3494 58.791 51.5977 58.6139C51.674 58.5594 51.7295 58.4807 51.7552 58.3905C51.7809 58.3004 51.7753 58.2042 51.7392 58.1177C51.5265 57.4444 50.2863 56.5232 48.621 56.594C48.0812 56.5698 47.5424 56.6617 47.0411 56.8635C46.5398 57.0652 46.0876 57.3721 45.715 57.7635C45.2723 58.194 44.7563 58.542 44.1913 58.791C42.4197 59.5707 41.5336 59.3224 41.4985 59.2872H41.4629V59.2516C41.4273 59.1809 38.4862 52.9795 31.7886 52.9795H31.7535C29.4484 52.9103 27.1919 53.65 25.375 55.0702C25.1623 55.2474 25.0916 55.283 25.0208 55.2474C25.0113 55.2429 25.0029 55.2365 24.9959 55.2287C24.9889 55.2209 24.9836 55.2117 24.9803 55.2018C24.977 55.1918 24.9757 55.1813 24.9765 55.1709C24.9774 55.1604 24.9803 55.1503 24.9852 55.141C25.056 54.8575 24.5598 53.0859 24.2411 52.4126C24.0625 52.0929 23.8188 51.8142 23.5259 51.5945C23.2329 51.3747 22.8972 51.2188 22.5403 51.1367C23.0027 51.8757 23.1907 52.7537 23.0716 53.6172C23.0346 54.4457 22.817 55.256 22.4339 55.9914C22.2161 56.4398 22.0268 56.9015 21.867 57.3737C20.6618 60.6334 20.3076 62.1927 20.272 65.6301C20.2369 69.4216 21.4059 72.8589 23.603 75.3751C24.6076 76.4911 25.8229 77.3974 27.1791 78.042C28.5352 78.6866 30.0054 79.0567 31.5052 79.131Z" fill="white"/>
</svg>
