<svg width="128" height="128" viewBox="0 0 128 128" fill="none" xmlns="http://www.w3.org/2000/svg">
<path d="M90.8826 69.1465H75.5714V61.2853C75.5679 58.2662 74.3669 55.3718 72.2319 53.2372C70.0969 51.1026 67.2023 49.902 64.1833 49.899C61.1645 49.9025 58.2704 51.1033 56.1359 53.2379C54.0013 55.3724 52.8005 58.2665 52.797 61.2853V69.1465H37.4858V61.2853C37.4858 46.5644 49.4624 34.5859 64.1852 34.5859C78.9079 34.5859 90.8845 46.5625 90.8845 61.2853V69.1465H90.8826Z" fill="#F9A11D"/>
<path d="M97.0583 69.1465H31.3098C29.9574 69.1505 28.6616 69.6895 27.7053 70.6458C26.7491 71.602 26.2101 72.8979 26.2061 74.2502V122.888C26.2101 124.24 26.7491 125.536 27.7053 126.492C28.6616 127.449 29.9574 127.988 31.3098 127.992H97.0583C98.4106 127.988 99.7064 127.449 100.663 126.492C101.619 125.536 102.158 124.24 102.162 122.888V74.2502C102.158 72.8979 101.619 71.602 100.663 70.6458C99.7064 69.6895 98.4106 69.1505 97.0583 69.1465ZM67.5157 101.081V107.672C67.4865 108.536 67.1228 109.355 66.5014 109.955C65.8799 110.556 65.0494 110.892 64.185 110.892C63.3206 110.892 62.4901 110.556 61.8686 109.955C61.2472 109.355 60.8834 108.536 60.8542 107.672V101.083C59.5536 100.347 58.533 99.2022 57.9517 97.8258C57.3705 96.4493 57.2614 94.9192 57.6414 93.4742C58.0213 92.0291 58.869 90.7506 60.0522 89.8381C61.2353 88.9256 62.6872 88.4305 64.1814 88.4301C65.6755 88.4296 67.1277 88.9239 68.3114 89.8357C69.495 90.7476 70.3434 92.0256 70.7242 93.4704C71.105 94.9152 70.9968 96.4454 70.4163 97.8222C69.8359 99.199 68.816 100.345 67.5157 101.081Z" fill="url(#paint0_linear_264_2622)"/>
<path d="M24.6445 61.8944H8.77919C7.54379 61.8944 6.35898 61.4036 5.48542 60.53C4.61186 59.6565 4.12109 58.4717 4.12109 57.2363C4.12109 56.0009 4.61186 54.8161 5.48542 53.9425C6.35898 53.0689 7.54379 52.5782 8.77919 52.5782H24.6445C25.8799 52.5782 27.0647 53.0689 27.9383 53.9425C28.8119 54.8161 29.3026 56.0009 29.3026 57.2363C29.3026 58.4717 28.8119 59.6565 27.9383 60.53C27.0647 61.4036 25.8799 61.8944 24.6445 61.8944ZM35.8194 36.9375C34.7408 36.9388 33.6955 36.5636 32.8638 35.8768L20.314 25.557C19.3596 24.7721 18.7562 23.6403 18.6364 22.4105C18.5166 21.1807 18.8902 19.9536 19.6751 18.9993C20.4599 18.045 21.5918 17.4415 22.8216 17.3217C24.0514 17.2019 25.2784 17.5755 26.2328 18.3604L38.7826 28.6802C39.5248 29.29 40.0604 30.1143 40.316 31.0403C40.5715 31.9663 40.5345 32.9486 40.2101 33.8528C39.8856 34.757 39.2895 35.5387 38.5035 36.0909C37.7175 36.6431 36.78 36.9389 35.8194 36.9375ZM64.1831 25.9684C62.9477 25.9684 61.7629 25.4776 60.8894 24.604C60.0158 23.7305 59.525 22.5457 59.525 21.3103V5.31923C59.525 4.08383 60.0158 2.89902 60.8894 2.02546C61.7629 1.1519 62.9477 0.661133 64.1831 0.661133C65.4185 0.661133 66.6033 1.1519 67.4769 2.02546C68.3505 2.89902 68.8412 4.08383 68.8412 5.31923V21.3103C68.8412 22.5457 68.3505 23.7305 67.4769 24.604C66.6033 25.4776 65.4185 25.9684 64.1831 25.9684ZM92.5469 36.9375C91.5868 36.9378 90.6501 36.6414 89.8648 36.089C89.0795 35.5367 88.484 34.7552 88.1597 33.8515C87.8354 32.9479 87.7982 31.9661 88.0531 31.0404C88.3079 30.1148 88.8425 29.2905 89.5837 28.6802L102.133 18.3604C103.091 17.6063 104.306 17.2573 105.518 17.3884C106.729 17.5194 107.842 18.1199 108.616 19.0613C109.39 20.0026 109.765 21.2099 109.659 22.4241C109.554 23.6384 108.977 24.7631 108.052 25.557L95.5025 35.8768C94.6702 36.5624 93.6247 36.9394 92.5469 36.9375ZM119.589 61.8944H103.573C102.338 61.8944 101.153 61.4036 100.279 60.53C99.4059 59.6565 98.9151 58.4717 98.9151 57.2363C98.9151 56.0009 99.4059 54.8161 100.279 53.9425C101.153 53.0689 102.338 52.5782 103.573 52.5782H119.589C120.824 52.5782 122.009 53.0689 122.883 53.9425C123.756 54.8161 124.247 56.0009 124.247 57.2363C124.247 58.4717 123.756 59.6565 122.883 60.53C122.009 61.4036 120.824 61.8944 119.589 61.8944Z" fill="#F9A11D"/>
<defs>
<linearGradient id="paint0_linear_264_2622" x1="64.184" y1="69.1465" x2="64.184" y2="127.992" gradientUnits="userSpaceOnUse">
<stop stop-color="#374B83"/>
<stop offset="1" stop-color="#2C3C69"/>
</linearGradient>
</defs>
</svg>
