<svg width="128" height="128" viewBox="0 0 128 128" fill="none" xmlns="http://www.w3.org/2000/svg">
<path d="M128 2H0V126.213H128V2Z" fill="#87EC00"/>
<path d="M121.227 8.40039H6.3999V119.44H121.227V8.40039Z" fill="#152600"/>
<path d="M41.3866 42.6397H27.4666C27.0933 42.6397 26.72 42.2664 26.72 41.893L27.4666 35.1197C27.4666 34.7464 27.84 34.373 28.2133 34.373H62.08C62.4533 34.373 62.4533 34.373 62.8266 34.7464C62.8266 34.7464 62.8266 34.7464 62.8266 35.1197L63.5733 41.893C63.5733 42.2664 63.5733 42.2664 63.2 42.6397H50.08V89.6797C50.08 90.053 49.7066 90.4264 49.3333 90.4264H41.8133C41.44 90.4264 41.0666 90.053 41.0666 89.6797L41.3866 42.6397ZM77.92 67.8664L90.3466 50.9064C90.3466 50.533 90.72 50.533 91.0933 50.533H99.36C100.107 50.533 100.107 50.9064 99.7333 51.2797C97.8666 53.893 88.8 64.8264 85.8133 68.2397V68.9864L101.6 89.6797C101.973 90.053 101.6 90.4264 101.227 90.4264H91.84C91.4666 90.4264 91.0933 90.053 91.0933 89.6797C88.48 86.2664 81.7066 76.5064 78.2933 71.973V89.6797C78.2933 90.053 78.2933 90.0531 77.92 90.4264H70.0266C69.6533 90.4264 69.6533 90.4264 69.28 90.0531C69.28 90.0531 69.28 90.053 69.28 89.6797V35.1197C69.28 34.7464 69.28 34.7464 69.6533 34.373H77.5466C77.92 34.373 78.2933 34.7464 78.2933 35.1197L77.92 67.8664Z" fill="#87EC00"/>
</svg>
