<svg width="128" height="128" viewBox="0 0 128 128" fill="none" xmlns="http://www.w3.org/2000/svg">
<path fill-rule="evenodd" clip-rule="evenodd" d="M84.3147 64.6868C83.658 64.0268 82.9979 63.3701 82.3412 62.0566C66.5668 62.0566 49.4756 64.6868 35.0146 69.2871C36.9881 70.6072 38.9583 71.9206 40.9284 73.2307C53.4226 67.9737 69.197 64.6868 84.3147 64.6868Z" fill="#2B74B8"/>
<path fill-rule="evenodd" clip-rule="evenodd" d="M98.7759 64.0268C94.8323 62.7134 90.232 62.7134 85.6317 62.0566C86.2884 63.3734 86.2884 64.0268 86.9451 64.6868C91.5454 65.3435 96.1491 65.3435 100.749 66.0002C125.728 70.6039 132.302 85.0649 116.524 97.5524C100.089 110.697 67.2237 117.93 42.2454 113.327C17.267 108.723 10.6932 94.2622 26.471 81.7747C29.9398 78.9877 33.6852 76.5638 37.6484 74.5408C35.6749 73.2241 33.7015 71.9173 31.7313 70.6006C23.8408 73.8808 17.2704 77.171 12.01 81.7747C-7.05464 96.8923 1.49261 113.327 31.0713 118.587C59.9933 123.841 99.4326 115.957 117.841 100.839C136.902 85.7216 128.358 69.2871 98.7759 64.0268Z" fill="#2B74B8"/>
<path fill-rule="evenodd" clip-rule="evenodd" d="M17.2667 51.5384C6.09264 36.4207 11.353 25.2433 29.1009 27.8734C32.3878 28.5302 36.3314 29.1902 39.6182 30.5036C40.275 29.1902 41.5884 27.8734 42.2484 26.56C35.0179 23.2731 27.7874 20.6463 21.8737 19.9862C0.182236 16.6993 -6.39155 29.1902 6.75268 47.5948C12.6698 56.1387 21.8737 64.0259 31.731 70.603C33.0445 70.603 33.7012 69.9463 35.0179 69.2829C27.7841 64.0259 21.2137 58.1122 17.2667 51.5384Z" fill="#A4B4D7"/>
<path fill-rule="evenodd" clip-rule="evenodd" d="M70.5102 44.9666C62.623 37.7361 53.4224 31.1624 43.5617 27.2188C42.905 28.5355 41.5882 29.8489 40.9315 31.1623C49.4754 33.7925 58.6794 39.0495 66.5666 45.6233C67.8833 44.9666 69.1968 44.9666 70.5102 44.9666ZM81.6843 60.7444C81.6843 61.4011 82.341 61.4011 82.341 62.0578H85.6279C84.9712 60.7444 83.6544 59.4276 82.9977 58.1142C80.3675 54.1706 77.084 50.8837 73.137 46.9401C71.8203 47.5968 71.1636 47.5968 69.8501 47.5968C74.4538 51.5404 78.4007 56.1407 81.6843 60.7444ZM69.1968 84.4093C60.6529 83.0925 50.1321 79.1489 40.9315 73.2285C39.6181 73.8852 38.9614 74.5453 37.6479 74.5453C48.1653 80.4624 58.6827 85.066 67.8833 86.3828C86.2879 88.3562 94.1785 79.1489 86.9446 64.688H84.3145C91.545 77.8322 84.9745 86.3828 69.1968 84.4093Z" fill="#A4B4D7"/>
<path fill-rule="evenodd" clip-rule="evenodd" d="M40.9316 73.2288C38.9615 71.9187 36.988 70.6052 35.0178 69.2852C33.7011 69.9452 33.0444 70.6053 31.731 70.6053C33.7011 71.922 35.6746 73.2288 37.648 74.5455C38.9581 74.5455 39.6182 73.8888 40.9316 73.2288Z" fill="#2B74B8"/>
<path fill-rule="evenodd" clip-rule="evenodd" d="M84.3149 64.6868H86.945C86.2883 64.0268 86.2883 63.3701 85.6316 62.0566H82.3447C83.0014 63.3701 83.6581 64.0268 84.3149 64.6868Z" fill="#A4B4D7"/>
<path fill-rule="evenodd" clip-rule="evenodd" d="M48.1622 23.2744C59.993 13.4137 81.0277 8.15669 94.1753 11.4436C107.98 14.0738 109.293 23.9344 96.8055 33.135C90.2317 39.0521 80.371 42.9957 70.5104 44.9692C71.8271 45.6259 72.4838 46.2826 73.1405 46.9393C84.9713 44.9692 96.8055 40.3656 105.349 33.7918C119.81 22.6177 117.84 11.4436 102.063 8.15669C86.2881 4.21309 61.9631 10.7869 47.5021 21.3009C45.5287 23.2744 43.5585 24.5878 42.2418 26.5613C42.8985 26.5613 43.5585 26.5613 43.5585 27.218C44.8753 25.9012 46.1887 24.5878 48.1622 23.2744ZM50.7923 47.5961C56.7061 48.9095 62.6265 48.9095 69.857 47.5961C68.5402 46.9393 67.8835 46.2793 66.5701 45.6259C60.6564 46.2826 55.396 46.2826 50.7957 44.9692C40.935 42.9957 37.6515 37.0787 40.935 31.1649C40.2783 30.5082 40.2783 30.5082 39.6216 30.5082C35.6747 38.3954 39.6183 44.9659 50.7923 47.5961Z" fill="#C8D2E5"/>
<path fill-rule="evenodd" clip-rule="evenodd" d="M40.9315 31.1609C41.5882 29.8475 42.905 28.5307 43.5617 27.2173C43.5617 26.5606 42.905 26.5605 42.2449 26.5605C41.5882 27.8773 40.2715 29.1907 39.6147 30.5042C40.2715 30.5042 40.2715 30.5042 40.9315 31.1609Z" fill="#A4B4D7"/>
<path fill-rule="evenodd" clip-rule="evenodd" d="M66.5664 45.6235C67.8832 46.2802 68.5399 46.9369 69.8533 47.5936C71.1667 47.5936 71.8234 47.5936 73.1402 46.9369C72.3905 46.1258 71.4992 45.4582 70.51 44.9668C69.1966 44.9668 67.8832 44.9668 66.5664 45.6235Z" fill="#C8D2E5"/>
</svg>
