<svg width="128" height="128" viewBox="0 0 128 128" fill="none" xmlns="http://www.w3.org/2000/svg">
<rect width="128" height="128" rx="24" fill="url(#paint0_linear_264_3286)"/>
<g clip-path="url(#clip0_264_3286)">
<path fill-rule="evenodd" clip-rule="evenodd" d="M115.755 77.4479H115.408V75.3723H116.209C116.464 75.3723 116.656 75.4191 116.785 75.5127C116.915 75.6063 116.979 75.7584 116.979 75.9689C116.979 76.1561 116.927 76.2931 116.821 76.38C116.716 76.4669 116.585 76.5187 116.428 76.5354L117.02 77.4479H116.627L116.081 76.5605H115.755V77.4479ZM116.142 76.2697C116.207 76.2697 116.269 76.2672 116.329 76.2622C116.388 76.2572 116.44 76.243 116.484 76.2196C116.529 76.1962 116.564 76.1636 116.592 76.1218C116.619 76.08 116.632 76.0207 116.632 75.9438C116.632 75.8803 116.618 75.8302 116.589 75.7934C116.56 75.7567 116.523 75.7283 116.479 75.7082C116.435 75.6882 116.386 75.6756 116.331 75.6706C116.277 75.6656 116.224 75.6631 116.173 75.6631H115.755V76.2697H116.142ZM118 76.375C118 76.6558 117.95 76.9114 117.849 77.142C117.749 77.3727 117.613 77.5699 117.441 77.7336C117.269 77.8974 117.07 78.0244 116.844 78.1146C116.618 78.2049 116.381 78.25 116.132 78.25C115.857 78.25 115.604 78.2024 115.374 78.1071C115.145 78.0119 114.947 77.8807 114.782 77.7136C114.617 77.5465 114.488 77.3484 114.395 77.1195C114.301 76.8905 114.254 76.6424 114.254 76.375C114.254 76.0942 114.304 75.8386 114.405 75.608C114.505 75.3773 114.641 75.1801 114.813 75.0164C114.985 74.8526 115.185 74.7256 115.413 74.6354C115.641 74.5451 115.88 74.5 116.132 74.5C116.381 74.5 116.618 74.5451 116.844 74.6354C117.07 74.7256 117.269 74.8526 117.441 75.0164C117.613 75.1801 117.749 75.3773 117.849 75.608C117.95 75.8386 118 76.0942 118 76.375ZM117.592 76.375C117.592 76.1477 117.554 75.9388 117.479 75.7483C117.405 75.5578 117.301 75.3941 117.168 75.257C117.036 75.12 116.881 75.0139 116.704 74.9387C116.527 74.8635 116.336 74.8259 116.132 74.8259C115.925 74.8259 115.732 74.8635 115.553 74.9387C115.374 75.0139 115.219 75.12 115.086 75.257C114.953 75.3941 114.85 75.5578 114.775 75.7483C114.7 75.9388 114.663 76.1477 114.663 76.375C114.663 76.5889 114.697 76.7894 114.765 76.9766C114.833 77.1638 114.93 77.3275 115.058 77.4679C115.186 77.6083 115.34 77.7194 115.52 77.8013C115.7 77.8832 115.904 77.9241 116.132 77.9241C116.336 77.9241 116.527 77.8865 116.704 77.8113C116.881 77.7361 117.036 77.63 117.168 77.493C117.301 77.3559 117.405 77.193 117.479 77.0042C117.554 76.8153 117.592 76.6056 117.592 76.375ZM29.8076 63.5551C29.8076 65.3079 29.5921 66.9191 29.1611 68.3888C28.7302 69.8584 28.1039 71.1326 27.2824 72.2112C26.4609 73.2899 25.4373 74.1258 24.2118 74.7191C22.9862 75.3124 21.5788 75.609 19.9896 75.609C18.7775 75.609 17.6934 75.3056 16.7372 74.6989C15.781 74.0921 15.0335 73.3169 14.4948 72.373V82H12.7979C12.3131 82 11.8417 81.9124 11.3838 81.7371C10.9259 81.5618 10.5219 81.3124 10.1717 80.9888C9.82153 80.6652 9.53871 80.2742 9.32322 79.8157C9.10774 79.3573 9 78.8315 9 78.2382V65.0517C9 63.2449 9.20875 61.5865 9.62625 60.0764C10.0437 58.5663 10.6969 57.2719 11.5858 56.1933C12.4747 55.1146 13.6059 54.2787 14.9797 53.6854C16.3534 53.0921 17.9964 52.7955 19.9088 52.7955C21.3634 52.7955 22.6966 53.0989 23.9087 53.7056C25.1208 54.3124 26.1646 55.1146 27.04 56.1124C27.9154 57.1101 28.5955 58.2562 29.0803 59.5506C29.5652 60.8449 29.8076 62.1798 29.8076 63.5551ZM24.232 64.9708C24.232 62.382 23.8077 60.5079 22.9593 59.3483C22.1108 58.1888 20.8112 57.609 19.0604 57.609C17.552 57.609 16.4005 58.1955 15.6059 59.3685C14.8113 60.5416 14.414 62.0719 14.414 63.9596C14.414 66.1438 14.9056 67.8292 15.8887 69.0157C16.8719 70.2023 18.1715 70.7955 19.7876 70.7955C21.1075 70.7955 22.1781 70.2629 22.9997 69.1978C23.8212 68.1326 24.232 66.7236 24.232 64.9708ZM49.0713 75.1236C47.94 75.1236 47.0444 74.8135 46.3845 74.1933C45.7246 73.573 45.3946 72.6697 45.3946 71.4831V62.5843C45.3946 61.6944 45.2801 60.9326 45.0512 60.2989C44.8222 59.6652 44.5125 59.1528 44.1219 58.7618C43.7314 58.3708 43.2735 58.0809 42.7482 57.8921C42.223 57.7034 41.6641 57.609 41.0715 57.609C40.6405 57.609 40.1961 57.6966 39.7382 57.8719C39.2803 58.0472 38.8561 58.3371 38.4655 58.7416C38.0749 59.1461 37.7584 59.6719 37.516 60.3191C37.2736 60.9663 37.1524 61.7753 37.1524 62.7461V75.1236H35.3747C34.0817 75.1236 33.139 74.8 32.5464 74.1528C31.9538 73.5056 31.6576 72.6157 31.6576 71.4831V46H33.3545C34.6474 46 35.6103 46.3236 36.2433 46.9708C36.8763 47.618 37.1928 48.4539 37.1928 49.4787V55.7079C37.3813 55.3843 37.644 55.0539 37.9806 54.7169C38.3173 54.3798 38.6877 54.0697 39.0917 53.7865C39.4958 53.5034 39.9402 53.2674 40.425 53.0787C40.9099 52.8899 41.4082 52.7955 41.92 52.7955C44.7482 52.7955 46.9434 53.6112 48.5057 55.2427C50.0679 56.8742 50.849 59.2404 50.849 62.3416V75.1236H49.0713ZM74.3147 63.5551C74.3147 65.3079 74.0992 66.9191 73.6682 68.3888C73.2372 69.8584 72.611 71.1326 71.7895 72.2112C70.9679 73.2899 69.9444 74.1258 68.7188 74.7191C67.4933 75.3124 66.0859 75.609 64.4967 75.609C63.2846 75.609 62.2005 75.3056 61.2443 74.6989C60.288 74.0921 59.5406 73.3169 59.0019 72.373V82H57.305C56.8201 82 56.3488 81.9124 55.8908 81.7371C55.4329 81.5618 55.0289 81.3124 54.6788 80.9888C54.3286 80.6652 54.0458 80.2742 53.8303 79.8157C53.6148 79.3573 53.5071 78.8315 53.5071 78.2382V65.0517C53.5071 63.2449 53.7158 61.5865 54.1333 60.0764C54.5508 58.5663 55.204 57.2719 56.0929 56.1933C56.9817 55.1146 58.113 54.2787 59.4867 53.6854C60.8604 53.0921 62.5035 52.7955 64.4159 52.7955C65.8704 52.7955 67.2037 53.0989 68.4158 53.7056C69.6279 54.3124 70.6716 55.1146 71.5471 56.1124C72.4225 57.1101 73.1026 58.2562 73.5874 59.5506C74.0723 60.8449 74.3147 62.1798 74.3147 63.5551ZM68.739 64.9708C68.739 62.382 68.3148 60.5079 67.4663 59.3483C66.6179 58.1888 65.3182 57.609 63.5674 57.609C62.059 57.609 60.9076 58.1955 60.113 59.3685C59.3184 60.5416 58.9211 62.0719 58.9211 63.9596C58.9211 66.1438 59.4126 67.8292 60.3958 69.0157C61.3789 70.2023 62.6786 70.7955 64.2947 70.7955C65.6145 70.7955 66.6852 70.2629 67.5067 69.1978C68.3283 68.1326 68.739 66.7236 68.739 64.9708ZM96.1238 66.5483C96.1238 67.9506 95.8679 69.191 95.3561 70.2697C94.8443 71.3483 94.1507 72.2584 93.2753 73C92.3999 73.7416 91.3899 74.3011 90.2451 74.6786C89.1003 75.0562 87.895 75.2449 86.629 75.2449H83.6392C78.4945 75.2449 75.9222 73.0472 75.9222 68.6517V48.5483C76.2454 48.4404 76.7033 48.3124 77.2959 48.164C77.8885 48.0157 78.5282 47.8742 79.2151 47.7393C79.9019 47.6045 80.6022 47.4966 81.316 47.4157C82.0298 47.3348 82.6695 47.2944 83.2352 47.2944H86.5886C87.9085 47.2944 89.1206 47.4629 90.2249 47.8C91.3293 48.1371 92.2855 48.6225 93.0935 49.2562C93.9016 49.8899 94.5278 50.6584 94.9723 51.5618C95.4167 52.4652 95.6389 53.4831 95.6389 54.6157C95.6389 56.1528 95.2484 57.4135 94.4672 58.3978C93.6861 59.382 92.6087 60.0764 91.235 60.4809C91.9353 60.6697 92.5818 60.9798 93.1743 61.4112C93.7669 61.8427 94.2854 62.3348 94.7299 62.8876C95.1743 63.4405 95.5177 64.0404 95.7601 64.6876C96.0026 65.3348 96.1238 65.9551 96.1238 66.5483ZM90.1037 55.1011C90.1037 54.5079 89.9758 54.0022 89.7199 53.5843C89.464 53.1663 89.134 52.836 88.73 52.5933C88.326 52.3506 87.8681 52.1753 87.3563 52.0674C86.8445 51.9595 86.3327 51.9056 85.821 51.9056H83.7604C83.4103 51.9056 83.0197 51.9393 82.5887 52.0067C82.1578 52.0742 81.7537 52.1348 81.3766 52.1888V58.4584H85.619C86.858 58.4584 87.9152 58.1955 88.7906 57.6697C89.666 57.1438 90.1037 56.2876 90.1037 55.1011ZM90.5481 66.7101C90.5481 65.2 90.1643 64.1618 89.3966 63.5955C88.629 63.0292 87.4371 62.7461 85.821 62.7461H81.417V68.4494C81.417 68.9348 81.646 69.3461 82.1039 69.6831C82.5618 70.0202 83.1409 70.1888 83.8412 70.1888H86.1038C87.6122 70.1888 88.73 69.8719 89.4573 69.2382C90.1845 68.6045 90.5481 67.7618 90.5481 66.7101ZM117.973 66.5483C117.973 67.9506 117.717 69.191 117.206 70.2697C116.694 71.3483 116 72.2584 115.125 73C114.249 73.7416 113.239 74.3011 112.095 74.6786C110.95 75.0562 109.744 75.2449 108.479 75.2449H105.489C100.344 75.2449 97.7717 73.0472 97.7717 68.6517V48.5483C98.0949 48.4404 98.5528 48.3124 99.1454 48.164C99.738 48.0157 100.378 47.8742 101.065 47.7393C101.751 47.6045 102.452 47.4966 103.166 47.4157C103.879 47.3348 104.519 47.2944 105.085 47.2944H108.438C109.758 47.2944 110.97 47.4629 112.074 47.8C113.179 48.1371 114.135 48.6225 114.943 49.2562C115.751 49.8899 116.377 50.6584 116.822 51.5618C117.266 52.4652 117.488 53.4831 117.488 54.6157C117.488 56.1528 117.098 57.4135 116.317 58.3978C115.536 59.382 114.458 60.0764 113.084 60.4809C113.785 60.6697 114.431 60.9798 115.024 61.4112C115.616 61.8427 116.135 62.3348 116.579 62.8876C117.024 63.4405 117.367 64.0404 117.61 64.6876C117.852 65.3348 117.973 65.9551 117.973 66.5483ZM111.953 55.1011C111.953 54.5079 111.825 54.0022 111.569 53.5843C111.313 53.1663 110.984 52.836 110.579 52.5933C110.175 52.3506 109.718 52.1753 109.206 52.0674C108.694 51.9595 108.182 51.9056 107.67 51.9056H105.61C105.26 51.9056 104.869 51.9393 104.438 52.0067C104.007 52.0742 103.603 52.1348 103.226 52.1888V58.4584H107.468C108.707 58.4584 109.765 58.1955 110.64 57.6697C111.516 57.1438 111.953 56.2876 111.953 55.1011ZM112.398 66.7101C112.398 65.2 112.014 64.1618 111.246 63.5955C110.478 63.0292 109.287 62.7461 107.67 62.7461H103.267V68.4494C103.267 68.9348 103.495 69.3461 103.953 69.6831C104.411 70.0202 104.99 70.1888 105.691 70.1888H107.953C109.462 70.1888 110.579 69.8719 111.307 69.2382C112.034 68.6045 112.398 67.7618 112.398 66.7101Z" fill="#009BDF"/>
</g>
<defs>
<linearGradient id="paint0_linear_264_3286" x1="64" y1="0" x2="64" y2="128" gradientUnits="userSpaceOnUse">
<stop stop-color="white"/>
<stop offset="1" stop-color="#EEEEEE"/>
</linearGradient>
<clipPath id="clip0_264_3286">
<rect width="109" height="36" fill="white" transform="translate(9 46)"/>
</clipPath>
</defs>
</svg>
