<svg width="128" height="128" viewBox="0 0 128 128" fill="none" xmlns="http://www.w3.org/2000/svg">
<rect width="128" height="128" rx="24" fill="url(#paint0_linear_2800_2650)"/>
<g filter="url(#filter0_d_2800_2650)">
<path d="M105.989 50.5435C106.319 50.5527 106.647 50.496 106.954 50.3766C107.261 50.2573 107.542 50.0777 107.779 49.8485C108.015 49.6193 108.204 49.345 108.334 49.0418C108.463 48.7386 108.531 48.4126 108.532 48.0829V45.5671C108.534 45.2398 108.471 44.9155 108.347 44.6128C108.222 44.3101 108.039 44.035 107.808 43.8036C107.576 43.5722 107.301 43.389 106.999 43.2646C106.696 43.1402 106.372 43.0771 106.044 43.0789H96.6721V35.0891C96.6721 34.2349 96.3327 33.4156 95.7287 32.8116C95.1247 32.2076 94.3055 31.8683 93.4513 31.8683H85.4199V22.5376C85.4163 21.8801 85.1525 21.2507 84.6863 20.7871C84.2201 20.3234 83.5893 20.0632 82.9318 20.0632H80.4574C79.8012 20.0632 79.1718 20.3239 78.7078 20.7879C78.2437 21.252 77.983 21.8813 77.983 22.5376V31.8683H68.0303V22.5376C68.0303 21.8813 67.7696 21.252 67.3056 20.7879C66.8415 20.3239 66.2122 20.0632 65.5559 20.0632H63.0677C62.4115 20.0632 61.7821 20.3239 61.3181 20.7879C60.8541 21.252 60.5934 21.8813 60.5934 22.5376V31.8683H50.6406V22.5376C50.6406 21.8813 50.3799 21.252 49.9159 20.7879C49.4519 20.3239 48.8225 20.0632 48.1663 20.0632H45.6781C45.0218 20.0632 44.3925 20.3239 43.9285 20.7879C43.4644 21.252 43.2037 21.8813 43.2037 22.5376V31.8683H35.1724C34.3182 31.8683 33.499 32.2076 32.895 32.8116C32.2909 33.4156 31.9516 34.2349 31.9516 35.0891V43.1204H22.6071C22.2787 43.1112 21.9517 43.1675 21.6453 43.286C21.3389 43.4045 21.0592 43.5828 20.8224 43.8106C20.5857 44.0383 20.3966 44.3109 20.2663 44.6125C20.1361 44.9141 20.0671 45.2386 20.0636 45.5671V48.0415C20.0636 48.3676 20.128 48.6905 20.2533 48.9916C20.3785 49.2927 20.562 49.5661 20.7932 49.796C21.0244 50.026 21.2988 50.2079 21.6006 50.3315C21.9024 50.455 22.2257 50.5177 22.5518 50.5158H31.8687V60.4686H22.6071C22.2728 60.4592 21.9402 60.5176 21.6292 60.6404C21.3182 60.7631 21.0353 60.9477 20.7975 61.1828C20.5598 61.4179 20.3722 61.6988 20.2461 62.0084C20.1199 62.3181 20.0579 62.6501 20.0636 62.9844V65.4726C20.0636 65.7987 20.128 66.1216 20.2533 66.4227C20.3785 66.7238 20.562 66.9972 20.7932 67.2272C21.0244 67.4571 21.2988 67.6391 21.6006 67.7626C21.9024 67.8861 22.2257 67.9488 22.5518 67.947H31.8687V77.8997H22.6071C22.2764 77.8905 21.9472 77.9477 21.6389 78.0679C21.3307 78.1881 21.0497 78.3689 20.8126 78.5995C20.5754 78.8302 20.387 79.1061 20.2583 79.4109C20.1297 79.7157 20.0635 80.0432 20.0636 80.3741V82.8899C20.0618 83.2172 20.1249 83.5416 20.2493 83.8443C20.3737 84.147 20.5569 84.422 20.7883 84.6534C21.0197 84.8848 21.2947 85.068 21.5974 85.1924C21.9001 85.3168 22.2245 85.3799 22.5518 85.3781H31.8687V93.4094C31.8687 94.2636 32.208 95.0829 32.812 95.6869C33.416 96.2909 34.2353 96.6302 35.0895 96.6302H43.1208V105.961C43.1244 106.618 43.3882 107.248 43.8544 107.711C44.3207 108.175 44.9515 108.435 45.609 108.435H48.0833C48.7396 108.435 49.3689 108.175 49.833 107.711C50.297 107.247 50.5577 106.617 50.5577 105.961V96.5888H60.5104V105.919C60.5104 106.576 60.7711 107.205 61.2352 107.669C61.6992 108.133 62.3286 108.394 62.9848 108.394H65.473C66.1292 108.394 66.7586 108.133 67.2226 107.669C67.6867 107.205 67.9474 106.576 67.9474 105.919V96.5888H77.9001V105.919C77.9001 106.244 77.9641 106.566 78.0885 106.866C78.2128 107.167 78.3951 107.439 78.6248 107.669C78.8546 107.899 79.1274 108.081 79.4276 108.205C79.7278 108.33 80.0495 108.394 80.3745 108.394H82.8627C83.5189 108.394 84.1483 108.133 84.6123 107.669C85.0763 107.205 85.337 106.576 85.337 105.919V96.5888H93.3683C94.2225 96.5888 95.0418 96.2494 95.6458 95.6454C96.2498 95.0414 96.5891 94.2222 96.5891 93.3679V85.3366H105.92C106.247 85.344 106.573 85.2863 106.877 85.167C107.182 85.0476 107.46 84.869 107.696 84.6414C107.931 84.4139 108.119 84.1419 108.248 83.8412C108.377 83.5406 108.446 83.2172 108.449 82.8899V80.3741C108.449 79.7178 108.189 79.0885 107.725 78.6244C107.261 78.1604 106.631 77.8997 105.975 77.8997H96.6444V67.947H105.975C106.3 67.947 106.622 67.883 106.922 67.7586C107.222 67.6343 107.495 67.452 107.725 67.2222C107.955 66.9925 108.137 66.7197 108.261 66.4195C108.385 66.1193 108.449 65.7975 108.449 65.4726V62.9844C108.449 62.6595 108.385 62.3377 108.261 62.0375C108.137 61.7373 107.955 61.4646 107.725 61.2348C107.495 61.005 107.222 60.8228 106.922 60.6984C106.622 60.5741 106.3 60.5101 105.975 60.5101H96.6444V50.5573L105.989 50.5435ZM89.0969 89.0413H39.4991V39.4434H89.0969V89.0413Z" fill="url(#paint1_linear_2800_2650)"/>
</g>
<g filter="url(#filter1_d_2800_2650)">
<circle cx="64.2026" cy="64.2024" r="7.67037" fill="url(#paint2_linear_2800_2650)"/>
</g>
<defs>
<filter id="filter0_d_2800_2650" x="13.6489" y="18.9941" width="94.8836" height="94.7865" filterUnits="userSpaceOnUse" color-interpolation-filters="sRGB">
<feFlood flood-opacity="0" result="BackgroundImageFix"/>
<feColorMatrix in="SourceAlpha" type="matrix" values="0 0 0 0 0 0 0 0 0 0 0 0 0 0 0 0 0 0 127 0" result="hardAlpha"/>
<feOffset dx="-3.20718" dy="2.13812"/>
<feGaussianBlur stdDeviation="1.60359"/>
<feComposite in2="hardAlpha" operator="out"/>
<feColorMatrix type="matrix" values="0 0 0 0 0 0 0 0 0 0 0 0 0 0 0 0 0 0 0.25 0"/>
<feBlend mode="normal" in2="BackgroundImageFix" result="effect1_dropShadow_2800_2650"/>
<feBlend mode="normal" in="SourceGraphic" in2="effect1_dropShadow_2800_2650" result="shape"/>
</filter>
<filter id="filter1_d_2800_2650" x="52.4451" y="55.8509" width="19.4279" height="19.4278" filterUnits="userSpaceOnUse" color-interpolation-filters="sRGB">
<feFlood flood-opacity="0" result="BackgroundImageFix"/>
<feColorMatrix in="SourceAlpha" type="matrix" values="0 0 0 0 0 0 0 0 0 0 0 0 0 0 0 0 0 0 127 0" result="hardAlpha"/>
<feOffset dx="-2.04355" dy="1.36237"/>
<feGaussianBlur stdDeviation="1.02178"/>
<feComposite in2="hardAlpha" operator="out"/>
<feColorMatrix type="matrix" values="0 0 0 0 0 0 0 0 0 0 0 0 0 0 0 0 0 0 0.25 0"/>
<feBlend mode="normal" in2="BackgroundImageFix" result="effect1_dropShadow_2800_2650"/>
<feBlend mode="normal" in="SourceGraphic" in2="effect1_dropShadow_2800_2650" result="shape"/>
</filter>
<linearGradient id="paint0_linear_2800_2650" x1="64" y1="0" x2="64" y2="128" gradientUnits="userSpaceOnUse">
<stop stop-color="#00AF8A"/>
<stop offset="0.927083" stop-color="#06725B"/>
<stop offset="1" stop-color="#118068"/>
</linearGradient>
<linearGradient id="paint1_linear_2800_2650" x1="63.7699" y1="103.395" x2="87.8304" y2="27.4697" gradientUnits="userSpaceOnUse">
<stop stop-color="#B5B5B5"/>
<stop offset="1" stop-color="white"/>
</linearGradient>
<linearGradient id="paint2_linear_2800_2650" x1="64.111" y1="70.9978" x2="68.2915" y2="57.8204" gradientUnits="userSpaceOnUse">
<stop stop-color="#B5B5B5"/>
<stop offset="1" stop-color="white"/>
</linearGradient>
</defs>
</svg>
