<svg width="134" height="130" viewBox="0 0 134 130" fill="none" xmlns="http://www.w3.org/2000/svg">
<path d="M74.9644 87.7454C79.8107 85.8849 83.8527 82.3865 86.3891 77.8572C88.9254 73.3279 89.7961 68.0536 88.85 62.9494C87.9039 57.8452 85.2008 53.2334 81.2096 49.914C77.2184 46.5946 72.1911 44.7773 67 44.7773C61.8089 44.7773 56.7816 46.5946 52.7904 49.914C48.7993 53.2334 46.0961 57.8452 45.15 62.9494C44.2039 68.0536 45.0746 73.3279 47.611 77.8572C50.1473 82.3865 54.1893 85.8849 59.0356 87.7454L44.0667 126.75C30.1088 121.392 18.4669 111.317 11.1612 98.2731C3.8556 85.2288 1.34729 70.0385 4.07158 55.338C6.79587 40.6375 14.5808 27.3547 26.0755 17.7945C37.5702 8.23424 52.0492 3 67 3C81.9508 3 96.4298 8.23424 107.924 17.7945C119.419 27.3547 127.204 40.6375 129.928 55.338C132.653 70.0385 130.144 85.2288 122.839 98.2731C115.533 111.317 103.891 121.392 89.9333 126.75L74.9644 87.7454Z" fill="#3FA652" stroke="#21552A" stroke-width="5.33332" stroke-linejoin="round"/>
</svg>
