<svg width="128" height="128" viewBox="0 0 128 128" fill="none" xmlns="http://www.w3.org/2000/svg">
<g clip-path="url(#clip0_183_732)">
<path d="M128.16 63.8798C128.16 99.2798 99.44 128 64.08 128C28.68 128 0 99.2798 0 63.8798C0 28.4798 28.68 -0.240234 64.08 -0.240234C99.44 -0.240234 128.16 28.4798 128.16 63.8798ZM69 91.8798C63.28 90.7598 59.88 87.4398 51.2 74.5598C48.32 70.2398 48.32 70.2398 45.52 70.0398C41.4 69.7598 41.72 69.0398 41.84 78.1198C42 88.4398 41.88 88.1998 47.84 89.1998C49.4 89.4398 49.52 89.5598 49.52 90.4798C49.52 91.5198 49.52 91.5198 39.04 91.5998C29.2 91.6798 28.56 91.6398 28.36 91.0398C27.96 89.8798 28.56 89.3198 30.72 88.9198C33.16 88.4798 34.44 87.4798 34.76 85.7998C34.92 85.1598 34.96 76.5198 34.88 66.5998C34.76 45.7598 35 46.9998 31.16 46.1598C28.76 45.6398 28 45.0798 28.32 44.1198C28.56 43.4798 29.08 43.4398 40 43.2398C56.24 42.9198 59.28 43.4398 63.6 47.2798C68.12 51.3198 68.76 57.4798 65.16 62.6398C63.56 64.9598 60.36 67.4398 57.88 68.3598C56.72 68.7998 55.76 69.2798 55.76 69.4398C55.76 69.9198 59.44 75.1598 61.72 77.9598C67.8 85.3598 71.08 88.2398 74.48 89.1198C76.6 89.6798 77.2 90.2798 76.6 91.3198C75.96 92.3998 72.76 92.6398 69 91.8798ZM53.68 65.3598C61.68 62.0798 62.28 51.0798 54.68 47.8398C52.72 46.9998 52.2 46.9598 47.28 46.9598C41.96 46.9598 41.96 46.9598 41.88 56.1998C41.8 61.2798 41.84 65.6798 41.96 65.9198C42.32 66.7598 51.32 66.3198 53.68 65.3598ZM81.56 53.9598C75.36 52.7998 73.32 48.9998 73.64 39.2398C73.8 33.8398 74.24 32.3598 76.32 30.1198C80 26.1598 89.12 26.5198 92.48 30.7598C93.92 32.5598 93.8 33.1198 91.8 33.7198C90.24 34.2398 90.24 34.2398 88.8 32.7998C85.4 29.5198 79.52 30.7198 78.48 34.9598C77.96 36.8398 78 44.7998 78.52 46.5998C79.92 51.6798 88.36 51.6798 89.8 46.5998C90.68 43.3598 90.48 43.1198 86.6 42.9198C84.72 42.8398 84.72 42.8398 84.72 41.2798C84.72 39.7598 84.72 39.7598 89.2 39.6398C95 39.5198 94.92 39.4398 94.64 43.6798C94.28 48.9998 92.84 51.5598 89.36 53.0798C87.08 54.0398 83.96 54.3998 81.56 53.9598Z" fill="#04D4AC"/>
<path d="M69 91.8799C63.28 90.7599 59.88 87.4399 51.2 74.5599C48.32 70.2399 48.32 70.2399 45.52 70.0399C41.4 69.7599 41.72 69.0399 41.84 78.1199C42 88.4399 41.88 88.1999 47.84 89.1999C49.4 89.4399 49.52 89.5599 49.52 90.4799C49.52 91.5199 49.52 91.5199 39.04 91.5999C29.2 91.6799 28.56 91.6399 28.36 91.0399C27.96 89.8799 28.56 89.3199 30.72 88.9199C33.16 88.4799 34.44 87.4799 34.76 85.7999C34.92 85.1599 34.96 76.5199 34.88 66.5999C34.76 45.7599 35 46.9999 31.16 46.1599C28.76 45.6399 28 45.0799 28.32 44.1199C28.56 43.4799 29.08 43.4399 40 43.2399C56.24 42.9199 59.28 43.4399 63.6 47.2799C68.12 51.3199 68.76 57.4799 65.16 62.6399C63.56 64.9599 60.36 67.4399 57.88 68.3599C56.72 68.7999 55.76 69.2799 55.76 69.4399C55.76 69.9199 59.44 75.1599 61.72 77.9599C67.8 85.3599 71.08 88.2399 74.48 89.1199C76.6 89.6799 77.2 90.2799 76.6 91.3199C75.96 92.3999 72.76 92.6399 69 91.8799ZM53.68 65.3599C61.68 62.0799 62.28 51.0799 54.68 47.8399C52.72 46.9999 52.2 46.9599 47.28 46.9599C41.96 46.9599 41.96 46.9599 41.88 56.1999C41.8 61.2799 41.84 65.6799 41.96 65.9199C42.32 66.7599 51.32 66.3199 53.68 65.3599ZM81.56 53.9599C75.36 52.7999 73.32 48.9999 73.64 39.2399C73.8 33.8399 74.24 32.3599 76.32 30.1199C80 26.1599 89.12 26.5199 92.48 30.7599C93.92 32.5599 93.8 33.1199 91.8 33.7199C90.24 34.2399 90.24 34.2399 88.8 32.7999C85.4 29.5199 79.52 30.7199 78.48 34.9599C77.96 36.8399 78 44.7999 78.52 46.5999C79.92 51.6799 88.36 51.6799 89.8 46.5999C90.68 43.3599 90.48 43.1199 86.6 42.9199C84.72 42.8399 84.72 42.8399 84.72 41.2799C84.72 39.7599 84.72 39.7599 89.2 39.6399C95 39.5199 94.92 39.4399 94.64 43.6799C94.28 48.9999 92.84 51.5599 89.36 53.0799C87.08 54.0399 83.96 54.3999 81.56 53.9599Z" fill="white"/>
</g>
<defs>
<clipPath id="clip0_183_732">
<rect width="128" height="128" fill="white"/>
</clipPath>
</defs>
</svg>
