<svg width="128" height="128" viewBox="0 0 128 128" fill="none" xmlns="http://www.w3.org/2000/svg">
<g clip-path="url(#clip0_183_1340)">
<path fill-rule="evenodd" clip-rule="evenodd" d="M128 25.0352C128 11.7701 117.225 1.00049 103.96 1.00049H24.0395C10.7745 1.00049 0 11.7701 0 25.0352V102.149C0 115.41 10.7745 126.183 24.0396 126.183H103.96C117.226 126.183 128 115.41 128 102.149L128 25.0352Z" fill="#0C3B7C"/>
<path fill-rule="evenodd" clip-rule="evenodd" d="M0.00439453 78.7703H63.9326V126.183H0.00444138L0.00439453 78.7703Z" fill="#0C3B7C"/>
<path d="M58.1731 83.8606L47.8636 83.8503V71.5231C47.8636 68.8892 48.8853 67.5184 51.1392 67.2052H58.1731C63.1892 67.2052 66.4341 70.3679 66.4341 75.4867C66.4341 80.7441 63.2714 83.8555 58.1731 83.8606H58.1731ZM47.8636 50.6114V47.3666C47.8636 44.5274 49.065 43.1771 51.6989 43.0025H56.9768C61.5001 43.0025 64.2109 45.7082 64.2109 50.2418C64.2109 53.6919 62.3524 57.7223 57.1411 57.7223H47.8636V50.6114ZM71.3372 62.913L69.4735 61.8656L71.1011 60.4742C72.9955 58.8467 76.1685 55.186 76.1685 48.8709C76.1685 39.1981 68.6674 32.96 57.059 32.96H43.8127V32.9548H42.3032C38.8633 33.0832 36.1062 35.8814 36.0703 39.3418V94.2265H57.3208C70.2231 94.2265 78.5508 87.2029 78.5508 76.3235C78.5508 70.4654 75.8605 65.4595 71.3372 62.913Z" fill="white"/>
<path d="M84.0854 86.6448C84.0854 82.4521 87.467 79.0601 91.6333 79.0601C95.8102 79.0601 99.2075 82.4521 99.2075 86.6448C99.2075 90.8322 95.8102 94.2295 91.6333 94.2295C87.467 94.2295 84.0854 90.8322 84.0854 86.6448Z" fill="#00BAFC"/>
</g>
<defs>
<clipPath id="clip0_183_1340">
<rect width="128" height="125.184" fill="white" transform="translate(0 1)"/>
</clipPath>
</defs>
</svg>
