<svg width="128" height="128" viewBox="0 0 128 128" fill="none" xmlns="http://www.w3.org/2000/svg">
<path d="M64.2377 24.4455C31.9146 24.4455 5.61719 42.0207 5.61719 63.6213C5.61719 85.2682 31.9146 102.884 64.2377 102.884C96.5608 102.884 122.858 85.2682 122.858 63.6213C122.858 42.0207 96.5608 24.4455 64.2377 24.4455ZM64.2377 106.723C29.7951 106.723 1.77441 87.3876 1.77441 63.6213C1.77441 39.9031 29.7951 20.6046 64.2377 20.6046C98.6765 20.6046 126.697 39.9031 126.697 63.6213C126.697 87.3876 98.6765 106.723 64.2377 106.723Z" fill="white"/>
<path d="M3.71094 63.6228C3.71094 41.1393 30.818 22.5275 64.2509 22.5275C97.6838 22.5275 124.791 41.1393 124.791 63.6228C124.791 86.1063 97.6838 104.805 64.2509 104.805C30.818 104.805 3.71094 86.1063 3.71094 63.6228Z" fill="#B8B6D0"/>
<g opacity="0.5">
<path d="M63.6887 22.5334C30.5097 22.7373 3.69873 41.2722 3.69873 63.6287C3.69873 86.1141 30.8077 104.812 64.2387 104.812C97.6715 104.812 124.779 86.1141 124.779 63.6287C124.779 41.2722 97.9697 22.7373 64.7907 22.5334H63.6887Z" fill="url(#paint0_radial_183_1168)"/>
</g>
<path d="M6.00879 63.6339C6.00879 85.2961 32.0235 102.758 64.2389 102.758C96.4524 102.758 122.467 85.2961 122.467 63.6339C122.467 41.9755 96.4524 24.5157 64.2389 24.5157C32.0235 24.5157 6.00879 41.9755 6.00879 63.6339Z" fill="url(#paint1_radial_183_1168)"/>
<path d="M6.00879 63.6339C6.00879 85.2961 32.0235 102.758 64.2389 102.758C96.4524 102.758 122.469 85.2961 122.469 63.6339C122.469 41.9755 96.4524 24.5157 64.2389 24.5157C32.0235 24.5157 6.00879 41.9755 6.00879 63.6339Z" fill="url(#paint2_radial_183_1168)"/>
<g opacity="0.60001">
<path d="M6.00879 63.6339C6.00879 85.2961 32.0235 102.758 64.2389 102.758C96.4524 102.758 122.469 85.2961 122.469 63.6339C122.469 41.9755 96.4524 24.5157 64.2389 24.5157C32.0235 24.5157 6.00879 41.9755 6.00879 63.6339Z" fill="url(#paint3_radial_183_1168)"/>
</g>
<path d="M80.7783 49.2186V46.5029H47.834V49.5494L17.5649 49.2186L18.0496 49.6321V75.0775L47.3455 75.1621L110.076 75.0775V49.6321L110.442 49.2186H80.7783Z" fill="#B8B6D0"/>
<path d="M47.3513 75.1641V49.2205H17.5688L18.0535 49.6321V75.0814L47.3513 75.1641Z" fill="white"/>
<path d="M24.2908 56.392H20.8884V61.0849H20.4019V62.4023H24.6562V61.0849H24.2908V56.392Z" fill="#656894"/>
<path d="M24.5022 56.2202H21.0999V60.9977H20.6133V62.2344H24.8676V60.9977H24.5022V56.2202Z" fill="white"/>
<path d="M21.6748 56.8731H23.8616V61.1562H21.6748V56.8731Z" fill="#656894"/>
<path d="M31.3879 56.392H27.9856V61.0849H27.499V62.4023H31.7533V61.0849H31.3879V56.392Z" fill="#656894"/>
<path d="M31.5799 56.2202H28.1776V60.9977H27.6909V62.2344H31.9433V60.9977H31.5799V56.2202Z" fill="white"/>
<path d="M28.7529 56.8731H30.9398V61.1562H28.7529V56.8731Z" fill="#656894"/>
<path d="M38.7345 56.392H35.3322V61.0849H34.8418V62.4023H39.1V61.0849H38.7345V56.392Z" fill="#656894"/>
<path d="M38.9466 56.2202H35.5442V60.9977H35.0576V62.2344H39.312V60.9977H38.9466V56.2202Z" fill="white"/>
<path d="M36.1191 56.8731H38.3059V61.1562H36.1191V56.8731Z" fill="#656894"/>
<path d="M45.678 56.392H42.2756V61.0849H41.7891V62.4023H46.0415V61.0849H45.678V56.392Z" fill="#656894"/>
<path d="M45.8704 56.2202H42.4642V60.9977H41.9814V62.2344H46.2339V60.9977H45.8704V56.2202Z" fill="white"/>
<path d="M43.043 56.8731H45.2298V61.1562H43.043V56.8731Z" fill="#656894"/>
<path d="M40.062 46.7759H43.1027V49.3281H40.062V46.7759Z" fill="white"/>
<path d="M40.0615 46.7759H43.1023V49.3281H40.0615V46.7759Z" stroke="white" stroke-width="0.12" stroke-miterlimit="3.864"/>
<path d="M20.4053 49.3145H24.9039V51.457H20.4053V49.3145Z" fill="#9998BA"/>
<path d="M20.4053 49.3145H24.9039V51.457H20.4053V49.3145Z" stroke="white" stroke-width="0.12" stroke-miterlimit="3.864"/>
<path d="M27.7334 49.3145H32.2321V51.457H27.7334V49.3145Z" fill="#9998BA"/>
<path d="M27.7334 49.3145H32.2321V51.457H27.7334V49.3145Z" stroke="white" stroke-width="0.12" stroke-miterlimit="3.864"/>
<path d="M35.042 49.3145H39.5406V51.457H35.042V49.3145Z" fill="#9998BA"/>
<path d="M35.042 49.3145H39.5406V51.457H35.042V49.3145Z" stroke="white" stroke-width="0.12" stroke-miterlimit="3.864"/>
<path d="M42.3696 49.3145H46.8682V51.457H42.3696V49.3145Z" fill="#9998BA"/>
<path d="M42.3696 49.3145H46.8682V51.457H42.3696V49.3145Z" stroke="white" stroke-width="0.12" stroke-miterlimit="3.864"/>
<path d="M20.0015 65.4506H24.7405V73.6016H20.0015V65.4506Z" fill="#656894"/>
<path d="M20.0015 65.4506H24.7405V73.6016H20.0015V65.4506Z" stroke="white" stroke-width="0.12" stroke-miterlimit="3.864"/>
<path d="M20.4053 65.0268H25.1443V73.1797H20.4053V65.0268Z" fill="white"/>
<path d="M20.4053 65.0268H25.1443V73.1797H20.4053V65.0268Z" stroke="white" stroke-width="0.12" stroke-miterlimit="3.864"/>
<path d="M21.502 66.1049H24.0542V72.1211H21.502V66.1049Z" fill="#656894"/>
<path d="M19.9141 65.0371H25.6282C25.6282 65.0371 24.5339 63.3042 22.7106 63.3042C20.7642 63.3042 19.9141 65.0371 19.9141 65.0371Z" fill="url(#paint4_linear_183_1168)"/>
<path d="M34.292 65.4506H39.0349V73.6016H34.292V65.4506Z" fill="#656894"/>
<path d="M34.292 65.4506H39.0349V73.6016H34.292V65.4506Z" stroke="white" stroke-width="0.12" stroke-miterlimit="3.864"/>
<path d="M34.7148 65.0268H39.4539V73.1797H34.7148V65.0268Z" fill="white"/>
<path d="M34.7148 65.0268H39.4539V73.1797H34.7148V65.0268Z" stroke="white" stroke-width="0.12" stroke-miterlimit="3.864"/>
<path d="M35.792 66.1049H38.3442V72.1211H35.792V66.1049Z" fill="#656894"/>
<path d="M34.2236 65.0371H39.9339C39.9339 65.0371 38.8415 63.3042 37.0201 63.3042C35.0738 63.3042 34.2236 65.0371 34.2236 65.0371Z" fill="url(#paint5_linear_183_1168)"/>
<path d="M27.1177 65.4506H31.8605V73.6016H27.1177V65.4506Z" fill="#656894"/>
<path d="M27.1177 65.4506H31.8605V73.6016H27.1177V65.4506Z" stroke="white" stroke-width="0.12" stroke-miterlimit="3.864"/>
<path d="M27.541 65.0268H32.2801V73.1797H27.541V65.0268Z" fill="white"/>
<path d="M27.541 65.0268H32.2801V73.1797H27.541V65.0268Z" stroke="white" stroke-width="0.12" stroke-miterlimit="3.864"/>
<path d="M28.6182 66.1049H31.1704V72.1211H28.6182V66.1049Z" fill="#656894"/>
<path d="M27.0498 65.0371H32.762L29.8483 63.3042L27.0498 65.0371Z" fill="url(#paint6_linear_183_1168)"/>
<path d="M41.2158 65.4506H45.9587V73.6016H41.2158V65.4506Z" fill="#656894"/>
<path d="M41.2158 65.4506H45.9587V73.6016H41.2158V65.4506Z" stroke="white" stroke-width="0.12" stroke-miterlimit="3.864"/>
<path d="M41.6387 65.0268H46.3816V73.1797H41.6387V65.0268Z" fill="white"/>
<path d="M41.6387 65.0268H46.3816V73.1797H41.6387V65.0268Z" stroke="white" stroke-width="0.12" stroke-miterlimit="3.864"/>
<path d="M42.7349 66.1049H45.2871V72.1211H42.7349V66.1049Z" fill="#656894"/>
<path d="M41.1475 65.0371H46.8616L43.942 63.3042L41.1475 65.0371Z" fill="url(#paint7_linear_183_1168)"/>
<path d="M17.4521 76.8477H45.9729V75.1205H17.4521V76.8477Z" fill="url(#paint8_linear_183_1168)"/>
<path d="M45.9661 76.8555H17.4434V75.1283H45.9661V76.8555Z" stroke="white" stroke-width="0.12" stroke-miterlimit="3.864"/>
<path d="M21.6938 77.0488H23.0306V74.9101H21.6938V77.0488Z" fill="#9998BA"/>
<path d="M21.6938 74.914H23.0306V77.0547H21.6938V74.914Z" stroke="white" stroke-width="0.12" stroke-miterlimit="3.864"/>
<path d="M28.5024 77.0488H29.8411V74.9101H28.5024V77.0488Z" fill="#9998BA"/>
<path d="M28.5024 74.914H29.8392V77.0547H28.5024V74.914Z" stroke="white" stroke-width="0.12" stroke-miterlimit="3.864"/>
<path d="M35.311 77.0488H36.6477V74.9101H35.311V77.0488Z" fill="#9998BA"/>
<path d="M35.311 74.914H36.6477V77.0547H35.311V74.914Z" stroke="white" stroke-width="0.12" stroke-miterlimit="3.864"/>
<path d="M42.2349 77.0488H43.5735V74.9101H42.2349V77.0488Z" fill="#9998BA"/>
<path d="M42.2349 74.914H43.5716V77.0547H42.2349V74.914Z" stroke="white" stroke-width="0.12" stroke-miterlimit="3.864"/>
<path d="M17.2021 53.017L18.0503 53.9191V54.7441H47.3481V53.017H17.2021Z" fill="url(#paint9_linear_183_1168)"/>
<path d="M80.7202 75.1641V49.2205H110.505L110.018 49.6321V75.0814L80.7202 75.1641Z" fill="white"/>
<path d="M86.1437 56.392H82.7376V61.0849H82.251V62.4023H86.5073V61.0849H86.1437V56.392Z" fill="#656894"/>
<path d="M86.3557 56.2202H82.9495V60.9977H82.4629V62.2344H86.7192V60.9977H86.3557V56.2202Z" fill="white"/>
<path d="M83.5283 56.8731H85.7151V61.1562H83.5283V56.8731Z" fill="#656894"/>
<path d="M93.241 56.392H89.8387V61.0849H89.3521V62.4023H93.6045V61.0849H93.241V56.392Z" fill="#656894"/>
<path d="M93.4333 56.2202H90.031V60.9977H89.5405V62.2344H93.7968V60.9977H93.4333V56.2202Z" fill="white"/>
<path d="M90.606 56.8731H92.7927V61.1562H90.606V56.8731Z" fill="#656894"/>
<path d="M100.588 56.392H97.1859V61.0849H96.6992V62.4023H100.954V61.0849H100.588V56.392Z" fill="#656894"/>
<path d="M100.781 56.2202H97.3743V60.9977H96.8877V62.2344H101.144V60.9977H100.781V56.2202Z" fill="white"/>
<path d="M97.9722 56.8731H100.157V61.1562H97.9722V56.8731Z" fill="#656894"/>
<path d="M107.531 56.392H104.125V61.0849H103.638V62.4023H107.894V61.0849H107.531V56.392Z" fill="#656894"/>
<path d="M107.723 56.2202H104.321V60.9977H103.834V62.2344H108.089V60.9977H107.723V56.2202Z" fill="white"/>
<path d="M104.896 56.8731H107.087V61.1562H104.896V56.8731Z" fill="#656894"/>
<path d="M81.855 65.4506H86.5979V73.6016H81.855V65.4506Z" fill="#656894"/>
<path d="M81.855 65.4506H86.5979V73.6016H81.855V65.4506Z" stroke="white" stroke-width="0.12" stroke-miterlimit="3.864"/>
<path d="M82.2588 65.0268H87.0017V73.1797H82.2588V65.0268Z" fill="white"/>
<path d="M82.2588 65.0268H87.0017V73.1797H82.2588V65.0268Z" stroke="white" stroke-width="0.12" stroke-miterlimit="3.864"/>
<path d="M83.3555 66.1049H85.9077V72.1211H83.3555V66.1049Z" fill="#656894"/>
<path d="M81.7676 65.0371H87.4817C87.4817 65.0371 86.3893 63.3042 84.5641 63.3042C82.6177 63.3042 81.7676 65.0371 81.7676 65.0371Z" fill="url(#paint10_linear_183_1168)"/>
<path d="M96.1455 65.4506H100.885V73.6016H96.1455V65.4506Z" fill="#656894"/>
<path d="M96.1455 65.4506H100.885V73.6016H96.1455V65.4506Z" stroke="white" stroke-width="0.12" stroke-miterlimit="3.864"/>
<path d="M96.5493 65.0268H101.288V73.1797H96.5493V65.0268Z" fill="white"/>
<path d="M96.5493 65.0268H101.288V73.1797H96.5493V65.0268Z" stroke="white" stroke-width="0.12" stroke-miterlimit="3.864"/>
<path d="M97.6455 66.1049H100.198V72.1211H97.6455V66.1049Z" fill="#656894"/>
<path d="M96.0771 65.0371H101.787C101.787 65.0371 100.695 63.3042 98.8698 63.3042C96.9272 63.3042 96.0771 65.0371 96.0771 65.0371Z" fill="url(#paint11_linear_183_1168)"/>
<path d="M88.9712 65.4506H93.7141V73.6016H88.9712V65.4506Z" fill="#656894"/>
<path d="M88.9712 65.4506H93.7141V73.6016H88.9712V65.4506Z" stroke="white" stroke-width="0.12" stroke-miterlimit="3.864"/>
<path d="M89.3755 65.0268H94.1184V73.1797H89.3755V65.0268Z" fill="white"/>
<path d="M89.3755 65.0268H94.1184V73.1797H89.3755V65.0268Z" stroke="white" stroke-width="0.12" stroke-miterlimit="3.864"/>
<path d="M90.4717 66.1049H93.024V72.1211H90.4717V66.1049Z" fill="#656894"/>
<path d="M88.9033 65.0371H94.6155L91.6998 63.3042L88.9033 65.0371Z" fill="url(#paint12_linear_183_1168)"/>
<path d="M103.069 65.4506H107.808V73.6016H103.069V65.4506Z" fill="#656894"/>
<path d="M103.069 65.4506H107.808V73.6016H103.069V65.4506Z" stroke="white" stroke-width="0.12" stroke-miterlimit="3.864"/>
<path d="M103.492 65.0268H108.231V73.1797H103.492V65.0268Z" fill="white"/>
<path d="M103.492 65.0268H108.231V73.1797H103.492V65.0268Z" stroke="white" stroke-width="0.12" stroke-miterlimit="3.864"/>
<path d="M104.589 66.1049H107.141V72.1211H104.589V66.1049Z" fill="#656894"/>
<path d="M103.001 65.0371H108.711L105.795 63.3042L103.001 65.0371Z" fill="url(#paint13_linear_183_1168)"/>
<path d="M88.0095 46.7759H84.9727V49.3281H88.0095V46.7759Z" fill="white"/>
<path d="M88.0095 46.7759H84.9727V49.3281H88.0095V46.7759Z" stroke="white" stroke-width="0.12" stroke-miterlimit="3.864"/>
<path d="M107.666 49.3145H103.167V51.457H107.666V49.3145Z" fill="#9998BA"/>
<path d="M107.666 49.3145H103.167V51.457H107.666V49.3145Z" stroke="white" stroke-width="0.12" stroke-miterlimit="3.864"/>
<path d="M100.338 49.3145H95.8394V51.457H100.338V49.3145Z" fill="#9998BA"/>
<path d="M100.338 49.3145H95.8394V51.457H100.338V49.3145Z" stroke="white" stroke-width="0.12" stroke-miterlimit="3.864"/>
<path d="M93.0298 49.3145H88.5312V51.457H93.0298V49.3145Z" fill="#9998BA"/>
<path d="M93.0298 49.3145H88.5312V51.457H93.0298V49.3145Z" stroke="white" stroke-width="0.12" stroke-miterlimit="3.864"/>
<path d="M85.7018 49.3145H81.2031V51.457H85.7018V49.3145Z" fill="#9998BA"/>
<path d="M85.7018 49.3145H81.2031V51.457H85.7018V49.3145Z" stroke="white" stroke-width="0.12" stroke-miterlimit="3.864"/>
<path d="M82.0947 76.8477H110.619V75.1205H82.0947V76.8477Z" fill="url(#paint14_linear_183_1168)"/>
<path d="M82.105 76.8555H110.63V75.1283H82.105V76.8555Z" stroke="white" stroke-width="0.12" stroke-miterlimit="3.864"/>
<path d="M105.031 77.0488H106.37V74.9101H105.031V77.0488Z" fill="#9998BA"/>
<path d="M106.377 74.914H105.041V77.0547H106.377V74.914Z" stroke="white" stroke-width="0.12" stroke-miterlimit="3.864"/>
<path d="M98.2227 77.0488H99.5613V74.9101H98.2227V77.0488Z" fill="#9998BA"/>
<path d="M99.5686 74.914H98.2319V77.0547H99.5686V74.914Z" stroke="white" stroke-width="0.12" stroke-miterlimit="3.864"/>
<path d="M91.4141 77.0488H92.7508V74.9101H91.4141V77.0488Z" fill="#9998BA"/>
<path d="M92.7605 74.914H91.4238V77.0547H92.7605V74.914Z" stroke="white" stroke-width="0.12" stroke-miterlimit="3.864"/>
<path d="M84.4902 77.0488H85.8288V74.9101H84.4902V77.0488Z" fill="#9998BA"/>
<path d="M85.8172 74.914H84.4805V77.0547H85.8172V74.914Z" stroke="white" stroke-width="0.12" stroke-miterlimit="3.864"/>
<path d="M80.71 53.017V54.7441H110.01V53.9191L110.86 53.017H80.71Z" fill="url(#paint15_linear_183_1168)"/>
<path d="M49.3022 47.4017V51.3579L52.2218 55.7988H76.292L79.2078 51.3579V47.4017H49.3022Z" fill="url(#paint16_linear_183_1168)"/>
<path d="M53.9097 56.4683H57.3158V62.4824H53.9097V56.4683Z" fill="#B8B6D0"/>
<path d="M53.9097 56.4683H57.3158V62.4824H53.9097V56.4683Z" stroke="white" stroke-width="0.12" stroke-miterlimit="3.864"/>
<path d="M54.4863 57.1231H56.6731V61.4062H54.4863V57.1231Z" fill="#656894"/>
<path d="M54.4863 57.1231H56.6731V61.4062H54.4863V57.1231Z" stroke="white" stroke-width="0.12" stroke-miterlimit="3.864"/>
<path d="M71.6616 56.4683H75.064V62.4824H71.6616V56.4683Z" fill="#B8B6D0"/>
<path d="M71.6616 56.4683H75.064V62.4824H71.6616V56.4683Z" stroke="white" stroke-width="0.12" stroke-miterlimit="3.864"/>
<path d="M72.2388 57.1231H74.4256V61.4062H72.2388V57.1231Z" fill="#656894"/>
<path d="M72.2388 57.1231H74.4256V61.4062H72.2388V57.1231Z" stroke="white" stroke-width="0.12" stroke-miterlimit="3.864"/>
<path d="M62.7949 56.4683H66.1973V62.4824H62.7949V56.4683Z" fill="#B8B6D0"/>
<path d="M62.7949 56.4683H66.1973V62.4824H62.7949V56.4683Z" stroke="white" stroke-width="0.12" stroke-miterlimit="3.864"/>
<path d="M63.3721 57.1231H65.5589V61.4062H63.3721V57.1231Z" fill="#656894"/>
<path d="M63.3721 57.1231H65.5589V61.4062H63.3721V57.1231Z" stroke="white" stroke-width="0.12" stroke-miterlimit="3.864"/>
<path d="M81.2679 48.5547H46.8638V44.3541H81.2679V48.5547Z" fill="url(#paint17_linear_183_1168)"/>
<path d="M46.8599 45.1699H47.3445V44.6833H46.8599V45.1699Z" fill="url(#paint18_linear_183_1168)"/>
<path d="M48.4751 45.1699H48.9597V44.6833H48.4751V45.1699Z" fill="url(#paint19_linear_183_1168)"/>
<path d="M50.0908 45.1895H50.5755V44.699H50.0908V45.1895Z" fill="url(#paint20_linear_183_1168)"/>
<path d="M51.7065 45.1699H52.1912V44.6833H51.7065V45.1699Z" fill="url(#paint21_linear_183_1168)"/>
<path d="M53.3027 45.1699H53.7874V44.6833H53.3027V45.1699Z" fill="url(#paint22_linear_183_1168)"/>
<path d="M54.9185 45.1699H55.4012V44.6833H54.9185V45.1699Z" fill="url(#paint23_linear_183_1168)"/>
<path d="M56.5342 45.1895H57.0208V44.699H56.5342V45.1895Z" fill="url(#paint24_linear_183_1168)"/>
<path d="M58.1494 45.1699H58.6379V44.6853H58.1494V45.1699Z" fill="url(#paint25_linear_183_1168)"/>
<path d="M59.7651 45.1699H60.2498V44.6833H59.7651V45.1699Z" fill="url(#paint26_linear_183_1168)"/>
<path d="M61.3809 45.1699H61.8656V44.6833H61.3809V45.1699Z" fill="url(#paint27_linear_183_1168)"/>
<path d="M62.9771 45.1895H63.4618V44.699H62.9771V45.1895Z" fill="url(#paint28_linear_183_1168)"/>
<path d="M64.5928 45.1895H65.0755V44.699H64.5928V45.1895Z" fill="url(#paint29_linear_183_1168)"/>
<path d="M66.208 45.1699H66.6926V44.6833H66.208V45.1699Z" fill="url(#paint30_linear_183_1168)"/>
<path d="M67.8237 45.1699H68.3065V44.6833H67.8237V45.1699Z" fill="url(#paint31_linear_183_1168)"/>
<path d="M69.4395 45.1699H69.9241V44.6853H69.4395V45.1699Z" fill="url(#paint32_linear_183_1168)"/>
<path d="M71.0547 45.1895H71.5394V44.699H71.0547V45.1895Z" fill="url(#paint33_linear_183_1168)"/>
<path d="M72.6514 45.1699H73.1341V44.6833H72.6514V45.1699Z" fill="url(#paint34_linear_183_1168)"/>
<path d="M74.2671 45.1699H74.7517V44.6833H74.2671V45.1699Z" fill="url(#paint35_linear_183_1168)"/>
<path d="M75.8823 45.1699H76.3651V44.6833H75.8823V45.1699Z" fill="url(#paint36_linear_183_1168)"/>
<path d="M77.498 45.1895H77.9846V44.699H77.498V45.1895Z" fill="url(#paint37_linear_183_1168)"/>
<path d="M79.1138 45.1699H79.6003V44.6833H79.1138V45.1699Z" fill="url(#paint38_linear_183_1168)"/>
<path d="M80.71 45.1699H81.1985V44.6833H80.71V45.1699Z" fill="url(#paint39_linear_183_1168)"/>
<path d="M64.0066 36.3707L46.1968 43.6216V44.1582H81.6318V43.3985L64.0066 36.3707Z" fill="#CDCBDE"/>
<path d="M64.0068 29.9469C64.0068 29.9469 64.2492 30.772 65.707 30.772C67.2861 30.772 66.5591 30.6066 67.8958 31.0201L68.1381 33.3242C68.1381 33.3242 67.0437 32.7472 66.1936 32.7472C65.3435 32.7472 65.0993 33.3242 64.0068 32.9126V29.9469V29.9469Z" fill="white"/>
<path d="M47.3511 43.6201L64.0088 37.0308L80.7839 43.6201H47.3511ZM80.2954 42.3776V40.6582H76.093L64.0088 35.7115L51.9939 40.6582H47.8377V42.368L44.7988 43.6201H44.8469L45.8316 44.6895H82.1937L83.2996 43.6201H83.3362L80.2954 42.3776Z" fill="white"/>
<path d="M67.1612 69.0667H61.8105V74.502H67.1612V69.0667ZM66.9727 74.3154H61.9933V69.2514H66.9727V74.3154Z" fill="white"/>
<path d="M62.9683 69.7193H66.009V74.416H62.9683V69.7193Z" fill="#656894"/>
<path d="M62.9683 69.7193H66.009V74.416H62.9683V69.7193Z" stroke="white" stroke-width="0.12" stroke-miterlimit="3.864"/>
<path d="M61.8145 68.2383C61.8145 68.2383 61.9356 65.688 64.4879 65.688C67.042 65.688 67.1651 68.2383 67.1651 68.2383H61.8145Z" fill="white"/>
<path d="M61.8145 68.2394H67.1651V69.0645H61.8145V68.2394Z" fill="white"/>
<path d="M64.4875 63.5465L63.395 64.7812H65.5818L64.4875 63.5465Z" fill="white"/>
<path d="M64.4875 63.5465L63.395 64.7812H65.5818L64.4875 63.5465V63.5465Z" stroke="white" stroke-width="0.12" stroke-miterlimit="3.864"/>
<path d="M63.3916 67.6621L63.4858 64.7868L64.484 64.881L64.3956 67.6621H63.3916V67.6621Z" fill="#B8B6D0"/>
<path d="M64.4874 64.7764H63.395V67.7441H64.4874V64.7764ZM64.3028 67.5614H63.5758V64.9611H64.3028V67.5614Z" fill="white"/>
<path d="M64.4878 67.6621L64.582 64.7868L65.5822 64.881L65.4937 67.6621H64.4878V67.6621Z" fill="#656894"/>
<path d="M65.5841 64.7784H64.4897V67.7461H65.5841V64.7784ZM65.3995 67.5634H64.6705V64.963H65.3995V67.5634Z" fill="white"/>
<path d="M77.5659 72.6831H79.5104V74.4141H77.5659V72.6831Z" fill="white"/>
<path d="M76.1045 73.1825H77.5624V74.5H76.1045V73.1825Z" fill="white"/>
<path d="M51.2359 72.7787H49.2915V74.5098H51.2359V72.7787Z" fill="white"/>
<path d="M52.6976 73.1825H51.2397V74.5H52.6976V73.1825Z" fill="white"/>
<path d="M59.7561 49.3912C60.3639 49.6394 60.8486 49.3912 60.8486 48.9777C60.8486 48.5681 60.3639 48.5681 60.3639 48.5681H57.2039C57.2039 48.5681 56.7192 48.5681 56.7192 48.9777C56.7192 49.3912 57.2039 49.6394 57.8117 49.3912H59.7561Z" fill="white"/>
<path d="M59.7561 49.3912C60.3639 49.6394 60.8486 49.3912 60.8486 48.9777C60.8486 48.5681 60.3639 48.5681 60.3639 48.5681H57.2039C57.2039 48.5681 56.7192 48.5681 56.7192 48.9777C56.7192 49.3912 57.2039 49.6394 57.8117 49.3912H59.7561V49.3912Z" stroke="white" stroke-width="0.12" stroke-miterlimit="3.864"/>
<path d="M59.7562 49.3915H57.8117L57.4482 72.125H59.9985L59.7562 49.3915Z" fill="white"/>
<path d="M57.1982 72.1249H60.239V74.5137H57.1982V72.1249Z" fill="white"/>
<path d="M57.1982 72.1054H60.239V74.4941H57.1982V72.1054Z" stroke="white" stroke-width="0.12" stroke-miterlimit="3.864"/>
<path d="M68.7384 49.3912C68.1307 49.6394 67.646 49.3912 67.646 48.9777C67.646 48.5681 68.1307 48.5681 68.1307 48.5681H71.2907C71.2907 48.5681 71.7753 48.5681 71.7753 48.9777C71.7753 49.3912 71.2907 49.6394 70.6867 49.3912H68.7384Z" fill="white"/>
<path d="M68.7384 49.3912C68.1307 49.6394 67.646 49.3912 67.646 48.9777C67.646 48.5681 68.1307 48.5681 68.1307 48.5681H71.2907C71.2907 48.5681 71.7753 48.5681 71.7753 48.9777C71.7753 49.3912 71.2907 49.6394 70.6867 49.3912H68.7384Z" stroke="white" stroke-width="0.12" stroke-miterlimit="3.864"/>
<path d="M68.7379 49.3915H70.6863L71.0459 72.125H68.4956L68.7379 49.3915Z" fill="white"/>
<path d="M68.2573 72.1249H71.2981V74.5137H68.2573V72.1249Z" fill="white"/>
<path d="M68.2573 72.1054H71.2981V74.4941H68.2573V72.1054Z" stroke="white" stroke-width="0.12" stroke-miterlimit="3.864"/>
<path d="M79.2008 49.3912C78.593 49.6394 78.1064 49.3912 78.1064 48.9777C78.1064 48.5681 78.593 48.5681 78.593 48.5681H81.753C81.753 48.5681 82.2377 48.5681 82.2377 48.9777C82.2377 49.3912 81.753 49.6394 81.1453 49.3912H79.2008Z" fill="white"/>
<path d="M79.2008 49.3912C78.593 49.6394 78.1064 49.3912 78.1064 48.9777C78.1064 48.5681 78.593 48.5681 78.593 48.5681H81.753C81.753 48.5681 82.2377 48.5681 82.2377 48.9777C82.2377 49.3912 81.753 49.6394 81.1453 49.3912H79.2008V49.3912Z" stroke="white" stroke-width="0.12" stroke-miterlimit="3.864"/>
<path d="M79.2012 49.3915H81.313L82.2381 72.125H79.4647L79.2012 49.3915V49.3915Z" fill="white"/>
<path d="M79.2012 72.1249H82.2381V74.5137H79.2012V72.1249Z" fill="white"/>
<path d="M79.2012 72.1054H82.2381V74.4941H79.2012V72.1054Z" stroke="white" stroke-width="0.12" stroke-miterlimit="3.864"/>
<path d="M49.2937 49.3912C49.9014 49.6394 50.388 49.3912 50.388 48.9777C50.388 48.5681 49.9014 48.5681 49.9014 48.5681H46.7414C46.7414 48.5681 46.2529 48.5681 46.2529 48.9777C46.2529 49.3912 46.7414 49.6394 47.3454 49.3912H49.2937Z" fill="white"/>
<path d="M49.2936 49.3915H47.3453L46.499 72.125H49.0513L49.2936 49.3915Z" fill="white"/>
<path d="M46.2549 72.1249H49.2956V74.5137H46.2549V72.1249Z" fill="white"/>
<path d="M46.2549 72.1054H49.2956V74.4941H46.2549V72.1054Z" stroke="white" stroke-width="0.12" stroke-miterlimit="3.864"/>
<path d="M82.6139 77.3086H45.1709V74.4256H82.6139V77.3086Z" fill="url(#paint40_linear_183_1168)"/>
<path d="M82.605 77.2988H45.1621V74.4158H82.605V77.2988Z" stroke="white" stroke-width="0.12" stroke-miterlimit="3.864"/>
<path d="M53.1787 65.4506H57.9177V73.6016H53.1787V65.4506Z" stroke="white" stroke-width="0.12" stroke-miterlimit="3.864"/>
<path d="M54.2749 66.5073H56.8271V72.5215H54.2749V66.5073Z" fill="#656894"/>
<path d="M58.4099 65.4512H52.6958C52.6958 65.4512 53.5459 63.7202 55.4904 63.7202C57.3175 63.7202 58.4099 65.4512 58.4099 65.4512Z" stroke="white" stroke-width="0.12" stroke-miterlimit="3.864" stroke-linecap="round" stroke-linejoin="round"/>
<path d="M71.0464 65.4506H75.7893V73.6016H71.0464V65.4506Z" stroke="white" stroke-width="0.12" stroke-miterlimit="3.864"/>
<path d="M72.1426 66.5073H74.6949V72.5215H72.1426V66.5073Z" fill="#656894"/>
<path d="M74.7004 67.99H72.1481M74.7004 69.4729H72.1481M74.7004 70.9558H72.1481M73.8489 66.5085V72.5227M72.9988 66.5085V72.5227M56.8342 67.99H54.2819M56.8342 69.4729H54.2819M56.8342 70.9558H54.2819M55.9825 66.5085V72.5227M55.1305 66.5085V72.5227M78.1037 72.9989L78.3421 52.658H79.4077M77.3353 73.3009L77.2526 54.3198H78.2893M76.2807 55.7986L76.4019 73.3007M50.5911 72.7662L50.1238 52.6561H49.0813M51.5931 73.1778L51.2373 54.3178H50.2642M52.2096 55.7978L52.4538 73.2999M52.0859 50.528C52.0859 50.528 54.8843 59.5868 64.4874 63.6199M76.4023 50.528C76.4023 50.528 74.0904 59.5868 64.4874 63.6199M64.4866 63.6205V50.5285M64.4866 69.7174V74.4141M62.9676 72.0653H66.0064M64.002 35.7023V29.5266M64.5178 57.1164V61.3996M63.4234 58.1858H65.491M63.4234 59.2571H65.491M63.4234 60.3265H65.491M73.3898 57.1164V61.3996M72.2955 58.1858H74.363M72.2955 59.2571H74.363M72.2955 60.3265H74.363M55.6496 57.1164V61.3996M54.5514 58.1858H56.6209M54.5514 59.2571H56.6209M54.5514 60.3265H56.6209M81.872 51.4548V49.3122M82.4798 51.4548V49.3122M83.0856 51.4548V49.3122M83.8145 51.4548V49.3122M84.4223 51.4548V49.3122M85.032 51.4548V49.3122M89.1912 51.4548V49.3122M89.7989 51.4548V49.3122M90.4047 51.4548V49.3122M91.1356 51.4548V49.3122M91.7434 51.4548V49.3122M92.3492 51.4548V49.3122M96.5091 51.4548V49.3122M97.1207 51.4548V49.3122M97.7285 51.4548V49.3122M98.4575 51.4548V49.3122M99.0614 51.4548V49.3122M99.673 51.4548V49.3122M103.831 51.4548V49.3122M104.439 51.4548V49.3122M105.047 51.4548V49.3122M105.775 51.4548V49.3122M106.383 51.4548V49.3122M106.991 51.4548V49.3122M107.13 67.5765H104.578M107.13 69.0594H104.578M107.13 70.5385H104.578M106.281 66.0922V72.1082M105.429 66.0922V72.1082M93.0301 67.5765H90.4779M93.0301 69.0594H90.4779M93.0301 70.5385H90.4779M92.1784 66.0922V72.1082M91.3264 66.0922V72.1082M100.202 67.5765H97.6493M100.202 69.0594H97.6493M100.202 70.5385H97.6493M99.3514 66.0922V72.1082M98.4994 66.0922V72.1082M85.9015 67.5765H83.3493M85.9015 69.0594H83.3493M85.9015 70.5385H83.3493M85.0526 66.0922V72.1082M84.2005 66.0922V72.1082M106.046 56.8695V61.1527M107.017 57.9388H104.952M107.017 59.012H104.952M107.017 60.0795H104.952M99.115 56.8695V61.1527M100.088 57.9388H98.0207M100.088 59.012H98.0207M100.088 60.0795H98.0207M91.7582 56.8695V61.1527M92.7294 57.9388H90.6638M92.7294 59.012H90.6638M92.7294 60.0795H90.6638M84.6725 56.8695V61.1527M85.6438 57.9388H83.5782M85.6438 59.012H83.5782M85.6438 60.0795H83.5782M45.2793 67.5765H42.7271M45.2793 69.0594H42.7271M45.2793 70.5385H42.7271M44.429 66.0922V72.1082M43.577 66.0922V72.1082M31.178 67.5765H28.6258M31.178 69.0594H28.6258M31.178 70.5385H28.6258M30.3263 66.0922V72.1082M29.4743 66.0922V72.1082M38.3508 67.5765H35.7986M38.3508 69.0594H35.7986M38.3508 70.5385H35.7986M37.498 66.0922V72.1082M36.6479 66.0922V72.1082M24.0495 67.5765H21.4973M24.0495 69.0594H21.4973M24.0495 70.5385H21.4973M23.2005 66.0922V72.1082M22.3485 66.0922V72.1082M46.1923 49.3111V51.4536M45.5846 49.3111V51.4536M44.9768 49.3111V51.4536M44.244 49.3111V51.4536M43.6401 49.3111V51.4536M43.0323 49.3111V51.4536M38.8718 49.3111V51.4536M38.264 49.3111V51.4536M37.6582 49.3111V51.4536M36.9273 49.3111V51.4536M36.3196 49.3111V51.4536M35.7118 49.3111V51.4536M31.5511 49.3111V51.4536M30.9433 49.3111V51.4536M30.3356 49.3111V51.4536M29.6067 49.3111V51.4536M28.9989 49.3111V51.4536M28.3911 49.3111V51.4536M24.2318 49.3111V51.4536M23.624 49.3111V51.4536M23.0163 49.3111V51.4536M22.2873 49.3111V51.4536M21.6796 49.3111V51.4536M21.0718 49.3111V51.4536M44.1938 56.8695V61.1527M45.167 57.9388H43.0994M45.167 59.012H43.0994M45.167 60.0795H43.0994M37.2639 56.8695V61.1527M38.2371 57.9388H36.1715M38.2371 59.012H36.1715M38.2371 60.0795H36.1715M29.9044 56.8695V61.1527M30.8776 57.9388H28.8158M30.8776 59.012H28.8158M30.8776 60.0795H28.8158M22.8203 56.8695V61.1527M23.7935 57.9388H21.7278M23.7935 59.012H21.7278M23.7935 60.0795H21.7278M72.1462 66.5093H74.6984V72.5234H72.1462V66.5093ZM54.2815 66.5093H56.8338V72.5234H54.2815V66.5093ZM64.002 29.9372C64.002 29.9372 64.2443 30.7623 65.7022 30.7623C67.2812 30.7623 66.5542 30.5969 67.8909 31.0104L68.1333 33.3145C68.1333 33.3145 67.0389 32.7375 66.1888 32.7375C65.3387 32.7375 65.0944 33.3145 64.002 32.9029V29.9372V29.9372ZM104.578 66.0912H107.13V72.1072H104.578V66.0912ZM90.4769 66.0912H93.0291V72.1072H90.4769V66.0912ZM97.6485 66.0912H100.201V72.1072H97.6485V66.0912ZM83.3493 66.0912H85.9015V72.1072H83.3493V66.0912ZM104.92 56.87H107.11V61.1533H104.92V56.87ZM97.9899 56.87H100.177V61.1533H97.9899V56.87ZM90.6338 56.87H92.8206V61.1533H90.6338V56.87ZM83.5474 56.87H85.7342V61.1533H83.5474V56.87ZM42.726 66.0912H45.2782V72.1072H42.726V66.0912ZM28.6246 66.0912H31.1768V72.1072H28.6246V66.0912ZM35.7963 66.0912H38.3485V72.1072H35.7963V66.0912ZM21.497 66.0912H24.0492V72.1072H21.497V66.0912ZM43.0683 56.87H45.2551V61.1533H43.0683V56.87ZM36.1413 56.87H38.3281V61.1533H36.1413V56.87ZM28.7826 56.87H30.9732V61.1533H28.7826V56.87ZM21.6961 56.87H23.8868V61.1533H21.6961V56.87Z" stroke="white" stroke-width="0.13" stroke-miterlimit="3.864"/>
<path d="M76.2776 65.4512H70.5635C70.5635 65.4512 71.4136 63.7202 73.358 63.7202C75.1833 63.7202 76.2776 65.4512 76.2776 65.4512" stroke="white" stroke-width="0.12" stroke-miterlimit="3.864" stroke-linecap="round" stroke-linejoin="round"/>
<path d="M51.5246 91.9545H50.6572L51.1092 90.7409L51.5246 91.9545ZM53.1363 93.4566C52.7324 93.4104 52.5901 93.222 52.492 92.9527L51.39 89.9004C51.3784 89.8619 51.3323 89.8273 51.2803 89.8273C51.2284 89.8273 51.1861 89.8523 51.1687 89.8966L49.9282 92.9469C49.7974 93.2451 49.7013 93.4297 49.3378 93.4585C49.3012 93.4681 49.2493 93.5066 49.2493 93.5605C49.2474 93.5989 49.2551 93.6355 49.2743 93.6547C49.2878 93.6739 49.3051 93.6797 49.3263 93.6797H50.5995C50.6437 93.6797 50.6764 93.6277 50.6764 93.57C50.6764 93.4681 50.6283 93.4566 50.611 93.4566C50.2648 93.4393 50.2148 93.3354 50.2148 93.2412C50.2148 93.1681 50.2475 93.0739 50.2725 92.997L50.5668 92.1968H51.6073L51.9073 93.0585C51.9323 93.1373 51.9535 93.2142 51.9535 93.2719C51.9535 93.3546 51.9227 93.4393 51.5438 93.4566C51.5265 93.4566 51.4784 93.4681 51.4784 93.57C51.4784 93.6277 51.5111 93.6797 51.5554 93.6797H53.1402C53.1863 93.6797 53.2229 93.6277 53.2229 93.57C53.2229 93.5123 53.1825 93.4681 53.1363 93.4566Z" fill="white"/>
<path d="M54.9481 91.473C54.5519 91.2442 54.1769 91.0211 54.1769 90.6864C54.1769 90.3114 54.4154 90.0787 54.7885 90.0787C55.1905 90.0787 55.4021 90.2844 55.5155 90.796C55.5194 90.8287 55.5444 90.8653 55.6309 90.8653C55.6694 90.8653 55.704 90.8537 55.7233 90.8287C55.7348 90.8153 55.7367 90.7961 55.7348 90.7826C55.6944 90.4826 55.6713 90.2575 55.6502 89.9594V89.9305H55.6175C55.454 89.9305 55.3463 89.9055 55.2347 89.8825C55.1097 89.8575 54.9866 89.8305 54.7943 89.8305C54.0384 89.8305 53.6269 90.3844 53.6269 90.8999C53.6269 91.4615 54.1115 91.7404 54.5789 92.0116C54.9847 92.2462 55.3694 92.4693 55.3694 92.854C55.3694 93.2867 55.1444 93.5252 54.7308 93.5252C54.2116 93.5252 53.9634 93.2944 53.7769 92.6501C53.7519 92.5809 53.6903 92.5809 53.6692 92.5809C53.6038 92.5809 53.5557 92.6174 53.5557 92.6674C53.5845 92.9367 53.6076 93.3002 53.6172 93.5637L53.623 93.6002H53.6557C53.8422 93.6002 53.9846 93.6387 54.1365 93.6771C54.2981 93.7214 54.4731 93.7676 54.7116 93.7676C55.4405 93.7676 55.9117 93.3021 55.9117 92.579C55.9117 92.0404 55.402 91.7404 54.9481 91.473Z" fill="white"/>
<path d="M60.5643 90.1468C60.6104 90.1468 60.6432 90.0968 60.6432 90.0333C60.6432 89.9795 60.6104 89.9237 60.5643 89.9237H58.966C58.9218 89.9237 58.8891 89.9699 58.8891 90.0333C58.8891 90.1007 58.9198 90.1468 58.9641 90.1468C59.4334 90.2045 59.4333 90.2891 59.4333 90.5449V91.6701H57.4773V90.5449C57.4773 90.2891 57.4774 90.2045 57.9486 90.1468C57.9948 90.1468 58.0274 90.1007 58.0274 90.0333C58.0274 89.9699 57.9928 89.9237 57.9486 89.9237H56.3503C56.3022 89.9237 56.2676 89.9795 56.2676 90.0333C56.2676 90.0968 56.3061 90.1468 56.3445 90.1468C56.8388 90.2045 56.8638 90.2988 56.8638 90.5604V93.0626C56.8638 93.3126 56.8446 93.4145 56.3388 93.4722C56.3003 93.4818 56.2676 93.528 56.2676 93.5819C56.2676 93.6434 56.306 93.6953 56.3503 93.6953H57.9486C57.9871 93.6953 58.0274 93.6607 58.0274 93.5819C58.0274 93.5203 58.0005 93.4819 57.9505 93.4703C57.4773 93.4146 57.4773 93.3319 57.4773 93.0799V91.9124H59.4333V93.0799C59.4333 93.3319 59.4334 93.4146 58.9603 93.4703C58.916 93.4819 58.8891 93.5203 58.8891 93.5819C58.8891 93.6607 58.9275 93.6953 58.966 93.6953H60.5643C60.6104 93.6953 60.6432 93.6434 60.6432 93.5819C60.6432 93.528 60.6162 93.4819 60.57 93.4703C60.07 93.4146 60.0507 93.3126 60.0507 93.0626V90.5604C60.0507 90.2988 60.0738 90.2045 60.5643 90.1468Z" fill="white"/>
<path d="M62.8723 90.1468C62.9185 90.1468 62.9492 90.1007 62.9492 90.0333C62.9492 89.9699 62.9165 89.9237 62.8723 89.9237H61.2298C61.1836 89.9237 61.1528 89.9795 61.1528 90.0333C61.1528 90.0968 61.1855 90.1468 61.224 90.1468C61.7221 90.2045 61.7471 90.2988 61.7471 90.5604V93.0626C61.7471 93.3126 61.726 93.4145 61.2182 93.4722C61.1778 93.4818 61.1528 93.528 61.1528 93.5819C61.1528 93.6434 61.1855 93.6953 61.2298 93.6953H62.8723C62.9108 93.6953 62.9492 93.6607 62.9492 93.5819C62.9492 93.5203 62.9242 93.4819 62.8723 93.4703C62.3607 93.4146 62.3607 93.2934 62.3607 93.0626V90.5604C62.3607 90.3238 62.3607 90.2103 62.8723 90.1468Z" fill="white"/>
<path d="M67.9302 90.0305C67.9302 89.9478 67.8917 89.9171 67.8494 89.9171H66.43C66.3839 89.9171 66.3512 89.9671 66.3512 90.0305C66.3512 90.0882 66.3762 90.1306 66.4262 90.144C66.9397 90.2017 66.9974 90.3133 66.9974 90.5479V92.7155L64.5029 89.9228L64.4913 89.9132H63.5393C63.4931 89.9132 63.4605 89.9594 63.4605 90.0248C63.4605 90.0882 63.4931 90.1344 63.5316 90.1344C64.0432 90.2017 64.0932 90.3056 64.0894 90.5479L63.9932 93.0482C63.9874 93.2848 63.9625 93.404 63.4432 93.4617C63.397 93.4694 63.3662 93.5156 63.3662 93.5713C63.3662 93.6444 63.4047 93.6829 63.447 93.6829H64.8664C64.9125 93.6829 64.9491 93.631 64.9491 93.5713C64.9491 93.5079 64.9241 93.4694 64.8703 93.4617C64.3625 93.404 64.3106 93.2848 64.3202 93.0501L64.3567 90.6844L67.034 93.7117L67.0474 93.7214C67.0686 93.7425 67.0993 93.7656 67.1436 93.7656C67.207 93.7656 67.2455 93.731 67.2455 93.6752L67.3032 90.5479C67.309 90.3133 67.334 90.2017 67.861 90.1382C67.8918 90.1305 67.9302 90.0902 67.9302 90.0305Z" fill="white"/>
<path d="M71.9309 91.9156H70.0249C69.9807 91.9156 69.9442 91.9675 69.9442 92.0291C69.9442 92.0829 69.9749 92.1464 70.0211 92.1464C70.5808 92.1964 70.8058 92.2292 70.8058 92.433V93.1311C70.8058 93.4004 70.5192 93.5389 69.9499 93.5389C69.1748 93.5389 68.544 92.7734 68.544 91.831C68.544 90.854 69.1749 90.0923 69.9769 90.0923C70.6346 90.0923 71.0308 90.3731 71.1885 90.952C71.1943 90.9886 71.2155 91.0271 71.2866 91.0271C71.3578 91.0271 71.4116 90.9905 71.4078 90.9424C71.3539 90.5905 71.3097 90.2866 71.2866 90.0404L71.2847 90.0096H71.252C71.0674 90.0096 70.8962 89.9712 70.7116 89.9327C70.5115 89.8904 70.3057 89.8442 70.0634 89.8442C68.6325 89.8442 67.8862 90.8482 67.8862 91.831C67.8862 92.8023 68.5248 93.7812 69.9499 93.7812C70.4308 93.7812 71.0501 93.6178 71.4501 93.4581L71.4828 93.4447L71.4712 93.4101C71.4309 93.2985 71.4174 93.1677 71.4174 92.8639V92.5484C71.4174 92.2984 71.4328 92.1964 71.9386 92.1387C71.9771 92.131 72.0079 92.0829 72.0079 92.0291C72.0079 91.9675 71.9771 91.9156 71.9309 91.9156Z" fill="white"/>
<path d="M75.8161 90.7619C75.7507 90.4311 75.7084 90.233 75.6738 89.9099L75.67 89.8791H72.2676L72.2619 89.9003C72.1772 90.2253 72.1042 90.4754 71.9811 90.8062C71.9734 90.8254 71.9753 90.8504 71.9888 90.8696C72.0118 90.8965 72.0522 90.91 72.1041 90.91C72.1522 90.91 72.183 90.8908 72.1984 90.8504C72.3311 90.4215 72.8254 90.1907 73.2408 90.1907H73.4466C73.6062 90.1907 73.6409 90.2253 73.6409 90.358V93.0391C73.6409 93.2891 73.6217 93.3949 73.1177 93.4488C73.0735 93.4584 73.0465 93.5046 73.0465 93.5604C73.0465 93.6257 73.0812 93.6719 73.1235 93.6719H74.766C74.8141 93.6719 74.8448 93.6257 74.8448 93.5604C74.8448 93.4988 74.8198 93.4584 74.7698 93.4488C74.2698 93.3949 74.2506 93.2891 74.2506 93.0391V90.358C74.2506 90.2253 74.2871 90.1907 74.4429 90.1907H74.691C75.2218 90.1907 75.4642 90.3657 75.6103 90.8446C75.6238 90.8888 75.6565 90.91 75.6969 90.91C75.7565 90.91 75.7969 90.9004 75.8161 90.8716C75.8296 90.8523 75.8334 90.8254 75.8238 90.8139L75.8161 90.7619Z" fill="white"/>
<path d="M78.1048 93.5311C77.3066 93.5311 76.7681 92.8425 76.7681 91.8232C76.7681 90.9558 77.1797 90.0845 78.1048 90.0845C78.903 90.0845 79.4415 90.7827 79.4415 91.8232C79.4415 92.8425 78.903 93.5311 78.1048 93.5311ZM78.1048 89.8364C76.9527 89.8364 76.1104 90.6731 76.1104 91.8232C76.1104 92.9733 76.9335 93.7734 78.1048 93.7734C79.2761 93.7734 80.0993 92.9733 80.0993 91.8232C80.0993 90.6557 79.2761 89.8364 78.1048 89.8364Z" fill="white"/>
<path d="M84.5673 89.9151H83.1421C83.1017 89.9151 83.0671 89.9652 83.0671 90.0286C83.0671 90.0863 83.0902 90.1248 83.1402 90.1402C83.6575 90.1959 83.7114 90.3113 83.7114 90.546V92.7097L81.2188 89.9171L81.2092 89.9094H80.2571C80.2091 89.9094 80.1763 89.9555 80.1763 90.019C80.1763 90.0863 80.2071 90.1325 80.2456 90.1325C80.7591 90.1959 80.8072 90.2998 80.8033 90.546L80.711 93.0463C80.7053 93.279 80.6783 93.4002 80.1571 93.4559C80.111 93.4675 80.084 93.5098 80.084 93.5675C80.084 93.6406 80.1225 93.679 80.1609 93.679H81.5861C81.6284 93.679 81.663 93.6271 81.663 93.5675C81.663 93.506 81.6342 93.4675 81.588 93.4559C81.0784 93.4002 81.0264 93.279 81.0379 93.0463L81.0745 90.6826L83.7498 93.7079L83.7633 93.7194C83.7864 93.7386 83.8172 93.7637 83.8633 93.7637C83.923 93.7637 83.9595 93.7271 83.9595 93.6733L84.0191 90.546C84.0249 90.3113 84.0499 90.1959 84.575 90.1325C84.6192 90.1248 84.6461 90.0767 84.6461 90.0286C84.6461 89.9459 84.6038 89.9151 84.5673 89.9151Z" fill="white"/>
<path d="M50.0628 89.9152H49.0281C48.9762 89.9152 48.9435 89.973 48.9435 90.0287C48.9435 90.1307 48.9954 90.1383 49.0088 90.1383C49.1569 90.146 49.2242 90.1884 49.2242 90.3749C49.2242 90.4461 49.205 90.5211 49.1723 90.6L48.1876 92.9021L47.5375 91.5847L48.0376 90.6557C48.228 90.3172 48.2915 90.1729 48.6223 90.1383C48.68 90.1383 48.7145 90.0749 48.7145 90.0172C48.7145 89.9422 48.6819 89.9152 48.6453 89.9152H47.5894C47.5433 89.9152 47.5048 89.9749 47.5048 90.0287C47.5048 90.1307 47.5587 90.1383 47.574 90.1383C47.8587 90.1383 47.8337 90.298 47.8145 90.3614C47.8048 90.3903 47.7741 90.5019 47.7241 90.598L47.376 91.25L47.0201 90.5365C46.974 90.4345 46.9451 90.3326 46.9432 90.2999C46.9413 90.2422 46.922 90.1383 47.1971 90.1383C47.2605 90.1383 47.2606 90.0557 47.2606 90.0287C47.2606 89.973 47.2298 89.9152 47.1817 89.9152H45.945C45.895 89.9152 45.87 89.973 45.87 90.0287C45.87 90.0884 45.9181 90.1383 45.9565 90.1383C46.2585 90.1691 46.2854 90.2903 46.4393 90.6057L47.0375 91.8578L46.4527 92.9521L45.3834 90.5403C45.3584 90.4769 45.3469 90.4288 45.3469 90.3903C45.3469 90.1884 45.468 90.146 45.57 90.1383C45.6334 90.1383 45.6334 90.0557 45.6334 90.0287C45.6334 89.973 45.6008 89.9152 45.5546 89.9152H44.1756C44.1294 89.9152 44.0967 89.9614 44.0967 90.0287C44.0967 90.0826 44.1371 90.1383 44.1833 90.1383C44.5025 90.1729 44.641 90.2864 44.8025 90.6518L46.1373 93.7061C46.1508 93.7445 46.1931 93.7695 46.245 93.7695C46.3046 93.7695 46.3316 93.7426 46.3508 93.7061L47.1932 92.1847L47.9222 93.708C47.9472 93.7523 47.9799 93.7695 48.0279 93.7695C48.0683 93.7695 48.1145 93.7619 48.1337 93.7061L49.4897 90.6518C49.6205 90.3614 49.7243 90.1691 50.0359 90.1383C50.0955 90.1383 50.134 90.0749 50.134 90.0172C50.134 89.9518 50.0955 89.9152 50.0628 89.9152Z" fill="white"/>
<path d="M27.214 82.2606L27.1967 82.1856C27.0928 81.6721 27.0293 81.3547 26.9755 80.8585L26.9697 80.8027H21.6633L21.6537 80.8489C21.5229 81.3451 21.4075 81.7375 21.2133 82.2529C21.2056 82.2856 21.2113 82.3241 21.2306 82.351C21.2613 82.3933 21.3306 82.4202 21.4114 82.4202C21.4844 82.4202 21.5286 82.3895 21.5556 82.3241C21.7691 81.6163 22.5519 81.297 23.1846 81.297H23.5058C23.7501 81.297 23.802 81.3451 23.802 81.5567V85.7437C23.802 86.1303 23.7751 86.2899 22.9885 86.3784C22.9327 86.3957 22.8788 86.4534 22.8788 86.5496C22.8788 86.6477 22.9307 86.7227 23 86.7227H25.558C25.6176 86.7227 25.6849 86.6707 25.6849 86.5496C25.6849 86.4553 25.6407 86.3957 25.5657 86.3784C24.7868 86.2899 24.7541 86.1303 24.7541 85.7437V81.5567C24.7541 81.3451 24.8098 81.297 25.0541 81.297H25.4445C26.2696 81.297 26.6466 81.5682 26.8793 82.3183C26.8928 82.3779 26.9505 82.4202 27.0159 82.4202C27.1043 82.4202 27.164 82.3991 27.1967 82.3548C27.2197 82.3241 27.2255 82.2876 27.214 82.2606Z" fill="white"/>
<path d="M34.1573 86.3765C33.3783 86.2861 33.3476 86.1265 33.3476 85.7418V81.8375C33.3476 81.4278 33.388 81.2874 34.1554 81.1913C34.2208 81.1913 34.2746 81.1104 34.2746 81.0181C34.2746 80.9316 34.2227 80.845 34.1554 80.845H31.6589C31.5878 80.845 31.5358 80.9162 31.5358 81.0181C31.5358 81.1201 31.5858 81.1913 31.6512 81.1913C32.3879 81.2797 32.3878 81.4163 32.3878 81.8106V83.5685H29.3413V81.8106C29.3413 81.4163 29.3413 81.2797 30.0702 81.1913C30.1433 81.1913 30.1934 81.1201 30.1934 81.0181C30.1934 80.9162 30.1414 80.845 30.0702 80.845H27.5738C27.5027 80.845 27.4507 80.9316 27.4507 81.0181C27.4507 81.1104 27.5084 81.1913 27.568 81.1913C28.3393 81.2874 28.3796 81.4278 28.3796 81.8375V85.7418C28.3796 86.1265 28.3508 86.2861 27.5642 86.3765C27.4969 86.3938 27.4507 86.4611 27.4507 86.5476C27.4507 86.6457 27.5084 86.7227 27.5738 86.7227H30.0702C30.1299 86.7227 30.1934 86.6688 30.1934 86.5476C30.1934 86.4534 30.151 86.3938 30.0779 86.3765C29.3413 86.2938 29.3413 86.1611 29.3413 85.761V83.9473H32.3878V85.761C32.3878 86.1611 32.3878 86.2938 31.6454 86.3765C31.5762 86.3938 31.5358 86.4534 31.5358 86.5476C31.5358 86.6688 31.5993 86.7227 31.6589 86.7227H34.1554C34.2208 86.7227 34.2746 86.6457 34.2746 86.5476C34.2746 86.4611 34.2284 86.3938 34.1573 86.3765Z" fill="white"/>
<path d="M39.9078 85.2224C39.8713 85.1666 39.7943 85.132 39.7212 85.132C39.6982 85.132 39.6347 85.132 39.5943 85.1974C39.3001 85.8225 38.5961 86.2899 37.9537 86.2899H37.0517C36.7747 86.2899 36.6286 86.1475 36.6286 85.8571V83.8799H37.6172C37.9922 83.8799 38.2307 83.9376 38.3288 84.7319C38.3288 84.805 38.4057 84.8589 38.5019 84.8589C38.5865 84.8589 38.675 84.805 38.675 84.7319V82.6855C38.675 82.6182 38.6038 82.5625 38.5019 82.5625C38.3999 82.5625 38.3288 82.6125 38.3288 82.6779C38.2326 83.4587 38.0076 83.4972 37.6172 83.4972H36.6286V81.7124C36.6286 81.347 36.8594 81.2719 37.0517 81.2719H37.8922C38.5288 81.2719 38.95 81.5835 39.1423 82.2105C39.1597 82.2548 39.2173 82.3028 39.2885 82.3028C39.3693 82.3028 39.4328 82.2816 39.4674 82.2374C39.4866 82.2066 39.4943 82.172 39.4866 82.1336C39.3539 81.7008 39.2808 81.3489 39.2116 80.8892L39.2058 80.8431H34.8745C34.8053 80.8431 34.7495 80.9123 34.7495 81.0142C34.7495 81.1161 34.8015 81.1892 34.8688 81.1892C35.6708 81.2854 35.6708 81.4585 35.6708 81.8355V85.7359C35.6708 86.0994 35.6708 86.2821 34.8649 86.3744C34.7937 86.3879 34.7495 86.4514 34.7495 86.5437C34.7495 86.6649 34.813 86.7188 34.8745 86.7188H39.3654L39.377 86.6802C39.5289 86.2129 39.6828 85.8167 39.9213 85.3186C39.9347 85.2878 39.929 85.2532 39.9078 85.2224Z" fill="white"/>
<path d="M52.7361 80.8373H51.1244C51.0417 80.8373 50.9917 80.9258 50.9917 81.0104C50.9917 81.17 51.0743 81.1836 51.0974 81.1836C51.3244 81.1951 51.4263 81.2701 51.4263 81.5586C51.4263 81.6624 51.4013 81.7817 51.3494 81.9048L49.8088 85.4917L48.7991 83.4377L49.5799 81.9894C49.878 81.4682 49.9762 81.2355 50.4858 81.1836C50.5762 81.1836 50.6339 81.0816 50.6339 80.9912C50.6339 80.8874 50.582 80.8373 50.5262 80.8373H48.8818C48.8087 80.8373 48.7491 80.9316 48.7491 81.0104C48.7491 81.17 48.8317 81.1836 48.8548 81.1836C49.303 81.1836 49.2645 81.4374 49.2318 81.5297C49.2145 81.5778 49.1684 81.7528 49.0914 81.9029L48.5471 82.9222L47.9913 81.8028C47.9201 81.6509 47.8778 81.4836 47.872 81.4394C47.8643 81.347 47.8374 81.1836 48.2663 81.1836C48.3644 81.1836 48.3644 81.0546 48.3644 81.0104C48.3644 80.9258 48.3182 80.8373 48.2432 80.8373H46.3122C46.2353 80.8373 46.1968 80.9258 46.1968 81.0104C46.1968 81.1047 46.2718 81.1836 46.3295 81.1836C46.8046 81.2336 46.8469 81.4182 47.0835 81.9163L48.0163 83.8666L47.1085 85.5745L45.441 81.8048C45.3986 81.7144 45.3794 81.6432 45.3794 81.5797C45.3794 81.2605 45.5717 81.1951 45.7314 81.1836C45.8275 81.1836 45.8276 81.0546 45.8276 81.0104C45.8276 80.9258 45.7794 80.8373 45.7044 80.8373H43.5503C43.4792 80.8373 43.4292 80.9066 43.4292 81.0104C43.4292 81.1008 43.4965 81.1836 43.5677 81.1836H43.5696C44.0658 81.2355 44.2832 81.4182 44.5332 81.9817L46.6123 86.7438C46.6373 86.8092 46.7008 86.8477 46.7796 86.8477C46.8758 86.8477 46.9142 86.7977 46.9488 86.7515L48.2567 84.3724L49.3972 86.7515C49.4357 86.815 49.4895 86.8477 49.5646 86.8477C49.628 86.8477 49.7011 86.8342 49.7319 86.7438L51.8417 81.9875C52.0456 81.5298 52.213 81.2316 52.6919 81.1836C52.788 81.1836 52.8515 81.0816 52.8515 80.9912C52.8515 80.8951 52.7918 80.8373 52.7361 80.8373Z" fill="white"/>
<path d="M59.8716 86.3765C59.0908 86.2861 59.0599 86.1265 59.0599 85.7418V81.8375C59.0599 81.4278 59.0984 81.2874 59.8639 81.1913C59.9312 81.1913 59.987 81.1104 59.987 81.0181C59.987 80.9316 59.937 80.845 59.8639 80.845H57.3675C57.3001 80.845 57.2463 80.9162 57.2463 81.0181C57.2463 81.1201 57.2963 81.1913 57.3636 81.1913H57.3655C58.1002 81.2797 58.1002 81.4163 58.1002 81.8106V83.5685H55.0518V81.8106C55.0518 81.4163 55.0518 81.2797 55.7807 81.1913C55.8557 81.1913 55.9038 81.1201 55.9038 81.0181C55.9038 80.9162 55.8519 80.845 55.7807 80.845H53.2881C53.215 80.845 53.165 80.9316 53.165 81.0181C53.165 81.1104 53.2208 81.1913 53.2804 81.1913C54.0536 81.2874 54.0921 81.4278 54.0921 81.8375V85.7418C54.0921 86.1265 54.0613 86.2861 53.2746 86.3765C53.2092 86.3938 53.165 86.4611 53.165 86.5476C53.165 86.6457 53.2208 86.7227 53.2881 86.7227H55.7807C55.8423 86.7227 55.9038 86.6688 55.9038 86.5476C55.9038 86.4534 55.8615 86.3938 55.7865 86.3765C55.0518 86.2938 55.0518 86.1611 55.0518 85.761V83.9473H58.1002V85.761C58.1002 86.1611 58.1002 86.2938 57.3598 86.3765C57.2886 86.3938 57.2463 86.4534 57.2463 86.5476C57.2463 86.6688 57.3078 86.7227 57.3675 86.7227H59.8639C59.9312 86.7227 59.987 86.6457 59.987 86.5476C59.987 86.4611 59.9428 86.3938 59.8716 86.3765Z" fill="white"/>
<path d="M63.1414 86.3765C62.3374 86.2822 62.3374 86.1034 62.3374 85.7418V81.8375C62.3374 81.4625 62.3374 81.2874 63.1356 81.1913C63.2106 81.1913 63.2568 81.1201 63.2568 81.0181C63.2568 80.9162 63.2068 80.845 63.1356 80.845H60.5776C60.5026 80.845 60.4507 80.9316 60.4507 81.0181C60.4507 81.1104 60.5065 81.1913 60.5661 81.1913C61.3431 81.2874 61.3815 81.4278 61.3815 81.8375V85.7418C61.3815 86.1265 61.347 86.2861 60.5603 86.3765C60.4969 86.3938 60.4507 86.4611 60.4507 86.5476C60.4507 86.6457 60.5064 86.7227 60.5776 86.7227H63.1356C63.1972 86.7227 63.2568 86.6688 63.2568 86.5476C63.2568 86.4534 63.2164 86.3938 63.1414 86.3765Z" fill="white"/>
<path d="M69.2575 82.2411L69.2441 82.17C69.1364 81.6526 69.0729 81.341 69.019 80.839L69.0133 80.7909H63.7088L63.6953 80.8294C63.5626 81.3333 63.453 81.718 63.2607 82.2411C63.2472 82.268 63.253 82.3046 63.2741 82.3354C63.3049 82.3796 63.3742 82.4065 63.453 82.4065C63.528 82.4065 63.5742 82.37 63.5992 82.3046C63.8088 81.6333 64.5723 81.2871 65.2282 81.2871H65.5494C65.7917 81.2871 65.8456 81.3333 65.8456 81.5391V85.7242C65.8456 86.1147 65.8167 86.2743 65.0301 86.3666C64.9666 86.3781 64.9224 86.4493 64.9224 86.5359C64.9224 86.632 64.9743 86.7051 65.0436 86.7051H67.6016C67.6612 86.7051 67.7246 86.657 67.7246 86.5359C67.7246 86.4416 67.6804 86.3762 67.6073 86.3589C66.8284 86.2743 66.7976 86.1147 66.7976 85.7242V81.5391C66.7976 81.3333 66.8534 81.2871 67.0977 81.2871H67.4862C68.3132 81.2871 68.6901 81.5506 68.919 82.3046C68.9382 82.3623 68.994 82.4065 69.0594 82.4065C69.1479 82.4065 69.2075 82.3815 69.2441 82.3354C69.2594 82.3065 69.2652 82.2738 69.2575 82.2411Z" fill="white"/>
<path d="M74.6622 85.2224C74.5987 85.1281 74.4179 85.0839 74.3487 85.1974C74.0544 85.8225 73.3505 86.2899 72.7081 86.2899H71.8061C71.5291 86.2899 71.3849 86.1475 71.3849 85.8571V83.8799H72.3716C72.7466 83.8799 72.9851 83.9376 73.0832 84.7319C73.0832 84.805 73.1601 84.8589 73.2563 84.8589C73.3409 84.8589 73.4293 84.805 73.4293 84.7319V82.6855C73.4293 82.6182 73.3563 82.5625 73.2563 82.5625C73.1543 82.5625 73.0832 82.6125 73.0832 82.6779C72.987 83.4587 72.762 83.4972 72.3716 83.4972H71.3849V81.7124C71.3849 81.347 71.6138 81.2719 71.8061 81.2719H72.6427C73.2813 81.2719 73.7044 81.5835 73.8967 82.2105C73.914 82.2548 73.9659 82.3028 74.0409 82.3028C74.1198 82.3028 74.1872 82.2816 74.2198 82.2374C74.241 82.2066 74.2487 82.172 74.2391 82.1336C74.1083 81.7008 74.0313 81.3489 73.9659 80.8892L73.9602 80.8431H69.6289C69.5558 80.8431 69.5039 80.9123 69.5039 81.0142C69.5039 81.1161 69.5539 81.1892 69.6193 81.1892H69.6231C70.4232 81.2854 70.4232 81.4585 70.4232 81.8355V85.7359C70.4232 86.0994 70.4232 86.2821 69.6193 86.3744C69.5481 86.3879 69.5039 86.4514 69.5039 86.5437C69.5039 86.6649 69.5674 86.7188 69.6289 86.7188H74.1179L74.1314 86.6802C74.2833 86.2129 74.4372 85.8167 74.6757 85.3186C74.6891 85.2878 74.6814 85.2532 74.6622 85.2224Z" fill="white"/>
<path d="M84.8747 81.1835C84.9439 81.1835 84.9977 81.1045 84.9977 81.0103C84.9977 80.9257 84.9458 80.8372 84.8747 80.8372H82.3801C82.3108 80.8372 82.2589 80.9064 82.2589 81.0103C82.2589 81.1122 82.3051 81.1835 82.3743 81.1835C83.111 81.2719 83.1109 81.4085 83.1109 81.8027V83.5568H80.0606V81.8027C80.0606 81.4085 80.0606 81.2719 80.7915 81.1835C80.853 81.1835 80.9165 81.1276 80.9165 81.0103C80.9165 80.9064 80.8645 80.8372 80.7915 80.8372H78.2969C78.2258 80.8372 78.1758 80.9257 78.1758 81.0103C78.1758 81.1045 78.2277 81.1835 78.2892 81.1835H78.2912C79.0643 81.2796 79.1028 81.42 79.1028 81.8297V85.7301C79.1028 86.1186 79.0701 86.2783 78.2835 86.3687C78.22 86.386 78.1758 86.4533 78.1758 86.5398C78.1758 86.6379 78.2277 86.7148 78.2969 86.7148H80.7915C80.853 86.7148 80.9165 86.661 80.9165 86.5398C80.9165 86.4456 80.8722 86.386 80.7972 86.3687C80.0606 86.284 80.0606 86.1552 80.0606 85.7532V83.9395H83.1109V85.7532C83.1109 86.1552 83.111 86.284 82.3705 86.3687C82.2994 86.386 82.2589 86.4456 82.2589 86.5398C82.2589 86.661 82.3185 86.7148 82.3801 86.7148H84.8747C84.9439 86.7148 84.9977 86.6379 84.9977 86.5398C84.9977 86.4533 84.9516 86.386 84.8765 86.3687C84.1015 86.2783 84.0707 86.1186 84.0707 85.7301V81.8297C84.0707 81.42 84.1092 81.2796 84.8747 81.1835Z" fill="white"/>
<path d="M88.2019 86.4727C86.9575 86.4727 86.1248 85.3994 86.1248 83.8127C86.1248 82.4587 86.7691 81.0951 88.2019 81.0951C89.4501 81.0951 90.2926 82.1875 90.2926 83.8127C90.2926 85.3994 89.4501 86.4727 88.2019 86.4727ZM88.2019 80.7123C86.4036 80.7123 85.0996 82.0182 85.0996 83.8127C85.0996 85.6033 86.3748 86.8496 88.2019 86.8496C90.0368 86.8496 91.3158 85.6033 91.3158 83.8127C91.3158 81.9913 90.0368 80.7123 88.2019 80.7123Z" fill="white"/>
<path d="M97.5685 80.8373H95.5414C95.4645 80.8373 95.4145 80.9258 95.4145 81.0104C95.4145 81.1047 95.4721 81.1836 95.5298 81.1836H95.5337C96.33 81.2797 96.3607 81.4394 96.3607 81.8298V84.3474C96.3607 85.6783 95.828 86.3611 94.7798 86.3611C93.9951 86.3611 93.1969 86.1361 93.1969 84.4474V81.8298C93.1969 81.4201 93.2334 81.2797 94.0008 81.1836C94.0701 81.1836 94.122 81.1047 94.122 81.0104C94.122 80.9258 94.072 80.8373 94.0008 80.8373H91.439C91.3698 80.8373 91.3159 80.9066 91.3159 81.0104C91.3159 81.1297 91.3793 81.1836 91.4332 81.1836C92.2371 81.2797 92.2371 81.4567 92.2371 81.8298V84.5589C92.2371 85.9956 93.1373 86.8477 94.6451 86.8477C95.9626 86.8477 96.7512 85.9399 96.7512 84.4301V81.8298C96.7512 81.4394 96.78 81.2797 97.5685 81.1836C97.6378 81.1836 97.6955 81.1047 97.6955 81.0104C97.6955 80.9258 97.6436 80.8373 97.5685 80.8373Z" fill="white"/>
<path d="M100.184 83.2801C99.5687 82.9223 98.984 82.5781 98.984 82.053C98.984 81.4645 99.3532 81.1009 99.9398 81.1009C100.563 81.1009 100.888 81.426 101.067 82.2203C101.075 82.2703 101.113 82.3338 101.25 82.3338C101.307 82.3338 101.367 82.3068 101.392 82.2703C101.411 82.2511 101.417 82.2203 101.411 82.2011C101.342 81.728 101.315 81.3741 101.282 80.9221L101.277 80.8701H101.221C100.973 80.8701 100.805 80.8317 100.626 80.799C100.44 80.7567 100.244 80.7182 99.9475 80.7182C98.7647 80.7182 98.1262 81.5779 98.1262 82.3799C98.1262 83.2589 98.8801 83.6955 99.609 84.1167C100.244 84.4821 100.842 84.8283 100.842 85.4342C100.842 86.1054 100.49 86.4785 99.8494 86.4785C99.0378 86.4785 98.6435 86.1188 98.3512 85.1149C98.3224 85.011 98.2223 85.011 98.1896 85.011C98.0858 85.011 98.0089 85.0591 98.0108 85.1418C98.055 85.5573 98.0935 86.1246 98.1108 86.5459L98.1127 86.6036H98.1685C98.4628 86.6036 98.682 86.6574 98.9185 86.7209C99.1743 86.7882 99.4417 86.8555 99.8148 86.8555C100.951 86.8555 101.686 86.1266 101.686 85.0014C101.686 84.1571 100.888 83.6897 100.184 83.2801Z" fill="white"/>
<path d="M107.262 85.2224C107.223 85.1666 107.148 85.132 107.071 85.132C107.052 85.132 106.987 85.132 106.946 85.1974C106.654 85.8225 105.95 86.2899 105.308 86.2899H104.404C104.123 86.2899 103.983 86.1475 103.983 85.8571V83.8799H104.971C105.346 83.8799 105.581 83.9376 105.683 84.7319C105.683 84.805 105.76 84.8589 105.854 84.8589C105.939 84.8589 106.029 84.805 106.029 84.7319V82.6855C106.029 82.6182 105.952 82.5625 105.854 82.5625C105.735 82.5625 105.683 82.6278 105.683 82.6779C105.587 83.4587 105.358 83.4972 104.971 83.4972H103.983V81.7124C103.983 81.347 104.211 81.2719 104.404 81.2719H105.242C105.881 81.2719 106.302 81.5835 106.496 82.2105C106.514 82.2548 106.566 82.3028 106.643 82.3028C106.719 82.3028 106.787 82.2816 106.819 82.2374C106.841 82.2066 106.848 82.172 106.839 82.1336C106.706 81.7008 106.631 81.3489 106.566 80.8892L106.558 80.8431H102.229C102.155 80.8431 102.104 80.9123 102.104 81.0142C102.104 81.1161 102.154 81.1892 102.219 81.1892C103.023 81.2854 103.023 81.4585 103.023 81.8355V85.7359C103.023 86.0994 103.023 86.2821 102.217 86.3744C102.146 86.3879 102.104 86.4514 102.104 86.5437C102.104 86.6649 102.165 86.7188 102.229 86.7188H106.714L106.731 86.6802C106.879 86.2129 107.037 85.8167 107.273 85.3186C107.287 85.2878 107.281 85.2532 107.262 85.2224Z" fill="white"/>
<defs>
<radialGradient id="paint0_radial_183_1168" cx="0" cy="0" r="1" gradientUnits="userSpaceOnUse" gradientTransform="translate(64.2464 22.5526) scale(124.101 87.7548)">
<stop stop-color="white"/>
<stop offset="1" stop-color="white"/>
</radialGradient>
<radialGradient id="paint1_radial_183_1168" cx="0" cy="0" r="1" gradientUnits="userSpaceOnUse" gradientTransform="translate(65.3044 57.864) scale(67.1446 43.5418)">
<stop stop-color="#245093"/>
<stop offset="1" stop-color="#11234A"/>
</radialGradient>
<radialGradient id="paint2_radial_183_1168" cx="0" cy="0" r="1" gradientUnits="userSpaceOnUse" gradientTransform="translate(65.0928 39.958) scale(67.1446 41.1953)">
<stop stop-color="#245093"/>
<stop offset="1" stop-color="#11234A"/>
</radialGradient>
<radialGradient id="paint3_radial_183_1168" cx="0" cy="0" r="1" gradientUnits="userSpaceOnUse" gradientTransform="translate(65.3044 57.864) scale(106.342 71.699)">
<stop stop-color="#245093"/>
<stop offset="0.63136" stop-color="#245093"/>
<stop offset="1" stop-color="#11234A"/>
</radialGradient>
<linearGradient id="paint4_linear_183_1168" x1="21.2988" y1="66.4027" x2="24.2094" y2="63.4921" gradientUnits="userSpaceOnUse">
<stop stop-color="#656894"/>
<stop offset="1" stop-color="white"/>
</linearGradient>
<linearGradient id="paint5_linear_183_1168" x1="35.5892" y1="66.4027" x2="38.5003" y2="63.4915" gradientUnits="userSpaceOnUse">
<stop stop-color="#656894"/>
<stop offset="1" stop-color="white"/>
</linearGradient>
<linearGradient id="paint6_linear_183_1168" x1="28.4731" y1="66.4604" x2="31.3301" y2="63.6033" gradientUnits="userSpaceOnUse">
<stop stop-color="#656894"/>
<stop offset="1" stop-color="white"/>
</linearGradient>
<linearGradient id="paint7_linear_183_1168" x1="42.5707" y1="66.4604" x2="45.4278" y2="63.6033" gradientUnits="userSpaceOnUse">
<stop stop-color="#656894"/>
<stop offset="1" stop-color="white"/>
</linearGradient>
<linearGradient id="paint8_linear_183_1168" x1="31.7039" y1="75.1167" x2="31.7039" y2="76.8454" gradientUnits="userSpaceOnUse">
<stop stop-color="#9998BA"/>
<stop offset="1" stop-color="white"/>
</linearGradient>
<linearGradient id="paint9_linear_183_1168" x1="32.2809" y1="52.9978" x2="32.2809" y2="54.7252" gradientUnits="userSpaceOnUse">
<stop stop-color="#656894"/>
<stop offset="1" stop-color="white"/>
</linearGradient>
<linearGradient id="paint10_linear_183_1168" x1="83.1524" y1="66.4027" x2="86.0648" y2="63.4902" gradientUnits="userSpaceOnUse">
<stop stop-color="#656894"/>
<stop offset="1" stop-color="white"/>
</linearGradient>
<linearGradient id="paint11_linear_183_1168" x1="97.4427" y1="66.4027" x2="100.354" y2="63.4914" gradientUnits="userSpaceOnUse">
<stop stop-color="#656894"/>
<stop offset="1" stop-color="white"/>
</linearGradient>
<linearGradient id="paint12_linear_183_1168" x1="90.3266" y1="66.4604" x2="93.1836" y2="63.6033" gradientUnits="userSpaceOnUse">
<stop stop-color="#656894"/>
<stop offset="1" stop-color="white"/>
</linearGradient>
<linearGradient id="paint13_linear_183_1168" x1="104.424" y1="66.4604" x2="107.281" y2="63.6033" gradientUnits="userSpaceOnUse">
<stop stop-color="#656894"/>
<stop offset="1" stop-color="white"/>
</linearGradient>
<linearGradient id="paint14_linear_183_1168" x1="96.3657" y1="75.1167" x2="96.3657" y2="76.8454" gradientUnits="userSpaceOnUse">
<stop stop-color="#9998BA"/>
<stop offset="1" stop-color="white"/>
</linearGradient>
<linearGradient id="paint15_linear_183_1168" x1="95.7887" y1="53.017" x2="95.7887" y2="54.7444" gradientUnits="userSpaceOnUse">
<stop stop-color="#656894"/>
<stop offset="1" stop-color="white"/>
</linearGradient>
<linearGradient id="paint16_linear_183_1168" x1="64.2464" y1="55.8065" x2="64.2464" y2="47.4059" gradientUnits="userSpaceOnUse">
<stop stop-color="#656894"/>
<stop offset="1" stop-color="white"/>
</linearGradient>
<linearGradient id="paint17_linear_183_1168" x1="64.0735" y1="44.3618" x2="64.0735" y2="48.5622" gradientUnits="userSpaceOnUse">
<stop stop-color="#B8B6CF"/>
<stop offset="1" stop-color="white"/>
</linearGradient>
<linearGradient id="paint18_linear_183_1168" x1="47.1099" y1="44.6891" x2="47.1099" y2="45.1767" gradientUnits="userSpaceOnUse">
<stop stop-color="#B8B6CF"/>
<stop offset="1" stop-color="white"/>
</linearGradient>
<linearGradient id="paint19_linear_183_1168" x1="48.7251" y1="44.6891" x2="48.7251" y2="45.1767" gradientUnits="userSpaceOnUse">
<stop stop-color="#B8B6CF"/>
<stop offset="1" stop-color="white"/>
</linearGradient>
<linearGradient id="paint20_linear_183_1168" x1="50.3216" y1="44.6894" x2="50.3216" y2="45.1783" gradientUnits="userSpaceOnUse">
<stop stop-color="#B8B6CF"/>
<stop offset="1" stop-color="white"/>
</linearGradient>
<linearGradient id="paint21_linear_183_1168" x1="51.9374" y1="44.6891" x2="51.9374" y2="45.1767" gradientUnits="userSpaceOnUse">
<stop stop-color="#B8B6CF"/>
<stop offset="1" stop-color="white"/>
</linearGradient>
<linearGradient id="paint22_linear_183_1168" x1="53.5528" y1="44.6891" x2="53.5528" y2="45.1767" gradientUnits="userSpaceOnUse">
<stop stop-color="#B8B6CF"/>
<stop offset="1" stop-color="white"/>
</linearGradient>
<linearGradient id="paint23_linear_183_1168" x1="55.1685" y1="44.6891" x2="55.1685" y2="45.1767" gradientUnits="userSpaceOnUse">
<stop stop-color="#B8B6CF"/>
<stop offset="1" stop-color="white"/>
</linearGradient>
<linearGradient id="paint24_linear_183_1168" x1="56.7842" y1="44.6894" x2="56.7842" y2="45.1783" gradientUnits="userSpaceOnUse">
<stop stop-color="#B8B6CF"/>
<stop offset="1" stop-color="white"/>
</linearGradient>
<linearGradient id="paint25_linear_183_1168" x1="58.3994" y1="44.6891" x2="58.3994" y2="45.1753" gradientUnits="userSpaceOnUse">
<stop stop-color="#B8B6CF"/>
<stop offset="1" stop-color="white"/>
</linearGradient>
<linearGradient id="paint26_linear_183_1168" x1="59.9959" y1="44.6891" x2="59.9959" y2="45.1767" gradientUnits="userSpaceOnUse">
<stop stop-color="#B8B6CF"/>
<stop offset="1" stop-color="white"/>
</linearGradient>
<linearGradient id="paint27_linear_183_1168" x1="61.6117" y1="44.6891" x2="61.6117" y2="45.1767" gradientUnits="userSpaceOnUse">
<stop stop-color="#B8B6CF"/>
<stop offset="1" stop-color="white"/>
</linearGradient>
<linearGradient id="paint28_linear_183_1168" x1="63.2271" y1="44.6894" x2="63.2271" y2="45.1783" gradientUnits="userSpaceOnUse">
<stop stop-color="#B8B6CF"/>
<stop offset="1" stop-color="white"/>
</linearGradient>
<linearGradient id="paint29_linear_183_1168" x1="64.8428" y1="44.6894" x2="64.8428" y2="45.1783" gradientUnits="userSpaceOnUse">
<stop stop-color="#B8B6CF"/>
<stop offset="1" stop-color="white"/>
</linearGradient>
<linearGradient id="paint30_linear_183_1168" x1="66.458" y1="44.6891" x2="66.458" y2="45.1767" gradientUnits="userSpaceOnUse">
<stop stop-color="#B8B6CF"/>
<stop offset="1" stop-color="white"/>
</linearGradient>
<linearGradient id="paint31_linear_183_1168" x1="68.0738" y1="44.6891" x2="68.0738" y2="45.1767" gradientUnits="userSpaceOnUse">
<stop stop-color="#B8B6CF"/>
<stop offset="1" stop-color="white"/>
</linearGradient>
<linearGradient id="paint32_linear_183_1168" x1="69.6702" y1="44.6891" x2="69.6702" y2="45.1753" gradientUnits="userSpaceOnUse">
<stop stop-color="#B8B6CF"/>
<stop offset="1" stop-color="white"/>
</linearGradient>
<linearGradient id="paint33_linear_183_1168" x1="71.2855" y1="44.6894" x2="71.2855" y2="45.1783" gradientUnits="userSpaceOnUse">
<stop stop-color="#B8B6CF"/>
<stop offset="1" stop-color="white"/>
</linearGradient>
<linearGradient id="paint34_linear_183_1168" x1="72.9014" y1="44.6891" x2="72.9014" y2="45.1767" gradientUnits="userSpaceOnUse">
<stop stop-color="#B8B6CF"/>
<stop offset="1" stop-color="white"/>
</linearGradient>
<linearGradient id="paint35_linear_183_1168" x1="74.5171" y1="44.6891" x2="74.5171" y2="45.1767" gradientUnits="userSpaceOnUse">
<stop stop-color="#B8B6CF"/>
<stop offset="1" stop-color="white"/>
</linearGradient>
<linearGradient id="paint36_linear_183_1168" x1="76.1324" y1="44.6891" x2="76.1324" y2="45.1767" gradientUnits="userSpaceOnUse">
<stop stop-color="#B8B6CF"/>
<stop offset="1" stop-color="white"/>
</linearGradient>
<linearGradient id="paint37_linear_183_1168" x1="77.7288" y1="44.6894" x2="77.7288" y2="45.1783" gradientUnits="userSpaceOnUse">
<stop stop-color="#B8B6CF"/>
<stop offset="1" stop-color="white"/>
</linearGradient>
<linearGradient id="paint38_linear_183_1168" x1="79.3446" y1="44.6891" x2="79.3446" y2="45.1767" gradientUnits="userSpaceOnUse">
<stop stop-color="#B8B6CF"/>
<stop offset="1" stop-color="white"/>
</linearGradient>
<linearGradient id="paint39_linear_183_1168" x1="80.96" y1="44.6891" x2="80.96" y2="45.1767" gradientUnits="userSpaceOnUse">
<stop stop-color="#B8B6CF"/>
<stop offset="1" stop-color="white"/>
</linearGradient>
<linearGradient id="paint40_linear_183_1168" x1="63.8809" y1="74.4236" x2="63.8809" y2="77.3063" gradientUnits="userSpaceOnUse">
<stop stop-color="#9998BA"/>
<stop offset="1" stop-color="white"/>
</linearGradient>
</defs>
</svg>
