<svg width="128" height="128" viewBox="0 0 128 128" fill="none" xmlns="http://www.w3.org/2000/svg">
<path d="M0 24C0 10.7452 10.7452 0 24 0H104C117.255 0 128 10.7452 128 24V104C128 117.255 117.255 128 104 128H24C10.7452 128 0 117.255 0 104V24Z" fill="url(#paint0_linear_264_1930)"/>
<path d="M16.7038 61.3968C20.6225 61.312 21.7806 60.7074 21.7806 59.202V32.7324H21.113C17.6821 32.7324 15.0984 36.1754 11.7135 42.3734L11 42.2873L11.2676 32H39.7784L40 42.2873L39.2879 42.3734C35.9029 36.1754 33.3179 32.7324 29.8883 32.7324H29.2654V59.202C29.2654 60.7074 30.3775 61.3119 34.3435 61.3968V62H16.7038V61.3968Z" fill="white"/>
<path d="M40 61.3968C43.4596 61.2688 44.2707 60.7518 44.2707 59.202V34.798C44.2707 33.2482 43.4596 32.6881 40 32.5588V32H55.4192V32.5588C52.7293 32.6881 51.4478 33.162 51.4478 34.798V45.9888H62.5522V34.798C62.5522 33.162 61.2293 32.6881 58.5795 32.5588V32H74V32.5588C70.4963 32.6881 69.728 33.2482 69.728 34.798V59.202C69.728 60.7518 70.4963 61.2688 74 61.3968V62H58.5795V61.3968C61.2293 61.2688 62.5522 60.838 62.5522 59.202V46.8492H51.4478V59.202C51.4478 60.838 52.7293 61.2688 55.4192 61.3968V62H40V61.3968Z" fill="white"/>
<path d="M76 61.3969C79.5434 61.2689 80.3729 60.7075 80.3729 59.2021V34.798C80.3729 33.2913 79.5434 32.6881 76 32.5588V32H102.731L102.861 42.632L102.162 42.7181C98.7047 35.5722 97.2621 32.7324 91.7505 32.7324H87.7253V46.075H89.1679C92.6237 46.075 94.7233 44.4821 95.9058 40.2648H96.4751V52.7038H95.9058C94.7233 48.4421 92.6237 46.8061 89.1679 46.8061H87.7253V61.2245H91.4439C97.9615 61.2245 99.7558 58.6419 103.299 50.68L104 50.7674L103.782 62H76V61.3969Z" fill="white"/>
<path d="M11 95.3968C14.5626 95.2702 15.3962 94.7532 15.3962 93.2034V68.7992C15.3962 67.2481 14.5626 66.6907 11 66.5601V66H26.8734V66.5601C24.1018 66.6906 22.784 67.1633 22.784 68.7992V79.9895H34.216V68.7992C34.216 67.1633 32.8528 66.6907 30.1266 66.5601V66H46V66.5601C42.3948 66.6906 41.6038 67.2481 41.6038 68.7992V93.2034C41.6038 94.7532 42.3948 95.2702 46 95.3968V96H30.1266V95.3968C32.8528 95.2702 34.216 94.838 34.216 93.2034V80.8499H22.784V93.2034C22.784 94.838 24.1018 95.2702 26.8734 95.3968V96H11V95.3968Z" fill="white"/>
<path d="M47 95.3968C50.3377 95.2702 51.1416 94.7088 51.1416 93.2034V68.7992C51.1416 67.2925 50.3377 66.6907 47 66.5601V66H62V66.5601C58.6623 66.6906 57.8584 67.2925 57.8584 68.7992V93.2034C57.8584 94.7088 58.6623 95.2702 62 95.3968V96H47V95.3968Z" fill="white"/>
<path d="M64 95.3968C67.2762 95.2701 68.0456 94.7087 68.0456 93.2034V68.7992C68.0456 67.2925 67.2762 66.6907 64 66.5601V66H78.8461V66.5601C75.4877 66.6906 74.841 67.2481 74.841 68.7992V95.2257H76.6607C82.7285 95.2257 84.6292 92.8143 88.3509 84.2927L89 84.3358L88.6343 96H64V95.3968Z" fill="white"/>
<path d="M90 95.3968C93.5385 95.2701 94.3695 94.7087 94.3695 93.2034V68.7992C94.3695 67.2925 93.5385 66.6907 90 66.5601V66H106.033V66.5601C102.409 66.6906 101.709 67.2481 101.709 68.7992V95.2257H103.674C110.229 95.2257 112.282 92.8143 116.302 84.2927L117 84.3358L116.608 96H90V95.3968Z" fill="white"/>
<defs>
<linearGradient id="paint0_linear_264_1930" x1="64" y1="0" x2="64" y2="128" gradientUnits="userSpaceOnUse">
<stop stop-color="#1D63F0"/>
<stop offset="0.0001" stop-color="#0F75BF"/>
</linearGradient>
</defs>
</svg>
