<svg width="128" height="128" viewBox="0 0 128 128" fill="none" xmlns="http://www.w3.org/2000/svg">
<rect width="128" height="128" rx="24" fill="#009EDB"/>
<path d="M64.2622 109C39.8573 109 20 88.8146 20 64.0019C20 39.191 39.8576 19 64.2622 19C88.6642 19 108.516 39.1907 108.516 64.0019C108.516 88.815 88.6642 109 64.2622 109ZM64.0928 46.2574C64.1493 46.2574 67.688 50.1104 67.688 53.193C67.688 56.5334 65.1247 57.3299 64.2622 57.3299C64.2195 57.3299 64.1669 57.3271 64.1105 57.3243H64.0745C64.0195 57.3271 63.9655 57.3299 63.9256 57.3299C63.0631 57.3299 60.4998 56.5334 60.4998 53.193C60.5002 50.1104 64.0279 46.2574 64.0928 46.2574ZM30.7681 66.5045H34.8056V58.9213H41.5855V55.7463H34.8056V51.5324H41.8116V48.3656H30.7681V66.5045ZM67.7529 46.8046H72.0109L67.0625 28.6614H61.6206L56.4916 46.8046H60.4356L61.5698 42.7491H66.7305L67.7529 46.8046ZM65.9834 39.6775H62.2725L64.0004 31.787H64.283L65.9834 39.6775ZM84.679 57.4358C84.679 62.7644 87.1099 66.816 92.2389 66.816C97.3873 66.816 99.8429 62.7648 99.8429 57.4358C99.8429 52.1068 97.3873 48.0555 92.2389 48.0555C87.1099 48.0559 84.679 52.1071 84.679 57.4358ZM88.98 57.4358C88.98 53.9535 89.8206 51.1229 92.2389 51.1229C94.6713 51.1229 95.5462 53.9532 95.5462 57.4358C95.5462 60.9183 94.6713 63.7511 92.2389 63.7511C89.8203 63.7515 88.98 60.918 88.98 57.4358ZM62.3759 103.979C62.6115 102.223 62.8458 99.4063 62.8458 96.1075V95.5508C62.8458 90.9069 62.6775 89.3389 59.6239 88.3081C54.9165 86.722 52.9886 81.3778 54.0236 74.7206L38.2645 33.971C30.0682 41.32 24.8961 52.0535 24.8961 64.0023C24.8961 85.4305 41.5524 102.978 62.3759 103.979ZM64.2431 77.9986C57.9733 76.5131 55.6471 70.7032 55.6471 65.5453L41.8501 31.1157C40.9488 31.7482 40.0753 32.4234 39.2304 33.1261C42.266 40.4391 55.8838 73.3011 55.9004 73.3494C58.3119 79.2541 62.6969 77.2962 63.7577 82.1716C64.0114 83.3498 64.0279 83.868 64.0279 83.868H64.4992C64.4992 83.868 64.5049 83.3498 64.7695 82.1716C65.8306 77.2962 70.2043 79.2541 72.6187 73.3494C72.6353 73.3011 86.2555 40.4395 89.2872 33.1261C88.4423 32.4234 87.5703 31.7482 86.6661 31.1157L72.872 65.5457C72.872 70.7036 70.5405 76.5134 64.2703 77.9989H64.2431V77.9986ZM64.2361 67.6045C61.5765 67.0009 58.2636 64.318 57.8325 60.8633C57.6769 59.5475 57.5528 59.1795 57.7429 56.5708L45.6505 28.7387C44.6776 29.2735 43.7283 29.852 42.7994 30.468C46.4139 38.7292 57.4656 63.9635 57.4741 63.9938C59.2256 67.7392 62.293 67.8108 63.3513 70.0446C63.9881 71.3661 64.0459 72.5511 64.0569 72.6477H64.458C64.4689 72.5514 64.5352 71.3661 65.1607 70.0446C66.2271 67.8108 69.2948 67.7392 71.0393 63.9938C71.0503 63.9635 82.1048 38.7292 85.7179 30.468C84.7989 29.852 83.8439 29.2731 82.8625 28.7387L70.7857 56.5708C70.9758 59.1795 70.8492 59.5475 70.6837 60.8633C70.2523 64.318 66.9369 67.0009 64.2911 67.6045H64.2361ZM64.4043 62.8777L64.5878 61.3618C65.3512 57.834 67.8689 58.2764 69.6148 54.8147C69.6219 54.8009 69.6423 54.7635 69.6423 54.7635C69.6959 54.6354 78.2507 35.9755 81.8201 28.1827C76.5327 25.4928 70.5726 23.9727 64.2625 23.9727C57.9567 23.9727 51.9913 25.4928 46.6997 28.1827C50.2701 35.9755 58.8182 54.6351 58.8884 54.7635C58.8884 54.7635 58.9049 54.8005 58.9159 54.8147C60.6522 58.2761 63.1643 57.834 63.9263 61.3618L64.1108 62.8777H64.4043ZM103.627 64.0023C103.627 52.0535 98.4481 41.32 90.2641 33.971L74.4926 74.7203C75.5386 81.3775 73.5997 86.7216 68.8909 88.3077C65.8387 89.3385 65.6719 90.9066 65.6719 95.5505V96.1072C65.6719 99.4063 65.917 102.223 66.1418 103.978C86.9776 102.978 103.627 85.4305 103.627 64.0023ZM37.3357 75.8227C37.3357 75.8227 37.916 77.0821 38.3897 77.9725C38.8582 78.8654 39.5017 79.9445 39.5017 79.9445L38.4628 80.5576C38.4628 80.5576 37.6733 79.2224 36.9497 77.6804C36.7515 77.7823 35.5083 78.4438 35.3016 78.5457C35.4201 78.7719 36.6975 81.2716 36.6975 81.2716L35.6448 81.8876C35.6448 81.8876 34.3508 79.33 34.2394 79.1137C34.0132 79.2266 31.3318 80.6363 31.3318 80.6363L30.6883 79.3395L37.2602 75.8587L37.3357 75.8227ZM41.4892 82.6728L42.4043 83.7933L36.6523 88.6813L35.7207 87.5623L41.4201 82.7212L41.4892 82.6728ZM46.8136 87.7994L47.9531 88.6248L46.4746 96.6836L45.1736 95.923C45.1736 95.923 45.4974 94.2805 45.5373 94.1207C45.4738 94.0685 44.7132 93.6081 43.9773 93.079C43.2305 92.5332 42.4999 91.9229 42.4311 91.8746C42.2879 91.9614 40.8451 92.8267 40.8451 92.8267L39.7289 91.8566L46.7388 87.8424L46.8136 87.7994ZM43.4912 91.2195C43.6249 91.3366 44.1114 91.7363 44.6144 92.1028C45.1298 92.4637 45.641 92.8098 45.7941 92.8772C45.8685 92.5424 46.3907 89.8924 46.5011 89.4016C46.0739 89.6609 43.7918 91.0403 43.4912 91.2195ZM51.557 90.7619C51.557 90.7619 52.7685 91.3779 54.4921 91.9787C55.669 92.3921 56.6694 92.7146 57.6477 92.935L57.3058 94.0939C57.3058 94.0939 56.3717 93.927 54.8488 93.4533C54.7648 93.7069 52.7843 99.4504 52.7843 99.4504L51.4353 98.9735C51.4353 98.9735 53.4031 93.219 53.4871 92.9682C52.0717 92.4309 51.084 91.8961 51.084 91.8961L51.557 90.7619ZM75.2232 92.2972C75.7153 92.5618 76.0734 93.0261 76.2678 93.6864C76.3546 93.9648 76.4015 94.2336 76.4015 94.4925C76.4015 95.5551 75.6684 96.3915 74.3455 96.8145C74.3455 96.8145 73.677 97.0226 73.4802 97.0833C73.556 97.3246 74.3455 99.9069 74.3455 99.9069L73.0321 100.253L70.8054 92.9132L72.794 92.2849C73.7913 91.9691 74.6196 91.9762 75.2232 92.2972ZM72.4409 93.6819C72.5044 93.9052 73.0568 95.698 73.1231 95.9199C73.3973 95.8373 73.997 95.6415 73.997 95.6415C74.1952 95.5823 74.6665 95.3921 74.8898 94.9554C74.9643 94.8136 74.9999 94.6537 74.9999 94.4925C74.9999 94.3659 74.9752 94.2361 74.9364 94.0985C74.8496 93.8381 74.6926 93.6328 74.4584 93.5086C74.0545 93.2882 73.5091 93.3446 73.1715 93.4466C73.1711 93.4462 72.624 93.6201 72.4409 93.6819ZM79.6932 89.0986L86.192 93.9383L85.0374 94.7666C85.0374 94.7666 83.7311 93.7566 83.6016 93.66C83.5257 93.7027 82.8562 94.1849 82.1355 94.6192C81.4507 95.0383 80.7148 95.4087 80.6404 95.4514C80.6722 95.6249 80.9269 97.2442 80.9269 97.2442L79.6851 97.8464L78.5964 89.7435L79.6932 89.0986ZM80.4404 94.2276C80.6348 94.1323 81.1378 93.853 81.638 93.5467C82.0861 93.2698 82.4441 93.0437 82.6219 92.8962C82.3616 92.6923 80.3303 91.1243 79.9112 90.7919C79.9938 91.331 80.3864 93.8914 80.4404 94.2276ZM87.118 82.4291L92.7843 87.569L91.763 88.7857C91.763 88.7857 86.4481 87.2078 85.6445 86.9887C86.2425 87.569 89.5402 91.102 89.5402 91.102L88.5454 92.0157L83.2026 86.4994L84.4606 85.3585C84.4606 85.3585 89.5867 86.9142 90.3914 87.1319C89.7921 86.5516 86.2544 83.4595 86.2544 83.4595L87.118 82.4291ZM89.7088 78.5927L96.2722 82.4622L95.6026 83.6363L89.0061 79.7543L89.7088 78.5927ZM92.5504 72.1891L93.6775 72.7857L93.5646 72.9179C93.2009 73.3698 93.0326 73.6027 92.8591 74.1114C92.7751 74.3428 92.6746 74.7894 92.8453 75.1256C92.9279 75.302 93.0781 75.43 93.2944 75.4992C93.7932 75.6728 94.2233 75.2276 94.7193 74.715C95.4125 73.9985 96.2722 73.1166 97.6586 73.5903C99.0683 74.0768 99.5466 75.3528 98.9649 77.0877C98.7885 77.6197 98.4618 78.0716 98.1683 78.4907L98.0981 78.5831L96.935 78.0307L97.0479 77.8913C97.1883 77.7245 97.6748 77.1459 97.8582 76.5727C98.0332 76.0682 98.0152 75.2166 97.2627 74.9577C96.6359 74.7372 96.1674 75.2279 95.6202 75.8026C94.9574 76.5138 94.1926 77.3142 92.936 76.8789C92.3835 76.6873 91.9715 76.3317 91.7383 75.8566C91.4519 75.2752 91.4434 74.5336 91.7066 73.7607C91.8748 73.2397 92.1585 72.6982 92.4865 72.278L92.5504 72.1891Z" fill="white"/>
</svg>
