<svg width="16" height="16" viewBox="0 0 16 16" fill="none" xmlns="http://www.w3.org/2000/svg">
<rect x="1.5" y="1.5" width="13" height="13" rx="6" fill="url(#paint0_linear_5053_5311)"/>
<path d="M6.70932 10.6187C6.70932 10.6187 6.33777 10.8347 6.97373 10.9078C7.74418 10.9957 8.13795 10.9831 8.98699 10.8224C8.98699 10.8224 9.21021 10.9624 9.52195 11.0836C7.61863 11.8994 5.21436 11.0364 6.70932 10.6187Z" fill="#5382A1"/>
<path d="M6.4769 9.5542C6.4769 9.5542 6.06017 9.86267 6.69661 9.9285C7.51963 10.0134 8.16958 10.0203 9.29425 9.80378C9.29425 9.80378 9.44981 9.96149 9.69441 10.0477C7.39318 10.7206 4.83002 10.1008 6.4769 9.5542Z" fill="#5382A1"/>
<path d="M8.43748 7.74853C8.90646 8.28847 8.31426 8.77436 8.31426 8.77436C8.31426 8.77436 9.50507 8.15962 8.95819 7.38983C8.44741 6.67195 8.05571 6.31526 10.1762 5.08545C10.1762 5.08545 6.84773 5.91675 8.43748 7.74853Z" fill="#E76F00"/>
<path d="M10.9547 11.4065C10.9547 11.4065 11.2297 11.633 10.6519 11.8083C9.55328 12.1411 6.07932 12.2416 5.11426 11.8215C4.76735 11.6706 5.41791 11.4612 5.62255 11.4172C5.83597 11.3709 5.95793 11.3796 5.95793 11.3796C5.57213 11.1078 3.46427 11.9132 4.88724 12.1439C8.7679 12.7732 11.9613 11.8605 10.9547 11.4065Z" fill="#5382A1"/>
<path d="M6.88792 8.45178C6.88792 8.45178 5.12084 8.87149 6.26215 9.0239C6.74405 9.08842 7.7047 9.07382 8.59952 8.99885C9.33082 8.93716 10.0651 8.806 10.0651 8.806C10.0651 8.806 9.80727 8.91643 9.62071 9.04382C7.82627 9.51576 4.35975 9.29621 5.35771 8.81347C6.2017 8.4055 6.88792 8.45178 6.88792 8.45178Z" fill="#5382A1"/>
<path d="M10.0579 10.2237C11.882 9.27583 11.0386 8.36492 10.4499 8.48764C10.3057 8.51767 10.2413 8.54369 10.2413 8.54369C10.2413 8.54369 10.2949 8.45978 10.3972 8.42346C11.5618 8.01402 12.4575 9.63105 10.0212 10.2715C10.0212 10.2715 10.0495 10.2463 10.0579 10.2237Z" fill="#5382A1"/>
<path d="M8.95818 3.1001C8.95818 3.1001 9.96841 4.11067 8.00002 5.66465C6.42157 6.9112 7.64008 7.62195 7.99937 8.43402C7.078 7.60272 6.40184 6.87092 6.85546 6.18984C7.52127 5.19006 9.36579 4.70533 8.95818 3.1001Z" fill="#E76F00"/>
<path d="M7.0672 12.792C8.81813 12.9041 11.5069 12.7299 11.5706 11.9014C11.5706 11.9014 11.4482 12.2154 10.1235 12.4649C8.62906 12.7461 6.78585 12.7133 5.69263 12.533C5.69265 12.533 5.91642 12.7183 7.0672 12.792Z" fill="#5382A1"/>
<defs>
<linearGradient id="paint0_linear_5053_5311" x1="8" y1="1.5" x2="8" y2="14.5" gradientUnits="userSpaceOnUse">
<stop stop-color="white"/>
<stop offset="1" stop-color="#EEEEEE"/>
</linearGradient>
</defs>
</svg>
