<svg width="16" height="16" viewBox="0 0 16 16" fill="none" xmlns="http://www.w3.org/2000/svg">
<path fill-rule="evenodd" clip-rule="evenodd" d="M2.26658 1.59445C2.73016 1.40245 3.26375 1.50861 3.61853 1.86344L12.0183 10.2642V2.74058C12.0183 2.05545 12.5738 1.50004 13.2589 1.50004C13.944 1.50004 14.4994 2.05545 14.4994 2.74058V13.2594C14.4994 13.7612 14.1972 14.2135 13.7336 14.4055C13.27 14.5976 12.7364 14.4914 12.3816 14.1366L3.98183 5.73578V13.2594C3.98183 13.9446 3.42642 14.5 2.74128 14.5C2.05614 14.5 1.50073 13.9446 1.50073 13.2594V2.74058C1.50073 2.23882 1.803 1.78646 2.26658 1.59445Z" fill="url(#paint0_linear_6639_4684)"/>
<defs>
<linearGradient id="paint0_linear_6639_4684" x1="8.00009" y1="1.5" x2="8.00009" y2="14.5" gradientUnits="userSpaceOnUse">
<stop stop-color="#0AFF0A"/>
<stop offset="1" stop-color="#009900"/>
</linearGradient>
</defs>
</svg>
