<svg width="1000" height="1000" viewBox="0 0 1000 1000" fill="none" xmlns="http://www.w3.org/2000/svg">
<path fill-rule="evenodd" clip-rule="evenodd" d="M222.828 237.281C234.356 230.737 248.514 230.803 259.994 237.493L276.14 246.901L276.142 246.902C284.436 251.736 290.726 259.371 293.885 268.425L293.886 268.426L296.639 276.319C306.666 275.223 316.922 278.225 324.876 285.006L338.747 296.829L339.495 297.483C346.244 303.533 350.537 311.655 351.883 320.346C351.906 320.496 351.929 320.645 351.951 320.795C351.959 320.854 351.967 320.913 351.975 320.972C352.012 321.234 352.048 321.498 352.079 321.761L354.734 322.669L354.932 322.736L355.442 322.914C361.772 325.165 366.698 328.817 367.459 329.361C367.658 329.504 367.851 329.644 368.037 329.78L520.784 417.784L600.881 377.296C613.285 371.025 628.022 371.448 640.044 378.413L664.141 392.323C675.779 399.085 683.381 411.405 683.917 425.184C683.94 425.774 683.95 426.428 683.943 427.138C683.94 427.644 683.934 428.751 683.932 429.816C683.931 430.374 683.931 430.869 683.933 431.239C683.934 431.369 683.933 431.46 683.934 431.517C684.281 444.928 677.844 457.624 666.797 465.269L666.798 465.271L637.913 485.267L786.947 571.132C787.625 571.506 788.283 571.891 788.921 572.284C809.981 582.398 822.572 598.281 829.675 611.828C833.387 618.908 835.726 625.549 837.175 630.884C838.329 635.135 839.616 641.104 839.616 646.706C839.616 658.989 835.546 670.025 830.767 678.301C825.987 686.578 818.464 695.613 807.836 701.75L807.825 701.757C798.075 707.382 759.56 721.771 716.96 693.747C716.239 693.316 715.551 692.88 714.895 692.441L503.011 570.066L418.918 608.291C405.432 614.422 389.82 613.66 376.997 606.258L376.995 606.257L353.118 592.472L352.777 592.271C351.195 591.373 349.668 590.355 348.214 589.218C339.179 582.153 333.899 571.323 333.899 559.854V554.296C333.899 554.224 333.897 554.151 333.897 554.076C333.896 553.179 333.927 552.448 333.954 551.955C333.96 551.832 333.968 551.708 333.976 551.585C334.741 539.642 341.033 528.717 351.025 522.066L358.443 517.131L337.981 505.316C335.557 503.917 333.299 502.248 331.248 500.344L290.903 462.862C282.561 456.898 278.055 449.168 275.796 444.211C267.888 445.303 259.709 443.845 252.527 439.836L234.263 429.796C226.444 425.498 220.548 418.616 217.431 410.519C210.614 410.608 203.825 409.03 197.681 405.847L197.668 405.841L180.507 396.942C168.148 390.534 160.391 377.773 160.391 363.852V362.447C160.391 348.036 168.698 334.917 181.725 328.754L208.027 316.31C208.238 315.971 208.454 315.634 208.672 315.297L203.488 274.895C201.761 261.48 207.449 248.087 218.484 240.033C219.671 239.167 220.899 238.38 222.159 237.67L222.282 237.597L222.828 237.281ZM309.233 427.579C309.282 427.712 309.332 427.844 309.383 427.975C309.28 427.713 309.183 427.446 309.091 427.175L309.233 427.579Z" fill="black"/>
<path fill-rule="evenodd" clip-rule="evenodd" d="M424.938 464.893L429.103 468.304V478.645L424.938 475.234V464.893Z" fill="#6E7681"/>
<path fill-rule="evenodd" clip-rule="evenodd" d="M422.371 479.674C422.371 479.674 427.612 482.765 426.595 482.749L426.537 483.086L401.422 497.586C402.148 497.167 402.803 496.099 402.994 493.715V490.862L422.371 479.674Z" fill="#00FF00"/>
<path fill-rule="evenodd" clip-rule="evenodd" d="M422.371 479.674C422.371 479.674 427.612 482.765 426.595 482.749L426.537 483.086L401.422 497.586C402.148 497.167 402.803 496.099 402.994 493.715V490.862L422.371 479.674Z" fill="url(#paint0_linear_5315_5500)" fill-opacity="0.4"/>
<path fill-rule="evenodd" clip-rule="evenodd" d="M424.936 475.234L429.101 478.646C428.829 482.039 427.616 482.766 426.599 482.75L426.54 483.087L422.375 479.675C422.375 479.675 424.664 478.627 424.936 475.234Z" fill="#6E7681"/>
<path fill-rule="evenodd" clip-rule="evenodd" d="M397.963 480.467L424.938 464.893V475.234C424.666 478.626 422.377 479.675 422.377 479.675L396.391 494.678C397.116 494.259 397.772 493.191 397.963 490.808V480.467Z" fill="#00FF00"/>
<path fill-rule="evenodd" clip-rule="evenodd" d="M397.963 480.467L424.938 464.893V475.234C424.666 478.626 422.377 479.675 422.377 479.675L396.391 494.678C397.116 494.259 397.772 493.191 397.963 490.808V480.467Z" fill="url(#paint1_linear_5315_5500)" fill-opacity="0.9"/>
<path fill-rule="evenodd" clip-rule="evenodd" d="M307.563 413.137C307.563 413.137 306.499 429.845 313.707 432.991L356.615 472.852L399.012 497.33C399.012 497.33 402.509 499.783 402.995 493.717V483.375L343.812 434.896L307.563 413.137Z" fill="#00FF00"/>
<path fill-rule="evenodd" clip-rule="evenodd" d="M307.563 413.137C307.563 413.137 306.499 429.845 313.707 432.991L356.615 472.852L399.012 497.33C399.012 497.33 402.509 499.783 402.995 493.717V483.375L343.812 434.896L307.563 413.137Z" fill="url(#paint2_linear_5315_5500)" fill-opacity="0.1"/>
<path fill-rule="evenodd" clip-rule="evenodd" d="M307.562 413.135L333.61 398.096L333.662 398.128L333.666 398.064L369.914 419.824L429.098 468.303L402.995 483.373L343.811 434.894L307.562 413.135Z" fill="#00FF00"/>
<path fill-rule="evenodd" clip-rule="evenodd" d="M307.562 413.135L333.61 398.096L333.662 398.128L333.666 398.064L369.914 419.824L429.098 468.303L402.995 483.373L343.811 434.894L307.562 413.135Z" fill="url(#paint3_linear_5315_5500)" fill-opacity="0.2"/>
<path fill-rule="evenodd" clip-rule="evenodd" d="M270.695 407.105L274.946 385.212L277.496 383.74L273.245 405.632L270.695 407.105Z" fill="#FF0000"/>
<path fill-rule="evenodd" clip-rule="evenodd" d="M270.695 407.105L274.946 385.212L277.496 383.74L273.245 405.632L270.695 407.105Z" fill="url(#paint4_linear_5315_5500)" fill-opacity="0.2"/>
<path fill-rule="evenodd" clip-rule="evenodd" d="M250.586 364.082L252.217 396.949L270.692 407.104L274.944 385.212L250.586 364.082Z" fill="#FF0000"/>
<path fill-rule="evenodd" clip-rule="evenodd" d="M250.586 364.082L252.217 396.949L270.692 407.104L274.944 385.212L250.586 364.082Z" fill="url(#paint5_linear_5315_5500)" fill-opacity="0.1"/>
<path fill-rule="evenodd" clip-rule="evenodd" d="M315.061 325.982L315.064 325.98V327.472C315.064 327.514 315.062 327.555 315.058 327.596C315.018 328.038 314.766 328.431 314.382 328.654L291.707 341.745L264.25 332.364L265.943 331.538L291.707 340.341L314.382 327.249C314.766 327.027 315.018 326.633 315.058 326.191C315.065 326.121 315.065 326.051 315.061 325.982Z" fill="#FF0000"/>
<path fill-rule="evenodd" clip-rule="evenodd" d="M315.061 325.982L315.064 325.98V327.472C315.064 327.514 315.062 327.555 315.058 327.596C315.018 328.038 314.766 328.431 314.382 328.654L291.707 341.745L264.25 332.364L265.943 331.538L291.707 340.341L314.382 327.249C314.766 327.027 315.018 326.633 315.058 326.191C315.065 326.121 315.065 326.051 315.061 325.982Z" fill="url(#paint6_linear_5315_5500)" fill-opacity="0.3"/>
<path fill-rule="evenodd" clip-rule="evenodd" d="M264.25 330.96L300.694 313.189C300.694 313.189 310.742 321.754 314.585 325.03C314.922 325.317 315.099 325.751 315.058 326.192C315.018 326.634 314.766 327.027 314.382 327.25C308.882 330.425 291.707 340.341 291.707 340.341L264.25 330.96Z" fill="#FF0000"/>
<path fill-rule="evenodd" clip-rule="evenodd" d="M264.25 330.96L300.694 313.189C300.694 313.189 310.742 321.754 314.585 325.03C314.922 325.317 315.099 325.751 315.058 326.192C315.018 326.634 314.766 327.027 314.382 327.25C308.882 330.425 291.707 340.341 291.707 340.341L264.25 330.96Z" fill="url(#paint7_linear_5315_5500)" fill-opacity="0.1"/>
<path fill-rule="evenodd" clip-rule="evenodd" d="M646.68 426.452C646.68 426.452 646.646 431.402 646.68 432.266C646.713 433.13 646.301 433.951 645.589 434.442L568.181 488.031L563.445 485.296L645.589 428.629C646.301 428.138 646.713 427.316 646.68 426.452Z" fill="#FF0000"/>
<path fill-rule="evenodd" clip-rule="evenodd" d="M646.68 426.452C646.68 426.452 646.646 431.402 646.68 432.266C646.713 433.13 646.301 433.951 645.589 434.442L568.181 488.031L563.445 485.296L645.589 428.629C646.301 428.138 646.713 427.316 646.68 426.452Z" fill="url(#paint8_linear_5315_5500)" fill-opacity="0.3"/>
<path fill-rule="evenodd" clip-rule="evenodd" d="M519.586 459.974C519.586 459.974 604.008 417.297 617.696 410.38C618.853 409.792 620.237 409.831 621.361 410.482C626.143 413.24 639.153 420.754 645.419 424.368C646.164 424.801 646.642 425.587 646.676 426.451C646.709 427.315 646.297 428.136 645.585 428.627C629.914 439.44 563.441 485.295 563.441 485.295L519.586 459.974Z" fill="#FF0000"/>
<path fill-rule="evenodd" clip-rule="evenodd" d="M519.586 459.974C519.586 459.974 604.008 417.297 617.696 410.38C618.853 409.792 620.237 409.831 621.361 410.482C626.143 413.24 639.153 420.754 645.419 424.368C646.164 424.801 646.642 425.587 646.676 426.451C646.709 427.315 646.297 428.136 645.585 428.627C629.914 439.44 563.441 485.295 563.441 485.295L519.586 459.974Z" fill="url(#paint9_linear_5315_5500)" fill-opacity="0.1"/>
<path fill-rule="evenodd" clip-rule="evenodd" d="M309.453 414.751L238.515 354.028C238.432 353.96 238.35 353.89 238.27 353.819C236.833 352.512 235.977 350.323 235.977 347.412C235.977 340.447 240.874 331.965 246.905 328.483C249.805 326.809 252.442 326.593 254.399 327.594L342.684 357.757C342.775 357.788 342.866 357.819 342.955 357.85C344.617 358.44 347.342 360.69 347.342 360.69L768.727 603.467C769.389 603.814 770.011 604.231 770.599 604.705C797.781 616.353 802.344 643.78 802.344 646.522C802.344 654.901 796.451 665.1 789.199 669.287C787.632 670.192 764.395 680.681 736.545 661.823C736.435 661.756 736.309 661.699 736.193 661.635C735.761 661.385 735.352 661.106 734.955 660.798L313.738 417.524C313.738 417.524 309.73 415.036 309.453 414.751Z" fill="#FF0000"/>
<path fill-rule="evenodd" clip-rule="evenodd" d="M309.453 414.751L238.515 354.028C238.432 353.96 238.35 353.89 238.27 353.819C236.833 352.512 235.977 350.323 235.977 347.412C235.977 340.447 240.874 331.965 246.905 328.483C249.805 326.809 252.442 326.593 254.399 327.594L342.684 357.757C342.775 357.788 342.866 357.819 342.955 357.85C344.617 358.44 347.342 360.69 347.342 360.69L768.727 603.467C769.389 603.814 770.011 604.231 770.599 604.705C797.781 616.353 802.344 643.78 802.344 646.522C802.344 654.901 796.451 665.1 789.199 669.287C787.632 670.192 764.395 680.681 736.545 661.823C736.435 661.756 736.309 661.699 736.193 661.635C735.761 661.385 735.352 661.106 734.955 660.798L313.738 417.524C313.738 417.524 309.73 415.036 309.453 414.751Z" fill="url(#paint10_linear_5315_5500)" fill-opacity="0.1"/>
<path fill-rule="evenodd" clip-rule="evenodd" d="M214.825 371.162V372.567L197.664 363.668V362.264L214.825 371.162Z" fill="#FF0000"/>
<path fill-rule="evenodd" clip-rule="evenodd" d="M214.825 371.162V372.567L197.664 363.668V362.264L214.825 371.162Z" fill="url(#paint11_linear_5315_5500)" fill-opacity="0.3"/>
<path fill-rule="evenodd" clip-rule="evenodd" d="M258.937 359.262V360.666L218.172 372.88V371.476L258.937 359.262Z" fill="#FF0000"/>
<path fill-rule="evenodd" clip-rule="evenodd" d="M258.937 359.262V360.666L218.172 372.88V371.476L258.937 359.262Z" fill="url(#paint12_linear_5315_5500)" fill-opacity="0.3"/>
<path fill-rule="evenodd" clip-rule="evenodd" d="M218.172 371.476V372.88C217.059 373.214 215.86 373.102 214.828 372.566V371.162C215.86 371.697 217.059 371.809 218.172 371.476Z" fill="#FF0000"/>
<path fill-rule="evenodd" clip-rule="evenodd" d="M218.172 371.476V372.88C217.059 373.214 215.86 373.102 214.828 372.566V371.162C215.86 371.697 217.059 371.809 218.172 371.476Z" fill="url(#paint13_linear_5315_5500)" fill-opacity="0.3"/>
<path fill-rule="evenodd" clip-rule="evenodd" d="M197.664 362.264L236.347 343.963L258.934 359.262C258.934 359.262 226.15 369.085 218.169 371.476C217.056 371.81 215.857 371.697 214.825 371.162C210.28 368.805 197.664 362.264 197.664 362.264Z" fill="#FF0000"/>
<path fill-rule="evenodd" clip-rule="evenodd" d="M197.664 362.264L236.347 343.963L258.934 359.262C258.934 359.262 226.15 369.085 218.169 371.476C217.056 371.81 215.857 371.697 214.825 371.162C210.28 368.805 197.664 362.264 197.664 362.264Z" fill="url(#paint14_linear_5315_5500)" fill-opacity="0.1"/>
<path fill-rule="evenodd" clip-rule="evenodd" d="M464.831 490.949C464.831 490.949 383.845 544.819 371.678 552.912C371.351 553.13 371.16 553.5 371.172 553.892C371.185 554.285 371.399 554.643 371.739 554.839C376.229 557.431 389.134 564.882 395.631 568.633C398.037 570.022 400.966 570.164 403.495 569.015C423.71 559.827 513.087 519.201 513.087 519.201L464.831 490.949Z" fill="#FF0000"/>
<path fill-rule="evenodd" clip-rule="evenodd" d="M464.831 490.949C464.831 490.949 383.845 544.819 371.678 552.912C371.351 553.13 371.16 553.5 371.172 553.892C371.185 554.285 371.399 554.643 371.739 554.839C376.229 557.431 389.134 564.882 395.631 568.633C398.037 570.022 400.966 570.164 403.495 569.015C423.71 559.827 513.087 519.201 513.087 519.201L464.831 490.949Z" fill="url(#paint15_linear_5315_5500)" fill-opacity="0.1"/>
<path fill-rule="evenodd" clip-rule="evenodd" d="M513.091 519.201V524.361L403.5 574.175V569.015L513.091 519.201Z" fill="#FF0000"/>
<path fill-rule="evenodd" clip-rule="evenodd" d="M513.091 519.201V524.361L403.5 574.175V569.015L513.091 519.201Z" fill="url(#paint16_linear_5315_5500)" fill-opacity="0.3"/>
<path fill-rule="evenodd" clip-rule="evenodd" d="M395.631 568.632V573.792L371.739 559.998C371.578 559.906 371.446 559.777 371.349 559.626L371.172 559.67V559.052V553.783L371.349 554.466C371.446 554.617 371.578 554.745 371.739 554.838L395.631 568.632Z" fill="#FF0000"/>
<path fill-rule="evenodd" clip-rule="evenodd" d="M395.631 568.632V573.792L371.739 559.998C371.578 559.906 371.446 559.777 371.349 559.626L371.172 559.67V559.052V553.783L371.349 554.466C371.446 554.617 371.578 554.745 371.739 554.838L395.631 568.632Z" fill="url(#paint17_linear_5315_5500)" fill-opacity="0.3"/>
<path fill-rule="evenodd" clip-rule="evenodd" d="M403.497 569.013V574.173C400.968 575.323 398.039 575.18 395.633 573.791V568.631C398.039 570.02 400.968 570.162 403.497 569.013Z" fill="#FF0000"/>
<path fill-rule="evenodd" clip-rule="evenodd" d="M403.497 569.013V574.173C400.968 575.323 398.039 575.18 395.633 573.791V568.631C398.039 570.02 400.968 570.162 403.497 569.013Z" fill="url(#paint18_linear_5315_5500)" fill-opacity="0.3"/>
<path fill-rule="evenodd" clip-rule="evenodd" d="M278.176 340.776L257.155 280.52C256.92 279.848 256.453 279.281 255.838 278.923L240.461 269.967L241.229 269.514L257.376 278.923C257.991 279.281 258.458 279.848 258.693 280.52L279.415 339.918L278.176 340.776Z" fill="#FF0000"/>
<path fill-rule="evenodd" clip-rule="evenodd" d="M278.176 340.776L257.155 280.52C256.92 279.848 256.453 279.281 255.838 278.923L240.461 269.967L241.229 269.514L257.376 278.923C257.991 279.281 258.458 279.848 258.693 280.52L279.415 339.918L278.176 340.776Z" fill="url(#paint19_linear_5315_5500)" fill-opacity="0.2"/>
<path fill-rule="evenodd" clip-rule="evenodd" d="M240.461 269.959L248.061 329.192L278.177 340.778C278.177 340.778 259.97 288.589 257.156 280.522C256.921 279.849 256.454 279.283 255.839 278.924C252.347 276.889 240.461 269.959 240.461 269.959Z" fill="#FF0000"/>
<path fill-rule="evenodd" clip-rule="evenodd" d="M240.461 269.959L248.061 329.192L278.177 340.778C278.177 340.778 259.97 288.589 257.156 280.522C256.921 279.849 256.454 279.283 255.839 278.924C252.347 276.889 240.461 269.959 240.461 269.959Z" fill="url(#paint20_linear_5315_5500)" fill-opacity="0.1"/>
<path opacity="0.2" fill-rule="evenodd" clip-rule="evenodd" d="M197.664 362.447L236.338 344.152C237.575 338.036 241.839 331.589 246.903 328.666C247.239 328.472 247.571 328.299 247.899 328.144L240.459 270.151L240.457 270.142L240.466 270.147L241.227 269.697L257.374 279.106C257.99 279.465 258.457 280.032 258.691 280.704L274.537 326.127L300.696 313.372L314.586 325.213C314.87 325.454 315.039 325.799 315.063 326.165L315.066 326.164V327.655C315.066 327.697 315.064 327.739 315.06 327.78C315.02 328.221 314.768 328.615 314.384 328.837L293.236 341.046L342.682 357.941L342.953 358.033C344.614 358.624 347.34 360.873 347.34 360.873L519.626 460.135C521.842 459.015 604.188 417.387 617.692 410.563C618.849 409.975 620.232 410.014 621.357 410.665C626.139 413.422 639.149 420.938 645.415 424.551C646.159 424.984 646.639 425.772 646.671 426.635C646.674 426.71 646.674 426.786 646.67 426.86C646.664 427.84 646.643 431.694 646.672 432.448C646.706 433.312 646.294 434.134 645.582 434.624L568.259 488.154L768.724 603.65C769.388 603.997 770.009 604.414 770.597 604.889C797.779 616.537 802.342 643.964 802.342 646.705C802.342 655.084 796.448 665.283 789.197 669.471C787.629 670.375 764.393 680.865 736.542 662.006C736.433 661.94 736.306 661.882 736.191 661.818C735.759 661.568 735.351 661.289 734.952 660.981L505.046 528.198L403.494 574.358C400.965 575.507 398.037 575.365 395.631 573.976L371.739 560.182C371.579 560.09 371.446 559.961 371.35 559.81L371.173 559.854V559.235V554.115C371.172 554.102 371.171 554.089 371.171 554.076C371.17 554.04 371.171 554.003 371.173 553.967C371.195 553.615 371.381 553.292 371.677 553.095L453.693 498.54L426.67 482.933C426.647 482.933 426.623 482.933 426.6 482.933L426.541 483.27L426.539 483.269V483.27L401.424 497.77C400.303 498.417 399.014 497.514 399.014 497.514L356.617 473.036L313.71 433.174C306.502 430.029 307.566 413.32 307.566 413.32L276.885 387.058L273.242 405.815L270.692 407.289V407.287L252.217 397.132L250.601 364.559L249.552 363.662L218.17 373.063C217.056 373.398 215.858 373.285 214.826 372.751L197.664 363.852V362.447ZM273.222 326.768L273.223 326.767L257.153 280.704C256.919 280.032 256.452 279.465 255.837 279.106L253.418 277.697L255.835 279.107C256.451 279.466 256.918 280.032 257.152 280.705L273.222 326.768Z" fill="black"/>
<defs>
<linearGradient id="paint0_linear_5315_5500" x1="403.158" y1="497.263" x2="426.984" y2="483.059" gradientUnits="userSpaceOnUse">
<stop offset="0.0190594" stop-color="#020202" stop-opacity="0.3"/>
<stop offset="1" stop-color="#020202"/>
</linearGradient>
<linearGradient id="paint1_linear_5315_5500" x1="421.8" y1="481.079" x2="404.514" y2="486.351" gradientUnits="userSpaceOnUse">
<stop offset="0.0190594" stop-color="#020202" stop-opacity="0.9"/>
<stop offset="1" stop-color="#020202" stop-opacity="0.9"/>
</linearGradient>
<linearGradient id="paint2_linear_5315_5500" x1="400.706" y1="496.283" x2="329.101" y2="422.226" gradientUnits="userSpaceOnUse">
<stop offset="0.0190594" stop-color="#020202" stop-opacity="0.2"/>
<stop offset="1" stop-color="#020202"/>
</linearGradient>
<linearGradient id="paint3_linear_5315_5500" x1="407.081" y1="481.077" x2="406.59" y2="452.141" gradientUnits="userSpaceOnUse">
<stop offset="0.0190594" stop-color="#020202" stop-opacity="0.2"/>
<stop offset="1" stop-color="#020202"/>
</linearGradient>
<linearGradient id="paint4_linear_5315_5500" x1="271.234" y1="406.532" x2="276.138" y2="386.914" gradientUnits="userSpaceOnUse">
<stop stop-color="#020202" stop-opacity="0.3"/>
<stop offset="1" stop-color="#020202"/>
</linearGradient>
<linearGradient id="paint5_linear_5315_5500" x1="268.778" y1="406.041" x2="266.817" y2="368.767" gradientUnits="userSpaceOnUse">
<stop stop-color="#020202" stop-opacity="0"/>
<stop offset="1" stop-color="#020202"/>
</linearGradient>
<linearGradient id="paint6_linear_5315_5500" x1="314.879" y1="328.06" x2="292.318" y2="340.321" gradientUnits="userSpaceOnUse">
<stop stop-color="#020202" stop-opacity="0.5"/>
<stop offset="1" stop-color="#020202"/>
</linearGradient>
<linearGradient id="paint7_linear_5315_5500" x1="304.178" y1="314.48" x2="283.538" y2="340.646" gradientUnits="userSpaceOnUse">
<stop stop-color="#020202" stop-opacity="0"/>
<stop offset="1" stop-color="#020202"/>
</linearGradient>
<linearGradient id="paint8_linear_5315_5500" x1="563.543" y1="483.679" x2="644.957" y2="437.086" gradientUnits="userSpaceOnUse">
<stop stop-color="#020202" stop-opacity="0.5"/>
<stop offset="1" stop-color="#020202"/>
</linearGradient>
<linearGradient id="paint9_linear_5315_5500" x1="619.451" y1="413.544" x2="561.088" y2="480.245" gradientUnits="userSpaceOnUse">
<stop stop-color="#020202" stop-opacity="0"/>
<stop offset="1" stop-color="#020202"/>
</linearGradient>
<linearGradient id="paint10_linear_5315_5500" x1="513.022" y1="458.028" x2="482.615" y2="515.41" gradientUnits="userSpaceOnUse">
<stop stop-color="#020202" stop-opacity="0"/>
<stop offset="1" stop-color="#020202"/>
</linearGradient>
<linearGradient id="paint11_linear_5315_5500" x1="213.914" y1="372.304" x2="205.005" y2="360.157" gradientUnits="userSpaceOnUse">
<stop stop-color="#020202" stop-opacity="0.5"/>
<stop offset="1" stop-color="#020202"/>
</linearGradient>
<linearGradient id="paint12_linear_5315_5500" x1="218.22" y1="371.924" x2="258.092" y2="361.683" gradientUnits="userSpaceOnUse">
<stop stop-color="#020202" stop-opacity="0.5"/>
<stop offset="1" stop-color="#020202"/>
</linearGradient>
<linearGradient id="paint13_linear_5315_5500" x1="214.902" y1="372.122" x2="218.239" y2="372.122" gradientUnits="userSpaceOnUse">
<stop stop-color="#020202" stop-opacity="0.5"/>
<stop offset="0.5" stop-color="#020202" stop-opacity="0.25"/>
<stop offset="1" stop-color="#020202" stop-opacity="0.5"/>
</linearGradient>
<linearGradient id="paint14_linear_5315_5500" x1="201.735" y1="364.104" x2="257.161" y2="350.331" gradientUnits="userSpaceOnUse">
<stop stop-color="#020202" stop-opacity="0"/>
<stop offset="1" stop-color="#020202"/>
</linearGradient>
<linearGradient id="paint15_linear_5315_5500" x1="380.601" y1="548.27" x2="511.55" y2="521.786" gradientUnits="userSpaceOnUse">
<stop stop-color="#020202" stop-opacity="0"/>
<stop offset="1" stop-color="#020202"/>
</linearGradient>
<linearGradient id="paint16_linear_5315_5500" x1="403.629" y1="570.313" x2="486.298" y2="500.103" gradientUnits="userSpaceOnUse">
<stop stop-color="#020202" stop-opacity="0.5"/>
<stop offset="1" stop-color="#020202"/>
</linearGradient>
<linearGradient id="paint17_linear_5315_5500" x1="394.332" y1="573.282" x2="376.192" y2="555.13" gradientUnits="userSpaceOnUse">
<stop stop-color="#020202" stop-opacity="0.5"/>
<stop offset="1" stop-color="#020202"/>
</linearGradient>
<linearGradient id="paint18_linear_5315_5500" x1="395.807" y1="571.81" x2="403.621" y2="572.319" gradientUnits="userSpaceOnUse">
<stop stop-color="#020202" stop-opacity="0.5"/>
<stop offset="0.5" stop-color="#020202" stop-opacity="0.25"/>
<stop offset="1" stop-color="#020202" stop-opacity="0.5"/>
</linearGradient>
<linearGradient id="paint19_linear_5315_5500" x1="241.806" y1="270.678" x2="278.099" y2="338.85" gradientUnits="userSpaceOnUse">
<stop stop-color="#020202" stop-opacity="0.3"/>
<stop offset="1" stop-color="#020202"/>
</linearGradient>
<linearGradient id="paint20_linear_5315_5500" x1="240.827" y1="271.66" x2="268.292" y2="336.889" gradientUnits="userSpaceOnUse">
<stop stop-color="#020202" stop-opacity="0"/>
<stop offset="1" stop-color="#020202"/>
</linearGradient>
</defs>
</svg>
