<svg width="1000" height="1000" viewBox="0 0 1000 1000" fill="none" xmlns="http://www.w3.org/2000/svg">
<path fill-rule="evenodd" clip-rule="evenodd" d="M650.323 4.98446C662.053 -1.8547 676.343 -1.53785 687.595 5.20937L697.872 11.1388C701.465 11.9306 704.967 13.2679 708.249 15.156L708.963 15.5672C720.319 22.1009 727.32 34.2042 727.32 47.3062V83.8095C727.32 91.3981 724.97 98.6522 720.787 104.683L847.101 177.614L847.621 177.92C850.204 179.468 852.586 181.329 854.714 183.462L854.734 183.482C861.988 190.753 865.708 200.559 865.412 210.448L865.429 216.238C865.441 220.528 864.699 224.786 863.237 228.819L825.086 334.069V534.561C832.562 541.415 836.957 551.17 836.957 561.551V678.194C836.957 691.275 829.978 703.364 818.65 709.905L684.096 787.593C674.147 793.337 662.171 794.036 651.727 789.691C650.265 800.902 643.673 810.919 633.728 816.661L396.782 953.457C387.974 958.725 379.609 958.718 377.618 958.718C371.182 958.718 366.025 957.008 364.841 956.628C362.65 955.926 360.639 955.12 359.08 954.456C355.901 953.105 352.369 951.392 348.861 949.609C341.731 945.985 332.639 941.016 322.55 935.333C302.267 923.908 276.519 908.789 251.365 893.81C226.159 878.8 201.336 863.803 182.829 852.569C173.572 846.949 165.886 842.265 160.512 838.984C157.824 837.343 155.714 836.053 154.274 835.172C153.554 834.731 153.001 834.393 152.627 834.164C152.44 834.05 152.297 833.963 152.202 833.904C152.154 833.875 152.117 833.853 152.092 833.838C152.08 833.83 152.071 833.824 152.064 833.82C152.061 833.818 152.057 833.815 152.057 833.815C152.06 833.805 152.054 833.813 152.054 833.813C141.194 827.156 134.574 815.333 134.574 802.596C134.574 756.808 150.404 708.598 174.246 667.306C198.087 626.016 231.922 588.207 271.569 565.312C294.736 551.928 319.009 544.199 342.86 544.192H342.92C359.702 544.199 375.994 548.062 390.63 556.166L392.043 556.964L392.052 556.97L413.093 569.113C416.958 570.942 420.117 572.862 422.605 574.602L450.194 590.526C454.095 592.37 457.281 594.309 459.793 596.071L487.304 611.952C489.564 613.018 491.589 614.119 493.386 615.203V560.837C493.386 549.89 498.274 539.64 506.507 532.752V334.127L468.356 228.877C466.802 224.589 466.094 220.166 466.166 215.81L466.18 210.693C466.149 209.856 466.146 209.016 466.173 208.172C466.579 195.514 473.496 183.965 484.464 177.633L610.865 104.657C606.718 98.6431 604.391 91.4218 604.391 83.8688V47.3551C604.391 33.6184 611.956 21.6501 623.147 15.3847C629.252 11.7883 636.143 10.1068 642.984 10.3408C645.191 8.26688 647.655 6.46413 650.323 4.98446Z" fill="black"/>
<path fill-rule="evenodd" clip-rule="evenodd" d="M378.039 922.223C366.354 930.484 171.203 802.805 171.203 802.805C171.203 727.113 224.343 635.073 289.894 597.225C322.647 578.317 352.3 576.514 373.775 588.886L580.526 708.253C559.057 695.936 529.439 697.759 496.731 716.643C431.179 754.49 378.039 846.53 378.039 922.223Z" fill="#FF0000"/>
<path fill-rule="evenodd" clip-rule="evenodd" d="M378.039 922.223C366.354 930.484 171.203 802.805 171.203 802.805C171.203 727.113 224.343 635.073 289.894 597.225C322.647 578.317 352.3 576.514 373.775 588.886L580.526 708.253C559.057 695.936 529.439 697.759 496.731 716.643C431.179 754.49 378.039 846.53 378.039 922.223Z" fill="url(#paint0_linear_5315_11419)" fill-opacity="0.2"/>
<path fill-rule="evenodd" clip-rule="evenodd" d="M541.9 686.51C548.499 688.744 551.526 691.643 551.526 691.643C548.499 689.63 545.287 687.915 541.9 686.51ZM541.9 686.51C540.418 686.008 538.76 685.539 536.907 685.147C523.442 682.267 500.062 683.314 464.381 703.915C401.995 739.933 350.733 840.279 350.733 912.307L347.261 910.503C347.261 834.81 398.938 735.872 464.484 698.029C494.03 680.97 521.228 677.943 541.9 686.51ZM504.798 665.085C503.315 664.584 501.648 664.12 499.805 663.723C486.329 660.848 462.96 661.89 427.269 682.497C364.893 718.509 313.628 819.659 313.628 891.688L310.155 889.656C310.155 813.962 361.825 714.452 427.382 676.603C456.928 659.545 484.116 656.524 504.798 665.085ZM504.798 665.085C511.397 667.32 514.413 670.223 514.413 670.223C511.397 668.206 508.185 666.489 504.798 665.085ZM467.686 643.666C474.284 645.9 477.311 648.799 477.311 648.799C474.295 646.781 471.072 645.071 467.686 643.666ZM467.686 643.666C466.203 643.166 464.546 642.695 462.703 642.299C449.227 639.423 425.848 640.472 390.167 661.072C327.787 697.087 276.523 797.434 276.523 869.461L273.05 867.658C273.05 791.966 324.724 693.028 390.28 655.179C419.826 638.121 447.014 635.1 467.686 643.666ZM430.584 622.242C429.101 621.741 427.444 621.271 425.591 620.879C412.125 617.999 388.746 619.046 353.059 639.65C290.682 675.664 239.417 774.422 239.417 846.449L235.945 844.266C235.945 768.574 287.619 671.605 353.171 633.759C382.713 616.703 409.912 613.676 430.584 622.242ZM430.584 622.242C437.182 624.476 440.209 627.375 440.209 627.375C437.182 625.363 433.971 623.647 430.584 622.242ZM393.481 600.817C400.07 603.058 403.097 605.955 403.097 605.955C400.08 603.939 396.868 602.222 393.481 600.817ZM393.481 600.817C391.999 600.317 390.331 599.852 388.489 599.455C375.013 596.58 351.641 597.624 315.954 618.228C253.577 654.241 202.312 750.876 202.312 822.905L198.84 820.678C198.84 744.986 250.513 650.182 316.064 612.336C345.609 595.278 372.799 592.257 393.481 600.817Z" fill="#FF0000"/>
<path fill-rule="evenodd" clip-rule="evenodd" d="M541.9 686.51C548.499 688.744 551.526 691.643 551.526 691.643C548.499 689.63 545.287 687.915 541.9 686.51ZM541.9 686.51C540.418 686.008 538.76 685.539 536.907 685.147C523.442 682.267 500.062 683.314 464.381 703.915C401.995 739.933 350.733 840.279 350.733 912.307L347.261 910.503C347.261 834.81 398.938 735.872 464.484 698.029C494.03 680.97 521.228 677.943 541.9 686.51ZM504.798 665.085C503.315 664.584 501.648 664.12 499.805 663.723C486.329 660.848 462.96 661.89 427.269 682.497C364.893 718.509 313.628 819.659 313.628 891.688L310.155 889.656C310.155 813.962 361.825 714.452 427.382 676.603C456.928 659.545 484.116 656.524 504.798 665.085ZM504.798 665.085C511.397 667.32 514.413 670.223 514.413 670.223C511.397 668.206 508.185 666.489 504.798 665.085ZM467.686 643.666C474.284 645.9 477.311 648.799 477.311 648.799C474.295 646.781 471.072 645.071 467.686 643.666ZM467.686 643.666C466.203 643.166 464.546 642.695 462.703 642.299C449.227 639.423 425.848 640.472 390.167 661.072C327.787 697.087 276.523 797.434 276.523 869.461L273.05 867.658C273.05 791.966 324.724 693.028 390.28 655.179C419.826 638.121 447.014 635.1 467.686 643.666ZM430.584 622.242C429.101 621.741 427.444 621.271 425.591 620.879C412.125 617.999 388.746 619.046 353.059 639.65C290.682 675.664 239.417 774.422 239.417 846.449L235.945 844.266C235.945 768.574 287.619 671.605 353.171 633.759C382.713 616.703 409.912 613.676 430.584 622.242ZM430.584 622.242C437.182 624.476 440.209 627.375 440.209 627.375C437.182 625.363 433.971 623.647 430.584 622.242ZM393.481 600.817C400.07 603.058 403.097 605.955 403.097 605.955C400.08 603.939 396.868 602.222 393.481 600.817ZM393.481 600.817C391.999 600.317 390.331 599.852 388.489 599.455C375.013 596.58 351.641 597.624 315.954 618.228C253.577 654.241 202.312 750.876 202.312 822.905L198.84 820.678C198.84 744.986 250.513 650.182 316.064 612.336C345.609 595.278 372.799 592.257 393.481 600.817Z" fill="url(#paint1_linear_5315_11419)" fill-opacity="0.2"/>
<path fill-rule="evenodd" clip-rule="evenodd" d="M383.783 918.904L378.039 922.22C378.039 846.528 431.18 754.487 496.727 716.644C562.283 678.795 615.424 709.474 615.424 785.166L609.68 788.482C609.68 716.455 559.112 687.261 496.727 723.279C434.351 759.292 383.783 846.877 383.783 918.904Z" fill="#FF0000"/>
<path fill-rule="evenodd" clip-rule="evenodd" d="M383.783 918.904L378.039 922.22C378.039 846.528 431.18 754.487 496.727 716.644C562.283 678.795 615.424 709.474 615.424 785.166L609.68 788.482C609.68 716.455 559.112 687.261 496.727 723.279C434.351 759.292 383.783 846.877 383.783 918.904Z" fill="black" fill-opacity="0.1"/>
<path fill-rule="evenodd" clip-rule="evenodd" d="M609.678 788.486L496.727 853.699L383.785 918.906C383.785 846.878 434.354 759.292 496.727 723.281C559.11 687.264 609.678 716.459 609.678 788.486Z" fill="#FF0000"/>
<path d="M515.885 768.163L477.711 790.203V864.67L515.885 842.63V768.163Z" fill="#FF0000"/>
<path d="M515.885 768.163L477.711 790.203V864.67L515.885 842.63V768.163Z" fill="black" fill-opacity="0.2"/>
<path d="M515.885 768.163L477.711 790.203V815.785L515.885 793.746V768.163Z" fill="#00FF00"/>
<path d="M520.061 765.753L515.816 768.203V842.67L520.061 840.219V765.753Z" fill="#FF0000"/>
<path d="M520.061 765.753L515.816 768.203V842.67L520.061 840.219V765.753Z" fill="black" fill-opacity="0.3"/>
<path d="M464.134 798.054L446.035 808.504V842.847L464.134 832.398V798.054Z" fill="#00FF00"/>
<path fill-rule="evenodd" clip-rule="evenodd" d="M464.133 798.055L465.717 797.14V831.483L464.133 830.572V798.055Z" fill="#FF0000"/>
<path fill-rule="evenodd" clip-rule="evenodd" d="M464.133 798.055L465.717 797.14V831.483L464.133 830.572V798.055Z" fill="black" fill-opacity="0.3"/>
<path fill-rule="evenodd" clip-rule="evenodd" d="M548.324 749.441L549.908 748.527V782.87L548.324 781.959V749.441Z" fill="#FF0000"/>
<path fill-rule="evenodd" clip-rule="evenodd" d="M548.324 749.441L549.908 748.527V782.87L548.324 781.959V749.441Z" fill="black" fill-opacity="0.3"/>
<path d="M548.31 749.449L530.211 759.898V794.242L548.31 783.792V749.449Z" fill="#00FF00"/>
<path d="M665.805 257.021L543.137 327.844L665.805 398.666L788.473 327.843L665.805 257.021Z" fill="#00FF00"/>
<path fill-rule="evenodd" clip-rule="evenodd" d="M530.016 561.039L543.136 553.464L543.136 558.862L665.804 629.685L665.805 639.437L530.016 561.039Z" fill="#FF0000"/>
<path fill-rule="evenodd" clip-rule="evenodd" d="M530.016 561.039L543.136 553.464L543.136 558.862L665.804 629.685L665.805 639.437L530.016 561.039Z" fill="black" fill-opacity="0.3"/>
<path fill-rule="evenodd" clip-rule="evenodd" d="M800.348 561.754L787.227 554.179L787.228 559.577L665.797 629.685L665.797 639.436L800.348 561.754Z" fill="#FF0000"/>
<path fill-rule="evenodd" clip-rule="evenodd" d="M800.348 561.754L787.227 554.179L787.228 559.577L665.797 629.685L665.797 639.436L800.348 561.754Z" fill="black" fill-opacity="0.1"/>
<path d="M788.469 327.849L665.801 398.672V629.691L788.469 558.868V327.849Z" fill="#FF0000"/>
<path d="M800.355 561.751L665.805 639.434V756.08L800.355 678.398V561.751Z" fill="#FF0000"/>
<path d="M665.801 398.67L543.133 327.848V558.867L665.801 629.689V398.67Z" fill="#FF0000"/>
<path d="M665.801 398.67L543.133 327.848V558.867L665.801 629.689V398.67Z" fill="black" fill-opacity="0.2"/>
<path d="M665.804 639.437L530.016 561.039V677.686L665.804 756.083V639.437Z" fill="#FF0000"/>
<path d="M665.804 639.437L530.016 561.039V677.686L665.804 756.083V639.437Z" fill="black" fill-opacity="0.2"/>
<path opacity="0.2" fill-rule="evenodd" clip-rule="evenodd" d="M543.134 327.897L502.793 216.598L665.798 310.709L665.802 398.72L543.134 327.897Z" fill="#00FF00"/>
<path opacity="0.2" fill-rule="evenodd" clip-rule="evenodd" d="M788.467 327.843L828.809 216.543L665.803 310.654L665.799 398.665L788.467 327.843Z" fill="#00FF00"/>
<path d="M665.798 115.422L502.789 209.535L665.797 303.648L828.806 209.535L665.798 115.422Z" fill="#FF0000"/>
<path fill-rule="evenodd" clip-rule="evenodd" d="M828.786 209.52L828.81 216.537L665.801 310.65L502.796 216.539L502.815 209.52L665.801 303.619L828.786 209.52Z" fill="#00FF00"/>
<path fill-rule="evenodd" clip-rule="evenodd" d="M828.786 209.52L828.81 216.537L665.801 310.65L502.796 216.539L502.815 209.52L665.801 303.619L828.786 209.52Z" fill="black" fill-opacity="0.2"/>
<path d="M665.797 153.879L588.781 198.344L665.796 242.809L742.812 198.344L665.797 153.879Z" fill="#FF0000"/>
<path fill-rule="evenodd" clip-rule="evenodd" d="M742.803 198.338L742.814 201.653L665.799 246.118L665.799 242.796L742.803 198.338Z" fill="#FF0000"/>
<path fill-rule="evenodd" clip-rule="evenodd" d="M742.803 198.338L742.814 201.653L665.799 246.118L665.799 242.796L742.803 198.338Z" fill="black" fill-opacity="0.1"/>
<path fill-rule="evenodd" clip-rule="evenodd" d="M665.799 242.798L665.799 246.119L588.786 201.656L588.795 198.339L665.799 242.798Z" fill="#FF0000"/>
<path fill-rule="evenodd" clip-rule="evenodd" d="M665.799 242.798L665.799 246.119L588.786 201.656L588.795 198.339L665.799 242.798Z" fill="black" fill-opacity="0.2"/>
<path d="M668.065 37.2089L683.305 46.0078V82.0916L668.065 73.2927V37.2089Z" fill="#FF0000"/>
<path fill-rule="evenodd" clip-rule="evenodd" d="M683.306 46.0154L684.016 45.5977L668.778 36.7999L668.068 37.2177L683.306 46.0154Z" fill="#FF0000"/>
<path fill-rule="evenodd" clip-rule="evenodd" d="M683.306 46.0154L684.016 45.5977L668.778 36.7999L668.068 37.2177L683.306 46.0154Z" fill="black" fill-opacity="0.3"/>
<path fill-rule="evenodd" clip-rule="evenodd" d="M683.306 82.0969L684.016 81.681V45.5977L683.306 46.0154V82.0969Z" fill="#FF0000"/>
<path fill-rule="evenodd" clip-rule="evenodd" d="M683.306 82.0969L684.016 81.681V45.5977L683.306 46.0154V82.0969Z" fill="black" fill-opacity="0.2"/>
<path fill-rule="evenodd" clip-rule="evenodd" d="M677.985 195.305V198.645H677.971C678.134 200.562 676.951 202.511 674.419 203.973C669.662 206.718 661.939 206.718 657.184 203.973C654.806 202.599 653.617 200.799 653.617 198.997V195.305C653.617 197.106 654.806 198.907 657.184 200.279C661.939 203.026 669.662 203.026 674.419 200.279C676.796 198.907 677.985 197.106 677.985 195.305Z" fill="#00FF00"/>
<path fill-rule="evenodd" clip-rule="evenodd" d="M677.985 195.305V198.645H677.971C678.134 200.562 676.951 202.511 674.419 203.973C669.662 206.718 661.939 206.718 657.184 203.973C654.806 202.599 653.617 200.799 653.617 198.997V195.305C653.617 197.106 654.806 198.907 657.184 200.279C661.939 203.026 669.662 203.026 674.419 200.279C676.796 198.907 677.985 197.106 677.985 195.305Z" fill="url(#paint2_linear_5315_11419)" fill-opacity="0.2"/>
<path d="M674.418 200.279C679.177 197.531 679.177 193.076 674.419 190.329C669.66 187.581 661.944 187.581 657.184 190.329C652.425 193.077 652.424 197.532 657.183 200.28C661.942 203.027 669.658 203.027 674.418 200.279Z" fill="#00FF00"/>
<path fill-rule="evenodd" clip-rule="evenodd" d="M667.73 51.6761L673.665 48.2367C673.92 48.0546 674.292 48.0611 674.705 48.3001C675.476 48.7457 676.102 49.8304 676.102 50.7199C676.102 51.198 675.922 51.5216 675.637 51.6533L669.734 55.0602L669.723 55.0424C669.889 54.8733 669.986 54.6033 669.986 54.2521C669.986 53.3609 669.36 52.2762 668.589 51.8322C668.266 51.6452 667.968 51.5997 667.73 51.6761Z" fill="#00FF00"/>
<path fill-rule="evenodd" clip-rule="evenodd" d="M667.73 51.6761L673.665 48.2367C673.92 48.0546 674.292 48.0611 674.705 48.3001C675.476 48.7457 676.102 49.8304 676.102 50.7199C676.102 51.198 675.922 51.5216 675.637 51.6533L669.734 55.0602L669.723 55.0424C669.889 54.8733 669.986 54.6033 669.986 54.2521C669.986 53.3609 669.36 52.2762 668.589 51.8322C668.266 51.6452 667.968 51.5997 667.73 51.6761Z" fill="url(#paint3_linear_5315_11419)" fill-opacity="0.2"/>
<path fill-rule="evenodd" clip-rule="evenodd" d="M674.754 136.434V194.263H674.744C674.864 195.694 673.994 197.148 672.134 198.239C668.638 200.287 662.963 200.287 659.469 198.239C657.721 197.214 656.848 195.87 656.848 194.526V136.434C656.848 137.778 657.721 139.122 659.469 140.146C662.963 142.195 668.638 142.195 672.134 140.146C673.881 139.122 674.754 137.778 674.754 136.434Z" fill="#00FF00"/>
<path fill-rule="evenodd" clip-rule="evenodd" d="M674.754 136.434V194.263H674.744C674.864 195.694 673.994 197.148 672.134 198.239C668.638 200.287 662.963 200.287 659.469 198.239C657.721 197.214 656.848 195.87 656.848 194.526V136.434C656.848 137.778 657.721 139.122 659.469 140.146C662.963 142.195 668.638 142.195 672.134 140.146C673.881 139.122 674.754 137.778 674.754 136.434Z" fill="url(#paint4_linear_5315_11419)" fill-opacity="0.2"/>
<path d="M672.133 140.146C675.631 138.095 675.631 134.771 672.134 132.72C668.637 130.67 662.967 130.67 659.469 132.721C655.972 134.771 655.972 138.096 659.469 140.146C662.966 142.196 668.636 142.196 672.133 140.146Z" fill="#00FF00"/>
<path d="M672.133 140.146C675.631 138.095 675.631 134.771 672.134 132.72C668.637 130.67 662.967 130.67 659.469 132.721C655.972 134.771 655.972 138.096 659.469 140.146C662.966 142.196 668.636 142.196 672.133 140.146Z" fill="black" fill-opacity="0.1"/>
<path fill-rule="evenodd" clip-rule="evenodd" d="M672.132 45.0391V136.436C672.132 137.371 671.515 138.306 670.278 139.02C667.808 140.446 663.796 140.446 661.325 139.02C660.09 138.306 659.473 137.371 659.473 136.436V45.0391C659.473 45.9743 660.09 46.9109 661.325 47.6242C663.796 49.0509 667.808 49.0509 670.278 47.6242C671.515 46.9109 672.132 45.9743 672.132 45.0391Z" fill="#00FF00"/>
<path fill-rule="evenodd" clip-rule="evenodd" d="M672.132 45.0391V136.436C672.132 137.371 671.515 138.306 670.278 139.02C667.808 140.446 663.796 140.446 661.325 139.02C660.09 138.306 659.473 137.371 659.473 136.436V45.0391C659.473 45.9743 660.09 46.9109 661.325 47.6242C663.796 49.0509 667.808 49.0509 670.278 47.6242C671.515 46.9109 672.132 45.9743 672.132 45.0391Z" fill="url(#paint5_linear_5315_11419)" fill-opacity="0.2"/>
<path d="M670.279 47.6251C672.751 46.1978 672.75 43.8834 670.277 42.4557C667.805 41.0279 663.796 41.0275 661.324 42.4548C658.852 43.882 658.852 46.1965 661.325 47.6242C663.798 49.0519 667.807 49.0523 670.279 47.6251Z" fill="#00FF00"/>
<path d="M670.279 47.6251C672.751 46.1978 672.75 43.8834 670.277 42.4557C667.805 41.0279 663.796 41.0275 661.324 42.4548C658.852 43.882 658.852 46.1965 661.325 47.6242C663.798 49.0519 667.807 49.0523 670.279 47.6251Z" fill="black" fill-opacity="0.1"/>
<path fill-rule="evenodd" clip-rule="evenodd" d="M543.134 327.847L502.793 216.547L507.917 219.506L546.644 329.873L543.134 327.847Z" fill="#00FF00"/>
<path fill-rule="evenodd" clip-rule="evenodd" d="M543.134 327.847L502.793 216.547L507.917 219.506L546.644 329.873L543.134 327.847Z" fill="black" fill-opacity="0.2"/>
<path fill-rule="evenodd" clip-rule="evenodd" d="M574.747 346.088L560.855 250.059L565.98 253.018L579.911 349.069L574.747 346.088Z" fill="#00FF00"/>
<path fill-rule="evenodd" clip-rule="evenodd" d="M574.747 346.088L560.855 250.059L565.98 253.018L579.911 349.069L574.747 346.088Z" fill="black" fill-opacity="0.2"/>
<path fill-rule="evenodd" clip-rule="evenodd" d="M619.45 371.897L611.023 279.023L616.146 281.981L624.612 374.878L619.45 371.897Z" fill="#00FF00"/>
<path fill-rule="evenodd" clip-rule="evenodd" d="M619.45 371.897L611.023 279.023L616.146 281.981L624.612 374.878L619.45 371.897Z" fill="black" fill-opacity="0.2"/>
<path fill-rule="evenodd" clip-rule="evenodd" d="M788.467 327.843L828.809 216.543L823.685 219.502L784.958 329.869L788.467 327.843Z" fill="#00FF00"/>
<path fill-rule="evenodd" clip-rule="evenodd" d="M788.467 327.843L828.809 216.543L823.685 219.502L784.958 329.869L788.467 327.843Z" fill="black" fill-opacity="0.2"/>
<path fill-rule="evenodd" clip-rule="evenodd" d="M756.855 346.1L770.746 250.07L765.622 253.029L751.691 349.081L756.855 346.1Z" fill="#00FF00"/>
<path fill-rule="evenodd" clip-rule="evenodd" d="M756.855 346.1L770.746 250.07L765.622 253.029L751.691 349.081L756.855 346.1Z" fill="black" fill-opacity="0.2"/>
<path fill-rule="evenodd" clip-rule="evenodd" d="M712.152 371.909L720.578 279.035L715.455 281.993L706.989 374.89L712.152 371.909Z" fill="#00FF00"/>
<path fill-rule="evenodd" clip-rule="evenodd" d="M712.152 371.909L720.578 279.035L715.455 281.993L706.989 374.89L712.152 371.909Z" fill="black" fill-opacity="0.2"/>
<path d="M665.797 310.658L662.113 308.531V396.539L665.797 398.666V310.658Z" fill="#00FF00"/>
<path d="M665.797 310.658L662.113 308.531V396.539L665.797 398.666V310.658Z" fill="black" fill-opacity="0.2"/>
<path d="M669.484 308.53L665.801 310.656V398.664L669.484 396.538V308.53Z" fill="#00FF00"/>
<path d="M669.484 308.53L665.801 310.656V398.664L669.484 396.538V308.53Z" fill="black" fill-opacity="0.2"/>
<path d="M741.535 392.972L721.84 404.344V442.548L741.535 431.177V392.972Z" fill="#00FF00"/>
<path fill-rule="evenodd" clip-rule="evenodd" d="M739.953 393.883L741.613 393.008V431.129L739.953 430.268V393.883Z" fill="#FF0000"/>
<path fill-rule="evenodd" clip-rule="evenodd" d="M739.953 393.883L741.613 393.008V431.129L739.953 430.268V393.883Z" fill="black" fill-opacity="0.3"/>
<path d="M741.535 465.488L721.84 476.859V515.064L741.535 503.692V465.488Z" fill="#00FF00"/>
<path fill-rule="evenodd" clip-rule="evenodd" d="M739.953 466.402L741.537 465.488V503.692L739.953 502.872V466.402Z" fill="#FF0000"/>
<path fill-rule="evenodd" clip-rule="evenodd" d="M739.953 466.402L741.537 465.488V503.692L739.953 502.872V466.402Z" fill="black" fill-opacity="0.3"/>
<path d="M741.535 523.785L721.84 535.156V573.36L741.535 561.989V523.785Z" fill="#00FF00"/>
<path fill-rule="evenodd" clip-rule="evenodd" d="M739.953 561.074L741.537 561.989L721.839 573.362L721.836 571.534L739.953 561.074Z" fill="#FF0000"/>
<path fill-rule="evenodd" clip-rule="evenodd" d="M739.953 561.074L741.537 561.989L721.839 573.362L721.836 571.534L739.953 561.074Z" fill="black" fill-opacity="0.1"/>
<path fill-rule="evenodd" clip-rule="evenodd" d="M739.953 524.699L741.537 523.785V561.988L739.953 561.08V524.699Z" fill="#FF0000"/>
<path fill-rule="evenodd" clip-rule="evenodd" d="M739.953 524.699L741.537 523.785V561.988L739.953 561.08V524.699Z" fill="black" fill-opacity="0.3"/>
<path fill-rule="evenodd" clip-rule="evenodd" d="M739.877 502.821L741.537 503.692L721.763 515.108L721.76 513.281L739.877 502.821Z" fill="#FF0000"/>
<path fill-rule="evenodd" clip-rule="evenodd" d="M739.877 502.821L741.537 503.692L721.763 515.108L721.76 513.281L739.877 502.821Z" fill="black" fill-opacity="0.1"/>
<path fill-rule="evenodd" clip-rule="evenodd" d="M739.955 430.259L741.615 431.129L721.841 442.546L721.838 440.719L739.955 430.259Z" fill="#FF0000"/>
<path fill-rule="evenodd" clip-rule="evenodd" d="M739.955 430.259L741.615 431.129L721.841 442.546L721.838 440.719L739.955 430.259Z" fill="black" fill-opacity="0.1"/>
<path d="M590.953 392.972L610.648 404.344V442.548L590.953 431.177V392.972Z" fill="#00FF00"/>
<path fill-rule="evenodd" clip-rule="evenodd" d="M592.535 393.883L590.875 393.008V431.129L592.535 430.268V393.883Z" fill="#FF0000"/>
<path fill-rule="evenodd" clip-rule="evenodd" d="M592.535 393.883L590.875 393.008V431.129L592.535 430.268V393.883Z" fill="black" fill-opacity="0.3"/>
<path d="M590.953 465.492L610.648 476.863V515.067L590.953 503.696V465.492Z" fill="#00FF00"/>
<path fill-rule="evenodd" clip-rule="evenodd" d="M592.535 466.402L590.951 465.488V503.692L592.535 502.872V466.402Z" fill="#FF0000"/>
<path fill-rule="evenodd" clip-rule="evenodd" d="M592.535 466.402L590.951 465.488V503.692L592.535 502.872V466.402Z" fill="black" fill-opacity="0.3"/>
<path d="M590.953 523.785L610.648 535.156V573.36L590.953 561.989V523.785Z" fill="#00FF00"/>
<path fill-rule="evenodd" clip-rule="evenodd" d="M592.535 561.074L590.951 561.989L610.65 573.362L610.653 571.534L592.535 561.074Z" fill="#FF0000"/>
<path fill-rule="evenodd" clip-rule="evenodd" d="M592.535 561.074L590.951 561.989L610.65 573.362L610.653 571.534L592.535 561.074Z" fill="black" fill-opacity="0.1"/>
<path fill-rule="evenodd" clip-rule="evenodd" d="M592.535 524.699L590.951 523.785V561.988L592.535 561.08V524.699Z" fill="#FF0000"/>
<path fill-rule="evenodd" clip-rule="evenodd" d="M592.535 524.699L590.951 523.785V561.988L592.535 561.08V524.699Z" fill="black" fill-opacity="0.3"/>
<path fill-rule="evenodd" clip-rule="evenodd" d="M592.615 502.821L590.955 503.692L610.729 515.108L610.732 513.281L592.615 502.821Z" fill="#FF0000"/>
<path fill-rule="evenodd" clip-rule="evenodd" d="M592.615 502.821L590.955 503.692L610.729 515.108L610.732 513.281L592.615 502.821Z" fill="black" fill-opacity="0.1"/>
<path fill-rule="evenodd" clip-rule="evenodd" d="M592.533 430.259L590.873 431.129L610.647 442.546L610.65 440.719L592.533 430.259Z" fill="#FF0000"/>
<path fill-rule="evenodd" clip-rule="evenodd" d="M592.533 430.259L590.873 431.129L610.647 442.546L610.65 440.719L592.533 430.259Z" fill="black" fill-opacity="0.1"/>
<path d="M760.014 627.23L721.84 649.27V723.736L760.014 701.696V627.23Z" fill="#FF0000"/>
<path d="M760.014 627.23L721.84 649.27V723.736L760.014 701.696V627.23Z" fill="black" fill-opacity="0.2"/>
<path d="M760.014 627.23L721.84 649.27V674.852L760.014 652.812V627.23Z" fill="#00FF00"/>
<path d="M764.189 624.815L759.945 627.266V701.732L764.189 699.282V624.815Z" fill="#FF0000"/>
<path d="M764.189 624.815L759.945 627.266V701.732L764.189 699.282V624.815Z" fill="black" fill-opacity="0.3"/>
<path fill-rule="evenodd" clip-rule="evenodd" d="M654.91 59.098L660.844 55.6586C661.1 55.4764 661.472 55.4829 661.885 55.722C662.656 56.1676 663.282 57.2523 663.282 58.1418C663.282 58.6199 663.101 58.9435 662.817 59.0752L656.914 62.4821L656.902 62.4643C657.068 62.2951 657.166 62.0252 657.166 61.6739C657.166 60.7828 656.54 59.6981 655.769 59.2541C655.445 59.0671 655.148 59.0216 654.91 59.098Z" fill="#00FF00"/>
<path fill-rule="evenodd" clip-rule="evenodd" d="M654.91 59.098L660.844 55.6586C661.1 55.4764 661.472 55.4829 661.885 55.722C662.656 56.1676 663.282 57.2523 663.282 58.1418C663.282 58.6199 663.101 58.9435 662.817 59.0752L656.914 62.4821L656.902 62.4643C657.068 62.2951 657.166 62.0252 657.166 61.6739C657.166 60.7828 656.54 59.6981 655.769 59.2541C655.445 59.0671 655.148 59.0216 654.91 59.098Z" fill="url(#paint6_linear_5315_11419)" fill-opacity="0.2"/>
<path fill-rule="evenodd" clip-rule="evenodd" d="M677.395 59.5312L670.582 55.5844C670.327 55.4022 669.955 55.4087 669.542 55.6478C668.771 56.0934 668.145 57.1781 668.145 58.0676C668.145 58.5457 668.323 58.8709 668.61 59.001L675.391 62.9153L675.402 62.8974C675.236 62.7283 675.139 62.4584 675.139 62.1071C675.139 61.2159 675.765 60.1313 676.536 59.6873C676.859 59.5003 677.157 59.4547 677.395 59.5312Z" fill="#00FF00"/>
<path fill-rule="evenodd" clip-rule="evenodd" d="M677.395 59.5312L670.582 55.5844C670.327 55.4022 669.955 55.4087 669.542 55.6478C668.771 56.0934 668.145 57.1781 668.145 58.0676C668.145 58.5457 668.323 58.8709 668.61 59.001L675.391 62.9153L675.402 62.8974C675.236 62.7283 675.139 62.4584 675.139 62.1071C675.139 61.2159 675.765 60.1313 676.536 59.6873C676.859 59.5003 677.157 59.4547 677.395 59.5312Z" fill="url(#paint7_linear_5315_11419)" fill-opacity="0.2"/>
<path d="M641.022 47.5523L656.445 56.457V92.9747L641.022 84.07V47.5523Z" fill="#FF0000"/>
<path fill-rule="evenodd" clip-rule="evenodd" d="M656.45 56.4657L657.168 56.043L641.747 47.1394L641.028 47.5622L656.45 56.4657Z" fill="#FF0000"/>
<path fill-rule="evenodd" clip-rule="evenodd" d="M656.45 56.4657L657.168 56.043L641.747 47.1394L641.028 47.5622L656.45 56.4657Z" fill="black" fill-opacity="0.3"/>
<path fill-rule="evenodd" clip-rule="evenodd" d="M656.45 92.9812L657.168 92.5602V56.043L656.45 56.4657V92.9812Z" fill="#FF0000"/>
<path fill-rule="evenodd" clip-rule="evenodd" d="M656.45 92.9812L657.168 92.5602V56.043L656.45 56.4657V92.9812Z" fill="black" fill-opacity="0.2"/>
<path d="M690.709 47.5172L675.285 56.4219V92.9396L690.709 84.0349V47.5172Z" fill="#FF0000"/>
<path fill-rule="evenodd" clip-rule="evenodd" d="M675.285 56.4267L674.566 56.0039L689.988 47.1004L690.706 47.5231L675.285 56.4267Z" fill="#FF0000"/>
<path fill-rule="evenodd" clip-rule="evenodd" d="M675.285 56.4267L674.566 56.0039L689.988 47.1004L690.706 47.5231L675.285 56.4267Z" fill="black" fill-opacity="0.2"/>
<path fill-rule="evenodd" clip-rule="evenodd" d="M675.285 92.9421L674.566 92.5212V56.0039L675.285 56.4267V92.9421Z" fill="#FF0000"/>
<path fill-rule="evenodd" clip-rule="evenodd" d="M675.285 92.9421L674.566 92.5212V56.0039L675.285 56.4267V92.9421Z" fill="black" fill-opacity="0.3"/>
<path fill-rule="evenodd" clip-rule="evenodd" d="M548.324 781.957L549.908 782.871L530.21 794.244L530.207 792.417L548.324 781.957Z" fill="#FF0000"/>
<path fill-rule="evenodd" clip-rule="evenodd" d="M548.324 781.957L549.908 782.871L530.21 794.244L530.207 792.417L548.324 781.957Z" fill="black" fill-opacity="0.1"/>
<path fill-rule="evenodd" clip-rule="evenodd" d="M464.152 830.555L465.736 831.469L446.038 842.842L446.035 841.015L464.152 830.555Z" fill="#FF0000"/>
<path fill-rule="evenodd" clip-rule="evenodd" d="M464.152 830.555L465.736 831.469L446.038 842.842L446.035 841.015L464.152 830.555Z" fill="black" fill-opacity="0.1"/>
<path opacity="0.2" d="M668.767 36.6172L668.064 37.0276H668.054V41.4439C667.321 41.2876 666.559 41.1997 665.787 41.1997C664.165 41.1997 662.543 41.5612 661.312 42.2745C660.042 43.0073 659.416 43.9843 659.455 44.9516V56.2466L657.15 57.5852V55.8363L641.731 46.9351L641.018 47.3552H641.008V83.8685L656.436 92.7697L657.15 92.3496V62.1286L659.455 60.7998V118.887L502.772 209.345L502.801 209.364L502.781 216.35L502.801 216.419L502.781 216.399L543.125 327.698V553.265L530.003 560.838V677.481L665.787 755.881L800.34 678.194V561.551L788.469 554.692V327.639L828.812 216.34L828.792 209.345H828.812L828.792 209.325L672.138 118.877V75.4462L674.571 76.8531V92.3007L675.284 92.7208L690.702 83.8099V47.3064L689.989 46.896L684.019 50.3451V45.4206L668.777 36.627L668.767 36.6172ZM342.893 580.809C326.937 580.809 308.93 586.017 289.887 597.019C224.335 634.871 171.191 726.901 171.191 802.595C171.191 802.595 366.137 922.101 377.618 922.101C377.804 922.101 377.941 922.072 378.028 922.004L615.419 784.949C615.419 746.746 601.886 720.013 580.049 707.77L551.059 691.033C550.199 690.339 548.137 688.844 544.737 687.388L513.92 669.596C513.051 668.892 510.989 667.397 507.598 665.951L476.821 648.178C475.951 647.475 473.909 646 470.538 644.553L439.731 626.771C438.871 626.077 436.809 624.582 433.409 623.116L402.582 605.324C401.703 604.62 399.651 603.145 396.3 601.699L373.749 588.684C364.77 583.506 354.354 580.809 342.873 580.809H342.893Z" fill="black"/>
<defs>
<linearGradient id="paint0_linear_5315_11419" x1="440.405" y1="634.8" x2="260.214" y2="860.279" gradientUnits="userSpaceOnUse">
<stop stop-opacity="0"/>
<stop offset="1"/>
</linearGradient>
<linearGradient id="paint1_linear_5315_11419" x1="484.248" y1="673.829" x2="258.287" y2="851.61" gradientUnits="userSpaceOnUse">
<stop stop-opacity="0.6"/>
<stop offset="1"/>
</linearGradient>
<linearGradient id="paint2_linear_5315_11419" x1="677.45" y1="200.193" x2="654.324" y2="201.638" gradientUnits="userSpaceOnUse">
<stop stop-opacity="0.3"/>
<stop offset="1"/>
</linearGradient>
<linearGradient id="paint3_linear_5315_11419" x1="671.605" y1="49.6735" x2="673.427" y2="52.7706" gradientUnits="userSpaceOnUse">
<stop stop-opacity="0"/>
<stop offset="1"/>
</linearGradient>
<linearGradient id="paint4_linear_5315_11419" x1="674.559" y1="138.529" x2="657.215" y2="196.826" gradientUnits="userSpaceOnUse">
<stop stop-opacity="0"/>
<stop offset="1"/>
</linearGradient>
<linearGradient id="paint5_linear_5315_11419" x1="671.993" y1="48.183" x2="629.002" y2="116.255" gradientUnits="userSpaceOnUse">
<stop stop-opacity="0"/>
<stop offset="1"/>
</linearGradient>
<linearGradient id="paint6_linear_5315_11419" x1="658.784" y1="57.0954" x2="660.607" y2="60.1924" gradientUnits="userSpaceOnUse">
<stop stop-opacity="0"/>
<stop offset="1"/>
</linearGradient>
<linearGradient id="paint7_linear_5315_11419" x1="673.114" y1="57.1353" x2="671.187" y2="60.5079" gradientUnits="userSpaceOnUse">
<stop stop-opacity="0"/>
<stop offset="1"/>
</linearGradient>
</defs>
</svg>
