<svg width="128" height="129" viewBox="0 0 128 129" fill="none" xmlns="http://www.w3.org/2000/svg">
<g clip-path="url(#clip0_5027_152591)">
<path d="M111.127 125.557H16.8736C8.90554 125.557 2.38623 119.037 2.38623 111.069V16.8589C2.38623 8.89089 8.90554 2.37158 16.8736 2.37158H111.084C119.052 2.37158 125.571 8.89089 125.571 16.8589V111.069C125.571 119.037 119.052 125.557 111.127 125.557Z" fill="url(#paint0_radial_5027_152591)"/>
<path d="M109.891 0.113281H18.1092C8.09587 0.113281 0 8.20915 0 18.2225V109.748C0 119.762 8.09587 127.858 18.1092 127.858H109.891C119.904 127.858 128 119.762 128 109.748V18.2225C128 8.20915 119.904 0.113281 109.891 0.113281ZM124.293 109.621C124.293 116.95 117.092 124.193 109.72 124.193H19.3875C11.3768 124.193 3.62184 116.438 3.62184 108.428V18.3503C3.62184 11.0214 10.8229 3.77773 18.1944 3.77773H109.72C117.049 3.77773 124.293 10.9788 124.293 18.3503V109.621Z" fill="#7D4919"/>
<path d="M56.16 80.9439H20.8364V18.5205H56.16V27.1277H31.0628V44.129H54.5834V52.6936H31.0202V72.2941H56.1174L56.16 80.9439Z" fill="#7D4919"/>
<path d="M53.7308 77.7912H18.4072V15.3252H53.7308V23.9324H28.6336V40.9337H52.1542V49.4557H28.6336V69.0562H53.7308V77.7912Z" fill="white"/>
</g>
<defs>
<radialGradient id="paint0_radial_5027_152591" cx="0" cy="0" r="1" gradientUnits="userSpaceOnUse" gradientTransform="translate(63.9788 63.9641) scale(61.5925)">
<stop stop-color="#FFB833"/>
<stop offset="1" stop-color="#BD8400"/>
</radialGradient>
<clipPath id="clip0_5027_152591">
<rect width="128" height="128" fill="white" transform="translate(0 0.113281)"/>
</clipPath>
</defs>
</svg>
