<svg width="128" height="129" viewBox="0 0 128 129" fill="none" xmlns="http://www.w3.org/2000/svg">
<g clip-path="url(#clip0_5027_151245)">
<path d="M64 128.113C99.3462 128.113 128 99.4595 128 64.1133C128 28.7671 99.3462 0.113281 64 0.113281C28.6538 0.113281 0 28.7671 0 64.1133C0 99.4595 28.6538 128.113 64 128.113Z" fill="#E21D38"/>
<path d="M62.5298 70.4267C93.9532 73.0213 106.061 81.67 105.485 93.4898C104.908 99.8321 98.8541 105.886 91.0703 106.463C81.8451 107.039 77.5208 103.292 74.9262 99.2555C72.6199 95.5078 70.0253 91.76 67.4307 87.724C66.8541 86.5708 65.7009 87.4357 64.8361 88.0123C62.8181 89.742 61.0883 91.76 59.3586 93.4898C58.2054 94.6429 58.4937 95.5078 58.782 96.3727C60.5118 100.409 62.2415 104.445 63.9712 108.192C66.8541 109.922 79.8271 112.229 89.3406 111.364C95.9712 110.787 104.043 108.192 110.962 103.292C117.593 98.1024 122.494 91.1835 123.359 79.9402C123.647 73.0213 122.494 65.8141 116.44 59.1835C110.386 52.5528 100.007 47.0754 78.9622 45.6339C80.1154 42.1745 80.9802 39.0033 82.1334 35.8321C94.8181 36.4087 106.061 37.2736 115.575 38.4267C116.44 34.679 116.728 31.2195 117.593 27.76L114.998 24.5889C110.097 24.0123 105.485 22.8591 100.296 22.2826C93.6649 21.4177 86.746 20.8411 79.2505 20.5528C74.3496 34.3907 68.5838 51.9763 62.5298 70.4267ZM54.1694 16.5168C51.8631 16.5168 48.6919 17.0934 43.5027 18.2465C32.2595 21.4177 18.4217 29.2015 16.9802 42.1745C16.6919 44.1925 16.6919 46.4988 16.4036 48.5168C13.2325 48.8051 10.3496 49.0934 7.46671 49.3817C7.17843 51.9763 7.17842 54.2826 6.89014 56.8772C9.77302 56.5889 12.6559 56.5889 15.8271 56.3006C15.2505 69.8501 15.8271 83.3997 16.9802 96.0844C17.2685 98.1024 17.2685 99.8321 17.2685 100.985C16.9802 102.138 14.9622 102.715 12.0793 102.715L15.8271 107.328C26.782 109.346 40.6199 110.787 55.3226 111.075C55.3226 109.634 55.3226 108.192 55.3226 106.751C46.6739 106.174 42.6379 105.021 42.0613 103.292C41.4847 101.85 41.4847 99.8321 41.1964 97.8141C40.6199 84.5528 40.3316 70.1384 40.6199 55.4357C45.5208 55.4357 50.4217 55.4357 55.3226 55.1474C57.9172 53.9943 60.2235 52.8411 62.5298 51.688C62.5298 49.9582 62.5298 48.2285 62.5298 46.7871C55.0343 46.7871 47.8271 47.0754 40.6199 47.0754C40.9082 41.0213 41.1964 35.2555 41.4847 29.7781C41.773 26.0303 44.3676 23.4357 46.6739 23.4357C50.7099 23.1474 54.4577 24.8772 58.2054 26.6069C60.2235 27.4718 62.2415 28.6249 64.2595 29.4898C65.1244 29.7781 66.2775 30.0663 67.1424 29.2015C68.2955 27.76 69.4487 26.3186 70.6018 25.1654C71.1784 24.3006 70.8901 23.724 70.6018 23.4357C68.0072 21.4177 65.7009 19.688 63.1063 17.67C61.6649 16.5168 59.0703 16.5168 56.764 16.5168C55.8991 16.2285 55.0343 16.5168 54.1694 16.5168Z" fill="white"/>
</g>
<defs>
<clipPath id="clip0_5027_151245">
<rect width="128" height="128" fill="white" transform="translate(0 0.113281)"/>
</clipPath>
</defs>
</svg>
