<svg width="128" height="129" viewBox="0 0 128 129" fill="none" xmlns="http://www.w3.org/2000/svg">
<g clip-path="url(#clip0_5027_151047)">
<path d="M91.4306 51.0517C84.6872 21.3035 70.6324 13.3841 67.0471 7.78597C65.5687 5.31985 64.259 2.75642 63.1271 0.113281C62.9377 2.756 62.5897 4.42091 60.3434 6.42497C55.8332 10.4463 36.6779 26.056 35.0658 59.8563C33.5639 91.3707 58.2336 110.803 61.493 112.812C63.9992 114.045 67.0515 112.838 68.5402 111.706C80.4325 103.545 96.6808 81.7864 91.4438 51.0517" fill="#10AA50"/>
<path d="M64.1491 96.0308C63.528 103.831 63.0832 108.363 61.5063 112.821C61.5063 112.821 62.5414 120.247 63.2682 128.113H65.8404C66.454 122.574 67.3908 117.075 68.6461 111.645C65.3163 110.006 64.2768 102.875 64.1491 96.0308Z" fill="#B8C4C2"/>
<path d="M68.6417 111.649C65.2766 110.094 64.3032 102.814 64.1535 96.0306C64.9857 84.8416 65.2283 73.6166 64.8802 62.4021C64.7041 56.5176 64.9639 7.90043 63.4312 0.782715C64.4797 3.19341 65.6877 5.53153 67.0473 7.78151C70.6326 13.3841 84.6918 21.3034 91.4307 51.0516C96.6809 81.7336 80.5207 103.435 68.6417 111.649Z" fill="#12924F"/>
</g>
<defs>
<clipPath id="clip0_5027_151047">
<rect width="128" height="128" fill="white" transform="translate(0 0.113281)"/>
</clipPath>
</defs>
</svg>
