<svg width="128" height="129" viewBox="0 0 128 129" fill="none" xmlns="http://www.w3.org/2000/svg">
<path d="M9.4306 55.5283L6.79032 64.6606C7.98845 62.5137 9.00688 60.9002 9.84592 59.8212C11.1547 58.1464 12.4264 56.9337 13.6669 56.1753C14.3968 55.7438 15.1594 55.5283 15.9589 55.5283C16.6465 55.5283 17.2194 55.7555 17.673 56.2042C18.127 56.6547 18.3539 57.2315 18.3539 57.9359C18.3539 58.5884 18.1883 59.4403 17.8586 60.4915L16.3244 65.5639C18.6504 61.4508 20.855 58.5633 22.9382 56.9047C24.0938 55.987 25.2348 55.5283 26.3622 55.5283C27.0173 55.5283 27.5556 55.7632 27.9766 56.2309C28.3981 56.6987 28.6088 57.4225 28.6088 58.4035C28.6088 59.1758 28.4705 59.9959 28.1946 60.8623L25.6707 68.6479C25.1178 70.3411 24.8435 71.2803 24.8435 71.4689C24.8435 71.6494 24.8962 71.8054 25.0025 71.9352C25.0727 72.0259 25.1679 72.0704 25.2866 72.0704C25.4042 72.0704 30.8444 69.6049 31.4351 68.6334L32.1032 69.0581C31.782 69.5973 25.2606 73.5169 24.6835 73.8432C24.1063 74.1673 23.5754 74.3282 23.0883 74.3282C22.6409 74.3282 22.2654 74.1673 21.9631 73.8432C21.6621 73.5181 21.5118 73.1193 21.5118 72.6476C21.5118 72.0004 21.8317 70.6996 22.4711 68.7441L24.5978 62.252C25.0808 60.7554 25.3378 59.9258 25.3698 59.7643C25.4165 59.5071 25.44 59.2576 25.44 59.0149C25.44 58.6787 25.3586 58.4159 25.1994 58.2271C25.0243 58.0378 24.8282 57.9437 24.6089 57.9437C23.9976 57.9437 23.3502 58.2332 22.6655 58.8123C20.6559 60.526 18.7786 62.9246 17.0316 66.0139C15.8818 68.049 14.8036 70.6586 13.7991 73.8398H10.7337L14.4186 61.6051C14.82 60.2861 15.0216 59.403 15.0216 58.9571C15.0216 58.594 14.9464 58.3228 14.7952 58.1487C14.6427 57.9738 14.4558 57.8857 14.2351 57.8857C13.781 57.8857 13.2964 58.0473 12.7861 58.3713C11.9596 58.8964 10.8927 60.0227 9.58786 61.7477C8.28502 63.4749 7.27502 65.1251 6.55673 66.7014C6.21235 67.4423 5.39062 69.822 4.09494 73.8398H1.10321L4.8886 60.7098L5.37933 59.0066C5.47315 58.7471 5.52135 58.5562 5.52135 58.4337C5.52135 58.134 5.38464 57.8657 5.11208 57.6262C4.841 57.3885 4.49292 57.27 4.07092 57.27C3.89328 57.27 0.955973 57.8907 0.152777 58.0522L0 57.3334L9.4306 55.5283Z" fill="white"/>
<path d="M50.308 55.8442L46.3947 69.5418L45.9448 71.3787C45.9019 71.5547 45.8802 71.7045 45.8802 71.8251C45.8802 72.0204 45.9281 72.1893 46.0219 72.3329C46.0982 72.4432 46.1931 72.4966 46.3067 72.4966C46.4294 72.4966 49.9667 69.6051 50.9712 68.6538L51.658 69.1399C50.4328 70.2919 47.3649 72.6825 46.5383 73.3396C45.7118 73.9989 44.9459 74.328 44.2429 74.328C43.7558 74.328 43.3774 74.1836 43.111 73.8931C42.8434 73.6036 42.7093 73.1814 42.7093 72.6286C42.7093 71.9675 42.8583 71.0981 43.1555 70.019L43.5893 68.5485C41.652 70.8363 39.8703 72.4343 38.2458 73.344C37.0786 73.9994 35.9341 74.328 34.8105 74.328C33.7309 74.328 32.801 73.9265 32.0168 73.1248C31.2342 72.323 30.8423 71.217 30.8423 69.8123C30.8423 67.7021 31.5384 65.4778 32.9279 63.1354C34.3192 60.7953 36.0833 58.9222 38.2238 57.5152C39.8979 56.4022 41.4786 55.8442 42.9635 55.8442C43.8513 55.8442 44.5904 56.0419 45.1804 56.4323C45.7703 56.8253 46.2168 57.4756 46.5233 58.382L47.1873 56.3331L50.308 55.8442ZM42.878 56.9077C41.9392 56.9077 40.9425 57.3042 39.8869 58.097C38.3923 59.2173 37.0617 60.8809 35.8965 63.0847C34.7305 65.2872 34.1481 67.2808 34.1481 69.0612C34.1481 69.9586 34.4076 70.6691 34.9243 71.1893C35.444 71.7114 36.0379 71.9705 36.7079 71.9705C38.3696 71.9705 40.1759 70.9087 42.1268 68.7858C44.5046 65.9601 45.6572 63.0636 45.5823 60.0954C45.5823 58.9734 45.3403 58.1616 44.8567 57.6605C44.3729 57.1599 43.7131 56.9077 42.878 56.9077Z" fill="white"/>
<path d="M128 61.8623C128 63.8874 127.465 65.8902 126.392 67.8734C125.321 69.8566 123.828 71.4289 121.912 72.5883C119.999 73.7485 118.137 74.3282 116.332 74.3282C114.484 74.3282 112.978 73.7391 111.811 72.5582C110.645 71.3779 110.062 69.8489 110.062 67.9737C110.062 65.9921 110.631 64.0015 111.771 62.0043C112.91 60.007 114.433 58.4291 116.341 57.2687C118.248 56.1095 120.093 55.5283 121.872 55.5283C123.653 55.5283 125.117 56.1151 126.271 57.29C127.423 58.4643 128 59.9882 128 61.8623ZM124.694 60.4764C124.694 59.222 124.385 58.261 123.767 57.5929C123.153 56.927 122.354 56.5929 121.38 56.5929C119.387 56.5929 117.553 58.0126 115.88 60.8501C114.205 63.6898 113.368 66.5127 113.368 69.3172C113.368 70.5982 113.693 71.5861 114.343 72.282C114.994 72.9745 115.815 73.3221 116.804 73.3221C118.715 73.3221 120.508 71.9105 122.182 69.0838C123.857 66.2598 124.694 63.3901 124.694 60.4764Z" fill="white"/>
<path d="M88.5051 55.5283L85.8658 64.6606C87.0644 62.5137 88.0829 60.9002 88.9205 59.8212C90.2302 58.1464 91.5019 56.9337 92.7425 56.1753C93.4718 55.7438 94.2356 55.5283 95.0341 55.5283C95.7209 55.5283 96.2945 55.7555 96.7479 56.2042C97.2022 56.6547 97.4292 57.2315 97.4292 57.9359C97.4292 58.5884 97.2635 59.4403 96.9338 60.4915L95.399 65.5639C97.7254 61.4508 99.929 58.5633 102.014 56.9047C103.17 55.987 104.31 55.5283 105.437 55.5283C106.093 55.5283 106.631 55.7632 107.051 56.2309C107.474 56.6987 107.684 57.4225 107.684 58.4035C107.684 59.1758 107.546 59.9959 107.27 60.8623L104.745 68.6479C104.193 70.3411 103.919 71.2803 103.919 71.4689C103.919 71.6494 103.972 71.8054 104.078 71.9352C104.149 72.0259 104.243 72.0704 104.361 72.0704C104.479 72.0704 109.919 69.6049 110.51 68.6334L111.178 69.0581C110.857 69.5973 104.335 73.5169 103.759 73.8432C103.182 74.1673 102.651 74.3282 102.163 74.3282C101.715 74.3282 101.34 74.1673 101.039 73.8432C100.737 73.5181 100.587 73.1193 100.587 72.6476C100.587 72.0004 100.907 70.6996 101.546 68.7441L103.673 62.252C104.156 60.7554 104.414 59.9258 104.445 59.7643C104.492 59.5071 104.515 59.2576 104.515 59.0149C104.515 58.6787 104.433 58.4159 104.274 58.2271C104.1 58.0378 103.903 57.9437 103.684 57.9437C103.073 57.9437 102.426 58.2332 101.741 58.8123C99.7307 60.526 97.8534 62.9246 96.106 66.0139C94.9569 68.049 93.8791 70.6586 92.8734 73.8398H89.8089L93.4939 61.6051C93.8949 60.2861 94.0971 59.403 94.0971 58.9571C94.0971 58.594 94.0215 58.3228 93.8702 58.1487C93.7174 57.9738 93.5305 57.8857 93.31 57.8857C92.8571 57.8857 92.3715 58.0473 91.8613 58.3713C91.0341 58.8964 89.9681 60.0227 88.6633 61.7477C87.3604 63.4749 86.3493 65.1251 85.6319 66.7014C85.2868 67.4423 84.466 69.822 83.1701 73.8398H80.1788L83.9637 60.7098L84.4551 59.0066C84.5486 58.7472 84.5965 58.5562 84.5965 58.4337C84.5965 58.1341 84.4606 57.8657 84.1867 57.6263C83.9157 57.3886 83.5686 57.27 83.1464 57.27C82.9684 57.27 80.0319 57.8908 79.228 58.0522L79.0752 57.3334L88.5051 55.5283Z" fill="white"/>
<path d="M67.7713 64.0872C65.5903 64.5893 62.5496 64.7608 58.6661 64.6105C58.4906 65.6216 58.3769 66.4713 58.3304 67.1517C58.2038 68.988 58.6995 70.6528 59.808 72.1366C60.916 73.6256 62.3239 74.5047 64.0373 74.7808C65.4049 75.0045 66.7428 74.9138 68.0471 74.5101C69.3559 74.1071 71.3257 73.0681 73.9571 71.3878L74.4817 72.3788C69.7232 76.5007 65.3312 78.2312 61.3148 77.5786C58.5847 77.1348 56.5956 75.8555 55.343 73.7319C54.0906 71.6105 53.5428 69.406 53.6995 67.1148C53.9088 64.0443 54.9845 61.0414 56.9178 58.0994C58.8604 55.1646 61.1899 53.0143 63.9057 51.6541C66.6232 50.2888 69.3584 49.8322 72.103 50.2788C74.0807 50.6007 75.5186 51.2815 76.409 52.3228C77.3 53.3673 77.7045 54.4959 77.6219 55.7136C77.5037 57.4235 76.7665 58.9585 75.4058 60.3215C73.614 62.095 71.0672 63.3544 67.7713 64.0872ZM64.4749 54.0014C62.1331 55.8813 60.3002 58.9235 58.965 63.121C61.8196 63.2319 64.1634 63.0092 65.9938 62.4507C68.4249 61.7046 70.2761 60.635 71.5656 59.2437C72.8456 57.8633 73.5329 56.4591 73.6308 55.0321C73.6896 54.1674 73.4874 53.4247 73.0197 52.8049C72.544 52.1919 71.8464 51.8044 70.9055 51.6519C68.9559 51.3344 66.817 52.1161 64.4749 54.0014Z" fill="#FF9600"/>
</svg>
