<svg width="128" height="129" viewBox="0 0 128 129" fill="none" xmlns="http://www.w3.org/2000/svg">
<path fill-rule="evenodd" clip-rule="evenodd" d="M39.0517 64.9917L70.2278 118.997L55.9004 119.131L47.5772 104.622L39.1945 119.053L32.0757 119.051L28.4297 112.751L40.3725 92.216L31.8946 77.4629L39.0517 64.9917Z" fill="#5277C3"/>
<path fill-rule="evenodd" clip-rule="evenodd" d="M50.3043 42.7466L19.1228 96.7483L11.8427 84.4077L20.2463 69.9449L3.55688 69.9011L0 63.7346L3.63213 57.4275L27.3878 57.5025L35.9254 42.784L50.3043 42.7466Z" fill="#7EBAE4"/>
<path fill-rule="evenodd" clip-rule="evenodd" d="M52.6963 85.9146L115.054 85.9176L108.007 98.3927L91.2797 98.3463L99.5865 112.822L96.0246 118.985L88.7464 118.993L76.9335 98.3829L59.9181 98.3484L52.6963 85.9146Z" fill="#7EBAE4"/>
<path fill-rule="evenodd" clip-rule="evenodd" d="M88.9906 62.2525L57.8145 8.24768L72.1418 8.11328L80.4651 22.6224L88.8478 8.19081L95.9666 8.19362L99.6126 14.4927L87.6698 35.0282L96.1477 49.7813L88.9906 62.2525Z" fill="#7EBAE4"/>
<path fill-rule="evenodd" clip-rule="evenodd" d="M39.0517 64.9917L70.2278 118.997L55.9004 119.131L47.5772 104.622L39.1945 119.053L32.0757 119.051L28.4297 112.751L40.3725 92.216L31.8946 77.4629L39.0517 64.9917Z" fill="#5277C3"/>
<path fill-rule="evenodd" clip-rule="evenodd" d="M75.2629 41.193L12.9053 41.19L19.9526 28.7149L36.6794 28.7612L28.3727 14.2859L31.9346 8.12229L39.2127 8.11426L51.0256 28.7248L68.0411 28.7593L75.2629 41.193Z" fill="#5277C3"/>
<path fill-rule="evenodd" clip-rule="evenodd" d="M77.6958 84.4861L108.877 30.4844L116.157 42.8251L107.754 57.2878L124.443 57.3316L128 63.4981L124.368 69.8052L100.612 69.7302L92.0746 84.4488L77.6958 84.4861Z" fill="#5277C3"/>
</svg>
