<svg width="128" height="129" viewBox="0 0 128 129" fill="none" xmlns="http://www.w3.org/2000/svg">
<path d="M25.8336 20.7862C25.8336 20.7862 25.4536 19.9211 24.3821 20.5001C23.4911 20.9839 23.9544 21.8773 23.9544 21.8773L40.6992 56.5371H44.7612L25.8333 20.7862" fill="#777777"/>
<path d="M73.3657 110.57L60.6979 86.6394H55.2427L67.9677 112.977C67.9677 112.977 69.2501 115.456 72.0018 114.086C74.7525 112.715 73.3663 110.57 73.3663 110.57" fill="#777777"/>
<path d="M120.057 18.4112C104.181 10.9526 89.817 14.5146 73.7516 19.2206C57.5784 23.9557 43.1925 26.5185 27.0317 20.0642C28.7924 23.1436 29.6737 24.683 31.4353 27.7599C33.0525 30.5904 34.6719 33.4205 36.2897 36.2498C38.051 39.3285 38.9314 40.8667 40.693 43.9448C53.5602 47.5047 64.2161 42.8881 75.6503 37.2926C89.3809 30.5773 101.783 24.536 117.471 28.0364C104.213 21.5378 92.1948 23.1485 78.3323 26.8299C91.9043 20.0667 104.682 14.8065 120.057 18.4112Z" fill="#F26711"/>
<path d="M26.043 73.7331C26.043 76.3292 26.043 78.8432 26.1245 80.1625C25.8396 80.6397 24.6974 81.0811 23.7188 81.0811C23.6776 81.0811 22.3314 79.0439 20.4147 76.727L10.9922 65.3066C8.66799 62.4312 7.28083 60.7948 6.54655 60.1955C6.34308 60.5942 6.34308 61.2726 6.34308 62.7504V70.4985C6.34308 73.7331 6.50567 76.727 6.95473 77.8062C7.32199 78.6441 8.25975 78.8839 9.32014 79.0824L10.4623 79.2431C10.7881 79.5632 10.707 80.4023 10.4623 80.6397C8.25975 80.5618 6.62828 80.5199 4.99681 80.5199C3.4877 80.5199 1.97886 80.5618 0.429152 80.6397C0.184199 80.4023 0.102737 79.5632 0.429152 79.2431L1.12224 79.123C2.22351 78.8832 2.99806 78.6441 3.36503 77.8062C3.7729 76.727 3.93641 73.7331 3.93641 70.4985V60.355C3.93641 58.1596 3.93641 57.5212 3.65091 56.9619C3.36506 56.2828 2.75341 55.883 1.32573 55.6041L0.184199 55.4437C-0.101314 55.1242 -0.0607476 54.166 0.346776 54.0468C2.26407 54.1247 4.30309 54.166 5.97609 54.166C7.36256 54.166 8.54559 54.1259 9.40221 54.0465C9.8107 55.8433 12.4617 58.8771 16.1322 63.1509L19.5583 67.1045C21.3942 69.1811 22.536 70.5774 23.4747 71.4971C23.6376 71.097 23.6376 70.4173 23.6376 69.7001V64.1886C23.6376 60.9546 23.4747 57.9595 23.0253 56.8797C22.6581 56.0424 21.7611 55.8039 20.6599 55.6041L19.5583 55.4437C19.2325 55.1242 19.314 54.286 19.5583 54.0468C21.7615 54.1247 23.3521 54.166 25.0244 54.166C26.5329 54.166 28.0018 54.1259 29.5927 54.0465C29.8377 54.286 29.9185 55.1242 29.5927 55.4443L28.8584 55.5635C27.7984 55.8039 27.0229 56.0424 26.6553 56.8818C26.2075 57.9595 26.0437 60.9546 26.0437 64.1898V73.7337" fill="#F26711"/>
<path d="M35.7337 69.3002C36.3057 69.3002 36.9573 69.2193 37.4069 68.9413C37.6107 68.8191 37.6912 68.4196 37.6912 68.0234C37.6912 66.705 36.917 65.8259 35.5302 65.8259C33.8167 65.8259 32.3487 67.4231 32.3487 68.7003C32.3487 69.2605 32.9192 69.3002 34.2248 69.3002H35.7337ZM33.0424 71.0569C32.1044 71.0569 32.0223 71.1361 32.0223 71.7751C32.0223 74.7708 33.9805 77.6855 37.7733 77.6855C38.9158 77.6855 40.4658 77.4469 41.5668 75.6093C42.0155 75.5299 42.6275 75.8491 42.6275 76.5266C40.9548 79.9215 37.9368 81.0811 35.4893 81.0811C29.9829 81.0811 27.0059 77.286 27.0059 72.9334C27.0059 67.9018 30.7175 63.9879 35.8157 63.9879C40.0573 63.9879 42.3416 66.6634 42.3416 69.7395C42.3416 70.4979 42.1378 71.0569 40.874 71.0569H33.0424Z" fill="#F26711"/>
<path d="M50.3838 66.705C49.854 66.705 49.8131 66.7438 49.8131 67.6235V73.6115C49.8131 75.8491 49.8131 78.3252 52.6681 78.3252C53.2392 78.3252 53.8914 78.046 54.3817 77.7267C54.7886 77.8456 55.0336 78.2845 54.9515 78.7641C53.8097 79.9615 51.6074 81.0811 49.0788 81.0811C45.6929 81.0811 44.5105 79.1637 44.5105 76.5266V67.6235C44.5105 66.7838 44.4696 66.705 43.7353 66.705H42.4715C42.0224 66.5422 41.9001 65.7458 42.2262 65.4654C43.4904 65.0277 44.6325 64.3077 45.6118 63.6696C46.3457 63.1509 47.3659 62.313 48.63 60.5532C48.915 60.3947 49.6499 60.4356 49.854 60.7539V63.7493C49.854 64.5075 49.8948 64.5475 50.6288 64.5475H54.2594C54.4631 64.7066 54.5852 64.9476 54.5852 65.3066C54.5852 65.7458 54.4631 66.4634 54.0553 66.705H50.3835" fill="#F26711"/>
<path d="M65.1139 73.7718C65.1139 76.8869 65.5221 78.8431 68.7042 78.8431C71.7224 78.8431 73.3127 76.5677 73.3127 73.3325C73.3127 69.8582 71.2731 67.423 67.3582 67.423C65.1142 67.423 65.1142 67.4624 65.1142 69.0609V73.7712L65.1139 73.7718ZM65.1139 64.5474C65.1139 65.5866 65.1554 65.6648 67.2762 65.6648C70.7838 65.6648 72.0891 63.47 72.0891 61.0736C72.0891 57.5996 69.8863 55.8823 67.0718 55.8823C65.1554 55.8823 65.1139 56.203 65.1139 57.9594V64.5474ZM59.4849 60.6735C59.4849 56.6413 59.4034 56.203 57.6905 56.002L56.5889 55.8413C56.2219 55.6416 56.1402 54.4441 56.7524 54.4041C59.8525 54.205 62.8299 54.0443 66.9095 54.0443C70.8243 54.0443 73.436 54.4845 75.2294 55.523C76.9835 56.561 78.0433 58.2389 78.0433 60.5934C78.0433 63.9487 75.148 65.2661 73.8838 65.5866C73.4753 65.6648 73.0671 65.8257 73.0671 66.0252C73.0671 66.1446 73.2722 66.2635 73.6395 66.3447C76.8615 67.0241 79.5936 69.0985 79.6348 72.9715C79.676 76.6459 77.4326 78.8028 74.8637 79.6822C72.2929 80.5604 69.2347 80.6802 66.7463 80.6802C65.2783 80.6802 63.7283 80.5189 62.545 80.5189C60.5456 80.5189 58.5471 80.5604 56.2229 80.6396C55.8971 80.4004 55.8971 79.3627 56.2229 79.243L57.4059 79.0029C59.2408 78.6439 59.4858 78.3641 59.4858 74.7701V60.6735" fill="#777777"/>
<path d="M88.5303 81.1592C84.7787 81.1592 82.4532 80.1209 81.5972 79.6425C80.8224 78.764 80.2925 75.889 80.2925 73.1731C80.5774 72.6547 81.5161 72.6138 81.8422 73.0531C82.6576 75.6486 85.3897 79.3221 88.8574 79.3221C91.875 79.3221 93.2628 77.2859 93.2628 75.29C93.2628 72.0557 90.1634 70.1389 87.7155 68.9412C84.7787 67.5019 81.5972 65.1076 81.5573 61.1531C81.5573 56.6414 85.1061 53.5253 91.02 53.5253C92.3656 53.5253 94.0376 53.686 95.67 54.1659C96.1999 54.3253 96.5666 54.4042 97.0565 54.4845C97.3814 55.363 97.7908 57.5196 97.7908 60.1954C97.5864 60.6735 96.5666 60.7141 96.1999 60.3164C95.5062 58.2784 93.7515 55.363 90.815 55.363C88.1237 55.363 86.6558 57.0809 86.6558 59.0762C86.6558 60.9139 88.3263 62.59 90.3659 63.6286L93.059 65.0276C95.5874 66.3451 98.81 68.6605 98.81 73.0531C98.81 77.9652 94.6889 81.1592 88.5303 81.1592Z" fill="#777777"/>
<path d="M107.769 73.2919C107.769 75.4894 107.851 76.9263 108.584 77.7654C109.32 78.5645 110.502 78.9234 111.97 78.9234C119.026 78.9234 121.433 72.7753 121.433 67.3433C121.433 60.1551 117.558 55.8825 110.175 55.8825C109.075 55.8825 108.299 56.0823 108.054 56.403C107.809 56.7216 107.769 57.4801 107.769 58.7173V73.2925V73.2919ZM101.937 60.634C101.937 56.8408 101.855 56.0823 99.9784 55.8825L99.2039 55.8034C98.7966 55.6036 98.7966 54.4444 99.2859 54.4044C102.712 54.2052 105.893 54.0446 110.217 54.0446C113.562 54.0446 116.905 54.3665 119.721 55.3633C125.064 57.2397 128 61.9518 128 66.9425C128 72.2945 125.39 76.608 120.7 78.8834C117.926 80.2421 114.581 80.7593 110.38 80.7593C108.464 80.7593 106.422 80.5192 104.955 80.5192C102.996 80.5192 100.916 80.5607 98.5922 80.6398C98.2661 80.4007 98.2661 79.4427 98.5922 79.2432L99.8564 79.0435C101.692 78.7246 101.937 78.4451 101.937 74.7703V60.634Z" fill="#777777"/>
</svg>
