<svg width="128" height="129" viewBox="0 0 128 129" fill="none" xmlns="http://www.w3.org/2000/svg">
<g clip-path="url(#clip0_5027_151368)">
<path d="M75.4717 128.113H95.195C113.308 128.113 128 113.421 128 95.3082V32.9183C128 14.8051 113.308 0.113281 95.195 0.113281H75.3711C74.8679 0.113281 74.566 0.515796 74.566 0.918312V127.208C74.566 127.711 74.9686 128.113 75.4717 128.113ZM99.8239 57.5724C106.969 57.5724 112.805 63.4089 112.805 70.5535C112.805 77.6982 106.969 83.5347 99.8239 83.5347C92.6792 83.5347 86.8428 77.6982 86.8428 70.5535C86.9434 63.4089 92.6792 57.5724 99.8239 57.5724ZM19.9245 38.5535C19.9245 45.195 25.3585 50.629 32 50.629C38.6415 50.629 44.0755 45.195 44.0755 38.5535C44.0755 31.912 38.6415 26.4781 32 26.4781C25.2579 26.4781 19.9245 31.8114 19.9245 38.5535ZM60.7799 0.113281H32.805C14.6918 0.113281 0 14.8051 0 32.9183V95.3082C0 113.421 14.6918 128.113 32.805 128.113H60.7799C61.283 128.113 61.6855 127.711 61.6855 127.208V1.01894C61.6855 0.515795 61.283 0.113281 60.7799 0.113281ZM51.4214 117.849H32.805C26.7673 117.849 21.1321 115.535 16.9057 111.208C12.6792 106.981 10.2641 101.346 10.2641 95.3082V32.9183C10.2641 26.8806 12.5786 21.2454 16.9057 17.0189C21.1321 12.7925 26.7673 10.3774 32.805 10.3774H51.4214V117.849Z" fill="#E60012"/>
</g>
<defs>
<clipPath id="clip0_5027_151368">
<rect width="128" height="128" fill="white" transform="translate(0 0.113281)"/>
</clipPath>
</defs>
</svg>
