<svg width="128" height="129" viewBox="0 0 128 129" fill="none" xmlns="http://www.w3.org/2000/svg">
<path d="M5.04384 52.5474C6.5322 52.5474 7.76586 53.0862 8.7444 54.1639C9.63387 55.1465 10.0788 56.3096 10.0788 57.6537C10.0788 59.0034 9.60848 60.1826 8.66863 61.1922C7.72837 62.2018 6.52011 62.7064 5.04343 62.7064C3.56071 62.7064 2.34922 62.2018 1.40937 61.1922C0.469925 60.1826 0 59.0034 0 57.6537C0 56.316 0.444938 55.1553 1.33441 54.1724C2.31295 53.0894 3.54943 52.5474 5.04384 52.5474ZM5.0394 53.7641C4.00565 53.7641 3.11739 54.1458 2.37502 54.9099C1.63224 55.6736 1.26106 56.5973 1.26106 57.6803C1.26106 58.3787 1.43033 59.0304 1.76887 59.6341C2.10741 60.2379 2.56484 60.7042 3.14116 61.033C3.71749 61.3615 4.35023 61.5259 5.039 61.5259C5.72777 61.5259 6.36092 61.3619 6.93724 61.033C7.51356 60.7046 7.97099 60.2379 8.30953 59.6341C8.64807 59.0304 8.81734 58.3791 8.81734 57.6803C8.81734 56.5969 8.44455 55.6736 7.69895 54.9099C6.95376 54.1458 6.06711 53.7641 5.0394 53.7641Z" fill="#4667A9"/>
<path d="M11.8511 52.7959H13.094V54.5717C13.5849 53.897 14.1495 53.3908 14.7887 53.0531C15.4271 52.7157 16.14 52.5469 16.9267 52.5469C18.2986 52.5469 19.4726 53.0414 20.4484 54.03C21.4241 55.0186 21.9121 56.2087 21.9121 57.5996C21.9121 59.0202 21.4285 60.2269 20.4617 61.2183C19.4948 62.2098 18.3285 62.7055 16.9622 62.7055C16.1932 62.7055 15.4867 62.5459 14.8419 62.2259C14.1971 61.9063 13.6147 61.4299 13.0944 60.7964V65.9913H11.8515V52.7959H11.8511ZM16.824 53.7463C15.7491 53.7463 14.8439 54.1223 14.1084 54.8727C13.3729 55.624 13.0053 56.5586 13.0053 57.6757C13.0053 58.4088 13.1694 59.0686 13.497 59.6538C13.8247 60.239 14.2942 60.7033 14.9056 61.0462C15.517 61.3892 16.1622 61.5605 16.8413 61.5605C17.5087 61.5605 18.1362 61.3876 18.7238 61.0418C19.3114 60.696 19.7793 60.2124 20.128 59.5913C20.4762 58.9707 20.6507 58.3202 20.6507 57.6399C20.6507 56.9539 20.4778 56.3039 20.132 55.6884C19.7866 55.0738 19.3215 54.5958 18.7367 54.2557C18.1519 53.9155 17.5148 53.7463 16.824 53.7463Z" fill="#4667A9"/>
<path d="M31.8276 59.2517L32.8755 59.8022C32.5317 60.4773 32.1347 61.0217 31.6841 61.436C31.234 61.8504 30.727 62.1659 30.1643 62.3819C29.6013 62.598 28.9641 62.7064 28.2532 62.7064C26.677 62.7064 25.4445 62.1901 24.5559 61.1567C23.6672 60.1234 23.2227 58.9558 23.2227 57.6537C23.2227 56.4281 23.5987 55.3359 24.3515 54.3767C25.3055 53.1575 26.5823 52.5474 28.1823 52.5474C29.8294 52.5474 31.1449 53.1721 32.1287 54.421C32.8279 55.3028 33.1834 56.4043 33.1951 57.7242H24.5014C24.5252 58.8466 24.8835 59.7663 25.5771 60.4841C26.2707 61.2019 27.1271 61.5606 28.1468 61.5606C28.6385 61.5606 29.1173 61.4751 29.5828 61.3039C30.0479 61.133 30.4436 60.9061 30.7697 60.6231C31.0957 60.3402 31.448 59.8824 31.8276 59.2517ZM31.8276 56.6497C31.6616 55.9868 31.4202 55.4568 31.103 55.0602C30.7858 54.664 30.3666 54.3444 29.8447 54.1014C29.3228 53.8584 28.7751 53.7375 28.2 53.7375C27.2517 53.7375 26.4368 54.0426 25.7553 54.6524C25.2571 55.0965 24.8807 55.7623 24.626 56.6501H31.8276V56.6497Z" fill="#4667A9"/>
<path d="M34.9672 52.796H36.2101V54.5278C36.7075 53.8644 37.258 53.3687 37.8617 53.0403C38.4658 52.7122 39.1228 52.5474 39.8333 52.5474C40.5555 52.5474 41.1963 52.7311 41.7557 53.0979C42.3155 53.465 42.7282 53.9596 42.9946 54.581C43.261 55.2025 43.394 56.1705 43.394 57.4848V62.4577H42.1507V57.8487C42.1507 56.7356 42.1047 55.9928 42.0124 55.62C41.8686 54.9804 41.5921 54.4996 41.1834 54.1768C40.7748 53.8544 40.242 53.6932 39.5846 53.6932C38.8326 53.6932 38.1591 53.9418 37.5639 54.4392C36.9686 54.9365 36.5765 55.5523 36.3875 56.2862C36.269 56.7654 36.2097 57.642 36.2097 58.9147V62.4577H34.9668V52.796H34.9672Z" fill="#4667A9"/>
<path d="M45.9437 48.8179C46.2266 48.8179 46.4684 48.9186 46.6687 49.1197C46.869 49.3212 46.9694 49.5639 46.9694 49.848C46.9694 50.1261 46.869 50.3663 46.6687 50.5674C46.4684 50.7685 46.2266 50.8693 45.9437 50.8693C45.6664 50.8693 45.4278 50.7685 45.2275 50.5674C45.0272 50.3663 44.9272 50.1261 44.9272 49.848C44.9272 49.5639 45.0272 49.3212 45.2275 49.1197C45.4278 48.9186 45.6668 48.8179 45.9437 48.8179ZM45.3266 52.7961H46.57V62.4578H45.3266V52.7961Z" fill="white"/>
<path d="M48.6084 52.796H49.8517V54.5278C50.3487 53.8644 50.8996 53.3687 51.5033 53.0403C52.107 52.7122 52.7644 52.5474 53.4749 52.5474C54.1971 52.5474 54.8379 52.7311 55.3977 53.0979C55.9571 53.465 56.3698 53.9596 56.6362 54.581C56.9026 55.2025 57.036 56.1705 57.036 57.4848V62.4577H55.7927V57.8487C55.7927 56.7356 55.7463 55.9928 55.6541 55.62C55.5102 54.9804 55.2337 54.4996 54.825 54.1768C54.4164 53.8544 53.8836 53.6932 53.2266 53.6932C52.4746 53.6932 51.8007 53.9418 51.2059 54.4392C50.6106 54.9365 50.2185 55.5523 50.0291 56.2862C49.9106 56.7654 49.8517 57.642 49.8517 58.9147V62.4577H48.6084V52.796Z" fill="white"/>
<path d="M68.7983 49.0664V62.4577H67.5727V60.7972C67.0516 61.4308 66.4672 61.9071 65.8187 62.2267C65.1707 62.5467 64.4614 62.7063 63.692 62.7063C62.3245 62.7063 61.157 62.2106 60.1889 61.2192C59.2212 60.2273 58.7368 59.0211 58.7368 57.6004C58.7368 56.2096 59.2253 55.0195 60.2022 54.0308C61.1791 53.0422 62.3544 52.5477 63.7275 52.5477C64.521 52.5477 65.2388 52.7166 65.8812 53.0539C66.5236 53.3917 67.0871 53.8979 67.5727 54.5725V49.0672H68.7983V49.0664ZM63.8298 53.7463C63.1378 53.7463 62.499 53.9164 61.9138 54.2565C61.3283 54.5967 60.8628 55.0743 60.5166 55.6893C60.1708 56.3043 59.9979 56.9548 59.9979 57.6407C59.9979 58.321 60.1724 58.9715 60.5214 59.5922C60.87 60.2132 61.3387 60.6965 61.9271 61.0426C62.5152 61.3884 63.1463 61.5613 63.8206 61.5613C64.5009 61.5613 65.1453 61.3897 65.7543 61.0471C66.3636 60.7037 66.8319 60.2398 67.16 59.6546C67.4881 59.0694 67.6525 58.4097 67.6525 57.6766C67.6525 56.5594 67.2845 55.6248 66.5482 54.8736C65.8123 54.1219 64.9059 53.7463 63.8298 53.7463Z" fill="white"/>
<path d="M71.4974 48.8179C71.7803 48.8179 72.0221 48.9186 72.2224 49.1197C72.4227 49.3212 72.5231 49.5639 72.5231 49.848C72.5231 50.1261 72.4227 50.3663 72.2224 50.5674C72.0221 50.7685 71.7803 50.8693 71.4974 50.8693C71.2201 50.8693 70.9815 50.7685 70.7812 50.5674C70.5809 50.3663 70.481 50.1261 70.481 49.848C70.481 49.5639 70.5809 49.3212 70.7812 49.1197C70.9815 48.9186 71.2205 48.8179 71.4974 48.8179ZM70.8804 52.7961H72.1237V62.4578H70.8804V52.7961Z" fill="white"/>
<path d="M83.7885 52.7961V62.4578H82.5629V60.7973C82.0418 61.4309 81.4574 61.9073 80.809 62.2269C80.1609 62.5469 79.4516 62.7065 78.6822 62.7065C77.3144 62.7065 76.1468 62.2107 75.1791 61.2193C74.2115 60.2275 73.7271 59.0212 73.7271 57.6006C73.7271 56.2097 74.2155 55.0196 75.1924 54.031C76.1694 53.0424 77.3446 52.5479 78.7177 52.5479C79.5112 52.5479 80.2286 52.7167 80.8714 53.0541C81.5139 53.3918 82.0773 53.898 82.5629 54.5726V52.7969H83.7885V52.7961ZM78.8201 53.7464C78.1281 53.7464 77.4893 53.9165 76.9041 54.2567C76.3185 54.5968 75.853 55.0744 75.5068 55.6894C75.161 56.3044 74.9881 56.9549 74.9881 57.6409C74.9881 58.3212 75.1626 58.9716 75.5112 59.5923C75.8603 60.2134 76.329 60.6966 76.917 61.0428C77.5054 61.3886 78.1365 61.5615 78.8108 61.5615C79.4911 61.5615 80.1355 61.3898 80.7445 61.0472C81.3539 60.7038 81.8222 60.24 82.1502 59.6548C82.4783 59.0696 82.6427 58.4098 82.6427 57.6767C82.6427 56.5595 82.2748 55.6249 81.5385 54.8737C80.8025 54.1221 79.8961 53.7464 78.8201 53.7464Z" fill="white"/>
<path d="M86.04 52.796H87.2834V54.5278C87.7803 53.8644 88.3312 53.3687 88.935 53.0403C89.5387 52.7122 90.196 52.5474 90.9065 52.5474C91.6288 52.5474 92.2696 52.7311 92.8294 53.0979C93.3888 53.465 93.8015 53.9596 94.0679 54.581C94.3343 55.2025 94.4677 56.1705 94.4677 57.4848V62.4577H93.2243V57.8487C93.2243 56.7356 93.178 55.9928 93.0857 55.62C92.9418 54.9804 92.6653 54.4996 92.2567 54.1768C91.848 53.8544 91.3152 53.6932 90.6583 53.6932C89.9062 53.6932 89.2324 53.9418 88.6375 54.4392C88.0423 54.9365 87.6501 55.5523 87.4607 56.2862C87.3422 56.7654 87.2834 57.642 87.2834 58.9147V62.4577H86.04V52.796Z" fill="white"/>
<path d="M106.212 52.7961V62.4578H104.987V60.7973C104.466 61.4309 103.881 61.9073 103.233 62.2269C102.585 62.5469 101.875 62.7065 101.106 62.7065C99.7382 62.7065 98.5706 62.2107 97.603 61.2193C96.6353 60.2275 96.1509 59.0212 96.1509 57.6006C96.1509 56.2097 96.6393 55.0196 97.6163 54.031C98.5932 53.0424 99.7684 52.5479 101.142 52.5479C101.935 52.5479 102.652 52.7167 103.295 53.0541C103.938 53.3918 104.501 53.898 104.987 54.5726V52.7969H106.212V52.7961ZM101.244 53.7464C100.552 53.7464 99.9131 53.9165 99.3279 54.2567C98.7423 54.5968 98.2768 55.0744 97.9306 55.6894C97.5848 56.3044 97.4119 56.9549 97.4119 57.6409C97.4119 58.3212 97.5864 58.9716 97.9351 59.5923C98.2841 60.2134 98.7528 60.6966 99.3408 61.0428C99.9292 61.3886 100.56 61.5615 101.235 61.5615C101.915 61.5615 102.559 61.3898 103.168 61.0472C103.778 60.7038 104.246 60.24 104.574 59.6548C104.902 59.0696 105.067 58.4098 105.067 57.6767C105.067 56.5595 104.699 55.6249 103.962 54.8737C103.226 54.1221 102.32 53.7464 101.244 53.7464Z" fill="white"/>
<path d="M127.912 51.7015C129.476 57.5699 110.017 68.2073 84.1303 75.105C58.2413 82.0028 35.7268 82.5509 34.1619 76.6801C33.2317 73.1899 38.8619 68.5833 49.8209 63.5911C49.8491 63.714 49.9721 63.8107 50.0043 63.9357C41.133 68.225 35.8147 72.3742 36.613 75.3706C38.0563 80.7857 61.611 78.5372 85.5002 72.1731C109.388 65.8073 126.458 56.8561 125.015 51.4399C123.818 46.949 114.775 46.1518 96.2943 49.831C96.2722 49.775 96.225 49.6755 96.2017 49.6223C116.722 45.4224 126.594 46.7519 127.912 51.7015Z" fill="white"/>
</svg>
