<svg width="128" height="129" viewBox="0 0 128 129" fill="none" xmlns="http://www.w3.org/2000/svg">
<g clip-path="url(#clip0_5027_152609)">
<path d="M64.3756 66.9295C59.5773 66.9295 55.6719 70.8349 55.6719 75.6332C55.6719 80.4315 59.5773 84.3369 64.3756 84.3369C69.1739 84.3369 73.0793 80.4315 73.0793 75.6332C73.0793 70.8349 69.1739 66.9295 64.3756 66.9295Z" fill="#43B0E8"/>
<path d="M11 22.2583L20.0474 31.3057C31.403 19.9467 47.0818 12.9143 64.3747 12.9143C81.6675 12.9143 97.3463 19.9467 108.705 31.3057L117.753 22.2583C104.079 8.58437 85.1955 0.113163 64.3747 0.113163C43.5572 0.113163 24.6773 8.58437 11 22.2583Z" fill="#43B0E8"/>
<path d="M27.2852 38.5424L36.3326 47.5898C43.5166 40.4058 53.4367 35.9546 64.3745 35.9546C75.3156 35.9546 85.2358 40.4058 92.4198 47.5898L101.467 38.5424C91.9649 29.0401 78.8436 23.1534 64.3745 23.1534C49.9054 23.1534 36.7875 29.0401 27.2852 38.5424Z" fill="#43B0E8"/>
<path d="M43.5688 54.8261L52.6163 63.8735C55.6287 60.8611 59.7868 58.9943 64.3762 58.9943C68.9656 58.9943 73.1237 60.8611 76.1362 63.8735L85.1836 54.8261C79.8529 49.4954 72.4903 46.1932 64.3762 46.1932C56.2588 46.1932 48.8996 49.4954 43.5688 54.8261Z" fill="#43B0E8"/>
<path d="M96.4295 52.2835C101.218 58.8408 104.055 66.911 104.055 75.6349C104.055 97.5138 86.2533 115.312 64.3744 115.312C42.4955 115.312 24.6938 97.5138 24.6938 75.6349C24.6938 66.911 27.531 58.8408 32.3226 52.2835L23.1977 43.1586C16.1282 52.1016 11.896 63.3797 11.896 75.6349C11.896 104.57 35.4361 128.113 64.3744 128.113C93.3126 128.113 116.856 104.57 116.856 75.6349C116.856 63.3797 112.62 52.1016 105.554 43.1586L96.4295 52.2835Z" fill="#072342"/>
</g>
<defs>
<clipPath id="clip0_5027_152609">
<rect width="128" height="128" fill="white" transform="translate(0 0.113281)"/>
</clipPath>
</defs>
</svg>
