<svg width="128" height="129" viewBox="0 0 128 129" fill="none" xmlns="http://www.w3.org/2000/svg">
<path d="M81.9371 50.1133H65.147C59.9683 50.1133 57.4304 53.3133 57.4304 57.4682V70.09C57.4304 72.6685 56.2129 74.5193 53.6429 74.5193H38.9571C38.8542 74.5193 38.769 74.6045 38.769 74.7023V77.2495C38.769 77.3536 38.8542 77.4408 38.9571 77.4408H55.5799C60.7565 77.4408 63.3007 74.2552 63.3007 70.0983V57.4682C63.3007 54.8876 64.5089 53.0328 67.0935 53.0328H81.9373C82.0538 53.0328 82.1453 52.9496 82.1453 52.8455V50.3025C82.1453 50.2027 82.0536 50.1133 81.9371 50.1133Z" fill="white"/>
<path d="M32.5127 50.1133H0.202886C0.0853829 50.1133 0 50.2027 0 50.3025V52.8455C0 52.9496 0.0851796 53.0368 0.202886 53.0368H30.5694C33.1364 53.0368 34.3549 54.8876 34.3549 57.468C34.3549 60.0382 33.1364 61.8847 30.5694 61.8847H6.54621C2.8156 61.8847 0.000203568 65.0185 0.000203568 69.1752V77.2432C0.000203568 77.3536 0.0853828 77.441 0.203089 77.441H5.67713C5.78427 77.441 5.87372 77.3536 5.87372 77.2432V69.1752C5.87372 66.6112 7.34698 64.8021 9.48459 64.8021H32.5127C37.681 64.8021 40.2148 61.6267 40.2148 57.47C40.2148 53.3198 37.681 50.1133 32.5127 50.1133Z" fill="white"/>
<path d="M125.594 63.436C125.522 63.3549 125.522 63.2157 125.594 63.1366C127.203 61.8036 128 59.7949 128 57.47C128 53.3196 125.471 50.1133 120.288 50.1133H87.986C87.8758 50.1133 87.7949 50.2027 87.7949 50.3109V52.8455C87.7949 52.9496 87.8758 53.0368 87.986 53.0368H118.348C120.907 53.0368 122.143 54.8876 122.143 57.468C122.143 60.0382 120.916 61.8847 118.348 61.8847H118.31L87.986 61.891C87.8758 61.891 87.7949 61.9701 87.7949 62.0864V64.6192C87.7949 64.721 87.8758 64.8021 87.986 64.8021H118.348C121.695 64.8416 122.136 68.102 122.136 69.7698L122.143 70.0837C122.143 72.6683 120.907 74.5274 118.348 74.5274H87.986C87.8758 74.5274 87.7949 74.6063 87.7949 74.7102V77.2493C87.7949 77.3534 87.8758 77.4406 87.986 77.4406H120.288C125.476 77.4406 128 73.9971 128 70.0837V69.7698C128 67.2746 127.203 64.8916 125.594 63.436Z" fill="white"/>
</svg>
