<svg width="128" height="129" viewBox="0 0 128 129" fill="none" xmlns="http://www.w3.org/2000/svg">
<g clip-path="url(#clip0_5027_152745)">
<path d="M63.5079 72.4905C82.1944 72.4905 97.3429 58.5073 97.3429 41.2582C97.3429 24.0091 82.1944 10.0259 63.5079 10.0259C44.8213 10.0259 29.6729 24.0091 29.6729 41.2582C29.6729 58.5073 44.8213 72.4905 63.5079 72.4905Z" fill="#77C159"/>
<path d="M63.5077 75.1674C43.3926 75.1674 26.9956 59.9602 26.9956 41.258C26.9956 22.5558 43.3926 7.34863 63.5077 7.34863C83.6228 7.34863 100.02 22.5558 100.02 41.258C100.02 59.9602 83.6228 75.1674 63.5077 75.1674ZM63.5077 12.7027C46.3299 12.7027 32.3497 25.5303 32.3497 41.258C32.3497 56.9857 46.3299 69.8133 63.5077 69.8133C80.6854 69.8133 94.6656 56.9857 94.6656 41.258C94.6656 25.5303 80.6854 12.7027 63.5077 12.7027Z" fill="white"/>
<path d="M37.8527 33.4492H89.163C93.6991 33.4492 97.3429 37.093 97.3429 41.6291V92.9393C97.3429 97.4755 93.6991 101.119 89.163 101.119H37.8527C33.3166 101.119 29.6729 97.4755 29.6729 92.9393V41.6291C29.6729 37.093 33.3166 33.4492 37.8527 33.4492Z" fill="#77C159"/>
<path d="M89.1628 103.797H37.8526C31.8664 103.797 26.9956 98.9258 26.9956 92.9396V41.6294C26.9956 35.6432 31.8664 30.7725 37.8526 30.7725H89.1628C95.149 30.7725 100.02 35.6432 100.02 41.6294V92.9396C100.02 98.9258 95.149 103.797 89.1628 103.797ZM37.8526 36.1266C34.8037 36.1266 32.3497 38.5805 32.3497 41.6294V92.9396C32.3497 95.9885 34.8037 98.4425 37.8526 98.4425H89.1628C92.2116 98.4425 94.6656 95.9885 94.6656 92.9396V41.6294C94.6656 38.5805 92.2116 36.1266 89.1628 36.1266H37.8526Z" fill="white"/>
<path d="M41.3478 1.73403C40.1951 2.36611 39.749 3.85337 40.4182 5.00599L53.5804 28.7277C54.2125 29.8803 55.6997 30.3265 56.8524 29.6572C58.005 29.0251 58.4512 27.5379 57.7819 26.3852L44.6197 2.70074C43.9876 1.51094 42.5004 1.10195 41.3478 1.73403Z" fill="#77C159"/>
<path d="M55.6625 31.3675C55.3278 31.3675 54.956 31.3303 54.6214 31.2188C53.6547 30.9585 52.8739 30.2892 52.3905 29.4341L39.2283 5.67519C38.2244 3.85331 38.8937 1.58525 40.6784 0.58135C42.5003 -0.422545 44.7683 0.246718 45.7722 2.03142L58.9344 25.7531C59.4178 26.6455 59.5293 27.6494 59.2691 28.6161C59.0088 29.5828 58.3395 30.3636 57.4844 30.8469C56.9266 31.1816 56.2945 31.3675 55.6625 31.3675ZM41.9797 2.92377C41.4592 3.22122 41.2733 3.85331 41.5707 4.37385L54.7329 28.0955C54.8817 28.3558 55.1047 28.5417 55.365 28.6161C55.6253 28.6904 55.9227 28.6532 56.183 28.5045C56.7035 28.2071 56.8894 27.575 56.592 27.0545L43.467 3.33277C43.1695 2.81223 42.5003 2.62632 41.9797 2.92377Z" fill="white"/>
<path d="M107.754 41.2573C102.808 41.2573 98.8301 45.2357 98.8301 50.1808V81.785C98.8301 86.7301 102.808 90.7085 107.754 90.7085C112.699 90.7085 116.677 86.7301 116.677 81.785V50.1808C116.677 45.2357 112.699 41.2573 107.754 41.2573Z" fill="#77C159"/>
<path d="M107.754 92.0472C102.102 92.0472 97.4917 87.4367 97.4917 81.7851V50.181C97.4917 44.5294 102.102 39.9189 107.754 39.9189C113.405 39.9189 118.016 44.5294 118.016 50.181V81.7851C118.016 87.4367 113.405 92.0472 107.754 92.0472ZM107.754 42.596C103.589 42.596 100.169 46.0167 100.169 50.181V81.7851C100.169 85.9494 103.589 89.3701 107.754 89.3701C111.918 89.3701 115.339 85.9494 115.339 81.7851V50.181C115.339 46.0167 111.918 42.596 107.754 42.596Z" fill="white"/>
<path d="M76.1491 77.3232C71.204 77.3232 67.2256 81.3016 67.2256 86.2468V117.851C67.2256 122.796 71.204 126.774 76.1491 126.774C81.0942 126.774 85.0726 122.796 85.0726 117.851V86.2468C85.0726 81.3016 81.0942 77.3232 76.1491 77.3232Z" fill="#77C159"/>
<path d="M76.1493 128.113C70.4977 128.113 65.8872 123.503 65.8872 117.851V86.2469C65.8872 80.5953 70.4977 75.9849 76.1493 75.9849C81.8008 75.9849 86.4113 80.5953 86.4113 86.2469V117.851C86.4113 123.503 81.8008 128.113 76.1493 128.113ZM76.1493 78.6619C71.9849 78.6619 68.5643 82.0826 68.5643 86.2469V117.851C68.5643 122.015 71.9849 125.436 76.1493 125.436C80.3136 125.436 83.7342 122.015 83.7342 117.851V86.2469C83.7342 82.0826 80.3136 78.6619 76.1493 78.6619Z" fill="white"/>
<path d="M85.6678 1.73375C86.8204 2.36583 87.2666 3.85309 86.5973 5.00571L73.4351 28.7274C72.8031 29.88 71.3158 30.3262 70.1632 29.6569C69.0106 29.0248 68.5644 27.5376 69.2336 26.385L82.3958 2.66328C83.0279 1.51066 84.5152 1.10167 85.6678 1.73375Z" fill="#77C159"/>
<path d="M71.3532 31.3673C70.7211 31.3673 70.089 31.2186 69.5313 30.884C67.7094 29.8801 67.0774 27.5748 68.0813 25.7901L81.2434 2.06844C82.2473 0.246556 84.5526 -0.385527 86.3373 0.618369C88.1592 1.62226 88.7913 3.92751 87.7874 5.71221L74.6252 29.4339C74.1418 30.3262 73.3238 30.9583 72.3943 31.2186C72.0225 31.293 71.6878 31.3673 71.3532 31.3673ZM84.5154 2.77489C84.1436 2.77489 83.7718 2.96079 83.5859 3.33261L70.4237 27.0543C70.1262 27.5748 70.3121 28.2441 70.8327 28.5044C71.0929 28.6531 71.3904 28.6903 71.6507 28.6159C71.9109 28.5415 72.1712 28.3556 72.2828 28.0954L85.4449 4.37368C85.7424 3.85314 85.5565 3.18388 85.0359 2.92361C84.85 2.81207 84.7013 2.77489 84.5154 2.77489Z" fill="white"/>
<path d="M19.2619 41.2573C24.207 41.2573 28.1854 45.2357 28.1854 50.1808V81.785C28.1854 86.7301 24.207 90.7085 19.2619 90.7085C14.3168 90.7085 10.3384 86.7301 10.3384 81.785V50.1808C10.3384 45.2357 14.3168 41.2573 19.2619 41.2573Z" fill="#77C159"/>
<path d="M19.262 92.0472C13.6105 92.0472 9 87.4367 9 81.7851V50.181C9 44.5294 13.6105 39.9189 19.262 39.9189C24.9136 39.9189 29.5241 44.5294 29.5241 50.181V81.7851C29.5241 87.4367 24.9136 92.0472 19.262 92.0472ZM19.262 42.596C15.0977 42.596 11.6771 46.0167 11.6771 50.181V81.7851C11.6771 85.9494 15.0977 89.3701 19.262 89.3701C23.4264 89.3701 26.847 85.9494 26.847 81.7851V50.181C26.847 46.0167 23.4264 42.596 19.262 42.596Z" fill="white"/>
<path d="M50.8659 77.3232C55.811 77.3232 59.7894 81.3016 59.7894 86.2468V117.851C59.7894 122.796 55.811 126.774 50.8659 126.774C45.9208 126.774 41.9424 122.796 41.9424 117.851V86.2468C41.9424 81.3016 45.9208 77.3232 50.8659 77.3232Z" fill="#77C159"/>
<path d="M50.866 128.113C45.2145 128.113 40.604 123.503 40.604 117.851V86.2469C40.604 80.5953 45.2145 75.9849 50.866 75.9849C56.5176 75.9849 61.1281 80.5953 61.1281 86.2469V117.851C61.1281 123.503 56.5176 128.113 50.866 128.113ZM50.866 78.6619C46.7017 78.6619 43.2811 82.0826 43.2811 86.2469V117.851C43.2811 122.015 46.7017 125.436 50.866 125.436C55.0304 125.436 58.451 122.015 58.451 117.851V86.2469C58.451 82.0826 55.0304 78.6619 50.866 78.6619Z" fill="white"/>
<path d="M63.5079 72.49C82.1944 72.49 97.3429 58.5068 97.3429 41.2577C97.3429 24.0086 82.1944 10.0254 63.5079 10.0254C44.8213 10.0254 29.6729 24.0086 29.6729 41.2577C29.6729 58.5068 44.8213 72.49 63.5079 72.49Z" fill="#77C159"/>
<path d="M37.8527 33.4497H89.163C93.6991 33.4497 97.3429 37.0935 97.3429 41.6296V92.9398C97.3429 97.4759 93.6991 101.12 89.163 101.12H37.8527C33.3166 101.12 29.6729 97.4759 29.6729 92.9398V41.6296C29.6729 37.0935 33.3166 33.4497 37.8527 33.4497Z" fill="#77C159"/>
<path d="M98.8301 41.2207H28.1855V43.8978H98.8301V41.2207Z" fill="white"/>
<path d="M47.8915 27.5009C48.7129 27.5009 49.3788 26.835 49.3788 26.0136C49.3788 25.1922 48.7129 24.5264 47.8915 24.5264C47.0702 24.5264 46.4043 25.1922 46.4043 26.0136C46.4043 26.835 47.0702 27.5009 47.8915 27.5009Z" fill="white"/>
<path d="M47.8917 28.8391C46.3301 28.8391 45.0659 27.5749 45.0659 26.0133C45.0659 24.4517 46.3301 23.1875 47.8917 23.1875C49.4533 23.1875 50.7175 24.4517 50.7175 26.0133C50.7175 27.5749 49.4533 28.8391 47.8917 28.8391ZM47.8917 25.8646C47.8173 25.8646 47.743 25.9389 47.743 26.0133C47.743 26.0876 47.8173 26.162 47.8917 26.162C47.9661 26.162 48.0404 26.0876 48.0404 26.0133C48.0404 25.9389 47.9661 25.8646 47.8917 25.8646Z" fill="white"/>
<path d="M79.124 27.5009C79.9454 27.5009 80.6112 26.835 80.6112 26.0136C80.6112 25.1922 79.9454 24.5264 79.124 24.5264C78.3026 24.5264 77.6367 25.1922 77.6367 26.0136C77.6367 26.835 78.3026 27.5009 79.124 27.5009Z" fill="white"/>
<path d="M79.1241 28.8391C77.5625 28.8391 76.2983 27.5749 76.2983 26.0133C76.2983 24.4517 77.5625 23.1875 79.1241 23.1875C80.6857 23.1875 81.9499 24.4517 81.9499 26.0133C81.9499 27.5749 80.6857 28.8391 79.1241 28.8391ZM79.1241 25.8646C79.0498 25.8646 78.9754 25.9389 78.9754 26.0133C78.9754 26.0876 79.0498 26.162 79.1241 26.162C79.1985 26.162 79.2728 26.0876 79.2728 26.0133C79.2728 25.9389 79.1985 25.8646 79.1241 25.8646Z" fill="white"/>
</g>
<defs>
<clipPath id="clip0_5027_152745">
<rect width="128" height="128" fill="white" transform="translate(0 0.113281)"/>
</clipPath>
</defs>
</svg>
