<svg width="128" height="129" viewBox="0 0 128 129" fill="none" xmlns="http://www.w3.org/2000/svg">
<g clip-path="url(#clip0_5027_150894)">
<path d="M20.1596 57.1806C20.1596 53.5443 17.2341 50.616 13.657 50.616H10.4323V63.6871H13.657C17.2341 63.6871 20.1596 60.7568 20.1596 57.1806ZM34.8285 83.2385H22.9911L13.5931 70.1965H10.4323V83.2104H0V44.1133H14.9449C23.5605 44.1133 30.5928 49.972 30.5928 57.1806C30.5928 61.577 27.8969 65.5037 23.7939 67.9063L34.8285 83.2385Z" fill="#6C3C97"/>
<path d="M46.5937 59.5268C43.8387 59.5268 41.4952 63.2715 41.4952 67.9071C41.4952 72.5427 43.8387 76.2922 46.5937 76.2922C49.4126 76.2922 51.7522 72.5427 51.7522 67.9071C51.7522 63.2715 49.4126 59.5268 46.5937 59.5268ZM62.6512 67.9071C62.6512 76.7629 55.4495 83.8542 46.5937 83.8542C37.7408 83.8542 30.5923 76.7629 30.5923 67.9071C30.5923 59.0581 37.7408 51.9628 46.5937 51.9628C55.4495 51.9628 62.6512 59.0581 62.6512 67.9071Z" fill="#6C3C97"/>
<path d="M87.1329 52.6114L75.1154 64.627V52.5717H64.6851V83.21H75.1154V70.7819L87.6616 83.21H100.79L84.8466 67.2648L98.0523 54.0639V72.2461C98.0523 78.283 101.683 83.854 110.825 83.854C115.165 83.854 119.148 81.3924 121.084 79.1651L125.774 83.21H128V52.6114H117.57V68.5527V72.4224C116.395 74.4724 114.759 75.7613 112.229 75.7613C109.663 75.7613 108.486 74.24 108.486 69.3739V68.0899V52.6114H87.1329Z" fill="#6C3C97"/>
</g>
<defs>
<clipPath id="clip0_5027_150894">
<rect width="128" height="128" fill="white" transform="translate(0 0.113281)"/>
</clipPath>
</defs>
</svg>
