<svg width="128" height="129" viewBox="0 0 128 129" fill="none" xmlns="http://www.w3.org/2000/svg">
<path d="M124.924 114.508H110.784C109.695 114.508 108.807 113.622 108.807 112.531V105.387H122.453C123.626 105.387 124.578 104.437 124.578 103.263C124.578 102.09 123.626 101.14 122.453 101.14H108.807V94.1103C108.807 93.0192 109.695 92.1305 110.784 92.1305H124.924C126.155 92.1305 127.154 91.1344 127.154 89.9036C127.154 88.6728 126.155 87.6735 124.924 87.6735H110.784C107.239 87.6735 104.351 90.5607 104.351 94.1103V112.531C104.351 116.078 107.239 118.966 110.784 118.966H124.924C126.155 118.966 127.154 117.968 127.154 116.738C127.154 115.506 126.155 114.508 124.924 114.508ZM83.3463 101.197C80.3579 100.661 78.279 100.026 77.115 99.286C75.9509 98.5465 75.3678 97.5472 75.3678 96.2882C75.3678 94.9364 75.9655 93.8266 77.1619 92.9608C78.3583 92.0961 80.0408 91.6632 82.2145 91.6632C84.4165 91.6632 86.1793 92.0867 87.5019 92.9379C88.2122 93.3947 88.861 94.0039 89.4451 94.7633C90.3067 95.8804 91.9318 96.0275 92.9801 95.0845C93.9668 94.1937 94.0534 92.6656 93.1647 91.6758C92.0935 90.4773 90.8731 89.5281 89.5067 88.8303C87.4768 87.7924 85.0298 87.2729 82.1676 87.2729C79.7112 87.2729 77.5635 87.6985 75.7245 88.5476C73.8835 89.3956 72.4722 90.5461 71.499 91.9929C70.5217 93.4396 70.0346 95.0459 70.0346 96.8077C70.0346 98.4766 70.4184 99.8931 71.1924 101.056C71.9611 102.221 73.1982 103.197 74.8974 103.983C76.5955 104.77 78.8767 105.431 81.742 105.966C84.6063 106.501 86.6111 107.114 87.7595 107.806C88.909 108.499 89.4837 109.411 89.4837 110.543C89.4837 111.96 88.8464 113.055 87.5697 113.824C86.2982 114.596 84.5427 114.981 82.3084 114.981C79.9479 114.981 77.9734 114.541 76.3838 113.66C75.4763 113.156 74.6637 112.488 73.943 111.657C73.0376 110.605 71.4146 110.581 70.4341 111.562L70.4247 111.571C69.5276 112.467 69.4588 113.919 70.3058 114.862C72.999 117.869 77.0169 119.37 82.3543 119.37C84.8097 119.37 86.973 119.001 88.8464 118.262C90.7187 117.523 92.1728 116.461 93.2117 115.076C94.2516 113.691 94.77 112.086 94.77 110.26C94.77 108.561 94.3924 107.138 93.6372 105.989C92.881 104.841 91.6794 103.881 90.0261 103.11C88.3749 102.338 86.1469 101.702 83.3463 101.197ZM13.6377 101.207C10.6483 100.669 8.57048 100.036 7.40537 99.2964C6.2413 98.5548 5.65926 97.5566 5.65926 96.2966C5.65926 94.9447 6.25798 93.8349 7.45335 92.9692C8.64975 92.1055 10.3322 91.6716 12.5049 91.6716C14.7058 91.6716 16.4686 92.0961 17.7912 92.9462C18.5037 93.4031 19.1514 94.0122 19.7355 94.7737C20.5961 95.8898 22.2222 96.0358 23.2715 95.0939C24.2583 94.201 24.3438 92.675 23.4551 91.6841C22.3839 90.4867 21.1625 89.5385 19.7971 88.8386C17.7672 87.8007 15.3192 87.2823 12.457 87.2823C10.0016 87.2823 7.85493 87.7069 6.01391 88.5559C4.17288 89.406 2.76369 90.5555 1.78842 92.0012C0.813145 93.45 0.326031 95.0543 0.326031 96.8171C0.326031 98.4849 0.709882 99.9025 1.48176 101.064C2.25259 102.231 3.48863 103.206 5.18779 103.992C6.88696 104.779 9.16816 105.439 12.0314 105.975C14.8957 106.51 16.9015 107.124 18.051 107.816C19.1983 108.507 19.7741 109.421 19.7741 110.552C19.7741 111.969 19.1358 113.063 17.8622 113.834C16.5875 114.606 14.8331 114.991 12.5999 114.991C10.2384 114.991 8.26381 114.55 6.67521 113.668C5.7667 113.164 4.95414 112.497 4.23547 111.665C3.33008 110.615 1.70393 110.59 0.72344 111.571L0.715096 111.581C-0.181946 112.476 -0.249746 113.929 0.595143 114.872C3.2894 117.878 7.30627 119.38 12.6458 119.38C15.1001 119.38 17.2634 119.009 19.1358 118.27C21.0091 117.531 22.4632 116.469 23.5021 115.084C24.542 113.701 25.0604 112.094 25.0604 110.269C25.0604 108.57 24.6828 107.147 23.9266 105.998C23.1714 104.85 21.9698 103.89 20.3155 103.119C18.6643 102.346 16.4384 101.71 13.6377 101.207ZM60.1285 89.8222V106.957C60.1285 111.048 59.0437 114.139 56.8731 116.233C54.7004 118.325 51.5388 119.37 47.3853 119.37C43.2307 119.37 40.0671 118.325 37.8965 116.233C35.7258 114.139 34.64 111.048 34.64 106.957V89.8222C34.64 88.4141 35.7811 87.2729 37.1882 87.2729C38.5943 87.2729 39.7385 88.4141 39.7385 89.8222V106.343C39.7385 109.302 40.3592 111.481 41.6025 112.88C42.8458 114.28 44.7714 114.981 47.3853 114.981C49.9972 114.981 51.9237 114.28 53.167 112.88C54.4104 111.481 55.031 109.302 55.031 106.343V89.8222C55.031 88.4141 56.1732 87.2729 57.5813 87.2729C58.9874 87.2729 60.1285 88.4141 60.1285 89.8222Z" fill="white"/>
<path d="M121.128 27.6866C120.323 26.8532 118.992 26.8532 118.187 27.6876C117.281 28.592 117.388 30.1524 118.514 30.8992C119.2 31.354 120.116 31.354 120.802 30.8992C121.925 30.1524 122.034 28.5909 121.128 27.6866ZM118.438 20.6145C112.882 19.3117 107.889 24.3049 109.192 29.8614C109.855 32.6902 112.103 34.937 114.934 35.6014C120.491 36.9073 125.487 31.9089 124.18 26.3504C123.514 23.5205 121.267 21.2748 118.438 20.6145ZM81.743 51.9057C78.1204 50.5664 76.7206 50.8355 72.0893 50.897C68.8808 50.9387 68.764 50.8313 65.1007 50.8313C63.97 50.8313 63.5518 56.2542 67.6469 57.3808C69.4399 57.8741 71.3759 58.185 72.7235 59.5639C73.3201 60.1731 73.6571 61.0931 72.2771 61.0931H62.1113C60.3318 61.0931 58.6535 61.1348 57.2944 59.9832C55.2406 58.2496 54.282 55.8621 53.2566 53.4932C52.1896 51.0295 51.0401 48.6054 49.6904 46.2866C47.0045 41.6721 43.457 37.4967 38.6953 34.9464C32.7488 31.7587 22.6602 30.1764 14.6713 36.3117C6.25266 42.7767 8.05717 54.8868 15.4202 60.8093C18.3283 63.15 22.1199 64.1295 25.8457 63.9094C33.1285 63.4859 38.4992 58.1182 37.1662 51.5135C36.7208 49.3022 35.4316 47.2098 33.4883 46.0686C32.1063 45.2613 30.4707 44.9734 28.8686 44.9703C27.1496 44.9672 25.319 45.3218 24.0829 46.5182C22.6206 47.9347 22.3827 50.436 23.552 52.1049C24.1998 53.028 25.2533 53.8082 25.0739 55.013C24.9518 55.8276 24.2801 56.4326 23.478 56.611C22.1126 56.9156 20.863 56.1385 19.9399 55.1872C17.5731 52.7485 16.8325 48.8683 18.1343 45.7296C19.8376 41.6189 24.5742 39.3565 29.0198 39.5035C34.7525 39.6965 40.1556 43.4787 42.5067 48.7118C44.8578 53.9449 44.1537 60.3681 40.914 65.1058C33.7147 75.6262 15.9376 74.3839 7.67749 65.5126C2.49759 59.9457 -0.318705 54.5436 0.0755764 44.4842C0.353034 37.3767 4.45648 30.3767 9.68436 25.4492C18.2031 17.4217 29.4224 11.932 40.8368 9.56423C47.7701 8.13417 54.9276 7.79726 61.9663 8.49925C68.1715 9.11675 74.3434 10.2537 80.3077 12.0999C83.2679 13.0231 86.1812 14.1183 88.9996 15.4127C91.4842 16.5539 94.7417 17.7962 96.6756 19.7665C96.6756 16.1992 96.5369 12.2793 96.5369 9.54962C96.5369 8.50759 97.631 7.80456 98.5677 8.24891C102.605 10.1233 112.167 14.6409 118.544 17.5552C127.092 21.4615 127.697 30.676 127.996 38.8422C128.003 39.0248 128.009 39.2136 127.927 39.3773C127.66 39.9364 126.22 39.7841 125.691 39.7904C124.667 39.8019 123.127 39.7956 122.107 39.8405C120.064 39.9312 118.077 39.8937 116.037 39.7904C112.264 39.6079 108.616 37.9264 106.173 35.881C105.929 35.6765 105.14 35.4522 104.77 35.8392C104.385 36.2366 104.514 36.8583 104.725 37.0721C106.125 38.4855 107.645 39.3992 109.411 40.313C111.655 41.4645 114.103 41.7566 116.585 41.9005C119.242 42.058 121.919 42.0194 124.569 41.7472C126.783 41.5208 127.357 41.3696 125.172 42.9926C123.251 44.4175 121.026 45.4428 118.766 46.2022C115.529 47.3036 112.108 47.8502 108.694 47.9451C106.625 48.0004 104.554 47.8919 102.501 47.6249C101.44 47.4924 100.386 47.3016 99.3198 47.192C98.454 47.1055 97.5559 46.9438 96.6944 47.1294C95.9131 47.3016 95.1871 47.724 94.6958 48.3613C94.0199 49.2427 93.7863 51.6647 94.1785 52.713C94.9326 54.747 96.589 55.9288 98.3393 56.9708C100.235 58.0984 102.727 58.4823 103.213 60.6383C103.314 61.0899 99.2843 61.1004 98.8274 61.0931H93.4619C93.4619 61.0931 90.5465 61.163 89.4127 60.7499C89.3741 60.7384 89.3438 60.7217 89.3104 60.704C88.6919 60.3723 88.4238 59.5462 88.2152 58.9203C87.9169 58.0389 87.3901 57.1565 86.7528 56.2438C85.5418 54.5154 83.6789 52.6223 81.743 51.9057ZM122.359 28.1038C122.359 31.2487 119.815 33.7927 116.67 33.7927C113.529 33.7927 110.985 31.2487 110.985 28.1038C110.985 24.9642 113.529 22.417 116.67 22.417C119.815 22.417 122.359 24.9642 122.359 28.1038Z" fill="#30BA78"/>
</svg>
