<svg width="128" height="129" viewBox="0 0 128 129" fill="none" xmlns="http://www.w3.org/2000/svg">
<path d="M81.1684 49.1253C81.2785 53.1987 81.2785 55.9552 81.1684 59.9057C80.9297 66.2439 76.7264 70.1768 70.7393 70.1768C64.6293 70.1768 60.8017 66.3493 60.5735 59.9057C60.445 56.0781 60.445 52.7246 60.5735 49.1253C60.6836 43.0329 64.7522 39.0824 70.9851 39.0824C77.218 39.0824 80.9402 43.4016 81.1684 49.1253ZM120.146 17.3462C120.146 13.8698 117.372 11.1133 113.913 11.1133C110.542 11.1133 107.68 13.8874 107.68 17.3462C107.68 20.8402 110.542 23.5791 113.913 23.5791C117.39 23.5791 120.146 20.8226 120.146 17.3462ZM127.924 87.2252C127.924 85.7749 127.557 84.4511 125.045 83.1518C123.851 82.5636 122.534 82.2336 121.34 81.08C120.257 80.0336 119.426 78.3762 119.426 75.7425V31.6731H100.815V40.329H108.435V75.4441C108.435 86.4526 116.494 91.6321 122.85 91.6321H122.979C126.209 91.6321 128 89.5779 128 87.1725L127.924 87.2252ZM95.4427 22.4379C95.4427 20.1554 93.529 18.4874 90.9129 18.4874C88.1563 18.4874 83.7143 20.029 80.4837 22.4379C77.7272 24.3692 75.4623 26.9326 73.7592 30.093C72.804 29.9644 71.8454 29.8366 70.8973 29.8366C59.3971 29.8366 49.4771 39.1246 49.4771 50.5545V58.4554C49.4771 63.5998 51.3909 68.4983 54.639 72.0976L49.2489 86.6001C48.7713 87.9398 48.4044 88.7597 48.4044 89.8483C48.4044 91.4267 49.0101 95.1682 54.5319 95.1682H59.5534C58.2313 96.9591 56.9022 99.5225 56.9022 102.297C56.9022 112.673 64.9435 117.361 72.0017 117.361H78.3575C87.6981 117.361 93.7906 111.462 93.7906 102.419C93.7906 93.114 86.9782 87.4429 77.6376 87.4429H58.4999L62.0992 77.5229C64.7504 78.7168 67.6298 79.1926 70.72 79.1926C82.0972 79.1926 91.9646 69.8169 91.9646 58.4747V50.5738C91.9646 42.7958 87.7859 36.9316 82.2553 33.1919C83.9443 30.8918 85.9775 28.3636 90.876 26.7834C94.5806 25.5719 95.3005 24.0971 95.3005 22.4115L95.4427 22.4379ZM40.6632 74.2326C40.6632 63.9088 34.0616 58.4133 24.8088 55.7972C24.2031 55.6871 20.2614 54.4751 19.5415 54.2363C17.2415 53.52 12.3429 51.7432 12.3429 46.0019C12.3429 41.5774 16.5216 38.9437 20.9637 38.9437C25.6515 38.9437 28.3905 41.7002 30.0936 43.2629C31.0487 44.218 32.2532 45.1766 33.9211 45.1766C36.6952 45.1766 38.012 43.0346 38.012 40.875C38.012 39.0842 36.9287 37.0475 35.0097 35.2215C29.8478 30.2879 22.895 29.8138 20.595 29.8138C10.8857 29.8138 2.15957 36.0643 2.15957 46.3706C2.15957 57.2562 9.37572 61.3296 18.7339 64.2792C20.7706 64.8674 22.5965 65.3432 23.5446 65.7102C28.092 67.1411 30.4974 69.766 30.4974 74.5943C30.4974 80.318 25.3355 83.4257 19.9453 83.4257C14.1865 83.4257 10.6925 78.931 8.77876 73.8569L0 77.4737C2.75653 86.551 9.83222 92.5732 20.3667 92.5732C31.2875 92.5732 40.7335 85.4624 40.7335 74.1378L40.6632 74.2326ZM84.7326 102.676C84.7326 106.31 82.2219 109.453 78.0257 109.927C76.2348 110.056 75.1462 110.056 73.4783 109.927C69.1591 109.688 66.5255 106.31 66.5255 102.676C66.5255 98.936 69.1767 95.4245 73.5836 95.3192C74.7951 95.1907 76.3401 95.1907 77.9027 95.3192C82.3448 95.558 84.7326 99.0589 84.7326 102.676Z" fill="#472B91"/>
</svg>
