<svg width="128" height="129" viewBox="0 0 128 129" fill="none" xmlns="http://www.w3.org/2000/svg">
<path d="M107.988 71.2095H119.15C120.885 71.2095 121.834 71.0451 122.39 70.6811C123.077 70.2511 123.468 69.5244 123.468 68.6673C123.468 67.6443 122.946 66.7533 122.062 66.3232C121.603 66.059 120.754 65.9269 119.706 65.9269H115.047C112.43 65.9269 110.73 65.4645 109.583 64.4763C108.275 63.3196 107.522 61.5378 107.522 59.6207C107.522 56.8168 109.058 54.3775 111.316 53.5838C112.3 53.2199 113.441 53.1215 115.996 53.1215H127.374V57.0498H117.041C114.98 57.0835 114.184 57.0835 113.495 57.2479C112.58 57.4785 112.023 58.336 112.023 59.4922C112.023 60.483 112.48 61.2741 113.266 61.6381C113.921 61.9347 115.078 62.0007 116.65 62.0007H120.15C123.359 62.0007 125.091 62.4955 126.366 63.8164C127.346 64.8057 128 66.755 128 68.6679C128 71.012 126.92 73.1917 125.219 74.2491C124.141 74.9408 122.765 75.14 119.525 75.14H107.984V71.2132H107.985L107.988 71.2095ZM91.8024 59.1205C91.1787 60.1629 90.8817 61.8363 90.8817 64.081C90.8817 69.0063 92.4803 71.2495 96.0328 71.2495C99.5248 71.2495 101.123 69.0063 101.123 64.1425C101.123 59.2131 99.5556 57.0047 96.0328 57.0047C94.1101 57.0047 92.6011 57.7636 91.8034 59.1225L91.8024 59.1205ZM104.25 56.4743C105.527 58.2316 106.242 61.0954 106.242 64.4517C106.242 68.2607 105.09 71.3898 103.036 73.1153C101.48 74.4169 99.1152 75.1358 96.3134 75.1358C92.3298 75.1358 89.1859 73.7666 87.5679 71.3242C86.3543 69.5342 85.7614 67.1563 85.7614 64.2582C85.7614 60.0902 86.8495 56.931 88.9043 55.2362C90.5233 53.8696 93.0773 53.121 96.001 53.121C99.7041 53.121 102.663 54.3253 104.25 56.4778V56.4743ZM83.2002 75.1327H78.4957V66.0544H69.9857V75.1327H65.2811V53.1153H69.9857V62.1271H78.4957V53.1153H83.2002V75.1327ZM55.745 63.4789C56.8909 63.4789 57.5535 63.3131 58.0082 62.8506C58.5499 62.3533 58.8812 61.2991 58.8812 60.0764C58.8812 58.6233 58.3385 57.5649 57.404 57.2014C57.0712 57.0692 56.5284 57.0032 55.8346 57.0032H49.9206V63.4804H55.7476L55.745 63.4789ZM49.3856 75.1327H44.8018V53.1153H55.5494C59.3231 53.1153 60.6467 53.5104 62.0676 55.1281C63.3262 56.5137 64.0021 58.3309 64.0021 60.2792C64.0021 62.5895 63.1009 64.7359 61.615 66.0242C60.3579 67.1123 59.1941 67.441 56.743 67.441H49.3851V75.1317H49.3863L49.3856 75.1327ZM27.7983 59.1164C27.1761 60.1589 26.8817 61.8322 26.8817 64.0769C26.8817 69.0022 28.4793 71.2454 32.0328 71.2454C35.5238 71.2454 37.1234 69.0022 37.1234 64.1384C37.1234 59.209 35.5556 57.0006 32.0328 57.0006C30.1086 57.0006 28.5981 57.7595 27.7993 59.1184L27.7983 59.1164ZM40.2509 56.4702C41.5284 58.2275 42.2427 61.0913 42.2427 64.4476C42.2427 68.2567 41.0906 71.3857 39.0364 73.1112C37.4808 74.4128 35.1167 75.1317 32.3134 75.1317C28.3287 75.1317 25.1859 73.7625 23.5678 71.3201C22.3533 69.5301 21.7614 67.1522 21.7614 64.2541C21.7614 60.0861 22.851 56.9269 24.9063 55.2321C26.5233 53.8655 29.0753 53.1169 32.0031 53.1169C35.7061 53.1169 38.6646 54.3212 40.2519 56.4738L40.2509 56.4702ZM0.46595 71.2014H11.6283C13.3615 71.2014 14.3113 71.0369 14.8669 70.6729C15.554 70.2429 15.9462 69.5163 15.9462 68.6591C15.9462 67.6361 15.424 66.7451 14.5407 66.315C14.0812 66.0508 13.2325 65.9187 12.1854 65.9187H7.52586C4.90937 65.9187 3.20686 65.4563 2.06247 64.4681C0.754224 63.3114 0 61.5296 0 59.6125C0 56.8086 1.53866 54.3693 3.79672 53.5756C4.77727 53.2117 5.92166 53.1133 8.47414 53.1133H19.8515V57.0416H9.51869C7.45776 57.0753 6.65899 57.0753 5.97286 57.2398C5.05735 57.4703 4.50077 58.3278 4.50077 59.484C4.50077 60.4748 4.96032 61.2659 5.74398 61.6299C6.39939 61.9265 7.55658 61.9925 9.1275 61.9925H12.6272C15.8326 61.9925 17.5684 62.4873 18.8433 63.8082C19.8239 64.7975 20.4793 66.7468 20.4793 68.6597C20.4793 71.0038 19.3989 73.1835 17.6989 74.2409C16.6196 74.9326 15.2463 75.1318 12.0051 75.1318H0.463902V71.205L0.46595 71.2014Z" fill="#0175BC"/>
</svg>
