<svg width="1000" height="1000" viewBox="0 0 1000 1000" fill="none" xmlns="http://www.w3.org/2000/svg">
<path d="M539.547 0C551.148 4.47226e-05 563.205 2.574 573.726 8.29102L574.738 8.85449L853.064 169.572L853.395 169.765C861.822 174.745 876.365 186.55 878.638 206.635C878.894 208.421 879.028 210.233 879.028 212.06V797.721L879.016 798.797C878.532 821.257 862.977 834.533 853.158 840.206L853.157 840.205L821.11 858.73C820.55 859.068 819.979 859.392 819.399 859.703C813.72 862.742 807.487 864.236 801.274 864.216C801.247 864.216 801.219 864.216 801.192 864.216C800.992 864.215 800.792 864.212 800.593 864.208C800.559 864.207 800.524 864.207 800.489 864.206C800.301 864.202 800.113 864.196 799.925 864.188C799.876 864.187 799.827 864.185 799.779 864.183C799.615 864.176 799.451 864.167 799.287 864.158C799.21 864.154 799.132 864.15 799.055 864.146C798.934 864.138 798.813 864.129 798.693 864.12C798.57 864.112 798.448 864.103 798.325 864.093C798.267 864.088 798.209 864.083 798.151 864.078C797.985 864.064 797.819 864.049 797.654 864.033C797.641 864.032 797.628 864.031 797.615 864.029C796.407 863.909 795.2 863.731 793.999 863.494C793.918 863.478 793.837 863.462 793.756 863.445C793.637 863.421 793.517 863.395 793.398 863.369C793.295 863.347 793.193 863.326 793.091 863.303C792.979 863.278 792.868 863.253 792.756 863.227C792.648 863.202 792.54 863.175 792.433 863.149C792.318 863.122 792.202 863.094 792.087 863.065C792 863.044 791.914 863.021 791.827 862.999C791.687 862.963 791.547 862.926 791.407 862.888C791.354 862.873 791.301 862.858 791.247 862.844C791.092 862.801 790.937 862.759 790.782 862.714C790.356 862.591 789.932 862.459 789.51 862.32C789.425 862.292 789.34 862.262 789.255 862.233C789.13 862.192 789.005 862.151 788.88 862.107C788.784 862.074 788.687 862.039 788.591 862.005C788.466 861.96 788.341 861.916 788.217 861.87C788.143 861.843 788.068 861.815 787.994 861.787C787.841 861.73 787.688 861.671 787.535 861.611C787.459 861.581 787.382 861.551 787.305 861.521C787.185 861.473 787.064 861.425 786.945 861.376C786.891 861.354 786.838 861.334 786.784 861.312C786.732 861.29 786.68 861.266 786.627 861.244C786.549 861.211 786.471 861.178 786.393 861.145C786.25 861.083 786.106 861.022 785.964 860.959C785.929 860.944 785.894 860.928 785.86 860.912C785.632 860.811 785.405 860.707 785.18 860.602L692.149 914.308C691.1 926.67 684.082 937.837 673.224 944.113L640.54 963.005L640.538 963.003C629.535 969.412 617.128 971.846 606.169 971.993L605.104 972C593.13 972 580.668 969.257 569.911 963.146C569.836 963.103 569.761 963.059 569.686 963.016L528.207 939.072C526.27 940.431 524.267 941.731 522.194 942.964C521.968 943.1 521.742 943.235 521.514 943.367L503.99 953.482C503.969 953.495 503.947 953.506 503.925 953.519C499.691 955.986 495.255 958.12 490.64 959.901C468.951 968.303 446.06 967.294 425.93 962.709C405.569 958.071 385.277 949.18 366.529 938.355C344.906 925.871 323.589 912.44 300.518 890.375C300.477 890.336 300.437 890.297 300.397 890.259C249.933 841.566 210.269 768.673 206.784 701.418L206.664 699.179C205.497 676.048 206.852 653.208 214.424 632.452C222.718 609.717 237.566 591.928 258.735 579.101C259.933 578.358 261.118 577.671 262.277 577.037L265.613 575.109V174.273L265.625 173.198C266.11 150.74 281.663 137.464 291.483 131.79L291.489 131.787L504.122 8.98828V8.99023C515.481 2.37752 528.335 1.0032e-05 539.547 0Z" fill="black"/>
<path fill-rule="evenodd" clip-rule="evenodd" d="M572.066 768.961L555.724 778.407L572.066 787.853L588.408 778.407L572.066 768.961Z" fill="white"/>
<path fill-rule="evenodd" clip-rule="evenodd" d="M784.8 230.531L637.534 315.547V901.208L784.8 816.193V230.531Z" fill="#FF0000"/>
<path fill-rule="evenodd" clip-rule="evenodd" d="M784.8 230.531L637.534 315.547V901.208L784.8 816.193V230.531Z" fill="url(#paint0_linear_5075_9764)"/>
<path fill-rule="evenodd" clip-rule="evenodd" d="M303.516 173.855L334.877 175.272L596.63 329.717L653.874 324.994V910.655L621.19 929.548C617.034 932.004 611.177 933.421 604.848 933.421C598.425 933.421 592.663 931.909 588.507 929.548L310.317 768.963C306.161 766.507 303.516 763.201 303.516 759.517V173.855Z" fill="#FF0000"/>
<path fill-rule="evenodd" clip-rule="evenodd" d="M303.516 173.855L334.877 175.272L596.63 329.717L653.874 324.994V910.655L621.19 929.548C617.034 932.004 611.177 933.421 604.848 933.421C598.425 933.421 592.663 931.909 588.507 929.548L310.317 768.963C306.161 766.507 303.516 763.201 303.516 759.517V173.855Z" fill="url(#paint1_linear_5075_9764)"/>
<path fill-rule="evenodd" clip-rule="evenodd" d="M801.139 239.977L784.797 230.531V816.193L801.139 825.639V239.977Z" fill="#FF0000"/>
<path fill-rule="evenodd" clip-rule="evenodd" d="M801.139 239.977L784.797 230.531V816.193L801.139 825.639V239.977Z" fill="url(#paint2_linear_5075_9764)"/>
<path fill-rule="evenodd" clip-rule="evenodd" d="M840.616 797.294C840.616 800.978 838.066 804.284 833.815 806.74L801.131 825.633V214.656L840.616 211.633V797.294Z" fill="#FF0000"/>
<path fill-rule="evenodd" clip-rule="evenodd" d="M840.616 797.294C840.616 800.978 838.066 804.284 833.815 806.74L801.131 825.633V214.656L840.616 211.633V797.294Z" fill="url(#paint3_linear_5075_9764)"/>
<path fill-rule="evenodd" clip-rule="evenodd" d="M326.659 570.59L318.44 565.867V622.544L326.659 627.267V570.59Z" fill="#0000FF"/>
<path fill-rule="evenodd" clip-rule="evenodd" d="M343.008 580.036L334.79 575.312V631.989L343.008 636.712V580.036Z" fill="#0000FF"/>
<path fill-rule="evenodd" clip-rule="evenodd" d="M359.348 589.485L351.224 584.762V641.439L359.348 646.162V589.485Z" fill="#0000FF"/>
<path fill-rule="evenodd" clip-rule="evenodd" d="M375.69 598.93L367.566 594.207V650.884L375.69 655.607V598.93Z" fill="#0000FF"/>
<path fill-rule="evenodd" clip-rule="evenodd" d="M392.119 608.375L383.901 603.652V660.329L392.119 665.052V608.375Z" fill="#0000FF"/>
<path fill-rule="evenodd" clip-rule="evenodd" d="M326.659 674.5L318.44 669.777V726.454L326.659 731.177V674.5Z" fill="#0000FF"/>
<path fill-rule="evenodd" clip-rule="evenodd" d="M343.008 683.946L334.79 679.223V735.9L343.008 740.623V683.946Z" fill="#0000FF"/>
<path fill-rule="evenodd" clip-rule="evenodd" d="M359.348 693.391L351.224 688.668V745.345L359.348 750.068V693.391Z" fill="#0000FF"/>
<path fill-rule="evenodd" clip-rule="evenodd" d="M375.69 702.836L367.566 698.113V754.79L375.69 759.513V702.836Z" fill="#0000FF"/>
<path fill-rule="evenodd" clip-rule="evenodd" d="M392.119 712.282L383.901 707.559V764.236L392.119 768.959V712.282Z" fill="#0000FF"/>
<path fill-rule="evenodd" clip-rule="evenodd" d="M465.709 650.883L457.586 646.16V702.837L465.709 707.56V650.883Z" fill="#0000FF"/>
<path fill-rule="evenodd" clip-rule="evenodd" d="M482.052 660.329L473.928 655.605V712.282L482.052 717.005V660.329Z" fill="#0000FF"/>
<path fill-rule="evenodd" clip-rule="evenodd" d="M498.488 669.774L490.27 665.051V721.728L498.488 726.451V669.774Z" fill="#0000FF"/>
<path fill-rule="evenodd" clip-rule="evenodd" d="M514.83 679.223L506.612 674.5V731.177L514.83 735.9V679.223Z" fill="#0000FF"/>
<path fill-rule="evenodd" clip-rule="evenodd" d="M531.173 688.668L522.954 683.945V740.622L531.173 745.345V688.668Z" fill="#0000FF"/>
<path fill-rule="evenodd" clip-rule="evenodd" d="M465.709 754.793L457.586 750.07V806.747L465.709 811.47V754.793Z" fill="#0000FF"/>
<path fill-rule="evenodd" clip-rule="evenodd" d="M482.052 764.239L473.928 759.516V816.193L482.052 820.916V764.239Z" fill="#0000FF"/>
<path fill-rule="evenodd" clip-rule="evenodd" d="M498.488 773.684L490.27 768.961V825.638L498.488 830.361V773.684Z" fill="#0000FF"/>
<path fill-rule="evenodd" clip-rule="evenodd" d="M514.83 783.129L506.612 778.406V835.083L514.83 839.806V783.129Z" fill="#0000FF"/>
<path fill-rule="evenodd" clip-rule="evenodd" d="M531.172 792.575L522.954 787.852V844.528L531.172 849.252V792.575Z" fill="#0000FF"/>
<path fill-rule="evenodd" clip-rule="evenodd" d="M326.659 570.59L318.44 565.867V622.544L326.659 627.267V570.59Z" fill="url(#paint4_linear_5075_9764)"/>
<path fill-rule="evenodd" clip-rule="evenodd" d="M343.008 580.036L334.79 575.312V631.989L343.008 636.712V580.036Z" fill="url(#paint5_linear_5075_9764)"/>
<path fill-rule="evenodd" clip-rule="evenodd" d="M359.348 589.485L351.224 584.762V641.439L359.348 646.162V589.485Z" fill="url(#paint6_linear_5075_9764)"/>
<path fill-rule="evenodd" clip-rule="evenodd" d="M375.69 598.93L367.566 594.207V650.884L375.69 655.607V598.93Z" fill="url(#paint7_linear_5075_9764)"/>
<path fill-rule="evenodd" clip-rule="evenodd" d="M392.119 608.375L383.901 603.652V660.329L392.119 665.052V608.375Z" fill="url(#paint8_linear_5075_9764)"/>
<path fill-rule="evenodd" clip-rule="evenodd" d="M326.659 674.5L318.44 669.777V726.454L326.659 731.177V674.5Z" fill="url(#paint9_linear_5075_9764)"/>
<path fill-rule="evenodd" clip-rule="evenodd" d="M343.008 683.946L334.79 679.223V735.9L343.008 740.623V683.946Z" fill="url(#paint10_linear_5075_9764)"/>
<path fill-rule="evenodd" clip-rule="evenodd" d="M359.348 693.391L351.224 688.668V745.345L359.348 750.068V693.391Z" fill="url(#paint11_linear_5075_9764)"/>
<path fill-rule="evenodd" clip-rule="evenodd" d="M375.69 702.836L367.566 698.113V754.79L375.69 759.513V702.836Z" fill="url(#paint12_linear_5075_9764)"/>
<path fill-rule="evenodd" clip-rule="evenodd" d="M392.119 712.282L383.901 707.559V764.236L392.119 768.959V712.282Z" fill="url(#paint13_linear_5075_9764)"/>
<path fill-rule="evenodd" clip-rule="evenodd" d="M465.709 650.883L457.586 646.16V702.837L465.709 707.56V650.883Z" fill="url(#paint14_linear_5075_9764)"/>
<path fill-rule="evenodd" clip-rule="evenodd" d="M482.052 660.329L473.928 655.605V712.282L482.052 717.005V660.329Z" fill="url(#paint15_linear_5075_9764)"/>
<path fill-rule="evenodd" clip-rule="evenodd" d="M498.488 669.774L490.27 665.051V721.728L498.488 726.451V669.774Z" fill="url(#paint16_linear_5075_9764)"/>
<path fill-rule="evenodd" clip-rule="evenodd" d="M514.83 679.223L506.612 674.5V731.177L514.83 735.9V679.223Z" fill="url(#paint17_linear_5075_9764)"/>
<path fill-rule="evenodd" clip-rule="evenodd" d="M531.173 688.668L522.954 683.945V740.622L531.173 745.345V688.668Z" fill="url(#paint18_linear_5075_9764)"/>
<path fill-rule="evenodd" clip-rule="evenodd" d="M465.709 754.793L457.586 750.07V806.747L465.709 811.47V754.793Z" fill="url(#paint19_linear_5075_9764)"/>
<path fill-rule="evenodd" clip-rule="evenodd" d="M482.052 764.239L473.928 759.516V816.193L482.052 820.916V764.239Z" fill="url(#paint20_linear_5075_9764)"/>
<path fill-rule="evenodd" clip-rule="evenodd" d="M498.488 773.684L490.27 768.961V825.638L498.488 830.361V773.684Z" fill="url(#paint21_linear_5075_9764)"/>
<path fill-rule="evenodd" clip-rule="evenodd" d="M514.83 783.129L506.612 778.406V835.083L514.83 839.806V783.129Z" fill="url(#paint22_linear_5075_9764)"/>
<path fill-rule="evenodd" clip-rule="evenodd" d="M531.172 792.575L522.954 787.852V844.528L531.172 849.252V792.575Z" fill="url(#paint23_linear_5075_9764)"/>
<path fill-rule="evenodd" clip-rule="evenodd" d="M801.139 277.763L784.797 268.316V287.209L801.139 296.655V277.763Z" fill="white"/>
<path fill-rule="evenodd" clip-rule="evenodd" d="M801.139 372.223L784.797 362.777V381.67L801.139 391.116V372.223Z" fill="white"/>
<path fill-rule="evenodd" clip-rule="evenodd" d="M801.139 324.989L784.797 315.543V334.435L801.139 343.881V324.989Z" fill="white"/>
<path fill-rule="evenodd" clip-rule="evenodd" d="M801.139 419.454L784.797 410.008V428.9L801.139 438.346V419.454Z" fill="white"/>
<path fill-rule="evenodd" clip-rule="evenodd" d="M801.139 466.684L784.797 457.238V476.131L801.139 485.577V466.684Z" fill="white"/>
<path fill-rule="evenodd" clip-rule="evenodd" d="M784.8 457.239L653.876 532.809V551.701L784.8 476.132V457.239ZM784.8 410.009L653.876 485.578V504.47L784.8 428.901V410.009ZM784.8 362.778L653.876 438.347V457.239L784.8 381.67V362.778ZM784.8 315.547L653.876 391.116V410.009L784.8 334.439V315.547ZM784.8 268.316L653.876 343.886V362.778L784.8 287.209V268.316Z" fill="#00FF00"/>
<path fill-rule="evenodd" clip-rule="evenodd" d="M784.8 457.239L653.876 532.809V551.701L784.8 476.132V457.239ZM784.8 410.009L653.876 485.578V504.47L784.8 428.901V410.009ZM784.8 362.778L653.876 438.347V457.239L784.8 381.67V362.778ZM784.8 315.547L653.876 391.116V410.009L784.8 334.439V315.547ZM784.8 268.316L653.876 343.886V362.778L784.8 287.209V268.316Z" fill="url(#paint24_linear_5075_9764)"/>
<path fill-rule="evenodd" clip-rule="evenodd" d="M752.014 693.39L670.211 740.621V750.067L752.014 702.836V693.39ZM752.014 665.052L670.211 712.282V721.729L752.014 674.498V665.052ZM752.014 636.713L670.211 683.944V693.39L752.014 646.159V636.713ZM752.014 608.375L670.211 655.606V665.052L752.014 617.821V608.375ZM752.014 580.036L670.211 627.267V636.713L752.014 589.482V580.036ZM752.014 551.698L670.211 598.929V608.375L752.014 561.144V551.698ZM752.014 523.359L670.211 570.59V580.036L752.014 532.806V523.359Z" fill="#00FF00"/>
<path fill-rule="evenodd" clip-rule="evenodd" d="M752.014 693.39L670.211 740.621V750.067L752.014 702.836V693.39ZM752.014 665.052L670.211 712.282V721.729L752.014 674.498V665.052ZM752.014 636.713L670.211 683.944V693.39L752.014 646.159V636.713ZM752.014 608.375L670.211 655.606V665.052L752.014 617.821V608.375ZM752.014 580.036L670.211 627.267V636.713L752.014 589.482V580.036ZM752.014 551.698L670.211 598.929V608.375L752.014 561.144V551.698ZM752.014 523.359L670.211 570.59V580.036L752.014 532.806V523.359Z" fill="url(#paint25_linear_5075_9764)"/>
<path fill-rule="evenodd" clip-rule="evenodd" d="M522.95 41.6073C527.107 39.1513 532.963 37.7344 539.292 37.7344C545.715 37.7344 551.478 39.2458 555.634 41.6073L833.729 202.192C837.885 204.648 840.53 207.954 840.53 211.638C840.53 215.322 837.979 218.628 833.729 221.084L801.045 239.977L784.703 230.53L637.438 315.546L653.779 324.992L621.096 343.884C616.939 346.34 611.083 347.757 604.754 347.757C598.331 347.757 592.568 346.246 588.412 343.884L310.317 183.3C306.161 180.844 303.516 177.537 303.516 173.853C303.516 170.169 306.067 166.863 310.317 164.407L522.95 41.6073Z" fill="#FF0000"/>
<path fill-rule="evenodd" clip-rule="evenodd" d="M522.95 41.6073C527.107 39.1513 532.963 37.7344 539.292 37.7344C545.715 37.7344 551.478 39.2458 555.634 41.6073L833.729 202.192C837.885 204.648 840.53 207.954 840.53 211.638C840.53 215.322 837.979 218.628 833.729 221.084L801.045 239.977L784.703 230.53L637.438 315.546L653.779 324.992L621.096 343.884C616.939 346.34 611.083 347.757 604.754 347.757C598.331 347.757 592.568 346.246 588.412 343.884L310.317 183.3C306.161 180.844 303.516 177.537 303.516 173.853C303.516 170.169 306.067 166.863 310.317 164.407L522.95 41.6073Z" fill="url(#paint26_linear_5075_9764)"/>
<path fill-rule="evenodd" clip-rule="evenodd" d="M840.617 438.349C840.617 442.033 838.066 445.339 833.815 447.795L801.132 466.687V485.58L833.815 466.687C837.972 464.231 840.617 460.925 840.617 457.241V438.349ZM840.617 391.118C840.617 394.802 838.066 398.108 833.815 400.564L801.132 419.457V438.349L833.815 419.457C837.972 417.001 840.617 413.694 840.617 410.01V391.118ZM840.617 343.887C840.617 347.571 838.066 350.877 833.815 353.333L801.132 372.226V391.118L833.815 372.226C837.972 369.77 840.617 366.464 840.617 362.78V343.887ZM840.617 296.657C840.617 300.341 838.066 303.647 833.815 306.103L801.132 324.995V343.887L833.815 324.995C837.972 322.539 840.617 319.233 840.617 315.549V296.657ZM840.617 249.426C840.617 253.11 838.066 256.416 833.815 258.872L801.132 277.764V296.657L833.815 277.764C837.972 275.308 840.617 272.002 840.617 268.318V249.426Z" fill="#00FF00"/>
<path fill-rule="evenodd" clip-rule="evenodd" d="M840.617 438.349C840.617 442.033 838.066 445.339 833.815 447.795L801.132 466.687V485.58L833.815 466.687C837.972 464.231 840.617 460.925 840.617 457.241V438.349ZM840.617 391.118C840.617 394.802 838.066 398.108 833.815 400.564L801.132 419.457V438.349L833.815 419.457C837.972 417.001 840.617 413.694 840.617 410.01V391.118ZM840.617 343.887C840.617 347.571 838.066 350.877 833.815 353.333L801.132 372.226V391.118L833.815 372.226C837.972 369.77 840.617 366.464 840.617 362.78V343.887ZM840.617 296.657C840.617 300.341 838.066 303.647 833.815 306.103L801.132 324.995V343.887L833.815 324.995C837.972 322.539 840.617 319.233 840.617 315.549V296.657ZM840.617 249.426C840.617 253.11 838.066 256.416 833.815 258.872L801.132 277.764V296.657L833.815 277.764C837.972 275.308 840.617 272.002 840.617 268.318V249.426Z" fill="url(#paint27_linear_5075_9764)"/>
<path fill-rule="evenodd" clip-rule="evenodd" d="M653.875 551.7L621.191 570.593C617.035 573.049 611.178 574.466 604.85 574.466C598.426 574.466 592.664 572.954 588.508 570.593V589.485C592.664 591.941 598.521 593.358 604.85 593.358C611.273 593.358 617.035 591.847 621.191 589.485L653.875 570.593V551.7ZM653.875 504.47L621.191 523.362C617.035 525.818 611.178 527.235 604.85 527.235C598.426 527.235 592.664 525.723 588.508 523.362V542.254C592.664 544.71 598.521 546.127 604.85 546.127C611.273 546.127 617.035 544.616 621.191 542.254L653.875 523.362V504.47ZM653.875 457.239L621.191 476.131C617.035 478.587 611.178 480.004 604.85 480.004C598.426 480.004 592.664 478.493 588.508 476.131V495.023C592.664 497.479 598.521 498.896 604.85 498.896C611.273 498.896 617.035 497.385 621.191 495.023L653.875 476.131V457.239ZM653.875 410.008L621.191 428.9C617.035 431.356 611.178 432.773 604.85 432.773C598.426 432.773 592.664 431.262 588.508 428.9V447.793C592.664 450.249 598.521 451.666 604.85 451.666C611.273 451.666 617.035 450.154 621.191 447.793L653.875 428.9V410.008ZM653.875 362.777L621.191 381.67C617.035 384.126 611.178 385.543 604.85 385.543C598.426 385.543 592.664 384.031 588.508 381.67V400.562C592.664 403.018 598.521 404.435 604.85 404.435C611.273 404.435 617.035 402.923 621.191 400.562L653.875 381.67V362.777Z" fill="#00FF00"/>
<path fill-rule="evenodd" clip-rule="evenodd" d="M653.875 551.7L621.191 570.593C617.035 573.049 611.178 574.466 604.85 574.466C598.426 574.466 592.664 572.954 588.508 570.593V589.485C592.664 591.941 598.521 593.358 604.85 593.358C611.273 593.358 617.035 591.847 621.191 589.485L653.875 570.593V551.7ZM653.875 504.47L621.191 523.362C617.035 525.818 611.178 527.235 604.85 527.235C598.426 527.235 592.664 525.723 588.508 523.362V542.254C592.664 544.71 598.521 546.127 604.85 546.127C611.273 546.127 617.035 544.616 621.191 542.254L653.875 523.362V504.47ZM653.875 457.239L621.191 476.131C617.035 478.587 611.178 480.004 604.85 480.004C598.426 480.004 592.664 478.493 588.508 476.131V495.023C592.664 497.479 598.521 498.896 604.85 498.896C611.273 498.896 617.035 497.385 621.191 495.023L653.875 476.131V457.239ZM653.875 410.008L621.191 428.9C617.035 431.356 611.178 432.773 604.85 432.773C598.426 432.773 592.664 431.262 588.508 428.9V447.793C592.664 450.249 598.521 451.666 604.85 451.666C611.273 451.666 617.035 450.154 621.191 447.793L653.875 428.9V410.008ZM653.875 362.777L621.191 381.67C617.035 384.126 611.178 385.543 604.85 385.543C598.426 385.543 592.664 384.031 588.508 381.67V400.562C592.664 403.018 598.521 404.435 604.85 404.435C611.273 404.435 617.035 402.923 621.191 400.562L653.875 381.67V362.777Z" fill="url(#paint28_linear_5075_9764)"/>
<path fill-rule="evenodd" clip-rule="evenodd" d="M801.139 466.686L784.797 457.239V476.132L801.139 485.578V466.686ZM801.139 419.455L784.797 410.009V428.901L801.139 438.347V419.455ZM801.139 372.224L784.797 362.778V381.67L801.139 391.116V372.224ZM801.139 324.993L784.797 315.547V334.439L801.139 343.886V324.993ZM801.139 277.763L784.797 268.316V287.209L801.139 296.655V277.763Z" fill="#00FF00"/>
<path fill-rule="evenodd" clip-rule="evenodd" d="M801.139 466.686L784.797 457.239V476.132L801.139 485.578V466.686ZM801.139 419.455L784.797 410.009V428.901L801.139 438.347V419.455ZM801.139 372.224L784.797 362.778V381.67L801.139 391.116V372.224ZM801.139 324.993L784.797 315.547V334.439L801.139 343.886V324.993ZM801.139 277.763L784.797 268.316V287.209L801.139 296.655V277.763Z" fill="url(#paint29_linear_5075_9764)"/>
<path d="M493.557 443.961C472.42 460.11 453.149 477.336 441.337 498.878C461.23 478.051 487.962 475.544 518.112 481.108C478.985 498.791 447.732 523.897 423.713 553.451L441.024 566.171C432.944 592.372 456.88 627.728 464.649 637.236C482.056 658.416 498.842 679.586 512.208 701.309C537.387 742.401 551.686 787.981 551.686 827.463C551.686 866.583 536.142 895.299 510.033 905.351C485.478 914.859 451.597 905.351 418.647 886.324C398.133 874.482 379.793 862.819 359.901 843.793C337.262 821.948 317.484 794.966 303 766.524V598.464C305.665 596.3 308.568 594.272 311.723 592.371C326.33 583.215 355.861 580.166 376.067 575.688C386.015 573.526 396.583 557.376 376.377 503.718L380.418 502.46L402.888 532.814C406.559 500.078 418.058 471.086 434.811 446.295L423.619 491.15C439.471 464.054 464.647 451.316 493.557 443.961Z" fill="#020202" fill-opacity="0.4"/>
<g clip-path="url(#clip0_5075_9764)">
<path fill-rule="evenodd" clip-rule="evenodd" d="M391.495 573.23L380.553 565.19L377.243 562.029L347.299 521.582L343.257 522.838L360.781 512.721L364.823 511.465L394.767 551.911L398.077 555.073L409.018 563.113L391.495 573.23Z" fill="url(#paint30_linear_5075_9764)"/>
<path fill-rule="evenodd" clip-rule="evenodd" d="M409.018 563.109L425.429 575.169L407.905 585.286L391.494 573.226L409.018 563.109Z" fill="url(#paint31_linear_5075_9764)"/>
<path fill-rule="evenodd" clip-rule="evenodd" d="M470.135 507.488C445.115 523.252 424.122 542.445 406.915 563.94L406.345 564.654L388.822 574.771L389.392 574.057C410.476 547.719 437.242 524.838 470.135 507.488Z" fill="url(#paint32_linear_5075_9764)"/>
<path d="M401.694 465.408L390.503 510.27C406.355 483.174 431.532 470.433 460.441 463.075C439.304 479.225 420.033 496.456 408.221 517.99C428.115 497.172 454.847 494.661 484.996 500.223C444.898 518.349 413.071 544.264 388.825 574.772L369.555 553.956C372.971 520.395 384.597 490.714 401.694 465.408Z" fill="url(#paint33_linear_5075_9764)"/>
<path fill-rule="evenodd" clip-rule="evenodd" d="M411.647 485.629C403.512 492.178 396.368 500.24 390.5 510.268L401.691 465.406L419.215 455.289L411.647 485.629Z" fill="url(#paint34_linear_5075_9764)"/>
<path fill-rule="evenodd" clip-rule="evenodd" d="M428.382 503.692C421.081 506.929 414.326 511.596 408.216 517.989C420.028 496.456 439.299 479.224 460.435 463.074L477.959 452.957C458.331 467.955 440.312 483.884 428.382 503.324V503.692Z" fill="url(#paint35_linear_5075_9764)"/>
<path d="M350.226 533.365L386.906 572.11C386.906 582.88 386.148 615.291 391.981 628.348C452.981 754.287 442.719 930.206 379.622 898.442C283.538 842.968 246.895 746.443 246.895 677.17C246.895 614 312.479 609.871 351.646 595.158C361.592 590.851 359.865 567.644 350.226 533.365Z" fill="url(#paint36_linear_5075_9764)"/>
<path d="M386.917 571.484L400.135 586.903C398.893 596.233 400.757 619.566 409.458 630.329C448.003 680.22 484.369 731.364 498.669 769.769C549.646 905.442 462.922 953.714 388.011 901.132C428.73 889.825 440.543 825.222 425.312 738.541C419.096 704.444 409.458 671.242 392.361 630.145C384.955 610.54 387.54 593.024 386.917 571.484Z" fill="url(#paint37_linear_5075_9764)"/>
<path fill-rule="evenodd" clip-rule="evenodd" d="M425.429 575.172C417.347 601.372 441.284 636.726 449.053 646.239C466.46 667.417 483.246 688.592 496.612 710.306C521.791 751.402 536.089 796.986 536.089 836.467C536.089 871.367 523.719 897.984 502.515 910.454L502.516 910.456L484.993 920.571C506.196 908.101 518.565 881.484 518.565 846.584C518.565 807.103 504.268 761.519 479.089 720.423C465.722 698.709 448.937 677.534 431.531 656.357C423.76 646.843 399.824 611.489 407.906 585.289L425.429 575.172Z" fill="url(#paint38_linear_5075_9764)"/>
<path fill-rule="evenodd" clip-rule="evenodd" d="M352.288 586.352C350 591.566 346.435 594.043 342.946 594.798C323.753 599.059 296.145 602.025 280.908 610.156L296.126 601.371C308.86 593.39 332.937 590.05 352.288 586.352Z" fill="url(#paint39_linear_5075_9764)"/>
<path d="M365.93 638.238C365.776 638.812 365.619 639.383 365.457 639.948C362.787 649.263 358.989 656.903 353.108 658.783C347.829 660.035 342.566 661.29 336.997 662.36L336.986 662.361C314.787 666.992 292.231 670.596 281.738 706.682L281.491 707.54C279.219 715.602 281.183 726.775 283.037 736.763L283.04 736.777C288.67 766.036 304.528 803.235 317.001 827.067C317.063 827.281 317.138 827.463 317.189 827.582C317.314 827.875 317.467 828.164 317.606 828.41C317.882 828.903 318.237 829.465 318.536 829.938C318.859 830.452 319.127 830.878 319.317 831.215C319.338 831.253 319.356 831.287 319.372 831.316V831.503L319.655 832.052C324.789 842.023 328.265 848.716 335.418 856.976C342.342 864.97 352.69 874.411 371.37 890.058L370.948 892.088C348.192 871.922 329.816 854.903 318.174 832.799C318.13 832.675 318.085 832.561 318.045 832.471C317.953 832.258 317.839 832.024 317.727 831.803C317.5 831.352 317.208 830.811 316.931 830.308C316.651 829.799 316.372 829.305 316.165 828.939C316.06 828.756 315.974 828.604 315.913 828.497L315.842 828.373C303.073 804.139 287.644 767.351 281.595 737.597L281.315 736.185C279.201 724.504 277.47 715.741 279.545 706.695L279.759 705.818C290.199 668.615 312.839 664.701 336.141 659.858C338.761 659.414 341.584 659.196 344.456 658.854C347.126 658.537 349.802 658.117 352.23 657.307L352.712 657.14C357.819 655.684 361.634 649.201 364.81 641.195C365.191 640.234 365.563 639.246 365.93 638.238ZM319.462 831.494C319.471 831.514 319.468 831.511 319.46 831.488C319.46 831.49 319.461 831.492 319.462 831.494Z" fill="#020202" stroke="#020202" stroke-width="2.75837"/>
<path d="M383.527 715.825C384.19 721.041 385.114 725.683 386.688 729.499L386.688 729.499C390.141 738.375 395.33 750.939 398.708 762.464V762.465C404.88 783.485 408.266 804.695 408.576 813.664L408.577 813.665C408.889 829.171 407.058 852.319 402.433 868.513C399.808 877.437 395.867 884.21 391.595 888.377C387.279 892.587 382.779 893.992 379.11 892.667L378.136 892.315V893.44C367.367 884.733 351.171 867.846 342.389 855.677L342.382 855.667L341.367 854.263C330.956 839.759 323.106 825.753 317.598 811.438C312.089 797.123 308.888 782.412 307.855 766.491L307.762 764.946C306.556 739.775 319.61 721.263 345.387 720.555L345.386 720.553C346.744 720.526 348.031 720.422 349.252 720.25C348.506 720.382 347.734 720.497 346.932 720.59L346.082 720.679C334.872 721.683 325.266 727.251 318.652 735.181C312.159 742.966 308.456 753.145 309.115 763.733L309.15 764.237C311.051 789.828 325.846 826.282 342.486 852.567L342.492 852.576C351.222 866.256 365.857 879.72 378.092 889.693L378.562 890.076L378.969 890.016C391.28 888.2 398.504 876.696 401.625 860.478L401.624 860.477C405.431 842.367 406.184 823.791 406.263 812.628L406.27 810.496C406.426 805.735 405.545 798.908 404.227 791.381C403.232 785.694 401.973 779.531 400.686 773.438L399.397 767.39C398.1 761.216 395.285 754.14 392.571 747.607C389.801 740.936 387.185 734.934 385.999 730.482C384.571 724.957 383.864 720.354 383.527 715.825Z" fill="#020202" stroke="#020202" stroke-width="2.75837"/>
<path d="M384.238 780.526C386.022 788.417 387.872 796.764 389.32 804.838L389.615 806.514C391.771 820.574 392.426 833.359 391.514 841.974L391.512 841.986L391.512 841.998C390.57 852.676 390.223 861.691 388.683 870.049L388.681 870.055L388.68 870.062C387.527 876.735 384.112 882.145 378.328 886.332C376.933 884.95 374.927 882.514 372.681 879.173C370.083 875.308 367.239 870.346 364.743 864.664L364.731 864.637L364.718 864.61L364.412 863.94C361.689 857.891 359.811 851.141 357.756 843.898L356.827 840.647C354.635 832.52 352.501 824.373 352.501 818.213C352.501 802.797 354.126 785.172 363.451 778.048L363.457 778.044C366.401 775.738 368.732 774.191 370.645 772.693C369.056 774.617 366.995 776.644 364.059 779.903C353.266 791.27 352.908 808.293 354.177 820.019L354.179 820.032L354.179 820.044C355.139 827.958 357.375 835.556 359.232 841.992V841.993C361.738 850.669 364.311 858.366 368.114 866.785L368.128 866.817L368.143 866.848C371.159 873.113 373.123 877.298 378.05 882.754L379.081 883.895L379.607 883.038C382.142 878.901 384.297 871.698 385.855 864.062C387.417 856.41 388.405 848.199 388.562 841.953C388.862 831.753 389.515 820.155 388.122 807.377L387.981 806.136C387.07 797.55 385.567 788.719 384.238 780.526Z" fill="#020202" stroke="#020202" stroke-width="2.75837"/>
<path d="M387.215 670.044C387.645 671.575 388.761 674.622 390.254 678.613C391.78 682.692 393.744 687.87 395.937 693.798C400.321 705.647 405.583 720.391 409.911 734.851L409.914 734.86L409.916 734.868C415.735 753.787 417.28 769.169 417.911 773.937C420.232 797.446 420.38 813.2 418.725 827.351C417.068 841.527 413.597 854.14 408.62 871.376C405.723 881.324 400.147 888.61 394.449 892.96C391.601 895.135 388.744 896.56 386.206 897.223C384.907 897.563 383.733 897.691 382.717 897.646L383.614 896.35C389.798 895.423 395.495 890.979 400.029 884.871C404.632 878.669 408.104 870.666 409.69 862.622C412.803 848.066 415.533 832.81 417.016 818.345C418.497 803.907 418.748 790.146 416.843 778.596L416.84 778.581L416.838 778.566L416.754 778.071C415.871 772.593 414.472 756.126 409.02 736.192V736.19L408.248 733.421C404.342 719.618 399.779 706.478 395.981 696.021C393.962 690.46 392.14 685.606 390.772 681.881C389.369 678.058 388.489 675.535 388.221 674.375L388.211 674.333L388.2 674.291L388.004 673.542C387.728 672.457 387.466 671.288 387.215 670.044Z" fill="#020202" stroke="#020202" stroke-width="2.75837"/>
<path d="M387.738 605.594C389.295 614.957 391.485 623.027 393.174 628.852L394.365 632.908C394.605 633.756 395.056 634.948 395.621 636.342C396.206 637.785 396.96 639.555 397.834 641.587C399.591 645.665 401.853 650.832 404.333 656.738C409.292 668.548 415.074 683.198 419.23 697.503L419.234 697.516L419.237 697.528C422.142 707.151 425.153 722.415 427.486 735.926C429.82 749.446 431.433 760.966 431.581 763.097L431.583 763.124L431.586 763.15C436.235 810.203 434.05 851.054 422.64 879.728L422.637 879.735C419.13 888.801 412.858 895.612 406.57 899.686C403.428 901.721 400.305 903.057 397.554 903.655C394.843 904.245 392.652 904.079 391.217 903.387L381.74 895.31C389.718 895.309 397.468 892.085 403.802 887.189C410.983 881.639 416.467 873.848 418.391 865.883L418.393 865.874L418.395 865.867C428.367 821.615 431.828 759.445 418.058 702.349L418.057 702.349C414.434 687.339 408.222 671.69 402.553 657.747C399.707 650.747 397.006 644.2 394.799 638.306C392.727 632.774 391.13 627.923 390.266 623.913L390.103 623.121L389.825 621.688C388.63 615.4 387.999 610.542 387.738 605.594Z" fill="#020202" stroke="#020202" stroke-width="2.75837"/>
<mask id="path-74-inside-1_5075_9764" fill="white">
<path d="M378.376 562.957L377.125 562.234V893.418L378.376 894.14V562.957Z"/>
</mask>
<path d="M378.376 562.957L377.125 562.234V893.418L378.376 894.14V562.957Z" fill="#020202"/>
<path d="M377.125 562.234V559.476L374.736 558.097V560.855L377.125 562.234ZM378.376 562.957L380.765 564.336V561.578L378.376 560.199L378.376 562.957ZM378.376 894.14V896.899L380.765 898.278V895.52L378.376 894.14ZM377.125 893.418L374.736 892.039V894.797L377.125 896.176V893.418ZM377.125 562.234V564.993L378.376 565.715V562.957L378.376 560.199L377.125 559.476V562.234ZM378.376 562.957L375.988 561.578L375.988 892.761L378.376 894.14L380.765 895.52V564.336L378.376 562.957ZM378.376 894.14V891.382L377.125 890.659V893.418V896.176L378.376 896.899V894.14ZM377.125 893.418L379.514 894.797V563.614L377.125 562.234L374.736 560.855V892.039L377.125 893.418Z" fill="#020202" mask="url(#path-74-inside-1_5075_9764)"/>
<path fill-rule="evenodd" clip-rule="evenodd" d="M425.895 504.863L428.381 503.326L438.378 497.554C456.39 486.377 478.354 485.65 502.513 490.107L484.99 500.224C463.041 496.175 442.903 496.405 425.895 504.863Z" fill="url(#paint40_linear_5075_9764)"/>
<path fill-rule="evenodd" clip-rule="evenodd" d="M460.434 463.074C449.085 465.963 438.31 469.681 428.451 474.772L437.215 469.712C449.317 461.909 463.147 456.727 477.958 452.957L460.434 463.074Z" fill="url(#paint41_linear_5075_9764)"/>
<path d="M366.647 549.375L352.418 534.388L348.643 530.413L350.984 535.627C351.467 536.702 352.207 538.718 353.088 541.325C353.958 543.896 354.932 546.941 355.879 550.012C357.772 556.142 359.525 562.265 360.137 564.892C361.499 572.164 361.878 578.783 361.612 584.101C361.346 589.449 360.433 593.372 359.294 595.352C353.052 604.742 344.603 608.144 335.679 609.92C331.196 610.813 326.634 611.289 322.136 611.921C317.657 612.551 313.271 613.332 309.245 614.836C295.347 620.006 280.547 623.556 269.74 635.24C258.879 646.983 252.07 666.877 253.791 704.556C255.372 741.907 279.91 800.283 316.627 842.138L316.629 842.141C337.346 865.701 361.149 884.128 385.162 899.432L385.172 899.437C396.105 906.299 411.885 911.943 427.69 914.805C443.507 917.668 459.506 917.774 470.846 913.409L470.845 913.408C495.065 904.147 508.576 876.736 508.576 840.817C508.576 805.12 496.402 764.124 473.529 726.662L472.431 724.881C458.974 703.023 436.83 673.315 423.115 656.396C416.472 648.204 408.926 635.503 403.739 622.293C398.555 609.088 395.812 595.597 398.499 585.599L398.753 584.657L397.88 583.649L387.545 571.719L406.381 585.56C402.858 598.8 406.902 614.121 412.793 627.303C418.863 640.883 426.939 652.316 430.947 657.223L430.952 657.23C447.813 677.742 463.989 698.134 477.034 718.964L478.287 720.982C503.216 761.673 517.371 806.803 517.371 845.894C517.371 884.598 501.991 913.02 476.149 922.967L476.148 922.967C451.872 932.371 418.296 922.985 385.529 904.066C365.366 892.426 347.43 881.027 328.077 862.696L327.154 861.818C282.165 818.404 248.678 754.637 245.914 699.851L245.913 699.838L245.805 697.828C244.768 677.165 246.234 660.329 251.25 646.579C256.427 632.388 265.411 621.413 279.458 612.948L279.466 612.943C286.675 608.426 297.617 605.391 309.35 602.924C315.207 601.693 321.239 600.606 327.08 599.545C332.915 598.486 338.56 597.453 343.625 596.329C348.869 595.194 354.189 590.385 355.594 578.998C356.975 567.815 354.567 550.4 344.798 524.098L347.347 523.305L366.647 549.375Z" fill="#020202" stroke="#020202" stroke-width="2.75837"/>
</g>
<path opacity="0.2" d="M539.547 38.1562C545.97 38.1563 551.733 39.6678 555.889 42.0293L833.983 202.614C838.139 205.07 840.784 208.377 840.784 212.061L840.783 212.064L840.87 212.059V797.72C840.87 801.404 838.32 804.71 834.07 807.166L801.394 826.053V826.06L801.388 826.056L801.386 826.058V826.055L785.053 816.614L654.128 892.196V911.077L621.446 929.969C617.289 932.425 611.432 933.842 605.104 933.842C598.68 933.842 592.917 932.33 588.761 929.969L522.02 891.442C516.808 899.472 510.25 905.906 502.515 910.455L502.516 910.456L484.992 920.571C485.008 920.562 485.023 920.552 485.038 920.543C482.459 922.064 479.748 923.376 476.913 924.467C452.358 933.979 418.477 924.468 385.529 905.445C365.013 893.601 346.673 881.936 326.781 862.912C281.401 819.125 247.519 754.7 244.722 699.244C242.234 655.815 250.316 628.537 278.604 611.49C279.423 610.977 280.29 610.483 281.199 610.007C281.102 610.056 281.004 610.108 280.907 610.159L296.125 601.373C298.355 599.976 300.932 598.722 303.771 597.582V174.275C303.771 170.592 306.322 167.285 310.572 164.829L523.205 42.0293C527.362 39.5734 533.218 38.1563 539.547 38.1562Z" fill="black"/>
<defs>
<linearGradient id="paint0_linear_5075_9764" x1="637.534" y1="565.87" x2="784.8" y2="565.87" gradientUnits="userSpaceOnUse">
<stop stop-color="#020202" stop-opacity="0.6"/>
<stop offset="1" stop-color="#020202" stop-opacity="0.5"/>
</linearGradient>
<linearGradient id="paint1_linear_5075_9764" x1="653.874" y1="587.979" x2="297.403" y2="587.602" gradientUnits="userSpaceOnUse">
<stop stop-color="#020202" stop-opacity="0"/>
<stop offset="1" stop-color="#020202" stop-opacity="0.2"/>
</linearGradient>
<linearGradient id="paint2_linear_5075_9764" x1="801.139" y1="559.133" x2="784.712" y2="559.114" gradientUnits="userSpaceOnUse">
<stop stop-color="#020202" stop-opacity="0.1"/>
<stop offset="1" stop-color="#020202" stop-opacity="0.2"/>
</linearGradient>
<linearGradient id="paint3_linear_5075_9764" x1="840.616" y1="550.666" x2="800.926" y2="550.559" gradientUnits="userSpaceOnUse">
<stop stop-color="#020202" stop-opacity="0.2"/>
<stop offset="1" stop-color="#020202" stop-opacity="0"/>
</linearGradient>
<linearGradient id="paint4_linear_5075_9764" x1="318.44" y1="596.567" x2="326.659" y2="596.567" gradientUnits="userSpaceOnUse">
<stop stop-opacity="0.9"/>
<stop offset="1" stop-opacity="0.9"/>
</linearGradient>
<linearGradient id="paint5_linear_5075_9764" x1="334.79" y1="606.012" x2="343.008" y2="606.012" gradientUnits="userSpaceOnUse">
<stop stop-opacity="0.9"/>
<stop offset="1" stop-opacity="0.9"/>
</linearGradient>
<linearGradient id="paint6_linear_5075_9764" x1="351.224" y1="615.462" x2="359.348" y2="615.462" gradientUnits="userSpaceOnUse">
<stop stop-opacity="0.9"/>
<stop offset="1" stop-opacity="0.9"/>
</linearGradient>
<linearGradient id="paint7_linear_5075_9764" x1="367.566" y1="624.907" x2="375.69" y2="624.907" gradientUnits="userSpaceOnUse">
<stop stop-opacity="0.9"/>
<stop offset="1" stop-opacity="0.9"/>
</linearGradient>
<linearGradient id="paint8_linear_5075_9764" x1="383.901" y1="634.352" x2="392.119" y2="634.352" gradientUnits="userSpaceOnUse">
<stop stop-opacity="0.9"/>
<stop offset="1" stop-opacity="0.9"/>
</linearGradient>
<linearGradient id="paint9_linear_5075_9764" x1="318.44" y1="700.477" x2="326.659" y2="700.477" gradientUnits="userSpaceOnUse">
<stop stop-opacity="0.9"/>
<stop offset="1" stop-opacity="0.9"/>
</linearGradient>
<linearGradient id="paint10_linear_5075_9764" x1="334.79" y1="709.923" x2="343.008" y2="709.923" gradientUnits="userSpaceOnUse">
<stop stop-opacity="0.9"/>
<stop offset="1" stop-opacity="0.9"/>
</linearGradient>
<linearGradient id="paint11_linear_5075_9764" x1="351.224" y1="719.368" x2="359.348" y2="719.368" gradientUnits="userSpaceOnUse">
<stop stop-opacity="0.9"/>
<stop offset="1" stop-opacity="0.9"/>
</linearGradient>
<linearGradient id="paint12_linear_5075_9764" x1="367.566" y1="728.813" x2="375.69" y2="728.813" gradientUnits="userSpaceOnUse">
<stop stop-opacity="0.9"/>
<stop offset="1" stop-opacity="0.9"/>
</linearGradient>
<linearGradient id="paint13_linear_5075_9764" x1="383.901" y1="738.259" x2="392.119" y2="738.259" gradientUnits="userSpaceOnUse">
<stop stop-opacity="0.9"/>
<stop offset="1" stop-opacity="0.9"/>
</linearGradient>
<linearGradient id="paint14_linear_5075_9764" x1="457.586" y1="676.86" x2="465.709" y2="676.86" gradientUnits="userSpaceOnUse">
<stop stop-opacity="0.9"/>
<stop offset="1" stop-opacity="0.9"/>
</linearGradient>
<linearGradient id="paint15_linear_5075_9764" x1="473.928" y1="686.305" x2="482.052" y2="686.305" gradientUnits="userSpaceOnUse">
<stop stop-opacity="0.9"/>
<stop offset="1" stop-opacity="0.9"/>
</linearGradient>
<linearGradient id="paint16_linear_5075_9764" x1="490.27" y1="695.751" x2="498.488" y2="695.751" gradientUnits="userSpaceOnUse">
<stop stop-opacity="0.9"/>
<stop offset="1" stop-opacity="0.9"/>
</linearGradient>
<linearGradient id="paint17_linear_5075_9764" x1="506.612" y1="705.2" x2="514.83" y2="705.2" gradientUnits="userSpaceOnUse">
<stop stop-opacity="0.9"/>
<stop offset="1" stop-opacity="0.9"/>
</linearGradient>
<linearGradient id="paint18_linear_5075_9764" x1="522.954" y1="714.645" x2="531.173" y2="714.645" gradientUnits="userSpaceOnUse">
<stop stop-opacity="0.9"/>
<stop offset="1" stop-opacity="0.9"/>
</linearGradient>
<linearGradient id="paint19_linear_5075_9764" x1="457.586" y1="780.77" x2="465.709" y2="780.77" gradientUnits="userSpaceOnUse">
<stop stop-opacity="0.9"/>
<stop offset="1" stop-opacity="0.9"/>
</linearGradient>
<linearGradient id="paint20_linear_5075_9764" x1="473.928" y1="790.216" x2="482.052" y2="790.216" gradientUnits="userSpaceOnUse">
<stop stop-opacity="0.9"/>
<stop offset="1" stop-opacity="0.9"/>
</linearGradient>
<linearGradient id="paint21_linear_5075_9764" x1="490.27" y1="799.661" x2="498.488" y2="799.661" gradientUnits="userSpaceOnUse">
<stop stop-opacity="0.9"/>
<stop offset="1" stop-opacity="0.9"/>
</linearGradient>
<linearGradient id="paint22_linear_5075_9764" x1="506.612" y1="809.106" x2="514.83" y2="809.106" gradientUnits="userSpaceOnUse">
<stop stop-opacity="0.9"/>
<stop offset="1" stop-opacity="0.9"/>
</linearGradient>
<linearGradient id="paint23_linear_5075_9764" x1="522.954" y1="818.552" x2="531.172" y2="818.552" gradientUnits="userSpaceOnUse">
<stop stop-opacity="0.9"/>
<stop offset="1" stop-opacity="0.9"/>
</linearGradient>
<linearGradient id="paint24_linear_5075_9764" x1="784.8" y1="381.053" x2="652.184" y2="385.227" gradientUnits="userSpaceOnUse">
<stop stop-color="#FEFEFE" stop-opacity="0.3"/>
<stop offset="1" stop-color="#FEFEFE" stop-opacity="0"/>
</linearGradient>
<linearGradient id="paint25_linear_5075_9764" x1="752.014" y1="613.548" x2="669.122" y2="615.586" gradientUnits="userSpaceOnUse">
<stop stop-color="#FEFEFE" stop-opacity="0.1"/>
<stop offset="1" stop-color="#FEFEFE" stop-opacity="0.3"/>
</linearGradient>
<linearGradient id="paint26_linear_5075_9764" x1="840.53" y1="208.427" x2="380.883" y2="221.579" gradientUnits="userSpaceOnUse">
<stop stop-color="#020202" stop-opacity="0.2"/>
<stop offset="1" stop-color="#020202" stop-opacity="0"/>
</linearGradient>
<linearGradient id="paint27_linear_5075_9764" x1="840.617" y1="343.373" x2="800.587" y2="343.829" gradientUnits="userSpaceOnUse">
<stop stop-color="#FEFEFE" stop-opacity="0.1"/>
<stop offset="0.595" stop-color="#FEFEFE" stop-opacity="0.3"/>
</linearGradient>
<linearGradient id="paint28_linear_5075_9764" x1="653.875" y1="454.508" x2="587.623" y2="455.787" gradientUnits="userSpaceOnUse">
<stop stop-color="#FEFEFE" stop-opacity="0.1"/>
<stop offset="1" stop-color="#FEFEFE" stop-opacity="0.3"/>
</linearGradient>
<linearGradient id="paint29_linear_5075_9764" x1="801.139" y1="354.748" x2="784.57" y2="354.832" gradientUnits="userSpaceOnUse">
<stop stop-color="#FEFEFE" stop-opacity="0.1"/>
<stop offset="1" stop-color="#FEFEFE" stop-opacity="0"/>
</linearGradient>
<linearGradient id="paint30_linear_5075_9764" x1="368.312" y1="549.965" x2="363.889" y2="510.926" gradientUnits="userSpaceOnUse">
<stop stop-color="#FFF58A"/>
<stop offset="1" stop-color="#FFFCDB"/>
</linearGradient>
<linearGradient id="paint31_linear_5075_9764" x1="409.803" y1="563.686" x2="409.018" y2="585.928" gradientUnits="userSpaceOnUse">
<stop stop-color="#4D1867"/>
<stop offset="1" stop-color="#7D4698"/>
</linearGradient>
<linearGradient id="paint32_linear_5075_9764" x1="392.859" y1="572.44" x2="456.674" y2="516.573" gradientUnits="userSpaceOnUse">
<stop stop-color="#F2FEB7"/>
<stop offset="1" stop-color="#ECFF8E"/>
</linearGradient>
<linearGradient id="paint33_linear_5075_9764" x1="369.555" y1="552.24" x2="477.87" y2="489.883" gradientUnits="userSpaceOnUse">
<stop stop-color="#ABCD03"/>
<stop offset="1" stop-color="#607300"/>
</linearGradient>
<linearGradient id="paint34_linear_5075_9764" x1="409.019" y1="461.175" x2="398.295" y2="498.951" gradientUnits="userSpaceOnUse">
<stop stop-color="#F2FEB7"/>
<stop offset="1" stop-color="#ECFF8E"/>
</linearGradient>
<linearGradient id="paint35_linear_5075_9764" x1="464.204" y1="460.898" x2="409.016" y2="516.557" gradientUnits="userSpaceOnUse">
<stop stop-color="#F2FEB7"/>
<stop offset="1" stop-color="#ECFF8E"/>
</linearGradient>
<linearGradient id="paint36_linear_5075_9764" x1="337.235" y1="610.17" x2="177.673" y2="789.278" gradientUnits="userSpaceOnUse">
<stop stop-color="#FFF58A"/>
<stop offset="1" stop-color="#FFFCDB"/>
</linearGradient>
<linearGradient id="paint37_linear_5075_9764" x1="388.821" y1="576.855" x2="207.855" y2="791.873" gradientUnits="userSpaceOnUse">
<stop stop-color="#4D1867"/>
<stop offset="1" stop-color="#7D4698"/>
</linearGradient>
<linearGradient id="paint38_linear_5075_9764" x1="447.504" y1="637.149" x2="315.932" y2="843.076" gradientUnits="userSpaceOnUse">
<stop stop-color="#4D1867"/>
<stop offset="1" stop-color="#7D4698"/>
</linearGradient>
<linearGradient id="paint39_linear_5075_9764" x1="351.303" y1="590.607" x2="299.51" y2="599.482" gradientUnits="userSpaceOnUse">
<stop stop-color="#FFF58A"/>
<stop offset="1" stop-color="#FFFCDB"/>
</linearGradient>
<linearGradient id="paint40_linear_5075_9764" x1="500.584" y1="491.221" x2="432.506" y2="500.908" gradientUnits="userSpaceOnUse">
<stop stop-color="#F2FEB7"/>
<stop offset="1" stop-color="#ECFF8E"/>
</linearGradient>
<linearGradient id="paint41_linear_5075_9764" x1="467.903" y1="458.762" x2="442.77" y2="466.364" gradientUnits="userSpaceOnUse">
<stop stop-color="#F2FEB7"/>
<stop offset="1" stop-color="#ECFF8E"/>
</linearGradient>
<clipPath id="clip0_5075_9764">
<rect width="544.976" height="633.582" fill="white" transform="translate(210.296 328.793)"/>
</clipPath>
</defs>
</svg>
