<svg width="1000" height="1000" viewBox="0 0 1000 1000" fill="none" xmlns="http://www.w3.org/2000/svg">
<path d="M539.547 0C551.148 1.9897e-05 563.205 2.57397 573.726 8.29102L574.738 8.85449L853.063 169.572L853.395 169.765C861.822 174.745 876.365 186.55 878.638 206.635C878.894 208.421 879.027 210.233 879.027 212.06V797.721L879.016 798.797C878.532 821.257 862.977 834.533 853.158 840.206L853.157 840.205L821.109 858.73C820.55 859.068 819.979 859.392 819.398 859.703C813.72 862.742 807.487 864.236 801.273 864.216C801.246 864.216 801.219 864.216 801.191 864.216C800.992 864.215 800.792 864.212 800.593 864.208C800.558 864.207 800.524 864.207 800.489 864.206C800.301 864.202 800.113 864.196 799.925 864.188C799.876 864.187 799.827 864.185 799.778 864.183C799.615 864.176 799.451 864.167 799.287 864.158C799.21 864.154 799.132 864.15 799.055 864.146C798.934 864.138 798.813 864.129 798.692 864.12C798.57 864.112 798.447 864.103 798.325 864.093C798.267 864.088 798.209 864.083 798.151 864.078C797.986 864.064 797.82 864.049 797.654 864.033C797.642 864.032 797.628 864.031 797.615 864.029C796.407 863.909 795.2 863.731 793.999 863.494C793.918 863.478 793.837 863.462 793.756 863.445C793.637 863.421 793.518 863.395 793.398 863.369C793.296 863.347 793.193 863.326 793.091 863.303C792.979 863.278 792.867 863.253 792.756 863.227C792.648 863.202 792.541 863.175 792.434 863.149C792.318 863.122 792.202 863.094 792.087 863.065C792 863.044 791.914 863.021 791.827 862.999C791.687 862.963 791.547 862.926 791.407 862.888C791.354 862.873 791.301 862.858 791.248 862.844C791.093 862.801 790.938 862.759 790.783 862.714C790.357 862.591 789.932 862.459 789.51 862.32C789.425 862.292 789.34 862.262 789.255 862.233C789.13 862.192 789.005 862.151 788.881 862.107C788.784 862.074 788.687 862.039 788.591 862.005C788.466 861.96 788.341 861.916 788.217 861.87C788.143 861.843 788.068 861.815 787.994 861.787C787.841 861.73 787.688 861.671 787.535 861.611C787.458 861.581 787.381 861.551 787.305 861.521C787.185 861.473 787.064 861.425 786.944 861.376C786.891 861.354 786.837 861.334 786.784 861.312C786.732 861.29 786.679 861.266 786.627 861.244C786.549 861.211 786.471 861.178 786.393 861.145C786.249 861.083 786.106 861.022 785.964 860.959C785.929 860.944 785.894 860.928 785.859 860.912C785.632 860.811 785.405 860.707 785.18 860.602L692.148 914.308C691.1 926.67 684.081 937.837 673.224 944.113L640.54 963.005L640.538 963.003C629.535 969.412 617.128 971.846 606.17 971.993L605.104 972C593.129 972 580.668 969.257 569.911 963.146C569.836 963.103 569.761 963.059 569.686 963.016L542.641 947.404C541.156 955.745 537.955 963.094 534.464 968.89C529.628 976.918 522.106 985.521 511.622 991.322C501.227 997.074 482.839 1002.04 465.284 991.673L366.615 937.076C355.817 939.268 343.362 938.571 331.323 931.53L256.073 889.894L256.072 889.893C244.309 883.383 237.412 873.608 233.749 863.554L139.481 811.394C137.382 810.232 135.416 808.882 133.598 807.371C120.425 796.766 116.787 781.61 116.787 770.805C116.787 758.433 121.047 747.541 125.838 739.588C129.727 733.133 135.357 726.298 142.873 720.851C137.732 712.743 134.772 703.169 134.771 692.965V549.257L134.779 548.358C135.093 530.346 144.809 514.447 159.409 505.495L168.139 499.564C169.373 498.637 170.652 497.764 171.971 496.946C173.827 487.633 179.127 479.291 186.879 473.651V418.144C186.879 400.514 196.688 385.053 211.233 377.005C211.281 376.979 211.366 376.935 211.479 376.874C211.562 376.828 211.645 376.78 211.729 376.734L224.293 369.948C224.343 369.921 224.394 369.892 224.444 369.864C237.201 362.94 252.356 362.213 265.614 367.676V174.273L265.626 173.198C266.11 150.74 281.663 137.464 291.483 131.79L291.49 131.787L504.123 8.98828V8.99023C515.481 2.37763 528.335 1.0032e-05 539.547 0Z" fill="black"/>
<path fill-rule="evenodd" clip-rule="evenodd" d="M572.066 768.962L555.724 778.408L572.066 787.854L588.408 778.408L572.066 768.962Z" fill="white"/>
<path fill-rule="evenodd" clip-rule="evenodd" d="M784.8 230.53L637.534 315.546V901.207L784.8 816.192V230.53Z" fill="#FF0000"/>
<path fill-rule="evenodd" clip-rule="evenodd" d="M784.8 230.53L637.534 315.546V901.207L784.8 816.192V230.53Z" fill="url(#paint0_linear_5075_13130)"/>
<path fill-rule="evenodd" clip-rule="evenodd" d="M303.516 173.854L334.877 175.271L596.63 329.716L653.874 324.993V910.654L621.19 929.547C617.034 932.003 611.177 933.42 604.848 933.42C598.425 933.42 592.663 931.908 588.507 929.547L310.317 768.962C306.161 766.506 303.516 763.2 303.516 759.516V173.854Z" fill="#FF0000"/>
<path fill-rule="evenodd" clip-rule="evenodd" d="M303.516 173.854L334.877 175.271L596.63 329.716L653.874 324.993V910.654L621.19 929.547C617.034 932.003 611.177 933.42 604.848 933.42C598.425 933.42 592.663 931.908 588.507 929.547L310.317 768.962C306.161 766.506 303.516 763.2 303.516 759.516V173.854Z" fill="url(#paint1_linear_5075_13130)"/>
<path fill-rule="evenodd" clip-rule="evenodd" d="M801.139 239.976L784.797 230.53V816.192L801.139 825.638V239.976Z" fill="#FF0000"/>
<path fill-rule="evenodd" clip-rule="evenodd" d="M801.139 239.976L784.797 230.53V816.192L801.139 825.638V239.976Z" fill="url(#paint2_linear_5075_13130)"/>
<path fill-rule="evenodd" clip-rule="evenodd" d="M840.616 797.296C840.616 800.98 838.066 804.286 833.815 806.742L801.131 825.635V214.658L840.616 211.635V797.296Z" fill="#FF0000"/>
<path fill-rule="evenodd" clip-rule="evenodd" d="M840.616 797.296C840.616 800.98 838.066 804.286 833.815 806.742L801.131 825.635V214.658L840.616 211.635V797.296Z" fill="url(#paint3_linear_5075_13130)"/>
<path fill-rule="evenodd" clip-rule="evenodd" d="M326.659 570.59L318.44 565.867V622.544L326.659 627.267V570.59Z" fill="#0000FF"/>
<path fill-rule="evenodd" clip-rule="evenodd" d="M343.008 580.035L334.79 575.312V631.988L343.008 636.712V580.035Z" fill="#0000FF"/>
<path fill-rule="evenodd" clip-rule="evenodd" d="M359.348 589.484L351.224 584.761V641.438L359.348 646.161V589.484Z" fill="#0000FF"/>
<path fill-rule="evenodd" clip-rule="evenodd" d="M375.69 598.929L367.566 594.206V650.883L375.69 655.606V598.929Z" fill="#0000FF"/>
<path fill-rule="evenodd" clip-rule="evenodd" d="M392.119 608.373L383.901 603.65V660.327L392.119 665.05V608.373Z" fill="#0000FF"/>
<path fill-rule="evenodd" clip-rule="evenodd" d="M326.659 674.497L318.44 669.774V726.451L326.659 731.174V674.497Z" fill="#0000FF"/>
<path fill-rule="evenodd" clip-rule="evenodd" d="M343.008 683.943L334.79 679.22V735.897L343.008 740.62V683.943Z" fill="#0000FF"/>
<path fill-rule="evenodd" clip-rule="evenodd" d="M359.348 693.389L351.224 688.666V745.343L359.348 750.066V693.389Z" fill="#0000FF"/>
<path fill-rule="evenodd" clip-rule="evenodd" d="M375.69 702.836L367.566 698.113V754.79L375.69 759.513V702.836Z" fill="#0000FF"/>
<path fill-rule="evenodd" clip-rule="evenodd" d="M392.119 712.282L383.901 707.559V764.236L392.119 768.959V712.282Z" fill="#0000FF"/>
<path fill-rule="evenodd" clip-rule="evenodd" d="M465.709 650.883L457.586 646.16V702.837L465.709 707.56V650.883Z" fill="#0000FF"/>
<path fill-rule="evenodd" clip-rule="evenodd" d="M482.052 660.329L473.928 655.605V712.282L482.052 717.005V660.329Z" fill="#0000FF"/>
<path fill-rule="evenodd" clip-rule="evenodd" d="M498.488 669.774L490.27 665.051V721.728L498.488 726.451V669.774Z" fill="#0000FF"/>
<path fill-rule="evenodd" clip-rule="evenodd" d="M514.83 679.22L506.612 674.497V731.174L514.83 735.897V679.22Z" fill="#0000FF"/>
<path fill-rule="evenodd" clip-rule="evenodd" d="M531.173 688.667L522.954 683.944V740.621L531.173 745.344V688.667Z" fill="#0000FF"/>
<path fill-rule="evenodd" clip-rule="evenodd" d="M465.709 754.793L457.586 750.07V806.747L465.709 811.47V754.793Z" fill="#0000FF"/>
<path fill-rule="evenodd" clip-rule="evenodd" d="M482.052 764.237L473.928 759.514V816.191L482.052 820.914V764.237Z" fill="#0000FF"/>
<path fill-rule="evenodd" clip-rule="evenodd" d="M498.488 773.681L490.27 768.958V825.635L498.488 830.358V773.681Z" fill="#0000FF"/>
<path fill-rule="evenodd" clip-rule="evenodd" d="M514.83 783.128L506.612 778.405V835.082L514.83 839.805V783.128Z" fill="#0000FF"/>
<path fill-rule="evenodd" clip-rule="evenodd" d="M531.172 792.574L522.954 787.851V844.528L531.172 849.251V792.574Z" fill="#0000FF"/>
<path fill-rule="evenodd" clip-rule="evenodd" d="M326.659 570.59L318.44 565.867V622.544L326.659 627.267V570.59Z" fill="url(#paint4_linear_5075_13130)"/>
<path fill-rule="evenodd" clip-rule="evenodd" d="M343.008 580.035L334.79 575.312V631.988L343.008 636.712V580.035Z" fill="url(#paint5_linear_5075_13130)"/>
<path fill-rule="evenodd" clip-rule="evenodd" d="M359.348 589.484L351.224 584.761V641.438L359.348 646.161V589.484Z" fill="url(#paint6_linear_5075_13130)"/>
<path fill-rule="evenodd" clip-rule="evenodd" d="M375.69 598.929L367.566 594.206V650.883L375.69 655.606V598.929Z" fill="url(#paint7_linear_5075_13130)"/>
<path fill-rule="evenodd" clip-rule="evenodd" d="M392.119 608.373L383.901 603.65V660.327L392.119 665.05V608.373Z" fill="url(#paint8_linear_5075_13130)"/>
<path fill-rule="evenodd" clip-rule="evenodd" d="M326.659 674.497L318.44 669.774V726.451L326.659 731.174V674.497Z" fill="url(#paint9_linear_5075_13130)"/>
<path fill-rule="evenodd" clip-rule="evenodd" d="M343.008 683.943L334.79 679.22V735.897L343.008 740.62V683.943Z" fill="url(#paint10_linear_5075_13130)"/>
<path fill-rule="evenodd" clip-rule="evenodd" d="M359.348 693.389L351.224 688.666V745.343L359.348 750.066V693.389Z" fill="url(#paint11_linear_5075_13130)"/>
<path fill-rule="evenodd" clip-rule="evenodd" d="M375.69 702.836L367.566 698.113V754.79L375.69 759.513V702.836Z" fill="url(#paint12_linear_5075_13130)"/>
<path fill-rule="evenodd" clip-rule="evenodd" d="M392.119 712.282L383.901 707.559V764.236L392.119 768.959V712.282Z" fill="url(#paint13_linear_5075_13130)"/>
<path fill-rule="evenodd" clip-rule="evenodd" d="M465.709 650.883L457.586 646.16V702.837L465.709 707.56V650.883Z" fill="url(#paint14_linear_5075_13130)"/>
<path fill-rule="evenodd" clip-rule="evenodd" d="M482.052 660.329L473.928 655.605V712.282L482.052 717.005V660.329Z" fill="url(#paint15_linear_5075_13130)"/>
<path fill-rule="evenodd" clip-rule="evenodd" d="M498.488 669.774L490.27 665.051V721.728L498.488 726.451V669.774Z" fill="url(#paint16_linear_5075_13130)"/>
<path fill-rule="evenodd" clip-rule="evenodd" d="M514.83 679.22L506.612 674.497V731.174L514.83 735.897V679.22Z" fill="url(#paint17_linear_5075_13130)"/>
<path fill-rule="evenodd" clip-rule="evenodd" d="M531.173 688.667L522.954 683.944V740.621L531.173 745.344V688.667Z" fill="url(#paint18_linear_5075_13130)"/>
<path fill-rule="evenodd" clip-rule="evenodd" d="M465.709 754.793L457.586 750.07V806.747L465.709 811.47V754.793Z" fill="url(#paint19_linear_5075_13130)"/>
<path fill-rule="evenodd" clip-rule="evenodd" d="M482.052 764.237L473.928 759.514V816.191L482.052 820.914V764.237Z" fill="url(#paint20_linear_5075_13130)"/>
<path fill-rule="evenodd" clip-rule="evenodd" d="M498.488 773.681L490.27 768.958V825.635L498.488 830.358V773.681Z" fill="url(#paint21_linear_5075_13130)"/>
<path fill-rule="evenodd" clip-rule="evenodd" d="M514.83 783.128L506.612 778.405V835.082L514.83 839.805V783.128Z" fill="url(#paint22_linear_5075_13130)"/>
<path fill-rule="evenodd" clip-rule="evenodd" d="M531.172 792.574L522.954 787.851V844.528L531.172 849.251V792.574Z" fill="url(#paint23_linear_5075_13130)"/>
<path fill-rule="evenodd" clip-rule="evenodd" d="M801.139 277.762L784.797 268.315V287.208L801.139 296.654V277.762Z" fill="white"/>
<path fill-rule="evenodd" clip-rule="evenodd" d="M801.139 372.225L784.797 362.779V381.672L801.139 391.118V372.225Z" fill="white"/>
<path fill-rule="evenodd" clip-rule="evenodd" d="M801.139 324.989L784.797 315.543V334.435L801.139 343.881V324.989Z" fill="white"/>
<path fill-rule="evenodd" clip-rule="evenodd" d="M801.139 419.454L784.797 410.008V428.9L801.139 438.346V419.454Z" fill="white"/>
<path fill-rule="evenodd" clip-rule="evenodd" d="M801.139 466.686L784.797 457.24V476.133L801.139 485.579V466.686Z" fill="white"/>
<path fill-rule="evenodd" clip-rule="evenodd" d="M784.8 457.238L653.876 532.808V551.7L784.8 476.131V457.238ZM784.8 410.008L653.876 485.577V504.469L784.8 428.9V410.008ZM784.8 362.777L653.876 438.346V457.238L784.8 381.669V362.777ZM784.8 315.546L653.876 391.115V410.008L784.8 334.438V315.546ZM784.8 268.315L653.876 343.885V362.777L784.8 287.208V268.315Z" fill="#00FF00"/>
<path fill-rule="evenodd" clip-rule="evenodd" d="M784.8 457.238L653.876 532.808V551.7L784.8 476.131V457.238ZM784.8 410.008L653.876 485.577V504.469L784.8 428.9V410.008ZM784.8 362.777L653.876 438.346V457.238L784.8 381.669V362.777ZM784.8 315.546L653.876 391.115V410.008L784.8 334.438V315.546ZM784.8 268.315L653.876 343.885V362.777L784.8 287.208V268.315Z" fill="url(#paint24_linear_5075_13130)"/>
<path fill-rule="evenodd" clip-rule="evenodd" d="M752.014 693.391L670.211 740.622V750.068L752.014 702.837V693.391ZM752.014 665.053L670.211 712.283V721.73L752.014 674.499V665.053ZM752.014 636.714L670.211 683.945V693.391L752.014 646.16V636.714ZM752.014 608.376L670.211 655.606V665.053L752.014 617.822V608.376ZM752.014 580.037L670.211 627.268V636.714L752.014 589.483V580.037ZM752.014 551.699L670.211 598.93V608.376L752.014 561.145V551.699ZM752.014 523.36L670.211 570.591V580.037L752.014 532.807V523.36Z" fill="#00FF00"/>
<path fill-rule="evenodd" clip-rule="evenodd" d="M752.014 693.391L670.211 740.622V750.068L752.014 702.837V693.391ZM752.014 665.053L670.211 712.283V721.73L752.014 674.499V665.053ZM752.014 636.714L670.211 683.945V693.391L752.014 646.16V636.714ZM752.014 608.376L670.211 655.606V665.053L752.014 617.822V608.376ZM752.014 580.037L670.211 627.268V636.714L752.014 589.483V580.037ZM752.014 551.699L670.211 598.93V608.376L752.014 561.145V551.699ZM752.014 523.36L670.211 570.591V580.037L752.014 532.807V523.36Z" fill="url(#paint25_linear_5075_13130)"/>
<path fill-rule="evenodd" clip-rule="evenodd" d="M522.95 41.6073C527.107 39.1513 532.963 37.7344 539.292 37.7344C545.715 37.7344 551.478 39.2458 555.634 41.6073L833.729 202.192C837.885 204.648 840.53 207.954 840.53 211.638C840.53 215.322 837.979 218.628 833.729 221.084L801.045 239.977L784.703 230.53L637.438 315.546L653.779 324.992L621.096 343.884C616.939 346.34 611.083 347.757 604.754 347.757C598.331 347.757 592.568 346.246 588.412 343.884L310.317 183.3C306.161 180.844 303.516 177.537 303.516 173.853C303.516 170.169 306.067 166.863 310.317 164.407L522.95 41.6073Z" fill="#FF0000"/>
<path fill-rule="evenodd" clip-rule="evenodd" d="M522.95 41.6073C527.107 39.1513 532.963 37.7344 539.292 37.7344C545.715 37.7344 551.478 39.2458 555.634 41.6073L833.729 202.192C837.885 204.648 840.53 207.954 840.53 211.638C840.53 215.322 837.979 218.628 833.729 221.084L801.045 239.977L784.703 230.53L637.438 315.546L653.779 324.992L621.096 343.884C616.939 346.34 611.083 347.757 604.754 347.757C598.331 347.757 592.568 346.246 588.412 343.884L310.317 183.3C306.161 180.844 303.516 177.537 303.516 173.853C303.516 170.169 306.067 166.863 310.317 164.407L522.95 41.6073Z" fill="url(#paint26_linear_5075_13130)"/>
<path fill-rule="evenodd" clip-rule="evenodd" d="M840.617 438.349C840.617 442.033 838.066 445.339 833.815 447.795L801.132 466.687V485.58L833.815 466.687C837.972 464.231 840.617 460.925 840.617 457.241V438.349ZM840.617 391.118C840.617 394.802 838.066 398.108 833.815 400.564L801.132 419.457V438.349L833.815 419.457C837.972 417.001 840.617 413.694 840.617 410.01V391.118ZM840.617 343.887C840.617 347.571 838.066 350.877 833.815 353.333L801.132 372.226V391.118L833.815 372.226C837.972 369.77 840.617 366.464 840.617 362.78V343.887ZM840.617 296.657C840.617 300.341 838.066 303.647 833.815 306.103L801.132 324.995V343.887L833.815 324.995C837.972 322.539 840.617 319.233 840.617 315.549V296.657ZM840.617 249.426C840.617 253.11 838.066 256.416 833.815 258.872L801.132 277.764V296.657L833.815 277.764C837.972 275.308 840.617 272.002 840.617 268.318V249.426Z" fill="#00FF00"/>
<path fill-rule="evenodd" clip-rule="evenodd" d="M840.617 438.349C840.617 442.033 838.066 445.339 833.815 447.795L801.132 466.687V485.58L833.815 466.687C837.972 464.231 840.617 460.925 840.617 457.241V438.349ZM840.617 391.118C840.617 394.802 838.066 398.108 833.815 400.564L801.132 419.457V438.349L833.815 419.457C837.972 417.001 840.617 413.694 840.617 410.01V391.118ZM840.617 343.887C840.617 347.571 838.066 350.877 833.815 353.333L801.132 372.226V391.118L833.815 372.226C837.972 369.77 840.617 366.464 840.617 362.78V343.887ZM840.617 296.657C840.617 300.341 838.066 303.647 833.815 306.103L801.132 324.995V343.887L833.815 324.995C837.972 322.539 840.617 319.233 840.617 315.549V296.657ZM840.617 249.426C840.617 253.11 838.066 256.416 833.815 258.872L801.132 277.764V296.657L833.815 277.764C837.972 275.308 840.617 272.002 840.617 268.318V249.426Z" fill="url(#paint27_linear_5075_13130)"/>
<path fill-rule="evenodd" clip-rule="evenodd" d="M653.875 551.702L621.191 570.595C617.035 573.051 611.178 574.468 604.85 574.468C598.426 574.468 592.664 572.956 588.508 570.595V589.487C592.664 591.943 598.521 593.36 604.85 593.36C611.273 593.36 617.035 591.849 621.191 589.487L653.875 570.595V551.702ZM653.875 504.472L621.191 523.364C617.035 525.82 611.178 527.237 604.85 527.237C598.426 527.237 592.664 525.725 588.508 523.364V542.256C592.664 544.712 598.521 546.129 604.85 546.129C611.273 546.129 617.035 544.618 621.191 542.256L653.875 523.364V504.472ZM653.875 457.241L621.191 476.133C617.035 478.589 611.178 480.006 604.85 480.006C598.426 480.006 592.664 478.495 588.508 476.133V495.025C592.664 497.481 598.521 498.898 604.85 498.898C611.273 498.898 617.035 497.387 621.191 495.025L653.875 476.133V457.241ZM653.875 410.01L621.191 428.902C617.035 431.358 611.178 432.775 604.85 432.775C598.426 432.775 592.664 431.264 588.508 428.902V447.795C592.664 450.251 598.521 451.668 604.85 451.668C611.273 451.668 617.035 450.156 621.191 447.795L653.875 428.902V410.01ZM653.875 362.779L621.191 381.672C617.035 384.128 611.178 385.545 604.85 385.545C598.426 385.545 592.664 384.033 588.508 381.672V400.564C592.664 403.02 598.521 404.437 604.85 404.437C611.273 404.437 617.035 402.925 621.191 400.564L653.875 381.672V362.779Z" fill="#00FF00"/>
<path fill-rule="evenodd" clip-rule="evenodd" d="M653.875 551.702L621.191 570.595C617.035 573.051 611.178 574.468 604.85 574.468C598.426 574.468 592.664 572.956 588.508 570.595V589.487C592.664 591.943 598.521 593.36 604.85 593.36C611.273 593.36 617.035 591.849 621.191 589.487L653.875 570.595V551.702ZM653.875 504.472L621.191 523.364C617.035 525.82 611.178 527.237 604.85 527.237C598.426 527.237 592.664 525.725 588.508 523.364V542.256C592.664 544.712 598.521 546.129 604.85 546.129C611.273 546.129 617.035 544.618 621.191 542.256L653.875 523.364V504.472ZM653.875 457.241L621.191 476.133C617.035 478.589 611.178 480.006 604.85 480.006C598.426 480.006 592.664 478.495 588.508 476.133V495.025C592.664 497.481 598.521 498.898 604.85 498.898C611.273 498.898 617.035 497.387 621.191 495.025L653.875 476.133V457.241ZM653.875 410.01L621.191 428.902C617.035 431.358 611.178 432.775 604.85 432.775C598.426 432.775 592.664 431.264 588.508 428.902V447.795C592.664 450.251 598.521 451.668 604.85 451.668C611.273 451.668 617.035 450.156 621.191 447.795L653.875 428.902V410.01ZM653.875 362.779L621.191 381.672C617.035 384.128 611.178 385.545 604.85 385.545C598.426 385.545 592.664 384.033 588.508 381.672V400.564C592.664 403.02 598.521 404.437 604.85 404.437C611.273 404.437 617.035 402.925 621.191 400.564L653.875 381.672V362.779Z" fill="url(#paint28_linear_5075_13130)"/>
<path fill-rule="evenodd" clip-rule="evenodd" d="M801.139 466.685L784.797 457.238V476.131L801.139 485.577V466.685ZM801.139 419.454L784.797 410.008V428.9L801.139 438.346V419.454ZM801.139 372.223L784.797 362.777V381.669L801.139 391.115V372.223ZM801.139 324.992L784.797 315.546V334.438L801.139 343.885V324.992ZM801.139 277.762L784.797 268.315V287.208L801.139 296.654V277.762Z" fill="#00FF00"/>
<path fill-rule="evenodd" clip-rule="evenodd" d="M801.139 466.685L784.797 457.238V476.131L801.139 485.577V466.685ZM801.139 419.454L784.797 410.008V428.9L801.139 438.346V419.454ZM801.139 372.223L784.797 362.777V381.669L801.139 391.115V372.223ZM801.139 324.992L784.797 315.546V334.438L801.139 343.885V324.992ZM801.139 277.762L784.797 268.315V287.208L801.139 296.654V277.762Z" fill="url(#paint29_linear_5075_13130)"/>
<path d="M331.839 430.04C336.494 432.616 340.1 436.625 342.068 441.42C345.76 450.413 352.075 465.79 356.779 477.246C360.716 486.836 367.928 494.859 377.238 500.012C402.094 513.762 452.635 541.728 475.639 554.458C482.99 558.526 487.519 566.045 487.519 574.181V786.437C487.518 789.344 485.9 792.029 483.273 793.482C480.647 794.936 477.411 794.936 474.784 793.482C446.729 777.961 382.045 742.167 381.846 742.057V727.894L303 684.267V414.081C312.93 419.576 322.103 424.653 331.839 430.04Z" fill="#020202" fill-opacity="0.4"/>
<path fill-rule="evenodd" clip-rule="evenodd" d="M176.307 749.921C174.054 748.333 170.752 748.369 167.076 750.403C160.293 754.157 154.787 763.297 154.787 770.804C154.787 774.271 155.962 776.786 157.895 778.12L157.879 778.144L276.391 843.721L293.822 814.907L176.326 749.892L176.307 749.921Z" fill="url(#paint30_linear_5075_13130)"/>
<path fill-rule="evenodd" clip-rule="evenodd" d="M304.484 806.822C300.642 804.696 295.335 805 289.477 808.242C277.762 814.724 268.25 830.513 268.25 843.479C268.25 849.961 270.628 854.519 274.471 856.645L350.918 898.945L380.39 848.823L304.484 806.822Z" fill="url(#paint31_linear_5075_13130)"/>
<path fill-rule="evenodd" clip-rule="evenodd" d="M304.484 806.822C300.642 804.696 295.335 805 289.477 808.242C277.762 814.724 268.25 830.513 268.25 843.479C268.25 849.961 270.628 854.519 274.471 856.645L350.918 898.945L380.39 848.823L304.484 806.822Z" fill="#020202" fill-opacity="0.1"/>
<path d="M365.653 890.309C357.456 894.844 350.811 891.167 350.811 882.096C350.811 873.025 357.456 861.995 365.653 857.459C373.849 852.924 380.494 856.601 380.494 865.672C380.494 874.743 373.849 885.773 365.653 890.309Z" fill="#2B2B2B"/>
<path d="M365.652 897.381C353.927 903.869 344.422 898.609 344.422 885.634C344.422 872.658 353.927 856.88 365.652 850.392C377.377 843.904 386.882 849.163 386.882 862.139C386.882 875.115 377.377 890.893 365.652 897.381Z" fill="url(#paint32_linear_5075_13130)"/>
<path d="M365.652 897.381C353.927 903.869 344.422 898.609 344.422 885.634C344.422 872.658 353.927 856.88 365.652 850.392C377.377 843.904 386.882 849.163 386.882 862.139C386.882 875.115 377.377 890.893 365.652 897.381Z" fill="#020202" fill-opacity="0.3"/>
<path fill-rule="evenodd" clip-rule="evenodd" d="M359.822 842.442L359.837 812.281H299.893V837.705C299.244 844.358 302.29 853.942 312.129 863.614C325.41 861.419 336.143 859.176 354.243 847.08V847.079C357.786 845.166 359.822 842.442 359.822 842.442Z" fill="url(#paint33_linear_5075_13130)"/>
<path d="M308.602 823.013C296.879 816.526 296.879 806.009 308.602 799.522C320.325 793.036 339.332 793.035 351.055 799.522C362.777 806.009 362.777 816.526 351.054 823.013C339.331 829.5 320.325 829.5 308.602 823.013Z" fill="url(#paint34_linear_5075_13130)"/>
<path d="M308.602 823.013C296.879 816.526 296.879 806.009 308.602 799.522C320.325 793.036 339.332 793.035 351.055 799.522C362.777 806.009 362.777 816.526 351.054 823.013C339.331 829.5 320.325 829.5 308.602 823.013Z" fill="#020202" fill-opacity="0.3"/>
<path fill-rule="evenodd" clip-rule="evenodd" d="M374.934 859.838C372.68 858.213 369.356 858.235 365.652 860.284C358.869 864.037 353.363 873.178 353.363 880.685C353.363 884.064 354.479 886.539 356.325 887.898L356.298 887.938L483.98 958.589L502.039 930.122L374.957 859.803L374.934 859.838Z" fill="url(#paint35_linear_5075_13130)"/>
<path d="M493.223 958.074C486.436 961.83 480.934 958.785 480.934 951.274C480.934 943.763 486.436 934.63 493.223 930.874C500.01 927.119 505.512 930.163 505.512 937.674C505.512 945.185 500.01 954.319 493.223 958.074Z" fill="url(#paint36_linear_5075_13130)"/>
<path d="M493.223 958.074C486.436 961.83 480.934 958.785 480.934 951.274C480.934 943.763 486.436 934.63 493.223 930.874C500.01 927.119 505.512 930.163 505.512 937.674C505.512 945.185 500.01 954.319 493.223 958.074Z" fill="#020202" fill-opacity="0.1"/>
<path fill-rule="evenodd" clip-rule="evenodd" d="M347.205 811.286V641.526L312.452 641.669V810.982H312.46C312.322 813.539 314.015 816.121 317.539 818.071C324.322 821.824 335.335 821.824 342.118 818.071C345.502 816.199 347.198 813.743 347.205 811.286Z" fill="url(#paint37_linear_5075_13130)"/>
<path d="M317.54 648.866C310.753 645.111 310.753 639.022 317.54 635.267C324.327 631.511 335.331 631.511 342.118 635.266C348.905 639.022 348.905 645.111 342.118 648.866C335.331 652.622 324.327 652.622 317.54 648.866Z" fill="url(#paint38_linear_5075_13130)"/>
<path d="M317.54 648.866C310.753 645.111 310.753 639.022 317.54 635.267C324.327 631.511 335.331 631.511 342.118 635.266C348.905 639.022 348.905 645.111 342.118 648.866C335.331 652.622 324.327 652.622 317.54 648.866Z" fill="#020202" fill-opacity="0.15"/>
<path fill-rule="evenodd" clip-rule="evenodd" d="M447.167 570.218C454.518 574.286 459.047 581.803 459.047 589.938V798.538C459.047 800.759 457.81 802.811 455.804 803.921C449.484 807.418 435.387 815.219 426.808 819.965C425.35 820.773 423.552 820.773 422.094 819.965C420.635 819.159 419.736 817.667 419.736 816.052V780.375L224.879 672.553V418.144C224.879 414.89 226.691 411.882 229.631 410.256C232.571 408.628 236.194 408.628 239.135 410.256C265.781 425 283.39 434.743 303.368 445.798C308.023 448.374 311.629 452.386 313.597 457.18C317.289 466.17 323.604 481.55 328.308 493.006C332.244 502.593 339.457 510.618 348.767 515.77C373.622 529.523 424.163 557.489 447.167 570.218Z" fill="url(#paint39_linear_5075_13130)"/>
<path fill-rule="evenodd" clip-rule="evenodd" d="M229.787 410.169L242.503 403.301L242.573 403.262C245.548 401.647 249.195 401.66 252.16 403.301C278.847 418.068 296.025 427.573 316.047 438.652C320.777 441.269 324.441 445.346 326.441 450.217C330.113 459.161 336.332 474.305 341.005 485.685C345.005 495.427 352.334 503.581 361.794 508.816C386.661 522.576 436.751 550.292 459.771 563.03C467.241 567.163 471.842 574.802 471.842 583.069C471.842 702.46 471.842 682.012 471.842 761.014V803.863C471.842 807.17 470.001 810.226 467.013 811.879C458.428 816.63 441.398 826.053 441.398 826.053V811.891L455.803 803.921C457.809 802.81 459.045 800.758 459.045 798.538V589.937C459.045 581.802 454.517 574.285 447.166 570.217C424.162 557.488 373.621 529.522 348.765 515.768C339.455 510.617 332.243 502.592 328.306 493.005C323.602 481.549 317.287 466.169 313.596 457.179C311.627 452.385 308.021 448.372 303.366 445.797C283.388 434.742 265.779 424.998 239.133 410.254C236.245 408.656 232.699 408.628 229.787 410.169Z" fill="url(#paint40_linear_5075_13130)"/>
<path fill-rule="evenodd" clip-rule="evenodd" d="M446.159 793.685C446.159 795.835 444.962 797.822 443.019 798.897C435.009 803.329 414.443 814.709 414.443 814.709L191.026 691.084L240.244 663.85V490.499L446.159 604.439V793.685Z" fill="#020202" fill-opacity="0.3"/>
<path d="M233.768 494.079L439.733 608.047V793.606L233.768 679.637V494.079Z" fill="url(#paint41_linear_5075_13130)"/>
<path d="M233.77 500.086L432.072 609.814V789.364L233.77 679.636V500.086Z" fill="#020202" fill-opacity="0.2"/>
<path d="M221.498 499.302L427.463 613.271V798.829L221.498 684.861V499.302Z" fill="url(#paint42_linear_5075_13130)"/>
<path d="M221.502 505.633L419.416 615.146V794.373L221.502 684.86V505.633Z" fill="#020202" fill-opacity="0.2"/>
<path d="M209.24 504.376L415.205 618.345V803.903L209.24 689.935V504.376Z" fill="url(#paint43_linear_5075_13130)"/>
<path d="M209.239 522.866L415.205 636.834V803.899L209.239 689.931V522.866Z" fill="#020202" fill-opacity="0.1"/>
<path fill-rule="evenodd" clip-rule="evenodd" d="M408.386 822.101V675.737C408.386 663.69 401.679 652.557 390.793 646.533C342.39 619.751 246.226 566.539 193.883 537.576C189.528 535.166 184.163 535.166 179.809 537.576C175.454 539.985 172.772 544.438 172.772 549.257C172.772 593.747 172.772 664.204 172.772 692.964C172.772 698.174 175.672 702.989 180.38 705.594L413.117 834.376V834.371C408.962 831.911 408.386 826.838 408.386 822.101Z" fill="url(#paint44_linear_5075_13130)"/>
<path fill-rule="evenodd" clip-rule="evenodd" d="M179.808 537.576C184.163 535.167 189.528 535.167 193.882 537.576C246.225 566.54 342.391 619.751 390.793 646.534C401.679 652.558 408.386 663.691 408.386 675.739V822.102C408.386 826.839 408.963 831.912 413.115 834.372C413.188 834.415 413.262 834.457 413.337 834.499C415.62 835.762 418.183 836.166 420.733 835.919C422.826 835.777 424.893 835.185 426.773 834.146L441.399 826.052V811.891C441.399 811.891 435.726 815.03 430.186 818.095L429.828 818.28L429.796 818.295C429.61 818.384 429.42 818.464 429.228 818.536L429.143 818.567C429.035 818.606 428.927 818.641 428.819 818.674C428.796 818.682 428.773 818.688 428.75 818.695C428.646 818.726 428.541 818.754 428.436 818.78L428.181 818.838C428.1 818.855 428.019 818.87 427.938 818.884L427.603 818.934L427.266 818.968L427.041 818.982C427.007 818.984 426.972 818.985 426.939 818.986C426.86 818.989 426.781 818.99 426.703 818.99C426.55 818.99 426.396 818.985 426.243 818.975L425.922 818.948C425.439 818.896 424.962 818.795 424.497 818.647C424.436 818.627 424.376 818.607 424.316 818.586C424.132 818.522 423.951 818.45 423.772 818.371C423.645 818.314 423.518 818.253 423.393 818.188L423.219 818.095L422.97 817.951L422.729 817.798C422.634 817.735 422.542 817.67 422.451 817.602C422.256 817.459 422.071 817.306 421.895 817.145L421.887 817.139C421.736 817 421.593 816.856 421.456 816.706L421.41 816.655C421.327 816.562 421.247 816.467 421.17 816.37L421.003 816.152L420.815 815.883L420.745 815.774C420.612 815.564 420.491 815.347 420.383 815.124L420.36 815.075C420.235 814.812 420.128 814.541 420.04 814.264L420.002 814.142C419.962 814.008 419.927 813.873 419.896 813.737L419.841 813.469C419.804 813.266 419.776 813.06 419.759 812.852L419.753 812.78C419.741 812.625 419.736 812.469 419.736 812.313V666.246C419.736 654.199 413.029 643.066 402.143 637.042C353.95 610.375 258.793 557.721 206.679 528.884C202.324 526.475 196.959 526.475 192.605 528.884C191.84 529.307 191.127 529.794 190.472 530.334L179.808 537.576Z" fill="url(#paint45_linear_5075_13130)"/>
<path fill-rule="evenodd" clip-rule="evenodd" d="M374.691 684.469L345.432 668.279V742.723L374.268 758.679C383.404 763.733 390.005 764.225 394.195 760.548C397.068 758.029 398.497 754.228 398.497 749.155C398.497 742.996 396.787 737.255 393.527 731.953L393.524 731.949C392.574 730.408 391.375 728.776 389.919 727.057C390.519 726.832 391.05 726.554 391.513 726.224C394.135 724.401 395.497 720.982 395.497 715.872C395.497 711.537 394.427 707.125 392.32 702.644L392.318 702.639C388.811 695.216 382.986 689.059 374.691 684.469ZM374.395 745.071L358.848 736.468V718.009L372.958 725.817C376.073 727.54 378.583 729.313 380.477 731.216L380.48 731.218C383.455 734.2 384.912 737.535 384.912 741.216C384.912 743.513 384.411 745.204 383.342 746.233C381.573 747.911 378.544 747.367 374.395 745.071ZM371.563 711.788L358.848 704.752V689.194L371.268 696.066C374.478 697.842 376.907 699.502 378.538 701.17C380.853 703.547 381.911 706.323 381.911 709.477C381.911 712.672 380.912 714.397 378.692 714.397C376.997 714.397 374.613 713.476 371.563 711.788Z" fill="#020202" fill-opacity="0.4"/>
<path fill-rule="evenodd" clip-rule="evenodd" d="M278.206 662.674L291.394 712.821L303.429 719.481L316.528 683.862V726.729L329.69 734.012V659.569L313.326 650.513L297.464 693.771L281.488 632.896L265.001 623.773V698.217L278.206 705.524V662.674Z" fill="#020202" fill-opacity="0.4"/>
<path fill-rule="evenodd" clip-rule="evenodd" d="M209.703 642.425L209.567 639.646L196.662 632.506L196.63 635.315C196.535 643.606 199.002 651.553 203.911 659.143C208.703 666.584 215.305 672.732 223.775 677.418C230.9 681.361 237.147 683.03 242.528 682.485C248.304 681.9 251.301 677.336 251.301 668.55C251.301 661.415 248.934 654.697 244.329 648.399L244.324 648.392C241.81 644.975 238.265 641.373 233.65 637.654L224.946 630.64C219.458 626.202 215.912 623.122 214.337 621.314C212.663 619.354 211.863 617.272 211.863 615.058C211.863 612.779 212.706 611.263 214.324 610.437C216.119 609.521 219.121 610.429 223.225 612.7C228.372 615.548 232.094 618.887 234.248 623.078C235.396 625.352 236.075 628.1 236.426 631.349L236.713 634.01L249.483 641.076V638.214C249.483 629.464 246.751 621.651 241.54 614.786C236.583 608.255 230.569 602.993 223.479 599.069C215.633 594.728 209.603 593.701 205.32 595.725C200.923 597.803 198.701 602.333 198.701 609.365C198.701 616.146 201.097 622.538 205.785 628.541L205.787 628.544C208.241 631.679 212.399 635.665 218.302 640.406C218.301 640.405 226.709 647.161 226.709 647.161C230.864 650.511 233.937 653.395 235.896 655.896C237.361 657.819 237.927 660.056 237.927 662.646C237.927 666.395 235.908 667.757 232.139 667.125C229.803 666.731 227.211 665.735 224.367 664.162C218.393 660.856 214.138 656.8 211.766 651.633C210.522 648.876 209.87 645.818 209.703 642.425Z" fill="#020202" fill-opacity="0.4"/>
<path fill-rule="evenodd" clip-rule="evenodd" d="M360.993 692.053L331.734 675.863V750.307L360.571 766.263C369.706 771.317 376.307 771.809 380.497 768.132C383.37 765.613 384.799 761.812 384.799 756.739C384.799 750.58 383.089 744.839 379.829 739.537L379.826 739.533C378.876 737.992 377.677 736.36 376.221 734.641C376.821 734.416 377.352 734.138 377.815 733.808C380.437 731.985 381.799 728.566 381.799 723.456C381.799 719.121 380.729 714.709 378.622 710.228L378.62 710.223C375.113 702.8 369.288 696.643 360.993 692.053ZM360.697 752.655L345.15 744.052V725.593L359.26 733.401C362.375 735.124 364.886 736.897 366.779 738.8L366.782 738.802C369.757 741.784 371.214 745.119 371.214 748.8C371.214 751.097 370.713 752.788 369.644 753.817C367.875 755.495 364.846 754.951 360.697 752.655ZM357.865 719.372L345.15 712.336V696.778L357.57 703.65C360.78 705.426 363.209 707.086 364.841 708.754C367.155 711.131 368.213 713.907 368.213 717.061C368.213 720.256 367.214 721.981 364.994 721.981C363.299 721.981 360.915 721.06 357.865 719.372Z" fill="url(#paint46_linear_5075_13130)"/>
<path fill-rule="evenodd" clip-rule="evenodd" d="M385.746 729.37C387.202 731.089 388.401 732.722 389.352 734.262L389.354 734.266C392.614 739.569 394.325 745.31 394.325 751.468C394.325 756.541 392.895 760.342 390.023 762.861C389.443 763.37 388.817 763.798 388.145 764.147L388.146 764.151L378.843 769.298L378.844 769.298C379.432 768.972 379.982 768.584 380.497 768.132C383.37 765.613 384.8 761.812 384.8 756.739C384.8 750.58 383.089 744.839 379.829 739.537L379.826 739.533C378.876 737.992 377.677 736.36 376.221 734.641L385.746 729.37Z" fill="url(#paint47_linear_5075_13130)"/>
<path fill-rule="evenodd" clip-rule="evenodd" d="M376.221 734.64C376.821 734.416 377.352 734.137 377.815 733.807C380.437 731.984 381.799 728.565 381.799 723.455C381.799 719.12 380.729 714.708 378.623 710.227L378.62 710.223C377.9 708.698 377.082 707.226 376.165 705.811C375.939 705.43 375.688 705.057 375.41 704.692C371.916 699.702 367.131 695.448 360.993 692.052L331.734 675.863L341.26 670.592L370.519 686.782C378.814 691.372 384.639 697.529 388.146 704.952L388.148 704.956C390.254 709.438 391.324 713.849 391.324 718.184C391.324 723.295 389.962 726.713 387.34 728.536C386.877 728.866 386.346 729.145 385.746 729.369L376.221 734.64Z" fill="url(#paint48_linear_5075_13130)"/>
<path fill-rule="evenodd" clip-rule="evenodd" d="M354.676 738.78L370.222 747.383C370.55 747.564 370.87 747.734 371.184 747.894C371.204 748.193 371.214 748.495 371.214 748.799C371.214 751.095 370.713 752.787 369.644 753.815C367.874 755.494 364.845 754.949 360.697 752.654L345.151 744.051L354.676 738.78Z" fill="url(#paint49_linear_5075_13130)"/>
<path fill-rule="evenodd" clip-rule="evenodd" d="M345.151 744.051V725.592L354.676 730.863V738.78L345.151 744.051Z" fill="url(#paint50_linear_5075_13130)"/>
<path fill-rule="evenodd" clip-rule="evenodd" d="M354.676 707.063L367.39 714.099C367.576 714.202 367.758 714.301 367.938 714.398C368.123 715.252 368.213 716.14 368.213 717.059C368.213 720.254 367.213 721.979 364.993 721.979C363.299 721.979 360.915 721.058 357.865 719.37L345.151 712.334L354.676 707.063Z" fill="url(#paint51_linear_5075_13130)"/>
<path fill-rule="evenodd" clip-rule="evenodd" d="M345.151 712.334V696.775L354.676 702.046V707.063L345.151 712.334Z" fill="url(#paint52_linear_5075_13130)"/>
<path fill-rule="evenodd" clip-rule="evenodd" d="M264.508 670.257L277.696 720.404L289.731 727.064L302.83 691.445V734.312L315.992 741.595V667.152L299.628 658.096L283.766 701.354L267.79 640.479L251.303 631.356V705.8L264.508 713.107V670.257Z" fill="url(#paint53_linear_5075_13130)"/>
<path fill-rule="evenodd" clip-rule="evenodd" d="M315.991 667.153V741.555L325.516 736.326V661.882L315.991 667.153Z" fill="url(#paint54_linear_5075_13130)"/>
<path fill-rule="evenodd" clip-rule="evenodd" d="M325.516 661.882L309.151 652.827L309.071 653.047L299.784 658.185L315.99 667.153L325.516 661.882Z" fill="url(#paint55_linear_5075_13130)"/>
<path fill-rule="evenodd" clip-rule="evenodd" d="M302.829 712.076V691.445L289.73 727.064L299.255 721.793L302.829 712.076Z" fill="url(#paint56_linear_5075_13130)"/>
<path fill-rule="evenodd" clip-rule="evenodd" d="M274.397 707.865L264.507 670.256V713.106L274.032 707.835L274.397 707.865Z" fill="url(#paint57_linear_5075_13130)"/>
<path fill-rule="evenodd" clip-rule="evenodd" d="M267.788 640.479L283.764 701.354L290.122 684.015L277.313 635.208L267.788 640.479Z" fill="url(#paint58_linear_5075_13130)"/>
<path fill-rule="evenodd" clip-rule="evenodd" d="M277.315 635.207L260.829 626.084L251.303 631.355L267.79 640.478L277.315 635.207Z" fill="url(#paint59_linear_5075_13130)"/>
<path fill-rule="evenodd" clip-rule="evenodd" d="M196.002 650.004L195.865 647.225L182.96 640.085L182.928 642.894C182.833 651.185 185.3 659.132 190.209 666.722C195.001 674.163 201.603 680.311 210.073 684.998C217.198 688.94 223.445 690.609 228.827 690.064C234.602 689.479 237.599 684.915 237.599 676.129C237.599 668.994 235.233 662.276 230.628 655.978L230.622 655.971C228.109 652.554 224.563 648.953 219.948 645.233L211.244 638.219C205.756 633.781 202.211 630.701 200.635 628.894C198.961 626.934 198.162 624.851 198.162 622.637C198.162 620.358 199.004 618.842 200.622 618.017C202.418 617.1 205.419 618.008 209.524 620.28C214.67 623.127 218.392 626.466 220.546 630.657C221.694 632.931 222.373 635.679 222.724 638.928L223.011 641.589L235.782 648.655V645.793C235.782 637.044 233.049 629.23 227.838 622.365C222.881 615.834 216.868 610.572 209.778 606.648C201.931 602.307 195.901 601.281 191.618 603.304C187.222 605.382 184.999 609.912 184.999 616.944C184.999 623.726 187.395 630.117 192.083 636.121L192.085 636.123C194.539 639.258 198.697 643.244 204.601 647.985C204.6 647.984 213.008 654.74 213.008 654.74C217.162 658.09 220.235 660.974 222.194 663.475C223.659 665.398 224.225 667.635 224.225 670.225C224.225 673.974 222.206 675.336 218.438 674.704C216.101 674.31 213.509 673.314 210.665 671.741C204.691 668.435 200.436 664.379 198.064 659.212C196.821 656.455 196.169 653.397 196.002 650.004Z" fill="url(#paint60_linear_5075_13130)"/>
<path fill-rule="evenodd" clip-rule="evenodd" d="M235.783 648.658L223.013 641.592L222.726 638.931C222.629 638.034 222.508 637.176 222.357 636.355L219.207 633.816C213.719 629.378 210.174 626.299 208.598 624.49C207.021 622.644 206.221 620.689 206.133 618.619C203.729 617.63 201.881 617.377 200.624 618.019C199.006 618.845 198.163 620.361 198.163 622.639C198.163 624.853 198.963 626.936 200.637 628.896C202.212 630.704 205.758 633.783 211.246 638.221L219.95 645.236C224.565 648.955 228.111 652.556 230.625 655.974L230.629 655.981C235.234 662.278 237.601 668.996 237.601 676.131C237.601 683.013 235.762 687.305 232.189 689.123L232.188 689.129L239.406 685.136V685.051C243.468 683.465 245.562 679.071 245.562 671.725C245.562 664.591 243.196 657.873 238.591 651.575L238.586 651.568C237.843 650.558 237.01 649.532 236.085 648.491L235.783 648.658Z" fill="url(#paint61_linear_5075_13130)"/>
<path fill-rule="evenodd" clip-rule="evenodd" d="M235.785 648.657L243.746 644.251V641.388C243.746 632.639 241.014 624.826 235.802 617.96C230.845 611.43 224.832 606.167 217.742 602.244C209.896 597.903 203.865 596.876 199.582 598.9C199.156 599.102 198.749 599.327 198.363 599.575L191.621 603.305C195.904 601.282 201.934 602.308 209.78 606.649C216.871 610.573 222.884 615.835 227.841 622.366C233.052 629.231 235.785 637.045 235.785 645.794V648.657Z" fill="url(#paint62_linear_5075_13130)"/>
<path fill-rule="evenodd" clip-rule="evenodd" d="M195.867 647.225L196.004 650.004C196.171 653.397 196.823 656.454 198.066 659.212C200.437 664.378 204.693 668.435 210.666 671.741C213.511 673.314 216.103 674.31 218.439 674.703C222.208 675.336 224.227 673.974 224.227 670.225C224.227 670.075 224.225 669.926 224.221 669.78C222.48 669.252 220.616 668.435 218.628 667.335C212.655 664.03 208.399 659.973 206.028 654.807C205.033 652.602 204.417 650.205 204.125 647.599C202.854 646.572 201.668 645.581 200.564 644.626L195.867 647.225Z" fill="url(#paint63_linear_5075_13130)"/>
<path fill-rule="evenodd" clip-rule="evenodd" d="M200.563 644.627C196.946 641.501 194.22 638.774 192.369 636.482L190.922 635.681L182.96 640.086L195.865 647.227L200.563 644.627Z" fill="url(#paint64_linear_5075_13130)"/>
<path opacity="0.2" fill-rule="evenodd" clip-rule="evenodd" d="M539.547 38.1562C545.97 38.1563 551.732 39.6678 555.889 42.0293L833.983 202.614C838.14 205.07 840.784 208.377 840.784 212.061L840.783 212.064L840.871 212.059V797.72C840.871 801.404 838.32 804.71 834.069 807.166L801.394 826.053V826.06L801.388 826.056L801.386 826.058V826.055L785.053 816.614L654.129 892.196V911.077L621.445 929.969C617.289 932.425 611.432 933.842 605.104 933.842C598.68 933.842 592.917 932.33 588.761 929.969L424.506 835.152C423.282 835.575 422.012 835.831 420.732 835.918C418.183 836.165 415.619 835.76 413.337 834.498C413.263 834.457 413.189 834.415 413.117 834.372V834.376L355.018 802.228C358.582 805.262 360.171 808.797 359.789 812.28H359.837L359.824 837.442L380.335 848.792C384.369 850.836 386.882 855.467 386.882 862.138C386.882 863.478 386.779 864.849 386.584 866.236L501.774 929.975C504.079 931.171 505.513 933.84 505.513 937.673C505.513 945.184 500.011 954.318 493.224 958.073C489.548 960.107 486.249 960.145 483.997 958.561L483.979 958.589L369.208 895.081C368.051 895.937 366.864 896.709 365.652 897.38C359.571 900.745 354.087 900.949 350.217 898.556L274.471 856.644C270.628 854.517 268.25 849.96 268.25 843.478C268.25 842.138 268.353 840.768 268.548 839.381L157.879 778.145L157.895 778.12C155.962 776.786 154.787 774.27 154.787 770.804C154.787 763.297 160.293 754.157 167.076 750.403C170.752 748.369 174.054 748.333 176.307 749.921L176.326 749.892L285.924 810.536C287.079 809.681 288.267 808.911 289.478 808.241C292.773 806.418 295.893 805.524 298.677 805.469C298.986 805.463 299.291 805.467 299.592 805.481C300.193 805.51 300.777 805.581 301.342 805.69C301.402 805.702 301.461 805.716 301.521 805.729C302.966 803.462 305.326 801.334 308.602 799.521C309.813 798.851 311.102 798.251 312.452 797.72V778.674L180.38 705.594C175.672 702.988 172.772 698.174 172.771 692.964V549.257C172.772 544.438 175.454 539.985 179.809 537.576L190.472 530.333C191.127 529.793 191.84 529.307 192.604 528.884C196.959 526.474 202.324 526.474 206.679 528.884C207.521 529.35 208.375 529.822 209.239 530.3V504.376L221.498 511.158V499.302L224.879 501.172V418.144C224.879 414.889 226.691 411.882 229.631 410.255C229.712 410.21 229.796 410.164 229.884 410.118C229.851 410.135 229.819 410.152 229.787 410.169L242.503 403.301L242.572 403.262C245.547 401.647 249.195 401.66 252.159 403.301C273.277 414.986 288.441 423.376 303.771 431.858V174.275C303.771 170.592 306.322 167.285 310.572 164.829L523.205 42.0293C527.361 39.5733 533.218 38.1563 539.547 38.1562ZM303.368 445.798C303.503 445.873 303.637 445.948 303.771 446.025C303.637 445.948 303.502 445.871 303.366 445.796C303.326 445.774 303.286 445.752 303.246 445.729C303.287 445.752 303.327 445.775 303.368 445.798Z" fill="black"/>
<defs>
<linearGradient id="paint0_linear_5075_13130" x1="637.534" y1="565.869" x2="784.8" y2="565.869" gradientUnits="userSpaceOnUse">
<stop stop-color="#020202" stop-opacity="0.6"/>
<stop offset="1" stop-color="#020202" stop-opacity="0.5"/>
</linearGradient>
<linearGradient id="paint1_linear_5075_13130" x1="653.874" y1="587.978" x2="297.403" y2="587.601" gradientUnits="userSpaceOnUse">
<stop stop-color="#020202" stop-opacity="0"/>
<stop offset="1" stop-color="#020202" stop-opacity="0.2"/>
</linearGradient>
<linearGradient id="paint2_linear_5075_13130" x1="801.139" y1="559.132" x2="784.712" y2="559.113" gradientUnits="userSpaceOnUse">
<stop stop-color="#020202" stop-opacity="0.1"/>
<stop offset="1" stop-color="#020202" stop-opacity="0.2"/>
</linearGradient>
<linearGradient id="paint3_linear_5075_13130" x1="840.616" y1="550.668" x2="800.926" y2="550.561" gradientUnits="userSpaceOnUse">
<stop stop-color="#020202" stop-opacity="0.2"/>
<stop offset="1" stop-color="#020202" stop-opacity="0"/>
</linearGradient>
<linearGradient id="paint4_linear_5075_13130" x1="318.44" y1="596.567" x2="326.659" y2="596.567" gradientUnits="userSpaceOnUse">
<stop stop-opacity="0.9"/>
<stop offset="1" stop-opacity="0.9"/>
</linearGradient>
<linearGradient id="paint5_linear_5075_13130" x1="334.79" y1="606.012" x2="343.008" y2="606.012" gradientUnits="userSpaceOnUse">
<stop stop-opacity="0.9"/>
<stop offset="1" stop-opacity="0.9"/>
</linearGradient>
<linearGradient id="paint6_linear_5075_13130" x1="351.224" y1="615.461" x2="359.348" y2="615.461" gradientUnits="userSpaceOnUse">
<stop stop-opacity="0.9"/>
<stop offset="1" stop-opacity="0.9"/>
</linearGradient>
<linearGradient id="paint7_linear_5075_13130" x1="367.566" y1="624.906" x2="375.69" y2="624.906" gradientUnits="userSpaceOnUse">
<stop stop-opacity="0.9"/>
<stop offset="1" stop-opacity="0.9"/>
</linearGradient>
<linearGradient id="paint8_linear_5075_13130" x1="383.901" y1="634.35" x2="392.119" y2="634.35" gradientUnits="userSpaceOnUse">
<stop stop-opacity="0.9"/>
<stop offset="1" stop-opacity="0.9"/>
</linearGradient>
<linearGradient id="paint9_linear_5075_13130" x1="318.44" y1="700.474" x2="326.659" y2="700.474" gradientUnits="userSpaceOnUse">
<stop stop-opacity="0.9"/>
<stop offset="1" stop-opacity="0.9"/>
</linearGradient>
<linearGradient id="paint10_linear_5075_13130" x1="334.79" y1="709.92" x2="343.008" y2="709.92" gradientUnits="userSpaceOnUse">
<stop stop-opacity="0.9"/>
<stop offset="1" stop-opacity="0.9"/>
</linearGradient>
<linearGradient id="paint11_linear_5075_13130" x1="351.224" y1="719.366" x2="359.348" y2="719.366" gradientUnits="userSpaceOnUse">
<stop stop-opacity="0.9"/>
<stop offset="1" stop-opacity="0.9"/>
</linearGradient>
<linearGradient id="paint12_linear_5075_13130" x1="367.566" y1="728.813" x2="375.69" y2="728.813" gradientUnits="userSpaceOnUse">
<stop stop-opacity="0.9"/>
<stop offset="1" stop-opacity="0.9"/>
</linearGradient>
<linearGradient id="paint13_linear_5075_13130" x1="383.901" y1="738.259" x2="392.119" y2="738.259" gradientUnits="userSpaceOnUse">
<stop stop-opacity="0.9"/>
<stop offset="1" stop-opacity="0.9"/>
</linearGradient>
<linearGradient id="paint14_linear_5075_13130" x1="457.586" y1="676.86" x2="465.709" y2="676.86" gradientUnits="userSpaceOnUse">
<stop stop-opacity="0.9"/>
<stop offset="1" stop-opacity="0.9"/>
</linearGradient>
<linearGradient id="paint15_linear_5075_13130" x1="473.928" y1="686.305" x2="482.052" y2="686.305" gradientUnits="userSpaceOnUse">
<stop stop-opacity="0.9"/>
<stop offset="1" stop-opacity="0.9"/>
</linearGradient>
<linearGradient id="paint16_linear_5075_13130" x1="490.27" y1="695.751" x2="498.488" y2="695.751" gradientUnits="userSpaceOnUse">
<stop stop-opacity="0.9"/>
<stop offset="1" stop-opacity="0.9"/>
</linearGradient>
<linearGradient id="paint17_linear_5075_13130" x1="506.612" y1="705.197" x2="514.83" y2="705.197" gradientUnits="userSpaceOnUse">
<stop stop-opacity="0.9"/>
<stop offset="1" stop-opacity="0.9"/>
</linearGradient>
<linearGradient id="paint18_linear_5075_13130" x1="522.954" y1="714.644" x2="531.173" y2="714.644" gradientUnits="userSpaceOnUse">
<stop stop-opacity="0.9"/>
<stop offset="1" stop-opacity="0.9"/>
</linearGradient>
<linearGradient id="paint19_linear_5075_13130" x1="457.586" y1="780.77" x2="465.709" y2="780.77" gradientUnits="userSpaceOnUse">
<stop stop-opacity="0.9"/>
<stop offset="1" stop-opacity="0.9"/>
</linearGradient>
<linearGradient id="paint20_linear_5075_13130" x1="473.928" y1="790.214" x2="482.052" y2="790.214" gradientUnits="userSpaceOnUse">
<stop stop-opacity="0.9"/>
<stop offset="1" stop-opacity="0.9"/>
</linearGradient>
<linearGradient id="paint21_linear_5075_13130" x1="490.27" y1="799.658" x2="498.488" y2="799.658" gradientUnits="userSpaceOnUse">
<stop stop-opacity="0.9"/>
<stop offset="1" stop-opacity="0.9"/>
</linearGradient>
<linearGradient id="paint22_linear_5075_13130" x1="506.612" y1="809.105" x2="514.83" y2="809.105" gradientUnits="userSpaceOnUse">
<stop stop-opacity="0.9"/>
<stop offset="1" stop-opacity="0.9"/>
</linearGradient>
<linearGradient id="paint23_linear_5075_13130" x1="522.954" y1="818.551" x2="531.172" y2="818.551" gradientUnits="userSpaceOnUse">
<stop stop-opacity="0.9"/>
<stop offset="1" stop-opacity="0.9"/>
</linearGradient>
<linearGradient id="paint24_linear_5075_13130" x1="784.8" y1="381.052" x2="652.184" y2="385.226" gradientUnits="userSpaceOnUse">
<stop stop-color="#FEFEFE" stop-opacity="0.3"/>
<stop offset="1" stop-color="#FEFEFE" stop-opacity="0"/>
</linearGradient>
<linearGradient id="paint25_linear_5075_13130" x1="752.014" y1="613.549" x2="669.122" y2="615.587" gradientUnits="userSpaceOnUse">
<stop stop-color="#FEFEFE" stop-opacity="0.1"/>
<stop offset="1" stop-color="#FEFEFE" stop-opacity="0.3"/>
</linearGradient>
<linearGradient id="paint26_linear_5075_13130" x1="840.53" y1="208.427" x2="380.883" y2="221.579" gradientUnits="userSpaceOnUse">
<stop stop-color="#020202" stop-opacity="0.2"/>
<stop offset="1" stop-color="#020202" stop-opacity="0"/>
</linearGradient>
<linearGradient id="paint27_linear_5075_13130" x1="840.617" y1="343.373" x2="800.587" y2="343.829" gradientUnits="userSpaceOnUse">
<stop stop-color="#FEFEFE" stop-opacity="0.1"/>
<stop offset="0.595" stop-color="#FEFEFE" stop-opacity="0.3"/>
</linearGradient>
<linearGradient id="paint28_linear_5075_13130" x1="653.875" y1="454.51" x2="587.623" y2="455.789" gradientUnits="userSpaceOnUse">
<stop stop-color="#FEFEFE" stop-opacity="0.1"/>
<stop offset="1" stop-color="#FEFEFE" stop-opacity="0.3"/>
</linearGradient>
<linearGradient id="paint29_linear_5075_13130" x1="801.139" y1="354.747" x2="784.57" y2="354.831" gradientUnits="userSpaceOnUse">
<stop stop-color="#FEFEFE" stop-opacity="0.1"/>
<stop offset="1" stop-color="#FEFEFE" stop-opacity="0"/>
</linearGradient>
<linearGradient id="paint30_linear_5075_13130" x1="239.732" y1="788.571" x2="225.297" y2="816.563" gradientUnits="userSpaceOnUse">
<stop stop-color="#F9F9F9"/>
<stop offset="1" stop-color="#BEBEBE"/>
</linearGradient>
<linearGradient id="paint31_linear_5075_13130" x1="302.912" y1="873.884" x2="337.041" y2="823.265" gradientUnits="userSpaceOnUse">
<stop stop-color="#72BBEC"/>
<stop offset="0.5" stop-color="#4EAAE7"/>
<stop offset="1" stop-color="#2296E2"/>
</linearGradient>
<linearGradient id="paint32_linear_5075_13130" x1="348.331" y1="870.18" x2="379.899" y2="885.357" gradientUnits="userSpaceOnUse">
<stop stop-color="#2296E2"/>
<stop offset="0.5" stop-color="#4EAAE7"/>
<stop offset="1" stop-color="#72BBEC"/>
</linearGradient>
<linearGradient id="paint33_linear_5075_13130" x1="300.771" y1="833.257" x2="358.683" y2="827.608" gradientUnits="userSpaceOnUse">
<stop stop-color="#72BBEC"/>
<stop offset="0.5" stop-color="#4EAAE7"/>
<stop offset="1" stop-color="#2296E2"/>
</linearGradient>
<linearGradient id="paint34_linear_5075_13130" x1="359.841" y1="807.234" x2="302.862" y2="816.807" gradientUnits="userSpaceOnUse">
<stop stop-color="#72BBEC"/>
<stop offset="0.5" stop-color="#4EAAE7"/>
<stop offset="1" stop-color="#2296E2"/>
</linearGradient>
<linearGradient id="paint35_linear_5075_13130" x1="427.701" y1="889.133" x2="411.674" y2="918.486" gradientUnits="userSpaceOnUse">
<stop stop-color="#F9F9F9"/>
<stop offset="1" stop-color="#BEBEBE"/>
</linearGradient>
<linearGradient id="paint36_linear_5075_13130" x1="502.041" y1="949.834" x2="485.864" y2="935.518" gradientUnits="userSpaceOnUse">
<stop stop-color="#F9F9F9"/>
<stop offset="1" stop-color="#BEBEBE"/>
</linearGradient>
<linearGradient id="paint37_linear_5075_13130" x1="312.452" y1="731.206" x2="350.123" y2="731.206" gradientUnits="userSpaceOnUse">
<stop stop-color="#F9F9F9"/>
<stop offset="1" stop-color="#BEBEBE"/>
</linearGradient>
<linearGradient id="paint38_linear_5075_13130" x1="317.376" y1="647.548" x2="339.02" y2="631.585" gradientUnits="userSpaceOnUse">
<stop stop-color="#BEBEBE"/>
<stop offset="1" stop-color="#F9F9F9"/>
</linearGradient>
<linearGradient id="paint39_linear_5075_13130" x1="453.102" y1="579.536" x2="233.119" y2="683.693" gradientUnits="userSpaceOnUse">
<stop stop-color="#2296E2"/>
<stop offset="0.5" stop-color="#4EAAE7"/>
<stop offset="1" stop-color="#72BBEC"/>
</linearGradient>
<linearGradient id="paint40_linear_5075_13130" x1="471.842" y1="809.207" x2="259.104" y2="394.538" gradientUnits="userSpaceOnUse">
<stop stop-color="#BADFF6"/>
<stop offset="0.5" stop-color="#A6D6F4"/>
<stop offset="1" stop-color="#96CEF2"/>
</linearGradient>
<linearGradient id="paint41_linear_5075_13130" x1="344.984" y1="738.7" x2="349.831" y2="560.313" gradientUnits="userSpaceOnUse">
<stop stop-color="#E2E2E2"/>
<stop offset="0.5" stop-color="#E8E8E8"/>
<stop offset="1" stop-color="#F4F4F4"/>
</linearGradient>
<linearGradient id="paint42_linear_5075_13130" x1="332.715" y1="743.924" x2="337.561" y2="565.537" gradientUnits="userSpaceOnUse">
<stop stop-color="#E2E2E2"/>
<stop offset="0.5" stop-color="#E8E8E8"/>
<stop offset="1" stop-color="#F4F4F4"/>
</linearGradient>
<linearGradient id="paint43_linear_5075_13130" x1="320.456" y1="748.998" x2="325.303" y2="570.611" gradientUnits="userSpaceOnUse">
<stop stop-color="#E2E2E2"/>
<stop offset="0.5" stop-color="#E8E8E8"/>
<stop offset="1" stop-color="#F4F4F4"/>
</linearGradient>
<linearGradient id="paint44_linear_5075_13130" x1="408.631" y1="829.555" x2="192.236" y2="535.457" gradientUnits="userSpaceOnUse">
<stop stop-color="#2296E2"/>
<stop offset="0.5" stop-color="#4EAAE7"/>
<stop offset="1" stop-color="#72BBEC"/>
</linearGradient>
<linearGradient id="paint45_linear_5075_13130" x1="437.247" y1="828.35" x2="206.327" y2="520.406" gradientUnits="userSpaceOnUse">
<stop stop-color="#BADFF6"/>
<stop offset="0.5" stop-color="#A6D6F4"/>
<stop offset="1" stop-color="#96CEF2"/>
</linearGradient>
<linearGradient id="paint46_linear_5075_13130" x1="331.734" y1="675.864" x2="336.373" y2="774.921" gradientUnits="userSpaceOnUse">
<stop stop-color="#E2E2E2"/>
<stop offset="0.5" stop-color="#E8E8E8"/>
<stop offset="1" stop-color="#F4F4F4"/>
</linearGradient>
<linearGradient id="paint47_linear_5075_13130" x1="390.851" y1="730.099" x2="369.561" y2="761.012" gradientUnits="userSpaceOnUse">
<stop stop-color="#B5B5B5"/>
<stop offset="1" stop-color="#4F4F4F"/>
</linearGradient>
<linearGradient id="paint48_linear_5075_13130" x1="379.887" y1="671.761" x2="374.756" y2="736.13" gradientUnits="userSpaceOnUse">
<stop stop-color="#B5B5B5"/>
<stop offset="1" stop-color="#4F4F4F"/>
</linearGradient>
<linearGradient id="paint49_linear_5075_13130" x1="366.212" y1="739.073" x2="365.965" y2="755.611" gradientUnits="userSpaceOnUse">
<stop stop-color="#B5B5B5"/>
<stop offset="1" stop-color="#4F4F4F"/>
</linearGradient>
<linearGradient id="paint50_linear_5075_13130" x1="352.848" y1="725.929" x2="345.286" y2="742.113" gradientUnits="userSpaceOnUse">
<stop stop-color="#B5B5B5"/>
<stop offset="1" stop-color="#4F4F4F"/>
</linearGradient>
<linearGradient id="paint51_linear_5075_13130" x1="363.787" y1="707.336" x2="363.52" y2="722.715" gradientUnits="userSpaceOnUse">
<stop stop-color="#B5B5B5"/>
<stop offset="1" stop-color="#4F4F4F"/>
</linearGradient>
<linearGradient id="paint52_linear_5075_13130" x1="352.848" y1="697.059" x2="348.719" y2="711.817" gradientUnits="userSpaceOnUse">
<stop stop-color="#B5B5B5"/>
<stop offset="1" stop-color="#4F4F4F"/>
</linearGradient>
<linearGradient id="paint53_linear_5075_13130" x1="251.303" y1="631.764" x2="258.419" y2="750.054" gradientUnits="userSpaceOnUse">
<stop stop-color="#E2E2E2"/>
<stop offset="0.5" stop-color="#E8E8E8"/>
<stop offset="1" stop-color="#F4F4F4"/>
</linearGradient>
<linearGradient id="paint54_linear_5075_13130" x1="323.688" y1="663.337" x2="287.397" y2="664.303" gradientUnits="userSpaceOnUse">
<stop stop-color="#B5B5B5"/>
<stop offset="1" stop-color="#4F4F4F"/>
</linearGradient>
<linearGradient id="paint55_linear_5075_13130" x1="320.577" y1="653.089" x2="320.413" y2="667.927" gradientUnits="userSpaceOnUse">
<stop stop-color="#B5B5B5"/>
<stop offset="1" stop-color="#4F4F4F"/>
</linearGradient>
<linearGradient id="paint56_linear_5075_13130" x1="300.315" y1="692.096" x2="276.299" y2="710.702" gradientUnits="userSpaceOnUse">
<stop stop-color="#B5B5B5"/>
<stop offset="1" stop-color="#4F4F4F"/>
</linearGradient>
<linearGradient id="paint57_linear_5075_13130" x1="272.499" y1="671.038" x2="245.64" y2="676.183" gradientUnits="userSpaceOnUse">
<stop stop-color="#B5B5B5"/>
<stop offset="1" stop-color="#4F4F4F"/>
</linearGradient>
<linearGradient id="paint58_linear_5075_13130" x1="285.835" y1="636.416" x2="240.043" y2="663.872" gradientUnits="userSpaceOnUse">
<stop stop-color="#B5B5B5"/>
<stop offset="1" stop-color="#4F4F4F"/>
</linearGradient>
<linearGradient id="paint59_linear_5075_13130" x1="272.323" y1="626.347" x2="272.161" y2="641.258" gradientUnits="userSpaceOnUse">
<stop stop-color="#B5B5B5"/>
<stop offset="1" stop-color="#4F4F4F"/>
</linearGradient>
<linearGradient id="paint60_linear_5075_13130" x1="193.561" y1="602.203" x2="197.393" y2="693.291" gradientUnits="userSpaceOnUse">
<stop stop-color="#E2E2E2"/>
<stop offset="0.5" stop-color="#E8E8E8"/>
<stop offset="1" stop-color="#F4F4F4"/>
</linearGradient>
<linearGradient id="paint61_linear_5075_13130" x1="236.466" y1="618.971" x2="221.264" y2="688.061" gradientUnits="userSpaceOnUse">
<stop stop-color="#B5B5B5"/>
<stop offset="1" stop-color="#4F4F4F"/>
</linearGradient>
<linearGradient id="paint62_linear_5075_13130" x1="233.742" y1="598.829" x2="230.699" y2="650.173" gradientUnits="userSpaceOnUse">
<stop stop-color="#B5B5B5"/>
<stop offset="1" stop-color="#4F4F4F"/>
</linearGradient>
<linearGradient id="paint63_linear_5075_13130" x1="218.784" y1="645.178" x2="216.421" y2="675.574" gradientUnits="userSpaceOnUse">
<stop stop-color="#B5B5B5"/>
<stop offset="1" stop-color="#4F4F4F"/>
</linearGradient>
<linearGradient id="paint64_linear_5075_13130" x1="197.184" y1="635.892" x2="196.969" y2="647.791" gradientUnits="userSpaceOnUse">
<stop stop-color="#B5B5B5"/>
<stop offset="1" stop-color="#4F4F4F"/>
</linearGradient>
</defs>
</svg>
