<svg width="1000" height="1000" viewBox="0 0 1000 1000" fill="none" xmlns="http://www.w3.org/2000/svg">
<path d="M539.547 0C551.148 1.80551e-05 563.205 2.57397 573.726 8.29102L574.738 8.85449L853.064 169.572L853.395 169.765C861.822 174.745 876.365 186.55 878.638 206.635C878.894 208.421 879.027 210.233 879.027 212.06V797.721L879.016 798.797C878.532 821.257 862.977 834.533 853.158 840.206L853.157 840.205L821.109 858.73C820.55 859.068 819.979 859.392 819.398 859.703C813.72 862.742 807.487 864.236 801.273 864.216C801.246 864.216 801.219 864.216 801.191 864.216C800.992 864.215 800.792 864.212 800.593 864.208C800.559 864.207 800.524 864.207 800.49 864.206C800.302 864.202 800.113 864.196 799.925 864.188C799.876 864.187 799.828 864.185 799.779 864.183C799.616 864.176 799.451 864.167 799.287 864.158C799.21 864.154 799.132 864.15 799.055 864.146C798.934 864.138 798.813 864.129 798.692 864.12C798.57 864.112 798.447 864.103 798.325 864.093C798.267 864.088 798.209 864.083 798.151 864.078C797.986 864.064 797.82 864.049 797.654 864.033C797.642 864.032 797.628 864.031 797.615 864.029C796.407 863.909 795.2 863.731 793.999 863.494C793.918 863.478 793.837 863.462 793.756 863.445C793.637 863.421 793.518 863.395 793.398 863.369C793.296 863.347 793.193 863.326 793.091 863.303C792.979 863.278 792.867 863.253 792.756 863.227C792.648 863.202 792.541 863.175 792.434 863.149C792.318 863.122 792.202 863.094 792.087 863.065C792 863.044 791.914 863.021 791.827 862.999C791.687 862.963 791.547 862.926 791.407 862.888C791.354 862.873 791.301 862.858 791.248 862.844C791.093 862.801 790.938 862.758 790.783 862.713C790.357 862.59 789.932 862.459 789.51 862.32C789.425 862.292 789.34 862.262 789.255 862.233C789.13 862.192 789.005 862.151 788.881 862.107C788.784 862.074 788.687 862.038 788.591 862.004C788.466 861.959 788.341 861.916 788.217 861.87C788.143 861.843 788.068 861.815 787.994 861.787C787.841 861.73 787.688 861.671 787.535 861.611C787.458 861.581 787.381 861.551 787.305 861.521C787.185 861.473 787.064 861.425 786.944 861.376C786.891 861.354 786.837 861.334 786.784 861.312C786.732 861.29 786.679 861.266 786.627 861.244C786.549 861.211 786.471 861.178 786.393 861.145C786.249 861.083 786.106 861.022 785.964 860.959C785.929 860.944 785.894 860.928 785.859 860.912C785.632 860.811 785.405 860.707 785.18 860.602L692.148 914.308C691.1 926.67 684.081 937.836 673.224 944.112L640.54 963.005L640.538 963.003C629.535 969.412 617.128 971.846 606.17 971.993L605.104 972C593.129 972 580.668 969.257 569.911 963.146C569.836 963.103 569.761 963.059 569.686 963.016L564.986 960.303C559.711 964.759 554.212 968.668 548.702 972.034C531.639 982.457 511.629 989.426 492.402 990.412C458.75 992.418 431.773 968.739 417.1 944.762L416.405 943.612C402.697 920.59 387.658 884.065 378.028 852.381L344.875 833.243C331.196 834.544 318.452 830.423 308.656 824.965C293.808 816.691 282.363 803.872 274.699 791.061C268.542 780.768 263.461 768.191 261.729 754.689L246.361 746.126C237.094 749.734 227.625 750.574 218.643 749.599C216.575 750.489 214.453 751.26 212.287 751.907C201.24 755.554 190.426 755.143 180.822 752.66C164.25 765.852 142.795 776.596 114.932 778.213H114.924C113.309 778.306 111.612 778.34 109.849 778.287C94.9639 779.134 81.7588 774.074 71.9239 768.28C60.6407 761.633 50.706 752.297 42.416 741.887C25.7847 721.001 12.8381 692.138 8.47756 658.988C-6.56389 544.642 51.2866 438.889 63.7451 417.448L64.0713 416.897C68.8735 408.945 75.6456 402.568 83.5313 398.226L101.583 387.619C101.736 387.525 101.861 387.451 101.947 387.399C102.386 387.137 102.784 386.909 103.02 386.774C103.535 386.481 104.123 386.155 104.684 385.846C105.841 385.207 107.383 384.367 109.12 383.426C112.617 381.531 117.189 379.07 121.701 376.647C126.223 374.22 130.722 371.81 134.089 370.008C135.773 369.107 137.175 368.357 138.156 367.832C138.647 367.57 139.034 367.363 139.297 367.223C139.428 367.152 139.529 367.098 139.598 367.062C139.632 367.043 139.658 367.03 139.676 367.021C139.684 367.016 139.691 367.012 139.695 367.01C139.697 367.009 139.7 367.007 139.7 367.007L139.702 367.006L139.829 366.938C140.414 366.629 140.85 366.375 142.013 365.711C142.477 365.446 143.325 364.962 144.243 364.474C145.058 364.04 146.798 363.133 148.981 362.264C145.279 363.738 152.927 360.344 158.784 358.767C161.237 358.106 163.889 357.536 166.736 357.103C166.872 356.972 167.01 356.837 167.152 356.7C168.075 355.813 172.565 351.311 178.689 348.005C182.307 346.052 187.896 343.701 195.051 343.129C202.421 342.539 209.406 344.003 215.454 346.839L216.036 347.117L216.952 347.58C217.255 347.738 217.557 347.901 217.855 348.067L262.077 372.708C262.548 372.959 263.04 373.23 263.547 373.527L264.448 374.07L264.589 374.159C264.932 374.374 265.273 374.598 265.614 374.827V174.273L265.626 173.198C266.11 150.74 281.663 137.464 291.483 131.79L291.49 131.787L504.123 8.98828V8.99023C515.481 2.37763 528.335 1.0032e-05 539.547 0Z" fill="black"/>
<path fill-rule="evenodd" clip-rule="evenodd" d="M572.066 768.962L555.724 778.408L572.066 787.854L588.408 778.408L572.066 768.962Z" fill="white"/>
<path fill-rule="evenodd" clip-rule="evenodd" d="M784.8 230.53L637.534 315.546V901.207L784.8 816.192V230.53Z" fill="#FF0000"/>
<path fill-rule="evenodd" clip-rule="evenodd" d="M784.8 230.53L637.534 315.546V901.207L784.8 816.192V230.53Z" fill="url(#paint0_linear_5075_13698)"/>
<path fill-rule="evenodd" clip-rule="evenodd" d="M303.516 173.854L334.877 175.271L596.63 329.716L653.874 324.993V910.654L621.19 929.547C617.034 932.003 611.177 933.42 604.848 933.42C598.425 933.42 592.663 931.908 588.507 929.547L310.317 768.962C306.161 766.506 303.516 763.2 303.516 759.516V173.854Z" fill="#FF0000"/>
<path fill-rule="evenodd" clip-rule="evenodd" d="M303.516 173.854L334.877 175.271L596.63 329.716L653.874 324.993V910.654L621.19 929.547C617.034 932.003 611.177 933.42 604.848 933.42C598.425 933.42 592.663 931.908 588.507 929.547L310.317 768.962C306.161 766.506 303.516 763.2 303.516 759.516V173.854Z" fill="url(#paint1_linear_5075_13698)"/>
<path fill-rule="evenodd" clip-rule="evenodd" d="M801.139 239.976L784.797 230.53V816.192L801.139 825.638V239.976Z" fill="#FF0000"/>
<path fill-rule="evenodd" clip-rule="evenodd" d="M801.139 239.976L784.797 230.53V816.192L801.139 825.638V239.976Z" fill="url(#paint2_linear_5075_13698)"/>
<path fill-rule="evenodd" clip-rule="evenodd" d="M840.616 797.296C840.616 800.98 838.066 804.286 833.815 806.742L801.131 825.635V214.658L840.616 211.635V797.296Z" fill="#FF0000"/>
<path fill-rule="evenodd" clip-rule="evenodd" d="M840.616 797.296C840.616 800.98 838.066 804.286 833.815 806.742L801.131 825.635V214.658L840.616 211.635V797.296Z" fill="url(#paint3_linear_5075_13698)"/>
<path fill-rule="evenodd" clip-rule="evenodd" d="M326.659 570.59L318.44 565.867V622.544L326.659 627.267V570.59Z" fill="#0000FF"/>
<path fill-rule="evenodd" clip-rule="evenodd" d="M343.008 580.035L334.79 575.312V631.988L343.008 636.712V580.035Z" fill="#0000FF"/>
<path fill-rule="evenodd" clip-rule="evenodd" d="M359.348 589.484L351.224 584.761V641.438L359.348 646.161V589.484Z" fill="#0000FF"/>
<path fill-rule="evenodd" clip-rule="evenodd" d="M375.69 598.929L367.566 594.206V650.883L375.69 655.606V598.929Z" fill="#0000FF"/>
<path fill-rule="evenodd" clip-rule="evenodd" d="M392.119 608.373L383.901 603.65V660.327L392.119 665.05V608.373Z" fill="#0000FF"/>
<path fill-rule="evenodd" clip-rule="evenodd" d="M326.659 674.497L318.44 669.774V726.451L326.659 731.174V674.497Z" fill="#0000FF"/>
<path fill-rule="evenodd" clip-rule="evenodd" d="M343.008 683.943L334.79 679.22V735.897L343.008 740.62V683.943Z" fill="#0000FF"/>
<path fill-rule="evenodd" clip-rule="evenodd" d="M359.348 693.39L351.224 688.667V745.344L359.348 750.067V693.39Z" fill="#0000FF"/>
<path fill-rule="evenodd" clip-rule="evenodd" d="M375.69 702.836L367.566 698.113V754.79L375.69 759.513V702.836Z" fill="#0000FF"/>
<path fill-rule="evenodd" clip-rule="evenodd" d="M392.119 712.282L383.901 707.559V764.236L392.119 768.959V712.282Z" fill="#0000FF"/>
<path fill-rule="evenodd" clip-rule="evenodd" d="M465.709 650.883L457.586 646.16V702.837L465.709 707.56V650.883Z" fill="#0000FF"/>
<path fill-rule="evenodd" clip-rule="evenodd" d="M482.052 660.329L473.928 655.605V712.282L482.052 717.005V660.329Z" fill="#0000FF"/>
<path fill-rule="evenodd" clip-rule="evenodd" d="M498.488 669.774L490.27 665.051V721.728L498.488 726.451V669.774Z" fill="#0000FF"/>
<path fill-rule="evenodd" clip-rule="evenodd" d="M514.83 679.22L506.612 674.497V731.174L514.83 735.897V679.22Z" fill="#0000FF"/>
<path fill-rule="evenodd" clip-rule="evenodd" d="M531.173 688.667L522.954 683.944V740.621L531.173 745.344V688.667Z" fill="#0000FF"/>
<path fill-rule="evenodd" clip-rule="evenodd" d="M465.709 754.793L457.586 750.07V806.747L465.709 811.47V754.793Z" fill="#0000FF"/>
<path fill-rule="evenodd" clip-rule="evenodd" d="M482.052 764.237L473.928 759.514V816.191L482.052 820.914V764.237Z" fill="#0000FF"/>
<path fill-rule="evenodd" clip-rule="evenodd" d="M498.488 773.681L490.27 768.958V825.635L498.488 830.358V773.681Z" fill="#0000FF"/>
<path fill-rule="evenodd" clip-rule="evenodd" d="M514.83 783.128L506.612 778.405V835.082L514.83 839.805V783.128Z" fill="#0000FF"/>
<path fill-rule="evenodd" clip-rule="evenodd" d="M531.172 792.574L522.954 787.851V844.528L531.172 849.251V792.574Z" fill="#0000FF"/>
<path fill-rule="evenodd" clip-rule="evenodd" d="M326.659 570.59L318.44 565.867V622.544L326.659 627.267V570.59Z" fill="url(#paint4_linear_5075_13698)"/>
<path fill-rule="evenodd" clip-rule="evenodd" d="M343.008 580.035L334.79 575.312V631.988L343.008 636.712V580.035Z" fill="url(#paint5_linear_5075_13698)"/>
<path fill-rule="evenodd" clip-rule="evenodd" d="M359.348 589.484L351.224 584.761V641.438L359.348 646.161V589.484Z" fill="url(#paint6_linear_5075_13698)"/>
<path fill-rule="evenodd" clip-rule="evenodd" d="M375.69 598.929L367.566 594.206V650.883L375.69 655.606V598.929Z" fill="url(#paint7_linear_5075_13698)"/>
<path fill-rule="evenodd" clip-rule="evenodd" d="M392.119 608.373L383.901 603.65V660.327L392.119 665.05V608.373Z" fill="url(#paint8_linear_5075_13698)"/>
<path fill-rule="evenodd" clip-rule="evenodd" d="M326.659 674.497L318.44 669.774V726.451L326.659 731.174V674.497Z" fill="url(#paint9_linear_5075_13698)"/>
<path fill-rule="evenodd" clip-rule="evenodd" d="M343.008 683.943L334.79 679.22V735.897L343.008 740.62V683.943Z" fill="url(#paint10_linear_5075_13698)"/>
<path fill-rule="evenodd" clip-rule="evenodd" d="M359.348 693.39L351.224 688.667V745.344L359.348 750.067V693.39Z" fill="url(#paint11_linear_5075_13698)"/>
<path fill-rule="evenodd" clip-rule="evenodd" d="M375.69 702.836L367.566 698.113V754.79L375.69 759.513V702.836Z" fill="url(#paint12_linear_5075_13698)"/>
<path fill-rule="evenodd" clip-rule="evenodd" d="M392.119 712.282L383.901 707.559V764.236L392.119 768.959V712.282Z" fill="url(#paint13_linear_5075_13698)"/>
<path fill-rule="evenodd" clip-rule="evenodd" d="M465.709 650.883L457.586 646.16V702.837L465.709 707.56V650.883Z" fill="url(#paint14_linear_5075_13698)"/>
<path fill-rule="evenodd" clip-rule="evenodd" d="M482.052 660.329L473.928 655.605V712.282L482.052 717.005V660.329Z" fill="url(#paint15_linear_5075_13698)"/>
<path fill-rule="evenodd" clip-rule="evenodd" d="M498.488 669.774L490.27 665.051V721.728L498.488 726.451V669.774Z" fill="url(#paint16_linear_5075_13698)"/>
<path fill-rule="evenodd" clip-rule="evenodd" d="M514.83 679.22L506.612 674.497V731.174L514.83 735.897V679.22Z" fill="url(#paint17_linear_5075_13698)"/>
<path fill-rule="evenodd" clip-rule="evenodd" d="M531.173 688.667L522.954 683.944V740.621L531.173 745.344V688.667Z" fill="url(#paint18_linear_5075_13698)"/>
<path fill-rule="evenodd" clip-rule="evenodd" d="M465.709 754.793L457.586 750.07V806.747L465.709 811.47V754.793Z" fill="url(#paint19_linear_5075_13698)"/>
<path fill-rule="evenodd" clip-rule="evenodd" d="M482.052 764.237L473.928 759.514V816.191L482.052 820.914V764.237Z" fill="url(#paint20_linear_5075_13698)"/>
<path fill-rule="evenodd" clip-rule="evenodd" d="M498.488 773.681L490.27 768.958V825.635L498.488 830.358V773.681Z" fill="url(#paint21_linear_5075_13698)"/>
<path fill-rule="evenodd" clip-rule="evenodd" d="M514.83 783.128L506.612 778.405V835.082L514.83 839.805V783.128Z" fill="url(#paint22_linear_5075_13698)"/>
<path fill-rule="evenodd" clip-rule="evenodd" d="M531.172 792.574L522.954 787.851V844.528L531.172 849.251V792.574Z" fill="url(#paint23_linear_5075_13698)"/>
<path fill-rule="evenodd" clip-rule="evenodd" d="M801.139 277.762L784.797 268.315V287.208L801.139 296.654V277.762Z" fill="white"/>
<path fill-rule="evenodd" clip-rule="evenodd" d="M801.139 372.225L784.797 362.779V381.672L801.139 391.118V372.225Z" fill="white"/>
<path fill-rule="evenodd" clip-rule="evenodd" d="M801.139 324.988L784.797 315.542V334.434L801.139 343.88V324.988Z" fill="white"/>
<path fill-rule="evenodd" clip-rule="evenodd" d="M801.139 419.454L784.797 410.008V428.9L801.139 438.346V419.454Z" fill="white"/>
<path fill-rule="evenodd" clip-rule="evenodd" d="M801.139 466.686L784.797 457.24V476.133L801.139 485.579V466.686Z" fill="white"/>
<path fill-rule="evenodd" clip-rule="evenodd" d="M784.8 457.238L653.876 532.808V551.7L784.8 476.131V457.238ZM784.8 410.008L653.876 485.577V504.469L784.8 428.9V410.008ZM784.8 362.777L653.876 438.346V457.238L784.8 381.669V362.777ZM784.8 315.546L653.876 391.115V410.008L784.8 334.438V315.546ZM784.8 268.315L653.876 343.885V362.777L784.8 287.208V268.315Z" fill="#00FF00"/>
<path fill-rule="evenodd" clip-rule="evenodd" d="M784.8 457.238L653.876 532.808V551.7L784.8 476.131V457.238ZM784.8 410.008L653.876 485.577V504.469L784.8 428.9V410.008ZM784.8 362.777L653.876 438.346V457.238L784.8 381.669V362.777ZM784.8 315.546L653.876 391.115V410.008L784.8 334.438V315.546ZM784.8 268.315L653.876 343.885V362.777L784.8 287.208V268.315Z" fill="url(#paint24_linear_5075_13698)"/>
<path fill-rule="evenodd" clip-rule="evenodd" d="M752.014 693.391L670.211 740.622V750.068L752.014 702.837V693.391ZM752.014 665.053L670.211 712.283V721.73L752.014 674.499V665.053ZM752.014 636.714L670.211 683.945V693.391L752.014 646.16V636.714ZM752.014 608.376L670.211 655.606V665.053L752.014 617.822V608.376ZM752.014 580.037L670.211 627.268V636.714L752.014 589.483V580.037ZM752.014 551.699L670.211 598.93V608.376L752.014 561.145V551.699ZM752.014 523.36L670.211 570.591V580.037L752.014 532.807V523.36Z" fill="#00FF00"/>
<path fill-rule="evenodd" clip-rule="evenodd" d="M752.014 693.391L670.211 740.622V750.068L752.014 702.837V693.391ZM752.014 665.053L670.211 712.283V721.73L752.014 674.499V665.053ZM752.014 636.714L670.211 683.945V693.391L752.014 646.16V636.714ZM752.014 608.376L670.211 655.606V665.053L752.014 617.822V608.376ZM752.014 580.037L670.211 627.268V636.714L752.014 589.483V580.037ZM752.014 551.699L670.211 598.93V608.376L752.014 561.145V551.699ZM752.014 523.36L670.211 570.591V580.037L752.014 532.807V523.36Z" fill="url(#paint25_linear_5075_13698)"/>
<path fill-rule="evenodd" clip-rule="evenodd" d="M522.95 41.6073C527.107 39.1513 532.963 37.7344 539.292 37.7344C545.715 37.7344 551.478 39.2458 555.634 41.6073L833.729 202.192C837.885 204.648 840.53 207.954 840.53 211.638C840.53 215.322 837.979 218.628 833.729 221.084L801.045 239.977L784.703 230.53L637.438 315.546L653.779 324.992L621.096 343.884C616.939 346.34 611.083 347.757 604.754 347.757C598.331 347.757 592.568 346.246 588.412 343.884L310.317 183.3C306.161 180.844 303.516 177.537 303.516 173.853C303.516 170.169 306.067 166.863 310.317 164.407L522.95 41.6073Z" fill="#FF0000"/>
<path fill-rule="evenodd" clip-rule="evenodd" d="M522.95 41.6073C527.107 39.1513 532.963 37.7344 539.292 37.7344C545.715 37.7344 551.478 39.2458 555.634 41.6073L833.729 202.192C837.885 204.648 840.53 207.954 840.53 211.638C840.53 215.322 837.979 218.628 833.729 221.084L801.045 239.977L784.703 230.53L637.438 315.546L653.779 324.992L621.096 343.884C616.939 346.34 611.083 347.757 604.754 347.757C598.331 347.757 592.568 346.246 588.412 343.884L310.317 183.3C306.161 180.844 303.516 177.537 303.516 173.853C303.516 170.169 306.067 166.863 310.317 164.407L522.95 41.6073Z" fill="url(#paint26_linear_5075_13698)"/>
<path fill-rule="evenodd" clip-rule="evenodd" d="M840.617 438.349C840.617 442.033 838.066 445.339 833.815 447.795L801.132 466.687V485.58L833.815 466.687C837.972 464.231 840.617 460.925 840.617 457.241V438.349ZM840.617 391.118C840.617 394.802 838.066 398.108 833.815 400.564L801.132 419.457V438.349L833.815 419.457C837.972 417.001 840.617 413.694 840.617 410.01V391.118ZM840.617 343.887C840.617 347.571 838.066 350.877 833.815 353.333L801.132 372.226V391.118L833.815 372.226C837.972 369.77 840.617 366.464 840.617 362.78V343.887ZM840.617 296.657C840.617 300.341 838.066 303.647 833.815 306.103L801.132 324.995V343.887L833.815 324.995C837.972 322.539 840.617 319.233 840.617 315.549V296.657ZM840.617 249.426C840.617 253.11 838.066 256.416 833.815 258.872L801.132 277.764V296.657L833.815 277.764C837.972 275.308 840.617 272.002 840.617 268.318V249.426Z" fill="#00FF00"/>
<path fill-rule="evenodd" clip-rule="evenodd" d="M840.617 438.349C840.617 442.033 838.066 445.339 833.815 447.795L801.132 466.687V485.58L833.815 466.687C837.972 464.231 840.617 460.925 840.617 457.241V438.349ZM840.617 391.118C840.617 394.802 838.066 398.108 833.815 400.564L801.132 419.457V438.349L833.815 419.457C837.972 417.001 840.617 413.694 840.617 410.01V391.118ZM840.617 343.887C840.617 347.571 838.066 350.877 833.815 353.333L801.132 372.226V391.118L833.815 372.226C837.972 369.77 840.617 366.464 840.617 362.78V343.887ZM840.617 296.657C840.617 300.341 838.066 303.647 833.815 306.103L801.132 324.995V343.887L833.815 324.995C837.972 322.539 840.617 319.233 840.617 315.549V296.657ZM840.617 249.426C840.617 253.11 838.066 256.416 833.815 258.872L801.132 277.764V296.657L833.815 277.764C837.972 275.308 840.617 272.002 840.617 268.318V249.426Z" fill="url(#paint27_linear_5075_13698)"/>
<path fill-rule="evenodd" clip-rule="evenodd" d="M653.875 551.702L621.191 570.595C617.035 573.051 611.178 574.468 604.85 574.468C598.426 574.468 592.664 572.956 588.508 570.595V589.487C592.664 591.943 598.521 593.36 604.85 593.36C611.273 593.36 617.035 591.849 621.191 589.487L653.875 570.595V551.702ZM653.875 504.472L621.191 523.364C617.035 525.82 611.178 527.237 604.85 527.237C598.426 527.237 592.664 525.725 588.508 523.364V542.256C592.664 544.712 598.521 546.129 604.85 546.129C611.273 546.129 617.035 544.618 621.191 542.256L653.875 523.364V504.472ZM653.875 457.241L621.191 476.133C617.035 478.589 611.178 480.006 604.85 480.006C598.426 480.006 592.664 478.495 588.508 476.133V495.025C592.664 497.481 598.521 498.898 604.85 498.898C611.273 498.898 617.035 497.387 621.191 495.025L653.875 476.133V457.241ZM653.875 410.01L621.191 428.902C617.035 431.358 611.178 432.775 604.85 432.775C598.426 432.775 592.664 431.264 588.508 428.902V447.795C592.664 450.251 598.521 451.668 604.85 451.668C611.273 451.668 617.035 450.156 621.191 447.795L653.875 428.902V410.01ZM653.875 362.779L621.191 381.672C617.035 384.128 611.178 385.545 604.85 385.545C598.426 385.545 592.664 384.033 588.508 381.672V400.564C592.664 403.02 598.521 404.437 604.85 404.437C611.273 404.437 617.035 402.925 621.191 400.564L653.875 381.672V362.779Z" fill="#00FF00"/>
<path fill-rule="evenodd" clip-rule="evenodd" d="M653.875 551.702L621.191 570.595C617.035 573.051 611.178 574.468 604.85 574.468C598.426 574.468 592.664 572.956 588.508 570.595V589.487C592.664 591.943 598.521 593.36 604.85 593.36C611.273 593.36 617.035 591.849 621.191 589.487L653.875 570.595V551.702ZM653.875 504.472L621.191 523.364C617.035 525.82 611.178 527.237 604.85 527.237C598.426 527.237 592.664 525.725 588.508 523.364V542.256C592.664 544.712 598.521 546.129 604.85 546.129C611.273 546.129 617.035 544.618 621.191 542.256L653.875 523.364V504.472ZM653.875 457.241L621.191 476.133C617.035 478.589 611.178 480.006 604.85 480.006C598.426 480.006 592.664 478.495 588.508 476.133V495.025C592.664 497.481 598.521 498.898 604.85 498.898C611.273 498.898 617.035 497.387 621.191 495.025L653.875 476.133V457.241ZM653.875 410.01L621.191 428.902C617.035 431.358 611.178 432.775 604.85 432.775C598.426 432.775 592.664 431.264 588.508 428.902V447.795C592.664 450.251 598.521 451.668 604.85 451.668C611.273 451.668 617.035 450.156 621.191 447.795L653.875 428.902V410.01ZM653.875 362.779L621.191 381.672C617.035 384.128 611.178 385.545 604.85 385.545C598.426 385.545 592.664 384.033 588.508 381.672V400.564C592.664 403.02 598.521 404.437 604.85 404.437C611.273 404.437 617.035 402.925 621.191 400.564L653.875 381.672V362.779Z" fill="url(#paint28_linear_5075_13698)"/>
<path fill-rule="evenodd" clip-rule="evenodd" d="M801.139 466.685L784.797 457.238V476.131L801.139 485.577V466.685ZM801.139 419.454L784.797 410.008V428.9L801.139 438.346V419.454ZM801.139 372.223L784.797 362.777V381.669L801.139 391.115V372.223ZM801.139 324.992L784.797 315.546V334.438L801.139 343.885V324.992ZM801.139 277.762L784.797 268.315V287.208L801.139 296.654V277.762Z" fill="#00FF00"/>
<path fill-rule="evenodd" clip-rule="evenodd" d="M801.139 466.685L784.797 457.238V476.131L801.139 485.577V466.685ZM801.139 419.454L784.797 410.008V428.9L801.139 438.346V419.454ZM801.139 372.223L784.797 362.777V381.669L801.139 391.115V372.223ZM801.139 324.992L784.797 315.546V334.438L801.139 343.885V324.992ZM801.139 277.762L784.797 268.315V287.208L801.139 296.654V277.762Z" fill="url(#paint29_linear_5075_13698)"/>
<path d="M487.13 536.485L490.89 534.854L492.562 535.787C492.851 533.674 493.836 532.109 495.36 531.38C497.196 530.503 499.661 530.915 502.163 532.517C513 539.454 530.188 550.463 539.1 556.17C541.934 557.985 544.214 561.571 544.762 564.871L545.502 565.286C550.232 567.919 554.229 571.611 557.168 576.051C557.168 576.051 557.168 576.05 557.16 576.055C560.136 580.555 562.549 585.377 564.362 590.422C576.864 625.989 627.658 777.895 614.505 863.242C606.859 912.826 566.525 905.863 545.377 870.354C533.178 849.867 518.544 814.332 509.595 783.795C501.416 755.867 494.147 738.682 487.641 729.581L483.547 727.304C477.951 739.112 464.716 742.24 449.298 733.648C433.879 725.057 420.644 707.18 415.041 689.129L339.304 646.925C333.7 658.733 320.473 661.861 305.047 653.27C304.36 652.887 303.678 652.484 303 652.065V433.883L487.13 536.485Z" fill="#020202" fill-opacity="0.4"/>
<path fill-rule="evenodd" clip-rule="evenodd" d="M234.908 709.471L246.444 703.042L237.839 698.247L234.908 709.471Z" fill="url(#paint30_linear_5075_13698)"/>
<path fill-rule="evenodd" clip-rule="evenodd" d="M379.161 789.85L390.698 783.422L382.387 778.791L379.161 789.85Z" fill="url(#paint31_linear_5075_13698)"/>
<path fill-rule="evenodd" clip-rule="evenodd" d="M386.761 781.234L390.848 783.511C397.353 792.612 404.624 809.797 412.805 837.726C421.751 868.263 436.389 903.798 448.587 924.284C469.731 959.794 510.069 966.757 517.712 917.173C530.867 831.825 480.078 679.92 467.573 644.352C465.761 639.308 463.343 634.486 460.367 629.986C460.374 629.981 460.374 629.981 460.374 629.981C457.439 625.542 453.439 621.85 448.713 619.216C432.42 610.137 394.101 588.785 394.101 588.785L390.342 590.416L173.054 469.335L169.296 463.517C169.296 463.517 125.567 439.15 111.674 431.408C109.035 429.938 105.84 429.733 103.025 430.854C100.131 432.006 97.709 434.043 96.1329 436.653C84.2025 457.186 32.4154 553.271 45.6848 654.145C53.3274 712.247 93.6655 750.239 114.809 738.294C127.008 731.402 141.646 712.181 150.591 691.613C158.773 672.802 166.043 663.719 172.549 661.869L174.007 662.681C179.608 680.732 192.842 698.608 208.26 707.2C223.679 715.792 236.913 712.664 242.514 700.856L318.253 743.06C323.854 761.11 337.089 778.987 352.507 787.579C367.925 796.17 381.16 793.042 386.761 781.234Z" fill="url(#paint32_linear_5075_13698)"/>
<path fill-rule="evenodd" clip-rule="evenodd" d="M174.011 662.678L172.553 661.866C171.333 662.213 170.086 662.814 168.812 663.686L168.652 663.796C168.407 663.969 168.161 664.15 167.912 664.343L167.851 664.391L167.689 664.518L167.614 664.58C167.424 664.733 167.233 664.892 167.042 665.057L166.879 665.199C166.825 665.247 166.77 665.295 166.716 665.344C166.009 665.978 165.295 666.693 164.57 667.494L164.403 667.68C164.217 667.889 164.03 668.104 163.842 668.325L163.732 668.455L163.563 668.657C163.481 668.756 163.398 668.855 163.315 668.957C162.005 670.563 160.667 672.444 159.301 674.614C158.986 675.114 158.67 675.629 158.353 676.159L158.182 676.446L158.089 676.603C157.516 677.574 156.937 678.597 156.354 679.671C156.075 680.184 155.795 680.709 155.513 681.247L155.47 681.33L155.387 681.49C154.523 683.149 153.648 684.921 152.762 686.809L152.685 686.975L152.497 687.378L152.495 687.38C152.073 688.29 151.648 689.227 151.22 690.19C151.012 690.657 150.804 691.13 150.596 691.61C150.522 691.779 150.449 691.948 150.373 692.118C150.095 692.752 149.81 693.384 149.522 694.014L149.301 694.493C148.717 695.754 148.112 697.008 147.488 698.253C147.357 698.515 147.225 698.777 147.09 699.041C146.532 700.14 145.96 701.23 145.374 702.309L145.269 702.504L145.017 702.965L144.763 703.426C144.678 703.579 144.593 703.732 144.508 703.885L144.367 704.137C143.91 704.952 143.446 705.76 142.977 706.56C142.467 707.43 141.949 708.291 141.424 709.143C141.015 709.806 140.603 710.463 140.188 711.112C139.886 711.584 139.583 712.054 139.277 712.519L139.123 712.753L138.841 713.179L138.731 713.344C138.444 713.775 138.155 714.203 137.863 714.629L137.706 714.859L137.471 715.201C136.917 716.002 136.358 716.79 135.796 717.566C133.459 720.788 131.05 723.788 128.624 726.491L128.533 726.593L128.291 726.862C127.568 727.658 126.844 728.428 126.12 729.17C122.277 733.107 118.438 736.243 114.814 738.291C114.763 738.32 114.712 738.348 114.659 738.377L114.641 738.387L114.616 738.401L114.565 738.429L114.494 738.466L114.468 738.48L114.457 738.486C114.406 738.513 114.355 738.54 114.303 738.568L114.294 738.572L114.27 738.584L114.188 738.626L114.144 738.649L114.119 738.661L114.099 738.672L114.063 738.69L113.94 738.75C113.887 738.776 113.834 738.802 113.783 738.826L113.767 738.834L113.741 738.846L113.681 738.874L113.616 738.905L113.59 738.917L113.576 738.923C113.523 738.948 113.469 738.972 113.416 738.995L113.412 738.997L113.397 739.004L113.296 739.049L113.253 739.067L113.233 739.076L113.212 739.085L113.167 739.105L113.069 739.146L113.054 739.152L113.049 739.154C112.993 739.178 112.937 739.2 112.883 739.222L112.873 739.226L112.853 739.235L112.776 739.265L112.712 739.291L112.692 739.299L112.679 739.303C112.566 739.347 112.454 739.39 112.34 739.432L112.328 739.436L112.311 739.442L112.251 739.464L112.141 739.503C112.08 739.524 112.019 739.545 111.961 739.565L111.853 739.601L111.785 739.623L111.775 739.626L111.767 739.629C111.647 739.667 111.527 739.705 111.404 739.742L111.399 739.743C110.591 739.986 109.762 740.168 108.914 740.291C109.922 740.426 111.034 740.46 112.262 740.389C149.362 738.237 170.442 712.134 187.442 688.467C181.512 680.671 176.809 671.697 174.011 662.678Z" fill="url(#paint33_linear_5075_13698)"/>
<path fill-rule="evenodd" clip-rule="evenodd" d="M489.892 952.582H489.892C513.658 951.404 545.832 934.435 559.019 907.67C612.293 799.543 548.522 640.976 536.162 605.852C535.933 605.214 535.608 604.411 535.255 603.575C534.758 602.334 533.724 601.366 532.425 600.923C531.126 600.481 529.691 600.609 528.498 601.275C516.752 607.821 485.558 625.214 471.488 633.058C467.635 635.207 465.907 639.69 467.36 643.743L467.411 643.879C467.44 643.958 467.468 644.036 467.497 644.115L467.582 644.351C467.68 644.628 467.779 644.912 467.882 645.205L468.195 646.099L468.196 646.103L468.325 646.471L468.521 647.035L468.524 647.042L468.667 647.455L468.861 648.012L468.864 648.021L469.02 648.471L469.213 649.029L469.217 649.041L469.383 649.522L469.577 650.086L469.583 650.101L469.758 650.611L469.955 651.182L469.961 651.201L470.145 651.739L470.344 652.318L470.351 652.339L470.544 652.904L470.744 653.491L470.753 653.516L470.954 654.109L471.156 654.702L471.165 654.731L471.376 655.35L471.579 655.951L471.59 655.982L471.808 656.629L472.013 657.236L472.025 657.271L472.251 657.944L472.457 658.557L472.47 658.597L472.704 659.296L472.911 659.914L472.926 659.958L473.168 660.684L473.375 661.306L473.382 661.327L473.391 661.354L473.641 662.107L473.849 662.732L473.857 662.755L473.867 662.786L474.124 663.565L474.332 664.193L474.341 664.217L474.352 664.251L474.617 665.057L474.825 665.687L474.833 665.713L474.845 665.75L475.118 666.582L475.325 667.215L475.334 667.242L475.348 667.282L475.628 668.141L475.835 668.774L475.844 668.804L475.858 668.847L476.146 669.732L476.352 670.366L476.362 670.397L476.377 670.444L476.672 671.356L476.878 671.989L476.888 672.022L476.904 672.073L477.206 673.011L477.41 673.644L477.421 673.678L477.439 673.732L477.747 674.696L477.95 675.329L477.962 675.364L477.98 675.423L478.296 676.412L478.498 677.043L478.509 677.081L478.529 677.143L478.852 678.158L479.051 678.788L479.063 678.826L479.085 678.893L479.413 679.934L479.611 680.56L479.624 680.6L479.647 680.672L479.982 681.738L480.178 682.362L480.191 682.404L480.215 682.48L480.556 683.571L480.75 684.192L480.763 684.234L480.788 684.314L481.136 685.431L481.328 686.048L481.341 686.092L481.368 686.177L481.721 687.318L481.911 687.931L481.925 687.977L481.953 688.067L482.311 689.232L482.499 689.841L482.513 689.888L482.542 689.983L482.906 691.172L483.091 691.777L483.106 691.824L483.136 691.925L483.505 693.138L483.688 693.738L483.703 693.786L483.735 693.892L484.109 695.128L484.289 695.723L484.304 695.773L484.338 695.884L484.716 697.143L484.894 697.733L484.909 697.784L484.944 697.9L485.327 699.182L485.502 699.766L485.518 699.818L485.554 699.941L485.942 701.244L486.114 701.823L486.135 701.897L486.167 702.004L486.409 702.819L486.475 703.044L486.718 703.867L486.783 704.09L487.028 704.92L487.092 705.141L487.338 705.979L487.402 706.198L487.649 707.044L487.712 707.26L487.961 708.114L488.023 708.328L488.273 709.189L488.335 709.401L488.586 710.271C506.49 772.253 526.57 859.767 517.722 917.172C517.673 917.485 517.624 917.795 517.574 918.096L517.572 918.111L517.569 918.131C517.52 918.427 517.47 918.721 517.418 919.015L517.414 919.037L517.406 919.08C517.301 919.678 517.191 920.267 517.076 920.845L517.075 920.85C516.929 921.587 516.774 922.311 516.612 923.024L516.61 923.033L516.607 923.047C516.544 923.323 516.48 923.596 516.415 923.866L516.41 923.884L516.401 923.926C516.303 924.33 516.203 924.729 516.101 925.122L516.098 925.136L516.093 925.153C516.025 925.417 515.954 925.68 515.885 925.935L515.88 925.953L515.872 925.985C515.727 926.514 515.578 927.035 515.424 927.546L515.356 927.771L515.299 927.96C515.122 928.533 514.941 929.096 514.753 929.65C514.559 930.222 514.358 930.783 514.153 931.33C514.064 931.568 513.973 931.804 513.883 932.035C513.837 932.153 513.791 932.27 513.745 932.384C513.653 932.617 513.558 932.847 513.462 933.08C513.369 933.303 513.275 933.525 513.179 933.748C513.129 933.862 513.08 933.974 513.029 934.09C512.931 934.312 512.832 934.531 512.733 934.746C512.684 934.852 512.635 934.958 512.584 935.066C512.482 935.285 512.378 935.501 512.275 935.712C506.909 946.705 498.825 951.992 489.892 952.582Z" fill="url(#paint34_linear_5075_13698)"/>
<path fill-rule="evenodd" clip-rule="evenodd" d="M427.862 607.597C456.004 623.279 458.188 622.02 482.363 608.549C482.96 608.244 483.555 607.926 484.145 607.597L511.715 592.235C519.002 588.174 521.332 583.395 517.881 579.244C517.463 578.74 512.954 571.192 509.513 569.275L502.276 563.553C497.437 559.883 491.827 556.122 485.35 552.438C433.065 531.475 311.736 470.459 225.138 410.812C183.989 385.351 165.02 396.705 162.568 397.681C161.484 398.113 159.663 399.3 157.142 400.635C157.142 400.635 121.418 419.723 120.842 420.216L101.959 431.312L101.979 431.323C102.321 431.154 102.671 430.999 103.028 430.856C105.844 429.736 109.039 429.94 111.677 431.41C125.571 439.152 169.299 463.519 169.299 463.519L173.057 469.338L390.346 590.418L394.104 588.787L427.862 607.597Z" fill="url(#paint35_linear_5075_13698)"/>
<path fill-rule="evenodd" clip-rule="evenodd" d="M513.559 573.127C513.625 573.207 513.69 573.289 513.754 573.37L513.764 573.383L513.794 573.421L513.894 573.547L513.944 573.611L513.968 573.641L513.996 573.678L514.055 573.753L514.138 573.861L514.168 573.9L514.184 573.921C514.308 574.082 514.431 574.244 514.551 574.405L514.562 574.418L514.59 574.456L514.683 574.581L514.731 574.646L514.754 574.676L514.78 574.713L514.835 574.787L514.913 574.894L514.942 574.933L514.956 574.953C515.073 575.112 515.187 575.27 515.298 575.427L515.308 575.44L515.335 575.478L515.419 575.597L515.445 575.632C515.525 575.745 515.604 575.857 515.681 575.968L515.696 575.989L515.729 576.037L515.827 576.176L515.933 576.331L515.961 576.371L515.974 576.39C516.042 576.489 516.111 576.589 516.176 576.686L516.213 576.739L516.446 577.083L516.45 577.088C516.54 577.222 516.626 577.35 516.709 577.475L516.728 577.504L516.783 577.587L516.885 577.74L516.926 577.803L516.982 577.887L517.124 578.103L517.253 578.298L517.488 578.657L517.56 578.767L517.601 578.829L517.691 578.964L517.75 579.052L517.764 579.072L517.828 579.164L517.849 579.193L517.859 579.207L517.885 579.242C517.948 579.316 518.007 579.39 518.065 579.465C518.16 579.586 518.249 579.707 518.333 579.829C518.45 579.998 518.558 580.168 518.656 580.338L518.705 580.425C518.722 580.458 518.741 580.491 518.759 580.524L518.812 580.624L518.862 580.724C520.706 584.47 518.197 588.575 511.888 592.137C511.832 592.169 511.775 592.201 511.719 592.233L484.15 607.595C483.56 607.924 482.964 608.242 482.368 608.547C458.379 621.913 456.043 623.256 428.512 607.954L428.512 607.955L448.721 619.216C453.447 621.849 457.446 625.542 460.382 629.981C460.382 629.981 460.382 629.981 460.375 629.986C463.257 634.345 465.617 639.006 467.409 643.879L467.581 644.351L467.58 644.351C465.998 639.943 467.878 635.071 472.063 632.737C486.227 624.839 516.211 608.122 528.091 601.501C529.391 600.775 530.957 600.638 532.372 601.124C533.787 601.611 534.91 602.672 535.443 604.028C535.606 604.421 534.677 601.973 533.096 598.731L533.048 598.636C531.853 596.264 530.505 593.94 529.023 591.699C529.028 591.694 529.028 591.694 529.028 591.694C527.779 589.806 523.29 582.412 513.559 573.127Z" fill="url(#paint36_linear_5075_13698)"/>
<path d="M423.157 751.653C392.507 734.574 367.661 693.039 367.661 658.881C367.661 624.723 392.507 610.878 423.157 627.957C453.807 645.036 478.653 686.571 478.653 720.729C478.653 754.887 453.807 768.732 423.157 751.653Z" fill="url(#paint37_linear_5075_13698)"/>
<path d="M143.265 595.688C112.616 578.609 87.769 537.074 87.769 502.916C87.769 468.758 112.616 454.913 143.265 471.992C173.915 489.071 198.762 530.606 198.762 564.764C198.762 598.922 173.915 612.767 143.265 595.688Z" fill="url(#paint38_linear_5075_13698)"/>
<path d="M281.705 707.91C264.403 698.269 250.377 674.822 250.377 655.54C250.377 636.258 264.403 628.443 281.705 638.084C299.006 647.725 313.032 671.171 313.032 690.453C313.032 709.735 299.006 717.55 281.705 707.91Z" fill="url(#paint39_linear_5075_13698)"/>
<path d="M273.394 703.281C260.68 696.197 250.374 678.967 250.374 664.798C250.374 650.629 260.68 644.885 273.394 651.97C286.108 659.055 296.415 676.284 296.415 690.454C296.415 704.623 286.108 710.366 273.394 703.281Z" fill="url(#paint40_linear_5075_13698)"/>
<path fill-rule="evenodd" clip-rule="evenodd" d="M290.375 704.397C295.809 701.804 299.581 696.174 299.581 688.684C299.581 674.524 289.265 657.279 276.559 650.199C269.839 646.455 262.902 646.793 257.856 650.036C261.952 648.14 267.407 648.628 273.393 651.964C286.098 659.044 296.414 676.288 296.414 690.448C296.414 697.119 294.126 701.923 290.375 704.397Z" fill="url(#paint41_linear_5075_13698)"/>
<path fill-rule="evenodd" clip-rule="evenodd" d="M290.375 704.397C295.809 701.804 299.581 696.174 299.581 688.684C299.581 674.524 289.265 657.279 276.559 650.199C269.839 646.455 262.902 646.793 257.856 650.036C261.952 648.14 267.407 648.628 273.393 651.964C286.098 659.044 296.414 676.288 296.414 690.448C296.414 697.119 294.126 701.923 290.375 704.397Z" fill="url(#paint42_linear_5075_13698)"/>
<path d="M352.513 777.493C337.014 768.857 324.45 747.854 324.45 730.582C324.45 713.31 337.014 706.309 352.513 714.945C368.011 723.581 380.575 744.584 380.575 761.856C380.575 779.128 368.011 786.129 352.513 777.493Z" fill="url(#paint43_linear_5075_13698)"/>
<path d="M208.326 698.593C192.827 689.957 180.264 668.954 180.264 651.682C180.264 634.409 192.827 627.408 208.326 636.045C223.824 644.681 236.388 665.684 236.388 682.956C236.388 700.228 223.824 707.229 208.326 698.593Z" fill="url(#paint44_linear_5075_13698)"/>
<path d="M346.087 764.773C338.667 760.638 332.651 750.583 332.651 742.313C332.651 734.044 338.667 730.692 346.087 734.827C353.507 738.962 359.522 749.017 359.522 757.287C359.522 765.556 353.507 768.908 346.087 764.773Z" fill="url(#paint45_linear_5075_13698)"/>
<path d="M201.912 685.864C194.492 681.729 188.476 671.674 188.476 663.404C188.476 655.135 194.492 651.783 201.912 655.918C209.332 660.052 215.347 670.108 215.347 678.377C215.347 686.647 209.332 689.999 201.912 685.864Z" fill="url(#paint46_linear_5075_13698)"/>
<path fill-rule="evenodd" clip-rule="evenodd" d="M204.549 441.38L233.981 424.979C234.907 416.318 247.298 408.573 243.945 406.473C243.839 406.408 243.732 406.348 243.622 406.294L243.64 406.305C238.784 403.933 234.712 418.091 207.82 430.138C204.554 431.609 200.846 431.688 197.569 430.442L198.763 431.207C202.025 433.297 204.549 437.732 204.549 441.379V441.38Z" fill="url(#paint47_linear_5075_13698)"/>
<path fill-rule="evenodd" clip-rule="evenodd" d="M204.543 441.377C204.543 438.862 202.02 433.248 198.757 431.242C189.844 425.764 172.655 417.318 161.822 410.661C159.322 409.124 156.856 408.413 155.018 408.7C153.18 408.987 152.135 410.245 152.135 412.173V412.174L204.543 441.377V441.377Z" fill="url(#paint48_linear_5075_13698)"/>
<path fill-rule="evenodd" clip-rule="evenodd" d="M196.61 429.961L197.562 430.444C200.839 431.69 204.547 431.611 207.812 430.14C234.669 418.11 238.766 403.972 243.614 406.298L243.615 406.296L198.891 381.376C194.035 379.004 189.962 393.162 163.071 405.209C159.805 406.68 157.212 407.783 154.186 408.876L154.265 408.891C154.499 408.808 154.749 408.746 155.017 408.704C156.855 408.418 159.32 409.128 161.821 410.666C171.838 416.822 187.293 424.509 196.61 429.961Z" fill="url(#paint49_linear_5075_13698)"/>
<path fill-rule="evenodd" clip-rule="evenodd" d="M120.666 429.711C120.666 426.064 123.189 424.44 126.452 425.987C135.365 430.212 152.555 438.361 163.387 443.496C165.888 444.681 168.354 447.017 170.192 449.943C172.03 452.868 173.075 456.119 173.075 458.914V458.915L120.666 429.712V429.711Z" fill="url(#paint50_linear_5075_13698)"/>
<path fill-rule="evenodd" clip-rule="evenodd" d="M199.279 444.311L173.077 458.913V458.911C173.077 456.117 172.032 452.866 170.194 449.94C168.356 447.016 165.891 444.679 163.39 443.494C152.558 438.359 135.368 430.21 126.455 425.985C124.951 425.272 123.604 425.233 122.589 425.755L148.793 411.153C149.808 410.631 151.155 410.671 152.659 411.383C161.572 415.609 178.762 423.757 189.594 428.892C192.094 430.078 194.56 432.414 196.398 435.339C198.236 438.265 199.28 441.515 199.28 444.31V444.312L199.279 444.311Z" fill="url(#paint51_linear_5075_13698)"/>
<path d="M326.685 791.885C311.187 783.249 298.623 762.246 298.623 744.974C298.623 727.701 311.187 720.7 326.685 729.337C342.183 737.973 354.747 758.976 354.747 776.248C354.747 793.52 342.183 800.521 326.685 791.885Z" fill="url(#paint52_linear_5075_13698)"/>
<path d="M182.498 712.981C167 704.345 154.436 683.342 154.436 666.07C154.436 648.798 167 641.797 182.498 650.433C197.997 659.069 210.561 680.072 210.561 697.344C210.561 714.617 197.997 721.618 182.498 712.981Z" fill="url(#paint53_linear_5075_13698)"/>
<path fill-rule="evenodd" clip-rule="evenodd" d="M344.517 794.689C353.087 792.413 359.526 784.748 359.526 774.094C359.526 756.833 346.952 735.813 331.464 727.182C321.01 721.357 309.706 723.077 303.464 730.119C308.514 724.654 317.035 723.96 326.686 729.338C342.174 737.968 354.748 758.988 354.748 776.248C354.748 785.965 350.764 792.432 344.517 794.689Z" fill="url(#paint54_linear_5075_13698)"/>
<path fill-rule="evenodd" clip-rule="evenodd" d="M200.338 715.785C208.908 713.509 215.347 705.844 215.347 695.189C215.347 677.928 202.773 656.908 187.285 648.278C176.831 642.453 165.526 644.173 159.285 651.215C164.335 645.75 172.856 645.055 182.507 650.433C197.995 659.064 210.569 680.084 210.569 697.344C210.569 707.061 206.585 713.527 200.338 715.785Z" fill="url(#paint55_linear_5075_13698)"/>
<path fill-rule="evenodd" clip-rule="evenodd" d="M344.517 794.689C353.087 792.413 359.526 784.748 359.526 774.094C359.526 756.833 346.952 735.813 331.464 727.182C321.01 721.357 309.706 723.077 303.464 730.119C308.514 724.654 317.035 723.96 326.686 729.338C342.174 737.968 354.748 758.988 354.748 776.248C354.748 785.965 350.764 792.432 344.517 794.689Z" fill="url(#paint56_linear_5075_13698)"/>
<path fill-rule="evenodd" clip-rule="evenodd" d="M200.338 715.785C208.908 713.509 215.347 705.844 215.347 695.189C215.347 677.928 202.773 656.908 187.285 648.278C176.831 642.453 165.526 644.173 159.285 651.215C164.335 645.75 172.856 645.055 182.507 650.433C197.995 659.064 210.569 680.084 210.569 697.344C210.569 707.061 206.585 713.527 200.338 715.785Z" fill="url(#paint57_linear_5075_13698)"/>
<path fill-rule="evenodd" clip-rule="evenodd" d="M125.526 551.037C125.014 551.594 124.74 552.436 124.741 553.454C124.743 558.007 124.751 570.942 124.751 570.942C124.748 572.751 125.381 574.841 126.51 576.752C127.64 578.662 129.173 580.238 130.772 581.129C134.522 583.218 139.325 585.894 143.07 587.981C146.391 589.832 149.086 588.288 149.092 584.531C149.101 578.59 149.084 570.376 149.076 566.989C149.073 565.976 148.799 564.836 148.289 563.714C146.256 559.236 140.954 547.564 140.954 547.564C140.038 545.547 138.526 543.804 136.91 542.903C135.294 542.003 133.782 542.061 132.866 543.057C130.219 545.935 126.988 549.447 125.526 551.037Z" fill="url(#paint58_linear_5075_13698)"/>
<path fill-rule="evenodd" clip-rule="evenodd" d="M147.12 588.466L147.125 588.471L152.361 585.553C153.468 584.936 154.157 583.603 154.159 581.708C154.169 575.766 154.151 567.552 154.143 564.166C154.141 563.152 153.867 562.012 153.358 560.891C151.324 556.413 146.021 544.74 146.021 544.74C145.106 542.723 143.593 540.981 141.978 540.08C140.732 539.386 139.549 539.261 138.652 539.696L138.65 539.693L133.796 542.398L133.818 542.421C134.683 542.11 135.771 542.268 136.91 542.904C138.527 543.803 140.038 545.546 140.955 547.563C140.955 547.563 146.256 559.236 148.29 563.715C148.8 564.835 149.073 565.976 149.076 566.989C149.084 570.376 149.102 578.59 149.093 584.531C149.089 586.524 148.33 587.894 147.12 588.466Z" fill="url(#paint59_linear_5075_13698)"/>
<path fill-rule="evenodd" clip-rule="evenodd" d="M140.238 531.972L140.239 531.975L145.162 529.231L145.152 529.219C145.47 529.087 145.757 528.889 146.001 528.623C148.648 525.745 151.879 522.233 153.341 520.644C153.853 520.086 154.127 519.244 154.127 518.226C154.124 513.673 154.116 500.738 154.116 500.738C154.119 498.929 153.487 496.838 152.356 494.928C151.227 493.017 149.694 491.443 148.094 490.551C144.345 488.462 139.542 485.786 135.796 483.699C134.132 482.771 132.624 482.696 131.534 483.325L126.505 486.127C127.593 485.522 129.084 485.605 130.73 486.522C134.475 488.61 139.278 491.285 143.027 493.375C144.626 494.266 146.16 495.841 147.29 497.751C148.419 499.662 149.052 501.753 149.049 503.561C149.049 503.561 149.056 516.496 149.06 521.05C149.06 522.068 148.787 522.91 148.274 523.466C146.812 525.057 143.581 528.569 140.934 531.447C140.729 531.669 140.496 531.844 140.238 531.972Z" fill="url(#paint60_linear_5075_13698)"/>
<path fill-rule="evenodd" clip-rule="evenodd" d="M118.914 540.868C118.158 541.017 117.265 540.826 116.352 540.316C112.269 538.037 100.666 531.564 100.666 531.564C99.0413 530.661 97.4823 529.087 96.3321 527.188C95.1828 525.289 94.5359 523.219 94.5359 521.437C94.5359 517.258 94.5359 511.906 94.5359 507.732C94.5359 504.03 97.2686 502.55 100.642 504.423C105.978 507.386 113.34 511.508 116.375 513.208C117.283 513.717 118.169 514.516 118.921 515.503C121.921 519.441 129.744 529.709 129.744 529.709C131.096 531.484 131.904 533.619 131.904 535.42C131.904 537.22 131.096 538.455 129.744 538.723C125.838 539.497 121.072 540.441 118.914 540.868Z" fill="url(#paint61_linear_5075_13698)"/>
<path fill-rule="evenodd" clip-rule="evenodd" d="M130.404 538.489L135.599 535.595L135.598 535.594C136.466 535.073 136.964 534.007 136.964 532.594C136.964 530.793 136.157 528.657 134.805 526.883C134.805 526.883 126.981 516.615 123.981 512.677C123.229 511.689 122.343 510.891 121.435 510.382C118.401 508.682 111.04 504.56 105.703 501.598C103.919 500.607 102.315 500.554 101.199 501.271L96.326 503.98C97.4298 503.386 98.9534 503.487 100.637 504.421C105.972 507.383 113.334 511.505 116.369 513.206C117.277 513.714 118.163 514.513 118.914 515.499C121.915 519.439 129.738 529.706 129.738 529.706C131.09 531.481 131.897 533.616 131.897 535.416C131.897 536.898 131.351 537.997 130.404 538.489Z" fill="url(#paint62_linear_5075_13698)"/>
<path fill-rule="evenodd" clip-rule="evenodd" d="M148.274 523.465C148.787 522.907 149.061 522.066 149.06 521.048C149.057 516.495 149.049 503.56 149.049 503.56C149.052 501.751 148.419 499.661 147.29 497.75C146.161 495.84 144.627 494.264 143.028 493.373C139.278 491.284 134.476 488.608 130.731 486.521C127.409 484.67 124.715 486.214 124.708 489.97C124.699 495.912 124.717 504.126 124.725 507.513C124.728 508.526 125.002 509.666 125.511 510.788C127.545 515.265 132.846 526.938 132.846 526.938C133.762 528.955 135.275 530.698 136.89 531.599C138.506 532.499 140.018 532.441 140.934 531.445C143.582 528.567 146.812 525.055 148.274 523.465Z" fill="url(#paint63_linear_5075_13698)"/>
<path fill-rule="evenodd" clip-rule="evenodd" d="M154.921 560.936C155.678 561.928 156.57 562.731 157.483 563.239C161.567 565.511 173.17 571.968 173.17 571.968C174.794 572.877 176.353 573.04 177.503 572.422C178.653 571.804 179.299 570.456 179.299 568.674C179.299 564.495 179.299 559.142 179.299 554.968C179.299 551.267 176.567 546.741 173.193 544.854C167.857 541.87 160.495 537.788 157.461 536.106C156.552 535.603 155.667 535.415 154.915 535.564C151.914 536.158 144.091 537.707 144.091 537.707C142.739 537.975 141.931 539.21 141.931 541.011C141.931 542.811 142.739 544.947 144.091 546.721C147.997 551.848 152.763 558.104 154.921 560.936Z" fill="url(#paint64_linear_5075_13698)"/>
<path fill-rule="evenodd" clip-rule="evenodd" d="M155.427 535.514C155.603 535.514 155.784 535.529 155.97 535.56C156.144 535.589 156.322 535.633 156.503 535.689L156.537 535.7C156.737 535.765 156.941 535.846 157.146 535.944L157.206 535.973L157.266 536.003C157.331 536.036 157.396 536.07 157.462 536.106C160.495 537.788 167.857 541.871 173.193 544.854C173.536 545.046 173.872 545.265 174.199 545.507L174.275 545.564C174.475 545.715 174.673 545.875 174.866 546.044L174.937 546.107C175.008 546.17 175.079 546.234 175.149 546.299C175.187 546.335 175.226 546.371 175.264 546.408C175.662 546.786 176.04 547.199 176.394 547.636C176.46 547.719 176.527 547.803 176.592 547.887C176.739 548.078 176.883 548.274 177.021 548.474C177.288 548.858 177.536 549.257 177.763 549.663L177.811 549.751C177.839 549.801 177.865 549.851 177.892 549.902L177.906 549.927C177.921 549.957 177.937 549.986 177.952 550.015L177.991 550.09C178.084 550.271 178.173 550.455 178.257 550.639L178.298 550.729L178.336 550.815C178.521 551.235 178.682 551.659 178.817 552.084C178.886 552.3 178.948 552.515 179.003 552.731C179.183 553.441 179.285 554.146 179.298 554.826C179.299 554.873 179.3 554.921 179.3 554.968C179.3 559.142 179.3 564.494 179.3 568.673C179.3 568.701 179.3 568.729 179.3 568.756L179.298 568.836L179.296 568.916L179.292 568.996V569.003L179.291 569.035L179.288 569.075L179.288 569.083L179.286 569.115L179.283 569.154L179.282 569.163L179.28 569.195L179.278 569.232L179.276 569.242L179.274 569.273L179.271 569.309L179.27 569.321L179.267 569.351L179.263 569.385L179.261 569.399L179.258 569.428L179.255 569.461L179.252 569.476L179.25 569.505L179.245 569.535L179.243 569.552L179.239 569.58L179.235 569.61L179.232 569.628L179.229 569.655L179.224 569.684L179.221 569.703L179.217 569.729L179.212 569.757L179.208 569.777L179.204 569.803L179.199 569.829L179.197 569.84L179.195 569.851L179.191 569.875L179.185 569.901L179.183 569.913L179.181 569.924L179.176 569.947L179.17 569.972L179.168 569.984L179.165 569.996L179.161 570.019L179.155 570.042L179.152 570.055L179.15 570.068L179.144 570.089L179.139 570.112L179.135 570.125L179.132 570.138L179.127 570.159L179.122 570.181L179.118 570.194L179.114 570.208L179.109 570.228L179.104 570.248L179.1 570.263L179.096 570.277L179.091 570.297L179.085 570.316L179.081 570.331L179.076 570.346L179.07 570.364L179.065 570.382L179.061 570.398L179.056 570.413L179.05 570.431L179.045 570.448L179.04 570.464L179.035 570.48L179.029 570.497L179.023 570.513L179.018 570.529L179.012 570.546L179.006 570.562L179.001 570.578L178.995 570.593L178.989 570.611L178.984 570.627L178.978 570.641L178.972 570.657L178.965 570.676L178.959 570.69L178.954 570.704L178.947 570.72L178.941 570.739L178.935 570.753L178.929 570.766L178.923 570.783L178.915 570.802L178.909 570.815L178.904 570.827L178.897 570.844L178.888 570.863L178.882 570.876L178.878 570.887L178.87 570.905L178.861 570.924L178.856 570.936L178.851 570.946L178.842 570.964L178.833 570.984L178.827 570.995L178.823 571.005L178.814 571.023L178.804 571.044L178.798 571.054L178.794 571.063L178.785 571.08L178.774 571.102L178.769 571.112L178.764 571.12L178.755 571.138L178.743 571.159L178.734 571.176L178.724 571.193L178.712 571.216L178.703 571.231L178.693 571.249L178.679 571.273L178.671 571.286L178.661 571.303L178.646 571.327L178.638 571.34L178.628 571.356L178.612 571.381L178.605 571.392L178.594 571.409L178.577 571.435L178.57 571.445L178.56 571.46L178.541 571.486L178.535 571.495L178.526 571.509L178.505 571.538L178.468 571.589L178.429 571.638L178.391 571.687L178.385 571.694C178.153 571.975 177.882 572.207 177.571 572.384L182.598 569.584C183.73 568.96 184.367 567.618 184.367 565.85C184.367 561.671 184.367 556.319 184.367 552.145C184.367 548.443 181.634 543.918 178.26 542.031C172.924 539.047 165.563 534.965 162.528 533.283C161.62 532.78 160.733 532.591 159.982 532.74C156.981 533.334 149.158 534.884 149.158 534.884C148.628 534.989 148.339 535.2 147.831 535.483L143.515 537.895C143.694 537.811 143.887 537.748 144.092 537.707C144.092 537.707 151.915 536.158 154.916 535.563C155.08 535.531 155.251 535.514 155.427 535.514ZM169.155 569.743L169.192 569.754L169.164 569.739L169.155 569.743ZM143.215 538.062H143.216L143.217 538.062L143.215 538.062Z" fill="url(#paint65_linear_5075_13698)"/>
<path fill-rule="evenodd" clip-rule="evenodd" d="M155.427 535.514C155.603 535.514 155.784 535.529 155.97 535.56C156.144 535.589 156.322 535.633 156.503 535.689L156.537 535.7C156.737 535.765 156.941 535.846 157.146 535.944L157.206 535.973L157.266 536.003C157.331 536.036 157.396 536.07 157.462 536.106C160.495 537.788 167.857 541.871 173.193 544.854C173.536 545.046 173.872 545.265 174.199 545.507L174.275 545.564C174.475 545.715 174.673 545.875 174.866 546.044L174.937 546.107C175.008 546.17 175.079 546.234 175.149 546.299C175.187 546.335 175.226 546.371 175.264 546.408C175.662 546.786 176.04 547.199 176.394 547.636C176.46 547.719 176.527 547.803 176.592 547.887C176.739 548.078 176.883 548.274 177.021 548.474C177.288 548.858 177.536 549.257 177.763 549.663L177.811 549.751C177.839 549.801 177.865 549.851 177.892 549.902L177.906 549.927C177.921 549.957 177.937 549.986 177.952 550.015L177.991 550.09C178.084 550.271 178.173 550.455 178.257 550.639L178.298 550.729L178.336 550.815C178.521 551.235 178.682 551.659 178.817 552.084C178.886 552.3 178.948 552.515 179.003 552.731C179.183 553.441 179.285 554.146 179.298 554.826C179.299 554.873 179.3 554.921 179.3 554.968C179.3 559.142 179.3 564.494 179.3 568.673C179.3 568.701 179.3 568.729 179.3 568.756L179.298 568.836L179.296 568.916L179.292 568.996V569.003L179.291 569.035L179.288 569.075L179.288 569.083L179.286 569.115L179.283 569.154L179.282 569.163L179.28 569.195L179.278 569.232L179.276 569.242L179.274 569.273L179.271 569.309L179.27 569.321L179.267 569.351L179.263 569.385L179.261 569.399L179.258 569.428L179.255 569.461L179.252 569.476L179.25 569.505L179.245 569.535L179.243 569.552L179.239 569.58L179.235 569.61L179.232 569.628L179.229 569.655L179.224 569.684L179.221 569.703L179.217 569.729L179.212 569.757L179.208 569.777L179.204 569.803L179.199 569.829L179.197 569.84L179.195 569.851L179.191 569.875L179.185 569.901L179.183 569.913L179.181 569.924L179.176 569.947L179.17 569.972L179.168 569.984L179.165 569.996L179.161 570.019L179.155 570.042L179.152 570.055L179.15 570.068L179.144 570.089L179.139 570.112L179.135 570.125L179.132 570.138L179.127 570.159L179.122 570.181L179.118 570.194L179.114 570.208L179.109 570.228L179.104 570.248L179.1 570.263L179.096 570.277L179.091 570.297L179.085 570.316L179.081 570.331L179.076 570.346L179.07 570.364L179.065 570.382L179.061 570.398L179.056 570.413L179.05 570.431L179.045 570.448L179.04 570.464L179.035 570.48L179.029 570.497L179.023 570.513L179.018 570.529L179.012 570.546L179.006 570.562L179.001 570.578L178.995 570.593L178.989 570.611L178.984 570.627L178.978 570.641L178.972 570.657L178.965 570.676L178.959 570.69L178.954 570.704L178.947 570.72L178.941 570.739L178.935 570.753L178.929 570.766L178.923 570.783L178.915 570.802L178.909 570.815L178.904 570.827L178.897 570.844L178.888 570.863L178.882 570.876L178.878 570.887L178.87 570.905L178.861 570.924L178.856 570.936L178.851 570.946L178.842 570.964L178.833 570.984L178.827 570.995L178.823 571.005L178.814 571.023L178.804 571.044L178.798 571.054L178.794 571.063L178.785 571.08L178.774 571.102L178.769 571.112L178.764 571.12L178.755 571.138L178.743 571.159L178.734 571.176L178.724 571.193L178.712 571.216L178.703 571.231L178.693 571.249L178.679 571.273L178.671 571.286L178.661 571.303L178.646 571.327L178.638 571.34L178.628 571.356L178.612 571.381L178.605 571.392L178.594 571.409L178.577 571.435L178.57 571.445L178.56 571.46L178.541 571.486L178.535 571.495L178.526 571.509L178.505 571.538L178.468 571.589L178.429 571.638L178.391 571.687L178.385 571.694C178.153 571.975 177.882 572.207 177.571 572.384L182.598 569.584C183.73 568.96 184.367 567.618 184.367 565.85C184.367 561.671 184.367 556.319 184.367 552.145C184.367 548.443 181.634 543.918 178.26 542.031C172.924 539.047 165.563 534.965 162.528 533.283C161.62 532.78 160.733 532.591 159.982 532.74C156.981 533.334 149.158 534.884 149.158 534.884C148.628 534.989 148.339 535.2 147.831 535.483L143.515 537.895C143.694 537.811 143.887 537.748 144.092 537.707C144.092 537.707 151.915 536.158 154.916 535.563C155.08 535.531 155.251 535.514 155.427 535.514ZM169.155 569.743L169.192 569.754L169.164 569.739L169.155 569.743ZM143.215 538.062H143.216L143.217 538.062L143.215 538.062Z" fill="url(#paint66_linear_5075_13698)"/>
<path d="M448.323 727.558C440.327 723.102 433.845 712.266 433.845 703.355C433.845 694.444 440.327 690.833 448.323 695.288C456.319 699.744 462.801 710.579 462.801 719.49C462.801 728.401 456.319 732.013 448.323 727.558Z" fill="url(#paint67_linear_5075_13698)"/>
<path d="M416.36 674.137C408.364 669.681 401.882 658.846 401.882 649.935C401.882 641.024 408.364 637.412 416.36 641.867C424.356 646.323 430.838 657.158 430.838 666.069C430.838 674.98 424.356 678.592 416.36 674.137Z" fill="url(#paint68_linear_5075_13698)"/>
<path d="M384.409 691.944C376.413 687.489 369.931 676.653 369.931 667.742C369.931 658.831 376.413 655.219 384.409 659.675C392.405 664.13 398.887 674.966 398.887 683.877C398.887 692.788 392.405 696.4 384.409 691.944Z" fill="url(#paint69_linear_5075_13698)"/>
<path d="M416.36 745.359C408.364 740.904 401.882 730.068 401.882 721.157C401.882 712.246 408.364 708.634 416.36 713.09C424.356 717.545 430.838 728.381 430.838 737.292C430.838 746.203 424.356 749.815 416.36 745.359Z" fill="url(#paint70_linear_5075_13698)"/>
<path fill-rule="evenodd" clip-rule="evenodd" d="M459.005 728.257L459.017 728.273L463.931 725.535L463.882 725.517C466.135 723.928 467.502 720.954 467.502 716.866C467.502 707.961 461.015 697.116 453.024 692.664C449.107 690.482 445.551 690.237 442.945 691.605L442.942 691.604L437.214 694.795L437.302 694.816C439.958 692.831 443.908 692.833 448.315 695.288C456.305 699.741 462.793 710.585 462.793 719.491C462.793 723.679 461.358 726.698 459.005 728.257Z" fill="url(#paint71_linear_5075_13698)"/>
<path fill-rule="evenodd" clip-rule="evenodd" d="M426.595 675.112L431.305 672.488C433.925 671.028 435.547 667.898 435.547 663.446C435.547 654.54 429.06 643.696 421.069 639.243C417.3 637.143 413.865 636.838 411.289 638.035L411.259 638.03L405.938 640.995L405.941 640.998C408.574 639.423 412.27 639.588 416.36 641.868C424.35 646.32 430.837 657.164 430.837 666.07C430.837 670.522 429.216 673.653 426.595 675.112Z" fill="url(#paint72_linear_5075_13698)"/>
<path fill-rule="evenodd" clip-rule="evenodd" d="M394.885 692.774L399.604 690.144C402.072 688.625 403.588 685.557 403.588 681.253C403.588 672.348 397.1 661.503 389.109 657.051C385.114 654.824 381.494 654.615 378.874 656.075L373.784 658.911L373.791 658.923C376.436 657.223 380.212 657.341 384.4 659.675C392.39 664.128 398.878 674.972 398.878 683.877C398.878 688.187 397.359 691.257 394.885 692.774Z" fill="url(#paint73_linear_5075_13698)"/>
<path fill-rule="evenodd" clip-rule="evenodd" d="M426.166 746.557L426.184 746.567L431.461 743.627L431.457 743.626C433.988 742.129 435.547 739.035 435.547 734.67C435.547 725.766 429.06 714.92 421.069 710.468C417.074 708.241 413.454 708.032 410.834 709.493L405.743 712.329L405.754 712.339C408.399 710.641 412.173 710.759 416.36 713.092C424.35 717.544 430.837 728.389 430.837 737.294C430.837 741.986 429.037 745.209 426.166 746.557Z" fill="url(#paint74_linear_5075_13698)"/>
<path fill-rule="evenodd" clip-rule="evenodd" d="M486.838 598.681L516.27 582.281C517.196 573.619 529.587 565.875 526.234 563.775C526.128 563.709 526.021 563.65 525.911 563.595L525.929 563.606C521.073 561.234 517 575.393 490.109 587.44C486.843 588.911 483.135 588.99 479.858 587.744L481.052 588.509C484.314 590.598 486.838 595.034 486.838 598.681V598.681Z" fill="url(#paint75_linear_5075_13698)"/>
<path fill-rule="evenodd" clip-rule="evenodd" d="M204.549 441.38L233.981 424.979C234.907 416.318 247.298 408.573 243.945 406.473C243.839 406.408 243.732 406.348 243.622 406.294L243.64 406.305C238.784 403.933 234.712 418.091 207.82 430.138C204.554 431.609 200.846 431.688 197.569 430.442L198.763 431.207C202.025 433.297 204.549 437.732 204.549 441.379V441.38Z" fill="url(#paint76_linear_5075_13698)"/>
<path fill-rule="evenodd" clip-rule="evenodd" d="M486.838 598.681L516.27 582.281C517.196 573.619 529.587 565.875 526.234 563.775C526.128 563.709 526.021 563.65 525.911 563.595L525.929 563.606C521.073 561.234 517 575.393 490.109 587.44C486.843 588.911 483.135 588.99 479.858 587.744L481.052 588.509C484.314 590.598 486.838 595.034 486.838 598.681V598.681Z" fill="url(#paint77_linear_5075_13698)"/>
<path fill-rule="evenodd" clip-rule="evenodd" d="M486.844 598.68C486.844 596.166 484.321 590.551 481.058 588.546C472.145 583.068 454.955 574.622 444.123 567.965C441.622 566.427 439.157 565.717 437.318 566.004C435.481 566.291 434.436 567.549 434.436 569.477V569.478L486.844 598.681V598.68Z" fill="url(#paint78_linear_5075_13698)"/>
<path fill-rule="evenodd" clip-rule="evenodd" d="M478.91 587.262L479.862 587.745C483.14 588.991 486.847 588.912 490.113 587.441C516.969 575.41 521.067 561.272 525.914 563.599L525.915 563.597L481.192 538.677C476.336 536.305 472.263 550.463 445.372 562.51C442.106 563.981 439.512 565.083 436.486 566.177L436.566 566.191C436.799 566.109 437.05 566.047 437.318 566.005C439.156 565.719 441.621 566.429 444.122 567.966C454.139 574.123 469.594 581.809 478.91 587.262Z" fill="url(#paint79_linear_5075_13698)"/>
<path fill-rule="evenodd" clip-rule="evenodd" d="M455.372 616.216C455.372 612.57 452.849 608.134 449.586 606.044C440.674 600.336 423.484 589.328 412.652 582.391C410.151 580.789 407.685 580.377 405.847 581.254C404.009 582.131 402.964 584.218 402.964 587.013V587.014L455.372 616.217V616.216Z" fill="url(#paint80_linear_5075_13698)"/>
<path fill-rule="evenodd" clip-rule="evenodd" d="M455.373 616.216L481.576 601.613L481.577 601.614V601.613C481.577 597.967 479.053 593.531 475.791 591.442C466.878 585.733 449.688 574.725 438.856 567.788C436.355 566.186 433.89 565.775 432.052 566.652C431.887 566.729 431.73 566.818 431.579 566.915L405.848 581.253C407.686 580.376 410.151 580.788 412.652 582.389C423.484 589.326 440.674 600.335 449.587 606.043C452.85 608.133 455.373 612.568 455.373 616.215V616.216Z" fill="url(#paint81_linear_5075_13698)"/>
<path fill-rule="evenodd" clip-rule="evenodd" d="M360.149 571.294C359.232 571.806 358.666 572.751 358.666 573.774C358.666 584.912 358.666 648.571 358.666 648.571C358.666 655.385 353.709 658.146 347.595 654.739C319.192 638.912 243.978 597.001 215.575 581.174C209.461 577.767 204.504 569.481 204.504 562.668V487.867C204.504 486.847 205.069 485.903 205.985 485.392C207.735 484.417 210.593 482.825 212.011 482.035C212.539 481.74 213.191 481.74 213.719 482.035C225.038 488.341 345.316 555.364 364.464 566.034C364.992 566.329 365.318 566.873 365.318 567.462C365.318 568.051 364.992 568.595 364.464 568.89C363.05 569.679 361.344 570.629 360.149 571.294Z" fill="url(#paint82_linear_5075_13698)"/>
<path fill-rule="evenodd" clip-rule="evenodd" d="M355.202 655.609L355.199 655.604C355.275 655.566 355.348 655.528 355.421 655.487L355.202 655.609ZM365.522 567.625L365.532 570.174C365.532 570.955 365.587 571.406 364.886 571.797C364.886 571.797 364.84 571.822 364.766 571.863C363.626 572.498 362.231 573.136 362.231 575.313C362.231 584.967 362.231 646.582 362.231 646.582C362.231 649.971 361.006 652.357 359.022 653.481L355.424 655.486C357.208 654.491 358.385 652.484 358.622 649.65L358.627 649.576L358.632 649.5L358.638 649.424L358.643 649.349L358.647 649.273L358.651 649.196L358.654 649.119L358.657 649.041L358.66 648.963L358.662 648.885L358.663 648.807L358.664 648.728L358.665 648.649C358.665 648.622 358.665 648.596 358.665 648.569V573.565C358.665 572.671 359.159 571.844 359.962 571.397L364.785 568.709C365.197 568.479 365.469 568.075 365.522 567.625ZM365.521 567.285L365.519 567.268C365.519 567.262 365.52 567.257 365.521 567.251V567.285Z" fill="url(#paint83_linear_5075_13698)"/>
<path opacity="0.2" d="M539.546 38.1562C545.97 38.1562 551.732 39.6679 555.888 42.0293L833.983 202.614C838.139 205.07 840.785 208.377 840.785 212.061L840.784 212.064L840.871 212.059V797.72C840.87 801.404 838.32 804.71 834.07 807.166L801.394 826.053V826.06L801.388 826.056L801.386 826.058V826.055L785.053 816.614L654.128 892.196V911.077L621.446 929.969C617.29 932.425 611.433 933.842 605.104 933.842C598.681 933.842 592.918 932.33 588.761 929.969L557.217 911.76C542.889 936.086 512.864 951.351 490.368 952.468C490.399 952.466 490.431 952.462 490.462 952.46C476.35 953.453 460.092 942.699 449.06 924.171C436.861 903.685 422.224 868.15 413.278 837.612C412.161 833.798 411.059 830.185 409.975 826.765L350.292 792.312C348.674 793.3 346.912 794.058 345.047 794.56C340.191 796.337 333.957 795.559 327.158 791.771C311.66 783.134 299.096 762.131 299.096 744.859C299.096 740.279 299.979 736.42 301.567 733.385L246.915 702.931L235.38 709.358L235.383 709.345C229.241 712.988 220.862 712.954 211.522 708.524C208.925 711.942 205.326 714.378 201.211 715.561C201.093 715.595 200.974 715.627 200.855 715.659C195.999 717.434 189.768 716.655 182.971 712.868C179.862 711.136 176.872 708.905 174.077 706.307C159.258 723.666 140.475 738.667 112.735 740.276C111.51 740.347 110.401 740.312 109.395 740.178C87.4013 743.398 53.139 707.106 46.1577 654.032C32.8883 553.158 84.6755 457.072 96.606 436.54C97.9876 434.252 100.019 432.404 102.449 431.207L102.432 431.198L121.315 420.104C121.891 419.61 157.577 400.542 157.616 400.521C160.136 399.187 161.957 398 163.042 397.568C164.354 397.046 170.399 393.551 182.045 394.319C192.916 386.111 195.947 379.593 199.365 381.263L244.066 406.17L244.114 406.191L244.095 406.181C244.205 406.235 244.313 406.295 244.418 406.36C246.904 407.918 240.735 412.581 237.001 418.418C258.034 432.46 280.741 446.478 303.771 459.935V174.275C303.771 170.592 306.322 167.285 310.573 164.829L523.206 42.0293C527.362 39.5735 533.218 38.1563 539.546 38.1562Z" fill="black"/>
<defs>
<linearGradient id="paint0_linear_5075_13698" x1="637.534" y1="565.869" x2="784.8" y2="565.869" gradientUnits="userSpaceOnUse">
<stop stop-color="#020202" stop-opacity="0.6"/>
<stop offset="1" stop-color="#020202" stop-opacity="0.5"/>
</linearGradient>
<linearGradient id="paint1_linear_5075_13698" x1="653.874" y1="587.978" x2="297.403" y2="587.601" gradientUnits="userSpaceOnUse">
<stop stop-color="#020202" stop-opacity="0"/>
<stop offset="1" stop-color="#020202" stop-opacity="0.2"/>
</linearGradient>
<linearGradient id="paint2_linear_5075_13698" x1="801.139" y1="559.132" x2="784.712" y2="559.113" gradientUnits="userSpaceOnUse">
<stop stop-color="#020202" stop-opacity="0.1"/>
<stop offset="1" stop-color="#020202" stop-opacity="0.2"/>
</linearGradient>
<linearGradient id="paint3_linear_5075_13698" x1="840.616" y1="550.668" x2="800.926" y2="550.561" gradientUnits="userSpaceOnUse">
<stop stop-color="#020202" stop-opacity="0.2"/>
<stop offset="1" stop-color="#020202" stop-opacity="0"/>
</linearGradient>
<linearGradient id="paint4_linear_5075_13698" x1="318.44" y1="596.567" x2="326.659" y2="596.567" gradientUnits="userSpaceOnUse">
<stop stop-opacity="0.9"/>
<stop offset="1" stop-opacity="0.9"/>
</linearGradient>
<linearGradient id="paint5_linear_5075_13698" x1="334.79" y1="606.012" x2="343.008" y2="606.012" gradientUnits="userSpaceOnUse">
<stop stop-opacity="0.9"/>
<stop offset="1" stop-opacity="0.9"/>
</linearGradient>
<linearGradient id="paint6_linear_5075_13698" x1="351.224" y1="615.461" x2="359.348" y2="615.461" gradientUnits="userSpaceOnUse">
<stop stop-opacity="0.9"/>
<stop offset="1" stop-opacity="0.9"/>
</linearGradient>
<linearGradient id="paint7_linear_5075_13698" x1="367.566" y1="624.906" x2="375.69" y2="624.906" gradientUnits="userSpaceOnUse">
<stop stop-opacity="0.9"/>
<stop offset="1" stop-opacity="0.9"/>
</linearGradient>
<linearGradient id="paint8_linear_5075_13698" x1="383.901" y1="634.35" x2="392.119" y2="634.35" gradientUnits="userSpaceOnUse">
<stop stop-opacity="0.9"/>
<stop offset="1" stop-opacity="0.9"/>
</linearGradient>
<linearGradient id="paint9_linear_5075_13698" x1="318.44" y1="700.474" x2="326.659" y2="700.474" gradientUnits="userSpaceOnUse">
<stop stop-opacity="0.9"/>
<stop offset="1" stop-opacity="0.9"/>
</linearGradient>
<linearGradient id="paint10_linear_5075_13698" x1="334.79" y1="709.92" x2="343.008" y2="709.92" gradientUnits="userSpaceOnUse">
<stop stop-opacity="0.9"/>
<stop offset="1" stop-opacity="0.9"/>
</linearGradient>
<linearGradient id="paint11_linear_5075_13698" x1="351.224" y1="719.367" x2="359.348" y2="719.367" gradientUnits="userSpaceOnUse">
<stop stop-opacity="0.9"/>
<stop offset="1" stop-opacity="0.9"/>
</linearGradient>
<linearGradient id="paint12_linear_5075_13698" x1="367.566" y1="728.813" x2="375.69" y2="728.813" gradientUnits="userSpaceOnUse">
<stop stop-opacity="0.9"/>
<stop offset="1" stop-opacity="0.9"/>
</linearGradient>
<linearGradient id="paint13_linear_5075_13698" x1="383.901" y1="738.259" x2="392.119" y2="738.259" gradientUnits="userSpaceOnUse">
<stop stop-opacity="0.9"/>
<stop offset="1" stop-opacity="0.9"/>
</linearGradient>
<linearGradient id="paint14_linear_5075_13698" x1="457.586" y1="676.86" x2="465.709" y2="676.86" gradientUnits="userSpaceOnUse">
<stop stop-opacity="0.9"/>
<stop offset="1" stop-opacity="0.9"/>
</linearGradient>
<linearGradient id="paint15_linear_5075_13698" x1="473.928" y1="686.305" x2="482.052" y2="686.305" gradientUnits="userSpaceOnUse">
<stop stop-opacity="0.9"/>
<stop offset="1" stop-opacity="0.9"/>
</linearGradient>
<linearGradient id="paint16_linear_5075_13698" x1="490.27" y1="695.751" x2="498.488" y2="695.751" gradientUnits="userSpaceOnUse">
<stop stop-opacity="0.9"/>
<stop offset="1" stop-opacity="0.9"/>
</linearGradient>
<linearGradient id="paint17_linear_5075_13698" x1="506.612" y1="705.197" x2="514.83" y2="705.197" gradientUnits="userSpaceOnUse">
<stop stop-opacity="0.9"/>
<stop offset="1" stop-opacity="0.9"/>
</linearGradient>
<linearGradient id="paint18_linear_5075_13698" x1="522.954" y1="714.644" x2="531.173" y2="714.644" gradientUnits="userSpaceOnUse">
<stop stop-opacity="0.9"/>
<stop offset="1" stop-opacity="0.9"/>
</linearGradient>
<linearGradient id="paint19_linear_5075_13698" x1="457.586" y1="780.77" x2="465.709" y2="780.77" gradientUnits="userSpaceOnUse">
<stop stop-opacity="0.9"/>
<stop offset="1" stop-opacity="0.9"/>
</linearGradient>
<linearGradient id="paint20_linear_5075_13698" x1="473.928" y1="790.214" x2="482.052" y2="790.214" gradientUnits="userSpaceOnUse">
<stop stop-opacity="0.9"/>
<stop offset="1" stop-opacity="0.9"/>
</linearGradient>
<linearGradient id="paint21_linear_5075_13698" x1="490.27" y1="799.658" x2="498.488" y2="799.658" gradientUnits="userSpaceOnUse">
<stop stop-opacity="0.9"/>
<stop offset="1" stop-opacity="0.9"/>
</linearGradient>
<linearGradient id="paint22_linear_5075_13698" x1="506.612" y1="809.105" x2="514.83" y2="809.105" gradientUnits="userSpaceOnUse">
<stop stop-opacity="0.9"/>
<stop offset="1" stop-opacity="0.9"/>
</linearGradient>
<linearGradient id="paint23_linear_5075_13698" x1="522.954" y1="818.551" x2="531.172" y2="818.551" gradientUnits="userSpaceOnUse">
<stop stop-opacity="0.9"/>
<stop offset="1" stop-opacity="0.9"/>
</linearGradient>
<linearGradient id="paint24_linear_5075_13698" x1="784.8" y1="381.052" x2="652.184" y2="385.226" gradientUnits="userSpaceOnUse">
<stop stop-color="#FEFEFE" stop-opacity="0.3"/>
<stop offset="1" stop-color="#FEFEFE" stop-opacity="0"/>
</linearGradient>
<linearGradient id="paint25_linear_5075_13698" x1="752.014" y1="613.549" x2="669.122" y2="615.587" gradientUnits="userSpaceOnUse">
<stop stop-color="#FEFEFE" stop-opacity="0.1"/>
<stop offset="1" stop-color="#FEFEFE" stop-opacity="0.3"/>
</linearGradient>
<linearGradient id="paint26_linear_5075_13698" x1="840.53" y1="208.427" x2="380.883" y2="221.579" gradientUnits="userSpaceOnUse">
<stop stop-color="#020202" stop-opacity="0.2"/>
<stop offset="1" stop-color="#020202" stop-opacity="0"/>
</linearGradient>
<linearGradient id="paint27_linear_5075_13698" x1="840.617" y1="343.373" x2="800.587" y2="343.829" gradientUnits="userSpaceOnUse">
<stop stop-color="#FEFEFE" stop-opacity="0.1"/>
<stop offset="0.595" stop-color="#FEFEFE" stop-opacity="0.3"/>
</linearGradient>
<linearGradient id="paint28_linear_5075_13698" x1="653.875" y1="454.51" x2="587.623" y2="455.789" gradientUnits="userSpaceOnUse">
<stop stop-color="#FEFEFE" stop-opacity="0.1"/>
<stop offset="1" stop-color="#FEFEFE" stop-opacity="0.3"/>
</linearGradient>
<linearGradient id="paint29_linear_5075_13698" x1="801.139" y1="354.747" x2="784.57" y2="354.831" gradientUnits="userSpaceOnUse">
<stop stop-color="#FEFEFE" stop-opacity="0.1"/>
<stop offset="1" stop-color="#FEFEFE" stop-opacity="0"/>
</linearGradient>
<linearGradient id="paint30_linear_5075_13698" x1="235.899" y1="709.428" x2="243.206" y2="703.284" gradientUnits="userSpaceOnUse">
<stop stop-color="#465B67"/>
<stop offset="1" stop-color="#617F8F"/>
</linearGradient>
<linearGradient id="paint31_linear_5075_13698" x1="380.152" y1="789.808" x2="387.274" y2="783.547" gradientUnits="userSpaceOnUse">
<stop stop-color="#465B67"/>
<stop offset="1" stop-color="#617F8F"/>
</linearGradient>
<linearGradient id="paint32_linear_5075_13698" x1="105.137" y1="430.27" x2="468.976" y2="964.766" gradientUnits="userSpaceOnUse">
<stop stop-color="#4C6370"/>
<stop offset="0.5" stop-color="#B0C0C9"/>
<stop offset="1" stop-color="#6B8A9B"/>
</linearGradient>
<linearGradient id="paint33_linear_5075_13698" x1="115.662" y1="740.121" x2="167.682" y2="699.888" gradientUnits="userSpaceOnUse">
<stop stop-color="#465B67"/>
<stop offset="1" stop-color="#617F8F"/>
</linearGradient>
<linearGradient id="paint34_linear_5075_13698" x1="487.558" y1="624.098" x2="555.354" y2="917.326" gradientUnits="userSpaceOnUse">
<stop stop-color="#A0B4BE"/>
<stop offset="0.5" stop-color="#E6EBEE"/>
<stop offset="1" stop-color="#A3B6C0"/>
</linearGradient>
<linearGradient id="paint35_linear_5075_13698" x1="129.824" y1="415.188" x2="480.857" y2="615.048" gradientUnits="userSpaceOnUse">
<stop stop-color="#A0B4BE"/>
<stop offset="0.5" stop-color="#E6EBEE"/>
<stop offset="1" stop-color="#A3B6C0"/>
</linearGradient>
<linearGradient id="paint36_linear_5075_13698" x1="526.817" y1="590.304" x2="460.465" y2="630.395" gradientUnits="userSpaceOnUse">
<stop stop-color="#B1C1CA"/>
<stop offset="0.5" stop-color="#E6EBEE"/>
<stop offset="1" stop-color="#B0C0C9"/>
</linearGradient>
<linearGradient id="paint37_linear_5075_13698" x1="394.766" y1="624.585" x2="453.984" y2="756.194" gradientUnits="userSpaceOnUse">
<stop stop-color="#0A2D40"/>
<stop offset="1" stop-color="#193746"/>
</linearGradient>
<linearGradient id="paint38_linear_5075_13698" x1="114.874" y1="468.62" x2="174.092" y2="600.229" gradientUnits="userSpaceOnUse">
<stop stop-color="#0A2D40"/>
<stop offset="1" stop-color="#193746"/>
</linearGradient>
<linearGradient id="paint39_linear_5075_13698" x1="265.678" y1="636.18" x2="299.106" y2="710.472" gradientUnits="userSpaceOnUse">
<stop stop-color="#0A2D40"/>
<stop offset="1" stop-color="#193746"/>
</linearGradient>
<linearGradient id="paint40_linear_5075_13698" x1="267.819" y1="692.053" x2="267.819" y2="692.053" gradientUnits="userSpaceOnUse">
<stop stop-color="#B1BFCB"/>
<stop offset="0.5" stop-color="#F7F8F9"/>
<stop offset="1" stop-color="#D2DBE1"/>
</linearGradient>
<linearGradient id="paint41_linear_5075_13698" x1="296.414" y1="702.268" x2="262.739" y2="647.847" gradientUnits="userSpaceOnUse">
<stop stop-color="#FFFF00"/>
<stop offset="0.5" stop-color="#FF00FF"/>
<stop offset="1" stop-color="#00FFFF"/>
</linearGradient>
<linearGradient id="paint42_linear_5075_13698" x1="268.506" y1="695.391" x2="268.506" y2="695.391" gradientUnits="userSpaceOnUse">
<stop stop-color="#7C93A8"/>
<stop offset="0.5" stop-color="#ABBAC7"/>
<stop offset="1" stop-color="#5A7388"/>
</linearGradient>
<linearGradient id="paint43_linear_5075_13698" x1="338.157" y1="713.241" x2="368.101" y2="779.789" gradientUnits="userSpaceOnUse">
<stop stop-color="#0A2D40"/>
<stop offset="1" stop-color="#193746"/>
</linearGradient>
<linearGradient id="paint44_linear_5075_13698" x1="193.97" y1="634.34" x2="223.914" y2="700.889" gradientUnits="userSpaceOnUse">
<stop stop-color="#0A2D40"/>
<stop offset="1" stop-color="#193746"/>
</linearGradient>
<linearGradient id="paint45_linear_5075_13698" x1="358.402" y1="766.895" x2="370.977" y2="758.545" gradientUnits="userSpaceOnUse">
<stop stop-color="#364552"/>
<stop offset="0.5" stop-color="#99ACBC"/>
<stop offset="1" stop-color="#2D3A45"/>
</linearGradient>
<linearGradient id="paint46_linear_5075_13698" x1="214.227" y1="687.986" x2="226.802" y2="679.635" gradientUnits="userSpaceOnUse">
<stop stop-color="#364552"/>
<stop offset="0.5" stop-color="#99ACBC"/>
<stop offset="1" stop-color="#2D3A45"/>
</linearGradient>
<linearGradient id="paint47_linear_5075_13698" x1="240.739" y1="414.117" x2="199.754" y2="432.369" gradientUnits="userSpaceOnUse">
<stop stop-color="#0000FF"/>
<stop offset="0.5" stop-color="#00FF00"/>
<stop offset="1" stop-color="#FF0000"/>
</linearGradient>
<linearGradient id="paint48_linear_5075_13698" x1="156.645" y1="410.241" x2="202.227" y2="442.173" gradientUnits="userSpaceOnUse">
<stop stop-color="#5A7388"/>
<stop offset="0.5" stop-color="#ABBAC7"/>
<stop offset="1" stop-color="#7C93A8"/>
</linearGradient>
<linearGradient id="paint49_linear_5075_13698" x1="219.324" y1="392.761" x2="196.248" y2="429.806" gradientUnits="userSpaceOnUse">
<stop stop-color="#B1BFCB"/>
<stop offset="0.5" stop-color="#F7F8F9"/>
<stop offset="1" stop-color="#D2DBE1"/>
</linearGradient>
<linearGradient id="paint50_linear_5075_13698" x1="122.586" y1="425.757" x2="171.871" y2="458.665" gradientUnits="userSpaceOnUse">
<stop stop-color="#5A7388"/>
<stop offset="0.5" stop-color="#ABBAC7"/>
<stop offset="1" stop-color="#7C93A8"/>
</linearGradient>
<linearGradient id="paint51_linear_5075_13698" x1="148.175" y1="411.497" x2="178.772" y2="455.934" gradientUnits="userSpaceOnUse">
<stop stop-color="#B1BFCB"/>
<stop offset="0.5" stop-color="#F7F8F9"/>
<stop offset="1" stop-color="#D2DBE1"/>
</linearGradient>
<linearGradient id="paint52_linear_5075_13698" x1="412.677" y1="829.901" x2="412.677" y2="829.901" gradientUnits="userSpaceOnUse">
<stop stop-color="#B1BFCB"/>
<stop offset="0.5" stop-color="#F7F8F9"/>
<stop offset="1" stop-color="#D2DBE1"/>
</linearGradient>
<linearGradient id="paint53_linear_5075_13698" x1="268.49" y1="750.998" x2="268.49" y2="750.998" gradientUnits="userSpaceOnUse">
<stop stop-color="#B1BFCB"/>
<stop offset="0.5" stop-color="#F7F8F9"/>
<stop offset="1" stop-color="#D2DBE1"/>
</linearGradient>
<linearGradient id="paint54_linear_5075_13698" x1="311.737" y1="725.643" x2="357.533" y2="782.787" gradientUnits="userSpaceOnUse">
<stop stop-color="#0000FF"/>
<stop offset="0.5" stop-color="#00FF00"/>
<stop offset="1" stop-color="#FF0000"/>
</linearGradient>
<linearGradient id="paint55_linear_5075_13698" x1="167.558" y1="646.739" x2="213.354" y2="703.882" gradientUnits="userSpaceOnUse">
<stop stop-color="#0000FF"/>
<stop offset="0.5" stop-color="#00FF00"/>
<stop offset="1" stop-color="#FF0000"/>
</linearGradient>
<linearGradient id="paint56_linear_5075_13698" x1="272.044" y1="783.448" x2="272.044" y2="783.448" gradientUnits="userSpaceOnUse">
<stop stop-color="#7C93A8"/>
<stop offset="0.5" stop-color="#ABBAC7"/>
<stop offset="1" stop-color="#5A7388"/>
</linearGradient>
<linearGradient id="paint57_linear_5075_13698" x1="127.865" y1="704.544" x2="127.865" y2="704.544" gradientUnits="userSpaceOnUse">
<stop stop-color="#7C93A8"/>
<stop offset="0.5" stop-color="#ABBAC7"/>
<stop offset="1" stop-color="#5A7388"/>
</linearGradient>
<linearGradient id="paint58_linear_5075_13698" x1="116.596" y1="538.176" x2="116.596" y2="538.176" gradientUnits="userSpaceOnUse">
<stop stop-color="#B1BFCB"/>
<stop offset="0.5" stop-color="#F7F8F9"/>
<stop offset="1" stop-color="#D2DBE1"/>
</linearGradient>
<linearGradient id="paint59_linear_5075_13698" x1="122.683" y1="580.71" x2="122.683" y2="580.71" gradientUnits="userSpaceOnUse">
<stop stop-color="#7C93A8"/>
<stop offset="0.5" stop-color="#ABBAC7"/>
<stop offset="1" stop-color="#5A7388"/>
</linearGradient>
<linearGradient id="paint60_linear_5075_13698" x1="120.124" y1="524.21" x2="120.124" y2="524.21" gradientUnits="userSpaceOnUse">
<stop stop-color="#7C93A8"/>
<stop offset="0.5" stop-color="#ABBAC7"/>
<stop offset="1" stop-color="#5A7388"/>
</linearGradient>
<linearGradient id="paint61_linear_5075_13698" x1="125.989" y1="554.763" x2="125.989" y2="554.763" gradientUnits="userSpaceOnUse">
<stop stop-color="#B1BFCB"/>
<stop offset="0.5" stop-color="#F7F8F9"/>
<stop offset="1" stop-color="#D2DBE1"/>
</linearGradient>
<linearGradient id="paint62_linear_5075_13698" x1="170.295" y1="532.522" x2="170.295" y2="532.522" gradientUnits="userSpaceOnUse">
<stop stop-color="#7C93A8"/>
<stop offset="0.5" stop-color="#ABBAC7"/>
<stop offset="1" stop-color="#5A7388"/>
</linearGradient>
<linearGradient id="paint63_linear_5075_13698" x1="157.204" y1="536.326" x2="157.204" y2="536.326" gradientUnits="userSpaceOnUse">
<stop stop-color="#B1BFCB"/>
<stop offset="0.5" stop-color="#F7F8F9"/>
<stop offset="1" stop-color="#D2DBE1"/>
</linearGradient>
<linearGradient id="paint64_linear_5075_13698" x1="147.846" y1="566.946" x2="147.846" y2="566.946" gradientUnits="userSpaceOnUse">
<stop stop-color="#B1BFCB"/>
<stop offset="0.5" stop-color="#F7F8F9"/>
<stop offset="1" stop-color="#D2DBE1"/>
</linearGradient>
<linearGradient id="paint65_linear_5075_13698" x1="151.255" y1="534.975" x2="183.431" y2="563.229" gradientUnits="userSpaceOnUse">
<stop stop-color="#0000FF"/>
<stop offset="0.5" stop-color="#00FF00"/>
<stop offset="1" stop-color="#FF0000"/>
</linearGradient>
<linearGradient id="paint66_linear_5075_13698" x1="210.682" y1="566.101" x2="210.682" y2="566.101" gradientUnits="userSpaceOnUse">
<stop stop-color="#7C93A8"/>
<stop offset="0.5" stop-color="#ABBAC7"/>
<stop offset="1" stop-color="#5A7388"/>
</linearGradient>
<linearGradient id="paint67_linear_5075_13698" x1="439.756" y1="693.382" x2="455.806" y2="729.66" gradientUnits="userSpaceOnUse">
<stop stop-color="#F18888"/>
<stop offset="1" stop-color="#AF2424"/>
</linearGradient>
<linearGradient id="paint68_linear_5075_13698" x1="407.373" y1="640.196" x2="424.502" y2="676.083" gradientUnits="userSpaceOnUse">
<stop stop-color="#FFF06A"/>
<stop offset="1" stop-color="#C9B100"/>
</linearGradient>
<linearGradient id="paint69_linear_5075_13698" x1="376.887" y1="657.832" x2="392.745" y2="693.091" gradientUnits="userSpaceOnUse">
<stop stop-color="#1EC7FF"/>
<stop offset="1" stop-color="#0085B1"/>
</linearGradient>
<linearGradient id="paint70_linear_5075_13698" x1="407.901" y1="711.418" x2="424.59" y2="747.26" gradientUnits="userSpaceOnUse">
<stop stop-color="#43FBA5"/>
<stop offset="1" stop-color="#00A156"/>
</linearGradient>
<linearGradient id="paint71_linear_5075_13698" x1="443.734" y1="691.115" x2="461.754" y2="726.098" gradientUnits="userSpaceOnUse">
<stop stop-color="#F08484"/>
<stop offset="0.5" stop-color="#EDB8B9"/>
<stop offset="1" stop-color="#E27171"/>
</linearGradient>
<linearGradient id="paint72_linear_5075_13698" x1="411.93" y1="637.775" x2="429.116" y2="671.359" gradientUnits="userSpaceOnUse">
<stop stop-color="#FFF07C"/>
<stop offset="0.5" stop-color="#FFF8C5"/>
<stop offset="1" stop-color="#FFEB50"/>
</linearGradient>
<linearGradient id="paint73_linear_5075_13698" x1="382.352" y1="655.145" x2="401.569" y2="689.094" gradientUnits="userSpaceOnUse">
<stop stop-color="#4ED6FF"/>
<stop offset="0.5" stop-color="#9BE8FF"/>
<stop offset="1" stop-color="#39D1FF"/>
</linearGradient>
<linearGradient id="paint74_linear_5075_13698" x1="412.58" y1="708.804" x2="431.652" y2="743.266" gradientUnits="userSpaceOnUse">
<stop stop-color="#6DFCB9"/>
<stop offset="0.5" stop-color="#98EEC6"/>
<stop offset="1" stop-color="#6FFFBC"/>
</linearGradient>
<linearGradient id="paint75_linear_5075_13698" x1="523.028" y1="571.419" x2="482.043" y2="589.671" gradientUnits="userSpaceOnUse">
<stop stop-color="#0000FF"/>
<stop offset="0.5" stop-color="#00FF00"/>
<stop offset="1" stop-color="#FF0000"/>
</linearGradient>
<linearGradient id="paint76_linear_5075_13698" x1="243.64" y1="406.305" x2="204.48" y2="438.472" gradientUnits="userSpaceOnUse">
<stop stop-color="#5A7388"/>
<stop offset="0.5" stop-color="#ABBAC7"/>
<stop offset="1" stop-color="#7C93A8"/>
</linearGradient>
<linearGradient id="paint77_linear_5075_13698" x1="525.929" y1="563.606" x2="486.769" y2="595.773" gradientUnits="userSpaceOnUse">
<stop stop-color="#5A7388"/>
<stop offset="0.5" stop-color="#ABBAC7"/>
<stop offset="1" stop-color="#7C93A8"/>
</linearGradient>
<linearGradient id="paint78_linear_5075_13698" x1="438.187" y1="567.385" x2="485.382" y2="597.643" gradientUnits="userSpaceOnUse">
<stop stop-color="#5A7388"/>
<stop offset="0.5" stop-color="#ABBAC7"/>
<stop offset="1" stop-color="#7C93A8"/>
</linearGradient>
<linearGradient id="paint79_linear_5075_13698" x1="501.625" y1="550.062" x2="478.548" y2="587.107" gradientUnits="userSpaceOnUse">
<stop stop-color="#B1BFCB"/>
<stop offset="0.5" stop-color="#F7F8F9"/>
<stop offset="1" stop-color="#D2DBE1"/>
</linearGradient>
<linearGradient id="paint80_linear_5075_13698" x1="405.74" y1="581.307" x2="453.63" y2="614.287" gradientUnits="userSpaceOnUse">
<stop stop-color="#5A7388"/>
<stop offset="0.5" stop-color="#ABBAC7"/>
<stop offset="1" stop-color="#7C93A8"/>
</linearGradient>
<linearGradient id="paint81_linear_5075_13698" x1="434.818" y1="566.237" x2="455.542" y2="615.941" gradientUnits="userSpaceOnUse">
<stop stop-color="#B1BFCB"/>
<stop offset="0.5" stop-color="#F7F8F9"/>
<stop offset="1" stop-color="#D2DBE1"/>
</linearGradient>
<linearGradient id="paint82_linear_5075_13698" x1="244.194" y1="499.134" x2="363.573" y2="606.107" gradientUnits="userSpaceOnUse">
<stop stop-color="#0A2D40"/>
<stop offset="1" stop-color="#193746"/>
</linearGradient>
<linearGradient id="paint83_linear_5075_13698" x1="358.21" y1="569.875" x2="360.236" y2="652.392" gradientUnits="userSpaceOnUse">
<stop stop-color="#8FB3C6"/>
<stop offset="1" stop-color="#467087"/>
</linearGradient>
</defs>
</svg>
