<svg width="1000" height="1000" viewBox="0 0 1000 1000" fill="none" xmlns="http://www.w3.org/2000/svg">
<path d="M539.547 0C551.148 1.9897e-05 563.205 2.57397 573.726 8.29102L574.738 8.85449L853.063 169.572L853.395 169.765C861.822 174.745 876.365 186.55 878.638 206.635C878.894 208.421 879.027 210.233 879.027 212.06V797.721L879.016 798.797C878.532 821.257 862.977 834.533 853.158 840.206L853.157 840.205L821.109 858.73C820.55 859.068 819.979 859.392 819.398 859.703C813.72 862.742 807.487 864.236 801.273 864.216C801.246 864.216 801.219 864.216 801.191 864.216C800.992 864.215 800.792 864.212 800.593 864.208C800.558 864.207 800.524 864.207 800.489 864.206C800.301 864.202 800.113 864.196 799.925 864.188C799.876 864.187 799.827 864.185 799.778 864.183C799.615 864.176 799.451 864.167 799.287 864.158C799.21 864.154 799.132 864.15 799.055 864.146C798.934 864.138 798.813 864.129 798.692 864.12C798.57 864.112 798.447 864.103 798.325 864.093C798.267 864.088 798.209 864.083 798.151 864.078C797.986 864.064 797.82 864.049 797.654 864.033C797.642 864.032 797.628 864.031 797.615 864.029C796.407 863.909 795.2 863.731 793.999 863.494C793.918 863.478 793.837 863.462 793.756 863.445C793.637 863.421 793.518 863.395 793.398 863.369C793.296 863.347 793.193 863.326 793.091 863.303C792.979 863.278 792.867 863.253 792.756 863.227C792.648 863.202 792.541 863.175 792.434 863.149C792.318 863.122 792.202 863.094 792.087 863.065C792 863.044 791.914 863.021 791.827 862.999C791.687 862.963 791.547 862.926 791.407 862.888C791.354 862.873 791.301 862.858 791.248 862.844C791.093 862.801 790.938 862.759 790.783 862.714C790.357 862.591 789.932 862.459 789.51 862.32C789.425 862.292 789.34 862.262 789.255 862.233C789.13 862.192 789.005 862.151 788.881 862.107C788.784 862.074 788.687 862.039 788.591 862.005C788.466 861.96 788.341 861.916 788.217 861.87C788.143 861.843 788.068 861.815 787.994 861.787C787.841 861.73 787.688 861.671 787.535 861.611C787.458 861.581 787.381 861.551 787.305 861.521C787.185 861.473 787.064 861.425 786.944 861.376C786.891 861.354 786.837 861.334 786.784 861.312C786.732 861.29 786.679 861.266 786.627 861.244C786.549 861.211 786.471 861.178 786.393 861.145C786.249 861.083 786.106 861.022 785.964 860.959C785.929 860.944 785.894 860.928 785.859 860.912C785.632 860.811 785.405 860.707 785.18 860.602L692.148 914.308C691.1 926.67 684.081 937.837 673.224 944.113L640.54 963.005L640.538 963.003C629.535 969.412 617.128 971.846 606.17 971.993L605.104 972C593.472 972 581.382 969.411 570.84 963.661C567.695 967.255 563.983 970.579 559.623 973.467L559.618 973.47C557.706 974.735 555.724 975.873 553.686 976.884L527.055 991.581C505.245 1004.97 481.37 999.762 465.327 990.908L132.562 807.256C115.979 798.104 102.74 783.145 93.7695 767.305L93.7686 767.304C84.7371 751.353 78.8595 732.461 78.8594 713.828V446.136L78.8633 445.298C79.0451 427.628 85.0201 404.512 105.854 390.714L106.825 390.087C108.56 388.994 110.22 388.094 111.664 387.367L138.395 372.616C160.213 359.206 184.102 364.417 200.149 373.273L265.614 409.402V174.273L265.626 173.198C266.11 150.74 281.663 137.464 291.483 131.79L291.49 131.787L504.123 8.98828V8.99023C515.481 2.37763 528.335 1.0032e-05 539.547 0Z" fill="black"/>
<path fill-rule="evenodd" clip-rule="evenodd" d="M572.066 768.961L555.724 778.407L572.066 787.853L588.408 778.407L572.066 768.961Z" fill="white"/>
<path fill-rule="evenodd" clip-rule="evenodd" d="M784.8 230.529L637.534 315.545V901.206L784.8 816.191V230.529Z" fill="#FF0000"/>
<path fill-rule="evenodd" clip-rule="evenodd" d="M784.8 230.529L637.534 315.545V901.206L784.8 816.191V230.529Z" fill="url(#paint0_linear_5075_14087)"/>
<path fill-rule="evenodd" clip-rule="evenodd" d="M303.516 173.854L334.877 175.271L596.63 329.716L653.874 324.993V910.654L621.19 929.547C617.034 932.003 611.177 933.42 604.848 933.42C598.425 933.42 592.663 931.908 588.507 929.547L310.317 768.962C306.161 766.506 303.516 763.2 303.516 759.516V173.854Z" fill="#FF0000"/>
<path fill-rule="evenodd" clip-rule="evenodd" d="M303.516 173.854L334.877 175.271L596.63 329.716L653.874 324.993V910.654L621.19 929.547C617.034 932.003 611.177 933.42 604.848 933.42C598.425 933.42 592.663 931.908 588.507 929.547L310.317 768.962C306.161 766.506 303.516 763.2 303.516 759.516V173.854Z" fill="url(#paint1_linear_5075_14087)"/>
<path fill-rule="evenodd" clip-rule="evenodd" d="M801.139 239.975L784.797 230.529V816.191L801.139 825.637V239.975Z" fill="#FF0000"/>
<path fill-rule="evenodd" clip-rule="evenodd" d="M801.139 239.975L784.797 230.529V816.191L801.139 825.637V239.975Z" fill="url(#paint2_linear_5075_14087)"/>
<path fill-rule="evenodd" clip-rule="evenodd" d="M840.616 797.295C840.616 800.979 838.066 804.285 833.815 806.741L801.131 825.634V214.657L840.616 211.634V797.295Z" fill="#FF0000"/>
<path fill-rule="evenodd" clip-rule="evenodd" d="M840.616 797.295C840.616 800.979 838.066 804.285 833.815 806.741L801.131 825.634V214.657L840.616 211.634V797.295Z" fill="url(#paint3_linear_5075_14087)"/>
<path fill-rule="evenodd" clip-rule="evenodd" d="M326.659 570.589L318.44 565.866V622.543L326.659 627.266V570.589Z" fill="#0000FF"/>
<path fill-rule="evenodd" clip-rule="evenodd" d="M343.008 580.034L334.79 575.311V631.987L343.008 636.711V580.034Z" fill="#0000FF"/>
<path fill-rule="evenodd" clip-rule="evenodd" d="M359.348 589.483L351.224 584.76V641.437L359.348 646.16V589.483Z" fill="#0000FF"/>
<path fill-rule="evenodd" clip-rule="evenodd" d="M375.69 598.928L367.566 594.205V650.882L375.69 655.605V598.928Z" fill="#0000FF"/>
<path fill-rule="evenodd" clip-rule="evenodd" d="M392.119 608.372L383.901 603.649V660.326L392.119 665.049V608.372Z" fill="#0000FF"/>
<path fill-rule="evenodd" clip-rule="evenodd" d="M326.659 674.497L318.44 669.773V726.45L326.659 731.173V674.497Z" fill="#0000FF"/>
<path fill-rule="evenodd" clip-rule="evenodd" d="M343.008 683.942L334.79 679.219V735.896L343.008 740.619V683.942Z" fill="#0000FF"/>
<path fill-rule="evenodd" clip-rule="evenodd" d="M359.348 693.388L351.224 688.665V745.342L359.348 750.065V693.388Z" fill="#0000FF"/>
<path fill-rule="evenodd" clip-rule="evenodd" d="M375.69 702.835L367.566 698.112V754.789L375.69 759.512V702.835Z" fill="#0000FF"/>
<path fill-rule="evenodd" clip-rule="evenodd" d="M392.119 712.281L383.901 707.558V764.235L392.119 768.958V712.281Z" fill="#0000FF"/>
<path fill-rule="evenodd" clip-rule="evenodd" d="M465.709 650.882L457.586 646.159V702.836L465.709 707.559V650.882Z" fill="#0000FF"/>
<path fill-rule="evenodd" clip-rule="evenodd" d="M482.052 660.328L473.928 655.604V712.281L482.052 717.004V660.328Z" fill="#0000FF"/>
<path fill-rule="evenodd" clip-rule="evenodd" d="M498.488 669.773L490.27 665.05V721.727L498.488 726.45V669.773Z" fill="#0000FF"/>
<path fill-rule="evenodd" clip-rule="evenodd" d="M514.83 679.219L506.612 674.496V731.173L514.83 735.896V679.219Z" fill="#0000FF"/>
<path fill-rule="evenodd" clip-rule="evenodd" d="M531.173 688.666L522.954 683.943V740.62L531.173 745.343V688.666Z" fill="#0000FF"/>
<path fill-rule="evenodd" clip-rule="evenodd" d="M465.709 754.792L457.586 750.069V806.746L465.709 811.469V754.792Z" fill="#0000FF"/>
<path fill-rule="evenodd" clip-rule="evenodd" d="M482.052 764.236L473.928 759.513V816.19L482.052 820.913V764.236Z" fill="#0000FF"/>
<path fill-rule="evenodd" clip-rule="evenodd" d="M498.488 773.68L490.27 768.957V825.634L498.488 830.357V773.68Z" fill="#0000FF"/>
<path fill-rule="evenodd" clip-rule="evenodd" d="M514.83 783.127L506.612 778.404V835.081L514.83 839.804V783.127Z" fill="#0000FF"/>
<path fill-rule="evenodd" clip-rule="evenodd" d="M531.172 792.573L522.954 787.85V844.527L531.172 849.25V792.573Z" fill="#0000FF"/>
<path fill-rule="evenodd" clip-rule="evenodd" d="M326.659 570.589L318.44 565.866V622.543L326.659 627.266V570.589Z" fill="url(#paint4_linear_5075_14087)"/>
<path fill-rule="evenodd" clip-rule="evenodd" d="M343.008 580.034L334.79 575.311V631.987L343.008 636.711V580.034Z" fill="url(#paint5_linear_5075_14087)"/>
<path fill-rule="evenodd" clip-rule="evenodd" d="M359.348 589.483L351.224 584.76V641.437L359.348 646.16V589.483Z" fill="url(#paint6_linear_5075_14087)"/>
<path fill-rule="evenodd" clip-rule="evenodd" d="M375.69 598.928L367.566 594.205V650.882L375.69 655.605V598.928Z" fill="url(#paint7_linear_5075_14087)"/>
<path fill-rule="evenodd" clip-rule="evenodd" d="M392.119 608.372L383.901 603.649V660.326L392.119 665.049V608.372Z" fill="url(#paint8_linear_5075_14087)"/>
<path fill-rule="evenodd" clip-rule="evenodd" d="M326.659 674.497L318.44 669.773V726.45L326.659 731.173V674.497Z" fill="url(#paint9_linear_5075_14087)"/>
<path fill-rule="evenodd" clip-rule="evenodd" d="M343.008 683.942L334.79 679.219V735.896L343.008 740.619V683.942Z" fill="url(#paint10_linear_5075_14087)"/>
<path fill-rule="evenodd" clip-rule="evenodd" d="M359.348 693.388L351.224 688.665V745.342L359.348 750.065V693.388Z" fill="url(#paint11_linear_5075_14087)"/>
<path fill-rule="evenodd" clip-rule="evenodd" d="M375.69 702.835L367.566 698.112V754.789L375.69 759.512V702.835Z" fill="url(#paint12_linear_5075_14087)"/>
<path fill-rule="evenodd" clip-rule="evenodd" d="M392.119 712.281L383.901 707.558V764.235L392.119 768.958V712.281Z" fill="url(#paint13_linear_5075_14087)"/>
<path fill-rule="evenodd" clip-rule="evenodd" d="M465.709 650.882L457.586 646.159V702.836L465.709 707.559V650.882Z" fill="url(#paint14_linear_5075_14087)"/>
<path fill-rule="evenodd" clip-rule="evenodd" d="M482.052 660.328L473.928 655.604V712.281L482.052 717.004V660.328Z" fill="url(#paint15_linear_5075_14087)"/>
<path fill-rule="evenodd" clip-rule="evenodd" d="M498.488 669.773L490.27 665.05V721.727L498.488 726.45V669.773Z" fill="url(#paint16_linear_5075_14087)"/>
<path fill-rule="evenodd" clip-rule="evenodd" d="M514.83 679.219L506.612 674.496V731.173L514.83 735.896V679.219Z" fill="url(#paint17_linear_5075_14087)"/>
<path fill-rule="evenodd" clip-rule="evenodd" d="M531.173 688.666L522.954 683.943V740.62L531.173 745.343V688.666Z" fill="url(#paint18_linear_5075_14087)"/>
<path fill-rule="evenodd" clip-rule="evenodd" d="M465.709 754.792L457.586 750.069V806.746L465.709 811.469V754.792Z" fill="url(#paint19_linear_5075_14087)"/>
<path fill-rule="evenodd" clip-rule="evenodd" d="M482.052 764.236L473.928 759.513V816.19L482.052 820.913V764.236Z" fill="url(#paint20_linear_5075_14087)"/>
<path fill-rule="evenodd" clip-rule="evenodd" d="M498.488 773.68L490.27 768.957V825.634L498.488 830.357V773.68Z" fill="url(#paint21_linear_5075_14087)"/>
<path fill-rule="evenodd" clip-rule="evenodd" d="M514.83 783.127L506.612 778.404V835.081L514.83 839.804V783.127Z" fill="url(#paint22_linear_5075_14087)"/>
<path fill-rule="evenodd" clip-rule="evenodd" d="M531.172 792.573L522.954 787.85V844.527L531.172 849.25V792.573Z" fill="url(#paint23_linear_5075_14087)"/>
<path fill-rule="evenodd" clip-rule="evenodd" d="M801.139 277.762L784.797 268.315V287.208L801.139 296.654V277.762Z" fill="white"/>
<path fill-rule="evenodd" clip-rule="evenodd" d="M801.139 372.224L784.797 362.778V381.671L801.139 391.117V372.224Z" fill="white"/>
<path fill-rule="evenodd" clip-rule="evenodd" d="M801.139 324.988L784.797 315.542V334.434L801.139 343.88V324.988Z" fill="white"/>
<path fill-rule="evenodd" clip-rule="evenodd" d="M801.139 419.453L784.797 410.007V428.899L801.139 438.345V419.453Z" fill="white"/>
<path fill-rule="evenodd" clip-rule="evenodd" d="M801.139 466.685L784.797 457.239V476.132L801.139 485.578V466.685Z" fill="white"/>
<path fill-rule="evenodd" clip-rule="evenodd" d="M784.8 457.238L653.876 532.808V551.7L784.8 476.131V457.238ZM784.8 410.008L653.876 485.577V504.469L784.8 428.9V410.008ZM784.8 362.777L653.876 438.346V457.238L784.8 381.669V362.777ZM784.8 315.546L653.876 391.115V410.008L784.8 334.438V315.546ZM784.8 268.315L653.876 343.885V362.777L784.8 287.208V268.315Z" fill="#00FF00"/>
<path fill-rule="evenodd" clip-rule="evenodd" d="M784.8 457.238L653.876 532.808V551.7L784.8 476.131V457.238ZM784.8 410.008L653.876 485.577V504.469L784.8 428.9V410.008ZM784.8 362.777L653.876 438.346V457.238L784.8 381.669V362.777ZM784.8 315.546L653.876 391.115V410.008L784.8 334.438V315.546ZM784.8 268.315L653.876 343.885V362.777L784.8 287.208V268.315Z" fill="url(#paint24_linear_5075_14087)"/>
<path fill-rule="evenodd" clip-rule="evenodd" d="M752.014 693.39L670.211 740.621V750.067L752.014 702.836V693.39ZM752.014 665.052L670.211 712.282V721.729L752.014 674.498V665.052ZM752.014 636.713L670.211 683.944V693.39L752.014 646.159V636.713ZM752.014 608.375L670.211 655.606V665.052L752.014 617.821V608.375ZM752.014 580.036L670.211 627.267V636.713L752.014 589.482V580.036ZM752.014 551.698L670.211 598.929V608.375L752.014 561.144V551.698ZM752.014 523.359L670.211 570.59V580.036L752.014 532.806V523.359Z" fill="#00FF00"/>
<path fill-rule="evenodd" clip-rule="evenodd" d="M752.014 693.39L670.211 740.621V750.067L752.014 702.836V693.39ZM752.014 665.052L670.211 712.282V721.729L752.014 674.498V665.052ZM752.014 636.713L670.211 683.944V693.39L752.014 646.159V636.713ZM752.014 608.375L670.211 655.606V665.052L752.014 617.821V608.375ZM752.014 580.036L670.211 627.267V636.713L752.014 589.482V580.036ZM752.014 551.698L670.211 598.929V608.375L752.014 561.144V551.698ZM752.014 523.359L670.211 570.59V580.036L752.014 532.806V523.359Z" fill="url(#paint25_linear_5075_14087)"/>
<path fill-rule="evenodd" clip-rule="evenodd" d="M522.95 41.6073C527.107 39.1513 532.963 37.7344 539.292 37.7344C545.715 37.7344 551.478 39.2458 555.634 41.6073L833.729 202.192C837.885 204.648 840.53 207.954 840.53 211.638C840.53 215.322 837.979 218.628 833.729 221.084L801.045 239.977L784.703 230.53L637.438 315.546L653.779 324.992L621.096 343.884C616.939 346.34 611.083 347.757 604.754 347.757C598.331 347.757 592.568 346.246 588.412 343.884L310.317 183.3C306.161 180.844 303.516 177.537 303.516 173.853C303.516 170.169 306.067 166.863 310.317 164.407L522.95 41.6073Z" fill="#FF0000"/>
<path fill-rule="evenodd" clip-rule="evenodd" d="M522.95 41.6073C527.107 39.1513 532.963 37.7344 539.292 37.7344C545.715 37.7344 551.478 39.2458 555.634 41.6073L833.729 202.192C837.885 204.648 840.53 207.954 840.53 211.638C840.53 215.322 837.979 218.628 833.729 221.084L801.045 239.977L784.703 230.53L637.438 315.546L653.779 324.992L621.096 343.884C616.939 346.34 611.083 347.757 604.754 347.757C598.331 347.757 592.568 346.246 588.412 343.884L310.317 183.3C306.161 180.844 303.516 177.537 303.516 173.853C303.516 170.169 306.067 166.863 310.317 164.407L522.95 41.6073Z" fill="url(#paint26_linear_5075_14087)"/>
<path fill-rule="evenodd" clip-rule="evenodd" d="M840.617 438.349C840.617 442.033 838.066 445.339 833.815 447.795L801.132 466.687V485.58L833.815 466.687C837.972 464.231 840.617 460.925 840.617 457.241V438.349ZM840.617 391.118C840.617 394.802 838.066 398.108 833.815 400.564L801.132 419.457V438.349L833.815 419.457C837.972 417.001 840.617 413.694 840.617 410.01V391.118ZM840.617 343.887C840.617 347.571 838.066 350.877 833.815 353.333L801.132 372.226V391.118L833.815 372.226C837.972 369.77 840.617 366.464 840.617 362.78V343.887ZM840.617 296.657C840.617 300.341 838.066 303.647 833.815 306.103L801.132 324.995V343.887L833.815 324.995C837.972 322.539 840.617 319.233 840.617 315.549V296.657ZM840.617 249.426C840.617 253.11 838.066 256.416 833.815 258.872L801.132 277.764V296.657L833.815 277.764C837.972 275.308 840.617 272.002 840.617 268.318V249.426Z" fill="#00FF00"/>
<path fill-rule="evenodd" clip-rule="evenodd" d="M840.617 438.349C840.617 442.033 838.066 445.339 833.815 447.795L801.132 466.687V485.58L833.815 466.687C837.972 464.231 840.617 460.925 840.617 457.241V438.349ZM840.617 391.118C840.617 394.802 838.066 398.108 833.815 400.564L801.132 419.457V438.349L833.815 419.457C837.972 417.001 840.617 413.694 840.617 410.01V391.118ZM840.617 343.887C840.617 347.571 838.066 350.877 833.815 353.333L801.132 372.226V391.118L833.815 372.226C837.972 369.77 840.617 366.464 840.617 362.78V343.887ZM840.617 296.657C840.617 300.341 838.066 303.647 833.815 306.103L801.132 324.995V343.887L833.815 324.995C837.972 322.539 840.617 319.233 840.617 315.549V296.657ZM840.617 249.426C840.617 253.11 838.066 256.416 833.815 258.872L801.132 277.764V296.657L833.815 277.764C837.972 275.308 840.617 272.002 840.617 268.318V249.426Z" fill="url(#paint27_linear_5075_14087)"/>
<path fill-rule="evenodd" clip-rule="evenodd" d="M653.875 551.701L621.191 570.594C617.035 573.05 611.178 574.467 604.85 574.467C598.426 574.467 592.664 572.955 588.508 570.594V589.486C592.664 591.942 598.521 593.359 604.85 593.359C611.273 593.359 617.035 591.848 621.191 589.486L653.875 570.594V551.701ZM653.875 504.471L621.191 523.363C617.035 525.819 611.178 527.236 604.85 527.236C598.426 527.236 592.664 525.724 588.508 523.363V542.255C592.664 544.711 598.521 546.128 604.85 546.128C611.273 546.128 617.035 544.617 621.191 542.255L653.875 523.363V504.471ZM653.875 457.24L621.191 476.132C617.035 478.588 611.178 480.005 604.85 480.005C598.426 480.005 592.664 478.494 588.508 476.132V495.024C592.664 497.48 598.521 498.897 604.85 498.897C611.273 498.897 617.035 497.386 621.191 495.024L653.875 476.132V457.24ZM653.875 410.009L621.191 428.901C617.035 431.357 611.178 432.774 604.85 432.774C598.426 432.774 592.664 431.263 588.508 428.901V447.794C592.664 450.25 598.521 451.667 604.85 451.667C611.273 451.667 617.035 450.155 621.191 447.794L653.875 428.901V410.009ZM653.875 362.778L621.191 381.671C617.035 384.127 611.178 385.544 604.85 385.544C598.426 385.544 592.664 384.032 588.508 381.671V400.563C592.664 403.019 598.521 404.436 604.85 404.436C611.273 404.436 617.035 402.924 621.191 400.563L653.875 381.671V362.778Z" fill="#00FF00"/>
<path fill-rule="evenodd" clip-rule="evenodd" d="M653.875 551.701L621.191 570.594C617.035 573.05 611.178 574.467 604.85 574.467C598.426 574.467 592.664 572.955 588.508 570.594V589.486C592.664 591.942 598.521 593.359 604.85 593.359C611.273 593.359 617.035 591.848 621.191 589.486L653.875 570.594V551.701ZM653.875 504.471L621.191 523.363C617.035 525.819 611.178 527.236 604.85 527.236C598.426 527.236 592.664 525.724 588.508 523.363V542.255C592.664 544.711 598.521 546.128 604.85 546.128C611.273 546.128 617.035 544.617 621.191 542.255L653.875 523.363V504.471ZM653.875 457.24L621.191 476.132C617.035 478.588 611.178 480.005 604.85 480.005C598.426 480.005 592.664 478.494 588.508 476.132V495.024C592.664 497.48 598.521 498.897 604.85 498.897C611.273 498.897 617.035 497.386 621.191 495.024L653.875 476.132V457.24ZM653.875 410.009L621.191 428.901C617.035 431.357 611.178 432.774 604.85 432.774C598.426 432.774 592.664 431.263 588.508 428.901V447.794C592.664 450.25 598.521 451.667 604.85 451.667C611.273 451.667 617.035 450.155 621.191 447.794L653.875 428.901V410.009ZM653.875 362.778L621.191 381.671C617.035 384.127 611.178 385.544 604.85 385.544C598.426 385.544 592.664 384.032 588.508 381.671V400.563C592.664 403.019 598.521 404.436 604.85 404.436C611.273 404.436 617.035 402.924 621.191 400.563L653.875 381.671V362.778Z" fill="url(#paint28_linear_5075_14087)"/>
<path fill-rule="evenodd" clip-rule="evenodd" d="M801.139 466.685L784.797 457.238V476.131L801.139 485.577V466.685ZM801.139 419.454L784.797 410.008V428.9L801.139 438.346V419.454ZM801.139 372.223L784.797 362.777V381.669L801.139 391.115V372.223ZM801.139 324.992L784.797 315.546V334.438L801.139 343.885V324.992ZM801.139 277.762L784.797 268.315V287.208L801.139 296.654V277.762Z" fill="#00FF00"/>
<path fill-rule="evenodd" clip-rule="evenodd" d="M801.139 466.685L784.797 457.238V476.131L801.139 485.577V466.685ZM801.139 419.454L784.797 410.008V428.9L801.139 438.346V419.454ZM801.139 372.223L784.797 362.777V381.669L801.139 391.115V372.223ZM801.139 324.992L784.797 315.546V334.438L801.139 343.885V324.992ZM801.139 277.762L784.797 268.315V287.208L801.139 296.654V277.762Z" fill="url(#paint29_linear_5075_14087)"/>
<path d="M541.046 578.179C550.084 583.165 558.748 592.304 565.13 603.586C571.519 614.868 575.106 627.368 575.106 638.338V812.309L605.145 828.588C605.15 828.797 606.867 894.396 605.091 893.419L575.106 875.133V892.901C575.106 903.871 571.519 925.537 565.13 929.769C558.748 933.999 550.084 933.575 541.046 928.59C485.977 898.198 385.823 842.922 303 797.212V446.802C385.823 492.512 485.977 547.788 541.046 578.179Z" fill="#020202" fill-opacity="0.4"/>
<path fill-rule="evenodd" clip-rule="evenodd" d="M357.169 730.441C357.169 725.363 360.19 722.913 363.917 724.97C401.892 745.928 574.29 841.074 574.29 841.074V903.899L363.917 787.795C360.19 785.738 357.169 779.954 357.169 774.875C357.169 762.971 357.169 742.345 357.169 730.441Z" fill="#F1595F"/>
<path fill-rule="evenodd" clip-rule="evenodd" d="M116.86 446.131C116.86 435.162 120.448 426.622 126.836 422.392C133.225 418.161 141.889 418.586 150.923 423.572C230.477 467.477 404.135 563.318 483.688 607.224C492.723 612.21 501.387 621.349 507.775 632.631C514.163 643.913 517.752 656.413 517.752 667.382C517.752 729.194 517.752 873.263 517.752 935.075C517.752 946.044 514.163 954.583 507.775 958.814C501.387 963.044 492.723 962.62 483.688 957.634C404.135 913.728 230.477 817.887 150.923 773.981C141.889 768.995 133.225 759.856 126.836 748.575C120.448 737.292 116.86 724.792 116.86 713.823C116.86 652.012 116.86 507.942 116.86 446.131Z" fill="url(#paint30_linear_5075_14087)"/>
<path fill-rule="evenodd" clip-rule="evenodd" d="M507.777 958.814L536.243 943.103C537.072 942.729 537.873 942.288 538.64 941.78C545.028 937.55 548.617 929.011 548.617 918.042V650.348C548.617 639.379 545.028 626.879 538.64 615.597C532.252 604.315 523.588 595.176 514.554 590.19C435 546.284 261.343 450.443 181.789 406.538C172.755 401.552 164.091 401.128 157.702 405.358L129.236 421.069C135.314 418.329 142.976 419.184 150.925 423.571C230.479 467.477 404.137 563.318 483.69 607.223C492.724 612.209 501.388 621.349 507.777 632.63C514.165 643.912 517.754 656.413 517.754 667.382V935.074C517.754 945.959 514.221 954.449 507.926 958.713L507.777 958.814Z" fill="url(#paint31_linear_5075_14087)"/>
<path fill-rule="evenodd" clip-rule="evenodd" d="M169.646 568.384C168.284 569.905 167.495 572.194 167.495 575.12C167.495 583.477 167.495 606.014 167.495 614.371C167.495 622.347 173.354 632.047 180.58 636.035C231.397 664.081 410.726 763.052 461.542 791.097C464.194 792.561 466.661 793.052 468.72 792.685C466.387 795.326 462.361 795.696 457.785 793.171C406.969 765.125 227.64 666.154 176.823 638.109C169.597 634.12 163.739 624.421 163.739 616.444C163.739 608.087 163.739 585.55 163.739 577.193C163.739 572.143 166.087 568.995 169.646 568.384Z" fill="#CEE4F6"/>
<path fill-rule="evenodd" clip-rule="evenodd" d="M169.646 475.505C168.284 477.026 167.495 479.315 167.495 482.241C167.495 490.598 167.495 513.135 167.495 521.492C167.495 529.468 173.354 539.168 180.58 543.156C231.397 571.202 410.726 670.173 461.542 698.218C464.194 699.682 466.661 700.173 468.72 699.806C466.387 702.448 462.361 702.817 457.785 700.292C406.969 672.246 227.64 573.275 176.823 545.23C169.597 541.241 163.739 531.542 163.739 523.565C163.739 515.208 163.739 492.671 163.739 484.315C163.739 479.264 166.087 476.116 169.646 475.505Z" fill="#CEE4F6"/>
<path fill-rule="evenodd" clip-rule="evenodd" d="M169.646 568.385C171.704 568.018 174.172 568.51 176.823 569.973C227.64 598.019 406.968 696.99 457.785 725.035C465.011 729.023 470.87 738.723 470.87 746.7C470.87 755.057 470.87 777.594 470.87 785.95C470.87 788.877 470.082 791.165 468.719 792.686C466.66 793.053 464.194 792.562 461.542 791.098C410.725 763.053 231.396 664.081 180.58 636.036C173.353 632.048 167.495 622.348 167.495 614.371C167.495 606.015 167.495 583.478 167.495 575.121C167.495 572.195 168.284 569.906 169.646 568.385Z" fill="url(#paint32_linear_5075_14087)"/>
<path fill-rule="evenodd" clip-rule="evenodd" d="M169.646 475.506C171.704 475.139 174.172 475.631 176.823 477.094C227.64 505.14 406.968 604.111 457.785 632.156C465.011 636.144 470.87 645.844 470.87 653.821C470.87 662.178 470.87 684.715 470.87 693.072C470.87 695.998 470.082 698.286 468.719 699.807C466.66 700.174 464.194 699.683 461.542 698.219C410.725 670.174 231.396 571.203 180.58 543.157C173.353 539.169 167.495 529.469 167.495 521.493C167.495 513.136 167.495 490.599 167.495 482.242C167.495 479.316 168.284 477.027 169.646 475.506Z" fill="url(#paint33_linear_5075_14087)"/>
<path fill-rule="evenodd" clip-rule="evenodd" d="M215.211 632.955C212.885 637.846 207.365 639.146 200.932 635.596C192.401 630.888 185.475 619.421 185.475 610.004C185.475 600.587 192.401 596.765 200.932 601.473C207.365 605.023 212.885 612.416 215.211 619.875L249.043 638.546L251.748 641.888L252.134 643.905L257.93 650.792L249.043 651.261L243.621 648.635L241.021 641.46L238.421 645.765L235.892 644.369L233.293 637.195L230.693 641.499L228.55 640.317L225.95 633.143L223.351 637.447L215.211 632.955ZM194.749 610.857C196.882 612.034 198.614 614.901 198.614 617.255C198.614 619.609 196.882 620.565 194.749 619.388C192.617 618.211 190.885 615.344 190.885 612.99C190.885 610.636 192.617 609.68 194.749 610.857Z" fill="#CEE4F6"/>
<path d="M291.258 677.288C295.714 679.747 299.326 677.753 299.326 672.835C299.326 667.917 295.714 661.937 291.258 659.478C286.803 657.019 283.191 659.012 283.191 663.93C283.191 668.848 286.803 674.829 291.258 677.288Z" fill="#CEE4F6"/>
<path d="M313.335 689.473C317.79 691.932 321.402 689.939 321.402 685.021C321.402 680.103 317.79 674.122 313.335 671.663C308.879 669.204 305.267 671.198 305.267 676.116C305.267 681.034 308.879 687.014 313.335 689.473Z" fill="#CEE4F6"/>
<path d="M335.408 701.656C339.863 704.115 343.475 702.121 343.475 697.203C343.475 692.285 339.863 686.305 335.408 683.846C330.952 681.387 327.34 683.38 327.34 688.298C327.34 693.216 330.952 699.197 335.408 701.656Z" fill="#CEE4F6"/>
<path d="M357.484 713.837C361.94 716.296 365.552 714.303 365.552 709.385C365.552 704.467 361.94 698.487 357.484 696.028C353.028 693.569 349.417 695.562 349.417 700.48C349.417 705.398 353.028 711.378 357.484 713.837Z" fill="#CEE4F6"/>
<path d="M379.561 726.023C384.016 728.482 387.628 726.489 387.628 721.57C387.628 716.652 384.016 710.672 379.561 708.213C375.105 705.754 371.493 707.748 371.493 712.666C371.493 717.584 375.105 723.564 379.561 726.023Z" fill="#CEE4F6"/>
<path d="M401.633 738.206C406.089 740.666 409.701 738.672 409.701 733.754C409.701 728.836 406.089 722.856 401.633 720.397C397.178 717.938 393.566 719.931 393.566 724.849C393.566 729.767 397.178 735.747 401.633 738.206Z" fill="#CEE4F6"/>
<path d="M215.698 529.602C220.291 532.137 224.015 530.082 224.015 525.012C224.015 519.942 220.291 513.777 215.698 511.242C211.105 508.707 207.381 510.762 207.381 515.832C207.381 520.902 211.105 527.067 215.698 529.602Z" fill="#CEE4F6"/>
<path fill-rule="evenodd" clip-rule="evenodd" d="M230.14 542.72C230.14 541.578 229.729 540.256 228.998 539.045C228.266 537.834 225.317 535.753 225.317 535.753L215.698 542.417L206.078 525.135C206.078 525.135 203.129 523.96 202.397 524.364C201.666 524.767 201.255 525.636 201.255 526.778C201.255 532.395 201.255 541.515 201.255 541.515L230.14 557.457V542.72Z" fill="#CEE4F6"/>
<path d="M256.439 545.429L259.983 547.385V557.872C259.983 559.536 260.025 560.64 260.113 561.182C260.264 562.057 260.626 562.892 261.198 563.688C261.768 564.483 262.548 565.154 263.537 565.7C264.541 566.255 265.299 566.445 265.81 566.274C266.32 566.102 266.629 565.716 266.733 565.113C266.835 564.509 266.888 563.44 266.888 561.909V551.196L270.43 553.15V563.323C270.43 565.647 270.334 567.235 270.142 568.09C269.952 568.945 269.599 569.56 269.084 569.936C268.569 570.313 267.881 570.46 267.019 570.375C266.157 570.291 265.032 569.866 263.645 569.101C261.968 568.176 260.697 567.26 259.834 566.357C258.967 565.451 258.283 564.519 257.781 563.561C257.278 562.6 256.945 561.702 256.786 560.865C256.555 559.626 256.439 557.925 256.439 555.759V545.429Z" fill="#CEE4F6"/>
<path d="M276.31 569.455L279.756 570.987C279.964 572.378 280.385 573.548 281.018 574.497C281.654 575.445 282.509 576.217 283.586 576.811C284.728 577.441 285.587 577.65 286.165 577.437C286.744 577.222 287.034 576.759 287.034 576.047C287.034 575.587 286.911 575.132 286.668 574.675C286.425 574.219 286 573.705 285.393 573.133C284.979 572.746 284.033 571.943 282.556 570.722C280.659 569.154 279.325 567.78 278.559 566.599C277.483 564.941 276.944 563.343 276.944 561.812C276.944 560.825 277.197 560.042 277.703 559.463C278.21 558.883 278.941 558.633 279.895 558.711C280.847 558.788 281.999 559.198 283.347 559.942C285.549 561.157 287.207 562.607 288.32 564.285C289.434 565.966 290.018 567.711 290.073 569.52L286.531 567.737C286.378 566.658 286.053 565.762 285.555 565.052C285.056 564.342 284.309 563.71 283.31 563.159C282.283 562.592 281.476 562.379 280.894 562.524C280.518 562.617 280.33 562.915 280.33 563.417C280.33 563.875 280.506 564.364 280.857 564.883C281.304 565.544 282.389 566.574 284.113 567.974C285.837 569.376 287.111 570.544 287.936 571.477C288.762 572.413 289.409 573.426 289.875 574.517C290.342 575.607 290.575 576.764 290.575 577.988C290.575 579.097 290.295 579.982 289.738 580.644C289.18 581.303 288.39 581.589 287.369 581.496C286.347 581.401 285.075 580.936 283.551 580.095C281.333 578.871 279.63 577.365 278.441 575.577C277.252 573.789 276.541 571.749 276.31 569.455Z" fill="#CEE4F6"/>
<path d="M296.45 586.874V567.508L309.458 574.687V577.963L299.991 572.738V577.031L308.8 581.893V585.155L299.991 580.293V585.564L309.793 590.974V594.238L296.45 586.874Z" fill="#CEE4F6"/>
<path d="M315.666 597.483V578.117L323.121 582.232C324.996 583.266 326.359 584.192 327.208 585.008C328.058 585.826 328.738 586.82 329.249 587.99C329.759 589.162 330.015 590.32 330.015 591.465C330.015 592.919 329.629 593.905 328.855 594.425C328.081 594.945 326.924 594.902 325.384 594.3C326.15 595.214 326.782 596.106 327.28 596.969C327.78 597.836 328.452 599.255 329.298 601.228L331.44 606.189L327.202 603.85L324.641 598.223C323.732 596.215 323.109 594.922 322.774 594.345C322.439 593.768 322.084 593.303 321.71 592.951C321.334 592.599 320.74 592.199 319.927 591.75L319.208 591.353V599.438L315.666 597.483ZM319.208 588.262L321.828 589.709C323.528 590.647 324.59 591.152 325.013 591.227C325.435 591.303 325.766 591.212 326.005 590.957C326.246 590.702 326.365 590.282 326.365 589.701C326.365 589.049 326.208 588.437 325.893 587.862C325.576 587.286 325.133 586.789 324.557 586.365C324.271 586.165 323.409 585.666 321.973 584.874L319.208 583.348V588.262Z" fill="#CEE4F6"/>
<path d="M352.743 617.944V598.578L356.189 600.48L363.371 617.375V604.443L366.661 606.259V625.625L363.107 623.664L356.034 607.131V619.76L352.743 617.944Z" fill="#CEE4F6"/>
<path d="M390.142 638.584L386.288 636.457L384.756 631.211L377.744 627.341L376.296 630.942L372.538 628.868L379.372 613.274L383.118 615.341L390.142 638.584ZM383.62 627.321L381.202 618.802L378.833 624.679L383.62 627.321Z" fill="#CEE4F6"/>
<path d="M396.017 641.827V622.461L401.317 625.386L404.502 640.353L407.649 628.881L412.962 631.813V651.179L409.671 649.363V634.118L406.189 647.441L402.778 645.558L399.307 628.398V643.643L396.017 641.827Z" fill="#CEE4F6"/>
<path d="M418.838 654.421V635.055L431.846 642.234V645.51L422.379 640.285V644.578L431.189 649.44V652.702L422.379 647.84V653.111L432.181 658.521V661.785L418.838 654.421Z" fill="#CEE4F6"/>
<path fill-rule="evenodd" clip-rule="evenodd" d="M518.755 858.851L518.449 921.506C518.449 921.506 486.889 904.088 444.135 880.492C439.534 877.953 435.804 871.778 435.804 866.699C435.804 854.795 435.804 834.169 435.804 822.265C435.804 818.695 437.647 816.617 440.342 816.581H440.522C441.615 816.603 442.84 816.954 444.135 817.668L518.755 858.851Z" fill="#020202" fill-opacity="0.3"/>
<path d="M517.75 858.301L548.613 841.268V904.863L517.75 921.897V858.301Z" fill="#020202" fill-opacity="0.3"/>
<path fill-rule="evenodd" clip-rule="evenodd" d="M591.271 838.846L516.801 879.946C514.64 881.139 511.976 881.139 509.815 879.946C493.693 871.052 471.696 858.924 471.696 858.924L421.116 831.009C418.714 829.683 416.55 829.61 415.03 830.566L415.026 830.561L430.194 822.19V822.182C432.087 821.137 434.363 820.528 437.235 822.112L515.5 865.291L566.272 836.647L548.589 826.888V809.292C548.589 809.292 568.898 820.501 591.271 832.848C592.391 833.466 593.082 834.609 593.082 835.847C593.082 837.084 592.391 838.228 591.271 838.846Z" fill="url(#paint34_linear_5075_14087)"/>
<path fill-rule="evenodd" clip-rule="evenodd" d="M514.059 943.266C512.197 943.426 510.298 943.035 508.624 942.111C477.134 924.732 463.881 917.418 421.126 893.822C416.526 891.282 412.796 885.107 412.796 880.029C412.796 868.125 412.796 847.499 412.796 835.595C412.796 832.024 414.64 829.947 417.334 829.91L417.515 829.911C418.607 829.932 419.832 830.283 421.126 830.997L508.93 879.456C510.51 880.327 512.303 880.691 514.059 880.532V943.266Z" fill="url(#paint35_linear_5075_14087)"/>
<path fill-rule="evenodd" clip-rule="evenodd" d="M436.982 876.457C434.333 874.995 432.185 871.439 432.185 868.515V868.512C432.185 865.588 434.333 864.402 436.982 865.865C444.987 870.282 460.2 878.679 460.2 878.679C460.2 878.679 456.236 872.115 453.495 867.577C452.818 866.455 452.437 865.231 452.437 864.173C452.437 863.116 452.818 862.312 453.495 861.938C453.495 861.938 453.496 861.937 453.496 861.937C454.949 861.135 457.278 862.331 458.829 864.675C463.047 871.049 471.065 883.169 475.328 889.61C476.039 890.686 476.448 891.901 476.448 892.942C476.448 893.983 476.039 894.747 475.328 895.037C471.065 896.774 463.047 900.042 458.829 901.761C457.278 902.393 454.949 901.018 453.496 898.612C453.496 898.612 453.495 898.611 453.495 898.611C452.818 897.489 452.437 896.265 452.437 895.208C452.437 894.15 452.818 893.346 453.495 892.972C456.236 891.459 460.2 889.271 460.2 889.271L436.982 876.457Z" fill="#FBCED0"/>
<path fill-rule="evenodd" clip-rule="evenodd" d="M514.059 880.533C515.32 880.446 516.561 880.082 517.692 879.457L591.273 838.848C592.619 838.105 592.964 836.745 593.034 835.271V895.354C593.034 898.481 591.795 901.384 588.962 902.948C575.035 910.634 532.071 934.346 517.999 942.113C516.772 942.79 515.425 943.18 514.059 943.267V880.533Z" fill="url(#paint36_linear_5075_14087)"/>
<path fill-rule="evenodd" clip-rule="evenodd" d="M319.46 764.571C319.46 755.904 313.085 745.35 305.233 741.017L195.804 680.623C187.951 676.289 181.577 679.807 181.577 688.474V719.88C181.577 728.545 187.951 739.101 195.804 743.434L305.233 803.828C313.085 808.162 319.46 804.642 319.46 795.977V764.571Z" fill="#020202" fill-opacity="0.4"/>
<path fill-rule="evenodd" clip-rule="evenodd" d="M295.903 777.572C295.903 768.905 289.528 758.351 281.676 754.018L172.247 693.624C164.394 689.29 158.02 692.808 158.02 701.475V732.881C158.02 741.546 164.394 752.102 172.247 756.435L281.676 816.829C289.528 821.163 295.903 817.643 295.903 808.978V777.572Z" fill="url(#paint37_linear_5075_14087)"/>
<path fill-rule="evenodd" clip-rule="evenodd" d="M162.786 692.384L177.795 684.097C180.398 682.347 184.164 682.43 188.35 684.741L297.78 745.135C305.631 749.468 312.006 760.02 312.006 768.686V800.091C312.006 804.954 310.002 808.189 306.859 809.34L292.06 817.589C294.442 816.097 295.902 813.128 295.902 808.984V777.579C295.902 768.913 289.528 758.354 281.675 754.021L172.246 693.626C168.615 691.626 165.301 691.3 162.786 692.384Z" fill="url(#paint38_linear_5075_14087)"/>
<path d="M175.909 740.456V713.865L180.81 716.57V738.641L193.003 745.371V749.89L175.909 740.456Z" fill="#FBCED0"/>
<path d="M195.506 738.032C195.506 735.301 195.878 733.217 196.615 731.767C197.167 730.71 197.918 729.899 198.876 729.34C199.827 728.785 200.875 728.557 202.012 728.659C203.529 728.789 205.273 729.393 207.251 730.485C210.828 732.459 213.689 735.271 215.839 738.907C217.99 742.544 219.058 746.542 219.058 750.902C219.058 755.231 217.997 758.031 215.867 759.297C213.73 760.56 210.883 760.214 207.313 758.243C203.708 756.254 200.834 753.45 198.704 749.848C196.567 746.234 195.506 742.301 195.506 738.032ZM200.558 740.638C200.558 743.674 201.192 746.322 202.461 748.589C203.736 750.86 205.342 752.53 207.299 753.61C209.257 754.691 210.856 754.797 212.11 753.937C213.365 753.07 213.992 751.088 213.992 747.976C213.992 744.903 213.385 742.278 212.165 740.098C210.938 737.907 209.319 736.26 207.299 735.145C205.28 734.031 203.653 733.894 202.412 734.738C201.178 735.586 200.558 737.557 200.558 740.638Z" fill="#FBCED0"/>
<path d="M234.184 762.766V758.247L244.75 764.079V774.753C243.723 775.289 242.234 775.434 240.291 775.191C238.34 774.951 236.362 774.277 234.363 773.174C231.826 771.774 229.607 769.964 227.725 767.746C225.83 765.528 224.417 763.059 223.465 760.351C222.514 757.635 222.039 754.991 222.039 752.419C222.039 749.627 222.569 747.44 223.631 745.857C224.692 744.275 226.243 743.464 228.283 743.434C229.841 743.404 231.778 744.024 234.101 745.306C237.113 746.968 239.47 748.969 241.166 751.305C242.862 753.633 243.951 756.166 244.44 758.894L239.567 757.216C239.222 755.71 238.581 754.314 237.637 753.032C236.693 751.75 235.514 750.719 234.101 749.939C231.957 748.756 230.255 748.562 228.987 749.361C227.725 750.163 227.091 752.043 227.091 754.987C227.091 758.175 227.732 760.91 229.014 763.208C230.296 765.505 231.971 767.229 234.053 768.377C235.08 768.944 236.107 769.29 237.141 769.412C238.174 769.541 239.057 769.488 239.801 769.268V765.867L234.184 762.766Z" fill="#FBCED0"/>
<path d="M254.033 756.77L249.13 754.063V780.87L254.033 783.576V756.77Z" fill="#FBCED0"/>
<path d="M258.752 786.175V759.371L263.521 762.003L273.461 785.391V767.489L278.017 770.004V796.807L273.095 794.091L263.308 771.206V788.689L258.752 786.175Z" fill="#FBCED0"/>
<path opacity="0.2" d="M539.547 38.1562C545.97 38.1563 551.732 39.6678 555.889 42.0293L833.983 202.614C838.14 205.07 840.784 208.377 840.784 212.061L840.783 212.064L840.871 212.059V797.72C840.871 801.404 838.32 804.71 834.069 807.166L801.394 826.053V826.06L801.388 826.056L801.386 826.058V826.055L785.053 816.614L654.129 892.196V911.077L621.445 929.969C617.289 932.425 611.432 933.842 605.104 933.842C598.68 933.842 592.917 932.33 588.761 929.969L564.932 916.214C559.447 919.241 553.646 922.443 547.993 925.562C546.711 932.898 543.481 938.579 538.641 941.784C537.873 942.292 537.073 942.733 536.243 943.107L507.777 958.817L507.926 958.718C507.936 958.711 507.947 958.702 507.957 958.695C507.895 958.736 507.835 958.777 507.774 958.817C501.386 963.047 492.723 962.624 483.688 957.638L150.923 773.985C141.889 768.999 133.224 759.86 126.836 748.579C120.448 737.297 116.859 724.796 116.859 713.827V446.135C116.859 435.166 120.448 426.626 126.836 422.396C127.502 421.955 128.33 421.501 129.288 421.043L157.702 405.362C164.091 401.132 172.754 401.556 181.788 406.542L303.771 473.863V174.275C303.771 170.592 306.322 167.285 310.572 164.829L523.205 42.0293C527.361 39.5733 533.218 38.1563 539.547 38.1562Z" fill="black"/>
<defs>
<linearGradient id="paint0_linear_5075_14087" x1="637.534" y1="565.868" x2="784.8" y2="565.868" gradientUnits="userSpaceOnUse">
<stop stop-color="#020202" stop-opacity="0.6"/>
<stop offset="1" stop-color="#020202" stop-opacity="0.5"/>
</linearGradient>
<linearGradient id="paint1_linear_5075_14087" x1="653.874" y1="587.978" x2="297.403" y2="587.601" gradientUnits="userSpaceOnUse">
<stop stop-color="#020202" stop-opacity="0"/>
<stop offset="1" stop-color="#020202" stop-opacity="0.2"/>
</linearGradient>
<linearGradient id="paint2_linear_5075_14087" x1="801.139" y1="559.131" x2="784.712" y2="559.112" gradientUnits="userSpaceOnUse">
<stop stop-color="#020202" stop-opacity="0.1"/>
<stop offset="1" stop-color="#020202" stop-opacity="0.2"/>
</linearGradient>
<linearGradient id="paint3_linear_5075_14087" x1="840.616" y1="550.667" x2="800.926" y2="550.56" gradientUnits="userSpaceOnUse">
<stop stop-color="#020202" stop-opacity="0.2"/>
<stop offset="1" stop-color="#020202" stop-opacity="0"/>
</linearGradient>
<linearGradient id="paint4_linear_5075_14087" x1="318.44" y1="596.566" x2="326.659" y2="596.566" gradientUnits="userSpaceOnUse">
<stop stop-opacity="0.9"/>
<stop offset="1" stop-opacity="0.9"/>
</linearGradient>
<linearGradient id="paint5_linear_5075_14087" x1="334.79" y1="606.011" x2="343.008" y2="606.011" gradientUnits="userSpaceOnUse">
<stop stop-opacity="0.9"/>
<stop offset="1" stop-opacity="0.9"/>
</linearGradient>
<linearGradient id="paint6_linear_5075_14087" x1="351.224" y1="615.46" x2="359.348" y2="615.46" gradientUnits="userSpaceOnUse">
<stop stop-opacity="0.9"/>
<stop offset="1" stop-opacity="0.9"/>
</linearGradient>
<linearGradient id="paint7_linear_5075_14087" x1="367.566" y1="624.905" x2="375.69" y2="624.905" gradientUnits="userSpaceOnUse">
<stop stop-opacity="0.9"/>
<stop offset="1" stop-opacity="0.9"/>
</linearGradient>
<linearGradient id="paint8_linear_5075_14087" x1="383.901" y1="634.349" x2="392.119" y2="634.349" gradientUnits="userSpaceOnUse">
<stop stop-opacity="0.9"/>
<stop offset="1" stop-opacity="0.9"/>
</linearGradient>
<linearGradient id="paint9_linear_5075_14087" x1="318.44" y1="700.473" x2="326.659" y2="700.473" gradientUnits="userSpaceOnUse">
<stop stop-opacity="0.9"/>
<stop offset="1" stop-opacity="0.9"/>
</linearGradient>
<linearGradient id="paint10_linear_5075_14087" x1="334.79" y1="709.919" x2="343.008" y2="709.919" gradientUnits="userSpaceOnUse">
<stop stop-opacity="0.9"/>
<stop offset="1" stop-opacity="0.9"/>
</linearGradient>
<linearGradient id="paint11_linear_5075_14087" x1="351.224" y1="719.365" x2="359.348" y2="719.365" gradientUnits="userSpaceOnUse">
<stop stop-opacity="0.9"/>
<stop offset="1" stop-opacity="0.9"/>
</linearGradient>
<linearGradient id="paint12_linear_5075_14087" x1="367.566" y1="728.812" x2="375.69" y2="728.812" gradientUnits="userSpaceOnUse">
<stop stop-opacity="0.9"/>
<stop offset="1" stop-opacity="0.9"/>
</linearGradient>
<linearGradient id="paint13_linear_5075_14087" x1="383.901" y1="738.258" x2="392.119" y2="738.258" gradientUnits="userSpaceOnUse">
<stop stop-opacity="0.9"/>
<stop offset="1" stop-opacity="0.9"/>
</linearGradient>
<linearGradient id="paint14_linear_5075_14087" x1="457.586" y1="676.859" x2="465.709" y2="676.859" gradientUnits="userSpaceOnUse">
<stop stop-opacity="0.9"/>
<stop offset="1" stop-opacity="0.9"/>
</linearGradient>
<linearGradient id="paint15_linear_5075_14087" x1="473.928" y1="686.304" x2="482.052" y2="686.304" gradientUnits="userSpaceOnUse">
<stop stop-opacity="0.9"/>
<stop offset="1" stop-opacity="0.9"/>
</linearGradient>
<linearGradient id="paint16_linear_5075_14087" x1="490.27" y1="695.75" x2="498.488" y2="695.75" gradientUnits="userSpaceOnUse">
<stop stop-opacity="0.9"/>
<stop offset="1" stop-opacity="0.9"/>
</linearGradient>
<linearGradient id="paint17_linear_5075_14087" x1="506.612" y1="705.196" x2="514.83" y2="705.196" gradientUnits="userSpaceOnUse">
<stop stop-opacity="0.9"/>
<stop offset="1" stop-opacity="0.9"/>
</linearGradient>
<linearGradient id="paint18_linear_5075_14087" x1="522.954" y1="714.643" x2="531.173" y2="714.643" gradientUnits="userSpaceOnUse">
<stop stop-opacity="0.9"/>
<stop offset="1" stop-opacity="0.9"/>
</linearGradient>
<linearGradient id="paint19_linear_5075_14087" x1="457.586" y1="780.769" x2="465.709" y2="780.769" gradientUnits="userSpaceOnUse">
<stop stop-opacity="0.9"/>
<stop offset="1" stop-opacity="0.9"/>
</linearGradient>
<linearGradient id="paint20_linear_5075_14087" x1="473.928" y1="790.213" x2="482.052" y2="790.213" gradientUnits="userSpaceOnUse">
<stop stop-opacity="0.9"/>
<stop offset="1" stop-opacity="0.9"/>
</linearGradient>
<linearGradient id="paint21_linear_5075_14087" x1="490.27" y1="799.657" x2="498.488" y2="799.657" gradientUnits="userSpaceOnUse">
<stop stop-opacity="0.9"/>
<stop offset="1" stop-opacity="0.9"/>
</linearGradient>
<linearGradient id="paint22_linear_5075_14087" x1="506.612" y1="809.104" x2="514.83" y2="809.104" gradientUnits="userSpaceOnUse">
<stop stop-opacity="0.9"/>
<stop offset="1" stop-opacity="0.9"/>
</linearGradient>
<linearGradient id="paint23_linear_5075_14087" x1="522.954" y1="818.55" x2="531.172" y2="818.55" gradientUnits="userSpaceOnUse">
<stop stop-opacity="0.9"/>
<stop offset="1" stop-opacity="0.9"/>
</linearGradient>
<linearGradient id="paint24_linear_5075_14087" x1="784.8" y1="381.052" x2="652.184" y2="385.226" gradientUnits="userSpaceOnUse">
<stop stop-color="#FEFEFE" stop-opacity="0.3"/>
<stop offset="1" stop-color="#FEFEFE" stop-opacity="0"/>
</linearGradient>
<linearGradient id="paint25_linear_5075_14087" x1="752.014" y1="613.548" x2="669.122" y2="615.586" gradientUnits="userSpaceOnUse">
<stop stop-color="#FEFEFE" stop-opacity="0.1"/>
<stop offset="1" stop-color="#FEFEFE" stop-opacity="0.3"/>
</linearGradient>
<linearGradient id="paint26_linear_5075_14087" x1="840.53" y1="208.427" x2="380.883" y2="221.579" gradientUnits="userSpaceOnUse">
<stop stop-color="#020202" stop-opacity="0.2"/>
<stop offset="1" stop-color="#020202" stop-opacity="0"/>
</linearGradient>
<linearGradient id="paint27_linear_5075_14087" x1="840.617" y1="343.373" x2="800.587" y2="343.829" gradientUnits="userSpaceOnUse">
<stop stop-color="#FEFEFE" stop-opacity="0.1"/>
<stop offset="0.595" stop-color="#FEFEFE" stop-opacity="0.3"/>
</linearGradient>
<linearGradient id="paint28_linear_5075_14087" x1="653.875" y1="454.509" x2="587.623" y2="455.788" gradientUnits="userSpaceOnUse">
<stop stop-color="#FEFEFE" stop-opacity="0.1"/>
<stop offset="1" stop-color="#FEFEFE" stop-opacity="0.3"/>
</linearGradient>
<linearGradient id="paint29_linear_5075_14087" x1="801.139" y1="354.747" x2="784.57" y2="354.831" gradientUnits="userSpaceOnUse">
<stop stop-color="#FEFEFE" stop-opacity="0.1"/>
<stop offset="1" stop-color="#FEFEFE" stop-opacity="0"/>
</linearGradient>
<linearGradient id="paint30_linear_5075_14087" x1="129.233" y1="752.543" x2="546.888" y2="643.409" gradientUnits="userSpaceOnUse">
<stop stop-color="#71A9CC"/>
<stop offset="0.5" stop-color="#97C0DA"/>
<stop offset="1" stop-color="#9EC3DC"/>
</linearGradient>
<linearGradient id="paint31_linear_5075_14087" x1="155.614" y1="406.511" x2="568.33" y2="975.213" gradientUnits="userSpaceOnUse">
<stop stop-color="#BBD6E6"/>
<stop offset="0.5" stop-color="#D3E4EF"/>
<stop offset="1" stop-color="#D7E6F0"/>
</linearGradient>
<linearGradient id="paint32_linear_5075_14087" x1="513.138" y1="816.431" x2="178.822" y2="554.676" gradientUnits="userSpaceOnUse">
<stop stop-color="#496F8E"/>
<stop offset="1" stop-color="#214F77"/>
</linearGradient>
<linearGradient id="paint33_linear_5075_14087" x1="513.138" y1="723.552" x2="178.822" y2="461.797" gradientUnits="userSpaceOnUse">
<stop stop-color="#496F8E"/>
<stop offset="1" stop-color="#214F77"/>
</linearGradient>
<linearGradient id="paint34_linear_5075_14087" x1="635.712" y1="863.373" x2="421.607" y2="828.036" gradientUnits="userSpaceOnUse">
<stop stop-color="#FF9693"/>
<stop offset="1" stop-color="#F8B5B2"/>
</linearGradient>
<linearGradient id="paint35_linear_5075_14087" x1="414.009" y1="830.906" x2="613.972" y2="890.715" gradientUnits="userSpaceOnUse">
<stop stop-color="#C42B32"/>
<stop offset="1" stop-color="#F1595F"/>
</linearGradient>
<linearGradient id="paint36_linear_5075_14087" x1="636.601" y1="925.142" x2="562.198" y2="904.385" gradientUnits="userSpaceOnUse">
<stop stop-color="#C42B32"/>
<stop offset="1" stop-color="#F1595F"/>
</linearGradient>
<linearGradient id="paint37_linear_5075_14087" x1="295.978" y1="778.067" x2="249.522" y2="842.719" gradientUnits="userSpaceOnUse">
<stop stop-color="#C42B32"/>
<stop offset="1" stop-color="#F1595F"/>
</linearGradient>
<linearGradient id="paint38_linear_5075_14087" x1="180.014" y1="683.119" x2="321.536" y2="664.597" gradientUnits="userSpaceOnUse">
<stop stop-color="#FF9693"/>
<stop offset="1" stop-color="#F8B5B2"/>
</linearGradient>
</defs>
</svg>
