<svg width="1000" height="1001" viewBox="0 0 1000 1001" fill="none" xmlns="http://www.w3.org/2000/svg">
<path d="M539.547 0C551.148 1.80552e-05 563.205 2.57397 573.726 8.29102L574.738 8.85449L853.063 169.572L853.395 169.765C861.822 174.745 876.365 186.55 878.638 206.635C878.894 208.421 879.027 210.233 879.027 212.06V797.721L879.016 798.797C878.532 821.257 862.977 834.533 853.158 840.206L853.157 840.205L821.109 858.73C820.55 859.068 819.979 859.392 819.398 859.703C813.72 862.742 807.487 864.236 801.273 864.216C801.246 864.216 801.219 864.216 801.191 864.216C800.992 864.215 800.792 864.212 800.593 864.208C800.559 864.207 800.524 864.207 800.49 864.206C800.302 864.202 800.113 864.196 799.925 864.188C799.876 864.187 799.828 864.185 799.779 864.183C799.615 864.176 799.451 864.167 799.287 864.158C799.21 864.154 799.132 864.15 799.055 864.146C798.934 864.138 798.813 864.129 798.692 864.12C798.57 864.111 798.447 864.103 798.325 864.093C798.267 864.088 798.209 864.083 798.151 864.078C797.986 864.064 797.82 864.049 797.654 864.033C797.642 864.032 797.628 864.031 797.615 864.029C796.407 863.909 795.2 863.731 793.999 863.494C793.918 863.478 793.837 863.462 793.756 863.445C793.637 863.421 793.518 863.395 793.398 863.369C793.296 863.347 793.193 863.326 793.091 863.303C792.979 863.278 792.867 863.252 792.756 863.227C792.648 863.202 792.541 863.175 792.434 863.149C792.318 863.122 792.202 863.094 792.087 863.065C792 863.044 791.914 863.021 791.827 862.999C791.687 862.963 791.547 862.926 791.407 862.888C791.354 862.873 791.301 862.858 791.248 862.844C791.093 862.801 790.938 862.759 790.783 862.714C790.357 862.591 789.932 862.459 789.51 862.32C789.425 862.292 789.34 862.263 789.255 862.234C789.13 862.193 789.005 862.151 788.881 862.107C788.784 862.074 788.687 862.039 788.591 862.005C788.466 861.96 788.341 861.916 788.217 861.87C788.143 861.843 788.068 861.815 787.994 861.787C787.841 861.73 787.688 861.671 787.535 861.611C787.458 861.581 787.381 861.552 787.305 861.521C787.185 861.474 787.064 861.425 786.944 861.376C786.891 861.354 786.837 861.334 786.784 861.312C786.732 861.29 786.679 861.266 786.627 861.244C786.549 861.211 786.471 861.178 786.393 861.145C786.249 861.083 786.106 861.022 785.964 860.959C785.929 860.944 785.894 860.928 785.859 860.912C785.632 860.811 785.405 860.707 785.18 860.602L692.148 914.308C691.1 926.67 684.081 937.837 673.224 944.113L640.54 963.005L640.538 963.003C629.535 969.412 617.128 971.846 606.17 971.993L605.104 972C593.129 972 580.668 969.257 569.911 963.146C569.836 963.103 569.761 963.059 569.686 963.016L523.87 936.568C523.059 937.038 522.241 937.501 521.417 937.956L521.415 937.957L454.112 975.097C451.837 976.44 449.522 977.718 447.169 978.929L440.516 982.601L440.515 982.6C440.34 982.697 440.174 982.787 440.028 982.867L440.029 982.868L438.964 983.458C438.46 983.737 437.951 984.002 437.438 984.256C416.614 995.115 393.392 1000.45 369.079 1000.58C368.122 1000.59 367.164 1000.58 366.205 1000.57C331.249 1000.17 294.403 989.179 257.77 968.961C193.762 933.636 137.746 874.303 97.7969 808.16C58.2031 742.606 32.296 666.878 31.8936 595.897L31.8887 594.222C31.8888 525.016 56.8543 466.812 106.812 436.36C107.708 435.764 108.635 435.201 109.593 434.675L111.221 433.779C111.866 433.418 112.509 433.066 113.149 432.721L118.501 429.78C121.16 428.2 123.874 426.709 126.64 425.31L187.128 392.085C191.554 389.344 196.127 386.857 200.84 384.632L200.856 384.624C221.009 375.117 242.855 370.642 265.614 370.718V174.273L265.626 173.198C266.11 150.74 281.663 137.464 291.483 131.79L291.49 131.787L504.123 8.98828V8.99023C515.481 2.37763 528.335 1.0032e-05 539.547 0Z" fill="black"/>
<path fill-rule="evenodd" clip-rule="evenodd" d="M572.066 768.961L555.724 778.407L572.066 787.853L588.408 778.407L572.066 768.961Z" fill="white"/>
<path fill-rule="evenodd" clip-rule="evenodd" d="M784.8 230.529L637.534 315.545V901.206L784.8 816.191V230.529Z" fill="#FF0000"/>
<path fill-rule="evenodd" clip-rule="evenodd" d="M784.8 230.529L637.534 315.545V901.206L784.8 816.191V230.529Z" fill="url(#paint0_linear_5075_15947)"/>
<path fill-rule="evenodd" clip-rule="evenodd" d="M303.516 173.854L334.877 175.27L596.63 329.715L653.874 324.992V910.654L621.19 929.546C617.034 932.002 611.177 933.419 604.848 933.419C598.425 933.419 592.663 931.907 588.507 929.546L310.317 768.961C306.161 766.505 303.516 763.199 303.516 759.515V173.854Z" fill="#FF0000"/>
<path fill-rule="evenodd" clip-rule="evenodd" d="M303.516 173.854L334.877 175.27L596.63 329.715L653.874 324.992V910.654L621.19 929.546C617.034 932.002 611.177 933.419 604.848 933.419C598.425 933.419 592.663 931.907 588.507 929.546L310.317 768.961C306.161 766.505 303.516 763.199 303.516 759.515V173.854Z" fill="url(#paint1_linear_5075_15947)"/>
<path fill-rule="evenodd" clip-rule="evenodd" d="M801.139 239.975L784.797 230.529V816.191L801.139 825.637V239.975Z" fill="#FF0000"/>
<path fill-rule="evenodd" clip-rule="evenodd" d="M801.139 239.975L784.797 230.529V816.191L801.139 825.637V239.975Z" fill="url(#paint2_linear_5075_15947)"/>
<path fill-rule="evenodd" clip-rule="evenodd" d="M840.616 797.296C840.616 800.98 838.066 804.286 833.815 806.742L801.131 825.635V214.658L840.616 211.635V797.296Z" fill="#FF0000"/>
<path fill-rule="evenodd" clip-rule="evenodd" d="M840.616 797.296C840.616 800.98 838.066 804.286 833.815 806.742L801.131 825.635V214.658L840.616 211.635V797.296Z" fill="url(#paint3_linear_5075_15947)"/>
<path fill-rule="evenodd" clip-rule="evenodd" d="M326.659 570.59L318.44 565.867V622.544L326.659 627.267V570.59Z" fill="#0000FF"/>
<path fill-rule="evenodd" clip-rule="evenodd" d="M343.008 580.036L334.79 575.312V631.989L343.008 636.712V580.036Z" fill="#0000FF"/>
<path fill-rule="evenodd" clip-rule="evenodd" d="M359.348 589.483L351.224 584.76V641.437L359.348 646.16V589.483Z" fill="#0000FF"/>
<path fill-rule="evenodd" clip-rule="evenodd" d="M375.69 598.928L367.566 594.205V650.882L375.69 655.605V598.928Z" fill="#0000FF"/>
<path fill-rule="evenodd" clip-rule="evenodd" d="M392.119 608.373L383.901 603.65V660.327L392.119 665.05V608.373Z" fill="#0000FF"/>
<path fill-rule="evenodd" clip-rule="evenodd" d="M326.659 674.498L318.44 669.775V726.452L326.659 731.175V674.498Z" fill="#0000FF"/>
<path fill-rule="evenodd" clip-rule="evenodd" d="M343.008 683.944L334.79 679.221V735.898L343.008 740.621V683.944Z" fill="#0000FF"/>
<path fill-rule="evenodd" clip-rule="evenodd" d="M359.348 693.389L351.224 688.666V745.343L359.348 750.066V693.389Z" fill="#0000FF"/>
<path fill-rule="evenodd" clip-rule="evenodd" d="M375.69 702.836L367.566 698.113V754.79L375.69 759.513V702.836Z" fill="#0000FF"/>
<path fill-rule="evenodd" clip-rule="evenodd" d="M392.119 712.282L383.901 707.559V764.236L392.119 768.959V712.282Z" fill="#0000FF"/>
<path fill-rule="evenodd" clip-rule="evenodd" d="M465.71 650.883L457.586 646.16V702.837L465.71 707.56V650.883Z" fill="#0000FF"/>
<path fill-rule="evenodd" clip-rule="evenodd" d="M482.051 660.329L473.928 655.605V712.282L482.051 717.005V660.329Z" fill="#0000FF"/>
<path fill-rule="evenodd" clip-rule="evenodd" d="M498.488 669.774L490.27 665.051V721.728L498.488 726.451V669.774Z" fill="#0000FF"/>
<path fill-rule="evenodd" clip-rule="evenodd" d="M514.83 679.221L506.612 674.498V731.175L514.83 735.898V679.221Z" fill="#0000FF"/>
<path fill-rule="evenodd" clip-rule="evenodd" d="M531.172 688.666L522.954 683.943V740.62L531.172 745.343V688.666Z" fill="#0000FF"/>
<path fill-rule="evenodd" clip-rule="evenodd" d="M465.71 754.793L457.586 750.07V806.747L465.71 811.47V754.793Z" fill="#0000FF"/>
<path fill-rule="evenodd" clip-rule="evenodd" d="M482.051 764.237L473.928 759.514V816.191L482.051 820.914V764.237Z" fill="#0000FF"/>
<path fill-rule="evenodd" clip-rule="evenodd" d="M498.488 773.682L490.27 768.959V825.636L498.488 830.359V773.682Z" fill="#0000FF"/>
<path fill-rule="evenodd" clip-rule="evenodd" d="M514.83 783.127L506.612 778.404V835.081L514.83 839.804V783.127Z" fill="#0000FF"/>
<path fill-rule="evenodd" clip-rule="evenodd" d="M531.172 792.573L522.954 787.85V844.527L531.172 849.25V792.573Z" fill="#0000FF"/>
<path fill-rule="evenodd" clip-rule="evenodd" d="M326.659 570.59L318.44 565.867V622.544L326.659 627.267V570.59Z" fill="url(#paint4_linear_5075_15947)"/>
<path fill-rule="evenodd" clip-rule="evenodd" d="M343.008 580.036L334.79 575.312V631.989L343.008 636.712V580.036Z" fill="url(#paint5_linear_5075_15947)"/>
<path fill-rule="evenodd" clip-rule="evenodd" d="M359.348 589.483L351.224 584.76V641.437L359.348 646.16V589.483Z" fill="url(#paint6_linear_5075_15947)"/>
<path fill-rule="evenodd" clip-rule="evenodd" d="M375.69 598.928L367.566 594.205V650.882L375.69 655.605V598.928Z" fill="url(#paint7_linear_5075_15947)"/>
<path fill-rule="evenodd" clip-rule="evenodd" d="M392.119 608.373L383.901 603.65V660.327L392.119 665.05V608.373Z" fill="url(#paint8_linear_5075_15947)"/>
<path fill-rule="evenodd" clip-rule="evenodd" d="M326.659 674.498L318.44 669.775V726.452L326.659 731.175V674.498Z" fill="url(#paint9_linear_5075_15947)"/>
<path fill-rule="evenodd" clip-rule="evenodd" d="M343.008 683.944L334.79 679.221V735.898L343.008 740.621V683.944Z" fill="url(#paint10_linear_5075_15947)"/>
<path fill-rule="evenodd" clip-rule="evenodd" d="M359.348 693.389L351.224 688.666V745.343L359.348 750.066V693.389Z" fill="url(#paint11_linear_5075_15947)"/>
<path fill-rule="evenodd" clip-rule="evenodd" d="M375.69 702.836L367.566 698.113V754.79L375.69 759.513V702.836Z" fill="url(#paint12_linear_5075_15947)"/>
<path fill-rule="evenodd" clip-rule="evenodd" d="M392.119 712.282L383.901 707.559V764.236L392.119 768.959V712.282Z" fill="url(#paint13_linear_5075_15947)"/>
<path fill-rule="evenodd" clip-rule="evenodd" d="M465.71 650.883L457.586 646.16V702.837L465.71 707.56V650.883Z" fill="url(#paint14_linear_5075_15947)"/>
<path fill-rule="evenodd" clip-rule="evenodd" d="M482.051 660.329L473.928 655.605V712.282L482.051 717.005V660.329Z" fill="url(#paint15_linear_5075_15947)"/>
<path fill-rule="evenodd" clip-rule="evenodd" d="M498.488 669.774L490.27 665.051V721.728L498.488 726.451V669.774Z" fill="url(#paint16_linear_5075_15947)"/>
<path fill-rule="evenodd" clip-rule="evenodd" d="M514.83 679.221L506.612 674.498V731.175L514.83 735.898V679.221Z" fill="url(#paint17_linear_5075_15947)"/>
<path fill-rule="evenodd" clip-rule="evenodd" d="M531.172 688.666L522.954 683.943V740.62L531.172 745.343V688.666Z" fill="url(#paint18_linear_5075_15947)"/>
<path fill-rule="evenodd" clip-rule="evenodd" d="M465.71 754.793L457.586 750.07V806.747L465.71 811.47V754.793Z" fill="url(#paint19_linear_5075_15947)"/>
<path fill-rule="evenodd" clip-rule="evenodd" d="M482.051 764.237L473.928 759.514V816.191L482.051 820.914V764.237Z" fill="url(#paint20_linear_5075_15947)"/>
<path fill-rule="evenodd" clip-rule="evenodd" d="M498.488 773.682L490.27 768.959V825.636L498.488 830.359V773.682Z" fill="url(#paint21_linear_5075_15947)"/>
<path fill-rule="evenodd" clip-rule="evenodd" d="M514.83 783.127L506.612 778.404V835.081L514.83 839.804V783.127Z" fill="url(#paint22_linear_5075_15947)"/>
<path fill-rule="evenodd" clip-rule="evenodd" d="M531.172 792.573L522.954 787.85V844.527L531.172 849.25V792.573Z" fill="url(#paint23_linear_5075_15947)"/>
<path fill-rule="evenodd" clip-rule="evenodd" d="M801.139 277.761L784.797 268.314V287.207L801.139 296.653V277.761Z" fill="white"/>
<path fill-rule="evenodd" clip-rule="evenodd" d="M801.139 372.225L784.797 362.779V381.672L801.139 391.118V372.225Z" fill="white"/>
<path fill-rule="evenodd" clip-rule="evenodd" d="M801.139 324.987L784.797 315.541V334.433L801.139 343.879V324.987Z" fill="white"/>
<path fill-rule="evenodd" clip-rule="evenodd" d="M801.139 419.454L784.797 410.008V428.9L801.139 438.346V419.454Z" fill="white"/>
<path fill-rule="evenodd" clip-rule="evenodd" d="M801.139 466.686L784.797 457.24V476.133L801.139 485.579V466.686Z" fill="white"/>
<path fill-rule="evenodd" clip-rule="evenodd" d="M784.8 457.237L653.876 532.807V551.699L784.8 476.13V457.237ZM784.8 410.007L653.876 485.576V504.468L784.8 428.899V410.007ZM784.8 362.776L653.876 438.345V457.237L784.8 381.668V362.776ZM784.8 315.545L653.876 391.114V410.007L784.8 334.438V315.545ZM784.8 268.314L653.876 343.884V362.776L784.8 287.207V268.314Z" fill="#00FF00"/>
<path fill-rule="evenodd" clip-rule="evenodd" d="M784.8 457.237L653.876 532.807V551.699L784.8 476.13V457.237ZM784.8 410.007L653.876 485.576V504.468L784.8 428.899V410.007ZM784.8 362.776L653.876 438.345V457.237L784.8 381.668V362.776ZM784.8 315.545L653.876 391.114V410.007L784.8 334.438V315.545ZM784.8 268.314L653.876 343.884V362.776L784.8 287.207V268.314Z" fill="url(#paint24_linear_5075_15947)"/>
<path fill-rule="evenodd" clip-rule="evenodd" d="M752.014 693.39L670.21 740.621V750.067L752.014 702.836V693.39ZM752.014 665.052L670.21 712.282V721.729L752.014 674.498V665.052ZM752.014 636.713L670.21 683.944V693.39L752.014 646.159V636.713ZM752.014 608.375L670.21 655.606V665.052L752.014 617.821V608.375ZM752.014 580.036L670.21 627.267V636.713L752.014 589.482V580.036ZM752.014 551.698L670.21 598.929V608.375L752.014 561.144V551.698ZM752.014 523.359L670.21 570.59V580.036L752.014 532.806V523.359Z" fill="#00FF00"/>
<path fill-rule="evenodd" clip-rule="evenodd" d="M752.014 693.39L670.21 740.621V750.067L752.014 702.836V693.39ZM752.014 665.052L670.21 712.282V721.729L752.014 674.498V665.052ZM752.014 636.713L670.21 683.944V693.39L752.014 646.159V636.713ZM752.014 608.375L670.21 655.606V665.052L752.014 617.821V608.375ZM752.014 580.036L670.21 627.267V636.713L752.014 589.482V580.036ZM752.014 551.698L670.21 598.929V608.375L752.014 561.144V551.698ZM752.014 523.359L670.21 570.59V580.036L752.014 532.806V523.359Z" fill="url(#paint25_linear_5075_15947)"/>
<path fill-rule="evenodd" clip-rule="evenodd" d="M522.95 41.6073C527.107 39.1513 532.963 37.7344 539.292 37.7344C545.715 37.7344 551.478 39.2458 555.634 41.6073L833.729 202.192C837.885 204.648 840.53 207.954 840.53 211.638C840.53 215.322 837.979 218.628 833.729 221.084L801.045 239.977L784.703 230.53L637.438 315.546L653.779 324.992L621.096 343.884C616.939 346.34 611.083 347.757 604.754 347.757C598.331 347.757 592.568 346.246 588.412 343.884L310.317 183.3C306.161 180.844 303.516 177.537 303.516 173.853C303.516 170.169 306.067 166.863 310.317 164.407L522.95 41.6073Z" fill="#FF0000"/>
<path fill-rule="evenodd" clip-rule="evenodd" d="M522.95 41.6073C527.107 39.1513 532.963 37.7344 539.292 37.7344C545.715 37.7344 551.478 39.2458 555.634 41.6073L833.729 202.192C837.885 204.648 840.53 207.954 840.53 211.638C840.53 215.322 837.979 218.628 833.729 221.084L801.045 239.977L784.703 230.53L637.438 315.546L653.779 324.992L621.096 343.884C616.939 346.34 611.083 347.757 604.754 347.757C598.331 347.757 592.568 346.246 588.412 343.884L310.317 183.3C306.161 180.844 303.516 177.537 303.516 173.853C303.516 170.169 306.067 166.863 310.317 164.407L522.95 41.6073Z" fill="url(#paint26_linear_5075_15947)"/>
<path fill-rule="evenodd" clip-rule="evenodd" d="M840.616 438.349C840.616 442.033 838.066 445.339 833.815 447.795L801.131 466.687V485.58L833.815 466.687C837.971 464.231 840.616 460.925 840.616 457.241V438.349ZM840.616 391.118C840.616 394.802 838.066 398.108 833.815 400.564L801.131 419.457V438.349L833.815 419.457C837.971 417.001 840.616 413.694 840.616 410.01V391.118ZM840.616 343.887C840.616 347.571 838.066 350.877 833.815 353.333L801.131 372.226V391.118L833.815 372.226C837.971 369.77 840.616 366.464 840.616 362.78V343.887ZM840.616 296.657C840.616 300.341 838.066 303.647 833.815 306.103L801.131 324.995V343.887L833.815 324.995C837.971 322.539 840.616 319.233 840.616 315.549V296.657ZM840.616 249.426C840.616 253.11 838.066 256.416 833.815 258.872L801.131 277.764V296.657L833.815 277.764C837.971 275.308 840.616 272.002 840.616 268.318V249.426Z" fill="#00FF00"/>
<path fill-rule="evenodd" clip-rule="evenodd" d="M840.616 438.349C840.616 442.033 838.066 445.339 833.815 447.795L801.131 466.687V485.58L833.815 466.687C837.971 464.231 840.616 460.925 840.616 457.241V438.349ZM840.616 391.118C840.616 394.802 838.066 398.108 833.815 400.564L801.131 419.457V438.349L833.815 419.457C837.971 417.001 840.616 413.694 840.616 410.01V391.118ZM840.616 343.887C840.616 347.571 838.066 350.877 833.815 353.333L801.131 372.226V391.118L833.815 372.226C837.971 369.77 840.616 366.464 840.616 362.78V343.887ZM840.616 296.657C840.616 300.341 838.066 303.647 833.815 306.103L801.131 324.995V343.887L833.815 324.995C837.971 322.539 840.616 319.233 840.616 315.549V296.657ZM840.616 249.426C840.616 253.11 838.066 256.416 833.815 258.872L801.131 277.764V296.657L833.815 277.764C837.971 275.308 840.616 272.002 840.616 268.318V249.426Z" fill="url(#paint27_linear_5075_15947)"/>
<path fill-rule="evenodd" clip-rule="evenodd" d="M653.875 551.702L621.191 570.595C617.035 573.051 611.179 574.468 604.85 574.468C598.426 574.468 592.664 572.956 588.508 570.595V589.487C592.664 591.943 598.521 593.36 604.85 593.36C611.273 593.36 617.035 591.849 621.191 589.487L653.875 570.595V551.702ZM653.875 504.472L621.191 523.364C617.035 525.82 611.179 527.237 604.85 527.237C598.426 527.237 592.664 525.725 588.508 523.364V542.256C592.664 544.712 598.521 546.129 604.85 546.129C611.273 546.129 617.035 544.618 621.191 542.256L653.875 523.364V504.472ZM653.875 457.241L621.191 476.133C617.035 478.589 611.179 480.006 604.85 480.006C598.426 480.006 592.664 478.495 588.508 476.133V495.025C592.664 497.481 598.521 498.898 604.85 498.898C611.273 498.898 617.035 497.387 621.191 495.025L653.875 476.133V457.241ZM653.875 410.01L621.191 428.902C617.035 431.358 611.179 432.775 604.85 432.775C598.426 432.775 592.664 431.264 588.508 428.902V447.795C592.664 450.251 598.521 451.668 604.85 451.668C611.273 451.668 617.035 450.156 621.191 447.795L653.875 428.902V410.01ZM653.875 362.779L621.191 381.672C617.035 384.128 611.179 385.545 604.85 385.545C598.426 385.545 592.664 384.033 588.508 381.672V400.564C592.664 403.02 598.521 404.437 604.85 404.437C611.273 404.437 617.035 402.925 621.191 400.564L653.875 381.672V362.779Z" fill="#00FF00"/>
<path fill-rule="evenodd" clip-rule="evenodd" d="M653.875 551.702L621.191 570.595C617.035 573.051 611.179 574.468 604.85 574.468C598.426 574.468 592.664 572.956 588.508 570.595V589.487C592.664 591.943 598.521 593.36 604.85 593.36C611.273 593.36 617.035 591.849 621.191 589.487L653.875 570.595V551.702ZM653.875 504.472L621.191 523.364C617.035 525.82 611.179 527.237 604.85 527.237C598.426 527.237 592.664 525.725 588.508 523.364V542.256C592.664 544.712 598.521 546.129 604.85 546.129C611.273 546.129 617.035 544.618 621.191 542.256L653.875 523.364V504.472ZM653.875 457.241L621.191 476.133C617.035 478.589 611.179 480.006 604.85 480.006C598.426 480.006 592.664 478.495 588.508 476.133V495.025C592.664 497.481 598.521 498.898 604.85 498.898C611.273 498.898 617.035 497.387 621.191 495.025L653.875 476.133V457.241ZM653.875 410.01L621.191 428.902C617.035 431.358 611.179 432.775 604.85 432.775C598.426 432.775 592.664 431.264 588.508 428.902V447.795C592.664 450.251 598.521 451.668 604.85 451.668C611.273 451.668 617.035 450.156 621.191 447.795L653.875 428.902V410.01ZM653.875 362.779L621.191 381.672C617.035 384.128 611.179 385.545 604.85 385.545C598.426 385.545 592.664 384.033 588.508 381.672V400.564C592.664 403.02 598.521 404.437 604.85 404.437C611.273 404.437 617.035 402.925 621.191 400.564L653.875 381.672V362.779Z" fill="url(#paint28_linear_5075_15947)"/>
<path fill-rule="evenodd" clip-rule="evenodd" d="M801.139 466.684L784.797 457.238V476.13L801.139 485.576V466.684ZM801.139 419.453L784.797 410.007V428.899L801.139 438.345V419.453ZM801.139 372.222L784.797 362.776V381.668L801.139 391.114V372.222ZM801.139 324.991L784.797 315.545V334.438L801.139 343.884V324.991ZM801.139 277.761L784.797 268.314V287.207L801.139 296.653V277.761Z" fill="#00FF00"/>
<path fill-rule="evenodd" clip-rule="evenodd" d="M801.139 466.684L784.797 457.238V476.13L801.139 485.576V466.684ZM801.139 419.453L784.797 410.007V428.899L801.139 438.345V419.453ZM801.139 372.222L784.797 362.776V381.668L801.139 391.114V372.222ZM801.139 324.991L784.797 315.545V334.438L801.139 343.884V324.991ZM801.139 277.761L784.797 268.314V287.207L801.139 296.653V277.761Z" fill="url(#paint29_linear_5075_15947)"/>
<path d="M303 390.914C329.373 391.941 358.764 400.607 389.739 417.702C503.567 480.523 595.98 633.531 595.98 759.172C595.98 884.814 503.567 935.816 389.739 872.996C358.763 855.901 329.374 832.125 303 804.041V390.914Z" fill="#020202" fill-opacity="0.4"/>
<path fill-rule="evenodd" clip-rule="evenodd" d="M421.06 949.93L420.571 950.191L420.559 950.213L421.938 949.451L421.06 949.93ZM421.938 949.451L503.055 904.685C540.387 884.081 563.49 839.92 563.49 777.099C563.49 651.457 471.076 498.45 357.249 435.628C303.147 405.771 253.881 401.626 217.069 418.991L217.065 418.994C213.368 420.739 209.799 422.7 206.355 424.877L131.366 466.069C164.903 448.076 209.704 448.87 259.462 471.931C274.438 475.742 290.191 482.061 306.444 491.03C406.035 545.995 486.893 679.865 486.893 789.795C486.893 805.474 485.248 819.823 482.135 832.754C479.607 889.805 457.07 930.068 421.938 949.451ZM127.896 467.976L127.985 467.971C128.536 467.646 129.089 467.328 129.644 467.015L127.896 467.976Z" fill="#F7A6A3"/>
<path fill-rule="evenodd" clip-rule="evenodd" d="M503.055 904.685C540.387 884.081 563.49 839.92 563.49 777.099C563.49 651.457 471.076 498.45 357.249 435.628C303.147 405.771 253.881 401.626 217.069 418.991L217.065 418.994C213.368 420.739 209.799 422.7 206.355 424.877L127.896 467.976L169.388 465.585C157.585 487.724 151.006 515.931 151.006 549.452C151.006 675.094 243.422 828.101 357.249 890.922C385.978 906.779 413.345 915.385 438.217 917.367L420.559 950.213L503.055 904.685Z" fill="url(#paint30_linear_5075_15947)"/>
<path fill-rule="evenodd" clip-rule="evenodd" d="M503.055 904.685C540.387 884.081 563.49 839.92 563.49 777.099C563.49 651.457 471.076 498.45 357.249 435.628C303.147 405.771 253.881 401.626 217.069 418.991L217.065 418.994C213.368 420.739 209.799 422.7 206.355 424.877L127.896 467.976L169.388 465.585C157.585 487.724 151.006 515.931 151.006 549.452C151.006 675.094 243.422 828.101 357.249 890.922C385.978 906.779 413.345 915.385 438.217 917.367L420.559 950.213L503.055 904.685Z" fill="url(#paint31_linear_5075_15947)"/>
<path d="M286.485 929.98C172.581 867.117 80.2437 714.235 80.2437 588.509C80.2437 462.783 172.581 411.823 286.485 474.686C400.39 537.549 492.727 690.43 492.727 816.156C492.727 941.883 400.39 992.843 286.485 929.98Z" fill="url(#paint32_linear_5075_15947)"/>
<path fill-rule="evenodd" clip-rule="evenodd" d="M276.131 480.396C162.303 417.575 69.8892 468.578 69.8892 594.22C69.8892 719.862 162.303 872.87 276.131 935.69C389.959 998.51 482.373 947.509 482.373 821.867C482.373 696.225 389.959 543.217 276.131 480.396ZM275.493 508.11C175.901 453.146 95.044 497.77 95.044 607.699C95.044 717.627 175.901 851.499 275.493 906.464C375.085 961.428 455.941 916.804 455.941 806.875C455.941 696.946 375.085 563.074 275.493 508.11Z" fill="url(#paint33_linear_5075_15947)"/>
<path fill-rule="evenodd" clip-rule="evenodd" d="M276.131 480.396C162.303 417.575 69.8892 468.578 69.8892 594.22C69.8892 719.862 162.303 872.87 276.131 935.69C389.959 998.51 482.373 947.509 482.373 821.867C482.373 696.225 389.959 543.217 276.131 480.396ZM275.493 508.11C175.901 453.146 95.044 497.77 95.044 607.699C95.044 717.627 175.901 851.499 275.493 906.464C375.085 961.428 455.941 916.804 455.941 806.875C455.941 696.946 375.085 563.074 275.493 508.11Z" fill="url(#paint34_linear_5075_15947)"/>
<path fill-rule="evenodd" clip-rule="evenodd" d="M135.594 463.929C172.434 446.365 221.848 450.437 276.133 480.396C389.961 543.217 482.374 696.225 482.374 821.867C482.374 881.786 461.356 924.729 427.024 946.444C467.44 927.176 492.727 881.877 492.727 816.153C492.727 690.511 400.313 537.504 286.485 474.683C226.942 441.821 173.258 440.106 135.594 463.929Z" fill="#FDC5C5"/>
<path d="M276.134 727.718C266.291 722.286 258.311 709.074 258.311 698.209C258.311 687.344 266.291 682.94 276.134 688.373C285.977 693.805 293.957 707.017 293.957 717.882C293.957 728.747 285.977 733.15 276.134 727.718Z" fill="#77818B"/>
<path d="M299.089 557.018C294.117 554.274 290.086 547.6 290.086 542.111C290.086 536.623 294.117 534.398 299.089 537.143C304.061 539.887 308.092 546.561 308.092 552.049C308.092 557.537 304.061 559.762 299.089 557.018Z" fill="#DCDCDC"/>
<path d="M299.089 854.424C294.117 851.68 290.086 845.006 290.086 839.518C290.086 834.029 294.117 831.805 299.089 834.549C304.061 837.293 308.092 843.967 308.092 849.455C308.092 854.944 304.061 857.168 299.089 854.424Z" fill="#DCDCDC"/>
<path d="M424.806 765.164C424.806 759.675 428.837 757.451 433.809 760.195C438.781 762.939 442.812 769.613 442.812 775.101C442.812 780.59 438.781 782.814 433.809 780.07C428.837 777.326 424.806 770.652 424.806 765.164Z" fill="#DCDCDC"/>
<path d="M155.366 616.461C155.366 610.972 159.397 608.748 164.369 611.492C169.342 614.236 173.373 620.91 173.373 626.398C173.373 631.887 169.342 634.111 164.369 631.367C159.397 628.623 155.366 621.949 155.366 616.461Z" fill="#DCDCDC"/>
<path d="M387.987 842.966C391.503 841.026 397.204 844.172 400.72 849.993C404.236 855.815 404.236 862.107 400.72 864.047C397.204 865.988 391.503 862.841 387.987 857.02C384.471 851.199 384.471 844.907 387.987 842.966Z" fill="#DCDCDC"/>
<path d="M197.462 527.517C200.978 525.577 206.679 528.723 210.195 534.544C213.711 540.365 213.711 546.657 210.195 548.598C206.679 550.538 200.978 547.392 197.462 541.571C193.946 535.75 193.946 529.457 197.462 527.517Z" fill="#DCDCDC"/>
<path d="M387.987 646.719C384.471 640.898 384.471 634.606 387.987 632.665C391.503 630.725 397.203 633.871 400.719 639.692C404.235 645.513 404.235 651.805 400.719 653.746C397.203 655.686 391.503 652.54 387.987 646.719Z" fill="#DCDCDC"/>
<path d="M197.46 751.873C193.944 746.052 193.944 739.76 197.46 737.819C200.976 735.879 206.676 739.025 210.192 744.846C213.708 750.668 213.708 756.96 210.192 758.9C206.676 760.841 200.976 757.695 197.46 751.873Z" fill="#DCDCDC"/>
<path d="M299.089 557.018C294.117 554.274 290.086 547.6 290.086 542.111C290.086 536.623 294.117 534.398 299.089 537.143C304.061 539.887 308.092 546.561 308.092 552.049C308.092 557.537 304.061 559.762 299.089 557.018Z" fill="#020202" fill-opacity="0.5"/>
<path d="M299.089 854.424C294.117 851.68 290.086 845.006 290.086 839.518C290.086 834.029 294.117 831.805 299.089 834.549C304.061 837.293 308.092 843.967 308.092 849.455C308.092 854.944 304.061 857.168 299.089 854.424Z" fill="#020202" fill-opacity="0.5"/>
<path d="M424.806 765.164C424.806 759.675 428.837 757.451 433.809 760.195C438.781 762.939 442.812 769.613 442.812 775.101C442.812 780.59 438.781 782.814 433.809 780.07C428.837 777.326 424.806 770.652 424.806 765.164Z" fill="#020202" fill-opacity="0.5"/>
<path d="M155.366 616.461C155.366 610.972 159.397 608.748 164.369 611.492C169.342 614.236 173.373 620.91 173.373 626.398C173.373 631.887 169.342 634.111 164.369 631.367C159.397 628.623 155.366 621.949 155.366 616.461Z" fill="#020202" fill-opacity="0.5"/>
<path d="M387.987 842.966C391.503 841.026 397.204 844.172 400.72 849.993C404.236 855.815 404.236 862.107 400.72 864.047C397.204 865.988 391.503 862.841 387.987 857.02C384.471 851.199 384.471 844.907 387.987 842.966Z" fill="#020202" fill-opacity="0.5"/>
<path d="M197.462 527.517C200.978 525.577 206.679 528.723 210.195 534.544C213.711 540.365 213.711 546.657 210.195 548.598C206.679 550.538 200.978 547.392 197.462 541.571C193.946 535.75 193.946 529.457 197.462 527.517Z" fill="#020202" fill-opacity="0.5"/>
<path d="M387.987 646.719C384.471 640.898 384.471 634.606 387.987 632.665C391.503 630.725 397.203 633.871 400.719 639.692C404.235 645.513 404.235 651.805 400.719 653.746C397.203 655.686 391.503 652.54 387.987 646.719Z" fill="#020202" fill-opacity="0.5"/>
<path d="M197.46 751.873C193.944 746.052 193.944 739.76 197.46 737.819C200.976 735.879 206.676 739.025 210.192 744.846C213.708 750.668 213.708 756.96 210.192 758.9C206.676 760.841 200.976 757.695 197.46 751.873Z" fill="#020202" fill-opacity="0.5"/>
<path fill-rule="evenodd" clip-rule="evenodd" d="M289.325 746.774L297.796 742.098L297.781 742.087C301.426 739.791 303.657 735.238 303.657 728.887C303.657 727.088 303.477 725.237 303.137 723.363L291.781 602.278C291.781 596.211 287.316 588.819 281.817 585.783C279.021 584.24 276.492 584.118 274.68 585.173L266.841 589.496C268.646 588.5 271.136 588.642 273.887 590.162C279.385 593.195 283.848 600.587 283.848 606.657L295.207 727.739C295.544 729.613 295.723 731.467 295.723 733.265C295.723 739.916 293.276 744.591 289.325 746.774Z" fill="#4A525A"/>
<path fill-rule="evenodd" clip-rule="evenodd" d="M298.643 598.491C298.643 592.424 294.178 585.032 288.679 581.996C283.18 578.962 278.715 581.426 278.715 587.496L267.359 696.04C267.019 697.542 266.839 699.196 266.839 700.994C266.839 714.299 276.627 730.501 288.679 737.152C300.731 743.803 310.519 738.404 310.519 725.099C310.519 723.301 310.339 721.45 309.999 719.576L298.643 598.491Z" fill="#020202" fill-opacity="0.4"/>
<path fill-rule="evenodd" clip-rule="evenodd" d="M283.847 606.661C283.847 600.594 279.382 593.202 273.883 590.165C268.385 587.132 263.92 589.596 263.92 595.666L252.564 704.21C252.223 705.712 252.044 707.366 252.044 709.164C252.044 722.469 261.831 738.671 273.883 745.322C285.936 751.972 295.723 746.574 295.723 733.269C295.723 731.471 295.544 729.62 295.203 727.746L283.847 606.661Z" fill="url(#paint35_linear_5075_15947)"/>
<path fill-rule="evenodd" clip-rule="evenodd" d="M283.847 606.661C283.847 600.594 279.382 593.202 273.883 590.165C268.385 587.132 263.92 589.596 263.92 595.666L252.564 704.21C252.223 705.712 252.044 707.366 252.044 709.164C252.044 722.469 261.831 738.671 273.883 745.322C285.936 751.972 295.723 746.574 295.723 733.269C295.723 731.471 295.544 729.62 295.203 727.746L283.847 606.661Z" fill="#020202" fill-opacity="0.2"/>
<path d="M289.325 746.774L297.796 742.098L297.781 742.087C301.426 739.791 303.657 735.238 303.657 728.887C303.657 727.088 303.477 725.237 303.137 723.363L291.781 602.278C291.781 596.211 287.316 588.819 281.817 585.783C279.021 584.24 276.492 584.118 274.68 585.173L266.841 589.496C268.646 588.5 271.136 588.642 273.887 590.162C279.385 593.195 283.848 600.587 283.848 606.657L295.207 727.739C295.544 729.613 295.723 731.467 295.723 733.265C295.723 739.916 293.276 744.591 289.325 746.774Z" fill="url(#paint36_linear_5075_15947)"/>
<path d="M289.325 746.774L297.796 742.098L297.781 742.087C301.426 739.791 303.657 735.238 303.657 728.887C303.657 727.088 303.477 725.237 303.137 723.363L291.781 602.278C291.781 596.211 287.316 588.819 281.817 585.783C279.021 584.24 276.492 584.118 274.68 585.173L266.841 589.496C268.646 588.5 271.136 588.642 273.887 590.162C279.385 593.195 283.848 600.587 283.848 606.657L295.207 727.739C295.544 729.613 295.723 731.467 295.723 733.265C295.723 739.916 293.276 744.591 289.325 746.774Z" fill="#020202" fill-opacity="0.5"/>
<path fill-rule="evenodd" clip-rule="evenodd" d="M259.629 746.949C251.45 739.739 245.479 728.07 245.479 718.17C245.479 706.092 254.362 701.19 265.304 707.228C269.613 709.606 273.603 713.329 276.855 717.705C277.29 718.29 277.713 718.888 278.121 719.496L330.068 792.986C331.506 794.97 332.438 797.381 332.438 799.515C332.438 803.114 329.791 804.575 326.531 802.775C325.955 802.457 325.398 802.059 324.872 801.598L261.035 748.126C260.56 747.749 260.091 747.357 259.629 746.95L259.629 746.949Z" fill="url(#paint37_linear_5075_15947)"/>
<path fill-rule="evenodd" clip-rule="evenodd" d="M259.629 746.949C251.45 739.739 245.479 728.07 245.479 718.17C245.479 706.092 254.362 701.19 265.304 707.228C269.613 709.606 273.603 713.329 276.855 717.705C277.29 718.29 277.713 718.888 278.121 719.496L330.068 792.986C331.506 794.97 332.438 797.381 332.438 799.515C332.438 803.114 329.791 804.575 326.531 802.775C325.955 802.457 325.398 802.059 324.872 801.598L261.035 748.126C260.56 747.749 260.091 747.357 259.629 746.95L259.629 746.949Z" fill="#020202" fill-opacity="0.2"/>
<path fill-rule="evenodd" clip-rule="evenodd" d="M251.654 705.714L257.671 702.385C261.244 700.527 266.114 700.859 271.48 703.819C275.789 706.198 279.778 709.92 283.032 714.296L336.242 789.578C337.681 791.56 338.614 793.971 338.614 796.106C338.614 797.88 337.971 799.132 336.93 799.735L330.816 803.107C331.821 802.492 332.437 801.252 332.437 799.516C332.437 797.381 331.507 794.969 330.068 792.985L276.854 717.705C273.601 713.329 269.612 709.605 265.303 707.228C260.016 704.309 255.212 703.946 251.654 705.714Z" fill="url(#paint38_linear_5075_15947)"/>
<path fill-rule="evenodd" clip-rule="evenodd" d="M251.654 705.714L257.671 702.385C261.244 700.527 266.114 700.859 271.48 703.819C275.789 706.198 279.778 709.92 283.032 714.296L336.242 789.578C337.681 791.56 338.614 793.971 338.614 796.106C338.614 797.88 337.971 799.132 336.93 799.735L330.816 803.107C331.821 802.492 332.437 801.252 332.437 799.516C332.437 797.381 331.507 794.969 330.068 792.985L276.854 717.705C273.601 713.329 269.612 709.605 265.303 707.228C260.016 704.309 255.212 703.946 251.654 705.714Z" fill="#020202" fill-opacity="0.5"/>
<path d="M260.315 701.458C263.885 697.662 269.891 697.186 276.693 700.942C281.002 703.319 284.991 707.043 288.245 711.419L294.506 720.272L295.774 732.324L283.033 714.295C279.78 709.919 275.79 706.197 271.481 703.817C267.341 701.533 263.496 700.815 260.315 701.458Z" fill="#020202" fill-opacity="0.3"/>
<path d="M263.922 739.913C258.314 736.818 253.768 729.291 253.768 723.102C253.768 716.912 258.314 714.403 263.922 717.498C269.53 720.593 274.076 728.119 274.076 734.309C274.076 740.499 269.53 743.008 263.922 739.913Z" fill="url(#paint39_linear_5075_15947)"/>
<path d="M263.922 739.913C258.314 736.818 253.768 729.291 253.768 723.102C253.768 716.912 258.314 714.403 263.922 717.498C269.53 720.593 274.076 728.119 274.076 734.309C274.076 740.499 269.53 743.008 263.922 739.913Z" fill="#020202" fill-opacity="0.5"/>
<path d="M260.618 741.733C255.01 738.638 250.464 731.112 250.464 724.922C250.464 718.732 255.01 716.223 260.618 719.318C266.226 722.413 270.772 729.94 270.772 736.129C270.772 742.319 266.226 744.828 260.618 741.733Z" fill="url(#paint40_linear_5075_15947)"/>
<path fill-rule="evenodd" clip-rule="evenodd" d="M164.337 489.078C159.743 490.515 155.326 492.293 151.104 494.401C120.282 513.125 101.349 551.027 101.349 604.222C101.349 714.15 182.205 848.022 281.797 902.987C329.99 929.584 373.795 932.862 406.17 916.708C410.193 914.264 414.009 911.499 417.609 908.415C386.959 918.01 348.361 912.517 306.446 889.384C206.854 834.419 125.997 700.547 125.997 590.618C125.997 544.352 140.32 509.654 164.337 489.078Z" fill="url(#paint41_linear_5075_15947)"/>
<path fill-rule="evenodd" clip-rule="evenodd" d="M149.398 495.461C113.803 512.207 91.5087 551.924 91.5087 609.647C91.5087 719.577 172.365 853.45 271.957 908.412C324.253 937.276 371.384 938.678 404.353 917.582C372.16 932.73 329.088 929.088 281.793 902.984C182.201 848.022 101.345 714.149 101.345 604.219C101.345 552.014 119.58 514.538 149.398 495.461Z" fill="#FFA29D"/>
<path opacity="0.2" d="M539.547 38.1562C545.97 38.1562 551.732 39.6678 555.889 42.0293L833.983 202.614C838.14 205.07 840.784 208.377 840.784 212.061L840.783 212.064L840.871 212.059V797.72C840.871 801.404 838.32 804.71 834.069 807.166L801.394 826.053V826.06L801.388 826.056L801.386 826.058V826.055L785.054 816.614L654.129 892.196V911.077L621.445 929.969C617.289 932.425 611.432 933.842 605.104 933.842C598.68 933.842 592.917 932.33 588.761 929.969L521.775 891.301C516.03 896.506 509.773 900.978 503.055 904.687L435.274 942.091C433.324 943.257 431.332 944.356 429.301 945.388L422.156 949.33C421.979 949.428 421.802 949.526 421.624 949.623L420.559 950.213L420.567 950.193C420.437 950.263 420.307 950.334 420.177 950.402C405.126 958.317 387.839 962.481 368.876 962.582C368.132 962.586 367.386 962.584 366.638 962.575C339.308 962.264 308.59 953.605 276.131 935.691C162.303 872.871 69.8889 719.863 69.8887 594.222C69.8887 532.725 92.0295 489.111 127.983 467.972L127.896 467.977L129.608 467.035L129.684 466.993C130.241 466.68 130.802 466.373 131.365 466.07L137.377 462.768C139.646 461.4 141.97 460.123 144.349 458.938L206.354 424.878C209.798 422.701 213.368 420.739 217.064 418.994L217.069 418.992C241.298 407.563 270.923 405.452 303.771 413.858V174.275C303.772 170.592 306.322 167.285 310.572 164.829L523.205 42.0293C527.361 39.5733 533.218 38.1563 539.547 38.1562Z" fill="black"/>
<defs>
<linearGradient id="paint0_linear_5075_15947" x1="637.534" y1="565.868" x2="784.8" y2="565.868" gradientUnits="userSpaceOnUse">
<stop stop-color="#020202" stop-opacity="0.6"/>
<stop offset="1" stop-color="#020202" stop-opacity="0.5"/>
</linearGradient>
<linearGradient id="paint1_linear_5075_15947" x1="653.874" y1="587.977" x2="297.403" y2="587.6" gradientUnits="userSpaceOnUse">
<stop stop-color="#020202" stop-opacity="0"/>
<stop offset="1" stop-color="#020202" stop-opacity="0.2"/>
</linearGradient>
<linearGradient id="paint2_linear_5075_15947" x1="801.139" y1="559.131" x2="784.712" y2="559.112" gradientUnits="userSpaceOnUse">
<stop stop-color="#020202" stop-opacity="0.1"/>
<stop offset="1" stop-color="#020202" stop-opacity="0.2"/>
</linearGradient>
<linearGradient id="paint3_linear_5075_15947" x1="840.616" y1="550.668" x2="800.925" y2="550.561" gradientUnits="userSpaceOnUse">
<stop stop-color="#020202" stop-opacity="0.2"/>
<stop offset="1" stop-color="#020202" stop-opacity="0"/>
</linearGradient>
<linearGradient id="paint4_linear_5075_15947" x1="318.44" y1="596.567" x2="326.659" y2="596.567" gradientUnits="userSpaceOnUse">
<stop stop-opacity="0.9"/>
<stop offset="1" stop-opacity="0.9"/>
</linearGradient>
<linearGradient id="paint5_linear_5075_15947" x1="334.79" y1="606.012" x2="343.008" y2="606.012" gradientUnits="userSpaceOnUse">
<stop stop-opacity="0.9"/>
<stop offset="1" stop-opacity="0.9"/>
</linearGradient>
<linearGradient id="paint6_linear_5075_15947" x1="351.224" y1="615.46" x2="359.348" y2="615.46" gradientUnits="userSpaceOnUse">
<stop stop-opacity="0.9"/>
<stop offset="1" stop-opacity="0.9"/>
</linearGradient>
<linearGradient id="paint7_linear_5075_15947" x1="367.566" y1="624.905" x2="375.69" y2="624.905" gradientUnits="userSpaceOnUse">
<stop stop-opacity="0.9"/>
<stop offset="1" stop-opacity="0.9"/>
</linearGradient>
<linearGradient id="paint8_linear_5075_15947" x1="383.901" y1="634.35" x2="392.119" y2="634.35" gradientUnits="userSpaceOnUse">
<stop stop-opacity="0.9"/>
<stop offset="1" stop-opacity="0.9"/>
</linearGradient>
<linearGradient id="paint9_linear_5075_15947" x1="318.44" y1="700.475" x2="326.659" y2="700.475" gradientUnits="userSpaceOnUse">
<stop stop-opacity="0.9"/>
<stop offset="1" stop-opacity="0.9"/>
</linearGradient>
<linearGradient id="paint10_linear_5075_15947" x1="334.79" y1="709.921" x2="343.008" y2="709.921" gradientUnits="userSpaceOnUse">
<stop stop-opacity="0.9"/>
<stop offset="1" stop-opacity="0.9"/>
</linearGradient>
<linearGradient id="paint11_linear_5075_15947" x1="351.224" y1="719.366" x2="359.348" y2="719.366" gradientUnits="userSpaceOnUse">
<stop stop-opacity="0.9"/>
<stop offset="1" stop-opacity="0.9"/>
</linearGradient>
<linearGradient id="paint12_linear_5075_15947" x1="367.566" y1="728.813" x2="375.69" y2="728.813" gradientUnits="userSpaceOnUse">
<stop stop-opacity="0.9"/>
<stop offset="1" stop-opacity="0.9"/>
</linearGradient>
<linearGradient id="paint13_linear_5075_15947" x1="383.901" y1="738.259" x2="392.119" y2="738.259" gradientUnits="userSpaceOnUse">
<stop stop-opacity="0.9"/>
<stop offset="1" stop-opacity="0.9"/>
</linearGradient>
<linearGradient id="paint14_linear_5075_15947" x1="457.586" y1="676.86" x2="465.71" y2="676.86" gradientUnits="userSpaceOnUse">
<stop stop-opacity="0.9"/>
<stop offset="1" stop-opacity="0.9"/>
</linearGradient>
<linearGradient id="paint15_linear_5075_15947" x1="473.928" y1="686.305" x2="482.051" y2="686.305" gradientUnits="userSpaceOnUse">
<stop stop-opacity="0.9"/>
<stop offset="1" stop-opacity="0.9"/>
</linearGradient>
<linearGradient id="paint16_linear_5075_15947" x1="490.27" y1="695.751" x2="498.488" y2="695.751" gradientUnits="userSpaceOnUse">
<stop stop-opacity="0.9"/>
<stop offset="1" stop-opacity="0.9"/>
</linearGradient>
<linearGradient id="paint17_linear_5075_15947" x1="506.612" y1="705.198" x2="514.83" y2="705.198" gradientUnits="userSpaceOnUse">
<stop stop-opacity="0.9"/>
<stop offset="1" stop-opacity="0.9"/>
</linearGradient>
<linearGradient id="paint18_linear_5075_15947" x1="522.954" y1="714.643" x2="531.172" y2="714.643" gradientUnits="userSpaceOnUse">
<stop stop-opacity="0.9"/>
<stop offset="1" stop-opacity="0.9"/>
</linearGradient>
<linearGradient id="paint19_linear_5075_15947" x1="457.586" y1="780.77" x2="465.71" y2="780.77" gradientUnits="userSpaceOnUse">
<stop stop-opacity="0.9"/>
<stop offset="1" stop-opacity="0.9"/>
</linearGradient>
<linearGradient id="paint20_linear_5075_15947" x1="473.928" y1="790.214" x2="482.051" y2="790.214" gradientUnits="userSpaceOnUse">
<stop stop-opacity="0.9"/>
<stop offset="1" stop-opacity="0.9"/>
</linearGradient>
<linearGradient id="paint21_linear_5075_15947" x1="490.27" y1="799.659" x2="498.488" y2="799.659" gradientUnits="userSpaceOnUse">
<stop stop-opacity="0.9"/>
<stop offset="1" stop-opacity="0.9"/>
</linearGradient>
<linearGradient id="paint22_linear_5075_15947" x1="506.612" y1="809.104" x2="514.83" y2="809.104" gradientUnits="userSpaceOnUse">
<stop stop-opacity="0.9"/>
<stop offset="1" stop-opacity="0.9"/>
</linearGradient>
<linearGradient id="paint23_linear_5075_15947" x1="522.954" y1="818.55" x2="531.172" y2="818.55" gradientUnits="userSpaceOnUse">
<stop stop-opacity="0.9"/>
<stop offset="1" stop-opacity="0.9"/>
</linearGradient>
<linearGradient id="paint24_linear_5075_15947" x1="784.8" y1="381.051" x2="652.184" y2="385.225" gradientUnits="userSpaceOnUse">
<stop stop-color="#FEFEFE" stop-opacity="0.3"/>
<stop offset="1" stop-color="#FEFEFE" stop-opacity="0"/>
</linearGradient>
<linearGradient id="paint25_linear_5075_15947" x1="752.014" y1="613.548" x2="669.121" y2="615.586" gradientUnits="userSpaceOnUse">
<stop stop-color="#FEFEFE" stop-opacity="0.1"/>
<stop offset="1" stop-color="#FEFEFE" stop-opacity="0.3"/>
</linearGradient>
<linearGradient id="paint26_linear_5075_15947" x1="840.53" y1="208.427" x2="380.883" y2="221.579" gradientUnits="userSpaceOnUse">
<stop stop-color="#020202" stop-opacity="0.2"/>
<stop offset="1" stop-color="#020202" stop-opacity="0"/>
</linearGradient>
<linearGradient id="paint27_linear_5075_15947" x1="840.616" y1="343.373" x2="800.586" y2="343.829" gradientUnits="userSpaceOnUse">
<stop stop-color="#FEFEFE" stop-opacity="0.1"/>
<stop offset="0.595" stop-color="#FEFEFE" stop-opacity="0.3"/>
</linearGradient>
<linearGradient id="paint28_linear_5075_15947" x1="653.875" y1="454.51" x2="587.623" y2="455.789" gradientUnits="userSpaceOnUse">
<stop stop-color="#FEFEFE" stop-opacity="0.1"/>
<stop offset="1" stop-color="#FEFEFE" stop-opacity="0.3"/>
</linearGradient>
<linearGradient id="paint29_linear_5075_15947" x1="801.139" y1="354.746" x2="784.57" y2="354.83" gradientUnits="userSpaceOnUse">
<stop stop-color="#FEFEFE" stop-opacity="0.1"/>
<stop offset="1" stop-color="#FEFEFE" stop-opacity="0"/>
</linearGradient>
<linearGradient id="paint30_linear_5075_15947" x1="502.598" y1="904.937" x2="220.621" y2="416.308" gradientUnits="userSpaceOnUse">
<stop stop-color="#FF93A9"/>
<stop offset="0.5" stop-color="#FF7892"/>
<stop offset="1" stop-color="#FB4552"/>
</linearGradient>
<linearGradient id="paint31_linear_5075_15947" x1="415.89" y1="939.563" x2="241.478" y2="411.909" gradientUnits="userSpaceOnUse">
<stop stop-color="#FF5353"/>
<stop offset="0.55" stop-color="#FB9C9C"/>
<stop offset="1" stop-color="#FF5353"/>
</linearGradient>
<linearGradient id="paint32_linear_5075_15947" x1="281.644" y1="478.046" x2="281.644" y2="478.046" gradientUnits="userSpaceOnUse">
<stop stop-color="#DCDCDC"/>
<stop offset="0.4" stop-color="#ECECEC"/>
<stop offset="1" stop-color="#F8F8F8"/>
</linearGradient>
<linearGradient id="paint33_linear_5075_15947" x1="157.215" y1="453.504" x2="398.49" y2="955.284" gradientUnits="userSpaceOnUse">
<stop stop-color="#FB4552"/>
<stop offset="0.5" stop-color="#FF7892"/>
<stop offset="1" stop-color="#FF93A9"/>
</linearGradient>
<linearGradient id="paint34_linear_5075_15947" x1="431.977" y1="943.911" x2="170.801" y2="447.849" gradientUnits="userSpaceOnUse">
<stop stop-color="#D41E18"/>
<stop offset="0.5" stop-color="#E9443C"/>
<stop offset="1" stop-color="#ED6861"/>
</linearGradient>
<linearGradient id="paint35_linear_5075_15947" x1="273.883" y1="745.322" x2="273.883" y2="590.165" gradientUnits="userSpaceOnUse">
<stop stop-color="#DCDCDC"/>
<stop offset="0.5" stop-color="#ECECEC"/>
<stop offset="1" stop-color="#F8F8F8"/>
</linearGradient>
<linearGradient id="paint36_linear_5075_15947" x1="285.249" y1="743.874" x2="285.249" y2="585.809" gradientUnits="userSpaceOnUse">
<stop stop-color="#B4B4B4"/>
<stop offset="0.5" stop-color="#CDCDCD"/>
<stop offset="1" stop-color="#F2F1F0"/>
</linearGradient>
<linearGradient id="paint37_linear_5075_15947" x1="245.344" y1="713.237" x2="288.546" y2="671.352" gradientUnits="userSpaceOnUse">
<stop stop-color="#DCDCDC"/>
<stop offset="0.5" stop-color="#ECECEC"/>
<stop offset="1" stop-color="#F8F8F8"/>
</linearGradient>
<linearGradient id="paint38_linear_5075_15947" x1="251.518" y1="729.353" x2="349.114" y2="735.728" gradientUnits="userSpaceOnUse">
<stop stop-color="#B4B4B4"/>
<stop offset="0.5" stop-color="#CDCDCD"/>
<stop offset="1" stop-color="#F2F1F0"/>
</linearGradient>
<linearGradient id="paint39_linear_5075_15947" x1="272.068" y1="735.058" x2="272.068" y2="735.058" gradientUnits="userSpaceOnUse">
<stop stop-color="#DCDCDC"/>
<stop offset="0.47" stop-color="#ECECEC"/>
<stop offset="1" stop-color="#F8F8F8"/>
</linearGradient>
<linearGradient id="paint40_linear_5075_15947" x1="250.933" y1="727.869" x2="250.933" y2="727.869" gradientUnits="userSpaceOnUse">
<stop stop-color="#DCDCDC"/>
<stop offset="0.53" stop-color="#ECECEC"/>
<stop offset="1" stop-color="#F8F8F8"/>
</linearGradient>
<linearGradient id="paint41_linear_5075_15947" x1="135.596" y1="513.84" x2="356.736" y2="934.457" gradientUnits="userSpaceOnUse">
<stop stop-color="#921510"/>
<stop offset="0.5" stop-color="#A21912"/>
<stop offset="1" stop-color="#B91D15"/>
</linearGradient>
</defs>
</svg>
