<svg width="1000" height="1001" viewBox="0 0 1000 1001" fill="none" xmlns="http://www.w3.org/2000/svg">
<path d="M539.547 0C551.148 1.80552e-05 563.205 2.57397 573.726 8.29102L574.738 8.85449L853.063 169.572L853.395 169.765C861.822 174.745 876.365 186.55 878.638 206.635C878.894 208.421 879.027 210.233 879.027 212.06V797.721L879.016 798.797C878.532 821.257 862.977 834.533 853.158 840.206L853.157 840.205L821.109 858.73C820.55 859.068 819.979 859.392 819.398 859.703C813.72 862.742 807.487 864.236 801.273 864.216C801.246 864.216 801.219 864.216 801.191 864.216C800.992 864.215 800.792 864.212 800.593 864.208C800.559 864.207 800.524 864.207 800.49 864.206C800.302 864.202 800.113 864.196 799.925 864.188C799.876 864.187 799.828 864.185 799.779 864.183C799.615 864.176 799.451 864.167 799.287 864.158C799.21 864.154 799.132 864.15 799.055 864.146C798.934 864.138 798.813 864.129 798.692 864.12C798.57 864.111 798.447 864.103 798.325 864.093C798.267 864.088 798.209 864.083 798.151 864.078C797.986 864.064 797.82 864.049 797.654 864.033C797.642 864.032 797.628 864.031 797.615 864.029C796.407 863.909 795.2 863.731 793.999 863.494C793.918 863.478 793.837 863.462 793.756 863.445C793.637 863.421 793.518 863.395 793.398 863.369C793.296 863.347 793.193 863.326 793.091 863.303C792.979 863.278 792.867 863.252 792.756 863.227C792.648 863.202 792.541 863.175 792.434 863.149C792.318 863.122 792.202 863.094 792.087 863.065C792 863.044 791.914 863.021 791.827 862.999C791.687 862.963 791.547 862.926 791.407 862.888C791.354 862.873 791.301 862.858 791.248 862.844C791.093 862.801 790.938 862.759 790.783 862.714C790.357 862.591 789.932 862.459 789.51 862.32C789.425 862.292 789.34 862.263 789.255 862.234C789.13 862.193 789.005 862.151 788.881 862.107C788.784 862.074 788.687 862.039 788.591 862.005C788.466 861.96 788.341 861.916 788.217 861.87C788.143 861.843 788.068 861.815 787.994 861.787C787.841 861.73 787.688 861.671 787.535 861.611C787.458 861.581 787.381 861.552 787.305 861.521C787.185 861.474 787.064 861.425 786.944 861.376C786.891 861.354 786.837 861.334 786.784 861.312C786.732 861.29 786.679 861.266 786.627 861.244C786.549 861.211 786.471 861.178 786.393 861.145C786.249 861.083 786.106 861.022 785.964 860.959C785.929 860.944 785.894 860.928 785.859 860.912C785.632 860.811 785.405 860.707 785.18 860.602L692.148 914.308C691.1 926.67 684.081 937.837 673.224 944.113L640.54 963.005L640.538 963.003C629.535 969.412 617.128 971.846 606.17 971.993L605.104 972C593.129 972 580.668 969.257 569.911 963.146C569.836 963.103 569.761 963.059 569.686 963.016L551.739 952.656C548.706 955.104 545.329 957.313 541.581 959.221L480.111 993.178L480.11 993.177C479.913 993.287 479.73 993.389 479.567 993.478L477.59 994.573C474.382 996.349 470.981 997.625 467.496 998.406C448.328 1003.86 429.261 998.835 414.432 990.65L133.021 835.342C114.754 825.26 100.174 809.3 90.2246 792.827C80.3186 776.426 72.8927 756.01 72.8926 735.034V464.417L72.8984 463.438C73.1451 442.817 81.2135 419.329 103.645 406.51L104.949 405.782C105.91 405.258 106.882 404.756 107.843 404.276L165.108 372.581L165.591 372.318C165.72 372.25 165.849 372.182 165.979 372.115C188.605 358.335 214.629 363.569 233.166 373.799C242.744 379.085 253.685 385.122 265.614 391.706V174.273L265.626 173.198C266.11 150.74 281.663 137.464 291.483 131.79L291.49 131.787L504.123 8.98828V8.99023C515.481 2.37763 528.335 1.0032e-05 539.547 0Z" fill="black"/>
<path fill-rule="evenodd" clip-rule="evenodd" d="M572.066 768.961L555.724 778.407L572.066 787.853L588.408 778.407L572.066 768.961Z" fill="white"/>
<path fill-rule="evenodd" clip-rule="evenodd" d="M784.8 230.529L637.534 315.545V901.206L784.8 816.191V230.529Z" fill="#FF0000"/>
<path fill-rule="evenodd" clip-rule="evenodd" d="M784.8 230.529L637.534 315.545V901.206L784.8 816.191V230.529Z" fill="url(#paint0_linear_5075_16985)"/>
<path fill-rule="evenodd" clip-rule="evenodd" d="M303.516 173.855L334.877 175.272L596.63 329.717L653.874 324.994V910.655L621.19 929.548C617.034 932.004 611.177 933.421 604.848 933.421C598.425 933.421 592.663 931.909 588.507 929.548L310.317 768.963C306.161 766.507 303.516 763.201 303.516 759.517V173.855Z" fill="#FF0000"/>
<path fill-rule="evenodd" clip-rule="evenodd" d="M303.516 173.855L334.877 175.272L596.63 329.717L653.874 324.994V910.655L621.19 929.548C617.034 932.004 611.177 933.421 604.848 933.421C598.425 933.421 592.663 931.909 588.507 929.548L310.317 768.963C306.161 766.507 303.516 763.201 303.516 759.517V173.855Z" fill="url(#paint1_linear_5075_16985)"/>
<path fill-rule="evenodd" clip-rule="evenodd" d="M801.139 239.975L784.797 230.529V816.191L801.139 825.637V239.975Z" fill="#FF0000"/>
<path fill-rule="evenodd" clip-rule="evenodd" d="M801.139 239.975L784.797 230.529V816.191L801.139 825.637V239.975Z" fill="url(#paint2_linear_5075_16985)"/>
<path fill-rule="evenodd" clip-rule="evenodd" d="M840.616 797.296C840.616 800.98 838.066 804.286 833.815 806.742L801.131 825.635V214.658L840.616 211.635V797.296Z" fill="#FF0000"/>
<path fill-rule="evenodd" clip-rule="evenodd" d="M840.616 797.296C840.616 800.98 838.066 804.286 833.815 806.742L801.131 825.635V214.658L840.616 211.635V797.296Z" fill="url(#paint3_linear_5075_16985)"/>
<path fill-rule="evenodd" clip-rule="evenodd" d="M326.659 570.59L318.44 565.867V622.544L326.659 627.267V570.59Z" fill="#0000FF"/>
<path fill-rule="evenodd" clip-rule="evenodd" d="M343.008 580.036L334.79 575.312V631.989L343.008 636.712V580.036Z" fill="#0000FF"/>
<path fill-rule="evenodd" clip-rule="evenodd" d="M359.348 589.483L351.224 584.76V641.437L359.348 646.16V589.483Z" fill="#0000FF"/>
<path fill-rule="evenodd" clip-rule="evenodd" d="M375.69 598.928L367.566 594.205V650.882L375.69 655.605V598.928Z" fill="#0000FF"/>
<path fill-rule="evenodd" clip-rule="evenodd" d="M392.119 608.373L383.901 603.65V660.327L392.119 665.05V608.373Z" fill="#0000FF"/>
<path fill-rule="evenodd" clip-rule="evenodd" d="M326.659 674.498L318.44 669.775V726.452L326.659 731.175V674.498Z" fill="#0000FF"/>
<path fill-rule="evenodd" clip-rule="evenodd" d="M343.008 683.944L334.79 679.221V735.898L343.008 740.621V683.944Z" fill="#0000FF"/>
<path fill-rule="evenodd" clip-rule="evenodd" d="M359.348 693.389L351.224 688.666V745.343L359.348 750.066V693.389Z" fill="#0000FF"/>
<path fill-rule="evenodd" clip-rule="evenodd" d="M375.69 702.836L367.566 698.113V754.79L375.69 759.513V702.836Z" fill="#0000FF"/>
<path fill-rule="evenodd" clip-rule="evenodd" d="M392.119 712.282L383.901 707.559V764.236L392.119 768.959V712.282Z" fill="#0000FF"/>
<path fill-rule="evenodd" clip-rule="evenodd" d="M465.71 650.883L457.586 646.16V702.837L465.71 707.56V650.883Z" fill="#0000FF"/>
<path fill-rule="evenodd" clip-rule="evenodd" d="M482.051 660.329L473.928 655.605V712.282L482.051 717.005V660.329Z" fill="#0000FF"/>
<path fill-rule="evenodd" clip-rule="evenodd" d="M498.488 669.774L490.27 665.051V721.728L498.488 726.451V669.774Z" fill="#0000FF"/>
<path fill-rule="evenodd" clip-rule="evenodd" d="M514.83 679.221L506.612 674.498V731.175L514.83 735.898V679.221Z" fill="#0000FF"/>
<path fill-rule="evenodd" clip-rule="evenodd" d="M531.172 688.666L522.954 683.943V740.62L531.172 745.343V688.666Z" fill="#0000FF"/>
<path fill-rule="evenodd" clip-rule="evenodd" d="M465.71 754.793L457.586 750.07V806.747L465.71 811.47V754.793Z" fill="#0000FF"/>
<path fill-rule="evenodd" clip-rule="evenodd" d="M482.051 764.237L473.928 759.514V816.191L482.051 820.914V764.237Z" fill="#0000FF"/>
<path fill-rule="evenodd" clip-rule="evenodd" d="M498.488 773.682L490.27 768.959V825.636L498.488 830.359V773.682Z" fill="#0000FF"/>
<path fill-rule="evenodd" clip-rule="evenodd" d="M514.83 783.127L506.612 778.404V835.081L514.83 839.804V783.127Z" fill="#0000FF"/>
<path fill-rule="evenodd" clip-rule="evenodd" d="M531.172 792.573L522.954 787.85V844.527L531.172 849.25V792.573Z" fill="#0000FF"/>
<path fill-rule="evenodd" clip-rule="evenodd" d="M326.659 570.59L318.44 565.867V622.544L326.659 627.267V570.59Z" fill="url(#paint4_linear_5075_16985)"/>
<path fill-rule="evenodd" clip-rule="evenodd" d="M343.008 580.036L334.79 575.312V631.989L343.008 636.712V580.036Z" fill="url(#paint5_linear_5075_16985)"/>
<path fill-rule="evenodd" clip-rule="evenodd" d="M359.348 589.483L351.224 584.76V641.437L359.348 646.16V589.483Z" fill="url(#paint6_linear_5075_16985)"/>
<path fill-rule="evenodd" clip-rule="evenodd" d="M375.69 598.928L367.566 594.205V650.882L375.69 655.605V598.928Z" fill="url(#paint7_linear_5075_16985)"/>
<path fill-rule="evenodd" clip-rule="evenodd" d="M392.119 608.373L383.901 603.65V660.327L392.119 665.05V608.373Z" fill="url(#paint8_linear_5075_16985)"/>
<path fill-rule="evenodd" clip-rule="evenodd" d="M326.659 674.498L318.44 669.775V726.452L326.659 731.175V674.498Z" fill="url(#paint9_linear_5075_16985)"/>
<path fill-rule="evenodd" clip-rule="evenodd" d="M343.008 683.944L334.79 679.221V735.898L343.008 740.621V683.944Z" fill="url(#paint10_linear_5075_16985)"/>
<path fill-rule="evenodd" clip-rule="evenodd" d="M359.348 693.389L351.224 688.666V745.343L359.348 750.066V693.389Z" fill="url(#paint11_linear_5075_16985)"/>
<path fill-rule="evenodd" clip-rule="evenodd" d="M375.69 702.836L367.566 698.113V754.79L375.69 759.513V702.836Z" fill="url(#paint12_linear_5075_16985)"/>
<path fill-rule="evenodd" clip-rule="evenodd" d="M392.119 712.282L383.901 707.559V764.236L392.119 768.959V712.282Z" fill="url(#paint13_linear_5075_16985)"/>
<path fill-rule="evenodd" clip-rule="evenodd" d="M465.71 650.883L457.586 646.16V702.837L465.71 707.56V650.883Z" fill="url(#paint14_linear_5075_16985)"/>
<path fill-rule="evenodd" clip-rule="evenodd" d="M482.051 660.329L473.928 655.605V712.282L482.051 717.005V660.329Z" fill="url(#paint15_linear_5075_16985)"/>
<path fill-rule="evenodd" clip-rule="evenodd" d="M498.488 669.774L490.27 665.051V721.728L498.488 726.451V669.774Z" fill="url(#paint16_linear_5075_16985)"/>
<path fill-rule="evenodd" clip-rule="evenodd" d="M514.83 679.221L506.612 674.498V731.175L514.83 735.898V679.221Z" fill="url(#paint17_linear_5075_16985)"/>
<path fill-rule="evenodd" clip-rule="evenodd" d="M531.172 688.666L522.954 683.943V740.62L531.172 745.343V688.666Z" fill="url(#paint18_linear_5075_16985)"/>
<path fill-rule="evenodd" clip-rule="evenodd" d="M465.71 754.793L457.586 750.07V806.747L465.71 811.47V754.793Z" fill="url(#paint19_linear_5075_16985)"/>
<path fill-rule="evenodd" clip-rule="evenodd" d="M482.051 764.237L473.928 759.514V816.191L482.051 820.914V764.237Z" fill="url(#paint20_linear_5075_16985)"/>
<path fill-rule="evenodd" clip-rule="evenodd" d="M498.488 773.682L490.27 768.959V825.636L498.488 830.359V773.682Z" fill="url(#paint21_linear_5075_16985)"/>
<path fill-rule="evenodd" clip-rule="evenodd" d="M514.83 783.127L506.612 778.404V835.081L514.83 839.804V783.127Z" fill="url(#paint22_linear_5075_16985)"/>
<path fill-rule="evenodd" clip-rule="evenodd" d="M531.172 792.573L522.954 787.85V844.527L531.172 849.25V792.573Z" fill="url(#paint23_linear_5075_16985)"/>
<path fill-rule="evenodd" clip-rule="evenodd" d="M801.139 277.763L784.797 268.316V287.209L801.139 296.655V277.763Z" fill="white"/>
<path fill-rule="evenodd" clip-rule="evenodd" d="M801.139 372.225L784.797 362.779V381.672L801.139 391.118V372.225Z" fill="white"/>
<path fill-rule="evenodd" clip-rule="evenodd" d="M801.139 324.989L784.797 315.543V334.435L801.139 343.881V324.989Z" fill="white"/>
<path fill-rule="evenodd" clip-rule="evenodd" d="M801.139 419.454L784.797 410.008V428.9L801.139 438.346V419.454Z" fill="white"/>
<path fill-rule="evenodd" clip-rule="evenodd" d="M801.139 466.686L784.797 457.24V476.133L801.139 485.579V466.686Z" fill="white"/>
<path fill-rule="evenodd" clip-rule="evenodd" d="M784.8 457.239L653.876 532.809V551.701L784.8 476.132V457.239ZM784.8 410.009L653.876 485.578V504.47L784.8 428.901V410.009ZM784.8 362.778L653.876 438.347V457.239L784.8 381.67V362.778ZM784.8 315.547L653.876 391.116V410.009L784.8 334.439V315.547ZM784.8 268.316L653.876 343.886V362.778L784.8 287.209V268.316Z" fill="#00FF00"/>
<path fill-rule="evenodd" clip-rule="evenodd" d="M784.8 457.239L653.876 532.809V551.701L784.8 476.132V457.239ZM784.8 410.009L653.876 485.578V504.47L784.8 428.901V410.009ZM784.8 362.778L653.876 438.347V457.239L784.8 381.67V362.778ZM784.8 315.547L653.876 391.116V410.009L784.8 334.439V315.547ZM784.8 268.316L653.876 343.886V362.778L784.8 287.209V268.316Z" fill="url(#paint24_linear_5075_16985)"/>
<path fill-rule="evenodd" clip-rule="evenodd" d="M752.014 693.39L670.21 740.621V750.067L752.014 702.836V693.39ZM752.014 665.052L670.21 712.282V721.729L752.014 674.498V665.052ZM752.014 636.713L670.21 683.944V693.39L752.014 646.159V636.713ZM752.014 608.375L670.21 655.606V665.052L752.014 617.821V608.375ZM752.014 580.036L670.21 627.267V636.713L752.014 589.482V580.036ZM752.014 551.698L670.21 598.929V608.375L752.014 561.144V551.698ZM752.014 523.359L670.21 570.59V580.036L752.014 532.806V523.359Z" fill="#00FF00"/>
<path fill-rule="evenodd" clip-rule="evenodd" d="M752.014 693.39L670.21 740.621V750.067L752.014 702.836V693.39ZM752.014 665.052L670.21 712.282V721.729L752.014 674.498V665.052ZM752.014 636.713L670.21 683.944V693.39L752.014 646.159V636.713ZM752.014 608.375L670.21 655.606V665.052L752.014 617.821V608.375ZM752.014 580.036L670.21 627.267V636.713L752.014 589.482V580.036ZM752.014 551.698L670.21 598.929V608.375L752.014 561.144V551.698ZM752.014 523.359L670.21 570.59V580.036L752.014 532.806V523.359Z" fill="url(#paint25_linear_5075_16985)"/>
<path fill-rule="evenodd" clip-rule="evenodd" d="M522.95 41.6073C527.107 39.1513 532.963 37.7344 539.292 37.7344C545.715 37.7344 551.478 39.2458 555.634 41.6073L833.729 202.192C837.885 204.648 840.53 207.954 840.53 211.638C840.53 215.322 837.979 218.628 833.729 221.084L801.045 239.977L784.703 230.53L637.438 315.546L653.779 324.992L621.096 343.884C616.939 346.34 611.083 347.757 604.754 347.757C598.331 347.757 592.568 346.246 588.412 343.884L310.317 183.3C306.161 180.844 303.516 177.537 303.516 173.853C303.516 170.169 306.067 166.863 310.317 164.407L522.95 41.6073Z" fill="#FF0000"/>
<path fill-rule="evenodd" clip-rule="evenodd" d="M522.95 41.6073C527.107 39.1513 532.963 37.7344 539.292 37.7344C545.715 37.7344 551.478 39.2458 555.634 41.6073L833.729 202.192C837.885 204.648 840.53 207.954 840.53 211.638C840.53 215.322 837.979 218.628 833.729 221.084L801.045 239.977L784.703 230.53L637.438 315.546L653.779 324.992L621.096 343.884C616.939 346.34 611.083 347.757 604.754 347.757C598.331 347.757 592.568 346.246 588.412 343.884L310.317 183.3C306.161 180.844 303.516 177.537 303.516 173.853C303.516 170.169 306.067 166.863 310.317 164.407L522.95 41.6073Z" fill="url(#paint26_linear_5075_16985)"/>
<path fill-rule="evenodd" clip-rule="evenodd" d="M840.616 438.349C840.616 442.033 838.066 445.339 833.815 447.795L801.131 466.687V485.58L833.815 466.687C837.971 464.231 840.616 460.925 840.616 457.241V438.349ZM840.616 391.118C840.616 394.802 838.066 398.108 833.815 400.564L801.131 419.457V438.349L833.815 419.457C837.971 417.001 840.616 413.694 840.616 410.01V391.118ZM840.616 343.887C840.616 347.571 838.066 350.877 833.815 353.333L801.131 372.226V391.118L833.815 372.226C837.971 369.77 840.616 366.464 840.616 362.78V343.887ZM840.616 296.657C840.616 300.341 838.066 303.647 833.815 306.103L801.131 324.995V343.887L833.815 324.995C837.971 322.539 840.616 319.233 840.616 315.549V296.657ZM840.616 249.426C840.616 253.11 838.066 256.416 833.815 258.872L801.131 277.764V296.657L833.815 277.764C837.971 275.308 840.616 272.002 840.616 268.318V249.426Z" fill="#00FF00"/>
<path fill-rule="evenodd" clip-rule="evenodd" d="M840.616 438.349C840.616 442.033 838.066 445.339 833.815 447.795L801.131 466.687V485.58L833.815 466.687C837.971 464.231 840.616 460.925 840.616 457.241V438.349ZM840.616 391.118C840.616 394.802 838.066 398.108 833.815 400.564L801.131 419.457V438.349L833.815 419.457C837.971 417.001 840.616 413.694 840.616 410.01V391.118ZM840.616 343.887C840.616 347.571 838.066 350.877 833.815 353.333L801.131 372.226V391.118L833.815 372.226C837.971 369.77 840.616 366.464 840.616 362.78V343.887ZM840.616 296.657C840.616 300.341 838.066 303.647 833.815 306.103L801.131 324.995V343.887L833.815 324.995C837.971 322.539 840.616 319.233 840.616 315.549V296.657ZM840.616 249.426C840.616 253.11 838.066 256.416 833.815 258.872L801.131 277.764V296.657L833.815 277.764C837.971 275.308 840.616 272.002 840.616 268.318V249.426Z" fill="url(#paint27_linear_5075_16985)"/>
<path fill-rule="evenodd" clip-rule="evenodd" d="M653.875 551.702L621.191 570.595C617.035 573.051 611.179 574.468 604.85 574.468C598.426 574.468 592.664 572.956 588.508 570.595V589.487C592.664 591.943 598.521 593.36 604.85 593.36C611.273 593.36 617.035 591.849 621.191 589.487L653.875 570.595V551.702ZM653.875 504.472L621.191 523.364C617.035 525.82 611.179 527.237 604.85 527.237C598.426 527.237 592.664 525.725 588.508 523.364V542.256C592.664 544.712 598.521 546.129 604.85 546.129C611.273 546.129 617.035 544.618 621.191 542.256L653.875 523.364V504.472ZM653.875 457.241L621.191 476.133C617.035 478.589 611.179 480.006 604.85 480.006C598.426 480.006 592.664 478.495 588.508 476.133V495.025C592.664 497.481 598.521 498.898 604.85 498.898C611.273 498.898 617.035 497.387 621.191 495.025L653.875 476.133V457.241ZM653.875 410.01L621.191 428.902C617.035 431.358 611.179 432.775 604.85 432.775C598.426 432.775 592.664 431.264 588.508 428.902V447.795C592.664 450.251 598.521 451.668 604.85 451.668C611.273 451.668 617.035 450.156 621.191 447.795L653.875 428.902V410.01ZM653.875 362.779L621.191 381.672C617.035 384.128 611.179 385.545 604.85 385.545C598.426 385.545 592.664 384.033 588.508 381.672V400.564C592.664 403.02 598.521 404.437 604.85 404.437C611.273 404.437 617.035 402.925 621.191 400.564L653.875 381.672V362.779Z" fill="#00FF00"/>
<path fill-rule="evenodd" clip-rule="evenodd" d="M653.875 551.702L621.191 570.595C617.035 573.051 611.179 574.468 604.85 574.468C598.426 574.468 592.664 572.956 588.508 570.595V589.487C592.664 591.943 598.521 593.36 604.85 593.36C611.273 593.36 617.035 591.849 621.191 589.487L653.875 570.595V551.702ZM653.875 504.472L621.191 523.364C617.035 525.82 611.179 527.237 604.85 527.237C598.426 527.237 592.664 525.725 588.508 523.364V542.256C592.664 544.712 598.521 546.129 604.85 546.129C611.273 546.129 617.035 544.618 621.191 542.256L653.875 523.364V504.472ZM653.875 457.241L621.191 476.133C617.035 478.589 611.179 480.006 604.85 480.006C598.426 480.006 592.664 478.495 588.508 476.133V495.025C592.664 497.481 598.521 498.898 604.85 498.898C611.273 498.898 617.035 497.387 621.191 495.025L653.875 476.133V457.241ZM653.875 410.01L621.191 428.902C617.035 431.358 611.179 432.775 604.85 432.775C598.426 432.775 592.664 431.264 588.508 428.902V447.795C592.664 450.251 598.521 451.668 604.85 451.668C611.273 451.668 617.035 450.156 621.191 447.795L653.875 428.902V410.01ZM653.875 362.779L621.191 381.672C617.035 384.128 611.179 385.545 604.85 385.545C598.426 385.545 592.664 384.033 588.508 381.672V400.564C592.664 403.02 598.521 404.437 604.85 404.437C611.273 404.437 617.035 402.925 621.191 400.564L653.875 381.672V362.779Z" fill="url(#paint28_linear_5075_16985)"/>
<path fill-rule="evenodd" clip-rule="evenodd" d="M801.139 466.686L784.797 457.239V476.132L801.139 485.578V466.686ZM801.139 419.455L784.797 410.009V428.901L801.139 438.347V419.455ZM801.139 372.224L784.797 362.778V381.67L801.139 391.116V372.224ZM801.139 324.993L784.797 315.547V334.439L801.139 343.886V324.993ZM801.139 277.763L784.797 268.316V287.209L801.139 296.655V277.763Z" fill="#00FF00"/>
<path fill-rule="evenodd" clip-rule="evenodd" d="M801.139 466.686L784.797 457.239V476.132L801.139 485.578V466.686ZM801.139 419.455L784.797 410.009V428.901L801.139 438.347V419.455ZM801.139 372.224L784.797 362.778V381.67L801.139 391.116V372.224ZM801.139 324.993L784.797 315.547V334.439L801.139 343.886V324.993ZM801.139 277.763L784.797 268.316V287.209L801.139 296.655V277.763Z" fill="url(#paint29_linear_5075_16985)"/>
<path d="M516.038 551.438C538.4 563.78 556.528 593.794 556.528 618.477V889.094C556.528 913.776 538.4 923.781 516.038 911.439L303 793.864V433.863L516.038 551.438Z" fill="#020202" fill-opacity="0.4"/>
<path fill-rule="evenodd" clip-rule="evenodd" d="M110.893 464.418C110.893 439.736 129.021 429.73 151.383 442.072L432.793 597.38C455.155 609.722 473.283 639.736 473.283 664.419V935.036C473.283 959.719 455.155 969.724 432.793 957.382L151.383 802.074C129.021 789.732 110.893 759.718 110.893 735.035V464.418Z" fill="url(#paint30_linear_5075_16985)"/>
<path fill-rule="evenodd" clip-rule="evenodd" d="M461.263 960.179L459.184 961.328L459.177 961.151C459.894 960.867 460.59 960.542 461.263 960.179ZM461.604 959.991L523.896 925.579C531.779 921.774 536.704 912.897 536.704 900.032V629.416C536.704 604.733 518.576 574.72 496.214 562.378C426.488 523.896 284.533 445.552 214.805 407.069C202.233 400.131 191 400.255 183.575 406.079L183.509 405.829L124.366 438.565C131.531 435.427 141.002 436.339 151.387 442.07C221.114 480.552 363.069 558.896 432.797 597.378C455.158 609.72 473.286 639.733 473.286 664.416V935.033C473.286 947.276 468.826 955.907 461.604 959.991Z" fill="url(#paint31_linear_5075_16985)"/>
<path fill-rule="evenodd" clip-rule="evenodd" d="M156.194 523.243C156.194 504.731 169.789 497.227 186.561 506.484L397.618 622.965C414.389 632.221 427.985 654.732 427.985 673.244V876.206C427.985 894.718 414.389 902.222 397.618 892.966L186.561 776.484C169.789 767.228 156.194 744.717 156.194 726.205V523.243Z" fill="#666666"/>
<path fill-rule="evenodd" clip-rule="evenodd" d="M130.197 489.486C130.197 467.433 146.394 458.493 166.374 469.52L417.806 608.284C437.786 619.311 453.982 646.128 453.982 668.181V909.971C453.982 932.024 437.786 940.963 417.806 929.937L166.374 791.172C146.394 780.146 130.197 753.329 130.197 731.275V489.486Z" fill="url(#paint32_linear_5075_16985)"/>
<path fill-rule="evenodd" clip-rule="evenodd" d="M446.226 669.691C446.226 648.694 430.805 623.162 411.782 612.663L172.395 480.546C153.372 470.048 137.951 478.559 137.951 499.556V729.763C137.951 750.759 153.372 776.292 172.395 786.79L411.782 918.907C430.805 929.406 446.226 920.895 446.226 899.898V669.691Z" fill="#1A1A1A"/>
<path d="M209.529 559.578L160.019 556.617V546.114L199.227 549.011L160.019 508.822V498.309L209.529 549.706V559.578Z" fill="white"/>
<path d="M270.075 610.043L217.274 580.902V588.221L270.075 617.361V610.043Z" fill="white"/>
<path opacity="0.2" fill-rule="evenodd" clip-rule="evenodd" d="M539.547 38.1562C545.97 38.1562 551.732 39.6678 555.889 42.0293L833.983 202.614C838.14 205.07 840.784 208.377 840.784 212.061L840.783 212.064L840.871 212.059V797.72C840.871 801.404 838.32 804.71 834.069 807.166L801.394 826.053V826.06L801.388 826.056L801.386 826.058V826.055L785.054 816.614L654.129 892.196V911.077L621.445 929.969C617.289 932.425 611.432 933.842 605.104 933.842C598.68 933.842 592.917 932.33 588.761 929.969L536.704 899.919V900.031C536.704 912.896 531.779 921.773 523.896 925.578L461.737 959.915C461.556 960.019 461.373 960.119 461.188 960.218L459.185 961.327L459.177 961.151C452.09 963.966 442.872 962.943 432.793 957.381L151.383 802.072C129.021 789.731 110.893 759.717 110.893 735.034V464.417C110.893 452.218 115.321 443.605 122.5 439.502C123.318 439.034 124.324 438.507 125.479 437.947L183.51 405.828L183.575 406.078C191 400.254 202.233 400.13 214.806 407.068C238.165 419.96 269.631 437.326 303.771 456.168V174.275C303.772 170.592 306.322 167.285 310.572 164.829L523.205 42.0293C527.361 39.5733 533.218 38.1563 539.547 38.1562ZM473.283 935.035C473.283 940.426 472.418 945.117 470.833 949.028C472.419 945.117 473.286 940.425 473.286 935.031V935.018L473.283 935.035Z" fill="black"/>
<defs>
<linearGradient id="paint0_linear_5075_16985" x1="637.534" y1="565.868" x2="784.8" y2="565.868" gradientUnits="userSpaceOnUse">
<stop stop-color="#020202" stop-opacity="0.6"/>
<stop offset="1" stop-color="#020202" stop-opacity="0.5"/>
</linearGradient>
<linearGradient id="paint1_linear_5075_16985" x1="653.874" y1="587.979" x2="297.403" y2="587.602" gradientUnits="userSpaceOnUse">
<stop stop-color="#020202" stop-opacity="0"/>
<stop offset="1" stop-color="#020202" stop-opacity="0.2"/>
</linearGradient>
<linearGradient id="paint2_linear_5075_16985" x1="801.139" y1="559.131" x2="784.712" y2="559.112" gradientUnits="userSpaceOnUse">
<stop stop-color="#020202" stop-opacity="0.1"/>
<stop offset="1" stop-color="#020202" stop-opacity="0.2"/>
</linearGradient>
<linearGradient id="paint3_linear_5075_16985" x1="840.616" y1="550.668" x2="800.925" y2="550.561" gradientUnits="userSpaceOnUse">
<stop stop-color="#020202" stop-opacity="0.2"/>
<stop offset="1" stop-color="#020202" stop-opacity="0"/>
</linearGradient>
<linearGradient id="paint4_linear_5075_16985" x1="318.44" y1="596.567" x2="326.659" y2="596.567" gradientUnits="userSpaceOnUse">
<stop stop-opacity="0.9"/>
<stop offset="1" stop-opacity="0.9"/>
</linearGradient>
<linearGradient id="paint5_linear_5075_16985" x1="334.79" y1="606.012" x2="343.008" y2="606.012" gradientUnits="userSpaceOnUse">
<stop stop-opacity="0.9"/>
<stop offset="1" stop-opacity="0.9"/>
</linearGradient>
<linearGradient id="paint6_linear_5075_16985" x1="351.224" y1="615.46" x2="359.348" y2="615.46" gradientUnits="userSpaceOnUse">
<stop stop-opacity="0.9"/>
<stop offset="1" stop-opacity="0.9"/>
</linearGradient>
<linearGradient id="paint7_linear_5075_16985" x1="367.566" y1="624.905" x2="375.69" y2="624.905" gradientUnits="userSpaceOnUse">
<stop stop-opacity="0.9"/>
<stop offset="1" stop-opacity="0.9"/>
</linearGradient>
<linearGradient id="paint8_linear_5075_16985" x1="383.901" y1="634.35" x2="392.119" y2="634.35" gradientUnits="userSpaceOnUse">
<stop stop-opacity="0.9"/>
<stop offset="1" stop-opacity="0.9"/>
</linearGradient>
<linearGradient id="paint9_linear_5075_16985" x1="318.44" y1="700.475" x2="326.659" y2="700.475" gradientUnits="userSpaceOnUse">
<stop stop-opacity="0.9"/>
<stop offset="1" stop-opacity="0.9"/>
</linearGradient>
<linearGradient id="paint10_linear_5075_16985" x1="334.79" y1="709.921" x2="343.008" y2="709.921" gradientUnits="userSpaceOnUse">
<stop stop-opacity="0.9"/>
<stop offset="1" stop-opacity="0.9"/>
</linearGradient>
<linearGradient id="paint11_linear_5075_16985" x1="351.224" y1="719.366" x2="359.348" y2="719.366" gradientUnits="userSpaceOnUse">
<stop stop-opacity="0.9"/>
<stop offset="1" stop-opacity="0.9"/>
</linearGradient>
<linearGradient id="paint12_linear_5075_16985" x1="367.566" y1="728.813" x2="375.69" y2="728.813" gradientUnits="userSpaceOnUse">
<stop stop-opacity="0.9"/>
<stop offset="1" stop-opacity="0.9"/>
</linearGradient>
<linearGradient id="paint13_linear_5075_16985" x1="383.901" y1="738.259" x2="392.119" y2="738.259" gradientUnits="userSpaceOnUse">
<stop stop-opacity="0.9"/>
<stop offset="1" stop-opacity="0.9"/>
</linearGradient>
<linearGradient id="paint14_linear_5075_16985" x1="457.586" y1="676.86" x2="465.71" y2="676.86" gradientUnits="userSpaceOnUse">
<stop stop-opacity="0.9"/>
<stop offset="1" stop-opacity="0.9"/>
</linearGradient>
<linearGradient id="paint15_linear_5075_16985" x1="473.928" y1="686.305" x2="482.051" y2="686.305" gradientUnits="userSpaceOnUse">
<stop stop-opacity="0.9"/>
<stop offset="1" stop-opacity="0.9"/>
</linearGradient>
<linearGradient id="paint16_linear_5075_16985" x1="490.27" y1="695.751" x2="498.488" y2="695.751" gradientUnits="userSpaceOnUse">
<stop stop-opacity="0.9"/>
<stop offset="1" stop-opacity="0.9"/>
</linearGradient>
<linearGradient id="paint17_linear_5075_16985" x1="506.612" y1="705.198" x2="514.83" y2="705.198" gradientUnits="userSpaceOnUse">
<stop stop-opacity="0.9"/>
<stop offset="1" stop-opacity="0.9"/>
</linearGradient>
<linearGradient id="paint18_linear_5075_16985" x1="522.954" y1="714.643" x2="531.172" y2="714.643" gradientUnits="userSpaceOnUse">
<stop stop-opacity="0.9"/>
<stop offset="1" stop-opacity="0.9"/>
</linearGradient>
<linearGradient id="paint19_linear_5075_16985" x1="457.586" y1="780.77" x2="465.71" y2="780.77" gradientUnits="userSpaceOnUse">
<stop stop-opacity="0.9"/>
<stop offset="1" stop-opacity="0.9"/>
</linearGradient>
<linearGradient id="paint20_linear_5075_16985" x1="473.928" y1="790.214" x2="482.051" y2="790.214" gradientUnits="userSpaceOnUse">
<stop stop-opacity="0.9"/>
<stop offset="1" stop-opacity="0.9"/>
</linearGradient>
<linearGradient id="paint21_linear_5075_16985" x1="490.27" y1="799.659" x2="498.488" y2="799.659" gradientUnits="userSpaceOnUse">
<stop stop-opacity="0.9"/>
<stop offset="1" stop-opacity="0.9"/>
</linearGradient>
<linearGradient id="paint22_linear_5075_16985" x1="506.612" y1="809.104" x2="514.83" y2="809.104" gradientUnits="userSpaceOnUse">
<stop stop-opacity="0.9"/>
<stop offset="1" stop-opacity="0.9"/>
</linearGradient>
<linearGradient id="paint23_linear_5075_16985" x1="522.954" y1="818.55" x2="531.172" y2="818.55" gradientUnits="userSpaceOnUse">
<stop stop-opacity="0.9"/>
<stop offset="1" stop-opacity="0.9"/>
</linearGradient>
<linearGradient id="paint24_linear_5075_16985" x1="784.8" y1="381.053" x2="652.184" y2="385.227" gradientUnits="userSpaceOnUse">
<stop stop-color="#FEFEFE" stop-opacity="0.3"/>
<stop offset="1" stop-color="#FEFEFE" stop-opacity="0"/>
</linearGradient>
<linearGradient id="paint25_linear_5075_16985" x1="752.014" y1="613.548" x2="669.121" y2="615.586" gradientUnits="userSpaceOnUse">
<stop stop-color="#FEFEFE" stop-opacity="0.1"/>
<stop offset="1" stop-color="#FEFEFE" stop-opacity="0.3"/>
</linearGradient>
<linearGradient id="paint26_linear_5075_16985" x1="840.53" y1="208.427" x2="380.883" y2="221.579" gradientUnits="userSpaceOnUse">
<stop stop-color="#020202" stop-opacity="0.2"/>
<stop offset="1" stop-color="#020202" stop-opacity="0"/>
</linearGradient>
<linearGradient id="paint27_linear_5075_16985" x1="840.616" y1="343.373" x2="800.586" y2="343.829" gradientUnits="userSpaceOnUse">
<stop stop-color="#FEFEFE" stop-opacity="0.1"/>
<stop offset="0.595" stop-color="#FEFEFE" stop-opacity="0.3"/>
</linearGradient>
<linearGradient id="paint28_linear_5075_16985" x1="653.875" y1="454.51" x2="587.623" y2="455.789" gradientUnits="userSpaceOnUse">
<stop stop-color="#FEFEFE" stop-opacity="0.1"/>
<stop offset="1" stop-color="#FEFEFE" stop-opacity="0.3"/>
</linearGradient>
<linearGradient id="paint29_linear_5075_16985" x1="801.139" y1="354.748" x2="784.57" y2="354.832" gradientUnits="userSpaceOnUse">
<stop stop-color="#FEFEFE" stop-opacity="0.1"/>
<stop offset="1" stop-color="#FEFEFE" stop-opacity="0"/>
</linearGradient>
<linearGradient id="paint30_linear_5075_16985" x1="311.486" y1="530.432" x2="190.003" y2="822.083" gradientUnits="userSpaceOnUse">
<stop stop-color="#9C9C9C"/>
<stop offset="1" stop-color="#676767"/>
</linearGradient>
<linearGradient id="paint31_linear_5075_16985" x1="168.898" y1="413.916" x2="479.332" y2="950.752" gradientUnits="userSpaceOnUse">
<stop stop-color="#CACACA"/>
<stop offset="0.5" stop-color="#F2F2F2"/>
<stop offset="1" stop-color="#C9C9C9"/>
</linearGradient>
<linearGradient id="paint32_linear_5075_16985" x1="140.332" y1="764.586" x2="438.548" y2="623.881" gradientUnits="userSpaceOnUse">
<stop stop-color="#404040"/>
<stop offset="0.5" stop-color="#414141"/>
<stop offset="1" stop-color="#1A1A1A"/>
</linearGradient>
</defs>
</svg>
