<svg width="1000" height="1000" viewBox="0 0 1000 1000" fill="none" xmlns="http://www.w3.org/2000/svg">
<path fill-rule="evenodd" clip-rule="evenodd" d="M539.547 0C551.148 1.80552e-05 563.205 2.57397 573.726 8.29102L574.738 8.85449L853.063 169.572L853.395 169.765C861.822 174.745 876.365 186.55 878.638 206.635C878.894 208.421 879.027 210.233 879.027 212.06V797.721L879.016 798.797C878.532 821.257 862.977 834.533 853.158 840.206L853.157 840.205L821.109 858.73C820.55 859.068 819.979 859.392 819.398 859.703C813.72 862.742 807.487 864.236 801.273 864.216C801.246 864.216 801.219 864.216 801.191 864.216C800.992 864.215 800.792 864.212 800.593 864.208C800.559 864.207 800.524 864.207 800.49 864.206C800.302 864.202 800.113 864.196 799.925 864.188C799.876 864.187 799.828 864.185 799.779 864.183C799.615 864.176 799.451 864.167 799.287 864.158C799.21 864.154 799.132 864.15 799.055 864.146C798.934 864.138 798.813 864.129 798.692 864.12C798.57 864.111 798.447 864.103 798.325 864.093C798.267 864.088 798.209 864.083 798.151 864.078C797.986 864.064 797.82 864.049 797.654 864.033C797.642 864.032 797.628 864.031 797.615 864.029C796.407 863.909 795.2 863.731 793.999 863.494C793.918 863.478 793.837 863.462 793.756 863.445C793.637 863.421 793.518 863.395 793.398 863.369C793.296 863.347 793.193 863.326 793.091 863.303C792.979 863.278 792.867 863.252 792.756 863.227C792.648 863.202 792.541 863.175 792.434 863.149C792.318 863.122 792.202 863.094 792.087 863.065C792 863.044 791.914 863.021 791.827 862.999C791.687 862.963 791.547 862.926 791.407 862.888C791.354 862.873 791.301 862.858 791.248 862.844C791.093 862.801 790.938 862.759 790.783 862.714C790.357 862.591 789.932 862.459 789.51 862.32C789.425 862.292 789.34 862.263 789.255 862.234C789.13 862.193 789.005 862.151 788.881 862.107C788.784 862.074 788.687 862.039 788.591 862.005C788.466 861.96 788.341 861.916 788.217 861.87C788.143 861.843 788.068 861.815 787.994 861.787C787.841 861.73 787.688 861.671 787.535 861.611C787.458 861.581 787.381 861.552 787.305 861.521C787.185 861.474 787.064 861.425 786.944 861.376C786.891 861.354 786.837 861.334 786.784 861.312C786.732 861.29 786.679 861.266 786.627 861.244C786.549 861.211 786.471 861.178 786.393 861.145C786.249 861.083 786.106 861.022 785.964 860.959C785.929 860.944 785.894 860.928 785.859 860.912C785.632 860.811 785.405 860.707 785.18 860.602L692.148 914.308C691.1 926.67 684.081 937.837 673.224 944.113L640.54 963.005L640.538 963.003C629.535 969.412 617.128 971.846 606.17 971.993L605.104 972C593.129 972 580.668 969.257 569.911 963.146C569.836 963.103 569.761 963.059 569.686 963.016L469.441 905.15C469.324 905.226 469.216 905.297 469.118 905.36C469.111 905.365 469.099 905.372 469.084 905.382C469.041 905.41 468.933 905.481 468.811 905.56L468.808 905.562C468.063 906.04 467.317 906.514 466.571 906.986L466.572 906.987C466.417 907.085 466.089 907.291 466.072 907.302L466.071 907.301C466.066 907.304 466.056 907.312 466.039 907.323C466.006 907.344 465.929 907.392 465.844 907.446L465.841 907.448C465.462 907.687 465.087 907.92 464.783 908.11L464.782 908.109L464.136 908.514C463.909 908.654 463.683 908.794 463.459 908.933L463.46 908.934C463.449 908.94 463.379 908.984 463.339 909.009L463.338 909.008C463.247 909.064 463.122 909.143 462.999 909.219L462.996 909.221C462.258 909.676 461.525 910.125 460.804 910.565L460.803 910.566C460.789 910.575 460.771 910.585 460.693 910.633C460.631 910.671 460.516 910.742 460.39 910.819C459.388 911.429 458.358 912.053 457.3 912.688L457.289 912.695C456.096 913.412 454.873 914.127 453.646 914.835L453.646 914.836C453.316 915.026 452.96 915.231 452.588 915.443C452.442 915.526 452.297 915.609 452.151 915.691L452.147 915.693C451.483 916.071 450.813 916.448 450.141 916.822L450.14 916.821C449.229 917.328 448.255 917.867 447.239 918.417L447.237 918.418C446.805 918.652 446.234 918.955 446.076 919.039L446.077 919.04L443.644 920.329C442.576 920.886 441.545 921.413 440.593 921.894L440.592 921.893C438.864 922.765 437.111 923.626 435.36 924.453C435.277 924.493 435.232 924.514 435.035 924.607C434.879 924.682 434.635 924.797 434.361 924.925L434.359 924.927C434.282 924.963 434.203 924.997 434.126 925.033V931.741L434.116 932.709C433.913 942.908 430.427 958.985 415.463 969.712C415.438 969.73 415.413 969.748 415.388 969.766C413.747 970.935 411.96 972.035 410.028 973.024L391.875 983.189C375.539 992.406 358.839 988.539 348.528 982.783L296.172 953.555L292.724 953.386C291.834 953.358 290.968 953.329 290.138 953.296H290.136C288.359 953.226 286.541 953.141 284.724 953.033H284.721C283.918 952.985 283.137 952.932 282.384 952.879C282.029 952.86 281.674 952.838 281.319 952.81C281.149 952.796 280.995 952.781 280.897 952.772C280.84 952.768 280.765 952.763 280.68 952.757C280.67 952.756 280.66 952.756 280.65 952.755C278.539 952.587 276.331 952.385 274.074 952.152L271.802 951.91C271.026 951.825 270.255 951.736 269.494 951.646C264.88 951.104 260.022 950.431 255.287 949.646L252.908 949.239C250.145 948.753 247.406 948.218 244.768 947.64C244.743 947.634 244.128 947.501 243.636 947.39C241.915 947.025 240.184 946.628 238.593 946.253C237.324 945.954 236.033 945.646 234.753 945.334C234.608 945.299 234.477 945.268 234.376 945.243C234.209 945.203 234.118 945.18 234.027 945.158C232.533 944.801 230.97 944.42 229.372 944.02L228.093 943.713C227.43 943.556 226.771 943.379 226.117 943.187C225.061 942.91 224.018 942.632 222.993 942.353C220.916 941.786 218.831 941.188 216.775 940.563C216.176 940.381 215.534 940.183 214.87 939.974C213.18 939.439 211.415 938.853 209.633 938.214C208.693 937.897 207.783 937.581 206.967 937.293C203.139 935.941 197.067 933.642 194.791 932.813C194.098 932.561 193.412 932.288 192.735 931.996L178.786 925.976C178.712 925.944 178.639 925.91 178.568 925.879C174.971 924.318 171.132 922.446 167.745 920.688L167.74 920.686C167.719 920.674 167.7 920.664 167.69 920.659C167.685 920.656 167.68 920.654 167.68 920.654C167.624 920.625 167.576 920.6 167.541 920.582L167.464 920.541C166.884 920.239 166.328 919.944 165.805 919.665C165.533 919.52 165.277 919.383 165.05 919.261L165.04 919.256C164.683 919.063 164.337 918.875 164.007 918.694C163.769 918.564 163.465 918.399 163.146 918.222L163.146 918.221C162.694 917.971 162.236 917.714 161.776 917.453L161.765 917.446C161.745 917.435 161.723 917.424 161.701 917.411C161.627 917.37 161.525 917.311 161.405 917.243C159.263 916.02 156.941 914.677 154.533 913.26L147.949 909.441C147.619 909.25 147.292 909.054 146.968 908.853C144.69 907.438 142.331 905.876 140.292 904.51C137.493 902.702 134.612 900.779 131.879 898.826C127.711 895.85 123.108 892.379 118.582 888.779L118.502 888.719C118.167 888.465 117.835 888.206 117.509 887.941C117.036 887.559 116.532 887.14 116.286 886.937L116.257 886.913L114.054 885.111C111.849 883.292 109.647 881.421 107.522 879.543C105.853 878.068 104.19 876.552 102.582 875.024L100.841 873.356C100.265 872.8 99.6904 872.241 99.1211 871.686L97.7051 870.298C96.366 868.979 94.9913 867.606 93.6006 866.195L90.3193 862.966C89.9702 862.622 89.6276 862.271 89.292 861.914C89.028 861.633 88.7617 861.349 88.5205 861.092C86.9443 859.415 85.4413 857.784 84.0049 856.193C82.5623 854.595 81.1961 853.048 79.8945 851.542L78.6064 850.04C78.2178 849.583 77.8379 849.133 77.4668 848.691C76.9208 848.045 76.3388 847.349 75.748 846.629C75.7592 846.643 75.7693 846.656 75.7773 846.666C75.759 846.644 75.7206 846.598 75.6768 846.545C75.6339 846.493 75.5767 846.423 75.5107 846.343L74.3281 844.887C74.3058 844.859 74.283 844.83 74.2607 844.803L73.2207 843.506C73.1932 843.472 73.1651 843.437 73.1377 843.402C71.5338 841.388 69.8934 839.273 68.2529 837.104C67.4255 836.01 66.6047 834.909 65.7959 833.812C65.7685 833.775 65.743 833.741 65.7217 833.712C65.6664 833.637 65.6178 833.571 65.6006 833.548L65.709 833.693C65.4398 833.333 65.1562 832.946 64.8604 832.544L64.5615 832.141C64.5233 832.089 64.4802 832.031 64.4258 831.958C64.3597 831.869 64.2724 831.752 64.1826 831.631C64.1739 831.619 64.164 831.607 64.1553 831.595C64.0789 831.492 64.0093 831.396 63.9473 831.311C63.8852 831.225 63.8276 831.146 63.7773 831.076C63.7271 831.006 63.6808 830.941 63.6406 830.885C63.6004 830.828 63.5636 830.776 63.5322 830.731C63.5076 830.697 63.4847 830.664 63.4648 830.636C63.4554 830.623 63.4452 830.609 63.4355 830.596C63.3821 830.521 63.3302 830.445 63.2773 830.37C63.2173 830.285 63.1447 830.182 63.0635 830.064C63.03 830.016 62.9951 829.968 62.9619 829.92C61.314 827.592 59.8329 825.488 58.4531 823.45L57.6465 822.249C57.0143 821.301 56.3881 820.34 55.7529 819.342L40.3779 810.759C29.6502 804.77 22.7958 795.743 18.8086 788.378C14.8085 780.989 11.6617 771.554 11.4688 761.148L11.459 760.139V662.77L11.4727 661.565C11.4752 661.457 11.4813 661.349 11.4844 661.244C11.5024 659.889 11.5285 658.523 11.5723 657.162C11.5777 656.993 11.583 656.845 11.585 656.793L11.5859 656.777C11.6079 656.123 11.6335 655.466 11.6611 654.811V654.809C12.2806 640.14 14.5136 619.95 20.8164 596.54C22.2384 591.082 23.5236 586.634 25.4023 581.231C25.828 579.94 26.2913 578.55 26.793 577.104C26.9167 576.748 27.0305 576.427 27.1045 576.22C27.1494 576.094 27.1798 576.01 27.2031 575.944C27.3324 575.567 27.4645 575.192 27.6045 574.821C27.9727 573.789 28.3569 572.731 28.7559 571.656C42.1833 532.53 65.9889 495.079 100.655 463.487C100.754 463.395 100.831 463.324 100.871 463.286C100.88 463.277 100.888 463.269 100.896 463.263C100.899 463.259 100.903 463.256 100.907 463.252C101.037 463.122 101.172 462.987 101.298 462.86L101.839 462.328C102.307 461.877 102.788 461.439 103.278 461.013C108.544 456.083 114.564 450.784 120.654 446.268C122.57 444.847 130.166 438.898 135.266 435.527C139.784 432.54 145.442 428.884 151.062 425.461L152.558 424.511L153.392 423.995C153.672 423.827 153.955 423.662 154.239 423.501C154.818 423.173 155.389 422.856 155.923 422.561C155.937 422.552 155.952 422.544 155.966 422.535C156.512 422.194 157.071 421.865 157.64 421.549C157.981 421.359 158.32 421.174 158.596 421.023C159.348 420.596 160.187 420.123 161.055 419.648L161.059 419.646C168.006 415.845 174.528 412.641 180.409 409.957C180.771 409.785 181.137 409.62 181.505 409.459C189.081 406.038 195.545 403.502 200.393 401.701C200.789 401.544 201.187 401.391 201.588 401.247C201.842 401.156 202.073 401.076 202.228 401.021C202.397 400.962 202.459 400.94 202.536 400.913C203.994 400.383 205.247 399.936 206.207 399.596C218.491 395.238 231.502 391.686 244.541 389.008C244.549 389.006 244.559 389.004 244.573 389.001C244.62 388.991 244.738 388.967 244.871 388.939H244.874C245.545 388.802 246.201 388.671 246.83 388.547C246.976 388.518 247.11 388.491 247.201 388.474C247.31 388.452 247.356 388.444 247.409 388.434L247.412 388.433C248.008 388.316 248.671 388.188 249.36 388.058C249.49 388.033 249.604 388.012 249.641 388.005H249.646C252.5 387.469 255.36 386.973 258.22 386.52C258.279 386.51 258.333 386.502 258.491 386.477C258.624 386.455 258.836 386.421 259.069 386.385L259.072 386.384C259.56 386.308 260.068 386.232 260.379 386.185C260.673 386.14 261.121 386.072 261.561 386.008L261.563 386.007C262.126 385.924 262.686 385.846 263.083 385.79C263.415 385.743 263.741 385.696 264.058 385.652H264.061C264.475 385.595 264.981 385.525 265.504 385.455C265.541 385.45 265.578 385.445 265.614 385.44V174.273L265.626 173.198C266.11 150.74 281.663 137.464 291.483 131.79L291.49 131.787L504.123 8.98828V8.99023C515.481 2.37763 528.335 1.0032e-05 539.547 0ZM283.329 952.925H283.341C283.337 952.925 283.33 952.924 283.323 952.924C283.314 952.924 283.301 952.922 283.286 952.922C283.304 952.923 283.319 952.924 283.329 952.925ZM175.454 924.34C175.491 924.36 175.535 924.384 175.583 924.41C175.366 924.291 175.163 924.178 175.082 924.132C175.105 924.145 175.259 924.232 175.454 924.34ZM63.8936 831.219C63.8837 831.205 63.8732 831.191 63.8633 831.177C63.8554 831.166 63.8468 831.155 63.8389 831.145C63.8578 831.17 63.8761 831.195 63.8936 831.219ZM63.5908 830.808C63.5894 830.806 63.5882 830.803 63.5869 830.801C63.5757 830.785 63.563 830.769 63.5518 830.754C63.5646 830.772 63.5782 830.79 63.5908 830.808Z" fill="black"/>
<path fill-rule="evenodd" clip-rule="evenodd" d="M572.066 768.961L555.724 778.407L572.066 787.853L588.408 778.407L572.066 768.961Z" fill="white"/>
<path fill-rule="evenodd" clip-rule="evenodd" d="M784.8 230.529L637.534 315.545V901.206L784.8 816.191V230.529Z" fill="#FF0000"/>
<path fill-rule="evenodd" clip-rule="evenodd" d="M784.8 230.529L637.534 315.545V901.206L784.8 816.191V230.529Z" fill="url(#paint0_linear_5075_18693)"/>
<path fill-rule="evenodd" clip-rule="evenodd" d="M303.516 173.854L334.877 175.271L596.63 329.716L653.874 324.993V910.654L621.19 929.547C617.034 932.003 611.177 933.42 604.848 933.42C598.425 933.42 592.663 931.908 588.507 929.547L310.317 768.962C306.161 766.506 303.516 763.2 303.516 759.516V173.854Z" fill="#FF0000"/>
<path fill-rule="evenodd" clip-rule="evenodd" d="M303.516 173.854L334.877 175.271L596.63 329.716L653.874 324.993V910.654L621.19 929.547C617.034 932.003 611.177 933.42 604.848 933.42C598.425 933.42 592.663 931.908 588.507 929.547L310.317 768.962C306.161 766.506 303.516 763.2 303.516 759.516V173.854Z" fill="url(#paint1_linear_5075_18693)"/>
<path fill-rule="evenodd" clip-rule="evenodd" d="M801.139 239.975L784.797 230.529V816.191L801.139 825.637V239.975Z" fill="#FF0000"/>
<path fill-rule="evenodd" clip-rule="evenodd" d="M801.139 239.975L784.797 230.529V816.191L801.139 825.637V239.975Z" fill="url(#paint2_linear_5075_18693)"/>
<path fill-rule="evenodd" clip-rule="evenodd" d="M840.616 797.295C840.616 800.979 838.066 804.285 833.815 806.741L801.131 825.634V214.657L840.616 211.634V797.295Z" fill="#FF0000"/>
<path fill-rule="evenodd" clip-rule="evenodd" d="M840.616 797.295C840.616 800.979 838.066 804.285 833.815 806.741L801.131 825.634V214.657L840.616 211.634V797.295Z" fill="url(#paint3_linear_5075_18693)"/>
<path fill-rule="evenodd" clip-rule="evenodd" d="M326.659 570.589L318.44 565.866V622.543L326.659 627.266V570.589Z" fill="#0000FF"/>
<path fill-rule="evenodd" clip-rule="evenodd" d="M343.008 580.034L334.79 575.311V631.987L343.008 636.711V580.034Z" fill="#0000FF"/>
<path fill-rule="evenodd" clip-rule="evenodd" d="M359.348 589.483L351.224 584.76V641.437L359.348 646.16V589.483Z" fill="#0000FF"/>
<path fill-rule="evenodd" clip-rule="evenodd" d="M375.69 598.928L367.566 594.205V650.882L375.69 655.605V598.928Z" fill="#0000FF"/>
<path fill-rule="evenodd" clip-rule="evenodd" d="M392.119 608.372L383.901 603.649V660.326L392.119 665.049V608.372Z" fill="#0000FF"/>
<path fill-rule="evenodd" clip-rule="evenodd" d="M326.659 674.497L318.44 669.773V726.45L326.659 731.173V674.497Z" fill="#0000FF"/>
<path fill-rule="evenodd" clip-rule="evenodd" d="M343.008 683.942L334.79 679.219V735.896L343.008 740.619V683.942Z" fill="#0000FF"/>
<path fill-rule="evenodd" clip-rule="evenodd" d="M359.348 693.388L351.224 688.665V745.342L359.348 750.065V693.388Z" fill="#0000FF"/>
<path fill-rule="evenodd" clip-rule="evenodd" d="M375.69 702.835L367.566 698.112V754.789L375.69 759.512V702.835Z" fill="#0000FF"/>
<path fill-rule="evenodd" clip-rule="evenodd" d="M392.119 712.281L383.901 707.558V764.235L392.119 768.958V712.281Z" fill="#0000FF"/>
<path fill-rule="evenodd" clip-rule="evenodd" d="M465.71 650.882L457.586 646.159V702.836L465.71 707.559V650.882Z" fill="#0000FF"/>
<path fill-rule="evenodd" clip-rule="evenodd" d="M482.051 660.328L473.928 655.604V712.281L482.051 717.004V660.328Z" fill="#0000FF"/>
<path fill-rule="evenodd" clip-rule="evenodd" d="M498.488 669.773L490.27 665.05V721.727L498.488 726.45V669.773Z" fill="#0000FF"/>
<path fill-rule="evenodd" clip-rule="evenodd" d="M514.83 679.219L506.612 674.496V731.173L514.83 735.896V679.219Z" fill="#0000FF"/>
<path fill-rule="evenodd" clip-rule="evenodd" d="M531.172 688.666L522.954 683.943V740.62L531.172 745.343V688.666Z" fill="#0000FF"/>
<path fill-rule="evenodd" clip-rule="evenodd" d="M465.71 754.792L457.586 750.069V806.746L465.71 811.469V754.792Z" fill="#0000FF"/>
<path fill-rule="evenodd" clip-rule="evenodd" d="M482.051 764.236L473.928 759.513V816.19L482.051 820.913V764.236Z" fill="#0000FF"/>
<path fill-rule="evenodd" clip-rule="evenodd" d="M498.488 773.68L490.27 768.957V825.634L498.488 830.357V773.68Z" fill="#0000FF"/>
<path fill-rule="evenodd" clip-rule="evenodd" d="M514.83 783.127L506.612 778.404V835.081L514.83 839.804V783.127Z" fill="#0000FF"/>
<path fill-rule="evenodd" clip-rule="evenodd" d="M531.172 792.573L522.954 787.85V844.527L531.172 849.25V792.573Z" fill="#0000FF"/>
<path fill-rule="evenodd" clip-rule="evenodd" d="M326.659 570.589L318.44 565.866V622.543L326.659 627.266V570.589Z" fill="url(#paint4_linear_5075_18693)"/>
<path fill-rule="evenodd" clip-rule="evenodd" d="M343.008 580.034L334.79 575.311V631.987L343.008 636.711V580.034Z" fill="url(#paint5_linear_5075_18693)"/>
<path fill-rule="evenodd" clip-rule="evenodd" d="M359.348 589.483L351.224 584.76V641.437L359.348 646.16V589.483Z" fill="url(#paint6_linear_5075_18693)"/>
<path fill-rule="evenodd" clip-rule="evenodd" d="M375.69 598.928L367.566 594.205V650.882L375.69 655.605V598.928Z" fill="url(#paint7_linear_5075_18693)"/>
<path fill-rule="evenodd" clip-rule="evenodd" d="M392.119 608.372L383.901 603.649V660.326L392.119 665.049V608.372Z" fill="url(#paint8_linear_5075_18693)"/>
<path fill-rule="evenodd" clip-rule="evenodd" d="M326.659 674.497L318.44 669.773V726.45L326.659 731.173V674.497Z" fill="url(#paint9_linear_5075_18693)"/>
<path fill-rule="evenodd" clip-rule="evenodd" d="M343.008 683.942L334.79 679.219V735.896L343.008 740.619V683.942Z" fill="url(#paint10_linear_5075_18693)"/>
<path fill-rule="evenodd" clip-rule="evenodd" d="M359.348 693.388L351.224 688.665V745.342L359.348 750.065V693.388Z" fill="url(#paint11_linear_5075_18693)"/>
<path fill-rule="evenodd" clip-rule="evenodd" d="M375.69 702.835L367.566 698.112V754.789L375.69 759.512V702.835Z" fill="url(#paint12_linear_5075_18693)"/>
<path fill-rule="evenodd" clip-rule="evenodd" d="M392.119 712.281L383.901 707.558V764.235L392.119 768.958V712.281Z" fill="url(#paint13_linear_5075_18693)"/>
<path fill-rule="evenodd" clip-rule="evenodd" d="M465.71 650.882L457.586 646.159V702.836L465.71 707.559V650.882Z" fill="url(#paint14_linear_5075_18693)"/>
<path fill-rule="evenodd" clip-rule="evenodd" d="M482.051 660.328L473.928 655.604V712.281L482.051 717.004V660.328Z" fill="url(#paint15_linear_5075_18693)"/>
<path fill-rule="evenodd" clip-rule="evenodd" d="M498.488 669.773L490.27 665.05V721.727L498.488 726.45V669.773Z" fill="url(#paint16_linear_5075_18693)"/>
<path fill-rule="evenodd" clip-rule="evenodd" d="M514.83 679.219L506.612 674.496V731.173L514.83 735.896V679.219Z" fill="url(#paint17_linear_5075_18693)"/>
<path fill-rule="evenodd" clip-rule="evenodd" d="M531.172 688.666L522.954 683.943V740.62L531.172 745.343V688.666Z" fill="url(#paint18_linear_5075_18693)"/>
<path fill-rule="evenodd" clip-rule="evenodd" d="M465.71 754.792L457.586 750.069V806.746L465.71 811.469V754.792Z" fill="url(#paint19_linear_5075_18693)"/>
<path fill-rule="evenodd" clip-rule="evenodd" d="M482.051 764.236L473.928 759.513V816.19L482.051 820.913V764.236Z" fill="url(#paint20_linear_5075_18693)"/>
<path fill-rule="evenodd" clip-rule="evenodd" d="M498.488 773.68L490.27 768.957V825.634L498.488 830.357V773.68Z" fill="url(#paint21_linear_5075_18693)"/>
<path fill-rule="evenodd" clip-rule="evenodd" d="M514.83 783.127L506.612 778.404V835.081L514.83 839.804V783.127Z" fill="url(#paint22_linear_5075_18693)"/>
<path fill-rule="evenodd" clip-rule="evenodd" d="M531.172 792.573L522.954 787.85V844.527L531.172 849.25V792.573Z" fill="url(#paint23_linear_5075_18693)"/>
<path fill-rule="evenodd" clip-rule="evenodd" d="M801.139 277.762L784.797 268.315V287.208L801.139 296.654V277.762Z" fill="white"/>
<path fill-rule="evenodd" clip-rule="evenodd" d="M801.139 372.224L784.797 362.778V381.671L801.139 391.117V372.224Z" fill="white"/>
<path fill-rule="evenodd" clip-rule="evenodd" d="M801.139 324.988L784.797 315.542V334.434L801.139 343.88V324.988Z" fill="white"/>
<path fill-rule="evenodd" clip-rule="evenodd" d="M801.139 419.453L784.797 410.007V428.899L801.139 438.345V419.453Z" fill="white"/>
<path fill-rule="evenodd" clip-rule="evenodd" d="M801.139 466.685L784.797 457.239V476.132L801.139 485.578V466.685Z" fill="white"/>
<path fill-rule="evenodd" clip-rule="evenodd" d="M784.8 457.238L653.876 532.808V551.7L784.8 476.131V457.238ZM784.8 410.008L653.876 485.577V504.469L784.8 428.9V410.008ZM784.8 362.777L653.876 438.346V457.238L784.8 381.669V362.777ZM784.8 315.546L653.876 391.115V410.008L784.8 334.438V315.546ZM784.8 268.315L653.876 343.885V362.777L784.8 287.208V268.315Z" fill="#00FF00"/>
<path fill-rule="evenodd" clip-rule="evenodd" d="M784.8 457.238L653.876 532.808V551.7L784.8 476.131V457.238ZM784.8 410.008L653.876 485.577V504.469L784.8 428.9V410.008ZM784.8 362.777L653.876 438.346V457.238L784.8 381.669V362.777ZM784.8 315.546L653.876 391.115V410.008L784.8 334.438V315.546ZM784.8 268.315L653.876 343.885V362.777L784.8 287.208V268.315Z" fill="url(#paint24_linear_5075_18693)"/>
<path fill-rule="evenodd" clip-rule="evenodd" d="M752.014 693.39L670.21 740.621V750.067L752.014 702.836V693.39ZM752.014 665.052L670.21 712.282V721.729L752.014 674.498V665.052ZM752.014 636.713L670.21 683.944V693.39L752.014 646.159V636.713ZM752.014 608.375L670.21 655.606V665.052L752.014 617.821V608.375ZM752.014 580.036L670.21 627.267V636.713L752.014 589.482V580.036ZM752.014 551.698L670.21 598.929V608.375L752.014 561.144V551.698ZM752.014 523.359L670.21 570.59V580.036L752.014 532.806V523.359Z" fill="#00FF00"/>
<path fill-rule="evenodd" clip-rule="evenodd" d="M752.014 693.39L670.21 740.621V750.067L752.014 702.836V693.39ZM752.014 665.052L670.21 712.282V721.729L752.014 674.498V665.052ZM752.014 636.713L670.21 683.944V693.39L752.014 646.159V636.713ZM752.014 608.375L670.21 655.606V665.052L752.014 617.821V608.375ZM752.014 580.036L670.21 627.267V636.713L752.014 589.482V580.036ZM752.014 551.698L670.21 598.929V608.375L752.014 561.144V551.698ZM752.014 523.359L670.21 570.59V580.036L752.014 532.806V523.359Z" fill="url(#paint25_linear_5075_18693)"/>
<path fill-rule="evenodd" clip-rule="evenodd" d="M522.95 41.6073C527.107 39.1513 532.963 37.7344 539.292 37.7344C545.715 37.7344 551.478 39.2458 555.634 41.6073L833.729 202.192C837.885 204.648 840.53 207.954 840.53 211.638C840.53 215.322 837.979 218.628 833.729 221.084L801.045 239.977L784.703 230.53L637.438 315.546L653.779 324.992L621.096 343.884C616.939 346.34 611.083 347.757 604.754 347.757C598.331 347.757 592.568 346.246 588.412 343.884L310.317 183.3C306.161 180.844 303.516 177.537 303.516 173.853C303.516 170.169 306.067 166.863 310.317 164.407L522.95 41.6073Z" fill="#FF0000"/>
<path fill-rule="evenodd" clip-rule="evenodd" d="M522.95 41.6073C527.107 39.1513 532.963 37.7344 539.292 37.7344C545.715 37.7344 551.478 39.2458 555.634 41.6073L833.729 202.192C837.885 204.648 840.53 207.954 840.53 211.638C840.53 215.322 837.979 218.628 833.729 221.084L801.045 239.977L784.703 230.53L637.438 315.546L653.779 324.992L621.096 343.884C616.939 346.34 611.083 347.757 604.754 347.757C598.331 347.757 592.568 346.246 588.412 343.884L310.317 183.3C306.161 180.844 303.516 177.537 303.516 173.853C303.516 170.169 306.067 166.863 310.317 164.407L522.95 41.6073Z" fill="url(#paint26_linear_5075_18693)"/>
<path fill-rule="evenodd" clip-rule="evenodd" d="M840.616 438.349C840.616 442.033 838.066 445.339 833.815 447.795L801.131 466.687V485.58L833.815 466.687C837.971 464.231 840.616 460.925 840.616 457.241V438.349ZM840.616 391.118C840.616 394.802 838.066 398.108 833.815 400.564L801.131 419.457V438.349L833.815 419.457C837.971 417.001 840.616 413.694 840.616 410.01V391.118ZM840.616 343.887C840.616 347.571 838.066 350.877 833.815 353.333L801.131 372.226V391.118L833.815 372.226C837.971 369.77 840.616 366.464 840.616 362.78V343.887ZM840.616 296.657C840.616 300.341 838.066 303.647 833.815 306.103L801.131 324.995V343.887L833.815 324.995C837.971 322.539 840.616 319.233 840.616 315.549V296.657ZM840.616 249.426C840.616 253.11 838.066 256.416 833.815 258.872L801.131 277.764V296.657L833.815 277.764C837.971 275.308 840.616 272.002 840.616 268.318V249.426Z" fill="#00FF00"/>
<path fill-rule="evenodd" clip-rule="evenodd" d="M840.616 438.349C840.616 442.033 838.066 445.339 833.815 447.795L801.131 466.687V485.58L833.815 466.687C837.971 464.231 840.616 460.925 840.616 457.241V438.349ZM840.616 391.118C840.616 394.802 838.066 398.108 833.815 400.564L801.131 419.457V438.349L833.815 419.457C837.971 417.001 840.616 413.694 840.616 410.01V391.118ZM840.616 343.887C840.616 347.571 838.066 350.877 833.815 353.333L801.131 372.226V391.118L833.815 372.226C837.971 369.77 840.616 366.464 840.616 362.78V343.887ZM840.616 296.657C840.616 300.341 838.066 303.647 833.815 306.103L801.131 324.995V343.887L833.815 324.995C837.971 322.539 840.616 319.233 840.616 315.549V296.657ZM840.616 249.426C840.616 253.11 838.066 256.416 833.815 258.872L801.131 277.764V296.657L833.815 277.764C837.971 275.308 840.616 272.002 840.616 268.318V249.426Z" fill="url(#paint27_linear_5075_18693)"/>
<path fill-rule="evenodd" clip-rule="evenodd" d="M653.875 551.701L621.191 570.594C617.035 573.05 611.179 574.467 604.85 574.467C598.426 574.467 592.664 572.955 588.508 570.594V589.486C592.664 591.942 598.521 593.359 604.85 593.359C611.273 593.359 617.035 591.848 621.191 589.486L653.875 570.594V551.701ZM653.875 504.471L621.191 523.363C617.035 525.819 611.179 527.236 604.85 527.236C598.426 527.236 592.664 525.724 588.508 523.363V542.255C592.664 544.711 598.521 546.128 604.85 546.128C611.273 546.128 617.035 544.617 621.191 542.255L653.875 523.363V504.471ZM653.875 457.24L621.191 476.132C617.035 478.588 611.179 480.005 604.85 480.005C598.426 480.005 592.664 478.494 588.508 476.132V495.024C592.664 497.48 598.521 498.897 604.85 498.897C611.273 498.897 617.035 497.386 621.191 495.024L653.875 476.132V457.24ZM653.875 410.009L621.191 428.901C617.035 431.357 611.179 432.774 604.85 432.774C598.426 432.774 592.664 431.263 588.508 428.901V447.794C592.664 450.25 598.521 451.667 604.85 451.667C611.273 451.667 617.035 450.155 621.191 447.794L653.875 428.901V410.009ZM653.875 362.778L621.191 381.671C617.035 384.127 611.179 385.544 604.85 385.544C598.426 385.544 592.664 384.032 588.508 381.671V400.563C592.664 403.019 598.521 404.436 604.85 404.436C611.273 404.436 617.035 402.924 621.191 400.563L653.875 381.671V362.778Z" fill="#00FF00"/>
<path fill-rule="evenodd" clip-rule="evenodd" d="M653.875 551.701L621.191 570.594C617.035 573.05 611.179 574.467 604.85 574.467C598.426 574.467 592.664 572.955 588.508 570.594V589.486C592.664 591.942 598.521 593.359 604.85 593.359C611.273 593.359 617.035 591.848 621.191 589.486L653.875 570.594V551.701ZM653.875 504.471L621.191 523.363C617.035 525.819 611.179 527.236 604.85 527.236C598.426 527.236 592.664 525.724 588.508 523.363V542.255C592.664 544.711 598.521 546.128 604.85 546.128C611.273 546.128 617.035 544.617 621.191 542.255L653.875 523.363V504.471ZM653.875 457.24L621.191 476.132C617.035 478.588 611.179 480.005 604.85 480.005C598.426 480.005 592.664 478.494 588.508 476.132V495.024C592.664 497.48 598.521 498.897 604.85 498.897C611.273 498.897 617.035 497.386 621.191 495.024L653.875 476.132V457.24ZM653.875 410.009L621.191 428.901C617.035 431.357 611.179 432.774 604.85 432.774C598.426 432.774 592.664 431.263 588.508 428.901V447.794C592.664 450.25 598.521 451.667 604.85 451.667C611.273 451.667 617.035 450.155 621.191 447.794L653.875 428.901V410.009ZM653.875 362.778L621.191 381.671C617.035 384.127 611.179 385.544 604.85 385.544C598.426 385.544 592.664 384.032 588.508 381.671V400.563C592.664 403.019 598.521 404.436 604.85 404.436C611.273 404.436 617.035 402.924 621.191 400.563L653.875 381.671V362.778Z" fill="url(#paint28_linear_5075_18693)"/>
<path fill-rule="evenodd" clip-rule="evenodd" d="M801.139 466.685L784.797 457.238V476.131L801.139 485.577V466.685ZM801.139 419.454L784.797 410.008V428.9L801.139 438.346V419.454ZM801.139 372.223L784.797 362.777V381.669L801.139 391.115V372.223ZM801.139 324.992L784.797 315.546V334.438L801.139 343.885V324.992ZM801.139 277.762L784.797 268.315V287.208L801.139 296.654V277.762Z" fill="#00FF00"/>
<path fill-rule="evenodd" clip-rule="evenodd" d="M801.139 466.685L784.797 457.238V476.131L801.139 485.577V466.685ZM801.139 419.454L784.797 410.008V428.9L801.139 438.346V419.454ZM801.139 372.223L784.797 362.777V381.669L801.139 391.115V372.223ZM801.139 324.992L784.797 315.546V334.438L801.139 343.885V324.992ZM801.139 277.762L784.797 268.315V287.208L801.139 296.654V277.762Z" fill="url(#paint29_linear_5075_18693)"/>
<path fill-rule="evenodd" clip-rule="evenodd" d="M367.983 402.146C370.431 401.943 372.898 401.84 375.102 401.964H375.104C377.089 402.067 379.736 402.204 381.721 402.308C381.002 402.277 380.199 402.243 379.373 402.208L382.736 402.4C385.08 402.718 388.175 403.049 390.551 403.459C390.554 403.459 390.557 403.46 390.56 403.461C392.935 403.784 396.176 404.467 398.64 405.162C401.159 405.876 404.502 406.737 407.039 407.548C407.504 407.704 408.037 407.883 408.578 408.065C410.698 408.743 412.585 409.424 414.887 410.342L415.548 410.577C418.122 411.676 421.498 413.041 424.172 414.258C424.196 414.268 424.219 414.279 424.243 414.289C429.766 416.675 437.211 420.897 442.766 424.225C455.948 432.124 470.761 443.688 483.403 455.952C483.964 456.496 484.648 457.159 485.438 457.936C485.585 458.077 485.732 458.219 485.874 458.358L486.021 458.511C488.411 460.869 491.655 464.147 495.486 468.302L495.537 468.355C495.554 468.374 495.572 468.395 495.589 468.414C498.462 471.532 501.661 475.137 505.074 479.21C505.466 479.678 505.872 480.168 506.283 480.67C506.465 480.887 506.646 481.103 506.821 481.314L506.633 481.096C506.946 481.478 507.263 481.871 507.584 482.268C507.911 482.659 508.233 483.047 508.542 483.423L509.509 484.678C512.35 488.267 515.298 492.119 517.701 495.306C519.907 498.229 522.656 502.318 524.775 505.326C527.327 508.947 530.099 513.314 532.791 517.759L533.028 518.128C533.156 518.348 533.289 518.577 533.42 518.803C533.524 518.976 533.628 519.149 533.731 519.322C533.822 519.471 533.914 519.619 534.004 519.768C550.519 546.423 561.65 573.122 567.857 597.73C568.125 598.707 568.384 599.689 568.641 600.674L568.626 600.608C568.633 600.639 568.641 600.67 568.648 600.701C568.723 600.988 568.798 601.275 568.872 601.563C569.118 602.523 569.354 603.471 569.584 604.411C570.427 607.68 570.991 610.239 571.709 613.853C574.864 629.214 575.845 641.285 576.062 649.283C576.126 651.623 576.129 654.183 576.085 656.803L576.097 661.087C576.071 661.472 576.045 661.872 576.019 662.276C576.012 662.57 576.004 662.861 575.996 663.144L576.051 662.412C576.029 662.911 575.999 663.4 575.973 663.893C575.879 666.523 575.707 668.793 575.401 671.727C575.387 671.919 575.372 672.117 575.357 672.306C574.998 676.865 574.134 682.709 573.109 686.774C573.026 687.105 572.941 687.451 572.854 687.807C572.318 690.482 571.821 692.446 571.063 694.997C570.929 695.476 570.794 695.937 570.659 696.366C570.567 696.66 570.47 696.962 570.371 697.268C570.192 697.844 570.001 698.451 569.794 699.108L569.445 700.022C568.517 702.697 567.46 705.503 566.519 707.712C566 708.928 565.491 710.055 564.99 711.108C564.883 711.335 564.775 711.56 564.666 711.782C562.167 716.914 559.822 720.308 557.188 724.12C556.629 724.93 556.008 725.759 555.343 726.592C554.268 727.977 553.226 729.127 551.517 730.972C551.537 730.95 551.559 730.928 551.58 730.906C551.513 730.971 551.432 731.068 551.366 731.134C551.291 731.21 551.215 731.286 551.14 731.362C551.189 731.311 551.24 731.26 551.289 731.208L551.18 731.312C551.052 731.445 550.923 731.577 550.795 731.709C550.91 731.594 551.025 731.478 551.14 731.362C550.91 731.601 550.678 731.836 550.443 732.068C548.848 733.689 547.236 735.196 545.767 736.461C545.492 736.698 545.203 736.937 544.909 737.177C543.398 738.425 541.663 739.733 539.567 741.149C539.434 741.241 539.302 741.33 539.172 741.417L537.299 742.511C535.714 743.495 534.149 744.406 532.726 745.182C530.885 746.185 528.644 747.164 526.332 748.043C526.153 748.115 525.972 748.188 525.8 748.254L525.575 748.326C523.293 749.167 520.975 749.902 518.936 750.454C517.734 750.779 516.386 751.075 514.972 751.342C513.866 751.586 512.769 751.815 511.796 751.973L508.094 752.398C506.857 752.553 505.66 752.689 504.553 752.805C502.388 753.032 499.414 753.128 497.118 752.997H497.115L489.483 752.56C487.14 752.242 484.046 751.911 481.67 751.501C481.667 751.501 481.664 751.5 481.661 751.5C479.36 751.187 476.621 750.57 473.848 749.854L473.58 749.798C473.33 749.727 473.067 749.654 472.802 749.58C471.795 749.312 470.791 749.035 469.807 748.757C468.29 748.34 466.757 747.907 465.419 747.486C465.391 747.478 465.362 747.469 465.334 747.461C460.21 745.955 453.224 743.118 447.977 740.672C447.932 740.651 447.885 740.629 447.841 740.608C447.749 740.565 447.656 740.522 447.565 740.481L447.422 740.408C445.771 739.626 443.975 738.721 442.117 737.748L438.592 735.981C435.953 734.466 432.538 732.572 429.715 730.886C429.629 730.836 429.539 730.785 429.454 730.735C427.454 729.582 424.083 727.401 420.116 724.649L419.208 724.054C418.755 723.722 418.28 723.375 417.791 723.019C411.5 718.558 404.183 712.99 398.498 707.874C392.525 702.499 389.973 700.201 386.741 696.985C386.609 696.858 386.475 696.728 386.346 696.603L385.958 696.201C383.716 693.945 381.029 691.142 376.683 686.606C372.621 682.367 367.436 676.255 363.678 671.537C354.823 660.422 348.605 652.001 339.191 636.832C331.916 625.107 324.825 611.293 321.025 602.803C318.691 597.586 311.585 581.71 307.269 567.151C306.727 565.324 306.169 563.359 305.61 561.327C304.471 557.314 303.652 554.387 303 551.932V454.11C304.411 449.981 306.577 444.714 309.825 438.984C310.053 438.561 310.277 438.152 310.495 437.769L310.818 437.275C312.072 435.171 313.47 433.016 315.031 430.84C316.453 428.858 318.411 426.276 320.101 424.639C320.147 424.594 320.196 424.547 320.243 424.501C320.45 424.267 320.655 424.041 320.854 423.826L326.453 418.5C328.232 417.151 330.495 415.319 332.429 413.968C332.466 413.94 332.504 413.91 332.541 413.882C332.568 413.864 332.596 413.849 332.623 413.832C332.767 413.733 332.908 413.636 333.048 413.543C333.174 413.46 333.305 413.383 333.439 413.312C333.451 413.305 333.463 413.299 333.475 413.293C333.481 413.29 333.488 413.285 333.494 413.281C333.498 413.28 333.501 413.278 333.505 413.276C341.484 408.616 341.72 408.496 346.175 406.799H346.177C346.181 406.798 346.185 406.795 346.188 406.794C346.265 406.765 346.34 406.737 346.42 406.706L346.43 406.702C350.45 405.17 355.938 403.564 360.352 403C360.358 402.999 360.365 402.998 360.371 402.997C360.388 402.994 360.407 402.99 360.424 402.987L360.625 402.965C362.553 402.719 364.751 402.442 367.001 402.233L367.668 402.155C367.769 402.153 367.879 402.149 367.983 402.146ZM407.792 407.817C407.836 407.83 407.881 407.844 407.925 407.858C407.844 407.831 407.765 407.805 407.686 407.778L407.792 407.817Z" fill="#020202" fill-opacity="0.4"/>
<path d="M357.298 426.113L357.102 426.079C357.021 426.062 356.939 426.045 356.859 426.027C357.008 426.057 357.152 426.085 357.298 426.113ZM49.6312 678.88C49.644 679.35 49.6568 679.813 49.6721 680.265L49.5728 679.067C49.6123 679.872 49.6685 680.667 49.7167 681.466C49.8876 685.691 50.2023 689.416 50.7606 694.304C50.7872 694.62 50.8133 694.944 50.8404 695.255C51.4965 702.75 53.0747 712.71 54.9482 720.011C55.1007 720.605 55.2568 721.226 55.4149 721.862C56.3965 726.547 57.3033 730.076 58.6881 734.759C58.9332 735.631 59.1799 736.475 59.427 737.27C59.5954 737.813 59.773 738.374 59.9541 738.943C60.2816 740.007 60.6301 741.131 61.0088 742.347L61.6454 744.093C63.3429 749.123 65.2742 754.468 66.9952 758.775C67.9435 761.146 68.8723 763.366 69.7883 765.466C69.9843 765.917 70.1818 766.365 70.3819 766.812C74.9498 777.089 79.2346 784.496 84.0476 792.813C85.07 794.579 86.2061 796.431 87.422 798.328C89.3856 801.454 91.2913 804.18 94.415 808.588C94.3766 808.534 94.3367 808.481 94.2983 808.428C94.4211 808.588 94.569 808.813 94.6893 808.975C94.8274 809.162 94.9651 809.347 95.1033 809.533C95.0122 809.408 94.9216 809.284 94.8311 809.16L95.0301 809.418C95.264 809.741 95.4984 810.061 95.7327 810.382C95.5229 810.099 95.3131 809.816 95.1033 809.533C95.5239 810.11 95.9477 810.686 96.376 811.258C99.2924 815.212 102.238 819.001 104.923 822.284C105.426 822.899 105.954 823.53 106.492 824.166C109.253 827.459 112.425 831.045 116.255 835.116C116.499 835.378 116.74 835.635 116.977 835.885L120.401 839.255C123.298 842.199 126.156 845.007 128.759 847.48C132.123 850.678 136.219 854.19 140.445 857.606C140.771 857.876 141.102 858.151 141.417 858.406L141.829 858.717C146.001 862.048 150.236 865.242 153.964 867.904C156.16 869.473 158.624 871.122 161.209 872.786C163.23 874.143 165.235 875.467 167.013 876.571L173.779 880.494C176.04 881.826 178.228 883.092 180.252 884.248C184.208 886.508 189.643 889.273 193.839 891.085C193.839 891.085 193.839 891.085 193.84 891.085C193.841 891.086 193.842 891.087 193.844 891.087L207.793 897.108C212.076 898.668 217.732 900.866 222.074 902.309C222.079 902.311 222.086 902.313 222.091 902.315C226.297 903.844 231.302 905.281 236.371 906.592L236.86 906.738C237.317 906.847 237.799 906.963 238.283 907.08C240.124 907.543 241.958 907.989 243.757 908.416C246.53 909.092 249.332 909.759 251.777 910.273C251.828 910.284 251.881 910.296 251.932 910.308C261.298 912.441 274.067 914.113 283.657 914.874C283.738 914.881 283.823 914.886 283.905 914.892C284.073 914.906 284.244 914.922 284.408 914.936L284.671 914.948C287.688 915.167 290.971 915.321 294.366 915.422L300.809 915.737C305.632 915.672 311.874 915.692 317.034 915.518C317.191 915.515 317.354 915.513 317.51 915.511C321.164 915.452 327.326 914.981 334.577 914.135L336.237 913.996C337.065 913.871 337.933 913.742 338.827 913.611C350.326 912.118 363.699 909.783 374.089 906.724C385.006 903.51 389.671 902.135 395.577 899.913C395.818 899.828 396.064 899.742 396.3 899.657L397.009 899.366C401.106 897.785 406.016 895.732 413.961 892.41C421.383 889.306 430.86 884.241 437.73 880.115L437.73 880.115C453.914 870.395 465.28 862.604 482.485 846.992C495.783 834.925 508.742 819.405 515.687 809.377C519.954 803.214 532.94 784.461 540.83 765.332C541.821 762.931 542.84 760.329 543.861 757.62C549.606 742.958 550.908 739.16 553.571 728.754C553.587 728.698 553.605 728.64 553.621 728.584C555.591 721.909 557.333 712.774 558.366 705.905C559.604 697.671 560.947 686.619 561.138 678.301C561.2 675.613 561.206 672.704 561.168 669.686L561.202 659.747C560.945 656.265 560.654 652.25 560.322 648.193C560.175 645.836 560.016 643.562 559.85 641.43C559.266 633.929 557.332 624.037 555.742 616.674C554.278 609.892 551.752 600.97 549.681 594.338C547.173 586.305 542.966 574.893 536.159 561.272C535.743 560.405 535.332 559.564 534.933 558.768L534.342 557.707C532.051 553.292 529.496 548.67 526.642 543.871C524.044 539.501 520.466 533.714 517.378 529.652C517.293 529.539 517.202 529.422 517.116 529.309C516.737 528.758 516.364 528.222 516.001 527.709L505.767 514.4C502.516 510.712 498.38 505.84 494.845 502.012C494.777 501.935 494.707 501.854 494.64 501.778C494.591 501.726 494.539 501.678 494.49 501.627C494.227 501.345 493.968 501.068 493.713 500.799C493.482 500.557 493.243 500.321 492.998 500.09C492.977 500.069 492.955 500.05 492.933 500.029C492.92 500.017 492.909 500.005 492.897 499.994C492.891 499.988 492.884 499.983 492.877 499.977C478.294 485.625 477.864 485.229 469.721 478.641C469.72 478.641 469.719 478.64 469.718 478.639C469.711 478.633 469.703 478.627 469.696 478.621C469.556 478.507 469.419 478.397 469.274 478.279L469.256 478.265C461.908 472.319 451.877 464.964 443.81 460.196C443.798 460.19 443.786 460.182 443.774 460.175C443.743 460.156 443.708 460.133 443.677 460.114L443.311 459.902C439.787 457.819 435.77 455.451 431.657 453.143L430.438 452.436C430.253 452.343 430.051 452.24 429.861 452.143C425.388 449.674 420.879 447.341 416.852 445.6C416.851 445.6 416.85 445.599 416.85 445.599C416.849 445.599 416.847 445.598 416.846 445.597C413.218 444.015 408.381 441.904 404.752 440.322C406.067 440.906 407.533 441.558 409.043 442.229L402.897 439.577C398.614 438.017 392.957 435.818 388.614 434.375C388.609 434.373 388.604 434.371 388.599 434.369C384.258 432.789 378.334 431.018 373.83 429.946C369.225 428.856 363.115 427.273 358.478 426.319C357.628 426.156 356.654 425.969 355.666 425.779C351.791 424.985 348.342 424.397 344.135 423.82L342.927 423.61C338.222 423.077 332.052 422.258 327.164 421.824C327.12 421.819 327.078 421.815 327.034 421.81C316.94 420.712 303.332 420.816 293.18 421.174C269.086 422.024 242.014 427.213 218.907 435.411C217.882 435.775 216.632 436.218 215.187 436.746C214.92 436.84 214.65 436.934 214.39 437.027L214.12 437.138C209.753 438.751 203.826 441.063 196.822 444.236L196.729 444.274C196.698 444.29 196.665 444.306 196.634 444.322C191.383 446.706 185.537 449.571 179.299 452.984C178.582 453.377 177.841 453.793 177.088 454.221C176.756 454.402 176.426 454.583 176.105 454.761L176.45 454.584C175.878 454.911 175.297 455.25 174.711 455.593C174.114 455.923 173.526 456.249 172.961 456.57L171.193 457.695C165.999 460.848 160.612 464.324 156.219 467.229C152.188 469.893 147.165 473.917 143.291 476.79C138.627 480.249 133.56 484.688 128.64 489.321L128.205 489.693C127.972 489.927 127.729 490.171 127.49 490.411C127.299 490.592 127.109 490.773 126.92 490.954C126.755 491.109 126.587 491.262 126.423 491.418C96.2383 518.873 75.8939 551.128 64.5491 584.42C64.0609 585.723 63.5844 587.041 63.1162 588.366L63.1443 588.275C63.1305 588.318 63.1172 588.36 63.1029 588.403C62.9668 588.79 62.8275 589.174 62.693 589.562C62.2431 590.859 61.8138 592.144 61.3931 593.423C59.8518 597.828 58.8221 601.362 57.509 606.42C51.7432 627.835 49.949 645.981 49.5519 658.384C49.4352 662.011 49.4316 666.041 49.5114 670.205L49.4884 676.938C49.535 677.567 49.5826 678.219 49.6312 678.88Z" fill="url(#paint30_linear_5075_18693)"/>
<path d="M199.541 884.419C203.952 876.722 209.781 866.248 216.152 854.578L216.157 854.58L216.167 854.562C240.925 865.605 289.807 885.899 351.222 885.899C368.544 885.899 386.86 884.278 405.912 880.388C398.543 886.406 389.076 892.57 379.664 897.919C368.713 904.097 357.992 909.12 351.094 911.552C350.623 911.716 350.168 911.87 349.722 912.014C346.007 912.622 342.333 913.156 338.827 913.611C337.932 913.742 337.067 913.871 336.238 913.996L334.58 914.135C327.328 914.981 321.167 915.452 317.508 915.511C317.354 915.514 317.191 915.516 317.032 915.518C311.874 915.692 305.63 915.672 300.81 915.737L294.367 915.423C290.974 915.321 287.689 915.167 284.669 914.949L284.408 914.936C284.245 914.922 284.076 914.907 283.907 914.893C283.825 914.886 283.738 914.881 283.656 914.874C274.066 914.113 261.298 912.441 251.933 910.308C251.882 910.296 251.831 910.284 251.779 910.273C249.333 909.76 246.529 909.092 243.755 908.416C241.959 907.989 240.122 907.543 238.285 907.08C237.799 906.963 237.318 906.846 236.862 906.738L236.371 906.592C231.305 905.281 226.3 903.844 222.093 902.316C222.083 902.314 222.078 902.312 222.073 902.309C217.733 900.866 212.078 898.668 207.795 897.108L195.293 891.712C196.47 889.736 197.888 887.303 199.541 884.419ZM425.486 875.52L425.563 875.497L425.568 875.492C426.039 875.328 426.515 875.17 426.986 875.002C445.209 869.076 462.536 860.816 478.733 850.354C463.56 863.772 452.706 871.12 437.732 880.115C430.859 884.24 421.382 889.306 413.962 892.41C406.505 895.528 401.721 897.528 397.775 899.07C409.315 891.614 419.811 883.307 425.486 875.52ZM94.3617 808.508C91.2708 804.148 89.3722 801.435 87.4224 798.328C86.2045 796.431 85.0684 794.579 84.0501 792.813C79.2345 784.496 74.9512 777.089 70.3813 766.812C70.192 766.39 70.0078 765.966 69.8235 765.541C66.1697 753.176 64.7982 728.834 68.0734 710.24C75.0331 725.929 83.2568 740.124 92.2226 752.923C113.583 783.563 148.555 819.862 206.454 849.899C195.191 870.481 188.579 881.526 185.253 886.963C183.472 886.038 181.757 885.107 180.253 884.248C178.226 883.092 176.041 881.826 173.779 880.494L167.014 876.571C165.238 875.467 163.232 874.142 161.211 872.786C158.627 871.122 156.16 869.472 153.965 867.904C150.234 865.242 146.002 862.048 141.831 858.717L141.417 858.406C141.104 858.151 140.772 857.876 140.444 857.606C136.217 854.19 132.123 850.678 128.761 847.48C126.156 845.007 123.296 842.199 120.399 839.255L116.976 835.885C116.74 835.635 116.5 835.378 116.254 835.116C112.426 831.045 109.253 827.459 106.49 824.166C105.953 823.53 105.426 822.899 104.924 822.284C102.237 819.001 99.2898 815.212 96.378 811.258C95.9481 810.685 95.5234 810.11 95.1037 809.533C95.3135 809.816 95.5233 810.099 95.7332 810.382C95.4978 810.061 95.2624 809.74 95.0321 809.418L94.8325 809.16C94.9195 809.284 95.0116 809.408 95.1037 809.533C94.9656 809.347 94.8274 809.161 94.6892 808.975C94.5868 808.838 94.4692 808.658 94.3617 808.508ZM418.542 866.75C389.751 873.872 318.9 889.83 221.136 845.411C221.801 844.186 222.477 842.939 223.168 841.664C233.439 822.674 245.69 799.754 259.604 773.487C282.392 783.625 326.883 801.94 382.709 801.941C401.117 801.942 420.747 799.943 441.243 795.013C438.198 820.692 431.806 842.696 422.18 860.484C421.013 862.641 419.796 864.739 418.542 866.75ZM492.873 827.207C473.959 842.093 452.803 853.589 433.73 861.393C443.382 842.179 449.671 818.832 452.445 791.86C455.899 790.679 460.044 789.215 464.681 787.381C496.644 774.922 521.372 756.643 538.321 732.909C542.23 727.438 545.485 722.007 548.223 716.749C550.654 712.148 552.895 707.273 554.906 702.116C555.346 708.658 555.572 715.464 555.408 721.649C554.845 724.107 554.246 726.469 553.622 728.584C553.606 728.64 553.586 728.698 553.571 728.754C550.91 739.16 549.605 742.958 543.863 757.62C542.839 760.329 541.821 762.931 540.833 765.332C536.872 774.934 531.627 784.441 526.842 792.309C519.796 801.491 508.599 814.306 492.873 827.207ZM211.49 840.651C188.303 828.357 139.881 800.834 103.302 750.356C87.9905 729.109 79.4802 710.421 74.5214 698.392C73.9738 697.024 73.4416 695.646 72.9094 694.259C73.9226 692.069 75.0331 689.851 76.2306 687.641C85.8514 669.853 100.871 652.16 120.911 634.973C132.349 662.421 162.557 723.421 249.917 768.84C236.028 795.035 223.802 817.893 213.562 836.817C212.856 838.122 212.17 839.397 211.49 840.651ZM94.3617 808.508L94.4129 808.588C94.3771 808.534 94.3361 808.481 94.3003 808.428C94.3157 808.453 94.3361 808.48 94.3617 808.508ZM264.507 764.231C279.429 736.018 295.769 704.897 312.073 673.642C322.313 678.148 338.331 684.652 358.289 688.773C370.996 691.398 383.625 692.709 396.097 692.709C409.76 692.71 423.24 691.136 436.443 687.99C442.594 721.601 444.615 754.568 442.328 783.921C415.062 790.584 351.513 803.618 264.507 764.231ZM482.587 666.544C487.013 663.282 491.092 659.758 494.817 655.979C504.873 645.819 513.777 632.461 519.023 614.861C536.176 634.249 547.384 655.081 551.652 675.624C549.896 683.109 547.118 694.401 541.227 707.068C520.768 749.937 482.602 769.374 459.016 778.523C457.163 779.226 455.28 779.906 453.376 780.57C455.259 751.06 453.008 718.263 446.795 684.949C455.582 681.858 469.21 676.433 482.587 666.544ZM129.534 627.858C153.13 609.115 182.259 591.662 214.284 577.079C222.303 596.2 243.198 637.76 302.442 669.013C286.148 700.204 269.808 731.28 254.876 759.482C226.837 744.588 159.983 705.941 129.534 627.858ZM49.4868 676.938L49.5124 670.205C49.4305 666.042 49.4356 662.011 49.5533 658.384C49.758 651.923 50.3517 643.892 51.6822 634.663C52.3065 654.413 55.5612 674.321 61.4616 693.717L61.4821 693.776C58.2326 702.049 56.4926 712.9 55.8836 724.028C55.7301 723.327 55.5714 722.613 55.4128 721.862C55.2541 721.226 55.1007 720.605 54.9471 720.011C53.0742 712.71 51.498 702.75 50.8429 695.255C50.8122 694.944 50.7866 694.62 50.761 694.304C50.2032 689.416 49.886 685.691 49.7171 681.466C49.6711 680.667 49.6148 679.873 49.5738 679.067L49.671 680.265C49.6557 679.813 49.6455 679.35 49.6301 678.881C49.584 678.22 49.5329 677.568 49.4868 676.938ZM316.925 664.329C340.388 619.287 363.048 575.358 381.537 539.078C405.671 580.018 424.278 628.708 434.426 677.626C414.867 682.228 373.196 689.314 316.925 664.329ZM62.6489 613.377C63.744 597.404 66.6916 581.731 71.4765 566.758C79.7463 548.145 90.9586 530.082 105.277 513.255C110.922 508.107 120.809 501.001 130.532 494.719C129.437 496.408 128.377 498.095 127.374 499.782C112.063 525.339 98.5273 566.005 116.95 624.49C95.641 642.257 79.429 660.692 68.6567 679.369C63.2783 657.227 61.2671 634.899 62.6489 613.377ZM392.699 537.29C415.553 544.904 436.862 554.299 456.191 565.301C477.167 577.241 495.349 590.806 510.298 605.641C508.619 612.565 505.661 623.019 498.886 633.986C488.548 650.369 474.281 660.703 461.769 667.288C456.493 670.027 450.812 672.469 444.748 674.612C434.472 625.642 416.602 578.536 392.699 537.29ZM224.084 572.744C271.533 552.374 323.582 538.831 372.203 534.164C353.663 570.453 330.911 614.468 307.35 659.619C287.658 649.037 244.702 623.228 224.084 572.744ZM555.152 651.524C547.993 634.587 536.729 617.916 521.822 602.343C523.915 585.535 526.786 548.073 491.189 502.985L492.34 501.958C493.594 502.404 494.894 502.922 496.225 503.524C499.423 507.064 502.928 511.182 505.769 514.4L516.003 527.71C516.362 528.222 516.735 528.759 517.114 529.309C517.201 529.422 517.293 529.54 517.38 529.652C520.466 533.714 524.043 539.501 526.643 543.872C529.498 548.67 532.052 553.292 534.344 557.707L534.933 558.768C535.332 559.564 535.741 560.405 536.161 561.272C542.967 574.893 547.174 586.305 549.681 594.338C551.488 600.117 553.637 607.634 555.126 613.959C557.168 627.778 556.534 639.973 555.152 651.524ZM122.354 539.764C129.288 511.097 144.584 492.344 153.366 482.122C153.576 481.891 153.77 481.682 153.97 481.46C174.25 472.745 198.927 469.323 225.885 471.439C213.562 487.374 195.974 518.202 210.702 567.245C179.02 581.572 150.024 598.683 126.136 617.127C117.554 585.348 117.902 559.894 122.354 539.764ZM473.82 498.808C486.583 513.239 514.826 546.794 512.037 592.758C497.627 579.478 480.708 567.277 461.585 556.407C441.043 544.732 418.363 534.821 394.029 526.88C427.784 508.244 455.735 498.39 473.82 498.808ZM238.392 472.801C259.993 475.779 282.418 482.029 305.098 491.414C325.901 500.024 346.493 511.11 366.467 524.423C318.429 529.526 267.413 542.954 220.732 562.844C215.471 544.24 208.363 507.347 238.392 472.801ZM385.596 519.725C381.696 484.218 374.363 456.913 364.102 439.471C382.315 442.842 410.589 450.282 440.265 470.209C450.188 476.885 458.079 483.496 464.113 488.995C444.006 491.421 417.283 501.859 385.596 519.725ZM309.315 481.946C288.584 473.352 268.017 467.279 248.013 463.824C262.429 452.009 290.989 434.418 340.378 436.639C342.481 436.738 344.446 436.861 346.258 436.991C347.419 437.077 348.591 437.178 349.768 437.286C361.421 451.441 370.115 479.542 374.644 517.413C353.438 503.06 331.504 491.146 309.315 481.946ZM480.279 488.968C479.885 488.909 479.485 488.855 479.081 488.806L479.035 488.757L479.025 488.756C478.534 488.277 478.022 487.778 477.484 487.261C470.724 480.62 463.893 474.731 457.086 469.51C453.591 466.822 449.768 464.058 445.613 461.288C453.335 466.038 462.444 472.754 469.256 478.265L469.721 478.639C469.721 478.64 469.721 478.641 469.721 478.642C474.992 482.907 477.034 484.581 481.778 489.122C481.261 489.065 480.76 489.014 480.279 488.968ZM327.032 421.81C327.078 421.815 327.118 421.819 327.165 421.824C327.39 421.844 327.63 421.869 327.866 421.891C330.394 422.804 332.753 423.963 334.738 425.082C335.399 425.454 336.038 425.837 336.663 426.223C310.487 425.45 268.35 429.032 234.211 461.842C211.935 459.327 190.887 460.332 172.07 464.723C185.503 453.255 202.626 441.398 228.127 432.366C249.021 425.937 272.224 421.913 293.18 421.174C303.333 420.816 316.94 420.712 327.032 421.81ZM395.774 436.93C393.282 436.005 390.785 435.096 388.615 434.375C388.61 434.373 388.605 434.371 388.6 434.369C384.26 432.789 378.334 431.018 373.831 429.946C369.225 428.856 363.115 427.273 358.478 426.319C357.629 426.156 356.656 425.969 355.664 425.779C354.635 425.568 353.632 425.372 352.639 425.186C353.571 426.01 354.41 426.799 355.142 427.527C370.074 429.571 383.59 432.866 395.774 436.93ZM357.296 426.113L357.102 426.079C357.02 426.062 356.938 426.045 356.861 426.027C357.01 426.057 357.153 426.085 357.296 426.113Z" fill="url(#paint31_linear_5075_18693)"/>
<path d="M367.779 908.413L96.1567 756.781C90.9462 753.872 86.7158 746.057 86.7158 739.34V641.972C86.7158 638.705 87.7171 636.295 89.3447 635.016C91.0633 633.666 93.4806 633.578 96.1567 635.071L441.221 827.702C446.431 830.61 450.661 838.426 450.661 845.143V872.035C446.579 874.722 442.351 877.34 437.731 880.115L437.73 880.115C430.861 884.24 421.384 889.306 413.961 892.41C406.017 895.732 401.107 897.785 397.01 899.366L396.301 899.657C396.065 899.742 395.819 899.828 395.577 899.912C389.671 902.135 385.006 903.51 374.09 906.724C372.086 907.314 369.97 907.877 367.779 908.413Z" fill="#020202" fill-opacity="0.4"/>
<path fill-rule="evenodd" clip-rule="evenodd" d="M49.4588 662.771C49.4588 659.503 50.4594 657.093 52.0878 655.815C53.8064 654.465 56.2234 654.376 58.8993 655.87L367.05 827.894C372.261 830.803 376.491 838.618 376.491 845.335V942.703C376.491 949.42 372.261 952.512 367.05 949.604L58.8993 777.58C53.6889 774.671 49.4588 766.856 49.4588 760.139V662.771Z" fill="url(#paint32_linear_5075_18693)"/>
<path fill-rule="evenodd" clip-rule="evenodd" d="M373.289 950.047L392.382 939.355C392.714 939.216 393.027 939.04 393.323 938.828V938.828C395.053 937.588 396.125 935.124 396.125 931.742V834.375C396.125 827.658 391.895 819.843 386.684 816.934L78.5348 644.91C76.0576 643.527 73.8017 643.501 72.1172 644.576L53.3934 655.084C54.9442 654.509 56.846 654.723 58.9004 655.871L367.051 827.893C372.262 830.802 376.492 838.617 376.492 845.335V942.702C376.492 946.338 375.252 948.912 373.289 950.047Z" fill="url(#paint33_linear_5075_18693)"/>
<path fill-rule="evenodd" clip-rule="evenodd" d="M132.442 745.383L120.929 785.422L107.311 777.819L88.6974 691.644L101.813 698.965C103.615 699.971 105.183 702.221 105.611 704.416L114.004 747.479C114.36 746.162 123.737 714.381 123.737 714.381C124.213 712.767 125.749 712.328 127.499 713.305L137.085 718.656C138.836 719.633 140.374 721.791 140.849 723.938L150.873 769.248L159.086 734.317C159.497 732.567 161.076 732.048 162.895 733.064L176.07 740.419C176.07 740.419 175.138 744.074 174.827 745.21L158.119 806.183L144.03 798.317L132.442 745.383Z" fill="#020202" fill-opacity="0.5"/>
<path fill-rule="evenodd" clip-rule="evenodd" d="M219.817 794.153L208.304 834.192L194.686 826.59L176.072 740.414L189.188 747.736C190.99 748.742 192.558 750.992 192.986 753.186L201.379 796.25C201.735 794.933 211.112 763.151 211.112 763.151C211.588 761.538 213.124 761.098 214.874 762.075L224.46 767.427C226.211 768.404 227.749 770.561 228.224 772.708L238.248 818.018L246.461 783.087C246.872 781.337 248.451 780.819 250.27 781.834L263.445 789.189C263.445 789.189 262.513 792.844 262.202 793.98L245.494 854.953L231.405 847.088L219.817 794.153Z" fill="#020202" fill-opacity="0.5"/>
<path fill-rule="evenodd" clip-rule="evenodd" d="M307.189 842.932L295.676 882.971L282.058 875.369L263.444 789.193L276.56 796.515C278.362 797.521 279.93 799.771 280.358 801.966L288.751 845.029C289.107 843.712 298.484 811.931 298.484 811.931C298.961 810.317 300.497 809.878 302.246 810.855L311.832 816.206C313.583 817.183 315.121 819.341 315.596 821.488L325.62 866.797L333.833 831.866C334.244 830.117 335.823 829.598 337.642 830.614L350.817 837.969C350.817 837.969 349.885 841.624 349.574 842.76L332.866 903.733L318.777 895.867L307.189 842.932Z" fill="#020202" fill-opacity="0.5"/>
<path fill-rule="evenodd" clip-rule="evenodd" d="M118.337 753.254L106.824 793.293L93.2054 785.69L74.592 699.515L87.7071 706.836C89.5096 707.842 91.0779 710.093 91.5058 712.287L99.8982 755.35C100.255 754.033 109.631 722.252 109.631 722.252C110.108 720.638 111.644 720.199 113.394 721.176L122.98 726.527C124.731 727.504 126.268 729.662 126.743 731.809L136.768 777.119L144.981 742.188C145.391 740.438 146.97 739.92 148.789 740.935L161.964 748.29C161.964 748.29 161.033 751.945 160.721 753.081L144.014 814.054L129.924 806.188L118.337 753.254Z" fill="url(#paint34_linear_5075_18693)"/>
<path fill-rule="evenodd" clip-rule="evenodd" d="M152.396 809.375L169.103 748.403C169.415 747.267 170.346 743.612 170.346 743.612L157.172 736.257C156.101 735.659 155.113 735.593 154.399 735.996L146.166 740.6C146.866 740.285 147.791 740.38 148.788 740.937L161.964 748.292C161.964 748.292 161.031 751.946 160.721 753.083L144.012 814.056L152.396 809.375Z" fill="url(#paint35_linear_5075_18693)"/>
<path fill-rule="evenodd" clip-rule="evenodd" d="M152.396 809.375L169.103 748.403C169.415 747.267 170.346 743.612 170.346 743.612L157.172 736.257C156.101 735.659 155.113 735.593 154.399 735.996L146.166 740.6C146.866 740.285 147.791 740.38 148.788 740.937L161.964 748.292C161.964 748.292 161.031 751.946 160.721 753.083L144.012 814.056L152.396 809.375Z" fill="#020202" fill-opacity="0.2"/>
<path fill-rule="evenodd" clip-rule="evenodd" d="M121.379 767.153L115.208 788.616L106.824 793.296L118.337 753.257L121.379 767.153Z" fill="url(#paint36_linear_5075_18693)"/>
<path fill-rule="evenodd" clip-rule="evenodd" d="M141.62 756.482L135.126 727.132C134.651 724.985 133.114 722.828 131.363 721.85L121.777 716.498C120.709 715.903 119.72 715.834 119.004 716.239L110.63 720.914C111.345 720.514 112.33 720.584 113.393 721.178L122.979 726.53C124.731 727.507 126.269 729.665 126.744 731.812L136.768 777.121L141.62 756.482Z" fill="url(#paint37_linear_5075_18693)"/>
<path fill-rule="evenodd" clip-rule="evenodd" d="M141.62 756.482L135.126 727.132C134.651 724.985 133.114 722.828 131.363 721.85L121.777 716.498C120.709 715.903 119.72 715.834 119.004 716.239L110.63 720.914C111.345 720.514 112.33 720.584 113.393 721.178L122.979 726.53C124.731 727.507 126.269 729.665 126.744 731.812L136.768 777.121L141.62 756.482Z" fill="#020202" fill-opacity="0.2"/>
<path fill-rule="evenodd" clip-rule="evenodd" d="M74.5925 699.515L87.7077 706.837C89.5097 707.843 91.0789 710.094 91.5063 712.288L99.8982 755.351C100.092 754.639 102.925 745.01 105.484 736.32L99.8889 707.607C99.4614 705.414 97.8923 703.162 96.0903 702.156L82.9752 694.836L74.5925 699.515Z" fill="url(#paint38_linear_5075_18693)"/>
<path fill-rule="evenodd" clip-rule="evenodd" d="M74.5925 699.515L87.7077 706.837C89.5097 707.843 91.0789 710.094 91.5063 712.288L99.8982 755.351C100.092 754.639 102.925 745.01 105.484 736.32L99.8889 707.607C99.4614 705.414 97.8923 703.162 96.0903 702.156L82.9752 694.836L74.5925 699.515Z" fill="#020202" fill-opacity="0.2"/>
<path fill-rule="evenodd" clip-rule="evenodd" d="M205.707 802.03L194.194 842.069L180.576 834.467L161.963 748.291L175.078 755.613C176.88 756.619 178.448 758.869 178.876 761.063L187.269 804.127C187.625 802.81 197.002 771.028 197.002 771.028C197.479 769.414 199.015 768.975 200.765 769.952L210.351 775.304C212.101 776.281 213.639 778.438 214.114 780.585L224.138 825.895L232.351 790.964C232.762 789.214 234.341 788.696 236.16 789.711L249.335 797.066C249.335 797.066 248.403 800.721 248.092 801.857L231.384 862.83L217.295 854.965L205.707 802.03Z" fill="url(#paint39_linear_5075_18693)"/>
<path fill-rule="evenodd" clip-rule="evenodd" d="M239.768 858.151L256.476 797.178C256.788 796.042 257.719 792.387 257.719 792.387L244.544 785.032C243.474 784.435 242.486 784.368 241.772 784.772L233.501 789.393C234.206 789.056 235.146 789.145 236.162 789.713L249.336 797.067C249.336 797.067 248.404 800.721 248.093 801.858L231.386 862.831L239.768 858.151Z" fill="url(#paint40_linear_5075_18693)"/>
<path fill-rule="evenodd" clip-rule="evenodd" d="M239.768 858.151L256.476 797.178C256.788 796.042 257.719 792.387 257.719 792.387L244.544 785.032C243.474 784.435 242.486 784.368 241.772 784.772L233.501 789.393C234.206 789.056 235.146 789.145 236.162 789.713L249.336 797.067C249.336 797.067 248.404 800.721 248.093 801.858L231.386 862.831L239.768 858.151Z" fill="#020202" fill-opacity="0.2"/>
<path fill-rule="evenodd" clip-rule="evenodd" d="M208.75 815.924L202.578 837.387L194.195 842.067L205.708 802.028L208.75 815.924Z" fill="url(#paint41_linear_5075_18693)"/>
<path fill-rule="evenodd" clip-rule="evenodd" d="M228.992 805.259L222.498 775.909C222.024 773.763 220.486 771.604 218.735 770.626L209.149 765.274C208.081 764.679 207.093 764.611 206.376 765.015L198.086 769.646C198.794 769.297 199.743 769.384 200.765 769.955L210.353 775.306C212.103 776.283 213.641 778.441 214.116 780.588L224.14 825.898L228.992 805.259Z" fill="url(#paint42_linear_5075_18693)"/>
<path fill-rule="evenodd" clip-rule="evenodd" d="M228.992 805.259L222.498 775.909C222.024 773.763 220.486 771.604 218.735 770.626L209.149 765.274C208.081 764.679 207.093 764.611 206.376 765.015L198.086 769.646C198.794 769.297 199.743 769.384 200.765 769.955L210.353 775.306C212.103 776.283 213.641 778.441 214.116 780.588L224.14 825.898L228.992 805.259Z" fill="#020202" fill-opacity="0.2"/>
<path fill-rule="evenodd" clip-rule="evenodd" d="M161.964 748.291L175.079 755.611C176.881 756.617 178.45 758.868 178.878 761.062L187.271 804.125C187.463 803.413 190.296 793.784 192.855 785.094L187.26 756.382C186.833 754.189 185.265 751.938 183.461 750.932L170.346 743.61L161.964 748.291Z" fill="url(#paint43_linear_5075_18693)"/>
<path fill-rule="evenodd" clip-rule="evenodd" d="M161.964 748.291L175.079 755.611C176.881 756.617 178.45 758.868 178.878 761.062L187.271 804.125C187.463 803.413 190.296 793.784 192.855 785.094L187.26 756.382C186.833 754.189 185.265 751.938 183.461 750.932L170.346 743.61L161.964 748.291Z" fill="#020202" fill-opacity="0.2"/>
<path fill-rule="evenodd" clip-rule="evenodd" d="M327.141 906.925L343.849 845.952C344.161 844.817 345.092 841.162 345.092 841.162L331.917 833.807C330.847 833.209 329.859 833.143 329.145 833.546L320.762 838.226C321.476 837.823 322.464 837.889 323.535 838.487L336.709 845.842C336.709 845.842 335.778 849.497 335.466 850.633L318.759 911.606L327.141 906.925Z" fill="url(#paint44_linear_5075_18693)"/>
<path fill-rule="evenodd" clip-rule="evenodd" d="M327.141 906.925L343.849 845.952C344.161 844.817 345.092 841.162 345.092 841.162L331.917 833.807C330.847 833.209 329.859 833.143 329.145 833.546L320.762 838.226C321.476 837.823 322.464 837.889 323.535 838.487L336.709 845.842C336.709 845.842 335.778 849.497 335.466 850.633L318.759 911.606L327.141 906.925Z" fill="#020202" fill-opacity="0.2"/>
<path fill-rule="evenodd" clip-rule="evenodd" d="M296.123 864.7L289.951 886.163L281.567 890.844L293.08 850.805L296.123 864.7Z" fill="url(#paint45_linear_5075_18693)"/>
<path fill-rule="evenodd" clip-rule="evenodd" d="M121.379 767.153L115.208 788.616L106.824 793.296L118.337 753.257L121.379 767.153Z" fill="#020202" fill-opacity="0.4"/>
<path fill-rule="evenodd" clip-rule="evenodd" d="M208.75 815.924L202.578 837.387L194.195 842.067L205.708 802.028L208.75 815.924Z" fill="#020202" fill-opacity="0.4"/>
<path fill-rule="evenodd" clip-rule="evenodd" d="M296.123 864.7L289.951 886.163L281.567 890.844L293.08 850.805L296.123 864.7Z" fill="#020202" fill-opacity="0.4"/>
<path fill-rule="evenodd" clip-rule="evenodd" d="M316.363 854.029L309.87 824.68C309.395 822.533 307.857 820.375 306.106 819.397L296.52 814.045C295.452 813.45 294.464 813.381 293.748 813.786L285.406 818.443C286.119 818.064 287.089 818.14 288.136 818.725L297.724 824.077C299.474 825.055 301.012 827.212 301.487 829.359L311.511 874.668L316.363 854.029Z" fill="url(#paint46_linear_5075_18693)"/>
<path fill-rule="evenodd" clip-rule="evenodd" d="M316.363 854.029L309.87 824.68C309.395 822.533 307.857 820.375 306.106 819.397L296.52 814.045C295.452 813.45 294.464 813.381 293.748 813.786L285.406 818.443C286.119 818.064 287.089 818.14 288.136 818.725L297.724 824.077C299.474 825.055 301.012 827.212 301.487 829.359L311.511 874.668L316.363 854.029Z" fill="#020202" fill-opacity="0.2"/>
<path fill-rule="evenodd" clip-rule="evenodd" d="M249.338 797.067L262.453 804.387C264.255 805.393 265.825 807.645 266.252 809.838L274.645 852.903C274.837 852.189 277.67 842.561 280.231 833.87L274.635 805.158C274.207 802.966 272.639 800.714 270.836 799.708L257.721 792.387L249.338 797.067Z" fill="url(#paint47_linear_5075_18693)"/>
<path fill-rule="evenodd" clip-rule="evenodd" d="M249.338 797.067L262.453 804.387C264.255 805.393 265.825 807.645 266.252 809.838L274.645 852.903C274.837 852.189 277.67 842.561 280.231 833.87L274.635 805.158C274.207 802.966 272.639 800.714 270.836 799.708L257.721 792.387L249.338 797.067Z" fill="#020202" fill-opacity="0.2"/>
<path fill-rule="evenodd" clip-rule="evenodd" d="M293.08 850.806L281.567 890.845L267.949 883.243L249.335 797.067L262.45 804.389C264.253 805.395 265.821 807.645 266.249 809.84L274.641 852.903C274.998 851.586 284.374 819.805 284.374 819.805C284.851 818.191 286.387 817.752 288.137 818.729L297.723 824.08C299.474 825.057 301.011 827.215 301.487 829.362L311.511 874.672L319.724 839.74C320.135 837.991 321.713 837.472 323.532 838.488L336.708 845.843C336.708 845.843 335.776 849.498 335.464 850.634L318.757 911.607L304.667 903.741L293.08 850.806Z" fill="url(#paint48_linear_5075_18693)"/>
<path opacity="0.2" fill-rule="evenodd" clip-rule="evenodd" d="M539.547 38.1562C545.97 38.1562 551.732 39.6678 555.889 42.0293L833.983 202.614C838.14 205.07 840.784 208.377 840.784 212.061L840.783 212.064L840.871 212.059V797.72C840.871 801.404 838.32 804.71 834.069 807.166L801.394 826.053V826.06L801.388 826.056L801.386 826.058V826.055L785.054 816.614L654.129 892.196V911.077L621.445 929.969C617.289 932.425 611.432 933.842 605.104 933.842C598.68 933.842 592.917 932.33 588.761 929.969L467.392 859.908C466.851 860.339 466.315 860.765 465.78 861.184C465.691 861.253 465.603 861.323 465.514 861.393C464.711 862.019 463.913 862.631 463.121 863.232C463.085 863.26 463.05 863.288 463.014 863.315C462.658 863.585 462.303 863.852 461.949 864.117C461.855 864.188 461.76 864.259 461.665 864.329C461.344 864.569 461.023 864.808 460.703 865.044C460.621 865.105 460.538 865.165 460.456 865.226C457.331 867.524 454.241 869.668 451.067 871.766C450.966 871.833 450.864 871.901 450.762 871.968C450.729 871.99 450.695 872.011 450.662 872.033C450.637 872.05 450.611 872.066 450.586 872.083C450.343 872.242 450.1 872.401 449.856 872.561C449.742 872.635 449.628 872.711 449.514 872.785C449.185 872.999 448.855 873.212 448.524 873.425C448.433 873.484 448.342 873.544 448.25 873.603C447.592 874.026 446.929 874.448 446.261 874.871C446.112 874.965 445.962 875.059 445.812 875.153C445.744 875.197 445.675 875.241 445.605 875.284C445.289 875.483 444.971 875.682 444.652 875.881C444.457 876.003 444.262 876.125 444.065 876.247C443.861 876.374 443.656 876.502 443.45 876.629C443.413 876.652 443.377 876.674 443.34 876.697C443.236 876.762 443.132 876.826 443.027 876.891C442.362 877.301 441.69 877.713 441.011 878.128C440.883 878.206 440.756 878.284 440.628 878.362C439.679 878.94 438.715 879.524 437.732 880.114C436.758 880.699 435.73 881.302 434.664 881.917C434.365 882.089 434.063 882.263 433.759 882.437C433.635 882.507 433.51 882.578 433.385 882.649C432.817 882.972 432.24 883.296 431.656 883.621C430.833 884.08 429.996 884.541 429.148 885C428.816 885.18 428.481 885.358 428.146 885.537C427.452 885.908 426.754 886.28 426.054 886.646C425.19 887.097 424.322 887.54 423.457 887.977C421.998 888.714 420.546 889.425 419.125 890.097C418.856 890.224 418.589 890.352 418.322 890.477C417.319 890.944 416.334 891.389 415.377 891.806C414.898 892.014 414.426 892.216 413.962 892.41C412.042 893.213 410.299 893.941 408.702 894.606C408.466 894.705 408.233 894.801 408.004 894.896C406.667 895.453 405.434 895.966 404.286 896.439C403.725 896.671 403.183 896.893 402.66 897.107C402.104 897.335 401.568 897.553 401.05 897.763C400.949 897.803 400.849 897.844 400.75 897.884C400.404 898.023 400.066 898.159 399.734 898.292C399.447 898.407 399.164 898.52 398.886 898.63C398.715 898.697 398.546 898.764 398.379 898.83C398.175 898.91 397.974 898.992 397.775 899.069C397.778 899.068 397.78 899.065 397.782 899.063C397.64 899.119 397.498 899.175 397.357 899.229C397.241 899.275 397.125 899.322 397.01 899.366L396.301 899.657C396.243 899.678 396.184 899.697 396.126 899.718V931.741C396.126 935.123 395.054 937.587 393.324 938.827C393.028 939.038 392.714 939.216 392.383 939.354L373.31 950.034C371.643 951.009 369.451 950.943 367.051 949.604L306.295 915.687C304.365 915.701 302.5 915.714 300.811 915.737L294.366 915.422C293.445 915.394 292.532 915.362 291.631 915.326C290.041 915.264 288.485 915.19 286.981 915.101C286.21 915.055 285.452 915.004 284.711 914.95C284.697 914.949 284.683 914.949 284.67 914.948L284.409 914.936C284.246 914.922 284.076 914.907 283.907 914.893C283.826 914.886 283.738 914.88 283.656 914.874C281.259 914.684 278.662 914.437 275.971 914.14C275.298 914.065 274.619 913.988 273.936 913.907C269.836 913.425 265.578 912.834 261.51 912.159C260.832 912.047 260.158 911.932 259.492 911.814C257.191 911.41 254.972 910.974 252.901 910.521C252.575 910.449 252.251 910.38 251.933 910.308C251.882 910.296 251.828 910.284 251.777 910.272C250.377 909.979 248.859 909.632 247.297 909.265C246.131 908.99 244.94 908.705 243.756 908.416C243.462 908.346 243.168 908.274 242.872 908.203C241.358 907.841 239.823 907.467 238.283 907.079C237.799 906.962 237.317 906.847 236.86 906.738L236.494 906.628L236.371 906.592C235.24 906.299 234.111 905.998 232.994 905.693C231.233 905.213 229.501 904.715 227.828 904.207C227.322 904.053 226.82 903.898 226.326 903.742C224.933 903.302 223.59 902.854 222.319 902.396C222.244 902.368 222.168 902.343 222.094 902.315C222.084 902.314 222.078 902.311 222.073 902.309C221.293 902.049 220.47 901.763 219.62 901.463C215.743 900.094 211.306 898.386 207.794 897.107L193.845 891.087L193.841 891.085C191.239 889.962 188.159 888.471 185.253 886.962C185.237 886.953 185.22 886.945 185.204 886.937C185.156 886.911 185.107 886.885 185.059 886.86C184.593 886.618 184.131 886.374 183.678 886.132C183.474 886.023 183.272 885.915 183.071 885.807C182.793 885.657 182.519 885.507 182.248 885.359C182.02 885.234 181.793 885.11 181.571 884.987C181.212 884.788 180.861 884.592 180.521 884.398C180.431 884.348 180.341 884.298 180.253 884.248C178.229 883.092 176.04 881.826 173.779 880.494L167.014 876.57C165.236 875.466 163.231 874.142 161.21 872.785C158.625 871.121 156.16 869.472 153.965 867.904C150.236 865.242 146.001 862.047 141.829 858.717L141.417 858.405C141.103 858.151 140.772 857.875 140.445 857.605C140.356 857.533 140.266 857.459 140.177 857.387C137.58 855.283 135.037 853.146 132.689 851.071C131.302 849.846 129.982 848.642 128.76 847.479C127.759 846.528 126.721 845.525 125.657 844.486C123.954 842.824 122.182 841.066 120.4 839.255L116.977 835.885C116.741 835.635 116.5 835.377 116.255 835.115C114.82 833.589 113.475 832.131 112.211 830.73C110.947 829.33 109.762 827.988 108.644 826.693C107.898 825.831 107.182 824.988 106.491 824.165C106.018 823.605 105.552 823.048 105.105 822.503C105.045 822.43 104.984 822.356 104.924 822.283C104.588 821.873 104.248 821.455 103.905 821.029L102.865 819.732C101.466 817.975 100.02 816.112 98.5645 814.187C97.8364 813.224 97.1059 812.245 96.377 811.257C96.3109 811.169 96.2465 811.079 96.1807 810.99C95.8449 810.541 95.5111 810.09 95.1816 809.638C95.1558 809.603 95.1303 809.567 95.1045 809.532L95.7334 810.382C95.4992 810.061 95.2649 809.74 95.0312 809.418L94.8496 809.182C94.9318 809.299 95.0181 809.416 95.1045 809.532C94.9666 809.346 94.8274 809.16 94.6895 808.975C94.5694 808.813 94.4215 808.588 94.2988 808.428C94.314 808.449 94.3302 808.47 94.3457 808.491C94.3306 808.47 94.3149 808.449 94.3008 808.428C94.3098 808.442 94.3226 808.457 94.335 808.473C92.5394 805.939 91.1485 803.961 89.9141 802.138C89.0337 800.838 88.2319 799.617 87.4229 798.327C86.4366 796.791 85.5053 795.283 84.6455 793.828C84.4432 793.487 84.2422 793.148 84.0479 792.812C83.7053 792.22 83.3658 791.632 83.0283 791.048L58.9004 777.579C53.6902 774.671 49.4583 766.856 49.458 760.139V662.771C49.458 662.548 49.4645 662.329 49.4736 662.114C49.4885 660.833 49.5141 659.586 49.5527 658.384C49.5562 658.276 49.5608 658.167 49.5645 658.059C49.5824 657.521 49.6034 656.971 49.627 656.412C50.1472 644.094 52.0425 626.727 57.5098 606.42C58.8228 601.362 59.8523 597.828 61.3936 593.423C61.8142 592.144 62.2436 590.858 62.6934 589.562C62.8279 589.173 62.9675 588.789 63.1035 588.403C63.1178 588.36 63.1308 588.317 63.1445 588.274L63.1172 588.366C63.5854 587.041 64.0616 585.723 64.5498 584.419C75.8947 551.127 96.2392 518.872 126.424 491.417C126.588 491.262 126.756 491.109 126.921 490.954C127.11 490.773 127.3 490.592 127.49 490.411C127.73 490.171 127.972 489.927 128.206 489.692L128.642 489.32C133.561 484.688 138.628 480.249 143.291 476.79C147.165 473.917 152.189 469.893 156.22 467.229C160.613 464.324 166 460.848 171.193 457.694L172.961 456.569C173.526 456.249 174.115 455.922 174.712 455.593C175.298 455.249 175.879 454.911 176.45 454.584L176.106 454.761C176.427 454.583 176.757 454.402 177.089 454.221C177.841 453.793 178.582 453.376 179.299 452.983C185.537 449.57 191.384 446.705 196.635 444.321C196.666 444.306 196.699 444.29 196.729 444.274L196.823 444.236C203.826 441.063 209.754 438.751 214.121 437.138L214.391 437.026C214.65 436.933 214.921 436.84 215.188 436.746C216.633 436.219 217.883 435.775 218.908 435.411C229.4 431.689 240.71 428.589 252.187 426.231C252.284 426.211 252.381 426.191 252.479 426.171C253.049 426.054 253.621 425.94 254.192 425.827C254.362 425.794 254.533 425.761 254.703 425.728C255.272 425.616 255.841 425.506 256.41 425.398C256.492 425.383 256.575 425.368 256.657 425.353C259.159 424.883 261.666 424.449 264.169 424.052C264.417 424.012 264.666 423.971 264.914 423.933C265.295 423.873 265.676 423.816 266.057 423.759C266.401 423.707 266.746 423.654 267.091 423.604C267.534 423.538 267.977 423.476 268.42 423.413C268.703 423.373 268.987 423.333 269.271 423.294C269.69 423.236 270.109 423.178 270.528 423.122C270.871 423.076 271.214 423.032 271.557 422.987C271.943 422.937 272.33 422.888 272.716 422.84C273.045 422.799 273.375 422.758 273.704 422.719C274.145 422.665 274.587 422.612 275.027 422.562C275.153 422.547 275.279 422.534 275.404 422.52C276.272 422.421 277.139 422.327 278.003 422.238C278.408 422.197 278.813 422.154 279.218 422.114C279.469 422.09 279.721 422.067 279.973 422.043C280.481 421.995 280.988 421.947 281.495 421.902C281.715 421.883 281.936 421.865 282.155 421.847C282.691 421.801 283.226 421.756 283.76 421.714C283.975 421.697 284.191 421.681 284.406 421.665C284.892 421.628 285.378 421.592 285.862 421.559C286.147 421.539 286.432 421.52 286.716 421.501C287.203 421.469 287.689 421.44 288.174 421.411C288.403 421.398 288.633 421.384 288.861 421.371C289.374 421.342 289.887 421.317 290.397 421.292C290.607 421.282 290.816 421.27 291.025 421.261C291.746 421.228 292.465 421.199 293.181 421.174C294.449 421.129 295.773 421.088 297.136 421.053C299.266 420.998 301.496 420.959 303.771 420.939V174.275C303.772 170.592 306.322 167.285 310.572 164.829L523.205 42.0293C527.361 39.5733 533.218 38.1563 539.547 38.1562ZM376.491 942.703C376.491 942.811 376.487 942.918 376.484 943.024C376.487 942.918 376.492 942.81 376.492 942.702V942.698L376.491 942.703Z" fill="black"/>
<defs>
<linearGradient id="paint0_linear_5075_18693" x1="637.534" y1="565.868" x2="784.8" y2="565.868" gradientUnits="userSpaceOnUse">
<stop stop-color="#020202" stop-opacity="0.6"/>
<stop offset="1" stop-color="#020202" stop-opacity="0.5"/>
</linearGradient>
<linearGradient id="paint1_linear_5075_18693" x1="653.874" y1="587.978" x2="297.403" y2="587.601" gradientUnits="userSpaceOnUse">
<stop stop-color="#020202" stop-opacity="0"/>
<stop offset="1" stop-color="#020202" stop-opacity="0.2"/>
</linearGradient>
<linearGradient id="paint2_linear_5075_18693" x1="801.139" y1="559.131" x2="784.712" y2="559.112" gradientUnits="userSpaceOnUse">
<stop stop-color="#020202" stop-opacity="0.1"/>
<stop offset="1" stop-color="#020202" stop-opacity="0.2"/>
</linearGradient>
<linearGradient id="paint3_linear_5075_18693" x1="840.616" y1="550.667" x2="800.925" y2="550.56" gradientUnits="userSpaceOnUse">
<stop stop-color="#020202" stop-opacity="0.2"/>
<stop offset="1" stop-color="#020202" stop-opacity="0"/>
</linearGradient>
<linearGradient id="paint4_linear_5075_18693" x1="318.44" y1="596.566" x2="326.659" y2="596.566" gradientUnits="userSpaceOnUse">
<stop stop-opacity="0.9"/>
<stop offset="1" stop-opacity="0.9"/>
</linearGradient>
<linearGradient id="paint5_linear_5075_18693" x1="334.79" y1="606.011" x2="343.008" y2="606.011" gradientUnits="userSpaceOnUse">
<stop stop-opacity="0.9"/>
<stop offset="1" stop-opacity="0.9"/>
</linearGradient>
<linearGradient id="paint6_linear_5075_18693" x1="351.224" y1="615.46" x2="359.348" y2="615.46" gradientUnits="userSpaceOnUse">
<stop stop-opacity="0.9"/>
<stop offset="1" stop-opacity="0.9"/>
</linearGradient>
<linearGradient id="paint7_linear_5075_18693" x1="367.566" y1="624.905" x2="375.69" y2="624.905" gradientUnits="userSpaceOnUse">
<stop stop-opacity="0.9"/>
<stop offset="1" stop-opacity="0.9"/>
</linearGradient>
<linearGradient id="paint8_linear_5075_18693" x1="383.901" y1="634.349" x2="392.119" y2="634.349" gradientUnits="userSpaceOnUse">
<stop stop-opacity="0.9"/>
<stop offset="1" stop-opacity="0.9"/>
</linearGradient>
<linearGradient id="paint9_linear_5075_18693" x1="318.44" y1="700.473" x2="326.659" y2="700.473" gradientUnits="userSpaceOnUse">
<stop stop-opacity="0.9"/>
<stop offset="1" stop-opacity="0.9"/>
</linearGradient>
<linearGradient id="paint10_linear_5075_18693" x1="334.79" y1="709.919" x2="343.008" y2="709.919" gradientUnits="userSpaceOnUse">
<stop stop-opacity="0.9"/>
<stop offset="1" stop-opacity="0.9"/>
</linearGradient>
<linearGradient id="paint11_linear_5075_18693" x1="351.224" y1="719.365" x2="359.348" y2="719.365" gradientUnits="userSpaceOnUse">
<stop stop-opacity="0.9"/>
<stop offset="1" stop-opacity="0.9"/>
</linearGradient>
<linearGradient id="paint12_linear_5075_18693" x1="367.566" y1="728.812" x2="375.69" y2="728.812" gradientUnits="userSpaceOnUse">
<stop stop-opacity="0.9"/>
<stop offset="1" stop-opacity="0.9"/>
</linearGradient>
<linearGradient id="paint13_linear_5075_18693" x1="383.901" y1="738.258" x2="392.119" y2="738.258" gradientUnits="userSpaceOnUse">
<stop stop-opacity="0.9"/>
<stop offset="1" stop-opacity="0.9"/>
</linearGradient>
<linearGradient id="paint14_linear_5075_18693" x1="457.586" y1="676.859" x2="465.71" y2="676.859" gradientUnits="userSpaceOnUse">
<stop stop-opacity="0.9"/>
<stop offset="1" stop-opacity="0.9"/>
</linearGradient>
<linearGradient id="paint15_linear_5075_18693" x1="473.928" y1="686.304" x2="482.051" y2="686.304" gradientUnits="userSpaceOnUse">
<stop stop-opacity="0.9"/>
<stop offset="1" stop-opacity="0.9"/>
</linearGradient>
<linearGradient id="paint16_linear_5075_18693" x1="490.27" y1="695.75" x2="498.488" y2="695.75" gradientUnits="userSpaceOnUse">
<stop stop-opacity="0.9"/>
<stop offset="1" stop-opacity="0.9"/>
</linearGradient>
<linearGradient id="paint17_linear_5075_18693" x1="506.612" y1="705.196" x2="514.83" y2="705.196" gradientUnits="userSpaceOnUse">
<stop stop-opacity="0.9"/>
<stop offset="1" stop-opacity="0.9"/>
</linearGradient>
<linearGradient id="paint18_linear_5075_18693" x1="522.954" y1="714.643" x2="531.172" y2="714.643" gradientUnits="userSpaceOnUse">
<stop stop-opacity="0.9"/>
<stop offset="1" stop-opacity="0.9"/>
</linearGradient>
<linearGradient id="paint19_linear_5075_18693" x1="457.586" y1="780.769" x2="465.71" y2="780.769" gradientUnits="userSpaceOnUse">
<stop stop-opacity="0.9"/>
<stop offset="1" stop-opacity="0.9"/>
</linearGradient>
<linearGradient id="paint20_linear_5075_18693" x1="473.928" y1="790.213" x2="482.051" y2="790.213" gradientUnits="userSpaceOnUse">
<stop stop-opacity="0.9"/>
<stop offset="1" stop-opacity="0.9"/>
</linearGradient>
<linearGradient id="paint21_linear_5075_18693" x1="490.27" y1="799.657" x2="498.488" y2="799.657" gradientUnits="userSpaceOnUse">
<stop stop-opacity="0.9"/>
<stop offset="1" stop-opacity="0.9"/>
</linearGradient>
<linearGradient id="paint22_linear_5075_18693" x1="506.612" y1="809.104" x2="514.83" y2="809.104" gradientUnits="userSpaceOnUse">
<stop stop-opacity="0.9"/>
<stop offset="1" stop-opacity="0.9"/>
</linearGradient>
<linearGradient id="paint23_linear_5075_18693" x1="522.954" y1="818.55" x2="531.172" y2="818.55" gradientUnits="userSpaceOnUse">
<stop stop-opacity="0.9"/>
<stop offset="1" stop-opacity="0.9"/>
</linearGradient>
<linearGradient id="paint24_linear_5075_18693" x1="784.8" y1="381.052" x2="652.184" y2="385.226" gradientUnits="userSpaceOnUse">
<stop stop-color="#FEFEFE" stop-opacity="0.3"/>
<stop offset="1" stop-color="#FEFEFE" stop-opacity="0"/>
</linearGradient>
<linearGradient id="paint25_linear_5075_18693" x1="752.014" y1="613.548" x2="669.121" y2="615.586" gradientUnits="userSpaceOnUse">
<stop stop-color="#FEFEFE" stop-opacity="0.1"/>
<stop offset="1" stop-color="#FEFEFE" stop-opacity="0.3"/>
</linearGradient>
<linearGradient id="paint26_linear_5075_18693" x1="840.53" y1="208.427" x2="380.883" y2="221.579" gradientUnits="userSpaceOnUse">
<stop stop-color="#020202" stop-opacity="0.2"/>
<stop offset="1" stop-color="#020202" stop-opacity="0"/>
</linearGradient>
<linearGradient id="paint27_linear_5075_18693" x1="840.616" y1="343.373" x2="800.586" y2="343.829" gradientUnits="userSpaceOnUse">
<stop stop-color="#FEFEFE" stop-opacity="0.1"/>
<stop offset="0.595" stop-color="#FEFEFE" stop-opacity="0.3"/>
</linearGradient>
<linearGradient id="paint28_linear_5075_18693" x1="653.875" y1="454.509" x2="587.623" y2="455.788" gradientUnits="userSpaceOnUse">
<stop stop-color="#FEFEFE" stop-opacity="0.1"/>
<stop offset="1" stop-color="#FEFEFE" stop-opacity="0.3"/>
</linearGradient>
<linearGradient id="paint29_linear_5075_18693" x1="801.139" y1="354.747" x2="784.57" y2="354.831" gradientUnits="userSpaceOnUse">
<stop stop-color="#FEFEFE" stop-opacity="0.1"/>
<stop offset="1" stop-color="#FEFEFE" stop-opacity="0"/>
</linearGradient>
<linearGradient id="paint30_linear_5075_18693" x1="451.767" y1="461.216" x2="200.603" y2="886.401" gradientUnits="userSpaceOnUse">
<stop stop-color="#F9F9F9"/>
<stop offset="1" stop-color="#BEBEBE"/>
</linearGradient>
<linearGradient id="paint31_linear_5075_18693" x1="448.832" y1="472.908" x2="176.735" y2="874.159" gradientUnits="userSpaceOnUse">
<stop stop-color="#72BBEC"/>
<stop offset="0.5" stop-color="#4EAAE7"/>
<stop offset="1" stop-color="#2296E2"/>
</linearGradient>
<linearGradient id="paint32_linear_5075_18693" x1="49.4579" y1="761.271" x2="375.312" y2="840.132" gradientUnits="userSpaceOnUse">
<stop stop-color="#FF584F"/>
<stop offset="0.5" stop-color="#FF3126"/>
<stop offset="1" stop-color="#EC0B00"/>
</linearGradient>
<linearGradient id="paint33_linear_5075_18693" x1="388.325" y1="941.222" x2="79.9168" y2="637.526" gradientUnits="userSpaceOnUse">
<stop stop-color="#FB9C9C"/>
<stop offset="1" stop-color="#FF6B6B"/>
</linearGradient>
<linearGradient id="paint34_linear_5075_18693" x1="74.592" y1="699.515" x2="140.593" y2="815.992" gradientUnits="userSpaceOnUse">
<stop stop-color="#E2E2E2"/>
<stop offset="0.5" stop-color="#E8E8E8"/>
<stop offset="1" stop-color="#F4F4F4"/>
</linearGradient>
<linearGradient id="paint35_linear_5075_18693" x1="149.077" y1="811.229" x2="161.154" y2="748.137" gradientUnits="userSpaceOnUse">
<stop stop-color="#E2E2E2"/>
<stop offset="0.5" stop-color="#E8E8E8"/>
<stop offset="1" stop-color="#F4F4F4"/>
</linearGradient>
<linearGradient id="paint36_linear_5075_18693" x1="111.518" y1="790.675" x2="120.786" y2="758.677" gradientUnits="userSpaceOnUse">
<stop stop-color="#F4F4F4"/>
<stop offset="0.5" stop-color="#E8E8E8"/>
<stop offset="1" stop-color="#E2E2E2"/>
</linearGradient>
<linearGradient id="paint37_linear_5075_18693" x1="120.157" y1="715.594" x2="134.95" y2="771.892" gradientUnits="userSpaceOnUse">
<stop stop-color="#F4F4F4"/>
<stop offset="0.5" stop-color="#E8E8E8"/>
<stop offset="1" stop-color="#E2E2E2"/>
</linearGradient>
<linearGradient id="paint38_linear_5075_18693" x1="82.9751" y1="694.836" x2="99.9889" y2="749.711" gradientUnits="userSpaceOnUse">
<stop stop-color="#F4F4F4"/>
<stop offset="0.5" stop-color="#E8E8E8"/>
<stop offset="1" stop-color="#E2E2E2"/>
</linearGradient>
<linearGradient id="paint39_linear_5075_18693" x1="161.963" y1="748.291" x2="227.964" y2="864.769" gradientUnits="userSpaceOnUse">
<stop stop-color="#E2E2E2"/>
<stop offset="0.5" stop-color="#E8E8E8"/>
<stop offset="1" stop-color="#F4F4F4"/>
</linearGradient>
<linearGradient id="paint40_linear_5075_18693" x1="236.45" y1="860.004" x2="248.527" y2="796.912" gradientUnits="userSpaceOnUse">
<stop stop-color="#E2E2E2"/>
<stop offset="0.5" stop-color="#E8E8E8"/>
<stop offset="1" stop-color="#F4F4F4"/>
</linearGradient>
<linearGradient id="paint41_linear_5075_18693" x1="198.89" y1="839.446" x2="208.158" y2="807.448" gradientUnits="userSpaceOnUse">
<stop stop-color="#F4F4F4"/>
<stop offset="0.5" stop-color="#E8E8E8"/>
<stop offset="1" stop-color="#E2E2E2"/>
</linearGradient>
<linearGradient id="paint42_linear_5075_18693" x1="207.588" y1="764.37" x2="222.493" y2="820.629" gradientUnits="userSpaceOnUse">
<stop stop-color="#F4F4F4"/>
<stop offset="0.5" stop-color="#E8E8E8"/>
<stop offset="1" stop-color="#E2E2E2"/>
</linearGradient>
<linearGradient id="paint43_linear_5075_18693" x1="170.346" y1="743.61" x2="187.36" y2="798.486" gradientUnits="userSpaceOnUse">
<stop stop-color="#F4F4F4"/>
<stop offset="0.5" stop-color="#E8E8E8"/>
<stop offset="1" stop-color="#E2E2E2"/>
</linearGradient>
<linearGradient id="paint44_linear_5075_18693" x1="323.823" y1="908.778" x2="335.9" y2="845.687" gradientUnits="userSpaceOnUse">
<stop stop-color="#E2E2E2"/>
<stop offset="0.5" stop-color="#E8E8E8"/>
<stop offset="1" stop-color="#F4F4F4"/>
</linearGradient>
<linearGradient id="paint45_linear_5075_18693" x1="286.263" y1="888.222" x2="295.531" y2="856.224" gradientUnits="userSpaceOnUse">
<stop stop-color="#F4F4F4"/>
<stop offset="0.5" stop-color="#E8E8E8"/>
<stop offset="1" stop-color="#E2E2E2"/>
</linearGradient>
<linearGradient id="paint46_linear_5075_18693" x1="294.923" y1="813.141" x2="309.76" y2="869.424" gradientUnits="userSpaceOnUse">
<stop stop-color="#F4F4F4"/>
<stop offset="0.5" stop-color="#E8E8E8"/>
<stop offset="1" stop-color="#E2E2E2"/>
</linearGradient>
<linearGradient id="paint47_linear_5075_18693" x1="257.721" y1="792.387" x2="274.735" y2="847.262" gradientUnits="userSpaceOnUse">
<stop stop-color="#F4F4F4"/>
<stop offset="0.5" stop-color="#E8E8E8"/>
<stop offset="1" stop-color="#E2E2E2"/>
</linearGradient>
<linearGradient id="paint48_linear_5075_18693" x1="249.335" y1="797.067" x2="315.336" y2="913.545" gradientUnits="userSpaceOnUse">
<stop stop-color="#E2E2E2"/>
<stop offset="0.5" stop-color="#E8E8E8"/>
<stop offset="1" stop-color="#F4F4F4"/>
</linearGradient>
</defs>
</svg>
